<svg version="1.1" xmlns="http://www.w3.org/2000/svg" xmlns:xlink="http://www.w3.org/1999/xlink" width="153.59345" height="156.54957" viewBox="0,0,153.59345,156.54957"><g transform="translate(-563.20327,-281.72521)"><g data-paper-data="{&quot;isPaintingLayer&quot;:true}" fill-rule="nonzero" stroke="none" stroke-width="1" stroke-linecap="butt" stroke-linejoin="miter" stroke-miterlimit="10" stroke-dasharray="" stroke-dashoffset="0" style="mix-blend-mode: normal"><g><path d="M619.39937,388.96153c-1.36735,0.7654 -2.78477,1.61409 -4.25227,2.54607c-0.30018,0.19972 -0.60036,0.39944 -0.90054,0.59917c0.80054,-0.59926 1.68442,-1.21511 2.65165,-1.84755c0.73375,-0.46599 1.46747,-0.89864 2.20116,-1.29797c0.1,0.00009 0.2,0.00018 0.3,0.00027M639.25566,381.77982c0.36642,0.267 0.54915,0.91716 0.54821,1.95047c-0.00061,0.66666 -0.33464,1.43301 -1.00209,2.29905c0.26712,-0.49975 0.40088,-0.96629 0.40128,-1.39961c0.00098,-1.06665 -0.18173,-1.75014 -0.54811,-2.05047l0.00005,-0.05c-0.33321,-0.13364 -0.63308,-0.26724 -0.89962,-0.40082c-0.7999,-0.10073 -1.38319,-0.1346 -1.74988,-0.1016c-19.33289,-0.18436 -30.74929,-0.29482 -34.2492,-0.33135c-3.56655,-0.06993 -6.19978,-0.13901 -7.8997,-0.20723c-1.66661,-0.03486 -3.5332,-0.08657 -5.59978,-0.15512c-1.03329,-0.03428 -2.54988,-0.08567 -4.54979,-0.15416c-2.43327,-0.03556 -4.43224,-1.12071 -5.99693,-3.25544c-1.46478,-2.03465 -2.99457,-5.88599 -4.58936,-11.55404c-0.4594,-7.93364 0.01453,-15.86642 1.42177,-23.79836c4.1003,-0.39624 7.15062,-0.79344 9.15096,-1.1916c3.89976,0.20357 9.58278,0.45877 17.04905,0.7656c20.26569,0.75188 30.88184,1.14492 31.84846,1.17914c1.23325,0.06779 2.33331,-0.01453 3.30018,-0.24697c2.13379,-0.53137 3.16824,-1.76374 3.10334,-3.69711c0.00034,-0.36666 -0.06598,-0.75005 -0.19894,-1.15017c0.53247,0.93381 0.7984,1.73404 0.79779,2.4007c0.06496,1.8667 -0.91945,3.04911 -2.95321,3.54725c-0.93353,0.23248 -1.98359,0.31485 -3.15018,0.24711c-0.89996,-0.03416 -10.99947,-0.41006 -30.29853,-1.12772c-7.09962,-0.3065 -12.51597,-0.56145 -16.24907,-0.76487c-1.90034,0.39825 -4.80064,0.77893 -8.70092,1.14202c-1.34024,7.56533 -1.79715,15.1148 -1.37072,22.64842c1.52837,5.40132 2.99165,9.06927 4.38986,11.00386c1.49812,2.03468 3.39714,3.06973 5.69707,3.10517c1.89991,0.06841 3.34984,0.11973 4.3498,0.15398c1.96658,0.06847 3.73317,0.12008 5.29978,0.15485c1.63325,0.06816 4.14981,0.13713 7.5497,0.20691c3.33325,0.03638 14.19968,0.12967 32.59927,0.27984c0.33336,-0.03303 0.88332,0.00081 1.64988,0.10151c0.26654,0.13358 0.54975,0.26717 0.84962,0.40077l-0.00005,0.05M700.53668,346.93642c-1.99686,-3.40178 -4.66043,-6.7375 -7.99072,-10.00717c-6.46178,-5.23917 -12.70695,-10.41148 -18.73552,-15.51693c0.99934,0.7009 2.28177,1.66873 3.84729,2.90348c-2.86433,-2.50259 -5.31242,-4.5548 -7.34426,-6.15664c-0.9658,-0.9342 -1.84845,-1.66833 -2.64795,-2.20239c-0.93243,-0.96751 -1.73183,-1.61823 -2.39818,-1.95217c-17.38734,-13.54906 -26.63108,-20.24076 -27.73122,-20.0751c-1.26668,0.03217 -5.20267,2.99519 -11.80797,8.88906c-5.73788,5.06134 -9.82463,8.85754 -12.26025,11.38861c-1.0658,-0.9343 -1.84846,-1.65167 -2.348,-2.15212c2.46907,-2.66437 6.90614,-6.81025 13.3112,-12.43763c6.9389,-6.19356 11.07503,-9.30639 12.40837,-9.3385c1.1668,-0.1656 10.87688,6.87653 29.13024,21.12637c0.69968,0.33397 1.53238,1.01805 2.49809,2.05226c0.86617,0.53412 1.79878,1.30163 2.79785,2.30253c2.13177,1.66859 4.69643,3.82091 7.69398,6.45695c-1.63212,-1.30148 -2.9645,-2.31935 -3.99715,-3.05362c6.32832,5.37238 12.88992,10.81165 19.68478,16.31779c3.4968,3.43649 6.29356,6.939 8.39026,10.50753c3.06244,4.5694 4.60561,12.00404 4.62951,22.30392c-0.87587,10.06572 -9.45197,20.50772 -25.72831,31.32599c-15.20978,10.91925 -26.60006,18.69204 -34.17086,23.31838c-7.77067,4.49282 -12.30608,6.83863 -13.60625,7.03744c-1.10004,0.06566 -4.5798,-3.78747 -10.43927,-11.55939c-6.22598,-7.93892 -9.90487,-12.72555 -11.03669,-14.3599c0.76702,-0.39929 1.53404,-0.79858 2.30106,-1.19788c1.43151,1.96795 4.79416,6.3043 10.08794,13.00905c5.55981,7.40498 8.87307,11.07463 9.93978,11.00894c1.23347,-0.16553 5.53545,-2.3949 12.90594,-6.68809c7.23725,-4.39331 18.09386,-11.78326 32.56983,-22.16986c15.47589,-10.31902 23.63488,-20.2614 24.47696,-29.82716c-0.02436,-9.79988 -1.50119,-16.88446 -4.43048,-21.25375z" fill="#ffffff"/><path d="M694.78829,399.8804c-2.07018,3.86472 -11.92677,11.22225 -29.56978,22.07261c-17.04302,10.85091 -27.23119,16.2915 -30.5645,16.32178c-3.0332,-0.10278 -5.66566,-1.00517 -7.89741,-2.70719c-1.99838,-1.73514 -5.36082,-6.30482 -10.0873,-13.70904c-5.02633,-7.57116 -8.63781,-13.17439 -10.83445,-16.80968c-1.89671,-3.56835 0.9072,-7.88239 8.41173,-12.94211c0.30018,-0.19972 0.60036,-0.39944 0.90054,-0.59917c1.4675,-0.93198 2.88492,-1.78067 4.25227,-2.54607c-0.1,-0.00009 -0.2,-0.00018 -0.3,-0.00027c-2.56641,-0.23568 -5.43282,-0.47163 -8.59923,-0.70786c-3.0332,-0.10278 -7.7999,0.00953 -14.3001,0.3369c-6.56681,0.26065 -10.10021,0.39075 -10.6002,0.39029c-0.69993,-0.06731 -2.31662,-0.01879 -4.85006,0.14556c-2.39981,-0.16886 -4.58264,-0.68752 -6.54848,-1.55597c-5.93053,-2.97205 -9.5242,-9.82524 -10.78102,-20.55957c-0.62499,-9.10044 0.10006,-18.26631 2.17514,-27.49761c4.03638,-3.39626 8.85476,-5.34182 14.45514,-5.83668c6.53317,0.07265 11.31645,0.06036 14.34983,-0.03686c5.70016,-0.26144 10.21688,-0.39064 13.55016,-0.38759c5.26665,-0.06184 9.98301,0.19247 14.1491,0.76294c0.13339,-0.06654 0.26678,-0.13309 0.40018,-0.19963c0.16669,-0.03318 0.33339,-0.06636 0.50008,-0.09954c-0.73268,-0.70066 -2.49816,-1.96893 -5.29644,-3.80479c-3.59787,-2.26993 -6.06299,-3.92216 -7.39536,-4.9567c-0.66617,-0.53394 -1.31567,-1.06786 -1.94851,-1.60176c-4.66278,-4.17088 -6.79245,-8.13943 -6.38901,-11.90568c0.6032,-3.4994 6.62529,-9.52713 18.0663,-18.0832c3.63581,-2.7633 7.43829,-5.52644 11.40742,-8.28944c3.43539,-2.29682 5.18638,-3.41187 5.25299,-3.34514c2.33342,-0.1312 8.03027,3.22397 17.09054,10.0655c4.56351,3.3708 9.04353,6.92485 13.44004,10.66215c3.16405,2.80286 8.51007,7.07436 16.03804,12.8145c3.0976,2.56947 5.79517,5.18856 8.09269,7.8573c6.69535,4.97272 12.42323,10.84455 17.18362,17.61548c6.75835,8.97272 9.36666,18.05832 7.82493,27.25677c-2.37652,10.79767 -9.56948,21.42426 -21.57888,31.87978M707.66702,368.29264c-0.0239,-10.29987 -1.56707,-17.73451 -4.62951,-22.30392c-2.0967,-3.56853 -4.89346,-7.07104 -8.39026,-10.50753c-6.79486,-5.50614 -13.35645,-10.9454 -19.68478,-16.31779c1.03265,0.73427 2.36503,1.75214 3.99715,3.05362c-2.99754,-2.63604 -5.5622,-4.78836 -7.69398,-6.45695c-0.99907,-1.0009 -1.93169,-1.76841 -2.79785,-2.30253c-0.96571,-1.0342 -1.7984,-1.71829 -2.49809,-2.05226c-18.25336,-14.24984 -27.96344,-21.29196 -29.13024,-21.12637c-1.33334,0.03211 -5.46947,3.14495 -12.40837,9.3385c-6.40506,5.62739 -10.84212,9.77327 -13.3112,12.43763c0.49953,0.50045 1.2822,1.21782 2.348,2.15212c2.69782,2.33577 7.17768,6.05648 13.43959,11.16214c6.99458,5.80632 10.95727,10.09322 11.88805,12.8607c0.13297,0.40012 0.19928,0.7835 0.19894,1.15017c0.0649,1.93336 -0.96955,3.16573 -3.10334,3.69711c-0.96687,0.23244 -2.06693,0.31477 -3.30018,0.24697c-0.96662,-0.03422 -11.58278,-0.42727 -31.84846,-1.17914c-7.46628,-0.30683 -13.1493,-0.56203 -17.04905,-0.7656c-2.00034,0.39816 -5.05066,0.79536 -9.15096,1.1916c-1.40724,7.93193 -1.88116,15.86472 -1.42177,23.79836c1.59479,5.66805 3.12457,9.51939 4.58936,11.55404c1.56469,2.13474 3.56367,3.21988 5.99693,3.25544c1.99991,0.0685 3.51651,0.11988 4.54979,0.15416c2.06657,0.06856 3.93317,0.12027 5.59978,0.15512c1.69991,0.06822 4.33315,0.1373 7.8997,0.20723c3.49992,0.03654 14.91632,0.14699 34.2492,0.33135c0.36669,-0.033 0.94999,0.00087 1.74988,0.1016c0.26654,0.13358 0.56641,0.26718 0.89962,0.40082l-0.00005,0.05c0.36639,0.30033 0.54909,0.98382 0.54811,2.05047c-0.0004,0.43333 -0.13416,0.89986 -0.40128,1.39961c-1.10194,2.13229 -4.52122,5.04579 -10.25785,8.74048c-4.10241,2.69621 -8.62148,5.39203 -13.55721,8.08747c-0.76702,0.39929 -1.53404,0.79858 -2.30106,1.19788c1.13182,1.63435 4.81072,6.42098 11.03669,14.3599c5.85947,7.77192 9.33922,11.62505 10.43927,11.55939c1.30016,-0.19881 5.83558,-2.54462 13.60625,-7.03744c7.57079,-4.62634 18.96108,-12.39913 34.17086,-23.31838c16.27634,-10.81828 24.85244,-21.26027 25.72831,-31.32599M635.05774,379.576l0.05005,-0.04995l0.34995,0.05032c-0.13333,-0.00012 -0.26666,-0.00024 -0.39999,-0.00037z" fill="#000000"/><path d="M680.4902,398.01733c-14.47597,10.3866 -25.33258,17.77655 -32.56983,22.16986c-7.37049,4.29319 -11.67247,6.52255 -12.90594,6.68809c-1.06671,0.06569 -4.37997,-3.60396 -9.93978,-11.00894c-5.29379,-6.70475 -8.65643,-11.0411 -10.08794,-13.00905c4.93573,-2.69544 9.4548,-5.39127 13.55721,-8.08747c5.73663,-3.69469 9.15592,-6.60819 10.25785,-8.74048c0.66745,-0.86604 1.00148,-1.63239 1.00209,-2.29905c0.00095,-1.03332 -0.18179,-1.68348 -0.54821,-1.95047l0.00005,-0.05c-0.29987,-0.13361 -0.58308,-0.2672 -0.84962,-0.40077c-0.76656,-0.1007 -1.31652,-0.13454 -1.64988,-0.10151c-18.3996,-0.15018 -29.26602,-0.24346 -32.59927,-0.27984c-3.39989,-0.06978 -5.91645,-0.13875 -7.5497,-0.20691c-1.56661,-0.03477 -3.33321,-0.08638 -5.29978,-0.15485c-0.99995,-0.03425 -2.44989,-0.08558 -4.3498,-0.15398c-2.29993,-0.03544 -4.19896,-1.0705 -5.69707,-3.10517c-1.39821,-1.93459 -2.8615,-5.60254 -4.38986,-11.00386c-0.42643,-7.53362 0.03048,-15.08309 1.37072,-22.64842c3.90028,-0.36309 6.80058,-0.74376 8.70092,-1.14202c3.73309,0.20341 9.14945,0.45837 16.24907,0.76487c19.29906,0.71766 29.39857,1.09357 30.29853,1.12772c1.16659,0.06773 2.21665,-0.01464 3.15018,-0.24711c2.03376,-0.49813 3.01816,-1.68055 2.95321,-3.54725c0.00061,-0.66666 -0.26532,-1.46689 -0.79779,-2.4007c-0.93079,-2.76748 -4.89347,-7.05438 -11.88805,-12.8607c-6.2619,-5.10566 -10.74176,-8.82637 -13.43959,-11.16214c2.43562,-2.53107 6.52237,-6.32727 12.26025,-11.38861c6.6053,-5.89387 10.54129,-8.85689 11.80797,-8.88906c1.10014,-0.16566 10.34388,6.52604 27.73122,20.0751c0.66635,0.33394 1.46574,0.98466 2.39818,1.95217c0.7995,0.53406 1.68215,1.26819 2.64795,2.20239c2.03184,1.60184 4.47992,3.65405 7.34426,6.15664c-1.56551,-1.23475 -2.84794,-2.20258 -3.84729,-2.90348c6.02857,5.10545 12.27375,10.27776 18.73552,15.51693c3.33029,3.26967 5.99387,6.60539 7.99072,10.00717c2.92929,4.36929 4.40612,11.45387 4.43048,21.25375c-0.84208,9.56576 -9.00106,19.50814 -24.47696,29.82716M635.05774,379.576c0.13333,0.00012 0.26666,0.00024 0.39999,0.00037l-0.34995,-0.05032z" fill="#87a3ad"/></g></g></g></svg>