<svg version="1.1" xmlns="http://www.w3.org/2000/svg" xmlns:xlink="http://www.w3.org/1999/xlink" width="188.85" height="270.25" viewBox="0,0,188.85,270.25"><g transform="translate(-545.08459,-225.32108)"><g data-paper-data="{&quot;isPaintingLayer&quot;:true}" fill-rule="nonzero" stroke="none" stroke-width="1" stroke-linecap="round" stroke-linejoin="miter" stroke-miterlimit="4" stroke-dasharray="" stroke-dashoffset="0" style="mix-blend-mode: normal"><path d="M706.9346,431.57108c-2.33333,0 -5.56667,-0.86667 -9.7,-2.6c-4.96667,-2.13333 -7.73333,-3.26667 -8.3,-3.4c1.7,4.7 6.83333,17.51667 15.4,38.45c7.06667,17.3 10.6,26.6 10.6,27.9c0,1.66667 -0.08333,2.55 -0.25,2.65c-0.03333,0.16667 -0.13333,0.33333 -0.3,0.5c-0.26667,0.33333 -0.91667,0.5 -1.95,0.5c-1.46667,0 -6.95,-6.88333 -16.45,-20.65c-7.03333,-10.23333 -14.3,-21.26667 -21.8,-33.1c0,1.23333 0.15,3.96667 0.45,8.2c0.3,3.83333 0.4,7.01667 0.3,9.55c-0.06667,0.2 -0.2,0.41667 -0.4,0.65c-0.36667,0.4 -1.06667,0.6 -2.1,0.6c-2.33333,0 -4.25,-3.68333 -5.75,-11.05c-1.23333,-8.2 -2.15,-13.18333 -2.75,-14.95c-1.33333,-4.53333 -2.51667,-8.65 -3.55,-12.35c-1.96667,-7.16667 -2.95,-11.43333 -2.95,-12.8c0,-0.86667 0.05,-1.83333 0.15,-2.9c0.06667,-1.06667 0.1,-1.96667 0.1,-2.7c0.1,0 0.11667,-0.11667 0.05,-0.35c0.1,-0.26667 0.66667,-0.4 1.7,-0.4c0.16667,0 2.71667,3.15 7.65,9.45c5.3,6.76667 8.5,10.7 9.6,11.8c1.2,-1 1.91667,-1.65 2.15,-1.95c0.23333,-0.3 0.35,-0.73333 0.35,-1.3c0,-1.46667 -0.53333,-4.2 -1.6,-8.2c-1.1,-4.03333 -1.65,-7.05 -1.65,-9.05c0,-7.33333 5.26667,-6.06667 15.8,3.8c4,3.73333 10.4,10.63333 19.2,20.7c-0.56667,1.16667 -1,1.91667 -1.3,2.25c-0.4,0.5 -1.3,0.75 -2.7,0.75M704.4346,425.97108c-4.5,-5.66667 -9.06667,-10.63333 -13.7,-14.9c-5.53333,-5.03333 -8.3,-6.15 -8.3,-3.35c0,1.43333 0.7,3.11667 2.1,5.05c0.8,1.13333 2.1,2.83333 3.9,5.1c1.2,1.66667 3.38333,3.35 6.55,5.05c2.9,1.53333 5.96667,2.75 9.2,3.65c0.16667,-0.16667 0.25,-0.36667 0.25,-0.6M663.4846,420.22108c0,0.66667 0.03333,2.08333 0.1,4.25c0,0.5 0.25,1.26667 0.75,2.3c0.5,1 0.75,1.65 0.75,1.95c0,3.66667 0.01667,5.58333 0.05,5.75c0.23333,0.83333 1.63333,3.5 4.2,8c0.33333,-0.26667 0.73333,-1.41667 1.2,-3.45c0.43333,-1.86667 0.65,-3.08333 0.65,-3.65c0,-3 -0.78333,-6.6 -2.35,-10.8c-2.03333,-4.9 -3.53333,-8.51667 -4.5,-10.85h-0.4c-0.3,3.4 -0.45,5.56667 -0.45,6.5M676.5846,428.37108c0,0.1 0.8,1.51667 2.4,4.25c1.56667,3.06667 2.35,5.46667 2.35,7.2c0,3.46667 1.41667,7.46667 4.25,12c1.73333,2.8 3.8,6.81667 6.2,12.05c2.43333,4.46667 5.61667,8.16667 9.55,11.1v-0.4c-1.93333,-3.23333 -3.68333,-7.33333 -5.25,-12.3c-1.63333,-5.66667 -2.9,-9.88333 -3.8,-12.65c-3.3,-10.06667 -8.5,-17.45 -15.6,-22.15h-0.05c-0.03333,0.06667 -0.05,0.36667 -0.05,0.9M714.1846,329.77108c-3.3,5.76667 -5.86667,10.05 -7.7,12.85c-6.8,10.2 -15.65,16.26667 -26.55,18.2c0.16667,-6.23333 5.96667,-14.13333 17.4,-23.7c2.76667,-2.33333 11.3,-8.6 25.6,-18.8c-2.83333,2.63333 -5.75,6.45 -8.75,11.45M703.4346,338.37108c-5.76667,1.33333 -9.48333,2.71667 -11.15,4.15c-1.23333,1.1 -1.85,3 -1.85,5.7c0,0.1 0.41667,0.56667 1.25,1.4c1.8,-0.23333 4.41667,-1.9 7.85,-5c3.1,-2.83333 4.65,-4.51667 4.65,-5.05c0,-0.5 -0.06667,-0.8 -0.2,-0.9c-0.2,-0.03333 -0.38333,-0.13333 -0.55,-0.3M684.6846,355.47108c0.83333,-0.43333 1.91667,-1.35 3.25,-2.75c1.1,-1.16667 1.9,-2.13333 2.4,-2.9c-1.63333,0.06667 -3.18333,0.6 -4.65,1.6c-1.4,0.93333 -2.1,1.83333 -2.1,2.7c0,0.56667 0.08333,0.91667 0.25,1.05c0.03333,0.03333 0.31667,0.13333 0.85,0.3M589.5346,364.32108c-0.56667,-1.63333 -0.85,-2.85 -0.85,-3.65c0,-1 0.01667,-1.53333 0.05,-1.6c0.13333,0 0.28333,-0.16667 0.45,-0.5c0.43333,0 1.03333,-0.01667 1.8,-0.05c0.66667,0 1.31667,0.1 1.95,0.3c0.26667,7.06667 5.03333,14.65 14.3,22.75c9.7,8.53333 21.6,15.03333 35.7,19.5c-0.16667,0.33333 -0.38333,0.65 -0.65,0.95c0.23333,0 0.45,0.01667 0.65,0.05c-0.5,0.3 -1.01667,0.58333 -1.55,0.85c-0.73333,0.63333 -1.63333,1.2 -2.7,1.7c-1.93333,0.96667 -3.68333,1.45 -5.25,1.45c-0.56667,0 -1.13333,-0.01667 -1.7,-0.05c-3.53333,0.7 -7.3,1.05 -11.3,1.05c-0.73333,0 -1.45,-0.03333 -2.15,-0.1c-2.76667,3.9 -6.36667,9 -10.8,15.3c-7.03333,9.93333 -13.71667,18.11667 -20.05,24.55c-1.16667,-1.06667 -1.88333,-1.73333 -2.15,-2c-0.4,-0.36667 -0.6,-0.61667 -0.6,-0.75c0,-1.7 2.86667,-7.5 8.6,-17.4c2.9,-5 5.95,-10.2 9.15,-15.6v-0.5c-0.26667,0.1 -8.95,4.65 -26.05,13.65c-14.46667,7.56667 -23.56667,11.35 -27.3,11.35c-1.13333,0 -1.98333,-0.11667 -2.55,-0.35c-0.33333,-0.13333 -0.73333,-0.43333 -1.2,-0.9l-0.25,-1.5c5.8,-5.86667 13.46667,-13.11667 23,-21.75c5.16667,-4.73333 13.28333,-11.98333 24.35,-21.75l0.25,-0.75c-1.13333,0.5 -4.93333,1.76667 -11.4,3.8c-6.3,1.96667 -9.58333,2.95 -9.85,2.95c-1.03333,0 -1.96667,-0.08333 -2.8,-0.25l-0.95,-0.25c0,-0.5 -0.58333,-1 -1.75,-1.5c1.93333,-1.4 7.26667,-3.93333 16,-7.6c4.4,-1.83333 8.13333,-3.23333 11.2,-4.2c-0.96667,-2.73333 -1.8,-5.6 -2.5,-8.6l-1.2,-6.35c0,-0.83333 0.03333,-1.58333 0.1,-2.25M594.5846,375.92108c0,0.06667 2.28333,3.71667 6.85,10.95c-0.9,0.43333 -1.9,1.01667 -3,1.75c-4.7,3.2 -9.98333,8.23333 -15.85,15.1c-2.8,3.3 -7.38333,7.76667 -13.75,13.4c-5.56667,4.93333 -8.35,7.45 -8.35,7.55c0,0.53333 0.11667,0.9 0.35,1.1c0.03333,0 0.33333,0.1 0.9,0.3c0.4,-0.23333 8.15,-5.53333 23.25,-15.9c10.6,-7.6 17.43333,-13.08333 20.5,-16.45c0.1,0.23333 0.21667,0.46667 0.35,0.7c2.6,5.06667 3.9,8.2 3.9,9.4c0,0.46667 -1.45,3.51667 -4.35,9.15c-2.93333,5.63333 -4.4,8.86667 -4.4,9.7c0,0.53333 0.11667,0.9 0.35,1.1c0.03333,0 0.33333,0.1 0.9,0.3c3.06667,-3.8 6.65,-8.9 10.75,-15.3c3.83333,-5.93333 5.75,-9.2 5.75,-9.8c0,-0.56667 -0.3,-1.23333 -0.9,-2c0.5,-0.56667 0.75,-1.23333 0.75,-2c0,-2.06667 -3.16667,-5.08333 -9.5,-9.05c-7.23333,-4.5 -11.68333,-8.23333 -13.35,-11.2c-0.2,0.03333 -0.38333,0.1 -0.55,0.2c-0.4,0.16667 -0.6,0.5 -0.6,1M576.6346,331.57108c-4.3,-5.33333 -10.11667,-13.5 -17.45,-24.5c0.93333,0.33333 3.5,1.83333 7.7,4.5c4.86667,3.1 9.55,6.3 14.05,9.6c13,9.5 19.5,16.25 19.5,20.25c0,1.16667 -0.33333,2.3 -1,3.4c-0.93333,1.5 -2.26667,2.25 -4,2.25c-4.23333,0 -10.5,-5.16667 -18.8,-15.5M584.18459,330.47108c-2.46667,-2.2 -6.03333,-4.98333 -10.7,-8.35l-0.65,0.2c4.03333,4.2 7,7.8 8.9,10.8c1.66667,2.5 3,4.28333 4,5.35c2.5,2.73333 4.83333,4.1 7,4.1c0.53333,0 0.85,-0.05 0.95,-0.15c0.03333,-0.06667 0.08333,-0.18333 0.15,-0.35c-1.16667,-3.16667 -4.38333,-7.03333 -9.65,-11.6M692.9346,298.82108c0,1.33333 -0.35,3.83333 -1.05,7.5c-0.66667,3.53333 -1.23333,6.03333 -1.7,7.5c3.83333,-4.03333 10.56667,-12.55 20.2,-25.55c8.6,-11.56667 15.61667,-19.8 21.05,-24.7c0.43333,0.16667 1,0.38333 1.7,0.65c0.53333,0.33333 0.8,1.03333 0.8,2.1c0,0.9 -21,32.56667 -63,95c-1.03333,0 -1.85,-0.08333 -2.45,-0.25l-0.55,-0.25l-0.25,-1c0.53333,-2.23333 1.2,-4.71667 2,-7.45c-0.16667,-0.53333 -0.31667,-1.1 -0.45,-1.7c-0.03333,-0.2 -0.06667,-0.38333 -0.1,-0.55c-0.16667,-0.26667 -0.31667,-0.55 -0.45,-0.85c-0.13333,-0.3 -0.26667,-0.58333 -0.4,-0.85c-1.86667,-2.3 -3.9,-4.61667 -6.1,-6.95c-4.7,-5.03333 -9.15,-8.56667 -13.35,-10.6c-2.3,-0.53333 -4.76667,-0.8 -7.4,-0.8c-0.83333,0 -1.58333,0.38333 -2.25,1.15c-0.66667,0.73333 -1.41667,1.1 -2.25,1.1c-2.76667,0 -7.55,-5.95 -14.35,-17.85c-6.4,-11.26667 -10.28333,-19.73333 -11.65,-25.4c0.26667,-0.23333 0.46667,-0.58333 0.6,-1.05c0.23333,-0.3 0.86667,-0.45 1.9,-0.45c0.93333,0 3.13333,2.1 6.6,6.3c4.56667,5.6 7.03333,8.58333 7.4,8.95c-1.6,-16.13333 -2.86667,-28.46667 -3.8,-37c-1.63333,-15.23333 -3.36667,-27.86667 -5.2,-37.9l0.5,-2.35c1,0 1.5,-0.08333 1.5,-0.25c3.3,8.96667 6.46667,19.36667 9.5,31.2c1.4,5.4 3.9,15.91667 7.5,31.55c0.8,3.5 1.9,8.8 3.3,15.9c1.33333,6.26667 2.73333,11.46667 4.2,15.6c0.43333,1.16667 1,2.25 1.7,3.25c3.03333,0.36667 6.51667,1.33333 10.45,2.9c5.06667,2.06667 9.33333,4.51667 12.8,7.35c1.86667,1.56667 3.28333,3.08333 4.25,4.55c0.96667,-3.03333 2.01667,-6.25 3.15,-9.65c5.63333,-16.83333 9.18333,-27.71667 10.65,-32.65c0.1,0 0.3,-0.11667 0.6,-0.35c0.3,-0.26667 0.93333,-0.4 1.9,-0.4c1.13333,0 1.86667,0.4 2.2,1.2c0.2,0.5 0.3,1.51667 0.3,3.05M707.4346,298.52108c-0.26667,0 -0.51667,-0.05 -0.75,-0.15c-1.73333,2.66667 -4.35,6.18333 -7.85,10.55c-4.16667,5.06667 -7.3,8.93333 -9.4,11.6c-2.86667,3.63333 -5.31667,7.01667 -7.35,10.15c0.3,-1.4 0.78333,-3.41667 1.45,-6.05c1.36667,-5.16667 2.16667,-8.23333 2.4,-9.2l-0.1,-0.8l-0.4,-0.3l-1,0.05c-0.03333,0.16667 -2.3,5.81667 -6.8,16.95c-2,4.86667 -3.48333,8.91667 -4.45,12.15c-0.73333,-0.96667 -1.71667,-2.03333 -2.95,-3.2c-3,-2.86667 -5.51667,-4.25 -7.55,-4.15c4.63333,6.96667 7.71667,11.06667 9.25,12.3c-0.16667,0.9 -0.25,1.66667 -0.25,2.3c0,1 0.38333,1.88333 1.15,2.65c2.03333,-2.56667 3.96667,-5.81667 5.8,-9.75c0.23333,-0.53333 0.46667,-1.05 0.7,-1.55c0.66667,-0.53333 1.38333,-1.16667 2.15,-1.9c3.93333,-3.76667 6.08333,-5.8 6.45,-6.1c1.2,-0.96667 2.03333,-2.83333 2.5,-5.6c0.56667,-3.3 1.06667,-5.33333 1.5,-6.1c1.43333,-2.46667 4.53333,-7.05 9.3,-13.75c4.3,-6.03333 6.45,-9.11667 6.45,-9.25c0,-0.53333 -0.08333,-0.81667 -0.25,-0.85M628.5846,275.67108c0,0.43333 0.16667,2.31667 0.5,5.65c0.33333,3.33333 0.5,5.2 0.5,5.6c0,0.83333 0.16667,6.21667 0.5,16.15c0.03333,2.13333 0.91667,4.96667 2.65,8.5c2.23333,4.53333 3.46667,7.2 3.7,8l0.5,-0.2c0.26667,-1.66667 0.51667,-3.66667 0.75,-6c0.26667,-2.33333 0.4,-3.81667 0.4,-4.45c0,-4.23333 -1.58333,-11.95 -4.75,-23.15c-3.43333,-12.06667 -5.23333,-18.85 -5.4,-20.35h-0.7c-0.1,0.33333 -0.15,0.81667 -0.15,1.45c0,0.06667 0.25,1.4 0.75,4c0.5,2.7 0.75,4.3 0.75,4.8M621.5346,301.87108c-0.03333,-0.06667 -0.05,0.16667 -0.05,0.7c0,0.26667 0.78333,1.83333 2.35,4.7c1.76667,3.2 2.9,5.56667 3.4,7.1c1.36667,4 2.21667,6.35 2.55,7.05c1.7,3.26667 3.83333,4.9 6.4,4.9c0.5,0 0.83333,-0.08333 1,-0.25l0.25,-0.25c0.1,-0.1 0.15,-0.56667 0.15,-1.4c0,-1.13333 -0.65,-2.91667 -1.95,-5.35c-1.5,-2.83333 -3.15,-4.98333 -4.95,-6.45c-0.8,-0.86667 -2.43333,-3.1 -4.9,-6.7c-1.6,-2.3 -3,-3.58333 -4.2,-3.85c0,-0.13333 -0.01667,-0.2 -0.05,-0.2z" fill="#00ff00"/><path d="M676.6446,427.47108h0.05c7.1,4.7 12.3,12.08333 15.6,22.15c0.9,2.76667 2.16667,6.98333 3.8,12.65c1.56667,4.96667 3.31667,9.06667 5.25,12.3v0.4c-3.93333,-2.93333 -7.11667,-6.63333 -9.55,-11.1c-2.4,-5.23333 -4.46667,-9.25 -6.2,-12.05c-2.83333,-4.53333 -4.25,-8.53333 -4.25,-12c0,-1.73333 -0.78333,-4.13333 -2.35,-7.2c-1.6,-2.73333 -2.4,-4.15 -2.4,-4.25c0,-0.53333 0.01667,-0.83333 0.05,-0.9M663.9446,413.72108h0.4c0.96667,2.33333 2.46667,5.95 4.5,10.85c1.56667,4.2 2.35,7.8 2.35,10.8c0,0.56667 -0.21667,1.78333 -0.65,3.65c-0.46667,2.03333 -0.86667,3.18333 -1.2,3.45c-2.56667,-4.5 -3.96667,-7.16667 -4.2,-8c-0.03333,-0.16667 -0.05,-2.08333 -0.05,-5.75c0,-0.3 -0.25,-0.95 -0.75,-1.95c-0.5,-1.03333 -0.75,-1.8 -0.75,-2.3c-0.06667,-2.16667 -0.1,-3.58333 -0.1,-4.25c0,-0.93333 0.15,-3.1 0.45,-6.5M704.1946,426.57108c-3.23333,-0.9 -6.3,-2.11667 -9.2,-3.65c-3.16667,-1.7 -5.35,-3.38333 -6.55,-5.05c-1.8,-2.26667 -3.1,-3.96667 -3.9,-5.1c-1.4,-1.93333 -2.1,-3.61667 -2.1,-5.05c0,-2.8 2.76667,-1.68333 8.3,3.35c4.63333,4.26667 9.2,9.23333 13.7,14.9c0,0.23333 -0.08333,0.43333 -0.25,0.6M683.8446,355.17108c-0.16667,-0.13333 -0.25,-0.48333 -0.25,-1.05c0,-0.86667 0.7,-1.76667 2.1,-2.7c1.46667,-1 3.01667,-1.53333 4.65,-1.6c-0.5,0.76667 -1.3,1.73333 -2.4,2.9c-1.33333,1.4 -2.41667,2.31667 -3.25,2.75c-0.53333,-0.16667 -0.81667,-0.26667 -0.85,-0.3M703.9946,338.67108c0.13333,0.1 0.2,0.4 0.2,0.9c0,0.53333 -1.55,2.21667 -4.65,5.05c-3.43333,3.1 -6.05,4.76667 -7.85,5c-0.83333,-0.83333 -1.25,-1.3 -1.25,-1.4c0,-2.7 0.61667,-4.6 1.85,-5.7c1.66667,-1.43333 5.38333,-2.81667 11.15,-4.15c0.16667,0.16667 0.35,0.26667 0.55,0.3M595.1946,374.92108c0.16667,-0.1 0.35,-0.16667 0.55,-0.2c1.66667,2.96667 6.11667,6.7 13.35,11.2c6.33333,3.96667 9.5,6.98333 9.5,9.05c0,0.76667 -0.25,1.43333 -0.75,2c0.6,0.76667 0.9,1.43333 0.9,2c0,0.6 -1.91667,3.86667 -5.75,9.8c-4.1,6.4 -7.68333,11.5 -10.75,15.3c-0.56667,-0.2 -0.86667,-0.3 -0.9,-0.3c-0.23333,-0.2 -0.35,-0.56667 -0.35,-1.1c0,-0.83333 1.46667,-4.06667 4.4,-9.7c2.9,-5.63333 4.35,-8.68333 4.35,-9.15c0,-1.2 -1.3,-4.33333 -3.9,-9.4c-0.13333,-0.23333 -0.25,-0.46667 -0.35,-0.7c-3.06667,3.36667 -9.9,8.85 -20.5,16.45c-15.1,10.36667 -22.85,15.66667 -23.25,15.9c-0.56667,-0.2 -0.86667,-0.3 -0.9,-0.3c-0.23333,-0.2 -0.35,-0.56667 -0.35,-1.1c0,-0.1 2.78333,-2.61667 8.35,-7.55c6.36667,-5.63333 10.95,-10.1 13.75,-13.4c5.86667,-6.86667 11.15,-11.9 15.85,-15.1c1.1,-0.73333 2.1,-1.31667 3,-1.75c-4.56667,-7.23333 -6.85,-10.88333 -6.85,-10.95c0,-0.5 0.2,-0.83333 0.6,-1M593.8446,342.07108c-0.06667,0.16667 -0.11667,0.28333 -0.15,0.35c-0.1,0.1 -0.41667,0.15 -0.95,0.15c-2.16667,0 -4.5,-1.36667 -7,-4.1c-1,-1.06667 -2.33333,-2.85 -4,-5.35c-1.9,-3 -4.86667,-6.6 -8.9,-10.8l0.65,-0.2c4.66667,3.36667 8.23333,6.15 10.7,8.35c5.26667,4.56667 8.48333,8.43333 9.65,11.6M625.79459,305.92108c2.46667,3.6 4.1,5.83333 4.9,6.7c1.8,1.46667 3.45,3.61667 4.95,6.45c1.3,2.43333 1.95,4.21667 1.95,5.35c0,0.83333 -0.05,1.3 -0.15,1.4l-0.25,0.25c-0.16667,0.16667 -0.5,0.25 -1,0.25c-2.56667,0 -4.7,-1.63333 -6.4,-4.9c-0.33333,-0.7 -1.18333,-3.05 -2.55,-7.05c-0.5,-1.53333 -1.63333,-3.9 -3.4,-7.1c-1.56667,-2.86667 -2.35,-4.43333 -2.35,-4.7c0,-0.53333 0.01667,-0.76667 0.05,-0.7c0.03333,0 0.05,0.06667 0.05,0.2c1.2,0.26667 2.6,1.55 4.2,3.85M627.8446,270.87108c-0.5,-2.6 -0.75,-3.93333 -0.75,-4c0,-0.63333 0.05,-1.11667 0.15,-1.45h0.7c0.16667,1.5 1.96667,8.28333 5.4,20.35c3.16667,11.2 4.75,18.91667 4.75,23.15c0,0.63333 -0.13333,2.11667 -0.4,4.45c-0.23333,2.33333 -0.48333,4.33333 -0.75,6l-0.5,0.2c-0.23333,-0.8 -1.46667,-3.46667 -3.7,-8c-1.73333,-3.53333 -2.61667,-6.36667 -2.65,-8.5c-0.33333,-9.93333 -0.5,-15.31667 -0.5,-16.15c0,-0.4 -0.16667,-2.26667 -0.5,-5.6c-0.33333,-3.33333 -0.5,-5.21667 -0.5,-5.65c0,-0.5 -0.25,-2.1 -0.75,-4.8M701.2446,308.62108c-4.76667,6.7 -7.86667,11.28333 -9.3,13.75c-0.43333,0.76667 -0.93333,2.8 -1.5,6.1c-0.46667,2.76667 -1.3,4.63333 -2.5,5.6c-0.36667,0.3 -2.51667,2.33333 -6.45,6.1c-0.76667,0.73333 -1.48333,1.36667 -2.15,1.9c-0.23333,0.5 -0.46667,1.01667 -0.7,1.55c-1.83333,3.93333 -3.76667,7.18333 -5.8,9.75c-0.76667,-0.76667 -1.15,-1.65 -1.15,-2.65c0,-0.63333 0.08333,-1.4 0.25,-2.3c-1.53333,-1.23333 -4.61667,-5.33333 -9.25,-12.3c2.03333,-0.1 4.55,1.28333 7.55,4.15c1.23333,1.16667 2.21667,2.23333 2.95,3.2c0.96667,-3.23333 2.45,-7.28333 4.45,-12.15c4.5,-11.13333 6.76667,-16.78333 6.8,-16.95l1,-0.05l0.4,0.3l0.1,0.8c-0.23333,0.96667 -1.03333,4.03333 -2.4,9.2c-0.66667,2.63333 -1.15,4.65 -1.45,6.05c2.03333,-3.13333 4.48333,-6.51667 7.35,-10.15c2.1,-2.66667 5.23333,-6.53333 9.4,-11.6c3.5,-4.36667 6.11667,-7.88333 7.85,-10.55c0.23333,0.1 0.48333,0.15 0.75,0.15c0.16667,0.03333 0.25,0.31667 0.25,0.85c0,0.13333 -2.15,3.21667 -6.45,9.25z" fill="#ffffff"/></g></g></svg>