<svg version="1.1" xmlns="http://www.w3.org/2000/svg" xmlns:xlink="http://www.w3.org/1999/xlink" width="51.0421" height="64.76667" viewBox="0,0,51.0421,64.76667"><g transform="translate(-608.10811,-337.83784)"><g data-paper-data="{&quot;isPaintingLayer&quot;:true}" fill-rule="nonzero" stroke="none" stroke-width="1" stroke-linecap="butt" stroke-linejoin="miter" stroke-miterlimit="10" stroke-dasharray="" stroke-dashoffset="0" style="mix-blend-mode: normal"><path d="M658.55811,342.58784c0.5,2.96667 0.68333,5.98333 0.55,9.05c-0.03333,0.1 -0.06667,0.2 -0.1,0.3c-0.03333,0.06667 -0.06667,0.15 -0.1,0.25c-0.06667,0.16667 -0.11667,0.35 -0.15,0.55c-0.03333,0.06667 -0.06667,0.15 -0.1,0.25c0,0.1 0,0.2 0,0.3c0,0.43333 0,0.86667 0,1.3c0,0.53333 0,1.06667 0,1.6c0,0.1 0,0.2 0,0.3c0,0.43333 0,0.88333 0,1.35c0.03333,0.53333 -0.03333,1.06667 -0.2,1.6c-0.03333,0.16667 -0.08333,0.33333 -0.15,0.5c0,0.1 0,0.2 0,0.3c0,0.06667 0,0.15 0,0.25c0,0.16667 0,0.35 0,0.55c0,0.1 0,0.18333 0,0.25c0.03333,0.1 0.06667,0.2 0.1,0.3c0,0.06667 0.01667,0.15 0.05,0.25c0.03333,0.1 0.06667,0.18333 0.1,0.25c0.03333,0.1 0.06667,0.2 0.1,0.3c0,0.06667 0,0.15 0,0.25c0.03333,0.73333 -0.05,1.43333 -0.25,2.1c-0.2,0.66667 -0.58333,1.2 -1.15,1.6c-1.03333,0.8 -2.06667,1.6 -3.1,2.4c-0.7,0.53333 -1.38333,1.06667 -2.05,1.6c-0.16667,0.13333 -0.33333,0.25 -0.5,0.35c-0.1,0.06667 -0.18333,0.15 -0.25,0.25c-0.2,0.3 -0.45,0.56667 -0.75,0.8c-0.1,0.1 -0.18333,0.18333 -0.25,0.25c-0.36667,0.33333 -0.78333,0.61667 -1.25,0.85c-0.1,0.06667 -0.18333,0.15 -0.25,0.25c-0.2,0.3 -0.45,0.56667 -0.75,0.8c-0.06667,0.1 -0.15,0.18333 -0.25,0.25c-0.4,0.33333 -0.81667,0.6 -1.25,0.8c-0.1,0.1 -0.2,0.2 -0.3,0.3c-0.6,0.6 -1.21667,1.21667 -1.85,1.85c-0.36667,0.36667 -0.71667,0.73333 -1.05,1.1c-0.1,0.06667 -0.2,0.15 -0.3,0.25c-0.63333,0.8 -1.4,1.43333 -2.3,1.9c-0.06667,0.03333 -0.13333,0.08333 -0.2,0.15c5.53333,-0.56667 10.91667,-0.06667 16.15,1.5c0.6,0.16667 0.96667,0.56667 1.1,1.2c0.3,1.66667 0.43333,3.35 0.4,5.05c-0.03333,2.7 -0.05,5.38333 -0.05,8.05c-0.03333,0.1 -0.06667,0.18333 -0.1,0.25c-0.03333,0.1 -0.06667,0.2 -0.1,0.3c-0.03333,0.1 -0.05,0.18333 -0.05,0.25c-0.03333,0.1 -0.06667,0.2 -0.1,0.3c0,0.06667 0,0.15 0,0.25c0,0.1 0,0.18333 0,0.25c0.03333,0.1 0.05,0.2 0.05,0.3c0.03333,0.06667 0.05,0.15 0.05,0.25c0,0.1 -0.01667,0.18333 -0.05,0.25c0,0.2 -0.03333,0.38333 -0.1,0.55c-0.03333,0.1 -0.06667,0.2 -0.1,0.3c-0.06667,0.06667 -0.11667,0.15 -0.15,0.25c0,0.06667 -0.01667,0.15 -0.05,0.25c-3.76667,2.3 -8.03333,3.05 -12.8,2.25c-0.3,-0.06667 -0.61667,-0.1 -0.95,-0.1c-10.96667,0.5 -21.86667,0.55 -32.7,0.15c-0.4,0 -0.81667,-0.08333 -1.25,-0.25c-0.06667,-0.06667 -0.15,-0.15 -0.25,-0.25c-0.1,-0.1 -0.2,-0.2 -0.3,-0.3c-0.06667,-0.06667 -0.15,-0.15 -0.25,-0.25c-0.06667,-0.1 -0.11667,-0.18333 -0.15,-0.25c-0.16667,-0.26667 -0.26667,-0.53333 -0.3,-0.8c-0.03333,-0.1 -0.05,-0.2 -0.05,-0.3c-0.03333,-0.26667 -0.1,-0.53333 -0.2,-0.8c-0.03333,-0.06667 -0.06667,-0.15 -0.1,-0.25c-0.03333,-0.1 -0.06667,-0.18333 -0.1,-0.25c0,-0.1 0,-0.2 0,-0.3c0,-0.63333 0,-1.25 0,-1.85c0,-0.36667 0,-0.73333 0,-1.1c0,-0.33333 0,-0.68333 0,-1.05c0,-0.73333 0,-1.45 0,-2.15c0,-0.43333 0,-0.88333 0,-1.35c0,-0.26667 0,-0.53333 0,-0.8c0,-0.16667 0,-0.35 0,-0.55c0,-0.53333 0,-1.06667 0,-1.6c0.03333,-0.06667 0.06667,-0.15 0.1,-0.25c0.06667,-0.16667 0.13333,-0.35 0.2,-0.55c0.03333,-0.06667 0.08333,-0.15 0.15,-0.25c0.03333,-0.1 0.06667,-0.18333 0.1,-0.25c0.03333,-0.1 0.06667,-0.2 0.1,-0.3c0.26667,-0.4 0.58333,-0.76667 0.95,-1.1c0.73333,-0.7 1.45,-1.4 2.15,-2.1c0.86667,-0.9 1.75,-1.75 2.65,-2.55c1.06667,-0.9 2.08333,-1.85 3.05,-2.85c1.16667,-1.2 2.4,-2.35 3.7,-3.45c0.3,-0.33333 0.6,-0.68333 0.9,-1.05c0.7,-0.73333 1.41667,-1.45 2.15,-2.15c1.06667,-1.06667 2.13333,-2.13333 3.2,-3.2c0.7,-0.73333 1.38333,-1.48333 2.05,-2.25c1.4,-1.7 2.95,-3.28333 4.65,-4.75c0.03333,-0.06667 0.08333,-0.11667 0.15,-0.15c-4.3,-0.5 -8.66667,-0.75 -13.1,-0.75c-3.8,0 -7.43333,-0.61667 -10.9,-1.85c-0.73333,-0.26667 -1.18333,-0.8 -1.35,-1.6c0,-0.1 0,-0.2 0,-0.3c0,-0.06667 0,-0.15 0,-0.25c0,-0.16667 0,-0.35 0,-0.55c0,-0.06667 0,-0.15 0,-0.25c0.03333,-0.1 0.06667,-0.18333 0.1,-0.25c0.06667,-0.3 0.15,-0.56667 0.25,-0.8c0.03333,-0.1 0.06667,-0.2 0.1,-0.3c0.03333,-0.3 0.11667,-0.56667 0.25,-0.8c0.03333,-0.1 0.06667,-0.18333 0.1,-0.25c0.03333,-0.1 0.06667,-0.2 0.1,-0.3c0,-0.06667 0,-0.15 0,-0.25c0,-0.1 0,-0.18333 0,-0.25c0.03333,-0.1 0.06667,-0.2 0.1,-0.3c0.1,-0.23333 0.2,-0.5 0.3,-0.8c0.03333,-0.06667 0.06667,-0.15 0.1,-0.25c0.06667,-0.26667 0.08333,-0.53333 0.05,-0.8c0.03333,-0.1 0.05,-0.18333 0.05,-0.25c0.03333,-0.1 0.08333,-0.2 0.15,-0.3c0.03333,-0.1 0.06667,-0.18333 0.1,-0.25c0.06667,-0.1 0.11667,-0.2 0.15,-0.3c0,-0.06667 0,-0.15 0,-0.25c0.03333,-0.16667 0.05,-0.35 0.05,-0.55c0,-0.06667 0.01667,-0.15 0.05,-0.25c0.03333,-0.1 0.08333,-0.2 0.15,-0.3c0.03333,-0.06667 0.06667,-0.15 0.1,-0.25c0,-0.06667 -0.01667,-0.15 -0.05,-0.25c0,-0.26667 0.03333,-0.53333 0.1,-0.8c0.03333,-0.1 0.05,-0.18333 0.05,-0.25c-0.03333,-0.3 -0.03333,-0.58333 0,-0.85c0,-0.06667 0,-0.15 0,-0.25c0,-0.26667 0.01667,-0.53333 0.05,-0.8c0,-0.1 0,-0.18333 0,-0.25c0,-0.1 -0.01667,-0.18333 -0.05,-0.25c-0.06667,-0.2 -0.15,-0.4 -0.25,-0.6c-0.06667,-0.06667 -0.11667,-0.15 -0.15,-0.25c0,-0.06667 -0.01667,-0.15 -0.05,-0.25c-0.06667,-0.16667 -0.13333,-0.35 -0.2,-0.55c0,-0.1 0,-0.18333 0,-0.25c0,-0.1 0,-0.2 0,-0.3c0.03333,-0.16667 0.06667,-0.33333 0.1,-0.5c0,-0.1 0,-0.2 0,-0.3c0.03333,-0.06667 0.06667,-0.15 0.1,-0.25c0.03333,-0.1 0.08333,-0.18333 0.15,-0.25c0.13333,-0.2 0.26667,-0.38333 0.4,-0.55c0.06667,-0.1 0.15,-0.18333 0.25,-0.25c0.06667,-0.1 0.15,-0.2 0.25,-0.3c0.16667,-0.06667 0.35,-0.13333 0.55,-0.2c0.56667,-0.2 1.15,-0.36667 1.75,-0.5c0.26667,-0.06667 0.51667,-0.11667 0.75,-0.15c0.16667,-0.06667 0.33333,-0.1 0.5,-0.1c8.56667,0.03333 17.08333,0.56667 25.55,1.6c5.56667,0.66667 11.08333,1.4 16.55,2.2c0.53333,0.06667 0.85,0.38333 0.95,0.95M616.40811,344.13784c-0.06667,0.03333 -0.15,0.06667 -0.25,0.1c-0.16667,0.03333 -0.31667,0.06667 -0.45,0.1c-0.13333,0.06667 -0.25,0.13333 -0.35,0.2c0.1,0.5 0.16667,1.03333 0.2,1.6c0.03333,0.6 0.01667,1.21667 -0.05,1.85c0,0.1 -0.01667,0.2 -0.05,0.3c-0.03333,0.06667 -0.06667,0.15 -0.1,0.25c-0.03333,0.1 -0.06667,0.18333 -0.1,0.25c-0.03333,0.1 -0.05,0.2 -0.05,0.3c0,0.06667 0.01667,0.15 0.05,0.25c0,0.1 0,0.18333 0,0.25c0,0.1 0,0.2 0,0.3c-0.03333,0.06667 -0.06667,0.15 -0.1,0.25c-0.03333,0.1 -0.05,0.18333 -0.05,0.25c-0.03333,0.1 -0.06667,0.2 -0.1,0.3c0,0.16667 0,0.33333 0,0.5c0,0.2 0,0.38333 0,0.55c0,0.1 0,0.2 0,0.3c-0.03333,0.06667 -0.06667,0.15 -0.1,0.25c-0.03333,0.1 -0.06667,0.18333 -0.1,0.25c-0.03333,0.1 -0.06667,0.2 -0.1,0.3c9.33333,0.6 18.73333,1.33333 28.2,2.2c0.36667,0.03333 0.65,0.21667 0.85,0.55c0.76667,1.2 0.81667,2.45 0.15,3.75c-0.43333,0.5 -0.85,1.03333 -1.25,1.6c-0.26667,0.4 -0.58333,0.75 -0.95,1.05c-0.06667,0.1 -0.13333,0.2 -0.2,0.3c-0.03333,0.1 -0.06667,0.18333 -0.1,0.25c-0.06667,0.1 -0.11667,0.2 -0.15,0.3c-0.26667,0.23333 -0.55,0.48333 -0.85,0.75c-0.23333,0.2 -0.48333,0.38333 -0.75,0.55c-0.8,1.1 -1.7,2.11667 -2.7,3.05c-0.46667,0.4 -0.91667,0.81667 -1.35,1.25c-0.13333,0.43333 -0.35,0.8 -0.65,1.1c-0.36667,0.33333 -0.76667,0.6 -1.2,0.8c-0.56667,0.86667 -1.25,1.68333 -2.05,2.45c-0.4,0.36667 -0.81667,0.7 -1.25,1c-0.16667,0.3 -0.38333,0.56667 -0.65,0.8c-0.33333,0.3 -0.68333,0.56667 -1.05,0.8c-0.2,0.26667 -0.4,0.53333 -0.6,0.8c-0.26667,0.33333 -0.6,0.6 -1,0.8c-1.53333,1.7 -3.16667,3.33333 -4.9,4.9c-0.46667,0.43333 -0.91667,0.86667 -1.35,1.3c-1.53333,1.63333 -3.13333,3.25 -4.8,4.85c-0.56667,0.5 -1.11667,1.01667 -1.65,1.55c-0.1,1.16667 -0.13333,2.33333 -0.1,3.5c0,1.06667 0,2.13333 0,3.2c9.43333,0.03333 19.16667,-0.05 29.2,-0.25c2.5,-0.03333 4.96667,-0.21667 7.4,-0.55c0.33333,-0.03333 0.66667,-0.11667 1,-0.25c0.2,-1.4 0.28333,-2.83333 0.25,-4.3c-0.03333,-1.3 -0.05,-2.61667 -0.05,-3.95c-7.76667,-0.13333 -15.51667,0.2 -23.25,1c-0.4,0.03333 -0.81667,-0.03333 -1.25,-0.2c-0.06667,-0.06667 -0.15,-0.15 -0.25,-0.25c-0.1,-0.1 -0.18333,-0.18333 -0.25,-0.25c-0.1,-0.1 -0.2,-0.2 -0.3,-0.3c-0.33333,-0.46667 -0.51667,-1 -0.55,-1.6c0,-0.53333 0.1,-1.06667 0.3,-1.6c1.8,-1.63333 3.66667,-3.2 5.6,-4.7c0.26667,-0.2 0.53333,-0.41667 0.8,-0.65c0.2,-0.1 0.38333,-0.2 0.55,-0.3c0.16667,-0.06667 0.31667,-0.15 0.45,-0.25c0.93333,-0.9 1.93333,-1.71667 3,-2.45c0.23333,-0.13333 0.45,-0.3 0.65,-0.5c3.33333,-3.2 6.76667,-6.3 10.3,-9.3c0.56667,-0.46667 1.11667,-0.95 1.65,-1.45c0.8,-0.73333 1.61667,-1.43333 2.45,-2.1c0,-0.8 -0.03333,-1.6 -0.1,-2.4c-0.03333,-0.86667 0.11667,-1.66667 0.45,-2.4c0,-1.06667 0,-2.13333 0,-3.2c0,-1 0,-1.98333 0,-2.95c0.06667,-0.2 0.11667,-0.38333 0.15,-0.55c0.06667,-0.16667 0.13333,-0.35 0.2,-0.55c0.03333,-0.06667 0.06667,-0.15 0.1,-0.25c0,-0.36667 0,-0.73333 0,-1.1c0,-0.43333 0,-0.86667 0,-1.3c-11.9,-1.7 -24.05,-2.78333 -36.45,-3.25z" fill="#000000"/><path d="M652.85811,349.78784c-0.03333,0.1 -0.06667,0.18333 -0.1,0.25c-0.06667,0.2 -0.13333,0.38333 -0.2,0.55c-0.03333,0.16667 -0.08333,0.35 -0.15,0.55c0,0.96667 0,1.95 0,2.95c0,1.06667 0,2.13333 0,3.2c-0.33333,0.73333 -0.48333,1.53333 -0.45,2.4c0.06667,0.8 0.1,1.6 0.1,2.4c-0.83333,0.66667 -1.65,1.36667 -2.45,2.1c-0.53333,0.5 -1.08333,0.98333 -1.65,1.45c-3.53333,3 -6.96667,6.1 -10.3,9.3c-0.2,0.2 -0.41667,0.36667 -0.65,0.5c-1.06667,0.73333 -2.06667,1.55 -3,2.45c-0.13333,0.1 -0.28333,0.18333 -0.45,0.25c-0.16667,0.1 -0.35,0.2 -0.55,0.3c-0.26667,0.23333 -0.53333,0.45 -0.8,0.65c-1.93333,1.5 -3.8,3.06667 -5.6,4.7c-0.2,0.53333 -0.3,1.06667 -0.3,1.6c0.03333,0.6 0.21667,1.13333 0.55,1.6c0.1,0.1 0.2,0.2 0.3,0.3c0.06667,0.06667 0.15,0.15 0.25,0.25c0.1,0.1 0.18333,0.18333 0.25,0.25c0.43333,0.16667 0.85,0.23333 1.25,0.2c7.73333,-0.8 15.48333,-1.13333 23.25,-1c0,1.33333 0.01667,2.65 0.05,3.95c0.03333,1.46667 -0.05,2.9 -0.25,4.3c-0.33333,0.13333 -0.66667,0.21667 -1,0.25c-2.43333,0.33333 -4.9,0.51667 -7.4,0.55c-10.03333,0.2 -19.76667,0.28333 -29.2,0.25c0,-1.06667 0,-2.13333 0,-3.2c-0.03333,-1.16667 0,-2.33333 0.1,-3.5c0.53333,-0.53333 1.08333,-1.05 1.65,-1.55c1.66667,-1.6 3.26667,-3.21667 4.8,-4.85c0.43333,-0.43333 0.88333,-0.86667 1.35,-1.3c1.73333,-1.56667 3.36667,-3.2 4.9,-4.9c0.4,-0.2 0.73333,-0.46667 1,-0.8c0.2,-0.26667 0.4,-0.53333 0.6,-0.8c0.36667,-0.23333 0.71667,-0.5 1.05,-0.8c0.26667,-0.23333 0.48333,-0.5 0.65,-0.8c0.43333,-0.3 0.85,-0.63333 1.25,-1c0.8,-0.76667 1.48333,-1.58333 2.05,-2.45c0.43333,-0.2 0.83333,-0.46667 1.2,-0.8c0.3,-0.3 0.51667,-0.66667 0.65,-1.1c0.43333,-0.43333 0.88333,-0.85 1.35,-1.25c1,-0.93333 1.9,-1.95 2.7,-3.05c0.26667,-0.16667 0.51667,-0.35 0.75,-0.55c0.3,-0.26667 0.58333,-0.51667 0.85,-0.75c0.03333,-0.1 0.08333,-0.2 0.15,-0.3c0.03333,-0.06667 0.06667,-0.15 0.1,-0.25c0.06667,-0.1 0.13333,-0.2 0.2,-0.3c0.36667,-0.3 0.68333,-0.65 0.95,-1.05c0.4,-0.56667 0.81667,-1.1 1.25,-1.6c0.66667,-1.3 0.61667,-2.55 -0.15,-3.75c-0.2,-0.33333 -0.48333,-0.51667 -0.85,-0.55c-9.46667,-0.86667 -18.86667,-1.6 -28.2,-2.2c0.03333,-0.1 0.06667,-0.2 0.1,-0.3c0.03333,-0.06667 0.06667,-0.15 0.1,-0.25c0.03333,-0.1 0.06667,-0.18333 0.1,-0.25c0,-0.1 0,-0.2 0,-0.3c0,-0.16667 0,-0.35 0,-0.55c0,-0.16667 0,-0.33333 0,-0.5c0.03333,-0.1 0.06667,-0.2 0.1,-0.3c0,-0.06667 0.01667,-0.15 0.05,-0.25c0.03333,-0.1 0.06667,-0.18333 0.1,-0.25c0,-0.1 0,-0.2 0,-0.3c0,-0.06667 0,-0.15 0,-0.25c-0.03333,-0.1 -0.05,-0.18333 -0.05,-0.25c0,-0.1 0.01667,-0.2 0.05,-0.3c0.03333,-0.06667 0.06667,-0.15 0.1,-0.25c0.03333,-0.1 0.06667,-0.18333 0.1,-0.25c0.03333,-0.1 0.05,-0.2 0.05,-0.3c0.06667,-0.63333 0.08333,-1.25 0.05,-1.85c-0.03333,-0.56667 -0.1,-1.1 -0.2,-1.6c0.1,-0.06667 0.21667,-0.13333 0.35,-0.2c0.13333,-0.03333 0.28333,-0.06667 0.45,-0.1c0.1,-0.03333 0.18333,-0.06667 0.25,-0.1c12.4,0.46667 24.55,1.55 36.45,3.25c0,0.43333 0,0.86667 0,1.3c0,0.36667 0,0.73333 0,1.1z" fill="#ffffff"/></g></g></svg>