<svg version="1.1" xmlns="http://www.w3.org/2000/svg" xmlns:xlink="http://www.w3.org/1999/xlink" width="49.35364" height="66.12696" viewBox="0,0,49.35364,66.12696"><g transform="translate(-610.70376,-337.27073)"><g data-paper-data="{&quot;isPaintingLayer&quot;:true}" fill-rule="nonzero" stroke="none" stroke-width="1" stroke-linecap="round" stroke-linejoin="miter" stroke-miterlimit="4" stroke-dasharray="" stroke-dashoffset="0" style="mix-blend-mode: normal"><path d="M651.3455,346.63051c-0.93333,1.83333 -2.53333,3.3 -4.8,4.4c-1.23333,0.63333 -2,1.1 -2.3,1.4c-0.26667,0.26667 -0.66667,0.93333 -1.2,2c-0.66667,1.36667 -1.58333,2.78333 -2.75,4.25c-0.7,0.9 -1.81667,2.2 -3.35,3.9c4.83333,-0.46667 9.48333,0.31667 13.95,2.35c2.5,1.13333 4.35,2.45 5.55,3.95c1.23333,1.5 2.18333,3.73333 2.85,6.7c1.33333,6.23333 0.91667,11.36667 -1.25,15.4c-2.23333,4.1 -6.51667,7.41667 -12.85,9.95c-2.7,1.13333 -5.15,1.86667 -7.35,2.2c-5.06667,0.76667 -10.4,-0.11667 -16,-2.65c-2.83333,-0.66667 -5.26667,-2.91667 -7.3,-6.75c-3.13333,-6 -4.35,-12.78333 -3.65,-20.35c0.5,-5.46667 1.85,-10.16667 4.05,-14.1c1.43333,-2.63333 3.86667,-5.85 7.3,-9.65c2.26667,-2.53333 4.15,-4.48333 5.65,-5.85c2.2,-1.96667 4.4,-3.46667 6.6,-4.5c3.03333,-1.43333 6.28333,-2.1 9.75,-2c3.33333,0.13333 5.65,1.13333 6.95,3c0.6,0.9 0.9,1.93333 0.9,3.1c0,1.13333 -0.25,2.21667 -0.75,3.25M636.3455,345.03051c-2.36667,1.3 -5.01667,3.45 -7.95,6.45c-1.86667,2.13333 -3.25,3.73333 -4.15,4.8c-1.63333,1.9 -2.88333,3.6 -3.75,5.1c-2.26667,3.8 -3.56667,8.31667 -3.9,13.55c-0.33333,5.43333 0.43333,10.26667 2.3,14.5c0.76667,1.8 1.65,3.15 2.65,4.05c1.1,0.96667 2.75,1.8 4.95,2.5c3.1,0.93333 5.78333,1.4 8.05,1.4c3.06667,0 5.68333,-0.65 7.85,-1.95c2.9,-0.9 5.3,-2.08333 7.2,-3.55c2.4,-1.86667 3.88333,-4.05 4.45,-6.55c0.43333,-1.8 0.31667,-4.38333 -0.35,-7.75c-0.33333,-2.06667 -0.85,-3.58333 -1.55,-4.55c-0.63333,-0.86667 -1.75,-1.71667 -3.35,-2.55c-4.56667,-2.13333 -9.41667,-2.58333 -14.55,-1.35c-1.76667,0.4 -2.85,0.6 -3.25,0.6c-1.36667,0 -2.33333,-0.4 -2.9,-1.2c-0.73333,-0.86667 -0.85,-1.98333 -0.35,-3.35c0.26667,-0.66667 0.93333,-1.63333 2,-2.9l3.35,-3.9c0.76667,-0.9 1.23333,-1.53333 1.4,-1.9c0.1,-0.2 0.41667,-0.95 0.95,-2.25c1.03333,-2.83333 2.83333,-5.06667 5.4,-6.7c0.63333,-0.4 1.6,-0.96667 2.9,-1.7c1.16667,-0.7 2.01667,-1.4 2.55,-2.1c-3.16667,-0.96667 -6.48333,-0.53333 -9.95,1.3M633.0955,379.23051l6.1,-3.15c1.1,-0.4 2.26667,-0.46667 3.5,-0.2c1.06667,0.23333 1.88333,0.7 2.45,1.4c0.6,0.8 0.83333,2.01667 0.7,3.65c-0.1,1.3 -0.36667,2.46667 -0.8,3.5c-0.56667,1.23333 -1.31667,2.15 -2.25,2.75l0.3,-0.25c-1.93333,1.43333 -4.1,2.35 -6.5,2.75c-0.6,0 -1.73333,0.15 -3.4,0.45c-1.53333,0.2 -2.68333,0.21667 -3.45,0.05c-1.33333,-0.3 -2.25,-0.91667 -2.75,-1.85c-0.5,-0.9 -0.58333,-1.88333 -0.25,-2.95c0.3,-0.93333 0.81667,-1.8 1.55,-2.6c1.06667,-1.13333 2.66667,-2.31667 4.8,-3.55M639.6455,382.08051c-0.36667,0 -0.7,-0.06667 -1,-0.2c-0.43333,0.63333 -0.96667,1.15 -1.6,1.55c1.2,-0.43333 2.06667,-0.88333 2.6,-1.35z" fill="#000000"/><path d="M646.2955,343.73051c-0.53333,0.7 -1.38333,1.4 -2.55,2.1c-1.3,0.73333 -2.26667,1.3 -2.9,1.7c-2.56667,1.63333 -4.36667,3.86667 -5.4,6.7c-0.53333,1.3 -0.85,2.05 -0.95,2.25c-0.16667,0.36667 -0.63333,1 -1.4,1.9l-3.35,3.9c-1.06667,1.26667 -1.73333,2.23333 -2,2.9c-0.5,1.36667 -0.38333,2.48333 0.35,3.35c0.56667,0.8 1.53333,1.2 2.9,1.2c0.4,0 1.48333,-0.2 3.25,-0.6c5.13333,-1.23333 9.98333,-0.78333 14.55,1.35c1.6,0.83333 2.71667,1.68333 3.35,2.55c0.7,0.96667 1.21667,2.48333 1.55,4.55c0.66667,3.36667 0.78333,5.95 0.35,7.75c-0.56667,2.5 -2.05,4.68333 -4.45,6.55c-1.9,1.46667 -4.3,2.65 -7.2,3.55c-2.16667,1.3 -4.78333,1.95 -7.85,1.95c-2.26667,0 -4.95,-0.46667 -8.05,-1.4c-2.2,-0.7 -3.85,-1.53333 -4.95,-2.5c-1,-0.9 -1.88333,-2.25 -2.65,-4.05c-1.86667,-4.23333 -2.63333,-9.06667 -2.3,-14.5c0.33333,-5.23333 1.63333,-9.75 3.9,-13.55c0.86667,-1.5 2.11667,-3.2 3.75,-5.1c0.9,-1.06667 2.28333,-2.66667 4.15,-4.8c2.93333,-3 5.58333,-5.15 7.95,-6.45c3.46667,-1.83333 6.78333,-2.26667 9.95,-1.3M626.7455,385.38051c-0.33333,1.06667 -0.25,2.05 0.25,2.95c0.5,0.93333 1.41667,1.55 2.75,1.85c0.76667,0.16667 1.91667,0.15 3.45,-0.05c1.66667,-0.3 2.8,-0.45 3.4,-0.45c2.4,-0.4 4.56667,-1.31667 6.5,-2.75l-0.3,0.25c0.93333,-0.6 1.68333,-1.51667 2.25,-2.75c0.43333,-1.03333 0.7,-2.2 0.8,-3.5c0.13333,-1.63333 -0.1,-2.85 -0.7,-3.65c-0.56667,-0.7 -1.38333,-1.16667 -2.45,-1.4c-1.23333,-0.26667 -2.4,-0.2 -3.5,0.2l-6.1,3.15c-2.13333,1.23333 -3.73333,2.41667 -4.8,3.55c-0.73333,0.8 -1.25,1.66667 -1.55,2.6z" fill="#ffffff"/></g></g></svg>