<svg version="1.1" xmlns="http://www.w3.org/2000/svg" xmlns:xlink="http://www.w3.org/1999/xlink" width="53.45" height="68.15983" viewBox="0,0,53.45,68.15983"><g transform="translate(-608.10811,-337.83784)"><g data-paper-data="{&quot;isPaintingLayer&quot;:true}" fill-rule="nonzero" stroke="none" stroke-width="1" stroke-linecap="butt" stroke-linejoin="miter" stroke-miterlimit="10" stroke-dasharray="" stroke-dashoffset="0" style="mix-blend-mode: normal"><path d="M653.20811,343.73784c1.63333,1.2 3.16667,2.56667 4.6,4.1c1.33333,1.46667 2.51667,3.06667 3.55,4.8c0.26667,0.46667 0.26667,0.98333 0,1.55c-0.73333,1.33333 -1.63333,2.55 -2.7,3.65c-1.86667,1.86667 -3.71667,3.76667 -5.55,5.7c-0.9,0.96667 -1.83333,1.9 -2.8,2.8c-1.9,1.73333 -3.71667,3.56667 -5.45,5.5c-0.46667,0.46667 -0.9,0.85 -1.3,1.15c0.13333,0.36667 0.23333,0.75 0.3,1.15c0.1,0.4 0.16667,0.81667 0.2,1.25c0.26667,4.93333 0.61667,9.83333 1.05,14.7c0.1,1.33333 0.13333,2.68333 0.1,4.05c-0.03333,1.4 0.1,2.73333 0.4,4c0.53333,2.23333 0.2,4.3 -1,6.2c-3.16667,1.5 -6.48333,1.98333 -9.95,1.45c-2.06667,-0.4 -4.13333,-0.78333 -6.2,-1.15c-1.16667,-0.06667 -2.16667,-0.46667 -3,-1.2c-0.76667,-0.63333 -1.15,-1.46667 -1.15,-2.5c-0.06667,-3.5 0.05,-6.91667 0.35,-10.25c0.43333,-5.3 0.83333,-10.66667 1.2,-16.1c-0.16667,-0.26667 -0.33333,-0.5 -0.5,-0.7c-3.16667,-3.93333 -6.33333,-7.78333 -9.5,-11.55c-2.6,-3.1 -4.78333,-6.53333 -6.55,-10.3c-0.13333,-0.06667 -0.26667,-0.13333 -0.4,-0.2c-0.33333,-0.26667 -0.55,-0.61667 -0.65,-1.05c-0.06667,-0.2 -0.11667,-0.38333 -0.15,-0.55c0,-0.1 0,-0.18333 0,-0.25c0,-0.1 0,-0.2 0,-0.3c0.3,-0.5 0.61667,-0.98333 0.95,-1.45c0.7,-0.9 1.5,-1.7 2.4,-2.4c1.8,-1.5 3.43333,-3.15 4.9,-4.95c0.23333,-0.3 0.46667,-0.6 0.7,-0.9c0.76667,-1.13333 1.83333,-1.85 3.2,-2.15c0.73333,0.2 1.41667,0.51667 2.05,0.95c0.63333,0.36667 1.15,0.88333 1.55,1.55c3.66667,5.83333 7.3,11.66667 10.9,17.5c0.2,-0.5 0.43333,-0.96667 0.7,-1.4c2.56667,-3.83333 4.8,-7.81667 6.7,-11.95c0.63333,-1.4 1.43333,-2.66667 2.4,-3.8c1.36667,-1.56667 2.98333,-1.86667 4.85,-0.9c1.7,0.9 2.96667,2.21667 3.8,3.95M652.60811,355.23784c0.3,-0.2 0.5,-0.5 0.6,-0.9l0.7,-0.8l-5.8,-6.15c-3.2,5.33333 -6.58333,10.56667 -10.15,15.7c-0.06667,0.13333 -0.11667,0.28333 -0.15,0.45c-0.1,0.96667 -0.53333,1.7 -1.3,2.2c-0.36667,0.2 -0.75,0.26667 -1.15,0.2c-1.83333,0.36667 -3.21667,-0.21667 -4.15,-1.75c-0.13333,-0.2 -0.25,-0.38333 -0.35,-0.55c-3.53333,-5.73333 -7.06667,-11.45 -10.6,-17.15l-6.7,4.6c0.66667,0.93333 1.36667,1.9 2.1,2.9c0.13333,0.2 0.28333,0.41667 0.45,0.65c2.73333,3.1 5.48333,6.11667 8.25,9.05c1,1.06667 2.06667,2.08333 3.2,3.05c1.8,1.56667 3.16667,3.51667 4.1,5.85c0.23333,0.6 0.35,1.23333 0.35,1.9c0.06667,2.03333 0,4.06667 -0.2,6.1c-0.06667,0.6 -0.13333,1.21667 -0.2,1.85c-0.46667,5.23333 -0.83333,10.5 -1.1,15.8c3,0.76667 6.01667,1.16667 9.05,1.2l-1.55,-25.7c-0.93333,-1.1 -1.13333,-2.3 -0.6,-3.6c1.86667,-1.83333 3.75,-3.66667 5.65,-5.5c1.76667,-1.66667 3.46667,-3.38333 5.1,-5.15c0.33333,-0.33333 0.63333,-0.65 0.9,-0.95c0.83333,-0.9 1.66667,-1.75 2.5,-2.55c0.3,-0.3 0.65,-0.55 1.05,-0.75z" fill="#000000"/><path d="M648.15811,359.48784c-1.63333,1.76667 -3.33333,3.48333 -5.1,5.15c-1.9,1.83333 -3.78333,3.66667 -5.65,5.5c-0.53333,1.3 -0.33333,2.5 0.6,3.6l1.55,25.7c-3.03333,-0.03333 -6.05,-0.43333 -9.05,-1.2c0.26667,-5.3 0.63333,-10.56667 1.1,-15.8c0.06667,-0.63333 0.13333,-1.25 0.2,-1.85c0.2,-2.03333 0.26667,-4.06667 0.2,-6.1c0,-0.66667 -0.11667,-1.3 -0.35,-1.9c-0.93333,-2.33333 -2.3,-4.28333 -4.1,-5.85c-1.13333,-0.96667 -2.2,-1.98333 -3.2,-3.05c-2.76667,-2.93333 -5.51667,-5.95 -8.25,-9.05c-0.16667,-0.23333 -0.31667,-0.45 -0.45,-0.65c-0.73333,-1 -1.43333,-1.96667 -2.1,-2.9l6.7,-4.6c3.53333,5.7 7.06667,11.41667 10.6,17.15c0.1,0.16667 0.21667,0.35 0.35,0.55c0.93333,1.53333 2.31667,2.11667 4.15,1.75c0.4,0.06667 0.78333,0 1.15,-0.2c0.76667,-0.5 1.2,-1.23333 1.3,-2.2c0.03333,-0.16667 0.08333,-0.31667 0.15,-0.45c3.56667,-5.13333 6.95,-10.36667 10.15,-15.7l5.8,6.15l-0.7,0.8c-0.1,0.4 -0.3,0.7 -0.6,0.9c-0.4,0.2 -0.75,0.45 -1.05,0.75c-0.83333,0.8 -1.66667,1.65 -2.5,2.55c-0.26667,0.3 -0.56667,0.61667 -0.9,0.95z" fill="#ffffff"/></g></g></svg>