<svg version="1.1" xmlns="http://www.w3.org/2000/svg" xmlns:xlink="http://www.w3.org/1999/xlink" width="363.8" height="90.24567" viewBox="0,0,363.8,90.24567"><g transform="translate(-458.1,-314.87717)"><g data-paper-data="{&quot;isPaintingLayer&quot;:true}" fill="#ffffff" fill-rule="nonzero" stroke="none" stroke-width="1" stroke-linecap="butt" stroke-linejoin="miter" stroke-miterlimit="10" stroke-dasharray="" stroke-dashoffset="0" style="mix-blend-mode: normal"><path d="M551.95,328.87181c0,0.73333 -1.33333,5.51667 -4,14.35c-3.06667,10.03333 -4.83333,15.96667 -5.3,17.8c-0.73333,2.93333 -2.25,9.21667 -4.55,18.85c-1.23333,4.96667 -2.26667,8.41667 -3.1,10.35c0.3,0.36667 0.45,0.78333 0.45,1.25c0,0.96667 -0.5,1.63333 -1.5,2h-0.05c-1.56667,0.4 -3.06667,0.78333 -4.5,1.15h-15.55c-3.36667,0 -5.46667,-0.46667 -6.3,-1.4l-0.05,-0.05c-0.16667,-0.13333 -0.38333,-0.85 -0.65,-2.15c-0.46667,-2.13333 -0.71667,-3.26667 -0.75,-3.4c-0.63333,-2.93333 -1.15,-5.06667 -1.55,-6.4c-1.73333,3 -2.76667,5.63333 -3.1,7.9c-0.06667,0.3 -0.13333,1.03333 -0.2,2.2c-0.03333,1 -0.15,1.78333 -0.35,2.35c-0.56667,1.7 -3.75,2.55 -9.55,2.55c-6.6,0.03333 -10.23333,0.16667 -10.9,0.4h-5.1c-0.06667,0 -0.11667,-0.01667 -0.15,-0.05c-1.46667,-0.86667 -2.45,-2.16667 -2.95,-3.9v-0.05c-0.26667,-2 -0.48333,-3.45 -0.65,-4.35c-0.06667,-0.36667 -0.23333,-1.7 -0.5,-4c-0.16667,-1.53333 -0.43333,-2.81667 -0.8,-3.85c-2,-5.53333 -3.48333,-10.9 -4.45,-16.1c-1.5,-5.76667 -2.85,-11.05 -4.05,-15.85l-0.05,-0.05c-2.43333,-9.43333 -3.65,-14.91667 -3.65,-16.45c0,-0.93333 0,-1.41667 0,-1.45v-0.1c0.13333,-0.43333 0.66667,-0.78333 1.6,-1.05c0.93333,-0.26667 5.98333,-1.05 15.15,-2.35c2.03333,-0.3 4.75,-0.91667 8.15,-1.85c2.96667,-0.8 5.41667,-1.26667 7.35,-1.4c0.06667,0 0.13333,0.01667 0.2,0.05c1.43333,1.16667 2.23333,2.95 2.4,5.35c0.23333,3.5 0.38333,5.35 0.45,5.55c0.46667,1.7 1.3,5.35 2.5,10.95c0.33333,1.53333 0.83333,4.93333 1.5,10.2c0.2,1.63333 0.36667,3.1 0.5,4.4c1.06667,-4 1.98333,-7.18333 2.75,-9.55c1.63333,-5.03333 3.2,-7.51667 4.7,-7.45c1.16667,-0.03333 2.38333,1.63333 3.65,5c0.63333,1.66667 1.45,3.96667 2.45,6.9c0.86667,-4.4 1.25,-8.71667 1.15,-12.95v-0.05c0.73333,-3.03333 1.31667,-5.31667 1.75,-6.85c0.76667,-2.7 1.86667,-4.85 3.3,-6.45c0,-0.03333 0.01667,-0.05 0.05,-0.05c0.03333,-0.03333 0.08333,-0.05 0.15,-0.05l14.05,-0.25c4.96667,-0.2 10.56667,-0.81667 16.8,-1.85c1.4,-0.2 2.28333,-0.18333 2.65,0.05c0.4,0.2 0.6,0.91667 0.6,2.15M542.7,332.32181c-1.86667,0.36667 -5.31667,0.63333 -10.35,0.8l-12.7,0.25c-0.23333,2 -0.75,4.75 -1.55,8.25c-0.86667,3.76667 -1.41667,6.56667 -1.65,8.4c-0.23333,1.86667 -0.48333,5.28333 -0.75,10.25v0.05c-0.46667,4.26667 -1.41667,6.36667 -2.85,6.3c-1.56667,0.03333 -3.15,-2.18333 -4.75,-6.65c-1.2,-3.96667 -2.08333,-6.65 -2.65,-8.05c-0.53333,1.73333 -1.48333,4.93333 -2.85,9.6c-1.56667,4.63333 -3.05,7.08333 -4.45,7.35c0,0.03333 0,0.06667 0,0.1v0.1l-0.1,0.25c0,0.03333 -0.01667,0.05 -0.05,0.05c-0.1,0.26667 -0.48333,0.4 -1.15,0.4c-1.9,0.03333 -3.48333,-6.76667 -4.75,-20.4c-0.16667,-1.8 -0.85,-5.16667 -2.05,-10.1c-1,-4.16667 -1.5,-7.6 -1.5,-10.3c-0.1,-0.06667 -0.2,-0.16667 -0.3,-0.3c-4.5,0.9 -8.08333,1.6 -10.75,2.1c-4.73333,0.9 -9.65,1.75 -14.75,2.55c0.7,2.8 3.13333,12.48333 7.3,29.05c3.03333,11.96667 5.38333,21.85 7.05,29.65h2.7c0.33333,-0.1 2.75,-0.3 7.25,-0.6c4.63333,-0.33333 7.83333,-0.61667 9.6,-0.85c0.93333,-4.13333 2.01667,-7.9 3.25,-11.3c1.9,-5.03333 3.71667,-7.53333 5.45,-7.5c1.33333,-0.03333 2.55,2.33333 3.65,7.1c0.6,2.46667 1.4,6.06667 2.4,10.8l0.95,0.1c0.9,0.06667 1.53333,0.15 1.9,0.25h14.55c0.86667,-0.23333 1.63333,-0.4 2.3,-0.5v-0.15c0,-3.3 5.15,-22.48333 15.45,-57.55c-1,0.03333 -2.28333,0.2 -3.85,0.5M600.45,327.22181c0,1.93333 -0.26667,4.53333 -0.8,7.8c-0.76667,4.66667 -1.16667,7.16667 -1.2,7.5c-0.16667,1.5 -0.15,4 0.05,7.5c-0.13333,3.26667 -1.11667,5.76667 -2.95,7.5c-0.06667,0.06667 -0.13333,0.1 -0.2,0.1c-4.56667,0 -8.45,-0.03333 -11.65,-0.1c-3.06667,-0.1 -5.2,-0.15 -6.4,-0.15l-0.35,0.25v2.45c5.13333,-1.36667 8.4,-0.65 9.8,2.15c0.46667,0.83333 0.7,2.66667 0.7,5.5c0,0.43333 -0.05,1.15 -0.15,2.15c-0.1,0.83333 -0.06667,1.53333 0.1,2.1v0.1c0.1,0.76667 0.01667,1.41667 -0.25,1.95v0.05c-0.06667,0.2 -0.43333,0.5 -1.1,0.9l-0.05,0.05h-0.05c-0.36667,0.06667 -3.45,0.18333 -9.25,0.35c0.03333,0.53333 0.11667,1.46667 0.25,2.8c0.36667,-0.03333 0.95,-0.08333 1.75,-0.15h0.05c1.43333,-0.1 3.23333,-0.1 5.4,0l13.2,0.25c0.06667,0 0.13333,0.01667 0.2,0.05c1.16667,0.9 1.83333,2.95 2,6.15c0.06667,1.53333 0.03333,3.1 -0.1,4.7c0,1.83333 0.01667,4.38333 0.05,7.65v0.05c-0.5,2.5 -2.46667,3.75 -5.9,3.75h-0.05c-5.13333,-0.5 -10.85,-0.91667 -17.15,-1.25l-18.55,-0.25c-5.56667,-0.13333 -9.05,-0.95 -10.45,-2.45c-0.53333,-0.53333 -0.8,-1.76667 -0.8,-3.7c0,-1.3 1.11667,-11.63333 3.35,-31c2.23333,-19.3 3.35,-29.41667 3.35,-30.35c0,-1.8 0.5,-3.08333 1.5,-3.85c1.86667,-1.5 5.88333,-2.5 12.05,-3l17.95,-0.25c0.83333,-0.23333 1.65,-0.5 2.45,-0.8c0.86667,-0.23333 2.55,-0.46667 5.05,-0.7c0.03333,0 0.08333,0.01667 0.15,0.05c0.66667,-0.2 2.63333,-0.3 5.9,-0.3c0.06667,0 0.13333,0.01667 0.2,0.05c0.7,0.56667 1.23333,1.41667 1.6,2.55c0.2,0.7 0.3,1.31667 0.3,1.85M589.95,328.12181c-2.73333,0.63333 -4.25,0.96667 -4.55,1l-17.7,0.25c-1.46667,0.2 -3.15,0.46667 -5.05,0.8c-2.2,0.36667 -3.5,0.6 -3.9,0.7l-0.8,0.35c-1.16667,8.16667 -2.4,18.06667 -3.7,29.7c-0.76667,6.76667 -1.86667,16.9 -3.3,30.4v2.25l7.2,0.95l18.8,0.25c0.53333,0.16667 5.76667,0.58333 15.7,1.25h2.15l0.3,-0.2v-13.05c-4.53333,-0.06667 -8.11667,-0.15 -10.75,-0.25c-1.8,-0.1 -2.91667,-0.15 -3.35,-0.15c-0.36667,0 -1.23333,0.21667 -2.6,0.65c-1.4,0.4 -2.33333,0.6 -2.8,0.6c-1.46667,0.03333 -2.48333,-1.66667 -3.05,-5.1c-0.3,-3.3 -0.45,-4.98333 -0.45,-5.05c0,-1.4 0.38333,-2.28333 1.15,-2.65c1.4,-0.8 4.51667,-0.91667 9.35,-0.35v-5.8l-0.7,-0.25c-3,0.73333 -5.18333,1.13333 -6.55,1.2c-0.06667,0 -0.11667,-0.01667 -0.15,-0.05c-1.23333,-0.63333 -2.03333,-1.83333 -2.4,-3.6c-0.13333,-0.66667 -0.2,-1.86667 -0.2,-3.6c0,-1.13333 0.03333,-1.91667 0.1,-2.35c0.13333,-0.83333 0.45,-1.61667 0.95,-2.35c0.03333,-0.06667 0.08333,-0.1 0.15,-0.1v-0.05c1.73333,-0.5 4.85,-0.66667 9.35,-0.5h10.4c0.03333,-5.56667 0.86667,-14.11667 2.5,-25.65c-1.4,-0.03333 -3.43333,0.21667 -6.1,0.75M655.95,326.97181c0,2 -0.28333,6.05 -0.85,12.15c-0.7,7.33333 -1.41667,12.01667 -2.15,14.05v0.05c-0.03333,0 -0.05,0.01667 -0.05,0.05l-0.05,0.05c-0.03333,0 -0.05,0.01667 -0.05,0.05h-0.05c-1.56667,0.53333 -4.85,1.16667 -9.85,1.9c-4.63333,0.63333 -7.33333,1 -8.1,1.1c-0.13333,0.1 -0.23333,0.2 -0.3,0.3c-0.03333,0.13333 -0.05,0.48333 -0.05,1.05c0,0.4 0.08333,1.01667 0.25,1.85c0.16667,0.8 0.25,1.46667 0.25,2c0.5,-0.13333 1.31667,-0.28333 2.45,-0.45c1.8,-0.3 3.26667,-0.58333 4.4,-0.85h4.05c0.06667,0 0.13333,0.01667 0.2,0.05c1,0.8 1.6,2.21667 1.8,4.25c0.06667,0.56667 0.1,2.11667 0.1,4.65c0,1.46667 0.03333,3.18333 0.1,5.15c-0.03333,1.4 -0.31667,2.35 -0.85,2.85c-0.73333,0.83333 -4.05,1.21667 -9.95,1.15l-0.7,0.3c0.23333,0.63333 0.51667,1.71667 0.85,3.25c0.2,-0.03333 0.5,-0.08333 0.9,-0.15h16.1c1,0.1 1.63333,1.65 1.9,4.65c0.1,1.13333 0.15,3.06667 0.15,5.8c0,4.76667 -0.16667,7.56667 -0.5,8.4c-1,2.6 -3.7,3.43333 -8.1,2.5l-23.2,0.25c-5.06667,0.1 -9.38333,0.3 -12.95,0.6h-0.05c-2.9,0.23333 -4.63333,0.45 -5.2,0.65c-0.06667,0.03333 -0.13333,0.03333 -0.2,0l-1.75,-0.6c-0.03333,-0.03333 -0.06667,-0.06667 -0.1,-0.1h-0.05c-0.03333,-0.06667 -0.05,-0.11667 -0.05,-0.15c-0.46667,-3.86667 -0.7,-6.21667 -0.7,-7.05v-0.05c0.33333,-3.3 0.56667,-5.83333 0.7,-7.6v-23.6c0.13333,-1.83333 0.36667,-8.38333 0.7,-19.65c0.13333,-4.56667 0.38333,-8.66667 0.75,-12.3c-0.26667,-3.56667 -0.4,-5.78333 -0.4,-6.65c-0.03333,-0.86667 0.6,-1.43333 1.9,-1.7c0.2,-0.16667 0.56667,-0.25 1.1,-0.25c0.23333,0 0.45,0.03333 0.65,0.1c1.66667,-0.13333 4.21667,-0.13333 7.65,0h18.2c1.13333,-0.13333 4.45,-0.55 9.95,-1.25c5.2,-0.66667 8.38333,-1 9.55,-1c0.03333,0 0.06667,0 0.1,0c1.36667,0.43333 2.03333,1.16667 2,2.2c0,0.5 -0.18333,0.93333 -0.55,1.3c0.03333,0.2 0.05,0.43333 0.05,0.7M651.15,330.57181c0.13333,-1.16667 0.23333,-2.1 0.3,-2.8c-2.43333,0.3 -7.78333,0.91667 -16.05,1.85h-19.15c-0.56667,-0.13333 -2.68333,-0.28333 -6.35,-0.45c-0.06667,2.73333 -0.25,6.65 -0.55,11.75c-0.36667,6.06667 -0.51667,10.66667 -0.45,13.8c0.1,6 -0.06667,14.98333 -0.5,26.95l0.05,17.6h4.9c6.96667,-0.16667 10.76667,-0.33333 11.4,-0.5l22.6,-0.25l1,-0.15c0.93333,-0.13333 2.18333,-0.25 3.75,-0.35v-11.75l-13.35,0.1c-0.56667,0.16667 -1.53333,0.25 -2.9,0.25h-0.05c-1.46667,-0.33333 -2.41667,-1.11667 -2.85,-2.35v-0.05c-0.13333,-1.3 -0.25,-2.16667 -0.35,-2.6c-0.06667,-0.3 -0.26667,-1.13333 -0.6,-2.5c-0.26667,-1.13333 -0.4,-1.93333 -0.4,-2.4c0,-1.03333 0.41667,-1.7 1.25,-2c1.5,-0.53333 5.06667,-0.93333 10.7,-1.2c-0.4,-2.6 -0.46667,-5.5 -0.2,-8.7l-9.45,1.8h-0.05c-1.53333,0.03333 -2.61667,-1.5 -3.25,-4.6c-0.3,-2.7 -0.46667,-4.2 -0.5,-4.5c-0.13333,-1.1 -0.18333,-1.88333 -0.15,-2.35c0.06667,-0.9 0.56667,-1.63333 1.5,-2.2c2.1,-1.3 7.9,-2.4 17.4,-3.3c0.76667,-2.03333 1.28333,-4.46667 1.55,-7.3c0.2,-2.06667 0.26667,-4.66667 0.2,-7.8v-0.05c0.2,-0.96667 0.38333,-2.28333 0.55,-3.95M722.45,332.67181c0,0.93333 -1.08333,3.51667 -3.25,7.75c-1.06667,2.1 -2.23333,4.3 -3.5,6.6v0.05c-0.26667,0.66667 -1.41667,3.06667 -3.45,7.2c-1.86667,3.86667 -2.8,6.1 -2.8,6.7c0.03333,0.93333 3.66667,4.95 10.9,12.05c7.43333,7.3 11.13333,11.5 11.1,12.6c0,1.43333 -0.5,2.25 -1.5,2.45c0,0.03333 0,0.06667 0,0.1c0.03333,0.9 -1.95,2.66667 -5.95,5.3c-4,2.46667 -6.13333,3.8 -6.4,4c-5.9,5.13333 -9.31667,7.68333 -10.25,7.65c-1.46667,0.06667 -4.53333,-3.11667 -9.2,-9.55c-1.46667,-2.06667 -4.51667,-6.55 -9.15,-13.45c0.1,2.16667 0.5,5.5 1.2,10c0.43333,2.63333 0.85,5.23333 1.25,7.8v0.05c0,0.73333 -0.21667,1.28333 -0.65,1.65c-0.43333,0.33333 -1.08333,0.5 -1.95,0.5c-0.4,0 -1.76667,-0.2 -4.1,-0.6c-2.23333,-0.43333 -3.56667,-0.65 -4,-0.65c-0.46667,0 -2.33333,0.11667 -5.6,0.35c-4.73333,0.3 -8.15,0.51667 -10.25,0.65c-0.16667,0 -0.38333,0.11667 -0.65,0.35l-0.05,0.05c-0.4,0.23333 -0.85,0.35 -1.35,0.35c-1.4,0.03333 -2.28333,-2.16667 -2.65,-6.6c-0.06667,-1.1 -0.1,-4.08333 -0.1,-8.95c0,-1.9 -0.08333,-4.81667 -0.25,-8.75c-0.16667,-3.93333 -0.25,-5.96667 -0.25,-6.1c0,-1.6 0.06667,-2.76667 0.2,-3.5v-23.25c0.06667,-5.23333 0.15,-8.61667 0.25,-10.15c-0.06667,-2.03333 -0.1,-3.6 -0.1,-4.7c0.03333,-2.13333 0.41667,-3.63333 1.15,-4.5h0.05v-0.05c1.13333,-1 3.66667,-1.96667 7.6,-2.9c5.4,-1.3 8.83333,-2.21667 10.3,-2.75c1.3,-0.43333 3.86667,-1.96667 7.7,-4.6c1.06667,-0.76667 2,-1.06667 2.8,-0.9c0.76667,0.13333 1.38333,0.71667 1.85,1.75l0.05,0.05c0,0.03333 0,0.06667 0,0.1v18.2c0.5,-1.9 1.3,-5.01667 2.4,-9.35c1.3,-4.96667 2.63333,-7.43333 4,-7.4c0.06667,0 0.11667,0.01667 0.15,0.05l9.05,5.65c6.46667,3.8 10.91667,5.9 13.35,6.3h0.05c0.86667,0.3 1.45,0.7 1.75,1.2c0.16667,0.26667 0.25,0.66667 0.25,1.2M709.45,350.12181c2.96667,-6.5 5.31667,-11.48333 7.05,-14.95c-4.76667,-3.13333 -10.73333,-6.63333 -17.9,-10.5c-0.93333,3.1 -2.56667,8.86667 -4.9,17.3c-2.2,7.43333 -3.65,11.11667 -4.35,11.05c-1.5,0 -2.25,-0.5 -2.25,-1.5v-0.05c0.2,-0.9 0.21667,-1.51667 0.05,-1.85c-0.03333,-0.03333 -0.05,-0.06667 -0.05,-0.1v-27.75c-0.83333,0.26667 -2.13333,0.81667 -3.9,1.65c-2.03333,0.96667 -3.43333,1.58333 -4.2,1.85c-3.76667,1.03333 -7.03333,1.73333 -9.8,2.1c-2.63333,0.33333 -4.21667,1.2 -4.75,2.6c-0.3,0.8 -0.38333,1.9 -0.25,3.3v0.1c-0.16667,1.76667 -0.33333,3.4 -0.5,4.9c0.06667,3.86667 0.13333,6.43333 0.2,7.7v22.85c0.2,3.26667 0.38333,8.03333 0.55,14.3c0.16667,6.43333 0.33333,11.15 0.5,14.15c2.46667,0.13333 5.71667,-0.1 9.75,-0.7c3.56667,-0.53333 7.36667,-0.51667 11.4,0.05c0,-0.06667 0,-0.15 0,-0.25c0,-1.46667 -0.25,-3.9 -0.75,-7.3c-0.5,-3.5 -0.75,-6.81667 -0.75,-9.95c-0.1,-1.83333 -0.1,-3.35 0,-4.55v-0.05c0.23333,-2.56667 0.98333,-3.81667 2.25,-3.75c0.7,-0.03333 2.28333,1.96667 4.75,6c3.36667,5.56667 5.11667,8.43333 5.25,8.6c0.03333,0.03333 0.05,0.06667 0.05,0.1c6.36667,9.36667 9.78333,14.13333 10.25,14.3c0.06667,-0.03333 3.18333,-2.35 9.35,-6.95c4.9,-3.56667 8.2,-5.76667 9.9,-6.6c-0.96667,-0.86667 -2.11667,-2.03333 -3.45,-3.5c-0.7,-0.76667 -3.05,-3.45 -7.05,-8.05c-0.03333,-0.03333 -0.03333,-0.05 0,-0.05c-2.56667,-2.8 -4.68333,-5.15 -6.35,-7.05l-0.05,-0.05c-3.3,-3.7 -4.93333,-5.71667 -4.9,-6.05c0,-0.5 1.61667,-4.28333 4.85,-11.35M808.4,317.72181c1.06667,-0.36667 1.86667,-0.23333 2.4,0.4c0.53333,0.56667 0.8,1.58333 0.8,3.05c0,1.5 -0.01667,3.56667 -0.05,6.2c0.13333,0.76667 0.81667,4.11667 2.05,10.05c1.16667,5.96667 1.75,9.83333 1.75,11.6c0,1.8 -1.71667,2.95 -5.15,3.45c-3.76667,0.5 -11.78333,0.56667 -24.05,0.2h-6.15c0.9,2.83333 1.4,5.15 1.5,6.95c0.6,-0.13333 1.33333,-0.28333 2.2,-0.45h21.65c11.03333,1.16667 16.55,7.33333 16.55,18.5c0,5.63333 -0.95,10.36667 -2.85,14.2c-3.16667,6.56667 -8.81667,10.33333 -16.95,11.3l-18.95,0.25c-1.8,0.13333 -3.1,0.2 -3.9,0.2c-0.63333,0 -2.01667,-0.08333 -4.15,-0.25c-2.26667,-0.16667 -3.61667,-0.31667 -4.05,-0.45l-13.15,-0.25c-0.06667,0 -0.11667,0 -0.15,0h-0.05c-0.93333,-0.76667 -1.86667,-2.56667 -2.8,-5.4c-0.8,-2.86667 -1.3,-4.6 -1.5,-5.2c-0.36667,-1.06667 -0.88333,-2.9 -1.55,-5.5c-0.8,-2.96667 -1.2,-4.7 -1.2,-5.2c0,-0.66667 0.28333,-1.18333 0.85,-1.55c0.43333,-0.3 0.91667,-0.45 1.45,-0.45c0.76667,0 1.96667,0.2 3.6,0.6c1.6,0.36667 5.16667,0.55 10.7,0.55c7.3,0 11.91667,-0.5 13.85,-1.5c0.53333,-0.26667 1.01667,-0.7 1.45,-1.3c0.46667,-0.63333 0.95,-1.06667 1.45,-1.3c0,-0.13333 0,-0.26667 0,-0.4c-0.03333,-0.5 -2,-1.4 -5.9,-2.7c-2.93333,-0.36667 -7.93333,-0.85 -15,-1.45h-0.05c-6.3,-0.53333 -9.45,-0.85 -9.45,-0.95c-0.96667,-0.83333 -1.55,-1.98333 -1.75,-3.45v-0.05c-0.1,-1.63333 -0.21667,-2.86667 -0.35,-3.7c-0.06667,-0.43333 -0.55,-2.58333 -1.45,-6.45c-0.83333,-3.6 -1.25,-5.98333 -1.25,-7.15c0,-0.36667 0,-0.68333 0,-0.95c-0.36667,-2.96667 -0.63333,-4.93333 -0.8,-5.9c-0.1,-0.5 -0.76667,-3.16667 -2,-8c-0.86667,-3.56667 -1.3,-6.3 -1.3,-8.2c0,-0.73333 0.2,-1.51667 0.6,-2.35c0,-0.03333 0.05,-0.06667 0.15,-0.1l-0.05,0.05c0.06875,-0.06562 0.13542,-0.08229 0.2,-0.05l3.95,0.65c4.03333,0.06667 7.43333,0.16667 10.2,0.3c4.56667,0 11.78333,-0.5 21.65,-1.5c9.43333,-0.96667 15.3,-1.75 17.6,-2.35h0.05c0.53333,-0.1 1.46667,-0.36667 2.8,-0.8c1.6,-0.43333 2.75,-0.81667 3.45,-1.15c0.2,-0.13333 1.21667,-0.8 3.05,-2c0,-0.03333 0.01667,-0.05 0.05,-0.05M793,326.97181c-11.4,1.66667 -25.71667,2.56667 -42.95,2.7c1.46667,6.8 2.41667,11.4 2.85,13.8c0.93333,5.2 1.4,9.55 1.4,13.05c0,0.2 0,0.38333 0,0.55c0.1,1.13333 0.38333,2.58333 0.85,4.35c0.66667,2.36667 1,4.25 1,5.65c13.26667,0.33333 22.43333,1.46667 27.5,3.4c3.3,1.26667 4.93333,2.96667 4.9,5.1c0,2.26667 -1.2,4.25 -3.6,5.95c-3.16667,2.23333 -7.93333,3.26667 -14.3,3.1h-14.7c0.63333,2.93333 1.93333,7.56667 3.9,13.9l11.75,0.1c0.36667,0.1 1.56667,0.23333 3.6,0.4h0.05c2,0.2 3.31667,0.3 3.95,0.3c0.8,0 1.98333,-0.08333 3.55,-0.25l18.9,-0.25c6.3,-0.36667 10.83333,-3.43333 13.6,-9.2c1.7,-3.63333 2.55,-7.63333 2.55,-12c0,-3.16667 -0.55,-5.83333 -1.65,-8c-2.06667,-4.03333 -5.8,-6.08333 -11.2,-6.15h-20.8c-0.3,0.16667 -0.83333,0.25 -1.6,0.25c-1.76667,0 -2.95,-0.18333 -3.55,-0.55c-0.4,-0.26667 -0.63333,-0.63333 -0.7,-1.1c-0.63333,-0.8 -1.23333,-2.45 -1.8,-4.95c-0.6,-3.46667 -0.91667,-5.31667 -0.95,-5.55c-0.16667,-1.13333 -0.23333,-1.86667 -0.2,-2.2c0,-0.26667 0.15,-0.46667 0.45,-0.6c0.2,-0.1 0.51667,-0.15 0.95,-0.15c1.23333,-0.03333 6.9,0.11667 17,0.45c3.36667,0 6.4,-0.3 9.1,-0.9c2.5,-0.56667 5.05,-0.85 7.65,-0.85c-0.2,-1.96667 -0.83333,-5.91667 -1.9,-11.85c-0.86667,-4.7 -1.23333,-8.6 -1.1,-11.7c-2.33333,1.1 -7.16667,2.16667 -14.5,3.2z"/></g></g></svg>