<svg version="1.1" xmlns="http://www.w3.org/2000/svg" xmlns:xlink="http://www.w3.org/1999/xlink" width="497.78255" height="609.23873" viewBox="0,0,497.78255,609.23873"><g transform="translate(-417.29087,-110.40016)"><g data-paper-data="{&quot;isPaintingLayer&quot;:true}" fill-rule="nonzero" stroke="none" stroke-width="1" stroke-linecap="butt" stroke-linejoin="miter" stroke-miterlimit="10" stroke-dasharray="" stroke-dashoffset="0" style="mix-blend-mode: normal"><path d="M522.75138,372.55139c4.24706,-4.97543 8.78284,-8.46731 13.60733,-10.47564c3.18246,-1.29485 6.31614,-2.69029 9.40103,-4.18633c10.05131,-4.75848 20.18398,-8.80262 30.39801,-12.13241c0.04064,-0.05284 0.06807,-0.11585 0.08229,-0.18901c0.71689,-5.7982 2.69583,-11.76113 5.9368,-17.88878c2.32895,-0.73183 4.69145,-1.20658 7.0875,-1.42424c10.51907,-0.99268 21.28523,-0.0923 32.29848,2.70114c2.14015,1.64597 3.73666,3.31536 4.78954,5.00817c6.14043,9.89471 10.53513,19.98162 13.18411,30.26073c-1.13599,0.76627 -2.33089,1.71851 -3.58472,2.8567c-9.37017,8.5202 -18.83891,16.92253 -28.40623,25.20701c-1.45319,-1.11764 -2.98461,-2.10621 -4.59426,-2.96573c-3.74976,-1.9588 -7.6296,-4.18586 -11.63954,-6.68117c-7.57215,2.08173 -15.10462,4.74063 -22.59741,7.9767c-10.01274,4.3256 -19.94208,9.47224 -29.78803,15.43992c-0.07926,-0.06096 -0.14227,-0.08839 -0.18901,-0.08229c-5.74733,0.03708 -11.91358,-3.04435 -18.49876,-9.24431c0.04064,-0.05284 0.05791,-0.10264 0.05181,-0.14938c-2.55305,-5.53778 -3.5006,-11.24946 -2.84265,-17.13505c1.43258,-2.13607 3.20048,-4.43475 5.30369,-6.89604z" fill-opacity="0.99608" fill="#000000"/><path d="M532.99295,434.39102c-13.72612,7.8932 -26.27945,11.73166 -37.65997,11.51539c-8.50671,-0.17282 -16.57693,-1.95223 -24.21065,-5.33826c-7.51154,-3.2808 -14.06388,-9.72075 -19.65701,-19.31984c-3.23568,-5.5611 -4.97709,-11.1217 -5.22424,-16.68179c-0.5228,-11.02367 2.88868,-21.83215 10.23447,-32.42543c3.64251,-5.23705 8.09401,-10.48868 13.35451,-15.75488c5.27848,-5.24062 11.74457,-10.43712 19.39826,-15.58949c6.48291,-3.87042 13.14445,-7.17839 19.98464,-9.9239c6.38128,-2.57573 12.51858,-4.19629 18.4119,-4.86166c11.85486,-1.30226 22.394,1.76097 31.61741,9.18967c3.48173,2.82697 6.56351,6.66144 9.24535,11.50343c4.5791,8.36259 6.75075,16.65962 6.51494,24.89107c-0.31689,10.92605 -3.58141,21.6694 -9.79355,32.23007c-3.18296,5.41085 -7.33493,10.64299 -12.4559,15.6964c-5.74048,5.68015 -12.3272,10.63655 -19.76017,14.86921z" fill-opacity="0.99608" fill="#000000"/><path d="M668.25,546.9l7.35,2.85c3.56667,16.43333 7.81667,32.85 12.75,49.25l-3.15,11.8c-2.4,8.06667 -3.7,12.63333 -3.9,13.7c-0.2,1 0.38333,4.08333 1.75,9.25c1.86667,7.03333 2.83333,10.73333 2.9,11.1c0.4,1.96667 1.28333,5.43333 2.65,10.4c1.36667,4.96667 2.08333,7.6 2.15,7.9c0.3,1.46667 0.93333,2.65 1.9,3.55c1.66667,1.6 4.45,2.65 8.35,3.15c1.8,1.56667 7.05,5.71667 15.75,12.45c10.33333,8.03333 17.08333,13.01667 20.25,14.95c4.23333,2.6 8.21667,4.88333 11.95,6.85c4.36667,2.26667 7.05,3.4 8.05,3.4c1.06667,0 4.41667,-0.58333 10.05,-1.75c5.53333,-1.13333 8.85,-1.91667 9.95,-2.35c0.63333,-0.23333 2.58333,-0.76667 5.85,-1.6c3.26667,-0.8 5.36667,-1.38333 6.3,-1.75l9.55,10.2c-2.6,1.23333 -9.18333,3.46667 -19.75,6.7c-10.03333,2.2 -17.28333,3.05 -21.75,2.55c-4.46667,-0.53333 -7.81667,-1.11667 -10.05,-1.75l-2.35,-0.7c-1.5,-0.43333 -4.38333,-1.86667 -8.65,-4.3c-4.26667,-2.43333 -7.91667,-4.8 -10.95,-7.1c-3.03333,-2.3 -6.16667,-4.83333 -9.4,-7.6c-1.26667,0.16667 -4.01667,-1.31667 -8.25,-4.45c-4.26667,-3.16667 -6.85,-5.28333 -7.75,-6.35c-0.93333,-1.06667 -4.3,-3.18333 -10.1,-6.35l-8.5,-4.55l-0.6,-4.1l-5.8,-21.3c-2.76667,-8.83333 -4.35,-14.21667 -4.75,-16.15c-0.43333,-1.96667 -0.56667,-3.93333 -0.4,-5.9c4.9,-15.46667 8.08333,-24.36667 9.55,-26.7c-1.1,-2.83333 -2,-7.03333 -2.7,-12.6c-0.5,-5.2 -0.78333,-8 -0.85,-8.4l-4.25,-18.8c-0.9,-3.83333 -1.76667,-7.96667 -2.6,-12.4l-0.55,-3.1M550.1,554.35l-0.8,19.3c-0.7,13.26667 -1.38333,20.95 -2.05,23.05c-0.7,2.06667 -1.81667,4.7 -3.35,7.9c-1.53333,3.16667 -2.98333,6.2 -4.35,9.1c-1.36667,2.86667 -3.1,6.13333 -5.2,9.8c-1.83333,3.3 -3.83333,6.5 -6,9.6c-2.2,3.06667 -5.5,5.05 -9.9,5.95c-4,-0.03333 -6.38333,-0.05 -7.15,-0.05c-2.53333,2.86667 -5.56667,7.08333 -9.1,12.65c-3.1,4.86667 -4.83333,7.86667 -5.2,9c-0.36667,1.1 0.01667,3.25 1.15,6.45c0.06667,0.56667 0.86667,2.9 2.4,7c1.53333,4.1 2.85,7.4 3.95,9.9c1.06667,2.5 2.21667,4.5 3.45,6c1.2,1.53333 2.26667,2.66667 3.2,3.4c0.9,0.7 2.08333,1.48333 3.55,2.35c1.43333,0.86667 7.41667,3.48333 17.95,7.85c10.53333,4.36667 18.65,7.06667 24.35,8.1c-3.76667,0.13333 -6.45,0.18333 -8.05,0.15c-1.83333,-0.03333 -6.41667,-0.76667 -13.75,-2.2c-1.5,-0.3 -4.26667,-1.26667 -8.3,-2.9l-5.6,-2.4c-8.43333,-4.46667 -14.41667,-7.58333 -17.95,-9.35c-2.2,-1.1 -4.08333,-2.8 -5.65,-5.1l-1.7,-3.15c-4,-8.13333 -7,-14.46667 -9,-19c-1.23333,-2.83333 -1.8,-5.13333 -1.7,-6.9l0.5,-1.85l20.45,-29.1l1.75,0.2c1.43333,0.1 2.81667,0.03333 4.15,-0.2c4.33333,-0.7 7.5,-2.75 9.5,-6.15c1.23333,-2.1 3.46667,-5.85 6.7,-11.25l5.15,-9.45c0.9,-1.63333 1.85,-3.46667 2.85,-5.5c2.03333,-4.06667 3.21667,-7.7 3.55,-10.9c0.86667,-4.6 1.63333,-9.61667 2.3,-15.05c1.36667,-10.9 1.65,-18.43333 0.85,-22.6l7.05,5.35M769.65,646.55c-5.9,2.33333 -10.76667,3.2 -14.6,2.6c4.33333,-2.9 10.55,-7.31667 18.65,-13.25c4.76667,-3.5 7.86667,-6.11667 9.3,-7.85c-0.33333,2.1 -0.88333,4.43333 -1.65,7c-0.76667,2.53333 -1.43333,4.5 -2,5.9c-0.6,1.36667 -3.83333,3.23333 -9.7,5.6M734.55,553.8c-3.76667,-0.36667 -7.06667,-0.86667 -9.9,-1.5l-3.45,-1.05c17.4,-7.03333 26.35,-10.83333 26.85,-11.4c-5.26667,9.63333 -9.76667,14.28333 -13.5,13.95M545.25,627l22.4,12.55c-4.93333,-0.26667 -9.9,-0.96667 -14.9,-2.1c-5,-1.1 -7.5,-4.58333 -7.5,-10.45M580.05,540.55c6.06667,3.16667 9.8,4.91667 11.2,5.25c-2.73333,2.06667 -5.73333,3.03333 -9,2.9c-3.26667,-0.1 -6.86667,-4.35 -10.8,-12.75z" fill="#2a2b3e"/><path d="M819.25,643.35c1.6,0.53333 2.5,1.01667 2.7,1.45l3.6,8.95c2.3,6.56667 4.16667,12.63333 5.6,18.2c0.53333,2.46667 0.83333,4.68333 0.9,6.65c0.06667,1.93333 -0.15,3.41667 -0.65,4.45c-0.5,1.03333 -3.11667,4.45 -7.85,10.25c-5.96667,6.23333 -9.85,9.81667 -11.65,10.75c-0.73333,0.4 -5.13333,2.46667 -13.2,6.2l-9.55,-10.2c-0.93333,0.36667 -3.03333,0.95 -6.3,1.75c-3.26667,0.83333 -5.21667,1.36667 -5.85,1.6c-1.1,0.43333 -4.41667,1.21667 -9.95,2.35c-5.63333,1.16667 -8.98333,1.75 -10.05,1.75c-1,0 -3.68333,-1.13333 -8.05,-3.4c-3.73333,-1.96667 -7.71667,-4.25 -11.95,-6.85c-3.16667,-1.93333 -9.91667,-6.91667 -20.25,-14.95c-8.7,-6.73333 -13.95,-10.88333 -15.75,-12.45c-3.9,-0.5 -6.68333,-1.55 -8.35,-3.15c-0.96667,-0.9 -1.6,-2.08333 -1.9,-3.55c-0.06667,-0.3 -0.78333,-2.93333 -2.15,-7.9c-1.36667,-4.96667 -2.25,-8.43333 -2.65,-10.4c-0.06667,-0.36667 -1.03333,-4.06667 -2.9,-11.1c-1.36667,-5.16667 -1.95,-8.25 -1.75,-9.25c0.2,-1.06667 1.5,-5.63333 3.9,-13.7l3.15,-11.8c-4.93333,-16.4 -9.18333,-32.81667 -12.75,-49.25l-7.35,-2.85l-0.35,-1.75c0.53333,-0.6 1.18333,-1.25 1.95,-1.95c0.5,-0.46667 1.13333,-1.06667 1.9,-1.8c2.56667,-2.5 4.4,-4.85 5.5,-7.05c1.1,-2.23333 1.36667,-5.3 0.8,-9.2c-0.4,-2.8 -6.73333,-5.96667 -19,-9.5c-12.46667,-3.06667 -19.05,-4.7 -19.75,-4.9c-3.06667,7.13333 -4.68333,10.93333 -4.85,11.4c-2.1,5.16667 -3.06667,8.26667 -2.9,9.3c0.5,1.53333 2.51667,4.53333 6.05,9c4.2,5.33333 6.41667,8.18333 6.65,8.55c-0.63333,2.9 -1.98333,11.3 -4.05,25.2c-0.56667,6.93333 -1.7,12.3 -3.4,16.1l-4.5,10.05l4.7,14.55c1.76667,5.46667 2.81667,9.71667 3.15,12.75c0.33333,3 0.13333,5.4 -0.6,7.2l-12.55,26.85l-4.15,7.65c-2.96667,5.3 -4.91667,8.51667 -5.85,9.65c-0.9,0.16667 -2.93333,0.68333 -6.1,1.55c-3.2,0.86667 -5.46667,1.6 -6.8,2.2c-1.36667,0.56667 -3.23333,1.51667 -5.6,2.85c-2.4,1.3 -4.28333,2.43333 -5.65,3.4l-35.85,22.7c-5.7,-1.03333 -13.81667,-3.73333 -24.35,-8.1c-10.53333,-4.36667 -16.51667,-6.98333 -17.95,-7.85c-1.46667,-0.86667 -2.65,-1.65 -3.55,-2.35c-0.93333,-0.73333 -2,-1.86667 -3.2,-3.4c-1.23333,-1.5 -2.38333,-3.5 -3.45,-6c-1.1,-2.5 -2.41667,-5.8 -3.95,-9.9c-1.53333,-4.1 -2.33333,-6.43333 -2.4,-7c-1.13333,-3.2 -1.51667,-5.35 -1.15,-6.45c0.36667,-1.13333 2.1,-4.13333 5.2,-9c3.53333,-5.56667 6.56667,-9.78333 9.1,-12.65c0.76667,0 3.15,0.01667 7.15,0.05c4.4,-0.9 7.7,-2.88333 9.9,-5.95c2.16667,-3.1 4.16667,-6.3 6,-9.6c2.1,-3.66667 3.83333,-6.93333 5.2,-9.8c1.36667,-2.9 2.81667,-5.93333 4.35,-9.1c1.53333,-3.2 2.65,-5.83333 3.35,-7.9c0.66667,-2.1 1.35,-9.78333 2.05,-23.05l0.8,-19.3l-7.05,-5.35c4.26667,-3.9 8,-7.58333 11.2,-11.05c6.2,-6.66667 9.5,-12.21667 9.9,-16.65c0.43333,-4.5 0.66667,-8.08333 0.7,-10.75c-0.03333,-2.03333 -0.05,-3.3 -0.05,-3.8c0,-0.63333 1.08333,-1.8 3.25,-3.5c2.16667,-1.73333 6.15,-4.28333 11.95,-7.65c4.9,-2.9 7.76667,-5.63333 8.6,-8.2c0.03333,-0.4 0.08333,-0.85 0.15,-1.35c0.03333,-0.2 0.06667,-0.41667 0.1,-0.65c0.66667,-5.2 1.41667,-11.2 2.25,-18c0.83333,-6.83333 1.31667,-10.7 1.45,-11.6c0.1,-0.93333 0.7,-4.88333 1.8,-11.85c1.06667,-7 1.65,-10.86667 1.75,-11.6c2.46667,-16.4 4.15,-26.73333 5.05,-31c1.1,-5.33333 2.73333,-11.96667 4.9,-19.9c0,-0.1 0.56667,-2.13333 1.7,-6.1c1.1,-3.96667 2.26667,-7.66667 3.5,-11.1c1.23333,-3.43333 2.88333,-7.4 4.95,-11.9c2.06667,-4.5 4.5,-9.03333 7.3,-13.6c2.76667,-4.56667 5.5,-8.68333 8.2,-12.35c2.66667,-3.7 5.6,-6.83333 8.8,-9.4c3.16667,-2.56667 7.3,-4.65 12.4,-6.25c5.06667,-1.6 11.36667,-2.18333 18.9,-1.75c7.5,0.4 15.56667,2.93333 24.2,7.6c8.6,4.63333 14.28333,10.25 17.05,16.85c2.73333,6.56667 4.68333,20.06667 5.85,40.5c0.03333,0.63333 0.06667,1.26667 0.1,1.9c0,0.13333 0,0.28333 0,0.45c0.03333,0.46667 0.06667,0.95 0.1,1.45c0,0.06667 0,0.15 0,0.25c0,0.1 0.01667,0.21667 0.05,0.35c0,0.1 0,0.21667 0,0.35l0.05,0.3c0.06667,1.16667 0.15,2.41667 0.25,3.75c0.36667,5.4 0.61667,8.61667 0.75,9.65c0.13333,1.03333 0.66667,5.46667 1.6,13.3c0.86667,7.53333 1.36667,11.68333 1.5,12.45c0.2,1.06667 0.51667,4.18333 0.95,9.35c0.43333,5.03333 0.66667,8.15 0.7,9.35c0.03333,1.03333 0.4,4.08333 1.1,9.15c0.66667,4.6 1.18333,7.93333 1.55,10c0.56667,3.13333 2.23333,10.8 5,23c0.33333,1.46667 1.46667,5.26667 3.4,11.4c1.93333,6.16667 2.98333,9.6 3.15,10.3c0.73333,0.2 4.23333,1.51667 10.5,3.95c6.5,2.56667 10.3,4.01667 11.4,4.35c1.36667,0.43333 1.85,1.86667 1.45,4.3c-0.23333,1.33333 -0.65,3.23333 -1.25,5.7c-0.13333,1.43333 0.25,5.36667 1.15,11.8c0.9,6.33333 1.56667,10.01667 2,11.05c0.4,0.9 2.38333,3.5 5.95,7.8c3.33333,4.03333 5.55,6.56667 6.65,7.6c0.63333,0.6 1.45,1.21667 2.45,1.85c0.7,0.53333 1.06667,1.28333 1.1,2.25c0.06667,1.56667 0.3,4.96667 0.7,10.2l5.15,27.45c2.26667,11.26667 3.55,17.48333 3.85,18.65c0.26667,1.13333 1.66667,3.93333 4.2,8.4c2.5,4.46667 4.58333,8.13333 6.25,11c0.5,0.36667 2.56667,1.16667 6.2,2.4c3.6,1.2 6.16667,2.01667 7.7,2.45c1.5,0.43333 3.05,0.91667 4.65,1.45M706.85,331.25c-2.4,-3.3 -4.56667,-5.65 -6.5,-7.05c-1.96667,-1.43333 -3.51667,-2.48333 -4.65,-3.15l-3.75,54.45c-9.66667,5.76667 -20.93333,8.51667 -33.8,8.25c-4,-0.1 -7.93333,-0.48333 -11.8,-1.15l-4.6,-1c-9.73333,-3.53333 -15.15,-7.06667 -16.25,-10.6c-1.1,-3.56667 -0.86667,-7.85 0.7,-12.85c1.56667,-5 4.4,-13.28333 8.5,-24.85l2,-5.55c-7.5,9.03333 -13.85,20.6 -19.05,34.7c-2.43333,6.66667 -4.2,12.51667 -5.3,17.55c-0.06667,0.3 -0.13333,0.6 -0.2,0.9c-5.1,20.56667 -8.48333,36.6 -10.15,48.1l1.25,4.25c1.13333,3.4 3.28333,8.13333 6.45,14.2c3.16667,6.06667 8.45,11.23333 15.85,15.5c7.36667,4.23333 17.2,6.65 29.5,7.25c12.3,0.6 22.95,-1.73333 31.95,-7c1.63333,-1.06667 2.96667,-1.9 4,-2.5c1.03333,-0.63333 2.38333,-1.51667 4.05,-2.65c1.63333,-1.13333 5.6,-4.51667 11.9,-10.15c6.3,-5.66667 10.5,-10.63333 12.6,-14.9c-0.43333,-3.2 -1.23333,-12.26667 -2.4,-27.2c-1.16667,-14.56667 -1.83333,-23.5 -2,-26.8c-0.36667,-7.26667 -1.25,-16.21667 -2.65,-26.85c-1.4,-10.63333 -3.28333,-17.6 -5.65,-20.9M582.25,548.7c3.26667,0.13333 6.26667,-0.83333 9,-2.9c-1.4,-0.33333 -5.13333,-2.08333 -11.2,-5.25l-8.6,-4.6c3.93333,8.4 7.53333,12.65 10.8,12.75M552.75,637.45c5,1.13333 9.96667,1.83333 14.9,2.1l-22.4,-12.55c0,5.86667 2.5,9.35 7.5,10.45M748.05,539.85c-0.5,0.56667 -9.45,4.36667 -26.85,11.4l3.45,1.05c2.83333,0.63333 6.13333,1.13333 9.9,1.5c3.73333,0.33333 8.23333,-4.31667 13.5,-13.95M781.35,635.05c0.76667,-2.56667 1.31667,-4.9 1.65,-7c-1.43333,1.73333 -4.53333,4.35 -9.3,7.85c-8.1,5.93333 -14.31667,10.35 -18.65,13.25c3.83333,0.6 8.7,-0.26667 14.6,-2.6c5.86667,-2.36667 9.1,-4.23333 9.7,-5.6c0.56667,-1.4 1.23333,-3.36667 2,-5.9z" fill="#000000"/><path d="M715.15,379c0.16667,3.3 0.83333,12.23333 2,26.8c1.16667,14.93333 1.96667,24 2.4,27.2c-2.1,4.26667 -6.3,9.23333 -12.6,14.9c-6.3,5.63333 -10.26667,9.01667 -11.9,10.15c-1.66667,1.13333 -3.01667,2.01667 -4.05,2.65c-1.03333,0.6 -2.36667,1.43333 -4,2.5c-9,5.26667 -19.65,7.6 -31.95,7c-12.3,-0.6 -22.13333,-3.01667 -29.5,-7.25c-7.4,-4.26667 -12.68333,-9.43333 -15.85,-15.5c-3.16667,-6.06667 -5.31667,-10.8 -6.45,-14.2l-1.25,-4.25c1.66667,-11.5 5.05,-27.53333 10.15,-48.1c0.06667,-0.3 0.13333,-0.6 0.2,-0.9c1.1,-5.03333 2.86667,-10.88333 5.3,-17.55c5.2,-14.1 11.55,-25.66667 19.05,-34.7l-2,5.55c-4.1,11.56667 -6.93333,19.85 -8.5,24.85c-1.56667,5 -1.8,9.28333 -0.7,12.85c1.1,3.53333 6.51667,7.06667 16.25,10.6l4.6,1c3.86667,0.66667 7.8,1.05 11.8,1.15c12.86667,0.26667 24.13333,-2.48333 33.8,-8.25l3.75,-54.45c1.13333,0.66667 2.68333,1.71667 4.65,3.15c1.93333,1.4 4.1,3.75 6.5,7.05c2.36667,3.3 4.25,10.26667 5.65,20.9c1.4,10.63333 2.28333,19.58333 2.65,26.85z" fill="#ffffff"/><path d="M794.31426,180.06574c2.47547,4.57686 4.59,9.27271 6.3436,14.08755c2.22088,6.09214 3.13971,10.90055 2.75648,14.4252c-0.33752,3.12174 -0.99388,6.21008 -1.96907,9.26501c-1.32592,4.00783 -2.02837,6.21407 -2.10736,6.61873c1.91877,3.50449 4.23215,8.17326 6.94015,14.00631c2.67298,5.8015 3.76926,9.21546 3.28886,10.24189c-0.8845,4.15165 -2.35036,9.95248 -4.39759,17.40251c-2.18583,7.9913 -3.49807,12.89961 -3.93672,14.72491c-2.13886,8.89004 -3.94304,15.2426 -5.41255,19.05766c-1.20645,3.10039 -4.36969,8.35576 -9.48972,15.7661c-7.34438,1.25162 -11.74018,2.08213 -13.1874,2.49153c-0.57899,2.3333 -1.56972,4.77156 -2.97217,7.31478c-1.68812,2.82517 -2.94328,4.99354 -3.76548,6.50511c-5.16083,4.07473 -16.92382,8.5946 -35.28897,13.55963c-18.43346,4.93522 -32.18262,8.17373 -41.24746,9.71552c-9.09813,1.54353 -18.58405,2.37303 -28.45774,2.48848c-9.87543,0.08217 -20.08349,-0.45245 -30.62418,-1.60386c-10.57397,-1.14967 -21.48608,-4.61809 -32.73631,-10.40526c-11.25197,-5.82046 -18.64329,-10.25724 -22.17396,-13.31035c-1.46761,-1.2584 -3.67773,-3.31244 -6.63036,-6.16211c-3.12949,-3.04069 -5.31242,-5.21297 -6.54876,-6.51684c-1.26964,-1.30213 -2.83676,-3.50659 -4.70136,-6.61338c-1.89789,-3.10505 -3.18643,-5.40752 -3.8656,-6.90739c-0.68091,-1.53316 -0.75164,-4.48336 -0.21219,-8.85062l0.97985,-6.15928l-8.81803,-9.70262c-0.65482,-1.03386 -0.1711,-3.91291 1.45115,-8.63715l2.13867,-6.01957l-12.04117,-12.93868c0.88789,-8.55765 1.95542,-14.95515 3.20259,-19.1925c1.21388,-4.23562 2.81799,-9.62646 4.81233,-16.17253c0.34203,-1.11933 0.64284,-2.06962 0.90241,-2.85086l-0.17102,0.55966l7.8438,-20.43637c1.54477,-3.65211 3.43135,-7.78937 5.65972,-12.41178c4.39191,-9.20805 8.21451,-16.21681 11.46781,-21.02628c1.14637,-1.6954 2.60646,-3.77435 4.38029,-6.23685c13.75168,-7.66115 20.93006,-12.40872 21.53514,-14.24273c0.60508,-1.834 6.87666,-6.05022 18.81474,-12.64865c11.90305,-6.62997 21.08807,-10.98175 27.55507,-13.05533c5.61372,-1.79535 11.78612,-3.11923 18.51719,-3.97165c3.58103,-0.45416 9.32916,-0.95481 17.2444,-1.50196c7.88021,-0.57869 14.86667,-0.37638 20.95937,0.60695c6.05768,0.95178 12.55144,2.26461 19.48129,3.93849c6.89656,1.67562 13.95573,4.22725 21.17749,7.65488c7.18848,3.42937 13.36855,7.36203 18.54023,11.79799c5.17168,4.43596 11.63948,11.95835 19.40341,22.56717c7.76219,10.57554 12.88189,18.16838 15.35909,22.77852M745.31459,168.85819c-6.14023,-5.08627 -16.22456,-10.91768 -30.25299,-17.49424c-14.02843,-6.57656 -27.0366,-10.23584 -39.0245,-10.97784c-12.02119,-0.74027 -21.09055,-1.20089 -27.20807,-1.38185c-6.11753,-0.18097 -14.88256,0.71098 -26.2951,2.67586c-11.41254,1.96488 -25.50467,8.85945 -42.2764,20.68371c-1.00405,0.58651 -1.85831,1.16519 -2.56278,1.73604c-1.24773,1.03315 -3.1434,3.71897 -5.687,8.05745c-2.72767,4.6485 -6.1774,12.40546 -10.34919,23.27087c-3.20205,8.34481 -5.79143,15.63959 -7.76814,21.88434c-0.91557,2.91831 -2.5485,8.07701 -4.89879,15.47612c-1.92776,6.54259 -3.1148,11.61124 -3.56112,15.20595l5.23029,-2.42617c1.85732,-0.86474 8.61595,-2.78668 20.27588,-5.76581c11.65819,-3.01241 23.95531,-4.65637 36.89136,-4.93185c1.30608,-2.47143 3.87514,-6.96144 7.70719,-13.47003c1.9318,-3.27181 3.77679,-6.28875 5.53496,-9.05083l4.62521,-0.59217c3.7492,-0.42957 7.40898,-0.6542 10.97934,-0.6739c11.37854,-0.06059 19.49082,1.88528 24.33682,5.83759c-0.24288,3.01666 -1.44755,8.38663 -3.61401,16.1099c0.21561,-0.34504 3.20432,-0.31765 8.96614,0.08217c5.76181,0.39982 17.18151,2.72357 34.2591,6.97125c17.0443,4.24942 33.50103,10.34861 49.37018,18.29758c1.79739,-4.56651 3.65526,-9.25299 5.57361,-14.05946c3.83497,-9.64623 6.10307,-15.10514 6.8043,-16.37675c0.97819,-1.71999 2.25268,-6.39268 3.82346,-14.01807c1.67783,-8.13164 2.45262,-14.06325 2.32437,-17.79482c-0.19064,-5.56407 -7.92535,-14.65575 -23.20413,-27.27504M675.448,254.61782l-5.77846,-0.39895c-9.04105,-1.1964 -14.62564,-2.35648 -16.75377,-3.48023c-1.21721,-0.93771 -2.84122,-3.27271 -4.87202,-7.00499c-0.95938,-1.75225 -1.58677,-3.53853 -1.88216,-5.35885c1.59372,-3.35427 2.34883,-5.83029 2.26533,-7.42804c-2.62371,-1.66527 -6.18936,-2.51364 -10.69696,-2.5451l-6.03629,0.41558c-3.1098,0.52967 -5.25615,1.29269 -6.43904,2.28907c-1.21618,0.99812 -2.11986,2.54733 -2.71103,4.64763c-0.62272,2.13532 -1.97449,5.00967 -4.05533,8.62304l-2.96328,4.61075l-0.26044,0.7646c-0.193,0.77777 -0.39133,1.77277 -0.595,2.985c-7.37894,-0.0483 -14.80294,0.95715 -22.27201,3.01635c-4.67276,1.27889 -8.29265,2.58621 -10.85967,3.92194c-2.1988,5.18828 -3.48107,11.94746 -3.84681,20.27756c-0.18374,4.1484 -0.16057,7.78534 0.06952,10.91079l19.69393,-2.53116c14.46596,-1.65716 25.9569,-2.44123 34.4728,-2.35222c8.48261,0.09075 18.94206,0.64561 31.37834,1.66458c12.43454,0.98569 21.10162,2.05143 26.00122,3.19724c4.86458,1.11426 8.00633,1.83458 9.42523,2.16096c1.38388,0.29483 3.98945,1.2935 7.81669,2.99601c3.52607,-3.42188 8.19981,-12.02717 14.02122,-25.81588c-2.85498,-1.61981 -8.09307,-4.13309 -15.71427,-7.53985c-7.65449,-3.40502 -17.45706,-6.0803 -29.40773,-8.02584z" fill="#000000"/><path d="M720.57,270.1835c-5.8214,13.7887 -10.49514,22.394 -14.02122,25.81588c-3.82724,-1.70251 -6.43281,-2.70118 -7.81669,-2.99601c-1.41891,-0.32638 -4.56065,-1.0467 -9.42523,-2.16096c-4.89961,-1.14581 -13.56668,-2.21155 -26.00122,-3.19724c-12.43628,-1.01897 -22.89573,-1.57383 -31.37834,-1.66458c-8.5159,-0.08901 -20.00683,0.69506 -34.4728,2.35222l-19.69393,2.53116c-0.23009,-3.12546 -0.25326,-6.76239 -0.06952,-10.91079c0.36574,-8.3301 1.64801,-15.08928 3.84681,-20.27756c2.56701,-1.33574 6.1869,-2.64305 10.85967,-3.92194c7.46907,-2.05919 14.89307,-3.06464 22.27201,-3.01635c0.20367,-1.21223 0.402,-2.20723 0.595,-2.985l0.26044,-0.7646l2.96328,-4.61075c2.08084,-3.61337 3.43261,-6.48772 4.05533,-8.62304c0.59117,-2.1003 1.49484,-3.6495 2.71103,-4.64763c1.1829,-0.99638 3.32924,-1.75941 6.43904,-2.28907l6.03629,-0.41558c4.5076,0.03146 8.07325,0.87982 10.69696,2.5451c0.0835,1.59775 -0.67161,4.07377 -2.26533,7.42804c0.29539,1.82032 0.92278,3.60661 1.88216,5.35885c2.0308,3.73228 3.65481,6.06728 4.87202,7.00499c2.12813,1.12375 7.71272,2.28383 16.75377,3.48023l5.77846,0.39895c11.95066,1.94554 21.75324,4.62082 29.40773,8.02584c7.6212,3.40676 12.85929,5.92004 15.71427,7.53985M766.19435,213.92805c-1.57078,7.62539 -2.84526,12.29808 -3.82346,14.01807c-0.70123,1.27161 -2.96933,6.73053 -6.8043,16.37675c-1.91836,4.80647 -3.77623,9.49296 -5.57361,14.05946c-15.86916,-7.94897 -32.32589,-14.04816 -49.37018,-18.29758c-17.07759,-4.24768 -28.49729,-6.57143 -34.2591,-6.97125c-5.76181,-0.39982 -8.75053,-0.42721 -8.96614,-0.08217c2.16646,-7.72327 3.37113,-13.09324 3.61401,-16.1099c-4.84601,-3.95231 -12.95828,-5.89818 -24.33682,-5.83759c-3.57036,0.01969 -7.23014,0.24433 -10.97934,0.6739l-4.62521,0.59217c-1.75817,2.76207 -3.60316,5.77902 -5.53496,9.05083c-3.83205,6.50859 -6.40112,10.99861 -7.70719,13.47003c-12.93605,0.27549 -25.23317,1.91944 -36.89136,4.93185c-11.65993,2.97913 -18.41856,4.90106 -20.27588,5.76581l-5.23029,2.42617c0.44632,-3.59471 1.63336,-8.66336 3.56112,-15.20595c2.35028,-7.3991 3.98321,-12.55781 4.89879,-15.47612c1.9767,-6.24475 4.56608,-13.53953 7.76814,-21.88434c4.17179,-10.86542 7.62152,-18.62237 10.34919,-23.27087c2.54361,-4.33848 4.43927,-7.0243 5.687,-8.05745c0.70447,-0.57085 1.55873,-1.14954 2.56278,-1.73604c16.77173,-11.82427 30.86386,-18.71884 42.2764,-20.68371c11.41254,-1.96488 20.17757,-2.85683 26.2951,-2.67586c6.11753,0.18097 15.18689,0.64159 27.20807,1.38185c11.9879,0.74201 24.99607,4.40129 39.0245,10.97784c14.02843,6.57656 24.11276,12.40797 30.25299,17.49424c15.27878,12.61929 23.01349,21.71097 23.20413,27.27504c0.12825,3.73157 -0.64654,9.66318 -2.32437,17.79482z" fill="#ffffff"/><path d="M619.4,253.85c1.07031,-0.0362 2.65365,0.0138 4.75,0.15c49.46667,1.33333 74.16667,2.25 74.1,2.75l-7.3,30.2c0.01081,0.49831 -0.23919,1.56497 -0.75,3.2c-0.47604,1.63464 -2.04271,2.9013 -4.7,3.8c-2.63034,0.89922 -13.43034,0.51589 -32.4,-1.15c-18.96927,-1.63073 -29.28594,-2.7974 -30.95,-3.5c-1.65898,-0.67448 -2.74232,-2.10781 -3.25,-4.3c-0.47669,-2.19349 -0.86003,-4.72682 -1.15,-7.6c-0.28932,-2.86654 -0.50599,-7.26654 -0.65,-13.2c-0.11693,-5.94063 -0.03359,-9.14062 0.25,-9.6c0.32279,-0.45859 1.00612,-0.70859 2.05,-0.75M645.9,266.15c2.20391,-0.73138 5.65391,-1.11471 10.35,-1.15c10.56224,-0.3957 21.29557,3.8543 32.2,12.75c0.66667,-2.7 1.4,-5.53333 2.2,-8.5c1.56667,-5.96667 2.63333,-9.63333 3.2,-11c-1.1,0.53333 -22.91667,0.78333 -65.45,0.75l-0.5,3.75c-0.23333,2.76667 -0.06667,4.85 0.5,6.25c0.6,1.43333 2.46667,2.96667 5.6,4.6c1.56667,0.8 3.06667,1.46667 4.5,2c0.14245,-1.25365 0.60911,-2.63698 1.4,-4.15c1.83203,-2.76745 3.83203,-4.53411 6,-5.3M666.15,290.9c7.83672,0.03932 12.33672,-0.36068 13.5,-1.2c0.48099,-1.06497 0.23099,-2.08164 -0.75,-3.05c-0.9793,-0.93841 -2.81263,-1.92174 -5.5,-2.95c-2.69336,-0.99323 -6.66003,-1.57656 -11.9,-1.75h-7c-3.00365,0.25508 -5.00365,1.22174 -6,2.9c-0.96224,1.67018 -0.21224,3.08685 2.25,4.25c2.46172,1.16289 7.59505,1.76289 15.4,1.8z" fill="#000000"/><path d="M654.5,281.95h7c5.23997,0.17344 9.20664,0.75677 11.9,1.75c2.68737,1.02826 4.5207,2.01159 5.5,2.95c0.98099,0.96836 1.23099,1.98503 0.75,3.05c-1.16328,0.83932 -5.66328,1.23932 -13.5,1.2c-7.80495,-0.03711 -12.93828,-0.63711 -15.4,-1.8c-2.46224,-1.16315 -3.21224,-2.57982 -2.25,-4.25c0.99635,-1.67826 2.99635,-2.64492 6,-2.9z" fill="#f3769b"/><path d="M638.5,275.6c-1.43333,-0.53333 -2.93333,-1.2 -4.5,-2c-3.13333,-1.63333 -5,-3.16667 -5.6,-4.6c-0.56667,-1.4 -0.73333,-3.48333 -0.5,-6.25l0.5,-3.75c42.53333,0.03333 64.35,-0.21667 65.45,-0.75c-0.56667,1.36667 -1.63333,5.03333 -3.2,11c-0.8,2.96667 -1.53333,5.8 -2.2,8.5c-10.90443,-8.8957 -21.63776,-13.1457 -32.2,-12.75c-4.69609,0.03529 -8.14609,0.41862 -10.35,1.15c-2.16797,0.76589 -4.16797,2.53255 -6,5.3c-0.79089,1.51302 -1.25755,2.89635 -1.4,4.15z" fill="#ffffff"/><path d="M537.92925,329.29914c1.2637,0.92222 2.26814,1.93727 3.01331,3.04516c2.3885,3.47667 4.59141,7.03448 6.60872,10.67344c4.98377,8.97389 7.44993,19.19661 7.39847,30.66815c-0.36273,1.00298 -0.73112,2.02163 -1.10519,3.05595c-0.03401,0.09403 -0.06234,0.17239 -0.08501,0.23507c-4.40906,3.35851 -9.03061,6.24847 -13.86466,8.66989c-0.07367,0.01169 -0.14168,0.0077 -0.20401,-0.01195c-0.60948,6.96585 -2.44587,14.1559 -5.50918,21.57013c-1.20152,2.93828 -2.94845,4.93641 -5.2408,5.99438c-4.95588,2.27825 -10.85099,2.49702 -17.68532,0.65633c-2.41412,-0.62153 -4.32669,-1.57376 -5.73772,-2.85669c-2.98944,2.40945 -6.25796,4.29443 -9.80555,5.65496c-0.0425,0.02152 -0.07509,0.06362 -0.09776,0.1263c-2.2387,5.99822 -4.81599,11.5405 -7.73187,16.62685c-1.10231,1.99188 -2.59137,3.37298 -4.46718,4.14328c-6.16863,2.55928 -13.21133,3.35897 -21.12809,2.39908c-3.10267,-0.3498 -6.24925,-0.8182 -9.43975,-1.40519c-7.08936,-1.32751 -13.65166,-3.53635 -19.6869,-6.62652c-4.74318,-2.43835 -8.66322,-5.28057 -11.7601,-8.52668c-2.75971,-2.93029 -4.12957,-6.48731 -4.10957,-10.67107c0.0142,-0.90337 0.08223,-1.47551 0.20408,-1.71643c0.06234,0.01966 0.13034,0.02364 0.20401,0.01195c2.20732,-0.63086 4.43448,-1.22055 6.68146,-1.76907c-0.03401,0.09403 -0.07793,0.16747 -0.13177,0.22033c-0.80477,1.45719 -1.22135,2.89711 -1.24975,4.31976c2.70574,6.43991 8.51564,11.25726 17.4297,14.45206c10.5943,3.82935 20.2678,5.69234 29.02049,5.58895c0.86988,-0.00505 1.63351,0.04368 2.29088,0.14621c3.40018,0.58328 6.11044,-0.04613 8.1308,-1.88821c2.13653,-1.87528 4.05632,-4.25537 5.75937,-7.14027c1.79089,-3.03178 2.93008,-6.18176 3.41758,-9.44994c-1.96362,0.14903 -3.84508,0.55092 -5.64438,1.20568c-2.83637,1.0261 -5.81439,1.0997 -8.93403,0.22079c4.04911,-0.92305 8.01889,-2.01079 11.90933,-3.26321c2.28383,-0.7464 4.48266,-1.64182 6.5965,-2.68625c1.94382,-0.95837 3.88197,-1.90106 5.81445,-2.82808c5.22508,-2.54254 8.23303,-7.54748 9.02388,-15.01482c-0.0935,-0.02948 -0.17142,-0.05405 -0.23376,-0.07371c-2.86179,-1.11186 -5.34815,-2.15772 -7.45906,-3.13757c0.06234,0.01966 0.14026,0.04422 0.23376,0.07371c5.16829,0.30277 9.99943,-0.09436 14.4934,-1.1914c0.02267,-0.06269 0.06093,-0.12046 0.11476,-0.17332c4.42044,-4.54211 8.1864,-10.44285 11.29787,-17.70223c0.02267,-0.06269 0.05101,-0.14104 0.08501,-0.23507c0.27205,-0.75223 0.75376,-1.1241 1.44513,-1.11561c-0.03401,0.09403 -0.06234,0.17239 -0.08501,0.23507c0.46741,2.83601 0.21652,6.07403 -0.75268,9.71408c-0.57529,2.26281 -1.33758,4.27461 -2.28687,6.0354c-1.33468,2.44237 -2.22731,4.62258 -2.67792,6.54061c-0.03401,0.09403 -0.07793,0.16747 -0.13177,0.22033c-1.46499,1.84261 -3.41164,2.71279 -5.83995,2.61054c-0.03401,0.09403 -0.07226,0.1518 -0.11476,0.17332c-0.68005,0.34425 -1.33603,0.76592 -1.96792,1.26502c-0.03401,0.09403 -0.06234,0.17239 -0.08501,0.23507c-0.74533,3.11704 -1.68759,5.96249 -2.82676,8.53634c-0.03401,0.09403 -0.04109,0.16163 -0.02126,0.2028c0.70832,1.30578 1.75667,2.43943 3.14505,3.40096c1.77944,0.07224 3.58154,0.08179 5.40632,0.02865c5.28448,-0.11452 9.07441,-3.24924 11.36979,-9.40417c0.71128,-1.87076 1.05846,-3.64682 1.04152,-5.32818c-0.02249,-4.54633 1.21452,-9.16691 3.71102,-13.86173c0.97192,-0.67122 2.009,-1.23461 3.11125,-1.69015c3.05173,-1.23754 6.07371,-2.53683 9.06594,-3.89788c0.02267,-0.06269 0.05101,-0.14104 0.08501,-0.23507c0.21821,-0.69938 0.47325,-1.40459 0.76513,-2.11566c-0.74477,-11.09409 -3.68413,-21.06446 -8.81808,-29.91112c-1.84165,-3.16457 -3.59829,-6.37217 -5.26993,-9.6228c1.02861,-1.21202 2.09546,-2.28978 3.20057,-3.23326c0.0425,-0.02152 0.08076,-0.07929 0.11476,-0.17332z" fill-opacity="0.99608" fill="#2b2c3f"/><path d="M453.62775,273.64929c0.02267,-0.06269 0.06659,-0.13613 0.13177,-0.22033c0.66307,-0.87336 1.17173,-1.84778 1.52596,-2.92328c2.17339,-2.45725 4.23062,-5.07335 6.17168,-7.84828c3.40323,-4.89777 7.34053,-8.63199 11.81189,-11.20268c9.29126,-5.24099 19.9864,-7.5951 32.08542,-7.06236c2.10527,0.4194 4.2658,0.92605 6.48157,1.51996c7.03267,1.86831 12.69957,4.44079 17.00069,7.71743c9.04426,6.86724 14.9376,15.3423 17.68003,25.42516c2.75376,10.05152 2.44162,21.66783 -0.93644,34.84891c-2.27553,5.81202 -4.87264,10.92905 -7.79132,15.35108l0.14026,0.04422c-0.03401,0.09403 -0.07226,0.1518 -0.11476,0.17332c-1.1051,0.94349 -2.17196,2.02124 -3.20057,3.23326c1.67164,3.25063 3.42828,6.45823 5.26993,9.6228c5.13395,8.84666 8.07331,18.81703 8.81808,29.91112c-0.29188,0.71106 -0.54692,1.41628 -0.76513,2.11566c-0.03401,0.09403 -0.06234,0.17239 -0.08501,0.23507c-2.99223,1.36105 -6.01421,2.66034 -9.06594,3.89788c-1.10225,0.45554 -2.13933,1.01893 -3.11125,1.69015c-2.4965,4.69483 -3.73351,9.3154 -3.71102,13.86173c0.01693,1.68137 -0.33024,3.45743 -1.04152,5.32818c-2.29538,6.15493 -6.08531,9.28966 -11.36979,9.40417c-1.82478,0.05314 -3.62688,0.04359 -5.40632,-0.02865c-1.38838,-0.96153 -2.43673,-2.09518 -3.14505,-3.40096c-0.01983,-0.04117 -0.01275,-0.10877 0.02126,-0.2028c1.13917,-2.57385 2.08142,-5.4193 2.82676,-8.53634c0.02267,-0.06269 0.05101,-0.14104 0.08501,-0.23507c0.63189,-0.4991 1.28786,-0.92078 1.96792,-1.26502c0.0425,-0.02152 0.08076,-0.07929 0.11476,-0.17332c2.42831,0.10225 4.37495,-0.76793 5.83995,-2.61054c0.05384,-0.05286 0.09776,-0.1263 0.13177,-0.22033c0.4506,-1.91804 1.34324,-4.09824 2.67792,-6.54061c0.94929,-1.76079 1.71158,-3.77259 2.28687,-6.0354c0.9692,-3.64004 1.2201,-6.87807 0.75268,-9.71408c0.02267,-0.06269 0.05101,-0.14104 0.08501,-0.23507c-0.69137,-0.0085 -1.17308,0.36337 -1.44513,1.11561c-0.03401,0.09403 -0.06234,0.17239 -0.08501,0.23507c-3.11147,7.25938 -6.87743,13.16012 -11.29787,17.70223c-0.05384,0.05286 -0.09209,0.11063 -0.11476,0.17332c-4.49397,1.09704 -9.32511,1.49417 -14.4934,1.1914c-0.0935,-0.02948 -0.17142,-0.05405 -0.23376,-0.07371c2.11092,0.97985 4.59727,2.02571 7.45906,3.13757c0.06234,0.01966 0.14026,0.04422 0.23376,0.07371c-0.79084,7.46734 -3.7988,12.47228 -9.02388,15.01482c-1.93248,0.92702 -3.87064,1.86972 -5.81445,2.82808c-2.11383,1.04443 -4.31266,1.93984 -6.5965,2.68625c-3.89045,1.25242 -7.86022,2.34015 -11.90933,3.26321c3.11965,0.87891 6.09766,0.80531 8.93403,-0.22079c1.7993,-0.65476 3.68076,-1.05666 5.64438,-1.20568c-0.48749,3.26818 -1.62668,6.41815 -3.41758,9.44994c-1.70305,2.8849 -3.62284,5.26498 -5.75937,7.14027c-2.02036,1.84208 -4.73063,2.47148 -8.1308,1.88821c-0.65737,-0.10252 -1.42099,-0.15126 -2.29088,-0.14621c-8.75269,0.10339 -18.42618,-1.7596 -29.02049,-5.58895c-8.91406,-3.1948 -14.72397,-8.01215 -17.4297,-14.45206c0.02839,-1.42265 0.44497,-2.86258 1.24975,-4.31976c0.05384,-0.05286 0.09776,-0.1263 0.13177,-0.22033c-2.24699,0.54852 -4.47414,1.13821 -6.68146,1.76907c-0.07367,0.01169 -0.14168,0.0077 -0.20401,-0.01195c0.02267,-0.06269 0.05101,-0.14104 0.08501,-0.23507c1.4283,-5.48557 3.48989,-10.94604 6.18476,-16.38141c-1.81326,-4.58722 -3.13206,-9.43754 -3.9564,-14.55096c-0.01983,-0.04117 -0.06092,-0.07158 -0.12325,-0.09124c3.28998,-7.27293 6.98654,-13.70185 11.08967,-19.28678c0.05384,-0.05286 0.09776,-0.1263 0.13177,-0.22033c-0.70227,-11.1156 -1.65389,-22.11779 -2.85486,-33.00655c-0.3144,-3.0671 -0.055,-6.42465 0.7782,-10.07266c0.08218,-0.32326 0.17995,-0.6416 0.29331,-0.95503c6.62212,-5.73342 14.06305,-9.79452 22.3228,-12.18328c0.03117,0.00983 0.06376,-0.03227 0.09776,-0.1263c-0.96873,-8.26658 -0.59293,-17.22656 1.12738,-26.87995c0.02267,-0.06269 0.05101,-0.14104 0.08501,-0.23507c-0.26631,-0.99182 -0.01976,-1.96159 0.73966,-2.90933c0.05384,-0.05286 0.09776,-0.1263 0.13177,-0.22033M459.87556,275.09554c-0.03401,0.09403 -0.06234,0.17239 -0.08501,0.23507c0.14156,2.87293 0.57498,5.61092 1.30025,8.21398c-0.01134,0.03134 0.02975,0.06176 0.12325,0.09124c-0.13605,1.14429 -0.09643,2.18684 0.11888,3.12766c0.34563,1.54059 0.87265,1.81151 1.58106,0.81278c0.02267,-0.06269 0.05101,-0.14104 0.08501,-0.23507c3.36356,-4.98011 6.8702,-9.63576 10.51992,-13.96696c-1.60077,-3.92663 -2.51582,-8.21318 -2.74515,-12.85964c-0.01983,-0.04117 -0.06092,-0.07158 -0.12325,-0.09124c-4.56488,2.92529 -8.15654,7.81602 -10.77497,14.67218M493.82752,250.9187c-0.07367,0.01169 -0.14168,0.0077 -0.20401,-0.01195c0.46743,2.45192 0.95611,4.89309 1.46605,7.32349c0.0085,0.07251 0.00141,0.14011 -0.02126,0.2028c4.70367,-1.48484 9.651,-2.4913 14.84199,-3.01939c0.03117,0.00983 0.06376,-0.03227 0.09776,-0.1263c-3.56163,-1.96104 -7.84015,-3.57199 -12.83556,-4.83284c-0.0935,-0.02948 -0.17142,-0.05405 -0.23376,-0.07371c-1.06257,0.1538 -2.09964,0.3331 -3.1112,0.5379M489.64525,251.53789c-0.01983,-0.04117 -0.06092,-0.07158 -0.12325,-0.09124c-5.25334,0.89251 -10.06045,2.71137 -14.42132,5.45657c-0.05384,0.05286 -0.09209,0.11063 -0.11476,0.17332c0.03398,0.67414 -0.03406,1.43833 -0.2041,2.29256l0.14026,0.04422c-0.03401,0.09403 -0.06234,0.17239 -0.08501,0.23507c-0.03401,0.09403 -0.04676,0.1773 -0.03826,0.24981c-0.34302,4.11683 0.11586,7.84053 1.37664,11.17111c0.02267,-0.06269 0.06093,-0.12046 0.11476,-0.17332c4.55927,-4.25391 9.46562,-7.78734 14.71904,-10.60028c-1.08229,-2.57596 -1.53696,-5.49524 -1.36398,-8.75784M512.71555,252.84138c-0.0425,0.02152 0.04816,0.15486 0.272,0.40002c0.70834,0.92169 1.50737,1.20855 2.39711,0.86059c-0.42497,-1.32118 -1.31467,-1.74139 -2.66911,-1.26061M505.71511,259.95696c-0.03401,0.09403 -0.06659,0.13613 -0.09776,0.1263c-3.11121,0.72994 -6.11759,1.65006 -9.01914,2.76037c-0.03401,0.09403 -0.04109,0.16163 -0.02126,0.2028c1.24662,3.0817 2.98202,5.91597 5.20622,8.50282c0.06234,0.01966 1.23545,-1.11189 3.51934,-3.39463c2.29523,-2.31409 4.17958,-4.16413 5.65305,-5.55014l1.24112,-1.12756c-0.90388,-0.285 -1.85592,-0.53282 -2.85614,-0.74345l-0.03401,0.09403c-0.0935,-0.02948 -0.17142,-0.05405 -0.23376,-0.07371c-1.13622,-0.2186 -2.25545,-0.48421 -3.35767,-0.79683M492.59867,264.25369c-0.01983,-0.04117 -0.06092,-0.07158 -0.12325,-0.09124c-5.37524,2.28569 -10.22491,5.6624 -14.54901,10.13013c-0.05384,0.05286 -0.09209,0.11063 -0.11476,0.17332c1.43064,7.08537 4.99211,13.07929 10.68441,17.98178c0.051,0.051 0.12325,0.09124 0.21676,0.12072c3.32676,-5.93447 6.74703,-11.83947 10.26081,-17.71497c0.05384,-0.05286 0.09776,-0.1263 0.13177,-0.22033c-2.83904,-3.09497 -5.00795,-6.55477 -6.50672,-10.3794M503.24924,278.29661c-2.14222,2.46708 -4.07903,5.27827 -5.81043,8.43356c-1.7654,3.24933 -3.55488,6.42122 -5.36844,9.51569c4.64109,4.64086 11.16083,8.21551 19.55923,10.72395c1.21556,0.38328 2.43395,0.6627 3.65518,0.83827c1.38841,0.19336 2.26399,-0.59553 2.62675,-2.36668c1.86473,-7.2684 2.8794,-14.1065 3.04399,-20.51428c-0.0085,-0.07251 0.00426,-0.15579 0.03826,-0.24981c-6.78903,-0.81381 -12.63163,-2.90047 -17.52778,-6.25998c-0.08217,-0.06083 -0.15442,-0.10107 -0.21676,-0.12072M505.44251,274.53624c-0.06517,0.0842 -0.1091,0.15765 -0.13177,0.22033c1.84455,1.52437 4.09005,2.75616 6.7365,3.69537c2.92696,1.02766 5.65277,1.55542 8.17742,1.5833c0.07367,-0.01169 0.13885,-0.09589 0.19552,-0.2526c-0.89799,-5.8699 -2.42786,-11.43274 -4.58961,-16.68852c-0.01983,-0.04117 -0.01275,-0.10877 0.02126,-0.2028c-3.62986,3.6042 -7.09963,7.48585 -10.40933,11.64493M474.91706,278.58129c-0.01983,-0.04117 -0.06092,-0.07158 -0.12325,-0.09124c-3.22748,3.06765 -6.0328,6.98422 -8.41596,11.7497c-0.03401,0.09403 -0.06234,0.17239 -0.08501,0.23507l-0.14026,-0.04422c-0.68294,1.60036 -1.40837,3.03019 -2.1763,4.28949c3.18736,8.37254 7.80849,16.04491 13.8634,23.01709c0.87268,1.04334 1.64196,1.26845 2.30786,0.67532c0.28913,-2.91171 0.68877,-5.84096 1.19892,-8.78774l0.14026,0.04422l0.0935,0.02948c1.04853,-3.47536 2.3705,-6.98672 3.9659,-10.53406l0.0935,0.02948c0.32871,-0.52486 0.57383,-1.05863 0.73536,-1.60129c-0.255,-0.25499 -0.51568,-0.49431 -0.78202,-0.71796c-0.08217,-0.06083 -0.15442,-0.10107 -0.21676,-0.12072c0.02267,-0.06269 0.05101,-0.14104 0.08501,-0.23507c-5.1511,-5.15084 -8.66582,-11.13003 -10.54416,-17.93755M458.3659,295.83174c0.2862,-0.50335 0.61207,-0.92436 0.97761,-1.26302c-0.76498,-1.53315 -1.33304,-3.17878 -1.70415,-4.93691c-0.01983,-0.04117 -0.06092,-0.07158 -0.12325,-0.09124c-0.24663,2.8902 -0.02429,5.10771 0.66702,6.65255l0.18278,-0.36138M461.91465,301.14076c-0.79341,0.65768 -1.24256,1.75561 -1.34746,3.29381c-0.14173,1.352 -0.35854,2.57557 -0.65043,3.67072c2.14738,10.38408 8.05489,18.91598 17.72253,25.59569c0.64886,0.4141 1.30056,0.53229 1.9551,0.35459c0.08501,-0.04303 0.15585,-0.1429 0.21252,-0.29962c-0.49576,-2.56561 -0.61466,-5.30918 -0.35669,-8.23072c-0.0085,-0.07251 0.00426,-0.15579 0.03826,-0.24981c-3.5984,-3.68357 -6.98428,-7.47473 -10.15765,-11.37346c-3.17337,-3.89873 -5.64543,-8.15246 -7.41618,-12.7612M490.56981,301.6912c-0.06234,-0.01966 -0.13601,-0.00797 -0.22101,0.03506c-1.06261,1.30605 -1.84473,3.08464 -2.34635,5.33576c-0.46194,1.94938 -0.82753,3.82438 -1.09679,5.62501c-0.03401,0.09403 -0.06234,0.17239 -0.08501,0.23507c-1.06271,3.61056 -1.67913,6.99521 -1.84926,10.15395c1.81904,1.69092 3.83644,3.02537 6.0522,4.00336c4.82537,2.11509 9.83494,3.43279 15.02873,3.9531c0.02267,-0.06269 0.06659,-0.13613 0.13177,-0.22033c3.02067,-3.93596 5.72543,-8.58258 8.11428,-13.93986c0.01988,-1.11108 0.29477,-2.15922 0.82467,-3.1444c0.05384,-0.05286 0.09776,-0.1263 0.13177,-0.22033c0.02267,-0.06269 0.05101,-0.14104 0.08501,-0.23507c0.26353,-0.44066 0.51148,-0.88624 0.74385,-1.33673c-6.13453,0.16074 -11.91481,-1.52218 -17.34082,-5.04876c-2.63509,-1.73872 -5.35943,-3.47067 -8.17302,-5.19584M482.544,335.40463c-0.00284,0.10386 -0.01559,0.18713 -0.03826,0.24981c5.40623,2.33316 10.63682,3.42375 15.69179,3.27178c0.03117,0.00983 0.06376,-0.03227 0.09776,-0.1263c1.46212,-0.97058 2.76417,-2.2186 3.90613,-3.74405c0.05384,-0.05286 0.09776,-0.1263 0.13177,-0.22033c-7.15172,-0.96308 -13.24932,-3.30474 -18.2928,-7.02496c-0.08217,-0.06083 -0.15442,-0.10107 -0.21676,-0.12072c-0.74532,2.73296 -1.17186,5.30455 -1.27963,7.71477M453.60484,315.33322c-0.051,-0.051 -0.10767,-0.08633 -0.17001,-0.10598c-0.61512,6.4054 0.32679,12.00981 2.82575,16.81324c0.01983,0.04117 0.0765,0.0765 0.17001,0.10598c-0.03401,0.09403 -0.04676,0.1773 -0.03826,0.24981c0.05382,0.33123 0.18699,0.63509 0.39949,0.9116c-0.03401,0.09403 -0.03542,0.14596 -0.00426,0.15579c0.98884,1.39423 1.9465,2.77862 2.873,4.15319c-0.03401,0.09403 -0.03542,0.14596 -0.00426,0.15579c1.19284,1.59822 2.32759,3.21304 3.40426,4.84446c0.06234,0.01966 0.119,0.05498 0.17001,0.10598c2.69732,4.44697 7.47163,7.85536 14.32294,10.22516c1.77374,0.66403 3.37749,1.03005 4.81124,1.09803c1.60092,0.08578 3.13243,0.21951 4.5945,0.40119c8.6478,1.05073 15.96821,-0.51687 21.96123,-4.7028c-1.04551,-1.23751 -2.45517,-1.42011 -4.22898,-0.54781c-0.37119,0.1623 -0.76789,0.29909 -1.19009,0.41039c-1.19292,0.3222 -2.40425,0.55131 -3.63399,0.68731c-4.57325,-0.60399 -9.1734,-1.37358 -13.80047,-2.3088c-1.84459,-0.37212 -3.65518,-0.83827 -5.43176,-1.39845c-4.5137,-1.63273 -8.11925,-3.71236 -10.81664,-6.23891c-0.051,-0.051 -0.10767,-0.08633 -0.17001,-0.10598c-0.66301,-0.66298 -1.41245,-1.231 -2.24831,-1.70406c-0.08217,-0.06083 -0.15442,-0.10107 -0.21676,-0.12072c0.02267,-0.06269 0.05101,-0.14104 0.08501,-0.23507c-0.3655,-0.4295 -0.72109,-0.83842 -1.06676,-1.22675c-0.03117,-0.00983 -0.02975,-0.06176 0.00426,-0.15579c0.02267,-0.06269 0.05101,-0.14104 0.08501,-0.23507c-1.37986,-1.2731 -2.54154,-2.66945 -3.48504,-4.18905c-0.051,-0.051 -0.10767,-0.08633 -0.17001,-0.10598c0.02267,-0.06269 0.05101,-0.14104 0.08501,-0.23507c-0.96617,-1.45691 -1.83741,-2.93627 -2.61373,-4.43807c-0.051,-0.051 -0.10767,-0.08633 -0.17001,-0.10598c0.02267,-0.06269 0.05101,-0.14104 0.08501,-0.23507c-2.27231,-3.89395 -4.41145,-7.86813 -6.4174,-11.92252M521.82795,256.44789c-0.08217,-0.06083 -0.15442,-0.10107 -0.21676,-0.12072c-1.19569,-1.11028 -2.39,-1.50431 -3.58291,-1.18211c-0.07367,0.01169 -0.07651,0.11554 -0.00851,0.31157c-0.00005,1.15225 0.65448,1.55068 1.96357,1.19527c0.0425,-0.02152 0.11051,-0.01753 0.20401,0.01195c0.06234,0.01966 0.14026,0.04422 0.23376,0.07371c1.53574,0.55407 3.04456,0.94253 4.52647,1.16537c-1.20422,-0.41462 -2.2441,-0.89964 -3.11963,-1.45504M521.52174,261.32704c-0.24651,-0.18248 -0.52135,-0.2866 -0.82454,-0.31236c0.99715,6.07575 1.9532,12.50518 2.86815,19.28828c0.0085,0.07251 0.00141,0.14011 -0.02126,0.2028c3.68635,0.8481 7.06957,0.32613 10.14966,-1.56589c0.0425,-0.02152 0.08076,-0.07929 0.11476,-0.17332c-1.79899,-7.02693 -5.89459,-12.8401 -12.28678,-17.43951M530.51518,263.53427c0.01983,0.04117 0.04533,0.06667 0.0765,0.0765c0.18133,0.26668 0.53266,0.83138 1.05399,1.69411c0.07083,0.09217 0.15158,0.20492 0.24225,0.33826c1.03416,1.65294 2.09381,3.71546 3.17894,6.18756c1.16446,2.63679 1.78778,3.9856 1.86995,4.04642c0.53268,0.4473 0.94214,0.03519 1.22837,-1.23633c0.02267,-0.06269 0.05101,-0.14104 0.08501,-0.23507c-1.86429,-3.87005 -3.74561,-6.92492 -5.64397,-9.1646c-0.85284,-1.00217 -1.43652,-1.69251 -1.75102,-2.07102c-0.102,-0.102 -0.21959,-0.20891 -0.35276,-0.32073c-1.06252,-0.99845 -1.05828,-0.77015 0.01272,0.6849M539.60581,280.01837c-0.01983,-0.04117 -0.10342,-0.05007 -0.25076,-0.02669c-0.75656,0.45979 -1.18586,1.02277 -1.28789,1.68895l0.14026,0.04422c-0.03401,0.09403 -0.04109,0.16163 -0.02126,0.2028c0.05666,0.22737 0.13457,0.44398 0.23374,0.64983c-0.03401,0.09403 -0.06234,0.17239 -0.08501,0.23507c-0.03401,0.09403 -0.04109,0.16163 -0.02126,0.2028c1.1615,5.81332 1.91923,11.83104 2.27317,18.05315c0.02267,-0.06269 0.06659,-0.13613 0.13177,-0.22033c0.72541,-0.8537 1.31908,-2.0632 1.781,-3.6285c-0.04224,-6.50792 -1.00682,-12.24169 -2.89374,-17.20131M534.84542,282.81218c-0.01983,-0.04117 -0.06092,-0.07158 -0.12325,-0.09124c-3.28974,1.12757 -6.8628,1.69443 -10.7192,1.70056c-0.0425,0.02152 -0.07509,0.06362 -0.09776,0.1263c0.48144,6.54165 -0.50776,14.17341 -2.96758,22.89529l0.14026,0.04422c2.17612,0.12748 4.18367,-0.09499 6.02263,-0.66741c0.0425,-0.02152 0.11051,-0.01753 0.20401,0.01195c0.06234,0.01966 0.13034,0.02364 0.20401,0.01195c3.39455,-0.36126 6.52135,-1.27833 9.38041,-2.75121c-0.01401,-4.08973 -0.04359,-8.18437 -0.08877,-12.28393c-0.01983,-0.04117 -0.06092,-0.07158 -0.12325,-0.09124c0.02267,-0.06269 0.05101,-0.14104 0.08501,-0.23507c0.02267,-0.06269 0.05101,-0.14104 0.08501,-0.23507c-0.60342,-2.84397 -1.2706,-5.65568 -2.00153,-8.43511M529.9474,326.31099c0.0425,-0.02152 0.11051,-0.01753 0.20401,0.01195c1.37436,-2.74412 2.68497,-5.648 3.93183,-8.71165c0.02267,-0.06269 0.05101,-0.14104 0.08501,-0.23507c0.80767,-3.09738 1.46658,-6.11947 1.97673,-9.06624c0.02267,-0.06269 0.05101,-0.14104 0.08501,-0.23507c-4.83121,2.31756 -10.15399,3.6421 -15.96835,3.97363c-0.0425,0.02152 -0.07509,0.06362 -0.09776,0.1263c-2.09705,6.56664 -4.90954,12.66327 -8.43747,18.28989c-0.03401,0.09403 -0.06234,0.17239 -0.08501,0.23507c6.9194,0.26132 13.0214,-1.20161 18.306,-4.38881M525.54755,347.55002c0.03117,0.00983 0.06376,-0.03227 0.09776,-0.1263c-1.00022,-0.21063 -1.24105,-0.60082 -0.7225,-1.17058c0.24936,-0.30546 0.3528,-0.63948 0.31031,-1.00205c-0.1983,-1.17988 -0.6417,-2.21008 -1.33021,-3.0906c-1.92396,0.23137 -3.74025,0.7411 -5.44888,1.5292c-0.0425,0.02152 -0.07509,0.06362 -0.09776,0.1263c1.56968,1.99638 3.96677,3.24105 7.19128,3.73402M508.85304,335.52956c-0.10484,0.00186 -0.18843,-0.00704 -0.25076,-0.02669c-1.01444,1.07682 -1.9977,2.16348 -2.9498,3.25996c-0.06517,0.0842 -0.1091,0.15765 -0.13177,0.22033c6.19971,-0.24494 11.78602,-1.81811 16.75892,-4.71949c0.0425,-0.02152 0.08076,-0.07929 0.11476,-0.17332c-4.29279,1.0208 -8.80658,1.50054 -13.54135,1.43921M496.43168,389.17399c0.03117,0.00983 0.06376,-0.03227 0.09776,-0.1263c-1.17304,-0.78888 -2.10383,-1.04745 -2.79238,-0.77572c-0.0425,0.02152 -0.07509,0.06362 -0.09776,0.1263c1.13905,0.49882 2.06984,0.7574 2.79238,0.77572M457.18533,377.58478l0.05101,-0.14104c-6.616,-5.61274 -12.23317,-11.7311 -16.85151,-18.35506c-0.051,-0.051 -0.10767,-0.08633 -0.17001,-0.10598c-0.18423,1.37352 -0.02844,2.57491 0.46738,3.60418c0.0085,0.07251 0.00141,0.14011 -0.02126,0.2028c-1.98345,0.10785 -3.39598,0.79728 -4.23758,2.06827c-0.03117,-0.00983 -0.07792,-0.02457 -0.14026,-0.04422c1.66601,2.30609 3.96956,4.28945 6.91067,5.95008c3.19895,1.81176 6.20099,3.15989 9.00612,4.04438c-0.00285,0.48794 0.31307,0.81452 0.94777,0.97973l-0.03401,0.09403c1.4734,0.53441 2.83062,1.10203 4.07167,1.70285z" fill="#000000"/><path d="M457.23634,377.44374l-0.05101,0.14104c-1.24105,-0.60082 -2.59827,-1.16844 -4.07167,-1.70285l0.03401,-0.09403c-0.6347,-0.16521 -0.95062,-0.49179 -0.94777,-0.97973c-2.80513,-0.88449 -5.80717,-2.23262 -9.00612,-4.04438c-2.94111,-1.66063 -5.24466,-3.64399 -6.91067,-5.95008c0.06234,0.01966 0.10909,0.0344 0.14026,0.04422c0.8416,-1.27099 2.25413,-1.96041 4.23758,-2.06827c0.02267,-0.06269 0.02976,-0.13029 0.02126,-0.2028c-0.49582,-1.02927 -0.65162,-2.23066 -0.46738,-3.60418c0.06234,0.01966 0.119,0.05498 0.17001,0.10598c4.61834,6.62397 10.23551,12.74232 16.85151,18.35506z" fill="#2c2d40"/><path d="M496.52944,389.04769c-0.03401,0.09403 -0.06659,0.13613 -0.09776,0.1263c-0.72254,-0.01832 -1.65334,-0.2769 -2.79238,-0.77572c0.02267,-0.06269 0.05526,-0.10479 0.09776,-0.1263c0.68855,-0.27173 1.61935,-0.01316 2.79238,0.77572z" fill="#353849"/><path d="M508.60228,335.50287c0.06234,0.01966 0.14592,0.02855 0.25076,0.02669c4.73478,0.06133 9.24856,-0.41841 13.54135,-1.43921c-0.03401,0.09403 -0.07226,0.1518 -0.11476,0.17332c-4.97291,2.90139 -10.55922,4.47455 -16.75892,4.71949c0.02267,-0.06269 0.06659,-0.13613 0.13177,-0.22033c0.9521,-1.09648 1.93537,-2.18313 2.9498,-3.25996M530.15141,326.32294c-0.0935,-0.02948 -0.16151,-0.03347 -0.20401,-0.01195c-5.2846,3.18719 -11.38661,4.65013 -18.306,4.38881c0.02267,-0.06269 0.05101,-0.14104 0.08501,-0.23507c3.52793,-5.62662 6.34042,-11.72326 8.43747,-18.28989c0.02267,-0.06269 0.05526,-0.10479 0.09776,-0.1263c5.81436,-0.33153 11.13714,-1.65608 15.96835,-3.97363c-0.03401,0.09403 -0.06234,0.17239 -0.08501,0.23507c-0.51015,2.94678 -1.16906,5.96886 -1.97673,9.06624c-0.03401,0.09403 -0.06234,0.17239 -0.08501,0.23507c-1.24686,3.06365 -2.55747,5.96754 -3.93183,8.71165M536.67692,291.71743c0.06234,0.01966 0.10342,0.05007 0.12325,0.09124c0.04517,4.09956 0.07476,8.1942 0.08877,12.28393c-2.85906,1.47287 -5.98586,2.38994 -9.38041,2.75121c-0.07367,0.01169 -0.14168,0.0077 -0.20401,-0.01195c0.02267,-0.06269 0.06659,-0.13613 0.13177,-0.22033c3.4457,-4.15111 6.52591,-9.11581 9.24064,-14.8941M539.35504,279.99168c0.14734,-0.02338 0.23093,-0.01448 0.25076,0.02669c1.88691,4.95962 2.85149,10.69339 2.89374,17.20131c-0.46192,1.56529 -1.05559,2.77479 -1.781,3.6285c-0.06517,0.0842 -0.1091,0.15765 -0.13177,0.22033c-0.35394,-6.22211 -1.11166,-12.23983 -2.27317,-18.05315c-0.01983,-0.04117 -0.01275,-0.10877 0.02126,-0.2028c0.06234,0.01966 0.14026,0.04422 0.23376,0.07371c0.32302,0.06693 0.56387,-0.119 0.72256,-0.5578c0.00288,-1.25611 -0.31446,-1.53076 -0.95202,-0.82394c-0.06517,0.0842 -0.1091,0.15765 -0.13177,0.22033l-0.14026,-0.04422c0.10203,-0.66617 0.53133,-1.22915 1.28789,-1.68895M482.50574,335.65445c0.02267,-0.06269 0.03542,-0.14596 0.03826,-0.24981c0.10777,-2.41022 0.53431,-4.98181 1.27963,-7.71477c0.06234,0.01966 0.13459,0.0599 0.21676,0.12072c5.04348,3.72022 11.14108,6.06187 18.2928,7.02496c-0.03401,0.09403 -0.07793,0.16747 -0.13177,0.22033c-1.14196,1.52546 -2.444,2.77347 -3.90613,3.74405c-0.03401,0.09403 -0.06659,0.13613 -0.09776,0.1263c-5.05497,0.15197 -10.28557,-0.93863 -15.69179,-3.27178M486.90566,312.68704c0.06234,0.01966 0.14026,0.04422 0.23376,0.07371c10.80115,3.92949 20.17294,4.17844 28.11538,0.74686c-0.03401,0.09403 -0.07793,0.16747 -0.13177,0.22033c-0.5299,0.98518 -0.80479,2.03332 -0.82467,3.1444c-2.38885,5.35728 -5.09361,10.0039 -8.11428,13.93986c-0.06517,0.0842 -0.1091,0.15765 -0.13177,0.22033c-5.19379,-0.52031 -10.20336,-1.83801 -15.02873,-3.9531c-2.21576,-0.97799 -4.23316,-2.31245 -6.0522,-4.00336c0.17014,-3.15874 0.78656,-6.54339 1.84926,-10.15395c0.02267,-0.06269 0.05101,-0.14104 0.08501,-0.23507M460.56719,304.43458c0.1049,-1.5382 0.55405,-2.63614 1.34746,-3.29381c1.77075,4.60874 4.24281,8.86247 7.41618,12.7612c3.17337,3.89873 6.55925,7.68988 10.15765,11.37346c-0.03401,0.09403 -0.04676,0.1773 -0.03826,0.24981c-0.25796,2.92154 -0.13907,5.66512 0.35669,8.23072c-0.05668,0.15672 -0.12752,0.25659 -0.21252,0.29962c-0.65455,0.1777 -1.30625,0.05951 -1.9551,-0.35459c-9.66764,-6.67971 -15.57515,-15.21161 -17.72253,-25.59569c0.29189,-1.09515 0.50871,-2.31872 0.65043,-3.67072M459.34351,294.56871c-0.36553,0.33867 -0.6914,0.75967 -0.97761,1.26302l-0.18278,0.36138c-0.69131,-1.54483 -0.91365,-3.76235 -0.66702,-6.65255c0.06234,0.01966 0.10342,0.05007 0.12325,0.09124c0.37112,1.75813 0.93917,3.40376 1.70415,4.93691M466.29283,290.47482c-0.05668,0.15672 -0.11335,0.31343 -0.17003,0.47015c-0.11335,0.31343 -0.12045,0.57307 -0.02128,0.77893c3.67479,6.64071 8.83152,12.54405 15.47021,17.71002c-0.03401,0.09403 -0.06234,0.17239 -0.08501,0.23507l-0.14026,-0.04422c-0.51015,2.94678 -0.90979,5.87602 -1.19892,8.78774c-0.6659,0.59313 -1.43518,0.36802 -2.30786,-0.67532c-6.05491,-6.97218 -10.67605,-14.64455 -13.8634,-23.01709c0.76793,-1.2593 1.49336,-2.68913 2.1763,-4.28949l0.14026,0.04422M461.38406,283.74182c0.59499,1.23512 1.10497,2.51328 1.52994,3.83446c-0.70841,0.99873 -1.23543,0.7278 -1.58106,-0.81278c-0.21531,-0.94082 -0.25494,-1.98337 -0.11888,-3.12766c0.06234,0.01966 0.119,0.05498 0.17001,0.10598z" fill="#343444"/><path d="M525.64531,347.42372c-0.03401,0.09403 -0.06659,0.13613 -0.09776,0.1263c-3.2245,-0.49297 -5.6216,-1.73764 -7.19128,-3.73402c0.02267,-0.06269 0.05526,-0.10479 0.09776,-0.1263c1.70863,-0.7881 3.52493,-1.29784 5.44888,-1.5292c0.68851,0.88052 1.13191,1.91072 1.33021,3.0906c0.04249,0.36257 -0.06095,0.69659 -0.31031,1.00205c-0.51855,0.56976 -0.27772,0.95995 0.7225,1.17058z" fill="#2c2c3f"/><path d="M534.72216,282.72094c0.06234,0.01966 0.10342,0.05007 0.12325,0.09124c0.73093,2.77943 1.39811,5.59113 2.00153,8.43511c-0.03401,0.09403 -0.06234,0.17239 -0.08501,0.23507c-0.03401,0.09403 -0.06234,0.17239 -0.08501,0.23507c-2.71472,5.77829 -5.79493,10.74299 -9.24064,14.8941c-0.06517,0.0842 -0.1091,0.15765 -0.13177,0.22033c-0.0935,-0.02948 -0.16151,-0.03347 -0.20401,-0.01195c-1.83896,0.57242 -3.84651,0.79489 -6.02263,0.66741l-0.14026,-0.04422c2.45982,-8.72187 3.44902,-16.35363 2.96758,-22.89529c0.02267,-0.06269 0.05526,-0.10479 0.09776,-0.1263c3.85639,-0.00614 7.42946,-0.57299 10.7192,-1.70056M486.95925,354.44747c-1.46208,-0.18167 -2.99358,-0.3154 -4.5945,-0.40119c-1.43375,-0.06799 -3.03749,-0.434 -4.81124,-1.09803c0.02267,-0.06269 0.05101,-0.14104 0.08501,-0.23507c1.11647,-1.743 2.11536,-3.78495 2.99667,-6.12585c1.77658,0.56018 3.58717,1.02633 5.43176,1.39845c4.62707,0.93521 9.22723,1.70481 13.80047,2.3088c1.22974,-0.13601 2.44107,-0.36511 3.63399,-0.68731c0.4222,-0.1113 0.81889,-0.24809 1.19009,-0.41039c1.77381,-0.8723 3.18346,-0.6897 4.22898,0.54781c-5.99302,4.18593 -13.31343,5.75352 -21.96123,4.7028M453.43484,315.22724c0.06234,0.01966 0.119,0.05498 0.17001,0.10598c2.00596,4.05439 4.14509,8.02856 6.4174,11.92252c-0.03401,0.09403 -0.06234,0.17239 -0.08501,0.23507c-0.81893,1.2083 -1.55995,2.63322 -2.22305,4.27475l-0.0935,-0.02948c0.02267,-0.06269 0.05101,-0.14104 0.08501,-0.23507c-0.2607,0.33681 -0.61773,0.55594 -1.07109,0.65741c-0.07367,0.01169 -0.14168,0.0077 -0.20401,-0.01195c-0.0935,-0.02948 -0.15017,-0.06481 -0.17001,-0.10598c-2.49896,-4.80343 -3.44087,-10.40785 -2.82575,-16.81324M490.3488,301.72626c0.08501,-0.04303 0.15868,-0.05472 0.22101,-0.03506c2.8136,1.72517 5.53794,3.45712 8.17302,5.19584c5.42601,3.52658 11.20629,5.2095 17.34082,5.04876c-0.23236,0.45049 -0.48031,0.89607 -0.74385,1.33673c-0.03401,0.09403 -0.06234,0.17239 -0.08501,0.23507c-7.94244,3.43158 -17.31423,3.18263 -28.11538,-0.74686c-0.0935,-0.02948 -0.17142,-0.05405 -0.23376,-0.07371c0.26925,-1.80063 0.63485,-3.67564 1.09679,-5.62501c0.50162,-2.25112 1.28374,-4.02971 2.34635,-5.33576M505.31075,274.75657c0.02267,-0.06269 0.06659,-0.13613 0.13177,-0.22033c3.30969,-4.15908 6.77947,-8.04072 10.40933,-11.64493c-0.03401,0.09403 -0.04109,0.16163 -0.02126,0.2028c2.16175,5.25578 3.69162,10.81862 4.58961,16.68852c-0.05668,0.15672 -0.12185,0.24092 -0.19552,0.2526c-2.52465,-0.02787 -5.25045,-0.55564 -8.17742,-1.5833c-2.64645,-0.93921 -4.89195,-2.171 -6.7365,-3.69537M505.61735,260.08326c0.03117,0.00983 0.06376,-0.03227 0.09776,-0.1263c1.10222,0.31263 2.22144,0.57824 3.35767,0.79683c0.06234,0.01966 0.14026,0.04422 0.23376,0.07371l0.03401,-0.09403c1.00022,0.21063 1.95226,0.45844 2.85614,0.74345l-1.24112,1.12756c-1.47348,1.38601 -3.35783,3.23605 -5.65305,5.55014c-2.28389,2.28274 -3.45701,3.41429 -3.51934,3.39463c-2.22419,-2.58684 -3.9596,-5.42112 -5.20622,-8.50282c-0.01983,-0.04117 -0.01275,-0.10877 0.02126,-0.2028c2.90155,-1.11031 5.90793,-2.03043 9.01914,-2.76037z" fill="#475c81"/><path d="M538.33487,282.81256c0.02267,-0.06269 0.05101,-0.14104 0.08501,-0.23507c-0.09916,-0.20585 -0.17708,-0.42247 -0.23374,-0.64983c-0.01983,-0.04117 -0.01275,-0.10877 0.02126,-0.2028c0.02267,-0.06269 0.06659,-0.13613 0.13177,-0.22033c0.63757,-0.70682 0.95491,-0.43217 0.95202,0.82394c-0.15869,0.4388 -0.39955,0.62474 -0.72256,0.5578c-0.0935,-0.02948 -0.17142,-0.05405 -0.23376,-0.07371z" fill="#425574"/><path d="M530.75745,263.29641l0.04675,0.01474c-0.23233,-0.31768 -0.33292,-0.4716 -0.30175,-0.46178c0.13317,0.11182 0.25076,0.21874 0.35276,0.32073c0.3145,0.3785 0.89818,1.06884 1.75102,2.07102c1.89836,2.23968 3.77968,5.29455 5.64397,9.1646c-0.03401,0.09403 -0.06234,0.17239 -0.08501,0.23507c-0.28623,1.27152 -0.69569,1.68363 -1.22837,1.23633c-0.08217,-0.06083 -0.70549,-1.40963 -1.86995,-4.04642c-1.08513,-2.47211 -2.14478,-4.53463 -3.17894,-6.18756l-1.03699,-1.74112l-0.08925,-0.18527c-0.03117,-0.00983 -0.12325,-0.09124 -0.27626,-0.24423l0.23376,0.07371c-0.03967,-0.08234 -0.085,-0.14901 -0.136,-0.20001c-0.5525,-0.87255 -0.49441,-0.88916 0.17426,-0.0498z" fill="#415476"/><path d="M530.8042,263.31115l-0.04675,-0.01474c-0.66867,-0.83935 -0.72676,-0.82275 -0.17426,0.0498c0.051,0.051 0.09633,0.11767 0.136,0.20001l-0.23376,-0.07371c0.153,0.153 0.24509,0.23441 0.27626,0.24423l0.08925,0.18527l1.03699,1.74112c-0.09067,-0.13334 -0.17142,-0.24609 -0.24225,-0.33826c-0.52133,-0.86273 -0.87266,-1.42743 -1.05399,-1.69411c-0.03117,-0.00983 -0.05667,-0.03533 -0.0765,-0.0765c-1.07101,-1.45505 -1.07525,-1.68335 -0.01272,-0.6849c-0.03117,-0.00983 0.06942,0.1441 0.30175,0.46178z" fill="#415370"/><path d="M520.6972,261.01468c0.30318,0.02576 0.57803,0.12988 0.82454,0.31236c6.39219,4.59941 10.48779,10.41258 12.28678,17.43951c-0.03401,0.09403 -0.07226,0.1518 -0.11476,0.17332c-3.08009,1.89202 -6.46331,2.41399 -10.14966,1.56589c0.02267,-0.06269 0.02976,-0.13029 0.02126,-0.2028c-0.91495,-6.7831 -1.871,-13.21252 -2.86815,-19.28828z" fill="#465c81"/><path d="M521.61119,256.32717c0.06234,0.01966 0.13459,0.0599 0.21676,0.12072c0.87553,0.5554 1.9154,1.04042 3.11963,1.45504c-1.48191,-0.22284 -2.99074,-0.6113 -4.52647,-1.16537c-0.0935,-0.02948 -0.17142,-0.05405 -0.23376,-0.07371c-0.0935,-0.02948 -0.16151,-0.03347 -0.20401,-0.01195c-1.30909,0.35541 -1.96361,-0.04302 -1.96357,-1.19527c-0.068,-0.19603 -0.06516,-0.29988 0.00851,-0.31157c1.19292,-0.3222 2.38722,0.07183 3.58291,1.18211M512.98755,253.2414c-0.22384,-0.24516 -0.3145,-0.3785 -0.272,-0.40002c1.35443,-0.48078 2.24413,-0.06058 2.66911,1.26061c-0.88973,0.34797 -1.68877,0.0611 -2.39711,-0.86059z" fill="#435878"/><path d="M466.20598,336.80004c-0.03401,0.09403 -0.03542,0.14596 -0.00426,0.15579c0.34567,0.38833 0.70126,0.79725 1.06676,1.22675c-0.03401,0.09403 -0.06234,0.17239 -0.08501,0.23507c-0.03401,0.09403 -0.03542,0.14596 -0.00426,0.15579c0.78201,0.91 1.60512,1.46634 2.46933,1.669c0.06234,0.01966 0.119,0.05498 0.17001,0.10598c2.69739,2.52655 6.30294,4.60618 10.81664,6.23891c-0.88131,2.3409 -1.8802,4.38285 -2.99667,6.12585c-0.03401,0.09403 -0.06234,0.17239 -0.08501,0.23507c-6.85131,-2.3698 -11.62562,-5.77819 -14.32294,-10.22516c-0.051,-0.051 -0.10767,-0.08633 -0.17001,-0.10598c0.02267,-0.06269 0.05101,-0.14104 0.08501,-0.23507c1.10513,-1.71165 2.12527,-3.57232 3.0604,-5.582M457.62068,331.73608l0.0935,0.02948c0.6631,-1.64153 1.40412,-3.06644 2.22305,-4.27475c0.06234,0.01966 0.119,0.05498 0.17001,0.10598c0.77632,1.5018 1.64756,2.98116 2.61373,4.43807c-0.03401,0.09403 -0.06234,0.17239 -0.08501,0.23507c-1.13912,1.4216 -2.09975,3.21373 -2.88188,5.37641l-0.0935,-0.02948c-0.9265,-1.37457 -1.88417,-2.75897 -2.873,-4.15319c-0.03117,-0.00983 -0.02975,-0.06176 0.00426,-0.15579c0.02267,-0.06269 0.06093,-0.12046 0.11476,-0.17332c0.34286,-0.27598 0.5809,-0.74214 0.7141,-1.39849M474.92207,259.41331c0.45623,-0.9735 1.04138,-1.67938 1.75544,-2.11766c0.12751,-0.06455 0.2706,-0.12418 0.42928,-0.1789c3.18206,-1.02186 6.57662,-1.57516 10.18367,-1.65992c-3.41162,2.13666 -6.77932,4.39192 -10.10311,6.76577c-0.15018,0.12723 -0.38111,0.14171 -0.69279,0.04343c-1.34023,-0.42259 -1.86156,-1.28532 -1.56399,-2.58818l-0.0935,-0.02948c0.02267,-0.06269 0.05101,-0.14104 0.08501,-0.23507M499.42496,254.30729c-0.03401,0.09403 -0.06234,0.17239 -0.08501,0.23507c-1.64634,1.96001 -2.95683,1.79122 -3.93146,-0.50638c-0.01983,-0.04117 -0.01275,-0.10877 0.02126,-0.2028c-0.22382,-0.62925 -0.05379,-1.0994 0.51009,-1.41044c1.93532,-1.03088 3.18205,-0.63777 3.74017,1.17932c-0.12185,0.24092 -0.20686,0.47599 -0.25504,0.70522M465.16739,268.38399c0.06234,0.01966 0.11476,0.01873 0.15726,-0.00279c1.86455,-2.65939 3.81685,-3.16115 5.8569,-1.5053c-0.03401,0.09403 -0.06234,0.17239 -0.08501,0.23507c-0.03401,0.09403 -0.06234,0.17239 -0.08501,0.23507l0.0935,0.02948c-0.21253,0.49166 -0.20121,0.8444 0.03396,1.05822c-0.30036,0.25446 -0.59506,0.6853 -0.8841,1.29251l-0.0935,-0.02948c-1.53297,1.2625 -2.9172,2.83377 -4.15268,4.71383c-0.03117,-0.00983 -0.07792,-0.02457 -0.14026,-0.04422c-0.88131,2.3409 -2.09411,3.96623 -3.63841,4.87599c-0.13885,0.09589 -0.04108,-0.03041 0.29328,-0.37891c0.16152,-0.15858 0.29895,-0.39458 0.4123,-0.70801c0.02267,-0.06269 0.05101,-0.14104 0.08501,-0.23507c0.69433,-3.16804 1.40992,-6.34683 2.14676,-9.53639z" fill="#8fbbbe"/><path d="M467.18347,338.41765c0.06234,0.01966 0.13459,0.0599 0.21676,0.12072c0.83586,0.47306 1.5853,1.04108 2.24831,1.70406c-0.86421,-0.20266 -1.68732,-0.75899 -2.46933,-1.669c-0.03117,-0.00983 -0.02975,-0.06176 0.00426,-0.15579z" fill="#94c3c7"/><path d="M457.70569,331.50101c-0.03401,0.09403 -0.06234,0.17239 -0.08501,0.23507c-0.1332,0.65634 -0.37123,1.12251 -0.7141,1.39849c-0.05384,0.05286 -0.09209,0.11063 -0.11476,0.17332c-0.2125,-0.27651 -0.34566,-0.58037 -0.39949,-0.9116c-0.0085,-0.07251 0.00426,-0.15579 0.03826,-0.24981c0.06234,0.01966 0.13034,0.02364 0.20401,0.01195c0.45336,-0.10147 0.81039,-0.32061 1.07109,-0.65741M462.63595,332.26994c0.06234,0.01966 0.119,0.05498 0.17001,0.10598c0.9435,1.5196 2.10517,2.91595 3.48504,4.18905c-0.03401,0.09403 -0.06234,0.17239 -0.08501,0.23507c-0.93513,2.00968 -1.95527,3.87034 -3.0604,5.582c-0.03401,0.09403 -0.06234,0.17239 -0.08501,0.23507c-1.07667,-1.63142 -2.21142,-3.24624 -3.40426,-4.84446c-0.03117,-0.00983 -0.02975,-0.06176 0.00426,-0.15579l0.0935,0.02948c0.78213,-2.16267 1.74276,-3.95481 2.88188,-5.37641M489.52199,251.44665c0.06234,0.01966 0.10342,0.05007 0.12325,0.09124c-0.17297,3.2626 0.28169,6.18187 1.36398,8.75784c-5.25342,2.81294 -10.15977,6.34636 -14.71904,10.60028c-0.05384,0.05286 -0.09209,0.11063 -0.11476,0.17332c-1.26078,-3.33058 -1.71965,-7.05429 -1.37664,-11.17111c-0.0085,-0.07251 0.00426,-0.15579 0.03826,-0.24981l0.0935,0.02948c-0.29757,1.30286 0.22376,2.16559 1.56399,2.58818c0.31168,0.09828 0.54261,0.0838 0.69279,-0.04343c3.32379,-2.37386 6.69149,-4.62911 10.10311,-6.76577c-3.60705,0.08476 -7.0016,0.63806 -10.18367,1.65992c-0.15868,0.05472 -0.30177,0.11435 -0.42928,0.1789c-0.71406,0.43828 -1.29921,1.14416 -1.75544,2.11766l-0.14026,-0.04422c0.17004,-0.85423 0.23808,-1.61842 0.2041,-2.29256c0.02267,-0.06269 0.06093,-0.12046 0.11476,-0.17332c4.36087,-2.7452 9.16797,-4.56406 14.42132,-5.45657z" fill="#475d81"/><path d="M485.59296,296.87463c0.26634,0.22365 0.52701,0.46297 0.78202,0.71796c-0.16153,0.54266 -0.40665,1.07642 -0.73536,1.60129l-0.0935,-0.02948c0.02267,-0.06269 0.05101,-0.14104 0.08501,-0.23507c0.10485,-0.38594 0.24655,-0.77773 0.42507,-1.17537c-0.255,-0.25499 -0.48876,-0.52074 -0.70126,-0.79725c-0.01983,-0.04117 -0.01275,-0.10877 0.02126,-0.2028c0.06234,0.01966 0.13459,0.0599 0.21676,0.12072z" fill="#364461"/><path d="M474.7938,278.49005c0.06234,0.01966 0.10342,0.05007 0.12325,0.09124c1.87834,6.80753 5.39306,12.78671 10.54416,17.93755c-0.03401,0.09403 -0.06234,0.17239 -0.08501,0.23507c-0.03401,0.09403 -0.04109,0.16163 -0.02126,0.2028c0.2125,0.27651 0.44625,0.54226 0.70126,0.79725c-0.17853,0.39763 -0.32022,0.78942 -0.42507,1.17537c-0.03401,0.09403 -0.06234,0.17239 -0.08501,0.23507c-1.5954,3.54735 -2.91737,7.0587 -3.9659,10.53406l-0.0935,-0.02948c0.02267,-0.06269 0.05101,-0.14104 0.08501,-0.23507c-6.63869,-5.16597 -11.79542,-11.06931 -15.47021,-17.71002c-0.09916,-0.20585 -0.09207,-0.4655 0.02128,-0.77893c0.05668,-0.15672 0.11335,-0.31343 0.17003,-0.47015c0.02267,-0.06269 0.05101,-0.14104 0.08501,-0.23507c2.38316,-4.76548 5.18848,-8.68205 8.41596,-11.7497M497.43881,286.73018c1.73139,-3.1553 3.6682,-5.96648 5.81043,-8.43356c0.06234,0.01966 0.13459,0.0599 0.21676,0.12072c4.89615,3.35951 10.73875,5.44617 17.52778,6.25998c-0.03401,0.09403 -0.04676,0.1773 -0.03826,0.24981c-0.1646,6.40779 -1.17926,13.24588 -3.04399,20.51428c-0.36276,1.77115 -1.23834,2.56004 -2.62675,2.36668c-1.22123,-0.17557 -2.43963,-0.45499 -3.65518,-0.83827c-8.39839,-2.50845 -14.91814,-6.0831 -19.55923,-10.72395c1.81356,-3.09447 3.60304,-6.26637 5.36844,-9.51569M492.47541,264.16245c0.06234,0.01966 0.10342,0.05007 0.12325,0.09124c1.49877,3.82463 3.66768,7.28443 6.50672,10.3794c-0.03401,0.09403 -0.07793,0.16747 -0.13177,0.22033c-3.51377,5.87551 -6.93404,11.7805 -10.26081,17.71497c-0.0935,-0.02948 -0.16576,-0.06972 -0.21676,-0.12072c-5.69231,-4.90248 -9.25378,-10.89641 -10.68441,-17.98178c0.02267,-0.06269 0.06093,-0.12046 0.11476,-0.17332c4.3241,-4.46774 9.17377,-7.84445 14.54901,-10.13013z" fill="#475d82"/><path d="M493.62351,250.90675c0.06234,0.01966 0.13034,0.02364 0.20401,0.01195c1.01157,-0.2048 2.04864,-0.3841 3.1112,-0.5379c0.06234,0.01966 0.14026,0.04422 0.23376,0.07371c4.99541,1.26086 9.27393,2.87181 12.83556,4.83284c-0.03401,0.09403 -0.06659,0.13613 -0.09776,0.1263c-5.19099,0.52809 -10.13832,1.53455 -14.84199,3.01939c0.02267,-0.06269 0.02976,-0.13029 0.02126,-0.2028c-0.50993,-2.43041 -0.99862,-4.87157 -1.46605,-7.32349M499.33995,254.54236c0.02267,-0.06269 0.05101,-0.14104 0.08501,-0.23507c0.04818,-0.22923 0.13319,-0.4643 0.25504,-0.70522c-0.55813,-1.81709 -1.80485,-2.2102 -3.74017,-1.17932c-0.56388,0.31104 -0.73391,0.78119 -0.51009,1.41044c-0.03401,0.09403 -0.04109,0.16163 -0.02126,0.2028c0.97463,2.29759 2.28512,2.46639 3.93146,0.50638z" fill="#455a7e"/><path d="M459.79055,275.33061c0.02267,-0.06269 0.05101,-0.14104 0.08501,-0.23507c2.61843,-6.85617 6.21008,-11.74689 10.77497,-14.67218c0.06234,0.01966 0.10342,0.05007 0.12325,0.09124c0.22933,4.64647 1.14438,8.93301 2.74515,12.85964c-3.64972,4.3312 -7.15636,8.98686 -10.51992,13.96696c-0.03401,0.09403 -0.06234,0.17239 -0.08501,0.23507c-0.42497,-1.32118 -0.93495,-2.59934 -1.52994,-3.83446c-0.051,-0.051 -0.10767,-0.08633 -0.17001,-0.10598c-0.0935,-0.02948 -0.13459,-0.0599 -0.12325,-0.09124c-0.72527,-2.60306 -1.15869,-5.34105 -1.30025,-8.21398M465.32465,268.3812c-0.0425,0.02152 -0.09492,0.02245 -0.15726,0.00279c-0.73684,3.18955 -1.45242,6.36835 -2.14676,9.53639c-0.03401,0.09403 -0.06234,0.17239 -0.08501,0.23507c-0.11335,0.31343 -0.25079,0.54943 -0.4123,0.70801c-0.33437,0.34849 -0.43213,0.4748 -0.29328,0.37891c1.54429,-0.90975 2.7571,-2.53508 3.63841,-4.87599c0.06234,0.01966 0.10909,0.0344 0.14026,0.04422c1.23548,-1.88006 2.61971,-3.45133 4.15268,-4.71383l0.0935,0.02948c0.28904,-0.60721 0.58374,-1.03804 0.8841,-1.29251c-0.23517,-0.21382 -0.24649,-0.56656 -0.03396,-1.05822l-0.0935,-0.02948c0.02267,-0.06269 0.05101,-0.14104 0.08501,-0.23507c0.02267,-0.06269 0.05101,-0.14104 0.08501,-0.23507c-2.04005,-1.65585 -3.99236,-1.15409 -5.8569,1.5053z" fill="#475c80"/><path d="M875.6701,544.5045c-1.29173,-2.51023 -3.18705,-7.04757 -5.68598,-13.61203c-2.49892,-6.56445 -4.20365,-11.90165 -5.11419,-16.0116l7.24169,14.29737c5.47106,10.08492 9.57796,16.69567 12.32069,19.83226c2.96465,3.42075 4.88081,5.5665 5.74849,6.43725c2.27891,2.30234 4.59049,3.48242 6.93472,3.54024c-2.90737,1.78955 -5.19752,2.22907 -6.87043,1.31855c-2.08927,-1.11322 -5.86713,-5.12468 -11.33357,-12.03439c-1.52017,-1.99166 -2.60065,-3.24754 -3.24142,-3.76765M761.987,468.91194c3.29224,4.66636 5.75666,8.32526 7.39327,10.97671c2.77617,4.47115 5.6312,8.43497 8.5651,11.89145c3.88805,4.58816 7.14425,7.21817 9.76862,7.89006c3.06647,0.77237 5.96827,0.68801 8.70542,-0.25307c2.7039,-0.93859 5.81484,-2.91057 9.33281,-5.91595c3.48473,-3.00288 7.41723,-6.94194 11.79749,-11.81717c6.06201,-6.07128 11.12924,-12.70291 15.2017,-19.8949c-1.65868,5.50638 -4.22682,11.36524 -7.70443,17.57658c-6.91948,12.45341 -14.85508,20.50396 -23.8068,24.15166c-2.05987,1.05732 -3.37435,2.0252 -3.94345,2.90364c-0.65883,1.01889 -1.29795,3.18953 -1.91738,6.51192c-1.3966,7.65944 -0.77724,12.34281 1.85808,14.05011c1.26405,0.80754 4.14732,1.81095 8.6498,3.01023c3.81771,0.98333 6.317,1.54762 7.49786,1.69287c-0.52337,1.04214 -1.38864,2.42753 -2.59582,4.15616l0.60034,5.31991c0.92802,4.34262 2.65417,8.40798 5.17845,12.1961l1.85027,3.2705c1.38145,2.36978 2.50727,4.00667 3.37745,4.91065c0.689,0.71704 2.23155,2.33932 4.62767,4.86684c2.28891,2.4353 3.88468,4.32099 4.78734,5.65709c0.90015,1.30286 2.04249,2.26996 3.42701,2.90131c1.35128,0.63385 2.51389,0.98103 3.48782,1.04155c0.97143,0.02728 3.01276,0.05773 6.124,0.09134c2.47219,-0.01865 3.86036,-0.00597 4.16451,0.03803l-15.09674,-46.09779c2.10292,3.51893 4.17347,7.27429 6.21165,11.26607c3.88518,7.66365 6.53088,12.17803 7.93712,13.54314c1.11688,0.18348 2.19052,0.23651 3.22094,0.15908c0.99718,-0.07494 2.47709,-0.6207 4.43974,-1.63729c-0.45113,0.66901 -1.05472,1.53333 -1.81076,2.59296c-0.75854,1.02638 -2.02557,2.62581 -3.80107,4.79828c0.09492,1.26309 0.28091,3.07088 0.55798,5.42337c0.24383,2.35499 1.08807,4.91556 2.53274,7.68172c1.40893,2.73541 3.88315,5.19021 7.42266,7.36439c1.78762,1.10246 3.40319,1.91701 4.84669,2.44364c-3.6421,0.90881 -7.03846,0.19466 -10.18909,-2.14245c-3.15063,-2.33711 -5.24,-4.11886 -6.26811,-5.34525l-3.65554,2.73159c-2.89988,1.88927 -5.40598,3.01355 -7.5183,3.37285c-2.5087,0.42251 -4.89578,0.01693 -7.16124,-1.21676c-2.3012,-1.26443 -4.82816,-3.53141 -7.58088,-6.80095c-2.75522,-3.30278 -4.67311,-5.91638 -5.75368,-7.84079c-1.08057,-1.92441 -2.14875,-4.35116 -3.20454,-7.28025c-0.88613,-2.00588 -1.98793,-4.21283 -3.30541,-6.62084c-2.66819,-4.81353 -5.07814,-8.1924 -7.22986,-10.1366c-1.83009,-1.66753 -4.38481,-3.41431 -7.66416,-5.24034c-2.82477,-1.55935 -4.47943,-2.6718 -4.964,-3.33736c-0.78045,-1.04444 -1.57926,-2.55548 -2.39641,-4.53311c-0.77392,-1.84718 -1.31306,-3.4613 -1.6174,-4.84236c-1.61991,-7.76703 -2.57311,-13.7791 -2.8596,-18.03622l-3.92271,-0.15648c-4.69694,-6.90068 -9.64952,-14.53426 -14.85774,-22.90073c-10.41393,-16.69971 -16.85835,-28.61682 -19.33326,-35.75134l5.00551,5.8914c3.48745,4.15028 5.55367,6.73602 6.19867,7.75721c0.26764,0.44786 2.06421,3.00373 5.38968,7.66758M871.93788,458.14233c0.97623,-1.2433 2.17466,-3.08828 3.59529,-5.53492c1.77454,-3.07492 2.79217,-5.32415 3.0529,-6.74767c0.59331,-0.11144 2.72687,-0.18821 6.40067,-0.2303c4.13415,-0.14354 8.16523,-0.54675 12.09322,-1.20962c1.74823,-1.20104 3.95469,-2.75407 6.6194,-4.65909c2.62897,-1.93576 4.92007,-4.36425 6.87329,-7.28547c-0.65497,4.62871 -2.37782,8.83627 -5.16856,12.62267c-3.30835,4.46041 -7.29128,7.28346 -11.94881,8.46913c-1.50902,0.38082 -3.06502,0.58131 -4.668,0.60149c-1.40854,-0.06129 -2.22914,-0.08319 -2.46182,-0.0657c-1.27289,1.29902 -2.35162,3.40242 -3.23619,6.31018c-0.42442,1.46925 -0.72462,2.81218 -0.90062,4.02877c-0.92667,-0.76604 -2.06026,-1.6168 -3.40079,-2.5523c-2.64531,-1.84025 -4.92864,-3.08931 -6.84999,-3.74717M849.73092,494.90943c-0.92378,1.94133 -2.17533,4.19142 -3.75467,6.75027c-3.15867,5.1177 -6.42926,9.19087 -9.81178,12.21949c0.91782,-2.91026 1.71766,-5.6111 2.39954,-8.10251c1.30227,-4.91134 1.65569,-8.88228 1.06025,-11.91282z" fill="#2c2d41"/><path d="M875.4728,415.1069c0.8087,0.97546 1.95392,1.7585 3.43566,2.34912c1.4485,0.59311 3.14121,0.43248 5.07811,-0.48189c0.93646,-0.43807 1.70048,-0.94675 2.29206,-1.52604c1.8587,-1.51018 4.00022,-3.92743 6.42456,-7.25175c2.3886,-3.35506 4.40226,-5.02731 6.04098,-5.01675c1.60547,0.01306 3.01824,0.57543 4.2383,1.68712c1.18682,1.11418 2.7827,3.66841 4.78763,7.66269c2.00494,3.99427 3.03114,9.19861 3.07862,15.61302c-0.02305,1.47252 -0.11508,2.91679 -0.27608,4.33282c-1.95323,2.92122 -4.24433,5.34971 -6.87329,7.28547c-2.6647,1.90502 -4.87117,3.45805 -6.6194,4.65909c-3.92799,0.66288 -7.95907,1.06609 -12.09322,1.20962c-3.6738,0.04209 -5.80736,0.11886 -6.40067,0.2303c-0.26072,1.42352 -1.27835,3.67275 -3.0529,6.74767c-1.42063,2.44664 -2.61906,4.29162 -3.59529,5.53492c1.92135,0.65786 4.20468,1.90692 6.84999,3.74717c1.34052,0.9355 2.47412,1.78626 3.40079,2.5523l3.7311,10.95107c2.73429,7.91727 4.75441,13.44804 6.06036,16.59232c1.75401,4.21369 4.39693,9.58067 7.92877,16.10093c3.87595,7.09609 6.86366,11.93575 8.96312,14.51899c3.01787,3.68417 5.00292,8.08106 5.95516,13.19068c0.919,5.11212 -0.73402,9.58184 -4.95904,13.40917c-4.82659,4.27366 -9.06084,7.53343 -12.70274,9.7793l-0.04986,0.00375c-2.34423,-0.05782 -4.6558,-1.23791 -6.93472,-3.54024c-0.86768,-0.87075 -2.78385,-3.0165 -5.74849,-6.43725c-2.74273,-3.13658 -6.84962,-9.74734 -12.32069,-19.83226l-7.24169,-14.29737c0.91054,4.10994 2.61527,9.44714 5.11419,16.0116c2.49892,6.56445 4.39425,11.1018 5.68598,13.61203c0.58601,1.12591 1.47042,5.55537 2.65323,13.28839c1.21355,7.69728 1.63357,13.06417 1.26007,16.10066c-0.74605,1.19258 -2.47343,2.89346 -5.18213,5.10263c-2.7112,2.17593 -5.8866,3.73492 -9.5262,4.67697c-1.44351,-0.52664 -3.05907,-1.34118 -4.84669,-2.44364c-3.53951,-2.17418 -6.01373,-4.62898 -7.42266,-7.36439c-1.44467,-2.76615 -2.28892,-5.32673 -2.53274,-7.68172c-0.27707,-2.35249 -0.46306,-4.16028 -0.55798,-5.42337c1.77551,-2.17247 3.04253,-3.7719 3.80107,-4.79828c0.75605,-1.05962 1.35963,-1.92394 1.81076,-2.59296c-1.96265,1.01659 -3.44256,1.56235 -4.43974,1.63729c-1.03042,0.07743 -2.10406,0.02441 -3.22094,-0.15908c-1.40624,-1.36511 -4.05194,-5.87949 -7.93712,-13.54314c-2.03818,-3.99178 -4.10872,-7.74713 -6.21165,-11.26607l15.09674,46.09779c-0.30415,-0.044 -1.69232,-0.05667 -4.16451,-0.03803c-3.11123,-0.03361 -5.15256,-0.06406 -6.124,-0.09134c-0.97393,-0.06052 -2.13654,-0.4077 -3.48782,-1.04155c-1.38452,-0.63135 -2.52686,-1.59845 -3.42701,-2.90131c-0.90265,-1.3361 -2.49843,-3.2218 -4.78734,-5.65709c-2.39612,-2.52752 -3.93867,-4.1498 -4.62767,-4.86684c-0.87018,-0.90399 -1.996,-2.54087 -3.37745,-4.91065l-1.85027,-3.2705c-2.52427,-3.78811 -4.25042,-7.85348 -5.17845,-12.1961l-0.60034,-5.31991c1.20717,-1.72864 2.07245,-3.11403 2.59582,-4.15616c-1.18086,-0.14525 -3.68014,-0.70954 -7.49786,-1.69287c-4.50248,-1.19929 -7.38575,-2.2027 -8.6498,-3.01023c-2.63532,-1.7073 -3.25468,-6.39067 -1.85808,-14.05011c0.61943,-3.32239 1.25856,-5.49303 1.91738,-6.51192c0.5691,-0.87844 1.88358,-1.84632 3.94345,-2.90364c8.95172,-3.6477 16.88732,-11.69826 23.8068,-24.15166c3.47761,-6.21133 6.04575,-12.07019 7.70443,-17.57658c-4.07245,7.19199 -9.13969,13.82362 -15.2017,19.8949c-4.38026,4.87523 -8.31276,8.81429 -11.79749,11.81717c-3.51797,3.00538 -6.62891,4.97736 -9.33281,5.91595c-2.73714,0.94108 -5.63895,1.02544 -8.70542,0.25307c-2.62437,-0.67188 -5.88057,-3.3019 -9.76862,-7.89006c-2.9339,-3.45649 -5.78894,-7.42031 -8.5651,-11.89145c-1.63661,-2.65145 -4.10103,-6.31035 -7.39327,-10.97671c-3.32548,-4.66386 -5.12204,-7.21972 -5.38968,-7.66758c-0.645,-1.02119 -2.71122,-3.60693 -6.19867,-7.75721l-5.00551,-5.8914c-0.78565,-2.44798 -0.9311,-5.49562 -0.43637,-9.1429c0.49473,-3.64729 3.05903,-10.22454 7.69289,-19.73175l-18.51879,-32.25257l-13.83365,7.40741c-1.02619,0.57852 -1.8052,0.88776 -2.33702,0.92773c-0.99967,0.0417 -2.25412,-0.41558 -3.76334,-1.37183c-2.49987,-1.68405 -5.0227,-4.11848 -7.56849,-7.30329c-2.54829,-3.21805 -4.31411,-5.80965 -5.29746,-7.77479c-1.01659,-1.96265 -1.61759,-3.28799 -1.803,-3.97602c-0.21865,-0.68553 -0.48726,-2.03585 -0.80583,-4.05096c-0.34681,-1.94613 -0.60102,-7.1082 -0.76264,-15.48622l-0.04611,0.05361c-0.00368,-8.05562 0.59096,-13.26477 1.78391,-15.62745c1.19046,-2.39592 7.88988,-5.32282 20.09828,-8.78071c12.2084,-3.45789 20.1886,-4.90997 23.9406,-4.35625c1.98609,0.18502 6.10431,1.83102 12.35464,4.938c6.2146,3.07624 9.6224,5.27703 10.2234,6.60237c0.39734,0.83924 0.61397,1.94276 0.64991,3.31057c0.56912,4.90442 -0.18749,10.62714 -2.26982,17.16817c-1.0233,3.28589 -2.1173,6.07568 -3.28201,8.36938l5.84476,8.38549c4.1409,6.17365 7.02793,10.11835 8.66107,11.8341c4.53916,-3.65038 9.73082,-6.17984 15.57496,-7.5884c2.92082,-0.7209 5.36929,-1.05532 7.34539,-1.00326c2.12001,1.07748 11.15592,7.66881 27.10773,19.77399c8.01164,6.08333 16.33617,12.327 24.9736,18.731c0.93339,1.30036 1.20653,5.15736 0.8194,11.571c1.02446,-1.04637 4.23165,-3.96154 9.62158,-8.74551c4.63715,-4.12572 7.94752,-6.11269 9.93112,-5.96091c1.94786,0.12104 3.34151,0.65142 4.18095,1.59115M773.46521,388.12555c-1.05136,-1.09094 -2.58816,-3.08135 -4.61038,-5.97123c-0.60541,2.61937 -1.02463,5.49216 -1.25768,8.61838c1.96938,-0.48226 3.9254,-1.36465 5.86806,-2.64715M764.80413,376.29144l-4.1579,-5.95509c-0.42999,3.17445 -0.55909,6.79426 -0.3873,10.85944l6.05021,-1.55775l0.58332,-0.2444c-0.67574,-0.98545 -1.37185,-2.01952 -2.08832,-3.10219M836.16448,513.87919c3.38251,-3.02863 6.65311,-7.10179 9.81178,-12.21949c1.57934,-2.55885 2.83089,-4.80894 3.75467,-6.75027l-10.10666,-1.04556c0.59544,3.03053 0.24202,7.00147 -1.06025,11.91282c-0.68188,2.49141 -1.48172,5.19224 -2.39954,8.10251z" fill="#000000"/><path d="M766.89245,379.39364l-0.58332,0.2444l-6.05021,1.55775c-0.17178,-4.06518 -0.04268,-7.68499 0.3873,-10.85944l4.1579,5.95509c0.71647,1.08267 1.41258,2.11674 2.08832,3.10219M768.85483,382.15431c2.02222,2.88989 3.55902,4.8803 4.61038,5.97123c-1.94267,1.2825 -3.89869,2.16489 -5.86806,2.64715c0.23305,-3.12622 0.65228,-5.99901 1.25768,-8.61838z" fill="#ffffff"/></g></g></svg>