<svg version="1.1" xmlns="http://www.w3.org/2000/svg" xmlns:xlink="http://www.w3.org/1999/xlink" width="381.53846" height="548.85" viewBox="0,0,381.53846,548.85"><g transform="translate(-503.31154,-78.85)"><g data-paper-data="{&quot;isPaintingLayer&quot;:true}" fill-rule="nonzero" stroke="none" stroke-width="1" stroke-linecap="butt" stroke-linejoin="miter" stroke-miterlimit="10" stroke-dasharray="" stroke-dashoffset="0" style="mix-blend-mode: normal"><path d="M883.7,595.15c-1.8569,0.78333 -3.49023,1.46667 -4.9,2.05c-1.59792,-1.78711 -6.91458,-5.10378 -15.95,-9.95c-7.35951,-3.95651 -12.74284,-7.03984 -16.15,-9.25c0.48594,-2.47852 0.83594,-3.94518 1.05,-4.4h3.5c0.4957,0.4957 1.11237,0.86237 1.85,1.1h-0.5c0.04674,0.03294 0.09674,0.06628 0.15,0.1c1.36667,0.86667 3.48333,2.31667 6.35,4.35c2.56667,1.7 4.73333,2.8 6.5,3.3c8.63333,3.96667 13.4,6.26667 14.3,6.9c2.2112,1.47409 3.67786,3.32409 4.4,5.55c-0.19401,0.08034 -0.39401,0.16367 -0.6,0.25M728.85,590.2c0.87487,0.34102 1.72487,0.65768 2.55,0.95c-1.28763,0.83294 -3.0543,1.68294 -5.3,2.55c-5.96667,2 -9.66667,3.41667 -11.1,4.25c1.26667,1.56667 2.9,3.31667 4.9,5.25c1.17487,1.34271 1.8582,2.79271 2.05,4.35c0.03333,0.2944 0.05,0.5944 0.05,0.9c0,2.86667 -1.41667,5.11667 -4.25,6.75c-2.63333,1.53333 -7.11667,2.88333 -13.45,4.05h-0.05c-1.98034,-0.71432 -5.63034,-2.26432 -10.95,-4.65c10.73411,-2.0763 18.30078,-4.1263 22.7,-6.15c-0.29883,-0.77253 -0.73216,-1.50586 -1.3,-2.2c-2.5543,-3.11732 -7.8543,-5.23398 -15.9,-6.35c-0.50625,-0.07109 -1.02292,-0.13776 -1.55,-0.2c-1.13333,-1 -1.88333,-1.71667 -2.25,-2.15l-0.05,-0.05c-0.3,-0.34063 -0.45,-0.64062 -0.45,-0.9c0,-1 0.91667,-2.13333 2.75,-3.4c3.63333,1.33333 10.1,0.4 19.4,-2.8c1.20456,-0.41003 2.40456,-0.82669 3.6,-1.25c1.12122,-0.40326 2.23789,-0.81992 3.35,-1.25c1.56641,0.77721 3.31641,1.54388 5.25,2.3M689.5,512.55c1.47552,-1.35625 3.29219,-3.02292 5.45,-5c1.10247,0.83841 2.40247,1.72174 3.9,2.65c0.26953,0.17852 0.5362,0.34518 0.8,0.5c1.04479,3.68411 1.86146,6.63411 2.45,8.85c-0.64219,-0.27721 -1.29219,-0.57721 -1.95,-0.9c0.4724,1.70521 1.00573,3.65521 1.6,5.85c1.30391,4.80625 2.63724,8.58958 4,11.35c0.25521,0.53021 0.50521,1.01354 0.75,1.45c0.11667,0.18815 0.21667,0.35482 0.3,0.5c0.07799,0.11393 0.14466,0.21393 0.2,0.3c0.09896,-0.10625 0.19896,-0.22292 0.3,-0.35c0.03542,0.03529 0.06875,0.05195 0.1,0.05c0.03503,0.03464 0.06836,0.0513 0.1,0.05l2.9,1.15c0.58125,0.17174 1.19792,0.33841 1.85,0.5c0.28659,0.06849 0.56992,0.13516 0.85,0.2c-0.12331,0.40638 -0.23997,0.80638 -0.35,1.2c-0.93867,3.43411 -1.50534,6.96745 -1.7,10.6c-0.03333,0.89961 -0.05,1.79961 -0.05,2.7c0,0.13047 0,0.2638 0,0.4c0.02109,0.61016 0.07109,1.24349 0.15,1.9c0.05573,0.30612 0.10573,0.60612 0.15,0.9v0c0.21953,1.20365 0.5362,2.48698 0.95,3.85c0.08607,0.25547 0.1694,0.50547 0.25,0.75c0.54935,1.66185 1.19935,3.26185 1.95,4.8c0.98047,2.02161 2.13047,3.93828 3.45,5.75c0.01914,0.00521 0.03581,0.00521 0.05,0c0.07148,0.12552 0.13815,0.24219 0.2,0.35l0.1,0.1c2.95885,3.83971 6.50885,6.88971 10.65,9.15c0.53294,0.28672 1.06628,0.55339 1.6,0.8c-0.10508,0.09271 -0.22174,0.17604 -0.35,0.25c-0.09049,0.05651 -0.19049,0.10651 -0.3,0.15l-5.15,3.15c-5.07487,-2.8724 -9.24154,-6.70573 -12.5,-11.5c-1.4737,-2.1776 -2.70703,-4.39427 -3.7,-6.65c-1.73216,-3.92227 -2.71549,-7.9556 -2.95,-12.1c-0.03333,-0.6237 -0.05,-1.25703 -0.05,-1.9c0,-3.03646 0.18333,-6.06979 0.55,-9.1c-0.29661,-0.10365 -0.61328,-0.25365 -0.95,-0.45c-2.40911,-1.44766 -4.84245,-5.43099 -7.3,-11.95c-2.53333,-8.46667 -3.8,-12.76667 -3.8,-12.9c0,-1.52214 0.15,-2.95547 0.45,-4.3c-0.61029,-0.38086 -1.17695,-0.76419 -1.7,-1.15c-0.99362,-0.7043 -1.81029,-1.4043 -2.45,-2.1c-0.23372,0.05013 -0.50039,0.10013 -0.8,0.15M819,500.15c0.51563,1.07839 0.91563,2.29505 1.2,3.65c0.3,1.5 0.76667,3.76667 1.4,6.8c-0.14674,0.37734 -0.29674,0.67734 -0.45,0.9c2.29674,0.85247 4.38008,1.88581 6.25,3.1c3.14727,2.06823 5.1806,4.25156 6.1,6.55c-0.51693,0.09674 -1.06693,0.19674 -1.65,0.3c-2.52878,0.47669 -4.46211,0.99336 -5.8,1.55c-0.63138,-0.67604 -1.14805,-1.19271 -1.55,-1.55c-4.6,-4.33333 -10.4,-6.5 -17.4,-6.5c-1.26667,0 -3.53333,0.3 -6.8,0.9c-3.3,0.56667 -5.7,1.1 -7.2,1.6c-0.23333,-0.1 -0.45,-0.2 -0.65,-0.3c0.29701,0.48255 0.59701,0.96589 0.9,1.45c-0.02891,0 -0.06224,0 -0.1,0c-1.12513,0 -2.12513,-1.96667 -3,-5.9c1.1138,-0.80417 2.88047,-1.57083 5.3,-2.3c4.36667,-1.36667 8.21667,-1.85 11.55,-1.45c3.03424,0.15651 5.85091,0.48984 8.45,1c-0.46667,-3.65612 -0.7,-6.18945 -0.7,-7.6c0,-0.19362 0,-0.37695 0,-0.55c1.28503,-0.42604 2.66836,-0.97604 4.15,-1.65M812.2,340.6c3.11029,1.28854 7.41029,2.87188 12.9,4.75c0.14414,0.06719 0.29414,0.13385 0.45,0.2c0.30469,0.14792 0.62135,0.29792 0.95,0.45c3.2375,1.49831 7.30417,3.34831 12.2,5.55c1.52292,0.76146 2.93958,1.56146 4.25,2.4c2.50117,1.58073 4.63451,3.2974 6.4,5.15c8.46667,8.76667 13.28333,15.15 14.45,19.15c0.53333,1.8 0.75,4.13333 0.65,7c-0.06667,1.76667 -0.18333,5.05 -0.35,9.85c0,7.56667 -1.31667,17.06667 -3.95,28.5c-0.63398,2.75365 -1.30065,5.23698 -2,7.45c-1.40065,-0.08581 -3.63398,-0.40247 -6.7,-0.95c-0.54479,-0.09727 -1.06146,-0.19727 -1.55,-0.3c0.71458,-1.72201 1.28125,-3.13867 1.7,-4.25c4.33333,-11.56667 6.5,-21.96667 6.5,-31.2c0,-10.7 -3.16667,-19.56667 -9.5,-26.6c-2.76276,-3.06094 -6.34609,-5.94427 -10.75,-8.65c-2.99219,-1.81146 -6.35885,-3.54479 -10.1,-5.2c-1.57604,-0.61693 -3.07604,-1.21693 -4.5,-1.8c-1.93516,-0.75755 -3.73516,-1.49089 -5.4,-2.2c-3.81042,-1.56081 -6.87708,-2.89414 -9.2,-4c1.33854,-2.17695 2.52187,-3.94362 3.55,-5.3M715.75,300.45c3.30104,-1.0388 5.83437,-1.5388 7.6,-1.5c5.80885,-5.07174 11.47552,-9.85508 17,-14.35c-2.55404,3.59661 -6.70404,8.62995 -12.45,15.1c1.06797,-1.26589 2.41797,-2.91589 4.05,-4.95c-5.56992,6.54557 -8.63659,10.12891 -9.2,10.75c-2.84518,3.13503 -5.29518,5.76836 -7.35,7.9c12.36706,-1.25482 22.83372,1.34518 31.4,7.8c1.27214,0.95208 2.4888,1.98542 3.65,3.1c0.65664,-1.62474 1.52331,-3.69141 2.6,-6.2c2.42122,-5.53971 5.93789,-13.23971 10.55,-23.1c4.47839,-9.57956 8.51172,-17.97956 12.1,-25.2c1.50391,-1.15612 3.05391,-2.37279 4.65,-3.65c1.50456,-1.16406 3.03789,-2.38073 4.6,-3.65c-0.46159,1.21445 -0.97826,2.51445 -1.55,3.9c-2.15469,5.24753 -4.95469,11.81419 -8.4,19.7c-2.19961,5.0138 -4.28294,9.6638 -6.25,13.95c0.2125,0.06315 0.42917,0.11315 0.65,0.15c-0.6513,1.52148 -1.28464,3.00482 -1.9,4.45c-0.23867,-0.12643 -0.47201,-0.25977 -0.7,-0.4c-1.4651,3.13659 -2.8651,6.05326 -4.2,8.75c-0.62083,1.27279 -1.2375,2.48945 -1.85,3.65c0.2349,0.02526 0.46823,0.04193 0.7,0.05c0.07669,0.00286 0.14336,0.00286 0.2,0c-0.42552,0.81771 -0.90885,1.76771 -1.45,2.85c-0.76159,1.62656 -1.41159,2.97656 -1.95,4.05c-0.34245,-0.00378 -0.70911,-0.02044 -1.1,-0.05c-0.97292,1.80859 -1.90625,3.44193 -2.8,4.9c0.36107,0.43151 0.71107,0.86484 1.05,1.3c2.51367,3.19544 4.66367,6.69544 6.45,10.5c0.99674,2.15404 1.88008,4.40404 2.65,6.75c0.05339,0.15807 0.10339,0.30807 0.15,0.45c0.93815,2.8362 1.60482,5.3862 2,7.65c0.17344,-0.07734 0.35677,-0.16068 0.55,-0.25c0.10885,1.55417 0.24219,3.37083 0.4,5.45c0.03021,0.39349 0.06354,0.77682 0.1,1.15c-0.2293,0.20964 -0.46263,0.3763 -0.7,0.5c-0.20013,2.82878 -0.80013,6.04544 -1.8,9.65c-0.14115,0.51263 -0.29115,1.01263 -0.45,1.5c-1.60404,5.35091 -3.83737,10.23424 -6.7,14.65c-2.99883,4.62318 -6.48216,8.45651 -10.45,11.5c-6.6957,5.14076 -14.77904,8.04076 -24.25,8.7c-1.37773,0.1 -2.7944,0.15 -4.25,0.15c-2.77044,0 -5.43711,-0.11667 -8,-0.35c-5.62591,-0.52331 -10.70924,-1.62331 -15.25,-3.3c-8.25208,-3.05781 -14.68542,-8.02448 -19.3,-14.9c-2.2056,-3.3319 -3.88893,-6.86523 -5.05,-10.6c-0.33841,-2.27526 -0.63841,-4.30859 -0.9,-6.1c-0.05117,-0.36146 -0.10117,-0.71146 -0.15,-1.05c-0.42253,-3.15156 -0.73919,-5.7849 -0.95,-7.9c0.08216,-3.02578 0.34883,-5.95911 0.8,-8.8c0.55924,-3.31589 1.37591,-6.49922 2.45,-9.55c0.06029,-0.09206 0.11029,-0.19206 0.15,-0.3c-0.36602,0.16237 -0.74935,0.31237 -1.15,0.45c-1.25417,0.5569 -2.60417,1.09023 -4.05,1.6c-2.14961,0.68841 -4.09961,1.32174 -5.85,1.9c-3.07187,1.04401 -5.52188,1.92734 -7.35,2.65c-9.03685,3.51589 -15.20352,8.78255 -18.5,15.8c-0.47409,1.02578 -0.89076,2.09245 -1.25,3.2c-0.06667,0.26667 -2.61667,6.11667 -7.65,17.55c-0.94531,2.15404 -1.77865,4.15404 -2.5,6c-0.21159,-0.57552 -0.42826,-1.17552 -0.65,-1.8c-0.83255,-2.32852 -1.54922,-4.36185 -2.15,-6.1c0.01875,-0.03151 0.03542,-0.06484 0.05,-0.1c2.2,-5.3 4.75,-11.23333 7.65,-17.8c0.38242,-1.0651 0.79909,-2.09844 1.25,-3.1c3.95495,-8.74635 10.55495,-14.92969 19.8,-18.55c5.2776,-2.08164 13.3776,-4.16497 24.3,-6.25c0.5862,-1.19844 1.21953,-2.38177 1.9,-3.55c0.06667,-0.08971 0.13333,-0.18971 0.2,-0.3c1.20495,-1.99375 2.55495,-3.91042 4.05,-5.75c0.74922,-0.92187 1.51589,-1.80521 2.3,-2.65c-0.13008,-0.42187 -0.26341,-0.87188 -0.4,-1.35c-0.03802,-0.13503 -0.07135,-0.26836 -0.1,-0.4c-0.02422,-0.08776 -0.05755,-0.17109 -0.1,-0.25c-0.46667,-1.81641 -0.7,-3.21641 -0.7,-4.2c0,-0.24518 0.01667,-0.49518 0.05,-0.75c0.66419,-3.05612 5.13086,-6.95612 13.4,-11.7c1.76107,-0.99818 3.67773,-2.03151 5.75,-3.1c5.26667,-2.73333 10.11667,-4.81667 14.55,-6.25M713.3,305.75c-4.63333,1.76667 -9.06667,4.01667 -13.3,6.75c-4.80768,3.11549 -8.30768,6.06549 -10.5,8.85c-0.81133,1.03594 -1.44466,2.03594 -1.9,3c5.28711,-4.39883 11.40378,-7.49883 18.35,-9.3c1.97695,-2.14049 5.71029,-5.67383 11.2,-10.6c-1.22643,0.36641 -2.50977,0.79974 -3.85,1.3M679.7,343.25c-0.21068,0.39661 -0.41068,0.79661 -0.6,1.2c-2.47695,5.18971 -3.82695,11.58971 -4.05,19.2h0.05c0.33333,0.1 0.5,0.66667 0.5,1.7c-0.18125,0.34831 -0.36458,0.69831 -0.55,1.05c0.04063,2.14714 0.27396,4.23047 0.7,6.25c1.14049,5.3362 3.62383,10.26953 7.45,14.8c3.9319,4.67122 8.94857,8.15456 15.05,10.45c6.03372,2.3 13.11706,3.45 21.25,3.45c2.27904,0 4.46237,-0.13333 6.55,-0.4c12.28828,-1.54388 21.60495,-7.59388 27.95,-18.15c1.19219,-1.97643 2.24219,-4.05977 3.15,-6.25c1.02943,-2.44896 1.87943,-5.03229 2.55,-7.75c0.9,-3.6 1.35,-6.56667 1.35,-8.9c0,-2.67031 -0.61667,-5.87031 -1.85,-9.6c-0.13151,-0.45716 -0.28151,-0.92383 -0.45,-1.4c-0.75638,-2.19102 -1.63971,-4.29102 -2.65,-6.3c-1.58815,-3.08242 -3.48815,-5.93242 -5.7,-8.55c-3.26198,-3.8888 -6.97865,-7.00547 -11.15,-9.35c-8.8776,-4.94661 -19.81094,-6.32995 -32.8,-4.15c-12.7,6.6 -21.36667,13.73333 -26,21.4c-0.25586,0.42643 -0.50586,0.85977 -0.75,1.3M650.45,556.45c6.53333,3.96667 9.8,8.26667 9.8,12.9c0,2.96667 -1.5,6.08333 -4.5,9.35c-3.86667,4.16667 -8.86667,6.25 -15,6.25c-3.36979,0 -7.61979,-0.91667 -12.75,-2.75c-1.68724,-1.81081 -3.47057,-4.21081 -5.35,-7.2c-0.92982,-1.47227 -1.74648,-2.87227 -2.45,-4.2c2.44336,0.64922 5.31003,1.83255 8.6,3.55c5.3,2.73333 9.06667,4.1 11.3,4.1c5,0 8.71667,-1.48333 11.15,-4.45c0.8,-0.96667 1.41667,-2.03333 1.85,-3.2c0.26667,-0.73333 0.4,-1.26667 0.4,-1.6c0,-1.1 -3.63333,-4.23333 -10.9,-9.4c-1.64935,-1.1707 -3.21602,-2.30404 -4.7,-3.4c0.55872,-0.19727 1.15872,-0.41393 1.8,-0.65c2.76667,-1.01042 5.01667,-1.67708 6.75,-2c0.03854,0.16276 0.07187,0.31276 0.1,0.45c1.16667,0.7 2.46667,1.45 3.9,2.25M645,546.8c0.73164,-0.57409 1.66497,-1.10742 2.8,-1.6c0.94818,-0.36198 2.03151,-0.69531 3.25,-1c2.93333,-0.73333 7.33333,-1.68333 13.2,-2.85c2.75208,-0.92839 6.15208,-1.71172 10.2,-2.35c0.04505,0.00339 0.07839,0.00339 0.1,0c0.8,-0.1 3.78333,-0.48333 8.95,-1.15c-3.5099,1.63294 -6.9099,3.18294 -10.2,4.65c-2.53021,1.15143 -4.99687,2.25143 -7.4,3.3c-2.57617,1.14049 -4.90951,2.14049 -7,3c-5.36237,2.25625 -9.0457,3.58958 -11.05,4c-1.31471,-2.60208 -2.04805,-4.08542 -2.2,-4.45c-0.24023,-0.54258 -0.4569,-1.05924 -0.65,-1.55M798.45,578.45c0.16667,-0.1 0.35,-0.16667 0.55,-0.2c0.56667,-0.1 1.05,0.05 1.45,0.45c0.16667,0 0.35,0 0.55,0c2.5,0 5.23333,-1.58333 8.2,-4.75c2.93333,-3.16667 5.4,-4.75 7.4,-4.75c1.7,0 3.93333,1.03333 6.7,3.1c3.2,2.36667 5.96667,3.83333 8.3,4.4h5.75c1.35964,-0.81367 2.60964,-1.83034 3.75,-3.05c1.01172,1.61693 2.21172,3.38359 3.6,5.3c-2.95078,2.5 -6.48411,3.75 -10.6,3.75c-3.2,0 -7.08333,-1.03333 -11.65,-3.1c-3.96667,-2.1 -6.08333,-3.15 -6.35,-3.15c-0.96667,0 -2.85,1.38333 -5.65,4.15c-2.73333,2.66667 -5.6,4.03333 -8.6,4.1c0,0.33333 0,0.66667 0,1c0,4.93333 -1.4,9.93333 -4.2,15c-3.80026,6.80638 -9.33359,10.70638 -16.6,11.7c-3.3138,-1.54753 -5.44714,-2.74753 -6.4,-3.6c-0.82214,-0.71328 -1.50547,-1.56328 -2.05,-2.55c1.42539,0.3 3.05872,0.45 4.9,0.45c7.23333,0 12.31667,-2.61667 15.25,-7.85c1.6,-2.86667 2.46667,-6.33333 2.6,-10.4c0.13333,-1.7 0.31667,-3.18333 0.55,-4.45c-0.17813,-0.04505 -0.36146,-0.09505 -0.55,-0.15c0.38802,-1.59857 0.85469,-3.56523 1.4,-5.9c0.55612,0.20742 1.12279,0.37409 1.7,0.5M660.15,299.35c-0.4599,0.68516 -0.92656,1.38516 -1.4,2.1c-0.93255,1.43724 -1.89922,2.93724 -2.9,4.5c-1.42135,-0.57904 -2.98802,-1.22904 -4.7,-1.95c0.06354,-0.02669 0.13021,-0.06003 0.2,-0.1c3.40013,-3.36354 6.2168,-6.19688 8.45,-8.5c1.06693,-1.06172 2.00026,-2.01172 2.8,-2.85c1.11315,-1.15299 1.97982,-2.08633 2.6,-2.8c0.03451,-0.02982 0.06784,-0.06315 0.1,-0.1c0.01862,-0.01654 0.03529,-0.0332 0.05,-0.05c-0.01654,0.0362 -0.0332,0.06953 -0.05,0.1h-0.05c-0.32578,0.76484 -0.94245,1.93151 -1.85,3.5c-0.30299,0.5651 -0.65299,1.18177 -1.05,1.85c-0.36471,0.64531 -0.76471,1.32865 -1.2,2.05c-0.45547,0.78372 -0.95547,1.61706 -1.5,2.5c0.17852,-0.08698 0.34518,-0.17031 0.5,-0.25M778.95,260.5c-2.9151,1.81862 -5.9651,3.51862 -9.15,5.1c-9.4375,4.73203 -19.9875,8.3987 -31.65,11c-3.89141,0.86875 -7.90807,1.61875 -12.05,2.25h-8.6c-11.53411,0.03568 -22.06745,-0.59766 -31.6,-1.9c-4.00273,-0.55026 -7.83607,-1.21693 -11.5,-2c-3.9099,-0.84688 -7.62656,-1.83021 -11.15,-2.95c2.90885,-1.93333 4.82552,-2.9 5.75,-2.9c1.99961,0 7.74961,0.5 17.25,1.5c3.63763,0.3987 7.82096,0.86536 12.55,1.4c1.26445,0.17122 2.51445,0.32122 3.75,0.45c0.37995,0.03346 0.74661,0.0668 1.1,0.1c0.12174,0.02057 0.23841,0.03724 0.35,0.05c0.02773,0 0.0444,0 0.05,0c5.94987,0.54089 11.5832,0.62422 16.9,0.25h4.4c0.34753,-0.04323 0.69753,-0.09323 1.05,-0.15c11.04518,-1.42904 21.16185,-3.82904 30.35,-7.2c9.67044,-3.51758 18.30378,-8.10091 25.9,-13.75c-1.31224,3.07747 -2.54557,5.99414 -3.7,8.75M828.1,165.35c0,11.82031 -1.4,22.95365 -4.2,33.4c-1.89089,-0.81953 -3.74089,-1.45286 -5.55,-1.9c2.5,-9.79727 3.75,-20.24727 3.75,-31.35c0,-9.06667 -1.96667,-18 -5.9,-26.8c-4.06667,-9.2 -10.43333,-18.65 -19.1,-28.35c-0.17904,-0.20052 -0.36237,-0.40052 -0.55,-0.6c-1.34544,-1.47878 -2.74544,-2.89544 -4.2,-4.25c-11.25781,-10.42591 -25.52448,-16.75924 -42.8,-19c0.16549,-1.28516 0.33216,-2.66849 0.5,-4.15c0.07018,-0.64232 0.13685,-1.27565 0.2,-1.9c15.76185,2.31055 28.32852,6.84388 37.7,13.6c1.0694,0.7681 2.20273,1.65143 3.4,2.65c2.9362,2.47083 6.26953,5.65417 10,9.55c1.64271,1.69609 3.17604,3.22943 4.6,4.6c3.03737,2.90534 5.58737,5.07201 7.65,6.5c5.8,7.86667 9.8,16.01667 12,24.45c1.66667,6.4 2.5,14.25 2.5,23.55z" fill="#210c2a"/><path d="M712.5,562c-0.0806,-0.24453 -0.16393,-0.49453 -0.25,-0.75c-0.4138,-1.36302 -0.73047,-2.64635 -0.95,-3.85c0.76068,0.87786 1.61068,1.69453 2.55,2.45c0.77318,0.63984 1.58984,1.22318 2.45,1.75c0.7556,3.59492 1.82227,6.67826 3.2,9.25c0.25677,0.46458 0.5401,0.98125 0.85,1.55c-1.19453,-0.83164 -2.3112,-1.74831 -3.35,-2.75c-0.93581,-0.90964 -1.78581,-1.85964 -2.55,-2.85c-0.75065,-1.53815 -1.40065,-3.13815 -1.95,-4.8M728.9,582.15c-4.14115,-2.26029 -7.69115,-5.31029 -10.65,-9.15l-0.1,-0.1c-0.06185,-0.10781 -0.12852,-0.22448 -0.2,-0.35c1.30547,1.12865 2.67214,2.14531 4.1,3.05c0.07253,0.11875 0.13919,0.23542 0.2,0.35c1.16667,1.76667 2.83333,3.4 5,4.9c0.3112,0.20742 0.8612,0.64076 1.65,1.3M711,554.2c0,-0.90039 0.01667,-1.80039 0.05,-2.7c1.16419,1.63724 2.61419,3.18724 4.35,4.65c0.12617,1.03112 0.27617,2.04779 0.45,3.05c-0.47201,-0.28151 -0.92201,-0.58151 -1.35,-0.9c-1.33333,-1.03333 -2.46667,-2.21667 -3.4,-3.55c-0.03203,-0.05247 -0.06536,-0.10247 -0.1,-0.15c0,-0.1362 0,-0.26953 0,-0.4M738.85,585.8l-4.5,-1.25c-1.71784,-1.26419 -3.73451,-3.19753 -6.05,-5.8c5.01367,1.9875 10.64701,3.02083 16.9,3.1c1.69258,2.04909 3.25924,3.74909 4.7,5.1c-0.59844,-0.00182 -1.19844,-0.01849 -1.8,-0.05l-6.35,-0.55c-0.26471,-0.05026 -0.54805,-0.10026 -0.85,-0.15c-0.0224,-0.07435 -0.05573,-0.14102 -0.1,-0.2c-0.13333,-0.16667 -0.4,-0.38333 -0.8,-0.65c-0.12448,0.34245 -0.22448,0.54245 -0.3,0.6c-0.27474,-0.04089 -0.55807,-0.09089 -0.85,-0.15M734.95,565.8c0.49089,1.10742 1.00755,2.17409 1.55,3.2c1.64622,3.1862 3.81289,6.51953 6.5,10c-6.90117,-0.26914 -12.81784,-1.53581 -17.75,-3.8c-1.99388,-2.44805 -3.29388,-4.34805 -3.9,-5.7c-0.93099,-2.08307 -1.71432,-4.21641 -2.35,-6.4c4.01081,1.83333 8.76081,2.75 14.25,2.75c0.57969,0 1.14635,-0.01667 1.7,-0.05M757,565.1c3.28581,5.67552 5.26914,9.10885 5.95,10.3c-4.68086,2.44466 -10.23086,3.67799 -16.65,3.7c-3.80586,-4.46628 -6.67253,-8.93294 -8.6,-13.4c6.20443,-0.42891 12.18776,-1.74557 17.95,-3.95c0.43437,1.41862 0.88437,2.53529 1.35,3.35M770.2,574.5c0.47539,0.90977 0.97539,1.72643 1.5,2.45c-0.58867,0.90742 -1.28867,1.79076 -2.1,2.65c-0.90091,-1.04779 -1.76758,-2.11445 -2.6,-3.2c1.28477,-0.64466 2.35143,-1.27799 3.2,-1.9M767.6,581.45c-3.29909,2.78411 -7.44909,4.50078 -12.45,5.15c-1.73698,-0.54857 -3.88698,-2.16523 -6.45,-4.85c5.2793,-0.34036 10.5293,-1.70703 15.75,-4.1c1.15378,1.62135 2.20378,2.88802 3.15,3.8M767.15,565.55c0.49779,2.23268 1.08112,4.23268 1.75,6c-1.06276,0.83789 -2.26276,1.67122 -3.6,2.5c-2.92409,-4.28919 -5.17409,-8.78919 -6.75,-13.5c0.06927,-0.00508 0.13594,-0.02174 0.2,-0.05c0.08971,-0.03984 0.17305,-0.08984 0.25,-0.15c2.86784,-1.25872 5.11784,-2.42539 6.75,-3.5c0.31758,3.01354 0.76758,5.81354 1.35,8.4c0.01354,0.1125 0.03021,0.2125 0.05,0.3M771.05,552.55c1.74661,-0.07891 3.94661,-0.22891 6.6,-0.45c0.97773,-0.08151 1.87773,-0.16484 2.7,-0.25c0,0.80378 0,1.63711 0,2.5c0,0.1 0.03333,1.76667 0.1,5c0.15039,2.1431 0.41706,4.17643 0.8,6.1c0.29727,1.50039 0.66393,2.93372 1.1,4.3c0.6,1.86667 1.31667,3.56667 2.15,5.1c-1.66667,0.4 -2.96667,0.6 -3.9,0.6c-0.53333,0 -1.03333,-0.1 -1.5,-0.3c-0.03333,-0.56667 -0.1,-1.1 -0.2,-1.6c-0.43333,-2.06667 -1.36667,-3.1 -2.8,-3.1c-0.3,0 -0.58333,0.01667 -0.85,0.05c-0.50846,-1.11458 -0.9918,-2.41458 -1.45,-3.9c-0.31068,-1.04036 -0.61068,-2.1737 -0.9,-3.4c-0.90339,-3.81211 -1.52005,-7.29544 -1.85,-10.45c0.00951,-0.06029 0.00951,-0.12695 0,-0.2M772.6,536.8c0.96667,0.1 1.96667,0.15 3,0.15c2.46667,0 4.66667,-0.2 6.6,-0.6c-0.73333,2.06667 -1.23333,3.91667 -1.5,5.55c-0.10286,0.63151 -0.1862,1.78151 -0.25,3.45c-3.98073,0.36458 -7.11406,0.59792 -9.4,0.7c0.19258,-1.53255 0.54258,-3.69922 1.05,-6.5c0.2,-1.03333 0.36667,-1.95 0.5,-2.75M717.95,558.1c2.95156,2.05716 6.1349,3.62383 9.55,4.7c-3.48086,-0.38021 -6.51419,-1.13021 -9.1,-2.25c-0.16745,-0.81224 -0.31745,-1.62891 -0.45,-2.45M863.35,558.35c0,0.2 0.08333,2.28333 0.25,6.25c0.1,1.56667 -0.06667,2.6 -0.5,3.1c-0.66667,0.83333 -4.5,1.25 -11.5,1.25c-0.1,-0.06667 -0.18333,-0.11667 -0.25,-0.15c0.2,-0.5 0.38333,-1.01667 0.55,-1.55c1.96667,-5.8 2.95,-11.81667 2.95,-18.05c0,-0.7 -0.15,-1.81667 -0.45,-3.35c0.73333,0.13333 1.63333,0.28333 2.7,0.45c4.16667,1.03333 6.25,5.05 6.25,12.05z" fill="#343545"/><path d="M716.5,538.75c-0.93333,3.84479 -1.4,7.66146 -1.4,11.45c0,2.00521 0.1,3.98854 0.3,5.95c-1.73581,-1.46276 -3.18581,-3.01276 -4.35,-4.65c0.19466,-3.63255 0.76133,-7.16589 1.7,-10.6c1.34453,-0.86823 2.59453,-1.5849 3.75,-2.15M770.9,550.05c-0.03333,-0.62578 -0.05,-1.24245 -0.05,-1.85c0,-0.45638 0.06667,-1.17305 0.2,-2.15c2.28594,-0.10208 5.41927,-0.33542 9.4,-0.7c-0.04818,1.51055 -0.08151,3.42721 -0.1,5.75c0,0.25703 0,0.50703 0,0.75c-0.82227,0.08516 -1.72227,0.16849 -2.7,0.25c-2.65339,0.22109 -4.85339,0.37109 -6.6,0.45c-0.07227,-0.85299 -0.12227,-1.68633 -0.15,-2.5M758.3,557.65c-0.18503,0.09128 -0.36836,0.17461 -0.55,0.25c-1.26667,-4.54622 -1.9,-9.27956 -1.9,-14.2c0,-2.35885 0.15,-4.85885 0.45,-7.5c2.61133,1.14792 5.04466,2.51458 7.3,4.1c0.02917,0.02109 0.04583,0.03776 0.05,0.05c0.67344,0.47695 1.27344,0.92695 1.8,1.35c-0.06667,2.01771 -0.1,4.48438 -0.1,7.4c0,0.06081 0.05,1.51081 0.15,4.35c-0.15443,0.11927 -0.32109,0.23594 -0.5,0.35c-2.59518,1.64245 -4.81185,2.90911 -6.65,3.8c-0.00677,0.02031 -0.02344,0.03698 -0.05,0.05M738.75,534.45l13.6,0.25c0.675,0.22318 1.34167,0.45651 2,0.7c-0.56667,4.17005 -0.85,8.12005 -0.85,11.85c0,2.53333 0.33333,5.65 1,9.35c0.16445,0.90417 0.33112,1.7375 0.5,2.5c-5.57591,2.27904 -11.67591,3.57904 -18.3,3.9c-2.23333,-6.42734 -3.35,-14.52734 -3.35,-24.3c0,-0.87852 0.11667,-2.07852 0.35,-3.6c1.58516,-0.20482 3.26849,-0.42148 5.05,-0.65M721.8,523.6c0.81198,-0.88112 1.66198,-1.71445 2.55,-2.5c-0.32266,0.45664 -0.63932,0.93997 -0.95,1.45c-0.51016,0.32005 -1.04349,0.67005 -1.6,1.05M737.2,514.25c0.86107,-0.23307 1.72773,-0.44974 2.6,-0.65c-0.74857,0.93021 -1.46523,1.88021 -2.15,2.85c-1.92969,0.52253 -3.46302,1.00586 -4.6,1.45c-1.79284,0.85742 -3.57617,1.65742 -5.35,2.4c1.19336,-1.39544 2.46003,-2.71211 3.8,-3.95c0.23737,-0.0888 0.4707,-0.1888 0.7,-0.3l4.7,-1.7c0.11055,-0.03724 0.21055,-0.07057 0.3,-0.1M758.05,526.9c2.09896,3.68867 4.81562,6.37201 8.15,8.05c-0.1,0.43333 -0.2,0.9 -0.3,1.4c-0.06706,0.37786 -0.13372,0.82786 -0.2,1.35c-0.90651,-0.60586 -2.00651,-1.22253 -3.3,-1.85c-2.24883,-0.90247 -4.16549,-1.66914 -5.75,-2.3c0.11849,-0.64583 0.23516,-1.29583 0.35,-1.95c0.31719,-1.7763 0.66719,-3.34297 1.05,-4.7M754.95,519.2l0.15,0.6c0.01784,0.04688 0.03451,0.09688 0.05,0.15c0.46576,1.5668 0.99909,3.0168 1.6,4.35c-0.65052,1.70221 -1.23385,4.00221 -1.75,6.9c-0.09049,0.51914 -0.17383,1.03581 -0.25,1.55c-1.09427,-0.45117 -1.9276,-0.80117 -2.5,-1.05h-13.5c-1.50573,0.14089 -3.00573,0.30755 -4.5,0.5c0.10573,-0.37956 0.20573,-0.77956 0.3,-1.2c0.66667,-2.96667 1.23333,-5.15 1.7,-6.55c0.57422,-1.76888 1.52422,-3.78555 2.85,-6.05c3.15729,-0.8 6.34063,-1.2 9.55,-1.2c2.35026,0 4.35026,0.35 6,1.05c0.10312,0.32695 0.20313,0.64362 0.3,0.95M748.25,518.15c-3.26667,-0.9 -4.9,0.16667 -4.9,3.2c0,2.1 1.13333,3.46667 3.4,4.1c1.86667,-0.13333 3.36667,-0.45 4.5,-0.95c1.23333,-0.53333 1.85,-1.21667 1.85,-2.05c0,-0.8 -0.5,-1.63333 -1.5,-2.5c-1,-0.83333 -2.11667,-1.43333 -3.35,-1.8M743.5,527.2c0,-1 -0.5,-1.61667 -1.5,-1.85c-1.06667,-0.26667 -1.86667,0.26667 -2.4,1.6c0.23333,0.23333 0.55,0.61667 0.95,1.15c0.46667,0.46667 1.03333,0.71667 1.7,0.75l1,-0.25c0.16667,-0.1 0.25,-0.56667 0.25,-1.4M754,515.05c-3.13893,-0.73633 -6.5556,-0.71966 -10.25,0.05c-1.0487,0.2168 -2.03203,0.4168 -2.95,0.6c0.11185,-0.15365 0.22852,-0.32031 0.35,-0.5c0.52396,-0.76641 0.99062,-1.44974 1.4,-2.05c0.11823,-0.00013 0.2349,-0.0168 0.35,-0.05l5.55,-0.4c0.09115,0.0013 0.17448,0.0013 0.25,0c0.10482,0.00117 0.20482,0.00117 0.3,0c0.08672,0.00039 0.15339,0.00039 0.2,0c0.14492,0 0.27826,0 0.4,0c0.83333,0 1.91667,0.33333 3.25,1c0.33333,0.16667 0.66667,0.31667 1,0.45c0.04909,0.29961 0.09909,0.59961 0.15,0.9M720.95,531.9c0.92227,-2.31107 1.98893,-4.47773 3.2,-6.5c3.87917,-2.66875 7.8125,-4.68542 11.8,-6.05c-1.29714,2.44349 -2.33047,5.09349 -3.1,7.95c-0.41823,1.58255 -0.76823,3.34922 -1.05,5.3c-4.20039,0.70286 -8.25039,1.66953 -12.15,2.9c0.38451,-1.20117 0.81784,-2.40117 1.3,-3.6M718.95,537.85c2.47227,-0.73398 6.63893,-1.53398 12.5,-2.4c-0.3,3.1457 -0.45,6.6957 -0.45,10.65c0,3.73333 0.43333,7.53333 1.3,11.4c0.44727,1.94375 0.9806,3.81042 1.6,5.6c-0.21042,0 -0.42708,0 -0.65,0c-2.03346,0 -3.95013,-0.1 -5.75,-0.3c-3.4151,-1.07617 -6.59844,-2.64284 -9.55,-4.7c-0.4,-2.51836 -0.6,-5.10169 -0.6,-7.75c0,-4.25026 0.53333,-8.41693 1.6,-12.5M717.2,536.35c-1.07969,0.38451 -2.04635,0.76784 -2.9,1.15c1.96667,-2.97253 2.95,-4.98919 2.95,-6.05c0,-0.15495 0,-0.30495 0,-0.45c0.95911,-0.90104 1.95911,-1.80104 3,-2.7c-1.23542,2.69961 -2.25208,5.38294 -3.05,8.05z" fill="#485e84"/><path d="M714.5,522.65c-0.16745,0.18008 -0.33411,0.36341 -0.5,0.55c-2.80977,3.13268 -4.97643,7.91602 -6.5,14.35c-0.06758,0.0862 -0.13424,0.15286 -0.2,0.2c-0.10104,0.12708 -0.20104,0.24375 -0.3,0.35c-0.05534,-0.08607 -0.12201,-0.18607 -0.2,-0.3c-0.08333,-0.14518 -0.18333,-0.31185 -0.3,-0.5c-0.24479,-0.43646 -0.49479,-0.91979 -0.75,-1.45c-1.36276,-2.76042 -2.69609,-6.54375 -4,-11.35c-0.59427,-2.19479 -1.1276,-4.14479 -1.6,-5.85c0.65781,0.32279 1.30781,0.62279 1.95,0.9c4.3724,1.82396 8.50573,2.85729 12.4,3.1M723.25,408.25c-2.96667,6.9 -5.46667,10.35 -7.5,10.35c-3.33333,0 -5,-2.33333 -5,-7c0,-1.08451 0.11667,-2.36784 0.35,-3.85c2.56289,0.23333 5.22956,0.35 8,0.35c1.4556,0 2.87227,-0.05 4.25,-0.15c-0.02409,0.10052 -0.05742,0.20052 -0.1,0.3M769.25,378.1c-1.06667,5.96667 -2.73333,11.8 -5,17.5c-4.5,11.33333 -9.75,17 -15.75,17c-1.26667,0 -2.01667,-0.16667 -2.25,-0.5c-0.33333,-0.46667 -0.5,-1.88333 -0.5,-4.25c0,-1.9293 0.61667,-4.79596 1.85,-8.6c3.96784,-3.04349 7.45117,-6.87682 10.45,-11.5c2.86263,-4.41576 5.09596,-9.29909 6.7,-14.65c1.29857,0.10547 2.29857,0.4388 3,1c1,0.8 1.5,2.13333 1.5,4M822.6,526.45c-0.76667,-0.96667 -1.63333,-1.86667 -2.6,-2.7c-0.1,-0.16667 -0.2,-0.31667 -0.3,-0.45c-1.6,-2.2 -3.8,-3.81667 -6.6,-4.85c-4.8,-1.36667 -9.13333,-1.48333 -13,-0.35c-2.2,0.23333 -4.18333,0.78333 -5.95,1.65c-0.26589,-0.38411 -0.53255,-0.76745 -0.8,-1.15c-0.30299,-0.48411 -0.60299,-0.96745 -0.9,-1.45c0.2,0.1 0.41667,0.2 0.65,0.3c1.5,-0.5 3.9,-1.03333 7.2,-1.6c3.26667,-0.6 5.53333,-0.9 6.8,-0.9c7,0 12.8,2.16667 17.4,6.5c0.40195,0.35729 0.91862,0.87396 1.55,1.55c0.30352,0.34844 0.63685,0.73177 1,1.15c-2.7,1.46667 -4.18333,2.23333 -4.45,2.3M676.75,337.15c0.03346,-2.3806 0.7668,-4.5806 2.2,-6.6c0.76563,-1.08672 2.01563,-2.45339 3.75,-4.1c0.04245,0.07891 0.07578,0.16224 0.1,0.25c0.02865,0.13164 0.06198,0.26497 0.1,0.4c0.13659,0.47812 0.26992,0.92813 0.4,1.35c-0.78411,0.84479 -1.55078,1.72812 -2.3,2.65c-1.49505,1.83958 -2.84505,3.75625 -4.05,5.75c-0.06667,0.11029 -0.13333,0.21029 -0.2,0.3M691.4,341.15c5.6,-7.33333 13.55,-12.6 23.85,-15.8c5.89245,-1.81055 12.19245,-1.26055 18.9,1.65c0.08216,0.0293 0.16549,0.06263 0.25,0.1c5.7,2.53333 9.56667,5.5 11.6,8.9c1.49844,3.31992 2.9651,6.55326 4.4,9.7c0.20625,0.41432 0.40625,0.83099 0.6,1.25c0.83333,2.23333 1.25,5.33333 1.25,9.3c0,2.03333 -0.43333,4.68333 -1.3,7.95c-1.13333,4.46667 -2.78333,8.53333 -4.95,12.2c-6.3,10.66667 -15.55,16 -27.75,16c-5.87513,0 -11.02513,-0.91667 -15.45,-2.75c-5.72409,-2.37357 -10.22409,-6.29023 -13.5,-11.75c-3.33333,-5.53333 -5,-11.26667 -5,-17.2c0,-6.55456 2.16667,-12.82122 6.5,-18.8c0.2069,-0.24701 0.4069,-0.49701 0.6,-0.75M610.95,522.4c3.5,1.16667 6.51667,2.71667 9.05,4.65c2.7,2.1 6.11667,5.48333 10.25,10.15c0.35833,0.32448 0.75833,0.74115 1.2,1.25c1.81849,2.06458 4.40182,5.64792 7.75,10.75c0.2,0.33333 0.41667,0.66667 0.65,1c-2.96667,-1.93333 -5.41667,-3.85 -7.35,-5.75c-3.50391,-3.88867 -6.57057,-7.23867 -9.2,-10.05c-1.67891,-1.82656 -3.17891,-3.42656 -4.5,-4.8c-2.6,-2.7 -5.21667,-5.1 -7.85,-7.2M615.5,407.2c0,0.06667 0.15,1.85 0.45,5.35c0.4,4.13333 0.91667,7.93333 1.55,11.4c0.6082,3.32474 1.27487,6.14141 2,8.45c1.21667,3.70872 2.6,6.10872 4.15,7.2c-0.19284,1.31003 -0.69284,3.27669 -1.5,5.9c-1.1,3.43333 -1.65,7.13333 -1.65,11.1c0,1.04453 0.15,2.34453 0.45,3.9c-0.57109,0.55339 -1.25443,1.08672 -2.05,1.6c-2.6,1.73333 -5.65,2.6 -9.15,2.6c-8.46667,0 -14.63333,-1.75 -18.5,-5.25c-4.56667,-4.1 -6.85,-11.21667 -6.85,-21.35c0.3,-9.66667 1.71667,-18.91667 4.25,-27.75c4.95247,-17.21914 12.96914,-25.96914 24.05,-26.25c0.45326,2.39323 1.05326,4.7099 1.8,6.95c0.99648,2.98958 2.04648,5.12292 3.15,6.4c-1.43333,4.37526 -2.15,7.62526 -2.15,9.75M617.1,295.55c2.72135,-0.29622 6.20469,-0.84622 10.45,-1.65c4.23333,-0.83333 7.96667,-1.63333 11.2,-2.4l-0.1,0.1c-5.66667,3.96667 -12.61667,8.5 -20.85,13.6c-7.05299,4.37409 -12.30299,7.62409 -15.75,9.75c-1.67214,1.07187 -2.92214,1.85521 -3.75,2.35c-0.14049,0.1194 -0.27383,0.2194 -0.4,0.3c-0.93333,-1.36667 -2.33333,-3.83333 -4.2,-7.4c-0.36849,-0.72161 -0.70182,-1.37161 -1,-1.95l-0.25,-0.5c3.55599,-1.70924 7.70599,-3.74258 12.45,-6.1c3.71758,-1.82773 7.78424,-3.86107 12.2,-6.1M517.7,327c3.7,-7.26667 9.68333,-13.01667 17.95,-17.25c14.86667,-7.63333 26.71667,-7.1 35.55,1.6c3.1,3.06667 5.56667,6.88333 7.4,11.45c1.43333,3.66667 2.15,6.71667 2.15,9.15c0,2.2 -0.56667,5.2 -1.7,9c-0.78581,2.60169 -1.73581,5.08503 -2.85,7.45c-0.97943,2.16523 -2.09609,4.2319 -3.35,6.2c-1.6569,2.57578 -3.4569,4.87578 -5.4,6.9c-7.02148,7.26667 -15.92148,10.9 -26.7,10.9c-10.93333,0 -18.71667,-3.93333 -23.35,-11.8c-2.66667,-4.5 -4,-9.25 -4,-14.25c0,-7.26667 1.43333,-13.71667 4.3,-19.35M780.05,491.85c0.58971,1.58633 1.22305,3.73633 1.9,6.45l-0.1,0.8l0.25,1.1c0.07057,0.10599 0.18724,0.20599 0.35,0.3c0.14271,0.54792 0.27604,1.09792 0.4,1.65c0.11784,0.52656 0.23451,1.0599 0.35,1.6c0.08385,0.37318 0.16719,0.75651 0.25,1.15c1.43333,6.76667 2.8,11.48333 4.1,14.15c0.7,1.43333 1.48333,2.61667 2.35,3.55c-1.4,1.3 -2.6,2.88333 -3.6,4.75c-0.13333,0.13333 -0.26667,0.26667 -0.4,0.4c-2.06667,2.13333 -4.66667,3.2 -7.8,3.2c-1.73333,0 -3.33333,-0.18333 -4.8,-0.55c-0.06667,-0.23333 -0.13333,-0.36667 -0.2,-0.4l-0.25,0.2c-0.7,-0.33333 -1.33333,-0.53333 -1.9,-0.6c-4.36667,-1.86667 -7.56667,-5.66667 -9.6,-11.4c-1.5,-4.23333 -2.25,-9.35 -2.25,-15.35c0,-3.75352 0.33333,-6.83685 1,-9.25c0.08398,-0.25208 0.16732,-0.50208 0.25,-0.75c1.93333,-5.66667 5.73333,-8.5 11.4,-8.5c3.33333,0 5.95,2.13333 7.85,6.4c0.14961,0.33555 0.29961,0.70221 0.45,1.1M653.5,569.2c0,0.33333 -0.13333,0.86667 -0.4,1.6c-0.43333,1.16667 -1.05,2.23333 -1.85,3.2c-2.43333,2.96667 -6.15,4.45 -11.15,4.45c-2.23333,0 -6,-1.36667 -11.3,-4.1c-3.28997,-1.71745 -6.15664,-2.90078 -8.6,-3.55c-1.47031,-0.4 -2.78698,-0.6 -3.95,-0.6c-2.9,0 -4.81667,0.35 -5.75,1.05c-0.8,0.56667 -1.21667,1.71667 -1.25,3.45c-1.33333,0.93333 -2.95,2.11667 -4.85,3.55c-5.53333,4.13333 -9.78333,6.2 -12.75,6.2c-5.1,0 -8.75,-0.58333 -10.95,-1.75c-2.2,-1.16667 -4.01667,-1.75 -5.45,-1.75c-1.5,0 -3.38333,0.96667 -5.65,2.9c-1.36667,1.16667 -3.65,3.28333 -6.85,6.35c-6.76667,6.16667 -13.3,9.25 -19.6,9.25c-3.4,0 -6.45,-0.65 -9.15,-1.95c-2.5,-1.23333 -3.75,-2.5 -3.75,-3.8c0,-4.36667 5.71667,-11.11667 17.15,-20.25c5.7,-4.43333 9.61667,-7.5 11.75,-9.2c2.2,-1.76667 3.73333,-3.15 4.6,-4.15c0.8,-0.33333 1.46667,-0.71667 2,-1.15c-0.06667,-0.23333 -0.3,-0.6 -0.7,-1.1c-0.36667,-0.43333 -0.55,-0.73333 -0.55,-0.9c-18.4,-0.5 -30.63333,-2.01667 -36.7,-4.55c-2.4,-1.03333 -4,-2.28333 -4.8,-3.75c-0.5,-0.9 -0.75,-2.21667 -0.75,-3.95c0,-2.4 0.11667,-3.88333 0.35,-4.45c0.66667,-1.66667 2.46667,-3.26667 5.4,-4.8c1.36667,-0.13333 3.66667,-0.4 6.9,-0.8c2.3,-0.3 3.91667,-0.45 4.85,-0.45c5.66667,0 16.08333,1.75 31.25,5.25c6.56667,1.53333 11.81667,2.73333 15.75,3.6c2.9,1.76667 5.23333,2.65 7,2.65c2,0 3.33333,-0.5 4,-1.5c-0.23333,-0.26667 -0.5,-0.55 -0.8,-0.85c0,-0.26667 0.01667,-0.48333 0.05,-0.65c-0.36667,-0.13333 -0.71667,-0.25 -1.05,-0.35c-1.7,-1.66667 -4.08333,-3.8 -7.15,-6.4c-5.83333,-4.93333 -9.68333,-8.26667 -11.55,-10c-9.5,-8.73333 -14.25,-15.81667 -14.25,-21.25c-0.33333,-1.1 -0.35,-2.08333 -0.05,-2.95c0.6,-1.7 2.5,-2.55 5.7,-2.55c4.64544,0 11.42878,3.8 20.35,11.4c1.32422,1.15156 2.69089,2.36823 4.1,3.65c1.71953,1.5888 3.50286,3.2888 5.35,5.1c7.06667,6.93333 14.83333,15.13333 23.3,24.6l0.25,-0.25c3.47344,3.28047 8.77344,7.5138 15.9,12.7c1.48398,1.09596 3.05065,2.2293 4.7,3.4c7.26667,5.16667 10.9,8.3 10.9,9.4M788.4,579.95c0.04714,0.04414 0.09714,0.07747 0.15,0.1c1.93529,1.7974 4.20195,3.06406 6.8,3.8c0.18854,0.05495 0.37188,0.10495 0.55,0.15c-0.23333,1.26667 -0.41667,2.75 -0.55,4.45c-0.13333,4.06667 -1,7.53333 -2.6,10.4c-2.93333,5.23333 -8.01667,7.85 -15.25,7.85c-1.84128,0 -3.47461,-0.15 -4.9,-0.45c-4.5,-0.94076 -6.75,-3.40742 -6.75,-7.4c0,-1.08281 0.21667,-2.26615 0.65,-3.55c0.7513,-2.02083 2.08464,-4.2875 4,-6.8c0.56667,-0.76667 1.1,-1.46667 1.6,-2.1c2.33333,-1.8 4.1,-3.48333 5.3,-5.05c0.83333,0.23333 1.73333,0.35 2.7,0.35c2.4,0 4.91667,-0.48333 7.55,-1.45c0.26667,-0.1 0.51667,-0.2 0.75,-0.3M836.55,529.05c1.50612,0.58346 2.95612,1.53346 4.35,2.85c1.38789,1.31576 2.72122,2.99909 4,5.05c2.96667,4.8 4.45,8.93333 4.45,12.4c0,4.53333 -0.8,9.15 -2.4,13.85c-1.47083,4.38971 -3.42083,7.87305 -5.85,10.45c-1.14036,1.21966 -2.39036,2.23633 -3.75,3.05h-5.75c-2.33333,-0.56667 -5.1,-2.03333 -8.3,-4.4c-2.76667,-2.06667 -5,-3.1 -6.7,-3.1c-2,0 -4.46667,1.58333 -7.4,4.75c-2.96667,3.16667 -5.7,4.75 -8.2,4.75c-0.2,0 -0.38333,0 -0.55,0c-0.4,-0.4 -0.88333,-0.55 -1.45,-0.45c-0.2,0.03333 -0.38333,0.1 -0.55,0.2c-0.57721,-0.12591 -1.14388,-0.29258 -1.7,-0.5c-1.1487,-0.46419 -2.23203,-1.13086 -3.25,-2c-2.07747,-1.84505 -3.79414,-4.59505 -5.15,-8.25c-0.59258,-1.6 -1.07591,-3.18333 -1.45,-4.75c-0.7,-2.83854 -1.05,-5.62188 -1.05,-8.35c0,-1.54284 0.06667,-3.10951 0.2,-4.7c0.13125,-1.41719 0.31458,-2.85052 0.55,-4.3c0.02096,-0.07812 0.03763,-0.16146 0.05,-0.25c0.40586,-2.2819 0.95586,-4.59857 1.65,-6.95c0.56953,-1.90951 1.20286,-3.67617 1.9,-5.3c1.38255,-3.16055 3.01589,-5.72721 4.9,-7.7c0.03333,0 0.08333,0 0.15,0l0.05,0.05c0.5,0.16667 1.26667,0.25 2.3,0.25c4.73333,-0.33333 8.5,-1.28333 11.3,-2.85c1.36667,0.56667 2.71667,1.38333 4.05,2.45c0.33333,0.26667 0.66667,0.55 1,0.85c0.86667,0.8 2.48333,2.53333 4.85,5.2c1.53333,1.73333 2.63333,2.6 3.3,2.6c1.73333,0 3.56667,-0.91667 5.5,-2.75c1.96667,-1.83333 3.8,-2.75 5.5,-2.75c1.18229,0 2.33229,0.2 3.45,0.6M813.8,210.75c-2.03542,5.05065 -4.45208,9.90065 -7.25,14.55c-2.06055,-2.00378 -3.92721,-3.73711 -5.6,-5.2c2.42904,-3.45026 4.4957,-7.01693 6.2,-10.7c1.84193,0.72057 4.05859,1.17057 6.65,1.35M733.3,308.75c2.7,-2.96667 6.96667,-7.66667 12.8,-14.1c5.1,-5.46667 9.56667,-9.73333 13.4,-12.8c-1.16667,2.93333 -3.11667,8.11667 -5.85,15.55c-2.66667,7.23333 -4.63333,12.38333 -5.9,15.45c-2.46667,-0.36667 -4.5,-0.98333 -6.1,-1.85c-1.46667,-0.8 -4.33333,-1.43333 -8.6,-1.9l0.25,-0.35M646.65,321.25c0.12839,-0.23464 0.26172,-0.46797 0.4,-0.7c0.47305,-0.79453 0.95638,-1.6112 1.45,-2.45c0.17526,-0.28854 0.34193,-0.58854 0.5,-0.9c0.14518,-0.10052 0.27852,-0.21719 0.4,-0.35c-0.03398,0.3638 -0.06732,0.7138 -0.1,1.05c-0.03333,0.48542 -0.05,0.96875 -0.05,1.45c0,2.8 1.25,5.7 3.75,8.7c2.5,2.96667 3.75,4.9 3.75,5.8c0,0.73333 -0.5,1.65 -1.5,2.75c-1.2,1.33333 -2.53333,2 -4,2c-2.33333,0 -3.83333,-1.16667 -4.5,-3.5c-0.33333,-1.13333 -0.5,-3.38333 -0.5,-6.75c0,-3.43333 0.06667,-5.53333 0.2,-6.3c0.05286,-0.27656 0.11953,-0.54323 0.2,-0.8M668.05,316.75c1.13333,1.23333 1.7,2.35 1.7,3.35c0,1.86667 -0.66667,3.2 -2,4c-1.13333,0.66667 -2.88333,1 -5.25,1c-2.1,0 -3.85,-0.83333 -5.25,-2.5c-1.33333,-1.6 -2,-3.51667 -2,-5.75c0,-0.15716 0,-0.32383 0,-0.5c2.67539,-0.73815 5.82539,-1.68815 9.45,-2.85c1.59297,1.49583 2.70964,2.57917 3.35,3.25M701.75,301.6c-1.14258,-0.28568 -1.95924,-0.63568 -2.45,-1.05c3.5888,-1.5888 7.07214,-3.2388 10.45,-4.95c5.70313,-2.88724 10.93646,-5.43724 15.7,-7.65l12.25,-3.85c-2.52214,2.35143 -5.05547,4.5681 -7.6,6.65c-9.26667,7.56667 -17.63333,11.35 -25.1,11.35c-0.8,0 -1.88333,-0.16667 -3.25,-0.5M690.75,171.1c1.66667,1.83333 2.5,3.91667 2.5,6.25c0,3.16667 -1,7.08333 -3,11.75c-2.43333,5.66667 -5.18333,8.5 -8.25,8.5c-1.6,0 -2.85,-0.83333 -3.75,-2.5c-1,-1.86667 -1.5,-4.7 -1.5,-8.5c0,-3.6 1.16667,-7.43333 3.5,-11.5c2.21263,-3.83516 4.4793,-5.98516 6.8,-6.45c1.05964,0.23802 2.10964,0.85469 3.15,1.85c0.18073,0.19349 0.36406,0.39349 0.55,0.6M771.1,247.25c0.1194,-0.06237 0.23607,-0.12904 0.35,-0.2c10.49844,-6.49779 19.08177,-13.81445 25.75,-21.95c2.70234,2.14453 4.86901,3.67786 6.5,4.6c-0.23685,0.39023 -0.48685,0.77357 -0.75,1.15c-13.47852,9.26185 -25.81185,15.72852 -37,19.4c1.77826,-0.96471 3.49492,-1.96471 5.15,-3M719.8,155.8c0.48763,-0.13333 0.97096,-0.2 1.45,-0.2c2.33333,0 4,0.5 5,1.5c1,1.06667 1.5,2.9 1.5,5.5c-0.3,4.56667 -1.13333,9.1 -2.5,13.6c-2.73333,8.93333 -6.73333,13.4 -12,13.4c-1.53333,0 -2.53333,-0.83333 -3,-2.5c-0.33333,-1.16667 -0.5,-3.41667 -0.5,-6.75c0,-4.73333 0.76667,-9.55 2.3,-14.45c1.09271,-3.50417 2.37604,-6.12083 3.85,-7.85c1.33906,-1.17708 2.63906,-1.92708 3.9,-2.25M654.5,143.1c-4.53333,4.26667 -8.35,11.26667 -11.45,21c-0.475,1.49531 -0.90833,2.96198 -1.3,4.4c-1.90638,2.24648 -3.27305,4.72982 -4.1,7.45c-0.93333,3.1 -1.4,7.65 -1.4,13.65c0,11.93333 3.16667,21.93333 9.5,30c6.53333,8.33333 14.86667,12.5 25,12.5c5.96667,0 11.4,-1.13333 16.3,-3.4c5.63333,-2.63333 9.36667,-6.33333 11.2,-11.1c4.36667,5.1 9.15,8.41667 14.35,9.95c3.44557,1.01719 8.96224,1.53385 16.55,1.55c-16.63372,4.83333 -32.51706,7.25 -47.65,7.25c-10.96667,0 -19.05,-1.18333 -24.25,-3.55c-9.23333,-4.2 -15.56667,-12.76667 -19,-25.7c-0.13333,-0.5 -0.71667,-3.26667 -1.75,-8.3c-0.93333,-4.43333 -1.83333,-8.06667 -2.7,-10.9c-1.68437,-5.49948 -3.65104,-9.33281 -5.9,-11.5c-1.23659,-1.17083 -2.56992,-1.8375 -4,-2c1.15117,-3.76276 2.58451,-8.12943 4.3,-13.1c1.20404,-3.51628 2.55404,-7.33294 4.05,-11.45c0.41055,-1.1418 0.86055,-2.2918 1.35,-3.45c3.44609,-7.81458 9.06276,-15.84792 16.85,-24.1c8.7,-9.2 18.38333,-16.85 29.05,-22.95c4.7,-3.46667 11.63333,-6.5 20.8,-9.1c10.2,-2.86667 20.71667,-4.41667 31.55,-4.65c6.22174,-0.13216 12.12174,0.16784 17.7,0.9c17.27552,2.24076 31.54219,8.57409 42.8,19c1.45456,1.35456 2.85456,2.77122 4.2,4.25c0.18763,0.19948 0.37096,0.39948 0.55,0.6c8.66667,9.7 15.03333,19.15 19.1,28.35c3.93333,8.8 5.9,17.73333 5.9,26.8c0,11.10273 -1.25,21.55273 -3.75,31.35c-0.70534,2.78633 -1.52201,5.51966 -2.45,8.2c-1.49818,-0.76615 -3.34818,-1.44948 -5.55,-2.05c-0.19193,-0.05286 -0.39193,-0.10286 -0.6,-0.15c2.4,-6.97643 3.6,-14.30977 3.6,-22c0,-4.7 -0.15,-7.45 -0.45,-8.25c-0.8,-2.06667 -3.4,-4.65 -7.8,-7.75c-2.10898,-0.88581 -4.42565,-0.65247 -6.95,0.7c-0.07747,-0.59596 -0.17747,-1.16263 -0.3,-1.7c0,-4.95156 -0.86667,-8.41823 -2.6,-10.4c-0.16172,-0.17826 -0.32839,-0.34492 -0.5,-0.5c-0.83333,-0.76667 -1.55,-0.85 -2.15,-0.25c-0.66667,0.66667 -1,1.96667 -1,3.9c0.43333,4.3 0.93333,8.53333 1.5,12.7c0.01419,0.10208 0.03086,0.20208 0.05,0.3c-2.01354,2.06523 -4.13021,4.7319 -6.35,8c-0.43242,0.63203 -0.91576,1.3487 -1.45,2.15c-0.45729,-0.86354 -1.02396,-1.73021 -1.7,-2.6c-0.35143,-0.46836 -0.73477,-0.93503 -1.15,-1.4c-0.18646,-0.20612 -0.36979,-0.40612 -0.55,-0.6c0.84141,-2.58216 1.60807,-5.24883 2.3,-8c0.3526,-1.39375 0.68594,-2.81042 1,-4.25c1.4,-6.6 2.1,-11.56667 2.1,-14.9c0,-8.6 -2.03333,-15.73333 -6.1,-21.4c-7.16667,-10.06667 -19.88333,-14.4 -38.15,-13c-9.06667,1.8 -15.55,3.78333 -19.45,5.95c-2.53333,1.36667 -5.96667,4.3 -10.3,8.8c-2.18932,2.78646 -4.12266,5.26979 -5.8,7.45c-0.39245,-2.12201 -1.09245,-3.80534 -2.1,-5.05c-3.43333,-4.4 -12.21667,-6.53333 -26.35,-6.4c-5.76667,2 -10.96667,5.13333 -15.6,9.4c-4.33333,4.66667 -7.33333,7.78333 -9,9.35z" fill="#ffffff"/><path d="M643.75,448.85c0.82096,-1.2901 3.1043,-4.30677 6.85,-9.05c0.53034,-0.6526 1.08034,-1.33594 1.65,-2.05c1.83008,-2.29128 3.26341,-4.12461 4.3,-5.5c1.3444,4.32057 3.42773,8.10391 6.25,11.35c-0.68802,0.32904 -1.42135,0.67904 -2.2,1.05c-5.9,2.8 -11.51667,4.36667 -16.85,4.7v-0.5M759.75,457.1c4.86667,0 10.28333,-1.36667 16.25,-4.1c4.20781,-1.9306 8.27448,-4.34727 12.2,-7.25c0.00234,0.12227 0.00234,0.23893 0,0.35c-0.13333,3.56667 -1.33333,5.9 -3.6,7c-1.39922,0.68594 -6.96589,1.8026 -16.7,3.35c-2.08997,0.32852 -4.37331,0.67852 -6.85,1.05c-14.53333,2.06667 -22.68333,3.21667 -24.45,3.45h-46.25c-5.86667,0.53333 -10.46667,-0.66667 -13.8,-3.6c-2.18229,-1.94635 -3.39896,-3.91302 -3.65,-5.9c5.44154,2.76667 11.8082,4.15 19.1,4.15c4.66667,0 9.71667,-1.38333 15.15,-4.15c4.43333,-2.23333 8.46667,-5.01667 12.1,-8.35c3.46667,4.43333 9.56667,7.96667 18.3,10.6c7.46667,2.26667 14.86667,3.4 22.2,3.4M809.6,445.85c-1.76667,0 -5.05,-0.7 -9.85,-2.1c-3.20078,-0.95586 -5.40078,-1.58919 -6.6,-1.9c4.18255,-3.60182 7.64922,-7.35182 10.4,-11.25c1.07539,1.3875 2.60872,3.1875 4.6,5.4c2.96667,3.26667 4.45,5.88333 4.45,7.85c0,1.03333 -0.08333,1.6 -0.25,1.7l-0.25,-0.2c0,0.33333 -0.83333,0.5 -2.5,0.5M754.35,328.45c0.89375,-1.45807 1.82708,-3.09141 2.8,-4.9c0.39089,0.02956 0.75755,0.04622 1.1,0.05c0.12773,0 0.2444,0 0.35,0c11.35117,0 21.11784,2.71667 29.3,8.15c0.83685,0.56016 1.65352,1.14349 2.45,1.75c2.5,1.9 5.35,4.53333 8.55,7.9c1.92435,2.03008 3.45768,3.56341 4.6,4.6c0.39128,1.49505 0.80794,3.16172 1.25,5c1.06667,4.43333 1.9,8.13333 2.5,11.1c0.17565,-3.61615 3.70898,-7.68281 10.6,-12.2c1.66484,0.70911 3.46484,1.44245 5.4,2.2c1.42396,0.58307 2.92396,1.18307 4.5,1.8c3.74115,1.65521 7.10781,3.38854 10.1,5.2c4.40391,2.70573 7.98724,5.58906 10.75,8.65c6.33333,7.03333 9.5,15.9 9.5,26.6c0,9.23333 -2.16667,19.63333 -6.5,31.2c-0.41875,1.11133 -0.98542,2.52799 -1.7,4.25c-0.74805,1.88255 -1.66471,4.11589 -2.75,6.7c-0.59466,1.40677 -1.06133,2.57344 -1.4,3.5c-0.41133,0.03529 -0.86133,0.33529 -1.35,0.9c-1.36667,1.56667 -2.05,3.3 -2.05,5.2c0,2 0.05,5.15 0.15,9.45c-0.1,3.76667 -0.56667,6.86667 -1.4,9.3c-0.16667,0.5 -0.78333,2.61667 -1.85,6.35c-1.56667,4.13333 -3.83333,7.83333 -6.8,11.1c-2.93203,3.18424 -6.4487,5.86758 -10.55,8.05c-3.57135,0.5 -6.62135,0.75 -9.15,0.75c-10.3,0 -16.8,-1.83333 -19.5,-5.5c-1.2,-1.6 -1.95,-3.8 -2.25,-6.6c-0.16667,-1.46667 -0.25,-4.43333 -0.25,-8.9c0,-0.73333 0.1,-2.05 0.3,-3.95c0.23333,-2.13333 0.46667,-3.65 0.7,-4.55c4.66667,0 7.66667,-0.15 9,-0.45c4,-0.86667 6,-2.96667 6,-6.3c0,-0.4 -0.16667,-1.18333 -0.5,-2.35c-0.10664,-0.37305 -0.20664,-0.70638 -0.3,-1c1.11628,0.06667 2.33294,0.1 3.65,0.1c2.96667,0 5.15,-1 6.55,-3c0.96667,-1.4 1.45,-3.03333 1.45,-4.9c0,-3.03333 -1.41667,-6.18333 -4.25,-9.45c-2.26484,-2.61536 -4.93151,-4.73203 -8,-6.35c2.93333,-4.7681 4.4,-9.20143 4.4,-13.3c0,-1.05625 -0.26667,-2.28958 -0.8,-3.7c1.02799,-2.79948 1.91133,-5.71615 2.65,-8.75c1.33333,-5.4 2,-9.66667 2,-12.8c0.06667,-3.66667 0.1,-5.98333 0.1,-6.95c-0.0207,-0.86719 -0.1207,-1.63385 -0.3,-2.3c-0.08112,-0.40352 -0.19779,-0.77018 -0.35,-1.1c-0.70677,-0.94232 -1.4901,-2.02565 -2.35,-3.25c-1.18776,-1.72044 -2.53776,-3.72044 -4.05,-6c-0.87031,-1.3651 -1.80365,-2.83177 -2.8,-4.4c-1.2,-2.53333 -3.98333,-4.86667 -8.35,-7c-4.06667,-1.96667 -8.56667,-3.36667 -13.5,-4.2c-5.1,-0.83333 -9.3,-0.85 -12.6,-0.05c-0.82669,0.20846 -1.56003,0.45846 -2.2,0.75c-0.19323,0.08932 -0.37656,0.17266 -0.55,0.25c-0.39518,-2.2638 -1.06185,-4.8138 -2,-7.65c-0.04661,-0.14193 -0.09661,-0.29193 -0.15,-0.45c-0.76992,-2.34596 -1.65326,-4.59596 -2.65,-6.75c-1.78633,-3.80456 -3.93633,-7.30456 -6.45,-10.5c-0.33893,-0.43516 -0.68893,-0.86849 -1.05,-1.3M659.75,363.6c0,7.56497 1.2,13.29831 3.6,17.2c-0.33021,0.9207 -0.66354,1.8707 -1,2.85c-2.39089,6.90716 -3.84089,13.34049 -4.35,19.3c-0.83633,1.69023 -1.46966,3.24023 -1.9,4.65c-0.9,2.83333 -1.35,6.75 -1.35,11.75c0,3.30391 0.28333,6.40391 0.85,9.3c-1.32331,0.75625 -2.93997,2.02292 -4.85,3.8c-1.22461,1.18594 -2.57461,2.58594 -4.05,4.2c-0.97396,1.05964 -1.85729,2.0763 -2.65,3.05c-5.05898,-0.74596 -9.19232,-3.11263 -12.4,-7.1c-3.69323,-4.55768 -7.24323,-12.64102 -10.65,-24.25c0,-0.24557 0,-0.49557 0,-0.75c0,-2.71198 1.2,-7.11198 3.6,-13.2c0.72135,-1.84596 1.55469,-3.84596 2.5,-6c5.03333,-11.43333 7.58333,-17.28333 7.65,-17.55c0.35924,-1.10755 0.77591,-2.17422 1.25,-3.2c3.29648,-7.01745 9.46315,-12.28411 18.5,-15.8c1.82813,-0.72266 4.27813,-1.60599 7.35,-2.65c-0.4487,1.41888 -0.7987,2.73555 -1.05,3.95c-0.7,3.2 -1.05,6.68333 -1.05,10.45z" fill="#ffa420"/><path d="M649.75,454.85c4.43333,0 8.3,-0.81667 11.6,-2.45c1.73333,-0.86667 3.48333,-1.88333 5.25,-3.05l0.25,0.5c0,0.36667 0.01667,2.56667 0.05,6.6c0.5,3.83333 1.9,5.75 4.2,5.75c0.58255,0 1.03255,-0.05 1.35,-0.15c3.43138,3.0888 9.31471,4.55547 17.65,4.4h0.7c3.91875,1.67018 7.58542,3.60352 11,5.8c3.13333,2 6.98333,4.73333 11.55,8.2c2,1.33333 7.2,4.96667 15.6,10.9c3.85573,2.35534 7.4724,4.17201 10.85,5.45c2.00026,0.78698 3.91693,1.37031 5.75,1.75c1.94466,0.43333 3.79466,0.65 5.55,0.65c0.75833,0 1.425,-0.01667 2,-0.05c0,0.98281 0,2.04948 0,3.2c0,0.13333 0.01667,2.05 0.05,5.75c0.03333,0.66667 0.08333,1.33333 0.15,2c-4.02956,-2.0543 -8.17956,-2.97096 -12.45,-2.75c-2.90482,0.18385 -5.87148,0.90052 -8.9,2.15c-3.21302,1.33438 -6.39635,3.23438 -9.55,5.7c-0.66953,0.18294 -1.45286,0.39961 -2.35,0.65c-2,0.56667 -3.48333,0.85 -4.45,0.85c-3.8,0 -8.61667,-1.7 -14.45,-5.1c-0.51315,-0.30078 -1.01315,-0.60078 -1.5,-0.9c-0.2638,-0.15482 -0.53047,-0.32148 -0.8,-0.5c-1.49753,-0.92826 -2.79753,-1.81159 -3.9,-2.65c-1.52695,-1.13268 -2.67695,-2.16602 -3.45,-3.1c-2,-2.8 -5.23333,-3.88333 -9.7,-3.25c-0.41432,0.05781 -0.83099,0.12448 -1.25,0.2c-14.71445,-0.22083 -24.19779,-1.45417 -28.45,-3.7c-1.86667,-1 -4.03333,-2.78333 -6.5,-5.35c-3.43333,-3.6 -6.3,-6.35 -8.6,-8.25c-2.2,-1.83333 -4.6,-5.95 -7.2,-12.35c-0.52734,-1.31849 -1.01068,-2.58516 -1.45,-3.8c0.26667,-0.5944 0.4,-1.21107 0.4,-1.85c0,-1.06667 -0.23333,-1.86667 -0.7,-2.4c-0.46992,-0.38047 -0.90326,-0.73047 -1.3,-1.05c-0.5,-2.14635 -0.75,-3.99635 -0.75,-5.55c0,-1.96667 0.5,-4.98333 1.5,-9.05c1,-4.06667 1.5,-6.43333 1.5,-7.1c0,-3.16667 -0.56667,-5.61667 -1.7,-7.35c-0.20247,-0.31693 -0.40247,-0.63359 -0.6,-0.95c-0.39271,-0.6293 -0.77604,-1.24596 -1.15,-1.85c-0.93555,-2.74518 -1.75221,-5.47852 -2.45,-8.2c-1.31901,-5.27617 -2.01901,-10.02617 -2.1,-14.25c3.40677,11.60898 6.95677,19.69232 10.65,24.25c3.20768,3.98737 7.34102,6.35404 12.4,7.1c-3.53333,4.30299 -5.3,7.71966 -5.3,10.25c0,0.36667 0.21667,0.88333 0.65,1.55c0.6,1 1.55,2.03333 2.85,3.1c3.33333,0.16667 5.83333,0.25 7.5,0.25M657.85,407.45c0,6.73333 1.58333,13.88333 4.75,21.45c0.42057,1.00352 0.85391,1.97018 1.3,2.9c1.74661,3.49089 3.76328,6.42422 6.05,8.8c-0.78646,0.14674 -3.16979,1.14674 -7.15,3c-2.82227,-3.24609 -4.9056,-7.02943 -6.25,-11.35c0.01888,0.00221 0.03555,-0.01445 0.05,-0.05c1.33333,-1.73151 2,-2.68151 2,-2.85c0,-1.03333 -0.16667,-1.6 -0.5,-1.7l-0.5,0.2c-0.57318,0.10794 -1.23984,0.37461 -2,0.8c-0.56667,-2.89609 -0.85,-5.99609 -0.85,-9.3c0,-5 0.45,-8.91667 1.35,-11.75c0.43034,-1.40977 1.06367,-2.95977 1.9,-4.65c-0.1,1.53828 -0.15,3.03828 -0.15,4.5M806.25,452.5c0.33333,1.16667 0.5,1.95 0.5,2.35c0,3.33333 -2,5.43333 -6,6.3c-1.33333,0.3 -4.33333,0.45 -9,0.45c-0.23333,0.9 -0.46667,2.41667 -0.7,4.55c-0.2,1.9 -0.3,3.21667 -0.3,3.95c0,4.46667 0.08333,7.43333 0.25,8.9c0.3,2.8 1.05,5 2.25,6.6c2.7,3.66667 9.2,5.5 19.5,5.5c2.52865,0 5.57865,-0.25 9.15,-0.75c-1.04753,0.55495 -2.14753,1.07161 -3.3,1.55c-1.61198,0.62826 -3.52865,1.22826 -5.75,1.8c-4.47852,1.20039 -10.16185,2.33372 -17.05,3.4c-2.77865,0.23333 -5.67865,0.35 -8.7,0.35c-0.12539,0 -0.25872,0 -0.4,0c-0.06107,-0.67109 -0.12773,-1.37109 -0.2,-2.1c-0.14062,-1.33034 -0.27396,-2.54701 -0.4,-3.65c-0.27487,-2.22904 -0.52487,-3.92904 -0.75,-5.1c-0.21354,-0.34883 -0.43021,-0.69883 -0.65,-1.05c0.38997,-0.52096 0.78997,-1.17096 1.2,-1.95c0.96667,-1.86667 1.45,-3.36667 1.45,-4.5c0,-1.83333 -0.35,-6 -1.05,-12.5c-0.33398,-3.1276 -0.63398,-5.64427 -0.9,-7.55c2.98763,-1.09453 5.0543,-2.47786 6.2,-4.15c0.86667,-1.3 1.53333,-3.48333 2,-6.55c1.6,0.26667 3.8,0.96667 6.6,2.1c1.3457,0.53359 3.26237,0.88359 5.75,1.05c0.09336,0.29362 0.19336,0.62695 0.3,1M803.1,426.85c0,0.06667 -0.18333,0.21667 -0.55,0.45c-0.36667,0.23333 -0.6,0.5 -0.7,0.8c0.2681,0.56602 0.83477,1.39935 1.7,2.5c-2.75078,3.89818 -6.21745,7.64818 -10.4,11.25c-0.6,-0.16667 -0.95,-0.25 -1.05,-0.25c-1.63333,0 -2.73333,0.43333 -3.3,1.3c-0.34063,0.52643 -0.54062,1.47643 -0.6,2.85c-3.92552,2.90273 -7.99219,5.3194 -12.2,7.25c-5.96667,2.73333 -11.38333,4.1 -16.25,4.1c-7.33333,0 -14.73333,-1.13333 -22.2,-3.4c-8.73333,-2.63333 -14.83333,-6.16667 -18.3,-10.6c-3.63333,3.33333 -7.66667,6.11667 -12.1,8.35c-5.43333,2.76667 -10.48333,4.15 -15.15,4.15c-7.2918,0 -13.65846,-1.38333 -19.1,-4.15c-0.03333,-0.24258 -0.05,-0.49258 -0.05,-0.75c0.13333,-1.4 0.21667,-2.33333 0.25,-2.8c0.06667,-0.76667 -0.1,-1.45 -0.5,-2.05h-0.15c0.05846,-0.32826 0.10846,-0.64492 0.15,-0.95c0.09453,-0.67721 0.1112,-1.27721 0.05,-1.8c4.45247,3.5 9.76914,5.25 15.95,5.25c5.29388,0 10.91055,-1.31667 16.85,-3.95c4.30456,-1.9043 8.77122,-4.48763 13.4,-7.75c2.68438,-1.88906 5.08438,-3.80573 7.2,-5.75c0.67799,1.93958 1.49466,3.77292 2.45,5.5c2.15482,3.92865 4.80482,7.07865 7.95,9.45c4.87057,3.66667 10.92057,5.5 18.15,5.5c6.18229,0 11.91563,-0.76667 17.2,-2.3c13.35807,-3.81589 23.89141,-12.46589 31.6,-25.95c2.17539,-3.8069 4.02539,-7.87357 5.55,-12.2c0.53333,1.41042 0.8,2.64375 0.8,3.7c0,4.09857 -1.46667,8.5319 -4.4,13.3c-0.72917,-0.37513 -1.47917,-0.72513 -2.25,-1.05M805.1,347.35c1,-0.9 1.66667,-1.55 2,-1.95c0.05195,-0.06589 0.10195,-0.13255 0.15,-0.2c0.4388,0.22279 0.90547,0.45612 1.4,0.7c2.32292,1.10586 5.38958,2.43919 9.2,4c-6.89102,4.51719 -10.42435,8.58385 -10.6,12.2c-0.6,-2.96667 -1.43333,-6.66667 -2.5,-11.1c-0.44206,-1.83828 -0.85872,-3.50495 -1.25,-5c0.66445,0.61966 1.19779,1.06966 1.6,1.35M670.3,355.1c-0.45117,2.84089 -0.71784,5.77422 -0.8,8.8c0,0.54232 0,1.07565 0,1.6c0,1.13919 0.03333,2.25586 0.1,3.35c-0.8776,1.21458 -1.74427,2.54792 -2.6,4c-1.27266,2.32461 -2.48932,4.97461 -3.65,7.95c-2.4,-3.90169 -3.6,-9.63503 -3.6,-17.2c0,-3.76667 0.35,-7.25 1.05,-10.45c0.2513,-1.21445 0.6013,-2.53112 1.05,-3.95c1.75039,-0.57826 3.70039,-1.21159 5.85,-1.9c1.44583,-0.50977 2.79583,-1.0431 4.05,-1.6c0.40065,-0.13763 0.78398,-0.28763 1.15,-0.45c-0.03971,0.10794 -0.08971,0.20794 -0.15,0.3c-1.07409,3.05078 -1.89076,6.23411 -2.45,9.55z" fill="#c7463f"/><path d="M767.5,304.65c0.61536,-1.44518 1.2487,-2.92852 1.9,-4.45c2.03437,0.50208 4.43437,1.26875 7.2,2.3c0.63372,0.23906 1.26706,0.48906 1.9,0.75c5.22214,2.07669 10.52214,4.66003 15.9,7.75c3.40091,1.94766 6.41758,3.83099 9.05,5.65c9.1,6.30078 13.65,11.86745 13.65,16.7c0,0.43333 -1.66667,2.26667 -5,5.5c-0.43867,0.42591 -0.85534,0.82591 -1.25,1.2c0.42174,0.18203 0.87174,0.36536 1.35,0.55c-1.02813,1.35638 -2.21146,3.12305 -3.55,5.3c-0.49453,-0.24388 -0.9612,-0.47721 -1.4,-0.7c-0.04805,0.06745 -0.09805,0.13411 -0.15,0.2c-0.33333,0.4 -1,1.05 -2,1.95c-0.40221,-0.28034 -0.93555,-0.73034 -1.6,-1.35c-1.14232,-1.03659 -2.67565,-2.56992 -4.6,-4.6c-3.2,-3.36667 -6.05,-6 -8.55,-7.9c-0.79648,-0.60651 -1.61315,-1.18984 -2.45,-1.75c-8.18216,-5.43333 -17.94883,-8.15 -29.3,-8.15c-0.1056,0 -0.22227,0 -0.35,0c0.53841,-1.07344 1.18841,-2.42344 1.95,-4.05c0.54115,-1.08229 1.02448,-2.03229 1.45,-2.85c5.2401,0.23984 11.47344,1.70651 18.7,4.4c4.79063,1.77279 9.07396,3.75612 12.85,5.95c1.90313,1.12487 3.66979,2.29154 5.3,3.5c0.4,-0.03125 0.6,-0.09792 0.6,-0.2c0.21549,0.39779 0.44883,0.78112 0.7,1.15c2.43073,1.90977 4.31406,3.77643 5.65,5.6c0.23164,0.15977 0.46497,0.30977 0.7,0.45c1.26732,-1.03529 2.25065,-2.60195 2.95,-4.7c-1.32995,-3.61823 -4.74661,-7.4349 -10.25,-11.45c-3.8431,-2.79687 -8.72643,-5.69688 -14.65,-8.7c-5.05768,-2.43255 -8.95768,-4.29922 -11.7,-5.6c-1.03047,-0.50039 -1.89714,-0.91706 -2.6,-1.25c-0.88698,-0.42943 -1.68698,-0.82943 -2.4,-1.2M680.45,341.95c4.63333,-7.66667 13.3,-14.8 26,-21.4c12.98906,-2.17995 23.9224,-0.79661 32.8,4.15c4.17135,2.34453 7.88802,5.4612 11.15,9.35c2.21185,2.61758 4.11185,5.46758 5.7,8.55c1.01029,2.00898 1.89362,4.10898 2.65,6.3c0.16849,0.47617 0.31849,0.94284 0.45,1.4c1.23333,3.72969 1.85,6.92969 1.85,9.6c0,2.33333 -0.45,5.3 -1.35,8.9c-0.67057,2.71771 -1.52057,5.30104 -2.55,7.75c-0.90781,2.19023 -1.95781,4.27357 -3.15,6.25c-6.34505,10.55612 -15.66172,16.60612 -27.95,18.15c-2.08763,0.26667 -4.27096,0.4 -6.55,0.4c-8.13294,0 -15.21628,-1.15 -21.25,-3.45c-6.10143,-2.29544 -11.1181,-5.77878 -15.05,-10.45c-3.82617,-4.53047 -6.30951,-9.4638 -7.45,-14.8c-0.42604,-2.01953 -0.65937,-4.10286 -0.7,-6.25c0.18542,-0.35169 0.36875,-0.70169 0.55,-1.05c0,-1.03333 -0.16667,-1.6 -0.5,-1.7h-0.05c0.22305,-7.61029 1.57305,-14.01029 4.05,-19.2c0.18932,-0.40339 0.38932,-0.80339 0.6,-1.2c0.24414,-0.44023 0.49414,-0.87357 0.75,-1.3M690.8,341.9c-4.33333,5.97878 -6.5,12.24544 -6.5,18.8c0,5.93333 1.66667,11.66667 5,17.2c3.27591,5.45977 7.77591,9.37643 13.5,11.75c4.42487,1.83333 9.57487,2.75 15.45,2.75c12.2,0 21.45,-5.33333 27.75,-16c2.16667,-3.66667 3.81667,-7.73333 4.95,-12.2c0.86667,-3.26667 1.3,-5.91667 1.3,-7.95c0,-3.96667 -0.41667,-7.06667 -1.25,-9.3c-0.19375,-0.41901 -0.39375,-0.83568 -0.6,-1.25c-1.4349,-3.14674 -2.90156,-6.38008 -4.4,-9.7c-2.03333,-3.4 -5.9,-6.36667 -11.6,-8.9c-0.08451,-0.03737 -0.16784,-0.0707 -0.25,-0.1c-6.70755,-2.91055 -13.00755,-3.46055 -18.9,-1.65c-10.3,3.2 -18.25,8.46667 -23.85,15.8c-0.1931,0.25299 -0.3931,0.50299 -0.6,0.75M679.1,124.35c14.13333,-0.13333 22.91667,2 26.35,6.4c1.00755,1.24466 1.70755,2.92799 2.1,5.05c1.67734,-2.18021 3.61068,-4.66354 5.8,-7.45c4.33333,-4.5 7.76667,-7.43333 10.3,-8.8c3.9,-2.16667 10.38333,-4.15 19.45,-5.95c18.26667,-1.4 30.98333,2.93333 38.15,13c4.06667,5.66667 6.1,12.8 6.1,21.4c0,3.33333 -0.7,8.3 -2.1,14.9c-0.31406,1.43958 -0.6474,2.85625 -1,4.25c-0.69193,2.75117 -1.45859,5.41784 -2.3,8c0.18021,0.19388 0.36354,0.39388 0.55,0.6c0.41523,0.46497 0.79857,0.93164 1.15,1.4c0.67604,0.86979 1.24271,1.73646 1.7,2.6c0.53424,-0.8013 1.01758,-1.51797 1.45,-2.15c2.21979,-3.2681 4.33646,-5.93477 6.35,-8c-0.01914,-0.09792 -0.03581,-0.19792 -0.05,-0.3c-0.56667,-4.16667 -1.06667,-8.4 -1.5,-12.7c0,-1.93333 0.33333,-3.23333 1,-3.9c0.6,-0.6 1.31667,-0.51667 2.15,0.25c0.17161,0.15508 0.33828,0.32174 0.5,0.5c1.73333,1.98177 2.6,5.44844 2.6,10.4c0.12253,0.53737 0.22253,1.10404 0.3,1.7c2.52435,-1.35247 4.84102,-1.58581 6.95,-0.7c4.4,3.1 7,5.68333 7.8,7.75c0.3,0.8 0.45,3.55 0.45,8.25c0,7.69023 -1.2,15.02357 -3.6,22c0.20807,0.04714 0.40807,0.09714 0.6,0.15c2.20182,0.60052 4.05182,1.28385 5.55,2.05c0.92799,-2.68034 1.74466,-5.41367 2.45,-8.2c1.80911,0.44714 3.65911,1.08047 5.55,1.9c-2.2043,8.25977 -5.28763,16.07643 -9.25,23.45c-1.31706,2.49362 -2.73372,4.92695 -4.25,7.3c-5.86615,9.16159 -12.98281,17.11159 -21.35,23.85c-0.11589,0.08958 -0.23255,0.17292 -0.35,0.25c-0.19297,0.16706 -0.39297,0.31706 -0.6,0.45c-0.61562,1.9793 -1.66562,4.79596 -3.15,8.45c-1.56211,1.26927 -3.09544,2.48594 -4.6,3.65c-1.59609,1.27721 -3.14609,2.49388 -4.65,3.65c-3.58828,7.22044 -7.62161,15.62044 -12.1,25.2c-4.61211,9.86029 -8.12878,17.56029 -10.55,23.1c-1.07669,2.50859 -1.94336,4.57526 -2.6,6.2c-1.1612,-1.11458 -2.37786,-2.14792 -3.65,-3.1c-8.56628,-6.45482 -19.03294,-9.05482 -31.4,-7.8c2.05482,-2.13164 4.50482,-4.76497 7.35,-7.9c0.56341,-0.62109 3.63008,-4.20443 9.2,-10.75c-1.63203,2.03411 -2.98203,3.68411 -4.05,4.95c5.74596,-6.47005 9.89596,-11.50339 12.45,-15.1c-5.52448,4.49492 -11.19115,9.27826 -17,14.35c-1.76562,-0.0388 -4.29896,0.4612 -7.6,1.5c-4.43333,1.43333 -9.28333,3.51667 -14.55,6.25c-2.07227,1.06849 -3.98893,2.10182 -5.75,3.1c-8.26914,4.74388 -12.73581,8.64388 -13.4,11.7c-0.03333,0.25482 -0.05,0.50482 -0.05,0.75c0,0.98359 0.23333,2.38359 0.7,4.2c-1.73437,1.64661 -2.98437,3.01328 -3.75,4.1c-1.4332,2.0194 -2.16654,4.2194 -2.2,6.6c-0.68047,1.16823 -1.3138,2.35156 -1.9,3.55c-10.9224,2.08503 -19.0224,4.16836 -24.3,6.25c-9.24505,3.62031 -15.84505,9.80365 -19.8,18.55c-0.45091,1.00156 -0.86758,2.0349 -1.25,3.1c-2.9,6.56667 -5.45,12.5 -7.65,17.8c-0.01458,0.03516 -0.03125,0.06849 -0.05,0.1c0.60078,1.73815 1.31745,3.77148 2.15,6.1c0.22174,0.62448 0.43841,1.22448 0.65,1.8c-2.4,6.08802 -3.6,10.48802 -3.6,13.2c0,0.25443 0,0.50443 0,0.75c0.08099,4.22383 0.78099,8.97383 2.1,14.25c0.69779,2.72148 1.51445,5.45482 2.45,8.2c0.37396,0.60404 0.75729,1.2207 1.15,1.85c0.19753,0.31641 0.39753,0.63307 0.6,0.95c1.13333,1.73333 1.7,4.18333 1.7,7.35c0,0.66667 -0.5,3.03333 -1.5,7.1c-1,4.06667 -1.5,7.08333 -1.5,9.05c0,1.55365 0.25,3.40365 0.75,5.55c0.39674,0.31953 0.83008,0.66953 1.3,1.05c0.46667,0.53333 0.7,1.33333 0.7,2.4c0,0.63893 -0.13333,1.2556 -0.4,1.85c0.43932,1.21484 0.92266,2.48151 1.45,3.8c2.6,6.4 5,10.51667 7.2,12.35c2.3,1.9 5.16667,4.65 8.6,8.25c2.46667,2.56667 4.63333,4.35 6.5,5.35c4.25221,2.24583 13.73555,3.47917 28.45,3.7c0.41901,-0.07552 0.83568,-0.14219 1.25,-0.2c4.46667,-0.63333 7.7,0.45 9.7,3.25c0.77305,0.93398 1.92305,1.96732 3.45,3.1c-2.15781,1.97708 -3.97448,3.64375 -5.45,5c0.29961,-0.04987 0.56628,-0.09987 0.8,-0.15c0.63971,0.6957 1.45638,1.3957 2.45,2.1c0.52305,0.38581 1.08971,0.76914 1.7,1.15c-0.3,1.34453 -0.45,2.77786 -0.45,4.3c0,0.13333 1.26667,4.43333 3.8,12.9c2.45755,6.51901 4.89089,10.50234 7.3,11.95c0.33672,0.19635 0.65339,0.34635 0.95,0.45c-0.36667,3.03021 -0.55,6.06354 -0.55,9.1c0,0.64297 0.01667,1.2763 0.05,1.9c0.23451,4.1444 1.21784,8.17773 2.95,12.1c0.99297,2.25573 2.2263,4.4724 3.7,6.65c3.25846,4.79427 7.42513,8.6276 12.5,11.5l5.15,-3.15c0.10951,-0.04349 0.20951,-0.09349 0.3,-0.15c0.12826,-0.07396 0.24492,-0.15729 0.35,-0.25c-0.53372,-0.24661 -1.06706,-0.51328 -1.6,-0.8c-0.7888,-0.65924 -1.3388,-1.09258 -1.65,-1.3c-2.16667,-1.5 -3.83333,-3.13333 -5,-4.9c-0.06081,-0.11458 -0.12747,-0.23125 -0.2,-0.35c-1.42786,-0.90469 -2.79453,-1.92135 -4.1,-3.05c-0.01419,0.00521 -0.03086,0.00521 -0.05,0c-1.31953,-1.81172 -2.46953,-3.72839 -3.45,-5.75c0.76419,0.99036 1.61419,1.94036 2.55,2.85c1.0388,1.00169 2.15547,1.91836 3.35,2.75c-0.3099,-0.56875 -0.59323,-1.08542 -0.85,-1.55c-1.37773,-2.57174 -2.4444,-5.65508 -3.2,-9.25c-0.86016,-0.52682 -1.67682,-1.11016 -2.45,-1.75c-0.93932,-0.75547 -1.78932,-1.57214 -2.55,-2.45v0c-0.04427,-0.29388 -0.09427,-0.59388 -0.15,-0.9c-0.07891,-0.65651 -0.12891,-1.28984 -0.15,-1.9c0.03464,0.04753 0.06797,0.09753 0.1,0.15c0.93333,1.33333 2.06667,2.51667 3.4,3.55c0.42799,0.31849 0.87799,0.61849 1.35,0.9c-0.17383,-1.00221 -0.32383,-2.01888 -0.45,-3.05c-0.2,-1.96146 -0.3,-3.94479 -0.3,-5.95c0,-3.78854 0.46667,-7.60521 1.4,-11.45c-1.15547,0.5651 -2.40547,1.28177 -3.75,2.15c0.11003,-0.39362 0.22669,-0.79362 0.35,-1.2c-0.28008,-0.06484 -0.56341,-0.13151 -0.85,-0.2c-0.65208,-0.16159 -1.26875,-0.32826 -1.85,-0.5l-2.9,-1.15c-0.03164,0.0013 -0.06497,-0.01536 -0.1,-0.05c-0.03125,0.00195 -0.06458,-0.01471 -0.1,-0.05c0.06576,-0.04714 0.13242,-0.1138 0.2,-0.2c1.52357,-6.43398 3.69023,-11.21732 6.5,-14.35c0.16589,-0.18659 0.33255,-0.36992 0.5,-0.55c-3.89427,-0.24271 -8.0276,-1.27604 -12.4,-3.1c-0.58854,-2.21589 -1.40521,-5.16589 -2.45,-8.85c0.48685,0.29922 0.98685,0.59922 1.5,0.9c5.83333,3.4 10.65,5.1 14.45,5.1c0.96667,0 2.45,-0.28333 4.45,-0.85c0.89714,-0.25039 1.68047,-0.46706 2.35,-0.65c3.15365,-2.46563 6.33698,-4.36563 9.55,-5.7c3.02852,-1.24948 5.99518,-1.96615 8.9,-2.15c4.27044,-0.22096 8.42044,0.6957 12.45,2.75c-0.06667,-0.66667 -0.11667,-1.33333 -0.15,-2c-0.03333,-3.7 -0.05,-5.61667 -0.05,-5.75c0,-1.15052 0,-2.21719 0,-3.2c-0.575,0.03333 -1.24167,0.05 -2,0.05c-1.75534,0 -3.60534,-0.21667 -5.55,-0.65c-1.83307,-0.37969 -3.74974,-0.96302 -5.75,-1.75c-3.3776,-1.27799 -6.99427,-3.09466 -10.85,-5.45c-8.4,-5.93333 -13.6,-9.56667 -15.6,-10.9c-4.56667,-3.46667 -8.41667,-6.2 -11.55,-8.2c-3.41458,-2.19648 -7.08125,-4.12982 -11,-5.8h-0.7c-8.33529,0.15547 -14.21862,-1.3112 -17.65,-4.4c-0.31745,0.1 -0.76745,0.15 -1.35,0.15c-2.3,0 -3.7,-1.91667 -4.2,-5.75c-0.03333,-4.03333 -0.05,-6.23333 -0.05,-6.6l-0.25,-0.5c-1.76667,1.16667 -3.51667,2.18333 -5.25,3.05c-3.3,1.63333 -7.16667,2.45 -11.6,2.45c-1.66667,0 -4.16667,-0.08333 -7.5,-0.25c-1.3,-1.06667 -2.25,-2.1 -2.85,-3.1c-0.43333,-0.66667 -0.65,-1.18333 -0.65,-1.55c0,-2.53034 1.76667,-5.94701 5.3,-10.25c0.79271,-0.9737 1.67604,-1.99036 2.65,-3.05c1.47539,-1.61406 2.82539,-3.01406 4.05,-4.2c1.91003,-1.77708 3.52669,-3.04375 4.85,-3.8c0.76016,-0.42539 1.42682,-0.69206 2,-0.8l0.5,-0.2c0.33333,0.1 0.5,0.66667 0.5,1.7c0,0.16849 -0.66667,1.11849 -2,2.85c-0.01445,0.03555 -0.03112,0.05221 -0.05,0.05c-1.03659,1.37539 -2.46992,3.20872 -4.3,5.5c-0.56966,0.71406 -1.11966,1.3974 -1.65,2.05c-3.7457,4.74323 -6.02904,7.7599 -6.85,9.05v0.5c5.33333,-0.33333 10.95,-1.9 16.85,-4.7c0.77865,-0.37096 1.51198,-0.72096 2.2,-1.05c3.98021,-1.85326 6.36354,-2.85326 7.15,-3c-2.28672,-2.37578 -4.30339,-5.30911 -6.05,-8.8c-0.44609,-0.92982 -0.87943,-1.89648 -1.3,-2.9c-3.16667,-7.56667 -4.75,-14.71667 -4.75,-21.45c0,-1.46172 0.05,-2.96172 0.15,-4.5c0.50911,-5.95951 1.95911,-12.39284 4.35,-19.3c0.33646,-0.9793 0.66979,-1.9293 1,-2.85c1.16068,-2.97539 2.37734,-5.62539 3.65,-7.95c0.85573,-1.45208 1.7224,-2.78542 2.6,-4c-0.06667,-1.09414 -0.1,-2.21081 -0.1,-3.35c0,-0.52435 0,-1.05768 0,-1.6c0.21081,2.1151 0.52747,4.74844 0.95,7.9c0.04883,0.33854 0.09883,0.68854 0.15,1.05c0.26159,1.79141 0.56159,3.82474 0.9,6.1c1.16107,3.73477 2.8444,7.2681 5.05,10.6c4.61458,6.87552 11.04792,11.84219 19.3,14.9c4.54076,1.67669 9.62409,2.77669 15.25,3.3c-0.23333,1.48216 -0.35,2.76549 -0.35,3.85c0,4.66667 1.66667,7 5,7c2.03333,0 4.53333,-3.45 7.5,-10.35c0.04258,-0.09948 0.07591,-0.19948 0.1,-0.3c9.47096,-0.65924 17.5543,-3.55924 24.25,-8.7c-1.23333,3.80404 -1.85,6.6707 -1.85,8.6c0,2.36667 0.16667,3.78333 0.5,4.25c0.23333,0.33333 0.98333,0.5 2.25,0.5c6,0 11.25,-5.66667 15.75,-17c2.26667,-5.7 3.93333,-11.53333 5,-17.5c0,-1.86667 -0.5,-3.2 -1.5,-4c-0.70143,-0.5612 -1.70143,-0.89453 -3,-1c0.15885,-0.48737 0.30885,-0.98737 0.45,-1.5c0.99987,-3.60456 1.59987,-6.82122 1.8,-9.65c0.23737,-0.1237 0.4707,-0.29036 0.7,-0.5c-0.03646,-0.37318 -0.06979,-0.75651 -0.1,-1.15c-0.15781,-2.07917 -0.29115,-3.89583 -0.4,-5.45c0.63997,-0.29154 1.37331,-0.54154 2.2,-0.75c3.3,-0.8 7.5,-0.78333 12.6,0.05c4.93333,0.83333 9.43333,2.23333 13.5,4.2c4.36667,2.13333 7.15,4.46667 8.35,7c0.99635,1.56823 1.92969,3.0349 2.8,4.4c1.51224,2.27956 2.86224,4.27956 4.05,6c0.8599,1.22435 1.64323,2.30768 2.35,3.25c0.15221,0.32982 0.26888,0.69648 0.35,1.1c0.1793,0.66615 0.2793,1.43281 0.3,2.3c0,0.96667 -0.03333,3.28333 -0.1,6.95c0,3.13333 -0.66667,7.4 -2,12.8c-0.73867,3.03385 -1.62201,5.95052 -2.65,8.75c-1.52461,4.32643 -3.37461,8.3931 -5.55,12.2c-7.70859,13.48411 -18.24193,22.13411 -31.6,25.95c-5.28437,1.53333 -11.01771,2.3 -17.2,2.3c-7.22943,0 -13.27943,-1.83333 -18.15,-5.5c-3.14518,-2.37135 -5.79518,-5.52135 -7.95,-9.45c-0.95534,-1.72708 -1.77201,-3.56042 -2.45,-5.5c-2.11562,1.94427 -4.51562,3.86094 -7.2,5.75c-4.62878,3.26237 -9.09544,5.8457 -13.4,7.75c-5.93945,2.63333 -11.55612,3.95 -16.85,3.95c-6.18086,0 -11.49753,-1.75 -15.95,-5.25c0.0612,0.52279 0.04453,1.12279 -0.05,1.8c-0.04154,0.30508 -0.09154,0.62174 -0.15,0.95h0.15c0.4,0.6 0.56667,1.28333 0.5,2.05c-0.03333,0.46667 -0.11667,1.4 -0.25,2.8c0,0.25742 0.01667,0.50742 0.05,0.75c0.25104,1.98698 1.46771,3.95365 3.65,5.9c3.33333,2.93333 7.93333,4.13333 13.8,3.6h46.25c1.76667,-0.23333 9.91667,-1.38333 24.45,-3.45c2.47669,-0.37148 4.76003,-0.72148 6.85,-1.05c9.73411,-1.5474 15.30078,-2.66406 16.7,-3.35c2.26667,-1.1 3.46667,-3.43333 3.6,-7c0.00234,-0.11107 0.00234,-0.22773 0,-0.35c0.05938,-1.37357 0.25937,-2.32357 0.6,-2.85c0.56667,-0.86667 1.66667,-1.3 3.3,-1.3c0.1,0 0.45,0.08333 1.05,0.25c1.19922,0.31081 3.39922,0.94414 6.6,1.9c4.8,1.4 8.08333,2.1 9.85,2.1c1.66667,0 2.5,-0.16667 2.5,-0.5l0.25,0.2c0.16667,-0.1 0.25,-0.66667 0.25,-1.7c0,-1.96667 -1.48333,-4.58333 -4.45,-7.85c-1.99128,-2.2125 -3.52461,-4.0125 -4.6,-5.4c-0.86523,-1.10065 -1.4319,-1.93398 -1.7,-2.5c0.1,-0.3 0.33333,-0.56667 0.7,-0.8c0.36667,-0.23333 0.55,-0.38333 0.55,-0.45c0.77083,0.32487 1.52083,0.67487 2.25,1.05c3.06849,1.61797 5.73516,3.73464 8,6.35c2.83333,3.26667 4.25,6.41667 4.25,9.45c0,1.86667 -0.48333,3.5 -1.45,4.9c-1.4,2 -3.58333,3 -6.55,3c-1.31706,0 -2.53372,-0.03333 -3.65,-0.1c-2.48763,-0.16641 -4.4043,-0.51641 -5.75,-1.05c-2.8,-1.13333 -5,-1.83333 -6.6,-2.1c-0.46667,3.06667 -1.13333,5.25 -2,6.55c-1.1457,1.67214 -3.21237,3.05547 -6.2,4.15c0.26602,1.90573 0.56602,4.4224 0.9,7.55c0.7,6.5 1.05,10.66667 1.05,12.5c0,1.13333 -0.48333,2.63333 -1.45,4.5c-0.41003,0.77904 -0.81003,1.42904 -1.2,1.95c0.21979,0.35117 0.43646,0.70117 0.65,1.05c0.22513,1.17096 0.47513,2.87096 0.75,5.1c0.12604,1.10299 0.25938,2.31966 0.4,3.65c0.07227,0.72891 0.13893,1.42891 0.2,2.1c0.14128,0 0.27461,0 0.4,0c3.02135,0 5.92135,-0.11667 8.7,-0.35c6.88815,-1.06628 12.57148,-2.19961 17.05,-3.4c2.22135,-0.57174 4.13802,-1.17174 5.75,-1.8c1.15247,-0.47839 2.25247,-0.99505 3.3,-1.55c4.1013,-2.18242 7.61797,-4.86576 10.55,-8.05c2.96667,-3.26667 5.23333,-6.96667 6.8,-11.1c1.06667,-3.73333 1.68333,-5.85 1.85,-6.35c0.83333,-2.43333 1.3,-5.53333 1.4,-9.3c-0.1,-4.3 -0.15,-7.45 -0.15,-9.45c0,-1.9 0.68333,-3.63333 2.05,-5.2c0.48867,-0.56471 0.93867,-0.86471 1.35,-0.9c0.33867,-0.92656 0.80534,-2.09323 1.4,-3.5c1.08529,-2.58411 2.00195,-4.81745 2.75,-6.7c0.48854,0.10273 1.00521,0.20273 1.55,0.3c3.06602,0.54753 5.29935,0.86419 6.7,0.95c-1.38945,4.67292 -2.88945,8.17292 -4.5,10.5c-1.81315,3.49492 -3.74648,5.81159 -5.8,6.95v4.35c0,1.0707 -0.03333,2.1207 -0.1,3.15c0.4,2.33424 0.6,3.95091 0.6,4.85c0,4.06667 -0.83333,8.28333 -2.5,12.65c-1.6582,4.30599 -3.97487,8.23932 -6.95,11.8c-0.72305,0.86992 -1.48971,1.71992 -2.3,2.55c-2.97591,3.03997 -6.37591,5.65664 -10.2,7.85c-0.80677,0.49479 -1.6401,0.96146 -2.5,1.4c-1.68516,0.85755 -3.45182,1.64089 -5.3,2.35c0.14635,0.22904 0.27969,0.46237 0.4,0.7c-1.48164,0.67396 -2.86497,1.22396 -4.15,1.65c0,0.17305 0,0.35638 0,0.55c0,1.41055 0.23333,3.94388 0.7,7.6c-2.59909,-0.51016 -5.41576,-0.84349 -8.45,-1c-3.33333,-0.4 -7.18333,0.08333 -11.55,1.45c-2.41953,0.72917 -4.1862,1.49583 -5.3,2.3c0.87487,3.93333 1.87487,5.9 3,5.9c0.03776,0 0.07109,0 0.1,0c0.26745,0.38255 0.53411,0.76589 0.8,1.15c1.76667,-0.86667 3.75,-1.41667 5.95,-1.65c3.86667,-1.13333 8.2,-1.01667 13,0.35c2.8,1.03333 5,2.65 6.6,4.85c0.1,0.13333 0.2,0.28333 0.3,0.45c0.96667,0.83333 1.83333,1.73333 2.6,2.7c0.26667,-0.06667 1.75,-0.83333 4.45,-2.3c-0.36315,-0.41823 -0.69648,-0.80156 -1,-1.15c1.33789,-0.55664 3.27122,-1.07331 5.8,-1.55c0.58307,-0.10326 1.13307,-0.20326 1.65,-0.3c0.12279,0.27135 0.22279,0.53802 0.3,0.8c2.39167,0.02161 4.60833,0.48828 6.65,1.4c2.52786,1.16211 4.77786,3.01211 6.75,5.55c1.36641,1.71146 2.59974,3.74479 3.7,6.1c0.76667,1.63333 1.45,3.36667 2.05,5.2c7.9,0.2 12.85,2.31667 14.85,6.35c0.76667,1.56667 1.16667,3.56667 1.2,6c0.03333,1.36667 -0.01667,3.3 -0.15,5.8c0,4.06667 -0.11667,6.65 -0.35,7.75c-1,4.63333 -3.46667,7.5 -7.4,8.6h-8c-0.73763,-0.23763 -1.3543,-0.6043 -1.85,-1.1h-3.5c-0.21406,0.45482 -0.56406,1.92148 -1.05,4.4c3.40716,2.21016 8.79049,5.29349 16.15,9.25c9.03542,4.84622 14.35208,8.16289 15.95,9.95c1.40977,-0.58333 3.0431,-1.26667 4.9,-2.05c0.20599,-0.08633 0.40599,-0.16966 0.6,-0.25c0.36667,1.09089 0.55,2.27422 0.55,3.55c0,2.1 -0.88333,4.36667 -2.65,6.8c-2.16667,2.96667 -5.35,5.63333 -9.55,8c-11.23333,6.3 -27.75,9.45 -49.55,9.45c-17.16667,0 -30.01667,-0.85 -38.55,-2.55c-9.56302,-1.92891 -15.64635,-5.09557 -18.25,-9.5c-2.06966,-1.06146 -3.61966,-2.52813 -4.65,-4.4c-0.86667,-1.6 -1.3,-4.11667 -1.3,-7.55c0,-0.04492 0,-0.09492 0,-0.15c0.00599,-2.69427 0.18932,-4.8776 0.55,-6.55c-2.36667,0.63333 -4.8,0.95 -7.3,0.95c-7.82812,0 -14.74479,-0.96667 -20.75,-2.9c-0.37383,0.3668 -0.85716,0.73346 -1.45,1.1c-0.82513,-0.29232 -1.67513,-0.60898 -2.55,-0.95c-1.93359,-0.75612 -3.68359,-1.52279 -5.25,-2.3c-1.11211,0.43008 -2.22878,0.84674 -3.35,1.25c-1.19544,0.42331 -2.39544,0.83997 -3.6,1.25c-9.3,3.2 -15.76667,4.13333 -19.4,2.8c-1.83333,1.26667 -2.75,2.4 -2.75,3.4c0,0.25937 0.15,0.55937 0.45,0.9l0.05,0.05c0.36667,0.43333 1.11667,1.15 2.25,2.15c0.52708,0.06224 1.04375,0.12891 1.55,0.2c8.0457,1.11602 13.3457,3.23268 15.9,6.35c0.56784,0.69414 1.00117,1.42747 1.3,2.2c-4.39922,2.0237 -11.96589,4.0737 -22.7,6.15c5.31966,2.38568 8.96966,3.93568 10.95,4.65c-4.05456,0.7737 -11.97122,1.9237 -23.75,3.45c-0.29583,0.03945 -0.59583,0.07279 -0.9,0.1c-13.85807,1.86302 -25.30807,3.49635 -34.35,4.9h-40c-8.16667,-2.43333 -13.15,-4.3 -14.95,-5.6c-1.86667,-1.33333 -2.8,-3.71667 -2.8,-7.15c0,-5 3.35,-9.65 10.05,-13.95c7.4,-4.76667 17.21667,-7.86667 29.45,-9.3c-0.83333,-1.13333 -3.11667,-3.51667 -6.85,-7.15c-2.1,-2.03333 -3.15,-4.15 -3.15,-6.35c0,-0.05977 0,-0.12643 0,-0.2c-0.99766,-0.31341 -1.91432,-0.58008 -2.75,-0.8c-1.26667,1.8 -3.43333,3.98333 -6.5,6.55c-5.8,4.8 -11.3,7.2 -16.5,7.2c-5.86667,0 -9.96667,-0.53333 -12.3,-1.6c-0.6,-0.3 -1.26667,-0.68333 -2,-1.15c-0.66667,-0.33333 -1.4,-0.5 -2.2,-0.5c-1.2,0 -4.51667,3.05 -9.95,9.15c-6.76667,6.06667 -14.11667,9.1 -22.05,9.1c-6.76667,0 -11.85,-1.83333 -15.25,-5.5c-2.16667,-2.33333 -3.25,-4.45 -3.25,-6.35c0,-6.86667 5.51667,-14.88333 16.55,-24.05c3.83333,-3.23333 7.7,-5.98333 11.6,-8.25c-2.13333,0.1 -4.51667,0.15 -7.15,0.15c-13.73333,0 -22.66667,-2.81667 -26.8,-8.45c-1.3,-1.8 -2.05,-3.83333 -2.25,-6.1c0.03333,-2 0.05,-3.1 0.05,-3.3c0,-10 5.76667,-15.33333 17.3,-16c9.8,-0.53333 24.55,2.21667 44.25,8.25c-4.33333,-3.63333 -7.6,-6.76667 -9.8,-9.4c-4.13333,-4.83333 -6.88333,-8.66667 -8.25,-11.5c-1.5,-3.13333 -2.25,-6.8 -2.25,-11c0,-3.63333 1.11667,-6.46667 3.35,-8.5c2.16667,-2 5.08333,-2.9 8.75,-2.7c1.42721,0.07214 2.86055,0.2888 4.3,0.65c7.20495,1.78255 14.57161,7.13255 22.1,16.05c1.7,1.8 3.61667,3.85 5.75,6.15c0.23333,-0.13333 0.5,-0.23333 0.8,-0.3c1.6,-0.46667 3.6,-0.6 6,-0.4c5.86667,0.43333 10.1,2.2 12.7,5.3c0.33359,0.12135 0.66693,0.25469 1,0.4c0.1582,-0.08503 0.32487,-0.16836 0.5,-0.25c1.2,-0.53333 3.53333,-1 7,-1.4c12.4,-1.5 22.23333,-3.2 29.5,-5.1c6.56667,-1.9 11.88333,-3.41667 15.95,-4.55c1.76719,-0.50039 3.41719,-0.95039 4.95,-1.35c-1.34935,0.16667 -2.81602,0.25 -4.4,0.25c-20.03333,0 -35.18333,-8.1 -45.45,-24.3c-2.35469,-3.75352 -4.35469,-7.77018 -6,-12.05c-0.79154,0.54583 -1.7082,1.07917 -2.75,1.6c-5.03333,2.5 -10.8,3.75 -17.3,3.75c-12.76667,0 -22.35,-5.15 -28.75,-15.45c-4.66667,-7.53333 -7,-16 -7,-25.4c0,-3.63385 0.28333,-7.48385 0.85,-11.55c0.41549,-2.80768 0.96549,-5.72435 1.65,-8.75c1.96667,-8.8 4.81667,-16.65 8.55,-23.55c7.0125,-13.00638 16.09583,-20.87305 27.25,-23.6c3.35742,-1.64102 6.64076,-2.42435 9.85,-2.35c0.98893,-2.32396 2.13893,-4.82396 3.45,-7.5c2.54701,-5.20495 5.73034,-11.05495 9.55,-17.55c1.98333,-3.34245 4.13333,-6.85911 6.45,-10.55c2.60612,-4.16042 5.28945,-8.32708 8.05,-12.5c1.04987,-1.54245 2.09987,-3.09245 3.15,-4.65c-1.70195,1.07096 -3.45195,2.13763 -5.25,3.2c-1.73789,1.06328 -3.52122,2.12995 -5.35,3.2c-9.53281,5.46693 -17.01615,9.76693 -22.45,12.9c-1.13281,0.69805 -2.18281,1.33138 -3.15,1.9c-2.08568,1.22943 -4.08568,2.41276 -6,3.55c-2.80156,1.73698 -5.41823,3.38698 -7.85,4.95c0.02591,0.04688 0.04258,0.09688 0.05,0.15c0.46667,3.2 0.7,6.85 0.7,10.95c0,2.6 -1,5.86667 -3,9.8c-2.2,4.36667 -5.11667,8.43333 -8.75,12.2c-9.08451,9.37044 -19.80117,14.27044 -32.15,14.7c-0.6151,0.03333 -1.23177,0.05 -1.85,0.05c-9.73698,0 -18.03698,-1.21667 -24.9,-3.65c-8.79909,-2.52969 -15.09909,-6.89635 -18.9,-13.1c-1.77044,-2.90469 -2.95378,-6.18802 -3.55,-9.85c-0.73867,-2.55599 -1.22201,-5.28932 -1.45,-8.2c-0.2,-2.86667 -0.18333,-5.8 0.05,-8.8c0,-11.3 2.38333,-21.23333 7.15,-29.8c4.5,-8 10.55,-13.91667 18.15,-17.75c5.60924,-2.82943 11.45924,-4.22943 17.55,-4.2c5.54596,-0.52109 11.49596,0.29557 17.85,2.45c7.48672,2.53958 12.15339,5.70625 14,9.5c2.1987,-0.41419 6.2987,-1.98086 12.3,-4.7c4.52253,-2.05195 10.12253,-4.75195 16.8,-8.1c3.68529,-1.85247 7.70195,-3.90247 12.05,-6.15c16.44792,-8.52122 29.33125,-14.97122 38.65,-19.35c-8.0543,-3.06979 -14.9043,-6.95312 -20.55,-11.65c-2.73073,-2.29102 -5.18073,-4.77435 -7.35,-7.45c-2.78047,-3.42969 -5.24714,-6.87969 -7.4,-10.35c-9.47734,-15.38008 -12.61068,-31.09674 -9.4,-47.15c0.73333,-6.53333 2.06667,-13.38333 4,-20.55c1.40456,-5.27865 3.03789,-10.37865 4.9,-15.3c2.57214,-6.66615 5.57214,-13.01615 9,-19.05c1.25781,-2.18151 2.57448,-4.33151 3.95,-6.45c21.4,-33 53.38333,-50.78333 95.95,-53.35c6.83828,0.22799 13.22161,0.76133 19.15,1.6c-0.06315,0.62435 -0.12982,1.25768 -0.2,1.9c-0.16784,1.48151 -0.33451,2.86484 -0.5,4.15c-5.57826,-0.73216 -11.47826,-1.03216 -17.7,-0.9c-10.83333,0.23333 -21.35,1.78333 -31.55,4.65c-9.16667,2.6 -16.1,5.63333 -20.8,9.1c-10.66667,6.1 -20.35,13.75 -29.05,22.95c-7.78724,8.25208 -13.40391,16.28542 -16.85,24.1c-0.48945,1.1582 -0.93945,2.3082 -1.35,3.45c-1.49596,4.11706 -2.84596,7.93372 -4.05,11.45c-1.71549,4.97057 -3.14883,9.33724 -4.3,13.1c1.43008,0.1625 2.76341,0.82917 4,2c2.24896,2.16719 4.21563,6.00052 5.9,11.5c0.86667,2.83333 1.76667,6.46667 2.7,10.9c1.03333,5.03333 1.61667,7.8 1.75,8.3c3.43333,12.93333 9.76667,21.5 19,25.7c5.2,2.36667 13.28333,3.55 24.25,3.55c15.13294,0 31.01628,-2.41667 47.65,-7.25c1.78763,-0.52188 3.58763,-1.07187 5.4,-1.65c20.16667,-6.46667 32.43333,-13.91667 36.8,-22.35c4.01628,-7.68242 7.38294,-13.93242 10.1,-18.75c-0.4875,-1.0513 -1.00417,-2.38464 -1.55,-4c-0.08164,-0.23789 -0.16497,-0.47122 -0.25,-0.7c-0.85469,2.2056 -1.77135,4.3556 -2.75,6.45c-10.7,22.83333 -26.3,34.25 -46.8,34.25c-12.2,0 -21.5,-5.18333 -27.9,-15.55c-0.60703,-0.98971 -1.1737,-2.00638 -1.7,-3.05c-0.03633,0.03151 -0.06966,0.06484 -0.1,0.1c-11.23333,13 -20.83333,19.5 -28.8,19.5c-5.43333,0 -8.93333,-0.36667 -10.5,-1.1c-0.11224,-0.05052 -0.22891,-0.11719 -0.35,-0.2c-7.94661,-1.18711 -13.77995,-5.77044 -17.5,-13.75c-2.83333,-6 -4.25,-13.23333 -4.25,-21.7c0,-5.35651 0.91667,-11.38984 2.75,-18.1c0.39167,-1.43802 0.825,-2.90469 1.3,-4.4c3.1,-9.73333 6.91667,-16.73333 11.45,-21c1.66667,-1.56667 4.66667,-4.68333 9,-9.35c4.63333,-4.26667 9.83333,-7.4 15.6,-9.4M715.9,158.05c-1.47396,1.72917 -2.75729,4.34583 -3.85,7.85c-1.53333,4.9 -2.3,9.71667 -2.3,14.45c0,3.33333 0.16667,5.58333 0.5,6.75c0.46667,1.66667 1.46667,2.5 3,2.5c5.26667,0 9.26667,-4.46667 12,-13.4c1.36667,-4.5 2.2,-9.03333 2.5,-13.6c0,-2.6 -0.5,-4.43333 -1.5,-5.5c-1,-1 -2.66667,-1.5 -5,-1.5c-0.47904,0 -0.96237,0.06667 -1.45,0.2c-1.26094,0.32292 -2.56094,1.07292 -3.9,2.25M765.95,250.25c-0.02174,0.04167 -0.05508,0.075 -0.1,0.1c-1.73854,0.96979 -3.50521,1.90312 -5.3,2.8c-10.07526,5.13451 -20.95859,9.30117 -32.65,12.5c-11.46667,3.13333 -20.9,4.7 -28.3,4.7c-4.97096,0 -9.82096,-0.28333 -14.55,-0.85c4.7431,1.08385 9.32643,1.91719 13.75,2.5c-4.72904,-0.53464 -8.91237,-1.0013 -12.55,-1.4c-9.50039,-1 -15.25039,-1.5 -17.25,-1.5c-0.92448,0 -2.84115,0.96667 -5.75,2.9c3.52344,1.11979 7.2401,2.10313 11.15,2.95c3.66393,0.78307 7.49727,1.44974 11.5,2c9.53255,1.30234 20.06589,1.93568 31.6,1.9h8.6c4.14193,-0.63125 8.15859,-1.38125 12.05,-2.25c11.6625,-2.6013 22.2125,-6.26797 31.65,-11c3.1849,-1.58138 6.2349,-3.28138 9.15,-5.1c1.15443,-2.75586 2.38776,-5.67253 3.7,-8.75c0.23216,-0.16029 0.44883,-0.32695 0.65,-0.5c0.04349,-0.00365 0.07682,-0.02031 0.1,-0.05c7.55,-5.72682 14.06667,-12.51016 19.55,-20.35c0.26315,-0.37643 0.51315,-0.75977 0.75,-1.15c-1.63099,-0.92214 -3.79766,-2.45547 -6.5,-4.6c-6.66823,8.13555 -15.25156,15.45221 -25.75,21.95c-0.11393,0.07096 -0.2306,0.13763 -0.35,0.2c-1.65508,1.03529 -3.37174,2.03529 -5.15,3M690.2,170.5c-1.04036,-0.99531 -2.09036,-1.61198 -3.15,-1.85c-2.3207,0.46484 -4.58737,2.61484 -6.8,6.45c-2.33333,4.06667 -3.5,7.9 -3.5,11.5c0,3.8 0.5,6.63333 1.5,8.5c0.9,1.66667 2.15,2.5 3.75,2.5c3.06667,0 5.81667,-2.83333 8.25,-8.5c2,-4.66667 3,-8.58333 3,-11.75c0,-2.33333 -0.83333,-4.41667 -2.5,-6.25c-0.18594,-0.20651 -0.36927,-0.40651 -0.55,-0.6M699.3,300.55c0.49076,0.41432 1.30742,0.76432 2.45,1.05c1.36667,0.33333 2.45,0.5 3.25,0.5c7.46667,0 15.83333,-3.78333 25.1,-11.35c2.54453,-2.0819 5.07786,-4.29857 7.6,-6.65l-12.25,3.85l-8.75,2.75c-11.96667,3.8 -17.95,6.76667 -17.95,8.9c0,0.35729 0.18333,0.67396 0.55,0.95M656.45,307.8c-0.75755,2.90417 -1.15755,5.75417 -1.2,8.55c0,0.17617 0,0.34284 0,0.5c0,2.23333 0.66667,4.15 2,5.75c1.4,1.66667 3.15,2.5 5.25,2.5c2.36667,0 4.11667,-0.33333 5.25,-1c1.33333,-0.8 2,-2.13333 2,-4c0,-1 -0.56667,-2.11667 -1.7,-3.35c-0.64036,-0.67083 -1.75703,-1.75417 -3.35,-3.25c-0.14375,-0.12174 -0.29375,-0.25508 -0.45,-0.4c-3.55247,-3.48789 -5.38581,-7.20456 -5.5,-11.15c-0.56367,0.9375 -1.08034,2.02083 -1.55,3.25c-0.26237,0.80651 -0.51237,1.67318 -0.75,2.6M659.65,299.6c0.54453,-0.88294 1.04453,-1.71628 1.5,-2.5c0.43529,-0.72135 0.83529,-1.40469 1.2,-2.05c0.39701,-0.66823 0.74701,-1.2849 1.05,-1.85c0.90755,-1.56849 1.52422,-2.73516 1.85,-3.5h0.05c0.0168,-0.03047 0.03346,-0.0638 0.05,-0.1c-0.01471,0.0168 -0.03138,0.03346 -0.05,0.05c-0.03216,0.03685 -0.06549,0.07018 -0.1,0.1c-0.62018,0.71367 -1.48685,1.64701 -2.6,2.8c-0.79974,0.83828 -1.73307,1.78828 -2.8,2.85c-2.2332,2.30312 -5.04987,5.13646 -8.45,8.5c-0.06979,0.03997 -0.13646,0.07331 -0.2,0.1c1.71198,0.72096 3.27865,1.37096 4.7,1.95c1.00078,-1.56276 1.96745,-3.06276 2.9,-4.5c0.47344,-0.71484 0.9401,-1.41484 1.4,-2.1c-0.15482,0.07969 -0.32148,0.16302 -0.5,0.25M665.3,289.7c-0.03333,0.90052 -0.05,2.03385 -0.05,3.4c0,3.66667 0.83333,6.66667 2.5,9c1.93333,2.66667 4.68333,4 8.25,4c2.06667,0 3.48333,-0.33333 4.25,-1c0.66667,-0.56667 1,-1.56667 1,-3c0,-0.86667 -0.7,-1.95 -2.1,-3.25c-0.83333,-0.8 -2.38333,-2.13333 -4.65,-4c-4.28464,-3.77682 -6.53464,-7.51016 -6.75,-11.2c-0.99271,1.91719 -1.64271,3.85052 -1.95,5.8c-0.16055,0.09896 -0.32721,0.18229 -0.5,0.25M646.45,322.05c-0.13333,0.76667 -0.2,2.86667 -0.2,6.3c0,3.36667 0.16667,5.61667 0.5,6.75c0.66667,2.33333 2.16667,3.5 4.5,3.5c1.46667,0 2.8,-0.66667 4,-2c1,-1.1 1.5,-2.01667 1.5,-2.75c0,-0.9 -1.25,-2.83333 -3.75,-5.8c-2.5,-3 -3.75,-5.9 -3.75,-8.7c0,-0.48125 0.01667,-0.96458 0.05,-1.45c0.03268,-0.3362 0.06602,-0.6862 0.1,-1.05c-0.12148,0.13281 -0.25482,0.24948 -0.4,0.35c-0.15807,0.31146 -0.32474,0.61146 -0.5,0.9c-0.49362,0.8388 -0.97695,1.65547 -1.45,2.45c-0.13828,0.23203 -0.27161,0.46536 -0.4,0.7c-0.08047,0.25677 -0.14714,0.52344 -0.2,0.8M733.05,309.1c4.26667,0.46667 7.13333,1.1 8.6,1.9c1.6,0.86667 3.63333,1.48333 6.1,1.85c1.26667,-3.06667 3.23333,-8.21667 5.9,-15.45c2.73333,-7.43333 4.68333,-12.61667 5.85,-15.55c-3.83333,3.06667 -8.3,7.33333 -13.4,12.8c-5.83333,6.43333 -10.1,11.13333 -12.8,14.1l-0.25,0.35M807.15,209.4c-1.7043,3.68307 -3.77096,7.24974 -6.2,10.7c1.67279,1.46289 3.53945,3.19622 5.6,5.2c2.79792,-4.64935 5.21458,-9.49935 7.25,-14.55c-2.59141,-0.17943 -4.80807,-0.62943 -6.65,-1.35M833.1,528.45c-1.7,0 -3.53333,0.91667 -5.5,2.75c-1.93333,1.83333 -3.76667,2.75 -5.5,2.75c-0.66667,0 -1.76667,-0.86667 -3.3,-2.6c-2.36667,-2.66667 -3.98333,-4.4 -4.85,-5.2c-0.33333,-0.3 -0.66667,-0.58333 -1,-0.85c-1.33333,-1.06667 -2.68333,-1.88333 -4.05,-2.45c-2.8,1.56667 -6.56667,2.51667 -11.3,2.85c-1.03333,0 -1.8,-0.08333 -2.3,-0.25l-0.05,-0.05c-0.06667,0 -0.11667,0 -0.15,0c-1.88411,1.97279 -3.51745,4.53945 -4.9,7.7c-0.69714,1.62383 -1.33047,3.39049 -1.9,5.3c-0.69414,2.35143 -1.24414,4.6681 -1.65,6.95c-0.01237,0.08854 -0.02904,0.17188 -0.05,0.25c-0.23542,1.44948 -0.41875,2.88281 -0.55,4.3c-0.13333,1.59049 -0.2,3.15716 -0.2,4.7c0,2.72812 0.35,5.51146 1.05,8.35c0.37409,1.56667 0.85742,3.15 1.45,4.75c1.35586,3.65495 3.07253,6.40495 5.15,8.25c1.01797,0.86914 2.1013,1.53581 3.25,2c-0.54531,2.33477 -1.01198,4.30143 -1.4,5.9c-2.59805,-0.73594 -4.86471,-2.0026 -6.8,-3.8c-0.05286,-0.02253 -0.10286,-0.05586 -0.15,-0.1c-0.23333,0.1 -0.48333,0.2 -0.75,0.3c-2.63333,0.96667 -5.15,1.45 -7.55,1.45c-0.96667,0 -1.86667,-0.11667 -2.7,-0.35c-1.2,1.56667 -2.96667,3.25 -5.3,5.05c-0.5,0.63333 -1.03333,1.33333 -1.6,2.1c-1.91536,2.5125 -3.2487,4.77917 -4,6.8c-0.43333,1.28385 -0.65,2.46719 -0.65,3.55c0,3.99258 2.25,6.45924 6.75,7.4c0.54453,0.98672 1.22786,1.83672 2.05,2.55c0.95286,0.85247 3.0862,2.05247 6.4,3.6c7.26641,-0.99362 12.79974,-4.89362 16.6,-11.7c2.8,-5.06667 4.2,-10.06667 4.2,-15c0,-0.33333 0,-0.66667 0,-1c3,-0.06667 5.86667,-1.43333 8.6,-4.1c2.8,-2.76667 4.68333,-4.15 5.65,-4.15c0.26667,0 2.38333,1.05 6.35,3.15c4.56667,2.06667 8.45,3.1 11.65,3.1c4.11589,0 7.64922,-1.25 10.6,-3.75c-1.38828,-1.91641 -2.58828,-3.68307 -3.6,-5.3c2.42917,-2.57695 4.37917,-6.06029 5.85,-10.45c1.6,-4.7 2.4,-9.31667 2.4,-13.85c0,-3.46667 -1.48333,-7.6 -4.45,-12.4c-1.27878,-2.05091 -2.61211,-3.73424 -4,-5.05c-1.39388,-1.31654 -2.84388,-2.26654 -4.35,-2.85c-1.11771,-0.4 -2.26771,-0.6 -3.45,-0.6M854.4,545.85c0.3,1.53333 0.45,2.65 0.45,3.35c0,6.23333 -0.98333,12.25 -2.95,18.05c-0.16667,0.53333 -0.35,1.05 -0.55,1.55c0.06667,0.03333 0.15,0.08333 0.25,0.15c7,0 10.83333,-0.41667 11.5,-1.25c0.43333,-0.5 0.6,-1.53333 0.5,-3.1c-0.16667,-3.96667 -0.25,-6.05 -0.25,-6.25c0,-7 -2.08333,-11.01667 -6.25,-12.05c-1.06667,-0.16667 -1.96667,-0.31667 -2.7,-0.45M645.65,548.35c0.15195,0.36458 0.88529,1.84792 2.2,4.45c2.0043,-0.41042 5.68763,-1.74375 11.05,-4c2.09049,-0.85951 4.42383,-1.85951 7,-3c2.40313,-1.04857 4.86979,-2.14857 7.4,-3.3c3.2901,-1.46706 6.6901,-3.01706 10.2,-4.65c-5.16667,0.66667 -8.15,1.05 -8.95,1.15c-0.02161,0.00339 -0.05495,0.00339 -0.1,0c-4.04792,0.63828 -7.44792,1.42161 -10.2,2.35c-5.86667,1.16667 -10.26667,2.11667 -13.2,2.85c-1.21849,0.30469 -2.30182,0.63802 -3.25,1c-1.13503,0.49258 -2.06836,1.02591 -2.8,1.6c0.1931,0.49076 0.40977,1.00742 0.65,1.55M646.55,554.2c-0.02812,-0.13724 -0.06146,-0.28724 -0.1,-0.45c-1.73333,0.32292 -3.98333,0.98958 -6.75,2c-0.64128,0.23607 -1.24128,0.45273 -1.8,0.65c-7.12656,-5.1862 -12.42656,-9.41953 -15.9,-12.7l-0.25,0.25c-8.46667,-9.46667 -16.23333,-17.66667 -23.3,-24.6c-1.84714,-1.8112 -3.63047,-3.5112 -5.35,-5.1c-1.40911,-1.28177 -2.77578,-2.49844 -4.1,-3.65c-8.92122,-7.6 -15.70456,-11.4 -20.35,-11.4c-3.2,0 -5.1,0.85 -5.7,2.55c-0.3,0.86667 -0.28333,1.85 0.05,2.95c0,5.43333 4.75,12.51667 14.25,21.25c1.86667,1.73333 5.71667,5.06667 11.55,10c3.06667,2.6 5.45,4.73333 7.15,6.4c0.33333,0.1 0.68333,0.21667 1.05,0.35c-0.03333,0.16667 -0.05,0.38333 -0.05,0.65c0.3,0.3 0.56667,0.58333 0.8,0.85c-0.66667,1 -2,1.5 -4,1.5c-1.76667,0 -4.1,-0.88333 -7,-2.65c-3.93333,-0.86667 -9.18333,-2.06667 -15.75,-3.6c-15.16667,-3.5 -25.58333,-5.25 -31.25,-5.25c-0.93333,0 -2.55,0.15 -4.85,0.45c-3.23333,0.4 -5.53333,0.66667 -6.9,0.8c-2.93333,1.53333 -4.73333,3.13333 -5.4,4.8c-0.23333,0.56667 -0.35,2.05 -0.35,4.45c0,1.73333 0.25,3.05 0.75,3.95c0.8,1.46667 2.4,2.71667 4.8,3.75c6.06667,2.53333 18.3,4.05 36.7,4.55c0,0.16667 0.18333,0.46667 0.55,0.9c0.4,0.5 0.63333,0.86667 0.7,1.1c-0.53333,0.43333 -1.2,0.81667 -2,1.15c-0.86667,1 -2.4,2.38333 -4.6,4.15c-2.13333,1.7 -6.05,4.76667 -11.75,9.2c-11.43333,9.13333 -17.15,15.88333 -17.15,20.25c0,1.3 1.25,2.56667 3.75,3.8c2.7,1.3 5.75,1.95 9.15,1.95c6.3,0 12.83333,-3.08333 19.6,-9.25c3.2,-3.06667 5.48333,-5.18333 6.85,-6.35c2.26667,-1.93333 4.15,-2.9 5.65,-2.9c1.43333,0 3.25,0.58333 5.45,1.75c2.2,1.16667 5.85,1.75 10.95,1.75c2.96667,0 7.21667,-2.06667 12.75,-6.2c1.9,-1.43333 3.51667,-2.61667 4.85,-3.55c0.03333,-1.73333 0.45,-2.88333 1.25,-3.45c0.93333,-0.7 2.85,-1.05 5.75,-1.05c1.16302,0 2.47969,0.2 3.95,0.6c0.70352,1.32773 1.52018,2.72773 2.45,4.2c1.87943,2.98919 3.66276,5.38919 5.35,7.2c5.13021,1.83333 9.38021,2.75 12.75,2.75c6.13333,0 11.13333,-2.08333 15,-6.25c3,-3.26667 4.5,-6.38333 4.5,-9.35c0,-4.63333 -3.26667,-8.93333 -9.8,-12.9c-1.43333,-0.8 -2.73333,-1.55 -3.9,-2.25M717.25,531c0,0.14505 0,0.29505 0,0.45c0,1.06081 -0.98333,3.07747 -2.95,6.05c0.85365,-0.38216 1.82031,-0.76549 2.9,-1.15c0.79792,-2.66706 1.81458,-5.35039 3.05,-8.05c-1.04089,0.89896 -2.04089,1.79896 -3,2.7M717.35,550.35c0,2.64831 0.2,5.23164 0.6,7.75c0.13255,0.82109 0.28255,1.63776 0.45,2.45c2.58581,1.11979 5.61914,1.86979 9.1,2.25c1.79987,0.2 3.71654,0.3 5.75,0.3c0.22292,0 0.43958,0 0.65,0c-0.6194,-1.78958 -1.15273,-3.65625 -1.6,-5.6c-0.86667,-3.86667 -1.3,-7.66667 -1.3,-11.4c0,-3.9543 0.15,-7.5043 0.45,-10.65c-5.86107,0.86602 -10.02773,1.66602 -12.5,2.4c-1.06667,4.08307 -1.6,8.24974 -1.6,12.5M719.65,535.5c3.89961,-1.23047 7.94961,-2.19714 12.15,-2.9c0.28177,-1.95078 0.63177,-3.71745 1.05,-5.3c0.76953,-2.85651 1.80286,-5.50651 3.1,-7.95c-3.9875,1.36458 -7.92083,3.38125 -11.8,6.05c-1.21107,2.02227 -2.27773,4.18893 -3.2,6.5c-0.48216,1.19883 -0.91549,2.39883 -1.3,3.6M779.6,490.75c-1.9,-4.26667 -4.51667,-6.4 -7.85,-6.4c-5.66667,0 -9.46667,2.83333 -11.4,8.5c-0.08268,0.24792 -0.16602,0.49792 -0.25,0.75c-0.66667,2.41315 -1,5.49648 -1,9.25c0,6 0.75,11.11667 2.25,15.35c2.03333,5.73333 5.23333,9.53333 9.6,11.4c0.56667,0.06667 1.2,0.26667 1.9,0.6l0.25,-0.2c0.06667,0.03333 0.13333,0.16667 0.2,0.4c1.46667,0.36667 3.06667,0.55 4.8,0.55c3.13333,0 5.73333,-1.06667 7.8,-3.2c0.13333,-0.13333 0.26667,-0.26667 0.4,-0.4c1,-1.86667 2.2,-3.45 3.6,-4.75c-0.86667,-0.93333 -1.65,-2.11667 -2.35,-3.55c-1.3,-2.66667 -2.66667,-7.38333 -4.1,-14.15c-0.08281,-0.39349 -0.16615,-0.77682 -0.25,-1.15c-0.11549,-0.5401 -0.23216,-1.07344 -0.35,-1.6c-0.12396,-0.55208 -0.25729,-1.10208 -0.4,-1.65c-0.16276,-0.09401 -0.27943,-0.19401 -0.35,-0.3l-0.25,-1.1l0.1,-0.8c-0.67695,-2.71367 -1.31029,-4.86367 -1.9,-6.45c-0.15039,-0.39779 -0.30039,-0.76445 -0.45,-1.1M753.85,514.15c-0.33333,-0.13333 -0.66667,-0.28333 -1,-0.45c-1.33333,-0.66667 -2.41667,-1 -3.25,-1c-0.12174,0 -0.25508,0 -0.4,0c-0.04661,0.00039 -0.11328,0.00039 -0.2,0c-0.09518,0.00117 -0.19518,0.00117 -0.3,0c-0.07552,0.0013 -0.15885,0.0013 -0.25,0l-5.55,0.4c-0.1151,0.0332 -0.23177,0.04987 -0.35,0.05c-0.40937,0.60026 -0.87604,1.28359 -1.4,2.05c-0.12148,0.17969 -0.23815,0.34635 -0.35,0.5c0.91797,-0.1832 1.9013,-0.3832 2.95,-0.6c3.6944,-0.76966 7.11107,-0.78633 10.25,-0.05c-0.05091,-0.30039 -0.10091,-0.60039 -0.15,-0.9M754.65,518.25c-1.64974,-0.7 -3.64974,-1.05 -6,-1.05c-3.20938,0 -6.39271,0.4 -9.55,1.2c-1.32578,2.26445 -2.27578,4.28112 -2.85,6.05c-0.46667,1.4 -1.03333,3.58333 -1.7,6.55c-0.09427,0.42044 -0.19427,0.82044 -0.3,1.2c1.49427,-0.19245 2.99427,-0.35911 4.5,-0.5h13.5c0.5724,0.24883 1.40573,0.59883 2.5,1.05c0.07617,-0.51419 0.15951,-1.03086 0.25,-1.55c0.51615,-2.89779 1.09948,-5.19779 1.75,-6.9c-0.60091,-1.3332 -1.13424,-2.7832 -1.6,-4.35c-0.01549,-0.05313 -0.03216,-0.10313 -0.05,-0.15l-0.15,-0.6c-0.09687,-0.30638 -0.19688,-0.62305 -0.3,-0.95M757,531.6c-0.11484,0.65417 -0.23151,1.30417 -0.35,1.95c1.58451,0.63086 3.50117,1.39753 5.75,2.3c1.29349,0.62747 2.39349,1.24414 3.3,1.85c0.06628,-0.52214 0.13294,-0.97214 0.2,-1.35c0.1,-0.5 0.2,-0.96667 0.3,-1.4c-3.33438,-1.67799 -6.05104,-4.36133 -8.15,-8.05c-0.38281,1.35703 -0.73281,2.9237 -1.05,4.7M736.9,514.35l-4.7,1.7c-0.2293,0.1112 -0.46263,0.2112 -0.7,0.3c-1.33997,1.23789 -2.60664,2.55456 -3.8,3.95c1.77383,-0.74258 3.55716,-1.54258 5.35,-2.4c1.13698,-0.44414 2.67031,-0.92747 4.6,-1.45c0.68477,-0.96979 1.40143,-1.91979 2.15,-2.85c-0.87227,0.20026 -1.73893,0.41693 -2.6,0.65c-0.08945,0.02943 -0.18945,0.06276 -0.3,0.1M723.4,522.55c0.31068,-0.51003 0.62734,-0.99336 0.95,-1.45c-0.88802,0.78555 -1.73802,1.61888 -2.55,2.5c0.55651,-0.37995 1.08984,-0.72995 1.6,-1.05M733.7,535.1c-0.23333,1.52148 -0.35,2.72148 -0.35,3.6c0,9.77266 1.11667,17.87266 3.35,24.3c6.62409,-0.32096 12.72409,-1.62096 18.3,-3.9c-0.16888,-0.7625 -0.33555,-1.59583 -0.5,-2.5c-0.66667,-3.7 -1,-6.81667 -1,-9.35c0,-3.72995 0.28333,-7.67995 0.85,-11.85c-0.65833,-0.24349 -1.325,-0.47682 -2,-0.7l-13.6,-0.25c-1.78151,0.22852 -3.46484,0.44518 -5.05,0.65M758.35,557.6c1.83815,-0.89089 4.05482,-2.15755 6.65,-3.8c0.17891,-0.11406 0.34557,-0.23073 0.5,-0.35c-0.1,-2.83919 -0.15,-4.28919 -0.15,-4.35c0,-2.91562 0.03333,-5.38229 0.1,-7.4c-0.52656,-0.42305 -1.12656,-0.87305 -1.8,-1.35c-0.00417,-0.01224 -0.02083,-0.02891 -0.05,-0.05c-2.25534,-1.58542 -4.68867,-2.95208 -7.3,-4.1c-0.3,2.64115 -0.45,5.14115 -0.45,7.5c0,4.92044 0.63333,9.65378 1.9,14.2c0.18164,-0.07539 0.36497,-0.15872 0.55,-0.25c0.02656,-0.01302 0.04323,-0.02969 0.05,-0.05M772.1,539.55c-0.50742,2.80078 -0.85742,4.96745 -1.05,6.5c-0.13333,0.97695 -0.2,1.69362 -0.2,2.15c0,0.60755 0.01667,1.22422 0.05,1.85c0.02773,0.81367 0.07773,1.64701 0.15,2.5c0.00951,0.07305 0.00951,0.13971 0,0.2c0.32995,3.15456 0.94661,6.63789 1.85,10.45c0.28932,1.2263 0.58932,2.35964 0.9,3.4c0.4582,1.48542 0.94154,2.78542 1.45,3.9c0.26667,-0.03333 0.55,-0.05 0.85,-0.05c1.43333,0 2.36667,1.03333 2.8,3.1c0.1,0.5 0.16667,1.03333 0.2,1.6c0.46667,0.2 0.96667,0.3 1.5,0.3c0.93333,0 2.23333,-0.2 3.9,-0.6c-0.83333,-1.53333 -1.55,-3.23333 -2.15,-5.1c-0.43607,-1.36628 -0.80273,-2.79961 -1.1,-4.3c-0.38294,-1.92357 -0.64961,-3.9569 -0.8,-6.1c-0.06667,-3.23333 -0.1,-4.9 -0.1,-5c0,-0.86289 0,-1.69622 0,-2.5c0,-0.24297 0,-0.49297 0,-0.75c0.01849,-2.32279 0.05182,-4.23945 0.1,-5.75c0.0638,-1.66849 0.14714,-2.81849 0.25,-3.45c0.26667,-1.63333 0.76667,-3.48333 1.5,-5.55c-1.93333,0.4 -4.13333,0.6 -6.6,0.6c-1.03333,0 -2.03333,-0.05 -3,-0.15c-0.13333,0.8 -0.3,1.71667 -0.5,2.75M767.1,565.25c-0.58242,-2.58646 -1.03242,-5.38646 -1.35,-8.4c-1.63216,1.07461 -3.88216,2.24128 -6.75,3.5c-0.07695,0.06016 -0.16029,0.11016 -0.25,0.15c-0.06406,0.02826 -0.13073,0.04492 -0.2,0.05c1.57591,4.71081 3.82591,9.21081 6.75,13.5c1.33724,-0.82878 2.53724,-1.66211 3.6,-2.5c-0.66888,-1.76732 -1.25221,-3.76732 -1.75,-6c-0.01979,-0.0875 -0.03646,-0.1875 -0.05,-0.3M764.45,577.65c-5.2207,2.39297 -10.4707,3.75964 -15.75,4.1c2.56302,2.68477 4.71302,4.30143 6.45,4.85c5.00091,-0.64922 9.15091,-2.36589 12.45,-5.15c-0.94622,-0.91198 -1.99622,-2.17865 -3.15,-3.8M767,576.4c0.83242,1.08555 1.69909,2.15221 2.6,3.2c0.81133,-0.85924 1.51133,-1.74258 2.1,-2.65c-0.52461,-0.72357 -1.02461,-1.54023 -1.5,-2.45c-0.84857,0.62201 -1.91523,1.25534 -3.2,1.9M755.65,561.75c-5.76224,2.20443 -11.74557,3.52109 -17.95,3.95c1.92747,4.46706 4.79414,8.93372 8.6,13.4c6.41914,-0.02201 11.96914,-1.25534 16.65,-3.7c-0.68086,-1.19115 -2.66419,-4.62448 -5.95,-10.3c-0.46563,-0.81471 -0.91563,-1.93138 -1.35,-3.35M733.25,565.85c-5.48919,0 -10.23919,-0.91667 -14.25,-2.75c0.63568,2.18359 1.41901,4.31693 2.35,6.4c0.60612,1.35195 1.90612,3.25195 3.9,5.7c4.93216,2.26419 10.84883,3.53086 17.75,3.8c-2.68711,-3.48047 -4.85378,-6.8138 -6.5,-10c-0.54245,-1.02591 -1.05911,-2.09258 -1.55,-3.2c-0.55365,0.03333 -1.12031,0.05 -1.7,0.05M739.7,585.95c0.07552,-0.05755 0.17552,-0.25755 0.3,-0.6c0.4,0.26667 0.66667,0.48333 0.8,0.65c0.04427,0.05898 0.0776,0.12565 0.1,0.2c0.30195,0.04974 0.58529,0.09974 0.85,0.15l6.35,0.55c0.60156,0.03151 1.20156,0.04818 1.8,0.05c-1.44076,-1.35091 -3.00742,-3.05091 -4.7,-5.1c-6.25299,-0.07917 -11.88633,-1.1125 -16.9,-3.1c2.31549,2.60247 4.33216,4.53581 6.05,5.8l4.5,1.25c0.29193,0.05911 0.57526,0.10911 0.85,0.15M513.4,346.35c0,5 1.33333,9.75 4,14.25c4.63333,7.86667 12.41667,11.8 23.35,11.8c10.77852,0 19.67852,-3.63333 26.7,-10.9c1.9431,-2.02422 3.7431,-4.32422 5.4,-6.9c1.25391,-1.9681 2.37057,-4.03477 3.35,-6.2c1.11419,-2.36497 2.06419,-4.84831 2.85,-7.45c1.13333,-3.8 1.7,-6.8 1.7,-9c0,-2.43333 -0.71667,-5.48333 -2.15,-9.15c-1.83333,-4.56667 -4.3,-8.38333 -7.4,-11.45c-8.83333,-8.7 -20.68333,-9.23333 -35.55,-1.6c-8.26667,4.23333 -14.25,9.98333 -17.95,17.25c-2.86667,5.63333 -4.3,12.08333 -4.3,19.35M604.9,301.65c-4.74401,2.35742 -8.89401,4.39076 -12.45,6.1l0.25,0.5c0.29818,0.57839 0.63151,1.22839 1,1.95c1.86667,3.56667 3.26667,6.03333 4.2,7.4c0.12617,-0.0806 0.25951,-0.1806 0.4,-0.3c0.82786,-0.49479 2.07786,-1.27812 3.75,-2.35c3.44701,-2.12591 8.69701,-5.37591 15.75,-9.75c8.23333,-5.1 15.18333,-9.63333 20.85,-13.6l0.1,-0.1c-3.23333,0.76667 -6.96667,1.56667 -11.2,2.4c-4.24531,0.80378 -7.72865,1.35378 -10.45,1.65c-4.41576,2.23893 -8.48242,4.27227 -12.2,6.1M617.65,397.45c-1.10352,-1.27708 -2.15352,-3.41042 -3.15,-6.4c-0.74674,-2.2401 -1.34674,-4.55677 -1.8,-6.95c-11.08086,0.28086 -19.09753,9.03086 -24.05,26.25c-2.53333,8.83333 -3.95,18.08333 -4.25,27.75c0,10.13333 2.28333,17.25 6.85,21.35c3.86667,3.5 10.03333,5.25 18.5,5.25c3.5,0 6.55,-0.86667 9.15,-2.6c0.79557,-0.51328 1.47891,-1.04661 2.05,-1.6c-0.3,-1.55547 -0.45,-2.85547 -0.45,-3.9c0,-3.96667 0.55,-7.66667 1.65,-11.1c0.80716,-2.62331 1.30716,-4.58997 1.5,-5.9c-1.55,-1.09128 -2.93333,-3.49128 -4.15,-7.2c-0.72513,-2.30859 -1.3918,-5.12526 -2,-8.45c-0.63333,-3.46667 -1.15,-7.26667 -1.55,-11.4c-0.3,-3.5 -0.45,-5.28333 -0.45,-5.35c0,-2.12474 0.71667,-5.37474 2.15,-9.75M618.8,529.6c1.32109,1.37344 2.82109,2.97344 4.5,4.8c2.62943,2.81133 5.69609,6.16133 9.2,10.05c1.93333,1.9 4.38333,3.81667 7.35,5.75c-0.23333,-0.33333 -0.45,-0.66667 -0.65,-1c-3.34818,-5.10208 -5.93151,-8.68542 -7.75,-10.75c-0.44167,-0.50885 -0.84167,-0.92552 -1.2,-1.25c-4.13333,-4.66667 -7.55,-8.05 -10.25,-10.15c-2.53333,-1.93333 -5.55,-3.48333 -9.05,-4.65c2.63333,2.1 5.25,4.5 7.85,7.2M704.05,272.6c-0.0056,0 -0.02227,0 -0.05,0c-0.11159,-0.01276 -0.22826,-0.02943 -0.35,-0.05c0.14727,0.02083 0.2806,0.0375 0.4,0.05z" fill="#000000"/><path d="M772.5,307.1c2.74232,1.30078 6.64232,3.16745 11.7,5.6c5.92357,3.00312 10.8069,5.90312 14.65,8.7c5.50339,4.0151 8.92005,7.83177 10.25,11.45c-0.69935,2.09805 -1.68268,3.66471 -2.95,4.7c-0.23503,-0.14023 -0.46836,-0.29023 -0.7,-0.45c-1.33594,-1.82357 -3.21927,-3.69023 -5.65,-5.6c-0.25117,-0.36888 -0.48451,-0.75221 -0.7,-1.15c0,0.10208 -0.2,0.16875 -0.6,0.2c-1.63021,-1.20846 -3.39687,-2.37513 -5.3,-3.5c-3.77604,-2.19388 -8.05938,-4.17721 -12.85,-5.95c-7.22656,-2.69349 -13.4599,-4.16016 -18.7,-4.4c-0.05664,0.00286 -0.12331,0.00286 -0.2,0c-0.23177,-0.00807 -0.4651,-0.02474 -0.7,-0.05c0.6125,-1.16055 1.22917,-2.37721 1.85,-3.65c1.3349,-2.69674 2.7349,-5.61341 4.2,-8.75c0.22799,0.14023 0.46133,0.27357 0.7,0.4c0.71302,0.37057 1.51302,0.77057 2.4,1.2c0.70286,0.33294 1.56953,0.74961 2.6,1.25z" fill="#91c53c"/><path d="M705.95,315.05c-6.94622,1.80117 -13.06289,4.90117 -18.35,9.3c0.45534,-0.96406 1.08867,-1.96406 1.9,-3c2.19232,-2.78451 5.69232,-5.73451 10.5,-8.85c4.23333,-2.73333 8.66667,-4.98333 13.3,-6.75c1.34023,-0.50026 2.62357,-0.93359 3.85,-1.3c-5.48971,4.92617 -9.22305,8.45951 -11.2,10.6z" fill="#246f44"/><path d="M779.9,182.35c0.54583,1.61536 1.0625,2.9487 1.55,4c-2.71706,4.81758 -6.08372,11.06758 -10.1,18.75c-4.36667,8.43333 -16.63333,15.88333 -36.8,22.35c-1.81237,0.57813 -3.61237,1.12812 -5.4,1.65c-7.58776,-0.01615 -13.10443,-0.53281 -16.55,-1.55c-5.2,-1.53333 -9.98333,-4.85 -14.35,-9.95c-1.83333,4.76667 -5.56667,8.46667 -11.2,11.1c-4.9,2.26667 -10.33333,3.4 -16.3,3.4c-10.13333,0 -18.46667,-4.16667 -25,-12.5c-6.33333,-8.06667 -9.5,-18.06667 -9.5,-30c0,-6 0.46667,-10.55 1.4,-13.65c0.82695,-2.72018 2.19362,-5.20352 4.1,-7.45c-1.83333,6.71016 -2.75,12.74349 -2.75,18.1c0,8.46667 1.41667,15.7 4.25,21.7c3.72005,7.97956 9.55339,12.56289 17.5,13.75c0.12109,0.08281 0.23776,0.14948 0.35,0.2c1.56667,0.73333 5.06667,1.1 10.5,1.1c7.96667,0 17.56667,-6.5 28.8,-19.5c0.03034,-0.03516 0.06367,-0.06849 0.1,-0.1c0.5263,1.04362 1.09297,2.06029 1.7,3.05c6.4,10.36667 15.7,15.55 27.9,15.55c20.5,0 36.1,-11.41667 46.8,-34.25c0.97865,-2.0944 1.89531,-4.2444 2.75,-6.45c0.08503,0.22878 0.16836,0.46211 0.25,0.7M665.8,289.45c0.30729,-1.94948 0.95729,-3.88281 1.95,-5.8c0.21536,3.68984 2.46536,7.42318 6.75,11.2c2.26667,1.86667 3.81667,3.2 4.65,4c1.4,1.3 2.1,2.38333 2.1,3.25c0,1.43333 -0.33333,2.43333 -1,3c-0.76667,0.66667 -2.18333,1 -4.25,1c-3.56667,0 -6.31667,-1.33333 -8.25,-4c-1.66667,-2.33333 -2.5,-5.33333 -2.5,-9c0,-1.36615 0.01667,-2.49948 0.05,-3.4c0.17279,-0.06771 0.33945,-0.15104 0.5,-0.25M657.2,305.2c0.46966,-1.22917 0.98633,-2.3125 1.55,-3.25c0.11419,3.94544 1.94753,7.66211 5.5,11.15c0.15625,0.14492 0.30625,0.27826 0.45,0.4c-3.62461,1.16185 -6.77461,2.11185 -9.45,2.85c0.04245,-2.79583 0.44245,-5.64583 1.2,-8.55c0.23763,-0.92682 0.48763,-1.79349 0.75,-2.6M698.75,299.6c0,-2.13333 5.98333,-5.1 17.95,-8.9l8.75,-2.75c-4.76354,2.21276 -9.99688,4.76276 -15.7,7.65c-3.37786,1.7112 -6.8612,3.3612 -10.45,4.95c-0.36667,-0.27604 -0.55,-0.59271 -0.55,-0.95M802.95,230.85c-5.48333,7.83984 -12,14.62318 -19.55,20.35c-0.02318,0.02969 -0.05651,0.04635 -0.1,0.05c-0.20117,0.17305 -0.41784,0.33971 -0.65,0.5c-7.59622,5.64909 -16.22956,10.23242 -25.9,13.75c-9.18815,3.37096 -19.30482,5.77096 -30.35,7.2c-0.35247,0.05677 -0.70247,0.10677 -1.05,0.15h-4.4c-5.3168,0.37422 -10.95013,0.29089 -16.9,-0.25c-0.1194,-0.0125 -0.25273,-0.02917 -0.4,-0.05c-0.35339,-0.0332 -0.72005,-0.06654 -1.1,-0.1c-1.23555,-0.12878 -2.48555,-0.27878 -3.75,-0.45c-4.42357,-0.58281 -9.0069,-1.41615 -13.75,-2.5c4.72904,0.56667 9.57904,0.85 14.55,0.85c7.4,0 16.83333,-1.56667 28.3,-4.7c11.69141,-3.19883 22.57474,-7.36549 32.65,-12.5c1.79479,-0.89688 3.56146,-1.83021 5.3,-2.8c0.04492,-0.025 0.07826,-0.05833 0.1,-0.1c11.18815,-3.67148 23.52148,-10.13815 37,-19.4z" fill="#86bcff"/><path d="M743.25,528.6l-1,0.25c-0.66667,-0.03333 -1.23333,-0.28333 -1.7,-0.75c-0.4,-0.53333 -0.71667,-0.91667 -0.95,-1.15c0.53333,-1.33333 1.33333,-1.86667 2.4,-1.6c1,0.23333 1.5,0.85 1.5,1.85c0,0.83333 -0.08333,1.3 -0.25,1.4M753.1,522.45c0,0.83333 -0.61667,1.51667 -1.85,2.05c-1.13333,0.5 -2.63333,0.81667 -4.5,0.95c-2.26667,-0.63333 -3.4,-2 -3.4,-4.1c0,-3.03333 1.63333,-4.1 4.9,-3.2c1.23333,0.36667 2.35,0.96667 3.35,1.8c1,0.86667 1.5,1.7 1.5,2.5z" fill="#8fbbbe"/></g></g></svg>