<svg version="1.1" xmlns="http://www.w3.org/2000/svg" xmlns:xlink="http://www.w3.org/1999/xlink" width="49.04897" height="61.72661" viewBox="0,0,49.04897,61.72661"><g transform="translate(-610.99743,-339.75214)"><g data-paper-data="{&quot;isPaintingLayer&quot;:true}" fill-rule="nonzero" stroke="none" stroke-width="1" stroke-linecap="round" stroke-linejoin="miter" stroke-miterlimit="4" stroke-dasharray="" stroke-dashoffset="0" style="mix-blend-mode: normal"><path d="M653.95549,340.69051c1.7,0.5 3.03333,1.28333 4,2.35c1.2,1.26667 1.88333,3.03333 2.05,5.3c0.1,1.16667 0.01667,2.13333 -0.25,2.9c0.06667,0.2 0.1,0.4 0.1,0.6c0.03333,0.86667 -0.28333,1.71667 -0.95,2.55c-0.33333,0.36667 -1.03333,1.03333 -2.1,2c-2.4,2.1 -4.56667,4.86667 -6.5,8.3c-1.23333,2.16667 -2.76667,5.41667 -4.6,9.75l0.25,-0.8c-1.06667,2.93333 -1.88333,5.86667 -2.45,8.8c-0.53333,1.2 -0.96667,2.66667 -1.3,4.4c-0.13333,1.03333 -0.33333,2.56667 -0.6,4.6c-0.6,3.9 -1.86667,6.65 -3.8,8.25c-0.9,0.76667 -1.96667,1.3 -3.2,1.6c-1.2,0.26667 -2.38333,0.25 -3.55,-0.05c-2.2,-0.6 -3.95,-2.13333 -5.25,-4.6c-0.9,-1.8 -1.45,-4.1 -1.65,-6.9c-0.3,-4.4 0.25,-9.26667 1.65,-14.6c0.86667,-3.5 2.46667,-8.2 4.8,-14.1c0.03333,-0.13333 0.06667,-0.23333 0.1,-0.3c-0.66667,-0.1 -1.46667,-0.16667 -2.4,-0.2c-1.26667,-0.03333 -2.21667,-0.06667 -2.85,-0.1c-1.2,-0.06667 -2.7,-0.26667 -4.5,-0.6c-2.9,-0.53333 -4.38333,-0.8 -4.45,-0.8c-1.13333,-0.2 -1.95,-0.38333 -2.45,-0.55c-0.86667,-0.26667 -1.55,-0.66667 -2.05,-1.2c-0.83333,-0.93333 -1.15,-2.26667 -0.95,-4c0.4,-1.83333 0.66667,-3.2 0.8,-4.1c0.1,-1.26667 0.2,-2.21667 0.3,-2.85c0.2,-1.1 0.55,-1.93333 1.05,-2.5c0.6,-0.6 1.7,-1.06667 3.3,-1.4c11,-2.26667 21.88333,-3.1 32.65,-2.5c1.96667,0.16667 3.56667,0.41667 4.8,0.75M617.40549,352.74051c3.93333,0.8 6.76667,1.26667 8.5,1.4c0.96667,0.06667 2.38333,0.1 4.25,0.1c1.7,0.03333 3.11667,0.16667 4.25,0.4c1.66667,0.4 2.88333,1.06667 3.65,2c0.46667,0.56667 0.73333,1.21667 0.8,1.95c0.1,0.76667 -0.05,1.43333 -0.45,2c-0.3,0.36667 -0.63333,0.65 -1,0.85c-0.03333,0.03333 -0.06667,0.06667 -0.1,0.1c-0.23333,0.6 -0.51667,1.3 -0.85,2.1c-2.33333,5.06667 -3.96667,9.63333 -4.9,13.7c-1.26667,5.06667 -1.6,9.81667 -1,14.25c0.16667,1.16667 0.46667,2.01667 0.9,2.55c0,0.03333 0.01667,0.06667 0.05,0.1c0.03333,0 0.05,0.01667 0.05,0.05c0.3,0.36667 0.71667,0.6 1.25,0.7c0.56667,0.1 1,-0.01667 1.3,-0.35c0.33333,-0.26667 0.56667,-0.76667 0.7,-1.5l2.55,-11.25c2.83333,-13.13333 8.15,-23.4 15.95,-30.8c0.2,-0.23333 0.4,-0.43333 0.6,-0.6c0,-0.76667 -0.01667,-1.35 -0.05,-1.75c-0.03333,-0.66667 -0.2,-1.15 -0.5,-1.45c-0.36667,-0.4 -0.95,-0.63333 -1.75,-0.7c-1.36667,-0.2 -2.98333,-0.33333 -4.85,-0.4c-9.7,-0.43333 -19.31667,0.38333 -28.85,2.45z" fill="#000000"/><path d="M651.60549,346.59051c0.8,0.06667 1.38333,0.3 1.75,0.7c0.3,0.3 0.46667,0.78333 0.5,1.45c0.03333,0.4 0.05,0.98333 0.05,1.75c-0.2,0.16667 -0.4,0.36667 -0.6,0.6c-7.8,7.4 -13.11667,17.66667 -15.95,30.8l-2.55,11.25c-0.13333,0.73333 -0.36667,1.23333 -0.7,1.5c-0.3,0.33333 -0.73333,0.45 -1.3,0.35c-0.53333,-0.1 -0.95,-0.33333 -1.25,-0.7c0,-0.03333 -0.01667,-0.05 -0.05,-0.05c-0.03333,-0.03333 -0.05,-0.06667 -0.05,-0.1c-0.43333,-0.53333 -0.73333,-1.38333 -0.9,-2.55c-0.6,-4.43333 -0.26667,-9.18333 1,-14.25c0.93333,-4.06667 2.56667,-8.63333 4.9,-13.7c0.33333,-0.8 0.61667,-1.5 0.85,-2.1c0.03333,-0.03333 0.06667,-0.06667 0.1,-0.1c0.36667,-0.2 0.7,-0.48333 1,-0.85c0.4,-0.56667 0.55,-1.23333 0.45,-2c-0.06667,-0.73333 -0.33333,-1.38333 -0.8,-1.95c-0.76667,-0.93333 -1.98333,-1.6 -3.65,-2c-1.13333,-0.23333 -2.55,-0.36667 -4.25,-0.4c-1.86667,0 -3.28333,-0.03333 -4.25,-0.1c-1.73333,-0.13333 -4.56667,-0.6 -8.5,-1.4l0.5,-4.1c9.53333,-2.06667 19.15,-2.88333 28.85,-2.45c1.86667,0.06667 3.48333,0.2 4.85,0.4z" fill="#ffffff"/></g></g></svg>