<svg version="1.1" xmlns="http://www.w3.org/2000/svg" xmlns:xlink="http://www.w3.org/1999/xlink" width="45.10625" height="69.42512" viewBox="0,0,45.10625,69.42512"><g transform="translate(-608.10811,-337.83229)"><g data-paper-data="{&quot;isPaintingLayer&quot;:true}" fill-rule="nonzero" stroke="none" stroke-width="1" stroke-linecap="butt" stroke-linejoin="miter" stroke-miterlimit="10" stroke-dasharray="" stroke-dashoffset="0" style="mix-blend-mode: normal"><path d="M650.95811,345.98784c0.26667,0.5 0.48333,1.01667 0.65,1.55c0.13333,0.53333 0.3,1.08333 0.5,1.65c0.03333,0.06667 0.06667,0.15 0.1,0.25c0,0.1 0,0.18333 0,0.25c0,0.1 0,0.2 0,0.3c0,0.16667 0,0.35 0,0.55c0,0.06667 0,0.15 0,0.25c0.03333,0.1 0.06667,0.18333 0.1,0.25c0.03333,0.1 0.06667,0.2 0.1,0.3c0,0.06667 0.01667,0.15 0.05,0.25c0,0.1 0,0.18333 0,0.25c0,0.1 0,0.2 0,0.3c0,0.16667 0,0.33333 0,0.5c0,0.1 0,0.2 0,0.3c0.03333,0.06667 0.06667,0.15 0.1,0.25c0.13333,0.26667 0.2,0.53333 0.2,0.8c0.03333,0.16667 0.05,0.35 0.05,0.55c0,0.26667 0,0.53333 0,0.8c0,0.26667 0.01667,0.53333 0.05,0.8c0,0.1 0.01667,0.18333 0.05,0.25c0.23333,0.63333 0.33333,1.26667 0.3,1.9c0,0.7 0,1.41667 0,2.15c0,0.7 0,1.41667 0,2.15c0,0.23333 0,0.5 0,0.8c-0.03333,0.06667 -0.06667,0.15 -0.1,0.25c-0.03333,0.1 -0.06667,0.18333 -0.1,0.25c-0.03333,0.1 -0.06667,0.2 -0.1,0.3c-0.03333,0.06667 -0.05,0.15 -0.05,0.25c0,0.1 0,0.18333 0,0.25c0,0.3 0,0.56667 0,0.8c0,0.2 0,0.38333 0,0.55c0,0.1 0,0.2 0,0.3c0,0.16667 0,0.33333 0,0.5c-0.03333,0.1 -0.06667,0.2 -0.1,0.3c-0.03333,0.06667 -0.06667,0.15 -0.1,0.25c-0.03333,0.1 -0.06667,0.18333 -0.1,0.25c-0.03333,0.1 -0.06667,0.2 -0.1,0.3c0,0.06667 0,0.15 0,0.25c0,0.1 0,0.18333 0,0.25c0,0.1 0,0.2 0,0.3c-0.03333,0.06667 -0.05,0.15 -0.05,0.25c-0.03333,0.1 -0.06667,0.18333 -0.1,0.25c-0.03333,0.1 -0.06667,0.2 -0.1,0.3c0,0.1 0,0.18333 0,0.25c0,0.1 0,0.2 0,0.3c-0.16667,0.53333 -0.33333,1.06667 -0.5,1.6c-1.23333,4.43333 -3.96667,7.65 -8.2,9.65c-4.2,2 -8.65,2.8 -13.35,2.4c0,0.06667 0,0.15 0,0.25c0,0.1 0,0.18333 0,0.25c0,0.1 0,0.2 0,0.3c0.03333,0.06667 0.06667,0.15 0.1,0.25c0.03333,0.1 0.06667,0.2 0.1,0.3c0,0.06667 0.01667,0.15 0.05,0.25c0.03333,0.1 0.06667,0.18333 0.1,0.25c0,0.1 0,0.2 0,0.3c0,0.23333 0,0.5 0,0.8c0,0.16667 0,0.33333 0,0.5c0,0.2 0,0.38333 0,0.55c0,0.36667 0,0.71667 0,1.05c0.03333,0.1 0.06667,0.2 0.1,0.3c0.03333,0.1 0.06667,0.18333 0.1,0.25c0.03333,0.1 0.05,0.2 0.05,0.3c0.03333,0.06667 0.06667,0.15 0.1,0.25c0,0.1 0,0.18333 0,0.25c0,0.26667 0,0.53333 0,0.8c0,0.2 0,0.38333 0,0.55c0,0.26667 0,0.53333 0,0.8c0,0.36667 0,0.73333 0,1.1c0.03333,0.06667 0.06667,0.15 0.1,0.25c0.03333,0.1 0.06667,0.18333 0.1,0.25c0.03333,0.1 0.06667,0.2 0.1,0.3c0.03333,0.06667 0.05,0.15 0.05,0.25c0,0.1 0,0.18333 0,0.25c0,0.36667 0,0.73333 0,1.1c0,0.23333 0,0.5 0,0.8c0,0.36667 0,0.71667 0,1.05c0,0.26667 0,0.53333 0,0.8c0.03333,0.1 0.06667,0.2 0.1,0.3c0.03333,0.06667 0.06667,0.15 0.1,0.25c0.03333,0.1 0.06667,0.18333 0.1,0.25c0.03333,0.1 0.06667,0.2 0.1,0.3c0,0.06667 0,0.15 0,0.25c-0.03333,0.26667 -0.03333,0.53333 0,0.8c0,0.2 0,0.38333 0,0.55c-0.03333,0.26667 -0.05,0.53333 -0.05,0.8c0.03333,0.36667 0.05,0.71667 0.05,1.05c-0.03333,0.1 -0.08333,0.18333 -0.15,0.25c-1.63333,2.8 -4.25,4.01667 -7.85,3.65c-0.3,-0.03333 -0.61667,-0.01667 -0.95,0.05c-3.7,0.7 -7.1,0.25 -10.2,-1.35c-0.36667,-0.16667 -0.68333,-0.4 -0.95,-0.7c-0.06667,-0.1 -0.11667,-0.2 -0.15,-0.3c-0.06667,-0.06667 -0.11667,-0.15 -0.15,-0.25c0,-0.1 -0.01667,-0.18333 -0.05,-0.25c-0.03333,-0.1 -0.06667,-0.2 -0.1,-0.3c0,-0.06667 0,-0.15 0,-0.25c0,-0.1 0,-0.18333 0,-0.25c-0.03333,-0.1 -0.06667,-0.2 -0.1,-0.3c-0.03333,-0.06667 -0.06667,-0.15 -0.1,-0.25c-0.03333,-0.1 -0.05,-0.18333 -0.05,-0.25c0,-0.1 0,-0.2 0,-0.3c-0.03333,-0.26667 -0.05,-0.53333 -0.05,-0.8c0.03333,-0.16667 0.05,-0.33333 0.05,-0.5c0,-0.2 0,-0.38333 0,-0.55c0,-0.2 0,-0.38333 0,-0.55c-0.03333,-0.1 -0.08333,-0.18333 -0.15,-0.25c-0.2,-0.4 -0.28333,-0.85 -0.25,-1.35c0,-0.43333 0,-0.88333 0,-1.35c0,-0.36667 0,-0.71667 0,-1.05c0,-0.2 0,-0.38333 0,-0.55c0,-0.1 -0.01667,-0.18333 -0.05,-0.25c-0.03333,-0.1 -0.06667,-0.2 -0.1,-0.3c-0.03333,-0.06667 -0.06667,-0.15 -0.1,-0.25c-0.03333,-0.1 -0.06667,-0.18333 -0.1,-0.25c0,-0.1 0,-0.2 0,-0.3c0,-0.26667 0,-0.53333 0,-0.8c0,-0.16667 0,-0.35 0,-0.55c0,-0.16667 0,-0.33333 0,-0.5c0,-0.3 0,-0.56667 0,-0.8c-0.03333,-0.1 -0.06667,-0.2 -0.1,-0.3c-0.23333,-0.56667 -0.33333,-1.18333 -0.3,-1.85c0.03333,-0.73333 0.05,-1.45 0.05,-2.15c0,-0.7 0,-1.41667 0,-2.15c0,-0.36667 0,-0.71667 0,-1.05c-0.03333,-0.1 -0.06667,-0.2 -0.1,-0.3c-0.26667,-0.73333 -0.35,-1.53333 -0.25,-2.4c0.1,-0.8 0.13333,-1.6 0.1,-2.4c0,-0.96667 0,-1.95 0,-2.95c0,-0.26667 0,-0.53333 0,-0.8c-0.03333,-0.1 -0.06667,-0.18333 -0.1,-0.25c-0.03333,-0.1 -0.06667,-0.2 -0.1,-0.3c-0.03333,-0.06667 -0.06667,-0.15 -0.1,-0.25c0,-0.1 -0.01667,-0.18333 -0.05,-0.25c0,-0.1 0,-0.2 0,-0.3c-0.06667,-1.6 -0.08333,-3.2 -0.05,-4.8c0.06667,-2.43333 0.1,-4.85 0.1,-7.25c0,-1.7 0.1,-3.4 0.3,-5.1c0,-0.06667 -0.01667,-0.15 -0.05,-0.25c-0.06667,-0.43333 -0.1,-0.88333 -0.1,-1.35c0.03333,-0.43333 0.06667,-0.88333 0.1,-1.35c0.03333,-0.43333 0.06667,-0.86667 0.1,-1.3c0.03333,-0.26667 0.13333,-0.53333 0.3,-0.8c0,-0.1 0,-0.2 0,-0.3c0.03333,-0.43333 0.05,-0.88333 0.05,-1.35c0.03333,-0.43333 0.03333,-0.86667 0,-1.3c-0.03333,-0.46667 -0.01667,-0.91667 0.05,-1.35c0.03333,-0.26667 0.05,-0.53333 0.05,-0.8c-0.03333,-0.1 -0.1,-0.16667 -0.2,-0.2c-0.36667,-0.26667 -0.7,-0.56667 -1,-0.9c-0.13333,-0.16667 -0.25,-0.35 -0.35,-0.55c-0.06667,-0.16667 -0.13333,-0.33333 -0.2,-0.5c-0.03333,-0.1 -0.06667,-0.18333 -0.1,-0.25c0,-0.1 0,-0.2 0,-0.3c0.13333,-2 1.2,-3.36667 3.2,-4.1c3.23333,-1.13333 6.53333,-1.66667 9.9,-1.6c4.83333,0.03333 9.65,0.18333 14.45,0.45c5.4,0.3 10.11667,2.23333 14.15,5.8c0.06667,0.1 0.11667,0.18333 0.15,0.25c0.36667,0.56667 0.7,1.11667 1,1.65M645.15811,348.63784c-2.9,-2.86667 -6.45,-4.35 -10.65,-4.45c-4.13333,-0.1 -8.26667,-0.16667 -12.4,-0.2c-1.5,0.4 -3.05,0.63333 -4.65,0.7c-1.1,0 -2.2,0.13333 -3.3,0.4c-0.1,0.06667 -0.21667,0.15 -0.35,0.25c0.1,0.26667 0.13333,0.53333 0.1,0.8c0,0.26667 0.01667,0.53333 0.05,0.8c0.06667,0.9 0.1,1.8 0.1,2.7c0.03333,0.86667 0.05,1.75 0.05,2.65c-0.03333,0.1 -0.06667,0.2 -0.1,0.3c-0.03333,0.06667 -0.06667,0.15 -0.1,0.25c-0.06667,0.1 -0.13333,0.18333 -0.2,0.25c0.03333,0.26667 0.06667,0.53333 0.1,0.8c0,0.1 0,0.2 0,0.3c0,0.23333 0,0.5 0,0.8c0,0.06667 0,0.15 0,0.25c0.06667,0.16667 0.13333,0.35 0.2,0.55c0.03333,0.1 0.06667,0.18333 0.1,0.25c0,0.1 0.01667,0.2 0.05,0.3c0,0.06667 0,0.15 0,0.25c0,0.1 0,0.18333 0,0.25c-0.03333,0.1 -0.05,0.2 -0.05,0.3c-0.03333,0.06667 -0.06667,0.15 -0.1,0.25c-0.03333,0.1 -0.06667,0.18333 -0.1,0.25c0,1.13333 0,2.3 0,3.5c0.03333,2.93333 0.08333,5.88333 0.15,8.85c0.03333,0.9 0.05,1.78333 0.05,2.65c0,0.1 0,0.18333 0,0.25c0.03333,0.1 0.08333,0.2 0.15,0.3c0.03333,0.1 0.06667,0.18333 0.1,0.25c0.03333,0.1 0.06667,0.2 0.1,0.3c0,0.33333 0,0.68333 0,1.05c0,1 -0.01667,1.98333 -0.05,2.95c0,1.36667 0.05,2.7 0.15,4c0.13333,0.26667 0.23333,0.53333 0.3,0.8c0.06667,0.26667 0.1,0.55 0.1,0.85c-0.03333,0.9 -0.05,1.78333 -0.05,2.65c0,0.9 0,1.8 0,2.7c0,0.06667 0,0.15 0,0.25c0.03333,0.1 0.08333,0.2 0.15,0.3c0.03333,0.06667 0.06667,0.15 0.1,0.25c0.03333,0.06667 0.06667,0.15 0.1,0.25c0,0.26667 0,0.53333 0,0.8c0,0.1 0,0.2 0,0.3c0,0.23333 0,0.5 0,0.8c0,0.23333 0,0.5 0,0.8c0,0.06667 0,0.15 0,0.25c0.03333,0.1 0.06667,0.18333 0.1,0.25c0,0.1 0.01667,0.2 0.05,0.3c0.03333,0.06667 0.06667,0.15 0.1,0.25c0.03333,0.1 0.06667,0.18333 0.1,0.25c0,0.26667 0,0.55 0,0.85c0,0.06667 0,0.15 0,0.25c0,0.36667 0,0.71667 0,1.05c0,0.26667 0,0.53333 0,0.8c0,0.1 0,0.2 0,0.3c0.03333,0.06667 0.06667,0.15 0.1,0.25c0.03333,0.1 0.06667,0.18333 0.1,0.25c0,0.1 0.01667,0.2 0.05,0.3c0.03333,0.1 0.06667,0.18333 0.1,0.25c0,0.3 0,0.56667 0,0.8c0,0.1 0,0.2 0,0.3c0,0.23333 0,0.5 0,0.8c0,0.26667 0.03333,0.53333 0.1,0.8c0,0.06667 0.03333,0.11667 0.1,0.15c2.13333,0.7 4.43333,0.75 6.9,0.15c0.83333,-0.2 1.68333,-0.33333 2.55,-0.4c0.03333,-0.1 0.05,-0.18333 0.05,-0.25c0,-0.1 -0.01667,-0.2 -0.05,-0.3c-0.03333,-0.06667 -0.06667,-0.15 -0.1,-0.25c0,-0.26667 0,-0.53333 0,-0.8c0,-0.1 0,-0.2 0,-0.3c0,-0.43333 0,-0.86667 0,-1.3c0,-0.36667 0,-0.73333 0,-1.1c0,-0.06667 0,-0.15 0,-0.25c-0.03333,-0.3 -0.1,-0.58333 -0.2,-0.85c-0.03333,-0.06667 -0.06667,-0.13333 -0.1,-0.2c-0.06667,-0.53333 -0.1,-1.08333 -0.1,-1.65c0.03333,-0.7 0.05,-1.41667 0.05,-2.15c-0.03333,-0.06667 -0.06667,-0.15 -0.1,-0.25c-0.03333,-0.1 -0.06667,-0.18333 -0.1,-0.25c0,-0.1 -0.01667,-0.2 -0.05,-0.3c-0.03333,-0.06667 -0.06667,-0.15 -0.1,-0.25c0,-0.26667 0,-0.53333 0,-0.8c0,-0.1 0,-0.18333 0,-0.25c0,-0.36667 0,-0.73333 0,-1.1c0,-0.26667 0,-0.53333 0,-0.8c0,-0.1 0,-0.18333 0,-0.25c-0.03333,-0.1 -0.06667,-0.2 -0.1,-0.3c-0.03333,-0.06667 -0.06667,-0.15 -0.1,-0.25c-0.03333,-0.1 -0.05,-0.18333 -0.05,-0.25c-0.03333,-0.1 -0.06667,-0.2 -0.1,-0.3c0,-0.16667 0,-0.33333 0,-0.5c0,-0.1 0,-0.2 0,-0.3c0,-0.06667 0,-0.15 0,-0.25c0,-0.16667 0,-0.35 0,-0.55c0,-0.16667 0,-0.33333 0,-0.5c-0.03333,-0.1 -0.06667,-0.2 -0.1,-0.3c-0.03333,-0.1 -0.06667,-0.18333 -0.1,-0.25c-0.03333,-0.1 -0.06667,-0.2 -0.1,-0.3c-0.03333,-0.06667 -0.05,-0.15 -0.05,-0.25c0,-0.26667 0,-0.53333 0,-0.8c0,-0.1 0,-0.18333 0,-0.25c0,-0.36667 -0.03333,-0.73333 -0.1,-1.1c-0.03333,-0.33333 -0.03333,-0.68333 0,-1.05c0,-0.1 0,-0.2 0,-0.3c0.96667,-2.3 2.75,-3.08333 5.35,-2.35c3,0.83333 5.95,0.83333 8.85,0c1.1,-0.3 2.16667,-0.7 3.2,-1.2c0.1,-0.1 0.18333,-0.18333 0.25,-0.25c0.1,-0.1 0.2,-0.2 0.3,-0.3c0.73333,-0.4 1.38333,-0.93333 1.95,-1.6c0.96667,-1.2 1.6,-2.53333 1.9,-4c0.16667,-0.7 0.36667,-1.41667 0.6,-2.15c0,-0.26667 0.01667,-0.53333 0.05,-0.8c0,-0.1 0,-0.2 0,-0.3c0.03333,-0.26667 0.1,-0.53333 0.2,-0.8c0.03333,-0.06667 0.06667,-0.15 0.1,-0.25c0,-0.26667 0,-0.53333 0,-0.8c0,-0.1 0,-0.18333 0,-0.25c0,-0.3 0,-0.56667 0,-0.8c0,-0.2 0,-0.38333 0,-0.55c0.03333,-0.1 0.06667,-0.18333 0.1,-0.25c0.03333,-0.1 0.06667,-0.2 0.1,-0.3c0.03333,-0.06667 0.05,-0.15 0.05,-0.25c0.03333,-0.1 0.06667,-0.2 0.1,-0.3c0,-0.23333 0,-0.5 0,-0.8c0,-0.06667 0,-0.15 0,-0.25c0,-0.26667 0,-0.53333 0,-0.8c0,-0.26667 0,-0.53333 0,-0.8c0,-0.1 0,-0.18333 0,-0.25c-0.03333,-0.1 -0.06667,-0.2 -0.1,-0.3c0,-0.06667 -0.01667,-0.15 -0.05,-0.25c-0.03333,-0.1 -0.06667,-0.2 -0.1,-0.3c-0.03333,-0.06667 -0.06667,-0.15 -0.1,-0.25c0,-0.16667 0,-0.35 0,-0.55c0,-0.06667 0,-0.15 0,-0.25c0,-0.1 0,-0.18333 0,-0.25c0,-0.2 0,-0.38333 0,-0.55c0,-0.16667 0,-0.35 0,-0.55c-0.03333,-0.06667 -0.06667,-0.15 -0.1,-0.25c-0.03333,-0.1 -0.05,-0.18333 -0.05,-0.25c-0.03333,-0.1 -0.06667,-0.2 -0.1,-0.3c-0.03333,-0.06667 -0.06667,-0.15 -0.1,-0.25c0,-0.2 0,-0.38333 0,-0.55c0,-0.1 0,-0.18333 0,-0.25c0,-0.1 0,-0.2 0,-0.3c0,-0.16667 0,-0.33333 0,-0.5c-0.03333,-0.1 -0.06667,-0.2 -0.1,-0.3c-0.03333,-0.06667 -0.06667,-0.15 -0.1,-0.25c-0.03333,-0.1 -0.05,-0.18333 -0.05,-0.25c0,-0.1 0,-0.2 0,-0.3c0,-0.06667 0,-0.15 0,-0.25c0,-0.1 0,-0.18333 0,-0.25c-0.03333,-0.3 -0.11667,-0.58333 -0.25,-0.85c-0.06667,-0.06667 -0.11667,-0.15 -0.15,-0.25c-0.06667,-0.26667 -0.13333,-0.53333 -0.2,-0.8c-0.1,-0.3 -0.23333,-0.56667 -0.4,-0.8M637.30811,352.43784c1.53333,0.9 2.53333,2.21667 3,3.95c0.1,0.46667 0.23333,0.91667 0.4,1.35c0,0.16667 0,0.35 0,0.55c0,0.1 0,0.18333 0,0.25c0,0.26667 0,0.53333 0,0.8c0,0.1 0,0.2 0,0.3c0,0.16667 0,0.33333 0,0.5c-0.4,2.43333 -1.6,4.31667 -3.6,5.65c-1.73333,1.13333 -3.61667,1.85 -5.65,2.15c-2.4,0.4 -4.7,0.21667 -6.9,-0.55c-0.1,-0.1 -0.2,-0.18333 -0.3,-0.25c-0.1,-0.1 -0.18333,-0.2 -0.25,-0.3c-0.06667,-0.06667 -0.13333,-0.15 -0.2,-0.25c-0.06667,-0.1 -0.11667,-0.18333 -0.15,-0.25c-0.03333,-0.2 -0.06667,-0.38333 -0.1,-0.55c-0.03333,-0.1 -0.05,-0.2 -0.05,-0.3c-0.03333,-0.16667 -0.05,-0.33333 -0.05,-0.5c0,-0.1 0.01667,-0.2 0.05,-0.3c0,-0.06667 0.01667,-0.15 0.05,-0.25c-0.16667,-0.5 -0.26667,-1.03333 -0.3,-1.6c-0.03333,-0.46667 -0.03333,-0.91667 0,-1.35c0.1,-0.9 0.2,-1.78333 0.3,-2.65c0.03333,-0.53333 0.06667,-1.08333 0.1,-1.65c-0.03333,-0.06667 -0.06667,-0.15 -0.1,-0.25c-0.03333,-0.1 -0.06667,-0.18333 -0.1,-0.25c0,-0.1 0,-0.2 0,-0.3c0,-0.06667 0,-0.15 0,-0.25c0,-0.1 0.01667,-0.18333 0.05,-0.25c0,-0.1 0.01667,-0.2 0.05,-0.3c0,-0.06667 -0.01667,-0.15 -0.05,-0.25c0,-0.1 -0.01667,-0.18333 -0.05,-0.25c-0.03333,-0.1 -0.06667,-0.2 -0.1,-0.3c-0.03333,-0.06667 -0.05,-0.15 -0.05,-0.25c-0.03333,-0.1 -0.06667,-0.18333 -0.1,-0.25c0,-0.1 0,-0.2 0,-0.3c0,-0.1 0,-0.18333 0,-0.25c0,-0.1 0,-0.2 0,-0.3c0,-0.06667 0,-0.15 0,-0.25c0.16667,-0.63333 0.5,-1.18333 1,-1.65c0.63333,-0.56667 1.36667,-0.9 2.2,-1c0.83333,-0.13333 1.6,-0.2 2.3,-0.2c3.1,-0.16667 5.96667,0.53333 8.6,2.1M627.90811,356.48784c0.16667,0.96667 0.26667,1.95 0.3,2.95c0.03333,0.73333 0.08333,1.45 0.15,2.15c1.63333,0.1 3.36667,-0.11667 5.2,-0.65c0.1,-0.06667 0.21667,-0.15 0.35,-0.25c0.16667,-0.23333 0.26667,-0.5 0.3,-0.8c0.03333,-0.3 0.11667,-0.56667 0.25,-0.8c-0.03333,-0.26667 -0.08333,-0.53333 -0.15,-0.8c-0.06667,-0.2 -0.13333,-0.38333 -0.2,-0.55c-1.86667,-1.1 -3.93333,-1.51667 -6.2,-1.25z" fill="#000000"/><path d="M645.55811,349.43784c0.06667,0.26667 0.13333,0.53333 0.2,0.8c0.03333,0.1 0.08333,0.18333 0.15,0.25c0.13333,0.26667 0.21667,0.55 0.25,0.85c0,0.06667 0,0.15 0,0.25c0,0.1 0,0.18333 0,0.25c0,0.1 0,0.2 0,0.3c0,0.06667 0.01667,0.15 0.05,0.25c0.03333,0.1 0.06667,0.18333 0.1,0.25c0.03333,0.1 0.06667,0.2 0.1,0.3c0,0.16667 0,0.33333 0,0.5c0,0.1 0,0.2 0,0.3c0,0.06667 0,0.15 0,0.25c0,0.16667 0,0.35 0,0.55c0.03333,0.1 0.06667,0.18333 0.1,0.25c0.03333,0.1 0.06667,0.2 0.1,0.3c0,0.06667 0.01667,0.15 0.05,0.25c0.03333,0.1 0.06667,0.18333 0.1,0.25c0,0.2 0,0.38333 0,0.55c0,0.16667 0,0.35 0,0.55c0,0.06667 0,0.15 0,0.25c0,0.1 0,0.18333 0,0.25c0,0.2 0,0.38333 0,0.55c0.03333,0.1 0.06667,0.18333 0.1,0.25c0.03333,0.1 0.06667,0.2 0.1,0.3c0.03333,0.1 0.05,0.18333 0.05,0.25c0.03333,0.1 0.06667,0.2 0.1,0.3c0,0.06667 0,0.15 0,0.25c0,0.26667 0,0.53333 0,0.8c0,0.26667 0,0.53333 0,0.8c0,0.1 0,0.18333 0,0.25c0,0.3 0,0.56667 0,0.8c-0.03333,0.1 -0.06667,0.2 -0.1,0.3c0,0.1 -0.01667,0.18333 -0.05,0.25c-0.03333,0.1 -0.06667,0.2 -0.1,0.3c-0.03333,0.06667 -0.06667,0.15 -0.1,0.25c0,0.16667 0,0.35 0,0.55c0,0.23333 0,0.5 0,0.8c0,0.06667 0,0.15 0,0.25c0,0.26667 0,0.53333 0,0.8c-0.03333,0.1 -0.06667,0.18333 -0.1,0.25c-0.1,0.26667 -0.16667,0.53333 -0.2,0.8c0,0.1 0,0.2 0,0.3c-0.03333,0.26667 -0.05,0.53333 -0.05,0.8c-0.23333,0.73333 -0.43333,1.45 -0.6,2.15c-0.3,1.46667 -0.93333,2.8 -1.9,4c-0.56667,0.66667 -1.21667,1.2 -1.95,1.6c-0.1,0.1 -0.2,0.2 -0.3,0.3c-0.06667,0.06667 -0.15,0.15 -0.25,0.25c-1.03333,0.5 -2.1,0.9 -3.2,1.2c-2.9,0.83333 -5.85,0.83333 -8.85,0c-2.6,-0.73333 -4.38333,0.05 -5.35,2.35c0,0.1 0,0.2 0,0.3c-0.03333,0.36667 -0.03333,0.71667 0,1.05c0.06667,0.36667 0.1,0.73333 0.1,1.1c0,0.06667 0,0.15 0,0.25c0,0.26667 0,0.53333 0,0.8c0,0.1 0.01667,0.18333 0.05,0.25c0.03333,0.1 0.06667,0.2 0.1,0.3c0.03333,0.06667 0.06667,0.15 0.1,0.25c0.03333,0.1 0.06667,0.2 0.1,0.3c0,0.16667 0,0.33333 0,0.5c0,0.2 0,0.38333 0,0.55c0,0.1 0,0.18333 0,0.25c0,0.1 0,0.2 0,0.3c0,0.16667 0,0.33333 0,0.5c0.03333,0.1 0.06667,0.2 0.1,0.3c0,0.06667 0.01667,0.15 0.05,0.25c0.03333,0.1 0.06667,0.18333 0.1,0.25c0.03333,0.1 0.06667,0.2 0.1,0.3c0,0.06667 0,0.15 0,0.25c0,0.26667 0,0.53333 0,0.8c0,0.36667 0,0.73333 0,1.1c0,0.06667 0,0.15 0,0.25c0,0.26667 0,0.53333 0,0.8c0.03333,0.1 0.06667,0.18333 0.1,0.25c0.03333,0.1 0.05,0.2 0.05,0.3c0.03333,0.06667 0.06667,0.15 0.1,0.25c0.03333,0.1 0.06667,0.18333 0.1,0.25c0,0.73333 -0.01667,1.45 -0.05,2.15c0,0.56667 0.03333,1.11667 0.1,1.65c0.03333,0.06667 0.06667,0.13333 0.1,0.2c0.1,0.26667 0.16667,0.55 0.2,0.85c0,0.1 0,0.18333 0,0.25c0,0.36667 0,0.73333 0,1.1c0,0.43333 0,0.86667 0,1.3c0,0.1 0,0.2 0,0.3c0,0.26667 0,0.53333 0,0.8c0.03333,0.1 0.06667,0.18333 0.1,0.25c0.03333,0.1 0.05,0.2 0.05,0.3c0,0.06667 -0.01667,0.15 -0.05,0.25c-0.86667,0.06667 -1.71667,0.2 -2.55,0.4c-2.46667,0.6 -4.76667,0.55 -6.9,-0.15c-0.06667,-0.03333 -0.1,-0.08333 -0.1,-0.15c-0.06667,-0.26667 -0.1,-0.53333 -0.1,-0.8c0,-0.3 0,-0.56667 0,-0.8c0,-0.1 0,-0.2 0,-0.3c0,-0.23333 0,-0.5 0,-0.8c-0.03333,-0.06667 -0.06667,-0.15 -0.1,-0.25c-0.03333,-0.1 -0.05,-0.2 -0.05,-0.3c-0.03333,-0.06667 -0.06667,-0.15 -0.1,-0.25c-0.03333,-0.1 -0.06667,-0.18333 -0.1,-0.25c0,-0.1 0,-0.2 0,-0.3c0,-0.26667 0,-0.53333 0,-0.8c0,-0.33333 0,-0.68333 0,-1.05c0,-0.1 0,-0.18333 0,-0.25c0,-0.3 0,-0.58333 0,-0.85c-0.03333,-0.06667 -0.06667,-0.15 -0.1,-0.25c-0.03333,-0.1 -0.06667,-0.18333 -0.1,-0.25c-0.03333,-0.1 -0.05,-0.2 -0.05,-0.3c-0.03333,-0.06667 -0.06667,-0.15 -0.1,-0.25c0,-0.1 0,-0.18333 0,-0.25c0,-0.3 0,-0.56667 0,-0.8c0,-0.3 0,-0.56667 0,-0.8c0,-0.1 0,-0.2 0,-0.3c0,-0.26667 0,-0.53333 0,-0.8c-0.03333,-0.1 -0.06667,-0.18333 -0.1,-0.25c-0.03333,-0.1 -0.06667,-0.18333 -0.1,-0.25c-0.06667,-0.1 -0.11667,-0.2 -0.15,-0.3c0,-0.1 0,-0.18333 0,-0.25c0,-0.9 0,-1.8 0,-2.7c0,-0.86667 0.01667,-1.75 0.05,-2.65c0,-0.3 -0.03333,-0.58333 -0.1,-0.85c-0.06667,-0.26667 -0.16667,-0.53333 -0.3,-0.8c-0.1,-1.3 -0.15,-2.63333 -0.15,-4c0.03333,-0.96667 0.05,-1.95 0.05,-2.95c0,-0.36667 0,-0.71667 0,-1.05c-0.03333,-0.1 -0.06667,-0.2 -0.1,-0.3c-0.03333,-0.06667 -0.06667,-0.15 -0.1,-0.25c-0.06667,-0.1 -0.11667,-0.2 -0.15,-0.3c0,-0.06667 0,-0.15 0,-0.25c0,-0.86667 -0.01667,-1.75 -0.05,-2.65c-0.06667,-2.96667 -0.11667,-5.91667 -0.15,-8.85c0,-1.2 0,-2.36667 0,-3.5c0.03333,-0.06667 0.06667,-0.15 0.1,-0.25c0.03333,-0.1 0.06667,-0.18333 0.1,-0.25c0,-0.1 0.01667,-0.2 0.05,-0.3c0,-0.06667 0,-0.15 0,-0.25c0,-0.1 0,-0.18333 0,-0.25c-0.03333,-0.1 -0.05,-0.2 -0.05,-0.3c-0.03333,-0.06667 -0.06667,-0.15 -0.1,-0.25c-0.06667,-0.2 -0.13333,-0.38333 -0.2,-0.55c0,-0.1 0,-0.18333 0,-0.25c0,-0.3 0,-0.56667 0,-0.8c0,-0.1 0,-0.2 0,-0.3c-0.03333,-0.26667 -0.06667,-0.53333 -0.1,-0.8c0.06667,-0.06667 0.13333,-0.15 0.2,-0.25c0.03333,-0.1 0.06667,-0.18333 0.1,-0.25c0.03333,-0.1 0.06667,-0.2 0.1,-0.3c0,-0.9 -0.01667,-1.78333 -0.05,-2.65c0,-0.9 -0.03333,-1.8 -0.1,-2.7c-0.03333,-0.26667 -0.05,-0.53333 -0.05,-0.8c0.03333,-0.26667 0,-0.53333 -0.1,-0.8c0.13333,-0.1 0.25,-0.18333 0.35,-0.25c1.1,-0.26667 2.2,-0.4 3.3,-0.4c1.6,-0.06667 3.15,-0.3 4.65,-0.7c4.13333,0.03333 8.26667,0.1 12.4,0.2c4.2,0.1 7.75,1.58333 10.65,4.45c0.16667,0.23333 0.3,0.5 0.4,0.8M626.40811,350.53784c-0.83333,0.1 -1.56667,0.43333 -2.2,1c-0.5,0.46667 -0.83333,1.01667 -1,1.65c0,0.1 0,0.18333 0,0.25c0,0.1 0,0.2 0,0.3c0,0.06667 0,0.15 0,0.25c0,0.1 0,0.2 0,0.3c0.03333,0.06667 0.06667,0.15 0.1,0.25c0,0.1 0.01667,0.18333 0.05,0.25c0.03333,0.1 0.06667,0.2 0.1,0.3c0.03333,0.06667 0.05,0.15 0.05,0.25c0.03333,0.1 0.05,0.18333 0.05,0.25c-0.03333,0.1 -0.05,0.2 -0.05,0.3c-0.03333,0.06667 -0.05,0.15 -0.05,0.25c0,0.1 0,0.18333 0,0.25c0,0.1 0,0.2 0,0.3c0.03333,0.06667 0.06667,0.15 0.1,0.25c0.03333,0.1 0.06667,0.18333 0.1,0.25c-0.03333,0.56667 -0.06667,1.11667 -0.1,1.65c-0.1,0.86667 -0.2,1.75 -0.3,2.65c-0.03333,0.43333 -0.03333,0.88333 0,1.35c0.03333,0.56667 0.13333,1.1 0.3,1.6c-0.03333,0.1 -0.05,0.18333 -0.05,0.25c-0.03333,0.1 -0.05,0.2 -0.05,0.3c0,0.16667 0.01667,0.33333 0.05,0.5c0,0.1 0.01667,0.2 0.05,0.3c0.03333,0.16667 0.06667,0.35 0.1,0.55c0.03333,0.06667 0.08333,0.15 0.15,0.25c0.06667,0.1 0.13333,0.18333 0.2,0.25c0.06667,0.1 0.15,0.2 0.25,0.3c0.1,0.06667 0.2,0.15 0.3,0.25c2.2,0.76667 4.5,0.95 6.9,0.55c2.03333,-0.3 3.91667,-1.01667 5.65,-2.15c2,-1.33333 3.2,-3.21667 3.6,-5.65c0,-0.16667 0,-0.33333 0,-0.5c0,-0.1 0,-0.2 0,-0.3c0,-0.26667 0,-0.53333 0,-0.8c0,-0.06667 0,-0.15 0,-0.25c0,-0.2 0,-0.38333 0,-0.55c-0.16667,-0.43333 -0.3,-0.88333 -0.4,-1.35c-0.46667,-1.73333 -1.46667,-3.05 -3,-3.95c-2.63333,-1.56667 -5.5,-2.26667 -8.6,-2.1c-0.7,0 -1.46667,0.06667 -2.3,0.2z" fill="#ffffff"/></g></g></svg>