<svg version="1.1" xmlns="http://www.w3.org/2000/svg" xmlns:xlink="http://www.w3.org/1999/xlink" width="402.54739" height="565.14797" viewBox="0,0,402.54739,565.14797"><g transform="translate(-443.92121,-155.8)"><g data-paper-data="{&quot;isPaintingLayer&quot;:true}" fill-rule="nonzero" stroke="none" stroke-width="1" stroke-linecap="butt" stroke-linejoin="miter" stroke-miterlimit="10" stroke-dasharray="" stroke-dashoffset="0" style="mix-blend-mode: normal"><path d="M557.66833,448.49181c-1.11439,-6.4388 -0.89623,-12.12078 0.65448,-17.04595c1.04606,-3.22924 1.98299,-6.48796 2.81076,-9.77615c2.78675,-10.63766 6.17804,-20.86777 10.17389,-30.69035c-0.01471,-0.06505 -0.04577,-0.12687 -0.09318,-0.18548c-4.02111,-4.338 -7.35779,-9.72792 -10.01004,-16.16974c0.9323,-2.22172 2.08492,-4.29996 3.45785,-6.23474c5.99873,-8.5183 13.61981,-15.98015 22.86324,-22.38553c2.649,-0.52141 4.96642,-0.62087 6.95226,-0.29838c11.59866,1.89532 22.22302,5.22233 31.87307,9.98103c-0.13833,1.35206 -0.17081,2.87013 -0.09743,4.55419c0.55934,12.59474 0.96415,25.18592 1.21445,37.77354c-1.7987,0.35404 -3.54796,0.85122 -5.24777,1.49153c-3.92616,1.52014 -8.14337,2.96169 -12.65163,4.32465c-3.26132,7.02832 -6.05095,14.40541 -8.36888,22.13127c-3.09657,10.32497 -5.50481,21.12591 -7.2247,32.40283c-0.09811,0.01931 -0.15984,0.04845 -0.18519,0.08741c-3.66815,4.32285 -10.0165,6.91424 -19.04505,7.77417c-0.01471,-0.06505 -0.04209,-0.11061 -0.08215,-0.1367c-5.9231,-1.7216 -10.94794,-4.758 -15.07452,-9.10921c-0.72979,-2.47205 -1.36961,-5.30152 -1.91945,-8.48839z" fill-opacity="0.99608" fill="#000000"/><path d="M601.72696,473.46601c-2.92684,14.51054 -8.00378,25.69492 -15.23081,33.55313c-5.40998,5.86697 -11.68942,10.43582 -18.83831,13.70656c-6.99824,3.24988 -15.64343,3.87635 -25.93556,1.87941c-5.95973,-1.16015 -10.99035,-3.36929 -15.09186,-6.62745c-8.15222,-6.43671 -13.70633,-15.50336 -16.6623,-27.19996c-1.45456,-5.79018 -2.41665,-12.15746 -2.88626,-19.10183c-0.44027,-6.94121 -0.11107,-14.68916 0.98761,-23.24383c1.28123,-6.9413 3.07285,-13.66089 5.37488,-20.15879c2.13734,-6.07085 4.80127,-11.38083 7.99177,-15.92994c6.44363,-9.12855 15.16916,-14.63877 26.17658,-16.53068c4.1713,-0.70015 8.8094,-0.49761 13.9143,0.60762c8.7839,1.94585 16.02491,5.5418 21.72303,10.78786c7.561,6.96611 13.16021,15.88937 16.79764,26.76976c1.8636,5.57475 2.99802,11.71965 3.40326,18.43471c0.46521,7.53691 -0.10945,15.22138 -1.72398,23.05341z" fill-opacity="0.99608" fill="#000000"/><path d="M677.97997,616.2c0.46678,3.13333 1.08164,6.28333 1.84457,9.45c0.98509,4.13333 0.7867,8 -0.59515,11.6c-2.12393,5.6 -3.13433,11.93333 -3.0312,19c-0.00087,0.1 0.01502,0.16667 0.04767,0.2c0.62119,0.53333 1.34206,0.96667 2.16262,1.3c5.01214,6.93333 10.62226,13.28333 16.83036,19.05c3.85568,3.56667 7.94397,6.9 12.26486,10c3.20795,2.3 6.39943,4.6 9.57443,6.9c8.57532,6.26667 17.8658,11.73333 27.87142,16.4c1.34497,0.63333 2.74108,1.06667 4.18835,1.3c5.03148,0.93333 10.20183,1.05 15.51105,0.35c13.28908,-1.7 26.23202,-3.36667 38.82881,-5c-0.00087,0.1 -0.0016,0.18333 -0.00218,0.25c-10.28371,4.56667 -21.04023,8.58333 -32.26957,12.05c-5.77965,1.76667 -12.58613,2.3 -20.41943,1.6c-1.9087,-0.2 -3.73345,-0.58333 -5.47426,-1.15c-11.13483,-3.6 -21.00696,-8.46667 -29.61638,-14.6c-8.64236,-6.13333 -16.76967,-12.78333 -24.38194,-19.95c-5.55455,-5.16667 -11.09264,-10.33333 -16.61425,-15.5c-1.8624,-1.73333 -3.85801,-3.3 -5.98682,-4.7c-0.78194,-4.76667 -0.60676,-9.75 0.52552,-14.95c2.88011,-13 3.16039,-26.26667 0.84085,-39.8c-1.0968,-6.43333 -2.06068,-13 -2.89165,-19.7c-1.50421,-12.6 -3.05783,-25.2 -4.66086,-37.8c1.78943,-1.23333 3.61108,-2.38333 5.46493,-3.45c0.06617,-0.03333 0.14866,-0.05 0.24748,-0.05c1.36711,9.43333 2.73364,18.93333 4.09959,28.5c1.79834,12.86667 3.67873,25.76667 5.64118,38.7z" fill-opacity="0.99608" fill="#2b2c40"/><path d="M726.75007,468.25c0.12653,0.6 0.23658,1.2 0.33017,1.8c1.60639,8.43333 3.14647,16.91667 4.62024,25.45c0.06588,0 0.13161,0.01667 0.1972,0.05c0.48972,0.5 0.99606,0.98333 1.51901,1.45c0.06588,0 0.14822,0 0.24704,0c5.98757,0.83333 11.65932,2 17.01525,3.5c0.34403,2.1 0.47483,4.1 0.3924,6c-0.35192,6.36667 0.40556,12.05 2.27244,17.05c3.99029,10.8 11.45302,18.11667 22.38819,21.95c0.53585,2.76667 1.17139,5.43333 1.90662,8c3.326,11.43333 6.61805,22.98333 9.87614,34.65c3.19425,11.43333 6.45423,22.88333 9.77994,34.35c-0.00087,0.1 0.01516,0.15 0.0481,0.15c1.66912,1.23333 3.20533,2.6 4.60863,4.1c-0.00087,0.1 -0.0016,0.18333 -0.00218,0.25c-2.78962,-1.16667 -5.51278,-2.4 -8.16948,-3.7c-0.06559,-0.03333 -0.13132,-0.05 -0.1972,-0.05c-3.77325,-5.46667 -6.43275,-12.11667 -7.97849,-19.95c-1.23175,-6.06667 -2.57922,-12.08333 -4.04241,-18.05c-2.92725,-11.83333 -6.12019,-23.41667 -9.57882,-34.75c-9.40663,-5.36667 -16.77011,-12.73333 -22.09044,-22.1c-3.30892,-5.83333 -4.8736,-13.38333 -4.69404,-22.65c-5.74597,-2.1 -11.82451,-3.83333 -18.23564,-5.2c-0.09853,-0.03333 -0.18073,-0.05 -0.2466,-0.05c-1.66675,-9.06667 -2.95166,-18.48333 -3.85472,-28.25h0.14822c0.57547,2 1.48338,3.65 2.72372,4.95c0.03265,0.03333 0.09838,0.05 0.1972,0.05c0.87877,-2.56667 1.10254,-5.56667 0.67131,-9z" fill-opacity="0.99216" fill="#2b2c3f"/><path d="M492.63837,640.3c-1.98764,1.3 -3.95882,2.6 -5.91353,3.9c-2.31935,1.56667 -3.90485,3.96667 -4.75649,7.2c-0.92071,3.6 -1.5967,7.46667 -2.02798,11.6c-0.57407,5.4 0.44279,9.66667 3.05059,12.8c1.69509,2.03333 3.48987,3.96667 5.38434,5.8c7.51257,7.26667 16.4215,13.05 26.72676,17.35c3.34754,1.4 6.41308,3.03333 9.1966,4.9c0.91676,0.63333 1.75045,1.35 2.50107,2.15c-0.16469,0 -0.32924,-0.01667 -0.49364,-0.05c-12.89626,-1.8 -23.73203,-5.7 -32.50731,-11.7c-1.11323,-0.76667 -2.24337,-1.48333 -3.39042,-2.15c-8.19313,-4.76667 -14.65878,-11.21667 -19.39696,-19.35c0.00058,-0.06667 0.00131,-0.15 0.00218,-0.25c0.60851,-13.13333 3.25782,-24.21667 7.94793,-33.25c1.09046,-0.4 2.06665,-0.91667 2.92857,-1.55c8.32452,-6.53333 16.97553,-12.73333 25.95301,-18.6c2.8487,-1.83333 4.81516,-4.48333 5.89941,-7.95c3.62434,-11.46667 6.95441,-23.18333 9.99021,-35.15c1.50158,-6 2.87227,-12.1 4.11208,-18.3c0.62136,-3.26667 1.35684,-6.4 2.20644,-9.4c0.91722,-3.2 1.30583,-6.21667 1.16583,-9.05c0.77385,-1.86667 2.10214,-3.1 3.98487,-3.7c5.74759,-1.86667 10.1891,-5.05 13.32454,-9.55c6.17032,-8.8 9.43481,-20.55 9.79345,-35.25l0.00087,-0.1c8.37193,-0.63333 16.61284,-1.35 24.72271,-2.15h0.09882c1.95115,-12.23333 3.67333,-24.65 5.16653,-37.25c0.06588,0 0.09867,0.01667 0.09838,0.05c0.62537,3.83333 2.21483,6.65 4.76836,8.45c-2.13455,10.6 -4.00835,21.51667 -5.6214,32.75h-0.09882c-3.53489,1.2 -7.49348,1.88333 -11.87577,2.05c-4.84372,0.2 -8.96599,0.76667 -12.3668,1.7c-1.11009,6.43333 -2.31812,12.76667 -3.6241,19c-1.95853,9.3 -6.23509,16.23333 -12.82966,20.8c-2.94955,2.06667 -6.24204,3.8 -9.87749,5.2c-3.32964,11.66667 -6.28411,23.75 -8.86341,36.25c-1.27246,6.16667 -2.64315,12.26667 -4.11208,18.3c-1.84345,7.43333 -3.58852,14.91667 -5.23521,22.45c-0.27425,1.23333 -0.28442,2.4 -0.03049,3.5c-8.32481,6.56667 -16.99214,12.75 -26.00198,18.55z" fill-opacity="0.99608" fill="#2b2c3f"/><path d="M486.72484,644.2c1.95471,-1.3 3.92588,-2.6 5.91353,-3.9c9.00984,-5.8 17.67717,-11.98333 26.00198,-18.55c-0.25393,-1.1 -0.24376,-2.26667 0.03049,-3.5c1.64669,-7.53333 3.39176,-15.01667 5.23521,-22.45c1.46893,-6.03333 2.83962,-12.13333 4.11208,-18.3c2.57931,-12.5 5.53378,-24.58333 8.86341,-36.25c3.63545,-1.4 6.92794,-3.13333 9.87749,-5.2c6.59458,-4.56667 10.87113,-11.5 12.82966,-20.8c1.30598,-6.23333 2.51401,-12.56667 3.6241,-19c3.40081,-0.93333 7.52308,-1.5 12.3668,-1.7c4.38229,-0.16667 8.34088,-0.85 11.87577,-2.05h0.09882c1.61305,-11.23333 3.48685,-22.15 5.6214,-32.75c-2.55353,-1.8 -4.14298,-4.61667 -4.76836,-8.45c0.00029,-0.03333 -0.0325,-0.05 -0.09838,-0.05c1.76003,-9.2 3.32489,-18.68333 4.69459,-28.45c1.757,-12.63333 3.64823,-25.55 5.67368,-38.75c2.02284,-12.9 4.68246,-25.16667 7.97886,-36.8c1.66569,-5.93333 3.33065,-11.78333 4.99489,-17.55c1.69863,-5.93333 4.47421,-10.71667 8.32675,-14.35c3.85254,-3.63333 8.40759,-6.61667 13.66517,-8.95c5.05936,-2.26667 10.88639,-3.8 17.48109,-4.6c3.52821,-0.43333 7.05177,-0.33333 10.57069,0.3c9.24182,1.6 17.95081,3.86667 26.12697,6.8c10.80283,3.9 19.24626,10.18333 25.33027,18.85c-0.00087,0.1 0.01502,0.16667 0.04767,0.2c0.58651,0.73333 0.9838,0.5 1.19189,-0.7c0.03817,-0.6 0.1705,-0.66667 0.39701,-0.2c1.81552,3.33333 2.88281,7.48333 3.20186,12.45c0.28524,5.06667 0.41994,10.4 0.40408,16c-0.09253,14.4 0.37912,28.31667 1.41493,41.75c0.79989,10.26667 1.63359,20.43333 2.50111,30.5c1.13492,13.4 2.62135,26.15 4.45931,38.25c-0.00581,0.66667 -0.01162,1.33333 -0.01743,2c-0.00087,0.1 -0.0016,0.18333 -0.00218,0.25h-0.14822c0.43123,3.43333 0.20746,6.43333 -0.67131,9c-0.09882,0 -0.16455,-0.01667 -0.1972,-0.05c-1.24034,-1.3 -2.14825,-2.95 -2.72372,-4.95h-0.14822c0.90306,9.76667 2.18797,19.18333 3.85472,28.25c0.06588,0 0.14808,0.01667 0.2466,0.05c6.41113,1.36667 12.48967,3.1 18.23564,5.2c-0.17955,9.26667 1.38513,16.81667 4.69404,22.65c5.32033,9.36667 12.68381,16.73333 22.09044,22.1c3.45863,11.33333 6.65157,22.91667 9.57882,34.75c1.46319,5.96667 2.81066,11.98333 4.04241,18.05c1.54574,7.83333 4.20524,14.48333 7.97849,19.95c0.06588,0 0.13161,0.01667 0.1972,0.05c2.6567,1.3 5.37986,2.53333 8.16948,3.7c2.3498,2.5 4.7493,4.96667 7.1985,7.4c2.44949,2.4 4.94882,4.75 7.49799,7.05c7.81164,6.96667 13.49661,16.06667 17.05493,27.3c-1.47142,10.1 -4.33039,18.78333 -8.57691,26.05c-0.03352,0.06667 -0.05057,0.13333 -0.05115,0.2c-6.85547,4.26667 -13.98846,8.25 -21.39895,11.95c-0.06617,0.03333 -0.13219,0.05 -0.19807,0.05c0.00058,-0.06667 0.00131,-0.15 0.00218,-0.25c-12.59679,1.63333 -25.53973,3.3 -38.82881,5c-5.30922,0.7 -10.47957,0.58333 -15.51105,-0.35c-1.44727,-0.23333 -2.84338,-0.66667 -4.18835,-1.3c-10.00563,-4.66667 -19.2961,-10.13333 -27.87142,-16.4c-3.17501,-2.3 -6.36649,-4.6 -9.57443,-6.9c-4.32089,-3.1 -8.40918,-6.43333 -12.26486,-10c-6.2081,-5.76667 -11.81822,-12.11667 -16.83036,-19.05c-0.82056,-0.33333 -1.54144,-0.76667 -2.16262,-1.3c-0.03265,-0.03333 -0.04854,-0.1 -0.04767,-0.2c-0.10312,-7.06667 0.90728,-13.4 3.0312,-19c1.38185,-3.6 1.58023,-7.46667 0.59515,-11.6c-0.76294,-3.16667 -1.3778,-6.31667 -1.84457,-9.45c-1.96245,-12.93333 -3.84284,-25.83333 -5.64118,-38.7c-1.36595,-9.56667 -2.73248,-19.06667 -4.09959,-28.5c0.00058,-0.06667 0.01749,-0.11667 0.05071,-0.15c2.58083,-1.33333 4.39443,-3.45 5.44079,-6.35c0.00058,-0.06667 0.00131,-0.15 0.00218,-0.25c0.0865,-2.36667 0.18917,-4.7 0.30803,-7c-0.97219,-1.83333 -2.0939,-3.51667 -3.36515,-5.05c-0.03265,-0.03333 -0.04854,-0.1 -0.04767,-0.2c-6.06751,-3 -13.3814,-4.71667 -21.94167,-5.15c-4.5435,-0.23333 -9.48328,-0.35 -14.81934,-0.35c-1.64693,0 -3.21297,0.16667 -4.69811,0.5c-3.22293,3.2 -5.07449,7.78333 -5.55468,13.75c-0.00087,0.1 -0.0016,0.18333 -0.00218,0.25c2.96489,3.73333 6.72757,6.63333 11.28803,8.7c0.06559,0.03333 0.14779,0.05 0.2466,0.05c-1.07151,9.56667 -2.19548,19.48333 -3.37191,29.75c-1.49988,13.36667 -2.88492,26.78333 -4.1551,40.25c-0.25148,2.4 -0.33841,4.81667 -0.2608,7.25c0.04787,2.06667 0.311,4 0.7894,5.8c2.16925,8.1 4.3388,16.16667 6.50863,24.2c0.66964,2.53333 0.74377,5.36667 0.22239,8.5c-4.99482,6.2 -11.41026,11 -19.24634,14.4c-5.09172,2.2 -10.31519,4.4 -15.67042,6.6c-10.51137,4.23333 -21.34981,8.2 -32.5153,11.9c-10.86789,3.56667 -21.94813,6.93333 -33.24074,10.1c-2.13869,-0.26667 -4.52529,-0.43333 -7.1598,-0.5c-0.09882,0 -0.18116,0 -0.24704,0c-0.75062,-0.8 -1.58431,-1.51667 -2.50107,-2.15c-2.78352,-1.86667 -5.84905,-3.5 -9.1966,-4.9c-10.30527,-4.3 -19.21419,-10.08333 -26.72676,-17.35c-1.89447,-1.83333 -3.68925,-3.76667 -5.38434,-5.8c-2.60779,-3.13333 -3.62465,-7.4 -3.05059,-12.8c0.43128,-4.13333 1.10727,-8 2.02798,-11.6c0.85164,-3.23333 2.43713,-5.63333 4.75649,-7.2M636.21699,311.5c-7.70229,3.16667 -13.2004,8.53333 -16.49431,16.1c-1.74708,3.93333 -3.26577,8.11667 -4.55606,12.55c-3.39377,11.46667 -6.37944,23.35 -8.957,35.65c-2.57931,12.5 -4.81552,25.31667 -6.70863,38.45c-1.89515,13.36667 -3.57445,26.53333 -5.03791,39.5c0.68561,0.7 1.42092,1.36667 2.20593,2c8.04424,6.73333 18.01504,11.61667 29.9124,14.65c11.56855,2.96667 24.84666,4.41667 39.83432,4.35c3.82117,-0.03333 7.44602,-0.21667 10.87454,-0.55c13.35206,-1.36667 25.46392,-4.05 36.33558,-8.05c1.35484,-0.5 2.72542,-0.91667 4.11175,-1.25c2.04626,-0.46667 3.09588,-1.85 3.14886,-4.15c-1.66455,-13.1 -3.27969,-26.2 -4.84542,-39.3c-0.83068,-6.73333 -1.32906,-13.8 -1.49516,-21.2c-0.40272,-14.26667 -0.87145,-28.51667 -1.40622,-42.75c-0.2092,-6.23333 -0.40178,-12.48333 -0.57775,-18.75c-2.77115,-7.06667 -7.02114,-12.63333 -12.74997,-16.7c-0.06559,-0.03333 -0.13132,-0.05 -0.1972,-0.05c-3.95402,11.5 -5.36981,24.66667 -4.24738,39.5c0.53307,6.86667 1.19818,13.7 1.99534,20.5c0.27438,2.53333 0.41946,4.78333 0.43527,6.75c-3.29781,4.23333 -7.93391,7.06667 -13.90829,8.5c-9.70458,2.36667 -20.56323,2.98333 -32.57596,1.85c-3.3239,-0.33333 -6.53004,-0.95 -9.61843,-1.85c-2.82546,-0.83333 -5.55066,-1.83333 -8.17558,-3c-0.62467,-0.13333 -1.18289,-0.33333 -1.67464,-0.6c-0.03294,0 -0.04897,-0.05 -0.0481,-0.15c-0.09882,0 -0.18102,-0.01667 -0.2466,-0.05c-3.83669,-1.96667 -7.6897,-3.95 -11.55903,-5.95c-0.81691,-4.53333 -1.08771,-9.36667 -0.81242,-14.5c0.22958,-3.66667 0.60578,-7.15 1.12862,-10.45c0.97746,-6.33333 2.00448,-12.68333 3.08105,-19.05c1.07831,-6.56667 2.80915,-12.41667 5.19252,-17.55c2.48364,-5.3 5.02894,-10.11667 7.63591,-14.45M737.82834,535.05c0.03555,-0.3 0.10448,-0.65 0.20678,-1.05c-7.93083,2.93333 -15.63298,6.08333 -23.10644,9.45c-0.06617,0.03333 -0.13219,0.05 -0.19807,0.05c4.73184,1.3 9.99549,2.05 15.79094,2.25c0.06588,0 0.14822,0 0.24704,0c4.16421,-1.6 6.51746,-5.16667 7.05975,-10.7M783.05077,635.5c0.03352,-0.06667 0.05071,-0.15 0.05159,-0.25c-9.76133,5.1 -19.42472,10.3 -28.99017,15.6c-2.71404,1.5 -5.46072,2.96667 -8.24006,4.4c8.84266,-1.73333 17.91734,-3.63333 27.22404,-5.7c0.06617,-0.03333 0.14866,-0.05 0.24748,-0.05c3.59484,-4.3 6.83055,-8.96667 9.70712,-14M563.64027,532.25c2.3537,5.83333 5.57149,10.78333 9.65339,14.85c0.19589,0.2 0.39163,0.41667 0.58723,0.65c0.88934,0 1.79516,0 2.71744,0c0.06588,0 0.14822,0 0.24704,0c3.43956,-1.6 6.73249,-3.38333 9.8788,-5.35c0.03294,0 0.04984,-0.05 0.05071,-0.15c-8.64282,-2.3 -16.28863,-5.61667 -22.93742,-9.95c-0.06559,-0.03333 -0.13132,-0.05 -0.1972,-0.05M540.39278,642.95c2.23663,0.36667 4.31017,0.55 6.22061,0.55c-8.22897,-4.43333 -16.69026,-8.66667 -25.38385,-12.7c-0.06559,-0.03333 -0.13132,-0.05 -0.1972,-0.05c0.76904,2.46667 1.6379,4.81667 2.6066,7.05c0.03236,0.06667 0.04825,0.13333 0.04767,0.2c4.88811,2.26667 10.45683,3.91667 16.70617,4.95z" fill-opacity="0.99608" fill="#000000"/><path d="M546.61339,643.5c-1.91044,0 -3.98398,-0.18333 -6.22061,-0.55c-6.24934,-1.03333 -11.81806,-2.68333 -16.70617,-4.95c0.00058,-0.06667 -0.01531,-0.13333 -0.04767,-0.2c-0.9687,-2.23333 -1.83757,-4.58333 -2.6066,-7.05c0.06588,0 0.13161,0.01667 0.1972,0.05c8.6936,4.03333 17.15488,8.26667 25.38385,12.7z" fill="#2a2b3e"/><path d="M573.29366,547.1c-4.0819,-4.06667 -7.2997,-9.01667 -9.65339,-14.85c0.06588,0 0.13161,0.01667 0.1972,0.05c6.64879,4.33333 14.29459,7.65 22.93742,9.95c-0.00087,0.1 -0.01778,0.15 -0.05071,0.15c-3.14631,1.96667 -6.43924,3.75 -9.8788,5.35c-0.09882,0 -0.18116,0 -0.24704,0c-0.92228,0 -1.82809,0 -2.71744,0c-0.1956,-0.23333 -0.39134,-0.45 -0.58723,-0.65M783.10235,635.25c-0.00087,0.1 -0.01807,0.18333 -0.05159,0.25c-2.87658,5.03333 -6.11228,9.7 -9.70712,14c-0.09882,0 -0.18131,0.01667 -0.24748,0.05c-9.3067,2.06667 -18.38138,3.96667 -27.22404,5.7c2.77933,-1.43333 5.52602,-2.9 8.24006,-4.4c9.56544,-5.3 19.22883,-10.5 28.99017,-15.6M738.03512,534c-0.1023,0.4 -0.17123,0.75 -0.20678,1.05c-0.54229,5.53333 -2.89554,9.1 -7.05975,10.7c-0.09882,0 -0.18116,0 -0.24704,0c-5.79546,-0.2 -11.05911,-0.95 -15.79094,-2.25c0.06588,0 0.1319,-0.01667 0.19807,-0.05c7.47347,-3.36667 15.17561,-6.51667 23.10644,-9.45z" fill="#2b2c3f"/><path d="M619.72268,327.6c3.29391,-7.56667 8.79202,-12.93333 16.49431,-16.1c-2.60697,4.33333 -5.15227,9.15 -7.63591,14.45c-2.38337,5.13333 -4.11421,10.98333 -5.19252,17.55c-1.07657,6.36667 -2.10359,12.71667 -3.08105,19.05c-0.52283,3.3 -0.89904,6.78333 -1.12862,10.45c-0.2753,5.13333 -0.00449,9.96667 0.81242,14.5c3.86933,2 7.72234,3.98333 11.55903,5.95c0.06559,0.03333 0.14779,0.05 0.2466,0.05c-0.00087,0.1 0.01516,0.15 0.0481,0.15c0.49176,0.26667 1.04997,0.46667 1.67464,0.6c2.62493,1.16667 5.35012,2.16667 8.17558,3c3.08839,0.9 6.29454,1.51667 9.61843,1.85c12.01273,1.13333 22.87138,0.51667 32.57596,-1.85c5.97438,-1.43333 10.61048,-4.26667 13.90829,-8.5c-0.0158,-1.96667 -0.16089,-4.21667 -0.43527,-6.75c-0.79716,-6.8 -1.46227,-13.63333 -1.99534,-20.5c-1.12243,-14.83333 0.29337,-28 4.24738,-39.5c0.06588,0 0.13161,0.01667 0.1972,0.05c5.72883,4.06667 9.97882,9.63333 12.74997,16.7c0.17597,6.26667 0.36856,12.51667 0.57775,18.75c0.53476,14.23333 1.0035,28.48333 1.40622,42.75c0.1661,7.4 0.66448,14.46667 1.49516,21.2c1.56573,13.1 3.18087,26.2 4.84542,39.3c-0.05298,2.3 -1.1026,3.68333 -3.14886,4.15c-1.38633,0.33333 -2.75691,0.75 -4.11175,1.25c-10.87166,4 -22.98352,6.68333 -36.33558,8.05c-3.42852,0.33333 -7.05337,0.51667 -10.87454,0.55c-14.98766,0.06667 -28.26577,-1.38333 -39.83432,-4.35c-11.89736,-3.03333 -21.86816,-7.91667 -29.9124,-14.65c-0.78501,-0.63333 -1.52032,-1.3 -2.20593,-2c1.46346,-12.96667 3.14276,-26.13333 5.03791,-39.5c1.89311,-13.13333 4.12933,-25.95 6.70863,-38.45c2.57757,-12.3 5.56323,-24.18333 8.957,-35.65c1.29029,-4.43333 2.80898,-8.61667 4.55606,-12.55z" fill="#fefefe"/><path d="M682.60742,157.95c6.73854,0.66667 11.79245,1.16667 15.16172,1.5c1.40104,0.13333 2.38542,0.26667 2.95313,0.4c7.57813,1.46667 12.80286,2.5 15.67422,3.1c5.8763,1.23333 11.08581,2.45 15.62852,3.65c12.35885,3.26667 23.61367,8.15 33.76445,14.65c6.59974,4.23333 10.86029,9.85 12.78164,16.85c1.92083,6.93333 3.15846,11.75 3.71289,14.45c1.14271,5.46667 1.69805,10.41667 1.66602,14.85c-0.02266,1.36667 0.23633,2.51667 0.77695,3.45c0.5737,0.9 1.47995,1.7 2.71875,2.4c1.43958,0.8 3.24818,1.9 5.42578,3.3c3.0151,1.93333 4.82409,3.08333 5.42695,3.45c0.73698,0.46667 1.24102,0.98333 1.51211,1.55c0.33802,0.6 0.49349,1.3 0.46641,2.1c-0.03073,0.33333 -0.04427,0.73333 -0.04062,1.2c0.03568,0.3 0.0556,0.71667 0.05977,1.25l-0.00273,18.85c-1.02639,12.02161 -1.56116,18.23828 -1.6043,18.65c-0.0625,0.53333 -0.39297,3.03333 -0.99141,7.5c-0.40964,3.03333 -0.7401,5.53333 -0.99141,7.5c-0.12656,0.86667 -0.47695,2.95 -1.05117,6.25c-0.47995,2.56667 -0.79687,4.66667 -0.95078,6.3c-0.49583,4.8 -1.51953,10.3 -3.07109,16.5c-0.93828,3.63333 -2.44609,9.03333 -4.52344,16.2c-0.67995,2.56667 -1.73112,4.55 -3.15352,5.95c-1.58776,1.56667 -3.68099,2.43333 -6.27969,2.6c-0.03333,0 -0.11654,0.01667 -0.24961,0.05c-0.09974,0.03333 -0.16628,0.05 -0.19961,0.05c-0.66615,0.06667 -1.16432,0.3 -1.49453,0.7c-0.2974,0.33333 -0.54349,0.83333 -0.73828,1.5c-0.51745,2.03333 -0.90313,3.86667 -1.15703,5.5c-0.31797,1.96667 -0.45339,3.83333 -0.40625,5.6c0.00573,0.73333 -0.17292,1.33333 -0.53594,1.8c-0.29661,0.43333 -0.82734,0.76667 -1.59219,1c-1.62969,0.46667 -4.05729,1.2 -7.28281,2.2c-2.82708,0.8 -5.28919,1.38333 -7.38633,1.75c-2.0638,0.36667 -5.1263,0.9 -9.1875,1.6c-3.52812,0.66667 -6.58997,1.28333 -9.18555,1.85c-10.54844,2.33333 -18.46862,4.01667 -23.76055,5.05c-8.82031,1.66667 -16.82773,2.85 -24.02227,3.55c-1.7987,0.16667 -4.49635,0.46667 -8.09297,0.9c-3.1974,0.33333 -5.87917,0.53333 -8.04531,0.6c-2.96589,0.1 -6.58229,0.13333 -10.84922,0.1c-2.4,0 -6.0168,-0.01667 -10.85039,-0.05l0.00156,0.2h-10.35c-10.53255,0.1 -21.10677,-0.86667 -31.72266,-2.9c-3.5388,-0.7 -7.09518,-1.51667 -10.66914,-2.45c-5.21094,-1.4 -9.83867,-2.81667 -13.8832,-4.25c-2.43984,-0.83333 -4.76341,-1.71667 -6.9707,-2.65c-2.24089,-0.96667 -4.36536,-1.96667 -6.37344,-3c-4.08281,-2.06667 -7.40169,-4.48333 -9.95664,-7.25c-1.00859,-1.1 -1.78346,-2.15 -2.32461,-3.15c-0.64297,-1.23333 -0.98607,-2.48333 -1.0293,-3.75c-0.04115,-1 -0.28099,-1.83333 -0.71953,-2.5c-0.43802,-0.6 -1.14206,-1.11667 -2.11211,-1.55c-4.38281,-2.06667 -7.14323,-5.53333 -8.28125,-10.4c-0.24062,-0.93333 -0.41289,-1.65 -0.5168,-2.15c-0.20651,-0.83333 -0.31211,-1.55 -0.3168,-2.15c-0.04036,-0.9 -0.26289,-1.65 -0.66758,-2.25c-0.37135,-0.6 -0.95885,-1.13333 -1.7625,-1.6c-0.3349,-0.2 -0.66979,-0.4 -1.00469,-0.6c-2.44661,-1.7 -4.37982,-3.81667 -5.79961,-6.35c-1.31875,-2.4 -2.22461,-5.28333 -2.71758,-8.65c-0.03518,-0.23646 -0.43765,-2.68646 -1.20742,-7.35c-0.79793,-4.61836 -1.6129,-12.93503 -2.44492,-24.95c-0.87319,-12.01823 -1.21655,-19.70156 -1.03008,-23.05c0.42615,-7.10247 0.97954,-13.06914 1.66016,-17.9c2.20889,-15.69557 4.33727,-24.86224 6.38516,-27.5c2.04752,-2.60026 3.70469,-3.81693 4.97148,-3.65c0.43385,0.06667 0.89961,-0.05 1.39727,-0.35c0.13281,-0.06667 0.5306,-0.35 1.19336,-0.85c2.12083,-1.6 3.32005,-3.83333 3.59766,-6.7c0.31068,-2.9 0.83633,-6.01667 1.57695,-9.35c0.6138,-2.5 1.47318,-5.56667 2.57813,-9.2c1.81979,-6 4.7138,-11.03333 8.68203,-15.1c3.93542,-4 8.91198,-7 14.92969,-9c2.16068,-0.76667 4.82161,-1.5 7.98281,-2.2c1.89661,-0.43333 3.52708,-0.8 4.89141,-1.1c1.29766,-0.3 2.37904,-0.55 3.24414,-0.75c3.49323,-0.86667 6.70456,-1.55 9.63398,-2.05c1.73125,-0.26667 3.69635,-0.46667 5.89531,-0.6c1.26615,-0.06667 3.21562,-0.13333 5.84844,-0.2c4.16615,-0.06667 7.28229,-0.13333 9.34844,-0.2c3.59896,-0.13333 6.71328,-0.43333 9.34297,-0.9c0.83359,0.03333 6.40026,0.03333 16.7,0c6.73333,0 12.31849,0.23333 16.75547,0.7c4.03672,0.43333 9.10716,0.91667 15.21133,1.45M541.60938,235c-1.23307,4.3 -2.20599,9.9 -2.91875,16.8c-0.67969,6.86667 -0.91081,13.55 -0.69336,20.05c0.25052,6.46667 0.45091,10.78333 0.60117,12.95l0.82422,9.5c0.65286,6.76667 1.18828,11.3 1.60625,13.6c1.21979,6.8 2.44701,10.28333 3.68164,10.45c0.33359,0.03333 6.16797,0.16667 17.50313,0.4c11.36849,0.23333 17.73633,0.38333 19.10352,0.45c1.36693,0.03333 6.3681,0.18333 15.00352,0.45c8.66849,0.23333 13.45273,0.35 14.35273,0.35l-0.08672,-4.7l40.36992,2.55l4.33086,3.95c5.28568,-1.83333 11.25417,-3.73333 17.90547,-5.7c13.33594,-3.93333 24.70026,-6.36667 34.09297,-7.3c8.42708,-0.8 15.17214,-1.43333 20.23516,-1.9c8.79375,-0.8 16.04258,-0.95 21.74648,-0.45c1.7875,-18.66667 2.8694,-31.65 3.2457,-38.95c0.40938,-7.33333 0.75117,-12.65 1.02539,-15.95c0.27422,-3.3 0.51836,-6.18333 0.73242,-8.65c0.2474,-2.46667 0.30352,-3.81667 0.16836,-4.05c-0.10182,-0.23333 -2.86914,-0.31667 -8.30195,-0.25c-5.36615,0.06667 -10.57891,0.56667 -15.63828,1.5l-26.85586,5.65c-17.5375,3.73333 -26.98854,5.73333 -28.35313,6c-1.79766,0.3 -3.0793,0.51667 -3.84492,0.65c-0.43281,0.06667 -0.69909,0.11667 -0.79883,0.15c-13.95104,2 -26.33268,2.21667 -37.14492,0.65c-4.77214,-0.7 -10.44948,-2.06667 -17.03203,-4.1c-8.71849,-2.36667 -15.08294,-4.21667 -19.09336,-5.55c-3.97734,-1.36667 -8.33932,-2.9 -13.08594,-4.6c-4.71302,-1.66667 -8.85703,-3.03333 -12.43203,-4.1l-6.46367,-1.75c-4.40885,-1.13333 -7.56758,-2.25 -9.47617,-3.35c-1.87552,-1.13333 -4.4293,-1.61667 -7.66133,-1.45c-3.16536,0.16667 -5.38125,2.4 -6.64766,6.7M624.16484,325.3c0.07891,1.56667 -0.64258,3.08333 -2.16445,4.55c-1.53151,0.23333 -13.92513,1.05 -37.18086,2.45c0.00938,1.2 0.33099,3.96667 0.96484,8.3c0.66745,4.36667 1.34661,8.1 2.0375,11.2c0.69063,3.06667 1.44544,5.81667 2.26445,8.25c0.85234,2.43333 1.46458,4 1.83672,4.7c13.15521,2.8 31.45638,5.08333 54.90352,6.85c23.44687,1.73333 41.85469,0.6 55.22344,-3.4c1.94141,-3.23333 4.27643,-7.28333 7.00508,-12.15c2.72839,-4.9 4.43464,-8.36667 5.11875,-10.4c0.71719,-2.06667 1.29141,-5.36667 1.72266,-9.9c0.46432,-4.56667 0.64349,-7.23333 0.5375,-8l-14.96328,-1.7c-12.03385,-0.06667 -21.34401,0.76667 -27.93047,2.5c-6.55312,1.73333 -10.79219,3.13333 -12.71719,4.2l-3.95039,-0.05c-2.80156,-0.2 -4.70482,-0.61667 -5.70977,-1.25c-0.3724,-0.73333 -0.96706,-2.18333 -1.78398,-4.35l-1.12383,-3.05l-24.65508,-0.65z" fill="#000000"/><path d="M622.00039,329.85c1.52188,-1.46667 2.24336,-2.98333 2.16445,-4.55l-0.56484,-1.9l24.65508,0.65l1.12383,3.05c0.81693,2.16667 1.41159,3.61667 1.78398,4.35c1.00495,0.63333 2.9082,1.05 5.70977,1.25l3.95039,0.05c1.925,-1.06667 6.16406,-2.46667 12.71719,-4.2c6.58646,-1.73333 15.89661,-2.56667 27.93047,-2.5l14.96328,1.7c0.10599,0.76667 -0.07318,3.43333 -0.5375,8c-0.43125,4.53333 -1.00547,7.83333 -1.72266,9.9c-0.68411,2.03333 -2.39036,5.5 -5.11875,10.4c-2.72865,4.86667 -5.06367,8.91667 -7.00508,12.15c-13.36875,4 -31.77656,5.13333 -55.22344,3.4c-23.44714,-1.76667 -41.74831,-4.05 -54.90352,-6.85c-0.37214,-0.7 -0.98437,-2.26667 -1.83672,-4.7c-0.81901,-2.43333 -1.57383,-5.18333 -2.26445,-8.25c-0.69089,-3.1 -1.37005,-6.83333 -2.0375,-11.2c-0.63385,-4.33333 -0.95547,-7.1 -0.96484,-8.3c23.25573,-1.4 35.64935,-2.21667 37.18086,-2.45M538.69062,251.8c0.71276,-6.9 1.68568,-12.5 2.91875,-16.8c1.26641,-4.3 3.48229,-6.53333 6.64766,-6.7c3.23203,-0.16667 5.78581,0.31667 7.66133,1.45c1.90859,1.1 5.06732,2.21667 9.47617,3.35l6.46367,1.75c3.575,1.06667 7.71901,2.43333 12.43203,4.1c4.74661,1.7 9.10859,3.23333 13.08594,4.6c4.01042,1.33333 10.37487,3.18333 19.09336,5.55c6.58255,2.03333 12.2599,3.4 17.03203,4.1c10.81224,1.56667 23.19388,1.35 37.14492,-0.65c0.09974,-0.03333 0.36602,-0.08333 0.79883,-0.15c0.76563,-0.13333 2.04727,-0.35 3.84492,-0.65c1.36458,-0.26667 10.81563,-2.26667 28.35313,-6l26.85586,-5.65c5.05938,-0.93333 10.27214,-1.43333 15.63828,-1.5c5.43281,-0.06667 8.20013,0.01667 8.30195,0.25c0.13516,0.23333 0.07904,1.58333 -0.16836,4.05c-0.21406,2.46667 -0.4582,5.35 -0.73242,8.65c-0.27422,3.3 -0.61602,8.61667 -1.02539,15.95c-0.3763,7.3 -1.4582,20.28333 -3.2457,38.95c-5.70391,-0.5 -12.95273,-0.35 -21.74648,0.45c-5.06302,0.46667 -11.80807,1.1 -20.23516,1.9c-9.39271,0.93333 -20.75703,3.36667 -34.09297,7.3c-6.6513,1.96667 -12.61979,3.86667 -17.90547,5.7l-4.33086,-3.95l-40.36992,-2.55l0.08672,4.7c-0.9,0 -5.68424,-0.11667 -14.35273,-0.35c-8.63542,-0.26667 -13.63659,-0.41667 -15.00352,-0.45c-1.36719,-0.06667 -7.73503,-0.21667 -19.10352,-0.45c-11.33516,-0.23333 -17.16953,-0.36667 -17.50313,-0.4c-1.23464,-0.16667 -2.46185,-3.65 -3.68164,-10.45c-0.41797,-2.3 -0.95339,-6.83333 -1.60625,-13.6l-0.82422,-9.5c-0.15026,-2.16667 -0.35065,-6.48333 -0.60117,-12.95c-0.21745,-6.5 0.01367,-13.18333 0.69336,-20.05z" fill="#ffffff"/><path d="M661.9,369.55c0.23333,0.2 0.31667,0.48333 0.25,0.85c0,0.26667 -0.11667,0.45 -0.35,0.55c-0.1,0.1 -0.31667,0.18333 -0.65,0.25c-0.93333,0.26667 -2.03333,0.41667 -3.3,0.45c-0.2,0.03333 -1.41667,0.05 -3.65,0.05c-1.86667,0 -3.11667,-0.01667 -3.75,-0.05c-1.5,-0.1 -2.83333,-0.35 -4,-0.75c-1.06667,-0.4 -1.61667,-0.61667 -1.65,-0.65c-0.6,-0.3 -0.96667,-0.75 -1.1,-1.35c-0.06667,-0.43333 0.18333,-0.8 0.75,-1.1c0.6,-0.3 1.43333,-0.48333 2.5,-0.55c4.13333,-0.26667 8.53333,0.23333 13.2,1.5c0.6,0.2 0.95,0.31667 1.05,0.35c0.33333,0.13333 0.56667,0.28333 0.7,0.45z" fill="#0d0d0d"/><path d="M711.15,337.45c-0.46667,0.53333 -1,0.71667 -1.6,0.55c-0.86667,-0.26667 -1.76667,-0.68333 -2.7,-1.25c-2.16667,-1.33333 -4.51667,-2.96667 -7.05,-4.9c-1.4,-1.03333 -3.66667,-2.78333 -6.8,-5.25c-0.06667,-0.06667 -0.15,-0.23333 -0.25,-0.5c-0.16667,-0.46667 -0.28333,-0.8 -0.35,-1c1.7,0 2.93333,0 3.7,0c1.36667,0.03333 2.48333,0.01667 3.35,-0.05c1.8,-0.1 3.5,0.55 5.1,1.95c2.63333,2.3 4.65,4.51667 6.05,6.65c0.43333,0.66667 0.8,1.4 1.1,2.2c0.16667,0.56667 -0.01667,1.1 -0.55,1.6z" fill="#0a0a0a"/><path d="M673.3,333.05c0.96042,-0.12526 2.29375,-0.22526 4,-0.3c1.70169,-0.07474 3.15169,-0.04141 4.35,0.1c1.22865,0.14271 2.14531,0.24271 2.75,0.3c0.59961,0.06185 1.18294,0.16185 1.75,0.3c0.53333,0.13333 1.08333,0.3 1.65,0.5c0.5,0.2 1.01667,0.4 1.55,0.6l-0.85,-1.55c-0.14714,-0.42591 -0.2638,-0.87591 -0.35,-1.35c-0.06667,-0.4 -0.06667,-0.8 0,-1.2c0.1,-0.43333 0.25,-0.86667 0.45,-1.3l4.45,3.15c2.41419,1.81641 5.04753,3.89974 7.9,6.25c1.23333,1.03333 2.13333,2.41667 2.7,4.15c0.66667,1.96667 1.11667,3.56667 1.35,4.8c0.36667,1.76667 0.5,3.41667 0.4,4.95c-0.03333,0.46667 -0.05,2.03333 -0.05,4.7c0.03333,1.93333 -0.11667,3.5 -0.45,4.7c-0.3,1.06667 -0.78333,1.93333 -1.45,2.6c-0.63333,0.7 -1.45,1.25 -2.45,1.65c-1.16667,0.46667 -2.13333,0.7 -2.9,0.7c-1,0.03333 -1.93333,-0.31667 -2.8,-1.05c-0.26667,-0.26667 -0.66667,-0.55 -1.2,-0.85c-0.73333,-0.4 -1.18333,-0.65 -1.35,-0.75c-2.56667,-1.73333 -5.95,-3.31667 -10.15,-4.75c-5.4,-1.86667 -10.6,-2.18333 -15.6,-0.95c-1.66667,0.43333 -3.83333,0.91667 -6.5,1.45c-3.56667,0.76667 -5.73333,1.23333 -6.5,1.4c-1.56667,0.33333 -3.23333,0.55 -5,0.65c-2.13333,0.13333 -3.56667,-0.3 -4.3,-1.3c-0.8,-1.1 -0.56667,-2.63333 0.7,-4.6c0.66667,-1.06667 1.38333,-2.56667 2.15,-4.5c0.33333,-0.93333 0.35,-2 0.05,-3.2c-0.5,-1.36667 -0.85,-2.38333 -1.05,-3.05c-0.2,-0.63333 -0.66667,-1.1 -1.4,-1.4c-0.4,-0.16667 -1.05,-0.38333 -1.95,-0.65c-0.7,-0.33333 -1.7,-0.76667 -3,-1.3c-1.46667,-0.6 -2.48333,-1.03333 -3.05,-1.3c-0.33333,-0.13333 -0.5,-0.38333 -0.5,-0.75c0,-0.33333 0.15,-0.6 0.45,-0.8c3.86667,-2.36667 7.96667,-2.78333 12.3,-1.25c1.33333,0.46667 2.65,0.7 3.95,0.7c1.26667,-0.03333 2.6,-0.28333 4,-0.75c0.83333,-0.26667 2.61667,-0.81667 5.35,-1.65c2.23997,-0.6681 4.47331,-1.3681 6.7,-2.1c1.68073,-0.54271 2.98073,-0.87604 3.9,-1M658.4,344.35c-1.06667,0.36667 -2.71667,0.93333 -4.95,1.7c0.46667,0.7 1.11667,1.16667 1.95,1.4c0.36667,0.13333 1.13333,0.23333 2.3,0.3c1.7,0.13333 3.6,0.06667 5.7,-0.2c1.13333,-0.16667 2.98333,-0.5 5.55,-1c2.43333,-0.46667 5.65,-1.01667 9.65,-1.65c5.4,-0.86667 8.83333,-1.43333 10.3,-1.7c-1.23333,-1.23333 -2.48333,-2.13333 -3.75,-2.7c-1.2,-0.56667 -2.51667,-0.88333 -3.95,-0.95c-3.3,-0.16667 -6.38333,-0.01667 -9.25,0.45c-3.1,0.46667 -6.03333,1.31667 -8.8,2.55c-1.26667,0.56667 -2.85,1.16667 -4.75,1.8M684.8,352.25c0.76667,0.33333 1.75,0.16667 2.95,-0.5c1.2,-0.7 1.9,-1.5 2.1,-2.4c0.06667,-0.4 -0.1,-0.63333 -0.5,-0.7l-1,-0.15c-0.46667,0.1 -1.15,0.18333 -2.05,0.25c-0.73333,0.13333 -1.35,0.38333 -1.85,0.75c-0.26667,0.23333 -0.43333,0.4 -0.5,0.5c-0.16667,0.2 -0.25,0.43333 -0.25,0.7c0.06667,0.73333 0.43333,1.25 1.1,1.55M699.05,359.6c0.46667,-1.13333 0.43333,-2.31667 -0.1,-3.55c-0.7,-1.36667 -1.18333,-2.4 -1.45,-3.1c-0.1,-0.2 -0.3,-0.31667 -0.6,-0.35c-0.26667,0 -0.53333,0.06667 -0.8,0.2c-1.26667,0.66667 -2.58333,1.38333 -3.95,2.15c-0.3,0.16667 -0.45,0.43333 -0.45,0.8c0,0.36667 0.16667,0.61667 0.5,0.75c0.06667,0.03333 1.18333,0.6 3.35,1.7c1.33333,0.7 2.5,1.16667 3.5,1.4z" fill="#010101"/><path d="M691.7,355.75c0,-0.36667 0.15,-0.63333 0.45,-0.8c1.36667,-0.76667 2.68333,-1.48333 3.95,-2.15c0.26667,-0.13333 0.53333,-0.2 0.8,-0.2c0.3,0.03333 0.5,0.15 0.6,0.35c0.26667,0.7 0.75,1.73333 1.45,3.1c0.53333,1.23333 0.56667,2.41667 0.1,3.55c-1,-0.23333 -2.16667,-0.7 -3.5,-1.4c-2.16667,-1.1 -3.28333,-1.66667 -3.35,-1.7c-0.33333,-0.13333 -0.5,-0.38333 -0.5,-0.75z" fill="#ebeceb"/><path d="M683.95,350c0.06667,-0.1 0.23333,-0.26667 0.5,-0.5c0.5,-0.36667 1.11667,-0.61667 1.85,-0.75c0.9,-0.06667 1.58333,-0.15 2.05,-0.25l1,0.15c0.4,0.06667 0.56667,0.3 0.5,0.7c-0.2,0.9 -0.9,1.7 -2.1,2.4c-1.2,0.66667 -2.18333,0.83333 -2.95,0.5c-0.66667,-0.3 -1.03333,-0.81667 -1.1,-1.55c0,-0.26667 0.08333,-0.5 0.25,-0.7z" fill="#d36787"/><path d="M671.95,340c2.86667,-0.46667 5.95,-0.61667 9.25,-0.45c1.43333,0.06667 2.75,0.38333 3.95,0.95c1.26667,0.56667 2.51667,1.46667 3.75,2.7c-1.46667,0.26667 -4.9,0.83333 -10.3,1.7c-4,0.63333 -7.21667,1.18333 -9.65,1.65c-2.56667,0.5 -4.41667,0.83333 -5.55,1c-2.1,0.26667 -4,0.33333 -5.7,0.2c-1.16667,-0.06667 -1.93333,-0.16667 -2.3,-0.3c-0.83333,-0.23333 -1.48333,-0.7 -1.95,-1.4c2.23333,-0.76667 3.88333,-1.33333 4.95,-1.7c1.9,-0.63333 3.48333,-1.23333 4.75,-1.8c2.76667,-1.23333 5.7,-2.08333 8.8,-2.55z" fill="#f9f9f9"/><path d="M729.41454,356.48041c4.7442,-2.7356 10.51237,-4.47936 17.3045,-5.2313c2.20789,1.11603 4.4154,2.18208 6.62253,3.19815c10.16697,4.78711 18.59777,11.30369 25.29237,19.54974c0.00077,0.09996 -0.01525,0.18339 -0.04806,0.25029c-1.28117,6.7411 -3.30102,12.75477 -6.05958,18.04099c2.18864,2.94895 4.24515,6.04887 6.16953,9.29976c4.82837,8.22705 9.59074,16.53792 14.2871,24.93261c2.70253,4.77778 4.84295,10.12636 6.42126,16.04575c0.00077,0.09996 0.00141,0.18327 0.00192,0.24991c-0.03287,4.3989 -0.16942,8.31541 -0.40963,11.74953c-0.09996,0.00077 -0.14982,0.01781 -0.14956,0.05113c-3.12764,4.95583 -7.29617,8.88664 -12.50559,11.79242c-0.09996,0.00077 -0.18327,0.00141 -0.24991,0.00192c-9.32301,0.97131 -16.24865,-0.47506 -20.77694,-4.33909c-2.95906,-7.80821 -6.33182,-15.24668 -10.11828,-22.31543c-5.20616,-9.69037 -10.87536,-18.92732 -17.0076,-27.71086c-1.93186,0.1148 -3.61534,0.02776 -5.05045,-0.26113c-4.30508,-0.83335 -8.95772,-1.36412 -13.95794,-1.59231c-0.21118,-1.46459 -0.4553,-2.87895 -0.73236,-4.24307c-2.52838,-12.47675 -5.05676,-24.95349 -7.58515,-37.43024c5.86509,-4.31039 12.04904,-8.32332 18.55184,-12.03878M768.39932,395.11911c-2.74154,-1.17858 -5.69827,-2.17223 -8.87017,-2.98096c-1.24426,7.20734 -2.18633,14.71227 -2.82621,22.51479c0.00077,0.09996 0.00141,0.18327 0.00192,0.24991c3.30493,0.77438 6.55988,1.54914 9.76485,2.32429l-0.00115,-0.14995c0.89743,-4.6388 1.81139,-9.29439 2.74189,-13.96677c-0.00026,-0.03332 0.0496,-0.05037 0.14956,-0.05113c3.5433,1.43901 6.71942,2.79753 9.52837,4.07557l-0.00115,-0.14995c-2.93117,-4.1762 -6.20941,-7.98319 -9.83469,-11.42096c-0.16788,-0.16533 -0.38562,-0.31361 -0.65322,-0.44485M777.86179,410.14182c-1.73909,-0.81972 -3.64326,-1.43824 -5.7125,-1.85556c-1.90506,7.94552 -3.91084,15.79185 -6.01736,23.53898c-0.03255,0.10022 -0.04857,0.18365 -0.04806,0.25029c3.97698,1.50233 7.73891,3.20624 11.28579,5.11175c0.0669,0.03281 0.15033,0.04883 0.25029,0.04806c1.16093,-5.0407 1.9857,-10.46204 2.47433,-16.264l0.14995,-0.00115c2.77896,1.71146 5.37209,3.09112 7.7794,4.13898l-0.00345,-0.44984c-2.33779,-5.01384 -5.22128,-9.49031 -8.65048,-13.42943c-0.40344,-0.46343 -0.90607,-0.82612 -1.50789,-1.08808z" fill-opacity="0.99608" fill="#000000"/><path d="M772.14929,408.28626c2.06924,0.41731 3.9734,1.03583 5.7125,1.85556c0.60183,0.26196 1.10446,0.62466 1.50789,1.08808c3.4292,3.93912 6.31269,8.4156 8.65048,13.42943l0.00345,0.44984c-2.40731,-1.04786 -5.00044,-2.42752 -7.7794,-4.13898l-0.14995,0.00115c-0.48862,5.80197 -1.3134,11.2233 -2.47433,16.264c-0.09996,0.00077 -0.18339,-0.01525 -0.25029,-0.04806c-3.54688,-1.90551 -7.30881,-3.60942 -11.28579,-5.11175c-0.00051,-0.06664 0.01551,-0.15007 0.04806,-0.25029c2.10652,-7.74713 4.11231,-15.59346 6.01736,-23.53898M759.52915,392.13815c3.1719,0.80872 6.12863,1.80238 8.87017,2.98096c0.26759,0.13124 0.48533,0.27952 0.65322,0.44485c3.62529,3.43777 6.90352,7.24475 9.83469,11.42096l0.00115,0.14995c-2.80895,-1.27803 -5.98508,-2.63656 -9.52837,-4.07557c-0.09996,0.00077 -0.14982,0.01781 -0.14956,0.05113c-0.9305,4.67238 -1.84446,9.32797 -2.74189,13.96677l0.00115,0.14995c-3.20497,-0.77515 -6.45992,-1.54991 -9.76485,-2.32429c-0.00051,-0.06664 -0.00115,-0.14995 -0.00192,-0.24991c0.63988,-7.80252 1.58195,-15.30744 2.82621,-22.51479z" fill-opacity="0.99608" fill="#ffffff"/><path d="M733.92438,433.99102c0.26717,-0.09939 0.58408,-0.06533 0.95074,0.10217c0.33337,0.13409 0.54977,0.35125 0.64919,0.65147c0.06643,0.13348 0.08277,0.28352 0.04903,0.4501c-0.00045,0.19999 -0.03416,0.34991 -0.10113,0.44976c-0.4017,0.56573 -0.97004,1.04776 -1.70503,1.44606c-0.33405,0.1659 -1.01869,0.43099 -2.05391,0.79528c-3.13904,1.09279 -5.94368,1.8697 -8.41393,2.3307c-3.0378,0.59304 -5.92453,0.78643 -8.66021,0.58018c-1.4012,-0.1032 -2.51958,0.14424 -3.35513,0.74231c-0.80211,0.56482 -1.42153,1.49671 -1.85826,2.79568c-0.6719,1.99841 -1.10851,3.24738 -1.30985,3.74691c-0.53699,1.3654 -1.14029,2.54733 -1.80991,3.54577c-0.16737,0.23294 -0.2683,0.59937 -0.30281,1.09928c-0.03405,0.29991 -0.0684,0.73316 -0.10306,1.29973c-1.23819,-2.0313 -2.28476,-4.01697 -3.13969,-5.95703c-0.78814,-1.73796 -1.41825,-3.43935 -1.89035,-5.10419c1.5666,0.7369 2.81886,0.30644 3.75679,-1.29138c0.56967,-1.06534 0.98862,-1.88103 1.25685,-2.44706c0.50263,-0.93216 1.02153,-1.68095 1.5567,-2.24638c0.70253,-0.79837 1.38778,-1.33013 2.05573,-1.59526c0.8015,-0.29816 1.7025,-0.32943 2.70299,-0.09382c3.70174,0.90844 7.82254,0.9512 12.3624,0.12826c0.40056,-0.06575 1.96921,-0.22882 4.70594,-0.48923c1.9024,-0.19565 3.4547,-0.50875 4.65691,-0.93933z" fill="#2c2c40"/><path d="M663.79706,502.37894c-1.13752,1.3307 -1.7916,2.82917 -1.96222,4.4954c-0.17146,2.03289 -0.00951,4.18321 0.48585,6.45095c0.39647,1.7342 1.07584,3.7857 2.03811,6.1545c0.33193,0.76741 0.83115,1.3352 1.49767,1.70338c0.63322,0.33477 1.35039,0.43641 2.15152,0.30491c1.93622,-0.39556 4.80676,-0.80566 8.61163,-1.23028c3.87168,-0.4578 6.74219,-0.85123 8.61152,-1.18028c3.00443,-0.59312 5.75679,-0.38683 8.25707,0.61886c2.53365,1.00577 4.73184,2.79408 6.59458,5.36494c0.46563,0.66771 1.0979,1.41914 1.89683,2.25428c0.46601,0.50105 1.16509,1.2193 2.09726,2.15474c1.43139,1.50323 3.21484,2.25729 5.35035,2.26218c1.56812,0.07025 2.75258,0.10629 3.5534,0.10812c1.36799,0.03646 2.51928,-0.01091 3.45387,-0.1421c2.93709,-0.32661 5.32419,-0.90447 7.16129,-1.73358c2.4048,-1.02781 4.31031,-2.59008 5.71651,-4.68681c0.5021,-0.69883 1.02024,-1.11431 1.55443,-1.24641c0.53418,-0.13211 1.16794,-0.03066 1.90126,0.30434c1.86676,0.80425 3.14909,1.82382 3.847,3.05872c0.99716,1.70224 2.47818,3.38891 4.44307,5.06003c1.13229,0.96923 2.89766,2.3399 5.2961,4.11201c1.06579,0.86908 2.46612,1.3556 4.201,1.45957c3.73662,0.24187 7.27523,-0.48335 10.61584,-2.17567c1.83733,-0.92911 4.19216,-1.99036 7.06448,-3.18377c3.17286,-1.29271 5.54422,-2.28727 7.11408,-2.98366c3.2399,-1.42589 5.41113,-2.45423 6.51369,-3.08503c2.37204,-1.29454 4.26071,-2.79019 5.66601,-4.48693c0.16737,-0.23294 0.35119,-0.36585 0.55147,-0.39873c0.23365,-0.0328 0.43351,0.11765 0.59959,0.45136c-0.70526,1.99834 -1.4933,3.71316 -2.36411,5.14446c-1.03833,1.73092 -2.24293,3.21146 -3.6138,4.44162c-0.3678,0.33248 -0.71937,0.865 -1.05471,1.59755c-0.03352,0.06659 0.01627,0.18337 0.14936,0.35033c0.09987,0.10023 0.21632,0.25049 0.34933,0.45079c-0.06681,0.03318 -0.35077,0.18253 -0.85189,0.44804c-0.36742,0.16582 -0.66799,0.2818 -0.90172,0.34793c-1.23566,0.46383 -3.13904,1.09279 -5.71015,1.8869c-2.23736,0.76153 -4.07427,1.50731 -5.51074,2.23734c-2.23827,1.16152 -4.77654,2.18902 -7.61482,3.08251c-2.10366,0.66184 -4.758,1.37242 -7.96302,2.13174c-1.80283,0.4292 -3.62143,0.45837 -5.4558,0.08752c-1.73427,-0.37062 -3.43446,-1.05783 -5.10055,-2.06161c-1.66595,-1.07045 -2.98195,-1.95677 -3.94801,-2.65896c-1.39916,-1.00317 -2.59807,-2.02256 -3.59675,-3.05815c-0.63239,-0.70143 -1.48148,-1.48668 -2.54726,-2.35576c-1.19903,-0.96938 -2.09828,-1.70475 -2.69776,-2.20611c-0.93558,0.56451 -2.25541,1.36148 -3.95949,2.39089c-4.44431,2.8231 -9.03513,4.04591 -13.77247,3.66842c-0.7673,-0.06842 -1.93504,-0.12109 -3.50324,-0.15801c-1.53483,-0.03684 -2.70257,-0.08951 -3.50324,-0.15801c-3.97012,-0.27574 -6.86929,-1.94899 -8.69753,-5.01976c-0.99769,-1.46891 -1.71255,-2.58718 -2.14458,-3.35482c-1.46225,-2.60328 -3.66174,-3.82494 -6.59845,-3.66499c-0.13347,-0.00031 -0.80082,-0.00183 -2.00204,-0.00458c-0.80074,-0.03516 -1.45152,0.01335 -1.95233,0.14553c-1.83627,0.46246 -4.38971,0.82328 -7.66032,1.08246c-3.67102,0.25827 -6.24096,0.53572 -7.7098,0.83235c-3.07109,0.55963 -5.75501,-0.39648 -8.05175,-2.86834c-1.39795,-1.53649 -2.46233,-3.02222 -3.19315,-4.45719c-0.86369,-1.70193 -1.36022,-3.45302 -1.4896,-5.25327c-0.12945,-1.76692 -0.22652,-3.10044 -0.29121,-4.00056c-0.06325,-1.53344 -0.06026,-2.85007 0.00898,-3.94988c0.24191,-3.66602 1.14995,-6.7972 2.72413,-9.39353c1.70788,-2.69603 4.19871,-4.87361 7.47251,-6.53275c1.40302,-0.69677 3.00617,-1.35976 4.80945,-1.98895c0.9016,-0.29793 2.55454,-0.84414 4.95881,-1.63862c4.00697,-1.25747 7.34201,-0.49987 10.00511,2.27282c0.04863,0.05128 0.09857,0.10139 0.14981,0.15034c0.63162,0.64036 1.36441,1.20869 2.19838,1.70498c0.73302,0.46833 1.61624,0.92034 2.64964,1.35602c1.86676,0.80425 3.61798,1.05825 5.25366,0.76199c1.73579,-0.29602 3.17259,-1.17605 4.31042,-2.64008c0.97046,-1.23108 2.25779,-2.41144 3.86201,-3.54108c1.93811,-1.22887 3.39168,-2.14219 4.3607,-2.73996c0.23395,-0.16613 0.75179,-0.44827 1.55352,-0.84643c0.63474,-0.33187 1.13597,-0.64739 1.50369,-0.94654c2.67424,-2.12716 4.66426,-4.17256 5.97007,-6.13619c1.7075,-2.52937 2.5813,-5.2773 2.62141,-8.2438c0.43325,0.23432 0.69893,0.78491 0.79707,1.65178c0.13142,0.90028 0.39711,1.45087 0.79707,1.65178c3.50623,-1.15862 6.12758,-2.03594 7.86405,-2.63195c3.07215,-1.02628 5.69346,-1.88693 7.86394,-2.58195c1.30231,-0.43034 2.40465,-0.96114 3.30701,-1.5924c1.00269,-0.73102 1.83896,-1.64575 2.50881,-2.74419c3.18188,-5.25926 7.02838,-9.31703 11.53949,-12.17331c2.20543,-1.39492 4.29575,-3.52342 6.27094,-6.3855c0.60258,-0.86527 0.88772,-1.53126 0.85542,-1.99799c-0.03238,-0.4334 -0.38126,-1.08418 -1.04664,-1.95234c-0.26618,-0.33393 -1.24775,-1.55281 -2.94472,-3.65664c-1.19782,-1.5027 -2.17931,-2.75491 -2.94449,-3.75664c-0.86482,-1.20195 -1.98134,-1.77115 -3.34956,-1.70762c-1.16801,0.06399 -2.66928,-0.0561 -4.5038,-0.36029c-2.26823,-0.33851 -3.73598,-0.5252 -4.40325,-0.56005c-1.93501,-0.13775 -3.65218,-0.69167 -5.15151,-1.66174c-1.26599,-0.86954 -2.51431,-2.17236 -3.74497,-3.90846c-1.76286,-2.47063 -3.27456,-5.34069 -4.5351,-8.61015c-0.99541,-2.46888 -1.9561,-5.53767 -2.88205,-9.20636c-0.49627,-1.86775 -0.3923,-3.56747 0.3119,-5.09916c0.67076,-1.49843 1.89151,-2.74561 3.66226,-3.74153c1.72684,3.63719 2.63588,7.40584 2.72712,11.30595c0.06249,1.86676 0.40929,3.43418 1.04039,4.70226c0.33193,0.76741 0.81314,1.91848 1.44364,3.45321c0.56414,1.36792 1.07876,2.5024 1.54385,3.40344c0.69761,1.36823 1.61283,2.42029 2.74565,3.1562c1.16627,0.70265 2.5335,1.07243 4.10169,1.10935c1.43472,0.03661 2.51913,0.05576 3.25321,0.05744c1.23452,0.03616 2.319,0.02197 3.25344,-0.04256c1.73533,-0.09603 3.28627,0.19084 4.65282,0.86062c1.36647,0.70311 2.49854,1.77233 3.3962,3.20768c0.665,1.03483 1.71312,2.33719 3.14435,3.90709c1.59769,1.73694 2.66261,2.98935 3.19475,3.75721c0.499,0.66779 1.01528,1.06896 1.54886,1.20351c0.6336,0.16811 1.36806,0.00313 2.20339,-0.49495c0.96887,-0.5311 2.07052,-0.76191 3.30497,-0.69243c1.10097,0.06918 2.2515,0.35514 3.45159,0.85787c1.36662,0.63644 2.93368,1.17334 4.70117,1.61071c1.73404,0.47062 3.23399,1.17403 4.49983,2.11024c2.1318,1.63817 3.64687,3.02493 4.54522,4.16029c1.36412,1.73641 2.06041,3.68795 2.08885,5.85463c-0.00121,0.53332 0.13082,1.16694 0.39609,1.90086c0.13248,0.43363 0.36462,1.06747 0.6964,1.90154c1.2597,3.63612 2.25197,7.48829 2.97681,11.55651c0.46146,2.50099 0.90718,4.58529 1.33717,6.2529c0.59546,2.26797 1.30824,4.30288 2.13833,6.10473c1.19539,2.56933 1.72343,5.13714 1.58413,7.70343c-0.10617,2.66636 -0.92943,5.19774 -2.46978,7.59416c-1.44018,2.36331 -3.43251,5.42535 -5.977,9.1861c-0.23441,0.36612 -0.41846,0.59903 -0.55215,0.69872c-0.30069,0.16597 -0.63425,0.11521 -1.00068,-0.15228c0.84093,-2.96467 1.47995,-5.17982 1.91706,-6.64545c0.77351,-2.66483 1.46258,-4.87987 2.06721,-6.6451c0.60463,-1.76524 0.8421,-3.48132 0.71242,-5.14824c-0.16312,-1.63366 -0.6766,-3.26813 -1.54044,-4.9034c-0.69784,-1.26823 -1.26175,-2.73615 -1.69173,-4.40376c-0.29796,-1.03399 -0.61146,-2.568 -0.94051,-4.60203c-0.59137,-4.06792 -1.0683,-7.10226 -1.43079,-9.10304c-0.65947,-3.46809 -1.60381,-6.38684 -2.83302,-8.75626c-0.29887,-0.634 -0.43048,-1.45095 -0.39484,-2.45084c0.07075,-1.76646 -0.7604,-3.10166 -2.49346,-4.0056c-1.63311,-0.83705 -3.74978,-1.79186 -6.35001,-2.86445c-1.36685,-0.53645 -2.83369,-1.12312 -4.40052,-1.76002c-1.00019,-0.36894 -1.75065,-0.50399 -2.25139,-0.40514c-0.50081,0.13218 -1.13582,0.58072 -1.90501,1.34561c-0.50165,0.49884 -1.57187,1.5797 -3.21066,3.24258c-1.17044,1.13063 -2.85947,2.87672 -5.0671,5.23828c-2.04011,2.06195 -3.82894,3.67449 -5.3665,4.83761c-1.73799,1.26266 -3.35983,2.80891 -4.86553,4.63876c-1.20441,1.39721 -2.50983,3.19418 -3.91626,5.39091c-1.90861,2.9289 -2.9968,4.57637 -3.26458,4.94241c-1.33879,1.79689 -2.79338,3.1602 -4.36377,4.08992c-0.60137,0.33195 -1.18663,0.91393 -1.75577,1.74594c-0.87058,1.33131 -1.33932,2.03022 -1.40621,2.09673c-0.60228,0.73194 -0.63777,1.66517 -0.10647,2.79969c1.2283,2.76941 2.10826,4.6547 2.63986,5.65589c1.09643,2.06912 2.22698,3.805 3.39165,5.20762c2.26285,2.70511 4.92834,4.42782 7.99647,5.16815c3.16831,0.70723 6.33924,0.26449 9.51278,-1.32822c2.00439,-1.02872 3.74264,-2.40805 5.21475,-4.13797c1.3717,-1.59682 2.52727,-3.52747 3.46671,-5.79193c0.50332,-1.23215 0.87244,-2.14795 1.10738,-2.7474c0.43628,-1.09897 0.85542,-1.99799 1.25742,-2.69706c0.63678,-1.23185 1.30637,-2.21362 2.00875,-2.94533c0.86967,-0.93132 1.82205,-1.54579 2.85712,-1.84342c1.06844,-0.29755 2.37034,-0.54457 3.90569,-0.74105c1.76893,-0.19595 3.08728,-0.34293 3.95506,-0.44095c0.60084,-0.09862 1.2512,0.03619 1.95108,0.40445c0.36659,0.20083 0.66629,0.46818 0.8991,0.80204c0.19937,0.36711 0.28188,0.76729 0.24753,1.20054c-0.06833,0.69983 -0.48648,1.16552 -1.25446,1.3971c-0.46752,0.16559 -1.16877,0.39732 -2.10374,0.69517c-0.83479,0.26475 -1.56922,0.41307 -2.20327,0.44495c-1.26804,0.03043 -2.33663,0.39465 -3.20577,1.09264c-0.80218,0.59815 -1.50498,1.51319 -2.1084,2.74511c-0.63694,1.29851 -1.54168,2.97973 -2.71424,5.04367c-1.44063,2.56331 -2.36207,4.24449 -2.76429,5.04355c-0.90479,1.69789 -2.32658,3.31126 -4.26537,4.84012c-2.03905,1.5953 -4.31061,2.72341 -6.81468,3.38433c-2.27042,0.62813 -4.82368,0.90561 -7.65975,0.83246c-2.7359,-0.10625 -5.22033,-0.74525 -7.4533,-1.91699c-2.06628,-1.1047 -3.99791,-2.72574 -5.7949,-4.86313c-1.79699,-2.13739 -3.39287,-4.67431 -4.78763,-7.61075c-1.02939,-2.2023 -2.07413,-4.98795 -3.13424,-8.35695c-0.19876,-0.63377 -0.26421,-1.20057 -0.19634,-1.70041c0.10124,-0.49976 0.35263,-0.99917 0.75418,-1.49824c0.56884,-0.69868 1.12129,-1.53073 1.65737,-2.49615c0.43476,-0.43233 0.75247,-0.74826 0.95313,-0.9478c0.36795,-0.39915 0.45239,-0.84894 0.25332,-1.34939c-2.53676,0.36086 -4.84127,1.30556 -6.91353,2.83412c-1.67133,1.29615 -3.34383,3.10894 -5.0175,5.43839c-3.2471,4.59246 -7.77638,8.09868 -13.58784,10.51866c-1.03537,0.43095 -1.90403,0.91229 -2.60595,1.444c-0.80226,0.63148 -1.45463,1.37997 -1.95711,2.24547c-0.36856,0.66581 -0.92075,1.38119 -1.65658,2.14616c-0.43484,0.46566 -1.08702,1.13082 -1.95654,1.99548c-1.07041,1.16419 -2.2898,1.81139 -3.65816,1.94159c-1.20153,0.13058 -2.56899,-0.1392 -4.10237,-0.80936c-0.3,-0.13402 -0.66663,-0.31818 -1.09987,-0.5525c-0.23319,-0.1672 -0.58306,-0.38466 -1.0496,-0.65238l-8.5972,-5.11953c-0.83312,-0.46856 -1.68339,-0.73716 -2.55079,-0.80581c-0.80074,-0.03516 -1.70197,0.09611 -2.70367,0.39381c-4.4412,1.45647 -8.38469,4.14739 -11.83048,8.07274z" fill="#2c2d41"/><path d="M661.83484,506.87434c0.17063,-1.66623 0.8247,-3.1647 1.96222,-4.4954c3.44579,-3.92536 7.38928,-6.61627 11.83048,-8.07274c1.0017,-0.2977 1.90293,-0.42897 2.70367,-0.39381c0.8674,0.06865 1.71766,0.33725 2.55079,0.80581l8.5972,5.11953c0.46654,0.26773 0.8164,0.48519 1.0496,0.65238c0.43325,0.23432 0.79987,0.41849 1.09987,0.5525c1.53339,0.67016 2.90084,0.93994 4.10237,0.80936c1.36837,-0.1302 2.58776,-0.7774 3.65816,-1.94159c0.86952,-0.86466 1.5217,-1.52982 1.95654,-1.99548c0.73583,-0.76496 1.28802,-1.48035 1.65658,-2.14616c0.50248,-0.8655 1.15485,-1.61399 1.95711,-2.24547c0.70193,-0.53171 1.57058,-1.01305 2.60595,-1.444c5.81146,-2.41998 10.34074,-5.92621 13.58784,-10.51866c1.67368,-2.32945 3.34618,-4.14224 5.0175,-5.43839c2.07227,-1.52856 4.37678,-2.47326 6.91353,-2.83412c0.19907,0.50044 0.11463,0.95024 -0.25332,1.34939c-0.20066,0.19954 -0.51837,0.51547 -0.95313,0.9478c-0.53608,0.96542 -1.08853,1.79747 -1.65737,2.49615c-0.40155,0.49907 -0.65294,0.99848 -0.75418,1.49824c-0.06787,0.49983 -0.00243,1.06663 0.19634,1.70041c1.0601,3.36901 2.10485,6.15466 3.13424,8.35695c1.39476,2.93645 2.99064,5.47337 4.78763,7.61075c1.79699,2.13739 3.72862,3.75843 5.7949,4.86313c2.23296,1.17174 4.7174,1.81074 7.4533,1.91699c2.83608,0.07315 5.38933,-0.20434 7.65975,-0.83246c2.50407,-0.66092 4.77563,-1.78904 6.81468,-3.38433c1.9388,-1.52886 3.36059,-3.14224 4.26537,-4.84012c0.40223,-0.79906 1.32366,-2.48024 2.76429,-5.04355c1.17256,-2.06393 2.07731,-3.74516 2.71424,-5.04367c0.60342,-1.23192 1.30622,-2.14696 2.1084,-2.74511c0.86914,-0.69799 1.93773,-1.06221 3.20577,-1.09264c0.63406,-0.03188 1.36848,-0.1802 2.20327,-0.44495c0.93497,-0.29785 1.63622,-0.52958 2.10374,-0.69517c0.76798,-0.23157 1.18613,-0.69727 1.25446,-1.3971c0.03435,-0.43324 -0.04816,-0.83342 -0.24753,-1.20054c-0.23281,-0.33386 -0.53251,-0.6012 -0.8991,-0.80204c-0.69988,-0.36826 -1.35024,-0.50307 -1.95108,-0.40445c-0.86778,0.09801 -2.18613,0.245 -3.95506,0.44095c-1.53536,0.19648 -2.83725,0.4435 -3.90569,0.74105c-1.03507,0.29763 -1.98745,0.9121 -2.85712,1.84342c-0.70238,0.73171 -1.37197,1.71349 -2.00875,2.94533c-0.402,0.69906 -0.82114,1.59808 -1.25742,2.69706c-0.23494,0.59945 -0.60406,1.51525 -1.10738,2.7474c-0.93944,2.26446 -2.09501,4.1951 -3.46671,5.79193c-1.47211,1.72992 -3.21036,3.10925 -5.21475,4.13797c-3.17354,1.5927 -6.34447,2.03544 -9.51278,1.32822c-3.06813,-0.74033 -5.73362,-2.46305 -7.99647,-5.16815c-1.16468,-1.40263 -2.29523,-3.1385 -3.39165,-5.20762c-0.53161,-1.00119 -1.41156,-2.88649 -2.63986,-5.65589c-0.5313,-1.13452 -0.49581,-2.06775 0.10647,-2.79969c0.06689,-0.06651 0.53562,-0.76542 1.40621,-2.09673c0.56914,-0.83201 1.1544,-1.41399 1.75577,-1.74594c1.57039,-0.92972 3.02498,-2.29303 4.36377,-4.08992c0.26777,-0.36605 1.35597,-2.01352 3.26458,-4.94241c1.40643,-2.19673 2.71185,-3.9937 3.91626,-5.39091c1.5057,-1.82984 3.12755,-3.3761 4.86553,-4.63876c1.53755,-1.16312 3.32639,-2.77566 5.3665,-4.83761c2.20763,-2.36156 3.89666,-4.10765 5.0671,-5.23828c1.63879,-1.66288 2.70901,-2.74374 3.21066,-3.24258c0.76919,-0.76489 1.4042,-1.21343 1.90501,-1.34561c0.50074,-0.09885 1.2512,0.03619 2.25139,0.40514c1.56683,0.6369 3.03367,1.22357 4.40052,1.76002c2.60023,1.07259 4.7169,2.0274 6.35001,2.86445c1.73306,0.90394 2.56421,2.23914 2.49346,4.0056c-0.03564,0.99989 0.09597,1.81684 0.39484,2.45084c1.22921,2.36942 2.17355,5.28817 2.83302,8.75626c0.36249,2.00078 0.83943,5.03513 1.43079,9.10304c0.32905,2.03403 0.64256,3.56805 0.94051,4.60203c0.42999,1.66761 0.9939,3.13553 1.69173,4.40376c0.86384,1.63527 1.37732,3.26973 1.54044,4.9034c0.12968,1.66692 -0.10779,3.383 -0.71242,5.14824c-0.60463,1.76524 -1.2937,3.98027 -2.06721,6.6451c-0.43711,1.46563 -1.07613,3.68078 -1.91706,6.64545c0.36644,0.2675 0.7,0.31826 1.00068,0.15228c0.1337,-0.09969 0.31775,-0.3326 0.55215,-0.69872c2.54449,-3.76075 4.53682,-6.82279 5.977,-9.1861c1.54036,-2.39642 2.36362,-4.9278 2.46978,-7.59416c0.13931,-2.56628 -0.38874,-5.13409 -1.58413,-7.70343c-0.83009,-1.80185 -1.54287,-3.83676 -2.13833,-6.10473c-0.42999,-1.66761 -0.87571,-3.75191 -1.33717,-6.2529c-0.72484,-4.06822 -1.71711,-7.92039 -2.97681,-11.55651c-0.33178,-0.83407 -0.56391,-1.46792 -0.6964,-1.90154c-0.26527,-0.73392 -0.3973,-1.36754 -0.39609,-1.90086c-0.02844,-2.16668 -0.72472,-4.11822 -2.08885,-5.85463c-0.89834,-1.13536 -2.41342,-2.52212 -4.54522,-4.16029c-1.26584,-0.9362 -2.76578,-1.63962 -4.49983,-2.11024c-1.76749,-0.43736 -3.33454,-0.97427 -4.70117,-1.61071c-1.20009,-0.50273 -2.35062,-0.78869 -3.45159,-0.85787c-1.23444,-0.06949 -2.3361,0.16132 -3.30497,0.69243c-0.83532,0.49808 -1.56978,0.66306 -2.20339,0.49495c-0.53358,-0.13455 -1.04986,-0.53572 -1.54886,-1.20351c-0.53214,-0.76786 -1.59705,-2.02027 -3.19475,-3.75721c-1.43124,-1.5699 -2.47935,-2.87226 -3.14435,-3.90709c-0.89766,-1.43535 -2.02973,-2.50458 -3.3962,-3.20768c-1.36655,-0.66977 -2.91749,-0.95665 -4.65282,-0.86062c-0.93444,0.06453 -2.01892,0.07872 -3.25344,0.04256c-0.73408,-0.00168 -1.81849,-0.02082 -3.25321,-0.05744c-1.56819,-0.03692 -2.93542,-0.4067 -4.10169,-1.10935c-1.13282,-0.7359 -2.04804,-1.78797 -2.74565,-3.1562c-0.4651,-0.90104 -0.97972,-2.03552 -1.54385,-3.40344c-0.63049,-1.53474 -1.11171,-2.68581 -1.44364,-3.45321c1.00117,-0.06438 1.75209,-0.12932 2.25275,-0.19484c0.90107,-0.0646 1.65195,-0.11289 2.25264,-0.14485c7.70825,-0.14904 12.86386,-0.28725 15.46682,-0.41462c5.80661,-0.28672 10.94629,-0.75829 15.41904,-1.41471c0.53403,-0.06544 1.20145,-0.09725 2.00227,-0.09542c5.20547,-0.05476 9.12625,-0.0958 11.76235,-0.1231c4.57141,-0.02288 8.47544,-0.03062 11.71208,-0.02322c1.80176,0.03745 3.30273,0.29088 4.5029,0.76028c1.50025,0.57008 2.73264,1.53954 3.69719,2.90838c0.43234,0.63431 1.13146,1.33589 2.09737,2.10474c1.33212,1.13635 2.09809,1.78809 2.29792,1.9552c2.03109,1.9046 3.54605,3.34136 4.54488,4.31028c1.73132,1.67058 3.1627,3.17382 4.29417,4.5097c2.22986,2.53837 5.15899,5.71165 8.7874,9.51985c0.8988,0.93536 2.01403,2.07122 3.34569,3.40756c0.73242,0.73499 1.84769,1.85418 3.34581,3.35757c4.36128,4.3432 6.4185,9.4311 6.17167,15.26373l-0.15754,3.24956c-0.06969,1.29981 -0.1222,2.38299 -0.15754,3.24956c-0.06855,0.79982 0.2975,1.23398 1.09817,1.30248c0.3336,0.0341 1.00087,0.06895 2.00182,0.10457c0.83411,0.03524 1.48466,0.08673 1.95165,0.15446c1.3008,0.2363 2.26709,0.8385 2.89887,1.80658c0.66523,0.93483 0.86289,2.05192 0.593,3.35127c-0.10078,0.29976 -0.23513,0.68278 -0.40302,1.14905c-0.13408,0.26635 -0.31847,0.64926 -0.55318,1.14871c-2.01341,4.99527 -4.69622,10.88899 -8.04842,17.68115c-1.91081,3.89553 -4.79367,9.72213 -8.64858,17.47978c-0.26815,0.53271 -0.63667,1.18185 -1.10556,1.94742c-0.26785,0.39938 -0.6697,1.03178 -1.20555,1.8972c-0.53585,0.86542 -1.15459,1.49732 -1.85621,1.89571c-0.73507,0.43164 -1.61965,0.57962 -2.65373,0.44392c-0.73393,-0.06834 -1.36791,-0.06979 -1.90194,-0.00435c-0.66758,0.09847 -1.30212,0.34701 -1.90365,0.74563c-3.5424,2.39184 -7.63533,4.76575 -12.27878,7.12174c-3.20706,1.65929 -7.49943,3.69943 -12.87712,6.1204c-2.60531,1.16068 -4.34216,1.92336 -5.21055,2.28803c-2.00379,0.76207 -3.85682,1.25782 -5.55908,1.48725c-0.13301,-0.2003 -0.24946,-0.35056 -0.34933,-0.45079c-0.13309,-0.16697 -0.18288,-0.28374 -0.14936,-0.35033c0.33534,-0.73255 0.68691,-1.26506 1.05471,-1.59755c1.37087,-1.23017 2.57547,-2.71071 3.6138,-4.44162c0.87081,-1.43131 1.65885,-3.14613 2.36411,-5.14446c-0.16608,-0.3337 -0.36594,-0.48416 -0.59959,-0.45136c-0.20028,0.03287 -0.3841,0.16578 -0.55147,0.39873c-1.4053,1.69674 -3.29397,3.19239 -5.66601,4.48693c-1.10256,0.6308 -3.2738,1.65914 -6.51369,3.08503c-1.56986,0.69639 -3.94122,1.69095 -7.11408,2.98366c-2.87233,1.1934 -5.22715,2.25466 -7.06448,3.18377c-3.34061,1.69232 -6.87922,2.41754 -10.61584,2.17567c-1.73488,-0.10396 -3.13521,-0.59049 -4.201,-1.45957c-2.39844,-1.77211 -4.1638,-3.14277 -5.2961,-4.11201c-1.96489,-1.67112 -3.44591,-3.35779 -4.44307,-5.06003c-0.69791,-1.2349 -1.98025,-2.25447 -3.847,-3.05872c-0.73333,-0.335 -1.36708,-0.43645 -1.90126,-0.30434c-0.53418,0.13211 -1.05232,0.54758 -1.55443,1.24641c-1.40621,2.09673 -3.31171,3.659 -5.71651,4.68681c-1.8371,0.82911 -4.2242,1.40697 -7.16129,1.73358c-0.93459,0.13119 -2.08588,0.17856 -3.45387,0.1421c-0.80082,-0.00183 -1.98529,-0.03787 -3.5534,-0.10812c-2.13551,-0.00488 -3.91897,-0.75894 -5.35035,-2.26218c-0.93217,-0.93544 -1.63125,-1.65369 -2.09726,-2.15474c-0.79892,-0.83514 -1.4312,-1.58657 -1.89683,-2.25428c-1.86274,-2.57086 -4.06093,-4.35918 -6.59458,-5.36494c-2.50028,-1.00569 -5.25264,-1.21198 -8.25707,-0.61886c-1.86933,0.32905 -4.73984,0.72248 -8.61152,1.18028c-3.80487,0.42462 -6.67541,0.83472 -8.61163,1.23028c-0.80112,0.1315 -1.51829,0.02986 -2.15152,-0.30491c-0.66651,-0.36818 -1.16574,-0.93598 -1.49767,-1.70338c-0.96227,-2.36881 -1.64165,-4.42031 -2.03811,-6.1545c-0.49536,-2.26774 -0.65731,-4.41806 -0.48585,-6.45095M670.30918,433.94557c-0.69988,-0.36826 -1.19975,-0.65273 -1.4996,-0.85341c-3.43101,-2.57445 -6.01073,-5.33028 -7.73917,-8.26749c-1.96117,-3.3044 -2.95386,-6.97324 -2.97806,-11.00653c0.00273,-1.19996 0.23869,-2.2494 0.70788,-3.1483c0.46919,-0.8989 1.18833,-1.66391 2.15743,-2.29501c2.57308,-1.66074 5.06092,-2.5217 7.46353,-2.58287c2.66954,-0.06056 5.1236,-0.73827 7.36217,-2.03311c1.93796,-1.16221 3.82709,-2.85784 5.66737,-5.08691c3.21221,-3.92589 7.25812,-7.63321 12.13772,-11.12197c1.73791,-1.22933 3.47468,-1.95867 5.21032,-2.18803c1.80245,-0.26254 3.67034,0.04172 5.60368,0.91279c3.20009,1.40728 6.78413,2.71544 10.75212,3.92449c1.26705,0.40289 3.15087,1.04051 5.65146,1.91287c2.50051,0.90569 4.38429,1.55999 5.65134,1.96287c0.46684,0.1344 1.00019,0.36894 1.60004,0.70364c0.29993,0.16735 0.79976,0.46848 1.49949,0.90341c0.63315,0.36811 0.91514,1.0854 0.84598,2.15188c-1.77075,0.99593 -2.9915,2.2431 -3.66226,3.74153c-0.7042,1.53168 -0.80817,3.2314 -0.3119,5.09916c0.92595,3.66869 1.88663,6.73748 2.88205,9.20636c1.26053,3.26947 2.77223,6.13952 4.5351,8.61015c1.23065,1.7361 2.47898,3.03892 3.74497,3.90846c1.49934,0.97007 3.21651,1.52398 5.15151,1.66174c0.66727,0.03486 2.13502,0.22154 4.40325,0.56005c1.83453,0.30419 3.33579,0.42428 4.5038,0.36029c1.36822,-0.06354 2.48474,0.50567 3.34956,1.70762c0.76518,1.00172 1.74667,2.25394 2.94449,3.75664c1.69696,2.10383 2.67854,3.32271 2.94472,3.65664c0.66538,0.86817 1.01426,1.51895 1.04664,1.95234c0.03231,0.46673 -0.25283,1.13273 -0.85542,1.99799c-1.97519,2.86208 -4.06551,4.99058 -6.27094,6.3855c-4.51112,2.85628 -8.35762,6.91405 -11.53949,12.17331c-0.66985,1.09844 -1.50612,2.01317 -2.50881,2.74419c-0.90236,0.63125 -2.0047,1.16205 -3.30701,1.5924c-2.17047,0.69502 -4.79179,1.55567 -7.86394,2.58195c-1.73647,0.59601 -4.35782,1.47333 -7.86405,2.63195c-0.39995,-0.20091 -0.66564,-0.7515 -0.79707,-1.65178c-0.09813,-0.86687 -0.36382,-1.41746 -0.79707,-1.65178c-0.04011,2.9665 -0.91392,5.71443 -2.62141,8.2438c-1.3058,1.96363 -3.29582,4.00903 -5.97007,6.13619c-0.36772,0.29915 -0.86895,0.61466 -1.50369,0.94654c-0.80173,0.39816 -1.31957,0.6803 -1.55352,0.84643c-0.96902,0.59777 -2.42259,1.51109 -4.3607,2.73996c-1.60421,1.12964 -2.89155,2.31 -3.86201,3.54108c-1.13783,1.46403 -2.57463,2.34405 -4.31042,2.64008c-1.63569,0.29625 -3.38691,0.04225 -5.25366,-0.76199c-1.0334,-0.43569 -1.91662,-0.88769 -2.64964,-1.35602c-0.83397,-0.4963 -1.56677,-1.06462 -2.19838,-1.70498c-2.64152,-3.32223 -4.45334,-6.2763 -5.43545,-8.8622c-0.98621,-2.56052 -1.79712,-5.4623 -2.43272,-8.70534c-0.66091,-3.23463 -0.95534,-5.81857 -0.8833,-7.75182c0.02949,-1.90731 3.90523,-4.14839 11.62721,-6.72324c1.66966,-0.56283 3.60713,-1.50838 5.81241,-2.83664c4.0086,-2.31864 6.75018,-4.71231 8.22475,-7.18101c0.85493,1.94006 1.9015,3.92573 3.13969,5.95703c0.03466,-0.56657 0.06901,-0.99982 0.10306,-1.29973c0.0345,-0.49991 0.13544,-0.86634 0.30281,-1.09928c0.66962,-0.99844 1.27293,-2.18037 1.80991,-3.54577c0.20134,-0.49953 0.63796,-1.7485 1.30985,-3.74691c0.43673,-1.29897 1.05615,-2.23086 1.85826,-2.79568c0.83555,-0.59807 1.95393,-0.84551 3.35513,-0.74231c2.73567,0.20625 5.62241,0.01286 8.66021,-0.58018c2.47025,-0.46101 5.27489,-1.23791 8.41393,-2.3307c1.03522,-0.36429 1.71986,-0.62938 2.05391,-0.79528c0.73499,-0.39831 1.30334,-0.88033 1.70503,-1.44606c0.06696,-0.09984 0.10067,-0.24976 0.10113,-0.44976c0.03375,-0.16659 0.0174,-0.31662 -0.04903,-0.4501c-0.09942,-0.30022 -0.31582,-0.51738 -0.64919,-0.65147c-0.36666,-0.1675 -0.68358,-0.20156 -0.95074,-0.10217c-1.20221,0.43057 -2.75452,0.74368 -4.65691,0.93933c-2.73673,0.2604 -4.30538,0.42348 -4.70594,0.48923c-4.53986,0.82293 -8.66066,0.78018 -12.3624,-0.12826c-1.00049,-0.23562 -1.90149,-0.20434 -2.70299,0.09382c-0.66795,0.26513 -1.3532,0.79689 -2.05573,1.59526c-0.53517,0.56543 -1.05407,1.31422 -1.5567,2.24638c-0.26823,0.56604 -0.68718,1.38173 -1.25685,2.44706c-0.93793,1.59781 -2.19019,2.02827 -3.75679,1.29138c-0.66636,-0.43485 -1.1318,-1.18589 -1.39632,-2.25314c-0.33072,-1.30072 -0.59584,-2.10131 -0.79536,-2.40176c-0.40003,-0.16758 -0.78368,-0.20179 -1.15095,-0.10263c-0.20036,0.06621 -0.48436,0.23222 -0.85201,0.49804c-0.90228,0.59792 -1.97095,0.99547 -3.206,1.19264c-0.26702,0.03272 -1.41842,0.13009 -3.45421,0.29209c-3.47082,0.25872 -6.69013,-0.03196 -9.65793,-0.87206c-3.06783,-0.87366 -5.91737,-2.36347 -8.54862,-4.46943c-0.29978,-0.23401 -0.79961,-0.53515 -1.49949,-0.90341z" fill="#000000"/><path d="M552.75277,401.75528c1.57385,0.43879 2.93828,1.05214 4.09328,1.84005c3.67219,2.45563 7.20037,5.05 10.58455,7.78311c8.35412,6.73698 14.81439,15.49486 19.38081,26.27363c0.05828,1.06326 0.11748,2.14314 0.17759,3.23964c0.00546,0.09968 0.01002,0.18275 0.01366,0.2492c-2.84535,4.63811 -6.08147,8.90836 -9.70835,12.81075c-0.06542,0.03582 -0.13175,0.05502 -0.19899,0.05762c2.2225,6.74026 3.3674,14.10477 3.43471,22.09351c0.03855,3.16175 -0.82028,5.62556 -2.5765,7.39141c-3.80045,3.80919 -9.32346,6.00328 -16.56903,6.58225c-2.54785,0.2314 -4.75138,-0.01663 -6.61058,-0.74409c-1.87598,3.26885 -4.2286,6.13986 -7.05786,8.61302c-0.0318,0.03452 -0.04588,0.08501 -0.04223,0.15147c0.28247,6.38218 0.05923,12.45089 -0.66972,18.20611c-0.24779,2.24047 -1.10943,4.03843 -2.58493,5.3939c-4.84169,4.48198 -11.22327,7.60819 -19.14473,9.37862c-3.09389,0.71861 -6.2773,1.34078 -9.55022,1.86651c-7.28185,1.14643 -14.41661,1.28827 -21.4043,0.42552c-5.49565,-0.68718 -10.37031,-2.03095 -14.62399,-4.0313c-3.80568,-1.81784 -6.54064,-4.69251 -8.20488,-8.62403c-0.34994,-0.85224 -0.51538,-1.41191 -0.49633,-1.67903c0.06724,-0.00259 0.13357,-0.0218 0.19899,-0.05762c1.84714,-1.3365 3.72972,-2.64106 5.64774,-3.9137c0.00546,0.09968 -0.00679,0.1834 -0.03677,0.25115c-0.17971,1.63849 0.00311,3.12982 0.54847,4.47399c5.16635,5.12841 12.63447,7.68744 22.40437,7.67711c11.62447,0.01807 21.58136,-1.49786 29.87068,-4.54776c0.82593,-0.29822 1.57237,-0.51012 2.23931,-0.63572c3.471,-0.59996 5.79744,-2.10477 6.97931,-4.51443c1.27909,-2.48 2.14877,-5.36044 2.60906,-8.64132c0.4848,-3.4483 0.30175,-6.78762 -0.54915,-10.01795c-1.80904,0.80227 -3.43814,1.81404 -4.8873,3.03531c-2.28686,1.9195 -5.09175,2.99324 -8.41469,3.22123c3.48261,-2.23197 6.82346,-4.59167 10.02254,-7.07909c1.87347,-1.4707 3.60609,-3.05251 5.19785,-4.74544c1.46457,-1.55483 2.93004,-3.09305 4.39643,-4.61465c3.95034,-4.14795 4.79969,-9.85787 2.54805,-17.12976c-0.10086,0.00389 -0.18491,0.00713 -0.25215,0.00972c-3.17123,-0.07754 -5.95855,-0.21982 -8.36198,-0.42685c0.06724,-0.00259 0.15129,-0.00583 0.25215,-0.00972c5.04106,-1.45962 9.47961,-3.46206 13.31565,-6.00733c-0.00364,-0.06645 0.00952,-0.13356 0.0395,-0.20131c2.37998,-5.75227 3.59039,-12.55827 3.63122,-20.41799c-0.00364,-0.06645 -0.0082,-0.14952 -0.01366,-0.2492c-0.04371,-0.79745 0.26517,-1.30881 0.92664,-1.5341c0.00546,0.09968 0.01002,0.18275 0.01366,0.2492c1.58592,2.50275 2.64988,5.62498 3.1919,9.36667c0.36284,2.31682 0.4467,4.46126 0.25158,6.43332c-0.28771,2.74146 -0.26016,5.08786 0.08264,7.03918c0.00546,0.09968 -0.00679,0.1834 -0.03677,0.25115c-0.65305,2.22279 -2.15579,3.69585 -4.50822,4.41918c0.00546,0.09968 -0.0077,0.16678 -0.0395,0.20131c-0.50878,0.55237 -0.96349,1.16925 -1.36412,1.85063c0.00546,0.09968 0.01002,0.18275 0.01366,0.2492c0.54468,3.17554 0.79265,6.16273 0.74393,8.96158c0.00546,0.09968 0.02592,0.16549 0.06136,0.19742c1.19955,0.98597 2.65349,1.69577 4.36182,2.12937c1.72275,-0.53257 3.44186,-1.13159 5.15732,-1.79707c4.98376,-1.89027 7.32985,-6.10957 7.03828,-12.65788c-0.07566,-1.99492 -0.45979,-3.77816 -1.15238,-5.34973c-1.85055,-4.25731 -2.53217,-9.00919 -2.04487,-14.25564c0.65503,-0.95757 1.41546,-1.83597 2.28132,-2.63518c2.40677,-2.1905 4.76037,-4.4289 7.06081,-6.71519c-0.00364,-0.06645 -0.0082,-0.14952 -0.01366,-0.2492c-0.07369,-0.7297 -0.11467,-1.47731 -0.12294,-2.24282c-5.17242,-10.15606 -11.98157,-18.51757 -20.42744,-25.08453c-3.02612,-2.34735 -5.98864,-4.76374 -8.88757,-7.24918c0.4914,-1.48402 1.07323,-2.85499 1.74548,-4.1129c0.0318,-0.03452 0.04497,-0.10163 0.0395,-0.20131z" fill-opacity="0.99608" fill="#2b2c3f"/><path d="M450.12371,377.99144c-0.00364,-0.06645 0.00861,-0.15017 0.03677,-0.25115c0.27974,-1.043 0.37183,-2.12871 0.27629,-3.25713c1.08002,-3.03838 1.98557,-6.18658 2.71664,-9.4446c1.26869,-5.74273 3.51385,-10.57414 6.73547,-14.49421c6.7349,-8.05117 15.96752,-13.86781 27.69785,-17.44993c2.17256,-0.31683 4.43282,-0.57044 6.78077,-0.76084c7.44547,-0.61998 13.87429,-0.11861 19.28646,1.50412c11.37137,3.39084 20.39053,9.353 27.05749,17.88648c6.66514,8.50025 11.04168,19.50277 13.12962,33.00756c0.1725,6.21993 -0.2407,11.89639 -1.23959,17.02938l0.15129,-0.00583c0.00546,0.09968 -0.0077,0.16678 -0.0395,0.20131c-0.67225,1.25791 -1.25408,2.62888 -1.74548,4.1129c2.89892,2.48544 5.86145,4.90183 8.88757,7.24918c8.44588,6.56696 15.25502,14.92847 20.42744,25.08453c0.00827,0.76552 0.04925,1.51313 0.12294,2.24282c0.00546,0.09968 0.01002,0.18275 0.01366,0.2492c-2.30044,2.28629 -4.65405,4.52469 -7.06081,6.71519c-0.86585,0.79921 -1.62629,1.67761 -2.28132,2.63518c-0.48731,5.24645 0.19432,9.99833 2.04487,14.25564c0.69259,1.57157 1.07672,3.35481 1.15238,5.34973c0.29157,6.54832 -2.05452,10.76761 -7.03828,12.65788c-1.71547,0.66548 -3.43457,1.2645 -5.15732,1.79707c-1.70833,-0.43361 -3.16227,-1.1434 -4.36182,-2.12937c-0.03544,-0.03193 -0.05589,-0.09774 -0.06136,-0.19742c0.04872,-2.79885 -0.19925,-5.78604 -0.74393,-8.96158c-0.00364,-0.06645 -0.0082,-0.14952 -0.01366,-0.2492c0.40063,-0.68139 0.85534,-1.29827 1.36412,-1.85063c0.0318,-0.03452 0.04497,-0.10163 0.0395,-0.20131c2.35243,-0.72333 3.85517,-2.19639 4.50822,-4.41918c0.02998,-0.06775 0.04223,-0.15147 0.03677,-0.25115c-0.3428,-1.95132 -0.37035,-4.29772 -0.08264,-7.03918c0.19512,-1.97206 0.11126,-4.1165 -0.25158,-6.43332c-0.54202,-3.74169 -1.60599,-6.86392 -3.1919,-9.36667c-0.00364,-0.06645 -0.0082,-0.14952 -0.01366,-0.2492c-0.66148,0.22528 -0.97036,0.73665 -0.92664,1.5341c0.00546,0.09968 0.01002,0.18275 0.01366,0.2492c-0.04083,7.85972 -1.25124,14.66572 -3.63122,20.41799c-0.02998,0.06775 -0.04314,0.13485 -0.0395,0.20131c-3.83604,2.54527 -8.27459,4.54772 -13.31565,6.00733c-0.10086,0.00389 -0.18491,0.00713 -0.25215,0.00972c2.40343,0.20703 5.19075,0.34931 8.36198,0.42685c0.06724,-0.00259 0.15129,-0.00583 0.25215,-0.00972c2.25164,7.27189 1.40229,12.98181 -2.54805,17.12976c-1.46639,1.5216 -2.93187,3.05982 -4.39643,4.61465c-1.59176,1.69292 -3.32438,3.27474 -5.19785,4.74544c-3.19908,2.48742 -6.53993,4.84712 -10.02254,7.07909c3.32294,-0.22798 6.12783,-1.30173 8.41469,-3.22123c1.44916,-1.22127 3.07826,-2.23303 4.8873,-3.03531c0.8509,3.23033 1.03395,6.56965 0.54915,10.01795c-0.46029,3.28087 -1.32997,6.16131 -2.60906,8.64132c-1.18187,2.40966 -3.5083,3.91447 -6.97931,4.51443c-0.66694,0.1256 -1.41338,0.33751 -2.23931,0.63572c-8.28932,3.04991 -18.24621,4.56583 -29.87068,4.54776c-9.76989,0.01034 -17.23801,-2.5487 -22.40437,-7.67711c-0.54536,-1.34416 -0.72818,-2.83549 -0.54847,-4.47399c0.02998,-0.06775 0.04223,-0.15147 0.03677,-0.25115c-1.91802,1.27264 -3.8006,2.5772 -5.64774,3.9137c-0.06542,0.03582 -0.13175,0.05502 -0.19899,0.05762c-0.00364,-0.06645 -0.0082,-0.14952 -0.01366,-0.2492c-0.84756,-5.62786 -1.08225,-11.44583 -0.70408,-17.45391c-3.57148,-3.69151 -6.77818,-7.79665 -9.62011,-12.31542c-0.03544,-0.03193 -0.08678,-0.0466 -0.15402,-0.04401c0.20529,-7.93266 1.13714,-15.21073 2.79554,-21.83421c0.02998,-0.06775 0.04223,-0.15147 0.03677,-0.25115c-5.14062,-10.19058 -10.47295,-20.19064 -15.99697,-30.00017c-1.53325,-2.77116 -2.63721,-6.00839 -3.31189,-9.71167c-0.05183,-0.33097 -0.08686,-0.6626 -0.10507,-0.99487c3.99625,-7.61263 9.4447,-13.9327 16.34535,-18.96021c0.03362,-0.0013 0.0477,-0.05178 0.04223,-0.15147c-4.24798,-7.42802 -7.49521,-15.96013 -9.74168,-25.59633c-0.00364,-0.06645 -0.0082,-0.14952 -0.01366,-0.2492c-0.65252,-0.84058 -0.80802,-1.8335 -0.46651,-2.97877c0.02998,-0.06775 0.04223,-0.15147 0.03677,-0.25115M456.65233,377.24032c0.00546,0.09968 0.01002,0.18275 0.01366,0.2492c1.29062,2.64733 2.80474,5.0696 4.54237,7.26684c0.00182,0.03323 0.05316,0.0479 0.15402,0.04401c0.33089,1.11935 0.78806,2.084 1.37152,2.89394c0.9488,1.32861 1.55943,1.40497 1.83188,0.22906c-0.00364,-0.06645 -0.0082,-0.14952 -0.01366,-0.2492c1.19781,-5.8066 2.66234,-11.35709 4.39359,-16.6515c-3.10345,-3.1435 -5.69904,-6.85598 -7.78675,-11.13744c-0.03544,-0.03193 -0.08678,-0.0466 -0.15402,-0.04401c-3.16797,4.28427 -4.61884,10.08397 -4.35261,17.39911M479.24103,343.10564c-0.06542,0.03582 -0.13175,0.05502 -0.19899,0.05762c1.4314,2.14244 2.8787,4.26762 4.3419,6.37554c0.03726,0.06516 0.05772,0.13096 0.06136,0.19742c3.87961,-2.97982 8.1836,-5.59307 12.91198,-7.83977c0.03362,-0.0013 0.0477,-0.05178 0.04223,-0.15147c-4.179,-0.63804 -8.89949,-0.70581 -14.16146,-0.2033c-0.10086,0.00389 -0.18491,0.00713 -0.25215,0.00972c-0.94949,0.50276 -1.86444,1.02084 -2.74487,1.55424M475.50941,345.09748c-0.03544,-0.03193 -0.08678,-0.0466 -0.15402,-0.04401c-4.64111,2.6096 -8.48478,5.93765 -11.53101,9.98415c-0.02998,0.06775 -0.04314,0.13485 -0.0395,0.20131c0.30357,0.62095 0.54627,1.36078 0.72811,2.2195l0.15129,-0.00583c0.00546,0.09968 0.01002,0.18275 0.01366,0.2492c0.00546,0.09968 0.02683,0.1821 0.06409,0.24726c1.32985,3.9777 3.2648,7.31608 5.80483,10.01514c-0.00364,-0.06645 0.00952,-0.13356 0.0395,-0.20131c2.62807,-5.52876 5.87637,-10.49872 9.7449,-14.90989c-2.06654,-2.05136 -3.67382,-4.63654 -4.82184,-7.75552M497.99245,338.53698c-0.0318,0.03452 0.10815,0.12902 0.41983,0.28349c1.04503,0.62566 1.92098,0.62519 2.62784,-0.00141c-0.93605,-1.09602 -1.95194,-1.19005 -3.04767,-0.28209M494.19218,347.57383c0.00546,0.09968 -0.00861,0.15017 -0.04223,0.15147c-2.66761,1.73439 -5.15892,3.61183 -7.47393,5.63231c0.00546,0.09968 0.02592,0.16549 0.06136,0.19742c2.42642,2.47035 5.21853,4.54369 8.37632,6.22002c0.06724,-0.00259 0.72856,-1.45987 1.98397,-4.37182c1.25359,-2.94518 2.3028,-5.31643 3.14763,-7.11375l0.72765,-1.47648c-0.97499,0.03758 -1.98086,0.1263 -3.01762,0.26616l0.00546,0.09968c-0.10086,0.00389 -0.18491,0.00713 -0.25215,0.00972c-1.16942,0.17827 -2.34157,0.30669 -3.51646,0.38528M483.43652,356.02972c-0.03544,-0.03193 -0.08678,-0.0466 -0.15402,-0.04401c-4.19661,3.95765 -7.45401,8.76148 -9.77222,14.41148c-0.02998,0.06775 -0.04314,0.13485 -0.0395,0.20131c4.21239,6.1641 10.0138,10.58543 17.40425,13.264c0.06906,0.03064 0.15402,0.04401 0.25488,0.04012c0.77881,-6.68947 1.65848,-13.38283 2.63901,-20.08007c0.02998,-0.06775 0.04223,-0.15147 0.03677,-0.25115c-3.94745,-1.94556 -7.40384,-4.45946 -10.36917,-7.54168M499.22382,365.61012c-1.0464,3.03709 -1.75884,6.32768 -2.13732,9.87178c-0.37301,3.64378 -0.8001,7.22305 -1.28125,10.7378c6.28462,2.78779 13.9284,3.94157 22.93133,3.46134c1.31119,-0.05054 2.58329,-0.19947 3.81631,-0.44678c1.3993,-0.28702 1.91529,-1.32248 1.54797,-3.10637c-1.14946,-7.44757 -2.93489,-14.20468 -5.3563,-20.27133c-0.03726,-0.06516 -0.05863,-0.14758 -0.06409,-0.24726c-6.78931,1.52701 -13.1899,1.54065 -19.20176,0.04094c-0.10268,-0.02934 -0.18764,-0.04271 -0.25488,-0.04012M499.79848,361.34257c-0.02816,0.10098 -0.04041,0.18469 -0.03677,0.25115c2.36897,0.80771 5.00186,1.20567 7.89866,1.1939c3.19938,-0.02344 6.00618,-0.44796 8.42038,-1.27356c0.06542,-0.03582 0.09358,-0.1368 0.08447,-0.30293c-3.21638,-5.20357 -6.91065,-9.90592 -11.08282,-14.10703c-0.03544,-0.03193 -0.05589,-0.09774 -0.06136,-0.19742c-2.00484,4.60571 -3.7457,9.41767 -5.22256,14.43589M472.37144,375.43568c-0.03544,-0.03193 -0.08678,-0.0466 -0.15402,-0.04401c-1.83773,3.96662 -2.9321,8.58717 -3.2831,13.86167c0.00546,0.09968 0.01002,0.18275 0.01366,0.2492l-0.15129,0.00583c-0.00615,1.73169 -0.12135,3.31775 -0.34562,4.75818c6.40233,6.77892 13.88764,12.41729 22.45593,16.9151c1.2504,0.68434 2.07318,0.63597 2.46835,-0.1451c-0.89628,-2.82901 -1.69444,-5.71175 -2.39447,-8.64822l0.15129,-0.00583l0.10086,-0.00389c-0.40025,-3.61397 -0.55473,-7.35396 -0.46343,-11.21995l0.10086,-0.00389c0.1017,-0.60327 0.12025,-1.18669 0.05567,-1.75025c-0.34531,-0.15318 -0.68971,-0.28974 -1.03319,-0.40969c-0.10268,-0.02934 -0.18764,-0.04271 -0.25488,-0.04012c-0.00364,-0.06645 -0.0082,-0.14952 -0.01366,-0.2492c-6.97524,-3.09414 -12.72623,-7.51742 -17.25296,-13.26983M463.55831,397.20218c0.0699,-0.56875 0.21068,-1.07363 0.42234,-1.51466c-1.34496,-1.18015 -2.54773,-2.53227 -3.60833,-4.05636c-0.03544,-0.03193 -0.08678,-0.0466 -0.15402,-0.04401c0.92808,2.79449 2.03189,4.79972 3.31143,6.01569l0.02857,-0.40067M469.07206,400.98531c-0.49057,0.88464 -0.47634,2.06614 0.04269,3.54451c0.40906,1.31612 0.69498,2.5371 0.85777,3.66293c6.22178,9.0168 15.2773,15.0275 27.16655,18.03211c0.78419,0.16955 1.45204,0.06057 2.00355,-0.32696c0.0636,-0.06905 0.09084,-0.18664 0.08174,-0.35277c-1.5041,-2.23953 -2.72111,-4.77315 -3.65101,-7.60087c-0.03726,-0.06516 -0.05863,-0.14758 -0.06409,-0.24726c-4.90703,-2.24154 -9.65507,-4.6557 -14.24411,-7.24248c-4.58904,-2.58677 -8.6534,-5.74318 -12.19308,-9.46921M496.56785,391.83418c-0.06724,0.00259 -0.13266,0.03841 -0.19626,0.10746c-0.48594,1.5837 -0.51478,3.51605 -0.08652,5.79706c0.34462,1.98455 0.75103,3.86683 1.2192,5.64683c0.00546,0.09968 0.01002,0.18275 0.01366,0.2492c0.44116,3.74558 1.2162,7.12867 2.32514,10.14927c2.4117,0.97255 4.86878,1.54378 7.37125,1.71369c5.44382,0.35621 10.74215,-0.09776 15.89499,-1.3619c-0.00364,-0.06645 0.00861,-0.15017 0.03677,-0.25115c1.29153,-4.7114 1.99646,-9.98289 2.11478,-15.81447c-0.42811,-1.04901 -0.58816,-2.125 -0.48017,-3.22797c0.02998,-0.06775 0.04223,-0.15147 0.03677,-0.25115c-0.00364,-0.06645 -0.0082,-0.14952 -0.01366,-0.2492c0.07354,-0.50229 0.13027,-1.00394 0.17019,-1.50494c-5.77425,2.22042 -11.95308,2.59179 -18.53649,1.11411c-3.20765,-0.74208 -6.49754,-1.44769 -9.86965,-2.11684M502.49287,426.16832c0.03908,0.09839 0.06045,0.1808 0.06409,0.24726c6.08442,0.36481 11.50175,-0.37677 16.25199,-2.22474c0.03362,-0.0013 0.0477,-0.05178 0.04223,-0.15147c1.00117,-1.40378 1.73835,-3.01382 2.21154,-4.83011c0.02998,-0.06775 0.04223,-0.15147 0.03677,-0.25115c-7.19457,1.50933 -13.94047,1.3698 -20.23769,-0.41859c-0.10268,-0.02934 -0.18764,-0.04271 -0.25488,-0.04012c0.39016,2.81523 1.01881,5.37153 1.88595,7.66891M466.87281,417.10271c-0.06906,-0.03064 -0.13721,-0.04466 -0.20445,-0.04206c1.99163,6.21641 5.14301,11.15611 9.45414,14.81911c0.03544,0.03193 0.10359,0.04595 0.20445,0.04206c0.00546,0.09968 0.02683,0.1821 0.06409,0.24726c0.18449,0.29256 0.4335,0.53269 0.74701,0.72039c0.00546,0.09968 0.02501,0.14887 0.05863,0.14758c1.50213,0.97431 2.97064,1.94992 4.40553,2.92682c0.00546,0.09968 0.02501,0.14887 0.05863,0.14758c1.77838,1.09685 3.50815,2.22887 5.18931,3.39607c0.06724,-0.00259 0.13539,0.01143 0.20445,0.04206c4.35651,3.26168 10.27207,4.84835 17.74668,4.76001c1.95544,0.02451 3.62916,-0.17319 5.02117,-0.59312c1.55829,-0.45964 3.0698,-0.85087 4.53452,-1.17371c8.65382,-1.93185 14.99078,-5.87212 19.01086,-11.82081c-1.49302,-0.80818 -2.90822,-0.50389 -4.24559,0.91285c-0.28801,0.27748 -0.61055,0.53964 -0.96762,0.78649c-1.0058,0.70472 -2.06658,1.32831 -3.18235,1.87078c-4.59587,0.97629 -9.28399,1.80631 -14.06436,2.49004c-1.90542,0.27323 -3.81631,0.44678 -5.73266,0.52066c-4.9531,-0.00885 -9.22161,-0.74334 -12.80554,-2.20345c-0.06906,-0.03064 -0.13721,-0.04466 -0.20445,-0.04206c-0.8978,-0.39826 -1.83966,-0.67827 -2.82558,-0.84005c-0.10268,-0.02934 -0.18764,-0.04271 -0.25488,-0.04012c-0.00364,-0.06645 -0.0082,-0.14952 -0.01366,-0.2492c-0.5207,-0.2796 -1.02367,-0.54324 -1.50892,-0.79091c-0.03362,0.0013 -0.05316,-0.0479 -0.05863,-0.14758c-0.00364,-0.06645 -0.0082,-0.14952 -0.01366,-0.2492c-1.82558,-0.72876 -3.49308,-1.64675 -5.0025,-2.75397c-0.06906,-0.03064 -0.13721,-0.04466 -0.20445,-0.04206c-0.00364,-0.06645 -0.0082,-0.14952 -0.01366,-0.2492c-1.50577,-1.04076 -2.93023,-2.13461 -4.27337,-3.28154c-0.06906,-0.03064 -0.13721,-0.04466 -0.20445,-0.04206c-0.00364,-0.06645 -0.0082,-0.14952 -0.01366,-0.2492c-3.72949,-2.88629 -7.36449,-5.89275 -10.90501,-9.01941M508.11676,338.84595c-0.10268,-0.02934 -0.18764,-0.04271 -0.25488,-0.04012c-1.58478,-0.63815 -2.88007,-0.60487 -3.88587,0.09985c-0.06542,0.03582 -0.02633,0.1342 0.11725,0.29516c0.46355,1.08094 1.24683,1.23388 2.34985,0.45882c0.0318,-0.03452 0.09813,-0.05373 0.19899,-0.05762c0.06724,-0.00259 0.15129,-0.00583 0.25215,-0.00972c1.68465,0.00166 3.27706,-0.14297 4.77722,-0.43388c-1.31301,0.01732 -2.49791,-0.08685 -3.55471,-0.31249M509.78835,343.52637c-0.30805,-0.08802 -0.61154,-0.09297 -0.91048,-0.01485c3.39359,5.36323 6.89035,11.0721 10.49029,17.12662c0.03726,0.06516 0.05772,0.13096 0.06136,0.19742c3.84993,-0.44808 6.86012,-2.07914 9.03055,-4.89318c0.0318,-0.03452 0.04497,-0.10163 0.0395,-0.20131c-4.53948,-5.985 -10.77656,-10.05657 -18.71123,-12.2147M519.23646,342.56282c0.03544,0.03193 0.06997,0.04725 0.10359,0.04595c0.27989,0.18899 0.84149,0.60021 1.6848,1.23365c0.1045,0.06257 0.22673,0.1411 0.36667,0.23559c1.64936,1.20172 3.48777,2.77906 5.51523,4.73204c2.16922,2.0807 3.30517,3.13572 3.40786,3.16506c0.68698,0.2399 0.9109,-0.28484 0.67176,-1.57422c-0.00364,-0.06645 -0.0082,-0.14952 -0.01366,-0.2492c-3.33151,-3.00152 -6.35125,-5.23257 -9.05924,-6.69315c-1.21496,-0.65241 -2.04825,-1.1031 -2.49988,-1.35207c-0.13812,-0.06127 -0.29306,-0.12189 -0.4648,-0.18187c-1.41303,-0.57818 -1.31715,-0.36544 0.28767,0.63821M534.52116,354.95956c-0.03544,-0.03193 -0.11858,-0.01208 -0.24942,0.05956c-0.53512,0.68657 -0.71722,1.35954 -0.54631,2.01889l0.15129,-0.00583c0.00546,0.09968 0.02592,0.16549 0.06136,0.19742c0.14541,0.19418 0.30672,0.3711 0.48393,0.53075c0.00546,0.09968 0.01002,0.18275 0.01366,0.2492c0.00546,0.09968 0.02592,0.16549 0.06136,0.19742c3.44444,5.06159 6.58678,10.45116 9.42704,16.16869c-0.00364,-0.06645 0.00861,-0.15017 0.03677,-0.25115c0.34698,-1.04559 0.42541,-2.3805 0.23531,-4.00474c-2.65857,-6.09081 -5.88357,-11.14421 -9.67498,-15.16021M531.11421,359.18645c-0.03544,-0.03193 -0.08678,-0.0466 -0.15402,-0.04401c-2.67755,2.16764 -5.85037,3.90486 -9.51847,5.21166c-0.0318,0.03452 -0.04588,0.08501 -0.04223,0.15147c3.09017,5.97428 5.21917,13.46733 6.38699,22.47916l0.15129,-0.00583c2.12255,-0.61458 3.94385,-1.50056 5.46389,-2.65797c0.0318,-0.03452 0.09813,-0.05373 0.19899,-0.05762c0.06724,-0.00259 0.13357,-0.0218 0.19899,-0.05762c3.08562,-1.48413 5.69278,-3.39933 7.82148,-5.7456c-1.65877,-3.83184 -3.33435,-7.66302 -5.02674,-11.49356c-0.03544,-0.03193 -0.08678,-0.0466 -0.15402,-0.04401c-0.00364,-0.06645 -0.0082,-0.14952 -0.01366,-0.2492c-0.00364,-0.06645 -0.0082,-0.14952 -0.01366,-0.2492c-1.71858,-2.46434 -3.48485,-4.8769 -5.29882,-7.23768M543.95331,401.64497c0.0318,-0.03452 0.09813,-0.05373 0.19899,-0.05762c0.20408,-3.03792 0.28319,-6.2042 0.23736,-9.49886c-0.00364,-0.06645 -0.0082,-0.14952 -0.01366,-0.2492c-0.47744,-3.17813 -1.06617,-6.23543 -1.76619,-9.1719c-0.00364,-0.06645 -0.0082,-0.14952 -0.01366,-0.2492c-3.66597,3.80401 -8.19935,6.84232 -13.60013,9.11494c-0.0318,0.03452 -0.04588,0.08501 -0.04223,0.15147c0.64599,6.86763 0.42191,13.53571 -0.67223,20.00426c0.00546,0.09968 0.01002,0.18275 0.01366,0.2492c6.6911,-2.08927 11.91047,-5.5203 15.6581,-10.29308M548.31068,423.05362c0.03362,-0.0013 0.0477,-0.05178 0.04223,-0.15147c-1.03676,0.13986 -1.42298,-0.14493 -1.15864,-0.85436c0.11445,-0.37068 0.07851,-0.71892 -0.1078,-1.04471c-0.66345,-1.03994 -1.49997,-1.85677 -2.50956,-2.4505c-1.73816,0.86614 -3.26184,1.95708 -4.57106,3.27285c-0.0318,0.03452 -0.04588,0.08501 -0.04223,0.15147c2.29725,1.34323 5.07961,1.70214 8.34707,1.07672M527.5844,417.40955c-0.09904,0.03711 -0.18218,0.05697 -0.24942,0.05956c-0.53231,1.35241 -1.031,2.70352 -1.49606,4.05334c-0.02816,0.10098 -0.04041,0.18469 -0.03677,0.25115c5.80241,-2.3214 10.48658,-5.68185 14.05253,-10.08135c0.0318,-0.03452 0.04497,-0.10163 0.0395,-0.20131c-3.67523,2.40588 -7.77849,4.37875 -12.30978,5.91861M537.34462,471.92382c0.03362,-0.0013 0.0477,-0.05178 0.04223,-0.15147c-1.43391,-0.34429 -2.42388,-0.27283 -2.96992,0.21438c-0.0318,0.03452 -0.04588,0.08501 -0.04223,0.15147c1.28485,0.08366 2.27483,0.0122 2.96992,-0.21438M495.32673,474.2927l-0.0082,-0.14952c-8.55539,-3.03323 -16.36351,-6.87775 -23.42435,-11.53357c-0.06906,-0.03064 -0.13721,-0.04466 -0.20445,-0.04206c0.37726,1.35064 1.00891,2.4251 1.89495,3.22338c0.03726,0.06516 0.05772,0.13096 0.06136,0.19742c-1.84448,0.77034 -2.91156,1.89364 -3.20124,3.36988c-0.03362,0.0013 -0.08405,0.00324 -0.15129,0.00583c2.51355,1.60127 5.50407,2.68469 8.97158,3.25027c3.77373,0.62037 7.17351,0.87223 10.19933,0.75559c0.1936,0.4587 0.62569,0.65847 1.29627,0.59933l0.00546,0.09968c1.61741,0.00425 3.13761,0.07884 4.56058,0.22377z" fill="#000000"/><path d="M495.31854,474.14317l0.0082,0.14952c-1.42298,-0.14493 -2.94317,-0.21952 -4.56058,-0.22377l-0.00546,-0.09968c-0.67058,0.05915 -1.10267,-0.14063 -1.29627,-0.59933c-3.02582,0.11664 -6.42559,-0.13523 -10.19933,-0.75559c-3.46751,-0.56558 -6.45804,-1.649 -8.97158,-3.25027c0.06724,-0.00259 0.11767,-0.00454 0.15129,-0.00583c0.28968,-1.47625 1.35676,-2.59954 3.20124,-3.36988c-0.00364,-0.06645 -0.0241,-0.13226 -0.06136,-0.19742c-0.88604,-0.79828 -1.51769,-1.87274 -1.89495,-3.22338c0.06724,-0.00259 0.13539,0.01143 0.20445,0.04206c7.06085,4.65581 14.86896,8.50033 23.42435,11.53357z" fill="#2c2d40"/><path d="M537.38686,471.77235c0.00546,0.09968 -0.00861,0.15017 -0.04223,0.15147c-0.6951,0.22658 -1.68507,0.29804 -2.96992,0.21438c-0.00364,-0.06645 0.01044,-0.11694 0.04223,-0.15147c0.54604,-0.48721 1.53602,-0.55867 2.96992,-0.21438z" fill="#353849"/><path d="M527.33498,417.46911c0.06724,-0.00259 0.15038,-0.02245 0.24942,-0.05956c4.53129,-1.53986 8.63455,-3.51273 12.30978,-5.91861c0.00546,0.09968 -0.0077,0.16678 -0.0395,0.20131c-3.56594,4.39951 -8.25012,7.75996 -14.05253,10.08135c-0.00364,-0.06645 0.00861,-0.15017 0.03677,-0.25115c0.46507,-1.34982 0.96376,-2.70093 1.49606,-4.05334M544.1523,401.58735c-0.10086,0.00389 -0.16719,0.02309 -0.19899,0.05762c-3.74763,4.77278 -8.967,8.20381 -15.6581,10.29308c-0.00364,-0.06645 -0.0082,-0.14952 -0.01366,-0.2492c1.09414,-6.46854 1.31822,-13.13663 0.67223,-20.00426c-0.00364,-0.06645 0.01044,-0.11694 0.04223,-0.15147c5.40079,-2.27262 9.93416,-5.31093 13.60013,-9.11494c0.00546,0.09968 0.01002,0.18275 0.01366,0.2492c0.70003,2.93647 1.28876,5.99377 1.76619,9.1719c0.00546,0.09968 0.01002,0.18275 0.01366,0.2492c0.04584,3.29466 -0.03328,6.46095 -0.23736,9.49886M536.44035,366.92253c0.06724,-0.00259 0.11858,0.01208 0.15402,0.04401c1.69239,3.83054 3.36797,7.66173 5.02674,11.49356c-2.1287,2.34627 -4.73586,4.26147 -7.82148,5.7456c-0.06542,0.03582 -0.13175,0.05502 -0.19899,0.05762c-0.00364,-0.06645 0.00861,-0.15017 0.03677,-0.25115c1.60952,-5.05663 2.54383,-10.75318 2.80293,-17.08964M534.27174,355.01912c0.13084,-0.07164 0.21398,-0.09149 0.24942,-0.05956c3.79141,4.016 7.01641,9.06941 9.67498,15.16021c0.19011,1.62424 0.11167,2.95915 -0.23531,4.00474c-0.02816,0.10098 -0.04041,0.18469 -0.03677,0.25115c-2.84026,-5.71753 -5.98261,-11.1071 -9.42704,-16.16869c-0.03544,-0.03193 -0.05589,-0.09774 -0.06136,-0.19742c0.06724,-0.00259 0.15129,-0.00583 0.25215,-0.00972c0.33438,-0.04619 0.48882,-0.30187 0.46332,-0.76705c-0.50263,-1.17933 -0.91518,-1.32991 -1.23765,-0.45175c-0.02816,0.10098 -0.04041,0.18469 -0.03677,0.25115l-0.15129,0.00583c-0.17091,-0.65936 0.01119,-1.33232 0.54631,-2.01889M502.55696,426.41558c-0.00364,-0.06645 -0.02501,-0.14887 -0.06409,-0.24726c-0.86714,-2.29738 -1.49579,-4.85368 -1.88595,-7.66891c0.06724,-0.00259 0.1522,0.01078 0.25488,0.04012c6.29722,1.78839 13.04312,1.92792 20.23769,0.41859c0.00546,0.09968 -0.00679,0.1834 -0.03677,0.25115c-0.47319,1.81629 -1.21037,3.42633 -2.21154,4.83011c0.00546,0.09968 -0.00861,0.15017 -0.04223,0.15147c-4.75024,1.84797 -10.16757,2.58955 -16.25199,2.22474M497.50427,403.38553c0.06724,-0.00259 0.15129,-0.00583 0.25215,-0.00972c11.86163,0.04222 20.88198,-2.88603 27.06104,-8.78475c0.00546,0.09968 -0.00679,0.1834 -0.03677,0.25115c-0.108,1.10297 0.05206,2.17896 0.48017,3.22797c-0.11832,5.83158 -0.82325,11.10307 -2.11478,15.81447c-0.02816,0.10098 -0.04041,0.18469 -0.03677,0.25115c-5.15285,1.26414 -10.45118,1.71811 -15.89499,1.3619c-2.50247,-0.16991 -4.95955,-0.74114 -7.37125,-1.71369c-1.10893,-3.0206 -1.88398,-6.40369 -2.32514,-10.14927c-0.00364,-0.06645 -0.0082,-0.14952 -0.01366,-0.2492M469.11475,404.52982c-0.51903,-1.47837 -0.53325,-2.65987 -0.04269,-3.54451c3.53968,3.72603 7.60404,6.88244 12.19308,9.46921c4.58904,2.58677 9.33708,5.00093 14.24411,7.24248c0.00546,0.09968 0.02683,0.1821 0.06409,0.24726c0.9299,2.82772 2.14691,5.36134 3.65101,7.60087c0.00911,0.16614 -0.01814,0.28373 -0.08174,0.35277c-0.55151,0.38753 -1.21936,0.49652 -2.00355,0.32696c-11.88925,-3.00461 -20.94477,-9.01531 -27.16655,-18.03211c-0.16279,-1.12583 -0.44871,-2.34681 -0.85777,-3.66293M463.98065,395.68753c-0.21166,0.44102 -0.35244,0.94591 -0.42234,1.51466l-0.02857,0.40067c-1.27954,-1.21597 -2.38335,-3.2212 -3.31143,-6.01569c0.06724,-0.00259 0.11858,0.01208 0.15402,0.04401c1.06059,1.52409 2.26337,2.87621 3.60833,4.05636M468.94798,389.50255c0.00911,0.16614 0.01821,0.33227 0.02732,0.49841c0.01821,0.33227 0.11592,0.57823 0.29313,0.73789c6.16949,4.98985 13.45286,8.788 21.85009,11.39447c0.00546,0.09968 0.01002,0.18275 0.01366,0.2492l-0.15129,0.00583c0.70003,2.93647 1.49818,5.81921 2.39447,8.64822c-0.39517,0.78107 -1.21795,0.82943 -2.46835,0.1451c-8.56829,-4.49781 -16.0536,-10.13618 -22.45593,-16.9151c0.22426,-1.44043 0.33947,-3.02649 0.34562,-4.75818l0.15129,-0.00583M461.56683,384.84243c1.06325,0.95793 2.0629,1.98491 2.99895,3.08093c-0.27245,1.17591 -0.88308,1.09955 -1.83188,-0.22906c-0.58346,-0.80994 -1.04063,-1.77459 -1.37152,-2.89394c0.06724,-0.00259 0.13539,0.01143 0.20445,0.04206z" fill="#343444"/><path d="M548.35291,422.90215c0.00546,0.09968 -0.00861,0.15017 -0.04223,0.15147c-3.26746,0.62541 -6.04981,0.2665 -8.34707,-1.07672c-0.00364,-0.06645 0.01044,-0.11694 0.04223,-0.15147c1.30922,-1.31576 2.8329,-2.40671 4.57106,-3.27285c1.00959,0.59373 1.84611,1.41056 2.50956,2.4505c0.18631,0.32579 0.22225,0.67403 0.1078,1.04471c-0.26433,0.70943 0.12188,0.99422 1.15864,0.85436z" fill="#2c2c3f"/><path d="M530.96019,359.14244c0.06724,-0.00259 0.11858,0.01208 0.15402,0.04401c1.81397,2.36077 3.58024,4.77333 5.29882,7.23768c0.00546,0.09968 0.01002,0.18275 0.01366,0.2492c0.00546,0.09968 0.01002,0.18275 0.01366,0.2492c-0.2591,6.33646 -1.19341,12.03301 -2.80293,17.08964c-0.02816,0.10098 -0.04041,0.18469 -0.03677,0.25115c-0.10086,0.00389 -0.16719,0.02309 -0.19899,0.05762c-1.52004,1.1574 -3.34134,2.04339 -5.46389,2.65797l-0.15129,0.00583c-1.16782,-9.01183 -3.29682,-16.50489 -6.38699,-22.47916c-0.00364,-0.06645 0.01044,-0.11694 0.04223,-0.15147c3.66809,-1.3068 6.84092,-3.04402 9.51847,-5.21166M514.35696,442.54275c-1.46472,0.32284 -2.97622,0.71408 -4.53452,1.17371c-1.39201,0.41993 -3.06574,0.61764 -5.02117,0.59312c-0.00364,-0.06645 -0.0082,-0.14952 -0.01366,-0.2492c0.3614,-2.01177 0.49061,-4.26431 0.38762,-6.75763c1.91635,-0.07387 3.82724,-0.24742 5.73266,-0.52066c4.78037,-0.68373 9.46849,-1.51374 14.06436,-2.49004c1.11577,-0.54247 2.17655,-1.16606 3.18235,-1.87078c0.35707,-0.24684 0.67961,-0.50901 0.96762,-0.78649c1.33737,-1.41674 2.75257,-1.72102 4.24559,-0.91285c-4.02008,5.94868 -10.35704,9.88895 -19.01086,11.82081M466.66836,417.06064c0.06724,-0.00259 0.13539,0.01143 0.20445,0.04206c3.54052,3.12665 7.17552,6.13312 10.90501,9.01941c0.00546,0.09968 0.01002,0.18275 0.01366,0.2492c-0.29332,1.40979 -0.42534,2.9965 -0.39605,4.76012l-0.10086,0.00389c-0.00364,-0.06645 -0.0082,-0.14952 -0.01366,-0.2492c-0.11262,0.40391 -0.36428,0.72993 -0.75498,0.97807c-0.06542,0.03582 -0.13175,0.05502 -0.19899,0.05762c-0.10086,0.00389 -0.16901,-0.01013 -0.20445,-0.04206c-4.31112,-3.663 -7.4625,-8.6027 -9.45414,-14.81911M496.37159,391.94164c0.0636,-0.06905 0.12902,-0.10487 0.19626,-0.10746c3.37211,0.66915 6.662,1.37476 9.86965,2.11684c6.58341,1.47768 12.76224,1.10631 18.53649,-1.11411c-0.03992,0.501 -0.09665,1.00264 -0.17019,1.50494c0.00546,0.09968 0.01002,0.18275 0.01366,0.2492c-6.17906,5.89872 -15.19941,8.82697 -27.06104,8.78475c-0.10086,0.00389 -0.18491,0.00713 -0.25215,0.00972c-0.46818,-1.78 -0.87458,-3.66228 -1.2192,-5.64683c-0.42826,-2.281 -0.39942,-4.21335 0.08652,-5.79706M499.76171,361.59371c-0.00364,-0.06645 0.00861,-0.15017 0.03677,-0.25115c1.47686,-5.01822 3.21772,-9.83018 5.22256,-14.43589c0.00546,0.09968 0.02592,0.16549 0.06136,0.19742c4.17217,4.20111 7.86644,8.90345 11.08282,14.10703c0.00911,0.16614 -0.01905,0.26711 -0.08447,0.30293c-2.4142,0.8256 -5.221,1.25012 -8.42038,1.27356c-2.8968,0.01177 -5.52969,-0.38619 -7.89866,-1.1939M494.14995,347.7253c0.03362,-0.0013 0.0477,-0.05178 0.04223,-0.15147c1.17489,-0.07859 2.34704,-0.20701 3.51646,-0.38528c0.06724,-0.00259 0.15129,-0.00583 0.25215,-0.00972l-0.00546,-0.09968c1.03676,-0.13986 2.04264,-0.22858 3.01762,-0.26616l-0.72765,1.47648c-0.84483,1.79732 -1.89404,4.16857 -3.14763,7.11375c-1.25541,2.91196 -1.91673,4.36923 -1.98397,4.37182c-3.15779,-1.67633 -5.9499,-3.74967 -8.37632,-6.22002c-0.03544,-0.03193 -0.05589,-0.09774 -0.06136,-0.19742c2.31501,-2.02048 4.80632,-3.89791 7.47393,-5.63231z" fill="#475c81"/><path d="M534.43567,358.00955c-0.00364,-0.06645 -0.0082,-0.14952 -0.01366,-0.2492c-0.17721,-0.15966 -0.33852,-0.33657 -0.48393,-0.53075c-0.03544,-0.03193 -0.05589,-0.09774 -0.06136,-0.19742c-0.00364,-0.06645 0.00861,-0.15017 0.03677,-0.25115c0.32247,-0.87816 0.73502,-0.72758 1.23765,0.45175c0.0255,0.46518 -0.12894,0.72086 -0.46332,0.76705c-0.10086,0.00389 -0.18491,0.00713 -0.25215,0.00972z" fill="#425574"/><path d="M519.37136,342.25795l0.05043,-0.00194c-0.34895,-0.21963 -0.50662,-0.33009 -0.473,-0.33139c0.17174,0.05997 0.32668,0.1206 0.4648,0.18187c0.45163,0.24897 1.28493,0.69966 2.49988,1.35207c2.70798,1.46058 5.72773,3.69164 9.05924,6.69315c0.00546,0.09968 0.01002,0.18275 0.01366,0.2492c0.23914,1.28937 0.01522,1.81411 -0.67176,1.57422c-0.10268,-0.02934 -1.23863,-1.08436 -3.40786,-3.16506c-2.02746,-1.95298 -3.86587,-3.53033 -5.51523,-4.73204l-1.68754,-1.28349l-0.15949,-0.14369c-0.03362,0.0013 -0.15402,-0.04401 -0.36121,-0.13591l0.25215,-0.00972c-0.07088,-0.06386 -0.14086,-0.11111 -0.20992,-0.14175c-0.87693,-0.63214 -0.82832,-0.66731 0.14583,-0.10551z" fill="#415476"/><path d="M519.42179,342.256l-0.05043,0.00194c-0.97415,-0.5618 -1.02276,-0.52663 -0.14583,0.10551c0.06906,0.03064 0.13903,0.07788 0.20992,0.14175l-0.25215,0.00972c0.20719,0.09191 0.32759,0.13721 0.36121,0.13591l0.15949,0.14369l1.68754,1.28349c-0.13994,-0.0945 -0.26217,-0.17303 -0.36667,-0.23559c-0.84331,-0.63344 -1.40491,-1.04465 -1.6848,-1.23365c-0.03362,0.0013 -0.06815,-0.01402 -0.10359,-0.04595c-1.60481,-1.00365 -1.7007,-1.21639 -0.28767,-0.63821c-0.03362,0.0013 0.12405,0.11176 0.473,0.33139z" fill="#415370"/><path d="M508.87788,343.51153c0.29894,-0.07812 0.60243,-0.07317 0.91048,0.01485c7.93467,2.15813 14.17174,6.2297 18.71123,12.2147c0.00546,0.09968 -0.0077,0.16678 -0.0395,0.20131c-2.17044,2.81404 -5.18062,4.4451 -9.03055,4.89318c-0.00364,-0.06645 -0.0241,-0.13226 -0.06136,-0.19742c-3.59994,-6.05452 -7.0967,-11.76339 -10.49029,-17.12662z" fill="#465c81"/><path d="M507.86187,338.80583c0.06724,-0.00259 0.1522,0.01078 0.25488,0.04012c1.0568,0.22564 2.2417,0.3298 3.55471,0.31249c-1.50016,0.29091 -3.09257,0.43553 -4.77722,0.43388c-0.10086,0.00389 -0.18491,0.00713 -0.25215,0.00972c-0.10086,0.00389 -0.16719,0.02309 -0.19899,0.05762c-1.10302,0.77506 -1.8863,0.62212 -2.34985,-0.45882c-0.14359,-0.16095 -0.18267,-0.25934 -0.11725,-0.29516c1.0058,-0.70472 2.30109,-0.738 3.88587,-0.09985M498.41228,338.82047c-0.31169,-0.15447 -0.45163,-0.24897 -0.41983,-0.28349c1.09573,-0.90797 2.11162,-0.81394 3.04767,0.28209c-0.70686,0.6266 -1.58281,0.62707 -2.62784,0.00141z" fill="#435878"/><path d="M487.50357,432.98936c0.00546,0.09968 0.02501,0.14887 0.05863,0.14758c0.48525,0.24767 0.98823,0.51131 1.50892,0.79091c0.00546,0.09968 0.01002,0.18275 0.01366,0.2492c0.00546,0.09968 0.02501,0.14887 0.05863,0.14758c1.11045,0.58984 2.11773,0.83404 3.02183,0.7326c0.06724,-0.00259 0.13539,0.01143 0.20445,0.04206c3.58393,1.46012 7.85244,2.1946 12.80554,2.20345c0.10298,2.49332 -0.02622,4.74587 -0.38762,6.75763c0.00546,0.09968 0.01002,0.18275 0.01366,0.2492c-7.47461,0.08835 -13.39017,-1.49832 -17.74668,-4.76001c-0.06906,-0.03064 -0.13721,-0.04466 -0.20445,-0.04206c-0.00364,-0.06645 -0.0082,-0.14952 -0.01366,-0.2492c0.36322,-1.97854 0.58559,-4.06819 0.6671,-6.26895M477.29457,431.13533l0.10086,-0.00389c-0.02929,-1.76362 0.10272,-3.35033 0.39605,-4.76012c0.06724,-0.00259 0.13539,0.01143 0.20445,0.04206c1.34314,1.14693 2.76759,2.24077 4.27337,3.28154c0.00546,0.09968 0.01002,0.18275 0.01366,0.2492c-0.51227,1.71791 -0.70557,3.72319 -0.5799,6.01586l-0.10086,0.00389c-1.43489,-0.9769 -2.9034,-1.95251 -4.40553,-2.92682c-0.03362,0.0013 -0.05316,-0.0479 -0.05863,-0.14758c-0.00364,-0.06645 0.00952,-0.13356 0.0395,-0.20131c0.21531,-0.37457 0.25431,-0.89218 0.11703,-1.55283M464.66427,357.45259c0.04258,-1.06715 0.31552,-1.92675 0.81884,-2.5788c0.0954,-0.10357 0.2076,-0.20779 0.33662,-0.31265c2.6176,-2.03214 5.62596,-3.69643 9.02509,-4.99286c-2.38757,3.15538 -4.68562,6.4072 -6.89416,9.75547c-0.09175,0.17002 -0.30573,0.26151 -0.64193,0.27447c-1.44567,0.05573 -2.28898,-0.57771 -2.52994,-1.90031l-0.10086,0.00389c-0.00364,-0.06645 -0.0082,-0.14952 -0.01366,-0.2492M485.93209,344.39603c0.00546,0.09968 0.01002,0.18275 0.01366,0.2492c-0.77843,2.39411 -2.09367,2.67789 -3.94574,0.85134c-0.03544,-0.03193 -0.05589,-0.09774 -0.06136,-0.19742c-0.4662,-0.51478 -0.49353,-1.01319 -0.08196,-1.49522c1.4273,-1.61999 2.77211,-1.67183 4.03442,-0.15552c-0.01905,0.26711 -0.00539,0.51631 0.04098,0.74761M458.98886,369.15891c0.06724,-0.00259 0.11676,-0.02115 0.14856,-0.05567c0.70474,-3.12381 2.36108,-4.25317 4.96904,-3.38808c0.00546,0.09968 0.01002,0.18275 0.01366,0.2492c0.00546,0.09968 0.01002,0.18275 0.01366,0.2492l0.10086,-0.00389c-0.00448,0.53293 0.14822,0.86001 0.45808,0.98126c-0.18351,0.34005 -0.29067,0.84364 -0.32148,1.51077l-0.10086,0.00389c-0.95116,1.70153 -1.6365,3.64254 -2.05603,5.82303c-0.03362,0.0013 -0.08405,0.00324 -0.15129,0.00583c0.10298,2.49332 -0.39745,4.42721 -1.5013,5.80165c-0.09358,0.1368 -0.05134,-0.01467 0.1267,-0.4544c0.08993,-0.20325 0.12579,-0.47101 0.10758,-0.80328c-0.00364,-0.06645 -0.0082,-0.14952 -0.01366,-0.2492c-0.61374,-3.20617 -1.21158,-6.42961 -1.79351,-9.67031z" fill="#8fbbbe"/><path d="M489.08478,434.17705c0.06724,-0.00259 0.1522,0.01078 0.25488,0.04012c0.98591,0.16178 1.92777,0.4418 2.82558,0.84005c-0.9041,0.10145 -1.91138,-0.14275 -3.02183,-0.7326c-0.03362,0.0013 -0.05316,-0.0479 -0.05863,-0.14758z" fill="#94c3c7"/><path d="M477.28091,430.88613c0.00546,0.09968 0.01002,0.18275 0.01366,0.2492c0.13729,0.66065 0.09828,1.17826 -0.11703,1.55283c-0.02998,0.06775 -0.04314,0.13485 -0.0395,0.20131c-0.31351,-0.1877 -0.56251,-0.42783 -0.74701,-0.72039c-0.03726,-0.06516 -0.05863,-0.14758 -0.06409,-0.24726c0.06724,-0.00259 0.13357,-0.0218 0.19899,-0.05762c0.39069,-0.24814 0.64235,-0.57417 0.75498,-0.97807M482.28296,429.94412c0.06724,-0.00259 0.13539,0.01143 0.20445,0.04206c1.50942,1.10722 3.17692,2.02521 5.0025,2.75397c0.00546,0.09968 0.01002,0.18275 0.01366,0.2492c-0.08151,2.20076 -0.30387,4.29041 -0.6671,6.26895c0.00546,0.09968 0.01002,0.18275 0.01366,0.2492c-1.68116,-1.16719 -3.41093,-2.29922 -5.18931,-3.39607c-0.03362,0.0013 -0.05316,-0.0479 -0.05863,-0.14758l0.10086,-0.00389c-0.12568,-2.29267 0.06762,-4.29795 0.5799,-6.01586M475.35539,345.05347c0.06724,-0.00259 0.11858,0.01208 0.15402,0.04401c1.14802,3.11898 2.7553,5.70416 4.82184,7.75552c-3.86853,4.41117 -7.11682,9.38113 -9.7449,14.90989c-0.02998,0.06775 -0.04314,0.13485 -0.0395,0.20131c-2.54003,-2.69906 -4.47497,-6.03744 -5.80483,-10.01514c-0.03726,-0.06516 -0.05863,-0.14758 -0.06409,-0.24726l0.10086,-0.00389c0.24096,1.3226 1.08427,1.95604 2.52994,1.90031c0.3362,-0.01296 0.55018,-0.10445 0.64193,-0.27447c2.20854,-3.34826 4.50659,-6.60009 6.89416,-9.75547c-3.39913,1.29643 -6.4075,2.96072 -9.02509,4.99286c-0.12902,0.10487 -0.24122,0.20908 -0.33662,0.31265c-0.50332,0.65205 -0.77626,1.51165 -0.81884,2.5788l-0.15129,0.00583c-0.18184,-0.85872 -0.42454,-1.59855 -0.72811,-2.2195c-0.00364,-0.06645 0.00952,-0.13356 0.0395,-0.20131c3.04624,-4.0465 6.88991,-7.37455 11.53101,-9.98415z" fill="#475d81"/><path d="M489.89295,388.99484c0.34349,0.11995 0.68789,0.25651 1.03319,0.40969c0.06458,0.56356 0.04603,1.14698 -0.05567,1.75025l-0.10086,0.00389c-0.00364,-0.06645 -0.0082,-0.14952 -0.01366,-0.2492c-0.05548,-0.39743 -0.07824,-0.81277 -0.0683,-1.24601c-0.34531,-0.15318 -0.67472,-0.32361 -0.98823,-0.51131c-0.03544,-0.03193 -0.05589,-0.09774 -0.06136,-0.19742c0.06724,-0.00259 0.1522,0.01078 0.25488,0.04012z" fill="#364461"/><path d="M472.21742,375.39168c0.06724,-0.00259 0.11858,0.01208 0.15402,0.04401c4.52673,5.75241 10.27772,10.17569 17.25296,13.26983c0.00546,0.09968 0.01002,0.18275 0.01366,0.2492c0.00546,0.09968 0.02592,0.16549 0.06136,0.19742c0.31351,0.1877 0.64292,0.35814 0.98823,0.51131c-0.00994,0.43325 0.01283,0.84859 0.0683,1.24601c0.00546,0.09968 0.01002,0.18275 0.01366,0.2492c-0.0913,3.866 0.06318,7.60598 0.46343,11.21995l-0.10086,0.00389c-0.00364,-0.06645 -0.0082,-0.14952 -0.01366,-0.2492c-8.39723,-2.60646 -15.68059,-6.40462 -21.85009,-11.39447c-0.17721,-0.15966 -0.27492,-0.40562 -0.29313,-0.73789c-0.00911,-0.16614 -0.01821,-0.33227 -0.02732,-0.49841c-0.00364,-0.06645 -0.0082,-0.14952 -0.01366,-0.2492c0.351,-5.27449 1.44537,-9.89505 3.2831,-13.86167M497.0865,375.48189c0.37848,-3.5441 1.09091,-6.83469 2.13732,-9.87178c0.06724,-0.00259 0.1522,0.01078 0.25488,0.04012c6.01187,1.49971 12.41245,1.48607 19.20176,-0.04094c0.00546,0.09968 0.02683,0.1821 0.06409,0.24726c2.42141,6.06665 4.20684,12.82376 5.3563,20.27133c0.36732,1.78389 -0.14867,2.81935 -1.54797,3.10637c-1.23302,0.24731 -2.50512,0.39624 -3.81631,0.44678c-9.00293,0.48023 -16.6467,-0.67355 -22.93133,-3.46134c0.48116,-3.51476 0.90824,-7.09403 1.28125,-10.7378M483.2825,355.98572c0.06724,-0.00259 0.11858,0.01208 0.15402,0.04401c2.96533,3.08223 6.42172,5.59612 10.36917,7.54168c0.00546,0.09968 -0.00679,0.1834 -0.03677,0.25115c-0.98053,6.69725 -1.8602,13.3906 -2.63901,20.08007c-0.10086,0.00389 -0.18582,-0.00949 -0.25488,-0.04012c-7.39045,-2.67857 -13.19186,-7.0999 -17.40425,-13.264c-0.00364,-0.06645 0.00952,-0.13356 0.0395,-0.20131c2.3182,-5.65 5.57561,-10.45383 9.77222,-14.41148z" fill="#475d82"/><path d="M479.04204,343.16325c0.06724,-0.00259 0.13357,-0.0218 0.19899,-0.05762c0.88042,-0.5334 1.79538,-1.05148 2.74487,-1.55424c0.06724,-0.00259 0.15129,-0.00583 0.25215,-0.00972c5.26198,-0.50251 9.98247,-0.43475 14.16146,0.2033c0.00546,0.09968 -0.00861,0.15017 -0.04223,0.15147c-4.72838,2.2467 -9.03238,4.85995 -12.91198,7.83977c-0.00364,-0.06645 -0.0241,-0.13226 -0.06136,-0.19742c-1.4632,-2.10792 -2.9105,-4.2331 -4.3419,-6.37554M485.94575,344.64523c-0.00364,-0.06645 -0.0082,-0.14952 -0.01366,-0.2492c-0.04637,-0.23129 -0.06003,-0.4805 -0.04098,-0.74761c-1.26231,-1.51631 -2.60712,-1.46447 -4.03442,0.15552c-0.41156,0.48203 -0.38424,0.98043 0.08196,1.49522c0.00546,0.09968 0.02592,0.16549 0.06136,0.19742c1.85207,1.82655 3.16732,1.54277 3.94574,-0.85134z" fill="#455a7e"/><path d="M456.66599,377.48952c-0.00364,-0.06645 -0.0082,-0.14952 -0.01366,-0.2492c-0.26623,-7.31513 1.18465,-13.11483 4.35261,-17.39911c0.06724,-0.00259 0.11858,0.01208 0.15402,0.04401c2.08771,4.28146 4.6833,7.99394 7.78675,11.13744c-1.73125,5.2944 -3.19578,10.8449 -4.39359,16.6515c0.00546,0.09968 0.01002,0.18275 0.01366,0.2492c-0.93605,-1.09602 -1.9357,-2.123 -2.99895,-3.08093c-0.06906,-0.03064 -0.13721,-0.04466 -0.20445,-0.04206c-0.10086,0.00389 -0.1522,-0.01078 -0.15402,-0.04401c-1.73762,-2.19723 -3.25175,-4.61951 -4.54237,-7.26684M459.13742,369.10324c-0.0318,0.03452 -0.08132,0.05308 -0.14856,0.05567c0.58194,3.2407 1.17978,6.46413 1.79351,9.67031c0.00546,0.09968 0.01002,0.18275 0.01366,0.2492c0.01821,0.33227 -0.01765,0.60003 -0.10758,0.80328c-0.17804,0.43973 -0.22028,0.59119 -0.1267,0.4544c1.10385,-1.37444 1.60428,-3.30832 1.5013,-5.80165c0.06724,-0.00259 0.11767,-0.00454 0.15129,-0.00583c0.41953,-2.18049 1.10488,-4.1215 2.05603,-5.82303l0.10086,-0.00389c0.03081,-0.66713 0.13797,-1.17072 0.32148,-1.51077c-0.30987,-0.12124 -0.46256,-0.44833 -0.45808,-0.98126l-0.10086,0.00389c-0.00364,-0.06645 -0.0082,-0.14952 -0.01366,-0.2492c-0.00364,-0.06645 -0.0082,-0.14952 -0.01366,-0.2492c-2.60796,-0.86509 -4.2643,0.26427 -4.96904,3.38808z" fill="#475c80"/></g></g></svg>