<svg version="1.1" xmlns="http://www.w3.org/2000/svg" xmlns:xlink="http://www.w3.org/1999/xlink" width="30.54444" height="64.13997" viewBox="0,0,30.54444,64.13997"><g transform="translate(-620.26105,-338.45642)"><g data-paper-data="{&quot;isPaintingLayer&quot;:true}" fill-rule="nonzero" stroke="none" stroke-width="1" stroke-linecap="round" stroke-linejoin="miter" stroke-miterlimit="4" stroke-dasharray="" stroke-dashoffset="0" style="mix-blend-mode: normal"><path d="M640.65549,338.84051c1.56667,-0.43333 2.98333,-0.5 4.25,-0.2c1.83333,0.43333 3.21667,1.43333 4.15,3c0.76667,1.23333 1.25,3.05 1.45,5.45c0.13333,1.83333 0.2,6 0.2,12.5c0.03333,3.86667 0.06667,9.66667 0.1,17.4c-0.16667,6.6 -0.83333,12.3 -2,17.1c-0.63333,2.83333 -1.58333,4.9 -2.85,6.2c-0.83333,0.9 -1.86667,1.55 -3.1,1.95c-1.23333,0.36667 -2.46667,0.45 -3.7,0.25c-1.2,-0.16667 -2.35,-0.61667 -3.45,-1.35c-1.03333,-0.7 -1.88333,-1.58333 -2.55,-2.65c-0.76667,-1.2 -1.31667,-2.68333 -1.65,-4.45c-0.2,-1.03333 -0.36667,-2.63333 -0.5,-4.8l-1.05,-19.6c-1.3,0.73333 -2.75,0.88333 -4.35,0.45c-1.56667,-0.43333 -2.81667,-1.28333 -3.75,-2.55c-0.86667,-1.16667 -1.38333,-2.56667 -1.55,-4.2c-0.13333,-1.46667 0.03333,-2.96667 0.5,-4.5c0.7,-2.3 2.3,-4.85 4.8,-7.65c1.7,-1.86667 4.48333,-4.5 8.35,-7.9c2.73333,-2.4 4.96667,-3.88333 6.7,-4.45M642.05549,344.29051c-0.3,-0.2 -0.53333,-0.31667 -0.7,-0.35c-0.43333,-0.06667 -0.95,0.16667 -1.55,0.7c-1.83333,1.6 -3.83333,3.58333 -6,5.95c-0.53333,0.6 -2.38333,2.71667 -5.55,6.35c-1.26667,1.4 -2.03333,2.56667 -2.3,3.5c-0.2,0.7 -0.2,1.4 0,2.1c0.2,0.73333 0.58333,1.28333 1.15,1.65c0.73333,0.03333 1.78333,-0.48333 3.15,-1.55c1.3,-0.96667 2.35,-1.36667 3.15,-1.2c0.9,0.2 1.53333,0.81667 1.9,1.85c0.2,0.5 0.33333,1.41667 0.4,2.75c0.23333,7.96667 0.66667,16.33333 1.3,25.1l0.05,-0.6c0,2 0.23333,3.41667 0.7,4.25c0.36667,0.7 0.9,1.2 1.6,1.5c0.73333,0.33333 1.41667,0.33333 2.05,0c0.83333,-0.4 1.41667,-1.43333 1.75,-3.1c0.9,-4.43333 1.48333,-9.46667 1.75,-15.1c0.13333,-3.53333 0.15,-8.61667 0.05,-15.25l-0.1,-9.5c-0.06667,-3.66667 -0.2,-6.21667 -0.4,-7.65c-0.06667,-0.53333 -0.23333,-0.88333 -0.5,-1.05c-0.13333,-0.06667 -0.33333,-0.1 -0.6,-0.1c-0.33333,0.03333 -0.53333,0.05 -0.6,0.05c-0.16667,-0.03333 -0.4,-0.13333 -0.7,-0.3z" fill="#000000"/><path d="M643.95549,344.64051c0.26667,0.16667 0.43333,0.51667 0.5,1.05c0.2,1.43333 0.33333,3.98333 0.4,7.65l0.1,9.5c0.1,6.63333 0.08333,11.71667 -0.05,15.25c-0.26667,5.63333 -0.85,10.66667 -1.75,15.1c-0.33333,1.66667 -0.91667,2.7 -1.75,3.1c-0.63333,0.33333 -1.31667,0.33333 -2.05,0c-0.7,-0.3 -1.23333,-0.8 -1.6,-1.5c-0.46667,-0.83333 -0.7,-2.25 -0.7,-4.25l-0.05,0.6c-0.63333,-8.76667 -1.06667,-17.13333 -1.3,-25.1c-0.06667,-1.33333 -0.2,-2.25 -0.4,-2.75c-0.36667,-1.03333 -1,-1.65 -1.9,-1.85c-0.8,-0.16667 -1.85,0.23333 -3.15,1.2c-1.36667,1.06667 -2.41667,1.58333 -3.15,1.55c-0.56667,-0.36667 -0.95,-0.91667 -1.15,-1.65c-0.2,-0.7 -0.2,-1.4 0,-2.1c0.26667,-0.93333 1.03333,-2.1 2.3,-3.5c3.16667,-3.63333 5.01667,-5.75 5.55,-6.35c2.16667,-2.36667 4.16667,-4.35 6,-5.95c0.6,-0.53333 1.11667,-0.76667 1.55,-0.7c0.16667,0.03333 0.4,0.15 0.7,0.35c0.3,0.16667 0.53333,0.26667 0.7,0.3c0.06667,0 0.26667,-0.01667 0.6,-0.05c0.26667,0 0.46667,0.03333 0.6,0.1z" fill="#ffffff"/></g></g></svg>