<svg version="1.1" xmlns="http://www.w3.org/2000/svg" xmlns:xlink="http://www.w3.org/1999/xlink" width="153.58469" height="156.54014" viewBox="0,0,153.58469,156.54014"><g transform="translate(-563.20766,-281.72993)"><g data-paper-data="{&quot;isPaintingLayer&quot;:true}" fill-rule="nonzero" stroke="none" stroke-width="1" stroke-linecap="butt" stroke-linejoin="miter" stroke-miterlimit="10" stroke-dasharray="" stroke-dashoffset="0" style="mix-blend-mode: normal"><path d="M660.69433,331.09542c1.36998,-0.76066 2.79033,-1.60443 4.26104,-2.53131c0.30087,-0.19868 0.60173,-0.39736 0.9026,-0.59604c-0.8026,0.59648 -1.68861,1.20926 -2.65802,1.83834c-0.73535,0.46344 -1.47056,0.89355 -2.20563,1.29033c-0.1,-0.00044 -0.19999,-0.00088 -0.29999,-0.00131M640.81341,338.20827c-0.36549,-0.26826 -0.54597,-0.91905 -0.54144,-1.95235c0.00292,-0.66665 0.3396,-1.43183 1.01004,-2.29555c-0.26885,0.49882 -0.40422,0.96489 -0.40612,1.39821c-0.00467,1.06663 0.17566,1.75075 0.54101,2.05235l-0.00022,0.05c0.33274,0.13479 0.63215,0.26943 0.89822,0.40393c0.79954,0.1035 1.38271,0.13939 1.74951,0.10766c19.33201,0.25133 30.74789,0.40132 34.24764,0.44998c3.56627,0.08228 6.19923,0.16048 7.89888,0.23459c1.66647,0.04063 3.53286,0.0988 5.59917,0.17452c1.03316,0.03786 2.54956,0.0945 4.5492,0.16992c2.43311,0.04399 4.42831,1.13605 5.98558,3.27618c1.45772,2.03969 2.97414,5.89629 4.54928,11.56979c0.43191,7.93513 -0.06948,15.86618 -1.50418,23.79314c-4.10163,0.38203 -7.15329,0.76866 -9.15498,1.15989c-3.89901,-0.21707 -9.58107,-0.49195 -17.0462,-0.82464c-20.26284,-0.82206 -30.8775,-1.25188 -31.84399,-1.28944c-1.233,-0.07207 -2.33334,0.00645 -3.30099,0.23554c-2.1356,0.52397 -3.17431,1.75275 -3.11611,3.68631c-0.00161,0.36666 0.06338,0.75027 0.19496,1.15084c-0.52923,-0.93564 -0.79238,-1.73678 -0.78947,-2.40343c-0.05849,-1.8669 0.93,-3.04589 2.96546,-3.53697c0.93433,-0.22924 1.98466,-0.30797 3.151,-0.2362c0.89983,0.03727 10.99791,0.44816 30.29426,1.23266c7.09847,0.33108 12.51388,0.6048 16.24622,0.82114c1.90169,-0.39167 4.80328,-0.76229 8.70477,-1.11187c1.36643,-7.5606 1.84948,-15.1084 1.44915,-22.6434c-1.50964,-5.40655 -2.9602,-9.07953 -4.35169,-11.01893c-1.49105,-2.03984 -3.38647,-3.08146 -5.68625,-3.12487c-1.89965,-0.07499 -3.34939,-0.13133 -4.34921,-0.16905c-1.96631,-0.07528 -3.73271,-0.13301 -5.29918,-0.17321c-1.63299,-0.07382 -4.14929,-0.1515 -7.54889,-0.23306c-3.33309,-0.04793 -14.19906,-0.17885 -32.59791,-0.39276c-0.33347,0.03187 -0.88331,-0.00387 -1.64951,-0.10722c-0.26607,-0.1345 -0.54882,-0.26907 -0.84822,-0.40371l0.00022,-0.05M579.41244,372.83898c1.98505,3.40865 4.63704,6.75356 7.95596,10.03473c6.44355,5.26149 12.67073,10.45537 18.68155,15.58164c-0.9969,-0.70436 -2.27596,-1.67662 -3.83718,-2.91677c2.85563,2.51248 5.29658,4.57314 7.32284,6.182c0.96255,0.93754 1.84264,1.67472 2.64028,2.21154c0.92907,0.97072 1.7262,1.62421 2.39139,1.96045c17.3402,13.60912 26.56065,20.33276 27.66135,20.17091c1.26677,-0.02779 5.21298,-2.97714 11.83862,-8.84805c5.75535,-5.0414 9.8552,-8.82341 12.29955,-11.34601c1.06255,0.93798 1.84272,1.65805 2.34051,2.16023c-2.47827,2.65578 -6.92964,6.78624 -13.35412,12.39138c-6.96027,6.16945 -11.10713,9.26792 -12.44057,9.29541c-1.16736,0.16155 -10.85293,-6.91412 -29.05671,-21.22701c-0.69852,-0.33639 -1.52883,-1.02335 -2.49095,-2.06089c-0.8643,-0.53711 -1.79425,-1.30784 -2.78984,-2.31219c-2.12597,-1.67596 -4.68314,-3.83713 -7.67152,-6.48352c1.62759,1.30711 2.95643,2.32959 3.98652,3.06742c-6.30964,-5.39424 -12.85231,-10.85616 -19.62802,-16.38577c-3.48486,-3.44856 -6.26944,-6.96071 -8.35376,-10.53647c-3.04657,-4.57996 -4.56397,-12.01985 -4.5522,-22.31968c0.91072,-10.06256 9.52289,-20.47473 25.83651,-31.2365c15.24742,-10.86643 26.66449,-18.59968 34.25121,-23.19974c7.78614,-4.46585 12.32962,-6.79593 13.63046,-6.99023c1.10026,-0.06185 4.56663,3.80329 10.3991,11.59541c6.1984,7.96039 9.86067,12.75971 10.98682,14.39795c-0.76839,0.39663 -1.53679,0.79326 -2.30518,1.18989c-1.42468,-1.97288 -4.77226,-6.32083 -10.04276,-13.04383c-5.53409,-7.42415 -8.8346,-11.10523 -9.90152,-11.04324c-1.23403,0.16126 -5.54367,2.37569 -12.92895,6.6433c-7.25238,4.36819 -18.13446,11.72045 -32.64623,22.05678c-15.51145,10.26529 -23.70477,20.17929 -24.57998,29.74202c-0.00958,9.79985 1.44268,16.88946 4.3568,21.26884z" fill="#ffffff"/><path d="M585.34415,319.91556c2.08354,-3.8575 11.9655,-11.1808 29.64588,-21.96992c17.0804,-10.79174 27.28729,-16.19698 30.62067,-16.21571c3.0328,0.11328 5.66211,1.02479 7.88793,2.73451c1.99235,1.74204 5.33891,6.32331 10.0397,13.74381c5.00004,7.58848 8.59208,13.20415 10.7761,16.847c1.88432,3.57488 -0.9345,7.87915 -8.45646,12.91282c-0.30087,0.19868 -0.60173,0.39736 -0.9026,0.59604c-1.47071,0.92688 -2.89106,1.77065 -4.26104,2.53131c0.1,0.00044 0.19999,0.00088 0.29999,0.00131c2.56557,0.24457 5.43112,0.49045 8.59667,0.73764c3.0328,0.11328 7.79983,0.01749 14.3011,-0.28737c6.56763,-0.2379 10.10144,-0.35576 10.60143,-0.35357c0.69969,0.06973 2.31652,0.02681 4.85051,-0.12876c2.3992,0.17717 4.5802,0.70338 6.54301,1.57864c5.92016,2.99256 9.49005,9.85812 10.70968,20.59667c0.59346,9.1025 -0.16333,18.26574 -2.27036,27.48975c-4.0481,3.38223 -8.87316,5.31108 -14.47518,5.78654c-6.53284,-0.09528 -11.3161,-0.09956 -14.34978,-0.01284c-5.70099,0.2417 -10.21811,0.35525 -13.55134,0.34065c-5.2668,0.0436 -9.98223,-0.22705 -14.14628,-0.81194c-0.13362,0.06608 -0.26724,0.13216 -0.40086,0.19824c-0.16681,0.0326 -0.33362,0.0652 -0.50042,0.09781c0.73025,0.70319 2.49131,1.97755 5.2832,3.82309c3.58996,2.28236 6.04933,3.94311 7.3781,4.98226c0.66431,0.53624 1.31196,1.0724 1.94293,1.60849c4.64828,4.18698 6.76417,8.16286 6.34769,11.92766c-0.61531,3.49727 -6.65821,9.50407 -18.12871,18.0204c-3.64534,2.75067 -7.45734,5.50061 -11.436,8.24982c-3.4433,2.28489 -5.19814,3.39386 -5.26451,3.32691c-2.33385,0.12311 -8.019,-3.25175 -17.05547,-10.12458c-4.55178,-3.38656 -9.01943,-6.95609 -13.40295,-10.70858c-3.15431,-2.81378 -8.48546,-7.10375 -15.99346,-12.8699c-3.08867,-2.58016 -5.77712,-5.20857 -8.06538,-7.88523c-6.67805,-4.99586 -12.38551,-10.88745 -17.1224,-17.67479c-6.72719,-8.99603 -9.304,-18.09054 -7.73043,-27.28355c2.41389,-10.78931 9.64357,-21.39086 21.68904,-31.80465M572.35616,351.45832c-0.01177,10.29983 1.50563,17.73973 4.5522,22.31968c2.08432,3.57575 4.8689,7.08791 8.35376,10.53647c6.77571,5.52961 13.31838,10.99154 19.62802,16.38577c-1.03009,-0.73784 -2.35893,-1.76031 -3.98652,-3.06742c2.98838,2.64639 5.54555,4.80757 7.67152,6.48352c0.99559,1.00435 1.92554,1.77508 2.78984,2.31219c0.96211,1.03754 1.79243,1.7245 2.49095,2.06089c18.20378,14.31289 27.88935,21.38856 29.05671,21.22701c1.33344,-0.02749 5.48029,-3.12596 12.44057,-9.29541c6.42447,-5.60513 10.87585,-9.73559 13.35412,-12.39138c-0.4978,-0.50217 -1.27797,-1.22225 -2.34051,-2.16023c-2.6897,-2.34509 -7.15662,-6.08127 -13.40076,-11.20856c-6.97439,-5.83048 -10.92217,-10.13105 -11.84336,-12.90172c-0.13158,-0.40057 -0.19656,-0.78419 -0.19496,-1.15084c-0.0582,-1.93357 0.9805,-3.16234 3.11611,-3.68631c0.96766,-0.22909 2.06799,-0.30761 3.30099,-0.23554c0.96649,0.03757 11.58116,0.46738 31.84399,1.28944c7.46513,0.33269 13.14719,0.60757 17.0462,0.82464c2.00169,-0.39123 5.05335,-0.77786 9.15498,-1.15989c1.4347,-7.92696 1.93609,-15.85801 1.50418,-23.79314c-1.57514,-5.6735 -3.09156,-9.5301 -4.54928,-11.56979c-1.55728,-2.14013 -3.55247,-3.23219 -5.98558,-3.27618c-1.99965,-0.07542 -3.51605,-0.13206 -4.5492,-0.16992c-2.06631,-0.07572 -3.9327,-0.13389 -5.59917,-0.17452c-1.69966,-0.07411 -4.33262,-0.15231 -7.89888,-0.23459c-3.49975,-0.04866 -14.91563,-0.19865 -34.24764,-0.44998c-0.3668,0.03173 -0.94997,-0.00416 -1.74951,-0.10766c-0.26607,-0.1345 -0.56548,-0.26914 -0.89822,-0.40393l0.00022,-0.05c-0.36534,-0.3016 -0.54568,-0.98571 -0.54101,-2.05235c0.0019,-0.43332 0.13727,-0.89939 0.40612,-1.39821c1.10931,-2.12845 4.53864,-5.03007 10.28801,-8.70485c4.1117,-2.68196 8.64005,-5.3621 13.58506,-8.04041c0.76839,-0.39663 1.53679,-0.79326 2.30518,-1.18989c-1.12615,-1.63825 -4.78842,-6.43756 -10.98682,-14.39795c-5.83248,-7.79212 -9.29884,-11.65726 -10.3991,-11.59541c-1.30084,0.1943 -5.84432,2.52438 -13.63046,6.99023c-7.58673,4.60006 -19.0038,12.3333 -34.25121,23.19974c-16.31361,10.76177 -24.92578,21.17393 -25.83651,31.2365M645.00364,340.4266l-0.05022,0.04978l-0.34977,-0.05153c0.13333,0.00058 0.26666,0.00117 0.39999,0.00175z" fill="#000000"/><path d="M599.63561,321.82812c14.51177,-10.33633 25.39385,-17.68859 32.64623,-22.05678c7.38527,-4.26761 11.69492,-6.48204 12.92895,-6.6433c1.06693,-0.06199 4.36743,3.61909 9.90152,11.04324c5.2705,6.72301 8.61808,11.07095 10.04276,13.04383c-4.94501,2.67831 -9.47336,5.35845 -13.58506,8.04041c-5.74936,3.67478 -9.1787,6.57639 -10.28801,8.70485c-0.67044,0.86372 -1.00712,1.6289 -1.01004,2.29555c-0.00453,1.0333 0.17596,1.68408 0.54144,1.95235l-0.00022,0.05c0.29941,0.13464 0.58215,0.26921 0.84822,0.40371c0.76621,0.10335 1.31604,0.1391 1.64951,0.10722c18.39885,0.21391 29.26482,0.34483 32.59791,0.39276c3.3996,0.08155 5.9159,0.15924 7.54889,0.23306c1.56647,0.04019 3.33287,0.09793 5.29918,0.17321c0.99982,0.03771 2.44956,0.09406 4.34921,0.16905c2.29978,0.0434 4.1952,1.08503 5.68625,3.12487c1.39149,1.93941 2.84206,5.61238 4.35169,11.01893c0.40033,7.535 -0.08272,15.0828 -1.44915,22.6434c-3.90149,0.34958 -6.80308,0.7202 -8.70477,1.11187c-3.73234,-0.21634 -9.14775,-0.49006 -16.24622,-0.82114c-19.29635,-0.7845 -29.39443,-1.19538 -30.29426,-1.23266c-1.16634,-0.07177 -2.21667,0.00696 -3.151,0.2362c-2.03546,0.49108 -3.02395,1.67007 -2.96546,3.53697c-0.00292,0.66665 0.26024,1.46779 0.78947,2.40343c0.92119,2.77067 4.86898,7.07124 11.84336,12.90172c6.24414,5.12729 10.71106,8.86347 13.40076,11.20856c-2.44435,2.5226 -6.5442,6.3046 -12.29955,11.34601c-6.62564,5.87092 -10.57184,8.82027 -11.83862,8.84805c-1.1007,0.16184 -10.32115,-6.56179 -27.66135,-20.17091c-0.66519,-0.33624 -1.46232,-0.98973 -2.39139,-1.96045c-0.79764,-0.53682 -1.67773,-1.274 -2.64028,-2.21154c-2.02626,-1.60886 -4.46721,-3.66952 -7.32284,-6.182c1.56122,1.24016 2.84028,2.21241 3.83718,2.91677c-6.01081,-5.12627 -12.238,-10.32015 -18.68155,-15.58164c-3.31893,-3.28116 -5.97091,-6.62607 -7.95596,-10.03473c-2.91412,-4.37938 -4.36639,-11.46899 -4.3568,-21.26884c0.8752,-9.56273 9.06853,-19.47673 24.57998,-29.74202M645.00364,340.4266c-0.13333,-0.00058 -0.26666,-0.00117 -0.39999,-0.00175l0.34977,0.05153z" fill="#87a3ad"/></g></g></svg>