<svg version="1.1" xmlns="http://www.w3.org/2000/svg" xmlns:xlink="http://www.w3.org/1999/xlink" width="156.55866" height="153.60465" viewBox="0,0,156.55866,153.60465"><g transform="translate(-561.72067,-283.19768)"><g data-paper-data="{&quot;isPaintingLayer&quot;:true}" fill-rule="nonzero" stroke="none" stroke-width="1" stroke-linecap="butt" stroke-linejoin="miter" stroke-miterlimit="10" stroke-dasharray="" stroke-dashoffset="0" style="mix-blend-mode: normal"><g><path d="M610.94726,339.5529c-0.77307,-1.36302 -1.6297,-2.77565 -2.5699,-4.23789c-0.2014,-0.29905 -0.40281,-0.5981 -0.60421,-0.89715c0.60374,0.79716 1.22454,1.67756 1.8624,2.64122c0.4701,0.73112 0.90687,1.46239 1.3103,2.19382c0.00047,0.1 0.00094,0.19999 0.00141,0.29999M618.24033,359.36845c-0.26494,0.36791 -0.91405,0.55429 -1.94736,0.55915c-0.66665,0.00313 -1.43486,-0.32659 -2.30463,-0.98916c0.50124,0.26431 0.96852,0.39544 1.40184,0.39341c1.06663,-0.00501 1.74908,-0.19155 2.04735,-0.55962l0.05,-0.00023c0.13176,-0.33395 0.26368,-0.63457 0.39576,-0.90185c0.09624,-0.80045 0.12683,-1.38392 0.09177,-1.75042c0.0758,-19.33353 0.12214,-30.75031 0.13903,-34.25036c0.0499,-3.56687 0.10419,-6.20044 0.16287,-7.9007c0.0255,-1.66677 0.06673,-3.53362 0.12368,-5.60053c0.02848,-1.03346 0.07135,-2.55031 0.12861,-4.55057c0.0219,-2.43342 1.0958,-4.43845 3.2217,-6.01509c2.02638,-1.47618 5.86905,-3.02756 11.52803,-4.65414c7.9309,-0.50394 15.86618,-0.07457 23.80585,1.2881c0.41926,4.09799 0.83358,7.14602 1.24297,9.14408c-0.18167,3.90082 -0.40495,9.58516 -0.66985,17.053c-0.63806,20.26949 -0.97149,30.88764 -1.00028,31.85443c-0.06087,1.23361 0.02763,2.33318 0.2655,3.29872c0.54334,2.13076 1.7815,3.15827 3.71446,3.08252c0.36666,-0.00172 0.74966,-0.07019 1.14902,-0.2054c-0.9308,0.5377 -1.72952,0.80812 -2.39617,0.81125c-1.8663,0.07544 -3.05421,-0.9023 -3.56376,-2.93323c-0.23771,-0.93221 -0.32598,-1.98178 -0.2648,-3.14873c0.0291,-0.90013 0.34829,-11.00154 0.95757,-30.30424c0.26662,-7.10119 0.49116,-12.51887 0.67361,-16.25303c-0.40892,-1.89806 -0.80587,-4.79617 -1.19085,-8.69433c-7.5727,-1.29773 -15.12459,-1.71224 -22.65565,-1.24351c-5.39263,1.55866 -9.05229,3.04252 -10.97899,4.45156c-2.02622,1.50951 -3.05059,3.41431 -3.07312,5.7144c-0.05774,1.90026 -0.10092,3.35045 -0.12955,4.35057c-0.05742,1.96692 -0.09912,3.73377 -0.12509,5.30054c-0.05899,1.6336 -0.11383,4.1505 -0.16451,7.55071c-0.01767,3.33339 -0.04993,14.20011 -0.09678,32.60018c0.0349,0.33317 0.00415,0.88331 -0.09224,1.65042c-0.13208,0.26729 -0.26407,0.55124 -0.39599,0.85185l-0.05,0.00023M653.42712,420.45256c3.3905,-2.01592 6.7112,-4.69817 9.9621,-8.04675c5.20278,-6.49106 10.33992,-12.76516 15.41141,-18.82227c-0.69528,1.00326 -1.65588,2.2911 -2.88182,3.86351c2.48645,-2.87833 4.52487,-5.33789 6.11527,-7.37868c0.92876,-0.97102 1.65792,-1.85778 2.18748,-2.66026c0.96225,-0.93785 1.60847,-1.74088 1.93866,-2.40909c13.45115,-17.46307 20.0908,-26.7442 19.91897,-27.84338c-0.03929,-1.26647 -3.02435,-5.18574 -8.95518,-11.75781c-5.09346,-5.70935 -8.91253,-9.7747 -11.45722,-12.19605c0.92829,-1.07102 1.64126,-1.8577 2.13889,-2.36003c2.67818,2.45406 6.84889,6.86775 12.51213,13.24108c6.2324,6.90398 9.36839,11.02254 9.40799,12.35568c0.17214,1.16585 -6.81531,10.91527 -20.96236,29.24827c-0.33003,0.70155 -1.00943,1.53806 -2.03819,2.50956c-0.52924,0.86915 -1.2915,1.80605 -2.28677,2.81072c-1.65659,2.1411 -3.79446,4.71779 -6.41362,7.73008c1.29228,-1.63939 2.30265,-2.97746 3.03111,-4.01421c-5.33674,6.35836 -10.73904,12.95036 -16.20692,19.776c-3.41678,3.51603 -6.90351,6.33239 -10.4602,8.44909c-4.55211,3.08804 -11.97794,4.67292 -22.27747,4.75466c-10.07043,-0.81933 -20.56037,-9.33662 -31.46983,-25.55188c-11.00444,-15.14815 -18.84103,-26.49456 -23.50978,-34.03922c-4.53636,-7.74528 -6.9076,-12.26743 -7.1137,-13.56645c-0.07183,-1.09965 3.76168,-4.60097 11.50054,-10.50396c7.9038,-6.27043 12.66967,-9.97613 14.29763,-11.1171c0.40359,0.76476 0.80718,1.52953 1.21077,2.29429c-1.95987,1.44253 -6.27725,4.82946 -12.95214,10.16079c-7.37361,5.60127 -11.02458,8.93507 -10.9529,10.00139c0.17246,1.23251 2.42593,5.52189 6.76042,12.86812c4.43386,7.21243 11.88463,18.02732 22.3523,32.44467c10.40571,15.41763 20.39371,23.52062 29.964,24.30897c9.79954,-0.07939 16.87569,-1.59597 21.22844,-4.54973z" fill="#ffffff"/><path d="M600.45195,415.00159c-3.87626,-2.04843 -11.289,-11.86351 -22.2382,-29.44523c-10.94639,-16.98174 -16.44408,-27.13915 -16.49308,-30.47223c0.08574,-3.03371 0.97334,-5.67119 2.66279,-7.91245c1.72388,-2.00809 6.27459,-5.39611 13.65211,-10.16408c7.54278,-5.06874 13.12561,-8.71162 16.7485,-10.92862c3.55763,-1.9167 7.88732,0.86292 12.98908,8.33888c0.2014,0.29905 0.40281,0.5981 0.60421,0.89715c0.9402,1.46224 1.79683,2.87486 2.5699,4.23789c-0.00047,-0.1 -0.00094,-0.19999 -0.00141,-0.29999c0.22126,-2.56768 0.44112,-5.43536 0.65956,-8.60303c0.08574,-3.03371 -0.05332,-7.79968 -0.4172,-14.29792c-0.29752,-6.56521 -0.44745,-10.09781 -0.4498,-10.5978c0.06337,-0.70029 0.00578,-2.31667 -0.17279,-4.84915c0.15538,-2.40071 0.66177,-4.5864 1.51917,-6.55708c2.93869,-5.94709 9.77156,-9.57918 20.49862,-10.89625c9.09675,-0.67608 18.2665,-0.00252 27.50927,2.02069c3.41885,4.01723 5.39143,8.82459 5.91773,14.42207c-0.03596,6.53345 0.00319,11.31656 0.11744,14.34933c0.29345,5.69857 0.448,10.21447 0.46367,13.54771c0.09142,5.26619 -0.13641,9.98389 -0.68348,14.15309c0.06729,0.13302 0.13458,0.26603 0.20187,0.39905c0.03412,0.1665 0.06823,0.33301 0.10235,0.49951c0.69653,-0.7366 1.95486,-2.50917 3.77498,-5.3177c2.24968,-3.61054 3.88804,-6.08489 4.91507,-7.42304c0.53018,-0.66915 1.06045,-1.32164 1.59079,-1.95746c4.14461,-4.68611 8.10113,-6.83802 11.86956,-6.45573c3.50271,0.58353 9.56414,6.57166 18.18428,17.96438c2.78366,3.62022 5.5681,7.4071 8.35332,11.36064c2.31607,3.42242 3.44092,5.16712 3.37457,5.2341c0.1443,2.33264 -3.17881,8.04821 -9.96933,17.14671c-3.3451,4.58235 -6.87392,9.08223 -10.58646,13.49964c-2.78503,3.17973 -7.02643,8.54962 -12.72418,16.10967c-2.55202,3.11197 -5.15592,5.82418 -7.81169,8.13665c-4.93503,6.72314 -10.77457,12.48387 -17.51863,17.28219c-8.93459,6.8086 -18.00535,9.46788 -27.21228,7.97783c-10.81079,-2.31584 -21.47756,-9.44898 -32.00031,-21.39942M632.11138,427.70268c10.29953,-0.08174 17.72535,-1.66663 22.27747,-4.75466c3.55669,-2.1167 7.04342,-4.93306 10.4602,-8.44909c5.46787,-6.82564 10.87018,-13.41764 16.20692,-19.776c-0.72845,1.03675 -1.73882,2.37482 -3.03111,4.01421c2.61915,-3.01228 4.75703,-5.58898 6.41362,-7.73008c0.99527,-1.00467 1.75753,-1.94158 2.28677,-2.81072c1.02876,-0.97149 1.70815,-1.80801 2.03819,-2.50956c14.14705,-18.333 21.1345,-28.08243 20.96236,-29.24827c-0.0396,-1.33314 -3.1756,-5.4517 -9.40799,-12.35568c-5.66324,-6.37333 -9.83395,-10.78702 -12.51213,-13.24108c-0.49763,0.50233 -1.2106,1.28901 -2.13889,2.36003c-2.32057,2.71088 -6.01606,7.21155 -11.08645,13.50199c-5.76693,7.02704 -10.03149,11.01372 -12.79368,11.96003c-0.39936,0.13521 -0.78237,0.20368 -1.14902,0.2054c-1.93296,0.07575 -3.17111,-0.95175 -3.71446,-3.08252c-0.23787,-0.96554 -0.32637,-2.06512 -0.2655,-3.29872c0.02879,-0.96679 0.36222,-11.58494 1.00028,-31.85443c0.2649,-7.46785 0.48818,-13.15218 0.66985,-17.053c-0.40939,-1.99806 -0.82371,-5.04609 -1.24297,-9.14408c-7.93967,-1.36267 -15.87496,-1.79204 -23.80585,-1.2881c-5.65897,1.62658 -9.50165,3.17796 -11.52803,4.65414c-2.12591,1.57664 -3.19981,3.58168 -3.2217,6.01509c-0.05727,2.00025 -0.10014,3.51711 -0.12861,4.55057c-0.05695,2.06692 -0.09818,3.93376 -0.12368,5.60053c-0.05868,1.70026 -0.11296,4.33383 -0.16287,7.9007c-0.01688,3.50005 -0.06323,14.91684 -0.13903,34.25036c0.03506,0.3665 0.00446,0.94997 -0.09177,1.75042c-0.13208,0.26729 -0.264,0.5679 -0.39576,0.90185l-0.05,0.00023c-0.29827,0.36807 -0.98072,0.5546 -2.04735,0.55962c-0.43332,0.00204 -0.9006,-0.1291 -1.40184,-0.39341c-2.13844,-1.08994 -5.07107,-4.4928 -8.7979,-10.20856c-2.71919,-4.08719 -5.44033,-8.59103 -8.16343,-13.51152c-0.40359,-0.76476 -0.80718,-1.52953 -1.21077,-2.29429c-1.62796,1.14097 -6.39383,4.84668 -14.29763,11.1171c-7.73886,5.90299 -11.57237,9.40431 -11.50054,10.50396c0.2061,1.29902 2.57734,5.82117 7.1137,13.56645c4.66875,7.54466 12.50535,18.89107 23.50978,34.03922c10.90945,16.21526 21.39939,24.73255 31.46983,25.55188M620.42053,355.15824l0.05023,0.04976l-0.04835,0.35022c-0.00063,-0.13333 -0.00125,-0.26666 -0.00188,-0.39999z" fill="#000000"/><path d="M602.23469,400.69333c-10.46767,-14.41735 -17.91844,-25.23224 -22.3523,-32.44467c-4.33449,-7.34623 -6.58796,-11.63561 -6.76042,-12.86812c-0.07168,-1.06632 3.57929,-4.40012 10.9529,-10.00139c6.67489,-5.33133 10.99227,-8.71826 12.95214,-10.16079c2.7231,4.92049 5.44425,9.42433 8.16343,13.51152c3.72683,5.71577 6.65947,9.11862 8.7979,10.20856c0.86977,0.66257 1.63798,0.99229 2.30463,0.98916c1.0333,-0.00486 1.68242,-0.19124 1.94736,-0.55915l0.05,-0.00023c0.13192,-0.30062 0.26392,-0.58457 0.39599,-0.85185c0.09639,-0.76711 0.12714,-1.31725 0.09224,-1.65042c0.04685,-18.40007 0.07912,-29.26679 0.09678,-32.60018c0.05069,-3.40021 0.10552,-5.91711 0.16451,-7.55071c0.02597,-1.56678 0.06767,-3.33362 0.12509,-5.30054c0.02863,-1.00013 0.07182,-2.45032 0.12955,-4.35057c0.02252,-2.30009 1.0469,-4.20488 3.07312,-5.7144c1.92669,-1.40904 5.58636,-2.8929 10.97899,-4.45156c7.53107,-0.46872 15.08295,-0.05422 22.65565,1.24351c0.38498,3.89816 0.78194,6.79627 1.19085,8.69433c-0.18245,3.73416 -0.40698,9.15184 -0.67361,16.25303c-0.60927,19.3027 -0.92846,29.40412 -0.95757,30.30424c-0.06118,1.16694 0.02708,2.21652 0.2648,3.14873c0.50954,2.03092 1.69746,3.00866 3.56376,2.93323c0.66665,-0.00313 1.46537,-0.27355 2.39617,-0.81125c2.7622,-0.94631 7.02676,-4.93298 12.79368,-11.96003c5.07039,-6.29044 8.76588,-10.79111 11.08645,-13.50199c2.54469,2.42135 6.36377,6.4867 11.45722,12.19605c5.93084,6.57207 8.9159,10.49134 8.95518,11.75781c0.17183,1.09918 -6.46783,10.38031 -19.91897,27.84338c-0.33019,0.66821 -0.97641,1.47124 -1.93866,2.40909c-0.52956,0.80248 -1.25872,1.68923 -2.18748,2.66026c-1.5904,2.04079 -3.62882,4.50035 -6.11527,7.37868c1.22593,-1.57242 2.18654,-2.86025 2.88182,-3.86351c-5.07149,6.05712 -10.20863,12.33121 -15.41141,18.82227c-3.2509,3.34858 -6.5716,6.03083 -9.9621,8.04675c-4.35275,2.95377 -11.42889,4.47034 -21.22844,4.54973c-9.57029,-0.78835 -19.55829,-8.89134 -29.964,-24.30897M620.42053,355.15824c0.00063,0.13333 0.00125,0.26666 0.00188,0.39999l0.04835,-0.35022z" fill="#87a3ad"/></g></g></g></svg>