<svg version="1.1" xmlns="http://www.w3.org/2000/svg" xmlns:xlink="http://www.w3.org/1999/xlink" width="213.1" height="264.83828" viewBox="0,0,213.1,264.83828"><g transform="translate(-539.89459,-233.9913)"><g data-paper-data="{&quot;isPaintingLayer&quot;:true}" fill-rule="nonzero" stroke="none" stroke-width="1" stroke-linecap="round" stroke-linejoin="miter" stroke-miterlimit="4" stroke-dasharray="" stroke-dashoffset="0" style="mix-blend-mode: normal"><path d="M590.69459,435.87958c3.56667,-2.23333 6.88333,-5.11667 9.95,-8.65c0.5,0.2 1.01667,0.3 1.55,0.3c0.33333,0.13333 0.5,0.86667 0.5,2.2c0,2.5 -2.08333,8.13333 -6.25,16.9c-4.53333,9.56667 -8.13333,14.35 -10.8,14.35c-3.96667,0 -6.88333,-1.56667 -8.75,-4.7c-1.13333,-1.93333 -1.7,-3.81667 -1.7,-5.65c0,-3.06667 0.66667,-5.4 2,-7c0.93333,-1.16667 2.73333,-2.38333 5.4,-3.65c3.83333,-1.76667 6.53333,-3.13333 8.1,-4.1M589.59459,444.22958c-1.33333,1.63333 -3.35,3.2 -6.05,4.7c-1.96667,1.1 -2.95,2.23333 -2.95,3.4c0,0.73333 0.23333,1.48333 0.7,2.25c0.76667,1.26667 2,1.9 3.7,1.9c2.1,0 4.71667,-2.25 7.85,-6.75c2.83333,-4.06667 4.25,-6.76667 4.25,-8.1c0,-3.4 -1.1,-4.16667 -3.3,-2.3c-0.33333,0.3 -1.73333,1.93333 -4.2,4.9M693.19459,462.37958c-1.16667,-3.46667 -1.75,-6.06667 -1.75,-7.8c0,-1.03333 0.33333,-1.65 1,-1.85c0.33333,-0.1 0.66667,-0.15 1,-0.15c1.93333,3.33333 6.36667,9.48333 13.3,18.45c5.96667,8.4 8.95,14.91667 8.95,19.55c0,1.9 -0.65,3.65 -1.95,5.25c-1.66667,2 -3.93333,3 -6.8,3c-5.76667,0 -9.5,-4.5 -11.2,-13.5c-0.53333,-2.8 -0.81667,-5.9 -0.85,-9.3l0.05,-4.2c0,-2.8 -0.58333,-5.95 -1.75,-9.45M699.19459,483.02958c-0.66667,0.93333 -1,2.25 -1,3.95c0,0.06667 0.05,1.06667 0.15,3c0.46667,1.9 1.75,2.85 3.85,2.85c0.93333,0 1.81667,-0.33333 2.65,-1l1.3,2.15c0.6,1 1.45,1.5 2.55,1.5c2.5,0 3.75,-2.5 3.75,-7.5c-1.4,-1.6 -2.95,-3.46667 -4.65,-5.6c-3.46667,-4.26667 -6,-7.78333 -7.6,-10.55c-0.73333,0.4 -1.1,1.16667 -1.1,2.3c0,0.43333 0.18333,1.43333 0.55,3c0.36667,1.56667 0.55,2.55 0.55,2.95c0,1.03333 -0.33333,2.01667 -1,2.95M720.94459,445.82958c-1.5,0 -10.08333,-9.38333 -25.75,-28.15c0,-1.03333 0.38333,-1.7 1.15,-2c0.36667,-0.16667 0.73333,-0.28333 1.1,-0.35c1.7,1.56667 4.53333,3.21667 8.5,4.95c2.3,1.03333 5.86667,2.55 10.7,4.55c8.7,3.86667 13.05,8.11667 13.05,12.75c0,1.93333 -0.65,3.7 -1.95,5.3c-1.66667,1.96667 -3.93333,2.95 -6.8,2.95M715.09459,435.77958c3.36667,4.03333 5.81667,6.05 7.35,6.05c1.5,0 2.63333,-0.5 3.4,-1.5c0.56667,-0.73333 0.85,-1.61667 0.85,-2.65c0,-1.7 -0.36667,-2.93333 -1.1,-3.7c-0.6,-0.6 -1.71667,-1.13333 -3.35,-1.6c-5.66667,-1.6 -10.13333,-3.43333 -13.4,-5.5c-0.1,0.1 -0.16667,0.23333 -0.2,0.4c-0.03333,0.06667 -0.05,0.13333 -0.05,0.2c0.86667,1 3.03333,3.76667 6.5,8.3M573.09459,409.42958c4.7,-0.63333 7.7,-0.95 9,-0.95l1.25,1.85c-3.16667,4.46667 -6.93333,8.78333 -11.3,12.95c-8.03333,7.63333 -15.16667,11.45 -21.4,11.45c-4.56667,0 -7.71667,-1.88333 -9.45,-5.65c-0.56667,-1.2 -0.95,-2.53333 -1.15,-4c-0.1,-0.7 -0.15,-1.4 -0.15,-2.1c0,-4.43333 2.33333,-7.71667 7,-9.85c4.13333,-1.86667 10.03333,-2.8 17.7,-2.8c0.96667,0 3.8,-0.3 8.5,-0.9M556.99459,417.82958c-0.8,-1 -2.2,-1.2 -4.2,-0.6c-1.3,0.4 -2.43333,1.06667 -3.4,2c-1.03333,1.03333 -1.55,2.06667 -1.55,3.1c0,0.03333 0.16667,0.71667 0.5,2.05c0.66667,1.2 1.91667,1.86667 3.75,2c0,0.03333 0,0.06667 0,0.1l0.5,2.25c0.63333,1.5 1.68333,2.25 3.15,2.25c1.13333,0 1.98333,-0.41667 2.55,-1.25c0.36667,-0.56667 0.55,-1.18333 0.55,-1.85c0,-1.36667 -0.15,-2.46667 -0.45,-3.3c0.53333,0.2 1.15,0.3 1.85,0.3c0.56667,0 2.76667,-1.28333 6.6,-3.85c4,-2.66667 6,-4.36667 6,-5.1c0,-1.8 -2.86667,-2.1 -8.6,-0.9c-3.46667,0.73333 -5.88333,1.66667 -7.25,2.8M580.59459,322.27958c-0.3,0.8 -1.11667,1.2 -2.45,1.2c-8.86667,0 -16.3,-2.81667 -22.3,-8.45c-2.13333,-2 -3.88333,-4.15 -5.25,-6.45c-1.1,-1.93333 -1.65,-3.38333 -1.65,-4.35c0,-1.86667 0.58333,-3.68333 1.75,-5.45c1.16667,-1.83333 2.7,-3.15 4.6,-3.95c4.7,-2.06667 9.46667,-0.43333 14.3,4.9c0.86667,1.36667 2.65,4.8 5.35,10.3c2.4,4.83333 4.36667,8.26667 5.9,10.3c-0.06667,0.33333 -0.15,0.98333 -0.25,1.95M575.09459,318.62958c-0.6,-1.66667 -1.96667,-3.96667 -4.1,-6.9c-2.46667,-3.36667 -3.96667,-5.56667 -4.5,-6.6c-0.16667,-1.46667 -0.31667,-2.58333 -0.45,-3.35c-0.23333,-1.4 -1.25,-2.46667 -3.05,-3.2c-2.83333,-0.96667 -4.96667,-0.68333 -6.4,0.85c-1,1.06667 -1.5,2.4 -1.5,4c0,1.23333 2.38333,4.2 7.15,8.9c5.13333,5 8.96667,7.5 11.5,7.5c0.53333,0 0.88333,-0.15 1.05,-0.45c0.1,-0.13333 0.2,-0.38333 0.3,-0.75M626.14459,234.02958c3,0.23333 5.51667,1.55 7.55,3.95c2.26667,2.76667 3.4,6.46667 3.4,11.1c0,1.03333 -0.4,4.6 -1.2,10.7c-0.86667,6.9 -1.41667,11.76667 -1.65,14.6c-0.36667,1.16667 -1.2,2 -2.5,2.5c-3.5,-3.23333 -7.08333,-8.25 -10.75,-15.05c-3.86667,-7.2 -5.8,-12.85 -5.8,-16.95c0,-3.5 1.13333,-6.28333 3.4,-8.35c2.13333,-1.9 4.65,-2.73333 7.55,-2.5M624.74459,240.37958c-0.26667,-0.1 -0.55,-0.16667 -0.85,-0.2c-1.16667,-0.1 -2.15,0.33333 -2.95,1.3c-0.9,1.03333 -1.35,2.53333 -1.35,4.5c0,-0.16667 1.41667,3.4 4.25,10.7c3.1,7.43333 5.21667,11.15 6.35,11.15c0.83333,0 1.05,-0.08333 0.65,-0.25c-0.1,-1.6 -0.03333,-3.98333 0.2,-7.15c0.26667,-2.96667 0.4,-4.66667 0.4,-5.1c0,-1.53333 -0.53333,-3.03333 -1.6,-4.5c-0.63333,-0.86667 -1.08333,-1.7 -1.35,-2.5c0.3,0.06667 0.61667,0.1 0.95,0.1c1.53333,0 2.66667,-0.5 3.4,-1.5c0.56667,-0.76667 0.85,-1.7 0.85,-2.8c0,-3.23333 -1.58333,-5.08333 -4.75,-5.55c-1.26667,-0.16667 -2.35,0.08333 -3.25,0.75c-0.4,0.3 -0.71667,0.65 -0.95,1.05M694.29459,254.92958c2.53333,0 4.66667,0.8 6.4,2.4c1.96667,1.73333 2.95,4.08333 2.95,7.05c0,1.5 -1.91667,5.26667 -5.75,11.3c-3.7,5.8 -5.75,8.7 -6.15,8.7c-1,0 -2.43333,-3.25 -4.3,-9.75c-1.7,-5.83333 -2.55,-9.18333 -2.55,-10.05c0,-3.06667 0.98333,-5.48333 2.95,-7.25c1.73333,-1.6 3.88333,-2.4 6.45,-2.4M686.49459,264.67958c0.56667,1.26667 1.63333,1.9 3.2,1.9c0.13333,0 0.26667,0 0.4,0c0,0.1 0,0.2 0,0.3c0,0.46667 0.45,1.98333 1.35,4.55c0.93333,2.53333 1.51667,3.91667 1.75,4.15c0.33333,-0.1 0.66667,-0.23333 1,-0.4c0.5,-2.33333 1.36667,-3.98333 2.6,-4.95c1.03333,-0.8 1.55,-1.9 1.55,-3.3c0,-2.43333 -1.36667,-3.73333 -4.1,-3.9c-0.2,0 -0.38333,0 -0.55,0c0,-0.03333 0,-0.06667 0,-0.1c0,-2.36667 -1.26667,-3.68333 -3.8,-3.95c-2.53333,-0.26667 -3.8,0.95 -3.8,3.65c0,0.8 0.13333,1.48333 0.4,2.05M742.39459,319.12958c-6.7,4.33333 -11.91667,6.5 -15.65,6.5c-2.1,0 -3.55,-0.81667 -4.35,-2.45c-0.43333,-0.83333 -0.65,-1.78333 -0.65,-2.85c0,-1.63333 1.63333,-4.46667 4.9,-8.5c3.36667,-4.16667 6.95,-7.68333 10.75,-10.55c4.43333,-3.33333 8,-4.76667 10.7,-4.3c3.26667,0.6 4.9,4.01667 4.9,10.25c0,3.33333 -3.53333,7.3 -10.6,11.9M747.34459,303.22958c-0.93333,-0.76667 -2.05,-1.21667 -3.35,-1.35c-3.26667,-0.36667 -4.9,0.95 -4.9,3.95c0,2.46667 -1.51667,4.51667 -4.55,6.15c-3.06667,1.63333 -4.6,2.88333 -4.6,3.75c0,0.53333 0.11667,0.9 0.35,1.1c0.03333,0 0.33333,0.1 0.9,0.3c1.46667,-0.66667 4.96667,-2.16667 10.5,-4.5c4.76667,-2.33333 7.15,-4.46667 7.15,-6.4c0,-1.16667 -0.5,-2.16667 -1.5,-3M752.99459,257.22958c0,5.16667 -5.11667,11.7 -15.35,19.6c-12.3,8.53333 -20.51667,14.7 -24.65,18.5c-0.86667,0 -1.41667,-0.01667 -1.65,-0.05c-0.33333,-0.03333 -0.5,-0.68333 -0.5,-1.95c0,-3 2.2,-8.31667 6.6,-15.95c4.4,-7.7 9.23333,-14.6 14.5,-20.7c5.96667,-6.93333 10.78333,-10.71667 14.45,-11.35c4.4,-0.76667 6.6,3.2 6.6,11.9M737.19459,255.07958c-0.8,0.83333 -1.66667,2.2 -2.6,4.1c-1.06667,2.1 -2.06667,3.73333 -3,4.9c-1.66667,2.06667 -4.05,5.5 -7.15,10.3c-3.16667,4.86667 -4.75,7.55 -4.75,8.05c0,0.53333 0.1,0.83333 0.3,0.9c0.1,0.03333 0.33333,0.06667 0.7,0.1c1.8,-1.93333 6.83333,-5.81667 15.1,-11.65c7.36667,-5.7 11.05,-10.23333 11.05,-13.6c0,-1.73333 -0.9,-3.26667 -2.7,-4.6c-2.16667,-1.6 -4.48333,-1.1 -6.95,1.5z" fill="#00ff00"/><path d="M593.79459,439.32958c2.2,-1.86667 3.3,-1.1 3.3,2.3c0,1.33333 -1.41667,4.03333 -4.25,8.1c-3.13333,4.5 -5.75,6.75 -7.85,6.75c-1.7,0 -2.93333,-0.63333 -3.7,-1.9c-0.46667,-0.76667 -0.7,-1.51667 -0.7,-2.25c0,-1.16667 0.98333,-2.3 2.95,-3.4c2.7,-1.5 4.71667,-3.06667 6.05,-4.7c2.46667,-2.96667 3.86667,-4.6 4.2,-4.9M700.19459,480.07958c0,-0.4 -0.18333,-1.38333 -0.55,-2.95c-0.36667,-1.56667 -0.55,-2.56667 -0.55,-3c0,-1.13333 0.36667,-1.9 1.1,-2.3c1.6,2.76667 4.13333,6.28333 7.6,10.55c1.7,2.13333 3.25,4 4.65,5.6c0,5 -1.25,7.5 -3.75,7.5c-1.1,0 -1.95,-0.5 -2.55,-1.5l-1.3,-2.15c-0.83333,0.66667 -1.71667,1 -2.65,1c-2.1,0 -3.38333,-0.95 -3.85,-2.85c-0.1,-1.93333 -0.15,-2.93333 -0.15,-3c0,-1.7 0.33333,-3.01667 1,-3.95c0.66667,-0.93333 1,-1.91667 1,-2.95M708.59459,427.47958c0,-0.06667 0.01667,-0.13333 0.05,-0.2c0.03333,-0.16667 0.1,-0.3 0.2,-0.4c3.26667,2.06667 7.73333,3.9 13.4,5.5c1.63333,0.46667 2.75,1 3.35,1.6c0.73333,0.76667 1.1,2 1.1,3.7c0,1.03333 -0.28333,1.91667 -0.85,2.65c-0.76667,1 -1.9,1.5 -3.4,1.5c-1.53333,0 -3.98333,-2.01667 -7.35,-6.05c-3.46667,-4.53333 -5.63333,-7.3 -6.5,-8.3M564.24459,415.02958c5.73333,-1.2 8.6,-0.9 8.6,0.9c0,0.73333 -2,2.43333 -6,5.1c-3.83333,2.56667 -6.03333,3.85 -6.6,3.85c-0.7,0 -1.31667,-0.1 -1.85,-0.3c0.3,0.83333 0.45,1.93333 0.45,3.3c0,0.66667 -0.18333,1.28333 -0.55,1.85c-0.56667,0.83333 -1.41667,1.25 -2.55,1.25c-1.46667,0 -2.51667,-0.75 -3.15,-2.25l-0.5,-2.25c0,-0.03333 0,-0.06667 0,-0.1c-1.83333,-0.13333 -3.08333,-0.8 -3.75,-2c-0.33333,-1.33333 -0.5,-2.01667 -0.5,-2.05c0,-1.03333 0.51667,-2.06667 1.55,-3.1c0.96667,-0.93333 2.1,-1.6 3.4,-2c2,-0.6 3.4,-0.4 4.2,0.6c1.36667,-1.13333 3.78333,-2.06667 7.25,-2.8M574.79459,319.37958c-0.16667,0.3 -0.51667,0.45 -1.05,0.45c-2.53333,0 -6.36667,-2.5 -11.5,-7.5c-4.76667,-4.7 -7.15,-7.66667 -7.15,-8.9c0,-1.6 0.5,-2.93333 1.5,-4c1.43333,-1.53333 3.56667,-1.81667 6.4,-0.85c1.8,0.73333 2.81667,1.8 3.05,3.2c0.13333,0.76667 0.28333,1.88333 0.45,3.35c0.53333,1.03333 2.03333,3.23333 4.5,6.6c2.13333,2.93333 3.5,5.23333 4.1,6.9c-0.1,0.36667 -0.2,0.61667 -0.3,0.75M625.69459,239.32958c0.9,-0.66667 1.98333,-0.91667 3.25,-0.75c3.16667,0.46667 4.75,2.31667 4.75,5.55c0,1.1 -0.28333,2.03333 -0.85,2.8c-0.73333,1 -1.86667,1.5 -3.4,1.5c-0.33333,0 -0.65,-0.03333 -0.95,-0.1c0.26667,0.8 0.71667,1.63333 1.35,2.5c1.06667,1.46667 1.6,2.96667 1.6,4.5c0,0.43333 -0.13333,2.13333 -0.4,5.1c-0.23333,3.16667 -0.3,5.55 -0.2,7.15c0.4,0.16667 0.18333,0.25 -0.65,0.25c-1.13333,0 -3.25,-3.71667 -6.35,-11.15c-2.83333,-7.3 -4.25,-10.86667 -4.25,-10.7c0,-1.96667 0.45,-3.46667 1.35,-4.5c0.8,-0.96667 1.78333,-1.4 2.95,-1.3c0.3,0.03333 0.58333,0.1 0.85,0.2c0.23333,-0.4 0.55,-0.75 0.95,-1.05M686.09459,262.62958c0,-2.7 1.26667,-3.91667 3.8,-3.65c2.53333,0.26667 3.8,1.58333 3.8,3.95c0,0.03333 0,0.06667 0,0.1c0.16667,0 0.35,0 0.55,0c2.73333,0.16667 4.1,1.46667 4.1,3.9c0,1.4 -0.51667,2.5 -1.55,3.3c-1.23333,0.96667 -2.1,2.61667 -2.6,4.95c-0.33333,0.16667 -0.66667,0.3 -1,0.4c-0.23333,-0.23333 -0.81667,-1.61667 -1.75,-4.15c-0.9,-2.56667 -1.35,-4.08333 -1.35,-4.55c0,-0.1 0,-0.2 0,-0.3c-0.13333,0 -0.26667,0 -0.4,0c-1.56667,0 -2.63333,-0.63333 -3.2,-1.9c-0.26667,-0.56667 -0.4,-1.25 -0.4,-2.05M748.84459,306.22958c0,1.93333 -2.38333,4.06667 -7.15,6.4c-5.53333,2.33333 -9.03333,3.83333 -10.5,4.5c-0.56667,-0.2 -0.86667,-0.3 -0.9,-0.3c-0.23333,-0.2 -0.35,-0.56667 -0.35,-1.1c0,-0.86667 1.53333,-2.11667 4.6,-3.75c3.03333,-1.63333 4.55,-3.68333 4.55,-6.15c0,-3 1.63333,-4.31667 4.9,-3.95c1.3,0.13333 2.41667,0.58333 3.35,1.35c1,0.83333 1.5,1.83333 1.5,3M735.79459,271.77958c-8.26667,5.83333 -13.3,9.71667 -15.1,11.65c-0.36667,-0.03333 -0.6,-0.06667 -0.7,-0.1c-0.2,-0.06667 -0.3,-0.36667 -0.3,-0.9c0,-0.5 1.58333,-3.18333 4.75,-8.05c3.1,-4.8 5.48333,-8.23333 7.15,-10.3c0.93333,-1.16667 1.93333,-2.8 3,-4.9c0.93333,-1.9 1.8,-3.26667 2.6,-4.1c2.46667,-2.6 4.78333,-3.1 6.95,-1.5c1.8,1.33333 2.7,2.86667 2.7,4.6c0,3.36667 -3.68333,7.9 -11.05,13.6z" fill="#ffffff"/></g></g></svg>