<svg version="1.1" xmlns="http://www.w3.org/2000/svg" xmlns:xlink="http://www.w3.org/1999/xlink" width="141.50423" height="138.79947" viewBox="0,0,141.50423,138.79947"><g transform="translate(-569.24788,-290.60026)"><g data-paper-data="{&quot;isPaintingLayer&quot;:true}" fill-rule="nonzero" stroke="none" stroke-width="1" stroke-linecap="butt" stroke-linejoin="miter" stroke-miterlimit="10" stroke-dasharray="" stroke-dashoffset="0" style="mix-blend-mode: normal"><g><path d="M613.69788,341.54418c-0.66667,-1.26667 -1.43333,-2.55 -2.3,-3.85c-0.16667,-0.26667 -0.33333,-0.53333 -0.5,-0.8c0.53333,0.7 1.08333,1.5 1.65,2.4c0.43333,0.66667 0.81667,1.33333 1.15,2c0,0.06667 0,0.15 0,0.25M683.19788,333.64418c2.43333,2.2 6.2,6.2 11.3,12c5.66667,6.2 8.51667,9.91667 8.55,11.15c0.13333,1.06667 -6.2,9.86667 -19,26.4c-0.26667,0.63333 -0.86667,1.4 -1.8,2.3c-0.5,0.76667 -1.2,1.61667 -2.1,2.55c-1.5,1.93333 -3.41667,4.26667 -5.75,7c1.13333,-1.53333 2.01667,-2.76667 2.65,-3.7c-4.8,5.76667 -9.66667,11.75 -14.6,17.95c-3.1,3.13333 -6.25,5.66667 -9.45,7.6c-4.13333,2.76667 -10.85,4.2 -20.15,4.3c-9.06667,-0.73333 -18.55,-8.41667 -28.45,-23.05c-9.93333,-13.73333 -17.01667,-24 -21.25,-30.8c-4.1,-7.03333 -6.21667,-11.13333 -6.35,-12.3c-0.1,-0.96667 3.35,-4.11667 10.35,-9.45c7.13333,-5.7 11.43333,-9.05 12.9,-10.05c0.36667,0.7 0.73333,1.38333 1.1,2.05c-1.76667,1.33333 -5.66667,4.38333 -11.7,9.15c-6.63333,5.1 -9.93333,8.11667 -9.9,9.05c0.16667,1.13333 2.21667,5.01667 6.15,11.65c4,6.53333 10.73333,16.3 20.2,29.3c9.4,13.93333 18.41667,21.26667 27.05,22c8.86667,-0.1 15.26667,-1.46667 19.2,-4.1c3.03333,-1.83333 6.03333,-4.26667 9,-7.3c4.7,-5.86667 9.33333,-11.53333 13.9,-17c-0.63333,0.93333 -1.48333,2.1 -2.55,3.5c2.23333,-2.6 4.05,-4.83333 5.45,-6.7c0.86667,-0.86667 1.53333,-1.65 2,-2.35c0.86667,-0.86667 1.45,-1.6 1.75,-2.2c12.16667,-15.8 18.18333,-24.18333 18.05,-25.15c-0.03333,-1.13333 -2.73333,-4.68333 -8.1,-10.65c-4.6,-5.13333 -8.06667,-8.81667 -10.4,-11.05c0.86667,-0.93333 1.51667,-1.63333 1.95,-2.1M655.94788,324.39418c-0.6,18.3 -0.91667,27.9 -0.95,28.8c0,1.1 0.1,2.08333 0.3,2.95c0.46667,1.93333 1.58333,2.86667 3.35,2.8c0.33333,0 0.68333,-0.05 1.05,-0.15c-0.83333,0.46667 -1.55,0.7 -2.15,0.7c-1.7,0.06667 -2.78333,-0.8 -3.25,-2.6c-0.2,-0.83333 -0.26667,-1.78333 -0.2,-2.85c-0.03333,-0.83333 0.23333,-9.98333 0.8,-27.45c0.26667,-6.4 0.48333,-11.28333 0.65,-14.65c-0.4,-1.73333 -0.75,-4.33333 -1.05,-7.8c-6.86667,-1.2 -13.7,-1.58333 -20.5,-1.15c-4.9,1.4 -8.21667,2.73333 -9.95,4c-1.83333,1.36667 -2.75,3.1 -2.75,5.2c-0.03333,1.7 -0.06667,3 -0.1,3.9c-0.06667,1.76667 -0.11667,3.36667 -0.15,4.8c-0.03333,1.46667 -0.08333,3.73333 -0.15,6.8c-0.03333,3.03333 -0.06667,12.85 -0.1,29.45c0.03333,0.33333 0.01667,0.85 -0.05,1.55c-0.13333,0.2 -0.26667,0.45 -0.4,0.75h-0.05c-0.23333,0.3 -0.81667,0.45 -1.75,0.45c-0.6,0 -1.3,-0.3 -2.1,-0.9c0.5,0.26667 0.93333,0.4 1.3,0.4c0.96667,0 1.58333,-0.18333 1.85,-0.55h0.05c0.13333,-0.26667 0.25,-0.53333 0.35,-0.8c0.1,-0.7 0.13333,-1.21667 0.1,-1.55c0.06667,-17.46667 0.11667,-27.8 0.15,-31c0.03333,-3.2 0.06667,-5.56667 0.1,-7.1c0.03333,-1.5 0.08333,-3.18333 0.15,-5.05c0,-0.93333 0.01667,-2.3 0.05,-4.1c0.03333,-2.2 1.01667,-4.01667 2.95,-5.45c1.83333,-1.36667 5.3,-2.76667 10.4,-4.2c7.16667,-0.46667 14.35,-0.1 21.55,1.1c0.36667,3.7 0.73333,6.46667 1.1,8.3c-0.13333,3.53333 -0.33333,8.66667 -0.6,15.4z" fill="#ffffff"/><path d="M663.54788,305.69418c-0.03333,5.9 -0.01667,10.21667 0.05,12.95c0.26667,5.16667 0.4,9.25 0.4,12.25c0.1,4.76667 -0.08333,9.01667 -0.55,12.75c0.06667,0.13333 0.13333,0.26667 0.2,0.4c0.03333,0.16667 0.06667,0.33333 0.1,0.5c0.6,-0.66667 1.71667,-2.3 3.35,-4.9c2.03333,-3.23333 3.53333,-5.45 4.5,-6.65c0.43333,-0.6 0.88333,-1.18333 1.35,-1.75c3.76667,-4.26667 7.36667,-6.21667 10.8,-5.85c3.13333,0.5 8.58333,5.91667 16.35,16.25c2.56667,3.26667 5.08333,6.66667 7.55,10.2c2.13333,3.13333 3.16667,4.73333 3.1,4.8c0.13333,2.1 -2.88333,7.25 -9.05,15.45c-3,4.13333 -6.18333,8.2 -9.55,12.2c-2.5,2.86667 -6.33333,7.73333 -11.5,14.6c-2.33333,2.8 -4.66667,5.25 -7,7.35c-4.5,6.06667 -9.8,11.25 -15.9,15.55c-8.06667,6.16667 -16.25,8.58333 -24.55,7.25c-9.8,-2.1 -19.45,-8.53333 -28.95,-19.3c-3.46667,-1.86667 -10.18333,-10.76667 -20.15,-26.7c-9.86667,-15.33333 -14.81667,-24.5 -14.85,-27.5c0.06667,-2.73333 0.86667,-5.1 2.4,-7.1c1.56667,-1.86667 5.66667,-4.95 12.3,-9.25c6.83333,-4.56667 11.88333,-7.85 15.15,-9.85c3.23333,-1.73333 7.16667,0.78333 11.8,7.55c0.16667,0.26667 0.33333,0.53333 0.5,0.8c0.86667,1.3 1.63333,2.58333 2.3,3.85c0,-0.1 0,-0.18333 0,-0.25c0.23333,-2.36667 0.45,-4.98333 0.65,-7.85c0.06667,-2.73333 -0.06667,-7.03333 -0.4,-12.9c-0.3,-5.93333 -0.45,-9.11667 -0.45,-9.55c0.06667,-0.63333 0.03333,-2.1 -0.1,-4.4c0.13333,-2.16667 0.58333,-4.15 1.35,-5.95c2.66667,-5.36667 8.85,-8.63333 18.55,-9.8c8.2,-0.63333 16.5,-0.03333 24.9,1.8c3.03333,3.63333 4.81667,7.98333 5.35,13.05M633.89788,299.59418c-5.1,1.43333 -8.56667,2.83333 -10.4,4.2c-1.93333,1.43333 -2.91667,3.25 -2.95,5.45c-0.03333,1.8 -0.05,3.16667 -0.05,4.1c-0.06667,1.86667 -0.11667,3.55 -0.15,5.05c-0.03333,1.53333 -0.06667,3.9 -0.1,7.1c-0.03333,3.2 -0.08333,13.53333 -0.15,31c0.03333,0.33333 0,0.85 -0.1,1.55c-0.1,0.26667 -0.21667,0.53333 -0.35,0.8h-0.05c-0.26667,0.36667 -0.88333,0.55 -1.85,0.55c-0.36667,0 -0.8,-0.13333 -1.3,-0.4c-1.9,-0.93333 -4.55,-4 -7.95,-9.2c-2.4,-3.7 -4.85,-7.76667 -7.35,-12.2c-0.36667,-0.66667 -0.73333,-1.35 -1.1,-2.05c-1.46667,1 -5.76667,4.35 -12.9,10.05c-7,5.33333 -10.45,8.48333 -10.35,9.45c0.13333,1.16667 2.25,5.26667 6.35,12.3c4.23333,6.8 11.31667,17.06667 21.25,30.8c9.9,14.63333 19.38333,22.31667 28.45,23.05c9.3,-0.1 16.01667,-1.53333 20.15,-4.3c3.2,-1.93333 6.35,-4.46667 9.45,-7.6c4.93333,-6.2 9.8,-12.18333 14.6,-17.95c-0.63333,0.93333 -1.51667,2.16667 -2.65,3.7c2.33333,-2.73333 4.25,-5.06667 5.75,-7c0.9,-0.93333 1.6,-1.78333 2.1,-2.55c0.93333,-0.9 1.53333,-1.66667 1.8,-2.3c12.8,-16.53333 19.13333,-25.33333 19,-26.4c-0.03333,-1.23333 -2.88333,-4.95 -8.55,-11.15c-5.1,-5.8 -8.86667,-9.8 -11.3,-12c-0.43333,0.46667 -1.08333,1.16667 -1.95,2.1c-2.1,2.46667 -5.43333,6.55 -10,12.25c-5.2,6.36667 -9.05,9.96667 -11.55,10.8c-0.36667,0.1 -0.71667,0.15 -1.05,0.15c-1.76667,0.06667 -2.88333,-0.86667 -3.35,-2.8c-0.2,-0.86667 -0.3,-1.85 -0.3,-2.95c0.03333,-0.9 0.35,-10.5 0.95,-28.8c0.26667,-6.73333 0.46667,-11.86667 0.6,-15.4c-0.36667,-1.83333 -0.73333,-4.6 -1.1,-8.3c-7.2,-1.2 -14.38333,-1.56667 -21.55,-1.1z" fill="#201e31"/><path d="M655.54788,311.94418c-0.16667,3.36667 -0.38333,8.25 -0.65,14.65c-0.56667,17.46667 -0.83333,26.61667 -0.8,27.45c-0.06667,1.06667 0,2.01667 0.2,2.85c0.46667,1.8 1.55,2.66667 3.25,2.6c0.6,0 1.31667,-0.23333 2.15,-0.7c2.5,-0.83333 6.35,-4.43333 11.55,-10.8c4.56667,-5.7 7.9,-9.78333 10,-12.25c2.33333,2.23333 5.8,5.91667 10.4,11.05c5.36667,5.96667 8.06667,9.51667 8.1,10.65c0.13333,0.96667 -5.88333,9.35 -18.05,25.15c-0.3,0.6 -0.88333,1.33333 -1.75,2.2c-0.46667,0.7 -1.13333,1.48333 -2,2.35c-1.4,1.86667 -3.21667,4.1 -5.45,6.7c1.06667,-1.4 1.91667,-2.56667 2.55,-3.5c-4.56667,5.46667 -9.2,11.13333 -13.9,17c-2.96667,3.03333 -5.96667,5.46667 -9,7.3c-3.93333,2.63333 -10.33333,4 -19.2,4.1c-8.63333,-0.73333 -17.65,-8.06667 -27.05,-22c-9.46667,-13 -16.2,-22.76667 -20.2,-29.3c-3.93333,-6.63333 -5.98333,-10.51667 -6.15,-11.65c-0.03333,-0.93333 3.26667,-3.95 9.9,-9.05c6.03333,-4.76667 9.93333,-7.81667 11.7,-9.15c2.5,4.43333 4.95,8.5 7.35,12.2c3.4,5.2 6.05,8.26667 7.95,9.2c0.8,0.6 1.5,0.9 2.1,0.9c0.93333,0 1.51667,-0.15 1.75,-0.45h0.05c0.13333,-0.3 0.26667,-0.55 0.4,-0.75c0.06667,-0.7 0.08333,-1.21667 0.05,-1.55c0.03333,-16.6 0.06667,-26.41667 0.1,-29.45c0.06667,-3.06667 0.11667,-5.33333 0.15,-6.8c0.03333,-1.43333 0.08333,-3.03333 0.15,-4.8c0.03333,-0.9 0.06667,-2.2 0.1,-3.9c0,-2.1 0.91667,-3.83333 2.75,-5.2c1.73333,-1.26667 5.05,-2.6 9.95,-4c6.8,-0.43333 13.63333,-0.05 20.5,1.15c0.3,3.46667 0.65,6.06667 1.05,7.8M622.29788,355.99418l0.05,-0.3l-0.05,-0.05c0,0.1 0,0.21667 0,0.35z" fill="#51b5bd"/><path d="M622.29788,355.99418c0,-0.13333 0,-0.25 0,-0.35l0.05,0.05z" fill="#000000"/></g></g></g></svg>