<svg version="1.1" xmlns="http://www.w3.org/2000/svg" xmlns:xlink="http://www.w3.org/1999/xlink" width="702.35" height="321.76026" viewBox="0,0,702.35,321.76026"><g transform="translate(-288.825,-199.11987)"><g data-paper-data="{&quot;isPaintingLayer&quot;:true}" fill-rule="nonzero" stroke="none" stroke-width="1" stroke-linecap="round" stroke-linejoin="miter" stroke-miterlimit="4" stroke-dasharray="" stroke-dashoffset="0" style="mix-blend-mode: normal"><path d="M515.575,248.78013c5.56667,0.4 8.65,0.68333 9.25,0.85l48.75,0.25c5.66667,0.8 8.5,4.05 8.5,9.75c0,1 -1.43333,7.35 -4.3,19.05c-3.13333,12.73333 -4.95,20.63333 -5.45,23.7c-0.33333,2.16667 -1,5.71667 -2,10.65c-0.83333,4.43333 -1.25,7.88333 -1.25,10.35c0,0.46667 0.16667,1.81667 0.5,4.05c0.3,2.43333 0.36667,4.51667 0.2,6.25c-0.56667,5.46667 -3.46667,8.2 -8.7,8.2c-9.33333,-0.93333 -15.58333,-2.18333 -18.75,-3.75l-34.25,0.25v21.5c1.6,-0.06667 7.45,-1.26667 17.55,-3.6c9.93333,-2.26667 15.91667,-3.4 17.95,-3.4c4.73333,0 8,1.08333 9.8,3.25c0.96667,1.2 1.45,2.7 1.45,4.5c0,4.56667 -0.86667,11.35 -2.6,20.35c-1.76667,8.96667 -2.65,15.55 -2.65,19.75c0,0.66667 0.21667,1.41667 0.65,2.25c13.46667,0.5 22.68333,1.96667 27.65,4.4c2.36667,1.16667 3.76667,2.58333 4.2,4.25v3.35c0,3.73333 -0.68333,7.9 -2.05,12.5c-1.63333,5.53333 -2.61667,9.75 -2.95,12.65c-0.4,3.33333 -0.51667,8.1 -0.35,14.3c0.06667,3.16667 0.18333,6.51667 0.35,10.05c0,0.86667 0.03333,2.26667 0.1,4.2c-0.03333,1.73333 -0.35,3.16667 -0.95,4.3c-1.63333,3.1 -5.85,4.73333 -12.65,4.9l-35.5,0.25c-0.33333,0.1 -2.61667,0.25 -6.85,0.45c-4,0.2 -6.71667,0.3 -8.15,0.3c-1.66667,0 -21,-0.5 -58,-1.5c-3.66667,0 -6.5,-0.58333 -8.5,-1.75c-0.16667,-0.1 -0.31667,-0.18333 -0.45,-0.25c-0.16667,0 -0.35,0 -0.55,0c-3.33333,0 -5.33333,-2.16667 -6,-6.5v-0.95c-1.53333,1 -3.1,1.98333 -4.7,2.95c-10.9,6.5 -23.03333,11.51667 -36.4,15.05c-11.2,2.96667 -21.16667,4.45 -29.9,4.45c-13.56667,0 -26.96667,-1.66667 -40.2,-5c-4.16667,-1.03333 -8.15,-2.2 -11.95,-3.5c-3.03333,-1.1 -4.65,-1.68333 -4.85,-1.75c-11.43333,-4.2 -18.38333,-7.75 -20.85,-10.65c-1.1,-1.26667 -1.73333,-2.8 -1.9,-4.6v-5.65c0,-5.16667 1.35,-12.81667 4.05,-22.95c1.83333,-6.8 3.98333,-13.76667 6.45,-20.9c2.33333,-9.46667 4.51667,-17.28333 6.55,-23.45c3.83333,-11.7 7.73333,-17.55 11.7,-17.55c0.6,0 2.61667,1.33333 6.05,4c4.8,3.7 8.91667,6.61667 12.35,8.75c13.5,8.5 27.03333,12.75 40.6,12.75c10.46667,0 18.96667,-3.06667 25.5,-9.2c2.3,-2.2 4.15,-4.58333 5.55,-7.15c1.13333,-2.1 1.7,-3.73333 1.7,-4.9c0,-2.6 -0.88333,-5.08333 -2.65,-7.45c-2.83333,-3.8 -7.28333,-5.56667 -13.35,-5.3h-26.5l-3.25,0.75h-30c-14.9,-1.46667 -25.4,-7.35 -31.5,-17.65c-3.83333,-6.4 -5.75,-14.15 -5.75,-23.25c0,-7.8 2.51667,-17.63333 7.55,-29.5c5.66667,-13.26667 11.98333,-22.05 18.95,-26.35c8.63333,-5.3 18.68333,-9.31667 30.15,-12.05c11,-2.6 21.91667,-3.7 32.75,-3.3c11.03333,0.4 20.46667,2.3 28.3,5.7c4.43333,1.9 8.08333,4.2 10.95,6.9c2.33333,-3.03333 4.51667,-2.93333 6.55,0.3c0.86667,1.4 1.61667,3.23333 2.25,5.5c0.53333,1.83333 0.8,3.15 0.8,3.95c0,4.96667 -0.21667,8.8 -0.65,11.5c-0.06667,0.33333 -1.1,5.25 -3.1,14.75c-0.23333,1.1 -0.46667,3.41667 -0.7,6.95c-0.26667,3.7 -0.56667,6.51667 -0.9,8.45c-0.3,1.56667 -0.68333,2.95 -1.15,4.15c2,0.86667 3.93333,1.78333 5.8,2.75c3.66667,1.9 7.08333,3.98333 10.25,6.25c0.1,-4.16667 0.93333,-10.33333 2.5,-18.5c1.8,-9.3 2.78333,-15.81667 2.95,-19.55c0.26667,-6.76667 1.26667,-12.51667 3,-17.25c0.03333,-0.06667 0.06667,-0.15 0.1,-0.25c-0.23333,-1.03333 -0.35,-1.58333 -0.35,-1.65c0,-6.8 1.96667,-13.13333 5.9,-19c4.13333,-6.2 8.58333,-8.73333 13.35,-7.6h34c0.86667,0.16667 4.2,0.46667 10,0.9M504.325,263.13013h-29.5c-2.06667,0.73333 -3.75,2.38333 -5.05,4.95c-0.76667,1.46667 -1.66667,4.03333 -2.7,7.7c-0.53333,1.86667 -1.03333,3.41667 -1.5,4.65c-0.3,2.93333 -0.83333,7.1 -1.6,12.5c-1.26667,8.6 -1.9,14.5 -1.9,17.7c0,0.76667 -0.5,4.15 -1.5,10.15c-1,6 -1.5,9.11667 -1.5,9.35c0,0.2 0.11667,1.28333 0.35,3.25c0.16667,2.23333 0.15,4.21667 -0.05,5.95c-0.26667,2.16667 -0.83333,3.91667 -1.7,5.25c1.2,1.53333 2.33333,3.13333 3.4,4.8c5.03333,7.86667 9.13333,16.08333 12.3,24.65c3.46667,9.33333 5.2,17.48333 5.2,24.45c0,24.56667 -9.23333,44.88333 -27.7,60.95c0.3,1.56667 0.5,3.26667 0.6,5.1c0.7,-0.2 1.45,-0.38333 2.25,-0.55c5.06667,-1.03333 12.88333,-1.43333 23.45,-1.2c6.03333,0.13333 15.26667,0.46667 27.7,1c10.43333,0.3 18,0 22.7,-0.9l34,-0.5c0,-1.03333 -0.08333,-2.85 -0.25,-5.45c-0.16667,-2.56667 -0.25,-4.25 -0.25,-5.05c0,-1.73333 0.8,-7.53333 2.4,-17.4c1.16667,-7.2 2.03333,-12.31667 2.6,-15.35c-5.9,-0.2 -13.4,-0.35 -22.5,-0.45c-4.66667,-0.03333 -9.16667,-0.05 -13.5,-0.05c-5.2,0.3 -10.3,0.61667 -15.3,0.95c-3,0.2 -4.9,0.3 -5.7,0.3c-4.43333,0 -7.43333,-1.25 -9,-3.75c-0.46667,-0.76667 -0.78333,-1.63333 -0.95,-2.6l-0.05,-1.15c0,-3.43333 1.95,-5.71667 5.85,-6.85c3.8,-1.1 12.68333,-1.98333 26.65,-2.65c2.03333,-0.03333 4.01667,-0.05 5.95,-0.05c-0.3,-1.73333 -0.46667,-3.63333 -0.5,-5.7c0.03333,-1.86667 0.05,-2.83333 0.05,-2.9c0,-4.03333 0.18333,-7.51667 0.55,-10.45c0.4,-3.46667 1.13333,-6.85 2.2,-10.15v-4.5c-6.43333,1.46667 -12.43333,2.81667 -18,4.05c-10.96667,2.46667 -17.71667,3.7 -20.25,3.7c-6.46667,0 -9.81667,-3.15 -10.05,-9.45c-0.06667,-2 0.18333,-4.51667 0.75,-7.55c0.7,-3.56667 1.05,-5.4 1.05,-5.5c0.23333,-3 0.1,-7.36667 -0.4,-13.1c-0.56667,-5.43333 -0.85,-8.56667 -0.85,-9.4c0,-2.4 0.15,-3.9 0.45,-4.5c0.9,-1.7 3.25,-3.2 7.05,-4.5h44c0.5,0.1 1.43333,0.26667 2.8,0.5c1.46667,0.23333 3.2,0.4 5.2,0.5l2.5,0.25c0.26667,-8.2 1.51667,-17.91667 3.75,-29.15c1.86667,-9.3 4.28333,-19.16667 7.25,-29.6l-41.5,-0.5c-0.86667,-0.16667 -4.2,-0.45 -10,-0.85c-5.56667,-0.43333 -8.65,-0.73333 -9.25,-0.9M421.175,278.13013c0.13333,-0.86667 0.26667,-1.68333 0.4,-2.45c-1.73333,-0.76667 -3.56667,-1.53333 -5.5,-2.3c-8.93333,-3.5 -16.93333,-5.25 -24,-5.25c-32.9,0 -55.98333,7.75 -69.25,23.25c-8,9.33333 -12,20.83333 -12,34.5c0,5.33333 1.36667,10.28333 4.1,14.85c4.33333,7.26667 11.3,10.98333 20.9,11.15h26.5l3.25,-0.75h29c11.53333,1 19.68333,4.65 24.45,10.95c3.2,4.23333 4.8,9.58333 4.8,16.05c0,2.4 -0.65,5.33333 -1.95,8.8c-1.7,4.46667 -4.11667,8.53333 -7.25,12.2c-8.86667,10.33333 -21.71667,15.5 -38.55,15.5c-5.96667,0 -13.3,-1.4 -22,-4.2c-7.96667,-2.9 -12.46667,-4.5 -13.5,-4.8c-2.53333,-0.66667 -5.96667,-2.33333 -10.3,-5c-4.63333,-3 -7.78333,-5 -9.45,-6c-1.33333,3.13333 -4.53333,12.88333 -9.6,29.25c-5.93333,19.03333 -8.9,30.56667 -8.9,34.6c0,4.63333 8.58333,8.85 25.75,12.65c14.96667,3.33333 28.46667,5 40.5,5c28.4,0 52,-8.66667 70.8,-26c8.03333,-7.43333 14.28333,-15.8 18.75,-25.1c4.3,-9 6.45,-17.88333 6.45,-26.65c0,-5.83333 -2.36667,-14.03333 -7.1,-24.6c-4.4,-9.8 -8.78333,-17.35 -13.15,-22.65c-2.5,-3.1 -7.41667,-6.75 -14.75,-10.95c-8.43333,-4.83333 -16.01667,-7.76667 -22.75,-8.8c-6.33333,-0.96667 -13.45,-1.6 -21.35,-1.9c-7.96667,-0.16667 -13.5,-0.33333 -16.6,-0.5c-5.03333,-0.3 -8.61667,-0.98333 -10.75,-2.05c-2.53333,-1.3 -3.8,-3.48333 -3.8,-6.55c0,-2 0.75,-3.75 2.25,-5.25c2.2,-2.16667 5.7,-3.25 10.5,-3.25c17.5,0 32.96667,1.86667 46.4,5.6c0.33333,-2.8 1.3,-8 2.9,-15.6c1.7,-7.96667 2.85,-13.05 3.45,-15.25c0.2,-0.8 0.65,-3.63333 1.35,-8.5M866.175,471.38013c3.23333,4.46667 6.1,8.25 8.6,11.35c0.93333,1.5 1.4,4.33333 1.4,8.5c0,8.96667 -5.65,16.35 -16.95,22.15c-9.76667,5 -20.28333,7.5 -31.55,7.5c-16.83333,0 -28.5,-4.41667 -35,-13.25c-3.33333,-4.53333 -5,-9.66667 -5,-15.4c0,-11.56667 5.93333,-20.41667 17.8,-26.55c3.83333,-1.96667 8.73333,-3.85 14.7,-5.65c7.36667,-2.23333 11.28333,-3.45 11.75,-3.65c5.83333,-2.26667 12.63333,-1.1 20.4,3.5c5.23333,3.1 9.85,6.93333 13.85,11.5M853.225,479.28013c-6.2,-5.33333 -12.71667,-7.55 -19.55,-6.65c-10.76667,1.3 -19.06667,4.16667 -24.9,8.6c-4.73333,3.56667 -7.1,7.36667 -7.1,11.4c0,2.9 1.6,5.65 4.8,8.25c4.1,3.33333 9.75,5 16.95,5c6.23333,0 13.75,-1.41667 22.55,-4.25c10.13333,-3.26667 15.2,-6.76667 15.2,-10.5c0,-1.33333 -0.71667,-3.1 -2.15,-5.3c-1.5,-2.36667 -3.43333,-4.55 -5.8,-6.55M716.225,420.93013c3.76667,-4.6 7.73333,-7.98333 11.9,-10.15c4.46667,-2.33333 8.61667,-2.96667 12.45,-1.9c12.23333,0.16667 22.55,6.85 30.95,20.05c3,4.73333 5.43333,9.83333 7.3,15.3c1.56667,4.6 2.35,8.1 2.35,10.5c0,1.73333 -0.48333,4.2 -1.45,7.4c-1.33333,4.56667 -3.26667,8.73333 -5.8,12.5c-7.56667,11.33333 -18.85,17 -33.85,17c-15.53333,0 -26.2,-6.06667 -32,-18.2c-2.83333,-5.93333 -4.25,-12.7 -4.25,-20.3c0,-5.46667 1.16667,-11.13333 3.5,-17c2.23333,-5.6 5.2,-10.66667 8.9,-15.2M731.575,424.13013c-9.5,8.73333 -14.25,18.43333 -14.25,29.1c0,4.33333 1,8.71667 3,13.15c3.13333,7 7.96667,10.5 14.5,10.5c13.46667,0 22.68333,-3.75 27.65,-11.25c2.5,-3.76667 3.65,-7.6 3.45,-11.5c0,-0.56667 -0.88333,-3.01667 -2.65,-7.35c-1.8,-4.33333 -2.75,-6.63333 -2.85,-6.9c-1.46667,-4.9 -3.3,-7.93333 -5.5,-9.1c-0.83333,-0.43333 -2.91667,-0.65 -6.25,-0.65c-1.3,0 -2.16667,-0.4 -2.6,-1.2c-0.4,-1.1 -0.78333,-1.95 -1.15,-2.55c-1.43333,-2.26667 -5.88333,-3.01667 -13.35,-2.25M879.675,223.88013c38.26667,8.9 67.36667,24.03333 87.3,45.4c8.23333,8.8 14.43333,18.25 18.6,28.35c3.73333,9 5.6,17.83333 5.6,26.5c0,9.73333 -1.15,17.63333 -3.45,23.7c-3.26667,8.7 -9.45,16.55 -18.55,23.55c-4.16667,3.2 -12.03333,7.2 -23.6,12c-9.26667,3.83333 -15.98333,6.33333 -20.15,7.5c-8.16667,2.83333 -14.16667,4.68333 -18,5.55c-5.53333,1.23333 -18.03333,2.55 -37.5,3.95c0.03333,0.03333 4.31667,5.18333 12.85,15.45c7.6,9.13333 11.4,14.98333 11.4,17.55c0,2.1 -0.48333,3.6 -1.45,4.5c-2.2,2 -6.88333,3 -14.05,3c-1.3,0 -3.45,-0.1 -6.45,-0.3c-3.03333,-0.16667 -4.8,-0.31667 -5.3,-0.45l-47.25,-0.25c-13.43333,-0.33333 -22.2,-2.05 -26.3,-5.15c-1.53333,-1.16667 -2.51667,-2.6 -2.95,-4.3c-0.16667,-0.73333 -0.25,-2.13333 -0.25,-4.2c0,-4.86667 1.88333,-11.2 5.65,-19c4.53333,-8.53333 7.56667,-14.56667 9.1,-18.1c2.4,-5.46667 4.68333,-11.23333 6.85,-17.3c1.8,-4.96667 3,-8 3.6,-9.1c0.96667,-1.86667 2.26667,-3.03333 3.9,-3.5c1.26667,-0.4 3.9,-0.6 7.9,-0.6c10.6,0 22.2,-1.56667 34.8,-4.7c5.1,-1.26667 11,-3.03333 17.7,-5.3c10.46667,-4.03333 17.1,-7.55 19.9,-10.55c1.2,-1.33333 1.96667,-2.81667 2.3,-4.45c0.2,-0.9 0.3,-2.53333 0.3,-4.9c0,-2.8 -0.11667,-4.75 -0.35,-5.85c-0.63333,-2.8 -2.1,-5.21667 -4.4,-7.25c-6.6,-5.83333 -20.13333,-8.75 -40.6,-8.75c-19.93333,0 -34.36667,1.75 -43.3,5.25c-1.1,0.43333 -2.71667,1.21667 -4.85,2.35c-3.5,10.7 -8.58333,27.95 -15.25,51.75c-7.8,25.76667 -13.71667,38.65 -17.75,38.65c-2.3,0 -4,-0.41667 -5.1,-1.25c-1.1,-1.1 -2.21667,-1.93333 -3.35,-2.5c-4.5,-2.3 -15.63333,-2.96667 -33.4,-2c-11.16667,0.53333 -16.75,-1.71667 -16.75,-6.75c0,-0.83333 0.85,-4.15 2.55,-9.95c1.53333,-5.2 2.51667,-8.38333 2.95,-9.55c-0.1,-3.36667 0.01667,-6.3 0.35,-8.8c-5.76667,-0.96667 -12.55,-2.28333 -20.35,-3.95c-16.56667,-3.86667 -25.06667,-5.86667 -25.5,-6v44.25c-0.66667,4 -1,10.25 -1,18.75c0,9.03333 0.5,16.41667 1.5,22.15c1,5.73333 1.5,10.85 1.5,15.35c0,4.3 -0.86667,7.11667 -2.6,8.45c-3.13333,2.43333 -9.51667,2.45 -19.15,0.05h-42.5c-1.83333,0.86667 -5.38333,1.71667 -10.65,2.55c-4.96667,0.8 -8.83333,1.2 -11.6,1.2c-4.76667,0 -7.76667,-1.5 -9,-4.5c-0.4,-0.96667 -0.6,-2.03333 -0.6,-3.2c0.06667,-1.03333 0.1,-1.6 0.1,-1.7c0,-9.96667 5.51667,-30.36667 16.55,-61.2c8.26667,-23.16667 15.08333,-40.63333 20.45,-52.4c-4.53333,0.4 -12.95,2.28333 -25.25,5.65c-11.36667,3.23333 -17.11667,4.85 -17.25,4.85c-3.8,0 -6.21667,-1.31667 -7.25,-3.95c-0.33333,-0.86667 -0.5,-2.63333 -0.5,-5.3c0,-5.1 2.01667,-13.38333 6.05,-24.85c4.5,-11.96667 7.23333,-19.68333 8.2,-23.15c0.96667,-3.36667 1.81667,-7.95 2.55,-13.75c0.73333,-6.56667 1.31667,-11.38333 1.75,-14.45c1.63333,-10.9 4.7,-17.25 9.2,-19.05h40c15.86667,2.53333 33.25,4.53333 52.15,6c10.16667,0.76667 23.11667,1.7 38.85,2.8c0.26667,0.03333 0.53333,0.06667 0.8,0.1c0,-0.1 0,-0.18333 0,-0.25c0.13333,-1.76667 0.2,-2.73333 0.2,-2.9c0,-4.03333 0.5,-8.95 1.5,-14.75c1,-5.83333 1.5,-11.66667 1.5,-17.5c0.3,-1.6 0.56667,-4.38333 0.8,-8.35c0.2,-3.66667 0.51667,-6.38333 0.95,-8.15c0.96667,-4.16667 6.36667,-6.65 16.2,-7.45c8.46667,-0.73333 17.93333,-0.16667 28.4,1.7h34.5c3.2,-0.73333 11.61667,-1.4 25.25,-2c3.2,0.63333 5.33333,1.88333 6.4,3.75c0.56667,0.96667 0.85,2.33333 0.85,4.1c0,0.9 -2.36667,7.93333 -7.1,21.1c-1.66667,4.63333 -3.13333,8.8 -4.4,12.5c1.8,-3.13333 3.3,-5.95 4.5,-8.45c0.8,-1.63333 1.88333,-4.16667 3.25,-7.6c1.7,-2.66667 4.53333,-4.13333 8.5,-4.4c4.43333,-0.33333 9.2,0.01667 14.3,1.05c7.46667,1.56667 12.36667,2.46667 14.7,2.7M813.675,215.38013h-35c-1.4,-0.26667 -11.23333,-0.93333 -29.5,-2c-1.4,9.1 -2.4,19.1 -3,30c-0.03333,0.36667 0.01667,2.7 0.15,7c0.1,3.76667 0,6.88333 -0.3,9.35c-0.06667,0.53333 -0.13333,1.05 -0.2,1.55c2.83333,0.66667 5.16667,1.43333 7,2.3c5.56667,2.63333 8.35,6.76667 8.35,12.4c0,2.53333 -1.21667,10.46667 -3.65,23.8c-2.03333,11.06667 -3.48333,18.51667 -4.35,22.35c-0.7,3.16667 -0.96667,7.73333 -0.8,13.7c0.2,8.2 0.26667,12.95 0.2,14.25c-0.2,5.03333 -1.11667,8.78333 -2.75,11.25c-1.96667,3.03333 -5.21667,4.55 -9.75,4.55c-0.4,0 -0.81667,0 -1.25,0c-0.13333,3.93333 -1.46667,9.85 -4,17.75c17.13333,0.4 27.91667,1.06667 32.35,2l3.25,-0.25c5.53333,-19.43333 9.71667,-33.7 12.55,-42.8c4.86667,-15.7 9.76667,-29.93333 14.7,-42.7c4.33333,-11.06667 9.35,-25.33333 15.05,-42.8c7.63333,-23.5 12.28333,-37.65 13.95,-42.45c-5.66667,0 -10,0.25 -13,0.75M846.725,249.58013c-0.96667,2.4 -1.98333,4.25 -3.05,5.55c-1.9,3.13333 -6.15,9.95 -12.75,20.45c-5.46667,8.66667 -9.55,15.35 -12.25,20.05l-0.25,0.75c0.33333,0 1.28333,-0.23333 2.85,-0.7c2.03333,-0.6 4.41667,-1.11667 7.15,-1.55c9.63333,-1.5 24.71667,-2.25 45.25,-2.25c18.53333,0 31.28333,5.76667 38.25,17.3c3.5,5.76667 5.25,12.5 5.25,20.2c0,6.1 -0.61667,10.5 -1.85,13.2c-2.5,5.43333 -7.96667,9.95 -16.4,13.55c-16,6.76667 -24.73333,10.41667 -26.2,10.95c-9.13333,3.2 -18.23333,4.96667 -27.3,5.3c-10.53333,0.36667 -17,1.6 -19.4,3.7c-0.86667,0.76667 -1.4,1.8 -1.6,3.1c-0.1,0.73333 -0.26667,1.88333 -0.5,3.45c-0.56667,1.86667 -1.38333,4.13333 -2.45,6.8c-0.63333,1.53333 -1.56667,3.76667 -2.8,6.7c-4.5,10.5 -8.58333,19.5 -12.25,27c0.16667,0.16667 2.26667,0.41667 6.3,0.75c4.36667,0.33333 6.85,0.58333 7.45,0.75l48.25,0.25c-7.03333,-9.76667 -12.4,-17.23333 -16.1,-22.4c-6.76667,-9.4 -10.15,-14.48333 -10.15,-15.25c0,-1.76667 0.66667,-3.38333 2,-4.85c1.53333,-1.66667 3.53333,-2.5 6,-2.5c1.33333,0 2.56667,0.25 3.7,0.75c0.7,0.3 1.9,0.85 3.6,1.65c4.1,1.56667 10.75,2.35 19.95,2.35c15.03333,0 29.75,-2.5 44.15,-7.5c7.93333,-2.76667 20.13333,-8.26667 36.6,-16.5c7.7,-3.83333 12.9,-9.68333 15.6,-17.55c1.6,-4.63333 2.4,-10.91667 2.4,-18.85c0,-13.73333 -5.7,-27.53333 -17.1,-41.4c-13.6,-16.5 -32.81667,-29.23333 -57.65,-38.2c-18.13333,-6.46667 -32.46667,-9.3 -43,-8.5c-4.2,0.3 -7.33333,2.76667 -9.4,7.4c-0.56667,1.26667 -1.33333,3.28333 -2.3,6.05M636.325,265.13013h-31.25c-1.53333,7.6 -4.71667,19.3 -9.55,35.1c-4.8,15.63333 -7.95,27.26667 -9.45,34.9c0.93333,-0.1 8.18333,-1.7 21.75,-4.8c13,-2.96667 20.25,-4.45 21.75,-4.45c4.23333,0 7.08333,1.25 8.55,3.75c0.63333,1.1 0.95,2.46667 0.95,4.1c0,2.03333 -3.48333,11.4 -10.45,28.1c-7.73333,18.56667 -11.83333,28.58333 -12.3,30.05c-2.23333,6.9 -5,16.38333 -8.3,28.45c-4.33333,15.76667 -6.98333,25.28333 -7.95,28.55l0.05,0.4c0.1,0.3 0.25,0.5 0.45,0.6c0.63333,-0.13333 2.68333,-0.43333 6.15,-0.9c3.4,-0.46667 5.68333,-0.83333 6.85,-1.1h45c1.76667,0.3 2.85,0.55 3.25,0.75c0.43333,-0.06667 0.8,-0.08333 1.1,-0.05c0.1,-0.03333 0.15,-0.6 0.15,-1.7c0,-0.83333 -0.33333,-5.7 -1,-14.6c-0.66667,-8.93333 -1,-13.81667 -1,-14.65c0,-9.5 0.33333,-16.75 1,-21.75v-54.75c0.46667,-1.7 1.25,-3.08333 2.35,-4.15c1.43333,-1.4 3.31667,-2.1 5.65,-2.1c0.03333,0 7.13333,2.18333 21.3,6.55c16.63333,4.6 31.03333,7.41667 43.2,8.45c1.96667,-18.73333 3.3,-30.68333 4,-35.85c2,-14.26667 4.53333,-26.56667 7.6,-36.9c-3.16667,-0.66667 -39.78333,-4.66667 -109.85,-12z" fill="#000000"/><path d="M419.825,286.63013c-0.6,2.2 -1.75,7.28333 -3.45,15.25c-1.6,7.6 -2.56667,12.8 -2.9,15.6c-13.43333,-3.73333 -28.9,-5.6 -46.4,-5.6c-4.8,0 -8.3,1.08333 -10.5,3.25c-1.5,1.5 -2.25,3.25 -2.25,5.25c0,3.06667 1.26667,5.25 3.8,6.55c2.13333,1.06667 5.71667,1.75 10.75,2.05c3.1,0.16667 8.63333,0.33333 16.6,0.5c7.9,0.3 15.01667,0.93333 21.35,1.9c6.73333,1.03333 14.31667,3.96667 22.75,8.8c7.33333,4.2 12.25,7.85 14.75,10.95c4.36667,5.3 8.75,12.85 13.15,22.65c4.73333,10.56667 7.1,18.76667 7.1,24.6c0,8.76667 -2.15,17.65 -6.45,26.65c-4.46667,9.3 -10.71667,17.66667 -18.75,25.1c-18.8,17.33333 -42.4,26 -70.8,26c-12.03333,0 -25.53333,-1.66667 -40.5,-5c-17.16667,-3.8 -25.75,-8.01667 -25.75,-12.65c0,-4.03333 2.96667,-15.56667 8.9,-34.6c5.06667,-16.36667 8.26667,-26.11667 9.6,-29.25c1.66667,1 4.81667,3 9.45,6c4.33333,2.66667 7.76667,4.33333 10.3,5c1.03333,0.3 5.53333,1.9 13.5,4.8c8.7,2.8 16.03333,4.2 22,4.2c16.83333,0 29.68333,-5.16667 38.55,-15.5c3.13333,-3.66667 5.55,-7.73333 7.25,-12.2c1.3,-3.46667 1.95,-6.4 1.95,-8.8c0,-6.46667 -1.6,-11.81667 -4.8,-16.05c-4.76667,-6.3 -12.91667,-9.95 -24.45,-10.95h-29l-3.25,0.75h-26.5c-9.6,-0.16667 -16.56667,-3.88333 -20.9,-11.15c-2.73333,-4.56667 -4.1,-9.51667 -4.1,-14.85c0,-13.66667 4,-25.16667 12,-34.5c13.26667,-15.5 36.35,-23.25 69.25,-23.25c7.06667,0 15.06667,1.75 24,5.25c1.93333,0.76667 3.76667,1.53333 5.5,2.3c-0.13333,0.76667 -0.26667,1.58333 -0.4,2.45c-0.7,4.86667 -1.15,7.7 -1.35,8.5M859.025,485.83013c1.43333,2.2 2.15,3.96667 2.15,5.3c0,3.73333 -5.06667,7.23333 -15.2,10.5c-8.8,2.83333 -16.31667,4.25 -22.55,4.25c-7.2,0 -12.85,-1.66667 -16.95,-5c-3.2,-2.6 -4.8,-5.35 -4.8,-8.25c0,-4.03333 2.36667,-7.83333 7.1,-11.4c5.83333,-4.43333 14.13333,-7.3 24.9,-8.6c6.83333,-0.9 13.35,1.31667 19.55,6.65c2.36667,2 4.3,4.18333 5.8,6.55M738.575,314.03013c-0.7,5.16667 -2.03333,17.11667 -4,35.85c-12.16667,-1.03333 -26.56667,-3.85 -43.2,-8.45c-14.16667,-4.36667 -21.26667,-6.55 -21.3,-6.55c-2.33333,0 -4.21667,0.7 -5.65,2.1c-1.1,1.06667 -1.88333,2.45 -2.35,4.15v54.75c-0.66667,5 -1,12.25 -1,21.75c0,0.83333 0.33333,5.71667 1,14.65c0.66667,8.9 1,13.76667 1,14.6c0,1.1 -0.05,1.66667 -0.15,1.7c-0.3,-0.03333 -0.66667,-0.01667 -1.1,0.05c-0.4,-0.2 -1.48333,-0.45 -3.25,-0.75h-45c-1.16667,0.26667 -3.45,0.63333 -6.85,1.1c-3.46667,0.46667 -5.51667,0.76667 -6.15,0.9c-0.2,-0.1 -0.35,-0.3 -0.45,-0.6l-0.05,-0.4c0.96667,-3.26667 3.61667,-12.78333 7.95,-28.55c3.3,-12.06667 6.06667,-21.55 8.3,-28.45c0.46667,-1.46667 4.56667,-11.48333 12.3,-30.05c6.96667,-16.7 10.45,-26.06667 10.45,-28.1c0,-1.63333 -0.31667,-3 -0.95,-4.1c-1.46667,-2.5 -4.31667,-3.75 -8.55,-3.75c-1.5,0 -8.75,1.48333 -21.75,4.45c-13.56667,3.1 -20.81667,4.7 -21.75,4.8c1.5,-7.63333 4.65,-19.26667 9.45,-34.9c4.83333,-15.8 8.01667,-27.5 9.55,-35.1h31.25c70.06667,7.33333 106.68333,11.33333 109.85,12c-3.06667,10.33333 -5.6,22.63333 -7.6,36.9M858.425,236.13013c10.53333,-0.8 24.86667,2.03333 43,8.5c24.83333,8.96667 44.05,21.7 57.65,38.2c11.4,13.86667 17.1,27.66667 17.1,41.4c0,7.93333 -0.8,14.21667 -2.4,18.85c-2.7,7.86667 -7.9,13.71667 -15.6,17.55c-16.46667,8.23333 -28.66667,13.73333 -36.6,16.5c-14.4,5 -29.11667,7.5 -44.15,7.5c-9.2,0 -15.85,-0.78333 -19.95,-2.35c-1.7,-0.8 -2.9,-1.35 -3.6,-1.65c-1.13333,-0.5 -2.36667,-0.75 -3.7,-0.75c-2.46667,0 -4.46667,0.83333 -6,2.5c-1.33333,1.46667 -2,3.08333 -2,4.85c0,0.76667 3.38333,5.85 10.15,15.25c3.7,5.16667 9.06667,12.63333 16.1,22.4l-48.25,-0.25c-0.6,-0.16667 -3.08333,-0.41667 -7.45,-0.75c-4.03333,-0.33333 -6.13333,-0.58333 -6.3,-0.75c3.66667,-7.5 7.75,-16.5 12.25,-27c1.23333,-2.93333 2.16667,-5.16667 2.8,-6.7c1.06667,-2.66667 1.88333,-4.93333 2.45,-6.8c0.23333,-1.56667 0.4,-2.71667 0.5,-3.45c0.2,-1.3 0.73333,-2.33333 1.6,-3.1c2.4,-2.1 8.86667,-3.33333 19.4,-3.7c9.06667,-0.33333 18.16667,-2.1 27.3,-5.3c1.46667,-0.53333 10.2,-4.18333 26.2,-10.95c8.43333,-3.6 13.9,-8.11667 16.4,-13.55c1.23333,-2.7 1.85,-7.1 1.85,-13.2c0,-7.7 -1.75,-14.43333 -5.25,-20.2c-6.96667,-11.53333 -19.71667,-17.3 -38.25,-17.3c-20.53333,0 -35.61667,0.75 -45.25,2.25c-2.73333,0.43333 -5.11667,0.95 -7.15,1.55c-1.56667,0.46667 -2.51667,0.7 -2.85,0.7l0.25,-0.75c2.7,-4.7 6.78333,-11.38333 12.25,-20.05c6.6,-10.5 10.85,-17.31667 12.75,-20.45c1.06667,-1.3 2.08333,-3.15 3.05,-5.55c0.96667,-2.76667 1.73333,-4.78333 2.3,-6.05c2.06667,-4.63333 5.2,-7.1 9.4,-7.4z" fill="#fff477"/><path d="M513.575,264.03013c5.8,0.4 9.13333,0.68333 10,0.85l41.5,0.5c-2.96667,10.43333 -5.38333,20.3 -7.25,29.6c-2.23333,11.23333 -3.48333,20.95 -3.75,29.15l-2.5,-0.25c-2,-0.1 -3.73333,-0.26667 -5.2,-0.5c-1.36667,-0.23333 -2.3,-0.4 -2.8,-0.5h-44c-3.8,1.3 -6.15,2.8 -7.05,4.5c-0.3,0.6 -0.45,2.1 -0.45,4.5c0,0.83333 0.28333,3.96667 0.85,9.4c0.5,5.73333 0.63333,10.1 0.4,13.1c0,0.1 -0.35,1.93333 -1.05,5.5c-0.56667,3.03333 -0.81667,5.55 -0.75,7.55c0.23333,6.3 3.58333,9.45 10.05,9.45c2.53333,0 9.28333,-1.23333 20.25,-3.7c5.56667,-1.23333 11.56667,-2.58333 18,-4.05v4.5c-1.06667,3.3 -1.8,6.68333 -2.2,10.15c-0.36667,2.93333 -0.55,6.41667 -0.55,10.45c0,0.06667 -0.01667,1.03333 -0.05,2.9c0.03333,2.06667 0.2,3.96667 0.5,5.7c-1.93333,0 -3.91667,0.01667 -5.95,0.05c-13.96667,0.66667 -22.85,1.55 -26.65,2.65c-3.9,1.13333 -5.85,3.41667 -5.85,6.85l0.05,1.15c0.16667,0.96667 0.48333,1.83333 0.95,2.6c1.56667,2.5 4.56667,3.75 9,3.75c0.8,0 2.7,-0.1 5.7,-0.3c5,-0.33333 10.1,-0.65 15.3,-0.95c4.33333,0 8.83333,0.01667 13.5,0.05c9.1,0.1 16.6,0.25 22.5,0.45c-0.56667,3.03333 -1.43333,8.15 -2.6,15.35c-1.6,9.86667 -2.4,15.66667 -2.4,17.4c0,0.8 0.08333,2.48333 0.25,5.05c0.16667,2.6 0.25,4.41667 0.25,5.45l-34,0.5c-4.7,0.9 -12.26667,1.2 -22.7,0.9c-12.43333,-0.53333 -21.66667,-0.86667 -27.7,-1c-10.56667,-0.23333 -18.38333,0.16667 -23.45,1.2c-0.8,0.16667 -1.55,0.35 -2.25,0.55c-0.1,-1.83333 -0.3,-3.53333 -0.6,-5.1c18.46667,-16.06667 27.7,-36.38333 27.7,-60.95c0,-6.96667 -1.73333,-15.11667 -5.2,-24.45c-3.16667,-8.56667 -7.26667,-16.78333 -12.3,-24.65c-1.06667,-1.66667 -2.2,-3.26667 -3.4,-4.8c0.86667,-1.33333 1.43333,-3.08333 1.7,-5.25c0.2,-1.73333 0.21667,-3.71667 0.05,-5.95c-0.23333,-1.96667 -0.35,-3.05 -0.35,-3.25c0,-0.23333 0.5,-3.35 1.5,-9.35c1,-6 1.5,-9.38333 1.5,-10.15c0,-3.2 0.63333,-9.1 1.9,-17.7c0.76667,-5.4 1.3,-9.56667 1.6,-12.5c0.46667,-1.23333 0.96667,-2.78333 1.5,-4.65c1.03333,-3.66667 1.93333,-6.23333 2.7,-7.7c1.3,-2.56667 2.98333,-4.21667 5.05,-4.95h29.5c0.6,0.16667 3.68333,0.46667 9.25,0.9M744.925,426.38013c0.36667,0.6 0.75,1.45 1.15,2.55c0.43333,0.8 1.3,1.2 2.6,1.2c3.33333,0 5.41667,0.21667 6.25,0.65c2.2,1.16667 4.03333,4.2 5.5,9.1c0.1,0.26667 1.05,2.56667 2.85,6.9c1.76667,4.33333 2.65,6.78333 2.65,7.35c0.2,3.9 -0.95,7.73333 -3.45,11.5c-4.96667,7.5 -14.18333,11.25 -27.65,11.25c-6.53333,0 -11.36667,-3.5 -14.5,-10.5c-2,-4.43333 -3,-8.81667 -3,-13.15c0,-10.66667 4.75,-20.36667 14.25,-29.1c7.46667,-0.76667 11.91667,-0.01667 13.35,2.25M812.725,257.08013c-5.7,17.46667 -10.71667,31.73333 -15.05,42.8c-4.93333,12.76667 -9.83333,27 -14.7,42.7c-2.83333,9.1 -7.01667,23.36667 -12.55,42.8l-3.25,0.25c-4.43333,-0.93333 -15.21667,-1.6 -32.35,-2c2.53333,-7.9 3.86667,-13.81667 4,-17.75c0.43333,0 0.85,0 1.25,0c4.53333,0 7.78333,-1.51667 9.75,-4.55c1.63333,-2.46667 2.55,-6.21667 2.75,-11.25c0.06667,-1.3 0,-6.05 -0.2,-14.25c-0.16667,-5.96667 0.1,-10.53333 0.8,-13.7c0.86667,-3.83333 2.31667,-11.28333 4.35,-22.35c2.43333,-13.33333 3.65,-21.26667 3.65,-23.8c0,-5.63333 -2.78333,-9.76667 -8.35,-12.4c-1.83333,-0.86667 -4.16667,-1.63333 -7,-2.3c0.06667,-0.5 0.13333,-1.01667 0.2,-1.55c0.3,-2.46667 0.4,-5.58333 0.3,-9.35c-0.13333,-4.3 -0.18333,-6.63333 -0.15,-7c0.6,-10.9 1.6,-20.9 3,-30c18.26667,1.06667 28.1,1.73333 29.5,2h35c3,-0.5 7.33333,-0.75 13,-0.75c-1.66667,4.8 -6.31667,18.95 -13.95,42.45z" fill="#ffcc00"/></g></g></svg>