<svg version="1.1" xmlns="http://www.w3.org/2000/svg" xmlns:xlink="http://www.w3.org/1999/xlink" width="793.85" height="173.9" viewBox="0,0,793.85,173.9"><g transform="translate(-244.0955,-274.0527)"><g data-paper-data="{&quot;isPaintingLayer&quot;:true}" fill-rule="nonzero" stroke="none" stroke-width="1" stroke-linecap="butt" stroke-linejoin="miter" stroke-miterlimit="10" stroke-dasharray="" stroke-dashoffset="0" style="mix-blend-mode: normal"><path d="M273.3955,287.6027c0.23333,-0.33333 0.46667,-0.68333 0.7,-1.05c0.83333,-0.36667 1.66667,-0.73333 2.5,-1.1c0.36667,-0.23333 0.73333,-0.46667 1.1,-0.7c0.6,-0.23333 1.18333,-0.46667 1.75,-0.7c0.36667,-0.36667 0.73333,-0.71667 1.1,-1.05c0.33333,-0.26667 0.68333,-0.51667 1.05,-0.75c0.13333,-0.1 0.25,-0.21667 0.35,-0.35c0.6,-0.23333 1.2,-0.46667 1.8,-0.7c0.36667,-0.23333 0.71667,-0.46667 1.05,-0.7c0.6,-0.26667 1.2,-0.51667 1.8,-0.75c0.36667,-0.23333 0.73333,-0.46667 1.1,-0.7c0.56667,0 1.15,-0.05 1.75,-0.15c0,-0.03333 0,-0.1 0,-0.2c5.23333,0 10.48333,0.03333 15.75,0.1c2.83333,0.03333 5.68333,0.11667 8.55,0.25c0.6,0.23333 1.2,0.46667 1.8,0.7c1.3,0.23333 2.6,0.48333 3.9,0.75c0.6,0.23333 1.2,0.46667 1.8,0.7c0.36667,0.23333 0.71667,0.46667 1.05,0.7c0.6,0.23333 1.2,0.46667 1.8,0.7c0.36667,0.26667 0.73333,0.51667 1.1,0.75c0.46667,0.1 0.93333,0.21667 1.4,0.35c0.6,0.23333 1.2,0.46667 1.8,0.7c0.46667,0.36667 0.93333,0.71667 1.4,1.05c0.26667,0.26667 0.51667,0.51667 0.75,0.75c0.1,0.1 0.23333,0.18333 0.4,0.25c0.56667,0.3 1.15,0.56667 1.75,0.8c0.46667,0.36667 0.93333,0.73333 1.4,1.1c0.23333,0.33333 0.46667,0.68333 0.7,1.05c0.26667,0.36667 0.51667,0.71667 0.75,1.05c0.33333,0.36667 0.68333,0.73333 1.05,1.1c0.36667,0.36667 0.73333,0.71667 1.1,1.05c0.33333,0.36667 0.68333,0.73333 1.05,1.1c0.23333,0.33333 0.46667,0.68333 0.7,1.05c0.23333,0.36667 0.48333,0.73333 0.75,1.1c0.03724,0.12422 0.07057,0.24089 0.1,0.35c0.32292,-0.10911 0.63958,-0.22578 0.95,-0.35c0.36667,-0.36667 0.71667,-0.73333 1.05,-1.1c0.26667,-0.23333 0.51667,-0.46667 0.75,-0.7c0.23333,-0.13333 0.46667,-0.25 0.7,-0.35c0.6,-0.23333 1.2,-0.48333 1.8,-0.75c0.33333,-0.23333 0.68333,-0.46667 1.05,-0.7c0.6,-0.23333 1.2,-0.46667 1.8,-0.7c0.33333,-0.23333 0.68333,-0.46667 1.05,-0.7c0.6,-0.26667 1.2,-0.51667 1.8,-0.75c0.36667,-0.23333 0.71667,-0.46667 1.05,-0.7c0.6,-0.23333 1.2,-0.46667 1.8,-0.7c0.36667,-0.23333 0.71667,-0.48333 1.05,-0.75c0.5,-0.1 0.98333,-0.21667 1.45,-0.35c0.7,-0.23333 1.41667,-0.46667 2.15,-0.7c0.7,-0.23333 1.41667,-0.46667 2.15,-0.7c0.7,-0.23333 1.41667,-0.48333 2.15,-0.75c0.7,-0.23333 1.4,-0.46667 2.1,-0.7c0.5,-0.23333 0.98333,-0.48333 1.45,-0.75c0.36667,-0.2 0.71667,-0.41667 1.05,-0.65c0.6,-0.13333 1.2,-0.25 1.8,-0.35c1.56667,-0.26667 3.11667,-0.55 4.65,-0.85c0.83333,-0.16667 1.66667,-0.36667 2.5,-0.6c5.23333,0 10.46667,0 15.7,0c0.73333,0.23333 1.46667,0.45 2.2,0.65c1.16667,0.26667 2.33333,0.55 3.5,0.85c0.73333,0.2 1.45,0.41667 2.15,0.65c0.36667,0.23333 0.73333,0.46667 1.1,0.7c0.6,0.23333 1.2,0.46667 1.8,0.7c0.33333,0.23333 0.68333,0.48333 1.05,0.75c0.6,0.23333 1.2,0.46667 1.8,0.7c0.33333,0.23333 0.68333,0.46667 1.05,0.7c0.6,0.23333 1.2,0.46667 1.8,0.7c0.36667,0.36667 0.71667,0.73333 1.05,1.1c0.5,0.36667 0.98333,0.71667 1.45,1.05c0.36667,0.36667 0.71667,0.73333 1.05,1.1c0.73333,0.33333 1.45,0.68333 2.15,1.05c0.36667,0.36667 0.73333,0.73333 1.1,1.1c0.33333,0.33333 0.68333,0.68333 1.05,1.05c0.23333,0.36667 0.46667,0.71667 0.7,1.05c0.13333,0.36667 0.25,0.73333 0.35,1.1c0.23333,0 0.48333,0 0.75,0c0.23333,-0.36667 0.46667,-0.73333 0.7,-1.1c0.1,-0.33333 0.21667,-0.68333 0.35,-1.05c0.13333,-0.36667 0.25,-0.71667 0.35,-1.05c0.36667,-0.36667 0.73333,-0.73333 1.1,-1.1c0.33333,-0.36667 0.68333,-0.71667 1.05,-1.05c0.36667,-0.36667 0.71667,-0.73333 1.05,-1.1c0.36667,-0.33333 0.73333,-0.68333 1.1,-1.05c0.83333,-0.36667 1.66667,-0.73333 2.5,-1.1c0.36667,-0.23333 0.71667,-0.46667 1.05,-0.7c0.73333,-0.23333 1.45,-0.48333 2.15,-0.75c0.83333,-0.33333 1.66667,-0.68333 2.5,-1.05c0.36667,-0.23333 0.73333,-0.46667 1.1,-0.7c0.56667,-0.23333 1.15,-0.46667 1.75,-0.7c0.36667,-0.23333 0.73333,-0.46667 1.1,-0.7c0.83333,-0.23333 1.66667,-0.48333 2.5,-0.75c0.33333,-0.23333 0.68333,-0.45 1.05,-0.65c0.23333,-0.13333 0.46667,-0.26667 0.7,-0.4c0.6,-0.13333 1.2,-0.25 1.8,-0.35c1.06667,-0.23333 2.13333,-0.48333 3.2,-0.75c0.83333,-0.23333 1.66667,-0.46667 2.5,-0.7c3,-0.23333 5.98333,-0.48333 8.95,-0.75c0.83333,-0.1 1.65,-0.26667 2.45,-0.5c0.03333,0 0.05,-0.05 0.05,-0.15c1.9,0 3.8,0 5.7,0c0.73333,0.23333 1.45,0.46667 2.15,0.7c2.63333,0.23333 5.25,0.46667 7.85,0.7c0.73333,0.23333 1.46667,0.45 2.2,0.65c1.16667,0.3 2.33333,0.58333 3.5,0.85c0.73333,0.2 1.46667,0.38333 2.2,0.55c1.16667,0.3 2.33333,0.6 3.5,0.9c0.73333,0.2 1.46667,0.41667 2.2,0.65c2.13333,0.23333 4.26667,0.46667 6.4,0.7c0.73333,0.23333 1.45,0.46667 2.15,0.7c2.13333,0.23333 4.28333,0.46667 6.45,0.7c0.7,0.26667 1.41667,0.48333 2.15,0.65c1.16667,0.3 2.33333,0.6 3.5,0.9c0.73333,0.16667 1.46667,0.36667 2.2,0.6c0.7,0.23333 1.41667,0.48333 2.15,0.75c0.7,0.23333 1.4,0.46667 2.1,0.7c0.73333,0.23333 1.45,0.46667 2.15,0.7c0.73333,0.23333 1.45,0.46667 2.15,0.7c0.36667,0.26667 0.73333,0.51667 1.1,0.75c0.56667,0.23333 1.15,0.46667 1.75,0.7c0.5,0.36667 0.98333,0.71667 1.45,1.05c0.23333,0.26667 0.46667,0.51667 0.7,0.75c0.13333,0.1 0.26667,0.18333 0.4,0.25c0.56667,0.3 1.15,0.56667 1.75,0.8c0.36667,0.36667 0.71667,0.73333 1.05,1.1c0.26667,0.33333 0.51667,0.68333 0.75,1.05c0.6,0.36667 1.18333,0.71667 1.75,1.05c0.36667,0.36667 0.73333,0.73333 1.1,1.1c0.36667,0.36667 0.71667,0.71667 1.05,1.05c0.36667,0.36667 0.73333,0.73333 1.1,1.1c0.33333,0.33333 0.68333,0.68333 1.05,1.05c0.36667,0.36667 0.73333,0.73333 1.1,1.1c0.33333,0.33333 0.68333,0.68333 1.05,1.05c0.36667,0.36667 0.71667,0.71667 1.05,1.05c0.13333,0.36667 0.26667,0.73333 0.4,1.1c0.23333,0.36667 0.46667,0.71667 0.7,1.05c0,0.36667 0,0.73333 0,1.1c0.1,0.33333 0.21667,0.68333 0.35,1.05c0.36667,0.36667 0.71667,0.73333 1.05,1.1c0.26667,0.33333 0.51667,0.68333 0.75,1.05c0.06563,0.24049 0.13229,0.47383 0.2,0.7c4.45625,0 8.90625,0 13.35,0c0.7,0.23333 1.41667,0.45 2.15,0.65c1.2,0.3 2.38333,0.6 3.55,0.9c0.73333,0.16667 1.45,0.36667 2.15,0.6c0.36667,0.23333 0.73333,0.46667 1.1,0.7c0.56667,0.26667 1.15,0.51667 1.75,0.75c0.5,0.33333 0.98333,0.68333 1.45,1.05c0.23333,0.23333 0.46667,0.46667 0.7,0.7c0.13333,0.13333 0.26667,0.23333 0.4,0.3c0.56667,0.3 1.15,0.56667 1.75,0.8c0.36667,0.36667 0.71667,0.71667 1.05,1.05c0.26667,0.36667 0.51667,0.73333 0.75,1.1c0.46667,0 0.93333,0 1.4,0c0.36667,-0.36667 0.73333,-0.73333 1.1,-1.1c0.23333,-0.33333 0.46667,-0.68333 0.7,-1.05c0,-0.36667 0,-0.73333 0,-1.1c0,-0.33333 0,-0.68333 0,-1.05c0.23333,-0.36667 0.46667,-0.71667 0.7,-1.05c0.23333,-0.36667 0.48333,-0.73333 0.75,-1.1c0.1,-0.36667 0.21667,-0.71667 0.35,-1.05c0.23333,-0.36667 0.46667,-0.73333 0.7,-1.1c0.36667,-0.33333 0.71667,-0.68333 1.05,-1.05c0.26667,-0.36667 0.51667,-0.73333 0.75,-1.1c0.1,-0.33333 0.21667,-0.68333 0.35,-1.05c0.23333,-0.36667 0.46667,-0.71667 0.7,-1.05c0.13333,-0.36667 0.25,-0.73333 0.35,-1.1c0.13333,-0.36667 0.25,-0.71667 0.35,-1.05c0.36667,-0.36667 0.73333,-0.73333 1.1,-1.1c0.36667,-0.33333 0.71667,-0.68333 1.05,-1.05c0.13333,-0.36667 0.25,-0.73333 0.35,-1.1c0.13333,-0.33333 0.26667,-0.68333 0.4,-1.05c0.23333,-0.36667 0.46667,-0.71667 0.7,-1.05c0.1,-0.36667 0.21667,-0.73333 0.35,-1.1c0.23333,-0.36667 0.46667,-0.71667 0.7,-1.05c0.36667,-0.36667 0.73333,-0.73333 1.1,-1.1c0.23333,-0.33333 0.46667,-0.68333 0.7,-1.05c0.13333,-0.36667 0.25,-0.73333 0.35,-1.1c0.23333,-0.33333 0.46667,-0.68333 0.7,-1.05c0.36667,-0.36667 0.73333,-0.71667 1.1,-1.05c0.23333,-0.36667 0.46667,-0.73333 0.7,-1.1c0.13333,-0.36667 0.25,-0.71667 0.35,-1.05c0.23333,-0.36667 0.48333,-0.73333 0.75,-1.1c0.33333,-0.33333 0.68333,-0.68333 1.05,-1.05c0.36667,-0.36667 0.71667,-0.73333 1.05,-1.1c0.36667,-0.33333 0.73333,-0.68333 1.1,-1.05c0.36667,-0.36667 0.71667,-0.71667 1.05,-1.05c0.36667,-0.36667 0.73333,-0.73333 1.1,-1.1c0.33333,-0.36667 0.68333,-0.71667 1.05,-1.05c0.36667,-0.23333 0.73333,-0.46667 1.1,-0.7c0.56667,-0.26667 1.15,-0.51667 1.75,-0.75c0.36667,-0.23333 0.73333,-0.46667 1.1,-0.7c0.6,-0.23333 1.18333,-0.46667 1.75,-0.7c0.36667,-0.36667 0.73333,-0.73333 1.1,-1.1c0.23333,-0.23333 0.46667,-0.46667 0.7,-0.7c0.23333,-0.13333 0.48333,-0.25 0.75,-0.35c0.56667,-0.23333 1.15,-0.46667 1.75,-0.7c0.36667,-0.26667 0.73333,-0.51667 1.1,-0.75c0.56667,0 1.15,-0.05 1.75,-0.15v-0.2c4.3,0 8.58333,0 12.85,0c0.73333,0.23333 1.45,0.46667 2.15,0.7c0.73333,0.26667 1.45,0.51667 2.15,0.75c0.7,0.23333 1.41667,0.46667 2.15,0.7c0.36667,0.23333 0.71667,0.46667 1.05,0.7c0.6,0.23333 1.2,0.48333 1.8,0.75c0.46667,0.33333 0.95,0.68333 1.45,1.05c0.33333,0.36667 0.68333,0.71667 1.05,1.05c0.36667,0.36667 0.71667,0.73333 1.05,1.1c0.36667,0.33333 0.73333,0.68333 1.1,1.05c0.23333,0.36667 0.46667,0.73333 0.7,1.1c0.23333,0.33333 0.46667,0.68333 0.7,1.05c0.13333,0.36667 0.26667,0.71667 0.4,1.05c0.23333,0.36667 0.46667,0.73333 0.7,1.1c0.1,0.36667 0.21667,0.71667 0.35,1.05c0.23333,0.36667 0.46667,0.73333 0.7,1.1c0.13333,0.33333 0.25,0.68333 0.35,1.05c0.26667,0.36667 0.51667,0.73333 0.75,1.1c0.1,0.33333 0.21667,0.68333 0.35,1.05c0.23333,0.36667 0.46667,0.71667 0.7,1.05c0.13333,0.36667 0.25,0.73333 0.35,1.1c0,0.36667 0,0.71667 0,1.05c0.13333,0.36667 0.25,0.73333 0.35,1.1c0.26667,0.33333 0.51667,0.68333 0.75,1.05c0.1,0.36667 0.21667,0.73333 0.35,1.1c0,0.33333 0,0.68333 0,1.05c0.1,0.36667 0.21667,0.71667 0.35,1.05c0.23333,0.36667 0.46667,0.73333 0.7,1.1c0.13333,0.36667 0.25,0.71667 0.35,1.05c0,0.36667 0,0.73333 0,1.1c0,0.33333 0,0.68333 0,1.05c-0.1,0.36667 -0.21667,0.73333 -0.35,1.1c0,0.33333 0,0.68333 0,1.05c0,0.36667 0,0.71667 0,1.05c0,0.36667 0,0.73333 0,1.1c0,0.36667 0,0.71667 0,1.05c0,0.36667 0,0.73333 0,1.1c0,0.33333 0,0.68333 0,1.05c-0.23333,0.36667 -0.46667,0.73333 -0.7,1.1c-0.23333,0.33333 -0.46667,0.68333 -0.7,1.05c0,0.36667 0,0.71667 0,1.05c0,0.36667 0,0.73333 0,1.1c-0.23333,0.36667 -0.48333,0.71667 -0.75,1.05c-0.23333,0.36667 -0.46667,0.73333 -0.7,1.1c0,0.33333 0,0.68333 0,1.05c0,0.36667 0,0.73333 0,1.1c0,0.33333 0,0.68333 0,1.05c0,0.36667 0,0.71667 0,1.05c-0.1,0.36667 -0.21667,0.73333 -0.35,1.1c-0.13333,0.36667 -0.25,0.71667 -0.35,1.05c-0.23333,0.36667 -0.46667,0.73333 -0.7,1.1c-0.13333,0.33333 -0.26667,0.68333 -0.4,1.05c-0.23333,0.36667 -0.46667,0.73333 -0.7,1.1c-0.1,0.33333 -0.21667,0.68333 -0.35,1.05c-0.23333,0.36667 -0.46667,0.71667 -0.7,1.05c-0.23333,0.36667 -0.48333,0.73333 -0.75,1.1c-0.1,0.36667 -0.21667,0.71667 -0.35,1.05c-0.1,0.36667 -0.21667,0.73333 -0.35,1.1c-0.23333,0.33333 -0.46667,0.68333 -0.7,1.05c-0.36667,0.36667 -0.73333,0.73333 -1.1,1.1c-0.23333,0.33333 -0.46667,0.68333 -0.7,1.05c-0.1,0.36667 -0.21667,0.71667 -0.35,1.05c-0.23333,0.36667 -0.46667,0.73333 -0.7,1.1c-0.36667,0.36667 -0.73333,0.71667 -1.1,1.05c-0.33333,0.36667 -0.68333,0.73333 -1.05,1.1c-0.23333,0.33333 -0.46667,0.68333 -0.7,1.05c-0.26667,0.36667 -0.51667,0.73333 -0.75,1.1c-0.23333,0.33333 -0.46667,0.68333 -0.7,1.05c-0.23333,0.36667 -0.46667,0.71667 -0.7,1.05c-0.5,0.36667 -0.98333,0.73333 -1.45,1.1c-0.23333,0.36667 -0.46667,0.71667 -0.7,1.05c-0.36667,0.36667 -0.73333,0.73333 -1.1,1.1c-0.33333,0.33333 -0.68333,0.68333 -1.05,1.05c-0.36667,0.36667 -0.71667,0.71667 -1.05,1.05c-0.36667,0.36667 -0.73333,0.73333 -1.1,1.1c-0.36667,0.36667 -0.71667,0.71667 -1.05,1.05c-0.23333,0.36667 -0.48333,0.73333 -0.75,1.1c-0.1,0.33333 -0.21667,0.68333 -0.35,1.05c-0.23333,0.36667 -0.46667,0.73333 -0.7,1.1c-0.46667,0.33333 -0.93333,0.68333 -1.4,1.05c-0.26667,0.23333 -0.51667,0.46667 -0.75,0.7c-0.6,0.23333 -1.18333,0.48333 -1.75,0.75c-0.36667,0.33333 -0.73333,0.68333 -1.1,1.05c-0.36667,0.36667 -0.71667,0.71667 -1.05,1.05c-0.36667,0.36667 -0.73333,0.73333 -1.1,1.1c-0.33333,0.36667 -0.68333,0.71667 -1.05,1.05c-0.73333,0.73333 -1.45,1.45 -2.15,2.15c-0.36667,0.36667 -0.71667,0.73333 -1.05,1.1c-0.73333,0.7 -1.45,1.4 -2.15,2.1c0,0.36667 0,0.73333 0,1.1c0.1,0.36667 0.21667,0.71667 0.35,1.05c0.1,0.36667 0.21667,0.73333 0.35,1.1c0.23333,0.33333 0.46667,0.68333 0.7,1.05c0.23333,0.36667 0.48333,0.73333 0.75,1.1c0,0.33333 0,0.68333 0,1.05c0,0.36667 0,0.71667 0,1.05c0.23333,0.36667 0.46667,0.73333 0.7,1.1c0.23333,0.36667 0.46667,0.71667 0.7,1.05c0.13333,0.36667 0.25,0.73333 0.35,1.1c0.23333,0.33333 0.48333,0.68333 0.75,1.05c0.23333,0.36667 0.46667,0.73333 0.7,1.1c0.23333,0.33333 0.46667,0.68333 0.7,1.05c0.13333,0.36667 0.25,0.71667 0.35,1.05c0.23333,0.36667 0.48333,0.73333 0.75,1.1c0.1,0.36667 0.21667,0.71667 0.35,1.05c0.23333,0.36667 0.46667,0.73333 0.7,1.1c0,0.33333 0,0.68333 0,1.05c0.13333,0.36667 0.25,0.73333 0.35,1.1c0.13333,0.33333 0.25,0.68333 0.35,1.05c0.23333,0.36667 0.48333,0.71667 0.75,1.05c0,0.36667 0,0.73333 0,1.1c-0.13333,0.36667 -0.26667,0.71667 -0.4,1.05c0,0.36667 0,0.73333 0,1.1c0,0.33333 0,0.68333 0,1.05c0,0.36667 0,0.73333 0,1.1c0,0.33333 0,0.68333 0,1.05c0,0.36667 0,0.71667 0,1.05c0,0.36667 0,0.73333 0,1.1c0,0.36667 0,0.71667 0,1.05c0,0.36667 0,0.73333 0,1.1c0,0.33333 0,0.68333 0,1.05c0,0.36667 0,0.73333 0,1.1c-0.23333,0.33333 -0.46667,0.68333 -0.7,1.05c-0.23333,0.36667 -0.46667,0.71667 -0.7,1.05c0,0.36667 0,0.73333 0,1.1c0,0.36667 0,0.71667 0,1.05c0,0.36667 0,0.73333 0,1.1c-0.13333,0.33333 -0.25,0.68333 -0.35,1.05c-0.23333,0.36667 -0.48333,0.73333 -0.75,1.1c-0.1,0.33333 -0.21667,0.68333 -0.35,1.05c-0.23333,0.36667 -0.46667,0.71667 -0.7,1.05c-0.23333,0.36667 -0.46667,0.73333 -0.7,1.1c-0.36667,0.36667 -0.73333,0.71667 -1.1,1.05c-0.1,0.36667 -0.21667,0.73333 -0.35,1.1c-0.23333,0.33333 -0.46667,0.68333 -0.7,1.05c-0.23333,0.36667 -0.46667,0.71667 -0.7,1.05c-0.13333,0.36667 -0.26667,0.73333 -0.4,1.1c-0.1,0.36667 -0.21667,0.71667 -0.35,1.05c-0.23333,0.36667 -0.46667,0.73333 -0.7,1.1c-0.13333,0.33333 -0.25,0.68333 -0.35,1.05c-0.23333,0.36667 -0.46667,0.73333 -0.7,1.1c-0.36667,0.33333 -0.73333,0.68333 -1.1,1.05c-0.23333,0.36667 -0.46667,0.71667 -0.7,1.05c-0.36667,0.36667 -0.73333,0.73333 -1.1,1.1c-0.33333,0.36667 -0.68333,0.71667 -1.05,1.05c-0.36667,0.36667 -0.71667,0.73333 -1.05,1.1c-0.36667,0.33333 -0.73333,0.68333 -1.1,1.05c-0.36667,0.36667 -0.71667,0.73333 -1.05,1.1c-0.36667,0.33333 -0.73333,0.68333 -1.1,1.05c-0.33333,0.36667 -0.68333,0.71667 -1.05,1.05c-0.36667,0.36667 -0.73333,0.73333 -1.1,1.1c-0.46667,0.36667 -0.93333,0.71667 -1.4,1.05c-0.23333,0.23333 -0.46667,0.48333 -0.7,0.75c-0.6,0.23333 -1.2,0.46667 -1.8,0.7c-0.36667,0.36667 -0.73333,0.71667 -1.1,1.05c-0.46667,0.36667 -0.93333,0.73333 -1.4,1.1c-0.36667,0.33333 -0.73333,0.68333 -1.1,1.05c-0.7,0.23333 -1.4,0.46667 -2.1,0.7c-0.73333,0.26667 -1.45,0.51667 -2.15,0.75c-0.73333,0.23333 -1.45,0.46667 -2.15,0.7c-6.2,0 -12.4,0 -18.6,0c-0.83333,-0.23333 -1.65,-0.48333 -2.45,-0.75c-0.6,-0.2 -1.21667,-0.4 -1.85,-0.6c-0.8,-0.3 -1.61667,-0.58333 -2.45,-0.85c-0.6,-0.2 -1.2,-0.4 -1.8,-0.6c-0.83333,-0.26667 -1.66667,-0.51667 -2.5,-0.75c-0.23333,-0.36667 -0.46667,-0.73333 -0.7,-1.1c-0.36667,-0.23333 -0.73333,-0.46667 -1.1,-0.7c-0.1,-0.13333 -0.23333,-0.23333 -0.4,-0.3c-0.66667,-0.26667 -1.36667,-0.53333 -2.1,-0.8c-0.23333,-0.33333 -0.46667,-0.68333 -0.7,-1.05c-0.23333,-0.36667 -0.46667,-0.71667 -0.7,-1.05c-0.36667,-0.36667 -0.73333,-0.73333 -1.1,-1.1c-0.23333,-0.36667 -0.46667,-0.71667 -0.7,-1.05c-0.46667,-0.36667 -0.93333,-0.73333 -1.4,-1.1c-0.26667,-0.33333 -0.51667,-0.68333 -0.75,-1.05c-0.1,-0.36667 -0.21667,-0.73333 -0.35,-1.1c-0.23333,-0.33333 -0.46667,-0.68333 -0.7,-1.05c-0.36667,-0.36667 -0.73333,-0.71667 -1.1,-1.05c-0.33333,-0.36667 -0.68333,-0.73333 -1.05,-1.1c-0.36667,-0.36667 -0.71667,-0.71667 -1.05,-1.05c-0.05951,-0.05951 -0.12617,-0.12617 -0.2,-0.2c-0.17617,0.07266 -0.35951,0.13932 -0.55,0.2c-1.43333,0 -2.85,0 -4.25,0c-0.83333,-0.23333 -1.68333,-0.46667 -2.55,-0.7c-1.06667,-0.26667 -2.13333,-0.53333 -3.2,-0.8c-0.83333,-0.2 -1.66667,-0.41667 -2.5,-0.65c-0.23333,-0.23333 -0.46667,-0.46667 -0.7,-0.7c-0.83333,-0.13333 -1.66667,-0.26667 -2.5,-0.4c-0.83333,-0.23333 -1.66667,-0.46667 -2.5,-0.7c-1.43333,-0.46667 -2.86667,-0.93333 -4.3,-1.4c-1.43333,-0.5 -2.85,-0.98333 -4.25,-1.45c-0.13333,-0.23333 -0.26667,-0.46667 -0.4,-0.7c-0.83333,-0.23333 -1.66667,-0.46667 -2.5,-0.7c-0.23333,-0.26667 -0.46667,-0.51667 -0.7,-0.75c-0.7,-0.23333 -1.41667,-0.46667 -2.15,-0.7c-0.23333,-0.36667 -0.46667,-0.71667 -0.7,-1.05c-0.46667,-0.36667 -0.95,-0.73333 -1.45,-1.1c-0.33333,-0.36667 -0.68333,-0.71667 -1.05,-1.05c-0.83333,-0.36667 -1.66667,-0.73333 -2.5,-1.1c-0.23333,-0.33333 -0.46667,-0.68333 -0.7,-1.05c-0.36667,-0.36667 -0.73333,-0.73333 -1.1,-1.1c-0.46667,-0.33333 -0.93333,-0.68333 -1.4,-1.05c-0.36667,-0.36667 -0.73333,-0.71667 -1.1,-1.05c-0.23333,-0.36667 -0.46667,-0.73333 -0.7,-1.1c-0.46667,-0.23333 -0.95,-0.46667 -1.45,-0.7c0,0.36667 0,0.71667 0,1.05c0,0.36667 0,0.73333 0,1.1c-0.23333,0.33333 -0.46667,0.68333 -0.7,1.05c-0.23333,0.36667 -0.46667,0.73333 -0.7,1.1c0,0.33333 0,0.68333 0,1.05c0,0.36667 0,0.71667 0,1.05c-0.23333,0.36667 -0.46667,0.73333 -0.7,1.1c-0.26667,0.36667 -0.51667,0.71667 -0.75,1.05c0,0.36667 0,0.73333 0,1.1c0,0.33333 0,0.68333 0,1.05c-0.23333,0.36667 -0.46667,0.73333 -0.7,1.1c-0.23333,0.33333 -0.46667,0.68333 -0.7,1.05c-0.13333,0.36667 -0.25,0.71667 -0.35,1.05c-0.13333,0.36667 -0.26667,0.73333 -0.4,1.1c-0.23333,0.33333 -0.46667,0.68333 -0.7,1.05c0,0.36667 0,0.73333 0,1.1c-0.1,0.33333 -0.21667,0.68333 -0.35,1.05c-0.13333,0.36667 -0.25,0.71667 -0.35,1.05c-0.23333,0.36667 -0.46667,0.73333 -0.7,1.1c-0.36667,0.36667 -0.73333,0.71667 -1.1,1.05c-0.23333,0.36667 -0.46667,0.73333 -0.7,1.1c-0.13333,0.33333 -0.25,0.68333 -0.35,1.05c-0.23333,0.36667 -0.46667,0.73333 -0.7,1.1c-0.36667,0.33333 -0.73333,0.68333 -1.1,1.05c-0.23333,0.36667 -0.46667,0.71667 -0.7,1.05c-0.13333,0.36667 -0.25,0.73333 -0.35,1.1c-0.36667,0.36667 -0.73333,0.71667 -1.1,1.05c-0.33333,0.36667 -0.68333,0.73333 -1.05,1.1c-0.23333,0.23333 -0.46667,0.46667 -0.7,0.7c-0.73333,0.23333 -1.45,0.46667 -2.15,0.7c-0.23333,0.23333 -0.48333,0.48333 -0.75,0.75c-0.56667,0.1 -1.15,0.21667 -1.75,0.35c-2.86667,0 -5.73333,0 -8.6,0c-2.36667,-0.5 -4.73333,-1.05 -7.1,-1.65c-2.26667,-0.56667 -4.53333,-1.21667 -6.8,-1.95c-0.23333,-0.23333 -0.48333,-0.46667 -0.75,-0.7c-0.7,-0.23333 -1.4,-0.46667 -2.1,-0.7c-0.26667,-0.36667 -0.51667,-0.73333 -0.75,-1.1c-0.46667,-0.33333 -0.93333,-0.68333 -1.4,-1.05c-0.36667,-0.36667 -0.73333,-0.73333 -1.1,-1.1c-0.46667,-0.33333 -0.93333,-0.68333 -1.4,-1.05c-0.5,-0.36667 -0.98333,-0.71667 -1.45,-1.05c-0.23333,-0.36667 -0.46667,-0.73333 -0.7,-1.1c-0.13333,-0.36667 -0.25,-0.71667 -0.35,-1.05c-0.23333,-0.36667 -0.48333,-0.73333 -0.75,-1.1c-0.33333,-0.33333 -0.68333,-0.68333 -1.05,-1.05c-0.23333,-0.36667 -0.46667,-0.73333 -0.7,-1.1c-0.5,-0.33333 -0.98333,-0.68333 -1.45,-1.05c-0.36667,-0.36667 -0.71667,-0.71667 -1.05,-1.05c-0.13333,-0.36667 -0.25,-0.73333 -0.35,-1.1c0,-0.36667 0,-0.71667 0,-1.05c-0.13333,-0.36667 -0.26667,-0.73333 -0.4,-1.1c-0.23333,-0.33333 -0.46667,-0.68333 -0.7,-1.05c-0.06276,-0.23008 -0.12943,-0.46341 -0.2,-0.7c-0.53203,0.35977 -1.06536,0.70977 -1.6,1.05c-1.06667,0.73333 -2.11667,1.45 -3.15,2.15c-0.5,0.36667 -0.98333,0.71667 -1.45,1.05c-0.36667,0.36667 -0.73333,0.73333 -1.1,1.1c-0.46667,0.33333 -0.93333,0.68333 -1.4,1.05c-0.83333,0.36667 -1.66667,0.73333 -2.5,1.1c-0.26667,0.23333 -0.51667,0.46667 -0.75,0.7c-0.6,0.1 -1.18333,0.21667 -1.75,0.35c-2.86667,0 -5.73333,0 -8.6,0c-0.83333,-0.23333 -1.66667,-0.43333 -2.5,-0.6c-1.53333,-0.3 -3.06667,-0.61667 -4.6,-0.95c-0.86667,-0.16667 -1.71667,-0.36667 -2.55,-0.6c-0.23333,-0.23333 -0.46667,-0.46667 -0.7,-0.7c-0.7,-0.23333 -1.41667,-0.46667 -2.15,-0.7c-0.33333,-0.36667 -0.68333,-0.73333 -1.05,-1.1c-0.23333,-0.23333 -0.46667,-0.46667 -0.7,-0.7c-0.13333,-0.13333 -0.26667,-0.21667 -0.4,-0.25c-0.7,-0.3 -1.4,-0.56667 -2.1,-0.8c-0.26667,-0.36667 -0.51667,-0.73333 -0.75,-1.1c-0.23333,-0.36667 -0.46667,-0.71667 -0.7,-1.05c-0.23333,0.23333 -0.46667,0.46667 -0.7,0.7c-0.36667,0.36667 -0.73333,0.71667 -1.1,1.05c-0.1,0.36667 -0.21667,0.73333 -0.35,1.1c0,0.33333 0,0.68333 0,1.05c-0.23333,0.36667 -0.46667,0.73333 -0.7,1.1c-0.23333,0.33333 -0.46667,0.68333 -0.7,1.05c-0.13333,0.36667 -0.26667,0.71667 -0.4,1.05c-0.1,0.36667 -0.21667,0.73333 -0.35,1.1c-0.33333,0.36667 -0.68333,0.71667 -1.05,1.05c-0.36667,0.36667 -0.73333,0.73333 -1.1,1.1c-0.1,0.33333 -0.21667,0.68333 -0.35,1.05c-0.1,0.36667 -0.21667,0.73333 -0.35,1.1c-0.23333,0.33333 -0.46667,0.68333 -0.7,1.05c-0.13333,0.36667 -0.25,0.71667 -0.35,1.05c-0.23333,0.36667 -0.48333,0.73333 -0.75,1.1c-0.33333,0.36667 -0.68333,0.71667 -1.05,1.05c-0.23333,0.36667 -0.46667,0.73333 -0.7,1.1c-0.36667,0.33333 -0.73333,0.68333 -1.1,1.05c-0.33333,0.36667 -0.68333,0.73333 -1.05,1.1c-0.36667,0.33333 -0.73333,0.68333 -1.1,1.05c-0.46667,0.36667 -0.93333,0.71667 -1.4,1.05c-0.36667,0.36667 -0.73333,0.73333 -1.1,1.1c-0.23333,0.23333 -0.46667,0.46667 -0.7,0.7c-0.7,0.23333 -1.41667,0.46667 -2.15,0.7c-0.23333,0.26667 -0.46667,0.51667 -0.7,0.75c-0.6,0.1 -1.2,0.21667 -1.8,0.35c-3.8,0 -7.6,0 -11.4,0c-0.83333,-0.23333 -1.66667,-0.46667 -2.5,-0.7c-0.23333,-0.36667 -0.48333,-0.73333 -0.75,-1.1c-0.33333,-0.23333 -0.68333,-0.46667 -1.05,-0.7c-0.13333,-0.13333 -0.26667,-0.23333 -0.4,-0.3c-0.7,-0.26667 -1.4,-0.53333 -2.1,-0.8c-0.23333,-0.33333 -0.46667,-0.68333 -0.7,-1.05c-0.5,-0.36667 -0.98333,-0.71667 -1.45,-1.05c-0.36667,-0.36667 -0.71667,-0.73333 -1.05,-1.1c-0.36667,-0.36667 -0.73333,-0.71667 -1.1,-1.05c-0.33333,-0.36667 -0.68333,-0.73333 -1.05,-1.1c-0.36667,-0.33333 -0.71667,-0.68333 -1.05,-1.05c-0.6,-0.36667 -1.2,-0.73333 -1.8,-1.1c-0.36667,-0.33333 -0.73333,-0.68333 -1.1,-1.05c-0.1,-0.36667 -0.21667,-0.71667 -0.35,-1.05c-0.1,-0.36667 -0.21667,-0.73333 -0.35,-1.1c-0.2444,-0.2444 -0.47773,-0.47773 -0.7,-0.7c-0.12227,0.11107 -0.23893,0.22773 -0.35,0.35c-0.23333,0.36667 -0.48333,0.71667 -0.75,1.05c-0.23333,0.36667 -0.46667,0.73333 -0.7,1.1c-0.23333,0.36667 -0.46667,0.71667 -0.7,1.05c-0.23333,0.36667 -0.46667,0.73333 -0.7,1.1c-0.36667,0.33333 -0.73333,0.68333 -1.1,1.05c-0.46667,0.36667 -0.93333,0.73333 -1.4,1.1c-0.5,0.33333 -0.98333,0.68333 -1.45,1.05c-0.23333,0.36667 -0.46667,0.71667 -0.7,1.05c-0.23333,0.36667 -0.48333,0.73333 -0.75,1.1c-0.46667,0.36667 -0.93333,0.71667 -1.4,1.05c-0.23333,0.23333 -0.46667,0.48333 -0.7,0.75c-0.6,0.23333 -1.2,0.46667 -1.8,0.7c-0.36667,0.36667 -0.73333,0.71667 -1.1,1.05c-0.33333,0.23333 -0.68333,0.48333 -1.05,0.75c-0.13333,0.1 -0.26667,0.18333 -0.4,0.25c-0.7,0.3 -1.4,0.56667 -2.1,0.8c-0.23333,0.23333 -0.46667,0.46667 -0.7,0.7c-0.6,0.13333 -1.2,0.28333 -1.8,0.45c-0.7,0.2 -1.41667,0.41667 -2.15,0.65c-0.7,0.23333 -1.41667,0.46667 -2.15,0.7c-0.7,0.23333 -1.41667,0.46667 -2.15,0.7c-1.4,0.5 -2.81667,0.98333 -4.25,1.45c-0.73333,0.23333 -1.45,0.46667 -2.15,0.7c-8.1,0 -16.2,0 -24.3,0c-0.83333,-0.23333 -1.66667,-0.45 -2.5,-0.65c-1.06667,-0.26667 -2.13333,-0.53333 -3.2,-0.8c-0.83333,-0.23333 -1.66667,-0.46667 -2.5,-0.7c-0.23333,-0.23333 -0.46667,-0.46667 -0.7,-0.7c-0.73333,-0.23333 -1.45,-0.46667 -2.15,-0.7c-0.23333,-0.23333 -0.46667,-0.48333 -0.7,-0.75c-0.73333,-0.23333 -1.45,-0.46667 -2.15,-0.7c-0.23333,-0.23333 -0.48333,-0.46667 -0.75,-0.7c-0.7,-0.23333 -1.4,-0.46667 -2.1,-0.7c-0.26667,-0.36667 -0.51667,-0.73333 -0.75,-1.1c-0.33333,-0.23333 -0.68333,-0.46667 -1.05,-0.7c-0.13333,-0.13333 -0.26667,-0.23333 -0.4,-0.3c-0.7,-0.26667 -1.4,-0.53333 -2.1,-0.8c-0.23333,-0.33333 -0.46667,-0.68333 -0.7,-1.05c-0.5,-0.36667 -0.98333,-0.71667 -1.45,-1.05c-0.23333,-0.36667 -0.46667,-0.73333 -0.7,-1.1c-0.5,-0.36667 -0.98333,-0.71667 -1.45,-1.05c-0.23333,-0.36667 -0.46667,-0.73333 -0.7,-1.1c-0.46667,-0.33333 -0.95,-0.68333 -1.45,-1.05c-0.33333,-0.36667 -0.68333,-0.73333 -1.05,-1.1c-0.23333,-0.33333 -0.46667,-0.68333 -0.7,-1.05c-0.13333,-0.36667 -0.26667,-0.71667 -0.4,-1.05c-0.23333,-0.36667 -0.46667,-0.73333 -0.7,-1.1c-0.36667,-0.36667 -0.71667,-0.71667 -1.05,-1.05c-0.36667,-0.36667 -0.73333,-0.73333 -1.1,-1.1c-0.23333,-0.33333 -0.46667,-0.68333 -0.7,-1.05c-0.23333,-0.36667 -0.46667,-0.73333 -0.7,-1.1c-0.13333,-0.33333 -0.25,-0.68333 -0.35,-1.05c-0.36667,-0.36667 -0.73333,-0.71667 -1.1,-1.05c-0.23333,-0.36667 -0.46667,-0.73333 -0.7,-1.1c-0.23333,-0.36667 -0.46667,-0.71667 -0.7,-1.05c-0.13333,-0.36667 -0.26667,-0.73333 -0.4,-1.1c-0.23333,-0.33333 -0.46667,-0.68333 -0.7,-1.05c-0.1,-0.36667 -0.21667,-0.71667 -0.35,-1.05c-0.23333,-0.36667 -0.46667,-0.73333 -0.7,-1.1c-0.23333,-0.36667 -0.48333,-0.71667 -0.75,-1.05c0,-0.36667 0,-0.73333 0,-1.1c0,-0.33333 0,-0.68333 0,-1.05c-0.23333,-0.36667 -0.46667,-0.73333 -0.7,-1.1c-0.23333,-0.33333 -0.46667,-0.68333 -0.7,-1.05c0,-0.36667 0,-0.71667 0,-1.05c0,-0.36667 0,-0.73333 0,-1.1c0,-0.36667 0,-0.71667 0,-1.05c0,-0.36667 0,-0.73333 0,-1.1c-0.13333,-0.33333 -0.25,-0.68333 -0.35,-1.05c-0.13333,-0.36667 -0.25,-0.73333 -0.35,-1.1c-0.26667,-0.33333 -0.51667,-0.68333 -0.75,-1.05c0,-0.36667 0,-0.71667 0,-1.05c0,-0.36667 0,-0.73333 0,-1.1c0,-0.36667 0,-0.71667 0,-1.05c0,-0.36667 0,-0.73333 0,-1.1c0,-1.06667 0,-2.13333 0,-3.2c0,-1.06667 0,-2.13333 0,-3.2c0,-1.43333 0,-2.86667 0,-4.3c0,-1.06667 0,-2.13333 0,-3.2c0,-1.06667 0,-2.15 0,-3.25c0,-0.33333 0,-0.68333 0,-1.05c0.23333,-0.36667 0.48333,-0.71667 0.75,-1.05c0.23333,-0.36667 0.46667,-0.73333 0.7,-1.1c0,-0.36667 0,-0.71667 0,-1.05c0,-0.36667 0,-0.73333 0,-1.1c0,-0.33333 0,-0.68333 0,-1.05c0,-0.36667 0,-0.73333 0,-1.1c0.1,-0.33333 0.21667,-0.68333 0.35,-1.05c0.23333,-0.36667 0.46667,-0.71667 0.7,-1.05c0.13333,-0.36667 0.25,-0.73333 0.35,-1.1c0,-0.36667 0,-0.71667 0,-1.05c0.13333,-0.36667 0.26667,-0.73333 0.4,-1.1c0.23333,-0.33333 0.46667,-0.68333 0.7,-1.05c0.1,-0.36667 0.21667,-0.73333 0.35,-1.1c0.23333,-0.33333 0.46667,-0.68333 0.7,-1.05c0.13333,-0.36667 0.25,-0.71667 0.35,-1.05c0.13333,-0.36667 0.26667,-0.73333 0.4,-1.1c0,-0.36667 0,-0.71667 0,-1.05c0.23333,-0.36667 0.46667,-0.73333 0.7,-1.1c0.1,-0.33333 0.21667,-0.68333 0.35,-1.05c0.13333,-0.36667 0.25,-0.73333 0.35,-1.1c0.23333,-0.33333 0.46667,-0.68333 0.7,-1.05c0.5,-0.36667 0.98333,-0.71667 1.45,-1.05c0.23333,-0.36667 0.46667,-0.73333 0.7,-1.1c0.36667,-0.36667 0.73333,-0.71667 1.1,-1.05c0.33333,-0.36667 0.68333,-0.73333 1.05,-1.1c0.46667,-0.33333 0.95,-0.68333 1.45,-1.05c0,-0.36667 0,-0.71667 0,-1.05c-0.23333,-0.36667 -0.48333,-0.73333 -0.75,-1.1c-0.1,-0.36667 -0.21667,-0.71667 -0.35,-1.05c-0.1,-0.36667 -0.21667,-0.73333 -0.35,-1.1c-0.23333,-0.33333 -0.46667,-0.68333 -0.7,-1.05c0,-0.36667 0,-0.73333 0,-1.1c-0.13333,-0.33333 -0.25,-0.68333 -0.35,-1.05c-0.13333,-0.36667 -0.25,-0.71667 -0.35,-1.05c-0.26667,-0.36667 -0.51667,-0.73333 -0.75,-1.1c0,-0.36667 0,-0.71667 0,-1.05c0,-0.36667 0,-0.73333 0,-1.1c0,-0.33333 0,-0.68333 0,-1.05c0,-0.36667 0,-0.73333 0,-1.1c-0.1,-0.33333 -0.21667,-0.68333 -0.35,-1.05c-0.23333,-0.36667 -0.46667,-0.71667 -0.7,-1.05c-0.13333,-0.36667 -0.25,-0.73333 -0.35,-1.1c0,-0.36667 0,-0.71667 0,-1.05c0,-0.36667 0,-0.73333 0,-1.1c0,-0.33333 0,-0.68333 0,-1.05c0,-0.36667 0,-0.73333 0,-1.1c0,-0.7 0,-1.4 0,-2.1c0,-0.73333 0,-1.45 0,-2.15c0,-0.73333 0,-1.45 0,-2.15c0,-1.06667 0,-2.13333 0,-3.2c0,-0.36667 0,-0.73333 0,-1.1c0.23333,-0.36667 0.46667,-0.71667 0.7,-1.05c0.23333,-0.36667 0.46667,-0.73333 0.7,-1.1c0,-0.33333 0,-0.68333 0,-1.05c0,-0.36667 0,-0.73333 0,-1.1c0,-0.33333 0,-0.68333 0,-1.05c0,-0.36667 0,-0.71667 0,-1.05c0.13333,-0.36667 0.25,-0.73333 0.35,-1.1c0.26667,-0.36667 0.51667,-0.71667 0.75,-1.05c0.1,-0.36667 0.21667,-0.73333 0.35,-1.1c0,-0.33333 0,-0.68333 0,-1.05c0.1,-0.36667 0.21667,-0.73333 0.35,-1.1c0.23333,-0.33333 0.46667,-0.68333 0.7,-1.05c0.13333,-0.36667 0.25,-0.71667 0.35,-1.05c0.26667,-0.36667 0.51667,-0.73333 0.75,-1.1c0.1,-0.36667 0.21667,-0.71667 0.35,-1.05c0.1,-0.36667 0.21667,-0.73333 0.35,-1.1c0.23333,-0.33333 0.46667,-0.68333 0.7,-1.05c0.36667,-0.36667 0.73333,-0.73333 1.1,-1.1c0.33333,-0.33333 0.68333,-0.68333 1.05,-1.05c0.36667,-0.36667 0.73333,-0.71667 1.1,-1.05c0.33333,-0.36667 0.68333,-0.73333 1.05,-1.1c0.7,-0.7 1.41667,-1.41667 2.15,-2.15c0.7,-0.7 1.41667,-1.41667 2.15,-2.15c0.7,-0.7 1.41667,-1.4 2.15,-2.1c0.33333,-0.36667 0.68333,-0.73333 1.05,-1.1c0.46667,-0.36667 0.95,-0.71667 1.45,-1.05c0.33333,-0.36667 0.68333,-0.73333 1.05,-1.1M912.5955,284.0527c0.6,0.23333 1.2,0.46667 1.8,0.7c0.46667,0.36667 0.95,0.73333 1.45,1.1c0.23333,0.23333 0.46667,0.46667 0.7,0.7c0.1,0.1 0.23333,0.2 0.4,0.3c0.56667,0.26667 1.15,0.51667 1.75,0.75c0.46667,0.36667 0.93333,0.73333 1.4,1.1c0.36667,0.33333 0.73333,0.68333 1.1,1.05c0.33333,0.36667 0.68333,0.73333 1.05,1.1c0.23333,0.33333 0.46667,0.68333 0.7,1.05c0.13333,0.36667 0.26667,0.71667 0.4,1.05c0.23333,0.36667 0.46667,0.73333 0.7,1.1c0.1,0.36667 0.21667,0.71667 0.35,1.05c0.23333,0.36667 0.46667,0.73333 0.7,1.1v0.15c0.23333,-0.1 0.48333,-0.26667 0.75,-0.5c0.33333,-0.36667 0.68333,-0.73333 1.05,-1.1c0.36667,-0.36667 0.71667,-0.71667 1.05,-1.05c0.36667,-0.36667 0.73333,-0.73333 1.1,-1.1c0.36667,-0.33333 0.71667,-0.68333 1.05,-1.05c0.36667,-0.36667 0.73333,-0.73333 1.1,-1.1c0.83333,-0.33333 1.66667,-0.68333 2.5,-1.05c0.33333,-0.23333 0.68333,-0.46667 1.05,-0.7c0.6,-0.23333 1.2,-0.48333 1.8,-0.75c0.36667,-0.33333 0.71667,-0.68333 1.05,-1.05c0.23333,-0.23333 0.48333,-0.46667 0.75,-0.7c0.23333,-0.13333 0.46667,-0.25 0.7,-0.35c0.6,-0.26667 1.2,-0.51667 1.8,-0.75c0.33333,-0.23333 0.68333,-0.46667 1.05,-0.7c0.6,-0.13333 1.2,-0.25 1.8,-0.35c1.43333,0 2.85,0 4.25,0c0.73333,0.23333 1.45,0.46667 2.15,0.7c3.1,0.23333 6.2,0.46667 9.3,0.7c0.7,0.26667 1.41667,0.51667 2.15,0.75c0.83333,0 1.66667,0 2.5,0c0.83333,-0.23333 1.65,-0.5 2.45,-0.8c0.63333,-0.2 1.23333,-0.41667 1.8,-0.65c0.83333,-0.36667 1.66667,-0.71667 2.5,-1.05c0.36667,-0.23333 0.73333,-0.46667 1.1,-0.7c0.6,-0.26667 1.2,-0.51667 1.8,-0.75c0.33333,-0.23333 0.68333,-0.46667 1.05,-0.7c0.6,-0.23333 1.2,-0.46667 1.8,-0.7c0.33333,-0.23333 0.68333,-0.48333 1.05,-0.75c0.6,-0.23333 1.2,-0.46667 1.8,-0.7c0.36667,-0.23333 0.71667,-0.46667 1.05,-0.7c0.6,-0.23333 1.2,-0.46667 1.8,-0.7c0.36667,-0.26667 0.71667,-0.51667 1.05,-0.75c0.6,-0.23333 1.2,-0.46667 1.8,-0.7c0.36667,-0.23333 0.73333,-0.46667 1.1,-0.7c0.56667,-0.23333 1.15,-0.48333 1.75,-0.75c0.36667,-0.23333 0.73333,-0.46667 1.1,-0.7c0.6,0 1.18333,-0.05 1.75,-0.15v-0.2c6.2,0 12.4,0 18.6,0c0.7,0.23333 1.41667,0.45 2.15,0.65c1.16667,0.26667 2.35,0.55 3.55,0.85c0.73333,0.2 1.45,0.41667 2.15,0.65c0.7,0.23333 1.41667,0.46667 2.15,0.7c0.7,0.23333 1.41667,0.46667 2.15,0.7c0.33333,0.26667 0.68333,0.51667 1.05,0.75c0.6,0.23333 1.2,0.46667 1.8,0.7c0.46667,0.36667 0.93333,0.71667 1.4,1.05c0.36667,0.36667 0.73333,0.73333 1.1,1.1c0.33333,0.36667 0.68333,0.71667 1.05,1.05c0.36667,0.36667 0.73333,0.73333 1.1,1.1c0.33333,0.33333 0.68333,0.68333 1.05,1.05c0.36667,0.36667 0.71667,0.71667 1.05,1.05c0.36667,0.36667 0.73333,0.73333 1.1,1.1c0.23333,0.36667 0.46667,0.71667 0.7,1.05c0.13333,0.36667 0.25,0.73333 0.35,1.1c0.23333,0.33333 0.48333,0.68333 0.75,1.05c0.1,0.36667 0.21667,0.73333 0.35,1.1c0.23333,0.33333 0.46667,0.68333 0.7,1.05c0.13333,0.36667 0.25,0.71667 0.35,1.05c0.23333,0.36667 0.46667,0.73333 0.7,1.1c0.13333,0.36667 0.26667,0.71667 0.4,1.05c0,0.36667 0,0.73333 0,1.1c0.1,0.33333 0.21667,0.68333 0.35,1.05c0.23333,0.36667 0.46667,0.73333 0.7,1.1c0.13333,0.33333 0.25,0.68333 0.35,1.05c0,0.36667 0,0.71667 0,1.05c0,0.36667 0,0.73333 0,1.1c0,0.36667 0,0.71667 0,1.05c0,0.36667 0,0.73333 0,1.1c0,0.33333 0,0.68333 0,1.05c0,0.73333 0,1.45 0,2.15c0,0.7 0,1.41667 0,2.15c0,0.7 0,1.41667 0,2.15c0,0.7 0,1.41667 0,2.15c0,0.7 0,1.4 0,2.1c-0.1,0.36667 -0.21667,0.73333 -0.35,1.1c-0.13333,0.36667 -0.25,0.71667 -0.35,1.05c-0.23333,0.36667 -0.46667,0.73333 -0.7,1.1c0,0.33333 0,0.68333 0,1.05c-0.13333,0.36667 -0.26667,0.73333 -0.4,1.1c-0.1,0.33333 -0.21667,0.68333 -0.35,1.05c-0.23333,0.36667 -0.46667,0.71667 -0.7,1.05c-0.13333,0.36667 -0.25,0.73333 -0.35,1.1c-0.23333,0.36667 -0.46667,0.71667 -0.7,1.05c-0.13333,0.36667 -0.26667,0.73333 -0.4,1.1c-0.23333,0.33333 -0.46667,0.68333 -0.7,1.05c-0.1,0.36667 -0.21667,0.73333 -0.35,1.1c-0.23333,0.33333 -0.46667,0.68333 -0.7,1.05c-0.13333,0.36667 -0.25,0.71667 -0.35,1.05c-0.26667,0.36667 -0.51667,0.73333 -0.75,1.1c-0.33333,0.36667 -0.68333,0.71667 -1.05,1.05c-0.36667,0.36667 -0.73333,0.73333 -1.1,1.1c-0.46667,0.33333 -0.93333,0.68333 -1.4,1.05c-0.7,0.36667 -1.4,0.73333 -2.1,1.1c-0.4,0.23333 -0.76667,0.46667 -1.1,0.7c-0.6,0.23333 -1.2,0.46667 -1.8,0.7c-0.36667,0.23333 -0.71667,0.46667 -1.05,0.7c-0.6,0.26667 -1.2,0.51667 -1.8,0.75c-0.36667,0.33333 -0.73333,0.68333 -1.1,1.05c-0.23333,0.23333 -0.46667,0.46667 -0.7,0.7c-0.11875,0.06784 -0.23542,0.13451 -0.35,0.2c0.11458,0.18021 0.23125,0.36354 0.35,0.55c0.6,0.33333 1.2,0.68333 1.8,1.05c0.23333,0.36667 0.46667,0.73333 0.7,1.1c0.13333,0.33333 0.25,0.68333 0.35,1.05c0.23333,0.36667 0.48333,0.71667 0.75,1.05c0.1,0.36667 0.21667,0.73333 0.35,1.1c0.23333,0.36667 0.46667,0.71667 0.7,1.05c0,0.36667 0,0.73333 0,1.1c0.13333,0.33333 0.25,0.68333 0.35,1.05c0.13333,0.36667 0.25,0.73333 0.35,1.1c0.23333,0.33333 0.48333,0.68333 0.75,1.05c0,0.36667 0,0.71667 0,1.05c0,0.36667 0,0.73333 0,1.1c0,0.33333 0,0.68333 0,1.05c0,0.36667 0,0.73333 0,1.1c-0.26667,0.33333 -0.51667,0.68333 -0.75,1.05c-0.1,0.36667 -0.21667,0.71667 -0.35,1.05c-0.1,0.36667 -0.21667,0.73333 -0.35,1.1c0,0.36667 0,0.71667 0,1.05c0,0.36667 0,0.73333 0,1.1c0,0.33333 0,0.68333 0,1.05c0,0.36667 0,0.73333 0,1.1c0,0.33333 0,0.68333 0,1.05c0,0.36667 0,0.71667 0,1.05c-0.13333,0.36667 -0.25,0.73333 -0.35,1.1c-0.23333,0.36667 -0.46667,0.71667 -0.7,1.05c-0.13333,0.36667 -0.26667,0.73333 -0.4,1.1c0,0.33333 0,0.68333 0,1.05c-0.1,0.36667 -0.21667,0.73333 -0.35,1.1c-0.23333,0.33333 -0.46667,0.68333 -0.7,1.05c-0.23333,0.36667 -0.46667,0.71667 -0.7,1.05c-0.23333,0.26667 -0.48333,0.51667 -0.75,0.75c0.6,0.23333 1.2,0.46667 1.8,0.7c0.46667,0.36667 0.95,0.71667 1.45,1.05c0.23333,0.26667 0.46667,0.51667 0.7,0.75c0.13333,0.1 0.26667,0.18333 0.4,0.25c0.56667,0.3 1.15,0.56667 1.75,0.8c0.36667,0.23333 0.71667,0.46667 1.05,0.7c0.6,0.26667 1.2,0.51667 1.8,0.75c0.46667,0.33333 0.93333,0.68333 1.4,1.05c0.36667,0.36667 0.73333,0.73333 1.1,1.1c0.1,0.33333 0.21667,0.68333 0.35,1.05c0.23333,0.36667 0.46667,0.71667 0.7,1.05c0.13333,0.36667 0.25,0.73333 0.35,1.1c0.26667,0.36667 0.51667,0.71667 0.75,1.05c0.1,0.36667 0.21667,0.73333 0.35,1.1c0.23333,0.33333 0.46667,0.68333 0.7,1.05c0.13333,0.36667 0.25,0.73333 0.35,1.1c0.13333,0.33333 0.25,0.68333 0.35,1.05c0,0.36667 0,0.71667 0,1.05c0,0.36667 0,0.73333 0,1.1c0,0.36667 0,0.71667 0,1.05c0,0.36667 0,0.73333 0,1.1c0,0.7 0,1.41667 0,2.15c0,0.7 0,1.4 0,2.1c0,0.36667 0,0.73333 0,1.1c0,0.36667 0,0.71667 0,1.05c0,0.36667 0,0.73333 0,1.1c-0.1,0.33333 -0.21667,0.68333 -0.35,1.05c-0.23333,0.36667 -0.46667,0.73333 -0.7,1.1c-0.13333,0.33333 -0.25,0.68333 -0.35,1.05c0,0.36667 0,0.71667 0,1.05c-0.13333,0.36667 -0.25,0.73333 -0.35,1.1c-0.23333,0.36667 -0.48333,0.71667 -0.75,1.05c-0.1,0.36667 -0.21667,0.73333 -0.35,1.1c-0.23333,0.33333 -0.46667,0.68333 -0.7,1.05c-0.13333,0.36667 -0.25,0.73333 -0.35,1.1c-0.23333,0.33333 -0.46667,0.68333 -0.7,1.05c-0.13333,0.36667 -0.26667,0.71667 -0.4,1.05c-0.23333,0.36667 -0.46667,0.73333 -0.7,1.1c-0.7,0.7 -1.41667,1.41667 -2.15,2.15c-1.03333,1.06667 -2.1,2.13333 -3.2,3.2c-1.06667,1.06667 -2.13333,2.13333 -3.2,3.2c-1.06667,1.06667 -2.13333,2.15 -3.2,3.25c-0.73333,0.7 -1.45,1.4 -2.15,2.1c-0.23333,0.23333 -0.48333,0.48333 -0.75,0.75c-0.23333,0.1 -0.46667,0.2 -0.7,0.3c-0.6,0.26667 -1.2,0.51667 -1.8,0.75c-0.33333,0.36667 -0.68333,0.71667 -1.05,1.05c-0.23333,0.26667 -0.46667,0.51667 -0.7,0.75c-0.23333,0.1 -0.48333,0.2 -0.75,0.3c-0.56667,0.26667 -1.15,0.51667 -1.75,0.75c-0.36667,0.23333 -0.73333,0.46667 -1.1,0.7c-0.6,0.26667 -1.18333,0.51667 -1.75,0.75c-0.36667,0.33333 -0.73333,0.68333 -1.1,1.05c-0.23333,0.23333 -0.46667,0.46667 -0.7,0.7c-0.23333,0.13333 -0.48333,0.25 -0.75,0.35c-0.56667,0.26667 -1.15,0.51667 -1.75,0.75c-0.36667,0.36667 -0.73333,0.71667 -1.1,1.05c-0.23333,0.23333 -0.46667,0.48333 -0.7,0.75c-0.23333,0.1 -0.46667,0.21667 -0.7,0.35c-2.1,0.4 -4.15,0.88333 -6.15,1.45c-3.8,1 -7.6,2.03333 -11.4,3.1c-1.86667,0.53333 -3.75,1.03333 -5.65,1.5c-1.93333,0 -3.85,0 -5.75,0c-0.83333,-0.23333 -1.66667,-0.46667 -2.5,-0.7c-0.23333,-0.23333 -0.46667,-0.46667 -0.7,-0.7c-0.36667,-0.13333 -0.71667,-0.25 -1.05,-0.35c-0.83333,-0.26667 -1.66667,-0.53333 -2.5,-0.8c-0.6,-0.2 -1.2,-0.4 -1.8,-0.6c-0.83333,-0.26667 -1.66667,-0.51667 -2.5,-0.75c-0.23333,-0.26667 -0.46667,-0.51667 -0.7,-0.75c-0.73333,-0.23333 -1.45,-0.48333 -2.15,-0.75c-0.6,-0.2 -1.2,-0.4 -1.8,-0.6c-0.83333,-0.26667 -1.66667,-0.53333 -2.5,-0.8c-2.73333,0 -5.46667,0 -8.2,0c-0.73333,0.26667 -1.45,0.48333 -2.15,0.65c-1.2,0.3 -2.38333,0.56667 -3.55,0.8c-0.83333,0.36667 -1.66667,0.71667 -2.5,1.05c-0.26667,0.26667 -0.51667,0.51667 -0.75,0.75c-0.6,0.1 -1.18333,0.21667 -1.75,0.35c-1.2,0.23333 -2.38333,0.5 -3.55,0.8c-0.73333,0.16667 -1.46667,0.36667 -2.2,0.6c-0.7,0.26667 -1.41667,0.51667 -2.15,0.75c-0.7,0.23333 -1.4,0.46667 -2.1,0.7c-2.86667,0 -5.73333,0 -8.6,0c-0.83333,-0.23333 -1.65,-0.48333 -2.45,-0.75c-0.63333,-0.2 -1.25,-0.4 -1.85,-0.6c-0.83333,-0.3 -1.66667,-0.56667 -2.5,-0.8c-0.23333,-0.36667 -0.46667,-0.71667 -0.7,-1.05c-0.23333,-0.36667 -0.46667,-0.73333 -0.7,-1.1c-0.83333,-0.33333 -1.66667,-0.68333 -2.5,-1.05c-0.36667,-0.36667 -0.73333,-0.73333 -1.1,-1.1c-0.33333,-0.33333 -0.68333,-0.68333 -1.05,-1.05c-0.36667,-0.36667 -0.71667,-0.71667 -1.05,-1.05c-0.83333,-0.36667 -1.66667,-0.73333 -2.5,-1.1c-0.36667,-0.36667 -0.73333,-0.71667 -1.1,-1.05c-0.1,-0.36667 -0.21667,-0.73333 -0.35,-1.1c-0.13333,-0.33333 -0.25,-0.68333 -0.35,-1.05c-0.36667,-0.36667 -0.73333,-0.73333 -1.1,-1.1c0,-0.33333 0,-0.68333 0,-1.05c-0.1,-0.36667 -0.21667,-0.71667 -0.35,-1.05c-0.04453,-0.07005 -0.09453,-0.13672 -0.15,-0.2c-0.29453,0.17995 -0.59453,0.36328 -0.9,0.55c-0.36667,0.33333 -0.71667,0.68333 -1.05,1.05c-0.36667,0.36667 -0.73333,0.73333 -1.1,1.1c-0.36667,0.33333 -0.71667,0.68333 -1.05,1.05c-0.23333,0.23333 -0.48333,0.46667 -0.75,0.7c-0.23333,0.13333 -0.46667,0.25 -0.7,0.35c-0.93333,0.26667 -1.88333,0.51667 -2.85,0.75c-0.46667,0.23333 -0.95,0.45 -1.45,0.65c-0.56667,0.26667 -1.15,0.51667 -1.75,0.75c-0.36667,0.23333 -0.73333,0.48333 -1.1,0.75c-0.6,0.23333 -1.18333,0.46667 -1.75,0.7c-0.36667,0.23333 -0.73333,0.46667 -1.1,0.7c-0.6,0.13333 -1.2,0.25 -1.8,0.35c-1.16667,0.23333 -2.35,0.5 -3.55,0.8c-0.7,0.2 -1.41667,0.41667 -2.15,0.65c-7.13333,-0.13333 -14.26667,-0.25 -21.4,-0.35c-0.83333,-0.23333 -1.66667,-0.5 -2.5,-0.8c-0.6,-0.2 -1.2,-0.4 -1.8,-0.6c-0.83333,-0.26667 -1.66667,-0.51667 -2.5,-0.75c-0.23333,-0.23333 -0.46667,-0.46667 -0.7,-0.7c-0.73333,-0.26667 -1.45,-0.51667 -2.15,-0.75c-0.23333,-0.23333 -0.48333,-0.46667 -0.75,-0.7c-0.7,-0.23333 -1.4,-0.46667 -2.1,-0.7c-0.36667,-0.36667 -0.73333,-0.73333 -1.1,-1.1c-0.36667,-0.33333 -0.71667,-0.68333 -1.05,-1.05c-0.36667,-0.36667 -0.73333,-0.73333 -1.1,-1.1c-0.33333,-0.33333 -0.68333,-0.68333 -1.05,-1.05c-0.23333,-0.36667 -0.46667,-0.71667 -0.7,-1.05c-0.26667,-0.36667 -0.51667,-0.73333 -0.75,-1.1c-0.1,-0.36667 -0.21667,-0.71667 -0.35,-1.05c-0.36667,-0.36667 -0.71667,-0.73333 -1.05,-1.1c-0.23333,-0.33333 -0.48333,-0.68333 -0.75,-1.05c-0.23333,-0.36667 -0.46667,-0.73333 -0.7,-1.1c0,-0.33333 0,-0.68333 0,-1.05c-0.1,-0.36667 -0.21667,-0.71667 -0.35,-1.05c-0.23333,-0.36667 -0.46667,-0.73333 -0.7,-1.1c-0.36667,0.23333 -0.73333,0.46667 -1.1,0.7c-0.23333,0.26667 -0.46667,0.51667 -0.7,0.75c-0.7,0.23333 -1.41667,0.46667 -2.15,0.7c-0.23333,0.23333 -0.46667,0.46667 -0.7,0.7c-0.7,0.23333 -1.41667,0.48333 -2.15,0.75c-0.23333,0.23333 -0.46667,0.46667 -0.7,0.7c-1.3,0.36667 -2.6,0.75 -3.9,1.15c-1.7,0.53333 -3.38333,1.1 -5.05,1.7c-1.33529,0.43477 -2.65195,0.88477 -3.95,1.35c-0.10404,0.14922 -0.20404,0.29922 -0.3,0.45c-0.13333,0.33333 -0.26667,0.68333 -0.4,1.05c-0.23333,0.36667 -0.46667,0.73333 -0.7,1.1c-0.23333,0.33333 -0.46667,0.68333 -0.7,1.05c-0.36667,0.36667 -0.73333,0.71667 -1.1,1.05c-0.23333,0.36667 -0.46667,0.73333 -0.7,1.1c-0.46667,0.36667 -0.93333,0.71667 -1.4,1.05c-0.83333,0.36667 -1.66667,0.73333 -2.5,1.1c-0.26667,0.23333 -0.51667,0.46667 -0.75,0.7c-0.6,0.13333 -1.18333,0.25 -1.75,0.35c-7.63333,0 -15.26667,0 -22.9,0c-0.83333,-0.23333 -1.65,-0.48333 -2.45,-0.75c-0.6,-0.2 -1.21667,-0.4 -1.85,-0.6c-0.8,-0.3 -1.61667,-0.56667 -2.45,-0.8c-0.13333,-0.23333 -0.25,-0.46667 -0.35,-0.7c-0.83333,-0.23333 -1.66667,-0.46667 -2.5,-0.7c-0.26667,-0.23333 -0.51667,-0.48333 -0.75,-0.75c-0.7,-0.23333 -1.41667,-0.46667 -2.15,-0.7c-0.23333,-0.23333 -0.46667,-0.46667 -0.7,-0.7c-0.7,-0.23333 -1.41667,-0.46667 -2.15,-0.7c-0.33333,-0.36667 -0.68333,-0.73333 -1.05,-1.1c-0.36667,-0.36667 -0.71667,-0.71667 -1.05,-1.05c-0.36667,-0.36667 -0.73333,-0.73333 -1.1,-1.1c-0.36667,-0.33333 -0.71667,-0.68333 -1.05,-1.05c-0.23333,-0.36667 -0.48333,-0.73333 -0.75,-1.1c-0.46667,-0.33333 -0.93333,-0.68333 -1.4,-1.05c-0.36667,-0.36667 -0.73333,-0.71667 -1.1,-1.05c-0.33333,-0.36667 -0.68333,-0.73333 -1.05,-1.1c-0.23333,-0.36667 -0.46667,-0.71667 -0.7,-1.05c-0.23333,-0.36667 -0.48333,-0.73333 -0.75,-1.1c-0.1,-0.33333 -0.21667,-0.68333 -0.35,-1.05c-0.33333,-0.36667 -0.68333,-0.71667 -1.05,-1.05c-0.23333,-0.36667 -0.46667,-0.73333 -0.7,-1.1c-0.26667,-0.36667 -0.51667,-0.71667 -0.75,-1.05c0,-0.36667 0,-0.73333 0,-1.1c-0.1,-0.33333 -0.21667,-0.68333 -0.35,-1.05c-0.23333,0.23333 -0.46667,0.46667 -0.7,0.7c0,0.36667 0,0.73333 0,1.1c-0.23333,0.33333 -0.46667,0.68333 -0.7,1.05c-0.26667,0.36667 -0.51667,0.71667 -0.75,1.05c-0.33333,0.36667 -0.68333,0.73333 -1.05,1.1c-0.36667,0.23333 -0.73333,0.46667 -1.1,0.7c-0.56667,0.23333 -1.15,0.46667 -1.75,0.7c-0.36667,0.36667 -0.73333,0.73333 -1.1,1.1c-0.33333,0.33333 -0.68333,0.68333 -1.05,1.05c-0.46667,0.36667 -0.95,0.73333 -1.45,1.1c-0.7,0.33333 -1.4,0.7 -2.1,1.1c-0.36667,0.2 -0.73333,0.41667 -1.1,0.65c-0.46667,0.13333 -0.95,0.25 -1.45,0.35c-2.36667,0 -4.73333,0 -7.1,0c-0.73333,-0.23333 -1.45,-0.46667 -2.15,-0.7c-0.5,-0.36667 -0.98333,-0.7 -1.45,-1c-0.6,-0.4 -1.2,-0.78333 -1.8,-1.15c-0.22565,-0.22565 -0.45898,-0.45898 -0.7,-0.7c-0.1,0.36667 -0.21667,0.71667 -0.35,1.05c-0.13333,0.36667 -0.25,0.73333 -0.35,1.1c-0.23333,0.36667 -0.46667,0.71667 -0.7,1.05c-0.36667,0.36667 -0.73333,0.73333 -1.1,1.1c-0.23333,0.33333 -0.46667,0.68333 -0.7,1.05c-0.13333,0.36667 -0.25,0.73333 -0.35,1.1c-0.36667,0.33333 -0.73333,0.68333 -1.1,1.05c-0.33333,0.36667 -0.68333,0.71667 -1.05,1.05c-0.23333,0.36667 -0.46667,0.73333 -0.7,1.1c-0.36667,0.36667 -0.73333,0.71667 -1.1,1.05c-0.36667,0.36667 -0.71667,0.73333 -1.05,1.1c-0.13333,0.33333 -0.25,0.68333 -0.35,1.05c-0.26667,0.36667 -0.51667,0.73333 -0.75,1.1c-0.46667,0.33333 -0.93333,0.68333 -1.4,1.05c-0.36667,0.36667 -0.73333,0.71667 -1.1,1.05c-0.23333,0.36667 -0.46667,0.73333 -0.7,1.1c-0.23333,0.36667 -0.46667,0.71667 -0.7,1.05c-0.36667,0.23333 -0.71667,0.48333 -1.05,0.75c-0.13333,0.1 -0.26667,0.21667 -0.4,0.35c-0.6,0.23333 -1.2,0.46667 -1.8,0.7c-0.33333,0.36667 -0.68333,0.71667 -1.05,1.05c-0.36667,0.26667 -0.71667,0.51667 -1.05,0.75c-0.13333,0.1 -0.26667,0.18333 -0.4,0.25c-0.7,0.3 -1.4,0.56667 -2.1,0.8c-0.26667,0.23333 -0.51667,0.46667 -0.75,0.7c-0.7,0.26667 -1.41667,0.51667 -2.15,0.75c-0.23333,0.23333 -0.46667,0.46667 -0.7,0.7c-0.6,0.13333 -1.2,0.25 -1.8,0.35c-4.73333,0 -9.48333,0 -14.25,0c-0.83333,-0.23333 -1.66667,-0.48333 -2.5,-0.75c-0.96667,-0.33333 -1.91667,-0.68333 -2.85,-1.05c-0.23333,-0.23333 -0.48333,-0.46667 -0.75,-0.7c-0.7,-0.23333 -1.4,-0.46667 -2.1,-0.7c-0.36667,-0.36667 -0.73333,-0.73333 -1.1,-1.1c-0.36667,-0.33333 -0.71667,-0.68333 -1.05,-1.05c-0.36667,-0.36667 -0.73333,-0.71667 -1.1,-1.05c-0.33333,-0.36667 -0.68333,-0.73333 -1.05,-1.1c-0.36667,-0.36667 -0.73333,-0.71667 -1.1,-1.05c-0.33333,-0.36667 -0.68333,-0.73333 -1.05,-1.1c-0.23333,-0.33333 -0.46667,-0.68333 -0.7,-1.05c-0.23333,-0.36667 -0.48333,-0.73333 -0.75,-1.1c-0.46667,-0.33333 -0.93333,-0.68333 -1.4,-1.05c-0.36667,-0.36667 -0.73333,-0.71667 -1.1,-1.05c-0.23333,-0.36667 -0.46667,-0.73333 -0.7,-1.1c-0.1,-0.36667 -0.21667,-0.71667 -0.35,-1.05c-0.23333,-0.36667 -0.46667,-0.73333 -0.7,-1.1c-0.36667,-0.33333 -0.73333,-0.68333 -1.1,-1.05c-0.23333,-0.36667 -0.46667,-0.73333 -0.7,-1.1c-0.13333,-0.33333 -0.25,-0.68333 -0.35,-1.05c-0.23333,-0.36667 -0.46667,-0.71667 -0.7,-1.05c-0.36667,-0.36667 -0.73333,-0.73333 -1.1,-1.1c-0.23333,-0.36667 -0.46667,-0.71667 -0.7,-1.05c-0.13333,-0.36667 -0.25,-0.73333 -0.35,-1.1c-0.23333,-0.33333 -0.48333,-0.68333 -0.75,-1.05c-0.23333,-0.36667 -0.46667,-0.73333 -0.7,-1.1c-0.1,-0.33333 -0.21667,-0.68333 -0.35,-1.05c-0.13333,-0.36667 -0.25,-0.71667 -0.35,-1.05c-0.23333,-0.36667 -0.46667,-0.73333 -0.7,-1.1c-0.13333,-0.33333 -0.26667,-0.68333 -0.4,-1.05c-0.23333,-0.36667 -0.46667,-0.73333 -0.7,-1.1c-0.1,-0.33333 -0.21667,-0.68333 -0.35,-1.05c0,-0.36667 0,-0.71667 0,-1.05c-0.13333,-0.36667 -0.25,-0.73333 -0.35,-1.1c-0.23333,-0.36667 -0.46667,-0.71667 -0.7,-1.05c-0.13333,-0.36667 -0.26667,-0.73333 -0.4,-1.1c0,-0.33333 0,-0.68333 0,-1.05c0,-0.36667 0,-0.73333 0,-1.1c-0.1,-0.33333 -0.21667,-0.68333 -0.35,-1.05c-0.1,-0.36667 -0.21667,-0.71667 -0.35,-1.05c-0.23333,-0.36667 -0.46667,-0.73333 -0.7,-1.1c0,-0.36667 0,-0.71667 0,-1.05c0,-0.36667 0,-0.73333 0,-1.1c0,-0.33333 0,-0.68333 0,-1.05c-0.23333,-0.36667 -0.46667,-0.73333 -0.7,-1.1c-0.26667,-0.33333 -0.51667,-0.68333 -0.75,-1.05c0,-0.36667 0,-0.71667 0,-1.05c0,-0.36667 0,-0.73333 0,-1.1c0,-0.36667 0,-0.71667 0,-1.05c-0.1,-0.36667 -0.21667,-0.73333 -0.35,-1.1c-0.23333,-0.33333 -0.46667,-0.68333 -0.7,-1.05c-0.13333,-0.36667 -0.25,-0.73333 -0.35,-1.1c0,-0.33333 0,-0.68333 0,-1.05c0,-0.36667 0,-0.71667 0,-1.05c0,-0.36667 0,-0.73333 0,-1.1c0,-0.36667 0,-0.71667 0,-1.05c0,-0.36667 0,-0.73333 0,-1.1c-0.13333,-0.33333 -0.25,-0.68333 -0.35,-1.05c-0.26667,-0.36667 -0.51667,-0.73333 -0.75,-1.1c-0.1,-0.33333 -0.21667,-0.68333 -0.35,-1.05c0,-1.43333 0,-2.86667 0,-4.3c0,-1.06667 0,-2.13333 0,-3.2c0,-1.06667 0,-2.13333 0,-3.2c0,-1.43333 0,-2.86667 0,-4.3c0,-1.43333 0,-2.86667 0,-4.3c0,-1.43333 0,-2.85 0,-4.25c0,-0.36667 0,-0.73333 0,-1.1c0.23333,-0.36667 0.46667,-0.71667 0.7,-1.05c0.13333,-0.36667 0.26667,-0.73333 0.4,-1.1c0.1,-0.33333 0.21667,-0.68333 0.35,-1.05c0,-0.36667 0,-0.73333 0,-1.1c0,-0.33333 0,-0.68333 0,-1.05c0,-0.36667 0,-0.71667 0,-1.05c0,-0.36667 0,-0.73333 0,-1.1c0,-0.36667 0,-0.71667 0,-1.05c0.23333,-0.36667 0.46667,-0.73333 0.7,-1.1c0.13333,-0.33333 0.25,-0.68333 0.35,-1.05c0.13333,-0.36667 0.25,-0.71667 0.35,-1.05c0,-0.36667 0,-0.73333 0,-1.1c0,-0.36667 0,-0.71667 0,-1.05c0,-0.36667 0,-0.73333 0,-1.1c0,-0.33333 0,-0.68333 0,-1.05c0.23333,-0.36667 0.48333,-0.73333 0.75,-1.1c0.23333,-0.33333 0.46667,-0.68333 0.7,-1.05c0,-0.36667 0,-0.71667 0,-1.05c0,-0.36667 0,-0.73333 0,-1.1c0,-0.36667 0,-0.71667 0,-1.05c0,-0.36667 0,-0.73333 0,-1.1c0.1,-0.33333 0.21667,-0.68333 0.35,-1.05c0.23333,-0.36667 0.46667,-0.73333 0.7,-1.1c0.13333,-0.33333 0.25,-0.68333 0.35,-1.05c0,-0.36667 0,-0.71667 0,-1.05c0.13333,-0.36667 0.26667,-0.73333 0.4,-1.1c0.23333,-0.36667 0.46667,-0.71667 0.7,-1.05c0.1,-0.36667 0.21667,-0.73333 0.35,-1.1c0,-0.33333 0,-0.68333 0,-1.05c0,-0.36667 0,-0.73333 0,-1.1c0,-0.33333 0,-0.68333 0,-1.05c0.23333,-0.36667 0.46667,-0.71667 0.7,-1.05c0.23333,-0.36667 0.48333,-0.73333 0.75,-1.1c0.1,-0.36667 0.21667,-0.71667 0.35,-1.05c0,-0.36667 0,-0.73333 0,-1.1c0.33333,-0.33333 0.68333,-0.68333 1.05,-1.05c0.13333,-0.36667 0.25,-0.73333 0.35,-1.1c0,-0.33333 0,-0.68333 0,-1.05c0,-0.36667 0,-0.71667 0,-1.05c0.36667,-0.36667 0.73333,-0.73333 1.1,-1.1c0.23333,-0.36667 0.46667,-0.71667 0.7,-1.05c0.23333,-0.36667 0.46667,-0.73333 0.7,-1.1c0.13333,-0.33333 0.25,-0.68333 0.35,-1.05c0.36667,-0.36667 0.73333,-0.73333 1.1,-1.1c0.1,-0.33333 0.21667,-0.68333 0.35,-1.05c0.13333,-0.36667 0.25,-0.71667 0.35,-1.05c0.13333,-0.36667 0.25,-0.73333 0.35,-1.1c0.23333,-0.36667 0.48333,-0.71667 0.75,-1.05c0.23333,-0.36667 0.46667,-0.73333 0.7,-1.1c0.36667,-0.33333 0.71667,-0.68333 1.05,-1.05c0.36667,-0.36667 0.73333,-0.73333 1.1,-1.1c0.23333,-0.33333 0.46667,-0.68333 0.7,-1.05c0.13333,-0.36667 0.25,-0.71667 0.35,-1.05c0.23333,-0.36667 0.46667,-0.73333 0.7,-1.1c0.36667,-0.36667 0.73333,-0.71667 1.1,-1.05c0.36667,-0.36667 0.71667,-0.73333 1.05,-1.1c0.36667,-0.33333 0.73333,-0.68333 1.1,-1.05c0.23333,-0.36667 0.46667,-0.73333 0.7,-1.1c0.23333,-0.33333 0.46667,-0.68333 0.7,-1.05c0.23333,-0.36667 0.48333,-0.71667 0.75,-1.05c0.33333,-0.36667 0.68333,-0.73333 1.05,-1.1c0.36667,-0.36667 0.71667,-0.71667 1.05,-1.05c0.26667,-0.36667 0.51667,-0.73333 0.75,-1.1c0.1,-0.33333 0.21667,-0.68333 0.35,-1.05c0.23333,-0.36667 0.46667,-0.73333 0.7,-1.1c0.13333,-0.33333 0.25,-0.68333 0.35,-1.05c0.23333,-0.36667 0.48333,-0.71667 0.75,-1.05c0.23333,-0.36667 0.46667,-0.73333 0.7,-1.1c0.7,-0.36667 1.41667,-0.71667 2.15,-1.05c0.23333,-0.36667 0.46667,-0.73333 0.7,-1.1c0.18333,-0.16667 0.36667,-0.33333 0.55,-0.5c0.05,-0.18333 0.1,-0.36667 0.15,-0.55c0.23333,-0.36667 0.48333,-0.71667 0.75,-1.05c0.33333,-0.36667 0.68333,-0.73333 1.05,-1.1c0.6,-0.36667 1.18333,-0.73333 1.75,-1.1c0.5,-0.33333 0.98333,-0.68333 1.45,-1.05c0.73333,-0.23333 1.45,-0.46667 2.15,-0.7c3.56667,-0.23333 7.13333,-0.46667 10.7,-0.7c0.73333,-0.23333 1.45,-0.48333 2.15,-0.75c2.4,0 4.78333,-0.05 7.15,-0.15v-0.2c3.33333,0 6.66667,0 10,0c0.7,0.23333 1.41667,0.45 2.15,0.65c1.2,0.3 2.38333,0.58333 3.55,0.85c0.73333,0.2 1.45,0.41667 2.15,0.65c0.36667,0.23333 0.73333,0.46667 1.1,0.7c0.56667,0.26667 1.15,0.51667 1.75,0.75c0.36667,0.33333 0.73333,0.68333 1.1,1.05c0.33333,0.36667 0.68333,0.73333 1.05,1.1c0.23333,0.33333 0.46667,0.68333 0.7,1.05c0.13333,0.36667 0.26667,0.71667 0.4,1.05c0.33333,0.36667 0.68333,0.73333 1.05,1.1c0.23333,0.33333 0.46667,0.68333 0.7,1.05c0.36667,0.36667 0.73333,0.73333 1.1,1.1c0.23333,0.33333 0.46667,0.68333 0.7,1.05c0.23333,0.36667 0.46667,0.71667 0.7,1.05c0.13333,0.36667 0.25,0.73333 0.35,1.1c0.5,0.1 0.98333,0.21667 1.45,0.35c0.13333,-0.23333 0.26667,-0.46667 0.4,-0.7c0.2,-0.36667 0.41667,-0.73333 0.65,-1.1c0.36667,-0.33333 0.73333,-0.68333 1.1,-1.05c0.36667,-0.36667 0.71667,-0.73333 1.05,-1.1c0.36667,-0.33333 0.73333,-0.68333 1.1,-1.05c0.33333,-0.36667 0.68333,-0.71667 1.05,-1.05c0.46667,-0.36667 0.95,-0.73333 1.45,-1.1c0.23333,-0.36667 0.46667,-0.71667 0.7,-1.05c0.83333,-0.36667 1.66667,-0.73333 2.5,-1.1c0.36667,-0.23333 0.71667,-0.46667 1.05,-0.7c0.6,-0.1 1.2,-0.21667 1.8,-0.35c8.56667,-0.13333 17.13333,-0.25 25.7,-0.35c0.5,0 0.98333,0 1.45,0c0.7,0.23333 1.41667,0.43333 2.15,0.6c1.16667,0.3 2.35,0.6 3.55,0.9c0.73333,0.2 1.45,0.41667 2.15,0.65c0.36667,0.23333 0.71667,0.46667 1.05,0.7c0.6,0.23333 1.2,0.46667 1.8,0.7c0.46667,0.36667 0.95,0.73333 1.45,1.1c0.33333,0.33333 0.68333,0.68333 1.05,1.05c0.13333,0.36667 0.25,0.71667 0.35,1.05c0.23333,0.36667 0.48333,0.73333 0.75,1.1c0,0.36667 0,0.71667 0,1.05c0,0.36667 0,0.73333 0,1.1c0,0.33333 0,0.68333 0,1.05c0.23333,0.36667 0.46667,0.73333 0.7,1.1c0.1,0.33333 0.21667,0.68333 0.35,1.05c0.13333,0.36667 0.25,0.71667 0.35,1.05c0,0.36667 0,0.73333 0,1.1c0,0.36667 0,0.71667 0,1.05c0.13333,0.36667 0.25,0.73333 0.35,1.1c0.23333,0.33333 0.48333,0.68333 0.75,1.05c0.1,0.36667 0.21667,0.73333 0.35,1.1c0,0.33333 0,0.68333 0,1.05c0,0.36667 0,0.71667 0,1.05c0,0.36667 0,0.73333 0,1.1c0,0.23333 0,0.46667 0,0.7c0.33333,0 0.68333,0 1.05,0c0.6,-0.23333 1.2,-0.46667 1.8,-0.7c0.36667,-0.36667 0.71667,-0.73333 1.05,-1.1c0.23333,-0.33333 0.48333,-0.68333 0.75,-1.05c0.33333,-0.36667 0.68333,-0.71667 1.05,-1.05c0.36667,-0.26667 0.71667,-0.51667 1.05,-0.75c0.6,-0.23333 1.2,-0.46667 1.8,-0.7c0.36667,-0.36667 0.73333,-0.71667 1.1,-1.05c0.23333,-0.26667 0.46667,-0.51667 0.7,-0.75c0.23333,-0.1 0.46667,-0.21667 0.7,-0.35c0.6,-0.1 1.2,-0.21667 1.8,-0.35c0.6,-0.23333 1.2,-0.45 1.8,-0.65c0.83333,-0.26667 1.65,-0.55 2.45,-0.85c0.6,-0.2 1.21667,-0.4 1.85,-0.6c0.8,-0.26667 1.61667,-0.51667 2.45,-0.75c3.33333,0 6.66667,0 10,0c0.73333,0.23333 1.45,0.46667 2.15,0.7c0.36667,0.23333 0.73333,0.46667 1.1,0.7c0.56667,0.26667 1.15,0.51667 1.75,0.75c0.36667,0.23333 0.73333,0.46667 1.1,0.7c0.56667,0.23333 1.16667,0.46667 1.8,0.7c0.7,0.23333 1.4,0.48333 2.1,0.75c0.53281,0.16953 1.04948,0.3362 1.55,0.5c0.20729,-0.29714 0.40729,-0.59714 0.6,-0.9c0,-0.33333 0,-0.68333 0,-1.05c0.36667,-0.36667 0.71667,-0.71667 1.05,-1.05c0.36667,-0.36667 0.73333,-0.73333 1.1,-1.1c0.23333,-0.36667 0.46667,-0.71667 0.7,-1.05c0,-0.36667 0,-0.73333 0,-1.1c0.36667,-0.33333 0.73333,-0.68333 1.1,-1.05c0.33333,-0.36667 0.68333,-0.73333 1.05,-1.1c0.36667,-0.33333 0.71667,-0.68333 1.05,-1.05c0.36667,-0.36667 0.73333,-0.71667 1.1,-1.05c0.83333,-0.36667 1.66667,-0.73333 2.5,-1.1c0.36667,-0.36667 0.71667,-0.71667 1.05,-1.05c0.23333,-0.36667 0.48333,-0.73333 0.75,-1.1c0.23333,-0.33333 0.46667,-0.68333 0.7,-1.05c0.36667,-0.36667 0.71667,-0.71667 1.05,-1.05c0.5,-0.36667 0.98333,-0.73333 1.45,-1.1c0.23333,-0.36667 0.46667,-0.71667 0.7,-1.05c0.83333,-0.36667 1.66667,-0.73333 2.5,-1.1c0.36667,-0.33333 0.73333,-0.68333 1.1,-1.05c0.33333,-0.23333 0.68333,-0.48333 1.05,-0.75c0.13333,-0.1 0.25,-0.21667 0.35,-0.35c0.6,-0.23333 1.2,-0.46667 1.8,-0.7c0.36667,-0.23333 0.71667,-0.46667 1.05,-0.7c0.6,-0.13333 1.2,-0.26667 1.8,-0.4c1.06667,-0.2 2.13333,-0.43333 3.2,-0.7c0.83333,-0.23333 1.66667,-0.46667 2.5,-0.7c4.76667,0 9.53333,0 14.3,0c0.7,0.23333 1.41667,0.45 2.15,0.65c1.2,0.3 2.38333,0.58333 3.55,0.85c0.73333,0.2 1.45,0.41667 2.15,0.65c1.66667,0.23333 3.33333,0.46667 5,0.7c0.73333,0.23333 1.45,0.45 2.15,0.65c1.2,0.3 2.38333,0.58333 3.55,0.85c0.73333,0.2 1.46667,0.4 2.2,0.6c1.86667,0.5 3.76667,0.93333 5.7,1.3c2.93333,0.56667 5.78333,1.46667 8.55,2.7c0.36667,0.23333 0.71667,0.46667 1.05,0.7z" fill="#000000"/><path d="M299.3455,326.0027l-8,-0.1c-1.26667,0.96667 -2.43333,2.05 -3.5,3.25c-2.2,2.36667 -2.63333,4.98333 -1.3,7.85c3.2,6.86667 8.73333,11.01667 16.6,12.45c10.1,1.76667 19.55,5.26667 28.35,10.5c3.06667,1.8 5.46667,4.2 7.2,7.2c7.56667,13.26667 8.08333,26.9 1.55,40.9c-2.16667,4.66667 -5.38333,8.41667 -9.65,11.25c-9.1,6.1 -19.21667,8.7 -30.35,7.8c-18.7,-0.96667 -32.51667,-9.66667 -41.45,-26.1c-5,-9.2 -6.06667,-18.68333 -3.2,-28.45c0.7,-2.43333 2.2,-4.21667 4.5,-5.35c5.96667,-2.86667 11.28333,-1.86667 15.95,3c6.06667,6.26667 12.61667,11.9 19.65,16.9c4.46667,3.23333 9.41667,4.38333 14.85,3.45c7.33333,-1.1 10.21667,-5.25 8.65,-12.45c-0.46667,-2.06667 -1.43333,-3.73333 -2.9,-5c-6.66667,-5.83333 -14.58333,-9.18333 -23.75,-10.05c-8.3,-1.06667 -15.78333,-3.96667 -22.45,-8.7c-1.26667,-0.9 -2.21667,-2.05 -2.85,-3.45c-4.56667,-9.83333 -4.73333,-19.95 -0.5,-30.35c5.53333,-13.53333 15.51667,-21.16667 29.95,-22.9c10.36667,-1.4 19.61667,1.25 27.75,7.95c9.16667,7.56667 12.83333,17.4 11,29.5c-0.6,3.96667 -2.81667,6.46667 -6.65,7.5c-11.76667,2.83333 -20.5,-1.11667 -26.2,-11.85l-3.25,-4.75M411.8955,310.8027c6.36667,5.96667 8.43333,13.6 6.2,22.9c-0.73333,5.5 -3.6,9.51667 -8.6,12.05c-5.83333,2.96667 -12.01667,3.91667 -18.55,2.85c-3.9,-0.66667 -6.91667,-0.4 -9.05,0.8c-0.53333,3.5 -0.61667,7 -0.25,10.5c1.33333,12.73333 2.78333,25.5 4.35,38.3c0.5,4 0.13333,7.98333 -1.1,11.95c-3.63333,11.53333 -11.6,15.91667 -23.9,13.15c-2.63333,-0.56667 -4.8,-1.93333 -6.5,-4.1c-4.76667,-6.16667 -7.05,-13.38333 -6.85,-21.65c0.43333,-18.16667 4.23333,-35.7 11.4,-52.6c-6.93333,1.76667 -13.36667,1.25 -19.3,-1.55c-0.2,-0.43333 -0.33333,-0.86667 -0.4,-1.3c-0.7,-6.43333 -0.41667,-12.76667 0.85,-19c1.4,-6.76667 5.36667,-11.2 11.9,-13.3c5.66667,-1.73333 11.43333,-3.08333 17.3,-4.05c12.96667,-1.76667 25.6,-0.93333 37.9,2.5c1.76667,0.5 3.3,1.35 4.6,2.55M429.0455,358.9027c10.2,6.56667 15.51667,16.13333 15.95,28.7c0.73333,3.9 0.41667,7.7 -0.95,11.4c-0.96667,2.56667 -2.68333,4.51667 -5.15,5.85c-7.93333,4.4 -16.48333,5.71667 -25.65,3.95c-12.7,-2.4 -19.68333,-10 -20.95,-22.8c-0.3,-3 0,-5.96667 0.9,-8.9c4.03333,-13.23333 13.05,-20.18333 27.05,-20.85c3.16667,0.06667 6.1,0.95 8.8,2.65M421.2955,381.1027c-1.13333,-1.13333 -2.51667,-1.7 -4.15,-1.7c-1.63333,0 -3.03333,0.56667 -4.2,1.7c-1.13333,1.16667 -1.7,2.56667 -1.7,4.2c0,1.63333 0.56667,3.01667 1.7,4.15c1.16667,1.16667 2.56667,1.75 4.2,1.75c1.63333,0 3.01667,-0.58333 4.15,-1.75c1.16667,-1.13333 1.75,-2.51667 1.75,-4.15c0,-1.63333 -0.58333,-3.03333 -1.75,-4.2M524.8455,329.4527c-5.16667,13.93333 -14.7,24.05 -28.6,30.35c14.33333,5.86667 27.41667,13.85 39.25,23.95c5.46667,4.66667 9.53333,10.28333 12.2,16.85c2.36667,5.83333 0.58333,9.78333 -5.35,11.85c-4.23333,1.43333 -8.45,1.55 -12.65,0.35c-19.7,-5.9 -36.76667,-16.38333 -51.2,-31.45c1.76667,6.7 3.51667,13.7 5.25,21c2.36667,10.13333 -0.6,18.11667 -8.9,23.95c-4.16667,1.56667 -8.16667,1.53333 -12,-0.1c-3.33333,-1.36667 -5.48333,-3.76667 -6.45,-7.2c-6.86667,-23.93333 -10.35,-48.51667 -10.45,-73.75c-3.3,1.83333 -6.83333,2.6 -10.6,2.3c-1.6,-0.3 -2.9,-1.13333 -3.9,-2.5c-6.16667,-8.16667 -8.3,-17.61667 -6.4,-28.35c0.66667,-0.83333 1.41667,-1.51667 2.25,-2.05c7.83333,-5.03333 16.38333,-8.45 25.65,-10.25c18.1,-3.56667 36.06667,-3.4 53.9,0.5c11.56667,2.43333 17.9,9.28333 19,20.55c-0.2,1.36667 -0.53333,2.7 -1,4M470.2455,335.7527l3.2,9.2l10.75,-8.2l-6.4,-1.6l-7.55,0.6M623.6955,322.6527c-12.66667,18.76667 -26.3,36.86667 -40.9,54.3c3.56667,9.23333 7.21667,18.38333 10.95,27.45c1.86667,4.63333 0.88333,8.58333 -2.95,11.85c-8.63333,7.26667 -18.23333,9.1 -28.8,5.5c-2.06667,-0.66667 -3.38333,-1.96667 -3.95,-3.9c-3.63333,-12.56667 -4.93333,-25.33333 -3.9,-38.3l-35.5,-22.05c-0.13333,-2.63333 0.4,-5.15 1.6,-7.55c2.1,-4.26667 4.43333,-8.33333 7,-12.2c3.7,-5.6 8.61667,-9.08333 14.75,-10.45c1.6,-0.33333 2.95,0.13333 4.05,1.4c6.8,7.53333 12.85,15.66667 18.15,24.4c5.43333,-9.1 10.93333,-18.13333 16.5,-27.1c1.83333,-2.96667 3.45,-5.95 4.85,-8.95c4.16667,-9.06667 9.85,-16.88333 17.05,-23.45c2.7,-2.43333 5.85,-3.46667 9.45,-3.1c9.86667,0.63333 15.81667,5.81667 17.85,15.55c-0.7,5.96667 -2.76667,11.5 -6.2,16.6M761.1455,337.3027c-1.36667,6.8 -1.13333,13.55 0.7,20.25c5.06667,18.4 16.1,32.15 33.1,41.25c3.13333,1.63333 5.06667,4.13333 5.8,7.5c0.43333,1.9 -0.18333,3.43333 -1.85,4.6c-7.73333,5.66667 -16.56667,7.55 -26.5,5.65c-2.33333,-0.36667 -4.48333,-1.28333 -6.45,-2.75c-12.93333,-9.6 -21.88333,-22.38333 -26.85,-38.35c0,1.36667 0.03333,2.71667 0.1,4.05c0.2,4.4 0.3,8.8 0.3,13.2c0,5.23333 -1.75,9.45 -5.25,12.65c-1.76667,0.23333 -3.5,-0.06667 -5.2,-0.9c-11.13333,-5.63333 -19.63333,-14.2 -25.5,-25.7c-2.56667,-5.1 -5.01667,-9.51667 -7.35,-13.25c-0.36667,0.9 -0.58333,1.78333 -0.65,2.65c-0.7,7.16667 1.55,13.71667 6.75,19.65c3.9,4.5 6.35,9.66667 7.35,15.5c0.8,4.83333 -1.01667,8.3 -5.45,10.4c-8.2,3.96667 -16.51667,4.31667 -24.95,1.05c-2.33333,-0.86667 -4.21667,-2.3 -5.65,-4.3c-8.46667,-11.86667 -12.71667,-25.3 -12.75,-40.3c0,-1.56667 0.06667,-3.1 0.2,-4.6c1.83333,-18.53333 8.1,-35.51667 18.8,-50.95c4.6,-6.63333 10.73333,-10.58333 18.4,-11.85c6,-0.86667 10.73333,0.86667 14.2,5.2c1.5,1.86667 2.08333,3.88333 1.75,6.05c-1.96667,12.73333 -1.91667,25.45 0.15,38.15c2.56667,-17.43333 9.46667,-32.98333 20.7,-46.65c4.96667,-0.23333 9.93333,-0.35 14.9,-0.35c1.1,0 2.18333,-0.08333 3.25,-0.25c4.73333,-0.4 8.05,1.28333 9.95,5.05c0.5,9.16667 -0.16667,18.28333 -2,27.35M841.0455,373.4527c-6.46667,8.8 -15.18333,13.51667 -26.15,14.15c-12.46667,1.1 -24.13333,-1.3 -35,-7.2c-1.66667,-0.93333 -3.06667,-2.15 -4.2,-3.65c-8.86667,-11.63333 -9.9,-24.23333 -3.1,-37.8c1.16667,-2.3 2.78333,-4.13333 4.85,-5.5c7.9,-5 16.71667,-7.95 26.45,-8.85c14.1,-1.43333 25.71667,2.98333 34.85,13.25c10.03333,11.3 10.8,23.16667 2.3,35.6M813.7455,361.5527c5.03333,-4.46667 4.86667,-8.91667 -0.5,-13.35l-13.9,-3.55c-0.06667,0.23333 -0.15,0.48333 -0.25,0.75c-2.4,7.66667 -0.4,13.63333 6,17.9l7.35,-0.55c0.43333,-0.4 0.86667,-0.8 1.3,-1.2M930.7455,370.0027c-7.5,21.06667 -21.96667,35.36667 -43.4,42.9c-18.73333,6.63333 -37.86667,8.01667 -57.4,4.15l-7.25,-20.45c0.33333,-0.5 0.73333,-0.85 1.2,-1.05c7.3,-4 15,-7.23333 23.1,-9.7c1.86667,-0.63333 3.28333,-1.68333 4.25,-3.15c9.03333,-13.33333 12.08333,-28.08333 9.15,-44.25c-0.5,-2.86667 -1.9,-5.15 -4.2,-6.85c-7.3,-5.36667 -15.45,-8.43333 -24.45,-9.2c-0.83333,-4.96667 -0.56667,-9.85 0.8,-14.65c1.03333,-3.7 3.35,-5.98333 6.95,-6.85c11.9,-2.96667 23.88333,-2.73333 35.95,0.7c6.6,1.8 13.28333,3.45 20.05,4.95c13.9,3.06667 24.36667,10.7 31.4,22.9c3.46667,5.73333 5.58333,11.93333 6.35,18.6c0.83333,7.56667 0,14.88333 -2.5,21.95M903.2955,342.5027c-5.2,-4.5 -11.36667,-6.68333 -18.5,-6.55c2.26667,16.36667 0.58333,32.31667 -5.05,47.85c10.46667,-3.83333 18.71667,-10.26667 24.75,-19.3c5.3,-8.03333 4.9,-15.36667 -1.2,-22M1008.2955,326.7527c-12.9,8.93333 -27.4,13.9 -43.5,14.9l0.55,5.3c5.13333,-0.5 10.26667,-0.65 15.4,-0.45c8.23333,0.73333 12.65,4.95 13.25,12.65c0.1,1.5 -0.41667,2.8 -1.55,3.9c-8.3,7.83333 -18.51667,10.9 -30.65,9.2l-1.05,13.3c5.73333,-2.83333 11.81667,-4.28333 18.25,-4.35c5.56667,-0.06667 10.95,0.83333 16.15,2.7c11.23333,4.06667 15.76667,12.15 13.6,24.25c-1.13333,6.4 -4.61667,10.88333 -10.45,13.45c-5.46667,2.43333 -11.11667,3 -16.95,1.7c-13.3,-2.96667 -26.8,-4.91667 -40.5,-5.85c-2.66667,-0.23333 -5.21667,0.15 -7.65,1.15c-6.83333,3.03333 -12.9,2.43333 -18.2,-1.8c-0.2,-0.8 -0.13333,-1.53333 0.2,-2.2c5.8,-11.26667 11.66667,-22.56667 17.6,-33.9c5.03333,-9.56667 7.16667,-19.63333 6.4,-30.2c-0.5,-6.8 -2.31667,-13.26667 -5.45,-19.4c-2.66667,-5.16667 -3.96667,-10.45 -3.9,-15.85c3.36667,-2.7 7.31667,-3.78333 11.85,-3.25c6.76667,0.9 13.5,1 20.2,0.3c1.83333,-0.06667 3.55,-0.51667 5.15,-1.35c7.9,-4.26667 15.93333,-8.31667 24.1,-12.15c6.7,-3.16667 12.88333,-2.93333 18.55,0.7c0.7,0.46667 1.21667,1.08333 1.55,1.85c3.96667,8.96667 2.98333,17.43333 -2.95,25.4z" fill="#ffffff"/></g></g></svg>