<svg version="1.1" xmlns="http://www.w3.org/2000/svg" xmlns:xlink="http://www.w3.org/1999/xlink" width="76.55009" height="75.11939" viewBox="0,0,76.55009,75.11939"><g transform="translate(-592.20076,-331.79721)"><g data-paper-data="{&quot;isPaintingLayer&quot;:true}" fill-rule="nonzero" stroke="none" stroke-linecap="butt" stroke-linejoin="miter" stroke-miterlimit="10" stroke-dasharray="" stroke-dashoffset="0" style="mix-blend-mode: normal"><path d="M649.33954,342.1637c1.91133,0.97065 5.6133,5.71022 11.10593,14.21869c5.48648,8.21518 8.25494,13.13731 8.30538,14.76642c-0.01781,1.48382 -0.4308,2.7803 -1.23894,3.88945c-0.82682,0.99543 -3.02469,2.68795 -6.59357,5.07757c-3.64729,2.53798 -6.34772,4.36328 -8.10128,5.47594c-1.72404,0.96532 -3.86286,-0.3592 -6.41646,-3.97356c-0.10084,-0.1446 -0.20168,-0.28921 -0.30252,-0.43381c-0.47127,-0.7074 -0.90129,-1.39121 -1.29006,-2.05142c0.00103,0.04888 0.00204,0.09776 0.00307,0.14666c-0.08777,1.25707 -0.17247,2.66079 -0.25409,4.21114c-0.01781,1.48382 0.08805,3.81274 0.31757,6.98675c0.19761,3.20729 0.299,4.93313 0.30411,5.17754c-0.02541,0.34287 0.01558,1.13264 0.123,2.36931c-0.05689,1.17491 -0.28709,2.24749 -0.6906,3.21774c-1.38944,2.9308 -4.70107,4.76077 -9.93492,5.48992c-4.44191,0.4028 -8.93023,0.14637 -13.46498,-0.7693c-1.70336,-1.9368 -2.70592,-4.27139 -3.0077,-7.00374c-0.03433,-3.1944 -0.09148,-5.53249 -0.17143,-7.01426c-0.18874,-2.78363 -0.30019,-4.99017 -0.33433,-6.61962c-0.08654,-2.57384 -0.01264,-4.88207 0.22169,-6.92469c-0.03396,-0.0645 -0.0679,-0.12899 -0.10186,-0.19349c-0.018,-0.08113 -0.036,-0.16226 -0.05401,-0.24339c-0.33467,0.36565 -0.93576,1.24223 -1.80327,2.62975c-1.07115,1.78302 -1.85245,3.00571 -2.34394,3.66808c-0.25388,0.33135 -0.50793,0.65456 -0.76217,0.96961c-1.98901,2.32391 -3.90619,3.40739 -5.75157,3.25044c-1.71708,-0.25745 -4.728,-3.1368 -9.03279,-8.63806c-1.38966,-1.74777 -2.78103,-3.57699 -4.1741,-5.48769c-1.15948,-1.65478 -1.72328,-2.4988 -1.69137,-2.53206c-0.08908,-1.13926 1.49012,-3.95991 4.73763,-8.46202c1.59897,-2.26683 3.28841,-4.49479 5.06832,-6.68391c1.33629,-1.57666 3.36719,-4.23563 6.09269,-7.9769c1.22292,-1.54168 2.47437,-2.88834 3.75437,-4.03997c2.35925,-3.32607 5.16835,-6.18881 8.42731,-8.58823c4.31391,-3.39962 8.72736,-4.77179 13.24034,-4.11649c5.30366,1.04629 10.57517,4.44883 15.81456,10.20763M633.76074,336.20586c-5.03465,0.1218 -8.65245,0.95564 -10.85338,2.5015c-1.722,1.06309 -3.40424,2.46767 -5.04672,4.21377c-2.61893,3.38041 -5.20767,6.64609 -7.76621,9.79701c0.34789,-0.51263 0.83122,-1.17483 1.44997,-1.98658c-1.25653,1.49348 -2.28124,2.77017 -3.07412,3.83009c-0.47859,0.49908 -0.84381,0.96318 -1.09564,1.39229c-0.49523,0.48312 -0.82073,0.89748 -0.97651,1.24309c-6.77064,9.07517 -10.10924,13.89706 -10.01582,14.46566c0.02994,0.65144 1.59582,2.64003 4.69762,5.96578c2.81932,3.07083 4.8934,5.1955 6.22223,6.37397c0.23929,-0.24954 0.5816,-0.6398 1.02692,-1.17079c1.11295,-1.34375 2.88387,-3.57344 5.31274,-6.68904c2.76354,-3.48126 4.81675,-5.46417 6.15963,-5.94876c0.19417,-0.06927 0.38087,-0.10579 0.56012,-0.10955c0.94439,-0.05239 1.55788,0.4401 1.84044,1.47749c0.12396,0.47015 0.17597,1.00701 0.15601,1.61059c-0.00639,0.47288 -0.08503,5.6666 -0.23591,15.58116c-0.07016,3.65304 -0.13417,6.43381 -0.19198,8.34231c0.21603,0.97357 0.44279,2.46042 0.68032,4.46055c3.89243,0.6031 7.7753,0.74996 11.64861,0.44058c2.75367,-0.84018 4.61998,-1.62916 5.59891,-2.36695c1.0268,-0.78769 1.53588,-1.77645 1.52725,-2.96629c0.0121,-0.97835 0.02101,-1.72026 0.02672,-2.22573c0.01143,-1.01094 0.01673,-1.92394 0.01596,-2.73901c0.01517,-0.8317 0.02079,-2.11964 0.01684,-3.86384c-0.01956,-1.71126 -0.08763,-7.29314 -0.20418,-16.74566c-0.02005,-0.1789 -0.00973,-0.46439 0.03097,-0.85649c0.06245,-0.13172 0.12456,-0.27974 0.18632,-0.44405l0.02444,-0.00051c0.14289,-0.18231 0.47506,-0.27894 0.99647,-0.28987c0.21182,-0.00444 0.44132,0.05596 0.68847,0.18119c1.05411,0.51586 2.51487,2.15617 4.3823,4.92093c1.36185,1.97657 2.72796,4.1568 4.09836,6.54073c0.20338,0.37068 0.40678,0.74136 0.61016,1.11203c0.78682,-0.57074 3.08735,-2.42029 6.90158,-5.54861c3.73652,-2.94738 5.58286,-4.6896 5.539,-5.22663c-0.11109,-0.63344 -1.30628,-2.82541 -3.5856,-6.57594c-2.34244,-3.6514 -6.26381,-9.13622 -11.76409,-16.45452c-5.46233,-7.84074 -10.6584,-11.92138 -15.58821,-12.24193M640.05267,371.57898l-0.02496,-0.02393l0.02086,-0.1716c0.00137,0.06518 0.00274,0.13035 0.0041,0.19553z" fill="#000000" stroke-width="1"/><path d="M633.76684,336.14294c4.92981,0.32055 10.16225,4.41727 15.62458,12.25801c5.50029,7.3183 9.4418,12.84123 11.78424,16.49262c2.27931,3.75052 3.47496,5.95551 3.58605,6.58895c0.04385,0.53704 -1.80442,2.2911 -5.54094,5.23848c-3.81424,3.12832 -6.12177,4.99441 -6.90859,5.56515c-0.20338,-0.37068 -0.51586,-0.80525 -0.71924,-1.17592c-1.3704,-2.38393 -2.74176,-4.55221 -4.10361,-6.52878c-1.86743,-2.76475 -3.33115,-4.38838 -4.38526,-4.90424c-0.24715,-0.12524 -0.35029,-0.18129 -0.56211,-0.17684c-0.52142,0.01093 -0.85365,0.10939 -0.99655,0.2917l-0.02445,0.00053c-0.06176,0.16431 -0.12408,0.31499 -0.18653,0.44671c-0.04069,0.39209 -0.0517,0.68252 -0.03165,0.86142c0.11655,9.45251 0.15422,15.0778 0.17378,16.78907c0.00395,1.7442 -0.00605,3.03446 -0.02122,3.86616c0.00077,0.81507 -0.00705,1.72921 -0.01848,2.74016c-0.00571,0.50547 -0.01641,1.24812 -0.02851,2.22647c0.00863,1.18985 -0.50515,2.18024 -1.53195,2.96793c-0.97893,0.73779 -2.85663,1.52913 -5.6103,2.36931c-3.87331,0.30938 -7.77832,0.16109 -11.67075,-0.44201c-0.23753,-2.00013 -0.46788,-3.48799 -0.68391,-4.46155c0.05781,-1.90851 0.11547,-4.69163 0.18564,-8.34467c0.15088,-9.91456 0.19775,-15.1386 0.20414,-15.61148c0.01996,-0.60357 -0.03602,-1.15075 -0.15998,-1.6209c-0.28256,-1.03739 -0.89824,-1.54161 -1.84263,-1.48922c-0.17925,0.00376 -0.24006,0.02859 -0.43423,0.09786c-1.34287,0.48459 -3.40057,2.44941 -6.16411,5.93067c-2.42887,3.11561 -4.20437,5.33629 -5.31732,6.68004c-0.44533,0.53099 -0.89479,0.98834 -1.13408,1.23788c-1.32883,-1.17848 -3.41036,-3.31969 -6.22969,-6.39052c-3.1018,-3.32575 -4.66996,-5.32717 -4.69991,-5.97861c-0.09342,-0.5686 3.25158,-5.42315 10.02222,-14.49832c0.15578,-0.3456 0.483,-0.76321 0.97823,-1.24633c0.25183,-0.42911 0.61924,-0.89678 1.09783,-1.39586c0.79288,-1.05993 1.82492,-2.34574 3.08145,-3.83922c-0.61875,0.81175 -1.10596,1.47835 -1.45385,1.99099c2.55854,-3.15093 5.16901,-6.43392 7.78794,-9.81432c1.64248,-1.7461 3.33685,-3.15509 5.05885,-4.21818c2.20093,-1.54587 5.84024,-2.38131 10.87489,-2.50311" data-paper-data="{&quot;noHover&quot;:false,&quot;origItem&quot;:[&quot;Path&quot;,{&quot;applyMatrix&quot;:true,&quot;segments&quot;:[[[637.72562,386.24567],[0,0],[3.98079,-0.14259]],[[646.28658,384.16751],[-1.72651,1.24285],[1.35216,-0.85662]],[[650.23932,380.78847],[-1.283,1.39608],[2.04026,-2.69763]],[[656.29161,372.96865],[-1.9946,2.51558],[-0.27044,0.40864]],[[655.16308,374.55316],[0.48191,-0.6477],[0.98007,-1.19274]],[[657.55921,371.49569],[-0.61735,0.84558],[0.37393,-0.39912]],[[658.41296,370.38446],[-0.19523,0.3417],[0.38724,-0.38665]],[[659.17386,369.39233],[-0.12003,0.27477],[5.27152,-7.23977]],[[666.96247,357.8594],[0.07911,0.44885],[-0.02967,-0.51495]],[[663.19231,353.18422],[2.48377,2.60184],[-2.25802,-2.40282]],[[658.21258,348.20021],[1.0618,0.91985],[-0.18696,0.19956]],[[657.41114,349.13562],[0.34733,-0.42405],[-0.86789,1.073]],[[653.27075,354.4748],[1.89237,-2.48645],[-2.1537,2.77872]],[[648.45375,359.23627],[1.05763,-0.3956],[-0.15293,0.05657]],[[648.01176,359.32806],[0.14173,-0.00462],[-0.74644,0.05011]],[[646.54258,358.17642],[0.23301,0.81788],[-0.10236,-0.3707]],[[646.40439,356.90404],[-0.01024,0.47755],[0.00071,-0.37406]],[[646.44782,344.57872],[-0.02824,7.84282],[0.02193,-2.88984]],[[646.52301,337.97901],[-0.02819,1.50997],[-0.1798,-0.76801]],[[645.94396,334.45741],[0.20624,1.57972],[-3.08407,-0.44123]],[[636.72702,334.21598],[3.06056,-0.28028],[-2.17016,0.6898]],[[632.32058,336.13944],[0.76746,-0.59251],[-0.80486,0.63242]],[[631.13993,338.49952],[-0.01776,-0.94097],[-0.00058,0.77389]],[[631.13925,340.2601],[-0.00013,-0.39983],[0.00025,0.79966]],[[631.15179,342.42653],[-0.0081,-0.64463],[-0.00436,0.65793]],[[631.17397,345.4826],[-0.01915,-1.37945],[0.03119,1.35326]],[[631.48931,358.72488],[-0.17903,-7.47493],[0.0175,0.14131]],[[631.47269,359.40256],[0.02858,-0.31048],[-0.04818,0.10475]],[[631.32941,359.75547],[0.04734,-0.13052],[0,0]],[[631.31008,359.7561],[0,0],[-0.11134,0.1455]],[[630.52463,359.99451],[0.41229,-0.01344],[-0.16749,0.00546]],[[629.97846,359.85753],[0.19662,0.09678],[-0.83844,-0.39831]],[[626.46728,356.00583],[1.50235,2.16949],[-1.09525,-1.55076]],[[623.16579,350.87041],[1.10575,1.87286],[-0.16426,-0.2913]],[[622.673,349.99651],[0.16426,0.2913],[-0.61705,0.45863]],[[617.26551,354.44832],[2.98794,-2.50924],[-2.92814,2.36542]],[[612.93273,358.63296],[-0.03962,-0.42434],[0.09368,0.49997]],[[615.829,363.80093],[-1.83717,-2.94535],[1.88619,2.86637]],[[625.28441,376.70674],[-4.41742,-5.73751],[4.3922,6.15106]],[[637.72562,386.24567],[-3.90194,-0.20823],[0,0]]],&quot;fillColor&quot;:[0,0,0,1]}]}" fill="#ffffff" stroke-width="0.5"/></g></g></svg>