<svg version="1.1" xmlns="http://www.w3.org/2000/svg" xmlns:xlink="http://www.w3.org/1999/xlink" width="40.69705" height="63.28116" viewBox="0,0,40.69705,63.28116"><g transform="translate(-615.18143,-338.85358)"><g data-paper-data="{&quot;isPaintingLayer&quot;:true}" fill-rule="nonzero" stroke="none" stroke-width="1" stroke-linecap="round" stroke-linejoin="miter" stroke-miterlimit="4" stroke-dasharray="" stroke-dashoffset="0" style="mix-blend-mode: normal"><path d="M653.14549,349.11051c1.6,2.8 2.5,5.53333 2.7,8.2c0.26667,4.06667 -1.08333,8.38333 -4.05,12.95c2.16667,2.5 3.33333,5.6 3.5,9.3c0.13333,3.1 -0.55,6.38333 -2.05,9.85c-1.36667,3.13333 -3.11667,5.66667 -5.25,7.6c-1.7168,1.62148 -3.7168,2.85482 -6,3.7c-0.08906,0.0599 -0.18906,0.1099 -0.3,0.15c-2.7,0.96667 -6.08333,1.38333 -10.15,1.25c-5.36667,-0.13333 -9.4,-1.3 -12.1,-3.5c-2.03333,-1.63333 -3.36667,-3.75 -4,-6.35c-0.43333,-1.86667 -0.33333,-3.68333 0.3,-5.45c0.66667,-1.9 1.78333,-3.26667 3.35,-4.1c1.76667,-0.9 4.15,-1.06667 7.15,-0.5c0.8,0.16667 2,0.43333 3.6,0.8c1.36667,0.3 2.55,0.46667 3.55,0.5c1.56667,0 2.45,-0.45 2.65,-1.35c0.23333,-0.83333 -0.2,-1.61667 -1.3,-2.35c-0.6,-0.4 -1.71667,-0.91667 -3.35,-1.55c-1.46667,-0.6 -2.55,-1.18333 -3.25,-1.75c-0.8,-0.66667 -1.4,-1.51667 -1.8,-2.55c-0.36667,-1.03333 -0.46667,-2.06667 -0.3,-3.1c0.3,-1.96667 1.58333,-3.96667 3.85,-6c1.23333,-1.06667 2.15,-1.9 2.75,-2.5c1,-0.96667 1.76667,-1.9 2.3,-2.8c-1.36667,0.36667 -3.16667,1.26667 -5.4,2.7c-2.36667,1.5 -4.16667,2.45 -5.4,2.85c-1.4,0.4 -2.53333,0.4 -3.4,0c-1.36667,-0.6 -2.3,-2.33333 -2.8,-5.2c-0.33333,-1.73333 -0.5,-3.05 -0.5,-3.95c-0.03333,-2.16667 0.46667,-4.25 1.5,-6.25c1.56667,-3.03333 4.38333,-5.66667 8.45,-7.9c3.7,-2.06667 7.11667,-3.05 10.25,-2.95c3.16667,0.03333 6.23333,1.1 9.2,3.2c2.43333,1.73333 4.53333,4.08333 6.3,7.05M624.09549,352.61051c-0.46667,0.86667 -0.93333,2.33333 -1.4,4.4c-0.33333,1.63333 -0.3,2.8 0.1,3.5c5.16667,-3.16667 9.18333,-5.28333 12.05,-6.35c2.2,-0.83333 3.85,-0.8 4.95,0.1c1.1,0.86667 1.41667,2.3 0.95,4.3c-0.43333,2.03333 -1.48333,4.05 -3.15,6.05c-1.1,1.33333 -2.8,2.96667 -5.1,4.9c-0.86667,0.73333 -1.28333,1.4 -1.25,2c0.03333,0.53333 0.35,0.96667 0.95,1.3c0.33333,0.2 0.9,0.4 1.7,0.6c2.73333,0.73333 4.8,2.11667 6.2,4.15c0.73333,1.06667 1.16667,2.23333 1.3,3.5c0.16667,1.33333 0,2.56667 -0.5,3.7c-0.53333,1.26667 -1.46667,2.31667 -2.8,3.15c-1.2,0.76667 -2.55,1.25 -4.05,1.45c-2.16667,0.26667 -4.98333,-0.13333 -8.45,-1.2c-1.4,-0.5 -2.45,-0.6 -3.15,-0.3c-0.56667,0.23333 -0.98333,0.68333 -1.25,1.35c-0.26667,0.6 -0.31667,1.23333 -0.15,1.9c0.26667,1.1 1.05,2.08333 2.35,2.95c1.86667,1.23333 4.63333,1.95 8.3,2.15c4.26667,0.13333 7.55,-0.45 9.85,-1.75c3.76667,-2.1 6.4,-6.23333 7.9,-12.4c0.56667,-1.6 0.11667,-3.71667 -1.35,-6.35c-0.8,-1.5 -1.3,-2.5 -1.5,-3c-0.5,-1.2 -0.7,-2.28333 -0.6,-3.25c0.1,-0.73333 0.35,-1.51667 0.75,-2.35c0.16667,-0.33333 0.58333,-1.06667 1.25,-2.2c0.41016,-0.68724 0.76016,-1.35391 1.05,-2c0.57773,-1.2987 0.91107,-2.51536 1,-3.65c0.13333,-1.53333 -0.16667,-3.2 -0.9,-5c-1,-2.56667 -2.45,-4.66667 -4.35,-6.3c-2.23333,-1.96667 -4.68333,-3 -7.35,-3.1c-2.6,-0.03333 -5.36667,0.88333 -8.3,2.75c-2.5,1.63333 -4.18333,3.3 -5.05,5z" fill="#000000"/><path d="M644.79549,347.96051c1.9,1.63333 3.35,3.73333 4.35,6.3c0.73333,1.8 1.03333,3.46667 0.9,5c-0.08893,1.13464 -0.42227,2.3513 -1,3.65c-0.28984,0.64609 -0.63984,1.31276 -1.05,2c-0.66667,1.13333 -1.08333,1.86667 -1.25,2.2c-0.4,0.83333 -0.65,1.61667 -0.75,2.35c-0.1,0.96667 0.1,2.05 0.6,3.25c0.2,0.5 0.7,1.5 1.5,3c1.46667,2.63333 1.91667,4.75 1.35,6.35c-1.5,6.16667 -4.13333,10.3 -7.9,12.4c-2.3,1.3 -5.58333,1.88333 -9.85,1.75c-3.66667,-0.2 -6.43333,-0.91667 -8.3,-2.15c-1.3,-0.86667 -2.08333,-1.85 -2.35,-2.95c-0.16667,-0.66667 -0.11667,-1.3 0.15,-1.9c0.26667,-0.66667 0.68333,-1.11667 1.25,-1.35c0.7,-0.3 1.75,-0.2 3.15,0.3c3.46667,1.06667 6.28333,1.46667 8.45,1.2c1.5,-0.2 2.85,-0.68333 4.05,-1.45c1.33333,-0.83333 2.26667,-1.88333 2.8,-3.15c0.5,-1.13333 0.66667,-2.36667 0.5,-3.7c-0.13333,-1.26667 -0.56667,-2.43333 -1.3,-3.5c-1.4,-2.03333 -3.46667,-3.41667 -6.2,-4.15c-0.8,-0.2 -1.36667,-0.4 -1.7,-0.6c-0.6,-0.33333 -0.91667,-0.76667 -0.95,-1.3c-0.03333,-0.6 0.38333,-1.26667 1.25,-2c2.3,-1.93333 4,-3.56667 5.1,-4.9c1.66667,-2 2.71667,-4.01667 3.15,-6.05c0.46667,-2 0.15,-3.43333 -0.95,-4.3c-1.1,-0.9 -2.75,-0.93333 -4.95,-0.1c-2.86667,1.06667 -6.88333,3.18333 -12.05,6.35c-0.4,-0.7 -0.43333,-1.86667 -0.1,-3.5c0.46667,-2.06667 0.93333,-3.53333 1.4,-4.4c0.86667,-1.7 2.55,-3.36667 5.05,-5c2.93333,-1.86667 5.7,-2.78333 8.3,-2.75c2.66667,0.1 5.11667,1.13333 7.35,3.1z" fill="#ffffff"/></g></g></svg>