<svg version="1.1" xmlns="http://www.w3.org/2000/svg" xmlns:xlink="http://www.w3.org/1999/xlink" width="48.03809" height="65.48634" viewBox="0,0,48.03809,65.48634"><g transform="translate(-608.12002,-337.81578)"><g data-paper-data="{&quot;isPaintingLayer&quot;:true}" fill-rule="nonzero" stroke="none" stroke-width="1" stroke-linecap="butt" stroke-linejoin="miter" stroke-miterlimit="10" stroke-dasharray="" stroke-dashoffset="0" style="mix-blend-mode: normal"><path d="M649.20811,354.48784c-0.4,1.13333 -1.21667,1.81667 -2.45,2.05c-0.56667,-0.06667 -1.11667,-0.11667 -1.65,-0.15c-5.1,-0.9 -10.25,-1.28333 -15.45,-1.15l-0.8,0.55c0.86667,0.66667 1.8,1.1 2.8,1.3c0.7,0.16667 1.4,0.25 2.1,0.25c2.9,-0.03333 5.8,0.18333 8.7,0.65c1.93333,0.43333 3.7,1.25 5.3,2.45c1.76667,1.23333 3.35,2.56667 4.75,4c0.93333,2.06667 1.73333,4.16667 2.4,6.3c1.33333,4.4 1.6,8.91667 0.8,13.55c-0.23333,1.23333 -0.46667,2.46667 -0.7,3.7c-0.6,3.13333 -2.1,5.88333 -4.5,8.25c-2.93333,2.93333 -6.45,4.73333 -10.55,5.4c-4.16667,0.6 -8.31667,1.13333 -12.45,1.6c-5.6,0.3 -11.08333,-0.45 -16.45,-2.25c-0.7,-0.3 -1.21667,-0.85 -1.55,-1.65c-0.13333,-0.26667 -0.25,-0.58333 -0.35,-0.95c-0.23333,-0.86667 -0.41667,-1.75 -0.55,-2.65c-0.1,-0.56667 -0.18333,-1.18333 -0.25,-1.85c-0.33333,-2.6 -0.31667,-5.18333 0.05,-7.75c0.03333,-0.2 0.03333,-0.38333 0,-0.55c-0.13333,-1.16667 0.16667,-2.23333 0.9,-3.2c1.9,-1.03333 3.96667,-1.61667 6.2,-1.75c3.5,-0.03333 6.98333,0.2 10.45,0.7c4.2,0.2 7.98333,-0.88333 11.35,-3.25l0.2,-0.8l-1.15,-3.2c-1.56667,-1.1 -3.3,-1.78333 -5.2,-2.05c-0.8,-0.06667 -1.56667,0 -2.3,0.2c-4.2,0.46667 -8.25,-0.13333 -12.15,-1.8c-1.4,-0.56667 -2.61667,-1.36667 -3.65,-2.4c-0.9,-0.86667 -1.76667,-1.85 -2.6,-2.95c-0.9,-1.26667 -1.35,-2.61667 -1.35,-4.05c-0.03333,-2.6 0.05,-5.18333 0.25,-7.75c0.03333,-0.2 0.06667,-0.38333 0.1,-0.55c0.8,-3.7 2.46667,-6.96667 5,-9.8c2.23333,-2.53333 5,-4.01667 8.3,-4.45c3.23333,-0.2 6.46667,-0.4 9.7,-0.6c4.06667,-0.23333 8.06667,0.1 12,1c0.5,-0.3 0.98333,-0.5 1.45,-0.6c1.93333,-0.1 3.13333,0.76667 3.6,2.6c-0.16667,4.13333 -0.2,8.23333 -0.1,12.3c0,0.43333 -0.06667,0.86667 -0.2,1.3M646.45811,366.83784c-4.96667,-3.03333 -10.35,-4.53333 -16.15,-4.5c-2.66667,0.03333 -4.71667,-1.08333 -6.15,-3.35c-1,-1.53333 -1.26667,-3.11667 -0.8,-4.75c0.13333,-0.4 0.33333,-0.78333 0.6,-1.15c1.26667,-1.9 3,-3.03333 5.2,-3.4c2.8,-0.16667 5.61667,-0.3 8.45,-0.4c1.93333,-0.03333 3.88333,-0.03333 5.85,0l-0.2,-6.5c-0.36667,-0.03333 -0.73333,-0.06667 -1.1,-0.1c-3.66667,0.23333 -7.31667,0.36667 -10.95,0.4c-2.93333,0 -5.8,0.46667 -8.6,1.4c-2.23333,0.66667 -4.01667,1.9 -5.35,3.7c-1.86667,4 -2.55,8.2 -2.05,12.6c0.06667,0.46667 0.3,0.81667 0.7,1.05c0.2,0.16667 0.4,0.41667 0.6,0.75c0.26667,0.4 0.6,0.75 1,1.05c0.53333,0.46667 1.11667,0.8 1.75,1c4.46667,0.9 8.91667,1.35 13.35,1.35c0.96667,0.2 1.95,0.4 2.95,0.6c3.46667,0.9 5.91667,2.9 7.35,6c0.96667,2.06667 1.23333,4.18333 0.8,6.35c-0.06667,0.3 -0.1,0.58333 -0.1,0.85c0,0.43333 -0.16667,0.86667 -0.5,1.3c-1.23333,1.7 -2.81667,2.98333 -4.75,3.85c-1.16667,0.53333 -2.35,0.95 -3.55,1.25c-5.16667,1.03333 -10.4,1.48333 -15.7,1.35c-1.6,-0.03333 -3.2,-0.05 -4.8,-0.05c-0.3,1.13333 -0.36667,2.28333 -0.2,3.45c0.06667,0.5 0.11667,0.95 0.15,1.35c0.13333,1.23333 0.3,2.48333 0.5,3.75c0.46667,0.23333 0.95,0.43333 1.45,0.6c1,0.33333 2.03333,0.63333 3.1,0.9c4.43333,-0.1 8.83333,-0.45 13.2,-1.05c5.16667,-0.6 9.96667,-2.35 14.4,-5.25l1.95,-3.2c0,-0.2 0.01667,-0.36667 0.05,-0.5c1.2,-4.6 1.5,-9.2 0.9,-13.8c-0.13333,-0.83333 -0.35,-1.61667 -0.65,-2.35z" fill="#000000"/><path d="M648.90811,387.53784c-0.03333,0.13333 -0.05,0.3 -0.05,0.5l-1.95,3.2c-4.43333,2.9 -9.23333,4.65 -14.4,5.25c-4.36667,0.6 -8.76667,0.95 -13.2,1.05c-1.06667,-0.26667 -2.1,-0.56667 -3.1,-0.9c-0.5,-0.16667 -0.98333,-0.36667 -1.45,-0.6c-0.2,-1.26667 -0.36667,-2.51667 -0.5,-3.75c-0.03333,-0.4 -0.08333,-0.85 -0.15,-1.35c-0.16667,-1.16667 -0.1,-2.31667 0.2,-3.45c1.6,0 3.2,0.01667 4.8,0.05c5.3,0.13333 10.53333,-0.31667 15.7,-1.35c1.2,-0.3 2.38333,-0.71667 3.55,-1.25c1.93333,-0.86667 3.51667,-2.15 4.75,-3.85c0.33333,-0.43333 0.5,-0.86667 0.5,-1.3c0,-0.26667 0.03333,-0.55 0.1,-0.85c0.43333,-2.16667 0.16667,-4.28333 -0.8,-6.35c-1.43333,-3.1 -3.88333,-5.1 -7.35,-6c-1,-0.2 -1.98333,-0.4 -2.95,-0.6c-4.43333,0 -8.88333,-0.45 -13.35,-1.35c-0.63333,-0.2 -1.21667,-0.53333 -1.75,-1c-0.4,-0.3 -0.73333,-0.65 -1,-1.05c-0.2,-0.33333 -0.4,-0.58333 -0.6,-0.75c-0.4,-0.23333 -0.63333,-0.58333 -0.7,-1.05c-0.5,-4.4 0.18333,-8.6 2.05,-12.6c1.33333,-1.8 3.11667,-3.03333 5.35,-3.7c2.8,-0.93333 5.66667,-1.4 8.6,-1.4c3.63333,-0.03333 7.28333,-0.16667 10.95,-0.4c0.36667,0.03333 0.73333,0.06667 1.1,0.1l0.2,6.5c-1.96667,-0.03333 -3.91667,-0.03333 -5.85,0c-2.83333,0.1 -5.65,0.23333 -8.45,0.4c-2.2,0.36667 -3.93333,1.5 -5.2,3.4c-0.26667,0.36667 -0.46667,0.75 -0.6,1.15c-0.46667,1.63333 -0.2,3.21667 0.8,4.75c1.43333,2.26667 3.48333,3.38333 6.15,3.35c5.8,-0.03333 11.18333,1.46667 16.15,4.5l2.7,4.55c0.3,0.73333 0.51667,1.51667 0.65,2.35c0.6,4.6 0.3,9.2 -0.9,13.8z" fill="#ffffff"/></g></g></svg>