<svg version="1.1" xmlns="http://www.w3.org/2000/svg" xmlns:xlink="http://www.w3.org/1999/xlink" width="44.04444" height="65.57292" viewBox="0,0,44.04444,65.57292"><g transform="translate(-608.10811,-337.83102)"><g data-paper-data="{&quot;isPaintingLayer&quot;:true}" fill-rule="nonzero" stroke="none" stroke-width="1" stroke-linecap="butt" stroke-linejoin="miter" stroke-miterlimit="10" stroke-dasharray="" stroke-dashoffset="0" style="mix-blend-mode: normal"><path d="M650.50811,342.23784c0.2,0.43333 0.31667,0.88333 0.35,1.35c0.03333,0.16667 0.08333,0.35 0.15,0.55c0,0.16667 0,0.33333 0,0.5c0.03333,0.4 0.13333,0.76667 0.3,1.1c0.1,0.16667 0.16667,0.35 0.2,0.55c0.26667,3.26667 0.46667,6.56667 0.6,9.9c0.13333,3 -0.03333,5.95 -0.5,8.85c0,2.13333 0.03333,4.26667 0.1,6.4c0.1,2.3 -0.05,4.53333 -0.45,6.7c0,4.2 0.08333,8.4 0.25,12.6c0.16667,3.73333 -0.26667,7.3 -1.3,10.7c-0.13333,0.1 -0.25,0.18333 -0.35,0.25c-0.5,0.9 -1.4,1.41667 -2.7,1.55c-5.03333,0.46667 -9.88333,-0.05 -14.55,-1.55c-0.16667,-0.16667 -0.31667,-0.33333 -0.45,-0.5c-0.16667,-0.23333 -0.28333,-0.5 -0.35,-0.8c0,-0.1 0,-0.2 0,-0.3c0,-0.06667 0,-0.15 0,-0.25c-0.03333,-0.03333 -0.06667,-0.06667 -0.1,-0.1c-0.13333,-0.16667 -0.25,-0.35 -0.35,-0.55c-0.03333,-0.06667 -0.06667,-0.15 -0.1,-0.25c0,-0.1 -0.01667,-0.18333 -0.05,-0.25c-0.03333,-0.2 -0.08333,-0.38333 -0.15,-0.55c-0.06667,-2.3 -0.1,-4.61667 -0.1,-6.95c0.03333,-2.23333 0.05,-4.46667 0.05,-6.7c-2.1,-0.03333 -4.18333,-0.06667 -6.25,-0.1c0,1.66667 0,3.36667 0,5.1c0,1.7 0,3.4 0,5.1c0.03333,0.06667 0.05,0.15 0.05,0.25c0.03333,0.1 0.06667,0.18333 0.1,0.25c0.06667,0.2 0.13333,0.38333 0.2,0.55c0,0.36667 0,0.71667 0,1.05c0,0.63333 0,1.26667 0,1.9c0,0.16667 0,0.35 0,0.55c-0.03333,0.06667 -0.06667,0.15 -0.1,0.25c-0.03333,0.1 -0.06667,0.18333 -0.1,0.25c-0.06667,0.2 -0.15,0.38333 -0.25,0.55c-0.03333,0.1 -0.06667,0.18333 -0.1,0.25c-1.16667,1.13333 -2.56667,1.71667 -4.2,1.75c-3.03333,0.06667 -6.06667,0.01667 -9.1,-0.15c-0.4,0 -0.78333,-0.08333 -1.15,-0.25c-0.2,-0.16667 -0.38333,-0.35 -0.55,-0.55c-0.23333,-0.3 -0.41667,-0.65 -0.55,-1.05c0,-0.1 -0.01667,-0.18333 -0.05,-0.25c0,-0.36667 0,-0.73333 0,-1.1c0,-0.6 0,-1.21667 0,-1.85c0,-0.2 0,-0.38333 0,-0.55c-0.03333,-0.1 -0.06667,-0.18333 -0.1,-0.25c-0.03333,-0.1 -0.06667,-0.2 -0.1,-0.3c-0.06667,-0.16667 -0.13333,-0.33333 -0.2,-0.5c0.03333,-1 0.05,-1.98333 0.05,-2.95c-0.03333,-1.33333 -0.05,-2.68333 -0.05,-4.05c-0.3,-8.26667 -0.45,-16.56667 -0.45,-24.9c0.03333,-5.56667 0.3,-11.08333 0.8,-16.55c-0.06667,-0.5 -0.11667,-1.01667 -0.15,-1.55c-0.03333,-0.53333 -0.06667,-1.06667 -0.1,-1.6c-0.03333,-0.1 -0.06667,-0.2 -0.1,-0.3c0,-0.06667 -0.01667,-0.15 -0.05,-0.25c-0.03333,-0.1 -0.06667,-0.18333 -0.1,-0.25c-0.03333,-0.1 -0.06667,-0.2 -0.1,-0.3c-0.03333,-0.06667 -0.06667,-0.15 -0.1,-0.25c0,-0.1 0,-0.18333 0,-0.25c0,-0.1 0,-0.2 0,-0.3c0,-0.1 0.01667,-0.18333 0.05,-0.25c0,-0.1 0.01667,-0.2 0.05,-0.3c0,-0.06667 0,-0.15 0,-0.25c0.06667,-0.1 0.13333,-0.18333 0.2,-0.25c0.03333,-0.1 0.08333,-0.2 0.15,-0.3c0.06667,-0.06667 0.13333,-0.15 0.2,-0.25c3.33333,-1.6 6.93333,-2.35 10.8,-2.25c0.66667,0 1.26667,-0.05 1.8,-0.15c1.1,-0.16667 2.11667,0.03333 3.05,0.6c0.76667,0.46667 1.23333,1.15 1.4,2.05c0,0.1 0,0.2 0,0.3c0,0.06667 0,0.15 0,0.25c0,0.1 0,0.18333 0,0.25c0.03333,0.1 0.06667,0.2 0.1,0.3c0.03333,0.06667 0.05,0.15 0.05,0.25c0.03333,0.1 0.06667,0.2 0.1,0.3c0.03333,0.06667 0.06667,0.15 0.1,0.25c0,0.1 0,0.18333 0,0.25c0,0.2 0,0.38333 0,0.55c0,0.26667 0,0.53333 0,0.8c0,0.26667 0,0.53333 0,0.8c0.03333,0.1 0.06667,0.18333 0.1,0.25c0.03333,0.1 0.06667,0.2 0.1,0.3c0,0.06667 0.01667,0.15 0.05,0.25c0.03333,0.1 0.06667,0.2 0.1,0.3c0,0.43333 0,0.86667 0,1.3c0,1.06667 0,2.15 0,3.25c0,0.53333 0,1.06667 0,1.6c0.03333,0.06667 0.06667,0.15 0.1,0.25c0.03333,0.1 0.06667,0.18333 0.1,0.25c0.03333,0.1 0.06667,0.2 0.1,0.3c0,0.06667 0.01667,0.15 0.05,0.25c0,0.26667 0,0.53333 0,0.8c0,0.63333 0,1.26667 0,1.9c0,0.6 0,1.21667 0,1.85c0.03333,0.1 0.06667,0.2 0.1,0.3c0.03333,0.06667 0.06667,0.15 0.1,0.25c0.03333,0.1 0.06667,0.18333 0.1,0.25c0.03333,0.1 0.05,0.2 0.05,0.3c0,0.06667 0,0.15 0,0.25c0,0.1 0,0.18333 0,0.25c0,0.1 0,0.2 0,0.3c0,0.16667 0,0.33333 0,0.5c0,0.16667 0,0.31667 0,0.45c0.13333,0.03333 0.25,0.05 0.35,0.05c0.83333,-0.2 1.66667,-0.33333 2.5,-0.4c0.26667,-0.03333 0.51667,-0.08333 0.75,-0.15c0,-0.9 0,-1.8 0,-2.7c0,-1.7 0,-3.4 0,-5.1c0,-0.33333 0,-0.68333 0,-1.05c-0.33333,-0.96667 -0.48333,-1.95 -0.45,-2.95c0.06667,-1.86667 0.1,-3.75 0.1,-5.65c0,-0.33333 0.05,-0.68333 0.15,-1.05c0.06667,-0.1 0.13333,-0.18333 0.2,-0.25c0.06667,-0.1 0.11667,-0.2 0.15,-0.3c0.06667,-0.06667 0.13333,-0.15 0.2,-0.25c0.1,-0.1 0.18333,-0.18333 0.25,-0.25c0.1,-0.1 0.2,-0.2 0.3,-0.3c5.03333,-0.4 10.15,-0.5 15.35,-0.3c1.33333,0.03333 2.23333,0.5 2.7,1.4c0.1,0.06667 0.18333,0.11667 0.25,0.15c0.16667,0.23333 0.3,0.5 0.4,0.8M636.60811,346.18784c0,0.1 0,0.18333 0,0.25c0,0.2 0,0.38333 0,0.55c0,0.16667 0,0.35 0,0.55c0,0.23333 0,0.5 0,0.8c0.4,2 0.56667,4.05 0.5,6.15c-0.1,2.93333 -0.15,5.88333 -0.15,8.85c-0.03333,0.06667 -0.06667,0.15 -0.1,0.25c-0.03333,0.16667 -0.08333,0.35 -0.15,0.55c-0.1,0.16667 -0.2,0.33333 -0.3,0.5c-0.1,0.2 -0.21667,0.38333 -0.35,0.55c-4.03333,1.43333 -8.25,1.96667 -12.65,1.6c-0.16667,-0.03333 -0.35,-0.08333 -0.55,-0.15c-0.1,-0.1 -0.18333,-0.2 -0.25,-0.3c-0.1,-0.06667 -0.18333,-0.15 -0.25,-0.25c-0.06667,-0.1 -0.13333,-0.18333 -0.2,-0.25c-0.06667,-0.1 -0.13333,-0.2 -0.2,-0.3c-0.03333,-0.06667 -0.08333,-0.15 -0.15,-0.25c-0.03333,-0.1 -0.06667,-0.18333 -0.1,-0.25c-0.03333,-0.2 -0.06667,-0.38333 -0.1,-0.55c-0.03333,-0.16667 -0.06667,-0.35 -0.1,-0.55c-0.06667,-0.26667 -0.15,-0.53333 -0.25,-0.8c0,-0.1 0,-0.18333 0,-0.25c0,-0.2 0,-0.38333 0,-0.55c0,-0.26667 0,-0.53333 0,-0.8c0,-0.26667 0,-0.53333 0,-0.8c-0.03333,-0.1 -0.06667,-0.18333 -0.1,-0.25c-0.03333,-0.1 -0.06667,-0.2 -0.1,-0.3c0,-0.06667 -0.01667,-0.15 -0.05,-0.25c-0.03333,-0.1 -0.06667,-0.2 -0.1,-0.3c0,-0.23333 0,-0.5 0,-0.8c0,-0.7 0,-1.4 0,-2.1c0,-0.73333 0,-1.45 0,-2.15c-0.03333,-0.1 -0.06667,-0.2 -0.1,-0.3c-0.03333,-0.06667 -0.06667,-0.15 -0.1,-0.25c-0.03333,-0.1 -0.05,-0.18333 -0.05,-0.25c-0.03333,-0.1 -0.06667,-0.2 -0.1,-0.3c0,-0.33333 0,-0.68333 0,-1.05c0,-1 0,-1.98333 0,-2.95c0,-0.63333 0,-1.26667 0,-1.9c-0.03333,-0.06667 -0.06667,-0.15 -0.1,-0.25c-0.06667,-0.16667 -0.11667,-0.35 -0.15,-0.55c-0.06667,-0.26667 -0.1,-0.53333 -0.1,-0.8c0,-0.4 0,-0.81667 0,-1.25c-2.33333,-0.3 -4.68333,-0.28333 -7.05,0.05c0,0.06667 0.01667,0.15 0.05,0.25c0.03333,0.06667 0.06667,0.15 0.1,0.25c0.36667,7.73333 0.55,15.5 0.55,23.3c0,5.9 0,11.8 0,17.7c0.03333,0.06667 0.06667,0.15 0.1,0.25c0,0.1 0.01667,0.18333 0.05,0.25c0.06667,0.2 0.13333,0.38333 0.2,0.55c0.06667,0.9 0.1,1.8 0.1,2.7c0,1.23333 0,2.48333 0,3.75c0.03333,0.06667 0.06667,0.15 0.1,0.25c0,0.1 0.01667,0.18333 0.05,0.25c0.06667,0.2 0.13333,0.38333 0.2,0.55c0,0.1 0,0.18333 0,0.25c0,0.1 0,0.2 0,0.3c0,0.16667 0,0.33333 0,0.5c0,0.1 0,0.2 0,0.3c1.43333,0.06667 2.86667,0.15 4.3,0.25c-0.1,-1.6 -0.15,-3.2 -0.15,-4.8c0.03333,-1.7 0.05,-3.4 0.05,-5.1c-0.03333,-0.3 -0.08333,-0.58333 -0.15,-0.85c-0.16667,-0.5 -0.23333,-1.01667 -0.2,-1.55c0,-0.2 0,-0.38333 0,-0.55c0.03333,-0.1 0.05,-0.18333 0.05,-0.25c0.03333,-0.1 0.06667,-0.2 0.1,-0.3c0.06667,-0.16667 0.13333,-0.33333 0.2,-0.5c0,-0.1 0,-0.2 0,-0.3c0,-0.06667 0,-0.15 0,-0.25c0,-0.1 0,-0.18333 0,-0.25c0,-0.1 0,-0.2 0,-0.3c0.2,-0.73333 0.5,-1.41667 0.9,-2.05c0.53333,-0.9 1.33333,-1.36667 2.4,-1.4c3.2,0.9 6.33333,0.85 9.4,-0.15c1.46667,-0.46667 2.81667,-0.28333 4.05,0.55c1.36667,3.33333 1.91667,6.91667 1.65,10.75c-0.2,2.53333 -0.33333,5.08333 -0.4,7.65c2.83333,-0.06667 5.65,0.15 8.45,0.65c-0.1,-3.4 -0.15,-6.8 -0.15,-10.2c0.03333,-3.56667 0.05,-7.13333 0.05,-10.7c0,-0.1 0.01667,-0.18333 0.05,-0.25c0.03333,-0.1 0.06667,-0.2 0.1,-0.3c0.03333,-0.06667 0.06667,-0.15 0.1,-0.25c0.03333,-0.1 0.06667,-0.18333 0.1,-0.25c0,-1.9 0,-3.78333 0,-5.65c0,-1.96667 0,-3.93333 0,-5.9c0.03333,-0.06667 0.05,-0.15 0.05,-0.25c0.03333,-0.1 0.08333,-0.18333 0.15,-0.25c0.06667,-0.2 0.13333,-0.38333 0.2,-0.55c0.06667,-0.1 0.1,-0.2 0.1,-0.3c0,-2.5 0.03333,-5 0.1,-7.5c0.06667,-2.46667 0.13333,-4.96667 0.2,-7.5c-0.03333,-0.06667 -0.06667,-0.15 -0.1,-0.25c-0.03333,-0.1 -0.06667,-0.18333 -0.1,-0.25c-0.03333,-0.1 -0.06667,-0.2 -0.1,-0.3c0,-0.26667 0.01667,-0.53333 0.05,-0.8c-3.16667,0.1 -6.33333,0.16667 -9.5,0.2z" fill="#000000"/><path d="M646.15811,347.08784c0.03333,0.06667 0.06667,0.15 0.1,0.25c0.03333,0.1 0.06667,0.18333 0.1,0.25c-0.06667,2.53333 -0.13333,5.03333 -0.2,7.5c-0.06667,2.5 -0.1,5 -0.1,7.5c0,0.1 -0.03333,0.2 -0.1,0.3c-0.06667,0.16667 -0.13333,0.35 -0.2,0.55c-0.06667,0.06667 -0.11667,0.15 -0.15,0.25c0,0.1 -0.01667,0.18333 -0.05,0.25c0,1.96667 0,3.93333 0,5.9c0,1.86667 0,3.75 0,5.65c-0.03333,0.06667 -0.06667,0.15 -0.1,0.25c-0.03333,0.1 -0.06667,0.18333 -0.1,0.25c-0.03333,0.1 -0.06667,0.2 -0.1,0.3c-0.03333,0.06667 -0.05,0.15 -0.05,0.25c0,3.56667 -0.01667,7.13333 -0.05,10.7c0,3.4 0.05,6.8 0.15,10.2c-2.8,-0.5 -5.61667,-0.71667 -8.45,-0.65c0.06667,-2.56667 0.2,-5.11667 0.4,-7.65c0.26667,-3.83333 -0.28333,-7.41667 -1.65,-10.75c-1.23333,-0.83333 -2.58333,-1.01667 -4.05,-0.55c-3.06667,1 -6.2,1.05 -9.4,0.15c-1.06667,0.03333 -1.86667,0.5 -2.4,1.4c-0.4,0.63333 -0.7,1.31667 -0.9,2.05c0,0.1 0,0.2 0,0.3c0,0.06667 0,0.15 0,0.25c0,0.1 0,0.18333 0,0.25c0,0.1 0,0.2 0,0.3c-0.06667,0.16667 -0.13333,0.33333 -0.2,0.5c-0.03333,0.1 -0.06667,0.2 -0.1,0.3c0,0.06667 -0.01667,0.15 -0.05,0.25c0,0.16667 0,0.35 0,0.55c-0.03333,0.53333 0.03333,1.05 0.2,1.55c0.06667,0.26667 0.11667,0.55 0.15,0.85c0,1.7 -0.01667,3.4 -0.05,5.1c0,1.6 0.05,3.2 0.15,4.8c-1.43333,-0.1 -2.86667,-0.18333 -4.3,-0.25c0,-0.1 0,-0.2 0,-0.3c0,-0.16667 0,-0.33333 0,-0.5c0,-0.1 0,-0.2 0,-0.3c0,-0.06667 0,-0.15 0,-0.25c-0.06667,-0.16667 -0.13333,-0.35 -0.2,-0.55c-0.03333,-0.06667 -0.05,-0.15 -0.05,-0.25c-0.03333,-0.1 -0.06667,-0.18333 -0.1,-0.25c0,-1.26667 0,-2.51667 0,-3.75c0,-0.9 -0.03333,-1.8 -0.1,-2.7c-0.06667,-0.16667 -0.13333,-0.35 -0.2,-0.55c-0.03333,-0.06667 -0.05,-0.15 -0.05,-0.25c-0.03333,-0.1 -0.06667,-0.18333 -0.1,-0.25c0,-5.9 0,-11.8 0,-17.7c0,-7.8 -0.18333,-15.56667 -0.55,-23.3c-0.03333,-0.1 -0.06667,-0.18333 -0.1,-0.25c-0.03333,-0.1 -0.05,-0.18333 -0.05,-0.25c2.36667,-0.33333 4.71667,-0.35 7.05,-0.05c0,0.43333 0,0.85 0,1.25c0,0.26667 0.03333,0.53333 0.1,0.8c0.03333,0.2 0.08333,0.38333 0.15,0.55c0.03333,0.1 0.06667,0.18333 0.1,0.25c0,0.63333 0,1.26667 0,1.9c0,0.96667 0,1.95 0,2.95c0,0.36667 0,0.71667 0,1.05c0.03333,0.1 0.06667,0.2 0.1,0.3c0,0.06667 0.01667,0.15 0.05,0.25c0.03333,0.1 0.06667,0.18333 0.1,0.25c0.03333,0.1 0.06667,0.2 0.1,0.3c0,0.7 0,1.41667 0,2.15c0,0.7 0,1.4 0,2.1c0,0.3 0,0.56667 0,0.8c0.03333,0.1 0.06667,0.2 0.1,0.3c0.03333,0.1 0.05,0.18333 0.05,0.25c0.03333,0.1 0.06667,0.2 0.1,0.3c0.03333,0.06667 0.06667,0.15 0.1,0.25c0,0.26667 0,0.53333 0,0.8c0,0.26667 0,0.53333 0,0.8c0,0.16667 0,0.35 0,0.55c0,0.06667 0,0.15 0,0.25c0.1,0.26667 0.18333,0.53333 0.25,0.8c0.03333,0.2 0.06667,0.38333 0.1,0.55c0.03333,0.16667 0.06667,0.35 0.1,0.55c0.03333,0.06667 0.06667,0.15 0.1,0.25c0.06667,0.1 0.11667,0.18333 0.15,0.25c0.06667,0.1 0.13333,0.2 0.2,0.3c0.06667,0.06667 0.13333,0.15 0.2,0.25c0.06667,0.1 0.15,0.18333 0.25,0.25c0.06667,0.1 0.15,0.2 0.25,0.3c0.2,0.06667 0.38333,0.11667 0.55,0.15c4.4,0.36667 8.61667,-0.16667 12.65,-1.6c0.13333,-0.16667 0.25,-0.35 0.35,-0.55c0.1,-0.16667 0.2,-0.33333 0.3,-0.5c0.06667,-0.2 0.11667,-0.38333 0.15,-0.55c0.03333,-0.1 0.06667,-0.18333 0.1,-0.25c0,-2.96667 0.05,-5.91667 0.15,-8.85c0.06667,-2.1 -0.1,-4.15 -0.5,-6.15c0,-0.3 0,-0.56667 0,-0.8c0,-0.2 0,-0.38333 0,-0.55c0,-0.16667 0,-0.35 0,-0.55c0,-0.06667 0,-0.15 0,-0.25c3.16667,-0.03333 6.33333,-0.1 9.5,-0.2c-0.03333,0.26667 -0.05,0.53333 -0.05,0.8c0.03333,0.1 0.06667,0.2 0.1,0.3z" fill="#ffffff"/></g></g></svg>