<svg version="1.1" xmlns="http://www.w3.org/2000/svg" xmlns:xlink="http://www.w3.org/1999/xlink" width="586.7" height="153.9" viewBox="0,0,586.7,153.9"><g transform="translate(-346.65,-285.05)"><g data-paper-data="{&quot;isPaintingLayer&quot;:true}" fill-rule="nonzero" stroke="none" stroke-width="1" stroke-linecap="round" stroke-linejoin="miter" stroke-miterlimit="4" stroke-dasharray="" stroke-dashoffset="0" style="mix-blend-mode: normal"><g><g fill="#000000"><path d="M375.55,290.05c0.83333,-0.26667 1.66667,-0.51667 2.5,-0.75c2.03333,-0.23333 4.05,-0.46667 6.05,-0.7c0.83333,-0.13333 1.66667,-0.3 2.5,-0.5c0,-0.03333 0,-0.1 0,-0.2c12.86667,0 25.73333,0 38.6,0c0.7,0.23333 1.41667,0.46667 2.15,0.7c1.66667,0.23333 3.33333,0.46667 5,0.7c0.93333,0.13333 1.88333,0.25 2.85,0.35c0.7,0.26667 1.41667,0.51667 2.15,0.75c0.7,0.23333 1.4,0.46667 2.1,0.7c0.73333,0.23333 1.46667,0.45 2.2,0.65c1.16667,0.26667 2.33333,0.55 3.5,0.85c0.73333,0.2 1.46667,0.41667 2.2,0.65c0.7,0.23333 1.4,0.46667 2.1,0.7c0.73333,0.23333 1.45,0.46667 2.15,0.7c0.23333,0.26667 0.48333,0.51667 0.75,0.75c0.7,0.23333 1.4,0.46667 2.1,0.7c0.36667,0.36667 0.73333,0.71667 1.1,1.05c0.7,0.36667 1.41667,0.73333 2.15,1.1c0.7,0.36667 1.4,0.73333 2.1,1.1c0.36667,0.2 0.73333,0.43333 1.1,0.7c0.6,0.23333 1.2,0.46667 1.8,0.7c0.46667,0.36667 0.93333,0.71667 1.4,1.05c0.36667,0.36667 0.73333,0.73333 1.1,1.1c0.23333,0.33333 0.46667,0.68333 0.7,1.05c0.36667,0.36667 0.71667,0.71667 1.05,1.05c0.26667,0.36667 0.51667,0.73333 0.75,1.1c0.46667,0.36667 0.93333,0.71667 1.4,1.05c0.36667,0.36667 0.73333,0.73333 1.1,1.1c0.1,0.33333 0.21667,0.68333 0.35,1.05c0.36667,0.36667 0.71667,0.73333 1.05,1.1c0.36667,0.33333 0.73333,0.68333 1.1,1.05c0.23333,0.36667 0.46667,0.71667 0.7,1.05c0.13333,0.36667 0.25,0.73333 0.35,1.1c0.23333,0.36667 0.46667,0.71667 0.7,1.05c0.36667,0.36667 0.73333,0.73333 1.1,1.1c0.23333,0.33333 0.46667,0.68333 0.7,1.05c0.23333,0.36667 0.46667,0.73333 0.7,1.1c0.14922,0.09948 0.29922,0.19948 0.45,0.3c0.31563,-0.34896 0.64896,-0.69896 1,-1.05c0.36667,-0.33333 0.71667,-0.68333 1.05,-1.05c0.5,-0.36667 1,-0.71667 1.5,-1.05c0.56667,-0.36667 1.15,-0.73333 1.75,-1.1c0.33333,-0.36667 0.68333,-0.71667 1.05,-1.05c0.23333,-0.26667 0.46667,-0.51667 0.7,-0.75c0.26667,-0.1 0.51667,-0.2 0.75,-0.3c0.6,-0.26667 1.18333,-0.51667 1.75,-0.75c0.36667,-0.36667 0.73333,-0.73333 1.1,-1.1c0.23333,-0.23333 0.46667,-0.46667 0.7,-0.7c0.23333,-0.1 0.48333,-0.21667 0.75,-0.35c0.56667,-0.23333 1.15,-0.46667 1.75,-0.7c0.36667,-0.36667 0.73333,-0.73333 1.1,-1.1c0.33333,-0.33333 0.68333,-0.68333 1.05,-1.05c0.36667,-0.36667 0.71667,-0.73333 1.05,-1.1c0.83333,-0.33333 1.66667,-0.68333 2.5,-1.05c0.5,-0.36667 0.98333,-0.71667 1.45,-1.05c0.46667,-0.36667 0.95,-0.73333 1.45,-1.1c0.83333,-0.33333 1.66667,-0.68333 2.5,-1.05c0.33333,-0.23333 0.68333,-0.46667 1.05,-0.7c0.6,-0.26667 1.2,-0.51667 1.8,-0.75c0.33333,-0.23333 0.68333,-0.46667 1.05,-0.7c0.6,-0.23333 1.2,-0.46667 1.8,-0.7c0.33333,-0.23333 0.68333,-0.48333 1.05,-0.75c0.6,-0.1 1.2,-0.21667 1.8,-0.35c0.6,-0.23333 1.2,-0.46667 1.8,-0.7c0.83333,-0.36667 1.66667,-0.71667 2.5,-1.05c0.33333,-0.26667 0.68333,-0.51667 1.05,-0.75c0.6,-0.1 1.2,-0.2 1.8,-0.3c1.53333,-0.26667 3.06667,-0.55 4.6,-0.85c0.86667,-0.16667 1.71667,-0.36667 2.55,-0.6c1.9,0 3.8,0 5.7,0c0.7,0.23333 1.41667,0.43333 2.15,0.6c1.16667,0.3 2.35,0.6 3.55,0.9c0.73333,0.16667 1.45,0.36667 2.15,0.6c1.43333,0.5 2.86667,0.98333 4.3,1.45c0.23333,0.23333 0.46667,0.46667 0.7,0.7c0.7,0.23333 1.41667,0.48333 2.15,0.75c0.23333,0.23333 0.46667,0.46667 0.7,0.7c0.73333,0.23333 1.45,0.46667 2.15,0.7c0.23333,0.23333 0.46667,0.46667 0.7,0.7c0.73333,0.26667 1.45,0.51667 2.15,0.75c0.36667,0.33333 0.73333,0.68333 1.1,1.05c0.33333,0.36667 0.68333,0.73333 1.05,1.1c0.36667,0.33333 0.71667,0.68333 1.05,1.05c0.36667,0.36667 0.73333,0.71667 1.1,1.05c0.36667,0.36667 0.71667,0.73333 1.05,1.1c0.36667,0.33333 0.73333,0.68333 1.1,1.05c0.23333,0.36667 0.46667,0.73333 0.7,1.1c0.23333,0.23333 0.46667,0.46667 0.7,0.7c0.13333,-0.13333 0.21667,-0.26667 0.25,-0.4c0.06667,-0.33333 0.1,-0.68333 0.1,-1.05c0.13333,-0.33333 0.26667,-0.68333 0.4,-1.05c0.23333,-0.36667 0.46667,-0.73333 0.7,-1.1c0.1,-0.33333 0.21667,-0.68333 0.35,-1.05c0.23333,-0.36667 0.46667,-0.71667 0.7,-1.05c0.23333,-0.36667 0.48333,-0.73333 0.75,-1.1c0.83333,-0.33333 1.66667,-0.68333 2.5,-1.05c0.33333,-0.23333 0.68333,-0.46667 1.05,-0.7c0.6,-0.13333 1.2,-0.26667 1.8,-0.4c0.6,-0.23333 1.2,-0.45 1.8,-0.65c0.8,-0.26667 1.63333,-0.48333 2.5,-0.65c1.4,-0.3 2.81667,-0.56667 4.25,-0.8c0.36667,-0.26667 0.71667,-0.51667 1.05,-0.75c0.6,-0.1 1.2,-0.21667 1.8,-0.35c2.4,0 4.78333,0 7.15,0c0.7,0.23333 1.41667,0.46667 2.15,0.7c5.93333,0.26667 11.88333,0.51667 17.85,0.75c0.7,0.23333 1.41667,0.46667 2.15,0.7c2.73333,0 5.46667,0 8.2,0c0.83333,-0.23333 1.66667,-0.46667 2.5,-0.7c4.9,-0.23333 9.78333,-0.48333 14.65,-0.75c0.83333,-0.23333 1.66667,-0.46667 2.5,-0.7c2.03333,-0.23333 4.05,-0.46667 6.05,-0.7c0.83333,-0.23333 1.68333,-0.43333 2.55,-0.6c1.53333,-0.33333 3.06667,-0.61667 4.6,-0.85c0.83333,-0.23333 1.66667,-0.46667 2.5,-0.7c4.76667,0 9.53333,0 14.3,0c0.7,0.23333 1.41667,0.46667 2.15,0.7c0.33333,0.36667 0.68333,0.73333 1.05,1.1c0.23333,0.33333 0.46667,0.68333 0.7,1.05c0.13333,0.36667 0.26667,0.73333 0.4,1.1c0,0.33333 0,0.68333 0,1.05c0.23333,0.23333 0.46667,0.46667 0.7,0.7c0.36667,-0.1 0.71667,-0.21667 1.05,-0.35c0.36667,-0.36667 0.73333,-0.71667 1.1,-1.05c0.33333,-0.23333 0.68333,-0.48333 1.05,-0.75c0.6,-0.1 1.2,-0.21667 1.8,-0.35c5.36667,-0.23333 10.71667,-0.46667 16.05,-0.7c0.83333,-0.23333 1.66667,-0.46667 2.5,-0.7c2.03333,-0.23333 4.06667,-0.48333 6.1,-0.75c0.83333,-0.23333 1.66667,-0.46667 2.5,-0.7c6.3,-0.23333 12.6,-0.46667 18.9,-0.7c0.83333,-0.23333 1.66667,-0.46667 2.5,-0.7c3.33333,-0.13333 6.66667,-0.26667 10,-0.4c0.73333,0.26667 1.45,0.51667 2.15,0.75c0.36667,0.33333 0.71667,0.68333 1.05,1.05c0.26667,0.36667 0.51667,0.73333 0.75,1.1c0.1,0.33333 0.21667,0.68333 0.35,1.05c0,0.36667 0,0.71667 0,1.05c0,0.36667 0,0.73333 0,1.1v0.15c0.1,-0.1 0.23333,-0.26667 0.4,-0.5c0.2,-0.36667 0.41667,-0.73333 0.65,-1.1c0.36667,-0.33333 0.73333,-0.68333 1.1,-1.05c0.33333,-0.36667 0.68333,-0.73333 1.05,-1.1c0.83333,-0.23333 1.66667,-0.46667 2.5,-0.7c3.46667,-0.23333 6.91667,-0.46667 10.35,-0.7c0.83333,-0.23333 1.66667,-0.46667 2.5,-0.7c2.5,-0.26667 5,-0.51667 7.5,-0.75c0.83333,-0.23333 1.66667,-0.46667 2.5,-0.7c1.56667,-0.23333 3.11667,-0.5 4.65,-0.8c0.83333,-0.16667 1.66667,-0.38333 2.5,-0.65c2.03333,-0.23333 4.05,-0.46667 6.05,-0.7c0.83333,-0.23333 1.66667,-0.46667 2.5,-0.7c7.26667,-0.23333 14.53333,-0.46667 21.8,-0.7c0.83333,-0.26667 1.66667,-0.51667 2.5,-0.75c2.96667,-0.23333 5.95,-0.46667 8.95,-0.7c0.83333,-0.23333 1.66667,-0.46667 2.5,-0.7c5.23333,-0.13333 10.46667,-0.25 15.7,-0.35c0.46667,0 0.95,0 1.45,0c0.7,0.23333 1.4,0.46667 2.1,0.7c0.5,0.36667 0.98333,0.71667 1.45,1.05c0.36667,0.36667 0.71667,0.73333 1.05,1.1c0.13333,0.33333 0.26667,0.68333 0.4,1.05c0.23333,0.36667 0.46667,0.73333 0.7,1.1c0.1,0.33333 0.21667,0.68333 0.35,1.05c0.23333,0.36667 0.46667,0.71667 0.7,1.05c0.13333,0.36667 0.25,0.73333 0.35,1.1c0.26667,0.36667 0.51667,0.71667 0.75,1.05c0.1,0.36667 0.21667,0.73333 0.35,1.1c0.01107,0.03698 0.01107,0.07031 0,0.1c0.12799,-0.14948 0.24466,-0.29948 0.35,-0.45c0.1,-0.36667 0.21667,-0.73333 0.35,-1.1c0.23333,-0.36667 0.46667,-0.71667 0.7,-1.05c0.13333,-0.36667 0.25,-0.73333 0.35,-1.1c0.13333,-0.33333 0.26667,-0.68333 0.4,-1.05c0.23333,-0.36667 0.46667,-0.73333 0.7,-1.1c0.36667,-0.23333 0.71667,-0.46667 1.05,-0.7c0.13333,-0.1 0.26667,-0.18333 0.4,-0.25c0.56667,-0.2 1.15,-0.35 1.75,-0.45c9.63333,-0.23333 19.28333,-0.46667 28.95,-0.7c0.83333,-0.26667 1.66667,-0.51667 2.5,-0.75c5.33333,-0.23333 10.68333,-0.5 16.05,-0.8c0.83333,-0.06667 1.65,-0.2 2.45,-0.4c0.03333,-0.03333 0.05,-0.1 0.05,-0.2c3.8,0 7.61667,0 11.45,0c0.7,0.23333 1.4,0.46667 2.1,0.7c2.63333,0.23333 5.26667,0.46667 7.9,0.7c0.7,0.23333 1.4,0.48333 2.1,0.75c0.36667,0.33333 0.73333,0.68333 1.1,1.05c0.36667,0.36667 0.71667,0.71667 1.05,1.05c0.36667,0.36667 0.73333,0.73333 1.1,1.1c0.33333,0.36667 0.68333,0.71667 1.05,1.05c0.36667,0.36667 0.73333,0.73333 1.1,1.1c0.1,0.33333 0.21667,0.68333 0.35,1.05c0.1,0.36667 0.21667,0.73333 0.35,1.1c0,0.33333 0,0.68333 0,1.05c0,0.36667 0,0.71667 0,1.05c0,0.36667 0,0.73333 0,1.1c0,0.7 0,1.41667 0,2.15c0,1.06667 0,2.13333 0,3.2c0,1.43333 0,2.86667 0,4.3c0,1.4 0,2.81667 0,4.25c0,1.43333 0,2.86667 0,4.3c0.23333,0.36667 0.46667,0.71667 0.7,1.05c0.23333,0.36667 0.46667,0.73333 0.7,1.1c0,0.36667 0,0.71667 0,1.05c0,0.36667 0,0.73333 0,1.1c0,0.33333 0,0.68333 0,1.05c0,0.73333 0,1.45 0,2.15c0,0.7 0,1.41667 0,2.15c0,0.7 0.01667,1.41667 0.05,2.15c0,1.06667 0,2.13333 0,3.2c0,1.06667 -0.01667,2.13333 -0.05,3.2c0.26667,0.36667 0.51667,0.73333 0.75,1.1c0.1,0.33333 0.21667,0.68333 0.35,1.05c0.1,0.36667 0.21667,0.73333 0.35,1.1c0,0.33333 0,0.68333 0,1.05c0,0.36667 0,0.71667 0,1.05c0,0.36667 0,0.73333 0,1.1c0,0.36667 0,0.71667 0,1.05c0,0.36667 0,0.73333 0,1.1c0,0.33333 0,0.68333 0,1.05c-0.23333,0.36667 -0.46667,0.73333 -0.7,1.1c-0.23333,0.33333 -0.48333,0.68333 -0.75,1.05c0,0.36667 0,0.71667 0,1.05c0,0.36667 0,0.73333 0,1.1c0,0.36667 0,0.71667 0,1.05c0,0.73333 0.01667,1.45 0.05,2.15c0,1.06667 0,2.13333 0,3.2c0,1.1 0,2.18333 0,3.25c-0.03333,1.4 -0.03333,2.81667 0,4.25c0,1.1 -0.01667,2.18333 -0.05,3.25c-0.23333,0.33333 -0.46667,0.68333 -0.7,1.05c-0.23333,0.36667 -0.46667,0.73333 -0.7,1.1c-0.36667,0.33333 -0.73333,0.68333 -1.1,1.05c-0.23333,0.23333 -0.46667,0.46667 -0.7,0.7c-0.1,0.13333 -0.23333,0.23333 -0.4,0.3c-0.66667,0.3 -1.36667,0.56667 -2.1,0.8c-0.23333,0.23333 -0.46667,0.46667 -0.7,0.7c-0.6,0.1 -1.2,0.21667 -1.8,0.35c-1.2,0.23333 -2.38333,0.5 -3.55,0.8c-0.73333,0.16667 -1.45,0.38333 -2.15,0.65c-0.73333,0.23333 -1.45,0.48333 -2.15,0.75c-0.83333,0.33333 -1.66667,0.66667 -2.5,1c-0.23333,0.23333 -0.46667,0.48333 -0.7,0.75c-0.73333,0.23333 -1.45,0.46667 -2.15,0.7c-0.46667,0.36667 -0.95,0.71667 -1.45,1.05c0,0.36667 0,0.73333 0,1.1c0,0.33333 0,0.68333 0,1.05c0,0.36667 0,0.73333 0,1.1c0.26667,0.33333 0.51667,0.68333 0.75,1.05c1.43333,0 2.85,0 4.25,0c0.83333,-0.23333 1.66667,-0.46667 2.5,-0.7c3.33333,-0.13333 6.66667,-0.25 10,-0.35c0.5,0 0.98333,0 1.45,0c0.7,0.23333 1.41667,0.46667 2.15,0.7c0.33333,0.36667 0.68333,0.71667 1.05,1.05c0.23333,0.36667 0.46667,0.73333 0.7,1.1c0.13333,0.33333 0.26667,0.68333 0.4,1.05c0,0.36667 0,0.73333 0,1.1c-0.13333,0.33333 -0.26667,0.68333 -0.4,1.05c0,0.36667 0,0.71667 0,1.05c0,0.36667 0,0.73333 0,1.1c0,0.36667 0,0.71667 0,1.05c0.13333,0.36667 0.26667,0.73333 0.4,1.1c0.23333,0.33333 0.46667,0.68333 0.7,1.05c0.1,0.36667 0.21667,0.73333 0.35,1.1c0,0.33333 0,0.68333 0,1.05c0,0.36667 0,0.71667 0,1.05c0,0.36667 0,0.73333 0,1.1c0,1.43333 0,2.86667 0,4.3c0,1.76667 0,3.55 0,5.35c0,2.13333 0,4.26667 0,6.4c0,2.16667 0,4.31667 0,6.45c0,1.06667 0,2.13333 0,3.2c-0.13333,0.36667 -0.25,0.73333 -0.35,1.1c-0.13333,0.33333 -0.25,0.68333 -0.35,1.05c-0.36667,0.36667 -0.73333,0.71667 -1.1,1.05c-0.7,0.26667 -1.41667,0.51667 -2.15,0.75c-0.7,0.23333 -1.4,0.46667 -2.1,0.7c-0.73333,0.23333 -1.45,0.46667 -2.15,0.7c-2.63333,0.23333 -5.25,0.48333 -7.85,0.75c-0.73333,0.23333 -1.45,0.46667 -2.15,0.7c-3.56667,0.23333 -7.13333,0.46667 -10.7,0.7c-0.73333,0.23333 -1.45,0.46667 -2.15,0.7c-2.63333,0.26667 -5.25,0.51667 -7.85,0.75c-0.73333,0.23333 -1.46667,0.43333 -2.2,0.6c-1.16667,0.3 -2.33333,0.6 -3.5,0.9c-0.73333,0.16667 -1.46667,0.38333 -2.2,0.65c-5.93333,0.23333 -11.88333,0.46667 -17.85,0.7c-0.7,0.23333 -1.41667,0.46667 -2.15,0.7c-9.73333,0.23333 -19.48333,0.46667 -29.25,0.7c-0.73333,0.26667 -1.45,0.51667 -2.15,0.75c-0.46667,0 -0.95,-0.03333 -1.45,-0.1c-0.93333,-0.06667 -1.88333,-0.15 -2.85,-0.25c-0.7,-0.26667 -1.41667,-0.51667 -2.15,-0.75c-0.33333,-0.33333 -0.68333,-0.68333 -1.05,-1.05c-0.36667,-0.36667 -0.71667,-0.73333 -1.05,-1.1c-0.26667,-0.33333 -0.51667,-0.68333 -0.75,-1.05c0,-0.36667 0,-0.71667 0,-1.05c0,-0.36667 0,-0.73333 0,-1.1c-0.23333,-0.36667 -0.46667,-0.71667 -0.7,-1.05c-0.23333,-0.36667 -0.46667,-0.73333 -0.7,-1.1c0,-0.33333 0,-0.68333 0,-1.05c0,-0.36667 0,-0.73333 0,-1.1c-0.23333,-0.33333 -0.48333,-0.68333 -0.75,-1.05c-0.23333,-0.36667 -0.46667,-0.71667 -0.7,-1.05c0,-0.36667 0,-0.73333 0,-1.1c0,-0.36667 0,-0.71667 0,-1.05c0,-0.36667 0,-0.73333 0,-1.1c0,-0.33333 0,-0.68333 0,-1.05c0,-0.36667 0,-0.73333 0,-1.1c0,-0.33333 0,-0.68333 0,-1.05c-0.23333,-0.36667 -0.46667,-0.71667 -0.7,-1.05c-0.23333,-0.36667 -0.46667,-0.73333 -0.7,-1.1c0,-0.36667 0,-0.71667 0,-1.05c0,-0.36667 0,-0.73333 0,-1.1c0,-0.33333 0,-0.68333 0,-1.05c0,-0.36667 0,-0.73333 0,-1.1c-0.1168,-0.29193 -0.23346,-0.60859 -0.35,-0.95c-0.13854,0.21693 -0.27187,0.41693 -0.4,0.6c0,0.36667 0,0.73333 0,1.1c-0.1,0.33333 -0.21667,0.68333 -0.35,1.05c-0.1,0.36667 -0.21667,0.73333 -0.35,1.1c-0.23333,0.33333 -0.46667,0.68333 -0.7,1.05c0,0.36667 0,0.71667 0,1.05c-0.13333,0.36667 -0.25,0.73333 -0.35,1.1c-0.26667,0.36667 -0.51667,0.71667 -0.75,1.05c-0.1,0.36667 -0.21667,0.73333 -0.35,1.1c0,0.33333 0,0.68333 0,1.05c0,0.36667 0,0.73333 0,1.1c0,0.33333 0,0.68333 0,1.05c0,0.36667 0,0.71667 0,1.05c-0.23333,0.36667 -0.46667,0.73333 -0.7,1.1c-0.13333,0.36667 -0.25,0.71667 -0.35,1.05c-0.13333,0.36667 -0.25,0.73333 -0.35,1.1c0,0.33333 0,0.68333 0,1.05c-0.26667,0.36667 -0.51667,0.73333 -0.75,1.1c-0.1,0.33333 -0.21667,0.68333 -0.35,1.05c-0.23333,0.23333 -0.46667,0.46667 -0.7,0.7c-0.23333,0.13333 -0.46667,0.25 -0.7,0.35c-0.6,0.13333 -1.2,0.23333 -1.8,0.3c-2.63333,0.3 -5.25,0.56667 -7.85,0.8c-0.73333,0.23333 -1.45,0.46667 -2.15,0.7c-1.66667,0.23333 -3.33333,0.46667 -5,0.7c-0.73333,0.26667 -1.45,0.51667 -2.15,0.75c-2.63333,0.23333 -5.25,0.46667 -7.85,0.7c-0.73333,0.23333 -1.45,0.46667 -2.15,0.7c-1.43333,0 -2.86667,0 -4.3,0c-0.83333,-0.23333 -1.66667,-0.46667 -2.5,-0.7c-0.33333,-0.36667 -0.68333,-0.71667 -1.05,-1.05c-0.36667,-0.36667 -0.71667,-0.73333 -1.05,-1.1c-0.36667,-0.36667 -0.73333,-0.71667 -1.1,-1.05c-0.36667,-0.36667 -0.71667,-0.73333 -1.05,-1.1c-0.13333,-0.33333 -0.25,-0.68333 -0.35,-1.05c0,-0.36667 0,-0.73333 0,-1.1c0,-0.33333 0,-0.68333 0,-1.05c-0.36667,-0.36667 -0.73333,-0.71667 -1.1,-1.05c-0.36667,-0.36667 -0.71667,-0.73333 -1.05,-1.1c-0.36667,-0.36667 -0.73333,-0.71667 -1.1,-1.05c-0.33333,-0.36667 -0.68333,-0.73333 -1.05,-1.1c-0.73333,-0.7 -1.45,-1.41667 -2.15,-2.15c-0.23333,-0.33333 -0.46667,-0.68333 -0.7,-1.05c-0.13333,-0.36667 -0.25,-0.71667 -0.35,-1.05c-0.26667,-0.36667 -0.51667,-0.73333 -0.75,-1.1c-0.1,0.23333 -0.21667,0.46667 -0.35,0.7c0,0.36667 0,0.73333 0,1.1c0,0.36667 0,0.71667 0,1.05c0,0.36667 0,0.73333 0,1.1c0,0.33333 0,0.68333 0,1.05c0,0.36667 0,0.73333 0,1.1c0,0.33333 0,0.68333 0,1.05c0,0.36667 0,0.71667 0,1.05c-0.1,0.36667 -0.21667,0.73333 -0.35,1.1c-0.23333,0.36667 -0.46667,0.71667 -0.7,1.05c-0.23333,0.36667 -0.48333,0.73333 -0.75,1.1c-0.33333,0.33333 -0.68333,0.68333 -1.05,1.05c-0.36667,0.23333 -0.71667,0.46667 -1.05,0.7c-0.6,0.13333 -1.2,0.23333 -1.8,0.3c-2.63333,0.3 -5.25,0.56667 -7.85,0.8c-0.73333,0.23333 -1.45,0.46667 -2.15,0.7c-11.9,-0.1 -23.8,-0.21667 -35.7,-0.35c-0.83333,-0.23333 -1.66667,-0.46667 -2.5,-0.7c-1.1,-0.13333 -2.18333,-0.25 -3.25,-0.35c-0.83333,-0.26667 -1.66667,-0.51667 -2.5,-0.75c-0.33333,-0.33333 -0.68333,-0.68333 -1.05,-1.05c-0.23333,-0.36667 -0.46667,-0.73333 -0.7,-1.1c-0.13333,-0.33333 -0.25,-0.68333 -0.35,-1.05c-0.26667,-0.36667 -0.5,-0.73333 -0.7,-1.1c-0.13333,-0.23333 -0.26667,-0.46667 -0.4,-0.7c-0.1,0.36667 -0.21667,0.73333 -0.35,1.1c0,0.33333 0,0.68333 0,1.05c-0.23333,0.36667 -0.46667,0.73333 -0.7,1.1c-0.23333,0.33333 -0.48333,0.68333 -0.75,1.05c-0.23333,0.23333 -0.46667,0.46667 -0.7,0.7c-0.6,0.13333 -1.2,0.25 -1.8,0.35c-5.46667,0.26667 -10.93333,0.51667 -16.4,0.75c-0.73333,0.23333 -1.45,0.46667 -2.15,0.7c-1.9,0 -3.8,0 -5.7,0c-0.83333,-0.23333 -1.66667,-0.46667 -2.5,-0.7c-0.5,-0.36667 -0.98333,-0.73333 -1.45,-1.1c-0.36667,-0.33333 -0.71667,-0.68333 -1.05,-1.05c-0.23333,-0.36667 -0.48333,-0.73333 -0.75,-1.1c0,-0.33333 0,-0.68333 0,-1.05c0,-0.36667 0,-0.71667 0,-1.05c0,-0.36667 0,-0.73333 0,-1.1c0,-0.36667 0,-0.71667 0,-1.05c-0.1,-0.36667 -0.21667,-0.73333 -0.35,-1.1c-0.1,0.23333 -0.21667,0.48333 -0.35,0.75c-0.1,0.33333 -0.21667,0.68333 -0.35,1.05c-0.36667,0.36667 -0.71667,0.71667 -1.05,1.05c-0.73333,0.26667 -1.45,0.51667 -2.15,0.75c-13.83333,0 -27.65,0 -41.45,0c-0.83333,-0.23333 -1.66667,-0.48333 -2.5,-0.75c-0.23333,-0.33333 -0.46667,-0.68333 -0.7,-1.05c-0.23333,-0.36667 -0.46667,-0.71667 -0.7,-1.05c-0.13333,-0.36667 -0.25,-0.73333 -0.35,-1.1c-0.36667,-0.36667 -0.73333,-0.71667 -1.1,-1.05c-0.23333,-0.36667 -0.46667,-0.73333 -0.7,-1.1c-0.23333,-0.33333 -0.46667,-0.68333 -0.7,-1.05c0,-0.36667 0,-0.73333 0,-1.1c-0.13333,-0.33333 -0.26667,-0.68333 -0.4,-1.05c0,-0.23333 0,-0.46667 0,-0.7c-0.46667,0 -0.93333,0 -1.4,0c-0.73333,0.23333 -1.45,0.48333 -2.15,0.75c-0.6,0.2 -1.2,0.41667 -1.8,0.65c-0.6,0.13333 -1.18333,0.25 -1.75,0.35c-2.63333,0.13333 -5.26667,0.26667 -7.9,0.4c-0.7,0.23333 -1.4,0.46667 -2.1,0.7c-2.16667,0.23333 -4.31667,0.46667 -6.45,0.7c-0.7,0.23333 -1.41667,0.46667 -2.15,0.7c-4.03333,0.26667 -8.08333,0.51667 -12.15,0.75c-0.7,0.23333 -1.41667,0.43333 -2.15,0.6c-1.16667,0.3 -2.35,0.6 -3.55,0.9c-0.7,0.16667 -1.41667,0.38333 -2.15,0.65c-0.46667,0 -0.93333,0 -1.4,0c-0.83333,-0.26667 -1.66667,-0.51667 -2.5,-0.75c-0.23333,-0.33333 -0.48333,-0.68333 -0.75,-1.05c-0.46667,-0.36667 -0.93333,-0.73333 -1.4,-1.1c-0.23333,-0.33333 -0.46667,-0.68333 -0.7,-1.05c-0.26667,-0.36667 -0.51667,-0.71667 -0.75,-1.05c-0.1,-0.36667 -0.21667,-0.73333 -0.35,-1.1c-0.1,-0.36667 -0.21667,-0.71667 -0.35,-1.05c-0.36667,-0.36667 -0.71667,-0.73333 -1.05,-1.1c0,-0.33333 0,-0.68333 0,-1.05c0,-0.36667 0,-0.73333 0,-1.1c-0.13333,-0.33333 -0.26667,-0.68333 -0.4,-1.05c-0.33333,-0.36667 -0.68333,-0.71667 -1.05,-1.05c0,-0.36667 0,-0.73333 0,-1.1c0,-0.36667 0,-0.71667 0,-1.05c-0.23333,0.33333 -0.46667,0.68333 -0.7,1.05c-0.73333,0.73333 -1.45,1.45 -2.15,2.15c-1.06667,1.06667 -2.13333,2.13333 -3.2,3.2c-1.06667,1.06667 -2.15,2.15 -3.25,3.25c-0.7,0.7 -1.41667,1.4 -2.15,2.1c-0.46667,0.36667 -0.93333,0.73333 -1.4,1.1c-0.73333,0.36667 -1.45,0.71667 -2.15,1.05c-0.36667,0.36667 -0.71667,0.73333 -1.05,1.1c-0.26667,0.23333 -0.51667,0.46667 -0.75,0.7c-0.23333,0.13333 -0.46667,0.25 -0.7,0.35c-0.6,0.23333 -1.2,0.46667 -1.8,0.7c-0.33333,0.36667 -0.68333,0.73333 -1.05,1.1c-0.23333,0.23333 -0.46667,0.46667 -0.7,0.7c-0.26667,0.13333 -0.51667,0.25 -0.75,0.35c-0.6,0.13333 -1.18333,0.28333 -1.75,0.45c-0.73333,0.2 -1.45,0.41667 -2.15,0.65c-0.73333,0.23333 -1.45,0.46667 -2.15,0.7c-0.73333,0.13333 -1.45,0.25 -2.15,0.35c-0.13333,0.13333 -0.26667,0.21667 -0.4,0.25c-0.56667,0.2 -1.15,0.38333 -1.75,0.55c-0.7,0.2 -1.41667,0.41667 -2.15,0.65c-0.7,0.23333 -1.41667,0.46667 -2.15,0.7c-4.73333,0 -9.48333,0 -14.25,0c-0.83333,-0.23333 -1.66667,-0.48333 -2.5,-0.75c-1.43333,-0.46667 -2.86667,-0.93333 -4.3,-1.4c-1.43333,-0.46667 -2.86667,-0.93333 -4.3,-1.4c-0.23333,-0.26667 -0.46667,-0.51667 -0.7,-0.75c-0.7,-0.23333 -1.41667,-0.46667 -2.15,-0.7c-0.23333,-0.23333 -0.46667,-0.46667 -0.7,-0.7c-0.7,-0.23333 -1.41667,-0.48333 -2.15,-0.75c-0.23333,-0.33333 -0.46667,-0.68333 -0.7,-1.05c-0.46667,-0.36667 -0.95,-0.71667 -1.45,-1.05c-0.33333,-0.36667 -0.68333,-0.73333 -1.05,-1.1c-0.36667,-0.36667 -0.73333,-0.71667 -1.1,-1.05c-0.23333,-0.36667 -0.46667,-0.73333 -0.7,-1.1c-0.23333,-0.33333 -0.46667,-0.68333 -0.7,-1.05c0,-0.36667 0,-0.73333 0,-1.1c-0.23333,-0.33333 -0.46667,-0.68333 -0.7,-1.05c-0.36667,-0.36667 -0.73333,-0.71667 -1.1,-1.05c-0.36667,-0.36667 -0.71667,-0.73333 -1.05,-1.1c-0.36667,-0.36667 -0.73333,-0.71667 -1.1,-1.05c0,-0.36667 0,-0.73333 0,-1.1c-0.23333,-0.33333 -0.46667,-0.68333 -0.7,-1.05c-0.36667,-0.36667 -0.71667,-0.73333 -1.05,-1.1c-0.36667,-0.33333 -0.73333,-0.68333 -1.1,-1.05c-0.36667,-0.36667 -0.71667,-0.71667 -1.05,-1.05c-0.13333,-0.36667 -0.25,-0.73333 -0.35,-1.1c-0.13333,-0.36667 -0.26667,-0.71667 -0.4,-1.05c-0.23333,-0.36667 -0.46667,-0.73333 -0.7,-1.1c-0.36667,-0.33333 -0.71667,-0.68333 -1.05,-1.05c-0.13333,-0.36667 -0.25,-0.73333 -0.35,-1.1c-0.13333,-0.33333 -0.26667,-0.68333 -0.4,-1.05c-0.04388,-0.04818 -0.09388,-0.09818 -0.15,-0.15c-0.17747,0.29635 -0.36081,0.57969 -0.55,0.85c-0.6,0.36667 -1.2,0.73333 -1.8,1.1c-0.23333,0.33333 -0.46667,0.68333 -0.7,1.05c-0.23333,0.36667 -0.46667,0.73333 -0.7,1.1c-0.36667,0.33333 -0.73333,0.68333 -1.1,1.05c-0.56667,0.36667 -1.15,0.71667 -1.75,1.05c-0.23333,0.36667 -0.48333,0.73333 -0.75,1.1c-0.33333,0.36667 -0.68333,0.71667 -1.05,1.05c-0.46667,0.36667 -0.95,0.73333 -1.45,1.1c-0.1,0.33333 -0.21667,0.68333 -0.35,1.05c-0.23333,0.23333 -0.46667,0.46667 -0.7,0.7c-0.23333,0.13333 -0.46667,0.25 -0.7,0.35c-0.6,0.26667 -1.2,0.51667 -1.8,0.75c-0.36667,0.36667 -0.71667,0.71667 -1.05,1.05c-0.5,0.36667 -0.98333,0.73333 -1.45,1.1c-0.36667,0.33333 -0.71667,0.68333 -1.05,1.05c-0.26667,0.36667 -0.51667,0.73333 -0.75,1.1c-0.33333,0.23333 -0.68333,0.46667 -1.05,0.7c-0.6,0.23333 -1.2,0.46667 -1.8,0.7c-0.36667,0.36667 -0.71667,0.73333 -1.05,1.1c-0.23333,0.23333 -0.48333,0.46667 -0.75,0.7c-0.23333,0.1 -0.46667,0.21667 -0.7,0.35c-0.7,0.23333 -1.41667,0.46667 -2.15,0.7c-0.46667,0.36667 -0.93333,0.73333 -1.4,1.1c-0.23333,0.23333 -0.48333,0.46667 -0.75,0.7c-0.7,0.23333 -1.4,0.46667 -2.1,0.7c-0.26667,0.23333 -0.51667,0.48333 -0.75,0.75c-0.7,0.23333 -1.41667,0.46667 -2.15,0.7c-0.23333,0.23333 -0.46667,0.46667 -0.7,0.7c-0.6,0.13333 -1.18333,0.26667 -1.75,0.4c-0.73333,0.2 -1.45,0.43333 -2.15,0.7c-0.73333,0.23333 -1.45,0.46667 -2.15,0.7c-1.43333,0.46667 -2.86667,0.9 -4.3,1.3c-1.9,0.56667 -3.8,1.1 -5.7,1.6c-0.73333,0.2 -1.45,0.43333 -2.15,0.7c-0.83333,0.33333 -1.66667,0.68333 -2.5,1.05c-0.23333,0.23333 -0.46667,0.46667 -0.7,0.7c-0.73333,0.23333 -1.45,0.46667 -2.15,0.7c-0.23333,0.23333 -0.46667,0.48333 -0.7,0.75c-0.6,0.1 -1.2,0.23333 -1.8,0.4c-0.73333,0.2 -1.45,0.41667 -2.15,0.65c-0.7,0.23333 -1.41667,0.46667 -2.15,0.7c-2.13333,0.23333 -4.26667,0.48333 -6.4,0.75c-0.73333,0.23333 -1.45,0.46667 -2.15,0.7c-6.2,0 -12.4,0 -18.6,0c-0.83333,-0.23333 -1.65,-0.5 -2.45,-0.8c-0.63333,-0.2 -1.25,-0.4 -1.85,-0.6c-0.8,-0.26667 -1.61667,-0.51667 -2.45,-0.75c-0.26667,-0.36667 -0.51667,-0.71667 -0.75,-1.05c-0.46667,-0.36667 -0.93333,-0.73333 -1.4,-1.1c-0.23333,-0.36667 -0.48333,-0.71667 -0.75,-1.05c0,-0.36667 0,-0.73333 0,-1.1c0,-0.33333 0,-0.68333 0,-1.05c-0.23333,-0.36667 -0.46667,-0.73333 -0.7,-1.1c-0.23333,-0.33333 -0.46667,-0.68333 -0.7,-1.05c0,-0.36667 0,-0.71667 0,-1.05c0,-0.36667 0,-0.73333 0,-1.1c0,-0.36667 0,-0.71667 0,-1.05c0,-0.36667 0,-0.73333 0,-1.1c-0.13333,-0.33333 -0.25,-0.68333 -0.35,-1.05c-0.13333,-0.36667 -0.25,-0.73333 -0.35,-1.1c-0.26667,-0.33333 -0.51667,-0.68333 -0.75,-1.05c0,-0.36667 0,-0.71667 0,-1.05c0,-0.36667 0,-0.73333 0,-1.1c0,-0.36667 0,-0.71667 0,-1.05c0,-0.36667 0,-0.73333 0,-1.1c0,-0.33333 0,-0.68333 0,-1.05c0,-0.36667 0,-0.73333 0,-1.1c0,-0.33333 0,-0.68333 0,-1.05c-0.23333,-0.36667 -0.46667,-0.71667 -0.7,-1.05c-0.23333,-0.36667 -0.46667,-0.73333 -0.7,-1.1c0,-0.36667 0,-0.71667 0,-1.05c0,-0.36667 0,-0.73333 0,-1.1c0,-0.33333 0,-0.68333 0,-1.05c-0.13333,-0.36667 -0.25,-0.73333 -0.35,-1.1c-0.23333,-0.33333 -0.48333,-0.68333 -0.75,-1.05c-0.1,-0.36667 -0.21667,-0.71667 -0.35,-1.05c0,-0.36667 0,-0.73333 0,-1.1c0,-0.36667 0,-0.71667 0,-1.05c-0.1,-0.36667 -0.21667,-0.73333 -0.35,-1.1c-0.1,-0.33333 -0.21667,-0.68333 -0.35,-1.05c-0.23333,-0.36667 -0.46667,-0.73333 -0.7,-1.1c0,-0.33333 0,-0.68333 0,-1.05c0,-0.36667 0,-0.71667 0,-1.05c0,-0.36667 0,-0.73333 0,-1.1c-0.23333,-0.36667 -0.48333,-0.71667 -0.75,-1.05c-0.23333,-0.36667 -0.46667,-0.73333 -0.7,-1.1c0,-0.33333 0,-0.68333 0,-1.05c0,-0.36667 0,-0.73333 0,-1.1c-0.23333,-0.33333 -0.46667,-0.68333 -0.7,-1.05c-0.23333,-0.36667 -0.46667,-0.71667 -0.7,-1.05c-0.13333,-0.36667 -0.26667,-0.73333 -0.4,-1.1c-0.1,-0.36667 -0.21667,-0.71667 -0.35,-1.05c-0.23333,-0.36667 -0.46667,-0.73333 -0.7,-1.1c0,-0.33333 0,-0.68333 0,-1.05c-0.13333,-0.36667 -0.25,-0.73333 -0.35,-1.1c-0.13333,-0.33333 -0.25,-0.68333 -0.35,-1.05c-0.23333,-0.36667 -0.48333,-0.71667 -0.75,-1.05c0,-0.36667 0,-0.73333 0,-1.1c-0.1,-0.36667 -0.21667,-0.71667 -0.35,-1.05c-0.1,-0.36667 -0.21667,-0.73333 -0.35,-1.1c-0.23333,-0.33333 -0.46667,-0.68333 -0.7,-1.05c-0.13333,-0.36667 -0.25,-0.73333 -0.35,-1.1c-0.23333,-0.33333 -0.48333,-0.68333 -0.75,-1.05c-0.1,-0.36667 -0.21667,-0.71667 -0.35,-1.05c-0.23333,-0.36667 -0.46667,-0.73333 -0.7,-1.1c-0.23333,-0.36667 -0.46667,-0.71667 -0.7,-1.05c0,-0.36667 0,-0.73333 0,-1.1c0,-0.33333 0,-0.68333 0,-1.05c-0.13333,-0.36667 -0.25,-0.71667 -0.35,-1.05c0,-0.36667 0,-0.73333 0,-1.1c0,-0.36667 0,-0.71667 0,-1.05c0.1,-0.36667 0.21667,-0.73333 0.35,-1.1c0.33333,-0.33333 0.68333,-0.68333 1.05,-1.05c0.36667,-0.23333 0.73333,-0.46667 1.1,-0.7c0.56667,-0.26667 1.15,-0.51667 1.75,-0.75c0.36667,-0.23333 0.73333,-0.46667 1.1,-0.7c0.6,-0.13333 1.18333,-0.25 1.75,-0.35c0.6,-0.23333 1.2,-0.46667 1.8,-0.7c-0.1,-0.26667 -0.21667,-0.51667 -0.35,-0.75c-0.46667,-0.1 -0.95,-0.21667 -1.45,-0.35c-0.83333,-0.23333 -1.65,-0.48333 -2.45,-0.75c-0.96667,-0.33333 -1.93333,-0.68333 -2.9,-1.05c-0.33333,-0.33333 -0.68333,-0.68333 -1.05,-1.05c-0.36667,-0.36667 -0.73333,-0.71667 -1.1,-1.05c-0.23333,-0.36667 -0.46667,-0.73333 -0.7,-1.1c-0.1,-0.36667 -0.21667,-0.71667 -0.35,-1.05c0,-0.36667 0,-0.73333 0,-1.1c0,-0.33333 0,-0.68333 0,-1.05c0,-0.36667 0,-0.73333 0,-1.1c0,-0.33333 0,-0.68333 0,-1.05c0,-0.36667 0,-0.71667 0,-1.05c-0.13333,-0.36667 -0.25,-0.73333 -0.35,-1.1c-0.23333,-0.36667 -0.46667,-0.71667 -0.7,-1.05c-0.13333,-0.36667 -0.26667,-0.73333 -0.4,-1.1c0,-0.33333 0,-0.68333 0,-1.05c0,-0.36667 0,-0.73333 0,-1.1c0,-0.33333 0,-0.68333 0,-1.05c0,-0.36667 0,-0.71667 0,-1.05c0,-0.36667 0,-0.73333 0,-1.1c-0.1,-0.36667 -0.21667,-0.71667 -0.35,-1.05c-0.23333,-0.36667 -0.46667,-0.73333 -0.7,-1.1c-0.13333,-0.33333 -0.25,-0.68333 -0.35,-1.05c0,-0.36667 0,-0.73333 0,-1.1c0,-0.33333 0,-0.68333 0,-1.05c0,-0.36667 0,-0.71667 0,-1.05c0,-0.36667 0,-0.73333 0,-1.1c0,-0.36667 0,-0.71667 0,-1.05c0,-0.36667 0,-0.73333 0,-1.1c-0.13333,-0.33333 -0.25,-0.68333 -0.35,-1.05c-0.23333,-0.36667 -0.48333,-0.73333 -0.75,-1.1c-0.1,-0.33333 -0.21667,-0.68333 -0.35,-1.05c0,-0.36667 0,-0.71667 0,-1.05c0,-0.36667 0,-0.73333 0,-1.1c0,-0.36667 0,-0.71667 0,-1.05c0,-0.36667 0,-0.73333 0,-1.1c0,-0.33333 0,-0.68333 0,-1.05c-0.1,-0.36667 -0.21667,-0.73333 -0.35,-1.1c-0.23333,-0.33333 -0.46667,-0.68333 -0.7,-1.05c-0.13333,-0.36667 -0.25,-0.71667 -0.35,-1.05c0,-0.36667 0,-0.73333 0,-1.1c0,-0.36667 0,-0.71667 0,-1.05c0,-0.36667 0,-0.73333 0,-1.1c-0.13333,-0.33333 -0.25,-0.68333 -0.35,-1.05c-0.26667,-0.36667 -0.51667,-0.73333 -0.75,-1.1c0,-0.33333 0,-0.68333 0,-1.05c0,-0.36667 0,-0.71667 0,-1.05c0,-0.36667 0,-0.73333 0,-1.1c-0.1,-0.36667 -0.21667,-0.71667 -0.35,-1.05c-0.23333,-0.36667 -0.46667,-0.73333 -0.7,-1.1c-0.13333,-0.33333 -0.25,-0.68333 -0.35,-1.05c-0.13333,-0.36667 -0.25,-0.73333 -0.35,-1.1c0,-0.33333 0,-0.68333 0,-1.05c0,-0.36667 0,-0.71667 0,-1.05c0,-0.36667 0,-0.73333 0,-1.1c0,-0.36667 0,-0.71667 0,-1.05c0,-0.36667 0,-0.73333 0,-1.1c0,-0.33333 0,-0.68333 0,-1.05c0,-0.36667 0,-0.71667 0,-1.05c0,-0.36667 0,-0.73333 0,-1.1c0,-0.36667 0,-0.71667 0,-1.05c0,-0.36667 0,-0.73333 0,-1.1c0.1,-0.33333 0.21667,-0.68333 0.35,-1.05c0.33333,-0.36667 0.68333,-0.73333 1.05,-1.1c0.36667,-0.23333 0.73333,-0.46667 1.1,-0.7c0.56667,-0.1 1.15,-0.2 1.75,-0.3c1.56667,-0.26667 3.11667,-0.51667 4.65,-0.75c0.83333,-0.23333 1.66667,-0.48333 2.5,-0.75c3.46667,-0.23333 6.91667,-0.46667 10.35,-0.7c0.83333,-0.23333 1.66667,-0.46667 2.5,-0.7c1.56667,-0.23333 3.11667,-0.46667 4.65,-0.7z"/></g><g fill="#ffffff"><path d="M470.05,332.7c8,16.1 8.53333,32.23333 1.6,48.4c-6,13.96667 -16.23333,23.06667 -30.7,27.3c-4.8,1.36667 -9.7,2.06667 -14.7,2.1c-12.46667,0.1 -24.88333,0.73333 -37.25,1.9c-3.16667,0.33333 -6.13333,-0.48333 -8.9,-2.45l-5.65,-29.45l29.7,-1.2l-6.9,-30.8l-26.15,2.35c-2.1,-4.96667 -3.78333,-10.01667 -5.05,-15.15c-1.9,-7.7 -2.46667,-15.31667 -1.7,-22.85l2.65,0.25c15.03333,-6.2 30.83333,-8.93333 47.4,-8.2c3.26667,0.16667 6.5,0.28333 9.7,0.35c15.13333,0.4 27.86667,5.98333 38.2,16.75c3.2,3.16667 5.78333,6.73333 7.75,10.7M421.5,343.65l7.7,24c5.6,-0.13333 9.35,-3.26667 11.25,-9.4c0.66667,-2.13333 0.51667,-4.16667 -0.45,-6.1c-3.66667,-7.5 -9.83333,-10.33333 -18.5,-8.5M562.7,346.8c1.6,5.66667 2.35,11.43333 2.25,17.3c-0.16667,11.23333 -4.28333,20.68333 -12.35,28.35c-7.43333,7 -16.33333,11.11667 -26.7,12.35c-6.9,0.7 -13.65,0.25 -20.25,-1.35c-14.63333,-3.6 -22.78333,-13.06667 -24.45,-28.4c-0.73333,-6.6 -1.15,-13.21667 -1.25,-19.85c-0.16667,-8.56667 1.01667,-16.88333 3.55,-24.95c1.6,-5.13333 4.73333,-8.93333 9.4,-11.4c8.53333,-4.5 17.73333,-6.46667 27.6,-5.9c6.9,0.6 13.58333,2.1 20.05,4.5c13.73333,4.96667 21.11667,14.75 22.15,29.35M526,355.9c-3.43333,-4.8 -7.53333,-6.81667 -12.3,-6.05c-1.2,6.96667 -0.26667,13.33333 2.8,19.1c6.46667,0.36667 10.5,-2.55 12.1,-8.75l-2.6,-4.3M654.8,316.15c0.5,1.3 0.8,2.61667 0.9,3.95c0.16667,3.03333 0.25,6.1 0.25,9.2c0,17.36667 0.66667,34.68333 2,51.95c0.16667,1.93333 0.65,3.73333 1.45,5.4c2.13333,4.56667 3.11667,9.15 2.95,13.75c-1.73333,1.76667 -3.91667,2.43333 -6.55,2c-10.8,-1.86667 -21.73333,-2.4 -32.8,-1.6c-10.4,-10.36667 -18.78333,-22.35 -25.15,-35.95l8.1,31.55c-0.36667,0.86667 -0.98333,1.5 -1.85,1.9c-2.76667,1.1 -5.71667,1.8 -8.85,2.1c-7.6,1.1 -14.93333,0.36667 -22,-2.2c-1.4,-0.53333 -2.26667,-1.45 -2.6,-2.75c-2.1,-8.43333 -2.73333,-17.05 -1.9,-25.85c0.86667,-8.83333 1,-17.65 0.4,-26.45c-0.6,-8.66667 0.58333,-16.81667 3.55,-24.45l1.85,1.15c3.36667,-0.53333 6.7,-1.08333 10,-1.65c4.1,-0.43333 8.08333,-1.28333 11.95,-2.55c4.63333,-1.63333 8.81667,-1.46667 12.55,0.5c0,4.33333 0.7,8.56667 2.1,12.7c1.53333,4.63333 3.15,9.23333 4.85,13.8l2.1,-23.85l34.95,-4.15l1.75,1.5M699.2,400c-6.53333,0.4 -13.26667,0.7 -20.2,0.9c-3.93333,0.1 -6.9,-1.46667 -8.9,-4.7c-2.2,-3.66667 -3.13333,-7.71667 -2.8,-12.15c0.66667,-8.73333 1.46667,-17.45 2.4,-26.15c0.6,-5.63333 1.68333,-11.08333 3.25,-16.35c2.2,-7.36667 3.85,-14.78333 4.95,-22.25c0.1,-0.63333 0.45,-1.01667 1.05,-1.15c14.33333,-3.06667 28.93333,-5.08333 43.8,-6.05c3.4,8.2 6.9,16.4 10.5,24.6c9.36667,21.26667 16.53333,43.11667 21.5,65.55c-0.43333,0.2 -0.88333,0.35 -1.35,0.45c-11.6,3 -23.45,4.06667 -35.55,3.2c-0.76667,-0.56667 -1.38333,-1.23333 -1.85,-2c-6.2,-9.6 -9.38333,-20.26667 -9.55,-32l-7.1,1.35l-0.15,26.75M699.6,343.35l-1.7,7.9l7.9,-1.25l-6.2,-6.65M838.9,317.4l1.95,25.55c-0.96667,1.46667 -2.31667,2.43333 -4.05,2.9c-3.4,0.86667 -6.85,1.46667 -10.35,1.8c-8,0.93333 -15.96667,2.1 -23.9,3.5c1.9,18.36667 5.38333,36.43333 10.45,54.2l-2.85,2.7l-35.55,-0.1c-1.7,-2.03333 -2.66667,-4.46667 -2.9,-7.3c-1.33333,-17.46667 -0.6,-34.98333 2.2,-52.55c-1.03333,0.26667 -2.05,0.53333 -3.05,0.8c-2.36667,0.5 -4.78333,0.88333 -7.25,1.15c-6.96667,1.06667 -13.1,-0.21667 -18.4,-3.85c-0.06667,-0.43333 -0.1,-0.86667 -0.1,-1.3c-0.13333,-7.33333 0.26667,-14.63333 1.2,-21.9c0.46667,-3.83333 1.66667,-5.5 3.6,-5c0.76667,-0.6 1.58333,-1.13333 2.45,-1.6c1.16667,-0.66667 2.38333,-1.15 3.65,-1.45c14.43333,-0.63333 28.85,-1.46667 43.25,-2.5c2.03333,-0.16667 4.06667,-0.55 6.1,-1.15c6.76667,-2.06667 13.63333,-3.78333 20.6,-5.15c4.6,-0.73333 8.53333,-0.25 11.8,1.45l1.15,9.8M914.5,348.6c-1.86667,1.43333 -3.95,1.68333 -6.25,0.75c-1.33333,-0.56667 -2.66667,-0.95 -4,-1.15c-10.6,-1.16667 -21.33333,-1.51667 -32.2,-1.05v6.3c2.83333,0 5.61667,-0.33333 8.35,-1c2.43333,-0.63333 4.81667,-1.35 7.15,-2.15c2.7,-0.96667 5.15,-0.68333 7.35,0.85c-0.53333,8.4 -1.48333,16.85 -2.85,25.35c-0.13333,0.83333 -0.6,1.35 -1.4,1.55c-7.06667,1.23333 -14.4,1.21667 -22,-0.05l1.15,6.35c7.1,0.06667 14.21667,0.1 21.35,0.1c0.4,0 0.81667,-0.01667 1.25,-0.05c1.66667,-0.43333 3.35,-0.95 5.05,-1.55c4.96667,-1.6 9.35,-1.35 13.15,0.75c0.43333,5.1 0.63333,10.31667 0.6,15.65c-0.06667,6.06667 -2.05,11.08333 -5.95,15.05c-17.73333,-0.4 -35.46667,-0.55 -53.2,-0.45c-4.76667,0.03333 -8.63333,-1.55 -11.6,-4.75c0.73333,-5.53333 1.06667,-11.1 1,-16.7c-0.06667,-7.6 0.7,-15.11667 2.3,-22.55c3.63333,-16.8 5.9,-33.7 6.8,-50.7l-2.7,-3.4c1.16667,-2.1 3,-3.38333 5.5,-3.85c19.83333,-3.53333 39.6,-6.11667 59.3,-7.75l3.75,10.75z"/></g></g></g></g></svg>