<svg version="1.1" xmlns="http://www.w3.org/2000/svg" xmlns:xlink="http://www.w3.org/1999/xlink" width="42.7563" height="66.42423" viewBox="0,0,42.7563,66.42423"><g transform="translate(-608.2172,-337.75266)"><g data-paper-data="{&quot;isPaintingLayer&quot;:true}" fill-rule="nonzero" stroke="none" stroke-width="1" stroke-linecap="butt" stroke-linejoin="miter" stroke-miterlimit="10" stroke-dasharray="" stroke-dashoffset="0" style="mix-blend-mode: normal"><path d="M650.35811,343.43784c0.03333,0.23333 0.08333,0.48333 0.15,0.75c0.1,0.6 0.15,1.15 0.15,1.65c0.03333,2.36667 0.13333,4.85 0.3,7.45c0.06667,0.93333 -0.08333,1.81667 -0.45,2.65c-0.36667,0.8 -0.95,1.36667 -1.75,1.7c-1.03333,0.43333 -2.05,0.86667 -3.05,1.3c-1.1,0.4 -2.21667,0.65 -3.35,0.75c-2.73333,0.13333 -5.46667,0.26667 -8.2,0.4c-2.33333,0.13333 -4.66667,0.26667 -7,0.4l0.4,2.4c0.63333,-0.06667 1.28333,-0.13333 1.95,-0.2c4.5,-0.66667 8.83333,-0.31667 13,1.05c0.3,0.46667 0.53333,1.03333 0.7,1.7v0.15c0.03333,1.5 0.13333,3.01667 0.3,4.55c0.3,3.1 -0.13333,6.03333 -1.3,8.8l-15.75,2.9l-0.3,3.2c0.03333,0.16667 0.06667,0.36667 0.1,0.6c0.33333,4 0.41667,8 0.25,12c-0.06667,1.83333 -0.36667,3.61667 -0.9,5.35c-0.13333,0.06667 -0.25,0.13333 -0.35,0.2c-5.53333,1.26667 -10.95,1.31667 -16.25,0.15c-0.23333,-0.36667 -0.35,-0.71667 -0.35,-1.05c-0.36667,-10.33333 -0.45,-20.68333 -0.25,-31.05c0.03333,-1.83333 0,-3.63333 -0.1,-5.4c-0.03333,-0.26667 -0.05,-0.53333 -0.05,-0.8c-0.1,-2.73333 -0.01667,-5.5 0.25,-8.3c0,-0.1 0,-0.18333 0,-0.25c0.06667,-0.2 0.1,-0.38333 0.1,-0.55c0.03333,-3.9 0.26667,-7.73333 0.7,-11.5c-0.26667,-0.66667 -0.46667,-1.31667 -0.6,-1.95c-0.23333,-0.9 -0.01667,-1.65 0.65,-2.25c0.43333,-0.4 0.91667,-0.65 1.45,-0.75c2.8,-0.43333 5.61667,-0.75 8.45,-0.95c2.46667,-0.23333 4.95,-0.46667 7.45,-0.7c3.66667,0.03333 7.33333,0.06667 11,0.1c2.83333,-0.33333 5.71667,-0.21667 8.65,0.35c1,0.06667 1.85,0.45 2.55,1.15c0.73333,1.2 1.21667,2.53333 1.45,4M644.45811,344.53784c-10.53333,-0.73333 -21.06667,-0.46667 -31.6,0.8c0.06667,2.26667 0.15,4.58333 0.25,6.95c0.06667,1.7 0.05,3.4 -0.05,5.1c-0.1,1.33333 -0.08333,2.66667 0.05,4c0.13333,1.6 0.23333,3.21667 0.3,4.85c0.43333,10.53333 0.58333,21.08333 0.45,31.65c2.26667,0.46667 4.46667,0.46667 6.6,0c0.1,-1.93333 0.15,-3.88333 0.15,-5.85c0,-2.1 -0.13333,-4.25 -0.4,-6.45c-0.03333,-0.36667 -0.01667,-0.7 0.05,-1c0.3,-1.83333 0.33333,-3.63333 0.1,-5.4c-0.16667,-1.33333 0.28333,-2.41667 1.35,-3.25l15.55,-2.6v-4.55c-1.46667,0 -2.91667,0.01667 -4.35,0.05c-1.83333,0.23333 -3.58333,0.51667 -5.25,0.85c-1.83333,0.13333 -3.36667,-0.53333 -4.6,-2c-0.83333,-1.03333 -1.36667,-2.28333 -1.6,-3.75c-0.13333,-0.9 -0.25,-1.71667 -0.35,-2.45c-0.06667,-0.33333 -0.11667,-0.7 -0.15,-1.1c-0.03333,-0.63333 -0.1,-1.33333 -0.2,-2.1c-0.1,-0.73333 0.13333,-1.4 0.7,-2c0.46667,-0.46667 1,-0.71667 1.6,-0.75c5.3,-1 10.66667,-1.63333 16.1,-1.9c2.3,-0.2 4.16667,-0.68333 5.6,-1.45z" fill="#000000"/><path d="M623.05811,355.53784c-0.6,0.03333 -1.13333,0.28333 -1.6,0.75c-0.56667,0.6 -0.8,1.26667 -0.7,2c0.1,0.76667 0.16667,1.46667 0.2,2.1c0.03333,0.4 0.08333,0.76667 0.15,1.1c0.1,0.73333 0.21667,1.55 0.35,2.45c0.23333,1.46667 0.76667,2.71667 1.6,3.75c1.23333,1.46667 2.76667,2.13333 4.6,2c1.66667,-0.33333 3.41667,-0.61667 5.25,-0.85c1.43333,-0.03333 2.88333,-0.05 4.35,-0.05v4.55l-15.55,2.6c-1.06667,0.83333 -1.51667,1.91667 -1.35,3.25c0.23333,1.76667 0.2,3.56667 -0.1,5.4c-0.06667,0.3 -0.08333,0.63333 -0.05,1c0.26667,2.2 0.4,4.35 0.4,6.45c0,1.96667 -0.05,3.91667 -0.15,5.85c-2.13333,0.46667 -4.33333,0.46667 -6.6,0c0.13333,-10.56667 -0.01667,-21.11667 -0.45,-31.65c-0.06667,-1.63333 -0.16667,-3.25 -0.3,-4.85c-0.13333,-1.33333 -0.15,-2.66667 -0.05,-4c0.1,-1.7 0.11667,-3.4 0.05,-5.1c-0.1,-2.36667 -0.18333,-4.68333 -0.25,-6.95c10.53333,-1.26667 21.06667,-1.53333 31.6,-0.8l0.3,7.65c-1.43333,0.76667 -3.3,1.25 -5.6,1.45c-5.43333,0.26667 -10.8,0.9 -16.1,1.9z" fill="#ffffff"/></g></g></svg>