<svg version="1.1" xmlns="http://www.w3.org/2000/svg" xmlns:xlink="http://www.w3.org/1999/xlink" width="51.09423" height="63.50616" viewBox="0,0,51.09423,63.50616"><g transform="translate(-609.8255,-338.77434)"><g data-paper-data="{&quot;isPaintingLayer&quot;:true}" fill-rule="nonzero" stroke="none" stroke-width="1" stroke-linecap="round" stroke-linejoin="miter" stroke-miterlimit="4" stroke-dasharray="" stroke-dashoffset="0" style="mix-blend-mode: normal"><path d="M651.0755,339.73051c2.46667,0.93333 4.08333,2.4 4.85,4.4c0.46667,1.23333 0.55,2.58333 0.25,4.05c-0.3,1.33333 -0.88333,2.58333 -1.75,3.75c-1.53333,2.1 -3.75,3.83333 -6.65,5.2c-2.06667,0.96667 -4.83333,1.88333 -8.3,2.75c3.46667,0.43333 6.75,1.55 9.85,3.35c3.1,1.83333 5.66667,4.15 7.7,6.95c3,4.1 4.26667,8.25 3.8,12.45c-0.33333,3.06667 -1.66667,5.96667 -4,8.7c-2.03333,2.4 -4.61667,4.45 -7.75,6.15c-5.8,3.16667 -11.98333,4.76667 -18.55,4.8c-4.76667,0 -8.71667,-0.85 -11.85,-2.55c-1.86667,-1 -3.45,-2.28333 -4.75,-3.85c-1.4,-1.66667 -2.3,-3.46667 -2.7,-5.4c-0.3,-1.4 -0.3,-2.75 0,-4.05c0.3,-1.4 0.9,-2.56667 1.8,-3.5c1.2,-1.23333 2.9,-2.01667 5.1,-2.35c1.2,-0.2 3.18333,-0.28333 5.95,-0.25c5.33333,0.1 10.6,-0.4 15.8,-1.5c-0.2,-1.06667 -1.25,-1.63333 -3.15,-1.7c-5.73333,-0.33333 -11.7,-0.21667 -17.9,0.35c-1.26667,0.13333 -2.25,0.16667 -2.95,0.1c-1.1,-0.1 -1.98333,-0.43333 -2.65,-1c-0.93333,-0.73333 -1.6,-2.23333 -2,-4.5c-0.86667,-5.46667 -1.33333,-12.43333 -1.4,-20.9c0,-1.56667 0.1,-2.8 0.3,-3.7c0.26667,-1.33333 0.78333,-2.4 1.55,-3.2c0.83333,-0.86667 2.46667,-1.58333 4.9,-2.15c10.6,-2.33333 19.88333,-3.45 27.85,-3.35c2.83333,0.06667 5.05,0.38333 6.65,0.95M615.7755,348.63051c-0.36667,7.83333 0.06667,15.45 1.3,22.85c1.33333,0.03333 4.68333,-0.11667 10.05,-0.45c4.1,-0.23333 7.43333,-0.18333 10,0.15c3.23333,0.43333 5.56667,1.45 7,3.05c1,1.1 1.53333,2.45 1.6,4.05c0.06667,1.6 -0.35,2.95 -1.25,4.05c-1.2,1.5 -3.25,2.5 -6.15,3c-2.3,0.46667 -4.96667,0.73333 -8,0.8c-0.7,0.03333 -3.38333,0.05 -8.05,0.05c-1.63333,0 -2.9,0.13333 -3.8,0.4c-0.66667,0.2 -1.13333,0.46667 -1.4,0.8c-0.4,0.56667 -0.43333,1.33333 -0.1,2.3c0.76667,2.23333 2.41667,3.91667 4.95,5.05c1.8,0.8 4.15,1.26667 7.05,1.4c6.1,0.3 11.33333,-0.75 15.7,-3.15c3.06667,-1.46667 5.38333,-2.98333 6.95,-4.55c2.3,-2.23333 3.45,-4.7 3.45,-7.4c0.03333,-2.13333 -0.9,-4.7 -2.8,-7.7l0.35,0.7c-1.43333,-2 -3.2,-3.68333 -5.3,-5.05c-2.13333,-1.4 -4.41667,-2.33333 -6.85,-2.8l-4.95,-0.95c-0.7,-0.36667 -1.56667,-0.56667 -2.6,-0.6c-0.16667,0 -1.1,0.05 -2.8,0.15c-2.43333,0.13333 -4.13333,-0.36667 -5.1,-1.5c-0.7,-0.86667 -1.01667,-2.11667 -0.95,-3.75c0.06667,-1.56667 0.43333,-2.68333 1.1,-3.35c0.8,-0.8 2.31667,-1.23333 4.55,-1.3c7.66667,-0.16667 13.71667,-1.73333 18.15,-4.7c0.86667,-0.53333 1.51667,-1.15 1.95,-1.85c0.53333,-0.83333 0.65,-1.63333 0.35,-2.4c-0.4,-1 -1.46667,-1.6 -3.2,-1.8c-1.1,-0.13333 -2.76667,-0.13333 -5,0c-8.86667,0.7 -17.6,2.2 -26.2,4.5z" fill="#000000"/><path d="M650.1755,345.93051c0.3,0.76667 0.18333,1.56667 -0.35,2.4c-0.43333,0.7 -1.08333,1.31667 -1.95,1.85c-4.43333,2.96667 -10.48333,4.53333 -18.15,4.7c-2.23333,0.06667 -3.75,0.5 -4.55,1.3c-0.66667,0.66667 -1.03333,1.78333 -1.1,3.35c-0.06667,1.63333 0.25,2.88333 0.95,3.75c0.96667,1.13333 2.66667,1.63333 5.1,1.5c1.7,-0.1 2.63333,-0.15 2.8,-0.15c1.03333,0.03333 1.9,0.23333 2.6,0.6l4.95,0.95c2.43333,0.46667 4.71667,1.4 6.85,2.8c2.1,1.36667 3.86667,3.05 5.3,5.05l-0.35,-0.7c1.9,3 2.83333,5.56667 2.8,7.7c0,2.7 -1.15,5.16667 -3.45,7.4c-1.56667,1.56667 -3.88333,3.08333 -6.95,4.55c-4.36667,2.4 -9.6,3.45 -15.7,3.15c-2.9,-0.13333 -5.25,-0.6 -7.05,-1.4c-2.53333,-1.13333 -4.18333,-2.81667 -4.95,-5.05c-0.33333,-0.96667 -0.3,-1.73333 0.1,-2.3c0.26667,-0.33333 0.73333,-0.6 1.4,-0.8c0.9,-0.26667 2.16667,-0.4 3.8,-0.4c4.66667,0 7.35,-0.01667 8.05,-0.05c3.03333,-0.06667 5.7,-0.33333 8,-0.8c2.9,-0.5 4.95,-1.5 6.15,-3c0.9,-1.1 1.31667,-2.45 1.25,-4.05c-0.06667,-1.6 -0.6,-2.95 -1.6,-4.05c-1.43333,-1.6 -3.76667,-2.61667 -7,-3.05c-2.56667,-0.33333 -5.9,-0.38333 -10,-0.15c-5.36667,0.33333 -8.71667,0.48333 -10.05,0.45c-1.23333,-7.4 -1.66667,-15.01667 -1.3,-22.85c8.6,-2.3 17.33333,-3.8 26.2,-4.5c2.23333,-0.13333 3.9,-0.13333 5,0c1.73333,0.2 2.8,0.8 3.2,1.8z" fill="#ffffff"/></g></g></svg>