<svg version="1.1" xmlns="http://www.w3.org/2000/svg" xmlns:xlink="http://www.w3.org/1999/xlink" width="22.79706" height="52.69923" viewBox="0,0,22.79706,52.69923"><g transform="translate(-616.55799,-345.70984)"><g data-paper-data="{&quot;isPaintingLayer&quot;:true}" fill-rule="nonzero" stroke="none" stroke-width="1" stroke-linecap="round" stroke-linejoin="miter" stroke-miterlimit="4" stroke-dasharray="" stroke-dashoffset="0" style="mix-blend-mode: normal"><path d="M633.95799,379.56201c1.56667,1.1 2.66667,2.51667 3.3,4.25c0.63333,1.86667 0.6,4.33333 -0.1,7.4c-0.63333,2.53333 -1.53333,4.28333 -2.7,5.25c-1.1,1 -2.75,1.6 -4.95,1.8c-2.73333,0.33333 -5.06667,0.1 -7,-0.7c-2.13333,-0.9 -3.73333,-2.4 -4.8,-4.5c-0.76667,-1.66667 -1.15,-3.66667 -1.15,-6c0,-2.43333 0.46667,-4.33333 1.4,-5.7c0.66667,-0.96667 1.6,-1.8 2.8,-2.5c1.1,-0.63333 2.15,-1.06667 3.15,-1.3c1.46667,-0.33333 3.11667,-0.35 4.95,-0.05c1.93333,0.36667 3.63333,1.05 5.1,2.05M624.90799,382.51201c-0.53333,0.33333 -0.95,0.56667 -1.25,0.7c-0.2,0.1 -0.48333,0.25 -0.85,0.45c-0.33333,0.2 -0.58333,0.41667 -0.75,0.65c-0.16667,0.26667 -0.26667,0.63333 -0.3,1.1c-0.16667,1.5 -0.18333,2.75 -0.05,3.75c0.16667,0.8 0.36667,1.43333 0.6,1.9c0.33333,0.53333 0.76667,1 1.3,1.4c0.6,0.43333 1.21667,0.7 1.85,0.8c0.7,0.13333 1.53333,0.16667 2.5,0.1c0.86667,-0.1 1.68333,-0.23333 2.45,-0.4c0.33333,-0.06667 0.56667,-0.15 0.7,-0.25c0.16667,-0.06667 0.33333,-0.26667 0.5,-0.6c0.66667,-1.2 1.01667,-2.86667 1.05,-5c0.06667,-0.8 0,-1.4 -0.2,-1.8c-0.2,-0.5 -0.6,-0.96667 -1.2,-1.4c-0.7,-0.53333 -1.33333,-0.91667 -1.9,-1.15c-0.6,-0.2 -1.56667,-0.33333 -2.9,-0.4c-0.7,0 -1.21667,0.05 -1.55,0.15M636.95799,363.51201c-1.66667,1.93333 -4.03333,3.2 -7.1,3.8c-1.5,0.13333 -2.98333,-0.01667 -4.45,-0.45c-1.46667,-0.46667 -2.78333,-1.16667 -3.95,-2.1c-1.6,-1.3 -2.78333,-2.96667 -3.55,-5c-0.73333,-2.03333 -0.88333,-4.05 -0.45,-6.05c0.36667,-1.56667 1.08333,-3.01667 2.15,-4.35c1.06667,-1.3 2.33333,-2.28333 3.8,-2.95l-0.3,0.15c2.56667,-0.93333 5.1,-1.1 7.6,-0.5c2.7,0.63333 4.83333,2 6.4,4.1c1.23333,1.63333 1.96667,3.5 2.2,5.6c0.13333,1.4 -0.01667,2.78333 -0.45,4.15c-0.36667,1.36667 -1,2.56667 -1.9,3.6M626.45799,350.86201c-1,0.2 -1.75,0.48333 -2.25,0.85c-0.4,0.3 -0.75,0.76667 -1.05,1.4c-0.56667,1.03333 -0.85,2.06667 -0.85,3.1c-0.03333,0.93333 0.21667,1.86667 0.75,2.8c0.5,0.86667 1.15,1.58333 1.95,2.15c0.96667,0.66667 2.03333,1.03333 3.2,1.1c1.2,0.1 2.3,-0.11667 3.3,-0.65c0.93333,-0.5 1.66667,-1.23333 2.2,-2.2c0.5,-1.03333 0.7,-2.06667 0.6,-3.1c-0.06667,-0.5 -0.26667,-1.18333 -0.6,-2.05c-0.23333,-0.6 -0.5,-1.08333 -0.8,-1.45c-0.33333,-0.43333 -1.03333,-0.88333 -2.1,-1.35c-0.9,-0.4 -1.66667,-0.65 -2.3,-0.75c-0.6,-0.03333 -1.28333,0.01667 -2.05,0.15z" fill="#000000"/><path d="M626.44799,382.37201c1.33333,0.06667 2.3,0.2 2.9,0.4c0.56667,0.23333 1.2,0.61667 1.9,1.15c0.6,0.43333 1,0.9 1.2,1.4c0.2,0.4 0.26667,1 0.2,1.8c-0.03333,2.13333 -0.38333,3.8 -1.05,5c-0.16667,0.33333 -0.33333,0.53333 -0.5,0.6c-0.13333,0.1 -0.36667,0.18333 -0.7,0.25c-0.76667,0.16667 -1.58333,0.3 -2.45,0.4c-0.96667,0.06667 -1.8,0.03333 -2.5,-0.1c-0.63333,-0.1 -1.25,-0.36667 -1.85,-0.8c-0.53333,-0.4 -0.96667,-0.86667 -1.3,-1.4c-0.23333,-0.46667 -0.43333,-1.1 -0.6,-1.9c-0.13333,-1 -0.11667,-2.25 0.05,-3.75c0.03333,-0.46667 0.13333,-0.83333 0.3,-1.1c0.16667,-0.23333 0.41667,-0.45 0.75,-0.65c0.36667,-0.2 0.65,-0.35 0.85,-0.45c0.3,-0.13333 0.71667,-0.36667 1.25,-0.7c0.33333,-0.1 0.85,-0.15 1.55,-0.15M632.89799,352.82201c0.3,0.36667 0.56667,0.85 0.8,1.45c0.33333,0.86667 0.53333,1.55 0.6,2.05c0.1,1.03333 -0.1,2.06667 -0.6,3.1c-0.53333,0.96667 -1.26667,1.7 -2.2,2.2c-1,0.53333 -2.1,0.75 -3.3,0.65c-1.16667,-0.06667 -2.23333,-0.43333 -3.2,-1.1c-0.8,-0.56667 -1.45,-1.28333 -1.95,-2.15c-0.53333,-0.93333 -0.78333,-1.86667 -0.75,-2.8c0,-1.03333 0.28333,-2.06667 0.85,-3.1c0.3,-0.63333 0.65,-1.1 1.05,-1.4c0.5,-0.36667 1.25,-0.65 2.25,-0.85c0.76667,-0.13333 1.45,-0.18333 2.05,-0.15c0.63333,0.1 1.4,0.35 2.3,0.75c1.06667,0.46667 1.76667,0.91667 2.1,1.35z" fill="#ffffff"/></g></g></svg>