<svg version="1.1" xmlns="http://www.w3.org/2000/svg" xmlns:xlink="http://www.w3.org/1999/xlink" width="28.95215" height="32.90543" viewBox="0,0,28.95215,32.90543"><g transform="translate(-625.53785,-371.92527)"><g data-paper-data="{&quot;isPaintingLayer&quot;:true}" fill-rule="nonzero" stroke="none" stroke-width="1" stroke-linecap="round" stroke-linejoin="miter" stroke-miterlimit="4" stroke-dasharray="" stroke-dashoffset="0" style="mix-blend-mode: normal"><path d="M652.24,391.17853c-1.53333,2.93333 -3.51667,5.5 -5.95,7.7c-2.23333,2.03333 -4.68333,3.65 -7.35,4.85c-2.9,1.3 -5.88333,1.45 -8.95,0.45c-3.03333,-0.96667 -4.51667,-3.03333 -4.45,-6.2c0.03333,-0.76667 0.15,-1.53333 0.35,-2.3c2.53333,-1.93333 4.7,-4.2 6.5,-6.8c0.66667,-0.96667 1.11667,-2.05 1.35,-3.25c0.56667,-3.06667 1.66667,-5.91667 3.3,-8.55c1.8,-2.8 4.3,-4.5 7.5,-5.1c2.16667,-0.23333 4.1,0.3 5.8,1.6c2.76667,2.13333 4.15,4.96667 4.15,8.5c0,3.26667 -0.75,6.3 -2.25,9.1M643.34,379.42853c-2.4,2.33333 -3.71667,5.18333 -3.95,8.55c-0.06667,0.86667 -0.3,1.7 -0.7,2.5c-1.6,3.16667 -3.71667,5.95 -6.35,8.35c2.9,0.1 5.45,-0.76667 7.65,-2.6c0.66667,-0.6 1.36667,-1.16667 2.1,-1.7c2.7,-2.1 4.58333,-4.75 5.65,-7.95c0.86667,-2.6 0.81667,-5.13333 -0.15,-7.6c-1.46667,-0.93333 -2.88333,-0.78333 -4.25,0.45z" fill="#000000"/><path d="M642.09,394.52853c-0.73333,0.53333 -1.43333,1.1 -2.1,1.7c-2.2,1.83333 -4.75,2.7 -7.65,2.6c2.63333,-2.4 4.75,-5.18333 6.35,-8.35c0.4,-0.8 0.63333,-1.63333 0.7,-2.5c0.23333,-3.36667 1.55,-6.21667 3.95,-8.55c1.36667,-1.23333 2.78333,-1.38333 4.25,-0.45c0.96667,2.46667 1.01667,5 0.15,7.6c-1.06667,3.2 -2.95,5.85 -5.65,7.95z" fill="#ffffff"/></g></g></svg>