<svg version="1.1" xmlns="http://www.w3.org/2000/svg" xmlns:xlink="http://www.w3.org/1999/xlink" width="40.22872" height="65.80987" viewBox="0,0,40.22872,65.80987"><g transform="translate(-608.09478,-337.67565)"><g data-paper-data="{&quot;isPaintingLayer&quot;:true}" fill-rule="nonzero" stroke="none" stroke-width="1" stroke-linecap="butt" stroke-linejoin="miter" stroke-miterlimit="10" stroke-dasharray="" stroke-dashoffset="0" style="mix-blend-mode: normal"><path d="M629.55811,342.73784c0.06667,0.73333 0.01667,1.43333 -0.15,2.1c-0.16667,0.63333 -0.26667,1.18333 -0.3,1.65c-0.13333,2.93333 -0.26667,5.88333 -0.4,8.85c0,0.23333 0,0.5 0,0.8c-0.26667,5.13333 -0.36667,10.21667 -0.3,15.25c0,0.16667 -0.03333,0.35 -0.1,0.55c-0.06667,0.16667 -0.1,0.35 -0.1,0.55c-0.1,2.03333 -0.21667,4.08333 -0.35,6.15c0,0.26667 -0.05,0.53333 -0.15,0.8v1c5.73333,-0.4 11.38333,-0.28333 16.95,0.35c1.06667,0.1 1.76667,0.66667 2.1,1.7c0.23333,0.7 0.38333,1.41667 0.45,2.15c0.1,1.56667 0.2,3.08333 0.3,4.55c0.13333,2.2 0.31667,4.51667 0.55,6.95c0.06667,0.7 0.15,1.5 0.25,2.4c0.06667,0.73333 -0.08333,1.45 -0.45,2.15c-0.2,0.33333 -0.45,0.61667 -0.75,0.85c-0.5,0.43333 -1.03333,0.8 -1.6,1.1c-1.16667,0.5 -2.45,0.76667 -3.85,0.8c-6.46667,-0.8 -12.9,-0.88333 -19.3,-0.25c-3.93333,0.53333 -7.83333,0.35 -11.7,-0.55c-0.6,-0.66667 -0.96667,-1.38333 -1.1,-2.15c-0.2,-1.33333 -0.31667,-2.66667 -0.35,-4c-0.03333,-1.8 -0.13333,-3.56667 -0.3,-5.3c-0.03333,-0.4 -0.06667,-0.78333 -0.1,-1.15c-0.06667,-1.23333 -0.11667,-2.46667 -0.15,-3.7c-0.03333,-1.13333 -0.06667,-2.26667 -0.1,-3.4c-0.06667,-2.53333 -0.16667,-5.06667 -0.3,-7.6c-0.23333,-4.5 -0.21667,-9 0.05,-13.5c0.1,-1.66667 0.28333,-3.33333 0.55,-5c0.1,-0.73333 0.15,-1.45 0.15,-2.15c0,-4.26667 0.18333,-8.55 0.55,-12.85c0,-0.16667 0.01667,-0.33333 0.05,-0.5c0.26667,-0.96667 0.93333,-1.58333 2,-1.85c1.36667,-0.06667 2.73333,-0.11667 4.1,-0.15c2.13333,-0.26667 4.21667,-0.71667 6.25,-1.35c2.06667,-0.53333 4.05,-0.38333 5.95,0.45c0.8,0.33333 1.3,0.96667 1.5,1.9c0.03333,0.8 0.08333,1.6 0.15,2.4M613.35811,345.13784c-0.03333,1.76667 0.08333,3.46667 0.35,5.1c0.03333,0.16667 0.05,0.35 0.05,0.55c-0.23333,3.13333 -0.33333,6.25 -0.3,9.35c0.03333,4 0.2,8 0.5,12c0.06667,0.86667 0.08333,1.78333 0.05,2.75c-0.1,2.76667 -0.05,5.61667 0.15,8.55c0.06667,0.7 0.13333,1.41667 0.2,2.15c0.36667,3.9 0.53333,7.8 0.5,11.7l27.15,-0.55l-0.45,-10.05c-3.1,0.06667 -6.18333,0.1 -9.25,0.1c-3.4,0.03333 -6.7,-0.36667 -9.9,-1.2c-0.06667,-0.13333 -0.1,-0.25 -0.1,-0.35c-0.13333,-0.9 -0.25,-1.8 -0.35,-2.7c-0.2,-1.5 -0.18333,-2.91667 0.05,-4.25c0.06667,-0.36667 0.11667,-0.73333 0.15,-1.1c0.13333,-2.4 0.23333,-4.8 0.3,-7.2c0.1,-3.7 0.2,-7.4 0.3,-11.1c0.1,-3.7 0.26667,-7.41667 0.5,-11.15c0.03333,-0.66667 0.11667,-1.36667 0.25,-2.1c0.1,-0.6 -0.05,-1.05 -0.45,-1.35z" fill="#000000"/><path d="M623.25811,347.73784c-0.23333,3.73333 -0.4,7.45 -0.5,11.15c-0.1,3.7 -0.2,7.4 -0.3,11.1c-0.06667,2.4 -0.16667,4.8 -0.3,7.2c-0.03333,0.36667 -0.08333,0.73333 -0.15,1.1c-0.23333,1.33333 -0.25,2.75 -0.05,4.25c0.1,0.9 0.21667,1.8 0.35,2.7c0,0.1 0.03333,0.21667 0.1,0.35c3.2,0.83333 6.5,1.23333 9.9,1.2c3.06667,0 6.15,-0.03333 9.25,-0.1l0.45,10.05l-27.15,0.55c0.03333,-3.9 -0.13333,-7.8 -0.5,-11.7c-0.06667,-0.73333 -0.13333,-1.45 -0.2,-2.15c-0.2,-2.93333 -0.25,-5.78333 -0.15,-8.55c0.03333,-0.96667 0.01667,-1.88333 -0.05,-2.75c-0.3,-4 -0.46667,-8 -0.5,-12c-0.03333,-3.1 0.06667,-6.21667 0.3,-9.35c0,-0.2 -0.01667,-0.38333 -0.05,-0.55c-0.26667,-1.63333 -0.38333,-3.33333 -0.35,-5.1l9.7,-0.85c0.4,0.3 0.55,0.75 0.45,1.35c-0.13333,0.73333 -0.21667,1.43333 -0.25,2.1z" fill="#ffffff"/></g></g></svg>