<svg version="1.1" xmlns="http://www.w3.org/2000/svg" xmlns:xlink="http://www.w3.org/1999/xlink" width="137.58935" height="140.30426" viewBox="0,0,137.58935,140.30426"><g transform="translate(-571.20532,-289.84787)"><g data-paper-data="{&quot;isPaintingLayer&quot;:true}" fill-rule="nonzero" stroke="none" stroke-width="1" stroke-linecap="butt" stroke-linejoin="miter" stroke-miterlimit="10" stroke-dasharray="" stroke-dashoffset="0" style="mix-blend-mode: normal"><g><path d="M621.53561,385.90213c-1.2,0.66667 -2.46667,1.43333 -3.8,2.3c-0.26667,0.16667 -0.53333,0.35 -0.8,0.55c0.7,-0.56667 1.48333,-1.13333 2.35,-1.7c0.66667,-0.4 1.31667,-0.78333 1.95,-1.15c0.1,0 0.2,0 0.3,0M604.83561,344.00213c18.16667,0.63333 27.68333,0.98333 28.55,1.05c1.1,0.06667 2.08333,-0.01667 2.95,-0.25c1.9,-0.46667 2.83333,-1.56667 2.8,-3.3c0,-0.33333 -0.06667,-0.66667 -0.2,-1c0.46667,0.83333 0.7,1.55 0.7,2.15c0.06667,1.66667 -0.8,2.71667 -2.6,3.15c-0.86667,0.2 -1.81667,0.28333 -2.85,0.25c-0.83333,-0.03333 -9.88333,-0.38333 -27.15,-1.05c-6.36667,-0.26667 -11.23333,-0.5 -14.6,-0.7c-1.66667,0.36667 -4.26667,0.73333 -7.8,1.1c-1.16667,6.76667 -1.56667,13.51667 -1.2,20.25c1.36667,4.86667 2.68333,8.15 3.95,9.85c1.33333,1.83333 3.01667,2.76667 5.05,2.8c1.7,0.06667 3.01667,0.11667 3.95,0.15c1.76667,0.03333 3.35,0.06667 4.75,0.1c1.43333,0.06667 3.68333,0.11667 6.75,0.15c2.96667,0.03333 12.7,0.13333 29.2,0.3c0.3,-0.03333 0.78333,0 1.45,0.1c0.26667,0.1 0.53333,0.21667 0.8,0.35v0.05c0.33333,0.23333 0.5,0.81667 0.5,1.75c0,0.56667 -0.3,1.25 -0.9,2.05c0.23333,-0.43333 0.35,-0.85 0.35,-1.25c0,-0.96667 -0.16667,-1.58333 -0.5,-1.85v-0.05c-0.3,-0.13333 -0.56667,-0.23333 -0.8,-0.3c-0.7,-0.1 -1.23333,-0.13333 -1.6,-0.1c-17.3,-0.2 -27.51667,-0.31667 -30.65,-0.35c-3.2,-0.06667 -5.56667,-0.13333 -7.1,-0.2c-1.5,0 -3.16667,-0.03333 -5,-0.1c-0.93333,-0.03333 -2.3,-0.08333 -4.1,-0.15c-2.16667,-0.03333 -3.95,-1 -5.35,-2.9c-1.33333,-1.86667 -2.7,-5.33333 -4.1,-10.4c-0.4,-7.1 0.01667,-14.21667 1.25,-21.35c3.66667,-0.3 6.4,-0.63333 8.2,-1c3.5,0.16667 8.6,0.4 15.3,0.7M637.78561,300.75213c-1.13333,0.03333 -4.65,2.7 -10.55,8c-5.16667,4.53333 -8.83333,7.93333 -11,10.2c-0.96667,-0.83333 -1.66667,-1.48333 -2.1,-1.95c2.23333,-2.4 6.2,-6.11667 11.9,-11.15c6.23333,-5.53333 9.95,-8.31667 11.15,-8.35c1.03333,-0.13333 9.73333,6.16667 26.1,18.9c0.6,0.3 1.33333,0.91667 2.2,1.85c0.8,0.5 1.65,1.18333 2.55,2.05c1.9,1.5 4.2,3.43333 6.9,5.8c-1.5,-1.16667 -2.7,-2.08333 -3.6,-2.75c5.66667,4.8 11.53333,9.68333 17.6,14.65c3.16667,3.1 5.68333,6.25 7.55,9.45c2.73333,4.06667 4.1,10.71667 4.1,19.95c-0.76667,9.03333 -8.43333,18.38333 -23,28.05c-13.63333,9.8 -23.83333,16.78333 -30.6,20.95c-7,4 -11.06667,6.1 -12.2,6.3c-1,0.03333 -4.11667,-3.43333 -9.35,-10.4c-5.56667,-7.13333 -8.86667,-11.43333 -9.9,-12.9c0.66667,-0.33333 1.36667,-0.68333 2.1,-1.05c1.26667,1.76667 4.28333,5.65 9.05,11.65c4.93333,6.63333 7.88333,9.93333 8.85,9.9c1.06667,-0.13333 4.93333,-2.13333 11.6,-6c6.46667,-3.93333 16.18333,-10.56667 29.15,-19.9c13.86667,-9.23333 21.16667,-18.13333 21.9,-26.7c0,-8.76667 -1.3,-15.11667 -3.9,-19.05c-1.8,-3.03333 -4.2,-6.01667 -7.2,-8.95c-5.76667,-4.7 -11.36667,-9.33333 -16.8,-13.9c0.86667,0.6 2.01667,1.46667 3.45,2.6c-2.56667,-2.23333 -4.76667,-4.06667 -6.6,-5.5c-0.86667,-0.83333 -1.66667,-1.5 -2.4,-2c-0.8,-0.86667 -1.5,-1.45 -2.1,-1.75c-15.56667,-12.13333 -23.85,-18.13333 -24.85,-18z" fill="#ffffff"/><path d="M686.03561,326.95213c6,4.46667 11.11667,9.71667 15.35,15.75c6.1,8.03333 8.43333,16.18333 7,24.45c-2.1,9.66667 -8.53333,19.2 -19.3,28.6c-1.83333,3.43333 -10.65,10 -26.45,19.7c-15.3,9.76667 -24.45,14.66667 -27.45,14.7c-2.7,-0.13333 -5.05,-0.96667 -7.05,-2.5c-1.8,-1.53333 -4.8,-5.63333 -9,-12.3c-4.53333,-6.76667 -7.76667,-11.76667 -9.7,-15c-1.73333,-3.2 0.76667,-7.06667 7.5,-11.6c0.26667,-0.2 0.53333,-0.38333 0.8,-0.55c1.33333,-0.86667 2.6,-1.63333 3.8,-2.3c-0.1,0 -0.2,0 -0.3,0c-2.3,-0.23333 -4.85,-0.43333 -7.65,-0.6c-2.73333,-0.1 -7.01667,-0.01667 -12.85,0.25c-5.86667,0.26667 -9.01667,0.4 -9.45,0.4c-0.66667,-0.06667 -2.13333,-0.01667 -4.4,0.15c-2.13333,-0.16667 -4.08333,-0.65 -5.85,-1.45c-5.33333,-2.66667 -8.55,-8.81667 -9.65,-18.45c-0.53333,-8.13333 0.11667,-16.33333 1.95,-24.6c3.6,-3.03333 7.91667,-4.76667 12.95,-5.2c5.83333,0.03333 10.11667,0.01667 12.85,-0.05c5.1,-0.23333 9.15,-0.35 12.15,-0.35c4.73333,-0.06667 8.96667,0.15 12.7,0.65c0.1,-0.06667 0.21667,-0.13333 0.35,-0.2c0.16667,0 0.3,-0.01667 0.4,-0.05c-0.63333,-0.63333 -2.21667,-1.76667 -4.75,-3.4c-3.2,-2.03333 -5.4,-3.51667 -6.6,-4.45c-0.6,-0.46667 -1.18333,-0.95 -1.75,-1.45c-4.2,-3.73333 -6.1,-7.28333 -5.7,-10.65c0.53333,-3.13333 5.93333,-8.53333 16.2,-16.2c3.23333,-2.5 6.63333,-4.98333 10.2,-7.45c3.1,-2.03333 4.68333,-3.01667 4.75,-2.95c2.06667,-0.13333 7.15,2.86667 15.25,9c4.1,3 8.13333,6.18333 12.1,9.55c2.83333,2.53333 7.6,6.35 14.3,11.45c2.8,2.3 5.23333,4.66667 7.3,7.1M663.28561,316.40213c-16.36667,-12.73333 -25.06667,-19.03333 -26.1,-18.9c-1.2,0.03333 -4.91667,2.81667 -11.15,8.35c-5.7,5.03333 -9.66667,8.75 -11.9,11.15c0.43333,0.46667 1.13333,1.11667 2.1,1.95c2.4,2.06667 6.4,5.38333 12,9.95c6.3,5.23333 9.86667,9.1 10.7,11.6c0.13333,0.33333 0.2,0.66667 0.2,1c0.03333,1.73333 -0.9,2.83333 -2.8,3.3c-0.86667,0.23333 -1.85,0.31667 -2.95,0.25c-0.86667,-0.06667 -10.38333,-0.41667 -28.55,-1.05c-6.7,-0.3 -11.8,-0.53333 -15.3,-0.7c-1.8,0.36667 -4.53333,0.7 -8.2,1c-1.23333,7.13333 -1.65,14.25 -1.25,21.35c1.4,5.06667 2.76667,8.53333 4.1,10.4c1.4,1.9 3.18333,2.86667 5.35,2.9c1.8,0.06667 3.16667,0.11667 4.1,0.15c1.83333,0.06667 3.5,0.1 5,0.1c1.53333,0.06667 3.9,0.13333 7.1,0.2c3.13333,0.03333 13.35,0.15 30.65,0.35c0.36667,-0.03333 0.9,0 1.6,0.1c0.23333,0.06667 0.5,0.16667 0.8,0.3v0.05c0.33333,0.26667 0.5,0.88333 0.5,1.85c0,0.4 -0.11667,0.81667 -0.35,1.25c-1,1.9 -4.06667,4.5 -9.2,7.8c-3.66667,2.4 -7.7,4.81667 -12.1,7.25c-0.73333,0.36667 -1.43333,0.71667 -2.1,1.05c1.03333,1.46667 4.33333,5.76667 9.9,12.9c5.23333,6.96667 8.35,10.43333 9.35,10.4c1.13333,-0.2 5.2,-2.3 12.2,-6.3c6.76667,-4.16667 16.96667,-11.15 30.6,-20.95c14.56667,-9.66667 22.23333,-19.01667 23,-28.05c0,-9.23333 -1.36667,-15.88333 -4.1,-19.95c-1.86667,-3.2 -4.38333,-6.35 -7.55,-9.45c-6.06667,-4.96667 -11.93333,-9.85 -17.6,-14.65c0.9,0.66667 2.1,1.58333 3.6,2.75c-2.7,-2.36667 -5,-4.3 -6.9,-5.8c-0.9,-0.86667 -1.75,-1.55 -2.55,-2.05c-0.86667,-0.93333 -1.6,-1.55 -2.2,-1.85z" fill="#201e31"/><path d="M664.73561,320.50213c0.73333,0.5 1.53333,1.16667 2.4,2c1.83333,1.43333 4.03333,3.26667 6.6,5.5c-1.43333,-1.13333 -2.58333,-2 -3.45,-2.6c5.43333,4.56667 11.03333,9.2 16.8,13.9c3,2.93333 5.4,5.91667 7.2,8.95c2.6,3.93333 3.9,10.28333 3.9,19.05c-0.73333,8.56667 -8.03333,17.46667 -21.9,26.7c-12.96667,9.33333 -22.68333,15.96667 -29.15,19.9c-6.66667,3.86667 -10.53333,5.86667 -11.6,6c-0.96667,0.03333 -3.91667,-3.26667 -8.85,-9.9c-4.76667,-6 -7.78333,-9.88333 -9.05,-11.65c4.4,-2.43333 8.43333,-4.85 12.1,-7.25c5.13333,-3.3 8.2,-5.9 9.2,-7.8c0.6,-0.8 0.9,-1.48333 0.9,-2.05c0,-0.93333 -0.16667,-1.51667 -0.5,-1.75v-0.05c-0.26667,-0.13333 -0.53333,-0.25 -0.8,-0.35c-0.66667,-0.1 -1.15,-0.13333 -1.45,-0.1c-16.5,-0.16667 -26.23333,-0.26667 -29.2,-0.3c-3.06667,-0.03333 -5.31667,-0.08333 -6.75,-0.15c-1.4,-0.03333 -2.98333,-0.06667 -4.75,-0.1c-0.93333,-0.03333 -2.25,-0.08333 -3.95,-0.15c-2.03333,-0.03333 -3.71667,-0.96667 -5.05,-2.8c-1.26667,-1.7 -2.58333,-4.98333 -3.95,-9.85c-0.36667,-6.73333 0.03333,-13.48333 1.2,-20.25c3.53333,-0.36667 6.13333,-0.73333 7.8,-1.1c3.36667,0.2 8.23333,0.43333 14.6,0.7c17.26667,0.66667 26.31667,1.01667 27.15,1.05c1.03333,0.03333 1.98333,-0.05 2.85,-0.25c1.8,-0.43333 2.66667,-1.48333 2.6,-3.15c0,-0.6 -0.23333,-1.31667 -0.7,-2.15c-0.83333,-2.5 -4.4,-6.36667 -10.7,-11.6c-5.6,-4.56667 -9.6,-7.88333 -12,-9.95c2.16667,-2.26667 5.83333,-5.66667 11,-10.2c5.9,-5.3 9.41667,-7.96667 10.55,-8c1,-0.13333 9.28333,5.86667 24.85,18c0.6,0.3 1.3,0.88333 2.1,1.75M635.63561,377.50213l-0.05,0.05c0.1,0 0.21667,0 0.35,0z" fill="#b86977"/><path d="M635.63561,377.50213l0.3,0.05c-0.13333,0 -0.25,0 -0.35,0z" fill="#000000"/></g></g></g></svg>