<svg version="1.1" xmlns="http://www.w3.org/2000/svg" xmlns:xlink="http://www.w3.org/1999/xlink" width="401.01854" height="563.0301" viewBox="0,0,401.01854,563.0301"><g transform="translate(-444.86693,-157.91787)"><g data-paper-data="{&quot;isPaintingLayer&quot;:true}" fill-rule="nonzero" stroke="none" stroke-width="1" stroke-linecap="butt" stroke-linejoin="miter" stroke-miterlimit="10" stroke-dasharray="" stroke-dashoffset="0" style="mix-blend-mode: normal"><path d="M557.66833,448.99181c-1.11439,-6.4388 -0.89623,-12.12078 0.65448,-17.04595c1.04606,-3.22924 1.98299,-6.48796 2.81076,-9.77615c2.78675,-10.63766 6.17804,-20.86777 10.17389,-30.69035c-0.01471,-0.06505 -0.04577,-0.12687 -0.09318,-0.18548c-4.02111,-4.338 -7.35779,-9.72792 -10.01004,-16.16974c0.9323,-2.22172 2.08492,-4.29996 3.45785,-6.23474c5.99873,-8.5183 13.61981,-15.98015 22.86324,-22.38553c2.649,-0.52141 4.96642,-0.62087 6.95226,-0.29838c11.59866,1.89532 22.22302,5.22233 31.87307,9.98103c-0.13833,1.35206 -0.17081,2.87013 -0.09743,4.55419c0.55934,12.59474 0.96415,25.18592 1.21445,37.77354c-1.7987,0.35404 -3.54796,0.85122 -5.24777,1.49153c-3.92616,1.52014 -8.14337,2.96169 -12.65163,4.32465c-3.26132,7.02832 -6.05095,14.40541 -8.36888,22.13127c-3.09657,10.32497 -5.50481,21.12591 -7.2247,32.40283c-0.09811,0.01931 -0.15984,0.04845 -0.18519,0.08741c-3.66815,4.32285 -10.0165,6.91424 -19.04505,7.77417c-0.01471,-0.06505 -0.04209,-0.11061 -0.08215,-0.1367c-5.9231,-1.7216 -10.94794,-4.758 -15.07452,-9.10921c-0.72979,-2.47205 -1.36961,-5.30152 -1.91945,-8.48839z" fill-opacity="0.99608" fill="#000000"/><path d="M601.72696,473.76601c-2.92684,14.51054 -8.00378,25.69492 -15.23081,33.55313c-5.40998,5.86697 -11.68942,10.43582 -18.83831,13.70656c-6.99824,3.24988 -15.64343,3.87635 -25.93556,1.87941c-5.95973,-1.16015 -10.99035,-3.36929 -15.09186,-6.62745c-8.15222,-6.43671 -13.70633,-15.50336 -16.6623,-27.19996c-1.45456,-5.79018 -2.41665,-12.15746 -2.88626,-19.10183c-0.44027,-6.94121 -0.11107,-14.68916 0.98761,-23.24383c1.28123,-6.9413 3.07285,-13.66089 5.37488,-20.15879c2.13734,-6.07085 4.80127,-11.38083 7.99177,-15.92994c6.44363,-9.12855 15.16916,-14.63877 26.17658,-16.53068c4.1713,-0.70015 8.8094,-0.49761 13.9143,0.60762c8.7839,1.94585 16.02491,5.5418 21.72303,10.78786c7.561,6.96611 13.16021,15.88937 16.79764,26.76976c1.8636,5.57475 2.99802,11.71965 3.40326,18.43471c0.46521,7.53691 -0.10945,15.22138 -1.72398,23.05341z" fill-opacity="0.99608" fill="#000000"/><path d="M677.97997,616.2c0.46678,3.13333 1.08164,6.28333 1.84457,9.45c0.98509,4.13333 0.7867,8 -0.59515,11.6c-2.12393,5.6 -3.13433,11.93333 -3.0312,19c-0.00087,0.1 0.01502,0.16667 0.04767,0.2c0.62119,0.53333 1.34206,0.96667 2.16262,1.3c5.01214,6.93333 10.62226,13.28333 16.83036,19.05c3.85568,3.56667 7.94397,6.9 12.26486,10c3.20795,2.3 6.39943,4.6 9.57443,6.9c8.57532,6.26667 17.8658,11.73333 27.87142,16.4c1.34497,0.63333 2.74108,1.06667 4.18835,1.3c5.03148,0.93333 10.20183,1.05 15.51105,0.35c13.28908,-1.7 26.23202,-3.36667 38.82881,-5c-0.00087,0.1 -0.0016,0.18333 -0.00218,0.25c-10.28371,4.56667 -21.04023,8.58333 -32.26957,12.05c-5.77965,1.76667 -12.58613,2.3 -20.41943,1.6c-1.9087,-0.2 -3.73345,-0.58333 -5.47426,-1.15c-11.13483,-3.6 -21.00696,-8.46667 -29.61638,-14.6c-8.64236,-6.13333 -16.76967,-12.78333 -24.38194,-19.95c-5.55455,-5.16667 -11.09264,-10.33333 -16.61425,-15.5c-1.8624,-1.73333 -3.85801,-3.3 -5.98682,-4.7c-0.78194,-4.76667 -0.60676,-9.75 0.52552,-14.95c2.88011,-13 3.16039,-26.26667 0.84085,-39.8c-1.0968,-6.43333 -2.06068,-13 -2.89165,-19.7c-1.50421,-12.6 -3.05783,-25.2 -4.66086,-37.8c1.78943,-1.23333 3.61108,-2.38333 5.46493,-3.45c0.06617,-0.03333 0.14866,-0.05 0.24748,-0.05c1.36711,9.43333 2.73364,18.93333 4.09959,28.5c1.79834,12.86667 3.67873,25.76667 5.64118,38.7z" fill-opacity="0.99608" fill="#2b2c40"/><path d="M726.75007,468.25c0.12653,0.6 0.23658,1.2 0.33017,1.8c1.60639,8.43333 3.14647,16.91667 4.62024,25.45c0.06588,0 0.13161,0.01667 0.1972,0.05c0.48972,0.5 0.99606,0.98333 1.51901,1.45c0.06588,0 0.14822,0 0.24704,0c5.98757,0.83333 11.65932,2 17.01525,3.5c0.34403,2.1 0.47483,4.1 0.3924,6c-0.35192,6.36667 0.40556,12.05 2.27244,17.05c3.99029,10.8 11.45302,18.11667 22.38819,21.95c0.53585,2.76667 1.17139,5.43333 1.90662,8c3.326,11.43333 6.61805,22.98333 9.87614,34.65c3.19425,11.43333 6.45423,22.88333 9.77994,34.35c-0.00087,0.1 0.01516,0.15 0.0481,0.15c1.66912,1.23333 3.20533,2.6 4.60863,4.1c-0.00087,0.1 -0.0016,0.18333 -0.00218,0.25c-2.78962,-1.16667 -5.51278,-2.4 -8.16948,-3.7c-0.06559,-0.03333 -0.13132,-0.05 -0.1972,-0.05c-3.77325,-5.46667 -6.43275,-12.11667 -7.97849,-19.95c-1.23175,-6.06667 -2.57922,-12.08333 -4.04241,-18.05c-2.92725,-11.83333 -6.12019,-23.41667 -9.57882,-34.75c-9.40663,-5.36667 -16.77011,-12.73333 -22.09044,-22.1c-3.30892,-5.83333 -4.8736,-13.38333 -4.69404,-22.65c-5.74597,-2.1 -11.82451,-3.83333 -18.23564,-5.2c-0.09853,-0.03333 -0.18073,-0.05 -0.2466,-0.05c-1.66675,-9.06667 -2.95166,-18.48333 -3.85472,-28.25h0.14822c0.57547,2 1.48338,3.65 2.72372,4.95c0.03265,0.03333 0.09838,0.05 0.1972,0.05c0.87877,-2.56667 1.10254,-5.56667 0.67131,-9z" fill-opacity="0.99216" fill="#2b2c3f"/><path d="M492.63837,640.3c-1.98764,1.3 -3.95882,2.6 -5.91353,3.9c-2.31935,1.56667 -3.90485,3.96667 -4.75649,7.2c-0.92071,3.6 -1.5967,7.46667 -2.02798,11.6c-0.57407,5.4 0.44279,9.66667 3.05059,12.8c1.69509,2.03333 3.48987,3.96667 5.38434,5.8c7.51257,7.26667 16.4215,13.05 26.72676,17.35c3.34754,1.4 6.41308,3.03333 9.1966,4.9c0.91676,0.63333 1.75045,1.35 2.50107,2.15c-0.16469,0 -0.32924,-0.01667 -0.49364,-0.05c-12.89626,-1.8 -23.73203,-5.7 -32.50731,-11.7c-1.11323,-0.76667 -2.24337,-1.48333 -3.39042,-2.15c-8.19313,-4.76667 -14.65878,-11.21667 -19.39696,-19.35c0.00058,-0.06667 0.00131,-0.15 0.00218,-0.25c0.60851,-13.13333 3.25782,-24.21667 7.94793,-33.25c1.09046,-0.4 2.06665,-0.91667 2.92857,-1.55c8.32452,-6.53333 16.97553,-12.73333 25.95301,-18.6c2.8487,-1.83333 4.81516,-4.48333 5.89941,-7.95c3.62434,-11.46667 6.95441,-23.18333 9.99021,-35.15c1.50158,-6 2.87227,-12.1 4.11208,-18.3c0.62136,-3.26667 1.35684,-6.4 2.20644,-9.4c0.91722,-3.2 1.30583,-6.21667 1.16583,-9.05c0.77385,-1.86667 2.10214,-3.1 3.98487,-3.7c5.74759,-1.86667 10.1891,-5.05 13.32454,-9.55c6.17032,-8.8 9.43481,-20.55 9.79345,-35.25l0.00087,-0.1c8.37193,-0.63333 16.61284,-1.35 24.72271,-2.15h0.09882c1.95115,-12.23333 3.67333,-24.65 5.16653,-37.25c0.06588,0 0.09867,0.01667 0.09838,0.05c0.62537,3.83333 2.21483,6.65 4.76836,8.45c-2.13455,10.6 -4.00835,21.51667 -5.6214,32.75h-0.09882c-3.53489,1.2 -7.49348,1.88333 -11.87577,2.05c-4.84372,0.2 -8.96599,0.76667 -12.3668,1.7c-1.11009,6.43333 -2.31812,12.76667 -3.6241,19c-1.95853,9.3 -6.23509,16.23333 -12.82966,20.8c-2.94955,2.06667 -6.24204,3.8 -9.87749,5.2c-3.32964,11.66667 -6.28411,23.75 -8.86341,36.25c-1.27246,6.16667 -2.64315,12.26667 -4.11208,18.3c-1.84345,7.43333 -3.58852,14.91667 -5.23521,22.45c-0.27425,1.23333 -0.28442,2.4 -0.03049,3.5c-8.32481,6.56667 -16.99214,12.75 -26.00198,18.55z" fill-opacity="0.99608" fill="#2b2c3f"/><path d="M486.72484,644.2c1.95471,-1.3 3.92588,-2.6 5.91353,-3.9c9.00984,-5.8 17.67717,-11.98333 26.00198,-18.55c-0.25393,-1.1 -0.24376,-2.26667 0.03049,-3.5c1.64669,-7.53333 3.39176,-15.01667 5.23521,-22.45c1.46893,-6.03333 2.83962,-12.13333 4.11208,-18.3c2.57931,-12.5 5.53378,-24.58333 8.86341,-36.25c3.63545,-1.4 6.92794,-3.13333 9.87749,-5.2c6.59458,-4.56667 10.87113,-11.5 12.82966,-20.8c1.30598,-6.23333 2.51401,-12.56667 3.6241,-19c3.40081,-0.93333 7.52308,-1.5 12.3668,-1.7c4.38229,-0.16667 8.34088,-0.85 11.87577,-2.05h0.09882c1.61305,-11.23333 3.48685,-22.15 5.6214,-32.75c-2.55353,-1.8 -4.14298,-4.61667 -4.76836,-8.45c0.00029,-0.03333 -0.0325,-0.05 -0.09838,-0.05c1.76003,-9.2 3.32489,-18.68333 4.69459,-28.45c1.757,-12.63333 3.64823,-25.55 5.67368,-38.75c2.02284,-12.9 4.68246,-25.16667 7.97886,-36.8c1.66569,-5.93333 3.33065,-11.78333 4.99489,-17.55c1.69863,-5.93333 4.47421,-10.71667 8.32675,-14.35c3.85254,-3.63333 8.40759,-6.61667 13.66517,-8.95c5.05936,-2.26667 10.88639,-3.8 17.48109,-4.6c3.52821,-0.43333 7.05177,-0.33333 10.57069,0.3c9.24182,1.6 17.95081,3.86667 26.12697,6.8c10.80283,3.9 19.24626,10.18333 25.33027,18.85c-0.00087,0.1 0.01502,0.16667 0.04767,0.2c0.58651,0.73333 0.9838,0.5 1.19189,-0.7c0.03817,-0.6 0.1705,-0.66667 0.39701,-0.2c1.81552,3.33333 2.88281,7.48333 3.20186,12.45c0.28524,5.06667 0.41994,10.4 0.40408,16c-0.09253,14.4 0.37912,28.31667 1.41493,41.75c0.79989,10.26667 1.63359,20.43333 2.50111,30.5c1.13492,13.4 2.62135,26.15 4.45931,38.25c-0.00581,0.66667 -0.01162,1.33333 -0.01743,2c-0.00087,0.1 -0.0016,0.18333 -0.00218,0.25h-0.14822c0.43123,3.43333 0.20746,6.43333 -0.67131,9c-0.09882,0 -0.16455,-0.01667 -0.1972,-0.05c-1.24034,-1.3 -2.14825,-2.95 -2.72372,-4.95h-0.14822c0.90306,9.76667 2.18797,19.18333 3.85472,28.25c0.06588,0 0.14808,0.01667 0.2466,0.05c6.41113,1.36667 12.48967,3.1 18.23564,5.2c-0.17955,9.26667 1.38513,16.81667 4.69404,22.65c5.32033,9.36667 12.68381,16.73333 22.09044,22.1c3.45863,11.33333 6.65157,22.91667 9.57882,34.75c1.46319,5.96667 2.81066,11.98333 4.04241,18.05c1.54574,7.83333 4.20524,14.48333 7.97849,19.95c0.06588,0 0.13161,0.01667 0.1972,0.05c2.6567,1.3 5.37986,2.53333 8.16948,3.7c2.3498,2.5 4.7493,4.96667 7.1985,7.4c2.44949,2.4 4.94882,4.75 7.49799,7.05c7.81164,6.96667 13.49661,16.06667 17.05493,27.3c-1.47142,10.1 -4.33039,18.78333 -8.57691,26.05c-0.03352,0.06667 -0.05057,0.13333 -0.05115,0.2c-6.85547,4.26667 -13.98846,8.25 -21.39895,11.95c-0.06617,0.03333 -0.13219,0.05 -0.19807,0.05c0.00058,-0.06667 0.00131,-0.15 0.00218,-0.25c-12.59679,1.63333 -25.53973,3.3 -38.82881,5c-5.30922,0.7 -10.47957,0.58333 -15.51105,-0.35c-1.44727,-0.23333 -2.84338,-0.66667 -4.18835,-1.3c-10.00563,-4.66667 -19.2961,-10.13333 -27.87142,-16.4c-3.17501,-2.3 -6.36649,-4.6 -9.57443,-6.9c-4.32089,-3.1 -8.40918,-6.43333 -12.26486,-10c-6.2081,-5.76667 -11.81822,-12.11667 -16.83036,-19.05c-0.82056,-0.33333 -1.54144,-0.76667 -2.16262,-1.3c-0.03265,-0.03333 -0.04854,-0.1 -0.04767,-0.2c-0.10312,-7.06667 0.90728,-13.4 3.0312,-19c1.38185,-3.6 1.58023,-7.46667 0.59515,-11.6c-0.76294,-3.16667 -1.3778,-6.31667 -1.84457,-9.45c-1.96245,-12.93333 -3.84284,-25.83333 -5.64118,-38.7c-1.36595,-9.56667 -2.73248,-19.06667 -4.09959,-28.5c0.00058,-0.06667 0.01749,-0.11667 0.05071,-0.15c2.58083,-1.33333 4.39443,-3.45 5.44079,-6.35c0.00058,-0.06667 0.00131,-0.15 0.00218,-0.25c0.0865,-2.36667 0.18917,-4.7 0.30803,-7c-0.97219,-1.83333 -2.0939,-3.51667 -3.36515,-5.05c-0.03265,-0.03333 -0.04854,-0.1 -0.04767,-0.2c-6.06751,-3 -13.3814,-4.71667 -21.94167,-5.15c-4.5435,-0.23333 -9.48328,-0.35 -14.81934,-0.35c-1.64693,0 -3.21297,0.16667 -4.69811,0.5c-3.22293,3.2 -5.07449,7.78333 -5.55468,13.75c-0.00087,0.1 -0.0016,0.18333 -0.00218,0.25c2.96489,3.73333 6.72757,6.63333 11.28803,8.7c0.06559,0.03333 0.14779,0.05 0.2466,0.05c-1.07151,9.56667 -2.19548,19.48333 -3.37191,29.75c-1.49988,13.36667 -2.88492,26.78333 -4.1551,40.25c-0.25148,2.4 -0.33841,4.81667 -0.2608,7.25c0.04787,2.06667 0.311,4 0.7894,5.8c2.16925,8.1 4.3388,16.16667 6.50863,24.2c0.66964,2.53333 0.74377,5.36667 0.22239,8.5c-4.99482,6.2 -11.41026,11 -19.24634,14.4c-5.09172,2.2 -10.31519,4.4 -15.67042,6.6c-10.51137,4.23333 -21.34981,8.2 -32.5153,11.9c-10.86789,3.56667 -21.94813,6.93333 -33.24074,10.1c-2.13869,-0.26667 -4.52529,-0.43333 -7.1598,-0.5c-0.09882,0 -0.18116,0 -0.24704,0c-0.75062,-0.8 -1.58431,-1.51667 -2.50107,-2.15c-2.78352,-1.86667 -5.84905,-3.5 -9.1966,-4.9c-10.30527,-4.3 -19.21419,-10.08333 -26.72676,-17.35c-1.89447,-1.83333 -3.68925,-3.76667 -5.38434,-5.8c-2.60779,-3.13333 -3.62465,-7.4 -3.05059,-12.8c0.43128,-4.13333 1.10727,-8 2.02798,-11.6c0.85164,-3.23333 2.43713,-5.63333 4.75649,-7.2M636.21699,311.5c-7.70229,3.16667 -13.2004,8.53333 -16.49431,16.1c-1.74708,3.93333 -3.26577,8.11667 -4.55606,12.55c-3.39377,11.46667 -6.37944,23.35 -8.957,35.65c-2.57931,12.5 -4.81552,25.31667 -6.70863,38.45c-1.89515,13.36667 -3.57445,26.53333 -5.03791,39.5c0.68561,0.7 1.42092,1.36667 2.20593,2c8.04424,6.73333 18.01504,11.61667 29.9124,14.65c11.56855,2.96667 24.84666,4.41667 39.83432,4.35c3.82117,-0.03333 7.44602,-0.21667 10.87454,-0.55c13.35206,-1.36667 25.46392,-4.05 36.33558,-8.05c1.35484,-0.5 2.72542,-0.91667 4.11175,-1.25c2.04626,-0.46667 3.09588,-1.85 3.14886,-4.15c-1.66455,-13.1 -3.27969,-26.2 -4.84542,-39.3c-0.83068,-6.73333 -1.32906,-13.8 -1.49516,-21.2c-0.40272,-14.26667 -0.87145,-28.51667 -1.40622,-42.75c-0.2092,-6.23333 -0.40178,-12.48333 -0.57775,-18.75c-2.77115,-7.06667 -7.02114,-12.63333 -12.74997,-16.7c-0.06559,-0.03333 -0.13132,-0.05 -0.1972,-0.05c-3.95402,11.5 -5.36981,24.66667 -4.24738,39.5c0.53307,6.86667 1.19818,13.7 1.99534,20.5c0.27438,2.53333 0.41946,4.78333 0.43527,6.75c-3.29781,4.23333 -7.93391,7.06667 -13.90829,8.5c-9.70458,2.36667 -20.56323,2.98333 -32.57596,1.85c-3.3239,-0.33333 -6.53004,-0.95 -9.61843,-1.85c-2.82546,-0.83333 -5.55066,-1.83333 -8.17558,-3c-0.62467,-0.13333 -1.18289,-0.33333 -1.67464,-0.6c-0.03294,0 -0.04897,-0.05 -0.0481,-0.15c-0.09882,0 -0.18102,-0.01667 -0.2466,-0.05c-3.83669,-1.96667 -7.6897,-3.95 -11.55903,-5.95c-0.81691,-4.53333 -1.08771,-9.36667 -0.81242,-14.5c0.22958,-3.66667 0.60578,-7.15 1.12862,-10.45c0.97746,-6.33333 2.00448,-12.68333 3.08105,-19.05c1.07831,-6.56667 2.80915,-12.41667 5.19252,-17.55c2.48364,-5.3 5.02894,-10.11667 7.63591,-14.45M737.82834,535.05c0.03555,-0.3 0.10448,-0.65 0.20678,-1.05c-7.93083,2.93333 -15.63298,6.08333 -23.10644,9.45c-0.06617,0.03333 -0.13219,0.05 -0.19807,0.05c4.73184,1.3 9.99549,2.05 15.79094,2.25c0.06588,0 0.14822,0 0.24704,0c4.16421,-1.6 6.51746,-5.16667 7.05975,-10.7M783.05077,635.5c0.03352,-0.06667 0.05071,-0.15 0.05159,-0.25c-9.76133,5.1 -19.42472,10.3 -28.99017,15.6c-2.71404,1.5 -5.46072,2.96667 -8.24006,4.4c8.84266,-1.73333 17.91734,-3.63333 27.22404,-5.7c0.06617,-0.03333 0.14866,-0.05 0.24748,-0.05c3.59484,-4.3 6.83055,-8.96667 9.70712,-14M563.64027,532.25c2.3537,5.83333 5.57149,10.78333 9.65339,14.85c0.19589,0.2 0.39163,0.41667 0.58723,0.65c0.88934,0 1.79516,0 2.71744,0c0.06588,0 0.14822,0 0.24704,0c3.43956,-1.6 6.73249,-3.38333 9.8788,-5.35c0.03294,0 0.04984,-0.05 0.05071,-0.15c-8.64282,-2.3 -16.28863,-5.61667 -22.93742,-9.95c-0.06559,-0.03333 -0.13132,-0.05 -0.1972,-0.05M540.39278,642.95c2.23663,0.36667 4.31017,0.55 6.22061,0.55c-8.22897,-4.43333 -16.69026,-8.66667 -25.38385,-12.7c-0.06559,-0.03333 -0.13132,-0.05 -0.1972,-0.05c0.76904,2.46667 1.6379,4.81667 2.6066,7.05c0.03236,0.06667 0.04825,0.13333 0.04767,0.2c4.88811,2.26667 10.45683,3.91667 16.70617,4.95z" fill-opacity="0.99608" fill="#000000"/><path d="M546.61339,643.5c-1.91044,0 -3.98398,-0.18333 -6.22061,-0.55c-6.24934,-1.03333 -11.81806,-2.68333 -16.70617,-4.95c0.00058,-0.06667 -0.01531,-0.13333 -0.04767,-0.2c-0.9687,-2.23333 -1.83757,-4.58333 -2.6066,-7.05c0.06588,0 0.13161,0.01667 0.1972,0.05c8.6936,4.03333 17.15488,8.26667 25.38385,12.7z" fill="#2a2b3e"/><path d="M573.29366,547.1c-4.0819,-4.06667 -7.2997,-9.01667 -9.65339,-14.85c0.06588,0 0.13161,0.01667 0.1972,0.05c6.64879,4.33333 14.29459,7.65 22.93742,9.95c-0.00087,0.1 -0.01778,0.15 -0.05071,0.15c-3.14631,1.96667 -6.43924,3.75 -9.8788,5.35c-0.09882,0 -0.18116,0 -0.24704,0c-0.92228,0 -1.82809,0 -2.71744,0c-0.1956,-0.23333 -0.39134,-0.45 -0.58723,-0.65M783.10235,635.25c-0.00087,0.1 -0.01807,0.18333 -0.05159,0.25c-2.87658,5.03333 -6.11228,9.7 -9.70712,14c-0.09882,0 -0.18131,0.01667 -0.24748,0.05c-9.3067,2.06667 -18.38138,3.96667 -27.22404,5.7c2.77933,-1.43333 5.52602,-2.9 8.24006,-4.4c9.56544,-5.3 19.22883,-10.5 28.99017,-15.6M738.03512,534c-0.1023,0.4 -0.17123,0.75 -0.20678,1.05c-0.54229,5.53333 -2.89554,9.1 -7.05975,10.7c-0.09882,0 -0.18116,0 -0.24704,0c-5.79546,-0.2 -11.05911,-0.95 -15.79094,-2.25c0.06588,0 0.1319,-0.01667 0.19807,-0.05c7.47347,-3.36667 15.17561,-6.51667 23.10644,-9.45z" fill="#2b2c3f"/><path d="M619.72268,327.6c3.29391,-7.56667 8.79202,-12.93333 16.49431,-16.1c-2.60697,4.33333 -5.15227,9.15 -7.63591,14.45c-2.38337,5.13333 -4.11421,10.98333 -5.19252,17.55c-1.07657,6.36667 -2.10359,12.71667 -3.08105,19.05c-0.52283,3.3 -0.89904,6.78333 -1.12862,10.45c-0.2753,5.13333 -0.00449,9.96667 0.81242,14.5c3.86933,2 7.72234,3.98333 11.55903,5.95c0.06559,0.03333 0.14779,0.05 0.2466,0.05c-0.00087,0.1 0.01516,0.15 0.0481,0.15c0.49176,0.26667 1.04997,0.46667 1.67464,0.6c2.62493,1.16667 5.35012,2.16667 8.17558,3c3.08839,0.9 6.29454,1.51667 9.61843,1.85c12.01273,1.13333 22.87138,0.51667 32.57596,-1.85c5.97438,-1.43333 10.61048,-4.26667 13.90829,-8.5c-0.0158,-1.96667 -0.16089,-4.21667 -0.43527,-6.75c-0.79716,-6.8 -1.46227,-13.63333 -1.99534,-20.5c-1.12243,-14.83333 0.29337,-28 4.24738,-39.5c0.06588,0 0.13161,0.01667 0.1972,0.05c5.72883,4.06667 9.97882,9.63333 12.74997,16.7c0.17597,6.26667 0.36856,12.51667 0.57775,18.75c0.53476,14.23333 1.0035,28.48333 1.40622,42.75c0.1661,7.4 0.66448,14.46667 1.49516,21.2c1.56573,13.1 3.18087,26.2 4.84542,39.3c-0.05298,2.3 -1.1026,3.68333 -3.14886,4.15c-1.38633,0.33333 -2.75691,0.75 -4.11175,1.25c-10.87166,4 -22.98352,6.68333 -36.33558,8.05c-3.42852,0.33333 -7.05337,0.51667 -10.87454,0.55c-14.98766,0.06667 -28.26577,-1.38333 -39.83432,-4.35c-11.89736,-3.03333 -21.86816,-7.91667 -29.9124,-14.65c-0.78501,-0.63333 -1.52032,-1.3 -2.20593,-2c1.46346,-12.96667 3.14276,-26.13333 5.03791,-39.5c1.89311,-13.13333 4.12933,-25.95 6.70863,-38.45c2.57757,-12.3 5.56323,-24.18333 8.957,-35.65c1.29029,-4.43333 2.80898,-8.61667 4.55606,-12.55z" fill="#fefefe"/><path d="M680.96765,159.58658c6.74182,0.55775 11.79818,0.97607 15.16909,1.25494c1.40163,0.11069 2.38714,0.22811 2.95656,0.35225c7.59507,1.34404 12.8319,2.29283 15.71049,2.84636c5.89121,1.13823 11.11622,2.27056 15.67501,3.39699c12.40266,3.06651 23.73265,7.7672 33.98998,14.10207c6.66915,4.12597 11.02782,9.67276 13.07602,16.64038c2.04644,6.90098 3.37147,11.69673 3.97507,14.38725c1.24225,5.44716 1.88836,10.38723 1.93834,14.82022c0.00264,1.36677 0.28254,2.51236 0.8397,3.43679c0.58957,0.89056 1.50939,1.67578 2.75947,2.35564c1.45244,0.7766 3.27894,1.84719 5.47951,3.21177c3.0468,1.88428 4.87462,3.00486 5.48345,3.36172c0.74462,0.45468 1.25753,0.96311 1.53874,1.52529c0.34866,0.59443 0.51686,1.29178 0.50461,2.09206c-0.02452,0.33376 -0.03065,0.73391 -0.01838,1.20042c0.04118,0.29937 0.06877,0.71563 0.0828,1.24879l0.34578,18.84638c-0.80275,12.03585 -1.22186,18.25994 -1.25732,18.67228c-0.05256,0.53424 -0.33636,3.03909 -0.85141,7.51455c-0.353,3.03936 -0.63681,5.54421 -0.85141,7.51455c-0.11037,0.86854 -0.42177,2.95713 -0.9342,6.26576c-0.43185,2.57392 -0.70952,4.67862 -0.83302,6.31413c-0.40642,4.80707 -1.32706,10.32253 -2.7619,16.54637c-0.86985,3.64777 -2.27579,9.07107 -4.21784,16.26988c-0.63158,2.57714 -1.64467,4.57706 -3.03927,5.99975c-1.55666,1.59199 -3.63106,2.49229 -6.22318,2.70087c-0.03329,0.00054 -0.11607,0.01854 -0.24835,0.05402c-0.09899,0.03494 -0.16513,0.05267 -0.19842,0.05321c-0.66402,0.07741 -1.15721,0.31874 -1.47958,0.72399c-0.29083,0.33807 -0.52735,0.84195 -0.70956,1.51163c-0.47916,2.04129 -0.83042,3.8805 -1.05379,5.51761c-0.28118,1.97142 -0.3819,3.83991 -0.30217,5.60547c0.01928,0.7331 -0.14803,1.33587 -0.50194,1.8083c-0.2882,0.43804 -0.81206,0.77987 -1.57156,1.02551c-1.61887,0.49289 -4.02966,1.26527 -7.23236,2.31714c-2.8085,0.84548 -5.25651,1.46845 -7.34405,1.8689c-2.05425,0.39991 -5.10278,0.98258 -9.14558,1.74801c-3.51106,0.72349 -6.5574,1.38947 -9.13901,1.99793c-10.49113,2.50317 -18.36956,4.31404 -23.63527,5.4326c-8.77765,1.80874 -16.75245,3.12111 -23.92437,3.93712c-1.7932,0.19567 -4.48169,0.53916 -8.06546,1.03048c-3.18694,0.38489 -5.86141,0.62814 -8.02342,0.72977c-2.96005,0.14786 -6.57099,0.23957 -10.8328,0.27513c-2.39678,0.03875 -6.00903,0.08047 -10.83675,0.12518l0.00526,0.19994l-10.3361,0.16709c-10.51656,0.27002 -21.09445,-0.52575 -31.73368,-2.38731c-3.54699,-0.64273 -7.1137,-1.40183 -10.70011,-2.27728c-5.22982,-1.3156 -9.87754,-2.65729 -13.94314,-4.02505c-2.45197,-0.79378 -4.78875,-1.63943 -7.01034,-2.53695c-2.25575,-0.9303 -4.39586,-1.89581 -6.42035,-2.89653c-4.11554,-2.00035 -7.47465,-4.36297 -10.07732,-7.08785c-1.02758,-1.0835 -1.82082,-2.12079 -2.37973,-3.11186c-0.66491,-1.22271 -1.03066,-2.46693 -1.09725,-3.73265c-0.05958,-0.99914 -0.31451,-1.82844 -0.76479,-2.4879c-0.44853,-0.59281 -1.16117,-1.09801 -2.13793,-1.5156c-4.41514,-1.99551 -7.23594,-5.41694 -8.46241,-10.26429c-0.25756,-0.92927 -0.44284,-1.64301 -0.55585,-2.14124c-0.22164,-0.82984 -0.34035,-1.54466 -0.35612,-2.14447c-0.05695,-0.89917 -0.29304,-1.64544 -0.70828,-2.23879c-0.38195,-0.59389 -0.97852,-1.11763 -1.78972,-1.57124c-0.33814,-0.19455 -0.67629,-0.38911 -1.01443,-0.58366c-2.47476,-1.66017 -4.4445,-3.74522 -5.90923,-6.25514c-1.36135,-2.37824 -2.31931,-5.24639 -2.87386,-8.60445c-0.03951,-0.23584 -0.48674,-2.67887 -1.34169,-7.32908c-0.88225,-4.60458 -1.84989,-12.90647 -2.90294,-24.90568c-1.09422,-12.0018 -1.57918,-19.67809 -1.45486,-23.02889c0.29426,-7.10797 0.73659,-13.08241 1.32698,-17.92332c1.91573,-15.72818 3.87178,-24.92743 5.86814,-27.59774c1.9967,-2.63281 3.62914,-3.87599 4.89732,-3.72955c0.4345,0.05965 0.89748,-0.06451 1.38892,-0.37249c0.1314,-0.0688 0.52342,-0.3585 1.17604,-0.8691c2.0884,-1.63393 3.24472,-3.88619 3.46895,-6.75678c0.25664,-2.90445 0.72396,-6.029 1.40196,-9.37364c0.56676,-2.50942 1.36828,-5.58937 2.40457,-9.23983c1.70641,-6.02821 4.50348,-11.10729 8.39119,-15.23723c3.85618,-4.06276 8.77059,-7.14251 14.74324,-9.23927c2.1436,-0.8014 4.78741,-1.57755 7.93142,-2.32845c1.88606,-0.46387 3.50756,-0.85679 4.8645,-1.17875c1.29037,-0.32089 2.36567,-0.5883 3.22592,-0.80223c3.47251,-0.92289 6.6669,-1.65794 9.58315,-2.20513c1.72399,-0.29456 3.68276,-0.52625 5.8763,-0.69506c1.26321,-0.08709 3.20884,-0.18522 5.83689,-0.29438c4.15932,-0.13391 7.27005,-0.25087 9.33219,-0.35088c3.59166,-0.19141 6.69625,-0.54163 9.31378,-1.05066c0.83309,0.01987 6.39228,-0.07 16.67758,-0.2696c6.72429,-0.1087 12.30626,0.03442 16.74591,0.42937c4.03931,0.36808 9.11188,0.76946 15.21771,1.20415M552.68168,233.5179c-1.95234,-0.47357 -3.94002,-0.70813 -5.96304,-0.70369c-0.71484,0.04437 -1.42047,0.43915 -2.11688,1.18434c-1.34817,1.92199 -2.49046,4.70741 -3.42688,8.35627c-0.99686,3.88319 -1.72522,8.47877 -2.18508,13.78676c-0.27854,3.33818 -0.4791,7.74189 -0.60168,13.21111c-0.07267,3.56821 0.25415,10.29697 0.98047,20.18626c0.62995,8.7574 1.15211,14.68291 1.5665,17.77654c0.41263,3.02698 1.01099,6.15097 1.79505,9.37197c0.96716,3.85144 1.80159,5.82149 2.50328,5.91016c1.03545,0.11661 17.69288,0.34739 49.9723,0.69233c3.62933,-0.02533 6.67567,-0.05791 9.13903,-0.09773c4.62799,-0.04148 7.14084,-0.09877 7.53855,-0.17187l0.02492,-4.7509l40.20255,1.50033l4.15235,4.0333c2.69183,-1.63613 7.55807,-4.01503 14.59872,-7.13672c7.04065,-3.12168 15.00229,-5.5673 23.88492,-7.33684c11.64701,-2.30868 30.01616,-4.10579 55.10744,-5.39131c0.96353,-4.05246 1.67963,-8.48116 2.14829,-13.28611c1.5504,-14.49324 2.43114,-23.42508 2.64222,-26.79551c0.19182,-2.83673 0.34201,-7.25629 0.45057,-13.25867c0.16287,-6.46998 0.1856,-10.67078 0.0682,-12.60242c-3.21437,-0.60865 -11.25224,0.20469 -24.11361,2.44002c-12.89737,2.26118 -22.22035,4.22875 -27.96892,5.9027l-18.86407,4.50539c-14.02749,3.43712 -22.75258,5.34502 -26.17528,5.72369l-3.12605,0.80061c-2.64819,0.60954 -5.30207,1.00247 -7.96165,1.17881c-8.54114,0.67146 -16.55626,-0.81581 -24.04535,-4.4618c-0.68152,-0.32105 -4.82772,-1.5875 -12.43858,-3.79934c-7.64415,-2.21131 -12.14075,-3.50543 -13.4898,-3.88236l-11.88143,-3.50832c-2.97106,-0.7949 -6.98015,-1.91355 -12.02729,-3.35594c-5.08269,-1.41435 -9.26173,-2.66359 -12.53713,-3.74774c-3.30993,-1.04687 -5.92747,-1.80464 -7.85262,-2.27331M610.46688,333.74435c-2.62032,0.20995 -4.73152,0.34409 -6.33359,0.40242c-1.60306,0.06042 -3.91223,0.26444 -6.92752,0.61204c-3.01189,0.38284 -5.33421,0.72041 -6.96694,1.01272c-1.66668,0.28765 -2.77527,0.55559 -3.32578,0.80384c0.92385,13.04242 3.40002,23.62017 7.4285,31.73325c21.39583,3.12115 35.09147,4.69995 41.08692,4.73637c12.30257,0.39858 25.38805,0.30373 39.25643,-0.28456c13.82935,-0.54911 23.89694,-2.062 30.20277,-4.53867l7.13369,-13.66674c4.08408,-8.67838 6.23459,-18.71419 6.45154,-30.10743l-6.6056,-0.44327c-5.4348,-0.24551 -10.71192,-0.19354 -15.83135,0.15591c-16.28949,1.09675 -27.8638,4.83422 -34.72294,11.21243c-1.08682,0.01757 -3.8454,-0.40455 -8.27573,-1.26637l-3.45596,-7.94497l-23.53415,-0.21962l-0.11168,1.45196c-0.13494,1.07182 -0.37496,2.07581 -0.72005,3.01195c-0.35235,0.92741 -1.10002,1.6229 -2.24302,2.08647c-1.17557,0.50122 -2.9,0.77912 -5.1733,0.83371c-2.26957,0.09255 -4.71365,0.23207 -7.33224,0.41856z" fill="#000000"/><path d="M604.13329,334.14677c1.60207,-0.05832 3.71327,-0.19246 6.33359,-0.40242c2.6186,-0.18649 5.06268,-0.32601 7.33224,-0.41856c2.2733,-0.05459 3.99773,-0.33249 5.1733,-0.83371c1.143,-0.46358 1.89067,-1.15907 2.24302,-2.08647c0.34509,-0.93614 0.58511,-1.94013 0.72005,-3.01195l0.11168,-1.45196l23.53415,0.21962l3.45596,7.94497c4.43033,0.86181 7.18891,1.28393 8.27573,1.26637c6.85913,-6.3782 18.43345,-10.11568 34.72294,-11.21243c5.11943,-0.34945 10.39654,-0.40142 15.83135,-0.15591l6.6056,0.44327c-0.21695,11.39324 -2.36746,21.42905 -6.45154,30.10743l-7.13369,13.66674c-6.30583,2.47666 -16.37342,3.98955 -30.20277,4.53867c-13.86838,0.58829 -26.95386,0.68314 -39.25643,0.28456c-5.99545,-0.03643 -19.69109,-1.61522 -41.08692,-4.73637c-4.02848,-8.11308 -6.50465,-18.69082 -7.4285,-31.73325c0.55051,-0.24825 1.65911,-0.51619 3.32578,-0.80384c1.63273,-0.29231 3.95504,-0.62988 6.96694,-1.01272c3.01529,-0.3476 5.32447,-0.55162 6.92752,-0.61204M546.71863,232.81421c2.02302,-0.00445 4.0107,0.23012 5.96304,0.70369c1.92515,0.46867 4.54269,1.22644 7.85262,2.27331c3.2754,1.08415 7.45444,2.3334 12.53713,3.74774c5.04713,1.4424 9.05623,2.56105 12.02729,3.35594l11.88143,3.50832c1.34905,0.37693 5.84565,1.67105 13.4898,3.88236c7.61086,2.21185 11.75706,3.47829 12.43858,3.79934c7.48909,3.646 15.50421,5.13326 24.04535,4.4618c2.65958,-0.17634 5.31346,-0.56928 7.96165,-1.17881l3.12605,-0.80061c3.42269,-0.37867 12.14779,-2.28657 26.17528,-5.72369l18.86407,-4.50539c5.74857,-1.67395 15.07154,-3.64152 27.96892,-5.9027c12.86137,-2.23534 20.89924,-3.04868 24.11361,-2.44002c0.11741,1.93164 0.09467,6.13244 -0.0682,12.60242c-0.10856,6.00238 -0.25875,10.42194 -0.45057,13.25867c-0.21108,3.37043 -1.09182,12.30227 -2.64222,26.79551c-0.46866,4.80495 -1.18476,9.23366 -2.14829,13.28611c-25.09128,1.28552 -43.46042,3.08263 -55.10744,5.39131c-8.88263,1.76954 -16.84426,4.21516 -23.88492,7.33684c-7.04065,3.12168 -11.90689,5.50059 -14.59872,7.13672l-4.15235,-4.0333l-40.20255,-1.50033l-0.02492,4.7509c-0.39771,0.0731 -2.91056,0.13039 -7.53855,0.17187c-2.46335,0.03982 -5.5097,0.0724 -9.13903,0.09773c-32.27941,-0.34494 -48.93685,-0.57572 -49.9723,-0.69233c-0.70169,-0.08867 -1.53611,-2.05872 -2.50328,-5.91016c-0.78407,-3.221 -1.38242,-6.34498 -1.79505,-9.37197c-0.41439,-3.09363 -0.93655,-9.01914 -1.5665,-17.77654c-0.72632,-9.88929 -1.05314,-16.61805 -0.98047,-20.18626c0.12259,-5.46922 0.32315,-9.87292 0.60168,-13.21111c0.45985,-5.30799 1.18821,-9.90357 2.18508,-13.78676c0.93642,-3.64885 2.07872,-6.43427 3.42688,-8.35627c0.69641,-0.74519 1.40204,-1.13997 2.11688,-1.18434z" fill="#ffffff"/><path d="M645.8,367c-0.62721,-0.54727 -0.64388,-1.14727 -0.05,-1.8c0.59922,-0.65313 2.46589,-1.23646 5.6,-1.75c3.12708,-0.48711 8.19375,0.32956 15.2,2.45c1.83333,0.43333 3.05,0.96667 3.65,1.6c0.66771,0.76719 -0.16562,1.35052 -2.5,1.75c-2.33555,0.43177 -5.71888,0.6151 -10.15,0.55c-4.42799,-0.05781 -7.34466,-0.40781 -8.75,-1.05c-1.37487,-0.6151 -2.37487,-1.19844 -3,-1.75M685.1,331.3l6.3,1.35c3.55247,1.19232 6.23581,2.22565 8.05,3.1c1.82096,0.90195 4.02096,2.21862 6.6,3.95c2.60352,1.76693 4.02018,4.71693 4.25,8.85l0.5,3.75c0.23333,2.83333 0.11667,5.06667 -0.35,6.7c-0.36667,1.3 -0.73333,2.06667 -1.1,2.3c-0.86667,0.63333 -2.61667,0.65 -5.25,0.05c-3.52279,-1.49544 -7.53945,-2.97878 -12.05,-4.45c-4.50794,-1.47018 -9.54128,-2.22018 -15.1,-2.25c-5.56406,0.00104 -10.06406,0.33438 -13.5,1c-3.4,0.66667 -5.46667,1 -6.2,1c-3.5,0 -5.81667,-0.03333 -6.95,-0.1c-2.66667,-0.16667 -4.45,-0.58333 -5.35,-1.25c-1.03333,-0.76667 -1.48333,-1.9 -1.35,-3.4c0.13333,-1.53333 0.78333,-2.55 1.95,-3.05c1.03333,-0.43333 1.8,-0.6 2.3,-0.5c0.26667,0.06667 0.53333,0.28333 0.8,0.65c0.23333,0.33333 0.48333,0.43333 0.75,0.3c0.27057,-0.13555 0.17057,-0.61888 -0.3,-1.45c-0.47865,-0.82695 -0.96198,-1.71029 -1.45,-2.65c-0.45078,-0.90859 -0.95078,-2.07526 -1.5,-3.5c-0.66667,-0.06667 -1.26667,-0.28333 -1.8,-0.65c-0.93724,-0.64635 -1.42057,-1.74635 -1.45,-3.3c2.18047,-0.01823 4.03047,0.13177 5.55,0.45c1.56589,0.36224 4.04922,0.51224 7.45,0.45c3.43646,-0.06198 7.86979,-1.42865 13.3,-4.1c5.46354,-2.62773 10.76354,-3.71107 15.9,-3.25M658.2,344.95c3.86667,0.7 7.7,1 11.5,0.9c5.03333,-0.1 9.75,-0.73333 14.15,-1.9c4.96667,-1.3 8.03333,-2.93333 9.2,-4.9c-1.50143,-1.17982 -4.3181,-1.79648 -8.45,-1.85c-4.12904,-0.02852 -10.21237,1.55482 -18.25,4.75c-4.23333,1 -8.51667,1.63333 -12.85,1.9c1.2,0.36667 2.76667,0.73333 4.7,1.1M705.55,354.4c-0.23437,-2.19818 -0.71771,-3.98151 -1.45,-5.35c-0.69896,-1.33516 -1.41562,-2.31849 -2.15,-2.95c-0.54831,1.11029 -1.39831,2.16029 -2.55,3.15c-1.15169,1.02305 -2.10169,2.00638 -2.85,2.95l9,2.2M695.95,344.45c0.46667,-0.93333 0.33333,-1.68333 -0.4,-2.25c-1.36667,1.43333 -5.11667,3.43333 -11.25,6c2.0849,0.94831 4.56823,1.43164 7.45,1.45c2.3,-2.5 3.7,-4.23333 4.2,-5.2M689.3,321.9c1.56706,-0.16523 3.95039,0.3681 7.15,1.6c3.20299,1.25638 7.13633,3.03971 11.8,5.35c4.65951,2.34505 8.20951,4.82839 10.65,7.45c2.44349,2.6207 4.39349,4.98737 5.85,7.1c-3.59271,-2.64076 -6.84271,-4.79076 -9.75,-6.45c-6.93529,-3.93229 -11.16862,-5.93229 -12.7,-6c-1.49818,-0.03451 -3.59818,-0.18451 -6.3,-0.45c-2.66732,-0.23307 -6.15065,-0.98307 -10.45,-2.25c-4.33333,-1.26667 -5.43333,-2.65 -3.3,-4.15c1.73333,-1.13333 4.08333,-1.86667 7.05,-2.2z" fill="#000000"/><path d="M684.3,348.2c6.13333,-2.56667 9.88333,-4.56667 11.25,-6c0.73333,0.56667 0.86667,1.31667 0.4,2.25c-0.5,0.96667 -1.9,2.7 -4.2,5.2c-2.88177,-0.01836 -5.3651,-0.50169 -7.45,-1.45z" fill="#d36787"/><path d="M696.55,352.2c0.74831,-0.94362 1.69831,-1.92695 2.85,-2.95c1.15169,-0.98971 2.00169,-2.03971 2.55,-3.15c0.73438,0.63151 1.45104,1.61484 2.15,2.95c0.73229,1.36849 1.21563,3.15182 1.45,5.35l-9,-2.2M666.35,341.95c8.03763,-3.19518 14.12096,-4.77852 18.25,-4.75c4.1319,0.05352 6.94857,0.67018 8.45,1.85c-1.16667,1.96667 -4.23333,3.6 -9.2,4.9c-4.4,1.16667 -9.11667,1.8 -14.15,1.9c-3.8,0.1 -7.63333,-0.2 -11.5,-0.9c-1.93333,-0.36667 -3.5,-0.73333 -4.7,-1.1c4.33333,-0.26667 8.61667,-0.9 12.85,-1.9z" fill="#ffffff"/><path d="M729.38864,356.64399c4.75401,-2.71963 10.52869,-4.44384 17.32405,-5.17262c2.20429,1.12369 4.40836,2.19739 6.61222,3.22111c10.15158,4.82234 18.56089,11.36838 25.22794,19.63811c0.00043,0.09998 -0.01588,0.18336 -0.04892,0.25015c-1.30434,6.73737 -3.34496,12.7447 -6.12186,18.022c2.17877,2.95672 4.22487,6.06397 6.13832,9.32175c4.8007,8.24436 9.5351,16.57231 14.2032,24.98386c2.68645,4.78748 4.80878,10.14389 6.367,16.06925c0.00043,0.09998 0.00078,0.18329 0.00106,0.24994c-0.04792,4.39921 -0.19787,8.31563 -0.44986,11.74926c-0.09998,0.00043 -0.14989,0.0173 -0.14975,0.05063c-3.14489,4.94561 -7.32726,8.86254 -12.54711,11.75078c-0.09998,0.00043 -0.18329,0.00078 -0.24994,0.00106c-9.32722,0.93951 -16.24859,-0.53067 -20.76409,-4.41056c-2.93264,-7.81908 -6.28028,-15.2698 -10.04293,-22.35217c-5.17352,-9.7091 -10.81167,-18.96633 -16.91446,-27.77168c-1.93244,0.10821 -3.61578,0.0154 -5.05004,-0.27843c-4.30264,-0.84815 -8.95392,-1.39488 -13.95383,-1.6402c-0.2062,-1.46546 -0.4455,-2.88078 -0.71792,-4.24598c-2.48595,-12.48659 -4.97191,-24.97318 -7.45786,-37.45977c5.8804,-4.29074 12.07866,-8.28291 18.59479,-11.97649M768.24501,395.41973c-2.73777,-1.18807 -5.69138,-2.19193 -8.86082,-3.01158c-1.26903,7.20378 -2.23686,14.7062 -2.90348,22.50728c0.00043,0.09998 0.00078,0.18329 0.00106,0.24994c3.3026,0.78576 6.55521,1.57172 9.75784,2.35791l-0.00064,-0.14996c0.91338,-4.63618 1.84335,-9.28908 2.78992,-13.95873c-0.00014,-0.03333 0.04977,-0.0502 0.14975,-0.05063c3.53871,1.45127 6.7105,2.82078 9.51535,4.10854l-0.00064,-0.14996c-2.91717,-4.18663 -6.1827,-8.00519 -9.79658,-11.45568c-0.16734,-0.16592 -0.38459,-0.31496 -0.65176,-0.44712M777.65701,410.47624c-1.73646,-0.82575 -3.63869,-1.45084 -5.7067,-1.87527c-1.93241,7.93977 -3.96523,15.77999 -6.09844,23.52066c-0.0329,0.10012 -0.04921,0.1835 -0.04892,0.25015c3.97223,1.51607 7.72869,3.23302 11.26939,5.15084c0.06679,0.03304 0.15018,0.04935 0.25015,0.04892c1.17828,-5.03721 2.02167,-10.45625 2.53019,-16.2571l0.14996,-0.00064c2.77337,1.72113 5.36203,3.10979 7.76599,4.16598l-0.00192,-0.44989c-2.32087,-5.02231 -5.18933,-9.50908 -8.60538,-13.46031c-0.40189,-0.46485 -0.90333,-0.8293 -1.50432,-1.09335z" fill-opacity="0.99608" fill="#000000"/><path d="M771.95032,408.60097c2.06801,0.42443 3.97024,1.04952 5.7067,1.87527c0.60099,0.26405 1.10243,0.6285 1.50432,1.09335c3.41606,3.95122 6.28452,8.43799 8.60538,13.46031l0.00192,0.44989c-2.40396,-1.05619 -4.99262,-2.44485 -7.76599,-4.16598l-0.14996,0.00064c-0.50851,5.80085 -1.35191,11.21989 -2.53019,16.2571c-0.09998,0.00043 -0.18336,-0.01588 -0.25015,-0.04892c-3.5407,-1.91782 -7.29716,-3.63476 -11.26939,-5.15084c-0.00028,-0.06665 0.01602,-0.15003 0.04892,-0.25015c2.13322,-7.74067 4.16603,-15.58089 6.09844,-23.52066M759.38419,392.40815c3.16944,0.81965 6.12305,1.82351 8.86082,3.01158c0.26717,0.13217 0.48442,0.28121 0.65176,0.44712c3.61388,3.45049 6.87941,7.26906 9.79658,11.45568l0.00064,0.14996c-2.80485,-1.28776 -5.97663,-2.65728 -9.51535,-4.10854c-0.09998,0.00043 -0.14989,0.0173 -0.14975,0.05063c-0.94656,4.66964 -1.87654,9.32255 -2.78992,13.95873l0.00064,0.14996c-3.20262,-0.78618 -6.45524,-1.57215 -9.75784,-2.35791c-0.00028,-0.06665 -0.00064,-0.14996 -0.00106,-0.24994c0.66662,-7.80108 1.63445,-15.3035 2.90348,-22.50728z" fill-opacity="0.99608" fill="#ffffff"/><path d="M733.71203,433.58689c0.26746,-0.09772 0.58377,-0.06171 0.94895,0.10802c0.33213,0.13613 0.54692,0.35458 0.64436,0.65537c0.06552,0.13387 0.08092,0.28398 0.04618,0.45033c-0.00169,0.19996 -0.03629,0.34964 -0.10379,0.44906c-0.40471,0.56316 -0.97535,1.04159 -1.71192,1.43529c-0.33467,0.16381 -1.02012,0.42463 -2.05634,0.78247c-3.14198,1.07323 -5.94802,1.83268 -8.41811,2.27836c-3.03777,0.57418 -5.92218,0.74972 -8.65323,0.52662c-1.39885,-0.11183 -2.5174,0.12866 -3.35564,0.72147c-0.80463,0.55977 -1.42907,1.48768 -1.87332,2.78373c-0.68346,1.99393 -1.12729,3.23999 -1.33148,3.73819c-0.54479,1.36186 -1.15469,2.53986 -1.82968,3.534c-0.16861,0.23187 -0.27169,0.59761 -0.30925,1.09722c-0.03587,0.29965 -0.07286,0.73261 -0.11099,1.29888c-1.22409,-2.0386 -2.25707,-4.0304 -3.09894,-5.97541c-0.7764,-1.74253 -1.39521,-3.44753 -1.8564,-5.115c1.56012,0.74644 2.81352,0.32379 3.76021,-1.26796c0.57558,-1.06164 0.99907,-1.8746 1.27048,-2.43889c0.5078,-0.9289 1.03071,-1.67436 1.56872,-2.23639c0.70663,-0.7939 1.39433,-1.32133 2.06311,-1.5823c0.80237,-0.29316 1.70246,-0.31887 2.70027,-0.07711c3.69159,0.93114 7.80709,0.99933 12.34651,0.20457c0.40048,-0.06326 1.96822,-0.21663 4.70323,-0.46009c1.90129,-0.18387 3.45364,-0.48734 4.65705,-0.91042z" fill="#2c2c40"/><path d="M663.24644,501.53029c-1.14438,1.32345 -1.80695,2.81763 -1.98769,4.48252c-0.18385,2.03149 -0.03543,4.18244 0.44527,6.45286c0.38524,1.73635 1.05106,3.7917 1.99748,6.16605c0.32677,0.76933 0.82186,1.34011 1.48528,1.71234c0.63038,0.33863 1.34604,0.44467 2.147,0.31814c1.93631,-0.38354 4.80589,-0.77584 8.60875,-1.1769c3.86979,-0.43382 6.73923,-0.80946 8.60833,-1.12691c3.00444,-0.57447 5.75216,-0.35122 8.24316,0.66974c2.52432,1.02124 4.70875,2.82282 6.55328,5.40475c0.46092,0.67048 1.08777,1.42568 1.88054,2.26561c0.46233,0.50385 1.15611,1.22629 2.08134,2.16732c1.42032,1.51182 3.19693,2.27676 5.3298,2.29483c1.56577,0.07992 2.74857,0.12327 3.54839,0.13004c1.36609,0.0449 2.51627,0.00465 3.45053,-0.12075c2.93553,-0.30842 5.32329,-0.87145 7.16329,-1.68908c2.40824,-1.01279 4.3211,-2.56303 5.73858,-4.65072c0.50582,-0.69562 1.02591,-1.10782 1.56025,-1.23661c0.53435,-0.12879 1.1667,-0.02345 1.89705,0.31603c1.85949,0.81564 3.13394,1.84295 3.82335,3.08195c0.98539,1.70811 2.45415,3.40364 4.40628,5.08661c1.1249,0.97606 2.87962,2.35739 5.26415,4.14401c1.0591,0.87551 2.45471,1.3706 4.18682,1.48526c3.73056,0.2649 7.26935,-0.43835 10.61637,-2.10976c1.84085,-0.91761 4.19938,-1.96415 7.07559,-3.13961c3.177,-1.2729 5.55163,-2.25265 7.12389,-2.93923c3.24478,-1.40565 5.41974,-2.42041 6.52486,-3.04429c2.37717,-1.27968 4.2728,-2.76341 5.6869,-4.45119c0.16861,-0.23187 0.35303,-0.36362 0.55327,-0.39526c0.23357,-0.03135 0.43225,0.12031 0.59606,0.45499c-0.71679,1.99364 -1.51449,3.70331 -2.39311,5.129c-1.04779,1.72421 -2.2601,3.19707 -3.63692,4.41856c-0.36941,0.33016 -0.72385,0.86041 -1.06333,1.59077c-0.03389,0.06637 0.01511,0.18344 0.147,0.3512c0.09913,0.10083 0.2145,0.25178 0.34611,0.45287c-0.06693,0.03276 -0.35148,0.18033 -0.85363,0.44271c-0.368,0.16353 -0.66892,0.27763 -0.90277,0.3423c-1.23702,0.45612 -3.14198,1.07323 -5.71487,1.85132c-2.23935,0.74759 -4.07864,1.4819 -5.51788,2.20294c-2.24274,1.1475 -4.78428,2.15916 -7.62463,3.03498c-2.1052,0.64874 -4.7607,1.34281 -7.96651,2.08222c-1.80329,0.418 -3.61985,0.43594 -5.44968,0.05382c-1.72986,-0.38127 -3.42371,-1.07885 -5.08155,-2.09275c-1.65728,-1.08055 -2.96618,-1.97485 -3.92671,-2.68288c-1.39123,-1.01164 -2.58237,-2.03825 -3.5734,-3.07984c-0.62727,-0.70521 -1.47045,-1.49558 -2.52955,-2.37109c-1.19156,-0.97662 -2.08515,-1.71742 -2.68079,-2.2224c-0.93793,0.55864 -2.26109,1.34732 -3.96948,2.36604c-4.45638,2.79518 -9.04918,3.98944 -13.7784,3.58277c-0.76594,-0.07315 -1.93193,-0.13301 -3.49798,-0.17961c-1.53272,-0.04631 -2.69872,-0.10618 -3.49798,-0.17961c-3.96356,-0.3002 -6.84883,-1.99107 -8.6558,-5.07261c-0.98737,-1.47482 -1.69442,-2.59732 -2.12117,-3.36749c-1.44433,-2.61187 -3.63356,-3.8469 -6.56768,-3.70511c-0.1333,-0.00113 -0.79983,-0.00677 -1.99957,-0.01694c-0.79955,-0.0401 -1.44983,0.00438 -1.95085,0.13345c-1.83689,0.45104 -4.38945,0.79603 -7.65768,1.03498c-3.66814,0.23556 -6.23666,0.49709 -7.70555,0.78461c-3.07081,0.54058 -5.74553,-0.43195 -8.02414,-2.91756c-1.38672,-1.54486 -2.44059,-3.03691 -3.16163,-4.47615c-0.85208,-1.70698 -1.33716,-3.46084 -1.45522,-5.26158c-0.11834,-1.76742 -0.20703,-3.10131 -0.26606,-4.00169c-0.05367,-1.53357 -0.04252,-2.84996 0.03345,-3.94916c0.26434,-3.66391 1.19068,-6.78895 2.77903,-9.37513c1.7225,-2.68503 4.22379,-4.84686 7.50388,-6.48551c1.40563,-0.68799 3.01093,-1.34097 4.81591,-1.95892c0.90235,-0.29231 2.55665,-0.82822 4.96292,-1.60773c4.00987,-1.23252 7.33614,-0.45445 9.97881,2.33421c0.04825,0.05157 0.09782,0.10199 0.1487,0.15124c0.62688,0.64415 1.35525,1.21691 2.18513,1.71827c0.72922,0.47278 1.60856,0.93016 2.638,1.37215c1.85949,0.81564 3.607,1.0804 5.24253,0.7943c1.7355,-0.28526 3.17601,-1.15626 4.32152,-2.61302c0.9769,-1.22488 2.26999,-2.3971 3.87924,-3.51664c1.94336,-1.2167 3.40082,-2.12089 4.37236,-2.71257c0.23469,-0.16466 0.75365,-0.44355 1.55687,-0.83669c0.63602,-0.3279 1.1386,-0.64026 1.50772,-0.93709c2.68416,-2.11029 4.68443,-4.14306 6.00081,-6.0983c1.72109,-2.5184 2.61086,-5.26047 2.66931,-8.22622c0.43126,0.23695 0.69322,0.78909 0.78586,1.65642c0.12568,0.90094 0.38764,1.45308 0.78586,1.65642c3.50913,-1.13678 6.13272,-1.99776 7.87076,-2.58296c3.07476,-1.00714 5.69821,-1.85146 7.87034,-2.53297c1.30339,-0.42223 2.40767,-0.94614 3.31284,-1.57171c1.006,-0.72471 1.84691,-1.63412 2.52275,-2.72824c3.21059,-5.23872 7.07755,-9.27206 11.60086,-12.1c2.21139,-1.38107 4.31234,-3.4963 6.30286,-6.3457c0.60721,-0.8614 0.89613,-1.52553 0.86676,-1.99237c-0.02966,-0.43352 -0.37408,-1.08635 -1.03326,-1.95848c-0.26379,-0.33552 -1.23661,-1.56025 -2.91846,-3.6742c-1.18704,-1.50984 -2.15958,-2.7679 -2.91761,-3.77418c-0.85632,-1.20708 -1.96795,-1.78309 -3.33489,-1.72801c-1.16698,0.05677 -2.66567,-0.07257 -4.49607,-0.38803c-2.26336,-0.35246 -3.72816,-0.54817 -4.3944,-0.58714c-1.93179,-0.14968 -3.64343,-0.7141 -5.13493,-1.69326c-1.25906,-0.87721 -2.49778,-2.18752 -3.71617,-3.93092c-1.7454,-2.4811 -3.23747,-5.36 -4.4762,-8.6367c-0.9789,-2.47461 -1.91939,-5.54881 -2.82147,-9.22259c-0.48409,-1.8705 -0.36971,-3.56929 0.34313,-5.09637c0.67923,-1.49403 1.90622,-2.73346 3.68098,-3.71829c1.70219,3.64724 2.58677,7.42086 2.65372,11.32087c0.05084,1.86683 0.3875,3.43613 1.00997,4.70789c0.32677,0.76933 0.80026,1.92317 1.42047,3.46154c0.55497,1.37117 1.06193,2.50864 1.52088,3.4124c0.68828,1.3723 1.59586,2.42984 2.72274,3.17262c1.16049,0.70973 2.52376,1.08789 4.08981,1.13449c1.43274,0.04546 2.51571,0.0713 3.24888,0.07751c1.23279,0.04377 2.31603,0.03628 3.24973,-0.02247c1.73381,-0.0853 3.28108,0.2111 4.64181,0.8892c1.36045,0.71142 2.4845,1.78746 3.37217,3.22811c0.65777,1.03876 1.69654,2.34737 3.1163,3.92584c1.58498,1.74651 2.64083,3.00528 3.16756,3.7763c0.49425,0.67076 1.00742,1.07505 1.53951,1.21287c0.63179,0.17199 1.36637,0.01157 2.20376,-0.48126c0.97098,-0.52503 2.07272,-0.749 3.30522,-0.6719c1.0992,0.07597 2.24656,0.36898 3.44206,0.87904c1.36101,0.64477 2.92283,1.19126 4.68545,1.63946c1.72901,0.48125 3.22276,1.1938 4.48125,2.13766c2.11905,1.65105 3.62367,3.04693 4.51388,4.18765c1.3517,1.74454 2.03503,3.70005 2.05001,5.86653c-0.00452,0.53322 0.12342,1.16755 0.38382,1.90298c0.12964,0.43437 0.35756,1.06954 0.68376,1.90552c1.23563,3.64328 2.20281,7.50093 2.90155,11.57294c0.4454,2.50342 0.87766,4.59012 1.29678,6.2601c0.58068,2.27126 1.27997,4.31023 2.09788,6.1169c1.17801,2.57628 1.68949,5.14692 1.53445,7.7119c-0.12256,2.66525 -0.96051,5.19113 -2.51384,7.57763c-1.45307,2.35402 -3.46195,5.40324 -6.02664,9.14765c-0.23639,0.36461 -0.42166,0.59634 -0.55581,0.69519c-0.30135,0.16409 -0.63419,0.11128 -0.99852,-0.15844c0.85828,-2.95898 1.51025,-5.16981 1.95591,-6.63249c0.78909,-2.6596 1.49105,-4.87001 2.10588,-6.63122c0.61483,-1.76121 0.86265,-3.47553 0.74346,-5.14297c-0.1528,-1.6344 -0.65552,-3.27176 -1.50817,-4.91208c-0.68912,-1.27232 -1.24325,-2.74348 -1.66237,-4.41346c-0.29118,-1.03565 -0.5948,-2.57134 -0.91084,-4.60706c-0.56543,-4.07088 -1.02297,-7.10766 -1.37263,-9.11034c-0.63717,-3.47157 -1.56226,-6.39566 -2.77529,-8.77227c-0.29457,-0.63574 -0.42096,-1.45336 -0.37917,-2.45286c0.08161,-1.76572 -0.74025,-3.10583 -2.46559,-4.02032c-1.62593,-0.84699 -3.7341,-1.81471 -6.32451,-2.90317c-1.36186,-0.54479 -2.82327,-1.14042 -4.38424,-1.78689c-0.99668,-0.37506 -1.74539,-0.51471 -2.24613,-0.41897c-0.50102,0.12907 -1.13803,0.57361 -1.91103,1.33362c-0.50413,0.49566 -1.57974,1.56973 -3.22684,3.22221c-1.17602,1.12321 -2.87381,2.85858 -5.09338,5.20611c-2.0504,2.04901 -3.84704,3.65022 -5.38993,4.80366c-1.74369,1.25172 -3.37314,2.7877 -4.88834,4.60793c-1.2116,1.38954 -2.52657,3.17814 -3.9449,5.36582c-1.92444,2.91662 -3.02151,4.55709 -3.29123,4.92142c-1.34829,1.78832 -2.80956,3.14242 -4.38379,4.06229c-0.60269,0.32818 -1.19084,0.90645 -1.76445,1.73481c-0.87777,1.32571 -1.35027,2.02161 -1.41749,2.0877c-0.60608,0.7281 -0.64731,1.66095 -0.12369,2.79855c1.20964,2.77652 2.07684,4.66693 2.60159,5.67123c1.08226,2.07554 2.20068,3.8181 3.35524,5.22768c2.24332,2.71862 4.89488,4.4575 7.95468,5.21665c3.16006,0.72667 6.32986,0.30358 9.5094,-1.26926c2.00832,-1.01618 3.753,-2.38453 5.23403,-4.10508c1.37992,-1.58808 2.54605,-3.51127 3.49838,-5.76954c0.51034,-1.22884 0.88469,-2.1422 1.12305,-2.7401c0.44256,-1.0961 0.86676,-1.99237 1.2726,-2.68884c0.64364,-1.22771 1.31849,-2.20518 2.02456,-2.93243c0.87439,-0.92579 1.8294,-1.53428 2.86506,-1.82547c1.06898,-0.2909 2.37082,-0.52984 3.90552,-0.71681c1.76798,-0.185 3.08564,-0.32381 3.95297,-0.41645c0.60072,-0.0949 1.24945,0.04391 1.9462,0.41643c0.36489,0.20306 0.66257,0.47221 0.89303,0.80745c0.19685,0.36828 0.27678,0.7689 0.23978,1.20186c-0.07258,0.69929 -0.49311,1.16232 -1.26159,1.38912c-0.46798,0.16268 -1.1698,0.39003 -2.10548,0.68207c-0.83541,0.25955 -1.56986,0.40331 -2.20334,0.43127c-1.26668,0.0226 -2.33622,0.38015 -3.20863,1.07267c-0.80491,0.5931 -1.51252,1.50364 -2.12284,2.73163c-0.64421,1.29436 -1.55827,2.96971 -2.74219,5.02606c-1.45476,2.55398 -2.38549,4.22919 -2.79218,5.02563c-0.9142,1.69202 -2.34426,3.29634 -4.29016,4.81297c-2.04645,1.58244 -4.32223,2.69633 -6.82734,3.34169c-2.27155,0.614 -4.8234,0.87568 -7.65556,0.78503c-2.7319,-0.12313 -5.20934,-0.77735 -7.43232,-1.96269c-2.05691,-1.11727 -3.97614,-2.74996 -5.75769,-4.89808c-1.78155,-2.14812 -3.35975,-4.69446 -4.73461,-7.63903c-1.01448,-2.20828 -2.04069,-4.99991 -3.07861,-8.37489c-0.19459,-0.63489 -0.25645,-1.202 -0.18556,-1.70133c0.10421,-0.49905 0.35839,-0.99682 0.76254,-1.49333c0.57247,-0.69505 1.12941,-1.52355 1.67082,-2.48549c0.43691,-0.42957 0.75619,-0.74349 0.95784,-0.94175c0.36998,-0.39681 0.4571,-0.84601 0.26138,-1.34759c-2.5359,0.34513 -4.84345,1.27545 -6.92266,2.79096c-1.67732,1.28561 -3.35902,3.08777 -5.04509,5.40649c-3.2716,4.57164 -7.81708,8.0493 -13.63645,10.433c-1.03678,0.42449 -1.90736,0.90038 -2.61172,1.42767c-0.80519,0.62642 -1.46141,1.37076 -1.96864,2.23301c-0.37223,0.66342 -0.92819,1.37527 -1.66786,2.13557c-0.43719,0.4629 -1.0927,1.12392 -1.96652,1.98306c-1.07632,1.15738 -2.29823,1.79694 -3.66573,1.91867c-1.20087,0.12314 -2.56499,-0.15504 -4.09235,-0.83455c-0.29881,-0.13585 -0.66384,-0.32224 -1.09511,-0.5592c-0.23187,-0.16861 -0.57996,-0.38819 -1.04427,-0.65875l-8.55497,-5.17174c-0.8292,-0.47362 -1.67676,-0.74743 -2.54268,-0.82142c-0.79955,-0.0401 -1.70048,0.08558 -2.70281,0.37705c-4.44481,1.42881 -8.40017,4.09492 -11.86608,7.99834z" fill="#2c2d41"/><path d="M661.25875,506.01281c0.18075,-1.6649 0.84331,-3.15907 1.98769,-4.48252c3.46591,-3.90342 7.42127,-6.56953 11.86608,-7.99834c1.00233,-0.29147 1.90326,-0.41715 2.70281,-0.37705c0.86592,0.07399 1.71348,0.3478 2.54268,0.82142l8.55497,5.17174c0.46431,0.27056 0.8124,0.49015 1.04427,0.65875c0.43126,0.23695 0.7963,0.42335 1.09511,0.5592c1.52736,0.67951 2.89148,0.95769 4.09235,0.83455c1.3675,-0.12173 2.58942,-0.76129 3.66573,-1.91867c0.87382,-0.85914 1.52933,-1.52016 1.96652,-1.98306c0.73967,-0.76029 1.29562,-1.47215 1.66786,-2.13557c0.50723,-0.86225 1.16345,-1.60658 1.96864,-2.23301c0.70437,-0.52729 1.57494,-1.00318 2.61172,-1.42767c5.81937,-2.3837 10.36485,-5.86136 13.63645,-10.433c1.68607,-2.31872 3.36777,-4.12088 5.04509,-5.40649c2.07921,-1.5155 4.38676,-2.44582 6.92266,-2.79096c0.19572,0.50159 0.1086,0.95079 -0.26138,1.34759c-0.20165,0.19826 -0.52093,0.51218 -0.95784,0.94175c-0.54141,0.96194 -1.09835,1.79044 -1.67082,2.48549c-0.40415,0.49651 -0.65833,0.99428 -0.76254,1.49333c-0.07089,0.49933 -0.00903,1.06644 0.18556,1.70133c1.03793,3.37498 2.06413,6.16661 3.07861,8.37489c1.37486,2.94456 2.95306,5.4909 4.73461,7.63903c1.78155,2.14812 3.70078,3.78082 5.75769,4.89808c2.22298,1.18533 4.70042,1.83956 7.43232,1.96269c2.83216,0.09065 5.38402,-0.17103 7.65556,-0.78503c2.50511,-0.64535 4.78089,-1.75925 6.82734,-3.34169c1.94591,-1.51663 3.37596,-3.12096 4.29016,-4.81297c0.40669,-0.79644 1.33742,-2.47165 2.79218,-5.02563c1.18392,-2.05635 2.09798,-3.7317 2.74219,-5.02606c0.61032,-1.22799 1.31793,-2.13853 2.12284,-2.73163c0.87241,-0.69251 1.94195,-1.05007 3.20863,-1.07267c0.63348,-0.02796 1.36793,-0.17172 2.20334,-0.43127c0.93567,-0.29203 1.6375,-0.51939 2.10548,-0.68207c0.76848,-0.22679 1.18901,-0.68983 1.26159,-1.38912c0.037,-0.43296 -0.04293,-0.83358 -0.23978,-1.20186c-0.23046,-0.33524 -0.52814,-0.60439 -0.89303,-0.80745c-0.69675,-0.37252 -1.34548,-0.51133 -1.9462,-0.41643c-0.86733,0.09264 -2.18498,0.23146 -3.95297,0.41645c-1.5347,0.18697 -2.83654,0.42591 -3.90552,0.71681c-1.03565,0.29118 -1.99067,0.89967 -2.86506,1.82547c-0.70606,0.72725 -1.38091,1.70473 -2.02456,2.93243c-0.40584,0.69646 -0.83004,1.59274 -1.2726,2.68884c-0.23836,0.5979 -0.61272,1.51126 -1.12305,2.7401c-0.95233,2.25828 -2.11846,4.18146 -3.49838,5.76954c-1.48103,1.72054 -3.22571,3.0889 -5.23403,4.10508c-3.17954,1.57284 -6.34934,1.99593 -9.5094,1.26926c-3.0598,-0.75915 -5.71136,-2.49803 -7.95468,-5.21665c-1.15456,-1.40958 -2.27297,-3.15214 -3.35524,-5.22768c-0.52475,-1.0043 -1.39195,-2.89471 -2.60159,-5.67123c-0.52362,-1.13761 -0.48239,-2.07046 0.12369,-2.79855c0.06722,-0.06609 0.53971,-0.76199 1.41749,-2.0877c0.5736,-0.82836 1.16175,-1.40663 1.76445,-1.73481c1.57424,-0.91987 3.0355,-2.27396 4.38379,-4.06229c0.26971,-0.36433 1.36679,-2.0048 3.29123,-4.92142c1.41833,-2.18767 2.7333,-3.97628 3.9449,-5.36582c1.51521,-1.82024 3.14465,-3.35622 4.88834,-4.60793c1.54289,-1.15343 3.33953,-2.75465 5.38993,-4.80366c2.21957,-2.34753 3.91737,-4.0829 5.09338,-5.20611c1.6471,-1.65248 2.72271,-2.72655 3.22684,-3.22221c0.773,-0.76001 1.41,-1.20455 1.91103,-1.33362c0.50074,-0.09574 1.24945,0.04391 2.24613,0.41897c1.56097,0.64647 3.02238,1.24209 4.38424,1.78689c2.59041,1.08846 4.69858,2.05618 6.32451,2.90317c1.72534,0.91449 2.54721,2.25459 2.46559,4.02032c-0.04179,0.9995 0.08459,1.81713 0.37917,2.45286c1.21303,2.37661 2.13812,5.30069 2.77529,8.77227c0.34965,2.00268 0.80719,5.03946 1.37263,9.11034c0.31604,2.03572 0.61966,3.57141 0.91084,4.60706c0.41913,1.66998 0.97325,3.14113 1.66237,4.41346c0.85265,1.64032 1.35537,3.27768 1.50817,4.91208c0.11919,1.66744 -0.12863,3.38176 -0.74346,5.14297c-0.61483,1.76121 -1.31679,3.97161 -2.10588,6.63122c-0.44566,1.46268 -1.09763,3.67351 -1.95591,6.63249c0.36433,0.26971 0.69717,0.32253 0.99852,0.15844c0.13415,-0.09885 0.31942,-0.33058 0.55581,-0.69519c2.56469,-3.74441 4.57357,-6.79362 6.02664,-9.14765c1.55333,-2.3865 2.39128,-4.91238 2.51384,-7.57763c0.15504,-2.56499 -0.35644,-5.13562 -1.53445,-7.7119c-0.81791,-1.80667 -1.51721,-3.84564 -2.09788,-6.1169c-0.41913,-1.66998 -0.85139,-3.75668 -1.29678,-6.2601c-0.69874,-4.07201 -1.66592,-7.92965 -2.90155,-11.57294c-0.3262,-0.83598 -0.55412,-1.47115 -0.68376,-1.90552c-0.2604,-0.73543 -0.38834,-1.36976 -0.38382,-1.90298c-0.01498,-2.16649 -0.69831,-4.122 -2.05001,-5.86653c-0.89021,-1.14071 -2.39484,-2.53659 -4.51388,-4.18765c-1.25849,-0.94386 -2.75224,-1.65641 -4.48125,-2.13766c-1.76262,-0.4482 -3.32443,-0.99469 -4.68545,-1.63946c-1.19551,-0.51006 -2.34286,-0.80307 -3.44206,-0.87904c-1.23251,-0.0771 -2.33425,0.14687 -3.30522,0.6719c-0.83739,0.49284 -1.57198,0.65326 -2.20376,0.48126c-0.53209,-0.13782 -1.04526,-0.54211 -1.53951,-1.21287c-0.52673,-0.77102 -1.58258,-2.02979 -3.16756,-3.7763c-1.41976,-1.57847 -2.45853,-2.88708 -3.1163,-3.92584c-0.88767,-1.44065 -2.01173,-2.51669 -3.37217,-3.22811c-1.36073,-0.6781 -2.908,-0.9745 -4.64181,-0.8892c-0.9337,0.05875 -2.01694,0.06624 -3.24973,0.02247c-0.73318,-0.00621 -1.81614,-0.03205 -3.24888,-0.07751c-1.56605,-0.04659 -2.92932,-0.42476 -4.08981,-1.13449c-1.12688,-0.74277 -2.03446,-1.80031 -2.72274,-3.17262c-0.45895,-0.90376 -0.9659,-2.04123 -1.52088,-3.4124c-0.62021,-1.53837 -1.0937,-2.69222 -1.42047,-3.46154c1.00035,-0.05818 1.75076,-0.11848 2.25121,-0.1809c0.90037,-0.05903 1.65064,-0.10267 2.25079,-0.13091c7.69977,-0.10142 12.84994,-0.20778 15.45051,-0.31906c5.8013,-0.25082 10.93763,-0.69058 15.40899,-1.31927c0.53378,-0.06214 1.20059,-0.08982 2.00042,-0.08304c5.19945,-0.02262 9.11571,-0.03944 11.74876,-0.05046c4.56597,0.00535 8.46528,0.02171 11.69792,0.04909c1.79933,0.04857 3.2969,0.31122 4.49269,0.78795c1.49488,0.57925 2.71976,1.55615 3.67465,2.93071c0.42788,0.63687 1.1218,1.34265 2.08177,2.11734c1.32345,1.14438 2.08445,1.80074 2.28299,1.96906c2.01681,1.91681 3.52101,3.36268 4.51261,4.33761c1.71885,1.68099 3.13917,3.19281 4.26097,4.53545c2.2114,2.55171 5.11729,5.74254 8.71767,9.57249c0.8919,0.94076 1.99873,2.0833 3.32049,3.42764c0.72697,0.73939 1.83394,1.86527 3.32091,3.37765c4.32904,4.36939 6.35221,9.46914 6.06953,15.29925l-0.17749,3.24804c-0.07766,1.29916 -0.13683,2.38184 -0.17749,3.24804c-0.07343,0.79926 0.28949,1.23561 1.08876,1.30904c0.33298,0.03615 0.99922,0.07512 1.99873,0.11692c0.83287,0.04038 1.48231,0.09588 1.94831,0.16648c1.29775,0.24429 2.25913,0.85235 2.88414,1.82417c0.65862,0.93878 0.84912,2.0569 0.5715,3.35437c-0.10252,0.29909 -0.23907,0.68121 -0.40965,1.14637c-0.13556,0.26548 -0.3221,0.64718 -0.55962,1.1451c-2.04192,4.98199 -4.75798,10.85815 -8.14819,17.62847c-1.93262,3.88308 -4.84808,9.69089 -8.74636,17.42343c-0.27113,0.53096 -0.64322,1.17772 -1.11628,1.94027c-0.27,0.39766 -0.67528,1.02747 -1.21583,1.88943c-0.54056,0.86196 -1.16246,1.48994 -1.8657,1.88393c-0.73685,0.42703 -1.62126,0.56952 -2.65324,0.42746c-0.73261,-0.07286 -1.36581,-0.07823 -1.89959,-0.01609c-0.66737,0.09433 -1.30269,0.33892 -1.90595,0.73375c-3.5529,2.36956 -7.65555,4.71781 -12.30793,7.04473c-3.21343,1.63921 -7.51321,3.6525 -12.89934,6.03986c-2.60932,1.1444 -4.34878,1.89622 -5.21837,2.25547c-2.00607,0.74957 -3.8599,1.23379 -5.56152,1.45268c-0.13161,-0.20109 -0.24698,-0.35204 -0.34611,-0.45287c-0.13189,-0.16776 -0.18089,-0.28483 -0.147,-0.3512c0.33947,-0.73035 0.69391,-1.26061 1.06333,-1.59077c1.37682,-1.2215 2.58912,-2.69435 3.63692,-4.41856c0.87862,-1.42569 1.67632,-3.13535 2.39311,-5.129c-0.16381,-0.33467 -0.3625,-0.48634 -0.59606,-0.45499c-0.20024,0.03163 -0.38466,0.16338 -0.55327,0.39526c-1.4141,1.68778 -3.30973,3.17151 -5.6869,4.45119c-1.10513,0.62388 -3.28008,1.63865 -6.52486,3.04429c-1.57226,0.68658 -3.94689,1.66633 -7.12389,2.93923c-2.87622,1.17547 -5.23475,2.222 -7.07559,3.13961c-3.34702,1.67141 -6.88581,2.37466 -10.61637,2.10976c-1.73212,-0.11466 -3.12772,-0.60974 -4.18682,-1.48526c-2.38453,-1.78661 -4.13924,-3.16795 -5.26415,-4.14401c-1.95213,-1.68297 -3.42089,-3.3785 -4.40628,-5.08661c-0.68941,-1.239 -1.96386,-2.26632 -3.82335,-3.08195c-0.73035,-0.33947 -1.3627,-0.44481 -1.89705,-0.31603c-0.53435,0.12879 -1.05443,0.54099 -1.56025,1.23661c-1.41749,2.0877 -3.33035,3.63794 -5.73858,4.65072c-1.84,0.81763 -4.22776,1.38065 -7.16329,1.68908c-0.93426,0.1254 -2.08444,0.16565 -3.45053,0.12075c-0.79983,-0.00677 -1.98263,-0.05012 -3.54839,-0.13004c-2.13288,-0.01807 -3.90948,-0.78301 -5.3298,-2.29483c-0.92523,-0.94104 -1.61901,-1.66348 -2.08134,-2.16732c-0.79277,-0.83993 -1.41962,-1.59513 -1.88054,-2.26561c-1.84453,-2.58193 -4.02896,-4.38351 -6.55328,-5.40475c-2.491,-1.02096 -5.23872,-1.2442 -8.24316,-0.66974c-1.86909,0.31745 -4.73853,0.69309 -8.60833,1.12691c-3.80286,0.40106 -6.67244,0.79336 -8.60875,1.1769c-0.80096,0.12653 -1.51662,0.02048 -2.147,-0.31814c-0.66342,-0.37223 -1.15851,-0.94301 -1.48528,-1.71234c-0.94642,-2.37435 -1.61224,-4.4297 -1.99748,-6.16605c-0.4807,-2.27042 -0.62912,-4.42137 -0.44527,-6.45286M670.17476,433.14868c-0.69675,-0.37252 -1.19424,-0.66002 -1.49248,-0.86252c-3.41086,-2.59519 -5.97036,-5.36648 -7.67848,-8.31387c-1.9383,-3.31595 -2.90703,-6.9903 -2.9062,-11.02306c0.01016,-1.19974 0.25234,-2.24754 0.72653,-3.1434c0.47419,-0.89586 1.19719,-1.65629 2.16902,-2.2813c2.58023,-1.64457 5.07038,-2.49003 7.47043,-2.53635c2.66666,-0.04407 5.12193,-0.70651 7.36579,-1.98732c1.9428,-1.15004 3.84013,-2.83373 5.69198,-5.05106c3.23263,-3.90539 7.29657,-7.58711 12.19184,-11.04515c1.74341,-1.21839 3.48258,-1.93689 5.21752,-2.15549c1.80187,-0.25137 3.6656,0.06438 5.59118,0.94723c3.18746,1.4268 6.75902,2.75687 10.71468,3.9902c1.26301,0.41064 3.14058,1.05979 5.6327,1.94744c2.49184,0.92098 4.36927,1.58679 5.63228,1.99743c0.46544,0.13726 0.99668,0.37506 1.59373,0.7134c0.29852,0.16917 0.79588,0.47334 1.49206,0.91251c0.63009,0.37195 0.9073,1.09086 0.83161,2.15674c-1.77476,0.98483 -3.00175,2.22425 -3.68098,3.71829c-0.71284,1.52708 -0.82721,3.22587 -0.34313,5.09637c0.90208,3.67379 1.84257,6.74799 2.82147,9.22259c1.23873,3.2767 2.7308,6.15559 4.4762,8.6367c1.21839,1.74341 2.45711,3.05372 3.71617,3.93092c1.49149,0.97916 3.20314,1.54358 5.13493,1.69326c0.66624,0.03897 2.13104,0.23469 4.3944,0.58714c1.8304,0.31546 3.32909,0.44481 4.49607,0.38803c1.36694,-0.05508 2.47857,0.52092 3.33489,1.72801c0.75803,1.00628 1.73057,2.26434 2.91761,3.77418c1.68185,2.11395 2.65467,3.33868 2.91846,3.6742c0.65918,0.87213 1.00361,1.52495 1.03326,1.95848c0.02937,0.46685 -0.25954,1.13097 -0.86676,1.99237c-1.99052,2.8494 -4.09148,4.96463 -6.30286,6.3457c-4.52332,2.82795 -8.39027,6.86128 -11.60086,12.1c-0.67584,1.09412 -1.51676,2.00353 -2.52275,2.72824c-0.90517,0.62558 -2.00945,1.14948 -3.31284,1.57171c-2.17213,0.6815 -4.79558,1.52582 -7.87034,2.53297c-1.73804,0.58519 -4.36163,1.44618 -7.87076,2.58296c-0.39822,-0.20334 -0.66017,-0.75549 -0.78586,-1.65642c-0.09264,-0.86733 -0.35459,-1.41947 -0.78586,-1.65642c-0.05845,2.96575 -0.94822,5.70782 -2.66931,8.22622c-1.31638,1.95524 -3.31665,3.988 -6.00081,6.0983c-0.36913,0.29683 -0.8717,0.6092 -1.50772,0.93709c-0.80322,0.39314 -1.32217,0.67204 -1.55687,0.83669c-0.97154,0.59169 -2.42899,1.49588 -4.37236,2.71257c-1.60926,1.11954 -2.90234,2.29175 -3.87924,3.51664c-1.14551,1.45676 -2.58602,2.32776 -4.32152,2.61302c-1.63553,0.2861 -3.38303,0.02134 -5.24253,-0.7943c-1.02944,-0.44199 -1.90878,-0.89938 -2.638,-1.37215c-0.82988,-0.50136 -1.55826,-1.07412 -2.18513,-1.71827c-2.6177,-3.33798 -4.409,-6.30273 -5.37389,-8.89426c-0.96914,-2.56618 -1.76107,-5.47248 -2.3758,-8.71889c-0.64005,-3.23817 -0.91811,-5.82349 -0.83418,-7.75597c0.04128,-1.9068 3.92617,-4.12358 11.65469,-6.65032c1.67111,-0.55243 3.61208,-1.48586 5.8229,-2.80027c4.01808,-2.2935 6.77115,-4.66984 8.25922,-7.12902c0.84187,1.94501 1.87485,3.93681 3.09894,5.97541c0.03813,-0.56626 0.07512,-0.99922 0.11099,-1.29888c0.03756,-0.49961 0.14064,-0.86535 0.30925,-1.09722c0.67499,-0.99414 1.28489,-2.17214 1.82968,-3.534c0.20419,-0.4982 0.64802,-1.74426 1.33148,-3.73819c0.44425,-1.29605 1.06869,-2.22396 1.87332,-2.78373c0.83824,-0.59281 1.95678,-0.8333 3.35564,-0.72147c2.73106,0.2231 5.61547,0.04757 8.65323,-0.52662c2.47009,-0.44568 5.27613,-1.20513 8.41811,-2.27836c1.03622,-0.35784 1.72166,-0.61866 2.05634,-0.78247c0.73656,-0.3937 1.3072,-0.87214 1.71192,-1.43529c0.0675,-0.09941 0.1021,-0.2491 0.10379,-0.44906c0.03474,-0.16635 0.01934,-0.31646 -0.04618,-0.45033c-0.09744,-0.30078 -0.31222,-0.51924 -0.64436,-0.65537c-0.36518,-0.16974 -0.68149,-0.20574 -0.94895,-0.10802c-1.20341,0.42308 -2.75576,0.72655 -4.65705,0.91042c-2.73501,0.24346 -4.30275,0.39683 -4.70323,0.46009c-4.53942,0.79476 -8.65493,0.72658 -12.34651,-0.20457c-0.99781,-0.24175 -1.8979,-0.21605 -2.70027,0.07711c-0.66878,0.26096 -1.35649,0.7884 -2.06311,1.5823c-0.53802,0.56203 -1.06093,1.30749 -1.56872,2.23639c-0.27141,0.56429 -0.6949,1.37725 -1.27048,2.43889c-0.94668,1.59175 -2.20009,2.01441 -3.76021,1.26796c-0.66285,-0.43889 -1.12307,-1.19268 -1.38065,-2.26138c-0.32225,-1.30255 -0.58209,-2.10463 -0.7795,-2.40626c-0.3985,-0.17002 -0.78147,-0.20659 -1.14891,-0.10972c-0.20052,0.06496 -0.48521,0.22919 -0.85405,0.49269c-0.90489,0.59225 -1.97472,0.98313 -3.20948,1.17264c-0.26689,0.03107 -1.41749,0.12131 -3.4518,0.27072c-3.46818,0.23725 -6.68176,-0.07326 -9.64074,-0.93154c-3.05867,-0.89245 -5.8955,-2.3996 -8.51049,-4.52146c-0.29796,-0.23582 -0.79531,-0.53999 -1.49206,-0.91251z" fill="#000000"/><path d="M553.62247,401.91213c1.57573,0.4364 2.94265,1.04657 4.10078,1.8305c3.68195,2.44321 7.22039,5.02453 10.61533,7.74395c8.38065,6.70323 14.87476,15.41804 19.48235,26.14444c0.06229,1.05817 0.12555,2.13288 0.18979,3.22411c0.00584,0.0992 0.01071,0.18187 0.0146,0.24801c-2.82833,4.61646 -6.04887,8.86689 -9.66162,12.75129c-0.06529,0.03566 -0.13156,0.05479 -0.1988,0.05738c2.24815,6.70763 3.42089,14.03671 3.51823,21.98724c0.05044,3.14663 -0.79926,5.59881 -2.5491,7.35655c-3.78669,3.79168 -9.30225,5.9763 -16.5467,6.55384c-2.54735,0.23077 -4.75213,-0.01567 -6.61433,-0.73932c-1.86397,3.25357 -4.20614,6.11128 -7.02651,8.57314c-0.03167,0.03436 -0.04556,0.08461 -0.04167,0.15075c0.30649,6.35162 0.10602,12.39134 -0.6014,18.11919c-0.23941,2.2298 -1.09442,4.01933 -2.56503,5.36859c-4.82555,4.46144 -11.19631,7.57388 -19.11227,9.33731c-3.09164,0.71575 -6.27317,1.33553 -9.54459,1.85935c-7.27859,1.14229 -14.41386,1.28476 -21.4058,0.42743c-5.49903,-0.68288 -10.37945,-2.01933 -14.64125,-4.00933c-3.81307,-1.80844 -6.55922,-4.66887 -8.23847,-8.58129c-0.35319,-0.8481 -0.52076,-1.40507 -0.50271,-1.67091c0.06724,-0.00259 0.13351,-0.02172 0.1988,-0.05738c1.84238,-1.33045 3.72033,-2.62912 5.63385,-3.89603c0.00584,0.0992 -0.0061,0.18252 -0.03583,0.24995c-0.17358,1.63069 0.01487,3.11486 0.56536,4.45249c5.18637,5.10294 12.66519,7.64836 22.43646,7.63627c11.62622,0.01584 21.57886,-1.49467 29.85791,-4.53152c0.82493,-0.29694 1.57068,-0.50797 2.23725,-0.6331c3.46925,-0.59773 5.79037,-2.09578 6.96335,-4.49414c1.26995,-2.46838 2.12894,-5.33521 2.57697,-8.60048c0.47191,-3.43191 0.27629,-6.75522 -0.58687,-9.96995c-1.80629,0.79877 -3.43182,1.806 -4.8766,3.0217c-2.27998,1.91075 -5.08124,2.97987 -8.4038,3.20738c3.47473,-2.22194 6.8072,-4.57097 9.99739,-7.04709c1.86822,-1.46402 3.59514,-3.03858 5.18077,-4.72371c1.45894,-1.54767 2.91885,-3.0788 4.37973,-4.5934c3.93532,-4.12884 4.76334,-9.81162 2.48405,-17.04833c-0.10086,0.00389 -0.18491,0.00713 -0.25215,0.00972c-3.17198,-0.07658 -5.96024,-0.21768 -8.3648,-0.42327c0.06724,-0.00259 0.15129,-0.00583 0.25215,-0.00972c5.0363,-1.45357 9.46797,-3.44725 13.29501,-5.98106c-0.00389,-0.06614 0.00902,-0.13292 0.03875,-0.20035c2.35871,-5.72521 3.54372,-12.49889 3.55502,-20.32104c-0.00389,-0.06614 -0.00876,-0.14881 -0.0146,-0.24801c-0.04672,-0.79363 0.26029,-1.30261 0.92101,-1.52693c0.00584,0.0992 0.01071,0.18187 0.0146,0.24801c1.59555,2.4905 2.6714,5.5976 3.22756,9.3213c0.3716,2.30568 0.46353,4.43985 0.27579,6.40251c-0.27745,2.72841 -0.24108,5.06358 0.10911,7.00551c0.00584,0.0992 -0.0061,0.18252 -0.03583,0.24995c-0.64479,2.21228 -2.14222,3.67858 -4.49227,4.39888c0.00584,0.0992 -0.00708,0.16599 -0.03875,0.20035c-0.50678,0.54982 -0.95923,1.16383 -1.35737,1.84204c0.00584,0.0992 0.01071,0.18187 0.0146,0.24801c0.55669,3.16026 0.81592,6.13312 0.77771,8.91859c0.00584,0.0992 0.02654,0.16469 0.06211,0.19646c1.20343,0.98104 2.66025,1.68717 4.37045,2.11839c1.721,-0.53034 3.43811,-1.12682 5.15132,-1.78943c4.97738,-1.88215 7.30796,-6.08171 6.99173,-12.59866c-0.08317,-1.98537 -0.47405,-3.76001 -1.17265,-5.32394c-1.86682,-4.23661 -2.56639,-8.96564 -2.09873,-14.1871c0.65152,-0.95311 1.40877,-1.82745 2.27175,-2.623c2.39888,-2.18047 4.74442,-4.4086 7.0366,-6.68439c-0.00389,-0.06614 -0.00876,-0.14881 -0.0146,-0.24801c-0.07644,-0.7262 -0.12024,-1.47022 -0.13139,-2.23208c-5.21133,-10.10655 -12.05289,-18.42682 -20.52466,-24.96083c-3.03538,-2.33557 -6.00741,-4.73986 -8.91609,-7.21288c0.4859,-1.47702 1.06266,-2.84153 1.73028,-4.09356c0.03167,-0.03436 0.04459,-0.10115 0.03875,-0.20035z" fill-opacity="0.99608" fill="#2b2c3f"/><path d="M450.88925,378.28082c-0.00389,-0.06614 0.00805,-0.14945 0.03583,-0.24995c0.27586,-1.03806 0.36389,-2.1186 0.26409,-3.24161c1.06876,-3.02406 1.96261,-6.15737 2.68154,-9.39994c1.2473,-5.71551 3.47462,-10.52423 6.68198,-14.42615c6.70562,-8.01392 15.91772,-13.80445 27.63629,-17.3716c2.17169,-0.31571 4.43132,-0.56853 6.77889,-0.75845c7.44422,-0.61839 13.87585,-0.1206 19.2949,1.49337c11.38575,3.37254 20.42863,9.30453 27.12863,17.79597c6.69805,8.45838 11.11657,19.40749 13.25555,32.84732c0.1959,6.19016 -0.19603,11.83956 -1.17578,16.94818l0.15129,-0.00583c0.00584,0.0992 -0.00708,0.16599 -0.03875,0.20035c-0.66762,1.25202 -1.24438,2.61654 -1.73028,4.09356c2.90868,2.47302 5.88072,4.87731 8.91609,7.21288c8.47178,6.53401 15.31333,14.85428 20.52466,24.96083c0.01115,0.76186 0.05495,1.50588 0.13139,2.23208c0.00584,0.0992 0.01071,0.18187 0.0146,0.24801c-2.29218,2.27579 -4.63772,4.50392 -7.0366,6.68439c-0.86298,0.79555 -1.62022,1.66988 -2.27175,2.623c-0.46766,5.22146 0.23192,9.95049 2.09873,14.1871c0.6986,1.56393 1.08948,3.33858 1.17265,5.32394c0.31622,6.51695 -2.01435,10.71651 -6.99173,12.59866c-1.71321,0.66261 -3.43032,1.25909 -5.15132,1.78943c-1.71021,-0.43122 -3.16703,-1.13735 -4.37045,-2.11839c-0.03557,-0.03177 -0.05627,-0.09726 -0.06211,-0.19646c0.03821,-2.78547 -0.22102,-5.75834 -0.77771,-8.91859c-0.00389,-0.06614 -0.00876,-0.14881 -0.0146,-0.24801c0.39813,-0.6782 0.85059,-1.29222 1.35737,-1.84204c0.03167,-0.03436 0.04459,-0.10115 0.03875,-0.20035c2.35005,-0.7203 3.84747,-2.1866 4.49227,-4.39888c0.02973,-0.06743 0.04167,-0.15075 0.03583,-0.24995c-0.35019,-1.94193 -0.38655,-4.2771 -0.10911,-7.00551c0.18774,-1.96267 0.09581,-4.09684 -0.27579,-6.40251c-0.55616,-3.72371 -1.63201,-6.83081 -3.22756,-9.3213c-0.00389,-0.06614 -0.00876,-0.14881 -0.0146,-0.24801c-0.66072,0.22433 -0.96773,0.7333 -0.92101,1.52693c0.00584,0.0992 0.01071,0.18187 0.0146,0.24801c-0.01131,7.82215 -1.19631,14.59583 -3.55502,20.32104c-0.02973,0.06743 -0.04264,0.13422 -0.03875,0.20035c-3.82703,2.53381 -8.2587,4.5275 -13.29501,5.98106c-0.10086,0.00389 -0.18491,0.00713 -0.25215,0.00972c2.40455,0.2056 5.19282,0.34669 8.3648,0.42327c0.06724,-0.00259 0.15129,-0.00583 0.25215,-0.00972c2.27929,7.23671 1.45127,12.91949 -2.48405,17.04833c-1.46088,1.5146 -2.92079,3.04573 -4.37973,4.5934c-1.58563,1.68512 -3.31256,3.25969 -5.18077,4.72371c-3.1902,2.47612 -6.52266,4.82515 -9.99739,7.04709c3.32256,-0.22751 6.12383,-1.29663 8.4038,-3.20738c1.44478,-1.21569 3.07032,-2.22293 4.8766,-3.0217c0.86316,3.21473 1.05879,6.53804 0.58687,9.96995c-0.44803,3.26527 -1.30701,6.1321 -2.57697,8.60048c-1.17299,2.39836 -3.4941,3.8964 -6.96335,4.49414c-0.66656,0.12512 -1.41231,0.33616 -2.23725,0.6331c-8.27906,3.03685 -18.23169,4.54736 -29.85791,4.53152c-9.77127,0.01209 -17.25009,-2.53334 -22.43646,-7.63627c-0.55049,-1.33764 -0.73894,-2.8218 -0.56536,-4.45249c0.02973,-0.06743 0.04167,-0.15075 0.03583,-0.24995c-1.91352,1.2669 -3.79147,2.56558 -5.63385,3.89603c-0.06529,0.03566 -0.13156,0.05479 -0.1988,0.05738c-0.00389,-0.06614 -0.00876,-0.14881 -0.0146,-0.24801c-0.86883,-5.6008 -1.12542,-11.39091 -0.76977,-17.37033c-3.58587,-3.6732 -6.80846,-7.75812 -9.66778,-12.25476c-0.03557,-0.03177 -0.08697,-0.04636 -0.15421,-0.04377c0.17551,-7.89477 1.08015,-15.13821 2.71389,-21.73033c0.02973,-0.06743 0.04167,-0.15075 0.03583,-0.24995c-5.17966,-10.14091 -10.55033,-20.09217 -16.11202,-29.85378c-1.54388,-2.75763 -2.66017,-5.97917 -3.34886,-9.66463c-0.05309,-0.32938 -0.08936,-0.65941 -0.10883,-0.99009c3.96823,-7.57697 9.39372,-13.86782 16.27647,-18.87257c0.03362,-0.0013 0.04751,-0.05155 0.04167,-0.15075c-4.27651,-7.39172 -7.55627,-15.88244 -9.83928,-25.47215c-0.00389,-0.06614 -0.00876,-0.14881 -0.0146,-0.24801c-0.65577,-0.83644 -0.81503,-1.82458 -0.47777,-2.96444c0.02973,-0.06743 0.04167,-0.15075 0.03583,-0.24995M457.41599,377.53209c0.00584,0.0992 0.01071,0.18187 0.0146,0.24801c1.30075,2.63443 2.8242,5.04485 4.57033,7.23125c0.00195,0.03307 0.05335,0.04766 0.15421,0.04377c0.33514,1.11394 0.79601,2.07389 1.38259,2.87985c0.95393,1.32209 1.56494,1.39796 1.83301,0.22763c-0.00389,-0.06614 -0.00876,-0.14881 -0.0146,-0.24801c1.17616,-5.77905 2.62005,-11.30328 4.33166,-16.57269c-3.11572,-3.1279 -5.72563,-6.82215 -7.82973,-11.08276c-0.03557,-0.03177 -0.08697,-0.04636 -0.15421,-0.04377c-3.15233,4.26437 -4.58161,10.03661 -4.28786,17.31672M479.87969,343.55644c-0.06529,0.03566 -0.13156,0.05479 -0.1988,0.05738c1.43966,2.13193 2.89515,4.24669 4.36648,6.34426c0.03751,0.06484 0.05822,0.13033 0.06211,0.19646c3.86897,-2.96628 8.16377,-5.56784 12.88439,-7.80466c0.03362,-0.0013 0.04751,-0.05155 0.04167,-0.15075c-4.182,-0.63422 -8.90343,-0.70079 -14.16428,-0.19971c-0.10086,0.00389 -0.18491,0.00713 -0.25215,0.00972c-0.94773,0.50053 -1.86088,1.0163 -2.73942,1.54731M476.15502,345.53945c-0.03557,-0.03177 -0.08697,-0.04636 -0.15421,-0.04377c-4.63197,2.59798 -8.46369,5.91083 -11.49517,9.93854c-0.02973,0.06743 -0.04264,0.13422 -0.03875,0.20035c0.30595,0.61792 0.55146,1.35417 0.73655,2.20875l0.15129,-0.00583c0.00584,0.0992 0.01071,0.18187 0.0146,0.24801c0.00584,0.0992 0.02752,0.18123 0.06503,0.24606c1.34499,3.95844 3.29276,7.2805 5.8433,9.96618c-0.00389,-0.06614 0.00902,-0.13292 0.03875,-0.20035c2.60768,-5.50281 5.83777,-10.44961 9.69028,-14.8404c-2.07455,-2.04117 -3.69177,-4.61369 -4.85168,-7.71755M498.61666,339.00618c-0.03167,0.03436 0.10865,0.12838 0.42096,0.28206c1.04754,0.62248 1.92361,0.62185 2.62822,-0.00188c-0.94031,-1.09061 -1.9567,-1.184 -3.04918,-0.28018M494.8498,348.00052c0.00584,0.0992 -0.00805,0.14945 -0.04167,0.15075c-2.66148,1.72659 -5.14609,3.59551 -7.45385,5.60676c0.00584,0.0992 0.02654,0.16469 0.06211,0.19646c2.43605,2.4581 5.23636,4.52101 8.40091,6.18874c0.06724,-0.00259 0.72318,-1.45302 1.96783,-4.35128c1.2427,-2.93133 2.28315,-5.29144 3.12135,-7.08032l0.72221,-1.46955c-0.97499,0.03758 -1.98067,0.12606 -3.01706,0.26544l0.00584,0.0992c-0.10086,0.00389 -0.18491,0.00713 -0.25215,0.00972c-1.16892,0.17763 -2.34076,0.30566 -3.51552,0.38409M484.12436,356.41797c-0.03557,-0.03177 -0.08697,-0.04636 -0.15421,-0.04377c-4.18234,3.93951 -7.42217,8.72097 -9.71948,14.34438c-0.02973,0.06743 -0.04264,0.13422 -0.03875,0.20035c4.23616,6.13385 10.05503,10.53298 17.45661,13.19738c0.06919,0.03048 0.15421,0.04377 0.25507,0.03988c0.75378,-6.65763 1.60843,-13.31915 2.56393,-19.98455c0.02973,-0.06743 0.04167,-0.15075 0.03583,-0.24995c-3.95533,-1.93553 -7.42167,-4.43677 -10.39901,-7.50372M499.94994,365.94964c-1.03514,3.02276 -1.73532,6.29775 -2.10053,9.82497c-0.35937,3.62643 -0.77307,7.18866 -1.24109,10.6867c6.29601,2.7733 13.94523,3.92016 22.94765,3.44057c1.31119,-0.05054 2.58292,-0.19899 3.81518,-0.44535c1.39842,-0.28591 1.9106,-1.31651 1.53652,-3.0918c-1.17761,-7.41175 -2.98869,-14.13622 -5.43325,-20.17342c-0.03751,-0.06484 -0.05919,-0.14686 -0.06503,-0.24606c-6.78455,1.52096 -13.18602,1.53572 -19.20439,0.04428c-0.10281,-0.02918 -0.18783,-0.04247 -0.25507,-0.03988M500.50865,361.70239c-0.02778,0.1005 -0.03972,0.18382 -0.03583,0.24995c2.37235,0.80341 5.00711,1.19899 7.90429,1.18674c3.19976,-0.02391 6.00536,-0.44692 8.41681,-1.26902c0.06529,-0.03566 0.09307,-0.13616 0.08334,-0.3015c-3.2364,-5.1781 -6.94888,-9.85728 -11.13743,-14.03754c-0.03557,-0.03177 -0.05627,-0.09726 -0.06211,-0.19646c-1.98783,4.58406 -3.71085,9.37333 -5.16907,14.36783M473.1306,375.73318c-0.03557,-0.03177 -0.08697,-0.04636 -0.15421,-0.04377c-1.82309,3.94799 -2.90025,8.54666 -3.23149,13.796c0.00584,0.0992 0.01071,0.18187 0.0146,0.24801l-0.15129,0.00583c0.00036,1.72342 -0.1089,3.30191 -0.32779,4.73549c6.42873,6.74533 13.93631,12.35536 22.52274,16.83009c1.25315,0.68084 2.07587,0.63255 2.46816,-0.14486c-0.90704,-2.81532 -1.71615,-5.68413 -2.42731,-8.60643l0.15129,-0.00583l0.10086,-0.00389c-0.41389,-3.59662 -0.58244,-7.31869 -0.50566,-11.16622l0.10086,-0.00389c0.09944,-0.6004 0.11581,-1.18104 0.0491,-1.74189c-0.34593,-0.15238 -0.6909,-0.28822 -1.03488,-0.40754c-0.10281,-0.02918 -0.18783,-0.04247 -0.25507,-0.03988c-0.00389,-0.06614 -0.00876,-0.14881 -0.0146,-0.24801c-6.98788,-3.07806 -12.75632,-7.47913 -17.30532,-13.20321M464.39798,397.39724c0.06777,-0.56604 0.20667,-1.06854 0.41671,-1.50749c-1.34959,-1.17426 -2.55762,-2.5197 -3.62409,-4.0363c-0.03557,-0.03177 -0.08697,-0.04636 -0.15421,-0.04377c0.93872,2.78096 2.05022,4.7764 3.33452,5.98632l0.02707,-0.39876M469.92674,401.16126c-0.48731,0.8805 -0.46864,2.05635 0.05601,3.52756c0.41406,1.30975 0.70461,2.52484 0.87166,3.64526c6.25656,8.97254 15.33598,14.95284 27.23825,17.94089c0.78494,0.1686 1.45248,0.06001 2.00261,-0.32577c0.06335,-0.06873 0.09015,-0.18576 0.08042,-0.3511c-1.51274,-2.22855 -2.73944,-4.74983 -3.6801,-7.56386c-0.03751,-0.06484 -0.05919,-0.14686 -0.06503,-0.24606c-4.91616,-2.22992 -9.67396,-4.63166 -14.27339,-7.20522c-4.59943,-2.57356 -8.67624,-5.71412 -12.23043,-9.42169M497.39213,392.04882c-0.06724,0.00259 -0.13253,0.03825 -0.19588,0.10698c-0.48006,1.57622 -0.50164,3.49934 -0.06475,5.76935c0.35213,1.975 0.76567,3.8482 1.2406,5.61961c0.00584,0.0992 0.01071,0.18187 0.0146,0.24801c0.4553,3.72759 1.24317,7.09437 2.36361,10.10032c2.4157,0.96745 4.87529,1.5355 7.37875,1.70414c5.44594,0.3535 10.74334,-0.09927 15.89218,-1.35832c-0.00389,-0.06614 0.00805,-0.14945 0.03583,-0.24995c1.27402,-4.68911 1.95924,-9.93553 2.05566,-15.73924c-0.43211,-1.04391 -0.59623,-2.11473 -0.49237,-3.21245c0.02973,-0.06743 0.04167,-0.15075 0.03583,-0.24995c-0.00389,-0.06614 -0.00876,-0.14881 -0.0146,-0.24801c0.07166,-0.49991 0.12652,-0.99916 0.16456,-1.49777c-5.76674,2.21087 -11.94507,2.5816 -18.53499,1.11219c-3.21091,-0.73794 -6.50392,-1.43958 -9.87904,-2.1049M503.44703,426.21771c0.03946,0.09791 0.06114,0.17993 0.06503,0.24606c6.08667,0.36194 11.502,-0.37709 16.24598,-2.2171c0.03362,-0.0013 0.04751,-0.05155 0.04167,-0.15075c0.99604,-1.39725 1.72727,-2.99973 2.19371,-4.80742c0.02973,-0.06743 0.04167,-0.15075 0.03583,-0.24995c-7.18994,1.50344 -13.93734,1.36582 -20.24219,-0.41285c-0.10281,-0.02918 -0.18783,-0.04247 -0.25507,-0.03988c0.40079,2.80169 1.03914,5.34566 1.91504,7.6319M467.78774,417.202c-0.06919,-0.03048 -0.1374,-0.04442 -0.20464,-0.04183c2.01528,6.18632 5.18568,11.10182 9.51119,14.74651c0.03557,0.03177 0.10378,0.04571 0.20464,0.04183c0.00584,0.0992 0.02752,0.18123 0.06503,0.24606c0.18562,0.29113 0.43556,0.53007 0.74982,0.71681c0.00584,0.0992 0.02557,0.14816 0.05919,0.14686c1.50601,0.96938 2.9784,1.94005 4.41717,2.91201c0.00584,0.0992 0.02557,0.14816 0.05919,0.14686c1.78276,1.09128 3.51703,2.21757 5.20282,3.37887c0.06724,-0.00259 0.13545,0.01135 0.20464,0.04183c4.3694,3.24529 10.29177,4.82328 17.76714,4.73398c1.95581,0.02404 3.62903,-0.17303 5.01967,-0.59121c1.55679,-0.45773 3.06705,-0.84737 4.53076,-1.16894c8.64782,-1.92421 14.97088,-5.84681 18.9692,-11.76779c-1.49628,-0.80404 -2.91054,-0.50095 -4.24278,0.90926c-0.28701,0.27621 -0.60861,0.53717 -0.96481,0.78291c-1.0033,0.70153 -2.06189,1.32234 -3.17578,1.86242c-4.59287,0.97247 -9.27855,1.79938 -14.05704,2.48072c-1.90467,0.27228 -3.81518,0.44535 -5.73154,0.51922c-4.95385,-0.0079 -9.22574,-0.73808 -12.81567,-2.19056c-0.06919,-0.03048 -0.1374,-0.04442 -0.20464,-0.04183c-0.89943,-0.39619 -1.84248,-0.67469 -2.82914,-0.83551c-0.10281,-0.02918 -0.18783,-0.04247 -0.25507,-0.03988c-0.00389,-0.06614 -0.00876,-0.14881 -0.0146,-0.24801c-0.52182,-0.27817 -1.02586,-0.54046 -1.51211,-0.78685c-0.03362,0.0013 -0.05335,-0.04766 -0.05919,-0.14686c-0.00389,-0.06614 -0.00876,-0.14881 -0.0146,-0.24801c-1.82859,-0.72494 -3.49978,-1.63823 -5.01357,-2.73988c-0.06919,-0.03048 -0.1374,-0.04442 -0.20464,-0.04183c-0.00389,-0.06614 -0.00876,-0.14881 -0.0146,-0.24801c-1.5099,-1.03551 -2.93868,-2.12386 -4.28632,-3.26506c-0.06919,-0.03048 -0.1374,-0.04442 -0.20464,-0.04183c-0.00389,-0.06614 -0.00876,-0.14881 -0.0146,-0.24801c-3.74087,-2.8718 -7.3877,-5.86322 -10.94048,-8.97427M508.7436,339.31181c-0.10281,-0.02918 -0.18783,-0.04247 -0.25507,-0.03988c-1.58741,-0.63481 -2.88276,-0.60145 -3.88605,0.10008c-0.06529,0.03566 -0.02583,0.13357 0.11838,0.29372c0.46768,1.07569 1.25165,1.22775 2.35191,0.4562c0.03167,-0.03436 0.09794,-0.05349 0.1988,-0.05738c0.06724,-0.00259 0.15129,-0.00583 0.25215,-0.00972c1.6849,0.00134 3.277,-0.14289 4.77628,-0.43269c-1.31313,0.01748 -2.4986,-0.08597 -3.5564,-0.31034M510.43302,343.96954c-0.30842,-0.08754 -0.61198,-0.09241 -0.91067,-0.01461c3.41423,5.33696 6.93295,11.0179 10.55617,17.0428c0.03751,0.06484 0.05822,0.13033 0.06211,0.19646c3.8488,-0.44665 6.8533,-2.07046 9.01348,-4.87145c0.03167,-0.03436 0.04459,-0.10115 0.03875,-0.20035c-4.56263,-5.95555 -10.81591,-10.0065 -18.75984,-12.15285M519.87888,343.00885c0.03557,0.03177 0.07016,0.04701 0.10378,0.04571c0.28064,0.18804 0.84387,0.59719 1.68968,1.22744c0.10475,0.06225 0.22729,0.14038 0.36761,0.2344c1.65412,1.19567 3.49872,2.76513 5.53381,4.7084c2.17736,2.07035 3.31744,3.12012 3.42024,3.1493c0.68798,0.23862 0.90996,-0.28365 0.66594,-1.56681c-0.00389,-0.06614 -0.00876,-0.14881 -0.0146,-0.24801c-3.34327,-2.98655 -6.37184,-5.20638 -9.0857,-6.65948c-1.21758,-0.64907 -2.05269,-1.09745 -2.50533,-1.34514c-0.13837,-0.06095 -0.29356,-0.12126 -0.46555,-0.18091c-1.41541,-0.57515 -1.31871,-0.36345 0.29011,0.6351M535.21238,355.3435c-0.03557,-0.03177 -0.11864,-0.012 -0.24923,0.05932c-0.53261,0.68339 -0.71221,1.35317 -0.5388,2.00934l0.15129,-0.00583c0.00584,0.0992 0.02654,0.16469 0.06211,0.19646c0.14616,0.19322 0.30816,0.36926 0.48599,0.52812c0.00584,0.0992 0.01071,0.18187 0.0146,0.24801c0.00584,0.0992 0.02654,0.16469 0.06211,0.19646c3.46395,5.03676 6.62701,10.39998 9.48916,16.08965c-0.00389,-0.06614 0.00805,-0.14945 0.03583,-0.24995c0.3431,-1.04065 0.41653,-2.3692 0.22029,-3.98564c-2.68185,-6.06119 -5.9263,-11.08984 -9.73335,-15.08595M531.82082,359.55081c-0.03557,-0.03177 -0.08697,-0.04636 -0.15421,-0.04377c-2.66979,2.15777 -5.83655,3.88727 -9.50026,5.1885c-0.03167,0.03436 -0.04556,0.08461 -0.04167,0.15075c3.11307,5.94514 5.27053,13.40198 6.47239,22.37051l0.15129,-0.00583c2.12055,-0.61203 3.93878,-1.49412 5.45469,-2.64627c0.03167,-0.03436 0.09794,-0.05349 0.1988,-0.05738c0.06724,-0.00259 0.13351,-0.02172 0.1988,-0.05738c3.08049,-1.4776 5.68083,-3.38413 7.80102,-5.71957c-1.67341,-3.81321 -3.36363,-7.62577 -5.07066,-11.43768c-0.03557,-0.03177 -0.08697,-0.04636 -0.15421,-0.04377c-0.00389,-0.06614 -0.00876,-0.14881 -0.0146,-0.24801c-0.00389,-0.06614 -0.00876,-0.14881 -0.0146,-0.24801c-1.72808,-2.45224 -3.50368,-4.85294 -5.32678,-7.2021M544.82132,401.80396c0.03167,-0.03436 0.09794,-0.05349 0.1988,-0.05738c0.19269,-3.02343 0.25992,-6.17459 0.2017,-9.45349c-0.00389,-0.06614 -0.00876,-0.14881 -0.0146,-0.24801c-0.48945,-3.16285 -1.08975,-6.20542 -1.80091,-9.12772c-0.00389,-0.06614 -0.00876,-0.14881 -0.0146,-0.24801c-3.65221,3.7865 -8.17482,6.81112 -13.56785,9.07387c-0.03167,0.03436 -0.04556,0.08461 -0.04167,0.15075c0.67189,6.83467 0.47284,13.47092 -0.59715,19.90874c0.00584,0.0992 0.01071,0.18187 0.0146,0.24801c6.68422,-2.08052 11.89145,-5.4961 15.62169,-10.24675M549.25977,423.10945c0.03362,-0.0013 0.04751,-0.05155 0.04167,-0.15075c-1.03639,0.13938 -1.42373,-0.14398 -1.16202,-0.85006c0.11307,-0.36893 0.07582,-0.71549 -0.11175,-1.03969c-0.66745,-1.03484 -1.50716,-1.84762 -2.51913,-2.43832c-1.73515,0.86231 -3.25496,1.94833 -4.55942,3.25804c-0.03167,0.03436 -0.04556,0.08461 -0.04167,0.15075c2.30263,1.33638 5.08674,1.69306 8.35232,1.07004M528.50928,417.49619c-0.09891,0.03696 -0.18199,0.05673 -0.24923,0.05932c-0.5273,1.34604 -1.02099,2.69079 -1.48105,4.03423c-0.02778,0.1005 -0.03972,0.18382 -0.03583,0.24995c5.79452,-2.31137 10.46675,-5.65661 14.01668,-10.03574c0.03167,-0.03436 0.04459,-0.10115 0.03875,-0.20035c-3.66672,2.39506 -7.76316,4.35925 -12.28932,5.89258M538.47576,471.74801c0.03362,-0.0013 0.04751,-0.05155 0.04167,-0.15075c-1.43541,-0.34238 -2.42526,-0.27108 -2.96955,0.2139c-0.03167,0.03436 -0.04556,0.08461 -0.04167,0.15075c1.28535,0.08302 2.2752,0.01172 2.96955,-0.2139M496.46069,474.11331l-0.00876,-0.14881c-8.56803,-3.01715 -16.39172,-6.84185 -23.47109,-11.4741c-0.06919,-0.03048 -0.1374,-0.04442 -0.20464,-0.04183c0.38239,1.34412 1.01817,2.41332 1.90733,3.20762c0.03751,0.06484 0.05822,0.13033 0.06211,0.19646c-1.84185,0.767 -2.90487,1.88512 -3.18904,3.35436c-0.03362,0.0013 -0.08405,0.00324 -0.15129,0.00583c2.51993,1.59315 5.51496,2.67084 8.9851,3.23307c3.77661,0.61671 7.17783,0.86674 10.20364,0.7501c0.19535,0.45647 0.62826,0.65521 1.29871,0.59622l0.00584,0.0992c1.61766,0.00393 3.13836,0.07788 4.56208,0.22186z" fill="#000000"/><path d="M496.45193,473.96451l0.00876,0.14881c-1.42373,-0.14398 -2.94442,-0.21793 -4.56208,-0.22186l-0.00584,-0.0992c-0.67046,0.05899 -1.10336,-0.13975 -1.29871,-0.59622c-3.02582,0.11664 -6.42703,-0.1334 -10.20364,-0.7501c-3.47014,-0.56223 -6.46517,-1.63993 -8.9851,-3.23307c0.06724,-0.00259 0.11767,-0.00454 0.15129,-0.00583c0.28418,-1.46924 1.34719,-2.58736 3.18904,-3.35436c-0.00389,-0.06614 -0.0246,-0.13162 -0.06211,-0.19646c-0.88917,-0.7943 -1.52495,-1.8635 -1.90733,-3.20762c0.06724,-0.00259 0.13545,0.01135 0.20464,0.04183c7.07936,4.63225 14.90306,8.45695 23.47109,11.4741z" fill="#2c2d40"/><path d="M538.51744,471.59726c0.00584,0.0992 -0.00805,0.14945 -0.04167,0.15075c-0.69435,0.22562 -1.68419,0.29692 -2.96955,0.2139c-0.00389,-0.06614 0.01,-0.11639 0.04167,-0.15075c0.54429,-0.48498 1.53414,-0.55628 2.96955,-0.2139z" fill="#353849"/><path d="M528.26005,417.55551c0.06724,-0.00259 0.15032,-0.02237 0.24923,-0.05932c4.52616,-1.53333 8.6226,-3.49752 12.28932,-5.89258c0.00584,0.0992 -0.00708,0.16599 -0.03875,0.20035c-3.54993,4.37913 -8.22216,7.72437 -14.01668,10.03574c-0.00389,-0.06614 0.00805,-0.14945 0.03583,-0.24995c0.46006,-1.34345 0.95375,-2.68819 1.48105,-4.03423M545.02012,401.74659c-0.10086,0.00389 -0.16713,0.02301 -0.1988,0.05738c-3.73024,4.75065 -8.93747,8.16623 -15.62169,10.24675c-0.00389,-0.06614 -0.00876,-0.14881 -0.0146,-0.24801c1.06999,-6.43782 1.26904,-13.07406 0.59715,-19.90874c-0.00389,-0.06614 0.01,-0.11639 0.04167,-0.15075c5.39303,-2.26275 9.91565,-5.28737 13.56785,-9.07387c0.00584,0.0992 0.01071,0.18187 0.0146,0.24801c0.71116,2.9223 1.31147,5.96488 1.80091,9.12772c0.00584,0.0992 0.01071,0.18187 0.0146,0.24801c0.05822,3.2789 -0.00901,6.43006 -0.2017,9.45349M537.1768,367.24892c0.06724,-0.00259 0.11864,0.012 0.15421,0.04377c1.70703,3.81191 3.39725,7.62447 5.07066,11.43768c-2.12019,2.33544 -4.72053,4.24197 -7.80102,5.71957c-0.06529,0.03566 -0.13156,0.05479 -0.1988,0.05738c-0.00389,-0.06614 0.00805,-0.14945 0.03583,-0.24995c1.59075,-5.03275 2.50379,-10.70223 2.73912,-17.00845M534.96314,355.40282c0.13059,-0.07132 0.21367,-0.09109 0.24923,-0.05932c3.80706,3.9961 7.05151,9.02475 9.73335,15.08595c0.19624,1.61644 0.12281,2.94498 -0.22029,3.98564c-0.02778,0.1005 -0.03972,0.18382 -0.03583,0.24995c-2.86215,-5.68967 -6.02521,-11.05289 -9.48916,-16.08965c-0.03557,-0.03177 -0.05627,-0.09726 -0.06211,-0.19646c0.06724,-0.00259 0.15129,-0.00583 0.25215,-0.00972c0.33426,-0.04603 0.48776,-0.30052 0.46051,-0.76347c-0.50714,-1.17359 -0.92031,-1.32338 -1.23952,-0.44936c-0.02778,0.1005 -0.03972,0.18382 -0.03583,0.24995l-0.15129,0.00583c-0.17341,-0.65617 0.00619,-1.32595 0.5388,-2.00934M503.51206,426.46377c-0.00389,-0.06614 -0.02557,-0.14816 -0.06503,-0.24606c-0.8759,-2.28624 -1.51425,-4.8302 -1.91504,-7.6319c0.06724,-0.00259 0.15226,0.0107 0.25507,0.03988c6.30485,1.77868 13.05225,1.9163 20.24219,0.41285c0.00584,0.0992 -0.0061,0.18252 -0.03583,0.24995c-0.46643,1.80769 -1.19767,3.41017 -2.19371,4.80742c0.00584,0.0992 -0.00805,0.14945 -0.04167,0.15075c-4.74398,1.84001 -10.15931,2.57905 -16.24598,2.2171M498.3721,403.54476c0.06724,-0.00259 0.15129,-0.00583 0.25215,-0.00972c11.86351,0.03983 20.87416,-2.87608 27.03195,-8.74773c0.00584,0.0992 -0.0061,0.18252 -0.03583,0.24995c-0.10387,1.09772 0.06026,2.16853 0.49237,3.21245c-0.09642,5.80372 -0.78164,11.05013 -2.05566,15.73924c-0.02778,0.1005 -0.03972,0.18382 -0.03583,0.24995c-5.14884,1.25905 -10.44623,1.71182 -15.89218,1.35832c-2.50347,-0.16864 -4.96305,-0.73669 -7.37875,-1.70414c-1.12044,-3.00595 -1.90832,-6.37273 -2.36361,-10.10032c-0.00389,-0.06614 -0.00876,-0.14881 -0.0146,-0.24801M469.98276,404.68882c-0.52466,-1.4712 -0.54333,-2.64706 -0.05601,-3.52756c3.5542,3.70757 7.63101,6.84813 12.23043,9.42169c4.59943,2.57356 9.35722,4.9753 14.27339,7.20522c0.00584,0.0992 0.02752,0.18123 0.06503,0.24606c0.94066,2.81403 2.16737,5.33531 3.6801,7.56386c0.00973,0.16534 -0.01707,0.28237 -0.08042,0.3511c-0.55013,0.38578 -1.21767,0.49437 -2.00261,0.32577c-11.90227,-2.98805 -20.98168,-8.96835 -27.23825,-17.94089c-0.16704,-1.12042 -0.45759,-2.3355 -0.87166,-3.64526M464.81469,395.88974c-0.21004,0.43895 -0.34894,0.94145 -0.41671,1.50749l-0.02707,0.39876c-1.28429,-1.20992 -2.3958,-3.20536 -3.33452,-5.98632c0.06724,-0.00259 0.11864,0.012 0.15421,0.04377c1.06647,1.5166 2.2745,2.86204 3.62409,4.0363M469.7595,389.73342c0.00973,0.16534 0.01947,0.33068 0.0292,0.49602c0.01947,0.33068 0.11811,0.57545 0.29595,0.73431c6.18914,4.96485 13.48783,8.74351 21.89607,11.33596c0.00584,0.0992 0.01071,0.18187 0.0146,0.24801l-0.15129,0.00583c0.71116,2.9223 1.52027,5.79111 2.42731,8.60643c-0.39229,0.77741 -1.21501,0.82569 -2.46816,0.14486c-8.58643,-4.47473 -16.09401,-10.08476 -22.52274,-16.83009c0.21888,-1.43358 0.32814,-3.01208 0.32779,-4.73549l0.15129,-0.00583M462.35977,385.09695c1.067,0.95316 2.07066,1.97504 3.01096,3.06565c-0.26807,1.17033 -0.87908,1.09446 -1.83301,-0.22763c-0.58659,-0.80596 -1.04745,-1.76591 -1.38259,-2.87985c0.06724,-0.00259 0.13545,0.01135 0.20464,0.04183z" fill="#343444"/><path d="M549.30144,422.9587c0.00584,0.0992 -0.00805,0.14945 -0.04167,0.15075c-3.26558,0.62302 -6.04969,0.26634 -8.35232,-1.07004c-0.00389,-0.06614 0.01,-0.11639 0.04167,-0.15075c1.30446,-1.30971 2.82427,-2.39573 4.55942,-3.25804c1.01197,0.59071 1.85168,1.40348 2.51913,2.43832c0.18757,0.3242 0.22481,0.67076 0.11175,1.03969c-0.26171,0.70609 0.12564,0.98944 1.16202,0.85006z" fill="#2c2c3f"/><path d="M531.66661,359.50704c0.06724,-0.00259 0.11864,0.012 0.15421,0.04377c1.82311,2.34915 3.5987,4.74985 5.32678,7.2021c0.00584,0.0992 0.01071,0.18187 0.0146,0.24801c0.00584,0.0992 0.01071,0.18187 0.0146,0.24801c-0.23533,6.30622 -1.14837,11.9757 -2.73912,17.00845c-0.02778,0.1005 -0.03972,0.18382 -0.03583,0.24995c-0.10086,0.00389 -0.16713,0.02301 -0.1988,0.05738c-1.51591,1.15215 -3.33415,2.03424 -5.45469,2.64627l-0.15129,0.00583c-1.20186,-8.96853 -3.35932,-16.42537 -6.47239,-22.37051c-0.00389,-0.06614 0.01,-0.11639 0.04167,-0.15075c3.66371,-1.30123 6.83047,-3.03073 9.50026,-5.1885M515.37437,442.51165c-1.46372,0.32157 -2.97397,0.71121 -4.53076,1.16894c-1.39064,0.41818 -3.06386,0.61525 -5.01967,0.59121c-0.00389,-0.06614 -0.00876,-0.14881 -0.0146,-0.24801c0.35389,-2.00221 0.47465,-4.24401 0.36229,-6.7254c1.91635,-0.07387 3.82686,-0.24695 5.73154,-0.51922c4.77849,-0.68134 9.46417,-1.50825 14.05704,-2.48072c1.11389,-0.54008 2.17248,-1.16089 3.17578,-1.86242c0.3562,-0.24573 0.6778,-0.5067 0.96481,-0.78291c1.33224,-1.41021 2.7465,-1.7133 4.24278,-0.90926c-3.99831,5.92098 -10.32138,9.84358 -18.9692,11.76779M467.5831,417.16018c0.06724,-0.00259 0.13545,0.01135 0.20464,0.04183c3.55278,3.11105 7.1996,6.10247 10.94048,8.97427c0.00584,0.0992 0.01071,0.18187 0.0146,0.24801c-0.28807,1.4031 -0.41414,2.98225 -0.37822,4.73744l-0.10086,0.00389c-0.00389,-0.06614 -0.00876,-0.14881 -0.0146,-0.24801c-0.11112,0.402 -0.36159,0.72651 -0.75141,0.97354c-0.06529,0.03566 -0.13156,0.05479 -0.1988,0.05738c-0.10086,0.00389 -0.16907,-0.01005 -0.20464,-0.04183c-4.32551,-3.64469 -7.49591,-8.56019 -9.51119,-14.74651M497.19625,392.1558c0.06335,-0.06873 0.12864,-0.10439 0.19588,-0.10698c3.37512,0.66533 6.66813,1.36696 9.87904,2.1049c6.58992,1.4694 12.76825,1.09867 18.53499,-1.11219c-0.03804,0.49861 -0.0929,0.99787 -0.16456,1.49777c0.00584,0.0992 0.01071,0.18187 0.0146,0.24801c-6.15779,5.87166 -15.16844,8.78757 -27.03195,8.74773c-0.10086,0.00389 -0.18491,0.00713 -0.25215,0.00972c-0.47493,-1.77141 -0.88847,-3.64461 -1.2406,-5.61961c-0.43689,-2.27002 -0.41531,-4.19313 0.06475,-5.76935M500.47281,361.95234c-0.00389,-0.06614 0.00805,-0.14945 0.03583,-0.24995c1.45822,-4.9945 3.18124,-9.78377 5.16907,-14.36783c0.00584,0.0992 0.02654,0.16469 0.06211,0.19646c4.18856,4.18026 7.90103,8.85944 11.13743,14.03754c0.00973,0.16534 -0.01805,0.26584 -0.08334,0.3015c-2.41145,0.8221 -5.21706,1.24511 -8.41681,1.26902c-2.89718,0.01225 -5.53194,-0.38333 -7.90429,-1.18674M494.80813,348.15127c0.03362,-0.0013 0.04751,-0.05155 0.04167,-0.15075c1.17476,-0.07843 2.3466,-0.20646 3.51552,-0.38409c0.06724,-0.00259 0.15129,-0.00583 0.25215,-0.00972l-0.00584,-0.0992c1.03639,-0.13938 2.04207,-0.22786 3.01706,-0.26544l-0.72221,1.46955c-0.8382,1.78888 -1.87865,4.14899 -3.12135,7.08032c-1.24465,2.89826 -1.90059,4.34869 -1.96783,4.35128c-3.16455,-1.66773 -5.96485,-3.73064 -8.40091,-6.18874c-0.03557,-0.03177 -0.05627,-0.09726 -0.06211,-0.19646c2.30776,-2.01124 4.79237,-3.88016 7.45385,-5.60676z" fill="#475c81"/><path d="M535.13833,358.37893c-0.00389,-0.06614 -0.00876,-0.14881 -0.0146,-0.24801c-0.17783,-0.15886 -0.33983,-0.3349 -0.48599,-0.52812c-0.03557,-0.03177 -0.05627,-0.09726 -0.06211,-0.19646c-0.00389,-0.06614 0.00805,-0.14945 0.03583,-0.24995c0.31921,-0.87402 0.73239,-0.72423 1.23952,0.44936c0.02725,0.46295 -0.12625,0.71744 -0.46051,0.76347c-0.10086,0.00389 -0.18491,0.00713 -0.25215,0.00972z" fill="#425574"/><path d="M520.01265,342.70541l0.05043,-0.00194c-0.34983,-0.21852 -0.50793,-0.32842 -0.47431,-0.32972c0.17199,0.05966 0.32718,0.11996 0.46555,0.18091c0.45263,0.24769 1.28774,0.69607 2.50533,1.34514c2.71386,1.4531 5.74243,3.67293 9.0857,6.65948c0.00584,0.0992 0.01071,0.18187 0.0146,0.24801c0.24401,1.28317 0.02203,1.80544 -0.66594,1.56681c-0.10281,-0.02918 -1.24289,-1.07895 -3.42024,-3.1493c-2.03509,-1.94327 -3.87969,-3.51273 -5.53381,-4.7084l-1.6926,-1.27704l-0.16005,-0.14297c-0.03362,0.0013 -0.15421,-0.04377 -0.36177,-0.1352l0.25215,-0.00972c-0.07113,-0.06354 -0.14129,-0.11055 -0.21048,-0.14103c-0.87944,-0.62896 -0.83095,-0.66397 0.14545,-0.10504z" fill="#415476"/><path d="M520.06308,342.70347l-0.05043,0.00194c-0.9764,-0.55893 -1.02489,-0.52392 -0.14545,0.10504c0.06919,0.03048 0.13935,0.07749 0.21048,0.14103l-0.25215,0.00972c0.20756,0.09143 0.32815,0.13649 0.36177,0.1352l0.16005,0.14297l1.6926,1.27704c-0.14032,-0.09402 -0.26286,-0.17215 -0.36761,-0.2344c-0.84582,-0.63025 -1.40904,-1.0394 -1.68968,-1.22744c-0.03362,0.0013 -0.06821,-0.01394 -0.10378,-0.04571c-1.60882,-0.99856 -1.70552,-1.21026 -0.29011,-0.6351c-0.03362,0.0013 0.12448,0.1112 0.47431,0.32972z" fill="#415370"/><path d="M509.52236,343.95493c0.29869,-0.0778 0.60224,-0.07293 0.91067,0.01461c7.94393,2.14635 14.19721,6.1973 18.75984,12.15285c0.00584,0.0992 -0.00708,0.16599 -0.03875,0.20035c-2.16018,2.80098 -5.16467,4.4248 -9.01348,4.87145c-0.00389,-0.06614 -0.0246,-0.13162 -0.06211,-0.19646c-3.62321,-6.02491 -7.14193,-11.70584 -10.55617,-17.0428z" fill="#465c81"/><path d="M508.48852,339.27192c0.06724,-0.00259 0.15226,0.0107 0.25507,0.03988c1.0578,0.22437 2.24326,0.32781 3.5564,0.31034c-1.49928,0.28979 -3.09138,0.43402 -4.77628,0.43269c-0.10086,0.00389 -0.18491,0.00713 -0.25215,0.00972c-0.10086,0.00389 -0.16713,0.02301 -0.1988,0.05738c-1.10026,0.77156 -1.88423,0.61949 -2.35191,-0.4562c-0.14421,-0.16016 -0.18367,-0.25806 -0.11838,-0.29372c1.0033,-0.70153 2.29865,-0.73489 3.88605,-0.10008M499.03762,339.28823c-0.31231,-0.15368 -0.45263,-0.24769 -0.42096,-0.28206c1.09248,-0.90383 2.10887,-0.81043 3.04918,0.28018c-0.70461,0.62373 -1.58068,0.62436 -2.62822,0.00188z" fill="#435878"/><path d="M488.48119,433.00889c0.00584,0.0992 0.02557,0.14816 0.05919,0.14686c0.48625,0.2464 0.99029,0.50868 1.51211,0.78685c0.00584,0.0992 0.01071,0.18187 0.0146,0.24801c0.00584,0.0992 0.02557,0.14816 0.05919,0.14686c1.11283,0.58682 2.12117,0.82966 3.02502,0.72854c0.06724,-0.00259 0.13545,0.01135 0.20464,0.04183c3.58993,1.45247 7.86182,2.18266 12.81567,2.19056c0.11237,2.48138 -0.00839,4.72318 -0.36229,6.7254c0.00584,0.0992 0.01071,0.18187 0.0146,0.24801c-7.47536,0.0893 -13.39774,-1.48869 -17.76714,-4.73398c-0.06919,-0.03048 -0.1374,-0.04442 -0.20464,-0.04183c-0.00389,-0.06614 -0.00876,-0.14881 -0.0146,-0.24801c0.35584,-1.96915 0.57038,-4.04884 0.64363,-6.2391M478.26374,431.16561l0.10086,-0.00389c-0.03592,-1.75519 0.09015,-3.33433 0.37822,-4.73744c0.06724,-0.00259 0.13545,0.01135 0.20464,0.04183c1.34764,1.14119 2.77641,2.22955 4.28632,3.26506c0.00584,0.0992 0.01071,0.18187 0.0146,0.24801c-0.50589,1.70979 -0.69168,3.70552 -0.55737,5.9872l-0.10086,0.00389c-1.43877,-0.97197 -2.91116,-1.94264 -4.41717,-2.91201c-0.03362,0.0013 -0.05335,-0.04766 -0.05919,-0.14686c-0.00389,-0.06614 0.00902,-0.13292 0.03875,-0.20035c0.21393,-0.37282 0.251,-0.88796 0.11121,-1.54543M465.35473,357.83749c0.03857,-1.06206 0.30833,-1.9176 0.80927,-2.56662c0.09502,-0.10309 0.20685,-0.20683 0.33549,-0.31122c2.61034,-2.02291 5.61288,-3.67979 9.00764,-4.97065c-2.37606,3.14073 -4.66222,6.37743 -6.8585,9.7101c-0.09113,0.16923 -0.30479,0.26032 -0.641,0.27328c-1.44567,0.05573 -2.29148,-0.57453 -2.53745,-1.89076l-0.10086,0.00389c-0.00389,-0.06614 -0.00876,-0.14881 -0.0146,-0.24801M486.57657,344.83944c0.00584,0.0992 0.01071,0.18187 0.0146,0.24801c-0.76954,2.38281 -2.08392,2.66547 -3.94312,0.848c-0.03557,-0.03177 -0.05627,-0.09726 -0.06211,-0.19646c-0.46821,-0.51224 -0.4974,-1.00826 -0.08759,-1.48805c1.42142,-1.61251 2.76623,-1.66435 4.03442,-0.15552c-0.01805,0.26584 -0.00345,0.51385 0.0438,0.74403M459.72249,369.48889c0.06724,-0.00259 0.1167,-0.02107 0.14837,-0.05543c0.6931,-3.109 2.34544,-4.23327 4.95703,-3.3728c0.00584,0.0992 0.01071,0.18187 0.0146,0.24801c0.00584,0.0992 0.01071,0.18187 0.0146,0.24801l0.10086,-0.00389c-0.00248,0.53038 0.15147,0.85588 0.46184,0.97648c-0.18226,0.33845 -0.28754,0.83966 -0.31585,1.5036l-0.10086,0.00389c-0.9449,1.69357 -1.62305,3.62542 -2.03445,5.79557c-0.03362,0.0013 -0.08405,0.00324 -0.15129,0.00583c0.11237,2.48138 -0.38087,4.40611 -1.47972,5.77418c-0.09307,0.13616 -0.0514,-0.01459 0.12501,-0.45225c0.08918,-0.20229 0.12404,-0.46878 0.10457,-0.79946c-0.00389,-0.06614 -0.00876,-0.14881 -0.0146,-0.24801c-0.62587,-3.19073 -1.23591,-6.39865 -1.83011,-9.62374z" fill="#8fbbbe"/><path d="M490.0671,434.19062c0.06724,-0.00259 0.15226,0.0107 0.25507,0.03988c0.98666,0.16082 1.92971,0.43933 2.82914,0.83551c-0.90385,0.10113 -1.91219,-0.14172 -3.02502,-0.72854c-0.03362,0.0013 -0.05335,-0.04766 -0.05919,-0.14686z" fill="#94c3c7"/><path d="M478.24914,430.9176c0.00584,0.0992 0.01071,0.18187 0.0146,0.24801c0.13979,0.65747 0.10272,1.17261 -0.11121,1.54543c-0.02973,0.06743 -0.04264,0.13422 -0.03875,0.20035c-0.31426,-0.18674 -0.5642,-0.42568 -0.74982,-0.71681c-0.03751,-0.06484 -0.05919,-0.14686 -0.06503,-0.24606c0.06724,-0.00259 0.13351,-0.02172 0.1988,-0.05738c0.38982,-0.24703 0.64029,-0.57154 0.75141,-0.97354M483.24838,429.97918c0.06724,-0.00259 0.13545,0.01135 0.20464,0.04183c1.5138,1.10165 3.18499,2.01494 5.01357,2.73988c0.00584,0.0992 0.01071,0.18187 0.0146,0.24801c-0.07325,2.19025 -0.2878,4.26995 -0.64363,6.2391c0.00584,0.0992 0.01071,0.18187 0.0146,0.24801c-1.68579,-1.1613 -3.42006,-2.28759 -5.20282,-3.37887c-0.03362,0.0013 -0.05335,-0.04766 -0.05919,-0.14686l0.10086,-0.00389c-0.13431,-2.28168 0.05148,-4.27741 0.55737,-5.9872M476.00081,345.49568c0.06724,-0.00259 0.11864,0.012 0.15421,0.04377c1.1599,3.10386 2.77713,5.67638 4.85168,7.71755c-3.85251,4.39079 -7.0826,9.33759 -9.69028,14.8404c-0.02973,0.06743 -0.04264,0.13422 -0.03875,0.20035c-2.55054,-2.68568 -4.49831,-6.00774 -5.8433,-9.96618c-0.03751,-0.06484 -0.05919,-0.14686 -0.06503,-0.24606l0.10086,-0.00389c0.24596,1.31623 1.09178,1.94649 2.53745,1.89076c0.3362,-0.01296 0.54987,-0.10405 0.641,-0.27328c2.19628,-3.33266 4.48244,-6.56936 6.8585,-9.7101c-3.39475,1.29086 -6.3973,2.94774 -9.00764,4.97065c-0.12864,0.10439 -0.24047,0.20813 -0.33549,0.31122c-0.50094,0.64902 -0.7707,1.50457 -0.80927,2.56662l-0.15129,0.00583c-0.18509,-0.85458 -0.43061,-1.59083 -0.73655,-2.20875c-0.00389,-0.06614 0.00902,-0.13292 0.03875,-0.20035c3.03147,-4.02771 6.86319,-7.34056 11.49517,-9.93854z" fill="#475d81"/><path d="M490.70559,389.22428c0.34399,0.11931 0.68895,0.25516 1.03488,0.40754c0.06671,0.56086 0.05034,1.14149 -0.0491,1.74189l-0.10086,0.00389c-0.00389,-0.06614 -0.00876,-0.14881 -0.0146,-0.24801c-0.05698,-0.39552 -0.08131,-0.80887 -0.07299,-1.24004c-0.34593,-0.15238 -0.67603,-0.32194 -0.99029,-0.50868c-0.03557,-0.03177 -0.05627,-0.09726 -0.06211,-0.19646c0.06724,-0.00259 0.15226,0.0107 0.25507,0.03988z" fill="#364461"/><path d="M472.97639,375.68941c0.06724,-0.00259 0.11864,0.012 0.15421,0.04377c4.549,5.72408 10.31745,10.12515 17.30532,13.20321c0.00584,0.0992 0.01071,0.18187 0.0146,0.24801c0.00584,0.0992 0.02654,0.16469 0.06211,0.19646c0.31426,0.18674 0.64436,0.3563 0.99029,0.50868c-0.00832,0.43118 0.01602,0.84453 0.07299,1.24004c0.00584,0.0992 0.01071,0.18187 0.0146,0.24801c-0.07679,3.84753 0.09177,7.56961 0.50566,11.16622l-0.10086,0.00389c-0.00389,-0.06614 -0.00876,-0.14881 -0.0146,-0.24801c-8.40824,-2.59245 -15.70693,-6.37111 -21.89607,-11.33596c-0.17783,-0.15886 -0.27648,-0.40363 -0.29595,-0.73431c-0.00973,-0.16534 -0.01947,-0.33068 -0.0292,-0.49602c-0.00389,-0.06614 -0.00876,-0.14881 -0.0146,-0.24801c0.33123,-5.24934 1.4084,-9.84801 3.23149,-13.796M497.84941,375.77462c0.36521,-3.52722 1.06539,-6.80221 2.10053,-9.82497c0.06724,-0.00259 0.15226,0.0107 0.25507,0.03988c6.01837,1.49143 12.41984,1.47667 19.20439,-0.04428c0.00584,0.0992 0.02752,0.18123 0.06503,0.24606c2.44456,6.0372 4.25564,12.76167 5.43325,20.17342c0.37407,1.7753 -0.1381,2.8059 -1.53652,3.0918c-1.23227,0.24636 -2.504,0.39481 -3.81518,0.44535c-9.00243,0.47959 -16.65165,-0.66726 -22.94765,-3.44057c0.46802,-3.49804 0.88172,-7.06028 1.24109,-10.6867M483.97015,356.3742c0.06724,-0.00259 0.11864,0.012 0.15421,0.04377c2.97734,3.06695 6.44368,5.56818 10.39901,7.50372c0.00584,0.0992 -0.0061,0.18252 -0.03583,0.24995c-0.95551,6.66541 -1.81015,13.32692 -2.56393,19.98455c-0.10086,0.00389 -0.18588,-0.00941 -0.25507,-0.03988c-7.40158,-2.6644 -13.22045,-7.06353 -17.45661,-13.19738c-0.00389,-0.06614 0.00902,-0.13292 0.03875,-0.20035c2.29731,-5.62341 5.53713,-10.40487 9.71948,-14.34438z" fill="#475d82"/><path d="M479.68089,343.61382c0.06724,-0.00259 0.13351,-0.02172 0.1988,-0.05738c0.87855,-0.53101 1.79169,-1.04678 2.73942,-1.54731c0.06724,-0.00259 0.15129,-0.00583 0.25215,-0.00972c5.26085,-0.50108 9.98228,-0.43451 14.16428,0.19971c0.00584,0.0992 -0.00805,0.14945 -0.04167,0.15075c-4.72062,2.23683 -9.01542,4.83838 -12.88439,7.80466c-0.00389,-0.06614 -0.0246,-0.13162 -0.06211,-0.19646c-1.47133,-2.09757 -2.92683,-4.21232 -4.36648,-6.34426M486.59117,345.08745c-0.00389,-0.06614 -0.00876,-0.14881 -0.0146,-0.24801c-0.04725,-0.23018 -0.06184,-0.47819 -0.0438,-0.74403c-1.26819,-1.50883 -2.613,-1.45699 -4.03442,0.15552c-0.40981,0.4798 -0.38061,0.97581 0.08759,1.48805c0.00584,0.0992 0.02654,0.16469 0.06211,0.19646c1.8592,1.81748 3.17357,1.53481 3.94312,-0.848z" fill="#455a7e"/><path d="M457.43059,377.78009c-0.00389,-0.06614 -0.00876,-0.14881 -0.0146,-0.24801c-0.29375,-7.28011 1.13553,-13.05235 4.28786,-17.31672c0.06724,-0.00259 0.11864,0.012 0.15421,0.04377c2.1041,4.26061 4.71401,7.95486 7.82973,11.08276c-1.71161,5.26941 -3.1555,10.79364 -4.33166,16.57269c0.00584,0.0992 0.01071,0.18187 0.0146,0.24801c-0.94031,-1.09061 -1.94396,-2.11249 -3.01096,-3.06565c-0.06919,-0.03048 -0.1374,-0.04442 -0.20464,-0.04183c-0.10086,0.00389 -0.15226,-0.0107 -0.15421,-0.04377c-1.74613,-2.18641 -3.26958,-4.59682 -4.57033,-7.23125M459.87087,369.43345c-0.03167,0.03436 -0.08113,0.05284 -0.14837,0.05543c0.5942,3.2251 1.20424,6.43301 1.83011,9.62374c0.00584,0.0992 0.01071,0.18187 0.0146,0.24801c0.01947,0.33068 -0.01539,0.59716 -0.10457,0.79946c-0.17642,0.43766 -0.21809,0.58841 -0.12501,0.45225c1.09885,-1.36807 1.59209,-3.2928 1.47972,-5.77418c0.06724,-0.00259 0.11767,-0.00454 0.15129,-0.00583c0.4114,-2.17014 1.08955,-4.102 2.03445,-5.79557l0.10086,-0.00389c0.02831,-0.66395 0.13359,-1.16515 0.31585,-1.5036c-0.31037,-0.12061 -0.46431,-0.4461 -0.46184,-0.97648l-0.10086,0.00389c-0.00389,-0.06614 -0.00876,-0.14881 -0.0146,-0.24801c-0.00389,-0.06614 -0.00876,-0.14881 -0.0146,-0.24801c-2.61158,-0.86047 -4.26393,0.26379 -4.95703,3.3728z" fill="#475c80"/></g></g></svg>