<svg version="1.1" xmlns="http://www.w3.org/2000/svg" xmlns:xlink="http://www.w3.org/1999/xlink" width="481.76596" height="557.36214" viewBox="0,0,481.76596,557.36214"><g transform="translate(-465.10904,-163.18583)"><g data-paper-data="{&quot;isPaintingLayer&quot;:true}" fill-rule="nonzero" stroke="none" stroke-width="1" stroke-linecap="butt" stroke-linejoin="miter" stroke-miterlimit="10" stroke-dasharray="" stroke-dashoffset="0" style="mix-blend-mode: normal"><path d="M557.41009,398.19966c5.30662,-3.82522 10.54159,-6.14075 15.7049,-6.94659c3.39885,-0.50249 6.7742,-1.11428 10.12602,-1.83537c10.89352,-2.23683 21.69653,-3.76041 32.40901,-4.57076c0.05202,-0.04169 0.09362,-0.09638 0.1248,-0.16408c2.07261,-5.46236 5.4103,-10.7852 10.01306,-15.96851c2.4361,-0.15814 4.84377,-0.05858 7.22302,0.29868c10.4541,1.53239 20.69891,4.96239 30.73444,10.29001c1.68832,2.1069 2.84299,4.10752 3.46399,6.00186c3.61646,11.0694 5.49145,21.91116 5.62498,32.52528c-1.2854,0.47475 -2.67218,1.11617 -4.16032,1.92424c-11.12468,6.05272 -22.31715,11.96755 -33.57741,17.74449c-1.14639,-1.43061 -2.39941,-2.75443 -3.75906,-3.97144c-3.17768,-2.79284 -6.41807,-5.87714 -9.72116,-9.2529c-7.84987,0.225 -15.79819,1.02009 -23.84496,2.38527c-10.75331,1.82547 -21.62047,4.46831 -32.6015,7.92853c-0.06253,-0.07803 -0.11722,-0.11963 -0.16408,-0.1248c-5.5919,-1.3281 -10.85057,-5.78505 -15.77602,-13.37083c0.05202,-0.04169 0.08062,-0.08596 0.08578,-0.13281c-1.1657,-5.9855 -0.7305,-11.75888 1.30559,-17.32011c1.89864,-1.73501 4.16161,-3.54839 6.78891,-5.44016z" fill-opacity="0.99608" fill="#000000"/><path d="M556.79589,445.73212c-13.87805,6.18493 -26.2972,8.52919 -37.25745,7.03278c-8.19166,-1.12947 -15.83246,-3.7839 -22.9224,-7.9633c-6.98059,-4.06251 -12.78067,-11.11226 -17.40024,-21.14923c-2.67183,-5.81426 -3.90231,-11.45937 -3.69146,-16.93533c0.3864,-10.86058 4.55045,-21.06624 12.49216,-30.61699c3.93673,-4.72041 8.655,-9.3638 14.15481,-13.93016c5.51509,-4.53926 12.17218,-8.90125 19.97128,-13.08596c6.56617,-3.06073 13.25922,-5.55018 20.07913,-7.46834c6.36353,-1.8036 12.41454,-2.6988 18.15303,-2.6856c11.54049,0.06201 21.45909,4.25305 29.75581,12.5731c3.13008,3.16298 5.79296,7.26804 7.98865,12.31517c3.74134,8.71094 5.16573,17.08591 4.27318,25.1249c-1.18849,10.67014 -5.20551,20.82859 -12.05106,30.47533c-3.50749,4.94258 -7.93525,9.60068 -13.28328,13.97429c-5.99624,4.91779 -12.7503,9.03091 -20.26218,12.33934z" fill-opacity="0.99608" fill="#000000"/><path d="M689.16226,615.8c-0.0416,3.13333 0.06392,6.28333 0.31655,9.45c0.31888,4.13333 -0.51615,8 -2.50508,11.6c-3.06797,5.6 -5.12936,11.93333 -6.18418,19c-0.01729,0.1 -0.01214,0.16667 0.01543,0.2c0.54115,0.53333 1.19958,0.96667 1.97529,1.3c3.9349,6.93333 8.57062,13.28333 13.90718,19.05c3.31683,3.56667 6.90732,6.9 10.77148,10c2.86911,2.3 5.72155,4.6 8.55732,6.9c7.65013,6.26667 16.15521,11.73333 25.51523,16.4c1.25719,0.63333 2.59896,1.06667 4.02529,1.3c4.93867,0.93333 10.15184,1.05 15.6395,0.35c13.72718,-1.7 27.0986,-3.36667 40.11426,-5c-0.01729,0.1 -0.03169,0.18333 -0.04321,0.25c-11.15602,4.56667 -22.70031,8.58333 -34.63286,12.05c-6.1387,1.76667 -13.11423,2.3 -20.92656,1.6c-1.89876,-0.2 -3.6825,-0.58333 -5.35122,-1.15c-10.67773,-3.6 -19.86986,-8.46667 -27.57637,-14.6c-7.73984,-6.13333 -14.87371,-12.78333 -21.40161,-19.95c-4.7736,-5.16667 -9.53053,-10.33333 -14.2708,-15.5c-1.60039,-1.73333 -3.36292,-3.3 -5.2876,-4.7c-0.00941,-4.76667 0.9853,-9.75 2.98413,-14.95c5.04707,-13 7.5069,-26.26667 7.37949,-39.8c-0.05465,-6.43333 0.04707,-13 0.30518,-19.7c0.5446,-12.6 1.03919,-25.2 1.48379,-37.8c2.01318,-1.23333 4.0453,-2.38333 6.09634,-3.45c0.07243,-0.03333 0.15864,-0.05 0.25864,-0.05c-0.1639,9.43333 -0.33932,18.93333 -0.52627,28.5c-0.29069,12.86667 -0.50381,25.76667 -0.63936,38.7z" fill-opacity="0.99608" fill="#2b2c40"/><path d="M762.78564,467.85c0.02962,0.6 0.04258,1.2 0.03887,1.8c0.24229,8.43333 0.40926,16.91667 0.50093,25.45c0.06667,0 0.13045,0.01667 0.19136,0.05c0.41357,0.5 0.8467,0.98333 1.29937,1.45c0.06667,0 0.15,0 0.25,0c5.92262,0.83333 11.47096,2 16.64502,3.5c0.00368,2.1 -0.19202,4.1 -0.58711,6c-1.40049,6.36667 -1.56619,12.05 -0.49712,17.05c2.26654,10.8 8.61851,18.11667 19.05591,21.95c0.08844,2.76667 0.29417,5.43333 0.61719,8c1.4904,11.43333 2.92729,22.98333 4.31069,34.65c1.35706,11.43333 2.77791,22.88333 4.26255,34.35c-0.01729,0.1 -0.00926,0.15 0.02407,0.15c1.48682,1.23333 2.81725,2.6 3.99131,4.1c-0.01729,0.1 -0.03169,0.18333 -0.04321,0.25c-2.63167,-1.16667 -5.18516,-2.4 -7.66045,-3.7c-0.0609,-0.03333 -0.12469,-0.05 -0.19136,-0.05c-2.92174,-5.46667 -4.52228,-12.11667 -4.80161,-19.95c-0.25137,-6.06667 -0.62804,-12.08333 -1.13003,-18.05c-1.02126,-11.83333 -2.35239,-23.41667 -3.99341,-34.75c-8.63903,-5.36667 -14.88236,-12.73333 -18.72998,-22.1c-2.3917,-5.83333 -2.73667,-13.38333 -1.03491,-22.65c-5.47035,-2.1 -11.3374,-3.83333 -17.60117,-5.2c-0.09424,-0.03333 -0.17469,-0.05 -0.24136,-0.05c-0.19948,-9.06667 0.04487,-18.48333 0.73306,-28.25h0.15c0.2543,2 0.90243,3.65 1.94438,4.95c0.02757,0.03333 0.09136,0.05 0.19136,0.05c1.31032,-2.56667 2.02887,-5.56667 2.15566,-9z" fill-opacity="0.99216" fill="#2b2c3f"/><path d="M497.64653,639.9c-2.22471,1.3 -4.43275,2.6 -6.62412,3.9c-2.60413,1.56667 -4.60231,3.96667 -5.99453,7.2c-1.52227,3.6 -2.84062,7.46667 -3.95508,11.6c-1.46673,5.4 -1.13757,9.66667 0.9875,12.8c1.38187,2.03333 2.88102,3.96667 4.49746,5.8c6.41061,7.26667 14.47762,13.05 24.20103,17.35c3.15801,1.4 5.99235,3.03333 8.50303,4.9c0.82386,0.63333 1.54998,1.35 2.17837,2.15c-0.16667,0 -0.33045,-0.01667 -0.49136,-0.05c-12.75553,-1.8 -23.08141,-5.7 -30.97764,-11.7c-1.00081,-0.76667 -2.02694,-1.48333 -3.07837,-2.15c-7.50941,-4.76667 -12.99451,-11.21667 -16.45532,-19.35c0.01152,-0.06667 0.02593,-0.15 0.04321,-0.25c2.77012,-13.13333 7.26922,-24.21667 13.49731,-33.25c1.16914,-0.4 2.24178,-0.91667 3.21792,-1.55c9.49596,-6.53333 19.26764,-12.73333 29.31504,-18.6c3.18356,-1.83333 5.60828,-4.48333 7.27417,-7.95c5.5487,-11.46667 10.84061,-23.18333 15.87573,-35.15c2.50378,-6 4.8915,-12.1 7.16318,-18.3c1.16465,-3.26667 2.42292,-6.4 3.7748,-9.4c1.45313,-3.2 2.34123,-6.21667 2.66431,-9.05c1.08932,-1.86667 2.63584,-3.1 4.63955,-3.7c6.12266,-1.86667 11.13957,-5.05 15.05073,-9.55c7.68776,-8.8 12.91877,-20.55 15.69302,-35.25l0.01729,-0.1c8.57614,-0.63333 17.03335,-1.35 25.37163,-2.15h0.1c3.98122,-12.23333 7.76079,-24.65 11.33872,-37.25c0.06667,0 0.09712,0.01667 0.09136,0.05c0.00407,3.83333 1.15054,6.65 3.4394,8.45c-3.89889,10.6 -7.58586,21.51667 -11.06089,32.75h-0.1c-3.77409,1.2 -7.8922,1.88333 -12.35435,2.05c-4.93457,0.2 -9.19919,0.76667 -12.79385,1.7c-2.17868,6.43333 -4.44007,12.76667 -6.78418,19c-3.50752,9.3 -8.97262,16.23333 -16.39531,20.8c-3.32389,2.06667 -6.94017,3.8 -10.84883,5.2c-5.28327,11.66667 -10.25522,23.75 -14.91587,36.25c-2.29925,6.16667 -4.68698,12.26667 -7.16318,18.3c-3.08486,7.43333 -6.07837,14.91667 -8.98052,22.45c-0.47985,1.23333 -0.68151,2.4 -0.60498,3.5c-9.50173,6.56667 -19.28719,12.75 -29.3564,18.55z" fill-opacity="0.99608" fill="#2b2c3f"/><path d="M491.02241,643.8c2.19137,-1.3 4.39941,-2.6 6.62412,-3.9c10.06921,-5.8 19.85467,-11.98333 29.3564,-18.55c-0.07653,-1.1 0.12513,-2.26667 0.60498,-3.5c2.90215,-7.53333 5.89565,-15.01667 8.98052,-22.45c2.4762,-6.03333 4.86393,-12.13333 7.16318,-18.3c4.66064,-12.5 9.6326,-24.58333 14.91587,-36.25c3.90866,-1.4 7.52493,-3.13333 10.84883,-5.2c7.42269,-4.56667 12.88779,-11.5 16.39531,-20.8c2.34411,-6.23333 4.6055,-12.56667 6.78418,-19c3.59466,-0.93333 7.85928,-1.5 12.79385,-1.7c4.46214,-0.16667 8.58026,-0.85 12.35435,-2.05h0.1c3.47503,-11.23333 7.162,-22.15 11.06089,-32.75c-2.28887,-1.8 -3.43534,-4.61667 -3.4394,-8.45c0.00576,-0.03333 -0.02469,-0.05 -0.09136,-0.05c3.29023,-9.2 6.42944,-18.68333 9.41763,-28.45c3.85036,-12.63333 7.88302,-25.55 12.098,-38.75c4.16312,-12.9 8.86676,-25.16667 14.11094,-36.8c2.65892,-5.93333 5.30343,-11.78333 7.93354,-17.55c2.69225,-5.93333 6.28573,-10.71667 10.78042,-14.35c4.49469,-3.63333 9.5937,-6.61667 15.29702,-8.95c5.4918,-2.26667 11.64017,-3.8 18.44512,-4.6c3.64157,-0.43333 7.19095,-0.33333 10.64814,0.3c9.0901,1.6 17.53164,3.86667 25.32461,6.8c10.29255,3.9 17.80646,10.18333 22.54175,18.85c-0.01729,0.1 -0.01214,0.16667 0.01543,0.2c0.47324,0.73333 0.91357,0.5 1.321,-0.7c0.13704,-0.6 0.2819,-0.66667 0.43457,-0.2c1.29049,3.33333 1.68983,7.48333 1.198,12.45c-0.54245,5.06667 -1.28099,10.4 -2.21563,16c-2.45573,14.4 -4.26125,28.31667 -5.41655,41.75c-0.87461,10.26667 -1.6986,20.43333 -2.47197,30.5c-1.04954,13.4 -1.63674,26.15 -1.76157,38.25c-0.11523,0.66667 -0.23047,1.33333 -0.3457,2c-0.01729,0.1 -0.03169,0.18333 -0.04321,0.25h-0.15c-0.12679,3.43333 -0.84535,6.43333 -2.15566,9c-0.1,0 -0.16379,-0.01667 -0.19136,-0.05c-1.04196,-1.3 -1.69009,-2.95 -1.94438,-4.95h-0.15c-0.68818,9.76667 -0.93254,19.18333 -0.73306,28.25c0.06667,0 0.14712,0.01667 0.24136,0.05c6.26377,1.36667 12.13083,3.1 17.60117,5.2c-1.70176,9.26667 -1.35679,16.81667 1.03491,22.65c3.84762,9.36667 10.09095,16.73333 18.72998,22.1c1.64102,11.33333 2.97215,22.91667 3.99341,34.75c0.50199,5.96667 0.87866,11.98333 1.13003,18.05c0.27933,7.83333 1.87987,14.48333 4.80161,19.95c0.06667,0 0.13045,0.01667 0.19136,0.05c2.47529,1.3 5.02878,2.53333 7.66045,3.7c1.96787,2.5 3.9915,4.96667 6.0709,7.4c2.08516,2.4 4.22896,4.75 6.4314,7.05c6.76247,6.96667 11.02285,16.06667 12.78115,27.3c-3.1458,10.1 -7.4634,18.78333 -12.95278,26.05c-0.04486,0.06667 -0.07305,0.13333 -0.08457,0.2c-7.6375,4.26667 -15.50936,8.25 -23.61558,11.95c-0.07243,0.03333 -0.14198,0.05 -0.20864,0.05c0.01152,-0.06667 0.02593,-0.15 0.04321,-0.25c-13.01566,1.63333 -26.38708,3.3 -40.11426,5c-5.48766,0.7 -10.70083,0.58333 -15.6395,-0.35c-1.42633,-0.23333 -2.7681,-0.66667 -4.02529,-1.3c-9.36003,-4.66667 -17.8651,-10.13333 -25.51523,-16.4c-2.83577,-2.3 -5.68822,-4.6 -8.55732,-6.9c-3.86416,-3.1 -7.45465,-6.43333 -10.77148,-10c-5.33656,-5.76667 -9.97228,-12.11667 -13.90718,-19.05c-0.77572,-0.33333 -1.43415,-0.76667 -1.97529,-1.3c-0.02757,-0.03333 -0.03271,-0.1 -0.01543,-0.2c1.05482,-7.06667 3.11621,-13.4 6.18418,-19c1.98893,-3.6 2.82396,-7.46667 2.50508,-11.6c-0.25264,-3.16667 -0.35815,-6.31667 -0.31655,-9.45c0.13555,-12.93333 0.34867,-25.83333 0.63936,-38.7c0.18695,-9.56667 0.36237,-19.06667 0.52627,-28.5c0.01152,-0.06667 0.03683,-0.11667 0.07593,-0.15c2.83047,-1.33333 5.013,-3.45 6.54761,-6.35c0.01152,-0.06667 0.02593,-0.15 0.04321,-0.25c0.47575,-2.36667 0.9624,-4.7 1.45996,-7c-0.68311,-1.83333 -1.54214,-3.51667 -2.5771,-5.05c-0.02757,-0.03333 -0.03271,-0.1 -0.01543,-0.2c-5.64811,-3 -12.76805,-4.71667 -21.35981,-5.15c-4.55967,-0.23333 -9.5395,-0.35 -14.9395,-0.35c-1.66667,0 -3.27881,0.16667 -4.83643,0.5c-3.78646,3.2 -6.41203,7.78333 -7.87671,13.75c-0.01729,0.1 -0.03169,0.18333 -0.04321,0.25c2.38802,3.73333 5.72008,6.63333 9.99619,8.7c0.0609,0.03333 0.14136,0.05 0.24136,0.05c-2.65361,9.56667 -5.41772,19.48333 -8.29233,29.75c-3.71045,13.36667 -7.31287,26.78333 -10.80728,40.25c-0.64818,2.4 -1.13257,4.81667 -1.45317,7.25c-0.29056,2.06667 -0.34141,4 -0.15254,5.8c0.86657,8.1 1.7389,16.16667 2.61699,24.2c0.26211,2.53333 -0.12764,5.36667 -1.16924,8.5c-6.07168,6.2 -13.35137,11 -21.83906,14.4c-5.51361,2.2 -11.16055,4.4 -16.94082,6.6c-11.33174,4.23333 -22.95072,8.2 -34.85693,11.9c-11.58317,3.56667 -23.34844,6.93333 -35.2958,10.1c-2.12057,-0.26667 -4.50843,-0.43333 -7.16357,-0.5c-0.1,0 -0.18333,0 -0.25,0c-0.62839,-0.8 -1.35451,-1.51667 -2.17837,-2.15c-2.51068,-1.86667 -5.34502,-3.5 -8.50303,-4.9c-9.7234,-4.3 -17.79041,-10.08333 -24.20103,-17.35c-1.61644,-1.83333 -3.11559,-3.76667 -4.49746,-5.8c-2.12507,-3.13333 -2.45423,-7.4 -0.9875,-12.8c1.11445,-4.13333 2.43281,-8 3.95508,-11.6c1.39222,-3.23333 3.3904,-5.63333 5.99453,-7.2M696.88013,311.1c-8.31403,3.16667 -14.75833,8.53333 -19.33291,16.1c-2.41322,3.93333 -4.63631,8.11667 -6.66929,12.55c-5.31536,11.46667 -10.28608,23.35 -14.91216,35.65c-4.66064,12.5 -9.02603,25.31667 -13.09614,38.45c-4.11045,13.36667 -7.96966,26.53333 -11.57764,39.5c0.579,0.7 1.21377,1.36667 1.9043,2c7.03613,6.73333 16.32537,11.61667 27.86772,14.65c11.22054,2.96667 24.41991,4.41667 39.5981,4.35c3.87243,-0.03333 7.57078,-0.21667 11.09507,-0.55c13.73623,-1.36667 26.43338,-4.05 38.09146,-8.05c1.45309,-0.5 2.90845,-0.91667 4.36606,-1.25c2.14733,-0.46667 3.43644,-1.85 3.86733,-4.15c0.46436,-13.1 0.97871,-26.2 1.54307,-39.3c0.26387,-6.73333 0.91868,-13.8 1.96445,-21.2c1.93268,-14.26667 3.79582,-28.51667 5.5894,-42.75c0.81077,-6.23333 1.6411,-12.48333 2.49097,-18.75c-1.64518,-7.06667 -5.03298,-12.63333 -10.16338,-16.7c-0.0609,-0.03333 -0.12469,-0.05 -0.19136,-0.05c-5.88779,11.5 -9.48034,24.66667 -10.77764,39.5c-0.58691,6.86667 -1.03473,13.7 -1.34346,20.5c-0.13789,2.53333 -0.36014,4.78333 -0.66675,6.75c-4.03174,4.23333 -9.18815,7.06667 -15.46924,8.5c-10.20908,2.36667 -21.29901,2.98333 -33.26978,1.85c-3.30905,-0.33333 -6.45246,-0.95 -9.43022,-1.85c-2.72262,-0.83333 -5.31644,-1.83333 -7.78145,-3c-0.61029,-0.13333 -1.14238,-0.33333 -1.59629,-0.6c-0.03333,0 -0.04136,-0.05 -0.02407,-0.15c-0.1,0 -0.18045,-0.01667 -0.24136,-0.05c-3.56006,-1.96667 -7.1339,-3.95 -10.72153,-5.95c-0.08307,-4.53333 0.43571,-9.36667 1.55635,-14.5c0.83379,-3.66667 1.78589,-7.15 2.8563,-10.45c2.02806,-6.33333 4.109,-12.68333 6.24282,-19.05c2.16839,-6.56667 4.87957,-12.41667 8.13354,-17.55c3.38278,-5.3 6.74868,-10.11667 10.09771,-14.45M763.03916,534.65c0.08519,-0.3 0.21235,-0.65 0.38149,-1.05c-8.50703,2.93333 -16.81818,6.08333 -24.93345,9.45c-0.07243,0.03333 -0.14198,0.05 -0.20864,0.05c4.57529,1.3 9.77899,2.05 15.61108,2.25c0.06667,0 0.15,0 0.25,0c4.47656,-1.6 7.44307,-5.16667 8.89951,-10.7M792.32622,635.1c0.04486,-0.06667 0.07593,-0.15 0.09321,-0.25c-10.71488,5.1 -21.34704,10.3 -31.89648,15.6c-2.99261,1.5 -6.01279,2.96667 -9.06055,4.4c9.23294,-1.73333 18.72803,-3.63333 28.48525,-5.7c0.07243,-0.03333 0.15864,-0.05 0.25864,-0.05c4.34326,-4.3 8.38324,-8.96667 12.11992,-14M587.22314,531.85c1.42503,5.83333 3.86942,10.78333 7.33315,14.85c0.16543,0.2 0.32798,0.41667 0.48765,0.65c0.9,0 1.81667,0 2.75,0c0.06667,0 0.15,0 0.25,0c3.74323,-1.6 7.36815,-3.38333 10.87476,-5.35c0.03333,0 0.05864,-0.05 0.07593,-0.15c-8.36911,-2.3 -15.56248,-5.61667 -21.58013,-9.95c-0.0609,-0.03333 -0.12469,-0.05 -0.19136,-0.05M545.53848,642.55c2.20329,0.36667 4.2716,0.55 6.20493,0.55c-7.60036,-4.43333 -15.46862,-8.66667 -23.60479,-12.7c-0.0609,-0.03333 -0.12469,-0.05 -0.19136,-0.05c0.37363,2.46667 0.86743,4.81667 1.4814,7.05c0.02181,0.06667 0.02695,0.13333 0.01543,0.2c4.57487,2.26667 9.93966,3.91667 16.09438,4.95z" fill-opacity="0.99608" fill="#000000"/><path d="M551.74341,643.1c-1.93333,0 -4.00164,-0.18333 -6.20493,-0.55c-6.15472,-1.03333 -11.51951,-2.68333 -16.09438,-4.95c0.01152,-0.06667 0.00638,-0.13333 -0.01543,-0.2c-0.61396,-2.23333 -1.10776,-4.58333 -1.4814,-7.05c0.06667,0 0.13045,0.01667 0.19136,0.05c8.13617,4.03333 16.00443,8.26667 23.60479,12.7z" fill="#2a2b3e"/><path d="M594.5563,546.7c-3.46374,-4.06667 -5.90812,-9.01667 -7.33315,-14.85c0.06667,0 0.13045,0.01667 0.19136,0.05c6.01764,4.33333 13.21102,7.65 21.58013,9.95c-0.01729,0.1 -0.04259,0.15 -0.07593,0.15c-3.50661,1.96667 -7.13153,3.75 -10.87476,5.35c-0.1,0 -0.18333,0 -0.25,0c-0.93333,0 -1.85,0 -2.75,0c-0.15967,-0.23333 -0.32222,-0.45 -0.48765,-0.65M792.41943,634.85c-0.01729,0.1 -0.04836,0.18333 -0.09321,0.25c-3.73669,5.03333 -7.77666,9.7 -12.11992,14c-0.1,0 -0.18621,0.01667 -0.25864,0.05c-9.75723,2.06667 -19.25231,3.96667 -28.48525,5.7c3.04775,-1.43333 6.06794,-2.9 9.06055,-4.4c10.54945,-5.3 21.18161,-10.5 31.89648,-15.6M763.42065,533.6c-0.16914,0.4 -0.29631,0.75 -0.38149,1.05c-1.45645,5.53333 -4.42295,9.1 -8.89951,10.7c-0.1,0 -0.18333,0 -0.25,0c-5.8321,-0.2 -11.03579,-0.95 -15.61108,-2.25c0.06667,0 0.13621,-0.01667 0.20864,-0.05c8.11527,-3.36667 16.42642,-6.51667 24.93345,-9.45z" fill="#2b2c3f"/><path d="M677.54722,327.2c4.57458,-7.56667 11.01888,-12.93333 19.33291,-16.1c-3.34902,4.33333 -6.71493,9.15 -10.09771,14.45c-3.25397,5.13333 -5.96515,10.98333 -8.13354,17.55c-2.13382,6.36667 -4.21476,12.71667 -6.24282,19.05c-1.07041,3.3 -2.02251,6.78333 -2.8563,10.45c-1.12064,5.13333 -1.63942,9.96667 -1.55635,14.5c3.58763,2 7.16147,3.98333 10.72153,5.95c0.0609,0.03333 0.14136,0.05 0.24136,0.05c-0.01729,0.1 -0.00926,0.15 0.02407,0.15c0.45391,0.26667 0.986,0.46667 1.59629,0.6c2.46501,1.16667 5.05882,2.16667 7.78145,3c2.97777,0.9 6.12118,1.51667 9.43022,1.85c11.97077,1.13333 23.06069,0.51667 33.26978,-1.85c6.28109,-1.43333 11.4375,-4.26667 15.46924,-8.5c0.30661,-1.96667 0.52886,-4.21667 0.66675,-6.75c0.30872,-6.8 0.75654,-13.63333 1.34346,-20.5c1.2973,-14.83333 4.88984,-28 10.77764,-39.5c0.06667,0 0.13045,0.01667 0.19136,0.05c5.1304,4.06667 8.5182,9.63333 10.16338,16.7c-0.84987,6.26667 -1.68019,12.51667 -2.49097,18.75c-1.79359,14.23333 -3.65672,28.48333 -5.5894,42.75c-1.04577,7.4 -1.70059,14.46667 -1.96445,21.2c-0.56436,13.1 -1.07871,26.2 -1.54307,39.3c-0.43089,2.3 -1.72,3.68333 -3.86733,4.15c-1.45762,0.33333 -2.91297,0.75 -4.36606,1.25c-11.65807,4 -24.35522,6.68333 -38.09146,8.05c-3.52428,0.33333 -7.22264,0.51667 -11.09507,0.55c-15.17819,0.06667 -28.37756,-1.38333 -39.5981,-4.35c-11.54235,-3.03333 -20.83159,-7.91667 -27.86772,-14.65c-0.69053,-0.63333 -1.32529,-1.3 -1.9043,-2c3.60798,-12.96667 7.46719,-26.13333 11.57764,-39.5c4.07012,-13.13333 8.4355,-25.95 13.09614,-38.45c4.62607,-12.3 9.59679,-24.18333 14.91216,-35.65c2.03298,-4.43333 4.25607,-8.61667 6.66929,-12.55z" fill="#fefefe"/><path d="M578.50155,262.57612c-0.12518,-1.90281 -0.2552,-3.40022 -0.39008,-4.49221c-1.23352,-8.64465 1.10579,-14.56991 7.01795,-17.7758c0.06587,-0.01017 0.15076,-0.00642 0.25465,0.01127c0.98567,0.05015 1.7242,-0.08074 2.21559,-0.39266c1.68172,-1.33875 2.8958,-2.97623 3.64223,-4.91245c0.8249,-2.08322 1.14038,-4.40815 0.94643,-6.97478c-0.72226,-9.70151 0.39323,-17.98382 3.34649,-24.84692c4.30976,-9.87144 12.41154,-17.02362 24.30533,-21.45653c11.92673,-4.438 24.78765,-7.958 38.58277,-10.56c14.28408,-2.71122 28.76602,-5.0146 43.44581,-6.91014c1.94834,-0.26709 3.56877,-0.14634 4.86128,0.36226c4.53,-0.80057 9.11339,-1.25531 13.75017,-1.36422c13.38337,-0.24535 26.29957,0.08725 38.74859,0.99781c12.35021,0.92582 23.65345,3.26098 33.90973,7.0055c3.90029,1.45484 7.45874,3.31654 10.67534,5.5851c7.46996,5.35497 12.80046,13.67056 15.99148,24.94677c1.92425,6.78447 3.54167,13.11049 4.85226,18.97805c0.06587,-0.01017 0.13429,-0.00387 0.20525,0.01889c5.62895,2.60426 11.26929,5.17304 16.92101,7.70633c0.53614,2.81729 0.95943,5.44968 1.26986,7.89716c1.96142,14.66962 3.03054,28.58338 3.20736,41.74128c0.19716,13.28965 -0.16971,26.09311 -1.10061,38.41038c-0.25168,3.17498 -0.37415,6.31315 -0.36742,9.41451c-0.00359,5.34492 -1.44051,9.57966 -4.31078,12.70422c-0.51109,0.55971 -1.07078,1.0845 -1.67906,1.57439c-0.09881,0.01526 -0.17861,0.04444 -0.2394,0.08754c-1.57321,0.51267 -3.18445,0.99749 -4.8337,1.45446c0.01526,0.09881 0.0115,0.18369 -0.01127,0.25465c-0.1288,0.9583 -0.23344,1.91866 -0.31391,2.88109c-0.07945,0.94264 -0.13722,1.87891 -0.17333,2.8088c-0.11942,2.97449 -0.0266,5.97826 0.27848,9.01129c-6.71234,4.13875 -14.44364,7.57492 -23.1939,10.30851c-6.20929,1.93661 -12.13342,4.08211 -17.77239,6.4365c-2.80158,1.15493 -5.6477,2.26879 -8.53836,3.34158c-8.97076,3.40597 -18.35808,6.49083 -28.16197,9.25458c-6.43234,1.80244 -13.19295,3.33521 -20.28183,4.59831c-10.3622,1.90337 -21.13368,3.66759 -32.31445,5.29268c-7.28916,1.05797 -14.14408,1.54306 -20.56476,1.45529c-12.98328,-0.22108 -25.10184,-1.50302 -36.35568,-3.84581c-7.21787,-1.52525 -13.53606,-4.22542 -18.95459,-8.10052c-1.02983,-0.70644 -2.02349,-1.46351 -2.98096,-2.27122c-0.01017,-0.06587 -0.03935,-0.14567 -0.08754,-0.2394c-0.47517,-1.14009 -0.94075,-2.29905 -1.39672,-3.47688c-0.4857,-1.20486 -0.96144,-2.42969 -1.42723,-3.6745c-0.09881,0.01526 -0.18369,0.0115 -0.25465,-0.01127c-7.4957,-1.37183 -12.11387,-6.71186 -13.85451,-16.02009c-2.67123,-1.13878 -5.07787,-2.63876 -7.21993,-4.49995c-2.16991,-1.82317 -3.83461,-4.19644 -4.99413,-7.11982c-1.5528,-3.94175 -2.91439,-8.06477 -4.08477,-12.36906c-3.34624,-12.49995 -6.23317,-26.06561 -8.66079,-40.69697c-1.88107,-11.30985 -3.18419,-22.15253 -3.90935,-32.52803M588.90872,250.04346c-0.09372,0.04819 -0.17352,0.07737 -0.2394,0.08754c-2.35383,4.84841 -3.27797,10.87554 -2.77241,18.08138c0.61015,8.53856 1.65635,17.49877 3.13858,26.88061c0.01526,0.09881 0.0115,0.18369 -0.01127,0.25465c-0.00219,0.64105 0.16019,1.0375 0.48713,1.18936c0.02543,0.16468 0.05085,0.32937 0.07628,0.49405c0.01526,0.09881 0.02797,0.18115 0.03814,0.24702c2.68,12.77142 5.58027,25.2222 8.7008,37.35234c0.85823,3.37455 2.2988,5.93418 4.3217,7.67888c7.24605,-1.11875 14.48956,-2.25398 21.73053,-3.40567c14.61368,-2.32372 29.16525,-4.72216 43.65469,-7.19531l0.09881,-0.01526c-0.14309,-2.23726 -0.3546,-4.48083 -0.63452,-6.73069c0.06587,-0.01017 0.14821,-0.02288 0.24702,-0.03814c13.31703,-1.11187 26.63151,-2.24022 39.94346,-3.38503c0.06587,-0.01017 0.11782,-0.00133 0.15584,0.02652c0.58558,0.51658 1.05976,1.18525 1.42253,2.006c0.22281,-0.30417 0.41789,-0.35115 0.58523,-0.14094c1.33123,1.85149 2.46751,3.96913 3.40883,6.35293c0.40032,-0.02809 0.81712,-0.05872 1.25038,-0.09189c13.9048,-1.23634 27.73368,-2.30922 41.48663,-3.21862c13.98351,-0.945 27.79204,-2.14962 41.42561,-3.61386c-0.01518,-4.68498 -0.08485,-9.39527 -0.20901,-14.13086c-0.30614,-13.34026 -0.57547,-26.55133 -0.80799,-39.63318c-0.21241,-13.38846 -0.39056,-26.66418 -0.53444,-39.82717c-11.3805,-2.28952 -23.61676,-3.35095 -36.70879,-3.1843c-6.76264,0.09991 -13.40371,0.1136 -19.92321,0.04109c-13.00096,-0.11719 -26.56912,0.46019 -40.70448,1.73213c-8.58409,0.75207 -17.2188,1.61312 -25.90413,2.58315c-15.20944,1.74127 -29.40367,4.27 -42.58269,7.5862c-7.49648,1.8993 -14.77246,3.9163 -21.82793,6.051c-0.70426,0.24362 -1.425,0.48979 -2.1622,0.73849l0.01526,0.09881c-6.91426,0.8652 -12.63592,2.57477 -17.16498,5.12873M682.66956,338.04763c0.01526,0.09881 0.02797,0.18115 0.03814,0.24702c-0.33351,1.7713 -1.0143,3.259 -2.04238,4.46311c-0.02785,0.03802 -0.03669,0.08997 -0.02652,0.15584c-12.6881,2.12759 -25.18465,4.73143 -37.48964,7.81152c-0.09881,0.01526 -0.18115,0.02797 -0.24702,0.03814c2.83162,12.00614 6.83299,22.41535 12.00412,31.22765c0.00509,0.03294 0.05703,0.04178 0.15584,0.02652c12.61104,0.64949 25.82852,0.53092 39.65243,-0.35572c13.6212,-0.88906 27.91968,-2.7426 42.89543,-5.5606c4.91506,-0.92747 9.56143,-2.06637 13.93911,-3.41669c4.56512,-1.44671 8.85525,-3.03643 12.87039,-4.76917c4.11551,-8.29025 7.12329,-17.42112 9.02336,-27.39262c-0.00509,-0.03294 0.04178,-0.05703 0.14059,-0.07229c-0.12205,-0.79048 -0.24918,-1.61389 -0.38139,-2.47025c-0.01017,-0.06587 -0.02288,-0.14821 -0.03814,-0.24702c-13.47444,0.52918 -27.16527,1.5133 -41.0725,2.95235c-5.97436,0.61891 -11.6461,0.90447 -17.01524,0.85668c-1.75339,0.00094 -3.31944,-0.31368 -4.69816,-0.94385c-1.52447,-3.10308 -2.88184,-6.43429 -4.0721,-9.99364c-0.01017,-0.06587 -0.02288,-0.14821 -0.03814,-0.24702c-8.03919,1.00516 -16.06446,1.99131 -24.0758,2.95844c-0.09881,0.01526 -0.18115,0.02797 -0.24702,0.03814c0.23901,1.54802 0.48056,3.11251 0.72465,4.69347z" fill-opacity="0.99608" fill="#000000"/><path d="M682.7077,338.29466c-0.01017,-0.06587 -0.02288,-0.14821 -0.03814,-0.24702c-0.24409,-1.58096 -0.48564,-3.14545 -0.72465,-4.69347c0.06587,-0.01017 0.14821,-0.02288 0.24702,-0.03814c8.01134,-0.96714 16.03661,-1.95328 24.0758,-2.95844c0.01526,0.09881 0.02797,0.18115 0.03814,0.24702c1.19026,3.55934 2.54762,6.89056 4.0721,9.99364c1.37872,0.63018 2.94478,0.94479 4.69816,0.94385c5.36914,0.0478 11.04088,-0.23776 17.01524,-0.85668c13.90723,-1.43905 27.59806,-2.42317 41.0725,-2.95235c0.01526,0.09881 0.02797,0.18115 0.03814,0.24702c0.13222,0.85635 0.25935,1.67977 0.38139,2.47025c-0.09881,0.01526 -0.14567,0.03935 -0.14059,0.07229c-1.90007,9.9715 -4.90786,19.10238 -9.02336,27.39262c-4.01514,1.73273 -8.30526,3.32246 -12.87039,4.76917c-4.37767,1.35033 -9.02404,2.48922 -13.93911,3.41669c-14.97575,2.81801 -29.27423,4.67154 -42.89543,5.5606c-13.82391,0.88664 -27.04138,1.00521 -39.65243,0.35572c-0.09881,0.01526 -0.15076,0.00642 -0.15584,-0.02652c-5.17113,-8.8123 -9.17251,-19.22152 -12.00412,-31.22765c0.06587,-0.01017 0.14821,-0.02288 0.24702,-0.03814c12.30499,-3.08009 24.80154,-5.68393 37.48964,-7.81152c-0.01017,-0.06587 -0.00133,-0.11782 0.02652,-0.15584c1.02808,-1.2041 1.70887,-2.69181 2.04238,-4.46311M588.66933,250.13101c0.06587,-0.01017 0.14567,-0.03935 0.2394,-0.08754c4.52906,-2.55396 10.25071,-4.26354 17.16498,-5.12873l-0.01526,-0.09881c0.7372,-0.24871 1.45793,-0.49487 2.1622,-0.73849c7.05547,-2.1347 14.33145,-4.1517 21.82793,-6.051c13.17902,-3.3162 27.37325,-5.84494 42.58269,-7.5862c8.68533,-0.97003 17.32004,-1.83108 25.90413,-2.58315c14.13536,-1.27194 27.70352,-1.84932 40.70448,-1.73213c6.51949,0.07252 13.16056,0.05882 19.92321,-0.04109c13.09203,-0.16665 25.32829,0.89479 36.70879,3.1843c0.14388,13.16299 0.32203,26.43871 0.53444,39.82717c0.23252,13.08186 0.50185,26.29292 0.80799,39.63318c0.12416,4.7356 0.19383,9.44588 0.20901,14.13086c-13.63356,1.46424 -27.4421,2.66886 -41.42561,3.61386c-13.75295,0.9094 -27.58183,1.98228 -41.48663,3.21862c-0.43326,0.03317 -0.85005,0.0638 -1.25038,0.09189c-0.94132,-2.3838 -2.07759,-4.50144 -3.40883,-6.35293c-0.16734,-0.21022 -0.36242,-0.16324 -0.58523,0.14094c-0.36277,-0.82076 -0.83695,-1.48942 -1.42253,-2.006c-0.03802,-0.02785 -0.08997,-0.03669 -0.15584,-0.02652c-13.31194,1.14481 -26.62643,2.27315 -39.94346,3.38503c-0.09881,0.01526 -0.18115,0.02797 -0.24702,0.03814c0.27992,2.24986 0.49143,4.49342 0.63452,6.73069l-0.09881,0.01526c-14.48945,2.47315 -29.04101,4.87159 -43.65469,7.19531c-7.24097,1.15169 -14.48448,2.28691 -21.73053,3.40567c-2.0229,-1.7447 -3.46347,-4.30433 -4.3217,-7.67888c-3.12054,-12.13014 -6.0208,-24.58092 -8.7008,-37.35234c-0.01017,-0.06587 -0.02288,-0.14821 -0.03814,-0.24702c-0.02543,-0.16468 -0.05085,-0.32937 -0.07628,-0.49405c-0.32694,-0.15185 -0.48932,-0.5483 -0.48713,-1.18936c0.02277,-0.07096 0.02652,-0.15584 0.01127,-0.25465c-1.48223,-9.38185 -2.52842,-18.34205 -3.13858,-26.88061c-0.50555,-7.20584 0.41858,-13.23297 2.77241,-18.08138z" fill="#fefefe"/><path d="M686.8,376.15c3.00247,1.00938 6.21914,1.84271 9.65,2.5c5.5418,1.08294 11.0918,1.98294 16.65,2.7c0.40195,0.01159 -1.51471,0.24492 -5.75,0.7c-6.22734,0.71263 -9.74401,0.9293 -10.55,0.65c-0.76901,-0.23971 -1.75234,-0.58971 -2.95,-1.05c-1.475,-0.57565 -3.825,-2.40898 -7.05,-5.5M672.55,354.2c-5.16667,-0.56667 -8.38333,-1.3 -9.65,-2.2l13.65,0.05c10.49818,-0.17018 19.08151,-0.90352 25.75,-2.2c6.67096,-1.25664 12.17096,-2.63997 16.5,-4.15c4.36836,-1.48073 8.08503,-3.33073 11.15,-5.55l2.65,-1.85c1.86667,-1.43333 3.15,-2.55 3.85,-3.35c1,-1.2 2.91667,-1.55 5.75,-1.05c3.09753,0.56992 5.18086,2.23659 6.25,5c1.10794,2.75599 1.80794,4.95599 2.1,6.6c0.32266,1.64714 0.15599,3.64714 -0.5,6c-0.62435,2.38854 -2.37435,5.90521 -5.25,10.55c-2.87461,4.6431 -5.07461,7.6931 -6.6,9.15c-1.53073,1.46341 -2.4474,2.33008 -2.75,2.6c-0.33333,0.33333 -0.88333,0.68333 -1.65,1.05c-0.76667,0.36667 -2.53333,0.63333 -5.3,0.8c-3.06667,0.1 -5,0.16667 -5.8,0.2c-16.86667,0.73333 -26.1,0.88333 -27.7,0.45c-1.03333,-0.26667 -1.8,-1.63333 -2.3,-4.1c-0.23333,-1.16667 -0.46667,-3.16667 -0.7,-6c-0.73333,-0.8 -2.96667,-2.93333 -6.7,-6.4l-5.35,-5c-2.33333,-0.1 -4.8,-0.3 -7.4,-0.6M695.85,355.05l4.65,3.8l6.3,-0.45c5.33333,-0.76667 10.81667,-2.36667 16.45,-4.8c7.06667,-3.06667 11.6,-5.2 13.6,-6.4c2.40195,-1.40117 4.21862,-3.08451 5.45,-5.05c1.26042,-1.92982 0.94375,-2.91315 -0.95,-2.95c-1.89388,-0.00352 -4.04388,0.84648 -6.45,2.55c-2.40208,1.73451 -5.70208,3.46784 -9.9,5.2c-0.06667,0.03333 -3.4,1.35 -10,3.95c-2.33333,0.93333 -6.21667,1.9 -11.65,2.9l-7.5,1.25M738.75,358.75c-0.42396,1.38854 -1.34063,2.80521 -2.75,4.25c-1.36966,1.43724 -4.96966,2.78724 -10.8,4.05c-4.3,0.93333 -8.08333,1.43333 -11.35,1.5c-1.7,0.03333 -2.16667,-0.76667 -1.4,-2.4l1.7,-2.5c-6.53333,0.86667 -10.26667,1.3 -11.2,1.3c-1.56667,1.53333 -2.85,3.33333 -3.85,5.4l-1.05,2.65l14.2,-0.15c9.86667,-0.16667 15.73333,-0.45 17.6,-0.85c1.96667,-0.4 3.25,-0.85 3.85,-1.35c0.43333,-0.36667 1.2,-1.25 2.3,-2.65c1.40872,-1.54544 3.00872,-3.91211 4.8,-7.1c1.79128,-3.18789 2.42461,-4.83789 1.9,-4.95c-2.21107,0.48281 -3.52773,1.41615 -3.95,2.8z" fill="#000000"/><path d="M740.8,360.9c-1.79128,3.18789 -3.39128,5.55456 -4.8,7.1c-1.1,1.4 -1.86667,2.28333 -2.3,2.65c-0.6,0.5 -1.88333,0.95 -3.85,1.35c-1.86667,0.4 -7.73333,0.68333 -17.6,0.85l-14.2,0.15l1.05,-2.65c1,-2.06667 2.28333,-3.86667 3.85,-5.4c0.93333,0 4.66667,-0.43333 11.2,-1.3l-1.7,2.5c-0.76667,1.63333 -0.3,2.43333 1.4,2.4c3.26667,-0.06667 7.05,-0.56667 11.35,-1.5c5.83034,-1.26276 9.43034,-2.61276 10.8,-4.05c1.40937,-1.44479 2.32604,-2.86146 2.75,-4.25c0.42227,-1.38385 1.73893,-2.31719 3.95,-2.8c0.52461,0.11211 -0.10872,1.76211 -1.9,4.95M715,350.9c6.6,-2.6 9.93333,-3.91667 10,-3.95c4.19792,-1.73216 7.49792,-3.46549 9.9,-5.2c2.40612,-1.70352 4.55612,-2.55352 6.45,-2.55c1.89375,0.03685 2.21042,1.02018 0.95,2.95c-1.23138,1.96549 -3.04805,3.64883 -5.45,5.05c-2,1.2 -6.53333,3.33333 -13.6,6.4c-5.63333,2.43333 -11.11667,4.03333 -16.45,4.8l-6.3,0.45l-4.65,-3.8l7.5,-1.25c5.43333,-1 9.31667,-1.96667 11.65,-2.9z" fill="#ffffff"/><path d="M587.234,425.15543c-0.71948,1.44341 -1.57205,2.64806 -2.5577,3.61393c-3.08521,3.0808 -6.28031,5.99367 -9.5853,8.7386c-8.14889,6.77808 -17.93579,11.30829 -29.36071,13.59062c-1.05513,-0.15645 -2.12674,-0.31534 -3.21484,-0.47667c-0.09892,-0.01467 -0.18135,-0.02689 -0.2473,-0.03667c-4.03451,-3.69838 -7.63605,-7.70324 -10.80463,-12.01458c-0.02319,-0.07083 -0.0299,-0.13922 -0.02013,-0.20517c-7.0283,0.81127 -14.47228,0.44889 -22.33196,-1.08715c-3.11285,-0.59634 -5.37564,-1.92592 -6.78836,-3.98876c-3.04522,-4.46153 -4.1882,-10.27535 -3.42895,-17.44146c0.23967,-2.52548 0.88717,-4.61982 1.94252,-6.28301c-2.86716,-2.48067 -5.25615,-5.34536 -7.16699,-8.59408c-0.02808,-0.03786 -0.0751,-0.06168 -0.14104,-0.07146c-6.32098,-1.00462 -12.24135,-2.43845 -17.7611,-4.3015c-2.15539,-0.69026 -3.76361,-1.88909 -4.82466,-3.5965c-3.51525,-5.60955 -5.4165,-12.44564 -5.70374,-20.50825c-0.13884,-3.15446 -0.16654,-6.37669 -0.0831,-9.66668c0.20849,-7.31516 1.37683,-14.28582 3.50502,-20.91198c1.68227,-5.20958 3.89568,-9.6833 6.64025,-13.42117c2.48317,-3.33855 5.80823,-5.42341 9.97518,-6.25456c0.90129,-0.16964 1.48138,-0.21842 1.74028,-0.14634c-0.00978,0.06595 -0.00307,0.13434 0.02013,0.20517c0.9743,2.06522 1.91073,4.15853 2.8093,6.27992c-0.09892,-0.01467 -0.17891,-0.04338 -0.23996,-0.08613c-1.57655,-0.50334 -3.07499,-0.62442 -4.49532,-0.36325c-5.98453,3.99882 -9.86703,10.75238 -11.64752,20.26069c-2.14829,11.30714 -2.48412,21.29924 -1.00747,29.97628c0.14156,0.86343 0.21291,1.6322 0.21405,2.30633c-0.04683,3.49761 1.00495,6.06294 3.15535,7.69598c2.20167,1.74174 4.87173,3.16542 8.01017,4.27101c3.29841,1.16301 6.61217,1.65435 9.94127,1.47401c-0.45651,-1.92106 -1.15179,-3.70903 -2.08583,-5.36391c-1.46639,-2.60995 -2.00704,-5.55441 -1.62195,-8.83338c1.55417,3.83608 3.25978,7.55983 5.11684,11.17124c1.1013,2.11775 2.33755,4.12072 3.70877,6.00892c1.25888,1.73675 2.50128,3.47105 3.72719,5.20291c3.3505,4.67529 8.80368,6.64641 16.35954,5.91336c0.01467,-0.09892 0.02689,-0.18135 0.03667,-0.2473c0.65739,-3.0701 1.30803,-5.75368 1.95189,-8.05075c-0.00978,0.06595 -0.022,0.14838 -0.03667,0.2473c0.50985,5.19763 1.66334,9.91784 3.46049,14.16062c0.06595,0.00978 0.12945,0.03604 0.1905,0.07879c5.21425,3.46893 11.67793,6.0111 19.39105,7.6265c0.06595,0.00978 0.14838,0.022 0.2473,0.03667c0.79135,0.11733 1.23705,0.52039 1.3371,1.20918c-0.09892,-0.01467 -0.18135,-0.02689 -0.2473,-0.03667c-2.74912,1.04138 -6.01109,1.45071 -9.78589,1.22799c-2.34231,-0.11142 -4.46416,-0.45972 -6.36555,-1.04492c-2.64021,-0.82954 -4.95012,-1.27312 -6.92973,-1.33076c-0.09892,-0.01467 -0.17891,-0.04338 -0.23996,-0.08613c-2.06375,-1.08104 -3.23532,-2.83854 -3.51468,-5.27249c-0.09892,-0.01467 -0.16242,-0.04093 -0.1905,-0.07879c-0.44934,-0.60579 -0.97196,-1.17189 -1.56786,-1.69831c-0.09892,-0.01467 -0.18135,-0.02689 -0.2473,-0.03667c-3.21916,-0.10664 -6.19893,-0.46421 -8.9393,-1.07271c-0.09892,-0.01467 -0.16731,-0.00796 -0.20517,0.02013c-1.18838,0.96952 -2.15208,2.24193 -2.89112,3.81723c0.20739,1.78303 0.48073,3.57583 0.82002,5.37841c0.94338,5.22822 4.658,8.35685 11.14384,9.38592c1.97347,0.32631 3.79556,0.31004 5.46625,-0.0488c4.52112,-0.94713 9.31382,-0.65773 14.37809,0.8682c0.82057,0.82932 1.54404,1.74533 2.17041,2.74804c1.71061,2.78096 3.47802,5.51979 5.30221,8.21649c0.06595,0.00978 0.14838,0.022 0.2473,0.03667c0.73029,0.07458 1.47217,0.18458 2.22566,0.33c10.9243,-2.99681 20.38579,-7.94594 28.38448,-14.84738c2.86043,-2.47387 5.77702,-4.87202 8.74979,-7.19445c1.36769,0.77565 2.60775,1.61662 3.72018,2.52291c0.02808,0.03786 0.09158,0.06413 0.1905,0.07879z" fill-opacity="0.99608" fill="#2b2c3f"/><path d="M629.3872,330.06c0.06595,0.00978 0.14593,0.03849 0.23996,0.08613c0.97327,0.48128 2.02288,0.78855 3.14884,0.9218c2.78665,1.65999 5.71316,3.17223 8.77951,4.53672c5.40856,2.38572 9.74294,5.53886 13.00316,9.45941c6.67428,8.1672 10.69579,18.31674 12.06455,30.44864c-0.08697,2.17745 -0.25211,4.42755 -0.49541,6.75031c-0.75561,7.36883 -2.42639,13.52365 -5.01234,18.46445c-5.41498,10.38472 -12.92465,17.96523 -22.52901,22.74153c-9.57139,4.7812 -21.18129,6.83391 -34.82972,6.15814c-6.14145,-1.07909 -11.6417,-2.61912 -16.50075,-4.62009l-0.022,0.14838c-0.09892,-0.01467 -0.16242,-0.04093 -0.1905,-0.07879c-1.11243,-0.90629 -2.3525,-1.74726 -3.72018,-2.52291c-2.97276,2.32243 -5.88936,4.72058 -8.74979,7.19445c-7.99869,6.90145 -17.46019,11.85057 -28.38448,14.84738c-0.75348,-0.14542 -1.49537,-0.25542 -2.22566,-0.33c-0.09892,-0.01467 -0.18135,-0.02689 -0.2473,-0.03667c-1.8242,-2.6967 -3.5916,-5.43553 -5.30221,-8.21649c-0.62637,-1.00271 -1.34984,-1.91872 -2.17041,-2.74804c-5.06427,-1.52593 -9.85697,-1.81533 -14.37809,-0.8682c-1.67069,0.35884 -3.49277,0.37511 -5.46625,0.0488c-6.48585,-1.02906 -10.20046,-4.1577 -11.14384,-9.38592c-0.33929,-1.80258 -0.61263,-3.59539 -0.82002,-5.37841c0.73904,-1.5753 1.70274,-2.84771 2.89112,-3.81723c0.03786,-0.02808 0.10625,-0.03479 0.20517,-0.02013c2.74037,0.60851 5.72014,0.96608 8.9393,1.07271c0.06595,0.00978 0.14838,0.022 0.2473,0.03667c0.5959,0.52642 1.11852,1.09253 1.56786,1.69831c0.02808,0.03786 0.09158,0.06413 0.1905,0.07879c0.27937,2.43395 1.45093,4.19145 3.51468,5.27249c0.06106,0.04275 0.14104,0.07146 0.23996,0.08613c1.97961,0.05764 4.28952,0.50122 6.92973,1.33076c1.90139,0.5852 4.02324,0.93351 6.36555,1.04492c3.77481,0.22272 7.03677,-0.18661 9.78589,-1.22799c0.06595,0.00978 0.14838,0.022 0.2473,0.03667c-0.10006,-0.68879 -0.54576,-1.09185 -1.3371,-1.20918c-0.09892,-0.01467 -0.18135,-0.02689 -0.2473,-0.03667c-7.71312,-1.6154 -14.1768,-4.15757 -19.39105,-7.6265c-0.06106,-0.04275 -0.12456,-0.06901 -0.1905,-0.07879c-1.79714,-4.24278 -2.95064,-8.96299 -3.46049,-14.16062c0.01467,-0.09892 0.02689,-0.18135 0.03667,-0.2473c-0.64387,2.29706 -1.2945,4.98064 -1.95189,8.05075c-0.00978,0.06595 -0.022,0.14838 -0.03667,0.2473c-7.55586,0.73305 -13.00904,-1.23807 -16.35954,-5.91336c-1.22591,-1.73186 -2.46831,-3.46616 -3.72719,-5.20291c-1.37122,-1.88819 -2.60747,-3.89117 -3.70877,-6.00892c-1.85706,-3.61141 -3.56267,-7.33516 -5.11684,-11.17124c-0.38508,3.27897 0.15557,6.22343 1.62195,8.83338c0.93404,1.65488 1.62932,3.44285 2.08583,5.36391c-3.3291,0.18034 -6.64286,-0.311 -9.94127,-1.47401c-3.13844,-1.1056 -5.80849,-2.52927 -8.01017,-4.27101c-2.1504,-1.63305 -3.20218,-4.19838 -3.15535,-7.69598c-0.00114,-0.67412 -0.07249,-1.4429 -0.21405,-2.30633c-1.47664,-8.67704 -1.14082,-18.66914 1.00747,-29.97628c1.78049,-9.50831 5.66299,-16.26187 11.64752,-20.26069c1.42033,-0.26117 2.91877,-0.14009 4.49532,0.36325c0.06106,0.04275 0.14104,0.07146 0.23996,0.08613c-0.89857,-2.12139 -1.83501,-4.2147 -2.8093,-6.27992c-0.02319,-0.07083 -0.0299,-0.13922 -0.02013,-0.20517c0.06595,0.00978 0.14838,0.022 0.2473,0.03667c5.68358,0.30355 11.44159,1.24154 17.27401,2.81398c4.28075,-2.73505 8.90096,-5.03224 13.86061,-6.89158c0.03786,-0.02808 0.06168,-0.0751 0.07146,-0.14104c7.75462,1.79004 14.73307,4.15581 20.93536,7.09728c0.06106,0.04275 0.14104,0.07146 0.23996,0.08613c10.95238,-2.95895 21.75274,-6.14262 32.40109,-9.55102c3.00313,-0.93632 6.38538,-1.36152 10.14677,-1.27557c0.33462,0.01592 0.66679,0.04832 0.99651,0.09721c6.74544,5.41454 11.95504,11.98297 15.6288,19.70527c-0.00489,0.03297 0.04213,0.05679 0.14104,0.07146c8.07512,-2.64422 17.05136,-4.09335 26.92873,-4.34739c0.06595,0.00978 0.14838,0.022 0.2473,0.03667c0.94529,-0.4664 1.94914,-0.41865 3.01154,0.14325c0.06106,0.04275 0.14104,0.07146 0.23996,0.08613M628.92845,336.56302c-0.09892,-0.01467 -0.18135,-0.02689 -0.2473,-0.03667c-2.83701,0.72507 -5.49393,1.71273 -7.97074,2.96297c-0.03297,-0.00489 -0.05679,0.04213 -0.07146,0.14104c-1.16018,0.09756 -2.19155,0.34901 -3.09409,0.75435c-1.47899,0.65685 -1.66591,1.23569 -0.56076,1.73653c0.06595,0.00978 0.14838,0.022 0.2473,0.03667c5.48428,2.32955 10.66811,4.86729 15.55149,7.61322c3.65666,-2.38951 7.77915,-4.17079 12.36747,-5.34385c0.03786,-0.02808 0.06168,-0.0751 0.07146,-0.14104c-3.62781,-3.94136 -9.05893,-6.51576 -16.29338,-7.72322M658.31885,365.38524c-0.02319,-0.07083 -0.0299,-0.13922 -0.02013,-0.20517c-2.36687,0.96327 -4.71969,1.94547 -7.05848,2.9466c-0.07083,0.02319 -0.13922,0.0299 -0.20517,0.02013c2.21601,4.37228 3.99417,9.08402 5.33447,14.1352c-0.00489,0.03297 0.04213,0.05679 0.14104,0.07146c1.39268,-3.93831 2.32443,-8.51782 2.79523,-13.73854c0.01467,-0.09892 0.02689,-0.18135 0.03667,-0.2473c-0.31984,-1.02465 -0.66105,-2.01878 -1.02364,-2.98238M657.0462,361.35501c0.03786,-0.02808 0.06168,-0.0751 0.07146,-0.14104c-1.71278,-5.03902 -4.27745,-9.44615 -7.69401,-13.22139c-0.06106,-0.04275 -0.12456,-0.06901 -0.1905,-0.07879c-0.66559,0.17089 -1.43681,0.25873 -2.31366,0.26351l-0.022,0.14838c-0.09892,-0.01467 -0.18135,-0.02689 -0.2473,-0.03667c-0.09892,-0.01467 -0.18379,-0.0104 -0.25463,0.01279c-4.15103,0.49654 -7.78496,1.71001 -10.90178,3.6404c0.06595,0.00978 0.12945,0.03604 0.1905,0.07879c4.94922,3.66552 9.23586,7.82251 12.85992,12.47096c2.39381,-1.59953 5.22781,-2.64517 8.502,-3.13693M659.36985,384.54652c-0.02808,-0.03786 -0.14656,0.07936 -0.35542,0.35167c-0.80612,0.8914 -0.96621,1.7438 -0.48025,2.55721c1.24818,-0.69107 1.52674,-1.66069 0.83568,-2.90888M651.18947,379.03716c-0.09892,-0.01467 -0.14593,-0.03849 -0.14104,-0.07146c-1.21477,-2.94332 -2.60237,-5.74378 -4.16278,-8.40137c-0.09892,-0.01467 -0.16731,-0.00796 -0.20517,0.02013c-2.87135,1.8657 -5.41973,4.16681 -7.64515,6.90332c-0.00978,0.06595 1.30049,1.00157 3.93081,2.80687c2.66329,1.81019 4.80027,3.30646 6.41093,4.48881l1.31698,1.00401c0.14178,-0.95621 0.23899,-1.95272 0.29163,-2.98954l-0.09892,-0.01467c0.01467,-0.09892 0.02689,-0.18135 0.03667,-0.2473c0.03922,-1.1736 0.1279,-2.33987 0.26604,-3.4988M644.85457,366.87657c0.03786,-0.02808 0.06168,-0.0751 0.07146,-0.14104c-3.11844,-4.87676 -7.24022,-9.0093 -12.36533,-12.39762c-0.06106,-0.04275 -0.12456,-0.06901 -0.1905,-0.07879c-6.82704,2.86297 -12.23341,7.62146 -16.2191,14.27548c-0.04275,0.06106 -0.07146,0.14104 -0.08613,0.23996c6.42832,2.09886 12.84197,4.29663 19.24096,6.59332c0.06106,0.04275 0.14104,0.07146 0.23996,0.08613c2.63462,-3.45089 5.73751,-6.31003 9.30867,-8.57743M632.55023,380.3172c-2.79154,-1.62702 -5.89331,-2.97991 -9.30531,-4.05867c-3.51091,-1.09343 -6.94855,-2.22654 -10.31291,-3.39933c-3.8903,5.55614 -6.42462,12.76234 -7.60296,21.61858c-0.19067,1.28594 -0.27753,2.55357 -0.26058,3.80289c0.02547,1.41908 0.94803,2.12872 2.76767,2.12894c7.52642,0.37461 14.49116,-0.00802 20.89422,-1.14788c0.07083,-0.02319 0.15571,-0.02746 0.25463,-0.01279c-0.25562,-6.91221 0.90408,-13.14281 3.47911,-18.69178c0.04764,-0.09403 0.07635,-0.17402 0.08613,-0.23996M636.63692,381.73188c-0.09403,-0.04764 -0.17402,-0.07635 -0.23996,-0.08613c-1.2276,2.14312 -2.10108,4.62517 -2.62045,7.44616c-0.56337,3.11774 -0.66079,5.93389 -0.29228,8.44846c0.02319,0.07083 0.11722,0.11847 0.28209,0.14292c5.70097,-2.0864 10.99717,-4.73828 15.8886,-7.95564c0.03786,-0.02808 0.10625,-0.03479 0.20517,-0.02013c-4.15673,-2.87406 -8.56445,-5.53261 -13.22317,-7.97564M627.82013,352.21971c0.03786,-0.02808 0.06168,-0.0751 0.07146,-0.14104c-3.55958,-2.58334 -7.89778,-4.57447 -13.01458,-5.9734c-0.09892,-0.01467 -0.18135,-0.02689 -0.2473,-0.03667l0.022,-0.14838c-1.69991,-0.35314 -3.23679,-0.7832 -4.61061,-1.29018c-7.83236,4.87056 -14.74284,11.02352 -20.73145,18.45889c-0.9014,1.07946 -1.00469,1.88974 -0.30988,2.43083c2.94321,-0.30495 5.92121,-0.50365 8.93401,-0.5961l-0.022,0.14838l-0.01467,0.09892c3.62336,0.33506 7.32546,0.93452 11.10629,1.79839l-0.01467,0.09892c0.57395,0.21989 1.14364,0.35491 1.70907,0.40505c0.21375,-0.30528 0.41102,-0.61301 0.5918,-0.92318c0.04764,-0.09403 0.07635,-0.17402 0.08613,-0.23996c0.06595,0.00978 0.14838,0.022 0.2473,0.03667c4.31781,-6.16671 9.71684,-10.87574 16.1971,-14.12711M608.05419,339.28079c0.54587,0.18203 1.01602,0.42023 1.41044,0.71459c1.40577,-1.07207 2.9544,-1.97132 4.6459,-2.69775c0.03786,-0.02808 0.06168,-0.0751 0.07146,-0.14104c-2.91513,0.34281 -5.08717,1.01484 -6.51614,2.01608l0.38834,0.10813M603.32746,343.88733c-0.77907,-0.65468 -1.94227,-0.87769 -3.48959,-0.66905c-1.3678,0.13417 -2.61957,0.1676 -3.75531,0.1003c-9.99753,4.24624 -17.56155,11.85239 -22.69205,22.81845c-0.31028,0.72904 -0.32563,1.40072 -0.04604,2.01503c0.05617,0.07572 0.16668,0.12581 0.33155,0.15025c2.47556,-1.01455 5.18739,-1.69078 8.13549,-2.02871c0.07083,-0.02319 0.15571,-0.02746 0.25463,-0.01279c3.10123,-4.32523 6.34289,-8.46116 9.72496,-12.40778c3.38207,-3.94662 7.22753,-7.26852 11.53637,-9.96571M607.27714,372.47566c0.00978,-0.06595 -0.01342,-0.13678 -0.06958,-0.2125c-1.46661,-0.79032 -3.35947,-1.20576 -5.67859,-1.24634c-2.01259,-0.06253 -3.93603,-0.04444 -5.77034,0.05426c-0.09892,-0.01467 -0.18135,-0.02689 -0.2473,-0.03667c-3.76014,-0.32164 -7.2254,-0.24573 -10.39578,0.22773c-1.39735,2.15164 -2.40881,4.4279 -3.03437,6.82877c-1.34765,5.2255 -1.87281,10.47185 -1.57546,15.73907c0.06595,0.00978 0.14593,0.03849 0.23996,0.08613c4.39129,2.20119 9.44027,3.94389 15.14694,5.2281c1.10891,-0.20625 2.19519,-0.14628 3.25884,0.17991c0.06106,0.04275 0.14104,0.07146 0.23996,0.08613c0.06595,0.00978 0.14838,0.022 0.2473,0.03667c0.47992,0.17225 0.96229,0.32802 1.44711,0.4673c-1.1228,-6.06356 -0.35513,-12.1501 2.30301,-18.25961c1.31685,-2.97232 2.61295,-6.03197 3.88829,-9.17893M572.46479,371.35769c-0.10381,0.01831 -0.18868,0.02257 -0.25463,0.01279c-1.47351,5.84709 -1.73795,11.26689 -0.79332,16.25941c-0.00489,0.03297 0.04213,0.05679 0.14104,0.07146c1.19544,1.25557 2.64186,2.29563 4.33928,3.12017c0.06106,0.04275 0.14104,0.07146 0.23996,0.08613c-0.16398,-7.303 1.20947,-13.83887 4.12037,-19.60763c0.04764,-0.09403 0.07635,-0.17402 0.08613,-0.23996c-2.8369,-0.18475 -5.46318,-0.08554 -7.87882,0.29764M587.89843,338.51631c0.04275,-0.06106 0.06901,-0.12456 0.07879,-0.1905c-6.4714,0.69166 -11.90126,2.76771 -16.28957,6.22816c-0.03786,0.02808 -0.06413,0.09158 -0.07879,0.1905c-0.09892,-0.01467 -0.18379,-0.0104 -0.25463,0.01279c-0.3212,0.12086 -0.60272,0.31501 -0.84455,0.58243c-0.09892,-0.01467 -0.15082,-0.00551 -0.15571,0.02746c-1.23238,1.26627 -2.45987,2.49957 -3.68247,3.69989c-0.09892,-0.01467 -0.15082,-0.00551 -0.15571,0.02746c-1.40338,1.5105 -2.8324,2.96665 -4.28706,4.36845c-0.00978,0.06595 -0.03604,0.12945 -0.07879,0.1905c-4.00242,3.58506 -6.64521,9.02289 -7.92839,16.3135c-0.38248,1.89775 -0.49503,3.56594 -0.33766,5.00457c0.16589,1.60838 0.27318,3.15753 0.32184,4.64744c0.31157,8.80757 3.02065,15.76344 8.12723,20.86759c1.06751,-1.29072 1.028,-2.72872 -0.11855,-4.31402c-0.21978,-0.33587 -0.41819,-0.70226 -0.59522,-1.09918c-0.5079,-1.11993 -0.92603,-2.2771 -1.2544,-3.47151c-0.11667,-4.66757 -0.07275,-9.39557 0.13177,-14.184c0.08083,-1.90878 0.26058,-3.80289 0.53925,-5.68233c0.91651,-4.81766 2.42033,-8.82373 4.51147,-12.01823c0.04275,-0.06106 0.06901,-0.12456 0.07879,-0.1905c0.55576,-0.79373 1.00344,-1.65404 1.34306,-2.58092c0.04764,-0.09403 0.07635,-0.17402 0.08613,-0.23996c0.06595,0.00978 0.14838,0.022 0.2473,0.03667c0.37009,-0.45059 0.72125,-0.88714 1.05347,-1.30965c0.00489,-0.03297 0.05679,-0.04213 0.15571,-0.02746c0.06595,0.00978 0.14838,0.022 0.2473,0.03667c1.05046,-1.63022 2.25782,-3.06869 3.62209,-4.3154c0.04275,-0.06106 0.06901,-0.12456 0.07879,-0.1905c0.06595,0.00978 0.14838,0.022 0.2473,0.03667c1.29832,-1.25649 2.63388,-2.42322 4.00668,-3.50018c0.04275,-0.06106 0.06901,-0.12456 0.07879,-0.1905c0.06595,0.00978 0.14838,0.022 0.2473,0.03667c3.51874,-3.05022 7.13822,-5.9844 10.85844,-8.80256M657.21074,394.33567c0.04764,-0.09403 0.07635,-0.17402 0.08613,-0.23996c0.91732,-1.41408 1.12203,-2.68108 0.61413,-3.80102c-0.02319,-0.07083 -0.127,-0.05253 -0.31142,0.05492c-1.14677,0.23434 -1.44056,0.96582 -0.88139,2.19445c0.02808,0.03786 0.03479,0.10625 0.02013,0.20517c-0.00978,0.06595 -0.022,0.14838 -0.03667,0.2473c-0.31039,1.63886 -0.46018,3.21728 -0.44938,4.73528c0.22364,-1.28105 0.54313,-2.41309 0.95847,-3.39613M652.3068,395.02385c0.14292,-0.28209 0.2034,-0.5764 0.18146,-0.88293c-5.89028,2.22682 -12.13899,4.48474 -18.74614,6.77375c-0.07083,0.02319 -0.13922,0.0299 -0.20517,0.02013c-0.26547,3.83586 0.78501,7.0918 3.15144,9.76781c0.02808,0.03786 0.09158,0.06413 0.1905,0.07879c6.71107,-3.21714 11.85371,-8.46966 15.42792,-15.75755M651.52163,404.41016c-0.03786,0.02808 -0.05924,0.05861 -0.06413,0.09158c-0.23695,0.23445 -0.74382,0.69846 -1.5206,1.39202c-0.08061,0.08914 -0.18016,0.19232 -0.29863,0.30955c-1.48274,1.36394 -3.36912,2.83652 -5.65912,4.41774c-2.44145,1.69356 -3.686,2.58735 -3.73363,2.68138c-0.36156,0.62034 0.11285,0.94342 1.42323,0.96922c0.06595,0.00978 0.14838,0.022 0.2473,0.03667c3.55899,-2.63988 6.30402,-5.13086 8.23507,-7.47296c0.86354,-1.05138 1.45898,-1.77183 1.78632,-2.16137c0.0855,-0.12211 0.17345,-0.26071 0.26384,-0.4158c0.82693,-1.25899 0.60038,-1.20834 -0.67963,0.15196M636.54293,416.79715c0.03786,-0.02808 0.0336,-0.11296 -0.01279,-0.25463c-0.57634,-0.65831 -1.20402,-0.97042 -1.88303,-0.9363l-0.022,0.14838c-0.09892,-0.01467 -0.16731,-0.00796 -0.20517,0.02013c-0.21739,0.10256 -0.42074,0.22405 -0.61005,0.36446c-0.09892,-0.01467 -0.18135,-0.02689 -0.2473,-0.03667c-0.09892,-0.01467 -0.16731,-0.00796 -0.20517,0.02013c-5.6033,2.33676 -11.4734,4.31384 -17.61029,5.93124c0.06595,0.00978 0.14593,0.03849 0.23996,0.08613c0.96349,0.54723 2.2604,0.89116 3.89073,1.0318c6.47026,-1.36578 12.0253,-3.49067 16.66511,-6.37466M633.01529,412.63476c0.03786,-0.02808 0.06168,-0.0751 0.07146,-0.14104c-1.63853,-3.03985 -2.76348,-6.47531 -3.37486,-10.3064c-0.02808,-0.03786 -0.0751,-0.06168 -0.14104,-0.07146c-6.4349,1.80909 -14.18553,2.37847 -23.25188,1.70814l-0.022,0.14838c0.21467,2.18848 0.75117,4.13824 1.60949,5.84929c0.02808,0.03786 0.03479,0.10625 0.02013,0.20517c-0.00978,0.06595 -0.00307,0.13434 0.02013,0.20517c0.89232,3.29988 2.29578,6.22063 4.21037,8.76225c4.06803,-0.84582 8.13851,-1.70813 12.21143,-2.58693c0.03786,-0.02808 0.06168,-0.0751 0.07146,-0.14104c0.06595,0.00978 0.14838,0.022 0.2473,0.03667c0.06595,0.00978 0.14838,0.022 0.2473,0.03667c2.73571,-1.17816 5.42929,-2.41311 8.08074,-3.70486M588.95514,416.61555c0.02808,0.03786 0.03479,0.10625 0.02013,0.20517c2.94674,0.80759 6.04248,1.51933 9.28722,2.13523c0.06595,0.00978 0.14838,0.022 0.2473,0.03667c3.20938,0.17258 6.32047,0.21265 9.33326,0.1202c0.06595,0.00978 0.14838,0.022 0.2473,0.03667c-3.06477,-4.32964 -5.21842,-9.34978 -6.46095,-15.06042c-0.02808,-0.03786 -0.0751,-0.06168 -0.14104,-0.07146c-6.86446,-0.74822 -13.37345,-2.30303 -19.52696,-4.66442c-0.09892,-0.01467 -0.18135,-0.02689 -0.2473,-0.03667c0.82594,6.92938 3.23962,12.69573 7.24105,17.29904M567.12682,416.56345c-0.00489,0.03297 0.04213,0.05679 0.14104,0.07146c0.05264,-1.03682 0.40317,-1.35552 1.0516,-0.9561c0.34314,0.18567 0.6918,0.22052 1.04597,0.10454c1.14313,-0.43706 2.09882,-1.08726 2.86708,-1.95057c-0.53223,-1.86489 -1.32461,-3.56616 -2.37713,-5.10382c-0.02808,-0.03786 -0.0751,-0.06168 -0.14104,-0.07146c-1.7405,1.96598 -2.603,4.60129 -2.58753,7.90595M576.46972,397.52799c-0.01831,-0.10381 -0.02257,-0.18868 -0.01279,-0.25463c-1.23091,-0.78907 -2.46671,-1.54516 -3.70739,-2.26828c-0.09403,-0.04764 -0.17402,-0.07635 -0.23996,-0.08613c1.21683,6.1112 3.65928,11.34265 7.32734,15.69435c0.02808,0.03786 0.09158,0.06413 0.1905,0.07879c-1.6897,-4.05836 -2.8756,-8.4464 -3.5577,-13.16411M521.13152,396.09613c-0.00489,0.03297 0.04213,0.05679 0.14104,0.07146c0.60101,-1.32619 0.71226,-2.30377 0.33375,-2.93275c-0.02808,-0.03786 -0.0751,-0.06168 -0.14104,-0.07146c-0.31767,1.23341 -0.42892,2.21099 -0.33375,2.93275M526.50567,354.73726l0.14838,0.022c4.54758,-7.71643 9.75514,-14.5431 15.62266,-20.48003c0.04275,-0.06106 0.06901,-0.12456 0.07879,-0.1905c-1.39588,0.09631 -2.56709,0.49551 -3.51363,1.19761c-0.07083,0.02319 -0.13922,0.0299 -0.20517,0.02013c-0.41865,-1.94914 -1.32648,-3.21262 -2.7235,-3.79043c0.00489,-0.03297 0.01222,-0.08243 0.022,-0.14838c-2.03361,2.1247 -3.64596,4.81733 -4.83706,8.07788c-1.30104,3.54753 -2.17156,6.80506 -2.61157,9.77261c-0.48606,0.09642 -0.7615,0.4768 -0.8263,1.14114l-0.09892,-0.01467c-0.30061,1.57291 -0.65251,3.03713 -1.05568,4.39265z" fill="#000000"/><path d="M526.65405,354.75926l-0.14838,-0.022c0.40317,-1.35552 0.75506,-2.81974 1.05568,-4.39265l0.09892,0.01467c0.06481,-0.66434 0.34024,-1.04472 0.8263,-1.14114c0.44,-2.96754 1.31052,-6.22508 2.61157,-9.77261c1.1911,-3.26055 2.80345,-5.95318 4.83706,-8.07788c-0.00978,0.06595 -0.01711,0.1154 -0.022,0.14838c1.39702,0.57781 2.30486,1.84129 2.7235,3.79043c0.06595,0.00978 0.13434,0.00307 0.20517,-0.02013c0.94654,-0.7021 2.11775,-1.1013 3.51363,-1.19761c-0.00978,0.06595 -0.03604,0.12945 -0.07879,0.1905c-5.86752,5.93693 -11.07508,12.76361 -15.62266,20.48003z" fill="#2c2d40"/><path d="M521.27257,396.16759c-0.09892,-0.01467 -0.14593,-0.03849 -0.14104,-0.07146c-0.09517,-0.72176 0.01608,-1.69934 0.33375,-2.93275c0.06595,0.00978 0.11296,0.0336 0.14104,0.07146c0.37851,0.62898 0.26726,1.60657 -0.33375,2.93275z" fill="#353849"/><path d="M576.45693,397.27336c-0.00978,0.06595 -0.00551,0.15082 0.01279,0.25463c0.6821,4.71771 1.868,9.10574 3.5577,13.16411c-0.09892,-0.01467 -0.16242,-0.04093 -0.1905,-0.07879c-3.66806,-4.3517 -6.11051,-9.58315 -7.32734,-15.69435c0.06595,0.00978 0.14593,0.03849 0.23996,0.08613c1.24069,0.72312 2.47648,1.47921 3.70739,2.26828M588.97526,416.82072c0.01467,-0.09892 0.00796,-0.16731 -0.02013,-0.20517c-4.00143,-4.60331 -6.41511,-10.36966 -7.24105,-17.29904c0.06595,0.00978 0.14838,0.022 0.2473,0.03667c6.15351,2.36139 12.6625,3.91619 19.52696,4.66442c0.06595,0.00978 0.11296,0.0336 0.14104,0.07146c1.24253,5.71064 3.39618,10.73078 6.46095,15.06042c-0.09892,-0.01467 -0.18135,-0.02689 -0.2473,-0.03667c-3.01279,0.09245 -6.12388,0.05238 -9.33326,-0.1202c-0.09892,-0.01467 -0.18135,-0.02689 -0.2473,-0.03667c-3.24474,-0.61589 -6.34048,-1.32764 -9.28722,-2.13523M624.43996,416.26629c-0.00978,0.06595 -0.0336,0.11296 -0.07146,0.14104c-4.07292,0.8788 -8.1434,1.74111 -12.21143,2.58693c-1.91459,-2.54162 -3.31804,-5.46237 -4.21037,-8.76225c-0.02319,-0.07083 -0.0299,-0.13922 -0.02013,-0.20517c0.06595,0.00978 0.14593,0.03849 0.23996,0.08613c4.67213,2.57981 10.0966,4.63092 16.27342,6.15332M636.53014,416.54252c0.04639,0.14167 0.05065,0.22654 0.01279,0.25463c-4.63981,2.88399 -10.19485,5.00888 -16.66511,6.37466c-1.63033,-0.14064 -2.92724,-0.48457 -3.89073,-1.0318c-0.09403,-0.04764 -0.17402,-0.07635 -0.23996,-0.08613c6.13689,-1.61739 12.00699,-3.59447 17.61029,-5.93124c0.03786,-0.02808 0.10625,-0.03479 0.20517,-0.02013c-0.00978,0.06595 -0.022,0.14838 -0.03667,0.2473c-0.01592,0.33462 0.20693,0.53615 0.66855,0.60459c1.25057,-0.25264 1.4741,-0.62387 0.67059,-1.11368c-0.09403,-0.04764 -0.17402,-0.07635 -0.23996,-0.08613l0.022,-0.14838c0.67901,-0.03411 1.30669,0.27799 1.88303,0.9363M572.21016,371.37049c0.06595,0.00978 0.15082,0.00551 0.25463,-0.01279c2.41565,-0.38318 5.04192,-0.48239 7.87882,-0.29764c-0.00978,0.06595 -0.03849,0.14593 -0.08613,0.23996c-2.9109,5.76876 -4.28435,12.30463 -4.12037,19.60763c-0.09892,-0.01467 -0.17891,-0.04338 -0.23996,-0.08613c-1.69742,-0.82454 -3.14384,-1.86459 -4.33928,-3.12017c-0.09892,-0.01467 -0.14593,-0.03849 -0.14104,-0.07146c-0.94463,-4.99252 -0.68019,-10.41232 0.79332,-16.25941M595.75864,371.07107c-0.00978,0.06595 -0.022,0.14838 -0.03667,0.2473c-2.21549,11.53306 -0.99233,20.89702 3.66947,28.09187c-0.09892,-0.01467 -0.17891,-0.04338 -0.23996,-0.08613c-1.06366,-0.3262 -2.14994,-0.38617 -3.25884,-0.17991c-5.70667,-1.28421 -10.75565,-3.02691 -15.14694,-5.2281c-0.09403,-0.04764 -0.17402,-0.07635 -0.23996,-0.08613c-0.29734,-5.26722 0.22781,-10.51357 1.57546,-15.73907c0.62556,-2.40087 1.63702,-4.67713 3.03437,-6.82877c3.17038,-0.47346 6.63564,-0.54936 10.39578,-0.22773c0.06595,0.00978 0.14838,0.022 0.2473,0.03667M599.83787,343.21828c1.54733,-0.20864 2.71053,0.01437 3.48959,0.66905c-4.30884,2.69718 -8.15429,6.01909 -11.53637,9.96571c-3.38207,3.94662 -6.62373,8.08255 -9.72496,12.40778c-0.09892,-0.01467 -0.18379,-0.0104 -0.25463,0.01279c-2.9481,0.33793 -5.65993,1.01416 -8.13549,2.02871c-0.16486,-0.02444 -0.27538,-0.07453 -0.33155,-0.15025c-0.27959,-0.61431 -0.26424,-1.28599 0.04604,-2.01503c5.13051,-10.96606 12.69452,-18.57221 22.69205,-22.81845c1.13574,0.0673 2.38751,0.03387 3.75531,-0.1003M609.46463,339.99539c-0.39442,-0.29436 -0.86457,-0.53256 -1.41044,-0.71459l-0.38834,-0.10813c1.42896,-1.00124 3.60101,-1.67327 6.51614,-2.01608c-0.00978,0.06595 -0.0336,0.11296 -0.07146,0.14104c-1.6915,0.72643 -3.24013,1.62568 -4.6459,2.69775M614.62971,346.06859c-0.16486,-0.02444 -0.32973,-0.04889 -0.49459,-0.07333c-0.32973,-0.04889 -0.58924,-0.00312 -0.77855,0.13729c-6.03228,5.00267 -11.09811,11.32804 -15.19749,18.97614c-0.09892,-0.01467 -0.18135,-0.02689 -0.2473,-0.03667l0.022,-0.14838c-3.01279,0.09245 -5.9908,0.29115 -8.93401,0.5961c-0.69482,-0.54109 -0.59152,-1.35137 0.30988,-2.43083c5.98861,-7.43537 12.89909,-13.58833 20.73145,-18.45889c1.37383,0.50698 2.9107,0.93704 4.61061,1.29018l-0.022,0.14838M620.56017,339.82087c-1.13585,0.84251 -2.32787,1.6093 -3.57605,2.30037c-1.10516,-0.50084 -0.91824,-1.07968 0.56076,-1.73653c0.90254,-0.40534 1.9339,-0.65679 3.09409,-0.75435c-0.00978,0.06595 -0.03604,0.12945 -0.07879,0.1905z" fill="#343444"/><path d="M567.26786,416.63491c-0.09892,-0.01467 -0.14593,-0.03849 -0.14104,-0.07146c-0.01548,-3.30466 0.84703,-5.93998 2.58753,-7.90595c0.06595,0.00978 0.11296,0.0336 0.14104,0.07146c1.05252,1.53766 1.84489,3.23893 2.37713,5.10382c-0.76826,0.86332 -1.72395,1.51351 -2.86708,1.95057c-0.35417,0.11597 -0.70283,0.08113 -1.04597,-0.10454c-0.64843,-0.39942 -0.99896,-0.08072 -1.0516,0.9561z" fill="#2c2c3f"/><path d="M633.08675,412.49372c-0.00978,0.06595 -0.0336,0.11296 -0.07146,0.14104c-2.65145,1.29174 -5.34503,2.5267 -8.08074,3.70486c-0.09892,-0.01467 -0.18135,-0.02689 -0.2473,-0.03667c-0.09892,-0.01467 -0.18135,-0.02689 -0.2473,-0.03667c-6.17682,-1.5224 -11.60129,-3.57351 -16.27342,-6.15332c-0.09403,-0.04764 -0.17402,-0.07635 -0.23996,-0.08613c0.01467,-0.09892 0.00796,-0.16731 -0.02013,-0.20517c-0.85832,-1.71105 -1.39482,-3.66082 -1.60949,-5.84929l0.022,-0.14838c9.06636,0.67033 16.81699,0.10095 23.25188,-1.70814c0.06595,0.00978 0.11296,0.0336 0.14104,0.07146c0.61138,3.83108 1.73633,7.26655 3.37486,10.3064M554.20574,379.61897c-0.04867,-1.48991 -0.15595,-3.03906 -0.32184,-4.64744c-0.15737,-1.43863 -0.04481,-3.10682 0.33766,-5.00457c0.06595,0.00978 0.14838,0.022 0.2473,0.03667c1.90992,0.75495 4.09891,1.33225 6.56697,1.73189c-0.27867,1.87944 -0.45842,3.77356 -0.53925,5.68233c-0.20452,4.78843 -0.24845,9.51643 -0.13177,14.184c0.32837,1.19441 0.7465,2.35158 1.2544,3.47151c0.17703,0.39692 0.37544,0.76332 0.59522,1.09918c1.14655,1.5853 1.18606,3.02331 0.11855,4.31402c-5.10658,-5.10415 -7.81566,-12.06002 -8.12723,-20.86759M587.97723,338.32581c-0.00978,0.06595 -0.03604,0.12945 -0.07879,0.1905c-3.72022,2.81816 -7.3397,5.75235 -10.85844,8.80256c-0.09892,-0.01467 -0.18135,-0.02689 -0.2473,-0.03667c-1.33108,-0.56803 -2.8655,-1.01458 -4.60328,-1.33964l0.01467,-0.09892c0.06595,0.00978 0.14838,0.022 0.2473,0.03667c-0.37612,-0.19056 -0.65025,-0.50078 -0.82239,-0.93068c-0.02319,-0.07083 -0.0299,-0.13922 -0.02013,-0.20517c0.01467,-0.09892 0.04093,-0.16242 0.07879,-0.1905c4.38831,-3.46045 9.81817,-5.5365 16.28957,-6.22816M607.20756,372.26316c0.05617,0.07572 0.07936,0.14656 0.06958,0.2125c-1.27535,3.14697 -2.57145,6.20661 -3.88829,9.17893c-2.65814,6.10951 -3.42581,12.19605 -2.30301,18.25961c-0.48481,-0.13928 -0.96718,-0.29504 -1.44711,-0.4673c-0.09892,-0.01467 -0.18135,-0.02689 -0.2473,-0.03667c-4.6618,-7.19485 -5.88496,-16.55881 -3.66947,-28.09187c0.01467,-0.09892 0.02689,-0.18135 0.03667,-0.2473c1.8343,-0.0987 3.75775,-0.11678 5.77034,-0.05426c2.31912,0.04058 4.21198,0.45603 5.67859,1.24634M636.39696,381.64576c0.06595,0.00978 0.14593,0.03849 0.23996,0.08613c4.65871,2.44303 9.06643,5.10158 13.22317,7.97564c-0.09892,-0.01467 -0.16731,-0.00796 -0.20517,0.02013c-4.89143,3.21736 -10.18763,5.86924 -15.8886,7.95564c-0.16486,-0.02444 -0.25889,-0.07208 -0.28209,-0.14292c-0.36851,-2.51456 -0.27108,-5.33072 0.29228,-8.44846c0.51936,-2.82099 1.39285,-5.30304 2.62045,-7.44616M651.04842,378.9657c-0.00489,0.03297 0.04213,0.05679 0.14104,0.07146c-0.13814,1.15893 -0.22682,2.3252 -0.26604,3.4988c-0.00978,0.06595 -0.022,0.14838 -0.03667,0.2473l0.09892,0.01467c-0.05264,1.03682 -0.14985,2.03334 -0.29163,2.98954l-1.31698,-1.00401c-1.61066,-1.18235 -3.74764,-2.67862 -6.41093,-4.48881c-2.63032,-1.8053 -3.94059,-2.74092 -3.93081,-2.80687c2.22542,-2.73652 4.7738,-5.03762 7.64515,-6.90332c0.03786,-0.02808 0.10625,-0.03479 0.20517,-0.02013c1.56042,2.65759 2.94801,5.45805 4.16278,8.40137z" fill="#475c81"/><path d="M633.56259,416.10252c0.06595,0.00978 0.14838,0.022 0.2473,0.03667c0.18931,-0.14042 0.39266,-0.26191 0.61005,-0.36446c0.03786,-0.02808 0.10625,-0.03479 0.20517,-0.02013c0.06595,0.00978 0.14593,0.03849 0.23996,0.08613c0.80351,0.48981 0.57998,0.86104 -0.67059,1.11368c-0.46162,-0.06844 -0.68447,-0.26998 -0.66855,-0.60459c0.01467,-0.09892 0.02689,-0.18135 0.03667,-0.2473z" fill="#425574"/><path d="M651.79639,404.60254l-0.00733,0.04946c0.2797,-0.2955 0.4171,-0.42677 0.41221,-0.3938c-0.09039,0.15509 -0.17834,0.29369 -0.26384,0.4158c-0.32734,0.38953 -0.92278,1.10999 -1.78632,2.16137c-1.93105,2.34209 -4.67608,4.83308 -8.23507,7.47296c-0.09892,-0.01467 -0.18135,-0.02689 -0.2473,-0.03667c-1.31038,-0.0258 -1.78479,-0.34888 -1.42323,-0.96922c0.04764,-0.09403 1.29218,-0.98782 3.73363,-2.68138c2.29,-1.58122 4.17638,-3.0538 5.65912,-4.41774l1.57006,-1.38469l0.17038,-0.12638c0.00489,-0.03297 0.07146,-0.14104 0.19971,-0.32421l-0.03667,0.2473c0.07572,-0.05617 0.13496,-0.11478 0.17771,-0.17584c0.78168,-0.72654 0.80732,-0.67219 0.07692,0.16304z" fill="#415476"/><path d="M651.78905,404.65199l0.00733,-0.04946c0.7304,-0.83524 0.70476,-0.88958 -0.07692,-0.16304c-0.04275,0.06106 -0.10199,0.11967 -0.17771,0.17584l0.03667,-0.2473c-0.12825,0.18317 -0.19482,0.29124 -0.19971,0.32421l-0.17038,0.12638l-1.57006,1.38469c0.11847,-0.11722 0.21802,-0.22041 0.29863,-0.30955c0.77679,-0.69357 1.28366,-1.15757 1.5206,-1.39202c0.00489,-0.03297 0.02626,-0.0635 0.06413,-0.09158c1.28002,-1.3603 1.50656,-1.41095 0.67963,-0.15196c0.00489,-0.03297 -0.13252,0.09829 -0.41221,0.3938z" fill="#415370"/><path d="M652.48826,394.14092c0.02195,0.30653 -0.03854,0.60084 -0.18146,0.88293c-3.57421,7.28789 -8.71685,12.54041 -15.42792,15.75755c-0.09892,-0.01467 -0.16242,-0.04093 -0.1905,-0.07879c-2.36643,-2.67601 -3.41691,-5.93194 -3.15144,-9.76781c0.06595,0.00978 0.13434,0.00307 0.20517,-0.02013c6.60715,-2.28902 12.85586,-4.54693 18.74614,-6.77375z" fill="#465c81"/><path d="M657.29687,394.09571c-0.00978,0.06595 -0.03849,0.14593 -0.08613,0.23996c-0.41534,0.98304 -0.73483,2.11509 -0.95847,3.39613c-0.01081,-1.51799 0.13898,-3.09642 0.44938,-4.73528c0.01467,-0.09892 0.02689,-0.18135 0.03667,-0.2473c0.01467,-0.09892 0.00796,-0.16731 -0.02013,-0.20517c-0.55918,-1.22863 -0.26538,-1.96011 0.88139,-2.19445c0.18442,-0.10745 0.28823,-0.12575 0.31142,-0.05492c0.5079,1.11993 0.30319,2.38694 -0.61413,3.80102M659.01442,384.89819c0.20886,-0.27231 0.32734,-0.38953 0.35542,-0.35167c0.69107,1.24818 0.41251,2.21781 -0.83568,2.90888c-0.48595,-0.8134 -0.32587,-1.6658 0.48025,-2.55721z" fill="#435878"/><path d="M568.51175,355.40546c-0.09892,-0.01467 -0.15082,-0.00551 -0.15571,0.02746c-0.33223,0.42251 -0.68338,0.85906 -1.05347,1.30965c-0.09892,-0.01467 -0.18135,-0.02689 -0.2473,-0.03667c-0.09892,-0.01467 -0.15082,-0.00551 -0.15571,0.02746c-0.78293,0.96224 -1.20742,1.89338 -1.27347,2.79342c-0.00978,0.06595 -0.03604,0.12945 -0.07879,0.1905c-2.09114,3.19449 -3.59496,7.20057 -4.51147,12.01823c-2.46806,-0.39964 -4.65706,-0.97694 -6.56697,-1.73189c-0.09892,-0.01467 -0.18135,-0.02689 -0.2473,-0.03667c1.28318,-7.29061 3.92597,-12.72844 7.92839,-16.3135c0.04275,-0.06106 0.06901,-0.12456 0.07879,-0.1905c0.06595,0.00978 0.14838,0.022 0.2473,0.03667c1.87695,0.75006 3.88885,1.38535 6.03572,1.90585M572.20409,345.84365l-0.01467,0.09892c1.73778,0.32506 3.2722,0.7716 4.60328,1.33964c-0.00978,0.06595 -0.03604,0.12945 -0.07879,0.1905c-1.3728,1.07696 -2.70836,2.24369 -4.00668,3.50018c-0.09892,-0.01467 -0.18135,-0.02689 -0.2473,-0.03667c-1.59361,-0.84284 -3.52797,-1.43293 -5.80309,-1.77027l0.01467,-0.09892c1.2226,-1.20033 2.45009,-2.43362 3.68247,-3.69989c0.00489,-0.03297 0.05679,-0.04213 0.15571,-0.02746c0.06595,0.00978 0.12945,0.03604 0.1905,0.07879c0.32848,0.28459 0.82978,0.42631 1.5039,0.42517M646.89749,348.32567c1.04046,0.25536 1.83482,0.69327 2.38308,1.31372c0.08425,0.11358 0.16606,0.24366 0.24542,0.39021c1.51642,2.95435 2.59987,6.21517 3.25035,9.78247c-2.66193,-2.95571 -5.43501,-5.84365 -8.31922,-8.66383c-0.1502,-0.12336 -0.20085,-0.34991 -0.15196,-0.67963c0.21022,-1.41783 0.98701,-2.11139 2.33036,-2.0807l0.01467,-0.09892c0.06595,0.00978 0.14838,0.022 0.2473,0.03667M655.82494,371.63704c-0.09892,-0.01467 -0.18135,-0.02689 -0.2473,-0.03667c-2.20906,-1.23738 -2.24676,-2.57402 -0.11309,-4.00993c0.03786,-0.02808 0.10625,-0.03479 0.20517,-0.02013c0.59112,-0.35042 1.08571,-0.27709 1.48377,0.22c1.32972,1.71355 1.13416,3.03246 -0.58667,3.95673c-0.25889,-0.07208 -0.50619,-0.10875 -0.74189,-0.11M636.43857,340.45661c-0.00978,0.06595 -0.00062,0.11785 0.02746,0.15571c2.93935,1.31196 3.74514,3.15001 2.41738,5.51416c-0.09892,-0.01467 -0.18135,-0.02689 -0.2473,-0.03667c-0.09892,-0.01467 -0.18135,-0.02689 -0.2473,-0.03667l-0.01467,0.09892c-0.52267,-0.1112 -0.87196,-0.02819 -1.04785,0.24901c-0.30039,-0.24673 -0.77543,-0.45195 -1.42511,-0.61567l0.01467,-0.09892c-1.49708,-1.2666 -3.27812,-2.32257 -5.34313,-3.16791c0.00489,-0.03297 0.01222,-0.08243 0.022,-0.14838c-2.46806,-0.39964 -4.276,-1.27426 -5.42379,-2.62386c-0.11722,-0.11847 0.02382,-0.04701 0.42313,0.21438c0.18317,0.12825 0.43962,0.21682 0.76935,0.26571c0.06595,0.00978 0.14838,0.022 0.2473,0.03667c3.26191,0.04558 6.53786,0.11009 9.82785,0.19353z" fill="#8fbbbe"/><path d="M567.05527,356.7059c-0.00978,0.06595 -0.03849,0.14593 -0.08613,0.23996c-0.33961,0.92688 -0.7873,1.78718 -1.34306,2.58092c0.06606,-0.90004 0.49055,-1.83118 1.27347,-2.79342c0.00489,-0.03297 0.05679,-0.04213 0.15571,-0.02746z" fill="#94c3c7"/><path d="M572.45138,345.88032c-0.09892,-0.01467 -0.18135,-0.02689 -0.2473,-0.03667c-0.67412,0.00114 -1.17542,-0.14058 -1.5039,-0.42517c-0.06106,-0.04275 -0.12456,-0.06901 -0.1905,-0.07879c0.24184,-0.26742 0.52335,-0.46156 0.84455,-0.58243c0.07083,-0.02319 0.15571,-0.02746 0.25463,-0.01279c-0.00978,0.06595 -0.00307,0.13434 0.02013,0.20517c0.17214,0.4299 0.44627,0.74012 0.82239,0.93068M572.45993,350.93622c-0.00978,0.06595 -0.03604,0.12945 -0.07879,0.1905c-1.36427,1.24671 -2.57163,2.68518 -3.62209,4.3154c-0.09892,-0.01467 -0.18135,-0.02689 -0.2473,-0.03667c-2.14687,-0.5205 -4.15877,-1.15579 -6.03572,-1.90585c-0.09892,-0.01467 -0.18135,-0.02689 -0.2473,-0.03667c1.45466,-1.4018 2.88368,-2.85795 4.28706,-4.36845c0.00489,-0.03297 0.05679,-0.04213 0.15571,-0.02746l-0.01467,0.09892c2.27512,0.33734 4.20948,0.92742 5.80309,1.77027M657.11766,361.21397c-0.00978,0.06595 -0.0336,0.11296 -0.07146,0.14104c-3.27419,0.49176 -6.10819,1.53741 -8.502,3.13693c-3.62406,-4.64845 -7.9107,-8.80544 -12.85992,-12.47096c-0.06106,-0.04275 -0.12456,-0.06901 -0.1905,-0.07879c3.11682,-1.93039 6.75075,-3.14386 10.90178,-3.6404c0.07083,-0.02319 0.15571,-0.02746 0.25463,-0.01279l-0.01467,0.09892c-1.34335,-0.03069 -2.12014,0.66287 -2.33036,2.0807c-0.04889,0.32973 0.00176,0.55627 0.15196,0.67963c2.88421,2.82018 5.65729,5.70812 8.31922,8.66383c-0.65049,-3.5673 -1.73394,-6.82813 -3.25035,-9.78247c-0.07936,-0.14656 -0.16117,-0.27663 -0.24542,-0.39021c-0.54826,-0.62045 -1.34262,-1.05836 -2.38308,-1.31372l0.022,-0.14838c0.87685,-0.00478 1.64807,-0.09261 2.31366,-0.26351c0.06595,0.00978 0.12945,0.03604 0.1905,0.07879c3.41656,3.77525 5.98122,8.18238 7.69401,13.22139z" fill="#475d81"/><path d="M611.28961,366.55011c-0.18078,0.31017 -0.37805,0.6179 -0.5918,0.92318c-0.56543,-0.05014 -1.13511,-0.18515 -1.70907,-0.40505l0.01467,-0.09892c0.06595,0.00978 0.14838,0.022 0.2473,0.03667c0.40056,0.02569 0.81272,0.08681 1.23648,0.18333c0.21375,-0.30528 0.44155,-0.59163 0.68338,-0.85906c0.03786,-0.02808 0.10625,-0.03479 0.20517,-0.02013c-0.00978,0.06595 -0.03849,0.14593 -0.08613,0.23996z" fill="#364461"/><path d="M627.89159,352.07867c-0.00978,0.06595 -0.0336,0.11296 -0.07146,0.14104c-6.48026,3.25136 -11.87929,7.9604 -16.1971,14.12711c-0.09892,-0.01467 -0.18135,-0.02689 -0.2473,-0.03667c-0.09892,-0.01467 -0.16731,-0.00796 -0.20517,0.02013c-0.24184,0.26742 -0.46963,0.55377 -0.68338,0.85906c-0.42376,-0.09653 -0.83592,-0.15764 -1.23648,-0.18333c-0.09892,-0.01467 -0.18135,-0.02689 -0.2473,-0.03667c-3.78083,-0.86387 -7.48293,-1.46333 -11.10629,-1.79839l0.01467,-0.09892c0.06595,0.00978 0.14838,0.022 0.2473,0.03667c4.09938,-7.64809 9.16521,-13.97347 15.19749,-18.97614c0.18931,-0.14042 0.44883,-0.18618 0.77855,-0.13729c0.16486,0.02444 0.32973,0.04889 0.49459,0.07333c0.06595,0.00978 0.14838,0.022 0.2473,0.03667c5.1168,1.39893 9.45499,3.39007 13.01458,5.9734M623.24492,376.25853c3.412,1.07876 6.51377,2.43165 9.30531,4.05867c-0.00978,0.06595 -0.03849,0.14593 -0.08613,0.23996c-2.57503,5.54897 -3.73473,11.77957 -3.47911,18.69178c-0.09892,-0.01467 -0.18379,-0.0104 -0.25463,0.01279c-6.40307,1.13986 -13.36781,1.52249 -20.89422,1.14788c-1.81964,-0.00022 -2.74219,-0.70987 -2.76767,-2.12894c-0.01695,-1.24932 0.06991,-2.51695 0.26058,-3.80289c1.17834,-8.85624 3.71266,-16.06244 7.60296,-21.61858c3.36436,1.17279 6.80199,2.3059 10.31291,3.39933M644.92602,366.73553c-0.00978,0.06595 -0.0336,0.11296 -0.07146,0.14104c-3.57116,2.2674 -6.67405,5.12654 -9.30867,8.57743c-0.09892,-0.01467 -0.17891,-0.04338 -0.23996,-0.08613c-6.39899,-2.29669 -12.81264,-4.49447 -19.24096,-6.59332c0.01467,-0.09892 0.04338,-0.17891 0.08613,-0.23996c3.98569,-6.65402 9.39205,-11.41252 16.2191,-14.27548c0.06595,0.00978 0.12945,0.03604 0.1905,0.07879c5.12511,3.38832 9.24688,7.52086 12.36533,12.39762z" fill="#475d82"/><path d="M658.29872,365.18007c-0.00978,0.06595 -0.00307,0.13434 0.02013,0.20517c0.36259,0.9636 0.7038,1.95772 1.02364,2.98238c-0.00978,0.06595 -0.022,0.14838 -0.03667,0.2473c-0.47081,5.22072 -1.40255,9.80023 -2.79523,13.73854c-0.09892,-0.01467 -0.14593,-0.03849 -0.14104,-0.07146c-1.3403,-5.05118 -3.11846,-9.76292 -5.33447,-14.1352c0.06595,0.00978 0.13434,0.00307 0.20517,-0.02013c2.33878,-1.00113 4.69161,-1.98333 7.05848,-2.9466M655.57765,371.60037c0.06595,0.00978 0.14838,0.022 0.2473,0.03667c0.2357,0.00125 0.48299,0.03792 0.74189,0.11c1.72083,-0.92427 1.91639,-2.24317 0.58667,-3.95673c-0.39806,-0.49709 -0.89265,-0.57042 -1.48377,-0.22c-0.09892,-0.01467 -0.16731,-0.00796 -0.20517,0.02013c-2.13367,1.43591 -2.09597,2.77256 0.11309,4.00993z" fill="#455a7e"/><path d="M628.68116,336.52635c0.06595,0.00978 0.14838,0.022 0.2473,0.03667c7.23444,1.20745 12.66557,3.78186 16.29338,7.72322c-0.00978,0.06595 -0.0336,0.11296 -0.07146,0.14104c-4.58832,1.17305 -8.71081,2.95433 -12.36747,5.34385c-4.88338,-2.74592 -10.06721,-5.28366 -15.55149,-7.61322c-0.09892,-0.01467 -0.18135,-0.02689 -0.2473,-0.03667c1.24818,-0.69107 2.4402,-1.45786 3.57605,-2.30037c0.04275,-0.06106 0.06901,-0.12456 0.07879,-0.1905c0.01467,-0.09892 0.03849,-0.14593 0.07146,-0.14104c2.47681,-1.25024 5.13373,-2.2379 7.97074,-2.96297M636.46603,340.61232c-0.02808,-0.03786 -0.03724,-0.08977 -0.02746,-0.15571c-3.28999,-0.08344 -6.56594,-0.14795 -9.82785,-0.19353c-0.09892,-0.01467 -0.18135,-0.02689 -0.2473,-0.03667c-0.32973,-0.04889 -0.58618,-0.13746 -0.76935,-0.26571c-0.39931,-0.26139 -0.54036,-0.33285 -0.42313,-0.21438c1.1478,1.3496 2.95573,2.22422 5.42379,2.62386c-0.00978,0.06595 -0.01711,0.1154 -0.022,0.14838c2.065,0.84534 3.84605,1.90131 5.34313,3.16791l-0.01467,0.09892c0.64968,0.16372 1.12471,0.36895 1.42511,0.61567c0.17589,-0.2772 0.52517,-0.3602 1.04785,-0.24901l0.01467,-0.09892c0.06595,0.00978 0.14838,0.022 0.2473,0.03667c0.06595,0.00978 0.14838,0.022 0.2473,0.03667c1.32777,-2.36415 0.52197,-4.2022 -2.41738,-5.51416z" fill="#475c80"/><path d="M744.31425,364.17c2.22829,-5.00429 5.86847,-9.80871 10.92056,-14.41326c2.44271,-0.39624 4.85571,-0.83268 7.23898,-1.30933c11.04115,-2.10938 21.69538,-1.79819 31.96269,0.93357c0.05944,0.08041 0.09556,0.15733 0.10838,0.23075c2.92984,6.20701 4.83412,12.26018 5.71283,18.15952c3.50557,1.09783 6.99307,2.39553 10.46251,3.89309c8.74644,3.81442 17.4888,7.73548 26.22708,11.76318c4.9973,2.2749 9.87572,5.34229 14.63527,9.20215c0.05944,0.08041 0.10897,0.14743 0.14859,0.20103c2.56158,3.57783 4.75546,6.82643 6.58167,9.7458c-0.08041,0.05944 -0.11071,0.10256 -0.0909,0.12936c0.38574,5.84922 -0.67363,11.48168 -3.17813,16.89736c-0.08041,0.05944 -0.14743,0.10897 -0.20103,0.14859c-6.97037,6.27109 -13.42386,9.17587 -19.36049,8.71436c-6.98782,-4.57544 -14.09277,-8.60837 -21.31485,-12.09881c-9.91302,-4.7759 -19.93384,-8.91256 -30.06246,-12.40999c-1.49523,1.22951 -2.9083,2.1496 -4.23921,2.76028c-3.97291,1.85883 -8.04895,4.16693 -12.22814,6.92429c-1.03256,-1.06053 -2.0622,-2.06104 -3.08893,-3.00154c-9.38624,-8.60545 -18.77248,-17.2109 -28.15872,-25.81635c2.20848,-6.93772 4.84991,-13.8224 7.92429,-20.65406M798.58474,372.48943c-2.91121,0.65962 -5.88768,1.59544 -8.92942,2.80747c3.23401,6.56246 6.88758,13.18786 10.96069,19.87619c0.05944,0.08041 0.10897,0.14743 0.14859,0.20103c3.12914,-1.31808 6.21808,-2.60644 9.26681,-3.86508l-0.08915,-0.12062c-2.00334,-4.28058 -4.00319,-8.58446 -5.99953,-12.91165c-0.01981,-0.0268 0.01049,-0.06992 0.0909,-0.12936c3.71302,-0.92067 7.08165,-1.69042 10.10591,-2.30925l-0.08915,-0.12062c-4.82831,-1.65374 -9.72014,-2.80459 -14.67549,-3.45258c-0.23308,-0.03496 -0.49647,-0.02681 -0.79015,0.02447M815.07827,379.07465c-1.88914,0.36011 -3.79343,0.98011 -5.71287,1.85999c3.13379,7.5484 6.12772,15.07583 8.98181,22.58228c0.03263,0.10023 0.06876,0.17714 0.10838,0.23075c4.1011,-1.12462 8.14684,-1.95963 12.13723,-2.50504c0.07342,-0.01282 0.15034,-0.04895 0.23075,-0.10838c-2.02665,-4.76073 -4.54918,-9.63159 -7.5676,-14.61258l0.12062,-0.08915c3.25501,-0.25056 6.16447,-0.66019 8.72838,-1.22891l-0.26746,-0.36186c-4.84113,-2.68047 -9.80755,-4.60516 -14.89925,-5.77408c-0.59902,-0.13752 -1.21902,-0.13519 -1.86,0.00699z" fill-opacity="0.99608" fill="#000000"/><path d="M809.3654,380.93464c1.91944,-0.87988 3.82373,-1.49988 5.71287,-1.85999c0.64098,-0.14218 1.26098,-0.14451 1.86,-0.00699c5.0917,1.16892 10.05811,3.09362 14.89925,5.77408l0.26746,0.36186c-2.56392,0.56872 -5.47338,0.97835 -8.72838,1.22891l-0.12062,0.08915c3.01842,4.98099 5.54095,9.85185 7.5676,14.61258c-0.08041,0.05944 -0.15733,0.09556 -0.23075,0.10838c-3.99038,0.54541 -8.03613,1.38042 -12.13723,2.50504c-0.03962,-0.05361 -0.07575,-0.13053 -0.10838,-0.23075c-2.85409,-7.50645 -5.84802,-15.03388 -8.98181,-22.58228M789.65532,375.2969c3.04174,-1.21203 6.01821,-2.14785 8.92942,-2.80747c0.29368,-0.05128 0.55707,-0.05944 0.79015,-0.02447c4.95535,0.64798 9.84718,1.79884 14.67549,3.45258l0.08915,0.12062c-3.02426,0.61883 -6.39289,1.38858 -10.10591,2.30925c-0.08041,0.05944 -0.11071,0.10256 -0.0909,0.12936c1.99635,4.32719 3.99619,8.63108 5.99953,12.91165l0.08915,0.12062c-3.04873,1.25864 -6.13767,2.547 -9.26681,3.86508c-0.03962,-0.05361 -0.08915,-0.12062 -0.14859,-0.20103c-4.07311,-6.68833 -7.72668,-13.31373 -10.96069,-19.87619z" fill-opacity="0.99608" fill="#ffffff"/><path d="M850.35,284c-2.23333,0.63333 -4.68333,1.05 -7.35,1.25c-2.1,0.2 -4.58333,0.26667 -7.45,0.2c-0.46667,-0.03333 -0.95,-0.13333 -1.45,-0.3c-0.26667,-0.1 -0.73333,-0.3 -1.4,-0.6c-0.6,-0.26667 -1.23333,-0.46667 -1.9,-0.6c-0.6,-0.13333 -1.01667,-0.13333 -1.25,0c-0.3,0.16667 -0.48333,0.56667 -0.55,1.2c-0.1,0.93333 -0.25,2.03333 -0.45,3.3c-0.1,0.76667 -0.26667,1.88333 -0.5,3.35c-0.3,2.13333 -0.75,5.31667 -1.35,9.55c-0.06667,0.33333 -0.1,0.8 -0.1,1.4c-0.03333,0.6 -0.06667,1.05 -0.1,1.35c-0.1,0.8 0,1.43333 0.3,1.9c0.3,0.5 0.81667,0.88333 1.55,1.15c0.53333,0.16667 1.08333,0.46667 1.65,0.9c0.23333,0.16667 0.7,0.58333 1.4,1.25c1.53333,1.36667 3.33333,2.48333 5.4,3.35c1.7,0.7 3.71667,1.28333 6.05,1.75c2.86667,0.53333 5.33333,0.93333 7.4,1.2c2.66667,0.3 5.15,0.41667 7.45,0.35c0.76667,-0.03333 1.45,0.15 2.05,0.55c0.43333,0.3 0.9,0.78333 1.4,1.45c1.2,1.56667 2.35,3.35 3.45,5.35c0.9,1.63333 1.85,3.51667 2.85,5.65c0.23333,0.5 0.61667,1.43333 1.15,2.8c0.5,1.16667 0.9,2.06667 1.2,2.7c0.43333,0.83333 0.6,1.68333 0.5,2.55c-0.06667,0.76667 -0.31667,1.58333 -0.75,2.45c-1.46667,3 -2.76667,5.41667 -3.9,7.25c-1.76667,2.93333 -4.01667,6.13333 -6.75,9.6c-0.36667,0.46667 -0.73333,0.85 -1.1,1.15c-0.46667,0.43333 -1,0.8 -1.6,1.1c0.06667,-0.93333 -0.15,-1.78333 -0.65,-2.55c-0.23333,-0.36667 -0.78333,-0.98333 -1.65,-1.85c-1.76667,-1.7 -3.58333,-3.91667 -5.45,-6.65c-2.1,-3.2 -3.68333,-5.58333 -4.75,-7.15c-2.03333,-3.1 -4.11667,-5.68333 -6.25,-7.75c-0.7,-0.63333 -1.36667,-1.05 -2,-1.25c-0.73333,-0.23333 -1.56667,-0.23333 -2.5,0c-4.86667,1.26667 -8.93333,3.4 -12.2,6.4c-0.9,0.83333 -1.88333,1.9 -2.95,3.2c-0.6,0.76667 -1.5,1.91667 -2.7,3.45c-0.56667,0.73333 -1.46667,2.01667 -2.7,3.85c-0.5,0.73333 -0.73333,1.21667 -0.7,1.45c0.03333,0.26667 0.38333,0.66667 1.05,1.2c1.3,1.03333 3.55,2.71667 6.75,5.05c2.03333,1.46667 5.06667,3.66667 9.1,6.6c1.26667,0.93333 2.3,2 3.1,3.2c0.93333,1.43333 1.35,2.88333 1.25,4.35c-0.1,1.5 -0.73333,2.86667 -1.9,4.1c-0.5,0.5 -1.25,1.26667 -2.25,2.3c-0.86667,0.9 -1.7,1.6 -2.5,2.1c-0.36667,0.26667 -0.55,0.5 -0.55,0.7c0,0.26667 0.18333,0.55 0.55,0.85c1.83333,1.56667 3.51667,2.9 5.05,4c1.86667,1.36667 3.68333,2.53333 5.45,3.5c3.46667,1.86667 6.93333,4.13333 10.4,6.8c-0.7,1.33333 -1.48333,2.16667 -2.35,2.5c-0.86667,0.33333 -2.11667,0.26667 -3.75,-0.2c-1.3,-0.33333 -2.68333,-0.88333 -4.15,-1.65c-0.83333,-0.46667 -2.13333,-1.23333 -3.9,-2.3c-0.73333,-0.5 -1.28333,-0.85 -1.65,-1.05c-0.33333,-0.16667 -0.61667,-0.21667 -0.85,-0.15c-0.26667,0.1 -0.41667,0.33333 -0.45,0.7c-0.16667,1.3 -0.45,3.21667 -0.85,5.75c-0.23333,2.2 -0.2,4.15 0.1,5.85c0.16667,0.8 0.35,2.23333 0.55,4.3c0.2,1.83333 0.41667,3.26667 0.65,4.3c2.33333,10.06667 7.9,18.03333 16.7,23.9c1.4,0.96667 3.03333,1.86667 4.9,2.7c1.33333,0.63333 3.05,1.33333 5.15,2.1c0.03333,0.76667 -0.26667,1.75 -0.9,2.95c-0.6,1.2 -0.88333,2.13333 -0.85,2.8c-5.3,-1.33333 -10.21667,-3.85 -14.75,-7.55c-5.06667,-4.13333 -9.01667,-8.9 -11.85,-14.3c-2.8,-5.4 -4.45,-11.36667 -4.95,-17.9c-0.43333,-5.7 -0.05,-11.65 1.15,-17.85c0.13333,-0.53333 0.13333,-0.96667 0,-1.3c-0.13333,-0.33333 -0.41667,-0.65 -0.85,-0.95c-2.1,-1.46667 -3.86667,-2.98333 -5.3,-4.55c-1.06667,-1.16667 -1.6,-2.21667 -1.6,-3.15c0,-0.9 0.5,-1.95 1.5,-3.15c1.13333,-1.33333 2.85,-3.15 5.15,-5.45c0.66667,-0.66667 1.01667,-1.21667 1.05,-1.65c0.03333,-0.46667 -0.25,-1.05 -0.85,-1.75c-1.63333,-1.9 -3.31667,-3.35 -5.05,-4.35c-3.26667,-1.83333 -6.61667,-3.68333 -10.05,-5.55c-0.6,-0.33333 -1.2,-0.78333 -1.8,-1.35c-0.13333,-0.13333 -0.66667,-0.66667 -1.6,-1.6c-0.3,-0.33333 -0.51667,-0.71667 -0.65,-1.15c-0.1,-0.36667 -0.15,-0.81667 -0.15,-1.35c0.03333,-3.66667 1.3,-7.2 3.8,-10.6c1.5,-2.06667 3.45,-4.11667 5.85,-6.15c1.2,-1.03333 3.43333,-2.76667 6.7,-5.2c0.66667,-0.5 1.65,-1.2 2.95,-2.1c1.36667,-0.93333 2.35,-1.61667 2.95,-2.05c3.2,-2.33333 6.81667,-2.61667 10.85,-0.85c1.66667,0.7 3.3,1.76667 4.9,3.2c1.16667,1 2.53333,2.4 4.1,4.2c1.46667,1.73333 2.93333,3.7 4.4,5.9c1.16667,1.73333 2.45,3.81667 3.85,6.25c0.46667,0.83333 0.8,1.41667 1,1.75c0.5,0.76667 1.05,1.15 1.65,1.15c0.6,0 1.16667,-0.4 1.7,-1.2c0.66667,-0.96667 1.5,-2.25 2.5,-3.85c1.3,-2.03333 2.13333,-3.33333 2.5,-3.9c0.4,-0.56667 0.6,-1.13333 0.6,-1.7c0.03333,-0.56667 -0.11667,-1.15 -0.45,-1.75c-2.13333,-4.13333 -4.35,-8.51667 -6.65,-13.15c-0.23333,-0.43333 -0.5,-0.73333 -0.8,-0.9c-0.3,-0.16667 -0.68333,-0.23333 -1.15,-0.2c-0.46667,0 -1.13333,0 -2,0c-0.93333,0 -1.6,0 -2,0c-6.8,0.16667 -13.45,-1.35 -19.95,-4.55c-0.9,-0.43333 -1.38333,-0.66667 -1.45,-0.7c-0.56667,-0.23333 -1.1,-0.33333 -1.6,-0.3c-0.2,0 -0.43333,-0.05 -0.7,-0.15c-0.3,-0.16667 -0.51667,-0.28333 -0.65,-0.35c-1.8,-0.9 -3.26667,-2.38333 -4.4,-4.45c-1.13333,-2.06667 -1.58333,-4.1 -1.35,-6.1c0.76667,-6.56667 1.11667,-12.35 1.05,-17.35c-0.03333,-1.9 0.23333,-3.96667 0.8,-6.2c0.3,-1.03333 0.63333,-1.68333 1,-1.95c0.33333,-0.26667 1.03333,-0.4 2.1,-0.4c0.76667,-0.03333 1.71667,0.13333 2.85,0.5c1.4,0.4 2.31667,0.63333 2.75,0.7c1.5,0.23333 3.16667,0.35 5,0.35c1.3,0 2.95,-0.05 4.95,-0.15c1.56667,-0.13333 3.33333,-0.36667 5.3,-0.7c1.2,-0.23333 2.93333,-0.6 5.2,-1.1c0.16667,-0.03333 0.41667,-0.08333 0.75,-0.15c0.3,-0.06667 0.53333,-0.13333 0.7,-0.2c2.56667,-1.16667 4.88333,-0.88333 6.95,0.85c-0.53333,-0.06667 -0.96667,0.06667 -1.3,0.4c-0.2,0.2 -0.43333,0.56667 -0.7,1.1c-0.46667,0.9 -0.95,1.55 -1.45,1.95c-0.63333,0.46667 -1.45,0.68333 -2.45,0.65c-0.7,0 -1.58333,0.16667 -2.65,0.5c-1.16667,0.43333 -2.03333,0.73333 -2.6,0.9M880,355.6c0.5,1.56667 1.25,3.9 2.25,7c0.86667,2.73333 1.58333,5.06667 2.15,7c0.43333,1.33333 0.18333,2.58333 -0.75,3.75c-0.8,1 -1.38333,1.68333 -1.75,2.05l-10.65,10.55c-1.6,1.6 -3.08333,3.38333 -4.45,5.35c-0.3,0.43333 -0.48333,0.83333 -0.55,1.2c-0.06667,0.4 -0.03333,0.85 0.1,1.35c0.56667,1.96667 1.38333,4.31667 2.45,7.05c0.56667,1.53333 1.46667,3.85 2.7,6.95c0.06667,0.23333 0.2,0.58333 0.4,1.05c0.13333,0.4 0.18333,0.76667 0.15,1.1c-0.6,-0.36667 -1.16667,-0.91667 -1.7,-1.65c-0.56667,-0.86667 -1,-1.51667 -1.3,-1.95c-2.6,-3.63333 -4.33333,-7.55 -5.2,-11.75c-1.13333,-5.4 0.13333,-10.06667 3.8,-14c2.6,-2.83333 5.35,-5.38333 8.25,-7.65c1.4,-1.13333 2.38333,-2.46667 2.95,-4c0.6,-1.53333 0.73333,-3.21667 0.4,-5.05c-0.3,-1.8 -0.5,-3.15 -0.6,-4.05c-0.16667,-1.5 -0.2,-2.86667 -0.1,-4.1c0,-0.4 0,-0.61667 0,-0.65c0.06667,-0.2 0.21667,-0.33333 0.45,-0.4c0.26667,-0.06667 0.48333,0 0.65,0.2c0.13333,0.1 0.25,0.31667 0.35,0.65M907.1,327c-2.2,1.1 -4.31667,1.81667 -6.35,2.15c-0.13333,0.03333 -0.28333,0.08333 -0.45,0.15c-0.2,0.1 -0.35,0.16667 -0.45,0.2c-1.33333,0.5 -2.16667,0.81667 -2.5,0.95c-0.73333,0.33333 -1.3,0.71667 -1.7,1.15c-0.86667,0.9 -1.25,2.55 -1.15,4.95c0.03333,0.56667 0.01667,0.98333 -0.05,1.25c-0.56667,2.16667 -0.53333,4.36667 0.1,6.6c0.46667,1.73333 1.38333,3.7 2.75,5.9c0.76667,1.23333 1.71667,2.16667 2.85,2.8c1.2,0.66667 2.55,0.98333 4.05,0.95c1.13333,-0.03333 2.38333,-0.13333 3.75,-0.3c0.8,-0.1 2.01667,-0.28333 3.65,-0.55c0.76667,-0.13333 1.48333,-0.2 2.15,-0.2c0.76667,0 1.58333,0.08333 2.45,0.25c-0.93333,1.26667 -2,2.2 -3.2,2.8c-1.06667,0.5 -2.31667,0.8 -3.75,0.9c-1.56667,0.13333 -3.73333,0.15 -6.5,0.05c-2.06667,-0.1 -4.01667,-0.9 -5.85,-2.4c-1.5,-1.2 -2.73333,-2.65 -3.7,-4.35c-0.86667,-1.5 -1.58333,-3.26667 -2.15,-5.3c-0.96667,-3.56667 -1.5,-6.66667 -1.6,-9.3c-0.03333,-0.43333 -0.11667,-1.25 -0.25,-2.45c-0.1,-1.03333 -0.15,-1.86667 -0.15,-2.5c0.03333,-4.03333 2,-6.31667 5.9,-6.85c3.8,-0.5 7,-1.13333 9.6,-1.9c3.4,-1.03333 6.38333,-2.41667 8.95,-4.15c0.66667,-0.46667 1.18333,-0.75 1.55,-0.85c0.6,-0.16667 1.13333,0.01667 1.6,0.55c0.36667,0.43333 0.43333,0.93333 0.2,1.5c-0.13333,0.33333 -0.4,0.8 -0.8,1.4c-0.66667,1.2 -1.71667,2.25 -3.15,3.15c-2.53333,1.63333 -4.46667,2.78333 -5.8,3.45M883,308.9c-1.06667,0.6 -2.3,1.11667 -3.7,1.55c-1.03333,0.3 -2.41667,0.6 -4.15,0.9c-2.1,0.3 -3.48333,0.53333 -4.15,0.7c-0.76667,0.16667 -1.68333,0.28333 -2.75,0.35c-1.2,0.06667 -2.1,0.11667 -2.7,0.15c-0.7,0.03333 -1.31667,-0.08333 -1.85,-0.35c-0.46667,-0.26667 -0.91667,-0.66667 -1.35,-1.2c-3.36667,-4.3 -5.31667,-9.25 -5.85,-14.85c-0.16667,-1.56667 -0.35,-2.8 -0.55,-3.7c-0.36667,-1.56667 -0.3,-3.13333 0.2,-4.7c0.4,-1.23333 1.15,-2.63333 2.25,-4.2c0.4,0.26667 0.76667,0.7 1.1,1.3c0.4,0.66667 0.68333,1.08333 0.85,1.25c0.6,0.63333 1,1.3 1.2,2c0.23333,0.7 0.25,1.51667 0.05,2.45c-0.3,1.63333 -0.16667,3.43333 0.4,5.4c0.3,1.03333 0.96667,2.73333 2,5.1c0.63333,1.4 1.48333,2.53333 2.55,3.4c1,0.76667 2.26667,1.35 3.8,1.75c1.1,0.26667 2.15,0.28333 3.15,0.05c3.26667,-0.7 5.88333,-1.13333 7.85,-1.3c0.9,-0.06667 1.73333,-0.35 2.5,-0.85c0.73333,-0.43333 1.36667,-1 1.9,-1.7c0.8,-1 2.08333,-2.38333 3.85,-4.15c1.76667,-1.76667 3.05,-3.15 3.85,-4.15c0.36667,0.23333 0.56667,0.51667 0.6,0.85c0,0.2 -0.06667,0.5 -0.2,0.9c-0.56667,1.43333 -1.35,2.71667 -2.35,3.85c-0.63333,0.7 -1.51667,1.78333 -2.65,3.25c-1.16667,1.5 -2.06667,2.6 -2.7,3.3c-0.9,1.03333 -1.95,1.91667 -3.15,2.65z" fill="#2c2d41"/><path d="M936.9,306.65c2.06667,1.53333 3.61667,3.65 4.65,6.35c0.3,0.76667 0.56667,1.71667 0.8,2.85c0.13333,0.66667 0.31667,1.65 0.55,2.95c0.4,2.03333 1.01667,5.28333 1.85,9.75c0.8,4.23333 1.43333,7.48333 1.9,9.75c0.5,2.46667 0.16667,4.88333 -1,7.25c-1.26667,2.63333 -2.91667,5.51667 -4.95,8.65c-0.5,0.8 -1.1,1.88333 -1.8,3.25c-0.86667,1.7 -1.43333,2.81667 -1.7,3.35c-0.73333,1.26667 -1.16667,2.66667 -1.3,4.2c-0.1,1.23333 -0.01667,2.7 0.25,4.4c0.83333,4.96667 1.25,9.58333 1.25,13.85c0,6.96667 -1.11667,14.5 -3.35,22.6c-1.33333,4.66667 -2.85,8.91667 -4.55,12.75c-1.93333,4.3 -4.18333,8.23333 -6.75,11.8c-6.2,8.63333 -13.9,14.41667 -23.1,17.35c-2.93333,0.96667 -5.61667,1.66667 -8.05,2.1c-2.9,0.56667 -5.66667,0.81667 -8.3,0.75c-3,-0.03333 -5.25,-0.05 -6.75,-0.05c-2.66667,-0.03333 -4.9,-0.16667 -6.7,-0.4c-5.23333,-0.66667 -10,-1.73333 -14.3,-3.2c-0.03333,-0.66667 0.25,-1.6 0.85,-2.8c0.63333,-1.2 0.93333,-2.18333 0.9,-2.95c-2.1,-0.76667 -3.81667,-1.46667 -5.15,-2.1c-1.86667,-0.83333 -3.5,-1.73333 -4.9,-2.7c-8.8,-5.86667 -14.36667,-13.83333 -16.7,-23.9c-0.23333,-1.03333 -0.45,-2.46667 -0.65,-4.3c-0.2,-2.06667 -0.38333,-3.5 -0.55,-4.3c-0.3,-1.7 -0.33333,-3.65 -0.1,-5.85c0.4,-2.53333 0.68333,-4.45 0.85,-5.75c0.03333,-0.36667 0.18333,-0.6 0.45,-0.7c0.23333,-0.06667 0.51667,-0.01667 0.85,0.15c0.36667,0.2 0.91667,0.55 1.65,1.05c1.76667,1.06667 3.06667,1.83333 3.9,2.3c1.46667,0.76667 2.85,1.31667 4.15,1.65c1.63333,0.46667 2.88333,0.53333 3.75,0.2c0.86667,-0.33333 1.65,-1.16667 2.35,-2.5c-3.46667,-2.66667 -6.93333,-4.93333 -10.4,-6.8c-1.76667,-0.96667 -3.58333,-2.13333 -5.45,-3.5c-1.53333,-1.1 -3.21667,-2.43333 -5.05,-4c-0.36667,-0.3 -0.55,-0.58333 -0.55,-0.85c0,-0.2 0.18333,-0.43333 0.55,-0.7c0.8,-0.5 1.63333,-1.2 2.5,-2.1c1,-1.03333 1.75,-1.8 2.25,-2.3c1.16667,-1.23333 1.8,-2.6 1.9,-4.1c0.1,-1.46667 -0.31667,-2.91667 -1.25,-4.35c-0.8,-1.2 -1.83333,-2.26667 -3.1,-3.2c-4.03333,-2.93333 -7.06667,-5.13333 -9.1,-6.6c-3.2,-2.33333 -5.45,-4.01667 -6.75,-5.05c-0.66667,-0.53333 -1.01667,-0.93333 -1.05,-1.2c-0.03333,-0.23333 0.2,-0.71667 0.7,-1.45c1.23333,-1.83333 2.13333,-3.11667 2.7,-3.85c1.2,-1.53333 2.1,-2.68333 2.7,-3.45c1.06667,-1.3 2.05,-2.36667 2.95,-3.2c3.26667,-3 7.33333,-5.13333 12.2,-6.4c0.93333,-0.23333 1.76667,-0.23333 2.5,0c0.63333,0.2 1.3,0.61667 2,1.25c2.13333,2.06667 4.21667,4.65 6.25,7.75c1.06667,1.56667 2.65,3.95 4.75,7.15c1.86667,2.73333 3.68333,4.95 5.45,6.65c0.86667,0.86667 1.41667,1.48333 1.65,1.85c0.5,0.76667 0.71667,1.61667 0.65,2.55c0.6,-0.3 1.13333,-0.66667 1.6,-1.1c0.36667,-0.3 0.73333,-0.68333 1.1,-1.15c2.73333,-3.46667 4.98333,-6.66667 6.75,-9.6c1.13333,-1.83333 2.43333,-4.25 3.9,-7.25c0.43333,-0.86667 0.68333,-1.68333 0.75,-2.45c0.1,-0.86667 -0.06667,-1.71667 -0.5,-2.55c-0.3,-0.63333 -0.7,-1.53333 -1.2,-2.7c-0.53333,-1.36667 -0.91667,-2.3 -1.15,-2.8c-1,-2.13333 -1.95,-4.01667 -2.85,-5.65c-1.1,-2 -2.25,-3.78333 -3.45,-5.35c-0.5,-0.66667 -0.96667,-1.15 -1.4,-1.45c-0.6,-0.4 -1.28333,-0.58333 -2.05,-0.55c-2.3,0.06667 -4.78333,-0.05 -7.45,-0.35c-2.06667,-0.26667 -4.53333,-0.66667 -7.4,-1.2c-2.33333,-0.46667 -4.35,-1.05 -6.05,-1.75c-2.06667,-0.86667 -3.86667,-1.98333 -5.4,-3.35c-0.7,-0.66667 -1.16667,-1.08333 -1.4,-1.25c-0.56667,-0.43333 -1.11667,-0.73333 -1.65,-0.9c-0.73333,-0.26667 -1.25,-0.65 -1.55,-1.15c-0.3,-0.46667 -0.4,-1.1 -0.3,-1.9c0.03333,-0.3 0.06667,-0.75 0.1,-1.35c0,-0.6 0.03333,-1.06667 0.1,-1.4c0.6,-4.23333 1.05,-7.41667 1.35,-9.55c0.23333,-1.46667 0.4,-2.58333 0.5,-3.35c0.2,-1.26667 0.35,-2.36667 0.45,-3.3c0.06667,-0.63333 0.25,-1.03333 0.55,-1.2c0.23333,-0.13333 0.65,-0.13333 1.25,0c0.66667,0.13333 1.3,0.33333 1.9,0.6c0.66667,0.3 1.13333,0.5 1.4,0.6c0.5,0.16667 0.98333,0.26667 1.45,0.3c2.86667,0.06667 5.35,0 7.45,-0.2c2.66667,-0.2 5.11667,-0.61667 7.35,-1.25c0.56667,-0.16667 1.43333,-0.46667 2.6,-0.9c1.06667,-0.33333 1.95,-0.5 2.65,-0.5c1,0.03333 1.81667,-0.18333 2.45,-0.65c0.5,-0.4 0.98333,-1.05 1.45,-1.95c0.26667,-0.53333 0.5,-0.9 0.7,-1.1c0.33333,-0.33333 0.76667,-0.46667 1.3,-0.4c0.26667,0.06667 0.5,0.05 0.7,-0.05c0.2,-0.06667 0.4,-0.2 0.6,-0.4c2.13333,-2 4.76667,-4.25 7.9,-6.75c3.63333,-2.8 6.35,-4.91667 8.15,-6.35c1.5,-1.16667 2.46667,-1.88333 2.9,-2.15c1.1,-0.76667 2.18333,-1.26667 3.25,-1.5c2.36667,-0.56667 4.43333,-0.6 6.2,-0.1c2,0.53333 3.71667,1.7 5.15,3.5c2.66667,3.33333 4.96667,7.18333 6.9,11.55c0.7,1.6 1.8,3.2 3.3,4.8c0.73333,0.73333 2.16667,2.05 4.3,3.95c0.66667,0.6 1.68333,1.48333 3.05,2.65c1.16667,1 2.13333,1.9 2.9,2.7c1.83333,1.93333 3.05,3.98333 3.65,6.15c0.23333,0.86667 0.58333,2.01667 1.05,3.45c0.56667,1.76667 0.91667,2.9 1.05,3.4c0.3,0.96667 0.93333,1.36667 1.9,1.2c0.63333,-0.13333 1.45,-0.18333 2.45,-0.15c1.46667,0 2.3,0 2.5,0c2.83333,-0.13333 5.33333,0.61667 7.5,2.25M888.85,302.95c1.13333,-1.46667 2.01667,-2.55 2.65,-3.25c1,-1.13333 1.78333,-2.41667 2.35,-3.85c0.13333,-0.4 0.2,-0.7 0.2,-0.9c-0.03333,-0.33333 -0.23333,-0.61667 -0.6,-0.85c-0.8,1 -2.08333,2.38333 -3.85,4.15c-1.76667,1.76667 -3.05,3.15 -3.85,4.15c-0.53333,0.7 -1.16667,1.26667 -1.9,1.7c-0.76667,0.5 -1.6,0.78333 -2.5,0.85c-1.96667,0.16667 -4.58333,0.6 -7.85,1.3c-1,0.23333 -2.05,0.21667 -3.15,-0.05c-1.53333,-0.4 -2.8,-0.98333 -3.8,-1.75c-1.06667,-0.86667 -1.91667,-2 -2.55,-3.4c-1.03333,-2.36667 -1.7,-4.06667 -2,-5.1c-0.56667,-1.96667 -0.7,-3.76667 -0.4,-5.4c0.2,-0.93333 0.18333,-1.75 -0.05,-2.45c-0.2,-0.7 -0.6,-1.36667 -1.2,-2c-0.16667,-0.16667 -0.45,-0.58333 -0.85,-1.25c-0.33333,-0.6 -0.7,-1.03333 -1.1,-1.3c-1.1,1.56667 -1.85,2.96667 -2.25,4.2c-0.5,1.56667 -0.56667,3.13333 -0.2,4.7c0.2,0.9 0.38333,2.13333 0.55,3.7c0.53333,5.6 2.48333,10.55 5.85,14.85c0.43333,0.53333 0.88333,0.93333 1.35,1.2c0.53333,0.26667 1.15,0.38333 1.85,0.35c0.6,-0.03333 1.5,-0.08333 2.7,-0.15c1.06667,-0.06667 1.98333,-0.18333 2.75,-0.35c0.66667,-0.16667 2.05,-0.4 4.15,-0.7c1.73333,-0.3 3.11667,-0.6 4.15,-0.9c1.4,-0.43333 2.63333,-0.95 3.7,-1.55c1.2,-0.73333 2.25,-1.61667 3.15,-2.65c0.63333,-0.7 1.53333,-1.8 2.7,-3.3M912.9,323.55c1.43333,-0.9 2.48333,-1.95 3.15,-3.15c0.4,-0.6 0.66667,-1.06667 0.8,-1.4c0.23333,-0.56667 0.16667,-1.06667 -0.2,-1.5c-0.46667,-0.53333 -1,-0.71667 -1.6,-0.55c-0.36667,0.1 -0.88333,0.38333 -1.55,0.85c-2.56667,1.73333 -5.55,3.11667 -8.95,4.15c-2.6,0.76667 -5.8,1.4 -9.6,1.9c-3.9,0.53333 -5.86667,2.81667 -5.9,6.85c0,0.63333 0.05,1.46667 0.15,2.5c0.13333,1.2 0.21667,2.01667 0.25,2.45c0.1,2.63333 0.63333,5.73333 1.6,9.3c0.56667,2.03333 1.28333,3.8 2.15,5.3c0.96667,1.7 2.2,3.15 3.7,4.35c1.83333,1.5 3.78333,2.3 5.85,2.4c2.76667,0.1 4.93333,0.08333 6.5,-0.05c1.43333,-0.1 2.68333,-0.4 3.75,-0.9c1.2,-0.6 2.26667,-1.53333 3.2,-2.8c-0.86667,-0.16667 -1.68333,-0.25 -2.45,-0.25c-0.66667,0 -1.38333,0.06667 -2.15,0.2c-1.63333,0.26667 -2.85,0.45 -3.65,0.55c-1.36667,0.16667 -2.61667,0.26667 -3.75,0.3c-1.5,0.03333 -2.85,-0.28333 -4.05,-0.95c-1.13333,-0.63333 -2.08333,-1.56667 -2.85,-2.8c-1.36667,-2.2 -2.28333,-4.16667 -2.75,-5.9c-0.63333,-2.23333 -0.66667,-4.43333 -0.1,-6.6c0.06667,-0.26667 0.08333,-0.68333 0.05,-1.25c-0.1,-2.4 0.28333,-4.05 1.15,-4.95c0.4,-0.43333 0.96667,-0.81667 1.7,-1.15c0.33333,-0.13333 1.16667,-0.45 2.5,-0.95c0.1,-0.03333 0.25,-0.1 0.45,-0.2c0.16667,-0.06667 0.31667,-0.11667 0.45,-0.15c2.03333,-0.33333 4.15,-1.05 6.35,-2.15c1.33333,-0.66667 3.26667,-1.81667 5.8,-3.45M879,354.75c-0.23333,0.06667 -0.38333,0.2 -0.45,0.4c0,0.03333 0,0.25 0,0.65c-0.1,1.23333 -0.06667,2.6 0.1,4.1c0.1,0.9 0.3,2.25 0.6,4.05c0.33333,1.83333 0.2,3.51667 -0.4,5.05c-0.56667,1.53333 -1.55,2.86667 -2.95,4c-2.9,2.26667 -5.65,4.81667 -8.25,7.65c-3.66667,3.93333 -4.93333,8.6 -3.8,14c0.86667,4.2 2.6,8.11667 5.2,11.75c0.3,0.43333 0.73333,1.08333 1.3,1.95c0.53333,0.73333 1.1,1.28333 1.7,1.65c0.03333,-0.33333 -0.01667,-0.7 -0.15,-1.1c-0.2,-0.46667 -0.33333,-0.81667 -0.4,-1.05c-1.23333,-3.1 -2.13333,-5.41667 -2.7,-6.95c-1.06667,-2.73333 -1.88333,-5.08333 -2.45,-7.05c-0.13333,-0.5 -0.16667,-0.95 -0.1,-1.35c0.06667,-0.36667 0.25,-0.76667 0.55,-1.2c1.36667,-1.96667 2.85,-3.75 4.45,-5.35l10.65,-10.55c0.36667,-0.36667 0.95,-1.05 1.75,-2.05c0.93333,-1.16667 1.18333,-2.41667 0.75,-3.75c-0.56667,-1.93333 -1.28333,-4.26667 -2.15,-7c-1,-3.1 -1.75,-5.43333 -2.25,-7c-0.1,-0.33333 -0.21667,-0.55 -0.35,-0.65c-0.16667,-0.2 -0.38333,-0.26667 -0.65,-0.2z" fill="#000000"/></g></g></svg>