<svg version="1.1" xmlns="http://www.w3.org/2000/svg" xmlns:xlink="http://www.w3.org/1999/xlink" width="94.45" height="79.44995" viewBox="0,0,94.45,79.44995"><g transform="translate(-598.84106,-320.27503)"><g data-paper-data="{&quot;isPaintingLayer&quot;:true}" fill-rule="nonzero" stroke="none" stroke-width="1" stroke-linecap="butt" stroke-linejoin="miter" stroke-miterlimit="10" stroke-dasharray="" stroke-dashoffset="0" style="mix-blend-mode: normal"><path d="M680.65356,331.30225c0.4,2.06667 0.58333,4.7 0.55,7.9c2.3,0.2 4.3,0.95 6,2.25c1.8,1.36667 2.95,3.13333 3.45,5.3c1.13333,4.4 1.9,9.31667 2.3,14.75c0.3,4.1 0.4,9.08333 0.3,14.95c-0.7,0.76667 -1.6,1.65 -2.7,2.65c-1.23333,1.1 -2.15,1.91667 -2.75,2.45c-0.23333,0.6 -0.53333,1.5 -0.9,2.7c-0.36667,1.23333 -0.68333,2.13333 -0.95,2.7c-4.46667,3.46667 -10.36667,5.98333 -17.7,7.55c-5.33333,1.16667 -11.31667,2.18333 -17.95,3.05c-4.5,0.56667 -10.55,1.21667 -18.15,1.95c-3.7,0.23333 -6.21667,0.28333 -7.55,0.15c-2.9,-0.23333 -5.23333,-1.08333 -7,-2.55c-1.06667,-0.76667 -1.93333,-1.86667 -2.6,-3.3c-0.4,-0.93333 -0.81667,-2.28333 -1.25,-4.05c-1.6,0.16667 -2.8,0.23333 -3.6,0.2c-1.43333,-0.06667 -2.41667,-0.61667 -2.95,-1.65c-5.26667,-8.03333 -8.01667,-16.03333 -8.25,-24c-0.1,-1.46667 -0.13333,-2.58333 -0.1,-3.35c0.06667,-1.3 0.4,-2.35 1,-3.15c0.6,-0.5 1.41667,-0.98333 2.45,-1.45c0.56667,-0.26667 1.45,-0.65 2.65,-1.15c-0.7,-3.66667 -1.16667,-6.43333 -1.4,-8.3c-0.36667,-3.3 0,-6.03333 1.1,-8.2c1.4,-1.66667 3.3,-3.3 5.7,-4.9c0.56667,-0.36667 2.75,-1.66667 6.55,-3.9c11.13333,-5.96667 23.91667,-9.16667 38.35,-9.6c8.83333,-0.23333 16.25,1.03333 22.25,3.8c1.53333,1.86667 2.58333,4.26667 3.15,7.2M677.35356,348.25225c-1.93333,-1.7 -4.65,-2.53333 -8.15,-2.5c-4.06667,0.36667 -7.03333,0.56667 -8.9,0.6c-5.33333,0.6 -9.31667,1.2 -11.95,1.8c-0.73333,0.16667 -1.43333,0.35 -2.1,0.55c-0.26667,0.06667 -0.51667,0.13333 -0.75,0.2l-0.15,-0.05c-0.03255,0 -0.04922,0.01667 -0.05,0.05c-0.00026,-0.09948 -0.01693,-0.11615 -0.05,-0.05c-0.03333,0.13333 -0.28333,0.26667 -0.75,0.4c-0.46667,0.16667 -1.11667,0.35 -1.95,0.55c-0.86667,0.2 -1.71667,0.48333 -2.55,0.85c-1.93333,0.8 -3.33333,1.35 -4.2,1.65c-0.9,0.26667 -1.73333,0.58333 -2.5,0.95c-1.03333,0.5 -1.88333,0.91667 -2.55,1.25c-2.16667,1.13333 -3.7,2.43333 -4.6,3.9c-0.5,8.66667 0.65,16.13333 3.45,22.4c5.63333,1.7 12.41667,0.45 20.35,-3.75c0.1,-1.16667 0.16667,-2.05 0.2,-2.65c0.06667,-1.06667 0.31667,-1.9 0.75,-2.5c0.96667,-0.63333 2.18333,-1.18333 3.65,-1.65c0.26667,-0.06667 1.55,-0.4 3.85,-1c0.93333,-0.13333 1.58333,0.3 1.95,1.3c0.16667,0.6 0.4,1.48333 0.7,2.65c4.23333,-0.66667 7.63333,-1.35 10.2,-2.05c3.7,-1.03333 6.88333,-2.36667 9.55,-4c-0.36667,-5.8 -0.58333,-9.03333 -0.65,-9.7c-0.5,-3.66667 -1.43333,-6.73333 -2.8,-9.2M673.60356,374.80225c-2.86667,0.66667 -4.9,1.11667 -6.1,1.35c-2.3,0.43333 -4.38333,0.7 -6.25,0.8c-0.7,0.13333 -1.43333,-0.01667 -2.2,-0.45c-0.13333,-0.1 -0.73333,-0.56667 -1.8,-1.4l-3.45,-0.3c-0.16667,0.56667 -0.3,1.5 -0.4,2.8c-0.23333,1.13333 -0.73333,1.88333 -1.5,2.25c-5.4,3.23333 -11.43333,4.88333 -18.1,4.95c0.63333,3.73333 1,6.75 1.1,9.05c7.96667,-0.76667 14.26667,-1.45 18.9,-2.05c6.93333,-0.93333 13.16667,-2.03333 18.7,-3.3c0.3,-3.03333 0.53333,-5.31667 0.7,-6.85c0.23333,-2.7 0.36667,-4.98333 0.4,-6.85M664.60356,385.25225c-0.2,0.8 -0.78333,1.3 -1.75,1.5c-1.2,0.06667 -2.05,0.11667 -2.55,0.15c-3.9,-0.03333 -6.8,0.05 -8.7,0.25c-3.23333,0.3 -6.05,0.98333 -8.45,2.05c-0.1,-1.53333 0.53333,-2.58333 1.9,-3.15c2.33333,-1.4 5.15,-2.38333 8.45,-2.95c2.23333,-0.4 5.21667,-0.65 8.95,-0.75c0.7,-0.1 1.31667,0.2 1.85,0.9c0.53333,0.7 0.63333,1.36667 0.3,2z" fill="#000000"/><path d="M673.20356,381.65225c-0.16667,1.53333 -0.4,3.81667 -0.7,6.85c-5.53333,1.26667 -11.76667,2.36667 -18.7,3.3c-4.63333,0.6 -10.93333,1.28333 -18.9,2.05c-0.1,-2.3 -0.46667,-5.31667 -1.1,-9.05c6.66667,-0.06667 12.7,-1.71667 18.1,-4.95c0.76667,-0.36667 1.26667,-1.11667 1.5,-2.25c0.1,-1.3 0.23333,-2.23333 0.4,-2.8l3.45,0.3c1.06667,0.83333 1.66667,1.3 1.8,1.4c0.76667,0.43333 1.5,0.58333 2.2,0.45c1.86667,-0.1 3.95,-0.36667 6.25,-0.8c1.2,-0.23333 3.23333,-0.68333 6.1,-1.35c-0.03333,1.86667 -0.16667,4.15 -0.4,6.85M662.45356,382.35225c-3.73333,0.1 -6.71667,0.35 -8.95,0.75c-3.3,0.56667 -6.11667,1.55 -8.45,2.95c-1.36667,0.56667 -2,1.61667 -1.9,3.15c2.4,-1.06667 5.21667,-1.75 8.45,-2.05c1.9,-0.2 4.8,-0.28333 8.7,-0.25c0.5,-0.03333 1.35,-0.08333 2.55,-0.15c0.96667,-0.2 1.55,-0.7 1.75,-1.5c0.33333,-0.63333 0.23333,-1.3 -0.3,-2c-0.53333,-0.7 -1.15,-1 -1.85,-0.9M680.80356,367.15225c-2.66667,1.63333 -5.85,2.96667 -9.55,4c-2.56667,0.7 -5.96667,1.38333 -10.2,2.05c-0.3,-1.16667 -0.53333,-2.05 -0.7,-2.65c-0.36667,-1 -1.01667,-1.43333 -1.95,-1.3c-2.3,0.6 -3.58333,0.93333 -3.85,1c-1.46667,0.46667 -2.68333,1.01667 -3.65,1.65c-0.43333,0.6 -0.68333,1.43333 -0.75,2.5c-0.03333,0.6 -0.1,1.48333 -0.2,2.65c-7.93333,4.2 -14.71667,5.45 -20.35,3.75c-2.8,-6.26667 -3.95,-13.73333 -3.45,-22.4c0.9,-1.46667 2.43333,-2.76667 4.6,-3.9c0.66667,-0.33333 1.51667,-0.75 2.55,-1.25c0.76667,-0.36667 1.6,-0.68333 2.5,-0.95c0.86667,-0.3 2.26667,-0.85 4.2,-1.65c0.83333,-0.36667 1.68333,-0.65 2.55,-0.85c0.83333,-0.2 1.48333,-0.38333 1.95,-0.55c0.46667,-0.13333 0.71667,-0.26667 0.75,-0.4c0.03307,-0.06615 0.04974,-0.04948 0.05,0.05c0.00078,-0.03333 0.01745,-0.05 0.05,-0.05l0.15,0.05c0.23333,-0.06667 0.48333,-0.13333 0.75,-0.2c0.66667,-0.2 1.36667,-0.38333 2.1,-0.55c2.63333,-0.6 6.61667,-1.2 11.95,-1.8c1.86667,-0.03333 4.83333,-0.23333 8.9,-0.6c3.5,-0.03333 6.21667,0.8 8.15,2.5c1.36667,2.46667 2.3,5.53333 2.8,9.2c0.06667,0.66667 0.28333,3.9 0.65,9.7z" fill="#e1e1e1"/></g></g></svg>