<svg version="1.1" xmlns="http://www.w3.org/2000/svg" xmlns:xlink="http://www.w3.org/1999/xlink" width="486.75" height="111.8" viewBox="0,0,486.75,111.8"><g transform="translate(-391.25541,-306.36832)"><g data-paper-data="{&quot;isPaintingLayer&quot;:true}" fill-rule="nonzero" stroke="none" stroke-width="1" stroke-linecap="butt" stroke-linejoin="miter" stroke-miterlimit="10" stroke-dasharray="" stroke-dashoffset="0" style="mix-blend-mode: normal"><path d="M411.80541,316.91832c0.3,-0.2 0.6,-0.38333 0.9,-0.55c0.3,-0.16667 0.6,-0.35 0.9,-0.55c0.16667,-0.16667 0.35,-0.33333 0.55,-0.5c0.16667,-0.2 0.33333,-0.38333 0.5,-0.55c0.3,-0.16667 0.6,-0.35 0.9,-0.55c0.23333,-0.1 0.46667,-0.21667 0.7,-0.35c0.13333,-0.06667 0.26667,-0.11667 0.4,-0.15c0.26667,-0.13333 0.55,-0.26667 0.85,-0.4c0.2,-0.16667 0.38333,-0.33333 0.55,-0.5c0.16667,-0.13333 0.35,-0.26667 0.55,-0.4c0.06667,-0.03333 0.13333,-0.06667 0.2,-0.1c0.26667,-0.1 0.55,-0.18333 0.85,-0.25c0.3,-0.1 0.6,-0.21667 0.9,-0.35c0.43333,-0.16667 0.85,-0.35 1.25,-0.55c0.16667,-0.1 0.35,-0.21667 0.55,-0.35c0.3,-0.03333 0.6,-0.08333 0.9,-0.15c0.3,-0.13333 0.58333,-0.26667 0.85,-0.4c0.43333,-0.16667 0.85,-0.33333 1.25,-0.5c0.2,-0.13333 0.38333,-0.25 0.55,-0.35c0.3,-0.13333 0.6,-0.25 0.9,-0.35c0.16667,-0.13333 0.35,-0.26667 0.55,-0.4c0.3,-0.03333 0.6,-0.08333 0.9,-0.15c0.3,-0.13333 0.6,-0.25 0.9,-0.35c0.4,-0.13333 0.81667,-0.25 1.25,-0.35c0.53333,-0.13333 1.06667,-0.26667 1.6,-0.4c0.4,-0.1 0.81667,-0.2 1.25,-0.3c0.76667,-0.13333 1.53333,-0.28333 2.3,-0.45c0.43333,-0.06667 0.85,-0.16667 1.25,-0.3c7.13333,0 14.28333,0 21.45,0c0.33333,0.13333 0.68333,0.25 1.05,0.35c0.83333,0.13333 1.66667,0.25 2.5,0.35c0.36667,0.13333 0.73333,0.25 1.1,0.35c0.56667,0.13333 1.15,0.26667 1.75,0.4c0.36667,0.1 0.73333,0.21667 1.1,0.35c0.16667,0.1 0.33333,0.21667 0.5,0.35c0.3,0.1 0.6,0.21667 0.9,0.35c0.13333,0.13333 0.25,0.25 0.35,0.35c0.23333,0.06667 0.48333,0.13333 0.75,0.2c0.26667,0.1 0.56667,0.2 0.9,0.3c0.4,0.13333 0.8,0.28333 1.2,0.45c0.3,0.1 0.6,0.2 0.9,0.3c0.2,0.13333 0.38333,0.25 0.55,0.35c0.3,0.13333 0.6,0.25 0.9,0.35c0.4,0.13333 0.81667,0.26667 1.25,0.4c0.3,0.1 0.6,0.21667 0.9,0.35c0.16667,0.1 0.33333,0.21667 0.5,0.35c0.3,0.1 0.6,0.21667 0.9,0.35c0.2,0.13333 0.38333,0.25 0.55,0.35c0.3,0.13333 0.6,0.25 0.9,0.35c0.23333,0.2 0.46667,0.38333 0.7,0.55c0.36667,0.16667 0.73333,0.35 1.1,0.55c0.16667,0.06667 0.33333,0.11667 0.5,0.15c0.06667,-0.03333 0.13333,-0.08333 0.2,-0.15c0.3,-0.13333 0.6,-0.25 0.9,-0.35c0.16667,-0.13333 0.33333,-0.26667 0.5,-0.4c0.3,-0.1 0.6,-0.21667 0.9,-0.35c0.2,-0.1 0.38333,-0.21667 0.55,-0.35c0.3,-0.06667 0.6,-0.11667 0.9,-0.15c0.3,-0.13333 0.6,-0.25 0.9,-0.35c0.4,-0.13333 0.81667,-0.26667 1.25,-0.4c5.7,0 11.4,0 17.1,0c0.43333,0.13333 0.85,0.25 1.25,0.35c2.23333,0.13333 4.45,0.26667 6.65,0.4c0.4,0.1 0.81667,0.21667 1.25,0.35c1.46667,0.1 2.95,0.21667 4.45,0.35c0.36667,0.1 0.71667,0.21667 1.05,0.35c1.06667,0.13333 2.15,0.25 3.25,0.35c0.4,0.13333 0.81667,0.25 1.25,0.35c1,0.13333 2,0.25 3,0.35c0.36667,0.13333 0.73333,0.26667 1.1,0.4c0.83333,0.1 1.66667,0.21667 2.5,0.35c0.4,0.1 0.81667,0.2 1.25,0.3c0.53333,0.13333 1.06667,0.28333 1.6,0.45c0.36667,0.1 0.71667,0.2 1.05,0.3c0.36667,0.13333 0.73333,0.25 1.1,0.35c0.33333,0.13333 0.68333,0.25 1.05,0.35c0.73333,0.26667 1.45,0.51667 2.15,0.75c0.7,0.23333 1.41667,0.46667 2.15,0.7c0.16667,0.13333 0.35,0.25 0.55,0.35c0.26667,0.13333 0.55,0.25 0.85,0.35c0.2,0.13333 0.38333,0.25 0.55,0.35c0.3,0.13333 0.6,0.25 0.9,0.35c0.36667,0.13333 0.73333,0.25 1.1,0.35c0.26667,0.1 0.55,0.16667 0.85,0.2c0.13333,0 0.25,0 0.35,0c0.3,-0.03333 0.6,-0.08333 0.9,-0.15c0.3,-0.13333 0.6,-0.26667 0.9,-0.4c0.43333,-0.16667 0.85,-0.33333 1.25,-0.5c0.16667,-0.13333 0.35,-0.25 0.55,-0.35c0.3,-0.06667 0.6,-0.13333 0.9,-0.2c0.76667,-0.1 1.53333,-0.23333 2.3,-0.4c0.43333,-0.1 0.85,-0.2 1.25,-0.3c1.2,0 2.4,0 3.6,0c0.33333,0.1 0.68333,0.21667 1.05,0.35c15.66667,0 31.31667,0 46.95,0c0.43333,-0.13333 0.85,-0.25 1.25,-0.35c2.13333,0 4.28333,0 6.45,0c0.33333,0.1 0.68333,0.21667 1.05,0.35c1.06667,0.13333 2.13333,0.25 3.2,0.35c0.36667,0.13333 0.73333,0.25 1.1,0.35c0.16667,0.2 0.35,0.38333 0.55,0.55c0.16667,0.13333 0.33333,0.25 0.5,0.35c0.06667,0.06667 0.13333,0.13333 0.2,0.2c0.3,0.1 0.6,0.21667 0.9,0.35c0.23333,0.16667 0.46667,0.35 0.7,0.55c0.13333,0.1 0.25,0.21667 0.35,0.35c0.06667,0.06667 0.13333,0.11667 0.2,0.15c0.3,0.13333 0.6,0.25 0.9,0.35c0.16667,0.2 0.33333,0.38333 0.5,0.55c0.23333,0.2 0.48333,0.38333 0.75,0.55c0.16667,0.16667 0.33333,0.35 0.5,0.55c0.2,0.16667 0.38333,0.33333 0.55,0.5c0.13333,0.2 0.25,0.38333 0.35,0.55c0.16667,0.16667 0.35,0.35 0.55,0.55c0.1,0.16667 0.21667,0.33333 0.35,0.5c0.06667,0.2 0.13333,0.38333 0.2,0.55c0.03333,0.13333 0.08333,0.25 0.15,0.35c0.23333,-0.03333 0.46667,-0.08333 0.7,-0.15c0.2,-0.13333 0.38333,-0.25 0.55,-0.35c0.3,-0.06667 0.6,-0.13333 0.9,-0.2c0.3,-0.13333 0.6,-0.25 0.9,-0.35c0.4,-0.13333 0.81667,-0.26667 1.25,-0.4c0.3,-0.1 0.6,-0.2 0.9,-0.3c0.4,-0.13333 0.81667,-0.25 1.25,-0.35c0.53333,-0.13333 1.06667,-0.26667 1.6,-0.4c0.4,-0.1 0.81667,-0.21667 1.25,-0.35c1.66667,0 3.33333,0 5,0c0.33333,0.13333 0.68333,0.25 1.05,0.35c1.06667,0.13333 2.13333,0.25 3.2,0.35c0.36667,0.13333 0.73333,0.26667 1.1,0.4c0.16667,0.16667 0.35,0.33333 0.55,0.5c0.16667,0.13333 0.33333,0.25 0.5,0.35c0.23333,0.06667 0.48333,0.13333 0.75,0.2c0.33333,0.13333 0.68333,0.25 1.05,0.35c0.23333,0.2 0.46667,0.38333 0.7,0.55c0.2,0.16667 0.38333,0.35 0.55,0.55c0.16667,0.16667 0.35,0.33333 0.55,0.5c0.16667,0.2 0.33333,0.38333 0.5,0.55c0.2,0.16667 0.38333,0.35 0.55,0.55c0.2,0.16667 0.38333,0.33333 0.55,0.5c0.16667,0.2 0.35,0.38333 0.55,0.55c0.16667,0.2 0.33333,0.38333 0.5,0.55c0.13333,0.16667 0.25,0.35 0.35,0.55c0.06667,0.16667 0.13333,0.33333 0.2,0.5c0.13333,0.2 0.25,0.38333 0.35,0.55c0.2,0.06667 0.38333,0.13333 0.55,0.2c0.1,-0.13333 0.21667,-0.26667 0.35,-0.4c0.16667,-0.16667 0.35,-0.33333 0.55,-0.5c0.06667,-0.2 0.11667,-0.38333 0.15,-0.55c0.13333,-0.16667 0.25,-0.35 0.35,-0.55c0.13333,-0.16667 0.26667,-0.33333 0.4,-0.5c0.16667,-0.2 0.33333,-0.38333 0.5,-0.55c0.2,-0.16667 0.38333,-0.35 0.55,-0.55c0.16667,-0.16667 0.35,-0.35 0.55,-0.55c0.16667,-0.16667 0.33333,-0.33333 0.5,-0.5c0.2,-0.2 0.38333,-0.38333 0.55,-0.55c0.36667,-0.36667 0.73333,-0.71667 1.1,-1.05c0.33333,-0.36667 0.68333,-0.73333 1.05,-1.1c0.36667,-0.36667 0.71667,-0.71667 1.05,-1.05c0.2,-0.2 0.38333,-0.38333 0.55,-0.55c0.43333,-0.13333 0.85,-0.26667 1.25,-0.4c0.3,-0.1 0.6,-0.2 0.9,-0.3c0.4,-0.2 0.81667,-0.38333 1.25,-0.55c0.16667,-0.13333 0.35,-0.25 0.55,-0.35c0.3,-0.06667 0.6,-0.13333 0.9,-0.2c0.53333,-0.1 1.06667,-0.21667 1.6,-0.35c0.4,-0.1 0.81667,-0.21667 1.25,-0.35c1.23333,-0.13333 2.48333,-0.25 3.75,-0.35c0.4,-0.13333 0.81667,-0.25 1.25,-0.35c2.13333,0 4.26667,0 6.4,0c0.43333,0.1 0.85,0.21667 1.25,0.35c2.7,0.1 5.38333,0.21667 8.05,0.35c0.4,0.13333 0.81667,0.25 1.25,0.35c1.23333,0.13333 2.48333,0.25 3.75,0.35c0.36667,0.13333 0.71667,0.25 1.05,0.35c0.36667,0.13333 0.73333,0.25 1.1,0.35c0.4,0.13333 0.81667,0.25 1.25,0.35c0.76667,0.13333 1.53333,0.26667 2.3,0.4c0.36667,0.1 0.73333,0.21667 1.1,0.35c0.33333,0.13333 0.68333,0.25 1.05,0.35c0.36667,0.13333 0.73333,0.23333 1.1,0.3c0.56667,0.16667 1.15,0.31667 1.75,0.45c0.43333,0.1 0.85,0.21667 1.25,0.35c0.66667,0.23333 1.31667,0.46667 1.95,0.7c0.2,0.1 0.38333,0.21667 0.55,0.35c0.36667,0.13333 0.73333,0.25 1.1,0.35c0.3,0.13333 0.6,0.25 0.9,0.35c0.33333,0.13333 0.68333,0.25 1.05,0.35c0.23333,0.2 0.46667,0.38333 0.7,0.55c0.13333,0.13333 0.25,0.25 0.35,0.35c0.06667,0.06667 0.13333,0.11667 0.2,0.15c0.3,0.13333 0.6,0.26667 0.9,0.4c0.23333,0.16667 0.46667,0.35 0.7,0.55c0.16667,0.16667 0.35,0.33333 0.55,0.5c0.16667,0.13333 0.33333,0.26667 0.5,0.4c0.06667,-0.06667 0.11667,-0.13333 0.15,-0.2c0.03333,-0.16667 0.05,-0.35 0.05,-0.55c0,-0.16667 0,-0.33333 0,-0.5c0,-0.2 0,-0.38333 0,-0.55c0.13333,-0.16667 0.25,-0.35 0.35,-0.55c0.06667,-0.16667 0.13333,-0.35 0.2,-0.55c0.06667,-0.16667 0.11667,-0.33333 0.15,-0.5c0,-0.2 0,-0.38333 0,-0.55c0.13333,-0.16667 0.25,-0.35 0.35,-0.55c0.13333,-0.16667 0.26667,-0.33333 0.4,-0.5c0.16667,-0.2 0.33333,-0.38333 0.5,-0.55c0.2,-0.13333 0.38333,-0.25 0.55,-0.35c0.3,-0.13333 0.6,-0.25 0.9,-0.35c0.16667,-0.13333 0.35,-0.26667 0.55,-0.4c0.3,-0.03333 0.58333,-0.08333 0.85,-0.15c0.56667,-0.13333 1.1,-0.26667 1.6,-0.4c0.43333,-0.1 0.86667,-0.2 1.3,-0.3c1,-0.13333 2,-0.26667 3,-0.4c0.43333,-0.1 0.85,-0.21667 1.25,-0.35c1.03333,-0.1 2.05,-0.21667 3.05,-0.35c0.43333,-0.1 0.85,-0.21667 1.25,-0.35c1,-0.13333 2.01667,-0.25 3.05,-0.35c0.4,-0.13333 0.81667,-0.25 1.25,-0.35c0.53333,-0.13333 1.06667,-0.26667 1.6,-0.4c0.4,-0.1 0.81667,-0.21667 1.25,-0.35c3.8,0 7.6,0 11.4,0c0.36667,0.13333 0.73333,0.25 1.1,0.35c0.6,0.13333 1.18333,0.28333 1.75,0.45c0.36667,0.06667 0.73333,0.15 1.1,0.25c0.6,0.13333 1.18333,0.28333 1.75,0.45c0.36667,0.1 0.73333,0.2 1.1,0.3c0.73333,0.23333 1.45,0.46667 2.15,0.7c0.16667,0.13333 0.35,0.26667 0.55,0.4c0.3,0.1 0.6,0.21667 0.9,0.35c0.23333,0.16667 0.46667,0.33333 0.7,0.5c0.1,0.13333 0.21667,0.26667 0.35,0.4c0.06667,0.03333 0.13333,0.05 0.2,0.05c0.23333,0 0.46667,-0.01667 0.7,-0.05c0.1,-0.2 0.21667,-0.38333 0.35,-0.55c0.13333,-0.16667 0.25,-0.35 0.35,-0.55c0,-0.16667 0,-0.35 0,-0.55c0,-0.16667 0,-0.33333 0,-0.5c0,-0.2 0,-0.38333 0,-0.55c0,-0.16667 0,-0.35 0,-0.55c0.06667,-0.16667 0.13333,-0.33333 0.2,-0.5c0.1,-0.2 0.21667,-0.38333 0.35,-0.55c0.16667,-0.16667 0.35,-0.35 0.55,-0.55c0.16667,-0.1 0.33333,-0.21667 0.5,-0.35c0.06667,-0.06667 0.13333,-0.1 0.2,-0.1c0.3,-0.1 0.6,-0.18333 0.9,-0.25c1.7,-0.13333 3.41667,-0.25 5.15,-0.35c0.43333,-0.13333 0.85,-0.25 1.25,-0.35c1.73333,-0.13333 3.46667,-0.26667 5.2,-0.4c0.4,-0.1 0.81667,-0.21667 1.25,-0.35c1,-0.1 2,-0.21667 3,-0.35c0.43333,-0.1 0.85,-0.21667 1.25,-0.35c7.63333,0 15.26667,0 22.9,0c0.33333,0.13333 0.68333,0.25 1.05,0.35c0.36667,0.13333 0.71667,0.25 1.05,0.35c0.36667,0.13333 0.73333,0.25 1.1,0.35c0.16667,0.2 0.35,0.38333 0.55,0.55c0.16667,0.2 0.33333,0.38333 0.5,0.55c0.2,0.16667 0.38333,0.35 0.55,0.55c0.16667,0.16667 0.35,0.33333 0.55,0.5c0.16667,0.2 0.33333,0.38333 0.5,0.55c0.06667,0.16667 0.13333,0.35 0.2,0.55c0.06667,0.16667 0.13333,0.33333 0.2,0.5c0,0.2 0,0.38333 0,0.55c0.1,0.2 0.21667,0.38333 0.35,0.55c0.03333,0.16667 0.08333,0.35 0.15,0.55c0.06667,0.16667 0.13333,0.33333 0.2,0.5c0,0.2 0,0.38333 0,0.55v0.1c0.23333,-0.06667 0.46667,-0.16667 0.7,-0.3c0.13333,-0.16667 0.25,-0.33333 0.35,-0.5c0.2,-0.2 0.38333,-0.38333 0.55,-0.55c0.06667,-0.16667 0.13333,-0.35 0.2,-0.55c0.1,-0.16667 0.21667,-0.33333 0.35,-0.5c0.1,-0.2 0.21667,-0.38333 0.35,-0.55c0.16667,-0.16667 0.35,-0.35 0.55,-0.55c0.16667,-0.16667 0.33333,-0.35 0.5,-0.55c0.2,-0.16667 0.38333,-0.33333 0.55,-0.5c0.16667,-0.2 0.35,-0.38333 0.55,-0.55c0.16667,-0.16667 0.33333,-0.35 0.5,-0.55c0.2,-0.1 0.38333,-0.21667 0.55,-0.35c0.3,-0.1 0.6,-0.21667 0.9,-0.35c0.16667,-0.13333 0.35,-0.25 0.55,-0.35c0.3,-0.06667 0.6,-0.13333 0.9,-0.2c0.26667,-0.1 0.56667,-0.2 0.9,-0.3c0.4,-0.13333 0.8,-0.26667 1.2,-0.4c6.2,0 12.4,0 18.6,0c0.33333,0.13333 0.68333,0.25 1.05,0.35c1.06667,0.13333 2.13333,0.25 3.2,0.35c0.36667,0.13333 0.73333,0.25 1.1,0.35c0.6,0.13333 1.18333,0.26667 1.75,0.4c0.43333,0.1 0.85,0.21667 1.25,0.35c0.33333,0.1 0.65,0.21667 0.95,0.35c0.33333,0.1 0.68333,0.21667 1.05,0.35c0.16667,0.13333 0.35,0.25 0.55,0.35c0.3,0.13333 0.6,0.25 0.9,0.35c0.33333,0.13333 0.68333,0.25 1.05,0.35c0.36667,0.13333 0.71667,0.26667 1.05,0.4c0.23333,0.16667 0.48333,0.33333 0.75,0.5c0.1,0.13333 0.21667,0.25 0.35,0.35c0.06667,0.06667 0.13333,0.11667 0.2,0.15c0.26667,0.16667 0.55,0.3 0.85,0.4c0.2,0.13333 0.38333,0.25 0.55,0.35c0.3,0.13333 0.6,0.25 0.9,0.35c0.16667,0.13333 0.33333,0.26667 0.5,0.4c0.3,0.1 0.6,0.21667 0.9,0.35c0.2,0.16667 0.38333,0.33333 0.55,0.5c0.16667,0.2 0.35,0.38333 0.55,0.55c0.1,0.2 0.21667,0.38333 0.35,0.55c0.06667,0.16667 0.11667,0.35 0.15,0.55c0.13333,0.16667 0.26667,0.33333 0.4,0.5c0.16667,0.2 0.33333,0.38333 0.5,0.55c0.13333,0.16667 0.25,0.35 0.35,0.55c0.06667,0.16667 0.13333,0.33333 0.2,0.5c0,0.2 0,0.38333 0,0.55c0,0.2 0,0.38333 0,0.55c0,0.16667 0,0.35 0,0.55c0,0.16667 0,0.33333 0,0.5c0,0.2 0,0.38333 0,0.55c0,0.36667 0,0.71667 0,1.05c0,0.56667 0,1.11667 0,1.65c0,0.33333 0,0.68333 0,1.05c0,0.53333 0,1.06667 0,1.6c0,0.36667 0,0.73333 0,1.1c0,0.53333 0,1.06667 0,1.6c0,0.16667 0,0.33333 0,0.5c-0.13333,0.2 -0.25,0.38333 -0.35,0.55c-0.13333,0.16667 -0.25,0.35 -0.35,0.55c0,0.16667 0,0.35 0,0.55c0,0.16667 0,0.33333 0,0.5c0,0.2 0,0.38333 0,0.55c0,0.16667 0,0.35 0,0.55c0,0.16667 0,0.33333 0,0.5c0,0.2 0,0.38333 0,0.55c-0.13333,0.16667 -0.25,0.35 -0.35,0.55c-0.13333,0.16667 -0.26667,0.35 -0.4,0.55c0,0.16667 0,0.33333 0,0.5c0,0.2 0,0.38333 0,0.55c0,0.16667 0,0.35 0,0.55c0,0.16667 0,0.33333 0,0.5c-0.03333,0.2 -0.08333,0.38333 -0.15,0.55c-0.06667,0.16667 -0.13333,0.35 -0.2,0.55c-0.1,0.16667 -0.21667,0.35 -0.35,0.55c0,0.16667 0,0.33333 0,0.5c0,0.2 0,0.38333 0,0.55c0,0.16667 0,0.35 0,0.55c-0.1,0.16667 -0.21667,0.33333 -0.35,0.5c0.13333,0.2 0.25,0.38333 0.35,0.55c0.23333,0.16667 0.46667,0.35 0.7,0.55c0.13333,0.1 0.26667,0.21667 0.4,0.35c0.3,0.13333 0.58333,0.25 0.85,0.35c0.2,0.13333 0.38333,0.25 0.55,0.35c0.3,0.13333 0.6,0.25 0.9,0.35c0.16667,0.2 0.35,0.38333 0.55,0.55c0.16667,0.16667 0.33333,0.35 0.5,0.55c0.2,0.16667 0.38333,0.35 0.55,0.55c0.2,0.16667 0.38333,0.33333 0.55,0.5c0.16667,0.2 0.35,0.38333 0.55,0.55c0.16667,0.16667 0.33333,0.35 0.5,0.55c0.2,0.16667 0.38333,0.33333 0.55,0.5c0.13333,0.2 0.25,0.38333 0.35,0.55c0.13333,0.16667 0.25,0.35 0.35,0.55c0.06667,0.16667 0.13333,0.35 0.2,0.55c0.16667,0.16667 0.35,0.33333 0.55,0.5c0.1,0.2 0.21667,0.38333 0.35,0.55c0.1,0.16667 0.21667,0.35 0.35,0.55c0.06667,0.16667 0.11667,0.33333 0.15,0.5c0.2,0.2 0.38333,0.38333 0.55,0.55c0.13333,0.16667 0.25,0.35 0.35,0.55c0.13333,0.16667 0.25,0.35 0.35,0.55c0.06667,0.16667 0.13333,0.33333 0.2,0.5c0.13333,0.2 0.25,0.38333 0.35,0.55c0.06667,0.16667 0.13333,0.35 0.2,0.55c0.1,0.16667 0.21667,0.33333 0.35,0.5c0.06667,0.2 0.11667,0.38333 0.15,0.55c0.06667,0.16667 0.13333,0.35 0.2,0.55c0,0.16667 0,0.35 0,0.55c0.13333,0.16667 0.25,0.33333 0.35,0.5c0.06667,0.2 0.13333,0.38333 0.2,0.55c0.03333,0.16667 0.08333,0.35 0.15,0.55c0.13333,0.16667 0.25,0.33333 0.35,0.5c0.13333,0.2 0.26667,0.38333 0.4,0.55c0,0.16667 0,0.35 0,0.55c0,0.16667 0,0.35 0,0.55c0.1,0.16667 0.21667,0.33333 0.35,0.5c0.1,0.2 0.21667,0.38333 0.35,0.55c0,0.16667 0,0.35 0,0.55c0,0.16667 0,0.33333 0,0.5c0,0.2 0,0.38333 0,0.55c0.1,0.16667 0.21667,0.35 0.35,0.55c0.06667,0.16667 0.13333,0.33333 0.2,0.5c0.03333,0.2 0.08333,0.38333 0.15,0.55c0,0.2 0,0.38333 0,0.55c0,0.16667 0,0.35 0,0.55c0,0.16667 0,0.33333 0,0.5c0,0.2 0,0.38333 0,0.55c-0.06667,0.16667 -0.11667,0.35 -0.15,0.55c0,0.16667 0,0.33333 0,0.5c0,0.2 0,0.38333 0,0.55c0,0.2 0,0.38333 0,0.55c0,0.16667 0,0.35 0,0.55c0,0.16667 0,0.33333 0,0.5c0,0.2 0,0.38333 0,0.55c0,0.36667 0,0.71667 0,1.05c0,0.36667 0,0.73333 0,1.1c0,0.16667 0,0.35 0,0.55c0,0.16667 0,0.33333 0,0.5c0,0.2 0,0.38333 0,0.55c-0.13333,0.16667 -0.26667,0.35 -0.4,0.55c-0.1,0.16667 -0.21667,0.33333 -0.35,0.5c0,0.2 0,0.38333 0,0.55c0,0.2 0,0.38333 0,0.55c0,0.16667 0,0.35 0,0.55c0,0.16667 0,0.33333 0,0.5c-0.06667,0.2 -0.11667,0.38333 -0.15,0.55c-0.06667,0.16667 -0.13333,0.35 -0.2,0.55c-0.1,0.16667 -0.21667,0.33333 -0.35,0.5c0,0.2 0,0.38333 0,0.55c-0.06667,0.2 -0.13333,0.38333 -0.2,0.55c-0.03333,0.16667 -0.08333,0.35 -0.15,0.55c-0.13333,0.16667 -0.25,0.33333 -0.35,0.5c-0.06667,0.2 -0.13333,0.38333 -0.2,0.55c-0.1,0.16667 -0.21667,0.35 -0.35,0.55c0,0.16667 0,0.33333 0,0.5c0,0.2 0,0.38333 0,0.55c-0.06667,0.2 -0.13333,0.38333 -0.2,0.55c-0.1,0.16667 -0.21667,0.35 -0.35,0.55c-0.1,0.16667 -0.21667,0.33333 -0.35,0.5c-0.16667,0.2 -0.35,0.38333 -0.55,0.55c-0.03333,0.16667 -0.08333,0.35 -0.15,0.55c-0.13333,0.16667 -0.25,0.33333 -0.35,0.5c-0.06667,0.2 -0.13333,0.38333 -0.2,0.55c-0.1,0.2 -0.21667,0.38333 -0.35,0.55c-0.13333,0.16667 -0.25,0.35 -0.35,0.55c-0.13333,0.1 -0.25,0.21667 -0.35,0.35c-0.3,0.1 -0.6,0.21667 -0.9,0.35c-0.13333,0.16667 -0.25,0.35 -0.35,0.55c-0.06667,0.16667 -0.13333,0.33333 -0.2,0.5c-0.16667,0.2 -0.35,0.38333 -0.55,0.55c-0.33333,0.16667 -0.68333,0.35 -1.05,0.55c-0.16667,0.16667 -0.35,0.33333 -0.55,0.5c-0.16667,0.2 -0.33333,0.38333 -0.5,0.55c-0.2,0.2 -0.38333,0.38333 -0.55,0.55c-0.23333,0.16667 -0.46667,0.35 -0.7,0.55c-0.13333,0.1 -0.26667,0.21667 -0.4,0.35c-0.26667,0.1 -0.55,0.21667 -0.85,0.35c-0.2,0.16667 -0.38333,0.35 -0.55,0.55c-0.16667,0.16667 -0.35,0.33333 -0.55,0.5c-0.23333,0.2 -0.46667,0.38333 -0.7,0.55c-0.16667,0.16667 -0.35,0.35 -0.55,0.55c-0.1,0.1 -0.21667,0.21667 -0.35,0.35c-0.3,0.1 -0.6,0.21667 -0.9,0.35c-0.16667,0.16667 -0.35,0.35 -0.55,0.55c-0.23333,0.16667 -0.46667,0.33333 -0.7,0.5c-0.16667,0.2 -0.35,0.38333 -0.55,0.55c-0.4,0.16667 -0.81667,0.35 -1.25,0.55c-0.1,0.1 -0.21667,0.21667 -0.35,0.35c-0.33333,0.13333 -0.68333,0.25 -1.05,0.35c-0.16667,0.16667 -0.35,0.35 -0.55,0.55c-0.1,0.1 -0.21667,0.21667 -0.35,0.35c-0.06667,0.06667 -0.13333,0.1 -0.2,0.1c-0.26667,0.1 -0.55,0.18333 -0.85,0.25c-0.83333,0.13333 -1.66667,0.25 -2.5,0.35c-0.36667,0.13333 -0.73333,0.25 -1.1,0.35c-0.6,0.13333 -1.18333,0.26667 -1.75,0.4c-0.36667,0.1 -0.73333,0.2 -1.1,0.3c-0.6,0.13333 -1.18333,0.28333 -1.75,0.45c-0.36667,0.06667 -0.73333,0.16667 -1.1,0.3c-0.83333,0.13333 -1.66667,0.25 -2.5,0.35c-0.36667,0.13333 -0.73333,0.25 -1.1,0.35c-1.3,0.13333 -2.6,0.25 -3.9,0.35c-0.36667,0.13333 -0.71667,0.26667 -1.05,0.4c-0.83333,0.1 -1.66667,0.21667 -2.5,0.35c-0.36667,0.1 -0.73333,0.21667 -1.1,0.35c-1,0.1 -2.01667,0.21667 -3.05,0.35c-0.4,0.13333 -0.81667,0.25 -1.25,0.35c-2.83333,0 -5.68333,0 -8.55,0c-0.43333,-0.1 -0.85,-0.21667 -1.25,-0.35c-2.93333,-0.13333 -5.85,-0.25 -8.75,-0.35c-0.43333,-0.13333 -0.85,-0.25 -1.25,-0.35c-1.96667,-0.13333 -3.93333,-0.25 -5.9,-0.35c-0.4,-0.13333 -0.81667,-0.26667 -1.25,-0.4c-0.76667,-0.1 -1.53333,-0.21667 -2.3,-0.35c-0.43333,-0.1 -0.85,-0.21667 -1.25,-0.35c-0.13333,-0.1 -0.25,-0.21667 -0.35,-0.35c-0.36667,-0.13333 -0.73333,-0.25 -1.1,-0.35c-0.1,-0.2 -0.21667,-0.38333 -0.35,-0.55c-0.23333,-0.16667 -0.46667,-0.35 -0.7,-0.55c-0.06667,-0.1 -0.13333,-0.21667 -0.2,-0.35c-0.23333,0 -0.46667,0 -0.7,0c-0.06667,0.06667 -0.13333,0.11667 -0.2,0.15c-0.3,0.1 -0.6,0.16667 -0.9,0.2c-0.56667,0.13333 -1.15,0.26667 -1.75,0.4c-0.36667,0.1 -0.73333,0.21667 -1.1,0.35c-1.76667,0.1 -3.55,0.21667 -5.35,0.35c-0.36667,0.1 -0.71667,0.21667 -1.05,0.35c-3.1,0 -6.2,0 -9.3,0c-0.4,-0.13333 -0.81667,-0.25 -1.25,-0.35c-1,-0.13333 -2.01667,-0.25 -3.05,-0.35c-0.4,-0.13333 -0.8,-0.26667 -1.2,-0.4c-0.33333,-0.1 -0.65,-0.2 -0.95,-0.3c-0.4,-0.13333 -0.8,-0.26667 -1.2,-0.4c-0.13333,-0.1 -0.26667,-0.21667 -0.4,-0.35c-0.33333,-0.1 -0.68333,-0.21667 -1.05,-0.35c-0.13333,-0.16667 -0.25,-0.35 -0.35,-0.55c-0.2,-0.1 -0.38333,-0.21667 -0.55,-0.35c-0.06667,-0.06667 -0.13333,-0.11667 -0.2,-0.15c-0.33333,-0.13333 -0.68333,-0.26667 -1.05,-0.4c-0.16667,-0.16667 -0.35,-0.33333 -0.55,-0.5c-0.16667,-0.2 -0.33333,-0.38333 -0.5,-0.55c-0.2,-0.16667 -0.38333,-0.35 -0.55,-0.55c-0.16667,-0.16667 -0.35,-0.33333 -0.55,-0.5c-0.1,-0.13333 -0.21667,-0.26667 -0.35,-0.4c-0.23333,0.06667 -0.46667,0.13333 -0.7,0.2c0,0.16667 0,0.35 0,0.55c0,0.16667 0,0.33333 0,0.5c0,0.2 0,0.38333 0,0.55c0,0.16667 0,0.35 0,0.55c-0.06667,0.16667 -0.13333,0.35 -0.2,0.55c-0.06667,0.16667 -0.11667,0.33333 -0.15,0.5c-0.2,0.2 -0.38333,0.38333 -0.55,0.55c-0.16667,0.16667 -0.35,0.35 -0.55,0.55c-0.1,0.1 -0.21667,0.21667 -0.35,0.35c-0.3,0.06667 -0.6,0.13333 -0.9,0.2c-0.33333,0.1 -0.68333,0.21667 -1.05,0.35c-0.36667,0.1 -0.73333,0.21667 -1.1,0.35c-2.43333,0.1 -4.86667,0.21667 -7.3,0.35c-0.43333,0.1 -0.85,0.21667 -1.25,0.35c-1,0.13333 -2.01667,0.25 -3.05,0.35c-0.4,0.13333 -0.81667,0.25 -1.25,0.35c-1.06667,0.13333 -2.13333,0.25 -3.2,0.35c-0.36667,0.13333 -0.71667,0.26667 -1.05,0.4c-5.83333,0.1 -11.66667,0.21667 -17.5,0.35c-0.36667,0.1 -0.73333,0.21667 -1.1,0.35c-0.7,0 -1.41667,0 -2.15,0c-0.4,-0.13333 -0.81667,-0.25 -1.25,-0.35c-0.1,-0.2 -0.21667,-0.38333 -0.35,-0.55c-0.23333,-0.16667 -0.46667,-0.35 -0.7,-0.55c-0.16667,-0.16667 -0.35,-0.33333 -0.55,-0.5c-0.1,-0.2 -0.21667,-0.38333 -0.35,-0.55c-0.06667,-0.2 -0.13333,-0.38333 -0.2,-0.55c-0.1,-0.16667 -0.21667,-0.35 -0.35,-0.55c-0.1,-0.16667 -0.21667,-0.33333 -0.35,-0.5c0,-0.2 0,-0.38333 0,-0.55c0,-0.16667 0,-0.35 0,-0.55c0,-0.16667 0,-0.33333 0,-0.5c-0.06667,-0.2 -0.11667,-0.38333 -0.15,-0.55c-0.13333,-0.2 -0.26667,-0.38333 -0.4,-0.55c-0.03333,-0.16667 -0.08333,-0.35 -0.15,-0.55c0,-0.16667 0,-0.33333 0,-0.5c0,-0.2 0,-0.38333 0,-0.55c0,-0.16667 0,-0.35 0,-0.55c0,-0.16667 0,-0.33333 0,-0.5c-0.13333,-0.2 -0.25,-0.38333 -0.35,-0.55c-0.13333,-0.16667 -0.25,-0.35 -0.35,-0.55c0,-0.16667 0,-0.35 0,-0.55c0,-0.16667 0,-0.33333 0,-0.5c0,-0.2 0,-0.38333 0,-0.55c0,-0.16667 0,-0.35 0,-0.55c0,-0.16667 0,-0.33333 0,-0.5c0,-0.2 0,-0.38333 0,-0.55c0,-0.16667 0,-0.35 0,-0.55c-0.06667,-0.16667 -0.13333,-0.35 -0.2,-0.55c-0.13333,0.06667 -0.25,0.13333 -0.35,0.2c-0.06667,0.06667 -0.13333,0.13333 -0.2,0.2c-0.3,0.1 -0.6,0.21667 -0.9,0.35c-0.16667,0.16667 -0.33333,0.33333 -0.5,0.5c-0.2,0.2 -0.38333,0.38333 -0.55,0.55c-0.23333,0.2 -0.46667,0.38333 -0.7,0.55c-0.36667,0.16667 -0.73333,0.35 -1.1,0.55c-0.16667,0.16667 -0.33333,0.33333 -0.5,0.5c-0.2,0.13333 -0.38333,0.25 -0.55,0.35c-0.06667,0.06667 -0.13333,0.11667 -0.2,0.15c-0.46667,0.16667 -0.93333,0.3 -1.4,0.4c-0.23333,0.2 -0.48333,0.38333 -0.75,0.55c-0.16667,0.1 -0.33333,0.21667 -0.5,0.35c-0.06667,0.06667 -0.13333,0.13333 -0.2,0.2c-0.3,0.1 -0.6,0.21667 -0.9,0.35c-0.16667,0.16667 -0.33333,0.33333 -0.5,0.5c-0.2,0.13333 -0.38333,0.26667 -0.55,0.4c-0.06667,0.03333 -0.13333,0.06667 -0.2,0.1c-0.3,0.1 -0.6,0.18333 -0.9,0.25c-0.26667,0.1 -0.55,0.21667 -0.85,0.35c-0.26667,0.16667 -0.51667,0.35 -0.75,0.55c-0.1,0.1 -0.21667,0.21667 -0.35,0.35c-0.3,0.03333 -0.58333,0.1 -0.85,0.2c-0.36667,0.1 -0.73333,0.2 -1.1,0.3c-0.53333,0.2 -1.06667,0.38333 -1.6,0.55c-0.23333,0.13333 -0.46667,0.25 -0.7,0.35c-0.3,0.06667 -0.6,0.13333 -0.9,0.2c-0.6,0.1 -1.2,0.23333 -1.8,0.4c-0.36667,0.1 -0.71667,0.2 -1.05,0.3c-1.73333,0.13333 -3.46667,0.25 -5.2,0.35c-0.43333,0.13333 -0.85,0.25 -1.25,0.35c-1.9,0 -3.8,0 -5.7,0c-0.43333,-0.1 -0.85,-0.21667 -1.25,-0.35c-1.26667,-0.1 -2.51667,-0.21667 -3.75,-0.35c-0.43333,-0.1 -0.85,-0.21667 -1.25,-0.35c-0.8,-0.13333 -1.58333,-0.26667 -2.35,-0.4c-0.4,-0.1 -0.81667,-0.18333 -1.25,-0.25c-0.76667,-0.16667 -1.53333,-0.33333 -2.3,-0.5c-0.96667,-0.2 -1.91667,-0.43333 -2.85,-0.7c-1.13333,-0.3 -2.26667,-0.63333 -3.4,-1c-0.13333,0 -0.25,0 -0.35,0c0,0.16667 0,0.35 0,0.55c0,0.16667 0,0.33333 0,0.5c0,0.2 0,0.38333 0,0.55c0,0.16667 0,0.35 0,0.55c-0.06667,0.16667 -0.13333,0.33333 -0.2,0.5c-0.1,0.2 -0.21667,0.38333 -0.35,0.55c-0.13333,0.13333 -0.25,0.25 -0.35,0.35c-0.06667,0.06667 -0.13333,0.11667 -0.2,0.15c-0.3,0.1 -0.6,0.16667 -0.9,0.2c-3.6,0.13333 -7.21667,0.26667 -10.85,0.4c-0.43333,0.1 -0.85,0.21667 -1.25,0.35c-2.2,0.1 -4.41667,0.21667 -6.65,0.35c-0.4,0.1 -0.81667,0.21667 -1.25,0.35c-5.7,0 -11.4,0 -17.1,0c-0.43333,-0.13333 -0.85,-0.25 -1.25,-0.35c-0.13333,-0.2 -0.25,-0.38333 -0.35,-0.55c-0.26667,-0.16667 -0.51667,-0.35 -0.75,-0.55c-0.1,-0.16667 -0.21667,-0.33333 -0.35,-0.5c-0.06667,-0.2 -0.11667,-0.38333 -0.15,-0.55c-0.13333,-0.16667 -0.26667,-0.35 -0.4,-0.55c-0.16667,-0.16667 -0.33333,-0.33333 -0.5,-0.5c-0.13333,-0.2 -0.25,-0.38333 -0.35,-0.55c-0.06667,-0.2 -0.13333,-0.38333 -0.2,-0.55c-0.06667,-0.16667 -0.13333,-0.35 -0.2,-0.55c-0.1,-0.16667 -0.21667,-0.33333 -0.35,-0.5c-0.06667,-0.2 -0.11667,-0.38333 -0.15,-0.55c-0.13333,-0.16667 -0.25,-0.35 -0.35,-0.55c-0.06667,-0.16667 -0.13333,-0.33333 -0.2,-0.5c0,-0.2 0,-0.38333 0,-0.55c-0.06667,-0.16667 -0.13333,-0.35 -0.2,-0.55c-0.03333,0 -0.06667,0.01667 -0.1,0.05c-0.03333,0.16667 -0.05,0.33333 -0.05,0.5c0,0.16667 0,0.35 0,0.55c0,0.16667 0,0.33333 0,0.5c0,0.2 0,0.38333 0,0.55c0,0.16667 0,0.35 0,0.55c0,0.16667 0,0.33333 0,0.5c-0.13333,0.2 -0.25,0.38333 -0.35,0.55c-0.13333,0.16667 -0.25,0.35 -0.35,0.55c-0.13333,0.1 -0.26667,0.21667 -0.4,0.35c-0.3,0.06667 -0.58333,0.13333 -0.85,0.2c-7.76667,0.1 -15.51667,0.21667 -23.25,0.35c-0.33333,0.1 -0.68333,0.21667 -1.05,0.35c-2.2,0.1 -4.4,0.21667 -6.6,0.35c-0.43333,0.13333 -0.85,0.25 -1.25,0.35c-1.8,0.13333 -3.58333,0.25 -5.35,0.35c-0.36667,0.13333 -0.73333,0.25 -1.1,0.35c-2.26667,0.13333 -4.53333,0.26667 -6.8,0.4c-0.33333,0.1 -0.68333,0.21667 -1.05,0.35c-0.83333,0.1 -1.66667,0.21667 -2.5,0.35c-0.36667,0.1 -0.71667,0.21667 -1.05,0.35c-0.96667,0 -1.93333,0 -2.9,0c-0.4,-0.13333 -0.8,-0.25 -1.2,-0.35c-0.13333,-0.2 -0.26667,-0.38333 -0.4,-0.55c-0.23333,-0.16667 -0.46667,-0.35 -0.7,-0.55c-0.16667,-0.16667 -0.35,-0.33333 -0.55,-0.5c-0.1,-0.2 -0.21667,-0.38333 -0.35,-0.55c-0.06667,-0.16667 -0.11667,-0.35 -0.15,-0.55c0,-0.16667 0,-0.33333 0,-0.5c-0.06667,-0.2 -0.13333,-0.38333 -0.2,-0.55c-0.1,-0.2 -0.21667,-0.38333 -0.35,-0.55c-0.06667,-0.16667 -0.13333,-0.35 -0.2,-0.55c0,-0.16667 0,-0.33333 0,-0.5c0,-0.2 0,-0.38333 0,-0.55c0,-0.16667 0,-0.35 0,-0.55c0,-0.16667 0,-0.33333 0,-0.5c0,-0.2 0,-0.38333 0,-0.55c0,-0.16667 0,-0.35 0,-0.55c0,-0.16667 0,-0.35 0,-0.55c0,-0.16667 0,-0.33333 0,-0.5c0,-0.36667 0,-0.73333 0,-1.1c0,-0.16667 0,-0.33333 0,-0.5c-0.03333,-0.2 -0.08333,-0.38333 -0.15,-0.55c-0.06667,-0.16667 -0.13333,-0.35 -0.2,-0.55c-0.1,-0.16667 -0.21667,-0.35 -0.35,-0.55c0,-0.16667 0,-0.33333 0,-0.5c0,-0.2 0,-0.38333 0,-0.55c0,-0.16667 0,-0.35 0,-0.55c0,-0.33333 0,-0.68333 0,-1.05c0,-0.73333 0,-1.45 0,-2.15c0,-0.53333 0,-1.06667 0,-1.6c0,-0.53333 0,-1.06667 0,-1.6c0,-0.53333 0,-1.06667 0,-1.6c0,-0.53333 0,-1.08333 0,-1.65c0,-0.7 0,-1.4 0,-2.1c0,-0.2 0,-0.38333 0,-0.55c-0.06667,-0.16667 -0.11667,-0.35 -0.15,-0.55c-0.13333,0.13333 -0.26667,0.25 -0.4,0.35c-0.53333,0.2 -1.06667,0.38333 -1.6,0.55c-0.23333,0.13333 -0.46667,0.25 -0.7,0.35c-0.36667,0.13333 -0.71667,0.25 -1.05,0.35c-0.13333,0.13333 -0.26667,0.25 -0.4,0.35c-0.33333,0.13333 -0.68333,0.26667 -1.05,0.4c-0.23333,0.16667 -0.46667,0.33333 -0.7,0.5c-0.23333,0.13333 -0.48333,0.25 -0.75,0.35c-0.1,0.06667 -0.21667,0.13333 -0.35,0.2c-0.33333,0.13333 -0.68333,0.25 -1.05,0.35c-0.13333,0.13333 -0.25,0.25 -0.35,0.35c-0.5,0.13333 -0.98333,0.25 -1.45,0.35c-0.23333,0.13333 -0.46667,0.26667 -0.7,0.4c-0.46667,0.1 -0.95,0.21667 -1.45,0.35c-0.23333,0.1 -0.46667,0.21667 -0.7,0.35c-0.3,0.06667 -0.6,0.11667 -0.9,0.15c-0.6,0.13333 -1.18333,0.26667 -1.75,0.4c-0.36667,0.1 -0.73333,0.21667 -1.1,0.35c-1.73333,0 -3.46667,0 -5.2,0c0,0.16667 0,0.33333 0,0.5c0,0.2 0,0.38333 0,0.55c0,0.2 0,0.38333 0,0.55c0.06667,0.16667 0.13333,0.35 0.2,0.55c0.06667,0.16667 0.13333,0.33333 0.2,0.5c0.03333,0.2 0.08333,0.38333 0.15,0.55c0.06667,0.16667 0.13333,0.35 0.2,0.55c0,0.16667 0,0.33333 0,0.5c0,0.2 0,0.38333 0,0.55c0.1,0.2 0.21667,0.38333 0.35,0.55c0.06667,0.16667 0.11667,0.35 0.15,0.55c0.06667,0.16667 0.13333,0.33333 0.2,0.5c0,0.2 0,0.38333 0,0.55c0.06667,0.16667 0.13333,0.35 0.2,0.55c0.1,0.16667 0.21667,0.33333 0.35,0.5c0.03333,0.2 0.08333,0.38333 0.15,0.55c0,0.2 0,0.38333 0,0.55c0,0.16667 0,0.35 0,0.55c0,0.16667 0,0.33333 0,0.5c0,0.2 0,0.38333 0,0.55c0,0.16667 0,0.35 0,0.55c0.06667,0.16667 0.13333,0.33333 0.2,0.5c0.1,0.2 0.21667,0.38333 0.35,0.55c0.06667,0.2 0.13333,0.38333 0.2,0.55c0,0.16667 0,0.35 0,0.55c0.03333,0.16667 0.08333,0.33333 0.15,0.5c0.13333,0.2 0.25,0.38333 0.35,0.55c0.06667,0.16667 0.13333,0.35 0.2,0.55c0,0.16667 0,0.33333 0,0.5c0.06667,0.2 0.11667,0.38333 0.15,0.55c0.13333,0.16667 0.26667,0.35 0.4,0.55c0.03333,0.16667 0.08333,0.35 0.15,0.55c0,0.16667 0,0.33333 0,0.5c0,0.2 0,0.38333 0,0.55c-0.06667,0.16667 -0.11667,0.35 -0.15,0.55c-0.13333,0.16667 -0.26667,0.33333 -0.4,0.5c-0.1,0.13333 -0.21667,0.26667 -0.35,0.4c-0.06667,0.03333 -0.13333,0.06667 -0.2,0.1c-0.26667,0.1 -0.55,0.16667 -0.85,0.2c-1.3,0.13333 -2.61667,0.26667 -3.95,0.4c-0.33333,0.1 -0.68333,0.21667 -1.05,0.35c-1.06667,0.13333 -2.13333,0.25 -3.2,0.35c-0.36667,0.13333 -0.73333,0.25 -1.1,0.35c-1.06667,0.13333 -2.13333,0.25 -3.2,0.35c-0.36667,0.13333 -0.73333,0.26667 -1.1,0.4c-1.06667,0.1 -2.13333,0.21667 -3.2,0.35c-0.36667,0.1 -0.71667,0.21667 -1.05,0.35c-1.06667,0.1 -2.15,0.21667 -3.25,0.35c-0.33333,0.13333 -0.68333,0.25 -1.05,0.35c-1.06667,0.13333 -2.13333,0.25 -3.2,0.35c-0.36667,0.13333 -0.73333,0.25 -1.1,0.35c-2.26667,0.13333 -4.51667,0.26667 -6.75,0.4c-0.36667,0.1 -0.73333,0.21667 -1.1,0.35c-1.06667,0.1 -2.13333,0.21667 -3.2,0.35c-0.36667,0.1 -0.73333,0.21667 -1.1,0.35c-2.13333,0 -4.26667,0 -6.4,0c-0.43333,-0.13333 -0.85,-0.25 -1.25,-0.35c-0.13333,-0.13333 -0.25,-0.25 -0.35,-0.35c-0.36667,-0.13333 -0.73333,-0.25 -1.1,-0.35c-0.1,-0.2 -0.21667,-0.38333 -0.35,-0.55c-0.23333,-0.2 -0.46667,-0.38333 -0.7,-0.55c-0.13333,-0.16667 -0.25,-0.35 -0.35,-0.55c-0.06667,-0.16667 -0.13333,-0.33333 -0.2,-0.5c-0.06667,-0.2 -0.11667,-0.38333 -0.15,-0.55c-0.13333,-0.16667 -0.25,-0.35 -0.35,-0.55c-0.06667,-0.16667 -0.13333,-0.33333 -0.2,-0.5c-0.13333,-0.2 -0.25,-0.38333 -0.35,-0.55c-0.06667,-0.2 -0.13333,-0.38333 -0.2,-0.55c0,-0.16667 0,-0.35 0,-0.55c-0.06667,-0.16667 -0.11667,-0.33333 -0.15,-0.5c-0.2,-0.2 -0.38333,-0.38333 -0.55,-0.55c-0.13333,-0.16667 -0.25,-0.35 -0.35,-0.55c-0.13333,-0.16667 -0.25,-0.33333 -0.35,-0.5c0,-0.2 0,-0.38333 0,-0.55c-0.06667,-0.2 -0.13333,-0.38333 -0.2,-0.55c-0.06667,-0.16667 -0.11667,-0.35 -0.15,-0.55c-0.13333,-0.16667 -0.26667,-0.33333 -0.4,-0.5c0,-0.2 0,-0.38333 0,-0.55c0,-0.16667 0,-0.35 0,-0.55c0,-0.16667 0,-0.33333 0,-0.5c0,-0.2 0,-0.38333 0,-0.55c-0.1,-0.16667 -0.21667,-0.35 -0.35,-0.55c-0.06667,-0.16667 -0.11667,-0.35 -0.15,-0.55c-0.06667,-0.16667 -0.13333,-0.33333 -0.2,-0.5c0,-0.2 0,-0.38333 0,-0.55c-0.06667,-0.16667 -0.11667,-0.35 -0.15,-0.55c-0.13333,0.06667 -0.25,0.13333 -0.35,0.2c-0.06667,0.06667 -0.13333,0.11667 -0.2,0.15c-0.3,0.13333 -0.6,0.26667 -0.9,0.4c-0.13333,0.16667 -0.25,0.33333 -0.35,0.5c-0.06667,0.2 -0.13333,0.38333 -0.2,0.55c-0.1,0.16667 -0.21667,0.35 -0.35,0.55c-0.16667,0.16667 -0.35,0.33333 -0.55,0.5c-0.16667,0.2 -0.33333,0.38333 -0.5,0.55c-0.2,0.2 -0.38333,0.38333 -0.55,0.55c-0.16667,0.16667 -0.35,0.35 -0.55,0.55c-0.16667,0.16667 -0.33333,0.33333 -0.5,0.5c-0.36667,0.36667 -0.73333,0.73333 -1.1,1.1c-0.36667,0.33333 -0.71667,0.68333 -1.05,1.05c-0.36667,0.36667 -0.73333,0.73333 -1.1,1.1c-0.16667,0.16667 -0.33333,0.33333 -0.5,0.5c-0.26667,0.2 -0.51667,0.38333 -0.75,0.55c-0.1,0.13333 -0.21667,0.25 -0.35,0.35c-0.3,0.13333 -0.6,0.25 -0.9,0.35c-0.16667,0.2 -0.33333,0.38333 -0.5,0.55c-0.2,0.13333 -0.38333,0.25 -0.55,0.35c-0.06667,0.06667 -0.13333,0.11667 -0.2,0.15c-0.3,0.06667 -0.6,0.13333 -0.9,0.2c-0.3,0.13333 -0.58333,0.25 -0.85,0.35c-0.26667,0.2 -0.51667,0.38333 -0.75,0.55c-0.1,0.13333 -0.21667,0.25 -0.35,0.35c-0.36667,0.13333 -0.71667,0.25 -1.05,0.35c-0.13333,0.13333 -0.25,0.26667 -0.35,0.4c-0.5,0.1 -0.98333,0.21667 -1.45,0.35c-0.23333,0.1 -0.46667,0.21667 -0.7,0.35c-0.36667,0.1 -0.73333,0.21667 -1.1,0.35c-0.1,0.13333 -0.21667,0.25 -0.35,0.35c-0.3,0.06667 -0.6,0.13333 -0.9,0.2c-0.53333,0.1 -1.06667,0.21667 -1.6,0.35c-0.4,0.1 -0.81667,0.21667 -1.25,0.35c-0.36667,0.13333 -0.71667,0.25 -1.05,0.35c-0.36667,0.13333 -0.73333,0.25 -1.1,0.35c-0.76667,0.13333 -1.53333,0.26667 -2.3,0.4c-0.43333,0.1 -0.85,0.21667 -1.25,0.35c-3.56667,0 -7.13333,0 -10.7,0c-0.43333,-0.13333 -0.85,-0.26667 -1.25,-0.4c-1.73333,-0.1 -3.46667,-0.21667 -5.2,-0.35c-0.4,-0.1 -0.81667,-0.2 -1.25,-0.3c-0.76667,-0.13333 -1.53333,-0.28333 -2.3,-0.45c-0.43333,-0.1 -0.85,-0.2 -1.25,-0.3c-0.53333,-0.13333 -1.06667,-0.26667 -1.6,-0.4c-0.43333,-0.1 -0.85,-0.21667 -1.25,-0.35c-0.73333,-0.23333 -1.45,-0.46667 -2.15,-0.7c-0.13333,-0.1 -0.26667,-0.21667 -0.4,-0.35c-0.33333,-0.1 -0.68333,-0.21667 -1.05,-0.35c-0.13333,-0.13333 -0.25,-0.25 -0.35,-0.35c-0.36667,-0.13333 -0.73333,-0.25 -1.1,-0.35c-0.1,-0.13333 -0.21667,-0.25 -0.35,-0.35c-0.33333,-0.13333 -0.68333,-0.26667 -1.05,-0.4c-0.13333,-0.1 -0.25,-0.21667 -0.35,-0.35c-0.36667,-0.1 -0.73333,-0.21667 -1.1,-0.35c-0.1,-0.1 -0.21667,-0.21667 -0.35,-0.35c-0.33333,-0.13333 -0.68333,-0.25 -1.05,-0.35c-0.13333,-0.13333 -0.25,-0.25 -0.35,-0.35c-0.36667,-0.13333 -0.73333,-0.25 -1.1,-0.35c-0.1,-0.13333 -0.21667,-0.26667 -0.35,-0.4c-0.36667,-0.1 -0.71667,-0.21667 -1.05,-0.35c-0.13333,-0.1 -0.25,-0.21667 -0.35,-0.35c-0.36667,-0.1 -0.73333,-0.21667 -1.1,-0.35c-0.1,-0.16667 -0.21667,-0.35 -0.35,-0.55c-0.16667,-0.16667 -0.35,-0.33333 -0.55,-0.5c-0.23333,-0.2 -0.46667,-0.38333 -0.7,-0.55c-0.16667,-0.2 -0.35,-0.38333 -0.55,-0.55c-0.16667,-0.16667 -0.33333,-0.35 -0.5,-0.55c-0.2,-0.16667 -0.38333,-0.33333 -0.55,-0.5c-0.2,-0.2 -0.38333,-0.38333 -0.55,-0.55c-0.16667,-0.16667 -0.35,-0.35 -0.55,-0.55c-0.1,-0.1 -0.21667,-0.21667 -0.35,-0.35c-0.33333,-0.1 -0.68333,-0.21667 -1.05,-0.35c-0.13333,-0.16667 -0.25,-0.35 -0.35,-0.55c-0.13333,-0.16667 -0.25,-0.33333 -0.35,-0.5c-0.06667,-0.2 -0.13333,-0.38333 -0.2,-0.55c-0.43333,-0.16667 -0.85,-0.35 -1.25,-0.55c-0.13333,-0.16667 -0.25,-0.35 -0.35,-0.55c-0.2,-0.16667 -0.38333,-0.33333 -0.55,-0.5c-0.23333,-0.2 -0.46667,-0.38333 -0.7,-0.55c-0.2,-0.16667 -0.38333,-0.35 -0.55,-0.55c-0.1,-0.16667 -0.21667,-0.33333 -0.35,-0.5c-0.23333,-0.2 -0.46667,-0.38333 -0.7,-0.55c-0.13333,-0.16667 -0.25,-0.35 -0.35,-0.55c-0.26667,-0.16667 -0.51667,-0.35 -0.75,-0.55c-0.1,-0.16667 -0.21667,-0.33333 -0.35,-0.5c-0.1,-0.2 -0.21667,-0.38333 -0.35,-0.55c-0.06667,-0.16667 -0.13333,-0.35 -0.2,-0.55c-0.1,-0.16667 -0.21667,-0.33333 -0.35,-0.5c-0.06667,-0.2 -0.11667,-0.38333 -0.15,-0.55c-0.13333,-0.16667 -0.25,-0.35 -0.35,-0.55c-0.2,-0.16667 -0.38333,-0.35 -0.55,-0.55c-0.13333,-0.16667 -0.25,-0.33333 -0.35,-0.5c-0.06667,-0.2 -0.13333,-0.38333 -0.2,-0.55c-0.1,-0.16667 -0.21667,-0.35 -0.35,-0.55c-0.13333,-0.16667 -0.25,-0.33333 -0.35,-0.5c-0.06667,-0.2 -0.13333,-0.38333 -0.2,-0.55c-0.1,-0.16667 -0.21667,-0.35 -0.35,-0.55c-0.16667,-0.16667 -0.35,-0.35 -0.55,-0.55c-0.1,-0.16667 -0.21667,-0.33333 -0.35,-0.5c-0.06667,-0.2 -0.11667,-0.38333 -0.15,-0.55c-0.06667,-0.16667 -0.13333,-0.35 -0.2,-0.55c-0.1,-0.16667 -0.21667,-0.33333 -0.35,-0.5c-0.06667,-0.2 -0.13333,-0.38333 -0.2,-0.55c-0.1,-0.16667 -0.21667,-0.35 -0.35,-0.55c-0.06667,-0.16667 -0.11667,-0.35 -0.15,-0.55c-0.13333,-0.16667 -0.25,-0.33333 -0.35,-0.5c-0.13333,-0.2 -0.26667,-0.38333 -0.4,-0.55c0,-0.16667 0,-0.35 0,-0.55c-0.03333,-0.16667 -0.08333,-0.33333 -0.15,-0.5c-0.06667,-0.2 -0.13333,-0.38333 -0.2,-0.55c-0.1,-0.16667 -0.21667,-0.35 -0.35,-0.55c0,-0.16667 0,-0.35 0,-0.55c0,-0.16667 0,-0.33333 0,-0.5c0,-0.2 0,-0.38333 0,-0.55c-0.1,-0.16667 -0.21667,-0.35 -0.35,-0.55c-0.06667,-0.16667 -0.13333,-0.33333 -0.2,-0.5c-0.03333,-0.2 -0.08333,-0.38333 -0.15,-0.55c0,-0.16667 0,-0.35 0,-0.55c0,-0.16667 0,-0.35 0,-0.55c-0.06667,-0.16667 -0.13333,-0.33333 -0.2,-0.5c-0.1,-0.2 -0.21667,-0.38333 -0.35,-0.55c-0.06667,-0.16667 -0.11667,-0.35 -0.15,-0.55c0,-0.16667 0,-0.33333 0,-0.5c0,-0.2 0,-0.38333 0,-0.55c0,-0.16667 0,-0.35 0,-0.55c0,-0.16667 0,-0.35 0,-0.55c-0.06667,-0.16667 -0.13333,-0.33333 -0.2,-0.5c-0.13333,-0.2 -0.25,-0.38333 -0.35,-0.55c-0.06667,-0.16667 -0.13333,-0.35 -0.2,-0.55c0,-0.16667 0,-0.33333 0,-0.5c0,-0.2 0,-0.38333 0,-0.55c-0.06667,-0.16667 -0.11667,-0.35 -0.15,-0.55c-0.06667,-0.16667 -0.13333,-0.33333 -0.2,-0.5c-0.1,-0.2 -0.21667,-0.38333 -0.35,-0.55c0,-0.2 0,-0.38333 0,-0.55c0,-0.16667 0,-0.35 0,-0.55c0,-0.16667 0,-0.33333 0,-0.5c0,-0.2 0,-0.38333 0,-0.55c0,-0.16667 0,-0.35 0,-0.55c-0.06667,-0.16667 -0.13333,-0.33333 -0.2,-0.5c-0.03333,-0.2 -0.08333,-0.38333 -0.15,-0.55c-0.13333,-0.2 -0.25,-0.38333 -0.35,-0.55c0,-0.16667 0,-0.35 0,-0.55c0,-0.16667 0,-0.33333 0,-0.5c0,-0.2 0,-0.38333 0,-0.55c0,-0.16667 0,-0.35 0,-0.55c0,-0.16667 0,-0.33333 0,-0.5c0,-0.2 0,-0.38333 0,-0.55c0,-0.2 0,-0.38333 0,-0.55c0,-0.16667 0,-0.35 0,-0.55c-0.06667,-0.16667 -0.13333,-0.33333 -0.2,-0.5c-0.1,-0.2 -0.21667,-0.38333 -0.35,-0.55c-0.06667,-0.16667 -0.13333,-0.35 -0.2,-0.55c0,-0.16667 0,-0.33333 0,-0.5c0,-0.2 0,-0.38333 0,-0.55c0,-0.2 0,-0.38333 0,-0.55c0,-0.16667 0,-0.35 0,-0.55c0,-0.16667 0,-0.33333 0,-0.5c0,-0.2 0,-0.38333 0,-0.55c0,-0.16667 0,-0.35 0,-0.55c0,-0.16667 0,-0.33333 0,-0.5c0,-0.36667 0,-0.73333 0,-1.1c0,-0.16667 0,-0.35 0,-0.55c0.13333,-0.16667 0.26667,-0.33333 0.4,-0.5c0.03333,-0.2 0.08333,-0.38333 0.15,-0.55c0.06667,-0.16667 0.13333,-0.35 0.2,-0.55c0,-0.16667 0,-0.33333 0,-0.5c0,-0.2 0,-0.38333 0,-0.55c0,-0.2 0,-0.38333 0,-0.55c0,-0.16667 0,-0.35 0,-0.55c0,-0.16667 0,-0.33333 0,-0.5c0,-0.36667 0,-0.73333 0,-1.1c0,-0.33333 0,-0.68333 0,-1.05c0,-0.36667 0,-0.73333 0,-1.1c0,-0.16667 0,-0.33333 0,-0.5c0,-0.36667 0,-0.73333 0,-1.1c0,-0.16667 0,-0.33333 0,-0.5c0,-0.2 0,-0.38333 0,-0.55c0.1,-0.2 0.21667,-0.38333 0.35,-0.55c0.06667,-0.16667 0.11667,-0.35 0.15,-0.55c0.06667,-0.16667 0.13333,-0.33333 0.2,-0.5c0,-0.2 0,-0.38333 0,-0.55c0,-0.16667 0,-0.35 0,-0.55c0,-0.16667 0,-0.33333 0,-0.5c0.06667,-0.2 0.13333,-0.38333 0.2,-0.55c0.1,-0.2 0.21667,-0.38333 0.35,-0.55c0.03333,-0.16667 0.08333,-0.35 0.15,-0.55c0,-0.16667 0,-0.33333 0,-0.5c0,-0.2 0,-0.38333 0,-0.55c0,-0.16667 0,-0.35 0,-0.55c0.13333,-0.16667 0.25,-0.33333 0.35,-0.5c0.13333,-0.2 0.26667,-0.38333 0.4,-0.55c0.03333,-0.16667 0.08333,-0.35 0.15,-0.55c0.13333,-0.16667 0.25,-0.35 0.35,-0.55c0.06667,-0.16667 0.13333,-0.33333 0.2,-0.5c0,-0.2 0,-0.38333 0,-0.55c0.06667,-0.16667 0.11667,-0.35 0.15,-0.55c0.13333,-0.16667 0.26667,-0.33333 0.4,-0.5c0.16667,-0.2 0.33333,-0.38333 0.5,-0.55c0.13333,-0.16667 0.25,-0.35 0.35,-0.55c0.06667,-0.16667 0.13333,-0.35 0.2,-0.55c0.06667,-0.16667 0.13333,-0.33333 0.2,-0.5c0.1,-0.2 0.21667,-0.38333 0.35,-0.55c0.1,-0.16667 0.21667,-0.35 0.35,-0.55c0.1,-0.16667 0.21667,-0.33333 0.35,-0.5c0.16667,-0.2 0.35,-0.38333 0.55,-0.55c0.16667,-0.16667 0.33333,-0.35 0.5,-0.55c0.2,-0.16667 0.38333,-0.35 0.55,-0.55c0.13333,-0.16667 0.25,-0.33333 0.35,-0.5c0.06667,-0.2 0.13333,-0.38333 0.2,-0.55c0.1,-0.16667 0.21667,-0.35 0.35,-0.55c0.16667,-0.16667 0.35,-0.33333 0.55,-0.5c0.16667,-0.2 0.33333,-0.38333 0.5,-0.55c0.2,-0.16667 0.38333,-0.35 0.55,-0.55c0.16667,-0.16667 0.35,-0.35 0.55,-0.55c0.16667,-0.16667 0.35,-0.33333 0.55,-0.5c0.33333,-0.36667 0.68333,-0.73333 1.05,-1.1c0.36667,-0.33333 0.71667,-0.68333 1.05,-1.05c0.2,-0.16667 0.38333,-0.35 0.55,-0.55c0.36667,-0.16667 0.73333,-0.35 1.1,-0.55c0.23333,-0.16667 0.46667,-0.33333 0.7,-0.5c0.06667,-0.2 0.11667,-0.38333 0.15,-0.55c0.13333,-0.16667 0.26667,-0.35 0.4,-0.55c0.1,-0.16667 0.21667,-0.33333 0.35,-0.5c0.16667,-0.2 0.33333,-0.38333 0.5,-0.55c0.26667,-0.16667 0.51667,-0.35 0.75,-0.55c0.33333,-0.16667 0.68333,-0.33333 1.05,-0.5c0.43333,-0.2 0.85,-0.38333 1.25,-0.55z" fill="#ffffff"/><path d="M482.70541,341.21832c3.63333,8.16667 4.93333,16.71667 3.9,25.65c-1.1,9.36667 -4.25,17.85 -9.45,25.45c-2.03333,2.96667 -4.61667,5.21667 -7.75,6.75c-2.16667,1.06667 -4.4,2.05 -6.7,2.95c-8.56667,3.6 -17.36667,4.43333 -26.4,2.5c-4.96667,-1.06667 -9.5,-3.13333 -13.6,-6.2c-7.16667,-5.33333 -12.16667,-12.23333 -15,-20.7c-2.7,-8.03333 -3.15,-16.18333 -1.35,-24.45c1.9,-8.56667 5.81667,-16.08333 11.75,-22.55c5.53333,-5.76667 12.21667,-9.53333 20.05,-11.3c9.3,-1.96667 18.15,-0.9 26.55,3.2c8.26667,4.1 14.26667,10.33333 18,18.7M451.25541,353.81832c-3.23333,-3.66667 -7.25,-5.56667 -12.05,-5.7c-2.1,0.33333 -3.7,1.43333 -4.8,3.3c-3.96667,6.8 -4.63333,13.96667 -2,21.5c1.4,4.03333 4.11667,6.25 8.15,6.65c5.6,0.33333 10.16667,-1.56667 13.7,-5.7c0.9,-1.03333 1.56667,-2.2 2,-3.5c1.73333,-5.1 0.76667,-9.81667 -2.9,-14.15c-0.7,-0.8 -1.4,-1.6 -2.1,-2.4M543.75541,367.06832c-7.13333,5 -15.16667,6.98333 -24.1,5.95c0.23333,0.7 0.46667,1.4 0.7,2.1c1.76667,5.56667 3.55,11.11667 5.35,16.65c0.96667,3 1.4,6.05 1.3,9.15c-1.33333,0.93333 -2.83333,1.4 -4.5,1.4c-9,0.93333 -17.83333,1.26667 -26.5,1c-0.76667,-1.1 -1.31667,-2.26667 -1.65,-3.5c-1.86667,-6.96667 -3.15,-14.05 -3.85,-21.25c-1.6,-16.56667 -2.21667,-33.16667 -1.85,-49.8l1.6,-2.85l0.5,1.15c1.03333,-0.23333 2.06667,-0.45 3.1,-0.65c6.76667,-1 13.55,-1.05 20.35,-0.15c7.93333,0.8 15.41667,2.95 22.45,6.45c6.8,3.5 11.18333,8.86667 13.15,16.1c1.73333,6.33333 0.4,11.86667 -4,16.6c-0.63333,0.6 -1.31667,1.15 -2.05,1.65M520.55541,355.41832l2.7,-0.85c0.2,-1.56667 -0.33333,-2.86667 -1.6,-3.9c-3.46667,-2.8 -7.45,-4.06667 -11.95,-3.8c-0.4,2.53333 -0.1,4.95 0.9,7.25c0.3,0.73333 0.81667,1.25 1.55,1.55l8.4,-0.25M647.80541,390.46832l-2,5.45c-3.2,-0.03333 -6.31667,0.28333 -9.35,0.95c-3,0.73333 -6.03333,1.26667 -9.1,1.6c-1.46667,0 -2.36667,-0.71667 -2.7,-2.15c-0.7,-3.23333 -0.96667,-6.56667 -0.8,-10c0.13333,-3.2 0.1,-6.38333 -0.1,-9.55c-0.23333,-4.1 0.81667,-7.53333 3.15,-10.3l2.65,2.25c3.5,-2.23333 7.11667,-2.8 10.85,-1.7c1.03333,0.33333 1.81667,0.91667 2.35,1.75c4.2,6.53333 5.88333,13.76667 5.05,21.7M627.20541,339.06832c5.76667,-2.43333 10.6,-1.16667 14.5,3.8c2.33333,3.16667 3.11667,6.71667 2.35,10.65c-0.26667,1.4 -0.86667,2.6 -1.8,3.6c-3.96667,4.23333 -8.73333,5.08333 -14.3,2.55c-1.16667,-0.46667 -2.05,-1.1 -2.65,-1.9c-3.5,-4.63333 -4.05,-9.71667 -1.65,-15.25c0.7,-1.6 1.88333,-2.75 3.55,-3.45M614.90541,336.46832l3.4,26.15c-0.16667,0.23333 -0.35,0.41667 -0.55,0.55c-4.73333,1.66667 -9.8,2.51667 -15.2,2.55c-1.06667,0.26667 -2.11667,0.53333 -3.15,0.8c0.96667,3.43333 2.05,6.83333 3.25,10.2c2.23333,6.13333 3.51667,12.41667 3.85,18.85l-1.8,1.55l-33.45,1.2c-1.26667,-0.86667 -2,-2.15 -2.2,-3.85c-1.23333,-10.03333 -0.76667,-20.03333 1.4,-30c-1.73333,-0.03333 -3.45,0.1 -5.15,0.4c-1.63333,0.03333 -3.18333,0.38333 -4.65,1.05c-2.36667,1.16667 -4.68333,1.58333 -6.95,1.25c-0.26667,-0.4 -0.46667,-0.81667 -0.6,-1.25c-0.83333,-2.56667 -1.16667,-5.21667 -1,-7.95c0.26667,-5.03333 0,-10.1 -0.8,-15.2c-0.06667,-0.5 -0.23333,-0.95 -0.5,-1.35c-0.93333,-1.5 -1.68333,-2.91667 -2.25,-4.25c0.43333,-0.6 0.95,-0.98333 1.55,-1.15c7.16667,-2.1 14.5,-3.21667 22,-3.35c3.96667,-0.26667 7.88333,-0.55 11.75,-0.85c8.66667,-1.06667 17.35,-1.2 26.05,-0.4c3.23333,0.16667 4.9,1.85 5,5.05M720.45541,366.01832c-0.03333,4.63333 -1.18333,8.93333 -3.45,12.9c-4.53333,7.76667 -11.13333,12.98333 -19.8,15.65c-8.9,2.66667 -17.93333,3.15 -27.1,1.45c-3.73333,-0.8 -6.78333,-2.66667 -9.15,-5.6c-5.7,-7.1 -8.23333,-15.3 -7.6,-24.6c0.63333,-9.03333 3.38333,-17.28333 8.25,-24.75c2.16667,-3.36667 5.05,-5.86667 8.65,-7.5c5.2,-2.4 10.71667,-3.28333 16.55,-2.65c9.4,0.26667 17.3,3.8 23.7,10.6c6.46667,6.83333 9.78333,15 9.95,24.5M693.05541,360.91832l-4.1,-3.9l-7.55,2.1l-1.5,-2.4c-0.7,1.13333 -1.36667,2.23333 -2,3.3c-1.46667,2.56667 -1.83333,5.21667 -1.1,7.95c1.26667,4.7 4.25,7.23333 8.95,7.6c0.7,-0.1 1.36667,-0.3 2,-0.6c4.43333,-2.26667 6.9,-5.96667 7.4,-11.1l-2.1,-2.95M798.60541,332.41832v63.75l-23.35,2.4l-25.95,-24.45c0.1,2.36667 0.5,4.61667 1.2,6.75c1.23333,3.7 1.83333,7.55 1.8,11.55c0,0.56667 -0.28333,0.98333 -0.85,1.25c-7.56667,3.2 -15.4,3.65 -23.5,1.35c-0.53333,-1.86667 -0.95,-3.88333 -1.25,-6.05c-0.76667,-6.06667 -1.31667,-12.15 -1.65,-18.25c-0.6,-10.3 -0.16667,-20.5 1.3,-30.6c-0.9,-0.2 -1.16667,-0.63333 -0.8,-1.3l1.8,-1.5l0.6,-1.3l1.2,0.5l17.25,-3.4l0.6,-0.5l4.25,0.4l1.65,1.45c0.03333,0.03333 0.08333,0.08333 0.15,0.15c0.03333,0.06667 0.05,0.13333 0.05,0.2c0,0.03333 -0.01667,0.06667 -0.05,0.1c-0.03333,0.06667 -0.06667,0.13333 -0.1,0.2l19.95,25l-6.55,-25.35c3,-1.3 6.25,-1.81667 9.75,-1.55c6.3,0.46667 12.51667,-0.06667 18.65,-1.6l2.25,-2.15l1.6,2.95M832.70541,350.76832c-2.13333,0.1 -4.1,0.76667 -5.9,2c4.43333,3.26667 9.15,4.06667 14.15,2.4c0.93333,-0.3 1.9,-0.4 2.9,-0.3c5.6,-0.63333 10.88333,0.61667 15.85,3.75c4.1,1.96667 6.86667,5.13333 8.3,9.5c2.13333,6.43333 1.2,12.48333 -2.8,18.15c-6.23333,8.76667 -14.75,13.66667 -25.55,14.7c-4.5,0.36667 -9,0.53333 -13.5,0.5c-5.2,-0.03333 -10.05,-1.15 -14.55,-3.35c-1.66667,-0.8 -2.76667,-2.06667 -3.3,-3.8c-1.96667,-6.33333 -2.73333,-12.9 -2.3,-19.7c0.2,-2.9 1.6,-3.93333 4.2,-3.1c1.36667,2.56667 3.61667,3.88333 6.75,3.95c3.36667,0.1 6.75,0.08333 10.15,-0.05c5.66667,0.43333 10.26667,-1.53333 13.8,-5.9c-5.7,-2.6 -11.8,-3.75 -18.3,-3.45c-3.03333,0.13333 -5.91667,-0.28333 -8.65,-1.25c-4.5,-1.6 -6.88333,-4.73333 -7.15,-9.4c-0.26667,-4.46667 0.46667,-8.73333 2.2,-12.8c1.26667,-3.03333 3.4,-5.41667 6.4,-7.15c9.6,-5.5 19.8,-7.38333 30.6,-5.65c5.5,0.93333 8.41667,4.1 8.75,9.5c0.23333,4.26667 -0.91667,7.88333 -3.45,10.85c-6.2,0.2 -12.4,0.4 -18.6,0.6z" fill="#000000"/></g></g></svg>