<svg version="1.1" xmlns="http://www.w3.org/2000/svg" xmlns:xlink="http://www.w3.org/1999/xlink" width="43.84773" height="65.58651" viewBox="0,0,43.84773,65.58651"><g transform="translate(-608.23311,-337.85451)"><g data-paper-data="{&quot;isPaintingLayer&quot;:true}" fill-rule="nonzero" stroke="none" stroke-width="1" stroke-linecap="butt" stroke-linejoin="miter" stroke-miterlimit="10" stroke-dasharray="" stroke-dashoffset="0" style="mix-blend-mode: normal"><path d="M651.95811,360.68784c-0.06667,1.43333 -0.08333,2.88333 -0.05,4.35c0.03333,3.76667 -0.08333,7.6 -0.35,11.5c-0.33333,4.7 -0.35,9.43333 -0.05,14.2c0.23333,3.63333 -0.2,7.2 -1.3,10.7c-0.13333,0.06667 -0.23333,0.16667 -0.3,0.3c-0.6,1 -1.51667,1.5 -2.75,1.5c-5,0.53333 -9.85,0.01667 -14.55,-1.55l-0.8,-1.85c-0.33333,-0.1 -0.51667,-0.4 -0.55,-0.9c-0.26667,-4.76667 -0.35,-9.58333 -0.25,-14.45l-6.25,-0.1c0,3.4 0.05,6.8 0.15,10.2c0,0.33333 0.05,0.68333 0.15,1.05c0.4,1.5 0.23333,3 -0.5,4.5c-0.46667,0.93333 -1.26667,1.55 -2.4,1.85c-2.06667,0.3 -4.16667,0.38333 -6.3,0.25c-1.73333,-0.1 -3.43333,-0.28333 -5.1,-0.55c-0.43333,-0.06667 -0.8,-0.25 -1.1,-0.55c-0.26667,-0.3 -0.41667,-0.63333 -0.45,-1c-0.16667,-1.13333 -0.28333,-2.36667 -0.35,-3.7c0,-0.2 -0.01667,-0.38333 -0.05,-0.55c-0.1,-1.16667 -0.16667,-2.31667 -0.2,-3.45c-0.06667,-5.43333 -0.16667,-10.91667 -0.3,-16.45c-0.1,-4.16667 -0.1,-8.33333 0,-12.5c0.13333,-5.53333 0.23333,-11.05 0.3,-16.55c0.03333,-1.13333 0.01667,-2.28333 -0.05,-3.45c-0.03333,-0.36667 -0.1,-0.73333 -0.2,-1.1c-0.16667,-0.76667 0,-1.46667 0.5,-2.1c3.7,-1.63333 7.61667,-2.38333 11.75,-2.25c1.33333,-0.36667 2.61667,-0.18333 3.85,0.55c0.33333,0.23333 0.6,0.55 0.8,0.95c0.46667,0.93333 0.76667,2 0.9,3.2c0.26667,2.56667 0.43333,5.15 0.5,7.75c0,0.6 0.06667,1.2 0.2,1.8c0.13333,0.5 0.16667,1.05 0.1,1.65c-0.1,1.4 0,2.83333 0.3,4.3c0.06667,0.33333 0.05,0.68333 -0.05,1.05c-0.2,0.63333 -0.05,1.06667 0.45,1.3l3.25,-0.55c0,-2.6 -0.05,-5.2 -0.15,-7.8c-0.03333,-0.83333 -0.06667,-1.66667 -0.1,-2.5c-0.06667,-2.4 -0.06667,-4.76667 0,-7.1c0.03333,-1 0.41667,-1.81667 1.15,-2.45c2.53333,-0.13333 5.08333,-0.23333 7.65,-0.3c2.56667,-0.03333 5.13333,-0.03333 7.7,0c1.63333,0.16667 2.75,0.95 3.35,2.35c0.33333,1 0.56667,2 0.7,3c0.8,5.13333 1.05,10.28333 0.75,15.45M636.60811,346.43784c0.46667,5.63333 0.53333,11.25 0.2,16.85c0,0.3 -0.06667,0.56667 -0.2,0.8c-0.16667,0.36667 -0.35,0.73333 -0.55,1.1c-2.96667,1.16667 -6.08333,1.71667 -9.35,1.65c-1.3,-0.03333 -2.58333,-0.1 -3.85,-0.2c-0.33333,-0.33333 -0.63333,-0.7 -0.9,-1.1c-0.26667,-0.46667 -0.46667,-1 -0.6,-1.6c-0.1,-0.53333 -0.13333,-1.06667 -0.1,-1.6c0.03333,-0.66667 -0.01667,-1.28333 -0.15,-1.85c-0.03333,-0.2 -0.06667,-0.38333 -0.1,-0.55c-0.13333,-1.1 -0.18333,-2.16667 -0.15,-3.2c0,-0.83333 -0.06667,-1.63333 -0.2,-2.4c-0.03333,-0.3 -0.03333,-0.58333 0,-0.85c0.13333,-2.2 0.05,-4.43333 -0.25,-6.7c-0.1,-0.7 -0.16667,-1.38333 -0.2,-2.05l-7,0.3c0.03333,0.06667 0.05,0.15 0.05,0.25c0.46667,7.76667 0.68333,15.53333 0.65,23.3c-0.03333,2.96667 -0.05,5.93333 -0.05,8.9c0,2.93333 0.06667,5.86667 0.2,8.8c0,0.36667 0.01667,0.73333 0.05,1.1c0.1,2.1 0.26667,4.21667 0.5,6.35c0.06667,0.5 0.08333,1.05 0.05,1.65c0,0.26667 0,0.53333 0,0.8l4.3,0.25c0.06667,-4.13333 -0.05,-8.23333 -0.35,-12.3c-0.03333,-0.33333 0.01667,-0.68333 0.15,-1.05c0.13333,-0.33333 0.18333,-0.7 0.15,-1.1c-0.03333,-0.2 -0.03333,-0.36667 0,-0.5c0.26667,-0.73333 0.6,-1.41667 1,-2.05c0.23333,-0.36667 0.55,-0.66667 0.95,-0.9c0.4,-0.23333 0.81667,-0.33333 1.25,-0.3c1.96667,0.46667 3.96667,0.58333 6,0.35c1.13333,-0.26667 2.28333,-0.51667 3.45,-0.75c0.7,-0.06667 1.4,0 2.1,0.2c0.66667,-0.03333 1.31667,0.08333 1.95,0.35c0.3,0.83333 0.55,1.7 0.75,2.6c0.36667,1.76667 0.56667,3.55 0.6,5.35c0.06667,3.46667 0.03333,6.95 -0.1,10.45l8.45,0.65c-0.03333,-1.7 -0.05,-3.4 -0.05,-5.1c-0.03333,-3.46667 -0.05,-6.93333 -0.05,-10.4c0,-1.9 0.06667,-3.78333 0.2,-5.65c0.03333,-0.23333 0.05,-0.5 0.05,-0.8c0.06667,-3.86667 0.18333,-7.7 0.35,-11.5c0,-0.43333 0.01667,-0.81667 0.05,-1.15c0.13333,-2.56667 0.23333,-5.15 0.3,-7.75c0.03333,-2.6 0.06667,-5.18333 0.1,-7.75l-0.15,-1.35z" fill="#000000"/><path d="M646.15811,355.08784c-0.06667,2.6 -0.16667,5.18333 -0.3,7.75c-0.03333,0.33333 -0.05,0.71667 -0.05,1.15c-0.16667,3.8 -0.28333,7.63333 -0.35,11.5c0,0.3 -0.01667,0.56667 -0.05,0.8c-0.13333,1.86667 -0.2,3.75 -0.2,5.65c0,3.46667 0.01667,6.93333 0.05,10.4c0,1.7 0.01667,3.4 0.05,5.1l-8.45,-0.65c0.13333,-3.5 0.16667,-6.98333 0.1,-10.45c-0.03333,-1.8 -0.23333,-3.58333 -0.6,-5.35c-0.2,-0.9 -0.45,-1.76667 -0.75,-2.6c-0.63333,-0.26667 -1.28333,-0.38333 -1.95,-0.35c-0.7,-0.2 -1.4,-0.26667 -2.1,-0.2c-1.16667,0.23333 -2.31667,0.48333 -3.45,0.75c-2.03333,0.23333 -4.03333,0.11667 -6,-0.35c-0.43333,-0.03333 -0.85,0.06667 -1.25,0.3c-0.4,0.23333 -0.71667,0.53333 -0.95,0.9c-0.4,0.63333 -0.73333,1.31667 -1,2.05c-0.03333,0.13333 -0.03333,0.3 0,0.5c0.03333,0.4 -0.01667,0.76667 -0.15,1.1c-0.13333,0.36667 -0.18333,0.71667 -0.15,1.05c0.3,4.06667 0.41667,8.16667 0.35,12.3l-4.3,-0.25c0,-0.26667 0,-0.53333 0,-0.8c0.03333,-0.6 0.01667,-1.15 -0.05,-1.65c-0.23333,-2.13333 -0.4,-4.25 -0.5,-6.35c-0.03333,-0.36667 -0.05,-0.73333 -0.05,-1.1c-0.13333,-2.93333 -0.2,-5.86667 -0.2,-8.8c0,-2.96667 0.01667,-5.93333 0.05,-8.9c0.03333,-7.76667 -0.18333,-15.53333 -0.65,-23.3c0,-0.1 -0.01667,-0.18333 -0.05,-0.25l7,-0.3c0.03333,0.66667 0.1,1.35 0.2,2.05c0.3,2.26667 0.38333,4.5 0.25,6.7c-0.03333,0.26667 -0.03333,0.55 0,0.85c0.13333,0.76667 0.2,1.56667 0.2,2.4c-0.03333,1.03333 0.01667,2.1 0.15,3.2c0.03333,0.16667 0.06667,0.35 0.1,0.55c0.13333,0.56667 0.18333,1.18333 0.15,1.85c-0.03333,0.53333 0,1.06667 0.1,1.6c0.13333,0.6 0.33333,1.13333 0.6,1.6c0.26667,0.4 0.56667,0.76667 0.9,1.1c1.26667,0.1 2.55,0.16667 3.85,0.2c3.26667,0.06667 6.38333,-0.48333 9.35,-1.65c0.2,-0.36667 0.38333,-0.73333 0.55,-1.1c0.13333,-0.23333 0.2,-0.5 0.2,-0.8c0.33333,-5.6 0.26667,-11.21667 -0.2,-16.85l9.5,-0.45l0.15,1.35c-0.03333,2.56667 -0.06667,5.15 -0.1,7.75z" fill="#ffffff"/></g></g></svg>