<svg version="1.1" xmlns="http://www.w3.org/2000/svg" xmlns:xlink="http://www.w3.org/1999/xlink" width="143.40417" height="140.69898" viewBox="0,0,143.40417,140.69898"><g transform="translate(-568.29792,-289.65051)"><g data-paper-data="{&quot;isPaintingLayer&quot;:true}" fill-rule="nonzero" stroke="none" stroke-width="1" stroke-linecap="butt" stroke-linejoin="miter" stroke-miterlimit="10" stroke-dasharray="" stroke-dashoffset="0" style="mix-blend-mode: normal"><g><path d="M666.55208,378.80422c0.7,1.26667 1.48333,2.56667 2.35,3.9c0.14583,0.2625 0.29583,0.5125 0.45,0.75c-0.52539,-0.7069 -1.05872,-1.49023 -1.6,-2.35c-0.43333,-0.63333 -0.83333,-1.3 -1.2,-2c0,-0.1 0,-0.2 0,-0.3M662.55208,360.65422c-0.96667,0 -1.6,0.18333 -1.9,0.55c-0.13333,0.3 -0.25,0.58333 -0.35,0.85c-0.1,0.7 -0.13333,1.23333 -0.1,1.6c-0.16667,17.7 -0.26667,28.15 -0.3,31.35c-0.06667,3.26667 -0.13333,5.66667 -0.2,7.2c-0.03333,1.53333 -0.06667,3.25 -0.1,5.15c-0.03333,0.96667 -0.08333,2.36667 -0.15,4.2c-0.03333,2.2 -1.01667,4.03333 -2.95,5.5c-1.9,1.33333 -5.43333,2.73333 -10.6,4.2c-7.26667,0.4 -14.53333,-0.03333 -21.8,-1.3c-0.36667,-3.76667 -0.73333,-6.56667 -1.1,-8.4c0.16667,-3.56667 0.38333,-8.76667 0.65,-15.6c0.7,-18.56667 1.06667,-28.28333 1.1,-29.15c0.03333,-1.13333 -0.05,-2.15 -0.25,-3.05c-0.5,-1.96667 -1.61667,-2.91667 -3.35,-2.85c-0.36667,0 -0.73333,0.06667 -1.1,0.2c0.83333,-0.46667 1.56667,-0.7 2.2,-0.7c1.7,-0.06667 2.78333,0.81667 3.25,2.65c0.23333,0.86667 0.31667,1.83333 0.25,2.9c-0.03333,0.83333 -0.36667,10.08333 -1,27.75c-0.26667,6.53333 -0.5,11.5 -0.7,14.9c0.36667,1.73333 0.71667,4.38333 1.05,7.95c6.93333,1.23333 13.85,1.66667 20.75,1.3c4.96667,-1.43333 8.31667,-2.78333 10.05,-4.05c1.9,-1.4 2.86667,-3.15 2.9,-5.25c0.03333,-1.73333 0.05,-3.06667 0.05,-4c0.06667,-1.8 0.11667,-3.4 0.15,-4.8c0.06667,-1.53333 0.13333,-3.86667 0.2,-7c0.03333,-3.03333 0.11667,-12.96667 0.25,-29.8c-0.03333,-0.33333 0,-0.85 0.1,-1.55c0.1,-0.23333 0.21667,-0.5 0.35,-0.8h0.05c0.26667,-0.3 0.86667,-0.45 1.8,-0.45c0.6,0 1.3,0.3 2.1,0.9c-0.46667,-0.26667 -0.9,-0.4 -1.3,-0.4M697.65208,352.80422c4.1,7.13333 6.25,11.3 6.45,12.5c0.06667,1 -3.46667,4.16667 -10.6,9.5c-7.26667,5.73333 -11.65,9.11667 -13.15,10.15c-0.33333,-0.7 -0.7,-1.4 -1.1,-2.1c1.83333,-1.3 5.8,-4.38333 11.9,-9.25c6.8,-5.1 10.16667,-8.13333 10.1,-9.1c-0.13333,-1.13333 -2.18333,-5.06667 -6.15,-11.8c-4,-6.66667 -10.76667,-16.61667 -20.3,-29.85c-9.46667,-14.16667 -18.58333,-21.63333 -27.35,-22.4c-9,0.03333 -15.48333,1.4 -19.45,4.1c-3.13333,1.83333 -6.18333,4.28333 -9.15,7.35c-4.8,5.9 -9.53333,11.61667 -14.2,17.15c0.6,-0.93333 1.46667,-2.11667 2.6,-3.55c-2.26667,2.63333 -4.15,4.88333 -5.65,6.75c-0.83333,0.9 -1.48333,1.71667 -1.95,2.45c-0.9,0.83333 -1.5,1.56667 -1.8,2.2c-12.4,15.9 -18.51667,24.35 -18.35,25.35c0.03333,1.2 2.73333,4.81667 8.1,10.85c4.63333,5.26667 8.11667,9 10.45,11.2c-0.83333,0.96667 -1.48333,1.68333 -1.95,2.15c-2.43333,-2.23333 -6.23333,-6.28333 -11.4,-12.15c-5.66667,-6.36667 -8.51667,-10.15 -8.55,-11.35c-0.16667,-1.06667 6.26667,-9.96667 19.3,-26.7c0.33333,-0.63333 0.96667,-1.4 1.9,-2.3c0.46667,-0.8 1.16667,-1.65 2.1,-2.55c1.5,-1.96667 3.46667,-4.31667 5.9,-7.05c-1.2,1.46667 -2.13333,2.68333 -2.8,3.65c4.93333,-5.83333 9.91667,-11.85 14.95,-18.05c3.13333,-3.23333 6.33333,-5.8 9.6,-7.7c4.2,-2.83333 11.01667,-4.26667 20.45,-4.3c9.2,0.83333 18.76667,8.68333 28.7,23.55c10,13.96667 17.13333,24.4 21.4,31.3z" fill="#ffffff"/><path d="M676.50208,309.75422c3.53333,1.9 10.26667,10.93333 20.2,27.1c9.96667,15.6 14.96667,24.91667 15,27.95c-0.1,2.8 -0.93333,5.21667 -2.5,7.25c-1.56667,1.83333 -5.75,4.91667 -12.55,9.25c-6.9,4.6 -12.01667,7.9 -15.35,9.9c-3.26667,1.76667 -7.21667,-0.78333 -11.85,-7.65l-0.1,-0.1c-0.15417,-0.2375 -0.30417,-0.4875 -0.45,-0.75c-0.86667,-1.33333 -1.65,-2.63333 -2.35,-3.9c0,0.1 0,0.2 0,0.3c-0.23333,2.33333 -0.45,4.96667 -0.65,7.9c-0.06667,2.76667 0.03333,7.11667 0.3,13.05c0.26667,6.03333 0.4,9.28333 0.4,9.75c-0.06667,0.63333 -0.03333,2.11667 0.1,4.45c-0.13333,2.2 -0.6,4.18333 -1.4,5.95c-2.73333,5.46667 -9.01667,8.78333 -18.85,9.95c-8.33333,0.56667 -16.73333,-0.1 -25.2,-2c-3.1,-3.7 -4.88333,-8.11667 -5.35,-13.25c0.06667,-5.96667 0.05,-10.35 -0.05,-13.15c-0.2,-5.2 -0.3,-9.33333 -0.3,-12.4c-0.06667,-4.83333 0.15,-9.15 0.65,-12.95c-0.06667,-0.1 -0.13333,-0.21667 -0.2,-0.35c-0.03333,-0.16667 -0.06667,-0.33333 -0.1,-0.5c-0.63333,0.7 -1.78333,2.31667 -3.45,4.85c-2.06667,3.33333 -3.58333,5.61667 -4.55,6.85c-0.5,0.56667 -0.98333,1.15 -1.45,1.75c-3.8,4.26667 -7.43333,6.21667 -10.9,5.85c-3.23333,-0.53333 -8.76667,-6.03333 -16.6,-16.5c-2.53333,-3.36667 -5.06667,-6.86667 -7.6,-10.5c-2.1,-3.13333 -3.11667,-4.73333 -3.05,-4.8c-0.13333,-2.13333 2.93333,-7.35 9.2,-15.65c3.06667,-4.2 6.31667,-8.3 9.75,-12.3c2.56667,-2.9 6.48333,-7.8 11.75,-14.7c2.33333,-2.86667 4.73333,-5.35 7.2,-7.45c4.53333,-6.13333 9.9,-11.38333 16.1,-15.75c8.2,-6.2 16.51667,-8.58333 24.95,-7.15c9.9,2.13333 19.65,8.7 29.25,19.7M627.10208,302.25422c-3.26667,1.9 -6.46667,4.46667 -9.6,7.7c-5.03333,6.2 -10.01667,12.21667 -14.95,18.05c0.66667,-0.96667 1.6,-2.18333 2.8,-3.65c-2.43333,2.73333 -4.4,5.08333 -5.9,7.05c-0.93333,0.9 -1.63333,1.75 -2.1,2.55c-0.93333,0.9 -1.56667,1.66667 -1.9,2.3c-13.03333,16.73333 -19.46667,25.63333 -19.3,26.7c0.03333,1.2 2.88333,4.98333 8.55,11.35c5.16667,5.86667 8.96667,9.91667 11.4,12.15c0.46667,-0.46667 1.11667,-1.18333 1.95,-2.15c2.16667,-2.46667 5.58333,-6.56667 10.25,-12.3c5.3,-6.43333 9.21667,-10.06667 11.75,-10.9c0.36667,-0.13333 0.73333,-0.2 1.1,-0.2c1.73333,-0.06667 2.85,0.88333 3.35,2.85c0.2,0.9 0.28333,1.91667 0.25,3.05c-0.03333,0.86667 -0.4,10.58333 -1.1,29.15c-0.26667,6.83333 -0.48333,12.03333 -0.65,15.6c0.36667,1.83333 0.73333,4.63333 1.1,8.4c7.26667,1.26667 14.53333,1.7 21.8,1.3c5.16667,-1.46667 8.7,-2.86667 10.6,-4.2c1.93333,-1.46667 2.91667,-3.3 2.95,-5.5c0.06667,-1.83333 0.11667,-3.23333 0.15,-4.2c0.03333,-1.9 0.06667,-3.61667 0.1,-5.15c0.06667,-1.53333 0.13333,-3.93333 0.2,-7.2c0.03333,-3.2 0.13333,-13.65 0.3,-31.35c-0.03333,-0.36667 0,-0.9 0.1,-1.6c0.1,-0.26667 0.21667,-0.55 0.35,-0.85c0.3,-0.36667 0.93333,-0.55 1.9,-0.55c0.4,0 0.83333,0.13333 1.3,0.4c1.93333,1 4.6,4.13333 8,9.4c2.46667,3.76667 4.93333,7.9 7.4,12.4c0.4,0.7 0.76667,1.4 1.1,2.1c1.5,-1.03333 5.88333,-4.41667 13.15,-10.15c7.13333,-5.33333 10.66667,-8.5 10.6,-9.5c-0.2,-1.2 -2.35,-5.36667 -6.45,-12.5c-4.26667,-6.9 -11.4,-17.33333 -21.4,-31.3c-9.93333,-14.86667 -19.5,-22.71667 -28.7,-23.55c-9.43333,0.03333 -16.25,1.46667 -20.45,4.3z" fill="#201e31"/><path d="M674.80208,322.85422c9.53333,13.23333 16.3,23.18333 20.3,29.85c3.96667,6.73333 6.01667,10.66667 6.15,11.8c0.06667,0.96667 -3.3,4 -10.1,9.1c-6.1,4.86667 -10.06667,7.95 -11.9,9.25c-2.46667,-4.5 -4.93333,-8.63333 -7.4,-12.4c-3.4,-5.26667 -6.06667,-8.4 -8,-9.4c-0.8,-0.6 -1.5,-0.9 -2.1,-0.9c-0.93333,0 -1.53333,0.15 -1.8,0.45h-0.05c-0.13333,0.3 -0.25,0.56667 -0.35,0.8c-0.1,0.7 -0.13333,1.21667 -0.1,1.55c-0.13333,16.83333 -0.21667,26.76667 -0.25,29.8c-0.06667,3.13333 -0.13333,5.46667 -0.2,7c-0.03333,1.4 -0.08333,3 -0.15,4.8c0,0.93333 -0.01667,2.26667 -0.05,4c-0.03333,2.1 -1,3.85 -2.9,5.25c-1.73333,1.26667 -5.08333,2.61667 -10.05,4.05c-6.9,0.36667 -13.81667,-0.06667 -20.75,-1.3c-0.33333,-3.56667 -0.68333,-6.21667 -1.05,-7.95c0.2,-3.4 0.43333,-8.36667 0.7,-14.9c0.63333,-17.66667 0.96667,-26.91667 1,-27.75c0.06667,-1.06667 -0.01667,-2.03333 -0.25,-2.9c-0.46667,-1.83333 -1.55,-2.71667 -3.25,-2.65c-0.63333,0 -1.36667,0.23333 -2.2,0.7c-2.53333,0.83333 -6.45,4.46667 -11.75,10.9c-4.66667,5.73333 -8.08333,9.83333 -10.25,12.3c-2.33333,-2.2 -5.81667,-5.93333 -10.45,-11.2c-5.36667,-6.03333 -8.06667,-9.65 -8.1,-10.85c-0.16667,-1 5.95,-9.45 18.35,-25.35c0.3,-0.63333 0.9,-1.36667 1.8,-2.2c0.46667,-0.73333 1.11667,-1.55 1.95,-2.45c1.5,-1.86667 3.38333,-4.11667 5.65,-6.75c-1.13333,1.43333 -2,2.61667 -2.6,3.55c4.66667,-5.53333 9.4,-11.25 14.2,-17.15c2.96667,-3.06667 6.01667,-5.51667 9.15,-7.35c3.96667,-2.7 10.45,-4.06667 19.45,-4.1c8.76667,0.76667 17.88333,8.23333 27.35,22.4M657.90208,364.45422l0.05,0.05c0,-0.13333 0,-0.26667 0,-0.4z" fill="#57bf6f"/><path d="M657.90208,364.45422l0.05,-0.35c0,0.13333 0,0.26667 0,0.4z" fill="#000000"/></g></g></g></svg>