<svg version="1.1" xmlns="http://www.w3.org/2000/svg" xmlns:xlink="http://www.w3.org/1999/xlink" width="46.7" height="65.68965" viewBox="0,0,46.7,65.68965"><g transform="translate(-608.10811,-337.84646)"><g data-paper-data="{&quot;isPaintingLayer&quot;:true}" fill-rule="nonzero" stroke="none" stroke-width="1" stroke-linecap="butt" stroke-linejoin="miter" stroke-miterlimit="10" stroke-dasharray="" stroke-dashoffset="0" style="mix-blend-mode: normal"><path d="M650.45811,356.43784c-0.06667,1.53333 -0.1,3.05 -0.1,4.55c0,0.66667 -0.15,1.3 -0.45,1.9c0,0.06667 0,0.15 0,0.25c0,0.1 0,0.18333 0,0.25c-0.06667,0.2 -0.13333,0.38333 -0.2,0.55c-0.46667,1.26667 -1.06667,2.45 -1.8,3.55c-1.16667,1.76667 -2.76667,3.08333 -4.8,3.95c-0.06667,0.1 -0.16667,0.18333 -0.3,0.25c-0.46667,0.3 -0.93333,0.56667 -1.4,0.8c0.46667,0.4 0.91667,0.86667 1.35,1.4c0.43333,0.5 0.81667,1.05 1.15,1.65c0.23333,0.2 0.43333,0.38333 0.6,0.55c0.23333,0.23333 0.4,0.5 0.5,0.8c0.03333,0.1 0.08333,0.18333 0.15,0.25c2.7,3 5.3,6.01667 7.8,9.05c1.13333,1.4 1.75,2.95 1.85,4.65c-1.06667,2.5 -2.6,4.75 -4.6,6.75c-1.13333,1.13333 -2.15,2.36667 -3.05,3.7c-4,1.83333 -7.41667,0.76667 -10.25,-3.2c-1.03333,-1.46667 -2.06667,-2.93333 -3.1,-4.4c-0.8,-0.73333 -1.55,-1.53333 -2.25,-2.4c-0.5,-0.6 -0.93333,-1.23333 -1.3,-1.9c-0.16667,-0.16667 -0.33333,-0.35 -0.5,-0.55c-0.33333,-0.36667 -0.73333,-0.63333 -1.2,-0.8c-0.16667,-0.16667 -0.33333,-0.35 -0.5,-0.55c-0.26667,-0.33333 -0.51667,-0.68333 -0.75,-1.05c-0.06667,-0.06667 -0.11667,-0.11667 -0.15,-0.15c0,0.06667 0,0.15 0,0.25c0,0.1 0,0.18333 0,0.25c0,0.1 0,0.2 0,0.3c0,0.06667 0.01667,0.15 0.05,0.25c0.03333,0.1 0.06667,0.18333 0.1,0.25c0.03333,0.1 0.06667,0.2 0.1,0.3c0.03333,0.06667 0.06667,0.15 0.1,0.25c0,2.13333 0,4.28333 0,6.45c0,1.96667 0,3.91667 0,5.85c-0.76667,2.3 -2.48333,3.25 -5.15,2.85c-0.3,-0.03333 -0.61667,-0.03333 -0.95,0c-3.06667,0.4 -6.08333,0.31667 -9.05,-0.25c-0.9,-0.2 -1.63333,-0.66667 -2.2,-1.4c-0.03333,-0.1 -0.06667,-0.2 -0.1,-0.3c-0.03333,-0.06667 -0.06667,-0.15 -0.1,-0.25c-0.06667,-0.16667 -0.1,-0.35 -0.1,-0.55c-0.03333,-0.16667 -0.05,-0.33333 -0.05,-0.5c-0.03333,-0.1 -0.06667,-0.2 -0.1,-0.3c0,-0.06667 -0.01667,-0.15 -0.05,-0.25c-0.03333,-0.1 -0.06667,-0.2 -0.1,-0.3c-0.03333,-0.06667 -0.06667,-0.15 -0.1,-0.25c0,-0.53333 0,-1.06667 0,-1.6c0,-0.8 0,-1.6 0,-2.4c0,-0.1 0,-0.2 0,-0.3c-0.03333,-0.06667 -0.06667,-0.15 -0.1,-0.25c-0.03333,-0.1 -0.06667,-0.18333 -0.1,-0.25c0,-0.1 -0.01667,-0.2 -0.05,-0.3c-0.03333,-0.06667 -0.06667,-0.15 -0.1,-0.25c0,-0.26667 0,-0.53333 0,-0.8c0,-0.46667 0,-0.91667 0,-1.35c0,-0.16667 0,-0.35 0,-0.55c-0.36667,-0.9 -0.51667,-1.88333 -0.45,-2.95c0.06667,-1.23333 0.1,-2.46667 0.1,-3.7c-0.03333,-0.1 -0.06667,-0.2 -0.1,-0.3c-0.03333,-0.1 -0.06667,-0.18333 -0.1,-0.25c-0.03333,-0.1 -0.06667,-0.2 -0.1,-0.3c0,-0.06667 -0.01667,-0.15 -0.05,-0.25c-0.03333,-1.16667 -0.03333,-2.33333 0,-3.5c0.03333,-1.4 0.05,-2.81667 0.05,-4.25c0,-0.1 -0.01667,-0.2 -0.05,-0.3c-0.03333,-0.06667 -0.06667,-0.15 -0.1,-0.25c-0.03333,-0.1 -0.06667,-0.18333 -0.1,-0.25c-0.03333,-0.1 -0.06667,-0.2 -0.1,-0.3c0.06667,-3.3 0.11667,-6.6 0.15,-9.9c0.03333,-2.83333 0.05,-5.68333 0.05,-8.55c0.03333,-0.1 0.06667,-0.2 0.1,-0.3c0.03333,-0.06667 0.05,-0.15 0.05,-0.25c0.03333,-0.1 0.08333,-0.18333 0.15,-0.25c0.03333,-0.1 0.08333,-0.2 0.15,-0.3c0.03333,-2.13333 0.08333,-4.26667 0.15,-6.4c0.06667,-1.56667 0.21667,-3.11667 0.45,-4.65c-0.06667,-0.1 -0.11667,-0.18333 -0.15,-0.25c-0.06667,-0.1 -0.11667,-0.2 -0.15,-0.3c-0.03333,-0.1 -0.05,-0.18333 -0.05,-0.25c-0.03333,-0.1 -0.05,-0.2 -0.05,-0.3c-0.03333,-0.06667 -0.05,-0.15 -0.05,-0.25c0,-0.1 0.01667,-0.18333 0.05,-0.25c0,-0.1 0.01667,-0.2 0.05,-0.3c0,-0.06667 0,-0.15 0,-0.25c3.66667,-2.53333 7.93333,-3.71667 12.8,-3.55c3.56667,0.13333 7.13333,0.18333 10.7,0.15c2.36667,-0.43333 4.66667,-0.38333 6.9,0.15c1.83333,0.43333 3.21667,1.4 4.15,2.9c0.5,0.36667 0.93333,0.81667 1.3,1.35c1.23333,1.8 2.35,3.65 3.35,5.55c0.86667,1.66667 1.43333,3.38333 1.7,5.15c0.03333,0.1 0.06667,0.18333 0.1,0.25c0.33333,0.93333 0.48333,1.91667 0.45,2.95M638.95811,345.53784c-0.06667,-0.06667 -0.11667,-0.15 -0.15,-0.25c-0.13333,-0.1 -0.26667,-0.2 -0.4,-0.3c-0.13333,-0.06667 -0.26667,-0.13333 -0.4,-0.2c-0.13333,-0.06667 -0.28333,-0.13333 -0.45,-0.2c-8.23333,-0.63333 -16.43333,-0.53333 -24.6,0.3c0.16667,1.73333 0.28333,3.45 0.35,5.15c0.06667,1.83333 0.1,3.7 0.1,5.6c-0.03333,0.1 -0.06667,0.18333 -0.1,0.25c-0.03333,0.1 -0.06667,0.2 -0.1,0.3c-0.03333,0.1 -0.06667,0.18333 -0.1,0.25c0.03333,3.03333 0.05,6.06667 0.05,9.1c0.03333,2.6 0.08333,5.2 0.15,7.8c0.36667,2.63333 0.63333,5.3 0.8,8c0.13333,2.36667 0.13333,4.78333 0,7.25c0.16667,0.33333 0.26667,0.7 0.3,1.1c0.03333,0.6 0.05,1.21667 0.05,1.85c0,0.16667 0,0.35 0,0.55c0.03333,0.06667 0.06667,0.15 0.1,0.25c0.03333,0.1 0.06667,0.18333 0.1,0.25c0,0.1 0.01667,0.2 0.05,0.3c0.03333,0.06667 0.06667,0.15 0.1,0.25c0,0.53333 0,1.06667 0,1.6c0,0.8 0.01667,1.6 0.05,2.4c0,0.16667 0.01667,0.31667 0.05,0.45c1.8,0.03333 3.58333,0.06667 5.35,0.1c0.06667,-0.03333 0.13333,-0.05 0.2,-0.05c0.1,-0.06667 0.21667,-0.11667 0.35,-0.15c0.33333,-0.06667 0.65,-0.15 0.95,-0.25c0,-1.16667 0,-2.31667 0,-3.45c0,-1.36667 0,-2.71667 0,-4.05c-0.36667,-1.53333 -0.51667,-3.13333 -0.45,-4.8c0.06667,-1.6 0.1,-3.21667 0.1,-4.85c-0.03333,-0.16667 -0.08333,-0.33333 -0.15,-0.5c-0.06667,-0.3 -0.11667,-0.58333 -0.15,-0.85c-0.03333,-0.26667 -0.05,-0.51667 -0.05,-0.75c0.06667,-0.2 0.13333,-0.38333 0.2,-0.55c0.1,-0.3 0.25,-0.56667 0.45,-0.8c0.16667,-0.2 0.33333,-0.38333 0.5,-0.55c2.76667,-0.8 5.01667,0.13333 6.75,2.8c0.3,0.46667 0.55,0.96667 0.75,1.5c0.2,0.16667 0.4,0.33333 0.6,0.5c0.36667,0.3 0.73333,0.58333 1.1,0.85c2.93333,3.23333 5.71667,6.58333 8.35,10.05c1.16667,1.5 2.5,2.7 4,3.6c0.7,-0.63333 1.33333,-1.31667 1.9,-2.05c0.53333,-0.7 1.11667,-1.36667 1.75,-2c0.06667,-0.06667 0.11667,-0.15 0.15,-0.25c0.03333,-0.1 0.08333,-0.18333 0.15,-0.25c0.03333,-0.1 0.08333,-0.2 0.15,-0.3c0.06667,-0.06667 0.11667,-0.15 0.15,-0.25c-0.06667,-0.16667 -0.16667,-0.33333 -0.3,-0.5c-0.23333,-0.23333 -0.4,-0.51667 -0.5,-0.85c-0.03333,-0.1 -0.08333,-0.18333 -0.15,-0.25c-1.76667,-1.93333 -3.51667,-3.88333 -5.25,-5.85c-0.9,-0.96667 -1.75,-1.96667 -2.55,-3c-0.03333,-0.1 -0.08333,-0.2 -0.15,-0.3c-0.03333,-0.06667 -0.06667,-0.15 -0.1,-0.25c-0.06667,-0.06667 -0.13333,-0.15 -0.2,-0.25c-0.7,-0.7 -1.4,-1.41667 -2.1,-2.15c-0.53333,-0.5 -1.01667,-1.03333 -1.45,-1.6c-0.03333,-0.1 -0.06667,-0.18333 -0.1,-0.25c-0.03333,-0.1 -0.06667,-0.2 -0.1,-0.3c0,-0.06667 -0.01667,-0.15 -0.05,-0.25c-0.03333,-0.1 -0.06667,-0.18333 -0.1,-0.25c0,-0.1 0,-0.2 0,-0.3c0,-0.1 0,-0.18333 0,-0.25c0.03333,-0.2 0.06667,-0.38333 0.1,-0.55c0.03333,-0.16667 0.05,-0.35 0.05,-0.55c0.03333,-0.03333 0.05,-0.06667 0.05,-0.1c-0.16667,-0.2 -0.31667,-0.43333 -0.45,-0.7c0,-0.06667 -0.01667,-0.15 -0.05,-0.25c0,-0.1 -0.01667,-0.18333 -0.05,-0.25c-0.03333,-0.1 -0.06667,-0.2 -0.1,-0.3c0,-0.06667 0,-0.15 0,-0.25c0,-0.1 0,-0.18333 0,-0.25c0,-0.1 0,-0.2 0,-0.3c0.03333,-0.1 0.05,-0.18333 0.05,-0.25c0.03333,-0.1 0.05,-0.18333 0.05,-0.25c0.03333,-0.1 0.06667,-0.2 0.1,-0.3c0.03333,-0.1 0.08333,-0.18333 0.15,-0.25c1.06667,-1.33333 2.43333,-2.3 4.1,-2.9c1.23333,-0.43333 2.33333,-1.08333 3.3,-1.95c0.06667,-0.06667 0.11667,-0.15 0.15,-0.25c0.2,-0.4 0.41667,-0.78333 0.65,-1.15c0.26667,-0.36667 0.45,-0.78333 0.55,-1.25c0.13333,-0.63333 0.31667,-1.26667 0.55,-1.9c0,-0.06667 0,-0.15 0,-0.25c0,-0.26667 0,-0.53333 0,-0.8c0,-0.26667 0,-0.53333 0,-0.8c0,-0.36667 0,-0.73333 0,-1.1c0,-0.16667 0,-0.33333 0,-0.5c-0.03333,-0.1 -0.06667,-0.2 -0.1,-0.3c-0.1,-0.16667 -0.18333,-0.35 -0.25,-0.55c-0.03333,-0.16667 -0.06667,-0.33333 -0.1,-0.5c0,-0.2 0,-0.38333 0,-0.55c0,-0.16667 0,-0.35 0,-0.55c-0.03333,-0.06667 -0.08333,-0.13333 -0.15,-0.2c-0.2,-0.33333 -0.38333,-0.7 -0.55,-1.1c-0.2,-0.43333 -0.38333,-0.86667 -0.55,-1.3c-0.2,-0.56667 -0.41667,-1.11667 -0.65,-1.65c-0.06667,-0.1 -0.15,-0.2 -0.25,-0.3c-0.1,-0.06667 -0.18333,-0.15 -0.25,-0.25c-0.06667,-0.1 -0.11667,-0.2 -0.15,-0.3c-0.1,-0.16667 -0.18333,-0.33333 -0.25,-0.5c-0.06667,-0.16667 -0.15,-0.35 -0.25,-0.55c-0.06667,-0.16667 -0.15,-0.33333 -0.25,-0.5c-0.06667,-0.1 -0.13333,-0.2 -0.2,-0.3c-0.06667,-0.1 -0.15,-0.18333 -0.25,-0.25c-0.1,-0.1 -0.18333,-0.2 -0.25,-0.3c-0.1,-0.06667 -0.2,-0.15 -0.3,-0.25c-0.06667,-0.1 -0.15,-0.18333 -0.25,-0.25c-0.06667,-0.1 -0.11667,-0.2 -0.15,-0.3M635.35811,357.68784c0,0.26667 0,0.53333 0,0.8c0,0.26667 0,0.53333 0,0.8c0,0.46667 0,0.91667 0,1.35c0,0.1 0,0.18333 0,0.25c-0.26667,0.76667 -0.66667,1.45 -1.2,2.05c-3.23333,3.46667 -7.23333,4.4 -12,2.8c-0.13333,-0.1 -0.25,-0.2 -0.35,-0.3c-0.2,-0.16667 -0.38333,-0.35 -0.55,-0.55c-0.13333,-0.16667 -0.25,-0.33333 -0.35,-0.5c-0.06667,-0.16667 -0.13333,-0.35 -0.2,-0.55c0,-0.06667 0,-0.15 0,-0.25c0,-0.1 0,-0.18333 0,-0.25c0,-0.1 -0.01667,-0.18333 -0.05,-0.25c-0.2,-0.5 -0.28333,-1.05 -0.25,-1.65c0.1,-0.9 0.18333,-1.78333 0.25,-2.65c0.03333,-0.36667 0.08333,-0.73333 0.15,-1.1c-0.03333,-0.06667 -0.06667,-0.15 -0.1,-0.25c-0.06667,-0.2 -0.13333,-0.38333 -0.2,-0.55c-0.03333,-0.1 -0.08333,-0.18333 -0.15,-0.25c-0.06667,-0.1 -0.13333,-0.18333 -0.2,-0.25c-0.06667,-0.1 -0.15,-0.2 -0.25,-0.3c-0.03333,-0.1 -0.06667,-0.18333 -0.1,-0.25c-0.03333,-0.1 -0.06667,-0.2 -0.1,-0.3c-0.03333,-0.06667 -0.05,-0.15 -0.05,-0.25c-0.03333,-0.1 -0.06667,-0.18333 -0.1,-0.25c0,-0.1 0,-0.2 0,-0.3c0,-0.06667 0,-0.15 0,-0.25c0,-0.1 0,-0.18333 0,-0.25c0,-0.1 0,-0.2 0,-0.3c0.03333,-0.06667 0.06667,-0.15 0.1,-0.25c0,-0.1 0.03333,-0.18333 0.1,-0.25c0.03333,-0.1 0.08333,-0.2 0.15,-0.3c0.06667,-0.1 0.13333,-0.18333 0.2,-0.25c0.06667,-0.1 0.15,-0.2 0.25,-0.3c0.1,-0.06667 0.2,-0.13333 0.3,-0.2c0.83333,-0.43333 1.75,-0.68333 2.75,-0.75c0.36667,0 0.65,-0.03333 0.85,-0.1c2.93333,-0.7 5.58333,-0.28333 7.95,1.25c1.66667,1.1 2.71667,2.65 3.15,4.65c0,0.1 0,0.18333 0,0.25M629.70811,357.38784c-0.36667,-0.3 -0.78333,-0.5 -1.25,-0.6c-1.13333,0.03333 -2.25,0.06667 -3.35,0.1c-0.3,0.1 -0.56667,0.21667 -0.8,0.35c-0.03333,0.03333 -0.06667,0.1 -0.1,0.2c0.03333,0.43333 0.06667,0.88333 0.1,1.35c0.1,0.6 0.15,1.21667 0.15,1.85c0,0.1 0,0.18333 0,0.25c1.06667,0.6 2.38333,0.66667 3.95,0.2c0.33333,-0.16667 0.66667,-0.36667 1,-0.6c0.23333,-0.13333 0.45,-0.28333 0.65,-0.45c0.06667,-0.1 0.11667,-0.2 0.15,-0.3c0.06667,-0.16667 0.11667,-0.33333 0.15,-0.5c0,-0.1 0,-0.2 0,-0.3c0,-0.06667 -0.01667,-0.15 -0.05,-0.25c-0.13333,-0.23333 -0.25,-0.5 -0.35,-0.8c0,-0.1 -0.01667,-0.2 -0.05,-0.3c-0.06667,-0.06667 -0.13333,-0.13333 -0.2,-0.2z" fill="#000000"/><path d="M639.10811,345.83784c0.1,0.06667 0.18333,0.15 0.25,0.25c0.1,0.1 0.2,0.18333 0.3,0.25c0.06667,0.1 0.15,0.2 0.25,0.3c0.1,0.06667 0.18333,0.15 0.25,0.25c0.06667,0.1 0.13333,0.2 0.2,0.3c0.1,0.16667 0.18333,0.33333 0.25,0.5c0.1,0.2 0.18333,0.38333 0.25,0.55c0.06667,0.16667 0.15,0.33333 0.25,0.5c0.03333,0.1 0.08333,0.2 0.15,0.3c0.06667,0.1 0.15,0.18333 0.25,0.25c0.1,0.1 0.18333,0.2 0.25,0.3c0.23333,0.53333 0.45,1.08333 0.65,1.65c0.16667,0.43333 0.35,0.86667 0.55,1.3c0.16667,0.4 0.35,0.76667 0.55,1.1c0.06667,0.06667 0.11667,0.13333 0.15,0.2c0,0.2 0,0.38333 0,0.55c0,0.16667 0,0.35 0,0.55c0.03333,0.16667 0.06667,0.33333 0.1,0.5c0.06667,0.2 0.15,0.38333 0.25,0.55c0.03333,0.1 0.06667,0.2 0.1,0.3c0,0.16667 0,0.33333 0,0.5c0,0.36667 0,0.73333 0,1.1c0,0.26667 0,0.53333 0,0.8c0,0.26667 0,0.53333 0,0.8c0,0.1 0,0.18333 0,0.25c-0.23333,0.63333 -0.41667,1.26667 -0.55,1.9c-0.1,0.46667 -0.28333,0.88333 -0.55,1.25c-0.23333,0.36667 -0.45,0.75 -0.65,1.15c-0.03333,0.1 -0.08333,0.18333 -0.15,0.25c-0.96667,0.86667 -2.06667,1.51667 -3.3,1.95c-1.66667,0.6 -3.03333,1.56667 -4.1,2.9c-0.06667,0.06667 -0.11667,0.15 -0.15,0.25c-0.03333,0.1 -0.06667,0.2 -0.1,0.3c0,0.06667 -0.01667,0.15 -0.05,0.25c0,0.06667 -0.01667,0.15 -0.05,0.25c0,0.1 0,0.2 0,0.3c0,0.06667 0,0.15 0,0.25c0,0.1 0,0.18333 0,0.25c0.03333,0.1 0.06667,0.2 0.1,0.3c0.03333,0.06667 0.05,0.15 0.05,0.25c0.03333,0.1 0.05,0.18333 0.05,0.25c0.13333,0.26667 0.28333,0.5 0.45,0.7c0,0.03333 -0.01667,0.06667 -0.05,0.1c0,0.2 -0.01667,0.38333 -0.05,0.55c-0.03333,0.16667 -0.06667,0.35 -0.1,0.55c0,0.06667 0,0.15 0,0.25c0,0.1 0,0.2 0,0.3c0.03333,0.06667 0.06667,0.15 0.1,0.25c0.03333,0.1 0.05,0.18333 0.05,0.25c0.03333,0.1 0.06667,0.2 0.1,0.3c0.03333,0.06667 0.06667,0.15 0.1,0.25c0.43333,0.56667 0.91667,1.1 1.45,1.6c0.7,0.73333 1.4,1.45 2.1,2.15c0.06667,0.1 0.13333,0.18333 0.2,0.25c0.03333,0.1 0.06667,0.18333 0.1,0.25c0.06667,0.1 0.11667,0.2 0.15,0.3c0.8,1.03333 1.65,2.03333 2.55,3c1.73333,1.96667 3.48333,3.91667 5.25,5.85c0.06667,0.06667 0.11667,0.15 0.15,0.25c0.1,0.33333 0.26667,0.61667 0.5,0.85c0.13333,0.16667 0.23333,0.33333 0.3,0.5c-0.03333,0.1 -0.08333,0.18333 -0.15,0.25c-0.06667,0.1 -0.11667,0.2 -0.15,0.3c-0.06667,0.06667 -0.11667,0.15 -0.15,0.25c-0.03333,0.1 -0.08333,0.18333 -0.15,0.25c-0.63333,0.63333 -1.21667,1.3 -1.75,2c-0.56667,0.73333 -1.2,1.41667 -1.9,2.05c-1.5,-0.9 -2.83333,-2.1 -4,-3.6c-2.63333,-3.46667 -5.41667,-6.81667 -8.35,-10.05c-0.36667,-0.26667 -0.73333,-0.55 -1.1,-0.85c-0.2,-0.16667 -0.4,-0.33333 -0.6,-0.5c-0.2,-0.53333 -0.45,-1.03333 -0.75,-1.5c-1.73333,-2.66667 -3.98333,-3.6 -6.75,-2.8c-0.16667,0.16667 -0.33333,0.35 -0.5,0.55c-0.2,0.23333 -0.35,0.5 -0.45,0.8c-0.06667,0.16667 -0.13333,0.35 -0.2,0.55c0,0.23333 0.01667,0.48333 0.05,0.75c0.03333,0.26667 0.08333,0.55 0.15,0.85c0.06667,0.16667 0.11667,0.33333 0.15,0.5c0,1.63333 -0.03333,3.25 -0.1,4.85c-0.06667,1.66667 0.08333,3.26667 0.45,4.8c0,1.33333 0,2.68333 0,4.05c0,1.13333 0,2.28333 0,3.45c-0.3,0.1 -0.61667,0.18333 -0.95,0.25c-0.13333,0.03333 -0.25,0.08333 -0.35,0.15c-0.06667,0 -0.13333,0.01667 -0.2,0.05c-1.76667,-0.03333 -3.55,-0.06667 -5.35,-0.1c-0.03333,-0.13333 -0.05,-0.28333 -0.05,-0.45c-0.03333,-0.8 -0.05,-1.6 -0.05,-2.4c0,-0.53333 0,-1.06667 0,-1.6c-0.03333,-0.1 -0.06667,-0.18333 -0.1,-0.25c-0.03333,-0.1 -0.05,-0.2 -0.05,-0.3c-0.03333,-0.06667 -0.06667,-0.15 -0.1,-0.25c-0.03333,-0.1 -0.06667,-0.18333 -0.1,-0.25c0,-0.2 0,-0.38333 0,-0.55c0,-0.63333 -0.01667,-1.25 -0.05,-1.85c-0.03333,-0.4 -0.13333,-0.76667 -0.3,-1.1c0.13333,-2.46667 0.13333,-4.88333 0,-7.25c-0.16667,-2.7 -0.43333,-5.36667 -0.8,-8c-0.06667,-2.6 -0.11667,-5.2 -0.15,-7.8c0,-3.03333 -0.01667,-6.06667 -0.05,-9.1c0.03333,-0.06667 0.06667,-0.15 0.1,-0.25c0.03333,-0.1 0.06667,-0.2 0.1,-0.3c0.03333,-0.06667 0.06667,-0.15 0.1,-0.25c0,-1.9 -0.03333,-3.76667 -0.1,-5.6c-0.06667,-1.7 -0.18333,-3.41667 -0.35,-5.15c8.16667,-0.83333 16.36667,-0.93333 24.6,-0.3c0.16667,0.06667 0.31667,0.13333 0.45,0.2c0.13333,0.06667 0.26667,0.13333 0.4,0.2c0.13333,0.1 0.26667,0.2 0.4,0.3c0.03333,0.1 0.08333,0.18333 0.15,0.25c0.03333,0.1 0.08333,0.2 0.15,0.3M632.20811,352.78784c-2.36667,-1.53333 -5.01667,-1.95 -7.95,-1.25c-0.2,0.06667 -0.48333,0.1 -0.85,0.1c-1,0.06667 -1.91667,0.31667 -2.75,0.75c-0.1,0.06667 -0.2,0.13333 -0.3,0.2c-0.1,0.1 -0.18333,0.2 -0.25,0.3c-0.06667,0.06667 -0.13333,0.15 -0.2,0.25c-0.06667,0.1 -0.11667,0.2 -0.15,0.3c-0.06667,0.06667 -0.1,0.15 -0.1,0.25c-0.03333,0.1 -0.06667,0.18333 -0.1,0.25c0,0.1 0,0.2 0,0.3c0,0.06667 0,0.15 0,0.25c0,0.1 0,0.18333 0,0.25c0,0.1 0,0.2 0,0.3c0.03333,0.06667 0.06667,0.15 0.1,0.25c0,0.1 0.01667,0.18333 0.05,0.25c0.03333,0.1 0.06667,0.2 0.1,0.3c0.03333,0.06667 0.06667,0.15 0.1,0.25c0.1,0.1 0.18333,0.2 0.25,0.3c0.06667,0.06667 0.13333,0.15 0.2,0.25c0.06667,0.06667 0.11667,0.15 0.15,0.25c0.06667,0.16667 0.13333,0.35 0.2,0.55c0.03333,0.1 0.06667,0.18333 0.1,0.25c-0.06667,0.36667 -0.11667,0.73333 -0.15,1.1c-0.06667,0.86667 -0.15,1.75 -0.25,2.65c-0.03333,0.6 0.05,1.15 0.25,1.65c0.03333,0.06667 0.05,0.15 0.05,0.25c0,0.06667 0,0.15 0,0.25c0,0.1 0,0.18333 0,0.25c0.06667,0.2 0.13333,0.38333 0.2,0.55c0.1,0.16667 0.21667,0.33333 0.35,0.5c0.16667,0.2 0.35,0.38333 0.55,0.55c0.1,0.1 0.21667,0.2 0.35,0.3c4.76667,1.6 8.76667,0.66667 12,-2.8c0.53333,-0.6 0.93333,-1.28333 1.2,-2.05c0,-0.06667 0,-0.15 0,-0.25c0,-0.43333 0,-0.88333 0,-1.35c0,-0.26667 0,-0.53333 0,-0.8c0,-0.26667 0,-0.53333 0,-0.8c0,-0.06667 0,-0.15 0,-0.25c-0.43333,-2 -1.48333,-3.55 -3.15,-4.65z" fill="#ffffff"/></g></g></svg>