<svg version="1.1" xmlns="http://www.w3.org/2000/svg" xmlns:xlink="http://www.w3.org/1999/xlink" width="30.18929" height="73.2256" viewBox="0,0,30.18929,73.2256"><g transform="translate(-624.49866,-333.73251)"><g data-paper-data="{&quot;isPaintingLayer&quot;:true}" fill-rule="nonzero" stroke="none" stroke-width="1" stroke-linecap="round" stroke-linejoin="miter" stroke-miterlimit="4" stroke-dasharray="" stroke-dashoffset="0" style="mix-blend-mode: normal"><path d="M653.96,345.41051c-1.06667,2.33333 -2.83333,3.91667 -5.3,4.75c-1.86667,0.56667 -3.78333,1.13333 -5.75,1.7c2.6,12.26667 2.26667,24.41667 -1,36.45c4.26667,-0.23333 7.93333,1 11,3.7c3.13333,5.9 1.68333,10.28333 -4.35,13.15c-1.23333,0.6 -2.51667,1.01667 -3.85,1.25c-5.86667,1.23333 -11.15,0.38333 -15.85,-2.55c-1.03333,-0.7 -1.78333,-1.68333 -2.25,-2.95c-2.13333,-6.03333 -2.65,-12.18333 -1.55,-18.45c1.1,-6.1 1.28333,-12.2 0.55,-18.3c-0.8,-6.56667 -0.58333,-13.03333 0.65,-19.4c1.4,-7.33333 5.9,-10.96667 13.5,-10.9c4.56667,-0.53333 8.61667,0.6 12.15,3.4c2.8,2.23333 3.48333,4.95 2.05,8.15M648.71,343.31051c-0.43333,-2.66667 -2.53333,-3.8 -6.3,-3.4c-2.56667,-0.16667 -5.03333,0.31667 -7.4,1.45c-1.5,0.66667 -2.45,1.85 -2.85,3.55c-1.36667,5.93333 -1.6,12 -0.7,18.2c1.03333,7.13333 0.83333,14.21667 -0.6,21.25c-1,4.96667 -0.45,9.66667 1.65,14.1c0.3,0.66667 0.71667,1.3 1.25,1.9l4.6,0.05c3.23333,0.13333 6.26667,-0.38333 9.1,-1.55c0.16667,-0.03333 0.33333,-0.08333 0.5,-0.15c0.8,-2.56667 -0.36667,-3.81667 -3.5,-3.75c-3.76667,0.06667 -6.51667,-1.36667 -8.25,-4.3c-0.56667,-0.96667 -0.7,-1.98333 -0.4,-3.05c2.60039,-8.62422 3.33372,-17.40755 2.2,-26.35c-1.16094,-4.40195 -1.56094,-8.75195 -1.2,-13.05c0.03333,-0.56667 0.4,-0.96667 1.1,-1.2c3.7,-0.86667 7.3,-2.1 10.8,-3.7z" fill="#000000"/><path d="M638.01,361.26051c1.13372,8.94245 0.40039,17.72578 -2.2,26.35c-0.3,1.06667 -0.16667,2.08333 0.4,3.05c1.73333,2.93333 4.48333,4.36667 8.25,4.3c3.13333,-0.06667 4.3,1.18333 3.5,3.75c-0.16667,0.06667 -0.33333,0.11667 -0.5,0.15c-2.83333,1.16667 -5.86667,1.68333 -9.1,1.55l-4.6,-0.05c-0.53333,-0.6 -0.95,-1.23333 -1.25,-1.9c-2.1,-4.43333 -2.65,-9.13333 -1.65,-14.1c1.43333,-7.03333 1.63333,-14.11667 0.6,-21.25c-0.9,-6.2 -0.66667,-12.26667 0.7,-18.2c0.4,-1.7 1.35,-2.88333 2.85,-3.55c2.36667,-1.13333 4.83333,-1.61667 7.4,-1.45c3.76667,-0.4 5.86667,0.73333 6.3,3.4c-3.5,1.6 -7.1,2.83333 -10.8,3.7c-0.7,0.23333 -1.06667,0.63333 -1.1,1.2c-0.36094,4.29805 0.03906,8.64805 1.2,13.05z" fill="#ffffff"/></g></g></svg>