<svg version="1.1" xmlns="http://www.w3.org/2000/svg" xmlns:xlink="http://www.w3.org/1999/xlink" width="43.29" height="68.65003" viewBox="0,0,43.29,68.65003"><g transform="translate(-608.16811,-337.77968)"><g data-paper-data="{&quot;isPaintingLayer&quot;:true}" fill-rule="nonzero" stroke="none" stroke-width="1" stroke-linecap="butt" stroke-linejoin="miter" stroke-miterlimit="10" stroke-dasharray="" stroke-dashoffset="0" style="mix-blend-mode: normal"><path d="M650.30811,353.48784c-2.36667,2.33333 -4.58333,4.83333 -6.65,7.5c-0.43333,0.56667 -0.86667,1.16667 -1.3,1.8c-1.93333,2.83333 -4.06667,5.53333 -6.4,8.1c0.63333,0.86667 1.26667,1.75 1.9,2.65c0.63333,0.96667 1.28333,1.93333 1.95,2.9c1,1.46667 2.1,2.85 3.3,4.15c0.93333,1.06667 1.86667,2.16667 2.8,3.3c0.93333,1.06667 1.83333,2.11667 2.7,3.15c1.3,1.56667 1.98333,3.35 2.05,5.35c0.03333,0.63333 -0.06667,1.23333 -0.3,1.8c-0.5,1.3 -1.2,2.46667 -2.1,3.5c-1.2,1.3 -2.23333,2.65 -3.1,4.05c-0.96667,1.53333 -2.2,2.8 -3.7,3.8c-0.36667,0.26667 -0.76667,0.46667 -1.2,0.6c-0.8,0.23333 -1.5,0.08333 -2.1,-0.45c-0.96667,-0.86667 -1.88333,-1.78333 -2.75,-2.75c-0.63333,-0.7 -1.18333,-1.45 -1.65,-2.25c-1.93333,-3.36667 -4.18333,-6.55 -6.75,-9.55c-0.13333,1.4 -0.08333,2.83333 0.15,4.3c0.36667,2.56667 0.38333,5.05 0.05,7.45c-0.1,0.7 -0.31667,1.25 -0.65,1.65c-2.5,1.23333 -5.1,1.85 -7.8,1.85c-3.03333,0.2 -5.88333,-0.31667 -8.55,-1.55c-0.5,-0.2 -0.75,-0.53333 -0.75,-1c-0.2,-5.9 -0.41667,-11.8 -0.65,-17.7c-0.03333,-1.2 -0.06667,-2.38333 -0.1,-3.55c-0.1,-3.46667 -0.25,-6.9 -0.45,-10.3c-0.1,-1.93333 -0.11667,-3.83333 -0.05,-5.7c0.1,-1.96667 0.2,-3.93333 0.3,-5.9c0.3,-5.26667 0.55,-10.5 0.75,-15.7c0,-0.26667 -0.05,-0.5 -0.15,-0.7c-0.63333,-1.26667 -0.5,-2.46667 0.4,-3.6c1.06667,-0.33333 2.13333,-0.65 3.2,-0.95c2.13333,-0.46667 4.25,-0.98333 6.35,-1.55c2.13333,-0.66667 4.16667,-0.51667 6.1,0.45c0.13333,0.26667 0.26667,0.56667 0.4,0.9c0.3,0.76667 0.46667,1.55 0.5,2.35c0.1,3.73333 0.41667,7.45 0.95,11.15c0.63333,-0.6 1.13333,-1.26667 1.5,-2c0.06667,-0.16667 0.15,-0.31667 0.25,-0.45c2.46667,-2.86667 4.35,-6.1 5.65,-9.7c2.26667,-1.73333 4.5,-1.76667 6.7,-0.1c2.3,1.8 4.46667,3.66667 6.5,5.6c0.16667,0.13333 0.35,0.26667 0.55,0.4c1.73333,1.03333 2.83333,2.48333 3.3,4.35c-0.1,0.86667 -0.48333,1.65 -1.15,2.35M636.95811,349.33784c-0.5,0.7 -1.03333,1.38333 -1.6,2.05c-0.6,0.76667 -1.1,1.6 -1.5,2.5c-0.2,0.36667 -0.43333,0.73333 -0.7,1.1c-1.96667,2.76667 -3.63333,5.73333 -5,8.9c-0.16667,0.33333 -0.38333,0.63333 -0.65,0.9c-1.06667,1.03333 -2.3,1.33333 -3.7,0.9c-1.16667,-0.46667 -1.78333,-1.3 -1.85,-2.5c-0.16667,-3.13333 -0.48333,-6.26667 -0.95,-9.4c-0.43333,-3.1 -0.6,-6.18333 -0.5,-9.25l-7.15,0.25c0.13333,5.33333 0.25,10.66667 0.35,16c0,0.16667 0,0.35 0,0.55c-0.2,3.03333 -0.18333,6.06667 0.05,9.1c0.03333,0.26667 0.05,0.53333 0.05,0.8c0.1,4.26667 0.21667,8.55 0.35,12.85c0,0.33333 0.01667,0.7 0.05,1.1c0.1,2.03333 0.3,4.06667 0.6,6.1c0.43333,3.03333 0.43333,6.05 0,9.05l6.85,-0.35l-0.2,-19.3l2.7,-1.7c1.33333,0.26667 2.36667,0.9 3.1,1.9c1.16667,1.53333 2.31667,3.1 3.45,4.7c0.7,1 1.41667,1.98333 2.15,2.95c0.36667,0.53333 0.75,1.08333 1.15,1.65c1.03333,1.5 2.11667,3 3.25,4.5c0.4,0.5 0.71667,1.05 0.95,1.65c0.4,1 1.01667,1.56667 1.85,1.7l4.35,-5.8c-0.33333,-0.46667 -0.63333,-0.95 -0.9,-1.45c-0.73333,-1.26667 -1.65,-2.36667 -2.75,-3.3c-1.1,-0.9 -2.06667,-1.9 -2.9,-3c-2.26667,-3.03333 -4.43333,-6.15 -6.5,-9.35c-0.36667,-0.56667 -0.71667,-1.11667 -1.05,-1.65c-0.4,-0.56667 -0.55,-1.11667 -0.45,-1.65c0.13333,-0.7 0.35,-1.43333 0.65,-2.2c-0.03333,-0.53333 -0.01667,-1.06667 0.05,-1.6c0.06667,-0.53333 0.26667,-0.98333 0.6,-1.35c1,-1.16667 1.95,-2.33333 2.85,-3.5c0.56667,-0.76667 1.2,-1.58333 1.9,-2.45c2.56667,-3.13333 5.1,-6.23333 7.6,-9.3l-5.15,-4.55l-0.25,0.5c-0.3,0.7 -0.68333,1.35 -1.15,1.95z" fill="#000000"/><path d="M643.50811,351.43784c-2.5,3.06667 -5.03333,6.16667 -7.6,9.3c-0.7,0.86667 -1.33333,1.68333 -1.9,2.45c-0.9,1.16667 -1.85,2.33333 -2.85,3.5c-0.33333,0.36667 -0.53333,0.81667 -0.6,1.35c-0.06667,0.53333 -0.08333,1.06667 -0.05,1.6c-0.3,0.76667 -0.51667,1.5 -0.65,2.2c-0.1,0.53333 0.05,1.08333 0.45,1.65c0.33333,0.53333 0.68333,1.08333 1.05,1.65c2.06667,3.2 4.23333,6.31667 6.5,9.35c0.83333,1.1 1.8,2.1 2.9,3c1.1,0.93333 2.01667,2.03333 2.75,3.3c0.26667,0.5 0.56667,0.98333 0.9,1.45l-4.35,5.8c-0.83333,-0.13333 -1.45,-0.7 -1.85,-1.7c-0.23333,-0.6 -0.55,-1.15 -0.95,-1.65c-1.13333,-1.5 -2.21667,-3 -3.25,-4.5c-0.4,-0.56667 -0.78333,-1.11667 -1.15,-1.65c-0.73333,-0.96667 -1.45,-1.95 -2.15,-2.95c-1.13333,-1.6 -2.28333,-3.16667 -3.45,-4.7c-0.73333,-1 -1.76667,-1.63333 -3.1,-1.9l-2.7,1.7l0.2,19.3l-6.85,0.35c0.43333,-3 0.43333,-6.01667 0,-9.05c-0.3,-2.03333 -0.5,-4.06667 -0.6,-6.1c-0.03333,-0.4 -0.05,-0.76667 -0.05,-1.1c-0.13333,-4.3 -0.25,-8.58333 -0.35,-12.85c0,-0.26667 -0.01667,-0.53333 -0.05,-0.8c-0.23333,-3.03333 -0.25,-6.06667 -0.05,-9.1c0,-0.2 0,-0.38333 0,-0.55c-0.1,-5.33333 -0.21667,-10.66667 -0.35,-16l7.15,-0.25c-0.1,3.06667 0.06667,6.15 0.5,9.25c0.46667,3.13333 0.78333,6.26667 0.95,9.4c0.06667,1.2 0.68333,2.03333 1.85,2.5c1.4,0.43333 2.63333,0.13333 3.7,-0.9c0.26667,-0.26667 0.48333,-0.56667 0.65,-0.9c1.36667,-3.16667 3.03333,-6.13333 5,-8.9c0.26667,-0.36667 0.5,-0.73333 0.7,-1.1c0.4,-0.9 0.9,-1.73333 1.5,-2.5c0.56667,-0.66667 1.1,-1.35 1.6,-2.05c0.46667,-0.6 0.85,-1.25 1.15,-1.95l0.25,-0.5z" fill="#ffffff"/></g></g></svg>