<svg version="1.1" xmlns="http://www.w3.org/2000/svg" xmlns:xlink="http://www.w3.org/1999/xlink" width="53.18519" height="69.52966" viewBox="0,0,53.18519,69.52966"><g transform="translate(-602.07505,-334.86484)"><g data-paper-data="{&quot;isPaintingLayer&quot;:true}" fill-rule="nonzero" stroke="none" stroke-width="1" stroke-linecap="round" stroke-linejoin="miter" stroke-miterlimit="4" stroke-dasharray="" stroke-dashoffset="0" style="mix-blend-mode: normal"><path d="M645.80399,339.057c0.76667,0.76667 1.46667,1.6 2.1,2.5c0.6,0.86667 1.33333,1.58333 2.2,2.15c0.2,0.1 0.36667,0.25 0.5,0.45c0.23333,0.43333 0.51667,0.8 0.85,1.1c0.53333,0.43333 0.83333,0.95 0.9,1.55c0.06667,0.9 -0.21667,1.76667 -0.85,2.6c-0.86667,1 -1.71667,1.9 -2.55,2.7c-0.63333,0.63333 -1.15,1.33333 -1.55,2.1c-0.46667,0.86667 -1.15,1.63333 -2.05,2.3c-0.76667,0.53333 -1.61667,0.75 -2.55,0.65c-1.53333,-0.36667 -3.08333,-0.86667 -4.65,-1.5c-3.06667,-1.33333 -6.23333,-2.21667 -9.5,-2.65c-2.1,0.1 -3.95,0.88333 -5.55,2.35c-1.36667,1.26667 -2.4,2.75 -3.1,4.45c-0.8,1.96667 -1.33333,4.03333 -1.6,6.2c-0.06667,0.63333 -0.13333,1.26667 -0.2,1.9c-0.16667,1.9 -0.08333,3.85 0.25,5.85c0.33333,2.16667 1.03333,4.28333 2.1,6.35c0.73333,1.46667 1.63333,2.8 2.7,4c1.03333,1.2 2.3,1.93333 3.8,2.2c2.76667,0.53333 5.3,-0.03333 7.6,-1.7c0.86667,-0.63333 1.46667,-1.43333 1.8,-2.4c0.1,-0.33333 0.26667,-0.71667 0.5,-1.15c0.33333,-0.73333 0.55,-1.46667 0.65,-2.2c-2.8,0.73333 -5.55,0.55 -8.25,-0.55c-0.43333,-0.23333 -0.75,-0.58333 -0.95,-1.05c-0.46667,-1.23333 -0.65,-2.55 -0.55,-3.95c0.1,-1.13333 0.25,-2.23333 0.45,-3.3c0.1,-0.66667 0.1,-1.35 0,-2.05c-0.1,-0.7 -0.03333,-1.41667 0.2,-2.15c0.13333,-0.5 0.18333,-1.03333 0.15,-1.6c1.26667,-2.6 3.35,-3.86667 6.25,-3.8c2.46667,0.3 4.95,0.61667 7.45,0.95c1,0.1 2,0.21667 3,0.35c2,0.23333 4.01667,0.46667 6.05,0.7c0.56667,0.16667 1.11667,0.38333 1.65,0.65c0.86667,0.43333 1.33333,1.11667 1.4,2.05c0,0.16667 0.03333,0.35 0.1,0.55c0.16667,0.5 0.26667,0.95 0.3,1.35c0.2,2.73333 0.33333,5.48333 0.4,8.25c0.03333,2.56667 -0.06667,5.06667 -0.3,7.5c-0.23333,2.13333 -0.8,4.2 -1.7,6.2c-1.83333,4.16667 -4.46667,7.63333 -7.9,10.4c-0.16667,0.13333 -0.33333,0.26667 -0.5,0.4c-3.46667,2.73333 -7.36667,4.26667 -11.7,4.6c-2.2,0.1 -4.4,0 -6.6,-0.3c-1.16667,-0.3 -2.33333,-0.58333 -3.5,-0.85c-4.06667,-1.06667 -7.7,-3 -10.9,-5.8c-1.06667,-0.93333 -2.06667,-1.93333 -3,-3c-0.26667,-0.33333 -0.51667,-0.66667 -0.75,-1c-0.76667,-1 -1.5,-2.05 -2.2,-3.15c-1.26667,-1.96667 -2.23333,-4.1 -2.9,-6.4c-0.03333,-0.06667 -0.05,-0.11667 -0.05,-0.15c-0.36667,-1.33333 -0.63333,-2.71667 -0.8,-4.15c-0.4,-3.26667 -0.48333,-6.56667 -0.25,-9.9c0.2,-2.63333 0.55,-5.28333 1.05,-7.95c0.16667,-0.86667 0.35,-1.75 0.55,-2.65c0.26667,-1.2 0.63333,-2.41667 1.1,-3.65c1.06667,-2.7 2.35,-5.3 3.85,-7.8c0.16667,-0.33333 0.36667,-0.63333 0.6,-0.9c0.66667,-0.9 1.28333,-1.83333 1.85,-2.8c0.93333,-1.53333 2.13333,-2.85 3.6,-3.95c2.23333,-1.66667 4.68333,-2.91667 7.35,-3.75c3.96667,-1.23333 8.03333,-1.61667 12.2,-1.15c4.03333,0.16667 7.7,1.4 11,3.7c0.16667,0.1 0.31667,0.2 0.45,0.3M642.20399,350.557l3.4,-4v-1.65c-0.06667,-0.06667 -0.15,-0.11667 -0.25,-0.15c-0.66667,-0.43333 -1.33333,-0.85 -2,-1.25c-0.76667,-0.43333 -1.56667,-0.78333 -2.4,-1.05c-4.2,-1.3 -8.53333,-1.81667 -13,-1.55c-2.73333,0.43333 -5.38333,1.3 -7.95,2.6c-1.33333,0.73333 -2.38333,1.7 -3.15,2.9c-0.23333,0.33333 -0.53333,0.65 -0.9,0.95c-0.16667,0.2 -0.31667,0.41667 -0.45,0.65c-2.6,3.7 -4.55,7.7 -5.85,12c-0.6,2.06667 -1,4.2 -1.2,6.4c-0.1,1.2 -0.3,2.36667 -0.6,3.5c0,1.33333 -0.03333,2.68333 -0.1,4.05c-0.06667,1.66667 0.06667,3.35 0.4,5.05c0.8,4.16667 2.45,7.85 4.95,11.05c3.4,4.33333 7.86667,7 13.4,8c4.1,0.66667 8,0.13333 11.7,-1.6c1.43333,-0.63333 2.76667,-1.48333 4,-2.55c1.2,-1.03333 2.25,-2.16667 3.15,-3.4c1.56667,-2.13333 2.65,-4.53333 3.25,-7.2c0.2,-0.76667 0.35,-1.48333 0.45,-2.15c0.03333,-0.16667 0.05,-0.33333 0.05,-0.5c0.06667,-4 -0.01667,-8 -0.25,-12c-1.16667,-0.33333 -2.33333,-0.61667 -3.5,-0.85c-3.53333,-0.66667 -7.1,-0.73333 -10.7,-0.2l-0.45,5c1.36667,-0.13333 2.73333,-0.31667 4.1,-0.55c1.03333,-0.3 2.08333,-0.18333 3.15,0.35c1.43333,0.7 2.25,1.8 2.45,3.3c0.5,4.06667 -0.46667,7.78333 -2.9,11.15c-2.76667,3.8 -6.48333,5.86667 -11.15,6.2c-1.83333,0.1 -3.56667,-0.13333 -5.2,-0.7c-1.1,-0.4 -2.13333,-0.88333 -3.1,-1.45c-1.03333,-0.66667 -1.93333,-1.46667 -2.7,-2.4c-2.86667,-3.56667 -4.9,-7.58333 -6.1,-12.05c-0.06667,-0.23333 -0.11667,-0.45 -0.15,-0.65c-0.76667,-4.96667 -0.58333,-9.85 0.55,-14.65c0.43333,-1.76667 1.05,-3.43333 1.85,-5c1.83333,-3.63333 4.58333,-6.21667 8.25,-7.75c3.63333,-1.4 7.36667,-1.58333 11.2,-0.55c1.36667,0.43333 2.7,0.96667 4,1.6c1.23333,0.56667 2.48333,0.93333 3.75,1.1z" fill="#000000"/><path d="M623.25399,348.407c-3.66667,1.53333 -6.41667,4.11667 -8.25,7.75c-0.8,1.56667 -1.41667,3.23333 -1.85,5c-1.13333,4.8 -1.31667,9.68333 -0.55,14.65c0.03333,0.2 0.08333,0.41667 0.15,0.65c1.2,4.46667 3.23333,8.48333 6.1,12.05c0.76667,0.93333 1.66667,1.73333 2.7,2.4c0.96667,0.56667 2,1.05 3.1,1.45c1.63333,0.56667 3.36667,0.8 5.2,0.7c4.66667,-0.33333 8.38333,-2.4 11.15,-6.2c2.43333,-3.36667 3.4,-7.08333 2.9,-11.15c-0.2,-1.5 -1.01667,-2.6 -2.45,-3.3c-1.06667,-0.53333 -2.11667,-0.65 -3.15,-0.35c-1.36667,0.23333 -2.73333,0.41667 -4.1,0.55l0.45,-5c3.6,-0.53333 7.16667,-0.46667 10.7,0.2c1.16667,0.23333 2.33333,0.51667 3.5,0.85c0.23333,4 0.31667,8 0.25,12c0,0.16667 -0.01667,0.33333 -0.05,0.5c-0.1,0.66667 -0.25,1.38333 -0.45,2.15c-0.6,2.66667 -1.68333,5.06667 -3.25,7.2c-0.9,1.23333 -1.95,2.36667 -3.15,3.4c-1.23333,1.06667 -2.56667,1.91667 -4,2.55c-3.7,1.73333 -7.6,2.26667 -11.7,1.6c-5.53333,-1 -10,-3.66667 -13.4,-8c-2.5,-3.2 -4.15,-6.88333 -4.95,-11.05c-0.33333,-1.7 -0.46667,-3.38333 -0.4,-5.05c0.06667,-1.36667 0.1,-2.71667 0.1,-4.05c0.3,-1.13333 0.5,-2.3 0.6,-3.5c0.2,-2.2 0.6,-4.33333 1.2,-6.4c1.3,-4.3 3.25,-8.3 5.85,-12c0.13333,-0.23333 0.28333,-0.45 0.45,-0.65c0.36667,-0.3 0.66667,-0.61667 0.9,-0.95c0.76667,-1.2 1.81667,-2.16667 3.15,-2.9c2.56667,-1.3 5.21667,-2.16667 7.95,-2.6c4.46667,-0.26667 8.8,0.25 13,1.55c0.83333,0.26667 1.63333,0.61667 2.4,1.05c0.66667,0.4 1.33333,0.81667 2,1.25c0.1,0.03333 0.18333,0.08333 0.25,0.15v1.65l-3.4,4c-1.26667,-0.16667 -2.51667,-0.53333 -3.75,-1.1c-1.3,-0.63333 -2.63333,-1.16667 -4,-1.6c-3.83333,-1.03333 -7.56667,-0.85 -11.2,0.55z" fill="#ffffff"/></g></g></svg>