<svg version="1.1" xmlns="http://www.w3.org/2000/svg" xmlns:xlink="http://www.w3.org/1999/xlink" width="17.2" height="17.2" viewBox="0,0,17.2,17.2"><g transform="translate(-631.4,-380.92252)"><g data-paper-data="{&quot;isPaintingLayer&quot;:true}" fill-rule="nonzero" stroke="none" stroke-width="1" stroke-linecap="round" stroke-linejoin="miter" stroke-miterlimit="4" stroke-dasharray="" stroke-dashoffset="0" style="mix-blend-mode: normal"><path d="M646.15,395.62252c-1.7,1.66667 -3.75,2.5 -6.15,2.5c-2.4,0 -4.41667,-0.83333 -6.05,-2.5c-1.7,-1.7 -2.55,-3.73333 -2.55,-6.1c0,-2.4 0.85,-4.43333 2.55,-6.1c1.63333,-1.66667 3.65,-2.5 6.05,-2.5c2.4,0 4.45,0.83333 6.15,2.5c1.63333,1.66667 2.45,3.7 2.45,6.1c0,2.36667 -0.81667,4.4 -2.45,6.1z" fill="#000000"/><path d="M637.05,386.62252c0.8,-0.8 1.78333,-1.2 2.95,-1.2c1.13333,0 2.08333,0.4 2.85,1.2c0.83333,0.8 1.25,1.76667 1.25,2.9c0,1.13333 -0.41667,2.1 -1.25,2.9c-0.76667,0.8 -1.71667,1.2 -2.85,1.2c-1.16667,0 -2.15,-0.4 -2.95,-1.2c-0.76667,-0.8 -1.15,-1.76667 -1.15,-2.9c0,-1.13333 0.38333,-2.1 1.15,-2.9z" fill="#ffffff"/></g></g></svg>