<svg version="1.1" xmlns="http://www.w3.org/2000/svg" xmlns:xlink="http://www.w3.org/1999/xlink" width="53.03651" height="69.346" viewBox="0,0,53.03651,69.346"><g transform="translate(-608.13588,-338.12951)"><g data-paper-data="{&quot;isPaintingLayer&quot;:true}" fill-rule="nonzero" stroke="none" stroke-width="1" stroke-linecap="butt" stroke-linejoin="miter" stroke-miterlimit="10" stroke-dasharray="" stroke-dashoffset="0" style="mix-blend-mode: normal"><path d="M660.80811,349.33784c-0.03333,1.16667 0.05,2.31667 0.25,3.45c0.13333,0.8 0.15,1.61667 0.05,2.45c-0.03333,0.33333 -0.08333,0.68333 -0.15,1.05c-0.06667,0.26667 -0.15,0.55 -0.25,0.85c-0.2,0.46667 -0.58333,0.85 -1.15,1.15c-0.3,0.1 -0.6,0.21667 -0.9,0.35c-4.16667,1.2 -8.36667,1.5 -12.6,0.9c0.06667,0.96667 0.1,1.95 0.1,2.95c0,2.93333 -0.1,5.86667 -0.3,8.8c-0.03333,0.53333 -0.05,1.06667 -0.05,1.6c0,2.1 -0.08333,4.16667 -0.25,6.2c-0.13333,2 -0.28333,3.96667 -0.45,5.9c-0.3,3.3 -0.88333,6.55 -1.75,9.75c-1.1,4.03333 -3.35,7.23333 -6.75,9.6c-1.26667,0.93333 -2.61667,1.66667 -4.05,2.2c-3.96667,1.23333 -8,1.25 -12.1,0.05c-3.1,-0.8 -5.6,-2.41667 -7.5,-4.85c-2.03333,-2.6 -3.26667,-5.4 -3.7,-8.4c-0.03333,-0.3 -0.11667,-0.56667 -0.25,-0.8c-0.2,-0.26667 -0.28333,-0.61667 -0.25,-1.05c0.06667,-0.86667 0.05,-1.76667 -0.05,-2.7c-0.3,-2.5 -0.48333,-5 -0.55,-7.5c-0.06667,-2.73333 0.01667,-5.48333 0.25,-8.25c0.06667,-0.63333 0.28333,-1.13333 0.65,-1.5c0.23333,-0.23333 0.51667,-0.4 0.85,-0.5c1.1,-0.33333 2.23333,-0.6 3.4,-0.8c1.3,-0.33333 2.6,-0.66667 3.9,-1c2.36667,-0.46667 4.53333,-0.05 6.5,1.25c0.46667,2.3 0.68333,4.63333 0.65,7c-0.03333,0.8 0.06667,1.6 0.3,2.4c0.1,0.33333 0.15,0.68333 0.15,1.05c0.03333,0.53333 0.08333,1.06667 0.15,1.6c0.03333,0.26667 0.1,0.53333 0.2,0.8c0.03333,0.16667 0.05,0.35 0.05,0.55c0.06667,0.9 0.35,1.65 0.85,2.25c0.06667,-0.03333 0.13333,-0.05 0.2,-0.05c0.26667,-0.23333 0.46667,-0.48333 0.6,-0.75c0.56667,-1.3 0.98333,-2.65 1.25,-4.05c0.2,-0.93333 0.4,-1.83333 0.6,-2.7c0.1,-0.43333 0.15,-0.86667 0.15,-1.3c0.03333,-0.46667 0.05,-0.91667 0.05,-1.35c-0.03333,-1.6 -0.01667,-3.2 0.05,-4.8c0.03333,-1 0.08333,-2 0.15,-3c0.2,-3.6 0.28333,-7.21667 0.25,-10.85c-0.66667,-0.1 -1.33333,-0.18333 -2,-0.25c-1.4,-0.03333 -2.76667,0.06667 -4.1,0.3c-2.7,0.36667 -5.28333,0.26667 -7.75,-0.3c-0.53333,-0.4 -0.85,-0.93333 -0.95,-1.6c-0.1,-0.86667 -0.15,-1.68333 -0.15,-2.45c0,-0.76667 0.08333,-1.48333 0.25,-2.15c0.53333,-1.93333 1.01667,-3.88333 1.45,-5.85c0.1,-0.43333 0.06667,-0.86667 -0.1,-1.3c-0.26667,-0.6 -0.36667,-1.25 -0.3,-1.95c0.16667,-1.8 1.2,-2.86667 3.1,-3.2c3.76667,0.03333 7.55,0.01667 11.35,-0.05c3.36667,-0.23333 6.73333,-0.35 10.1,-0.35c3.5,-0.03333 7.01667,0.03333 10.55,0.2c2.56667,0.3 5.08333,0.81667 7.55,1.55c1.3,0.4 1.86667,1.31667 1.7,2.75c0.53333,2.23333 0.78333,4.46667 0.75,6.7M643.50811,345.53784c-7.8,-0.2 -15.61667,-0.38333 -23.45,-0.55l-0.35,6.4c3.9,-0.23333 7.75,-0.51667 11.55,-0.85c1.6,0.13333 2.75,0.86667 3.45,2.2c0.3,0.56667 0.45,1.16667 0.45,1.8c0,0.16667 0,0.35 0,0.55c0.26667,4.53333 0.43333,9.08333 0.5,13.65c0,0.76667 -0.16667,1.38333 -0.5,1.85c0.03333,2.83333 0,5.66667 -0.1,8.5c-0.03333,0.63333 -0.1,1.28333 -0.2,1.95c-0.36667,2.96667 -1.38333,5.63333 -3.05,8c-0.2,0.3 -0.41667,0.58333 -0.65,0.85c-1.23333,1.46667 -2.7,2.45 -4.4,2.95c-1.4,0.4 -2.63333,0.15 -3.7,-0.75c-0.8,-0.7 -1.45,-1.48333 -1.95,-2.35c-0.66667,-1.2 -1.16667,-2.46667 -1.5,-3.8c-0.23333,-0.96667 -0.4,-1.95 -0.5,-2.95c-0.1,-1.03333 -0.16667,-2.01667 -0.2,-2.95c0,-0.6 -0.08333,-1.2 -0.25,-1.8c-0.2,-0.93333 -0.26667,-1.85 -0.2,-2.75l-4.55,0.9c-0.1,3.26667 0.03333,6.48333 0.4,9.65c0.1,0.86667 0.16667,1.78333 0.2,2.75c0.03333,0.93333 0.2,1.88333 0.5,2.85c0.46667,1.36667 0.96667,2.75 1.5,4.15c0.83333,2.13333 2.33333,3.65 4.5,4.55c2.23333,0.9 4.5,1.21667 6.8,0.95c3.26667,-0.56667 5.88333,-2.16667 7.85,-4.8c0.83333,-1.06667 1.4,-2.26667 1.7,-3.6c1,-4.13333 1.66667,-8.31667 2,-12.55c0.1,-1.46667 0.2,-2.9 0.3,-4.3c0.06667,-1.1 0.13333,-2.16667 0.2,-3.2c0.3,-4.86667 0.41667,-9.7 0.35,-14.5c-0.03333,-1.06667 0,-2.13333 0.1,-3.2c0.03333,-0.33333 0.08333,-0.58333 0.15,-0.75c0.46667,-1.06667 1.26667,-1.63333 2.4,-1.7c3.7,0.5 7.41667,0.66667 11.15,0.5c0.23333,-0.1 0.46667,-0.18333 0.7,-0.25l-0.5,-7.25c-0.06667,-0.2 -0.13333,-0.25 -0.2,-0.15c-3.5,-0.6 -7,-0.6 -10.5,0z" fill="#000000"/><path d="M654.70811,352.93784c-0.23333,0.06667 -0.46667,0.15 -0.7,0.25c-3.73333,0.16667 -7.45,0 -11.15,-0.5c-1.13333,0.06667 -1.93333,0.63333 -2.4,1.7c-0.06667,0.16667 -0.11667,0.41667 -0.15,0.75c-0.1,1.06667 -0.13333,2.13333 -0.1,3.2c0.06667,4.8 -0.05,9.63333 -0.35,14.5c-0.06667,1.03333 -0.13333,2.1 -0.2,3.2c-0.1,1.4 -0.2,2.83333 -0.3,4.3c-0.33333,4.23333 -1,8.41667 -2,12.55c-0.3,1.33333 -0.86667,2.53333 -1.7,3.6c-1.96667,2.63333 -4.58333,4.23333 -7.85,4.8c-2.3,0.26667 -4.56667,-0.05 -6.8,-0.95c-2.16667,-0.9 -3.66667,-2.41667 -4.5,-4.55c-0.53333,-1.4 -1.03333,-2.78333 -1.5,-4.15c-0.3,-0.96667 -0.46667,-1.91667 -0.5,-2.85c-0.03333,-0.96667 -0.1,-1.88333 -0.2,-2.75c-0.36667,-3.16667 -0.5,-6.38333 -0.4,-9.65l4.55,-0.9c-0.06667,0.9 0,1.81667 0.2,2.75c0.16667,0.6 0.25,1.2 0.25,1.8c0.03333,0.93333 0.1,1.91667 0.2,2.95c0.1,1 0.26667,1.98333 0.5,2.95c0.33333,1.33333 0.83333,2.6 1.5,3.8c0.5,0.86667 1.15,1.65 1.95,2.35c1.06667,0.9 2.3,1.15 3.7,0.75c1.7,-0.5 3.16667,-1.48333 4.4,-2.95c0.23333,-0.26667 0.45,-0.55 0.65,-0.85c1.66667,-2.36667 2.68333,-5.03333 3.05,-8c0.1,-0.66667 0.16667,-1.31667 0.2,-1.95c0.1,-2.83333 0.13333,-5.66667 0.1,-8.5c0.33333,-0.46667 0.5,-1.08333 0.5,-1.85c-0.06667,-4.56667 -0.23333,-9.11667 -0.5,-13.65c0,-0.2 0,-0.38333 0,-0.55c0,-0.63333 -0.15,-1.23333 -0.45,-1.8c-0.7,-1.33333 -1.85,-2.06667 -3.45,-2.2c-3.8,0.33333 -7.65,0.61667 -11.55,0.85l0.35,-6.4c7.83333,0.16667 15.65,0.35 23.45,0.55c3.5,-0.6 7,-0.6 10.5,0c0.06667,-0.1 0.13333,-0.05 0.2,0.15z" fill="#ffffff"/></g></g></svg>