<svg version="1.1" xmlns="http://www.w3.org/2000/svg" xmlns:xlink="http://www.w3.org/1999/xlink" width="45.22812" height="69.31548" viewBox="0,0,45.22812,69.31548"><g transform="translate(-608.10811,-337.84856)"><g data-paper-data="{&quot;isPaintingLayer&quot;:true}" fill-rule="nonzero" stroke="none" stroke-width="1" stroke-linecap="butt" stroke-linejoin="miter" stroke-miterlimit="10" stroke-dasharray="" stroke-dashoffset="0" style="mix-blend-mode: normal"><path d="M651.65811,348.23784c0.26667,0.76667 0.51667,1.53333 0.75,2.3c0.23333,0.73333 0.38333,1.48333 0.45,2.25c0.03333,0.93333 0.05,1.88333 0.05,2.85c0,0.06667 -0.01667,0.15 -0.05,0.25c-0.03333,0.06667 -0.06667,0.13333 -0.1,0.2c-0.03333,0.1 -0.06667,0.2 -0.1,0.3c-0.03333,0.06667 -0.05,0.15 -0.05,0.25c0,0.1 0,0.18333 0,0.25c0,0.1 0,0.18333 0,0.25c0,0.06667 0,0.15 0,0.25c0,0.1 0,0.18333 0,0.25c-0.13333,0.33333 -0.26667,0.68333 -0.4,1.05c-0.26667,0.86667 -0.55,1.73333 -0.85,2.6c-0.53333,1.56667 -1.31667,3.01667 -2.35,4.35c-1.3,1.73333 -2.81667,3.25 -4.55,4.55c0.33333,0.36667 0.71667,0.7 1.15,1c0.96667,0.7 1.86667,1.51667 2.7,2.45c1.23333,1.4 2.26667,2.93333 3.1,4.6c0.63333,1.26667 1.13333,2.6 1.5,4c0,0.06667 0,0.15 0,0.25c0,0.1 0,0.16667 0,0.2c0,0.1 0,0.2 0,0.3c0.23333,0.43333 0.36667,0.86667 0.4,1.3c0.1,1.83333 -0.06667,3.61667 -0.5,5.35c-0.93333,3.26667 -2.45,6.26667 -4.55,9c-0.5,0.7 -1.05,1.36667 -1.65,2c-2.26667,2.8 -5.28333,4.5 -9.05,5.1c-4.03333,0.66667 -8.1,1.11667 -12.2,1.35c-4.63333,0.26667 -9.18333,-0.16667 -13.65,-1.3c-0.06667,-0.1 -0.15,-0.2 -0.25,-0.3c-0.23333,-0.26667 -0.48333,-0.51667 -0.75,-0.75c-0.1,-0.1 -0.18333,-0.18333 -0.25,-0.25c-0.2,-0.26667 -0.33333,-0.51667 -0.4,-0.75c-0.03333,-0.1 -0.06667,-0.2 -0.1,-0.3c-0.03333,-0.06667 -0.06667,-0.15 -0.1,-0.25c0,-0.1 0,-0.18333 0,-0.25c0,-0.06667 0,-0.15 0,-0.25c0,-0.06667 0,-0.15 0,-0.25c0,-0.1 0,-0.18333 0,-0.25c-0.03333,-0.1 -0.06667,-0.2 -0.1,-0.3c-0.03333,-0.06667 -0.06667,-0.13333 -0.1,-0.2c0,-0.1 -0.01667,-0.2 -0.05,-0.3c-0.03333,-0.06667 -0.06667,-0.15 -0.1,-0.25c0,-0.1 0,-0.18333 0,-0.25c0,-0.23333 0,-0.48333 0,-0.75c0,-0.1 0,-0.2 0,-0.3c0,-0.56667 0,-1.15 0,-1.75c0,-0.6 0,-1.2 0,-1.8c0,-0.56667 0,-1.16667 0,-1.8c0,-0.1 0,-0.18333 0,-0.25c-0.03333,-0.06667 -0.06667,-0.15 -0.1,-0.25c-0.03333,-0.1 -0.06667,-0.18333 -0.1,-0.25c-0.03333,-0.1 -0.05,-0.2 -0.05,-0.3c-0.03333,-0.06667 -0.05,-0.13333 -0.05,-0.2c0,-0.1 0,-0.18333 0,-0.25c0,-0.3 0,-0.55 0,-0.75c0,-0.1 0,-0.2 0,-0.3c0,-0.26667 0,-0.53333 0,-0.8c0,-0.23333 0,-0.48333 0,-0.75c0,-0.4 0,-0.83333 0,-1.3c0,-0.03333 0,-0.1 0,-0.2c-0.03333,-0.1 -0.06667,-0.18333 -0.1,-0.25c-0.03333,-0.1 -0.06667,-0.2 -0.1,-0.3c-0.03333,-0.06667 -0.06667,-0.15 -0.1,-0.25c0,-0.1 -0.01667,-0.16667 -0.05,-0.2c0,-0.7 -0.01667,-1.38333 -0.05,-2.05c0,-2.16667 0,-4.3 0,-6.4c0.03333,-4.03333 0.11667,-8.05 0.25,-12.05c0.03333,-0.7 0.05,-1.38333 0.05,-2.05c-0.03333,-0.06667 -0.06667,-0.15 -0.1,-0.25c-0.03333,-0.1 -0.06667,-0.2 -0.1,-0.3c0,-0.06667 -0.01667,-0.15 -0.05,-0.25c-0.03333,-0.06667 -0.06667,-0.13333 -0.1,-0.2c0,-0.36667 0.01667,-0.71667 0.05,-1.05c0.06667,-0.93333 0.1,-1.88333 0.1,-2.85c0,-1.2 0.06667,-2.4 0.2,-3.6c-0.13333,-1.26667 -0.21667,-2.53333 -0.25,-3.8c-0.5,-1.46667 -0.75,-2.98333 -0.75,-4.55c0,-1.63333 0.06667,-3.26667 0.2,-4.9c0.1,-0.16667 0.23333,-0.31667 0.4,-0.45c0.03333,-0.03333 0.06667,-0.08333 0.1,-0.15c0,-0.23333 0.06667,-0.46667 0.2,-0.7c0.06667,-0.1 0.13333,-0.16667 0.2,-0.2c0.23333,-0.26667 0.48333,-0.53333 0.75,-0.8c0.1,-0.1 0.18333,-0.18333 0.25,-0.25c0.16667,-0.16667 0.33333,-0.33333 0.5,-0.5c0.7,-0.36667 1.43333,-0.61667 2.2,-0.75c1.26667,-0.26667 2.51667,-0.55 3.75,-0.85c2.26667,-0.53333 4.48333,-0.86667 6.65,-1c6.2,-0.33333 12.25,0.26667 18.15,1.8c4.2,1.06667 7.41667,3.46667 9.65,7.2c0.03333,0.06667 0.06667,0.15 0.1,0.25c0.16667,0.33333 0.31667,0.68333 0.45,1.05M645.30811,349.43784c-0.23333,-0.23333 -0.41667,-0.51667 -0.55,-0.85c-0.03333,-0.06667 -0.06667,-0.13333 -0.1,-0.2c-4.43333,-3.4 -9.58333,-4.9 -15.45,-4.5c-1.66667,0.13333 -3.35,0.18333 -5.05,0.15c-2.06667,0.13333 -4.1,0.43333 -6.1,0.9c-1.36667,0.3 -2.73333,0.65 -4.1,1.05c-0.06667,0.26667 -0.08333,0.51667 -0.05,0.75c0.03333,0.1 0.05,0.18333 0.05,0.25c0.1,0.33333 0.11667,0.68333 0.05,1.05c0,0.26667 -0.03333,0.51667 -0.1,0.75c-0.03333,0.06667 -0.08333,0.15 -0.15,0.25c0,0.26667 0.01667,0.51667 0.05,0.75c0,0.26667 0.01667,0.53333 0.05,0.8c0.1,0.5 0.15,1 0.15,1.5c-0.03333,0.7 -0.03333,1.38333 0,2.05c0.03333,0.2 0.05,0.38333 0.05,0.55c-0.03333,0.1 -0.06667,0.16667 -0.1,0.2c-0.03333,0.1 -0.06667,0.2 -0.1,0.3c-0.03333,0.06667 -0.06667,0.15 -0.1,0.25c0,0.43333 0.01667,0.86667 0.05,1.3c0.06667,0.66667 0.11667,1.35 0.15,2.05c0.03333,1.06667 0.03333,2.16667 0,3.3c0,0.23333 0,0.48333 0,0.75c0.06667,0.2 0.11667,0.38333 0.15,0.55c0.03333,0.06667 0.06667,0.13333 0.1,0.2c0.03333,0.1 0.06667,0.2 0.1,0.3c0.03333,0.1 0.06667,0.18333 0.1,0.25c0,2.36667 0.03333,4.75 0.1,7.15c0.03333,4.36667 0.06667,8.71667 0.1,13.05c0,0.7 0,1.38333 0,2.05c0.03333,0.1 0.06667,0.2 0.1,0.3c0.03333,0.06667 0.06667,0.13333 0.1,0.2c0,0.1 0.01667,0.18333 0.05,0.25c0.03333,0.1 0.06667,0.2 0.1,0.3c0,0.26667 0,0.51667 0,0.75c0,0.06667 0,0.15 0,0.25c0,0.5 0,1.01667 0,1.55c0,0.33333 0,0.68333 0,1.05c0,0.23333 0,0.48333 0,0.75c0.03333,0.06667 0.06667,0.15 0.1,0.25c0.03333,0.1 0.06667,0.16667 0.1,0.2c0.03333,0.1 0.06667,0.2 0.1,0.3c0,0.06667 0.01667,0.15 0.05,0.25c0,0.4 0,0.83333 0,1.3c0,0.6 0,1.18333 0,1.75c0,0.96667 0,1.9 0,2.8c0,0.36667 0,0.71667 0,1.05c0.03333,0.06667 0.06667,0.15 0.1,0.25c0.03333,0.1 0.06667,0.18333 0.1,0.25c0.03333,0.06667 0.06667,0.13333 0.1,0.2c7.36667,1.23333 14.78333,0.85 22.25,-1.15c1.5,-0.4 2.83333,-1.13333 4,-2.2c0.13333,-0.26667 0.26667,-0.5 0.4,-0.7c0.06667,-0.1 0.13333,-0.21667 0.2,-0.35c0.26667,-0.43333 0.55,-0.86667 0.85,-1.3c0.1,-0.13333 0.2,-0.28333 0.3,-0.45c0.1,-0.06667 0.18333,-0.15 0.25,-0.25c0.1,-0.1 0.2,-0.18333 0.3,-0.25c0.1,-0.1 0.16667,-0.2 0.2,-0.3c0.03333,-0.06667 0.06667,-0.13333 0.1,-0.2c0.06667,-0.1 0.11667,-0.18333 0.15,-0.25c0.03333,-0.1 0.06667,-0.2 0.1,-0.3c0.03333,-0.06667 0.06667,-0.15 0.1,-0.25c0.06667,-0.1 0.13333,-0.16667 0.2,-0.2c0.06667,-0.1 0.15,-0.2 0.25,-0.3c0.1,-0.06667 0.16667,-0.15 0.2,-0.25c0.13333,-0.26667 0.21667,-0.51667 0.25,-0.75c0.03333,-0.3 0.13333,-0.56667 0.3,-0.8c0.33333,-0.46667 0.55,-0.96667 0.65,-1.5c0.2,-0.86667 0.4,-1.73333 0.6,-2.6c0.03333,-0.1 0.05,-0.16667 0.05,-0.2c0,-0.3 -0.05,-0.56667 -0.15,-0.8c-0.06667,-0.1 -0.1,-0.2 -0.1,-0.3c-0.03333,-0.23333 -0.06667,-0.48333 -0.1,-0.75c0,-0.06667 0,-0.15 0,-0.25c-0.1,-0.26667 -0.2,-0.51667 -0.3,-0.75c-0.03333,-0.1 -0.05,-0.2 -0.05,-0.3c-0.06667,-0.53333 -0.23333,-1.03333 -0.5,-1.5c-0.16667,-0.26667 -0.3,-0.51667 -0.4,-0.75c-0.1,-0.16667 -0.18333,-0.33333 -0.25,-0.5c-0.03333,-0.1 -0.1,-0.2 -0.2,-0.3c-0.1,-0.1 -0.18333,-0.16667 -0.25,-0.2c-0.06667,-0.1 -0.13333,-0.2 -0.2,-0.3c-0.03333,-0.06667 -0.06667,-0.15 -0.1,-0.25c-0.03333,-0.1 -0.08333,-0.18333 -0.15,-0.25c-0.23333,-0.23333 -0.48333,-0.48333 -0.75,-0.75c-0.1,-0.1 -0.2,-0.2 -0.3,-0.3c-0.5,-0.53333 -1.03333,-1.01667 -1.6,-1.45c-0.16667,-0.13333 -0.33333,-0.23333 -0.5,-0.3c-0.6,-0.56667 -1.26667,-1.01667 -2,-1.35c-0.26667,-0.3 -0.58333,-0.6 -0.95,-0.9c-1.76667,-1.5 -3.91667,-2.66667 -6.45,-3.5c-0.3,-0.1 -0.6,-0.18333 -0.9,-0.25c0.96667,-0.36667 2.13333,-0.85 3.5,-1.45c3.16667,-1.4 5,-2.36667 5.5,-2.9c0.03333,-0.06667 0.08333,-0.13333 0.15,-0.2c1.1,-0.53333 2.11667,-1.21667 3.05,-2.05c0.3,-0.53333 0.63333,-1.05 1,-1.55c0.53333,-0.7 0.91667,-1.48333 1.15,-2.35c0.33333,-1.1 0.71667,-2.2 1.15,-3.3c-0.03333,-0.26667 -0.03333,-0.51667 0,-0.75c0,-0.1 0.01667,-0.2 0.05,-0.3c0,-0.23333 0.06667,-0.48333 0.2,-0.75c0.03333,-0.1 0.06667,-0.18333 0.1,-0.25c0,-0.26667 -0.06667,-0.51667 -0.2,-0.75c-0.03333,-0.1 -0.05,-0.2 -0.05,-0.3c-0.1,-0.4 -0.18333,-0.81667 -0.25,-1.25c-0.06667,-0.26667 -0.16667,-0.53333 -0.3,-0.8c-0.06667,-0.16667 -0.11667,-0.31667 -0.15,-0.45c-0.16667,-0.3 -0.35,-0.56667 -0.55,-0.8c0,-0.06667 -0.05,-0.13333 -0.15,-0.2M628.30811,380.28784c0.33333,-0.06667 0.61667,-0.13333 0.85,-0.2c3.03333,-0.06667 5.76667,0.78333 8.2,2.55c1.4,1.03333 2.18333,2.41667 2.35,4.15c0.06667,0.46667 0.1,0.96667 0.1,1.5c-0.8,2.63333 -2.53333,4.43333 -5.2,5.4c-3.7,1.36667 -7.1,1.15 -10.2,-0.65c-0.03333,-0.06667 -0.08333,-0.15 -0.15,-0.25c-0.06667,-0.16667 -0.11667,-0.35 -0.15,-0.55c0,-0.03333 0,-0.1 0,-0.2c-0.03333,-0.1 -0.06667,-0.18333 -0.1,-0.25c0,-0.1 -0.01667,-0.2 -0.05,-0.3c0,-0.06667 0,-0.15 0,-0.25c0,-0.13333 0,-0.3 0,-0.5c0.03333,-0.06667 0.05,-0.15 0.05,-0.25c0,-0.1 0.01667,-0.18333 0.05,-0.25c0,-0.16667 0.01667,-0.33333 0.05,-0.5c0,-0.1 0,-0.18333 0,-0.25c-0.03333,-0.1 -0.06667,-0.2 -0.1,-0.3c-0.03333,-0.13333 -0.08333,-0.3 -0.15,-0.5c0,-0.06667 0,-0.15 0,-0.25c0,-0.1 0,-0.18333 0,-0.25c0,-0.1 0,-0.18333 0,-0.25c0.03333,-0.06667 0.06667,-0.15 0.1,-0.25c0.03333,-0.1 0.05,-0.18333 0.05,-0.25c0,-0.1 0,-0.2 0,-0.3c0,-0.23333 0.01667,-0.48333 0.05,-0.75c0,-0.06667 0.01667,-0.15 0.05,-0.25c0,-0.16667 0,-0.33333 0,-0.5c0,-0.1 0.01667,-0.18333 0.05,-0.25c-0.03333,-0.1 -0.05,-0.2 -0.05,-0.3c-0.1,-0.23333 -0.18333,-0.48333 -0.25,-0.75c-0.06667,-0.16667 -0.13333,-0.33333 -0.2,-0.5c-0.1,-0.23333 -0.13333,-0.48333 -0.1,-0.75c0.03333,-0.1 0.05,-0.2 0.05,-0.3c0,-0.06667 0.01667,-0.13333 0.05,-0.2c0.03333,-0.1 0.06667,-0.18333 0.1,-0.25c0.03333,-0.1 0.06667,-0.2 0.1,-0.3c0.26667,-0.43333 0.65,-0.73333 1.15,-0.9c1.06667,-0.4 2.16667,-0.68333 3.3,-0.85M627.40811,386.73784c0,0.16667 0,0.33333 0,0.5c0,0.1 0,0.18333 0,0.25c0.1,0.2 0.18333,0.36667 0.25,0.5c0.03333,0.1 0.06667,0.2 0.1,0.3c0.06667,0.16667 0.11667,0.33333 0.15,0.5c0.03333,0.1 0.05,0.18333 0.05,0.25c2.03333,0.56667 3.98333,0.33333 5.85,-0.7c0.06667,-0.06667 0.15,-0.15 0.25,-0.25c0.1,-0.1 0.18333,-0.16667 0.25,-0.2c0.1,-0.1 0.18333,-0.2 0.25,-0.3c0.06667,-0.06667 0.11667,-0.15 0.15,-0.25c-0.03333,-0.1 -0.06667,-0.18333 -0.1,-0.25c-0.03333,-0.1 -0.06667,-0.18333 -0.1,-0.25c-0.03333,-0.1 -0.06667,-0.18333 -0.1,-0.25c-0.96667,-0.66667 -2.03333,-1.08333 -3.2,-1.25c-0.43333,-0.06667 -0.85,-0.11667 -1.25,-0.15c-0.26667,0.06667 -0.53333,0.13333 -0.8,0.2c-0.43333,0.06667 -0.83333,0.16667 -1.2,0.3c-0.23333,0.06667 -0.45,0.15 -0.65,0.25c0.03333,0.2 0.06667,0.38333 0.1,0.55c0,0.1 0,0.18333 0,0.25M637.85811,356.28784c0,0.1 0,0.18333 0,0.25c0,0.1 0,0.2 0,0.3c0,0.06667 0,0.13333 0,0.2c0,0.1 0,0.18333 0,0.25c0,0.1 0,0.2 0,0.3c-0.33333,1.5 -1.15,2.61667 -2.45,3.35c-3.1,1.66667 -6.45,2.5 -10.05,2.5c-0.1,0 -0.2,0 -0.3,0c-0.6,0 -1.11667,-0.18333 -1.55,-0.55c-0.2,-0.13333 -0.36667,-0.3 -0.5,-0.5c-0.06667,-0.03333 -0.11667,-0.1 -0.15,-0.2c-0.06667,-0.33333 -0.1,-0.66667 -0.1,-1c0.03333,-0.46667 0.06667,-0.9 0.1,-1.3c0,-0.26667 0.01667,-0.51667 0.05,-0.75c0,-0.1 0,-0.18333 0,-0.25c-0.03333,-0.1 -0.06667,-0.2 -0.1,-0.3c0,-0.1 -0.01667,-0.18333 -0.05,-0.25c0,-0.1 0,-0.18333 0,-0.25c0,-0.16667 0,-0.33333 0,-0.5c0,-0.2 0,-0.38333 0,-0.55c0,-0.23333 0,-0.48333 0,-0.75c-0.06667,-0.1 -0.11667,-0.2 -0.15,-0.3c-0.03333,-0.03333 -0.05,-0.1 -0.05,-0.2c0,-0.16667 0.01667,-0.33333 0.05,-0.5c0,-0.2 0.01667,-0.36667 0.05,-0.5c-0.03333,-0.1 -0.06667,-0.2 -0.1,-0.3c-0.03333,-0.06667 -0.06667,-0.15 -0.1,-0.25c-0.03333,-0.16667 -0.08333,-0.33333 -0.15,-0.5c-0.03333,-0.16667 -0.06667,-0.33333 -0.1,-0.5c0,-0.1 0,-0.2 0,-0.3c0.03333,-0.06667 0.05,-0.13333 0.05,-0.2c0.03333,-0.1 0.05,-0.18333 0.05,-0.25c0.06667,-0.1 0.11667,-0.2 0.15,-0.3c0.06667,-0.06667 0.13333,-0.15 0.2,-0.25c0.1,-0.1 0.18333,-0.18333 0.25,-0.25c0.1,-0.06667 0.18333,-0.15 0.25,-0.25c0.1,-0.06667 0.21667,-0.11667 0.35,-0.15c0.4,-0.13333 0.8,-0.25 1.2,-0.35c0.36667,-0.06667 0.76667,-0.16667 1.2,-0.3c0.16667,0 0.31667,0 0.45,0v-0.05c2.76667,-0.06667 5.43333,0.46667 8,1.6c1.76667,0.83333 2.93333,2.2 3.5,4.1M625.70811,355.68784c0.13333,0.23333 0.21667,0.48333 0.25,0.75c0.06667,0.26667 0.08333,0.53333 0.05,0.8c0,0.06667 0,0.15 0,0.25c0.06667,0.16667 0.15,0.35 0.25,0.55c0,0.03333 0.01667,0.1 0.05,0.2c0.03333,0.1 0.05,0.18333 0.05,0.25c2.36667,0.3 4.53333,-0.11667 6.5,-1.25c-1.33333,-1.43333 -3.25,-2.08333 -5.75,-1.95c-0.2,0.03333 -0.38333,0.08333 -0.55,0.15c-0.16667,0.03333 -0.33333,0.08333 -0.5,0.15c-0.1,0.03333 -0.21667,0.06667 -0.35,0.1z" fill="#000000"/><path d="M645.45811,349.63784c0.2,0.23333 0.38333,0.5 0.55,0.8c0.03333,0.13333 0.08333,0.28333 0.15,0.45c0.13333,0.26667 0.23333,0.53333 0.3,0.8c0.06667,0.43333 0.15,0.85 0.25,1.25c0,0.1 0.01667,0.2 0.05,0.3c0.13333,0.23333 0.2,0.48333 0.2,0.75c-0.03333,0.06667 -0.06667,0.15 -0.1,0.25c-0.13333,0.26667 -0.2,0.51667 -0.2,0.75c-0.03333,0.1 -0.05,0.2 -0.05,0.3c-0.03333,0.23333 -0.03333,0.48333 0,0.75c-0.43333,1.1 -0.81667,2.2 -1.15,3.3c-0.23333,0.86667 -0.61667,1.65 -1.15,2.35c-0.36667,0.5 -0.7,1.01667 -1,1.55c-0.93333,0.83333 -1.95,1.51667 -3.05,2.05c-0.06667,0.06667 -0.11667,0.13333 -0.15,0.2c-0.5,0.53333 -2.33333,1.5 -5.5,2.9c-1.36667,0.6 -2.53333,1.08333 -3.5,1.45c0.3,0.06667 0.6,0.15 0.9,0.25c2.53333,0.83333 4.68333,2 6.45,3.5c0.36667,0.3 0.68333,0.6 0.95,0.9c0.73333,0.33333 1.4,0.78333 2,1.35c0.16667,0.06667 0.33333,0.16667 0.5,0.3c0.56667,0.43333 1.1,0.91667 1.6,1.45c0.1,0.1 0.2,0.2 0.3,0.3c0.26667,0.26667 0.51667,0.51667 0.75,0.75c0.06667,0.06667 0.11667,0.15 0.15,0.25c0.03333,0.1 0.06667,0.18333 0.1,0.25c0.06667,0.1 0.13333,0.2 0.2,0.3c0.06667,0.03333 0.15,0.1 0.25,0.2c0.1,0.1 0.16667,0.2 0.2,0.3c0.06667,0.16667 0.15,0.33333 0.25,0.5c0.1,0.23333 0.23333,0.48333 0.4,0.75c0.26667,0.46667 0.43333,0.96667 0.5,1.5c0,0.1 0.01667,0.2 0.05,0.3c0.1,0.23333 0.2,0.48333 0.3,0.75c0,0.1 0,0.18333 0,0.25c0.03333,0.26667 0.06667,0.51667 0.1,0.75c0,0.1 0.03333,0.2 0.1,0.3c0.1,0.23333 0.15,0.5 0.15,0.8c0,0.03333 -0.01667,0.1 -0.05,0.2c-0.2,0.86667 -0.4,1.73333 -0.6,2.6c-0.1,0.53333 -0.31667,1.03333 -0.65,1.5c-0.16667,0.23333 -0.26667,0.5 -0.3,0.8c-0.03333,0.23333 -0.11667,0.48333 -0.25,0.75c-0.03333,0.1 -0.1,0.18333 -0.2,0.25c-0.1,0.1 -0.18333,0.2 -0.25,0.3c-0.06667,0.03333 -0.13333,0.1 -0.2,0.2c-0.03333,0.1 -0.06667,0.18333 -0.1,0.25c-0.03333,0.1 -0.06667,0.2 -0.1,0.3c-0.03333,0.06667 -0.08333,0.15 -0.15,0.25c-0.03333,0.06667 -0.06667,0.13333 -0.1,0.2c-0.03333,0.1 -0.1,0.2 -0.2,0.3c-0.1,0.06667 -0.2,0.15 -0.3,0.25c-0.06667,0.1 -0.15,0.18333 -0.25,0.25c-0.1,0.16667 -0.2,0.31667 -0.3,0.45c-0.3,0.43333 -0.58333,0.86667 -0.85,1.3c-0.06667,0.13333 -0.13333,0.25 -0.2,0.35c-0.13333,0.2 -0.26667,0.43333 -0.4,0.7c-1.16667,1.06667 -2.5,1.8 -4,2.2c-7.46667,2 -14.88333,2.38333 -22.25,1.15c-0.03333,-0.06667 -0.06667,-0.13333 -0.1,-0.2c-0.03333,-0.06667 -0.06667,-0.15 -0.1,-0.25c-0.03333,-0.1 -0.06667,-0.18333 -0.1,-0.25c0,-0.33333 0,-0.68333 0,-1.05c0,-0.9 0,-1.83333 0,-2.8c0,-0.56667 0,-1.15 0,-1.75c0,-0.46667 0,-0.9 0,-1.3c-0.03333,-0.1 -0.05,-0.18333 -0.05,-0.25c-0.03333,-0.1 -0.06667,-0.2 -0.1,-0.3c-0.03333,-0.03333 -0.06667,-0.1 -0.1,-0.2c-0.03333,-0.1 -0.06667,-0.18333 -0.1,-0.25c0,-0.26667 0,-0.51667 0,-0.75c0,-0.36667 0,-0.71667 0,-1.05c0,-0.53333 0,-1.05 0,-1.55c0,-0.1 0,-0.18333 0,-0.25c0,-0.23333 0,-0.48333 0,-0.75c-0.03333,-0.1 -0.06667,-0.2 -0.1,-0.3c-0.03333,-0.06667 -0.05,-0.15 -0.05,-0.25c-0.03333,-0.06667 -0.06667,-0.13333 -0.1,-0.2c-0.03333,-0.1 -0.06667,-0.2 -0.1,-0.3c0,-0.66667 0,-1.35 0,-2.05c-0.03333,-4.33333 -0.06667,-8.68333 -0.1,-13.05c-0.06667,-2.4 -0.1,-4.78333 -0.1,-7.15c-0.03333,-0.06667 -0.06667,-0.15 -0.1,-0.25c-0.03333,-0.1 -0.06667,-0.2 -0.1,-0.3c-0.03333,-0.06667 -0.06667,-0.13333 -0.1,-0.2c-0.03333,-0.16667 -0.08333,-0.35 -0.15,-0.55c0,-0.26667 0,-0.51667 0,-0.75c0.03333,-1.13333 0.03333,-2.23333 0,-3.3c-0.03333,-0.7 -0.08333,-1.38333 -0.15,-2.05c-0.03333,-0.43333 -0.05,-0.86667 -0.05,-1.3c0.03333,-0.1 0.06667,-0.18333 0.1,-0.25c0.03333,-0.1 0.06667,-0.2 0.1,-0.3c0.03333,-0.03333 0.06667,-0.1 0.1,-0.2c0,-0.16667 -0.01667,-0.35 -0.05,-0.55c-0.03333,-0.66667 -0.03333,-1.35 0,-2.05c0,-0.5 -0.05,-1 -0.15,-1.5c-0.03333,-0.26667 -0.05,-0.53333 -0.05,-0.8c-0.03333,-0.23333 -0.05,-0.48333 -0.05,-0.75c0.06667,-0.1 0.11667,-0.18333 0.15,-0.25c0.06667,-0.23333 0.1,-0.48333 0.1,-0.75c0.06667,-0.36667 0.05,-0.71667 -0.05,-1.05c0,-0.06667 -0.01667,-0.15 -0.05,-0.25c-0.03333,-0.23333 -0.01667,-0.48333 0.05,-0.75c1.36667,-0.4 2.73333,-0.75 4.1,-1.05c2,-0.46667 4.03333,-0.76667 6.1,-0.9c1.7,0.03333 3.38333,-0.01667 5.05,-0.15c5.86667,-0.4 11.01667,1.1 15.45,4.5c0.03333,0.06667 0.06667,0.13333 0.1,0.2c0.13333,0.33333 0.31667,0.61667 0.55,0.85c0.1,0.06667 0.15,0.13333 0.15,0.2M634.35811,352.18784c-2.56667,-1.13333 -5.23333,-1.66667 -8,-1.6v0.05c-0.13333,0 -0.28333,0 -0.45,0c-0.43333,0.13333 -0.83333,0.23333 -1.2,0.3c-0.4,0.1 -0.8,0.21667 -1.2,0.35c-0.13333,0.03333 -0.25,0.08333 -0.35,0.15c-0.06667,0.1 -0.15,0.18333 -0.25,0.25c-0.06667,0.06667 -0.15,0.15 -0.25,0.25c-0.06667,0.1 -0.13333,0.18333 -0.2,0.25c-0.03333,0.1 -0.08333,0.2 -0.15,0.3c0,0.06667 -0.01667,0.15 -0.05,0.25c0,0.06667 -0.01667,0.13333 -0.05,0.2c0,0.1 0,0.2 0,0.3c0.03333,0.16667 0.06667,0.33333 0.1,0.5c0.06667,0.16667 0.11667,0.33333 0.15,0.5c0.03333,0.1 0.06667,0.18333 0.1,0.25c0.03333,0.1 0.06667,0.2 0.1,0.3c-0.03333,0.13333 -0.05,0.3 -0.05,0.5c-0.03333,0.16667 -0.05,0.33333 -0.05,0.5c0,0.1 0.01667,0.16667 0.05,0.2c0.03333,0.1 0.08333,0.2 0.15,0.3c0,0.26667 0,0.51667 0,0.75c0,0.16667 0,0.35 0,0.55c0,0.16667 0,0.33333 0,0.5c0,0.06667 0,0.15 0,0.25c0.03333,0.06667 0.05,0.15 0.05,0.25c0.03333,0.1 0.06667,0.2 0.1,0.3c0,0.06667 0,0.15 0,0.25c-0.03333,0.23333 -0.05,0.48333 -0.05,0.75c-0.03333,0.4 -0.06667,0.83333 -0.1,1.3c0,0.33333 0.03333,0.66667 0.1,1c0.03333,0.1 0.08333,0.16667 0.15,0.2c0.13333,0.2 0.3,0.36667 0.5,0.5c0.43333,0.36667 0.95,0.55 1.55,0.55c0.1,0 0.2,0 0.3,0c3.6,0 6.95,-0.83333 10.05,-2.5c1.3,-0.73333 2.11667,-1.85 2.45,-3.35c0,-0.1 0,-0.2 0,-0.3c0,-0.06667 0,-0.15 0,-0.25c0,-0.06667 0,-0.13333 0,-0.2c0,-0.1 0,-0.2 0,-0.3c0,-0.06667 0,-0.15 0,-0.25c-0.56667,-1.9 -1.73333,-3.26667 -3.5,-4.1M623.85811,382.03784c-0.03333,0.1 -0.06667,0.2 -0.1,0.3c-0.03333,0.06667 -0.06667,0.15 -0.1,0.25c-0.03333,0.06667 -0.05,0.13333 -0.05,0.2c0,0.1 -0.01667,0.2 -0.05,0.3c-0.03333,0.26667 0,0.51667 0.1,0.75c0.06667,0.16667 0.13333,0.33333 0.2,0.5c0.06667,0.26667 0.15,0.51667 0.25,0.75c0,0.1 0.01667,0.2 0.05,0.3c-0.03333,0.06667 -0.05,0.15 -0.05,0.25c0,0.16667 0,0.33333 0,0.5c-0.03333,0.1 -0.05,0.18333 -0.05,0.25c-0.03333,0.26667 -0.05,0.51667 -0.05,0.75c0,0.1 0,0.2 0,0.3c0,0.06667 -0.01667,0.15 -0.05,0.25c-0.03333,0.1 -0.06667,0.18333 -0.1,0.25c0,0.06667 0,0.15 0,0.25c0,0.06667 0,0.15 0,0.25c0,0.1 0,0.18333 0,0.25c0.06667,0.2 0.11667,0.36667 0.15,0.5c0.03333,0.1 0.06667,0.2 0.1,0.3c0,0.06667 0,0.15 0,0.25c-0.03333,0.16667 -0.05,0.33333 -0.05,0.5c-0.03333,0.06667 -0.05,0.15 -0.05,0.25c0,0.1 -0.01667,0.18333 -0.05,0.25c0,0.2 0,0.36667 0,0.5c0,0.1 0,0.18333 0,0.25c0.03333,0.1 0.05,0.2 0.05,0.3c0.03333,0.06667 0.06667,0.15 0.1,0.25c0,0.1 0,0.16667 0,0.2c0.03333,0.2 0.08333,0.38333 0.15,0.55c0.06667,0.1 0.11667,0.18333 0.15,0.25c3.1,1.8 6.5,2.01667 10.2,0.65c2.66667,-0.96667 4.4,-2.76667 5.2,-5.4c0,-0.53333 -0.03333,-1.03333 -0.1,-1.5c-0.16667,-1.73333 -0.95,-3.11667 -2.35,-4.15c-2.43333,-1.76667 -5.16667,-2.61667 -8.2,-2.55c-0.23333,0.06667 -0.51667,0.13333 -0.85,0.2c-1.13333,0.16667 -2.23333,0.45 -3.3,0.85c-0.5,0.16667 -0.88333,0.46667 -1.15,0.9z" fill="#ffffff"/></g></g></svg>