<svg version="1.1" xmlns="http://www.w3.org/2000/svg" xmlns:xlink="http://www.w3.org/1999/xlink" width="42.31579" height="65.052" viewBox="0,0,42.31579,65.052"><g transform="translate(-608.25811,-337.88584)"><g data-paper-data="{&quot;isPaintingLayer&quot;:true}" fill-rule="nonzero" stroke="none" stroke-width="1" stroke-linecap="butt" stroke-linejoin="miter" stroke-miterlimit="10" stroke-dasharray="" stroke-dashoffset="0" style="mix-blend-mode: normal"><path d="M649.15811,347.08784c0,2.23333 -0.06667,4.45 -0.2,6.65c-0.03333,0.4 -0.2,0.71667 -0.5,0.95c-1.8,1.56667 -4.01667,2.38333 -6.65,2.45c-2.7,0.06667 -5.4,0.13333 -8.1,0.2c-2.03333,0.03333 -4.05,0.1 -6.05,0.2l0.25,3.2c1.53333,-0.53333 3.18333,-0.85 4.95,-0.95c2.16667,-0.06667 4.2,0.38333 6.1,1.35c0.83333,0.46667 1.33333,1.15 1.5,2.05c0.4,2.43333 0.58333,4.93333 0.55,7.5c0,0.2 0.06667,0.46667 0.2,0.8c0.03333,0.06667 0.06667,0.15 0.1,0.25c0.23333,1.23333 0.05,2.4 -0.55,3.5c-0.1,0.16667 -0.23333,0.3 -0.4,0.4c-3.3,1.73333 -6.81667,2.46667 -10.55,2.2c-0.5,-0.06667 -0.75,0.1 -0.75,0.5l0.25,1c5.66667,-0.8 11.31667,-0.8 16.95,0c1.76667,0.16667 3.03333,1.06667 3.8,2.7c0.46667,0.93333 0.61667,1.93333 0.45,3c-0.13333,0.76667 -0.18333,1.53333 -0.15,2.3c0,0.1 0.01667,0.2 0.05,0.3c0.03333,0.06667 0.05,0.15 0.05,0.25c0.06667,2.43333 0.08333,4.9 0.05,7.4c0,1.13333 -0.16667,2.25 -0.5,3.35c-0.6,1.8 -1.86667,2.68333 -3.8,2.65c-3.4,-0.1 -6.68333,-0.03333 -9.85,0.2c-7.46667,0.23333 -14.95,0.71667 -22.45,1.45c-2.26667,-0.06667 -3.78333,-1.15 -4.55,-3.25c-0.16667,-0.5 -0.25,-0.96667 -0.25,-1.4c0.03333,-0.8 -0.08333,-1.6 -0.35,-2.4c-0.2,-0.53333 -0.28333,-1.01667 -0.25,-1.45c0.1,-1.93333 0.08333,-3.85 -0.05,-5.75c-0.03333,-0.66667 -0.05,-1.23333 -0.05,-1.7c-0.03333,-5.4 -0.08333,-10.83333 -0.15,-16.3c0,-1.26667 0.1,-2.51667 0.3,-3.75c0.03333,-0.26667 0.05,-0.53333 0.05,-0.8c-0.16667,-3.63333 0.06667,-7.23333 0.7,-10.8c0.03333,-0.13333 0.05,-0.28333 0.05,-0.45c-0.16667,-2.23333 0.01667,-4.38333 0.55,-6.45c0.26667,-1 0.25,-1.98333 -0.05,-2.95c-0.06667,-0.2 -0.1,-0.38333 -0.1,-0.55c0,-0.46667 -0.01667,-0.9 -0.05,-1.3c-0.13333,-1.5 0.33333,-2.75 1.4,-3.75c2.46667,-0.23333 4.93333,-0.45 7.4,-0.65c3.33333,-0.1 6.66667,-0.18333 10,-0.25c3.93333,-0.43333 7.88333,-0.8 11.85,-1.1c2.3,-0.03333 4.55,0.35 6.75,1.15c1.93333,0.76667 2.73333,2.2 2.4,4.3c0.16667,0.9 0.11667,1.8 -0.15,2.7c-0.03333,0.06667 -0.06667,0.15 -0.1,0.25c-0.06667,0.3 -0.1,0.56667 -0.1,0.8M614.40811,345.93784l-0.8,1.1c0.13333,0.66667 0.15,1.28333 0.05,1.85c-0.16667,1.2 -0.21667,2.45 -0.15,3.75c0.06667,1.23333 0.05,2.48333 -0.05,3.75c-0.06667,0.7 -0.08333,1.41667 -0.05,2.15c0.2,3.06667 0.2,6.18333 0,9.35c-0.03333,0.43333 -0.05,0.88333 -0.05,1.35c0,0.66667 -0.05,1.28333 -0.15,1.85c-0.1,0.43333 -0.01667,0.98333 0.25,1.65c0.3,0.7 0.43333,1.41667 0.4,2.15c-0.1,4.13333 -0.01667,8.15 0.25,12.05c0.03333,0.7 0.08333,1.4 0.15,2.1c0.16667,2.5 0.31667,5 0.45,7.5c6.33333,-0.53333 12.68333,-0.85 19.05,-0.95c3.66667,-0.03333 7.25,-0.36667 10.75,-1l-0.45,-9.65c-1.53333,0 -3.05,0.01667 -4.55,0.05c-2.56667,0.33333 -5.1,0.75 -7.6,1.25c-2.26667,0.56667 -4.43333,0.46667 -6.5,-0.3c-1.03333,-0.83333 -1.61667,-1.9 -1.75,-3.2c-0.06667,-0.9 -0.18333,-1.81667 -0.35,-2.75c-0.03333,-0.2 -0.1,-0.45 -0.2,-0.75c-0.46667,-1.43333 -0.48333,-2.86667 -0.05,-4.3c0.26667,-0.93333 0.81667,-1.55 1.65,-1.85c1.83333,-0.6 3.78333,-1 5.85,-1.2c1.5,0.1 2.93333,-0.13333 4.3,-0.7l-0.35,-5.25c-2.6,0.13333 -5.13333,0.58333 -7.6,1.35c-0.46667,0.1 -0.93333,0.15 -1.4,0.15c-2,0.03333 -3.11667,-0.91667 -3.35,-2.85c-0.43333,-3.3 -0.58333,-6.6 -0.45,-9.9c0.03333,-0.76667 0.31667,-1.38333 0.85,-1.85c1.03333,-0.9 2.21667,-1.35 3.55,-1.35c5.63333,0 11.3,-0.3 17,-0.9l0.05,-6.05z" fill="#000000"/><path d="M626.10811,351.48784c-1.33333,0 -2.51667,0.45 -3.55,1.35c-0.53333,0.46667 -0.81667,1.08333 -0.85,1.85c-0.13333,3.3 0.01667,6.6 0.45,9.9c0.23333,1.93333 1.35,2.88333 3.35,2.85c0.46667,0 0.93333,-0.05 1.4,-0.15c2.46667,-0.76667 5,-1.21667 7.6,-1.35l0.35,5.25c-1.36667,0.56667 -2.8,0.8 -4.3,0.7c-2.06667,0.2 -4.01667,0.6 -5.85,1.2c-0.83333,0.3 -1.38333,0.91667 -1.65,1.85c-0.43333,1.43333 -0.41667,2.86667 0.05,4.3c0.1,0.3 0.16667,0.55 0.2,0.75c0.16667,0.93333 0.28333,1.85 0.35,2.75c0.13333,1.3 0.71667,2.36667 1.75,3.2c2.06667,0.76667 4.23333,0.86667 6.5,0.3c2.5,-0.5 5.03333,-0.91667 7.6,-1.25c1.5,-0.03333 3.01667,-0.05 4.55,-0.05l0.45,9.65c-3.5,0.63333 -7.08333,0.96667 -10.75,1c-6.36667,0.1 -12.71667,0.41667 -19.05,0.95c-0.13333,-2.5 -0.28333,-5 -0.45,-7.5c-0.06667,-0.7 -0.11667,-1.4 -0.15,-2.1c-0.26667,-3.9 -0.35,-7.91667 -0.25,-12.05c0.03333,-0.73333 -0.1,-1.45 -0.4,-2.15c-0.26667,-0.66667 -0.35,-1.21667 -0.25,-1.65c0.1,-0.56667 0.15,-1.18333 0.15,-1.85c0,-0.46667 0.01667,-0.91667 0.05,-1.35c0.2,-3.16667 0.2,-6.28333 0,-9.35c-0.03333,-0.73333 -0.01667,-1.45 0.05,-2.15c0.1,-1.26667 0.11667,-2.51667 0.05,-3.75c-0.06667,-1.3 -0.01667,-2.55 0.15,-3.75c0.1,-0.56667 0.08333,-1.18333 -0.05,-1.85l0.8,-1.1l28.75,-1.4l-0.05,6.05c-5.7,0.6 -11.36667,0.9 -17,0.9z" fill="#ffffff"/></g></g></svg>