<svg version="1.1" xmlns="http://www.w3.org/2000/svg" xmlns:xlink="http://www.w3.org/1999/xlink" width="50.89901" height="71.11715" viewBox="0,0,50.89901,71.11715"><g transform="translate(-609.70522,-334.63692)"><g data-paper-data="{&quot;isPaintingLayer&quot;:true}" fill-rule="nonzero" stroke="none" stroke-width="1" stroke-linecap="round" stroke-linejoin="miter" stroke-miterlimit="4" stroke-dasharray="" stroke-dashoffset="0" style="mix-blend-mode: normal"><path d="M614.02549,334.92051c5.4,-1.1 9.38333,1 11.95,6.3c1.53333,3.2 3.35,6.21667 5.45,9.05c3.06667,4.13333 5.98333,8.38333 8.75,12.75c2.23333,3.53333 4.46667,6.96667 6.7,10.3c2.7,4 5.53333,7.81667 8.5,11.45c0.83333,1.03333 1.68333,2.06667 2.55,3.1l-0.55,-0.5c3.53333,4.06667 4.16667,8.55 1.9,13.45c-2.26667,4.96667 -5.9,6.18333 -10.9,3.65c-2.36667,-1.2 -4.35,-2.85 -5.95,-4.95c-2.96667,-3.86667 -5.58333,-7.98333 -7.85,-12.35c-2.33333,-4.4 -4.91667,-8.6 -7.75,-12.6c-2.93333,-4.1 -5.71667,-8.21667 -8.35,-12.35c-2.5,-3.86667 -4.76667,-7.85 -6.8,-11.95c-1.8,-3.53333 -2.36667,-7.3 -1.7,-11.3c0.36667,-2.23333 1.71667,-3.58333 4.05,-4.05M616.02549,340.27051l-0.75,0.5c0.33333,2.9 1.15,5.66667 2.45,8.3c1.53333,3.1 3.25,6.11667 5.15,9.05c0.46667,0.76667 0.95,1.53333 1.45,2.3c2.63333,4.1 5.28333,8.06667 7.95,11.9c1.1,1.56667 2.2,3.15 3.3,4.75l-0.3,-0.5c2.36667,3.26667 4.48333,6.68333 6.35,10.25c1.2,2.26667 2.55,4.56667 4.05,6.9c0.33333,0.5 0.66667,1.01667 1,1.55c1.13333,1.86667 2.65,3.2 4.55,4c0.43333,0.23333 0.86667,0.46667 1.3,0.7l0.9,-0.25c0.93333,-1.33333 1.26667,-2.83333 1,-4.5c-0.16667,-1.2 -0.58333,-2.31667 -1.25,-3.35c-0.06667,-0.13333 -0.13333,-0.26667 -0.2,-0.4c-1.33333,-1.93333 -2.78333,-3.75 -4.35,-5.45c-2.73333,-3.53333 -5.36667,-7.2 -7.9,-11c-1.46667,-2.23333 -2.93333,-4.51667 -4.4,-6.85l0.25,0.5l-8.6,-12.5c-2.66667,-3.6 -4.9,-7.48333 -6.7,-11.65c-0.5,-1.23333 -1.23333,-2.23333 -2.2,-3c-0.53333,-0.4 -1.1,-0.7 -1.7,-0.9c-0.43333,-0.2 -0.88333,-0.31667 -1.35,-0.35z" fill="#000000"/><path d="M621.27549,344.52051c1.8,4.16667 4.03333,8.05 6.7,11.65l8.6,12.5l-0.25,-0.5c1.46667,2.33333 2.93333,4.61667 4.4,6.85c2.53333,3.8 5.16667,7.46667 7.9,11c1.56667,1.7 3.01667,3.51667 4.35,5.45c0.06667,0.13333 0.13333,0.26667 0.2,0.4c0.66667,1.03333 1.08333,2.15 1.25,3.35c0.26667,1.66667 -0.06667,3.16667 -1,4.5l-0.9,0.25c-0.43333,-0.23333 -0.86667,-0.46667 -1.3,-0.7c-1.9,-0.8 -3.41667,-2.13333 -4.55,-4c-0.33333,-0.53333 -0.66667,-1.05 -1,-1.55c-1.5,-2.33333 -2.85,-4.63333 -4.05,-6.9c-1.86667,-3.56667 -3.98333,-6.98333 -6.35,-10.25l0.3,0.5c-1.1,-1.6 -2.2,-3.18333 -3.3,-4.75c-2.66667,-3.83333 -5.31667,-7.8 -7.95,-11.9c-0.5,-0.76667 -0.98333,-1.53333 -1.45,-2.3c-1.9,-2.93333 -3.61667,-5.95 -5.15,-9.05c-1.3,-2.63333 -2.11667,-5.4 -2.45,-8.3l0.75,-0.5c0.46667,0.03333 0.91667,0.15 1.35,0.35c0.6,0.2 1.16667,0.5 1.7,0.9c0.96667,0.76667 1.7,1.76667 2.2,3z" fill="#ffffff"/></g></g></svg>