<svg version="1.1" xmlns="http://www.w3.org/2000/svg" xmlns:xlink="http://www.w3.org/1999/xlink" width="436.75" height="532.5" viewBox="0,0,436.75,532.5"><g transform="translate(-581.6,-95.5)"><g data-paper-data="{&quot;isPaintingLayer&quot;:true}" fill-rule="nonzero" stroke="none" stroke-width="1" stroke-linecap="butt" stroke-linejoin="miter" stroke-miterlimit="10" stroke-dasharray="" stroke-dashoffset="0" style="mix-blend-mode: normal"><path d="M764.05,541.45c-0.20547,-0.29323 -0.40547,-0.59323 -0.6,-0.9c0.86237,0.32396 1.7457,0.60729 2.65,0.85c5.92331,1.73333 13.00664,2.6 21.25,2.6c0.95026,0 1.88359,-0.01667 2.8,-0.05c1.09531,-0.05156 2.16198,-0.1349 3.2,-0.25c-0.77253,0.57773 -1.58919,1.17773 -2.45,1.8c-8.26667,6 -14.2,9 -17.8,9c-2.93333,-4.3 -5.95,-8.65 -9.05,-13.05M876,333.35c2.61081,0.61341 5.14414,1.46341 7.6,2.55c2.23906,0.99284 4.18906,2.12617 5.85,3.4c0.30326,0.38932 0.60326,0.78932 0.9,1.2c6,8.3 9,17.91667 9,28.85c0,0.54935 -0.31667,1.79935 -0.95,3.75c-1.49948,1.08984 -3.16615,1.63984 -5,1.65c-0.57721,-0.84362 -1.17721,-1.67695 -1.8,-2.5c-10.06667,-13.31016 -24.45,-20.51016 -43.15,-21.6h-0.05c-0.00859,-0.13385 -0.02526,-0.26719 -0.05,-0.4c0,-4.3 1.66667,-8.3 5,-12c0.46745,-0.5194 0.93411,-1.00273 1.4,-1.45c3.30286,-3.03333 7.0862,-4.55 11.35,-4.55c3.41315,0 6.71315,0.36667 9.9,1.1M852,434.85c0,1.8 -0.68333,5.53333 -2.05,11.2c-1.63333,6.66667 -3.2,10.6 -4.7,11.8h-4c-1.33333,-0.36667 -2.18333,-1.01667 -2.55,-1.95c-0.13333,-0.33333 -0.2,-0.96667 -0.2,-1.9c0,-4.13333 0.76667,-8.06667 2.3,-11.8c2.3,-5.73333 5.86667,-8.68333 10.7,-8.85l0.25,-0.2c0.16667,0.1 0.25,0.66667 0.25,1.7M746.35,481.25c10.18854,4.35299 20.58854,8.11966 31.2,11.3c11.7707,3.50065 22.3207,5.76732 31.65,6.8c-1.05638,0.68464 -2.18971,1.41797 -3.4,2.2h-21.2c-11.13333,-2.06667 -19.8,-4.8 -26,-8.2c-4.43477,-3.0418 -8.00143,-5.25846 -10.7,-6.65c-0.51654,-1.77578 -1.0332,-3.59245 -1.55,-5.45M803.55,421.1c1.86667,-7.63333 5.85,-9.55 11.95,-5.75l0.5,2c-0.33333,1.73333 -0.4,7.83333 -0.2,18.3c-0.56667,9.63333 -3.08333,14.45 -7.55,14.45c-2.2,0 -3.85,-1.53333 -4.95,-4.6c-0.7,-3.13333 -1.05,-4.76667 -1.05,-4.9c0,-9.53333 0.43333,-16.03333 1.3,-19.5M903.65,168.9c0.3556,-0.3444 0.73893,-0.7444 1.15,-1.2c-0.35924,0.48138 -0.70924,0.93138 -1.05,1.35c-0.02513,-0.05352 -0.05846,-0.10352 -0.1,-0.15M853.6,111.8c9.08854,5.7849 17.58854,13.41823 25.5,22.9c5.7194,6.825 10.65273,14.075 14.8,21.75c-3.77031,0.03125 -6.87031,0.73125 -9.3,2.1c-4.17865,0.39909 -9.12865,5.06576 -14.85,14c-6.52956,10.20417 -11.87956,18.75417 -16.05,25.65c-0.8901,1.47018 -1.67344,2.82018 -2.35,4.05c4.27344,-11.43398 1.65677,-21.73398 -7.85,-30.9c-9.49818,-9.16862 -20.56484,-12.85195 -33.2,-11.05c-12.6444,1.83776 -21.61107,6.60443 -26.9,14.3c-5.24766,7.69023 -8.88099,13.99023 -10.9,18.9c-1.39674,1.80404 -2.69674,4.3207 -3.9,7.55c-0.59609,0.24648 -1.21276,0.49648 -1.85,0.75c-3.27813,1.29323 -5.82812,2.5599 -7.65,3.8c0.01133,-0.10286 0.01133,-0.20286 0,-0.3c-0.36667,-3.53333 -1.03333,-6.55 -2,-9.05c-1.43333,-4.66667 -3.95,-8.08333 -7.55,-10.25c-5.43333,-3.26667 -12.5,-2.68333 -21.2,1.75c-6.61354,3.36276 -11.01354,9.59609 -13.2,18.7c-2.41953,-1.95 -4.9362,-3.6 -7.55,-4.95c-1.89023,-2.06667 -3.54023,-3.73333 -4.95,-5c-0.57656,-3.69336 -0.9599,-7.51003 -1.15,-11.45c0.52747,-2.35 1.14414,-4.71667 1.85,-7.1c3.33333,-11.26667 8.31667,-21.63333 14.95,-31.1c16.83333,-24.1 41.85,-39.38333 75.05,-45.85l27.5,0.25c9.43333,-0.23333 19.4,2.71667 29.9,8.85c0.95664,0.55833 1.90664,1.125 2.85,1.7M920.7,540.1c1.83333,2.7 4.06667,5.25 6.7,7.65c5.35026,4.94062 11.00026,8.09063 16.95,9.45c-0.58646,0.81979 -1.10312,1.45313 -1.55,1.9c-3.26667,3.26667 -8.63333,4.9 -16.1,4.9c-8.73333,0 -15.1,-3.33333 -19.1,-10c-2.66667,-4.46667 -4,-9.6 -4,-15.4c0.67044,-1.45247 1.15378,-2.66914 1.45,-3.65c4.16745,1.32422 8.76745,2.00755 13.8,2.05c0.38633,0.82305 1.00299,1.85638 1.85,3.1M899.5,536.3c-0.43333,2.33333 -0.65,4.73333 -0.65,7.2c0,0.72253 0.01667,1.43919 0.05,2.15c-3.52331,-1.87018 -6.30664,-5.32018 -8.35,-10.35c-1.62786,-3.9681 -2.64453,-8.25143 -3.05,-12.85c3.49557,4.69557 7.77891,8.24557 12.85,10.65c-0.32643,0.89453 -0.60977,1.9612 -0.85,3.2M693.95,549.2c-0.44518,0.66393 -0.91185,1.36393 -1.4,2.1c-0.07201,0.16523 -0.15534,0.31523 -0.25,0.45c-0.22865,0.41432 -0.46198,0.83099 -0.7,1.25c-2.16667,3.4 -4.11667,5.86667 -5.85,7.4c-4.26667,3.73333 -9.45,5.6 -15.55,5.6c-2.55664,0 -5.00664,-0.21667 -7.35,-0.65c-6.71693,-1.25964 -12.46693,-4.34297 -17.25,-9.25c-1.30078,-1.32214 -2.55078,-2.80547 -3.75,-4.45c4.27643,0.66888 7.50977,1.78555 9.7,3.35c2.03333,1.46667 3.55,2.38333 4.55,2.75c2.23333,0.83333 5.48333,1.25 9.75,1.25c6.33333,0 12.33333,-1.83333 18,-5.5c3.61667,-2.35677 5.96667,-4.60677 7.05,-6.75c0.67708,0.56263 1.51042,1.26263 2.5,2.1c0.10924,0.06888 0.20924,0.13555 0.3,0.2c0.10091,0.05156 0.18424,0.10156 0.25,0.15M622.25,487.6c0.03333,1.56667 0.36667,2.9 1,4c1.16667,2.06667 5.45,5.61667 12.85,10.65c-1.13333,-2.73333 -3.13333,-6.53333 -6,-11.4c-1.16667,-2 -1.75,-4.83333 -1.75,-8.5c0.09766,-1.61797 0.26432,-3.23464 0.5,-4.85c0.66667,-1.28867 1,-2.50534 1,-3.65c0,-0.43151 -0.01667,-0.79818 -0.05,-1.1c0.17604,-0.66341 0.35938,-1.33008 0.55,-2c2.23333,-7.66667 5.56667,-11.5 10,-11.5c2.43333,0 5.66667,2.8 9.7,8.4c1.6,2.23333 5.63333,8.56667 12.1,19c5.6,9.06667 10.3,15.91667 14.1,20.55c1.33346,1.62096 2.63346,3.08763 3.9,4.4c1.23945,1.27982 2.43945,2.41315 3.6,3.4c1.01641,1.0707 2.13307,2.0707 3.35,3c0.8,0.63333 2.93333,1.86667 6.4,3.7c3.46667,1.83333 5.75,2.93333 6.85,3.3c0.83333,0.33333 4.23333,0.3 10.2,-0.1c5.53333,0.23333 8.3,2.18333 8.3,5.85c0,0.43333 -0.13333,1.28333 -0.4,2.55c-0.43333,1.9 -1.03333,3.63333 -1.8,5.2c-2.43333,5 -6.08333,7.5 -10.95,7.5c-1.78411,0 -3.51745,-0.23333 -5.2,-0.7c-0.40898,-1.18464 -1.15898,-1.4513 -2.25,-0.8c-0.61953,-0.23372 -1.2362,-0.51706 -1.85,-0.85c-1.03333,-0.52747 -2.05,-1.16081 -3.05,-1.9c-3.83333,-2.83333 -7.83333,-4.25 -12,-4.25c-1.26667,0 -2.38333,0.18333 -3.35,0.55c-1.03333,0.36667 -1.66667,0.85 -1.9,1.45c1.7,0.96667 4.03333,2.05 7,3.25c1.39023,0.55612 2.54023,1.02279 3.45,1.4c-1.18815,0.99948 -2.68815,2.29948 -4.5,3.9c-4.76667,3.3 -10.21667,4.95 -16.35,4.95c-3.13333,0 -6.3,-0.75 -9.5,-2.25c-1.26667,-0.56667 -3.13333,-1.65 -5.6,-3.25c-3.0806,-1.96042 -7.41393,-2.84375 -13,-2.65c-0.10065,-0.16081 -0.18398,-0.27747 -0.25,-0.35c-0.36432,0.15182 -0.78099,0.28516 -1.25,0.4c-6.7276,0.35625 -11.14427,0.13958 -13.25,-0.65c-2.62812,-0.90729 -5.11146,-2.84063 -7.45,-5.8c5.73607,0.32773 10.3694,0.72773 13.9,1.2c4.46667,0.56667 6.85,0.85 7.15,0.85c1.1,0 1.83333,-0.11667 2.2,-0.35c0.1,-0.06667 0.33333,-0.36667 0.7,-0.9c-2.03333,-1.9 -4.31667,-3.2 -6.85,-3.9c-1.76667,-0.5 -4.31667,-0.81667 -7.65,-0.95c-8.7,-0.3 -15.7,-1.43333 -21,-3.4c-3.13333,-1.16667 -6,-3.15 -8.6,-5.95c-2.43333,-2.56667 -3.65,-4.66667 -3.65,-6.3c0,-4.3 2,-8.71667 6,-13.25c2.7,-3.1 7.08333,-6.93333 13.15,-11.5c5.48867,-4.1487 9.33867,-7.1487 11.55,-9c-0.00573,0.80911 -0.0224,1.67578 -0.05,2.6M698.85,340.3c1.37188,0 2.67188,0.1 3.9,0.3c-0.76667,3.70612 -1.15,7.62279 -1.15,11.75c0,0.36667 -0.03333,2.43333 -0.1,6.2c0.3,4.23333 1.35,8.05 3.15,11.45c3.85352,7.25365 10.73685,12.03698 20.65,14.35c-1.16484,1.21823 -2.56484,2.56823 -4.2,4.05c-5.5,5 -11.9,9.98333 -19.2,14.95c-19.06667,12.96667 -34.25,19.45 -45.55,19.45c-5.6,0 -10.31667,-1.85 -14.15,-5.55c-2.50443,-2.42031 -4.40443,-5.43698 -5.7,-9.05c8.90339,-6.02982 17.85339,-18.44648 26.85,-37.25c4.33789,-9.07331 7.88789,-18.10664 10.65,-27.1c2.01523,-0.94349 4.96523,-1.72682 8.85,-2.35c4.96667,-0.8 10.3,-1.2 16,-1.2M668,300.4c0.23333,0.33333 0.35,0.98333 0.35,1.95c0,0.36667 -3.58333,2.51667 -10.75,6.45c-7.23333,3.96667 -11.31667,5.95 -12.25,5.95c-0.86667,0 -1.95,-0.91667 -3.25,-2.75c-1.16667,-1.63333 -1.75,-2.63333 -1.75,-3c0,-3.33333 3.26667,-5.9 9.8,-7.7c5.73333,-1.6 11.55,-2.11667 17.45,-1.55c0,0.1 0.13333,0.31667 0.4,0.65M679.35,313.75c0,1 -1.76667,5.46667 -5.3,13.4c-3.66667,8.33333 -6.23333,13.28333 -7.7,14.85c-1.06667,-1.8 -1.88333,-3.21667 -2.45,-4.25c-1.03333,-1.83333 -1.55,-3.33333 -1.55,-4.5c0,-1.06667 0.88333,-3.41667 2.65,-7.05c1.83333,-3.73333 3.78333,-7.15 5.85,-10.25c5.66667,-8.46667 8.5,-9.2 8.5,-2.2M725.6,330.45c4.85182,-6.17279 10.35182,-10.37279 16.5,-12.6c1.85508,-0.56458 3.65508,-1.01458 5.4,-1.35c9.85365,-1.86862 18.27031,-0.16862 25.25,5.1c0.05521,0.03255 0.10521,0.06589 0.15,0.1c3.13333,2.4 5.63333,5.28333 7.5,8.65c1.63333,3 2.45,5.68333 2.45,8.05c0,0.85951 -0.11667,1.84284 -0.35,2.95c-0.2207,1.19453 -0.5707,2.52786 -1.05,4c-1.3,4 -3.16667,7.63333 -5.6,10.9c-1.22982,1.6418 -2.56315,3.1418 -4,4.5c-1.78906,1.70456 -3.73906,3.18789 -5.85,4.45c-6.03385,3.6 -13.36719,5.4 -22,5.4c-9.5,0 -16.65,-3.11667 -21.45,-9.35c-3.23333,-4.23333 -4.85,-8.48333 -4.85,-12.75c0,-4.93333 2.33333,-10.55 7,-16.85c0.2987,-0.40273 0.5987,-0.80273 0.9,-1.2M700.35,282.5c0,5.03672 1.3,9.10339 3.9,12.2c1.50938,1.83542 3.45937,3.33542 5.85,4.5c0.33333,0.16667 2.56667,1.01667 6.7,2.55c2.03333,0.76667 3.05,1.6 3.05,2.5c0,1.4 -6.05,6.4 -18.15,15c-0.34492,0 -0.67826,-0.03333 -1,-0.1c-1.82057,-0.21458 -3.37057,-1.09792 -4.65,-2.65c-1.25951,-1.5431 -2.24284,-3.75977 -2.95,-6.65c-0.46667,-2 -0.76667,-4.2 -0.9,-6.6c-0.06667,-2.03333 -0.1,-3.08333 -0.1,-3.15c0,-0.11185 0,-0.22852 0,-0.35c0.0388,-5.44388 1.00547,-10.86055 2.9,-16.25c2.3,-6.43333 5.5,-11.26667 9.6,-14.5c-0.06667,0.63333 -0.35,1.66667 -0.85,3.1c-0.43333,1.26667 -0.65,2.35 -0.65,3.25c0,1.06667 -0.45,2.33333 -1.35,3.8c-0.93333,1.5 -1.4,2.61667 -1.4,3.35M844.85,256.5c0,-2.03333 1.25,-4.15 3.75,-6.35c2.36667,-2.1 5.11667,-3.66667 8.25,-4.7c3.33333,-1.13333 6.08333,-1.3 8.25,-0.5c2.5,0.93333 3.75,3.03333 3.75,6.3c0,1.2 -0.83333,2.5 -2.5,3.9c-3.5,2.9 -5.5,4.6 -6,5.1h-13c-0.9,-0.7 -1.5,-1.2 -1.8,-1.5c-0.46667,-0.46667 -0.7,-1.21667 -0.7,-2.25M818.4,257.6c-0.96667,1.43333 -1.65,2.31667 -2.05,2.65c-7.5,1.5 -12.41667,2.25 -14.75,2.25c-1.03333,0 -2.18333,-0.16667 -3.45,-0.5l-1.55,-0.5l-0.75,-0.75c-0.26667,-2.46667 1,-4.8 3.8,-7c3.6,-2.8 8.75,-4.05 15.45,-3.75c0.26667,0.26667 1.15,1.11667 2.65,2.55c1.4,1.36667 2.1,2.18333 2.1,2.45c0,0.3 -0.48333,1.16667 -1.45,2.6M706.9,208c2.81602,2.48073 5.16602,4.46406 7.05,5.95c-0.15573,1.70586 -0.2724,3.48919 -0.35,5.35c0,0.83281 0,1.68281 0,2.55c0,1.64948 0.11667,3.39948 0.35,5.25c-0.275,-0.00417 -0.54167,-0.00417 -0.8,0c-0.20482,-0.34896 -0.40482,-0.69896 -0.6,-1.05c-1.60065,-2.87266 -3.03398,-5.85599 -4.3,-8.95c-1.45247,-3.56927 -2.68581,-7.28594 -3.7,-11.15c0.74297,0.64297 1.5263,1.3263 2.35,2.05M750.25,239.3c1.14167,4.53529 2.225,8.43529 3.25,11.7c-2.72344,-4.09622 -5.57344,-9.01289 -8.55,-14.75c-5.23034,-10.10768 -8.73034,-18.39102 -10.5,-24.85c3.80964,-0.30365 7.35964,-0.42031 10.65,-0.35c0.18021,5.88398 1.89688,15.30065 5.15,28.25M759.7,212.1c1.35885,-0.56875 3.49219,-1.41875 6.4,-2.55c-1.59193,6.5513 -2.49193,12.8013 -2.7,18.75c-0.7418,0.2401 -1.4418,0.47344 -2.1,0.7c-0.27917,-1.42031 -0.5625,-2.88698 -0.85,-4.4c-0.23151,-5.4319 -0.43151,-8.8819 -0.6,-10.35c-0.04987,-0.74245 -0.09987,-1.45911 -0.15,-2.15M980.05,485.1c0.27266,0.44674 0.53932,0.91341 0.8,1.4c1.63867,3.08607 2.60534,5.73607 2.9,7.95c-0.6,0.56159 -0.9,1.16159 -0.9,1.8c0,0.16667 0.18333,0.38333 0.55,0.65c0.07409,0.05547 0.20742,0.1388 0.4,0.25c-0.06497,0.87565 -0.16497,2.07565 -0.3,3.6c-0.2,2.8 -0.21667,5.13333 -0.05,7c0.56667,5.9 3.03333,8.48333 7.4,7.75c-0.2,-0.33333 -1.18333,-1.43333 -2.95,-3.3c-1.36667,-1.4 -2.05,-2.68333 -2.05,-3.85c1.01758,-4.2737 1.76758,-7.5737 2.25,-9.9c2.54167,-0.66549 5.29167,-1.06549 8.25,-1.2c0.94362,0.72057 2.21029,2.12057 3.8,4.2c1.53047,1.9457 3.34714,4.4957 5.45,7.65c0.61328,0.91302 1.17995,1.77969 1.7,2.6c3.36667,5.20286 5.05,8.55286 5.05,10.05c-0.53333,4.3 -2.01667,8.56667 -4.45,12.8c-4.86667,8.46667 -12.05,12.7 -21.55,12.7c-0.66146,0 -1.57812,-0.25 -2.75,-0.75c-0.41393,-0.16146 -0.86393,-0.36146 -1.35,-0.6c-1.70117,-0.85065 -4.73451,-1.31732 -9.1,-1.4c-0.41758,0 -0.85091,0 -1.3,0c-2.23333,0 -5.41667,1.25 -9.55,3.75c-3.20052,1.93581 -6.15052,3.11914 -8.85,3.55c-0.76276,0.13333 -1.51276,0.2 -2.25,0.2c-6.53333,0 -13.6,-3.25 -21.2,-9.75c-1.91198,-1.6349 -3.82865,-3.45156 -5.75,-5.45c14.95065,-1.29844 26.25065,-8.64844 33.9,-22.05c2.9,-5.1 5.1,-10.81667 6.6,-17.15c1.06667,-4.6 1.6,-8.51667 1.6,-11.75c0,-1.65885 -0.13333,-3.29219 -0.4,-4.9c2.64271,-0.96667 4.72604,-1.45 6.25,-1.45c2.92604,0 5.54271,1.86667 7.85,5.6M774.75,267.45c4.24831,4.52044 8.56497,7.82044 12.95,9.9c2.31497,1.11237 4.63164,1.87904 6.95,2.3c6.62682,1.24596 13.36016,0.0793 20.2,-3.5c0.23503,-0.10729 0.46836,-0.22396 0.7,-0.35c7.0793,-3.85013 11.51263,-6.8668 13.3,-9.05c1.28359,4.09102 2.80026,7.32435 4.55,9.7c0.31055,0.40208 0.61055,0.76875 0.9,1.1c2.17747,2.45924 7.96081,3.35924 17.35,2.7c2.22357,-0.15469 4.37357,-0.50469 6.45,-1.05c-0.61836,0.36667 -0.95169,0.55 -1,0.55c-3.3,1.6 -6.81667,3.03333 -10.55,4.3c-7.33333,2.46667 -15.23333,3.7 -23.7,3.7c-11.03333,0 -19.86667,-1.08333 -26.5,-3.25c-4.72279,-1.55326 -8.92279,-3.81992 -12.6,-6.8c-2.16458,-1.73255 -4.14792,-3.71589 -5.95,-5.95c-1.05573,-1.31602 -2.0724,-2.74935 -3.05,-4.3M762.65,235.2c0.27279,0.00794 0.53945,0.00794 0.8,0c0.06484,1.52109 0.16484,3.00443 0.3,4.45c-0.36185,-1.42617 -0.72852,-2.90951 -1.1,-4.45M906.5,229.5c-2.33333,11.56667 -6.3,22 -11.9,31.3c-4.66172,7.77552 -10.24505,14.47552 -16.75,20.1c-2.30365,1.99531 -4.72031,3.84531 -7.25,5.55c1.60195,-2.1888 2.76862,-4.2388 3.5,-6.15c0.66667,-1.62604 1,-3.14271 1,-4.55c0,-1.5 -0.16667,-2.75 -0.5,-3.75c0.16211,-0.32435 -0.55456,-0.49102 -2.15,-0.5c1.31484,-1.11862 2.58151,-2.35195 3.8,-3.7c6.97018,-7.60247 11.65352,-14.16914 14.05,-19.7c0.82773,-1.93138 1.51107,-3.84805 2.05,-5.75c4.73815,-6.51589 8.62148,-13.31589 11.65,-20.4c1.99583,-4.63607 3.5125,-9.1694 4.55,-13.6c0.03333,0.71797 0.05,1.43464 0.05,2.15c0,5.8 -0.7,12.13333 -2.1,19z" fill="#ffffff"/><path d="M822.8,523.05c-0.04948,0.91055 -0.19948,2.94388 -0.45,6.1c-0.09206,1.15951 -0.17539,2.20951 -0.25,3.15c-5.27396,4.27878 -11.14062,7.37878 -17.6,9.3c-3.06589,2.52174 -7.03255,5.45508 -11.9,8.8c-9.86667,6.73333 -16.95,10.1 -21.25,10.1c-1,0 -4.18333,-4.18333 -9.55,-12.55c-2.81875,-4.37565 -5.05208,-8.22565 -6.7,-11.55c-6.28685,-4.36029 -12.75352,-12.37695 -19.4,-24.05c-0.26562,0.14284 -0.54896,0.27617 -0.85,0.4c-4.06667,1.66667 -9.56667,2.5 -16.5,2.5c-11.36875,0 -20.76875,-3 -28.2,-9c1.62578,-0.76914 3.44245,-1.71914 5.45,-2.85c5.99466,3.56667 13.52799,5.35 22.6,5.35c6.5,0 11.28333,-0.5 14.35,-1.5c1.53333,-0.5 2.8,-1 3.8,-1.5c1.1,0 1.93333,0.53333 2.5,1.6c0.33333,0.66667 0.5,1.3 0.5,1.9c0,0.16914 -0.03333,0.33581 -0.1,0.5c0.22669,0.44635 0.47669,0.92969 0.75,1.45c2.36667,4 5.18333,7.65 8.45,10.95c3.84115,3.89023 8.00781,7.0569 12.5,9.5c0.31172,0.72917 0.62839,1.49583 0.95,2.3c1.26758,2.8168 2.66758,5.30013 4.2,7.45c-0.9043,-0.24271 -1.78763,-0.52604 -2.65,-0.85c0.19453,0.30677 0.39453,0.60677 0.6,0.9c3.1,4.4 6.11667,8.75 9.05,13.05c3.6,0 9.53333,-3 17.8,-9c0.86081,-0.62227 1.67747,-1.22227 2.45,-1.8c-1.03802,0.1151 -2.10469,0.19844 -3.2,0.25c2.05247,-2.10247 4.20247,-4.38581 6.45,-6.85c8.8806,-1.66523 17.01393,-5.7819 24.4,-12.35c0.55404,-0.48581 1.15404,-1.05247 1.8,-1.7M781.35,364.8c0.61693,0 2.31693,-0.26667 5.1,-0.8c-0.24492,0.37591 -0.51159,0.74258 -0.8,1.1c0.20573,-0.01029 0.40573,-0.02695 0.6,-0.05c-1.02201,1.29674 -2.33867,2.98008 -3.95,5.05c-0.70052,0.89518 -1.36719,1.72852 -2,2.5c-0.8224,0.43229 -1.8724,0.98229 -3.15,1.65c-0.96966,0.84167 -1.98633,1.625 -3.05,2.35c-1.05156,0.76888 -2.15156,1.48555 -3.3,2.15c-0.47799,0.29362 -0.97799,0.57695 -1.5,0.85c-0.90091,0.49505 -1.83424,0.96172 -2.8,1.4c-0.9668,0.44622 -1.9668,0.86289 -3,1.25c-0.30117,0.12031 -0.61784,0.23698 -0.95,0.35c0.00625,0.02266 0.00625,0.03932 0,0.05c-2.07578,0.89036 -4.45911,1.85703 -7.15,2.9c0.0582,-0.11159 0.1082,-0.24492 0.15,-0.4c0.12005,-0.20964 0.23672,-0.4263 0.35,-0.65c-0.05326,0.02826 -0.10326,0.04492 -0.15,0.05c0.59531,-1.91784 1.36198,-4.18451 2.3,-6.8c4.00443,-1.17435 7.67109,-2.82435 11,-4.95c0.5168,-0.29883 1.0168,-0.61549 1.5,-0.95c2.92487,-2.01719 5.57487,-4.41719 7.95,-7.2c0.91914,0.1 1.86914,0.15 2.85,0.15M848.45,350.65c18.7,1.08984 33.08333,8.28984 43.15,21.6c0.62279,0.82305 1.22279,1.65638 1.8,2.5c1.0293,1.50065 1.9793,3.03398 2.85,4.6c0.02721,-0.03099 0.04388,-0.06432 0.05,-0.1c1.23724,2.56719 2.48724,5.20052 3.75,7.9c-0.01237,0.03203 -0.02904,0.0487 -0.05,0.05c2.50013,6.46211 3.9168,13.39544 4.25,20.8c0.06667,1.19023 0.1,2.39023 0.1,3.6c0,1.66914 -0.43333,6.03581 -1.3,13.1c-0.1931,1.84492 -0.42643,3.86159 -0.7,6.05c-0.0681,0.6056 -0.1681,1.27227 -0.3,2c-2.97904,1.32852 -5.41237,2.41185 -7.3,3.25c0.09518,-0.31198 0.17852,-0.62865 0.25,-0.95c0.74049,-3.3819 1.35716,-6.49857 1.85,-9.35c1,-5.7681 1.5,-10.4681 1.5,-14.1c0,-0.31745 0,-0.63411 0,-0.95c-0.10143,-3.73346 -0.73477,-7.90013 -1.9,-12.5c-1.73333,-6.83333 -4.35,-12.96667 -7.85,-18.4c-8.29102,-12.98086 -20.37435,-20.53086 -36.25,-22.65c-0.92227,-0.11354 -1.87227,-0.21354 -2.85,-0.3c-2.19062,-0.2 -4.45729,-0.3 -6.8,-0.3c-0.27005,0 -0.78672,0.03333 -1.55,0.1c-1.56029,0.18177 -4.17695,0.53177 -7.85,1.05c-1.0793,0.14479 -2.0793,0.27813 -3,0.4c0.38711,-1.27721 0.97044,-2.81055 1.75,-4.6c0.38372,-0.87813 0.75039,-1.67813 1.1,-2.4c2.94466,-0.36667 6.34466,-0.55 10.2,-0.55c1.72513,0 3.40846,0.05 5.05,0.15h0.05M854.05,306.95c0.57526,3.96237 2.30859,8.17904 5.2,12.65c0.7763,1.21576 1.55964,2.34909 2.35,3.4c2.54505,-0.49792 5.11172,-0.76458 7.7,-0.8c-3.21237,0.44049 -5.4457,0.77383 -6.7,1c-3.65404,0.61719 -6.60404,1.25052 -8.85,1.9c-1.11693,-1.85104 -2.08359,-4.25104 -2.9,-7.2c-0.60143,-2.20508 -1.08477,-4.58841 -1.45,-7.15c1.79674,-1.43685 3.34674,-2.70352 4.65,-3.8M887.2,512.25c-1.54023,2.37513 -2.8069,4.40846 -3.8,6.1c0.09948,-0.66927 0.21615,-1.33594 0.35,-2c-1.44479,-2.84219 -2.61146,-5.89219 -3.5,-9.15c-0.37344,0.30182 -0.7901,0.61849 -1.25,0.95c0.95234,-1.36693 2.10234,-3.01693 3.45,-4.95c0.39232,-0.5543 0.75898,-1.08763 1.1,-1.6c-0.03333,0.72148 -0.05,1.40482 -0.05,2.05c0,0.06667 0,1.03333 0,2.9c0.24531,1.47227 0.82865,2.33893 1.75,2.6c0.39701,1.04336 1.04701,2.07669 1.95,3.1M789.4,315.35c3.56667,-0.53333 7.85,-0.6 12.85,-0.2c5.1,0.43333 9.36667,1.21667 12.8,2.35c3.86667,1.3 5.8,2.83333 5.8,4.6c0,1.26667 -1.35,5.15 -4.05,11.65c-1.13711,2.73568 -2.10378,5.05234 -2.9,6.95c-0.34779,0.87187 -0.66445,1.65521 -0.95,2.35c-0.06263,-0.06953 -0.1293,-0.1362 -0.2,-0.2c-0.81354,-0.73646 -1.56354,-1.40313 -2.25,-2c-0.64245,-0.54818 -1.22578,-1.03151 -1.75,-1.45c0.46849,-1.54167 1.06849,-3.35833 1.8,-5.45c1.9,-5.46667 3,-8.45 3.3,-8.95c0,-0.5 0.16667,-1 0.5,-1.5c-3.4,-0.53333 -9.43333,-1.3 -18.1,-2.3c-1.9987,-0.21784 -3.76536,-0.41784 -5.3,-0.6c-0.16901,-0.3069 -0.35234,-0.62357 -0.55,-0.95c-0.96445,-1.57526 -1.78112,-2.92526 -2.45,-4.05c0.45221,-0.09128 0.93555,-0.17461 1.45,-0.25M840.4,333.25c4.09883,-3.17292 8.24883,-5.67292 12.45,-7.5c0.72292,1.46706 1.70625,3.13372 2.95,5c-4.50508,1.66693 -8.77174,4.16693 -12.8,7.5c-0.93229,0.77695 -1.84896,1.59362 -2.75,2.45c-3.33789,3.18724 -6.22122,6.57057 -8.65,10.15c-1.72786,0.26146 -3.22786,0.46146 -4.5,0.6c0,-0.14154 0,-0.29154 0,-0.45c0,-2.06667 1.2,-4.73333 3.6,-8c0.94857,-1.28555 1.99857,-2.55221 3.15,-3.8c1.90599,-2.04818 4.08932,-4.03151 6.55,-5.95M719.6,521.5c3.66667,1.7 5.5,4.73333 5.5,9.1c0,4.13333 -1.25,8.26667 -3.75,12.4c-3.63333,6 -8.96667,9 -16,9c-1.77617,0 -3.45951,-0.16667 -5.05,-0.5c-1.14753,3.51497 -4.13086,7.36497 -8.95,11.55c-6.86667,5.96667 -13.86667,8.95 -21,8.95c-3.425,0 -6.69167,-0.43333 -9.8,-1.3c0.26406,-0.56172 0.53073,-1.16172 0.8,-1.8c0.59727,-1.40872 1.09727,-2.59206 1.5,-3.55c2.34336,0.43333 4.79336,0.65 7.35,0.65c6.1,0 11.28333,-1.86667 15.55,-5.6c1.73333,-1.53333 3.68333,-4 5.85,-7.4c0.23802,-0.41901 0.47135,-0.83568 0.7,-1.25l0.25,-0.35v-0.1c0.48815,-0.73607 0.95482,-1.43607 1.4,-2.1c-0.06576,-0.04844 -0.14909,-0.09844 -0.25,-0.15l2.7,-5.4c0.6138,0.33294 1.23047,0.61628 1.85,0.85c1.09102,-0.6513 1.84102,-0.38464 2.25,0.8c1.68255,0.46667 3.41589,0.7 5.2,0.7c4.86667,0 8.51667,-2.5 10.95,-7.5c0.76667,-1.56667 1.36667,-3.3 1.8,-5.2c0.26667,-1.26667 0.4,-2.11667 0.4,-2.55c0,-3.66667 -2.76667,-5.61667 -8.3,-5.85c-5.96667,0.4 -9.36667,0.43333 -10.2,0.1c-1.1,-0.36667 -3.38333,-1.46667 -6.85,-3.3c-3.46667,-1.83333 -5.6,-3.06667 -6.4,-3.7c-1.21693,-0.9293 -2.33359,-1.9293 -3.35,-3c-1.16055,-0.98685 -2.36055,-2.12018 -3.6,-3.4c0.31029,-0.17786 0.62695,-0.37786 0.95,-0.6c2.66667,-1.83333 4.41667,-2.9 5.25,-3.2h0.1c1.26471,0.95781 2.63138,1.95781 4.1,3c3.43437,2.41966 6.13437,4.33633 8.1,5.75c2.34492,0.69466 4.92826,1.29466 7.75,1.8c7.13333,1.3 11.53333,2.35 13.2,3.15M712.8,330.45l-0.35,-0.3c-1.61979,-1.44401 -3.01979,-2.64401 -4.2,-3.6c0.55365,-0.88776 1.12031,-1.75443 1.7,-2.6c1.82135,-2.55052 3.92135,-4.93385 6.3,-7.15c8.4375,-7.88581 18.8375,-12.43581 31.2,-13.65c0.36068,-0.03841 0.71068,-0.07174 1.05,-0.1c7.67839,-0.65352 14.67839,0.04648 21,2.1c4.00625,1.33164 7.73958,3.19831 11.2,5.6c2.10794,1.46042 3.99128,3.04375 5.65,4.75c-0.93268,0.41029 -1.81602,0.87695 -2.65,1.4c-1.08724,0.67956 -2.03724,1.42956 -2.85,2.25c-1.31875,-1.21523 -2.78542,-2.34857 -4.4,-3.4c-1.63945,-1.05586 -3.35612,-1.98919 -5.15,-2.8c-6.73268,-2.9707 -14.46602,-4.0207 -23.2,-3.15c-0.34609,0.03568 -0.69609,0.06901 -1.05,0.1c-10.83268,1.31536 -19.93268,5.38203 -27.3,12.2c-1.5043,1.39349 -2.88763,2.86016 -4.15,4.4c-1.01406,1.2737 -1.9474,2.59036 -2.8,3.95M702.35,231.5c0,-0.26654 0,-0.51654 0,-0.75c0.11641,1.04896 0.31641,2.04896 0.6,3h-0.1c0,-0.09414 -0.08333,-0.24414 -0.25,-0.45c5.66953,20.42005 18.0862,36.92005 37.25,49.5c0.62708,0.41003 1.26042,0.81003 1.9,1.2c4.08802,2.56589 8.37135,4.88255 12.85,6.95c3.90091,1.79336 7.93424,3.39336 12.1,4.8c2.04167,0.71185 4.10833,1.36185 6.2,1.95c7.93398,2.71654 17.11732,4.91654 27.55,6.6c1.53333,0.23333 8.31667,1.2 20.35,2.9c1.89766,0.27005 3.71432,0.53672 5.45,0.8c-5.8418,0.66667 -11.97513,1 -18.4,1c-13.99219,0 -26.90885,-1.75 -38.75,-5.25c-6.74687,-2.00417 -13.14687,-4.5875 -19.2,-7.75c-5.64544,-2.9151 -10.99544,-6.34844 -16.05,-10.3c-4.29831,-3.35391 -8.38164,-7.08724 -12.25,-11.2c-9.13333,-9.73333 -16.15,-20.8 -21.05,-33.2c-1.28242,-3.23841 -2.39909,-6.47174 -3.35,-9.7c0.24961,-0.10924 0.49961,-0.22591 0.75,-0.35h0.65c0.26667,0 0.93333,-0.13333 2,-0.4c0.55977,-0.15742 0.97643,-0.29076 1.25,-0.4c0.17982,0.65703 0.34648,1.30703 0.5,1.95c0,-0.24896 0,-0.54896 0,-0.9M910.95,189.1c-2.79258,-4.26549 -5.30924,-7.98216 -7.55,-11.15c0.4556,-0.0612 0.82227,-0.1612 1.1,-0.3c0.46667,-0.26667 0.75,-0.4 0.85,-0.4h0.25c0.16667,-0.23333 0.25,-0.86667 0.25,-1.9c0,-2.58372 -0.7,-4.68372 -2.1,-6.3c0.34076,-0.41862 0.69076,-0.86862 1.05,-1.35c-0.41107,0.4556 -0.7944,0.8556 -1.15,1.2c-0.21693,-0.24193 -0.45026,-0.47526 -0.7,-0.7c0.1,-0.31992 0.15,-0.68659 0.15,-1.1c0,-0.43333 -0.86667,-2.11667 -2.6,-5.05c-0.33789,-0.58359 -0.67122,-1.13359 -1,-1.65c0.07474,-0.47292 0.14141,-0.97292 0.2,-1.5c-0.35169,0.06042 -0.70169,0.11042 -1.05,0.15c-0.94674,-1.36484 -1.71341,-2.21484 -2.3,-2.55c-0.83607,-0.04896 -1.65273,-0.06563 -2.45,-0.05c-4.14727,-7.675 -9.0806,-14.925 -14.8,-21.75c-7.91146,-9.48177 -16.41146,-17.1151 -25.5,-22.9c0.77708,-1.82865 1.66042,-3.87865 2.65,-6.15c6.00599,2.97917 11.20599,6.54583 15.6,10.7c3.96667,3.76667 8.18333,8.91667 12.65,15.45c6.5,9.43333 10.28333,14.83333 11.35,16.2c6.33333,8.06667 11.1,18.3 14.3,30.7c1.11042,4.3431 1.97708,8.7431 2.6,13.2c-0.57253,-0.90898 -1.17253,-1.84232 -1.8,-2.8z" fill="#210c2a"/><path d="M796.6,537.1c-2.24753,2.46419 -4.39753,4.74753 -6.45,6.85c-0.91641,0.03333 -1.84974,0.05 -2.8,0.05c-8.24336,0 -15.32669,-0.86667 -21.25,-2.6c-1.53242,-2.14987 -2.93242,-4.6332 -4.2,-7.45c-0.32161,-0.80417 -0.63828,-1.57083 -0.95,-2.3c7.76979,4.23333 16.51979,6.35 26.25,6.35c3.23112,0 6.36445,-0.3 9.4,-0.9M715.25,441.15c0.86133,-1.13333 1.79466,-2.21667 2.8,-3.25c3.4293,-3.46042 7.69596,-6.26042 12.8,-8.4l0.5,0.75c-4.56667,4.16667 -8.06667,7.81667 -10.5,10.95c-2.7,3.43333 -4.86667,7.11667 -6.5,11.05l0.3,1.8c0.03333,0.2 0.1,0.35 0.2,0.45c2.06667,-0.4 6.53333,-2.38333 13.4,-5.95c6.43333,-3.36667 10.3,-5.05 11.6,-5.05c1.56667,0 2.58333,0.66667 3.05,2c0.13333,0.4 0.2,1.15 0.2,2.25c0,0.83333 -0.33333,3.4 -1,7.7c-0.66667,4.26667 -1,6.81667 -1,7.65c0,2.79336 0.86667,5.42669 2.6,7.9c0.05586,0 0.10586,0 0.15,0c0.01901,0.08437 0.03568,0.16771 0.05,0.25c4.99154,6.80169 16.64154,12.38503 34.95,16.75c8.2,1.96667 17.2,3.53333 27,4.7c5.49479,0.67708 13.81146,1.26042 24.95,1.75c-0.78008,-0.21185 -1.51341,-0.41185 -2.2,-0.6c6.46992,-0.22917 11.76992,-0.74583 15.9,-1.55c4.24375,-0.81706 7.27708,-1.93372 9.1,-3.35c0.46563,-0.36576 0.84896,-0.76576 1.15,-1.2c0.22161,-0.24987 0.40495,-0.51654 0.55,-0.8c0.32057,-0.64635 0.50391,-1.34635 0.55,-2.1c-0.0974,-0.93503 -0.1474,-1.68503 -0.15,-2.25c-0.91758,0.1 -1.86758,0.15 -2.85,0.15c-2.50937,0 -4.87604,-0.25 -7.1,-0.75c-7.14102,-1.57812 -12.67435,-5.74479 -16.6,-12.5c-3.19206,-5.44844 -5.07539,-11.84844 -5.65,-19.2c-1.23607,3.24206 -2.65273,6.30872 -4.25,9.2c-8.36667,15 -19.83333,22.5 -34.4,22.5c-15.2,0 -25.93333,-9.16667 -32.2,-27.5c-3.36667,-9.8 -5.05,-19.93333 -5.05,-30.4c0,-3.40065 0.21667,-6.95065 0.65,-10.65c0.02318,-0.08372 0.03984,-0.16706 0.05,-0.25c0.46211,-3.81172 1.16211,-7.77839 2.1,-11.9c0.3474,-1.56393 0.73073,-3.14727 1.15,-4.75c1.18997,-4.55924 2.43997,-8.20924 3.75,-10.95c0.09453,-0.1388 0.17786,-0.2888 0.25,-0.45c-0.0418,0.15508 -0.0918,0.28841 -0.15,0.4c2.69089,-1.04297 5.07422,-2.00964 7.15,-2.9c0.00625,-0.01068 0.00625,-0.02734 0,-0.05c0.33216,-0.11302 0.64883,-0.22969 0.95,-0.35c1.0332,-0.38711 2.0332,-0.80378 3,-1.25c0.96576,-0.43828 1.89909,-0.90495 2.8,-1.4c0.52201,-0.27305 1.02201,-0.55638 1.5,-0.85c1.14844,-0.66445 2.24844,-1.38112 3.3,-2.15c1.06367,-0.725 2.08034,-1.50833 3.05,-2.35c1.2776,-0.66771 2.3276,-1.21771 3.15,-1.65c0.63281,-0.77148 1.29948,-1.60482 2,-2.5c1.61133,-2.06992 2.92799,-3.75326 3.95,-5.05c2.34271,-0.29271 4.89271,-0.35937 7.65,-0.2c5.86667,0.33333 11.03333,1.6 15.5,3.8c4.96667,2.46667 8.03333,5.66667 9.2,9.6c1.3,4.1 2.9,9.51667 4.8,16.25c1.48112,5.26836 2.54779,9.30169 3.2,12.1c1.4793,-2.53346 3.19596,-4.9168 5.15,-7.15c7.56667,-8.7 15.93333,-12.18333 25.1,-10.45c9.56667,1.63333 17,6.66667 22.3,15.1c3.14271,4.99141 5.04271,9.89141 5.7,14.7c0.16667,1.28008 0.25,2.54674 0.25,3.8c0,1.23685 -0.01667,2.47018 -0.05,3.7c-0.13659,5.64115 -0.60326,11.14115 -1.4,16.5c-0.46042,3.30378 -1.06042,6.55378 -1.8,9.75c-0.36732,3.43242 -1.23398,6.86576 -2.6,10.3c0.26497,2.54609 0.48164,4.81276 0.65,6.8c0.46667,4.75677 0.7,7.90677 0.7,9.45c0,3.23333 -0.33333,5.36667 -1,6.4c-1.19766,1.91628 -3.56432,3.13294 -7.1,3.65c-1.36471,0.23333 -2.91471,0.35 -4.65,0.35c-1.43333,0 -3.46667,-0.58333 -6.1,-1.75c-0.49518,-0.22318 -0.94518,-0.43984 -1.35,-0.65c-2.51289,4.56979 -6.52956,7.88646 -12.05,9.95c-1.23997,0.46081 -2.58997,0.86081 -4.05,1.2c-2.91016,0.73164 -6.24349,1.23164 -10,1.5c-2.6,0.16667 -7.25,0.25 -13.95,0.25c-0.52331,0 -1.05664,-0.01667 -1.6,-0.05c-4.33138,2.93659 -10.53138,6.95326 -18.6,12.05c-17.7,11.16667 -27.63333,16.75 -29.8,16.75c-9.2,0 -16.7,-9.16667 -22.5,-27.5c-1.83333,-5.8 -3.38333,-12.15 -4.65,-19.05c-0.16836,-0.93503 -0.31836,-1.80169 -0.45,-2.6c-5.50768,-2.93828 -8.14102,-7.08828 -7.9,-12.45c0.03333,-1.26667 0.41667,-3.78333 1.15,-7.55c0.6,-3.16667 0.8,-5.61667 0.6,-7.35c-2.8,1.76667 -5.3,3.15 -7.5,4.15c-4.06667,1.8 -8.98333,2.91667 -14.75,3.35c-2.06667,-0.1 -3.38333,-0.88333 -3.95,-2.35c-0.2,-0.5 -0.3,-1.38333 -0.3,-2.65c0,-4.45534 1.65,-8.92201 4.95,-13.4c0.07435,-0.05534 0.14102,-0.12201 0.2,-0.2M802.25,440.6c0,0.13333 0.35,1.76667 1.05,4.9c1.1,3.06667 2.75,4.6 4.95,4.6c4.46667,0 6.98333,-4.81667 7.55,-14.45c-0.2,-10.46667 -0.13333,-16.56667 0.2,-18.3l-0.5,-2c-6.1,-3.8 -10.08333,-1.88333 -11.95,5.75c-0.86667,3.46667 -1.3,9.96667 -1.3,19.5M747.9,486.7c2.69857,1.39154 6.26523,3.6082 10.7,6.65c6.2,3.4 14.86667,6.13333 26,8.2h21.2c1.21029,-0.78203 2.34362,-1.51536 3.4,-2.2c-9.3293,-1.03268 -19.8793,-3.29935 -31.65,-6.8c-10.61146,-3.18034 -21.01146,-6.94701 -31.2,-11.3c0.5168,1.85755 1.03346,3.67422 1.55,5.45M851.75,433.15l-0.25,0.2c-4.83333,0.16667 -8.4,3.11667 -10.7,8.85c-1.53333,3.73333 -2.3,7.66667 -2.3,11.8c0,0.93333 0.06667,1.56667 0.2,1.9c0.36667,0.93333 1.21667,1.58333 2.55,1.95h4c1.5,-1.2 3.06667,-5.13333 4.7,-11.8c1.36667,-5.66667 2.05,-9.4 2.05,-11.2c0,-1.03333 -0.08333,-1.6 -0.25,-1.7M861.75,484.2c1.2819,0.23906 2.26523,0.38906 2.95,0.45c0.39115,0.06667 0.69115,0.1 0.9,0.1c1,0 2.41667,-0.15 4.25,-0.45c1.03333,-0.16667 2.7,-0.43333 5,-0.8c0.36237,-2.15521 0.6457,-4.88854 0.85,-8.2c0.11589,-1.75052 0.19922,-3.68385 0.25,-5.8c-3.39466,5.70703 -7.81133,9.55703 -13.25,11.55c-0.25872,1.10651 -0.57539,2.15651 -0.95,3.15M912.75,191.9c0.9,6.12422 1.35,12.35755 1.35,18.7c0,6.53333 -0.8,13.61667 -2.4,21.25c-2.56667,12.26667 -6.83333,23.31667 -12.8,33.15c-3.92253,6.43997 -8.45586,12.17331 -13.6,17.2c-7.85469,7.71823 -17.13802,13.76823 -27.85,18.15c-1.19375,0.48841 -2.41042,0.95508 -3.65,1.4c0.03333,0.50964 0.05,1.29297 0.05,2.35c0,0.93815 0.06667,1.88815 0.2,2.85c-1.30326,1.09648 -2.85326,2.36315 -4.65,3.8c0.36523,2.56159 0.84857,4.94492 1.45,7.15c0.81641,2.94896 1.78307,5.34896 2.9,7.2c2.24596,-0.64948 5.19596,-1.28281 8.85,-1.9c1.2543,-0.22617 3.48763,-0.55951 6.7,-1c0.67969,0.00521 1.36302,0.02187 2.05,0.05c6.93932,1.66133 12.83932,4.37799 17.7,8.15c4.49115,3.49466 8.09115,7.89466 10.8,13.2c2.73971,5.37995 4.45638,11.42995 5.15,18.15c0.23333,2.29805 0.35,4.66471 0.35,7.1c0,3.66667 -0.58333,7.5 -1.75,11.5c-0.96367,3.31016 -2.14701,5.57682 -3.55,6.8c-1.26276,-2.69948 -2.51276,-5.33281 -3.75,-7.9c-0.00612,0.03568 -0.02279,0.06901 -0.05,0.1c-0.8707,-1.56602 -1.8207,-3.09935 -2.85,-4.6c1.83385,-0.01016 3.50052,-0.56016 5,-1.65c0.63333,-1.95065 0.95,-3.20065 0.95,-3.75c0,-10.93333 -3,-20.55 -9,-28.85c-0.29674,-0.41068 -0.59674,-0.81068 -0.9,-1.2c-1.66094,-1.27383 -3.61094,-2.40716 -5.85,-3.4c-2.45586,-1.08659 -4.98919,-1.93659 -7.6,-2.55c-3.18685,-0.73333 -6.48685,-1.1 -9.9,-1.1c-4.2638,0 -8.04714,1.51667 -11.35,4.55c-0.46589,0.44727 -0.93255,0.9306 -1.4,1.45c-3.33333,3.7 -5,7.7 -5,12c0.02474,0.13281 0.04141,0.26615 0.05,0.4c-1.64154,-0.1 -3.32487,-0.15 -5.05,-0.15c-3.85534,0 -7.25534,0.18333 -10.2,0.55c-0.34961,0.72188 -0.71628,1.52188 -1.1,2.4c-0.77956,1.78945 -1.36289,3.32279 -1.75,4.6c-3.63125,0.46667 -5.78125,0.7 -6.45,0.7c-0.32799,0 -0.66133,-0.03333 -1,-0.1l-0.5,0.35c-0.10443,-0.07604 -0.22109,-0.15937 -0.35,-0.25c-0.31393,-0.24089 -0.66393,-0.52422 -1.05,-0.85c-0.86979,-0.71315 -1.86979,-1.61315 -3,-2.7c-0.50911,-0.45703 -1.04245,-0.95703 -1.6,-1.5c-2.86667,-2.83333 -5.01667,-4.81667 -6.45,-5.95c-0.21445,-0.17643 -0.43112,-0.35977 -0.65,-0.55c-0.34987,0.03333 -0.7332,0.05 -1.15,0.05l-0.35,-0.25c-0.20833,-0.13021 -0.34167,-0.51354 -0.4,-1.15c-3.12474,-2.14883 -6.44141,-3.66549 -9.95,-4.55c-0.69245,-0.14674 -1.39245,-0.28008 -2.1,-0.4c-0.01016,0.15612 -0.02682,0.30612 -0.05,0.45c-0.22891,2.81549 -0.97891,6.04883 -2.25,9.7c-1.61406,4.65052 -3.7974,8.96719 -6.55,12.95c-2.78307,0.53333 -4.48307,0.8 -5.1,0.8c-0.98086,0 -1.93086,-0.05 -2.85,-0.15c-2.37513,2.78281 -5.02513,5.18281 -7.95,7.2c-0.4832,0.33451 -0.9832,0.65117 -1.5,0.95c-3.32891,2.12565 -6.99557,3.77565 -11,4.95c-0.93802,2.61549 -1.70469,4.88216 -2.3,6.8c-4.48034,0.96667 -9.28034,1.45 -14.4,1.45c-0.51029,0 -1.02695,0 -1.55,0c-1.46706,2.34401 -6.16706,7.14401 -14.1,14.4c-8.13333,7.43333 -13.91667,12.46667 -17.35,15.1c-0.23333,0.2 -1.61667,1.41667 -4.15,3.65c-3.13333,2.6 -6.6,4.93333 -10.4,7c-10.87747,5.93594 -23.21081,9.18594 -37,9.75c0.29922,1.16445 0.64922,2.34779 1.05,3.55c0.93893,2.88737 2.07227,5.65404 3.4,8.3c0.59258,1.10195 1.20924,2.18529 1.85,3.25c0.7,1.13333 2.01667,2.48333 3.95,4.05c1.1,0.9 2.9,2.33333 5.4,4.3c4.53333,3.86667 6.83333,7.75 6.9,11.65c0,2.33333 0.15,4.51667 0.45,6.55c0.66667,4.73333 1.98333,9.05 3.95,12.95c2.84531,5.58359 6.79531,9.88359 11.85,12.9c-2.00755,1.13086 -3.82422,2.08086 -5.45,2.85c7.43125,6 16.83125,9 28.2,9c6.93333,0 12.43333,-0.83333 16.5,-2.5c0.30104,-0.12383 0.58438,-0.25716 0.85,-0.4c6.64648,11.67305 13.11315,19.68971 19.4,24.05c1.64792,3.32435 3.88125,7.17435 6.7,11.55c5.36667,8.36667 8.55,12.55 9.55,12.55c4.3,0 11.38333,-3.36667 21.25,-10.1c4.86745,-3.34492 8.83411,-6.27826 11.9,-8.8c6.45937,-1.92122 12.32604,-5.02122 17.6,-9.3c0.07461,-0.94049 0.15794,-1.99049 0.25,-3.15c0.25052,-3.15612 0.40052,-5.18945 0.45,-6.1c1.92995,-1.83216 4.29661,-4.29883 7.1,-7.4c2.5,-2.76667 4.15,-4.15 4.95,-4.15c0.83333,0 3.4,0.41667 7.7,1.25c1.21784,0.23789 2.28451,0.43789 3.2,0.6c2.37122,0.43333 3.85456,0.65 4.45,0.65c1.1526,0 2.28594,-0.05 3.4,-0.15c7.4319,-0.55612 13.8319,-3.03945 19.2,-7.45c1.42552,-1.13398 3.44219,-3.06732 6.05,-5.8c-0.16667,-1.26341 -0.25,-2.34674 -0.25,-3.25c0,-3.4 0.51667,-7.41667 1.55,-12.05c1.43333,-6.4 3.55,-12.08333 6.35,-17.05c2.22135,-3.93802 4.75469,-7.23802 7.6,-9.9c-0.23932,-0.67461 -0.48932,-1.42461 -0.75,-2.25c-1.16667,-3.7 -1.75,-6.03333 -1.75,-7c1.06185,-3.99779 2.11185,-8.36445 3.15,-13.1c1.88763,-0.83815 4.32096,-1.92148 7.3,-3.25c-0.45573,2.48385 -1.28906,5.68385 -2.5,9.6c-0.76667,2.53333 -1.5,4.91667 -2.2,7.15c0,1.06667 0.3,2.78333 0.9,5.15l0.1,0.35c6.83529,-4.46979 15.16862,-5.96979 25,-4.5c15.9,0.1 27.66667,4.91667 35.3,14.45c1.47591,1.84974 2.74258,3.73307 3.8,5.65c0.72422,1.36419 1.34089,2.73086 1.85,4.1c0.89896,-0.38307 1.86563,-0.68307 2.9,-0.9c5.04714,-1.125 9.7638,0.14167 14.15,3.8c0.41745,0.36836 0.83411,0.75169 1.25,1.15c1.83333,1.36667 3.38333,3.85 4.65,7.45c0.73646,2.1401 1.21979,4.12344 1.45,5.95c2.60951,-0.6612 5.82617,-0.87786 9.65,-0.65c1.37747,0.22617 2.76081,0.79284 4.15,1.7c3.00039,1.99297 6.03372,5.5763 9.1,10.75c0.15456,0.24857 0.30456,0.49857 0.45,0.75c4.2,7.26667 6.3,12.95 6.3,17.05c0,1.5 -0.38333,3.71667 -1.15,6.65c-1,3.86667 -2.35,7.41667 -4.05,10.65c-5.03333,9.46667 -11.96667,14.2 -20.8,14.2c-4.50208,0 -8.95208,-0.36667 -13.35,-1.1c-0.48203,-0.07708 -0.96536,-0.16042 -1.45,-0.25l-5.85,-1.4c-0.7,0 -3.58333,1.25 -8.65,3.75c-1.61263,0.79049 -3.11263,1.45716 -4.5,2c-2.95378,1.16667 -5.35378,1.75 -7.2,1.75c-0.18125,0 -0.36458,0 -0.55,0c-0.42305,1.37708 -1.32305,2.76042 -2.7,4.15c-0.82305,0.86315 -1.83971,1.72982 -3.05,2.6c-1.89479,1.37214 -3.97812,2.47214 -6.25,3.3c-3.52852,1.3 -7.51185,1.95 -11.95,1.95c-0.70729,0 -1.40729,-0.01667 -2.1,-0.05c-10.38503,-0.46693 -17.75169,-4.51693 -22.1,-12.15c-1.26615,-2.21576 -2.21615,-4.51576 -2.85,-6.9c-3.78164,-0.12682 -7.01497,-1.92682 -9.7,-5.4c-1.44388,1.09414 -3.44388,2.34414 -6,3.75c-5.81497,3.21497 -11.49831,5.08164 -17.05,5.6c-1.07409,0.1 -2.14076,0.15 -3.2,0.15c-13.6,0 -24.43333,-2.41667 -32.5,-7.25c-1.71081,-1.02643 -3.21081,-2.10977 -4.5,-3.25c-0.92422,4.78034 -2.17422,10.13034 -3.75,16.05c-0.75104,2.80599 -1.50104,5.38932 -2.25,7.75c14.23438,1.88698 30.08438,6.80365 47.55,14.75c9.20169,4.18854 16.66836,8.37188 22.4,12.55c0.0724,0.05521 0.13906,0.10521 0.2,0.15c6.06667,4.5 9.1,8.28333 9.1,11.35c0,1.04857 -0.05,1.94857 -0.15,2.7c-0.08021,0.82487 -0.21354,1.49154 -0.4,2c-0.6,1.6 -1.83333,2.91667 -3.7,3.95c-4.28268,2.3276 -12.99935,3.56094 -26.15,3.7c-0.97695,0.03333 -1.97695,0.05 -3,0.05c-13.53333,0 -22.28333,0.58333 -26.25,1.75c-4,1.16667 -14.7,1.75 -32.1,1.75c-8.05143,0 -14.20143,-1.31667 -18.45,-3.95c-1.36081,-0.86406 -2.52747,-1.86406 -3.5,-3c-1.9,-2.16667 -3.56667,-5.28333 -5,-9.35c-0.2043,-0.56901 -0.43763,-1.23568 -0.7,-2c-0.76081,0.09818 -1.54414,0.19818 -2.35,0.3c-3.16667,0 -6.06667,-0.38333 -8.7,-1.15c-0.83333,-0.23333 -3.1,-1.05 -6.8,-2.45c-6.26667,-2.43333 -13.76667,-3.65 -22.5,-3.65c-0.0349,0 -0.21823,-0.01667 -0.55,-0.05c-0.26276,0.23945 -0.52943,0.47279 -0.8,0.7c-8.46667,7.1 -13.51667,11.55 -15.15,13.35c-0.2901,0.32344 -0.6401,0.6401 -1.05,0.95c-3.58034,2.83008 -11.58034,5.28008 -24,7.35c-8.81771,1.48945 -21.20104,3.02279 -37.15,4.6c-10.78685,1.10156 -23.22018,2.21823 -37.3,3.35h-35c-5.16667,-2.4 -7.75,-5.95 -7.75,-10.65c0,-3.2431 2.68333,-6.5931 8.05,-10.05c5.36563,-3.41094 13.38229,-6.9276 24.05,-10.55c5.1099,-1.75547 12.64323,-4.0888 22.6,-7c0.40208,-0.44401 0.81875,-0.91068 1.25,-1.4c3.3,-3.73333 5.65,-6.18333 7.05,-7.35c0.46393,-0.4138 0.91393,-0.88047 1.35,-1.4c0.77214,-0.88125 1.52214,-1.91458 2.25,-3.1c1.2,-2.13333 2.13333,-3.66667 2.8,-4.6c1.02786,-1.48307 2.22786,-2.63307 3.6,-3.45c-4.00638,-1.96914 -7.67305,-4.76914 -11,-8.4c-2.4,-2.63333 -4.43333,-5.48333 -6.1,-8.55c-0.05521,-0.10456 -0.10521,-0.20456 -0.15,-0.3c-1.85807,-0.13333 -3.85807,-0.2 -6,-0.2c-9.03333,0 -15.28333,-2.4 -18.75,-7.2c-1.1,-1.56667 -1.9,-3.35 -2.4,-5.35c-0.01602,-0.09766 -0.03268,-0.19766 -0.05,-0.3c-1.22474,-0.04805 -2.49141,-0.09805 -3.8,-0.15c-1.33646,-0.05143 -3.01979,-0.53477 -5.05,-1.45c-0.57695,-0.25651 -1.19362,-0.55651 -1.85,-0.9c-2.6,-1.33333 -4.3,-2.46667 -5.1,-3.4c-2.26667,-2.56667 -4.2,-5.03333 -5.8,-7.4c-1.96667,-2.96667 -2.95,-5.13333 -2.95,-6.5c0,-2.83385 0.4,-5.51719 1.2,-8.05c0.71628,-2.10482 1.71628,-4.10482 3,-6c2.23333,-3.3 5.76667,-6.78333 10.6,-10.45c6.1,-4.23333 10.78333,-7.55 14.05,-9.95c2.95013,-2.16224 5.63346,-4.31224 8.05,-6.45c0.41562,-6.24622 1.78229,-11.19622 4.1,-14.85c3.2,-5.1 8.45,-8.13333 15.75,-9.1c6.76667,4 12.18333,9.18333 16.25,15.55c1.96458,3.05599 4.33125,7.45599 7.1,13.2c0.99596,1.57773 2.1293,3.3944 3.4,5.45c2.68099,4.17031 5.04766,7.60365 7.1,10.3h0.4c0.22383,0.46354 0.45716,0.91354 0.7,1.35c0.0974,0.14089 0.1974,0.27422 0.3,0.4c0.90807,1.10703 2.07474,2.30703 3.5,3.6c0.84115,-0.70065 2.19115,-1.33398 4.05,-1.9c-1.4819,-1.70703 -2.86523,-3.5737 -4.15,-5.6c-2.6,-4.06667 -4.61667,-8.55 -6.05,-13.45c-0.9,-4.16667 -1.35,-6.3 -1.35,-6.4c-0.16667,-3.3 -2.11667,-6.9 -5.85,-10.8c-5.23333,-5.43333 -8.11667,-8.58333 -8.65,-9.45c-1.55964,-3.48971 -2.89297,-6.58971 -4,-9.3c-1.94284,-4.72174 -3.17617,-8.20508 -3.7,-10.45c-13.04622,-0.33971 -21.89622,-7.50638 -26.55,-21.5c-1.53333,-4.53333 -2.53333,-9.58333 -3,-15.15c-0.16667,-2 -0.25,-4.58333 -0.25,-7.75c0,-8.29609 1.08333,-17.97943 3.25,-29.05c-2.77747,0.46667 -5.77747,0.7 -9,0.7c-1.16341,0 -2.29674,-0.05 -3.4,-0.15c-9.84844,-0.92552 -17.3651,-5.95885 -22.55,-15.1c-1.93333,-3.4 -3.41667,-7.16667 -4.45,-11.3c-0.30964,-1.22474 -0.55964,-2.34141 -0.75,-3.35c-0.23333,-1.32826 -0.35,-2.44492 -0.35,-3.35c0,-4.63086 0.51667,-9.29753 1.55,-14c2.12305,-9.61654 6.42305,-19.36654 12.9,-29.25c8.5,-12.93333 19.75,-24.71667 33.75,-35.35c1.28151,-0.975 2.56484,-1.925 3.85,-2.85c11.77565,-8.47096 23.39232,-14.57096 34.85,-18.3c10.40299,-3.4056 18.73633,-4.2056 25,-2.4c-1.3612,-5.54362 -2.19453,-11.09362 -2.5,-16.65c-0.1,-1.64766 -0.15,-3.29766 -0.15,-4.95c0,-15.06667 2.95,-29.41667 8.85,-43.05c5.5,-12.63333 13.2,-24.01667 23.1,-34.15c9.43333,-9.6 20.11667,-17.33333 32.05,-23.2c11.8,-5.8 23.71667,-9.25 35.75,-10.35l27,0.25c14.12201,1.71862 26.08867,5.01862 35.9,9.9c-0.98958,2.27135 -1.87292,4.32135 -2.65,6.15c-0.94336,-0.575 -1.89336,-1.14167 -2.85,-1.7c-10.5,-6.13333 -20.46667,-9.08333 -29.9,-8.85l-27.5,-0.25c-33.2,6.46667 -58.21667,21.75 -75.05,45.85c-6.63333,9.46667 -11.61667,19.83333 -14.95,31.1c-0.70586,2.38333 -1.32253,4.75 -1.85,7.1c-0.72005,3.16576 -1.28672,6.29909 -1.7,9.4c0.47643,0.23281 0.9931,0.56615 1.55,1c0.40651,0.31706 0.83984,0.66706 1.3,1.05c1.40977,1.26667 3.05977,2.93333 4.95,5c2.6138,1.35 5.13047,3 7.55,4.95c2.18646,-9.10391 6.58646,-15.33724 13.2,-18.7c8.7,-4.43333 15.76667,-5.01667 21.2,-1.75c3.6,2.16667 6.11667,5.58333 7.55,10.25c0.96667,2.5 1.63333,5.51667 2,9.05c0.01133,0.09714 0.01133,0.19714 0,0.3c1.82188,-1.2401 4.37188,-2.50677 7.65,-3.8c0.63724,-0.25352 1.25391,-0.50352 1.85,-0.75c0.51615,-0.17487 1.01615,-0.3582 1.5,-0.55c0.68398,-2.44648 1.48398,-4.77982 2.4,-7c2.01901,-4.90977 5.65234,-11.20977 10.9,-18.9c5.28893,-7.69557 14.2556,-12.46224 26.9,-14.3c12.63516,-1.80195 23.70182,1.88138 33.2,11.05c9.50677,9.16602 12.12344,19.46602 7.85,30.9c0.67656,-1.22982 1.4599,-2.57982 2.35,-4.05c4.17044,-6.89583 9.52044,-15.44583 16.05,-25.65c5.72135,-8.93424 10.67135,-13.60091 14.85,-14c2.42969,-1.36875 5.52969,-2.06875 9.3,-2.1c0.79727,-0.01562 1.61393,0.00104 2.45,0.05c0.58659,0.33516 1.35326,1.18516 2.3,2.55c0.34831,-0.03958 0.69831,-0.08958 1.05,-0.15c-0.05859,0.52708 -0.12526,1.02708 -0.2,1.5c0.32878,0.51641 0.66211,1.06641 1,1.65c1.73333,2.93333 2.6,4.61667 2.6,5.05c0,0.41341 -0.05,0.78008 -0.15,1.1c0.24974,0.22474 0.48307,0.45807 0.7,0.7c0.04154,0.04648 0.07487,0.09648 0.1,0.15c1.4,1.61628 2.1,3.71628 2.1,6.3c0,1.03333 -0.08333,1.66667 -0.25,1.9h-0.25c-0.1,0 -0.38333,0.13333 -0.85,0.4c-0.27773,0.1388 -0.6444,0.2388 -1.1,0.3c2.24076,3.16784 4.75742,6.88451 7.55,11.15c0.62747,0.95768 1.22747,1.89102 1.8,2.8M908.55,208.35c-1.0375,4.4306 -2.55417,8.96393 -4.55,13.6c-3.02852,7.08411 -6.91185,13.88411 -11.65,20.4c-1.25469,1.73971 -2.57135,3.45638 -3.95,5.15c-6.33333,7.73333 -12.96667,13.91667 -19.9,18.55c-7.16667,4.8 -13.55,7.2 -19.15,7.2c-7.8,0 -12.71667,-2.08333 -14.75,-6.25c-0.63333,-1.33333 -0.95,-2.81667 -0.95,-4.45c0.13333,-1.43333 0.2,-2.2 0.2,-2.3c0,-0.50417 0.16667,-1.5375 0.5,-3.1c-0.0819,0.09883 -0.16523,0.19883 -0.25,0.3c-8.86667,10.53333 -19.28333,15.8 -31.25,15.8c-14.1,0 -24.26667,-7.75 -30.5,-23.25c-1.88737,-4.68685 -3.30404,-9.82018 -4.25,-15.4c-1.48229,0.30443 -3.03229,0.50443 -4.65,0.6c-0.26055,0.00794 -0.52721,0.00794 -0.8,0c0.37148,1.54049 0.73815,3.02383 1.1,4.45c0.49245,1.90547 0.99245,3.72214 1.5,5.45c2.65586,9.09818 5.82253,16.54818 9.5,22.35c0.9776,1.55065 1.99427,2.98398 3.05,4.3c1.80208,2.23411 3.78542,4.21745 5.95,5.95c3.67721,2.98008 7.87721,5.24674 12.6,6.8c6.63333,2.16667 15.46667,3.25 26.5,3.25c8.46667,0 16.36667,-1.23333 23.7,-3.7c3.73333,-1.26667 7.25,-2.7 10.55,-4.3c0.04831,0 0.38164,-0.18333 1,-0.55c0.35117,-0.20417 0.78451,-0.47083 1.3,-0.8c1.13112,-0.66055 2.64779,-1.57721 4.55,-2.75c4.63333,-2.76667 7.43333,-4.15 8.4,-4.15c0.04492,0 0.07826,0 0.1,0c1.59544,0.00898 2.31211,0.17565 2.15,0.5c0.33333,1 0.5,2.25 0.5,3.75c0,1.40729 -0.33333,2.92396 -1,4.55c-0.73138,1.9112 -1.89805,3.9612 -3.5,6.15c2.52969,-1.70469 4.94635,-3.55469 7.25,-5.55c6.50495,-5.62448 12.08828,-12.32448 16.75,-20.1c5.6,-9.3 9.56667,-19.73333 11.9,-31.3c1.4,-6.86667 2.1,-13.2 2.1,-19c0,-0.71536 -0.01667,-1.43203 -0.05,-2.15M939.1,464.55c2.76667,4.06667 4.35,7.18333 4.75,9.35c0.03333,0.13333 0.05,2.7 0.05,7.7c0,1.31211 -0.06667,2.59544 -0.2,3.85c3.44466,1.28802 6.47799,2.63802 9.1,4.05c0.28177,0.15833 0.54844,0.30833 0.8,0.45c0.22487,0.1276 0.44154,0.24427 0.65,0.35c0.26563,-1.26328 0.46563,-2.49661 0.6,-3.7c0.16667,-1.38802 0.25,-2.72135 0.25,-4c0,-1.13333 -0.55,-3.43333 -1.65,-6.9c-1.13333,-3.4 -1.75,-5.28333 -1.85,-5.65c-0.5,-1.93333 -2.03333,-3.78333 -4.6,-5.55c-1.23333,-0.86667 -4.28333,-2.56667 -9.15,-5.1c0.59792,-0.2457 1.18125,-0.42904 1.75,-0.55c-0.03177,-0.02018 -0.08177,-0.03685 -0.15,-0.05c-0.16263,0.06667 -0.34596,0.1 -0.55,0.1c-0.53333,0 -0.95,-0.18333 -1.25,-0.55c-0.09557,-0.13138 -0.17891,-0.24805 -0.25,-0.35c-0.71732,-0.25078 -1.45065,-0.48411 -2.2,-0.7c-1.33815,-0.17096 -2.72148,-0.2043 -4.15,-0.1c1.54401,0.78958 2.87734,1.67292 4,2.65c1.23333,1.1 2.58333,2.66667 4.05,4.7M912.9,459.65c-0.2,0 -0.61667,-0.15 -1.25,-0.45c-0.7,-0.33333 -1.28333,-0.68333 -1.75,-1.05c0.55937,-0.49727 1.07604,-0.94727 1.55,-1.35c-2.71029,0.70065 -5.27695,1.66732 -7.7,2.9c2.76966,-0.1112 5.30299,0.5888 7.6,2.1c0.01745,0.00924 0.03411,0.00924 0.05,0c0.61862,-0.53125 1.03529,-0.88125 1.25,-1.05c0.57513,-0.46016 1.1418,-0.89349 1.7,-1.3c-0.72956,0.13333 -1.21289,0.2 -1.45,0.2M908.55,464.4c-0.86576,-0.33333 -1.76576,-0.5 -2.7,-0.5c-2.90495,0 -5.62161,0.63333 -8.15,1.9c-0.00404,0.04622 -0.0207,0.09622 -0.05,0.15c-0.26667,0.56667 -0.4,1.1 -0.4,1.6c0,3.58607 0.35,6.73607 1.05,9.45c0.86797,-1.29518 2.0513,-2.89518 3.55,-4.8c3.1,-3.93333 5.28333,-6.48333 6.55,-7.65c0.05625,-0.05143 0.10625,-0.10143 0.15,-0.15M914.75,463.9c1.28971,0.9707 2.38971,2.00404 3.3,3.1c1.56667,1.93333 2.35,3.81667 2.35,5.65c0,2.34297 -0.13333,4.54297 -0.4,6.6c4.48854,0.73958 9.15521,1.77292 14,3.1c2.03529,0.56589 3.96862,1.14922 5.8,1.75c0.06667,-0.83021 0.1,-1.66354 0.1,-2.5c0,-6.56667 -2.08333,-12.13333 -6.25,-16.7c-2.95938,-3.21224 -6.22604,-5.21224 -9.8,-6c-2.92826,1.1444 -5.96159,2.81107 -9.1,5M907.9,481.9c-4.36667,-0.1 -7.13333,-0.4 -8.3,-0.9c-0.22305,-0.2125 -0.43971,-0.4125 -0.65,-0.6l-0.1,0.65c-0.06667,0 -0.2,0.06667 -0.4,0.2c-0.09701,0.04857 -0.23034,0.0819 -0.4,0.1c-0.03333,0.22891 -0.05,0.41224 -0.05,0.55c0,2 2.33333,5.68333 7,11.05c0.52513,0.60065 1.02513,1.16732 1.5,1.7c3.32188,-1.46432 5.87188,-3.88099 7.65,-7.25c0.88151,-1.65508 1.51484,-3.38841 1.9,-5.2c-2.1569,-0.10807 -4.87357,-0.20807 -8.15,-0.3M919.45,482.45c-0.87617,4.20156 -2.39284,7.6849 -4.55,10.45c-1.55352,2.01133 -3.42018,3.59466 -5.6,4.75c2.09089,2.15638 3.77422,3.65638 5.05,4.5c1.30729,0.87148 3.15729,2.18815 5.55,3.95c0.35651,0.28398 0.72318,0.56732 1.1,0.85c1.94518,1.34492 3.84518,2.37826 5.7,3.1c0.5401,-0.4181 1.07344,-0.8681 1.6,-1.35c1.26836,-1.16693 2.40169,-2.35026 3.4,-3.55c1.65013,-1.89232 2.95013,-3.80898 3.9,-5.75c1.93034,-3.97279 3.21367,-7.97279 3.85,-12c-1.55208,-0.6875 -2.63542,-1.15417 -3.25,-1.4c-2.46667,-0.93333 -5.06667,-1.58333 -7.8,-1.95c-3.4,-0.66667 -5.7,-1.1 -6.9,-1.3c-0.50299,-0.09544 -1.18633,-0.19544 -2.05,-0.3M916.6,477.5c0,-3.6 -1.15,-6.78333 -3.45,-9.55c-0.50469,-0.6194 -1.02135,-1.1694 -1.55,-1.65c-5.23021,4.15885 -9.34687,8.30885 -12.35,12.45c2.81927,-0.85846 7.18594,-1.02513 13.1,-0.5c1.38659,0.12982 2.78659,0.27982 4.2,0.45c0.03333,-0.3862 0.05,-0.7862 0.05,-1.2M955.6,471.05c0.24596,0.51406 0.4793,1.03073 0.7,1.55c1.06667,2.46667 1.6,4.4 1.6,5.8c0,1.04727 -0.01667,2.0806 -0.05,3.1c-0.13359,3.62826 -0.50026,7.09492 -1.1,10.4c0.9043,0.66159 1.68763,1.31159 2.35,1.95c0.02773,-0.03711 0.0444,-0.07044 0.05,-0.1c0.63333,-3.4 0.95,-6.11667 0.95,-8.15c0,-2.39323 -0.3,-4.67656 -0.9,-6.85c-0.72591,-2.73372 -1.92591,-5.30039 -3.6,-7.7M972.2,479.5c-1.52396,0 -3.60729,0.48333 -6.25,1.45c0.26667,1.60781 0.4,3.24115 0.4,4.9c0,3.23333 -0.53333,7.15 -1.6,11.75c-1.5,6.33333 -3.7,12.05 -6.6,17.15c-7.64935,13.40156 -18.94935,20.75156 -33.9,22.05c1.92135,1.99844 3.83802,3.8151 5.75,5.45c7.6,6.5 14.66667,9.75 21.2,9.75c0.73724,0 1.48724,-0.06667 2.25,-0.2c2.69948,-0.43086 5.64948,-1.61419 8.85,-3.55c4.13333,-2.5 7.31667,-3.75 9.55,-3.75c0.44909,0 0.88242,0 1.3,0c4.36549,0.08268 7.39883,0.54935 9.1,1.4c0.48607,0.23854 0.93607,0.43854 1.35,0.6c1.17188,0.5 2.08854,0.75 2.75,0.75c9.5,0 16.68333,-4.23333 21.55,-12.7c2.43333,-4.23333 3.91667,-8.5 4.45,-12.8c0,-1.49714 -1.68333,-4.84714 -5.05,-10.05c-0.52005,-0.82031 -1.08672,-1.68698 -1.7,-2.6c-2.10286,-3.1543 -3.91953,-5.7043 -5.45,-7.65c-1.58971,-2.07943 -2.85638,-3.47943 -3.8,-4.2c-2.95833,0.13451 -5.70833,0.53451 -8.25,1.2c-0.48242,2.3263 -1.23242,5.6263 -2.25,9.9c0,1.16667 0.68333,2.45 2.05,3.85c1.76667,1.86667 2.75,2.96667 2.95,3.3c-4.36667,0.73333 -6.83333,-1.85 -7.4,-7.75c-0.16667,-1.86667 -0.15,-4.2 0.05,-7c0.13503,-1.52435 0.23503,-2.72435 0.3,-3.6c-0.19258,-0.1112 -0.32591,-0.19453 -0.4,-0.25c-0.36667,-0.26667 -0.55,-0.48333 -0.55,-0.65c0,-0.63841 0.3,-1.23841 0.9,-1.8c-0.29466,-2.21393 -1.26133,-4.86393 -2.9,-7.95c-0.26068,-0.48659 -0.52734,-0.95326 -0.8,-1.4c-2.30729,-3.73333 -4.92396,-5.6 -7.85,-5.6M766.1,209.55c-2.90781,1.13125 -5.04115,1.98125 -6.4,2.55c0.05013,0.69089 0.10013,1.40755 0.15,2.15c0.16849,1.4681 0.36849,4.9181 0.6,10.35c0.2875,1.51302 0.57083,2.97969 0.85,4.4c0.6582,-0.22656 1.3582,-0.4599 2.1,-0.7c0.19557,-0.04206 0.39557,-0.09206 0.6,-0.15c1.05703,-0.30195 2.1237,-0.56862 3.2,-0.8c-0.06667,-0.77786 -0.1,-1.47786 -0.1,-2.1c0,-5.92396 0.4,-11.44063 1.2,-16.55c-0.76367,0.3125 -1.49701,0.59583 -2.2,0.85M745.1,211.05c-3.29036,-0.07031 -6.84036,0.04635 -10.65,0.35c1.76966,6.45898 5.26966,14.74232 10.5,24.85c2.97656,5.73711 5.82656,10.65378 8.55,14.75c-1.025,-3.26471 -2.10833,-7.16471 -3.25,-11.7c-3.25312,-12.94935 -4.96979,-22.36602 -5.15,-28.25M746.95,282.95c-5.7013,-4.3138 -10.8013,-9.29714 -15.3,-14.95c-6.53333,-8.23333 -11.41667,-17.43333 -14.65,-27.6c-0.71497,-2.26042 -1.31497,-4.42708 -1.8,-6.5c-2.17357,0.23333 -4.9569,0.35 -8.35,0.35c-1.03333,0 -2.01667,-0.08333 -2.95,-0.25l-0.95,-0.25c-0.28359,-0.95104 -0.48359,-1.95104 -0.6,-3c0.15156,-1.27318 0.6349,-2.10651 1.45,-2.5c1.57135,-0.79818 4.68802,-1.18151 9.35,-1.15c0.25833,-0.00417 0.525,-0.00417 0.8,0c-0.23333,-1.85052 -0.35,-3.60052 -0.35,-5.25c0,-0.86719 0,-1.71719 0,-2.55c0.0776,-1.86081 0.19427,-3.64414 0.35,-5.35c-1.88398,-1.48594 -4.23398,-3.46927 -7.05,-5.95c-0.8237,-0.7237 -1.60703,-1.40703 -2.35,-2.05c-2.24753,-2.02201 -4.03086,-3.67201 -5.35,-4.95c-0.06667,1.60169 -0.1,3.18503 -0.1,4.75c0,2.62617 0.08333,5.19284 0.25,7.7c0.35833,5.52266 1.10833,10.80599 2.25,15.85c0.09141,0.38815 0.17474,0.77148 0.25,1.15c-0.27357,0.10924 -0.69023,0.24258 -1.25,0.4c-1.06667,0.26667 -1.73333,0.4 -2,0.4h-0.65c-0.25039,0.12409 -0.50039,0.24076 -0.75,0.35c0.95091,3.22826 2.06758,6.46159 3.35,9.7c4.9,12.4 11.91667,23.46667 21.05,33.2c3.86836,4.11276 7.95169,7.84609 12.25,11.2c5.05456,3.95156 10.40456,7.3849 16.05,10.3c6.05312,3.1625 12.45313,5.74583 19.2,7.75c11.84115,3.5 24.75781,5.25 38.75,5.25c6.42487,0 12.5582,-0.33333 18.4,-1c-1.73568,-0.26328 -3.55234,-0.52995 -5.45,-0.8c-12.03333,-1.7 -18.81667,-2.66667 -20.35,-2.9c-10.43268,-1.68346 -19.61602,-3.88346 -27.55,-6.6c0.8625,0.26589 1.72917,0.51589 2.6,0.75c7.97005,2.15221 15.68672,3.53555 23.15,4.15c-11.9931,-1.53372 -22.82643,-4.38372 -32.5,-8.55c-3.14206,-1.33411 -6.17539,-2.81745 -9.1,-4.45c-3.54883,-2.00365 -6.91549,-4.22031 -10.1,-6.65M819.85,255c0,-0.26667 -0.7,-1.08333 -2.1,-2.45c-1.5,-1.43333 -2.38333,-2.28333 -2.65,-2.55c-6.7,-0.3 -11.85,0.95 -15.45,3.75c-2.8,2.2 -4.06667,4.53333 -3.8,7l0.75,0.75l1.55,0.5c1.26667,0.33333 2.41667,0.5 3.45,0.5c2.33333,0 7.25,-0.75 14.75,-2.25c0.4,-0.33333 1.08333,-1.21667 2.05,-2.65c0.96667,-1.43333 1.45,-2.3 1.45,-2.6M845.55,258.75c0.3,0.3 0.9,0.8 1.8,1.5h13c0.5,-0.5 2.5,-2.2 6,-5.1c1.66667,-1.4 2.5,-2.7 2.5,-3.9c0,-3.26667 -1.25,-5.36667 -3.75,-6.3c-2.16667,-0.8 -4.91667,-0.63333 -8.25,0.5c-3.13333,1.03333 -5.88333,2.6 -8.25,4.7c-2.5,2.2 -3.75,4.31667 -3.75,6.35c0,1.03333 0.23333,1.78333 0.7,2.25M701.75,279.15c0.9,-1.46667 1.35,-2.73333 1.35,-3.8c0,-0.9 0.21667,-1.98333 0.65,-3.25c0.5,-1.43333 0.78333,-2.46667 0.85,-3.1c-4.1,3.23333 -7.3,8.06667 -9.6,14.5c-1.89453,5.38945 -2.8612,10.80612 -2.9,16.25c0,0.12148 0,0.23815 0,0.35c0,0.06667 0.03333,1.11667 0.1,3.15c0.13333,2.4 0.43333,4.6 0.9,6.6c0.70716,2.89023 1.69049,5.1069 2.95,6.65c1.27943,1.55208 2.82943,2.43542 4.65,2.65c0.32174,0.06667 0.65508,0.1 1,0.1c12.1,-8.6 18.15,-13.6 18.15,-15c0,-0.9 -1.01667,-1.73333 -3.05,-2.5c-4.13333,-1.53333 -6.36667,-2.38333 -6.7,-2.55c-2.39062,-1.16458 -4.34062,-2.66458 -5.85,-4.5c-2.6,-3.09661 -3.9,-7.16328 -3.9,-12.2c0,-0.73333 0.46667,-1.85 1.4,-3.35M715.6,326.5c1.26237,-1.53984 2.6457,-3.00651 4.15,-4.4c7.36732,-6.81797 16.46732,-10.88464 27.3,-12.2c0.35391,-0.03099 0.70391,-0.06432 1.05,-0.1c8.73398,-0.8707 16.46732,0.1793 23.2,3.15c1.79388,0.81081 3.51055,1.74414 5.15,2.8c1.61458,1.05143 3.08125,2.18477 4.4,3.4c0.81276,-0.82044 1.76276,-1.57044 2.85,-2.25c0.83398,-0.52305 1.71732,-0.98971 2.65,-1.4c-1.65872,-1.70625 -3.54206,-3.28958 -5.65,-4.75c-3.46042,-2.40169 -7.19375,-4.26836 -11.2,-5.6c-6.32161,-2.05352 -13.32161,-2.75352 -21,-2.1c-0.33932,0.02826 -0.68932,0.06159 -1.05,0.1c-12.3625,1.21419 -22.7625,5.76419 -31.2,13.65c-2.37865,2.21615 -4.47865,4.59948 -6.3,7.15c-0.57969,0.84557 -1.14635,1.71224 -1.7,2.6c1.18021,0.95599 2.58021,2.15599 4.2,3.6l0.35,0.3c0.8526,-1.35964 1.78594,-2.6763 2.8,-3.95M724.7,331.65c-4.66667,6.3 -7,11.91667 -7,16.85c0,4.26667 1.61667,8.51667 4.85,12.75c4.8,6.23333 11.95,9.35 21.45,9.35c8.63281,0 15.96615,-1.8 22,-5.4c2.11094,-1.26211 4.06094,-2.74544 5.85,-4.45c1.43685,-1.3582 2.77018,-2.8582 4,-4.5c2.43333,-3.26667 4.3,-6.9 5.6,-10.9c0.4793,-1.47214 0.8293,-2.80547 1.05,-4c0.23333,-1.10716 0.35,-2.09049 0.35,-2.95c0,-2.36667 -0.81667,-5.05 -2.45,-8.05c-1.86667,-3.36667 -4.36667,-6.25 -7.5,-8.65c-0.04479,-0.03411 -0.09479,-0.06745 -0.15,-0.1c-6.97969,-5.26862 -15.39635,-6.96862 -25.25,-5.1c-1.74492,0.33542 -3.54492,0.78542 -5.4,1.35c-6.14818,2.22721 -11.64818,6.42721 -16.5,12.6c-0.3013,0.39727 -0.6013,0.79727 -0.9,1.2M670.85,315.95c-2.06667,3.1 -4.01667,6.51667 -5.85,10.25c-1.76667,3.63333 -2.65,5.98333 -2.65,7.05c0,1.16667 0.51667,2.66667 1.55,4.5c0.56667,1.03333 1.38333,2.45 2.45,4.25c1.46667,-1.56667 4.03333,-6.51667 7.7,-14.85c3.53333,-7.93333 5.3,-12.4 5.3,-13.4c0,-7 -2.83333,-6.26667 -8.5,2.2M667.6,299.75c-5.9,-0.56667 -11.71667,-0.05 -17.45,1.55c-6.53333,1.8 -9.8,4.36667 -9.8,7.7c0,0.36667 0.58333,1.36667 1.75,3c1.3,1.83333 2.38333,2.75 3.25,2.75c0.93333,0 5.01667,-1.98333 12.25,-5.95c7.16667,-3.93333 10.75,-6.08333 10.75,-6.45c0,-0.96667 -0.11667,-1.61667 -0.35,-1.95c-0.26667,-0.33333 -0.4,-0.55 -0.4,-0.65M682.85,341.5c-3.88477,0.62318 -6.83477,1.40651 -8.85,2.35c-2.76211,8.99336 -6.31211,18.02669 -10.65,27.1c-8.99661,18.80352 -17.94661,31.22018 -26.85,37.25c1.29557,3.61302 3.19557,6.62969 5.7,9.05c3.83333,3.7 8.55,5.55 14.15,5.55c11.3,0 26.48333,-6.48333 45.55,-19.45c7.3,-4.96667 13.7,-9.95 19.2,-14.95c1.63516,-1.48177 3.03516,-2.83177 4.2,-4.05c-9.91315,-2.31302 -16.79648,-7.09635 -20.65,-14.35c-1.8,-3.4 -2.85,-7.21667 -3.15,-11.45c0.06667,-3.76667 0.1,-5.83333 0.1,-6.2c0,-4.12721 0.38333,-8.04388 1.15,-11.75c-1.22812,-0.2 -2.52812,-0.3 -3.9,-0.3c-5.7,0 -11.03333,0.4 -16,1.2M622.3,485c-2.21133,1.8513 -6.06133,4.8513 -11.55,9c-6.06667,4.56667 -10.45,8.4 -13.15,11.5c-4,4.53333 -6,8.95 -6,13.25c0,1.63333 1.21667,3.73333 3.65,6.3c2.6,2.8 5.46667,4.78333 8.6,5.95c5.3,1.96667 12.3,3.1 21,3.4c3.33333,0.13333 5.88333,0.45 7.65,0.95c2.53333,0.7 4.81667,2 6.85,3.9c-0.36667,0.53333 -0.6,0.83333 -0.7,0.9c-0.36667,0.23333 -1.1,0.35 -2.2,0.35c-0.3,0 -2.68333,-0.28333 -7.15,-0.85c-3.5306,-0.47227 -8.16393,-0.87227 -13.9,-1.2c2.33854,2.95937 4.82188,4.89271 7.45,5.8c2.10573,0.78958 6.5224,1.00625 13.25,0.65c0.46901,-0.11484 0.88568,-0.24818 1.25,-0.4c0.06602,0.07253 0.14935,0.18919 0.25,0.35c5.58607,-0.19375 9.9194,0.68958 13,2.65c2.46667,1.6 4.33333,2.68333 5.6,3.25c3.2,1.5 6.36667,2.25 9.5,2.25c6.13333,0 11.58333,-1.65 16.35,-4.95c1.81185,-1.60052 3.31185,-2.90052 4.5,-3.9c-0.90977,-0.37721 -2.05977,-0.84388 -3.45,-1.4c-2.96667,-1.2 -5.3,-2.28333 -7,-3.25c0.23333,-0.6 0.86667,-1.08333 1.9,-1.45c0.96667,-0.36667 2.08333,-0.55 3.35,-0.55c4.16667,0 8.16667,1.41667 12,4.25c1,0.73919 2.01667,1.37253 3.05,1.9l-2.7,5.4c-0.09076,-0.06445 -0.19076,-0.13112 -0.3,-0.2c-0.98958,-0.83737 -1.82292,-1.53737 -2.5,-2.1c-1.08333,2.14323 -3.43333,4.39323 -7.05,6.75c-5.66667,3.66667 -11.66667,5.5 -18,5.5c-4.26667,0 -7.51667,-0.41667 -9.75,-1.25c-1,-0.36667 -2.51667,-1.28333 -4.55,-2.75c-2.19023,-1.56445 -5.42357,-2.68112 -9.7,-3.35c1.19922,1.64453 2.44922,3.12786 3.75,4.45c4.78307,4.90703 10.53307,7.99036 17.25,9.25c-0.40273,0.95794 -0.90273,2.14128 -1.5,3.55c-0.26927,0.63828 -0.53594,1.23828 -0.8,1.8c3.10833,0.86667 6.375,1.3 9.8,1.3c7.13333,0 14.13333,-2.98333 21,-8.95c4.81914,-4.18503 7.80247,-8.03503 8.95,-11.55c1.59049,0.33333 3.27383,0.5 5.05,0.5c7.03333,0 12.36667,-3 16,-9c2.5,-4.13333 3.75,-8.26667 3.75,-12.4c0,-4.36667 -1.83333,-7.4 -5.5,-9.1c-1.66667,-0.8 -6.06667,-1.85 -13.2,-3.15c-2.82174,-0.50534 -5.40508,-1.10534 -7.75,-1.8c-1.96562,-1.41367 -4.66562,-3.33034 -8.1,-5.75c-1.46862,-1.04219 -2.83529,-2.04219 -4.1,-3h-0.1c-0.83333,0.3 -2.58333,1.36667 -5.25,3.2c-0.32305,0.22214 -0.63971,0.42214 -0.95,0.6c-1.26654,-1.31237 -2.56654,-2.77904 -3.9,-4.4c-3.8,-4.63333 -8.5,-11.48333 -14.1,-20.55c-6.46667,-10.43333 -10.5,-16.76667 -12.1,-19c-4.03333,-5.6 -7.26667,-8.4 -9.7,-8.4c-4.43333,0 -7.76667,3.83333 -10,11.5c-0.19062,0.66992 -0.37396,1.33659 -0.55,2c0.03333,0.30182 0.05,0.66849 0.05,1.1c0,1.14466 -0.33333,2.36133 -1,3.65c-0.23568,1.61536 -0.40234,3.23203 -0.5,4.85c0,3.66667 0.58333,6.5 1.75,8.5c2.86667,4.86667 4.86667,8.66667 6,11.4c-7.4,-5.03333 -11.68333,-8.58333 -12.85,-10.65c-0.63333,-1.1 -0.96667,-2.43333 -1,-4c0.0276,-0.92422 0.04427,-1.79089 0.05,-2.6M833.85,339.2c-1.15143,1.24779 -2.20143,2.51445 -3.15,3.8c-2.4,3.26667 -3.6,5.93333 -3.6,8c0,0.15846 0,0.30846 0,0.45c1.27214,-0.13854 2.77214,-0.33854 4.5,-0.6c2.42878,-3.57943 5.31211,-6.96276 8.65,-10.15c0.90104,-0.85638 1.81771,-1.67305 2.75,-2.45c4.02826,-3.33307 8.29492,-5.83307 12.8,-7.5c-1.24375,-1.86628 -2.22708,-3.53294 -2.95,-5c-4.20117,1.82708 -8.35117,4.32708 -12.45,7.5c-2.46068,1.91849 -4.64401,3.90182 -6.55,5.95M787.95,315.6c0.66888,1.12474 1.48555,2.47474 2.45,4.05c0.19766,0.32643 0.38099,0.6431 0.55,0.95c-0.23255,-0.03685 -0.46589,-0.07018 -0.7,-0.1c2.61211,4.11563 4.21211,8.79896 4.8,14.05c1.29974,0.13542 2.86641,0.51875 4.7,1.15c3.4737,1.19779 6.40703,2.63112 8.8,4.3c0.06094,-0.18672 0.1276,-0.38672 0.2,-0.6c0.52422,0.41849 1.10755,0.90182 1.75,1.45c0.68646,0.59687 1.43646,1.26354 2.25,2c0.0707,0.0638 0.13737,0.13047 0.2,0.2c0.28555,-0.69479 0.60221,-1.47812 0.95,-2.35c0.79622,-1.89766 1.76289,-4.21432 2.9,-6.95c2.7,-6.5 4.05,-10.38333 4.05,-11.65c0,-1.76667 -1.93333,-3.3 -5.8,-4.6c-3.43333,-1.13333 -7.7,-1.91667 -12.8,-2.35c-5,-0.4 -9.28333,-0.33333 -12.85,0.2c-0.51445,0.07539 -0.99779,0.15872 -1.45,0.25M894.6,467.45c-0.65573,0.37161 -1.1224,0.62161 -1.4,0.75c-1.45898,1.71042 -2.74232,3.56042 -3.85,5.55c-0.03229,0.0582 -0.06562,0.1082 -0.1,0.15c0.03451,0.04115 0.06784,0.07448 0.1,0.1c0.11667,0.09583 0.23333,0.19583 0.35,0.3c0.5,0.46667 1.15,1.13333 1.95,2c1.27083,0.20833 2.3375,0.45833 3.2,0.75c-0.4,-2.43659 -0.6,-3.68659 -0.6,-3.75c0,-2.56667 0.08333,-4.33333 0.25,-5.3c0.03411,-0.17891 0.06745,-0.36224 0.1,-0.55M888.05,476.3c-0.07135,0.17174 -0.15469,0.33841 -0.25,0.5c0.23333,0.15339 0.35,0.47005 0.35,0.95c0,0.33333 -0.31667,0.73333 -0.95,1.2c-0.12344,0.08437 -0.2401,0.18438 -0.35,0.3c-0.20378,0.61159 -0.40378,1.22826 -0.6,1.85c0,0.0707 0,0.13737 0,0.2c0,0.2 -0.05,0.6 -0.15,1.2c-0.13333,0.6 -0.2,1.13333 -0.2,1.6c0,1.49935 0.18333,2.89935 0.55,4.2c0.85755,-1.98307 2.02422,-3.93307 3.5,-5.85c0.47969,-0.58698 0.97969,-1.17031 1.5,-1.75c0.61875,-0.67865 1.20208,-1.24531 1.75,-1.7c-0.17799,0.03333 -0.36133,0.05 -0.55,0.05c-1.11237,0 -2.1957,-0.45 -3.25,-1.35c-0.33659,-0.28828 -0.66992,-0.62161 -1,-1c-0.11823,-0.13984 -0.2349,-0.27318 -0.35,-0.4M895,481.85c-1.40143,1.37487 -2.65143,3.09154 -3.75,5.15c-0.67344,1.35781 -1.2901,2.85781 -1.85,4.5c-0.17174,0.50729 -0.33841,1.00729 -0.5,1.5c1.63867,1.88203 3.87201,2.98203 6.7,3.3c-0.25339,-0.96419 -0.45339,-1.83086 -0.6,-2.6c-0.23333,-1.17643 -0.35,-2.12643 -0.35,-2.85c0,-3.88112 0.11667,-6.88112 0.35,-9M897.4,487.55c0.1625,1.2431 0.32917,2.57643 0.5,4c0.25195,1.68021 0.53529,3.28021 0.85,4.8c1.53216,-0.05339 2.96549,-0.23672 4.3,-0.55c-1.76797,-2.18177 -3.36797,-4.44844 -4.8,-6.8c-0.30755,-0.51094 -0.59089,-0.99427 -0.85,-1.45M899.75,500.1c0.53919,1.87018 1.15586,3.60352 1.85,5.2c1.73255,4.03073 4.19922,7.68073 7.4,10.95c0.39492,0 0.79492,0 1.2,0c4.55586,0 8.85586,-1.21667 12.9,-3.65c-4.01797,-2.07227 -7.86797,-4.7056 -11.55,-7.9c-1.15833,-1.025 -2.30833,-2.10833 -3.45,-3.25c-0.76706,-0.76706 -1.51706,-1.55039 -2.25,-2.35c-1.32187,0.41914 -2.73854,0.70247 -4.25,0.85c-0.60482,0.08542 -1.22148,0.13542 -1.85,0.15M887.25,503.5c0,0.43333 0.21667,1.06667 0.65,1.9c0.4,0.83333 0.6,1.45 0.6,1.85c0,0.59167 -0.26667,1.05833 -0.8,1.4c0.82201,0.92279 1.77201,1.77279 2.85,2.55c3.53633,2.53307 8.11966,4.11641 13.75,4.75c-0.76003,-1.0957 -1.49336,-2.2457 -2.2,-3.45c-2.23646,-3.80807 -4.05312,-7.94141 -5.45,-12.4c-3.51992,-0.25794 -6.43659,-1.30794 -8.75,-3.15c-0.43333,2.25612 -0.65,4.43945 -0.65,6.55M884.85,493.4c-0.21628,-0.33398 -0.41628,-0.68398 -0.6,-1.05c-0.00872,0.13945 -0.02539,0.27279 -0.05,0.4c-0.56667,1.31992 -0.85,2.81992 -0.85,4.5c0,0.82214 0.13333,1.67214 0.4,2.55c0.10469,-1.00339 0.25469,-2.07005 0.45,-3.2c0.19909,-1.1237 0.41576,-2.19036 0.65,-3.2M888.9,514c0.3832,0.66302 0.7832,1.32969 1.2,2c1.36797,2.19466 2.88464,4.14466 4.55,5.85c-0.97005,-1.19779 -1.60339,-2.38112 -1.9,-3.55c0.03333,-0.03333 0.08333,-0.08333 0.15,-0.15c0.2,-0.13333 0.45,-0.25 0.75,-0.35c1.06667,1.76667 3.01667,3.51667 5.85,5.25c4.76224,2.93555 10.56224,4.43555 17.4,4.5c-3.37448,-1.82044 -6.45781,-4.27044 -9.25,-7.35c-7.86745,-0.32318 -13.91745,-2.22318 -18.15,-5.7c-0.20247,-0.16836 -0.40247,-0.33503 -0.6,-0.5M885.25,509.15c-0.92135,-0.26107 -1.50469,-1.12773 -1.75,-2.6c0,-1.86667 0,-2.83333 0,-2.9c0,-0.64518 0.01667,-1.32852 0.05,-2.05c-0.34102,0.51237 -0.70768,1.0457 -1.1,1.6c-1.34766,1.93307 -2.49766,3.58307 -3.45,4.95c0.4599,-0.33151 0.87656,-0.64818 1.25,-0.95c0.88854,3.25781 2.05521,6.30781 3.5,9.15c-0.13385,0.66406 -0.25052,1.33073 -0.35,2c0.9931,-1.69154 2.25977,-3.72487 3.8,-6.1c-0.90299,-1.02331 -1.55299,-2.05664 -1.95,-3.1M900.35,533.1c-5.07109,-2.40443 -9.35443,-5.95443 -12.85,-10.65c0.40547,4.59857 1.42214,8.8819 3.05,12.85c2.04336,5.02982 4.82669,8.47982 8.35,10.35c-0.03333,-0.71081 -0.05,-1.42747 -0.05,-2.15c0,-2.46667 0.21667,-4.86667 0.65,-7.2c0.24023,-1.2388 0.52357,-2.30547 0.85,-3.2M955.6,496.9c-1.77799,6.74661 -4.64466,12.79661 -8.6,18.15c1.31432,0.04596 2.54766,0.04596 3.7,0c1.23346,-1.78568 2.3668,-3.71901 3.4,-5.8c1.50013,-3.04375 2.73346,-6.31042 3.7,-9.8c-0.20156,-0.21901 -0.41823,-0.46901 -0.65,-0.75c-0.56536,-0.69349 -1.08203,-1.29349 -1.55,-1.8M950.15,492.9c-0.50938,-0.30846 -0.95938,-0.57513 -1.35,-0.8c-1.82344,-1.0375 -3.67344,-2.00417 -5.55,-2.9c-0.86198,4.86133 -2.57865,9.36133 -5.15,13.5c-1.40547,2.29596 -3.07214,4.4793 -5,6.55c-0.77565,0.83242 -1.55898,1.61576 -2.35,2.35c0.49792,0.22357 1.09792,0.49023 1.8,0.8c1.73333,0.8 4.01667,1.41667 6.85,1.85c1.31081,0.20339 2.57747,0.37005 3.8,0.5c1.10885,-1.3888 2.17552,-2.8888 3.2,-4.5c2.83333,-4.46667 5.03333,-9.41667 6.6,-14.85c0.07214,-0.24401 0.1388,-0.49401 0.2,-0.75c-1.17956,-0.68099 -2.19622,-1.26432 -3.05,-1.75M947.65,518.5c-1.11875,0 -2.23542,-0.03333 -3.35,-0.1c-4.12539,4.70326 -8.80872,8.06992 -14.05,10.1c0.88984,0.17292 1.75651,0.28958 2.6,0.35c5.97435,-2.02969 11.04102,-5.47969 15.2,-10.35c-0.12474,0 -0.25807,0 -0.4,0M919.2,524c1.92682,1.11107 3.76016,2.02773 5.5,2.75c5.8543,-1.29036 11.03763,-4.20703 15.55,-8.75c-4.52799,-0.58633 -8.87799,-1.75299 -13.05,-3.5c-4.34167,3.1668 -8.975,5.0168 -13.9,5.55c1.80729,1.4112 3.77396,2.72786 5.9,3.95M918.85,537c-5.03255,-0.04245 -9.63255,-0.72578 -13.8,-2.05c-0.29622,0.98086 -0.77956,2.19753 -1.45,3.65c0,5.8 1.33333,10.93333 4,15.4c4,6.66667 10.36667,10 19.1,10c7.46667,0 12.83333,-1.63333 16.1,-4.9c0.44688,-0.44687 0.96354,-1.08021 1.55,-1.9c-5.94974,-1.35937 -11.59974,-4.50938 -16.95,-9.45c-2.63333,-2.4 -4.86667,-4.95 -6.7,-7.65c-0.84701,-1.24362 -1.46367,-2.27695 -1.85,-3.1M917.4,530.8c-2.06549,0 -4.03216,-0.13333 -5.9,-0.4c2.27904,0.4 4.67904,0.6 7.2,0.6c2.21146,0 4.32813,-0.13333 6.35,-0.4c-0.42305,-0.09935 -0.85638,-0.21602 -1.3,-0.35c-2.03841,0.36667 -4.15508,0.55 -6.35,0.55M692.55,551.3v0.1l-0.25,0.35c0.09466,-0.13477 0.17799,-0.28477 0.25,-0.45z" fill="#000000"/><path d="M881.85,452.55c0.73958,-3.19622 1.33958,-6.44622 1.8,-9.75c1.16667,2.89622 1.75,6.31289 1.75,10.25c0,5.38854 -1.83333,10.92188 -5.5,16.6c-0.16836,-1.98724 -0.38503,-4.25391 -0.65,-6.8c1.36602,-3.43424 2.23268,-6.86758 2.6,-10.3M748.25,413.45c-0.43333,3.69935 -0.65,7.24935 -0.65,10.65c0,10.46667 1.68333,20.6 5.05,30.4c6.26667,18.33333 17,27.5 32.2,27.5c14.56667,0 26.03333,-7.5 34.4,-22.5c1.59727,-2.89128 3.01393,-5.95794 4.25,-9.2c0.57461,7.35156 2.45794,13.75156 5.65,19.2c3.92565,6.75521 9.45898,10.92188 16.6,12.5c2.22396,0.5 4.59063,0.75 7.1,0.75c0.98242,0 1.93242,-0.05 2.85,-0.15c0.0026,0.56497 0.0526,1.31497 0.15,2.25c-0.04609,0.75365 -0.22943,1.45365 -0.55,2.1c-0.17943,0.08034 -0.36276,0.16367 -0.55,0.25c-3.06667,1.4 -5.78333,2.1 -8.15,2.1c-0.61784,0 -1.23451,-0.01667 -1.85,-0.05c-6.05208,-0.30729 -11.35208,-2.17396 -15.9,-5.6c-5.63372,-4.20091 -8.46706,-9.81758 -8.5,-16.85c-6.16667,7.76667 -11.61667,13.06667 -16.35,15.9c-5.16667,3.06667 -11.63333,4.6 -19.4,4.6c-12.1,0 -22.18333,-5.5 -30.25,-16.5c-7.33333,-10.03333 -11,-21.36667 -11,-34c0,-4.7 0.75,-9.91667 2.25,-15.65c0.75273,-2.90781 1.58607,-5.40781 2.5,-7.5c0.06328,-0.14635 0.12995,-0.29635 0.2,-0.45c-0.01016,0.08294 -0.02682,0.16628 -0.05,0.25M830.3,358.05c0.9207,-0.12187 1.9207,-0.25521 3,-0.4c3.67305,-0.51823 6.28971,-0.86823 7.85,-1.05c-0.38971,0.4237 -0.78971,0.85703 -1.2,1.3c-5.8,6.3 -8.5,12.76667 -8.1,19.4c-1.33333,-3.4 -3.65,-7.96667 -6.95,-13.7c-0.98945,-1.7293 -1.95612,-3.34596 -2.9,-4.85c0.12891,0.09063 0.24557,0.17396 0.35,0.25l0.5,-0.35c0.33867,0.06667 0.67201,0.1 1,0.1c0.66875,0 2.81875,-0.23333 6.45,-0.7M862.7,481.05c5.43867,-1.99297 9.85534,-5.84297 13.25,-11.55c-0.05078,2.11615 -0.13411,4.04948 -0.25,5.8c-3.52357,4.16693 -7.19023,7.28359 -11,9.35c-0.68477,-0.06094 -1.6681,-0.21094 -2.95,-0.45c0.37461,-0.99349 0.69128,-2.04349 0.95,-3.15M755.75,384.55c0.04674,-0.00508 0.09674,-0.02174 0.15,-0.05c-0.11328,0.2237 -0.22995,0.44036 -0.35,0.65c-0.07214,0.1612 -0.15547,0.3112 -0.25,0.45c-1.31003,2.74076 -2.56003,6.39076 -3.75,10.95c-0.41927,1.60273 -0.8026,3.18607 -1.15,4.75c-0.33255,0 -0.68255,0 -1.05,0c-4.03333,0 -6.45,-0.05 -7.25,-0.15c-0.92604,-0.12865 -1.85937,-0.34531 -2.8,-0.65c-3.90117,3.36576 -9.63451,8.59909 -17.2,15.7c-13.5,12.63333 -20.25,20.16667 -20.25,22.6c0,1.4 1,2.4 3,3c1.13333,0.33333 2.3,0.5 3.5,0.5c0.21693,0 0.43359,0 0.65,0c1.89232,-0.06445 3.90898,-0.38112 6.05,-0.95c-3.3,4.47799 -4.95,8.94466 -4.95,13.4c0,1.26667 0.1,2.15 0.3,2.65c0.56667,1.46667 1.88333,2.25 3.95,2.35c5.76667,-0.43333 10.68333,-1.55 14.75,-3.35c2.2,-1 4.7,-2.38333 7.5,-4.15c0.2,1.73333 0,4.18333 -0.6,7.35c-0.73333,3.76667 -1.11667,6.28333 -1.15,7.55c-0.24102,5.36172 2.39232,9.51172 7.9,12.45c0.13164,0.79831 0.28164,1.66497 0.45,2.6c1.26667,6.9 2.81667,13.25 4.65,19.05c5.8,18.33333 13.3,27.5 22.5,27.5c2.16667,0 12.1,-5.58333 29.8,-16.75c8.06862,-5.09674 14.26862,-9.11341 18.6,-12.05c0.54336,0.03333 1.07669,0.05 1.6,0.05c6.7,0 11.35,-0.08333 13.95,-0.25c3.75651,-0.26836 7.08984,-0.76836 10,-1.5c1.46003,-0.33919 2.81003,-0.73919 4.05,-1.2c5.52044,-2.06354 9.53711,-5.38021 12.05,-9.95c0.40482,0.21016 0.85482,0.42682 1.35,0.65c2.63333,1.16667 4.66667,1.75 6.1,1.75c1.73529,0 3.28529,-0.11667 4.65,-0.35c-1.15065,1.23255 -2.56732,2.78255 -4.25,4.65c-2.6,2.33333 -5.4,3.33333 -8.4,3c-1.36667,-0.16667 -4.36667,0.88333 -9,3.15c-2.53099,1.24128 -4.66432,2.22461 -6.4,2.95c-1.82109,0.7612 -3.18776,1.22786 -4.1,1.4c0.07044,2.6293 1.73711,4.8293 5,6.6c1.36797,0.76536 3.01797,1.4487 4.95,2.05c1.08828,0.34557 2.18828,0.64557 3.3,0.9c-1.11406,0.1 -2.2474,0.15 -3.4,0.15c-0.59544,0 -2.07878,-0.21667 -4.45,-0.65c-0.91549,-0.16211 -1.98216,-0.36211 -3.2,-0.6c-4.3,-0.83333 -6.86667,-1.25 -7.7,-1.25c-0.8,0 -2.45,1.38333 -4.95,4.15c-2.80339,3.10117 -5.17005,5.56784 -7.1,7.4c-0.64596,0.64753 -1.24596,1.21419 -1.8,1.7c-7.38607,6.5681 -15.5194,10.68477 -24.4,12.35c-3.03555,0.6 -6.16888,0.9 -9.4,0.9c-9.73021,0 -18.48021,-2.11667 -26.25,-6.35c-4.49219,-2.4431 -8.65885,-5.60977 -12.5,-9.5c-3.26667,-3.3 -6.08333,-6.95 -8.45,-10.95c-0.27331,-0.52031 -0.52331,-1.00365 -0.75,-1.45c0.06667,-0.16419 0.1,-0.33086 0.1,-0.5c0,-0.6 -0.16667,-1.23333 -0.5,-1.9c-0.56667,-1.06667 -1.4,-1.6 -2.5,-1.6c-1,0.5 -2.26667,1 -3.8,1.5c-3.06667,1 -7.85,1.5 -14.35,1.5c-9.07201,0 -16.60534,-1.78333 -22.6,-5.35c-5.05469,-3.01641 -9.00469,-7.31641 -11.85,-12.9c-1.96667,-3.9 -3.28333,-8.21667 -3.95,-12.95c-0.3,-2.03333 -0.45,-4.21667 -0.45,-6.55c-0.06667,-3.9 -2.36667,-7.78333 -6.9,-11.65c-2.5,-1.96667 -4.3,-3.4 -5.4,-4.3c-1.93333,-1.56667 -3.25,-2.91667 -3.95,-4.05c-0.64076,-1.06471 -1.25742,-2.14805 -1.85,-3.25c-1.32773,-2.64596 -2.46107,-5.41263 -3.4,-8.3c-0.40078,-1.20221 -0.75078,-2.38555 -1.05,-3.55c13.78919,-0.56406 26.12253,-3.81406 37,-9.75c3.8,-2.06667 7.26667,-4.4 10.4,-7c2.53333,-2.23333 3.91667,-3.45 4.15,-3.65c3.43333,-2.63333 9.21667,-7.66667 17.35,-15.1c7.93294,-7.25599 12.63294,-12.05599 14.1,-14.4c0.52305,0 1.03971,0 1.55,0c5.11966,0 9.91966,-0.48333 14.4,-1.45z" fill="#c7463f"/><path d="M852.35,357.1c15.87565,2.11914 27.95898,9.66914 36.25,22.65c3.5,5.43333 6.11667,11.56667 7.85,18.4c1.16523,4.59987 1.79857,8.76654 1.9,12.5c0,0.31589 0,0.63255 0,0.95c0,3.6319 -0.5,8.3319 -1.5,14.1c-0.49284,2.85143 -1.10951,5.9681 -1.85,9.35c-0.07148,0.32135 -0.15482,0.63802 -0.25,0.95c-1.03815,4.73555 -2.08815,9.10221 -3.15,13.1c0,0.96667 0.58333,3.3 1.75,7c0.26068,0.82539 0.51068,1.57539 0.75,2.25c-2.84531,2.66198 -5.37865,5.96198 -7.6,9.9c-2.8,4.96667 -4.91667,10.65 -6.35,17.05c-1.03333,4.63333 -1.55,8.65 -1.55,12.05c0,0.90326 0.08333,1.98659 0.25,3.25c-2.60781,2.73268 -4.62448,4.66602 -6.05,5.8c-5.3681,4.41055 -11.7681,6.89388 -19.2,7.45c-1.11172,-0.25443 -2.21172,-0.55443 -3.3,-0.9c-1.93203,-0.6013 -3.58203,-1.28464 -4.95,-2.05c-3.26289,-1.7707 -4.92956,-3.9707 -5,-6.6c0.91224,-0.17214 2.27891,-0.6388 4.1,-1.4c1.73568,-0.72539 3.86901,-1.70872 6.4,-2.95c4.63333,-2.26667 7.63333,-3.31667 9,-3.15c3,0.33333 5.8,-0.66667 8.4,-3c1.68268,-1.86745 3.09935,-3.41745 4.25,-4.65c3.53568,-0.51706 5.90234,-1.73372 7.1,-3.65c0.66667,-1.03333 1,-3.16667 1,-6.4c0,-1.54323 -0.23333,-4.69323 -0.7,-9.45c3.66667,-5.67813 5.5,-11.21146 5.5,-16.6c0,-3.93711 -0.58333,-7.35378 -1.75,-10.25c0.79674,-5.35885 1.26341,-10.85885 1.4,-16.5c0.03333,-1.22982 0.05,-2.46315 0.05,-3.7c0,-1.25326 -0.08333,-2.51992 -0.25,-3.8c-0.65729,-4.80859 -2.55729,-9.70859 -5.7,-14.7c-5.3,-8.43333 -12.73333,-13.46667 -22.3,-15.1c-9.16667,-1.73333 -17.53333,1.75 -25.1,10.45c-1.95404,2.2332 -3.6707,4.61654 -5.15,7.15c-0.65221,-2.79831 -1.71888,-6.83164 -3.2,-12.1c-1.9,-6.73333 -3.5,-12.15 -4.8,-16.25c-1.16667,-3.93333 -4.23333,-7.13333 -9.2,-9.6c-4.46667,-2.2 -9.63333,-3.46667 -15.5,-3.8c-2.75729,-0.15938 -5.30729,-0.09271 -7.65,0.2c-0.19427,0.02305 -0.39427,0.03971 -0.6,0.05c0.28841,-0.35742 0.55508,-0.72409 0.8,-1.1c2.7526,-3.98281 4.93594,-8.29948 6.55,-12.95c1.27109,-3.65117 2.02109,-6.88451 2.25,-9.7c0.02318,-0.14388 0.03984,-0.29388 0.05,-0.45c0.70755,0.11992 1.40755,0.25326 2.1,0.4c3.50859,0.88451 6.82526,2.40117 9.95,4.55c0.05833,0.63646 0.19167,1.01979 0.4,1.15l0.35,0.25c0.4168,0 0.80013,-0.01667 1.15,-0.05c0.21888,0.19023 0.43555,0.37357 0.65,0.55c1.43333,1.13333 3.58333,3.11667 6.45,5.95c0.55755,0.54297 1.09089,1.04297 1.6,1.5c1.13021,1.08685 2.13021,1.98685 3,2.7c0.38607,0.32578 0.73607,0.60911 1.05,0.85c0.94388,1.50404 1.91055,3.1207 2.9,4.85c3.3,5.73333 5.61667,10.3 6.95,13.7c-0.4,-6.63333 2.3,-13.1 8.1,-19.4c0.41029,-0.44297 0.81029,-0.8763 1.2,-1.3c0.76328,-0.06667 1.27995,-0.1 1.55,-0.1c2.34271,0 4.60938,0.1 6.8,0.3c0.97773,0.08646 1.92773,0.18646 2.85,0.3M864.7,484.65c3.80977,-2.06641 7.47643,-5.18307 11,-9.35c-0.2043,3.31146 -0.48763,6.04479 -0.85,8.2c-2.3,0.36667 -3.96667,0.63333 -5,0.8c-1.83333,0.3 -3.25,0.45 -4.25,0.45c-0.20885,0 -0.50885,-0.03333 -0.9,-0.1M742.1,401.15c0.8,0.1 3.21667,0.15 7.25,0.15c0.36745,0 0.71745,0 1.05,0c-0.93789,4.12161 -1.63789,8.08828 -2.1,11.9c-0.07005,0.15365 -0.13672,0.30365 -0.2,0.45c-0.91393,2.09219 -1.74727,4.59219 -2.5,7.5c-1.5,5.73333 -2.25,10.95 -2.25,15.65c0,12.63333 3.66667,23.96667 11,34c8.06667,11 18.15,16.5 30.25,16.5c7.76667,0 14.23333,-1.53333 19.4,-4.6c4.73333,-2.83333 10.18333,-8.13333 16.35,-15.9c0.03294,7.03242 2.86628,12.64909 8.5,16.85c4.54792,3.42604 9.84792,5.29271 15.9,5.6c0.61549,0.03333 1.23216,0.05 1.85,0.05c2.36667,0 5.08333,-0.7 8.15,-2.1c0.18724,-0.08633 0.37057,-0.16966 0.55,-0.25c-0.14505,0.28346 -0.32839,0.55013 -0.55,0.8c-0.30104,0.43424 -0.68438,0.83424 -1.15,1.2c-1.82292,1.41628 -4.85625,2.53294 -9.1,3.35c-4.13008,0.80417 -9.43008,1.32083 -15.9,1.55c0.68659,0.18815 1.41992,0.38815 2.2,0.6c-11.13854,-0.48958 -19.45521,-1.07292 -24.95,-1.75c-9.8,-1.16667 -18.8,-2.73333 -27,-4.7c-18.30846,-4.36497 -29.95846,-9.94831 -34.95,-16.75c-0.01432,-0.08229 -0.03099,-0.16563 -0.05,-0.25c-0.04414,0 -0.09414,0 -0.15,0c-1.73333,-2.47331 -2.6,-5.10664 -2.6,-7.9c0,-0.83333 0.33333,-3.38333 1,-7.65c0.66667,-4.3 1,-6.86667 1,-7.7c0,-1.1 -0.06667,-1.85 -0.2,-2.25c-0.46667,-1.33333 -1.48333,-2 -3.05,-2c-1.3,0 -5.16667,1.68333 -11.6,5.05c-6.86667,3.56667 -11.33333,5.55 -13.4,5.95c-0.1,-0.1 -0.16667,-0.25 -0.2,-0.45l-0.3,-1.8c1.63333,-3.93333 3.8,-7.61667 6.5,-11.05c2.43333,-3.13333 5.93333,-6.78333 10.5,-10.95l-0.5,-0.75c-5.10404,2.13958 -9.3707,4.93958 -12.8,8.4c-1.00534,1.03333 -1.93867,2.11667 -2.8,3.25c-0.05898,0.07799 -0.12565,0.14466 -0.2,0.2c-2.14102,0.56888 -4.15768,0.88555 -6.05,0.95c-0.21641,0 -0.43307,0 -0.65,0c-1.2,0 -2.36667,-0.16667 -3.5,-0.5c-2,-0.6 -3,-1.6 -3,-3c0,-2.43333 6.75,-9.96667 20.25,-22.6c7.56549,-7.10091 13.29883,-12.33424 17.2,-15.7c0.94062,0.30469 1.87396,0.52135 2.8,0.65z" fill="#ffa420"/><path d="M699.8,194.45c0.41328,-3.10091 0.97995,-6.23424 1.7,-9.4c0.1901,3.93997 0.57344,7.75664 1.15,11.45c-0.46016,-0.38294 -0.89349,-0.73294 -1.3,-1.05c-0.5569,-0.43385 -1.07357,-0.76719 -1.55,-1M768.6,201.05c1.20326,-3.2293 2.50326,-5.74596 3.9,-7.55c-0.91602,2.22018 -1.71602,4.55352 -2.4,7c-0.48385,0.1918 -0.98385,0.37513 -1.5,0.55M708.25,217.1c1.26602,3.09401 2.69935,6.07734 4.3,8.95c0.19518,0.35104 0.39518,0.70104 0.6,1.05c-4.66198,-0.03151 -7.77865,0.35182 -9.35,1.15c-0.8151,0.39349 -1.29844,1.22682 -1.45,2.5c0,0.23346 0,0.48346 0,0.75c0,0.35104 0,0.65104 0,0.9c-0.15352,-0.64297 -0.32018,-1.29297 -0.5,-1.95c-0.07526,-0.37852 -0.15859,-0.76185 -0.25,-1.15c-1.14167,-5.04401 -1.89167,-10.32734 -2.25,-15.85c-0.16667,-2.50716 -0.25,-5.07383 -0.25,-7.7c0,-1.56497 0.03333,-3.14831 0.1,-4.75c1.31914,1.27799 3.10247,2.92799 5.35,4.95c1.01419,3.86406 2.24753,7.58073 3.7,11.15M757.05,289.6c2.92461,1.63255 5.95794,3.11589 9.1,4.45c9.67357,4.16628 20.5069,7.01628 32.5,8.55c-7.46328,-0.61445 -15.17995,-1.99779 -23.15,-4.15c-0.87083,-0.23411 -1.7375,-0.48411 -2.6,-0.75c-2.09167,-0.58815 -4.15833,-1.23815 -6.2,-1.95c-4.16576,-1.40664 -8.19909,-3.00664 -12.1,-4.8c-4.47865,-2.06745 -8.76198,-4.38411 -12.85,-6.95c-0.63958,-0.38997 -1.27292,-0.78997 -1.9,-1.2c-19.1638,-12.57995 -31.58047,-29.07995 -37.25,-49.5c0.16667,0.20586 0.25,0.35586 0.25,0.45h0.1l0.95,0.25c0.93333,0.16667 1.91667,0.25 2.95,0.25c3.3931,0 6.17643,-0.11667 8.35,-0.35c0.48503,2.07292 1.08503,4.23958 1.8,6.5c3.23333,10.16667 8.11667,19.36667 14.65,27.6c4.4987,5.65286 9.5987,10.6362 15.3,14.95c3.18451,2.42969 6.55117,4.64635 10.1,6.65M768.3,208.7c-0.8,5.10938 -1.2,10.62604 -1.2,16.55c0,0.62214 0.03333,1.32214 0.1,2.1c-1.0763,0.23138 -2.14297,0.49805 -3.2,0.8c-0.20443,0.05794 -0.40443,0.10794 -0.6,0.15c0.20807,-5.9487 1.10807,-12.1987 2.7,-18.75c0.70299,-0.25417 1.43633,-0.5375 2.2,-0.85M768.1,234.6c0.94596,5.57982 2.36263,10.71315 4.25,15.4c6.23333,15.5 16.4,23.25 30.5,23.25c11.96667,0 22.38333,-5.26667 31.25,-15.8c0.08477,-0.10117 0.1681,-0.20117 0.25,-0.3c-0.33333,1.5625 -0.5,2.59583 -0.5,3.1c0,0.1 -0.06667,0.86667 -0.2,2.3c0,1.63333 0.31667,3.11667 0.95,4.45c2.03333,4.16667 6.95,6.25 14.75,6.25c5.6,0 11.98333,-2.4 19.15,-7.2c6.93333,-4.63333 13.56667,-10.81667 19.9,-18.55c1.37865,-1.69362 2.69531,-3.41029 3.95,-5.15c-0.53893,1.90195 -1.22227,3.81862 -2.05,5.75c-2.39648,5.53086 -7.07982,12.09753 -14.05,19.7c-1.21849,1.34805 -2.48516,2.58138 -3.8,3.7c-0.02174,0 -0.05508,0 -0.1,0c-0.96667,0 -3.76667,1.38333 -8.4,4.15c-1.90221,1.17279 -3.41888,2.08945 -4.55,2.75c-0.51549,0.32917 -0.94883,0.59583 -1.3,0.8c-2.07643,0.54531 -4.22643,0.89531 -6.45,1.05c-9.38919,0.65924 -15.17253,-0.24076 -17.35,-2.7c-0.28945,-0.33125 -0.58945,-0.69792 -0.9,-1.1c-1.74974,-2.37565 -3.26641,-5.60898 -4.55,-9.7c-1.78737,2.1832 -6.2207,5.19987 -13.3,9.05c-0.23164,0.12604 -0.46497,0.24271 -0.7,0.35c-6.83984,3.5793 -13.57318,4.74596 -20.2,3.5c-2.31836,-0.42096 -4.63503,-1.18763 -6.95,-2.3c-4.38503,-2.07956 -8.70169,-5.37956 -12.95,-9.9c-3.67747,-5.80182 -6.84414,-13.25182 -9.5,-22.35c-0.50755,-1.72786 -1.00755,-3.54453 -1.5,-5.45c-0.13516,-1.44557 -0.23516,-2.92891 -0.3,-4.45c1.61771,-0.09557 3.16771,-0.29557 4.65,-0.6z" fill="#86bcff"/><path d="M923.75,530.25c0.44362,0.13398 0.87695,0.25065 1.3,0.35c-2.02187,0.26667 -4.13854,0.4 -6.35,0.4c-2.52096,0 -4.92096,-0.2 -7.2,-0.6c1.86784,0.26667 3.83451,0.4 5.9,0.4c2.19492,0 4.31159,-0.18333 6.35,-0.55M913.3,520.05c4.925,-0.5332 9.55833,-2.3832 13.9,-5.55c4.17201,1.74701 8.52201,2.91367 13.05,3.5c-4.51237,4.54297 -9.6957,7.45964 -15.55,8.75c-1.73984,-0.72227 -3.57318,-1.63893 -5.5,-2.75c-2.12604,-1.22214 -4.09271,-2.5388 -5.9,-3.95M948.05,518.5c-4.15898,4.87031 -9.22565,8.32031 -15.2,10.35c-0.84349,-0.06042 -1.71016,-0.17708 -2.6,-0.35c5.24128,-2.03008 9.92461,-5.39674 14.05,-10.1c1.11458,0.06667 2.23125,0.1 3.35,0.1c0.14193,0 0.27526,0 0.4,0M953.2,494.65c-0.0612,0.25599 -0.12786,0.50599 -0.2,0.75c-1.56667,5.43333 -3.76667,10.38333 -6.6,14.85c-1.02448,1.6112 -2.09115,3.1112 -3.2,4.5c-1.22253,-0.12995 -2.48919,-0.29661 -3.8,-0.5c-2.83333,-0.43333 -5.11667,-1.05 -6.85,-1.85c-0.70208,-0.30977 -1.30208,-0.57643 -1.8,-0.8c0.79102,-0.73424 1.57435,-1.51758 2.35,-2.35c1.92786,-2.0707 3.59453,-4.25404 5,-6.55c4.33164,-2.20833 8.34831,-5.475 12.05,-9.8c0.85378,0.48568 1.87044,1.06901 3.05,1.75M957.15,498.7c0.23177,0.28099 0.44844,0.53099 0.65,0.75c-0.96654,3.48958 -2.19987,6.75625 -3.7,9.8c-1.0332,2.08099 -2.16654,4.01432 -3.4,5.8c-1.15234,0.04596 -2.38568,0.04596 -3.7,0c3.95534,-5.35339 6.82201,-11.40339 8.6,-18.15c0.46797,0.50651 0.98464,1.10651 1.55,1.8M889.5,514.5c4.23255,3.47682 10.28255,5.37682 18.15,5.7c2.79219,3.07956 5.87552,5.52956 9.25,7.35c-6.83776,-0.06445 -12.63776,-1.56445 -17.4,-4.5c-2.83333,-1.73333 -4.78333,-3.48333 -5.85,-5.25c-0.3,0.1 -0.55,0.21667 -0.75,0.35c-0.06667,0.06667 -0.11667,0.11667 -0.15,0.15c0.29661,1.16888 0.92995,2.35221 1.9,3.55c-1.66536,-1.70534 -3.18203,-3.65534 -4.55,-5.85c-0.4168,-0.67031 -0.8168,-1.33698 -1.2,-2c0.19753,0.16497 0.39753,0.33164 0.6,0.5M884.2,496.6c-0.19531,1.12995 -0.34531,2.19661 -0.45,3.2c-0.26667,-0.87786 -0.4,-1.72786 -0.4,-2.55c0,-1.68008 0.28333,-3.18008 0.85,-4.5c0.02461,-0.12721 0.04128,-0.26055 0.05,-0.4c0.18372,0.36602 0.38372,0.71602 0.6,1.05c-0.23424,1.00964 -0.45091,2.0763 -0.65,3.2M887.9,496.95c2.31341,1.84206 5.23008,2.89206 8.75,3.15c1.39687,4.45859 3.21354,8.59193 5.45,12.4c0.70664,1.2043 1.43997,2.3543 2.2,3.45c-5.63034,-0.63359 -10.21367,-2.21693 -13.75,-4.75c-1.07799,-0.77721 -2.02799,-1.62721 -2.85,-2.55c0.53333,-0.34167 0.8,-0.80833 0.8,-1.4c0,-0.4 -0.2,-1.01667 -0.6,-1.85c-0.43333,-0.83333 -0.65,-1.46667 -0.65,-1.9c0,-2.11055 0.21667,-4.29388 0.65,-6.55M901.6,499.95c2.99531,2.125 6.31198,3.70833 9.95,4.75c3.68203,3.1944 7.53203,5.82773 11.55,7.9c-4.04414,2.43333 -8.34414,3.65 -12.9,3.65c-0.40508,0 -0.80508,0 -1.2,0c-3.20078,-3.26927 -5.66745,-6.91927 -7.4,-10.95c-0.69414,-1.59648 -1.31081,-3.32982 -1.85,-5.2c0.62852,-0.01458 1.24518,-0.06458 1.85,-0.15M895.6,496.3c-2.82799,-0.31797 -5.06133,-1.41797 -6.7,-3.3c0.16159,-0.49271 0.32826,-0.99271 0.5,-1.5c0.5599,-1.64219 1.17656,-3.14219 1.85,-4.5c0.93854,2.42174 2.18854,4.65508 3.75,6.7c0.14661,0.76914 0.34661,1.63581 0.6,2.6M888.4,476.7c0.33008,0.37839 0.66341,0.71172 1,1c0.08333,1.64362 0.26667,3.22695 0.55,4.75c-1.47578,1.91693 -2.64245,3.86693 -3.5,5.85c-0.36667,-1.30065 -0.55,-2.70065 -0.55,-4.2c0,-0.46667 0.06667,-1 0.2,-1.6c0.1,-0.6 0.15,-1 0.15,-1.2c0,-0.06263 0,-0.1293 0,-0.2c0.19622,-0.62174 0.39622,-1.23841 0.6,-1.85c0.1099,-0.11562 0.22656,-0.21563 0.35,-0.3c0.63333,-0.46667 0.95,-0.86667 0.95,-1.2c0,-0.47995 -0.11667,-0.79661 -0.35,-0.95c0.09531,-0.16159 0.17865,-0.32826 0.25,-0.5c0.1151,0.12682 0.23177,0.26016 0.35,0.4M889.25,473.9c0.03437,-0.0418 0.06771,-0.0918 0.1,-0.15c0,0.08372 0,0.16706 0,0.25c-0.03216,-0.02552 -0.06549,-0.05885 -0.1,-0.1M960.1,485.6c0,2.03333 -0.31667,4.75 -0.95,8.15c-0.0056,0.02956 -0.02227,0.06289 -0.05,0.1c-0.66237,-0.63841 -1.4457,-1.28841 -2.35,-1.95c0.59974,-3.30508 0.96641,-6.77174 1.1,-10.4c0.47565,-0.90169 0.92565,-1.81836 1.35,-2.75c0.6,2.17344 0.9,4.45677 0.9,6.85M928.3,508.7c-0.52656,0.4819 -1.0599,0.9319 -1.6,1.35c-1.85482,-0.72174 -3.75482,-1.75508 -5.7,-3.1c-0.37682,-0.28268 -0.74349,-0.56602 -1.1,-0.85c1.12708,0.1 2.27708,0.15 3.45,0.15c2.89193,0 5.67526,-0.36667 8.35,-1.1c-0.99831,1.19974 -2.13164,2.38307 -3.4,3.55M953.6,489.95c-0.25156,-0.14167 -0.51823,-0.29167 -0.8,-0.45c0.55156,-0.70104 1.0849,-1.43438 1.6,-2.2c0.1556,-0.23411 0.3056,-0.46745 0.45,-0.7c-0.13437,1.20339 -0.33437,2.43672 -0.6,3.7c-0.20846,-0.10573 -0.42513,-0.2224 -0.65,-0.35z" fill="#343545"/><path d="M950.15,492.9c-3.70169,4.325 -7.71836,7.59167 -12.05,9.8c2.57135,-4.13867 4.28802,-8.63867 5.15,-13.5c1.87656,0.89583 3.72656,1.8625 5.55,2.9c0.39063,0.22487 0.84063,0.49154 1.35,0.8M908.1,501.45c1.14167,1.14167 2.29167,2.225 3.45,3.25c-3.63802,-1.04167 -6.95469,-2.625 -9.95,-4.75c1.51146,-0.14753 2.92813,-0.43086 4.25,-0.85c0.73294,0.79961 1.48294,1.58294 2.25,2.35M898.25,489c1.43203,2.35156 3.03203,4.61823 4.8,6.8c-1.33451,0.31328 -2.76784,0.49661 -4.3,0.55c-0.31471,-1.51979 -0.59805,-3.11979 -0.85,-4.8c-0.17083,-1.42357 -0.3375,-2.7569 -0.5,-4c0.25911,0.45573 0.54245,0.93906 0.85,1.45M894.65,490.85c0,0.72357 0.11667,1.67357 0.35,2.85c-1.56146,-2.04492 -2.81146,-4.27826 -3.75,-6.7c1.09857,-2.05846 2.34857,-3.77513 3.75,-5.15c-0.23333,2.11888 -0.35,5.11888 -0.35,9M893.2,479c-0.54792,0.45469 -1.13125,1.02135 -1.75,1.7c-0.52031,0.57969 -1.02031,1.16302 -1.5,1.75c-0.28333,-1.52305 -0.46667,-3.10638 -0.55,-4.75c1.0543,0.9 2.13763,1.35 3.25,1.35c0.18867,0 0.37201,-0.01667 0.55,-0.05M894.5,468c-0.16667,0.96667 -0.25,2.73333 -0.25,5.3c0,0.06341 0.2,1.31341 0.6,3.75c-0.8625,-0.29167 -1.92917,-0.54167 -3.2,-0.75c-0.8,-0.86667 -1.45,-1.53333 -1.95,-2c-0.11667,-0.10417 -0.23333,-0.20417 -0.35,-0.3c0,-0.08294 0,-0.16628 0,-0.25c1.10768,-1.98958 2.39102,-3.83958 3.85,-5.55c0.2776,-0.12839 0.74427,-0.37839 1.4,-0.75c-0.03255,0.18776 -0.06589,0.37109 -0.1,0.55M959.2,478.75c-0.42435,0.93164 -0.87435,1.84831 -1.35,2.75c0.03333,-1.0194 0.05,-2.05273 0.05,-3.1c0,-1.4 -0.53333,-3.33333 -1.6,-5.8c-0.2207,-0.51927 -0.45404,-1.03594 -0.7,-1.55c1.67409,2.39961 2.87409,4.96628 3.6,7.7M916.55,478.7c-1.41341,-0.17018 -2.81341,-0.32018 -4.2,-0.45c-5.91406,-0.52513 -10.28073,-0.35846 -13.1,0.5c3.00312,-4.14115 7.11979,-8.29115 12.35,-12.45c0.52865,0.4806 1.04531,1.0306 1.55,1.65c2.3,2.76667 3.45,5.95 3.45,9.55c0,0.4138 -0.01667,0.8138 -0.05,1.2M921.5,482.75c1.2,0.2 3.5,0.63333 6.9,1.3c2.73333,0.36667 5.33333,1.01667 7.8,1.95c0.61458,0.24583 1.69792,0.7125 3.25,1.4c-0.63633,4.02721 -1.91966,8.02721 -3.85,12c-0.94987,1.94102 -2.24987,3.85768 -3.9,5.75c-2.67474,0.73333 -5.45807,1.1 -8.35,1.1c-1.17292,0 -2.32292,-0.05 -3.45,-0.15c-2.39271,-1.76185 -4.24271,-3.07852 -5.55,-3.95c-1.27578,-0.84362 -2.95911,-2.34362 -5.05,-4.5c2.17982,-1.15534 4.04648,-2.73867 5.6,-4.75c2.15716,-2.7651 3.67383,-6.24844 4.55,-10.45c0.86367,0.10456 1.54701,0.20456 2.05,0.3M916.05,482.2c-0.38516,1.81159 -1.01849,3.54492 -1.9,5.2c-1.77813,3.36901 -4.32812,5.78568 -7.65,7.25c-0.47487,-0.53268 -0.97487,-1.09935 -1.5,-1.7c-4.66667,-5.36667 -7,-9.05 -7,-11.05c0,-0.13776 0.01667,-0.32109 0.05,-0.55c0.16966,-0.0181 0.30299,-0.05143 0.4,-0.1c0.2,-0.13333 0.33333,-0.2 0.4,-0.2l0.1,-0.65c0.21029,0.1875 0.42695,0.3875 0.65,0.6c1.16667,0.5 3.93333,0.8 8.3,0.9c3.27643,0.09193 5.9931,0.19193 8.15,0.3M923.85,458.9c3.57396,0.78776 6.84063,2.78776 9.8,6c4.16667,4.56667 6.25,10.13333 6.25,16.7c0,0.83646 -0.03333,1.66979 -0.1,2.5c-1.83138,-0.60078 -3.76471,-1.18411 -5.8,-1.75c-4.84479,-1.32708 -9.51146,-2.36042 -14,-3.1c0.26667,-2.05703 0.4,-4.25703 0.4,-6.6c0,-1.83333 -0.78333,-3.71667 -2.35,-5.65c-0.91029,-1.09596 -2.01029,-2.1293 -3.3,-3.1c3.13841,-2.18893 6.17174,-3.8556 9.1,-5M934.9,472.05c-0.26667,0.06667 -0.53333,0.21667 -0.8,0.45c-0.3,0.26667 -0.45,0.48333 -0.45,0.65l0.1,0.75c0.26667,0.26667 0.65,0.48333 1.15,0.65c0.4,-0.16667 0.71667,-0.41667 0.95,-0.75c0.2,-0.3 0.3,-0.55 0.3,-0.75c-0.26667,-0.43333 -0.68333,-0.76667 -1.25,-1M932.25,468.55c0,-2.6 -1.61667,-4.6 -4.85,-6c-3.26667,-1.4 -4.9,-0.41667 -4.9,2.95c0,1.53333 0.33333,2.71667 1,3.55c1.16667,1.4 3.3,2.1 6.4,2.1c1,0 1.66667,-0.25 2,-0.75c0.23333,-0.33333 0.35,-0.95 0.35,-1.85M908.4,464.55c-1.26667,1.16667 -3.45,3.71667 -6.55,7.65c-1.4987,1.90482 -2.68203,3.50482 -3.55,4.8c-0.7,-2.71393 -1.05,-5.86393 -1.05,-9.45c0,-0.5 0.13333,-1.03333 0.4,-1.6c0.0293,-0.05378 0.04596,-0.10378 0.05,-0.15c2.52839,-1.26667 5.24505,-1.9 8.15,-1.9c0.93424,0 1.83424,0.16667 2.7,0.5c-0.04375,0.04857 -0.09375,0.09857 -0.15,0.15M914.35,459.45c-0.5582,0.40651 -1.12487,0.83984 -1.7,1.3c-0.21471,0.16875 -0.63138,0.51875 -1.25,1.05c-0.01589,0.00924 -0.03255,0.00924 -0.05,0c-2.29701,-1.5112 -4.83034,-2.2112 -7.6,-2.1c2.42305,-1.23268 4.98971,-2.19935 7.7,-2.9c-0.47396,0.40273 -0.99063,0.85273 -1.55,1.35c0.46667,0.36667 1.05,0.71667 1.75,1.05c0.63333,0.3 1.05,0.45 1.25,0.45c0.23711,0 0.72044,-0.06667 1.45,-0.2M931.05,457.2c1.42852,-0.1043 2.81185,-0.07096 4.15,0.1c0.74935,0.21589 1.48268,0.44922 2.2,0.7c0.07109,0.10195 0.15443,0.21862 0.25,0.35c0.3,0.36667 0.71667,0.55 1.25,0.55c0.20404,0 0.38737,-0.03333 0.55,-0.1c0.06823,0.01315 0.11823,0.02982 0.15,0.05c-0.56875,0.12096 -1.15208,0.3043 -1.75,0.55c4.86667,2.53333 7.91667,4.23333 9.15,5.1c2.56667,1.76667 4.1,3.61667 4.6,5.55c0.1,0.36667 0.71667,2.25 1.85,5.65c1.1,3.46667 1.65,5.76667 1.65,6.9c0,1.27865 -0.08333,2.61198 -0.25,4c-0.1444,0.23255 -0.2944,0.46589 -0.45,0.7c-0.5151,0.76563 -1.04844,1.49896 -1.6,2.2c-2.62201,-1.41198 -5.65534,-2.76198 -9.1,-4.05c0.13333,-1.25456 0.2,-2.53789 0.2,-3.85c0,-5 -0.01667,-7.56667 -0.05,-7.7c-0.4,-2.16667 -1.98333,-5.28333 -4.75,-9.35c-1.46667,-2.03333 -2.81667,-3.6 -4.05,-4.7c-1.12266,-0.97708 -2.45599,-1.86042 -4,-2.65z" fill="#485e84"/><path d="M814.35,323.5c-0.33333,0.5 -0.5,1 -0.5,1.5c-0.3,0.5 -1.4,3.48333 -3.3,8.95c-0.73151,2.09167 -1.33151,3.90833 -1.8,5.45c-0.0724,0.21328 -0.13906,0.41328 -0.2,0.6c-2.39297,-1.66888 -5.3263,-3.10221 -8.8,-4.3c-1.83359,-0.63125 -3.40026,-1.01458 -4.7,-1.15c-0.58789,-5.25104 -2.18789,-9.93437 -4.8,-14.05c0.23411,0.02982 0.46745,0.06315 0.7,0.1c1.53464,0.18216 3.3013,0.38216 5.3,0.6c8.66667,1 14.7,1.76667 18.1,2.3z" fill="#91c53c"/><path d="M931.9,470.4c-0.33333,0.5 -1,0.75 -2,0.75c-3.1,0 -5.23333,-0.7 -6.4,-2.1c-0.66667,-0.83333 -1,-2.01667 -1,-3.55c0,-3.36667 1.63333,-4.35 4.9,-2.95c3.23333,1.4 4.85,3.4 4.85,6c0,0.9 -0.11667,1.51667 -0.35,1.85M935.85,473.8c-0.23333,0.33333 -0.55,0.58333 -0.95,0.75c-0.5,-0.16667 -0.88333,-0.38333 -1.15,-0.65l-0.1,-0.75c0,-0.16667 0.15,-0.38333 0.45,-0.65c0.26667,-0.23333 0.53333,-0.38333 0.8,-0.45c0.56667,0.23333 0.98333,0.56667 1.25,1c0,0.2 -0.1,0.45 -0.3,0.75z" fill="#8fbbbe"/></g></g></svg>