<svg version="1.1" xmlns="http://www.w3.org/2000/svg" xmlns:xlink="http://www.w3.org/1999/xlink" width="628.15" height="173.55" viewBox="0,0,628.15,173.55"><g transform="translate(-331.24234,-275.99279)"><g data-paper-data="{&quot;isPaintingLayer&quot;:true}" fill-rule="nonzero" stroke="none" stroke-width="1" stroke-linecap="butt" stroke-linejoin="miter" stroke-miterlimit="10" stroke-dasharray="" stroke-dashoffset="0" style="mix-blend-mode: normal"><path d="M356.59234,285.64279c2.03333,-0.23333 4.06667,-0.48333 6.1,-0.75c0.83333,-0.23333 1.66667,-0.46667 2.5,-0.7c2,-0.23333 4.01667,-0.46667 6.05,-0.7c0.83333,-0.23333 1.66667,-0.46667 2.5,-0.7c2.5,-0.23333 5,-0.48333 7.5,-0.75c0.83333,-0.23333 1.66667,-0.46667 2.5,-0.7c2.5,-0.23333 5,-0.46667 7.5,-0.7c0.83333,-0.23333 1.66667,-0.46667 2.5,-0.7c2.03333,-0.26667 4.05,-0.51667 6.05,-0.75c0.86667,-0.1 1.7,-0.26667 2.5,-0.5c0.03333,0 0.05,-0.06667 0.05,-0.2c2.83333,0 5.68333,0.01667 8.55,0.05c4.76667,0.1 9.53333,0.2 14.3,0.3c0.7,0.23333 1.4,0.46667 2.1,0.7c1.66667,0.26667 3.33333,0.51667 5,0.75c0.73333,0.23333 1.45,0.46667 2.15,0.7c0.23333,0.23333 0.48333,0.46667 0.75,0.7c0.7,0.23333 1.4,0.48333 2.1,0.75c0.36667,0.23333 0.73333,0.46667 1.1,0.7c0.6,0.23333 1.2,0.46667 1.8,0.7c0.33333,0.36667 0.68333,0.71667 1.05,1.05c0.36667,0.36667 0.71667,0.73333 1.05,1.1c0.36667,0.36667 0.73333,0.71667 1.1,1.05c0.36667,0.36667 0.71667,0.73333 1.05,1.1c0.36667,0.33333 0.73333,0.68333 1.1,1.05c0.1,0.36667 0.21667,0.73333 0.35,1.1c0.1,0.33333 0.21667,0.68333 0.35,1.05c0,0.36667 0,0.71667 0,1.05c0.23333,0.36667 0.46667,0.73333 0.7,1.1c0.13333,0.36667 0.25,0.71667 0.35,1.05c0.13333,0.36667 0.26667,0.73333 0.4,1.1c0,0.33333 0,0.68333 0,1.05c0,0.36667 0,0.73333 0,1.1c0,0.33333 0,0.68333 0,1.05c0,0.36667 0,0.71667 0,1.05c0,0.36667 0,0.73333 0,1.1c0,0.36667 0,0.71667 0,1.05c0,0.36667 0,0.73333 0,1.1c0,0.33333 0,0.68333 0,1.05c0,0.06497 0,0.13164 0,0.2c0.12057,-0.05169 0.23724,-0.10169 0.35,-0.15c0.6,-0.26667 1.18333,-0.51667 1.75,-0.75c0.6,-0.36667 1.2,-0.73333 1.8,-1.1c0.46667,-0.33333 0.95,-0.68333 1.45,-1.05c0.83333,-0.36667 1.66667,-0.71667 2.5,-1.05c0.33333,-0.36667 0.68333,-0.73333 1.05,-1.1c0.23333,-0.23333 0.46667,-0.46667 0.7,-0.7c0.26667,-0.13333 0.51667,-0.25 0.75,-0.35c0.6,-0.23333 1.18333,-0.48333 1.75,-0.75c0.36667,-0.23333 0.73333,-0.46667 1.1,-0.7c0.46667,-0.1 0.93333,-0.23333 1.4,-0.4c0.73333,-0.2 1.45,-0.43333 2.15,-0.7c0.6,-0.2 1.2,-0.43333 1.8,-0.7c0.6,-0.1 1.2,-0.21667 1.8,-0.35c4.26667,0 8.55,0 12.85,0c0.7,0.23333 1.41667,0.45 2.15,0.65c1.16667,0.3 2.35,0.6 3.55,0.9c0.7,0.16667 1.41667,0.36667 2.15,0.6c0.7,0.23333 1.41667,0.46667 2.15,0.7c0.7,0.26667 1.41667,0.51667 2.15,0.75c0.23333,0.23333 0.46667,0.46667 0.7,0.7c0.7,0.23333 1.41667,0.46667 2.15,0.7c0.33333,0.36667 0.68333,0.73333 1.05,1.1c0.36667,0.23333 0.71667,0.48333 1.05,0.75c0.13333,0.1 0.26667,0.2 0.4,0.3c0.6,0.23333 1.18333,0.46667 1.75,0.7c0.5,0.36667 0.98333,0.73333 1.45,1.1c0.36667,0.23333 0.71667,0.46667 1.05,0.7c0.5,-0.1 0.98333,-0.21667 1.45,-0.35c0.36667,-0.36667 0.71667,-0.71667 1.05,-1.05c0.36667,-0.36667 0.73333,-0.73333 1.1,-1.1c0.36667,-0.36667 0.71667,-0.71667 1.05,-1.05c0.23333,-0.36667 0.48333,-0.73333 0.75,-1.1c0.1,-0.33333 0.21667,-0.68333 0.35,-1.05c0.23333,-0.36667 0.46667,-0.73333 0.7,-1.1c0.46667,-0.33333 0.95,-0.68333 1.45,-1.05c0.23333,-0.36667 0.46667,-0.71667 0.7,-1.05c0.36667,-0.36667 0.71667,-0.73333 1.05,-1.1c0.36667,-0.23333 0.73333,-0.46667 1.1,-0.7c0.6,-0.23333 1.18333,-0.46667 1.75,-0.7c0.36667,-0.26667 0.73333,-0.51667 1.1,-0.75c0.6,-0.1 1.2,-0.21667 1.8,-0.35c1.06667,-0.23333 2.13333,-0.48333 3.2,-0.75c0.83333,-0.2 1.66667,-0.41667 2.5,-0.65c10,0 20,0 30,0c0.7,0.23333 1.41667,0.46667 2.15,0.7c5,0.23333 10,0.46667 15,0.7c0.7,0.23333 1.41667,0.45 2.15,0.65c1.16667,0.3 2.33333,0.58333 3.5,0.85c0.73333,0.2 1.46667,0.41667 2.2,0.65c0.46667,0.36667 0.93333,0.71667 1.4,1.05c0.5,0.36667 0.98333,0.73333 1.45,1.1c0.36667,0.36667 0.71667,0.71667 1.05,1.05c0.13333,0.36667 0.25,0.73333 0.35,1.1c0.26667,0.33333 0.51667,0.68333 0.75,1.05c0.1,0.36667 0.21667,0.73333 0.35,1.1c0.23333,0.23333 0.46667,0.46667 0.7,0.7c0.36667,-0.13333 0.73333,-0.25 1.1,-0.35c0.33333,-0.36667 0.68333,-0.73333 1.05,-1.1c0.36667,-0.33333 0.71667,-0.68333 1.05,-1.05c0.36667,-0.36667 0.73333,-0.73333 1.1,-1.1c0.36667,-0.23333 0.71667,-0.46667 1.05,-0.7c0.13333,-0.1 0.26667,-0.18333 0.4,-0.25c0.56667,-0.2 1.15,-0.35 1.75,-0.45c0.6,-0.23333 1.2,-0.45 1.8,-0.65c0.83333,-0.3 1.66667,-0.56667 2.5,-0.8c3.93333,-0.23333 7.86667,-0.46667 11.8,-0.7c0.83333,-0.23333 1.66667,-0.46667 2.5,-0.7c2.46667,-0.23333 4.95,-0.48333 7.45,-0.75c0.83333,-0.23333 1.66667,-0.46667 2.5,-0.7c6.2,0 12.4,0 18.6,0c0.7,0.23333 1.41667,0.46667 2.15,0.7c0.7,0.26667 1.41667,0.51667 2.15,0.75c0.7,0.23333 1.4,0.46667 2.1,0.7c0.26667,0.23333 0.51667,0.46667 0.75,0.7c0.7,0.23333 1.41667,0.48333 2.15,0.75c0.33333,0.33333 0.68333,0.68333 1.05,1.05c0.46667,0.36667 0.95,0.71667 1.45,1.05c0.33333,0.26667 0.68333,0.51667 1.05,0.75c0.13333,-0.13333 0.21667,-0.26667 0.25,-0.4c0.06667,-0.33333 0.1,-0.68333 0.1,-1.05c0,-0.36667 0,-0.71667 0,-1.05c0,-0.36667 0,-0.73333 0,-1.1c0,-0.33333 0,-0.68333 0,-1.05c0.13333,-0.36667 0.25,-0.73333 0.35,-1.1c0.23333,-0.33333 0.48333,-0.68333 0.75,-1.05c0.1,-0.36667 0.21667,-0.71667 0.35,-1.05c0,-0.36667 0,-0.73333 0,-1.1c0.1,-0.36667 0.21667,-0.71667 0.35,-1.05c0.23333,-0.36667 0.46667,-0.73333 0.7,-1.1c0.36667,-0.33333 0.73333,-0.68333 1.1,-1.05c0.46667,-0.36667 0.93333,-0.73333 1.4,-1.1c0.23333,-0.33333 0.46667,-0.68333 0.7,-1.05c0.83333,-0.36667 1.66667,-0.71667 2.5,-1.05c0.36667,-0.23333 0.73333,-0.48333 1.1,-0.75c0.6,-0.1 1.2,-0.21667 1.8,-0.35c0.56667,-0.23333 1.15,-0.46667 1.75,-0.7c0.83333,-0.36667 1.66667,-0.71667 2.5,-1.05c0.36667,-0.26667 0.73333,-0.51667 1.1,-0.75c0.6,-0.1 1.18333,-0.21667 1.75,-0.35c9.66667,-0.23333 19.31667,-0.51667 28.95,-0.85c0.83333,-0.03333 1.65,-0.16667 2.45,-0.4c0.03333,0 0.05,-0.05 0.05,-0.15c5.7,0 11.41667,0 17.15,0c0.7,0.23333 1.41667,0.46667 2.15,0.7c3.06667,0.23333 6.15,0.46667 9.25,0.7c0.73333,0.23333 1.46667,0.45 2.2,0.65c1.16667,0.3 2.33333,0.58333 3.5,0.85c0.73333,0.2 1.46667,0.38333 2.2,0.55c1.16667,0.3 2.33333,0.6 3.5,0.9c0.73333,0.16667 1.46667,0.38333 2.2,0.65c0.7,0.23333 1.41667,0.46667 2.15,0.7c0.7,0.23333 1.4,0.46667 2.1,0.7c0.73333,0.13333 1.45,0.25 2.15,0.35c0.73333,0.23333 1.45,0.46667 2.15,0.7c0.36667,0.26667 0.71667,0.51667 1.05,0.75c0.6,0.23333 1.2,0.46667 1.8,0.7c0.36667,0.23333 0.73333,0.46667 1.1,0.7c0.56667,0.23333 1.15,0.48333 1.75,0.75c0.5,0.33333 0.98333,0.68333 1.45,1.05c0.36667,0.36667 0.71667,0.71667 1.05,1.05c0.36667,0.36667 0.73333,0.73333 1.1,1.1c0.7,0.36667 1.41667,0.71667 2.15,1.05c0.46667,0.36667 0.93333,0.73333 1.4,1.1c0.36667,0.33333 0.73333,0.68333 1.1,1.05c0.33333,0.36667 0.68333,0.73333 1.05,1.1c0.36667,0.33333 0.71667,0.68333 1.05,1.05c0.36667,0.36667 0.73333,0.71667 1.1,1.05c0.36667,0.36667 0.71667,0.73333 1.05,1.1c0.36667,0.36667 0.73333,0.71667 1.1,1.05c0.33333,0.36667 0.68333,0.73333 1.05,1.1c0.36667,0.33333 0.73333,0.68333 1.1,1.05c0.33333,0.36667 0.68333,0.73333 1.05,1.1c0.13333,0.33333 0.25,0.68333 0.35,1.05c0.23333,0.36667 0.46667,0.71667 0.7,1.05c0.13333,0.36667 0.26667,0.73333 0.4,1.1c0.23333,0.36667 0.46667,0.71667 0.7,1.05c0.1,0.36667 0.21667,0.73333 0.35,1.1c0.23333,0.33333 0.46667,0.68333 0.7,1.05c0.23333,0.13333 0.48333,0.25 0.75,0.35c0.33333,-0.23333 0.68333,-0.46667 1.05,-0.7c0.23333,-0.36667 0.46667,-0.71667 0.7,-1.05c0.13333,-0.36667 0.25,-0.73333 0.35,-1.1c0.26667,-0.36667 0.51667,-0.71667 0.75,-1.05c0.33333,-0.36667 0.68333,-0.73333 1.05,-1.1c0.46667,-0.33333 0.95,-0.68333 1.45,-1.05c0.1,-0.36667 0.21667,-0.73333 0.35,-1.1c0.1,-0.33333 0.21667,-0.68333 0.35,-1.05c0.23333,-0.36667 0.46667,-0.71667 0.7,-1.05c0.5,-0.36667 0.98333,-0.73333 1.45,-1.1c0.23333,-0.36667 0.46667,-0.71667 0.7,-1.05c0.36667,-0.36667 0.73333,-0.73333 1.1,-1.1c0.33333,-0.33333 0.68333,-0.68333 1.05,-1.05c0.36667,-0.36667 0.71667,-0.73333 1.05,-1.1c0.36667,-0.33333 0.73333,-0.68333 1.1,-1.05c0.36667,-0.36667 0.71667,-0.71667 1.05,-1.05c0.36667,-0.36667 0.73333,-0.73333 1.1,-1.1c0.46667,-0.36667 0.93333,-0.71667 1.4,-1.05c0.23333,-0.36667 0.48333,-0.73333 0.75,-1.1c0.83333,-0.33333 1.66667,-0.68333 2.5,-1.05c0.33333,-0.36667 0.68333,-0.73333 1.05,-1.1c0.46667,-0.33333 0.95,-0.68333 1.45,-1.05c0.23333,-0.36667 0.46667,-0.71667 0.7,-1.05c0.83333,-0.26667 1.66667,-0.51667 2.5,-0.75c2.96667,-0.23333 5.93333,-0.46667 8.9,-0.7c0.83333,-0.23333 1.66667,-0.46667 2.5,-0.7c0.96667,0 1.91667,0 2.85,0c0.6,0.1 1.18333,0.25 1.75,0.45c0.16667,0.03333 0.3,0.11667 0.4,0.25c1.2,0.13333 2.4,0.25 3.6,0.35c0.7,0.23333 1.41667,0.46667 2.15,0.7c0.33333,0.26667 0.68333,0.51667 1.05,0.75c0.6,0.23333 1.2,0.46667 1.8,0.7c0.46667,0.36667 0.93333,0.71667 1.4,1.05c0.36667,0.36667 0.73333,0.73333 1.1,1.1c0.33333,0.36667 0.68333,0.71667 1.05,1.05c0.36667,0.36667 0.73333,0.73333 1.1,1.1c0,-0.11875 0,-0.23542 0,-0.35c0.23333,-0.36667 0.46667,-0.73333 0.7,-1.1c0.36667,-0.36667 0.71667,-0.71667 1.05,-1.05c0.36667,-0.36667 0.73333,-0.73333 1.1,-1.1c0.33333,-0.33333 0.68333,-0.68333 1.05,-1.05c0.36667,-0.36667 0.73333,-0.73333 1.1,-1.1c0.56667,-0.33333 1.15,-0.7 1.75,-1.1c0.5,-0.33333 0.98333,-0.66667 1.45,-1c0.36667,-0.36667 0.71667,-0.73333 1.05,-1.1c0.36667,-0.33333 0.73333,-0.68333 1.1,-1.05c0.23333,-0.23333 0.46667,-0.46667 0.7,-0.7c0.23333,-0.13333 0.46667,-0.25 0.7,-0.35c0.6,-0.26667 1.2,-0.51667 1.8,-0.75c0.36667,-0.23333 0.71667,-0.46667 1.05,-0.7c0.5,-0.13333 0.98333,-0.25 1.45,-0.35c2.86667,-0.23333 5.71667,-0.48333 8.55,-0.75c0.36667,-0.23333 0.73333,-0.46667 1.1,-0.7c0.6,0 1.18333,-0.05 1.75,-0.15c0.03333,0 0.05,-0.06667 0.05,-0.2c0.93333,0 1.88333,0 2.85,0c0.7,0.23333 1.41667,0.45 2.15,0.65c1.16667,0.26667 2.35,0.55 3.55,0.85c0.7,0.2 1.41667,0.41667 2.15,0.65c3.1,0.23333 6.2,0.46667 9.3,0.7c0.7,0.23333 1.4,0.46667 2.1,0.7c0.23333,0.26667 0.48333,0.51667 0.75,0.75c0.7,0.23333 1.4,0.46667 2.1,0.7c0.36667,0.36667 0.73333,0.71667 1.1,1.05c0.36667,0.36667 0.71667,0.73333 1.05,1.1c0.36667,0.33333 0.73333,0.68333 1.1,1.05c0.46667,0.36667 0.93333,0.73333 1.4,1.1c0.36667,0.33333 0.73333,0.68333 1.1,1.05c0.23333,0.36667 0.46667,0.71667 0.7,1.05c0.23333,0.36667 0.46667,0.73333 0.7,1.1c0.13333,0.36667 0.25,0.71667 0.35,1.05c0.26667,0.36667 0.51667,0.73333 0.75,1.1c0.1,0.33333 0.21667,0.68333 0.35,1.05c0.1,0.36667 0.21667,0.73333 0.35,1.1c0,0.33333 0,0.68333 0,1.05c0,0.36667 0,0.71667 0,1.05c0.13333,0.36667 0.25,0.73333 0.35,1.1c0.23333,0.36667 0.46667,0.71667 0.7,1.05c0.13333,0.36667 0.26667,0.73333 0.4,1.1c0,0.33333 0,0.68333 0,1.05c0,0.36667 0,0.73333 0,1.1c0,0.33333 0,0.68333 0,1.05c0,0.36667 0,0.71667 0,1.05c0.23333,0.36667 0.46667,0.73333 0.7,1.1c0.1,0.36667 0.21667,0.71667 0.35,1.05c0.13333,0.36667 0.25,0.73333 0.35,1.1c0.13333,0 0.23333,-0.03333 0.3,-0.1c0.4,-0.3 0.78333,-0.63333 1.15,-1c0.23333,-0.33333 0.46667,-0.68333 0.7,-1.05c0.13333,-0.36667 0.25,-0.73333 0.35,-1.1c0.23333,-0.33333 0.46667,-0.68333 0.7,-1.05c0.36667,-0.36667 0.73333,-0.71667 1.1,-1.05c0.46667,-0.36667 0.93333,-0.73333 1.4,-1.1c0.36667,-0.36667 0.73333,-0.71667 1.1,-1.05c0.23333,-0.36667 0.46667,-0.73333 0.7,-1.1c0.36667,-0.33333 0.73333,-0.68333 1.1,-1.05c0.46667,-0.36667 0.93333,-0.73333 1.4,-1.1c0.23333,-0.33333 0.46667,-0.68333 0.7,-1.05c0.36667,-0.36667 0.73333,-0.71667 1.1,-1.05c0.36667,-0.26667 0.71667,-0.51667 1.05,-0.75c0.6,-0.23333 1.2,-0.46667 1.8,-0.7c0.36667,-0.23333 0.71667,-0.46667 1.05,-0.7c0.6,-0.13333 1.2,-0.25 1.8,-0.35c5.23333,0 10.46667,0 15.7,0c0.73333,0.23333 1.45,0.46667 2.15,0.7c0.23333,0.23333 0.48333,0.46667 0.75,0.7c0.7,0.23333 1.4,0.46667 2.1,0.7c0.26667,0.26667 0.51667,0.51667 0.75,0.75c0.7,0.23333 1.41667,0.46667 2.15,0.7c0.33333,0.36667 0.68333,0.71667 1.05,1.05c0.36667,0.36667 0.71667,0.73333 1.05,1.1c0.36667,0.36667 0.73333,0.71667 1.1,1.05c0.36667,0.36667 0.71667,0.73333 1.05,1.1c0.36667,0.33333 0.73333,0.68333 1.1,1.05c0.33333,0.36667 0.68333,0.73333 1.05,1.1c0.36667,0.33333 0.73333,0.68333 1.1,1.05c0.23333,0.36667 0.46667,0.71667 0.7,1.05c0.23333,0.36667 0.46667,0.73333 0.7,1.1c0.23333,0.36667 0.46667,0.71667 0.7,1.05c0.26667,0.36667 0.51667,0.73333 0.75,1.1c0.33333,0.33333 0.68333,0.68333 1.05,1.05c0.36667,0.36667 0.73333,0.73333 1.1,1.1c0.33333,0.33333 0.68333,0.68333 1.05,1.05c0.23333,0.36667 0.46667,0.71667 0.7,1.05c0.23333,0.36667 0.46667,0.73333 0.7,1.1c0.26667,0.36667 0.51667,0.71667 0.75,1.05c0.1,0.36667 0.21667,0.73333 0.35,1.1c0.1,0.33333 0.21667,0.68333 0.35,1.05c0,0.36667 0,0.73333 0,1.1c0.23333,0.33333 0.46667,0.68333 0.7,1.05c0.13333,0.36667 0.25,0.71667 0.35,1.05c0.13333,0.36667 0.26667,0.73333 0.4,1.1c0,0.36667 0,0.71667 0,1.05c0,0.36667 0,0.73333 0,1.1c0.1,0.33333 0.21667,0.68333 0.35,1.05c0.23333,0.36667 0.46667,0.73333 0.7,1.1c0.13333,0.33333 0.25,0.68333 0.35,1.05c0,0.36667 0,0.71667 0,1.05c0,0.36667 0,0.73333 0,1.1c0,0.36667 0,0.71667 0,1.05c0,0.36667 0,0.73333 0,1.1c0,0.33333 0,0.68333 0,1.05c0,0.36667 0,0.73333 0,1.1c0,0.33333 0,0.68333 0,1.05c0,0.36667 0,0.71667 0,1.05c0,0.36667 0,0.73333 0,1.1c0,0.36667 0,0.71667 0,1.05c-0.1,0.36667 -0.21667,0.73333 -0.35,1.1c-0.23333,0.33333 -0.46667,0.68333 -0.7,1.05c-0.13333,0.36667 -0.25,0.73333 -0.35,1.1c-0.26667,0.33333 -0.51667,0.68333 -0.75,1.05c-0.1,0.36667 -0.21667,0.71667 -0.35,1.05c-0.1,0.36667 -0.21667,0.73333 -0.35,1.1c0,0.36667 0,0.71667 0,1.05c-0.23333,0.36667 -0.46667,0.73333 -0.7,1.1c-0.13333,0.33333 -0.25,0.68333 -0.35,1.05c-0.26667,0.36667 -0.51667,0.73333 -0.75,1.1c-0.1,0.33333 -0.21667,0.68333 -0.35,1.05c-0.23333,0.36667 -0.46667,0.71667 -0.7,1.05c-0.36667,0.36667 -0.71667,0.73333 -1.05,1.1c-0.13333,0.36667 -0.26667,0.71667 -0.4,1.05c0,0.36667 0,0.73333 0,1.1c-0.23333,0.33333 -0.46667,0.68333 -0.7,1.05c-0.1,0.36667 -0.21667,0.71667 -0.35,1.05c-1.06667,1.1 -2.13333,2.18333 -3.2,3.25c-0.36667,0.33333 -0.73333,0.68333 -1.1,1.05c-0.33333,0.36667 -0.68333,0.73333 -1.05,1.1c-2.16667,2.13333 -4.31667,4.26667 -6.45,6.4c-2.5,2.5 -5,5 -7.5,7.5c-3.2,3.23333 -6.41667,6.45 -9.65,9.65c-0.6487,0.6487 -1.2987,1.31536 -1.95,2c-0.05247,0.15924 -0.10247,0.32591 -0.15,0.5c-0.26667,0.36667 -0.51667,0.71667 -0.75,1.05c-0.1,0.36667 -0.21667,0.73333 -0.35,1.1c0,0.36667 0,0.71667 0,1.05c0,0.36667 0,0.73333 0,1.1c0,0.33333 0,0.68333 0,1.05c0,0.36667 0,0.73333 0,1.1c0,0.33333 0,0.68333 0,1.05c-0.1,0.36667 -0.21667,0.71667 -0.35,1.05c-0.23333,0.36667 -0.46667,0.73333 -0.7,1.1c-0.13333,0.36667 -0.25,0.71667 -0.35,1.05c0,0.36667 0,0.73333 0,1.1c0,0.33333 0,0.68333 0,1.05c0,0.36667 0,0.73333 0,1.1c0,0.33333 0,0.68333 0,1.05c0,0.36667 0,0.71667 0,1.05c-0.13333,0.36667 -0.26667,0.73333 -0.4,1.1c-0.23333,0.36667 -0.46667,0.71667 -0.7,1.05c-0.1,0.36667 -0.21667,0.73333 -0.35,1.1c0,0.33333 0,0.68333 0,1.05c0,0.36667 0,0.73333 0,1.1c-0.13333,0.33333 -0.25,0.68333 -0.35,1.05c-0.13333,0.36667 -0.25,0.71667 -0.35,1.05c-0.23333,0.36667 -0.48333,0.73333 -0.75,1.1c0,0.36667 0,0.71667 0,1.05c0,0.36667 0,0.73333 0,1.1c0,0.33333 0,0.68333 0,1.05c0,0.36667 0,0.73333 0,1.1c-0.1,0.33333 -0.21667,0.68333 -0.35,1.05c-0.23333,0.36667 -0.46667,0.71667 -0.7,1.05c-0.13333,0.36667 -0.25,0.73333 -0.35,1.1c0,0.36667 0,0.71667 0,1.05c0,0.36667 0,0.73333 0,1.1c0,0.33333 0,0.68333 0,1.05c0,0.36667 0,0.71667 0,1.05c0,0.36667 0,0.73333 0,1.1c0,0.36667 0,0.71667 0,1.05c-0.13333,0.36667 -0.25,0.73333 -0.35,1.1c-0.13333,0.33333 -0.25,0.68333 -0.35,1.05c-0.26667,0.36667 -0.51667,0.73333 -0.75,1.1c-0.1,0.33333 -0.21667,0.68333 -0.35,1.05c-0.23333,0.36667 -0.46667,0.71667 -0.7,1.05c-0.23333,0.26667 -0.46667,0.51667 -0.7,0.75c-0.13333,0.1 -0.26667,0.18333 -0.4,0.25c-0.7,0.3 -1.4,0.56667 -2.1,0.8c-0.26667,0.23333 -0.51667,0.46667 -0.75,0.7c-0.6,0.13333 -1.18333,0.28333 -1.75,0.45c-1.43333,0.43333 -2.86667,0.88333 -4.3,1.35c-1.43333,0.46667 -2.86667,0.95 -4.3,1.45c-2.13333,0.23333 -4.26667,0.46667 -6.4,0.7c-0.73333,0.23333 -1.45,0.46667 -2.15,0.7c-7.63333,0 -15.25,0 -22.85,0c-0.83333,-0.23333 -1.66667,-0.46667 -2.5,-0.7c-0.23333,-0.36667 -0.48333,-0.71667 -0.75,-1.05c-0.46667,-0.36667 -0.93333,-0.73333 -1.4,-1.1c-0.23333,-0.36667 -0.46667,-0.71667 -0.7,-1.05c0,-0.36667 0,-0.73333 0,-1.1c-0.36667,0 -0.73333,0 -1.1,0c-0.7,0.23333 -1.41667,0.48333 -2.15,0.75c-0.7,0.23333 -1.41667,0.46667 -2.15,0.7c-0.7,0.23333 -1.4,0.46667 -2.1,0.7c-5.96667,0.23333 -11.93333,0.46667 -17.9,0.7c-0.7,0.26667 -1.4,0.51667 -2.1,0.75c-1.93333,0 -3.85,0 -5.75,0c-0.83333,-0.23333 -1.66667,-0.48333 -2.5,-0.75c-0.23333,-0.33333 -0.46667,-0.68333 -0.7,-1.05c-0.46667,-0.36667 -0.95,-0.71667 -1.45,-1.05c-0.23333,-0.36667 -0.46667,-0.73333 -0.7,-1.1c-0.1,-0.36667 -0.21667,-0.71667 -0.35,-1.05c-0.36667,-0.36667 -0.71667,-0.73333 -1.05,-1.1c-0.26667,-0.23333 -0.51667,-0.46667 -0.75,-0.7c-0.33333,0.36667 -0.68333,0.71667 -1.05,1.05c-0.36667,0.36667 -0.71667,0.73333 -1.05,1.1c-0.36667,0.36667 -0.73333,0.71667 -1.1,1.05c-0.83333,0.36667 -1.66667,0.73333 -2.5,1.1c-0.23333,0.23333 -0.46667,0.46667 -0.7,0.7c-0.6,0.13333 -1.2,0.26667 -1.8,0.4c-0.7,0.2 -1.41667,0.41667 -2.15,0.65c-0.7,0.26667 -1.41667,0.51667 -2.15,0.75c-2.13333,0.23333 -4.26667,0.46667 -6.4,0.7c-0.73333,0.23333 -1.45,0.46667 -2.15,0.7c-8.33333,0.23333 -16.66667,0.48333 -25,0.75c-0.7,0.23333 -1.41667,0.46667 -2.15,0.7c-1.43333,0.46667 -2.86667,0.93333 -4.3,1.4c-1.4,0.5 -2.81667,0.98333 -4.25,1.45c-4.76667,0 -9.53333,0 -14.3,0c-0.83333,-0.23333 -1.66667,-0.45 -2.5,-0.65c-1.06667,-0.26667 -2.13333,-0.53333 -3.2,-0.8c-1.43333,-0.1 -2.86667,-0.21667 -4.3,-0.35c-0.7,-0.23333 -1.41667,-0.46667 -2.15,-0.7c-0.33333,-0.36667 -0.68333,-0.71667 -1.05,-1.05c-0.23333,-0.26667 -0.46667,-0.51667 -0.7,-0.75c-0.13333,-0.1 -0.26667,-0.18333 -0.4,-0.25c-0.7,-0.3 -1.4,-0.56667 -2.1,-0.8c-0.36667,-0.36667 -0.73333,-0.73333 -1.1,-1.1c-0.1,-0.33333 -0.21667,-0.68333 -0.35,-1.05c-0.13333,-0.36667 -0.25,-0.71667 -0.35,-1.05c-0.36667,-0.36667 -0.73333,-0.73333 -1.1,-1.1c0,-0.36667 0,-0.71667 0,-1.05c0,-0.36667 0,-0.73333 0,-1.1c-0.1,-0.33333 -0.21667,-0.68333 -0.35,-1.05c-0.13867,-0.15247 -0.28867,-0.30247 -0.45,-0.45c-0.06523,0.25443 -0.14857,0.52109 -0.25,0.8c-0.13333,0.36667 -0.25,0.71667 -0.35,1.05c-0.13333,0.36667 -0.25,0.73333 -0.35,1.1c-0.23333,0.36667 -0.48333,0.71667 -0.75,1.05c0,0.36667 0,0.73333 0,1.1c-0.1,0.33333 -0.21667,0.68333 -0.35,1.05c-0.1,0.36667 -0.21667,0.73333 -0.35,1.1c-0.23333,0.33333 -0.46667,0.68333 -0.7,1.05c-0.13333,0.36667 -0.25,0.71667 -0.35,1.05c-0.23333,0.36667 -0.48333,0.73333 -0.75,1.1c-0.23333,0.23333 -0.46667,0.46667 -0.7,0.7c-0.1,0.13333 -0.23333,0.21667 -0.4,0.25c-0.56667,0.2 -1.15,0.35 -1.75,0.45c-2.36667,0 -4.75,0 -7.15,0c-0.83333,-0.23333 -1.66667,-0.46667 -2.5,-0.7c-2.73333,0 -5.46667,0 -8.2,0c-0.7,0.23333 -1.41667,0.46667 -2.15,0.7c-1.66667,0.26667 -3.33333,0.51667 -5,0.75c-0.7,0.23333 -1.41667,0.46667 -2.15,0.7c-0.7,0.23333 -1.4,0.46667 -2.1,0.7c-0.73333,0.23333 -1.45,0.48333 -2.15,0.75c-3.83333,0 -7.65,0 -11.45,0c-0.83333,-0.26667 -1.66667,-0.51667 -2.5,-0.75c-0.23333,-0.33333 -0.46667,-0.68333 -0.7,-1.05c-0.46667,-0.36667 -0.95,-0.73333 -1.45,-1.1c-0.23333,-0.33333 -0.46667,-0.68333 -0.7,-1.05c0,-0.36667 0,-0.71667 0,-1.05c0,-0.36667 0,-0.73333 0,-1.1c-0.23333,-0.36667 -0.46667,-0.71667 -0.7,-1.05c-0.23333,-0.36667 -0.46667,-0.73333 -0.7,-1.1c-0.13333,-0.33333 -0.26667,-0.68333 -0.4,-1.05c-0.1,-0.36667 -0.21667,-0.73333 -0.35,-1.1c-0.23333,-0.33333 -0.46667,-0.68333 -0.7,-1.05c0,-0.36667 0,-0.71667 0,-1.05c0,-0.36667 0,-0.73333 0,-1.1c0,-0.36667 0,-0.71667 0,-1.05c0,-0.36667 0,-0.73333 0,-1.1c-0.13333,-0.33333 -0.25,-0.68333 -0.35,-1.05c-0.23333,-0.36667 -0.46667,-0.73333 -0.7,-1.1c-0.13333,-0.33333 -0.26667,-0.68333 -0.4,-1.05c-0.1,-0.23333 -0.21667,-0.46667 -0.35,-0.7c-0.1,0.33333 -0.21667,0.68333 -0.35,1.05c0,0.36667 0,0.73333 0,1.1c-0.23333,0.33333 -0.46667,0.68333 -0.7,1.05c-0.23333,0.36667 -0.46667,0.71667 -0.7,1.05c-0.26667,0.36667 -0.51667,0.73333 -0.75,1.1c-0.23333,0.36667 -0.46667,0.71667 -0.7,1.05c0,0.36667 0,0.73333 0,1.1c-0.13333,0.33333 -0.25,0.68333 -0.35,1.05c-0.23333,0.36667 -0.46667,0.73333 -0.7,1.1c-0.36667,0.33333 -0.73333,0.68333 -1.1,1.05c-0.23333,0.36667 -0.46667,0.71667 -0.7,1.05c-0.13333,0.36667 -0.25,0.73333 -0.35,1.1c-0.23333,0.36667 -0.48333,0.71667 -0.75,1.05c-0.33333,0.36667 -0.68333,0.73333 -1.05,1.1c-0.36667,0.33333 -0.71667,0.68333 -1.05,1.05c-0.73333,0.23333 -1.46667,0.45 -2.2,0.65c-1.16667,0.3 -2.33333,0.58333 -3.5,0.85c-0.73333,0.2 -1.46667,0.41667 -2.2,0.65c-12.36667,0 -24.73333,0 -37.1,0c-0.96667,-0.23333 -1.91667,-0.46667 -2.85,-0.7c-0.36667,-0.23333 -0.73333,-0.48333 -1.1,-0.75c-0.1,-0.1 -0.23333,-0.18333 -0.4,-0.25c-0.66667,-0.3 -1.36667,-0.56667 -2.1,-0.8c-0.36667,-0.36667 -0.71667,-0.71667 -1.05,-1.05c-0.36667,-0.36667 -0.73333,-0.73333 -1.1,-1.1c-0.23333,-0.36667 -0.46667,-0.71667 -0.7,-1.05c-0.13333,-0.36667 -0.25,-0.73333 -0.35,-1.1c-0.23333,-0.33333 -0.46667,-0.68333 -0.7,-1.05c-0.36667,-0.36667 -0.73333,-0.73333 -1.1,-1.1c-0.23333,-0.33333 -0.46667,-0.68333 -0.7,-1.05c-0.13333,-0.36667 -0.25,-0.71667 -0.35,-1.05c-0.23333,-0.36667 -0.48333,-0.73333 -0.75,-1.1c-0.1,-0.36667 -0.21667,-0.71667 -0.35,-1.05c-0.05573,-0.2043 -0.1224,-0.42096 -0.2,-0.65c-0.04427,0.11237 -0.09427,0.21237 -0.15,0.3c-0.23333,0.33333 -0.46667,0.68333 -0.7,1.05c-0.13333,0.36667 -0.25,0.71667 -0.35,1.05c-0.13333,0.36667 -0.25,0.73333 -0.35,1.1c-0.26667,0.36667 -0.51667,0.71667 -0.75,1.05c-0.33333,0.36667 -0.68333,0.73333 -1.05,1.1c-0.23333,0.33333 -0.46667,0.68333 -0.7,1.05c-0.13333,0.36667 -0.26667,0.73333 -0.4,1.1c-0.33333,0.33333 -0.68333,0.68333 -1.05,1.05c-0.83333,0.36667 -1.66667,0.71667 -2.5,1.05c-0.36667,0.36667 -0.71667,0.73333 -1.05,1.1c-0.26667,0.23333 -0.51667,0.46667 -0.75,0.7c-0.1,0.13333 -0.23333,0.23333 -0.4,0.3c-0.66667,0.26667 -1.36667,0.53333 -2.1,0.8c-0.23333,0.23333 -0.46667,0.46667 -0.7,0.7c-0.7,0.23333 -1.41667,0.46667 -2.15,0.7c-0.23333,0.23333 -0.46667,0.46667 -0.7,0.7c-0.6,0.13333 -1.2,0.28333 -1.8,0.45c-0.7,0.2 -1.41667,0.41667 -2.15,0.65c-0.7,0.23333 -1.41667,0.46667 -2.15,0.7c-2.6,0.23333 -5.21667,0.46667 -7.85,0.7c-0.7,0.26667 -1.41667,0.51667 -2.15,0.75c-4.26667,0 -8.55,0 -12.85,0c-0.83333,-0.23333 -1.66667,-0.48333 -2.5,-0.75c-3.43333,-0.23333 -6.88333,-0.46667 -10.35,-0.7c-0.83333,-0.23333 -1.66667,-0.46667 -2.5,-0.7c-0.83333,0 -1.66667,0 -2.5,0c-0.7,0.23333 -1.41667,0.46667 -2.15,0.7c-7.36667,0.23333 -14.73333,0.46667 -22.1,0.7c-0.73333,0.26667 -1.45,0.51667 -2.15,0.75c-2.63333,0.23333 -5.25,0.46667 -7.85,0.7c-0.73333,0.23333 -1.45,0.46667 -2.15,0.7c-6.2,0 -12.4,0 -18.6,0c-0.83333,-0.23333 -1.66667,-0.45 -2.5,-0.65c-1.06667,-0.26667 -2.13333,-0.53333 -3.2,-0.8c-0.83333,-0.2 -1.66667,-0.43333 -2.5,-0.7c-0.1,-0.23333 -0.21667,-0.46667 -0.35,-0.7c-0.83333,-0.23333 -1.66667,-0.46667 -2.5,-0.7c-0.23333,-0.36667 -0.46667,-0.73333 -0.7,-1.1c-0.23333,-0.33333 -0.48333,-0.68333 -0.75,-1.05c-0.1,-0.36667 -0.21667,-0.71667 -0.35,-1.05c-0.33333,-0.36667 -0.68333,-0.73333 -1.05,-1.1c-0.23333,-0.36667 -0.46667,-0.71667 -0.7,-1.05c-0.26667,-0.36667 -0.51667,-0.73333 -0.75,-1.1c-0.1,-0.33333 -0.21667,-0.68333 -0.35,-1.05c-0.23333,-0.36667 -0.46667,-0.73333 -0.7,-1.1c-0.13333,-0.33333 -0.25,-0.68333 -0.35,-1.05c-0.23333,-0.36667 -0.48333,-0.71667 -0.75,-1.05c-0.23333,-0.36667 -0.46667,-0.73333 -0.7,-1.1c-0.1,-0.36667 -0.21667,-0.71667 -0.35,-1.05c-0.13333,-0.23333 -0.25,-0.48333 -0.35,-0.75c0,0.36667 0,0.73333 0,1.1c-0.23333,0.36667 -0.46667,0.71667 -0.7,1.05c-0.26667,0.36667 -0.51667,0.73333 -0.75,1.1c0,0.33333 0,0.68333 0,1.05c0,0.36667 0,0.73333 0,1.1c0,0.33333 0,0.68333 0,1.05c-0.1,0.36667 -0.21667,0.71667 -0.35,1.05c-0.23333,0.36667 -0.46667,0.73333 -0.7,1.1c-0.36667,0.36667 -0.73333,0.71667 -1.1,1.05c-0.33333,0.36667 -0.68333,0.73333 -1.05,1.1c-0.36667,0.33333 -0.71667,0.68333 -1.05,1.05c-0.26667,0.23333 -0.51667,0.46667 -0.75,0.7c-0.6,0.13333 -1.18333,0.26667 -1.75,0.4c-4.53333,0.23333 -9.06667,0.46667 -13.6,0.7c-0.7,0.23333 -1.41667,0.46667 -2.15,0.7c-1.66667,0.23333 -3.33333,0.46667 -5,0.7c-0.7,0.26667 -1.41667,0.51667 -2.15,0.75c-2.36667,0 -4.73333,0 -7.1,0c-0.83333,-0.23333 -1.66667,-0.48333 -2.5,-0.75c-0.13333,-0.23333 -0.26667,-0.46667 -0.4,-0.7c-2.36667,-0.1 -4.73333,-0.21667 -7.1,-0.35c-0.73333,-0.23333 -1.45,-0.46667 -2.15,-0.7c-0.36667,-0.36667 -0.73333,-0.73333 -1.1,-1.1c-0.33333,-0.33333 -0.68333,-0.68333 -1.05,-1.05c-0.23333,-0.36667 -0.46667,-0.73333 -0.7,-1.1c-0.13333,-0.33333 -0.25,-0.68333 -0.35,-1.05c-0.26667,-0.36667 -0.51667,-0.71667 -0.75,-1.05c-0.1,-0.36667 -0.21667,-0.73333 -0.35,-1.1c-0.1,-0.36667 -0.21667,-0.71667 -0.35,-1.05c-0.36667,-0.36667 -0.71667,-0.73333 -1.05,-1.1c-0.2026,-0.18411 -0.4026,-0.38411 -0.6,-0.6c-0.05326,0.09323 -0.10326,0.17656 -0.15,0.25c-0.1,0.36667 -0.21667,0.73333 -0.35,1.1c-0.23333,0.33333 -0.46667,0.68333 -0.7,1.05c-0.23333,0.36667 -0.46667,0.71667 -0.7,1.05c-0.36667,0.36667 -0.73333,0.73333 -1.1,1.1c-0.36667,0.36667 -0.71667,0.71667 -1.05,1.05c-0.23333,0.36667 -0.48333,0.73333 -0.75,1.1c-0.1,0.33333 -0.21667,0.68333 -0.35,1.05c-0.23333,0.36667 -0.46667,0.73333 -0.7,1.1c-0.36667,0.33333 -0.71667,0.68333 -1.05,1.05c-0.36667,0.36667 -0.73333,0.71667 -1.1,1.05c-0.36667,0.36667 -0.71667,0.73333 -1.05,1.1c-0.23333,0.23333 -0.48333,0.46667 -0.75,0.7c-0.56667,0.13333 -1.15,0.28333 -1.75,0.45c-0.73333,0.16667 -1.45,0.38333 -2.15,0.65c-0.73333,0.23333 -1.45,0.46667 -2.15,0.7c-0.7,0.23333 -1.41667,0.46667 -2.15,0.7c-0.7,0.23333 -1.41667,0.46667 -2.15,0.7c-3.56667,0.26667 -7.13333,0.51667 -10.7,0.75c-0.7,0.23333 -1.41667,0.46667 -2.15,0.7c-7.6,0 -15.21667,0 -22.85,0c-0.83333,-0.23333 -1.66667,-0.46667 -2.5,-0.7c-0.23333,-0.23333 -0.46667,-0.48333 -0.7,-0.75c-0.73333,-0.23333 -1.45,-0.46667 -2.15,-0.7c-0.23333,-0.36667 -0.46667,-0.71667 -0.7,-1.05c-0.26667,-0.36667 -0.51667,-0.73333 -0.75,-1.1c-0.1,-0.33333 -0.21667,-0.68333 -0.35,-1.05c-0.23333,-0.36667 -0.46667,-0.73333 -0.7,-1.1c-0.13333,-0.33333 -0.25,-0.68333 -0.35,-1.05c-0.23333,-0.36667 -0.46667,-0.71667 -0.7,-1.05c-0.26667,-0.36667 -0.51667,-0.73333 -0.75,-1.1c0,-0.36667 0,-0.71667 0,-1.05c0,-0.36667 0,-0.73333 0,-1.1c0,-0.33333 0,-0.68333 0,-1.05c0,-0.36667 0,-0.73333 0,-1.1c-0.1,-0.33333 -0.21667,-0.68333 -0.35,-1.05c-0.1,-0.36667 -0.21667,-0.71667 -0.35,-1.05c-0.23333,-0.36667 -0.46667,-0.73333 -0.7,-1.1c0,-0.36667 0,-0.71667 0,-1.05c0,-0.36667 0,-0.73333 0,-1.1c0,-0.33333 0,-0.68333 0,-1.05c0,-0.36667 0,-0.73333 0,-1.1c0,-0.33333 0,-0.68333 0,-1.05c-0.13333,-0.36667 -0.25,-0.71667 -0.35,-1.05c-0.13333,-0.36667 -0.26667,-0.73333 -0.4,-1.1c-0.23333,-0.36667 -0.46667,-0.71667 -0.7,-1.05c0,-0.36667 0,-0.73333 0,-1.1c0,-0.33333 0,-0.68333 0,-1.05c0,-0.36667 0,-0.73333 0,-1.1c0,-0.33333 0,-0.68333 0,-1.05c0,-0.36667 0,-0.71667 0,-1.05c0,-0.36667 0,-0.73333 0,-1.1c0,-0.33333 0,-0.68333 0,-1.05c-0.23333,-0.36667 -0.46667,-0.73333 -0.7,-1.1c-0.23333,-0.33333 -0.46667,-0.68333 -0.7,-1.05c0,-0.36667 0,-0.71667 0,-1.05c0,-0.36667 0,-0.73333 0,-1.1c0,-0.36667 0,-0.71667 0,-1.05c0,-0.36667 0,-0.73333 0,-1.1c0,-0.33333 0,-0.68333 0,-1.05c0,-0.36667 0,-0.73333 0,-1.1c-0.26667,-0.33333 -0.51667,-0.68333 -0.75,-1.05c-0.23333,-0.36667 -0.46667,-0.71667 -0.7,-1.05c0,-0.36667 0,-0.73333 0,-1.1c0,-0.36667 0,-0.71667 0,-1.05c0,-0.36667 0,-0.73333 0,-1.1c-0.13333,-0.33333 -0.25,-0.68333 -0.35,-1.05c0,-0.36667 0,-0.73333 0,-1.1c0,-0.33333 0,-0.68333 0,-1.05c0,-0.36667 0,-0.71667 0,-1.05c0,-0.36667 0,-0.73333 0,-1.1c-0.13333,-0.36667 -0.25,-0.71667 -0.35,-1.05c-0.23333,-0.36667 -0.48333,-0.73333 -0.75,-1.1c-0.1,-0.33333 -0.21667,-0.68333 -0.35,-1.05c0,-0.36667 0,-0.73333 0,-1.1c0,-0.33333 0,-0.68333 0,-1.05c0,-0.36667 0,-0.71667 0,-1.05c0,-0.36667 0,-0.73333 0,-1.1c0,-0.36667 0,-0.71667 0,-1.05c0,-0.36667 0,-0.73333 0,-1.1c0.13333,-0.33333 0.25,-0.68333 0.35,-1.05c0,-0.36667 0,-0.73333 0,-1.1c0,-0.33333 0,-0.68333 0,-1.05c0,-0.36667 0,-0.71667 0,-1.05c0,-0.36667 0,-0.73333 0,-1.1c0,-0.36667 0,-0.71667 0,-1.05c0,-0.36667 0,-0.73333 0,-1.1c-0.1,-0.33333 -0.21667,-0.68333 -0.35,-1.05c-0.1,-0.36667 -0.21667,-0.73333 -0.35,-1.1c-0.23333,-0.33333 -0.46667,-0.68333 -0.7,-1.05c0,-0.36667 0,-0.71667 0,-1.05c0,-0.36667 0,-0.73333 0,-1.1c0,-0.36667 0,-0.71667 0,-1.05c0,-0.36667 0,-0.73333 0,-1.1c0,-1.06667 0,-2.13333 0,-3.2c0,-1.06667 0,-2.13333 0,-3.2c0,-1.06667 0,-2.15 0,-3.25c0,-1.4 0,-2.81667 0,-4.25c0,-1.8 0,-3.58333 0,-5.35c0,-0.36667 0,-0.73333 0,-1.1c-0.13333,-0.36667 -0.25,-0.71667 -0.35,-1.05c0,-0.36667 0,-0.73333 0,-1.1c0,-0.33333 0,-0.68333 0,-1.05c0,-0.36667 0,-0.71667 0,-1.05c0,-0.36667 0,-0.73333 0,-1.1c0,-0.36667 0,-0.71667 0,-1.05c0.1,-0.36667 0.21667,-0.73333 0.35,-1.1c0,-0.33333 0,-0.68333 0,-1.05c0,-0.36667 0,-0.73333 0,-1.1c0,-0.33333 0,-0.68333 0,-1.05c0,-0.36667 0,-0.71667 0,-1.05c0,-1.1 0,-2.18333 0,-3.25c0,-1.06667 0,-2.13333 0,-3.2c0,-1.06667 0,-2.13333 0,-3.2c0,-1.43333 0,-2.86667 0,-4.3c0,-1.8 0,-3.58333 0,-5.35c0,-0.36667 0,-0.73333 0,-1.1c-0.13333,-0.33333 -0.25,-0.68333 -0.35,-1.05c-0.13333,-0.36667 -0.25,-0.71667 -0.35,-1.05c-0.26667,-0.36667 -0.51667,-0.73333 -0.75,-1.1c0,-0.36667 0,-0.71667 0,-1.05c0,-0.36667 0,-0.73333 0,-1.1c0,-0.33333 0,-0.68333 0,-1.05c0,-0.36667 0,-0.73333 0,-1.1c0,-0.7 0,-1.4 0,-2.1c0,-0.73333 0,-1.45 0,-2.15c0,-0.73333 0,-1.45 0,-2.15c0,-0.73333 0,-1.45 0,-2.15c0,-0.7 0,-1.41667 0,-2.15c0.23333,-0.36667 0.48333,-0.71667 0.75,-1.05c0.1,-0.36667 0.21667,-0.73333 0.35,-1.1c0,-0.33333 0,-0.68333 0,-1.05c0,-0.36667 0,-0.73333 0,-1.1c0,-0.33333 0,-0.68333 0,-1.05c0.1,-0.36667 0.21667,-0.71667 0.35,-1.05c0.23333,-0.36667 0.46667,-0.73333 0.7,-1.1c0.36667,-0.36667 0.73333,-0.71667 1.1,-1.05c0.33333,-0.36667 0.68333,-0.73333 1.05,-1.1c0.83333,-0.33333 1.66667,-0.68333 2.5,-1.05c0.36667,-0.23333 0.71667,-0.46667 1.05,-0.7c0.6,-0.26667 1.2,-0.51667 1.8,-0.75c0.36667,-0.23333 0.73333,-0.46667 1.1,-0.7c0.56667,-0.13333 1.15,-0.25 1.75,-0.35c1.06667,-0.23333 2.13333,-0.48333 3.2,-0.75c0.83333,-0.23333 1.68333,-0.43333 2.55,-0.6c1.53333,-0.3 3.06667,-0.56667 4.6,-0.8c0.83333,-0.23333 1.66667,-0.46667 2.5,-0.7z" fill="#000000"/><path d="M416.74234,294.44279c4.8,3.93333 7.43333,8.9 7.9,14.9c0.63333,4.6 0.01667,8.95 -1.85,13.05c-0.9,1.96667 -2.45,3.23333 -4.65,3.8c-10.33333,2.26667 -20.88333,3.75 -31.65,4.45c-5.1,0.56667 -9.26667,2.03333 -12.5,4.4l4.3,6.9c10.76667,-4.13333 21.68333,-6 32.75,-5.6c4.93333,5.16667 7.83333,11.41667 8.7,18.75c0.23333,2.16667 0.35,3.65 0.35,4.45l-0.6,3.8c-6.06667,4.26667 -13.13333,6.41667 -21.2,6.45c-2.86667,0.36667 -5.75,0.75 -8.65,1.15c-3.66667,-0.16667 -5.68333,0.45 -6.05,1.85c1.26667,2.2 2.66667,4.33333 4.2,6.4c5.43333,7.26667 9.08333,15.23333 10.95,23.9c0.2,1 -0.01667,1.85 -0.65,2.55c-8.03333,8.8 -18.23333,12.41667 -30.6,10.85c-2.7,-0.46667 -5.1,-1.55 -7.2,-3.25c-9.76667,-7.8 -15.13333,-18.2 -16.1,-31.2c-1.5,-20.33333 -2.11667,-40.68333 -1.85,-61.05c1.83333,-3.2 2.31667,-6.7 1.45,-10.5c-0.9,-3.93333 0.65,-6.56667 4.65,-7.9c21.53333,-7.13333 43.68333,-10.38333 66.45,-9.75c0.6,0.53333 1.21667,1.06667 1.85,1.6M511.14234,410.44279c-12.36667,3.06667 -24.9,4.46667 -37.6,4.2c-7.53333,-5.6 -13.51667,-12.5 -17.95,-20.7c-1.86667,-3.46667 -3.48333,-5.65 -4.85,-6.55c2,7.16667 3.05,14.45 3.15,21.85c0,0.9 -0.41667,1.55 -1.25,1.95c-11,5.23333 -22.38333,5.95 -34.15,2.15c-0.86667,-0.23333 -1.33333,-0.75 -1.4,-1.55c-0.86667,-9.76667 -0.45,-19.73333 1.25,-29.9c3,-17.93333 7.88333,-35.48333 14.65,-52.65c1.1,-2.8 2.86667,-5.01667 5.3,-6.65c13.73333,-9.43333 29.08333,-13.3 46.05,-11.6c13.6,1.63333 22.26667,8.63333 26,21c-1,6.13333 -3.88333,11.5 -8.65,16.1c-8.66667,8.3 -18.13333,14.98333 -28.4,20.05c6.46667,2.26667 12.4,5.56667 17.8,9.9c4.76667,3.83333 9.46667,7.8 14.1,11.9c6.26667,5.56667 8.75,12.15 7.45,19.75c-0.46667,0.36667 -0.96667,0.61667 -1.5,0.75M464.64234,335.99279l-9.05,10.55l22.35,-9.95l-13.3,-0.6M576.64234,337.54279c1.13333,3.93333 1.2,7.66667 0.2,11.2c-3.06667,1.7 -6.36667,1.98333 -9.9,0.85c-9,-2.73333 -17.73333,-2.63333 -26.2,0.3l2.4,5.3c4.06667,-2.53333 8.46667,-3.81667 13.2,-3.85c2.83333,0 4.55,1.41667 5.15,4.25c1.46667,7.03333 0.8,13.66667 -2,19.9l-16.35,1.65l4.05,6.75c10.6,0.03333 21.2,0.16667 31.8,0.4c0.8,0.03333 1.48333,0.31667 2.05,0.85c4.73333,4.16667 7.68333,9.5 8.85,16c1,5.63333 -1.13333,8.7 -6.4,9.2c-19.8,1.56667 -39.65,1.65 -59.55,0.25c-0.46667,-0.86667 -0.91667,-1.71667 -1.35,-2.55c-8.6,-17.16667 -11.68333,-35.2 -9.25,-54.1c0.36667,-2.83333 0.58333,-5.68333 0.65,-8.55c0.36667,-12.96667 5.11667,-23.88333 14.25,-32.75c0.7,-0.7 1.48333,-1.13333 2.35,-1.3c13.93333,-2.93333 27.7,-2.03333 41.3,2.7c1.4,0.6 2.8,1.38333 4.2,2.35c0.66667,0.43333 1.1,0.96667 1.3,1.6c1.56667,5.56667 1.35,11.36667 -0.65,17.4c-0.26667,0.76667 -0.3,1.48333 -0.1,2.15M647.29234,325.19279c1.33333,9.3 -0.5,17.65 -5.5,25.05l-30.45,0.05l2.65,5.8l18.2,-2.3c4.36667,4.56667 6.45,10.35 6.25,17.35c-0.03333,0.56667 -0.15,1.08333 -0.35,1.55c-2,4.33333 -5.78333,6.18333 -11.35,5.55c-3.4,-0.23333 -6.03333,-0.13333 -7.9,0.3l2.75,4.95l30.35,1.4c2.3,5.13333 3.7,10.61667 4.2,16.45c0.36667,4.1 -1.6,6.58333 -5.9,7.45c-13.06667,2.9 -26.3,3.88333 -39.7,2.95c-3.53333,0.16667 -6.63333,-0.85 -9.3,-3.05c-3.16667,-2.56667 -5.26667,-5.83333 -6.3,-9.8c-4.96667,-18.8 -7.78333,-37.9 -8.45,-57.3c-0.33333,-9.86667 2.03333,-18.76667 7.1,-26.7c0.3,-0.5 0.68333,-0.73333 1.15,-0.7c14.46667,-2.13333 29.05,-1.81667 43.75,0.95c6.26667,1.1 9.2,4.45 8.8,10.05M767.19234,348.34279l0.6,3.35l-5.05,35.9l45.35,-4c0.96667,1.23333 1.91667,2.5 2.85,3.8c0.23333,0.33333 0.35,0.73333 0.35,1.2c0.3,8.1 -0.23333,15.93333 -1.6,23.5l-80.55,3.85c-1.83333,-2.4 -2.78333,-5.16667 -2.85,-8.3c-0.1,-4.63333 -0.4,-9.3 -0.9,-14c-1.26667,-12.5 -0.05,-24.53333 3.65,-36.1l-1.5,-1.5c4.6,-3.33333 9.83333,-5.18333 15.7,-5.55c1.46667,-0.3 2.88333,-0.71667 4.25,-1.25c6.8,-2.63333 13.36667,-2.93333 19.7,-0.9M759.49234,337.14279c-1.96667,3.03333 -4.56667,5.35 -7.8,6.95c-9.2,4.43333 -18.83333,7.65 -28.9,9.65c-4.53333,0.93333 -7.98333,2.33333 -10.35,4.2c0.66667,3.7 1.26667,7.38333 1.8,11.05c1.96667,13.43333 3.71667,26.93333 5.25,40.5c0.16667,1.63333 -0.5,2.61667 -2,2.95c-15.06667,3.16667 -30.2,3.46667 -45.4,0.9c-2.03333,-2.76667 -3.1,-5.88333 -3.2,-9.35c-0.6,-21.86667 1.83333,-43.56667 7.3,-65.1c-1.8,0.33333 -3.5,0.85 -5.1,1.55c-6.4,3 -12.76667,4.06667 -19.1,3.2c-0.66667,-1.1 -0.85,-2.28333 -0.55,-3.55c2.66667,-11.8 5.41667,-23.45 8.25,-34.95c1.3,-5.23333 4.05,-7.95 8.25,-8.15c0.2,0.3 0.43333,0.5 0.7,0.6c1.03333,0.26667 2.08333,0.3 3.15,0.1c11.6,-1.66667 23.2,-2.98333 34.8,-3.95c14.9,-1.56667 28.96667,0.98333 42.2,7.65c4.86667,2.4 8.65,5.9 11.35,10.5c4.86667,8.3 4.65,16.71667 -0.65,25.25M726.74234,327.34279c-7.6,-2.26667 -15.3,-2.31667 -23.1,-0.15l1.05,11.25c3.7,-0.7 7.43333,-1.38333 11.2,-2.05c5.7,-1.16667 9.31667,-4.18333 10.85,-9.05M840.69234,324.89279l17.9,80.8l-2,1.75l-30.6,0.15c-2.53333,-2.8 -3.91667,-6.18333 -4.15,-10.15c-0.66667,-10.9 -1.36667,-21.53333 -2.1,-31.9c-0.6,-0.1 -1.18333,-0.25 -1.75,-0.45c-1.33333,-0.5 -2.63333,-1.06667 -3.9,-1.7c-0.36667,-0.16667 -0.71667,-0.31667 -1.05,-0.45c-2.03333,0.3 -4.05,0.61667 -6.05,0.95l-3.35,10.9l0.6,2.1l-3.25,2.8c-7.63333,0.33333 -15.26667,0.91667 -22.9,1.75c-4.63333,0.23333 -8.01667,-1.33333 -10.15,-4.7c0,-1.1 0.15,-2.2 0.45,-3.3c5.33333,-19.43333 12.96667,-38.08333 22.9,-55.95c0.8,-1.43333 1.38333,-2.91667 1.75,-4.45c0.3,-1.33333 0.98333,-2.38333 2.05,-3.15c9.8,-6.86667 20.95,-9.95 33.45,-9.25l12.15,24.25M809.94234,340.34279l9,-0.8l-4.4,-9.05l-6.5,9.45l1.9,0.4M934.24234,331.29279c-2.93333,5.63333 -6.1,11.03333 -9.5,16.2c-7.1,10.7 -16.43333,18.03333 -28,22c3.6,10.96667 6.35,22.11667 8.25,33.45c0.83333,5 -0.51667,8.81667 -4.05,11.45c-9.8,-0.36667 -19.6,-0.71667 -29.4,-1.05c-0.8,-0.2 -1.55,-0.46667 -2.25,-0.8c-2.06667,-1.03333 -3.18333,-2.75 -3.35,-5.15c-1.03333,-15.33333 0.01667,-30.58333 3.15,-45.75c-9.56667,-13.4 -16.76667,-27.95 -21.6,-43.65c-0.9,-2.9 -0.55,-5.5 1.05,-7.8c5.26667,-7.66667 12.36667,-11.55 21.3,-11.65c2.13333,0.43333 3.61667,1.61667 4.45,3.55c2.3,5.33333 4.25,10.85 5.85,16.55c2,7.26667 4.98333,13.38333 8.95,18.35c1.73333,-2.46667 3.3,-5.06667 4.7,-7.8c5.46667,-10.4 12.65,-19.11667 21.55,-26.15c0.16667,0 0.31667,0.06667 0.45,0.2c8.53333,5.86667 15.21667,13.45 20.05,22.75c-0.2,1.86667 -0.73333,3.63333 -1.6,5.3z" fill="#ffffff"/></g></g></svg>