<svg version="1.1" xmlns="http://www.w3.org/2000/svg" xmlns:xlink="http://www.w3.org/1999/xlink" width="48.22989" height="75.96786" viewBox="0,0,48.22989,75.96786"><g transform="translate(-603.87261,-333.91643)"><g data-paper-data="{&quot;isPaintingLayer&quot;:true}" fill-rule="nonzero" stroke="none" stroke-width="1" stroke-linecap="round" stroke-linejoin="miter" stroke-miterlimit="4" stroke-dasharray="" stroke-dashoffset="0" style="mix-blend-mode: normal"><path d="M619.19,335.87c3.43333,2.3 5.98333,4.15 7.65,5.55c1.66667,1.4 4.06667,3.63333 7.2,6.7c4.23333,3.83333 8.86667,7.08333 13.9,9.75c1.46667,2.06667 2.51667,3.83333 3.15,5.3c0.9,2.1 1.2,4.05 0.9,5.85c-0.23333,1.33333 -0.83333,2.7 -1.8,4.1c-0.6,0.9 -1.56667,2.08333 -2.9,3.55l-15.25,16.7c-3.2,3.46667 -5.65,6.03333 -7.35,7.7c-2.83333,2.73333 -5.55,4.98333 -8.15,6.75c-2.5,1.7 -4.65,2.35 -6.45,1.95c-1.63333,-0.33333 -3,-1.45 -4.1,-3.35c-0.76667,-1.33333 -1.25,-2.78333 -1.45,-4.35c-0.23333,-1.56667 -0.13333,-3.08333 0.3,-4.55c0.43333,-1.6 1.26667,-3.23333 2.5,-4.9c0.76667,-1.03333 2,-2.45 3.7,-4.25l18.6,-19.75l-17.65,-13.15c-3.03333,-2.26667 -5.08333,-4.18333 -6.15,-5.75c-0.86667,-1.2 -1.45,-2.48333 -1.75,-3.85c-0.33333,-1.46667 -0.28333,-2.83333 0.15,-4.1c0.4,-1.13333 1.13333,-2.23333 2.2,-3.3c0.73333,-0.7 1.8,-1.55 3.2,-2.55c0.96667,-0.66667 1.71667,-1.13333 2.25,-1.4c0.9,-0.43333 1.75,-0.63333 2.55,-0.6c1.2,0 2.78333,0.65 4.75,1.95M627.84,350.52c-4,-4.1 -8.45,-7.6 -13.35,-10.5c-1.8,0.73333 -3.28333,1.8 -4.45,3.2c-0.43333,1.13333 -0.21667,2.28333 0.65,3.45c0.6,0.73333 1.53333,1.5 2.8,2.3c5.56667,3.7 10.93333,7.98333 16.1,12.85c2.6,0.73333 4.61667,2.2 6.05,4.4c0.76667,1.2 1.06667,2.26667 0.9,3.2c-0.1,0.6 -0.4,1.2 -0.9,1.8c-0.26667,0.3 -0.78333,0.8 -1.55,1.5c-1.63333,1.43333 -3.95,3.75 -6.95,6.95c-5.5,5.9 -10.9,11.9 -16.2,18c-0.56667,0.96667 -0.8,2.03333 -0.7,3.2c0.13333,1.16667 0.56667,2.16667 1.3,3c7.16667,-4.6 12.71667,-9.81667 16.65,-15.65c7.36667,-7.43333 12.75,-13.13333 16.15,-17.1c1.1,-1.3 1.71667,-2.36667 1.85,-3.2c0.13333,-1.03333 -0.1,-2.08333 -0.7,-3.15c-0.96667,-1.76667 -2.75,-3.41667 -5.35,-4.95c-3.03333,-1.56667 -5.23333,-2.85 -6.6,-3.85c-0.9,-0.66667 -1.88333,-1.53333 -2.95,-2.6c-1.2,-1.26667 -2.11667,-2.21667 -2.75,-2.85z" fill="#000000"/><path d="M640.14,359.82c2.6,1.53333 4.38333,3.18333 5.35,4.95c0.6,1.06667 0.83333,2.11667 0.7,3.15c-0.13333,0.83333 -0.75,1.9 -1.85,3.2c-3.4,3.96667 -8.78333,9.66667 -16.15,17.1c-3.93333,5.83333 -9.48333,11.05 -16.65,15.65c-0.73333,-0.83333 -1.16667,-1.83333 -1.3,-3c-0.1,-1.16667 0.13333,-2.23333 0.7,-3.2c5.3,-6.1 10.7,-12.1 16.2,-18c3,-3.2 5.31667,-5.51667 6.95,-6.95c0.76667,-0.7 1.28333,-1.2 1.55,-1.5c0.5,-0.6 0.8,-1.2 0.9,-1.8c0.16667,-0.93333 -0.13333,-2 -0.9,-3.2c-1.43333,-2.2 -3.45,-3.66667 -6.05,-4.4c-5.16667,-4.86667 -10.53333,-9.15 -16.1,-12.85c-1.26667,-0.8 -2.2,-1.56667 -2.8,-2.3c-0.86667,-1.16667 -1.08333,-2.31667 -0.65,-3.45c1.16667,-1.4 2.65,-2.46667 4.45,-3.2c4.9,2.9 9.35,6.4 13.35,10.5c0.63333,0.63333 1.55,1.58333 2.75,2.85c1.06667,1.06667 2.05,1.93333 2.95,2.6c1.36667,1 3.56667,2.28333 6.6,3.85z" fill="#ffffff"/></g></g></svg>