<svg version="1.1" xmlns="http://www.w3.org/2000/svg" xmlns:xlink="http://www.w3.org/1999/xlink" width="609.6" height="163.6" viewBox="0,0,609.6,163.6"><g transform="translate(-337.65586,-282.35631)"><g data-paper-data="{&quot;isPaintingLayer&quot;:true}" fill-rule="nonzero" stroke="none" stroke-width="1" stroke-linecap="butt" stroke-linejoin="miter" stroke-miterlimit="10" stroke-dasharray="" stroke-dashoffset="0" style="mix-blend-mode: normal"><path d="M371.25586,304.25631c0.56667,-0.16667 1.15,-0.31667 1.75,-0.45c0.6,-0.23333 1.2,-0.45 1.8,-0.65c0.83333,-0.26667 1.65,-0.55 2.45,-0.85c0.63333,-0.2 1.23333,-0.41667 1.8,-0.65c0.83333,-0.36667 1.66667,-0.71667 2.5,-1.05c0.36667,-0.23333 0.73333,-0.48333 1.1,-0.75c0.6,-0.1 1.2,-0.21667 1.8,-0.35c0.56667,-0.23333 1.15,-0.46667 1.75,-0.7c0.83333,-0.36667 1.66667,-0.71667 2.5,-1.05c0.36667,-0.26667 0.73333,-0.51667 1.1,-0.75c0.6,-0.1 1.18333,-0.21667 1.75,-0.35c0.96667,0 1.93333,0 2.9,0c0.7,-0.1 1.4,-0.21667 2.1,-0.35c0.73333,-0.13333 1.43333,-0.3 2.1,-0.5c0.03333,-0.03333 0.05,-0.1 0.05,-0.2c6.2,0 12.4,0.03333 18.6,0.1c2.36667,0.03333 4.75,0.11667 7.15,0.25c0.56667,0.23333 1.15,0.46667 1.75,0.7c0.23333,0.23333 0.48333,0.46667 0.75,0.7c0.56667,0.13333 1.15,0.26667 1.75,0.4c0.6,0.23333 1.2,0.46667 1.8,0.7c0.23333,0.23333 0.46667,0.46667 0.7,0.7c0.13333,0.13333 0.26667,0.23333 0.4,0.3c0.56667,0.26667 1.15,0.53333 1.75,0.8c0.36667,0.33333 0.71667,0.68333 1.05,1.05c0.67552,0.29727 1.34219,0.5806 2,0.85c0.17917,-0.16367 0.34583,-0.33034 0.5,-0.5c0.36667,-0.36667 0.73333,-0.71667 1.1,-1.05c0.36667,-0.36667 0.71667,-0.73333 1.05,-1.1c0.36667,-0.23333 0.73333,-0.46667 1.1,-0.7c0.6,-0.23333 1.18333,-0.46667 1.75,-0.7c0.36667,-0.36667 0.73333,-0.73333 1.1,-1.1c0.23333,-0.23333 0.46667,-0.46667 0.7,-0.7c0.23333,-0.13333 0.48333,-0.25 0.75,-0.35c0.56667,-0.23333 1.15,-0.46667 1.75,-0.7c0.36667,-0.26667 0.73333,-0.51667 1.1,-0.75c0.46667,-0.1 0.93333,-0.23333 1.4,-0.4c0.73333,-0.2 1.45,-0.41667 2.15,-0.65c0.6,-0.36667 1.2,-0.73333 1.8,-1.1c0.33333,-0.23333 0.68333,-0.46667 1.05,-0.7c0.13333,-0.1 0.26667,-0.18333 0.4,-0.25c0.56667,-0.2 1.15,-0.35 1.75,-0.45c0.6,-0.23333 1.2,-0.45 1.8,-0.65c0.83333,-0.3 1.66667,-0.56667 2.5,-0.8c2.5,-0.23333 5,-0.46667 7.5,-0.7c0.83333,-0.23333 1.66667,-0.46667 2.5,-0.7c6.16667,0 12.35,0 18.55,0c0.73333,0.23333 1.45,0.46667 2.15,0.7c0.7,0.23333 1.41667,0.46667 2.15,0.7c0.7,0.23333 1.41667,0.48333 2.15,0.75c0.33333,0.23333 0.68333,0.46667 1.05,0.7c0.6,0.23333 1.2,0.46667 1.8,0.7c0.36667,0.23333 0.71667,0.46667 1.05,0.7c0.6,0.26667 1.2,0.51667 1.8,0.75c0.23333,0.23333 0.46667,0.46667 0.7,0.7c0.73333,0.23333 1.45,0.46667 2.15,0.7c0.46667,0.36667 0.95,0.73333 1.45,1.1c0.46667,0.33333 0.93333,0.68333 1.4,1.05c0.36667,0.36667 0.73333,0.73333 1.1,1.1c0.33333,0.33333 0.68333,0.68333 1.05,1.05c0.36667,0.36667 0.71667,0.71667 1.05,1.05c0.26667,0.26667 0.51667,0.51667 0.75,0.75c0.6,0.23333 1.18333,0.46667 1.75,0.7c0.5,0.36667 0.98333,0.71667 1.45,1.05c0.36667,0.36667 0.71667,0.73333 1.05,1.1c0.36667,0.36667 0.73333,0.71667 1.1,1.05c0.23333,0.36667 0.46667,0.73333 0.7,1.1c0.13333,0.33333 0.25,0.68333 0.35,1.05c0.13333,0.13333 0.21667,0.18333 0.25,0.15c0.2,-0.1 0.36667,-0.26667 0.5,-0.5c0,-0.36667 0,-0.71667 0,-1.05c0,-0.36667 0,-0.73333 0,-1.1c0,-0.36667 0,-0.71667 0,-1.05c0,-0.36667 0,-0.73333 0,-1.1c0,-0.33333 0,-0.68333 0,-1.05c0.23333,-0.36667 0.46667,-0.73333 0.7,-1.1c0.1,-0.33333 0.21667,-0.68333 0.35,-1.05c0.13333,-0.36667 0.25,-0.71667 0.35,-1.05c0.23333,-0.36667 0.46667,-0.73333 0.7,-1.1c0.36667,-0.23333 0.73333,-0.46667 1.1,-0.7c0.1,-0.13333 0.23333,-0.21667 0.4,-0.25c0.56667,-0.2 1.15,-0.35 1.75,-0.45c1.53333,-0.26667 3.06667,-0.55 4.6,-0.85c0.86667,-0.16667 1.71667,-0.36667 2.55,-0.6c4.73333,0 9.48333,0 14.25,0c0.73333,0.23333 1.45,0.46667 2.15,0.7c6.06667,0 12.13333,0 18.2,0c0.83333,-0.23333 1.66667,-0.46667 2.5,-0.7c3.83333,0 7.65,0 11.45,0c0.7,0.23333 1.41667,0.46667 2.15,0.7c2.73333,0 5.46667,0 8.2,0c0.83333,-0.23333 1.66667,-0.46667 2.5,-0.7c6.3,-0.23333 12.61667,-0.46667 18.95,-0.7c0.83333,-0.23333 1.66667,-0.48333 2.5,-0.75c2.36667,-0.1 4.73333,-0.21667 7.1,-0.35c0.73333,0.23333 1.45,0.48333 2.15,0.75c0.36667,0.33333 0.73333,0.68333 1.1,1.05c0.23333,0.36667 0.46667,0.71667 0.7,1.05c0.13333,0.36667 0.25,0.73333 0.35,1.1c0,0.36667 0,0.71667 0,1.05c0,0.36667 0,0.73333 0,1.1c0,0.33333 0,0.68333 0,1.05c0,0.36667 0,0.73333 0,1.1c0,0.33333 0,0.68333 0,1.05c-0.23333,0.36667 -0.46667,0.71667 -0.7,1.05c-0.13333,0.36667 -0.25,0.73333 -0.35,1.1c-0.13333,0.36667 -0.25,0.71667 -0.35,1.05c0,0.36667 0,0.73333 0,1.1c0,0.33333 0,0.68333 0,1.05c0,0.36667 0,0.73333 0,1.1c-0.13333,0.33333 -0.26667,0.68333 -0.4,1.05c0,0.23333 0,0.46667 0,0.7c0.6,0 1.2,0 1.8,0c5.23333,-0.1 10.46667,-0.21667 15.7,-0.35c0.73333,0.23333 1.45,0.46667 2.15,0.7c0.46667,0.36667 0.95,0.73333 1.45,1.1c0.23333,0.23333 0.46667,0.46667 0.7,0.7c0.13333,0.13333 0.26667,0.23333 0.4,0.3c0.56667,0.26667 1.15,0.53333 1.75,0.8c0.46667,0.33333 0.93333,0.68333 1.4,1.05c0.36667,0.36667 0.73333,0.71667 1.1,1.05c0.1,0.36667 0.21667,0.73333 0.35,1.1c0.46667,0.33333 0.95,0.68333 1.45,1.05c0.46667,0.36667 0.93333,0.73333 1.4,1.1c0.36667,0.33333 0.73333,0.68333 1.1,1.05c0.1,0.36667 0.21667,0.71667 0.35,1.05c0.23333,0.36667 0.46667,0.73333 0.7,1.1c0.13333,0 0.21667,-0.03333 0.25,-0.1c0.2,-0.3 0.35,-0.63333 0.45,-1c0.23333,-0.33333 0.48333,-0.68333 0.75,-1.05c0.33333,-0.36667 0.68333,-0.71667 1.05,-1.05c0.23333,-0.36667 0.46667,-0.73333 0.7,-1.1c0.13333,-0.36667 0.25,-0.71667 0.35,-1.05c0.26667,-0.36667 0.51667,-0.73333 0.75,-1.1c0.33333,-0.23333 0.68333,-0.46667 1.05,-0.7c0.6,-0.23333 1.2,-0.46667 1.8,-0.7c0.36667,-0.36667 0.71667,-0.73333 1.05,-1.1c0.5,-0.33333 0.98333,-0.68333 1.45,-1.05c0.23333,-0.36667 0.46667,-0.71667 0.7,-1.05c0.83333,-0.36667 1.66667,-0.73333 2.5,-1.1c0.36667,-0.36667 0.73333,-0.71667 1.1,-1.05c0.46667,-0.36667 0.93333,-0.73333 1.4,-1.1c0.23333,-0.33333 0.46667,-0.68333 0.7,-1.05c0.83333,-0.23333 1.66667,-0.5 2.5,-0.8c0.6,-0.2 1.2,-0.4 1.8,-0.6c0.83333,-0.26667 1.66667,-0.53333 2.5,-0.8c1.43333,-0.43333 2.86667,-0.9 4.3,-1.4c1.53333,-0.23333 3.08333,-0.46667 4.65,-0.7c0.83333,-0.23333 1.66667,-0.45 2.5,-0.65c1.06667,-0.26667 2.13333,-0.53333 3.2,-0.8c0.83333,-0.23333 1.66667,-0.46667 2.5,-0.7c3.8,-0.1 7.6,-0.2 11.4,-0.3c1.93333,-0.03333 3.85,-0.05 5.75,-0.05c0.7,0.23333 1.41667,0.46667 2.15,0.7c0.33333,0.26667 0.68333,0.51667 1.05,0.75c0.6,0.23333 1.2,0.45 1.8,0.65c0.7,0.26667 1.41667,0.51667 2.15,0.75c0.7,0.23333 1.4,0.48333 2.1,0.75c0.36667,0.23333 0.73333,0.46667 1.1,0.7c0.6,0.23333 1.2,0.46667 1.8,0.7c0.33333,0.23333 0.68333,0.46667 1.05,0.7c0.6,0.26667 1.2,0.51667 1.8,0.75c0.46667,0.33333 0.93333,0.68333 1.4,1.05c0.23333,0.23333 0.48333,0.46667 0.75,0.7c0.1,0.13333 0.21667,0.23333 0.35,0.3c0.6,0.3 1.18333,0.56667 1.75,0.8c0.5,0.36667 0.98333,0.71667 1.45,1.05c0.36667,0.36667 0.71667,0.73333 1.05,1.1c0.36667,0.23333 0.73333,0.46667 1.1,0.7c0.1,-0.13333 0.16667,-0.26667 0.2,-0.4c0.1,-0.33333 0.15,-0.68333 0.15,-1.05c0.13333,-0.33333 0.25,-0.68333 0.35,-1.05c0.23333,-0.36667 0.46667,-0.71667 0.7,-1.05c0.36667,-0.36667 0.73333,-0.73333 1.1,-1.1c0.36667,-0.23333 0.71667,-0.46667 1.05,-0.7c0.13333,-0.13333 0.26667,-0.21667 0.4,-0.25c0.56667,-0.2 1.15,-0.35 1.75,-0.45c0.6,-0.26667 1.2,-0.5 1.8,-0.7c0.83333,-0.26667 1.66667,-0.5 2.5,-0.7c1.06667,-0.26667 2.13333,-0.53333 3.2,-0.8c0.83333,-0.2 1.66667,-0.43333 2.5,-0.7c1.56667,-0.23333 3.11667,-0.46667 4.65,-0.7c0.83333,-0.23333 1.66667,-0.43333 2.5,-0.6c1.53333,-0.3 3.06667,-0.61667 4.6,-0.95c0.86667,-0.16667 1.71667,-0.36667 2.55,-0.6c1.53333,-0.23333 3.08333,-0.46667 4.65,-0.7c0.83333,-0.23333 1.66667,-0.46667 2.5,-0.7c2,-0.23333 4.01667,-0.48333 6.05,-0.75c0.83333,-0.23333 1.66667,-0.46667 2.5,-0.7c3.46667,-0.23333 6.91667,-0.46667 10.35,-0.7c0.83333,-0.23333 1.66667,-0.46667 2.5,-0.7c2.03333,-0.26667 4.06667,-0.51667 6.1,-0.75c0.83333,-0.23333 1.66667,-0.46667 2.5,-0.7c1.9,-0.23333 3.8,-0.46667 5.7,-0.7c0.36667,-0.23333 0.71667,-0.48333 1.05,-0.75c0.6,-0.1 1.2,-0.2 1.8,-0.3c1.53333,-0.26667 3.08333,-0.51667 4.65,-0.75c0.83333,-0.23333 1.66667,-0.46667 2.5,-0.7c1.9,-0.5 3.8,-1 5.7,-1.5c3.76667,-1 7.56667,-1.86667 11.4,-2.6c0.03333,0 0.05,-0.06667 0.05,-0.2c3.33333,0 6.66667,0 10,0c0.7,0.23333 1.4,0.46667 2.1,0.7c0.36667,0.36667 0.73333,0.73333 1.1,1.1c0.23333,0.33333 0.46667,0.68333 0.7,1.05c0.13333,0.36667 0.25,0.73333 0.35,1.1c0.23333,0.33333 0.48333,0.68333 0.75,1.05c0.1,0.36667 0.21667,0.71667 0.35,1.05c0.1,0.36667 0.21667,0.73333 0.35,1.1c0,0.36667 0,0.71667 0,1.05c0,0.36667 0,0.73333 0,1.1c0.1,0.33333 0.21667,0.68333 0.35,1.05c0.23333,0.36667 0.46667,0.73333 0.7,1.1c0.13333,0.33333 0.25,0.68333 0.35,1.05c0,0.36667 0,0.71667 0,1.05c0,0.36667 0,0.73333 0,1.1c0.13333,0.36667 0.26667,0.71667 0.4,1.05c0.1,0.36667 0.21667,0.73333 0.35,1.1c0.23333,0.33333 0.46667,0.68333 0.7,1.05c0.24102,-0.21849 0.47435,-0.45182 0.7,-0.7c0.5,-0.36667 0.98333,-0.73333 1.45,-1.1c0.23333,-0.33333 0.46667,-0.68333 0.7,-1.05c0.23333,-0.36667 0.46667,-0.71667 0.7,-1.05c0.26667,-0.36667 0.51667,-0.73333 0.75,-1.1c0.33333,-0.36667 0.68333,-0.71667 1.05,-1.05c0.23333,-0.36667 0.46667,-0.73333 0.7,-1.1c0.13333,-0.33333 0.26667,-0.68333 0.4,-1.05c0.23333,-0.36667 0.46667,-0.73333 0.7,-1.1c0.36667,-0.33333 0.71667,-0.68333 1.05,-1.05c0.5,-0.36667 0.98333,-0.71667 1.45,-1.05c0.23333,-0.36667 0.46667,-0.73333 0.7,-1.1c0.83333,-0.36667 1.66667,-0.71667 2.5,-1.05c0.36667,-0.36667 0.73333,-0.73333 1.1,-1.1c0.33333,-0.23333 0.68333,-0.48333 1.05,-0.75c0.13333,-0.1 0.25,-0.2 0.35,-0.3c0.6,-0.23333 1.2,-0.46667 1.8,-0.7c0.36667,-0.26667 0.71667,-0.51667 1.05,-0.75c0.6,-0.23333 1.2,-0.46667 1.8,-0.7c0.36667,-0.23333 0.71667,-0.46667 1.05,-0.7c0.6,-0.23333 1.2,-0.48333 1.8,-0.75c0.36667,-0.23333 0.73333,-0.46667 1.1,-0.7c0.56667,-0.1 1.15,-0.21667 1.75,-0.35c0.6,-0.23333 1.2,-0.46667 1.8,-0.7c0.83333,-0.13333 1.65,-0.31667 2.45,-0.55c0.03333,0 0.05,-0.06667 0.05,-0.2c5.23333,0 10.46667,0 15.7,0c0.73333,0.26667 1.46667,0.48333 2.2,0.65c1.16667,0.3 2.33333,0.6 3.5,0.9c0.73333,0.16667 1.46667,0.35 2.2,0.55c1.16667,0.26667 2.33333,0.55 3.5,0.85c0.73333,0.2 1.46667,0.41667 2.2,0.65c1.16667,0.1 2.35,0.21667 3.55,0.35c0.7,0.23333 1.41667,0.45 2.15,0.65c1.2,0.26667 2.38333,0.55 3.55,0.85c0.73333,0.2 1.45,0.41667 2.15,0.65c0.73333,0.23333 1.45,0.46667 2.15,0.7c0.7,0.23333 1.41667,0.46667 2.15,0.7c1.66667,0.26667 3.33333,0.51667 5,0.75c0.7,0.23333 1.41667,0.46667 2.15,0.7c0.33333,0.36667 0.68333,0.71667 1.05,1.05c0.23333,0.36667 0.46667,0.73333 0.7,1.1c0.13333,0.36667 0.26667,0.71667 0.4,1.05c0,0.36667 0,0.73333 0,1.1c0,0.33333 0,0.68333 0,1.05c0,0.36667 0,0.73333 0,1.1c0,0.33333 0,0.68333 0,1.05c0,0.36667 0,0.71667 0,1.05c0,0.36667 0,0.73333 0,1.1c0,0.36667 0,0.71667 0,1.05c0,0.36667 0,0.73333 0,1.1c0,0.33333 0,0.68333 0,1.05c-0.26667,0.36667 -0.51667,0.73333 -0.75,1.1c-0.1,0.33333 -0.21667,0.68333 -0.35,1.05c-0.1,0.36667 -0.21667,0.71667 -0.35,1.05c0,0.36667 0,0.73333 0,1.1c0,0.36667 0,0.71667 0,1.05c0,0.36667 0,0.73333 0,1.1c0,0.33333 0,0.68333 0,1.05c0,0.36667 0,0.73333 0,1.1c0,0.33333 0,0.68333 0,1.05c0,0.36667 0,0.71667 0,1.05c0,0.36667 0,0.73333 0,1.1c0,0.33333 0,0.68333 0,1.05c0,0.36667 0,0.73333 0,1.1c0,0.33333 0,0.68333 0,1.05c-0.13333,0.36667 -0.25,0.71667 -0.35,1.05c-0.13333,0.36667 -0.25,0.73333 -0.35,1.1c-0.23333,0.36667 -0.48333,0.71667 -0.75,1.05c0,0.36667 0,0.73333 0,1.1c0,0.33333 0,0.68333 0,1.05c0,0.36667 0,0.73333 0,1.1c0,0.33333 0,0.68333 0,1.05c0,0.36667 0,0.71667 0,1.05c0,0.36667 0,0.73333 0,1.1c0,0.36667 0,0.71667 0,1.05c0,0.36667 0,0.73333 0,1.1c0,0.33333 0,0.68333 0,1.05c0,0.36667 0,0.73333 0,1.1c0,0.33333 0,0.68333 0,1.05c0,0.36667 0,0.71667 0,1.05c0,0.36667 0,0.73333 0,1.1c0,0.36667 0,0.71667 0,1.05c-0.23333,0.36667 -0.46667,0.73333 -0.7,1.1c-0.1,0.33333 -0.21667,0.68333 -0.35,1.05c-0.13333,0.36667 -0.25,0.73333 -0.35,1.1c0,0.33333 0,0.68333 0,1.05c0,0.36667 0,0.71667 0,1.05c0,0.36667 0,0.73333 0,1.1c0,0.36667 0,0.71667 0,1.05c0,0.36667 0,0.73333 0,1.1c0.36667,0.33333 0.71667,0.68333 1.05,1.05c0.23333,0.36667 0.48333,0.73333 0.75,1.1c0.23333,0.33333 0.46667,0.68333 0.7,1.05c0.1,0.36667 0.21667,0.71667 0.35,1.05c0.23333,0.36667 0.46667,0.73333 0.7,1.1c0.13333,0.36667 0.25,0.71667 0.35,1.05c0.26667,0.36667 0.51667,0.73333 0.75,1.1c0.1,0.33333 0.21667,0.68333 0.35,1.05c0.23333,0.36667 0.46667,0.73333 0.7,1.1c0.13333,0.33333 0.25,0.68333 0.35,1.05c0.23333,0.36667 0.48333,0.71667 0.75,1.05c0.1,0.36667 0.21667,0.73333 0.35,1.1c0.23333,0.36667 0.46667,0.71667 0.7,1.05c0.13333,0.36667 0.25,0.73333 0.35,1.1c0.13333,0.33333 0.25,0.68333 0.35,1.05c0.13333,0.36667 0.25,0.73333 0.35,1.1c0.26667,0.33333 0.51667,0.68333 0.75,1.05c0.23333,0.36667 0.46667,0.71667 0.7,1.05c0.23333,0.36667 0.46667,0.73333 0.7,1.1c0.13333,0.36667 0.25,0.71667 0.35,1.05c0,0.36667 0,0.73333 0,1.1c0.13333,0.33333 0.26667,0.68333 0.4,1.05c0.23333,0.36667 0.46667,0.73333 0.7,1.1c0.1,0.33333 0.21667,0.68333 0.35,1.05c0.23333,0.36667 0.46667,0.71667 0.7,1.05c0.13333,0.36667 0.25,0.73333 0.35,1.1c0.13333,0.36667 0.26667,0.71667 0.4,1.05c-0.13333,0.36667 -0.26667,0.73333 -0.4,1.1c0.13333,0.33333 0.26667,0.68333 0.4,1.05c0,0.36667 0,0.73333 0,1.1c-0.13333,0.33333 -0.26667,0.68333 -0.4,1.05c0,0.36667 0,0.71667 0,1.05c0,0.36667 0,0.73333 0,1.1c0,0.36667 0,0.71667 0,1.05c0,0.36667 0,0.73333 0,1.1c0.13333,0.33333 0.26667,0.68333 0.4,1.05c0,0.36667 0,0.71667 0,1.05c0,0.36667 0,0.73333 0,1.1c0,0.36667 0,0.71667 0,1.05c0,0.73333 0,1.45 0,2.15c0,0.36667 0,0.73333 0,1.1c0,0.33333 0,0.68333 0,1.05c0,0.36667 0,0.71667 0,1.05c0,0.73333 0,1.45 0,2.15c-0.13333,0.36667 -0.26667,0.73333 -0.4,1.1c-0.23333,0.33333 -0.46667,0.68333 -0.7,1.05c-0.1,0.36667 -0.21667,0.73333 -0.35,1.1c0,0.33333 0,0.68333 0,1.05c-0.13333,0.36667 -0.25,0.71667 -0.35,1.05c-0.23333,0.36667 -0.46667,0.73333 -0.7,1.1c-0.26667,0.36667 -0.51667,0.71667 -0.75,1.05c0,0.36667 0,0.73333 0,1.1c-0.1,0.33333 -0.21667,0.68333 -0.35,1.05c-0.23333,0.36667 -0.46667,0.73333 -0.7,1.1c-0.13333,0.33333 -0.25,0.68333 -0.35,1.05c-0.23333,0.36667 -0.48333,0.71667 -0.75,1.05c-0.23333,0.36667 -0.46667,0.73333 -0.7,1.1c0,0.36667 0,0.71667 0,1.05c0,0.36667 0,0.73333 0,1.1c-0.23333,0.33333 -0.46667,0.68333 -0.7,1.05c-0.23333,0.36667 -0.46667,0.73333 -0.7,1.1c-0.13333,0.33333 -0.26667,0.68333 -0.4,1.05c-0.1,0.36667 -0.21667,0.71667 -0.35,1.05c-0.23333,0.36667 -0.46667,0.73333 -0.7,1.1c-0.13333,0.36667 -0.25,0.71667 -0.35,1.05c-0.23333,0.36667 -0.46667,0.73333 -0.7,1.1c-0.36667,0.33333 -0.73333,0.68333 -1.1,1.05c-0.36667,0.36667 -0.71667,0.73333 -1.05,1.1c-0.36667,0.33333 -0.73333,0.68333 -1.1,1.05c-0.23333,0.36667 -0.46667,0.71667 -0.7,1.05c-0.36667,0.36667 -0.71667,0.73333 -1.05,1.1c-0.36667,0.36667 -0.73333,0.71667 -1.1,1.05c-0.36667,0.36667 -0.71667,0.73333 -1.05,1.1c-0.36667,0.33333 -0.73333,0.68333 -1.1,1.05c-0.46667,0.36667 -0.93333,0.73333 -1.4,1.1c-0.23333,0.33333 -0.48333,0.68333 -0.75,1.05c-0.33333,0.36667 -0.68333,0.71667 -1.05,1.05c-0.36667,0.36667 -0.71667,0.73333 -1.05,1.1c-0.36667,0.23333 -0.71667,0.48333 -1.05,0.75c-0.13333,0.1 -0.26667,0.2 -0.4,0.3c-0.6,0.23333 -1.2,0.48333 -1.8,0.75c-0.33333,0.33333 -0.68333,0.68333 -1.05,1.05c-0.36667,0.23333 -0.73333,0.46667 -1.1,0.7c-0.1,0.13333 -0.21667,0.23333 -0.35,0.3c-0.7,0.3 -1.41667,0.56667 -2.15,0.8c-0.33333,0.33333 -0.68333,0.68333 -1.05,1.05c-0.23333,0.23333 -0.46667,0.46667 -0.7,0.7c-0.13333,0.13333 -0.26667,0.23333 -0.4,0.3c-0.7,0.3 -1.4,0.56667 -2.1,0.8c-0.23333,0.23333 -0.48333,0.46667 -0.75,0.7c-0.56667,0.13333 -1.15,0.26667 -1.75,0.4c-0.73333,0.2 -1.45,0.43333 -2.15,0.7c-0.7,0.23333 -1.41667,0.46667 -2.15,0.7c-1.43333,0.46667 -2.86667,0.93333 -4.3,1.4c-7.13333,0 -14.26667,0 -21.4,0c-3.4,-0.73333 -6.73333,-1.68333 -10,-2.85c-3.3,-1.16667 -6.63333,-2.15 -10,-2.95c-2.73333,-0.63333 -5.46667,-1.31667 -8.2,-2.05c-0.36667,-0.33333 -0.73333,-0.68333 -1.1,-1.05c-0.6,-0.36667 -1.2,-0.73333 -1.8,-1.1c-0.83333,-0.33333 -1.66667,-0.68333 -2.5,-1.05c-0.23333,-0.23333 -0.46667,-0.46667 -0.7,-0.7c-0.7,-0.23333 -1.41667,-0.48333 -2.15,-0.75c-0.23333,-0.23333 -0.46667,-0.46667 -0.7,-0.7c-0.7,-0.23333 -1.41667,-0.46667 -2.15,-0.7c-0.46667,-0.36667 -0.95,-0.71667 -1.45,-1.05c-0.08568,-0.05547 -0.16901,-0.12214 -0.25,-0.2c-0.03581,0.06146 -0.06914,0.11146 -0.1,0.15c-0.23333,0.36667 -0.46667,0.73333 -0.7,1.1c-0.1,0.36667 -0.21667,0.71667 -0.35,1.05c-0.1,0.36667 -0.21667,0.73333 -0.35,1.1c-0.23333,0.33333 -0.46667,0.68333 -0.7,1.05c0,0.36667 0,0.73333 0,1.1c0,0.33333 0,0.68333 0,1.05c0,0.36667 0,0.71667 0,1.05c-0.23333,0.36667 -0.48333,0.73333 -0.75,1.1c-0.23333,0.36667 -0.46667,0.71667 -0.7,1.05c0,0.36667 0,0.73333 0,1.1c0,0.33333 0,0.68333 0,1.05c-0.23333,0.36667 -0.46667,0.73333 -0.7,1.1c-0.23333,0.33333 -0.46667,0.68333 -0.7,1.05c-0.26667,0.23333 -0.51667,0.46667 -0.75,0.7c-1.53333,0.23333 -3.08333,0.38333 -4.65,0.45c-3.8,0.2 -7.6,0.3 -11.4,0.3c-0.83333,-0.26667 -1.66667,-0.51667 -2.5,-0.75c-2.03333,-0.23333 -4.06667,-0.46667 -6.1,-0.7c-0.83333,-0.23333 -1.66667,-0.46667 -2.5,-0.7c-2.5,-0.23333 -5,-0.48333 -7.5,-0.75c-0.83333,-0.23333 -1.66667,-0.46667 -2.5,-0.7c-2,-0.23333 -4.01667,-0.46667 -6.05,-0.7c-0.83333,-0.23333 -1.66667,-0.46667 -2.5,-0.7c-2.5,-0.26667 -5,-0.51667 -7.5,-0.75c-0.83333,-0.23333 -1.66667,-0.46667 -2.5,-0.7c-14.86667,-0.23333 -29.75,-0.46667 -44.65,-0.7c-0.83333,-0.23333 -1.66667,-0.48333 -2.5,-0.75c-0.33333,-0.33333 -0.68333,-0.68333 -1.05,-1.05c-0.23333,-0.36667 -0.46667,-0.71667 -0.7,-1.05c0,-0.36667 0,-0.73333 0,-1.1c0,-0.36667 0,-0.71667 0,-1.05c0,-0.36667 0,-0.73333 0,-1.1c-0.13333,-0.33333 -0.26667,-0.68333 -0.4,-1.05c-0.23333,-0.36667 -0.46667,-0.73333 -0.7,-1.1c-0.1,-0.33333 -0.21667,-0.68333 -0.35,-1.05c0,-0.36667 0,-0.71667 0,-1.05c0,-0.36667 0,-0.73333 0,-1.1c0,-0.36667 0,-0.71667 0,-1.05c0,-0.36667 0,-0.73333 0,-1.1c0,-0.33333 0,-0.68333 0,-1.05c0,-0.36667 0,-0.73333 0,-1.1c0,-0.33333 0,-0.68333 0,-1.05c0,-0.36667 0,-0.71667 0,-1.05c-0.36667,0 -0.71667,0 -1.05,0c-0.36667,0.33333 -0.73333,0.68333 -1.1,1.05c-0.36667,0.36667 -0.71667,0.71667 -1.05,1.05c-0.36667,0.36667 -0.73333,0.73333 -1.1,1.1c-0.46667,0.36667 -0.93333,0.71667 -1.4,1.05c-0.36667,0.36667 -0.73333,0.73333 -1.1,1.1c-0.23333,0.33333 -0.46667,0.68333 -0.7,1.05c-0.23333,0.23333 -0.46667,0.46667 -0.7,0.7c-0.6,0.26667 -1.2,0.51667 -1.8,0.75c-0.36667,0.33333 -0.71667,0.68333 -1.05,1.05c-0.5,0.36667 -0.98333,0.73333 -1.45,1.1c-0.36667,0.33333 -0.71667,0.68333 -1.05,1.05c-0.83333,0.36667 -1.66667,0.71667 -2.5,1.05c-0.36667,0.36667 -0.73333,0.73333 -1.1,1.1c-0.23333,0.23333 -0.46667,0.46667 -0.7,0.7c-0.13333,0.13333 -0.26667,0.21667 -0.4,0.25c-0.56667,0.2 -1.15,0.35 -1.75,0.45c-1.2,0.26667 -2.38333,0.53333 -3.55,0.8c-0.73333,0.2 -1.45,0.41667 -2.15,0.65c-3.8,0 -7.61667,0 -11.45,0c-0.83333,-0.23333 -1.66667,-0.45 -2.5,-0.65c-1.06667,-0.26667 -2.13333,-0.53333 -3.2,-0.8c-0.96667,-0.23333 -1.91667,-0.46667 -2.85,-0.7c-0.36667,-0.23333 -0.73333,-0.46667 -1.1,-0.7c-1.06667,-0.13333 -2.13333,-0.25 -3.2,-0.35c-0.7,-0.23333 -1.41667,-0.48333 -2.15,-0.75c-0.23333,-0.23333 -0.46667,-0.46667 -0.7,-0.7c-0.7,-0.23333 -1.41667,-0.46667 -2.15,-0.7c-0.36667,-0.36667 -0.71667,-0.73333 -1.05,-1.1c-0.23333,-0.23333 -0.48333,-0.46667 -0.75,-0.7c-0.1,-0.1 -0.21667,-0.18333 -0.35,-0.25c-0.7,-0.3 -1.41667,-0.56667 -2.15,-0.8c-0.0638,-0.07018 -0.13047,-0.13685 -0.2,-0.2c-0.39792,0.28398 -0.79792,0.58398 -1.2,0.9c-0.73333,0.23333 -1.45,0.48333 -2.15,0.75c-0.6,0.2 -1.2,0.43333 -1.8,0.7c-0.33333,0.33333 -0.68333,0.68333 -1.05,1.05c-0.36667,0.23333 -0.73333,0.46667 -1.1,0.7c-0.56667,0.23333 -1.15,0.48333 -1.75,0.75c-0.36667,0.23333 -0.73333,0.46667 -1.1,0.7c-0.6,0.1 -1.2,0.2 -1.8,0.3c-1.16667,0.16667 -2.35,0.3 -3.55,0.4c-0.1,0.13333 -0.23333,0.21667 -0.4,0.25c-0.56667,0.2 -1.15,0.33333 -1.75,0.4c-2.6,0.3 -5.21667,0.56667 -7.85,0.8c-0.7,0.23333 -1.41667,0.46667 -2.15,0.7c-5.7,0 -11.4,0 -17.1,0c-0.83333,-0.23333 -1.66667,-0.48333 -2.5,-0.75c-0.6,-0.2 -1.21667,-0.41667 -1.85,-0.65c-0.8,-0.26667 -1.61667,-0.51667 -2.45,-0.75c-0.13333,-0.23333 -0.25,-0.46667 -0.35,-0.7c-0.83333,-0.23333 -1.66667,-0.46667 -2.5,-0.7c-0.23333,-0.26667 -0.48333,-0.51667 -0.75,-0.75c-0.7,-0.23333 -1.4,-0.46667 -2.1,-0.7c-0.26667,-0.23333 -0.51667,-0.46667 -0.75,-0.7c-0.7,-0.23333 -1.41667,-0.48333 -2.15,-0.75c-0.23333,-0.33333 -0.46667,-0.68333 -0.7,-1.05c-0.36667,-0.23333 -0.71667,-0.46667 -1.05,-0.7v-0.2c-0.6,0 -1.2,0.06667 -1.8,0.2c-0.23333,0.23333 -0.46667,0.46667 -0.7,0.7c-0.6,0.13333 -1.2,0.25 -1.8,0.35c-4.53333,0.23333 -9.05,0.46667 -13.55,0.7c-0.73333,0.26667 -1.45,0.51667 -2.15,0.75c-2.63333,0.23333 -5.25,0.46667 -7.85,0.7c-0.73333,0.23333 -1.45,0.46667 -2.15,0.7c-3.1,0.23333 -6.2,0.48333 -9.3,0.75c-0.7,0.23333 -1.41667,0.46667 -2.15,0.7c-7.13333,0 -14.26667,0 -21.4,0c-0.83333,-0.23333 -1.66667,-0.46667 -2.5,-0.7c-0.23333,-0.36667 -0.48333,-0.73333 -0.75,-1.1c-0.23333,-0.36667 -0.46667,-0.71667 -0.7,-1.05c-0.36667,-0.36667 -0.71667,-0.73333 -1.05,-1.1c0,-0.33333 0,-0.68333 0,-1.05c0,-0.36667 0,-0.73333 0,-1.1c0,-0.7 0,-1.4 0,-2.1c0,-0.73333 0,-1.45 0,-2.15c0,-0.73333 0,-1.45 0,-2.15c0,-0.73333 0,-1.45 0,-2.15c-0.13333,-0.36667 -0.25,-0.71667 -0.35,-1.05c-0.36667,-0.36667 -0.73333,-0.73333 -1.1,-1.1c0,-0.36667 0,-0.71667 0,-1.05c0,-0.36667 0,-0.73333 0,-1.1c0,-0.33333 0,-0.68333 0,-1.05c0,-0.73333 0,-1.45 0,-2.15c0,-0.7 0,-1.41667 0,-2.15c0,-0.7 0,-1.41667 0,-2.15c-0.1,-0.33333 -0.21667,-0.68333 -0.35,-1.05c-0.23333,-0.36667 -0.46667,-0.73333 -0.7,-1.1c0,-0.33333 0,-0.68333 0,-1.05c0,-0.36667 0,-0.71667 0,-1.05c0,-0.36667 0,-0.73333 0,-1.1c0,-0.36667 0,-0.71667 0,-1.05c0,-0.36667 0,-0.73333 0,-1.1c0,-0.33333 0,-0.68333 0,-1.05c0,-0.36667 0,-0.73333 0,-1.1c-0.23333,-0.33333 -0.48333,-0.68333 -0.75,-1.05c-0.01354,-0.04961 -0.03021,-0.09961 -0.05,-0.15c-0.21745,0.16367 -0.43411,0.33034 -0.65,0.5c-0.23333,0.23333 -0.46667,0.46667 -0.7,0.7c-0.6,0.26667 -1.2,0.51667 -1.8,0.75c-0.36667,0.33333 -0.71667,0.68333 -1.05,1.05c-0.36667,0.23333 -0.73333,0.46667 -1.1,0.7c-0.1,0.13333 -0.23333,0.23333 -0.4,0.3c-0.66667,0.3 -1.36667,0.56667 -2.1,0.8c-0.23333,0.23333 -0.46667,0.46667 -0.7,0.7c-0.6,0.13333 -1.2,0.25 -1.8,0.35c-1.53333,0.23333 -3.08333,0.48333 -4.65,0.75c0,0.33333 0,0.68333 0,1.05c0,0.36667 0,0.71667 0,1.05c0,0.36667 0,0.73333 0,1.1c0.13333,0.36667 0.26667,0.71667 0.4,1.05c0.23333,0.36667 0.46667,0.73333 0.7,1.1c0.1,0.33333 0.21667,0.68333 0.35,1.05c0,0.36667 0,0.73333 0,1.1c0,0.33333 0,0.68333 0,1.05c0,0.36667 0,0.71667 0,1.05c0,0.36667 0,0.73333 0,1.1c0,0.36667 0,0.71667 0,1.05c0,0.36667 0,0.73333 0,1.1c0,0.33333 0,0.68333 0,1.05c0,0.36667 0,0.73333 0,1.1c0.23333,0.33333 0.46667,0.68333 0.7,1.05c0.13333,0.36667 0.25,0.71667 0.35,1.05c0.13333,0.36667 0.26667,0.73333 0.4,1.1c0,0.36667 0,0.71667 0,1.05c0,0.36667 0,0.73333 0,1.1c0,0.33333 0,0.68333 0,1.05c0,0.36667 0,0.73333 0,1.1c-0.13333,0.33333 -0.26667,0.68333 -0.4,1.05c-0.1,0.36667 -0.21667,0.71667 -0.35,1.05c-0.23333,0.36667 -0.46667,0.73333 -0.7,1.1c0,0.36667 0,0.71667 0,1.05c0,0.36667 0,0.73333 0,1.1c0,0.33333 0,0.68333 0,1.05c-0.23333,0.36667 -0.46667,0.73333 -0.7,1.1c-0.23333,0.33333 -0.48333,0.68333 -0.75,1.05c-0.23333,0.23333 -0.46667,0.46667 -0.7,0.7c-0.6,0.13333 -1.2,0.25 -1.8,0.35c-1.66667,0.26667 -3.33333,0.51667 -5,0.75c-0.83333,0.33333 -1.66667,0.68333 -2.5,1.05c-0.23333,0.23333 -0.46667,0.46667 -0.7,0.7c-0.6,0.13333 -1.18333,0.28333 -1.75,0.45c-0.73333,0.2 -1.45,0.41667 -2.15,0.65c-0.73333,0.23333 -1.45,0.46667 -2.15,0.7c-1.66667,0.23333 -3.33333,0.46667 -5,0.7c-0.73333,0.26667 -1.45,0.48333 -2.15,0.65c-1.9,0.53333 -3.8,1.03333 -5.7,1.5c-1.9,0.5 -3.81667,0.98333 -5.75,1.45c-3.33333,0 -6.66667,-0.05 -10,-0.15c-0.93333,-0.03333 -1.88333,-0.1 -2.85,-0.2c-0.7,-0.23333 -1.41667,-0.48333 -2.15,-0.75c-0.33333,-0.33333 -0.68333,-0.68333 -1.05,-1.05c-0.36667,-0.36667 -0.71667,-0.71667 -1.05,-1.05c-0.26667,-0.36667 -0.51667,-0.73333 -0.75,-1.1c-0.1,-0.36667 -0.21667,-0.71667 -0.35,-1.05c-0.23333,-0.36667 -0.46667,-0.73333 -0.7,-1.1c-0.13333,-0.33333 -0.25,-0.68333 -0.35,-1.05c-0.13333,-0.36667 -0.25,-0.73333 -0.35,-1.1c-0.36667,-0.33333 -0.73333,-0.68333 -1.1,-1.05c0,-0.36667 0,-0.71667 0,-1.05c0,-0.36667 0,-0.73333 0,-1.1c-0.1,-0.36667 -0.21667,-0.71667 -0.35,-1.05c-0.36667,-0.36667 -0.71667,-0.73333 -1.05,-1.1c0,-0.33333 0,-0.68333 0,-1.05c0,-0.36667 0,-0.73333 0,-1.1c-0.13333,-0.33333 -0.26667,-0.68333 -0.4,-1.05c-0.33333,-0.36667 -0.68333,-0.71667 -1.05,-1.05c0,-0.36667 0,-0.73333 0,-1.1c0,-0.36667 0,-0.71667 0,-1.05c-0.13333,-0.36667 -0.25,-0.73333 -0.35,-1.1c-0.36667,-0.33333 -0.73333,-0.68333 -1.1,-1.05c0,-0.36667 0,-0.73333 0,-1.1c0,-0.33333 0,-0.68333 0,-1.05c-0.0194,-0.07135 -0.03607,-0.13802 -0.05,-0.2c-0.10273,0.06198 -0.20273,0.12865 -0.3,0.2c-0.33333,0.36667 -0.68333,0.71667 -1.05,1.05c-0.36667,0.36667 -0.73333,0.73333 -1.1,1.1c-0.33333,0.36667 -0.68333,0.71667 -1.05,1.05c-0.13333,0.36667 -0.25,0.73333 -0.35,1.1c-0.23333,0.33333 -0.46667,0.68333 -0.7,1.05c-0.26667,0.36667 -0.51667,0.73333 -0.75,1.1c-0.46667,0.33333 -0.93333,0.68333 -1.4,1.05c-0.23333,0.36667 -0.48333,0.71667 -0.75,1.05c-0.33333,0.36667 -0.68333,0.73333 -1.05,1.1c-0.36667,0.36667 -0.71667,0.71667 -1.05,1.05c-0.26667,0.36667 -0.51667,0.73333 -0.75,1.1c-0.33333,0.33333 -0.68333,0.68333 -1.05,1.05c-0.46667,0.36667 -0.95,0.73333 -1.45,1.1c-0.33333,0.33333 -0.68333,0.68333 -1.05,1.05c-0.36667,0.36667 -0.73333,0.71667 -1.1,1.05c-0.23333,0.26667 -0.46667,0.51667 -0.7,0.75c-0.1,0.1 -0.23333,0.18333 -0.4,0.25c-0.66667,0.3 -1.36667,0.56667 -2.1,0.8c-0.23333,0.23333 -0.46667,0.46667 -0.7,0.7c-0.73333,0.26667 -1.45,0.51667 -2.15,0.75c-0.23333,0.23333 -0.46667,0.46667 -0.7,0.7c-0.73333,0.23333 -1.45,0.46667 -2.15,0.7c-0.23333,0.23333 -0.46667,0.48333 -0.7,0.75c-0.6,0.1 -1.2,0.23333 -1.8,0.4c-0.7,0.2 -1.41667,0.41667 -2.15,0.65c-0.7,0.23333 -1.41667,0.46667 -2.15,0.7c-0.7,0.23333 -1.4,0.48333 -2.1,0.75c-0.86667,0.33333 -1.71667,0.68333 -2.55,1.05c-0.23333,0.23333 -0.46667,0.46667 -0.7,0.7c-0.6,0.13333 -1.2,0.25 -1.8,0.35c-1.16667,0.26667 -2.35,0.53333 -3.55,0.8c-1.9,0.43333 -3.8,0.9 -5.7,1.4c-0.73333,0.2 -1.45,0.43333 -2.15,0.7c-5.73333,0 -11.45,0 -17.15,0c-0.83333,-0.26667 -1.66667,-0.53333 -2.5,-0.8c-0.6,-0.2 -1.2,-0.4 -1.8,-0.6c-1.43333,-0.5 -2.85,-1 -4.25,-1.5c-1.43333,-0.46667 -2.86667,-0.93333 -4.3,-1.4c-0.83333,-0.23333 -1.66667,-0.46667 -2.5,-0.7c-0.13333,-0.26667 -0.25,-0.51667 -0.35,-0.75c-0.83333,-0.23333 -1.66667,-0.46667 -2.5,-0.7c-0.13333,-0.23333 -0.25,-0.46667 -0.35,-0.7c-0.83333,-0.23333 -1.66667,-0.48333 -2.5,-0.75c-0.26667,-0.33333 -0.51667,-0.68333 -0.75,-1.05c-0.46667,-0.36667 -0.93333,-0.71667 -1.4,-1.05c-0.36667,-0.36667 -0.73333,-0.73333 -1.1,-1.1c-0.33333,-0.36667 -0.68333,-0.71667 -1.05,-1.05c-0.36667,-0.36667 -0.73333,-0.73333 -1.1,-1.1c-0.23333,-0.23333 -0.46667,-0.46667 -0.7,-0.7c-0.1,-0.13333 -0.23333,-0.21667 -0.4,-0.25c-0.66667,-0.3 -1.36667,-0.56667 -2.1,-0.8c-0.23333,-0.36667 -0.46667,-0.73333 -0.7,-1.1c-0.46667,-0.36667 -0.95,-0.71667 -1.45,-1.05c-0.33333,-0.36667 -0.68333,-0.73333 -1.05,-1.1c-0.36667,-0.33333 -0.71667,-0.68333 -1.05,-1.05c-0.36667,-0.36667 -0.73333,-0.73333 -1.1,-1.1c-0.36667,-0.33333 -0.71667,-0.68333 -1.05,-1.05c-0.36667,-0.36667 -0.73333,-0.71667 -1.1,-1.05c-0.33333,-0.36667 -0.68333,-0.73333 -1.05,-1.1c-0.23333,-0.36667 -0.46667,-0.71667 -0.7,-1.05c-0.26667,-0.36667 -0.51667,-0.73333 -0.75,-1.1c-0.1,-0.33333 -0.21667,-0.68333 -0.35,-1.05c-0.36667,-0.36667 -0.71667,-0.73333 -1.05,-1.1c-0.23333,-0.33333 -0.48333,-0.68333 -0.75,-1.05c-0.23333,-0.36667 -0.46667,-0.71667 -0.7,-1.05c-0.1,-0.36667 -0.21667,-0.73333 -0.35,-1.1c-0.36667,-0.36667 -0.71667,-0.71667 -1.05,-1.05c-0.26667,-0.36667 -0.51667,-0.73333 -0.75,-1.1c-0.23333,-0.33333 -0.46667,-0.68333 -0.7,-1.05c-0.13333,-0.36667 -0.25,-0.73333 -0.35,-1.1c-0.36667,-0.33333 -0.73333,-0.68333 -1.1,-1.05c-0.23333,-0.36667 -0.46667,-0.71667 -0.7,-1.05c-0.23333,-0.36667 -0.46667,-0.73333 -0.7,-1.1c0,-0.36667 0,-0.71667 0,-1.05c-0.13333,-0.36667 -0.25,-0.73333 -0.35,-1.1c-0.13333,-0.33333 -0.25,-0.68333 -0.35,-1.05c-0.26667,-0.36667 -0.51667,-0.73333 -0.75,-1.1c-0.1,-0.33333 -0.21667,-0.68333 -0.35,-1.05c-0.23333,-0.36667 -0.46667,-0.71667 -0.7,-1.05c-0.13333,-0.36667 -0.25,-0.73333 -0.35,-1.1c0,-0.36667 0,-0.71667 0,-1.05c-0.13333,-0.36667 -0.25,-0.73333 -0.35,-1.1c-0.26667,-0.33333 -0.51667,-0.68333 -0.75,-1.05c-0.1,-0.36667 -0.21667,-0.73333 -0.35,-1.1c0,-0.33333 0,-0.68333 0,-1.05c-0.1,-0.36667 -0.21667,-0.71667 -0.35,-1.05c-0.23333,-0.36667 -0.46667,-0.73333 -0.7,-1.1c-0.13333,-0.36667 -0.25,-0.71667 -0.35,-1.05c0,-0.36667 0,-0.73333 0,-1.1c0,-0.33333 0,-0.68333 0,-1.05c0,-0.36667 0,-0.73333 0,-1.1c0,-0.33333 0,-0.68333 0,-1.05c0,-0.36667 0,-0.71667 0,-1.05c-0.13333,-0.36667 -0.26667,-0.73333 -0.4,-1.1c-0.23333,-0.36667 -0.46667,-0.71667 -0.7,-1.05c-0.1,-0.36667 -0.21667,-0.73333 -0.35,-1.1c0,-0.33333 0,-0.68333 0,-1.05c0,-0.36667 0,-0.71667 0,-1.05c0,-1.1 0,-2.18333 0,-3.25c0,-1.06667 0,-2.13333 0,-3.2c0,-0.7 0,-1.41667 0,-2.15c0,-0.7 0,-1.41667 0,-2.15c0,-1.06667 0,-2.13333 0,-3.2c0,-0.7 0,-1.41667 0,-2.15c0,-0.7 0,-1.41667 0,-2.15c0.23333,-0.33333 0.46667,-0.68333 0.7,-1.05c0.13333,-0.36667 0.25,-0.73333 0.35,-1.1c0.13333,-0.33333 0.26667,-0.68333 0.4,-1.05c0,-0.36667 0,-0.71667 0,-1.05c0,-0.36667 0,-0.73333 0,-1.1c0,-0.36667 0,-0.71667 0,-1.05c0,-0.36667 0,-0.73333 0,-1.1c0,-0.33333 0,-0.68333 0,-1.05c0.23333,-0.36667 0.46667,-0.73333 0.7,-1.1c0.1,-0.33333 0.21667,-0.68333 0.35,-1.05c0.13333,-0.36667 0.25,-0.71667 0.35,-1.05c0,-0.36667 0,-0.73333 0,-1.1c0.23333,-0.36667 0.46667,-0.71667 0.7,-1.05c0.13333,-0.36667 0.26667,-0.73333 0.4,-1.1c0.1,-0.33333 0.21667,-0.68333 0.35,-1.05c0.23333,-0.36667 0.46667,-0.73333 0.7,-1.1c0.23333,-0.33333 0.46667,-0.68333 0.7,-1.05c0,-0.36667 0,-0.71667 0,-1.05c0,-0.36667 0,-0.73333 0,-1.1c0.23333,-0.36667 0.48333,-0.71667 0.75,-1.05c0.23333,-0.36667 0.46667,-0.73333 0.7,-1.1c0,-0.33333 0,-0.68333 0,-1.05c0,-0.36667 0,-0.73333 0,-1.1c0.23333,-0.33333 0.46667,-0.68333 0.7,-1.05c0.23333,-0.36667 0.46667,-0.71667 0.7,-1.05c0,-0.36667 0,-0.73333 0,-1.1c0,-0.36667 0,-0.71667 0,-1.05c0.26667,-0.36667 0.51667,-0.73333 0.75,-1.1c0.23333,-0.33333 0.46667,-0.68333 0.7,-1.05c0.13333,-0.36667 0.25,-0.73333 0.35,-1.1c0.23333,-0.33333 0.46667,-0.68333 0.7,-1.05c0.13333,-0.36667 0.26667,-0.71667 0.4,-1.05c0.23333,-0.36667 0.46667,-0.73333 0.7,-1.1c0.1,-0.36667 0.21667,-0.71667 0.35,-1.05c0.13333,-0.36667 0.25,-0.73333 0.35,-1.1c0.23333,-0.33333 0.46667,-0.68333 0.7,-1.05c0.36667,-0.36667 0.73333,-0.73333 1.1,-1.1c0.36667,-0.33333 0.71667,-0.68333 1.05,-1.05c0.36667,-0.36667 0.73333,-0.71667 1.1,-1.05c0.33333,-0.36667 0.68333,-0.73333 1.05,-1.1c0.36667,-0.36667 0.73333,-0.71667 1.1,-1.05c0.23333,-0.36667 0.46667,-0.73333 0.7,-1.1c0.1,-0.33333 0.21667,-0.68333 0.35,-1.05c0.23333,-0.36667 0.46667,-0.71667 0.7,-1.05c0.5,-0.36667 0.98333,-0.73333 1.45,-1.1c0.36667,-0.36667 0.71667,-0.71667 1.05,-1.05c0.23333,-0.36667 0.48333,-0.73333 0.75,-1.1c0.33333,-0.33333 0.68333,-0.68333 1.05,-1.05c0.36667,-0.36667 0.71667,-0.73333 1.05,-1.1c0.36667,-0.33333 0.73333,-0.68333 1.1,-1.05c0.33333,-0.36667 0.68333,-0.71667 1.05,-1.05c0.36667,-0.26667 0.73333,-0.51667 1.1,-0.75c0.56667,-0.23333 1.15,-0.46667 1.75,-0.7c0.36667,-0.36667 0.73333,-0.71667 1.1,-1.05c0.33333,-0.26667 0.68333,-0.51667 1.05,-0.75c0.13333,-0.1 0.26667,-0.18333 0.4,-0.25z" fill="#000000"/><path d="M454.30586,350.25631c5.03333,20.3 -0.13333,37.58333 -15.5,51.85c-1.8,1.8 -3.73333,3.51667 -5.8,5.15c-10.03333,8 -21.38333,11.35 -34.05,10.05c-20.36667,-2.23333 -33.6,-13.18333 -39.7,-32.85c-3.63333,-11.8 -4.6,-23.86667 -2.9,-36.2c2.16667,-15.9 9.81667,-28.21667 22.95,-36.95c3.1,-2.06667 6.46667,-3.33333 10.1,-3.8c19.6,-2.53333 36.48333,3.26667 50.65,17.4c7.1,7.13333 11.85,15.58333 14.25,25.35M397.95586,343.85631c-1.66667,-0.16667 -3,0.26667 -4,1.3c-7.3,7.66667 -8.45,16.56667 -3.45,26.7c3.16667,6.4 8.18333,8.9 15.05,7.5c3.63333,-0.7 5.93333,-2.85 6.9,-6.45c3.3,-12.53333 -0.68333,-22.01667 -11.95,-28.45c-0.86667,-0.2 -1.71667,-0.4 -2.55,-0.6M536.45586,352.80631c-0.86667,2.5 -2.35,4.5 -4.45,6c-11.43333,7.93333 -24.16667,12.91667 -38.2,14.95l15.9,36.45l-2.95,3.15l-37.35,0.05c-0.5,-1.6 -1.01667,-3.21667 -1.55,-4.85c-2.76667,-8.2 -4.75,-16.65 -5.95,-25.35c-2.26667,-16.3 -3.46667,-32.71667 -3.6,-49.25l-16.5,-19.2l0.05,-3c6.1,-0.43333 12.38333,-0.6 18.85,-0.5c19.36667,0.3 37.93333,4.06667 55.7,11.3c11.46667,4.66667 18.4,12.83333 20.8,24.5c0.1,2 -0.15,3.91667 -0.75,5.75M492.55586,347.65631l12.95,-2.9c-3.76667,-4.3 -8.6,-6.23333 -14.5,-5.8l1.55,8.7M612.65586,358.60631l-28.85,0.8c-0.06667,0.56667 -0.05,1.11667 0.05,1.65c3.23333,14.5 6.13333,29.06667 8.7,43.7c0.26667,1.46667 -0.03333,2.78333 -0.9,3.95c-11.6,2.26667 -23.4,2.28333 -35.4,0.05c-1.13333,-1.13333 -1.76667,-2.45 -1.9,-3.95c-1.43333,-16.76667 -0.3,-33.48333 3.4,-50.15l-14.3,-1.2c-1.4,-1.23333 -2.26667,-2.81667 -2.6,-4.75c-0.46667,-2.83333 -0.8,-5.73333 -1,-8.7c-0.5,-7.96667 -1.5,-15.63333 -3,-23c0.3,-0.53333 0.78333,-0.78333 1.45,-0.75c16.1,-1.83333 32.38333,-1.7 48.85,0.4c3.33333,0.33333 6.68333,0.6 10.05,0.8c7.3,-0.7 12.46667,1.71667 15.5,7.25l2.45,31.75l-2.5,2.15M610.35586,399.95631c0.36667,-7.86667 1.91667,-15.46667 4.65,-22.8c2.26667,-6.1 5.76667,-7.55 10.5,-4.35c5.2,-1.63333 10.15,-1.16667 14.85,1.4c1.56667,0.83333 2.66667,2.05 3.3,3.65c3.43333,8.73333 4.53333,17.93333 3.3,27.6c-0.46667,3.5 -2.28333,5.35 -5.45,5.55c-4.6,0.5 -9.13333,0.71667 -13.6,0.65c-7.4,-0.13333 -13.45,-2.55 -18.15,-7.25l0.6,-4.45M644.35586,352.50631c-3.9,6 -9.7,8.15 -17.4,6.45c-1.73333,-0.3 -3.23333,-1.05 -4.5,-2.25c-5.83333,-5.56667 -6.58333,-12.01667 -2.25,-19.35c3.3,-5.56667 7.76667,-7.25 13.4,-5.05c1.33333,0.53333 2.66667,1.13333 4,1.8c5.4,2.8 8.18333,6.93333 8.35,12.4c0.1,2.26667 -0.43333,4.26667 -1.6,6M717.45586,329.20631c14.23333,10.83333 19.41667,25 15.55,42.5c-1.66667,6.9 -4.5,13.3 -8.5,19.2c-9.6,14.23333 -23.05,20.65 -40.35,19.25c-4.23333,-0.3 -8.18333,-1.51667 -11.85,-3.65c-13.13333,-7.53333 -20.33333,-19.11667 -21.6,-34.75c-0.7,-8.43333 0.53333,-16.55 3.7,-24.35c6.76667,-16.7 19.23333,-25.46667 37.4,-26.3c9.46667,-0.33333 18.01667,2.36667 25.65,8.1M681.25586,350.70631c-7.23333,9.33333 -6.93333,18.11667 0.9,26.35c1.16667,1.2 2.56667,1.95 4.2,2.25c8.73333,1.8 13.71667,-1.5 14.95,-9.9c0.23333,-1.7 0.03333,-3.26667 -0.6,-4.7c-3.23333,-7.4 -8.61667,-12.91667 -16.15,-16.55c-1.3,0.53333 -2.4,1.38333 -3.3,2.55M825.95586,317.15631c0.7,23.6 1.45,47.2 2.25,70.8c0.1,2.53333 0.5,5.05 1.2,7.55c2.26667,8.4 0.63333,15.6 -4.9,21.6l-27.65,-1.8l-24.3,-33.05l3.45,24.2l-3.15,2.7l-32.55,-0.25c-1.43333,-8.13333 -2,-16.66667 -1.7,-25.6c0.63333,-19.13333 1.71667,-37.86667 3.25,-56.2l31.6,-5.65l18.1,32.4c-0.1,-5.06667 -0.36667,-10.73333 -0.8,-17c-0.43333,-6.23333 -0.63333,-12.48333 -0.6,-18.75c0,-2.8 1.25,-4.46667 3.75,-5c2.06667,-0.36667 4.11667,-0.38333 6.15,-0.05c4.63333,0.76667 9.3,1 14,0.7c4.86667,-0.46667 8.83333,0.66667 11.9,3.4M875.05586,345.35631c-3.16667,0.1 -5.03333,1.21667 -5.6,3.35c0.23333,0.33333 0.46667,0.68333 0.7,1.05c12.3,0 24.28333,2 35.95,6c13.46667,4.53333 19.95,13.83333 19.45,27.9c-0.16667,16.73333 -8.48333,27.1 -24.95,31.1c-2.53333,0.6 -4.98333,0.88333 -7.35,0.85c-12.7,-0.16667 -25.33333,-1 -37.9,-2.5c-5.43333,-0.6 -10.58333,-2.01667 -15.45,-4.25c-2.2,-0.93333 -3.41667,-2.51667 -3.65,-4.75c-0.53333,-4.93333 -0.8,-9.85 -0.8,-14.75c0,-7.76667 2.56667,-14.08333 7.7,-18.95c0.96667,-0.03333 1.93333,-0.06667 2.9,-0.1c2.53333,0.26667 4.91667,0.98333 7.15,2.15c11.03333,5.6 22.65,6.75 34.85,3.45c-3.96667,-2.76667 -8.88333,-4.56667 -14.75,-5.4c-9.23333,-1.23333 -17.56667,-4.35 -25,-9.35c-4.3,-2.9 -6.46667,-6.93333 -6.5,-12.1c-0.03333,-15.6 7.35,-26.5 22.15,-32.7c7.66667,-3.16667 15.66667,-5.15 24,-5.95c10.06667,-1.1 19.16667,0.7 27.3,5.4l-4.85,35.6c-0.63333,0.33333 -1.31667,0.33333 -2.05,0c-10.7,-4.83333 -21.8,-6.85 -33.3,-6.05z" fill="#ffffff"/></g></g></svg>