<svg version="1.1" xmlns="http://www.w3.org/2000/svg" xmlns:xlink="http://www.w3.org/1999/xlink" width="50" height="63.75562" viewBox="0,0,50,63.75562"><g transform="translate(-615.49406,-319.48949)"><g data-paper-data="{&quot;isPaintingLayer&quot;:true}" fill-rule="nonzero" stroke="none" stroke-width="1" stroke-linecap="round" stroke-linejoin="miter" stroke-miterlimit="4" stroke-dasharray="" stroke-dashoffset="0" style="mix-blend-mode: normal"><path d="M655.89406,343.33949c-1.93333,3.13333 -5.61667,6.33333 -11.05,9.6c-7.53333,0.8 -15.06667,-0.35 -22.6,-3.45c-0.33333,-8.7 -0.2,-9.31667 0.4,-1.85c-0.36667,-9.9 -0.6,-19.28333 -0.7,-28.15h37.35c-0.03333,0.53333 -0.05,1.06667 -0.05,1.6c-0.03333,2.23333 -0.1,5.46667 -0.2,9.7c-0.03333,5.1 -1.08333,9.28333 -3.15,12.55z" fill="#12fa05"/><path d="M659.29406,319.48949h0.8c-0.03333,2.6 -0.08333,5.4 -0.15,8.4c-0.03333,2.3 -0.08333,5.68333 -0.15,10.15c-0.06667,5.4 -1.16667,9.8 -3.3,13.2c-2.06667,3.26667 -5.91667,6.61667 -11.55,10.05c-7.93333,0.86667 -15.88333,-0.33333 -23.85,-3.6c-0.36667,-9.1 -0.73333,-15.88333 -1.1,-20.35c0.13333,-4.76667 0.28333,-10.71667 0.45,-17.85h1.5c0.1,8.86667 0.33333,18.25 0.7,28.15c-0.6,-7.46667 -0.73333,-6.85 -0.4,1.85c7.53333,3.1 15.06667,4.25 22.6,3.45c5.43333,-3.26667 9.11667,-6.46667 11.05,-9.6c2.06667,-3.26667 3.11667,-7.45 3.15,-12.55c0.1,-4.23333 0.16667,-7.46667 0.2,-9.7c0,-0.53333 0.01667,-1.06667 0.05,-1.6z" fill="#ffffff"/><path d="M665.49406,361.68949c-3.26667,11.66667 -9.93333,18.71667 -20,21.15c-9.1,1.26667 -18.26667,-0.43333 -27.5,-5.1c-0.93333,-2.53333 -1.76667,-5.2 -2.5,-8v-50.25h4.95c-0.16667,7.13333 -0.31667,13.08333 -0.45,17.85c0.36667,4.46667 0.73333,11.25 1.1,20.35c7.96667,3.26667 15.91667,4.46667 23.85,3.6c5.63333,-3.43333 9.48333,-6.78333 11.55,-10.05c2.13333,-3.4 3.23333,-7.8 3.3,-13.2c0.06667,-4.46667 0.11667,-7.85 0.15,-10.15c0.06667,-3 0.11667,-5.8 0.15,-8.4h5.4z" fill="#0a4447"/></g></g></svg>