<svg version="1.1" xmlns="http://www.w3.org/2000/svg" xmlns:xlink="http://www.w3.org/1999/xlink" width="54.07228" height="64.0863" viewBox="0,0,54.07228,64.0863"><g transform="translate(-606.43411,-338.89784)"><g data-paper-data="{&quot;isPaintingLayer&quot;:true}" fill-rule="nonzero" stroke="none" stroke-width="1" stroke-linecap="butt" stroke-linejoin="miter" stroke-miterlimit="10" stroke-dasharray="" stroke-dashoffset="0" style="mix-blend-mode: normal"><path d="M658.40661,378.83784c2,8.96667 -1.33333,15.8 -10,20.5c-9.6,5.23333 -18.83333,4.83333 -27.7,-1.2c-5.66667,-3.83333 -9.7,-8.78333 -12.1,-14.85c-0.4,-0.46667 -0.68333,-1.01667 -0.85,-1.65c-1.53333,-5.23333 -1.73333,-10.6 -0.6,-16.1c1.13333,-5.8 3.63333,-11.01667 7.5,-15.65c3.7,-4.46667 8.25,-7.56667 13.65,-9.3c12,-3.9 21.9,-1.05 29.7,8.55c3.56667,4.8 3.31667,9.28333 -0.75,13.45c-2.7,2.83333 -5.3,3.18333 -7.8,1.05c-2.66667,-2.2 -5.66667,-3.71667 -9,-4.55c-8.46667,-2.2 -13.95,0.95 -16.45,9.45c-0.06667,1.9 0.1,3.78333 0.5,5.65c0.53333,2.63333 1.93333,4.51667 4.2,5.65c6.3,3 12.01667,1.53333 17.15,-4.4c0.6,-0.66667 1.25,-1.23333 1.95,-1.7c5.46667,-3.8 9,-2.1 10.6,5.1M618.75661,355.63784c-7.9,11.16667 -7.93333,22.06667 -0.1,32.7c6.66667,9.06667 15.15,11.23333 25.45,6.5c8.2,-3.8 10.81667,-9.26667 7.85,-16.4c-3.8,4.13333 -8.38333,6.98333 -13.75,8.55c-9.1,2.53333 -15.36667,-0.23333 -18.8,-8.3c-2.73333,-6.43333 -1.98333,-12.33333 2.25,-17.7c9.26667,-11.63333 19.31667,-12.65 30.15,-3.05l2.25,-2.55c-0.06667,-0.1 -0.11667,-0.2 -0.15,-0.3c-0.56667,-2.26667 -1.58333,-4.35 -3.05,-6.25c-0.06667,-0.06667 -0.11667,-0.11667 -0.15,-0.15c-12.56667,-7.66667 -23.21667,-5.35 -31.95,6.95z" fill="#000000"/><path d="M653.90661,355.08784c0.03333,0.1 0.08333,0.2 0.15,0.3l-2.25,2.55c-10.83333,-9.6 -20.88333,-8.58333 -30.15,3.05c-4.23333,5.36667 -4.98333,11.26667 -2.25,17.7c3.43333,8.06667 9.7,10.83333 18.8,8.3c5.36667,-1.56667 9.95,-4.41667 13.75,-8.55c2.96667,7.13333 0.35,12.6 -7.85,16.4c-10.3,4.73333 -18.78333,2.56667 -25.45,-6.5c-7.83333,-10.63333 -7.8,-21.53333 0.1,-32.7c8.73333,-12.3 19.38333,-14.61667 31.95,-6.95c0.03333,0.03333 0.08333,0.08333 0.15,0.15c1.46667,1.9 2.48333,3.98333 3.05,6.25z" fill="#ffffff"/></g></g></svg>