<svg version="1.1" xmlns="http://www.w3.org/2000/svg" xmlns:xlink="http://www.w3.org/1999/xlink" width="360.65" height="86.8165" viewBox="0,0,360.65,86.8165"><g transform="translate(-459.675,-316.59175)"><g data-paper-data="{&quot;isPaintingLayer&quot;:true}" fill="#ffffff" fill-rule="nonzero" stroke="none" stroke-width="1" stroke-linecap="butt" stroke-linejoin="miter" stroke-miterlimit="10" stroke-dasharray="" stroke-dashoffset="0" style="mix-blend-mode: normal"><path d="M549.275,332.55825c1.8,0.33333 2.7,1.28333 2.7,2.85c-9.2,39.5 -15.38333,59.25 -18.55,59.25c-0.2,0 -0.4,0 -0.6,0c-0.4,0.26667 -0.91667,0.5 -1.55,0.7c-2.9,0.93333 -8.4,1.4 -16.5,1.4c-0.73333,0 -1.66667,-0.03333 -2.8,-0.1l-1.45,-0.1c-0.06667,-0.06667 -0.11667,-0.11667 -0.15,-0.15c-0.13333,0.1 -0.31667,0.21667 -0.55,0.35c-1.23333,-1.8 -2.36667,-4.48333 -3.4,-8.05c-1.03333,-4 -1.8,-6.8 -2.3,-8.4c-0.96667,1.56667 -1.81667,4.88333 -2.55,9.95c-0.2,1.43333 -0.33333,2.26667 -0.4,2.5c-0.3,0.93333 -0.8,1.68333 -1.5,2.25c-2.96667,0.16667 -5.96667,0.33333 -9,0.5c-6.1,0.36667 -9.61667,0.78333 -10.55,1.25c-0.23333,0.16667 -0.46667,0.3 -0.7,0.4c-0.43333,0.2 -1.01667,0.3 -1.75,0.3c-2.23333,0 -4.4,-4.43333 -6.5,-13.3c-0.16667,-0.73333 -1.46667,-7.68333 -3.9,-20.85c-0.06667,-0.43333 -1.25,-6.25 -3.55,-17.45c-0.76667,-3.73333 -1.38333,-6.83333 -1.85,-9.3c-0.03333,0 -0.05,-0.01667 -0.05,-0.05c-1.43333,-3.53333 -2.15,-6.08333 -2.15,-7.65c0,-1.16667 1.11667,-2.26667 3.35,-3.3c2.16667,-0.96667 4.66667,-1.6 7.5,-1.9c4.23333,-0.4 7.88333,-1.2 10.95,-2.4c1.9,-0.76667 3.9,-0.86667 6,-0.3c0.9,1.83333 1.6,3.95 2.1,6.35c0.26667,1.4 0.65,3.56667 1.15,6.5c0.63333,3.16667 1.31667,7.43333 2.05,12.8c0.83333,5.96667 1.51667,10.45 2.05,13.45v0.8c1.43333,-3.8 2.7,-7.03333 3.8,-9.7c2.1,-5.06667 3.81667,-7.6 5.15,-7.6c1.66667,0 3.8,3.76667 6.4,11.3c0.56667,1.7 1.11667,3.41667 1.65,5.15c0.9,-2.33333 2.01667,-5.71667 3.35,-10.15c1.73333,-5.76667 3.15,-9.85 4.25,-12.25c0.76667,-2.96667 1.36667,-5.2 1.8,-6.7c0.83333,-2.7 2.28333,-4.2 4.35,-4.5c2.86667,0.3 5.31667,0.83333 7.35,1.6c3,1.16667 5.23333,1.93333 6.7,2.3c3.93333,0.96667 6.56667,1.66667 7.9,2.1c0.56667,0.06667 1.15,0.11667 1.75,0.15M504.125,350.10825c-0.66667,2.56667 -2.1,6.05 -4.3,10.45c-1.26667,2.5 -3.16667,6.21667 -5.7,11.15c-1.53333,-2.66667 -2.8,-6.46667 -3.8,-11.4c-0.9,-5.4 -1.61667,-9.21667 -2.15,-11.45c-0.86667,-4.73333 -1.63333,-8.73333 -2.3,-12c-1.23333,-6.26667 -2.15,-9.4 -2.75,-9.4c-9.53333,1.53333 -15.46667,2.61667 -17.8,3.25c0.1,0.36667 0.16667,0.76667 0.2,1.2c0.13333,0.96667 0.4,2.4 0.8,4.3c0.43333,2.06667 0.71667,3.48333 0.85,4.25c0.26667,1.7 0.86667,4.43333 1.8,8.2c1.1,4.53333 1.76667,7.35 2,8.45c1.83333,9.46667 3.23333,16.25 4.2,20.35c2.06667,8.66667 3.7,13 4.9,13c0.6,0 1.73333,-0.1 3.4,-0.3c2.8,-0.26667 7.11667,-0.46667 12.95,-0.6c0.73333,-1.96667 1.76667,-4.93333 3.1,-8.9c1.5,-4.53333 2.53333,-7.56667 3.1,-9.1l1.5,-0.35c0.26667,0.46667 0.55,1.08333 0.85,1.85c0.13333,-0.1 0.31667,-0.2 0.55,-0.3c0.8,1.33333 2.08333,4.93333 3.85,10.8c1.53333,5.16667 2.51667,7.75 2.95,7.75c0.4,0 1.66667,-0.15 3.8,-0.45c2.76667,-0.36667 5.91667,-0.68333 9.45,-0.95h5.25c0.53333,-4 3.06667,-13.11667 7.6,-27.35c4.06667,-12.3 6.7,-20.36667 7.9,-24.2c-11.16667,-3.56667 -17.45,-5.6 -18.85,-6.1c-0.66667,1.56667 -3.08333,7.75 -7.25,18.55c-2.4,6.26667 -4.61667,11.46667 -6.65,15.6c0,1.13333 -0.06667,1.81667 -0.2,2.05c0,0.13333 -0.03333,0.25 -0.1,0.35c-0.13333,0.2 -0.5,0.31667 -1.1,0.35c-0.06667,0.1 -0.13333,0.2 -0.2,0.3c-0.16667,-0.13333 -0.35,-0.31667 -0.55,-0.55c-0.83333,-0.8 -1.98333,-3.2 -3.45,-7.2c-0.73333,-2 -2.01667,-5.86667 -3.85,-11.6M596.975,327.15825c0,1.16667 -0.41667,6.28333 -1.25,15.35v7.4c0.93333,1.73333 1,2.93333 0.2,3.6c-1.4,1.23333 -6.53333,1.41667 -15.4,0.55l-2.65,0.15c0.13333,0.7 0.2,2.06667 0.2,4.1v0.2c4.16667,-0.93333 7.13333,-1.4 8.9,-1.4c1.5,0 2.4,1.36667 2.7,4.1c0.13333,1.4 0.11667,2.8 -0.05,4.2c0.33333,2.23333 0.1,4.28333 -0.7,6.15c-1.63333,3.73333 -5.31667,4.8 -11.05,3.2c0.06667,0.36667 0.15,0.9 0.25,1.6c0.13333,0.6 0.35,1.11667 0.65,1.55l0.95,0.15c0.76667,0.1 1.51667,0.15 2.25,0.15c0.86667,0 2.93333,-0.2 6.2,-0.6c3.26667,-0.43333 5.16667,-0.73333 5.7,-0.9c0.43333,-0.1 0.95,-0.3 1.55,-0.6c0.56667,-0.2 1.2,-0.3 1.9,-0.3c1.23333,0 2.08333,0.4 2.55,1.2c0.2,0.36667 0.3,0.81667 0.3,1.35c0,0.6 -0.21667,3.26667 -0.65,8c-0.43333,4.76667 -0.65,7.43333 -0.65,8c0,1.83333 -0.88333,2.86667 -2.65,3.1c-0.66667,0.1 -5.18333,0.15 -13.55,0.15c-1.2,0 -5.78333,-0.16667 -13.75,-0.5c-8.9,-0.4 -15.75,-0.75 -20.55,-1.05c-1.8,-1.4 -2.7,-2.6 -2.7,-3.6c0,-0.66667 0.95,-5.6 2.85,-14.8c2.1,-10.13333 3.36667,-16.28333 3.8,-18.45c1.1,-7.16667 1.96667,-12.61667 2.6,-16.35c0.63333,-3.66667 1.41667,-6.88333 2.35,-9.65c0.06667,-2.2 0.08333,-3.95 0.05,-5.25c0,-1.7 0.4,-2.91667 1.2,-3.65c0.6,-0.53333 3.83333,-0.96667 9.7,-1.3c3.16667,-0.16667 7.26667,-0.35 12.3,-0.55c0,-0.13333 0.6,-0.21667 1.8,-0.25c1.9,-0.06667 6.08333,-0.1 12.55,-0.1c1,0.26667 1.73333,0.73333 2.2,1.4c0.26667,0.4 0.4,0.83333 0.4,1.3c0,0.9 -0.08333,1.43333 -0.25,1.6c-0.06667,0.06667 -0.15,0.13333 -0.25,0.2c0,0.16667 0,0.35 0,0.55M591.775,331.95825c0.16667,-1.76667 0.45,-3.26667 0.85,-4.5c-4.1,0.33333 -14.56667,0.8 -31.4,1.4c0.03333,0.03333 0.06667,0.08333 0.1,0.15c0.43333,0.7 0.65,1.13333 0.65,1.3c0,5.96667 -1.51667,16.83333 -4.55,32.6c-1.56667,8.2 -3.43333,17.38333 -5.6,27.55c4.9,0.1 15.16667,0.46667 30.8,1.1c1.16667,0 4.91667,-0.23333 11.25,-0.7l0.65,-1.1v-7.55c-3.7,0.1 -7.33333,0.31667 -10.9,0.65c-3.3,0.33333 -5.03333,0.5 -5.2,0.5c-1.6,0 -2.85,-1.6 -3.75,-4.8c-0.6,-3.2 -0.9,-4.83333 -0.9,-4.9c0,-1.23333 0.25,-1.96667 0.75,-2.2c1.33333,-0.56667 4.98333,-0.83333 10.95,-0.8l0.3,-0.85v-8.6c-0.4,0 -1.36667,0.13333 -2.9,0.4c-1.63333,0.26667 -2.65,0.48333 -3.05,0.65h-3.5c-1.7,-1.66667 -2.55,-4.81667 -2.55,-9.45c-0.1,-0.53333 -0.13333,-0.88333 -0.1,-1.05c0.06667,-0.3 0.41667,-0.53333 1.05,-0.7c1.03333,-0.26667 5.41667,-0.81667 13.15,-1.65c2.4,-0.26667 3.65,-0.78333 3.75,-1.55c-0.36667,-1 -0.55,-1.8 -0.55,-2.4c0,-3.9 0.11667,-6.93333 0.35,-9.1c0.13333,-1.86667 0.25,-3.33333 0.35,-4.4M654.625,328.30825c0,3.23333 -0.51667,7.35 -1.55,12.35c-1.33333,6.3 -2.88333,9.45 -4.65,9.45c-0.26667,0 -1.25,-0.2 -2.95,-0.6c-0.3,0.23333 -0.7,0.36667 -1.2,0.4c-0.96667,0.1 -4.66667,-0.06667 -11.1,-0.5c0.13333,0.53333 0.36667,1.46667 0.7,2.8c0.33333,1.33333 0.56667,2.55 0.7,3.65v0.35c1.26667,-0.33333 2.8,-0.65 4.6,-0.95c1.93333,-0.33333 3.31667,-0.5 4.15,-0.5c1.63333,0 2.86667,3.23333 3.7,9.7c0.4,3.23333 0.63333,6.53333 0.7,9.9c0,0.53333 -0.05,0.9 -0.15,1.1c-0.3,0.66667 -0.98333,1.13333 -2.05,1.4c-1.3,0 -2.65,0.01667 -4.05,0.05c-2.76667,0.03333 -4.33333,0.11667 -4.7,0.25c0.13333,0.56667 0.51667,1.96667 1.15,4.2c1.9,-0.06667 3.38333,-0.18333 4.45,-0.35c0.6,-0.1 1.18333,-0.21667 1.75,-0.35h9.25c1.2,0.9 2.15,3.9 2.85,9c0.5,3.63333 0.75,6.71667 0.75,9.25c0,0.76667 -0.25,1.43333 -0.75,2c-0.53333,0.56667 -1.25,0.9 -2.15,1h-19.25c-6.36667,-0.5 -12.95,-0.68333 -19.75,-0.55c-4.93333,0.06667 -7.86667,-0.06667 -8.8,-0.4c-1.36667,-0.46667 -2.1,-1.95 -2.2,-4.45c0.16667,-4.46667 0.25,-8.76667 0.25,-12.9c0.5,-21.33333 0.85,-37.36667 1.05,-48.1c0,-0.26667 0.01667,-0.51667 0.05,-0.75c-0.5,-2.46667 -0.75,-4.31667 -0.75,-5.55c0,-2.26667 2.18333,-3.2 6.55,-2.8l18.7,-0.35c12.2,-1.3 19.73333,-1.66667 22.6,-1.1c1.2,0.23333 1.9,0.66667 2.1,1.3c0,0.03333 0,0.71667 0,2.05M643.925,330.65825c-0.43333,0.13333 -2.66667,0.31667 -6.7,0.55c-4.03333,0.23333 -6.25,0.4 -6.65,0.5h-19.35l-1.25,0.1c0,2.5 0.06667,6.58333 0.2,12.25c0.06667,2.7 -0.01667,6.71667 -0.25,12.05c-0.23333,5.33333 -0.33333,9.33333 -0.3,12v27.3l0.2,0.3c1.6,-0.3 4.63333,-0.41667 9.1,-0.35c1.76667,0.03333 7.25,0.2 16.45,0.5h16v-8.05l-0.5,-1.55c-3.03333,0 -4.95,0.01667 -5.75,0.05c-0.7,0.03333 -1.3,0.13333 -1.8,0.3h-7.1c-1.53333,-0.93333 -2.81667,-2.96667 -3.85,-6.1c-0.73333,-2.26667 -1.1,-3.83333 -1.1,-4.7c0,-0.86667 0.13333,-1.45 0.4,-1.75c0.83333,-0.9 2.81667,-1.38333 5.95,-1.45c2.5,-0.03333 4.06667,-0.55 4.7,-1.55c0.2,-0.33333 0.3,-1.1 0.3,-2.3c0,-0.46667 -0.11667,-1.83333 -0.35,-4.1c-0.23333,-2.23333 -0.35,-3.9 -0.35,-5c-1.7,0.13333 -3.55,0.41667 -5.55,0.85c-1.76667,0.36667 -2.88333,0.55 -3.35,0.55c-0.73333,0 -1.4,-0.05 -2,-0.15l-0.65,-0.2c-0.16667,-0.63333 -0.16667,-1.4 0,-2.3c0.23333,-1.16667 0.35,-1.95 0.35,-2.35c0,-1.06667 -0.36667,-2.46667 -1.1,-4.2c-0.73333,-1.73333 -1.1,-3.1 -1.1,-4.1c0,-1.3 0.33333,-2.13333 1,-2.5c0.6,-0.33333 2,-0.5 4.2,-0.5c0.23333,0 0.56667,0.01667 1,0.05c0.36667,-0.16667 0.78333,-0.31667 1.25,-0.45c2.6,-0.73333 6.4,-0.83333 11.4,-0.3c0.26667,-0.83333 0.5,-2.01667 0.7,-3.55c0.23333,-2.06667 0.4,-3.38333 0.5,-3.95v-5.9h-4.65M724.775,336.90825c0,1 -3.31667,5.66667 -9.95,14c-3.86667,4.86667 -6.85,8.35 -8.95,10.45c0.06667,0.06667 0.13333,0.15 0.2,0.25c2.16667,2.93333 5.55,7.73333 10.15,14.4c1.4,3.16667 4.45,7.7 9.15,13.6c2.33333,2.93333 4.53333,5.56667 6.6,7.9c0,1.33333 -0.4,2.16667 -1.2,2.5c-0.73333,0.26667 -2.61667,0.4 -5.65,0.4l-21.05,-0.1c-2.6,-2.5 -5.3,-5.98333 -8.1,-10.45c-2.36667,-4 -4.21667,-7.08333 -5.55,-9.25c0.76667,4.5 1.51667,10.43333 2.25,17.8c0,0.46667 -0.15,0.91667 -0.45,1.35c-0.5,0.73333 -1.31667,1.21667 -2.45,1.45c-6.7,0 -12.4,0.08333 -17.1,0.25c-3.43333,0.16667 -5.45,0.25 -6.05,0.25c-3.03333,0 -4.76667,-2.6 -5.2,-7.8c0.1,-5.83333 0.1,-9.41667 0,-10.75c-0.06667,-1.26667 -0.31667,-4.3 -0.75,-9.1c-0.33333,-3.8 -0.51667,-6.83333 -0.55,-9.1c-0.13333,-4.6 -0.46667,-11.88333 -1,-21.85c-0.36667,-6.6 -0.6,-10.91667 -0.7,-12.95c-0.26667,-1.5 -0.4,-2.51667 -0.4,-3.05c0,-1.43333 0.6,-2.5 1.8,-3.2c0.9,-0.5 2.75,-1.05 5.55,-1.65c2.03333,-0.43333 6.31667,-1.36667 12.85,-2.8c2.9,-0.63333 4.63333,-0.95 5.2,-0.95c2.5,0 3.75,3.16667 3.75,9.5c0,3.4 -0.31667,8.01667 -0.95,13.85c1.2,-1.33333 2.4,-3.23333 3.6,-5.7c0.5,-1.03333 1.63333,-3.58333 3.4,-7.65c1.8,-4 3.76667,-7.2 5.9,-9.6c1.5,-1.66667 2.56667,-2.2 3.2,-1.6c0.86667,0.16667 1.81667,0.8 2.85,1.9c2.2,1.63333 5.75,4.56667 10.65,8.8c5.96667,5.2 8.95,8.16667 8.95,8.9M710.125,330.35825c-2.8,-3.1 -5.55,-5.4 -8.25,-6.9c-1.16667,2.4 -3.15,6.25 -5.95,11.55c-5.16667,9.73333 -9.1,16.31667 -11.8,19.75c-1.63333,-1.63333 -2.48333,-4.06667 -2.55,-7.3c0.2,-3.6 0.25,-6.1 0.15,-7.5c-0.1,-1.6 -0.18333,-4.08333 -0.25,-7.45c-0.03333,-3.3 -0.11667,-5.68333 -0.25,-7.15c-9.23333,0.93333 -14.95,2.15 -17.15,3.65c-0.46667,0.33333 -0.85,0.7 -1.15,1.1c0.36667,3.63333 0.56667,6.01667 0.6,7.15c0.06667,1.7 0.26667,5 0.6,9.9c0.26667,4.2 0.4,7.51667 0.4,9.95c0.03333,4.03333 0.53333,10.56667 1.5,19.6c0.96667,8.93333 1.45,15.26667 1.45,19l18.9,-0.3c0,-2.2 -0.16667,-5.78333 -0.5,-10.75c-0.1,-1.46667 -0.18333,-2.71667 -0.25,-3.75c-0.1,-0.43333 -0.16667,-0.88333 -0.2,-1.35c-0.03333,-0.7 -0.05,-1.38333 -0.05,-2.05c-0.03333,-0.36667 -0.05,-0.58333 -0.05,-0.65c0,-0.06667 0,-0.13333 0,-0.2c-0.1,-2.66667 -0.26667,-4.9 -0.5,-6.7l0.55,-0.4c0.36667,-0.3 0.9,-0.45 1.6,-0.45c2,0 5.1,3.31667 9.3,9.95c1.93333,3.03333 4.9,8.23333 8.9,15.6h16.2c-3.73333,-5.1 -7.33333,-10.23333 -10.8,-15.4c-4.93333,-7.33333 -8.1,-12.65 -9.5,-15.95c-0.4,-0.23333 -0.66667,-0.58333 -0.8,-1.05l-0.05,-1.4c0,-0.06667 0.01667,-0.15 0.05,-0.25c-0.03333,-0.13333 -0.05,-0.25 -0.05,-0.35c0,-2.16667 0.51667,-3.11667 1.55,-2.85c1.33333,-2.2 3.58333,-5.33333 6.75,-9.4c3.8,-4.93333 6.75,-8.58333 8.85,-10.95c-1.86667,-1.13333 -4.28333,-3.36667 -7.25,-6.7M813.025,335.85825c0.2,0.83333 0.3,3.1 0.3,6.8c0,5.46667 -1.06667,10.21667 -3.2,14.25c-1.33333,2.5 -4.9,7.5 -10.7,15l-0.15,0.35c1.6,-0.36667 5.58333,-0.95 11.95,-1.75h3.5c1.93333,0.5 2.9,1.4 2.9,2.7c0,0.43333 -0.03333,0.81667 -0.1,1.15c0.93333,1.96667 1.63333,4.55 2.1,7.75c0,1.86667 0.11667,4.65 0.35,8.35c0.23333,3.66667 0.35,5.66667 0.35,6c0,1.93333 -0.05,3.11667 -0.15,3.55c-0.43333,1.73333 -1.51667,2.86667 -3.25,3.4h-51.45c-0.93333,-0.3 -1.78333,-0.5 -2.55,-0.6c-1.5,-0.16667 -4.2,-0.3 -8.1,-0.4c-2.2,-1.26667 -3.4,-2.73333 -3.6,-4.4c0.2,-2.06667 0.25,-3.75 0.15,-5.05c-0.46667,-4.93333 -0.7,-7.98333 -0.7,-9.15c0,-2.43333 0,-3.66667 0,-3.7c0.1,-1.1 0.48333,-1.93333 1.15,-2.5c0.7,-0.63333 2.1,-1.11667 4.2,-1.45c0.66667,-0.26667 1.51667,-0.51667 2.55,-0.75c1.8,-0.43333 4.83333,-2.38333 9.1,-5.85c9.06667,-4.73333 13.81667,-8.13333 14.25,-10.2c0.43333,-2.06667 -0.2,-4.15 -1.9,-6.25c-1.7,-2.13333 -4.45,-3.2 -8.25,-3.2c-3.76667,0 -6.86667,1.63333 -9.3,4.9c-1.1,1.6 -1.88333,2.71667 -2.35,3.35c-0.83333,1 -1.65,1.5 -2.45,1.5c-1.4,0 -2.95,-1.63333 -4.65,-4.9c-1.53333,-3.43333 -2.43333,-5.33333 -2.7,-5.7c-0.36667,-0.5 -1.23333,-2.13333 -2.6,-4.9c-1.46667,-3 -2.2,-4.75 -2.2,-5.25c0,-1.56667 0.15,-2.68333 0.45,-3.35c0.33333,-0.96667 1.6,-2.41667 3.8,-4.35c2.6,-2.3 5.7,-4.6 9.3,-6.9c9.26667,-5.9 16.18333,-8.41667 20.75,-7.55c5.96667,-0.5 11.93333,0.75 17.9,3.75c4.3,2.2 7.66667,4.68333 10.1,7.45c2.83333,2.63333 4.56667,5.26667 5.2,7.9M782.975,322.10825c-6.73333,0 -14.11667,2.51667 -22.15,7.55c-2.63333,1.66667 -5.08333,3.43333 -7.35,5.3c-1.86667,1.56667 -2.8,2.45 -2.8,2.65c0,0.33333 0.06667,0.78333 0.2,1.35c1.76667,2.73333 3.83333,6.6 6.2,11.6c2.36667,-1.7 4.3,-2.93333 5.8,-3.7c3.53333,-1.86667 6.8,-2.8 9.8,-2.8c6.33333,0 10.86667,2.41667 13.6,7.25c1.33333,2.43333 2.03333,4.96667 2.1,7.6c0.03333,2.63333 -2.26667,5.26667 -6.9,7.9c-4.66667,2.6 -9.86667,5.63333 -15.6,9.1c-5.76667,3.46667 -9.03333,5.05 -9.8,4.75h-0.05v7c0.83333,3.13333 1.3,6.16667 1.4,9.1c3.53333,0.06667 5.65,0.13333 6.35,0.2c0.9,0.03333 1.66667,0.13333 2.3,0.3h17.95l1.5,-0.35c19.46667,-0.23333 29.3,-0.51667 29.5,-0.85c-0.26667,-1.3 -0.43333,-3.03333 -0.5,-5.2c-0.13333,-3.56667 -0.2,-5.43333 -0.2,-5.6c-0.1,-1 -0.38333,-2.86667 -0.85,-5.6c-0.23333,-1.23333 -0.4,-2.23333 -0.5,-3c-0.03333,0 -0.06667,0 -0.1,0c-7.53333,0.7 -15.68333,1.73333 -24.45,3.1c-1.16667,-0.3 -1.96667,-0.75 -2.4,-1.35c-0.33333,-0.43333 -0.5,-1 -0.5,-1.7c0,-0.33333 -0.15,-0.45 -0.45,-0.35c17.26667,-13.83333 25.38333,-24.18333 24.35,-31.05c-1.16667,-7.53333 -5.2,-13.48333 -12.1,-17.85c-5.63333,-3.56667 -10.41667,-5.35 -14.35,-5.35z"/></g></g></svg>