<svg version="1.1" xmlns="http://www.w3.org/2000/svg" xmlns:xlink="http://www.w3.org/1999/xlink" width="405.25" height="565.0552" viewBox="0,0,405.25,565.0552"><g transform="translate(-468.85,-61.6948)"><g data-paper-data="{&quot;isPaintingLayer&quot;:true}" fill-rule="nonzero" stroke="none" stroke-width="1" stroke-linecap="butt" stroke-linejoin="miter" stroke-miterlimit="10" stroke-dasharray="" stroke-dashoffset="0" style="mix-blend-mode: normal"><path d="M663.35,498.6c0,0.06667 -0.1,1.41667 -0.3,4.05c-0.33333,3.13333 -0.96667,5.98333 -1.9,8.55c-2.00664,5.60951 -5.05664,9.29284 -9.15,11.05c-1.87279,0.83333 -3.97279,1.25 -6.3,1.25c-2.76667,0 -7.21667,-1.86667 -13.35,-5.6c-6.13333,-3.76667 -11.3,-5.65 -15.5,-5.65c-2.20924,0 -4.97591,0.48333 -8.3,1.45c-0.27253,0.10729 -0.55586,0.20729 -0.85,0.3c-3.7,1.16667 -8.03333,1.75 -13,1.75c-6.53333,0 -11.06667,-3.66667 -13.6,-11c-1.33333,-3.83333 -2,-8.21667 -2,-13.15c0,-6.63333 1.53333,-13.38333 4.6,-20.25c0.47799,-1.06224 0.97799,-2.11224 1.5,-3.15c2.61641,-4.95859 5.86641,-9.37526 9.75,-13.25c5.77148,2.53333 12.57148,3.8 20.4,3.8c0.80964,0 1.6263,-0.03333 2.45,-0.1c1.43984,2.41654 3.92318,5.56654 7.45,9.45c5.73333,6.3 9.43333,9.6 11.1,9.9c11.1,2.26667 18.68333,5.35 22.75,9.25c2.75273,2.68802 4.1694,6.33802 4.25,10.95c0,0.13021 0,0.26354 0,0.4M739.35,505.1c4.99492,0.43333 10.66159,0.65 17,0.65c4.45781,0 8.92448,-0.73333 13.4,-2.2c-0.19753,0.71302 -0.41419,1.44635 -0.65,2.2c-0.19076,0.69701 -0.39076,1.41367 -0.6,2.15c-2,5.76667 -4.46667,10.05 -7.4,12.85c-6.13333,-4.8 -14.03333,-9.81667 -23.7,-15.05c-0.63125,-0.34245 -1.24792,-0.67578 -1.85,-1c1.22826,0.14727 2.49492,0.2806 3.8,0.4M769.35,306.75c-7.1,0.8 -14.45,2.63333 -22.05,5.5c-7.06667,2.66667 -10.8,4 -11.2,4c-1.6,0 -3.3,-0.36667 -5.1,-1.1c-2.2,-1 -4.11667,-1.8 -5.75,-2.4c-1.87604,-0.68047 -3.99271,-1.2638 -6.35,-1.75c0.51289,-14.81523 3.06289,-28.04857 7.65,-39.7c5.73333,-14.53333 13.16667,-21.8 22.3,-21.8c6.63333,0 13.11667,9.51667 19.45,28.55c1.2,3.63333 3.38333,10.91667 6.55,21.85c0.73177,2.54492 1.39844,4.77826 2,6.7c-2.42682,-0.02109 -4.92682,0.02891 -7.5,0.15M574.55,175.05c0.51667,-2.43568 0.83333,-4.40234 0.95,-5.9c1.64557,5.93372 3.19557,10.55039 4.65,13.85c1.6819,3.80898 3.7319,7.32565 6.15,10.55c-4.59753,-3.39622 -9.04753,-7.64622 -13.35,-12.75c0.41302,-0.87617 0.94635,-2.79284 1.6,-5.75M678.9,200.1c1.4819,-2.63737 3.1319,-5.65404 4.95,-9.05c0.77083,-1.38542 1.55417,-2.83542 2.35,-4.35c-0.18932,3.0694 -0.40599,6.58607 -0.65,10.55c-0.48477,8.29245 -1.5681,15.35911 -3.25,21.2c-1.73112,-0.13372 -4.01445,-0.73372 -6.85,-1.8c-0.14036,-0.03919 -0.29036,-0.08919 -0.45,-0.15c-0.22044,-0.09375 -0.43711,-0.19375 -0.65,-0.3c0.91758,-2.86471 1.91758,-6.24805 3,-10.15c0.57253,-2.09284 1.08919,-4.07617 1.55,-5.95M631.1,155.85c0,2.4 -0.06667,3.78333 -0.2,4.15c-0.53333,1.33333 -1.96667,2 -4.3,2c-6.06667,0 -10.46667,-3.5 -13.2,-10.5c-0.86667,-2.16667 -1.51667,-4.55 -1.95,-7.15l-0.35,-3c0,-4.46667 1.05,-7.16667 3.15,-8.1c1.83333,-0.8 4.11667,-0.13333 6.85,2c2.7,2.1 5,4.98333 6.9,8.65c2.06667,4.03333 3.1,8.01667 3.1,11.95M658.15,132.45c-1.63333,3.4 -3.31667,5.25 -5.05,5.55c-3.5,1.43333 -6.36667,0.21667 -8.6,-3.65c-1.6,-2.8 -2.4,-5.33333 -2.4,-7.6c0,-7.86667 0.95,-13.25 2.85,-16.15c1.56667,-2.43333 3.65,-2.93333 6.25,-1.5c2.26667,1.26667 4.33333,3.61667 6.2,7.05c1.9,3.43333 2.85,6.58333 2.85,9.45c0,1.63333 -0.7,3.91667 -2.1,6.85M675.25,96.05c-0.08516,0.10195 -0.18516,0.15195 -0.3,0.15c-0.9349,-1.37331 -1.90156,-2.68997 -2.9,-3.95c-2.51628,-3.17747 -5.26628,-5.99414 -8.25,-8.45c-0.26133,-0.2181 -0.52799,-0.43477 -0.8,-0.65c-2.21172,-1.47292 -4.62839,-2.68958 -7.25,-3.65c-12.16667,-3.1 -21.13333,2.11667 -26.9,15.65c-0.03333,-0.36667 -0.05,-0.73333 -0.05,-1.1c-0.36667,0.8 -0.7,1.61667 -1,2.45c0.13333,0.1 0.26667,0.21667 0.4,0.35c-0.17734,0.44987 -0.36068,0.89987 -0.55,1.35c-2.46081,6.68997 -3.89414,13.65664 -4.3,20.9c-6.43607,-5.44245 -12.3194,-8.92578 -17.65,-10.45c-3.26562,-0.91953 -6.33229,-1.10286 -9.2,-0.55c-2.88086,0.59792 -5.54753,1.96458 -8,4.1c-2.83333,1 -5.46667,2.55 -7.9,4.65c-3.07174,2.6612 -5.45508,5.9112 -7.15,9.75c-1.96667,4.62539 -2.95,10.09206 -2.95,16.4c0,4.94063 0.78333,9.94063 2.35,15v0.5c0.64727,2.7694 1.2806,5.35273 1.9,7.75c-2.44427,0.03854 -4.14427,1.55521 -5.1,4.55c-0.44583,1.36523 -0.7125,2.99857 -0.8,4.9c-1.16081,-1.58086 -2.29414,-3.21419 -3.4,-4.9c0.46237,0.33945 0.92904,0.65612 1.4,0.95l0.5,-0.75c-1.70573,-1.22201 -3.38906,-3.42201 -5.05,-6.6c-0.39049,-2.83789 -0.45716,-4.97122 -0.2,-6.4c0.1,-0.63333 0.71667,-3.46667 1.85,-8.5c0.6,-2.73333 0.9,-5.28333 0.9,-7.65c0,-1.1 -0.26667,-1.86667 -0.8,-2.3c-0.16667,-0.13333 -0.73333,-0.4 -1.7,-0.8c-2.32344,1.26133 -4.00677,5.84466 -5.05,13.75c-0.58763,-1.39596 -1.1043,-2.54596 -1.55,-3.45c-1.99245,-4.0513 -4.15911,-6.2513 -6.5,-6.6v0c-2.93333,-0.36667 -6.56667,1.98333 -10.9,7.05c-0.64206,0.74219 -1.25872,1.49219 -1.85,2.25c-7.1,9.39427 -10.65,21.64427 -10.65,36.75c0,3.87409 0.63333,8.62409 1.9,14.25c-2.65664,-2.24414 -5.37331,-4.81081 -8.15,-7.7c-5.63789,-5.9125 -10.25456,-11.74583 -13.85,-17.5c-1.33932,-2.17617 -2.53932,-4.34284 -3.6,-6.5c0.19076,-6.0918 0.97409,-12.5918 2.35,-19.5c2.63333,-13.06667 7,-24.83333 13.1,-35.3c13.0862,-22.36549 32.71953,-36.74883 58.9,-43.15c10.0638,-2.45703 21.08047,-3.74036 33.05,-3.85c0.54388,0 1.09388,0 1.65,0c0.29479,0 0.57813,0 0.85,0c1.87448,0.00456 3.65781,0.02122 5.35,0.05c7.50104,0.83437 14.98437,2.15104 22.45,3.95c6,1.43333 13.08333,3.6 21.25,6.5c1.20638,0.43711 2.90638,1.50378 5.1,3.2c2.02943,1.54974 4.46276,3.61641 7.3,6.2c1.40143,1.26133 2.75143,2.49466 4.05,3.7c2.04987,2.27487 4.01654,4.7082 5.9,7.3c1.30299,2.71888 2.81966,5.86888 4.55,9.45c1.08086,2.37552 2.06419,4.60885 2.95,6.7c1.43659,3.39167 2.60326,6.39167 3.5,9c1.6,4.57201 2.4,7.97201 2.4,10.2c0,2.81146 -0.33333,5.86146 -1,9.15c-0.67292,3.33737 -1.68958,6.9207 -3.05,10.75c-2.93333,8.2 -6.41667,14.31667 -10.45,18.35c-6.3,6.36667 -15.38333,12.6 -27.25,18.7c-6.30964,3.23359 -12.34297,5.76693 -18.1,7.6c1.76172,-1.74987 3.19505,-3.91654 4.3,-6.5c0.9,-2.13333 1.91667,-6.31667 3.05,-12.55c0.5,1.9 2.01667,3.33333 4.55,4.3c2.13333,0.8 4.7,1.2 7.7,1.2c9.63333,0 17.56667,-6.5 23.8,-19.5c2.36667,-4.96667 4.25,-10.41667 5.65,-16.35c0.50339,-2.19544 0.90339,-4.27878 1.2,-6.25c0.4,-2.6888 0.6,-5.15547 0.6,-7.4c0,-4.54792 -0.88333,-8.71458 -2.65,-12.5c-0.07878,-4.35508 -0.27878,-7.48841 -0.6,-9.4c-0.43073,-2.53724 -1.9974,-6.43724 -4.7,-11.7c-2.6694,-5.22943 -4.2194,-7.67943 -4.65,-7.35M705.5,350.8c2.36667,-0.16667 5.28333,0.4 8.75,1.7c3.43333,1.26667 6.35,2.83333 8.75,4.7c2.66667,2.06667 4,4 4,5.8c0,0.73333 -0.91667,1.68333 -2.75,2.85h-9c-3.96667,-1.4 -7.13333,-3.03333 -9.5,-4.9c-2.83333,-2.2 -4.25,-4.51667 -4.25,-6.95c0,-1.96667 1.33333,-3.03333 4,-3.2M658.55,268.2c1.73333,-2.63333 3.16667,-4.03333 4.3,-4.2l0.4,-0.4c0.23333,-0.03333 0.35,0.46667 0.35,1.5c0,1.86667 -2.31667,6 -6.95,12.4c-5.1,7 -9.2,10.5 -12.3,10.5c-2.8,0 -4.63333,-0.78333 -5.5,-2.35c-0.33333,-0.63333 -0.5,-1.51667 -0.5,-2.65c0,-2.13333 1.35,-3.58333 4.05,-4.35c4.83333,-1.4 8.23333,-2.7 10.2,-3.9c1.93333,-1.23333 3.91667,-3.41667 5.95,-6.55M704.8,291.55c-0.98281,3.03802 -1.46615,5.33802 -1.45,6.9c-1.21042,-1.20026 -4.31042,-3.71693 -9.3,-7.55c-5.06667,-3.9 -8.28333,-6.53333 -9.65,-7.9h5c5.86667,2 8.86667,3.03333 9,3.1c2.55651,1.04245 4.87318,2.30911 6.95,3.8c-0.17982,0.51484 -0.36315,1.06484 -0.55,1.65M763.75,346.5c3.33333,1.63333 6.36667,3.61667 9.1,5.95c2.76667,2.36667 4.15,4.16667 4.15,5.4c0,0.9 -0.33333,1.65 -1,2.25c-0.56667,0.5 -1.15,0.75 -1.75,0.75c-7.76667,0 -14.01667,-1.83333 -18.75,-5.5c-1.56667,-1.2 -2.86667,-2.51667 -3.9,-3.95c-0.73333,-1.06667 -1.1,-1.78333 -1.1,-2.15c0,-3.2 1.38333,-4.91667 4.15,-5.15c2.33333,-0.23333 5.36667,0.56667 9.1,2.4M622,372.9c4.10221,-2.27214 10.01888,-4.8388 17.75,-7.7c7.72956,-2.8569 16.67956,-1.94023 26.85,2.75c10.17031,4.68997 15.60365,8.35664 16.3,11c0.73099,2.67188 1.09766,6.12187 1.1,10.35c0,4.46667 -2.08333,9.38333 -6.25,14.75c-3.23333,4.16667 -8.06667,9 -14.5,14.5c-8.8,7.53333 -15.53333,12.81667 -20.2,15.85c-11.7,7.66667 -22.18333,11.5 -31.45,11.5c-9.86667,0 -17.03333,-3.73333 -21.5,-11.2c-2.6,-4.36667 -3.9,-8.56667 -3.9,-12.6c0,-6.1 2.85,-13.95 8.55,-23.55c6.1,-10.3 12.63333,-17.38333 19.6,-21.25c2.93333,-1.73333 5.48333,-3.2 7.65,-4.4M511.35,267.5v-0.5c0.43333,-2.6 2.3,-5.03333 5.6,-7.3c3.03034,-2.10807 5.79701,-3.17474 8.3,-3.2c-0.93333,1.00638 -1.4,2.17305 -1.4,3.5c0,1.33333 1,3 3,5c-2.96667,-0.1 -5.46667,-0.06667 -7.5,0.1c-3.8,0.26667 -6.46667,1.06667 -8,2.4M548.85,339.2c-6.93333,8.13333 -16.71667,12.2 -29.35,12.2c-12.76667,0 -22.13333,-4.73333 -28.1,-14.2c-1.93333,-3.13333 -3.38333,-6.58333 -4.35,-10.35c-0.63333,-2.46667 -0.95,-4.4 -0.95,-5.8c0,-12.53333 3.71667,-22.56667 11.15,-30.1c6.63333,-6.7 14.81667,-10.25 24.55,-10.65c9.56667,-0.4 17.73333,2.36667 24.5,8.3c7.43333,6.5 11.15,15.4 11.15,26.7c0,9.2 -2.86667,17.16667 -8.6,23.9M669.35,281.75c0,0.62695 -0.16667,1.42695 -0.5,2.4c-0.37734,1.05404 -0.96068,2.30404 -1.75,3.75c-1.53346,1.76536 -2.73346,3.33203 -3.6,4.7c-0.92305,1.45065 -1.45638,2.68398 -1.6,3.7v0c-0.70677,0.97474 -1.3901,1.84141 -2.05,2.6c-0.51458,-0.28138 -1.04792,-0.53138 -1.6,-0.75c-0.34401,-0.10937 -0.69401,-0.20937 -1.05,-0.3c-2.93945,-0.73581 -6.38945,-0.26914 -10.35,1.4c0,-0.12865 0,-0.26198 0,-0.4c0,-1.96667 1.26667,-3.46667 3.8,-4.5c6.03333,-2.46667 9.43333,-3.91667 10.2,-4.35c2.2,-1.23333 3.95,-3.1 5.25,-5.6c1.11914,-2.12357 1.95247,-3.44023 2.5,-3.95c0.09245,-0.09167 0.17578,-0.15833 0.25,-0.2l0.25,-0.2c0.16667,0.1 0.25,0.66667 0.25,1.7M610.4,328.25c-0.22786,-0.12995 -0.4612,-0.26328 -0.7,-0.4c-3.86667,-2.46667 -6.56667,-4.08333 -8.1,-4.85c0.8,-0.1 1.86667,0.03333 3.2,0.4c1.5,0.4 2.63333,0.6 3.4,0.6c1.53503,0 3.65169,-0.38333 6.35,-1.15c-1.40755,1.60352 -2.79089,3.40352 -4.15,5.4M614.6,308.75c3.26667,0 6.65,-0.86667 10.15,-2.6c3.46667,-1.76667 5.5,-2.65 6.1,-2.65c1.4,0 2.58333,0.41667 3.55,1.25c0.34974,0.32565 0.63307,0.67565 0.85,1.05v0c-2.2793,1.45026 -4.29596,2.81693 -6.05,4.1c-2.51263,1.84388 -5.0793,3.92721 -7.7,6.25c-3.75872,-0.29922 -8.94206,-1.49922 -15.55,-3.6c1.00417,-1.37617 2.0375,-2.82617 3.1,-4.35c2.98633,0.36667 4.83633,0.55 5.55,0.55M618.55,294.75c2.55755,-3.59896 5.27422,-7.43229 8.15,-11.5c0.12682,0.02669 0.24349,0.06003 0.35,0.1c1.36667,0.53333 2.05,2.28333 2.05,5.25c0,2.6 -1.91667,4.4 -5.75,5.4c-1.3207,0.35221 -2.9207,0.60221 -4.8,0.75M722,217.25c-1.92057,3.0901 -3.45391,5.60677 -4.6,7.55c-2.52422,0.53971 -5.40755,1.10638 -8.65,1.7c-11.24219,2.08529 -18.15885,3.36862 -20.75,3.85c1.14049,-0.76992 7.39049,-3.86992 18.75,-9.3c8.48958,-4.06211 14.63958,-7.04544 18.45,-8.95c-0.90469,1.45378 -1.97135,3.17044 -3.2,5.15M645.55,205.35c-3.80482,3.15586 -7.65482,5.70586 -11.55,7.65c-2.17565,0.72201 -4.37565,1.32201 -6.6,1.8c-0.0056,-0.01484 -0.02227,-0.03151 -0.05,-0.05c-0.16667,0.1 -0.5,0.06667 -1,-0.1c-0.09766,-0.03906 -0.16432,0.09427 -0.2,0.4c-4.04596,0.8 -8.14596,1.2 -12.3,1.2c-5.24635,0 -10.09635,-0.36667 -14.55,-1.1c-2.93646,-0.75443 -5.76979,-1.65443 -8.5,-2.7c-13.86667,-5.4 -22.18333,-13.3 -24.95,-23.7l-4,-15.1c2.49492,4.13138 5.34492,8.09805 8.55,11.9c13.56667,16.13333 28.71667,24.2 45.45,24.2c6.6,0 14.48333,-1.43333 23.65,-4.3c3.43177,-1.07109 6.7651,-2.27109 10,-3.6c-1.37969,1.30625 -2.69635,2.47292 -3.95,3.5M840.1,398.5l0.25,-0.5c0,-0.36888 0.03333,-0.61888 0.1,-0.75c0.63437,-0.37188 1.36771,-0.70521 2.2,-1c3.2,-1.13333 6.73333,-1.13333 10.6,0c4.33333,1.3 7.85,3.78333 10.55,7.45c3.2,4.36667 4.8,9.96667 4.8,16.8c0,4.9 -0.68333,9.96667 -2.05,15.2c-1.53333,5.86667 -3.68333,10.8 -6.45,14.8c-3.03333,4.33333 -9.03333,10.4 -18,18.2c-9.23333,8.03333 -15.03333,12.05 -17.4,12.05c-3.23333,0 -5.75,-2 -7.55,-6c-1.36667,-3.03333 -2.05,-6.16667 -2.05,-9.4c0,-0.82096 0.1,-1.6543 0.3,-2.5c1.13581,-2.02253 1.93581,-3.75586 2.4,-5.2c1.06771,-1.53776 2.43438,-3.12109 4.1,-4.75c2.76667,-2.56667 4.9,-4.55 6.4,-5.95c2.7,-2.53333 4.88333,-4.85 6.55,-6.95c0.4293,-0.53398 0.81263,-1.11732 1.15,-1.75h0.85c1.63333,-4.63333 2.96667,-8.58333 4,-11.85c2,-6.2 3,-10.25 3,-12.15c0,-1.06667 -0.26667,-1.76667 -0.8,-2.1c-0.7,-0.26667 -1.26667,-0.48333 -1.7,-0.65c-0.04974,0.03646 -0.09974,0.06979 -0.15,0.1c-0.25911,-0.53164 -0.52578,-1.09831 -0.8,-1.7c-1.7,-3.66667 -2.55,-6.38333 -2.55,-8.15c0,-1.03516 0.26667,-1.95182 0.8,-2.75c0.81745,-0.0349 1.30078,-0.20156 1.45,-0.5M804.4,235c-4.8,10.83333 -11.48333,16.25 -20.05,16.25c-4.7,0 -7.96667,-1.23333 -9.8,-3.7c-0.6,-0.76667 -1.05,-1.7 -1.35,-2.8c-0.2,-0.96667 -0.35,-1.55 -0.45,-1.75c-0.66667,-1.86667 -1.28333,-3.35 -1.85,-4.45c-0.96667,-2 -2.18333,-3.65 -3.65,-4.95c-0.86224,-0.74609 -1.87891,-1.41276 -3.05,-2c-1.17565,-0.56458 -2.50898,-1.04792 -4,-1.45c-3.3,-0.66667 -5.7,-1.21667 -7.2,-1.65c-5.26667,-1.56667 -7.9,-5.68333 -7.9,-12.35c0,-5.8 1.4,-11.08333 4.2,-15.85c3.76667,-6.4 9.7,-10.91667 17.8,-13.55c3.03333,-1 6.86667,-1.23333 11.5,-0.7c4.93333,0.6 9.6,1.95 14,4.05c11.2,5.33333 16.8,13.35 16.8,24.05c0,1.79844 -0.13333,3.64844 -0.4,5.55c-0.67995,4.78203 -2.21328,9.88203 -4.6,15.3z" fill="#ffffff"/><path d="M774.95,495.4c-1.95013,4.70078 -3.90013,8.15078 -5.85,10.35c0.23581,-0.75365 0.45247,-1.48698 0.65,-2.2c-4.47552,1.46667 -8.94219,2.2 -13.4,2.2c-6.33841,0 -12.00508,-0.21667 -17,-0.65c-2.85651,-1.65859 -6.88984,-4.05859 -12.1,-7.2c-0.96836,-0.58346 -1.90169,-1.13346 -2.8,-1.65c0.77461,0.22591 1.60794,0.47591 2.5,0.75c8.3,1.83333 18.21667,2.75 29.75,2.75c5.19922,0 10.34922,-1.03333 15.45,-3.1c0.16862,-0.33724 0.31862,-0.63724 0.45,-0.9c0.10534,0.18958 0.20534,0.38958 0.3,0.6c0.6832,-0.28997 1.36654,-0.60664 2.05,-0.95M679.9,103.4c2.7026,5.26276 4.26927,9.16276 4.7,11.7c0.32122,1.91159 0.52122,5.04492 0.6,9.4c0.03307,1.52435 0.04974,3.19102 0.05,5c0,0.83607 -0.01667,1.6694 -0.05,2.5c-0.13633,4.19505 -0.63633,8.27839 -1.5,12.25c-0.71094,3.41576 -1.69427,6.74909 -2.95,10c-5.33333,13.83333 -14.33333,20.75 -27,20.75c-5.06667,0 -9.55,-1.53333 -13.45,-4.6c-0.6,4.46667 -1.76667,8.93333 -3.5,13.4c-4.2,10.63333 -10.71667,15.95 -19.55,15.95c-14.3,0 -25.16667,-6.68333 -32.6,-20.05c-0.86667,-1 -1.7,-2.05 -2.5,-3.15c-1.43333,-1.96667 -2.4,-3.4 -2.9,-4.3c-2.81016,-4.80143 -4.94349,-9.55143 -6.4,-14.25c-1.56667,-5.05937 -2.35,-10.05937 -2.35,-15c0,-6.30794 0.98333,-11.77461 2.95,-16.4c1.69492,-3.8388 4.07826,-7.0888 7.15,-9.75c2.43333,-2.1 5.06667,-3.65 7.9,-4.65c2.45247,-2.13542 5.11914,-3.50208 8,-4.1c2.86771,-0.55286 5.93438,-0.36953 9.2,0.55c5.3306,1.52422 11.21393,5.00755 17.65,10.45c0.40586,-7.24336 1.83919,-14.21003 4.3,-20.9c0.18932,-0.45013 0.37266,-0.90013 0.55,-1.35c-0.13333,-0.13333 -0.26667,-0.25 -0.4,-0.35c0.3,-0.83333 0.63333,-1.65 1,-2.45c0,0.36667 0.01667,0.73333 0.05,1.1c5.76667,-13.53333 14.73333,-18.75 26.9,-15.65c2.62161,0.96042 5.03828,2.17708 7.25,3.65c0.27201,0.21523 0.53867,0.4319 0.8,0.65c2.98372,2.45586 5.73372,5.27253 8.25,8.45c0.99844,1.26003 1.9651,2.57669 2.9,3.95c0.11484,0.00195 0.21484,-0.04805 0.3,-0.15c0.4306,-0.32943 1.9806,2.12057 4.65,7.35M660.25,125.6c0,-2.86667 -0.95,-6.01667 -2.85,-9.45c-1.86667,-3.43333 -3.93333,-5.78333 -6.2,-7.05c-2.6,-1.43333 -4.68333,-0.93333 -6.25,1.5c-1.9,2.9 -2.85,8.28333 -2.85,16.15c0,2.26667 0.8,4.8 2.4,7.6c2.23333,3.86667 5.1,5.08333 8.6,3.65c1.73333,-0.3 3.41667,-2.15 5.05,-5.55c1.4,-2.93333 2.1,-5.21667 2.1,-6.85M628,143.9c-1.9,-3.66667 -4.2,-6.55 -6.9,-8.65c-2.73333,-2.13333 -5.01667,-2.8 -6.85,-2c-2.1,0.93333 -3.15,3.63333 -3.15,8.1l0.35,3c0.43333,2.6 1.08333,4.98333 1.95,7.15c2.73333,7 7.13333,10.5 13.2,10.5c2.33333,0 3.76667,-0.66667 4.3,-2c0.13333,-0.36667 0.2,-1.75 0.2,-4.15c0,-3.93333 -1.03333,-7.91667 -3.1,-11.95M797,173.2c4.79648,1.67643 9.12982,4.32643 13,7.95c9.0082,8.44323 13.77487,20.9599 14.3,37.55c0.03333,1.03945 0.05,2.08945 0.05,3.15c0,10.8 -1.91667,20.18333 -5.75,28.15c-2.43177,5.05612 -5.5151,9.18945 -9.25,12.4c-0.48203,-1.85951 -1.3987,-3.05951 -2.75,-3.6c-1.63333,-0.66667 -2.45,0.15 -2.45,2.45c0,1.03151 0.26667,2.48151 0.8,4.35c-5.28255,3.22344 -11.61589,5.00677 -19,5.35c-3.00951,-3.96667 -4.85951,-5.95 -5.55,-5.95c-0.5,0 -0.83333,0.06667 -1,0.2c-0.16667,0.1 -0.26667,0.15 -0.3,0.15l-0.2,1.15c0.55221,1.36536 1.26888,2.83203 2.15,4.4c-1.17344,-0.04401 -2.30677,-0.16068 -3.4,-0.35c-0.31237,-0.03711 -0.62904,-0.08711 -0.95,-0.15c2.38997,4.46211 5.15664,10.66211 8.3,18.6c3.60169,9.10573 5.83503,15.18906 6.7,18.25c0.05495,0.20703 0.10495,0.39036 0.15,0.55c1.76263,0.30365 3.4793,0.63698 5.15,1c-0.95026,-0.09583 -1.98359,-0.2125 -3.1,-0.35c-1.13385,-0.14557 -2.20052,-0.29557 -3.2,-0.45c-1.93971,-0.3125 -3.60638,-0.64583 -5,-1l0.05,0.05c-2.85286,-0.26432 -5.81953,-0.41432 -8.9,-0.45c-0.60156,-1.92174 -1.26823,-4.15508 -2,-6.7c-3.16667,-10.93333 -5.35,-18.21667 -6.55,-21.85c-6.33333,-19.03333 -12.81667,-28.55 -19.45,-28.55c-9.13333,0 -16.56667,7.26667 -22.3,21.8c-4.58711,11.65143 -7.13711,24.88477 -7.65,39.7c-1.23125,-0.25052 -2.54792,-0.48385 -3.95,-0.7c-0.63594,-0.08451 -1.3026,-0.16784 -2,-0.25c0.68346,-5.54531 1.25013,-9.87865 1.7,-13c0.14505,-0.99427 0.29505,-1.9776 0.45,-2.95c-3.46589,-1.21289 -6.19922,-2.21289 -8.2,-3c-0.15716,-0.06901 -0.32383,-0.13568 -0.5,-0.2c0.35091,0.21563 0.68424,0.41562 1,0.6c0.8526,0.54036 1.61927,0.99036 2.3,1.35c-0.9,5.14453 -1.35,9.3112 -1.35,12.5c0,0.06667 0.26667,1.28333 0.8,3.65c0.0724,0.23607 0.13906,0.45273 0.2,0.65c-3.48984,-0.26667 -7.32318,-0.4 -11.5,-0.4c-8.2,0 -15.68333,0.8 -22.45,2.4c-0.80313,0.19245 -1.58646,0.39245 -2.35,0.6c-0.12721,0.03294 -0.26055,0.06628 -0.4,0.1c0.52956,1.51563 1.06289,3.06562 1.6,4.65c0.05508,0.12096 0.10508,0.23763 0.15,0.35h-0.05c-1.93555,0.48242 -3.68555,1.03242 -5.25,1.65c-7.33333,2.9 -14.16667,8.65 -20.5,17.25c-0.02435,0.03255 -0.05768,0.06589 -0.1,0.1c-0.77982,1.13164 -3.19648,5.36497 -7.25,12.7c-0.03242,0.05872 -0.06576,0.10872 -0.1,0.15c-0.9457,2.25404 -1.76237,4.13737 -2.45,5.65c0.97214,-0.15365 1.92214,-0.30365 2.85,-0.45c7.15378,-0.96328 13.82044,-0.92995 20,0.1c-0.32031,0.82526 -0.67031,1.72526 -1.05,2.7c-0.12773,0.35859 -0.26107,0.72526 -0.4,1.1c-0.20443,0.57096 -0.42109,1.1543 -0.65,1.75c2.41953,0.37865 4.7362,0.92865 6.95,1.65c3.72318,1.24531 7.07318,2.76198 10.05,4.55c2.95911,1.75807 5.55911,3.79141 7.8,6.1c4.23333,4.36667 6.35,8.41667 6.35,12.15c0,6.23333 -2.03333,12.58333 -6.1,19.05c-0.83971,1.34362 -1.83971,2.79362 -3,4.35c2.14896,1.88503 3.91562,3.51836 5.3,4.9c3.48203,-5.67031 5.88203,-10.08698 7.2,-13.25c2.23333,-5.43333 3.35,-11.28333 3.35,-17.55c0,-8.59805 -5.18333,-15.66471 -15.55,-21.2c-0.79831,-0.42201 -1.63164,-0.83867 -2.5,-1.25c-2.78724,-1.32279 -6.15391,-2.65612 -10.1,-4c-1.59349,-0.54635 -3.29349,-1.09635 -5.1,-1.65c-0.0987,-0.02995 -0.1987,-0.06328 -0.3,-0.1c2.00065,-3.74375 4.68398,-7.11042 8.05,-10.1c3.53854,-3.14531 6.83854,-5.64531 9.9,-7.5c1.12422,-0.64271 2.20755,-1.20938 3.25,-1.7c6.60182,-3.05716 12.73516,-4.19049 18.4,-3.4c2.87279,0.43594 5.62279,1.3526 8.25,2.75c1.5,0.76667 3,1.73333 4.5,2.9c2.63333,0.9 4.58333,1.98333 5.85,3.25c0.30716,0.3151 0.67383,0.68177 1.1,1.1c1.40156,1.36406 3.45156,3.28073 6.15,5.75c0.66667,0.66667 1.3,1.3 1.9,1.9c1.53333,-6.86667 5.86667,-11.7 13,-14.5c8.33333,-3.23333 18.36667,-3.11667 30.1,0.35c11.96667,3.5 22,9.45 30.1,17.85c0.3556,0.37122 0.7056,0.73789 1.05,1.1c7.17865,7.89323 11.27865,16.59323 12.3,26.1c0.2,1.63372 0.3,3.28372 0.3,4.95c0,3.93333 -0.43333,7.41667 -1.3,10.45c1.09076,0.35456 2.25742,0.75456 3.5,1.2c0.28164,0.12422 0.56497,0.24089 0.85,0.35c6.8,2.63333 10.2,5.1 10.2,7.4c0,1.05078 -0.23333,2.03411 -0.7,2.95c-0.07878,0.19271 -0.17878,0.37604 -0.3,0.55c-0.69648,1.20352 -1.79648,2.30352 -3.3,3.3c-0.83333,0.83333 -2,1.58333 -3.5,2.25c-2.0543,0.91302 -4.6543,1.61302 -7.8,2.1c-0.50964,0.09466 -1.04297,0.17799 -1.6,0.25c-1.73333,0.33333 -3.61667,0.63333 -5.65,0.9c0.16667,0.43333 0.43333,1.03333 0.8,1.8c0.36667,0.96667 0.55,1.96667 0.55,3c0,0.36667 -0.18333,0.81667 -0.55,1.35c-0.33333,1.16667 -1.83333,2.8 -4.5,4.9c-3.53333,2.73333 -8,5.31667 -13.4,7.75c-5.16667,2.3 -10.6,4.21667 -16.3,5.75c-0.53333,1.2 -1.15,2.53333 -1.85,4c-3.1,6.53333 -6.73333,13.03333 -10.9,19.5c-11.3,17.5 -20.8,26.25 -28.5,26.25c-6.36667,0 -13.48333,-4.25 -21.35,-12.75c-2.5,-2.7 -5,-5.73333 -7.5,-9.1c-2.06667,-3 -3.2,-4.63333 -3.4,-4.9c-5.03333,-5.53333 -9.11667,-10.18333 -12.25,-13.95c-3.9,-4.76667 -6.5,-8.61667 -7.8,-11.55c-3.6,2.96667 -6.7,4.68333 -9.3,5.15c-1.93333,0.73333 -3.73333,1.1 -5.4,1.1c-2.66667,0 -4.25,-1.1 -4.75,-3.3c0,-1.47917 0,-2.49583 0,-3.05c0.30013,-1.00469 0.58346,-1.93802 0.85,-2.8c-3.01003,2.53073 -6.02669,4.8974 -9.05,7.1c-10.4056,7.54232 -19.8056,12.44232 -28.2,14.7c0.21654,0.27122 0.41654,0.53789 0.6,0.8c0.93333,1.26667 2.2,3.16667 3.8,5.7c3.46667,4.43333 11,8.18333 22.6,11.25c7.7,2.03333 12.66667,5.33333 14.9,9.9c1.19362,2.48385 1.81029,6.96719 1.85,13.45c0.03477,0.04688 0.0681,0.09688 0.1,0.15c0.54661,0.87109 0.96328,1.53776 1.25,2c-2.30951,-0.49714 -4.75951,-1.2638 -7.35,-2.3c-0.0806,-4.61198 -1.49727,-8.26198 -4.25,-10.95c-4.06667,-3.9 -11.65,-6.98333 -22.75,-9.25c-1.66667,-0.3 -5.36667,-3.6 -11.1,-9.9c-3.52682,-3.88346 -6.01016,-7.03346 -7.45,-9.45c-0.8237,0.06667 -1.64036,0.1 -2.45,0.1c-7.82852,0 -14.62852,-1.26667 -20.4,-3.8c-3.88359,3.87474 -7.13359,8.29141 -9.75,13.25c-0.52201,1.03776 -1.02201,2.08776 -1.5,3.15c-3.06667,6.86667 -4.6,13.61667 -4.6,20.25c0,4.93333 0.66667,9.31667 2,13.15c2.53333,7.33333 7.06667,11 13.6,11c4.96667,0 9.3,-0.58333 13,-1.75c0.29414,-0.09271 0.57747,-0.19271 0.85,-0.3c0.05625,0.11042 0.10625,0.21042 0.15,0.3c0.93216,1.90859 1.78216,3.57526 2.55,5c2.25143,-0.66667 4.8681,-1 7.85,-1c1.1,0.66667 4.61667,2.91667 10.55,6.75c6.3,3.5 11.7,5.25 16.2,5.25c5.79089,0 10.55755,-1.75 14.3,-5.25c2.30625,-2.14661 4.22292,-4.96328 5.75,-8.45c1.45781,-3.38047 2.45781,-6.94714 3,-10.7c1.91901,1.88815 4.35234,3.20482 7.3,3.95c3.1,0.8 10.31667,1.2 21.65,1.2c2.6,0 6.71667,-1.66667 12.35,-5c2.86289,-1.85898 4.94622,-3.20898 6.25,-4.05c5.52682,2.75299 13.02682,6.11966 22.5,10.1c10.16667,4.76667 17.63333,9.83333 22.4,15.2c2.93333,-2.63333 5.78333,-6.53333 8.55,-11.7c2.8,-5.16667 4.2,-9.18333 4.2,-12.05c0,-0.44062 -0.01667,-0.87396 -0.05,-1.3c8.47214,-3.58216 16.9888,-9.73216 25.55,-18.45c3.43906,-3.50326 6.53906,-7.10326 9.3,-10.8c0,-0.9375 0,-2.15417 0,-3.65c0,-2.0849 0.11667,-4.25156 0.35,-6.5c0.2513,-0.35039 0.5013,-0.71706 0.75,-1.1c0.30612,-1.78112 0.78945,-3.44779 1.45,-5c0.5931,-1.32174 1.30977,-2.55508 2.15,-3.7c1.3,-1.7 4.26667,-4.45 8.9,-8.25c4.1,-3.36667 7.05,-6.66667 8.85,-9.9c2.66667,-4.76667 4,-10.85 4,-18.25c0,-0.66667 -0.61667,-2 -1.85,-4c-1.26667,-1.96667 -1.9,-3.25 -1.9,-3.85c-0.16667,-2.6 -0.25,-4.73333 -0.25,-6.4c0,-3.32018 0.73333,-6.03685 2.2,-8.15c-0.14766,-0.22982 -0.29766,-0.46315 -0.45,-0.7c-2.33333,-3.53333 -3.5,-5.53333 -3.5,-6c0.57734,-2.6849 1.14401,-5.45156 1.7,-8.3c1.80182,-1.30208 4.11849,-3.05208 6.95,-5.25c-0.25052,1.4224 -0.55052,2.9724 -0.9,4.65c-1.16667,5.6 -1.75,8.65 -1.75,9.15c0,0.37682 0.63333,1.36016 1.9,2.95c0.17604,-0.07565 0.35938,-0.15898 0.55,-0.25c4.1,-1.93333 9,-1.91667 14.7,0.05c5.86667,2.03333 10.75,5.56667 14.65,10.6c4.46667,5.73333 6.7,12.36667 6.7,19.9c0,14 -3.58333,25.75 -10.75,35.25c-2.85807,3.74974 -6.55807,7.79974 -11.1,12.15c-0.20703,2.49401 -1.00703,5.67734 -2.4,9.55c-1.93333,5.5 -4.5,10.6 -7.7,15.3c-8.83333,13 -19.76667,19.5 -32.8,19.5c-0.70404,0 -1.38737,0 -2.05,0c0.88451,4.26354 1.56784,7.96354 2.05,11.1c0.36549,2.37318 0.61549,4.42318 0.75,6.15c0.2,2.3 0.23333,6.33333 0.1,12.1c0.02122,0.55299 0.05456,1.08633 0.1,1.6c0.33542,4.42396 1.35208,7.85729 3.05,10.3c5.9,8.36667 8.93333,12.66667 9.1,12.9c0.57044,0.83203 1.10378,1.61536 1.6,2.35c1.49388,0.77786 3.49388,1.7112 6,2.8c4.2,1.8 7.46667,3.45 9.8,4.95c1.43333,0.93333 4.8,2.65 10.1,5.15c4.8,2.23333 8.01667,4.01667 9.65,5.35c0.9,0.73333 2.06667,2.83333 3.5,6.3c1.33333,3.23333 2,5.25 2,6.05c0,1.3 -0.68333,3.9 -2.05,7.8v0c0.03333,0.27995 0.05,0.56328 0.05,0.85c0,1.41159 -0.65,2.72826 -1.95,3.95c-0.65599,1.39284 -1.25599,2.32617 -1.8,2.8c-0.36185,-0.2918 -0.69518,-0.55846 -1,-0.8c-0.71081,0.41445 -1.51081,0.81445 -2.4,1.2c-4.8,2.06667 -11.33333,3.51667 -19.6,4.35h-27c-12.01289,-0.99427 -20.99622,-2.1776 -26.95,-3.55c-0.37057,0.36667 -1.05391,0.55 -2.05,0.55c-2.8,0 -6.73333,-2.23333 -11.8,-6.7c-4.6,-4.53333 -7,-6.88333 -7.2,-7.05c-5.93333,-5.4 -9,-8.21667 -9.2,-8.45c-1.03333,-1.33333 -1.55,-3.68333 -1.55,-7.05c0,-3.01875 0.38333,-8.40208 1.15,-16.15c-0.86471,0.03594 -1.69805,0.06927 -2.5,0.1c-2.69844,0.20729 -4.8151,0.50729 -6.35,0.9c-2.47708,0.63307 -4.37708,1.74974 -5.7,3.35c-0.27344,0.34987 -0.52344,0.71654 -0.75,1.1c-0.83333,1.46667 -1.88333,4.65 -3.15,9.55c-1.56667,6.33333 -3.21667,11.8 -4.95,16.4c-1.9,5.23333 -7.11667,9.71667 -15.65,13.45c-16.03333,7.03333 -41.65,10.55 -76.85,10.55c-19.33333,0 -31.58333,-2.33333 -36.75,-7c-1.73333,-1.53333 -2.66667,-3.35 -2.8,-5.45c0.2,-2.1 0.3,-3.41667 0.3,-3.95c0,-5.6 1.08333,-9.85 3.25,-12.75c1.83333,-2.46667 5.08333,-4.66667 9.75,-6.6c2.12188,-0.87799 5.58854,-2.19466 10.4,-3.95c1.79583,-0.63984 3.7625,-1.33984 5.9,-2.1c3.95013,-1.55065 7.80013,-3.23398 11.55,-5.05c1.56914,-2.11029 4.13581,-4.67695 7.7,-7.7c7.13333,-6.06667 11.2,-10.13333 12.2,-12.2c0.4,-0.83333 1.91667,-4.96667 4.55,-12.4c0.03099,-0.0888 0.06432,-0.1888 0.1,-0.3c-5.34049,1.63333 -11.22383,2.45 -17.65,2.45c-10.2,0 -19.53333,-4.25 -28,-12.75c-3,-3.03333 -5.53333,-6.23333 -7.6,-9.6c-1.76667,-2.9 -2.65,-4.95 -2.65,-6.15c0,-0.14635 0,-0.31302 0,-0.5c-2.64609,0.66667 -6.22943,1 -10.75,1c-9.93333,0 -16.51667,-4.66667 -19.75,-14c-1.33333,-3.83333 -2,-9.08333 -2,-15.75c0,-3.46667 0.41667,-7.33333 1.25,-11.6c0.9,-4.5 2.06667,-8.38333 3.5,-11.65c1.17682,-2.70859 2.46016,-5.17526 3.85,-7.4c1.08372,-1.74935 2.23372,-3.34935 3.45,-4.8c1.46341,-1.75156 2.93008,-3.16823 4.4,-4.25c-3.89974,-2.52604 -7.19974,-5.79271 -9.9,-9.8c-0.83164,-1.23034 -1.59831,-2.51367 -2.3,-3.85c-1.2987,-2.5599 -2.33203,-5.3099 -3.1,-8.25c-0.76667,-2.9 -1.15,-5.36667 -1.15,-7.4c0,-6.33828 1.48333,-12.95495 4.45,-19.85c1.36523,-3.16966 3.04857,-6.40299 5.05,-9.7c0.96927,-1.60195 1.96927,-3.15195 3,-4.65c-2.53138,-4.28659 -5.53138,-13.21992 -9,-26.8c-1.34297,-5.2862 -2.75964,-11.2862 -4.25,-18c-1.47526,-6.53008 -2.94193,-13.46341 -4.4,-20.8c-0.9681,7.69792 -3.00143,14.89792 -6.1,21.6c-2.51068,5.43477 -5.59401,10.05143 -9.25,13.85c-8.39492,8.73333 -19.81159,13.1 -34.25,13.1c-4.72409,0 -9.14076,-0.46667 -13.25,-1.4c-11.86198,-2.70846 -21.19531,-9.30846 -28,-19.8c-3.06667,-4.7 -5.41667,-9.9 -7.05,-15.6c-1.13333,-4 -1.7,-7.06667 -1.7,-9.2c0,-1.24831 0.05,-2.51497 0.15,-3.8c0.03776,-0.22865 0.07109,-0.46198 0.1,-0.7c0.80078,-7.42044 3.56745,-15.42044 8.3,-24c6.04102,-10.90469 13.35768,-18.52135 21.95,-22.85c0,-0.25404 0,-0.55404 0,-0.9c0,-2.36667 1.03333,-5.38333 3.1,-9.05c2.43333,-4.26667 5.46667,-7.78333 9.1,-10.55c4.54648,-3.4582 9.36315,-5.32487 14.45,-5.6c-5.57161,-5.19857 -10.45495,-11.21523 -14.65,-18.05c-5.9,-9.63333 -10.11667,-20.41667 -12.65,-32.35c-0.87839,-4.0931 -1.51172,-7.97643 -1.9,-11.65c-0.3,-2.84141 -0.45,-5.55807 -0.45,-8.15c0,-11.96667 0.78333,-22.31667 2.35,-31.05c2.33333,-12.8 6.48333,-24.11667 12.45,-33.95c5.07461,-8.33672 11.49128,-15.68672 19.25,-22.05c3.31992,-3.64466 6.80326,-6.86133 10.45,-9.65c8.86667,-6.8 19.78333,-12.01667 32.75,-15.65c0.70456,-0.2 1.40456,-0.4 2.1,-0.6c9.32839,-2.39284 19.59505,-3.54284 30.8,-3.45c1.29453,0.00742 2.57786,0.02409 3.85,0.05c0.64466,0.03607 1.27799,0.0694 1.9,0.1c-0.04062,2.69857 -0.10729,5.16523 -0.2,7.4c-0.27187,0 -0.55521,0 -0.85,0c-0.55612,0 -1.10612,0 -1.65,0c-11.96953,0.10964 -22.9862,1.39297 -33.05,3.85c-26.18047,6.40117 -45.8138,20.78451 -58.9,43.15c-6.1,10.46667 -10.46667,22.23333 -13.1,35.3c-1.37591,6.9082 -2.15924,13.4082 -2.35,19.5c-0.03333,0.99557 -0.05,1.97891 -0.05,2.95c0,2.31458 0.06667,4.59792 0.2,6.85c0.92995,16.15651 5.19661,30.87318 12.8,44.15c5.95859,10.39727 13.57526,18.89727 22.85,25.5c1.50247,0.58776 3.01914,1.28776 4.55,2.1c-0.62591,0.1599 -1.29258,0.32656 -2,0.5c-2.63268,0.6319 -4.86602,1.19857 -6.7,1.7c17.2987,12.63333 39.98203,18.95 68.05,18.95c2.86667,0 7.65,-0.56667 14.35,-1.7c7.75729,-1.34154 15.10729,-3.0582 22.05,-5.15c1.01992,-0.28724 2.01992,-0.58724 3,-0.9c11.6431,-3.72044 20.90977,-8.12044 27.8,-13.2c6.92604,-5.07786 11.44271,-10.84453 13.55,-17.3c0.74479,-2.32279 1.46146,-4.93945 2.15,-7.85c0.31615,0.05352 0.71615,0.08685 1.2,0.1c-0.89661,-0.30065 -1.99661,-0.55065 -3.3,-0.75c-1.13945,-0.16836 -2.25612,-0.26836 -3.35,-0.3c0.41367,-1.00625 0.84701,-2.07292 1.3,-3.2c0.62539,-1.56367 1.19206,-3.24701 1.7,-5.05c1.6819,-5.84089 2.76523,-12.90755 3.25,-21.2c0.24401,-3.96393 0.46068,-7.4806 0.65,-10.55c0.05104,-0.54714 0.08437,-1.08047 0.1,-1.6c0.23828,-3.45938 0.43828,-6.29271 0.6,-8.5c-1.58099,1.76992 -3.28099,3.48659 -5.1,5.15c0.03333,0.2707 0.05,0.55404 0.05,0.85c0,3.77604 -0.98333,9.60938 -2.95,17.5c-0.46081,1.87383 -0.97747,3.85716 -1.55,5.95c-1.08242,3.90195 -2.08242,7.28529 -3,10.15c-1.35482,4.32969 -2.52148,7.51302 -3.5,9.55c-1.93333,6.83333 -5.96667,13.15 -12.1,18.95c-12,11.36667 -29.8,17.05 -53.4,17.05c-26.45013,0 -46.65013,-8.15 -60.6,-24.45c-3.28789,4.96667 -5.25456,7.45 -5.9,7.45c-1.03333,0 -1.71667,-0.08333 -2.05,-0.25l-0.2,-0.25c-0.33333,-0.2 -0.56667,-0.35 -0.7,-0.45c-0.2,-0.2 -0.3,-0.8 -0.3,-1.8c0,-0.33333 0.81667,-2.06667 2.45,-5.2c0.88151,-1.68424 1.74818,-3.26758 2.6,-4.75c-0.85885,-1.22917 -1.69219,-2.49583 -2.5,-3.8c-2.81068,-4.52161 -5.17734,-9.37161 -7.1,-14.55c-5.30872,4.65326 -8.54206,7.25326 -9.7,7.8c-0.96667,-0.33333 -1.56667,-0.6 -1.8,-0.8c-0.46667,-0.43333 -0.7,-1.21667 -0.7,-2.35c0,-0.8 1.11667,-2.46667 3.35,-5c2.05339,-2.29492 4.27005,-4.44492 6.65,-6.45c-0.31836,-1.1306 -0.61836,-2.2806 -0.9,-3.45c-0.05534,-0.23424 -0.12201,-0.46758 -0.2,-0.7c-1.26667,-5.62591 -1.9,-10.37591 -1.9,-14.25c0,-15.10573 3.55,-27.35573 10.65,-36.75c0.59128,-0.75781 1.20794,-1.50781 1.85,-2.25c4.33333,-5.06667 7.96667,-7.41667 10.9,-7.05v0c2.34089,0.3487 4.50755,2.5487 6.5,6.6c0.4457,0.90404 0.96237,2.05404 1.55,3.45c1.04323,-7.90534 2.72656,-12.48867 5.05,-13.75c0.96667,0.4 1.53333,0.66667 1.7,0.8c0.53333,0.43333 0.8,1.2 0.8,2.3c0,2.36667 -0.3,4.91667 -0.9,7.65c-1.13333,5.03333 -1.75,7.86667 -1.85,8.5c-0.25716,1.42878 -0.19049,3.56211 0.2,6.4c1.66094,3.17799 3.34427,5.37799 5.05,6.6l-0.5,0.75c-0.47096,-0.29388 -0.93763,-0.61055 -1.4,-0.95c1.10586,1.68581 2.23919,3.31914 3.4,4.9c0.0875,-1.90143 0.35417,-3.53477 0.8,-4.9c0.95573,-2.99479 2.65573,-4.51146 5.1,-4.55c0.11693,-0.00443 0.23359,-0.00443 0.35,0l0.25,-0.2c0.16667,0.1 0.25,0.66667 0.25,1.7c0,0.41042 -0.03333,0.87708 -0.1,1.4c-0.11667,1.49766 -0.43333,3.46432 -0.95,5.9c-0.65365,2.95716 -1.18698,4.87383 -1.6,5.75c4.30247,5.10378 8.75247,9.35378 13.35,12.75c9.2099,6.8 19.0099,10.2 29.4,10.2c6.60195,0 13.70195,-1.23333 21.3,-3.7c5.75703,-1.83307 11.79036,-4.36641 18.1,-7.6c11.86667,-6.1 20.95,-12.33333 27.25,-18.7c4.03333,-4.03333 7.51667,-10.15 10.45,-18.35c1.36042,-3.8293 2.37708,-7.41263 3.05,-10.75c0.66667,-3.28854 1,-6.33854 1,-9.15c0,-2.22799 -0.8,-5.62799 -2.4,-10.2c-0.89674,-2.60833 -2.06341,-5.60833 -3.5,-9c0.87552,-1.33724 1.97552,-2.92057 3.3,-4.75c0.22305,-0.30117 0.43971,-0.60117 0.65,-0.9c1.92383,3.78438 3.50716,7.23438 4.75,10.35c0.86068,2.16003 1.56068,4.16003 2.1,6c0.9,3.06758 1.35,5.68424 1.35,7.85c0,3.21185 -0.23333,6.34518 -0.7,9.4c-0.77083,5.49818 -2.27083,10.73151 -4.5,15.7c-2.26328,5.05482 -5.26328,9.83815 -9,14.35c0.2901,0.91549 0.55677,2.01549 0.8,3.3c0.0487,0.2944 0.0987,0.5944 0.15,0.9c0.06198,0.36341 0.11198,0.71341 0.15,1.05c0.4,2.42747 0.6,4.32747 0.6,5.7c0,6.53333 -0.85,15.08333 -2.55,25.65c-0.42396,2.61185 -0.85729,5.09518 -1.3,7.45c-0.3849,2.01992 -0.7849,3.93659 -1.2,5.75c3.17487,-2.18711 10.1082,-5.85378 20.8,-11c12.87721,-6.20521 23.06055,-10.48854 30.55,-12.85c0.08464,-0.16654 0.16797,-0.3332 0.25,-0.5c-0.28034,-0.00143 -0.56367,-0.0181 -0.85,-0.05c-2.21693,-0.04518 -4.31693,-0.31185 -6.3,-0.8c-5.48385,-1.31185 -10.01719,-4.22852 -13.6,-8.75c-1.95,-2.475 -3.61667,-5.44167 -5,-8.9c-1.56667,-3.93333 -2.66667,-8.3 -3.3,-13.1c-0.33333,-2.53333 -0.5,-4.8 -0.5,-6.8c0,-6.91211 1.35,-13.19544 4.05,-18.85c0.80208,-1.7013 1.71875,-3.3513 2.75,-4.95c1.78177,-2.65091 3.89844,-5.15091 6.35,-7.5c0.42201,-0.4026 0.83867,-0.8026 1.25,-1.2c3.90664,-3.45195 8.18997,-6.18529 12.85,-8.2c1.44271,-0.62435 2.92604,-1.19102 4.45,-1.7c3.30326,-1.03581 6.78659,-1.75247 10.45,-2.15c11.43333,-1.23333 21.08333,1.18333 28.95,7.25c1.1457,0.88437 2.21237,1.81771 3.2,2.8c6.63333,6.63385 9.95,15.71719 9.95,27.25c0,8.49531 -0.9,14.27865 -2.7,17.35c1.61745,0.1918 3.18411,0.47513 4.7,0.85c1.08724,0.2638 2.13724,0.5638 3.15,0.9M790,148.95l0.35,-0.35l0.25,-1.1c0.07878,-2.30742 -2.25456,-4.14076 -7,-5.5c-0.13255,-0.30768 -0.26589,-0.62435 -0.4,-0.95c-0.11628,-0.26484 -0.23294,-0.53151 -0.35,-0.8c-1.71966,-3.96849 -3.88633,-7.28516 -6.5,-9.95c1.6151,0.68424 3.1151,1.50091 4.5,2.45c2.4,1.6 4.23333,3.21667 5.5,4.85c0.5,0 0.81667,-0.1 0.95,-0.3l0.2,-0.3c0.06667,0.2 0.1,-0.11667 0.1,-0.95c0,-0.9 -0.66667,-2.08333 -2,-3.55c-1.53333,-1.66667 -3.48333,-3.15 -5.85,-4.45c-3.85898,-2.11029 -8.04232,-3.36029 -12.55,-3.75c-1.3582,-0.52878 -2.79154,-0.96211 -4.3,-1.3c-1.06419,-1.02461 -2.08086,-1.82461 -3.05,-2.4c-0.96667,-0.6 -2.15,-0.85 -3.55,-0.75c-1.53333,0.1 -2.3,0.66667 -2.3,1.7c0,0.35208 0.03333,0.58542 0.1,0.7c-2.6306,0.05247 -5.14727,0.26914 -7.55,0.65c-1.29674,-0.60625 -2.29674,-0.42292 -3,0.55c-0.60977,0.16536 -1.22643,0.33203 -1.85,0.5c0.76667,-1.73555 1.15,-2.71888 1.15,-2.95c0,-0.53333 -0.08333,-0.81667 -0.25,-0.85c-0.26667,0 -0.51667,-0.05 -0.75,-0.15c-1.32878,1.56771 -2.44544,3.21771 -3.35,4.95c-0.4668,0.18932 -0.93346,0.37266 -1.4,0.55c-0.20352,0.09792 -0.40352,0.18125 -0.6,0.25c-1.31341,0.58711 -2.58008,1.23711 -3.8,1.95c-0.18385,-0.31354 -0.46719,-0.54687 -0.85,-0.7c-2.29557,1.49635 -4.24557,3.41302 -5.85,5.75c-1.9724,1.92292 -3.7724,4.10625 -5.4,6.55c-0.2513,0.39648 -0.5013,0.79648 -0.75,1.2c-0.87435,1.41797 -1.67435,2.88464 -2.4,4.4c-1.30391,2.80365 -2.35391,5.78698 -3.15,8.95c-0.8,3.2 -1.2,5.75 -1.2,7.65c0,1.21081 0.05,2.41081 0.15,3.6c-0.6,2.76654 -0.9,5.19987 -0.9,7.3c0,0.8 0.18333,2.05 0.55,3.75c0.46667,2 0.95,3.28333 1.45,3.85c0.06667,-0.03333 0.23333,-0.01667 0.5,0.05c0.06667,0.03333 0.1,-0.2 0.1,-0.7c0,-1.03333 -0.33333,-2.85 -1,-5.45c-0.12982,-0.4543 -0.04648,-1.32096 0.25,-2.6c0.58997,2.48477 1.38997,4.9681 2.4,7.45c0.30885,0.75339 0.62552,1.47005 0.95,2.15c-0.13333,1.04388 -0.2,2.04388 -0.2,3c0,1.06667 0.11667,1.88333 0.35,2.45c0.3,0.8 0.93333,1.55 1.9,2.25c0.23333,-0.23333 0.4,-0.48333 0.5,-0.75c-0.13138,-0.94167 -0.19805,-1.90833 -0.2,-2.9c3.01094,4.32839 6.84427,7.06172 11.5,8.2c-0.03333,0.29102 -0.05,0.57435 -0.05,0.85c0,1.46667 0.33333,2.41667 1,2.85c0.33333,-0.06667 0.61667,-0.23333 0.85,-0.5c0.35651,-0.92448 0.72318,-1.84115 1.1,-2.75c0.78854,0.1 1.58854,0.15 2.4,0.15c0.83333,0 2.36667,-0.33333 4.6,-1c0.05885,-0.01784 0.10885,-0.03451 0.15,-0.05c0.83646,0.26667 1.63646,0.4 2.4,0.4c0.04987,0 0.09987,0 0.15,0c0.76927,-0.01393 1.43594,-0.1306 2,-0.35c0.03333,-0.16667 0.1,-0.28333 0.2,-0.35c0.08815,-0.08815 0.13815,-0.32148 0.15,-0.7c0,-0.04453 0,-0.09453 0,-0.15c-0.79414,-0.56888 -1.62747,-1.18555 -2.5,-1.85c0.86732,-0.97109 1.76732,-1.93776 2.7,-2.9c0.13841,-0.10781 0.27174,-0.22448 0.4,-0.35c1.88372,-1.85534 3.83372,-3.55534 5.85,-5.1c0.61797,0.26667 1.21797,0.4 1.8,0.4c0.36667,0 0.78333,-0.11667 1.25,-0.35c0.6,-0.33333 0.9,-0.78333 0.9,-1.35c0,-0.29023 -0.15,-0.6569 -0.45,-1.1c1.71992,-1.05052 3.46992,-2.00052 5.25,-2.85l0.8,0.25c0.24609,-0.21432 0.47943,-0.53099 0.7,-0.95c3.78112,-1.61602 7.76445,-2.78268 11.95,-3.5c0,0.0875 0,0.15417 0,0.2c0,0.4 0.08333,0.78333 0.25,1.15c0.33333,0.66667 0.86667,1 1.6,1c0.75143,0 1.43477,-0.95 2.05,-2.85c2.52435,-0.24909 4.95768,-0.31576 7.3,-0.2c0.24922,-1.82122 0.43255,-3.37122 0.55,-4.65c0.45521,0.2 0.82188,0.3 1.1,0.3c0.46667,0 0.88333,-0.15 1.25,-0.45c0.43333,-0.4 0.65,-0.91667 0.65,-1.55c0,-1.37474 -0.88333,-2.44141 -2.65,-3.2c-0.07799,-5.2181 -0.71133,-10.0681 -1.9,-14.55c0.38424,0.3237 0.86758,0.74036 1.45,1.25c0.63333,0.6 1.36667,0.9 2.2,0.9c0.5,0 0.88333,-0.1 1.15,-0.3M809.4,214.15c0,-10.7 -5.6,-18.71667 -16.8,-24.05c-4.4,-2.1 -9.06667,-3.45 -14,-4.05c-4.63333,-0.53333 -8.46667,-0.3 -11.5,0.7c-8.1,2.63333 -14.03333,7.15 -17.8,13.55c-2.8,4.76667 -4.2,10.05 -4.2,15.85c0,6.66667 2.63333,10.78333 7.9,12.35c1.5,0.43333 3.9,0.98333 7.2,1.65c1.49102,0.40208 2.82435,0.88542 4,1.45c1.17109,0.58724 2.18776,1.25391 3.05,2c1.46667,1.3 2.68333,2.95 3.65,4.95c0.56667,1.1 1.18333,2.58333 1.85,4.45c0.1,0.2 0.25,0.78333 0.45,1.75c0.3,1.1 0.75,2.03333 1.35,2.8c1.83333,2.46667 5.1,3.7 9.8,3.7c8.56667,0 15.25,-5.41667 20.05,-16.25c2.38672,-5.41797 3.92005,-10.51797 4.6,-15.3c0.26667,-1.90156 0.4,-3.75156 0.4,-5.55M838.65,399c-0.53333,0.79818 -0.8,1.71484 -0.8,2.75c0,1.76667 0.85,4.48333 2.55,8.15c0.27422,0.60169 0.54089,1.16836 0.8,1.7c0.05026,-0.03021 0.10026,-0.06354 0.15,-0.1c0.43333,0.16667 1,0.38333 1.7,0.65c0.53333,0.33333 0.8,1.03333 0.8,2.1c0,1.9 -1,5.95 -3,12.15c-1.03333,3.26667 -2.36667,7.21667 -4,11.85h-0.85c-0.33737,0.63268 -0.7207,1.21602 -1.15,1.75c-1.66667,2.1 -3.85,4.41667 -6.55,6.95c-1.5,1.4 -3.63333,3.38333 -6.4,5.95c-1.66563,1.62891 -3.03229,3.21224 -4.1,4.75c-0.46419,1.44414 -1.26419,3.17747 -2.4,5.2c-0.2,0.8457 -0.3,1.67904 -0.3,2.5c0,3.23333 0.68333,6.36667 2.05,9.4c1.8,4 4.31667,6 7.55,6c2.36667,0 8.16667,-4.01667 17.4,-12.05c8.96667,-7.8 14.96667,-13.86667 18,-18.2c2.76667,-4 4.91667,-8.93333 6.45,-14.8c1.36667,-5.23333 2.05,-10.3 2.05,-15.2c0,-6.83333 -1.6,-12.43333 -4.8,-16.8c-2.7,-3.66667 -6.21667,-6.15 -10.55,-7.45c-3.86667,-1.13333 -7.4,-1.13333 -10.6,0c-0.83229,0.29479 -1.56563,0.62812 -2.2,1c-0.06667,0.13112 -0.1,0.38112 -0.1,0.75l-0.25,0.5c-0.14922,0.29844 -0.63255,0.4651 -1.45,0.5M814.25,401.45c-0.1,-0.06667 -0.2,-0.11667 -0.3,-0.15c-3.73333,5.7 -9.8,8.55 -18.2,8.55c-9.2,0 -21.28333,-5.33333 -36.25,-16c-5.83333,-4.13333 -10.76667,-8.21667 -14.8,-12.25c0.36667,3 0.55,6.05 0.55,9.15c0,6.6 -1.58333,12.71667 -4.75,18.35c-5.23333,9.33333 -13.81667,14 -25.75,14c-5.26667,0 -11.5,-1.66667 -18.7,-5c-2.77656,-1.29049 -5.67656,-2.89049 -8.7,-4.8c-0.19258,-0.11706 -0.39258,-0.25039 -0.6,-0.4c-0.27656,-0.15508 -0.5599,-0.32174 -0.85,-0.5c-1.19857,1.61771 -2.5319,3.25104 -4,4.9c-2.42435,2.77357 -5.19102,5.59023 -8.3,8.45c-0.02799,0.02799 -0.14466,0.12799 -0.35,0.3c-0.1638,0.22578 -0.34714,0.45911 -0.55,0.7c-1.02474,1.19297 -1.89141,2.10964 -2.6,2.75c-0.20807,0.54102 -0.44141,1.15768 -0.7,1.85c-0.06667,0.26667 -0.15,0.53333 -0.25,0.8l-1.4,4.7l1.25,1.5l2.35,-0.15c0.76667,-0.23333 1.5,-0.48333 2.2,-0.75c1.7,-1.6 5.1,-4.98333 10.2,-10.15c2.49935,-2.5151 4.44935,-4.43177 5.85,-5.75c1.55651,-1.46667 2.43984,-2.2 2.65,-2.2c1.03333,0 2.03333,1 3,3c0.43828,0.8974 0.88828,1.73073 1.35,2.5c0.99049,1.69049 2.02383,3.07383 3.1,4.15c3.26667,3.2 8.2,5.6 14.8,7.2c5.2,0.6 11.06667,0.9 17.6,0.9c15.4,0 28.93333,-1.23333 40.6,-3.7c2.06628,-0.57253 3.64961,-1.03919 4.75,-1.4c0.02865,0.10182 0.04531,0.20182 0.05,0.3c3.56667,-0.96667 7.66667,-2.33333 12.3,-4.1c3.1,-1.43333 5.83333,-2.91667 8.2,-4.45c3,-1.96667 4.5,-3.35 4.5,-4.15c0,-0.13333 -0.5,-0.98333 -1.5,-2.55c-0.28984,-0.4444 -0.53984,-0.86107 -0.75,-1.25c-0.5,-0.92227 -0.75,-1.6556 -0.75,-2.2c0,-1.03333 0.3,-1.68333 0.9,-1.95c0.23333,-0.1 1.06667,-0.23333 2.5,-0.4c0.23333,-0.1 0.68333,-0.23333 1.35,-0.4c0.70404,0 1.38737,-0.01667 2.05,-0.05c0.03867,0.0013 0.07201,0.0013 0.1,0c2.26094,-0.37161 4.6276,-0.92161 7.1,-1.65c2.88971,-0.83047 5.92305,-1.89714 9.1,-3.2c-0.33333,-0.5 -0.83333,-1.06667 -1.5,-1.7c-1.31719,-0.49961 -2.51719,-0.96628 -3.6,-1.4c-1.25703,-0.51484 -2.34036,-0.98151 -3.25,-1.4M649.5,201.85c-3.2349,1.32891 -6.56823,2.52891 -10,3.6c-9.16667,2.86667 -17.05,4.3 -23.65,4.3c-16.73333,0 -31.88333,-8.06667 -45.45,-24.2c-3.20508,-3.80195 -6.05508,-7.76862 -8.55,-11.9l4,15.1c2.76667,10.4 11.08333,18.3 24.95,23.7c2.73021,1.04557 5.56354,1.94557 8.5,2.7c4.45365,0.73333 9.30365,1.1 14.55,1.1c4.15404,0 8.25404,-0.4 12.3,-1.2c0.03568,-0.30573 0.10234,-0.43906 0.2,-0.4c0.5,0.16667 0.83333,0.2 1,0.1c0.02773,0.01849 0.0444,0.03516 0.05,0.05c2.22435,-0.47799 4.42435,-1.07799 6.6,-1.8c3.89518,-1.94414 7.74518,-4.49414 11.55,-7.65c1.25365,-1.02708 2.57031,-2.19375 3.95,-3.5M628.85,223.8c-4.59922,0.96667 -9.59922,1.45 -15,1.45c-2.47878,0 -4.89544,-0.1 -7.25,-0.3c0.30026,0.92422 0.66693,2.12422 1.1,3.6c0.66667,2.2 1.3,3.76667 1.9,4.7c-2.33333,-1.83333 -4.45,-4.18333 -6.35,-7.05c-0.30456,-0.4569 -0.65456,-1.02357 -1.05,-1.7c-15.14245,-2.00755 -26.95911,-8.17422 -35.45,-18.5c-0.07214,0.07669 -0.15547,0.14336 -0.25,0.2c-1.6,0.96667 -2.4,2.06667 -2.4,3.3c0,1.70755 1.7,4.80755 5.1,9.3c3.9819,3.95039 6.86523,7.18372 8.65,9.7c0.34635,0.4724 1.17969,1.80573 2.5,4c1.42331,1.83529 2.50664,3.35195 3.25,4.55c0.7569,0.92878 1.52357,1.79544 2.3,2.6c5.76667,5.9 12.58333,8.85 20.45,8.85c7.8,0 13.96667,-3.58333 18.5,-10.75c1.43333,-2.33333 2.6,-4.88333 3.5,-7.65c0.66667,-2 1,-3.33333 1,-4c0,-0.52813 -0.16667,-1.29479 -0.5,-2.3M740.5,203.35c-3.15951,1.92018 -5.79284,3.67018 -7.9,5.25c0.52669,-0.23242 1.02669,-0.46576 1.5,-0.7c-1,3.84362 -1.5,7.87695 -1.5,12.1c0,4.63333 1.63333,9.18333 4.9,13.65c1.16263,1.58125 2.46263,3.01458 3.9,4.3c0.10781,0.10495 0.20781,0.20495 0.3,0.3c2.70169,-0.46029 5.93503,-0.99362 9.7,-1.6c-4.42409,-1.84792 -7.10742,-3.31458 -8.05,-4.4c-0.22266,-0.24896 -0.45599,-0.53229 -0.7,-0.85c-0.89596,-1.2043 -1.81263,-2.83763 -2.75,-4.9c-1.2,-2.7 -1.8,-4.78333 -1.8,-6.25c0,-6.49622 1.35,-12.46289 4.05,-17.9c-0.53047,0.32005 -1.08047,0.65339 -1.65,1M725.2,212.1c-3.81042,1.90456 -9.96042,4.88789 -18.45,8.95c-11.35951,5.43008 -17.60951,8.53008 -18.75,9.3c2.59115,-0.48138 9.50781,-1.76471 20.75,-3.85c3.24245,-0.59362 6.12578,-1.16029 8.65,-1.7c1.14609,-1.94323 2.67943,-4.4599 4.6,-7.55c1.22865,-1.97956 2.29531,-3.69622 3.2,-5.15M708.35,254.5c-8.2,2.7 -15.26667,5.01667 -21.2,6.95c-7.51458,2.43893 -12.73125,4.07227 -15.65,4.9c0.96693,1.4168 2.00026,3.0668 3.1,4.95c0.92617,1.57435 2.09284,3.57435 3.5,6c1.93073,-1.59414 3.3474,-2.52747 4.25,-2.8c1.56029,-0.4793 3.37695,-0.59596 5.45,-0.35c4.12044,0.52747 9.25378,2.51081 15.4,5.95c3.04466,1.67604 5.71133,3.40937 8,5.2c1.94622,-8.66341 4.34622,-16.41341 7.2,-23.25c1.90872,-4.50547 3.89206,-8.30547 5.95,-11.4c0.08789,-0.11784 0.17122,-0.23451 0.25,-0.35c-9.39154,2.32734 -14.8082,3.72734 -16.25,4.2M595.3,288.25c-3.63333,-0.83333 -5.86667,-1.25 -6.7,-1.25c-1.03333,0 -1.68333,0.05 -1.95,0.15c-0.1,0.06667 -0.2,0.1 -0.3,0.1c1.26667,1.26667 4.91667,2.83333 10.95,4.7c6.46667,2.03333 11.65,3.05 15.55,3.05c2.12279,0 4.02279,-0.08333 5.7,-0.25c1.8793,-0.14779 3.4793,-0.39779 4.8,-0.75c3.83333,-1 5.75,-2.8 5.75,-5.4c0,-2.96667 -0.68333,-4.71667 -2.05,-5.25c-0.10651,-0.03997 -0.22318,-0.07331 -0.35,-0.1c-1.10286,-0.23346 -2.86953,0.09987 -5.3,1c-3.56667,1.5 -6.43333,2.6 -8.6,3.3c-3.9,1.3 -7.51667,1.95 -10.85,1.95c-0.83333,0 -3.05,-0.41667 -6.65,-1.25M591.1,305.1c0,1.73333 4.41667,4.05 13.25,6.95c0.55417,0.18112 1.0875,0.34779 1.6,0.5c6.60794,2.10078 11.79128,3.30078 15.55,3.6c-1.69375,1.51992 -3.41042,3.13659 -5.15,4.85l-1.15,1.15c-0.20625,0.2332 -0.42292,0.46654 -0.65,0.7c-2.69831,0.76667 -4.81497,1.15 -6.35,1.15c-0.76667,0 -1.9,-0.2 -3.4,-0.6c-1.33333,-0.36667 -2.4,-0.5 -3.2,-0.4c1.53333,0.76667 4.23333,2.38333 8.1,4.85c0.2388,0.13672 0.47214,0.27005 0.7,0.4c-1.82409,2.68242 -3.60742,5.73242 -5.35,9.15c-1.28607,2.60951 -2.55273,5.42617 -3.8,8.45c-2.65365,6.44466 -4.52031,12.19466 -5.6,17.25c-0.7,3.39688 -1.05,6.48021 -1.05,9.25c0,2.1 0.06667,3.48333 0.2,4.15c0.05547,0.29961 0.12214,0.58294 0.2,0.85c0.0263,0.07943 0.04297,0.14609 0.05,0.2c1.23997,-1.0181 3.10664,-2.60143 5.6,-4.75v0.05c2.94414,-2.40169 6.06081,-4.58503 9.35,-6.55c2.14857,-1.28281 4.2819,-2.46615 6.4,-3.55c5.22747,-2.67891 10.36081,-4.76224 15.4,-6.25c0.32734,-0.57995 0.72734,-1.27995 1.2,-2.1c0.36706,-2.30768 1.50039,-5.30768 3.4,-9c0.65208,-1.27591 1.35208,-2.55924 2.1,-3.85c1.90182,-3.19987 4.11849,-6.39987 6.65,-9.6c1.20729,-1.54297 2.39063,-2.9763 3.55,-4.3c3.8306,-5.61576 9.6306,-9.98242 17.4,-13.1c-0.82266,-0.94701 -1.75599,-2.19701 -2.8,-3.75c-2.08216,-3.09948 -3.94883,-5.31615 -5.6,-6.65c0.02396,-0.06576 0.04062,-0.14909 0.05,-0.25c0.00755,-0.07096 0.00755,-0.1543 0,-0.25c0.02096,-0.05 0.03763,-0.1 0.05,-0.15c0.06094,-0.79193 0.1276,-1.67526 0.2,-2.65c0.08359,-0.82656 0.16693,-1.72656 0.25,-2.7c0.55208,0.21862 1.08542,0.46862 1.6,0.75c0.12422,0.08711 0.24089,0.17044 0.35,0.25c0.63099,-0.04023 1.24766,0.02643 1.85,0.2v-0.05c-0.13333,-0.53333 -0.2,-1.35 -0.2,-2.45c0,-0.02227 0,-0.0556 0,-0.1c0.00404,-0.12474 0.0207,-0.27474 0.05,-0.45v0c0.14362,-1.01602 0.67695,-2.24935 1.6,-3.7c0.86654,-1.36797 2.06654,-2.93464 3.6,-4.7c0.78932,-1.44596 1.37266,-2.69596 1.75,-3.75c0.33333,-0.97305 0.5,-1.77305 0.5,-2.4c0,-1.03333 -0.08333,-1.6 -0.25,-1.7l-0.25,0.2c-0.07422,0.04167 -0.15755,0.10833 -0.25,0.2c-0.54753,0.50977 -1.38086,1.82643 -2.5,3.95c-1.3,2.5 -3.05,4.36667 -5.25,5.6c-0.76667,0.43333 -4.16667,1.88333 -10.2,4.35c-2.53333,1.03333 -3.8,2.53333 -3.8,4.5c0,0.13802 0,0.27135 0,0.4c-1.11914,0.48789 -2.28581,1.07122 -3.5,1.75c-0.09349,0.05286 -0.19349,0.10286 -0.3,0.15l-6.9,4.1c-0.3082,0.18398 -0.6082,0.36732 -0.9,0.55c-0.21693,-0.37435 -0.50026,-0.72435 -0.85,-1.05c-0.96667,-0.83333 -2.15,-1.25 -3.55,-1.25c-0.6,0 -2.63333,0.88333 -6.1,2.65c-3.5,1.73333 -6.88333,2.6 -10.15,2.6c-0.71367,0 -2.56367,-0.18333 -5.55,-0.55c-0.08281,0.00977 -0.16615,0.00977 -0.25,0c-3.46667,-0.36667 -6.28333,-0.6 -8.45,-0.7c-2.1,0 -3.93333,-0.58333 -5.5,-1.75c-1.4,-1.33333 -2.48333,-2.16667 -3.25,-2.5l-0.25,0.75c-0.03333,-0.23333 -0.06667,-0.36667 -0.1,-0.4c-0.1,-0.03333 -0.15,0.46667 -0.15,1.5M562.1,296.15c1.38945,-1.96836 2.53945,-3.60169 3.45,-4.9c-0.05677,-0.0819 -0.12344,-0.16523 -0.2,-0.25c-0.43021,0.38932 -0.79687,0.88932 -1.1,1.5c-2.88372,-6.08568 -6.70039,-11.18568 -11.45,-15.3c-12.08203,-10.45911 -27.21536,-12.49245 -45.4,-6.1c-0.01367,0.07148 -0.03034,0.13815 -0.05,0.2c-0.61354,1.96341 -1.04687,3.89674 -1.3,5.8c1.35625,-0.28099 2.70625,-0.39766 4.05,-0.35c19.13333,-5.06667 33.61667,-1.88333 43.45,9.55c2.92891,3.43581 5.27891,7.41914 7.05,11.95c0.46719,-0.65156 0.96719,-1.35156 1.5,-2.1M557.45,315.3c0,-11.3 -3.71667,-20.2 -11.15,-26.7c-6.76667,-5.93333 -14.93333,-8.7 -24.5,-8.3c-9.73333,0.4 -17.91667,3.95 -24.55,10.65c-7.43333,7.53333 -11.15,17.56667 -11.15,30.1c0,1.4 0.31667,3.33333 0.95,5.8c0.96667,3.76667 2.41667,7.21667 4.35,10.35c5.96667,9.46667 15.33333,14.2 28.1,14.2c12.63333,0 22.41667,-4.06667 29.35,-12.2c5.73333,-6.73333 8.6,-14.7 8.6,-23.9M519.35,265.1c2.03333,-0.16667 4.53333,-0.2 7.5,-0.1c-2,-2 -3,-3.66667 -3,-5c0,-1.32695 0.46667,-2.49362 1.4,-3.5c-2.50299,0.02526 -5.26966,1.09193 -8.3,3.2c-3.3,2.26667 -5.16667,4.7 -5.6,7.3v0.5c1.53333,-1.33333 4.2,-2.13333 8,-2.4M614.35,377.3c-6.96667,3.86667 -13.5,10.95 -19.6,21.25c-5.7,9.6 -8.55,17.45 -8.55,23.55c0,4.03333 1.3,8.23333 3.9,12.6c4.46667,7.46667 11.63333,11.2 21.5,11.2c9.26667,0 19.75,-3.83333 31.45,-11.5c4.66667,-3.03333 11.4,-8.31667 20.2,-15.85c6.43333,-5.5 11.26667,-10.33333 14.5,-14.5c4.16667,-5.36667 6.25,-10.28333 6.25,-14.75c-0.00234,-4.22812 -0.36901,-7.67812 -1.1,-10.35c-0.69635,-2.64336 -6.12969,-6.31003 -16.3,-11c-10.17044,-4.69023 -19.12044,-5.6069 -26.85,-2.75c-7.73112,2.8612 -13.64779,5.42786 -17.75,7.7c-2.16667,1.2 -4.71667,2.66667 -7.65,4.4M754.65,344.1c-2.76667,0.23333 -4.15,1.95 -4.15,5.15c0,0.36667 0.36667,1.08333 1.1,2.15c1.03333,1.43333 2.33333,2.75 3.9,3.95c4.73333,3.66667 10.98333,5.5 18.75,5.5c0.6,0 1.18333,-0.25 1.75,-0.75c0.66667,-0.6 1,-1.35 1,-2.25c0,-1.23333 -1.38333,-3.03333 -4.15,-5.4c-2.73333,-2.33333 -5.76667,-4.31667 -9.1,-5.95c-3.73333,-1.83333 -6.76667,-2.63333 -9.1,-2.4M705.35,289.9c-2.07682,-1.49089 -4.39349,-2.75755 -6.95,-3.8c-0.13333,-0.06667 -3.13333,-1.1 -9,-3.1h-5c1.36667,1.36667 4.58333,4 9.65,7.9c4.98958,3.83307 8.08958,6.34974 9.3,7.55c-0.01615,-1.56198 0.46719,-3.86198 1.45,-6.9c0.18685,-0.58516 0.37018,-1.13516 0.55,-1.65M652.6,274.75c-1.96667,1.2 -5.36667,2.5 -10.2,3.9c-2.7,0.76667 -4.05,2.21667 -4.05,4.35c0,1.13333 0.16667,2.01667 0.5,2.65c0.86667,1.56667 2.7,2.35 5.5,2.35c3.1,0 7.2,-3.5 12.3,-10.5c4.63333,-6.4 6.95,-10.53333 6.95,-12.4c0,-1.03333 -0.11667,-1.53333 -0.35,-1.5l-0.4,0.4c-1.13333,0.16667 -2.56667,1.56667 -4.3,4.2c-2.03333,3.13333 -4.01667,5.31667 -5.95,6.55M701.5,354c0,2.43333 1.41667,4.75 4.25,6.95c2.36667,1.86667 5.53333,3.5 9.5,4.9h9c1.83333,-1.16667 2.75,-2.11667 2.75,-2.85c0,-1.8 -1.33333,-3.73333 -4,-5.8c-2.4,-1.86667 -5.31667,-3.43333 -8.75,-4.7c-3.46667,-1.3 -6.38333,-1.86667 -8.75,-1.7c-2.66667,0.16667 -4,1.23333 -4,3.2M665.3,428.2c0.0056,0.17982 0.0056,0.34648 0,0.5c0.02995,0.00247 0.04661,-0.01419 0.05,-0.05c-0.01094,-0.13451 -0.0276,-0.28451 -0.05,-0.45M709.8,451.95c-1.53333,-0.13333 -2.3,0.91667 -2.3,3.15c0,2.6 3.08333,7.61667 9.25,15.05c6.5,7.8 11.5,11.7 15,11.7c8.16667,-4.23333 12.25,-7.85 12.25,-10.85c0,-3.5 -0.73333,-6.53333 -2.2,-9.1c-2.4,-4.23333 -6.58333,-6.91667 -12.55,-8.05l-1.25,0.25c0.1,1.16667 0.75,2.95 1.95,5.35c1.4,2.86667 2.16667,4.5 2.3,4.9c-2.3,-0.8 -5.13333,-2.26667 -8.5,-4.4c-3.73333,-2.5 -6.4,-4.25 -8,-5.25c-2.73333,-1.73333 -4.71667,-2.65 -5.95,-2.75M755.2,122.25c-0.03086,0 -0.06419,0 -0.1,0c0.40391,-0.11992 0.87057,-0.11992 1.4,0c-0.43216,0 -0.86549,0 -1.3,0z" fill="#000000"/><path d="M774.1,503.25c0,2.86667 -1.4,6.88333 -4.2,12.05c-2.76667,5.16667 -5.61667,9.06667 -8.55,11.7c-4.76667,-5.36667 -12.23333,-10.43333 -22.4,-15.2c-9.47318,-3.98034 -16.97318,-7.34701 -22.5,-10.1c-1.30378,0.84102 -3.38711,2.19102 -6.25,4.05c-5.63333,3.33333 -9.75,5 -12.35,5c-11.33333,0 -18.55,-0.4 -21.65,-1.2c-2.94766,-0.74518 -5.38099,-2.06185 -7.3,-3.95c-0.54219,3.75286 -1.54219,7.31953 -3,10.7c-1.52708,3.48672 -3.44375,6.30339 -5.75,8.45c-3.74245,3.5 -8.50911,5.25 -14.3,5.25c-4.5,0 -9.9,-1.75 -16.2,-5.25c-5.93333,-3.83333 -9.45,-6.08333 -10.55,-6.75c-2.9819,0 -5.59857,0.33333 -7.85,1c-0.76784,-1.42474 -1.61784,-3.09141 -2.55,-5c-0.04375,-0.08958 -0.09375,-0.18958 -0.15,-0.3c3.32409,-0.96667 6.09076,-1.45 8.3,-1.45c4.2,0 9.36667,1.88333 15.5,5.65c6.13333,3.73333 10.58333,5.6 13.35,5.6c2.32721,0 4.42721,-0.41667 6.3,-1.25c4.09336,-1.75716 7.14336,-5.44049 9.15,-11.05c0.93333,-2.56667 1.56667,-5.41667 1.9,-8.55c0.2,-2.63333 0.3,-3.98333 0.3,-4.05c0,-0.13646 0,-0.26979 0,-0.4c2.59049,1.0362 5.04049,1.80286 7.35,2.3c0.30169,0.43503 0.48503,0.68503 0.55,0.75c2.9,2.66667 11.26667,4 25.1,4c2,0 6.13333,-1.83333 12.4,-5.5c1.4401,-0.88997 2.70677,-1.67331 3.8,-2.35c-0.02539,-0.09062 -0.02539,-0.17396 0,-0.25c0.05221,-0.20859 0.40221,-0.34193 1.05,-0.4c2.7431,-1.66667 4.15977,-2.5 4.25,-2.5c0.08503,0 2.28503,0.66667 6.6,2c0.89831,0.51654 1.83164,1.06654 2.8,1.65c5.21016,3.14141 9.24349,5.54141 12.1,7.2c-1.30508,-0.1194 -2.57174,-0.25273 -3.8,-0.4c0.60208,0.32422 1.21875,0.65755 1.85,1c9.66667,5.23333 17.56667,10.25 23.7,15.05c2.93333,-2.8 5.4,-7.08333 7.4,-12.85c0.20924,-0.73633 0.40924,-1.45299 0.6,-2.15c1.94987,-2.19922 3.89987,-5.64922 5.85,-10.35c7.66589,-3.65951 15.24922,-9.65951 22.75,-18c3.80651,-4.23281 7.65651,-9.18281 11.55,-14.85c-0.23333,2.24844 -0.35,4.4151 -0.35,6.5c0,1.49583 0,2.7125 0,3.65c-2.76094,3.69674 -5.86094,7.29674 -9.3,10.8c-8.5612,8.71784 -17.07786,14.86784 -25.55,18.45c0.03333,0.42604 0.05,0.85938 0.05,1.3M664.1,353.9c1.80651,0.55365 3.50651,1.10365 5.1,1.65c3.94609,1.34388 7.31276,2.67721 10.1,4c0.86836,0.41133 1.70169,0.82799 2.5,1.25c10.36667,5.53529 15.55,12.60195 15.55,21.2c0,6.26667 -1.11667,12.11667 -3.35,17.55c-1.31797,3.16302 -3.71797,7.57969 -7.2,13.25c-1.38437,-1.38164 -3.15104,-3.01497 -5.3,-4.9c1.16029,-1.55638 2.16029,-3.00638 3,-4.35c4.06667,-6.46667 6.1,-12.81667 6.1,-19.05c0,-3.73333 -2.11667,-7.78333 -6.35,-12.15c-2.24089,-2.30859 -4.84089,-4.34193 -7.8,-6.1c-2.97682,-1.78802 -6.32682,-3.30469 -10.05,-4.55c-2.2138,-0.72135 -4.53047,-1.27135 -6.95,-1.65c0.22891,-0.5957 0.44557,-1.17904 0.65,-1.75c0.13893,-0.37474 0.27227,-0.74141 0.4,-1.1c0.37969,-0.97474 0.72969,-1.87474 1.05,-2.7c0.58997,0.11979 1.15664,0.23646 1.7,0.35c0.18789,-0.34948 0.37122,-0.69948 0.55,-1.05c0.1013,0.03672 0.2013,0.07005 0.3,0.1M684.75,227.65c-0.68854,2.91055 -1.40521,5.52721 -2.15,7.85c-2.10729,6.45547 -6.62396,12.22214 -13.55,17.3c-6.89023,5.07956 -16.1569,9.47956 -27.8,13.2c-0.98008,0.31276 -1.98008,0.61276 -3,0.9c-6.94271,2.0918 -14.29271,3.80846 -22.05,5.15c-6.7,1.13333 -11.48333,1.7 -14.35,1.7c-28.06797,0 -50.7513,-6.31667 -68.05,-18.95c1.83398,-0.50143 4.06732,-1.0681 6.7,-1.7c0.70742,-0.17344 1.37409,-0.3401 2,-0.5c1.18464,0.64935 2.38464,1.36602 3.6,2.15c-0.0862,0.25872 -0.16953,0.47539 -0.25,0.65c14.99896,8.23333 33.61563,12.35 55.85,12.35c23.93333,0 44.73333,-6.08333 62.4,-18.25c2.13125,-1.46628 4.09792,-3.26628 5.9,-5.4c1.73372,-2.04583 3.31706,-4.39583 4.75,-7.05c0.92201,-1.73229 2.43867,-5.18229 4.55,-10.35c1.09388,0.03164 2.21055,0.13164 3.35,0.3c1.30339,0.19935 2.40339,0.44935 3.3,0.75c-0.48385,-0.01315 -0.88385,-0.04648 -1.2,-0.1M677.45,84.4c2.65586,2.3069 4.97253,4.7569 6.95,7.35c2.75208,3.5724 5.36875,8.1724 7.85,13.8c0.5582,1.02539 1.12487,2.09206 1.7,3.2c0.33255,0.64154 0.64922,1.27487 0.95,1.9c-0.21029,0.29883 -0.42695,0.59883 -0.65,0.9c-1.32448,1.82943 -2.42448,3.41276 -3.3,4.75c-0.88581,-2.09115 -1.86914,-4.32448 -2.95,-6.7c-1.73034,-3.58112 -3.24701,-6.73112 -4.55,-9.45c-1.88346,-2.5918 -3.85013,-5.02513 -5.9,-7.3c-1.29857,-1.20534 -2.64857,-2.43867 -4.05,-3.7c-2.83724,-2.58359 -5.27057,-4.65026 -7.3,-6.2c-2.19362,-1.69622 -3.89362,-2.76289 -5.1,-3.2c-8.16667,-2.9 -15.25,-5.06667 -21.25,-6.5c-7.46563,-1.79896 -14.94896,-3.11562 -22.45,-3.95c-1.69219,-0.02878 -3.47552,-0.04544 -5.35,-0.05c0.09271,-2.23477 0.15938,-4.70143 0.2,-7.4c9.60573,0.41406 18.95573,1.7474 28.05,4c11.16667,2.76667 20.56667,6.56667 28.2,11.4c1.6849,1.07982 3.2349,2.17982 4.65,3.3c1.60195,1.26549 3.03529,2.54883 4.3,3.85M827.7,327.6c7.6,9.91211 11.4,22.62878 11.4,38.15c0,1.9612 -0.28333,4.6112 -0.85,7.95c-2.83151,2.19792 -5.14818,3.94792 -6.95,5.25c0.11068,-0.42487 0.21068,-0.8582 0.3,-1.3c1.33333,-6.53333 2,-10.58333 2,-12.15c0,-10.63333 -2.58333,-20.38333 -7.75,-29.25c-0.62122,-1.06875 -1.27122,-2.10208 -1.95,-3.1c-8.49948,-12.43398 -21.68281,-19.31732 -39.55,-20.65c-1.79258,-0.13932 -3.64258,-0.22266 -5.55,-0.25c-0.35768,0 -0.72435,0 -1.1,0c-6.26107,0 -11.82773,0.35 -16.7,1.05c-5.96745,0.86523 -10.86745,2.26523 -14.7,4.2c-1.16667,0.6 -3.08333,1.8 -5.75,3.6c-1.03659,0.71263 -1.98659,1.19596 -2.85,1.45c-0.47747,0.13333 -0.92747,0.2 -1.35,0.2c-0.8,0 -2.16667,-0.38333 -4.1,-1.15c-3.06667,-1.23333 -5.36667,-2.1 -6.9,-2.6c-4.05625,-1.31133 -8.52292,-2.27799 -13.4,-2.9c-4.41237,-0.56667 -9.16237,-0.85 -14.25,-0.85c-9.57604,0 -17.34271,0.7 -23.3,2.1c-0.04492,-0.11237 -0.09492,-0.22904 -0.15,-0.35c-0.53711,-1.58438 -1.07044,-3.13437 -1.6,-4.65c0.13945,-0.03372 0.27279,-0.06706 0.4,-0.1c0.76354,-0.20755 1.54688,-0.40755 2.35,-0.6c6.76667,-1.6 14.25,-2.4 22.45,-2.4c4.17682,0 8.01016,0.13333 11.5,0.4c-0.06094,-0.19727 -0.1276,-0.41393 -0.2,-0.65c-0.53333,-2.36667 -0.8,-3.58333 -0.8,-3.65c0,-3.1888 0.45,-7.35547 1.35,-12.5c-0.68073,-0.35964 -1.4474,-0.80964 -2.3,-1.35c-0.31576,-0.18438 -0.64909,-0.38437 -1,-0.6c0.17617,0.06432 0.34284,0.13099 0.5,0.2c2.00078,0.78711 4.73411,1.78711 8.2,3c-0.15495,0.9724 -0.30495,1.95573 -0.45,2.95c-0.44987,3.12135 -1.01654,7.45469 -1.7,13c0.6974,0.08216 1.36406,0.16549 2,0.25c1.40208,0.21615 2.71875,0.44948 3.95,0.7c2.35729,0.4862 4.47396,1.06953 6.35,1.75c1.63333,0.6 3.55,1.4 5.75,2.4c1.8,0.73333 3.5,1.1 5.1,1.1c0.4,0 4.13333,-1.33333 11.2,-4c7.6,-2.86667 14.95,-4.7 22.05,-5.5c2.57318,-0.12109 5.07318,-0.17109 7.5,-0.15c3.08047,0.03568 6.04714,0.18568 8.9,0.45l-0.05,-0.05c1.39362,0.35417 3.06029,0.6875 5,1c0.99948,0.15443 2.06615,0.30443 3.2,0.45c1.11641,0.1375 2.14974,0.25417 3.1,0.35c12.40807,2.90911 22.17474,8.59245 29.3,17.05c0.48997,0.5819 0.95664,1.16523 1.4,1.75M560.6,298.25c-1.77109,-4.53086 -4.12109,-8.51419 -7.05,-11.95c-9.83333,-11.43333 -24.31667,-14.61667 -43.45,-9.55c-1.34375,-0.04766 -2.69375,0.06901 -4.05,0.35c0.25312,-1.90326 0.68646,-3.83659 1.3,-5.8c0.01966,-0.06185 0.03633,-0.12852 0.05,-0.2c18.18464,-6.39245 33.31797,-4.35911 45.4,6.1c4.74961,4.11432 8.56628,9.21432 11.45,15.3c0.30313,-0.61068 0.66979,-1.11068 1.1,-1.5c0.07656,0.08477 0.14323,0.1681 0.2,0.25c-0.91055,1.29831 -2.06055,2.93164 -3.45,4.9c-0.53281,0.74844 -1.03281,1.44844 -1.5,2.1M614.55,322.85c0.22708,-0.23346 0.44375,-0.4668 0.65,-0.7l1.15,-1.15c1.73958,-1.71341 3.45625,-3.33008 5.15,-4.85c2.6207,-2.32279 5.18737,-4.40612 7.7,-6.25c1.75404,-1.28307 3.7707,-2.64974 6.05,-4.1v0c0.2918,-0.18268 0.5918,-0.36602 0.9,-0.55l6.9,-4.1c0.10651,-0.04714 0.20651,-0.09714 0.3,-0.15c1.21419,-0.67878 2.38086,-1.26211 3.5,-1.75c3.96055,-1.66914 7.41055,-2.13581 10.35,-1.4c0.35599,0.09062 0.70599,0.19062 1.05,0.3c-0.08307,0.97344 -0.16641,1.87344 -0.25,2.7c-0.0724,0.97474 -0.13906,1.85807 -0.2,2.65c-0.01237,0.05 -0.02904,0.1 -0.05,0.15c0.00755,0.0957 0.00755,0.17904 0,0.25c-0.00937,0.10091 -0.02604,0.18424 -0.05,0.25c-0.64323,-0.52487 -1.2599,-0.9082 -1.85,-1.15c-2.65768,0.92917 -5.22435,1.9125 -7.7,2.95c-9.33932,4.04128 -17.32266,9.00794 -23.95,14.9c-3.30742,2.95625 -6.27409,6.13958 -8.9,9.55c-1.45495,1.87734 -2.80495,3.82734 -4.05,5.85c-0.90833,1.47539 -1.75833,2.97539 -2.55,4.5c-3.54245,6.87969 -5.92578,14.34635 -7.15,22.4c-0.0918,0.72344 -0.1918,1.4401 -0.3,2.15c-0.28971,2.45547 -0.48971,4.95547 -0.6,7.5c-2.49336,2.14857 -4.36003,3.7319 -5.6,4.75c-0.00703,-0.05391 -0.0237,-0.12057 -0.05,-0.2c-0.07786,-0.26706 -0.14453,-0.55039 -0.2,-0.85c-0.13333,-0.66667 -0.2,-2.05 -0.2,-4.15c0,-2.76979 0.35,-5.85312 1.05,-9.25c1.07969,-5.05534 2.94635,-10.80534 5.6,-17.25c1.24727,-3.02383 2.51393,-5.84049 3.8,-8.45c1.74258,-3.41758 3.52591,-6.46758 5.35,-9.15c1.35911,-1.99648 2.74245,-3.79648 4.15,-5.4M738.1,220.25c0,1.46667 0.6,3.55 1.8,6.25c0.93737,2.06237 1.85404,3.6957 2.75,4.9c0.24401,0.31771 0.47734,0.60104 0.7,0.85c0.94258,1.08542 3.62591,2.55208 8.05,4.4c-3.76497,0.60638 -6.99831,1.13971 -9.7,1.6c-0.09219,-0.09505 -0.19219,-0.19505 -0.3,-0.3c-1.43737,-1.28542 -2.73737,-2.71875 -3.9,-4.3c-3.26667,-4.46667 -4.9,-9.01667 -4.9,-13.65c0,-4.22305 0.5,-8.25638 1.5,-12.1c-0.47331,0.23424 -0.97331,0.46758 -1.5,0.7c2.10716,-1.57982 4.74049,-3.32982 7.9,-5.25c0.56953,-0.34661 1.11953,-0.67995 1.65,-1c-2.7,5.43711 -4.05,11.40378 -4.05,17.9z" fill="#210c2a"/><path d="M740.55,321.1c2.66667,-1.8 4.58333,-3 5.75,-3.6c3.83255,-1.93477 8.73255,-3.33477 14.7,-4.2c-0.03776,0.04961 -0.08776,0.09961 -0.15,0.15c-5.03333,4.06667 -8.53333,9.25 -10.5,15.55c-3.86667,-2.03333 -7.35,-3.81667 -10.45,-5.35c-0.76497,-0.38685 -1.49831,-0.75352 -2.2,-1.1c0.86341,-0.25404 1.81341,-0.73737 2.85,-1.45M815.65,415.15c0.92643,1.04128 2.17643,2.44128 3.75,4.2c2.56667,2.83333 3.88333,4.73333 3.95,5.7c-3.13333,2.3 -6.41667,3.91667 -9.85,4.85c-3.43333,0.66667 -5.76667,1.16667 -7,1.5c-2.03333,0.53333 -3.45,1.61667 -4.25,3.25c-0.93333,2 -1.4,5.46667 -1.4,10.4c0,7.66667 2.83333,11.5 8.5,11.5c0.72344,0 1.42344,-0.03333 2.1,-0.1c-0.66055,1.55221 -1.14388,3.21888 -1.45,5c-0.2487,0.38294 -0.4987,0.74961 -0.75,1.1c-3.89349,5.66719 -7.74349,10.61719 -11.55,14.85c-7.50078,8.34049 -15.08411,14.34049 -22.75,18c-0.68346,0.34336 -1.3668,0.66003 -2.05,0.95c-0.09466,-0.21042 -0.19466,-0.41042 -0.3,-0.6c-0.13138,0.26276 -0.28138,0.56276 -0.45,0.9c-5.10078,2.06667 -10.25078,3.1 -15.45,3.1c-11.53333,0 -21.45,-0.91667 -29.75,-2.75c-0.89206,-0.27409 -1.72539,-0.52409 -2.5,-0.75c-4.31497,-1.33333 -6.51497,-2 -6.6,-2c-0.09023,0 -1.5069,0.83333 -4.25,2.5c-0.64779,0.05807 -0.99779,0.19141 -1.05,0.4c-0.02539,0.07604 -0.02539,0.15938 0,0.25c-1.09323,0.67669 -2.3599,1.46003 -3.8,2.35c-6.26667,3.66667 -10.4,5.5 -12.4,5.5c-13.83333,0 -22.2,-1.33333 -25.1,-4c-0.06497,-0.06497 -0.24831,-0.31497 -0.55,-0.75c-0.28672,-0.46224 -0.70339,-1.12891 -1.25,-2c-0.0319,-0.05312 -0.06523,-0.10312 -0.1,-0.15c-0.03971,-6.48281 -0.65638,-10.96615 -1.85,-13.45c-2.23333,-4.56667 -7.2,-7.86667 -14.9,-9.9c-11.6,-3.06667 -19.13333,-6.81667 -22.6,-11.25c-1.6,-2.53333 -2.86667,-4.43333 -3.8,-5.7c-0.18346,-0.26211 -0.38346,-0.52878 -0.6,-0.8c8.3944,-2.25768 17.7944,-7.15768 28.2,-14.7c3.02331,-2.2026 6.03997,-4.56927 9.05,-7.1c-0.26654,0.86198 -0.54987,1.79531 -0.85,2.8c0,0.55417 0,1.57083 0,3.05c0.5,2.2 2.08333,3.3 4.75,3.3c1.66667,0 3.46667,-0.36667 5.4,-1.1c2.6,-0.46667 5.7,-2.18333 9.3,-5.15c1.3,2.93333 3.9,6.78333 7.8,11.55c3.13333,3.76667 7.21667,8.41667 12.25,13.95c0.2,0.26667 1.33333,1.9 3.4,4.9c2.5,3.36667 5,6.4 7.5,9.1c7.86667,8.5 14.98333,12.75 21.35,12.75c7.7,0 17.2,-8.75 28.5,-26.25c4.16667,-6.46667 7.8,-12.96667 10.9,-19.5c0.7,-1.46667 1.31667,-2.8 1.85,-4c5.7,-1.53333 11.13333,-3.45 16.3,-5.75c5.4,-2.43333 9.86667,-5.01667 13.4,-7.75c2.66667,-2.1 4.16667,-3.73333 4.5,-4.9c0.36667,-0.53333 0.55,-0.98333 0.55,-1.35c0,-1.03333 -0.18333,-2.03333 -0.55,-3c-0.36667,-0.76667 -0.63333,-1.36667 -0.8,-1.8c2.03333,-0.26667 3.91667,-0.56667 5.65,-0.9c0.55703,-0.07201 1.09036,-0.15534 1.6,-0.25M820.2,396.25c-1.24258,-0.44544 -2.40924,-0.84544 -3.5,-1.2c0.86667,-3.03333 1.3,-6.51667 1.3,-10.45c0,-1.66628 -0.1,-3.31628 -0.3,-4.95c2.1,4.25521 3.15,8.30521 3.15,12.15c0,1.39466 -0.21667,2.87799 -0.65,4.45M816.65,404.45c-1.02747,1.80104 -2.07747,3.36771 -3.15,4.7c-2.4724,0.72839 -4.83906,1.27839 -7.1,1.65c-0.02799,0.0013 -0.06133,0.0013 -0.1,0c-0.66263,0.03333 -1.34596,0.05 -2.05,0.05c-0.66667,0.16667 -1.11667,0.3 -1.35,0.4c-1.43333,0.16667 -2.26667,0.3 -2.5,0.4c-0.6,0.26667 -0.9,0.91667 -0.9,1.95c0,0.5444 0.25,1.27773 0.75,2.2c-2.09115,0.83333 -4.89115,1.25 -8.4,1.25c-7.3,0 -14.45,-1.81667 -21.45,-5.45c-6.93333,-3.63333 -12.95,-8.65 -18.05,-15.05c0,0.33333 -0.16667,0.5 -0.5,0.5c-0.43333,8.13333 -4.13333,15.63333 -11.1,22.5c-7.06667,7 -14.7,10.5 -22.9,10.5c-6.09961,0 -13.18294,-1.73333 -21.25,-5.2c-0.46172,-0.76927 -0.91172,-1.6026 -1.35,-2.5c-0.96667,-2 -1.96667,-3 -3,-3c-0.21016,0 -1.09349,0.73333 -2.65,2.2c-2.47591,-1.27552 -5.04258,-2.69219 -7.7,-4.25c1.4681,-1.64896 2.80143,-3.28229 4,-4.9c0.2901,0.17826 0.57344,0.34492 0.85,0.5c0.20742,0.14961 0.40742,0.28294 0.6,0.4c3.02344,1.90951 5.92344,3.50951 8.7,4.8c7.2,3.33333 13.43333,5 18.7,5c11.93333,0 20.51667,-4.66667 25.75,-14c3.16667,-5.63333 4.75,-11.75 4.75,-18.35c0,-3.1 -0.18333,-6.15 -0.55,-9.15c4.03333,4.03333 8.96667,8.11667 14.8,12.25c14.96667,10.66667 27.05,16 36.25,16c8.4,0 14.46667,-2.85 18.2,-8.55c0.1,0.03333 0.2,0.08333 0.3,0.15c0.90964,0.41849 1.99297,0.88516 3.25,1.4c-0.25599,0.52669 -0.53932,1.06003 -0.85,1.6z" fill="#c7463f"/><path d="M675,216.5c0.15964,0.06081 0.30964,0.11081 0.45,0.15c2.83555,1.06628 5.11888,1.66628 6.85,1.8c-0.50794,1.80299 -1.07461,3.48633 -1.7,5.05c-0.45299,1.12708 -0.88633,2.19375 -1.3,3.2c-2.11133,5.16771 -3.62799,8.61771 -4.55,10.35c-1.43294,2.65417 -3.01628,5.00417 -4.75,7.05c-1.80208,2.13372 -3.76875,3.93372 -5.9,5.4c-17.66667,12.16667 -38.46667,18.25 -62.4,18.25c-22.23437,0 -40.85104,-4.11667 -55.85,-12.35c0.08047,-0.17461 0.1638,-0.39128 0.25,-0.65c-1.21536,-0.78398 -2.41536,-1.50065 -3.6,-2.15c-1.53086,-0.81224 -3.04753,-1.51224 -4.55,-2.1c-9.27474,-6.60273 -16.89141,-15.10273 -22.85,-25.5c-7.60339,-13.27682 -11.87005,-27.99349 -12.8,-44.15c-0.13333,-2.25208 -0.2,-4.53542 -0.2,-6.85c0,-0.97109 0.01667,-1.95443 0.05,-2.95c1.06068,2.15716 2.26068,4.32383 3.6,6.5c3.59544,5.75417 8.21211,11.5875 13.85,17.5c2.77669,2.88919 5.49336,5.45586 8.15,7.7c0.07799,0.23242 0.14466,0.46576 0.2,0.7c0.28164,1.1694 0.58164,2.3194 0.9,3.45c-2.37995,2.00508 -4.59661,4.15508 -6.65,6.45c-2.23333,2.53333 -3.35,4.2 -3.35,5c0,1.13333 0.23333,1.91667 0.7,2.35c0.23333,0.2 0.83333,0.46667 1.8,0.8c1.15794,-0.54674 4.39128,-3.14674 9.7,-7.8c1.92266,5.17839 4.28932,10.02839 7.1,14.55c0.80781,1.30417 1.64115,2.57083 2.5,3.8c-0.85182,1.48242 -1.71849,3.06576 -2.6,4.75c-1.63333,3.13333 -2.45,4.86667 -2.45,5.2c0,1 0.1,1.6 0.3,1.8c0.13333,0.1 0.36667,0.25 0.7,0.45l0.2,0.25c0.33333,0.16667 1.01667,0.25 2.05,0.25c0.64544,0 2.61211,-2.48333 5.9,-7.45c13.94987,16.3 34.14987,24.45 60.6,24.45c23.6,0 41.4,-5.68333 53.4,-17.05c6.13333,-5.8 10.16667,-12.11667 12.1,-18.95c0.97852,-2.03698 2.14518,-5.22031 3.5,-9.55c0.21289,0.10625 0.42956,0.20625 0.65,0.3M681.8,181.75c1.81901,-1.66341 3.51901,-3.38008 5.1,-5.15c-0.16172,2.20729 -0.36172,5.04062 -0.6,8.5c-0.01562,0.51953 -0.04896,1.05286 -0.1,1.6c-0.79583,1.51458 -1.57917,2.96458 -2.35,4.35c-1.8181,3.39596 -3.4681,6.41263 -4.95,9.05c1.96667,-7.89062 2.95,-13.72396 2.95,-17.5c0,-0.29596 -0.01667,-0.5793 -0.05,-0.85M685.25,129.5c-0.00026,-1.80898 -0.01693,-3.47565 -0.05,-5c1.76667,3.78542 2.65,7.95208 2.65,12.5c0,2.24453 -0.2,4.7112 -0.6,7.4c-0.29661,1.97122 -0.69661,4.05456 -1.2,6.25c-1.4,5.93333 -3.28333,11.38333 -5.65,16.35c-6.23333,13 -14.16667,19.5 -23.8,19.5c-3,0 -5.56667,-0.4 -7.7,-1.2c-2.53333,-0.96667 -4.05,-2.4 -4.55,-4.3c-1.13333,6.23333 -2.15,10.41667 -3.05,12.55c-1.10495,2.58346 -2.53828,4.75013 -4.3,6.5c-7.59805,2.46667 -14.69805,3.7 -21.3,3.7c-10.3901,0 -20.1901,-3.4 -29.4,-10.2c-2.4181,-3.22435 -4.4681,-6.74102 -6.15,-10.55c-1.45443,-3.29961 -3.00443,-7.91628 -4.65,-13.85c0.06667,-0.52292 0.1,-0.98958 0.1,-1.4c0,-1.03333 -0.08333,-1.6 -0.25,-1.7l-0.25,0.2c-0.11641,-0.00443 -0.23307,-0.00443 -0.35,0c-0.6194,-2.39727 -1.25273,-4.9806 -1.9,-7.75v-0.5c1.45651,4.69857 3.58984,9.44857 6.4,14.25c0.5,0.9 1.46667,2.33333 2.9,4.3c0.8,1.1 1.63333,2.15 2.5,3.15c7.43333,13.36667 18.3,20.05 32.6,20.05c8.83333,0 15.35,-5.31667 19.55,-15.95c1.73333,-4.46667 2.9,-8.93333 3.5,-13.4c3.9,3.06667 8.38333,4.6 13.45,4.6c12.66667,0 21.66667,-6.91667 27,-20.75c1.25573,-3.25091 2.23906,-6.58424 2.95,-10c0.86367,-3.97161 1.36367,-8.05495 1.5,-12.25c0.03333,-0.8306 0.05,-1.66393 0.05,-2.5M591.25,303.6c0.03333,0.03333 0.06667,0.16667 0.1,0.4l0.25,-0.75c0.76667,0.33333 1.85,1.16667 3.25,2.5c1.56667,1.16667 3.4,1.75 5.5,1.75c2.16667,0.1 4.98333,0.33333 8.45,0.7c0.08385,0.00977 0.16719,0.00977 0.25,0c-1.0625,1.52383 -2.09583,2.97383 -3.1,4.35c-0.5125,-0.15221 -1.04583,-0.31888 -1.6,-0.5c-8.83333,-2.9 -13.25,-5.21667 -13.25,-6.95c0,-1.03333 0.05,-1.53333 0.15,-1.5M612.8,287.55c2.16667,-0.7 5.03333,-1.8 8.6,-3.3c2.43047,-0.90013 4.19714,-1.23346 5.3,-1c-2.87578,4.06771 -5.59245,7.90104 -8.15,11.5c-1.67721,0.16667 -3.57721,0.25 -5.7,0.25c-3.9,0 -9.08333,-1.01667 -15.55,-3.05c-6.03333,-1.86667 -9.68333,-3.43333 -10.95,-4.7c0.1,0 0.2,-0.03333 0.3,-0.1c0.26667,-0.1 0.91667,-0.15 1.95,-0.15c0.83333,0 3.06667,0.41667 6.7,1.25c3.6,0.83333 5.81667,1.25 6.65,1.25c3.33333,0 6.95,-0.65 10.85,-1.95z" fill="#86bcff"/><path d="M804.35,352.45c-8.1,-8.4 -18.13333,-14.35 -30.1,-17.85c-11.73333,-3.46667 -21.76667,-3.58333 -30.1,-0.35c-7.13333,2.8 -11.46667,7.63333 -13,14.5c-0.6,-0.6 -1.23333,-1.23333 -1.9,-1.9c-2.69844,-2.46927 -4.74844,-4.38594 -6.15,-5.75c-0.42617,-0.41823 -0.79284,-0.7849 -1.1,-1.1c-1.26667,-1.26667 -3.21667,-2.35 -5.85,-3.25c-1.5,-1.16667 -3,-2.13333 -4.5,-2.9c-2.62721,-1.3974 -5.37721,-2.31406 -8.25,-2.75c-5.66484,-0.79049 -11.79818,0.34284 -18.4,3.4c-1.04245,0.49062 -2.12578,1.05729 -3.25,1.7c-3.06146,1.85469 -6.36146,4.35469 -9.9,7.5c-3.36602,2.98958 -6.04935,6.35625 -8.05,10.1c-0.17878,0.35052 -0.36211,0.70052 -0.55,1.05c-0.54336,-0.11354 -1.11003,-0.23021 -1.7,-0.35c-6.17956,-1.02995 -12.84622,-1.06328 -20,-0.1c-0.92786,0.14635 -1.87786,0.29635 -2.85,0.45c0.68763,-1.51263 1.5043,-3.39596 2.45,-5.65c0.03424,-0.04128 0.06758,-0.09128 0.1,-0.15c4.05352,-7.33503 6.47018,-11.56836 7.25,-12.7c0.04232,-0.03411 0.07565,-0.06745 0.1,-0.1c6.33333,-8.6 13.16667,-14.35 20.5,-17.25c1.56445,-0.61758 3.31445,-1.16758 5.25,-1.65h0.05c5.95729,-1.4 13.72396,-2.1 23.3,-2.1c5.08763,0 9.83763,0.28333 14.25,0.85c4.87708,0.62201 9.34375,1.58867 13.4,2.9c1.53333,0.5 3.83333,1.36667 6.9,2.6c1.93333,0.76667 3.3,1.15 4.1,1.15c0.42253,0 0.87253,-0.06667 1.35,-0.2c0.70169,0.34648 1.43503,0.71315 2.2,1.1c3.1,1.53333 6.58333,3.31667 10.45,5.35c1.96667,-6.3 5.46667,-11.48333 10.5,-15.55c0.06224,-0.05039 0.11224,-0.10039 0.15,-0.15c4.87227,-0.7 10.43893,-1.05 16.7,-1.05c0.37565,0 0.74232,0 1.1,0c1.90742,0.02734 3.75742,0.11068 5.55,0.25c17.86719,1.33268 31.05052,8.21602 39.55,20.65c0.67878,0.99792 1.32878,2.03125 1.95,3.1c5.16667,8.86667 7.75,18.61667 7.75,29.25c0,1.56667 -0.66667,5.61667 -2,12.15c-0.08932,0.4418 -0.18932,0.87513 -0.3,1.3c-0.55599,2.84844 -1.12266,5.6151 -1.7,8.3c0,0.46667 1.16667,2.46667 3.5,6c0.15234,0.23685 0.30234,0.47018 0.45,0.7c-1.46667,2.11315 -2.2,4.82982 -2.2,8.15c0,1.66667 0.08333,3.8 0.25,6.4c0,0.6 0.63333,1.88333 1.9,3.85c1.23333,2 1.85,3.33333 1.85,4c0,7.4 -1.33333,13.48333 -4,18.25c-1.8,3.23333 -4.75,6.53333 -8.85,9.9c-4.63333,3.8 -7.6,6.55 -8.9,8.25c-0.84023,1.14492 -1.5569,2.37826 -2.15,3.7c-0.67656,0.06667 -1.37656,0.1 -2.1,0.1c-5.66667,0 -8.5,-3.83333 -8.5,-11.5c0,-4.93333 0.46667,-8.4 1.4,-10.4c0.8,-1.63333 2.21667,-2.71667 4.25,-3.25c1.23333,-0.33333 3.56667,-0.83333 7,-1.5c3.43333,-0.93333 6.71667,-2.55 9.85,-4.85c-0.06667,-0.96667 -1.38333,-2.86667 -3.95,-5.7c-1.57357,-1.75872 -2.82357,-3.15872 -3.75,-4.2c3.1457,-0.48698 5.7457,-1.18698 7.8,-2.1c1.5,-0.66667 2.66667,-1.41667 3.5,-2.25c1.50352,-0.99648 2.60352,-2.09648 3.3,-3.3c0.12122,-0.17396 0.22122,-0.35729 0.3,-0.55c0.46667,-0.91589 0.7,-1.89922 0.7,-2.95c0,-2.3 -3.4,-4.76667 -10.2,-7.4c-0.28503,-0.10911 -0.56836,-0.22578 -0.85,-0.35c0.43333,-1.57201 0.65,-3.05534 0.65,-4.45c0,-3.84479 -1.05,-7.89479 -3.15,-12.15c-1.02135,-9.50677 -5.12135,-18.20677 -12.3,-26.1c-0.3444,-0.36211 -0.6944,-0.72878 -1.05,-1.1M672.7,426.75c0.20286,-0.24089 0.3862,-0.47422 0.55,-0.7c0.20534,-0.17201 0.32201,-0.27201 0.35,-0.3c3.10898,-2.85977 5.87565,-5.67643 8.3,-8.45c2.65742,1.55781 5.22409,2.97448 7.7,4.25c-1.40065,1.31823 -3.35065,3.2349 -5.85,5.75c-5.1,5.16667 -8.5,8.55 -10.2,10.15c-0.7,0.26667 -1.43333,0.51667 -2.2,0.75l-2.35,0.15l-1.25,-1.5l1.4,-4.7c0.1,-0.26667 0.18333,-0.53333 0.25,-0.8c0.25859,-0.69232 0.49193,-1.30898 0.7,-1.85c0.70859,-0.64036 1.57526,-1.55703 2.6,-2.75M801,417.05c1,1.56667 1.5,2.41667 1.5,2.55c0,0.8 -1.5,2.18333 -4.5,4.15c-2.36667,1.53333 -5.1,3.01667 -8.2,4.45c-4.63333,1.76667 -8.73333,3.13333 -12.3,4.1c-0.00469,-0.09818 -0.02135,-0.19818 -0.05,-0.3c-1.10039,0.36081 -2.68372,0.82747 -4.75,1.4c-11.66667,2.46667 -25.2,3.7 -40.6,3.7c-6.53333,0 -12.4,-0.3 -17.6,-0.9c-6.6,-1.6 -11.53333,-4 -14.8,-7.2c-1.07617,-1.07617 -2.10951,-2.45951 -3.1,-4.15c8.06706,3.46667 15.15039,5.2 21.25,5.2c8.2,0 15.83333,-3.5 22.9,-10.5c6.96667,-6.86667 10.66667,-14.36667 11.1,-22.5c0.33333,0 0.5,-0.16667 0.5,-0.5c5.1,6.4 11.11667,11.41667 18.05,15.05c7,3.63333 14.15,5.45 21.45,5.45c3.50885,0 6.30885,-0.41667 8.4,-1.25c0.21016,0.38893 0.46016,0.8056 0.75,1.25M821.1,404.25c0.66667,0.63333 1.16667,1.2 1.5,1.7c-3.17695,1.30286 -6.21029,2.36953 -9.1,3.2c1.07253,-1.33229 2.12253,-2.89896 3.15,-4.7c0.31068,-0.53997 0.59401,-1.07331 0.85,-1.6c1.08281,0.43372 2.28281,0.90039 3.6,1.4z" fill="#ffa420"/><path d="M805.4,266.95c0.83333,2.53333 1.25,3.93333 1.25,4.2c-8.63333,4.8 -13.68333,7.2 -15.15,7.2c-1.6,-2.23333 -3.25,-4.45 -4.95,-6.65c-0.19648,-0.26081 -0.39648,-0.51081 -0.6,-0.75c7.38411,-0.34323 13.71745,-2.12656 19,-5.35c0.14531,0.42969 0.29531,0.87969 0.45,1.35M741.3,192.75c-2.23333,0.66667 -3.76667,1 -4.6,1c-0.81146,0 -1.61146,-0.05 -2.4,-0.15c0.64271,-1.38997 1.32604,-2.73997 2.05,-4.05c1.81068,1.56966 3.51068,2.61966 5.1,3.15c-0.04115,0.01549 -0.09115,0.03216 -0.15,0.05M723.55,171.8c0.43958,1.10755 0.90625,2.12422 1.4,3.05c2.03333,3.73333 4.51667,7.3 7.45,10.7c0.46016,0.53451 0.91016,1.03451 1.35,1.5c-1.35977,2.36784 -2.1431,4.40117 -2.35,6.1c-4.65573,-1.13828 -8.48906,-3.87161 -11.5,-8.2c0.04427,-3.49818 0.9776,-7.26484 2.8,-11.3c0.27669,-0.61745 0.56003,-1.23411 0.85,-1.85M721.75,165.45c0.17878,0.84206 0.36211,1.64206 0.55,2.4c-0.74753,1.39857 -1.43086,2.81523 -2.05,4.25c-1.40013,3.18646 -2.30013,6.11979 -2.7,8.8c-0.32448,-0.67995 -0.64115,-1.39661 -0.95,-2.15c-1.01003,-2.4819 -1.81003,-4.96523 -2.4,-7.45c0.34544,-1.35807 0.92878,-3.17474 1.75,-5.45c0.1,-0.26667 0.76667,-2.55 2,-6.85c0.14987,-0.50508 0.29987,-0.98841 0.45,-1.45c0.66784,1.44466 1.55117,2.71133 2.65,3.8c0.17604,1.33581 0.40937,2.70247 0.7,4.1M753.8,176.4c-1.1207,-0.93164 -2.13737,-1.83164 -3.05,-2.7c0.31849,-0.20143 0.63516,-0.40143 0.95,-0.6c2.83698,-1.79531 5.90365,-3.29531 9.2,-4.5c-0.43333,3.60391 -0.65,5.60391 -0.65,6c0,0.5 0.05,0.8 0.15,0.9c0.06667,0.1 0.1,0.18333 0.1,0.25l1.05,0.35c-1.78008,0.84948 -3.53008,1.79948 -5.25,2.85c-0.44453,-0.66432 -1.27786,-1.51432 -2.5,-2.55M752.8,181.35c-2.01628,1.54466 -3.96628,3.24466 -5.85,5.1c-0.12826,0.12552 -0.26159,0.24219 -0.4,0.35c-0.93268,0.96224 -1.83268,1.92891 -2.7,2.9c-1.53854,-1.17266 -3.18854,-2.48932 -4.95,-3.95c-0.04818,-0.04089 -0.09818,-0.09089 -0.15,-0.15c2.4487,-3.57227 5.31536,-6.7056 8.6,-9.4c1.91055,2.75208 3.72721,4.46875 5.45,5.15M776,167.8c-0.59036,2.18437 -0.9237,3.55104 -1,4.1c-4.18555,0.71732 -8.16888,1.88398 -11.95,3.5c0.69375,-1.2431 1.24375,-3.42643 1.65,-6.55c0.06901,-0.52096 0.11901,-1.03763 0.15,-1.55c3.66237,-0.99219 7.56237,-1.67552 11.7,-2.05c-0.1444,0.86641 -0.32773,1.71641 -0.55,2.55M780.2,165.05c1.09622,-0.03333 2.19622,-0.05 3.3,-0.05c0.36667,0 1.06667,0.31667 2.1,0.95c0.44362,0.26615 0.82695,0.46615 1.15,0.6c-0.11745,1.27878 -0.30078,2.82878 -0.55,4.65c-2.34232,-0.11576 -4.77565,-0.04909 -7.3,0.2c0.33672,-1.04115 0.65339,-2.37448 0.95,-4c0.14701,-0.83307 0.26367,-1.61641 0.35,-2.35M784.35,146.45c0.11263,0.05638 0.39596,0.27305 0.85,0.65c1.18867,4.4819 1.82201,9.3319 1.9,14.55c-0.63919,-0.24883 -1.38919,-0.46549 -2.25,-0.65c-1.43086,0.10508 -2.83086,0.22174 -4.2,0.35c0.06667,-0.56576 0.1,-1.06576 0.1,-1.5c0,-0.3 -0.16667,-1.86667 -0.5,-4.7c-0.16393,-1.3263 -0.29727,-2.49297 -0.4,-3.5c1.13646,-1.89323 1.98646,-3.9599 2.55,-6.2c0.75013,0.29362 1.40013,0.62695 1.95,1M783.2,141.05c0.13411,0.32565 0.26745,0.64232 0.4,0.95c-0.16667,-0.02253 -0.33333,-0.05586 -0.5,-0.1c0.0388,-0.2819 0.07214,-0.56523 0.1,-0.85M717.1,153.2c-1.00911,2.35078 -1.89245,4.80078 -2.65,7.35c-0.48125,1.61536 -0.88125,3.13203 -1.2,4.55c-0.1,-1.18919 -0.15,-2.38919 -0.15,-3.6c0,-1.9 0.4,-4.45 1.2,-7.65c0.79609,-3.16302 1.84609,-6.14635 3.15,-8.95c-0.4,2.0151 -0.6,3.54844 -0.6,4.6c0,1.3069 0.08333,2.54023 0.25,3.7M742.05,166.5c1.08711,2.46693 2.23711,4.73359 3.45,6.8c0.06055,0.1043 0.11055,0.2043 0.15,0.3c-1.15951,1.07969 -1.75951,1.62969 -1.8,1.65c-2.69544,2.12005 -5.24544,4.82005 -7.65,8.1c-4.05156,-3.87214 -7.00156,-7.82214 -8.85,-11.85c-0.53555,-1.17305 -1.01888,-2.43971 -1.45,-3.8c0.59831,-0.86562 1.21497,-1.73229 1.85,-2.6c3.24089,0.93333 7.44089,1.4 12.6,1.4c0.56992,0 1.13659,0 1.7,0M761.35,164.35c-2.72135,0.73802 -4.98802,1.55469 -6.8,2.45c-2.03333,1 -3.98333,2.35 -5.85,4.05c-0.11693,0.10703 -0.23359,0.20703 -0.35,0.3c-0.30391,-0.35169 -0.58724,-0.70169 -0.85,-1.05c-0.64089,-0.87148 -1.29089,-2.10482 -1.95,-3.7c5.96771,-0.28503 11.23438,-1.06836 15.8,-2.35c0.00664,0.11497 0.00664,0.21497 0,0.3M765.2,163.45c0.01068,-0.2013 0.01068,-0.41797 0,-0.65c1.86042,-0.65951 3.57708,-1.42617 5.15,-2.3c2.49401,-1.38125 4.62734,-2.99792 6.4,-4.85c0.16667,1.60169 0.25,3.08503 0.25,4.45c0,0.54219 -0.01667,1.07552 -0.05,1.6c-4.45117,0.49857 -8.36784,1.0819 -11.75,1.75z" fill="#343545"/><path d="M810.15,276.05c-4.96667,1.73333 -7.71667,2.71667 -8.25,2.95c-6.46667,3.06667 -10.05,4.6 -10.75,4.6c-1.23333,0 -3.35,-2.2 -6.35,-6.6c-1.47539,-2.17708 -2.72539,-4.21042 -3.75,-6.1c-0.88112,-1.56797 -1.59779,-3.03464 -2.15,-4.4l0.2,-1.15c0.03333,0 0.13333,-0.05 0.3,-0.15c0.16667,-0.13333 0.5,-0.2 1,-0.2c0.69049,0 2.54049,1.98333 5.55,5.95c0.20352,0.23919 0.40352,0.48919 0.6,0.75c1.7,2.2 3.35,4.41667 4.95,6.65c1.46667,0 6.51667,-2.4 15.15,-7.2c0,-0.26667 -0.41667,-1.66667 -1.25,-4.2c-0.15469,-0.47031 -0.30469,-0.92031 -0.45,-1.35c-0.53333,-1.86849 -0.8,-3.31849 -0.8,-4.35c0,-2.3 0.81667,-3.11667 2.45,-2.45c1.3513,0.54049 2.26797,1.74049 2.75,3.6c0.10365,0.45573 0.18698,0.93906 0.25,1.45c0.03333,0.33333 0.4,1.83333 1.1,4.5c0.63333,2.5 0.95,4.06667 0.95,4.7c0,1.63333 -0.5,2.63333 -1.5,3M788.85,149.25c-0.83333,0 -1.56667,-0.3 -2.2,-0.9c-0.58242,-0.50964 -1.06576,-0.9263 -1.45,-1.25c-0.45404,-0.37695 -0.73737,-0.59362 -0.85,-0.65c-0.54987,-0.37305 -1.19987,-0.70638 -1.95,-1c-1.02266,-0.43607 -2.23932,-0.80273 -3.65,-1.1c0.48932,1.54531 0.77266,2.96198 0.85,4.25c0.03685,0.77409 0.12018,1.79076 0.25,3.05c0.10273,1.00703 0.23607,2.1737 0.4,3.5c0.33333,2.83333 0.5,4.4 0.5,4.7c0,0.43424 -0.03333,0.93424 -0.1,1.5c1.36914,-0.12826 2.76914,-0.24492 4.2,-0.35c0.86081,0.18451 1.61081,0.40117 2.25,0.65c1.76667,0.75859 2.65,1.82526 2.65,3.2c0,0.63333 -0.21667,1.15 -0.65,1.55c-0.36667,0.3 -0.78333,0.45 -1.25,0.45c-0.27812,0 -0.64479,-0.1 -1.1,-0.3c-0.32305,-0.13385 -0.70638,-0.33385 -1.15,-0.6c-1.03333,-0.63333 -1.73333,-0.95 -2.1,-0.95c-1.10378,0 -2.20378,0.01667 -3.3,0.05c-0.08633,0.73359 -0.20299,1.51693 -0.35,2.35c-0.29661,1.62552 -0.61328,2.95885 -0.95,4c-0.61523,1.9 -1.29857,2.85 -2.05,2.85c-0.73333,0 -1.26667,-0.33333 -1.6,-1c-0.16667,-0.36667 -0.25,-0.75 -0.25,-1.15c0,-0.04583 0,-0.1125 0,-0.2c0.0763,-0.54896 0.40964,-1.91562 1,-4.1c0.22227,-0.83359 0.4056,-1.68359 0.55,-2.55c-4.13763,0.37448 -8.03763,1.05781 -11.7,2.05c-0.03099,0.51237 -0.08099,1.02904 -0.15,1.55c-0.40625,3.12357 -0.95625,5.3069 -1.65,6.55c-0.22057,0.41901 -0.45391,0.73568 -0.7,0.95l-0.8,-0.25l-1.05,-0.35c0,-0.06667 -0.03333,-0.15 -0.1,-0.25c-0.1,-0.1 -0.15,-0.4 -0.15,-0.9c0,-0.39609 0.21667,-2.39609 0.65,-6c-3.29635,1.20469 -6.36302,2.70469 -9.2,4.5c-0.31484,0.19857 -0.63151,0.39857 -0.95,0.6c0.91263,0.86836 1.9293,1.76836 3.05,2.7c1.22214,1.03568 2.05547,1.88568 2.5,2.55c0.3,0.4431 0.45,0.80977 0.45,1.1c0,0.56667 -0.3,1.01667 -0.9,1.35c-0.46667,0.23333 -0.88333,0.35 -1.25,0.35c-0.58203,0 -1.18203,-0.13333 -1.8,-0.4c-1.72279,-0.68125 -3.53945,-2.39792 -5.45,-5.15c-3.28464,2.6944 -6.1513,5.82773 -8.6,9.4c0.05182,0.05911 0.10182,0.10911 0.15,0.15c1.76146,1.46068 3.41146,2.77734 4.95,3.95c0.87253,0.66445 1.70586,1.28112 2.5,1.85c0,0.05547 0,0.10547 0,0.15c-0.01185,0.37852 -0.06185,0.61185 -0.15,0.7c-0.1,0.06667 -0.16667,0.18333 -0.2,0.35c-0.56406,0.2194 -1.23073,0.33607 -2,0.35c-0.05013,0 -0.10013,0 -0.15,0c-0.76354,0 -1.56354,-0.13333 -2.4,-0.4c-1.58932,-0.53034 -3.28932,-1.58034 -5.1,-3.15c-0.72396,1.31003 -1.40729,2.66003 -2.05,4.05c-0.37682,0.90885 -0.74349,1.82552 -1.1,2.75c-0.23333,0.26667 -0.51667,0.43333 -0.85,0.5c-0.66667,-0.43333 -1,-1.38333 -1,-2.85c0,-0.27565 0.01667,-0.55898 0.05,-0.85c0.2069,-1.69883 0.99023,-3.73216 2.35,-6.1c-0.43984,-0.46549 -0.88984,-0.96549 -1.35,-1.5c-2.93333,-3.4 -5.41667,-6.96667 -7.45,-10.7c-0.49375,-0.92578 -0.96042,-1.94245 -1.4,-3.05c-0.28997,0.61589 -0.57331,1.23255 -0.85,1.85c-1.8224,4.03516 -2.75573,7.80182 -2.8,11.3c0.00195,0.99167 0.06862,1.95833 0.2,2.9c-0.1,0.26667 -0.26667,0.51667 -0.5,0.75c-0.96667,-0.7 -1.6,-1.45 -1.9,-2.25c-0.23333,-0.56667 -0.35,-1.38333 -0.35,-2.45c0,-0.95612 0.06667,-1.95612 0.2,-3c0.39987,-2.68021 1.29987,-5.61354 2.7,-8.8c0.61914,-1.43477 1.30247,-2.85143 2.05,-4.25c-0.18789,-0.75794 -0.37122,-1.55794 -0.55,-2.4c-0.29063,-1.39753 -0.52396,-2.76419 -0.7,-4.1c-0.23333,-1.87865 -0.35,-3.69531 -0.35,-5.45c0,-1.4168 0.03333,-2.78346 0.1,-4.1c-0.04661,0.09818 -0.07995,0.16484 -0.1,0.2c-0.77786,1.36133 -1.54453,3.21133 -2.3,5.55c-0.15013,0.46159 -0.30013,0.94492 -0.45,1.45c-1.23333,4.3 -1.9,6.58333 -2,6.85c-0.82122,2.27526 -1.40456,4.09193 -1.75,5.45c-0.29648,1.27904 -0.37982,2.1457 -0.25,2.6c0.66667,2.6 1,4.41667 1,5.45c0,0.5 -0.03333,0.73333 -0.1,0.7c-0.26667,-0.06667 -0.43333,-0.08333 -0.5,-0.05c-0.5,-0.56667 -0.98333,-1.85 -1.45,-3.85c-0.36667,-1.7 -0.55,-2.95 -0.55,-3.75c0,-2.10013 0.3,-4.53346 0.9,-7.3c0.31875,-1.41797 0.71875,-2.93464 1.2,-4.55c0.75755,-2.54922 1.64089,-4.99922 2.65,-7.35c1.27318,-2.89805 2.73984,-5.64805 4.4,-8.25c0.25573,-1.53984 0.5724,-2.97318 0.95,-4.3c0.26068,-0.90977 0.54401,-1.7931 0.85,-2.65c0.75586,-1.93047 1.65586,-3.68047 2.7,-5.25c1.60443,-2.33698 3.55443,-4.25365 5.85,-5.75c0.38281,0.15312 0.66615,0.38646 0.85,0.7c0.06094,0.09062 0.11094,0.19063 0.15,0.3c-1.85482,1.27344 -3.62148,3.8401 -5.3,7.7c-0.32266,0.78464 -0.65599,1.61797 -1,2.5c3.0513,-3.40195 6.41797,-6.16862 10.1,-8.3c0.44753,-1.71315 1.06419,-3.36315 1.85,-4.95c0.90456,-1.73229 2.02122,-3.38229 3.35,-4.95c0.23333,0.1 0.48333,0.15 0.75,0.15c0.16667,0.03333 0.25,0.31667 0.25,0.85c0,0.23112 -0.38333,1.21445 -1.15,2.95c-0.1,0.26458 -0.21667,0.54792 -0.35,0.85c-0.51302,1.16302 -0.89635,2.26302 -1.15,3.3c2.02669,-0.89948 4.14336,-1.63281 6.35,-2.2c-1.03424,-0.81367 -2.10091,-1.49701 -3.2,-2.05c0.06979,-0.13242 0.13646,-0.26576 0.2,-0.4c0.70326,-0.97292 1.70326,-1.15625 3,-0.55c0.59089,0.27253 1.24089,0.70586 1.95,1.3c0.36693,0.3043 0.78359,0.6543 1.25,1.05c2.58646,-0.43945 5.28646,-0.65612 8.1,-0.65c0.74661,-0.10924 1.47995,-0.20924 2.2,-0.3c-1.39622,-1.10404 -2.57956,-1.78737 -3.55,-2.05c-0.52943,-0.11992 -0.99609,-0.11992 -1.4,0c-0.08398,0.02695 -0.16732,0.06029 -0.25,0.1c-0.33333,0 -0.55,0 -0.65,0c-0.03945,-0.0099 -0.07279,-0.04323 -0.1,-0.1c-0.06667,-0.11458 -0.1,-0.34792 -0.1,-0.7c0,-1.03333 0.76667,-1.6 2.3,-1.7c1.4,-0.1 2.58333,0.15 3.55,0.75c0.96914,0.57539 1.98581,1.37539 3.05,2.4c0.12357,0.12357 0.24023,0.24023 0.35,0.35c0.27057,0.28372 0.52057,0.55039 0.75,0.8c1.09232,0.00039 2.15898,0.05039 3.2,0.15c4.50768,0.38971 8.69102,1.63971 12.55,3.75c2.36667,1.3 4.31667,2.78333 5.85,4.45c1.33333,1.46667 2,2.65 2,3.55c0,0.83333 -0.03333,1.15 -0.1,0.95l-0.2,0.3c-0.13333,0.2 -0.45,0.3 -0.95,0.3c-1.26667,-1.63333 -3.1,-3.25 -5.5,-4.85c-1.3849,-0.94909 -2.8849,-1.76576 -4.5,-2.45c-2.32734,-0.97396 -4.89401,-1.65729 -7.7,-2.05c1.27943,1.17865 2.41276,2.39531 3.4,3.65c1.26667,1.56667 2.45,3.38333 3.55,5.45c0.65482,1.29232 1.20482,2.40898 1.65,3.35c0.64635,0.11927 1.29635,0.23594 1.95,0.35c1.43763,0.25521 2.73763,0.53854 3.9,0.85c0.16667,0.04414 0.33333,0.07747 0.5,0.1c4.74544,1.35924 7.07878,3.19258 7,5.5l-0.25,1.1l-0.35,0.35c-0.26667,0.2 -0.65,0.3 -1.15,0.3M723.85,149.75c0,4.26667 0.18333,7.88333 0.55,10.85c0.14375,1.06615 0.31042,2.09948 0.5,3.1c1.25625,-1.80247 2.63958,-3.55247 4.15,-5.25c2.36328,-2.67943 4.87995,-5.07943 7.55,-7.2c-0.56667,-2.52461 -0.85,-5.00794 -0.85,-7.45c0,-4.33333 0.08333,-7.63333 0.25,-9.9c-2.67422,1.55339 -5.09089,3.38672 -7.25,5.5c-1.55169,1.53073 -2.93503,3.18073 -4.15,4.95c-0.5,2.06198 -0.75,3.86198 -0.75,5.4M738.85,139c0,3.93516 0.23333,7.30182 0.7,10.1c5.19414,-3.52669 10.94414,-6.09336 17.25,-7.7c-0.0263,-0.10195 -0.05964,-0.20195 -0.1,-0.3c-2.08151,-5.03333 -4.41484,-9.06667 -7,-12.1c-3.59714,0.70651 -6.9138,1.72318 -9.95,3.05c-0.08385,0.68984 -0.21719,1.65651 -0.4,2.9c-0.33333,2.3 -0.5,3.65 -0.5,4.05M754.6,129.5c0.63333,1.1 1.8,2.86667 3.5,5.3c1.46667,2.26667 2.43333,4.11667 2.9,5.55c0.01419,0.04336 0.03086,0.07669 0.05,0.1c1.40508,-0.23464 2.83841,-0.43464 4.3,-0.6c2.44349,-0.03815 4.99349,0.07852 7.65,0.35c-0.04141,-0.12148 -0.09141,-0.23815 -0.15,-0.35c-2.20299,-4.0444 -5.20299,-8.0444 -9,-12c-0.36107,0 -0.72773,0 -1.1,0c-3.29323,0 -6.42656,0.18333 -9.4,0.55c0.41172,0.35846 0.82839,0.72513 1.25,1.1M768.9,143.6c-2.29115,0 -4.54115,0.15 -6.75,0.45c2.06667,6.99297 3.1,12.89297 3.1,17.7c0,0.34896 -0.01667,0.69896 -0.05,1.05c0.01068,0.23203 0.01068,0.4487 0,0.65c3.38216,-0.6681 7.29883,-1.25143 11.75,-1.75c0.03333,-0.52448 0.05,-1.05781 0.05,-1.6c0,-1.36497 -0.08333,-2.84831 -0.25,-4.45c-0.18607,-1.85573 -0.48607,-3.8724 -0.9,-6.05c-0.4431,-2.21576 -0.92643,-4.14909 -1.45,-5.8c-1.65977,-0.13333 -3.4931,-0.2 -5.5,-0.2M740.4,152.85c0.64401,2.32135 1.51068,4.57135 2.6,6.75c0.3,0.6 0.96667,2.35 2,5.25c0.19245,0.54674 0.37578,1.06341 0.55,1.55c0.65911,1.59518 1.30911,2.82852 1.95,3.7c0.26276,0.34831 0.54609,0.69831 0.85,1.05c0.11641,-0.09297 0.23307,-0.19297 0.35,-0.3c1.86667,-1.7 3.81667,-3.05 5.85,-4.05c1.81198,-0.89531 4.07865,-1.71198 6.8,-2.45c0.00664,-0.08503 0.00664,-0.18503 0,-0.3c0.1,-0.89583 0.15,-1.44583 0.15,-1.65c0,-5.40391 -1.13333,-11.28724 -3.4,-17.65c-6.26289,1.43971 -12.16289,4.13971 -17.7,8.1M737.65,154.95c-1.58815,1.32643 -3.15482,2.75977 -4.7,4.3c-1.92161,1.89336 -3.65495,3.84336 -5.2,5.85c-0.63503,0.86771 -1.25169,1.73438 -1.85,2.6c0.43112,1.36029 0.91445,2.62695 1.45,3.8c1.84844,4.02786 4.79844,7.97786 8.85,11.85c2.40456,-3.27995 4.95456,-5.97995 7.65,-8.1c0.04049,-0.02031 0.64049,-0.57031 1.8,-1.65c-0.03945,-0.0957 -0.08945,-0.1957 -0.15,-0.3c-1.21289,-2.06641 -2.36289,-4.33307 -3.45,-6.8c-0.5332,-1.20612 -1.04987,-2.45612 -1.55,-3.75c-1.24414,-3.26289 -2.19414,-5.86289 -2.85,-7.8z" fill="#010101"/><path d="M715.75,454.7c1.6,1 4.26667,2.75 8,5.25c3.36667,2.13333 6.2,3.6 8.5,4.4c-0.13333,-0.4 -0.9,-2.03333 -2.3,-4.9c-1.2,-2.4 -1.85,-4.18333 -1.95,-5.35l1.25,-0.25c5.96667,1.13333 10.15,3.81667 12.55,8.05c1.46667,2.56667 2.2,5.6 2.2,9.1c0,3 -4.08333,6.61667 -12.25,10.85c-3.5,0 -8.5,-3.9 -15,-11.7c-6.16667,-7.43333 -9.25,-12.45 -9.25,-15.05c0,-2.23333 0.76667,-3.28333 2.3,-3.15c1.23333,0.1 3.21667,1.01667 5.95,2.75M628.35,230.1c-0.9,2.76667 -2.06667,5.31667 -3.5,7.65c-4.53333,7.16667 -10.7,10.75 -18.5,10.75c-7.86667,0 -14.68333,-2.95 -20.45,-8.85c-0.77643,-0.80456 -1.5431,-1.67122 -2.3,-2.6c-0.74336,-1.19805 -1.82669,-2.71471 -3.25,-4.55c-1.32031,-2.19427 -2.15365,-3.5276 -2.5,-4c-1.78477,-2.51628 -4.6681,-5.74961 -8.65,-9.7c-3.4,-4.49245 -5.1,-7.59245 -5.1,-9.3c0,-1.23333 0.8,-2.33333 2.4,-3.3c0.09453,-0.05664 0.17786,-0.12331 0.25,-0.2c8.49089,10.32578 20.30755,16.49245 35.45,18.5c0.39544,0.67643 0.74544,1.2431 1.05,1.7c1.9,2.86667 4.01667,5.21667 6.35,7.05c-0.6,-0.93333 -1.23333,-2.5 -1.9,-4.7c-0.43307,-1.47578 -0.79974,-2.67578 -1.1,-3.6c2.35456,0.2 4.77122,0.3 7.25,0.3c5.40078,0 10.40078,-0.48333 15,-1.45c0.33333,1.00521 0.5,1.77187 0.5,2.3c0,0.66667 -0.33333,2 -1,4z" fill="#ff6699"/><path d="M635.05,343.55c1.18867,-0.69049 2.33867,-1.35716 3.45,-2c-0.74792,1.29076 -1.44792,2.57409 -2.1,3.85c-1.89961,3.69232 -3.03294,6.69232 -3.4,9c-0.47266,0.82005 -0.87266,1.52005 -1.2,2.1c-5.03919,1.48776 -10.17253,3.57109 -15.4,6.25c-2.1181,1.08385 -4.25143,2.26719 -6.4,3.55c-3.28919,1.96497 -6.40586,4.14831 -9.35,6.55v-0.05c0.11029,-2.54453 0.31029,-5.04453 0.6,-7.5c0.1082,-0.7099 0.2082,-1.42656 0.3,-2.15c1.22422,-8.05365 3.60755,-15.52031 7.15,-22.4c1.07292,1.01419 2.30625,2.18086 3.7,3.5c0.47435,0.44831 0.92435,0.86497 1.35,1.25c4.58112,4.33333 6.94779,6.5 7.1,6.5c4.46667,-2.7 9.2,-5.51667 14.2,-8.45z" fill="#246f44"/><path d="M648.15,305.95c2.47565,-1.0375 5.04232,-2.02083 7.7,-2.95c0.5901,0.2418 1.20677,0.62513 1.85,1.15c1.65117,1.33385 3.51784,3.55052 5.6,6.65c1.04401,1.55299 1.97734,2.80299 2.8,3.75c-7.7694,3.11758 -13.5694,7.48424 -17.4,13.1c-1.15937,1.3237 -2.34271,2.75703 -3.55,4.3c-2.53151,3.20013 -4.74818,6.40013 -6.65,9.6c-1.11133,0.64284 -2.26133,1.30951 -3.45,2c-5,2.93333 -9.73333,5.75 -14.2,8.45c-0.15221,0 -2.51888,-2.16667 -7.1,-6.5c-0.42565,-0.38503 -0.87565,-0.80169 -1.35,-1.25c-1.39375,-1.31914 -2.62708,-2.48581 -3.7,-3.5c0.79167,-1.52461 1.64167,-3.02461 2.55,-4.5c1.24505,-2.02266 2.59505,-3.97266 4.05,-5.85c2.62591,-3.41042 5.59258,-6.59375 8.9,-9.55c6.62734,-5.89206 14.61068,-10.85872 23.95,-14.9z" fill="#91c53c"/><path d="M782.4,145.45c-0.56354,2.2401 -1.41354,4.30677 -2.55,6.2c-0.12982,-1.25924 -0.21315,-2.27591 -0.25,-3.05c-0.07734,-1.28802 -0.36068,-2.70469 -0.85,-4.25c1.41068,0.29727 2.62734,0.66393 3.65,1.1M763.25,123.35c-0.10977,-0.10977 -0.22643,-0.22643 -0.35,-0.35c1.50846,0.33789 2.9418,0.77122 4.3,1.3c-1.04102,-0.09961 -2.10768,-0.14961 -3.2,-0.15c-0.22943,-0.24961 -0.47943,-0.51628 -0.75,-0.8M748.5,124.2c-0.70911,-0.59414 -1.35911,-1.02747 -1.95,-1.3c2.40273,-0.38086 4.9194,-0.59753 7.55,-0.65c0.02721,0.05677 0.06055,0.0901 0.1,0.1c0.1,0 0.31667,0 0.65,0c0.08268,-0.03971 0.16602,-0.07305 0.25,-0.1c0.03581,0 0.06914,0 0.1,0c0.43451,0 0.86784,0 1.3,0c0.97044,0.26263 2.15378,0.94596 3.55,2.05c-0.72005,0.09076 -1.45339,0.19076 -2.2,0.3c-2.81354,-0.00612 -5.51354,0.21055 -8.1,0.65c-0.46641,-0.3957 -0.88307,-0.7457 -1.25,-1.05M768.65,128.25c2.80599,0.39271 5.37266,1.07604 7.7,2.05c2.61367,2.66484 4.78034,5.98151 6.5,9.95c0.11706,0.26849 0.23372,0.53516 0.35,0.8c-0.02786,0.28477 -0.0612,0.5681 -0.1,0.85c-1.16237,-0.31146 -2.46237,-0.59479 -3.9,-0.85c-0.65365,-0.11406 -1.30365,-0.23073 -1.95,-0.35c-0.44518,-0.94102 -0.99518,-2.05768 -1.65,-3.35c-1.1,-2.06667 -2.28333,-3.88333 -3.55,-5.45c-0.98724,-1.25469 -2.12057,-2.47135 -3.4,-3.65M720.7,152c0.02005,-0.03516 0.05339,-0.10182 0.1,-0.2c-0.06667,1.31654 -0.1,2.6832 -0.1,4.1c0,1.75469 0.11667,3.57135 0.35,5.45c-1.09883,-1.08867 -1.98216,-2.35534 -2.65,-3.8c0.75547,-2.33867 1.52214,-4.18867 2.3,-5.55M719.85,140.5c0.2487,-0.40352 0.4987,-0.80352 0.75,-1.2c1.6276,-2.44375 3.4276,-4.62708 5.4,-6.55c-1.04414,1.56953 -1.94414,3.31953 -2.7,5.25c-0.30599,0.8569 -0.58932,1.74023 -0.85,2.65c-0.3776,1.32682 -0.69427,2.76016 -0.95,4.3c-1.66016,2.60195 -3.12682,5.35195 -4.4,8.25c-0.16667,-1.15977 -0.25,-2.3931 -0.25,-3.7c0,-1.05156 0.2,-2.5849 0.6,-4.6c0.72565,-1.51536 1.52565,-2.98203 2.4,-4.4M743.35,123.85c1.09909,0.55299 2.16576,1.23633 3.2,2.05c-2.20664,0.56719 -4.32331,1.30052 -6.35,2.2c0.25365,-1.03698 0.63698,-2.13698 1.15,-3.3c0.13333,-0.30208 0.25,-0.58542 0.35,-0.85c0.62357,-0.16797 1.24023,-0.33464 1.85,-0.5c-0.06354,0.13424 -0.13021,0.26758 -0.2,0.4M732.7,127.7c1.21992,-0.71289 2.48659,-1.36289 3.8,-1.95c0.19648,-0.06875 0.39648,-0.15208 0.6,-0.25c0.46654,-0.17734 0.9332,-0.36068 1.4,-0.55c-0.78581,1.58685 -1.40247,3.23685 -1.85,4.95c-3.68203,2.13138 -7.0487,4.89805 -10.1,8.3c0.34401,-0.88203 0.67734,-1.71536 1,-2.5c1.67852,-3.8599 3.44518,-6.42656 5.3,-7.7c-0.03906,-0.10937 -0.08906,-0.20938 -0.15,-0.3M742.05,166.5c-0.56341,0 -1.13008,0 -1.7,0c-5.15911,0 -9.35911,-0.46667 -12.6,-1.4c1.54505,-2.00664 3.27839,-3.95664 5.2,-5.85c1.54518,-1.54023 3.11185,-2.97357 4.7,-4.3c0.65586,1.93711 1.60586,4.53711 2.85,7.8c0.50013,1.29388 1.0168,2.54388 1.55,3.75M758.1,144.75c2.26667,6.36276 3.4,12.24609 3.4,17.65c0,0.20417 -0.05,0.75417 -0.15,1.65c-4.56562,1.28164 -9.83229,2.06497 -15.8,2.35c-0.17422,-0.48659 -0.35755,-1.00326 -0.55,-1.55c-1.03333,-2.9 -1.7,-4.65 -2,-5.25c-1.08932,-2.17865 -1.95599,-4.42865 -2.6,-6.75c5.53711,-3.96029 11.43711,-6.66029 17.7,-8.1M774.4,143.8c0.52357,1.65091 1.0069,3.58424 1.45,5.8c0.41393,2.1776 0.71393,4.19427 0.9,6.05c-1.77266,1.85208 -3.90599,3.46875 -6.4,4.85c-1.57292,0.87383 -3.28958,1.64049 -5.15,2.3c0.03333,-0.35104 0.05,-0.70104 0.05,-1.05c0,-4.80703 -1.03333,-10.70703 -3.1,-17.7c2.20885,-0.3 4.45885,-0.45 6.75,-0.45c2.0069,0 3.84023,0.06667 5.5,0.2M753.35,128.4c2.97344,-0.36667 6.10677,-0.55 9.4,-0.55c0.37227,0 0.73893,0 1.1,0c3.79701,3.9556 6.79701,7.9556 9,12c0.05859,0.11185 0.10859,0.22852 0.15,0.35c-2.65651,-0.27148 -5.20651,-0.38815 -7.65,-0.35c-1.46159,0.16536 -2.89492,0.36536 -4.3,0.6c-0.01914,-0.02331 -0.03581,-0.05664 -0.05,-0.1c-0.46667,-1.43333 -1.43333,-3.28333 -2.9,-5.55c-1.7,-2.43333 -2.86667,-4.2 -3.5,-5.3c-0.42161,-0.37487 -0.83828,-0.74154 -1.25,-1.1M739.35,134.95c0.18281,-1.24349 0.31615,-2.21016 0.4,-2.9c3.0362,-1.32682 6.35286,-2.34349 9.95,-3.05c2.58516,3.03333 4.91849,7.06667 7,12.1c0.04036,0.09805 0.0737,0.19805 0.1,0.3c-6.30586,1.60664 -12.05586,4.17331 -17.25,7.7c-0.46667,-2.79818 -0.7,-6.16484 -0.7,-10.1c0,-0.4 0.16667,-1.75 0.5,-4.05M728.75,139.4c2.15911,-2.11328 4.57578,-3.94661 7.25,-5.5c-0.16667,2.26667 -0.25,5.56667 -0.25,9.9c0,2.44206 0.28333,4.92539 0.85,7.45c-2.67005,2.12057 -5.18672,4.52057 -7.55,7.2c-1.51042,1.69753 -2.89375,3.44753 -4.15,5.25c-0.18958,-1.00052 -0.35625,-2.03385 -0.5,-3.1c-0.36667,-2.96667 -0.55,-6.58333 -0.55,-10.85c0,-1.53802 0.25,-3.33802 0.75,-5.4c1.21497,-1.76927 2.59831,-3.41927 4.15,-4.95z" fill="#485e84"/></g></g></svg>