<svg version="1.1" xmlns="http://www.w3.org/2000/svg" xmlns:xlink="http://www.w3.org/1999/xlink" width="31.81656" height="72.05998" viewBox="0,0,31.81656,72.05998"><g transform="translate(-624.34773,-334.39182)"><g data-paper-data="{&quot;isPaintingLayer&quot;:true}" fill-rule="nonzero" stroke="none" stroke-width="1" stroke-linecap="round" stroke-linejoin="miter" stroke-miterlimit="4" stroke-dasharray="" stroke-dashoffset="0" style="mix-blend-mode: normal"><path d="M655.65,353.80051c0.4,3.23333 0.56667,6.48333 0.5,9.75c-0.03333,3 -0.18333,6 -0.45,9c-0.26667,3.16667 -0.55,6.33333 -0.85,9.5c-0.3,2.9 -0.31667,5.83333 -0.05,8.8c0.33333,3.33333 0.06667,6.58333 -0.8,9.75c-0.36667,1.4 -1.15,2.48333 -2.35,3.25c-1.06667,0.7 -2.2,1.18333 -3.4,1.45c-2.86667,0.53333 -5.78333,0.83333 -8.75,0.9c-3.2,0.46667 -6.38333,0.28333 -9.55,-0.55c-1.23333,-0.4 -2.2,-1.08333 -2.9,-2.05c-2.06667,-2.83333 -2.25,-5.68333 -0.55,-8.55c0.46667,-0.76667 1.1,-1.36667 1.9,-1.8c1.66667,-1 3.38333,-1.63333 5.15,-1.9c2,-0.33333 4,-0.73333 6,-1.2c-0.43333,-2.26667 -0.75,-4.53333 -0.95,-6.8c-0.13333,-1.4 -0.21667,-2.8 -0.25,-4.2l-0.55,-26c-2.66667,-0.73333 -5.23333,-1.65 -7.7,-2.75c-2.03333,-0.86667 -3.61667,-2.21667 -4.75,-4.05c-1.4,-2.26667 -1.33333,-4.46667 0.2,-6.6c0.36667,-0.5 0.81667,-0.9 1.35,-1.2c2.73333,-1.43333 5.58333,-2.5 8.55,-3.2c3.53333,-0.7 6.96667,-1.01667 10.3,-0.95c4.56667,0.06667 7.28333,2.23333 8.15,6.5c0.26667,1.33333 0.41667,2.63333 0.45,3.9c0.1,2.53333 0.43333,5.05 1,7.55c0.1,0.46667 0.2,0.95 0.3,1.45M646.6,341.10051c-4.16667,-0.5 -8.21667,-0.08333 -12.15,1.25c-1.33333,0.5 -2.65,1.01667 -3.95,1.55c0.63333,0.33333 1.3,0.65 2,0.95c3.03333,1.26667 6.1,2.45 9.2,3.55c0.73333,0.3 1.21667,0.8 1.45,1.5c0.43333,1.16667 0.66667,2.25 0.7,3.25l0.2,13.35c0,0.56667 0.01667,1.15 0.05,1.75c0.2,3 0.33333,6.01667 0.4,9.05c0.1,3.26667 0.25,6.56667 0.45,9.9l0.05,-0.45c0.03333,0.23333 0.08333,0.46667 0.15,0.7c0.9,2.66667 0.5,4.93333 -1.2,6.8c-0.8,0.93333 -1.85,1.53333 -3.15,1.8c-1.42617,0.24271 -2.87617,0.45938 -4.35,0.65l-5.3,1.4c0,0.2 0.05,0.38333 0.15,0.55c0.66667,1.53333 1.93333,2.13333 3.8,1.8c2.93333,-0.1 5.88333,-0.28333 8.85,-0.55c1.5,-0.1 2.9,-0.45 4.2,-1.05c0.06667,-0.06667 0.15,-0.13333 0.25,-0.2c0.03333,-0.1 0.05,-0.18333 0.05,-0.25c0.33333,-3.36667 0.46667,-6.7 0.4,-10c-0.06667,-4 0.11667,-8 0.55,-12c0.43333,-3.8 0.73333,-7.55 0.9,-11.25c0.2,-5.06667 -0.21667,-10.06667 -1.25,-15c-0.63333,-3 -1,-6 -1.1,-9c-0.46667,-0.03333 -0.91667,-0.05 -1.35,-0.05z" fill="#000000"/><path d="M650.3,365.14051c-0.16667,3.7 -0.46667,7.45 -0.9,11.25c-0.43333,4 -0.61667,8 -0.55,12c0.06667,3.3 -0.06667,6.63333 -0.4,10c0,0.06667 -0.01667,0.15 -0.05,0.25c-0.1,0.06667 -0.18333,0.13333 -0.25,0.2c-1.3,0.6 -2.7,0.95 -4.2,1.05c-2.96667,0.26667 -5.91667,0.45 -8.85,0.55c-1.86667,0.33333 -3.13333,-0.26667 -3.8,-1.8c-0.1,-0.16667 -0.15,-0.35 -0.15,-0.55l5.3,-1.4c1.47383,-0.19062 2.92383,-0.40729 4.35,-0.65c1.3,-0.26667 2.35,-0.86667 3.15,-1.8c1.7,-1.86667 2.1,-4.13333 1.2,-6.8c-0.06667,-0.23333 -0.11667,-0.46667 -0.15,-0.7l-0.05,0.45c-0.2,-3.33333 -0.35,-6.63333 -0.45,-9.9c-0.06667,-3.03333 -0.2,-6.05 -0.4,-9.05c-0.03333,-0.6 -0.05,-1.18333 -0.05,-1.75l-0.2,-13.35c-0.03333,-1 -0.26667,-2.08333 -0.7,-3.25c-0.23333,-0.7 -0.71667,-1.2 -1.45,-1.5c-3.1,-1.1 -6.16667,-2.28333 -9.2,-3.55c-0.7,-0.3 -1.36667,-0.61667 -2,-0.95c1.3,-0.53333 2.61667,-1.05 3.95,-1.55c3.93333,-1.33333 7.98333,-1.75 12.15,-1.25c0.43333,0 0.88333,0.01667 1.35,0.05c0.1,3 0.46667,6 1.1,9c1.03333,4.93333 1.45,9.93333 1.25,15z" fill="#ffffff"/></g></g></svg>