<svg version="1.1" xmlns="http://www.w3.org/2000/svg" xmlns:xlink="http://www.w3.org/1999/xlink" width="29.41704" height="32.96329" viewBox="0,0,29.41704,32.96329"><g transform="translate(-625.29546,-371.77742)"><g data-paper-data="{&quot;isPaintingLayer&quot;:true}" fill-rule="nonzero" stroke="none" stroke-width="1" stroke-linecap="round" stroke-linejoin="miter" stroke-miterlimit="4" stroke-dasharray="" stroke-dashoffset="0" style="mix-blend-mode: normal"><path d="M653.65,377.38853c0.4,0.86667 0.68333,1.8 0.85,2.8c0.03333,0.13333 0.06667,0.26667 0.1,0.4c0.1,0.46667 0.13333,0.91667 0.1,1.35c0,0.7 -0.03333,1.43333 -0.1,2.2c-0.03333,1.4 -0.35,2.86667 -0.95,4.4c-0.63333,1.63333 -1.56667,3.33333 -2.8,5.1c-1.8,2.6 -3.8,4.78333 -6,6.55c-1.93333,1.46667 -3.88333,2.56667 -5.85,3.3c-3.9,1.6 -7.23333,1.66667 -10,0.2c-1.5,-0.8 -2.58333,-1.93333 -3.25,-3.4c-0.33333,-0.76667 -0.48333,-1.58333 -0.45,-2.45c0.06667,-0.86667 0.31667,-1.63333 0.75,-2.3c0.3,-0.4 0.73333,-0.83333 1.3,-1.3c0.66667,-0.5 1.15,-0.88333 1.45,-1.15c0.5,-0.4 1.01667,-0.9 1.55,-1.5c0.2,-0.1 0.41667,-0.26667 0.65,-0.5c1.3,-1.1 2.26667,-2.96667 2.9,-5.6c0.26667,-1.33333 0.5,-2.33333 0.7,-3c0.03333,-0.2 0.08333,-0.36667 0.15,-0.5c0.56667,-1.53333 1.36667,-3.21667 2.4,-5.05c0.66667,-1.16667 1.3,-2.06667 1.9,-2.7c0.9,-0.9 1.8,-1.48333 2.7,-1.75c1.23333,-0.53333 2.55,-0.76667 3.95,-0.7c1.4,0.03333 2.71667,0.35 3.95,0.95c1.36667,0.66667 2.38333,1.55 3.05,2.65c0.16667,0.26667 0.36667,0.68333 0.6,1.25c0.06667,0.16667 0.15,0.33333 0.25,0.5c0.03333,0.06667 0.06667,0.15 0.1,0.25M643.45,378.78853c-0.3,0.2 -0.7,0.66667 -1.2,1.4c-0.56667,0.73333 -1.03333,1.58333 -1.4,2.55c-0.4,0.96667 -0.56667,2.03333 -0.5,3.2l-0.2,2l-0.3,1.2c-1.96667,3.56667 -4.41667,6.75 -7.35,9.55c2.73333,-0.13333 4.68333,-0.56667 5.85,-1.3l3.9,-3c1.06667,-0.93333 1.98333,-1.9 2.75,-2.9c1.83333,-1.96667 3.01667,-4.33333 3.55,-7.1c0.16667,-0.93333 0.21667,-1.78333 0.15,-2.55c-0.06667,-0.26667 -0.13333,-0.55 -0.2,-0.85l-0.65,-1.8c-0.06667,-0.26667 -0.16667,-0.46667 -0.3,-0.6l-0.6,-0.4c-0.16667,-0.1 -0.31667,-0.18333 -0.45,-0.25c-0.2,-0.03333 -0.4,-0.05 -0.6,-0.05c-0.83333,0.03333 -1.65,0.33333 -2.45,0.9z" fill="#000000"/><path d="M646.95,378.18853l0.6,0.4c0.13333,0.13333 0.23333,0.33333 0.3,0.6l0.65,1.8c0.06667,0.3 0.13333,0.58333 0.2,0.85c0.06667,0.76667 0.01667,1.61667 -0.15,2.55c-0.53333,2.76667 -1.71667,5.13333 -3.55,7.1c-0.76667,1 -1.68333,1.96667 -2.75,2.9l-3.9,3c-1.16667,0.73333 -3.11667,1.16667 -5.85,1.3c2.93333,-2.8 5.38333,-5.98333 7.35,-9.55l0.3,-1.2l0.2,-2c-0.06667,-1.16667 0.1,-2.23333 0.5,-3.2c0.36667,-0.96667 0.83333,-1.81667 1.4,-2.55c0.5,-0.73333 0.9,-1.2 1.2,-1.4c0.8,-0.56667 1.61667,-0.86667 2.45,-0.9c0.2,0 0.4,0.01667 0.6,0.05c0.13333,0.06667 0.28333,0.15 0.45,0.25z" fill="#ffffff"/></g></g></svg>