<svg version="1.1" xmlns="http://www.w3.org/2000/svg" xmlns:xlink="http://www.w3.org/1999/xlink" width="264.6" height="256.73603" viewBox="0,0,264.6,256.73603"><g transform="translate(-506.69009,-228.64806)"><g data-paper-data="{&quot;isPaintingLayer&quot;:true}" fill-rule="nonzero" stroke="none" stroke-width="1" stroke-linecap="round" stroke-linejoin="miter" stroke-miterlimit="4" stroke-dasharray="" stroke-dashoffset="0" style="mix-blend-mode: normal"><path d="M599.14009,465.03408c1.96667,-2 4.4,-3.2 7.3,-3.6c2.86667,-0.4 5.3,0.1 7.3,1.5c2.2,1.53333 3.3,3.83333 3.3,6.9c0,2.23333 -0.95,4.88333 -2.85,7.95c-2.36667,3.86667 -5.21667,5.8 -8.55,5.8c-4.4,0 -7.35,-1.61667 -8.85,-4.85c-0.46667,-1.03333 -0.76667,-2.2 -0.9,-3.5c-0.03333,-0.33333 -0.05,-0.93333 -0.05,-1.8c0,-3.36667 1.1,-6.16667 3.3,-8.4M608.69009,469.23408c-1.1,-0.93333 -2.46667,-1.26667 -4.1,-1c-1.63333,0.23333 -3.01667,0.95 -4.15,2.15c-1.26667,1.3 -1.9,2.81667 -1.9,4.55c0,0.1 0.18333,1.16667 0.55,3.2c0.86667,2 2.56667,3 5.1,3c2,0 3.61667,-0.83333 4.85,-2.5c1.03333,-1.4 1.55,-2.91667 1.55,-4.55c0,-2.2 -0.63333,-3.81667 -1.9,-4.85M679.24009,456.93408c0,-1.5 0.11667,-2.21667 0.35,-2.15c0.13333,0.03333 0.25,0.21667 0.35,0.55l2.2,-0.4c1.8,3.26667 3.88333,5.75 6.25,7.45c1.33333,0.93333 3.28333,1.88333 5.85,2.85c2.13333,0.83333 3.56667,1.68333 4.3,2.55c1.13333,1.3 1.7,3.43333 1.7,6.4c0,2.1 -0.71667,4.28333 -2.15,6.55c-2,3.1 -4.73333,4.65 -8.2,4.65c-4.3,0 -7.3,-1.8 -9,-5.4c-0.53333,-1.16667 -0.91667,-2.45 -1.15,-3.85c-0.1,-0.7 -0.15,-1.35 -0.15,-1.95c0,-1.46667 0.3,-2.93333 0.9,-4.4c0.76667,-1.86667 1.96667,-3.48333 3.6,-4.85c-1.03333,-1.4 -1.93333,-2.61667 -2.7,-3.65c-1.43333,-2 -2.15,-3.45 -2.15,-4.35M686.59009,479.83408c1,1.8 2.58333,2.7 4.75,2.7c1.8,0 3.25,-0.66667 4.35,-2c0.9,-1.1 1.35,-2.31667 1.35,-3.65c0,-1.2 -0.58333,-2.56667 -1.75,-4.1c-1.2,-1.56667 -2.5,-2.66667 -3.9,-3.3c-3.8,-1.7 -5.7,0.78333 -5.7,7.45c0,0.9 0.3,1.86667 0.9,2.9M730.14009,451.13408c1.93333,2.06667 2.9,4.91667 2.9,8.55c0,1.96667 -0.71667,4.1 -2.15,6.4c-2.16667,3.56667 -5.36667,5.35 -9.6,5.35c-3.1,0 -8.23333,-5.36667 -15.4,-16.1c-6.66667,-9.93333 -10,-15.61667 -10,-17.05c0,-1.4 0.03333,-2.13333 0.1,-2.2c0.26667,-0.26667 0.48333,-0.61667 0.65,-1.05c4.16667,2.83333 8.86667,5.28333 14.1,7.35c2.9,1.16667 6.75,2.56667 11.55,4.2c3.7,1.4 6.31667,2.91667 7.85,4.55M708.44009,450.23408c1.1,1.36667 2.78333,3.15 5.05,5.35c0.66667,0.63333 1.01667,1.66667 1.05,3.1c0.03333,0.8 0.03333,2.03333 0,3.7c0.2,2.93333 2.48333,4.4 6.85,4.4c2.46667,0 4.35,-0.86667 5.65,-2.6c0.93333,-1.26667 1.4,-2.61667 1.4,-4.05c0,-2.9 -7.48333,-8.35 -22.45,-16.35c-0.06667,-0.16667 -0.11667,-0.25 -0.15,-0.25c-0.13333,-0.03333 -0.2,0.31667 -0.2,1.05c0,1.43333 0.93333,3.31667 2.8,5.65M568.29009,452.68408c0.9,-1.4 2.63333,-2.56667 5.2,-3.5c1.56667,-0.6 4.61667,-1.71667 9.15,-3.35c4.53333,-1.93333 9.05,-4.56667 13.55,-7.9l0.75,-0.35c0.46667,0.03333 0.7,0.8 0.7,2.3c0,2.7 -2.46667,8.46667 -7.4,17.3c-5.3,9.5 -9.46667,14.25 -12.5,14.25c-4.93333,0 -8.25,-1.65 -9.95,-4.95c-0.56667,-1.06667 -0.91667,-2.25 -1.05,-3.55c-0.06667,-0.4 -0.1,-1 -0.1,-1.8c0,-3.93333 0.55,-6.75 1.65,-8.45M588.74009,450.08408c-2.3,1.36667 -6.33333,2.8 -12.1,4.3c-3.13333,0.8 -4.7,2.58333 -4.7,5.35c0,1.16667 0.28333,2.25 0.85,3.25c1,1.73333 2.66667,2.6 5,2.6c2.03333,0 3.63333,-0.86667 4.8,-2.6c0.86667,-1.26667 1.3,-2.53333 1.3,-3.8c0,-1.1 0.65,-2.15 1.95,-3.15c1.6,-1.2 2.73333,-2.83333 3.4,-4.9l-0.5,-1.05M547.44009,399.28408c-1.46667,1.93333 -3.1,4.6 -4.9,8c-1.56667,2.9 -2.86667,4.91667 -3.9,6.05c-3.2,3.46667 -9.68333,5.2 -19.45,5.2c-5.76667,0 -9.56667,-1.61667 -11.4,-4.85c-0.6,-1.03333 -0.96667,-2.2 -1.1,-3.5c0,-1.1 0,-1.7 0,-1.8c0,-6.66667 4.65,-10.5 13.95,-11.5c6.76667,-0.73333 15.7,0.06667 26.8,2.4M524.74009,400.68408c-2.46667,-0.76667 -4.3,-1.21667 -5.5,-1.35c-4.43333,-0.5 -6.65,1.78333 -6.65,6.85c0,1.1 0.33333,2.18333 1,3.25c1.1,1.73333 2.86667,2.6 5.3,2.6c1.46667,0 2.71667,-0.58333 3.75,-1.75c0.6,-0.66667 1.48333,-1.75 2.65,-3.25c0.86667,-0.8 2.61667,-1.33333 5.25,-1.6c2.6,-0.23333 4.26667,-0.71667 5,-1.45c-0.73333,-1.53333 -2.83333,-2.3 -6.3,-2.3c-0.76667,0 -2.26667,-0.33333 -4.5,-1M587.34009,282.58408c-0.13333,0.3 -0.25,0.93333 -0.35,1.9c-0.3,0.8 -1.21667,1.2 -2.75,1.2c-1.56667,0 -5.96667,-5.2 -13.2,-15.6c-6.8,-9.8 -10.2,-14.63333 -10.2,-14.5c0,-3.76667 1.16667,-6.66667 3.5,-8.7c2.2,-1.9 4.75,-2.51667 7.65,-1.85c3.1,0.73333 5.65,2.76667 7.65,6.1c2.33333,3.9 3.5,9 3.5,15.3c0,2.56667 1.4,7.95 4.2,16.15M572.39009,249.33408c-1.66667,-0.1 -3.1,0.36667 -4.3,1.4c-1.3,1.1 -1.95,2.6 -1.95,4.5c0,1.53333 0.83333,2.86667 2.5,4c3.93333,2.63333 6.56667,4.53333 7.9,5.7c0.83333,-0.1 1.36667,-0.36667 1.6,-0.8c-0.36667,-1.53333 -0.4,-2.95 -0.1,-4.25c0.4,-1.73333 0.6,-2.78333 0.6,-3.15c0,-2.26667 -0.65,-4.08333 -1.95,-5.45c-1.16667,-1.2 -2.6,-1.85 -4.3,-1.95M627.04009,241.43408c0,-4.43333 1.18333,-7.78333 3.55,-10.05c2.1,-2.03333 4.71667,-2.93333 7.85,-2.7c3.03333,0.23333 5.65,1.43333 7.85,3.6c2.36667,2.36667 3.55,5.3 3.55,8.8c0,1.96667 -1.01667,4.7 -3.05,8.2c-2.06667,3.5 -3.1,5.78333 -3.1,6.85c0,1.53333 -0.05,2.81667 -0.15,3.85c-0.06667,0.66667 -0.2,1.85 -0.4,3.55c-0.16667,0.2 -0.35,0.38333 -0.55,0.55c-0.36667,0.36667 -1.26667,0.55 -2.7,0.55c-1.1,0 -3.56667,-3.8 -7.4,-11.4c-3.63333,-7.2 -5.45,-11.13333 -5.45,-11.8M643.14009,235.83408c-1.2,-1.06667 -2.63333,-1.65 -4.3,-1.75c-1.73333,-0.1 -3.18333,0.33333 -4.35,1.3c-1.3,1.13333 -1.95,2.73333 -1.95,4.8c0,0.96667 0.41667,2 1.25,3.1c1.03333,1.3 2.48333,2.4 4.35,3.3c0.16667,0.7 0.35,1.93333 0.55,3.7c0.3,1.6 0.81667,2.78333 1.55,3.55c0.66667,-0.13333 1.01667,-0.36667 1.05,-0.7c-0.26667,-1.36667 0.26667,-3.53333 1.6,-6.5c1.46667,-3.23333 2.2,-5.35 2.2,-6.35c0,-1.8 -0.65,-3.28333 -1.95,-4.45M727.14009,246.73408c2.73333,1.33333 4.1,4.7 4.1,10.1c0,1.16667 -3.08333,4.86667 -9.25,11.1c-6.36667,6.36667 -10.41667,9.55 -12.15,9.55c-2.3,0 -3.8,-0.76667 -4.5,-2.3c-0.26667,-0.6 -0.4,-1.51667 -0.4,-2.75c0,-4.76667 1.36667,-9.48333 4.1,-14.15c2.5,-4.26667 5.51667,-7.53333 9.05,-9.8c3.6,-2.33333 6.61667,-2.91667 9.05,-1.75M723.29009,250.68408c-1.6,0.03333 -2.95,0.5 -4.05,1.4c-1.2,1.03333 -1.8,2.4 -1.8,4.1c0,3.13333 -0.61667,5.5 -1.85,7.1c-1.26667,1.6 -1.9,3.51667 -1.9,5.75c0,0.73333 0.1,1.11667 0.3,1.15c0.13333,0.03333 0.43333,0.06667 0.9,0.1c0.73333,-0.66667 1.63333,-1.93333 2.7,-3.8c0.96667,-1.66667 2.16667,-3.03333 3.6,-4.1c1.6,-1.16667 3.51667,-2.41667 5.75,-3.75c1.43333,-0.93333 2.15,-1.83333 2.15,-2.7c0,-1.66667 -0.6,-3 -1.8,-4c-1.1,-0.86667 -2.43333,-1.28333 -4,-1.25M755.54009,375.73408c-3.16667,0 -6.31667,-0.68333 -9.45,-2.05c-4.83333,-2.16667 -7.85,-3.41667 -9.05,-3.75c-1.76667,-1.3 -2.91667,-2.2 -3.45,-2.7c-0.83333,-0.8 -1.25,-1.53333 -1.25,-2.2c0,-0.23333 1.81667,-1.68333 5.45,-4.35c4.36667,-3.16667 8.38333,-5.58333 12.05,-7.25c11.63333,-5.23333 17.45,-1.85 17.45,10.15c0,2.6 -0.83333,5.08333 -2.5,7.45c-2.16667,3.13333 -5.25,4.7 -9.25,4.7M760.44009,367.93408c0.73333,-1.23333 1.1,-2.31667 1.1,-3.25c0,-5.33333 -3.3,-6.93333 -9.9,-4.8c-2.26667,0.73333 -4.55,1.78333 -6.85,3.15c-2.06667,1.23333 -3.1,2.01667 -3.1,2.35c0,0.63333 0.06667,1.08333 0.2,1.35c0.33333,0.8 1.1,1.2 2.3,1.2c2.8,0 5.06667,0.45 6.8,1.35c1.76667,0.9 3.33333,1.35 4.7,1.35c2.03333,0 3.61667,-0.9 4.75,-2.7M771.29009,299.98408c0,4.4 -1.41667,7.23333 -4.25,8.5c-2.16667,0.96667 -6.85,1.45 -14.05,1.45c-1.4,0 -2.38333,0.4 -2.95,1.2c-0.7,1 -1.23333,1.56667 -1.6,1.7c-1.26667,-0.2 -2.08333,-0.4 -2.45,-0.6c-0.53333,-0.33333 -0.8,-1.28333 -0.8,-2.85c0,-5.23333 1.36667,-9.71667 4.1,-13.45c2.4,-3.3 5.38333,-5.45 8.95,-6.45c3.5,-1 6.48333,-0.63333 8.95,1.1c2.73333,1.93333 4.1,5.06667 4.1,9.4M764.04009,294.18408c-1.4,-0.8 -3.08333,-0.83333 -5.05,-0.1c-2,0.7 -3.68333,1.95 -5.05,3.75c-1.53333,2.03333 -2.3,4.33333 -2.3,6.9c0,0.73333 0.2,1.1 0.6,1.1c0.16667,0 0.35,-0.06667 0.55,-0.2c0.16667,-0.23333 0.71667,-0.61667 1.65,-1.15c0.9,-0.46667 1.43333,-0.7 1.6,-0.7c0.6,0 1.25,0.28333 1.95,0.85c0.73333,0.53333 1.38333,0.8 1.95,0.8c2.1,0 3.76667,-0.88333 5,-2.65c0.93333,-1.33333 1.4,-2.6 1.4,-3.8c0,-2.33333 -0.76667,-3.93333 -2.3,-4.8z" fill="#00ff00"/><path d="M610.58009,474.08408c0,1.63333 -0.51667,3.15 -1.55,4.55c-1.23333,1.66667 -2.85,2.5 -4.85,2.5c-2.53333,0 -4.23333,-1 -5.1,-3c-0.36667,-2.03333 -0.55,-3.1 -0.55,-3.2c0,-1.73333 0.63333,-3.25 1.9,-4.55c1.13333,-1.2 2.51667,-1.91667 4.15,-2.15c1.63333,-0.26667 3,0.06667 4.1,1c1.26667,1.03333 1.9,2.65 1.9,4.85M685.68009,476.93408c0,-6.66667 1.9,-9.15 5.7,-7.45c1.4,0.63333 2.7,1.73333 3.9,3.3c1.16667,1.53333 1.75,2.9 1.75,4.1c0,1.33333 -0.45,2.55 -1.35,3.65c-1.1,1.33333 -2.55,2 -4.35,2c-2.16667,0 -3.75,-0.9 -4.75,-2.7c-0.6,-1.03333 -0.9,-2 -0.9,-2.9M705.63009,444.58408c0,-0.73333 0.06667,-1.08333 0.2,-1.05c0.03333,0 0.08333,0.08333 0.15,0.25c14.96667,8 22.45,13.45 22.45,16.35c0,1.43333 -0.46667,2.78333 -1.4,4.05c-1.3,1.73333 -3.18333,2.6 -5.65,2.6c-4.36667,0 -6.65,-1.46667 -6.85,-4.4c0.03333,-1.66667 0.03333,-2.9 0,-3.7c-0.03333,-1.43333 -0.38333,-2.46667 -1.05,-3.1c-2.26667,-2.2 -3.95,-3.98333 -5.05,-5.35c-1.86667,-2.33333 -2.8,-4.21667 -2.8,-5.65M589.23009,451.13408c-0.66667,2.06667 -1.8,3.7 -3.4,4.9c-1.3,1 -1.95,2.05 -1.95,3.15c0,1.26667 -0.43333,2.53333 -1.3,3.8c-1.16667,1.73333 -2.76667,2.6 -4.8,2.6c-2.33333,0 -4,-0.86667 -5,-2.6c-0.56667,-1 -0.85,-2.08333 -0.85,-3.25c0,-2.76667 1.56667,-4.55 4.7,-5.35c5.76667,-1.5 9.8,-2.93333 12.1,-4.3l0.5,1.05M529.23009,401.68408c3.46667,0 5.56667,0.76667 6.3,2.3c-0.73333,0.73333 -2.4,1.21667 -5,1.45c-2.63333,0.26667 -4.38333,0.8 -5.25,1.6c-1.16667,1.5 -2.05,2.58333 -2.65,3.25c-1.03333,1.16667 -2.28333,1.75 -3.75,1.75c-2.43333,0 -4.2,-0.86667 -5.3,-2.6c-0.66667,-1.06667 -1,-2.15 -1,-3.25c0,-5.06667 2.21667,-7.35 6.65,-6.85c1.2,0.13333 3.03333,0.58333 5.5,1.35c2.23333,0.66667 3.73333,1 4.5,1M576.68009,251.28408c1.3,1.36667 1.95,3.18333 1.95,5.45c0,0.36667 -0.2,1.41667 -0.6,3.15c-0.3,1.3 -0.26667,2.71667 0.1,4.25c-0.23333,0.43333 -0.76667,0.7 -1.6,0.8c-1.33333,-1.16667 -3.96667,-3.06667 -7.9,-5.7c-1.66667,-1.13333 -2.5,-2.46667 -2.5,-4c0,-1.9 0.65,-3.4 1.95,-4.5c1.2,-1.03333 2.63333,-1.5 4.3,-1.4c1.7,0.1 3.13333,0.75 4.3,1.95M645.08009,240.28408c0,1 -0.73333,3.11667 -2.2,6.35c-1.33333,2.96667 -1.86667,5.13333 -1.6,6.5c-0.03333,0.33333 -0.38333,0.56667 -1.05,0.7c-0.73333,-0.76667 -1.25,-1.95 -1.55,-3.55c-0.2,-1.76667 -0.38333,-3 -0.55,-3.7c-1.86667,-0.9 -3.31667,-2 -4.35,-3.3c-0.83333,-1.1 -1.25,-2.13333 -1.25,-3.1c0,-2.06667 0.65,-3.66667 1.95,-4.8c1.16667,-0.96667 2.61667,-1.4 4.35,-1.3c1.66667,0.1 3.1,0.68333 4.3,1.75c1.3,1.16667 1.95,2.65 1.95,4.45M727.28009,251.93408c1.2,1 1.8,2.33333 1.8,4c0,0.86667 -0.71667,1.76667 -2.15,2.7c-2.23333,1.33333 -4.15,2.58333 -5.75,3.75c-1.43333,1.06667 -2.63333,2.43333 -3.6,4.1c-1.06667,1.86667 -1.96667,3.13333 -2.7,3.8c-0.46667,-0.03333 -0.76667,-0.06667 -0.9,-0.1c-0.2,-0.03333 -0.3,-0.41667 -0.3,-1.15c0,-2.23333 0.63333,-4.15 1.9,-5.75c1.23333,-1.6 1.85,-3.96667 1.85,-7.1c0,-1.7 0.6,-3.06667 1.8,-4.1c1.1,-0.9 2.45,-1.36667 4.05,-1.4c1.56667,-0.03333 2.9,0.38333 4,1.25M755.68009,370.63408c-1.36667,0 -2.93333,-0.45 -4.7,-1.35c-1.73333,-0.9 -4,-1.35 -6.8,-1.35c-1.2,0 -1.96667,-0.4 -2.3,-1.2c-0.13333,-0.26667 -0.2,-0.71667 -0.2,-1.35c0,-0.33333 1.03333,-1.11667 3.1,-2.35c2.3,-1.36667 4.58333,-2.41667 6.85,-3.15c6.6,-2.13333 9.9,-0.53333 9.9,4.8c0,0.93333 -0.36667,2.01667 -1.1,3.25c-1.13333,1.8 -2.71667,2.7 -4.75,2.7M759.93009,305.43408c-0.56667,0 -1.21667,-0.26667 -1.95,-0.8c-0.7,-0.56667 -1.35,-0.85 -1.95,-0.85c-0.16667,0 -0.7,0.23333 -1.6,0.7c-0.93333,0.53333 -1.48333,0.91667 -1.65,1.15c-0.2,0.13333 -0.38333,0.2 -0.55,0.2c-0.4,0 -0.6,-0.36667 -0.6,-1.1c0,-2.56667 0.76667,-4.86667 2.3,-6.9c1.36667,-1.8 3.05,-3.05 5.05,-3.75c1.96667,-0.73333 3.65,-0.7 5.05,0.1c1.53333,0.86667 2.3,2.46667 2.3,4.8c0,1.2 -0.46667,2.46667 -1.4,3.8c-1.23333,1.76667 -2.9,2.65 -5,2.65z" fill="#ffffff"/></g></g></svg>