<svg version="1.1" xmlns="http://www.w3.org/2000/svg" xmlns:xlink="http://www.w3.org/1999/xlink" width="426.48086" height="555.35265" viewBox="0,0,426.48086,555.35265"><g transform="translate(-431.28851,-164.55018)"><g data-paper-data="{&quot;isPaintingLayer&quot;:true}" fill-rule="nonzero" stroke="none" stroke-width="1" stroke-linecap="butt" stroke-linejoin="miter" stroke-miterlimit="10" stroke-dasharray="" stroke-dashoffset="0" style="mix-blend-mode: normal"><path d="M535.25343,452.22451c1.12706,-6.44366 3.25707,-11.75671 6.39004,-15.93914c2.08187,-2.73315 4.07059,-5.52811 5.96616,-8.38489c6.23516,-9.20819 12.9036,-17.84266 20.00532,-25.90341c0.00812,-0.06617 -0.00029,-0.13436 -0.02525,-0.20459c-2.33097,-5.3571 -3.65902,-11.49776 -3.98413,-18.42198c1.63323,-1.81436 3.42608,-3.42443 5.37854,-4.83019c8.55275,-6.20347 18.28085,-10.90255 29.18428,-14.09724c2.67973,0.32905 4.90327,0.9547 6.67061,1.87694c10.3185,5.39762 19.23156,11.84841 26.73918,19.35236c-0.58851,1.23743 -1.1332,2.66494 -1.63407,4.28253c-3.7359,12.10089 -7.61662,24.15043 -11.64215,36.14859c-1.81957,-0.22343 -3.64088,-0.29596 -5.46393,-0.21758c-4.22476,0.22003 -8.69793,0.27522 -13.41952,0.16559c-5.46153,5.64276 -10.59541,11.76232 -15.40166,18.35867c-6.42206,8.81584 -12.35482,18.29624 -17.7983,28.4412c-0.09925,-0.01219 -0.16745,-0.00377 -0.20459,0.02525c-4.92991,2.95432 -11.80625,3.43644 -20.629,1.44635c0.00812,-0.06617 -0.00232,-0.11782 -0.03134,-0.15497c-5.01416,-3.47017 -8.73431,-7.90644 -11.16047,-13.30881c0.14739,-2.56771 0.50082,-5.44594 1.06029,-8.63469z" fill-opacity="0.99608" fill="#000000"/><path d="M574.24199,477.37923c-3.15175,14.85686 -8.40266,26.28123 -15.75276,34.27312c-5.50186,5.96664 -11.85331,10.59336 -19.05435,13.88019c-7.05003,3.26687 -15.70684,3.82694 -25.97041,1.6802c-5.94314,-1.24698 -10.94074,-3.56115 -14.99282,-6.94251c-8.05458,-6.68058 -13.4698,-16.03414 -16.24568,-28.06065c-1.36541,-5.95342 -2.22931,-12.49411 -2.5917,-19.62208c-0.3331,-7.12445 0.11592,-15.06909 1.34705,-23.83393c1.38879,-7.1081 3.28466,-13.98391 5.68762,-20.62741c2.23164,-6.20702 4.97823,-11.62852 8.23974,-16.2645c6.58615,-9.30246 15.39879,-14.87149 26.43792,-16.70707c4.18306,-0.67837 8.81907,-0.42632 13.90803,0.75617c8.7558,2.07992 15.94286,5.83778 21.56118,11.27357c7.45504,7.218 12.9176,16.42488 16.3877,27.62065c1.77786,5.73634 2.81757,12.05057 3.11913,18.9427c0.34884,7.73576 -0.34471,15.61294 -2.08064,23.63157z" fill-opacity="0.99608" fill="#000000"/><path d="M541.78529,413.96462c1.47643,0.64845 2.72088,1.44141 3.73333,2.37887c3.22651,2.93156 6.29065,5.98102 9.19241,9.14838c7.16475,7.80905 12.16412,17.36308 14.9981,28.6621c-0.10501,1.06133 -0.21167,2.13924 -0.31996,3.23373c-0.00984,0.0995 -0.01805,0.18242 -0.02461,0.24875c-3.49762,4.20873 -7.32234,7.99995 -11.47415,11.37366c-0.06961,0.0266 -0.13759,0.03662 -0.20392,0.03006c1.15142,6.97962 1.15091,14.43137 -0.00152,22.35523c-0.44442,3.13769 -1.6624,5.46204 -3.65392,6.97304c-4.3078,3.2578 -10.05844,4.68153 -17.25194,4.27119c-2.53378,-0.11674 -4.65679,-0.66171 -6.36902,-1.63492c-2.3382,2.9838 -5.08312,5.50872 -8.23477,7.57476c-0.03645,0.02988 -0.05795,0.07799 -0.06452,0.14433c-0.69641,6.36141 -1.84092,12.34356 -3.43353,17.94647c-0.5847,2.18606 -1.70388,3.85036 -3.35752,4.99289c-5.43148,3.78295 -12.16622,6.01357 -20.20424,6.69186c-3.14355,0.2918 -6.36018,0.4759 -9.64988,0.5523c-7.31562,0.14693 -14.33379,-0.68145 -21.05452,-2.48513c-5.28437,-1.42712 -9.85964,-3.42042 -13.72581,-5.97989c-3.4547,-2.31781 -5.69823,-5.53725 -6.73059,-9.65835c-0.21318,-0.89186 -0.29005,-1.46882 -0.23063,-1.73087c0.06633,0.00656 0.13431,-0.00346 0.20392,-0.03006c2.01519,-1.07327 4.06027,-2.1101 6.13524,-3.11047c-0.00984,0.0995 -0.03463,0.18077 -0.07436,0.24383c-0.42613,1.59891 -0.47431,3.10124 -0.14453,4.50701c4.28408,5.78248 11.21721,9.33198 20.7994,10.64849c11.3965,1.5965 21.3917,1.44678 29.98558,-0.44918c0.85542,-0.18329 1.61971,-0.29187 2.29289,-0.32574c3.49526,-0.12304 6.00614,-1.29798 7.53263,-3.52481c1.63255,-2.28333 2.92471,-5.01897 3.87648,-8.20694c1.00134,-3.35052 1.33115,-6.68375 0.98942,-9.9997c-1.89635,0.54917 -3.64821,1.33033 -5.25556,2.34349c-2.53531,1.59116 -5.44963,2.27405 -8.74296,2.04866c3.75556,-1.73835 7.39158,-3.6225 10.90806,-5.65244c2.06149,-1.20266 4.00179,-2.53452 5.82092,-3.9956c1.67333,-1.34154 3.34503,-2.66649 5.01508,-3.97486c4.50645,-3.57306 6.21021,-9.11473 5.1113,-16.62502c-0.0995,-0.00984 -0.18242,-0.01805 -0.24875,-0.02461c-3.09796,-0.50747 -5.80959,-1.02696 -8.13487,-1.55846c0.06633,0.00656 0.14925,0.01477 0.24875,0.02461c5.16601,-0.76152 9.82398,-2.14265 13.97391,-4.1434c0.00656,-0.06633 0.02971,-0.13103 0.06944,-0.19408c3.2112,-5.37577 5.4362,-11.95434 6.67501,-19.73569c0.00656,-0.06633 0.01477,-0.14925 0.02461,-0.24875c0.07876,-0.796 0.45965,-1.26068 1.14267,-1.39404c-0.00984,0.0995 -0.01805,0.18242 -0.02461,0.24875c1.17347,2.69493 1.74063,5.93271 1.70146,9.71335c0.00245,2.34463 -0.24238,4.48058 -0.7345,6.40787c-0.70026,2.67699 -1.03112,5.00539 -0.99257,6.98518c-0.00984,0.0995 -0.03463,0.18077 -0.07436,0.24383c-0.97942,2.11351 -2.67772,3.36885 -5.09489,3.76602c-0.00984,0.0995 -0.03299,0.16419 -0.06944,0.19408c-0.58317,0.47816 -1.12315,1.02757 -1.61995,1.64824c-0.00984,0.0995 -0.01805,0.18242 -0.02461,0.24875c0.04979,3.22008 -0.16264,6.21327 -0.6373,8.97957c-0.00984,0.0995 0.00017,0.16747 0.03006,0.20392c1.02593,1.13974 2.34344,2.0404 3.95255,2.70198c1.7706,-0.29368 3.54777,-0.6537 5.33149,-1.08005c5.17551,-1.19596 8.11967,-5.05756 8.83249,-11.5848c0.23007,-1.98671 0.12536,-3.80559 -0.31412,-5.45666c-1.16538,-4.46917 -1.10904,-9.26958 0.16901,-14.40124c0.78838,-0.85975 1.66806,-1.62673 2.63904,-2.30096c2.69423,-1.84337 5.34364,-3.7414 7.94821,-5.69411c0.00656,-0.06633 0.01477,-0.14925 0.02461,-0.24875c0.03903,-0.73294 0.11287,-1.47919 0.22151,-2.23874c-3.52322,-10.76437 -8.92515,-19.97309 -16.20581,-27.62615c-2.60948,-2.73654 -5.14606,-5.53286 -7.60974,-8.38894c0.70822,-1.40354 1.48788,-2.68279 2.33896,-3.83775c0.03645,-0.02988 0.05959,-0.09458 0.06944,-0.19408z" fill-opacity="0.99608" fill="#2b2c3f"/><path d="M444.76901,376.48392c0.00656,-0.06633 0.03135,-0.14761 0.07436,-0.24383c0.4334,-0.99535 0.6893,-2.05849 0.76771,-3.18943c1.52251,-2.86356 2.89067,-5.85962 4.10449,-8.98817c2.11999,-5.51723 5.05853,-9.99898 8.81562,-13.44523c7.83237,-7.06197 17.77327,-11.57093 29.82269,-13.52687c2.17879,-0.01886 4.43394,0.03682 6.76544,0.16704c7.39578,0.39686 13.62358,1.76662 18.6834,4.10928c10.63389,4.90366 18.56897,12.03538 23.80525,21.39516c5.23956,9.32662 7.85321,20.82152 7.84096,34.48472c-0.7795,6.18573 -2.05046,11.75348 -3.81288,16.70325l0.14925,0.01477c-0.00984,0.0995 -0.03299,0.16419 -0.06944,0.19408c-0.85108,1.15496 -1.63074,2.43422 -2.33896,3.83775c2.46368,2.85608 5.00026,5.6524 7.60974,8.38894c7.28066,7.65306 12.68259,16.86178 16.20581,27.62615c-0.10864,0.75955 -0.18248,1.50579 -0.22151,2.23874c-0.00984,0.0995 -0.01805,0.18242 -0.02461,0.24875c-2.60458,1.95271 -5.25398,3.85075 -7.94821,5.69411c-0.97097,0.67422 -1.85065,1.44121 -2.63904,2.30096c-1.27805,5.13166 -1.33439,9.93208 -0.16901,14.40124c0.43948,1.65106 0.54418,3.46995 0.31412,5.45666c-0.71282,6.52724 -3.65698,10.38884 -8.83249,11.5848c-1.78373,0.42635 -3.56089,0.78637 -5.33149,1.08005c-1.6091,-0.66158 -2.92662,-1.56224 -3.95255,-2.70198c-0.02988,-0.03645 -0.0399,-0.10442 -0.03006,-0.20392c0.47466,-2.7663 0.68709,-5.75949 0.6373,-8.97957c0.00656,-0.06633 0.01477,-0.14925 0.02461,-0.24875c0.4968,-0.62067 1.03678,-1.17008 1.61995,-1.64824c0.03645,-0.02988 0.05959,-0.09458 0.06944,-0.19408c2.41717,-0.39717 4.11547,-1.6525 5.09489,-3.76602c0.03973,-0.06305 0.06452,-0.14433 0.07436,-0.24383c-0.03855,-1.9798 0.29231,-4.30819 0.99257,-6.98518c0.49212,-1.92729 0.73695,-4.06325 0.7345,-6.40787c0.03916,-3.78063 -0.52799,-7.01841 -1.70146,-9.71335c0.00656,-0.06633 0.01477,-0.14925 0.02461,-0.24875c-0.68302,0.13337 -1.06391,0.59805 -1.14267,1.39404c-0.00984,0.0995 -0.01805,0.18242 -0.02461,0.24875c-1.2388,7.78135 -3.4638,14.35991 -6.67501,19.73569c-0.03973,0.06305 -0.06288,0.12774 -0.06944,0.19408c-4.14993,2.00075 -8.8079,3.38189 -13.97391,4.1434c-0.0995,-0.00984 -0.18242,-0.01805 -0.24875,-0.02461c2.32529,0.5315 5.03691,1.05098 8.13487,1.55846c0.06633,0.00656 0.14925,0.01477 0.24875,0.02461c1.09891,7.51029 -0.60486,13.05196 -5.1113,16.62502c-1.67005,1.30837 -3.34174,2.63332 -5.01508,3.97486c-1.81913,1.46108 -3.75943,2.79294 -5.82092,3.9956c-3.51648,2.02994 -7.1525,3.91408 -10.90806,5.65244c3.29333,0.22538 6.20765,-0.4575 8.74296,-2.04866c1.60735,-1.01315 3.3592,-1.79432 5.25556,-2.34349c0.34173,3.31595 0.01192,6.64918 -0.98942,9.9997c-0.95177,3.18797 -2.24393,5.92361 -3.87648,8.20694c-1.52649,2.22684 -4.03737,3.40178 -7.53263,3.52481c-0.67318,0.03387 -1.43747,0.14244 -2.29289,0.32574c-8.59389,1.89596 -18.58908,2.04568 -29.98558,0.44918c-9.58219,-1.31651 -16.51532,-4.86601 -20.7994,-10.64849c-0.32978,-1.40577 -0.28161,-2.90811 0.14453,-4.50701c0.03973,-0.06305 0.06452,-0.14433 0.07436,-0.24383c-2.07496,1.00038 -4.12004,2.0372 -6.13524,3.11047c-0.06961,0.0266 -0.13759,0.03662 -0.20392,0.03006c0.00656,-0.06633 0.01477,-0.14925 0.02461,-0.24875c0.02722,-5.69081 0.68442,-11.48675 1.97162,-17.3878c-2.93926,-4.14231 -5.45773,-8.64489 -7.5554,-13.50772c-0.02988,-0.03645 -0.07799,-0.05795 -0.14433,-0.06452c1.4112,-7.83128 3.43504,-14.91537 6.07151,-21.25227c0.03973,-0.06305 0.06452,-0.14433 0.07436,-0.24383c-3.48677,-10.79425 -7.19058,-21.42578 -11.11145,-31.89459c-1.08089,-2.9537 -1.66972,-6.31085 -1.76651,-10.07144c-0.00035,-0.33495 0.01588,-0.66825 0.0487,-0.99992c5.0799,-6.9994 11.38673,-12.52101 18.92047,-16.56483c0.03317,0.00328 0.05467,-0.04483 0.06452,-0.14433c-3.03276,-7.93607 -4.91577,-16.8301 -5.64902,-26.68208c0.00656,-0.06633 0.01477,-0.14925 0.02461,-0.24875c-0.51167,-0.9214 -0.51272,-1.92624 -0.00315,-3.01452c0.03973,-0.06305 0.06452,-0.14433 0.07436,-0.24383M451.28571,376.62635c-0.00984,0.0995 -0.01805,0.18242 -0.02461,0.24875c0.86185,2.79806 1.97719,5.40352 3.34603,7.81636c-0.00328,0.03317 0.04483,0.05467 0.14433,0.06452c0.15376,1.15391 0.45494,2.17171 0.90357,3.05338c0.72778,1.44515 1.31493,1.60372 1.76146,0.47571c0.00656,-0.06633 0.01477,-0.14925 0.02461,-0.24875c2.06022,-5.59013 4.34293,-10.89032 6.84814,-15.90056c-2.56388,-3.53582 -4.54296,-7.56638 -5.93722,-12.09169c-0.02988,-0.03645 -0.07799,-0.05795 -0.14433,-0.06452c-3.76002,3.81437 -6.06735,9.3633 -6.92198,16.6468M478.64296,345.87549c-0.06961,0.0266 -0.13759,0.03662 -0.20392,0.03006c1.0769,2.31697 2.17203,4.61901 3.28539,6.90609c0.0266,0.06961 0.03662,0.13759 0.03006,0.20392c4.25892,-2.42535 8.8781,-4.42991 13.85754,-6.01368c0.03317,0.00328 0.05467,-0.04483 0.06452,-0.14433c-4.00072,-1.19964 -8.61942,-1.90782 -13.85609,-2.12454c-0.0995,-0.00984 -0.18242,-0.01805 -0.24875,-0.02461c-1.00777,0.36916 -1.98402,0.75819 -2.92874,1.16708M474.67985,347.34213c-0.02988,-0.03645 -0.07799,-0.05795 -0.14433,-0.06452c-4.9492,1.95516 -9.226,4.7304 -12.83039,8.32573c-0.03973,0.06305 -0.06288,0.12774 -0.06944,0.19408c0.20298,0.65642 0.32814,1.42235 0.37549,2.29781l0.14925,0.01477c-0.00984,0.0995 -0.01805,0.18242 -0.02461,0.24875c-0.00984,0.0995 -0.00147,0.18406 0.02514,0.25367c0.69741,4.12144 2.0857,7.69165 4.16487,10.71064c0.00656,-0.06633 0.02971,-0.13103 0.06944,-0.19408c3.4204,-5.12064 7.36378,-9.60343 11.83014,-13.44838c-1.71363,-2.31299 -2.89548,-5.09248 -3.54555,-8.33847M497.7279,343.89562c-0.03645,0.02988 0.08637,0.14251 0.36846,0.33788c0.92936,0.76178 1.78841,0.88027 2.57714,0.35547c-0.75075,-1.21298 -1.73262,-1.4441 -2.94561,-0.69335M492.62297,352.33266c-0.00984,0.0995 -0.03135,0.14761 -0.06452,0.14433c-2.88045,1.35606 -5.60984,2.87778 -8.18817,4.56516c-0.00984,0.0995 0.00017,0.16747 0.03006,0.20392c2.00263,2.77697 4.42442,5.21027 7.26537,7.29989c0.06633,0.00656 0.93711,-1.3474 2.61232,-4.06189c1.6785,-2.74766 3.06904,-4.95445 4.17163,-6.62039l0.93875,-1.36398c-0.96183,-0.09517 -1.96175,-0.14387 -2.99975,-0.1461l-0.00984,0.0995c-0.0995,-0.00984 -0.18242,-0.01805 -0.24875,-0.02461c-1.17395,0.01781 -2.34299,-0.01413 -3.5071,-0.09583M480.786,359.24958c-0.02988,-0.03645 -0.07799,-0.05795 -0.14433,-0.06452c-4.71892,3.35108 -8.64589,7.66805 -11.78092,12.95088c-0.03973,0.06305 -0.06288,0.12774 -0.06944,0.19408c3.19063,6.67903 8.20532,11.84723 15.04405,15.5046c0.06305,0.03973 0.14433,0.06452 0.24383,0.07436c1.78399,-6.52172 3.66748,-13.0336 5.65048,-19.53564c0.03973,-0.06305 0.06452,-0.14433 0.07436,-0.24383c-3.57424,-2.4636 -6.58025,-5.42358 -9.01803,-8.87994M494.80624,370.88512c-1.48934,2.86685 -2.68986,6.0302 -3.60154,9.49006c-0.92153,3.55936 -1.88625,7.04747 -2.89415,10.46432c5.73767,3.61541 13.05738,5.79653 21.95913,6.54335c1.29349,0.12798 2.56367,0.15319 3.81052,0.07561c1.41596,-0.09434 2.07989,-1.05013 1.99176,-2.86737c0.00871,-7.53466 -0.71154,-14.47162 -2.16076,-20.81089c-0.0266,-0.06961 -0.03498,-0.15417 -0.02514,-0.25367c-6.89067,0.59087 -13.16933,-0.26481 -18.83599,-2.56704c-0.09622,-0.04301 -0.17749,-0.0678 -0.24383,-0.07436M496.02065,366.73515c-0.04301,0.09622 -0.0678,0.17749 -0.07436,0.24383c2.19988,1.12193 4.72106,1.87376 7.56354,2.25548c3.14097,0.41126 5.95813,0.37183 8.45149,-0.11827c0.06961,-0.0266 0.11263,-0.12282 0.12903,-0.28865c-2.36042,-5.59214 -5.26592,-10.7526 -8.71651,-15.48137c-0.02988,-0.03645 -0.0399,-0.10442 -0.03006,-0.20392c-2.66846,4.29077 -5.1095,8.82174 -7.32313,13.5929M466.97552,376.97309c-0.02988,-0.03645 -0.07799,-0.05795 -0.14433,-0.06452c-2.40711,3.6803 -4.185,8.10943 -5.33366,13.28738c-0.00984,0.0995 -0.01805,0.18242 -0.02461,0.24875l-0.14925,-0.01477c-0.27015,1.71481 -0.62502,3.27053 -1.06463,4.66716c5.24437,7.58555 11.7247,14.18818 19.44099,19.80789c1.1218,0.8478 1.93602,0.91162 2.44266,0.19145c-0.44744,-2.92452 -0.79046,-5.88894 -1.02906,-8.89326l0.14925,0.01477l0.0995,0.00984c0.1587,-3.63484 0.57764,-7.36115 1.25681,-11.17893l0.0995,0.00984c0.19174,-0.58387 0.29891,-1.15936 0.32154,-1.72647c-0.31526,-0.19865 -0.63215,-0.38071 -0.95069,-0.5462c-0.09622,-0.04301 -0.17749,-0.0678 -0.24383,-0.07436c0.00656,-0.06633 0.01477,-0.14925 0.02461,-0.24875c-6.36819,-4.01271 -11.33312,-9.17599 -14.8948,-15.48983M455.01332,397.34109c0.15529,-0.55399 0.37035,-1.03507 0.64517,-1.44327c-1.13891,-1.35186 -2.11215,-2.85479 -2.91974,-4.50879c-0.02988,-0.03645 -0.07799,-0.05795 -0.14433,-0.06452c0.48389,2.89463 1.26048,5.03118 2.32977,6.40965l0.08913,-0.39308M459.84325,401.83793c-0.61599,0.80982 -0.78224,1.98231 -0.49875,3.51747c0.2004,1.35948 0.29456,2.60797 0.28248,3.74547c4.72601,9.77817 12.68933,16.96292 23.88998,21.55425c0.74314,0.27448 1.41467,0.25719 2.0146,-0.05185c0.0729,-0.05977 0.11755,-0.17257 0.13396,-0.3384c-1.13339,-2.42304 -1.94039,-5.09845 -2.421,-8.02625c-0.0266,-0.06961 -0.03498,-0.15417 -0.02514,-0.25367c-4.47008,-2.88715 -8.75792,-5.92372 -12.86353,-9.10972c-4.1056,-3.186 -7.60981,-6.8651 -10.51262,-11.0373M488.20205,396.50552c-0.06633,-0.00656 -0.13595,0.02004 -0.20884,0.07981c-0.71807,1.50304 -1.04107,3.41357 -0.96901,5.73159c0.03527,2.01296 0.14671,3.93299 0.33433,5.76008c-0.00984,0.0995 -0.01805,0.18242 -0.02461,0.24875c-0.13866,3.77079 0.10538,7.22778 0.73213,10.37099c2.21664,1.29104 4.539,2.19065 6.96707,2.69883c5.28402,1.09218 10.54894,1.36193 15.79476,0.80926c0.00656,-0.06633 0.03135,-0.14761 0.07436,-0.24383c1.98509,-4.49235 3.48036,-9.61927 4.48582,-15.38075c-0.25982,-1.09743 -0.25266,-2.18518 0.02146,-3.26327c0.03973,-0.06305 0.06452,-0.14433 0.07436,-0.24383c0.00656,-0.06633 0.01477,-0.14925 0.02461,-0.24875c0.14872,-0.48765 0.28087,-0.97695 0.39642,-1.46788c-6.00104,1.4157 -12.1168,0.94454 -18.34729,-1.41348c-3.03233,-1.1708 -6.15085,-2.31665 -9.35558,-3.43753M488.77567,431.32615c0.02332,0.10278 0.0317,0.18734 0.02514,0.25367c5.9109,1.1877 11.33638,1.18866 16.27644,0.00289c0.03317,0.00328 0.05467,-0.04483 0.06452,-0.14433c1.19588,-1.25481 2.16433,-2.74982 2.90537,-4.48503c0.03973,-0.06305 0.06452,-0.14433 0.07436,-0.24383c-7.28539,0.51832 -13.87931,-0.53601 -19.78176,-3.16299c-0.09622,-0.04301 -0.17749,-0.0678 -0.24383,-0.07436c-0.04678,2.84212 0.17981,5.46011 0.67976,7.85396M455.22839,417.50733c-0.06305,-0.03973 -0.12774,-0.06288 -0.19408,-0.06944c1.00493,6.42927 3.34185,11.75116 7.01077,15.96567c0.02988,0.03645 0.09458,0.05959 0.19408,0.06944c-0.00984,0.0995 -0.00147,0.18406 0.02514,0.25367c0.1363,0.31491 0.34385,0.58663 0.62266,0.81516c-0.00984,0.0995 0.00182,0.15089 0.03498,0.15417c1.32443,1.16927 2.61569,2.33526 3.87379,3.49797c-0.00984,0.0995 0.00182,0.15089 0.03498,0.15417c1.57663,1.32819 3.10024,2.68463 4.57081,4.06931c0.06633,0.00656 0.13103,0.02971 0.19408,0.06944c3.77464,3.82308 9.33359,6.19838 16.67686,7.1259c1.91381,0.28984 3.58526,0.32125 5.01436,0.09425c1.59821,-0.24376 3.1401,-0.42611 4.62568,-0.54705c8.78081,-0.73876 15.59596,-3.78196 20.44545,-9.1296c-1.34084,-1.00344 -2.77503,-0.89416 -4.30257,0.32784c-0.32475,0.2358 -0.68103,0.45173 -1.06883,0.6478c-1.09379,0.5616 -2.22914,1.03536 -3.40602,1.42128c-4.65574,0.34313 -9.37962,0.5288 -14.17166,0.55702c-1.91018,0.01194 -3.81052,-0.07561 -5.70101,-0.26266c-4.85579,-0.6814 -8.92958,-1.98875 -12.22137,-3.92203c-0.06305,-0.03973 -0.12774,-0.06288 -0.19408,-0.06944c-0.81967,-0.51649 -1.70057,-0.92181 -2.64271,-1.21598c-0.09622,-0.04301 -0.17749,-0.0678 -0.24383,-0.07436c0.00656,-0.06633 0.01477,-0.14925 0.02461,-0.24875c-0.46796,-0.34772 -0.92098,-0.67722 -1.35906,-0.9885c-0.03317,-0.00328 -0.04483,-0.05467 -0.03498,-0.15417c0.00656,-0.06633 0.01477,-0.14925 0.02461,-0.24875c-1.67906,-0.96992 -3.17425,-2.10586 -4.48555,-3.40779c-0.06305,-0.03973 -0.12774,-0.06288 -0.19408,-0.06944c0.00656,-0.06633 0.01477,-0.14925 0.02461,-0.24875c-1.31786,-1.23561 -2.54789,-2.51276 -3.69008,-3.83145c-0.06305,-0.03973 -0.12774,-0.06288 -0.19408,-0.06944c0.00656,-0.06633 0.01477,-0.14925 0.02461,-0.24875c-3.21702,-3.36601 -6.32305,-6.83825 -9.3181,-10.41674M507.60894,345.57661c-0.09622,-0.04301 -0.17749,-0.0678 -0.24383,-0.07436c-1.45674,-0.84745 -2.73201,-0.99038 -3.82581,-0.42878c-0.06961,0.0266 -0.04629,0.12938 0.06996,0.30834c0.2897,1.13387 1.03448,1.39177 2.23434,0.77368c0.03645,-0.02988 0.10442,-0.0399 0.20392,-0.03006c0.06633,0.00656 0.14925,0.01477 0.24875,0.02461c1.65176,0.23042 3.23537,0.30338 4.75084,0.21889c-1.29021,-0.16115 -2.43627,-0.42526 -3.43818,-0.79232M508.5343,350.44067c-0.28865,-0.12903 -0.58551,-0.17515 -0.89057,-0.13835c2.50984,5.77439 5.06815,11.90522 7.67491,18.39251c0.0266,0.06961 0.03662,0.13759 0.03006,0.20392c3.84368,0.07889 7.04432,-1.12827 9.6019,-3.62149c0.03645,-0.02988 0.05959,-0.09458 0.06944,-0.19408c-3.53871,-6.54601 -9.03395,-11.42685 -16.48574,-14.64251M517.94632,350.7691c0.02988,0.03645 0.06141,0.05631 0.09458,0.05959c0.24564,0.22525 0.73364,0.70892 1.46401,1.45101c0.09294,0.07618 0.20081,0.17058 0.32364,0.28321c1.43412,1.41457 2.99634,3.22695 4.68665,5.43716c1.80985,2.356 2.76288,3.55551 2.8591,3.59852c0.63708,0.33097 0.93669,-0.1585 0.89884,-1.46841c0.00656,-0.06633 0.01477,-0.14925 0.02461,-0.24875c-2.80918,-3.42613 -5.43014,-6.04659 -7.86289,-7.86138c-1.09191,-0.81135 -1.84032,-1.37103 -2.24524,-1.67902c-0.1261,-0.07946 -0.26879,-0.16056 -0.42806,-0.2433c-1.29748,-0.76471 -1.23589,-0.54093 0.18476,0.67136M531.04415,365.12663c-0.02988,-0.03645 -0.11444,-0.02807 -0.25367,0.02514c-0.62946,0.60754 -0.91068,1.24954 -0.84365,1.926l0.14925,0.01477c-0.00984,0.0995 0.00017,0.16747 0.03006,0.20392c0.11298,0.21213 0.24418,0.40931 0.3936,0.59155c-0.00984,0.0995 -0.01805,0.18242 -0.02461,0.24875c-0.00984,0.0995 0.00017,0.16747 0.03006,0.20392c2.60571,5.48245 4.86517,11.24881 6.77837,17.29907c0.00656,-0.06633 0.03135,-0.14761 0.07436,-0.24383c0.49973,-0.98878 0.78024,-2.30067 0.84155,-3.93568c-1.6781,-6.3954 -4.06987,-11.83994 -7.17531,-16.33361M527.05853,368.85169c-0.02988,-0.03645 -0.07799,-0.05795 -0.14433,-0.06452c-2.95628,1.78395 -6.33259,3.0742 -10.12893,3.87076c-0.03645,0.02988 -0.05795,0.07799 -0.06452,0.14433c2.11911,6.33857 3.06402,14.05131 2.83474,23.13823l0.14925,0.01477c2.17516,-0.32064 4.0963,-0.95109 5.76342,-1.89134c0.03645,-0.02988 0.10442,-0.0399 0.20392,-0.03006c0.06633,0.00656 0.13431,-0.00346 0.20392,-0.03006c3.2522,-1.05135 6.10095,-2.59475 8.54626,-4.6302c-1.04221,-4.02159 -2.10099,-8.04483 -3.17637,-12.0697c-0.02988,-0.03645 -0.07799,-0.05795 -0.14433,-0.06452c0.00656,-0.06633 0.01477,-0.14925 0.02461,-0.24875c0.00656,-0.06633 0.01477,-0.14925 0.02461,-0.24875c-1.30942,-2.67489 -2.67351,-5.30496 -4.09228,-7.89019M533.17314,412.66036c0.03645,-0.02988 0.10442,-0.0399 0.20392,-0.03006c0.66346,-2.98205 1.22397,-6.10826 1.68152,-9.37862c0.00656,-0.06633 0.01477,-0.14925 0.02461,-0.24875c0.01654,-3.21352 -0.09449,-6.32244 -0.33308,-9.32677c0.00656,-0.06633 0.01477,-0.14925 0.02461,-0.24875c-4.17513,3.27092 -9.08408,5.66545 -14.72685,7.18358c-0.03645,0.02988 -0.05795,0.07799 -0.06452,0.14433c-0.41397,6.89172 -1.65072,13.46759 -3.71024,19.72762c-0.00984,0.0995 -0.01805,0.18242 -0.02461,0.24875c6.88012,-1.16126 12.52167,-3.85171 16.92463,-8.07133M534.18086,434.46237c0.03317,0.00328 0.05467,-0.04483 0.06452,-0.14433c-1.03801,-0.00223 -1.3733,-0.33683 -1.00589,-1.00379c0.16876,-0.3517 0.18664,-0.70159 0.05362,-1.04967c-0.49198,-1.1204 -1.18771,-2.04326 -2.08719,-2.76859c-1.83658,0.62207 -3.49714,1.49599 -4.98167,2.62177c-0.03645,0.02988 -0.05795,0.07799 -0.06452,0.14433c2.04788,1.64275 4.72159,2.37618 8.02113,2.20028M514.71696,426.05597c-0.10278,0.02332 -0.18734,0.0317 -0.25367,0.02514c-0.72826,1.26759 -1.42336,2.53846 -2.08529,3.81262c-0.04301,0.09622 -0.0678,0.17749 -0.07436,0.24383c6.04405,-1.51192 11.15001,-4.20512 15.31787,-8.07961c0.03645,-0.02988 0.05959,-0.09458 0.06944,-0.19408c-3.97097,1.8845 -8.29563,3.28186 -12.97399,4.1921M515.97361,481.39056c0.03317,0.00328 0.05467,-0.04483 0.06452,-0.14433c-1.35361,-0.53583 -2.33531,-0.59947 -2.94508,-0.19093c-0.03645,0.02988 -0.05795,0.07799 -0.06452,0.14433c1.2472,0.25737 2.22889,0.32101 2.94508,0.19093M474.40848,478.03146l0.01477,-0.14925c-7.92701,-4.16695 -14.99749,-9.03619 -21.21144,-14.60773c-0.06305,-0.03973 -0.12774,-0.06288 -0.19408,-0.06944c0.16395,1.38936 0.61949,2.53964 1.36661,3.45085c0.0266,0.06961 0.03662,0.13759 0.03006,0.20392c-1.92624,0.51272 -3.14397,1.4807 -3.6532,2.90393c-0.03317,-0.00328 -0.08292,-0.0082 -0.14925,-0.01477c2.22062,1.92777 4.98797,3.40727 8.30204,4.43849c3.606,1.12709 6.9015,1.83831 9.88648,2.13366c0.11989,0.48074 0.51314,0.73734 1.17975,0.76981l-0.00984,0.0995c1.58543,0.22385 3.06479,0.50419 4.4381,0.84102z" fill="#000000"/><path d="M474.42325,477.88221l-0.01477,0.14925c-1.3733,-0.33683 -2.85267,-0.61717 -4.4381,-0.84102l0.00984,-0.0995c-0.66661,-0.03247 -1.05986,-0.28907 -1.17975,-0.76981c-2.98499,-0.29535 -6.28048,-1.00657 -9.88648,-2.13366c-3.31407,-1.03123 -6.08141,-2.51072 -8.30204,-4.43849c0.06633,0.00656 0.11608,0.01149 0.14925,0.01477c0.50922,-1.42323 1.72696,-2.3912 3.6532,-2.90393c0.00656,-0.06633 -0.00346,-0.13431 -0.03006,-0.20392c-0.74712,-0.9112 -1.20266,-2.06149 -1.36661,-3.45085c0.06633,0.00656 0.13103,0.02971 0.19408,0.06944c6.21395,5.57154 13.28443,10.44078 21.21144,14.60773z" fill="#2c2d40"/><path d="M516.03813,481.24624c-0.00984,0.0995 -0.03135,0.14761 -0.06452,0.14433c-0.71619,0.13008 -1.69788,0.06644 -2.94508,-0.19093c0.00656,-0.06633 0.02807,-0.11444 0.06452,-0.14433c0.60977,-0.40854 1.59147,-0.3449 2.94508,0.19093z" fill="#353849"/><path d="M514.46329,426.08111c0.06633,0.00656 0.15089,-0.00182 0.25367,-0.02514c4.67836,-0.91024 9.00302,-2.30761 12.97399,-4.1921c-0.00984,0.0995 -0.03299,0.16419 -0.06944,0.19408c-4.16787,3.87449 -9.27383,6.56769 -15.31787,8.07961c0.00656,-0.06633 0.03135,-0.14761 0.07436,-0.24383c0.66193,-1.27415 1.35703,-2.54503 2.08529,-3.81262M533.37706,412.6303c-0.0995,-0.00984 -0.16747,0.00017 -0.20392,0.03006c-4.40296,4.21963 -10.04451,6.91007 -16.92463,8.07133c0.00656,-0.06633 0.01477,-0.14925 0.02461,-0.24875c2.05952,-6.26002 3.29626,-12.8359 3.71024,-19.72762c0.00656,-0.06633 0.02807,-0.11444 0.06452,-0.14433c5.64277,-1.51813 10.55172,-3.91266 14.72685,-7.18358c-0.00984,0.0995 -0.01805,0.18242 -0.02461,0.24875c0.2386,3.00433 0.34962,6.11325 0.33308,9.32677c-0.00984,0.0995 -0.01805,0.18242 -0.02461,0.24875c-0.45755,3.27036 -1.01806,6.39656 -1.68152,9.37862M531.10158,377.23939c0.06633,0.00656 0.11444,0.02807 0.14433,0.06452c1.07537,4.02487 2.13416,8.04811 3.17637,12.0697c-2.44531,2.03545 -5.29406,3.57885 -8.54626,4.6302c-0.06961,0.0266 -0.13759,0.03662 -0.20392,0.03006c0.00656,-0.06633 0.03135,-0.14761 0.07436,-0.24383c2.34957,-4.7912 4.13462,-10.30809 5.35513,-16.55065M530.79048,365.15177c0.13923,-0.05321 0.22379,-0.06159 0.25367,-0.02514c3.10544,4.49367 5.49721,9.9382 7.17531,16.33361c-0.0613,1.635 -0.34182,2.9469 -0.84155,3.93568c-0.04301,0.09622 -0.0678,0.17749 -0.07436,0.24383c-1.9132,-6.05026 -4.17265,-11.81662 -6.77837,-17.29907c-0.02988,-0.03645 -0.0399,-0.10442 -0.03006,-0.20392c0.06633,0.00656 0.14925,0.01477 0.24875,0.02461c0.33495,-0.00035 0.52539,-0.23269 0.57133,-0.69702c-0.31302,-1.23666 -0.69461,-1.44187 -1.14477,-0.61564c-0.04301,0.09622 -0.0678,0.17749 -0.07436,0.24383l-0.14925,-0.01477c-0.06703,-0.67646 0.21418,-1.31846 0.84365,-1.926M488.80081,431.57982c0.00656,-0.06633 -0.00182,-0.15089 -0.02514,-0.25367c-0.49995,-2.39385 -0.72653,-5.01184 -0.67976,-7.85396c0.06633,0.00656 0.14761,0.03135 0.24383,0.07436c5.90246,2.62698 12.49638,3.68131 19.78176,3.16299c-0.00984,0.0995 -0.03463,0.18077 -0.07436,0.24383c-0.74104,1.7352 -1.7095,3.23021 -2.90537,4.48503c-0.00984,0.0995 -0.03135,0.14761 -0.06452,0.14433c-4.94006,1.18577 -10.36554,1.1848 -16.27644,-0.00289M487.35854,408.077c0.06633,0.00656 0.14925,0.01477 0.24875,0.02461c11.62538,1.65264 20.91759,-0.02351 27.8766,-5.02846c-0.00984,0.0995 -0.03463,0.18077 -0.07436,0.24383c-0.27413,1.07809 -0.28128,2.16584 -0.02146,3.26327c-1.00545,5.76148 -2.50073,10.88839 -4.48582,15.38075c-0.04301,0.09622 -0.0678,0.17749 -0.07436,0.24383c-5.24582,0.55267 -10.51074,0.28292 -15.79476,-0.80926c-2.42807,-0.50817 -4.75042,-1.40778 -6.96707,-2.69883c-0.62675,-3.1432 -0.87079,-6.6002 -0.73213,-10.37099c0.00656,-0.06633 0.01477,-0.14925 0.02461,-0.24875M459.3445,405.35539c-0.28349,-1.53515 -0.11724,-2.70764 0.49875,-3.51747c2.90281,4.1722 6.40702,7.8513 10.51262,11.0373c4.1056,3.186 8.39344,6.22257 12.86353,9.10972c-0.00984,0.0995 -0.00147,0.18406 0.02514,0.25367c0.48061,2.9278 1.28761,5.60321 2.421,8.02625c-0.01641,0.16583 -0.06106,0.27863 -0.13396,0.3384c-0.59993,0.30904 -1.27146,0.32633 -2.0146,0.05185c-11.20065,-4.59133 -19.16398,-11.77608 -23.88998,-21.55425c0.01208,-1.13751 -0.08208,-2.386 -0.28248,-3.74547M455.65849,395.89782c-0.27483,0.40819 -0.48988,0.88928 -0.64517,1.44327l-0.08913,0.39308c-1.06929,-1.37847 -1.84588,-3.51502 -2.32977,-6.40965c0.06633,0.00656 0.11444,0.02807 0.14433,0.06452c0.80759,1.65399 1.78084,3.15692 2.91974,4.50879M461.47292,390.44471c-0.01641,0.16583 -0.03282,0.33167 -0.04922,0.4975c-0.03282,0.33167 0.02549,0.58862 0.17491,0.77086c5.28892,5.78143 11.85188,10.53348 19.68889,14.25613c-0.00984,0.0995 -0.01805,0.18242 -0.02461,0.24875l-0.14925,-0.01477c0.2386,3.00433 0.58162,5.96875 1.02906,8.89326c-0.50664,0.72017 -1.32086,0.65635 -2.44266,-0.19145c-7.71629,-5.61971 -14.19662,-12.22234 -19.44099,-19.80789c0.43961,-1.39662 0.79449,-2.95234 1.06463,-4.66716l0.14925,0.01477M454.94553,384.82541c0.89655,1.09344 1.72019,2.24666 2.47095,3.45964c-0.44652,1.12801 -1.03368,0.96944 -1.76146,-0.47571c-0.44862,-0.88167 -0.74981,-1.89946 -0.90357,-3.05338c0.06633,0.00656 0.13103,0.02971 0.19408,0.06944z" fill="#343444"/><path d="M534.24538,434.31805c-0.00984,0.0995 -0.03135,0.14761 -0.06452,0.14433c-3.29954,0.1759 -5.97325,-0.55753 -8.02113,-2.20028c0.00656,-0.06633 0.02807,-0.11444 0.06452,-0.14433c1.48453,-1.12578 3.14509,-1.9997 4.98167,-2.62177c0.89948,0.72533 1.59521,1.6482 2.08719,2.76859c0.13302,0.34807 0.11514,0.69796 -0.05362,1.04967c-0.36741,0.66696 -0.03212,1.00156 1.00589,1.00379z" fill="#2c2c3f"/><path d="M526.9142,368.78718c0.06633,0.00656 0.11444,0.02807 0.14433,0.06452c1.41876,2.58524 2.78286,5.2153 4.09228,7.89019c-0.00984,0.0995 -0.01805,0.18242 -0.02461,0.24875c-0.00984,0.0995 -0.01805,0.18242 -0.02461,0.24875c-1.22051,6.24257 -3.00555,11.75945 -5.35513,16.55065c-0.04301,0.09622 -0.0678,0.17749 -0.07436,0.24383c-0.0995,-0.00984 -0.16747,0.00017 -0.20392,0.03006c-1.66712,0.94026 -3.58826,1.5707 -5.76342,1.89134l-0.14925,-0.01477c0.22928,-9.08692 -0.71563,-16.79967 -2.83474,-23.13823c0.00656,-0.06633 0.02807,-0.11444 0.06452,-0.14433c3.79634,-0.79656 7.17265,-2.08682 10.12893,-3.87076M497.91249,449.16c-1.48558,0.12094 -3.02747,0.30329 -4.62568,0.54705c-1.42909,0.227 -3.10054,0.19559 -5.01436,-0.09425c0.00656,-0.06633 0.01477,-0.14925 0.02461,-0.24875c0.66123,-1.94405 1.13149,-4.15817 1.41078,-6.64238c1.89049,0.18705 3.79083,0.27461 5.70101,0.26266c4.79203,-0.02822 9.51592,-0.21389 14.17166,-0.55702c1.17689,-0.38592 2.31223,-0.85968 3.40602,-1.42128c0.3878,-0.19607 0.74408,-0.412 1.06883,-0.6478c1.52754,-1.222 2.96173,-1.33128 4.30257,-0.32784c-4.84949,5.34764 -11.66464,8.39084 -20.44545,9.1296M455.03432,417.43789c0.06633,0.00656 0.13103,0.02971 0.19408,0.06944c2.99505,3.57848 6.10108,7.05073 9.3181,10.41674c-0.00984,0.0995 -0.01805,0.18242 -0.02461,0.24875c-0.50266,1.35689 -0.87412,2.91097 -1.11438,4.66223l-0.0995,-0.00984c0.00656,-0.06633 0.01477,-0.14925 0.02461,-0.24875c-0.17205,0.38487 -0.46855,0.6737 -0.88952,0.86649c-0.06961,0.0266 -0.13759,0.03662 -0.20392,0.03006c-0.0995,-0.00984 -0.16419,-0.03299 -0.19408,-0.06944c-3.66892,-4.21451 -6.00585,-9.5364 -7.01077,-15.96567M487.99321,396.58533c0.0729,-0.05977 0.14251,-0.08637 0.20884,-0.07981c3.20472,1.12088 6.32325,2.26672 9.35558,3.43753c6.23049,2.35802 12.34625,2.82918 18.34729,1.41348c-0.11556,0.49093 -0.2477,0.98023 -0.39642,1.46788c-0.00984,0.0995 -0.01805,0.18242 -0.02461,0.24875c-6.95902,5.00495 -16.25122,6.6811 -27.8766,5.02846c-0.0995,-0.00984 -0.18242,-0.01805 -0.24875,-0.02461c-0.18762,-1.82709 -0.29907,-3.74712 -0.33433,-5.76008c-0.07206,-2.31802 0.25094,-4.22855 0.96901,-5.73159M495.94629,366.97898c0.00656,-0.06633 0.03135,-0.14761 0.07436,-0.24383c2.21363,-4.77116 4.65467,-9.30213 7.32313,-13.5929c-0.00984,0.0995 0.00017,0.16747 0.03006,0.20392c3.45058,4.72877 6.35609,9.88922 8.71651,15.48137c-0.01641,0.16583 -0.05942,0.26205 -0.12903,0.28865c-2.49335,0.4901 -5.31051,0.52952 -8.45149,0.11827c-2.84247,-0.38172 -5.36365,-1.13355 -7.56354,-2.25548M492.55845,352.47699c0.03317,0.00328 0.05467,-0.04483 0.06452,-0.14433c1.16411,0.08169 2.33314,0.11363 3.5071,0.09583c0.06633,0.00656 0.14925,0.01477 0.24875,0.02461l0.00984,-0.0995c1.03801,0.00223 2.03792,0.05093 2.99975,0.1461l-0.93875,1.36398c-1.10259,1.66594 -2.49313,3.87274 -4.17163,6.62039c-1.67522,2.71449 -2.54599,4.06845 -2.61232,4.06189c-2.84094,-2.08962 -5.26273,-4.52292 -7.26537,-7.29989c-0.02988,-0.03645 -0.0399,-0.10442 -0.03006,-0.20392c2.57832,-1.68738 5.30771,-3.2091 8.18817,-4.56516z" fill="#475c81"/><path d="M530.49513,368.13676c0.00656,-0.06633 0.01477,-0.14925 0.02461,-0.24875c-0.14942,-0.18224 -0.28062,-0.37942 -0.3936,-0.59155c-0.02988,-0.03645 -0.0399,-0.10442 -0.03006,-0.20392c0.00656,-0.06633 0.03135,-0.14761 0.07436,-0.24383c0.45015,-0.82623 0.83174,-0.62102 1.14477,0.61564c-0.04594,0.46433 -0.23639,0.69667 -0.57133,0.69702c-0.0995,-0.00984 -0.18242,-0.01805 -0.24875,-0.02461z" fill="#425574"/><path d="M518.1251,350.48537l0.04975,0.00492c-0.30869,-0.26498 -0.44646,-0.39583 -0.41329,-0.39255c0.15927,0.08274 0.30196,0.16384 0.42806,0.2433c0.40491,0.30799 1.15332,0.86767 2.24524,1.67902c2.43275,1.81479 5.05371,4.43526 7.86289,7.86138c-0.00984,0.0995 -0.01805,0.18242 -0.02461,0.24875c0.03785,1.3099 -0.26177,1.79937 -0.89884,1.46841c-0.09622,-0.04301 -1.04925,-1.24252 -2.8591,-3.59852c-1.69031,-2.21021 -3.25253,-4.0226 -4.68665,-5.43716l-1.45909,-1.50076l-0.13448,-0.16402c-0.03317,-0.00328 -0.14433,-0.06452 -0.33348,-0.18371l0.24875,0.02461c-0.05977,-0.0729 -0.12118,-0.12921 -0.18423,-0.16894c-0.76353,-0.74537 -0.7105,-0.77362 0.15909,-0.08473z" fill="#415476"/><path d="M518.17485,350.49029l-0.04975,-0.00492c-0.86959,-0.68888 -0.92262,-0.66064 -0.15909,0.08473c0.06305,0.03973 0.12446,0.09604 0.18423,0.16894l-0.24875,-0.02461c0.18915,0.11919 0.30031,0.18043 0.33348,0.18371l0.13448,0.16402l1.45909,1.50076c-0.12282,-0.11263 -0.2307,-0.20703 -0.32364,-0.28321c-0.73036,-0.74209 -1.21837,-1.22576 -1.46401,-1.45101c-0.03317,-0.00328 -0.06469,-0.02315 -0.09458,-0.05959c-1.42065,-1.21228 -1.48223,-1.43607 -0.18476,-0.67136c-0.03317,-0.00328 0.1046,0.12757 0.41329,0.39255z" fill="#415370"/><path d="M507.64372,350.30231c0.30506,-0.0368 0.60192,0.00932 0.89057,0.13835c7.45179,3.21567 12.94703,8.0965 16.48574,14.64251c-0.00984,0.0995 -0.03299,0.16419 -0.06944,0.19408c-2.55758,2.49322 -5.75822,3.70038 -9.6019,3.62149c0.00656,-0.06633 -0.00346,-0.13431 -0.03006,-0.20392c-2.60676,-6.48729 -5.16507,-12.61813 -7.67491,-18.39251z" fill="#465c81"/><path d="M507.36511,345.50225c0.06633,0.00656 0.14761,0.03135 0.24383,0.07436c1.00191,0.36706 2.14797,0.63117 3.43818,0.79232c-1.51546,0.08449 -3.09908,0.01153 -4.75084,-0.21889c-0.0995,-0.00984 -0.18242,-0.01805 -0.24875,-0.02461c-0.0995,-0.00984 -0.16747,0.00017 -0.20392,0.03006c-1.19986,0.61809 -1.94464,0.36019 -2.23434,-0.77368c-0.11626,-0.17896 -0.13958,-0.28174 -0.06996,-0.30834c1.09379,-0.5616 2.36906,-0.41867 3.82581,0.42878M498.09637,344.2335c-0.28209,-0.19537 -0.40491,-0.30799 -0.36846,-0.33788c1.21298,-0.75075 2.19485,-0.51964 2.94561,0.69335c-0.78873,0.5248 -1.64778,0.40631 -2.57714,-0.35547z" fill="#435878"/><path d="M473.03644,436.04844c-0.00984,0.0995 0.00182,0.15089 0.03498,0.15417c0.43808,0.31128 0.8911,0.64077 1.35906,0.9885c-0.00984,0.0995 -0.01805,0.18242 -0.02461,0.24875c-0.00984,0.0995 0.00182,0.15089 0.03498,0.15417c0.99898,0.73518 1.94949,1.1139 2.85155,1.13617c0.06633,0.00656 0.13103,0.02971 0.19408,0.06944c3.2918,1.93328 7.36559,3.24063 12.22137,3.92203c-0.27929,2.48421 -0.74955,4.69833 -1.41078,6.64238c-0.00984,0.0995 -0.01805,0.18242 -0.02461,0.24875c-7.34327,-0.92753 -12.90223,-3.30283 -16.67686,-7.1259c-0.06305,-0.03973 -0.12774,-0.06288 -0.19408,-0.06944c0.00656,-0.06633 0.01477,-0.14925 0.02461,-0.24875c0.65795,-1.91088 1.19472,-3.95097 1.61031,-6.12027M463.308,432.8252l0.0995,0.00984c0.24026,-1.75126 0.61172,-3.30534 1.11438,-4.66223c0.06633,0.00656 0.13103,0.02971 0.19408,0.06944c1.14219,1.3187 2.37221,2.59585 3.69008,3.83145c-0.00984,0.0995 -0.01805,0.18242 -0.02461,0.24875c-0.76436,1.63242 -1.25976,3.59288 -1.48619,5.88137l-0.0995,-0.00984c-1.2581,-1.16271 -2.54936,-2.3287 -3.87379,-3.49797c-0.03317,-0.00328 -0.04483,-0.05467 -0.03498,-0.15417c0.00656,-0.06633 0.02971,-0.13103 0.06944,-0.19408c0.26826,-0.34186 0.38546,-0.84938 0.3516,-1.52255M462.16043,358.10999c0.20451,-1.05148 0.60328,-1.86605 1.19629,-2.44371c0.10934,-0.08965 0.23527,-0.17767 0.37778,-0.26404c2.87682,-1.65784 6.08074,-2.89817 9.61175,-3.72099c-2.82257,2.80191 -5.57206,5.71153 -8.24849,8.72885c-0.11591,0.15599 -0.33969,0.21757 -0.67136,0.18476c-1.42616,-0.14111 -2.15652,-0.8832 -2.19109,-2.22627l-0.0995,-0.00984c0.00656,-0.06633 0.01477,-0.14925 0.02461,-0.24875M485.00758,348.06258c-0.00984,0.0995 -0.01805,0.18242 -0.02461,0.24875c-1.12849,2.26622 -2.46154,2.36876 -3.99915,0.30762c-0.02988,-0.03645 -0.0399,-0.10442 -0.03006,-0.20392c-0.37866,-0.57333 -0.32943,-1.07082 0.14767,-1.49249c1.64673,-1.41115 2.97339,-1.27988 3.97998,0.3938c-0.05942,0.26205 -0.08403,0.5108 -0.07384,0.74625M454.80954,368.93712c0.06633,0.00656 0.11772,-0.0051 0.15417,-0.03498c1.16752,-2.99916 2.96403,-3.89313 5.38951,-2.68189c-0.00984,0.0995 -0.01805,0.18242 -0.02461,0.24875c-0.00984,0.0995 -0.01805,0.18242 -0.02461,0.24875l0.0995,0.00984c-0.08567,0.52738 0.01418,0.87217 0.29955,1.03438c-0.23182,0.31198 -0.41371,0.79635 -0.54567,1.45311l-0.0995,-0.00984c-1.19224,1.55659 -2.16035,3.38655 -2.90432,5.48987c-0.03317,-0.00328 -0.08292,-0.0082 -0.14925,-0.01477c-0.27929,2.48421 -1.06498,4.33221 -2.35708,5.54401c-0.11263,0.12282 -0.04811,-0.02151 0.19355,-0.43298c0.11919,-0.18915 0.19519,-0.44956 0.22801,-0.78123c0.00656,-0.06633 0.01477,-0.14925 0.02461,-0.24875c-0.11284,-3.25981 -0.20746,-6.53457 -0.28386,-9.82426z" fill="#8fbbbe"/><path d="M474.40587,437.43986c0.06633,0.00656 0.14761,0.03135 0.24383,0.07436c0.94214,0.29417 1.82304,0.69949 2.64271,1.21598c-0.90206,-0.02227 -1.85258,-0.401 -2.85155,-1.13617c-0.03317,-0.00328 -0.04483,-0.05467 -0.03498,-0.15417z" fill="#94c3c7"/><path d="M463.33261,432.57645c-0.00984,0.0995 -0.01805,0.18242 -0.02461,0.24875c0.03387,0.67318 -0.08333,1.18069 -0.3516,1.52255c-0.03973,0.06305 -0.06288,0.12774 -0.06944,0.19408c-0.27881,-0.22853 -0.48636,-0.50025 -0.62266,-0.81516c-0.0266,-0.06961 -0.03498,-0.15417 -0.02514,-0.25367c0.06633,0.00656 0.13431,-0.00346 0.20392,-0.03006c0.42097,-0.19279 0.71748,-0.48161 0.88952,-0.86649M468.38142,432.32245c0.06633,0.00656 0.13103,0.02971 0.19408,0.06944c1.3113,1.30194 2.80648,2.43787 4.48555,3.40779c-0.00984,0.0995 -0.01805,0.18242 -0.02461,0.24875c-0.41559,2.1693 -0.95236,4.20939 -1.61031,6.12027c-0.00984,0.0995 -0.01805,0.18242 -0.02461,0.24875c-1.47057,-1.38468 -2.99417,-2.74112 -4.57081,-4.06931c-0.03317,-0.00328 -0.04483,-0.05467 -0.03498,-0.15417l0.0995,0.00984c0.22643,-2.28849 0.72183,-4.24894 1.48619,-5.88137M474.53552,347.27761c0.06633,0.00656 0.11444,0.02807 0.14433,0.06452c0.65007,3.24599 1.83192,6.02548 3.54555,8.33847c-4.46637,3.84495 -8.40975,8.32774 -11.83014,13.44838c-0.03973,0.06305 -0.06288,0.12774 -0.06944,0.19408c-2.07916,-3.01898 -3.46745,-6.5892 -4.16487,-10.71064c-0.0266,-0.06961 -0.03498,-0.15417 -0.02514,-0.25367l0.0995,0.00984c0.03457,1.34307 0.76493,2.08516 2.19109,2.22627c0.33167,0.03282 0.55545,-0.02877 0.67136,-0.18476c2.67642,-3.01732 5.42592,-5.92694 8.24849,-8.72885c-3.53101,0.82282 -6.73492,2.06315 -9.61175,3.72099c-0.14251,0.08637 -0.26844,0.17439 -0.37778,0.26404c-0.59302,0.57766 -0.99178,1.39223 -1.19629,2.44371l-0.14925,-0.01477c-0.04734,-0.87546 -0.1725,-1.64139 -0.37549,-2.29781c0.00656,-0.06633 0.02971,-0.13103 0.06944,-0.19408c3.60439,-3.59533 7.88118,-6.37057 12.83039,-8.32573z" fill="#475d81"/><path d="M482.08953,392.78604c0.31854,0.16548 0.63544,0.34755 0.95069,0.5462c-0.02262,0.56711 -0.1298,1.1426 -0.32154,1.72647l-0.0995,-0.00984c0.00656,-0.06633 0.01477,-0.14925 0.02461,-0.24875c0.00621,-0.40128 0.04723,-0.81586 0.12306,-1.24374c-0.31526,-0.19865 -0.61229,-0.41224 -0.8911,-0.64077c-0.02988,-0.03645 -0.0399,-0.10442 -0.03006,-0.20392c0.06633,0.00656 0.14761,0.03135 0.24383,0.07436z" fill="#364461"/><path d="M466.83119,376.90858c0.06633,0.00656 0.11444,0.02807 0.14433,0.06452c3.56168,6.31384 8.52661,11.47712 14.8948,15.48983c-0.00984,0.0995 -0.01805,0.18242 -0.02461,0.24875c-0.00984,0.0995 0.00017,0.16747 0.03006,0.20392c0.27881,0.22853 0.57584,0.44213 0.8911,0.64077c-0.07583,0.42788 -0.11685,0.84246 -0.12306,1.24374c-0.00984,0.0995 -0.01805,0.18242 -0.02461,0.24875c-0.67917,3.81778 -1.09811,7.54409 -1.25681,11.17893l-0.0995,-0.00984c0.00656,-0.06633 0.01477,-0.14925 0.02461,-0.24875c-7.83701,-3.72266 -14.39997,-8.4747 -19.68889,-14.25613c-0.14942,-0.18224 -0.20773,-0.43919 -0.17491,-0.77086c0.01641,-0.16583 0.03282,-0.33167 0.04922,-0.4975c0.00656,-0.06633 0.01477,-0.14925 0.02461,-0.24875c1.14867,-5.17796 2.92655,-9.60708 5.33366,-13.28738M491.2047,380.37518c0.91169,-3.45986 2.1122,-6.62321 3.60154,-9.49006c0.06633,0.00656 0.14761,0.03135 0.24383,0.07436c5.66666,2.30223 11.94532,3.15791 18.83599,2.56704c-0.00984,0.0995 -0.00147,0.18406 0.02514,0.25367c1.44922,6.33927 2.16947,13.27623 2.16076,20.81089c0.08812,1.81724 -0.5758,2.77303 -1.99176,2.86737c-1.24685,0.07758 -2.51702,0.05237 -3.81052,-0.07561c-8.90175,-0.74682 -16.22146,-2.92793 -21.95913,-6.54335c1.0079,-3.41685 1.97262,-6.90496 2.89415,-10.46432M480.64168,359.18506c0.06633,0.00656 0.11444,0.02807 0.14433,0.06452c2.43778,3.45636 5.44379,6.41634 9.01803,8.87994c-0.00984,0.0995 -0.03463,0.18077 -0.07436,0.24383c-1.98299,6.50203 -3.86648,13.01391 -5.65048,19.53564c-0.0995,-0.00984 -0.18077,-0.03463 -0.24383,-0.07436c-6.83873,-3.65738 -11.85341,-8.82558 -15.04405,-15.5046c0.00656,-0.06633 0.02971,-0.13103 0.06944,-0.19408c3.13502,-5.28284 7.062,-9.5998 11.78092,-12.95088z" fill="#475d82"/><path d="M478.43904,345.90555c0.06633,0.00656 0.13431,-0.00346 0.20392,-0.03006c0.94472,-0.40889 1.92097,-0.79792 2.92874,-1.16708c0.06633,0.00656 0.14925,0.01477 0.24875,0.02461c5.23668,0.21672 9.85537,0.9249 13.85609,2.12454c-0.00984,0.0995 -0.03135,0.14761 -0.06452,0.14433c-4.97944,1.58376 -9.59862,3.58832 -13.85754,6.01368c0.00656,-0.06633 -0.00346,-0.13431 -0.03006,-0.20392c-1.11335,-2.28709 -2.20848,-4.58912 -3.28539,-6.90609M484.98297,348.31133c0.00656,-0.06633 0.01477,-0.14925 0.02461,-0.24875c-0.01019,-0.23545 0.01442,-0.4842 0.07384,-0.74625c-1.00659,-1.67368 -2.33325,-1.80495 -3.97998,-0.3938c-0.47711,0.42167 -0.52633,0.91917 -0.14767,1.49249c-0.00984,0.0995 0.00017,0.16747 0.03006,0.20392c1.5376,2.06114 2.87065,1.9586 3.99915,-0.30762z" fill="#455a7e"/><path d="M451.26109,376.8751c0.00656,-0.06633 0.01477,-0.14925 0.02461,-0.24875c0.85463,-7.2835 3.16196,-12.83244 6.92198,-16.6468c0.06633,0.00656 0.11444,0.02807 0.14433,0.06452c1.39426,4.5253 3.37333,8.55587 5.93722,12.09169c-2.50521,5.01024 -4.78793,10.31043 -6.84814,15.90056c-0.00984,0.0995 -0.01805,0.18242 -0.02461,0.24875c-0.75075,-1.21298 -1.5744,-2.3662 -2.47095,-3.45964c-0.06305,-0.03973 -0.12774,-0.06288 -0.19408,-0.06944c-0.0995,-0.00984 -0.14761,-0.03135 -0.14433,-0.06452c-1.36884,-2.41284 -2.48418,-5.01829 -3.34603,-7.81636M454.96371,368.90214c-0.03645,0.02988 -0.08784,0.04155 -0.15417,0.03498c0.0764,3.2897 0.17102,6.56445 0.28386,9.82426c-0.00984,0.0995 -0.01805,0.18242 -0.02461,0.24875c-0.03282,0.33167 -0.10882,0.59207 -0.22801,0.78123c-0.24166,0.41147 -0.30618,0.5558 -0.19355,0.43298c1.29209,-1.2118 2.07779,-3.05981 2.35708,-5.54401c0.06633,0.00656 0.11608,0.01149 0.14925,0.01477c0.74397,-2.10332 1.71208,-3.93327 2.90432,-5.48987l0.0995,0.00984c0.13197,-0.65677 0.31386,-1.14114 0.54567,-1.45311c-0.28537,-0.1622 -0.38522,-0.50699 -0.29955,-1.03438l-0.0995,-0.00984c0.00656,-0.06633 0.01477,-0.14925 0.02461,-0.24875c0.00656,-0.06633 0.01477,-0.14925 0.02461,-0.24875c-2.42549,-1.21123 -4.22199,-0.31727 -5.38951,2.68189z" fill="#475c80"/><path d="M679.0218,616.63971c0.50642,3.08892 1.16476,6.19426 1.97502,9.31604c1.04659,4.07474 0.87779,7.8866 -0.50642,11.43557c-2.12695,5.52062 -3.10602,11.76417 -2.93721,18.73067c0,0.09858 0.01688,0.1643 0.05064,0.19716c0.64146,0.52577 1.3842,0.95296 2.22823,1.28157c5.19921,6.83505 11.00611,13.09504 17.42072,18.77996c3.98381,3.51611 8.20394,6.80219 12.66041,9.85825c3.30859,2.2674 6.60029,4.53479 9.87512,6.80219c8.84541,6.17783 18.41667,11.56701 28.71381,16.16752c1.3842,0.62436 2.81905,1.05155 4.30454,1.28157c5.16545,0.9201 10.46594,1.03512 15.90147,0.34504c13.60572,-1.6759 26.85695,-3.31894 39.75368,-4.92912c0,0.09858 0,0.18073 0,0.24646c-10.4997,4.50193 -21.48893,8.46166 -32.9677,11.87919c-5.90819,1.74162 -12.87986,2.2674 -20.91499,1.57732c-1.95814,-0.19716 -3.83188,-0.57506 -5.62122,-1.1337c-11.44501,-3.54897 -21.6071,-8.34665 -30.48626,-14.39304c-8.91293,-6.04639 -17.30256,-12.60212 -25.16889,-19.6672c-5.73938,-5.09343 -11.46189,-10.18685 -17.16751,-15.28028c-1.92438,-1.70876 -3.98381,-3.25322 -6.17828,-4.63338c-0.84403,-4.6991 -0.70898,-9.61179 0.40513,-14.73808c2.83593,-12.81572 3.00474,-25.89433 0.50642,-39.23582c-1.18164,-6.34214 -2.22823,-12.81572 -3.13978,-19.42074c-1.65429,-12.42139 -3.35923,-24.84278 -5.1148,-37.26417c1.8231,-1.21585 3.67996,-2.34955 5.57058,-3.40109c0.06752,-0.03286 0.15192,-0.04929 0.25321,-0.04929c1.48549,9.29961 2.97098,18.66495 4.45646,28.096c1.95814,12.68428 4.00069,25.40141 6.12764,38.15141z" fill-opacity="0.99608" fill="#2b2c40"/><path d="M727.68841,470.78696c0.13504,0.59149 0.25321,1.18299 0.35449,1.77448c1.72182,8.31379 3.37611,16.67687 4.96288,25.08924c0.06752,0 0.13504,0.01643 0.20257,0.04929c0.50642,0.49291 1.02971,0.96939 1.56989,1.42945c0.06752,0 0.15192,0 0.25321,0c6.14452,0.82152 11.96831,1.97165 17.47136,3.45039c0.37137,2.07023 0.5233,4.04188 0.45577,5.91495c-0.30385,6.27642 0.5233,11.87919 2.48144,16.80831c4.18637,10.64691 11.90078,17.85986 23.14323,21.63885c0.57394,2.72745 1.24916,5.35631 2.02567,7.8866c3.51115,11.27126 6.98855,22.65754 10.43218,34.15882c3.37611,11.27126 6.81974,22.55895 10.33089,33.86307c0,0.09858 0.01688,0.14787 0.05064,0.14787c1.72182,1.21585 3.30859,2.56314 4.76031,4.04188c0,0.09858 0,0.18073 0,0.24646c-2.86969,-1.15013 -5.67186,-2.36598 -8.40651,-3.64755c-0.06752,-0.03286 -0.13504,-0.04929 -0.20257,-0.04929c-3.91629,-5.38917 -6.70158,-11.94491 -8.35587,-19.6672c-1.31668,-5.98067 -2.75153,-11.91205 -4.30454,-17.79413c-3.10602,-11.66559 -6.48213,-23.08473 -10.12833,-34.2574c-9.68943,-5.29059 -17.30256,-12.55283 -22.83938,-21.78672c-3.44363,-5.75064 -5.1148,-13.19362 -5.01352,-22.32893c-5.90819,-2.07023 -12.15399,-3.77899 -18.7374,-5.12629c-0.10128,-0.03286 -0.18569,-0.04929 -0.25321,-0.04929c-1.78934,-8.93814 -3.19042,-18.22132 -4.20326,-27.84954h0.15192c0.6077,1.97165 1.55301,3.59826 2.83593,4.87983c0.03376,0.03286 0.10128,0.04929 0.20257,0.04929c0.87779,-2.53028 1.08035,-5.48776 0.6077,-8.87242z" fill-opacity="0.99216" fill="#2b2c3f"/><path d="M489.26761,640.39808c-2.02567,1.28157 -4.03445,2.56314 -6.02635,3.84472c-2.36328,1.54446 -3.96693,3.91044 -4.81096,7.09794c-0.91155,3.54897 -1.56989,7.36082 -1.97502,11.43557c-0.54018,5.32345 0.54018,9.52964 3.24106,12.61855c1.75558,2.00451 3.61244,3.91044 5.57058,5.71778c7.76505,7.16366 16.94807,12.86501 27.54905,17.10406c3.44363,1.38015 6.60029,2.99033 9.46999,4.83054c0.94531,0.62436 1.80622,1.33086 2.58272,2.11952c-0.16881,0 -0.33761,-0.01643 -0.50642,-0.04929c-13.23435,-1.77448 -24.37551,-5.6192 -33.42348,-11.53415c-1.14788,-0.7558 -2.31263,-1.46231 -3.49427,-2.11952c-8.44027,-4.6991 -15.12497,-11.05767 -20.05409,-19.07571c0,-0.06572 0,-0.14787 0,-0.24646c0.50642,-12.94716 3.1229,-23.87339 7.84945,-32.77867c1.11412,-0.39433 2.11007,-0.90367 2.98786,-1.52803c8.47403,-6.44072 17.28568,-12.55283 26.43493,-18.33634c2.90345,-1.80735 4.89536,-4.41978 5.97571,-7.83731c3.61244,-11.30412 6.92102,-22.8547 9.92576,-34.65173c1.48549,-5.91495 2.83593,-11.92848 4.05133,-18.04059c0.6077,-3.22036 1.33356,-6.30928 2.17759,-9.26675c0.91155,-3.15464 1.28292,-6.12854 1.11412,-8.92171c0.77651,-1.84021 2.12695,-3.05606 4.05133,-3.64755c5.87443,-1.84021 10.39842,-4.97841 13.57196,-9.41462c6.2458,-8.67526 9.48687,-20.2587 9.72319,-34.75032v-0.09858c8.57532,-0.62436 17.01559,-1.33086 25.32082,-2.11952h0.10128c1.89062,-12.05992 3.54491,-24.30058 4.96288,-36.72197c0.06752,0 0.10128,0.01643 0.10128,0.04929c0.67522,3.77899 2.32952,6.55573 4.96288,8.33022c-2.09319,10.44974 -3.91629,21.21166 -5.4693,32.28576h-0.10128c-3.61244,1.18299 -7.66377,1.85664 -12.15399,2.02094c-4.96288,0.19716 -9.18302,0.7558 -12.66041,1.6759c-1.08035,6.34214 -2.26199,12.58569 -3.54491,18.73067c-1.92438,9.16817 -6.2458,16.00322 -12.96426,20.50515c-3.00474,2.03737 -6.36397,3.74613 -10.07768,5.12629c-3.30859,11.50129 -6.22892,23.41333 -8.761,35.73614c-1.24916,6.07925 -2.5996,12.09278 -4.05133,18.04059c-1.8231,7.32796 -3.54491,14.70522 -5.16545,22.13176c-0.27009,1.21585 -0.27009,2.36598 0,3.45039c-8.47403,6.47358 -17.30256,12.56926 -26.48557,18.28705z" fill-opacity="0.99608" fill="#2b2c3f"/><path d="M483.24125,644.24279c1.9919,-1.28157 4.00069,-2.56314 6.02635,-3.84472c9.18302,-5.71778 18.01154,-11.81346 26.48557,-18.28705c-0.27009,-1.08441 -0.27009,-2.23454 0,-3.45039c1.62053,-7.42655 3.34235,-14.8038 5.16545,-22.13176c1.45173,-5.94781 2.80217,-11.96134 4.05133,-18.04059c2.53208,-12.32281 5.45242,-24.23485 8.761,-35.73614c3.71372,-1.38015 7.07295,-3.08892 10.07768,-5.12629c6.71846,-4.50193 11.03988,-11.33698 12.96426,-20.50515c1.28292,-6.14497 2.46456,-12.38853 3.54491,-18.73067c3.47739,-0.9201 7.69753,-1.47874 12.66041,-1.6759c4.49022,-0.1643 8.54156,-0.83795 12.15399,-2.02094h0.10128c1.55301,-11.0741 3.37611,-21.83601 5.4693,-32.28576c-2.63336,-1.77448 -4.28766,-4.55122 -4.96288,-8.33022c0,-0.03286 -0.03376,-0.04929 -0.10128,-0.04929c1.72182,-9.06959 3.24106,-18.41849 4.55775,-28.04671c1.68805,-12.45425 3.51115,-25.18782 5.4693,-38.2007c1.95814,-12.71714 4.57463,-24.80992 7.84945,-36.27834c1.65429,-5.84923 3.30859,-11.6163 4.96288,-17.30122c1.68805,-5.84923 4.49022,-10.56475 8.40651,-14.14658c3.91629,-3.58183 8.55844,-6.52287 13.92645,-8.82313c5.16545,-2.23454 11.12428,-3.74613 17.8765,-4.53479c3.61244,-0.42719 7.22487,-0.32861 10.83731,0.29575c9.48687,1.57732 18.43355,3.81186 26.84007,6.70361c11.1074,3.84472 19.81776,10.03898 26.13108,18.58279c0,0.09858 0.01688,0.1643 0.05064,0.19716c0.6077,0.72294 1.01283,0.49291 1.2154,-0.69008c0.03376,-0.59149 0.16881,-0.65722 0.40513,-0.19716c1.89062,3.28608 3.02162,7.37725 3.39299,12.27352c0.33761,4.99484 0.5233,10.25258 0.55706,15.77319c0.03376,14.19587 0.64146,27.91527 1.8231,41.15818c0.91155,10.12113 1.85686,20.14368 2.83593,30.06765c1.28292,13.21005 2.92033,25.77931 4.91224,37.70779c0,0.65722 0,1.31443 0,1.97165c0,0.09858 0,0.18073 0,0.24646h-0.15192c0.47266,3.38466 0.27009,6.34214 -0.6077,8.87242c-0.10128,0 -0.16881,-0.01643 -0.20257,-0.04929c-1.28292,-1.28157 -2.22823,-2.90818 -2.83593,-4.87983h-0.15192c1.01283,9.62822 2.41392,18.9114 4.20326,27.84954c0.06752,0 0.15192,0.01643 0.25321,0.04929c6.58341,1.34729 12.82921,3.05606 18.7374,5.12629c-0.10128,9.13531 1.56989,16.57828 5.01352,22.32893c5.53682,9.23389 13.14994,16.49613 22.83938,21.78672c3.6462,11.17268 7.02231,22.59181 10.12833,34.2574c1.55301,5.88209 2.98786,11.81346 4.30454,17.79413c1.65429,7.72229 4.43958,14.27803 8.35587,19.6672c0.06752,0 0.13504,0.01643 0.20257,0.04929c2.73465,1.28157 5.53682,2.49742 8.40651,3.64755c2.4308,2.46456 4.91224,4.89626 7.44432,7.2951c2.53208,2.36598 5.1148,4.68267 7.74817,6.95006c8.0689,6.86791 13.97709,15.83891 17.72457,26.91301c-1.41797,9.95683 -4.27078,18.51707 -8.55844,25.68073c-0.03376,0.06572 -0.05064,0.13144 -0.05064,0.19716c-6.98855,4.20618 -14.26406,8.13305 -21.82654,11.7806c-0.06752,0.03286 -0.13504,0.04929 -0.20257,0.04929c0,-0.06572 0,-0.14787 0,-0.24646c-12.89674,1.61018 -26.14796,3.25322 -39.75368,4.92912c-5.43554,0.69008 -10.73603,0.57506 -15.90147,-0.34504c-1.48549,-0.23003 -2.92033,-0.65722 -4.30454,-1.28157c-10.29713,-4.60051 -19.8684,-9.98969 -28.71381,-16.16752c-3.27483,-2.2674 -6.56653,-4.53479 -9.87512,-6.80219c-4.45646,-3.05606 -8.6766,-6.34214 -12.66041,-9.85825c-6.41461,-5.68492 -12.22151,-11.94491 -17.42072,-18.77996c-0.84403,-0.32861 -1.58677,-0.7558 -2.22823,-1.28157c-0.03376,-0.03286 -0.05064,-0.09858 -0.05064,-0.19716c-0.16881,-6.96649 0.81027,-13.21005 2.93721,-18.73067c1.3842,-3.54897 1.55301,-7.36082 0.50642,-11.43557c-0.81027,-3.12178 -1.46861,-6.22713 -1.97502,-9.31604c-2.12695,-12.75 -4.16949,-25.46714 -6.12764,-38.15141c-1.48549,-9.43106 -2.97098,-18.79639 -4.45646,-28.096c0,-0.06572 0.01688,-0.11501 0.05064,-0.14787c2.63336,-1.31443 4.47334,-3.40109 5.51994,-6.25999c0,-0.06572 0,-0.14787 0,-0.24646c0.06752,-2.33312 0.15192,-4.63338 0.25321,-6.90077c-1.01283,-1.80735 -2.17759,-3.46682 -3.49427,-4.97841c-0.03376,-0.03286 -0.05064,-0.09858 -0.05064,-0.19716c-6.2458,-2.95747 -13.75764,-4.64981 -22.53553,-5.077c-4.65903,-0.23003 -9.72319,-0.34504 -15.19249,-0.34504c-1.68805,0 -3.29171,0.1643 -4.81096,0.49291c-3.27483,3.15464 -5.13169,7.673 -5.57058,13.55509c0,0.09858 0,0.18073 0,0.24646c3.07226,3.68041 6.95478,6.5393 11.64758,8.57667c0.06752,0.03286 0.15192,0.04929 0.25321,0.04929c-1.01283,9.43106 -2.07631,19.20715 -3.19042,29.32828c-1.41797,13.17719 -2.71777,26.40367 -3.89941,39.67944c-0.23633,2.36598 -0.30385,4.74839 -0.20257,7.14723c0.06752,2.03737 0.35449,3.9433 0.86091,5.71778c2.29575,7.98518 4.59151,15.9375 6.88726,23.85695c0.70898,2.49742 0.81027,5.29059 0.30385,8.37951c-5.06416,6.11211 -11.59693,10.84407 -19.59831,14.19587c-5.19921,2.16881 -10.53346,4.33763 -16.00276,6.50644c-10.73603,4.17332 -21.80966,8.08376 -33.22091,11.73131c-11.1074,3.51611 -22.43424,6.83505 -33.98054,9.95683c-2.19447,-0.26289 -4.64215,-0.42719 -7.34304,-0.49291c-0.10128,0 -0.18569,0 -0.25321,0c-0.77651,-0.78866 -1.63741,-1.49517 -2.58272,-2.11952c-2.86969,-1.84021 -6.02635,-3.45039 -9.46999,-4.83054c-10.60098,-4.23905 -19.784,-9.9404 -27.54905,-17.10406c-1.95814,-1.80735 -3.815,-3.71327 -5.57058,-5.71778c-2.70089,-3.08892 -3.78124,-7.2951 -3.24106,-12.61855c0.40513,-4.07474 1.06347,-7.8866 1.97502,-11.43557c0.84403,-3.1875 2.44768,-5.55348 4.81096,-7.09794M633.49497,316.25895c-7.86633,3.12178 -13.45379,8.41237 -16.76238,15.87178c-1.75558,3.87758 -3.27483,8.00161 -4.55775,12.3721c-3.37611,11.30412 -6.3302,23.019 -8.86229,35.14465c-2.53208,12.32281 -4.70967,24.95779 -6.53277,37.90496c-1.8231,13.17719 -3.42675,26.15721 -4.81096,38.94007c0.70898,0.69008 1.46861,1.34729 2.27887,1.97165c8.30523,6.63789 18.5686,11.452 30.79011,14.44233c11.8839,2.92461 25.5065,4.35406 40.8678,4.28834c3.91629,-0.03286 7.63001,-0.2136 11.14116,-0.5422c13.67324,-1.34729 26.06356,-3.99259 37.17096,-7.93589c1.3842,-0.49291 2.78529,-0.90367 4.20326,-1.23228c2.09319,-0.46005 3.15666,-1.82378 3.19042,-4.09117c-1.8231,-12.9143 -3.59556,-25.8286 -5.31737,-38.74291c-0.91155,-6.63789 -1.48549,-13.60438 -1.72182,-20.89948c-0.54018,-14.06443 -1.14788,-28.11243 -1.8231,-42.144c-0.27009,-6.14497 -0.5233,-12.30638 -0.75962,-18.48421c-2.90345,-6.96649 -7.30928,-12.45425 -13.21747,-16.46327c-0.06752,-0.03286 -0.13504,-0.04929 -0.20257,-0.04929c-3.95005,11.33698 -5.28361,24.31701 -4.00069,38.94007c0.6077,6.76933 1.35044,13.5058 2.22823,20.2094c0.30385,2.49742 0.47266,4.71553 0.50642,6.65432c-3.34235,4.17332 -8.0689,6.96649 -14.17966,8.37951c-9.92576,2.33312 -21.05004,2.94104 -33.37284,1.82378c-3.40987,-0.32861 -6.70158,-0.93653 -9.87512,-1.82378c-2.90345,-0.82152 -5.70562,-1.80735 -8.40651,-2.95747c-0.64146,-0.13144 -1.2154,-0.32861 -1.72182,-0.59149c-0.03376,0 -0.05064,-0.04929 -0.05064,-0.14787c-0.10128,0 -0.18569,-0.01643 -0.25321,-0.04929c-3.95005,-1.93879 -7.91698,-3.89401 -11.90078,-5.86566c-0.87779,-4.46907 -1.19852,-9.23389 -0.96219,-14.29446c0.20257,-3.61469 0.55706,-7.04865 1.06347,-10.30187c0.94531,-6.24356 1.94126,-12.50354 2.98786,-18.77996c1.04659,-6.47358 2.76841,-12.24066 5.16545,-17.30122c2.49832,-5.22487 5.06416,-9.97326 7.69753,-14.24517M739.63983,536.64004c0.03376,-0.29575 0.10128,-0.64079 0.20257,-1.03512c-8.10266,2.89175 -15.96899,5.9971 -23.599,9.31604c-0.06752,0.03286 -0.13504,0.04929 -0.20257,0.04929c4.8616,1.28157 10.26337,2.02094 16.20532,2.21811c0.06752,0 0.15192,0 0.25321,0c4.2539,-1.57732 6.63405,-5.09343 7.14047,-10.54832M786.88848,635.66612c0.03376,-0.06572 0.05064,-0.14787 0.05064,-0.24646c-9.95952,5.02771 -19.81776,10.15399 -29.57471,15.37886c-2.76841,1.47874 -5.57058,2.92461 -8.40651,4.33763c9.04797,-1.70876 18.33227,-3.58183 27.8529,-5.6192c0.06752,-0.03286 0.15192,-0.04929 0.25321,-0.04929c3.6462,-4.23905 6.92102,-8.83956 9.82448,-13.80154M561.07744,533.87973c2.46456,5.75064 5.80691,10.63048 10.02704,14.6395c0.20257,0.19716 0.40513,0.41076 0.6077,0.64079c0.91155,0 1.83998,0 2.78529,0c0.06752,0 0.15192,0 0.25321,0c3.51115,-1.57732 6.87038,-3.33537 10.07768,-5.27416c0.03376,0 0.05064,-0.04929 0.05064,-0.14787c-8.87917,-2.2674 -16.7455,-5.53705 -23.599,-9.80895c-0.06752,-0.03286 -0.13504,-0.04929 -0.20257,-0.04929M538.23806,643.01051c2.29575,0.36147 4.4227,0.5422 6.38085,0.5422c-8.47403,-4.37049 -17.18439,-8.54381 -26.13108,-12.51997c-0.06752,-0.03286 -0.13504,-0.04929 -0.20257,-0.04929c0.81027,2.4317 1.72182,4.74839 2.73465,6.95006c0.03376,0.06572 0.05064,0.13144 0.05064,0.19716c5.0304,2.23454 10.75291,3.86115 17.16751,4.87983z" fill-opacity="0.99608" fill="#000000"/><path d="M544.61891,643.55272c-1.95814,0 -4.08509,-0.18073 -6.38085,-0.5422c-6.41461,-1.01869 -12.13711,-2.6453 -17.16751,-4.87983c0,-0.06572 -0.01688,-0.13144 -0.05064,-0.19716c-1.01283,-2.20167 -1.92438,-4.51836 -2.73465,-6.95006c0.06752,0 0.13504,0.01643 0.20257,0.04929c8.94669,3.97616 17.65705,8.14948 26.13108,12.51997z" fill="#2a2b3e"/><path d="M571.10448,548.51923c-4.22014,-4.00902 -7.56248,-8.88885 -10.02704,-14.6395c0.06752,0 0.13504,0.01643 0.20257,0.04929c6.8535,4.27191 14.71983,7.54156 23.599,9.80895c0,0.09858 -0.01688,0.14787 -0.05064,0.14787c-3.2073,1.93879 -6.56653,3.69684 -10.07768,5.27416c-0.10128,0 -0.18569,0 -0.25321,0c-0.94531,0 -1.87374,0 -2.78529,0c-0.20257,-0.23003 -0.40513,-0.44362 -0.6077,-0.64079M786.93912,635.41966c0,0.09858 -0.01688,0.18073 -0.05064,0.24646c-2.90345,4.96198 -6.17828,9.5625 -9.82448,13.80154c-0.10128,0 -0.18569,0.01643 -0.25321,0.04929c-9.52063,2.03737 -18.80493,3.91044 -27.8529,5.6192c2.83593,-1.41302 5.6381,-2.85889 8.40651,-4.33763c9.75695,-5.22487 19.61519,-10.35116 29.57471,-15.37886M739.8424,535.60492c-0.10128,0.39433 -0.16881,0.73937 -0.20257,1.03512c-0.50642,5.4549 -2.88657,8.971 -7.14047,10.54832c-0.10128,0 -0.18569,0 -0.25321,0c-5.94195,-0.19716 -11.34373,-0.93653 -16.20532,-2.21811c0.06752,0 0.13504,-0.01643 0.20257,-0.04929c7.63001,-3.31894 15.49634,-6.42429 23.599,-9.31604z" fill="#2b2c3f"/><path d="M616.73259,332.13073c3.30859,-7.45941 8.89605,-12.75 16.76238,-15.87178c-2.63336,4.27191 -5.19921,9.02029 -7.69753,14.24517c-2.39704,5.06057 -4.11885,10.82764 -5.16545,17.30122c-1.04659,6.27642 -2.04255,12.5364 -2.98786,18.77996c-0.50642,3.25322 -0.86091,6.68718 -1.06347,10.30187c-0.23633,5.06057 0.0844,9.82539 0.96219,14.29446c3.98381,1.97165 7.95074,3.92687 11.90078,5.86566c0.06752,0.03286 0.15192,0.04929 0.25321,0.04929c0,0.09858 0.01688,0.14787 0.05064,0.14787c0.50642,0.26289 1.08035,0.46005 1.72182,0.59149c2.70089,1.15013 5.50306,2.13595 8.40651,2.95747c3.17354,0.88724 6.46525,1.49517 9.87512,1.82378c12.3228,1.11727 23.44708,0.50934 33.37284,-1.82378c6.11076,-1.41302 10.83731,-4.20618 14.17966,-8.37951c-0.03376,-1.93879 -0.20257,-4.15689 -0.50642,-6.65432c-0.87779,-6.70361 -1.62053,-13.44008 -2.22823,-20.2094c-1.28292,-14.62306 0.05064,-27.60309 4.00069,-38.94007c0.06752,0 0.13504,0.01643 0.20257,0.04929c5.90819,4.00902 10.31401,9.49678 13.21747,16.46327c0.23633,6.17783 0.48954,12.33924 0.75962,18.48421c0.67522,14.03157 1.28292,28.07957 1.8231,42.144c0.23633,7.2951 0.81027,14.2616 1.72182,20.89948c1.72182,12.9143 3.49427,25.8286 5.31737,38.74291c-0.03376,2.2674 -1.09724,3.63112 -3.19042,4.09117c-1.41797,0.32861 -2.81905,0.73937 -4.20326,1.23228c-11.1074,3.9433 -23.49772,6.58859 -37.17096,7.93589c-3.51115,0.32861 -7.22487,0.50934 -11.14116,0.5422c-15.3613,0.06572 -28.98389,-1.36372 -40.8678,-4.28834c-12.22151,-2.99033 -22.48488,-7.80444 -30.79011,-14.44233c-0.81027,-0.62436 -1.56989,-1.28157 -2.27887,-1.97165c1.3842,-12.78286 2.98786,-25.76288 4.81096,-38.94007c1.8231,-12.94716 4.00069,-25.58215 6.53277,-37.90496c2.53208,-12.12564 5.48618,-23.84052 8.86229,-35.14465c1.28292,-4.37049 2.80217,-8.49452 4.55775,-12.3721z" fill="#fefefe"/><path d="M740.39722,442.50733c-0.02261,0.0974 -0.02146,0.16611 0.00348,0.20612c0.7421,1.81476 1.40042,3.69561 1.97496,5.64256c-0.0974,-0.02261 -0.17857,-0.04146 -0.24351,-0.05653c-5.43204,-1.36376 -10.72696,-2.50749 -15.88476,-3.43119c-1.30512,0.75776 -2.29339,1.84572 -2.96482,3.26388c-2.23459,4.61394 -4.11494,9.61808 -5.64104,15.01243c-4.12176,1.54101 -8.12756,3.24582 -12.01741,5.11442c-2.31744,1.13867 -3.74957,3.4752 -4.29637,7.0096c-0.93704,5.80485 -0.89278,11.06761 0.13279,15.78829c0.98847,4.43832 0.44135,9.15317 -1.64134,14.14455c-2.64164,6.36722 -4.47911,12.95535 -5.51241,19.7644c0.48353,0.86506 0.93575,1.79128 1.35666,2.77867c0.37105,0.90738 0.86589,1.72373 1.48451,2.44906c6.85705,8.19604 15.19808,15.45343 25.02311,21.77216c-0.02261,0.0974 -0.02522,0.18234 -0.00783,0.25482c1.06907,3.94376 2.29062,7.82026 3.66466,11.62951c2.1197,1.0396 4.69338,1.67133 7.72104,1.89518c9.86745,0.68258 18.58086,-0.66499 26.14023,-4.04272c0.06494,0.01508 0.10987,0.04262 0.1348,0.08262c1.07083,2.60966 2.12165,5.23178 3.15248,7.86637c0.06494,0.01508 0.10987,0.04262 0.1348,0.08262c0.34612,0.86737 0.95055,0.99059 1.81329,0.36965c0.06494,0.01508 0.10987,0.04262 0.1348,0.08262c0.83197,1.86984 1.32765,3.93535 1.48706,6.19654c-0.02261,0.0974 -0.04146,0.17857 -0.05653,0.24351c-1.36715,0.4354 -3.06594,0.38319 -5.09636,-0.15663c-0.0974,-0.02261 -0.17857,-0.04146 -0.24351,-0.05653c-1.81123,-1.9261 -3.31865,-4.0554 -4.52226,-6.38792c-0.02493,-0.04001 -0.06986,-0.06755 -0.1348,-0.08262c-8.32177,1.79779 -17.18708,2.76792 -26.59593,2.91038c-0.00754,0.03247 -0.01884,0.08117 -0.03392,0.14611c-1.72081,-0.39951 -3.42539,-0.79524 -5.11374,-1.18721c-0.0974,-0.02261 -0.17857,-0.04146 -0.24351,-0.05653c-3.7448,-3.91481 -6.39813,-8.55145 -7.96,-13.9099c-0.19654,-0.62734 -0.48178,-1.24105 -0.85574,-1.84114c-2.57073,-3.81333 -6.28278,-6.98485 -11.13617,-9.51456c-0.91374,-0.48588 -1.71993,-1.06656 -2.41857,-1.74202c-4.87538,-4.79322 -8.99818,-10.02764 -12.36841,-15.70327c-1.66511,-2.85028 -1.64881,-6.67893 0.0489,-11.48595c2.27173,-6.24779 4.05209,-13.10581 5.3411,-20.57408c1.22811,-6.76382 0.91368,-12.70523 -0.9433,-17.82424c-1.33925,-3.6643 -0.94087,-7.37003 1.19514,-11.11718c1.13932,-1.95967 2.69261,-3.34419 4.65985,-4.15354c0.72242,-0.31134 1.43992,-0.67514 2.15249,-1.09142c3.11293,-1.9121 6.4253,-3.50415 9.93712,-4.77615c2.82313,-7.59115 6.29445,-14.14215 10.41396,-19.65299c0.04754,-0.0574 0.08262,-0.1348 0.10524,-0.2322c6.21013,0.51786 12.03556,1.95584 17.47627,4.31395c0.06494,0.01508 0.14611,0.03392 0.24351,0.05653z" fill-opacity="0.99608" fill="#2b2c3f"/><path d="M740.4007,442.71345c-0.02493,-0.04001 -0.02609,-0.10871 -0.00348,-0.20612c8.6117,-3.78357 17.35298,-7.31463 26.22383,-10.5932c10.14061,-3.73658 20.71373,-6.75682 31.71936,-9.06071c0.06494,0.01508 0.14234,0.05015 0.2322,0.10524c6.85134,3.06199 12.953,6.25791 18.30499,9.58774c0.06494,0.01508 0.13364,0.01392 0.20612,-0.00348c3.01321,-2.07212 6.06381,-4.08423 9.15181,-6.03633c0.06494,0.01508 0.14611,0.03392 0.24351,0.05653c0.87664,0.20352 1.76951,0.41081 2.67862,0.62187c5.74448,5.02921 10.44881,10.7066 14.11298,17.03218c1.66511,2.85028 3.09395,5.83391 4.28653,8.95089c3.8566,10.06582 7.26066,20.38586 10.21219,30.96014c-0.79203,1.93765 -1.97801,3.28767 -3.55796,4.05007c-3.50487,1.68423 -6.85145,3.64474 -10.03976,5.88152c1.61407,3.65967 2.43557,7.78547 2.46448,12.37742c-0.01801,2.28843 -0.57638,4.17767 -1.67511,5.66772c-0.94102,1.25291 -1.84842,2.58207 -2.72219,3.98746c-6.04913,9.99027 -12.94473,18.68905 -20.68681,26.09632c-7.85456,7.4496 -16.17148,14.09038 -24.95078,19.92234c-8.81176,5.82443 -18.3178,10.51245 -28.51813,14.06408c-0.5624,0.21161 -1.09349,0.36206 -1.59327,0.45134c0.01508,-0.06494 0.03392,-0.14611 0.05653,-0.24351c-0.1594,-2.26119 -0.65509,-4.3267 -1.48706,-6.19654c-0.02493,-0.04001 -0.06986,-0.06755 -0.1348,-0.08262c-0.86274,0.62094 -1.46717,0.49773 -1.81329,-0.36965c-0.02493,-0.04001 -0.06986,-0.06755 -0.1348,-0.08262c-1.03082,-2.63459 -2.08165,-5.25671 -3.15248,-7.86637c-0.02493,-0.04001 -0.06986,-0.06755 -0.1348,-0.08262c-7.55937,3.37773 -16.27278,4.7253 -26.14023,4.04272c-3.02766,-0.22385 -5.60135,-0.85558 -7.72104,-1.89518c-1.37404,-3.80925 -2.59559,-7.68575 -3.66466,-11.62951c-0.01739,-0.07247 -0.01478,-0.15741 0.00783,-0.25482c-9.82503,-6.31873 -18.16606,-13.57612 -25.02311,-21.77216c-0.61862,-0.72533 -1.11346,-1.54168 -1.48451,-2.44906c-0.42091,-0.98739 -0.87313,-1.91361 -1.35666,-2.77867c1.0333,-6.80905 2.87078,-13.39718 5.51241,-19.7644c2.0827,-4.99138 2.62981,-9.70623 1.64134,-14.14455c-1.02557,-4.72068 -1.06983,-9.98344 -0.13279,-15.78829c0.5468,-3.5344 1.97893,-5.87093 4.29637,-7.0096c3.88985,-1.8686 7.89565,-3.5734 12.01741,-5.11442c1.5261,-5.39435 3.40645,-10.39849 5.64104,-15.01243c0.67142,-1.41816 1.65969,-2.50612 2.96482,-3.26388c5.1578,0.9237 10.45272,2.06742 15.88476,3.43119c0.06494,0.01508 0.14611,0.03392 0.24351,0.05653c-0.57454,-1.94695 -1.23286,-3.8278 -1.97496,-5.64256M721.33628,494.54207c0.04754,-0.0574 0.08262,-0.1348 0.10524,-0.2322c-4.14434,-0.27779 -8.1478,-0.35178 -12.01036,-0.22198c-0.0974,-0.02261 -0.17857,-0.04146 -0.24351,-0.05653c-0.20816,0.60182 -0.41545,1.49469 -0.62187,2.67862c-0.02261,0.0974 -0.04146,0.17857 -0.05653,0.24351c0.38146,2.48383 0.44664,5.15087 0.19554,8.00112c-0.02261,0.0974 -0.04146,0.17857 -0.05653,0.24351c4.59084,-2.97193 8.82018,-6.52394 12.68804,-10.65605z" fill-opacity="0.99608" fill="#000000"/><path d="M721.44151,494.30987c-0.02261,0.0974 -0.05769,0.17481 -0.10524,0.2322c-3.86786,4.1321 -8.0972,7.68412 -12.68804,10.65605c0.01508,-0.06494 0.03392,-0.14611 0.05653,-0.24351c0.2511,-2.85025 0.18592,-5.51729 -0.19554,-8.00112c0.01508,-0.06494 0.03392,-0.14611 0.05653,-0.24351c0.20643,-1.18393 0.41372,-2.0768 0.62187,-2.67862c0.06494,0.01508 0.14611,0.03392 0.24351,0.05653c3.86257,-0.12981 7.86602,-0.05581 12.01036,0.22198z" fill="#2a2b3e"/><path d="M716.29764,375.52583c3.4811,-4.22926 8.2697,-7.88965 14.3658,-10.98118c2.45983,0.26904 4.90173,0.4914 7.3257,0.6671c11.20335,0.90921 21.38878,4.04821 30.55628,9.417c0.03586,0.09334 0.05018,0.1771 0.04297,0.25128c1.16972,6.76293 1.39201,13.10431 0.66687,19.02413c3.08606,1.99221 6.10145,4.17224 9.04616,6.54009c7.41321,6.00698 14.79407,12.11564 22.14258,18.32598c4.2101,3.52416 8.09445,7.78043 11.65306,12.76879c0.03586,0.09334 0.06573,0.17112 0.08964,0.23335c1.5154,4.13084 2.76416,7.8464 3.74628,11.14667c-0.09334,0.03586 -0.13403,0.06934 -0.12208,0.10045c-1.1869,5.74016 -3.70881,10.88632 -7.56573,15.43847c-0.09334,0.03586 -0.17112,0.06573 -0.23335,0.08964c-8.38899,4.18653 -15.38281,5.26642 -20.98143,3.23965c-5.5155,-6.2718 -11.28844,-12.05196 -17.31883,-17.34047c-8.28133,-7.24449 -16.83689,-13.90162 -25.66669,-19.9714c-1.76871,0.78654 -3.37578,1.29676 -4.82121,1.53066c-4.32434,0.73283 -8.86781,1.87116 -13.6304,3.41501c-0.71255,-1.29727 -1.43829,-2.53592 -2.17722,-3.71594c-6.75315,-10.79497 -13.5063,-21.58994 -20.25945,-32.3849c3.97722,-6.09794 8.35757,-12.0294 13.14107,-17.79438M766.3856,398.00566c-2.98154,-0.14003 -6.09959,-0.03126 -9.35413,0.32632c1.36815,7.18656 3.12389,14.54558 5.26721,22.07705c0.03586,0.09334 0.06573,0.17112 0.08964,0.23335c3.36705,-0.4365 6.68742,-0.85508 9.96113,-1.25572l-0.05378,-0.14001c-0.79012,-4.65938 -1.57065,-9.34029 -2.34161,-14.04274c-0.01195,-0.03111 0.02874,-0.0646 0.12208,-0.10045c3.82387,0.1021 7.27562,0.25788 10.35524,0.46736l-0.05378,-0.14001c-4.21276,-2.88046 -8.62074,-5.29319 -13.22394,-7.23817c-0.21532,-0.09581 -0.47134,-0.15813 -0.76805,-0.18697M780.52697,408.74747c-1.91668,-0.15634 -3.91721,-0.06624 -6.0016,0.27029c1.00883,8.11009 1.88846,16.16269 2.6389,24.15781c0.00474,0.10529 0.01906,0.18905 0.04297,0.25128c4.25225,0.00895 8.37397,0.28227 12.36516,0.81996c0.07418,0.00721 0.15794,-0.00711 0.25128,-0.04297c-0.68463,-5.12835 -1.81784,-10.49499 -3.39963,-16.09991l0.14001,-0.05378c3.20388,0.62589 6.11713,1.00639 8.73973,1.14149l-0.16135,-0.42003c-3.95152,-3.87342 -8.22517,-7.05183 -12.82097,-9.53523c-0.54068,-0.29216 -1.13885,-0.45513 -1.7945,-0.48891z" fill-opacity="0.99608" fill="#000000"/><path d="M774.52537,409.01776c2.08439,-0.33653 4.08492,-0.42663 6.0016,-0.27029c0.65565,0.03377 1.25382,0.19674 1.7945,0.48891c4.5958,2.48339 8.86945,5.6618 12.82097,9.53523l0.16135,0.42003c-2.6226,-0.1351 -5.53585,-0.5156 -8.73973,-1.14149l-0.14001,0.05378c1.58179,5.60492 2.71499,10.97156 3.39963,16.09991c-0.09334,0.03586 -0.1771,0.05018 -0.25128,0.04297c-3.9912,-0.53768 -8.11292,-0.811 -12.36516,-0.81996c-0.0239,-0.06223 -0.03823,-0.14599 -0.04297,-0.25128c-0.75044,-7.99512 -1.63007,-16.04772 -2.6389,-24.15781M757.03147,398.33198c3.25454,-0.35758 6.37259,-0.46636 9.35413,-0.32632c0.29671,0.02884 0.55273,0.09116 0.76805,0.18697c4.6032,1.94499 9.01118,4.35771 13.22394,7.23817l0.05378,0.14001c-3.07962,-0.20947 -6.53137,-0.36526 -10.35524,-0.46736c-0.09334,0.03586 -0.13403,0.06934 -0.12208,0.10045c0.77096,4.70244 1.55149,9.38336 2.34161,14.04274l0.05378,0.14001c-3.27371,0.40065 -6.59408,0.81922 -9.96113,1.25572c-0.0239,-0.06223 -0.05378,-0.14001 -0.08964,-0.23335c-2.14332,-7.53147 -3.89906,-14.89049 -5.26721,-22.07705z" fill-opacity="0.99608" fill="#ffffff"/><path d="M524.97553,260.10069c-0.07496,-1.9058 -0.16546,-3.40638 -0.2715,-4.50175c-1.00526,-8.67575 1.48998,-14.53832 7.48573,-17.5877c0.06613,-0.00843 0.1509,-0.00244 0.25431,0.01798c0.98419,0.07614 1.72605,-0.03524 2.22558,-0.33414c1.71676,-1.29416 2.97383,-2.89934 3.77122,-4.81554c0.87972,-2.06111 1.25648,-4.37733 1.13028,-6.94865c-0.46621,-9.71895 0.8676,-17.97046 4.00143,-24.75451c4.56946,-9.7561 12.85858,-16.69336 24.86734,-20.81177c12.04182,-4.12262 24.99347,-7.30275 38.85494,-9.54039c14.35323,-2.33394 28.89353,-4.25488 43.62089,-5.76284c1.95507,-0.21565 3.57204,-0.05217 4.85091,0.49045c4.55036,-0.68093 9.14499,-1.01468 13.78388,-1.00125c13.38762,0.10776 26.2929,0.78105 38.71583,2.01988c12.32374,1.25148 23.5635,3.88445 33.71928,7.89892c3.86126,1.55749 7.37,3.51276 10.52622,5.8658c7.32745,5.55115 12.43769,14.00598 15.3307,25.3645c1.74495,6.83411 3.19521,13.20174 4.35079,19.10291c0.06613,-0.00843 0.13437,-0.00033 0.20471,0.0243c5.55932,2.75232 11.13095,5.46947 16.7149,8.15145c0.46173,2.83097 0.8155,5.47408 1.06132,7.92935c1.57409,14.71893 2.27597,28.65858 2.10564,41.81896c-0.15347,13.29264 -0.85805,26.0843 -2.11374,38.37497c-0.3354,3.16781 -0.54064,6.30223 -0.61573,9.40325c-0.14459,5.34394 -1.693,9.54007 -4.64521,12.58839c-0.52577,0.54613 -1.09921,1.05608 -1.72032,1.52983c-0.0992,0.01265 -0.17975,0.03972 -0.24167,0.08121c-1.58648,0.47108 -3.21023,0.91331 -4.87127,1.3267c0.01265,0.0992 0.00665,0.18397 -0.01798,0.25431c-0.15406,0.95474 -0.28401,1.91219 -0.38987,2.87233c-0.1043,0.94039 -0.18677,1.87498 -0.2474,2.80377c-0.19787,2.97085 -0.18431,5.97656 0.04071,9.01714c-6.82041,3.96098 -14.64107,7.19262 -23.46199,9.69491c-6.25935,1.77248 -12.2391,3.76134 -17.93924,5.96657c-2.83158,1.08083 -5.70662,2.11942 -8.6251,3.11578c-9.05912,3.16875 -18.52626,6.00545 -28.40144,8.5101c-6.47882,1.63245 -13.27874,2.98661 -20.39977,4.06249c-10.41069,1.62968 -21.22693,3.10945 -32.44871,4.43931c-7.31586,0.86549 -14.18244,1.16967 -20.59974,0.91252c-12.97529,-0.56356 -25.05802,-2.16499 -36.24818,-4.80428c-7.17643,-1.71541 -13.42234,-4.58181 -18.73774,-8.59921c-1.01102,-0.73349 -1.98454,-1.51665 -2.92055,-2.34948c-0.00843,-0.06613 -0.0355,-0.14669 -0.08121,-0.24167c-0.44502,-1.15244 -0.87994,-2.32349 -1.30476,-3.51315c-0.45383,-1.21747 -0.89718,-2.45465 -1.33005,-3.71155c-0.0992,0.01265 -0.18397,0.00665 -0.25431,-0.01798c-7.45826,-1.56935 -11.93479,-7.03033 -13.42958,-16.38293c-2.64074,-1.20906 -5.00742,-2.77228 -7.10001,-4.68967c-2.12145,-1.88011 -3.72327,-4.29691 -4.80547,-7.25039c-1.44855,-3.98206 -2.70114,-8.14032 -3.75778,-12.47477c-3.01592,-12.58615 -5.5445,-26.22571 -7.58572,-40.91869c-1.58239,-11.3576 -2.59925,-22.23285 -3.05057,-32.62576M535.7116,247.84466c-0.09498,0.04571 -0.17554,0.07278 -0.24167,0.08121c-2.48135,4.78551 -3.56433,10.78725 -3.24896,18.00523c0.3848,8.55324 1.19443,17.53955 2.42892,26.95895c0.01265,0.0992 0.00665,0.18397 -0.01798,0.25431c-0.0191,0.64089 0.13279,1.04156 0.45567,1.20201c0.02108,0.16533 0.04215,0.33065 0.06323,0.49598c0.01265,0.0992 0.02319,0.18186 0.03162,0.24799c2.34263,12.84 4.91395,25.36522 7.71396,37.57567c0.76906,3.39663 2.14187,5.99384 4.11841,7.79162c7.27436,-0.92741 14.54662,-1.87135 21.81677,-2.83182c14.67256,-1.93781 29.28498,-3.95196 43.83726,-6.04245l0.0992,-0.01265c-0.08405,-2.24067 -0.23633,-4.48944 -0.45685,-6.74631c0.06613,-0.00843 0.14879,-0.01897 0.24799,-0.03162c13.34415,-0.76037 26.68619,-1.53727 40.02612,-2.33071c0.06613,-0.00843 0.11784,0.00178 0.15512,0.03063c0.57186,0.53194 1.02832,1.21301 1.36938,2.0432c0.2308,-0.29825 0.42708,-0.34007 0.58885,-0.12548c1.28217,1.8863 2.36239,4.03357 3.24066,6.4418c0.401,-0.01752 0.81853,-0.03715 1.25259,-0.05889c13.93511,-0.86931 27.78999,-1.57719 41.56465,-2.12362c14.00611,-0.57594 27.84413,-1.41608 41.51406,-2.5204c0.10842,-4.6846 0.16302,-9.39594 0.16381,-14.13403c0.04584,-13.34612 0.12508,-26.5621 0.23771,-39.64791c0.14082,-13.39184 0.31293,-26.67005 0.51633,-39.83465c-11.31821,-2.58937 -23.52444,-3.97343 -36.61869,-4.1522c-6.76416,-0.07851 -13.40448,-0.24002 -19.92098,-0.48452c-12.99571,-0.46015 -26.57685,-0.24081 -40.74342,0.65801c-8.60251,0.52549 -17.2585,1.1586 -25.96797,1.89934c-15.25285,1.33974 -29.51143,3.49359 -42.77575,6.46156c-7.54534,1.70122 -14.87332,3.52593 -21.98394,5.47415c-0.71057,0.225 -1.43768,0.45211 -2.18132,0.68133l0.01265,0.0992c-6.93594,0.68265 -12.70175,2.241 -17.29743,4.67505M627.13521,338.30773c0.01265,0.0992 0.02319,0.18186 0.03162,0.24799c-0.38018,1.76221 -1.10011,3.2317 -2.15978,4.40849c-0.02885,0.03728 -0.03906,0.08899 -0.03063,0.15512c-12.74212,1.79251 -25.30529,4.06624 -37.68949,6.8212c-0.0992,0.01265 -0.18186,0.02319 -0.24799,0.03162c2.51441,12.07884 6.24051,22.59189 11.17831,31.53915c0.00422,0.03307 0.05592,0.04327 0.15512,0.03063c12.59181,0.98208 25.81022,1.21222 39.65523,0.69042c13.6424,-0.52957 27.98739,-2.00559 43.035,-4.42805c4.93872,-0.79765 9.61436,-1.81378 14.02693,-3.0484c4.60253,-1.32604 8.93388,-2.80232 12.99407,-4.42884c4.33353,-8.1803 7.5817,-17.23031 9.74451,-27.15003c-0.00422,-0.03307 0.04327,-0.05592 0.14247,-0.06857c-0.10117,-0.79357 -0.20656,-1.6202 -0.31616,-2.4799c-0.00843,-0.06613 -0.01897,-0.14879 -0.03162,-0.24799c-13.48616,0.17363 -27.20068,0.7964 -41.14356,1.86832c-5.98969,0.4612 -11.66803,0.59709 -17.03501,0.40765c-1.75312,-0.04532 -3.31061,-0.4012 -4.67248,-1.06764c-1.44236,-3.14278 -2.71162,-6.50925 -3.80778,-10.0994c-0.00843,-0.06613 -0.01897,-0.14879 -0.03162,-0.24799c-8.06437,0.79291 -16.11432,1.56718 -24.14985,2.3228c-0.0992,0.01265 -0.18186,0.02319 -0.24799,0.03162c0.19813,1.55407 0.39836,3.12467 0.60071,4.7118z" fill-opacity="0.99608" fill="#000000"/><path d="M627.16683,338.55572c-0.00843,-0.06613 -0.01897,-0.14879 -0.03162,-0.24799c-0.20234,-1.58713 -0.40258,-3.15773 -0.60071,-4.7118c0.06613,-0.00843 0.14879,-0.01897 0.24799,-0.03162c8.03552,-0.75563 16.08547,-1.5299 24.14985,-2.3228c0.01265,0.0992 0.02319,0.18186 0.03162,0.24799c1.09616,3.59015 2.36542,6.95662 3.80778,10.0994c1.36187,0.66644 2.91936,1.02232 4.67248,1.06764c5.36698,0.18943 11.04532,0.05355 17.03501,-0.40765c13.94288,-1.07192 27.6574,-1.69469 41.14356,-1.86832c0.01265,0.0992 0.02319,0.18186 0.03162,0.24799c0.1096,0.8597 0.21499,1.68633 0.31616,2.4799c-0.0992,0.01265 -0.14669,0.0355 -0.14247,0.06857c-2.16281,9.91972 -5.41098,18.96973 -9.74451,27.15003c-4.06018,1.62652 -8.39154,3.1028 -12.99407,4.42884c-4.41257,1.23461 -9.08821,2.25074 -14.02693,3.0484c-15.0476,2.42246 -29.3926,3.89848 -43.035,4.42805c-13.845,0.5218 -27.06341,0.29166 -39.65523,-0.69042c-0.0992,0.01265 -0.1509,0.00244 -0.15512,-0.03063c-4.93779,-8.94726 -8.6639,-19.4603 -11.17831,-31.53915c0.06613,-0.00843 0.14879,-0.01897 0.24799,-0.03162c12.3842,-2.75496 24.94736,-5.02869 37.68949,-6.8212c-0.00843,-0.06613 0.00178,-0.11784 0.03063,-0.15512c1.05967,-1.17678 1.7796,-2.64628 2.15978,-4.40849M535.46993,247.92588c0.06613,-0.00843 0.14669,-0.0355 0.24167,-0.08121c4.59568,-2.43405 10.36149,-3.9924 17.29743,-4.67505l-0.01265,-0.0992c0.74364,-0.22922 1.47075,-0.45633 2.18132,-0.68133c7.11062,-1.94822 14.4386,-3.77293 21.98394,-5.47415c13.26432,-2.96797 27.5229,-5.12183 42.77575,-6.46156c8.70948,-0.74074 17.36547,-1.37386 25.96797,-1.89934c14.16657,-0.89882 27.7477,-1.11816 40.74342,-0.65801c6.5165,0.2445 13.15682,0.406 19.92098,0.48452c13.09425,0.17876 25.30048,1.56283 36.61869,4.1522c-0.2034,13.1646 -0.37551,26.44281 -0.51633,39.83465c-0.11263,13.08582 -0.19187,26.30179 -0.23771,39.64791c-0.00079,4.73808 -0.05539,9.44943 -0.16381,14.13403c-13.66993,1.10433 -27.50795,1.94446 -41.51406,2.5204c-13.77466,0.54643 -27.62954,1.25431 -41.56465,2.12362c-0.43406,0.02174 -0.8516,0.04136 -1.25259,0.05889c-0.87827,-2.40823 -1.95849,-4.5555 -3.24066,-6.4418c-0.16177,-0.2146 -0.35805,-0.17277 -0.58885,0.12548c-0.34106,-0.83019 -0.79752,-1.51125 -1.36938,-2.0432c-0.03728,-0.02885 -0.08899,-0.03906 -0.15512,-0.03063c-13.33993,0.79344 -26.68197,1.57034 -40.02612,2.33071c-0.0992,0.01265 -0.18186,0.02319 -0.24799,0.03162c0.22052,2.25687 0.37281,4.50564 0.45685,6.74631l-0.0992,0.01265c-14.55228,2.09049 -29.1647,4.10464 -43.83726,6.04245c-7.27015,0.96047 -14.5424,1.90442 -21.81677,2.83182c-1.97654,-1.79778 -3.34934,-4.39498 -4.11841,-7.79162c-2.80001,-12.21044 -5.37133,-24.73567 -7.71396,-37.57567c-0.00843,-0.06613 -0.01897,-0.14879 -0.03162,-0.24799c-0.02108,-0.16533 -0.04215,-0.33065 -0.06323,-0.49598c-0.32288,-0.16045 -0.47477,-0.56112 -0.45567,-1.20201c0.02463,-0.07035 0.03063,-0.15512 0.01798,-0.25431c-1.23448,-9.41939 -2.04412,-18.40571 -2.42892,-26.95895c-0.31537,-7.21798 0.76762,-13.21973 3.24896,-18.00523z" fill="#fefefe"/><path d="M645.29723,380.12943c-13.81997,2.29955 -24.65254,0.48834 -32.49771,-5.43364c3.88168,1.45408 8.55462,1.86641 14.01883,1.23698c4.10431,-0.48966 7.75091,-0.48412 10.9398,0.0166c1.54274,0.24015 3.11611,0.32519 4.7201,0.2551c4.68394,-0.16032 8.99916,0.21361 12.94565,1.12178c0.03307,-0.00422 0.06014,0.07634 0.08121,0.24167c-2.9577,1.04913 -6.36033,1.90297 -10.20789,2.56151z" fill="#020202"/><path d="M685.70848,365.40062c-0.27164,0.50507 -0.93083,0.60591 -1.97759,0.30253c-0.07035,-0.02463 -0.15512,-0.03063 -0.25431,-0.01798c-3.84005,2.03529 -8.70921,3.37852 -14.60748,4.02968c-7.61766,0.87037 -14.92608,1.39889 -21.92525,1.58555c-6.97032,0.14939 -13.80693,0.02971 -20.50983,-0.35904c-2.72242,-0.79541 -5.64468,-1.31332 -8.76678,-1.55374c-1.18679,-0.08391 -2.22512,-0.32117 -3.11499,-0.71176c-2.26346,-2.46685 -3.71912,-5.97757 -4.36699,-10.53215c-0.00843,-0.06613 -0.01897,-0.14879 -0.03162,-0.24799c1.48135,-2.87708 3.50117,-5.35236 6.05944,-7.42586c0.03307,-0.00422 0.04327,-0.05592 0.03063,-0.15512c14.4382,-1.40389 28.22517,-1.9855 41.36092,-1.74482c4.92027,0.11197 9.42644,0.79758 13.5185,2.05683c1.75022,0.54973 3.28618,1.39559 4.60787,2.5376c3.73295,3.18678 7.0103,6.88529 9.83205,11.09551c0.36925,0.52417 0.41773,0.90442 0.14543,1.14075M621.49793,355.9454c0.01265,0.0992 0.02319,0.18186 0.03162,0.24799c0.23119,1.54985 0.6478,2.84085 1.24983,3.87299c0.0992,-0.01265 0.18397,-0.00665 0.25431,0.01798c4.09786,0.25043 8.16897,0.55467 12.21334,0.91272l0.01897,0.14879c-3.64495,0.66631 -7.25684,1.32841 -10.83567,1.98629c0.01265,0.0992 0.03972,0.17975 0.08121,0.24167c0.68857,0.9203 1.37715,1.84059 2.06572,2.76089c1.7904,0.07417 3.64271,0.10684 5.55694,0.09801c13.7134,-0.2362 27.98206,-1.65208 42.80598,-4.24764c-2.5459,-4.68223 -6.73801,-7.12162 -12.57634,-7.31816c-13.42978,-0.43841 -27.05175,-0.01225 -40.86593,1.27848z" fill="#010101"/><path d="M632.13422,366.23272c-1.91423,0.00883 -3.76654,-0.02384 -5.55694,-0.09801c-0.68857,-0.9203 -1.37715,-1.84059 -2.06572,-2.76089c-0.0415,-0.06192 -0.06857,-0.14247 -0.08121,-0.24167c3.57882,-0.65788 7.19071,-1.31998 10.83567,-1.98629l-0.01897,-0.14879c-4.04437,-0.35805 -8.11549,-0.66229 -12.21334,-0.91272c-0.07035,-0.02463 -0.15512,-0.03063 -0.25431,-0.01798c-0.60203,-1.03214 -1.01863,-2.32313 -1.24983,-3.87299c-0.00843,-0.06613 -0.01897,-0.14879 -0.03162,-0.24799c13.81418,-1.29073 27.43615,-1.71689 40.86593,-1.27848c5.83833,0.19655 10.03044,2.63594 12.57634,7.31816c-14.82392,2.59556 -29.09258,4.01144 -42.80598,4.24764z" fill="#fdfdfd"/></g></g></svg>