<svg version="1.1" xmlns="http://www.w3.org/2000/svg" xmlns:xlink="http://www.w3.org/1999/xlink" width="40.03461" height="65.62439" viewBox="0,0,40.03461,65.62439"><g transform="translate(-608.1235,-337.83784)"><g data-paper-data="{&quot;isPaintingLayer&quot;:true}" fill-rule="nonzero" stroke="none" stroke-width="1" stroke-linecap="butt" stroke-linejoin="miter" stroke-miterlimit="10" stroke-dasharray="" stroke-dashoffset="0" style="mix-blend-mode: normal"><path d="M629.40811,340.33784c-0.03333,0.36667 -0.03333,0.73333 0,1.1c0.06667,0.43333 0.1,0.86667 0.1,1.3c-0.03333,0.56667 0,1.1 0.1,1.6c-0.03333,0.2 -0.06667,0.38333 -0.1,0.55c-0.03333,0.1 -0.06667,0.18333 -0.1,0.25c-0.03333,0.1 -0.06667,0.2 -0.1,0.3c-0.03333,0.06667 -0.06667,0.15 -0.1,0.25c0,0.26667 0,0.53333 0,0.8c0,0.26667 0,0.53333 0,0.8c0,0.46667 0,0.91667 0,1.35c0,0.1 0,0.18333 0,0.25c0,0.1 -0.01667,0.2 -0.05,0.3c-0.03333,0.06667 -0.06667,0.15 -0.1,0.25c-0.03333,0.1 -0.06667,0.18333 -0.1,0.25c-0.03333,0.1 -0.06667,0.2 -0.1,0.3c0,0.53333 0,1.06667 0,1.6c0,0.9 0,1.78333 0,2.65c0,0.36667 0,0.73333 0,1.1c-0.03333,0.1 -0.05,0.18333 -0.05,0.25c-0.03333,0.1 -0.06667,0.2 -0.1,0.3c-0.03333,0.06667 -0.06667,0.15 -0.1,0.25c-0.03333,0.1 -0.06667,0.18333 -0.1,0.25c0,2.33333 0,4.66667 0,7c0,2.66667 0,5.33333 0,8c-0.03333,0.1 -0.06667,0.2 -0.1,0.3c0,0.06667 -0.01667,0.15 -0.05,0.25c-0.03333,0.1 -0.08333,0.18333 -0.15,0.25c-0.03333,0.1 -0.08333,0.2 -0.15,0.3c0,0.7 0.01667,1.41667 0.05,2.15c0.03333,1.33333 0.01667,2.66667 -0.05,4c-0.03333,0.3 -0.15,0.56667 -0.35,0.8c0,0.1 0,0.18333 0,0.25c0,0.1 0,0.2 0,0.3c0,0.06667 0,0.15 0,0.25c0,0.06667 0,0.13333 0,0.2c5.63333,-0.4 11.28333,-0.28333 16.95,0.35c0.56667,0.06667 1.08333,0.26667 1.55,0.6c0.26667,0.33333 0.46667,0.7 0.6,1.1c0.16667,0.33333 0.28333,0.68333 0.35,1.05c0.06667,0.36667 0.16667,0.73333 0.3,1.1c0,0.33333 0,0.68333 0,1.05c0,0.43333 0,0.88333 0,1.35c0,0.6 0,1.21667 0,1.85c0.03333,0.1 0.06667,0.2 0.1,0.3c0,0.06667 0.01667,0.15 0.05,0.25c0.03333,0.1 0.06667,0.18333 0.1,0.25c0.03333,0.1 0.06667,0.2 0.1,0.3c0,0.53333 0,1.06667 0,1.6c0,0.9 0,1.78333 0,2.65c0,0.36667 0,0.73333 0,1.1c0.03333,0.1 0.06667,0.18333 0.1,0.25c0.03333,0.1 0.05,0.2 0.05,0.3c0.03333,0.06667 0.06667,0.15 0.1,0.25c0.03333,0.1 0.06667,0.18333 0.1,0.25c0,0.36667 0,0.73333 0,1.1c0,0.33333 0,0.68333 0,1.05c0,0.46667 0,0.91667 0,1.35c-0.06667,0.16667 -0.13333,0.35 -0.2,0.55c0,0.06667 -0.03333,0.15 -0.1,0.25c-0.06667,0.16667 -0.15,0.33333 -0.25,0.5c-0.1,0.2 -0.21667,0.38333 -0.35,0.55c-2.36667,1.36667 -4.93333,1.88333 -7.7,1.55c-5.8,-0.73333 -11.53333,-0.76667 -17.2,-0.1c-4,0.5 -7.9,0.31667 -11.7,-0.55c-0.36667,-0.3 -0.65,-0.66667 -0.85,-1.1c-0.16667,-0.33333 -0.3,-0.66667 -0.4,-1c-0.06667,-0.36667 -0.15,-0.73333 -0.25,-1.1c0,-0.96667 0,-1.95 0,-2.95c0,-1.6 0,-3.2 0,-4.8c0,-0.2 0,-0.38333 0,-0.55c-0.03333,-0.1 -0.06667,-0.18333 -0.1,-0.25c-0.03333,-0.1 -0.06667,-0.2 -0.1,-0.3c-0.03333,-0.06667 -0.06667,-0.15 -0.1,-0.25c0,-0.1 -0.01667,-0.2 -0.05,-0.3c0,-0.33333 0,-0.68333 0,-1.05c0,-0.36667 0,-0.71667 0,-1.05c0,-0.53333 0,-1.06667 0,-1.6c-0.36667,-1.46667 -0.51667,-3 -0.45,-4.6c0.1,-2.13333 0.15,-4.26667 0.15,-6.4c-0.33333,-2.9 -0.45,-5.85 -0.35,-8.85c0.13333,-3.13333 0.25,-6.25 0.35,-9.35c0.03333,-0.1 0.06667,-0.2 0.1,-0.3c0.03333,-0.06667 0.06667,-0.15 0.1,-0.25c0.03333,-0.1 0.06667,-0.18333 0.1,-0.25c0.03333,-0.1 0.05,-0.2 0.05,-0.3c0.03333,-0.43333 0.05,-0.88333 0.05,-1.35c0,-0.7 0.01667,-1.41667 0.05,-2.15c0.03333,-0.43333 0.1,-0.86667 0.2,-1.3c-0.06667,-1.23333 -0.06667,-2.48333 0,-3.75c0.03333,-1.9 0.15,-3.78333 0.35,-5.65c0,-0.06667 0,-0.15 0,-0.25c0.03333,-0.1 0.06667,-0.18333 0.1,-0.25c0.03333,-0.1 0.05,-0.2 0.05,-0.3c0.03333,-0.06667 0.06667,-0.15 0.1,-0.25c0.63333,-0.93333 1.5,-1.4 2.6,-1.4c4.43333,0 8.71667,-0.51667 12.85,-1.55c0.66667,0 1.31667,0.05 1.95,0.15c0.56667,0.13333 1.05,0.38333 1.45,0.75c0.13333,0.16667 0.25,0.35 0.35,0.55c0.06667,0.06667 0.11667,0.15 0.15,0.25c0.06667,0.1 0.1,0.18333 0.1,0.25c0.03333,0.1 0.06667,0.2 0.1,0.3c0.03333,0.06667 0.06667,0.15 0.1,0.25M618.75811,344.83784c-1.8,0.16667 -3.6,0.26667 -5.4,0.3c0,0.36667 0,0.73333 0,1.1c0,0.36667 0.01667,0.71667 0.05,1.05c0,0.1 0,0.2 0,0.3c0,0.7 0,1.4 0,2.1c0.1,0.2 0.2,0.38333 0.3,0.55c0.03333,0.1 0.06667,0.2 0.1,0.3c0,0.06667 0.01667,0.15 0.05,0.25c0,0.1 0,0.18333 0,0.25c-0.03333,0.2 -0.06667,0.38333 -0.1,0.55c0,0.1 -0.01667,0.18333 -0.05,0.25c-0.03333,0.1 -0.06667,0.2 -0.1,0.3c-0.03333,0.06667 -0.06667,0.15 -0.1,0.25c0,0.36667 0.01667,0.71667 0.05,1.05c0.03333,0.36667 0.05,0.73333 0.05,1.1c0,0.1 0,0.18333 0,0.25c0.06667,0.8 0.1,1.6 0.1,2.4c-0.03333,0.1 -0.06667,0.2 -0.1,0.3c-0.03333,0.06667 -0.06667,0.15 -0.1,0.25c-0.06667,0.1 -0.11667,0.18333 -0.15,0.25c0.03333,0.73333 0.05,1.45 0.05,2.15c0.03333,1.16667 0.05,2.33333 0.05,3.5c0.06667,2.86667 0.11667,5.71667 0.15,8.55c0,0.2 0,0.38333 0,0.55c0.36667,0.66667 0.53333,1.38333 0.5,2.15c-0.03333,0.36667 -0.05,0.71667 -0.05,1.05c0,2.06667 0,4.13333 0,6.2c0,0.43333 0,0.86667 0,1.3c0.2,0.36667 0.33333,0.73333 0.4,1.1c0.06667,0.33333 0.08333,0.68333 0.05,1.05c0,0.1 0,0.2 0,0.3c0,0.9 0,1.78333 0,2.65c0.03333,0.1 0.06667,0.18333 0.1,0.25c0.03333,0.2 0.08333,0.38333 0.15,0.55c0.03333,0.1 0.06667,0.2 0.1,0.3c0,0.7 0,1.4 0,2.1c0,0.1 0,0.2 0,0.3c0,1.5 0,3.01667 0,4.55c0,0.23333 0,0.46667 0,0.7c8.96667,-0.13333 18.01667,-0.31667 27.15,-0.55c-0.1,-0.33333 -0.15,-0.68333 -0.15,-1.05c0.03333,-0.36667 0.05,-0.71667 0.05,-1.05c0,-0.1 0,-0.2 0,-0.3c0,-0.86667 0,-1.75 0,-2.65c-0.1,-0.33333 -0.2,-0.7 -0.3,-1.1c-0.06667,-0.33333 -0.08333,-0.68333 -0.05,-1.05c0,-0.1 0,-0.2 0,-0.3c0,-0.83333 0,-1.68333 0,-2.55c-6.23333,0.5 -12.35,0.26667 -18.35,-0.7c-0.46667,-0.06667 -0.8,-0.31667 -1,-0.75c-0.1,-0.26667 -0.2,-0.53333 -0.3,-0.8c0,-0.63333 0.03333,-1.26667 0.1,-1.9c0,-0.06667 0,-0.15 0,-0.25c0,-0.1 0,-0.18333 0,-0.25c0,-1.26667 0,-2.51667 0,-3.75c0,-0.1 0,-0.2 0,-0.3c0.03333,-0.06667 0.06667,-0.15 0.1,-0.25c0.03333,-0.16667 0.08333,-0.35 0.15,-0.55c0.03333,-0.06667 0.06667,-0.15 0.1,-0.25c0,-0.63333 0,-1.25 0,-1.85c0,-0.1 0,-0.2 0,-0.3c0,-0.1 0,-0.18333 0,-0.25c-0.03333,-1.36667 0.01667,-2.7 0.15,-4c0.03333,-0.2 0.06667,-0.38333 0.1,-0.55c0,-0.73333 0,-1.45 0,-2.15c0,-1.43333 0,-2.86667 0,-4.3c-0.06667,-3.13333 0.01667,-6.25 0.25,-9.35c0.03333,-0.1 0.08333,-0.2 0.15,-0.3c-0.03333,-0.6 -0.03333,-1.21667 0,-1.85c0,-0.1 0,-0.18333 0,-0.25c0,-0.1 -0.01667,-0.2 -0.05,-0.3c-0.06667,-1.26667 0.01667,-2.51667 0.25,-3.75c0.03333,-0.1 0.08333,-0.18333 0.15,-0.25c0,-0.36667 0,-0.73333 0,-1.1c0,-0.26667 0,-0.53333 0,-0.8c0,-0.06667 0,-0.15 0,-0.25c0,-0.1 0,-0.18333 0,-0.25c0.13333,-0.5 0.03333,-0.76667 -0.3,-0.8c-1.4,0.23333 -2.83333,0.41667 -4.3,0.55z" fill="#000000"/><path d="M623.35811,345.33784c0,0.1 0,0.18333 0,0.25c0,0.26667 0,0.53333 0,0.8c0,0.36667 0,0.73333 0,1.1c-0.06667,0.06667 -0.11667,0.15 -0.15,0.25c-0.23333,1.23333 -0.31667,2.48333 -0.25,3.75c0.03333,0.1 0.05,0.2 0.05,0.3c0,0.06667 0,0.15 0,0.25c-0.03333,0.63333 -0.03333,1.25 0,1.85c-0.06667,0.1 -0.11667,0.2 -0.15,0.3c-0.23333,3.1 -0.31667,6.21667 -0.25,9.35c0,1.43333 0,2.86667 0,4.3c0,0.7 0,1.41667 0,2.15c-0.03333,0.16667 -0.06667,0.35 -0.1,0.55c-0.13333,1.3 -0.18333,2.63333 -0.15,4c0,0.06667 0,0.15 0,0.25c0,0.1 0,0.2 0,0.3c0,0.6 0,1.21667 0,1.85c-0.03333,0.1 -0.06667,0.18333 -0.1,0.25c-0.06667,0.2 -0.11667,0.38333 -0.15,0.55c-0.03333,0.1 -0.06667,0.18333 -0.1,0.25c0,0.1 0,0.2 0,0.3c0,1.23333 0,2.48333 0,3.75c0,0.06667 0,0.15 0,0.25c0,0.1 0,0.18333 0,0.25c-0.06667,0.63333 -0.1,1.26667 -0.1,1.9c0.1,0.26667 0.2,0.53333 0.3,0.8c0.2,0.43333 0.53333,0.68333 1,0.75c6,0.96667 12.11667,1.2 18.35,0.7c0,0.86667 0,1.71667 0,2.55c0,0.1 0,0.2 0,0.3c-0.03333,0.36667 -0.01667,0.71667 0.05,1.05c0.1,0.4 0.2,0.76667 0.3,1.1c0,0.9 0,1.78333 0,2.65c0,0.1 0,0.2 0,0.3c0,0.33333 -0.01667,0.68333 -0.05,1.05c0,0.36667 0.05,0.71667 0.15,1.05c-9.13333,0.23333 -18.18333,0.41667 -27.15,0.55c0,-0.23333 0,-0.46667 0,-0.7c0,-1.53333 0,-3.05 0,-4.55c0,-0.1 0,-0.2 0,-0.3c0,-0.7 0,-1.4 0,-2.1c-0.03333,-0.1 -0.06667,-0.2 -0.1,-0.3c-0.06667,-0.16667 -0.11667,-0.35 -0.15,-0.55c-0.03333,-0.06667 -0.06667,-0.15 -0.1,-0.25c0,-0.86667 0,-1.75 0,-2.65c0,-0.1 0,-0.2 0,-0.3c0.03333,-0.36667 0.01667,-0.71667 -0.05,-1.05c-0.06667,-0.36667 -0.2,-0.73333 -0.4,-1.1c0,-0.43333 0,-0.86667 0,-1.3c0,-2.06667 0,-4.13333 0,-6.2c0,-0.33333 0.01667,-0.68333 0.05,-1.05c0.03333,-0.76667 -0.13333,-1.48333 -0.5,-2.15c0,-0.16667 0,-0.35 0,-0.55c-0.03333,-2.83333 -0.08333,-5.68333 -0.15,-8.55c0,-1.16667 -0.01667,-2.33333 -0.05,-3.5c0,-0.7 -0.01667,-1.41667 -0.05,-2.15c0.03333,-0.06667 0.08333,-0.15 0.15,-0.25c0.03333,-0.1 0.06667,-0.18333 0.1,-0.25c0.03333,-0.1 0.06667,-0.2 0.1,-0.3c0,-0.8 -0.03333,-1.6 -0.1,-2.4c0,-0.06667 0,-0.15 0,-0.25c0,-0.36667 -0.01667,-0.73333 -0.05,-1.1c-0.03333,-0.33333 -0.05,-0.68333 -0.05,-1.05c0.03333,-0.1 0.06667,-0.18333 0.1,-0.25c0.03333,-0.1 0.06667,-0.2 0.1,-0.3c0.03333,-0.06667 0.05,-0.15 0.05,-0.25c0.03333,-0.16667 0.06667,-0.35 0.1,-0.55c0,-0.06667 0,-0.15 0,-0.25c-0.03333,-0.1 -0.05,-0.18333 -0.05,-0.25c-0.03333,-0.1 -0.06667,-0.2 -0.1,-0.3c-0.1,-0.16667 -0.2,-0.35 -0.3,-0.55c0,-0.7 0,-1.4 0,-2.1c0,-0.1 0,-0.2 0,-0.3c-0.03333,-0.33333 -0.05,-0.68333 -0.05,-1.05c0,-0.36667 0,-0.73333 0,-1.1c1.8,-0.03333 3.6,-0.13333 5.4,-0.3c1.46667,-0.13333 2.9,-0.31667 4.3,-0.55c0.33333,0.03333 0.43333,0.3 0.3,0.8c0,0.06667 0,0.15 0,0.25z" fill="#ffffff"/></g></g></svg>