<svg version="1.1" xmlns="http://www.w3.org/2000/svg" xmlns:xlink="http://www.w3.org/1999/xlink" width="54.54489" height="67.24025" viewBox="0,0,54.54489,67.24025"><g transform="translate(-613.17696,-337.00922)"><g data-paper-data="{&quot;isPaintingLayer&quot;:true}" fill-rule="nonzero" stroke="none" stroke-width="1" stroke-linecap="round" stroke-linejoin="miter" stroke-miterlimit="4" stroke-dasharray="" stroke-dashoffset="0" style="mix-blend-mode: normal"><path d="M664.33,353.97051c-3.46667,4.76667 -7,9.38333 -10.6,13.85c-4.16667,5.2 -8.31667,10.35 -12.45,15.45l-15.2,16.85c-2.13333,3.13333 -4.98333,4.48333 -8.55,4.05c-1.1,-0.03333 -1.91667,-0.55 -2.45,-1.55c-2.76667,-5.03333 -2.51667,-10.05 0.75,-15.05c1.96667,-3.1 3.98333,-6.23333 6.05,-9.4c2.7,-4.1 5.63333,-8.01667 8.8,-11.75c3,-3.53333 5.93333,-7.06667 8.8,-10.6c1.03333,-1.3 2.06667,-2.6 3.1,-3.9c1.7,-2 3.31667,-4.05 4.85,-6.15c3.76667,-6.63333 9.1,-9.5 16,-8.6c2.53333,0.43333 3.93333,1.98333 4.2,4.65c0.43333,4.43333 -0.66667,8.48333 -3.3,12.15M654.58,346.37051l0.25,-0.45c-3.96667,5.2 -7.98333,10.36667 -12.05,15.5c-3.96667,4.93333 -7.95,9.86667 -11.95,14.8c-3.93333,4.83333 -7.31667,10.03333 -10.15,15.6c-1.1,2.13333 -1.6,4.33333 -1.5,6.6c3.23333,-3.1 6.35,-6.31667 9.35,-9.65c5.6,-6.3 11.03333,-12.71667 16.3,-19.25c3.53333,-4.4 7.03333,-8.83333 10.5,-13.3c2.53333,-3.33333 4.56667,-6.88333 6.1,-10.65c0.46667,-1.1 0.51667,-2.16667 0.15,-3.2c-0.4,0 -0.78333,0 -1.15,0c-0.43333,0.06667 -0.85,0.13333 -1.25,0.2c-0.33333,0.13333 -0.65,0.26667 -0.95,0.4z" fill="#000000"/><path d="M660.42,342.37051c0.36667,0 0.75,0 1.15,0c0.36667,1.03333 0.31667,2.1 -0.15,3.2c-1.53333,3.76667 -3.56667,7.31667 -6.1,10.65c-3.46667,4.46667 -6.96667,8.9 -10.5,13.3c-5.26667,6.53333 -10.7,12.95 -16.3,19.25c-3,3.33333 -6.11667,6.55 -9.35,9.65c-0.1,-2.26667 0.4,-4.46667 1.5,-6.6c2.83333,-5.56667 6.21667,-10.76667 10.15,-15.6c4,-4.93333 7.98333,-9.86667 11.95,-14.8c4.06667,-5.13333 8.08333,-10.3 12.05,-15.5l-0.25,0.45l3.65,-3.4c0.3,-0.13333 0.61667,-0.26667 0.95,-0.4c0.4,-0.06667 0.81667,-0.13333 1.25,-0.2z" fill="#ffffff"/></g></g></svg>