<svg version="1.1" xmlns="http://www.w3.org/2000/svg" xmlns:xlink="http://www.w3.org/1999/xlink" width="109.53572" height="128.15" viewBox="0,0,109.53572,128.15"><g transform="translate(-585.23214,-295.925)"><g data-paper-data="{&quot;isPaintingLayer&quot;:true}" fill-rule="nonzero" stroke="none" stroke-width="1" stroke-linecap="butt" stroke-linejoin="miter" stroke-miterlimit="10" stroke-dasharray="" stroke-dashoffset="0" style="mix-blend-mode: normal"><path d="M694.76786,304.775c-0.16667,1.23333 -0.28333,1.96667 -0.35,2.2c-0.16667,0.83333 -0.43333,1.53333 -0.8,2.1c-6.66667,11.33333 -11.45,20.28333 -14.35,26.85c-1.23333,1.53333 -3.15,2.56667 -5.75,3.1c-3.06667,0.36667 -5.3,0.65 -6.7,0.85c3.86667,3.26667 6.7,6.46667 8.5,9.6c0.3,1.3 0.61667,3.31667 0.95,6.05c-1.2,1.86667 -2.11667,4.23333 -2.75,7.1c-0.36667,1.66667 -0.8,4.18333 -1.3,7.55c0.96667,1.36667 1.81667,3.03333 2.55,5c0.43333,1.16667 0.98333,2.96667 1.65,5.4l-1.4,2.65c-1.06667,0.63333 -1.85,1.11667 -2.35,1.45c-0.9,0.56667 -1.6,1.15 -2.1,1.75c0.3,2.13333 1,4.71667 2.1,7.75c0.63333,1.66667 1.56667,4.18333 2.8,7.55c-2.33333,1.3 -5.4,2.78333 -9.2,4.45c-5.36667,2.33333 -8.48333,3.7 -9.35,4.1c-3.4,1.5 -7.7,3.53333 -12.9,6.1c-7.2,3.56667 -11.46667,5.66667 -12.8,6.3c-0.9,0.4 -1.58333,0.7 -2.05,0.9c-0.8,0.3 -1.53333,0.46667 -2.2,0.5c-1.33333,-0.63333 -3.1,-1.66667 -5.3,-3.1c-2.4,-1.56667 -4.13333,-2.63333 -5.2,-3.2c-0.83333,-0.43333 -2.26667,-0.96667 -4.3,-1.6c-1.9,-0.6 -3.33333,-1.16667 -4.3,-1.7c-0.46667,-2.16667 -1.03333,-5.31667 -1.7,-9.45c-0.7,-4.33333 -1.25,-7.5 -1.65,-9.5c-1.83333,1 -3.23333,1.73333 -4.2,2.2c-1.7,0.83333 -3.21667,1.23333 -4.55,1.2c-1.5,-1.06667 -2.76667,-2.66667 -3.8,-4.8c-0.53333,-1.1 -1.26667,-3.05 -2.2,-5.85c-1.8,-7 -2.88333,-11.43333 -3.25,-13.3c-1,-5.06667 -1.41667,-9.58333 -1.25,-13.55l0.3,-9.7c0.36667,0.06667 0.91667,0.13333 1.65,0.2c0.63333,0.13333 1.08333,0.41667 1.35,0.85c1.23333,1.4 2.75,3.48333 4.55,6.25c1.96667,3.06667 3.41667,5.18333 4.35,6.35c-1.23333,-8.7 -2.18333,-15.23333 -2.85,-19.6c-1.16667,-7.6 -2.3,-14.11667 -3.4,-19.55c2.5,-1.73333 5.8,-3.28333 9.9,-4.65c2.33333,-0.8 5.83333,-1.91667 10.5,-3.35c-0.06667,-0.43333 -0.9,-3.98333 -2.5,-10.65c-1.03333,-4.3 -1.63333,-7.88333 -1.8,-10.75l1.55,-0.9c1.2,0.9 2.75,2.63333 4.65,5.2c1.8,2.46667 3.38333,4.15 4.75,5.05c4.73333,3.9 11.25,6.45 19.55,7.65c4.83333,1 10.26667,1.41667 16.3,1.25c4.03333,-0.1 9.45,-0.56667 16.25,-1.4c3.13333,-0.46667 7.23333,-1.86667 12.3,-4.2c5.56667,-2.53333 9.6,-4.1 12.1,-4.7M678.26786,329.975c0.9,-1.76667 2.53333,-4.83333 4.9,-9.2c2.13333,-3.9 3.75,-6.98333 4.85,-9.25c-1.13333,0.33333 -3.46667,1.2 -7,2.6c-2.86667,1.13333 -5.23333,1.88333 -7.1,2.25c-8.03333,2.1 -17.66667,2.8 -28.9,2.1c-7.6,-0.96667 -13.46667,-2.11667 -17.6,-3.45c-6.36667,-2.06667 -11.36667,-5.16667 -15,-9.3c1.6,5.9 2.68333,11.15 3.25,15.75c-8.6,2.23333 -15.4,4.43333 -20.4,6.6c0.46667,3.1 1.75,10.58333 3.85,22.45c1.63333,9.2 2.76667,16.7 3.4,22.5c-3.03333,-0.3 -5.76667,-2.1 -8.2,-5.4c-2.4,-4.06667 -4.33333,-6.9 -5.8,-8.5c-0.03333,11.8 2.68333,23.86667 8.15,36.2c0.13333,-0.03333 1.85,-0.8 5.15,-2.3c2.06667,-0.93333 3.88333,-1.43333 5.45,-1.5c0.26667,2.1 0.86667,5.43333 1.8,10c0.86667,4.33333 1.43333,7.68333 1.7,10.05c6.26667,2.26667 10.96667,4.6 14.1,7c0.4,0.23333 1.01667,0.63333 1.85,1.2c0.76667,0.4 1.46667,0.45 2.1,0.15c0.6,-0.26667 7.53333,-3.65 20.8,-10.15c8.36667,-4.06667 15.43333,-7.16667 21.2,-9.3c-0.73333,-3.63333 -1.9,-7.26667 -3.5,-10.9c-4.23333,4.1 -8.11667,7.5 -11.65,10.2c-4.43333,3.36667 -8.83333,6.05 -13.2,8.05c-0.86667,0.4 -1.86667,0.48333 -3,0.25c-0.7,-0.16667 -1.65,-0.53333 -2.85,-1.1c-2.16667,-1 -4.71667,-2.26667 -7.65,-3.8c-3.33333,-1.76667 -5.85,-3.1 -7.55,-4c-2.43333,-1.2 -3.95,-2.98333 -4.55,-5.35c-0.86667,-3.6 -1.53333,-8.15 -2,-13.65c-0.76667,-9.13333 -1.15,-13.71667 -1.15,-13.75c-0.13333,-2.43333 -0.16667,-3.91667 -0.1,-4.45c0.13333,-1.7 0.7,-3.03333 1.7,-4c0.16667,0.1 2.16667,1.06667 6,2.9c2.4,1.13333 4.23333,2.35 5.5,3.65l-3.9,0.55c3.4,2.36667 6.4,4.2 9,5.5c-2.26667,-5.3 -3.7,-10.91667 -4.3,-16.85c-0.6,-5.83333 -0.35,-11.63333 0.75,-17.4c0.2,-1.46667 0.41667,-2.55 0.65,-3.25c0.4,-1.23333 1.15,-1.9 2.25,-2c4.23333,7.13333 6.96667,11.65 8.2,13.55c3.3,5 6.63333,9.1 10,12.3c0.73333,0.66667 1.78333,1.76667 3.15,3.3c1.3,1.26667 2.61667,1.96667 3.95,2.1c-0.53333,-2.46667 -1.36667,-5.25 -2.5,-8.35c0.7,-0.03333 1.8,-0.03333 3.3,0c1.3,-0.1 2.18333,-0.61667 2.65,-1.55c0.66667,-1.33333 0.76667,-3.01667 0.3,-5.05c-0.66667,-2.3 -1.08333,-4 -1.25,-5.1c0.6,0.36667 1.55,0.9 2.85,1.6c1.03333,0.73333 1.71667,1.56667 2.05,2.5c0.56667,1.23333 0.63333,2.61667 0.2,4.15c-0.26667,0.93333 -0.85,2.21667 -1.75,3.85c1.6,2.33333 2.4,4.86667 2.4,7.6c0.93333,-0.66667 2.46667,-1.66667 4.6,-3c1.7,-1.33333 2.63333,-2.85 2.8,-4.55c0.36667,-1.4 0.01667,-2.88333 -1.05,-4.45c-1.43333,-1.66667 -2.43333,-2.91667 -3,-3.75c-0.63333,-0.93333 -2.2,-2.5 -4.7,-4.7c-2.06667,-1.86667 -3.38333,-3.6 -3.95,-5.2c1.26667,-0.16667 3.53333,-0.26667 6.8,-0.3c2.86667,-0.06667 5.11667,-0.25 6.75,-0.55c1.2,-0.2 2.25,-0.91667 3.15,-2.15l2.05,-3.35M657.31786,356.225l2.05,4.55c1.2,-0.6 2.06667,-1.35 2.6,-2.25c0.56667,-1.03333 0.6,-2.16667 0.1,-3.4c-0.7,-0.03333 -1.51667,0.08333 -2.45,0.35c-1,0.36667 -1.76667,0.61667 -2.3,0.75M666.81786,370.825c0.7,0 1.3,-0.23333 1.8,-0.7c0.46667,-0.5 0.7,-1.08333 0.7,-1.75c0,-0.66667 -0.23333,-1.23333 -0.7,-1.7c-0.5,-0.5 -1.1,-0.75 -1.8,-0.75c-0.7,0 -1.28333,0.25 -1.75,0.75c-0.5,0.46667 -0.75,1.03333 -0.75,1.7c0,0.66667 0.25,1.25 0.75,1.75c0.46667,0.46667 1.05,0.7 1.75,0.7M661.46786,375.675c-0.3,-0.4 -1.26667,-1.8 -2.9,-4.2c-1.73333,0.8 -4.21667,1.66667 -7.45,2.6c-3.56667,1.06667 -6.05,1.88333 -7.45,2.45c5.76667,1.56667 9.81667,2.7 12.15,3.4c2.46667,0.8 5.26667,1.26667 8.4,1.4c2.3,0.1 5.13333,0.01667 8.5,-0.25l-1.15,-4.65c-1.66667,1.36667 -2.61667,2.11667 -2.85,2.25c-1.2,0.66667 -2.35,0.76667 -3.45,0.3c-1.33333,-0.7 -2.6,-1.8 -3.8,-3.3M646.36786,362.725c-0.5,-0.5 -1.08333,-0.75 -1.75,-0.75c-0.66667,0 -1.23333,0.25 -1.7,0.75c-0.5,0.46667 -0.75,1.05 -0.75,1.75c0,0.7 0.25,1.3 0.75,1.8c0.46667,0.46667 1.03333,0.7 1.7,0.7c0.66667,0 1.25,-0.23333 1.75,-0.7c0.46667,-0.5 0.7,-1.1 0.7,-1.8c0,-0.7 -0.23333,-1.28333 -0.7,-1.75M653.36786,383.425c0.8,4.66667 1.61667,8.36667 2.45,11.1c1.6,-0.66667 3.01667,-2.05 4.25,-4.15c0.7,-1.2 1.7,-3.01667 3,-5.45l-3.1,-0.35c-1.4,-0.43333 -3.6,-0.81667 -6.6,-1.15M650.01786,385.525c-1.66667,2.73333 -5.71667,8.88333 -12.15,18.45c0.53333,0.1 1.35,0.33333 2.45,0.7c0.96667,0.2 1.76667,0.06667 2.4,-0.4c1.46667,-0.76667 3.13333,-1.8 5,-3.1c1.1,-0.76667 2.71667,-1.91667 4.85,-3.45c-0.56667,-1.6 -1.06667,-3.61667 -1.5,-6.05c-0.43333,-2.73333 -0.78333,-4.78333 -1.05,-6.15M647.96786,381.725c-5.13333,-1.63333 -11.08333,-4.05 -17.85,-7.25c0.76667,4.7 1.76667,9.35 3,13.95c0.6,2.46667 1.6,6.15 3,11.05c1.33333,-1.83333 3.3,-4.8 5.9,-8.9c2.5,-3.93333 4.48333,-6.88333 5.95,-8.85M622.81786,382.475c1.16667,-4.9 2.11667,-8.56667 2.85,-11c-2.06667,-1.36667 -4.95,-3.73333 -8.65,-7.1c0.3,3.03333 0.63333,7.6 1,13.7c0.43333,5.4 1.08333,9.93333 1.95,13.6l1.1,-3.15c0.33333,-1.46667 0.68333,-2.83333 1.05,-4.1l0.7,-1.95M627.46786,398.525c2.1,1.2 3.85,2.16667 5.25,2.9c-0.43333,-2.33333 -1.13333,-4.95 -2.1,-7.85c-1.66667,-7.66667 -2.68333,-12.21667 -3.05,-13.65c-1,2.06667 -1.96667,4.63333 -2.9,7.7c-0.56667,1.73333 -1.35,4.36667 -2.35,7.9c0.23333,0.13333 1.95,1.13333 5.15,3z" fill="#000000"/><path d="M624.66786,387.625c0.93333,-3.06667 1.9,-5.63333 2.9,-7.7c0.36667,1.43333 1.38333,5.98333 3.05,13.65c0.96667,2.9 1.66667,5.51667 2.1,7.85c-1.4,-0.73333 -3.15,-1.7 -5.25,-2.9c-3.2,-1.86667 -4.91667,-2.86667 -5.15,-3c1,-3.53333 1.78333,-6.16667 2.35,-7.9M622.11786,384.425c-0.36667,1.26667 -0.71667,2.63333 -1.05,4.1l-1.1,3.15c-0.86667,-3.66667 -1.51667,-8.2 -1.95,-13.6c-0.36667,-6.1 -0.7,-10.66667 -1,-13.7c3.7,3.36667 6.58333,5.73333 8.65,7.1c-0.73333,2.43333 -1.68333,6.1 -2.85,11l-0.7,1.95M642.01786,390.575c-2.6,4.1 -4.56667,7.06667 -5.9,8.9c-1.4,-4.9 -2.4,-8.58333 -3,-11.05c-1.23333,-4.6 -2.23333,-9.25 -3,-13.95c6.76667,3.2 12.71667,5.61667 17.85,7.25c-1.46667,1.96667 -3.45,4.91667 -5.95,8.85M651.06786,391.675c0.43333,2.43333 0.93333,4.45 1.5,6.05c-2.13333,1.53333 -3.75,2.68333 -4.85,3.45c-1.86667,1.3 -3.53333,2.33333 -5,3.1c-0.63333,0.46667 -1.43333,0.6 -2.4,0.4c-1.1,-0.36667 -1.91667,-0.6 -2.45,-0.7c6.43333,-9.56667 10.48333,-15.71667 12.15,-18.45c0.26667,1.36667 0.61667,3.41667 1.05,6.15M663.06786,384.925c-1.3,2.43333 -2.3,4.25 -3,5.45c-1.23333,2.1 -2.65,3.48333 -4.25,4.15c-0.83333,-2.73333 -1.65,-6.43333 -2.45,-11.1c3,0.33333 5.2,0.71667 6.6,1.15z" fill="#ffffff"/><path d="M646.36786,366.275c-0.5,0.46667 -1.08333,0.7 -1.75,0.7c-0.66667,0 -1.23333,-0.23333 -1.7,-0.7c-0.5,-0.5 -0.75,-1.1 -0.75,-1.8c0,-0.7 0.25,-1.28333 0.75,-1.75c0.46667,-0.5 1.03333,-0.75 1.7,-0.75c0.66667,0 1.25,0.25 1.75,0.75c0.46667,0.46667 0.7,1.05 0.7,1.75c0,0.7 -0.23333,1.3 -0.7,1.8z" fill="#efff4a"/><path d="M668.71786,378.675c0.23333,-0.13333 1.18333,-0.88333 2.85,-2.25l1.15,4.65c-3.36667,0.26667 -6.2,0.35 -8.5,0.25c-3.13333,-0.13333 -5.93333,-0.6 -8.4,-1.4c-2.33333,-0.7 -6.38333,-1.83333 -12.15,-3.4c1.4,-0.56667 3.88333,-1.38333 7.45,-2.45c3.23333,-0.93333 5.71667,-1.8 7.45,-2.6c1.63333,2.4 2.6,3.8 2.9,4.2c1.2,1.5 2.46667,2.6 3.8,3.3c1.1,0.46667 2.25,0.36667 3.45,-0.3z" fill="#bf7cd4"/><path d="M664.31786,368.375c0,-0.66667 0.25,-1.23333 0.75,-1.7c0.46667,-0.5 1.05,-0.75 1.75,-0.75c0.7,0 1.3,0.25 1.8,0.75c0.46667,0.46667 0.7,1.03333 0.7,1.7c0,0.66667 -0.23333,1.25 -0.7,1.75c-0.5,0.46667 -1.1,0.7 -1.8,0.7c-0.7,0 -1.28333,-0.23333 -1.75,-0.7c-0.5,-0.5 -0.75,-1.08333 -0.75,-1.75z" fill="#ecff49"/><path d="M662.06786,355.125c0.5,1.23333 0.46667,2.36667 -0.1,3.4c-0.53333,0.9 -1.4,1.65 -2.6,2.25l-2.05,-4.55c0.53333,-0.13333 1.3,-0.38333 2.3,-0.75c0.93333,-0.26667 1.75,-0.38333 2.45,-0.35z" fill="#b66ad6"/><path d="M673.06786,335.475c-1.63333,0.3 -3.88333,0.48333 -6.75,0.55c-3.26667,0.03333 -5.53333,0.13333 -6.8,0.3c0.56667,1.6 1.88333,3.33333 3.95,5.2c2.5,2.2 4.06667,3.76667 4.7,4.7c0.56667,0.83333 1.56667,2.08333 3,3.75c1.06667,1.56667 1.41667,3.05 1.05,4.45c-0.16667,1.7 -1.1,3.21667 -2.8,4.55c-2.13333,1.33333 -3.66667,2.33333 -4.6,3c0,-2.73333 -0.8,-5.26667 -2.4,-7.6c0.9,-1.63333 1.48333,-2.91667 1.75,-3.85c0.43333,-1.53333 0.36667,-2.91667 -0.2,-4.15c-0.33333,-0.93333 -1.01667,-1.76667 -2.05,-2.5c-1.3,-0.7 -2.25,-1.23333 -2.85,-1.6c0.16667,1.1 0.58333,2.8 1.25,5.1c0.46667,2.03333 0.36667,3.71667 -0.3,5.05c-0.46667,0.93333 -1.35,1.45 -2.65,1.55c-1.5,-0.03333 -2.6,-0.03333 -3.3,0c1.13333,3.1 1.96667,5.88333 2.5,8.35c-1.33333,-0.13333 -2.65,-0.83333 -3.95,-2.1c-1.36667,-1.53333 -2.41667,-2.63333 -3.15,-3.3c-3.36667,-3.2 -6.7,-7.3 -10,-12.3c-1.23333,-1.9 -3.96667,-6.41667 -8.2,-13.55c-1.1,0.1 -1.85,0.76667 -2.25,2c-0.23333,0.7 -0.45,1.78333 -0.65,3.25c-1.1,5.76667 -1.35,11.56667 -0.75,17.4c0.6,5.93333 2.03333,11.55 4.3,16.85c-2.6,-1.3 -5.6,-3.13333 -9,-5.5l3.9,-0.55c-1.26667,-1.3 -3.1,-2.51667 -5.5,-3.65c-3.83333,-1.83333 -5.83333,-2.8 -6,-2.9c-1,0.96667 -1.56667,2.3 -1.7,4c-0.06667,0.53333 -0.03333,2.01667 0.1,4.45c0,0.03333 0.38333,4.61667 1.15,13.75c0.46667,5.5 1.13333,10.05 2,13.65c0.6,2.36667 2.11667,4.15 4.55,5.35c1.7,0.9 4.21667,2.23333 7.55,4c2.93333,1.53333 5.48333,2.8 7.65,3.8c1.2,0.56667 2.15,0.93333 2.85,1.1c1.13333,0.23333 2.13333,0.15 3,-0.25c4.36667,-2 8.76667,-4.68333 13.2,-8.05c3.53333,-2.7 7.41667,-6.1 11.65,-10.2c1.6,3.63333 2.76667,7.26667 3.5,10.9c-5.76667,2.13333 -12.83333,5.23333 -21.2,9.3c-13.26667,6.5 -20.2,9.88333 -20.8,10.15c-0.63333,0.3 -1.33333,0.25 -2.1,-0.15c-0.83333,-0.56667 -1.45,-0.96667 -1.85,-1.2c-3.13333,-2.4 -7.83333,-4.73333 -14.1,-7c-0.26667,-2.36667 -0.83333,-5.71667 -1.7,-10.05c-0.93333,-4.56667 -1.53333,-7.9 -1.8,-10c-1.56667,0.06667 -3.38333,0.56667 -5.45,1.5c-3.3,1.5 -5.01667,2.26667 -5.15,2.3c-5.46667,-12.33333 -8.18333,-24.4 -8.15,-36.2c1.46667,1.6 3.4,4.43333 5.8,8.5c2.43333,3.3 5.16667,5.1 8.2,5.4c-0.63333,-5.8 -1.76667,-13.3 -3.4,-22.5c-2.1,-11.86667 -3.38333,-19.35 -3.85,-22.45c5,-2.16667 11.8,-4.36667 20.4,-6.6c-0.56667,-4.6 -1.65,-9.85 -3.25,-15.75c3.63333,4.13333 8.63333,7.23333 15,9.3c4.13333,1.33333 10,2.48333 17.6,3.45c11.23333,0.7 20.86667,0 28.9,-2.1c1.86667,-0.36667 4.23333,-1.11667 7.1,-2.25c3.53333,-1.4 5.86667,-2.26667 7,-2.6c-1.1,2.26667 -2.71667,5.35 -4.85,9.25c-2.36667,4.36667 -4,7.43333 -4.9,9.2l-2.05,3.35c-0.9,1.23333 -1.95,1.95 -3.15,2.15z" fill="#af66ce"/></g></g></svg>