<svg version="1.1" xmlns="http://www.w3.org/2000/svg" xmlns:xlink="http://www.w3.org/1999/xlink" width="1262.21462" height="237.38555" viewBox="0,0,1262.21462,237.38555"><g transform="translate(-8.89269,-241.30723)"><g data-paper-data="{&quot;isPaintingLayer&quot;:true}" fill="#ca8d60" fill-rule="nonzero" stroke="#000000" stroke-width="0" stroke-linecap="round" stroke-linejoin="miter" stroke-miterlimit="4" stroke-dasharray="" stroke-dashoffset="0" style="mix-blend-mode: normal"><path d="M45.60271,401.53282c-0.41555,1.18102 -0.62332,2.32923 -0.62332,3.44464c0,0.32806 1.80434,4.80062 5.41301,13.41769c3.60867,9.40442 5.41301,16.24995 5.41301,20.53662c0,2.12146 -0.06561,3.45557 -0.19684,4.00234c-0.45929,1.83714 -1.59656,2.96348 -3.41183,3.37903c-5.70826,-5.94884 -9.74341,-12.24761 -12.10545,-18.89631c-1.61843,-4.57098 -2.83226,-10.95724 -3.64148,-19.15876c-1.48721,0.63425 -3.88205,1.88088 -7.18454,3.7399c-1.70592,0.96231 -3.14939,1.82621 -4.3304,2.59168c0.06561,0.32806 0.12029,0.66706 0.16403,1.01699c0.02187,0.17496 0.05468,0.3718 0.09842,0.59051c1.55282,0.28432 2.58075,1.94649 3.08377,4.98653c0.06561,0.39367 0.12029,0.78735 0.16403,1.18102c0.59051,-2.77758 1.50908,-4.96466 2.75571,-6.56122c1.07167,1.81527 1.90275,4.03515 2.49326,6.65964c0.5249,2.23081 0.78735,4.27573 0.78735,6.13474c0,3.67428 -0.25151,6.23316 -0.75454,7.67663c-0.39367,1.13728 -1.11541,1.95743 -2.1652,2.46046c-0.48116,0.24058 -0.91857,0.45929 -1.31224,0.65612c1.07167,7.12986 1.6075,11.24156 1.6075,12.33509c0,2.95255 -0.10935,5.41301 -0.32806,7.38137c-0.10935,0 -0.22964,0.21871 -0.36087,0.65612c-0.39367,0.43741 -1.25757,0.65612 -2.59168,0.65612c-1.7934,0 -4.3304,-5.45675 -7.61101,-16.37024c-3.34622,-3.5868 -6.15661,-8.43117 -8.43117,-14.5331c-2.42765,-6.51748 -3.64148,-12.45538 -3.64148,-17.81371c0,-1.74966 0.42648,-2.876 1.27944,-3.37903c1.55282,-0.91857 5.06307,-1.2685 10.53076,-1.0498c0.24058,0.1531 0.47022,0.32806 0.68893,0.5249c1.50908,-0.83109 3.23687,-1.70592 5.18336,-2.62449c8.74829,-4.15544 15.2111,-6.18942 19.3884,-6.10193c0.10935,0.63425 -0.01093,1.4544 -0.36087,2.46046M106.49083,376.6658c1.09354,0 1.66218,0.54677 1.70592,1.6403c0.02187,0.56864 -0.07655,1.31224 -0.29525,2.23081c-0.02187,0.45929 0.03281,1.17009 0.16403,2.1324c0.10935,0.98418 0.16403,1.58563 0.16403,1.80434c0,0.19684 -0.17496,1.06073 -0.5249,2.59168c-0.3718,1.50908 -0.5577,2.40578 -0.5577,2.6901c0,0.65612 0.12029,1.2685 0.36087,1.83714c0.30619,0.72173 0.51396,1.43253 0.62332,2.1324c0.04374,0 0.36087,-0.16403 0.95138,-0.49209c0.67799,-0.32806 1.2357,-0.49209 1.67311,-0.49209c1.29037,0 2.11052,0.20777 2.46046,0.62332c0.21871,0.24058 0.41555,0.74361 0.59051,1.50908c0.10935,0.26245 0.44835,0.59051 1.01699,0.98418c0.72173,0.48116 1.25757,0.91857 1.6075,1.31224c0.63425,0.69986 0.97325,1.54189 1.01699,2.52607c0.04374,0.63425 -0.05468,1.52001 -0.29525,2.65729c1.96837,0.06561 2.95255,0.68893 2.95255,1.86995c0,0.65612 -0.10935,1.67311 -0.32806,3.05097c0.13122,0.50303 0.39367,1.39973 0.78735,2.6901c0.34993,1.22476 0.5249,2.1652 0.5249,2.82132c0,0.87483 -0.32806,1.43253 -0.98418,1.67311c-2.3183,0.8967 -3.79457,1.50908 -4.42882,1.83714c-0.45929,0.24058 -1.44347,0.8967 -2.95255,1.96837c-1.48721,0.96231 -2.63542,1.4544 -3.44464,1.47627c-0.19684,1.66218 -0.68893,2.51514 -1.47627,2.55888c-0.96231,-0.28432 -1.67311,-0.42648 -2.1324,-0.42648c-1.02792,0 -1.99024,0.47022 -2.88694,1.41066c-0.8967,0.91857 -1.52001,1.37786 -1.86995,1.37786c-0.59051,0 -1.11541,-1.03886 -1.57469,-3.11658c-0.39367,-2.49326 -0.68893,-4.13357 -0.88576,-4.92091c-0.41555,-1.83714 -0.73267,-3.20406 -0.95138,-4.10076c-0.39367,-1.61843 -0.76547,-2.96348 -1.11541,-4.03515c0.13122,-0.13122 0.60144,-0.26245 1.41066,-0.39367c0.17496,-0.08748 0.42648,-0.14216 0.75454,-0.16403c0.26245,-0.06561 0.39367,-0.26245 0.39367,-0.59051c0,-0.30619 -0.05468,-0.59051 -0.16403,-0.85296c-0.10935,-0.28432 -0.16403,-0.49209 -0.16403,-0.62332c0,-0.1531 -0.10935,-0.28432 -0.32806,-0.39367c-0.13122,0.06561 -0.40461,0.25151 -0.82015,0.5577c-0.41555,0.30619 -0.83109,0.44835 -1.24663,0.42648c-0.10935,-0.10935 -0.16403,-0.22964 -0.16403,-0.36087c0,-0.21871 0,-0.47022 0,-0.75454c0,-0.26245 -0.10935,-0.59051 -0.32806,-0.98418c-0.21871,-0.3718 -0.32806,-0.69986 -0.32806,-0.98418c0,-0.1531 0.42648,-0.48116 1.27944,-0.98418c0.85296,-0.50303 1.27944,-0.78735 1.27944,-0.85296c0,-0.30619 -0.05468,-0.57958 -0.16403,-0.82015c-0.08748,-0.21871 -0.12029,-0.36087 -0.09842,-0.42648l-2.03398,-0.32806c-0.3718,-1.11541 -0.83109,-1.86995 -1.37786,-2.26362c-0.39367,-0.30619 -0.59051,-0.7108 -0.59051,-1.21383c0,-0.76547 0.73267,-1.48721 2.19801,-2.1652c1.59656,-0.74361 2.41672,-1.15915 2.46046,-1.24663c0,-0.43741 0.07655,-1.13728 0.22964,-2.09959c0.13122,-0.98418 0.19684,-1.59656 0.19684,-1.83714c0,-1.02792 -0.1859,-2.02304 -0.5577,-2.98535c-0.39367,-0.96231 -0.59051,-1.65124 -0.59051,-2.06678c0,-0.67799 0.24058,-1.21383 0.72173,-1.6075c1.07167,-0.94044 1.89182,-1.74966 2.46046,-2.42765c0.39367,-0.48116 0.63425,-1.10447 0.72173,-1.86995c0.02187,-0.91857 0.08748,-1.66218 0.19684,-2.23081c0.43741,0.10935 0.74361,0.41555 0.91857,0.91857c0.19684,0.56864 0.45929,0.94044 0.78735,1.11541l1.31224,-0.06561c0.30619,-0.30619 0.66706,-0.60144 1.0826,-0.88576c0.3718,-0.24058 0.59051,-0.36087 0.65612,-0.36087M104.85053,386.60605c0,-0.50303 0.02187,-0.83109 0.06561,-0.98418v-1.96837c-0.08748,-0.06561 -0.29525,-0.06561 -0.62332,0c-0.39367,0.08748 -0.69986,0.14216 -0.91857,0.16403c0.43741,1.31224 0.65612,2.26362 0.65612,2.85413l0.82015,-0.06561M105.40823,402.35298c0.02187,0.04374 0.17496,0.43741 0.45929,1.18102c0.26245,0.67799 0.47022,1.0498 0.62332,1.11541c0.65612,-0.43741 0.98418,-0.84202 0.98418,-1.21383c0,-0.41555 -0.01093,-0.66706 -0.03281,-0.75454c0,-0.10935 -0.04374,-0.21871 -0.13122,-0.32806l-1.96837,-0.09842l0.06561,0.09842M103.27583,397.00558c-0.59051,-0.04374 -1.19195,0.04374 -1.80434,0.26245c0.3718,0.80922 0.59051,1.62937 0.65612,2.46046h0.32806l0.82015,-0.26245v-2.46046M226.46273,411.30904c1.22476,2.44952 1.81527,4.25386 1.77153,5.41301c-0.02187,0.74361 -0.16403,1.25757 -0.42648,1.54189c-0.13122,0.13122 -0.51396,0.339 -1.14821,0.62332c-1.09354,0.06561 -2.18707,0.07655 -3.28061,0.03281c-0.69986,-0.04374 -3.67428,-0.75454 -8.92326,-2.1324c-5.35833,-1.4216 -8.12498,-2.15427 -8.29994,-2.19801c-5.18336,-0.76547 -9.20758,-1.39973 -12.07264,-1.90275c-2.58075,-0.48116 -4.63659,-0.94044 -6.16755,-1.37786l-0.32806,0.09842c-0.04374,-0.06561 -0.08748,-0.1531 -0.13122,-0.26245c-1.29037,-0.39367 -2.1652,-0.78735 -2.62449,-1.18102c0.02187,-0.28432 0.1531,-0.56864 0.39367,-0.85296c0.28432,-0.30619 0.62332,-0.5249 1.01699,-0.65612c-0.5249,-1.48721 -1.0498,-3.34622 -1.57469,-5.57704c-0.87483,-4.30853 -1.48721,-7.05331 -1.83714,-8.23433c-0.30619,-1.11541 -1.29037,-4.27573 -2.95255,-9.48096c-1.44347,-4.54911 -2.15427,-6.95489 -2.1324,-7.21734c0.02187,-0.65612 0.36087,-1.46534 1.01699,-2.42765c0.63425,-0.96231 0.95138,-1.6075 0.95138,-1.93556c0.02187,-0.65612 -0.56864,-3.46651 -1.77153,-8.43117c-1.2685,-5.33646 -1.96837,-8.56239 -2.09959,-9.6778c-0.10935,-0.98418 -0.50303,-2.48233 -1.18102,-4.49444c-0.72173,-2.05585 -1.13728,-3.55399 -1.24663,-4.49444c-0.30619,-1.88088 -1.57469,-3.32435 -3.80551,-4.3304c-1.09354,-0.48116 -1.82621,-0.8967 -2.19801,-1.24663c-0.61238,-0.63425 -0.8967,-1.49815 -0.85296,-2.59168c0,-0.50303 0.08748,-0.84202 0.26245,-1.01699c0.45929,-0.59051 1.48721,-0.91857 3.08377,-0.98418c0.30619,-0.19684 0.69986,-1.00605 1.18102,-2.42765c0.43741,-1.29037 1.0826,-2.02304 1.93556,-2.19801c0.06561,0.06561 0.60144,0.64519 1.6075,1.73872c0.76547,0.85296 1.33412,1.41066 1.70592,1.67311l3.60867,0.16403c0.41555,-0.59051 0.65612,-1.32318 0.72173,-2.19801c0,-0.98418 0.03281,-1.72779 0.09842,-2.23081c0.08748,-0.21871 0.5577,-0.79828 1.41066,-1.73872c0.78735,-0.8967 1.19195,-1.50908 1.21383,-1.83714c0,-0.26245 -0.29525,-1.09354 -0.88576,-2.49326c-0.63425,-1.39973 -1.09354,-2.26362 -1.37786,-2.59168c-0.5249,0 -1.07167,0.02187 -1.6403,0.06561c-1.13728,0.06561 -1.85901,0.16403 -2.1652,0.29525l-1.80434,-0.22964c-0.69986,-0.65612 -1.13728,-1.4216 -1.31224,-2.29643c-0.26245,-1.4216 -0.41555,-2.18707 -0.45929,-2.29643c-0.04374,-0.10935 -0.30619,-0.47022 -0.78735,-1.0826c-0.69986,-0.8967 -1.36692,-1.77153 -2.00117,-2.62449c-0.32806,-0.48116 -0.61238,-1.32318 -0.85296,-2.52607c-0.3718,-0.28432 -0.67799,-0.62332 -0.91857,-1.01699c-0.59051,-0.94044 -0.72173,-2.19801 -0.39367,-3.7727c0,-0.10935 0.04374,-0.21871 0.13122,-0.32806c0.04374,-0.06561 0.09842,-0.10935 0.16403,-0.13122c-0.04374,-0.06561 -0.07655,-0.13122 -0.09842,-0.19684l0.22964,-1.31224c1.2685,0.10935 2.28549,0.95138 3.05097,2.52607c0.24058,0.56864 0.48116,1.31224 0.72173,2.23081c0.3718,0.24058 0.78735,0.36087 1.24663,0.36087c0.48116,0.02187 1.2685,-0.20777 2.36204,-0.68893c0.54677,-0.24058 1.20289,-0.54677 1.96837,-0.91857c1.09354,0.17496 2.09959,0.3718 3.01816,0.59051c1.07167,0.28432 1.91369,0.48116 2.52607,0.59051l1.47627,0.06561c0.08748,-2.29643 1.17009,-4.64753 3.2478,-7.05331c1.68405,-1.94649 3.09471,-3.10565 4.23199,-3.47745c0.1531,1.20289 0.12029,2.79945 -0.09842,4.78969c-0.10935,1.0498 -0.25151,2.3183 -0.42648,3.80551c-0.02187,0.61238 0,1.07167 0.06561,1.37786c0.02187,0.30619 0.03281,0.59051 0.03281,0.85296l0.26245,0.06561c0.26245,0.10935 0.49209,0.26245 0.68893,0.45929c2.64636,-0.78735 4.3304,-0.47022 5.05214,0.95138c0.39367,0.72173 0.5249,1.57469 0.39367,2.55888c0.06561,0.26245 0.42648,1.01699 1.0826,2.26362c0.63425,1.20289 1.02792,2.12146 1.18102,2.75571l1.41066,4.3304c0.8967,2.99629 1.33412,4.88811 1.31224,5.67545c0,0.1531 -0.08748,1.21383 -0.26245,3.18219c-0.1531,1.61843 -0.21871,3.00723 -0.19684,4.16637c-0.02187,0 -0.1531,0.08748 -0.39367,0.26245c-0.26245,0.17496 -0.5249,0.29525 -0.78735,0.36087c-0.39367,-0.10935 -0.8967,-0.66706 -1.50908,-1.67311c-0.54677,-0.91857 -1.47627,-1.39973 -2.78852,-1.44347c-0.48116,-0.02187 -1.09354,0.97325 -1.83714,2.98535c-0.63425,1.72779 -0.99512,2.98535 -1.0826,3.7727l-0.39367,0.26245c-0.28432,0.13122 -0.75454,0.1859 -1.41066,0.16403c-1.57469,-0.06561 -2.5042,-0.87483 -2.78852,-2.42765c-0.13122,-0.67799 -0.10935,-1.81527 0.06561,-3.41183c-0.63425,-0.04374 -1.37786,0.05468 -2.23081,0.29525c-0.78735,0.19684 -1.32318,0.42648 -1.6075,0.68893c0.10935,0.3718 0.7108,2.44952 1.80434,6.23316c0.80922,2.82132 1.30131,4.89904 1.47627,6.23316l0.32806,0.16403c0.5249,-0.63425 0.90764,-1.59656 1.14821,-2.88694c0.13122,-0.91857 0.68893,-1.56376 1.67311,-1.93556c0.85296,1.94649 1.34505,2.94161 1.47627,2.98535c0.26245,0.1531 1.37786,0.1531 3.34622,0c0.67799,0.02187 1.0826,0.30619 1.21383,0.85296c0.04374,0.30619 0.09842,0.80922 0.16403,1.50908c1.46534,0.19684 2.79945,0.1531 4.00234,-0.13122c1.35598,-0.30619 2.1652,-0.44835 2.42765,-0.42648c0.04374,0 0.08748,0 0.13122,0c0.1531,-0.1531 0.31713,-0.25151 0.49209,-0.29525c0.04374,0.13122 0.09842,0.26245 0.16403,0.39367c0.78735,0.1531 1.2685,0.53583 1.44347,1.14821c-0.30619,0.17496 -0.59051,0.36087 -0.85296,0.5577c2.3183,6.8018 5.31459,17.57313 8.98887,32.31401c2.51514,10.01679 4.89904,18.48077 7.15173,25.39192c0.91857,-0.08748 1.94649,0.97325 3.08377,3.18219M197.69178,324.83217c0.06561,-0.02187 0.10935,-0.3718 0.13122,-1.0498c0.04374,-1.15915 -0.339,-2.93068 -1.14821,-5.31459c-0.87483,-2.58075 -1.73872,-4.03515 -2.59168,-4.36321c-0.04374,0.02187 -0.31713,0.32806 -0.82015,0.91857c-0.3718,0.43741 -0.88576,0.64519 -1.54189,0.62332c-0.59051,-0.02187 -0.92951,-0.14216 -1.01699,-0.36087c-0.10935,-0.21871 -0.30619,-0.339 -0.59051,-0.36087l-0.09842,0.82015c-0.08748,0.67799 -0.14216,1.35598 -0.16403,2.03398c-0.04374,1.0498 0.83109,3.64148 2.62449,7.77505l2.46046,0.26245c0.08748,0 0.36087,-0.10935 0.82015,-0.32806c0.43741,-0.19684 0.94044,-0.3718 1.50908,-0.5249c0.24058,-0.06561 0.38274,-0.10935 0.42648,-0.13122M202.21902,360.0003c-1.29037,-0.21871 -2.65729,0.30619 -4.10076,1.57469c-0.04374,0.91857 0.3718,2.61355 1.24663,5.08495c1.09354,3.04003 2.29643,4.58192 3.60867,4.62566c0.34993,0.02187 1.01699,-0.27338 2.00117,-0.88576c1.00605,-0.63425 1.50908,-1.10447 1.50908,-1.41066c0.02187,-0.54677 -0.24058,-1.62937 -0.78735,-3.2478c-0.65612,-1.99024 -1.00605,-3.07284 -1.0498,-3.2478c-0.34993,-1.44347 -1.15915,-2.27456 -2.42765,-2.49326M242.997,300.7853c0.39367,-0.24058 1.09354,-0.1859 2.09959,0.16403c0.59051,0.21871 1.67311,0.64519 3.2478,1.27944c1.55282,0.54677 2.97442,0.90764 4.26479,1.0826l1.11541,1.01699c3.10565,-0.08748 5.52236,-0.12029 7.25015,-0.09842c2.95255,0.04374 6.16755,0.25151 9.64499,0.62332c0.78735,1.11541 1.02792,2.8432 0.72173,5.18336c-0.1531,1.29037 -0.42648,3.28061 -0.82015,5.97071l-0.45929,11.05566c-0.02187,0.54677 -0.09842,2.00117 -0.22964,4.36321c-0.13122,2.44952 -0.1859,4.37415 -0.16403,5.77387c0,0.19684 -0.06561,0.95138 -0.19684,2.26362c-0.06561,0.85296 0,1.54189 0.19684,2.06678c0.06561,0.21871 0.17496,0.44835 0.32806,0.68893c0.39367,0.24058 0.87483,0.48116 1.44347,0.72173c2.03398,0.8967 3.25874,1.57469 3.67428,2.03398c-0.02187,0.28432 -0.03281,0.63425 -0.03281,1.0498c0.19684,0.08748 0.40461,0.1859 0.62332,0.29525l0.29525,0.98418c-0.10935,0.17496 -0.25151,0.45929 -0.42648,0.85296c-0.13122,0.13122 -0.30619,0.22964 -0.5249,0.29525c0,0.59051 0,1.2357 0,1.93556c-0.08748,2.29643 -0.17496,5.9051 -0.26245,10.82601c-0.13122,3.38996 -0.54677,6.08006 -1.24663,8.0703c-1.0498,3.01816 -2.64636,4.13357 -4.78969,3.34622c-0.04374,-0.17496 -0.09842,-0.26245 -0.16403,-0.26245c-0.10935,-0.02187 -0.17496,0.30619 -0.19684,0.98418c-0.02187,0.61238 0.06561,1.14821 0.26245,1.6075c0.19684,0.43741 0.29525,0.75454 0.29525,0.95138l2.78852,0.09842c0.54677,0.50303 0.94044,1.88088 1.18102,4.13357c0.13122,1.44347 0.1859,2.58075 0.16403,3.41183c-0.04374,1.02792 -0.42648,2.3511 -1.14821,3.96954c-0.72173,1.59656 -1.09354,2.62449 -1.11541,3.08377c-0.02187,0.61238 0.1531,1.27944 0.5249,2.00117c0.32806,0.72173 0.49209,1.21383 0.49209,1.47627c-0.02187,0.32806 -0.10935,0.88576 -0.26245,1.67311l0.03281,-0.03281c0.39367,1.20289 1.30131,5.50049 2.72291,12.8928c2.01211,-3.84925 3.20406,-6.15661 3.57586,-6.92209c0.43741,-0.96231 0.90764,-2.37297 1.41066,-4.23199c0.63425,-2.25269 1.07167,-3.71802 1.31224,-4.39602c1.15915,-3.32435 2.876,-5.25991 5.15056,-5.80668c2.01211,0 4.63659,1.13728 7.87346,3.41183c3.28061,2.3183 4.92091,4.24292 4.92091,5.77387c0,3.69615 -4.54911,10.86975 -13.64734,21.5208c-3.28061,3.84925 -6.6487,7.5454 -10.10428,11.08846c-3.10565,3.215 -5.13962,5.13962 -6.10193,5.77387c-1.7934,-1.46534 -2.876,-2.39485 -3.2478,-2.78852c-0.45929,-0.45929 -0.68893,-1.06073 -0.68893,-1.80434c0,-1.11541 0.59051,-3.08377 1.77153,-5.9051c-2.51514,-0.67799 -3.82738,-1.02792 -3.93673,-1.0498l-30.1488,-1.21383c-0.87483,-0.32806 -1.4216,-0.78735 -1.6403,-1.37786c-0.06561,-0.19684 -0.08748,-0.60144 -0.06561,-1.21383c0.13122,-3.52119 0.64519,-7.57821 1.54189,-12.17106c0.85296,-4.50537 1.90275,-8.03749 3.14939,-10.59637c0.13122,-0.83109 0.21871,-1.58563 0.26245,-2.26362c0.08748,-2.05585 0.61238,-4.01328 1.57469,-5.87229c0.91857,-1.85901 1.41066,-3.46651 1.47627,-4.8225c0.04374,-1.2685 -0.06561,-2.49326 -0.32806,-3.67428c-0.24058,-1.13728 -0.28432,-2.876 -0.13122,-5.21617c0.06561,-2.12146 -0.20777,-4.93185 -0.82015,-8.43117l0.16403,-3.93673c0.80922,-0.19684 2.59168,0.04374 5.34739,0.72173l0.19684,-0.98418l0.13122,-2.91974c-0.85296,-0.30619 -1.59656,-0.39367 -2.23081,-0.26245c-0.63425,0.24058 -1.14821,0.38274 -1.54189,0.42648c-0.67799,-0.30619 -1.09354,-1.06073 -1.24663,-2.26362c-0.06561,-0.50303 -0.07655,-1.4216 -0.03281,-2.75571c0.21871,-5.18336 0.5249,-8.71549 0.91857,-10.59637c0.72173,-3.32435 2.36204,-5.41301 4.92091,-6.26596c0.63425,-0.21871 1.46534,-0.49209 2.49326,-0.82015c0.72173,-0.3718 1.10447,-0.98418 1.14821,-1.83714c0.04374,-1.48721 -0.13122,-2.56981 -0.5249,-3.2478c-0.56864,-0.13122 -1.54189,-0.60144 -2.91974,-1.41066c-0.8967,-0.54677 -2.07772,-0.7108 -3.54306,-0.49209c-1.07167,-0.65612 -1.71685,-1.49815 -1.93556,-2.52607c-0.04374,-0.91857 -0.06561,-1.4216 -0.06561,-1.50908c0.02187,-0.28432 0.06561,-0.84202 0.13122,-1.67311c0.04374,-0.45929 0.04374,-0.97325 0,-1.54189c0.1531,-0.17496 0.74361,-0.13122 1.77153,0.13122c1.33412,0.32806 2.23081,0.50303 2.6901,0.5249c0.76547,0.04374 2.77758,-1.65124 6.03632,-5.08495c0.06561,-1.61843 -0.51396,-3.49932 -1.73872,-5.64265c-0.10935,0.04374 -0.21871,0.09842 -0.32806,0.16403c-0.13122,-0.1531 -0.08748,-0.31713 0.13122,-0.49209c-0.06561,-0.13122 -0.14216,-0.26245 -0.22964,-0.39367c-2.07772,-0.28432 -3.52119,-1.44347 -4.3304,-3.47745c-0.59051,-1.44347 -0.84202,-3.23687 -0.75454,-5.3802c0.04374,-1.15915 0.32806,-1.85901 0.85296,-2.09959M258.21903,335.92063v0.16403c-0.04374,0.98418 0.14216,1.65124 0.5577,2.00117l3.60867,0.13122l0.36087,-0.45929c-1.22476,-1.0498 -1.9793,-1.59656 -2.26362,-1.6403c-0.54677,0.02187 -1.30131,-0.04374 -2.26362,-0.19684M245.98236,352.15965c0.06561,0.21871 0.19684,0.39367 0.39367,0.5249c1.13728,-0.50303 1.77153,-1.68405 1.90275,-3.54306c0.19684,-2.38391 0.3718,-3.7399 0.5249,-4.06796l-0.16403,0.16403c-1.33412,0.94044 -2.06678,1.96837 -2.19801,3.08377c-0.24058,2.05585 -0.41555,3.23687 -0.5249,3.54306l0.06561,0.29525M253.7574,352.9798l2.09959,0.75454c0.39367,-0.91857 0.75454,-2.07772 1.0826,-3.47745c0.3718,-1.57469 0.65612,-2.74478 0.85296,-3.51025l-0.91857,0.26245c-0.74361,0.21871 -1.70592,0.40461 -2.88694,0.5577l-0.22964,5.41301M257.23485,376.60019c0.80922,0.13122 1.73872,-0.39367 2.78852,-1.57469c0.80922,-0.94044 1.36692,-1.78246 1.67311,-2.52607c-0.65612,-0.1531 -2.51514,-0.44835 -5.57704,-0.88576c-0.08748,2.1652 0.28432,3.82738 1.11541,4.98653M382.39012,262.33655c-0.1531,-1.31224 -0.17496,-2.38391 -0.06561,-3.215c0.21871,-1.46534 1.09354,-2.59168 2.62449,-3.37903c1.22476,0.96231 1.74966,2.44952 1.57469,4.46163c-0.10935,1.15915 -0.28432,2.90881 -0.5249,5.24898c0.06561,0.74361 0.39367,2.34017 0.98418,4.78969c0.54677,2.23081 0.80922,3.78364 0.78735,4.65847c-0.04374,0.74361 -0.10935,1.20289 -0.19684,1.37786c-0.02187,0.04374 -0.20777,0.22964 -0.5577,0.5577c-2.05585,0.34993 -3.53212,1.13728 -4.42882,2.36204c-0.02187,0.02187 -0.45929,0.96231 -1.31224,2.82132c-0.28432,0.59051 -0.91857,1.4544 -1.90275,2.59168c-0.69986,0.85296 -1.07167,1.7606 -1.11541,2.72291c-0.04374,0.8967 0.36087,1.91369 1.21383,3.05097c0.78735,1.13728 1.46534,1.71685 2.03398,1.73872l6.03632,-3.28061c0.87483,2.01211 1.33412,4.78969 1.37786,8.33275c0.02187,0.74361 -0.06561,3.57586 -0.26245,8.49678c0,0.21871 -1.15915,1.22476 -3.47745,3.01816c-2.29643,1.77153 -3.46651,3.19313 -3.51025,4.26479c-0.06561,1.6403 0.47022,2.71197 1.6075,3.215c0.5249,0.21871 3.08377,0.80922 7.67663,1.77153c0.28432,0.10935 0.65612,0.21871 1.11541,0.32806c0.34993,0.19684 0.50303,0.63425 0.45929,1.31224c-0.04374,1.2685 -0.42648,3.67428 -1.14821,7.21734c-0.76547,3.54306 -1.15915,5.59891 -1.18102,6.16755c-0.04374,1.31224 -0.16403,3.37903 -0.36087,6.20035c-0.10935,2.62449 -0.16403,4.8225 -0.16403,6.59403c0.02187,1.50908 -0.20777,3.56493 -0.68893,6.16755c-0.26245,1.48721 -0.68893,3.68522 -1.27944,6.59403c-0.32806,1.77153 -1.85901,3.64148 -4.59285,5.60984c-2.62449,1.90275 -3.98047,3.82738 -4.06796,5.77387c0,0.48116 0.91857,1.00605 2.75571,1.57469c2.12146,0.65612 3.34622,1.17009 3.67428,1.54189l0.16403,-0.22964c0.10935,-0.02187 0.1531,0.30619 0.13122,0.98418c0,0.10935 -0.57958,0.79828 -1.73872,2.06678c-1.13728,1.24663 -1.72779,2.39485 -1.77153,3.44464c-0.02187,0.50303 -0.04374,1.31224 -0.06561,2.42765c-0.06561,1.00605 -0.16403,1.83714 -0.29525,2.49326c-0.19684,0.98418 -0.5577,2.74478 -1.0826,5.28178c-0.45929,2.1652 -0.7108,3.5868 -0.75454,4.26479c-0.02187,0.69986 0.10935,1.38879 0.39367,2.06678c0.08748,0.24058 0.29525,0.62332 0.62332,1.14821c0.96231,0.08748 2.38391,-0.19684 4.26479,-0.85296c1.55282,-0.59051 3.07284,-1.27944 4.56005,-2.06678c0.78735,0.80922 1.09354,2.02304 0.91857,3.64148c0.8967,1.66218 2.06678,4.76782 3.51025,9.31693c1.53095,4.92091 2.28549,7.77505 2.26362,8.56239c-0.04374,1.09354 -0.10935,1.33412 -0.19684,0.72173c-0.13122,0.17496 -0.27338,0.40461 -0.42648,0.68893c-0.24058,0.17496 -0.7108,0.25151 -1.41066,0.22964c-0.45929,-0.02187 -1.41066,-0.21871 -2.85413,-0.59051c-1.74966,-0.45929 -3.52119,-0.80922 -5.31459,-1.0498c-3.91486,-0.74361 -6.18942,-1.17009 -6.82367,-1.27944c-2.01211,-0.39367 -5.83949,-0.72173 -11.48213,-0.98418c-9.03261,-0.3718 -14.62059,-0.63425 -16.76392,-0.78735l-35.06972,-1.57469c-1.44347,-1.68405 -2.876,-7.15173 -4.2976,-16.40305c-0.5249,-3.38996 -0.92951,-6.37532 -1.21383,-8.95606c-0.43741,-1.90275 -0.79828,-4.61473 -1.0826,-8.13591c-0.54677,-9.05448 -0.98418,-15.11268 -1.31224,-18.17458c-0.54677,-4.57098 -0.98418,-9.31693 -1.31224,-14.23785c-0.45929,-6.51748 -0.61238,-11.67897 -0.45929,-15.48448c0.08748,-2.29643 -0.12029,-5.40207 -0.62332,-9.31693c-0.32806,-2.55888 -0.51396,-4.84437 -0.5577,-6.85647c-1.13728,-3.82738 -1.70592,-5.88323 -1.70592,-6.16755c0.02187,-0.67799 0.07655,-1.17009 0.16403,-1.47627l0.06561,-0.22964c2.8432,0.10935 6.18942,0.27338 10.03867,0.49209c2.8432,0 5.52236,-0.5249 8.03749,-1.57469c0.67799,-0.28432 1.53095,-0.73267 2.55888,-1.34505c0.85296,-0.28432 1.59656,0.06561 2.23081,1.0498l-1.24663,30.96896c0.59051,3.43371 0.98418,7.65476 1.18102,12.66315c0.10935,2.79945 0.26245,6.99863 0.45929,12.59754c0.10935,2.29643 0.65612,6.48467 1.6403,12.56474c0.85296,5.35833 1.2685,9.74341 1.24663,13.15525c4.54911,0.26245 9.6778,0.50303 15.38606,0.72173c1.96837,0.06561 3.64148,0.12029 5.01933,0.16403c0.06561,-0.08748 0.14216,-0.17496 0.22964,-0.26245c1.48721,-1.83714 2.29643,-3.43371 2.42765,-4.78969c-0.08748,-0.04374 -0.17496,-0.10935 -0.26245,-0.19684c-1.61843,-1.15915 -2.65729,-1.85901 -3.11658,-2.09959c-1.6403,-0.85296 -3.4009,-1.47627 -5.28178,-1.86995c-0.8967,-0.19684 -1.32318,-0.64519 -1.27944,-1.34505c0.04374,-1.31224 0.31713,-2.75571 0.82015,-4.3304c0.65612,-1.83714 1.13728,-3.23687 1.44347,-4.19918c1.11541,-3.67428 1.22476,-7.5126 0.32806,-11.51494c0.06561,-0.08748 0.16403,-0.1859 0.29525,-0.29525c0.21871,-0.21871 0.45929,-0.38274 0.72173,-0.49209c3.36809,-0.13122 5.74107,-0.21871 7.11892,-0.26245c0.65612,-0.08748 2.90881,-0.86389 6.75806,-2.32923c0.32806,-0.08748 1.0826,-0.26245 2.26362,-0.5249c1.07167,-0.3718 1.71685,-0.96231 1.93556,-1.77153c0.24058,-0.5249 0.43741,-0.95138 0.59051,-1.27944c0.21871,-0.56864 0.339,-1.19195 0.36087,-1.86995c0.06561,-1.53095 -1.34505,-2.83226 -4.23199,-3.90393c-2.99629,-1.09354 -6.01445,-1.31224 -9.05448,-0.65612c-0.63425,-0.41555 -1.00605,-0.74361 -1.11541,-0.98418c-0.10935,-0.24058 -0.14216,-0.77641 -0.09842,-1.6075c0.06561,-1.59656 0.63425,-2.78852 1.70592,-3.57586c0.76547,-0.54677 2.537,-1.58563 5.31459,-3.11658c-0.21871,-0.43741 -0.39367,-0.77641 -0.5249,-1.01699c-0.26245,-0.48116 -0.5577,-0.82015 -0.88576,-1.01699c-1.0498,0.85296 -1.72779,1.4216 -2.03398,1.70592c-0.69986,-0.54677 -1.14821,-0.91857 -1.34505,-1.11541c-0.10935,-0.10935 -0.29525,-0.36087 -0.5577,-0.75454l-2.46046,-0.26245c-0.24058,-0.80922 -0.26245,-1.85901 -0.06561,-3.14939l0.65612,-3.215l0.09842,-2.95255c-0.21871,0 -0.42648,-0.10935 -0.62332,-0.32806l-4.26479,0.16403c-0.19684,-2.97442 -0.22964,-6.01445 -0.09842,-9.1201c0.02187,-0.67799 0.08748,-1.06073 0.19684,-1.14821c0.06561,-0.04374 0.12029,-0.02187 0.16403,0.06561l7.67663,0.32806c0.06561,-1.53095 0.32806,-2.78852 0.78735,-3.7727c-0.56864,-0.21871 -1.39973,-0.27338 -2.49326,-0.16403l-3.87112,0.42648c-0.76547,-0.30619 -1.15915,-0.45929 -1.18102,-0.45929c-0.28432,-0.21871 -0.41555,-0.68893 -0.39367,-1.41066c0.32806,-8.31088 1.20289,-16.59989 2.62449,-24.86702l0.19684,-4.62566c0.02187,-0.69986 0.17496,-1.0826 0.45929,-1.14821c0.1531,-0.06561 0.44835,-0.05468 0.88576,0.03281c0.06561,0 0.67799,0.07655 1.83714,0.22964c1.66218,0.19684 3.88205,0.34993 6.65964,0.45929c0.08748,-0.08748 0.13122,-0.1531 0.13122,-0.19684c0.02187,-0.02187 0.05468,-0.3718 0.09842,-1.0498c0.02187,-0.87483 -0.14216,-1.4544 -0.49209,-1.73872c-0.63425,-0.41555 -2.1324,-0.74361 -4.49444,-0.98418c-0.08748,-1.20289 -0.16403,-2.03398 -0.22964,-2.49326c-0.1531,-1.00605 -0.39367,-1.83714 -0.72173,-2.49326c0.21871,-0.17496 1.37786,-0.74361 3.47745,-1.70592c2.01211,-1.02792 3.10565,-1.95743 3.28061,-2.78852c0.10935,-0.72173 0.01093,-1.78246 -0.29525,-3.18219c-0.32806,-1.55282 -0.48116,-2.54794 -0.45929,-2.98535c0.06561,-1.37786 0.42648,-2.44952 1.0826,-3.215c0.85296,-0.94044 2.54794,-1.94649 5.08495,-3.01816c1.11541,-0.45929 1.88088,0.12029 2.29643,1.73872c0.21871,0.87483 0.5249,2.14333 0.91857,3.80551c0.3718,0.80922 1.25757,1.71685 2.65729,2.72291c1.13728,0.78735 1.7606,1.90275 1.86995,3.34622c0.06561,0.87483 0.29525,1.84808 0.68893,2.91974c0.3718,1.02792 0.98418,2.34017 1.83714,3.93673l2.62449,-0.06561c0.65612,-0.61238 1.33412,-1.59656 2.03398,-2.95255c0.76547,-1.48721 1.17009,-2.76665 1.21383,-3.83831M367.13528,272.11277c0.30619,3.01816 0.44835,5.25991 0.42648,6.72525l2.26362,-0.03281c-0.13122,-1.6403 -0.14216,-3.99141 -0.03281,-7.05331c-0.72173,0.04374 -1.6075,0.16403 -2.65729,0.36087M358.67131,286.48184c-0.04374,-1.11541 -0.32806,-2.03398 -0.85296,-2.75571l-2.65729,0.03281c0.28432,2.29643 0.32806,4.27573 0.13122,5.9379c0.32806,0 1.41066,-0.06561 3.2478,-0.19684c0.13122,-1.37786 0.17496,-2.38391 0.13122,-3.01816M361.62386,319.15671c-0.28432,-0.13122 -1.48721,0.04374 -3.60867,0.5249c0.06561,0.24058 0.27338,1.2357 0.62332,2.98535c0.24058,1.20289 0.5577,2.11052 0.95138,2.72291l2.46046,-0.29525c-0.02187,-0.13122 -0.12029,-1.07167 -0.29525,-2.82132c-0.1531,-1.20289 -0.19684,-2.24175 -0.13122,-3.11658M366.38074,307.67458l-3.7399,-0.13122c0.96231,2.64636 1.4544,5.07401 1.47627,7.28295l0.19684,0.06561h1.80434c0.17496,-1.57469 0.30619,-3.47745 0.39367,-5.70826c0.02187,-0.69986 -0.02187,-1.20289 -0.13122,-1.50908M384.39129,328.83451l-3.54306,-0.13122c0.13122,0.67799 0.24058,1.66218 0.32806,2.95255c0.08748,1.66218 0.1531,2.73384 0.19684,3.215c1.81527,-0.10935 2.76665,-0.51396 2.85413,-1.21383c-0.28432,-0.78735 -0.41555,-1.35598 -0.39367,-1.70592c0,-0.32806 0.09842,-0.85296 0.29525,-1.57469c0.1531,-0.72173 0.24058,-1.2357 0.26245,-1.54189M742.92913,376.33774c0.21871,-1.37786 0.75454,-2.29643 1.6075,-2.75571c0.96231,-0.5249 1.52001,-1.02792 1.67311,-1.50908c1.02792,-3.19313 2.09959,-3.9258 3.215,-2.19801c0.61238,0.94044 1.34505,2.65729 2.19801,5.15056c0.39367,1.15915 0.99512,2.88694 1.80434,5.18336c0.50303,1.96837 0.39367,3.68522 -0.32806,5.15056l0.49209,0.82015c2.60262,0.04374 4.68034,0.51396 6.23316,1.41066c0.21871,0.13122 1.31224,1.02792 3.28061,2.6901c0.80922,0.67799 2.19801,1.56376 4.16637,2.65729c0.61238,0.32806 0.91857,1.13728 0.91857,2.42765c0,1.22476 -0.65612,4.8553 -1.96837,10.89162c-0.65612,3.01816 -1.31224,5.94884 -1.96837,8.79203c-0.1531,0.83109 -0.26245,2.39485 -0.32806,4.69127c-0.3718,2.14333 -1.52001,3.80551 -3.44464,4.98653c-0.3718,0.21871 -3.55399,1.34505 -9.54657,3.37903c-5.86136,1.99024 -9.07635,3.05097 -9.64499,3.18219h-11.15407c-2.55888,-4.41789 -4.21011,-8.87952 -4.95372,-13.38489c-0.41555,-2.60262 -0.62332,-6.85647 -0.62332,-12.76157c0,-2.97442 0.21871,-6.00352 0.65612,-9.08729c0.74361,-5.27085 1.94649,-7.90627 3.60867,-7.90627c0.26245,0 0.61238,0.30619 1.0498,0.91857c0.45929,0.59051 0.7108,0.88576 0.75454,0.88576c0.34993,0 1.74966,-0.59051 4.19918,-1.77153c2.88694,-1.39973 4.38508,-2.12146 4.49444,-2.1652c0.63425,-0.26245 1.12634,-1.0498 1.47627,-2.36204c0.24058,-1.37786 0.40461,-2.17614 0.49209,-2.39485c0.56864,-1.37786 0.8967,-2.18707 0.98418,-2.42765c0.3718,-1.02792 0.59051,-1.85901 0.65612,-2.49326M653.04042,302.29438c0.5249,1.59656 0.80922,2.41672 0.85296,2.46046c0.54677,-0.39367 2.23081,-1.54189 5.05214,-3.44464c1.85901,-1.29037 3.25874,-2.3511 4.19918,-3.18219c2.51514,-2.38391 3.46651,-5.10682 2.85413,-8.16872c2.14333,-0.74361 3.2478,-0.02187 3.31342,2.1652c0.04374,1.18102 -0.13122,2.96348 -0.5249,5.34739c-0.30619,2.27456 -0.5577,5.70826 -0.75454,10.30111c-0.08748,2.27456 -0.16403,5.7192 -0.22964,10.33392c-0.02187,0.50303 -0.06561,1.32318 -0.13122,2.46046c-0.06561,1.07167 -0.09842,1.91369 -0.09842,2.52607c0.02187,1.18102 0.49209,2.00117 1.41066,2.46046c1.13728,0.63425 1.82621,1.17009 2.06678,1.6075c1.22476,2.38391 1.67311,5.73013 1.34505,10.03867c-0.48116,5.9051 -0.65612,9.45909 -0.5249,10.66198c0.32806,3.45557 1.14821,10.22457 2.46046,20.30697l-0.13122,2.95255l-0.32806,0.42648c-0.24058,0.24058 -0.68893,0.34993 -1.34505,0.32806c0,0.5249 0.01093,1.0498 0.03281,1.57469c0.34993,11.26343 0.73267,18.90725 1.14821,22.93146l-0.45929,11.3181l-0.59051,0.39367c-0.39367,0.24058 -0.91857,0.34993 -1.57469,0.32806c-0.39367,-0.02187 -1.33412,-0.24058 -2.82132,-0.65612c-1.77153,-0.56864 -3.75083,-1.01699 -5.9379,-1.34505l-16.73111,-0.98418c-4.46163,-0.50303 -7.23921,-0.77641 -8.33275,-0.82015c-0.61238,-0.02187 -0.87483,0 -0.78735,0.06561c0.13122,0.10935 0.10935,0.1859 -0.06561,0.22964l-23.25952,-0.78735c-2.34017,0.24058 -8.57333,1.34505 -18.69948,3.31342c-9.4919,1.85901 -14.60965,2.76665 -15.35325,2.72291c-0.69986,0.26245 -1.36692,0.50303 -2.00117,0.72173c-3.56493,0.21871 -6.36438,-0.339 -8.39836,-1.67311c-1.55282,-1.00605 -2.58075,-2.41672 -3.08377,-4.23199l-0.36087,-0.03281c-0.76547,1.44347 -1.30131,2.59168 -1.6075,3.44464c-0.26245,0.63425 -0.3718,1.56376 -0.32806,2.78852c0,0.69986 0.01093,1.7934 0.03281,3.28061c-0.08748,2.77758 -1.13728,4.75688 -3.14939,5.9379c-11.76645,-0.43741 -20.49288,-0.14216 -26.17927,0.88576c-0.83109,0.13122 -1.58563,0.29525 -2.26362,0.49209c0.28432,0.78735 0.42648,1.19195 0.42648,1.21383c-0.02187,0.67799 -0.05468,1.00605 -0.09842,0.98418c-0.17496,-0.13122 -0.3718,-0.17496 -0.59051,-0.13122c-0.61238,-0.45929 -1.17009,-0.95138 -1.67311,-1.47627h-0.03281c-0.91857,0.34993 -1.43253,0.5249 -1.54189,0.5249c-0.67799,-0.02187 -1.07167,-0.09842 -1.18102,-0.22964l0.06561,-0.16403c-0.10935,0.10935 -0.19684,0.1531 -0.26245,0.13122c-0.1531,-0.06561 -0.21871,-0.43741 -0.19684,-1.11541c0.02187,-0.59051 0.49209,-1.12634 1.41066,-1.6075c-0.06561,-0.10935 -0.12029,-0.20777 -0.16403,-0.29525c-0.72173,-1.48721 -1.0498,-2.98535 -0.98418,-4.49444c0.06561,-1.68405 0.7108,-3.46651 1.93556,-5.34739c1.22476,-1.85901 1.85901,-3.37903 1.90275,-4.56005c0.04374,-1.20289 -0.27338,-1.94649 -0.95138,-2.23081c-0.67799,-0.28432 -3.05097,-0.72173 -7.11892,-1.31224l-0.22964,-0.16403c-0.17496,-0.13122 -0.25151,-0.5249 -0.22964,-1.18102c0.02187,-0.5249 0.40461,-1.24663 1.14821,-2.1652c0.78735,-0.98418 1.25757,-2.19801 1.41066,-3.64148c0.26245,-2.1652 0.72173,-4.1117 1.37786,-5.83949c0.08748,-2.62449 0.1531,-4.59285 0.19684,-5.9051c0.08748,-2.29643 0.22964,-4.26479 0.42648,-5.9051c0.04374,-0.98418 0.1531,-2.03398 0.32806,-3.14939c-7.9172,6.40812 -12.47725,9.61219 -13.68014,9.61219c-1.35598,0 -2.36204,-0.10935 -3.01816,-0.32806l-0.59051,-0.32806c0,-0.13122 -0.10935,-0.339 -0.32806,-0.62332c-0.21871,-0.26245 -0.32806,-1.03886 -0.32806,-2.32923c0,-1.99024 1.96837,-5.60984 5.9051,-10.85882c4.04608,-5.40207 8.50771,-10.25737 13.38489,-14.56591c0.19684,-0.17496 0.39367,-0.339 0.59051,-0.49209l0.13122,-3.60867c0.06561,0.02187 0.66706,0.14216 1.80434,0.36087c0.65612,0.10935 1.24663,0.1859 1.77153,0.22964c3.82738,-2.86506 7.19547,-4.58192 10.10428,-5.15056h0.03281c-0.24058,-1.00605 -0.34993,-1.6075 -0.32806,-1.80434c0.17496,-1.33412 1.36692,-2.58075 3.57586,-3.7399c2.14333,-1.13728 3.22593,-2.08866 3.2478,-2.85413c0.02187,-0.48116 -0.25151,-1.22476 -0.82015,-2.23081c-0.56864,-1.00605 -0.83109,-1.7606 -0.78735,-2.26362c0.04374,-0.98418 0.05468,-1.58563 0.03281,-1.80434c0,-0.80922 -0.12029,-1.52001 -0.36087,-2.1324c-0.21871,-0.63425 -1.06073,-1.7606 -2.52607,-3.37903c-1.20289,-1.35598 -1.80434,-2.70103 -1.80434,-4.03515c-3.93673,-0.1531 -6.6159,-0.20777 -8.03749,-0.16403l-0.13122,-0.39367c-0.10935,-0.28432 -0.1531,-0.75454 -0.13122,-1.41066c0.26245,-3.10565 0.50303,-6.18942 0.72173,-9.25132c0.39367,-5.99258 0.5249,-10.62918 0.39367,-13.90979l0.29525,-0.26245c0.26245,-0.17496 0.61238,-0.28432 1.0498,-0.32806c0.50303,0.48116 1.33412,1.72779 2.49326,3.7399c1.22476,2.09959 2.04491,3.37903 2.46046,3.83831c3.76177,-0.13122 6.52841,-0.5577 8.29994,-1.27944c1.18102,-0.50303 2.18707,-1.29037 3.01816,-2.36204c-0.3718,-0.39367 -1.00605,-1.02792 -1.90275,-1.90275l-2.29643,-0.26245c-0.45929,-0.02187 -0.75454,-0.04374 -0.88576,-0.06561c-0.17496,-0.04374 -0.25151,-0.39367 -0.22964,-1.0498c0.02187,-0.59051 0.25151,-1.4544 0.68893,-2.59168c0.50303,-1.24663 0.78735,-2.07772 0.85296,-2.49326c0.08748,-0.67799 0.61238,-1.49815 1.57469,-2.46046c0.54677,-0.54677 1.39973,-1.32318 2.55888,-2.32923c3.67428,-0.24058 6.20035,-0.77641 7.57821,-1.6075c1.29037,-0.80922 1.71685,-1.95743 1.27944,-3.44464c-0.24058,-0.76547 -0.36087,-1.90275 -0.36087,-3.41183l0.13122,-3.28061c0.10935,-2.77758 0.30619,-4.80062 0.59051,-6.06913c0.69986,0.04374 1.35598,0.39367 1.96837,1.0498c0.61238,0.65612 0.96231,0.99512 1.0498,1.01699c2.79945,0.10935 5.79575,-2.09959 8.98887,-6.62683c0.02187,-0.67799 -0.5577,-1.80434 -1.73872,-3.37903c-1.33412,-1.7934 -2.6901,-2.89787 -4.06796,-3.31342c-3.08377,-1.00605 -4.68034,-1.88088 -4.78969,-2.62449c-0.08748,-0.56864 -0.16403,-0.90764 -0.22964,-1.01699c-0.28432,-0.48116 -0.94044,-1.00605 -1.96837,-1.57469c1.02792,-1.72779 1.57469,-3.56493 1.6403,-5.51142h0.36087c0,-0.19684 0,-0.30619 0,-0.32806c0.02187,-0.69986 0.19684,-1.11541 0.5249,-1.24663c0.21871,-0.10935 0.5577,-0.16403 1.01699,-0.16403c2.64636,0.17496 4.59285,-0.02187 5.83949,-0.59051c0.69986,-0.30619 1.61843,-0.76547 2.75571,-1.37786c0.26245,0.50303 0.5577,2.25269 0.88576,5.24898c0.28432,2.537 1.02792,4.39602 2.23081,5.57704l1.83714,-0.09842c1.57469,-0.74361 2.30736,-2.01211 2.19801,-3.80551c-0.41555,-2.05585 -0.60144,-3.55399 -0.5577,-4.49444c0.02187,-0.48116 0.61238,-1.24663 1.77153,-2.29643c1.31224,-1.20289 2.52607,-1.7934 3.64148,-1.77153c0,0.06561 0.05468,0.16403 0.16403,0.29525c0.08748,0.1531 0.12029,0.54677 0.09842,1.18102c-0.02187,0.59051 -0.22964,1.44347 -0.62332,2.55888c-0.48116,1.29037 -0.77641,2.23081 -0.88576,2.82132c-0.10935,0.5249 -0.03281,1.27944 0.22964,2.26362c0.28432,1.13728 0.41555,1.94649 0.39367,2.42765c-0.04374,1.09354 -0.10935,1.34505 -0.19684,0.75454c-1.4216,0.34993 -2.38391,0.68893 -2.88694,1.01699c-0.5249,0.32806 -0.79828,0.77641 -0.82015,1.34505c-0.02187,0.3718 0.16403,0.88576 0.5577,1.54189c0.34993,0.63425 0.77641,1.22476 1.27944,1.77153l2.1324,-0.09842c0.30619,-0.54677 0.53583,-1.35598 0.68893,-2.42765c0.21871,-1.33412 0.36087,-2.14333 0.42648,-2.42765c0.50303,-1.61843 1.96837,-2.11052 4.39602,-1.47627l1.96837,-0.09842c0.26245,-0.76547 0.63425,-2.06678 1.11541,-3.90393c0.5249,-1.96837 0.86389,-3.26968 1.01699,-3.90393l0.98418,-0.13122c0.26245,0.45929 0.43741,1.0498 0.5249,1.77153c0.02187,0.43741 0.01093,1.17009 -0.03281,2.19801c-0.02187,0.91857 -0.21871,2.49326 -0.59051,4.72408c-0.43741,2.44952 -0.87483,4.46163 -1.31224,6.03632c-0.24058,0.08748 -0.45929,-0.01093 -0.65612,-0.29525c-0.26245,-0.3718 -0.68893,-0.56864 -1.27944,-0.59051c-2.71197,-0.10935 -4.59285,1.39973 -5.64265,4.52724c-0.50303,1.59656 -0.77641,3.29154 -0.82015,5.08495l0.26245,1.47627l0.13122,0.03281c0.10935,0.06561 0.22964,0.17496 0.36087,0.32806c0.91857,-0.04374 1.90275,-0.19684 2.95255,-0.45929c0.94044,-0.24058 1.66218,-0.34993 2.1652,-0.32806c0.69986,0.02187 1.55282,0.40461 2.55888,1.14821c0.80922,0.56864 1.30131,0.99512 1.47627,1.27944c-0.08748,0.24058 -1.35598,1.6075 -3.80551,4.10076c-2.27456,2.38391 -3.43371,4.03515 -3.47745,4.95372c-0.1531,4.02422 0.95138,6.57215 3.31342,7.64382c0.61238,0.24058 1.43253,0.5577 2.46046,0.95138c0.72173,0.41555 1.07167,1.09354 1.0498,2.03398c-0.04374,0.76547 -0.3718,1.56376 -0.98418,2.39485c-1.00605,1.09354 -1.84808,2.05585 -2.52607,2.88694c-0.45929,0.54677 -1.80434,0.85296 -4.03515,0.91857c-3.7399,0.06561 -6.08006,0.16403 -7.0205,0.29525c-0.87483,0.34993 -1.6403,1.13728 -2.29643,2.36204c-0.54677,0.98418 -0.83109,1.7606 -0.85296,2.32923c-0.04374,1.0498 1.00605,1.91369 3.14939,2.59168c2.62449,0.80922 4.1445,1.44347 4.56005,1.90275c3.98047,0.48116 8.15778,1.52001 12.53193,3.11658c3.45557,1.24663 6.81273,1.82621 10.07147,1.73872l0.26245,1.54189c-1.11541,3.30248 -1.69498,5.50049 -1.73872,6.59403c0,0.17496 0.20777,0.75454 0.62332,1.73872c0.5249,1.2685 1.0826,2.21988 1.67311,2.85413c0.69986,0.13122 1.52001,0.31713 2.46046,0.5577c0.87483,0.17496 1.95743,0.28432 3.2478,0.32806c0.8967,1.11541 1.2357,1.91369 1.01699,2.39485c-0.13122,0.28432 -0.36087,0.69986 -0.68893,1.24663c-0.06561,1.77153 1.0826,3.41183 3.44464,4.92091c2.14333,1.37786 4.35228,2.11052 6.62683,2.19801c0.74361,0.04374 1.33412,0.5249 1.77153,1.44347c0.21871,0.48116 0.40461,1.07167 0.5577,1.77153c0.8967,-0.10935 1.78246,-1.09354 2.65729,-2.95255c0.76547,-1.61843 1.17009,-2.93068 1.21383,-3.93673c0,-0.13122 -0.26245,-2.39485 -0.78735,-6.79086c-0.19684,0.5249 -0.34993,0.90764 -0.45929,1.14821l-0.62332,-0.03281c-0.04374,0.1531 -0.09842,0.24058 -0.16403,0.26245c-0.10935,0.02187 -0.1531,-0.30619 -0.13122,-0.98418c0.02187,-0.48116 0.22964,-1.74966 0.62332,-3.80551c0.06561,-0.43741 0.14216,-0.84202 0.22964,-1.21383c-0.24058,-2.44952 -0.339,-4.1117 -0.29525,-4.98653c0.02187,-0.48116 0.08748,-0.99512 0.19684,-1.54189c-0.04374,-0.19684 -0.06561,-0.38274 -0.06561,-0.5577c-0.17496,-1.53095 0.44835,-2.61355 1.86995,-3.2478c0.56864,-0.24058 2.36204,-0.24058 5.3802,0c3.0619,-0.17496 5.36927,-1.36692 6.92209,-3.57586c0.17496,-0.26245 0.79828,-1.48721 1.86995,-3.67428c1.29037,-2.05585 2.61355,-3.05097 3.96954,-2.98535c1.39973,0.04374 2.26362,0.57958 2.59168,1.6075M583.16344,250.85441c0.06561,-1.6403 0.04374,-2.46046 -0.06561,-2.46046l-0.09842,2.46046h0.16403M564.20151,250.59197c0.08748,0.06561 0.16403,0.14216 0.22964,0.22964c0,-0.17496 -0.01093,-0.36087 -0.03281,-0.5577c0,-0.04374 0,-0.08748 0,-0.13122c-0.06561,0.1531 -0.13122,0.30619 -0.19684,0.45929M570.30344,352.68454c-0.02187,0.26245 -0.5249,5.41301 -1.50908,15.45167c-0.96231,9.47003 -1.50908,15.56102 -1.6403,18.273c1.22476,0.04374 3.05097,0.36087 5.47862,0.95138c-0.74361,-1.99024 -1.10447,-3.52119 -1.0826,-4.59285c0.04374,-1.66218 0.02187,-4.17731 -0.06561,-7.5454c-0.06561,-3.25874 -0.08748,-5.08495 -0.06561,-5.47862c0.02187,-0.54677 -0.07655,-2.85413 -0.29525,-6.92209c-0.21871,-4.06796 -0.31713,-6.37532 -0.29525,-6.92209c0.02187,-0.78735 0,-1.39973 -0.06561,-1.83714c-0.06561,-0.39367 -0.21871,-0.85296 -0.45929,-1.37786M532.01873,369.71091c0.06561,0.06561 0.1531,0.14216 0.26245,0.22964c0.59051,0.48116 1.09354,0.86389 1.50908,1.14821c0.34993,-0.04374 0.61238,-0.26245 0.78735,-0.65612c0.1531,-0.26245 0.22964,-0.5249 0.22964,-0.78735c-0.08748,-0.08748 -0.69986,-0.22964 -1.83714,-0.42648c-0.10935,-0.02187 -0.21871,-0.04374 -0.32806,-0.06561c-0.21871,0.17496 -0.42648,0.36087 -0.62332,0.5577M805.88403,320.92824c0.04374,0 0.09842,0.01093 0.16403,0.03281c0.06561,-0.06561 0.13122,-0.10935 0.19684,-0.13122c0.04374,0.06561 0.09842,0.14216 0.16403,0.22964c0.41555,0.08748 1.10447,0.31713 2.06678,0.68893c4.17731,1.59656 8.48585,2.48233 12.9256,2.65729c0.54677,0.02187 1.72779,-0.16403 3.54306,-0.5577c2.01211,-0.43741 3.51025,-0.68893 4.49444,-0.75454c0.21871,0.06561 0.63425,0.14216 1.24663,0.22964c0.48116,0.19684 0.7108,0.63425 0.68893,1.31224c-0.04374,1.02792 -0.19684,2.14333 -0.45929,3.34622c-0.28432,1.50908 -0.66706,2.6901 -1.14821,3.54306l-2.62449,0.22964c-0.96231,0.65612 -2.11052,2.27456 -3.44464,4.8553c-1.22476,2.29643 -1.83714,3.65241 -1.83714,4.06796c-0.04374,0.59051 0.16403,1.48721 0.62332,2.6901c0.50303,1.29037 0.76547,2.18707 0.78735,2.6901c0.59051,0 2.03398,-0.64519 4.3304,-1.93556c2.44952,-1.37786 3.96954,-2.14333 4.56005,-2.29643c-0.02187,2.25269 0.06561,5.9051 0.26245,10.95724c0.21871,4.81156 0.31713,7.39231 0.29525,7.74224c-0.04374,1.09354 -0.12029,1.74966 -0.22964,1.96837l-0.36087,0.26245c-0.21871,0.13122 -0.65612,0.1859 -1.31224,0.16403c-0.69986,-0.02187 -1.22476,-0.19684 -1.57469,-0.5249c-0.28432,-0.39367 -0.50303,-0.68893 -0.65612,-0.88576c-0.56864,0.1531 -1.21383,0.78735 -1.93556,1.90275c-0.87483,1.37786 -1.38879,2.12146 -1.54189,2.23081c-1.0498,-0.78735 -1.53095,-1.71685 -1.44347,-2.78852c0.1531,-2.25269 0.22964,-3.41183 0.22964,-3.47745c-0.10935,-0.02187 -0.31713,-0.19684 -0.62332,-0.5249l-2.1652,0.06561c-0.04374,1.09354 0,2.74478 0.13122,4.95372c0.13122,2.18707 0.19684,3.49932 0.19684,3.93673c-0.02187,0.26245 -0.82015,0.85296 -2.39485,1.77153c-1.57469,0.91857 -2.37297,1.71685 -2.39485,2.39485c-0.04374,1.2685 0.17496,2.30736 0.65612,3.11658c0.24058,0.3718 0.80922,0.98418 1.70592,1.83714c1.6403,1.57469 2.39485,3.79457 2.26362,6.65964l2.32923,-0.75454c0.02187,-0.48116 -0.05468,-1.30131 -0.22964,-2.46046c-0.17496,-1.13728 -0.25151,-1.95743 -0.22964,-2.46046c0.08748,-0.08748 0.36087,-0.01093 0.82015,0.22964c0.61238,0.32806 1.21383,0.50303 1.80434,0.5249c1.39973,0.04374 2.537,-0.34993 3.41183,-1.18102c0.94044,-0.85296 1.11541,-1.78246 0.5249,-2.78852c0.06561,0.02187 0.25151,-0.04374 0.5577,-0.19684c0.30619,-0.1531 0.77641,-0.21871 1.41066,-0.19684c0.76547,0.02187 1.38879,1.21383 1.86995,3.57586c0.26245,1.39973 0.41555,2.47139 0.45929,3.215c0.08748,0.87483 0.12029,1.81527 0.09842,2.82132c0.10935,0.72173 0.56864,2.65729 1.37786,5.80668c0.56864,2.25269 0.83109,4.1117 0.78735,5.57704c-0.04374,1.07167 -0.64519,1.89182 -1.80434,2.46046c-1.55282,0.74361 -2.66823,1.71685 -3.34622,2.91974c-0.1531,0.26245 -0.47022,1.19195 -0.95138,2.78852c-0.59051,1.48721 -1.2685,2.21988 -2.03398,2.19801c-0.72173,-0.02187 -1.61843,-0.8967 -2.6901,-2.62449c-0.94044,-1.77153 -1.4544,-2.70103 -1.54189,-2.78852c-1.13728,-0.67799 -2.01211,-1.22476 -2.62449,-1.6403c-0.17496,-0.10935 -0.339,-0.21871 -0.49209,-0.32806h-0.26245c-1.90275,-0.80922 -3.26968,-1.38879 -4.10076,-1.73872c-1.35598,-0.56864 -3.22593,-1.15915 -5.60984,-1.77153c-1.44347,-0.56864 -2.1324,-1.59656 -2.06678,-3.08377c0.34993,-1.72779 0.47022,-2.96348 0.36087,-3.70709c-0.1531,-0.98418 -0.95138,-1.94649 -2.39485,-2.88694c-1.35598,-0.85296 -2.00117,-2.07772 -1.93556,-3.67428c0.06561,-1.70592 0.32806,-4.21011 0.78735,-7.5126c0.45929,-3.32435 0.69986,-5.13962 0.72173,-5.44581c0.02187,-0.45929 -0.39367,-3.53212 -1.24663,-9.21851c-0.85296,-5.70826 -1.22476,-10.0496 -1.11541,-13.02402c0.06561,-1.90275 1.19195,-3.01816 3.37903,-3.34622c1.15915,-0.17496 1.92463,-0.38274 2.29643,-0.62332c0.69986,-0.39367 1.07167,-1.11541 1.11541,-2.1652c0.02187,-0.65612 -1.14821,-2.93068 -3.51025,-6.82367c-0.43741,0.39367 -1.2685,0.96231 -2.49326,1.70592c-0.72173,-0.5249 -1.15915,-1.22476 -1.31224,-2.09959c-0.04374,-0.28432 -0.04374,-1.02792 0,-2.23081c0.06561,-1.96837 0.28432,-3.78364 0.65612,-5.44581c0.26245,-1.31224 0.59051,-2.32923 0.98418,-3.05097c0.04374,-0.80922 0.32806,-1.21383 0.85296,-1.21383M1235.08622,426.30143c-2.62449,-1.09354 -4.28666,-1.96837 -4.98653,-2.62449c0.32806,-1.57469 0.76547,-2.63542 1.31224,-3.18219c0.54677,-0.56864 1.37786,-0.80922 2.49326,-0.72173c1.50908,0.1531 5.48955,1.2357 11.94142,3.2478c5.31459,1.0498 11.51494,1.93556 18.60106,2.65729c2.3183,0.39367 3.96954,0.94044 4.95372,1.6403c1.13728,0.83109 1.70592,2.02304 1.70592,3.57586c0,1.20289 -0.8967,2.63542 -2.6901,4.2976c-2.36204,2.18707 -4.08983,4.36321 -5.18336,6.52841c-0.24058,0.69986 -0.48116,1.31224 -0.72173,1.83714c-0.45929,1.02792 -1.11541,1.90275 -1.96837,2.62449c-2.64636,2.18707 -7.32669,3.215 -14.04101,3.08377c-0.13122,-0.13122 -0.54677,-0.25151 -1.24663,-0.36087c-0.72173,-0.13122 -1.30131,-0.38274 -1.73872,-0.75454c-1.50908,-1.2685 -2.26362,-4.39602 -2.26362,-9.38254c-2.18707,0 -3.68522,-0.02187 -4.49444,-0.06561c-1.15915,-0.08748 -2.5042,-0.28432 -4.03515,-0.59051c0,-0.13122 -0.10935,-0.339 -0.32806,-0.62332c-0.21871,-0.26245 -0.32806,-1.03886 -0.32806,-2.32923c0,-1.22476 0.3718,-2.38391 1.11541,-3.47745c1.33412,-1.96837 3.5868,-2.88694 6.75806,-2.75571c-0.65612,-0.65612 -2.27456,-1.53095 -4.8553,-2.62449M1166.52147,417.34536c0.3718,0 1.24663,0.54677 2.62449,1.6403c1.61843,1.29037 2.43859,2.49326 2.46046,3.60867c0,0.74361 0.13122,1.72779 0.39367,2.95255c0.34993,1.48721 0.54677,2.47139 0.59051,2.95255c0.13122,0.87483 0.49209,2.67917 1.0826,5.41301c0.5249,2.51514 0.87483,4.4835 1.0498,5.9051c0.34993,2.82132 0.62332,6.59403 0.82015,11.3181c0,0.13122 0.01093,0.26245 0.03281,0.39367c0.50303,-0.45929 0.76547,-0.69986 0.78735,-0.72173c0.1531,-0.1531 0.3718,-0.56864 0.65612,-1.24663c0.24058,-0.63425 0.51396,-1.03886 0.82015,-1.21383c1.02792,-0.65612 1.89182,-1.48721 2.59168,-2.49326c0.56864,-0.83109 0.85296,-1.47627 0.85296,-1.93556c0,-0.45929 -0.51396,-3.30248 -1.54189,-8.52959c-1.0498,-5.24898 -1.57469,-10.02773 -1.57469,-14.33626c0,-1.15915 0.05468,-2.17614 0.16403,-3.05097c1.88088,-0.19684 3.10565,1.15915 3.67428,4.06796c0.32806,1.6403 0.68893,4.22105 1.0826,7.74224c0.19684,0.76547 0.75454,1.83714 1.67311,3.215c0.98418,1.50908 1.62937,2.67917 1.93556,3.51025c0.61238,1.66218 1.15915,3.9586 1.6403,6.88928c0.59051,3.215 1.43253,8.49678 2.52607,15.84535c0.21871,1.48721 0.42648,2.85413 0.62332,4.10076c2.18707,-1.20289 4.8553,-2.65729 8.00469,-4.36321c0.63425,-0.3718 2.00117,-1.2357 4.10076,-2.59168c2.07772,-1.29037 3.7727,-2.23081 5.08495,-2.82132c1.15915,-0.5249 2.77758,-0.59051 4.8553,-0.19684c2.23081,0.43741 3.34622,1.2685 3.34622,2.49326c0,0.24058 -0.30619,0.64519 -0.91857,1.21383c-0.85296,0.78735 -1.53095,1.4216 -2.03398,1.90275c0.5249,0.1531 1.10447,0.50303 1.73872,1.0498c0.69986,0.63425 1.10447,1.21383 1.21383,1.73872c0.96231,-0.32806 2.1652,-0.43741 3.60867,-0.32806c0,0.06561 0.08748,0.20777 0.26245,0.42648c0.1531,0.24058 0.22964,0.67799 0.22964,1.31224c0,0.74361 -0.91857,1.91369 -2.75571,3.51025c-2.03398,1.6403 -3.2478,2.67917 -3.64148,3.11658l-0.32806,0.49209c1.4216,-0.41555 2.6901,-1.15915 3.80551,-2.23081c0.94044,-0.94044 2.1324,-1.50908 3.57586,-1.70592c1.31224,1.13728 1.96837,1.82621 1.96837,2.06678c0,0.78735 -0.3718,1.62937 -1.11541,2.52607c-0.8967,0.94044 -1.50908,1.65124 -1.83714,2.1324v0.32806c0.08748,0 1.7934,-0.74361 5.11775,-2.23081c3.25874,-1.46534 5.30365,-2.19801 6.13474,-2.19801c0.72173,0 1.14821,0.04374 1.27944,0.13122c0.08748,0.08748 0.17496,0.26245 0.26245,0.5249c-0.45929,0.56864 -2.83226,2.17614 -7.11892,4.8225c-4.54911,2.79945 -7.31576,4.19918 -8.29994,4.19918c-1.2685,0 -2.1324,-0.5249 -2.59168,-1.57469c-0.26245,-1.15915 -0.49209,-1.83714 -0.68893,-2.03398c-1.20289,0.67799 -1.95743,1.09354 -2.26362,1.24663c-0.39367,0.21871 -1.49815,0.40461 -3.31342,0.5577c-1.02792,-0.85296 -1.68405,-1.61843 -1.96837,-2.29643c-0.13122,0 -0.69986,0.17496 -1.70592,0.5249c-0.98418,0.34993 -1.72779,0.50303 -2.23081,0.45929c-0.34993,0 -0.65612,-0.21871 -0.91857,-0.65612c-0.26245,-0.43741 -0.68893,-0.65612 -1.27944,-0.65612c-0.54677,0 -0.94044,0.21871 -1.18102,0.65612c-0.26245,0.43741 -0.66706,0.65612 -1.21383,0.65612c-1.11541,0 -1.78246,-0.39367 -2.00117,-1.18102c-0.02187,-0.87483 -0.06561,-1.41066 -0.13122,-1.6075c-0.45929,0.34993 -0.85296,0.63425 -1.18102,0.85296c-0.61238,0.41555 -1.25757,0.62332 -1.93556,0.62332c-0.39367,0 -0.66706,-0.10935 -0.82015,-0.32806c-0.02187,0.94044 -0.06561,1.6075 -0.13122,2.00117c-0.32806,1.83714 -1.10447,2.75571 -2.32923,2.75571c-1.02792,0 -2.04491,-1.10447 -3.05097,-3.31342c-0.06561,-0.1531 -0.13122,-0.30619 -0.19684,-0.45929h-0.03281c-1.81527,-0.45929 -2.59168,-1.13728 -2.32923,-2.03398c0.67799,-1.00605 1.01699,-1.74966 1.01699,-2.23081c0,-0.34993 -0.08748,-0.62332 -0.26245,-0.82015c-0.43741,1.96837 -1.22476,2.95255 -2.36204,2.95255c-0.96231,0 -1.74966,-1.46534 -2.36204,-4.39602c0,-0.06561 -0.25151,-1.82621 -0.75454,-5.28178c-0.87483,-0.02187 -1.6075,-0.17496 -2.19801,-0.45929c0.10935,0.83109 0.29525,2.04491 0.5577,3.64148c0.43741,2.64636 0.65612,4.24292 0.65612,4.78969c0,0.65612 -0.31713,1.2357 -0.95138,1.73872c-0.5249,0.41555 -1.02792,0.62332 -1.50908,0.62332c-0.56864,0 -1.00605,-0.24058 -1.31224,-0.72173c-0.26245,-0.54677 -0.48116,-0.90764 -0.65612,-1.0826c-0.28432,0.48116 -0.66706,0.97325 -1.14821,1.47627c-0.61238,0.65612 -1.10447,0.98418 -1.47627,0.98418c-2.25269,0 -5.1943,-9.1201 -8.82484,-27.36029c-3.19313,-18.3058 -4.78969,-27.50244 -4.78969,-27.58993c0,-1.77153 0.69986,-2.62449 2.09959,-2.55888c1.46534,0.06561 2.89787,1.30131 4.2976,3.70709c0.10935,-0.10935 0.16403,-0.82015 0.16403,-2.1324l0.42648,-0.39367c0.26245,-0.28432 0.72173,-0.42648 1.37786,-0.42648M1171.44239,465.4063c0.39367,-2.01211 0.22964,-3.48838 -0.49209,-4.42882v0.16403c0.32806,0.98418 0.49209,2.40578 0.49209,4.26479M1206.41369,465.34068c-0.45929,0.3718 -0.86389,0.83109 -1.21383,1.37786c-0.3718,0.63425 -0.63425,1.07167 -0.78735,1.31224c0.13122,-0.02187 0.50303,-0.47022 1.11541,-1.34505c0.43741,-0.61238 0.73267,-1.06073 0.88576,-1.34505M1076.27189,335.2317c3.7399,-1.15915 6.11287,-1.96837 7.11892,-2.42765c1.57469,-0.74361 3.13845,-0.5249 4.69127,0.65612c0.83109,0.67799 2.00117,1.71685 3.51025,3.11658c2.55888,0.61238 5.1943,1.53095 7.90627,2.75571c4.19918,1.90275 6.51748,2.94161 6.95489,3.11658c2.29643,0.85296 6.24409,1.73872 11.843,2.65729c3.08377,0.5249 7.44698,1.22476 13.08963,2.09959l0.22964,0.19684c0.1531,0.10935 0.21871,0.49209 0.19684,1.14821c-0.04374,1.07167 -0.78735,2.81039 -2.23081,5.21617c-1.6403,2.66823 -2.63542,4.63659 -2.98535,5.9051c-0.63425,2.537 -1.69498,5.01933 -3.18219,7.44698c-0.72173,1.15915 -1.37786,2.20894 -1.96837,3.14939c-0.02187,0.54677 0.06561,1.86995 0.26245,3.96954c0.19684,2.27456 0.30619,3.9258 0.32806,4.95372c0.02187,1.46534 0.42648,3.04003 1.21383,4.72408c0.76547,1.68405 1.13728,2.58075 1.11541,2.6901c0,0.06561 -0.65612,1.7606 -1.96837,5.08495c-1.29037,3.36809 -1.99024,5.78481 -2.09959,7.25015c-0.08748,1.31224 -0.28432,3.36809 -0.59051,6.16755c-0.21871,2.47139 -0.29525,4.51631 -0.22964,6.13474c-0.06561,0.21871 -0.1859,0.42648 -0.36087,0.62332c0,0.06561 0,0.13122 0,0.19684c0.08748,1.48721 0.25151,4.22105 0.49209,8.20152c0.19684,3.38996 0.28432,5.42394 0.26245,6.10193c-0.17496,4.41789 -0.66706,7.3595 -1.47627,8.82484c-1.15915,2.01211 -3.45557,2.95255 -6.88928,2.82132c-7.0205,-0.28432 -20.2523,-2.93068 -39.69538,-7.93908c-18.52451,-5.07401 -28.38821,-7.72037 -29.5911,-7.93908c-19.59617,-3.67428 -35.59462,-6.47374 -47.99532,-8.39836c-20.86468,-3.28061 -42.25425,-6.03632 -64.16873,-8.26714l-25.22789,-1.01699c-15.28764,0.30619 -24.91076,0.84202 -28.86937,1.6075c-1.94649,0.48116 -3.72896,0.84202 -5.34739,1.0826c-2.82132,0.45929 -6.95489,0.86389 -12.40071,1.21383c-0.98418,-1.07167 -2.18707,-4.75688 -3.60867,-11.05566c-1.22476,-6.10193 -1.83714,-9.17477 -1.83714,-9.21851c-0.04374,-0.76547 -0.06561,-1.49815 -0.06561,-2.19801c-0.02187,-0.43741 -0.03281,-0.90764 -0.03281,-1.41066c0.08748,-3.17126 0.13122,-4.8553 0.13122,-5.05214c0.02187,-0.34993 0.44835,-1.11541 1.27944,-2.29643c0.8967,-1.2685 1.48721,-2.60262 1.77153,-4.00234c0.02187,-0.61238 0.14216,-1.58563 0.36087,-2.91974c0.24058,-1.2685 0.36087,-2.25269 0.36087,-2.95255c0,-1.4216 -0.09842,-3.7727 -0.29525,-7.05331c-0.1531,-3.01816 -0.21871,-4.77876 -0.19684,-5.28178c0.02187,-0.56864 0.1531,-1.24663 0.39367,-2.03398c0.26245,-0.78735 0.40461,-1.41066 0.42648,-1.86995c-0.30619,-0.67799 -0.51396,-1.25757 -0.62332,-1.73872c-0.24058,-0.94044 0.12029,-1.6075 1.0826,-2.00117c0.67799,-0.26245 1.58563,-0.59051 2.72291,-0.98418c0.83109,-0.34993 1.33412,-0.8967 1.50908,-1.6403c0.06561,-0.39367 0.10935,-0.95138 0.13122,-1.67311c-0.02187,-0.80922 -0.02187,-1.39973 0,-1.77153c0.06561,-1.6403 0.21871,-4.10076 0.45929,-7.38137c0.24058,-3.30248 0.39367,-5.78481 0.45929,-7.44698l0.16403,-3.93673c0.13122,-0.13122 0.50303,-0.40461 1.11541,-0.82015c0.74361,-0.59051 1.56376,-1.4216 2.46046,-2.49326c0.63425,-0.76547 1.13728,-1.90275 1.50908,-3.41183c0.21871,-0.87483 0.42648,-1.6075 0.62332,-2.19801c-0.24058,-1.15915 -0.339,-2.20894 -0.29525,-3.14939c0.85296,-5.51142 1.71685,-11.25249 2.59168,-17.2232c1.72779,-11.96329 2.64636,-19.36653 2.75571,-22.20973c0.02187,-0.72173 0.1859,-1.19195 0.49209,-1.41066c0.08748,-0.04374 0.38274,-0.13122 0.88576,-0.26245c2.86506,0.28432 6.36438,0.1531 10.49795,-0.39367c0.72173,0.54677 1.15915,1.24663 1.31224,2.09959c0.04374,0.30619 0.04374,1.0498 0,2.23081c-0.02187,0.54677 -0.32806,2.59168 -0.91857,6.13474c-0.56864,3.49932 -0.86389,5.52236 -0.88576,6.06913c-0.02187,0.5249 0.13122,1.47627 0.45929,2.85413c0.32806,1.39973 0.48116,2.43859 0.45929,3.11658l-0.03281,0.32806l2.65729,-0.06561c2.82132,-2.95255 4.80062,-6.53935 5.9379,-10.7604c0.34993,-1.35598 0.96231,-5.16149 1.83714,-11.41652c0.32806,-0.08748 2.05585,0.3718 5.18336,1.37786c0.24058,1.90275 0.47022,6.04726 0.68893,12.43351c0.26245,6.69244 0.339,11.32904 0.22964,13.90979c-0.02187,0.54677 -0.28432,1.65124 -0.78735,3.31342c-0.50303,1.66218 -0.76547,2.76665 -0.78735,3.31342c-0.02187,0.98418 0.59051,3.46651 1.83714,7.44698c1.4216,4.41789 2.15427,6.73618 2.19801,6.95489c-0.02187,0.04374 -0.03281,0.08748 -0.03281,0.13122c0.45929,1.11541 0.87483,1.96837 1.24663,2.55888l-0.19684,0.49209c0.06561,0.08748 0.06561,0.17496 0,0.26245c-0.10935,0.08748 -0.36087,0.1531 -0.75454,0.19684c0.48116,0.5249 0.92951,0.91857 1.34505,1.18102c-0.10935,0.32806 -0.5577,0.53583 -1.34505,0.62332c-0.96231,-0.67799 -2.78852,-1.57469 -5.47862,-2.6901l-2.62449,-0.09842c-0.74361,2.34017 -1.18102,5.1943 -1.31224,8.56239c-0.02187,0.54677 0.92951,1.4544 2.85413,2.72291c0.61238,0.02187 2.27456,-0.49209 4.98653,-1.54189c2.73384,-1.07167 4.12263,-1.6075 4.16637,-1.6075c0.08748,0.32806 0.84202,2.65729 2.26362,6.9877c0.98418,3.08377 1.6075,5.70826 1.86995,7.87346v0.16403c0.39367,-0.02187 1.01699,-0.09842 1.86995,-0.22964c0.80922,-0.08748 1.55282,-0.12029 2.23081,-0.09842c1.09354,0.04374 2.60262,0.19684 4.52724,0.45929c-0.06561,-0.63425 -0.12029,-1.31224 -0.16403,-2.03398c-0.30619,-3.60867 -0.43741,-6.04726 -0.39367,-7.31576c0.02187,-0.54677 0.14216,-0.90764 0.36087,-1.0826c0.24058,-0.21871 0.80922,-0.3718 1.70592,-0.45929c1.22476,-0.1531 5.2271,-0.54677 12.00703,-1.18102c0.54677,-7.93908 0.90764,-14.0082 1.0826,-18.20738c0.08748,-2.40578 -0.10935,-4.92091 -0.59051,-7.5454c-0.50303,-2.62449 -0.74361,-4.23199 -0.72173,-4.8225c0.06561,-1.66218 0.30619,-2.62449 0.72173,-2.88694c1.81527,-1.11541 3.30248,-2.21988 4.46163,-3.31342c1.18102,0.54677 1.90275,1.74966 2.1652,3.60867c0.34993,2.23081 0.83109,3.69615 1.44347,4.39602c3.67428,-0.63425 5.752,-1.6075 6.23316,-2.91974c0.1531,-0.41555 0.19684,-1.03886 0.13122,-1.86995c-0.02187,-0.87483 0.02187,-1.54189 0.13122,-2.00117c0.17496,-0.69986 0.40461,-1.78246 0.68893,-3.2478c0.34993,-1.74966 0.59051,-2.95255 0.72173,-3.60867c0.41555,-2.90881 0.82015,-5.18336 1.21383,-6.82367c0.72173,-2.95255 1.74966,-5.15056 3.08377,-6.59403c0.54677,0.24058 0.91857,0.47022 1.11541,0.68893c0.32806,0.39367 0.48116,0.95138 0.45929,1.67311c0.30619,0.13122 0.66706,0.30619 1.0826,0.5249c1.02792,0.59051 1.81527,0.8967 2.36204,0.91857c3.63054,-1.48721 5.752,-2.98535 6.36438,-4.49444c0.61238,-1.61843 0.95138,-3.35716 1.01699,-5.21617c0.5249,0.02187 1.22476,0.22964 2.09959,0.62332c1.02792,0.50303 2.04491,1.18102 3.05097,2.03398c1.39973,0.76547 3.41183,1.02792 6.03632,0.78735c1.31224,-0.10935 2.58075,-0.29525 3.80551,-0.5577c4.00234,0.1531 5.97071,1.89182 5.9051,5.21617c-0.02187,1.70592 -0.50303,3.69615 -1.44347,5.97071c-0.13122,0.61238 -0.47022,1.61843 -1.01699,3.01816c-0.10935,1.24663 0.80922,2.1652 2.75571,2.75571c3.98047,1.24663 6.13474,2.18707 6.4628,2.82132c0.13122,0.24058 0.09842,0.59051 -0.09842,1.0498c-0.26245,0.61238 -0.40461,1.10447 -0.42648,1.47627c-0.02187,0.61238 0.98418,2.3183 3.01816,5.11775c0.98418,1.39973 1.99024,2.73384 3.01816,4.00234c0.5249,0.69986 1.31224,1.2685 2.36204,1.70592c0.83109,0.34993 1.47627,0.75454 1.93556,1.21383c0.1531,-0.10935 0.30619,-0.19684 0.45929,-0.26245c0,0.19684 -0.02187,0.44835 -0.06561,0.75454c0.34993,0.48116 0.56864,1.17009 0.65612,2.06678c0.06561,0.50303 0.09842,1.2685 0.09842,2.29643c-0.13122,0.63425 -0.27338,1.01699 -0.42648,1.14821c-0.19684,0.26245 -0.59051,0.40461 -1.18102,0.42648c0,0.06561 0,0.12029 0,0.16403c-0.02187,0.48116 0.07655,1.50908 0.29525,3.08377c0.21871,1.53095 0.30619,2.64636 0.26245,3.34622c-0.02187,0.45929 -0.28432,1.49815 -0.78735,3.11658c-0.24058,1.55282 0.26245,2.66823 1.50908,3.34622c3.65241,1.07167 7.15173,2.00117 10.49795,2.78852c2.64636,0.74361 6.6487,2.25269 12.00703,4.52724c1.94649,0.80922 3.87112,2.27456 5.77387,4.39602c1.74966,1.92463 2.97442,3.81644 3.67428,5.67545c0.74361,1.83714 3.37903,4.92091 7.90627,9.25132c6.14567,5.9051 9.41535,9.06542 9.80902,9.48096l0.32806,0.03281c0.02187,-0.67799 0.12029,-1.82621 0.29525,-3.44464c0.17496,-1.57469 0.27338,-2.62449 0.29525,-3.14939c0.02187,-0.67799 0.17496,-1.06073 0.45929,-1.14821c0.1531,-0.04374 0.44835,-0.05468 0.88576,-0.03281c3.14939,-0.19684 6.87835,-0.63425 11.18688,-1.31224c4.08983,-0.63425 6.36438,-1.11541 6.82367,-1.44347c0.83109,-0.5249 1.78246,-1.03886 2.85413,-1.54189c1.0498,-0.48116 1.71685,-0.72173 2.00117,-0.72173c0.08748,0 3.35716,2.99629 9.80902,8.98887c2.49326,2.27456 4.70221,4.2976 6.62683,6.06913c1.77153,1.20289 3.38996,2.04491 4.8553,2.52607c4.15544,1.33412 6.29877,3.07284 6.43,5.21617c0.04374,0.61238 -0.09842,1.56376 -0.42648,2.85413c-0.30619,1.24663 -0.42648,2.18707 -0.36087,2.82132l-0.16403,0.32806c0.26245,-0.13122 0.86389,-0.44835 1.80434,-0.95138c0.80922,-0.45929 1.21383,-0.86389 1.21383,-1.21383c0.02187,-0.43741 -0.10935,-1.83714 -0.39367,-4.19918c-0.28432,-2.38391 -0.40461,-4.12263 -0.36087,-5.21617c0.02187,-0.94044 0.21871,-2.5042 0.59051,-4.69127c0.3718,-2.20894 0.57958,-3.90393 0.62332,-5.08495c-2.86506,0 -4.84437,-0.02187 -5.9379,-0.06561c-0.67799,-0.02187 -1.71685,-0.12029 -3.11658,-0.29525l-1.93556,-0.22964c-0.91857,-2.55888 -1.71685,-4.60379 -2.39485,-6.13474c-1.22476,-2.82132 -2.55888,-4.96466 -4.00234,-6.43c-0.74361,-0.13122 -2.93068,-0.5577 -6.56122,-1.27944c-2.6901,-0.5249 -4.35228,-0.80922 -4.98653,-0.85296c-0.34993,0 -1.15915,0.339 -2.42765,1.01699c-1.22476,0.63425 -1.86995,0.95138 -1.93556,0.95138c-0.67799,-0.02187 -1.10447,-0.08748 -1.27944,-0.19684v-0.16403c-0.26245,-0.43741 -0.32806,-0.94044 -0.19684,-1.50908c0.24058,-0.59051 0.38274,-1.03886 0.42648,-1.34505c0.19684,-1.02792 -0.74361,-1.81527 -2.82132,-2.36204c-0.19684,-0.13122 -0.31713,-0.22964 -0.36087,-0.29525c-0.08748,-0.10935 -0.10935,-0.50303 -0.06561,-1.18102c0.02187,-0.85296 1.15915,-1.6075 3.41183,-2.26362z"/></g></g></svg>