<svg version="1.1" xmlns="http://www.w3.org/2000/svg" xmlns:xlink="http://www.w3.org/1999/xlink" width="448.5" height="409" viewBox="0,0,448.5,409"><g transform="translate(-471.5,-224.85)"><g data-paper-data="{&quot;isPaintingLayer&quot;:true}" fill-rule="nonzero" stroke="none" stroke-width="1" stroke-linecap="butt" stroke-linejoin="miter" stroke-miterlimit="10" stroke-dasharray="" stroke-dashoffset="0" style="mix-blend-mode: normal"><g><path d="M673.25,409.2c0.50703,-1.5625 0.94036,-2.97917 1.3,-4.25c0.13398,-0.21419 0.25065,-0.44753 0.35,-0.7c0.11732,1.35221 0.20065,2.71888 0.25,4.1c0.06667,1.7 0.1,6.03333 0.1,13c0,7.00273 -0.51667,12.28607 -1.55,15.85c-3.12279,6.1 -8.27279,9.15 -15.45,9.15c-1.18854,0 -2.37188,-0.03333 -3.55,-0.1c-3.26953,-0.84831 -6.96953,-2.31497 -11.1,-4.4c-4.77396,-2.41328 -9.59063,-5.36328 -14.45,-8.85c1.40781,0.64922 2.65781,1.19922 3.75,1.65c10.26667,4.3 18.21667,6.45 23.85,6.45c8.13333,0 13.3,-5 15.5,-15c0.73333,-3.23333 1.11667,-6.95 1.15,-11.15c-0.06888,-2.68711 -0.11888,-4.60378 -0.15,-5.75M622.65,380.35c0.26667,1.16667 -1.23333,3.9 -4.5,8.2c-3.46667,4.56667 -6.38333,7.11667 -8.75,7.65c-2.73333,0.63333 -4.6,0.33333 -5.6,-0.9c-0.23333,-0.3 -0.5,-1.08333 -0.8,-2.35c-0.23333,-1.03333 0,-2.58333 0.7,-4.65c0.6,-1.86667 1.35,-3.5 2.25,-4.9c0.5,-0.8 1.08333,-1.91667 1.75,-3.35c0.36667,-0.76667 0.75,-1.23333 1.15,-1.4c0.13333,-0.06667 3.48333,-0.41667 10.05,-1.05c1.53333,0.8 2.38333,1.25 2.55,1.35c0.7,0.43333 1.1,0.9 1.2,1.4M670.95,390.85c-0.43203,0.58281 -0.98203,1.28281 -1.65,2.1c-2.84674,1.97109 -6.19674,3.70443 -10.05,5.2c-8.58438,-0.53607 -15.31771,0.01393 -20.2,1.65c-4.63333,1.56667 -8.05,4.36667 -10.25,8.4c-0.43333,0.76667 -1.21667,2.45 -2.35,5.05c-0.51823,1.19596 -1.01823,2.21263 -1.5,3.05c-0.0832,0.08906 -0.16654,0.1724 -0.25,0.25c-0.86172,0.8013 -1.71172,1.5013 -2.55,2.1c-0.90221,0.13477 -2.15221,0.23477 -3.75,0.3c-0.01263,-0.05195 -0.0293,-0.10195 -0.05,-0.15c1.63477,-2.5418 3.03477,-5.40846 4.2,-8.6c1.43333,-4.53333 2.5,-7.75 3.2,-9.65c1.16667,-3.16667 2.58333,-5.45 4.25,-6.85c2.1,-1.73333 5.1,-2.6 9,-2.6c2.5,0 6.08333,0.5 10.75,1.5c4.66667,1 8.08333,1.5 10.25,1.5c3.26667,0 6.35,-0.76667 9.25,-2.3c0.54193,-0.29336 1.09193,-0.62669 1.65,-1c0.02096,0.02734 0.03763,0.04401 0.05,0.05M657.75,367.8c-1.63333,1.6 -3.78333,2.7 -6.45,3.3c-3.83333,0.9 -7.35,0.43333 -10.55,-1.4c-2.4,-1.33333 -3.73333,-2.55 -4,-3.65c-0.56667,-2.56667 3,-4.21667 10.7,-4.95c3.03333,-0.26667 5.73333,-0.25 8.1,0.05c2.53333,0.36667 3.91667,1.01667 4.15,1.95c0.36667,1.56667 -0.28333,3.13333 -1.95,4.7M596.2,561.2c2.13333,5.6 5.06667,9.31667 8.8,11.15c1.29974,0.60573 2.56641,1.1724 3.8,1.7c-1.16849,0.53333 -2.35182,0.8 -3.55,0.8c-7.76667,0 -13.68333,-3.06667 -17.75,-9.2c-2.83333,-4.3 -4.25,-8.56667 -4.25,-12.8c0,-6.9 1.46667,-12.96667 4.4,-18.2c3.42044,-6.06484 8.62044,-10.44818 15.6,-13.15c1.2901,1.72826 2.62344,3.31159 4,4.75c-3.41458,0.46406 -6.33125,2.61406 -8.75,6.45c-3.16667,5 -4.75,10.58333 -4.75,16.75c0,3.56667 0.81667,7.48333 2.45,11.75M518.45,523.35c0.43333,-1.2 1.53333,-2.95 3.3,-5.25h8c2.63333,1.76667 6.75,5.96667 12.35,12.6c5.93333,5.76667 12.36667,8.65 19.3,8.65c1.06667,0 1.7,-0.11667 1.9,-0.35c0.06667,-0.33333 0.13333,-0.63333 0.2,-0.9l-0.55,-0.35c-1.07617,-1.44193 -3.75951,-5.40859 -8.05,-11.9c4.99232,2 10.60898,3 16.85,3c5.57148,0 11.00482,-1.05 16.3,-3.15c-2.0388,1.84193 -3.82214,4.10859 -5.35,6.8c-3.46667,6.1 -5.2,13.13333 -5.2,21.1c0,5.03333 1.48333,10.05 4.45,15.05c3.06172,5.18789 7.26172,8.72122 12.6,10.6c-0.02826,0.39987 -0.04492,0.81654 -0.05,1.25c-0.03333,1.63333 0.01667,4.13333 0.15,7.5c-0.13333,2.8 -0.91667,4.88333 -2.35,6.25c-1.8,1.73333 -4.85,2.6 -9.15,2.6c-4.63333,0 -7.7,-1.43333 -9.2,-4.3c-0.96667,-1.8 -1.5,-5.18333 -1.6,-10.15c-0.13333,-5.43333 -0.61667,-9.35 -1.45,-11.75c-1.43333,-4.23333 -4.31667,-7.33333 -8.65,-9.3c-2.13333,-0.96667 -4.91667,-1.63333 -8.35,-2c-1.96667,-0.2 -4.98333,-0.48333 -9.05,-0.85c-7.56667,-1.06667 -13.68333,-4.53333 -18.35,-10.4c-1.8,-2.26667 -3.68333,-5.51667 -5.65,-9.75c-0.0957,-0.2069 -0.1957,-0.42357 -0.3,-0.65c0.07318,-0.13698 0.13984,-0.25365 0.2,-0.35c-0.14206,-0.06081 -0.29206,-0.12747 -0.45,-0.2c-1.7,-3.8487 -2.55,-6.6987 -2.55,-8.55c0,-2.3 0.23333,-4.05 0.7,-5.25M782.25,612.05c5.58516,-0.89622 10.58516,-2.61289 15,-5.15c1.28229,2.49648 2.81562,4.66315 4.6,6.5c4.13333,4.3 9.1,6.45 14.9,6.45c2.04609,0 5.29609,-0.83333 9.75,-2.5c-1.26667,2.76667 -2.81667,4.9 -4.65,6.4c-3.36667,2.73333 -7.95,4.1 -13.75,4.1c-9.43333,0 -16.56667,-2.95 -21.4,-8.85c-1.06667,-1.3 -2.38333,-3.35 -3.95,-6.15c-0.16302,-0.28021 -0.32969,-0.54687 -0.5,-0.8M819.2,558c1.43333,-1.96667 2.65,-3.51667 3.65,-4.65c3.9,-4.5 8.65,-6.75 14.25,-6.75c5.56667,0 10.16667,3.4 13.8,10.2c1.86667,3.5 3.4,7.35 4.6,11.55c0.1237,0.18841 0.25703,0.37174 0.4,0.55l4.35,3.5c0.09258,0.03789 0.17591,0.07122 0.25,0.1c0.21419,0.13815 0.43086,0.27148 0.65,0.4c1.66667,1 4.46667,2.56667 8.4,4.7c7.3,4.16667 10.95,8.11667 10.95,11.85c0,3.43333 -0.93333,7.85 -2.8,13.25c-0.32396,0.96224 -0.65729,1.86224 -1,2.7c-2.0793,5.11784 -4.4793,7.93451 -7.2,8.45h-5.75c-3.03333,-1.56667 -5.93333,-2.93333 -8.7,-4.1c-4.54844,-1.93307 -9.04844,-3.04974 -13.5,-3.35c-0.7681,-0.03333 -1.53477,-0.05 -2.3,-0.05c-2.2,0 -5.71667,1.25 -10.55,3.75c-4.8,2.5 -8.66667,3.75 -11.6,3.75c-4.13333,0 -8,-1.78333 -11.6,-5.35c-1.66667,-1.8 -2.88333,-3.03333 -3.65,-3.7c-0.20482,-0.1832 -0.40482,-0.34987 -0.6,-0.5c3.19206,-2.39857 6.02539,-5.29857 8.5,-8.7c1.88398,-2.60365 3.46732,-5.40365 4.75,-8.4c0.7737,-1.71758 1.44036,-3.50091 2,-5.35c1.16667,-3.86667 1.75,-7.28333 1.75,-10.25c0,-4.2332 -0.35,-8.16654 -1.05,-11.8c0.61901,-0.31758 1.28568,-0.91758 2,-1.8M848.5,507.6c0.85208,-3.80612 1.33542,-7.15612 1.45,-10.05c0.08906,-0.02786 0.1724,-0.0612 0.25,-0.1c0.96667,-0.5 2.08333,-0.75 3.35,-0.75c5.83333,0 10.05,1.16667 12.65,3.5c1.86667,1.7 2.8,3.83333 2.8,6.4c0,6.33333 -4.16667,14.25 -12.5,23.75c-0.6138,0.69727 -1.23047,1.3806 -1.85,2.05c-2.28867,2.55898 -4.58867,4.99232 -6.9,7.3c-0.3987,-1.39076 -0.98203,-3.20742 -1.75,-5.45c-1.54674,-4.52969 -2.89674,-7.62969 -4.05,-9.3c0.20078,-0.36094 0.40078,-0.7276 0.6,-1.1c0.90937,-1.69062 1.74271,-3.45729 2.5,-5.3c1.23477,-2.97161 2.2681,-6.13828 3.1,-9.5c0.12214,-0.47878 0.2388,-0.96211 0.35,-1.45M764,365.35c0,-1.42305 -0.56667,-2.82305 -1.7,-4.2c1.4918,-0.61471 3.20846,-1.26471 5.15,-1.95c5.7,-2.06667 10.43333,-3.1 14.2,-3.1c8.93333,0 15.41667,3.75 19.45,11.25c2.5,4.63333 3.75,9.56667 3.75,14.8c0,0.52018 -0.06667,1.08685 -0.2,1.7c-3.81927,-0.57956 -7.9526,-1.07956 -12.4,-1.5h-26c-2.13333,0.1 -3.7,0.23333 -4.7,0.4c-0.40391,0.06458 -0.80391,0.18125 -1.2,0.35c1.25052,-4.0099 2.46719,-8.5599 3.65,-13.65c0,-0.77227 -0.03333,-1.47227 -0.1,-2.1c0.06667,-0.34635 0.1,-1.01302 0.1,-2M741.2,331.3c4.16667,1 9.26667,2.85 15.3,5.55c1.4875,0.64049 3.55417,1.90716 6.2,3.8c-3.88203,2.43503 -7.11536,4.41836 -9.7,5.95c-1.96667,-6 -5.71667,-10.75 -11.25,-14.25c-1.29349,-0.63281 -2.59349,-1.23281 -3.9,-1.8c1.14362,0.23294 2.26029,0.48294 3.35,0.75M698.75,289.45c1.8125,3.74596 3.3625,7.56263 4.65,11.45c0.73646,2.14063 1.38646,4.29062 1.95,6.45c-0.47839,3.07917 -1.01172,5.99583 -1.6,8.75h-0.5c-3.76667,-7.23333 -8.43333,-12.55 -14,-15.95c-6.06667,-3.7 -13.81667,-5.55 -23.25,-5.55c-13.33333,0 -25.25,4.5 -35.75,13.5c-11.66667,10 -17.5,22.66667 -17.5,38c0,1.04297 0.03333,2.04297 0.1,3c-3.64336,-1.41224 -6.06003,-2.29557 -7.25,-2.65c-4.26667,-1.23333 -8.88333,-1.85 -13.85,-1.85c-5.96667,0 -12.26667,0.88333 -18.9,2.65c-7,1.83333 -12.86667,4.28333 -17.6,7.35c-3.53333,2.3 -7.98333,6.98333 -13.35,14.05c-5.88229,7.77878 -8.93229,13.84544 -9.15,18.2c-5.81354,-0.67122 -11.89688,-2.83789 -18.25,-6.5c-6.72148,-3.87682 -12.40482,-8.77682 -17.05,-14.7c-1.63333,-8.45677 -2.45,-17.50677 -2.45,-27.15c0,-8.76667 1.98333,-19.15 5.95,-31.15c4.06667,-12.26667 8.83333,-22.01667 14.3,-29.25c7.6,-10 17.51667,-19.05 29.75,-27.15c20.73333,-13.73333 43.28333,-20.6 67.65,-20.6c0.54193,0 1.07526,0 1.6,0c9.11549,0.2625 18.79883,2.57917 29.05,6.95c11.36667,4.83333 21.76667,11.51667 31.2,20.05c10.33333,9.36667 18.41667,20.06667 24.25,32.1z" fill="#ffffff"/><path d="M676.75,367.35c-3.5819,2.69128 -7.26523,5.10794 -11.05,7.25c0.97057,0.74323 2.02057,1.6099 3.15,2.6c2.40872,2.11406 4.39206,4.06406 5.95,5.85c0.18685,-0.48581 0.38685,-1.00247 0.6,-1.55c1.2,-3.1 2.31667,-4.9 3.35,-5.4c0.05299,0.15885 0.10299,0.30885 0.15,0.45c0.27266,-0.25664 0.55599,-0.48997 0.85,-0.7c0.26667,0.26667 0.56667,0.41667 0.9,0.45c0.23333,0.16667 0.35,0.76667 0.35,1.8c0,2.7293 -0.25,5.56263 -0.75,8.5c0.2638,-0.10859 0.53047,-0.22526 0.8,-0.35c2.63333,-1.26667 5.2,-1.9 7.7,-1.9c1.66667,0 2.91667,0.16667 3.75,0.5c0,0.1 0.08333,0.25 0.25,0.45c0.05716,0.08008 0.10716,0.19674 0.15,0.35c0.31576,-0.08932 0.59909,-0.18932 0.85,-0.3l0.5,0.75c-0.44232,0.43034 -0.85898,0.83034 -1.25,1.2c-0.10937,1.06914 -0.95938,1.88581 -2.55,2.45c-1.41471,1.33203 -2.29805,2.11536 -2.65,2.35c-1.69766,1.05378 -4.88099,2.13711 -9.55,3.25c-0.02448,0.15924 -0.05781,0.30924 -0.1,0.45c-0.9457,3.16185 -2.02904,5.97852 -3.25,8.45c-0.09935,0.25247 -0.21602,0.48581 -0.35,0.7c-0.35964,1.27083 -0.79297,2.6875 -1.3,4.25c0.03112,1.14622 0.08112,3.06289 0.15,5.75c-0.03333,4.2 -0.41667,7.91667 -1.15,11.15c-2.2,10 -7.36667,15 -15.5,15c-5.63333,0 -13.58333,-2.15 -23.85,-6.45c-1.09219,-0.45078 -2.34219,-1.00078 -3.75,-1.65c-2.94206,-1.30846 -6.57539,-3.02513 -10.9,-5.15v0c-2.08503,0 -4.01836,-0.23333 -5.8,-0.7c-0.81367,0.4112 -1.79701,0.89453 -2.95,1.45c-2.06667,1 -3.66667,2.25 -4.8,3.75c-0.76667,1 -1.75,1.5 -2.95,1.5c-1.66667,0 -2.58333,-0.16667 -2.75,-0.5c0,-0.1 -0.08333,-0.25 -0.25,-0.45c-0.16667,-0.23333 -0.25,-0.83333 -0.25,-1.8c0,-1.23333 1.05,-2.73333 3.15,-4.5c1.35143,-1.13424 2.70143,-2.06758 4.05,-2.8c-0.24102,-0.17878 -0.55768,-0.42878 -0.95,-0.75c-0.44779,-0.19714 -0.86445,-0.4138 -1.25,-0.65c-0.81237,-0.49844 -1.56237,-1.1151 -2.25,-1.85c-1.15352,-0.77734 -2.40352,-1.67734 -3.75,-2.7c-0.06667,-0.06667 -0.05,-0.15 0.05,-0.25c0.26667,-0.16667 0.91667,-0.25 1.95,-0.25c0.06042,0 0.11042,0 0.15,0c0.04414,0.00378 0.07747,0.00378 0.1,0v0c0.13971,0.02747 0.27305,0.04414 0.4,0.05c0.14505,-0.31172 0.26172,-0.51172 0.35,-0.6c0.4,-0.46667 1.15,-0.7 2.25,-0.7c0.76667,0 2.08333,0.5 3.95,1.5c1.37201,0.74831 2.28867,1.21497 2.75,1.4c-0.46667,-2.03555 -0.7,-3.50221 -0.7,-4.4c0,-0.50312 0.01667,-0.96979 0.05,-1.4c-0.48372,-1.29831 -1.00039,-2.69831 -1.55,-4.2c-0.17083,0.12917 -0.35417,0.24583 -0.55,0.35c-5.93333,3.16667 -12.48333,5.66667 -19.65,7.5c-5.9,1.5 -10.83333,2.25 -14.8,2.25c-13.8,0 -23.2,-4.16667 -28.2,-12.5c-2.53333,-4.16667 -3.8,-9.41667 -3.8,-15.75c0,-7.1 0.86667,-12.3 2.6,-15.6c2.53333,-4.73333 8,-9.45 16.4,-14.15c3.83333,-2.93333 7.48333,-4.98333 10.95,-6.15c5.76667,-1.93333 16.78333,-3.21667 33.05,-3.85c4.26667,1 8.75,2.85 13.45,5.55c0.57344,0.33242 1.12344,0.64909 1.65,0.95c-0.03997,-0.4362 -0.07331,-0.8862 -0.1,-1.35c0,-11.96667 2.6,-22.76667 7.8,-32.4c7.46667,-13.96667 19.2,-21.71667 35.2,-23.25c15.43333,-0.1 26.23333,2.5 32.4,7.8c5.06667,4.33333 7.6,11.23333 7.6,20.7c0,13.26667 -8.16667,26.01667 -24.5,38.25M659.7,363.1c-0.23333,-0.93333 -1.61667,-1.58333 -4.15,-1.95c-2.36667,-0.3 -5.06667,-0.31667 -8.1,-0.05c-7.7,0.73333 -11.26667,2.38333 -10.7,4.95c0.26667,1.1 1.6,2.31667 4,3.65c3.2,1.83333 6.71667,2.3 10.55,1.4c2.66667,-0.6 4.81667,-1.7 6.45,-3.3c1.66667,-1.56667 2.31667,-3.13333 1.95,-4.7M669.1,387c-2.41836,-2.07044 -5.18503,-5.32044 -8.3,-9.75c-1.12044,0.57799 -2.25378,1.12799 -3.4,1.65c-6.23333,2.8 -10.95,4.2 -14.15,4.2c-1.7,0 -5.23333,-1.3 -10.6,-3.9c-0.56016,-0.27096 -1.09349,-0.53763 -1.6,-0.8c-1.11198,10.60911 -6.94531,19.54245 -17.5,26.8c0.78398,1.06628 1.35065,2.28294 1.7,3.65c1.33333,4 2.11667,6.38333 2.35,7.15c0.29987,1.01732 0.54987,1.95065 0.75,2.8c0.0207,0.04805 0.03737,0.09805 0.05,0.15c1.59779,-0.06523 2.84779,-0.16523 3.75,-0.3c0.83828,-0.5987 1.68828,-1.2987 2.55,-2.1c0.08346,-0.0776 0.1668,-0.16094 0.25,-0.25c0.48177,-0.83737 0.98177,-1.85404 1.5,-3.05c1.13333,-2.6 1.91667,-4.28333 2.35,-5.05c2.2,-4.03333 5.61667,-6.83333 10.25,-8.4c4.88229,-1.63607 11.61563,-2.18607 20.2,-1.65c3.85326,-1.49557 7.20326,-3.22891 10.05,-5.2c0.66797,-0.81719 1.21797,-1.51719 1.65,-2.1c-0.01237,-0.00599 -0.02904,-0.02266 -0.05,-0.05c-0.37187,-0.69245 -0.75521,-1.45911 -1.15,-2.3c-0.22292,-0.47917 -0.43958,-0.97917 -0.65,-1.5M621.45,378.95c-0.16667,-0.1 -1.01667,-0.55 -2.55,-1.35c-6.56667,0.63333 -9.91667,0.98333 -10.05,1.05c-0.4,0.16667 -0.78333,0.63333 -1.15,1.4c-0.66667,1.43333 -1.25,2.55 -1.75,3.35c-0.9,1.4 -1.65,3.03333 -2.25,4.9c-0.7,2.06667 -0.93333,3.61667 -0.7,4.65c0.3,1.26667 0.56667,2.05 0.8,2.35c1,1.23333 2.86667,1.53333 5.6,0.9c2.36667,-0.53333 5.28333,-3.08333 8.75,-7.65c3.26667,-4.3 4.76667,-7.03333 4.5,-8.2c-0.1,-0.5 -0.5,-0.96667 -1.2,-1.4M707.7,298.15c0.45078,1.32396 0.88411,2.65729 1.3,4c2.4401,7.88151 3.9901,15.46484 4.65,22.75c0.5987,-0.19245 1.31536,-0.37578 2.15,-0.55c3.1,-0.66667 7.58333,-1 13.45,-1c8.33333,0 18.61667,2.73333 30.85,8.2c11.2957,5.0138 17.5957,9.64714 18.9,13.9c12.5418,-1.24336 22.12513,1.88997 28.75,9.4c5,4.7 9.03333,10.08333 12.1,16.15c2.93333,5.83333 4.4,11.06667 4.4,15.7c0,0.49714 -0.05,1.03047 -0.15,1.6c5.26862,1.86341 9.23529,4.04674 11.9,6.55c2.26667,2.1 4.15,5 5.65,8.7c2.1,5.13333 3.46667,8.23333 4.1,9.3c2.16667,3.56667 4.43333,9.21667 6.8,16.95c2.46667,8.13333 3.7,14.35 3.7,18.65c0,2.6 -1.66667,7.23333 -5,13.9c-2.74089,5.52995 -5.32422,9.06328 -7.75,10.6c0.24167,0.45013 0.49167,0.93346 0.75,1.45c1.47813,2.99505 2.66146,5.91172 3.55,8.75c0.35755,1.06146 0.65755,2.11146 0.9,3.15c0.69414,-0.24206 1.47747,-0.44206 2.35,-0.6c3.83333,-0.7 8.06667,-0.36667 12.7,1c5.23333,1.5 9.46667,3.98333 12.7,7.45c3.86667,4.1 5.8,9.11667 5.8,15.05c0,6.16667 -3.98333,15.55 -11.95,28.15c-5.76133,9.1099 -10.27799,14.8599 -13.55,17.25c-0.02227,0.01341 -0.0556,0.03008 -0.1,0.05v0c0.04661,0.12396 0.07995,0.24062 0.1,0.35c0.09049,0.36029 0.17383,0.72695 0.25,1.1c1.13333,4.23333 3.63333,7.53333 7.5,9.9c1.1,0.66667 2.85,1.63333 5.25,2.9c2.16667,1.26667 4,2.58333 5.5,3.95c5.5,5.06667 8.66667,8.23333 9.5,9.5c0.98307,1.5401 1.48307,4.22344 1.5,8.05c2.21055,0.74466 4.21055,1.36133 6,1.85c3.17266,0.91966 5.67266,1.45299 7.5,1.6c7.63333,1.13333 12.98333,2.43333 16.05,3.9c2.8,1.36667 4.2,3.15 4.2,5.35c0,0.46667 -0.68333,2.11667 -2.05,4.95c-1.33333,2.73333 -2.15,4.25 -2.45,4.55c-1.43333,1.3 -7.45,2.03333 -18.05,2.2c-9.89349,0.1418 -16.97682,0.77513 -21.25,1.9c-2.55104,2.1 -5.53437,3.15 -8.95,3.15c-3.46667,0 -8.45,-1.25 -14.95,-3.75c-6.5,-2.5 -10.85,-3.75 -13.05,-3.75c-0.14427,0 -1.14427,0.36667 -3,1.1c-0.64818,0.25638 -1.39818,0.55638 -2.25,0.9c-0.02813,0.60404 -0.12812,1.2207 -0.3,1.85c-0.67721,2.87188 -2.66055,6.00521 -5.95,9.4c-5.33333,5.5 -12,8.25 -20,8.25c-0.80729,0 -1.60729,-0.01667 -2.4,-0.05c-8.9556,-0.41953 -16.0556,-3.2362 -21.3,-8.45c-2,-2.03333 -3.56667,-4.25 -4.7,-6.65c-0.9,-1.9 -1.35,-3.43333 -1.35,-4.6c0,-0.56341 0.01667,-1.06341 0.05,-1.5c-1.87578,0.16667 -3.80911,0.25 -5.8,0.25c-3.43255,0 -6.64922,-0.31667 -9.65,-0.95c-3.86732,-0.79362 -7.38398,-2.11029 -10.55,-3.95c-11.83359,0.37695 -19.10026,1.01029 -21.8,1.9h-34.25c-0.43333,0.03333 -2.5,0.55 -6.2,1.55c-2.05951,0.57396 -4.17617,1.05729 -6.35,1.45c-0.91549,0.8224 -2.03216,2.18906 -3.35,4.1c-1.03333,1.5 -2.35,2.65 -3.95,3.45c-4.66667,2.23333 -16.96667,4.05 -36.9,5.45l-25.25,0.5c-4.03333,1.13333 -13.85,2.33333 -29.45,3.6c-15.66667,1.26667 -28.6,1.9 -38.8,1.9c-4.6,0 -7.35,-0.88333 -8.25,-2.65c-0.26667,-0.56667 -0.35,-1.21667 -0.25,-1.95c0.16667,-0.63333 0.25,-0.98333 0.25,-1.05c0,-1.82539 0.43333,-3.55872 1.3,-5.2c-24.43333,-6.63333 -43.86667,-20.61667 -58.3,-41.95c-0.86667,-1.3 -1.71667,-2.6 -2.55,-3.9c-1.61693,-2.46927 -2.75026,-4.28594 -3.4,-5.45c-2.03333,-3.63333 -3.05,-9.21667 -3.05,-16.75c0,-9.6 2.26667,-16.18333 6.8,-19.75c6.70794,-5.30807 18.37461,-4.92474 35,1.15c-0.36667,-1.8957 -0.55,-3.97904 -0.55,-6.25c-0.43333,-2.7 -0.63333,-4.6 -0.6,-5.7c0.06667,-1.7 1.26667,-3.8 3.6,-6.3c2.76667,-2.93333 6.48333,-4.16667 11.15,-3.7c4.53333,0.43333 8.4,2.25 11.6,5.45c1.86667,3.73333 5.38333,7.31667 10.55,10.75l4.1,2.7c-1.06966,-1.32305 -2.23633,-2.80638 -3.5,-4.45c-2.45651,-3.19505 -4.32318,-5.76172 -5.6,-7.7c-3.83568,-3.43203 -7.10234,-7.78203 -9.8,-13.05c-1.33385,-2.5974 -2.48385,-5.3474 -3.45,-8.25h-3.55c-9.76667,-1.63333 -17,-7.31667 -21.7,-17.05c-3.36667,-6.86667 -5.05,-14.35 -5.05,-22.45c0,-9.86667 2.33333,-19.06667 7,-27.6c2.76784,-5.07656 6.10117,-9.02656 10,-11.85c-3.40352,-3.94167 -6.57018,-8.30833 -9.5,-13.1c-6.4,-10.43333 -11.21667,-22.31667 -14.45,-35.65c-2.7,-11 -4.05,-21.6 -4.05,-31.8c0,-9.86667 1.7,-20.05 5.1,-30.55c4.06667,-12.63333 10.16667,-24.15 18.3,-34.55c21,-26.83333 52.45,-42.96667 94.35,-48.4c2.47292,0.13893 4.90625,0.32227 7.3,0.55c-0.06966,1.5194 -0.16966,3.1694 -0.3,4.95c-0.52474,0 -1.05807,0 -1.6,0c-24.36667,0 -46.91667,6.86667 -67.65,20.6c-12.23333,8.1 -22.15,17.15 -29.75,27.15c-5.46667,7.23333 -10.23333,16.98333 -14.3,29.25c-3.96667,12 -5.95,22.38333 -5.95,31.15c0,9.64323 0.81667,18.69323 2.45,27.15c3.6556,19.0332 11.42227,35.09987 23.3,48.2c0.65599,0.72526 1.32266,1.42526 2,2.1c1.47383,1.41146 2.84049,2.62812 4.1,3.65c-0.06107,0.05651 -0.12773,0.10651 -0.2,0.15c6.51003,5.90469 13.82669,10.62135 21.95,14.15c10.6,4.63333 21.95,6.95 34.05,6.95c14,0 24.58333,-1.03333 31.75,-3.1c1.15117,-0.34362 2.23451,-0.72695 3.25,-1.15c-0.72422,-0.56836 -1.44089,-1.15169 -2.15,-1.75c0.46667,-0.3 0.83333,-0.48333 1.1,-0.55c0.46667,-0.13333 1.26667,-0.2 2.4,-0.2c0.60378,0 1.43711,0.21667 2.5,0.65c0.15677,-0.08073 0.30677,-0.16406 0.45,-0.25c6.43268,3.66628 9.81602,5.58294 10.15,5.75c7.36914,3.52565 14.90247,5.52565 22.6,6c1.17812,0.06667 2.36146,0.1 3.55,0.1c7.17721,0 12.32721,-3.05 15.45,-9.15c0.95677,-1.84349 1.72344,-3.97682 2.3,-6.4c1,-5.73333 1.71667,-9.91667 2.15,-12.55c0.8,-4.66667 1.91667,-7.88333 3.35,-9.65c0.34609,0.34609 0.61276,0.62943 0.8,0.85c0.67956,-1.57891 1.54622,-3.36224 2.6,-5.35c4.06667,-7.26667 7.26667,-13.2 9.6,-17.8c6.11276,-12.11641 10.21276,-23.99974 12.3,-35.65c0.17214,-0.00664 0.32214,-0.02331 0.45,-0.05h4.65c1.4,-6.54857 2.1,-12.46523 2.1,-17.75c0,-1.2724 -0.03333,-2.55573 -0.1,-3.85c0.50573,-0.02135 0.98906,-0.03802 1.45,-0.05c-2.70807,-0.95964 -5.05807,-1.7763 -7.05,-2.45c-0.35638,-6.54531 -1.33971,-12.92865 -2.95,-19.15c-0.56354,-2.15938 -1.21354,-4.30937 -1.95,-6.45c0.92591,-0.57643 1.94258,-1.22643 3.05,-1.95c0.20495,-0.10951 0.40495,-0.22617 0.6,-0.35c0.21745,-0.1474 0.43411,-0.2974 0.65,-0.45M710.55,356.55c-1.67773,6.57786 -3.97773,13.72786 -6.9,21.45c-2.39531,6.31367 -4.97865,12.44701 -7.75,18.4c2.60664,-0.91185 6.03997,-1.91185 10.3,-3c5.4,-1.73333 9.33333,-4.25 11.8,-7.55c1.03333,-1.4 2.55,-3.85 4.55,-7.35c1.83333,-2.76667 3.56667,-4.15 5.2,-4.15c0.7,0 1.93333,0.3 3.7,0.9c2.13333,0.7 4.48333,1.23333 7.05,1.6h9.5c1.13333,-1.13333 3.7,-3.85 7.7,-8.15c0.45794,-0.49219 0.89128,-0.95885 1.3,-1.4c0.00221,-0.35729 0.00221,-0.72396 0,-1.1c-0.18021,-0.20547 -0.36354,-0.42214 -0.55,-0.65c-2.06667,-2.6 -3.46667,-4.08333 -4.2,-4.45c-1.36276,-0.7138 -2.87943,-1.24714 -4.55,-1.6c1.33333,-1.90547 2.4,-3.45547 3.2,-4.65c-0.23112,-0.04062 -0.46445,-0.09063 -0.7,-0.15c-7.40495,-1.87695 -13.95495,-1.59362 -19.65,0.85l-1.95,0.55c-1.33333,-0.46667 -3.03333,-1.26667 -5.1,-2.4c-2.2,-1.23333 -3.75,-2.01667 -4.65,-2.35c-1.18424,-0.45378 -2.38424,-0.70378 -3.6,-0.75h-0.3c-0.86393,0.03086 -1.74727,0.16419 -2.65,0.4c-0.29089,1.03346 -0.62422,2.23346 -1,3.6c-0.19102,0.67656 -0.37435,1.3099 -0.55,1.9c-0.06354,0.02148 -0.13021,0.03815 -0.2,0.05M737.85,330.55c1.30651,0.56719 2.60651,1.16719 3.9,1.8c5.53333,3.5 9.28333,8.25 11.25,14.25c2.58464,-1.53164 5.81797,-3.51497 9.7,-5.95c-2.64583,-1.89284 -4.7125,-3.15951 -6.2,-3.8c-6.03333,-2.7 -11.13333,-4.55 -15.3,-5.55c-1.08971,-0.26706 -2.20638,-0.51706 -3.35,-0.75M763.9,367.35c0.06667,0.62773 0.1,1.32773 0.1,2.1c-1.18281,5.0901 -2.39948,9.6401 -3.65,13.65c0.39609,-0.16875 0.79609,-0.28542 1.2,-0.35c1,-0.16667 2.56667,-0.3 4.7,-0.4h26c4.4474,0.42044 8.58073,0.92044 12.4,1.5c0.13333,-0.61315 0.2,-1.17982 0.2,-1.7c0,-5.23333 -1.25,-10.16667 -3.75,-14.8c-4.03333,-7.5 -10.51667,-11.25 -19.45,-11.25c-3.76667,0 -8.5,1.03333 -14.2,3.1c-1.94154,0.68529 -3.6582,1.33529 -5.15,1.95c1.13333,1.37695 1.7,2.77695 1.7,4.2c0,0.98698 -0.03333,1.65365 -0.1,2M820.5,392.95c-1.85521,-0.67682 -4.02187,-1.24349 -6.5,-1.7c-6.23958,-1.17266 -16.23958,-1.95599 -30,-2.35c-6.94609,-0.2 -14.86276,-0.3 -23.75,-0.3c-0.42721,-0.10677 -0.92721,-0.3401 -1.5,-0.7c-2.27409,6.45898 -4.65742,11.14232 -7.15,14.05c0.94596,0.20768 1.89596,0.42435 2.85,0.65c10.2987,2.42148 16.51536,5.52148 18.65,9.3c0.29609,0.56367 0.51276,1.13034 0.65,1.7l-0.25,0.75c-5.33333,-1.86667 -10.31667,-3.51667 -14.95,-4.95c-9,-2.7 -17.65,-4.05 -25.95,-4.05c-10,0 -20.46667,3.38333 -31.4,10.15c-5.01602,3.06016 -11.54935,8.02682 -19.6,14.9c-0.2375,1.33997 -0.52083,2.57331 -0.85,3.7c-3.43503,11.71016 -10.23503,17.92682 -20.4,18.65c-0.68385,0.06667 -1.38385,0.1 -2.1,0.1c-9.8,0 -19.46667,-2.78333 -29,-8.35c-2.26289,-1.30846 -4.46289,-2.70846 -6.6,-4.2c-1.54323,0.87331 -3.67656,1.73997 -6.4,2.6c-2.06953,0.65143 -4.31953,1.2181 -6.75,1.7c-1.61003,1.63984 -4.49336,4.52318 -8.65,8.65c-2.5,2.46667 -4.2,4.33333 -5.1,5.6c-1.83333,2.53333 -2.75,6.73333 -2.75,12.6c0,5.63333 0.65,10.88333 1.95,15.75c0.83333,3.23333 2.68333,9.11667 5.55,17.65c0.6,2 1.98333,4.8 4.15,8.4c1.96667,3.3 3.83333,6 5.6,8.1c0.92865,1.06406 2.84531,2.18073 5.75,3.35c-0.33099,0.26589 -0.68099,0.53255 -1.05,0.8c-1.93411,1.38568 -3.55078,2.61901 -4.85,3.7c0.10716,-0.0224 0.20716,-0.03906 0.3,-0.05c5.93698,4.94323 12.80365,7.57656 20.6,7.9c0.30833,1.23255 0.84167,2.83255 1.6,4.8c1.63333,4.23333 3.76667,8.15 6.4,11.75c7.93333,10.83333 18.51667,16.25 31.75,16.25c7.33333,0 14.58333,-1.75 21.75,-5.25c2.87878,-1.40911 5.09544,-2.69245 6.65,-3.85c0.43086,0.65872 0.96419,1.37539 1.6,2.15c1.86667,2.33333 4.28333,4.58333 7.25,6.75l0.5,0.4c0.12799,0.07253 0.24466,0.13919 0.35,0.2c0.33125,0.25052 0.66458,0.48385 1,0.7l14.85,6.4c0.12435,0.01458 0.24102,0.03125 0.35,0.05c0.18503,0.03841 0.36836,0.07174 0.55,0.1c0.13672,0.01484 0.27005,0.03151 0.4,0.05c0.16706,0.02904 0.33372,0.0457 0.5,0.05c0.4082,0.0651 0.8082,0.1151 1.2,0.15c0.18099,0.02148 0.34766,0.03815 0.5,0.05c0.12708,0.01029 0.24375,0.01029 0.35,0c0.04766,0.0138 0.09766,0.0138 0.15,0c0.0543,0.0138 0.1043,0.0138 0.15,0c0.1138,0.01302 0.2138,0.01302 0.3,0c0.2888,0.03112 0.57214,0.04779 0.85,0.05c0.08659,0 0.16992,0 0.25,0c0.27096,0 0.53763,0 0.8,0c0.97852,-0.02096 1.87852,-0.07096 2.7,-0.15c0.29362,-0.02995 0.57695,-0.06328 0.85,-0.1c0.08711,1.4026 0.23711,2.76927 0.45,4.1c1.02305,6.54141 3.50638,12.42474 7.45,17.65c0.79661,1.05417 1.62995,2.0375 2.5,2.95c0.72227,0.55716 1.9056,0.92383 3.55,1.1c0.61966,0.07747 1.40299,0.12747 2.35,0.15c-0.50547,-0.58919 -1.00547,-1.28919 -1.5,-2.1c-0.44336,-0.78568 -0.87669,-1.66901 -1.3,-2.65c-0.01081,-0.03542 -0.02747,-0.06875 -0.05,-0.1c-1.47747,-1.46745 -2.96081,-3.83411 -4.45,-7.1c0.03333,-0.06667 0.08333,-0.13333 0.15,-0.2c0.10977,-0.13724 0.2431,-0.25391 0.4,-0.35c0.03138,-0.01576 0.06471,-0.03242 0.1,-0.05c0.73333,0.66667 1.1,1.16667 1.1,1.5c0,0.31328 0.05,0.61328 0.15,0.9c0.17344,0.41667 0.4401,0.81667 0.8,1.2c0.20898,0.22122 0.44232,0.43789 0.7,0.65c-0.76667,-2.60352 -1.15,-3.95352 -1.15,-4.05c0,-3.13997 0.11667,-5.88997 0.35,-8.25c-0.7194,-0.60625 -1.40273,-1.30625 -2.05,-2.1c-2.43333,-2.96667 -3.65,-6.03333 -3.65,-9.2c0,-1.95599 0.15,-3.83932 0.45,-5.65c-0.63333,2.55339 -0.95,5.20339 -0.95,7.95c0,0.08086 0,0.16419 0,0.25v0.05c0.00326,0.45807 0.00326,0.90807 0,1.35c-1.27734,0.31628 -2.44401,0.59961 -3.5,0.85c-1.04089,0.25065 -1.95755,0.46732 -2.75,0.65v0c0.20924,-1.67357 0.34258,-3.67357 0.4,-6c0.1681,-0.00143 0.3181,-0.00143 0.45,0c0.09518,-1.00117 0.21185,-2.00117 0.35,-3c0.3151,-1.99922 0.7651,-3.96589 1.35,-5.9c-3.86211,-1.55742 -10.32878,-5.57409 -19.4,-12.05c-0.80833,-0.57995 -1.59167,-1.14661 -2.35,-1.7c-6.53229,-4.72383 -11.38229,-8.42383 -14.55,-11.1c-3.11029,0.16667 -6.02695,0.25 -8.75,0.25c-1.03333,0 -4.01667,-0.16667 -8.95,-0.5l-7.05,-0.5c-2.06667,-0.53333 -3.23333,-1.7 -3.5,-3.5c0.13333,-2.13333 0.13333,-3.63333 0,-4.5c-0.36667,0.2 -2.61667,1.73333 -6.75,4.6c-4.56667,2.76667 -8.31667,4.15 -11.25,4.15c-1.06667,0 -1.88333,-0.06667 -2.45,-0.2c-0.7,-0.2 -1.38333,-0.38333 -2.05,-0.55v-6.75c0.30755,-0.52279 1.30755,-2.58945 3,-6.2c0.14779,-0.30833 0.29779,-0.625 0.45,-0.95c1.56667,-3.33333 2.91667,-5.7 4.05,-7.1l0.4,0.1c0.3,0.13333 0.5,0.35 0.6,0.65c-1.13333,5.26667 -2.63333,10.51667 -4.5,15.75c4.53333,-1.1 8.85,-3.08333 12.95,-5.95c4.33333,-3.43333 7.68333,-5.95 10.05,-7.55c0.83333,0.33333 1.4,0.66667 1.7,1c0.53333,0.56667 0.8,1.4 0.8,2.5c0,0.8 -0.33333,2.23333 -1,4.3c-0.66667,2.1 -1,3.66667 -1,4.7c5,0.33333 9.95,0.66667 14.85,1c0.09805,0 0.19805,0 0.3,0c10.82383,-0.01523 22.64049,-0.86523 35.45,-2.55c7.61068,-0.9901 15.56068,-2.27344 23.85,-3.85c25.2,-4.8 38.63333,-10 40.3,-15.6c-1.83333,-1.83333 -2.75,-3.05 -2.75,-3.65c0,-0.93333 0.73333,-1.61667 2.2,-2.05c0.63333,-0.2 2.51667,-0.51667 5.65,-0.95c0.29023,-0.03958 0.57357,-0.08958 0.85,-0.15c1.3263,-0.18112 2.59297,-0.41445 3.8,-0.7c4.7125,-1.03529 8.62917,-2.61862 11.75,-4.75c-0.23333,-0.36667 -1.41667,-1.6 -3.55,-3.7c-2,-2 -3.23333,-3.51667 -3.7,-4.55v-0.75c3.36667,0.3 6.38333,1.55 9.05,3.75c2.46667,2.06667 3.7,4.1 3.7,6.1c0,1.30456 -0.61667,2.50456 -1.85,3.6c-1.11497,1.02188 -2.74831,1.95521 -4.9,2.8c-0.42161,0.17227 -0.92161,0.3556 -1.5,0.55c-2.6375,0.90286 -6.8875,2.05286 -12.75,3.45c-0.4,3.8 -2.7,6.96667 -6.9,9.5c-0.63203,0.38333 -1.5487,0.85 -2.75,1.4c0.1,0.17747 0.15,0.41081 0.15,0.7c0,1 -0.53333,3.33333 -1.6,7c-0.26289,0.86667 -0.52956,1.65 -0.8,2.35c1.29557,0.10612 2.54557,0.25612 3.75,0.45c5.96107,1.02995 11.22773,3.46328 15.8,7.3c0.56341,0.47318 1.09674,0.95651 1.6,1.45c1.13125,-0.12409 2.23125,-0.29076 3.3,-0.5c9.58333,-1.72891 17.25,-5.62891 23,-11.7c1.39479,-1.46719 2.67813,-3.06719 3.85,-4.8c4.49909,-6.65977 6.99909,-14.45977 7.5,-23.4c0.06667,-1.10534 0.1,-2.23867 0.1,-3.4c0,-1.29987 -0.66667,-4.46654 -2,-9.5c-0.29154,-1.17018 -0.62487,-2.43685 -1,-3.8c-1.13607,-4.10885 -1.95273,-6.90885 -2.45,-8.4c-0.22826,-0.04271 -0.42826,-0.09271 -0.6,-0.15l-0.45,-0.25c0,-0.1 -0.08333,-0.25 -0.25,-0.45c-0.16667,-0.23333 -0.25,-0.83333 -0.25,-1.8c0,-0.13333 2.13333,-3.33333 6.4,-9.6c4.23333,-6.53333 6.35,-10.58333 6.35,-12.15c0,-4.13333 -1.28333,-10.05 -3.85,-17.75c-2.03333,-6.13333 -4.25,-11.71667 -6.65,-16.75c-1.36667,-3.56667 -2.56667,-6.35 -3.6,-8.35c-1.8,-3.6 -4.35,-6.56667 -7.65,-8.9c-2.8,-1.96667 -4.56667,-3.13333 -5.3,-3.5c-0.45495,-0.23398 -0.93828,-0.46732 -1.45,-0.7c-0.15937,0.17344 -0.32604,0.32344 -0.5,0.45c-0.25651,-0.28451 -0.50651,-0.58451 -0.75,-0.9M848.15,509.05c-0.8319,3.36172 -1.86523,6.52839 -3.1,9.5c-0.75729,1.84271 -1.59063,3.60938 -2.5,5.3c-0.19922,0.3724 -0.39922,0.73906 -0.6,1.1c1.15326,1.67031 2.50326,4.77031 4.05,9.3c0.76797,2.24258 1.3513,4.05924 1.75,5.45c2.31133,-2.30768 4.61133,-4.74102 6.9,-7.3c0.61953,-0.6694 1.2362,-1.35273 1.85,-2.05c8.33333,-9.5 12.5,-17.41667 12.5,-23.75c0,-2.56667 -0.93333,-4.7 -2.8,-6.4c-2.6,-2.33333 -6.81667,-3.5 -12.65,-3.5c-1.26667,0 -2.38333,0.25 -3.35,0.75c-0.0776,0.0388 -0.16094,0.07214 -0.25,0.1c-0.11458,2.89388 -0.59792,6.24388 -1.45,10.05c-0.1112,0.48789 -0.22786,0.97122 -0.35,1.45M803.5,547.4c0.66667,0.23333 1.55,0.75 2.65,1.55c1.00469,0.69284 1.83802,1.32617 2.5,1.9c-1.84492,-3.35391 -4.34492,-6.17057 -7.5,-8.45c-1.46732,-1.07109 -3.01732,-1.98776 -4.65,-2.75c2.47357,2.03776 4.72357,4.55443 6.75,7.55c0.01654,0.04531 0.0332,0.07865 0.05,0.1c0.07201,0.04479 0.13867,0.07813 0.2,0.1M810.1,558.7c-0.59062,-0.38125 -1.17396,-0.96458 -1.75,-1.75c-0.18151,-0.22695 -0.61484,-0.89362 -1.3,-2c-0.15859,-0.11133 -0.32526,-0.24466 -0.5,-0.4c-0.34766,-0.38086 -0.68099,-0.71419 -1,-1c0.77591,2.13698 1.19258,3.32031 1.25,3.55c0.13333,0.66667 0.2,3.25 0.2,7.75c0,0.5875 -0.01667,1.17083 -0.05,1.75c-0.06263,2.07266 -0.26263,4.13932 -0.6,6.2c0.58971,-0.23763 1.13971,-0.48763 1.65,-0.75c1.03333,-0.56667 2.23333,-1.41667 3.6,-2.55c0.31055,-0.26458 0.61055,-0.48125 0.9,-0.65c0,-0.21836 0,-0.43503 0,-0.65c0,-3.24167 -0.3,-6.24167 -0.9,-9c-0.49661,-0.02318 -0.99661,-0.18984 -1.5,-0.5M817.2,559.8c0.7,3.63346 1.05,7.5668 1.05,11.8c0,2.96667 -0.58333,6.38333 -1.75,10.25c-0.55964,1.84909 -1.2263,3.63242 -2,5.35c-1.28268,2.99635 -2.86602,5.79635 -4.75,8.4c-2.47461,3.40143 -5.30794,6.30143 -8.5,8.7c0.19518,0.15013 0.39518,0.3168 0.6,0.5c0.76667,0.66667 1.98333,1.9 3.65,3.7c3.6,3.56667 7.46667,5.35 11.6,5.35c2.93333,0 6.8,-1.25 11.6,-3.75c4.83333,-2.5 8.35,-3.75 10.55,-3.75c0.76523,0 1.5319,0.01667 2.3,0.05c4.45156,0.30026 8.95156,1.41693 13.5,3.35c2.76667,1.16667 5.66667,2.53333 8.7,4.1h5.75c2.7207,-0.51549 5.1207,-3.33216 7.2,-8.45c0.34271,-0.83776 0.67604,-1.73776 1,-2.7c1.86667,-5.4 2.8,-9.81667 2.8,-13.25c0,-3.73333 -3.65,-7.68333 -10.95,-11.85c-3.93333,-2.13333 -6.73333,-3.7 -8.4,-4.7c-0.21914,-0.12852 -0.43581,-0.26185 -0.65,-0.4c-0.07409,-0.02878 -0.15742,-0.06211 -0.25,-0.1l-4.35,-3.5c-0.14297,-0.17826 -0.2763,-0.36159 -0.4,-0.55c-1.2,-4.2 -2.73333,-8.05 -4.6,-11.55c-3.63333,-6.8 -8.23333,-10.2 -13.8,-10.2c-5.6,0 -10.35,2.25 -14.25,6.75c-1,1.13333 -2.21667,2.68333 -3.65,4.65c-0.71432,0.88242 -1.38099,1.48242 -2,1.8M757.05,373.25c-2.13594,2.54414 -4.73594,5.07747 -7.8,7.6h-12c-0.46667,-0.2 -1.91667,-0.53333 -4.35,-1c-2.83333,-0.56667 -4.46667,-0.9 -4.9,-1c-0.96667,0.9 -2.11667,2.68333 -3.45,5.35c-1.36667,2.83333 -2.7,4.93333 -4,6.3c-4.52474,4.88281 -12.99141,7.41615 -25.4,7.6c-3.65742,7.79466 -7.62409,15.29466 -11.9,22.5l-0.5,0.25c-0.00924,0.15352 -0.02591,0.30352 -0.05,0.45c0.17018,-0.1457 0.33685,-0.2957 0.5,-0.45c3.53333,-3.3 7.98333,-6.58333 13.35,-9.85c13,-8.03333 23.56667,-11.75 31.7,-11.15c4.6651,-0.3069 9.74844,-0.09023 15.25,0.65c0.74583,-0.86901 1.67917,-1.96901 2.8,-3.3c3.53333,-4.66667 6.01667,-9.11667 7.45,-13.35c1.84115,-5.52331 2.94115,-9.05664 3.3,-10.6M760.95,539.75c3.57161,-3.8944 7.30495,-4.4444 11.2,-1.65c0.15378,0.11888 0.30378,0.23555 0.45,0.35c-0.83711,0.31693 -1.65378,0.65026 -2.45,1c6.39453,0.72461 11.57786,3.22461 15.55,7.5c0.83529,-0.16432 1.68529,-0.33099 2.55,-0.5c0,-0.13333 1.9,-0.15 5.7,-0.05c1.83646,0.06328 3.33646,0.12995 4.5,0.2c-2.7875,-4.45534 -6.57083,-7.63867 -11.35,-9.55c-0.76953,-0.09596 -1.56953,-0.16263 -2.4,-0.2c-1.48971,-0.06159 -3.03971,-0.04492 -4.65,0.05c0.06862,-0.64258 0.13529,-1.34258 0.2,-2.1c0.08672,-1.02292 0.15339,-1.97292 0.2,-2.85c0.07539,-0.69115 0.12539,-1.34115 0.15,-1.95c-1.36432,0.07943 -2.76432,0.21276 -4.2,0.4c-9.90273,1.27109 -18.5694,5.07109 -26,11.4c-0.95742,0.80964 -1.89076,1.65964 -2.8,2.55c-3.8099,3.70807 -6.79323,7.70807 -8.95,12c0.38125,0.27344 0.76458,0.5401 1.15,0.8c0.36133,0.25091 0.72799,0.50091 1.1,0.75c0.64948,0.4444 1.31615,0.8944 2,1.35c0.77747,-1.73919 1.72747,-3.38919 2.85,-4.95c0.36315,-0.50599 0.72982,-0.98932 1.1,-1.45c1.83359,-2.21003 3.86693,-3.92669 6.1,-5.15c1.18646,-0.62865 2.41979,-1.12865 3.7,-1.5c0.37227,-0.71133 0.7556,-1.41133 1.15,-2.1c0.01771,-0.00703 0.03437,-0.0237 0.05,-0.05c0.01628,-0.02734 0.03294,-0.06068 0.05,-0.1c-0.24141,0.05885 -0.45807,0.10885 -0.65,0.15c-0.63333,0 -1.01667,-0.01667 -1.15,-0.05c-0.16667,-0.06667 -0.25,-0.36667 -0.25,-0.9c0,-1.1 1.08333,-2.05 3.25,-2.85c0.58268,-0.20312 1.19935,-0.38646 1.85,-0.55M754.6,550.8c-2.49805,1.22461 -4.68138,3.00794 -6.55,5.35c-0.68268,0.84518 -1.28268,1.71185 -1.8,2.6c-1.6,2.80612 -2.4,5.87279 -2.4,9.2c0,0.48047 0.01667,0.94714 0.05,1.4c0.72721,-0.55911 1.79388,-1.14245 3.2,-1.75c0.23698,-0.10195 0.47031,-0.20195 0.7,-0.3c1.65964,-0.65911 3.2763,-1.14245 4.85,-1.45c-0.06497,-0.35573 -0.13164,-0.75573 -0.2,-1.2c-0.23333,-1.56667 -0.35,-2.83333 -0.35,-3.8c0,-1.56667 0.5,-3.95 1.5,-7.15c0.31719,-0.98763 0.65052,-1.9543 1,-2.9M756.65,552.3c-1.02669,2.52253 -1.77669,6.95586 -2.25,13.3c2.59896,-3.72656 5.59896,-6.82656 9,-9.3c1.6151,-1.18724 3.3651,-2.28724 5.25,-3.3c-0.59141,-0.9168 -1.34141,-1.68346 -2.25,-2.3c-2.29453,-1.58138 -5.09453,-1.94805 -8.4,-1.1c-0.51419,0.86081 -0.96419,1.76081 -1.35,2.7M764,543c-1.05651,0.80378 -2.02318,1.65378 -2.9,2.55c2.89375,0.04818 5.44375,1.08151 7.65,3.1c0.96445,0.8819 1.79779,1.89857 2.5,3.05c3.12109,-1.43255 6.58776,-2.68255 10.4,-3.75c-3.42292,-3.4 -8.72292,-5.1 -15.9,-5.1c-0.33633,0 -0.91966,0.05 -1.75,0.15M763.4,559.2c-3.05924,2.10898 -5.79258,4.34232 -8.2,6.7c0.22643,0.13724 0.45977,0.27057 0.7,0.4c0.23333,0.16667 0.35,0.38333 0.35,0.65c0,0.37617 -0.43333,0.79284 -1.3,1.25l0.1,0.4c1.22227,0.45625 2.9556,1.13958 5.2,2.05c2.47721,0.93359 4.86055,1.73359 7.15,2.4c0.05326,-0.07852 0.10326,-0.16185 0.15,-0.25c2.03333,-3.8 3.05,-7.85 3.05,-12.15c0,-2.00117 -0.25,-3.75117 -0.75,-5.25c-2.22578,1.09727 -4.37578,2.36393 -6.45,3.8M774,563.85c0,3.06771 -0.91667,6.48438 -2.75,10.25c4.47187,1.06667 8.55521,1.6 12.25,1.6c0.06862,0 0.13529,0 0.2,0c0.55951,-1.52122 1.00951,-3.07122 1.35,-4.65c0.63333,-2.86667 0.95,-6.1 0.95,-9.7c0,-4.23333 -0.58333,-7.48333 -1.75,-9.75c-0.11354,-0.22331 -0.23021,-0.43997 -0.35,-0.65c-4.0069,0.65586 -7.82357,1.73919 -11.45,3.25c1.03333,2.6707 1.55,5.88737 1.55,9.65M793.3,550.2c-1.99206,0 -3.94206,0.08333 -5.85,0.25c1.04544,2.30521 1.66211,3.82187 1.85,4.55c0.13333,0.63333 0.2,2.78333 0.2,6.45c0,1.96667 -0.35,4.7 -1.05,8.2c-0.40508,2.08086 -0.88841,4.08086 -1.45,6c5.18763,-0.11641 9.58763,-0.51641 13.2,-1.2c0.84948,-0.13503 1.64948,-0.30169 2.4,-0.5c0.13099,-0.65208 0.24766,-1.31875 0.35,-2c0.36667,-2.36497 0.55,-4.71497 0.55,-7.05c0,-4.95 -0.93333,-9.58333 -2.8,-13.9c-1.98086,-0.53333 -4.44753,-0.8 -7.4,-0.8M784.9,581.55c-0.21458,0.57969 -0.44792,1.14635 -0.7,1.7c-2.36927,5.17565 -5.23594,9.25898 -8.6,12.25c4.11693,1.4 8.68359,2.1 13.7,2.1c0.63268,0 1.24935,-0.01667 1.85,-0.05c2.88945,-2.89609 5.33945,-6.56276 7.35,-11c1.33242,-2.95794 2.39909,-5.89128 3.2,-8.8c-2.60417,0.50482 -5.45417,0.87148 -8.55,1.1c-2.29961,0.18099 -4.73294,0.28099 -7.3,0.3c-0.29076,0.82878 -0.60742,1.62878 -0.95,2.4M764,575.2c-3.92174,-1.54805 -7.13841,-3.16471 -9.65,-4.85c-0.06667,0.2832 -0.1,0.61654 -0.1,1c0,1.31719 0.4,3.01719 1.2,5.1c0.14492,0.33815 0.29492,0.68815 0.45,1.05c0.56237,1.27201 1.21237,2.50534 1.95,3.7c1.20469,-0.38281 2.32135,-0.88281 3.35,-1.5c1.67708,-0.99857 3.14375,-2.29857 4.4,-3.9c-0.53086,-0.18776 -1.06419,-0.38776 -1.6,-0.6M766.15,581.45c-1.65755,1.61979 -3.54089,2.80312 -5.65,3.55c0.38216,0.43997 0.76549,0.87331 1.15,1.3c2.99258,3.31536 6.44258,5.8987 10.35,7.75c0.1625,-0.11198 0.3125,-0.22865 0.45,-0.35c2.18854,-1.94193 4.88854,-5.75859 8.1,-11.45c0.26484,-0.44648 0.53151,-0.91315 0.8,-1.4c0.30651,-0.55417 0.58984,-1.12083 0.85,-1.7c-4.11146,-0.11797 -8.29479,-0.8013 -12.55,-2.05c-1.03698,1.71315 -2.20365,3.16315 -3.5,4.35M768.15,606.65c-0.2026,-0.07982 -0.41927,-0.17982 -0.65,-0.3v-0.75c0.5,-0.16667 1.41667,-0.11667 2.75,0.15c6.29271,0 11.74271,-1.5 16.35,-4.5c-5.37396,-0.26862 -10.15729,-1.35195 -14.35,-3.25c-3.87044,2.4 -8.28711,3.6 -13.25,3.6c-1.46276,0 -2.79609,-0.06667 -4,-0.2c0.87461,0.50586 1.82461,0.90586 2.85,1.2c0,0.06667 0.05,0.15 0.15,0.25c0.06667,0.1 0.1,0.4 0.1,0.9c0,0.17956 -0.01667,0.34622 -0.05,0.5c1.29115,0.55482 2.64115,1.02148 4.05,1.4c1.91133,0.50286 3.92799,0.8362 6.05,1M796.9,600.45c-1.7707,0.46224 -3.63737,0.74557 -5.6,0.85c-2.6181,2.06797 -5.53477,3.61797 -8.75,4.65c5.52539,-0.97435 10.30872,-2.80768 14.35,-5.5M782.75,612.85c1.56667,2.8 2.88333,4.85 3.95,6.15c4.83333,5.9 11.96667,8.85 21.4,8.85c5.8,0 10.38333,-1.36667 13.75,-4.1c1.83333,-1.5 3.38333,-3.63333 4.65,-6.4c-4.45391,1.66667 -7.70391,2.5 -9.75,2.5c-5.8,0 -10.76667,-2.15 -14.9,-6.45c-1.78437,-1.83685 -3.31771,-4.00352 -4.6,-6.5c-4.41484,2.53711 -9.41484,4.25378 -15,5.15c0.17031,0.25313 0.33698,0.51979 0.5,0.8M795.75,597c2.41328,-0.47617 4.61328,-1.24284 6.6,-2.3c0.10599,-0.07943 0.82266,-0.52943 2.15,-1.35c0.90013,-1.17109 1.73346,-2.42109 2.5,-3.75c2.67018,-4.61224 4.37018,-9.64557 5.1,-15.1c-1.07982,0.55013 -2.37982,1.08346 -3.9,1.6c-0.85898,0.28945 -1.75898,0.55612 -2.7,0.8c-0.96341,3.89453 -2.39674,7.77786 -4.3,11.65c-1.5849,3.22917 -3.40156,6.04583 -5.45,8.45M753.4,569.65c-0.74674,0.7099 -1.48008,1.72656 -2.2,3.05c-0.31354,0.64857 -0.63021,1.36523 -0.95,2.15c-0.8832,2.11484 -1.46654,3.94818 -1.75,5.5c0.99401,0.84596 2.11068,1.4293 3.35,1.75c1.52279,-0.02109 2.95612,-0.17109 4.3,-0.45c-0.58789,-1.29323 -1.10456,-2.62656 -1.55,-4c-0.26784,-0.84648 -0.50117,-1.64648 -0.7,-2.4c-0.36667,-1.52617 -0.55,-2.80951 -0.55,-3.85c0,-0.72513 0.16667,-1.1918 0.5,-1.4c-0.14674,-0.10482 -0.29674,-0.22148 -0.45,-0.35M749.3,570.2c-2.67721,0.67617 -4.39388,1.10951 -5.15,1.3c0.26055,1.44779 0.67721,2.86445 1.25,4.25c0.4319,1.0306 0.91523,1.9306 1.45,2.7c0.04076,-0.09036 0.07409,-0.19036 0.1,-0.3c0.6931,-2.92461 1.70977,-5.24128 3.05,-6.95c0.52174,-0.65638 1.08841,-1.22305 1.7,-1.7c-0.43633,0.14961 -0.90299,0.29961 -1.4,0.45c-0.33841,0.08529 -0.67174,0.16862 -1,0.25M754.5,586c-2.23581,0 -4.28581,-0.51667 -6.15,-1.55c0.10352,3.94453 0.43685,6.94453 1,9c0.41055,1.46185 0.94388,2.76185 1.6,3.9c2.16615,0.83333 4.26615,1.25 6.3,1.25c4.52448,0 8.37448,-0.81667 11.55,-2.45c-3.49935,-2.11602 -6.51602,-4.89935 -9.05,-8.35c-0.51432,-0.70625 -0.99766,-1.43958 -1.45,-2.2c-1.21094,0.26667 -2.4776,0.4 -3.8,0.4M641.15,579.85c-0.70521,1.14349 -1.35521,2.17682 -1.95,3.1c2.25833,0.57891 4.79167,1.24557 7.6,2c2.09115,0.56185 6.45781,0.87852 13.1,0.95c-4.54674,-1.8599 -10.39674,-4.5599 -17.55,-8.1c-0.35052,0.62201 -0.75052,1.30534 -1.2,2.05M582.25,446.85c-3.05534,0 -6.03867,-0.11667 -8.95,-0.35c-11.91042,0.52344 -20.76042,5.47344 -26.55,14.85c-3.83333,6.2 -5.75,12.31667 -5.75,18.35c0,11.13333 3.96667,18.76667 11.9,22.9c4.9,2.56667 12,3.85 21.3,3.85c4.1,0 8.53333,-1.41667 13.3,-4.25c1.17721,-0.69674 2.76055,-1.79674 4.75,-3.3c-1.13737,-3.65339 -2.10404,-7.48672 -2.9,-11.5c-1.23333,-6.26667 -1.85,-11.58333 -1.85,-15.95c0,-4.7 0.1,-7.58333 0.3,-8.65c0.6,-3.56667 2.25,-6.55 4.95,-8.95c0.72344,-0.98229 1.40677,-1.91562 2.05,-2.8c-0.64193,-0.42734 -1.39193,-1.01068 -2.25,-1.75c-2.19336,-1.19063 -5.26003,-2.00729 -9.2,-2.45c-0.35521,0 -0.72188,0 -1.1,0M515,434.55c0.04232,-1.54609 0.14232,-2.87943 0.3,-4c-0.65234,0.94401 -1.28568,1.92734 -1.9,2.95c-2.55469,4.26354 -4.45469,8.54688 -5.7,12.85c-0.05573,1.52044 -0.15573,3.73711 -0.3,6.65c0,6.94935 1.81667,12.89935 5.45,17.85c0.7556,-3.14271 1.9056,-6.30938 3.45,-9.5c1.79518,-3.72057 3.91185,-6.68724 6.35,-8.9c-2.12865,-1.19414 -3.82865,-2.72747 -5.1,-4.6c-1.7,-2.56667 -2.55,-5.6 -2.55,-9.1c-0.03333,-1.53333 -0.03333,-2.93333 0,-4.2M485.9,551.5c0,4.96667 2.45,10.58333 7.35,16.85c4.4,5.66667 9.9,10.83333 16.5,15.5c0.9,0.63333 4.25,3.15 10.05,7.55c3.56667,2.73333 6.81667,4.85 9.75,6.35c7.83516,4.03047 19.76849,7.04714 35.8,9.05c4.15885,-1.12357 9.32552,-2.47357 15.5,-4.05c-7.16432,-0.45299 -11.68099,-3.13633 -13.55,-8.05c-0.7,-1.8 -1.05,-3.96667 -1.05,-6.5c0.16667,-2.53333 0.25,-4.15 0.25,-4.85c0,-5.43333 -0.25,-8.86667 -0.75,-10.3c-1.36667,-3.96667 -4.86667,-6.7 -10.5,-8.2c-2.2,-0.6 -4.75,-1.03333 -7.65,-1.3c-1.63333,-0.13333 -4,-0.3 -7.1,-0.5c-5.4,-0.5 -9.65,-2.15 -12.75,-4.95c-2.16667,-2 -4.75,-5.25 -7.75,-9.75c-0.67878,-1.06107 -1.31211,-2.06107 -1.9,-3c-0.48685,-0.20117 -1.02018,-0.40117 -1.6,-0.6c-4.43333,-1.53333 -9.11667,-2.3 -14.05,-2.3c-6.96667,0 -11.78333,1.33333 -14.45,4c-1.4,1.43333 -2.1,3.11667 -2.1,5.05M517.75,528.6c0,1.8513 0.85,4.7013 2.55,8.55c0.15794,0.07253 0.30794,0.13919 0.45,0.2c-0.06016,0.09635 -0.12682,0.21302 -0.2,0.35c0.1043,0.22643 0.2043,0.4431 0.3,0.65c1.96667,4.23333 3.85,7.48333 5.65,9.75c4.66667,5.86667 10.78333,9.33333 18.35,10.4c4.06667,0.36667 7.08333,0.65 9.05,0.85c3.43333,0.36667 6.21667,1.03333 8.35,2c4.33333,1.96667 7.21667,5.06667 8.65,9.3c0.83333,2.4 1.31667,6.31667 1.45,11.75c0.1,4.96667 0.63333,8.35 1.6,10.15c1.5,2.86667 4.56667,4.3 9.2,4.3c4.3,0 7.35,-0.86667 9.15,-2.6c1.43333,-1.36667 2.21667,-3.45 2.35,-6.25c-0.13333,-3.36667 -0.18333,-5.86667 -0.15,-7.5c0.00508,-0.43346 0.02174,-0.85013 0.05,-1.25c-5.33828,-1.87878 -9.53828,-5.41211 -12.6,-10.6c-2.96667,-5 -4.45,-10.01667 -4.45,-15.05c0,-7.96667 1.73333,-15 5.2,-21.1c1.52786,-2.69141 3.3112,-4.95807 5.35,-6.8c-5.29518,2.1 -10.72852,3.15 -16.3,3.15c-6.24102,0 -11.85768,-1 -16.85,-3c4.29049,6.49141 6.97383,10.45807 8.05,11.9l0.55,0.35c-0.06667,0.26667 -0.13333,0.56667 -0.2,0.9c-0.2,0.23333 -0.83333,0.35 -1.9,0.35c-6.93333,0 -13.36667,-2.88333 -19.3,-8.65c-5.6,-6.63333 -9.71667,-10.83333 -12.35,-12.6h-8c-1.76667,2.3 -2.86667,4.05 -3.3,5.25c-0.46667,1.2 -0.7,2.95 -0.7,5.25M593.75,549.45c0,-6.16667 1.58333,-11.75 4.75,-16.75c2.41875,-3.83594 5.33542,-5.98594 8.75,-6.45c-1.37656,-1.43841 -2.7099,-3.02174 -4,-4.75c-6.97956,2.70182 -12.17956,7.08516 -15.6,13.15c-2.93333,5.23333 -4.4,11.3 -4.4,18.2c0,4.23333 1.41667,8.5 4.25,12.8c4.06667,6.13333 9.98333,9.2 17.75,9.2c1.19818,0 2.38151,-0.26667 3.55,-0.8c-1.23359,-0.5276 -2.50026,-1.09427 -3.8,-1.7c-3.73333,-1.83333 -6.66667,-5.55 -8.8,-11.15c-1.63333,-4.26667 -2.45,-8.18333 -2.45,-11.75M615,576.65c-0.17109,0.19336 -0.37109,0.37669 -0.6,0.55c0.34336,0.63073 0.61003,1.36406 0.8,2.2c0.26667,1.23333 0.45,2.96667 0.55,5.2v2.55c5.71419,-2.23724 10.94753,-4.23724 15.7,-6c-1.24193,-0.23685 -2.30859,-0.42018 -3.2,-0.55c-3.59896,-0.58932 -8.01562,-1.90599 -13.25,-3.95z" fill="#000000"/><path d="M669.75,388.5c0.39479,0.84089 0.77813,1.60755 1.15,2.3c-0.55807,0.37331 -1.10807,0.70664 -1.65,1c-2.9,1.53333 -5.98333,2.3 -9.25,2.3c-2.16667,0 -5.58333,-0.5 -10.25,-1.5c-4.66667,-1 -8.25,-1.5 -10.75,-1.5c-3.9,0 -6.9,0.86667 -9,2.6c-1.66667,1.4 -3.08333,3.68333 -4.25,6.85c-0.7,1.9 -1.76667,5.11667 -3.2,9.65c-1.16523,3.19154 -2.56523,6.0582 -4.2,8.6c-0.20013,-0.84935 -0.45013,-1.78268 -0.75,-2.8c-0.23333,-0.76667 -1.01667,-3.15 -2.35,-7.15c-0.34935,-1.36706 -0.91602,-2.58372 -1.7,-3.65c10.55469,-7.25755 16.38802,-16.19089 17.5,-26.8c0.50651,0.26237 1.03984,0.52904 1.6,0.8c5.36667,2.6 8.9,3.9 10.6,3.9c3.2,0 7.91667,-1.4 14.15,-4.2c1.14622,-0.52201 2.27956,-1.07201 3.4,-1.65c3.11497,4.42956 5.88164,7.67956 8.3,9.75c0.21042,0.52083 0.42708,1.02083 0.65,1.5M703.75,316.1c0.58828,-2.75417 1.12161,-5.67083 1.6,-8.75c1.61029,6.22135 2.59362,12.60469 2.95,19.15c0.13333,1.97982 0.2,3.97982 0.2,6c0,5.99258 -0.56667,12.04258 -1.7,18.15c-2.08724,11.65026 -6.18724,23.53359 -12.3,35.65c-2.33333,4.6 -5.53333,10.53333 -9.6,17.8c-1.05378,1.98776 -1.92044,3.77109 -2.6,5.35c-0.18724,-0.22057 -0.45391,-0.50391 -0.8,-0.85c-1.43333,1.76667 -2.55,4.98333 -3.35,9.65c-0.43333,2.63333 -1.15,6.81667 -2.15,12.55c-0.57656,2.42318 -1.34323,4.55651 -2.3,6.4c1.03333,-3.56393 1.55,-8.84727 1.55,-15.85c0,-6.96667 -0.03333,-11.3 -0.1,-13c-0.04935,-1.38112 -0.13268,-2.74779 -0.25,-4.1c1.22096,-2.47148 2.3043,-5.28815 3.25,-8.45c0.04219,-0.14076 0.07552,-0.29076 0.1,-0.45c4.66901,-1.11289 7.85234,-2.19622 9.55,-3.25c0.35195,-0.23464 1.23529,-1.01797 2.65,-2.35c1.59062,-0.56419 2.44062,-1.38086 2.55,-2.45c0.39102,-0.36966 0.80768,-0.76966 1.25,-1.2l-0.5,-0.75c-0.25091,0.11068 -0.53424,0.21068 -0.85,0.3c-0.04284,-0.15326 -0.09284,-0.26992 -0.15,-0.35c-0.16667,-0.2 -0.25,-0.35 -0.25,-0.45c-0.83333,-0.33333 -2.08333,-0.5 -3.75,-0.5c-2.5,0 -5.06667,0.63333 -7.7,1.9c-0.26953,0.12474 -0.5362,0.24141 -0.8,0.35c0.5,-2.93737 0.75,-5.7707 0.75,-8.5c0,-1.03333 -0.11667,-1.63333 -0.35,-1.8c-0.33333,-0.03333 -0.63333,-0.18333 -0.9,-0.45c-0.29401,0.21003 -0.57734,0.44336 -0.85,0.7c-0.04701,-0.14115 -0.09701,-0.29115 -0.15,-0.45c-1.03333,0.5 -2.15,2.3 -3.35,5.4c-0.21315,0.54753 -0.41315,1.06419 -0.6,1.55c-1.55794,-1.78594 -3.54128,-3.73594 -5.95,-5.85c-1.12943,-0.9901 -2.17943,-1.85677 -3.15,-2.6c3.78477,-2.14206 7.4681,-4.55872 11.05,-7.25c16.33333,-12.23333 24.5,-24.98333 24.5,-38.25c0,-9.46667 -2.53333,-16.36667 -7.6,-20.7c-6.16667,-5.3 -16.96667,-7.9 -32.4,-7.8c-16,1.53333 -27.73333,9.28333 -35.2,23.25c-5.2,9.63333 -7.8,20.43333 -7.8,32.4c0.02669,0.4638 0.06003,0.9138 0.1,1.35c-0.52656,-0.30091 -1.07656,-0.61758 -1.65,-0.95c-4.7,-2.7 -9.18333,-4.55 -13.45,-5.55c-16.26667,0.63333 -27.28333,1.91667 -33.05,3.85c-3.46667,1.16667 -7.11667,3.21667 -10.95,6.15c-8.4,4.7 -13.86667,9.41667 -16.4,14.15c-1.73333,3.3 -2.6,8.5 -2.6,15.6c0,6.33333 1.26667,11.58333 3.8,15.75c5,8.33333 14.4,12.5 28.2,12.5c3.96667,0 8.9,-0.75 14.8,-2.25c7.16667,-1.83333 13.71667,-4.33333 19.65,-7.5c0.19583,-0.10417 0.37917,-0.22083 0.55,-0.35c0.54961,1.50169 1.06628,2.90169 1.55,4.2c-0.03333,0.43021 -0.05,0.89688 -0.05,1.4c0,0.89779 0.23333,2.36445 0.7,4.4c-0.46133,-0.18503 -1.37799,-0.65169 -2.75,-1.4c-1.86667,-1 -3.18333,-1.5 -3.95,-1.5c-1.1,0 -1.85,0.23333 -2.25,0.7c-0.08828,0.08828 -0.20495,0.28828 -0.35,0.6c-0.12695,-0.00586 -0.26029,-0.02253 -0.4,-0.05v0c-0.02253,0.00378 -0.05586,0.00378 -0.1,0c-0.03958,0 -0.08958,0 -0.15,0c-1.03333,0 -1.68333,0.08333 -1.95,0.25c-0.1,0.1 -0.11667,0.18333 -0.05,0.25c1.34648,1.02266 2.59648,1.92266 3.75,2.7c0.68763,0.7349 1.43763,1.35156 2.25,1.85c0.38555,0.2362 0.80221,0.45286 1.25,0.65c0.39232,0.32122 0.70898,0.57122 0.95,0.75c-1.34857,0.73242 -2.69857,1.66576 -4.05,2.8c-2.1,1.76667 -3.15,3.26667 -3.15,4.5c0,0.96667 0.08333,1.56667 0.25,1.8c0.16667,0.2 0.25,0.35 0.25,0.45c0.16667,0.33333 1.08333,0.5 2.75,0.5c1.2,0 2.18333,-0.5 2.95,-1.5c1.13333,-1.5 2.73333,-2.75 4.8,-3.75c1.15299,-0.55547 2.13633,-1.0388 2.95,-1.45c1.78164,0.46667 3.71497,0.7 5.8,0.7v0c4.32461,2.12487 7.95794,3.84154 10.9,5.15c4.85938,3.48672 9.67604,6.43672 14.45,8.85c4.13047,2.08503 7.83047,3.55169 11.1,4.4c-7.69753,-0.47435 -15.23086,-2.47435 -22.6,-6c-0.33398,-0.16706 -3.71732,-2.08372 -10.15,-5.75c-0.14323,0.08594 -0.29323,0.16927 -0.45,0.25c-1.06289,-0.43333 -1.89622,-0.65 -2.5,-0.65c-1.13333,0 -1.93333,0.06667 -2.4,0.2c-0.26667,0.06667 -0.63333,0.25 -1.1,0.55c0.70911,0.59831 1.42578,1.18164 2.15,1.75c-1.01549,0.42305 -2.09883,0.80638 -3.25,1.15c-7.16667,2.06667 -17.75,3.1 -31.75,3.1c-12.1,0 -23.45,-2.31667 -34.05,-6.95c-8.12331,-3.52865 -15.43997,-8.24531 -21.95,-14.15c0.07227,-0.04349 0.13893,-0.09349 0.2,-0.15c-1.25951,-1.02188 -2.62617,-2.23854 -4.1,-3.65c-0.67734,-0.67474 -1.34401,-1.37474 -2,-2.1c-11.87773,-13.10013 -19.6444,-29.1668 -23.3,-48.2c4.64518,5.92318 10.32852,10.82318 17.05,14.7c6.35312,3.66211 12.43646,5.82878 18.25,6.5c0.21771,-4.35456 3.26771,-10.42122 9.15,-18.2c5.36667,-7.06667 9.81667,-11.75 13.35,-14.05c4.73333,-3.06667 10.6,-5.51667 17.6,-7.35c6.63333,-1.76667 12.93333,-2.65 18.9,-2.65c4.96667,0 9.58333,0.61667 13.85,1.85c1.18997,0.35443 3.60664,1.23776 7.25,2.65c-0.06667,-0.95703 -0.1,-1.95703 -0.1,-3c0,-15.33333 5.83333,-28 17.5,-38c10.5,-9 22.41667,-13.5 35.75,-13.5c9.43333,0 17.18333,1.85 23.25,5.55c5.56667,3.4 10.23333,8.71667 14,15.95h0.5M488,546.45c2.66667,-2.66667 7.48333,-4 14.45,-4c4.93333,0 9.61667,0.76667 14.05,2.3c0.57982,0.19883 1.11315,0.39883 1.6,0.6c0.58789,0.93893 1.22122,1.93893 1.9,3c3,4.5 5.58333,7.75 7.75,9.75c3.1,2.8 7.35,4.45 12.75,4.95c3.1,0.2 5.46667,0.36667 7.1,0.5c2.9,0.26667 5.45,0.7 7.65,1.3c5.63333,1.5 9.13333,4.23333 10.5,8.2c0.5,1.43333 0.75,4.86667 0.75,10.3c0,0.7 -0.08333,2.31667 -0.25,4.85c0,2.53333 0.35,4.7 1.05,6.5c1.86901,4.91367 6.38568,7.59701 13.55,8.05c-6.17448,1.57643 -11.34115,2.92643 -15.5,4.05c-16.03151,-2.00286 -27.96484,-5.01953 -35.8,-9.05c-2.93333,-1.5 -6.18333,-3.61667 -9.75,-6.35c-5.8,-4.4 -9.15,-6.91667 -10.05,-7.55c-6.6,-4.66667 -12.1,-9.83333 -16.5,-15.5c-4.9,-6.26667 -7.35,-11.88333 -7.35,-16.85c0,-1.93333 0.7,-3.61667 2.1,-5.05M515,438.75c0,3.5 0.85,6.53333 2.55,9.1c1.27135,1.87253 2.97135,3.40586 5.1,4.6c-2.43815,2.21276 -4.55482,5.17943 -6.35,8.9c-1.5444,3.19062 -2.6944,6.35729 -3.45,9.5c-3.63333,-4.95065 -5.45,-10.90065 -5.45,-17.85c0.14427,-2.91289 0.24427,-5.12956 0.3,-6.65c1.24531,-4.30313 3.14531,-8.58646 5.7,-12.85c0.61432,-1.02266 1.24766,-2.00599 1.9,-2.95c-0.15768,1.12057 -0.25768,2.45391 -0.3,4c-0.03333,1.26667 -0.03333,2.66667 0,4.2M592.55,449.3c0.85807,0.73932 1.60807,1.32266 2.25,1.75c-0.64323,0.88437 -1.32656,1.81771 -2.05,2.8c-2.7,2.4 -4.35,5.38333 -4.95,8.95c-0.2,1.06667 -0.3,3.95 -0.3,8.65c0,4.36667 0.61667,9.68333 1.85,15.95c0.79596,4.01328 1.76263,7.84661 2.9,11.5c-1.98945,1.50326 -3.57279,2.60326 -4.75,3.3c-4.76667,2.83333 -9.2,4.25 -13.3,4.25c-9.3,0 -16.4,-1.28333 -21.3,-3.85c-7.93333,-4.13333 -11.9,-11.76667 -11.9,-22.9c0,-6.03333 1.91667,-12.15 5.75,-18.35c5.78958,-9.37656 14.63958,-14.32656 26.55,-14.85c2.91133,0.23333 5.89466,0.35 8.95,0.35c0.37812,0 0.74479,0 1.1,0c3.93997,0.44271 7.00664,1.25937 9.2,2.45z" fill="#86bcff"/><path d="M715.35,328.95c-0.46094,0.01198 -0.94427,0.02865 -1.45,0.05c0.06667,1.29427 0.1,2.5776 0.1,3.85c0,5.28477 -0.7,11.20143 -2.1,17.75h-4.65c-0.12786,0.02669 -0.27786,0.04336 -0.45,0.05c1.13333,-6.10742 1.7,-12.15742 1.7,-18.15c0,-2.02018 -0.06667,-4.02018 -0.2,-6c1.99193,0.6737 4.34193,1.49036 7.05,2.45M642.35,577.8c7.15326,3.5401 13.00326,6.2401 17.55,8.1c-6.64219,-0.07148 -11.00885,-0.38815 -13.1,-0.95c-2.80833,-0.75443 -5.34167,-1.42109 -7.6,-2c0.59479,-0.92318 1.24479,-1.95651 1.95,-3.1c0.44948,-0.74466 0.84948,-1.42799 1.2,-2.05M759.1,540.3c-2.16667,0.8 -3.25,1.75 -3.25,2.85c0,0.53333 0.08333,0.83333 0.25,0.9c0.13333,0.03333 0.51667,0.05 1.15,0.05c0.19193,-0.04115 0.40859,-0.09115 0.65,-0.15c-0.01706,0.03932 -0.03372,0.07266 -0.05,0.1c-0.01562,0.0263 -0.03229,0.04297 -0.05,0.05c-1.67266,1.09414 -3.28932,2.29414 -4.85,3.6c-2.23307,1.22331 -4.26641,2.93997 -6.1,5.15c-0.37018,0.46068 -0.73685,0.94401 -1.1,1.45c-1.12253,1.56081 -2.07253,3.21081 -2.85,4.95c-0.68385,-0.4556 -1.35052,-0.9056 -2,-1.35c-0.37201,-0.24909 -0.73867,-0.49909 -1.1,-0.75c-0.38542,-0.2599 -0.76875,-0.52656 -1.15,-0.8c2.15677,-4.29193 5.1401,-8.29193 8.95,-12c0.90924,-0.89036 1.84258,-1.74036 2.8,-2.55c7.4306,-6.32891 16.09727,-10.12891 26,-11.4c1.43568,-0.18724 2.83568,-0.32057 4.2,-0.4c-0.02461,0.60885 -0.07461,1.25885 -0.15,1.95c-0.04661,0.87708 -0.11328,1.82708 -0.2,2.85c-0.06471,0.75742 -0.13138,1.45742 -0.2,2.1c-1.23034,0.10326 -2.49701,0.25326 -3.8,0.45c-1.39062,0.20612 -2.75729,0.45612 -4.1,0.75c-3.89505,-2.7944 -7.62839,-2.2444 -11.2,1.65c-0.65065,0.16354 -1.26732,0.34687 -1.85,0.55M670.6,563.85c6.66667,0 13.21667,-1.63333 19.65,-4.9c3.26667,-1.66667 6.26667,-3.45 9,-5.35c0.5,0.5 1.15,1.13333 1.95,1.9c0.04232,0.04505 0.07565,0.07839 0.1,0.1c1.44115,1.13529 3.07448,2.66862 4.9,4.6c1.30312,1.39479 2.46979,2.56146 3.5,3.5c0.84089,0.78737 1.59089,1.4207 2.25,1.9c4.87878,3.51523 12.27878,5.34857 22.2,5.5c-0.05742,2.32643 -0.19076,4.32643 -0.4,6v0c0.79245,-0.18268 1.70911,-0.39935 2.75,-0.65c1.05599,-0.25039 2.22266,-0.53372 3.5,-0.85c0.24753,5.57201 1.63086,10.72201 4.15,15.45c-0.1569,0.09609 -0.29023,0.21276 -0.4,0.35c-0.06667,0.06667 -0.11667,0.13333 -0.15,0.2c1.48919,3.26589 2.97253,5.63255 4.45,7.1c0.02253,0.03125 0.03919,0.06458 0.05,0.1c0.42331,0.98099 0.85664,1.86432 1.3,2.65c0.49453,0.81081 0.99453,1.51081 1.5,2.1c-0.94701,-0.02253 -1.73034,-0.07253 -2.35,-0.15c-1.6444,-0.17617 -2.82773,-0.54284 -3.55,-1.1c-0.87005,-0.9125 -1.70339,-1.89583 -2.5,-2.95c-3.94362,-5.22526 -6.42695,-11.10859 -7.45,-17.65c-0.21289,-1.33073 -0.36289,-2.6974 -0.45,-4.1c-0.27305,0.03672 -0.55638,0.07005 -0.85,0.1c-0.82148,0.07904 -1.72148,0.12904 -2.7,0.15c-0.26237,0 -0.52904,0 -0.8,0c-0.08008,0 -0.16341,0 -0.25,0c-0.27786,-0.00221 -0.5612,-0.01888 -0.85,-0.05c-0.0862,0.01302 -0.1862,0.01302 -0.3,0c-0.0457,0.0138 -0.0957,0.0138 -0.15,0c-0.05234,0.0138 -0.10234,0.0138 -0.15,0c-0.10625,0.01029 -0.22292,0.01029 -0.35,0c-0.15234,-0.01185 -0.31901,-0.02852 -0.5,-0.05c-0.3918,-0.0349 -0.7918,-0.0849 -1.2,-0.15c-0.16628,-0.0043 -0.33294,-0.02096 -0.5,-0.05c-0.12995,-0.01849 -0.26328,-0.03516 -0.4,-0.05c-0.18164,-0.02826 -0.36497,-0.06159 -0.55,-0.1c-0.10898,-0.01875 -0.22565,-0.03542 -0.35,-0.05l-14.85,-6.4c-0.33542,-0.21615 -0.66875,-0.44948 -1,-0.7c-0.10534,-0.06081 -0.22201,-0.12747 -0.35,-0.2l-0.5,-0.4c-2.96667,-2.16667 -5.38333,-4.41667 -7.25,-6.75c-0.63581,-0.77461 -1.16914,-1.49128 -1.6,-2.15c-1.55456,1.15755 -3.77122,2.44089 -6.65,3.85c-7.16667,3.5 -14.41667,5.25 -21.75,5.25c-13.23333,0 -23.81667,-5.41667 -31.75,-16.25c-2.63333,-3.6 -4.76667,-7.51667 -6.4,-11.75c-0.75833,-1.96745 -1.29167,-3.56745 -1.6,-4.8c-7.79635,-0.32344 -14.66302,-2.95677 -20.6,-7.9c-0.09284,0.01094 -0.19284,0.0276 -0.3,0.05c1.29922,-1.08099 2.91589,-2.31432 4.85,-3.7c0.36901,-0.26745 0.71901,-0.53411 1.05,-0.8c2.13906,0.87695 4.78906,1.77695 7.95,2.7c3.53945,1.04492 6.33945,2.14492 8.4,3.3c0.26419,-0.29128 0.56419,-0.57461 0.9,-0.85c0.27292,0.67839 0.53958,1.34505 0.8,2c1.06458,0.80651 1.79792,1.63984 2.2,2.5c-0.1612,0.13815 -0.4112,0.43815 -0.75,0.9c5.03672,11.35026 10.10339,19.06693 15.2,23.15c4.56667,3.63333 11.2,5.45 19.9,5.45M711.3,354.6c0.37578,-1.36654 0.70911,-2.56654 1,-3.6c0.90273,-0.23581 1.78607,-0.36914 2.65,-0.4h0.3c1.21576,0.04622 2.41576,0.29622 3.6,0.75c0.9,0.33333 2.45,1.11667 4.65,2.35c2.06667,1.13333 3.76667,1.93333 5.1,2.4l1.95,-0.55c5.69505,-2.44362 12.24505,-2.72695 19.65,-0.85c0.23555,0.05937 0.46888,0.10938 0.7,0.15c-0.8,1.19453 -1.86667,2.74453 -3.2,4.65c-2.56927,-0.54596 -5.5026,-0.64596 -8.8,-0.3c-2.72057,0.29336 -5.03724,0.49336 -6.95,0.6c-2.14297,1.2 -3.3763,1.8 -3.7,1.8c-0.76667,0 -1.68333,-0.36667 -2.75,-1.1c-1.33333,-0.96667 -2.43333,-1.7 -3.3,-2.2c-3.24102,-1.89323 -7.05768,-2.49323 -11.45,-1.8c0.17565,-0.5901 0.35898,-1.22344 0.55,-1.9M614.25,230.35c0.13034,-1.7806 0.23034,-3.4306 0.3,-4.95c33.24596,3.48073 58.9793,17.58073 77.2,42.3c6.21354,8.43073 11.19687,17.68073 14.95,27.75c0.35065,0.90638 0.68398,1.80638 1,2.7c-0.21589,0.1526 -0.43255,0.3026 -0.65,0.45c-0.19505,0.12383 -0.39505,0.24049 -0.6,0.35c-1.10742,0.72357 -2.12409,1.37357 -3.05,1.95c-1.2875,-3.88737 -2.8375,-7.70404 -4.65,-11.45c-5.83333,-12.03333 -13.91667,-22.73333 -24.25,-32.1c-9.43333,-8.53333 -19.83333,-15.21667 -31.2,-20.05c-10.25117,-4.37083 -19.93451,-6.6875 -29.05,-6.95z" fill="#210c2a"/><path d="M758.3,585.6c0.45234,0.76042 0.93568,1.49375 1.45,2.2c2.53398,3.45065 5.55065,6.23398 9.05,8.35c-3.17552,1.63333 -7.02552,2.45 -11.55,2.45c-2.03385,0 -4.13385,-0.41667 -6.3,-1.25c-0.65612,-1.13815 -1.18945,-2.43815 -1.6,-3.9c-0.56315,-2.05547 -0.89648,-5.05547 -1,-9c1.86419,1.03333 3.91419,1.55 6.15,1.55c1.3224,0 2.58906,-0.13333 3.8,-0.4M750,571.2c-1.34023,1.70872 -2.3569,4.02539 -3.05,6.95c-0.02591,0.10964 -0.05924,0.20964 -0.1,0.3c-0.53477,-0.7694 -1.0181,-1.6694 -1.45,-2.7c-0.57279,-1.38555 -0.98945,-2.80221 -1.25,-4.25c0.75612,-0.19049 2.47279,-0.62383 5.15,-1.3c0.2332,0.33828 0.46654,0.67161 0.7,1M754.6,577.65c0.44544,1.37344 0.96211,2.70677 1.55,4c-1.34388,0.27891 -2.77721,0.42891 -4.3,0.45c-1.23932,-0.3207 -2.35599,-0.90404 -3.35,-1.75c0.28346,-1.55182 0.8668,-3.38516 1.75,-5.5c0.31979,-0.78477 0.63646,-1.50143 0.95,-2.15c0.82357,0.90937 1.72357,1.75937 2.7,2.55c0.19883,0.75352 0.43216,1.55352 0.7,2.4M801.2,588.55c1.90326,-3.87214 3.33659,-7.75547 4.3,-11.65c0.94102,-0.24388 1.84102,-0.51055 2.7,-0.8c1.52018,-0.51654 2.82018,-1.04987 3.9,-1.6c-0.72982,5.45443 -2.42982,10.48776 -5.1,15.1c-0.76654,1.32891 -1.59987,2.57891 -2.5,3.75c-1.32734,0.82057 -2.04401,1.27057 -2.15,1.35c-1.98672,1.05716 -4.18672,1.82383 -6.6,2.3c2.04844,-2.40417 3.8651,-5.22083 5.45,-8.45M782.55,605.95c3.21523,-1.03203 6.1319,-2.58203 8.75,-4.65c1.96263,-0.10443 3.8293,-0.38776 5.6,-0.85c-4.04128,2.69232 -8.82461,4.52565 -14.35,5.5M762.1,605.65c-1.40885,-0.37852 -2.75885,-0.84518 -4.05,-1.4c0.03333,-0.15378 0.05,-0.32044 0.05,-0.5c0,-0.5 -0.03333,-0.8 -0.1,-0.9c-0.1,-0.1 -0.15,-0.18333 -0.15,-0.25c-1.02539,-0.29414 -1.97539,-0.69414 -2.85,-1.2c1.20391,0.13333 2.53724,0.2 4,0.2c4.96289,0 9.37956,-1.2 13.25,-3.6c4.19271,1.89805 8.97604,2.98138 14.35,3.25c-4.60729,3 -10.05729,4.5 -16.35,4.5c-1.33333,-0.26667 -2.25,-0.31667 -2.75,-0.15v0.75c0.23073,0.12018 0.4474,0.22018 0.65,0.3c-2.12201,-0.1638 -4.13867,-0.49714 -6.05,-1M780.55,582.25c-3.21146,5.69141 -5.91146,9.50807 -8.1,11.45c-0.1375,0.12135 -0.2875,0.23802 -0.45,0.35c-3.90742,-1.8513 -7.35742,-4.43464 -10.35,-7.75c-0.38451,-0.42669 -0.76784,-0.86003 -1.15,-1.3c2.10911,-0.74688 3.99245,-1.93021 5.65,-3.55c2.74674,0.76667 5.53008,1.15 8.35,1.15c2.09206,0 4.10872,-0.11667 6.05,-0.35M755.45,576.45c0.57956,0.3944 1.17956,0.77773 1.8,1.15c1.31315,0.79102 2.62982,1.49102 3.95,2.1c-1.02865,0.61719 -2.14531,1.11719 -3.35,1.5c-0.73763,-1.19466 -1.38763,-2.42799 -1.95,-3.7c-0.15508,-0.36185 -0.30508,-0.71185 -0.45,-1.05M784.9,581.55c2.94284,-0.60951 5.69284,-1.50951 8.25,-2.7c3.09583,-0.22852 5.94583,-0.59518 8.55,-1.1c-0.80091,2.90872 -1.86758,5.84206 -3.2,8.8c-2.01055,4.43724 -4.46055,8.10391 -7.35,11c-0.60065,0.03333 -1.21732,0.05 -1.85,0.05c-5.01641,0 -9.58307,-0.7 -13.7,-2.1c3.36406,-2.99102 6.23073,-7.07435 8.6,-12.25c0.25208,-0.55365 0.48542,-1.12031 0.7,-1.7M802.6,573.95c-0.75052,0.19831 -1.55052,0.36497 -2.4,0.5c0.98971,-0.76953 1.90638,-1.60286 2.75,-2.5c-0.10234,0.68125 -0.21901,1.34792 -0.35,2M746.25,559.1c0,2.98477 0.51667,5.7181 1.55,8.2c-0.22969,0.09805 -0.46302,0.19805 -0.7,0.3c-1.40612,0.60755 -2.47279,1.19089 -3.2,1.75c-0.03333,-0.45286 -0.05,-0.91953 -0.05,-1.4c0,-3.32721 0.8,-6.39388 2.4,-9.2c0,0.12344 0,0.2401 0,0.35M811.6,559.2c0.6,2.75833 0.9,5.75833 0.9,9c0,0.21497 0,0.43164 0,0.65c-0.28945,0.16875 -0.58945,0.38542 -0.9,0.65c-1.36667,1.13333 -2.56667,1.98333 -3.6,2.55c-0.51029,0.26237 -1.06029,0.51237 -1.65,0.75c0.33737,-2.06068 0.53737,-4.12734 0.6,-6.2c1.38945,-2.38776 2.43945,-5.02109 3.15,-7.9c0.50339,0.31016 1.00339,0.47682 1.5,0.5M745.85,591.2c0,0.09648 0.38333,1.44648 1.15,4.05c-0.25768,-0.21211 -0.49102,-0.42878 -0.7,-0.65c-0.3599,-0.38333 -0.62656,-0.78333 -0.8,-1.2c-0.1,-0.28672 -0.15,-0.58672 -0.15,-0.9c0,-0.33333 -0.36667,-0.83333 -1.1,-1.5c-0.03529,0.01758 -0.06862,0.03424 -0.1,0.05c-2.51914,-4.72799 -3.90247,-9.87799 -4.15,-15.45c0.00326,-0.44193 0.00326,-0.89193 0,-1.35v-0.05c0,-0.08581 0,-0.16914 0,-0.25c0,-2.74661 0.31667,-5.39661 0.95,-7.95c-0.3,1.81068 -0.45,3.69401 -0.45,5.65c0,3.16667 1.21667,6.23333 3.65,9.2c0.64727,0.79375 1.3306,1.49375 2.05,2.1c-0.23333,2.36003 -0.35,5.11003 -0.35,8.25z" fill="#343545"/><path d="M750.3,569.95c0.49701,-0.15039 0.96367,-0.30039 1.4,-0.45c-0.61159,0.47695 -1.17826,1.04362 -1.7,1.7c-0.23346,-0.32839 -0.4668,-0.66172 -0.7,-1c0.32826,-0.08138 0.66159,-0.16471 1,-0.25M753.85,570c-0.33333,0.2082 -0.5,0.67487 -0.5,1.4c0,1.04049 0.18333,2.32383 0.55,3.85c-0.97643,-0.79062 -1.87643,-1.64062 -2.7,-2.55c0.71992,-1.32344 1.45326,-2.3401 2.2,-3.05c0.15326,0.12852 0.30326,0.24518 0.45,0.35M774.5,582.6c-2.81992,0 -5.60326,-0.38333 -8.35,-1.15c1.29635,-1.18685 2.46302,-2.63685 3.5,-4.35c4.25521,1.2487 8.43854,1.93203 12.55,2.05c-0.26016,0.57917 -0.54349,1.14583 -0.85,1.7c-0.26849,0.48685 -0.53516,0.95352 -0.8,1.4c-1.94128,0.23333 -3.95794,0.35 -6.05,0.35M765.6,575.8c-1.25625,1.60143 -2.72292,2.90143 -4.4,3.9c-1.32018,-0.60898 -2.63685,-1.30898 -3.95,-2.1c-0.62044,-0.37227 -1.22044,-0.7556 -1.8,-1.15c-0.8,-2.08281 -1.2,-3.78281 -1.2,-5.1c0,-0.38346 0.03333,-0.7168 0.1,-1c2.51159,1.68529 5.72826,3.30195 9.65,4.85c0.53581,0.21224 1.06914,0.41224 1.6,0.6M785.85,579.15c2.56706,-0.01901 5.00039,-0.11901 7.3,-0.3c-2.55716,1.19049 -5.30716,2.09049 -8.25,2.7c0.34258,-0.77122 0.65924,-1.57122 0.95,-2.4M800.7,551c1.86667,4.31667 2.8,8.95 2.8,13.9c0,2.33503 -0.18333,4.68503 -0.55,7.05c-0.84362,0.89714 -1.76029,1.73047 -2.75,2.5c-3.61237,0.68359 -8.01237,1.08359 -13.2,1.2c0.56159,-1.91914 1.04492,-3.91914 1.45,-6c0.7,-3.5 1.05,-6.23333 1.05,-8.2c0,-3.66667 -0.06667,-5.81667 -0.2,-6.45c-0.18789,-0.72812 -0.80456,-2.24479 -1.85,-4.55c1.90794,-0.16667 3.85794,-0.25 5.85,-0.25c2.95247,0 5.41914,0.26667 7.4,0.8M772.45,554.2c3.62643,-1.51081 7.4431,-2.59414 11.45,-3.25c0.11979,0.21003 0.23646,0.42669 0.35,0.65c1.16667,2.26667 1.75,5.51667 1.75,9.75c0,3.6 -0.31667,6.83333 -0.95,9.7c-0.34049,1.57878 -0.79049,3.12878 -1.35,4.65c-0.06471,0 -0.13138,0 -0.2,0c-3.69479,0 -7.77813,-0.53333 -12.25,-1.6c1.83333,-3.76562 2.75,-7.18229 2.75,-10.25c0,-3.76263 -0.51667,-6.9793 -1.55,-9.65M769.85,555.4c0.5,1.49883 0.75,3.24883 0.75,5.25c0,4.3 -1.01667,8.35 -3.05,12.15c-0.04674,0.08815 -0.09674,0.17148 -0.15,0.25c-2.28945,-0.66641 -4.67279,-1.46641 -7.15,-2.4c-2.2444,-0.91042 -3.97773,-1.59375 -5.2,-2.05l-0.1,-0.4c0.86667,-0.45716 1.3,-0.87383 1.3,-1.25c0,-0.26667 -0.11667,-0.48333 -0.35,-0.65c-0.24023,-0.12943 -0.47357,-0.26276 -0.7,-0.4c2.40742,-2.35768 5.14076,-4.59102 8.2,-6.7c2.07422,-1.43607 4.22422,-2.70273 6.45,-3.8M765.75,542.85c7.17708,0 12.47708,1.7 15.9,5.1c-3.81224,1.06745 -7.27891,2.31745 -10.4,3.75c-0.70221,-1.15143 -1.53555,-2.1681 -2.5,-3.05c-2.20625,-2.01849 -4.75625,-3.05182 -7.65,-3.1c0.87682,-0.89622 1.84349,-1.74622 2.9,-2.55c0.83034,-0.1 1.41367,-0.15 1.75,-0.15M758,549.6c3.30547,-0.84805 6.10547,-0.48138 8.4,1.1c0.90859,0.61654 1.65859,1.3832 2.25,2.3c-1.8849,1.01276 -3.6349,2.11276 -5.25,3.3c-3.40104,2.47344 -6.40104,5.57344 -9,9.3c0.47331,-6.34414 1.22331,-10.77747 2.25,-13.3c0.38581,-0.93919 0.83581,-1.83919 1.35,-2.7M753.6,553.7c-1,3.2 -1.5,5.58333 -1.5,7.15c0,0.96667 0.11667,2.23333 0.35,3.8c0.06836,0.44427 0.13503,0.84427 0.2,1.2c-1.5737,0.30755 -3.19036,0.79089 -4.85,1.45c-1.03333,-2.4819 -1.55,-5.21523 -1.55,-8.2c0,-0.1099 0,-0.22656 0,-0.35c0.51732,-0.88815 1.11732,-1.75482 1.8,-2.6c1.86862,-2.34206 4.05195,-4.12539 6.55,-5.35c-0.34948,0.9457 -0.68281,1.91237 -1,2.9M787.1,537.05c4.77917,1.91133 8.5625,5.09466 11.35,9.55c-1.16354,-0.07005 -2.66354,-0.13672 -4.5,-0.2c-3.8,-0.1 -5.7,-0.08333 -5.7,0.05c-0.86471,0.16901 -1.71471,0.33568 -2.55,0.5c-3.97214,-4.27539 -9.15547,-6.77539 -15.55,-7.5c0.79622,-0.34974 1.61289,-0.68307 2.45,-1c-0.14622,-0.11445 -0.29622,-0.23112 -0.45,-0.35c1.34271,-0.29388 2.70937,-0.54388 4.1,-0.75c1.30299,-0.19674 2.56966,-0.34674 3.8,-0.45c1.61029,-0.09492 3.16029,-0.11159 4.65,-0.05c0.83047,0.03737 1.63047,0.10404 2.4,0.2M784.75,540.6c0,1.16667 1.33333,2 4,2.5c0.6,0.1 2.18333,0.88333 4.75,2.35l0.25,-0.35c-0.2,-0.43333 -0.81667,-1.23333 -1.85,-2.4c-0.93333,-1.03333 -1.53333,-1.98333 -1.8,-2.85c-1.1,-2.1 -2.31667,-2.71667 -3.65,-1.85c-1.13333,0.76667 -1.7,1.63333 -1.7,2.6M780,540.95c1.66667,0 2.5,-0.7 2.5,-2.1c0,-1.13333 -0.76667,-1.66667 -2.3,-1.6c-1.56667,0.06667 -2.35,0.71667 -2.35,1.95c0,0.46667 0.05,0.78333 0.15,0.95c0.3,0.53333 0.96667,0.8 2,0.8M757.8,544.1c-0.3944,0.68867 -0.77773,1.38867 -1.15,2.1c-1.28021,0.37135 -2.51354,0.87135 -3.7,1.5c1.56068,-1.30586 3.17734,-2.50586 4.85,-3.6M806.8,557.1c-0.05742,-0.22969 -0.47409,-1.41302 -1.25,-3.55c0.31901,0.28581 0.65234,0.61914 1,1c0.17474,0.15534 0.34141,0.28867 0.5,0.4c0.68516,1.10638 1.11849,1.77305 1.3,2c0.57604,0.78542 1.15938,1.36875 1.75,1.75c-0.71055,2.87891 -1.76055,5.51224 -3.15,7.9c0.03333,-0.57917 0.05,-1.1625 0.05,-1.75c0,-4.5 -0.06667,-7.08333 -0.2,-7.75M803.25,547.2c-2.02643,-2.99557 -4.27643,-5.51224 -6.75,-7.55c1.63268,0.76224 3.18268,1.67891 4.65,2.75c3.15508,2.27943 5.65508,5.09609 7.5,8.45c-0.66198,-0.57383 -1.49531,-1.20716 -2.5,-1.9c-1.1,-0.8 -1.98333,-1.31667 -2.65,-1.55c-0.06133,-0.02188 -0.12799,-0.05521 -0.2,-0.1c-0.0168,-0.02135 -0.03346,-0.05469 -0.05,-0.1z" fill="#485e84"/><path d="M778,540.15c-0.1,-0.16667 -0.15,-0.48333 -0.15,-0.95c0,-1.23333 0.78333,-1.88333 2.35,-1.95c1.53333,-0.06667 2.3,0.46667 2.3,1.6c0,1.4 -0.83333,2.1 -2.5,2.1c-1.03333,0 -1.7,-0.26667 -2,-0.8M790.1,539.85c0.26667,0.86667 0.86667,1.81667 1.8,2.85c1.03333,1.16667 1.65,1.96667 1.85,2.4l-0.25,0.35c-2.56667,-1.46667 -4.15,-2.25 -4.75,-2.35c-2.66667,-0.5 -4,-1.33333 -4,-2.5c0,-0.96667 0.56667,-1.83333 1.7,-2.6c1.33333,-0.86667 2.55,-0.25 3.65,1.85z" fill="#8fbbbe"/><path d="M746.3,397.2c-1.12083,1.33099 -2.05417,2.43099 -2.8,3.3c-5.50156,-0.74023 -10.5849,-0.9569 -15.25,-0.65c-8.13333,-0.6 -18.7,3.11667 -31.7,11.15c-5.36667,3.26667 -9.81667,6.55 -13.35,9.85c-0.16315,0.1543 -0.32982,0.3043 -0.5,0.45c0.02409,-0.14648 0.04076,-0.29648 0.05,-0.45l0.5,-0.25c4.27591,-7.20534 8.24258,-14.70534 11.9,-22.5c12.40859,-0.18385 20.87526,-2.71719 25.4,-7.6c1.3,-1.36667 2.63333,-3.46667 4,-6.3c1.33333,-2.66667 2.48333,-4.45 3.45,-5.35c0.43333,0.1 2.06667,0.43333 4.9,1c2.43333,0.46667 3.88333,0.8 4.35,1h12c3.06406,-2.52253 5.66406,-5.05586 7.8,-7.6c-0.35885,1.54336 -1.45885,5.07669 -3.3,10.6c-1.43333,4.23333 -3.91667,8.68333 -7.45,13.35z" fill="#246f44"/><path d="M660.35,452.75c-2.02995,3.25716 -5.22995,6.20716 -9.6,8.85c-2.26667,1.33333 -5.3,2.23333 -9.1,2.7c-0.76042,0.0875 -1.47708,0.17083 -2.15,0.25c-0.88568,1.98294 -1.81901,4.71628 -2.8,8.2c-1.63333,5.83333 -2.45,10.45 -2.45,13.85c0,9 2.4,17.48333 7.2,25.45c3.51367,5.85599 7.11367,9.72266 10.8,11.6c-1.69245,3.61055 -2.69245,5.67721 -3,6.2v6.75c0.66667,0.16667 1.35,0.35 2.05,0.55c0.56667,0.13333 1.38333,0.2 2.45,0.2c2.93333,0 6.68333,-1.38333 11.25,-4.15c4.13333,-2.86667 6.38333,-4.4 6.75,-4.6c0.13333,0.86667 0.13333,2.36667 0,4.5c0.26667,1.8 1.43333,2.96667 3.5,3.5l7.05,0.5c4.93333,0.33333 7.91667,0.5 8.95,0.5c2.72305,0 5.63971,-0.08333 8.75,-0.25c3.16771,2.67617 8.01771,6.37617 14.55,11.1c0.75833,0.55339 1.54167,1.12005 2.35,1.7c9.07122,6.47591 15.53789,10.49258 19.4,12.05c-0.5849,1.93411 -1.0349,3.90078 -1.35,5.9c-0.13815,0.99883 -0.25482,1.99883 -0.35,3c-0.1319,-0.00143 -0.2819,-0.00143 -0.45,0c-9.92122,-0.15143 -17.32122,-1.98477 -22.2,-5.5c-0.65911,-0.4793 -1.40911,-1.11263 -2.25,-1.9c-1.03021,-0.93854 -2.19688,-2.10521 -3.5,-3.5c-1.82552,-1.93138 -3.45885,-3.46471 -4.9,-4.6c-0.02435,-0.02161 -0.05768,-0.05495 -0.1,-0.1c-0.8,-0.76667 -1.45,-1.4 -1.95,-1.9c-2.73333,1.9 -5.73333,3.68333 -9,5.35c-6.43333,3.26667 -12.98333,4.9 -19.65,4.9c-8.7,0 -15.33333,-1.81667 -19.9,-5.45c-5.09661,-4.08307 -10.16328,-11.79974 -15.2,-23.15c0.3388,-0.46185 0.5888,-0.76185 0.75,-0.9c-0.40208,-0.86016 -1.13542,-1.69349 -2.2,-2.5c-0.26042,-0.65495 -0.52708,-1.32161 -0.8,-2c-0.33581,0.27539 -0.63581,0.55872 -0.9,0.85c-2.06055,-1.15508 -4.86055,-2.25508 -8.4,-3.3c-3.16094,-0.92305 -5.81094,-1.82305 -7.95,-2.7c-2.90469,-1.16927 -4.82135,-2.28594 -5.75,-3.35c-1.76667,-2.1 -3.63333,-4.8 -5.6,-8.1c-2.16667,-3.6 -3.55,-6.4 -4.15,-8.4c-2.86667,-8.53333 -4.71667,-14.41667 -5.55,-17.65c-1.3,-4.86667 -1.95,-10.11667 -1.95,-15.75c0,-5.86667 0.91667,-10.06667 2.75,-12.6c0.9,-1.26667 2.6,-3.13333 5.1,-5.6c4.15664,-4.12682 7.03997,-7.01016 8.65,-8.65c2.43047,-0.4819 4.68047,-1.04857 6.75,-1.7c2.72344,-0.86003 4.85677,-1.72669 6.4,-2.6c2.13711,1.49154 4.33711,2.89154 6.6,4.2c9.53333,5.56667 19.2,8.35 29,8.35c0.71615,0 1.41615,-0.03333 2.1,-0.1M778.65,408.45c3.73333,3.4 6.76667,5.78333 9.1,7.15h-1c-5.87435,-1.49128 -10.42435,-2.72461 -13.65,-3.7c-2.13464,-3.77852 -8.3513,-6.87852 -18.65,-9.3c-0.95404,-0.22565 -1.90404,-0.44232 -2.85,-0.65c2.49258,-2.90768 4.87591,-7.59102 7.15,-14.05c0.57279,0.3599 1.07279,0.59323 1.5,0.7c8.88724,0 16.80391,0.1 23.75,0.3c-0.81901,0.39792 -1.68568,0.83125 -2.6,1.3c-6.43333,3.33333 -9.65,6.38333 -9.65,9.15c0,1.9 2.3,4.93333 6.9,9.1M817.7,503.35c1.36667,1.46667 2.05,2.8 2.05,4c0,0.91927 -0.66667,1.71927 -2,2.4c-1.1418,0.62839 -2.80846,1.16172 -5,1.6c-4.66667,0.9 -7,2.15 -7,3.75c0,4.3 1.83333,7.8 5.5,10.5c3.2,2.33333 6.78333,3.5 10.75,3.5c4.19961,0 7.88294,-0.68333 11.05,-2.05c-5.75,6.07109 -13.41667,9.97109 -23,11.7c-1.06875,0.20924 -2.16875,0.37591 -3.3,0.5c-0.50326,-0.49349 -1.03659,-0.97682 -1.6,-1.45c-4.57227,-3.83672 -9.83893,-6.27005 -15.8,-7.3c-1.20443,-0.19388 -2.45443,-0.34388 -3.75,-0.45c0.27044,-0.7 0.53711,-1.48333 0.8,-2.35c1.06667,-3.66667 1.6,-6 1.6,-7c0,-0.28919 -0.05,-0.52253 -0.15,-0.7c1.2013,-0.55 2.11797,-1.01667 2.75,-1.4c4.2,-2.53333 6.5,-5.7 6.9,-9.5c5.8625,-1.39714 10.1125,-2.54714 12.75,-3.45c0.57839,-0.1944 1.07839,-0.37773 1.5,-0.55c2.15169,-0.84479 3.78503,-1.77813 4.9,-2.8c0.13177,0.14479 0.2651,0.27813 0.4,0.4c0.21081,0.21523 0.42747,0.4319 0.65,0.65z" fill="#c7463f"/><path d="M821.75,393.4c0.51172,0.23268 0.99505,0.46602 1.45,0.7c0.73333,0.36667 2.5,1.53333 5.3,3.5c3.3,2.33333 5.85,5.3 7.65,8.9c1.03333,2 2.23333,4.78333 3.6,8.35c2.4,5.03333 4.61667,10.61667 6.65,16.75c2.56667,7.7 3.85,13.61667 3.85,17.75c0,1.56667 -2.11667,5.61667 -6.35,12.15c-4.26667,6.26667 -6.4,9.46667 -6.4,9.6c0,0.96667 0.08333,1.56667 0.25,1.8c0.16667,0.2 0.25,0.35 0.25,0.45l0.45,0.25c0.17174,0.05729 0.37174,0.10729 0.6,0.15c0.49727,1.49115 1.31393,4.29115 2.45,8.4c0.37513,1.36315 0.70846,2.62982 1,3.8c1.33333,5.03346 2,8.20013 2,9.5c0,1.16133 -0.03333,2.29466 -0.1,3.4c-0.50091,8.94023 -3.00091,16.74023 -7.5,23.4c-1.17187,1.73281 -2.45521,3.33281 -3.85,4.8c-3.16706,1.36667 -6.85039,2.05 -11.05,2.05c-3.96667,0 -7.55,-1.16667 -10.75,-3.5c-3.66667,-2.7 -5.5,-6.2 -5.5,-10.5c0,-1.6 2.33333,-2.85 7,-3.75c2.19154,-0.43828 3.8582,-0.97161 5,-1.6c1.33333,-0.68073 2,-1.48073 2,-2.4c0,-1.2 -0.68333,-2.53333 -2.05,-4c-0.22253,-0.2181 -0.43919,-0.43477 -0.65,-0.65c-0.1349,-0.12188 -0.26823,-0.25521 -0.4,-0.4c1.23333,-1.09544 1.85,-2.29544 1.85,-3.6c0,-2 -1.23333,-4.03333 -3.7,-6.1c-2.66667,-2.2 -5.68333,-3.45 -9.05,-3.75v0.75c0.46667,1.03333 1.7,2.55 3.7,4.55c2.13333,2.1 3.31667,3.33333 3.55,3.7c-3.12083,2.13138 -7.0375,3.71471 -11.75,4.75c-1.20703,0.28555 -2.4737,0.51888 -3.8,0.7c-0.27643,0.06042 -0.55977,0.11042 -0.85,0.15c-3.13333,0.43333 -5.01667,0.75 -5.65,0.95c-1.46667,0.43333 -2.2,1.11667 -2.2,2.05c0,0.6 0.91667,1.81667 2.75,3.65c-1.66667,5.6 -15.1,10.8 -40.3,15.6c-8.28932,1.57656 -16.23932,2.8599 -23.85,3.85c-12.80951,1.68477 -24.62617,2.53477 -35.45,2.55c-0.10195,0 -0.20195,0 -0.3,0c-4.9,-0.33333 -9.85,-0.66667 -14.85,-1c0,-1.03333 0.33333,-2.6 1,-4.7c0.66667,-2.06667 1,-3.5 1,-4.3c0,-1.1 -0.26667,-1.93333 -0.8,-2.5c-0.3,-0.33333 -0.86667,-0.66667 -1.7,-1c-2.36667,1.6 -5.71667,4.11667 -10.05,7.55c-4.1,2.86667 -8.41667,4.85 -12.95,5.95c1.86667,-5.23333 3.36667,-10.48333 4.5,-15.75c-0.1,-0.3 -0.3,-0.51667 -0.6,-0.65l-0.4,-0.1c-1.13333,1.4 -2.48333,3.76667 -4.05,7.1c-0.15221,0.325 -0.30221,0.64167 -0.45,0.95c-3.68633,-1.87734 -7.28633,-5.74401 -10.8,-11.6c-4.8,-7.96667 -7.2,-16.45 -7.2,-25.45c0,-3.4 0.81667,-8.01667 2.45,-13.85c0.98099,-3.48372 1.91432,-6.21706 2.8,-8.2c0.67292,-0.07917 1.38958,-0.1625 2.15,-0.25c3.8,-0.46667 6.83333,-1.36667 9.1,-2.7c4.37005,-2.64284 7.57005,-5.59284 9.6,-8.85c10.16497,-0.72318 16.96497,-6.93984 20.4,-18.65c0.32917,-1.12669 0.6125,-2.36003 0.85,-3.7c8.05065,-6.87318 14.58398,-11.83984 19.6,-14.9c10.93333,-6.76667 21.4,-10.15 31.4,-10.15c8.3,0 16.95,1.35 25.95,4.05c4.63333,1.43333 9.61667,3.08333 14.95,4.95l0.25,-0.75c-0.13724,-0.56966 -0.35391,-1.13633 -0.65,-1.7c3.22565,0.97539 7.77565,2.20872 13.65,3.7h1c-2.33333,-1.36667 -5.36667,-3.75 -9.1,-7.15c-4.6,-4.16667 -6.9,-7.2 -6.9,-9.1c0,-2.76667 3.21667,-5.81667 9.65,-9.15c0.91432,-0.46875 1.78099,-0.90208 2.6,-1.3c13.76042,0.39401 23.76042,1.17734 30,2.35c2.47813,0.45651 4.64479,1.02318 6.5,1.7c0.24349,0.31549 0.49349,0.61549 0.75,0.9c0.17396,-0.12656 0.34063,-0.27656 0.5,-0.45z" fill="#ffa420"/><path d="M722.2,358.3c0.86667,0.5 1.96667,1.23333 3.3,2.2c1.06667,0.73333 1.98333,1.1 2.75,1.1c0.3237,0 1.55703,-0.6 3.7,-1.8c1.91276,-0.10664 4.22943,-0.30664 6.95,-0.6c3.2974,-0.34596 6.23073,-0.24596 8.8,0.3c1.67057,0.35286 3.18724,0.8862 4.55,1.6c0.73333,0.36667 2.13333,1.85 4.2,4.45c0.18646,0.22786 0.36979,0.44453 0.55,0.65c0.00221,0.37604 0.00221,0.74271 0,1.1c-0.40872,0.44115 -0.84206,0.90781 -1.3,1.4c-4,4.3 -6.56667,7.01667 -7.7,8.15h-9.5c-2.56667,-0.36667 -4.91667,-0.9 -7.05,-1.6c-1.76667,-0.6 -3,-0.9 -3.7,-0.9c-1.63333,0 -3.36667,1.38333 -5.2,4.15c-2,3.5 -3.51667,5.95 -4.55,7.35c-2.46667,3.3 -6.4,5.81667 -11.8,7.55c-4.26003,1.08815 -7.69336,2.08815 -10.3,3c2.77135,-5.95299 5.35469,-12.08633 7.75,-18.4c2.92227,-7.72214 5.22227,-14.87214 6.9,-21.45c0.06979,-0.01185 0.13646,-0.02852 0.2,-0.05c4.39232,-0.69323 8.20898,-0.09323 11.45,1.8z" fill="#91c53c"/></g><path d="M814.05,469.65c-3.63333,2.1 -8.11667,4.45 -13.45,7.05c-5.56667,2.73333 -8.51667,4.2 -8.85,4.4c1.43333,-0.03333 7.71667,-0.21667 18.85,-0.55c10.43333,0.26667 15.65,1.86667 15.65,4.8c0,7.03333 -10.83333,12.61667 -32.5,16.75c-15.8,3 -30.38333,4.5 -43.75,4.5c-0.83333,0 -8.75,-0.33333 -23.75,-1c-9.8,3.23333 -16.13333,5.06667 -19,5.5c-6.7,0.9 -10.28333,1.38333 -10.75,1.45c-4.36667,0.56667 -8.11667,0.91667 -11.25,1.05c-1.06667,0.03333 -8.4,0.55 -22,1.55c-13,0.96667 -21.08333,1.45 -24.25,1.45c-3.46667,0 -6.05,-0.16667 -7.75,-0.5c-4.33333,-0.86667 -6.5,-2.7 -6.5,-5.5c0,-4.96667 7.71667,-8.58333 23.15,-10.85c7.86667,-1.16667 16.48333,-2.05 25.85,-2.65v-0.5c-1.36667,-0.5 -5.05,-1.36667 -11.05,-2.6c-7.1,-1.46667 -12.51667,-2.68333 -16.25,-3.65c-14.13333,-3.76667 -21.2,-8.01667 -21.2,-12.75c0.43333,-1.5 1.1,-3 2,-4.5c1.8,-3 3.88333,-4.5 6.25,-4.5c0.20898,0 0.44232,0.01667 0.7,0.05c-0.00456,0.07422 -0.07122,0.12422 -0.2,0.15c-0.16667,0.06667 -0.25,0.33333 -0.25,0.8c0,1 0.33333,2.16667 1,3.5v-2.5c0,-0.31341 -0.1,-0.94674 -0.3,-1.9c-0.00794,-0.03333 -0.02461,-0.06667 -0.05,-0.1c0.75065,-0.01276 1.83398,-0.09609 3.25,-0.25c1.53333,-0.16667 2.48333,-0.25 2.85,-0.25c19.16667,2.9 32.91667,4.9 41.25,6c7.23333,0.93333 13.83333,2.25 19.8,3.95c6.3,1.8 12.36667,4.15 18.2,7.05v-3c-0.63333,-1.1 -1.13333,-2.91667 -1.5,-5.45c-0.43333,-3 -0.76667,-4.85 -1,-5.55v-3.5h0.5c1.06667,2.6 2.85,6.13333 5.35,10.6c3.1,5.56667 4.81667,8.7 5.15,9.4c2.86667,-4.83333 4.43333,-7.46667 4.7,-7.9c2.16667,-3.4 3.76667,-5.43333 4.8,-6.1c-0.16667,0.36667 -1.6,3.08333 -4.3,8.15c-2.46667,4.63333 -3.7,7.16667 -3.7,7.6v0.75c7.83333,-5.1 21.75,-12.53333 41.75,-22.3c26.86667,-13.13333 45.03333,-19.7 54.5,-19.7c1.96667,0 3.4,0.33333 4.3,1c0.96667,0.73333 1.45,1.98333 1.45,3.75c0,4.4 -5.9,10 -17.7,16.8z" fill="#c7463f"/><path d="M715.7,489.15c7.56667,3.53333 11.35,5.85 11.35,6.95c0,0.21432 -0.03333,0.39766 -0.1,0.55c0.73333,1.02448 1.1,2.00781 1.1,2.95c0,1.43333 -2.95,2.41667 -8.85,2.95c-13.93333,1.3 -24.08333,2.41667 -30.45,3.35c-8.8,1.36667 -15.61667,2.35 -20.45,2.95c-8.23333,1.06667 -17.41667,1.9 -27.55,2.5h-4.5c-0.93333,-0.76667 -2.13333,-3.11667 -3.6,-7.05c-1.33333,-3.6 -2,-5.83333 -2,-6.7c0,-0.63333 0.03333,-1.01667 0.1,-1.15c0.16667,-0.43333 0.66667,-0.78333 1.5,-1.05c6.06667,0.13333 10.9,-0.11667 14.5,-0.75c0.8224,-0.2056 1.83906,0.1444 3.05,1.05c5.34245,-0.27448 9.99245,-0.62448 13.95,-1.05l13,-0.25c-2.67174,-0.78659 -4.83841,-1.45326 -6.5,-2c-5.13333,-1.63333 -9.41667,-3 -12.85,-4.1c-6.43333,-2.06667 -10.96667,-3.63333 -13.6,-4.7c-2.56667,-0.5 -4.48333,-0.93333 -5.75,-1.3c-2.23333,-0.63333 -3.58333,-2.01667 -4.05,-4.15c-0.7,-2.83333 -1.15,-4.93333 -1.35,-6.3c-0.03333,-0.26667 -0.43333,-2.41667 -1.2,-6.45c-0.53333,-2.8 -0.8,-4.9 -0.8,-6.3c0,-2.46146 1.43333,-3.21146 4.3,-2.25c1.25339,0.22943 2.77005,0.79609 4.55,1.7c2.36667,1.2 5.96667,3.15 10.8,5.85c11.86667,4.16667 21.11667,7.33333 27.75,9.5c2.1,0.66667 6.2,2.25 12.3,4.75c6.9,2.8 11.3,4.55 13.2,5.25c2.33333,0.83333 6.38333,2.58333 12.15,5.25M824.55,455.6c0,2.16667 -1.05,3.81667 -3.15,4.95c-5.8,3.13333 -9.58333,5.33333 -11.35,6.6c-1.8,1.26667 -4.68333,3.05 -8.65,5.35c-4.43333,2.56667 -7.58333,4.45 -9.45,5.65l-0.25,0.25c5.1,-1.03333 14.25,-2.78333 27.45,-5.25c0.1,0 0.2,0 0.3,0c0.33333,-0.33333 0.71667,-0.5 1.15,-0.5c0.76667,0 1.25,0.43333 1.45,1.3c0.1,0.43333 0.11667,0.9 0.05,1.4c0,1.73333 -0.26667,4.16667 -0.8,7.3c-0.86667,4.6 -2,7.25 -3.4,7.95c-4.03333,1.93333 -11.65,3.68333 -22.85,5.25c-11.36667,1.56667 -27.41667,3.08333 -48.15,4.55h-13.2c-1.6,0.23333 -2.6,-0.05 -3,-0.85c-0.13333,-0.23333 -0.2,-0.76667 -0.2,-1.6c0,-2.36667 5.63333,-7.73333 16.9,-16.1c0.73333,0 1.43333,0.13333 2.1,0.4c0.7,0.23333 1.21667,0.35 1.55,0.35c7.76667,-4.8 16.35,-10.01667 25.75,-15.65c14.2,-8.5 25.93333,-14.93333 35.2,-19.3c4.6,-3.13333 7.21667,-5.23333 7.85,-6.3c1.96667,-3.1 3.33333,-1.7 4.1,4.2c0.4,2.93333 0.6,6.28333 0.6,10.05z" fill="#000000"/></g></g></svg>