<svg version="1.1" xmlns="http://www.w3.org/2000/svg" xmlns:xlink="http://www.w3.org/1999/xlink" width="484.6" height="121.75" viewBox="0,0,484.6,121.75"><g transform="translate(-394.7524,-295.75631)"><g data-paper-data="{&quot;isPaintingLayer&quot;:true}" fill-rule="nonzero" stroke="none" stroke-width="1" stroke-linecap="butt" stroke-linejoin="miter" stroke-miterlimit="10" stroke-dasharray="" stroke-dashoffset="0" style="mix-blend-mode: normal"><path d="M638.3024,305.40631c0.4,-0.13333 0.81667,-0.25 1.25,-0.35c2.2,-0.13333 4.4,-0.26667 6.6,-0.4c0.4,-0.1 0.81667,-0.21667 1.25,-0.35c0.7,0 1.41667,0 2.15,0c0.33333,0.13333 0.68333,0.25 1.05,0.35c0.13333,0.13333 0.25,0.26667 0.35,0.4c0.36667,0.1 0.73333,0.21667 1.1,0.35c0.16667,0.16667 0.33333,0.33333 0.5,0.5c0.2,0.2 0.38333,0.38333 0.55,0.55c0.13333,0.16667 0.25,0.35 0.35,0.55c0.06667,0.16667 0.13333,0.35 0.2,0.55c0.1,0.16667 0.21667,0.33333 0.35,0.5c0.16667,0.2 0.35,0.38333 0.55,0.55c0.1,0.16667 0.21667,0.35 0.35,0.55c0.06667,0.16667 0.11667,0.33333 0.15,0.5c0.2,0.2 0.38333,0.38333 0.55,0.55c0.13333,0.16667 0.25,0.35 0.35,0.55c0.13333,0.16667 0.25,0.35 0.35,0.55c0.06667,0.16667 0.13333,0.33333 0.2,0.5c0.1,0.2 0.21667,0.38333 0.35,0.55c0.06667,0.16667 0.13333,0.35 0.2,0.55c0.03333,0.16667 0.08333,0.33333 0.15,0.5c0.13333,0.2 0.25,0.38333 0.35,0.55c0.13333,0.16667 0.25,0.35 0.35,0.55c0,0.16667 0,0.35 0,0.55c0,0.16667 0,0.33333 0,0.5c0.13333,0 0.26667,0 0.4,0c0,-0.16667 0,-0.33333 0,-0.5c0.03333,-0.2 0.08333,-0.38333 0.15,-0.55c0.13333,-0.2 0.25,-0.38333 0.35,-0.55c0.06667,-0.16667 0.13333,-0.35 0.2,-0.55c0,-0.16667 0,-0.33333 0,-0.5c0,-0.2 0,-0.38333 0,-0.55c0,-0.16667 0,-0.35 0,-0.55c0,-0.16667 0,-0.33333 0,-0.5c0,-0.2 0,-0.38333 0,-0.55c0.1,-0.2 0.21667,-0.38333 0.35,-0.55c0.06667,-0.16667 0.13333,-0.35 0.2,-0.55c0.03333,-0.16667 0.08333,-0.33333 0.15,-0.5c0,-0.2 0,-0.38333 0,-0.55c0,-0.16667 0,-0.35 0,-0.55c0,-0.16667 0,-0.33333 0,-0.5c0,-0.2 0,-0.38333 0,-0.55c0.13333,-0.2 0.25,-0.38333 0.35,-0.55c0.13333,-0.16667 0.25,-0.35 0.35,-0.55c0,-0.16667 0,-0.33333 0,-0.5c0,-0.2 0,-0.38333 0,-0.55c0,-0.16667 0,-0.35 0,-0.55c0.13333,-0.16667 0.26667,-0.33333 0.4,-0.5c0.03333,-0.2 0.08333,-0.38333 0.15,-0.55c0.06667,-0.2 0.13333,-0.38333 0.2,-0.55c0.1,-0.16667 0.21667,-0.35 0.35,-0.55c0.23333,-0.16667 0.46667,-0.33333 0.7,-0.5c0.13333,-0.2 0.25,-0.38333 0.35,-0.55c0.43333,-0.16667 0.85,-0.35 1.25,-0.55c0.2,-0.1 0.38333,-0.21667 0.55,-0.35c0.3,-0.06667 0.6,-0.11667 0.9,-0.15c1.5,-0.13333 2.98333,-0.26667 4.45,-0.4c0.43333,-0.1 0.85,-0.21667 1.25,-0.35c1.03333,-0.1 2.05,-0.21667 3.05,-0.35c0.4,-0.1 0.81667,-0.21667 1.25,-0.35c1.73333,-0.13333 3.45,-0.25 5.15,-0.35c0.43333,-0.13333 0.85,-0.25 1.25,-0.35c1.73333,-0.13333 3.46667,-0.25 5.2,-0.35c0.4,-0.13333 0.81667,-0.26667 1.25,-0.4c2.36667,0 4.75,0 7.15,0c0.36667,0.13333 0.71667,0.26667 1.05,0.4c3,0.1 5.98333,0.21667 8.95,0.35c0.36667,0.1 0.71667,0.21667 1.05,0.35c2.73333,0.1 5.48333,0.21667 8.25,0.35c0.33333,0.13333 0.68333,0.25 1.05,0.35c1.06667,0.13333 2.13333,0.25 3.2,0.35c0.43333,0.13333 0.85,0.25 1.25,0.35c0.76667,0.13333 1.55,0.26667 2.35,0.4c0.93333,0.23333 1.88333,0.48333 2.85,0.75c0.7,0.2 1.41667,0.41667 2.15,0.65c2,0.7 4.01667,1.26667 6.05,1.7c1.7,0.4 3.36667,0.9 5,1.5c0.16667,0.13333 0.35,0.26667 0.55,0.4c0.3,0.1 0.6,0.21667 0.9,0.35c0.1,0.1 0.21667,0.21667 0.35,0.35c0.33333,0.1 0.68333,0.21667 1.05,0.35c0.2,0.13333 0.38333,0.25 0.55,0.35c0.3,0.13333 0.6,0.25 0.9,0.35c0.23333,0.2 0.46667,0.38333 0.7,0.55c0.13333,0.13333 0.25,0.25 0.35,0.35c0.06667,0.06667 0.13333,0.11667 0.2,0.15c0.3,0.13333 0.6,0.26667 0.9,0.4c0.23333,0.16667 0.46667,0.35 0.7,0.55c0.1,0.16667 0.21667,0.33333 0.35,0.5c0.16667,0.2 0.35,0.38333 0.55,0.55c0.23333,0.16667 0.46667,0.35 0.7,0.55c0.16667,0.16667 0.35,0.33333 0.55,0.5c0.1,0.2 0.21667,0.38333 0.35,0.55c0.1,0.16667 0.21667,0.35 0.35,0.55c0.06667,0.16667 0.13333,0.35 0.2,0.55c0.16667,0.16667 0.33333,0.33333 0.5,0.5c0.13333,0.2 0.25,0.38333 0.35,0.55c0.13333,0.16667 0.26667,0.35 0.4,0.55c0.03333,0.16667 0.08333,0.33333 0.15,0.5c0.13333,0.2 0.25,0.38333 0.35,0.55c0.2,0.16667 0.38333,0.35 0.55,0.55c0.13333,0.16667 0.25,0.35 0.35,0.55c0.06667,0.16667 0.13333,0.33333 0.2,0.5c0.1,0.2 0.21667,0.38333 0.35,0.55c0.06667,0.16667 0.11667,0.35 0.15,0.55c0.06667,0.16667 0.13333,0.33333 0.2,0.5c0.13333,0.2 0.25,0.38333 0.35,0.55c0.13333,0.16667 0.25,0.35 0.35,0.55c0,0.16667 0,0.33333 0,0.5c0,0.2 0,0.38333 0,0.55c0.2,0.06667 0.38333,0.13333 0.55,0.2c0.16667,-0.13333 0.35,-0.25 0.55,-0.35c0.16667,-0.2 0.33333,-0.38333 0.5,-0.55c0.2,-0.16667 0.38333,-0.35 0.55,-0.55c0.2,-0.1 0.38333,-0.21667 0.55,-0.35c0.06667,-0.06667 0.13333,-0.1 0.2,-0.1c0.26667,-0.1 0.55,-0.18333 0.85,-0.25c4.83333,-0.13333 9.66667,-0.25 14.5,-0.35c0.4,-0.13333 0.81667,-0.25 1.25,-0.35c1.7,-0.13333 3.41667,-0.25 5.15,-0.35c0.43333,-0.13333 0.85,-0.26667 1.25,-0.4c3.03333,-0.1 6.06667,-0.21667 9.1,-0.35c-0.1,-0.16667 -0.21667,-0.33333 -0.35,-0.5c0,-0.2 0,-0.38333 0,-0.55c0,-0.2 0,-0.38333 0,-0.55c-0.1,-0.16667 -0.21667,-0.35 -0.35,-0.55c-0.16667,-0.16667 -0.35,-0.33333 -0.55,-0.5c-0.1,-0.2 -0.21667,-0.38333 -0.35,-0.55c-0.06667,-0.16667 -0.11667,-0.35 -0.15,-0.55c-0.13333,-0.16667 -0.26667,-0.33333 -0.4,-0.5c-0.1,-0.2 -0.21667,-0.38333 -0.35,-0.55c0,-0.2 0,-0.38333 0,-0.55c0,-0.16667 0,-0.35 0,-0.55c0,-0.16667 0,-0.33333 0,-0.5c0,-0.2 0,-0.38333 0,-0.55c0,-0.36667 0,-0.71667 0,-1.05c0,-0.36667 0,-0.73333 0,-1.1c0,-0.36667 0,-0.71667 0,-1.05c0,-0.36667 0,-0.73333 0,-1.1c0,-0.16667 0,-0.33333 0,-0.5c0.13333,-0.2 0.25,-0.38333 0.35,-0.55c0.13333,-0.2 0.26667,-0.38333 0.4,-0.55c0.16667,-0.16667 0.33333,-0.35 0.5,-0.55c0.2,-0.1 0.38333,-0.21667 0.55,-0.35c0.3,-0.1 0.6,-0.21667 0.9,-0.35c0.16667,-0.16667 0.35,-0.35 0.55,-0.55c0.16667,-0.1 0.33333,-0.21667 0.5,-0.35c0.06667,-0.06667 0.13333,-0.11667 0.2,-0.15c0.3,-0.13333 0.6,-0.25 0.9,-0.35c0.16667,-0.13333 0.33333,-0.26667 0.5,-0.4c0.3,-0.03333 0.6,-0.08333 0.9,-0.15c0.53333,-0.13333 1.06667,-0.26667 1.6,-0.4c0.43333,-0.1 0.86667,-0.18333 1.3,-0.25c0.76667,-0.16667 1.53333,-0.31667 2.3,-0.45c0.4,-0.1 0.81667,-0.21667 1.25,-0.35c1.46667,-0.1 2.95,-0.21667 4.45,-0.35c0.43333,-0.1 0.85,-0.21667 1.25,-0.35c1.26667,-0.13333 2.51667,-0.25 3.75,-0.35c0.43333,-0.13333 0.85,-0.25 1.25,-0.35c1.26667,-0.13333 2.51667,-0.25 3.75,-0.35c0.43333,-0.13333 0.85,-0.25 1.25,-0.35c0.76667,-0.13333 1.53333,-0.26667 2.3,-0.4c0.43333,-0.1 0.85,-0.21667 1.25,-0.35c1.03333,-0.1 2.05,-0.21667 3.05,-0.35c0.43333,-0.06667 0.85,-0.15 1.25,-0.25v-0.1c0.46667,0 0.95,0 1.45,0c0.33333,0.1 0.68333,0.21667 1.05,0.35c0.83333,0.13333 1.66667,0.25 2.5,0.35c0.36667,0.13333 0.73333,0.25 1.1,0.35c0.16667,0.13333 0.33333,0.25 0.5,0.35c0.3,0.13333 0.6,0.26667 0.9,0.4c0.16667,0.16667 0.35,0.33333 0.55,0.5c0.16667,0.2 0.35,0.38333 0.55,0.55c0.1,0.16667 0.21667,0.35 0.35,0.55c0.03333,0.16667 0.08333,0.33333 0.15,0.5c0.2,0.2 0.38333,0.38333 0.55,0.55c0.13333,0.16667 0.25,0.35 0.35,0.55c0.13333,0.16667 0.25,0.35 0.35,0.55c0.06667,0.16667 0.13333,0.33333 0.2,0.5c0.1,0.2 0.21667,0.38333 0.35,0.55c0.06667,0.16667 0.13333,0.35 0.2,0.55c0.03333,0.16667 0.08333,0.33333 0.15,0.5c0.13333,0.2 0.25,0.38333 0.35,0.55c0.13333,0.16667 0.25,0.35 0.35,0.55c0.06667,0.16667 0.13333,0.35 0.2,0.55c0.13333,0.16667 0.25,0.33333 0.35,0.5c0.06667,0.2 0.13333,0.38333 0.2,0.55c0.1,0.16667 0.21667,0.35 0.35,0.55c0.06667,0.16667 0.11667,0.33333 0.15,0.5c0.06667,0.2 0.13333,0.38333 0.2,0.55c0,0.16667 0,0.35 0,0.55c0,0.16667 0,0.35 0,0.55c0.13333,0.16667 0.25,0.33333 0.35,0.5c0.06667,0.2 0.13333,0.38333 0.2,0.55c0.03333,0.16667 0.08333,0.35 0.15,0.55c0.13333,0.16667 0.25,0.33333 0.35,0.5c0.06667,0.2 0.13333,0.38333 0.2,0.55c0.06667,0.16667 0.13333,0.35 0.2,0.55c0,0.1 0,0.21667 0,0.35c0.23333,-0.06667 0.46667,-0.13333 0.7,-0.2c0.06667,-0.16667 0.11667,-0.33333 0.15,-0.5c0.13333,-0.2 0.26667,-0.38333 0.4,-0.55c0.1,-0.16667 0.21667,-0.35 0.35,-0.55c0.16667,-0.16667 0.33333,-0.33333 0.5,-0.5c0.06667,-0.2 0.13333,-0.38333 0.2,-0.55c0.13333,-0.2 0.25,-0.38333 0.35,-0.55c0.13333,-0.16667 0.25,-0.35 0.35,-0.55c0.3,-0.16667 0.6,-0.33333 0.9,-0.5c0.16667,-0.2 0.35,-0.38333 0.55,-0.55c0.1,-0.16667 0.21667,-0.35 0.35,-0.55c0.06667,-0.16667 0.13333,-0.33333 0.2,-0.5c0.1,-0.2 0.21667,-0.38333 0.35,-0.55c0.1,-0.2 0.21667,-0.38333 0.35,-0.55c0.1,-0.16667 0.21667,-0.35 0.35,-0.55c0.16667,-0.16667 0.35,-0.33333 0.55,-0.5c0.16667,-0.2 0.33333,-0.38333 0.5,-0.55c0.06667,-0.16667 0.13333,-0.35 0.2,-0.55c0.06667,-0.16667 0.13333,-0.33333 0.2,-0.5c0,-0.2 0,-0.38333 0,-0.55c0.1,-0.2 0.21667,-0.38333 0.35,-0.55c0.16667,-0.16667 0.33333,-0.35 0.5,-0.55c0.13333,-0.16667 0.26667,-0.33333 0.4,-0.5c0.03333,-0.2 0.08333,-0.38333 0.15,-0.55c0.13333,-0.16667 0.25,-0.35 0.35,-0.55c0.23333,-0.16667 0.48333,-0.33333 0.75,-0.5c0.16667,-0.2 0.33333,-0.38333 0.5,-0.55c0.13333,-0.2 0.25,-0.38333 0.35,-0.55c0.2,-0.1 0.38333,-0.21667 0.55,-0.35c0.3,-0.06667 0.6,-0.13333 0.9,-0.2c1.9,0 3.8,0 5.7,0c0.36667,0.13333 0.73333,0.26667 1.1,0.4c0.1,0.1 0.21667,0.21667 0.35,0.35c0.36667,0.1 0.71667,0.21667 1.05,0.35c0.36667,0.1 0.73333,0.21667 1.1,0.35c0.33333,0.13333 0.68333,0.25 1.05,0.35c0.7,0.23333 1.41667,0.46667 2.15,0.7c0.7,0.26667 1.41667,0.51667 2.15,0.75c0.1,0.1 0.21667,0.21667 0.35,0.35c0.36667,0.1 0.71667,0.21667 1.05,0.35c0.2,0.13333 0.38333,0.25 0.55,0.35c0.3,0.13333 0.6,0.25 0.9,0.35c0.16667,0.13333 0.35,0.25 0.55,0.35c0.3,0.13333 0.58333,0.26667 0.85,0.4c0.26667,0.16667 0.51667,0.33333 0.75,0.5c0.16667,0.2 0.33333,0.38333 0.5,0.55c0.2,0.16667 0.38333,0.35 0.55,0.55c0.36667,0.16667 0.73333,0.33333 1.1,0.5c0.16667,0.2 0.33333,0.38333 0.5,0.55c0.06667,0.16667 0.13333,0.35 0.2,0.55c0.1,0.16667 0.21667,0.35 0.35,0.55c0.16667,0.16667 0.35,0.33333 0.55,0.5c0.16667,0.2 0.33333,0.38333 0.5,0.55c0.13333,0.13333 0.26667,0.25 0.4,0.35c0.03333,0.06667 0.1,0.11667 0.2,0.15c0.26667,0.13333 0.55,0.26667 0.85,0.4c0.16667,0.16667 0.35,0.35 0.55,0.55c0.06667,0.16667 0.11667,0.33333 0.15,0.5c0.13333,0.2 0.25,0.38333 0.35,0.55c0.2,0.16667 0.38333,0.35 0.55,0.55c0.13333,0.16667 0.25,0.33333 0.35,0.5c0.06667,0.2 0.13333,0.38333 0.2,0.55c0.1,0.16667 0.21667,0.35 0.35,0.55c0.16667,0.16667 0.35,0.35 0.55,0.55c0.1,0.16667 0.21667,0.33333 0.35,0.5c0.06667,0.2 0.11667,0.38333 0.15,0.55c0.06667,0.16667 0.13333,0.35 0.2,0.55c0,0.16667 0,0.33333 0,0.5c0.13333,0.2 0.25,0.38333 0.35,0.55c0.06667,0.16667 0.13333,0.35 0.2,0.55c0.06667,0.16667 0.11667,0.35 0.15,0.55c0,0.16667 0,0.33333 0,0.5c0,0.2 0,0.38333 0,0.55c0,0.16667 0,0.35 0,0.55c0,0.16667 0,0.33333 0,0.5c0.13333,0.2 0.25,0.38333 0.35,0.55c0.13333,0.16667 0.26667,0.35 0.4,0.55c0,0.16667 0,0.33333 0,0.5c0,0.2 0,0.38333 0,0.55c0,0.2 0,0.38333 0,0.55c0,0.16667 0,0.35 0,0.55c0,0.16667 0,0.33333 0,0.5c0,0.2 0,0.38333 0,0.55c0,0.16667 0,0.35 0,0.55c0,0.16667 0,0.33333 0,0.5c0,0.36667 0,0.73333 0,1.1c-0.06667,0.16667 -0.13333,0.35 -0.2,0.55c-0.06667,0.16667 -0.13333,0.33333 -0.2,0.5c-0.1,0.2 -0.21667,0.38333 -0.35,0.55c0,0.16667 0,0.35 0,0.55c-0.03333,0.16667 -0.08333,0.33333 -0.15,0.5c-0.06667,0.2 -0.13333,0.38333 -0.2,0.55c-0.1,0.2 -0.21667,0.38333 -0.35,0.55c-0.16667,0.16667 -0.35,0.35 -0.55,0.55c-0.1,0.16667 -0.21667,0.33333 -0.35,0.5c-0.06667,0.2 -0.11667,0.38333 -0.15,0.55c-0.13333,0.16667 -0.26667,0.35 -0.4,0.55c-0.03333,0.16667 -0.08333,0.33333 -0.15,0.5c-0.13333,0.2 -0.25,0.38333 -0.35,0.55c-0.13333,0.2 -0.25,0.38333 -0.35,0.55c-0.2,0.16667 -0.38333,0.35 -0.55,0.55c-0.16667,0.16667 -0.35,0.33333 -0.55,0.5c-0.1,0.2 -0.21667,0.38333 -0.35,0.55c-0.06667,0.16667 -0.13333,0.35 -0.2,0.55c-0.1,0.16667 -0.21667,0.33333 -0.35,0.5c-0.16667,0.2 -0.33333,0.38333 -0.5,0.55c-0.13333,0.2 -0.26667,0.38333 -0.4,0.55c-0.03333,0.16667 -0.08333,0.35 -0.15,0.55c-0.13333,0.16667 -0.25,0.33333 -0.35,0.5c-0.2,0.2 -0.38333,0.38333 -0.55,0.55c-0.13333,0.16667 -0.25,0.35 -0.35,0.55c-0.06667,0.16667 -0.13333,0.33333 -0.2,0.5c-0.1,0.2 -0.21667,0.38333 -0.35,0.55c-0.16667,0.2 -0.35,0.38333 -0.55,0.55c-0.16667,0.16667 -0.33333,0.35 -0.5,0.55c-0.2,0.16667 -0.38333,0.33333 -0.55,0.5c-0.16667,0.2 -0.35,0.38333 -0.55,0.55c0,0.16667 0,0.35 0,0.55c-0.03333,0.16667 -0.08333,0.33333 -0.15,0.5c-0.06667,0.2 -0.13333,0.38333 -0.2,0.55c-0.1,0.2 -0.21667,0.38333 -0.35,0.55c-0.16667,0.16667 -0.35,0.35 -0.55,0.55c-0.16667,0.16667 -0.33333,0.33333 -0.5,0.5c-0.2,0.2 -0.38333,0.38333 -0.55,0.55c-0.16667,0.16667 -0.35,0.35 -0.55,0.55c-0.16667,0.16667 -0.35,0.33333 -0.55,0.5c-0.16667,0.2 -0.33333,0.38333 -0.5,0.55c-0.2,0.2 -0.38333,0.38333 -0.55,0.55c-0.13333,0.16667 -0.25,0.35 -0.35,0.55c-0.06667,0.16667 -0.13333,0.33333 -0.2,0.5c-0.03333,0.2 -0.08333,0.38333 -0.15,0.55c-0.06667,0.16667 -0.13333,0.35 -0.2,0.55c-0.1,0.16667 -0.21667,0.33333 -0.35,0.5c-0.16667,0.2 -0.35,0.38333 -0.55,0.55c-0.16667,0.2 -0.33333,0.38333 -0.5,0.55c-0.2,0.16667 -0.38333,0.35 -0.55,0.55c-0.16667,0.16667 -0.35,0.33333 -0.55,0.5c-0.16667,0.2 -0.33333,0.38333 -0.5,0.55c-0.06667,0.16667 -0.13333,0.35 -0.2,0.55c-0.13333,0.16667 -0.25,0.33333 -0.35,0.5c-0.13333,0.2 -0.25,0.38333 -0.35,0.55c-0.2,0.16667 -0.38333,0.35 -0.55,0.55c-0.16667,0.16667 -0.35,0.35 -0.55,0.55c-0.16667,0.16667 -0.33333,0.33333 -0.5,0.5c-0.2,0.2 -0.38333,0.38333 -0.55,0.55c-0.2,0.16667 -0.38333,0.35 -0.55,0.55c-0.16667,0.16667 -0.35,0.33333 -0.55,0.5c-0.1,0.2 -0.21667,0.38333 -0.35,0.55c-0.1,0.16667 -0.21667,0.35 -0.35,0.55c-0.1,0.16667 -0.21667,0.35 -0.35,0.55c-0.13333,0.1 -0.25,0.21667 -0.35,0.35c-0.3,0.1 -0.6,0.21667 -0.9,0.35c-0.16667,0.16667 -0.35,0.35 -0.55,0.55c-0.1,0.16667 -0.21667,0.33333 -0.35,0.5c-0.1,0.2 -0.21667,0.38333 -0.35,0.55c-0.13333,0.16667 -0.25,0.35 -0.35,0.55c0,0.16667 0,0.33333 0,0.5c0,0.2 0,0.38333 0,0.55c0,0.16667 0,0.35 0,0.55c0,0.36667 0,0.71667 0,1.05c0,0.36667 0,0.73333 0,1.1c0,0.33333 0,0.68333 0,1.05c0,0.36667 0,0.73333 0,1.1c0,0.33333 0,0.68333 0,1.05c0,0.16667 0,0.35 0,0.55c0.1,0.16667 0.21667,0.33333 0.35,0.5c0.06667,0.2 0.13333,0.38333 0.2,0.55c0.03333,0.16667 0.08333,0.35 0.15,0.55c0,0.16667 0,0.35 0,0.55c0,0.16667 0,0.33333 0,0.5c0,0.2 0,0.38333 0,0.55c-0.06667,0.16667 -0.11667,0.35 -0.15,0.55c0,0.16667 0,0.33333 0,0.5c0,0.2 0,0.38333 0,0.55c0,0.16667 0,0.35 0,0.55c0.03333,0.16667 0.08333,0.35 0.15,0.55c0,0.16667 0,0.33333 0,0.5c0,0.2 0,0.38333 0,0.55c0,0.16667 0,0.35 0,0.55c0,0.16667 0,0.33333 0,0.5c0,0.2 0,0.38333 0,0.55c0,0.16667 0,0.35 0,0.55c0,0.16667 0,0.35 0,0.55c0,0.16667 0,0.33333 0,0.5c0.13333,0.2 0.25,0.38333 0.35,0.55c0.06667,0.16667 0.13333,0.35 0.2,0.55c0.06667,0.16667 0.11667,0.33333 0.15,0.5c0,0.53333 0,1.08333 0,1.65c0,1.23333 0,2.48333 0,3.75c0,1.4 0,2.81667 0,4.25c0.03333,1.6 0.05,3.21667 0.05,4.85c0,1.6 -0.01667,3.2 -0.05,4.8c0,1.26667 0,2.51667 0,3.75c0,0.16667 0,0.35 0,0.55c-0.03333,0.16667 -0.08333,0.33333 -0.15,0.5c-0.06667,0.2 -0.13333,0.38333 -0.2,0.55c-0.16667,0.2 -0.33333,0.38333 -0.5,0.55c-0.2,0.16667 -0.38333,0.35 -0.55,0.55c-0.13333,0.1 -0.25,0.21667 -0.35,0.35c-0.36667,0.1 -0.73333,0.21667 -1.1,0.35c-0.1,0.1 -0.21667,0.21667 -0.35,0.35c-0.3,0.06667 -0.6,0.11667 -0.9,0.15c-0.83333,0.13333 -1.66667,0.26667 -2.5,0.4c-0.33333,0.1 -0.68333,0.21667 -1.05,0.35c-2.5,0.1 -5,0.21667 -7.5,0.35c-0.36667,0.13333 -0.73333,0.25 -1.1,0.35c-1.53333,0.13333 -3.06667,0.25 -4.6,0.35c-0.36667,0.13333 -0.73333,0.25 -1.1,0.35c-1.3,0.13333 -2.6,0.26667 -3.9,0.4c-0.36667,0.1 -0.73333,0.21667 -1.1,0.35c-1.76667,0.1 -3.55,0.21667 -5.35,0.35c-0.36667,0.1 -0.71667,0.21667 -1.05,0.35c-1.1,0.13333 -2.18333,0.25 -3.25,0.35c-0.33333,0.13333 -0.68333,0.25 -1.05,0.35c-0.96667,0 -1.91667,0 -2.85,0c-0.43333,-0.1 -0.85,-0.21667 -1.25,-0.35c-0.3,-0.1 -0.6,-0.2 -0.9,-0.3c-0.43333,-0.16667 -0.85,-0.3 -1.25,-0.4c-0.13333,-0.16667 -0.25,-0.35 -0.35,-0.55c-0.23333,-0.16667 -0.48333,-0.35 -0.75,-0.55c-0.16667,-0.16667 -0.33333,-0.33333 -0.5,-0.5c-0.13333,-0.2 -0.25,-0.38333 -0.35,-0.55c-0.06667,-0.16667 -0.13333,-0.35 -0.2,-0.55c-0.06667,-0.1 -0.13333,-0.21667 -0.2,-0.35c-2.13333,-0.06667 -4.26667,-0.11667 -6.4,-0.15c-0.43333,-0.13333 -0.85,-0.26667 -1.25,-0.4c-5.3,-0.1 -10.6,-0.21667 -15.9,-0.35c-0.4,-0.1 -0.81667,-0.21667 -1.25,-0.35c-0.1,-0.1 -0.21667,-0.21667 -0.35,-0.35c-0.36667,-0.13333 -0.71667,-0.25 -1.05,-0.35c-0.2,-0.16667 -0.38333,-0.35 -0.55,-0.55c-0.13333,-0.1 -0.25,-0.21667 -0.35,-0.35c-0.06667,-0.06667 -0.13333,-0.11667 -0.2,-0.15c-0.36667,-0.13333 -0.71667,-0.26667 -1.05,-0.4c-0.13333,-0.16667 -0.25,-0.33333 -0.35,-0.5c-0.26667,-0.2 -0.51667,-0.38333 -0.75,-0.55c-0.1,-0.16667 -0.21667,-0.35 -0.35,-0.55c-0.06667,-0.16667 -0.11667,-0.35 -0.15,-0.55c-0.13333,-0.16667 -0.26667,-0.33333 -0.4,-0.5c-0.16667,-0.2 -0.33333,-0.38333 -0.5,-0.55c-0.2,-0.16667 -0.38333,-0.35 -0.55,-0.55c-0.16667,-0.16667 -0.35,-0.33333 -0.55,-0.5c-0.1,-0.13333 -0.21667,-0.26667 -0.35,-0.4c-0.1,0.2 -0.21667,0.38333 -0.35,0.55c-0.13333,0.2 -0.25,0.38333 -0.35,0.55c0,0.16667 0,0.35 0,0.55c-0.06667,0.16667 -0.13333,0.33333 -0.2,0.5c-0.06667,0.2 -0.11667,0.38333 -0.15,0.55c-0.13333,0.16667 -0.25,0.35 -0.35,0.55c0,0.16667 0,0.33333 0,0.5c-0.06667,0.2 -0.13333,0.38333 -0.2,0.55c-0.06667,0.2 -0.13333,0.38333 -0.2,0.55c-0.1,0.16667 -0.21667,0.35 -0.35,0.55c-0.06667,0.16667 -0.11667,0.33333 -0.15,0.5c-0.13333,0.2 -0.25,0.38333 -0.35,0.55c-0.06667,0.16667 -0.13333,0.35 -0.2,0.55c-0.13333,0.16667 -0.25,0.33333 -0.35,0.5c-0.13333,0.2 -0.25,0.38333 -0.35,0.55c-0.13333,0.2 -0.25,0.38333 -0.35,0.55c-0.26667,0.16667 -0.51667,0.35 -0.75,0.55c-0.16667,0.16667 -0.33333,0.33333 -0.5,0.5c-0.36667,0.13333 -0.73333,0.25 -1.1,0.35c-9.86667,0.13333 -19.75,0.26667 -29.65,0.4c-0.33333,0.1 -0.68333,0.21667 -1.05,0.35c-1.8,0.1 -3.58333,0.21667 -5.35,0.35c-0.36667,0.1 -0.73333,0.21667 -1.1,0.35c-1.76667,0.13333 -3.55,0.25 -5.35,0.35c-0.36667,0.13333 -0.71667,0.25 -1.05,0.35c-2.96667,0.13333 -5.95,0.25 -8.95,0.35c-0.33333,0.13333 -0.68333,0.26667 -1.05,0.4c-0.83333,0.1 -1.66667,0.21667 -2.5,0.35c-0.36667,0.1 -0.73333,0.2 -1.1,0.3c-0.56667,0.13333 -1.15,0.28333 -1.75,0.45c-0.36667,0.1 -0.73333,0.2 -1.1,0.3c-10.7,0 -21.41667,0 -32.15,0c-0.4,-0.1 -0.81667,-0.21667 -1.25,-0.35c-0.1,-0.13333 -0.21667,-0.25 -0.35,-0.35c-0.33333,-0.13333 -0.68333,-0.25 -1.05,-0.35c-0.13333,-0.2 -0.25,-0.38333 -0.35,-0.55c-0.13333,-0.16667 -0.25,-0.35 -0.35,-0.55c-0.06667,-0.16667 -0.13333,-0.33333 -0.2,-0.5c-0.13333,-0.2 -0.25,-0.38333 -0.35,-0.55c-0.06667,-0.16667 -0.13333,-0.35 -0.2,-0.55c0,-0.16667 0,-0.35 0,-0.55c-0.03333,-0.16667 -0.08333,-0.33333 -0.15,-0.5c-0.13333,-0.2 -0.25,-0.38333 -0.35,-0.55c-0.06667,-0.16667 -0.13333,-0.35 -0.2,-0.55c-0.13333,-0.16667 -0.25,-0.33333 -0.35,-0.5c-0.13333,-0.2 -0.25,-0.38333 -0.35,-0.55c0,-0.16667 0,-0.35 0,-0.55c0,-0.16667 0,-0.35 0,-0.55c-0.13333,-0.16667 -0.25,-0.33333 -0.35,-0.5c-0.13333,-0.2 -0.26667,-0.38333 -0.4,-0.55c0,-0.16667 0,-0.35 0,-0.55c0,-0.16667 0,-0.33333 0,-0.5c-0.1,-0.2 -0.21667,-0.38333 -0.35,-0.55c-0.1,-0.16667 -0.21667,-0.35 -0.35,-0.55c0,-0.16667 0,-0.35 0,-0.55c0,-0.16667 0,-0.33333 0,-0.5c0,-0.2 0,-0.38333 0,-0.55c0,-0.16667 0,-0.35 0,-0.55c0,-0.16667 0,-0.33333 0,-0.5c0,-0.2 0,-0.38333 0,-0.55c0,-0.16667 0,-0.35 0,-0.55c0,-0.36667 0,-0.71667 0,-1.05c0,-0.36667 0,-0.73333 0,-1.1c-0.06667,-0.16667 -0.11667,-0.33333 -0.15,-0.5c-0.13333,-0.2 -0.26667,-0.38333 -0.4,-0.55c-0.03333,-0.16667 -0.08333,-0.35 -0.15,-0.55c0,-0.16667 0,-0.35 0,-0.55c0,-0.16667 0,-0.33333 0,-0.5c0,-0.2 0,-0.38333 0,-0.55c0,-0.16667 0,-0.35 0,-0.55c0,-0.16667 0,-0.33333 0,-0.5c-0.06667,-0.2 -0.13333,-0.38333 -0.2,-0.55c-0.1,-0.16667 -0.21667,-0.35 -0.35,-0.55c-0.06667,-0.16667 -0.11667,-0.35 -0.15,-0.55c0,-0.16667 0,-0.33333 0,-0.5c0,-0.2 0,-0.38333 0,-0.55c0,-0.16667 0,-0.35 0,-0.55c0,-0.16667 0,-0.33333 0,-0.5c0,-0.2 0,-0.38333 0,-0.55c-0.06667,-0.16667 -0.13333,-0.35 -0.2,-0.55c-0.13333,-0.16667 -0.25,-0.35 -0.35,-0.55c-0.06667,-0.16667 -0.13333,-0.33333 -0.2,-0.5c0,-0.2 0,-0.38333 0,-0.55c0,-0.16667 0,-0.35 0,-0.55c0,-0.16667 0,-0.33333 0,-0.5c0,-0.2 0,-0.38333 0,-0.55c0,-0.16667 0,-0.35 0,-0.55c0,-0.16667 0,-0.33333 0,-0.5c0,-0.2 0,-0.38333 0,-0.55c-1.06667,0 -2.13333,0 -3.2,0c0,0.16667 0,0.35 0,0.55c0,0.16667 0,0.33333 0,0.5c0,0.2 0,0.38333 0,0.55c0.06667,0.16667 0.13333,0.35 0.2,0.55c0.1,0.16667 0.21667,0.33333 0.35,0.5c0.06667,0.2 0.11667,0.38333 0.15,0.55c0,0.16667 0,0.35 0,0.55c0,0.16667 0,0.33333 0,0.5c0,0.2 0,0.38333 0,0.55c0,0.36667 0,0.73333 0,1.1c0,0.33333 0,0.68333 0,1.05c0,0.53333 0,1.06667 0,1.6c0,0.53333 0,1.06667 0,1.6c0,0.53333 0,1.06667 0,1.6c0,0.2 0,0.38333 0,0.55c-0.1,0.2 -0.21667,0.38333 -0.35,0.55c-0.1,0.16667 -0.21667,0.35 -0.35,0.55c0,0.16667 0,0.33333 0,0.5c0,0.2 0,0.38333 0,0.55c0,0.16667 0,0.35 0,0.55c-0.06667,0.16667 -0.13333,0.33333 -0.2,0.5c-0.1,0.2 -0.21667,0.38333 -0.35,0.55c-0.03333,0.2 -0.08333,0.38333 -0.15,0.55c0,0.16667 0,0.35 0,0.55c-0.06667,0.16667 -0.13333,0.33333 -0.2,0.5c-0.1,0.2 -0.21667,0.38333 -0.35,0.55c-0.06667,0.16667 -0.13333,0.35 -0.2,0.55c0,0.16667 0,0.33333 0,0.5c-0.03333,0.2 -0.08333,0.38333 -0.15,0.55c-0.13333,0.2 -0.25,0.38333 -0.35,0.55c-0.06667,0.16667 -0.13333,0.35 -0.2,0.55c-0.1,0.16667 -0.21667,0.33333 -0.35,0.5c-0.13333,0.2 -0.25,0.38333 -0.35,0.55c-0.06667,0.16667 -0.13333,0.35 -0.2,0.55c-0.03333,0.16667 -0.08333,0.33333 -0.15,0.5c-0.13333,0.2 -0.25,0.38333 -0.35,0.55c-0.06667,0.2 -0.13333,0.38333 -0.2,0.55c-0.13333,0.16667 -0.25,0.35 -0.35,0.55c-0.16667,0.16667 -0.35,0.33333 -0.55,0.5c-0.16667,0.2 -0.35,0.38333 -0.55,0.55c-0.16667,0.16667 -0.33333,0.35 -0.5,0.55c-0.13333,0.1 -0.25,0.21667 -0.35,0.35c-0.3,0.06667 -0.6,0.11667 -0.9,0.15c-0.6,0.13333 -1.2,0.26667 -1.8,0.4c-0.36667,0.1 -0.71667,0.21667 -1.05,0.35c-5.6,0.1 -11.2,0.21667 -16.8,0.35c-0.36667,0.1 -0.71667,0.21667 -1.05,0.35c-1.56667,0.13333 -3.11667,0.25 -4.65,0.35c-0.36667,0.13333 -0.73333,0.25 -1.1,0.35c-1.46667,0.13333 -2.95,0.25 -4.45,0.35c-0.43333,0.13333 -0.85,0.26667 -1.25,0.4c-1.3,0.1 -2.61667,0.21667 -3.95,0.35c-0.33333,0.1 -0.68333,0.21667 -1.05,0.35c-1.3,0.1 -2.61667,0.21667 -3.95,0.35c-0.33333,0.13333 -0.68333,0.25 -1.05,0.35c-1.8,0.13333 -3.58333,0.25 -5.35,0.35c-0.36667,0.13333 -0.73333,0.25 -1.1,0.35c-2.83333,0 -5.68333,0 -8.55,0c-0.4,-0.1 -0.81667,-0.2 -1.25,-0.3c-0.53333,-0.13333 -1.06667,-0.26667 -1.6,-0.4c-0.43333,-0.1 -0.85,-0.21667 -1.25,-0.35c-0.16667,-0.16667 -0.35,-0.35 -0.55,-0.55c-0.16667,-0.16667 -0.35,-0.33333 -0.55,-0.5c-0.16667,-0.2 -0.33333,-0.38333 -0.5,-0.55c-0.2,-0.16667 -0.38333,-0.35 -0.55,-0.55c-0.13333,-0.16667 -0.25,-0.35 -0.35,-0.55c-0.13333,-0.16667 -0.25,-0.33333 -0.35,-0.5c-0.2,-0.13333 -0.38333,-0.25 -0.55,-0.35c-0.16667,0.16667 -0.35,0.33333 -0.55,0.5c-0.1,0.13333 -0.21667,0.25 -0.35,0.35c-0.3,0.06667 -0.58333,0.15 -0.85,0.25c-0.36667,0.1 -0.73333,0.2 -1.1,0.3c-0.36667,0.13333 -0.73333,0.23333 -1.1,0.3c-0.56667,0.16667 -1.15,0.31667 -1.75,0.45c-0.36667,0.1 -0.73333,0.21667 -1.1,0.35c-1.53333,0.1 -3.06667,0.21667 -4.6,0.35c-0.36667,0.1 -0.73333,0.21667 -1.1,0.35c-2.03333,0.1 -4.05,0.21667 -6.05,0.35c-0.36667,0.13333 -0.73333,0.25 -1.1,0.35c-2,0.13333 -4.01667,0.25 -6.05,0.35c-0.36667,0.13333 -0.73333,0.25 -1.1,0.35c-2.23333,0.13333 -4.48333,0.26667 -6.75,0.4c-0.36667,0.1 -0.73333,0.21667 -1.1,0.35c-5.7,0 -11.41667,0 -17.15,0c-0.4,-0.13333 -0.81667,-0.25 -1.25,-0.35c-0.1,-0.2 -0.21667,-0.38333 -0.35,-0.55c-0.16667,-0.13333 -0.33333,-0.25 -0.5,-0.35c-0.06667,-0.06667 -0.13333,-0.11667 -0.2,-0.15c-0.36667,-0.13333 -0.71667,-0.26667 -1.05,-0.4c-0.13333,-0.16667 -0.26667,-0.35 -0.4,-0.55c-0.1,-0.16667 -0.21667,-0.33333 -0.35,-0.5c-0.03333,-0.2 -0.08333,-0.38333 -0.15,-0.55c-0.2,-0.16667 -0.38333,-0.35 -0.55,-0.55c-0.13333,-0.16667 -0.25,-0.35 -0.35,-0.55c-0.13333,-0.16667 -0.25,-0.33333 -0.35,-0.5c-0.06667,-0.2 -0.13333,-0.38333 -0.2,-0.55c-0.1,-0.16667 -0.21667,-0.35 -0.35,-0.55c-0.06667,-0.16667 -0.13333,-0.33333 -0.2,-0.5c-0.1,-0.2 -0.21667,-0.38333 -0.35,-0.55c-0.1,-0.16667 -0.21667,-0.35 -0.35,-0.55c-0.06667,-0.16667 -0.11667,-0.35 -0.15,-0.55c-0.06667,0 -0.1,0.01667 -0.1,0.05c-0.06667,0.16667 -0.1,0.33333 -0.1,0.5c0,0.2 0,0.38333 0,0.55c0,0.16667 0,0.35 0,0.55c0,0.16667 0,0.33333 0,0.5c0,0.2 0,0.38333 0,0.55c0,0.16667 0,0.35 0,0.55c0,0.16667 0,0.33333 0,0.5c0,0.2 0,0.38333 0,0.55c-0.06667,0.2 -0.13333,0.38333 -0.2,0.55c-0.1,0.16667 -0.21667,0.35 -0.35,0.55c-0.16667,0.16667 -0.33333,0.33333 -0.5,0.5c-0.2,0.2 -0.38333,0.38333 -0.55,0.55c-0.16667,0.16667 -0.35,0.35 -0.55,0.55c-0.1,0.1 -0.21667,0.21667 -0.35,0.35c-0.3,0.06667 -0.6,0.13333 -0.9,0.2c-0.36667,0.1 -0.71667,0.21667 -1.05,0.35c-0.36667,0.1 -0.73333,0.21667 -1.1,0.35c-2,0.1 -4.01667,0.21667 -6.05,0.35c-0.36667,0.1 -0.73333,0.21667 -1.1,0.35c-2.83333,0 -5.68333,0 -8.55,0c-0.4,-0.13333 -0.81667,-0.23333 -1.25,-0.3c-0.76667,-0.16667 -1.53333,-0.3 -2.3,-0.4c-0.43333,-0.13333 -0.85,-0.26667 -1.25,-0.4c-0.3,-0.1 -0.6,-0.2 -0.9,-0.3c-0.43333,-0.13333 -0.85,-0.26667 -1.25,-0.4c-0.13333,-0.1 -0.25,-0.21667 -0.35,-0.35c-0.36667,-0.1 -0.73333,-0.21667 -1.1,-0.35c-0.16667,-0.16667 -0.33333,-0.35 -0.5,-0.55c-0.13333,-0.1 -0.26667,-0.21667 -0.4,-0.35c-0.03333,-0.06667 -0.1,-0.11667 -0.2,-0.15c-0.33333,-0.13333 -0.68333,-0.26667 -1.05,-0.4c-0.16667,-0.16667 -0.33333,-0.33333 -0.5,-0.5c-0.2,-0.2 -0.38333,-0.38333 -0.55,-0.55c-0.16667,-0.16667 -0.35,-0.35 -0.55,-0.55c-0.16667,-0.16667 -0.33333,-0.33333 -0.5,-0.5c-0.2,-0.2 -0.38333,-0.38333 -0.55,-0.55c-0.13333,-0.13333 -0.25,-0.25 -0.35,-0.35c-0.06667,-0.06667 -0.13333,-0.11667 -0.2,-0.15c-0.36667,-0.13333 -0.71667,-0.26667 -1.05,-0.4c-0.13333,-0.13333 -0.25,-0.25 -0.35,-0.35c0,0.16667 0,0.35 0,0.55c0,0.16667 0,0.33333 0,0.5c0,0.2 0,0.38333 0,0.55c0.1,0.16667 0.21667,0.35 0.35,0.55c0.1,0.16667 0.21667,0.33333 0.35,0.5c0,0.2 0,0.38333 0,0.55c0,0.2 0,0.38333 0,0.55c0,0.16667 0,0.35 0,0.55c0,0.16667 0,0.33333 0,0.5c-0.13333,0.2 -0.25,0.38333 -0.35,0.55c-0.13333,0.16667 -0.25,0.35 -0.35,0.55c-0.13333,0.1 -0.26667,0.21667 -0.4,0.35c-0.3,0.06667 -0.6,0.11667 -0.9,0.15c-1.06667,0.13333 -2.13333,0.26667 -3.2,0.4c-0.33333,0.1 -0.68333,0.21667 -1.05,0.35c-1.9,0 -3.8,0 -5.7,0c-0.43333,-0.13333 -0.85,-0.25 -1.25,-0.35c-1.8,0 -3.6,0 -5.4,0c-0.4,0.1 -0.81667,0.21667 -1.25,0.35c-3.66667,0.1 -7.35,0.21667 -11.05,0.35c-0.36667,0.1 -0.73333,0.2 -1.1,0.3c-0.56667,0.16667 -1.15,0.31667 -1.75,0.45c-0.36667,0.1 -0.73333,0.2 -1.1,0.3c-0.46667,0 -0.93333,0 -1.4,0c-0.43333,-0.1 -0.85,-0.21667 -1.25,-0.35c-0.13333,-0.16667 -0.25,-0.35 -0.35,-0.55c-0.23333,-0.16667 -0.48333,-0.33333 -0.75,-0.5c-0.1,-0.2 -0.21667,-0.38333 -0.35,-0.55c-0.03333,-0.16667 -0.08333,-0.35 -0.15,-0.55c-0.06667,-0.16667 -0.13333,-0.33333 -0.2,-0.5c-0.1,-0.2 -0.21667,-0.38333 -0.35,-0.55c0,-0.16667 0,-0.35 0,-0.55c-0.06667,-0.16667 -0.13333,-0.35 -0.2,-0.55c-0.03333,-0.16667 -0.08333,-0.33333 -0.15,-0.5c-0.13333,-0.2 -0.25,-0.38333 -0.35,-0.55c0,-0.16667 0,-0.35 0,-0.55c-0.06667,-0.16667 -0.13333,-0.33333 -0.2,-0.5c-0.06667,-0.2 -0.11667,-0.38333 -0.15,-0.55c-0.13333,-0.16667 -0.26667,-0.35 -0.4,-0.55c0,-0.16667 0,-0.35 0,-0.55c-0.03333,-0.16667 -0.08333,-0.33333 -0.15,-0.5c-0.06667,-0.2 -0.13333,-0.38333 -0.2,-0.55c-0.1,-0.16667 -0.21667,-0.35 -0.35,-0.55c0,-0.16667 0,-0.33333 0,-0.5c0,-0.2 0,-0.38333 0,-0.55c0,-0.16667 0,-0.35 0,-0.55c0,-0.16667 0,-0.35 0,-0.55c-0.06667,-0.16667 -0.11667,-0.33333 -0.15,-0.5c-0.13333,-0.2 -0.26667,-0.38333 -0.4,-0.55c-0.03333,-0.16667 -0.08333,-0.35 -0.15,-0.55c0,-0.16667 0,-0.33333 0,-0.5c0,-0.2 0,-0.38333 0,-0.55c0,-0.16667 0,-0.35 0,-0.55c0,-0.16667 0,-0.35 0,-0.55c0,-0.16667 0,-0.33333 0,-0.5c0,-0.2 0,-0.38333 0,-0.55c-0.06667,-0.16667 -0.13333,-0.35 -0.2,-0.55c-0.03333,-0.16667 -0.08333,-0.33333 -0.15,-0.5c-0.13333,-0.2 -0.25,-0.38333 -0.35,-0.55c0,-0.16667 0,-0.35 0,-0.55c0,-0.16667 0,-0.35 0,-0.55c0,-0.16667 0,-0.33333 0,-0.5c0,-0.36667 0,-0.73333 0,-1.1c0,-0.33333 0,-0.68333 0,-1.05c0,-0.36667 0,-0.73333 0,-1.1c0,-0.33333 0,-0.68333 0,-1.05c0,-0.53333 0,-1.06667 0,-1.6c0,-0.16667 0,-0.35 0,-0.55c-0.06667,-0.06667 -0.13333,-0.1 -0.2,-0.1c-0.23333,0 -0.46667,0.03333 -0.7,0.1c-0.43333,0.13333 -0.85,0.26667 -1.25,0.4c-0.3,0.1 -0.6,0.2 -0.9,0.3c-1.06667,0.13333 -2.13333,0.26667 -3.2,0.4c0,0.16667 0,0.33333 0,0.5c0.1,0.2 0.21667,0.38333 0.35,0.55c0.06667,0.16667 0.11667,0.35 0.15,0.55c0.06667,0.16667 0.13333,0.33333 0.2,0.5c0,0.2 0,0.38333 0,0.55c0.1,0.2 0.21667,0.38333 0.35,0.55c0.06667,0.16667 0.13333,0.35 0.2,0.55c0.03333,0.16667 0.08333,0.33333 0.15,0.5c0,0.2 0,0.38333 0,0.55c0,0.16667 0,0.35 0,0.55c0.06667,0.16667 0.13333,0.33333 0.2,0.5c0.1,0.2 0.21667,0.38333 0.35,0.55c0.06667,0.2 0.11667,0.38333 0.15,0.55c0,0.16667 0,0.35 0,0.55c0,0.16667 0,0.33333 0,0.5c0,0.2 0,0.38333 0,0.55c0.06667,0.16667 0.13333,0.35 0.2,0.55c0.06667,0.16667 0.13333,0.33333 0.2,0.5c0.03333,0.2 0.08333,0.38333 0.15,0.55c0.06667,0.2 0.13333,0.38333 0.2,0.55c0,0.16667 0,0.35 0,0.55c0,0.16667 0,0.33333 0,0.5c0.06667,0.2 0.11667,0.38333 0.15,0.55c0.13333,0.16667 0.25,0.35 0.35,0.55c0.06667,0.16667 0.13333,0.33333 0.2,0.5c0,0.2 0,0.38333 0,0.55c0,0.2 0,0.38333 0,0.55c0.06667,0.16667 0.13333,0.35 0.2,0.55c0.1,0.16667 0.21667,0.33333 0.35,0.5c0.1,0.2 0.21667,0.38333 0.35,0.55c0,0.16667 0,0.35 0,0.55c0,0.16667 0,0.33333 0,0.5c0.1,0.2 0.21667,0.38333 0.35,0.55c0.13333,0.2 0.25,0.38333 0.35,0.55c0,0.16667 0,0.35 0,0.55c0,0.16667 0,0.33333 0,0.5c-0.06667,0.2 -0.11667,0.38333 -0.15,0.55c0,0.16667 0,0.35 0,0.55c-0.13333,0.16667 -0.26667,0.33333 -0.4,0.5c-0.16667,0.2 -0.33333,0.38333 -0.5,0.55c-0.3,0.13333 -0.6,0.25 -0.9,0.35c-3.26667,0.13333 -6.53333,0.25 -9.8,0.35c-0.3,0.13333 -0.6,0.26667 -0.9,0.4c-2.56667,0.1 -5.13333,0.21667 -7.7,0.35c-0.3,0.1 -0.6,0.21667 -0.9,0.35c-7.13333,0 -14.26667,0 -21.4,0c-0.36667,-0.13333 -0.73333,-0.25 -1.1,-0.35c-2.96667,-0.06667 -5.93333,-0.13333 -8.9,-0.2c-0.43333,-0.1 -0.85,-0.21667 -1.25,-0.35c-0.13333,-0.16667 -0.25,-0.35 -0.35,-0.55c-0.26667,-0.16667 -0.51667,-0.33333 -0.75,-0.5c-0.1,-0.2 -0.21667,-0.38333 -0.35,-0.55c-0.06667,-0.16667 -0.11667,-0.35 -0.15,-0.55c-0.06667,-0.16667 -0.13333,-0.35 -0.2,-0.55c-0.13333,-0.16667 -0.25,-0.33333 -0.35,-0.5c0,-0.2 0,-0.38333 0,-0.55c0,-0.16667 0,-0.35 0,-0.55c0,-0.16667 0,-0.33333 0,-0.5c0,-0.2 0,-0.38333 0,-0.55c-0.06667,-0.16667 -0.13333,-0.35 -0.2,-0.55c-0.1,-0.16667 -0.21667,-0.35 -0.35,-0.55c-0.06667,-0.16667 -0.11667,-0.33333 -0.15,-0.5c0,-0.2 0,-0.38333 0,-0.55c0,-0.16667 0,-0.35 0,-0.55c0,-0.16667 0,-0.33333 0,-0.5c0,-0.2 0,-0.38333 0,-0.55c0,-0.16667 0,-0.35 0,-0.55c0,-0.16667 0,-0.35 0,-0.55c-0.06667,-0.16667 -0.13333,-0.33333 -0.2,-0.5c-0.06667,-0.2 -0.13333,-0.38333 -0.2,-0.55c-0.1,-0.16667 -0.21667,-0.35 -0.35,-0.55c0,-0.16667 0,-0.33333 0,-0.5c0,-0.2 0,-0.38333 0,-0.55c0,-0.16667 0,-0.35 0,-0.55c0,-0.16667 0,-0.35 0,-0.55c0,-0.16667 0,-0.33333 0,-0.5c0,-0.2 0,-0.38333 0,-0.55c0,-0.16667 0,-0.35 0,-0.55c-0.1,-0.16667 -0.21667,-0.33333 -0.35,-0.5c-0.1,-0.2 -0.21667,-0.38333 -0.35,-0.55c0,-0.16667 0,-0.35 0,-0.55c0,-0.16667 0,-0.35 0,-0.55c0,-0.16667 0,-0.33333 0,-0.5c0,-0.2 0,-0.38333 0,-0.55c0,-0.16667 0,-0.35 0,-0.55c0,-0.16667 0,-0.33333 0,-0.5c0,-0.2 0,-0.38333 0,-0.55c0,-0.16667 0,-0.35 0,-0.55c0,-0.36667 0,-0.71667 0,-1.05c0.06667,-0.2 0.13333,-0.38333 0.2,-0.55c0.03333,-0.16667 0.08333,-0.35 0.15,-0.55c0.13333,-0.16667 0.25,-0.33333 0.35,-0.5c0,-1.26667 0,-2.51667 0,-3.75c0,-2.5 0,-5 0,-7.5c0,-2.7 0,-5.38333 0,-8.05c0,-2.33333 0,-4.65 0,-6.95c0,-2.33333 0,-4.66667 0,-7c0,-0.86667 0,-1.75 0,-2.65c0,-0.73333 0,-1.45 0,-2.15c-0.03333,-0.16667 -0.08333,-0.35 -0.15,-0.55c-0.06667,-0.16667 -0.13333,-0.33333 -0.2,-0.5c-0.1,-0.2 -0.21667,-0.38333 -0.35,-0.55c0,-0.16667 0,-0.35 0,-0.55c0,-0.16667 0,-0.35 0,-0.55c0,-0.16667 0,-0.33333 0,-0.5c0,-0.2 0,-0.38333 0,-0.55c0,-0.16667 0,-0.35 0,-0.55c0,-0.16667 0,-0.33333 0,-0.5c0,-0.36667 0,-0.73333 0,-1.1c0,-0.36667 0,-0.71667 0,-1.05c0,-0.36667 0,-0.73333 0,-1.1c-0.13333,-0.16667 -0.25,-0.33333 -0.35,-0.5c-0.06667,-0.2 -0.13333,-0.38333 -0.2,-0.55c-0.03333,-0.16667 -0.08333,-0.35 -0.15,-0.55c0,-0.16667 0,-0.35 0,-0.55c0,-0.16667 0,-0.33333 0,-0.5c0,-0.2 0,-0.38333 0,-0.55c0,-0.36667 0,-0.71667 0,-1.05c0,-0.36667 0,-0.73333 0,-1.1c0,-0.53333 0,-1.06667 0,-1.6c0,-0.36667 0,-0.71667 0,-1.05c0,-0.53333 0,-1.08333 0,-1.65c0,-0.16667 0,-0.33333 0,-0.5c0.06667,-0.2 0.11667,-0.38333 0.15,-0.55c0.06667,-0.16667 0.13333,-0.35 0.2,-0.55c0.1,-0.16667 0.21667,-0.33333 0.35,-0.5c0,-0.2 0,-0.38333 0,-0.55c0,-0.16667 0,-0.35 0,-0.55c0,-0.16667 0,-0.35 0,-0.55c0,-0.33333 0,-0.68333 0,-1.05c0,-0.36667 0,-0.71667 0,-1.05c0,-0.36667 0,-0.73333 0,-1.1c0,-0.36667 0,-0.71667 0,-1.05c0,-0.53333 0,-1.06667 0,-1.6c0,-0.2 0,-0.38333 0,-0.55c0.13333,-0.16667 0.25,-0.35 0.35,-0.55c0.06667,-0.16667 0.13333,-0.35 0.2,-0.55c0.06667,-0.16667 0.11667,-0.33333 0.15,-0.5c0,-0.2 0,-0.38333 0,-0.55c0,-0.16667 0,-0.35 0,-0.55c0,-0.16667 0,-0.33333 0,-0.5c0,-0.2 0,-0.38333 0,-0.55c0,-0.16667 0,-0.35 0,-0.55c0,-0.16667 0,-0.35 0,-0.55c0,-0.16667 0,-0.33333 0,-0.5c0,-0.2 0,-0.38333 0,-0.55c0,-0.36667 0,-0.71667 0,-1.05c0.13333,-0.2 0.25,-0.38333 0.35,-0.55c0.13333,-0.16667 0.26667,-0.35 0.4,-0.55c0.16667,-0.16667 0.33333,-0.33333 0.5,-0.5c0.2,-0.13333 0.38333,-0.26667 0.55,-0.4c0.3,-0.1 0.6,-0.21667 0.9,-0.35c0.16667,-0.16667 0.35,-0.33333 0.55,-0.5c0.16667,-0.13333 0.33333,-0.26667 0.5,-0.4c0.06667,-0.03333 0.13333,-0.08333 0.2,-0.15c0.3,-0.13333 0.6,-0.25 0.9,-0.35c0.16667,-0.2 0.33333,-0.38333 0.5,-0.55c0.2,-0.13333 0.38333,-0.25 0.55,-0.35c0.06667,-0.06667 0.13333,-0.13333 0.2,-0.2c0.3,-0.1 0.6,-0.21667 0.9,-0.35c0.16667,-0.1 0.33333,-0.21667 0.5,-0.35c0.3,-0.06667 0.6,-0.13333 0.9,-0.2c0.3,-0.1 0.6,-0.2 0.9,-0.3c0.43333,-0.13333 0.85,-0.25 1.25,-0.35c0.53333,-0.13333 1.06667,-0.26667 1.6,-0.4c1.2,-0.23333 2.38333,-0.48333 3.55,-0.75c0.43333,-0.1 0.86667,-0.2 1.3,-0.3c1.23333,-0.13333 2.48333,-0.26667 3.75,-0.4c0.4,-0.1 0.81667,-0.21667 1.25,-0.35c0.23333,0 0.46667,0 0.7,0c1.3,-0.06667 2.6,-0.11667 3.9,-0.15c0.36667,-0.13333 0.73333,-0.25 1.1,-0.35c1.3,-0.13333 2.6,-0.26667 3.9,-0.4c0.36667,-0.1 0.73333,-0.21667 1.1,-0.35c7.86667,0.06667 15.71667,0.13333 23.55,0.2c0.23333,0.06667 0.46667,0.11667 0.7,0.15c0.3,0.13333 0.6,0.26667 0.9,0.4c0.2,0.1 0.38333,0.21667 0.55,0.35c0.3,0.1 0.6,0.21667 0.9,0.35c0.1,0.16667 0.21667,0.35 0.35,0.55c0.16667,0.16667 0.35,0.33333 0.55,0.5c0.4,0.2 0.81667,0.38333 1.25,0.55c0.06667,0.16667 0.11667,0.35 0.15,0.55c0.13333,0.1 0.25,0.21667 0.35,0.35c0.56667,-0.06667 1.11667,-0.13333 1.65,-0.2c0.4,-0.1 0.81667,-0.21667 1.25,-0.35c1.23333,-0.1 2.48333,-0.21667 3.75,-0.35c0.4,-0.13333 0.81667,-0.23333 1.25,-0.3c0.76667,-0.16667 1.53333,-0.31667 2.3,-0.45c0.43333,-0.1 0.85,-0.2 1.25,-0.3c3.63333,-0.13333 7.26667,-0.26667 10.9,-0.4c0.4,-0.1 0.81667,-0.21667 1.25,-0.35c1.9,0 3.8,0 5.7,0c0.43333,0.13333 0.85,0.25 1.25,0.35c3.4,0.13333 6.8,0.26667 10.2,0.4c0.33333,0.1 0.68333,0.21667 1.05,0.35c0.83333,0.1 1.66667,0.21667 2.5,0.35c0.43333,0.1 0.85,0.21667 1.25,0.35c1,0.13333 2.01667,0.25 3.05,0.35c0.36667,0.13333 0.71667,0.25 1.05,0.35c1.33333,0.13333 2.65,0.25 3.95,0.35c0.4,0.13333 0.81667,0.26667 1.25,0.4c1.23333,0.1 2.48333,0.21667 3.75,0.35c0.4,0.1 0.81667,0.21667 1.25,0.35c1.23333,0.1 2.48333,0.21667 3.75,0.35c0.4,0.13333 0.81667,0.23333 1.25,0.3c0.76667,0.16667 1.53333,0.3 2.3,0.4c0.36667,0.13333 0.73333,0.25 1.1,0.35c0.56667,0.13333 1.15,0.26667 1.75,0.4c0.36667,0.1 0.73333,0.21667 1.1,0.35c0.16667,0.1 0.33333,0.21667 0.5,0.35c0.3,0.1 0.6,0.21667 0.9,0.35c0.13333,0.13333 0.25,0.25 0.35,0.35c0.36667,0.13333 0.73333,0.25 1.1,0.35c0.16667,0.13333 0.35,0.25 0.55,0.35c0.3,0.13333 0.58333,0.26667 0.85,0.4c0.2,0.16667 0.38333,0.33333 0.55,0.5c0.23333,0 0.46667,0 0.7,0c0,-0.16667 0,-0.33333 0,-0.5c0,-0.2 0,-0.38333 0,-0.55c0,-0.2 0,-0.38333 0,-0.55c0,-0.16667 0,-0.35 0,-0.55c0,-0.16667 0,-0.33333 0,-0.5c0,-0.2 0,-0.38333 0,-0.55c0,-0.16667 0,-0.35 0,-0.55c0.13333,-0.16667 0.26667,-0.33333 0.4,-0.5c0.1,-0.2 0.21667,-0.38333 0.35,-0.55c0.16667,-0.2 0.33333,-0.38333 0.5,-0.55c0.2,-0.16667 0.38333,-0.35 0.55,-0.55c0.2,-0.1 0.38333,-0.21667 0.55,-0.35c0.06667,-0.06667 0.13333,-0.1 0.2,-0.1c0.26667,-0.1 0.55,-0.18333 0.85,-0.25c0.53333,-0.1 1.06667,-0.21667 1.6,-0.35c0.43333,-0.13333 0.85,-0.25 1.25,-0.35c8.4,-0.13333 16.8,-0.25 25.2,-0.35c0.4,-0.13333 0.81667,-0.25 1.25,-0.35c2.2,-0.13333 4.4,-0.26667 6.6,-0.4c0.43333,-0.1 0.85,-0.21667 1.25,-0.35c2.43333,-0.1 4.88333,-0.21667 7.35,-0.35c0.4,-0.1 0.8,-0.21667 1.2,-0.35c2.16667,0 4.31667,0 6.45,0c0.36667,0.13333 0.71667,0.25 1.05,0.35c0.13333,0.13333 0.26667,0.25 0.4,0.35c0.33333,0 0.68333,0 1.05,0c0.16667,-0.1 0.35,-0.21667 0.55,-0.35c0.16667,-0.16667 0.33333,-0.35 0.5,-0.55c0.2,-0.16667 0.38333,-0.33333 0.55,-0.5c0.2,-0.13333 0.38333,-0.25 0.55,-0.35c0.06667,-0.06667 0.13333,-0.11667 0.2,-0.15c0.26667,-0.1 0.55,-0.18333 0.85,-0.25c0.5,0 0.98333,0 1.45,0c0.36667,0.13333 0.71667,0.26667 1.05,0.4c2.33333,0 4.66667,0 7,0c0.4,-0.13333 0.81667,-0.26667 1.25,-0.4c5.53333,-0.1 11.06667,-0.21667 16.6,-0.35c0.4,-0.1 0.81667,-0.21667 1.25,-0.35c1.7,-0.1 3.41667,-0.21667 5.15,-0.35c0.43333,-0.13333 0.85,-0.25 1.25,-0.35c2.43333,-0.13333 4.88333,-0.25 7.35,-0.35z" fill="#ffffff"/><path d="M457.5524,316.00631c1.23333,1.43333 1.85,2.75 1.85,3.95c0,1.2 0.28333,3.8 0.85,7.8c0.13333,1 0.63333,3.81667 1.5,8.45c0.8,4.13333 1.2,6.51667 1.2,7.15c0,0.7 -0.03333,1.13333 -0.1,1.3c-0.23333,0.6 -0.86667,1.03333 -1.9,1.3c-17.36667,1.5 -26.75,2.28333 -28.15,2.35l-2.05,0.65c0.33333,1.13333 0.8,3.7 1.4,7.7c1.76667,0 6.11667,-0.83333 13.05,-2.5h2.9c1.66667,1.43333 2.96667,5 3.9,10.7c0.6,3.83333 0.9,6.96667 0.9,9.4c0,1.23333 -0.03333,1.98333 -0.1,2.25c-0.23333,0.86667 -0.83333,1.43333 -1.8,1.7c-2.6,0.03333 -5.1,0.23333 -7.5,0.6c-3.26667,0.53333 -6.31667,0.9 -9.15,1.1c0.36667,1.43333 1.35,5.48333 2.95,12.15c1.46667,6.2 2.2,9.93333 2.2,11.2c0,0.23333 -0.18333,0.53333 -0.55,0.9c-0.2,0.16667 -0.71667,0.58333 -1.55,1.25c-3.06667,-0.06667 -5.83333,0.15 -8.3,0.65c-3,0.56667 -7.13333,0.93333 -12.4,1.1h-4.3c-1.53333,-1.13333 -2.48333,-2.85 -2.85,-5.15c-0.2,0.2 -0.45,0.38333 -0.75,0.55c-1.33333,-2.4 -2.2,-5.31667 -2.6,-8.75c-0.2,-3.93333 -0.41667,-6.9 -0.65,-8.9c-0.26667,-2.3 -0.33333,-5.1 -0.2,-8.4c0.2,-3.36667 0.35,-6.01667 0.45,-7.95c-0.2,-2.3 -0.41667,-4.71667 -0.65,-7.25c-1.83333,-26.06667 -2.75,-39.15 -2.75,-39.25c0,-0.7 0.15,-1.16667 0.45,-1.4c0.03333,0 0.35,-0.1 0.95,-0.3c0.23333,0.5 0.45,1.01667 0.65,1.55c1.76667,-1 5.65,-2.26667 11.65,-3.8c9.23333,-2.36667 17.26667,-3.48333 24.1,-3.35c0,-0.2 2.71667,-0.15 8.15,0.15c5.5,0.33333 8.56667,0.7 9.2,1.1M515.5024,321.60631c8.36667,4.06667 12.55,9.73333 12.55,17c0,4.93333 -2.83333,10.76667 -8.5,17.5c-3.2,3.8 -6.01667,6.48333 -8.45,8.05c1.03333,1.16667 2.35,2.73333 3.95,4.7c3.06667,3.8 5.91667,7.58333 8.55,11.35c0.13333,0.2 1.86667,3.03333 5.2,8.5c3.3,5.66667 4.95,9.23333 4.95,10.7c0,1.23333 -0.7,2.11667 -2.1,2.65c-3.5,1.36667 -11,2.05 -22.5,2.05c-1.76667,0 -4.98333,-3.43333 -9.65,-10.3c-5.9,-8.7 -9.41667,-13.63333 -10.55,-14.8c-0.1,0.2 -0.15,0.95 -0.15,2.25c0,2.53333 0.6,6.31667 1.8,11.35c0.56667,2.5 1.15,4.98333 1.75,7.45c0,1.06667 -0.41667,1.76667 -1.25,2.1c-1.5,0.63333 -4.9,0.98333 -10.2,1.05c-2.66667,0.03333 -5.35,0.48333 -8.05,1.35c-2.7,0.86667 -4.38333,1.3 -5.05,1.3c-1.33333,0 -2.18333,-0.45 -2.55,-1.35c-0.16667,-1.03333 -0.35,-1.68333 -0.55,-1.95v-28.65c-0.46667,-1.33333 -0.7,-3.2 -0.7,-5.6c0,-1.56667 0.06667,-3.75 0.2,-6.55c0.16667,-3.93333 0.4,-6.98333 0.7,-9.15v-30.1c0.1,-1.26667 0.21667,-2.35 0.35,-3.25c0.73333,0 1.5,0.2 2.3,0.6c0.43333,-0.23333 0.95,-0.4 1.55,-0.5c2.4,-0.56667 7.8,-1.13333 16.2,-1.7c11.83333,-1.36667 21.9,-0.05 30.2,3.95M486.3524,337.70631l-0.2,0.7c0.76667,1.26667 1.23333,3.08333 1.4,5.45c0.23333,3.16667 0.41667,5.01667 0.55,5.55c6.33333,-0.96667 10.68333,-2.05 13.05,-3.25c1.9,-0.96667 2.85,-2.28333 2.85,-3.95c0,-2.03333 -1.25,-3.53333 -3.75,-4.5c-3.16667,-1.26667 -7.8,-1.26667 -13.9,0M581.6024,320.35631c2.8,1.53333 4.3,3.78333 4.5,6.75c0.13333,1.66667 0.06667,4 -0.2,7c0.46667,4.56667 0.7,8.91667 0.7,13.05c0,1.23333 -0.1,1.98333 -0.3,2.25c-0.33333,0.36667 -1.35,0.63333 -3.05,0.8c-13.73333,1.5 -22.81667,2.6 -27.25,3.3v3.9c0.2,1.26667 0.9,2.33333 2.1,3.2c3.26667,-0.43333 6.45,-1.03333 9.55,-1.8c2.16667,-0.56667 4.11667,-0.85 5.85,-0.85c1.33333,0 2.38333,2.03333 3.15,6.1c0.36667,2.03333 0.61667,4.1 0.75,6.2c0,1.13333 -0.03333,1.83333 -0.1,2.1c-0.26667,0.96667 -0.95,1.65 -2.05,2.05c-5.26667,0.26667 -10.15,0.81667 -14.65,1.65l-1.45,0.45c0.06667,0.46667 0.31667,1.3 0.75,2.5c0.23333,0.63333 0.58333,1.58333 1.05,2.85c1.1,0 4.2,-0.35 9.3,-1.05c5.56667,-0.7 9.35,-1.3 11.35,-1.8h6.5c1.46667,1.26667 2.6,3.9 3.4,7.9c0.6,3.1 0.9,6.25 0.9,9.45c0,1.73333 -0.43333,2.8 -1.3,3.2c-1.46667,0.66667 -5.33333,1.05 -11.6,1.15c-13.43333,0.2 -22.5,0.71667 -27.2,1.55c-4.33333,0.73333 -7.53333,1.1 -9.6,1.1c-3.4,0 -5.71667,-4.8 -6.95,-14.4c-0.36667,-2.86667 -0.71667,-9.1 -1.05,-18.7v-24.65c-0.4,-2 -0.6,-4.96667 -0.6,-8.9v-4.4c0,-0.76667 -0.13333,-1.51667 -0.4,-2.25c-0.26667,-0.76667 -0.4,-1.36667 -0.4,-1.8c0,-1.23333 1,-2.1 3,-2.6c2.43333,-0.6 7.85,-1.11667 16.25,-1.55c3.5,-0.2 7.66667,-0.95 12.5,-2.25c4.13333,-1.06667 9.65,-1.56667 16.55,-1.5M646.8024,346.25631c-0.43333,0.3 -1.51667,0.53333 -3.25,0.7c-7.06667,0.43333 -15.13333,1.1 -24.2,2l-2.1,0.6c0,0.43333 0.11667,1.26667 0.35,2.5c0.23333,1.26667 0.35,2.23333 0.35,2.9h3.9c2.1,-0.1 4.48333,-0.5 7.15,-1.2c1.4,-0.33333 2.75,-0.71667 4.05,-1.15h2.9c1.83333,0.76667 2.95,2.03333 3.35,3.8c0,0.03333 0.05,1.53333 0.15,4.5c0,0.9 0.13333,2.26667 0.4,4.1c0.26667,1.86667 0.4,3.03333 0.4,3.5c0,0.73333 -0.03333,1.16667 -0.1,1.3c-0.26667,0.63333 -0.96667,1.06667 -2.1,1.3c-1.83333,-0.16667 -4.11667,-0.16667 -6.85,0c-1.4,0.06667 -5.53333,0.33333 -12.4,0.8c0.2,0.6 0.26667,1.55 0.2,2.85c0.13333,1 0.76667,1.55 1.9,1.65c10.93333,-0.46667 16.76667,-0.7 17.5,-0.7c6.03333,0 9.78333,0.38333 11.25,1.15c2.1,1.06667 3.25,3.81667 3.45,8.25c0.03333,1.13333 0.51667,3.03333 1.45,5.7c0.9,2.56667 1.35,3.88333 1.35,3.95c0,1.13333 -0.61667,1.91667 -1.85,2.35c-1.16667,0.4 -3.6,0.7 -7.3,0.9c-21.46667,1.2 -35.06667,2.06667 -40.8,2.6h-3.6c-2.53333,-2.13333 -3.95,-5.13333 -4.25,-9c0.03333,-4.4 -0.15,-7.6 -0.55,-9.6c-0.5,-2.33333 -0.73333,-5.4 -0.7,-9.2c0.06667,-5.46667 0.06667,-8.68333 0,-9.65c-0.06667,-1.56667 -0.48333,-7.8 -1.25,-18.7c0.26667,-4.1 0.35,-7.21667 0.25,-9.35c-0.16667,-3.76667 -1.5,-6.53333 -4,-8.3c0.1,-1.7 2.7,-3.11667 7.8,-4.25c4.3,-0.93333 13.08333,-2.2 26.35,-3.8c8.76667,-1.13333 14.45,-0.76667 17.05,1.1c2.33333,1.66667 3.06667,5.3 2.2,10.9c0,1.3 0.35,3.91667 1.05,7.85c0.7,3.93333 1.05,6 1.05,6.2c0,0.76667 -0.18333,1.25 -0.55,1.45M738.9024,340.15631c-1.53333,3.5 -3.6,6.76667 -6.2,9.8c-2.3,2.66667 -4.76667,4.88333 -7.4,6.65c0.43333,-0.13333 0.85,-0.23333 1.25,-0.3c0.7,-0.4 1.46667,-0.81667 2.3,-1.25c2.63333,-1.33333 5.46667,-2.68333 8.5,-4.05c3.23333,-1.76667 5.11667,-1.18333 5.65,1.75c0.3,1.56667 0.26667,3.73333 -0.1,6.5c-0.3,3.36667 -0.48333,7.4 -0.55,12.1c0,0.73333 0,4.91667 0,12.55c2.36667,0 6.91667,-0.7 13.65,-2.1c3.36667,-0.73333 6.55,-1.46667 9.55,-2.2c1.8,0 2.88333,1.56667 3.25,4.7c0.2,1.53333 0.2,3.11667 0,4.75c0,0.83333 0,2.76667 0,5.8c-0.23333,2.6 -1.05,3.9 -2.45,3.9c-0.4,0 -0.78333,-0.06667 -1.15,-0.2c-0.36667,0.33333 -0.83333,0.61667 -1.4,0.85c-0.43333,0.2 -2.45,0.46667 -6.05,0.8c-3.36667,0.33333 -5.4,0.5 -6.1,0.5c-8.5,0.4 -13.61667,0.65 -15.35,0.75c-1.8,0.13333 -5.5,0.71667 -11.1,1.75h-3.6c-1.33333,-1.43333 -2.48333,-5.61667 -3.45,-12.55c-0.76667,-5.6 -1.15,-10.26667 -1.15,-14c0,-5.7 0,-8.61667 0,-8.75c0.23333,-3.63333 0.96667,-5.86667 2.2,-6.7c-0.03333,-0.13333 -0.05,-0.28333 -0.05,-0.45c0,-0.4 0.33333,-0.85 1,-1.35c-3.7,1.53333 -7.68333,2.35 -11.95,2.45c0.76667,1.4 1.26667,3.05 1.5,4.95c0.3,2.2 0.6,5.61667 0.9,10.25c0.1,0.53333 0.66667,3.6 1.7,9.2c1.03333,5.5 1.55,8.6 1.55,9.3c0,1.43333 -0.73333,2.8 -2.2,4.1c-1.1,0.03333 -5.71667,0.63333 -13.85,1.8c-8.06667,1.2 -12.15,1.8 -12.25,1.8c-4.16667,0 -6.33333,-1.16667 -6.5,-3.5c0.46667,-3.66667 0.4,-6.9 -0.2,-9.7c-0.43333,-1.86667 -0.66667,-4.08333 -0.7,-6.65c0,-2.96667 0,-5.21667 0,-6.75c0,-2.96667 0.11667,-7.5 0.35,-13.6c0.23333,-6.1 0.35,-10.61667 0.35,-13.55c-4.56667,0.96667 -8.16667,1.56667 -10.8,1.8c-1.43333,-0.76667 -2.26667,-1.7 -2.5,-2.8c0.03333,-1.06667 0.05,-1.71667 0.05,-1.95c0.03333,-0.56667 -0.06667,-1.38333 -0.3,-2.45c-0.3,-1.13333 -0.45,-1.98333 -0.45,-2.55c-0.13333,-1.36667 -0.16667,-3.25 -0.1,-5.65c0.06667,-2.46667 0.1,-4.01667 0.1,-4.65c0,-6.93333 0.28333,-13.11667 0.85,-18.55c0.33333,0 0.63333,0.01667 0.9,0.05c-0.03333,-0.03333 -0.06667,-0.05 -0.1,-0.05l-0.55,-0.45c1.1,-1.8 4.8,-3.1 11.1,-3.9c0.43333,-0.1 7.68333,-0.78333 21.75,-2.05c14.36667,0.2 24.95,2.36667 31.75,6.5c6.93333,4.23333 10.4,10.78333 10.4,19.65c0,2.06667 -0.68333,4.63333 -2.05,7.7M699.5024,328.65631c-0.56667,1.5 -0.7,3.55 -0.4,6.15c0.5,3.96667 0.75,6.41667 0.75,7.35l-0.15,0.25c-0.1,0.16667 0.2,0.25 0.9,0.25c3.56667,0 6.73333,-1.41667 9.5,-4.25c2.06667,-2.13333 3.1,-3.63333 3.1,-4.5c0,-4.13333 -4.56667,-5.88333 -13.7,-5.25M810.1524,392.05631c0,1.26667 -0.95,2.25 -2.85,2.95c-2.5,0.73333 -4.36667,1.31667 -5.6,1.75h-12.9c-1.23333,-0.2 -2.05,-0.63333 -2.45,-1.3c-2.26667,-0.33333 -3.9,-4.03333 -4.9,-11.1c-0.3,-1.96667 -0.73333,-7.43333 -1.3,-16.4l0.05,-0.15c0.03333,-0.1 -0.3,-0.15 -1,-0.15l-4.9,0.3c-0.26667,2.73333 -0.51667,4.46667 -0.75,5.2c-0.56667,1.96667 -1.68333,3.65 -3.35,5.05c-3.73333,0.16667 -7.1,0.38333 -10.1,0.65c-2.5,0.23333 -4.13333,0.45 -4.9,0.65h-2.85l-1.95,-1.85c0,-3.8 1.75,-11.21667 5.25,-22.25c2.4,-7.56667 4.25,-12.85 5.55,-15.85c-0.43333,-0.13333 -0.65,-0.43333 -0.65,-0.9c0,-0.23333 0.56667,-0.83333 1.7,-1.8c1.13333,-1.23333 1.7,-2.7 1.7,-4.4c0.66667,-1 1.71667,-1.6 3.15,-1.8c1.06667,-0.13333 2.95,-0.05 5.65,0.25c8.66667,0.93333 16.15,1.23333 22.45,0.9c0.03333,0.03333 0.06667,0.06667 0.1,0.1c1,0.1 2.1,0.98333 3.3,2.65c0,1.6 0.23333,4.4 0.7,8.4c0.33333,2.2 0.91667,4.93333 1.75,8.2c1.3,5.1 1.98333,7.8 2.05,8.1c0.33333,1.46667 0.78333,4.23333 1.35,8.3c0.56667,3.83333 1.06667,6.66667 1.5,8.5c0.2,0.83333 1.01667,3.81667 2.45,8.95c1.16667,4.26667 1.75,6.61667 1.75,7.05M777.0024,352.30631h5.7l0.15,-0.8c-0.16667,-0.66667 -0.5,-1.28333 -1,-1.85c-0.9,-1 -2.16667,-1.66667 -3.8,-2c0,0.03333 -0.15,0.75 -0.45,2.15c-0.16667,0.86667 -0.36667,1.58333 -0.6,2.15v0.35M840.2024,359.40631c0.83333,3.3 1.56667,8.01667 2.2,14.15c0.7,6.76667 1.15,13.55 1.35,20.35c0,2.23333 -0.16667,3.55 -0.5,3.95c-0.93333,1.06667 -3.61667,1.8 -8.05,2.2h-17.85c-2.96667,-0.96667 -4.56667,-3.4 -4.8,-7.3c0.33333,-3.8 0.5,-5.81667 0.5,-6.05c0,-0.93333 0.18333,-4.16667 0.55,-9.7c0.4,-6.06667 0.76667,-10.9 1.1,-14.5c-0.03333,-2.63333 -0.05,-4.6 -0.05,-5.9c0,-1.16667 0.03333,-2.25 0.1,-3.25c-2.23333,-2.96667 -5.3,-7.91667 -9.2,-14.85c-0.53333,-0.96667 -1.4,-2.75 -2.6,-5.35c-0.26667,-0.5 -0.55,-1.01667 -0.85,-1.55c-4.93333,-9.06667 -7.4,-14.05 -7.4,-14.95c0,-1.2 0.06667,-1.95 0.2,-2.25c0.2,-0.5 0.75,-0.93333 1.65,-1.3c0.03333,-0.03333 4.9,-1.38333 14.6,-4.05c4.8,-1.36667 8.18333,-1.36667 10.15,0c1.13333,0.8 2.2,2.28333 3.2,4.45c0.3,1.1 1.36667,4.28333 3.2,9.55c1.36667,3.86667 2.2,7.26667 2.5,10.2c0.13333,0 0.28333,0.1 0.45,0.3c0.26667,0.33333 0.41667,0.51667 0.45,0.55c1.4,-1.46667 4.63333,-6.26667 9.7,-14.4c4.33333,-6.96667 7.1,-10.45 8.3,-10.45c2.06667,0 5.76667,2.15 11.1,6.45c5.2,4.13333 7.8,6.75 7.8,7.85c0,1.43333 -9.26667,13.38333 -27.8,35.85z" fill="#000000"/></g></g></svg>