<svg version="1.1" xmlns="http://www.w3.org/2000/svg" xmlns:xlink="http://www.w3.org/1999/xlink" width="307.706" height="236.80521" viewBox="0,0,307.706,236.80521"><g transform="translate(-486.147,-241.5974)"><g data-paper-data="{&quot;isPaintingLayer&quot;:true}" fill-rule="nonzero" stroke="none" stroke-width="1" stroke-linecap="round" stroke-linejoin="miter" stroke-miterlimit="4" stroke-dasharray="" stroke-dashoffset="0" style="mix-blend-mode: normal"><g><g fill="#000000"><path d="M746.516,391.5406c1.59133,0.95067 2.74867,1.74633 3.472,2.387c2.50067,2.21133 4.04033,3.60633 4.619,4.185c2.06667,2.046 3.36867,3.751 3.906,5.115c1.984,5.06333 3.55467,8.75233 4.712,11.067c0.16533,0.496 0.248,3.07933 0.248,7.75c0,10.76733 -4.59833,19.375 -13.795,25.823c-3.55467,2.48 -7.502,4.41233 -11.842,5.797c-3.782,1.19867 -7.223,1.798 -10.323,1.798c-10.788,0 -18.43467,-4.54667 -22.94,-13.64c-2.48,-4.98067 -3.72,-10.09567 -3.72,-15.345c0,-3.88533 0.19633,-6.71667 0.589,-8.494c0.434,-1.96333 1.63267,-5.332 3.596,-10.106c0.496,-1.178 1.49833,-2.68667 3.007,-4.526c1.736,-2.108 3.42033,-3.69933 5.053,-4.774c2.31467,-1.52933 6.08633,-2.92433 11.315,-4.185c5.43533,-1.32267 8.17367,-1.99433 8.215,-2.015c0.434,-0.22733 1.13667,-0.82667 2.108,-1.798c1.44667,-0.78533 3.89567,-1.06433 7.347,-0.837c0.95067,0 2.42833,0.59933 4.433,1.798M747.291,405.0876c-4.092,-3.43067 -9.13467,-4.836 -15.128,-4.216c-5.93133,0.62 -10.974,3.01733 -15.128,7.192c-4.588,4.62933 -6.882,10.40567 -6.882,17.329c0,4.216 0.87833,8.10133 2.635,11.656c2.95533,5.97267 7.86367,8.959 14.725,8.959c2.93467,0 7.17133,-1.22967 12.71,-3.689c5.55933,-2.50067 8.76267,-4.62933 9.61,-6.386c2.542,-4.774 3.94733,-7.51233 4.216,-8.215c0.08267,-0.22733 0.124,-2.139 0.124,-5.735c0,-7.44 -2.294,-13.07167 -6.882,-16.895M706.433,363.7646c0,18.29 -3.14133,34.49267 -9.424,48.608c-9.114,20.522 -23.84933,33.02533 -44.206,37.51h-16.74c-6.09667,-0.682 -11.83167,-3.317 -17.205,-7.905c-1.302,-1.116 -2.449,-2.24233 -3.441,-3.379c-0.28933,0.682 -0.589,1.34333 -0.899,1.984c-7.48133,15.64467 -16.90533,26.381 -28.272,32.209c-7.27467,3.74067 -16.19233,5.611 -26.753,5.611c-14.92133,0 -28.09633,-3.39967 -39.525,-10.199c-10.726,-6.386 -18.68267,-14.973 -23.87,-25.761c-5.456,-11.408 -8.556,-18.79633 -9.3,-22.165c-0.41333,-1.984 -0.63033,-4.433 -0.651,-7.347c0.062,-4.11267 0.093,-7.76033 0.093,-10.943c0,-12.25533 1.31233,-22.91933 3.937,-31.992c2.74867,-9.44467 7.92567,-20.79067 15.531,-34.038c3.348,-5.91067 8.63867,-11.52167 15.872,-16.833c9.15533,-6.77867 19.36467,-11.191 30.628,-13.237c13.22667,-2.418 24.50033,0.279 33.821,8.091c3.18267,2.64533 5.797,5.642 7.843,8.99c1.46733,-4.588 3.51333,-8.99 6.138,-13.206c5.37333,-8.618 12.53433,-15.51033 21.483,-20.677c8.63867,-5.00133 17.422,-7.564 26.35,-7.688c9.3,-0.124 17.10167,2.45933 23.405,7.75c10.044,5.24933 18.68267,16.864 25.916,34.844c2.89333,7.17133 5.18733,14.52867 6.882,22.072c1.59133,7.02667 2.387,12.927 2.387,17.701M695.242,350.7136c-1.77733,-8.96933 -4.19533,-17.19467 -7.254,-24.676c-9.44467,-23.14667 -22.92967,-34.72 -40.455,-34.72c-14.83867,0 -26.753,5.78667 -35.743,17.36c-2.852,3.658 -5.239,7.70867 -7.161,12.152c-0.992,2.25267 -1.72567,4.247 -2.201,5.983c-2.02533,5.766 -3.162,12.276 -3.41,19.53c-0.04133,1.55 0.217,5.177 0.775,10.881c0.04133,1.40533 0,2.61433 -0.124,3.627c7.77067,-2.02533 12.66867,-3.038 14.694,-3.038c4.07133,0 6.71667,6.74767 7.936,20.243c0.59933,6.77867 0.79567,13.58833 0.589,20.429c0,6.73733 -0.75433,14.03267 -2.263,21.886c-0.45467,2.33533 -0.94033,4.557 -1.457,6.665c0.51667,0.33067 0.992,0.78533 1.426,1.364c0.64067,0.88867 1.674,2.52133 3.1,4.898c3.61667,4.75333 10.633,7.13 21.049,7.13c21.576,0 36.766,-12.555 45.57,-37.665c2.79,-7.936 4.75333,-16.69867 5.89,-26.288c0.372,-3.05867 0.64067,-6.03467 0.806,-8.928c0.08267,-1.63267 0.124,-2.914 0.124,-3.844c0,-2.37667 -0.63033,-6.70633 -1.891,-12.989M587.238,345.1956c-2.12867,1.81867 -3.88533,3.49267 -5.27,5.022c-1.19867,1.32267 -2.58333,3.08967 -4.154,5.301c-1.69467,2.39733 -2.93467,4.123 -3.72,5.177c-2.76933,3.658 -5.15633,5.487 -7.161,5.487c-1.178,0 -2.83133,-0.76467 -4.96,-2.294c-2.728,-2.14933 -4.867,-3.83367 -6.417,-5.053c-6.2,-4.91867 -11.39767,-7.378 -15.593,-7.378c-7.72933,0 -13.19567,6.09667 -16.399,18.29c-1.612,6.11733 -2.449,12.31733 -2.511,18.6c0,10.354 1.34333,19.344 4.03,26.97c5.47667,15.5 15.60333,23.25 30.38,23.25c12.75133,0 21.13167,-3.82333 25.141,-11.47c1.302,-2.50067 2.09767,-5.38367 2.387,-8.649c0.04133,-0.47533 0.062,-2.325 0.062,-5.549v-0.682l-0.155,-0.93c-18.08333,10.85 -28.46833,16.275 -31.155,16.275c-3.596,0 -6.05533,-2.914 -7.378,-8.742c-0.39267,-1.798 -0.744,-4.216 -1.054,-7.254c-0.33067,-3.20333 -0.56833,-5.15633 -0.713,-5.859c-1.03333,-5.10467 -1.86,-9.19667 -2.48,-12.276c-1.13667,-5.72467 -1.705,-8.84533 -1.705,-9.362c0,-2.70733 4.526,-5.62133 13.578,-8.742c2.37667,-0.82667 6.138,-2.00467 11.284,-3.534c4.56733,-1.364 7.64667,-2.356 9.238,-2.976c3.26533,-1.28133 10.20933,-3.379 20.832,-6.293c0.248,-0.062 0.496,-0.124 0.744,-0.186c-1.054,-1.96333 -1.83933,-5.177 -2.356,-9.641c-0.28933,-2.45933 -0.47533,-5.16667 -0.558,-8.122l-0.031,-2.666c-1.63267,1.364 -2.93467,2.45933 -3.906,3.286M579.891,319.9306c-5.952,-5.828 -12.648,-7.97733 -20.088,-6.448c-25.172,3.348 -43.34833,16.45067 -54.529,39.308c-4.05067,8.246 -6.99567,17.46333 -8.835,27.652c-1.364,7.44 -2.046,14.67333 -2.046,21.7c0,4.05067 0.465,8.618 1.395,13.702c1.55,8.494 4.13333,16.182 7.75,23.064c11.01533,20.85267 29.73933,31.279 56.172,31.279c19.79867,0 34.60633,-9.455 44.423,-28.365c3.63733,-6.98533 6.37567,-14.911 8.215,-23.777c1.44667,-7.006 2.17,-13.578 2.17,-19.716c-0.08267,-5.43533 -0.28933,-10.62267 -0.62,-15.562c-0.62,-9.81667 -1.49833,-14.725 -2.635,-14.725c-4.36067,0 -16.03733,3.255 -35.03,9.765c-6.324,2.14933 -12.65833,4.39167 -19.003,6.727c-5.518,2.046 -8.277,3.11033 -8.277,3.193c0,1.116 0.651,5.25967 1.953,12.431c1.46733,8.14267 2.728,13.50567 3.782,16.089c21.05933,-11.47 31.85767,-17.205 32.395,-17.205c2.79,0 4.50533,1.94267 5.146,5.828c0.31,1.96333 0.35133,3.968 0.124,6.014c0,4.898 -0.02067,7.626 -0.062,8.184c-0.372,4.73267 -1.43633,8.90733 -3.193,12.524c-5.31133,10.95333 -16.523,16.43 -33.635,16.43c-17.40133,0 -29.698,-7.69833 -36.89,-23.095c-4.54667,-9.734 -6.82,-21.90667 -6.82,-36.518c0,-8.47333 1.25033,-16.60567 3.751,-24.397c4.73267,-14.67333 12.88567,-22.01 24.459,-22.01c5.53867,0 11.005,1.77733 16.399,5.332c1.38467,0.90933 3.24467,2.294 5.58,4.154c1.94267,1.55 3.29633,2.52133 4.061,2.914c2.604,-3.36867 6.975,-8.122 13.113,-14.26c5.31133,-5.35267 7.967,-8.122 7.967,-8.308c0,-1.09533 -0.60967,-2.73833 -1.829,-4.929c-1.426,-2.56267 -3.21367,-4.88767 -5.363,-6.975M680.083,362.7106c0.20667,2.25267 0.31,5.859 0.31,10.819c0,0.26867 0.08267,2.21133 0.248,5.828c-0.062,4.13333 -0.66133,7.86367 -1.798,11.191c-3.57533,10.51933 -11.842,15.779 -24.8,15.779c-10.82933,0 -18.83767,-4.54667 -24.025,-13.64c-3.72,-6.53067 -5.58,-14.20833 -5.58,-23.033c0,-10.62267 1.57067,-19.933 4.712,-27.931c5.394,-13.74333 14.36333,-17.83533 26.908,-12.276c10.912,5.642 18.073,12.896 21.483,21.762c1.32267,3.36867 2.17,7.20233 2.542,11.501M632.653,362.7726c0,6.24133 0.72333,12.28633 2.17,18.135c2.68667,10.85 7.285,16.275 13.795,16.275c9.77533,0 16.17167,-2.05633 19.189,-6.169c1.364,-1.86 2.28367,-4.36067 2.759,-7.502c0.35133,-2.31467 0.527,-5.71433 0.527,-10.199c0,-4.402 -0.062,-7.347 -0.186,-8.835c-0.35133,-4.36067 -1.209,-8.16333 -2.573,-11.408c-3.98867,-9.44467 -12.214,-14.52867 -24.676,-15.252c-3.86467,-0.10333 -6.80967,3.255 -8.835,10.075c-1.44667,4.836 -2.17,9.796 -2.17,14.88M790.877,261.6196c-1.71533,7.812 -3.20333,14.30133 -4.464,19.468c-0.744,2.93467 -2.28367,8.53533 -4.619,16.802c-1.984,7.068 -3.441,12.62733 -4.371,16.678c-0.97133,4.34 -2.06667,9.89933 -3.286,16.678c-1.77733,9.77533 -2.80033,15.376 -3.069,16.802c-0.20667,1.13667 -0.527,3.937 -0.961,8.401c-0.33067,3.472 -0.837,6.25167 -1.519,8.339c-0.16533,0.47533 -0.38233,1.88067 -0.651,4.216c-0.248,2.17 -0.62,3.82333 -1.116,4.96c-1.57067,3.67867 -5.115,4.44333 -10.633,2.294h-24.49c-0.806,0.39267 -3.02767,0.78533 -6.665,1.178c-3.43067,0.35133 -6.324,0.527 -8.68,0.527c-3.45133,0 -5.71433,-0.76467 -6.789,-2.294c-0.434,-0.59933 -0.651,-1.46733 -0.651,-2.604c0,-1.46733 0.403,-2.81067 1.209,-4.03c1.178,-1.75667 2.99667,-2.55233 5.456,-2.387c-0.496,-3.844 -1.457,-15.35533 -2.883,-34.534c-1.488,-19.92267 -2.232,-31.84733 -2.232,-35.774c0.10333,-2.17 0.19633,-4.23667 0.279,-6.2c0.186,-3.88533 0.248,-6.851 0.186,-8.897v-28.365c-0.33067,-1.55 -0.11367,-2.86233 0.651,-3.937c1.302,-1.86 4.03,-2.666 8.184,-2.418c5.456,0.35133 10.571,0.20667 15.345,-0.434c5.704,-0.744 10.354,-1.116 13.95,-1.116c7.48133,0 14.80767,-0.403 21.979,-1.209c3.906,-0.434 8.48367,-1.054 13.733,-1.86c3.55467,-0.45467 5.91067,-0.403 7.068,0.155c1.34333,0.64067 2.015,2.25267 2.015,4.836c0,0.88867 -0.992,5.797 -2.976,14.725M750.267,254.4276c-7.66733,1.01267 -17.78367,1.63267 -30.349,1.86v24.645c-0.062,1.86 -0.20667,4.867 -0.434,9.021c-0.22733,3.782 -0.341,5.89 -0.341,6.324c0,6.82 0.57867,18.848 1.736,36.084c0.93,14.012 1.07467,25.699 0.434,35.061c0,0.20667 -0.05167,0.36167 -0.155,0.465c4.62933,-0.28933 7.88433,-0.651 9.765,-1.085h26.66c1.71533,-7.23333 3.69933,-16.74 5.952,-28.52c2.45933,-13.10267 4.29867,-22.71267 5.518,-28.83c1.178,-6.03467 3.503,-15.60333 6.975,-28.706c3.286,-12.48267 5.50767,-21.92733 6.665,-28.334v-0.155c-13.47467,0.372 -24.28333,1.09533 -32.426,2.17z"/></g><g fill="#00ff00"><path d="M754.17,421.9882c0,3.596 -0.04133,5.50767 -0.124,5.735c-0.26867,0.70267 -1.674,3.441 -4.216,8.215c-0.84733,1.75667 -4.05067,3.88533 -9.61,6.386c-5.53867,2.45933 -9.77533,3.689 -12.71,3.689c-6.86133,0 -11.76967,-2.98633 -14.725,-8.959c-1.75667,-3.55467 -2.635,-7.44 -2.635,-11.656c0,-6.92333 2.294,-12.69967 6.882,-17.329c4.154,-4.17467 9.19667,-6.572 15.128,-7.192c5.99333,-0.62 11.036,0.78533 15.128,4.216c4.588,3.82333 6.882,9.455 6.882,16.895M585.251,326.9112c1.21933,2.19067 1.829,3.83367 1.829,4.929c0,0.186 -2.65567,2.95533 -7.967,8.308c-6.138,6.138 -10.509,10.89133 -13.113,14.26c-0.76467,-0.39267 -2.11833,-1.364 -4.061,-2.914c-2.33533,-1.86 -4.19533,-3.24467 -5.58,-4.154c-5.394,-3.55467 -10.86033,-5.332 -16.399,-5.332c-11.57333,0 -19.72633,7.33667 -24.459,22.01c-2.50067,7.79133 -3.751,15.92367 -3.751,24.397c0,14.61133 2.27333,26.784 6.82,36.518c7.192,15.39667 19.48867,23.095 36.89,23.095c17.112,0 28.32367,-5.47667 33.635,-16.43c1.75667,-3.61667 2.821,-7.79133 3.193,-12.524c0.04133,-0.558 0.062,-3.286 0.062,-8.184c0.22733,-2.046 0.186,-4.05067 -0.124,-6.014c-0.64067,-3.88533 -2.356,-5.828 -5.146,-5.828c-0.53733,0 -11.33567,5.735 -32.395,17.205c-1.054,-2.58333 -2.31467,-7.94633 -3.782,-16.089c-1.302,-7.17133 -1.953,-11.315 -1.953,-12.431c0,-0.08267 2.759,-1.147 8.277,-3.193c6.34467,-2.33533 12.679,-4.57767 19.003,-6.727c18.99267,-6.51 30.66933,-9.765 35.03,-9.765c1.13667,0 2.015,4.90833 2.635,14.725c0.33067,4.93933 0.53733,10.12667 0.62,15.562c0,6.138 -0.72333,12.71 -2.17,19.716c-1.83933,8.866 -4.57767,16.79167 -8.215,23.777c-9.81667,18.91 -24.62433,28.365 -44.423,28.365c-26.43267,0 -45.15667,-10.42633 -56.172,-31.279c-3.61667,-6.882 -6.2,-14.57 -7.75,-23.064c-0.93,-5.084 -1.395,-9.65133 -1.395,-13.702c0,-7.02667 0.682,-14.26 2.046,-21.7c1.83933,-10.18867 4.78433,-19.406 8.835,-27.652c11.18067,-22.85733 29.357,-35.96 54.529,-39.308c7.44,-1.52933 14.136,0.62 20.088,6.448c2.14933,2.08733 3.937,4.41233 5.363,6.975M776.025,280.7522c-3.472,13.10267 -5.797,22.67133 -6.975,28.706c-1.21933,6.11733 -3.05867,15.72733 -5.518,28.83c-2.25267,11.78 -4.23667,21.28667 -5.952,28.52h-26.66c-1.88067,0.434 -5.13567,0.79567 -9.765,1.085c0.10333,-0.10333 0.155,-0.25833 0.155,-0.465c0.64067,-9.362 0.496,-21.049 -0.434,-35.061c-1.15733,-17.236 -1.736,-29.264 -1.736,-36.084c0,-0.434 0.11367,-2.542 0.341,-6.324c0.22733,-4.154 0.372,-7.161 0.434,-9.021v-24.645c12.56533,-0.22733 22.68167,-0.84733 30.349,-1.86c8.14267,-1.07467 18.95133,-1.798 32.426,-2.17v0.155c-1.15733,6.40667 -3.379,15.85133 -6.665,28.334z"/></g><g fill="#00cc00"><path d="M697.1568,363.7182c0,0.93 -0.04133,2.21133 -0.124,3.844c-0.16533,2.89333 -0.434,5.86933 -0.806,8.928c-1.13667,9.58933 -3.1,18.352 -5.89,26.288c-8.804,25.11 -23.994,37.665 -45.57,37.665c-10.416,0 -17.43233,-2.37667 -21.049,-7.13c-1.426,-2.37667 -2.45933,-4.00933 -3.1,-4.898c-0.434,-0.57867 -0.90933,-1.03333 -1.426,-1.364c0.51667,-2.108 1.00233,-4.32967 1.457,-6.665c1.50867,-7.85333 2.263,-15.14867 2.263,-21.886c0.20667,-6.84067 0.01033,-13.65033 -0.589,-20.429c-1.21933,-13.49533 -3.86467,-20.243 -7.936,-20.243c-2.02533,0 -6.92333,1.01267 -14.694,3.038c0.124,-1.01267 0.16533,-2.22167 0.124,-3.627c-0.558,-5.704 -0.81633,-9.331 -0.775,-10.881c0.248,-7.254 1.38467,-13.764 3.41,-19.53c0.47533,-1.736 1.209,-3.73033 2.201,-5.983c1.922,-4.44333 4.309,-8.494 7.161,-12.152c8.99,-11.57333 20.90433,-17.36 35.743,-17.36c17.52533,0 31.01033,11.57333 40.455,34.72c3.05867,7.48133 5.47667,15.70667 7.254,24.676c1.26067,6.28267 1.891,10.61233 1.891,12.989M656.0818,329.4632c-12.54467,-5.55933 -21.514,-1.46733 -26.908,12.276c-3.14133,7.998 -4.712,17.30833 -4.712,27.931c0,8.82467 1.86,16.50233 5.58,23.033c5.18733,9.09333 13.19567,13.64 24.025,13.64c12.958,0 21.22467,-5.25967 24.8,-15.779c1.13667,-3.32733 1.736,-7.05767 1.798,-11.191c-0.16533,-3.61667 -0.248,-5.55933 -0.248,-5.828c0,-4.96 -0.10333,-8.56633 -0.31,-10.819c-0.372,-4.29867 -1.21933,-8.13233 -2.542,-11.501c-3.41,-8.866 -10.571,-16.12 -21.483,-21.762z"/></g></g></g></g></svg>