<svg version="1.1" xmlns="http://www.w3.org/2000/svg" xmlns:xlink="http://www.w3.org/1999/xlink" width="53.5" height="65.60417" viewBox="0,0,53.5,65.60417"><g transform="translate(-608.10811,-338.18367)"><g data-paper-data="{&quot;isPaintingLayer&quot;:true}" fill-rule="nonzero" stroke="none" stroke-width="1" stroke-linecap="butt" stroke-linejoin="miter" stroke-miterlimit="10" stroke-dasharray="" stroke-dashoffset="0" style="mix-blend-mode: normal"><path d="M661.30811,348.28784c0.13333,0.16667 0.23333,0.38333 0.3,0.65c-0.13333,0.3 -0.23333,0.61667 -0.3,0.95c-0.2,0.76667 -0.41667,1.53333 -0.65,2.3c-0.33333,1.1 -0.71667,2.18333 -1.15,3.25c-1.43333,3.33333 -2.73333,6.68333 -3.9,10.05c-1.9,5.4 -4.2,10.61667 -6.9,15.65c-0.43333,0.8 -0.81667,1.63333 -1.15,2.5c-1.6,4.2 -3.35,8.46667 -5.25,12.8c-0.46667,1.06667 -0.96667,2.11667 -1.5,3.15c-0.63333,1.16667 -1.38333,2.25 -2.25,3.25c-0.56667,0.6 -1.28333,0.91667 -2.15,0.95c-0.6,-0.16667 -1.11667,-0.43333 -1.55,-0.8c-1.6,-1.26667 -3,-2.71667 -4.2,-4.35c-1.2,-1.63333 -2.3,-3.31667 -3.3,-5.05c-1.83333,-3.16667 -3.55,-6.36667 -5.15,-9.6c-0.06667,-0.16667 -0.13333,-0.33333 -0.2,-0.5c-1.76667,-3.73333 -3.38333,-7.48333 -4.85,-11.25c-1.46667,-3.7 -2.9,-7.26667 -4.3,-10.7c-0.96667,-2.36667 -1.73333,-4.78333 -2.3,-7.25c-0.13333,-0.53333 -0.23333,-1.1 -0.3,-1.7c-0.33333,-0.23333 -0.61667,-0.58333 -0.85,-1.05c-0.16667,-0.3 -0.35,-0.58333 -0.55,-0.85c-0.13333,-0.16667 -0.25,-0.35 -0.35,-0.55c-0.16667,-0.23333 -0.26667,-0.48333 -0.3,-0.75c-0.06667,-0.33333 -0.1,-0.7 -0.1,-1.1c0.5,-0.76667 1.05,-1.46667 1.65,-2.1c0.6,-0.7 1.31667,-1.23333 2.15,-1.6c2.96667,-1.5 5.88333,-3.15 8.75,-4.95c0.86667,-0.5 1.75,-0.91667 2.65,-1.25c0.6,-0.23333 1.21667,-0.26667 1.85,-0.1c0.76667,0.26667 1.43333,0.73333 2,1.4c0.5,0.5 0.8,1.03333 0.9,1.6c0.33333,1.63333 0.73333,3.23333 1.2,4.8c1.03333,3.4 2.13333,6.83333 3.3,10.3c0.1,0.33333 0.18333,0.65 0.25,0.95c0.23333,1.2 0.46667,2.38333 0.7,3.55c0.2,1 0.4,2 0.6,3c0.16667,1 0.51667,1.71667 1.05,2.15c0.06667,-0.16667 0.13333,-0.33333 0.2,-0.5c1.2,-2.93333 2.33333,-5.98333 3.4,-9.15c1.26667,-3.66667 2.58333,-7.31667 3.95,-10.95c0.56667,-1.53333 1.28333,-2.96667 2.15,-4.3c0.4,-0.63333 0.96667,-1.08333 1.7,-1.35c0.73333,-0.2 1.48333,-0.16667 2.25,0.1c0.73333,0.2 1.48333,0.46667 2.25,0.8c2.66667,1.36667 5.18333,3.05 7.55,5.05c0.96667,0.76667 1.86667,1.61667 2.7,2.55M619.05811,363.38784c1.43333,3.16667 2.88333,6.33333 4.35,9.5c2.53333,5.4 5.21667,10.71667 8.05,15.95c0.6,1.1 1.23333,2.18333 1.9,3.25c0.7,1.16667 1.43333,2.33333 2.2,3.5c0.13333,0.06667 0.26667,0.13333 0.4,0.2c0.03333,-0.03333 0.08333,-0.06667 0.15,-0.1l18.4,-45.15l-5.95,-3.2l-10.2,21.95l-1.75,6.15c-0.53333,0.3 -1.06667,0.56667 -1.6,0.8c-1.06667,0.26667 -1.86667,-0.01667 -2.4,-0.85c-0.8,-1.26667 -1.43333,-2.58333 -1.9,-3.95c-0.6,-1.8 -1.23333,-3.61667 -1.9,-5.45c-0.9,-2.43333 -1.65,-5.01667 -2.25,-7.75c-0.03333,-0.16667 -0.08333,-0.33333 -0.15,-0.5c-0.33333,-0.86667 -0.65,-1.73333 -0.95,-2.6c-1,-2.86667 -1.96667,-5.73333 -2.9,-8.6l-8.7,3.7c0.73333,2.13333 1.48333,4.23333 2.25,6.3c0.03333,0.13333 0.08333,0.28333 0.15,0.45c0.53333,1.2 1.06667,2.41667 1.6,3.65c0.4,0.93333 0.8,1.85 1.2,2.75z" fill="#000000"/><path d="M616.10811,356.53784c-0.76667,-2.06667 -1.51667,-4.16667 -2.25,-6.3l8.7,-3.7c0.93333,2.86667 1.9,5.73333 2.9,8.6c0.3,0.86667 0.61667,1.73333 0.95,2.6c0.06667,0.16667 0.11667,0.33333 0.15,0.5c0.6,2.73333 1.35,5.31667 2.25,7.75c0.66667,1.83333 1.3,3.65 1.9,5.45c0.46667,1.36667 1.1,2.68333 1.9,3.95c0.53333,0.83333 1.33333,1.11667 2.4,0.85c0.53333,-0.23333 1.06667,-0.5 1.6,-0.8l1.75,-6.15l10.2,-21.95l5.95,3.2l-18.4,45.15c-0.06667,0.03333 -0.11667,0.06667 -0.15,0.1c-0.13333,-0.06667 -0.26667,-0.13333 -0.4,-0.2c-0.76667,-1.16667 -1.5,-2.33333 -2.2,-3.5c-0.66667,-1.06667 -1.3,-2.15 -1.9,-3.25c-2.83333,-5.23333 -5.51667,-10.55 -8.05,-15.95c-1.46667,-3.16667 -2.91667,-6.33333 -4.35,-9.5c-0.4,-0.9 -0.8,-1.81667 -1.2,-2.75c-0.53333,-1.23333 -1.06667,-2.45 -1.6,-3.65c-0.06667,-0.16667 -0.11667,-0.31667 -0.15,-0.45z" fill="#ffffff"/></g></g></svg>