<svg version="1.1" xmlns="http://www.w3.org/2000/svg" xmlns:xlink="http://www.w3.org/1999/xlink" width="357.5" height="89" viewBox="0,0,357.5,89"><g transform="translate(-461.25,-315.5)"><g data-paper-data="{&quot;isPaintingLayer&quot;:true}" fill="#ffffff" fill-rule="nonzero" stroke="none" stroke-width="1" stroke-linecap="butt" stroke-linejoin="miter" stroke-miterlimit="10" stroke-dasharray="" stroke-dashoffset="0" style="mix-blend-mode: normal"><path d="M552.65,332.9c0,1.2 -1.28333,6.26667 -3.85,15.2c-2.9,9.93333 -4.45,15.36667 -4.65,16.3c-0.63333,2.86667 -1.96667,9.03333 -4,18.5c-1.93333,7.76667 -3.71667,11.76667 -5.35,12c-0.46667,0.36667 -1.1,0.61667 -1.9,0.75c-2.5,0.5 -8.66667,0.75 -18.5,0.75c-0.9,0 -1.68333,-0.03333 -2.35,-0.1c-0.36667,0.46667 -0.83333,0.7 -1.4,0.7c-1.43333,0 -2.65,-2.13333 -3.65,-6.4c-0.9,-5.16667 -1.53333,-8.61667 -1.9,-10.35c-1.06667,2.06667 -2.15,5.15 -3.25,9.25c-0.1,0.4 -0.18333,1.23333 -0.25,2.5c-0.16667,1.2 -0.65,2 -1.45,2.4c-0.73333,0.36667 -4.23333,0.78333 -10.5,1.25c-2.4,0.2 -5.13333,0.46667 -8.2,0.8c-2.53333,0.3 -3.96667,0.45 -4.3,0.45c-2.16667,0 -4.1,-4.4 -5.8,-13.2c-1.63333,-10.46667 -2.78333,-17.4 -3.45,-20.8c-1.33333,-6.1 -2.53333,-11.66667 -3.6,-16.7c-2.03333,-9.73333 -3.05,-15.41667 -3.05,-17.05c0,-1.46667 0.38333,-2.46667 1.15,-3c1.86667,-1.26667 6.03333,-2.05 12.5,-2.35c0.43333,-0.2 0.95,-0.41667 1.55,-0.65c1.43333,-0.53333 2.86667,-1.03333 4.3,-1.5c0.83333,-0.3 2.26667,-1.2 4.3,-2.7c1.83333,-0.86667 3.23333,-0.21667 4.2,1.95c0.53333,1.53333 1.01667,3.56667 1.45,6.1c0.63333,3.76667 0.98333,5.85 1.05,6.25c0.56667,2.43333 1.45,6.55 2.65,12.35c1.13333,5.4 2.03333,9.5 2.7,12.3c0.2,-0.33333 1.86667,-3.88333 5,-10.65c2.5,-5.33333 4.26667,-8 5.3,-8c0.7,0 2.53333,4.21667 5.5,12.65c0.36667,1.06667 0.71667,2.06667 1.05,3c0.2,-0.7 0.41667,-1.41667 0.65,-2.15c1.86667,-6 3.21667,-10.11667 4.05,-12.35c1.8,-5.66667 3.13333,-9.55 4,-11.65c0.53333,-1.3 1.68333,-1.9 3.45,-1.8c1.26667,0.06667 4.28333,0.41667 9.05,1.05c9.06667,1.2 14.26667,2 15.6,2.4c0.93333,0.26667 1.51667,0.6 1.75,1c0.1,0.2 0.15,0.7 0.15,1.5M546.6,335c-11.8,-1.66667 -18.46667,-2.61667 -20,-2.85c-1.36667,3.6 -3.4,9.16667 -6.1,16.7c-2.3,6.13333 -4.55,11.3 -6.75,15.5c-0.13333,0.36667 -0.23333,0.71667 -0.3,1.05c-0.06667,-0.1 -0.11667,-0.18333 -0.15,-0.25c-0.06667,0.06667 -0.11667,0.15 -0.15,0.25c-0.73333,-0.2 -1.2,-0.53333 -1.4,-1c-0.06667,-0.16667 -0.1,-0.55 -0.1,-1.15c0,-0.2 0.1,-0.65 0.3,-1.35c-0.36667,-0.93333 -0.71667,-1.98333 -1.05,-3.15c-2.3,-7.7 -3.55,-11.78333 -3.75,-12.25l-0.25,-0.25c-0.4,0.9 -1.18333,2.83333 -2.35,5.8c-1.1,2.7 -1.91667,4.65 -2.45,5.85c-0.4,0.86667 -1.21667,3.1 -2.45,6.7c-1.26667,3.2 -2.43333,4.8 -3.5,4.8c-1.93333,0 -3.46667,-3 -4.6,-9c-0.96667,-7.03333 -1.73333,-11.61667 -2.3,-13.75c-0.76667,-3.03333 -1.56667,-6.78333 -2.4,-11.25c-0.7,-4.06667 -1.26667,-7.23333 -1.7,-9.5c-1.33333,0.43333 -3.21667,0.93333 -5.65,1.5c-1.53333,0.36667 -5.95,1.28333 -13.25,2.75c1.16667,7.4 3.13333,17.56667 5.9,30.5c3.26667,15.26667 5.38333,25.55 6.35,30.85c3.1,-0.06667 9.56667,-0.6 19.4,-1.6c0.46667,-2.16667 1.73333,-5.75 3.8,-10.75c2,-4.83333 3.15,-7.25 3.45,-7.25c1.23333,0 2.88333,3.58333 4.95,10.75c0.86667,2.96667 1.65,5.96667 2.35,9c0.56667,-0.06667 1.51667,-0.15 2.85,-0.25c2.16667,-0.2 4.61667,-0.33333 7.35,-0.4c3.2,-0.06667 5.78333,-0.25 7.75,-0.55c0.7,-0.1 1.36667,-0.2 2,-0.3c0.36667,-1.9 1.28333,-5.63333 2.75,-11.2c2.3,-8.9 3.63333,-14.16667 4,-15.8c0.5,-2.36667 1.93333,-7.61667 4.3,-15.75c2.13333,-7.36667 3.2,-11.31667 3.2,-11.85v-0.75l-0.05,0.2M598.2,340.15c-0.33333,3.76667 -0.5,6.26667 -0.5,7.5c0,3.06667 -0.25,4.7 -0.75,4.9c-1.33333,-0.26667 -2.85,-0.4 -4.55,-0.4c-0.63333,0 -2.96667,0.11667 -7,0.35c-4.06667,0.2 -6.9,0.36667 -8.5,0.5c-0.16667,0.66667 -0.33333,1.66667 -0.5,3c-0.2,1.4 -0.36667,2.4 -0.5,3l5.75,0.15c0.43333,0 1.23333,-0.18333 2.4,-0.55c1.16667,-0.4 1.95,-0.6 2.35,-0.6c1.33333,0 2.15,2.08333 2.45,6.25c0.16667,2.1 0.18333,4.23333 0.05,6.4c0,1.6 -0.26667,2.66667 -0.8,3.2c-1.73333,1.7 -5.8,2.25 -12.2,1.65c0,1.26667 -0.08333,2.15 -0.25,2.65c3.26667,-0.13333 11.75,-0.31667 25.45,-0.55c0,0.13333 0,0.26667 0,0.4c0,2.96667 -0.15,5.75 -0.45,8.35c-0.3,2.56667 -0.45,6.1 -0.45,10.6c0,1 -0.36667,1.68333 -1.1,2.05c-0.66667,0.33333 -1.81667,0.5 -3.45,0.5l-17.5,-0.5c-10.23333,-1.43333 -19.6,-2.28333 -28.1,-2.55c-1.73333,-0.03333 -2.71667,-0.18333 -2.95,-0.45c-0.16667,-0.16667 -0.25,-0.9 -0.25,-2.2c0,-1.63333 0.81667,-7.48333 2.45,-17.55c1.73333,-10.33333 2.68333,-16.16667 2.85,-17.5c0.26667,-1.83333 0.75,-4.7 1.45,-8.6c0.8,-4.23333 1.31667,-7.11667 1.55,-8.65c0.26667,-0.76667 0.55,-2.13333 0.85,-4.1c0.3,-2.06667 0.6,-3.56667 0.9,-4.5c0.16667,-0.6 0.31667,-1.36667 0.45,-2.3c0.16667,-1.33333 0.26667,-2.06667 0.3,-2.2c0.13333,-0.73333 0.38333,-1.25 0.75,-1.55c0.33333,-0.86667 1.16667,-1.6 2.5,-2.2c4.36667,-1.96667 14.95,-2.93333 31.75,-2.9c0,-0.2 1.18333,-0.25 3.55,-0.15c2.4,0.13333 3.73333,0.43333 4,0.9c0.33333,0.63333 0.5,1.51667 0.5,2.65c0,1.66667 -0.36667,4.16667 -1.1,7.5c-0.8,3.86667 -1.26667,6.36667 -1.4,7.5M595.2,326.65c-8.16667,0.86667 -16.51667,1.31667 -25.05,1.35c-2.76667,0.03333 -4.86667,0.21667 -6.3,0.55c-0.5,0.13333 -1.15,0.41667 -1.95,0.85c0,2.06667 -0.1,3.68333 -0.3,4.85c-0.13333,0.66667 -0.5,2.21667 -1.1,4.65c-0.53333,2.2 -0.9,3.9 -1.1,5.1c0,0.06667 -0.01667,0.11667 -0.05,0.15c0,0.13333 0,0.26667 0,0.4c0,0.06667 -1.2,7 -3.6,20.8c-2.43333,14.33333 -3.65,22.9 -3.65,25.7v0.6c4.66667,-0.06667 8.25,0.13333 10.75,0.6c3.5,0.66667 8.76667,1.16667 15.8,1.5l15.95,0.25c0.06667,-5.16667 0.25,-9.06667 0.55,-11.7c0,-0.06667 0.01667,-0.11667 0.05,-0.15c-3.46667,0.4 -8.98333,0.6 -16.55,0.6c-0.7,0 -2.03333,-0.13333 -4,-0.4c-2.06667,-0.26667 -3.16667,-0.46667 -3.3,-0.6c-0.3,-0.36667 -0.45,-0.73333 -0.45,-1.1v-1.7c0,-1.8 0.01667,-2.8 0.05,-3c0.1,-1.53333 0.4,-2.6 0.9,-3.2c1.36667,-1.66667 2.65,-2.46667 3.85,-2.4c1.16667,0.03333 3.15,-0.08333 5.95,-0.35c1.23333,-0.1 2.13333,-0.13333 2.7,-0.1c0,-0.53333 0.08333,-1.33333 0.25,-2.4v-4.35c-6.03333,0.8 -10.06667,0.88333 -12.1,0.25c-1.06667,-0.33333 -1.6,-0.98333 -1.6,-1.95c0,-0.3 0.16667,-1.55 0.5,-3.75c0.3,-2.23333 0.46667,-3.91667 0.5,-5.05c0.1,-0.2 0.15,-0.91667 0.15,-2.15c0.03333,-0.86667 0.48333,-1.53333 1.35,-2c0.46667,-0.23333 1.63333,-0.45 3.5,-0.65c1.13333,-0.13333 3.03333,-0.33333 5.7,-0.6c0.93333,-0.1 2.96667,0.16667 6.1,0.8c2.63333,0.26667 3.95,-0.53333 3.95,-2.4c0.6,-4.93333 1.45,-10.43333 2.55,-16.5v-2.5M656.2,325.5c0,0.13333 -0.16667,2.2 -0.5,6.2c-0.3,4.06667 -0.46667,7.13333 -0.5,9.2c0,0.63333 0.03333,1.8 0.1,3.5c-0.13333,1.6 -0.68333,2.96667 -1.65,4.1c-2.83333,3.23333 -9.51667,5.06667 -20.05,5.5c0,0.1 0.16667,1.26667 0.5,3.5c0.83333,-0.03333 2.8,-0.36667 5.9,-1c3.03333,-0.66667 4.76667,-1 5.2,-1c2.53333,0 3.86667,1.23333 4,3.7c0.1,1.3 -0.06667,2.81667 -0.5,4.55c0.03333,1 0.2,2.51667 0.5,4.55c0.33333,2 0.5,3.16667 0.5,3.5c0,2.36667 -2.11667,3.96667 -6.35,4.8c-4.5,0.43333 -7,0.73333 -7.5,0.9c0.1,0.26667 0.1,0.75 0,1.45c0.03333,0.63333 0.4,1.11667 1.1,1.45l13.25,0.1c3.5,-0.66667 5.7,-0.25 6.6,1.25c0.26667,0.43333 0.4,1.48333 0.4,3.15v5.8c0,0.3 -0.01667,1.93333 -0.05,4.9c-0.26667,2.96667 -1.08333,4.76667 -2.45,5.4l-12.5,0.25c-0.33333,0.1 -1.33333,0.23333 -3,0.4c-1.66667,0.16667 -2.66667,0.28333 -3,0.35l-26.5,0.25c-0.16667,0.16667 -0.66667,0.25 -1.5,0.25c-1.7,0 -2.7,-0.95 -3,-2.85v-4.7c0,-5.6 0.3,-12.16667 0.9,-19.7c0.56667,-7.53333 0.85,-15.03333 0.85,-22.5c0,-1.46667 0.05,-3.58333 0.15,-6.35c0.13333,-4.03333 0.33333,-7.16667 0.6,-9.4c0.33333,-0.96667 0.41667,-2.58333 0.25,-4.85c-0.2,-3.2 -0.28333,-5.06667 -0.25,-5.6c0.1,-4.16667 2.1,-5.68333 6,-4.55l35.4,-0.25c3.53333,-0.63333 5.75,-0.35 6.65,0.85c0.3,0.36667 0.45,1.33333 0.45,2.9M650.2,327l-36,0.25l-2.1,0.5c0.33333,1.1 0.5,2.41667 0.5,3.95c0,0.23333 -0.18333,2.25 -0.55,6.05c-0.4,3.96667 -0.63333,6.88333 -0.7,8.75c-0.06667,1.96667 0.03333,4.86667 0.3,8.7c0.13333,1.93333 0.28333,3.91667 0.45,5.95c0,1.8 -0.18333,4.3 -0.55,7.5c-0.53333,4.8 -0.81667,7.3 -0.85,7.5c-0.13333,1.56667 -0.21667,4.06667 -0.25,7.5c0,3.33333 -0.08333,5.83333 -0.25,7.5v5.6h25.4c0.7,-0.16667 2.3,-0.33333 4.8,-0.5c3.16667,-0.23333 7.1,-0.4 11.8,-0.5v-9.6c-1,-0.1 -1.86667,-0.23333 -2.6,-0.4l-12.4,-0.25c-2.16667,0.7 -3.86667,-0.35 -5.1,-3.15c-0.83333,-1.9 -1.25,-3.58333 -1.25,-5.05c0,-2.5 2.23333,-4.25 6.7,-5.25c1.1,-0.23333 2.61667,-0.56667 4.55,-1c1.4,-0.43333 2.1,-0.98333 2.1,-1.65c-0.33333,-3.76667 -0.5,-6.48333 -0.5,-8.15v-0.1c-0.8,0.1 -2.11667,0.36667 -3.95,0.8c-1.7,0.4 -4.21667,0.75 -7.55,1.05c-1.5,-0.4 -2.38333,-1.16667 -2.65,-2.3c-0.06667,-1.33333 -0.18333,-2.26667 -0.35,-2.8c-0.9,-2.33333 -1.35,-4.08333 -1.35,-5.25c0,-1.36667 1.15,-2.41667 3.45,-3.15c2.33333,-0.73333 6.93333,-1.48333 13.8,-2.25c3.3,-0.36667 5.13333,-1.33333 5.5,-2.9c-0.26667,-1.83333 -0.4,-3.06667 -0.4,-3.7c0,-2.63333 0.3,-7.21667 0.9,-13.75l-0.9,0.1M715.35,345.8c-3.46667,5.46667 -5.95,9.23333 -7.45,11.3c1.86667,1.03333 3.95,3.33333 6.25,6.9c1.7,2.66667 3.8,6.25 6.3,10.75c0.36667,0.53333 3.05,3.76667 8.05,9.7c4.13333,4.93333 6.2,7.7 6.2,8.3c0,1.53333 -1.03333,2.58333 -3.1,3.15c-4.96667,1.4 -8.05,2.35 -9.25,2.85c-8.63333,3.5 -13.68333,5.25 -15.15,5.25c-1.1,0 -3.55,-2.25 -7.35,-6.75c-3.23333,-3.76667 -5.9,-7.21667 -8,-10.35h-0.15c0.03333,1.1 0.36667,3.03333 1,5.8c0.66667,2.76667 1,4.7 1,5.8c0,1.43333 -0.43333,2.38333 -1.3,2.85c-1.96667,1.06667 -6.2,1.11667 -12.7,0.15l-12.5,0.15l-3,0.75c-2.36667,-1.63333 -3.56667,-3.9 -3.6,-6.8c0.4,-3.33333 0.48333,-5.78333 0.25,-7.35c-0.3,-1.9 -0.46667,-4.2 -0.5,-6.9c0,-3.13333 0,-5.45 0,-6.95c0.03333,-3.83333 -0.08333,-9.51667 -0.35,-17.05c-0.26667,-6.83333 -0.4,-10.46667 -0.4,-10.9c0,-1.2 0.01667,-2.43333 0.05,-3.7c-0.2,-1.06667 -0.38333,-2.3 -0.55,-3.7c-0.43333,-3.83333 -0.65,-7.83333 -0.65,-12c0,-0.76667 0.63333,-1.43333 1.9,-2c0.23333,-0.6 0.53333,-1.08333 0.9,-1.45c0.5,-0.5 0.96667,-0.45 1.4,0.15c0.1,0.13333 0.2,0.28333 0.3,0.45c0.03333,-0.03333 0.08333,-0.05 0.15,-0.05c6.2,-1.53333 10.31667,-2.66667 12.35,-3.4c1.1,-0.36667 3.46667,-1.61667 7.1,-3.75c3.3,-1.66667 5.35,-1.83333 6.15,-0.5c1.46667,1.5 2.05,4.03333 1.75,7.6c-0.5,5.86667 -0.75,8.83333 -0.75,8.9v0.15c1.03333,-4.06667 1.98333,-7.43333 2.85,-10.1c1.63333,-5.03333 3.43333,-7.55 5.4,-7.55c0.26667,0 2.3,1.31667 6.1,3.95c4,2.73333 6.38333,4.25 7.15,4.55c6.2,2.56667 9.43333,3.91667 9.7,4.05c1.86667,0.96667 2.8,2.11667 2.8,3.45c0,0.7 -2.78333,5.46667 -8.35,14.3M717.85,332.15c-1.36667,-0.7 -3.11667,-1.4 -5.25,-2.1c-1.83333,-0.56667 -3.55,-1.33333 -5.15,-2.3l-8.6,-5.5c-1.03333,3.1 -2.98333,9.55 -5.85,19.35c-2.56667,8.26667 -4.33333,12.4 -5.3,12.4c-2.1,0 -3.35,-2.41667 -3.75,-7.25c-0.33333,-4.03333 -0.08333,-7.95 0.75,-11.75v-12.75l-0.1,-0.35c-2.53333,1.3 -4.55,2.28333 -6.05,2.95c-2.66667,1.13333 -6.45,1.9 -11.35,2.3c-1.63333,0.13333 -2.9,0.75 -3.8,1.85c0.13333,5.3 0.65,16.38333 1.55,33.25c0,9.36667 0.03333,15.21667 0.1,17.55c0.2,6.8 0.75,12.41667 1.65,16.85h14c1.6,0.2 2.6,0.31667 3,0.35h3l1.5,-0.25c-1.66667,-12.13333 -2.5,-19.25 -2.5,-21.35c0,-0.96667 0.05,-1.58333 0.15,-1.85c0.3,-1.03333 1.08333,-1.55 2.35,-1.55c1.06667,0 2.56667,1.81667 4.5,5.45l4.25,7.95c1.53333,2.13333 3.61667,4.75 6.25,7.85c2.83333,3.33333 4.46667,5 4.9,5c0.76667,0 3.78333,-0.98333 9.05,-2.95c0.46667,-0.16667 3.78333,-1.43333 9.95,-3.8c-0.7,-0.96667 -5.65,-7.43333 -14.85,-19.4c-6.03333,-7.86667 -9.05,-12.15 -9.05,-12.85c0,-0.7 0.21667,-1.3 0.65,-1.8c-0.1,-0.3 -0.15,-0.61667 -0.15,-0.95c0,-1.03333 2.21667,-5.16667 6.65,-12.4c3.03333,-5.03333 5.53333,-9.01667 7.5,-11.95M810.55,349.2c-1.6,3.63333 -3.73333,6.45 -6.4,8.45c4.73333,1.96667 8.46667,4.93333 11.2,8.9c2.26667,3.4 3.4,6.78333 3.4,10.15c0,6.16667 -1.81667,11.11667 -5.45,14.85c-5.3,5.36667 -15.13333,9.68333 -29.5,12.95h-15.7c-5.9,-0.5 -11.13333,-1.85 -15.7,-4.05c-4.1,-1.96667 -6.15,-3.7 -6.15,-5.2c0,-0.46667 0.18333,-0.91667 0.55,-1.35c0.26667,-0.3 0.61667,-0.53333 1.05,-0.7c1.2,-1.56667 3.48333,-4.33333 6.85,-8.3c5.33333,-6.33333 8.35,-9.5 9.05,-9.5c0.4,0 1.66667,0.7 3.8,2.1c2.1,1.36667 4.43333,2.05 7,2.05c2.83333,0 4.93333,-0.75 6.3,-2.25c0.66667,-0.8 1.05,-1.61667 1.15,-2.45c0,-0.76667 -0.38333,-1.55 -1.15,-2.35c-1.16667,-1.16667 -2.91667,-1.75 -5.25,-1.75c-0.43333,0 -1.43333,0.18333 -3,0.55c-1.56667,0.36667 -2.56667,0.55 -3,0.55c-1.7,0 -2.71667,-0.95 -3.05,-2.85c0,-1.93333 0,-2.93333 0,-3c0,-3.86667 0.36667,-6.5 1.1,-7.9c0.2,-0.43333 1.61667,-0.75 4.25,-0.95c3,-0.2 5.05,-0.6 6.15,-1.2c1,-0.46667 1.76667,-1.03333 2.3,-1.7c0.5,-0.66667 0.75,-1.3 0.75,-1.9c0,-0.3 -0.46667,-1.2 -1.4,-2.7c-0.93333,-1.4 -1.48333,-2.16667 -1.65,-2.3h-3.9c-1.76667,0.3 -3.5,0.91667 -5.2,1.85c-1.46667,0.8 -2.65,1.65 -3.55,2.55c-0.6,0.96667 -1.08333,1.73333 -1.45,2.3c-0.63333,0.96667 -1.45,1.45 -2.45,1.45c-2.23333,0 -4.6,-3.91667 -7.1,-11.75c-1.36667,-5.23333 -2.26667,-8.63333 -2.7,-10.2c-0.16667,-0.13333 -0.36667,-0.23333 -0.6,-0.3c-0.1,-0.16667 -0.15,-0.61667 -0.15,-1.35c0,-0.7 0.25,-1.48333 0.75,-2.35c0.13333,-0.5 0.35,-0.83333 0.65,-1c0.36667,-0.5 0.81667,-1.03333 1.35,-1.6c2.06667,-2.3 4.8,-4.21667 8.2,-5.75c9.26667,-4.3 20.36667,-4.73333 33.3,-1.3c5.4,2.53333 9.75,5.83333 13.05,9.9c2.96667,3.7 4.45,7.18333 4.45,10.45c0,2.8 -0.71667,5.78333 -2.15,8.95M807.6,342.9c0,-2.63333 -0.38333,-4.78333 -1.15,-6.45c-1.03333,-2.23333 -2.46667,-4.26667 -4.3,-6.1c-5.43333,-5.43333 -13.2,-8.15 -23.3,-8.15c-2.53333,0 -6.1,0.8 -10.7,2.4c-3.03333,1.03333 -5.33333,1.91667 -6.9,2.65c-0.83333,0.46667 -2.35,1.75 -4.55,3.85c-0.3,0.3 -0.58333,0.58333 -0.85,0.85c0.3,1.06667 0.56667,2.38333 0.8,3.95c0.76667,3.1 1.33333,5.16667 1.7,6.2c0.83333,2.4 2,4.48333 3.5,6.25c0.86667,-0.33333 2.35,-1.4 4.45,-3.2c2.56667,-1.63333 5.78333,-2.45 9.65,-2.45c4.36667,0 7.41667,1.61667 9.15,4.85c0.86667,1.63333 1.28333,3.3 1.25,5c0,3.23333 -2.26667,5.8 -6.8,7.7c-4.76667,1.43333 -7.41667,2.46667 -7.95,3.1v3.2c2.03333,-0.3 3.48333,-0.45 4.35,-0.45c4.5,0 7.73333,1.38333 9.7,4.15c1.03333,1.43333 1.6,2.86667 1.7,4.3c0,2 -0.65,3.81667 -1.95,5.45c-2.16667,2.8 -5.75,4.2 -10.75,4.2c-2.76667,0 -5.05,-0.41667 -6.85,-1.25c-1.93333,-0.93333 -3.2,-1.43333 -3.8,-1.5c-2.33333,3.23333 -4.8,6.35 -7.4,9.35c-1.36667,1.56667 -2.58333,2.85 -3.65,3.85c0.03333,0 0.06667,0.01667 0.1,0.05c0.93333,0.63333 2,1.36667 3.2,2.2c0.53333,0.33333 1.85,0.73333 3.95,1.2c1.36667,0.3 4.16667,0.88333 8.4,1.75h14.55c12.03333,-2.4 20.48333,-5.96667 25.35,-10.7c3.46667,-3.4 5.2,-7.58333 5.2,-12.55c0,-0.83333 -0.63333,-2.45 -1.9,-4.85c-0.83333,-1.56667 -1.63333,-2.93333 -2.4,-4.1c-0.33333,-0.5 -0.93333,-1.2 -1.8,-2.1c-1,-1.03333 -1.8,-1.76667 -2.4,-2.2c-0.2,-0.13333 -0.73333,-0.38333 -1.6,-0.75c-0.86667,-0.3 -1.35,-0.48333 -1.45,-0.55c-0.06667,-0.03333 -0.95,-0.1 -2.65,-0.2c-1.73333,-0.1 -2.8,-0.21667 -3.2,-0.35l-1.35,-0.5c0,-0.03333 2.11667,-1.86667 6.35,-5.5c4.2,-5.8 6.3,-10 6.3,-12.6z"/></g></g></svg>