<svg version="1.1" xmlns="http://www.w3.org/2000/svg" xmlns:xlink="http://www.w3.org/1999/xlink" width="30.26686" height="72.81495" viewBox="0,0,30.26686,72.81495"><g transform="translate(-624.83903,-334.09182)"><g data-paper-data="{&quot;isPaintingLayer&quot;:true}" fill-rule="nonzero" stroke="none" stroke-width="1" stroke-linecap="round" stroke-linejoin="miter" stroke-miterlimit="4" stroke-dasharray="" stroke-dashoffset="0" style="mix-blend-mode: normal"><path d="M648.75,350.45051c-2.5,0.7 -4.36667,1.25 -5.6,1.65c0.6,2.73333 0.91667,5.35 0.95,7.85l-0.1,-0.7c0.73333,6.66667 1,11.7 0.8,15.1c-0.18112,2.83737 -0.61445,5.6707 -1.3,8.5c-0.06289,0.4 -0.12956,0.78333 -0.2,1.15c-0.2,1.1 -0.58333,2.61667 -1.15,4.55c2.2,0.06667 4.1,0.3 5.7,0.7c2.5,0.63333 4.26667,1.63333 5.3,3c0.96667,1.13333 1.5,2.65 1.6,4.55c0.03437,0.94414 -0.04896,1.79414 -0.25,2.55c-0.07643,0.65833 -0.2431,1.275 -0.5,1.85c-0.76667,1.7 -2.26667,3.08333 -4.5,4.15c-1.83333,0.83333 -4,1.33333 -6.5,1.5c-1.6,0.1 -3.88333,0.06667 -6.85,-0.1c-2.88984,-0.12044 -5.03984,-0.62044 -6.45,-1.5c-0.10456,-0.06172 -0.20456,-0.12839 -0.3,-0.2c-0.24518,-0.15768 -0.44518,-0.34102 -0.6,-0.55c-0.82578,-0.85586 -1.55911,-2.10586 -2.2,-3.75c-1.26667,-3.33333 -1.85,-6.76667 -1.75,-10.3c0.03333,-1.2 0.15,-2.61667 0.35,-4.25c0.3,-1.9 0.51667,-3.33333 0.65,-4.3c0.76667,-5.73333 0.91667,-11.48333 0.45,-17.25c-0.46667,-4.13333 -0.76667,-7.23333 -0.9,-9.3c-0.26667,-3.6 -0.16667,-6.66667 0.3,-9.2c0.10729,-0.5362 0.22396,-1.05286 0.35,-1.55c0.06172,-0.35026 0.12839,-0.68359 0.2,-1c0.56667,-2.56667 1.63333,-4.56667 3.2,-6c0.36276,-0.32331 0.76276,-0.62331 1.2,-0.9c0.35664,-0.22682 0.73997,-0.44349 1.15,-0.65c0.35208,-0.21589 0.71875,-0.41589 1.1,-0.6c1.8,-0.83333 4.31667,-1.28333 7.55,-1.35c3.53333,-0.06667 6.3,0.25 8.3,0.95c1.4,0.5 2.61667,1.21667 3.65,2.15c1.13333,1 1.91667,2.13333 2.35,3.4c0.36667,1.1 0.45,2.25 0.25,3.45c-0.2,1.2 -0.66667,2.26667 -1.4,3.2c-1,1.3 -2.61667,2.36667 -4.85,3.2M643.1,340.10051c-0.33333,0 -2.05,0.08333 -5.15,0.25c-1.2,0.06667 -2.06667,0.23333 -2.6,0.5c-0.46667,0.2 -1.03333,0.7 -1.7,1.5c-1.66667,2.23333 -2.5,5.28333 -2.5,9.15c0,2.73333 0.36667,6.81667 1.1,12.25c0.25,2.7306 0.31667,5.86393 0.2,9.4c0.06224,1.43698 0.06224,2.65365 0,3.65c-0.0181,0.43568 -0.1181,1.41901 -0.3,2.95c-0.04818,0.6138 -0.09818,1.23047 -0.15,1.85c-0.10833,0.59297 -0.20833,1.15964 -0.3,1.7c-0.0638,0.475 -0.13047,0.975 -0.2,1.5c-0.4668,3.32578 -0.65013,6.32578 -0.55,9c0.18372,1.69753 0.55039,3.24753 1.1,4.65c0.43333,0.93333 0.83333,1.53333 1.2,1.8c0.1849,0.12799 0.4349,0.22799 0.75,0.3c0.04688,0.00755 0.09687,0.00755 0.15,0c0.33333,-0.03333 0.65,0 0.95,0.1c1.23333,0.03333 2.4,0.03333 3.5,0c3.37591,-0.06549 6.32591,-0.39883 8.85,-1c0.14492,-0.06641 0.27826,-0.14974 0.4,-0.25c0.66667,-0.53333 0.95,-1.18333 0.85,-1.95c-0.1,-1.1 -0.86667,-1.85 -2.3,-2.25c-0.36667,-0.06667 -0.93333,-0.13333 -1.7,-0.2c-0.76667,-0.06667 -1.33333,-0.15 -1.7,-0.25c-1.86667,-0.3 -3.13333,-0.58333 -3.8,-0.85c-0.2875,-0.11211 -0.55417,-0.24544 -0.8,-0.4c-0.45026,-0.07174 -0.80026,-0.18841 -1.05,-0.35c-0.59232,-0.4513 -0.94232,-0.98464 -1.05,-1.6c0.00807,-0.0181 0.00807,-0.03477 0,-0.05c-0.63333,-1.16667 -0.65,-2.95 -0.05,-5.35c0.93333,-3.26667 1.56667,-5.73333 1.9,-7.4c0.2931,-1.50482 0.47643,-3.13815 0.55,-4.9l-0.1,-7.7c-0.08711,-1.42331 -0.22044,-3.08997 -0.4,-5l0.1,0.55l-0.2,-1.3c-0.02513,-0.96602 -0.07513,-1.86602 -0.15,-2.7c-0.04935,-0.17148 -0.09935,-0.35482 -0.15,-0.55c-0.7,-2.73333 -1.08333,-4.25 -1.15,-4.55c-0.06549,-0.36042 -0.11549,-0.71042 -0.15,-1.05c-0.05677,-0.1819 -0.10677,-0.34857 -0.15,-0.5c-0.2,-0.8 -0.2,-1.48333 0,-2.05c0.3,-0.86667 0.96667,-1.5 2,-1.9c0.36667,-0.13333 1.26667,-0.36667 2.7,-0.7c2.03333,-0.36667 4.2,-1.01667 6.5,-1.95c1,-0.43333 1.53333,-0.93333 1.6,-1.5c0,-0.63333 -0.38333,-1.16667 -1.15,-1.6c-1.33333,-0.76667 -2.96667,-1.18333 -4.9,-1.25z" fill="#000000"/><path d="M647.55,344.46051c-2.3,0.93333 -4.46667,1.58333 -6.5,1.95c-1.43333,0.33333 -2.33333,0.56667 -2.7,0.7c-1.03333,0.4 -1.7,1.03333 -2,1.9c-0.2,0.56667 -0.2,1.25 0,2.05c0.04323,0.15143 0.09323,0.3181 0.15,0.5c0.03451,0.33958 0.08451,0.68958 0.15,1.05c0.06667,0.3 0.45,1.81667 1.15,4.55c0.05065,0.19518 0.10065,0.37852 0.15,0.55c0.07487,0.83398 0.12487,1.73398 0.15,2.7l0.2,1.3l-0.1,-0.55c0.17956,1.91003 0.31289,3.57669 0.4,5l0.1,7.7c-0.07357,1.76185 -0.2569,3.39518 -0.55,4.9c-0.33333,1.66667 -0.96667,4.13333 -1.9,7.4c-0.6,2.4 -0.58333,4.18333 0.05,5.35c0.00807,0.01523 0.00807,0.0319 0,0.05c0.10768,0.61536 0.45768,1.1487 1.05,1.6c0.24974,0.16159 0.59974,0.27826 1.05,0.35c0.24583,0.15456 0.5125,0.28789 0.8,0.4c0.66667,0.26667 1.93333,0.55 3.8,0.85c0.36667,0.1 0.93333,0.18333 1.7,0.25c0.76667,0.06667 1.33333,0.13333 1.7,0.2c1.43333,0.4 2.2,1.15 2.3,2.25c0.1,0.76667 -0.18333,1.41667 -0.85,1.95c-0.12174,0.10026 -0.25508,0.18359 -0.4,0.25c-2.52409,0.60117 -5.47409,0.93451 -8.85,1c-1.1,0.03333 -2.26667,0.03333 -3.5,0c-0.3,-0.1 -0.61667,-0.13333 -0.95,-0.1c-0.05313,0.00755 -0.10312,0.00755 -0.15,0c-0.3151,-0.07201 -0.5651,-0.17201 -0.75,-0.3c-0.36667,-0.26667 -0.76667,-0.86667 -1.2,-1.8c-0.54961,-1.40247 -0.91628,-2.95247 -1.1,-4.65c-0.10013,-2.67422 0.0832,-5.67422 0.55,-9c0.06953,-0.525 0.1362,-1.025 0.2,-1.5c0.09167,-0.54036 0.19167,-1.10703 0.3,-1.7c0.05182,-0.61953 0.10182,-1.2362 0.15,-1.85c0.1819,-1.53099 0.2819,-2.51432 0.3,-2.95c0.06224,-0.99635 0.06224,-2.21302 0,-3.65c0.11667,-3.53607 0.05,-6.6694 -0.2,-9.4c-0.73333,-5.43333 -1.1,-9.51667 -1.1,-12.25c0,-3.86667 0.83333,-6.91667 2.5,-9.15c0.66667,-0.8 1.23333,-1.3 1.7,-1.5c0.53333,-0.26667 1.4,-0.43333 2.6,-0.5c3.1,-0.16667 4.81667,-0.25 5.15,-0.25c1.93333,0.06667 3.56667,0.48333 4.9,1.25c0.76667,0.43333 1.15,0.96667 1.15,1.6c-0.06667,0.56667 -0.6,1.06667 -1.6,1.5z" fill="#ffffff"/></g></g></svg>