<svg version="1.1" xmlns="http://www.w3.org/2000/svg" xmlns:xlink="http://www.w3.org/1999/xlink" width="484.6" height="121.75" viewBox="0,0,484.6,121.75"><g transform="translate(-394.7524,-295.75631)"><g data-paper-data="{&quot;isPaintingLayer&quot;:true}" fill-rule="nonzero" stroke="none" stroke-width="1" stroke-linecap="butt" stroke-linejoin="miter" stroke-miterlimit="10" stroke-dasharray="" stroke-dashoffset="0" style="mix-blend-mode: normal"><path d="M638.3024,305.40631c0.4,-0.13333 0.81667,-0.25 1.25,-0.35c2.2,-0.13333 4.4,-0.26667 6.6,-0.4c0.4,-0.1 0.81667,-0.21667 1.25,-0.35c0.7,0 1.41667,0 2.15,0c0.33333,0.13333 0.68333,0.25 1.05,0.35c0.13333,0.13333 0.25,0.26667 0.35,0.4c0.36667,0.1 0.73333,0.21667 1.1,0.35c0.16667,0.16667 0.33333,0.33333 0.5,0.5c0.2,0.2 0.38333,0.38333 0.55,0.55c0.13333,0.16667 0.25,0.35 0.35,0.55c0.06667,0.16667 0.13333,0.35 0.2,0.55c0.1,0.16667 0.21667,0.33333 0.35,0.5c0.16667,0.2 0.35,0.38333 0.55,0.55c0.1,0.16667 0.21667,0.35 0.35,0.55c0.06667,0.16667 0.11667,0.33333 0.15,0.5c0.2,0.2 0.38333,0.38333 0.55,0.55c0.13333,0.16667 0.25,0.35 0.35,0.55c0.13333,0.16667 0.25,0.35 0.35,0.55c0.06667,0.16667 0.13333,0.33333 0.2,0.5c0.1,0.2 0.21667,0.38333 0.35,0.55c0.06667,0.16667 0.13333,0.35 0.2,0.55c0.03333,0.16667 0.08333,0.33333 0.15,0.5c0.13333,0.2 0.25,0.38333 0.35,0.55c0.13333,0.16667 0.25,0.35 0.35,0.55c0,0.16667 0,0.35 0,0.55c0,0.16667 0,0.33333 0,0.5c0.13333,0 0.26667,0 0.4,0c0,-0.16667 0,-0.33333 0,-0.5c0.03333,-0.2 0.08333,-0.38333 0.15,-0.55c0.13333,-0.2 0.25,-0.38333 0.35,-0.55c0.06667,-0.16667 0.13333,-0.35 0.2,-0.55c0,-0.16667 0,-0.33333 0,-0.5c0,-0.2 0,-0.38333 0,-0.55c0,-0.16667 0,-0.35 0,-0.55c0,-0.16667 0,-0.33333 0,-0.5c0,-0.2 0,-0.38333 0,-0.55c0.1,-0.2 0.21667,-0.38333 0.35,-0.55c0.06667,-0.16667 0.13333,-0.35 0.2,-0.55c0.03333,-0.16667 0.08333,-0.33333 0.15,-0.5c0,-0.2 0,-0.38333 0,-0.55c0,-0.16667 0,-0.35 0,-0.55c0,-0.16667 0,-0.33333 0,-0.5c0,-0.2 0,-0.38333 0,-0.55c0.13333,-0.2 0.25,-0.38333 0.35,-0.55c0.13333,-0.16667 0.25,-0.35 0.35,-0.55c0,-0.16667 0,-0.33333 0,-0.5c0,-0.2 0,-0.38333 0,-0.55c0,-0.16667 0,-0.35 0,-0.55c0.13333,-0.16667 0.26667,-0.33333 0.4,-0.5c0.03333,-0.2 0.08333,-0.38333 0.15,-0.55c0.06667,-0.2 0.13333,-0.38333 0.2,-0.55c0.1,-0.16667 0.21667,-0.35 0.35,-0.55c0.23333,-0.16667 0.46667,-0.33333 0.7,-0.5c0.13333,-0.2 0.25,-0.38333 0.35,-0.55c0.43333,-0.16667 0.85,-0.35 1.25,-0.55c0.2,-0.1 0.38333,-0.21667 0.55,-0.35c0.3,-0.06667 0.6,-0.11667 0.9,-0.15c1.5,-0.13333 2.98333,-0.26667 4.45,-0.4c0.43333,-0.1 0.85,-0.21667 1.25,-0.35c1.03333,-0.1 2.05,-0.21667 3.05,-0.35c0.4,-0.1 0.81667,-0.21667 1.25,-0.35c1.73333,-0.13333 3.45,-0.25 5.15,-0.35c0.43333,-0.13333 0.85,-0.25 1.25,-0.35c1.73333,-0.13333 3.46667,-0.25 5.2,-0.35c0.4,-0.13333 0.81667,-0.26667 1.25,-0.4c2.36667,0 4.75,0 7.15,0c0.36667,0.13333 0.71667,0.26667 1.05,0.4c3,0.1 5.98333,0.21667 8.95,0.35c0.36667,0.1 0.71667,0.21667 1.05,0.35c2.73333,0.1 5.48333,0.21667 8.25,0.35c0.33333,0.13333 0.68333,0.25 1.05,0.35c1.06667,0.13333 2.13333,0.25 3.2,0.35c0.43333,0.13333 0.85,0.25 1.25,0.35c0.76667,0.13333 1.55,0.26667 2.35,0.4c0.93333,0.23333 1.88333,0.48333 2.85,0.75c0.7,0.2 1.41667,0.41667 2.15,0.65c2,0.7 4.01667,1.26667 6.05,1.7c1.7,0.4 3.36667,0.9 5,1.5c0.16667,0.13333 0.35,0.26667 0.55,0.4c0.3,0.1 0.6,0.21667 0.9,0.35c0.1,0.1 0.21667,0.21667 0.35,0.35c0.33333,0.1 0.68333,0.21667 1.05,0.35c0.2,0.13333 0.38333,0.25 0.55,0.35c0.3,0.13333 0.6,0.25 0.9,0.35c0.23333,0.2 0.46667,0.38333 0.7,0.55c0.13333,0.13333 0.25,0.25 0.35,0.35c0.06667,0.06667 0.13333,0.11667 0.2,0.15c0.3,0.13333 0.6,0.26667 0.9,0.4c0.23333,0.16667 0.46667,0.35 0.7,0.55c0.1,0.16667 0.21667,0.33333 0.35,0.5c0.16667,0.2 0.35,0.38333 0.55,0.55c0.23333,0.16667 0.46667,0.35 0.7,0.55c0.16667,0.16667 0.35,0.33333 0.55,0.5c0.1,0.2 0.21667,0.38333 0.35,0.55c0.1,0.16667 0.21667,0.35 0.35,0.55c0.06667,0.16667 0.13333,0.35 0.2,0.55c0.16667,0.16667 0.33333,0.33333 0.5,0.5c0.13333,0.2 0.25,0.38333 0.35,0.55c0.13333,0.16667 0.26667,0.35 0.4,0.55c0.03333,0.16667 0.08333,0.33333 0.15,0.5c0.13333,0.2 0.25,0.38333 0.35,0.55c0.2,0.16667 0.38333,0.35 0.55,0.55c0.13333,0.16667 0.25,0.35 0.35,0.55c0.06667,0.16667 0.13333,0.33333 0.2,0.5c0.1,0.2 0.21667,0.38333 0.35,0.55c0.06667,0.16667 0.11667,0.35 0.15,0.55c0.06667,0.16667 0.13333,0.33333 0.2,0.5c0.13333,0.2 0.25,0.38333 0.35,0.55c0.13333,0.16667 0.25,0.35 0.35,0.55c0,0.16667 0,0.33333 0,0.5c0,0.2 0,0.38333 0,0.55c0.2,0.06667 0.38333,0.13333 0.55,0.2c0.16667,-0.13333 0.35,-0.25 0.55,-0.35c0.16667,-0.2 0.33333,-0.38333 0.5,-0.55c0.2,-0.16667 0.38333,-0.35 0.55,-0.55c0.2,-0.1 0.38333,-0.21667 0.55,-0.35c0.06667,-0.06667 0.13333,-0.1 0.2,-0.1c0.26667,-0.1 0.55,-0.18333 0.85,-0.25c4.83333,-0.13333 9.66667,-0.25 14.5,-0.35c0.4,-0.13333 0.81667,-0.25 1.25,-0.35c1.7,-0.13333 3.41667,-0.25 5.15,-0.35c0.43333,-0.13333 0.85,-0.26667 1.25,-0.4c3.03333,-0.1 6.06667,-0.21667 9.1,-0.35c-0.1,-0.16667 -0.21667,-0.33333 -0.35,-0.5c0,-0.2 0,-0.38333 0,-0.55c0,-0.2 0,-0.38333 0,-0.55c-0.1,-0.16667 -0.21667,-0.35 -0.35,-0.55c-0.16667,-0.16667 -0.35,-0.33333 -0.55,-0.5c-0.1,-0.2 -0.21667,-0.38333 -0.35,-0.55c-0.06667,-0.16667 -0.11667,-0.35 -0.15,-0.55c-0.13333,-0.16667 -0.26667,-0.33333 -0.4,-0.5c-0.1,-0.2 -0.21667,-0.38333 -0.35,-0.55c0,-0.2 0,-0.38333 0,-0.55c0,-0.16667 0,-0.35 0,-0.55c0,-0.16667 0,-0.33333 0,-0.5c0,-0.2 0,-0.38333 0,-0.55c0,-0.36667 0,-0.71667 0,-1.05c0,-0.36667 0,-0.73333 0,-1.1c0,-0.36667 0,-0.71667 0,-1.05c0,-0.36667 0,-0.73333 0,-1.1c0,-0.16667 0,-0.33333 0,-0.5c0.13333,-0.2 0.25,-0.38333 0.35,-0.55c0.13333,-0.2 0.26667,-0.38333 0.4,-0.55c0.16667,-0.16667 0.33333,-0.35 0.5,-0.55c0.2,-0.1 0.38333,-0.21667 0.55,-0.35c0.3,-0.1 0.6,-0.21667 0.9,-0.35c0.16667,-0.16667 0.35,-0.35 0.55,-0.55c0.16667,-0.1 0.33333,-0.21667 0.5,-0.35c0.06667,-0.06667 0.13333,-0.11667 0.2,-0.15c0.3,-0.13333 0.6,-0.25 0.9,-0.35c0.16667,-0.13333 0.33333,-0.26667 0.5,-0.4c0.3,-0.03333 0.6,-0.08333 0.9,-0.15c0.53333,-0.13333 1.06667,-0.26667 1.6,-0.4c0.43333,-0.1 0.86667,-0.18333 1.3,-0.25c0.76667,-0.16667 1.53333,-0.31667 2.3,-0.45c0.4,-0.1 0.81667,-0.21667 1.25,-0.35c1.46667,-0.1 2.95,-0.21667 4.45,-0.35c0.43333,-0.1 0.85,-0.21667 1.25,-0.35c1.26667,-0.13333 2.51667,-0.25 3.75,-0.35c0.43333,-0.13333 0.85,-0.25 1.25,-0.35c1.26667,-0.13333 2.51667,-0.25 3.75,-0.35c0.43333,-0.13333 0.85,-0.25 1.25,-0.35c0.76667,-0.13333 1.53333,-0.26667 2.3,-0.4c0.43333,-0.1 0.85,-0.21667 1.25,-0.35c1.03333,-0.1 2.05,-0.21667 3.05,-0.35c0.43333,-0.06667 0.85,-0.15 1.25,-0.25v-0.1c0.46667,0 0.95,0 1.45,0c0.33333,0.1 0.68333,0.21667 1.05,0.35c0.83333,0.13333 1.66667,0.25 2.5,0.35c0.36667,0.13333 0.73333,0.25 1.1,0.35c0.16667,0.13333 0.33333,0.25 0.5,0.35c0.3,0.13333 0.6,0.26667 0.9,0.4c0.16667,0.16667 0.35,0.33333 0.55,0.5c0.16667,0.2 0.35,0.38333 0.55,0.55c0.1,0.16667 0.21667,0.35 0.35,0.55c0.03333,0.16667 0.08333,0.33333 0.15,0.5c0.2,0.2 0.38333,0.38333 0.55,0.55c0.13333,0.16667 0.25,0.35 0.35,0.55c0.13333,0.16667 0.25,0.35 0.35,0.55c0.06667,0.16667 0.13333,0.33333 0.2,0.5c0.1,0.2 0.21667,0.38333 0.35,0.55c0.06667,0.16667 0.13333,0.35 0.2,0.55c0.03333,0.16667 0.08333,0.33333 0.15,0.5c0.13333,0.2 0.25,0.38333 0.35,0.55c0.13333,0.16667 0.25,0.35 0.35,0.55c0.06667,0.16667 0.13333,0.35 0.2,0.55c0.13333,0.16667 0.25,0.33333 0.35,0.5c0.06667,0.2 0.13333,0.38333 0.2,0.55c0.1,0.16667 0.21667,0.35 0.35,0.55c0.06667,0.16667 0.11667,0.33333 0.15,0.5c0.06667,0.2 0.13333,0.38333 0.2,0.55c0,0.16667 0,0.35 0,0.55c0,0.16667 0,0.35 0,0.55c0.13333,0.16667 0.25,0.33333 0.35,0.5c0.06667,0.2 0.13333,0.38333 0.2,0.55c0.03333,0.16667 0.08333,0.35 0.15,0.55c0.13333,0.16667 0.25,0.33333 0.35,0.5c0.06667,0.2 0.13333,0.38333 0.2,0.55c0.06667,0.16667 0.13333,0.35 0.2,0.55c0,0.1 0,0.21667 0,0.35c0.23333,-0.06667 0.46667,-0.13333 0.7,-0.2c0.06667,-0.16667 0.11667,-0.33333 0.15,-0.5c0.13333,-0.2 0.26667,-0.38333 0.4,-0.55c0.1,-0.16667 0.21667,-0.35 0.35,-0.55c0.16667,-0.16667 0.33333,-0.33333 0.5,-0.5c0.06667,-0.2 0.13333,-0.38333 0.2,-0.55c0.13333,-0.2 0.25,-0.38333 0.35,-0.55c0.13333,-0.16667 0.25,-0.35 0.35,-0.55c0.3,-0.16667 0.6,-0.33333 0.9,-0.5c0.16667,-0.2 0.35,-0.38333 0.55,-0.55c0.1,-0.16667 0.21667,-0.35 0.35,-0.55c0.06667,-0.16667 0.13333,-0.33333 0.2,-0.5c0.1,-0.2 0.21667,-0.38333 0.35,-0.55c0.1,-0.2 0.21667,-0.38333 0.35,-0.55c0.1,-0.16667 0.21667,-0.35 0.35,-0.55c0.16667,-0.16667 0.35,-0.33333 0.55,-0.5c0.16667,-0.2 0.33333,-0.38333 0.5,-0.55c0.06667,-0.16667 0.13333,-0.35 0.2,-0.55c0.06667,-0.16667 0.13333,-0.33333 0.2,-0.5c0,-0.2 0,-0.38333 0,-0.55c0.1,-0.2 0.21667,-0.38333 0.35,-0.55c0.16667,-0.16667 0.33333,-0.35 0.5,-0.55c0.13333,-0.16667 0.26667,-0.33333 0.4,-0.5c0.03333,-0.2 0.08333,-0.38333 0.15,-0.55c0.13333,-0.16667 0.25,-0.35 0.35,-0.55c0.23333,-0.16667 0.48333,-0.33333 0.75,-0.5c0.16667,-0.2 0.33333,-0.38333 0.5,-0.55c0.13333,-0.2 0.25,-0.38333 0.35,-0.55c0.2,-0.1 0.38333,-0.21667 0.55,-0.35c0.3,-0.06667 0.6,-0.13333 0.9,-0.2c1.9,0 3.8,0 5.7,0c0.36667,0.13333 0.73333,0.26667 1.1,0.4c0.1,0.1 0.21667,0.21667 0.35,0.35c0.36667,0.1 0.71667,0.21667 1.05,0.35c0.36667,0.1 0.73333,0.21667 1.1,0.35c0.33333,0.13333 0.68333,0.25 1.05,0.35c0.7,0.23333 1.41667,0.46667 2.15,0.7c0.7,0.26667 1.41667,0.51667 2.15,0.75c0.1,0.1 0.21667,0.21667 0.35,0.35c0.36667,0.1 0.71667,0.21667 1.05,0.35c0.2,0.13333 0.38333,0.25 0.55,0.35c0.3,0.13333 0.6,0.25 0.9,0.35c0.16667,0.13333 0.35,0.25 0.55,0.35c0.3,0.13333 0.58333,0.26667 0.85,0.4c0.26667,0.16667 0.51667,0.33333 0.75,0.5c0.16667,0.2 0.33333,0.38333 0.5,0.55c0.2,0.16667 0.38333,0.35 0.55,0.55c0.36667,0.16667 0.73333,0.33333 1.1,0.5c0.16667,0.2 0.33333,0.38333 0.5,0.55c0.06667,0.16667 0.13333,0.35 0.2,0.55c0.1,0.16667 0.21667,0.35 0.35,0.55c0.16667,0.16667 0.35,0.33333 0.55,0.5c0.16667,0.2 0.33333,0.38333 0.5,0.55c0.13333,0.13333 0.26667,0.25 0.4,0.35c0.03333,0.06667 0.1,0.11667 0.2,0.15c0.26667,0.13333 0.55,0.26667 0.85,0.4c0.16667,0.16667 0.35,0.35 0.55,0.55c0.06667,0.16667 0.11667,0.33333 0.15,0.5c0.13333,0.2 0.25,0.38333 0.35,0.55c0.2,0.16667 0.38333,0.35 0.55,0.55c0.13333,0.16667 0.25,0.33333 0.35,0.5c0.06667,0.2 0.13333,0.38333 0.2,0.55c0.1,0.16667 0.21667,0.35 0.35,0.55c0.16667,0.16667 0.35,0.35 0.55,0.55c0.1,0.16667 0.21667,0.33333 0.35,0.5c0.06667,0.2 0.11667,0.38333 0.15,0.55c0.06667,0.16667 0.13333,0.35 0.2,0.55c0,0.16667 0,0.33333 0,0.5c0.13333,0.2 0.25,0.38333 0.35,0.55c0.06667,0.16667 0.13333,0.35 0.2,0.55c0.06667,0.16667 0.11667,0.35 0.15,0.55c0,0.16667 0,0.33333 0,0.5c0,0.2 0,0.38333 0,0.55c0,0.16667 0,0.35 0,0.55c0,0.16667 0,0.33333 0,0.5c0.13333,0.2 0.25,0.38333 0.35,0.55c0.13333,0.16667 0.26667,0.35 0.4,0.55c0,0.16667 0,0.33333 0,0.5c0,0.2 0,0.38333 0,0.55c0,0.2 0,0.38333 0,0.55c0,0.16667 0,0.35 0,0.55c0,0.16667 0,0.33333 0,0.5c0,0.2 0,0.38333 0,0.55c0,0.16667 0,0.35 0,0.55c0,0.16667 0,0.33333 0,0.5c0,0.36667 0,0.73333 0,1.1c-0.06667,0.16667 -0.13333,0.35 -0.2,0.55c-0.06667,0.16667 -0.13333,0.33333 -0.2,0.5c-0.1,0.2 -0.21667,0.38333 -0.35,0.55c0,0.16667 0,0.35 0,0.55c-0.03333,0.16667 -0.08333,0.33333 -0.15,0.5c-0.06667,0.2 -0.13333,0.38333 -0.2,0.55c-0.1,0.2 -0.21667,0.38333 -0.35,0.55c-0.16667,0.16667 -0.35,0.35 -0.55,0.55c-0.1,0.16667 -0.21667,0.33333 -0.35,0.5c-0.06667,0.2 -0.11667,0.38333 -0.15,0.55c-0.13333,0.16667 -0.26667,0.35 -0.4,0.55c-0.03333,0.16667 -0.08333,0.33333 -0.15,0.5c-0.13333,0.2 -0.25,0.38333 -0.35,0.55c-0.13333,0.2 -0.25,0.38333 -0.35,0.55c-0.2,0.16667 -0.38333,0.35 -0.55,0.55c-0.16667,0.16667 -0.35,0.33333 -0.55,0.5c-0.1,0.2 -0.21667,0.38333 -0.35,0.55c-0.06667,0.16667 -0.13333,0.35 -0.2,0.55c-0.1,0.16667 -0.21667,0.33333 -0.35,0.5c-0.16667,0.2 -0.33333,0.38333 -0.5,0.55c-0.13333,0.2 -0.26667,0.38333 -0.4,0.55c-0.03333,0.16667 -0.08333,0.35 -0.15,0.55c-0.13333,0.16667 -0.25,0.33333 -0.35,0.5c-0.2,0.2 -0.38333,0.38333 -0.55,0.55c-0.13333,0.16667 -0.25,0.35 -0.35,0.55c-0.06667,0.16667 -0.13333,0.33333 -0.2,0.5c-0.1,0.2 -0.21667,0.38333 -0.35,0.55c-0.16667,0.2 -0.35,0.38333 -0.55,0.55c-0.16667,0.16667 -0.33333,0.35 -0.5,0.55c-0.2,0.16667 -0.38333,0.33333 -0.55,0.5c-0.16667,0.2 -0.35,0.38333 -0.55,0.55c0,0.16667 0,0.35 0,0.55c-0.03333,0.16667 -0.08333,0.33333 -0.15,0.5c-0.06667,0.2 -0.13333,0.38333 -0.2,0.55c-0.1,0.2 -0.21667,0.38333 -0.35,0.55c-0.16667,0.16667 -0.35,0.35 -0.55,0.55c-0.16667,0.16667 -0.33333,0.33333 -0.5,0.5c-0.2,0.2 -0.38333,0.38333 -0.55,0.55c-0.16667,0.16667 -0.35,0.35 -0.55,0.55c-0.16667,0.16667 -0.35,0.33333 -0.55,0.5c-0.16667,0.2 -0.33333,0.38333 -0.5,0.55c-0.2,0.2 -0.38333,0.38333 -0.55,0.55c-0.13333,0.16667 -0.25,0.35 -0.35,0.55c-0.06667,0.16667 -0.13333,0.33333 -0.2,0.5c-0.03333,0.2 -0.08333,0.38333 -0.15,0.55c-0.06667,0.16667 -0.13333,0.35 -0.2,0.55c-0.1,0.16667 -0.21667,0.33333 -0.35,0.5c-0.16667,0.2 -0.35,0.38333 -0.55,0.55c-0.16667,0.2 -0.33333,0.38333 -0.5,0.55c-0.2,0.16667 -0.38333,0.35 -0.55,0.55c-0.16667,0.16667 -0.35,0.33333 -0.55,0.5c-0.16667,0.2 -0.33333,0.38333 -0.5,0.55c-0.06667,0.16667 -0.13333,0.35 -0.2,0.55c-0.13333,0.16667 -0.25,0.33333 -0.35,0.5c-0.13333,0.2 -0.25,0.38333 -0.35,0.55c-0.2,0.16667 -0.38333,0.35 -0.55,0.55c-0.16667,0.16667 -0.35,0.35 -0.55,0.55c-0.16667,0.16667 -0.33333,0.33333 -0.5,0.5c-0.2,0.2 -0.38333,0.38333 -0.55,0.55c-0.2,0.16667 -0.38333,0.35 -0.55,0.55c-0.16667,0.16667 -0.35,0.33333 -0.55,0.5c-0.1,0.2 -0.21667,0.38333 -0.35,0.55c-0.1,0.16667 -0.21667,0.35 -0.35,0.55c-0.1,0.16667 -0.21667,0.35 -0.35,0.55c-0.13333,0.1 -0.25,0.21667 -0.35,0.35c-0.3,0.1 -0.6,0.21667 -0.9,0.35c-0.16667,0.16667 -0.35,0.35 -0.55,0.55c-0.1,0.16667 -0.21667,0.33333 -0.35,0.5c-0.1,0.2 -0.21667,0.38333 -0.35,0.55c-0.13333,0.16667 -0.25,0.35 -0.35,0.55c0,0.16667 0,0.33333 0,0.5c0,0.2 0,0.38333 0,0.55c0,0.16667 0,0.35 0,0.55c0,0.36667 0,0.71667 0,1.05c0,0.36667 0,0.73333 0,1.1c0,0.33333 0,0.68333 0,1.05c0,0.36667 0,0.73333 0,1.1c0,0.33333 0,0.68333 0,1.05c0,0.16667 0,0.35 0,0.55c0.1,0.16667 0.21667,0.33333 0.35,0.5c0.06667,0.2 0.13333,0.38333 0.2,0.55c0.03333,0.16667 0.08333,0.35 0.15,0.55c0,0.16667 0,0.35 0,0.55c0,0.16667 0,0.33333 0,0.5c0,0.2 0,0.38333 0,0.55c-0.06667,0.16667 -0.11667,0.35 -0.15,0.55c0,0.16667 0,0.33333 0,0.5c0,0.2 0,0.38333 0,0.55c0,0.16667 0,0.35 0,0.55c0.03333,0.16667 0.08333,0.35 0.15,0.55c0,0.16667 0,0.33333 0,0.5c0,0.2 0,0.38333 0,0.55c0,0.16667 0,0.35 0,0.55c0,0.16667 0,0.33333 0,0.5c0,0.2 0,0.38333 0,0.55c0,0.16667 0,0.35 0,0.55c0,0.16667 0,0.35 0,0.55c0,0.16667 0,0.33333 0,0.5c0.13333,0.2 0.25,0.38333 0.35,0.55c0.06667,0.16667 0.13333,0.35 0.2,0.55c0.06667,0.16667 0.11667,0.33333 0.15,0.5c0,0.53333 0,1.08333 0,1.65c0,1.23333 0,2.48333 0,3.75c0,1.4 0,2.81667 0,4.25c0.03333,1.6 0.05,3.21667 0.05,4.85c0,1.6 -0.01667,3.2 -0.05,4.8c0,1.26667 0,2.51667 0,3.75c0,0.16667 0,0.35 0,0.55c-0.03333,0.16667 -0.08333,0.33333 -0.15,0.5c-0.06667,0.2 -0.13333,0.38333 -0.2,0.55c-0.16667,0.2 -0.33333,0.38333 -0.5,0.55c-0.2,0.16667 -0.38333,0.35 -0.55,0.55c-0.13333,0.1 -0.25,0.21667 -0.35,0.35c-0.36667,0.1 -0.73333,0.21667 -1.1,0.35c-0.1,0.1 -0.21667,0.21667 -0.35,0.35c-0.3,0.06667 -0.6,0.11667 -0.9,0.15c-0.83333,0.13333 -1.66667,0.26667 -2.5,0.4c-0.33333,0.1 -0.68333,0.21667 -1.05,0.35c-2.5,0.1 -5,0.21667 -7.5,0.35c-0.36667,0.13333 -0.73333,0.25 -1.1,0.35c-1.53333,0.13333 -3.06667,0.25 -4.6,0.35c-0.36667,0.13333 -0.73333,0.25 -1.1,0.35c-1.3,0.13333 -2.6,0.26667 -3.9,0.4c-0.36667,0.1 -0.73333,0.21667 -1.1,0.35c-1.76667,0.1 -3.55,0.21667 -5.35,0.35c-0.36667,0.1 -0.71667,0.21667 -1.05,0.35c-1.1,0.13333 -2.18333,0.25 -3.25,0.35c-0.33333,0.13333 -0.68333,0.25 -1.05,0.35c-0.96667,0 -1.91667,0 -2.85,0c-0.43333,-0.1 -0.85,-0.21667 -1.25,-0.35c-0.3,-0.1 -0.6,-0.2 -0.9,-0.3c-0.43333,-0.16667 -0.85,-0.3 -1.25,-0.4c-0.13333,-0.16667 -0.25,-0.35 -0.35,-0.55c-0.23333,-0.16667 -0.48333,-0.35 -0.75,-0.55c-0.16667,-0.16667 -0.33333,-0.33333 -0.5,-0.5c-0.13333,-0.2 -0.25,-0.38333 -0.35,-0.55c-0.06667,-0.16667 -0.13333,-0.35 -0.2,-0.55c-0.06667,-0.1 -0.13333,-0.21667 -0.2,-0.35c-2.13333,-0.06667 -4.26667,-0.11667 -6.4,-0.15c-0.43333,-0.13333 -0.85,-0.26667 -1.25,-0.4c-5.3,-0.1 -10.6,-0.21667 -15.9,-0.35c-0.4,-0.1 -0.81667,-0.21667 -1.25,-0.35c-0.1,-0.1 -0.21667,-0.21667 -0.35,-0.35c-0.36667,-0.13333 -0.71667,-0.25 -1.05,-0.35c-0.2,-0.16667 -0.38333,-0.35 -0.55,-0.55c-0.13333,-0.1 -0.25,-0.21667 -0.35,-0.35c-0.06667,-0.06667 -0.13333,-0.11667 -0.2,-0.15c-0.36667,-0.13333 -0.71667,-0.26667 -1.05,-0.4c-0.13333,-0.16667 -0.25,-0.33333 -0.35,-0.5c-0.26667,-0.2 -0.51667,-0.38333 -0.75,-0.55c-0.1,-0.16667 -0.21667,-0.35 -0.35,-0.55c-0.06667,-0.16667 -0.11667,-0.35 -0.15,-0.55c-0.13333,-0.16667 -0.26667,-0.33333 -0.4,-0.5c-0.16667,-0.2 -0.33333,-0.38333 -0.5,-0.55c-0.2,-0.16667 -0.38333,-0.35 -0.55,-0.55c-0.16667,-0.16667 -0.35,-0.33333 -0.55,-0.5c-0.1,-0.13333 -0.21667,-0.26667 -0.35,-0.4c-0.1,0.2 -0.21667,0.38333 -0.35,0.55c-0.13333,0.2 -0.25,0.38333 -0.35,0.55c0,0.16667 0,0.35 0,0.55c-0.06667,0.16667 -0.13333,0.33333 -0.2,0.5c-0.06667,0.2 -0.11667,0.38333 -0.15,0.55c-0.13333,0.16667 -0.25,0.35 -0.35,0.55c0,0.16667 0,0.33333 0,0.5c-0.06667,0.2 -0.13333,0.38333 -0.2,0.55c-0.06667,0.2 -0.13333,0.38333 -0.2,0.55c-0.1,0.16667 -0.21667,0.35 -0.35,0.55c-0.06667,0.16667 -0.11667,0.33333 -0.15,0.5c-0.13333,0.2 -0.25,0.38333 -0.35,0.55c-0.06667,0.16667 -0.13333,0.35 -0.2,0.55c-0.13333,0.16667 -0.25,0.33333 -0.35,0.5c-0.13333,0.2 -0.25,0.38333 -0.35,0.55c-0.13333,0.2 -0.25,0.38333 -0.35,0.55c-0.26667,0.16667 -0.51667,0.35 -0.75,0.55c-0.16667,0.16667 -0.33333,0.33333 -0.5,0.5c-0.36667,0.13333 -0.73333,0.25 -1.1,0.35c-9.86667,0.13333 -19.75,0.26667 -29.65,0.4c-0.33333,0.1 -0.68333,0.21667 -1.05,0.35c-1.8,0.1 -3.58333,0.21667 -5.35,0.35c-0.36667,0.1 -0.73333,0.21667 -1.1,0.35c-1.76667,0.13333 -3.55,0.25 -5.35,0.35c-0.36667,0.13333 -0.71667,0.25 -1.05,0.35c-2.96667,0.13333 -5.95,0.25 -8.95,0.35c-0.33333,0.13333 -0.68333,0.26667 -1.05,0.4c-0.83333,0.1 -1.66667,0.21667 -2.5,0.35c-0.36667,0.1 -0.73333,0.2 -1.1,0.3c-0.56667,0.13333 -1.15,0.28333 -1.75,0.45c-0.36667,0.1 -0.73333,0.2 -1.1,0.3c-10.7,0 -21.41667,0 -32.15,0c-0.4,-0.1 -0.81667,-0.21667 -1.25,-0.35c-0.1,-0.13333 -0.21667,-0.25 -0.35,-0.35c-0.33333,-0.13333 -0.68333,-0.25 -1.05,-0.35c-0.13333,-0.2 -0.25,-0.38333 -0.35,-0.55c-0.13333,-0.16667 -0.25,-0.35 -0.35,-0.55c-0.06667,-0.16667 -0.13333,-0.33333 -0.2,-0.5c-0.13333,-0.2 -0.25,-0.38333 -0.35,-0.55c-0.06667,-0.16667 -0.13333,-0.35 -0.2,-0.55c0,-0.16667 0,-0.35 0,-0.55c-0.03333,-0.16667 -0.08333,-0.33333 -0.15,-0.5c-0.13333,-0.2 -0.25,-0.38333 -0.35,-0.55c-0.06667,-0.16667 -0.13333,-0.35 -0.2,-0.55c-0.13333,-0.16667 -0.25,-0.33333 -0.35,-0.5c-0.13333,-0.2 -0.25,-0.38333 -0.35,-0.55c0,-0.16667 0,-0.35 0,-0.55c0,-0.16667 0,-0.35 0,-0.55c-0.13333,-0.16667 -0.25,-0.33333 -0.35,-0.5c-0.13333,-0.2 -0.26667,-0.38333 -0.4,-0.55c0,-0.16667 0,-0.35 0,-0.55c0,-0.16667 0,-0.33333 0,-0.5c-0.1,-0.2 -0.21667,-0.38333 -0.35,-0.55c-0.1,-0.16667 -0.21667,-0.35 -0.35,-0.55c0,-0.16667 0,-0.35 0,-0.55c0,-0.16667 0,-0.33333 0,-0.5c0,-0.2 0,-0.38333 0,-0.55c0,-0.16667 0,-0.35 0,-0.55c0,-0.16667 0,-0.33333 0,-0.5c0,-0.2 0,-0.38333 0,-0.55c0,-0.16667 0,-0.35 0,-0.55c0,-0.36667 0,-0.71667 0,-1.05c0,-0.36667 0,-0.73333 0,-1.1c-0.06667,-0.16667 -0.11667,-0.33333 -0.15,-0.5c-0.13333,-0.2 -0.26667,-0.38333 -0.4,-0.55c-0.03333,-0.16667 -0.08333,-0.35 -0.15,-0.55c0,-0.16667 0,-0.35 0,-0.55c0,-0.16667 0,-0.33333 0,-0.5c0,-0.2 0,-0.38333 0,-0.55c0,-0.16667 0,-0.35 0,-0.55c0,-0.16667 0,-0.33333 0,-0.5c-0.06667,-0.2 -0.13333,-0.38333 -0.2,-0.55c-0.1,-0.16667 -0.21667,-0.35 -0.35,-0.55c-0.06667,-0.16667 -0.11667,-0.35 -0.15,-0.55c0,-0.16667 0,-0.33333 0,-0.5c0,-0.2 0,-0.38333 0,-0.55c0,-0.16667 0,-0.35 0,-0.55c0,-0.16667 0,-0.33333 0,-0.5c0,-0.2 0,-0.38333 0,-0.55c-0.06667,-0.16667 -0.13333,-0.35 -0.2,-0.55c-0.13333,-0.16667 -0.25,-0.35 -0.35,-0.55c-0.06667,-0.16667 -0.13333,-0.33333 -0.2,-0.5c0,-0.2 0,-0.38333 0,-0.55c0,-0.16667 0,-0.35 0,-0.55c0,-0.16667 0,-0.33333 0,-0.5c0,-0.2 0,-0.38333 0,-0.55c0,-0.16667 0,-0.35 0,-0.55c0,-0.16667 0,-0.33333 0,-0.5c0,-0.2 0,-0.38333 0,-0.55c-1.06667,0 -2.13333,0 -3.2,0c0,0.16667 0,0.35 0,0.55c0,0.16667 0,0.33333 0,0.5c0,0.2 0,0.38333 0,0.55c0.06667,0.16667 0.13333,0.35 0.2,0.55c0.1,0.16667 0.21667,0.33333 0.35,0.5c0.06667,0.2 0.11667,0.38333 0.15,0.55c0,0.16667 0,0.35 0,0.55c0,0.16667 0,0.33333 0,0.5c0,0.2 0,0.38333 0,0.55c0,0.36667 0,0.73333 0,1.1c0,0.33333 0,0.68333 0,1.05c0,0.53333 0,1.06667 0,1.6c0,0.53333 0,1.06667 0,1.6c0,0.53333 0,1.06667 0,1.6c0,0.2 0,0.38333 0,0.55c-0.1,0.2 -0.21667,0.38333 -0.35,0.55c-0.1,0.16667 -0.21667,0.35 -0.35,0.55c0,0.16667 0,0.33333 0,0.5c0,0.2 0,0.38333 0,0.55c0,0.16667 0,0.35 0,0.55c-0.06667,0.16667 -0.13333,0.33333 -0.2,0.5c-0.1,0.2 -0.21667,0.38333 -0.35,0.55c-0.03333,0.2 -0.08333,0.38333 -0.15,0.55c0,0.16667 0,0.35 0,0.55c-0.06667,0.16667 -0.13333,0.33333 -0.2,0.5c-0.1,0.2 -0.21667,0.38333 -0.35,0.55c-0.06667,0.16667 -0.13333,0.35 -0.2,0.55c0,0.16667 0,0.33333 0,0.5c-0.03333,0.2 -0.08333,0.38333 -0.15,0.55c-0.13333,0.2 -0.25,0.38333 -0.35,0.55c-0.06667,0.16667 -0.13333,0.35 -0.2,0.55c-0.1,0.16667 -0.21667,0.33333 -0.35,0.5c-0.13333,0.2 -0.25,0.38333 -0.35,0.55c-0.06667,0.16667 -0.13333,0.35 -0.2,0.55c-0.03333,0.16667 -0.08333,0.33333 -0.15,0.5c-0.13333,0.2 -0.25,0.38333 -0.35,0.55c-0.06667,0.2 -0.13333,0.38333 -0.2,0.55c-0.13333,0.16667 -0.25,0.35 -0.35,0.55c-0.16667,0.16667 -0.35,0.33333 -0.55,0.5c-0.16667,0.2 -0.35,0.38333 -0.55,0.55c-0.16667,0.16667 -0.33333,0.35 -0.5,0.55c-0.13333,0.1 -0.25,0.21667 -0.35,0.35c-0.3,0.06667 -0.6,0.11667 -0.9,0.15c-0.6,0.13333 -1.2,0.26667 -1.8,0.4c-0.36667,0.1 -0.71667,0.21667 -1.05,0.35c-5.6,0.1 -11.2,0.21667 -16.8,0.35c-0.36667,0.1 -0.71667,0.21667 -1.05,0.35c-1.56667,0.13333 -3.11667,0.25 -4.65,0.35c-0.36667,0.13333 -0.73333,0.25 -1.1,0.35c-1.46667,0.13333 -2.95,0.25 -4.45,0.35c-0.43333,0.13333 -0.85,0.26667 -1.25,0.4c-1.3,0.1 -2.61667,0.21667 -3.95,0.35c-0.33333,0.1 -0.68333,0.21667 -1.05,0.35c-1.3,0.1 -2.61667,0.21667 -3.95,0.35c-0.33333,0.13333 -0.68333,0.25 -1.05,0.35c-1.8,0.13333 -3.58333,0.25 -5.35,0.35c-0.36667,0.13333 -0.73333,0.25 -1.1,0.35c-2.83333,0 -5.68333,0 -8.55,0c-0.4,-0.1 -0.81667,-0.2 -1.25,-0.3c-0.53333,-0.13333 -1.06667,-0.26667 -1.6,-0.4c-0.43333,-0.1 -0.85,-0.21667 -1.25,-0.35c-0.16667,-0.16667 -0.35,-0.35 -0.55,-0.55c-0.16667,-0.16667 -0.35,-0.33333 -0.55,-0.5c-0.16667,-0.2 -0.33333,-0.38333 -0.5,-0.55c-0.2,-0.16667 -0.38333,-0.35 -0.55,-0.55c-0.13333,-0.16667 -0.25,-0.35 -0.35,-0.55c-0.13333,-0.16667 -0.25,-0.33333 -0.35,-0.5c-0.2,-0.13333 -0.38333,-0.25 -0.55,-0.35c-0.16667,0.16667 -0.35,0.33333 -0.55,0.5c-0.1,0.13333 -0.21667,0.25 -0.35,0.35c-0.3,0.06667 -0.58333,0.15 -0.85,0.25c-0.36667,0.1 -0.73333,0.2 -1.1,0.3c-0.36667,0.13333 -0.73333,0.23333 -1.1,0.3c-0.56667,0.16667 -1.15,0.31667 -1.75,0.45c-0.36667,0.1 -0.73333,0.21667 -1.1,0.35c-1.53333,0.1 -3.06667,0.21667 -4.6,0.35c-0.36667,0.1 -0.73333,0.21667 -1.1,0.35c-2.03333,0.1 -4.05,0.21667 -6.05,0.35c-0.36667,0.13333 -0.73333,0.25 -1.1,0.35c-2,0.13333 -4.01667,0.25 -6.05,0.35c-0.36667,0.13333 -0.73333,0.25 -1.1,0.35c-2.23333,0.13333 -4.48333,0.26667 -6.75,0.4c-0.36667,0.1 -0.73333,0.21667 -1.1,0.35c-5.7,0 -11.41667,0 -17.15,0c-0.4,-0.13333 -0.81667,-0.25 -1.25,-0.35c-0.1,-0.2 -0.21667,-0.38333 -0.35,-0.55c-0.16667,-0.13333 -0.33333,-0.25 -0.5,-0.35c-0.06667,-0.06667 -0.13333,-0.11667 -0.2,-0.15c-0.36667,-0.13333 -0.71667,-0.26667 -1.05,-0.4c-0.13333,-0.16667 -0.26667,-0.35 -0.4,-0.55c-0.1,-0.16667 -0.21667,-0.33333 -0.35,-0.5c-0.03333,-0.2 -0.08333,-0.38333 -0.15,-0.55c-0.2,-0.16667 -0.38333,-0.35 -0.55,-0.55c-0.13333,-0.16667 -0.25,-0.35 -0.35,-0.55c-0.13333,-0.16667 -0.25,-0.33333 -0.35,-0.5c-0.06667,-0.2 -0.13333,-0.38333 -0.2,-0.55c-0.1,-0.16667 -0.21667,-0.35 -0.35,-0.55c-0.06667,-0.16667 -0.13333,-0.33333 -0.2,-0.5c-0.1,-0.2 -0.21667,-0.38333 -0.35,-0.55c-0.1,-0.16667 -0.21667,-0.35 -0.35,-0.55c-0.06667,-0.16667 -0.11667,-0.35 -0.15,-0.55c-0.06667,0 -0.1,0.01667 -0.1,0.05c-0.06667,0.16667 -0.1,0.33333 -0.1,0.5c0,0.2 0,0.38333 0,0.55c0,0.16667 0,0.35 0,0.55c0,0.16667 0,0.33333 0,0.5c0,0.2 0,0.38333 0,0.55c0,0.16667 0,0.35 0,0.55c0,0.16667 0,0.33333 0,0.5c0,0.2 0,0.38333 0,0.55c-0.06667,0.2 -0.13333,0.38333 -0.2,0.55c-0.1,0.16667 -0.21667,0.35 -0.35,0.55c-0.16667,0.16667 -0.33333,0.33333 -0.5,0.5c-0.2,0.2 -0.38333,0.38333 -0.55,0.55c-0.16667,0.16667 -0.35,0.35 -0.55,0.55c-0.1,0.1 -0.21667,0.21667 -0.35,0.35c-0.3,0.06667 -0.6,0.13333 -0.9,0.2c-0.36667,0.1 -0.71667,0.21667 -1.05,0.35c-0.36667,0.1 -0.73333,0.21667 -1.1,0.35c-2,0.1 -4.01667,0.21667 -6.05,0.35c-0.36667,0.1 -0.73333,0.21667 -1.1,0.35c-2.83333,0 -5.68333,0 -8.55,0c-0.4,-0.13333 -0.81667,-0.23333 -1.25,-0.3c-0.76667,-0.16667 -1.53333,-0.3 -2.3,-0.4c-0.43333,-0.13333 -0.85,-0.26667 -1.25,-0.4c-0.3,-0.1 -0.6,-0.2 -0.9,-0.3c-0.43333,-0.13333 -0.85,-0.26667 -1.25,-0.4c-0.13333,-0.1 -0.25,-0.21667 -0.35,-0.35c-0.36667,-0.1 -0.73333,-0.21667 -1.1,-0.35c-0.16667,-0.16667 -0.33333,-0.35 -0.5,-0.55c-0.13333,-0.1 -0.26667,-0.21667 -0.4,-0.35c-0.03333,-0.06667 -0.1,-0.11667 -0.2,-0.15c-0.33333,-0.13333 -0.68333,-0.26667 -1.05,-0.4c-0.16667,-0.16667 -0.33333,-0.33333 -0.5,-0.5c-0.2,-0.2 -0.38333,-0.38333 -0.55,-0.55c-0.16667,-0.16667 -0.35,-0.35 -0.55,-0.55c-0.16667,-0.16667 -0.33333,-0.33333 -0.5,-0.5c-0.2,-0.2 -0.38333,-0.38333 -0.55,-0.55c-0.13333,-0.13333 -0.25,-0.25 -0.35,-0.35c-0.06667,-0.06667 -0.13333,-0.11667 -0.2,-0.15c-0.36667,-0.13333 -0.71667,-0.26667 -1.05,-0.4c-0.13333,-0.13333 -0.25,-0.25 -0.35,-0.35c0,0.16667 0,0.35 0,0.55c0,0.16667 0,0.33333 0,0.5c0,0.2 0,0.38333 0,0.55c0.1,0.16667 0.21667,0.35 0.35,0.55c0.1,0.16667 0.21667,0.33333 0.35,0.5c0,0.2 0,0.38333 0,0.55c0,0.2 0,0.38333 0,0.55c0,0.16667 0,0.35 0,0.55c0,0.16667 0,0.33333 0,0.5c-0.13333,0.2 -0.25,0.38333 -0.35,0.55c-0.13333,0.16667 -0.25,0.35 -0.35,0.55c-0.13333,0.1 -0.26667,0.21667 -0.4,0.35c-0.3,0.06667 -0.6,0.11667 -0.9,0.15c-1.06667,0.13333 -2.13333,0.26667 -3.2,0.4c-0.33333,0.1 -0.68333,0.21667 -1.05,0.35c-1.9,0 -3.8,0 -5.7,0c-0.43333,-0.13333 -0.85,-0.25 -1.25,-0.35c-1.8,0 -3.6,0 -5.4,0c-0.4,0.1 -0.81667,0.21667 -1.25,0.35c-3.66667,0.1 -7.35,0.21667 -11.05,0.35c-0.36667,0.1 -0.73333,0.2 -1.1,0.3c-0.56667,0.16667 -1.15,0.31667 -1.75,0.45c-0.36667,0.1 -0.73333,0.2 -1.1,0.3c-0.46667,0 -0.93333,0 -1.4,0c-0.43333,-0.1 -0.85,-0.21667 -1.25,-0.35c-0.13333,-0.16667 -0.25,-0.35 -0.35,-0.55c-0.23333,-0.16667 -0.48333,-0.33333 -0.75,-0.5c-0.1,-0.2 -0.21667,-0.38333 -0.35,-0.55c-0.03333,-0.16667 -0.08333,-0.35 -0.15,-0.55c-0.06667,-0.16667 -0.13333,-0.33333 -0.2,-0.5c-0.1,-0.2 -0.21667,-0.38333 -0.35,-0.55c0,-0.16667 0,-0.35 0,-0.55c-0.06667,-0.16667 -0.13333,-0.35 -0.2,-0.55c-0.03333,-0.16667 -0.08333,-0.33333 -0.15,-0.5c-0.13333,-0.2 -0.25,-0.38333 -0.35,-0.55c0,-0.16667 0,-0.35 0,-0.55c-0.06667,-0.16667 -0.13333,-0.33333 -0.2,-0.5c-0.06667,-0.2 -0.11667,-0.38333 -0.15,-0.55c-0.13333,-0.16667 -0.26667,-0.35 -0.4,-0.55c0,-0.16667 0,-0.35 0,-0.55c-0.03333,-0.16667 -0.08333,-0.33333 -0.15,-0.5c-0.06667,-0.2 -0.13333,-0.38333 -0.2,-0.55c-0.1,-0.16667 -0.21667,-0.35 -0.35,-0.55c0,-0.16667 0,-0.33333 0,-0.5c0,-0.2 0,-0.38333 0,-0.55c0,-0.16667 0,-0.35 0,-0.55c0,-0.16667 0,-0.35 0,-0.55c-0.06667,-0.16667 -0.11667,-0.33333 -0.15,-0.5c-0.13333,-0.2 -0.26667,-0.38333 -0.4,-0.55c-0.03333,-0.16667 -0.08333,-0.35 -0.15,-0.55c0,-0.16667 0,-0.33333 0,-0.5c0,-0.2 0,-0.38333 0,-0.55c0,-0.16667 0,-0.35 0,-0.55c0,-0.16667 0,-0.35 0,-0.55c0,-0.16667 0,-0.33333 0,-0.5c0,-0.2 0,-0.38333 0,-0.55c-0.06667,-0.16667 -0.13333,-0.35 -0.2,-0.55c-0.03333,-0.16667 -0.08333,-0.33333 -0.15,-0.5c-0.13333,-0.2 -0.25,-0.38333 -0.35,-0.55c0,-0.16667 0,-0.35 0,-0.55c0,-0.16667 0,-0.35 0,-0.55c0,-0.16667 0,-0.33333 0,-0.5c0,-0.36667 0,-0.73333 0,-1.1c0,-0.33333 0,-0.68333 0,-1.05c0,-0.36667 0,-0.73333 0,-1.1c0,-0.33333 0,-0.68333 0,-1.05c0,-0.53333 0,-1.06667 0,-1.6c0,-0.16667 0,-0.35 0,-0.55c-0.06667,-0.06667 -0.13333,-0.1 -0.2,-0.1c-0.23333,0 -0.46667,0.03333 -0.7,0.1c-0.43333,0.13333 -0.85,0.26667 -1.25,0.4c-0.3,0.1 -0.6,0.2 -0.9,0.3c-1.06667,0.13333 -2.13333,0.26667 -3.2,0.4c0,0.16667 0,0.33333 0,0.5c0.1,0.2 0.21667,0.38333 0.35,0.55c0.06667,0.16667 0.11667,0.35 0.15,0.55c0.06667,0.16667 0.13333,0.33333 0.2,0.5c0,0.2 0,0.38333 0,0.55c0.1,0.2 0.21667,0.38333 0.35,0.55c0.06667,0.16667 0.13333,0.35 0.2,0.55c0.03333,0.16667 0.08333,0.33333 0.15,0.5c0,0.2 0,0.38333 0,0.55c0,0.16667 0,0.35 0,0.55c0.06667,0.16667 0.13333,0.33333 0.2,0.5c0.1,0.2 0.21667,0.38333 0.35,0.55c0.06667,0.2 0.11667,0.38333 0.15,0.55c0,0.16667 0,0.35 0,0.55c0,0.16667 0,0.33333 0,0.5c0,0.2 0,0.38333 0,0.55c0.06667,0.16667 0.13333,0.35 0.2,0.55c0.06667,0.16667 0.13333,0.33333 0.2,0.5c0.03333,0.2 0.08333,0.38333 0.15,0.55c0.06667,0.2 0.13333,0.38333 0.2,0.55c0,0.16667 0,0.35 0,0.55c0,0.16667 0,0.33333 0,0.5c0.06667,0.2 0.11667,0.38333 0.15,0.55c0.13333,0.16667 0.25,0.35 0.35,0.55c0.06667,0.16667 0.13333,0.33333 0.2,0.5c0,0.2 0,0.38333 0,0.55c0,0.2 0,0.38333 0,0.55c0.06667,0.16667 0.13333,0.35 0.2,0.55c0.1,0.16667 0.21667,0.33333 0.35,0.5c0.1,0.2 0.21667,0.38333 0.35,0.55c0,0.16667 0,0.35 0,0.55c0,0.16667 0,0.33333 0,0.5c0.1,0.2 0.21667,0.38333 0.35,0.55c0.13333,0.2 0.25,0.38333 0.35,0.55c0,0.16667 0,0.35 0,0.55c0,0.16667 0,0.33333 0,0.5c-0.06667,0.2 -0.11667,0.38333 -0.15,0.55c0,0.16667 0,0.35 0,0.55c-0.13333,0.16667 -0.26667,0.33333 -0.4,0.5c-0.16667,0.2 -0.33333,0.38333 -0.5,0.55c-0.3,0.13333 -0.6,0.25 -0.9,0.35c-3.26667,0.13333 -6.53333,0.25 -9.8,0.35c-0.3,0.13333 -0.6,0.26667 -0.9,0.4c-2.56667,0.1 -5.13333,0.21667 -7.7,0.35c-0.3,0.1 -0.6,0.21667 -0.9,0.35c-7.13333,0 -14.26667,0 -21.4,0c-0.36667,-0.13333 -0.73333,-0.25 -1.1,-0.35c-2.96667,-0.06667 -5.93333,-0.13333 -8.9,-0.2c-0.43333,-0.1 -0.85,-0.21667 -1.25,-0.35c-0.13333,-0.16667 -0.25,-0.35 -0.35,-0.55c-0.26667,-0.16667 -0.51667,-0.33333 -0.75,-0.5c-0.1,-0.2 -0.21667,-0.38333 -0.35,-0.55c-0.06667,-0.16667 -0.11667,-0.35 -0.15,-0.55c-0.06667,-0.16667 -0.13333,-0.35 -0.2,-0.55c-0.13333,-0.16667 -0.25,-0.33333 -0.35,-0.5c0,-0.2 0,-0.38333 0,-0.55c0,-0.16667 0,-0.35 0,-0.55c0,-0.16667 0,-0.33333 0,-0.5c0,-0.2 0,-0.38333 0,-0.55c-0.06667,-0.16667 -0.13333,-0.35 -0.2,-0.55c-0.1,-0.16667 -0.21667,-0.35 -0.35,-0.55c-0.06667,-0.16667 -0.11667,-0.33333 -0.15,-0.5c0,-0.2 0,-0.38333 0,-0.55c0,-0.16667 0,-0.35 0,-0.55c0,-0.16667 0,-0.33333 0,-0.5c0,-0.2 0,-0.38333 0,-0.55c0,-0.16667 0,-0.35 0,-0.55c0,-0.16667 0,-0.35 0,-0.55c-0.06667,-0.16667 -0.13333,-0.33333 -0.2,-0.5c-0.06667,-0.2 -0.13333,-0.38333 -0.2,-0.55c-0.1,-0.16667 -0.21667,-0.35 -0.35,-0.55c0,-0.16667 0,-0.33333 0,-0.5c0,-0.2 0,-0.38333 0,-0.55c0,-0.16667 0,-0.35 0,-0.55c0,-0.16667 0,-0.35 0,-0.55c0,-0.16667 0,-0.33333 0,-0.5c0,-0.2 0,-0.38333 0,-0.55c0,-0.16667 0,-0.35 0,-0.55c-0.1,-0.16667 -0.21667,-0.33333 -0.35,-0.5c-0.1,-0.2 -0.21667,-0.38333 -0.35,-0.55c0,-0.16667 0,-0.35 0,-0.55c0,-0.16667 0,-0.35 0,-0.55c0,-0.16667 0,-0.33333 0,-0.5c0,-0.2 0,-0.38333 0,-0.55c0,-0.16667 0,-0.35 0,-0.55c0,-0.16667 0,-0.33333 0,-0.5c0,-0.2 0,-0.38333 0,-0.55c0,-0.16667 0,-0.35 0,-0.55c0,-0.36667 0,-0.71667 0,-1.05c0.06667,-0.2 0.13333,-0.38333 0.2,-0.55c0.03333,-0.16667 0.08333,-0.35 0.15,-0.55c0.13333,-0.16667 0.25,-0.33333 0.35,-0.5c0,-1.26667 0,-2.51667 0,-3.75c0,-2.5 0,-5 0,-7.5c0,-2.7 0,-5.38333 0,-8.05c0,-2.33333 0,-4.65 0,-6.95c0,-2.33333 0,-4.66667 0,-7c0,-0.86667 0,-1.75 0,-2.65c0,-0.73333 0,-1.45 0,-2.15c-0.03333,-0.16667 -0.08333,-0.35 -0.15,-0.55c-0.06667,-0.16667 -0.13333,-0.33333 -0.2,-0.5c-0.1,-0.2 -0.21667,-0.38333 -0.35,-0.55c0,-0.16667 0,-0.35 0,-0.55c0,-0.16667 0,-0.35 0,-0.55c0,-0.16667 0,-0.33333 0,-0.5c0,-0.2 0,-0.38333 0,-0.55c0,-0.16667 0,-0.35 0,-0.55c0,-0.16667 0,-0.33333 0,-0.5c0,-0.36667 0,-0.73333 0,-1.1c0,-0.36667 0,-0.71667 0,-1.05c0,-0.36667 0,-0.73333 0,-1.1c-0.13333,-0.16667 -0.25,-0.33333 -0.35,-0.5c-0.06667,-0.2 -0.13333,-0.38333 -0.2,-0.55c-0.03333,-0.16667 -0.08333,-0.35 -0.15,-0.55c0,-0.16667 0,-0.35 0,-0.55c0,-0.16667 0,-0.33333 0,-0.5c0,-0.2 0,-0.38333 0,-0.55c0,-0.36667 0,-0.71667 0,-1.05c0,-0.36667 0,-0.73333 0,-1.1c0,-0.53333 0,-1.06667 0,-1.6c0,-0.36667 0,-0.71667 0,-1.05c0,-0.53333 0,-1.08333 0,-1.65c0,-0.16667 0,-0.33333 0,-0.5c0.06667,-0.2 0.11667,-0.38333 0.15,-0.55c0.06667,-0.16667 0.13333,-0.35 0.2,-0.55c0.1,-0.16667 0.21667,-0.33333 0.35,-0.5c0,-0.2 0,-0.38333 0,-0.55c0,-0.16667 0,-0.35 0,-0.55c0,-0.16667 0,-0.35 0,-0.55c0,-0.33333 0,-0.68333 0,-1.05c0,-0.36667 0,-0.71667 0,-1.05c0,-0.36667 0,-0.73333 0,-1.1c0,-0.36667 0,-0.71667 0,-1.05c0,-0.53333 0,-1.06667 0,-1.6c0,-0.2 0,-0.38333 0,-0.55c0.13333,-0.16667 0.25,-0.35 0.35,-0.55c0.06667,-0.16667 0.13333,-0.35 0.2,-0.55c0.06667,-0.16667 0.11667,-0.33333 0.15,-0.5c0,-0.2 0,-0.38333 0,-0.55c0,-0.16667 0,-0.35 0,-0.55c0,-0.16667 0,-0.33333 0,-0.5c0,-0.2 0,-0.38333 0,-0.55c0,-0.16667 0,-0.35 0,-0.55c0,-0.16667 0,-0.35 0,-0.55c0,-0.16667 0,-0.33333 0,-0.5c0,-0.2 0,-0.38333 0,-0.55c0,-0.36667 0,-0.71667 0,-1.05c0.13333,-0.2 0.25,-0.38333 0.35,-0.55c0.13333,-0.16667 0.26667,-0.35 0.4,-0.55c0.16667,-0.16667 0.33333,-0.33333 0.5,-0.5c0.2,-0.13333 0.38333,-0.26667 0.55,-0.4c0.3,-0.1 0.6,-0.21667 0.9,-0.35c0.16667,-0.16667 0.35,-0.33333 0.55,-0.5c0.16667,-0.13333 0.33333,-0.26667 0.5,-0.4c0.06667,-0.03333 0.13333,-0.08333 0.2,-0.15c0.3,-0.13333 0.6,-0.25 0.9,-0.35c0.16667,-0.2 0.33333,-0.38333 0.5,-0.55c0.2,-0.13333 0.38333,-0.25 0.55,-0.35c0.06667,-0.06667 0.13333,-0.13333 0.2,-0.2c0.3,-0.1 0.6,-0.21667 0.9,-0.35c0.16667,-0.1 0.33333,-0.21667 0.5,-0.35c0.3,-0.06667 0.6,-0.13333 0.9,-0.2c0.3,-0.1 0.6,-0.2 0.9,-0.3c0.43333,-0.13333 0.85,-0.25 1.25,-0.35c0.53333,-0.13333 1.06667,-0.26667 1.6,-0.4c1.2,-0.23333 2.38333,-0.48333 3.55,-0.75c0.43333,-0.1 0.86667,-0.2 1.3,-0.3c1.23333,-0.13333 2.48333,-0.26667 3.75,-0.4c0.4,-0.1 0.81667,-0.21667 1.25,-0.35c0.23333,0 0.46667,0 0.7,0c1.3,-0.06667 2.6,-0.11667 3.9,-0.15c0.36667,-0.13333 0.73333,-0.25 1.1,-0.35c1.3,-0.13333 2.6,-0.26667 3.9,-0.4c0.36667,-0.1 0.73333,-0.21667 1.1,-0.35c7.86667,0.06667 15.71667,0.13333 23.55,0.2c0.23333,0.06667 0.46667,0.11667 0.7,0.15c0.3,0.13333 0.6,0.26667 0.9,0.4c0.2,0.1 0.38333,0.21667 0.55,0.35c0.3,0.1 0.6,0.21667 0.9,0.35c0.1,0.16667 0.21667,0.35 0.35,0.55c0.16667,0.16667 0.35,0.33333 0.55,0.5c0.4,0.2 0.81667,0.38333 1.25,0.55c0.06667,0.16667 0.11667,0.35 0.15,0.55c0.13333,0.1 0.25,0.21667 0.35,0.35c0.56667,-0.06667 1.11667,-0.13333 1.65,-0.2c0.4,-0.1 0.81667,-0.21667 1.25,-0.35c1.23333,-0.1 2.48333,-0.21667 3.75,-0.35c0.4,-0.13333 0.81667,-0.23333 1.25,-0.3c0.76667,-0.16667 1.53333,-0.31667 2.3,-0.45c0.43333,-0.1 0.85,-0.2 1.25,-0.3c3.63333,-0.13333 7.26667,-0.26667 10.9,-0.4c0.4,-0.1 0.81667,-0.21667 1.25,-0.35c1.9,0 3.8,0 5.7,0c0.43333,0.13333 0.85,0.25 1.25,0.35c3.4,0.13333 6.8,0.26667 10.2,0.4c0.33333,0.1 0.68333,0.21667 1.05,0.35c0.83333,0.1 1.66667,0.21667 2.5,0.35c0.43333,0.1 0.85,0.21667 1.25,0.35c1,0.13333 2.01667,0.25 3.05,0.35c0.36667,0.13333 0.71667,0.25 1.05,0.35c1.33333,0.13333 2.65,0.25 3.95,0.35c0.4,0.13333 0.81667,0.26667 1.25,0.4c1.23333,0.1 2.48333,0.21667 3.75,0.35c0.4,0.1 0.81667,0.21667 1.25,0.35c1.23333,0.1 2.48333,0.21667 3.75,0.35c0.4,0.13333 0.81667,0.23333 1.25,0.3c0.76667,0.16667 1.53333,0.3 2.3,0.4c0.36667,0.13333 0.73333,0.25 1.1,0.35c0.56667,0.13333 1.15,0.26667 1.75,0.4c0.36667,0.1 0.73333,0.21667 1.1,0.35c0.16667,0.1 0.33333,0.21667 0.5,0.35c0.3,0.1 0.6,0.21667 0.9,0.35c0.13333,0.13333 0.25,0.25 0.35,0.35c0.36667,0.13333 0.73333,0.25 1.1,0.35c0.16667,0.13333 0.35,0.25 0.55,0.35c0.3,0.13333 0.58333,0.26667 0.85,0.4c0.2,0.16667 0.38333,0.33333 0.55,0.5c0.23333,0 0.46667,0 0.7,0c0,-0.16667 0,-0.33333 0,-0.5c0,-0.2 0,-0.38333 0,-0.55c0,-0.2 0,-0.38333 0,-0.55c0,-0.16667 0,-0.35 0,-0.55c0,-0.16667 0,-0.33333 0,-0.5c0,-0.2 0,-0.38333 0,-0.55c0,-0.16667 0,-0.35 0,-0.55c0.13333,-0.16667 0.26667,-0.33333 0.4,-0.5c0.1,-0.2 0.21667,-0.38333 0.35,-0.55c0.16667,-0.2 0.33333,-0.38333 0.5,-0.55c0.2,-0.16667 0.38333,-0.35 0.55,-0.55c0.2,-0.1 0.38333,-0.21667 0.55,-0.35c0.06667,-0.06667 0.13333,-0.1 0.2,-0.1c0.26667,-0.1 0.55,-0.18333 0.85,-0.25c0.53333,-0.1 1.06667,-0.21667 1.6,-0.35c0.43333,-0.13333 0.85,-0.25 1.25,-0.35c8.4,-0.13333 16.8,-0.25 25.2,-0.35c0.4,-0.13333 0.81667,-0.25 1.25,-0.35c2.2,-0.13333 4.4,-0.26667 6.6,-0.4c0.43333,-0.1 0.85,-0.21667 1.25,-0.35c2.43333,-0.1 4.88333,-0.21667 7.35,-0.35c0.4,-0.1 0.8,-0.21667 1.2,-0.35c2.16667,0 4.31667,0 6.45,0c0.36667,0.13333 0.71667,0.25 1.05,0.35c0.13333,0.13333 0.26667,0.25 0.4,0.35c0.33333,0 0.68333,0 1.05,0c0.16667,-0.1 0.35,-0.21667 0.55,-0.35c0.16667,-0.16667 0.33333,-0.35 0.5,-0.55c0.2,-0.16667 0.38333,-0.33333 0.55,-0.5c0.2,-0.13333 0.38333,-0.25 0.55,-0.35c0.06667,-0.06667 0.13333,-0.11667 0.2,-0.15c0.26667,-0.1 0.55,-0.18333 0.85,-0.25c0.5,0 0.98333,0 1.45,0c0.36667,0.13333 0.71667,0.26667 1.05,0.4c2.33333,0 4.66667,0 7,0c0.4,-0.13333 0.81667,-0.26667 1.25,-0.4c5.53333,-0.1 11.06667,-0.21667 16.6,-0.35c0.4,-0.1 0.81667,-0.21667 1.25,-0.35c1.7,-0.1 3.41667,-0.21667 5.15,-0.35c0.43333,-0.13333 0.85,-0.25 1.25,-0.35c2.43333,-0.13333 4.88333,-0.25 7.35,-0.35z" fill="#ffffff"/><path d="M460.6024,327.70631c1.26667,5.8 1.95,11.6 2.05,17.4c-3.26667,1.23333 -6.8,1.88333 -10.6,1.95c-7.16667,0.16667 -14.26667,0.8 -21.3,1.9l1.4,7.7l15.95,-2.5c1.36667,1.53333 2.3,3.3 2.8,5.3c0.86667,3.5 1.56667,7.05 2.1,10.65c0.43333,2.73333 0.16667,5.23333 -0.8,7.5l-17.85,2.3l5.05,23.8l-2,1.7l-25,1.75l-2.85,-5.15l-0.75,0.55c-0.56667,-1.33333 -1,-2.66667 -1.3,-4c-1.56667,-7.26667 -2.25,-14.61667 -2.05,-22.05c0.03333,-1.5 0.03333,-3 0,-4.5c-0.43333,-13.33333 -1.2,-26.68333 -2.3,-40.05c-0.13333,-1.43333 -0.33333,-2.83333 -0.6,-4.2c-0.53333,-2.73333 -0.33333,-5.11667 0.6,-7.15c0.1,-0.03333 0.16667,-0.03333 0.2,0c0.4,0.4 0.76667,0.83333 1.1,1.3c0.26667,-0.13333 0.53333,-0.25 0.8,-0.35c8.6,-3.2 17.53333,-5.33333 26.8,-6.4c8.5,-0.83333 17,-0.55 25.5,0.85c1.06667,1.1 1.68333,2.41667 1.85,3.95c0.26667,2.63333 0.66667,5.21667 1.2,7.75M524.9024,328.95631c3.33333,4.83333 3.91667,10 1.75,15.5c-1.9,4.9 -4.61667,9.3 -8.15,13.2c-2.2,2.5 -4.66667,4.66667 -7.4,6.5c6.73333,7.56667 12.65,15.73333 17.75,24.5c1.76667,3 3.2,6.13333 4.3,9.4c0.86667,2.6 -0.11667,4.11667 -2.95,4.55c-0.63333,0.13333 -1.26667,0.26667 -1.9,0.4c-6.66667,0.96667 -13.28333,1.28333 -19.85,0.95c-0.13333,-0.06667 -0.25,-0.15 -0.35,-0.25c-2.33333,-1.66667 -4.36667,-3.76667 -6.1,-6.3c-3.56667,-5.16667 -7.1,-10.35 -10.6,-15.55c-0.96667,-1.4 -1.78333,-2.25 -2.45,-2.55c-0.23333,2.16667 -0.13333,4.4 0.3,6.7c0.86667,4.6 1.85,9.3 2.95,14.1c0.16667,0.66667 0,1.25 -0.5,1.75c-0.2,0.1 -0.4,0.2 -0.6,0.3c-1.6,0.56667 -3.25,0.83333 -4.95,0.8c-5.83333,-0.13333 -11.53333,0.78333 -17.1,2.75c-1.26667,0.4 -2.4,0.21667 -3.4,-0.55c-0.33333,-0.73333 -0.51667,-1.5 -0.55,-2.3c-0.2,-9.66667 -0.55,-19.3 -1.05,-28.9c-0.16667,-2.8 -0.15,-5.61667 0.05,-8.45c1.03333,-14.3 1.36667,-28.63333 1,-43c-0.03333,-1.1 0.01667,-2.18333 0.15,-3.25l2.3,0.6c7.23333,-1.43333 14.61667,-2.28333 22.15,-2.55c9.03333,-0.7 17.63333,0.73333 25.8,4.3c3.33333,1.56667 6.21667,3.68333 8.65,6.35c0.26667,0.3 0.51667,0.63333 0.75,1M488.1024,349.40631c3.73333,-0.4 7.41667,-1.06667 11.05,-2c3.16667,-0.9 4.7,-2.86667 4.6,-5.9c-0.03333,-0.96667 -0.46667,-1.68333 -1.3,-2.15c-5,-2.9 -10.36667,-3.45 -16.1,-1.65l-0.2,0.7l1.95,11M586.3024,349.40631l-30.3,4.1c0.1,1.6 0.28333,3.21667 0.55,4.85c0.13333,0.93333 0.65,1.68333 1.55,2.25c2.53333,-0.33333 4.91667,-0.85 7.15,-1.55c3.06667,-0.96667 6.13333,-1.2 9.2,-0.7c1,1.23333 1.63333,2.66667 1.9,4.3c0.26667,1.5 0.6,2.98333 1,4.45c0.66667,2.36667 0.41667,4.53333 -0.75,6.5l-17.35,3.35l2.25,4.9c1.8,-0.16667 3.58333,-0.35 5.35,-0.55c7.1,-1.26667 14.18333,-2.03333 21.25,-2.3c0.33333,0.4 0.63333,0.83333 0.9,1.3c2.76667,5.36667 3.9,11.11667 3.4,17.25c-0.06667,0.9 -0.5,1.56667 -1.3,2c-1.6,0.56667 -3.16667,0.86667 -4.7,0.9c-10.66667,0.2 -21.36667,0.71667 -32.1,1.55c-0.66667,0.06667 -1.33333,0.15 -2,0.25c-2.53333,0.53333 -5.13333,0.88333 -7.8,1.05c-2.86667,0.33333 -4.76667,-0.88333 -5.7,-3.65c-2.86667,-8.4 -4.16667,-17.05 -3.9,-25.95c0.43333,-15.43333 -0.08333,-30.71667 -1.55,-45.85c0.26667,-0.83333 0.83333,-1.33333 1.7,-1.5c4.73333,-1.33333 9.58333,-2.06667 14.55,-2.2c1.9,-0.03333 3.78333,-0.26667 5.65,-0.7c8.66667,-1.93333 17.45,-2.96667 26.35,-3.1c2.8,1.43333 4.26667,3.68333 4.4,6.75c0.33333,7.43333 0.43333,14.86667 0.3,22.3M646.8024,346.25631c-4.63333,1.1 -9.5,1.61667 -14.6,1.55c-4.3,0.36667 -8.56667,0.86667 -12.8,1.5c-0.73333,0.1 -1.43333,0.33333 -2.1,0.7l0.65,4.95c3.76667,0.3 7.45,-0.1 11.05,-1.2c1.33333,-0.4 2.7,-0.65 4.1,-0.75c4.13333,-0.63333 6.33333,1.11667 6.6,5.25c0.23333,4.1 0.3,8.11667 0.2,12.05l-20.95,2.15l0.65,3.5c0.43333,0.13333 0.86667,0.28333 1.3,0.45c9.1,-0.73333 18.18333,-0.73333 27.25,0c1.96667,0.3 3.18333,1.43333 3.65,3.4c0.9,3.96667 1.96667,7.95 3.2,11.95c0.3,0.93333 0.51667,1.93333 0.65,3c0.2,1.3 -0.33333,2.08333 -1.6,2.35c-17.16667,1.7 -34.4,2.86667 -51.7,3.5c-2.26667,-1.96667 -3.58333,-4.48333 -3.95,-7.55c-0.23333,-1.93333 -0.43333,-3.88333 -0.6,-5.85c-0.36667,-4.83333 -0.6,-9.63333 -0.7,-14.4c-0.06667,-3.23333 -0.2,-6.43333 -0.4,-9.6c-0.63333,-9.36667 -0.9,-18.73333 -0.8,-28.1c0,-1.73333 -0.43333,-3.31667 -1.3,-4.75c-1,-1.53333 -1.85,-2.9 -2.55,-4.1c1.56667,-1.83333 3.5,-2.98333 5.8,-3.45c3.83333,-0.83333 7.7,-1.58333 11.6,-2.25c8.4,-1.1 16.78333,-1.9 25.15,-2.4c3,-0.26667 5.76667,0.38333 8.3,1.95c1.43333,0.83333 2.15,2.08333 2.15,3.75c-0.03333,5.46667 0.6,10.83333 1.9,16.1c0.6,2.4 0.55,4.5 -0.15,6.3M736.7024,318.75631c4.7,6.76667 5.43333,13.9 2.2,21.4c-3.03333,6.86667 -7.56667,12.35 -13.6,16.45c4.43333,-1.86667 8.85,-3.9 13.25,-6.1c0.76667,-0.43333 1.63333,-0.5 2.6,-0.2c1.1,0.4 1.63333,1.21667 1.6,2.45c-0.3,10.36667 -0.43333,20.75 -0.4,31.15l23.9,-4.2c1.76667,0.86667 2.63333,2.4 2.6,4.6c-0.03333,1.56667 0.05,3.13333 0.25,4.7c0.5,3.66667 -0.08333,6.85 -1.75,9.55h-2.15c-0.53333,0.56667 -1.2,0.91667 -2,1.05c-7.26667,0.93333 -14.51667,1.46667 -21.75,1.6c-1.7,0.16667 -3.4,0.36667 -5.1,0.6c-4.9,0.63333 -9.81667,1.1 -14.75,1.4c-1.43333,-2.46667 -2.38333,-5.08333 -2.85,-7.85c-1.6,-9.46667 -2.06667,-19.03333 -1.4,-28.7c0.16667,-2.56667 0.96667,-4.85 2.4,-6.85l-11.55,2.05c0.33333,0.76667 0.55,1.53333 0.65,2.3c0.96667,7.4 2.11667,14.76667 3.45,22.1c0.23333,1.23333 0.56667,2.45 1,3.65c1.4,3.8 0.85,7.05 -1.65,9.75c-2,0.33333 -4.05,0.6 -6.15,0.8c-3.53333,0.4 -7.01667,0.96667 -10.45,1.7c-4.5,0.96667 -8.91667,1.08333 -13.25,0.35c-1.56667,-0.23333 -2.38333,-1.15 -2.45,-2.75c-0.1,-1.73333 -0.23333,-3.43333 -0.4,-5.1c-0.4,-4.46667 -0.58333,-8.9 -0.55,-13.3c0.03333,-10.6 0.18333,-21.21667 0.45,-31.85l-10.8,1.8c-2.1,-1.16667 -3,-2.91667 -2.7,-5.25c0.1,-0.86667 0.11667,-1.76667 0.05,-2.7c-0.83333,-10.2 -0.73333,-20.41667 0.3,-30.65h0.8c0,-0.36667 0.08333,-0.63333 0.25,-0.8c2.36667,-1.86667 5.06667,-2.93333 8.1,-3.2c8.8,-1.1 17.68333,-1.78333 26.65,-2.05c9.16667,-0.26667 17.93333,1.35 26.3,4.85c3.66667,1.53333 6.63333,3.95 8.9,7.25M702.0024,342.90631c3.26667,-0.56667 6.05,-1.98333 8.35,-4.25c1.4,-1.4 2.25,-3 2.55,-4.8c0.2,-1.2 -0.2,-2.13333 -1.2,-2.8c-3.66667,-2.3 -7.73333,-3.1 -12.2,-2.4l0.35,13.5c0.03333,0.66667 0.75,0.91667 2.15,0.75M809.8024,392.90631c-0.86667,1.5 -2.25,2.45 -4.15,2.85c-1.26667,0.3 -2.58333,0.63333 -3.95,1c-4.56667,-0.06667 -9.13333,-0.11667 -13.7,-0.15c-0.66667,-0.3 -1.26667,-0.6 -1.8,-0.9c-2.23333,-1.5 -3.55,-3.71667 -3.95,-6.65c-1.03333,-7.13333 -1.78333,-14.25 -2.25,-21.35l-5.7,0.25c0.23333,4.16667 -1.13333,7.58333 -4.1,10.25l-17.85,1.3l-1.9,-2.55c2.26667,-12.86667 5.85,-25.33333 10.75,-37.4l-0.65,-0.9c2.03333,-1.6 3.16667,-3.66667 3.4,-6.2c0.6,-0.8 1.33333,-1.31667 2.2,-1.55c6.23333,-0.03333 12.48333,0.28333 18.75,0.95c1.8,0.03333 3.56667,-0.11667 5.3,-0.45c3.6,-0.63333 6.4,0.41667 8.4,3.15c0.13333,3.46667 0.58333,6.83333 1.35,10.1c1.53333,6.7 2.85,13.43333 3.95,20.2c1.5,9.16667 3.58333,18.23333 6.25,27.2c-0.06667,0.3 -0.18333,0.58333 -0.35,0.85M778.0524,347.85631l-1.05,4.45h5.7l0.15,-0.8c-0.93333,-2.33333 -2.53333,-3.55 -4.8,-3.65M867.9024,323.10631c0,0.3 -0.06667,0.55 -0.2,0.75c-8.43333,12.4 -17.6,24.25 -27.5,35.55c2.7,12.56667 3.76667,25.33333 3.2,38.3c-1.86667,1.46667 -4.05,2.2 -6.55,2.2c-6.5,0.03333 -12.96667,-0.25 -19.4,-0.85c-2.73333,-0.3 -4.25,-1.93333 -4.55,-4.9c-0.23333,-2.03333 -0.25,-4.18333 -0.05,-6.45c0.96667,-11.46667 1.6,-22.91667 1.9,-34.35c-4.33333,-6.03333 -8.15,-12.41667 -11.45,-19.15c-2.2,-4.46667 -4.53333,-8.78333 -7,-12.95c-1.3,-2.16667 -1.76667,-4.45 -1.4,-6.85c0.2,-0.23333 0.41667,-0.43333 0.65,-0.6c1.83333,-0.96667 3.71667,-1.73333 5.65,-2.3c5.3,-1.5 10.66667,-2.65 16.1,-3.45c2.43333,-0.13333 4.21667,0.83333 5.35,2.9c3.7,6.9 6.21667,14.33333 7.55,22.3l0.9,0.85c2.96667,-3.56667 5.56667,-7.4 7.8,-11.5c2.73333,-5.06667 6.06667,-9.5 10,-13.3c0.06667,-0.03333 0.13333,-0.05 0.2,-0.05c4.16667,1.16667 7.86667,3.31667 11.1,6.45z" fill="#000000"/></g></g></svg>