<svg version="1.1" xmlns="http://www.w3.org/2000/svg" xmlns:xlink="http://www.w3.org/1999/xlink" width="43.55" height="58.58484" viewBox="0,0,43.55,58.58484"><g transform="translate(-608.10811,-343.83444)"><g data-paper-data="{&quot;isPaintingLayer&quot;:true}" fill-rule="nonzero" stroke="none" stroke-width="1" stroke-linecap="butt" stroke-linejoin="miter" stroke-miterlimit="10" stroke-dasharray="" stroke-dashoffset="0" style="mix-blend-mode: normal"><path d="M650.95811,355.29384c0,1 0,1.98333 0,2.95c0.03333,0.1 0.05,0.18333 0.05,0.25c0.03333,0.1 0.06667,0.2 0.1,0.3c0.06667,0.16667 0.13333,0.33333 0.2,0.5c0,0.56667 0,1.1 0,1.6c0,0.83333 0,1.65 0,2.45c0,0.06667 0,0.15 0,0.25c0.03333,0.1 0.06667,0.18333 0.1,0.25c0,0.1 0.01667,0.2 0.05,0.3c0.06667,0.16667 0.13333,0.33333 0.2,0.5c0,0.36667 0,0.73333 0,1.1c0,0.53333 0,1.06667 0,1.6c0,0.16667 0,0.35 0,0.55c-0.03333,0.06667 -0.06667,0.15 -0.1,0.25c-0.03333,0.1 -0.06667,0.18333 -0.1,0.25c-0.03333,0.2 -0.08333,0.38333 -0.15,0.55c0,0.8 0,1.6 0,2.4c0,1 0,1.98333 0,2.95c-0.03333,0.1 -0.06667,0.2 -0.1,0.3c-0.03333,0.06667 -0.06667,0.15 -0.1,0.25c-0.06667,0.16667 -0.11667,0.35 -0.15,0.55c0,0.43333 0,0.88333 0,1.35c0,0.6 0,1.21667 0,1.85c0,0.1 0,0.18333 0,0.25c-0.03333,0.1 -0.06667,0.2 -0.1,0.3c-0.03333,0.06667 -0.06667,0.15 -0.1,0.25c-0.06667,0.16667 -0.11667,0.35 -0.15,0.55c-0.03333,0.23333 -0.03333,0.5 0,0.8c0,0.46667 -0.06667,0.91667 -0.2,1.35c-0.06667,0.16667 -0.13333,0.33333 -0.2,0.5c0,0.1 0,0.2 0,0.3c0,0.16667 0,0.33333 0,0.5c0,0.2 0,0.38333 0,0.55c-0.03333,0.1 -0.05,0.2 -0.05,0.3c-0.03333,0.06667 -0.06667,0.15 -0.1,0.25c-0.03333,0.1 -0.06667,0.18333 -0.1,0.25c-0.4,2.73333 -1.26667,5.33333 -2.6,7.8c-1,1.83333 -2.3,3.43333 -3.9,4.8c-2.13333,1.7 -4.5,2.93333 -7.1,3.7c-0.4,0.13333 -0.8,0.23333 -1.2,0.3c-7.13333,2.03333 -13.86667,1.18333 -20.2,-2.55c-0.1,-0.1 -0.18333,-0.2 -0.25,-0.3c-0.06667,-0.06667 -0.13333,-0.15 -0.2,-0.25c-0.1,-0.1 -0.18333,-0.2 -0.25,-0.3c-0.03333,-0.06667 -0.06667,-0.15 -0.1,-0.25c-0.03333,-0.1 -0.06667,-0.18333 -0.1,-0.25c-0.2,-0.3 -0.43333,-0.58333 -0.7,-0.85c-0.36667,-0.33333 -0.71667,-0.68333 -1.05,-1.05c-0.06667,-0.06667 -0.13333,-0.15 -0.2,-0.25c-0.1,-0.16667 -0.2,-0.33333 -0.3,-0.5c-0.13333,-0.2 -0.26667,-0.4 -0.4,-0.6c-0.13333,-0.36667 -0.26667,-0.71667 -0.4,-1.05c-0.16667,-0.6 -0.43333,-1.13333 -0.8,-1.6c0,-0.16667 -0.01667,-0.35 -0.05,-0.55c-0.06667,-0.36667 -0.18333,-0.71667 -0.35,-1.05c-0.06667,-0.2 -0.16667,-0.38333 -0.3,-0.55c-0.06667,-0.26667 -0.15,-0.51667 -0.25,-0.75c-0.2,-0.43333 -0.3,-0.9 -0.3,-1.4c0,-0.16667 0,-0.33333 0,-0.5c0,-0.1 -0.01667,-0.2 -0.05,-0.3c-0.03333,-0.1 -0.06667,-0.18333 -0.1,-0.25c-0.03333,-0.1 -0.06667,-0.2 -0.1,-0.3c0,-0.16667 0,-0.33333 0,-0.5c0,-0.3 0,-0.56667 0,-0.8c0,-0.2 0,-0.38333 0,-0.55c-0.03333,-0.1 -0.06667,-0.18333 -0.1,-0.25c-0.03333,-0.1 -0.05,-0.2 -0.05,-0.3c-0.06667,-0.16667 -0.13333,-0.33333 -0.2,-0.5c0,-1.8 0,-3.6 0,-5.4c-0.03333,-1.7 0,-3.38333 0.1,-5.05c-0.1,-0.2 -0.16667,-0.38333 -0.2,-0.55c-0.1,-0.26667 -0.15,-0.53333 -0.15,-0.8c0,-0.2 0,-0.38333 0,-0.55c0.5,-2.16667 0.73333,-4.4 0.7,-6.7c-0.03333,-1.96667 -0.03333,-3.93333 0,-5.9c0.06667,-0.23333 0.13333,-0.46667 0.2,-0.7c-0.03333,-0.66667 -0.06667,-1.31667 -0.1,-1.95c-0.03333,-0.9 -0.06667,-1.8 -0.1,-2.7c-0.03333,-0.06667 -0.06667,-0.15 -0.1,-0.25c-0.03333,-0.1 -0.06667,-0.18333 -0.1,-0.25c0,-0.1 0,-0.2 0,-0.3c0,-0.26667 0,-0.53333 0,-0.8c0.03333,-0.46667 0.01667,-0.91667 -0.05,-1.35c-0.03333,-0.26667 -0.06667,-0.53333 -0.1,-0.8c0,-1.6 0.66667,-2.75 2,-3.45c0.03333,0 0.06667,0 0.1,0c0.03333,-0.1 0.06667,-0.2 0.1,-0.3c0.1,-0.06667 0.2,-0.13333 0.3,-0.2c0.3,-0.1 0.58333,-0.2 0.85,-0.3h0.05c0.16667,0.03333 0.33333,0.08333 0.5,0.15c0.63333,-0.16667 1.3,-0.25 2,-0.25c2.13333,0.03333 4.15,-0.11667 6.05,-0.45c3.13333,-0.83333 5.3,0.01667 6.5,2.55c0.36667,0.76667 0.55,1.61667 0.55,2.55c-0.06667,2.5 -0.1,5 -0.1,7.5c-0.03333,0.06667 -0.05,0.15 -0.05,0.25c-0.03333,0.1 -0.06667,0.18333 -0.1,0.25c-0.03333,0.1 -0.06667,0.2 -0.1,0.3c-0.03333,0.06667 -0.06667,0.15 -0.1,0.25c0,0.26667 0,0.53333 0,0.8c0,1.23333 0.03333,2.48333 0.1,3.75c0.06667,1.2 -0.08333,2.36667 -0.45,3.5c0,0.06667 0,0.15 0,0.25c0,0.1 0,0.18333 0,0.25c0,0.1 0,0.2 0,0.3c0,0.06667 0,0.15 0,0.25c0,0.16667 0,0.35 0,0.55c0.03333,0.1 0.06667,0.18333 0.1,0.25c0.1,0.36667 0.16667,0.73333 0.2,1.1c0.03333,0.53333 0.05,1.06667 0.05,1.6c0,0.23333 0,0.5 0,0.8c0.03333,0.06667 0.06667,0.15 0.1,0.25c0.03333,0.1 0.06667,0.2 0.1,0.3c0.03333,0.06667 0.06667,0.15 0.1,0.25c0,0.1 0.01667,0.18333 0.05,0.25c0,0.1 0,0.2 0,0.3c0,0.06667 0,0.15 0,0.25c0,0.1 0,0.18333 0,0.25c0,0.1 0,0.2 0,0.3c0,0.16667 0,0.33333 0,0.5c0.03333,0.1 0.06667,0.2 0.1,0.3c0.13333,0.23333 0.21667,0.5 0.25,0.8c0.06667,0.53333 0.18333,1.06667 0.35,1.6c0.1,0.26667 0.2,0.53333 0.3,0.8c0.06667,0.1 0.13333,0.18333 0.2,0.25c0.1,0.1 0.21667,0.2 0.35,0.3c0.06667,0.06667 0.15,0.11667 0.25,0.15c0.13333,0.03333 0.25,0.05 0.35,0.05c0.16667,0 0.35,-0.01667 0.55,-0.05c0.13333,-0.06667 0.28333,-0.15 0.45,-0.25c0.06667,-0.1 0.11667,-0.2 0.15,-0.3c0.03333,-0.06667 0.06667,-0.15 0.1,-0.25c0.03333,-0.06667 0.06667,-0.15 0.1,-0.25c0.03333,-0.1 0.06667,-0.18333 0.1,-0.25c0.03333,-0.1 0.1,-0.2 0.2,-0.3c0.06667,-0.1 0.15,-0.18333 0.25,-0.25c0.06667,-0.1 0.15,-0.2 0.25,-0.3c0.03333,-0.06667 0.06667,-0.15 0.1,-0.25c0.03333,-0.1 0.06667,-0.18333 0.1,-0.25c0,-0.1 0.01667,-0.2 0.05,-0.3c0.03333,-0.06667 0.06667,-0.15 0.1,-0.25c0,-0.1 0,-0.18333 0,-0.25c0.03333,-0.3 0.08333,-0.56667 0.15,-0.8c0.13333,-0.36667 0.23333,-0.73333 0.3,-1.1c0.1,-0.26667 0.18333,-0.53333 0.25,-0.8c0,-0.1 0,-0.18333 0,-0.25c0,-0.3 0,-0.56667 0,-0.8c0,-0.46667 0.01667,-0.91667 0.05,-1.35c0.03333,-0.36667 0.05,-0.73333 0.05,-1.1c0.03333,-0.06667 0.06667,-0.15 0.1,-0.25c0.03333,-0.1 0.06667,-0.18333 0.1,-0.25c0.03333,-0.1 0.06667,-0.2 0.1,-0.3c0,-0.06667 0.01667,-0.15 0.05,-0.25c0,-2.4 0.01667,-4.81667 0.05,-7.25c0,-4.03333 -0.01667,-8.05 -0.05,-12.05c0,-0.43333 0.06667,-0.86667 0.2,-1.3c0.06667,-0.1 0.11667,-0.2 0.15,-0.3c0.16667,-0.3 0.38333,-0.55 0.65,-0.75c0.56667,-0.46667 1.21667,-0.71667 1.95,-0.75c0.2,0.03333 0.38333,0.06667 0.55,0.1c0.4,0.1 0.78333,0.21667 1.15,0.35c0.1,0.03333 0.2,0.06667 0.3,0.1c2.13333,-0.03333 4.26667,-0.08333 6.4,-0.15c0.16667,0 0.35,-0.01667 0.55,-0.05c0.16667,0.03333 0.33333,0.08333 0.5,0.15c0.06667,0.03333 0.15,0.06667 0.25,0.1c0.06667,-0.06667 0.15,-0.1 0.25,-0.1c0.36667,-0.13333 0.75,-0.25 1.15,-0.35c1.23333,0.16667 2.15,0.8 2.75,1.9c0.23333,0.4 0.41667,0.85 0.55,1.35c0,0.7 0.01667,1.4 0.05,2.1c0.06667,0.9 0.08333,1.8 0.05,2.7c0.26667,0.7 0.38333,1.41667 0.35,2.15M644.75811,355.54384c0,-0.06667 -0.01667,-0.15 -0.05,-0.25c-0.06667,-0.16667 -0.13333,-0.35 -0.2,-0.55c0,-0.7 0,-1.41667 0,-2.15c0,-0.3 0,-0.6 0,-0.9c-1.86667,0.03333 -3.71667,0.06667 -5.55,0.1c0.13333,1.7 0.18333,3.4 0.15,5.1c-0.03333,3.3 -0.05,6.6 -0.05,9.9c0,0.63333 0,1.26667 0,1.9c-0.03333,0.1 -0.06667,0.18333 -0.1,0.25c0,0.1 -0.01667,0.2 -0.05,0.3c-0.03333,0.06667 -0.06667,0.15 -0.1,0.25c-0.03333,0.1 -0.05,0.18333 -0.05,0.25c0.06667,0.26667 0.1,0.53333 0.1,0.8c0,0.46667 -0.03333,0.91667 -0.1,1.35c-0.03333,0.36667 -0.05,0.73333 -0.05,1.1c-0.03333,0.06667 -0.06667,0.15 -0.1,0.25c-0.03333,0.1 -0.06667,0.18333 -0.1,0.25c0,0.1 -0.01667,0.2 -0.05,0.3c0,0.06667 0,0.15 0,0.25c0,0.1 0,0.18333 0,0.25c0,0.1 0,0.2 0,0.3c-0.73333,4.73333 -3.28333,7.88333 -7.65,9.45c-1.13333,0.43333 -2.26667,0.41667 -3.4,-0.05c-3.6,-1.5 -5.63333,-4.31667 -6.1,-8.45c0,-0.06667 0,-0.15 0,-0.25c0,-0.1 0,-0.18333 0,-0.25c0,-0.1 0,-0.2 0,-0.3c0,-0.16667 0,-0.33333 0,-0.5c0,-0.2 0,-0.38333 0,-0.55c-0.03333,-0.1 -0.06667,-0.2 -0.1,-0.3c-0.03333,-0.06667 -0.06667,-0.15 -0.1,-0.25c-0.03333,-0.1 -0.05,-0.18333 -0.05,-0.25c-0.03333,-0.1 -0.06667,-0.2 -0.1,-0.3c0,-0.06667 0,-0.15 0,-0.25c0,-0.16667 0,-0.35 0,-0.55c0,-0.26667 0,-0.53333 0,-0.8c0,-0.33333 0,-0.68333 0,-1.05c-0.06667,-0.2 -0.11667,-0.38333 -0.15,-0.55c-0.2,-0.86667 -0.31667,-1.75 -0.35,-2.65c-0.03333,-1.3 0.13333,-2.55 0.5,-3.75c0,-0.1 0,-0.2 0,-0.3c0,-0.8 0,-1.6 0,-2.4c0,-1.26667 0,-2.51667 0,-3.75c0,-0.1 0,-0.18333 0,-0.25c0.03333,-0.1 0.06667,-0.2 0.1,-0.3c0,-0.06667 0.01667,-0.15 0.05,-0.25c0.03333,-0.1 0.06667,-0.18333 0.1,-0.25c0.03333,-0.1 0.06667,-0.2 0.1,-0.3c0,-0.06667 0,-0.15 0,-0.25c0,-0.46667 0,-0.91667 0,-1.35c0,-0.7 0,-1.41667 0,-2.15c0,-0.26667 0,-0.53333 0,-0.8c-1.4,-0.26667 -3.13333,-0.38333 -5.2,-0.35c-0.9,0.03333 -1.8,0.08333 -2.7,0.15c0.03333,1.06667 0.06667,2.15 0.1,3.25c0.06667,1.5 0.13333,3.01667 0.2,4.55c-0.03333,0.1 -0.06667,0.18333 -0.1,0.25c-0.03333,0.1 -0.05,0.2 -0.05,0.3c-0.03333,0.06667 -0.06667,0.15 -0.1,0.25c0.06667,2.13333 0.13333,4.28333 0.2,6.45c0.06667,1.86667 0.08333,3.73333 0.05,5.6c0.13333,1.76667 0.2,3.55 0.2,5.35c0,1.7 0,3.4 0,5.1c0.03333,0.1 0.05,0.18333 0.05,0.25c0.03333,0.1 0.06667,0.2 0.1,0.3c0.06667,0.16667 0.13333,0.33333 0.2,0.5c0,0.1 0,0.2 0,0.3c0,0.16667 0,0.33333 0,0.5c0,0.26667 0,0.55 0,0.85c0.06667,0.16667 0.11667,0.33333 0.15,0.5c0.06667,0.26667 0.11667,0.53333 0.15,0.8c0.03333,0.2 0.05,0.38333 0.05,0.55c0.53333,1.13333 0.96667,2.28333 1.3,3.45c0.33333,1.13333 0.91667,2.13333 1.75,3c0.03333,0.06667 0.08333,0.15 0.15,0.25c0.03333,0.1 0.06667,0.18333 0.1,0.25c0.06667,0.1 0.13333,0.2 0.2,0.3c4.3,2.93333 9.11667,3.73333 14.45,2.4c3.36667,-0.66667 6.16667,-2.26667 8.4,-4.8c0.16667,-0.2 0.33333,-0.38333 0.5,-0.55c0.56667,-1.03333 1.03333,-2.11667 1.4,-3.25c0.36667,-1.06667 0.71667,-2.13333 1.05,-3.2c0,-0.1 0,-0.18333 0,-0.25c0,-0.1 0,-0.2 0,-0.3c0.03333,-0.06667 0.05,-0.15 0.05,-0.25c0.03333,-0.1 0.06667,-0.18333 0.1,-0.25c0.03333,-0.1 0.06667,-0.2 0.1,-0.3c0,-0.06667 0,-0.15 0,-0.25c0,-0.16667 0,-0.35 0,-0.55c0,-0.23333 0,-0.5 0,-0.8c0.03333,-0.06667 0.06667,-0.15 0.1,-0.25c0.03333,-0.1 0.06667,-0.18333 0.1,-0.25c0.03333,-0.2 0.08333,-0.38333 0.15,-0.55c0,-0.26667 0,-0.53333 0,-0.8c0,-0.46667 0.06667,-0.91667 0.2,-1.35c0.03333,-0.16667 0.08333,-0.35 0.15,-0.55c0,-0.63333 -0.01667,-1.25 -0.05,-1.85c-0.03333,-0.83333 0.1,-1.63333 0.4,-2.4c0,-1 -0.01667,-1.98333 -0.05,-2.95c-0.06667,-1.2 0.08333,-2.36667 0.45,-3.5c0,-0.1 -0.01667,-0.18333 -0.05,-0.25c-0.03333,-0.2 -0.08333,-0.38333 -0.15,-0.55c-0.06667,-0.16667 -0.13333,-0.35 -0.2,-0.55c0,-0.53333 0,-1.06667 0,-1.6c0,-0.8 0,-1.6 0,-2.4c0,-0.1 0,-0.2 0,-0.3c-0.03333,-0.06667 -0.05,-0.15 -0.05,-0.25c-0.03333,-0.1 -0.06667,-0.18333 -0.1,-0.25c-0.06667,-0.2 -0.13333,-0.38333 -0.2,-0.55c0,-0.53333 0,-1.06667 0,-1.6c0,-0.73333 0,-1.45 0,-2.15c0,-0.1 0,-0.18333 0,-0.25c-0.03333,-0.1 -0.06667,-0.2 -0.1,-0.3z" fill="#000000"/><path d="M644.85811,358.24384c0,0.53333 0,1.06667 0,1.6c0.06667,0.16667 0.13333,0.35 0.2,0.55c0.03333,0.06667 0.06667,0.15 0.1,0.25c0,0.1 0.01667,0.18333 0.05,0.25c0,0.1 0,0.2 0,0.3c0,0.8 0,1.6 0,2.4c0,0.53333 0,1.06667 0,1.6c0.06667,0.2 0.13333,0.38333 0.2,0.55c0.06667,0.16667 0.11667,0.35 0.15,0.55c0.03333,0.06667 0.05,0.15 0.05,0.25c-0.36667,1.13333 -0.51667,2.3 -0.45,3.5c0.03333,0.96667 0.05,1.95 0.05,2.95c-0.3,0.76667 -0.43333,1.56667 -0.4,2.4c0.03333,0.6 0.05,1.21667 0.05,1.85c-0.06667,0.2 -0.11667,0.38333 -0.15,0.55c-0.13333,0.43333 -0.2,0.88333 -0.2,1.35c0,0.26667 0,0.53333 0,0.8c-0.06667,0.16667 -0.11667,0.35 -0.15,0.55c-0.03333,0.06667 -0.06667,0.15 -0.1,0.25c-0.03333,0.1 -0.06667,0.18333 -0.1,0.25c0,0.3 0,0.56667 0,0.8c0,0.2 0,0.38333 0,0.55c0,0.1 0,0.18333 0,0.25c-0.03333,0.1 -0.06667,0.2 -0.1,0.3c-0.03333,0.06667 -0.06667,0.15 -0.1,0.25c0,0.1 -0.01667,0.18333 -0.05,0.25c0,0.1 0,0.2 0,0.3c0,0.06667 0,0.15 0,0.25c-0.33333,1.06667 -0.68333,2.13333 -1.05,3.2c-0.36667,1.13333 -0.83333,2.21667 -1.4,3.25c-0.16667,0.16667 -0.33333,0.35 -0.5,0.55c-2.23333,2.53333 -5.03333,4.13333 -8.4,4.8c-5.33333,1.33333 -10.15,0.53333 -14.45,-2.4c-0.06667,-0.1 -0.13333,-0.2 -0.2,-0.3c-0.03333,-0.06667 -0.06667,-0.15 -0.1,-0.25c-0.06667,-0.1 -0.11667,-0.18333 -0.15,-0.25c-0.83333,-0.86667 -1.41667,-1.86667 -1.75,-3c-0.33333,-1.16667 -0.76667,-2.31667 -1.3,-3.45c0,-0.16667 -0.01667,-0.35 -0.05,-0.55c-0.03333,-0.26667 -0.08333,-0.53333 -0.15,-0.8c-0.03333,-0.16667 -0.08333,-0.33333 -0.15,-0.5c0,-0.3 0,-0.58333 0,-0.85c0,-0.16667 0,-0.33333 0,-0.5c0,-0.1 0,-0.2 0,-0.3c-0.06667,-0.16667 -0.13333,-0.33333 -0.2,-0.5c-0.03333,-0.1 -0.06667,-0.2 -0.1,-0.3c0,-0.06667 -0.01667,-0.15 -0.05,-0.25c0,-1.7 0,-3.4 0,-5.1c0,-1.8 -0.06667,-3.58333 -0.2,-5.35c0.03333,-1.86667 0.01667,-3.73333 -0.05,-5.6c-0.06667,-2.16667 -0.13333,-4.31667 -0.2,-6.45c0.03333,-0.1 0.06667,-0.18333 0.1,-0.25c0,-0.1 0.01667,-0.2 0.05,-0.3c0.03333,-0.06667 0.06667,-0.15 0.1,-0.25c-0.06667,-1.53333 -0.13333,-3.05 -0.2,-4.55c-0.03333,-1.1 -0.06667,-2.18333 -0.1,-3.25c0.9,-0.06667 1.8,-0.11667 2.7,-0.15c2.06667,-0.03333 3.8,0.08333 5.2,0.35c0,0.26667 0,0.53333 0,0.8c0,0.73333 0,1.45 0,2.15c0,0.43333 0,0.88333 0,1.35c0,0.1 0,0.18333 0,0.25c-0.03333,0.1 -0.06667,0.2 -0.1,0.3c-0.03333,0.06667 -0.06667,0.15 -0.1,0.25c-0.03333,0.1 -0.05,0.18333 -0.05,0.25c-0.03333,0.1 -0.06667,0.2 -0.1,0.3c0,0.06667 0,0.15 0,0.25c0,1.23333 0,2.48333 0,3.75c0,0.8 0,1.6 0,2.4c0,0.1 0,0.2 0,0.3c-0.36667,1.2 -0.53333,2.45 -0.5,3.75c0.03333,0.9 0.15,1.78333 0.35,2.65c0.03333,0.16667 0.08333,0.35 0.15,0.55c0,0.36667 0,0.71667 0,1.05c0,0.26667 0,0.53333 0,0.8c0,0.2 0,0.38333 0,0.55c0,0.1 0,0.18333 0,0.25c0.03333,0.1 0.06667,0.2 0.1,0.3c0,0.06667 0.01667,0.15 0.05,0.25c0.03333,0.1 0.06667,0.18333 0.1,0.25c0.03333,0.1 0.06667,0.2 0.1,0.3c0,0.16667 0,0.35 0,0.55c0,0.16667 0,0.33333 0,0.5c0,0.1 0,0.2 0,0.3c0,0.06667 0,0.15 0,0.25c0,0.1 0,0.18333 0,0.25c0.46667,4.13333 2.5,6.95 6.1,8.45c1.13333,0.46667 2.26667,0.48333 3.4,0.05c4.36667,-1.56667 6.91667,-4.71667 7.65,-9.45c0,-0.1 0,-0.2 0,-0.3c0,-0.06667 0,-0.15 0,-0.25c0,-0.1 0,-0.18333 0,-0.25c0.03333,-0.1 0.05,-0.2 0.05,-0.3c0.03333,-0.06667 0.06667,-0.15 0.1,-0.25c0.03333,-0.1 0.06667,-0.18333 0.1,-0.25c0,-0.36667 0.01667,-0.73333 0.05,-1.1c0.06667,-0.43333 0.1,-0.88333 0.1,-1.35c0,-0.26667 -0.03333,-0.53333 -0.1,-0.8c0,-0.06667 0.01667,-0.15 0.05,-0.25c0.03333,-0.1 0.06667,-0.18333 0.1,-0.25c0.03333,-0.1 0.05,-0.2 0.05,-0.3c0.03333,-0.06667 0.06667,-0.15 0.1,-0.25c0,-0.63333 0,-1.26667 0,-1.9c0,-3.3 0.01667,-6.6 0.05,-9.9c0.03333,-1.7 -0.01667,-3.4 -0.15,-5.1c1.83333,-0.03333 3.68333,-0.06667 5.55,-0.1c0,0.3 0,0.6 0,0.9c0,0.73333 0,1.45 0,2.15c0.06667,0.2 0.13333,0.38333 0.2,0.55c0.03333,0.1 0.05,0.18333 0.05,0.25c0.03333,0.1 0.06667,0.2 0.1,0.3c0,0.06667 0,0.15 0,0.25c0,0.7 0,1.41667 0,2.15z" fill="#ffffff"/></g></g></svg>