<svg version="1.1" xmlns="http://www.w3.org/2000/svg" xmlns:xlink="http://www.w3.org/1999/xlink" width="44.59808" height="64.864" viewBox="0,0,44.59808,64.864"><g transform="translate(-608.10811,-337.83784)"><g data-paper-data="{&quot;isPaintingLayer&quot;:true}" fill-rule="nonzero" stroke="none" stroke-width="1" stroke-linecap="butt" stroke-linejoin="miter" stroke-miterlimit="10" stroke-dasharray="" stroke-dashoffset="0" style="mix-blend-mode: normal"><path d="M651.25811,343.73784c0,0.43333 0.05,0.88333 0.15,1.35c0.03333,0.23333 0.05,0.5 0.05,0.8c0.13333,2.33333 0.1,4.65 -0.1,6.95c-0.03333,0.16667 -0.03333,0.35 0,0.55c0.3,3.3 0.43333,6.6 0.4,9.9c-0.03333,2.5 0.03333,4.98333 0.2,7.45c0.03333,0.33333 0.05,0.61667 0.05,0.85c-0.03333,7.2 0.18333,14.35 0.65,21.45c0.16667,2.56667 -0.1,5.06667 -0.8,7.5c-4.63333,2.16667 -9.46667,2.66667 -14.5,1.5c-0.96667,-0.3 -1.9,-0.66667 -2.8,-1.1c-0.46667,-0.16667 -0.83333,-0.45 -1.1,-0.85c-1.4,-2.36667 -2.75,-4.75 -4.05,-7.15c-1.16667,-2.2 -2.35,-4.36667 -3.55,-6.5c-0.1,1.03333 -0.03333,2.01667 0.2,2.95c0.16667,0.6 0.25,1.16667 0.25,1.7c0,1.63333 0.13333,3.31667 0.4,5.05c0.3,1.96667 -0.06667,3.61667 -1.1,4.95c-0.26667,0.33333 -0.58333,0.58333 -0.95,0.75c-4.5,1.2 -9.06667,1.15 -13.7,-0.15c-0.2,-0.2 -0.35,-0.4 -0.45,-0.6c-0.36667,-0.5 -0.61667,-1.03333 -0.75,-1.6c-0.16667,-0.8 -0.3,-1.66667 -0.4,-2.6c0,-0.2 0,-0.38333 0,-0.55c-0.16667,-3 -0.35,-6.03333 -0.55,-9.1c0,-0.2 0,-0.38333 0,-0.55c-0.13333,-1.46667 -0.23333,-2.88333 -0.3,-4.25c-0.03333,-0.3 -0.05,-0.58333 -0.05,-0.85c-0.2,-7.66667 -0.21667,-15.33333 -0.05,-23c0.1,-3.6 0.13333,-7.2 0.1,-10.8c-0.03333,-1.4 -0.16667,-2.78333 -0.4,-4.15c3.16667,-3.4 7.11667,-5.15 11.85,-5.25c1,-0.03333 1.9,-0.21667 2.7,-0.55c1.66667,0.53333 2.98333,1.51667 3.95,2.95c0.36667,0.6 0.66667,1.21667 0.9,1.85c0.76667,2.2 1.65,4.33333 2.65,6.4c0.76667,1.6 1.56667,3.2 2.4,4.8l-0.55,-10.95c-0.36667,-0.4 -0.6,-0.85 -0.7,-1.35c-0.23333,-1.23333 0.11667,-2.21667 1.05,-2.95c0.8,-0.4 1.61667,-0.65 2.45,-0.75c1.73333,0.26667 3.46667,0.31667 5.2,0.15c2.56667,-0.13333 5.08333,0.16667 7.55,0.9c0.63333,0.2 1.26667,0.45 1.9,0.75c1.46667,0.8 2.06667,2.16667 1.8,4.1M636.75811,344.88784c-0.06667,2.06667 -0.03333,4.11667 0.1,6.15c0.06667,1.36667 0.11667,2.8 0.15,4.3c0.03333,0.96667 0.1,1.95 0.2,2.95c0.06667,0.9 0.2,1.78333 0.4,2.65c0.13333,0.6 0.18333,1.23333 0.15,1.9c-0.03333,0.8 0.06667,1.63333 0.3,2.5c0.23333,0.86667 0.38333,1.81667 0.45,2.85c0.03333,0.46667 0.08333,1.01667 0.15,1.65c0.03333,0.16667 0.06667,0.33333 0.1,0.5c0.13333,0.73333 0,1.5 -0.4,2.3c-0.33333,0.6 -0.86667,1 -1.6,1.2c-1.36667,0.2 -2.4,-0.31667 -3.1,-1.55c-2.03333,-3.7 -3.73333,-7.56667 -5.1,-11.6c-0.46667,-1.3 -1,-2.56667 -1.6,-3.8c-1.96667,-4 -3.78333,-8.05 -5.45,-12.15l-8.95,1.5c-0.16667,0.5 -0.25,0.98333 -0.25,1.45c0.13333,4.43333 0.25,8.86667 0.35,13.3c0.1,4.1 0.25,8.18333 0.45,12.25c0.03333,0.93333 0.08333,1.85 0.15,2.75c0.1,1.33333 0.25,2.65 0.45,3.95c0.13333,0.83333 0.18333,1.65 0.15,2.45c-0.03333,0.96667 0.03333,1.93333 0.2,2.9c0.3,1.6 0.41667,3.23333 0.35,4.9c0,0.06667 0,0.15 0,0.25c0.2,2.06667 0.38333,4.18333 0.55,6.35c1.96667,-0.23333 3.93333,-0.45 5.9,-0.65c-0.13333,-0.76667 -0.23333,-1.56667 -0.3,-2.4c-0.03333,-0.8 -0.1,-1.6 -0.2,-2.4c-0.1,-0.56667 -0.15,-1.1 -0.15,-1.6c-0.03333,-0.73333 -0.11667,-1.45 -0.25,-2.15c-0.9,-5.46667 -0.98333,-11 -0.25,-16.6l2.6,-1.55c0.36667,0.1 0.73333,0.21667 1.1,0.35c0.36667,0.23333 0.65,0.51667 0.85,0.85c4.73333,8.53333 9.38333,17.03333 13.95,25.5c2.7,0.66667 5.46667,0.61667 8.3,-0.15c0.03333,-0.66667 0.05,-1.33333 0.05,-2c0.03333,-2.36667 -0.05,-4.73333 -0.25,-7.1c-0.13333,-1.63333 -0.2,-3.28333 -0.2,-4.95c-0.03333,-2.93333 -0.08333,-5.85 -0.15,-8.75c0,-0.23333 0,-0.5 0,-0.8c-0.1,-2.4 -0.18333,-4.8 -0.25,-7.2c-0.06667,-2.8 -0.13333,-5.6 -0.2,-8.4c-0.03333,-1.6 0.08333,-3.16667 0.35,-4.7c0.3,-1.8 0.21667,-3.6 -0.25,-5.4l-0.1,-1.55z" fill="#000000"/><path d="M645.85811,352.08784c-0.26667,1.53333 -0.38333,3.1 -0.35,4.7c0.06667,2.8 0.13333,5.6 0.2,8.4c0.06667,2.4 0.15,4.8 0.25,7.2c0,0.3 0,0.56667 0,0.8c0.06667,2.9 0.11667,5.81667 0.15,8.75c0,1.66667 0.06667,3.31667 0.2,4.95c0.2,2.36667 0.28333,4.73333 0.25,7.1c0,0.66667 -0.01667,1.33333 -0.05,2c-2.83333,0.76667 -5.6,0.81667 -8.3,0.15c-4.56667,-8.46667 -9.21667,-16.96667 -13.95,-25.5c-0.2,-0.33333 -0.48333,-0.61667 -0.85,-0.85c-0.36667,-0.13333 -0.73333,-0.25 -1.1,-0.35l-2.6,1.55c-0.73333,5.6 -0.65,11.13333 0.25,16.6c0.13333,0.7 0.21667,1.41667 0.25,2.15c0,0.5 0.05,1.03333 0.15,1.6c0.1,0.8 0.16667,1.6 0.2,2.4c0.06667,0.83333 0.16667,1.63333 0.3,2.4c-1.96667,0.2 -3.93333,0.41667 -5.9,0.65c-0.16667,-2.16667 -0.35,-4.28333 -0.55,-6.35c0,-0.1 0,-0.18333 0,-0.25c0.06667,-1.66667 -0.05,-3.3 -0.35,-4.9c-0.16667,-0.96667 -0.23333,-1.93333 -0.2,-2.9c0.03333,-0.8 -0.01667,-1.61667 -0.15,-2.45c-0.2,-1.3 -0.35,-2.61667 -0.45,-3.95c-0.06667,-0.9 -0.11667,-1.81667 -0.15,-2.75c-0.2,-4.06667 -0.35,-8.15 -0.45,-12.25c-0.1,-4.43333 -0.21667,-8.86667 -0.35,-13.3c0,-0.46667 0.08333,-0.95 0.25,-1.45l8.95,-1.5c1.66667,4.1 3.48333,8.15 5.45,12.15c0.6,1.23333 1.13333,2.5 1.6,3.8c1.36667,4.03333 3.06667,7.9 5.1,11.6c0.7,1.23333 1.73333,1.75 3.1,1.55c0.73333,-0.2 1.26667,-0.6 1.6,-1.2c0.4,-0.8 0.53333,-1.56667 0.4,-2.3c-0.03333,-0.16667 -0.06667,-0.33333 -0.1,-0.5c-0.06667,-0.63333 -0.11667,-1.18333 -0.15,-1.65c-0.06667,-1.03333 -0.21667,-1.98333 -0.45,-2.85c-0.23333,-0.86667 -0.33333,-1.7 -0.3,-2.5c0.03333,-0.66667 -0.01667,-1.3 -0.15,-1.9c-0.2,-0.86667 -0.33333,-1.75 -0.4,-2.65c-0.1,-1 -0.16667,-1.98333 -0.2,-2.95c-0.03333,-1.5 -0.08333,-2.93333 -0.15,-4.3c-0.13333,-2.03333 -0.16667,-4.08333 -0.1,-6.15l8.75,0.25l0.1,1.55c0.46667,1.8 0.55,3.6 0.25,5.4z" fill="#ffffff"/></g></g></svg>