<svg version="1.1" xmlns="http://www.w3.org/2000/svg" xmlns:xlink="http://www.w3.org/1999/xlink" width="51.16786" height="66.32076" viewBox="0,0,51.16786,66.32076"><g transform="translate(-608.06883,-338.07468)"><g data-paper-data="{&quot;isPaintingLayer&quot;:true}" fill-rule="nonzero" stroke="none" stroke-width="1" stroke-linecap="butt" stroke-linejoin="miter" stroke-miterlimit="10" stroke-dasharray="" stroke-dashoffset="0" style="mix-blend-mode: normal"><path d="M654.55811,348.98784c1,2.56667 1.56667,5.16667 1.7,7.8c0,0.16667 0,0.33333 0,0.5c0.2,2 0.46667,3.95 0.8,5.85c0.43333,2.63333 0.38333,5.21667 -0.15,7.75c-0.1,0.43333 -0.13333,0.8 -0.1,1.1c0.03333,0.33333 0,0.61667 -0.1,0.85c-0.2,0.46667 -0.33333,0.91667 -0.4,1.35c-0.53333,3.06667 -1.41667,6.01667 -2.65,8.85c-0.53333,1.13333 -1.03333,2.28333 -1.5,3.45c3,2.73333 5.28333,5.95 6.85,9.65c0.26667,0.63333 0.3,1.28333 0.1,1.95c-0.5,1.5 -1.36667,2.61667 -2.6,3.35c-2.2,1.2 -4.56667,1.86667 -7.1,2c-3.26667,-0.3 -6.06667,-1.68333 -8.4,-4.15h-0.55c-3.26667,3.76667 -7.36667,5.45 -12.3,5.05c-5.23333,-0.7 -9.66667,-2.86667 -13.3,-6.5c-2.53333,-2.5 -4.25,-5.5 -5.15,-9c-0.53333,-2.16667 -0.9,-4.4 -1.1,-6.7c-0.06667,-0.53333 -0.15,-1.05 -0.25,-1.55c-0.3,-1.3 -0.36667,-2.56667 -0.2,-3.8c0.1,-0.73333 0.16667,-1.45 0.2,-2.15c0.06667,-1.5 0.08333,-2.93333 0.05,-4.3c0,-0.96667 0.1,-1.93333 0.3,-2.9c0.1,-0.46667 0.16667,-0.93333 0.2,-1.4c0,-0.4 0.03333,-0.81667 0.1,-1.25c0.2,-1.36667 0.51667,-2.73333 0.95,-4.1c0.03333,-0.23333 0.08333,-0.48333 0.15,-0.75c0.1,-0.4 0.2,-0.85 0.3,-1.35c0.83333,-3.5 2.21667,-6.8 4.15,-9.9c0.16667,-0.3 0.33333,-0.6 0.5,-0.9c2.33333,-4.1 5.76667,-6.93333 10.3,-8.5c1.26667,-0.46667 2.55,-0.78333 3.85,-0.95c2.43333,-0.33333 4.93333,-0.35 7.5,-0.05c2.03333,0.1 3.98333,0.66667 5.85,1.7c1.03333,0.56667 2.1,1.08333 3.2,1.55c0.43333,0.16667 0.93333,0.28333 1.5,0.35c2.1,0.56667 3.73333,1.78333 4.9,3.65c1,0.86667 1.8,2.01667 2.4,3.45M649.65811,355.13784c-0.2,-1.86667 -0.81667,-3.56667 -1.85,-5.1c-0.26667,-0.33333 -0.55,-0.61667 -0.85,-0.85c-1.5,-1.1 -2.71667,-2.41667 -3.65,-3.95c-5.26667,-2.26667 -10.61667,-2.5 -16.05,-0.7c-2.13333,0.76667 -3.93333,2.01667 -5.4,3.75c-2.83333,3.26667 -4.81667,7.1 -5.95,11.5c-0.03333,0.16667 -0.08333,0.33333 -0.15,0.5c-0.73333,2.6 -1.25,5.2 -1.55,7.8c-0.03333,0.36667 -0.05,0.73333 -0.05,1.1c0.13333,2.66667 0,5.35 -0.4,8.05c-0.06667,0.56667 -0.03333,1.18333 0.1,1.85c0.26667,1.53333 0.5,3.03333 0.7,4.5c0.06667,0.46667 0.11667,0.85 0.15,1.15c0.23333,3.03333 1.4,5.78333 3.5,8.25c3.3,3.83333 7.56667,5.65 12.8,5.45c1.56667,-0.23333 2.91667,-0.91667 4.05,-2.05c0.73333,-0.7 1.41667,-1.55 2.05,-2.55c0.26667,-0.46667 0.61667,-0.86667 1.05,-1.2c1.23333,-0.96667 2.5,-0.98333 3.8,-0.05c0.96667,0.73333 1.96667,1.41667 3,2.05c1.6,1.03333 3.3,1.83333 5.1,2.4c1,0.36667 1.81667,0.15 2.45,-0.65l-1.5,-2.4l-6.05,-6.7c-0.16667,-0.5 -0.23333,-1.05 -0.2,-1.65c0.03333,-0.26667 0.21667,-0.56667 0.55,-0.9c1.03333,-1 1.85,-2.08333 2.45,-3.25c0.23333,-0.5 0.43333,-0.98333 0.6,-1.45c0.63333,-1.86667 1.18333,-3.83333 1.65,-5.9c0.43333,-2 0.81667,-3.96667 1.15,-5.9c0.23333,-1.4 0.15,-2.73333 -0.25,-4c-0.16667,-0.46667 -0.26667,-1 -0.3,-1.6c-0.1,-1.23333 -0.21667,-2.48333 -0.35,-3.75c-0.13333,-1.26667 -0.33333,-2.51667 -0.6,-3.75M646.80811,358.93784c0.53333,4.4 0.35,8.76667 -0.55,13.1c-0.06667,0.36667 -0.13333,0.73333 -0.2,1.1c-0.26667,1.7 -0.83333,3.38333 -1.7,5.05c-0.06667,0.16667 -0.11667,0.35 -0.15,0.55c-0.4,1.4 -1.38333,2.15 -2.95,2.25c-0.4,-0.13333 -0.76667,-0.28333 -1.1,-0.45c-0.4,-0.3 -0.73333,-0.63333 -1,-1c-1.6,-2.4 -3.13333,-4.86667 -4.6,-7.4l-3,2.65c-0.16667,1 0.03333,1.95 0.6,2.85c1.3,2.06667 2.58333,4.16667 3.85,6.3c0.46667,0.73333 0.68333,1.53333 0.65,2.4c-2.33333,3.33333 -5.53333,5 -9.6,5c-1.3,0 -2.5,-0.38333 -3.6,-1.15c-1.63333,-1.16667 -2.91667,-2.58333 -3.85,-4.25c-0.2,-0.3 -0.35,-0.58333 -0.45,-0.85c-0.16667,-0.4 -0.3,-0.76667 -0.4,-1.1c-1.16667,-4.3 -1.43333,-8.65 -0.8,-13.05c0.16667,-1.1 0.28333,-2.2 0.35,-3.3c0.16667,-2.03333 0.58333,-4 1.25,-5.9c0.23333,-0.63333 0.46667,-1.25 0.7,-1.85c1.7,-4.26667 4.35,-7.8 7.95,-10.6c1.5,-1.2 3.11667,-1.88333 4.85,-2.05c2.93333,-0.23333 5.53333,0.48333 7.8,2.15c0.5,0.3 0.95,0.66667 1.35,1.1c0.93333,0.93333 1.76667,1.95 2.5,3.05c1.13333,1.56667 1.83333,3.36667 2.1,5.4M629.15811,356.53784c-2.53333,2.86667 -4.18333,6.21667 -4.95,10.05c-0.26667,1.3 -0.48333,2.63333 -0.65,4c-0.43333,3.2 -0.38333,6.41667 0.15,9.65c0.3,1.9 1.1,3.6 2.4,5.1l1.7,0.35l2.3,-1.35l-4.9,-8.8c-0.2,-1 -0.01667,-1.88333 0.55,-2.65c0.63333,-0.8 1.36667,-1.53333 2.2,-2.2c0.86667,-0.7 1.68333,-1.43333 2.45,-2.2c0.63333,-0.66667 1.25,-1.35 1.85,-2.05c0.5,-0.56667 1.06667,-1.05 1.7,-1.45c1.23333,-0.73333 2.36667,-0.58333 3.4,0.45c0.76667,0.83333 1.4,1.8 1.9,2.9c0.76667,1.63333 1.56667,3.26667 2.4,4.9c0.83333,-4.3 0.95,-8.55 0.35,-12.75c-0.3,-2.06667 -1.13333,-3.85 -2.5,-5.35c-1.56667,-1.66667 -3.45,-2.43333 -5.65,-2.3c-0.8,0.13333 -1.56667,0.43333 -2.3,0.9c-0.63333,0.4 -1.16667,0.95 -1.6,1.65c-0.26667,0.46667 -0.53333,0.85 -0.8,1.15z" fill="#000000"/><path d="M650.25811,358.88784c0.13333,1.26667 0.25,2.51667 0.35,3.75c0.03333,0.6 0.13333,1.13333 0.3,1.6c0.4,1.26667 0.48333,2.6 0.25,4c-0.33333,1.93333 -0.71667,3.9 -1.15,5.9c-0.46667,2.06667 -1.01667,4.03333 -1.65,5.9c-0.16667,0.46667 -0.36667,0.95 -0.6,1.45c-0.6,1.16667 -1.41667,2.25 -2.45,3.25c-0.33333,0.33333 -0.51667,0.63333 -0.55,0.9c-0.03333,0.6 0.03333,1.15 0.2,1.65l6.05,6.7l1.5,2.4c-0.63333,0.8 -1.45,1.01667 -2.45,0.65c-1.8,-0.56667 -3.5,-1.36667 -5.1,-2.4c-1.03333,-0.63333 -2.03333,-1.31667 -3,-2.05c-1.3,-0.93333 -2.56667,-0.91667 -3.8,0.05c-0.43333,0.33333 -0.78333,0.73333 -1.05,1.2c-0.63333,1 -1.31667,1.85 -2.05,2.55c-1.13333,1.13333 -2.48333,1.81667 -4.05,2.05c-5.23333,0.2 -9.5,-1.61667 -12.8,-5.45c-2.1,-2.46667 -3.26667,-5.21667 -3.5,-8.25c-0.03333,-0.3 -0.08333,-0.68333 -0.15,-1.15c-0.2,-1.46667 -0.43333,-2.96667 -0.7,-4.5c-0.13333,-0.66667 -0.16667,-1.28333 -0.1,-1.85c0.4,-2.7 0.53333,-5.38333 0.4,-8.05c0,-0.36667 0.01667,-0.73333 0.05,-1.1c0.3,-2.6 0.81667,-5.2 1.55,-7.8c0.06667,-0.16667 0.11667,-0.33333 0.15,-0.5c1.13333,-4.4 3.11667,-8.23333 5.95,-11.5c1.46667,-1.73333 3.26667,-2.98333 5.4,-3.75c5.43333,-1.8 10.78333,-1.56667 16.05,0.7c0.93333,1.53333 2.15,2.85 3.65,3.95c0.3,0.23333 0.58333,0.51667 0.85,0.85c1.03333,1.53333 1.65,3.23333 1.85,5.1c0.26667,1.23333 0.46667,2.48333 0.6,3.75M642.20811,350.48784c-0.4,-0.43333 -0.85,-0.8 -1.35,-1.1c-2.26667,-1.66667 -4.86667,-2.38333 -7.8,-2.15c-1.73333,0.16667 -3.35,0.85 -4.85,2.05c-3.6,2.8 -6.25,6.33333 -7.95,10.6c-0.23333,0.6 -0.46667,1.21667 -0.7,1.85c-0.66667,1.9 -1.08333,3.86667 -1.25,5.9c-0.06667,1.1 -0.18333,2.2 -0.35,3.3c-0.63333,4.4 -0.36667,8.75 0.8,13.05c0.1,0.33333 0.23333,0.7 0.4,1.1c0.1,0.26667 0.25,0.55 0.45,0.85c0.93333,1.66667 2.21667,3.08333 3.85,4.25c1.1,0.76667 2.3,1.15 3.6,1.15c4.06667,0 7.26667,-1.66667 9.6,-5c0.03333,-0.86667 -0.18333,-1.66667 -0.65,-2.4c-1.26667,-2.13333 -2.55,-4.23333 -3.85,-6.3c-0.56667,-0.9 -0.76667,-1.85 -0.6,-2.85l3,-2.65c1.46667,2.53333 3,5 4.6,7.4c0.26667,0.36667 0.6,0.7 1,1c0.33333,0.16667 0.7,0.31667 1.1,0.45c1.56667,-0.1 2.55,-0.85 2.95,-2.25c0.03333,-0.2 0.08333,-0.38333 0.15,-0.55c0.86667,-1.66667 1.43333,-3.35 1.7,-5.05c0.06667,-0.36667 0.13333,-0.73333 0.2,-1.1c0.9,-4.33333 1.08333,-8.7 0.55,-13.1c-0.26667,-2.03333 -0.96667,-3.83333 -2.1,-5.4c-0.73333,-1.1 -1.56667,-2.11667 -2.5,-3.05z" fill="#ffffff"/></g></g></svg>