<svg version="1.1" xmlns="http://www.w3.org/2000/svg" xmlns:xlink="http://www.w3.org/1999/xlink" width="1262.65429" height="143.00483" viewBox="0,0,1262.65429,143.00483"><g transform="translate(-8.67285,-288.49758)"><g data-paper-data="{&quot;isPaintingLayer&quot;:true}" fill-rule="nonzero" stroke-linejoin="miter" stroke-miterlimit="4" stroke-dasharray="" stroke-dashoffset="0" style="mix-blend-mode: normal"><path d="M100,900v-1080h1080v1080z" fill="#ffffff" stroke="none" stroke-width="1" stroke-linecap="butt" visibility="hidden"/><path d="M134.37656,410.70361c-1.01211,0.40484 -2.85414,0.7692 -5.52611,1.09308c-2.24688,0.28339 -3.89661,0.42509 -4.9492,0.42509c-0.12145,0 -1.22465,0.55666 -3.30959,1.66998c-2.0647,1.11332 -3.44116,1.66998 -4.1294,1.66998c-0.95138,0 -1.61937,-0.32388 -2.00397,-0.97162c-0.30363,-0.78944 -0.54654,-1.32586 -0.72872,-1.60925c-0.21476,0.10066 -0.6196,0.25247 -1.21453,0.45545c0.10121,0.24046 0.15182,0.51372 0.15182,0.81981c0,0.89065 -0.39472,1.52828 -1.18417,1.91288c-0.44533,0.20242 -0.9109,0.30363 -1.39671,0.30363c-0.50605,0 -1.77119,-0.20242 -3.7954,-0.60726c-2.02422,-0.40484 -3.28935,-0.60726 -3.7954,-0.60726c-5.93095,0 -9.6555,0.26315 -11.17366,0.78944c-3.19826,1.09308 -6.71027,1.94325 -10.53604,2.55051h-1.66998c1.31574,-0.89065 3.65371,-1.74082 7.0139,-2.55051c3.27923,-0.78944 6.50785,-1.30562 9.68587,-1.54852c1.31574,-0.08097 3.13753,-0.39472 5.46538,-0.94126c2.71696,-0.61675 4.42742,-1.00135 5.13138,-1.1538c0.48961,-0.60632 1.2082,-1.2237 2.15579,-1.85216c2.02422,-1.33598 4.25085,-2.09506 6.67991,-2.27724c1.09308,0.54654 1.93313,1.23477 2.52015,2.0647c0.34412,0.44533 1.05259,0.66799 2.12543,0.66799c0.50605,0 1.96349,-0.22266 4.3723,-0.66799c2.38857,-0.46557 3.83589,-0.69835 4.34194,-0.69835c0.20242,0 0.84005,0.11133 1.91288,0.334c0.82993,0.16194 1.81167,0.15182 2.94523,-0.03036c0,0.04048 0.13157,0.15182 0.39472,0.334c0.28339,0.18218 0.45545,0.32388 0.51617,0.42509M37.09282,337.86226c2.0647,-2.08494 3.42092,-3.30959 4.06867,-3.67395c1.6801,-0.24291 2.85414,-0.01012 3.52213,0.69835c0.70847,0.74896 1.20441,1.12344 1.4878,1.12344c1.17405,0 3.26911,-0.49593 6.28519,-1.4878c2.87439,-0.93114 4.92896,-1.3461 6.16373,-1.24489c0.78944,0.16194 2.15579,0.60726 4.09903,1.33598c1.82179,0.68823 2.93511,1.05259 3.33995,1.09308c1.27526,0.18218 2.4999,0.21254 3.67395,0.09109c1.09308,-0.16194 1.89264,-0.24291 2.39869,-0.24291c0.93114,0 1.86228,0.04048 2.79342,0.12145c1.11332,0.08097 1.70034,0.1923 1.76107,0.334c-2.48978,0.02024 -4.30146,0.24291 -5.43502,0.66799c-0.93114,0.34412 -1.85216,0.47569 -2.76305,0.39472c-2.38857,-0.22266 -3.87637,0.03036 -4.46339,0.75908c-0.16194,0.18218 -0.3846,0.45545 -0.66799,0.81981c-0.32388,0.26315 -0.84005,0.39472 -1.54852,0.39472c-0.50605,0 -1.43719,-0.22266 -2.79342,-0.66799c-1.37646,-0.46557 -2.31772,-0.69835 -2.82378,-0.69835c-0.80969,0 -2.71245,0.60726 -5.70828,1.82179c-3.01608,1.21453 -4.7063,1.82179 -5.07066,1.82179c-0.99187,0 -1.78131,-0.27327 -2.36833,-0.81981c-0.30363,-0.28339 -0.54654,-0.56678 -0.72872,-0.85017c-1.98373,0 -6.49773,1.11332 -13.54199,3.33995c-8.31952,2.61124 -14.10877,4.23061 -17.36776,4.85811l-2.73269,-0.30363c0,-0.20242 0.10121,-0.35424 0.30363,-0.45545c2.26712,-0.46557 5.43502,-1.3461 9.50369,-2.6416c3.80552,-1.21453 7.51996,-2.15579 11.1433,-2.82378c2.61124,-0.48581 5.10102,-1.74082 7.46935,-3.76504M198.77694,406.48313c0.24291,-0.3846 0.53642,-0.64775 0.88053,-0.78944c3.64359,-0.60726 5.6678,-0.9615 6.07264,-1.06271l1.12344,0.21254c0.78944,0.18218 1.27526,0.36436 1.45743,0.54654l0.15182,0.45545c-1.37646,0 -2.3076,0.3846 -2.79342,1.1538c-0.48581,0.74896 -1.98373,1.12344 -4.49376,1.12344c-0.62751,0 -1.19429,-0.05061 -1.70034,-0.15182l-0.5769,-0.15182l-0.45545,-0.45545c0,-0.26315 0.11133,-0.55666 0.334,-0.88053M187.51219,404.9346c1.13356,0.1417 1.83191,0.50605 2.09506,1.09308c0.24291,0.56678 0.55666,0.86029 0.94126,0.88053c1.61937,0.1417 2.4493,0.21254 2.48978,0.21254c0.95138,0.10121 2.04446,0.28339 3.27923,0.54654c-1.61937,0.20242 -2.73269,0.334 -3.33995,0.39472c-0.97162,0.10121 -1.93313,0.12145 -2.88451,0.06073c-0.58702,0.82993 -1.81167,1.56877 -3.67395,2.21651c-1.55864,0.54654 -2.81366,0.81981 -3.76504,0.81981l-6.71027,-1.51816c-4.47351,-1.01211 -8.3094,-1.51816 -11.50766,-1.51816c-0.64775,0 -1.55864,0.13157 -2.73269,0.39472c-0.16194,0.02024 -1.32586,0.29351 -3.49177,0.81981l-8.34988,0.60726c-3.78528,0.26315 -6.21434,0.7692 -7.28717,1.51816l-2.73269,0.45545c1.23477,-0.7692 3.39056,-1.62949 6.46736,-2.58087c5.10102,-1.61937 10.2324,-2.42906 15.39415,-2.42906c0.50605,0 2.07482,0.23279 4.7063,0.69835c2.63148,0.44533 4.20024,0.66799 4.7063,0.66799c3.03632,0 6.0524,-0.5769 9.04824,-1.7307c2.91487,-1.11332 5.36417,-1.64973 7.3479,-1.60925M288.80387,317.39745c2.42906,0.82993 4.21037,2.03434 5.34393,3.61322c1.78131,1.923 3.54238,4.46339 5.2832,7.62117c2.85414,5.20223 4.29133,7.82359 4.31158,7.86407c0.42509,0.68823 1.06271,1.97361 1.91288,3.85613c0.80969,1.78131 1.52828,3.14765 2.15579,4.09903c0.70847,1.09308 1.11332,1.71046 1.21453,1.85216c0.64775,0.89065 1.21453,1.51816 1.70034,1.88252c0.44533,0.32388 0.80969,0.59714 1.09308,0.81981c0.22266,0.12145 0.92102,0.32388 2.09506,0.60726c1.65986,0.42509 4.3723,0.73884 8.13734,0.94126c1.90276,0.12145 3.78528,0.21254 5.64756,0.27327c2.42906,0.48581 5.16175,1.23477 8.19807,2.24688c1.59913,0.54654 3.59298,1.21453 5.98155,2.00397c0.85017,0.22266 1.88252,0.67811 3.09705,1.36634c1.13356,0.62751 2.32785,1.08296 3.58286,1.36634c0.74896,0.18218 2.07482,0.18218 3.97758,0c0.97162,-0.08097 2.02422,-0.18218 3.15777,-0.30363c0.40484,0 1.66998,0.07085 3.7954,0.21254c2.20639,0.16194 3.77516,0.29351 4.7063,0.39472c-0.06073,0.06073 -0.22266,0.1417 -0.48581,0.24291c-0.30363,0.10121 -0.49593,0.17206 -0.5769,0.21254c0.46557,0.16194 0.74896,0.36436 0.85017,0.60726v0.24291c-0.66799,-0.10121 -2.01409,-0.15182 -4.03831,-0.15182c-0.66799,0 -1.42707,0.1417 -2.27724,0.42509c-0.89065,0.30363 -1.49792,0.46557 -1.82179,0.48581c-2.36833,0.1417 -4.74678,0.21254 -7.13536,0.21254c-2.00397,0 -3.58286,-0.35424 -4.73666,-1.06271c-1.33598,-0.82993 -2.43918,-1.30562 -3.30959,-1.42707h-9.13933c-2.38857,-0.68823 -3.68407,-1.05259 -3.88649,-1.09308c-2.53027,-0.46557 -6.1941,-0.68823 -10.99148,-0.66799c-7.93492,0.02024 -13.68369,-0.26315 -17.24631,-0.85017c-3.6031,-0.58702 -6.86209,-0.88053 -9.77696,-0.88053c-6.53821,0 -12.30722,0.28339 -17.30703,0.85017c-5.02005,0.54654 -8.20819,0.81981 -9.56441,0.81981c-7.77298,-0.20242 -12.07444,-0.3846 -12.90437,-0.54654c-0.66799,-0.08097 -1.22465,-0.25303 -1.66998,-0.51617c-0.44533,-0.22266 -0.77932,-0.39472 -1.00199,-0.51617c-0.44533,-0.24291 -0.66799,-0.52629 -0.66799,-0.85017c0,-0.32388 0.07085,-0.58702 0.21254,-0.78944c0.10121,-0.12145 0.25303,-0.31375 0.45545,-0.5769c-0.87041,-0.74896 -1.50804,-1.18417 -1.91288,-1.30562c-1.86228,-0.60726 -5.29332,-0.9109 -10.29313,-0.9109c-2.16591,0 -4.1294,0.50605 -5.89046,1.51816c-1.35622,0.78944 -2.17603,1.52828 -2.45942,2.21651c-0.06073,0.16194 -0.12145,0.44533 -0.18218,0.85017c-0.10121,0.40484 -0.334,0.73884 -0.69835,1.00199c-1.07283,0.78944 -3.51201,1.18417 -7.31753,1.18417c-2.0647,0 -4.45327,-0.35424 -7.16572,-1.06271c-2.71245,-0.70847 -4.63545,-1.06271 -5.76901,-1.06271c-1.1538,0 -4.43303,0.34412 -9.83768,1.03235c-5.18199,0.66799 -7.82359,1.00199 -7.9248,1.00199c-0.56678,0 -1.3461,-0.22266 -2.33797,-0.66799c-0.85017,-0.36436 -1.84204,-0.46557 -2.9756,-0.30363c-0.30363,0.04048 -0.78944,0.03036 -1.45743,-0.03036c-1.03235,-0.06073 -1.96349,-0.10121 -2.79342,-0.12145c-0.70847,-0.24291 -1.17405,-0.55666 -1.39671,-0.94126c-0.12145,-0.22266 -0.18218,-0.56678 -0.18218,-1.03235c0,-0.70847 0.55666,-1.31574 1.66998,-1.82179c1.23477,-0.56678 2.87439,-0.85017 4.91884,-0.85017c2.40881,0 4.3723,0.29351 5.89046,0.88053c1.5384,0.58702 4.03831,0.88053 7.49971,0.88053c5.72853,0 9.91865,-1.04247 12.57037,-3.12741c0.52629,-0.40484 1.04247,-1.17405 1.54852,-2.3076c0.46557,-1.03235 1.06271,-1.75095 1.79143,-2.15579c1.72058,-1.01211 3.47153,-1.66998 5.25284,-1.97361c2.61124,-0.44533 5.93095,-0.34412 9.95913,0.30363c2.18615,0.32388 3.6031,-0.09109 4.25085,-1.24489c0.18218,-0.32388 0.43521,-0.86029 0.75908,-1.60925c0.34412,-0.64775 0.79956,-1.14368 1.36634,-1.4878c1.03235,0 2.56063,0.32388 4.58485,0.97162c1.76107,0.28339 3.16789,-0.34412 4.22049,-1.88252l1.36634,-2.27724c0.22266,-0.36436 0.63763,-1.06271 1.24489,-2.09506c0.54654,-0.97162 0.94126,-1.79143 1.18417,-2.45942c0.70847,-2.10518 1.5384,-3.69419 2.48978,-4.76702c0.54654,-0.64775 1.69022,-1.20441 3.43104,-1.66998c2.53027,-0.70847 5.87022,-1.06271 10.01986,-1.06271c0.78944,0 1.84204,0.334 3.15777,1.00199c1.33598,0.64775 2.02422,0.97162 2.0647,0.97162c0.1417,0 1.79143,-1.12344 4.9492,-3.37032c3.40068,-2.40881 5.4755,-3.81565 6.22446,-4.22049c3.23874,-1.72058 6.50785,-2.01409 9.80732,-0.88053M409.9531,429.80208c0.68823,-0.60726 1.23477,-1.05259 1.63961,-1.33598l1.00199,0.12145c0.68823,0.10121 1.06271,0.21254 1.12344,0.334c-1.1538,-0.04048 -2.17603,0.26315 -3.06668,0.9109c-0.87041,0.62751 -1.46755,0.93114 -1.79143,0.9109c0.12145,-0.12145 0.48581,-0.43521 1.09308,-0.94126M425.55979,427.85883c0.50605,0 1.05259,0.04048 1.63961,0.12145c0.42509,0.08097 0.73884,0.09109 0.94126,0.03036c-2.14567,1.5384 -3.33995,2.37845 -3.58286,2.52015c-1.25501,0.64775 -2.84402,0.97162 -4.76702,0.97162c-1.5384,0 -2.4999,-0.36436 -2.88451,-1.09308c-0.10121,-0.18218 -0.15182,-0.60726 -0.15182,-1.27526c0,-2.00397 1.11332,-2.8339 3.33995,-2.48978c0.48581,0.08097 1.44731,0.32388 2.88451,0.72872c1.19429,0.32388 2.05458,0.48581 2.58087,0.48581M477.45053,342.56856c0.85017,-0.46557 2.0647,-0.69835 3.64359,-0.69835c1.61937,0 2.68208,0.24291 3.18814,0.72872c1.35622,1.25501 2.0647,1.90276 2.12543,1.94325c0.54654,0.34412 1.27526,0.61738 2.18615,0.81981h0.63763c0.18218,0 0.69835,0.10121 1.54852,0.30363c0.06073,0.02024 0.13157,0.04048 0.21254,0.06073c0.97162,0.08097 2.07482,0.16194 3.30959,0.24291l0.51617,0.09109c0.22266,0.06073 0.3846,0.11133 0.48581,0.15182c0.60726,-0.06073 1.26513,-0.1417 1.97361,-0.24291c1.47768,-0.20242 2.3076,-0.30363 2.48978,-0.30363c1.27526,0 1.91288,0.56678 1.91288,1.70034c0,0.50605 -0.32388,0.85017 -0.97162,1.03235c-0.60726,0.16194 -1.7307,0.24291 -3.37032,0.24291c-0.34412,0 -0.70847,-0.05061 -1.09308,-0.15182c-0.32388,-0.10121 -0.51617,-0.18218 -0.5769,-0.24291c-0.08097,0 -1.28538,0.04048 -3.61322,0.12145c-1.72058,0.06073 -3.47153,0.05061 -5.25284,-0.03036c-0.10121,-0.10121 -0.15182,-0.18218 -0.15182,-0.24291c-6.5787,0.10121 -9.91865,0.10121 -10.01986,0c-2.89463,-0.10121 -4.59497,-0.15182 -5.10102,-0.15182c-1.23477,0 -3.06668,0.1417 -5.49574,0.42509c-2.4493,0.28339 -4.05855,0.42509 -4.82775,0.42509c-0.70847,0 -1.89264,-0.16194 -3.5525,-0.48581c-1.65986,-0.34412 -3.05656,-0.51617 -4.19012,-0.51617c-0.7692,0 -3.42092,0.42509 -7.95516,1.27526c-4.514,0.82993 -7.68189,1.24489 -9.50369,1.24489c-0.7692,0 -1.96349,-0.02024 -3.58286,-0.06073c-2.04446,-0.06073 -3.09705,-0.12145 -3.15777,-0.18218c-1.25501,-0.10121 -2.55051,-0.3846 -3.88649,-0.85017c-1.13356,-0.3846 -2.24688,-0.5769 -3.33995,-0.5769c-5.6678,0 -9.39235,0.334 -11.17366,1.00199c-1.78131,0.64775 -3.97758,0.97162 -6.58882,0.97162c-0.95138,0 -2.16591,-0.28339 -3.64359,-0.85017c-1.43719,-0.60726 -2.29748,-0.9615 -2.58087,-1.06271h-19.15919c-0.93114,0.28339 -2.65172,0.51617 -5.16175,0.69835c-0.28339,-0.10121 -0.46557,-0.18218 -0.54654,-0.24291c-0.1417,-0.1417 -0.21254,-0.3846 -0.21254,-0.72872c0,-0.26315 0.03036,-0.45545 0.09109,-0.5769c0.1417,-0.28339 0.46557,-0.47569 0.97162,-0.5769c0.54654,0.02024 1.25501,0.03036 2.12543,0.03036c0.08097,-0.06073 0.18218,-0.12145 0.30363,-0.18218c5.26296,-0.16194 9.05836,-0.29351 11.38621,-0.39472c0.24291,0 0.92102,-0.09109 2.03434,-0.27327c1.35622,-0.24291 2.45942,-0.40484 3.30959,-0.48581c0.30363,-0.10121 0.63763,-0.25303 1.00199,-0.45545c-0.20242,-1.35622 -0.31375,-2.41894 -0.334,-3.18814c-0.04048,-1.37646 0.59714,-2.51003 1.91288,-3.40068c0.32388,-0.24291 2.02422,-0.9615 5.10102,-2.15579c3.56262,-1.39671 5.96131,-2.09506 7.19608,-2.09506c1.23477,0 2.45942,0.40484 3.67395,1.21453c1.23477,0.80969 2.48978,1.21453 3.76504,1.21453c2.10518,0 4.20024,-0.93114 6.28519,-2.79342c1.11332,-1.01211 2.38857,-2.33797 3.82577,-3.97758c3.11729,-2.71245 5.13138,-4.28121 6.04228,-4.7063c0.7692,-0.34412 2.41894,-0.51617 4.9492,-0.51617c4.3723,0 8.41061,0.43521 12.11492,1.30562c1.923,0.46557 3.63347,1.01211 5.13138,1.63961c1.47768,0.64775 2.65172,1.28538 3.52213,1.91288c1.03235,0.72872 1.88252,1.60925 2.55051,2.6416c0.28339,0.46557 0.7186,1.3461 1.30562,2.6416c0.52629,1.17405 1.00199,2.04446 1.42707,2.61124c1.63961,2.20639 3.22862,3.87637 4.76702,5.00993c3.33995,-0.06073 6.02204,0.06073 8.04625,0.36436c0.44533,0 1.1032,-0.22266 1.97361,-0.66799M685.56,325.01862c0.58702,0.56678 0.88053,1.03235 0.88053,1.39671c0,0.32388 -0.09109,0.54654 -0.27327,0.66799c-0.02024,0 -0.18218,0.05061 -0.48581,0.15182c-1.70034,0 -3.06668,-0.02024 -4.09903,-0.06073c-0.70847,-0.06073 -1.19429,-0.09109 -1.45743,-0.09109c-1.88252,0 -4.63545,0.23279 -8.25879,0.69835c-3.62334,0.44533 -7.62117,0.66799 -11.99347,0.66799c-7.08475,-0.20242 -10.81942,-0.35424 -11.20403,-0.45545l-8.53206,-0.15182c-0.50605,-0.1417 -1.76107,-0.32388 -3.76504,-0.54654c-1.94325,-0.20242 -3.52213,-0.32388 -4.73666,-0.36436l-17.30703,-0.09109c-0.18218,-0.04048 -1.44731,-0.11133 -3.7954,-0.21254c-2.32785,-0.10121 -3.58286,-0.18218 -3.76504,-0.24291l-14.66543,-0.15182c-0.34412,-0.10121 -0.85017,-0.17206 -1.51816,-0.21254h-8.5017c-7.85395,-0.36436 -13.26872,-0.54654 -16.24432,-0.54654c-0.24291,0 -1.01211,-0.12145 -2.3076,-0.36436c-1.27526,-0.26315 -2.04446,-0.39472 -2.3076,-0.39472c-0.24291,0 -1.46755,0.13157 -3.67395,0.39472c-2.20639,0.24291 -3.44116,0.36436 -3.70431,0.36436c-0.60726,0 -1.91288,-0.04048 -3.91685,-0.12145c-2.24688,-0.10121 -3.40068,-0.18218 -3.46141,-0.24291c-0.3846,-0.02024 -0.7692,-0.05061 -1.1538,-0.09109c-0.78944,-0.08097 -1.21453,-0.15182 -1.27526,-0.21254c-0.44533,0.02024 -0.90078,0.04048 -1.36634,0.06073c-0.93114,0.04048 -1.45743,0.09109 -1.57889,0.15182h-2.0647c-0.12145,-0.06073 -0.20242,-0.10121 -0.24291,-0.12145c-0.04048,-0.04048 -0.06073,-0.22266 -0.06073,-0.54654c0,-0.48581 0.62751,-0.89065 1.88252,-1.21453c0.80969,-0.22266 2.45942,-0.60726 4.9492,-1.1538c1.09308,-0.26315 2.38857,-0.51617 3.88649,-0.75908c1.19429,-0.20242 2.08494,-0.40484 2.67196,-0.60726l0.88053,-0.54654c0.66799,-0.3846 1.25501,-0.5769 1.76107,-0.5769c2.51003,0 4.52412,0.16194 6.04228,0.48581c1.49792,0.32388 2.74281,0.48581 3.73468,0.48581c3.54238,0 6.22446,-0.74896 8.04625,-2.24688c1.1538,-0.95138 3.10717,-2.90475 5.8601,-5.8601c0.1417,-0.12145 1.44731,-1.37646 3.91685,-3.76504c2.8339,-2.34809 5.37429,-3.52213 7.62117,-3.52213c1.80155,0 3.89661,0.60726 6.28519,1.82179c2.77317,1.39671 4.16988,2.96548 4.19012,4.7063c0.85017,-1.17405 2.4493,-3.69419 4.79739,-7.56044c2.0647,-3.42092 3.83589,-6.06252 5.31356,-7.9248c2.9756,-3.7448 5.74877,-5.97143 8.31952,-6.67991c4.19012,-1.19429 8.1677,-1.24489 11.93274,-0.15182c0.93114,0.28339 3.0768,1.26513 6.437,2.94523c3.29947,1.61937 6.04228,3.71443 8.22843,6.28519c1.49792,1.76107 3.10717,4.29133 4.82775,7.5908c2.10518,4.02819 3.63347,6.74063 4.58485,8.13734c2.0647,3.0768 4.53424,5.70828 7.40862,7.89444c1.05259,0.1417 2.56063,0.41496 4.52412,0.81981c2.04446,0.42509 3.78528,0.73884 5.22247,0.94126c6.63942,0.06073 10.09071,0.18218 10.35386,0.36436c1.27526,-0.26315 2.32785,-0.01012 3.15777,0.75908M785.21208,383.83217c0.30363,-0.20242 1.00199,-0.56678 2.09506,-1.09308c1.19429,-0.58702 1.91288,-0.88053 2.15579,-0.88053c1.61937,-0.16194 2.93511,-0.42509 3.94722,-0.78944c1.21453,-0.44533 1.923,-0.68823 2.12543,-0.72872c1.35622,0.10121 3.38044,0.55666 6.07264,1.36634c1.84204,0.60726 2.7833,0.9109 2.82378,0.9109c1.35622,0.48581 2.18615,0.89065 2.48978,1.21453h-1.51816c-0.50605,0 -1.43719,0.20242 -2.79342,0.60726c-1.37646,0.40484 -2.31772,0.60726 -2.82378,0.60726c-0.36436,0 -2.99584,-0.65787 -7.89444,-1.97361c-0.64775,0 -1.42707,0.1417 -2.33797,0.42509c-1.01211,0.3846 -1.75095,0.64775 -2.21651,0.78944c-1.21453,0 -1.923,-0.15182 -2.12543,-0.45545M881.64565,325.62588c1.55864,0.02024 2.96548,0.07085 4.22049,0.15182c-0.04048,0.16194 -0.1417,0.31375 -0.30363,0.45545c-0.54654,0 -1.08296,-0.01012 -1.60925,-0.03036c-0.06073,0 -0.12145,0 -0.18218,0c0.64775,0.26315 1.57889,0.47569 2.79342,0.63763c-0.58702,0.02024 -2.00397,-0.10121 -4.25085,-0.36436c-0.46557,-0.06073 -0.89065,-0.11133 -1.27526,-0.15182c-1.45743,0.26315 -2.56063,0.44533 -3.30959,0.54654c-1.27526,0.20242 -3.82577,0.54654 -7.65153,1.03235c-2.28736,0.28339 -8.02601,0.36436 -17.21594,0.24291c-9.53405,-0.20242 -15.16136,-0.30363 -16.88195,-0.30363l-14.48325,0.21254c-0.18218,0.06073 -1.21453,0.1417 -3.09705,0.24291c-1.72058,0.10121 -2.84402,0.15182 -3.37032,0.15182c-0.48581,0 -0.80969,-0.08097 -0.97162,-0.24291c-3.0768,0.06073 -5.33381,-0.02024 -6.771,-0.24291c-0.20242,0.12145 -0.35424,0.18218 -0.45545,0.18218c-0.42509,0 -0.85017,-0.10121 -1.27526,-0.30363c-0.16194,-0.08097 -0.32388,-0.15182 -0.48581,-0.21254c-0.93114,-0.1417 -1.86228,-0.25303 -2.79342,-0.334c-0.28339,-0.02024 -0.59714,-0.03036 -0.94126,-0.03036c-1.49792,-0.06073 -2.26712,-0.15182 -2.3076,-0.27327h-1.91288c-3.03632,0.36436 -4.80751,0.54654 -5.31356,0.54654c-0.28339,0 -0.55666,0.09109 -0.81981,0.27327c-0.28339,0.20242 -0.46557,0.31375 -0.54654,0.334h-2.12543c-0.60726,-0.12145 -0.99187,-0.32388 -1.1538,-0.60726c-0.04048,-0.10121 -0.06073,-0.29351 -0.06073,-0.5769c0,-0.60726 0.31375,-0.97162 0.94126,-1.09308c0.28339,-0.06073 1.23477,-0.09109 2.85414,-0.09109c0.06073,0 0.7186,0.18218 1.97361,0.54654c1.25501,0.34412 1.96349,0.51617 2.12543,0.51617c3.62334,0 6.27507,-0.01012 7.95516,-0.03036l1.1538,-0.12145c0.02024,0 0.24291,0.02024 0.66799,0.06073c1.57889,-0.10121 2.63148,-0.334 3.15777,-0.69835c0.3846,-0.26315 0.9615,-0.92102 1.7307,-1.97361c1.11332,-1.25501 2.73269,-2.56063 4.85811,-3.91685c4.25085,-2.71245 9.24054,-3.35007 14.96906,-1.91288c1.31574,0.32388 3.31971,0.97162 6.01192,1.94325c2.04446,0.74896 3.43104,1.12344 4.15976,1.12344c1.47768,0 3.54238,-0.35424 6.1941,-1.06271c2.65172,-0.70847 5.0909,-1.06271 7.31753,-1.06271c2.61124,0 4.45327,0.27327 5.52611,0.81981c0.58702,0.32388 1.14368,0.94126 1.66998,1.85216c0.46557,0.85017 1.12344,1.45743 1.97361,1.82179c1.2955,0.54654 3.45129,0.81981 6.46736,0.81981c0.42509,0 1.31574,-0.21254 2.67196,-0.63763c1.33598,-0.44533 2.16591,-0.66799 2.48978,-0.66799c0.87041,0 2.03434,0.334 3.49177,1.00199c0.72872,0.34412 1.43719,0.69835 2.12543,1.06271c0.78944,0.12145 1.47768,0.24291 2.0647,0.36436M1145.28944,427.5552c0.32388,0.20242 0.80969,0.35424 1.45743,0.45545l0.15182,0.30363c-0.80969,0.40484 -1.74082,0.60726 -2.79342,0.60726c-0.62751,0 -1.72058,-0.05061 -3.27923,-0.15182l-2.12543,-0.15182c-0.4239,-0.16953 -0.74777,-0.38207 -0.97162,-0.63763c-0.02396,0.06689 -0.05432,0.12762 -0.09109,0.18218c-0.54654,0.80969 -1.20441,1.21453 -1.97361,1.21453c-0.62751,0 -1.18417,-0.1923 -1.66998,-0.5769c-0.54654,-0.52629 -1.05259,-0.93114 -1.51816,-1.21453c-1.76107,-1.1538 -4.9492,-1.61937 -9.56441,-1.39671c-1.19429,0.06073 -3.78528,-0.05061 -7.77298,-0.334c-4.23061,-0.28339 -6.44712,-0.42509 -6.64954,-0.42509c-0.50605,0 -3.20838,0.25303 -8.10698,0.75908c-4.91884,0.50605 -7.63129,0.75908 -8.13734,0.75908l-17.36776,-1.82179c-0.72872,0 -1.83191,0.17206 -3.30959,0.51617c-1.43719,0.32388 -2.35821,0.60726 -2.76305,0.85017l-1.66998,-0.30363c-0.3846,-0.04048 -0.75908,-0.11133 -1.12344,-0.21254c-0.7692,-0.18218 -1.1538,-0.36436 -1.1538,-0.54654c1.27526,-0.06073 4.05855,-0.9109 8.34988,-2.55051c2.16591,-0.82993 4.24073,-1.64973 6.22446,-2.45942c1.07283,0 1.97361,0.32388 2.70233,0.97162c0.44533,0.3846 1.16392,1.07283 2.15579,2.0647h2.88451c0.50605,-0.16194 1.46755,-0.36436 2.88451,-0.60726c0.34412,-1.03235 1.07283,-1.95337 2.18615,-2.76305c1.03235,-0.74896 2.12543,-1.23477 3.27923,-1.45743c1.17405,-0.22266 2.05458,-0.09109 2.6416,0.39472c0.64775,0.56678 0.74896,1.4878 0.30363,2.76305v0.45545c0.08097,-0.02024 1.08296,-0.36436 3.00596,-1.03235c1.21453,-0.42509 1.98373,-0.63763 2.3076,-0.63763c1.72058,0 4.23061,0.26315 7.53008,0.78944c2.93511,0.44533 5.23259,0.89065 6.89245,1.33598c4.21037,1.17405 8.27904,1.75095 12.20601,1.7307c2.00397,0 3.75492,-0.12145 5.25284,-0.36436c0.87041,0 1.61937,0.31375 2.24688,0.94126c0.87041,0.87041 1.43719,1.36634 1.70034,1.4878c2.6805,0.03566 4.34036,0.21784 4.97957,0.54654c0.18218,0.10121 0.41496,0.27327 0.69835,0.51617M974.22309,424.97432c0.50605,-0.36436 1.35622,-0.67811 2.55051,-0.94126c1.11332,-0.26315 1.88252,-0.35424 2.3076,-0.27327l0.30363,0.9109c-0.52629,0.52629 -0.98174,0.89065 -1.36634,1.09308c-0.52629,0.28339 -1.13356,0.42509 -1.82179,0.42509c-0.64775,0 -1.08296,-0.07085 -1.30562,-0.21254c-0.18218,-0.20242 -0.35424,-0.3846 -0.51617,-0.54654l-0.15182,-0.45545M1023.68477,423.91161c0.60726,-0.02024 1.88252,0.08097 3.82577,0.30363c0,0.04048 0.26315,0.15182 0.78944,0.334c0.56678,0.20242 0.9109,0.39472 1.03235,0.5769l-0.30363,0.45545l-2.73269,0.45545c-1.59913,-0.1417 -2.86426,-0.49593 -3.7954,-1.06271l-0.15182,-0.45545c0.22266,-0.36436 0.66799,-0.56678 1.33598,-0.60726M1014.45435,423.45616c-0.85017,0.42509 -2.73269,0.79956 -5.64756,1.12344c-2.32785,0.26315 -3.9877,0.39472 -4.97957,0.39472c-0.62751,0 -1.25501,-0.12145 -1.88252,-0.36436c-0.50605,-0.26315 -0.78944,-0.39472 -0.85017,-0.39472c-0.17815,-0.03961 -1.36231,-0.16107 -3.5525,-0.36436c0.17253,0.07053 0.34459,0.14138 0.51617,0.21254c-0.28339,0.1417 -0.68823,0.28339 -1.21453,0.42509c-0.7692,0.22266 -1.47768,0.334 -2.12543,0.334c-1.01211,0 -2.00397,-0.04048 -2.9756,-0.12145c-1.25501,-0.12145 -1.98373,-0.28339 -2.18615,-0.48581c0,-0.18218 0.15182,-0.42509 0.45545,-0.72872c0.30363,-0.30363 0.45545,-0.46557 0.45545,-0.48581c1.72643,0.06168 3.11302,0.14264 4.15976,0.24291c2.79215,-0.24528 5.81835,-0.38697 9.0786,-0.42509c5.12126,-0.02024 8.40049,-0.06073 9.83768,-0.12145c0,0.04048 0.13157,0.15182 0.39472,0.334c0.28339,0.18218 0.45545,0.32388 0.51617,0.42509M1055.74832,423.72943c-0.36436,0.12145 -0.87041,0.18218 -1.51816,0.18218c-1.11332,0 -2.27724,-0.04048 -3.49177,-0.12145c-1.57889,-0.12145 -2.43918,-0.28339 -2.58087,-0.48581c0.06073,-0.10121 0.18218,-0.22266 0.36436,-0.36436c0.16194,-0.12145 0.24291,-0.20242 0.24291,-0.24291h5.46538c1.33598,0.32388 2.04446,0.5769 2.12543,0.75908c-0.34412,0.16194 -0.54654,0.25303 -0.60726,0.27327M1067.86324,344.08672c0.26315,0 2.03434,0.10121 5.31356,0.30363c3.29947,0.20242 5.07066,0.30363 5.31356,0.30363c0.50605,0 0.78944,0.02024 0.85017,0.06073l0.12145,0.15182c0.06073,0.08097 0.09109,0.27327 0.09109,0.5769c0,0.50605 -0.02024,0.61738 -0.06073,0.334c-0.04048,0.1417 -0.08097,0.24291 -0.12145,0.30363c-0.06073,0.06073 -0.25303,0.09109 -0.5769,0.09109c-0.08097,0 -0.44533,-0.06073 -1.09308,-0.18218c-0.68823,-0.1417 -1.69022,-0.23279 -3.00596,-0.27327c-0.20242,0 -0.67811,-0.04048 -1.42707,-0.12145v0.03036c-0.04048,0 -0.48581,0.18218 -1.33598,0.54654c-0.50605,0.20242 -1.60925,0.30363 -3.30959,0.30363c-1.09308,0 -2.92499,-0.18218 -5.49574,-0.54654h-0.03036c-0.66799,0.12145 -1.33598,0.25303 -2.00397,0.39472c-3.19826,0.70847 -4.83787,1.06271 -4.91884,1.06271c-2.53027,0 -4.14964,-0.334 -4.85811,-1.00199c-0.52629,-0.48581 -0.62751,-1.3461 -0.30363,-2.58087c-0.99187,-0.48581 -2.76305,-0.81981 -5.31356,-1.00199c-2.85414,-0.18218 -4.29133,-0.27327 -4.31158,-0.27327c-6.63942,-0.12145 -10.02998,-0.25303 -10.17168,-0.39472c-1.35622,0.08097 -2.75293,0.28339 -4.19012,0.60726l-0.75908,0.15182c0.64775,0.64775 1.2955,1.09308 1.94325,1.33598c0.3846,0.16194 0.5769,0.37448 0.5769,0.63763c0,0.52629 -0.67811,0.94126 -2.03434,1.24489c-2.18615,0.44533 -6.1941,0.66799 -12.02383,0.66799c-0.44533,0 -1.33598,-0.06073 -2.67196,-0.18218c-1.43719,-0.12145 -2.23676,-0.21254 -2.39869,-0.27327l-20.58626,-0.15182c-14.02781,-1.57889 -22.82302,-2.36833 -26.38563,-2.36833c-7.87419,0 -12.28698,0.27327 -13.23836,0.81981c-0.24291,0.28339 -0.51617,0.48581 -0.81981,0.60726c-0.54654,0.20242 -1.75095,0.334 -3.61322,0.39472c-0.97162,0.04048 -2.76305,0.18218 -5.37429,0.42509c-2.51003,0.22266 -3.85613,0.334 -4.03831,0.334c-0.3846,0 -1.17405,-0.08097 -2.36833,-0.24291c-1.19429,-0.16194 -1.83191,-0.28339 -1.91288,-0.36436c-0.42509,-0.02024 -0.86029,-0.05061 -1.30562,-0.09109c-0.89065,-0.08097 -1.36634,-0.15182 -1.42707,-0.21254c-1.33598,0.04048 -2.8339,0.11133 -4.49376,0.21254c-1.6801,0.10121 -3.10717,0.16194 -4.28121,0.18218c-0.20242,-0.04048 -0.34412,-0.08097 -0.42509,-0.12145c-0.12145,-0.08097 -0.18218,-0.28339 -0.18218,-0.60726c0,-0.10121 0.04048,-0.21254 0.12145,-0.334c-0.16194,0.02024 -0.30363,0.04048 -0.42509,0.06073c-0.20242,0.32388 -0.30363,0.23279 -0.30363,-0.27327c0,-0.3846 1.13356,-0.80969 3.40068,-1.27526c0.60726,-0.18218 1.27526,-0.30363 2.00397,-0.36436c2.55051,-0.44533 4.29133,-0.66799 5.22247,-0.66799c0.87041,0 1.81167,0.18218 2.82378,0.54654c1.01211,0.34412 2.71245,0.51617 5.10102,0.51617c4.02819,0 8.74461,-1.39671 14.14926,-4.19012c2.79342,-1.45743 4.82775,-2.42906 6.10301,-2.91487c2.34809,-0.87041 4.64557,-1.30562 6.89245,-1.30562c1.65986,0 3.12741,0.25303 4.40267,0.75908c1.25501,0.50605 2.3076,0.75908 3.15777,0.75908c3.46141,0 6.61918,-1.36634 9.47332,-4.09903c0.56678,-0.54654 1.65986,-1.7307 3.27923,-3.5525c1.27526,-1.43719 2.33797,-2.47966 3.18814,-3.12741c1.78131,-1.35622 4.1294,-3.25898 7.04427,-5.70828c2.69221,-1.94325 5.82974,-3.46141 9.4126,-4.55448c3.78528,-1.17405 8.01589,-0.48581 12.69182,2.0647c3.90673,2.10518 6.58882,4.38242 8.04625,6.83172c1.19429,1.43719 2.90475,3.59298 5.13138,6.46736c2.0647,2.4493 4.22049,4.39255 6.46736,5.82974c0.74896,-0.06073 2.10518,-0.31375 4.06867,-0.75908c1.72058,-0.40484 2.99584,-0.60726 3.82577,-0.60726c3.03632,0 5.58683,0.86029 7.65153,2.58087c1.09308,0.89065 2.13555,2.00397 3.12741,3.33995c0.50605,0.42509 1.13356,0.97162 1.88252,1.63961c0.7692,0.48581 1.96349,0.7692 3.58286,0.85017c2.16591,0.1417 4.02819,0.29351 5.58683,0.45545c0.54654,-0.04048 1.06271,-0.06073 1.54852,-0.06073M1168.76021,429.43772c-0.3846,0.26315 -0.89065,0.39472 -1.51816,0.39472c-0.40484,0 -0.89065,-0.06073 -1.45743,-0.18218c-0.74896,-0.16194 -1.88252,-0.30363 -3.40068,-0.42509c-0.50605,-0.20242 -0.86029,-0.45545 -1.06271,-0.75908c0,-0.24291 0.10121,-0.50605 0.30363,-0.78944c0.22266,-0.30363 0.47569,-0.49593 0.75908,-0.5769h4.25085c0.66799,0.3846 1.18417,0.7186 1.54852,1.00199c0.42509,0.32388 0.81981,0.59714 1.18417,0.81981c-0.20242,0.20242 -0.40484,0.37448 -0.60726,0.51617M1209.68982,317.94399c0,-0.22266 0.10121,-0.41496 0.30363,-0.5769c0.20242,-0.1417 0.30363,-0.25303 0.30363,-0.334c5.06054,0.20242 7.69201,0.50605 7.89444,0.9109c-0.40484,0.20242 -3.23874,0.20242 -8.5017,0M1269.20172,324.6239c-3.76504,0.12145 -7.98553,0.1417 -12.66146,0.06073c-4.61521,-0.08097 -7.47947,-0.10121 -8.59279,-0.06073c-1.80155,0 -3.89661,-0.28339 -6.28519,-0.85017c-2.34809,-0.56678 -4.09903,-1.19429 -5.25284,-1.88252c-0.20242,-0.12145 -0.82993,0.07085 -1.88252,0.5769c-1.25501,0.62751 -2.4493,0.94126 -3.58286,0.94126c-2.9756,0 -4.88848,-0.56678 -5.73865,-1.70034c-0.46557,-0.74896 -0.85017,-1.33598 -1.1538,-1.76107c-0.56678,-0.7692 -1.30562,-1.43719 -2.21651,-2.00397c0.78944,-0.10121 2.59099,-1.03235 5.40465,-2.79342c3.64359,-2.24688 6.16373,-3.71443 7.56044,-4.40267c6.33579,-3.15777 9.09884,-1.77119 8.28916,4.15976c3.25898,0.97162 7.67177,2.46954 13.23836,4.49376c5.60707,2.02422 10.50567,3.66383 14.6958,4.91884l0.30363,0.9109c-1.41695,0 -2.12543,-0.20242 -2.12543,-0.60726z" fill="#fcd9a4" stroke="#000000" stroke-width="0" stroke-linecap="round"/></g></g></svg>