<svg version="1.1" xmlns="http://www.w3.org/2000/svg" xmlns:xlink="http://www.w3.org/1999/xlink" width="354.1" height="88.12222" viewBox="0,0,354.1,88.12222"><g transform="translate(-462.95,-315.93889)"><g data-paper-data="{&quot;isPaintingLayer&quot;:true}" fill="#ffffff" fill-rule="nonzero" stroke="none" stroke-width="1" stroke-linecap="butt" stroke-linejoin="miter" stroke-miterlimit="10" stroke-dasharray="" stroke-dashoffset="0" style="mix-blend-mode: normal"><path d="M556.15,329.81111c0,1.23333 -1.1,6.25 -3.3,15.05c-2.6,10.26667 -3.98333,15.83333 -4.15,16.7c-0.13333,0.63333 -1.23333,6.1 -3.3,16.4c-2.23333,9.96667 -3.98333,14.95 -5.25,14.95c-0.3,0 -0.56667,-0.03333 -0.8,-0.1c-0.1,0.06667 -0.2,0.13333 -0.3,0.2c-1,0.5 -2.96667,0.63333 -5.9,0.4c-3.13333,-0.23333 -6.03333,-0.03333 -8.7,0.6c-3.13333,0.76667 -6.15,1.15 -9.05,1.15c-2.76667,0 -4.4,-1.2 -4.9,-3.6c-0.16667,-3.1 -0.6,-5.35 -1.3,-6.75l-0.25,-0.25c-0.76667,2.36667 -1.53333,4.36667 -2.3,6c-0.63333,1.46667 -0.98333,2.65 -1.05,3.55c-0.16667,0.2 -1.73333,0.3 -4.7,0.3c-1.33333,0 -4.83333,0.46667 -10.5,1.4c-5.43333,0.9 -8.26667,1.35 -8.5,1.35c-1.73333,0 -3.35,-2.05 -4.85,-6.15c-0.4,-1.13333 -1.28333,-4.28333 -2.65,-9.45c-1.93333,-7 -3.33333,-12.25 -4.2,-15.75c-0.93333,-3.73333 -2.25,-9.48333 -3.95,-17.25c-1.86667,-8.53333 -2.8,-13.28333 -2.8,-14.25v-0.05c-0.33333,-1.33333 -0.5,-2.01667 -0.5,-2.05c0,-2.03333 3.41667,-3.58333 10.25,-4.65c10,-1.6 16.65,-3.01667 19.95,-4.25c2.7,2.36667 4.26667,5.25 4.7,8.65c0.23333,1.93333 0.33333,4.75 0.3,8.45c0.23333,2 0.7,4.88333 1.4,8.65c0.93333,4.93333 1.46667,7.8 1.6,8.6c0.06667,-0.1 1.65,-3.21667 4.75,-9.35c2.3,-4.6 3.88333,-6.9 4.75,-6.9c1.5,0 2.65,1.3 3.45,3.9c0.43333,1.4 0.88333,3.43333 1.35,6.1c0,0.03333 0.43333,0.91667 1.3,2.65c0.36667,-1.36667 0.78333,-3.05 1.25,-5.05c0.86667,-3.66667 1.5,-6.31667 1.9,-7.95l1.75,-7.9c0.16667,-1.76667 0.35,-3.01667 0.55,-3.75c-0.33333,-1.06667 -0.16667,-1.73333 0.5,-2c1.03333,-0.4 4.68333,-0.26667 10.95,0.4l14.3,-0.25c3.26667,-1 5.58333,-1.06667 6.95,-0.2c0.83333,0.5 1.25,1.31667 1.25,2.45M549.9,332.41111h-22.95c-0.7,2.2 -1.43333,4.78333 -2.2,7.75c-0.46667,1.7 -1.15,4.33333 -2.05,7.9c-1.2,4.56667 -1.91667,7.23333 -2.15,8c-0.36667,1.2 -0.76667,2.31667 -1.2,3.35c0.4,1 0.6,1.63333 0.6,1.9c0,0.7 -0.15,1.3 -0.45,1.8c-0.43333,0.63333 -1.05,0.95 -1.85,0.95c-0.6,0 -1.21667,-0.3 -1.85,-0.9l-0.4,-0.1c0,-0.13333 0,-0.25 0,-0.35c-0.8,-0.93333 -1.6,-2.3 -2.4,-4.1c-0.66667,-1.46667 -1.6,-3.98333 -2.8,-7.55l-0.05,-0.25c-2.46667,3.86667 -4.11667,6.98333 -4.95,9.35c-0.33333,0.93333 -0.63333,2.78333 -0.9,5.55c-0.43333,2.3 -1.48333,3.45 -3.15,3.45c-1.83333,0 -3.35,-2.68333 -4.55,-8.05c-1,-6.16667 -1.71667,-10.06667 -2.15,-11.7c-0.56667,-2.3 -1.08333,-5.55 -1.55,-9.75c-0.56667,-5.2 -0.98333,-8.56667 -1.25,-10.1l-0.2,-0.4c-3.73333,0.96667 -6.65,1.66667 -8.75,2.1c-3.6,0.73333 -8.43333,1.36667 -14.5,1.9c-0.03333,-0.1 -0.06667,-0.15 -0.1,-0.15c-0.1,0 -0.15,0.26667 -0.15,0.8c0,0.93333 1.05,6.63333 3.15,17.1c0.43333,2.23333 0.93333,4.73333 1.5,7.5c0.2,0.76667 0.4,1.48333 0.6,2.15c1.1,3.5 2.6,8.75 4.5,15.75c1.8,6.26667 3.7,11.46667 5.7,15.6c0.4,0 2.73333,-0.35 7,-1.05c5.03333,-0.83333 8.8,-1.4 11.3,-1.7c1.83333,-4.36667 3.25,-7.75 4.25,-10.15c1.83333,-4.4 3.23333,-6.6 4.2,-6.6c1.1,0 2.21667,2.45 3.35,7.35c0.6,2.6 1.25,6.06667 1.95,10.4l-0.35,0.1c-0.13333,0.03333 0.06667,0.05 0.6,0.05c2.53333,0 5.26667,-0.31667 8.2,-0.95c2.93333,-0.63333 5.6,-0.95 8,-0.95c2.03333,0 3.2,0.01667 3.5,0.05c0.9,0.06667 1.65,0.2 2.25,0.4c0.06667,-0.53333 0.6,-2.8 1.6,-6.8c1.2,-4.66667 1.83333,-7.13333 1.9,-7.4c0.66667,-3 1.16667,-5.3 1.5,-6.9c0.6,-2.9 0.93333,-5.21667 1,-6.95c1.13333,-3.83333 2.3,-8.53333 3.5,-14.1c1.26667,-6.16667 2.26667,-10.85 3,-14.05l-0.25,-0.25M601.95,337.41111c0,3.16667 0.06667,6.48333 0.2,9.95c-0.06667,1.93333 -0.56667,3.11667 -1.5,3.55c-0.66667,0.26667 -2.73333,0.45 -6.2,0.55c-4.86667,0.1 -9.53333,0.41667 -14,0.95l-0.05,7.5c4.26667,-0.56667 6.6,-0.85 7,-0.85c2.76667,0 4.23333,0.7 4.4,2.1c0.1,0.76667 -0.01667,1.9 -0.35,3.4c0.06667,0.33333 0.25,1.21667 0.55,2.65c0.26667,1.1 0.4,1.88333 0.4,2.35c0,1.43333 -0.53333,2.3 -1.6,2.6c-3.13333,0.53333 -6.76667,1.2 -10.9,2c0.33333,1 0.5,1.8 0.5,2.4l18.75,-0.15c0.63333,0.03333 1.15,0.21667 1.55,0.55c0.13333,-0.03333 0.28333,-0.05 0.45,-0.05c1.3,0 2.06667,1.36667 2.3,4.1c0.13333,1.36667 0.13333,2.76667 0,4.2c0,2.5 0.01667,5.36667 0.05,8.6c-0.06667,2.13333 -0.41667,3.58333 -1.05,4.35c-0.63333,0.8 -1.91667,1.3 -3.85,1.5c-1.13333,0.1 -3.95,0.15 -8.45,0.15c-7.46667,0 -13.16667,-0.28333 -17.1,-0.85c-4.4,-0.63333 -7.86667,-0.98333 -10.4,-1.05c-3.86667,-0.06667 -6.65,-0.28333 -8.35,-0.65c-1.93333,-0.36667 -2.96667,-0.98333 -3.1,-1.85c-0.13333,-0.7 -0.16667,-1.7 -0.1,-3c0.06667,-1.33333 0.1,-2.21667 0.1,-2.65c0,-2 0.5,-7.98333 1.5,-17.95c1,-9.63333 1.58333,-14.76667 1.75,-15.4c0.76667,-2.23333 1.36667,-5.05 1.8,-8.45c0.4,-3.8 0.71667,-6.6 0.95,-8.4c0.06667,-1.06667 0.25,-2.45 0.55,-4.15c0.33333,-1.86667 0.56667,-3.23333 0.7,-4.1c0.03333,-0.86667 0.08333,-1.53333 0.15,-2c0.1,-0.9 0.3,-1.61667 0.6,-2.15c0.2,-0.33333 0.41667,-0.6 0.65,-0.8c0.03333,-0.16667 0.06667,-0.31667 0.1,-0.45c0.16667,-0.5 0.68333,-0.81667 1.55,-0.95c1.7,-0.3 5.25,-0.4 10.65,-0.3c4.1,0.06667 9.45,-0.2 16.05,-0.8c6.73333,-0.63333 10.38333,-0.95 10.95,-0.95c1.8,1 2.8,3.11667 3,6.35c0.1,1.83333 0.03333,4.55 -0.2,8.15M591.65,346.41111c3.36667,-0.16667 5.05,-0.36667 5.05,-0.6v-4.5c0,-5.76667 0.16667,-10.15 0.5,-13.15c-2.46667,0 -8.6,0.18333 -18.4,0.55c-9.13333,0.36667 -14.25,0.51667 -15.35,0.45c-0.36667,1.7 -0.96667,4.35 -1.8,7.95c-0.5,5.66667 -1.36667,12.9 -2.6,21.7c-2.06667,14.6 -3.1,24.65 -3.1,30.15c0,1.1 0.03333,1.81667 0.1,2.15c0.23333,0.93333 0.76667,1.45 1.6,1.55c2.53333,0.26667 6.71667,0.6 12.55,1c8.73333,0.6 15.41667,0.9 20.05,0.9c4.06667,0 6.48333,-0.21667 7.25,-0.65c0.53333,-0.33333 0.93333,-1.53333 1.2,-3.6v-4.5c-0.26667,-1.9 -0.41667,-3.41667 -0.45,-4.55c-3.1,0.2 -9.46667,0.3 -19.1,0.3c-2.5,0 -3.75,-2.46667 -3.75,-7.4c0,-1.6 0.43333,-2.8 1.3,-3.6c1.73333,-1.63333 5.3,-2.55 10.7,-2.75l-0.75,-4c-4.6,1.16667 -7.35,1.75 -8.25,1.75c-1.9,0 -2.88333,-0.91667 -2.95,-2.75c0.33333,-2 0.48333,-3.16667 0.45,-3.5l-0.2,-9.4c0,-0.53333 0.15,-1.03333 0.45,-1.5c0.2,-0.23333 0.53333,-0.48333 1,-0.75l11,-0.5c0.33333,0 1.5,-0.25 3.5,-0.75M659.7,324.01111c0.23333,0.4 0.38333,0.81667 0.45,1.25c0,1.5 -0.2,3.88333 -0.6,7.15c-0.2,1.73333 -0.5,4.11667 -0.9,7.15c-0.13333,1.2 -0.2,3.56667 -0.2,7.1c0,0.76667 -0.25,1.4 -0.75,1.9c-0.16667,0.16667 -1.61667,0.38333 -4.35,0.65c-3.03333,0.26667 -4.6,0.41667 -4.7,0.45c-3.46667,1 -6.8,1.75 -10,2.25c-0.1,0.4 -0.18333,1.53333 -0.25,3.4v0.25l8.25,-1h3c1.83333,1 2.81667,2.23333 2.95,3.7c0.06667,0.86667 0.1,2.21667 0.1,4.05c0.23333,0.9 0.35,2.21667 0.35,3.95c0,0.93333 -0.03333,2.03333 -0.1,3.3c0,1.76667 -0.2,2.9 -0.6,3.4c-1.33333,1.6 -4.56667,2.33333 -9.7,2.2l-1.2,0.25v4.4c12,-1.3 18,-0.5 18,2.4c0,0.33333 -0.01667,0.63333 -0.05,0.9c0.93333,0.33333 1.41667,1.1 1.45,2.3c0.03333,0.93333 -0.1,2.31667 -0.4,4.15c0,0.66667 0.08333,1.8 0.25,3.4c0.16667,1.6 0.25,2.58333 0.25,2.95c0,2.06667 -0.1,3.45 -0.3,4.15c-0.06667,0.3 -0.48333,0.63333 -1.25,1c-0.5,-0.06667 -3.58333,0.05 -9.25,0.35c-0.83333,0 -3.33333,0.41667 -7.5,1.25h-25c-5.66667,-0.43333 -8.73333,-0.88333 -9.2,-1.35c-0.36667,-0.36667 -0.55,-1.08333 -0.55,-2.15c0.06667,-1.6 0.06667,-3.05 0,-4.35v-8.3c0,-7.73333 0.16667,-13.6 0.5,-17.6c0.2,-1.96667 0.38333,-4.85 0.55,-8.65c0.16667,-4.1 0.33333,-7.08333 0.5,-8.95c0.26667,-1.93333 0.51667,-4.81667 0.75,-8.65c0.26667,-4.26667 0.5,-7.26667 0.7,-9c0.33333,-3.46667 0.5,-6.33333 0.5,-8.6h0.05c-0.1,-1.16667 -0.11667,-1.83333 -0.05,-2c0.03333,-0.16667 0.63333,-0.15 1.8,0.05c0.13333,0.03333 0.26667,0.05 0.4,0.05c0.1,0 0.2,0.01667 0.3,0.05c5.16667,0.73333 12.58333,0.6 22.25,-0.4h21.5c0.86667,-0.03333 1.55,0.36667 2.05,1.2M654.7,328.41111c-2.03333,-0.06667 -3.45,-0.18333 -4.25,-0.35h-14.3c-1.46667,0.33333 -4.65,0.53333 -9.55,0.6c-5.7,0.06667 -9.58333,-0.26667 -11.65,-1c-0.03333,0.06667 -0.05,0.15 -0.05,0.25c0,0.4 0,0.83333 0,1.3c0,2.33333 -0.36667,9.86667 -1.1,22.6c-0.66667,11.6 -1.13333,19.13333 -1.4,22.6v22.9l2.5,0.1c1.76667,0.06667 2.85,0.15 3.25,0.25h24c1.8,-0.36667 3.18333,-0.61667 4.15,-0.75c2.2,-0.26667 5.5,-0.51667 9.9,-0.75c-0.33333,-3 -0.5,-5.38333 -0.5,-7.15c0,-2.2 0,-3.31667 0,-3.35c0.06667,-0.4 0.16667,-0.76667 0.3,-1.1c-1.13333,0.03333 -2.58333,0.06667 -4.35,0.1c-0.03333,-0.5 -2.16667,-0.66667 -6.4,-0.5c-4.63333,0.2 -7,0.28333 -7.1,0.25c-0.6,-0.16667 -1.01667,-0.53333 -1.25,-1.1c-0.13333,-0.23333 -0.2,-0.86667 -0.2,-1.9v-3.75c0,-4.03333 0.31667,-6.26667 0.95,-6.7c0.26667,-0.16667 3.43333,-0.6 9.5,-1.3c0.63333,-0.46667 1.03333,-1.28333 1.2,-2.45c0.03333,-0.3 0.05,-1.05 0.05,-2.25c0,-0.4 -0.08333,-1.33333 -0.25,-2.8c-0.16667,-1.46667 -0.25,-2.46667 -0.25,-3c-1.76667,0.4 -3.95,0.75 -6.55,1.05c-2.23333,0.23333 -3.96667,0.35 -5.2,0.35c-1.16667,-0.46667 -1.91667,-1.68333 -2.25,-3.65c-0.13333,-0.86667 -0.2,-2.5 -0.2,-4.9c0,-1.53333 0.06667,-2.5 0.2,-2.9c0.4,-1.16667 1.4,-1.85 3,-2.05c1.26667,-0.13333 2.86667,-0.41667 4.8,-0.85c1.03333,-0.23333 2.18333,-0.5 3.45,-0.8c0.06667,0 0.71667,-0.18333 1.95,-0.55c0.96667,-0.26667 1.65,-0.41667 2.05,-0.45c2.1,-0.16667 3.43333,-0.33333 4,-0.5c0.36667,-0.1 0.55,-0.26667 0.55,-0.5c0,-2.23333 0.33333,-5.85 1,-10.85v-4.15M713.4,322.91111c1.7,1.23333 4.86667,2.9 9.5,5c2.83333,1.3 4.25,2.66667 4.25,4.1c0,0.23333 -1.03333,2.51667 -3.1,6.85c-1.1,2.26667 -2.48333,5.11667 -4.15,8.55c-1.3,3.1 -2.53333,5.75 -3.7,7.95c-0.76667,1.53333 -1.48333,2.8 -2.15,3.8c0.5,0.86667 1.51667,2.53333 3.05,5c0.76667,1.2 1.41667,2.33333 1.95,3.4c1.4,1.66667 3.03333,3.7 4.9,6.1c0.5,0.73333 1.45,2.15 2.85,4.25c1.33333,1.93333 2.46667,3.4 3.4,4.4c0.6,0.63333 2.11667,1.88333 4.55,3.75c2.13333,1.83333 3.2,3.3 3.2,4.4c0,1.36667 -1,2.43333 -3,3.2c-4.2,1.66667 -7.3,3.08333 -9.3,4.25c-0.73333,0.46667 -2.86667,1.58333 -6.4,3.35c-3.66667,1.86667 -5.61667,2.8 -5.85,2.8c-2.03333,0 -6.35,-4.88333 -12.95,-14.65c-2.43333,-3.63333 -4.4,-6.61667 -5.9,-8.95c0.2,1.53333 0.4,3.65 0.6,6.35c0.06667,0.36667 0.46667,2.41667 1.2,6.15c0.73333,3.8 1.1,6.23333 1.1,7.3c0,1.7 -1.26667,2.55 -3.8,2.55c-0.03333,0 -0.86667,-0.15 -2.5,-0.45c-1.8,-0.33333 -6.63333,-0.56667 -14.5,-0.7c-1.83333,-0.03333 -4.18333,-0.28333 -7.05,-0.75c-2.6,-0.4 -3.91667,-0.65 -3.95,-0.75c-0.16667,-0.46667 -0.25,-1.01667 -0.25,-1.65c0,-0.76667 0,-1.33333 0,-1.7v-6.75c-0.16667,-2.3 -0.33333,-6.93333 -0.5,-13.9c-0.83333,-17.63333 -1.25,-26.86667 -1.25,-27.7c0.06667,-1.23333 0.13333,-2.41667 0.2,-3.55h-0.15c0,-2.23333 -0.11667,-5.63333 -0.35,-10.2c-0.26667,-4.53333 -0.4,-6.83333 -0.4,-6.9c0,-0.93333 0.58333,-1.76667 1.75,-2.5c0,-0.06667 0,-0.11667 0,-0.15c0.1,0 0.18333,0 0.25,0c1.1,-0.66667 2.63333,-1.23333 4.6,-1.7c6.66667,-1.66667 10.45,-2.71667 11.35,-3.15c5.8,-2.73333 9.53333,-4.18333 11.2,-4.35c1.86667,-0.2 2.8,0.95 2.8,3.45c0,0.83333 -0.33333,5.88333 -1,15.15l0.05,4.6c1.03333,-2.33333 2.58333,-7.28333 4.65,-14.85c0.66667,-2.46667 1.36667,-4.3 2.1,-5.5c-0.03333,-0.1 -0.05,-0.21667 -0.05,-0.35c0,-2.6 1.85,-2.76667 5.55,-0.5c1.93333,1.16667 4.33333,2.81667 7.2,4.95M713.6,329.06111c-2.96667,-1.63333 -5.01667,-2.93333 -6.15,-3.9c-1.5,-0.96667 -2.7,-1.75 -3.6,-2.35c-0.93333,2.93333 -2.66667,7.51667 -5.2,13.75c-0.43333,1.13333 -1.35,3.95 -2.75,8.45c-1.1,3.5 -2.18333,6.26667 -3.25,8.3c-1.53333,-0.63333 -2.25,-1.53333 -2.15,-2.7c0.43333,-1.26667 0.65,-2.15 0.65,-2.65c-0.5,-10.86667 -0.66667,-19.03333 -0.5,-24.5l-0.2,-1.15v-0.4c-3,1.26667 -7.18333,2.81667 -12.55,4.65c-3.56667,0.6 -6.13333,1.03333 -7.7,1.3c-0.8,0.13333 -1.48333,0.33333 -2.05,0.6c-0.03333,0.93333 -0.18333,2.16667 -0.45,3.7c0.06667,1.1 0.05,2.66667 -0.05,4.7c-0.13333,2.3 -0.2,3.86667 -0.2,4.7c0.03333,2.16667 0.21667,5.23333 0.55,9.2c0.4,4.36667 0.63333,7.41667 0.7,9.15c0.16667,4 0.36667,10.06667 0.6,18.2c0.23333,8.13333 0.43333,14.2 0.6,18.2l3,0.1c2.1,0.06667 3.35,0.15 3.75,0.25l12.5,0.15c0.66667,0 1.76667,0.08333 3.3,0.25c-1.16667,-11.5 -1.75,-18.36667 -1.75,-20.6c0,-0.33333 0.13333,-0.76667 0.4,-1.3c0.06667,-0.1 0.11667,-0.2 0.15,-0.3c-0.06667,-0.2 -0.1,-0.33333 -0.1,-0.4l0.05,-1.55l0.35,-0.25c0.23333,-0.16667 0.6,-0.25 1.1,-0.25c0.53333,0 4.05,4.36667 10.55,13.1c6.5,8.7 9.9,13.05 10.2,13.05c1.2,0 4.11667,-1.31667 8.75,-3.95c3.13333,-1.8 5.96667,-3.53333 8.5,-5.2c-2.2,-2.1 -6.33333,-7.13333 -12.4,-15.1c-6.06667,-8.03333 -9.1,-12.48333 -9.1,-13.35c0,-0.1 0,-0.2 0,-0.3v-0.05c-0.16667,-0.36667 -0.25,-0.81667 -0.25,-1.35c0,-0.96667 1.81667,-5.15 5.45,-12.55c4.16667,-8.5 6.36667,-13.05 6.6,-13.65c-3.23333,-1.73333 -5.68333,-3.06667 -7.35,-4M814.55,325.41111c0.1,2.26667 0.26667,5.76667 0.5,10.5c0.06667,1.23333 0.21667,4.68333 0.45,10.35c0.16667,4.36667 0.35,7.91667 0.55,10.65v25.9c0.23333,1.76667 0.46667,3.95 0.7,6.55c0.2,2.43333 0.3,4 0.3,4.7c-0.06667,3.66667 -0.48333,5.78333 -1.25,6.35c-1.4,1 -8.06667,2.08333 -20,3.25c-2.13333,0 -3.35,-2.25 -3.65,-6.75c0.06667,-5.26667 0.08333,-8.71667 0.05,-10.35l-0.65,-16.85c0,-0.2 0,-0.4 0,-0.6c-1.9,0.53333 -4.56667,0.76667 -8,0.7c-2.73333,-0.03333 -8.35,0.38333 -16.85,1.25c-7.3,0.76667 -11.28333,1.18333 -11.95,1.25c-0.33333,0.33333 -0.66667,0.65 -1,0.95c-0.13333,-0.13333 -0.23333,-0.26667 -0.3,-0.4c-0.06667,-0.26667 -0.11667,-0.5 -0.15,-0.7c-0.73333,-0.16667 -1.26667,-0.46667 -1.6,-0.9c0.46667,-0.4 0.93333,-0.8 1.4,-1.2c0.2,-2.4 1.21667,-6.85 3.05,-13.35c2.33333,-7.63333 3.53333,-11.65 3.6,-12.05c0.26667,-1.13333 0.85,-3.26667 1.75,-6.4c0.4,-1.43333 0.75,-2.7 1.05,-3.8c0.1,-1.66667 0.23333,-2.8 0.4,-3.4c0.06667,-0.43333 0.13333,-1.26667 0.2,-2.5c0.06667,-1.23333 0.16667,-2.15 0.3,-2.75c0.16667,-1.13333 0.73333,-1.88333 1.7,-2.25c0.46667,-1.3 1.06667,-1.98333 1.8,-2.05c0.7,-0.1 1.18333,0.33333 1.45,1.3c2.56667,-0.33333 6.26667,-0.5 11.1,-0.5c3.3,0 5.41667,0.35 6.35,1.05c0.36667,0.23333 0.58333,0.76667 0.65,1.6c0.13333,1.33333 -1.21667,9.06667 -4.05,23.2c5.63333,-0.26667 9.41667,-0.63333 11.35,-1.1c0,-0.13333 -0.11667,-0.55 -0.35,-1.25c-0.16667,-0.56667 -0.25,-1.1 -0.25,-1.6c0.33333,-6.86667 0.5,-12.05 0.5,-15.55v-7.5c1.23333,-1.33333 3.28333,-2.21667 6.15,-2.65c1.46667,-0.2 3.08333,-0.31667 4.85,-0.35c5.63333,-1 8.58333,-0.41667 8.85,1.75c0.03333,0.1 0.08333,0.18333 0.15,0.25c0.53333,2.3 0.81667,4.05 0.85,5.25M798.45,324.56111l0.1,25.65c0,1.76667 -0.88333,2.63333 -2.65,2.6c-2,-0.33333 -3.2,-0.46667 -3.6,-0.4c-5.5,0.7 -8.91667,1.16667 -10.25,1.4c-0.4,0.06667 -1,0.26667 -1.8,0.6c-0.66667,0.26667 -1.23333,0.4 -1.7,0.4c-0.56667,0 -1.03333,-0.11667 -1.4,-0.35c-0.2,0.16667 -0.4,0.35 -0.6,0.55c-0.2,-0.7 -0.3,-1.06667 -0.3,-1.1c0,-0.16667 0.01667,-0.43333 0.05,-0.8c-0.03333,-0.03333 -0.05,-0.06667 -0.05,-0.1l0.05,-0.05c0.13333,-1.66667 0.65,-5.25 1.55,-10.75c1.13333,-6.86667 2,-11.58333 2.6,-14.15c-1.63333,-0.26667 -2.86667,-0.4 -3.7,-0.4c-0.63333,0.1 -3.41667,0.15 -8.35,0.15c-0.06667,0.03333 -0.11667,0.08333 -0.15,0.15c-0.63333,4.03333 -2.05,10.48333 -4.25,19.35c-1.36667,5.46667 -3.03333,11.86667 -5,19.2c2.86667,-0.2 8.2,-0.63333 16,-1.3c10.4,-0.93333 16,-1.4 16.8,-1.4c1.33333,0 2.25,0.4 2.75,1.2c0.1,0.16667 0.2,0.35 0.3,0.55c1.03333,1.63333 1.66667,5.56667 1.9,11.8c0.16667,4.63333 0.4,11.36667 0.7,20.2l-0.15,0.15c-0.03333,0.06667 0.21667,0.1 0.75,0.1c7.9,0 12.56667,-0.56667 14,-1.7c0.8,-0.63333 0.8,-1.48333 0,-2.55c0,-0.66667 -0.1,-2.05 -0.3,-4.15c-0.23333,-2.2 -0.46667,-4.11667 -0.7,-5.75v-25.5c-0.3,-3.76667 -0.63333,-9.88333 -1,-18.35c-0.53333,-8.83333 -0.85,-14.4 -0.95,-16.7c-2.36667,0.43333 -5.91667,0.91667 -10.65,1.45z"/></g></g></svg>