<svg version="1.1" xmlns="http://www.w3.org/2000/svg" xmlns:xlink="http://www.w3.org/1999/xlink" width="48.95716" height="76.12948" viewBox="0,0,48.95716,76.12948"><g transform="translate(-603.52142,-333.93526)"><g data-paper-data="{&quot;isPaintingLayer&quot;:true}" fill-rule="nonzero" stroke="none" stroke-width="1" stroke-linecap="round" stroke-linejoin="miter" stroke-miterlimit="4" stroke-dasharray="" stroke-dashoffset="0" style="mix-blend-mode: normal"><path d="M617.78342,335.58669c4.26667,2.66667 7.53333,4.86667 9.8,6.6c1.4,1.06667 3.55,2.86667 6.45,5.4c2.76667,2.4 4.93333,4.18333 6.5,5.35c0.96667,0.73333 2.43333,1.81667 4.4,3.25c1.66667,1.26667 3.01667,2.46667 4.05,3.6c1.3,1.43333 2.25,2.98333 2.85,4.65c0.66667,1.83333 0.81667,3.6 0.45,5.3c-0.3,1.36667 -0.95,2.75 -1.95,4.15c-0.63333,0.86667 -1.68333,2.03333 -3.15,3.5l-16.75,17.1c-5.4,5.53333 -9.55,9.56667 -12.45,12.1c-2.2,2 -4.15,3.13333 -5.85,3.4c-1.7,0.26667 -3.35,-0.15 -4.95,-1.25c-1.5,-1.06667 -2.55,-2.46667 -3.15,-4.2c-0.53333,-1.56667 -0.65,-3.28333 -0.35,-5.15c0.26667,-1.7 0.85,-3.36667 1.75,-5c1.13333,-2.06667 3.38333,-4.78333 6.75,-8.15l17.15,-17.1c-8.5,-6.63333 -14.91667,-11.76667 -19.25,-15.4c-2.33333,-1.93333 -3.93333,-3.56667 -4.8,-4.9c-1.46667,-2.3 -1.95,-4.48333 -1.45,-6.55c0.3,-1.26667 1.03333,-2.5 2.2,-3.7c0.73333,-0.73333 1.86667,-1.66667 3.4,-2.8c1.76667,-1.2 3.13333,-1.81667 4.1,-1.85c1.1,-0.03333 2.51667,0.51667 4.25,1.65M626.13342,348.43669c-2.9,-2.53333 -7.53333,-5.53333 -13.9,-9c-0.2,0.33333 -0.76667,0.96667 -1.7,1.9c-0.76667,0.7 -1.2,1.36667 -1.3,2c-0.13333,1.1 0.55,2.33333 2.05,3.7c2.8,2.5 6.56667,5.58333 11.3,9.25c6.3,4.9 10.13333,7.9 11.5,9c1.23333,1.03333 1.95,1.93333 2.15,2.7c0.4,1.56667 -0.45,3.31667 -2.55,5.25l-9.7,9.35c-3.16667,3.06667 -5.5,5.4 -7,7c-2.5,2.66667 -4.6,5.2 -6.3,7.6c-1.2,1.7 -1.73333,3.11667 -1.6,4.25c0.1,0.8 0.51667,1.45 1.25,1.95c0.76667,0.46667 1.46667,0.5 2.1,0.1c2.6,-1.73333 5.51667,-4.4 8.75,-8c4.6,-5.1 7.3,-8.03333 8.1,-8.8l13.7,-13.15c1,-0.93333 1.71667,-1.68333 2.15,-2.25c0.7,-0.93333 1.11667,-1.85 1.25,-2.75c0.16667,-1.13333 -0.08333,-2.3 -0.75,-3.5c-0.56667,-1.03333 -1.38333,-1.96667 -2.45,-2.8c-0.56667,-0.43333 -1.6,-1.13333 -3.1,-2.1c-1.33333,-0.83333 -2.33333,-1.55 -3,-2.15z" fill="#000000"/><path d="M643.17342,362.24669c1.06667,0.83333 1.88333,1.76667 2.45,2.8c0.66667,1.2 0.91667,2.36667 0.75,3.5c-0.13333,0.9 -0.55,1.81667 -1.25,2.75c-0.43333,0.56667 -1.15,1.31667 -2.15,2.25l-13.7,13.15c-0.8,0.76667 -3.5,3.7 -8.1,8.8c-3.23333,3.6 -6.15,6.26667 -8.75,8c-0.63333,0.4 -1.33333,0.36667 -2.1,-0.1c-0.73333,-0.5 -1.15,-1.15 -1.25,-1.95c-0.13333,-1.13333 0.4,-2.55 1.6,-4.25c1.7,-2.4 3.8,-4.93333 6.3,-7.6c1.5,-1.6 3.83333,-3.93333 7,-7l9.7,-9.35c2.1,-1.93333 2.95,-3.68333 2.55,-5.25c-0.2,-0.76667 -0.91667,-1.66667 -2.15,-2.7c-1.36667,-1.1 -5.2,-4.1 -11.5,-9c-4.73333,-3.66667 -8.5,-6.75 -11.3,-9.25c-1.5,-1.36667 -2.18333,-2.6 -2.05,-3.7c0.1,-0.63333 0.53333,-1.3 1.3,-2c0.93333,-0.93333 1.5,-1.56667 1.7,-1.9c6.36667,3.46667 11,6.46667 13.9,9l10.95,9.55c0.66667,0.6 1.66667,1.31667 3,2.15c1.5,0.96667 2.53333,1.66667 3.1,2.1z" fill="#ffffff"/></g></g></svg>