<svg version="1.1" xmlns="http://www.w3.org/2000/svg" xmlns:xlink="http://www.w3.org/1999/xlink" width="359.06" height="88.59122" viewBox="0,0,359.06,88.59122"><g transform="translate(-460.47,-315.70439)"><g data-paper-data="{&quot;isPaintingLayer&quot;:true}" fill="#ffffff" fill-rule="nonzero" stroke="none" stroke-width="1" stroke-linecap="butt" stroke-linejoin="miter" stroke-miterlimit="10" stroke-dasharray="" stroke-dashoffset="0" style="mix-blend-mode: normal"><path d="M555.37,333.99561c0,1.26667 -1.3,6.36667 -3.9,15.3c-2.46667,8.4 -4.36667,14.48333 -5.7,18.25c-0.26667,0.73333 -2.1,6.26667 -5.5,16.6c-1.06667,3.5 -1.76667,6.26667 -2.1,8.3c-0.33333,2.1 -1.35,3.48333 -3.05,4.15c-2.8,1.13333 -8.71667,1.7 -17.75,1.7c-0.3,0 -0.58333,0 -0.85,0c-0.1,0.1 -0.23333,0.21667 -0.4,0.35c-0.56667,0.46667 -1.28333,0.7 -2.15,0.7c-2.16667,0 -3.96667,-1.95 -5.4,-5.85c-1.2,-4.43333 -1.96667,-7.2 -2.3,-8.3l-0.4,-0.3c-0.43333,0.66667 -0.81667,1.63333 -1.15,2.9c-0.36667,1.36667 -0.51667,2.55 -0.45,3.55c0.06667,1.73333 0.06667,2.83333 0,3.3c-0.26667,1.33333 -1.01667,2 -2.25,2l-19.7,-0.25c-0.4,-0.1 -0.8,-0.21667 -1.2,-0.35c-0.2,0.03333 -0.41667,0.05 -0.65,0.05c-1.43333,0 -2.86667,-2.11667 -4.3,-6.35c-0.13333,-0.3 -0.25,-0.61667 -0.35,-0.95c-0.03333,-0.1 -0.06667,-0.21667 -0.1,-0.35c-0.46667,-1.43333 -0.91667,-3.06667 -1.35,-4.9c-0.26667,-1.26667 -0.5,-2.45 -0.7,-3.55c-0.53333,-1.7 -1.16667,-4.23333 -1.9,-7.6c-0.93333,-4.1 -1.58333,-6.85 -1.95,-8.25c-5.13333,-19.06667 -7.76667,-29.93333 -7.9,-32.6c-0.1,-0.03333 -0.2,-0.08333 -0.3,-0.15c-0.76667,-0.46667 -1.15,-1.06667 -1.15,-1.8c0,-1.06667 0.85,-1.91667 2.55,-2.55c0.26667,-0.1 0.71667,-0.23333 1.35,-0.4c0.6,-0.66667 1.1,-0.78333 1.5,-0.35c1.1,-0.26667 2.5,-0.6 4.2,-1c0.2,-0.03333 2.55,-0.88333 7.05,-2.55c3.06667,-1.16667 5.43333,-1.5 7.1,-1c2.5,1.3 3.93333,3.33333 4.3,6.1c0.2,1.56667 0.3,3.78333 0.3,6.65c0.46667,2.56667 1.46667,6.76667 3,12.6c1.53333,5.83333 2.56667,10.2 3.1,13.1c1.93333,-5.1 3.48333,-9.06667 4.65,-11.9c2.16667,-5.1 4,-7.65 5.5,-7.65c1.96667,0 4.63333,4.4 8,13.2c0.6,1.56667 1.18333,3.1 1.75,4.6c0.26667,-1.63333 0.65,-3.5 1.15,-5.6c1.4,-5.86667 2.21667,-9.36667 2.45,-10.5c-0.33333,-3.3 0.23333,-7 1.7,-11.1c0.1,-0.6 0.16667,-1.05 0.2,-1.35c0.06667,-0.56667 0.33333,-0.98333 0.8,-1.25c1.3,-0.76667 4.76667,-0.78333 10.4,-0.05c0.36667,0.13333 2.06667,0.13333 5.1,0h0.05c2.16667,-0.4 4.7,-0.45 7.6,-0.15c3.06667,0.3 5.61667,0.91667 7.65,1.85c2.3,1.03333 3.45,2.26667 3.45,3.7M544.72,336.14561c-2.33333,0 -5.96667,-0.38333 -10.9,-1.15c-4.93333,-0.73333 -7.53333,-1.1 -7.8,-1.1c-0.16667,0 -1.41667,4.5 -3.75,13.5c-2.2,8.5 -3.88333,14.66667 -5.05,18.5c0.06667,0.4 0.16667,0.78333 0.3,1.15c0,0.86667 -0.25,1.53333 -0.75,2c-0.4,0.4 -0.8,0.6 -1.2,0.6c-1.63333,0 -3.53333,-2.75 -5.7,-8.25c-2.26667,-6.4 -3.86667,-10.5 -4.8,-12.3c-0.5,0.66667 -2.28333,4.6 -5.35,11.8c-2.66667,6.23333 -4.46667,9.35 -5.4,9.35c-1.26667,0 -3.36667,-5.36667 -6.3,-16.1c-2.2,-8.06667 -4.25,-16.6 -6.15,-25.6c-0.63333,0.1 -3.26667,0.75 -7.9,1.95c-2.93333,0.76667 -5.25,1.28333 -6.95,1.55c0.16667,1.66667 0.48333,3.63333 0.95,5.9c0.3,1.1 0.55,2.13333 0.75,3.1c0.43333,1.73333 1.01667,3.83333 1.75,6.3c1.36667,4.7 2.23333,7.78333 2.6,9.25c4.93333,17.2 8.05,28.33333 9.35,33.4c0.06667,0.13333 0.15,0.28333 0.25,0.45h15.05c0.33333,-0.63333 0.71667,-2.05 1.15,-4.25l1.25,-6.4c1.2,-5.5 2.75,-8.25 4.65,-8.25c1.53333,0 4.05,4.13333 7.55,12.4c1.13333,2.73333 2.21667,5.48333 3.25,8.25c8.66667,-0.63333 14.23333,-1.11667 16.7,-1.45c1.36667,-6.06667 4.05,-15.13333 8.05,-27.2c4.16667,-12.66667 6.96667,-21.9 8.4,-27.7c-0.4,-0.2 -0.98333,-0.36667 -1.75,-0.5c-0.06667,0.06667 -0.15,0.13333 -0.25,0.2c-0.56667,0.4 -1.23333,0.6 -2,0.6M596.07,324.14561c2.5,0.86667 3.7,2.65 3.6,5.35c0,0.5 -0.11667,1.68333 -0.35,3.55c-0.2,1.46667 -0.25,2.6 -0.15,3.4c0.3,1.96667 0.56667,4.38333 0.8,7.25c0.26667,2.7 0.4,4.45 0.4,5.25c0,0.96667 -0.1,1.58333 -0.3,1.85c-0.3,0.46667 -1.06667,0.83333 -2.3,1.1c-1.5,0.3 -7.76667,0.85 -18.8,1.65c0,1.83333 -0.03333,3.21667 -0.1,4.15v0.3c1.86667,-0.06667 3.78333,-0.53333 5.75,-1.4c1.83333,-0.8 3.83333,-1.2 6,-1.2c0.76667,0 1.65,2.15 2.65,6.45c0.53333,2.1 0.96667,4.26667 1.3,6.5c0,0.93333 -0.38333,1.65 -1.15,2.15c-0.6,0.4 -1.23333,0.6 -1.9,0.6c-0.5,0 -1.63333,-0.2 -3.4,-0.6c-1.76667,-0.43333 -2.9,-0.65 -3.4,-0.65c-0.53333,0 -1.45,0.06667 -2.75,0.2c-1.26667,0.13333 -2.08333,0.2 -2.45,0.2l-2.05,0.25c0.36667,0.96667 1.05,2.16667 2.05,3.6l20.25,0.3c1.26667,0.73333 2.15,1.86667 2.65,3.4c0.23333,0.76667 0.35,1.53333 0.35,2.3c0,2.26667 -0.4,5.26667 -1.2,9c-1.16667,5.43333 -2.7,8.15 -4.6,8.15c-1.36667,-0.16667 -3.05,-0.33333 -5.05,-0.5c-4,-0.4 -8.96667,-0.66667 -14.9,-0.8l-24.65,-0.15c-1.4,-0.06667 -2.3,-0.55 -2.7,-1.45c-0.13333,-0.26667 -0.2,-0.8 -0.2,-1.6c0,-3.26667 1.18333,-12.31667 3.55,-27.15c2.4,-14.2 3.61667,-21.43333 3.65,-21.7c0.13333,-1.26667 0.48333,-3.18333 1.05,-5.75c0.7,-2.9 1.13333,-5 1.3,-6.3c0.13333,-1.3 0.26667,-2.31667 0.4,-3.05c0.23333,-1.26667 0.6,-2.23333 1.1,-2.9c0.26667,-0.36667 0.43333,-0.76667 0.5,-1.2c0.03333,-0.2 0.21667,-0.28333 0.55,-0.25c0.6,0 4.3,0.18333 11.1,0.55c4.5,0.06667 9.33333,-0.05 14.5,-0.35c5.03333,-0.36667 8,-0.53333 8.9,-0.5M586.97,330.89561c-4.36667,0.13333 -11.85,0.2 -22.45,0.2c-0.93333,6.3 -2.41667,16.05 -4.45,29.25c-1.73333,11.63333 -3.1,21.41667 -4.1,29.35l37.05,0.05l0.7,0.25c0.56667,0.1 1.05,0.15 1.45,0.15c0.2,-1.86667 0.7,-4.95 1.5,-9.25l-17.8,-0.3c-0.93333,0.06667 -1.98333,-1.3 -3.15,-4.1c-1.1,-2.5 -1.65,-4.25 -1.65,-5.25c-0.06667,-1.1 -0.06667,-1.86667 0,-2.3c0.1,-0.73333 0.48333,-1.28333 1.15,-1.65c1.56667,-0.93333 5.8,-1.41667 12.7,-1.45c-0.13333,-2.76667 -0.33333,-4.65 -0.6,-5.65c-2.33333,0.4 -4.13333,0.8 -5.4,1.2h-4.9c-1.23333,-0.86667 -2.1,-2.46667 -2.6,-4.8c-0.33333,-1.53333 -0.5,-3.58333 -0.5,-6.15c0,-1.4 1.13333,-2.35 3.4,-2.85c1.93333,-0.4 7.3,-0.91667 16.1,-1.55c-0.16667,-2.16667 -0.26667,-4.78333 -0.3,-7.85c0,-3.53333 0,-6.15 0,-7.85c-1.53333,0.23333 -3.58333,0.41667 -6.15,0.55M656.22,326.49561c0,0.83333 -0.1,2.58333 -0.3,5.25c-0.16667,2.83333 -0.33333,5.23333 -0.5,7.2c-0.06667,0.63333 -0.28333,2.63333 -0.65,6c-0.03333,0.56667 -0.16667,1.13333 -0.4,1.7c-0.3,0.66667 -0.66667,1.1 -1.1,1.3c-0.46667,0.23333 -2.5,0.3 -6.1,0.2c-1.13333,-0.06667 -4.48333,-0.23333 -10.05,-0.5l-2.6,0.6c0.13333,0.46667 0.36667,1.5 0.7,3.1c0.4,1.43333 0.8,2.46667 1.2,3.1c0.06667,-0.03333 1.25,-0.45 3.55,-1.25c0.9,-0.36667 2.63333,-0.55 5.2,-0.55c3.83333,0 5.81667,1.18333 5.95,3.55c0.06667,1.3 -0.25,3.28333 -0.95,5.95c0,1.86667 0.15,4.95 0.45,9.25c0,1.06667 -0.28333,1.8 -0.85,2.2c-1.5,1.03333 -4.73333,1.48333 -9.7,1.35l-1.15,0.45l0.95,1.8c2.56667,0 5.76667,-0.15 9.6,-0.45c3.86667,-0.3 5.83333,-0.45 5.9,-0.45c2.26667,0 3.61667,1.98333 4.05,5.95c0.23333,1.93333 0.23333,3.9 0,5.9c0,4.56667 0,6.88333 0,6.95c-0.6,3.43333 -2.45,5.15 -5.55,5.15l-21.55,-0.6c-1.9,-0.23333 -5.68333,-0.4 -11.35,-0.5c-5.5,-0.13333 -9.9,-0.41667 -13.2,-0.85c-1.5,-0.16667 -2.43333,-0.73333 -2.8,-1.7c-0.1,-0.3 -0.15,-1.01667 -0.15,-2.15c0.4,-9.03333 0.68333,-15.83333 0.85,-20.4v-44.55c0,-1.66667 1.18333,-2.88333 3.55,-3.65c3.86667,-1.26667 10.96667,-1.73333 21.3,-1.4c6.73333,0.23333 11.91667,0.01667 15.55,-0.65c3.23333,-0.63333 5.23333,-0.91667 6,-0.85c1.3,0.13333 2.35,0.61667 3.15,1.45c0.66667,0.63333 1,1.33333 1,2.1M643.37,330.34561c-2.56667,0.06667 -7.73333,0.13333 -15.5,0.2c-5,0.03333 -9.88333,0.16667 -14.65,0.4c-1.63333,0.66667 -2.48333,1.61667 -2.55,2.85c-0.06667,0.76667 0.05,2.03333 0.35,3.8v6.15c0,3.56667 0.03333,6.13333 0.1,7.7l0.2,41.3c0.06667,0 3.38333,-0.1 9.95,-0.3c0.96667,0 2.93333,0.08333 5.9,0.25c3.3,0.16667 5.21667,0.31667 5.75,0.45l17.95,0.3l0.75,0.2c0.6,0.06667 1.15,0.1 1.65,0.1v-10.55c-2.36667,0.63333 -4.7,1.08333 -7,1.35c-4.5,0.5 -7.76667,-0.18333 -9.8,-2.05c-0.3,-0.26667 -0.56667,-0.73333 -0.8,-1.4c-0.3,-0.83333 -0.48333,-1.3 -0.55,-1.4c-0.7,-1.33333 -1.08333,-2.11667 -1.15,-2.35c-0.56667,-1.13333 -0.85,-1.98333 -0.85,-2.55c0,-1.46667 0.43333,-2.43333 1.3,-2.9c1.56667,-0.86667 5.18333,-1.41667 10.85,-1.65v-11.95c-0.16667,0 -1.8,0.53333 -4.9,1.6c-3.03333,1 -5.08333,1.5 -6.15,1.5c-1.2,0 -2.48333,-2.4 -3.85,-7.2c-1.16667,-4.03333 -1.75,-6.51667 -1.75,-7.45c0,-1.13333 0.78333,-2.08333 2.35,-2.85c2.6,-1.2 6.91667,-1.58333 12.95,-1.15h5.35c0.8,-6.06667 1.2,-10.68333 1.2,-13.85c-1.66667,0.5 -4.03333,0.98333 -7.1,1.45M707.92,359.09561c1.5,1.46667 2.78333,3.21667 3.85,5.25c0.5,0.73333 1.6,2.55 3.3,5.45c1.33333,2.26667 2.55,4.13333 3.65,5.6c2.53333,3.43333 5.48333,7.65 8.85,12.65c3.73333,5.53333 5.6,8.6 5.6,9.2c0,1.23333 -0.48333,2.08333 -1.45,2.55c-1.5,0.73333 -4.5,1.1 -9,1.1c-10,-0.13333 -16.36667,-0.2 -19.1,-0.2c-2.36667,-1.96667 -4.2,-4.35 -5.5,-7.15c-1.26667,-3.33333 -2.38333,-5.96667 -3.35,-7.9c-0.86667,-1.43333 -1.71667,-2.86667 -2.55,-4.3c0,0.53333 0.01667,1.11667 0.05,1.75c1.46667,7.5 2.2,11.55 2.2,12.15c0,0.4 0.05,0.93333 0.15,1.6c-0.03333,0.6 -0.31667,1.08333 -0.85,1.45c-1.36667,0.9 -5.15,1.35 -11.35,1.35c-10.1,0 -15.78333,-0.3 -17.05,-0.9c-0.26667,-0.1 -0.48333,-0.41667 -0.65,-0.95c-0.16667,-0.43333 -0.25,-0.9 -0.25,-1.4c0,-0.46667 -0.08333,-1.15 -0.25,-2.05c-0.2,-0.96667 -0.31667,-1.66667 -0.35,-2.1c-0.3,-4 -0.5,-6.91667 -0.6,-8.75c-0.06667,-1.23333 -0.13333,-4.1 -0.2,-8.6c-0.03333,-3.7 -0.16667,-6.68333 -0.4,-8.95c-1.03333,-10.56667 -1.55,-22.01667 -1.55,-34.35c0,-2.33333 0.15,-4.21667 0.45,-5.65c0.03333,-0.13333 0.06667,-0.23333 0.1,-0.3c-0.3,-0.36667 -0.45,-0.9 -0.45,-1.6c0,-0.86667 0.45,-1.5 1.35,-1.9c1.26667,-0.53333 3.9,-1.01667 7.9,-1.45c0.66667,-0.03333 6,-1.11667 16,-3.25c2.53333,0 3.7,2.45 3.5,7.35c-0.13333,2.73333 -0.51667,6.7 -1.15,11.9v0.05c1.6,-2.03333 3.96667,-6.28333 7.1,-12.75c2.56667,-5.23333 4.43333,-7.98333 5.6,-8.25c1.73333,-0.43333 6.35,2.55 13.85,8.95c7.36667,6.23333 11.05,10.1 11.05,11.6c0,0.73333 -3.58333,5.35 -10.75,13.85c-3.2,3.83333 -5.78333,6.81667 -7.75,8.95M719.27,336.44561c-1.9,-1.23333 -4.6,-3.38333 -8.1,-6.45c-3.5,-3.1 -6.21667,-5.25 -8.15,-6.45c-3.7,7.23333 -6.7,13.05 -9,17.45c-4.4,8.16667 -7.11667,12.25 -8.15,12.25c-2.06667,0 -3.16667,-3.61667 -3.3,-10.85c-0.06667,-1.66667 0.11667,-7.65 0.55,-17.95v-0.1c-0.1,0 -1.98333,0.41667 -5.65,1.25c-3.63333,0.8 -6.16667,1.2 -7.6,1.2c-1.33333,0 -2.5,-0.03333 -3.5,-0.1c0.13333,0.53333 0.21667,1.11667 0.25,1.75c0.1,1.06667 0.18333,2.71667 0.25,4.95c0.56667,2.63333 0.86667,5.93333 0.9,9.9c0.03333,2.23333 0.01667,5.55 -0.05,9.95c0.26667,15.5 1.11667,28.88333 2.55,40.15l4.9,-0.2c2.56667,-0.13333 6.73333,-0.25 12.5,-0.35c-0.1,-0.93333 -0.68333,-4.1 -1.75,-9.5c-0.8,-3.96667 -1.2,-7.11667 -1.2,-9.45c0,-1.03333 0.21667,-1.86667 0.65,-2.5c0.4,-0.56667 0.91667,-0.91667 1.55,-1.05c0.03333,-0.66667 0.2,-1.23333 0.5,-1.7c0.46667,-0.73333 1.15,-1.1 2.05,-1.1c1.2,0 2.93333,2.06667 5.2,6.2c3.1,5.6 4.76667,8.55 5,8.85c0.7,0.96667 1.48333,2.15 2.35,3.55c1.06667,1.8 1.8,3.23333 2.2,4.3c0,0.13333 0.21667,0.65 0.65,1.55c0.5,0.93333 0.81667,1.61667 0.95,2.05c0.26667,0.1 2.41667,-0.01667 6.45,-0.35c4.33333,-0.2 7.61667,0.05 9.85,0.75h1.4c-2.46667,-3.33333 -6.43333,-9.31667 -11.9,-17.95c-4.06667,-6.46667 -6.73333,-10.95 -8,-13.45c-1.4,0 -2.26667,-0.5 -2.6,-1.5c-0.06667,-1 -0.1,-1.53333 -0.1,-1.6c0,-2.03333 2.81667,-6.28333 8.45,-12.75c2.9,-3.33333 6.2,-6.91667 9.9,-10.75M805.67,332.99561c0,5.13333 -0.03333,8.01667 -0.1,8.65c-0.13333,1.13333 -0.65,5.33333 -1.55,12.6v21.1c8.13333,-1 12.93333,-0.56667 14.4,1.3c0.7,0.83333 1.06667,2.23333 1.1,4.2c0.03333,1.2 -0.01667,3.38333 -0.15,6.55c0,0.53333 0.01667,1.86667 0.05,4c0.03333,2.23333 0.01667,4.01667 -0.05,5.35c-0.06667,1.2 -1.1,2.78333 -3.1,4.75c-1.9,1.86667 -3.33333,2.8 -4.3,2.8c-2.96667,0 -5.5,-0.5 -7.6,-1.5h-40.95c-1.86667,-1.36667 -3.35,-4.68333 -4.45,-9.95c-0.76667,-3.7 -1.15,-6.61667 -1.15,-8.75c0,-1.16667 0.13333,-1.95 0.4,-2.35c0.73333,-1.1 2.46667,-1.65 5.2,-1.65c1,0 5.71667,0.43333 14.15,1.3c0.06667,-1.16667 0.01667,-2.9 -0.15,-5.2c-0.2,-2.5 -0.3,-3.86667 -0.3,-4.1c0.1,-6.26667 0.15,-10.93333 0.15,-14c0,-0.33333 0.01667,-0.66667 0.05,-1c-2.73333,0.46667 -7.06667,0.7 -13,0.7c-2.73333,0 -4.41667,-1.56667 -5.05,-4.7c0,-3.16667 0,-4.78333 0,-4.85c0,-4.3 0.2,-6.83333 0.6,-7.6c0.83333,-1.56667 3.33333,-2.71667 7.5,-3.45c4.26667,-0.7 6.53333,-2.58333 6.8,-5.65c0.1,-0.96667 0,-2.21667 -0.3,-3.75c-0.3,-1.7 -0.45,-2.7 -0.45,-3c0,-2.56667 3.81667,-3.5 11.45,-2.8c0.9,0.06667 1.76667,0.16667 2.6,0.3c0.4,-0.06667 0.8,-0.11667 1.2,-0.15c5.16667,-0.5 10.63333,-0.4 16.4,0.3c0.4,2.16667 0.6,5.68333 0.6,10.55M784.22,327.99561c-1.36667,0.03333 -2.83333,0.06667 -4.4,0.1c0.26667,3.83333 -0.08333,6.65 -1.05,8.45c-1.96667,3.6 -6.46667,6.08333 -13.5,7.45l-0.2,0.95v6.35c0.3,0.1 1.98333,0.01667 5.05,-0.25c3.43333,-0.33333 5.28333,-0.5 5.55,-0.5c1.66667,0 3.01667,0.16667 4.05,0.5c0,-0.06667 0.03333,-0.11667 0.1,-0.15c1.63333,-1.33333 2.56667,0.33333 2.8,5c0.1,2.06667 0.43333,6.78333 1,14.15c0.5,6.1 0.75,10.7 0.75,13.8c0,1.5 -0.1,2.5 -0.3,3c-0.43333,1.2 -1.48333,1.8 -3.15,1.8c-6.76667,-1 -11.78333,-1.6 -15.05,-1.8l-1.2,-0.15c0,2.46667 0.4,5.81667 1.2,10.05l36.8,-0.35c1.9,-1.3 5.4,-1.81667 10.5,-1.55v-13.4h-7.95c-0.2,0.16667 -0.76667,0.38333 -1.7,0.65c-1.06667,0.33333 -1.93333,0.5 -2.6,0.5c-1.7,0 -2.71667,-2.71667 -3.05,-8.15c-0.03333,-5.46667 -0.05,-8.26667 -0.05,-8.4c0,-6.23333 0.05,-10.01667 0.15,-11.35c0.2,-2.6 0.83333,-7.11667 1.9,-13.55v-13.35c-7.46667,0.4 -12.03333,0.53333 -13.7,0.4c-0.73333,0 -1.38333,-0.06667 -1.95,-0.2z"/></g></g></svg>