<svg version="1.1" xmlns="http://www.w3.org/2000/svg" xmlns:xlink="http://www.w3.org/1999/xlink" width="54.56394" height="66.25" viewBox="0,0,54.56394,66.25"><g transform="translate(-608.25186,-337.83784)"><g data-paper-data="{&quot;isPaintingLayer&quot;:true}" fill-rule="nonzero" stroke="none" stroke-width="1" stroke-linecap="butt" stroke-linejoin="miter" stroke-miterlimit="10" stroke-dasharray="" stroke-dashoffset="0" style="mix-blend-mode: normal"><path d="M659.60811,343.88784c0.83333,1.93333 1.8,3.9 2.9,5.9c0.66667,2.13333 0.25,4.06667 -1.25,5.8c-1.86667,2.1 -3.95,4.15 -6.25,6.15c-2.63333,2.26667 -5.16667,4.65 -7.6,7.15c2.63333,2.7 5.03333,5.56667 7.2,8.6c0.73333,1.06667 1.53333,2.1 2.4,3.1c0.5,0.56667 0.93333,1.21667 1.3,1.95c0.23333,0.43333 0.51667,0.83333 0.85,1.2c1.56667,1.9 2.76667,4 3.6,6.3c-0.5,2.56667 -1.71667,4.63333 -3.65,6.2c-0.96667,0.83333 -1.9,1.7 -2.8,2.6c-0.96667,0.86667 -1.95,1.73333 -2.95,2.6c-0.63333,0.56667 -1.31667,1.08333 -2.05,1.55c-0.86667,0.46667 -1.71667,0.48333 -2.55,0.05c-1.33333,-0.63333 -2.3,-1.58333 -2.9,-2.85c-0.46667,-0.93333 -1,-1.83333 -1.6,-2.7c-2.6,-3.73333 -5.4,-7.43333 -8.4,-11.1c-1.2,1.4 -2.38333,2.8 -3.55,4.2c-1.76667,2 -3.35,4.11667 -4.75,6.35c-1.43333,2.26667 -3.13333,4.31667 -5.1,6.15c-0.26667,0.26667 -0.56667,0.48333 -0.9,0.65c-0.36667,0.13333 -0.75,0.25 -1.15,0.35c-0.83333,-0.2 -1.56667,-0.53333 -2.2,-1c-2.3,-1.53333 -4.35,-3.43333 -6.15,-5.7c-0.4,-0.46667 -0.78333,-0.93333 -1.15,-1.4c-0.4,-0.5 -0.78333,-1 -1.15,-1.5c-0.96667,-1.2 -1.46667,-2.46667 -1.5,-3.8c-0.03333,-0.63333 0.06667,-1.23333 0.3,-1.8c0.56667,-1.33333 1.31667,-2.51667 2.25,-3.55c4.33333,-4.8 8.85,-9.45 13.55,-13.95c-0.1,-0.33333 -0.23333,-0.63333 -0.4,-0.9c-1.06667,-1.46667 -2.1,-2.93333 -3.1,-4.4c-0.23333,-0.4 -0.48333,-0.76667 -0.75,-1.1c-3.43333,-4.36667 -6.31667,-9.01667 -8.65,-13.95l-1.75,-1.6c0,-0.36667 0,-0.73333 0,-1.1c0.03333,-0.56667 0.15,-1.13333 0.35,-1.7c0.06667,-0.23333 0.26667,-0.43333 0.6,-0.6c2.66667,-1.23333 5.43333,-2.48333 8.3,-3.75c2.6,-1.1 5.36667,-1.8 8.3,-2.1c0.56667,0.1 1.05,0.33333 1.45,0.7c1.03333,1.03333 1.9,2.21667 2.6,3.55c1.63333,3.2 3.21667,6.53333 4.75,10h0.45c0.36667,-0.36667 0.73333,-0.73333 1.1,-1.1c0.53333,-0.53333 1.03333,-1.08333 1.5,-1.65c3,-3.43333 6.03333,-6.8 9.1,-10.1c1.63333,-1.7 3.56667,-2.95 5.8,-3.75c0.26667,0.03333 0.53333,0.06667 0.8,0.1c0.43333,0.16667 0.8,0.41667 1.1,0.75c1.56667,1.5 2.8,3.23333 3.7,5.2M648.50811,349.93784c-0.13333,0.13333 -0.26667,0.28333 -0.4,0.45c-0.7,0.83333 -1.41667,1.66667 -2.15,2.5c-0.76667,0.86667 -1.5,1.75 -2.2,2.65c-0.7,0.93333 -1.38333,1.68333 -2.05,2.25c-1.06667,0.9 -2,1.9 -2.8,3c-0.83333,1.2 -2,1.81667 -3.5,1.85c-1.86667,0.03333 -3.11667,-0.88333 -3.75,-2.75c-0.46667,-1.4 -0.98333,-2.85 -1.55,-4.35c-0.4,-1.06667 -0.85,-2.08333 -1.35,-3.05c-1.2,-2.23333 -2.16667,-4.5 -2.9,-6.8c-0.3,-0.03333 -0.58333,-0.06667 -0.85,-0.1c-0.36667,0.13333 -0.71667,0.28333 -1.05,0.45c-0.6,0.3 -1.18333,0.6 -1.75,0.9c-1.8,1 -3.76667,1.88333 -5.9,2.65c2.33333,4.1 5.08333,7.95 8.25,11.55c0.66667,0.76667 1.25,1.6 1.75,2.5c0.9,1.5 2.05,2.81667 3.45,3.95c1.4,1.2 1.96667,2.71667 1.7,4.55c-0.13333,0.86667 -0.53333,1.6 -1.2,2.2c-1.46667,1.33333 -2.91667,2.66667 -4.35,4c-2.7,2.56667 -5.21667,5.26667 -7.55,8.1c-0.56667,0.7 -1.11667,1.38333 -1.65,2.05c-0.63333,0.73333 -1.23333,1.43333 -1.8,2.1c0.06667,0.16667 0.13333,0.33333 0.2,0.5c0.16667,0.26667 0.33333,0.53333 0.5,0.8c1.06667,1.73333 2.43333,3.2 4.1,4.4l0.45,-0.25c2.9,-3.93333 5.81667,-7.83333 8.75,-11.7c0.2,-0.26667 0.38333,-0.5 0.55,-0.7c1.13333,-1.16667 2.26667,-2.28333 3.4,-3.35c0,-0.1 0.01667,-0.18333 0.05,-0.25c0.03333,-0.1 0.06667,-0.18333 0.1,-0.25c0.03333,-0.1 0.06667,-0.2 0.1,-0.3c0.06667,-0.1 0.15,-0.18333 0.25,-0.25c0.1,-0.1 0.2,-0.18333 0.3,-0.25c0.06667,-0.1 0.15,-0.2 0.25,-0.3c0.2,-0.1 0.41667,-0.18333 0.65,-0.25c0.16667,-0.03333 0.33333,-0.06667 0.5,-0.1c0.4,0.16667 0.78333,0.38333 1.15,0.65c0.46667,0.33333 0.86667,0.73333 1.2,1.2c1.03333,1.5 2.2,2.83333 3.5,4c0.76667,0.63333 1.55,1.41667 2.35,2.35c0.46667,0.5 0.95,1.01667 1.45,1.55c0.63333,0.63333 1.21667,1.26667 1.75,1.9c1.4,1.7 2.73333,3.36667 4,5l0.85,-0.3l4.5,-4.85c-1.4,-2.13333 -2.88333,-4.25 -4.45,-6.35c-0.73333,-0.96667 -1.4,-1.95 -2,-2.95c-0.83333,-1.4 -1.81667,-2.61667 -2.95,-3.65c-2.03333,-1.9 -3.96667,-3.91667 -5.8,-6.05c-0.16667,-0.23333 -0.25,-0.5 -0.25,-0.8c-0.03333,-0.5 -0.03333,-0.95 0,-1.35c0.23333,-0.4 0.48333,-0.8 0.75,-1.2c0.53333,-0.8 1.13333,-1.53333 1.8,-2.2c4.43333,-4.53333 8.86667,-9.1 13.3,-13.7l-2.9,-6.45l-2.4,2.35c-0.83333,0.8 -1.63333,1.61667 -2.4,2.45z" fill="#000000"/><path d="M656.20811,351.58784c-4.43333,4.6 -8.86667,9.16667 -13.3,13.7c-0.66667,0.66667 -1.26667,1.4 -1.8,2.2c-0.26667,0.4 -0.51667,0.8 -0.75,1.2c-0.03333,0.4 -0.03333,0.85 0,1.35c0,0.3 0.08333,0.56667 0.25,0.8c1.83333,2.13333 3.76667,4.15 5.8,6.05c1.13333,1.03333 2.11667,2.25 2.95,3.65c0.6,1 1.26667,1.98333 2,2.95c1.56667,2.1 3.05,4.21667 4.45,6.35l-4.5,4.85l-0.85,0.3c-1.26667,-1.63333 -2.6,-3.3 -4,-5c-0.53333,-0.63333 -1.11667,-1.26667 -1.75,-1.9c-0.5,-0.53333 -0.98333,-1.05 -1.45,-1.55c-0.8,-0.93333 -1.58333,-1.71667 -2.35,-2.35c-1.3,-1.16667 -2.46667,-2.5 -3.5,-4c-0.33333,-0.46667 -0.73333,-0.86667 -1.2,-1.2c-0.36667,-0.26667 -0.75,-0.48333 -1.15,-0.65c-0.16667,0.03333 -0.33333,0.06667 -0.5,0.1c-0.23333,0.06667 -0.45,0.15 -0.65,0.25c-0.1,0.1 -0.18333,0.2 -0.25,0.3c-0.1,0.06667 -0.2,0.15 -0.3,0.25c-0.1,0.06667 -0.18333,0.15 -0.25,0.25c-0.03333,0.1 -0.06667,0.2 -0.1,0.3c-0.03333,0.06667 -0.06667,0.15 -0.1,0.25c-0.03333,0.06667 -0.05,0.15 -0.05,0.25c-1.13333,1.06667 -2.26667,2.18333 -3.4,3.35c-0.16667,0.2 -0.35,0.43333 -0.55,0.7c-2.93333,3.86667 -5.85,7.76667 -8.75,11.7l-0.45,0.25c-1.66667,-1.2 -3.03333,-2.66667 -4.1,-4.4c-0.16667,-0.26667 -0.33333,-0.53333 -0.5,-0.8c-0.06667,-0.16667 -0.13333,-0.33333 -0.2,-0.5c0.56667,-0.66667 1.16667,-1.36667 1.8,-2.1c0.53333,-0.66667 1.08333,-1.35 1.65,-2.05c2.33333,-2.83333 4.85,-5.53333 7.55,-8.1c1.43333,-1.33333 2.88333,-2.66667 4.35,-4c0.66667,-0.6 1.06667,-1.33333 1.2,-2.2c0.26667,-1.83333 -0.3,-3.35 -1.7,-4.55c-1.4,-1.13333 -2.55,-2.45 -3.45,-3.95c-0.5,-0.9 -1.08333,-1.73333 -1.75,-2.5c-3.16667,-3.6 -5.91667,-7.45 -8.25,-11.55c2.13333,-0.76667 4.1,-1.65 5.9,-2.65c0.56667,-0.3 1.15,-0.6 1.75,-0.9c0.33333,-0.16667 0.68333,-0.31667 1.05,-0.45c0.26667,0.03333 0.55,0.06667 0.85,0.1c0.73333,2.3 1.7,4.56667 2.9,6.8c0.5,0.96667 0.95,1.98333 1.35,3.05c0.56667,1.5 1.08333,2.95 1.55,4.35c0.63333,1.86667 1.88333,2.78333 3.75,2.75c1.5,-0.03333 2.66667,-0.65 3.5,-1.85c0.8,-1.1 1.73333,-2.1 2.8,-3c0.66667,-0.56667 1.35,-1.31667 2.05,-2.25c0.7,-0.9 1.43333,-1.78333 2.2,-2.65c0.73333,-0.83333 1.45,-1.66667 2.15,-2.5c0.13333,-0.16667 0.26667,-0.31667 0.4,-0.45c0.76667,-0.83333 1.56667,-1.65 2.4,-2.45l2.4,-2.35z" fill="#ffffff"/></g></g></svg>