<svg version="1.1" xmlns="http://www.w3.org/2000/svg" xmlns:xlink="http://www.w3.org/1999/xlink" width="42.55" height="65.04368" viewBox="0,0,42.55,65.04368"><g transform="translate(-608.10811,-337.84133)"><g data-paper-data="{&quot;isPaintingLayer&quot;:true}" fill-rule="nonzero" stroke="none" stroke-width="1" stroke-linecap="butt" stroke-linejoin="miter" stroke-miterlimit="10" stroke-dasharray="" stroke-dashoffset="0" style="mix-blend-mode: normal"><path d="M649.50811,343.33784c0,0.63333 0,1.26667 0,1.9c0,0.06667 0,0.15 0,0.25c-0.03333,0.1 -0.06667,0.2 -0.1,0.3c-0.03333,0.06667 -0.05,0.15 -0.05,0.25c-0.03333,0.1 -0.06667,0.18333 -0.1,0.25c-0.03333,0.1 -0.06667,0.2 -0.1,0.3c0,0.06667 0,0.15 0,0.25c0,0.1 0,0.18333 0,0.25c0,0.9 0,1.8 0,2.7c0,1.33333 0,2.66667 0,4c-0.16667,0.9 -0.65,1.51667 -1.45,1.85c-2.53333,1.1 -5.2,1.63333 -8,1.6c-4.03333,0 -8.05,0.01667 -12.05,0.05c0,0.1 0,0.18333 0,0.25c0,0.1 0,0.2 0,0.3c0,0.23333 0,0.5 0,0.8c0,0.53333 0,1.06667 0,1.6c0,0.16667 0,0.33333 0,0.5c0.06667,0 0.15,0 0.25,0c0.3,-0.06667 0.6,-0.15 0.9,-0.25c3.63333,-1.2 7.03333,-1.01667 10.2,0.55c0.46667,0.23333 0.81667,0.6 1.05,1.1c0.16667,0.33333 0.31667,0.68333 0.45,1.05c0,0.06667 0,0.15 0,0.25c0,0.1 0,0.18333 0,0.25c0.03333,0.1 0.05,0.2 0.05,0.3c0.03333,0.06667 0.05,0.15 0.05,0.25c0,0.1 0,0.18333 0,0.25c0,0.1 0,0.2 0,0.3c0,0.1 0.01667,0.18333 0.05,0.25c0.03333,0.1 0.06667,0.2 0.1,0.3c0.16667,0.6 0.23333,1.21667 0.2,1.85c-0.03333,1.06667 -0.06667,2.13333 -0.1,3.2c0.03333,0.1 0.06667,0.2 0.1,0.3c0.03333,0.06667 0.05,0.15 0.05,0.25c0.03333,0.1 0.06667,0.18333 0.1,0.25c0.03333,0.1 0.06667,0.2 0.1,0.3c0.03333,0.06667 0.06667,0.15 0.1,0.25c0,0.1 0,0.18333 0,0.25c0,0.1 0,0.2 0,0.3c0,0.36667 0,0.71667 0,1.05c-0.03333,0.7 -0.2,1.33333 -0.5,1.9c-0.06667,0.06667 -0.11667,0.15 -0.15,0.25c-0.06667,0.1 -0.15,0.18333 -0.25,0.25c-0.1,0.1 -0.2,0.18333 -0.3,0.25c-3.23333,1.4 -6.66667,2.01667 -10.3,1.85c-0.06667,0 -0.13333,0.01667 -0.2,0.05c-0.16667,0.06667 -0.35,0.13333 -0.55,0.2c0,0.1 0,0.18333 0,0.25c0,0.1 0,0.2 0,0.3c0,0.06667 0.01667,0.15 0.05,0.25c0,0.1 0.01667,0.18333 0.05,0.25c0.03333,0.1 0.08333,0.16667 0.15,0.2c0.16667,0.1 0.35,0.15 0.55,0.15c5.46667,-1.06667 10.93333,-1.11667 16.4,-0.15c3.16667,0.53333 4.53333,2.41667 4.1,5.65c-0.1,0.7 -0.15,1.4 -0.15,2.1c0.03333,0.1 0.06667,0.2 0.1,0.3c0.03333,0.06667 0.06667,0.15 0.1,0.25c0.03333,0.1 0.06667,0.18333 0.1,0.25c0.03333,0.1 0.06667,0.2 0.1,0.3c0,0.06667 0,0.15 0,0.25c0,0.1 0,0.18333 0,0.25c0,1.36667 -0.01667,2.71667 -0.05,4.05c-0.03333,1.7 0,3.38333 0.1,5.05c-0.7,2.56667 -2.56667,3.73333 -5.6,3.5c-0.56667,-0.03333 -1.1,-0.05 -1.6,-0.05c-9.53333,0.2 -19,0.73333 -28.4,1.6c-3.33333,0.33333 -5.38333,-1.1 -6.15,-4.3c0,-0.1 0,-0.2 0,-0.3c0,-0.06667 0,-0.15 0,-0.25c0.03333,-0.16667 0.05,-0.35 0.05,-0.55c0,-0.26667 0,-0.53333 0,-0.8c0,-0.16667 0,-0.33333 0,-0.5c0,-0.1 -0.01667,-0.2 -0.05,-0.3c-0.03333,-0.06667 -0.06667,-0.15 -0.1,-0.25c-0.03333,-0.1 -0.06667,-0.2 -0.1,-0.3c-0.03333,-0.06667 -0.06667,-0.15 -0.1,-0.25c0,-0.1 0,-0.18333 0,-0.25c0,-0.1 0,-0.2 0,-0.3c0,-0.8 0.03333,-1.6 0.1,-2.4c0.03333,-1.13333 0.03333,-2.28333 0,-3.45c-0.03333,-0.1 -0.06667,-0.2 -0.1,-0.3c-0.03333,-0.06667 -0.05,-0.15 -0.05,-0.25c-0.03333,-0.1 -0.06667,-0.2 -0.1,-0.3c-0.03333,-0.06667 -0.06667,-0.15 -0.1,-0.25c0,-0.1 0,-0.18333 0,-0.25c0,-0.1 0,-0.2 0,-0.3c0,-2.03333 0,-4.08333 0,-6.15c-0.03333,-2.06667 0,-4.11667 0.1,-6.15c-0.03333,-0.1 -0.06667,-0.18333 -0.1,-0.25c-0.03333,-0.1 -0.06667,-0.2 -0.1,-0.3c-0.03333,-0.06667 -0.06667,-0.15 -0.1,-0.25c0,-0.1 -0.01667,-0.18333 -0.05,-0.25c0,-0.1 0,-0.2 0,-0.3c0,-0.06667 0,-0.15 0,-0.25c0.06667,-0.8 0.08333,-1.6 0.05,-2.4c0,-1.16667 0.03333,-2.33333 0.1,-3.5c0.03333,-0.1 0.06667,-0.18333 0.1,-0.25c0.03333,-0.1 0.06667,-0.2 0.1,-0.3c0.03333,-0.06667 0.06667,-0.15 0.1,-0.25c0,-0.1 0.01667,-0.18333 0.05,-0.25c0,-0.1 0,-0.2 0,-0.3c0,-0.06667 0,-0.15 0,-0.25c0.06667,-1.6 0.08333,-3.21667 0.05,-4.85c0,-1.83333 0.23333,-3.61667 0.7,-5.35c0,-0.06667 0,-0.15 0,-0.25c0,-0.1 0,-0.18333 0,-0.25c0,-0.83333 0.01667,-1.65 0.05,-2.45c0.06667,-1.16667 0.13333,-2.31667 0.2,-3.45c0.03333,-0.1 0.06667,-0.2 0.1,-0.3c0.03333,-0.06667 0.06667,-0.15 0.1,-0.25c0,-0.1 0.01667,-0.18333 0.05,-0.25c0.03333,-0.1 0.06667,-0.2 0.1,-0.3c0,-0.06667 0,-0.15 0,-0.25c0,-0.1 0.01667,-0.18333 0.05,-0.25c0,-0.1 0,-0.2 0,-0.3c0.03333,-0.06667 0.05,-0.15 0.05,-0.25c0,-0.16667 0,-0.35 0,-0.55c0,-0.06667 0,-0.15 0,-0.25c-0.03333,-0.1 -0.06667,-0.18333 -0.1,-0.25c-0.03333,-0.1 -0.06667,-0.2 -0.1,-0.3c-0.03333,-0.1 -0.05,-0.18333 -0.05,-0.25c-0.03333,-0.1 -0.06667,-0.2 -0.1,-0.3c0,-0.06667 0,-0.15 0,-0.25c0,-0.1 0,-0.18333 0,-0.25c0,-0.1 0,-0.2 0,-0.3c0.03333,-0.06667 0.06667,-0.15 0.1,-0.25c-0.03333,-0.1 -0.06667,-0.18333 -0.1,-0.25c0,-0.1 0,-0.2 0,-0.3c0,-0.06667 0,-0.15 0,-0.25c0,-0.1 0,-0.18333 0,-0.25c0,-0.1 0,-0.2 0,-0.3c0,-0.06667 0,-0.15 0,-0.25c0.03333,-0.1 0.06667,-0.18333 0.1,-0.25c0,-0.1 0.01667,-0.2 0.05,-0.3c0.06667,-0.16667 0.15,-0.33333 0.25,-0.5c0.13333,-0.3 0.3,-0.56667 0.5,-0.8c0.16667,-0.2 0.33333,-0.38333 0.5,-0.55c4.9,-0.63333 9.85,-0.93333 14.85,-0.9c3.43333,0.03333 6.58333,-0.23333 9.45,-0.8c0.83333,0 1.66667,-0.05 2.5,-0.15c3.23333,-0.43333 6.31667,-0.15 9.25,0.85c1.3,0.46667 2.08333,1.41667 2.35,2.85c0,0.1 0,0.2 0,0.3c0,0.06667 0,0.15 0,0.25c0,0.36667 0,0.71667 0,1.05M643.10811,347.38784c0,-0.1 -0.01667,-0.2 -0.05,-0.3c-0.03333,-0.86667 0,-1.71667 0.1,-2.55c-1.73333,-0.03333 -3.48333,-0.06667 -5.25,-0.1c-3.9,0.33333 -7.83333,0.6 -11.8,0.8c-3.83333,0.16667 -7.66667,0.31667 -11.5,0.45c-0.06667,0.06667 -0.13333,0.15 -0.2,0.25c-0.13333,0.16667 -0.26667,0.35 -0.4,0.55c-0.03333,0.06667 -0.08333,0.15 -0.15,0.25c-0.06667,0.1 -0.15,0.2 -0.25,0.3c0,0.06667 0.01667,0.15 0.05,0.25c0,0.16667 0.01667,0.35 0.05,0.55c0,0.06667 0,0.15 0,0.25c0,0.1 0,0.18333 0,0.25c0,0.1 0,0.2 0,0.3c-0.03333,0.06667 -0.06667,0.15 -0.1,0.25c-0.03333,0.1 -0.05,0.18333 -0.05,0.25c-0.03333,0.1 -0.06667,0.2 -0.1,0.3c-0.06667,0.33333 -0.06667,0.68333 0,1.05c0,0.1 0,0.2 0,0.3c0,0.23333 0.01667,0.48333 0.05,0.75c0.06667,0.26667 0.08333,0.55 0.05,0.85c0,0.06667 0,0.15 0,0.25c0,0.1 0,0.18333 0,0.25c0.03333,1.16667 0.08333,2.33333 0.15,3.5c0,0.1 0,0.18333 0,0.25c-0.03333,0.1 -0.06667,0.2 -0.1,0.3c-0.03333,0.06667 -0.06667,0.15 -0.1,0.25c-0.03333,0.1 -0.08333,0.18333 -0.15,0.25c-0.03333,0.36667 -0.01667,0.73333 0.05,1.1c0.03333,0.1 0.05,0.18333 0.05,0.25c0,0.53333 0,1.06667 0,1.6c0,0.1 0,0.2 0,0.3c0.03333,0.06667 0.05,0.15 0.05,0.25c0.03333,1.8 0.06667,3.58333 0.1,5.35c0,0.26667 0,0.53333 0,0.8c-0.03333,0.1 -0.05,0.2 -0.05,0.3c-0.03333,0.06667 -0.06667,0.15 -0.1,0.25c-0.03333,0.1 -0.06667,0.18333 -0.1,0.25c0,0.26667 0,0.53333 0,0.8c0,0.1 0,0.2 0,0.3c0,0.06667 0,0.15 0,0.25c0,0.26667 0,0.53333 0,0.8c0,0.1 0,0.2 0,0.3c0,0.23333 0,0.5 0,0.8c0,0.06667 0,0.15 0,0.25c0,0.36667 0,0.71667 0,1.05c0.03333,0.1 0.06667,0.2 0.1,0.3c0.06667,0.16667 0.11667,0.33333 0.15,0.5c0.03333,0.1 0.06667,0.2 0.1,0.3c0.03333,0.06667 0.06667,0.15 0.1,0.25c0,0.36667 0,0.73333 0,1.1c0,0.06667 0,0.15 0,0.25c-0.03333,0.63333 -0.01667,1.26667 0.05,1.9c0.03333,0.16667 0.05,0.33333 0.05,0.5c0,2.23333 0,4.46667 0,6.7c0,0.53333 0,1.06667 0,1.6c0.1,0.36667 0.18333,0.73333 0.25,1.1c0.03333,0.06667 0.05,0.15 0.05,0.25c0.03333,0.26667 0.05,0.53333 0.05,0.8c0,0.26667 0,0.53333 0,0.8c0,0.1 0,0.18333 0,0.25c0,0.1 0,0.2 0,0.3c0,1.33333 0.03333,2.66667 0.1,4c0.03333,0.2 0.08333,0.38333 0.15,0.55c0.03333,0.16667 0.06667,0.35 0.1,0.55c0.03333,0.06667 0.05,0.15 0.05,0.25c0.03333,0.26667 0.05,0.53333 0.05,0.8c0,0.1 0,0.18333 0,0.25c0,0.26667 0,0.53333 0,0.8c5.06667,-0.5 10.18333,-0.75 15.35,-0.75c4.86667,0 9.68333,-0.4 14.45,-1.2c0,-0.26667 0,-0.53333 0,-0.8c0,-0.1 0,-0.18333 0,-0.25c0,-0.1 0,-0.2 0,-0.3c0,-0.26667 0,-0.53333 0,-0.8c0,-0.06667 0,-0.15 0,-0.25c0,-0.26667 0,-0.53333 0,-0.8c0,-0.1 0,-0.18333 0,-0.25c0,-0.46667 0,-0.91667 0,-1.35c-0.16667,-0.36667 -0.26667,-0.73333 -0.3,-1.1c0,-0.06667 0,-0.15 0,-0.25c-0.03333,-0.26667 -0.05,-0.53333 -0.05,-0.8c0,-0.1 0,-0.18333 0,-0.25c0,-0.26667 0,-0.53333 0,-0.8c0,-0.1 0,-0.2 0,-0.3c0.03333,-0.46667 0,-0.91667 -0.1,-1.35c-3.03333,-0.13333 -6.08333,0.01667 -9.15,0.45c-1.03333,0.16667 -2.05,0.38333 -3.05,0.65c-2.23333,0.6 -4.38333,0.56667 -6.45,-0.1c-0.1,-0.1 -0.18333,-0.18333 -0.25,-0.25c-0.2,-0.2 -0.38333,-0.38333 -0.55,-0.55c-0.1,-0.1 -0.18333,-0.18333 -0.25,-0.25c-0.06667,-0.1 -0.11667,-0.2 -0.15,-0.3c-0.13333,-0.23333 -0.23333,-0.5 -0.3,-0.8c-0.03333,-0.1 -0.05,-0.18333 -0.05,-0.25c-0.03333,-0.3 -0.1,-0.56667 -0.2,-0.8c-0.06667,-0.1 -0.1,-0.2 -0.1,-0.3c-0.03333,-0.06667 -0.06667,-0.15 -0.1,-0.25c0,-0.1 0,-0.18333 0,-0.25c0,-0.2 0,-0.38333 0,-0.55c0,-0.1 0,-0.18333 0,-0.25c0,-0.1 0,-0.2 0,-0.3c-0.03333,-0.06667 -0.06667,-0.15 -0.1,-0.25c-0.03333,-0.1 -0.06667,-0.18333 -0.1,-0.25c-0.03333,-0.1 -0.06667,-0.2 -0.1,-0.3c0,-0.1 0,-0.18333 0,-0.25c0,-0.1 0,-0.2 0,-0.3c0,-0.06667 0,-0.15 0,-0.25c-0.03333,-0.1 -0.05,-0.18333 -0.05,-0.25c-0.03333,-0.1 -0.06667,-0.2 -0.1,-0.3c-0.03333,-0.06667 -0.06667,-0.15 -0.1,-0.25c-0.03333,-0.1 -0.06667,-0.18333 -0.1,-0.25c0,-0.1 0,-0.2 0,-0.3c0,-0.23333 0,-0.5 0,-0.8c0,-0.06667 0,-0.15 0,-0.25c0,-0.3 0,-0.56667 0,-0.8c0,-0.1 0,-0.2 0,-0.3c0,-0.06667 0,-0.15 0,-0.25c0.03333,-0.1 0.06667,-0.18333 0.1,-0.25c0.03333,-0.1 0.06667,-0.2 0.1,-0.3c0.03333,-0.06667 0.06667,-0.15 0.1,-0.25c0,-0.1 0.01667,-0.18333 0.05,-0.25c0.1,-0.1 0.18333,-0.2 0.25,-0.3c0.1,-0.06667 0.18333,-0.15 0.25,-0.25c0.06667,-0.1 0.15,-0.18333 0.25,-0.25c0.53333,-0.36667 1.11667,-0.6 1.75,-0.7c0.06667,0 0.13333,-0.01667 0.2,-0.05c2,-0.8 4.08333,-1.13333 6.25,-1c0.06667,0 0.13333,-0.01667 0.2,-0.05c0.86667,-0.13333 1.71667,-0.35 2.55,-0.65c0.03333,-0.23333 0.06667,-0.5 0.1,-0.8c0,-0.06667 0,-0.15 0,-0.25c0,-0.1 0,-0.18333 0,-0.25c0,-0.3 -0.01667,-0.56667 -0.05,-0.8c0,-0.1 0,-0.2 0,-0.3c-0.03333,-0.26667 -0.05,-0.53333 -0.05,-0.8c0,-0.1 0,-0.18333 0,-0.25c0,-0.2 0,-0.38333 0,-0.55c-0.03333,-0.1 -0.06667,-0.18333 -0.1,-0.25c-0.03333,-0.2 -0.08333,-0.38333 -0.15,-0.55c-0.03333,-0.1 -0.06667,-0.18333 -0.1,-0.25c0,-0.06667 0,-0.13333 0,-0.2c-0.3,-0.13333 -0.66667,-0.13333 -1.1,0c-0.46667,0.13333 -0.93333,0.23333 -1.4,0.3c-0.83333,0.16667 -1.66667,0.3 -2.5,0.4c-0.9,0.1 -1.76667,0.31667 -2.6,0.65c-2,0.8 -3.53333,0.26667 -4.6,-1.6c-0.03333,-0.1 -0.06667,-0.2 -0.1,-0.3c-0.03333,-0.26667 -0.06667,-0.53333 -0.1,-0.8c0,-0.06667 0,-0.15 0,-0.25c0,-0.26667 0,-0.53333 0,-0.8c-0.03333,-0.1 -0.06667,-0.2 -0.1,-0.3c-0.03333,-0.06667 -0.06667,-0.15 -0.1,-0.25c-0.03333,-0.1 -0.05,-0.18333 -0.05,-0.25c-0.03333,-0.1 -0.06667,-0.2 -0.1,-0.3c0,-0.33333 0,-0.68333 0,-1.05c0,-0.1 0,-0.18333 0,-0.25c0,-0.36667 0,-0.73333 0,-1.1c0,-0.26667 0,-0.53333 0,-0.8c0,-0.1 0,-0.18333 0,-0.25c0,-1.43333 0,-2.86667 0,-4.3c0,-0.1 0,-0.18333 0,-0.25c0.03333,-0.1 0.06667,-0.2 0.1,-0.3c0,-0.06667 0.01667,-0.15 0.05,-0.25c0.03333,-0.1 0.06667,-0.18333 0.1,-0.25c0.03333,-0.1 0.06667,-0.2 0.1,-0.3c0.1,-0.06667 0.18333,-0.15 0.25,-0.25c0.06667,-0.1 0.13333,-0.18333 0.2,-0.25c0.1,-0.1 0.18333,-0.2 0.25,-0.3c1,-0.7 2.1,-1.05 3.3,-1.05c5.7,-0.1 11.36667,-0.4 17,-0.9c0,-0.36667 0,-0.71667 0,-1.05c0,-0.1 0,-0.2 0,-0.3c0,-0.26667 0,-0.53333 0,-0.8c0,-0.1 0,-0.18333 0,-0.25c-0.03333,-0.3 -0.03333,-0.56667 0,-0.8z" fill="#000000"/><path d="M643.10811,349.23784c0,0.1 0,0.2 0,0.3c0,0.33333 0,0.68333 0,1.05c-5.63333,0.5 -11.3,0.8 -17,0.9c-1.2,0 -2.3,0.35 -3.3,1.05c-0.06667,0.1 -0.15,0.2 -0.25,0.3c-0.06667,0.06667 -0.13333,0.15 -0.2,0.25c-0.06667,0.1 -0.15,0.18333 -0.25,0.25c-0.03333,0.1 -0.06667,0.2 -0.1,0.3c-0.03333,0.06667 -0.06667,0.15 -0.1,0.25c-0.03333,0.1 -0.05,0.18333 -0.05,0.25c-0.03333,0.1 -0.06667,0.2 -0.1,0.3c0,0.06667 0,0.15 0,0.25c0,1.43333 0,2.86667 0,4.3c0,0.06667 0,0.15 0,0.25c0,0.26667 0,0.53333 0,0.8c0,0.36667 0,0.73333 0,1.1c0,0.06667 0,0.15 0,0.25c0,0.36667 0,0.71667 0,1.05c0.03333,0.1 0.06667,0.2 0.1,0.3c0,0.06667 0.01667,0.15 0.05,0.25c0.03333,0.1 0.06667,0.18333 0.1,0.25c0.03333,0.1 0.06667,0.2 0.1,0.3c0,0.26667 0,0.53333 0,0.8c0,0.1 0,0.18333 0,0.25c0.03333,0.26667 0.06667,0.53333 0.1,0.8c0.03333,0.1 0.06667,0.2 0.1,0.3c1.06667,1.86667 2.6,2.4 4.6,1.6c0.83333,-0.33333 1.7,-0.55 2.6,-0.65c0.83333,-0.1 1.66667,-0.23333 2.5,-0.4c0.46667,-0.06667 0.93333,-0.16667 1.4,-0.3c0.43333,-0.13333 0.8,-0.13333 1.1,0c0,0.06667 0,0.13333 0,0.2c0.03333,0.06667 0.06667,0.15 0.1,0.25c0.06667,0.16667 0.11667,0.35 0.15,0.55c0.03333,0.06667 0.06667,0.15 0.1,0.25c0,0.16667 0,0.35 0,0.55c0,0.06667 0,0.15 0,0.25c0,0.26667 0.01667,0.53333 0.05,0.8c0,0.1 0,0.2 0,0.3c0.03333,0.23333 0.05,0.5 0.05,0.8c0,0.06667 0,0.15 0,0.25c0,0.1 0,0.18333 0,0.25c-0.03333,0.3 -0.06667,0.56667 -0.1,0.8c-0.83333,0.3 -1.68333,0.51667 -2.55,0.65c-0.06667,0.03333 -0.13333,0.05 -0.2,0.05c-2.16667,-0.13333 -4.25,0.2 -6.25,1c-0.06667,0.03333 -0.13333,0.05 -0.2,0.05c-0.63333,0.1 -1.21667,0.33333 -1.75,0.7c-0.1,0.06667 -0.18333,0.15 -0.25,0.25c-0.06667,0.1 -0.15,0.18333 -0.25,0.25c-0.06667,0.1 -0.15,0.2 -0.25,0.3c-0.03333,0.06667 -0.05,0.15 -0.05,0.25c-0.03333,0.1 -0.06667,0.18333 -0.1,0.25c-0.03333,0.1 -0.06667,0.2 -0.1,0.3c-0.03333,0.06667 -0.06667,0.15 -0.1,0.25c0,0.1 0,0.18333 0,0.25c0,0.1 0,0.2 0,0.3c0,0.23333 0,0.5 0,0.8c0,0.1 0,0.18333 0,0.25c0,0.3 0,0.56667 0,0.8c0,0.1 0,0.2 0,0.3c0.03333,0.06667 0.06667,0.15 0.1,0.25c0.03333,0.1 0.06667,0.18333 0.1,0.25c0.03333,0.1 0.06667,0.2 0.1,0.3c0,0.06667 0.01667,0.15 0.05,0.25c0,0.1 0,0.18333 0,0.25c0,0.1 0,0.2 0,0.3c0,0.06667 0,0.15 0,0.25c0.03333,0.1 0.06667,0.2 0.1,0.3c0.03333,0.06667 0.06667,0.15 0.1,0.25c0.03333,0.1 0.06667,0.18333 0.1,0.25c0,0.1 0,0.2 0,0.3c0,0.06667 0,0.15 0,0.25c0,0.16667 0,0.35 0,0.55c0,0.06667 0,0.15 0,0.25c0.03333,0.1 0.06667,0.18333 0.1,0.25c0,0.1 0.03333,0.2 0.1,0.3c0.1,0.23333 0.16667,0.5 0.2,0.8c0,0.06667 0.01667,0.15 0.05,0.25c0.06667,0.3 0.16667,0.56667 0.3,0.8c0.03333,0.1 0.08333,0.2 0.15,0.3c0.06667,0.06667 0.15,0.15 0.25,0.25c0.16667,0.16667 0.35,0.35 0.55,0.55c0.06667,0.06667 0.15,0.15 0.25,0.25c2.06667,0.66667 4.21667,0.7 6.45,0.1c1,-0.26667 2.01667,-0.48333 3.05,-0.65c3.06667,-0.43333 6.11667,-0.58333 9.15,-0.45c0.1,0.43333 0.13333,0.88333 0.1,1.35c0,0.1 0,0.2 0,0.3c0,0.26667 0,0.53333 0,0.8c0,0.06667 0,0.15 0,0.25c0,0.26667 0.01667,0.53333 0.05,0.8c0,0.1 0,0.18333 0,0.25c0.03333,0.36667 0.13333,0.73333 0.3,1.1c0,0.43333 0,0.88333 0,1.35c0,0.06667 0,0.15 0,0.25c0,0.26667 0,0.53333 0,0.8c0,0.1 0,0.18333 0,0.25c0,0.26667 0,0.53333 0,0.8c0,0.1 0,0.2 0,0.3c0,0.06667 0,0.15 0,0.25c0,0.26667 0,0.53333 0,0.8c-4.76667,0.8 -9.58333,1.2 -14.45,1.2c-5.16667,0 -10.28333,0.25 -15.35,0.75c0,-0.26667 0,-0.53333 0,-0.8c0,-0.06667 0,-0.15 0,-0.25c0,-0.26667 -0.01667,-0.53333 -0.05,-0.8c0,-0.1 -0.01667,-0.18333 -0.05,-0.25c-0.03333,-0.2 -0.06667,-0.38333 -0.1,-0.55c-0.06667,-0.16667 -0.11667,-0.35 -0.15,-0.55c-0.06667,-1.33333 -0.1,-2.66667 -0.1,-4c0,-0.1 0,-0.2 0,-0.3c0,-0.06667 0,-0.15 0,-0.25c0,-0.26667 0,-0.53333 0,-0.8c0,-0.26667 -0.01667,-0.53333 -0.05,-0.8c0,-0.1 -0.01667,-0.18333 -0.05,-0.25c-0.06667,-0.36667 -0.15,-0.73333 -0.25,-1.1c0,-0.53333 0,-1.06667 0,-1.6c0,-2.23333 0,-4.46667 0,-6.7c0,-0.16667 -0.01667,-0.33333 -0.05,-0.5c-0.06667,-0.63333 -0.08333,-1.26667 -0.05,-1.9c0,-0.1 0,-0.18333 0,-0.25c0,-0.36667 0,-0.73333 0,-1.1c-0.03333,-0.1 -0.06667,-0.18333 -0.1,-0.25c-0.03333,-0.1 -0.06667,-0.2 -0.1,-0.3c-0.03333,-0.16667 -0.08333,-0.33333 -0.15,-0.5c-0.03333,-0.1 -0.06667,-0.2 -0.1,-0.3c0,-0.33333 0,-0.68333 0,-1.05c0,-0.1 0,-0.18333 0,-0.25c0,-0.3 0,-0.56667 0,-0.8c0,-0.1 0,-0.2 0,-0.3c0,-0.26667 0,-0.53333 0,-0.8c0,-0.1 0,-0.18333 0,-0.25c0,-0.1 0,-0.2 0,-0.3c0,-0.26667 0,-0.53333 0,-0.8c0.03333,-0.06667 0.06667,-0.15 0.1,-0.25c0.03333,-0.1 0.06667,-0.18333 0.1,-0.25c0,-0.1 0.01667,-0.2 0.05,-0.3c0,-0.26667 0,-0.53333 0,-0.8c-0.03333,-1.76667 -0.06667,-3.55 -0.1,-5.35c0,-0.1 -0.01667,-0.18333 -0.05,-0.25c0,-0.1 0,-0.2 0,-0.3c0,-0.53333 0,-1.06667 0,-1.6c0,-0.06667 -0.01667,-0.15 -0.05,-0.25c-0.06667,-0.36667 -0.08333,-0.73333 -0.05,-1.1c0.06667,-0.06667 0.11667,-0.15 0.15,-0.25c0.03333,-0.1 0.06667,-0.18333 0.1,-0.25c0.03333,-0.1 0.06667,-0.2 0.1,-0.3c0,-0.06667 0,-0.15 0,-0.25c-0.06667,-1.16667 -0.11667,-2.33333 -0.15,-3.5c0,-0.06667 0,-0.15 0,-0.25c0,-0.1 0,-0.18333 0,-0.25c0.03333,-0.3 0.01667,-0.58333 -0.05,-0.85c-0.03333,-0.26667 -0.05,-0.51667 -0.05,-0.75c0,-0.1 0,-0.2 0,-0.3c-0.06667,-0.36667 -0.06667,-0.71667 0,-1.05c0.03333,-0.1 0.06667,-0.2 0.1,-0.3c0,-0.06667 0.01667,-0.15 0.05,-0.25c0.03333,-0.1 0.06667,-0.18333 0.1,-0.25c0,-0.1 0,-0.2 0,-0.3c0,-0.06667 0,-0.15 0,-0.25c0,-0.1 0,-0.18333 0,-0.25c-0.03333,-0.2 -0.05,-0.38333 -0.05,-0.55c-0.03333,-0.1 -0.05,-0.18333 -0.05,-0.25c0.1,-0.1 0.18333,-0.2 0.25,-0.3c0.06667,-0.1 0.11667,-0.18333 0.15,-0.25c0.13333,-0.2 0.26667,-0.38333 0.4,-0.55c0.06667,-0.1 0.13333,-0.18333 0.2,-0.25c3.83333,-0.13333 7.66667,-0.28333 11.5,-0.45c3.96667,-0.2 7.9,-0.46667 11.8,-0.8c1.76667,0.03333 3.51667,0.06667 5.25,0.1c-0.1,0.83333 -0.13333,1.68333 -0.1,2.55c0.03333,0.1 0.05,0.2 0.05,0.3c-0.03333,0.23333 -0.03333,0.5 0,0.8c0,0.06667 0,0.15 0,0.25c0,0.26667 0,0.53333 0,0.8z" fill="#ffffff"/></g></g></svg>