<svg version="1.1" xmlns="http://www.w3.org/2000/svg" xmlns:xlink="http://www.w3.org/1999/xlink" width="795.275" height="172.8" viewBox="0,0,795.275,172.8"><g transform="translate(-242.6955,-275.5027)"><g data-paper-data="{&quot;isPaintingLayer&quot;:true}" fill-rule="nonzero" stroke="none" stroke-width="1" stroke-linecap="butt" stroke-linejoin="miter" stroke-miterlimit="10" stroke-dasharray="" stroke-dashoffset="0" style="mix-blend-mode: normal"><path d="M276.5955,288.3527c0.36667,-0.36667 0.73333,-0.73333 1.1,-1.1c0.33333,-0.23333 0.68333,-0.46667 1.05,-0.7c0.13333,-0.13333 0.26667,-0.21667 0.4,-0.25c0.56667,-0.2 1.15,-0.35 1.75,-0.45c0.6,-0.26667 1.2,-0.51667 1.8,-0.75c0.33333,-0.33333 0.68333,-0.68333 1.05,-1.05c0.36667,-0.23333 0.71667,-0.46667 1.05,-0.7c0.6,-0.23333 1.2,-0.48333 1.8,-0.75c0.36667,-0.23333 0.73333,-0.46667 1.1,-0.7c0.56667,-0.1 1.15,-0.21667 1.75,-0.35c1.06667,-0.23333 2.15,-0.45 3.25,-0.65c0.83333,-0.16667 1.65,-0.36667 2.45,-0.6c0.03333,0 0.05,-0.06667 0.05,-0.2c3.33333,0 6.66667,0 10,0c0.7,0.26667 1.4,0.51667 2.1,0.75c1.66667,0.23333 3.33333,0.46667 5,0.7c0.73333,0.23333 1.45,0.46667 2.15,0.7c0.73333,0.23333 1.45,0.48333 2.15,0.75c0.73333,0.23333 1.45,0.46667 2.15,0.7c0.36667,0.33333 0.71667,0.68333 1.05,1.05c0.36667,0.23333 0.71667,0.48333 1.05,0.75c0.13333,0.1 0.26667,0.21667 0.4,0.35c0.6,0.23333 1.2,0.46667 1.8,0.7c0.33333,0.23333 0.68333,0.46667 1.05,0.7c0.6,0.23333 1.2,0.46667 1.8,0.7c0.36667,0.36667 0.71667,0.73333 1.05,1.1c0.23333,0.36667 0.48333,0.71667 0.75,1.05c0.33333,0.36667 0.68333,0.73333 1.05,1.1c0.36667,0.33333 0.71667,0.68333 1.05,1.05c0.36667,0.36667 0.73333,0.73333 1.1,1.1c0.36667,0.33333 0.71667,0.68333 1.05,1.05c0.23333,0.36667 0.48333,0.71667 0.75,1.05c0.1,0.36667 0.21667,0.73333 0.35,1.1c0.23333,0.36667 0.46667,0.71667 0.7,1.05c0.36667,0.36667 0.71667,0.73333 1.05,1.1c0.16211,0.2026 0.31211,0.4026 0.45,0.6c0.32461,-0.3224 0.65794,-0.63906 1,-0.95c0.23333,-0.26667 0.46667,-0.51667 0.7,-0.75c0.23333,-0.1 0.48333,-0.21667 0.75,-0.35c0.56667,-0.1 1.15,-0.21667 1.75,-0.35c0.6,-0.23333 1.2,-0.45 1.8,-0.65c0.83333,-0.26667 1.66667,-0.55 2.5,-0.85c0.6,-0.2 1.2,-0.4 1.8,-0.6c0.83333,-0.26667 1.66667,-0.51667 2.5,-0.75c2.5,-0.23333 5,-0.46667 7.5,-0.7c0.83333,-0.26667 1.66667,-0.51667 2.5,-0.75c3.43333,-0.23333 6.88333,-0.46667 10.35,-0.7c0.83333,-0.23333 1.66667,-0.46667 2.5,-0.7c9.63333,-0.23333 19.26667,-0.48333 28.9,-0.75c0.83333,-0.23333 1.66667,-0.46667 2.5,-0.7c1.43333,0 2.86667,0 4.3,0c0.7,0.23333 1.41667,0.45 2.15,0.65c1.2,0.3 2.38333,0.58333 3.55,0.85c0.73333,0.2 1.45,0.41667 2.15,0.65c0.46667,0.36667 0.95,0.71667 1.45,1.05c0.33333,0.36667 0.68333,0.73333 1.05,1.1c0.36667,0.36667 0.71667,0.71667 1.05,1.05c0.5,0 0.98333,0 1.45,0c0.36667,-0.23333 0.71667,-0.46667 1.05,-0.7c0.6,-0.23333 1.2,-0.46667 1.8,-0.7c0.36667,-0.36667 0.73333,-0.73333 1.1,-1.1c0.23333,-0.23333 0.46667,-0.46667 0.7,-0.7c0.23333,-0.13333 0.46667,-0.25 0.7,-0.35c0.6,-0.23333 1.2,-0.46667 1.8,-0.7c0.36667,-0.26667 0.71667,-0.51667 1.05,-0.75c0.6,-0.23333 1.2,-0.46667 1.8,-0.7c0.36667,-0.23333 0.71667,-0.46667 1.05,-0.7c0.6,-0.13333 1.2,-0.25 1.8,-0.35c0.6,-0.26667 1.2,-0.5 1.8,-0.7c0.83333,-0.26667 1.66667,-0.53333 2.5,-0.8c0.6,-0.2 1.2,-0.4 1.8,-0.6c0.83333,-0.26667 1.66667,-0.53333 2.5,-0.8c2.96667,-0.23333 5.93333,-0.46667 8.9,-0.7c0.83333,-0.23333 1.66667,-0.46667 2.5,-0.7c3.46667,-0.23333 6.91667,-0.5 10.35,-0.8c0.83333,-0.06667 1.65,-0.21667 2.45,-0.45c0.03333,0 0.05,-0.06667 0.05,-0.2c10,0 20,0 30,0c0.73333,0.26667 1.45,0.51667 2.15,0.75c2.13333,0.23333 4.28333,0.46667 6.45,0.7c0.93333,0.1 1.88333,0.21667 2.85,0.35c0.7,0.23333 1.41667,0.46667 2.15,0.7c0.7,0.23333 1.4,0.48333 2.1,0.75c0.73333,0.23333 1.45,0.46667 2.15,0.7c0.36667,0.23333 0.73333,0.46667 1.1,0.7c0.6,0.23333 1.18333,0.46667 1.75,0.7c0.36667,0.26667 0.73333,0.51667 1.1,0.75c0.6,0.23333 1.2,0.46667 1.8,0.7c0.23333,0.23333 0.46667,0.46667 0.7,0.7c0.7,0.23333 1.41667,0.48333 2.15,0.75c0.23333,0.23333 0.46667,0.46667 0.7,0.7c0.7,0.23333 1.41667,0.46667 2.15,0.7c0.36667,0.36667 0.71667,0.73333 1.05,1.1c0.5,0.33333 0.98333,0.68333 1.45,1.05c0.36667,0.36667 0.71667,0.71667 1.05,1.05c0.73333,0.36667 1.45,0.73333 2.15,1.1c0.46667,0.36667 0.95,0.71667 1.45,1.05c0.23333,0.36667 0.46667,0.73333 0.7,1.1c0.23333,0.33333 0.46667,0.68333 0.7,1.05c0.23333,0.23333 0.48333,0.46667 0.75,0.7c0.56667,0.26667 1.15,0.51667 1.75,0.75c0.5,0.33333 0.98333,0.68333 1.45,1.05c0.36667,0.36667 0.71667,0.73333 1.05,1.1c0.36667,0.33333 0.73333,0.68333 1.1,1.05c0.23333,0.36667 0.46667,0.71667 0.7,1.05c0.13333,0.36667 0.25,0.73333 0.35,1.1c0.23333,0.36667 0.46667,0.71667 0.7,1.05c0.36667,0.36667 0.73333,0.73333 1.1,1.1c0.23333,0.33333 0.46667,0.68333 0.7,1.05c0.13333,0.36667 0.25,0.73333 0.35,1.1c0,0.33333 0,0.68333 0,1.05c0,0.36667 0,0.71667 0,1.05c0.13333,0.36667 0.25,0.73333 0.35,1.1c0.0862,0.11849 0.16953,0.23516 0.25,0.35c0.51771,0 1.03437,0 1.55,0c0.73333,0.23333 1.45,0.45 2.15,0.65c1.2,0.26667 2.38333,0.55 3.55,0.85c0.73333,0.2 1.45,0.41667 2.15,0.65c0.23333,0.23333 0.46667,0.46667 0.7,0.7c0.73333,0.23333 1.45,0.46667 2.15,0.7c0.36667,0.26667 0.73333,0.51667 1.1,0.75c0.6,0.23333 1.18333,0.46667 1.75,0.7c0.36667,0.23333 0.73333,0.46667 1.1,0.7c0.6,0.23333 1.2,0.48333 1.8,0.75c0.33333,0.33333 0.68333,0.68333 1.05,1.05c0.13333,0.36667 0.25,0.71667 0.35,1.05c0.23333,0.36667 0.46667,0.73333 0.7,1.1c0.36667,0.36667 0.73333,0.71667 1.1,1.05c0.23333,0.36667 0.46667,0.73333 0.7,1.1c0.13333,0.33333 0.25,0.68333 0.35,1.05c0.23333,0.23333 0.48333,0.46667 0.75,0.7c0.1,-0.1 0.21667,-0.21667 0.35,-0.35c0.33333,-0.33333 0.68333,-0.68333 1.05,-1.05c0.36667,-0.36667 0.73333,-0.73333 1.1,-1.1c0.1,-0.33333 0.21667,-0.68333 0.35,-1.05c0.1,-0.36667 0.21667,-0.71667 0.35,-1.05c0.36667,-0.36667 0.71667,-0.73333 1.05,-1.1c0.13333,-0.36667 0.25,-0.71667 0.35,-1.05c0,-0.36667 0,-0.73333 0,-1.1c0.26667,-0.33333 0.51667,-0.68333 0.75,-1.05c0.1,-0.36667 0.21667,-0.73333 0.35,-1.1c0.1,-0.33333 0.21667,-0.68333 0.35,-1.05c0.23333,-0.36667 0.46667,-0.71667 0.7,-1.05c0.36667,-0.36667 0.73333,-0.73333 1.1,-1.1c0.23333,-0.36667 0.46667,-0.71667 0.7,-1.05c0.13333,-0.36667 0.25,-0.73333 0.35,-1.1c0.23333,-0.33333 0.46667,-0.68333 0.7,-1.05c0.26667,-0.36667 0.51667,-0.73333 0.75,-1.1c0.1,-0.33333 0.21667,-0.68333 0.35,-1.05c0.1,-0.36667 0.21667,-0.71667 0.35,-1.05c0.23333,-0.36667 0.46667,-0.73333 0.7,-1.1c0,-0.36667 0,-0.71667 0,-1.05c0.13333,-0.36667 0.25,-0.73333 0.35,-1.1c0.26667,-0.33333 0.51667,-0.68333 0.75,-1.05c0.1,-0.36667 0.21667,-0.73333 0.35,-1.1c0.23333,-0.33333 0.46667,-0.68333 0.7,-1.05c0.13333,-0.36667 0.25,-0.71667 0.35,-1.05c0.13333,-0.36667 0.25,-0.73333 0.35,-1.1c0.26667,-0.36667 0.51667,-0.71667 0.75,-1.05c0.33333,-0.36667 0.68333,-0.73333 1.05,-1.1c0.23333,-0.33333 0.46667,-0.68333 0.7,-1.05c0.13333,-0.36667 0.26667,-0.73333 0.4,-1.1c0.23333,-0.33333 0.46667,-0.68333 0.7,-1.05c0.36667,-0.36667 0.71667,-0.71667 1.05,-1.05c0.23333,-0.36667 0.48333,-0.73333 0.75,-1.1c0.1,-0.36667 0.21667,-0.71667 0.35,-1.05c0.23333,-0.36667 0.46667,-0.73333 0.7,-1.1c0.36667,-0.33333 0.71667,-0.68333 1.05,-1.05c0.36667,-0.36667 0.73333,-0.73333 1.1,-1.1c0.36667,-0.33333 0.71667,-0.68333 1.05,-1.05c0.23333,-0.36667 0.48333,-0.71667 0.75,-1.05c0.33333,-0.36667 0.68333,-0.73333 1.05,-1.1c0.36667,-0.36667 0.71667,-0.71667 1.05,-1.05c0.36667,-0.36667 0.73333,-0.73333 1.1,-1.1c0.23333,-0.23333 0.46667,-0.46667 0.7,-0.7c0.23333,-0.1 0.48333,-0.21667 0.75,-0.35c0.56667,-0.23333 1.15,-0.46667 1.75,-0.7c0.36667,-0.23333 0.73333,-0.48333 1.1,-0.75c0.56667,-0.23333 1.15,-0.46667 1.75,-0.7c0.36667,-0.23333 0.73333,-0.46667 1.1,-0.7c0.6,-0.13333 1.18333,-0.25 1.75,-0.35c0.6,-0.23333 1.2,-0.48333 1.8,-0.75c0.83333,-0.1 1.65,-0.26667 2.45,-0.5c0.03333,0 0.05,-0.06667 0.05,-0.2c2.86667,0 5.73333,0 8.6,0c0.7,0.23333 1.41667,0.45 2.15,0.65c1.16667,0.3 2.33333,0.58333 3.5,0.85c0.73333,0.2 1.46667,0.41667 2.2,0.65c0.33333,0.23333 0.68333,0.46667 1.05,0.7c0.6,0.23333 1.2,0.48333 1.8,0.75c0.46667,0.33333 0.93333,0.68333 1.4,1.05c0.36667,0.36667 0.73333,0.71667 1.1,1.05c0.33333,0.36667 0.68333,0.73333 1.05,1.1c0.36667,0.33333 0.73333,0.68333 1.1,1.05c0.23333,0.23333 0.46667,0.46667 0.7,0.7c0.6,0.26667 1.2,0.51667 1.8,0.75c0.46667,0.33333 0.93333,0.68333 1.4,1.05c0.36667,0.36667 0.73333,0.73333 1.1,1.1c0.33333,0.33333 0.68333,0.68333 1.05,1.05c0.23333,0.36667 0.46667,0.71667 0.7,1.05c0.13333,0.36667 0.25,0.73333 0.35,1.1c0.26667,0.36667 0.51667,0.71667 0.75,1.05c0.33333,0.36667 0.68333,0.73333 1.05,1.1c0.36667,0.33333 0.73333,0.68333 1.1,1.05c0.23333,0.36667 0.46667,0.73333 0.7,1.1c0.23333,0.33333 0.46667,0.68333 0.7,1.05c0.13333,0.36667 0.25,0.71667 0.35,1.05c0.23333,0.36667 0.48333,0.73333 0.75,1.1c0.1,0.36667 0.21667,0.71667 0.35,1.05c0.1,0.36667 0.21667,0.73333 0.35,1.1c0,0.33333 0,0.68333 0,1.05c0.23333,0.36667 0.46667,0.73333 0.7,1.1c0.13333,0.33333 0.25,0.68333 0.35,1.05c0.13333,0.36667 0.25,0.71667 0.35,1.05c0,0.36667 0,0.73333 0,1.1c0,0.36667 0,0.71667 0,1.05c0,0.36667 0,0.73333 0,1.1c0,0.7 0,1.41667 0,2.15c0,0.7 0,1.4 0,2.1c0,0.73333 0,1.45 0,2.15c0,0.73333 0,1.45 0,2.15c0,0.73333 0,1.45 0,2.15c0,0.7 0,1.41667 0,2.15c0,0.36667 0,0.71667 0,1.05c-0.1,0.36667 -0.21667,0.73333 -0.35,1.1c-0.1,0.33333 -0.21667,0.68333 -0.35,1.05c-0.23333,0.36667 -0.46667,0.73333 -0.7,1.1c0,0.33333 0,0.68333 0,1.05c-0.13333,0.36667 -0.25,0.71667 -0.35,1.05c-0.13333,0.36667 -0.25,0.73333 -0.35,1.1c-0.26667,0.36667 -0.51667,0.71667 -0.75,1.05c-0.1,0.36667 -0.21667,0.73333 -0.35,1.1c-0.23333,0.33333 -0.46667,0.68333 -0.7,1.05c-0.13333,0.36667 -0.25,0.73333 -0.35,1.1c-0.23333,0.33333 -0.48333,0.68333 -0.75,1.05c-0.1,0.36667 -0.21667,0.71667 -0.35,1.05c-0.33333,0.36667 -0.68333,0.73333 -1.05,1.1c-0.23333,0.36667 -0.46667,0.71667 -0.7,1.05c-0.26667,0.36667 -0.51667,0.73333 -0.75,1.1c-0.1,0.33333 -0.21667,0.68333 -0.35,1.05c-0.23333,0.36667 -0.46667,0.73333 -0.7,1.1c-0.13333,0.33333 -0.25,0.68333 -0.35,1.05c-0.23333,0.36667 -0.48333,0.71667 -0.75,1.05c-0.1,0.36667 -0.21667,0.73333 -0.35,1.1c-0.23333,0.36667 -0.46667,0.71667 -0.7,1.05c-0.23333,0.36667 -0.46667,0.73333 -0.7,1.1c-0.36667,0.33333 -0.73333,0.68333 -1.1,1.05c-0.1,0.36667 -0.21667,0.73333 -0.35,1.1c-0.23333,0.33333 -0.46667,0.68333 -0.7,1.05c-0.23333,0.36667 -0.46667,0.71667 -0.7,1.05c-0.36667,0.36667 -0.73333,0.73333 -1.1,1.1c-0.36667,0.33333 -0.71667,0.68333 -1.05,1.05c-0.36667,0.36667 -0.73333,0.73333 -1.1,1.1c-0.46667,0.33333 -0.93333,0.68333 -1.4,1.05c-0.73333,0.36667 -1.45,0.71667 -2.15,1.05c-0.36667,0.36667 -0.73333,0.73333 -1.1,1.1c-0.23333,0.23333 -0.46667,0.46667 -0.7,0.7c-0.23333,0.13333 -0.46667,0.25 -0.7,0.35c-0.6,0.23333 -1.2,0.48333 -1.8,0.75c-0.36667,0.33333 -0.71667,0.68333 -1.05,1.05c-0.36667,0.36667 -0.73333,0.71667 -1.1,1.05c-0.33333,0.36667 -0.68333,0.73333 -1.05,1.1c-0.36667,0.36667 -0.71667,0.71667 -1.05,1.05c-0.36667,0.23333 -0.73333,0.48333 -1.1,0.75c-0.6,0.23333 -1.2,0.46667 -1.8,0.7c-0.33333,0.36667 -0.68333,0.71667 -1.05,1.05c-0.36667,0.36667 -0.71667,0.73333 -1.05,1.1c-0.36667,0.33333 -0.73333,0.68333 -1.1,1.05c-0.36667,0.36667 -0.71667,0.73333 -1.05,1.1c-0.73333,0.7 -1.45,1.4 -2.15,2.1c-0.36667,0.36667 -0.73333,0.73333 -1.1,1.1c-0.7,0.7 -1.4,1.41667 -2.1,2.15c0.1,0.33333 0.21667,0.68333 0.35,1.05c0.23333,0.36667 0.46667,0.73333 0.7,1.1c0.13333,0.33333 0.25,0.68333 0.35,1.05c0.23333,0.36667 0.46667,0.71667 0.7,1.05c0.13333,0.36667 0.26667,0.73333 0.4,1.1c0.23333,0.36667 0.46667,0.71667 0.7,1.05c0.1,0.36667 0.21667,0.73333 0.35,1.1c0.13333,0.33333 0.25,0.68333 0.35,1.05c0,0.36667 0,0.73333 0,1.1c0.23333,0.33333 0.46667,0.68333 0.7,1.05c0.13333,0.36667 0.26667,0.71667 0.4,1.05c0.1,0.36667 0.21667,0.73333 0.35,1.1c0,0.36667 0,0.71667 0,1.05c0,0.73333 0,1.45 0,2.15c0,1.06667 0,2.13333 0,3.2c-0.03333,1.43333 -0.03333,2.86667 0,4.3c0,1.43333 0,2.86667 0,4.3c0,1.76667 0,3.55 0,5.35c0,1.8 0,3.58333 0,5.35c0,1.06667 0,2.13333 0,3.2c-0.13333,0.36667 -0.25,0.73333 -0.35,1.1c-0.26667,0.36667 -0.51667,0.71667 -0.75,1.05c-0.1,0.36667 -0.21667,0.73333 -0.35,1.1c0,0.33333 0,0.68333 0,1.05c-0.1,0.36667 -0.21667,0.71667 -0.35,1.05c-0.23333,0.36667 -0.46667,0.73333 -0.7,1.1c-0.13333,0.36667 -0.25,0.71667 -0.35,1.05c0,0.36667 0,0.73333 0,1.1c-0.13333,0.33333 -0.26667,0.68333 -0.4,1.05c-0.23333,0.36667 -0.46667,0.73333 -0.7,1.1c-0.23333,0.33333 -0.46667,0.68333 -0.7,1.05c-0.36667,0.36667 -0.73333,0.71667 -1.1,1.05c-0.1,0.36667 -0.21667,0.73333 -0.35,1.1c-0.23333,0.36667 -0.46667,0.71667 -0.7,1.05c-0.23333,0.36667 -0.46667,0.73333 -0.7,1.1c-0.36667,0.33333 -0.73333,0.68333 -1.1,1.05c-0.33333,0.36667 -0.68333,0.73333 -1.05,1.1c-0.23333,0.23333 -0.46667,0.46667 -0.7,0.7c-0.26667,0.1 -0.51667,0.21667 -0.75,0.35c-0.6,0.23333 -1.18333,0.46667 -1.75,0.7c-0.36667,0.23333 -0.73333,0.48333 -1.1,0.75c-0.6,0.23333 -1.2,0.46667 -1.8,0.7c-0.33333,0.36667 -0.68333,0.71667 -1.05,1.05c-0.23333,0.23333 -0.46667,0.48333 -0.7,0.75c-0.23333,0.1 -0.48333,0.21667 -0.75,0.35c-0.83333,0.23333 -1.66667,0.46667 -2.5,0.7c-0.83333,0.36667 -1.66667,0.71667 -2.5,1.05c-0.23333,0.26667 -0.46667,0.51667 -0.7,0.75c-0.7,0.23333 -1.41667,0.46667 -2.15,0.7c-0.23333,0.23333 -0.46667,0.46667 -0.7,0.7c-0.6,0.13333 -1.2,0.25 -1.8,0.35c-4.26667,0 -8.55,0 -12.85,0c-0.83333,-0.23333 -1.66667,-0.45 -2.5,-0.65c-1.06667,-0.26667 -2.13333,-0.53333 -3.2,-0.8c-0.83333,-0.2 -1.66667,-0.43333 -2.5,-0.7c-0.6,-0.23333 -1.2,-0.45 -1.8,-0.65c-0.83333,-0.26667 -1.66667,-0.51667 -2.5,-0.75c-0.23333,-0.36667 -0.46667,-0.71667 -0.7,-1.05c-0.36667,-0.26667 -0.73333,-0.51667 -1.1,-0.75c-0.1,-0.1 -0.21667,-0.18333 -0.35,-0.25c-0.7,-0.3 -1.4,-0.56667 -2.1,-0.8c-0.26667,-0.36667 -0.51667,-0.73333 -0.75,-1.1c-0.46667,-0.33333 -0.93333,-0.68333 -1.4,-1.05c-0.23333,-0.36667 -0.48333,-0.71667 -0.75,-1.05c-0.23333,-0.36667 -0.46667,-0.73333 -0.7,-1.1c-0.1,-0.36667 -0.21667,-0.71667 -0.35,-1.05c-0.1,-0.27487 -0.2,-0.5582 -0.3,-0.85c-0.12292,0.04271 -0.25625,0.07604 -0.4,0.1c-3.33333,0 -6.66667,0 -10,0c-0.83333,-0.23333 -1.68333,-0.45 -2.55,-0.65c-1.03333,-0.26667 -2.08333,-0.53333 -3.15,-0.8c-0.86667,-0.2 -1.71667,-0.41667 -2.55,-0.65c-0.23333,-0.26667 -0.46667,-0.51667 -0.7,-0.75c-0.7,-0.23333 -1.41667,-0.48333 -2.15,-0.75c-0.6,-0.2 -1.2,-0.4 -1.8,-0.6c-0.8,-0.26667 -1.61667,-0.53333 -2.45,-0.8c-0.36667,-0.33333 -0.73333,-0.68333 -1.1,-1.05c-0.23333,-0.23333 -0.46667,-0.46667 -0.7,-0.7c-0.13333,-0.13333 -0.26667,-0.23333 -0.4,-0.3c-0.7,-0.3 -1.4,-0.56667 -2.1,-0.8c-0.46667,-0.33333 -0.95,-0.66667 -1.45,-1c-0.6,-0.4 -1.18333,-0.78333 -1.75,-1.15c-0.36667,-0.33333 -0.73333,-0.68333 -1.1,-1.05c-0.23333,-0.23333 -0.46667,-0.46667 -0.7,-0.7c-0.73333,-0.23333 -1.45,-0.46667 -2.15,-0.7c-0.23333,-0.36667 -0.46667,-0.73333 -0.7,-1.1c-0.36667,-0.23333 -0.73333,-0.46667 -1.1,-0.7c-0.1,-0.13333 -0.23333,-0.23333 -0.4,-0.3c-0.66667,-0.26667 -1.36667,-0.53333 -2.1,-0.8c-0.33333,-0.33333 -0.68333,-0.68333 -1.05,-1.05c-0.23333,-0.23333 -0.46667,-0.46667 -0.7,-0.7c-0.13333,-0.13333 -0.26667,-0.23333 -0.4,-0.3c-0.7,-0.3 -1.4,-0.56667 -2.1,-0.8c-0.26667,-0.33333 -0.51667,-0.68333 -0.75,-1.05c-0.46667,-0.36667 -0.93333,-0.73333 -1.4,-1.1c-0.36667,-0.33333 -0.73333,-0.68333 -1.1,-1.05c-0.83333,-0.36667 -1.66667,-0.71667 -2.5,-1.05c-0.23333,-0.36667 -0.46667,-0.73333 -0.7,-1.1c-0.23333,-0.36667 -0.46667,-0.71667 -0.7,-1.05c-0.13333,-0.36667 -0.25,-0.73333 -0.35,-1.1c-0.36667,-0.33333 -0.73333,-0.68333 -1.1,-1.05c-0.23333,0 -0.46667,0 -0.7,0c0,0.36667 0,0.71667 0,1.05c0,0.73333 0,1.45 0,2.15c0,0.73333 0,1.45 0,2.15c0,0.7 0,1.41667 0,2.15c0,0.7 0,1.41667 0,2.15c0,0.7 0,1.41667 0,2.15c-0.23333,0.33333 -0.46667,0.68333 -0.7,1.05c-0.26667,0.36667 -0.51667,0.71667 -0.75,1.05c0,0.36667 0,0.73333 0,1.1c0,0.33333 0,0.68333 0,1.05c0,0.36667 0,0.73333 0,1.1c0,0.33333 0,0.68333 0,1.05c-0.1,0.36667 -0.21667,0.71667 -0.35,1.05c-0.1,0.36667 -0.21667,0.73333 -0.35,1.1c-0.23333,0.36667 -0.46667,0.71667 -0.7,1.05c0,0.36667 0,0.73333 0,1.1c-0.13333,0.33333 -0.25,0.68333 -0.35,1.05c-0.13333,0.36667 -0.26667,0.73333 -0.4,1.1c-0.23333,0.33333 -0.46667,0.68333 -0.7,1.05c-0.46667,0.36667 -0.93333,0.71667 -1.4,1.05c-0.36667,0.36667 -0.73333,0.73333 -1.1,1.1c-0.23333,0.36667 -0.46667,0.71667 -0.7,1.05c-0.46667,0.36667 -0.95,0.73333 -1.45,1.1c-0.33333,0.33333 -0.68333,0.68333 -1.05,1.05c-0.23333,0.23333 -0.46667,0.46667 -0.7,0.7c-0.73333,0.26667 -1.45,0.51667 -2.15,0.75c-0.23333,0.23333 -0.46667,0.46667 -0.7,0.7c-0.6,0.13333 -1.2,0.25 -1.8,0.35c-0.6,0.23333 -1.2,0.46667 -1.8,0.7c-0.46667,0.36667 -0.93333,0.73333 -1.4,1.1c-0.26667,0.23333 -0.51667,0.46667 -0.75,0.7c-0.6,0.13333 -1.18333,0.28333 -1.75,0.45c-0.73333,0.16667 -1.45,0.38333 -2.15,0.65c-0.73333,0.23333 -1.45,0.46667 -2.15,0.7c-1.43333,0 -2.86667,0 -4.3,0c-0.83333,-0.23333 -1.66667,-0.46667 -2.5,-0.7c-0.23333,-0.26667 -0.46667,-0.51667 -0.7,-0.75c-0.73333,-0.23333 -1.45,-0.46667 -2.15,-0.7c-0.36667,-0.36667 -0.71667,-0.71667 -1.05,-1.05c-0.36667,-0.36667 -0.73333,-0.73333 -1.1,-1.1c-0.36667,-0.36667 -0.71667,-0.71667 -1.05,-1.05c-0.83333,-0.36667 -1.66667,-0.73333 -2.5,-1.1c-0.23333,-0.33333 -0.48333,-0.68333 -0.75,-1.05c-0.46667,-0.36667 -0.93333,-0.73333 -1.4,-1.1c-0.36667,-0.33333 -0.73333,-0.68333 -1.1,-1.05c-0.33333,-0.36667 -0.68333,-0.71667 -1.05,-1.05c-0.36667,-0.36667 -0.71667,-0.73333 -1.05,-1.1c-0.36667,-0.36667 -0.73333,-0.71667 -1.1,-1.05c-0.36667,-0.36667 -0.71667,-0.73333 -1.05,-1.1c-0.23333,-0.33333 -0.48333,-0.68333 -0.75,-1.05c-0.23333,-0.36667 -0.46667,-0.73333 -0.7,-1.1c-0.23333,-0.33333 -0.46667,-0.68333 -0.7,-1.05c-0.13333,-0.36667 -0.25,-0.71667 -0.35,-1.05c-0.23333,-0.36667 -0.48333,-0.73333 -0.75,-1.1c-0.1,-0.36667 -0.21667,-0.71667 -0.35,-1.05c-0.1,-0.36667 -0.21667,-0.73333 -0.35,-1.1c-0.36667,-0.33333 -0.71667,-0.68333 -1.05,-1.05c-0.23099,0.13203 -0.46432,0.26536 -0.7,0.4c-0.36667,0.2 -0.73333,0.41667 -1.1,0.65c-0.6,0.23333 -1.2,0.48333 -1.8,0.75c-0.6,0.33333 -1.18333,0.68333 -1.75,1.05c-0.26667,0.23333 -0.51667,0.46667 -0.75,0.7c-0.6,0.13333 -1.18333,0.25 -1.75,0.35c-0.6,0.26667 -1.2,0.51667 -1.8,0.75c-0.46667,0.33333 -0.95,0.68333 -1.45,1.05c-0.23333,0.23333 -0.46667,0.46667 -0.7,0.7c-0.6,0.13333 -1.2,0.26667 -1.8,0.4c-5.7,0 -11.4,0 -17.1,0c-0.83333,-0.26667 -1.66667,-0.51667 -2.5,-0.75c-0.26667,-0.33333 -0.51667,-0.68333 -0.75,-1.05c-0.33333,-0.23333 -0.68333,-0.46667 -1.05,-0.7c-0.13333,-0.13333 -0.26667,-0.23333 -0.4,-0.3c-0.7,-0.3 -1.4,-0.56667 -2.1,-0.8c-0.23333,-0.36667 -0.46667,-0.71667 -0.7,-1.05c-0.5,-0.36667 -0.98333,-0.73333 -1.45,-1.1c-0.36667,-0.33333 -0.71667,-0.68333 -1.05,-1.05c-0.26667,-0.36667 -0.51667,-0.71667 -0.75,-1.05c-0.1,-0.36667 -0.21667,-0.73333 -0.35,-1.1c-0.23333,-0.36667 -0.46667,-0.71667 -0.7,-1.05c-0.23333,-0.36667 -0.46667,-0.73333 -0.7,-1.1c-0.13333,-0.33333 -0.26667,-0.68333 -0.4,-1.05c-0.1,0.23333 -0.21667,0.46667 -0.35,0.7c0,0.36667 0,0.73333 0,1.1c0,0.33333 0,0.68333 0,1.05c-0.1,0.36667 -0.21667,0.71667 -0.35,1.05c-0.23333,0.36667 -0.46667,0.73333 -0.7,1.1c-0.13333,0.33333 -0.25,0.68333 -0.35,1.05c0,0.36667 0,0.73333 0,1.1c-0.13333,0.33333 -0.25,0.68333 -0.35,1.05c-0.26667,0.36667 -0.51667,0.71667 -0.75,1.05c-0.1,0.36667 -0.21667,0.73333 -0.35,1.1c-0.23333,0.36667 -0.46667,0.71667 -0.7,1.05c-0.23333,0.36667 -0.46667,0.73333 -0.7,1.1c-0.13333,0.33333 -0.26667,0.68333 -0.4,1.05c-0.1,0.36667 -0.21667,0.73333 -0.35,1.1c-0.23333,0.33333 -0.46667,0.68333 -0.7,1.05c-0.13333,0.36667 -0.25,0.71667 -0.35,1.05c-0.23333,0.36667 -0.46667,0.73333 -0.7,1.1c-0.26667,0.36667 -0.51667,0.71667 -0.75,1.05c-0.46667,0.36667 -0.93333,0.73333 -1.4,1.1c-0.36667,0.33333 -0.73333,0.68333 -1.1,1.05c-0.23333,0.36667 -0.46667,0.73333 -0.7,1.1c-0.36667,0.23333 -0.71667,0.46667 -1.05,0.7c-0.13333,0.1 -0.26667,0.21667 -0.4,0.35c-0.56667,0.23333 -1.15,0.46667 -1.75,0.7c-0.36667,0.36667 -0.73333,0.73333 -1.1,1.1c-0.33333,0.23333 -0.68333,0.46667 -1.05,0.7c-0.13333,0.13333 -0.26667,0.21667 -0.4,0.25c-0.7,0.3 -1.4,0.56667 -2.1,0.8c-0.23333,0.26667 -0.46667,0.51667 -0.7,0.75c-0.6,0.1 -1.2,0.21667 -1.8,0.35c-3.8,0 -7.61667,0 -11.45,0c-0.83333,-0.23333 -1.66667,-0.46667 -2.5,-0.7c-0.23333,-0.36667 -0.46667,-0.73333 -0.7,-1.1c-0.36667,-0.23333 -0.71667,-0.46667 -1.05,-0.7c-0.13333,-0.13333 -0.26667,-0.23333 -0.4,-0.3c-0.7,-0.26667 -1.4,-0.53333 -2.1,-0.8c-0.36667,-0.33333 -0.73333,-0.68333 -1.1,-1.05c-0.6,-0.36667 -1.2,-0.71667 -1.8,-1.05c-0.33333,-0.36667 -0.68333,-0.73333 -1.05,-1.1c-0.36667,-0.36667 -0.71667,-0.71667 -1.05,-1.05c-0.36667,-0.36667 -0.73333,-0.73333 -1.1,-1.1c-0.36667,-0.33333 -0.71667,-0.68333 -1.05,-1.05c-0.36667,-0.36667 -0.73333,-0.73333 -1.1,-1.1c0,-0.33333 0,-0.68333 0,-1.05c-0.23333,-0.36667 -0.46667,-0.71667 -0.7,-1.05c-0.23333,-0.36667 -0.46667,-0.73333 -0.7,-1.1c-0.13333,-0.36667 -0.25,-0.71667 -0.35,-1.05c-0.23333,-0.36667 -0.48333,-0.73333 -0.75,-1.1c-0.2681,-0.2681 -0.55143,-0.55143 -0.85,-0.85c-0.17904,0.29857 -0.36237,0.5819 -0.55,0.85c-0.13333,0.36667 -0.25,0.73333 -0.35,1.1c-0.23333,0.33333 -0.48333,0.68333 -0.75,1.05c-0.46667,0.36667 -0.93333,0.73333 -1.4,1.1c-0.36667,0.33333 -0.73333,0.68333 -1.1,1.05c-0.23333,0.36667 -0.46667,0.71667 -0.7,1.05c-0.36667,0.36667 -0.71667,0.73333 -1.05,1.1c-0.23333,0.23333 -0.48333,0.46667 -0.75,0.7c-0.1,0.13333 -0.21667,0.23333 -0.35,0.3c-0.7,0.26667 -1.41667,0.53333 -2.15,0.8c-0.33333,0.33333 -0.68333,0.68333 -1.05,1.05c-0.23333,0.23333 -0.46667,0.46667 -0.7,0.7c-0.13333,0.13333 -0.26667,0.23333 -0.4,0.3c-0.56667,0.3 -1.15,0.56667 -1.75,0.8c-0.36667,0.33333 -0.73333,0.68333 -1.1,1.05c-0.33333,0.23333 -0.68333,0.46667 -1.05,0.7c-0.13333,0.13333 -0.26667,0.23333 -0.4,0.3c-0.7,0.3 -1.4,0.56667 -2.1,0.8c-0.23333,0.23333 -0.46667,0.46667 -0.7,0.7c-0.73333,0.23333 -1.45,0.46667 -2.15,0.7c-0.36667,0.36667 -0.73333,0.73333 -1.1,1.1c-0.23333,0.23333 -0.46667,0.46667 -0.7,0.7c-0.1,0.13333 -0.23333,0.21667 -0.4,0.25c-0.56667,0.2 -1.15,0.35 -1.75,0.45c-1.16667,0.26667 -2.35,0.53333 -3.55,0.8c-0.73333,0.2 -1.45,0.41667 -2.15,0.65c-2.63333,0.23333 -5.25,0.46667 -7.85,0.7c-0.73333,0.23333 -1.45,0.48333 -2.15,0.75c-5.23333,0 -10.46667,0 -15.7,0c-0.83333,-0.26667 -1.66667,-0.5 -2.5,-0.7c-1.06667,-0.26667 -2.13333,-0.53333 -3.2,-0.8c-0.86667,-0.2 -1.7,-0.43333 -2.5,-0.7c-0.6,-0.2 -1.21667,-0.4 -1.85,-0.6c-0.8,-0.3 -1.61667,-0.56667 -2.45,-0.8c-0.23333,-0.23333 -0.46667,-0.46667 -0.7,-0.7c-0.73333,-0.23333 -1.45,-0.48333 -2.15,-0.75c-0.6,-0.23333 -1.2,-0.45 -1.8,-0.65c-0.83333,-0.26667 -1.66667,-0.51667 -2.5,-0.75c-0.23333,-0.36667 -0.46667,-0.71667 -0.7,-1.05c-0.5,-0.36667 -0.98333,-0.73333 -1.45,-1.1c-0.36667,-0.36667 -0.71667,-0.71667 -1.05,-1.05c-0.36667,-0.36667 -0.73333,-0.73333 -1.1,-1.1c-0.33333,-0.33333 -0.68333,-0.68333 -1.05,-1.05c-0.36667,-0.36667 -0.73333,-0.73333 -1.1,-1.1c-0.33333,-0.33333 -0.68333,-0.68333 -1.05,-1.05c-0.23333,-0.36667 -0.46667,-0.71667 -0.7,-1.05c-0.13333,-0.36667 -0.25,-0.73333 -0.35,-1.1c-0.26667,-0.36667 -0.51667,-0.71667 -0.75,-1.05c-0.33333,-0.36667 -0.68333,-0.73333 -1.05,-1.1c-0.23333,-0.33333 -0.46667,-0.68333 -0.7,-1.05c-0.13333,-0.36667 -0.26667,-0.73333 -0.4,-1.1c-0.23333,-0.33333 -0.46667,-0.68333 -0.7,-1.05c-0.36667,-0.36667 -0.71667,-0.71667 -1.05,-1.05c-0.23333,-0.36667 -0.48333,-0.73333 -0.75,-1.1c-0.1,-0.36667 -0.21667,-0.71667 -0.35,-1.05c-0.23333,-0.36667 -0.46667,-0.73333 -0.7,-1.1c-0.36667,-0.33333 -0.71667,-0.68333 -1.05,-1.05c-0.36667,-0.36667 -0.73333,-0.71667 -1.1,-1.05c-0.23333,-0.36667 -0.46667,-0.73333 -0.7,-1.1c-0.23333,-0.36667 -0.46667,-0.71667 -0.7,-1.05c-0.13333,-0.36667 -0.26667,-0.73333 -0.4,-1.1c-0.23333,-0.33333 -0.46667,-0.68333 -0.7,-1.05c-0.1,-0.36667 -0.21667,-0.73333 -0.35,-1.1c-0.23333,-0.33333 -0.46667,-0.68333 -0.7,-1.05c-0.23333,-0.36667 -0.48333,-0.71667 -0.75,-1.05c0,-0.36667 0,-0.73333 0,-1.1c0,-0.36667 0,-0.71667 0,-1.05c0,-0.36667 0,-0.73333 0,-1.1c-0.1,-0.33333 -0.21667,-0.68333 -0.35,-1.05c-0.23333,-0.36667 -0.46667,-0.73333 -0.7,-1.1c-0.13333,-0.33333 -0.25,-0.68333 -0.35,-1.05c0,-0.36667 0,-0.71667 0,-1.05c-0.13333,-0.36667 -0.25,-0.73333 -0.35,-1.1c-0.23333,-0.36667 -0.48333,-0.71667 -0.75,-1.05c-0.1,-0.36667 -0.21667,-0.73333 -0.35,-1.1c0,-0.33333 0,-0.68333 0,-1.05c0,-0.36667 0,-0.73333 0,-1.1c-0.1,-0.33333 -0.21667,-0.68333 -0.35,-1.05c-0.1,-0.36667 -0.21667,-0.71667 -0.35,-1.05c-0.23333,-0.36667 -0.46667,-0.73333 -0.7,-1.1c0,-0.36667 0,-0.71667 0,-1.05c0,-0.36667 0,-0.73333 0,-1.1c0,-0.33333 0,-0.68333 0,-1.05c0,-0.73333 0,-1.45 0,-2.15c0,-0.7 0,-1.41667 0,-2.15c0,-1.06667 0,-2.13333 0,-3.2c0,-0.73333 0,-1.45 0,-2.15c0,-1.06667 0,-2.13333 0,-3.2c0,-1.06667 0,-2.15 0,-3.25c0.23333,-0.33333 0.46667,-0.68333 0.7,-1.05c0.13333,-0.36667 0.25,-0.71667 0.35,-1.05c0.13333,-0.36667 0.25,-0.73333 0.35,-1.1c0,-0.36667 0,-0.71667 0,-1.05c0,-0.36667 0,-0.73333 0,-1.1c0,-0.33333 0,-0.68333 0,-1.05c0,-0.36667 0,-0.73333 0,-1.1c0.23333,-0.33333 0.48333,-0.68333 0.75,-1.05c0.23333,-0.36667 0.46667,-0.71667 0.7,-1.05c0.1,-0.36667 0.21667,-0.73333 0.35,-1.1c0.23333,-0.36667 0.46667,-0.71667 0.7,-1.05c0.13333,-0.36667 0.25,-0.73333 0.35,-1.1c0,-0.33333 0,-0.68333 0,-1.05c0.13333,-0.36667 0.26667,-0.73333 0.4,-1.1c0.23333,-0.33333 0.46667,-0.68333 0.7,-1.05c0.36667,-0.36667 0.71667,-0.71667 1.05,-1.05c0.5,-0.36667 0.98333,-0.73333 1.45,-1.1c0.23333,-0.36667 0.46667,-0.71667 0.7,-1.05c0.36667,-0.36667 0.73333,-0.73333 1.1,-1.1c0.33333,-0.33333 0.68333,-0.68333 1.05,-1.05c0.46667,-0.36667 0.95,-0.73333 1.45,-1.1c0.23333,-0.33333 0.46667,-0.68333 0.7,-1.05c0.83333,-0.23333 1.66667,-0.46667 2.5,-0.7c0.36667,-0.23333 0.71667,-0.46667 1.05,-0.7c-0.23333,-0.36667 -0.46667,-0.73333 -0.7,-1.1c0,-0.36667 0,-0.71667 0,-1.05c0,-0.36667 0,-0.73333 0,-1.1c-0.23333,-0.33333 -0.46667,-0.68333 -0.7,-1.05c-0.23333,-0.36667 -0.48333,-0.73333 -0.75,-1.1c0,-0.33333 0,-0.68333 0,-1.05c0,-0.36667 0,-0.71667 0,-1.05c0,-0.36667 0,-0.73333 0,-1.1c-0.1,-0.36667 -0.21667,-0.71667 -0.35,-1.05c-0.23333,-0.36667 -0.46667,-0.73333 -0.7,-1.1c-0.13333,-0.33333 -0.25,-0.68333 -0.35,-1.05c0,-0.36667 0,-0.73333 0,-1.1c0,-0.33333 0,-0.68333 0,-1.05c0,-0.36667 0,-0.71667 0,-1.05c0,-0.36667 0,-0.73333 0,-1.1c0,-0.36667 0,-0.71667 0,-1.05c0,-0.73333 0,-1.45 0,-2.15c0,-1.06667 0,-2.13333 0,-3.2c0,-0.73333 0,-1.45 0,-2.15c0,-0.73333 0,-1.45 0,-2.15c0,-0.36667 0,-0.73333 0,-1.1c0.23333,-0.33333 0.46667,-0.68333 0.7,-1.05c0.13333,-0.36667 0.25,-0.71667 0.35,-1.05c0.13333,-0.36667 0.25,-0.73333 0.35,-1.1c0,-0.36667 0,-0.71667 0,-1.05c0,-0.36667 0,-0.73333 0,-1.1c0,-0.33333 0,-0.68333 0,-1.05c0,-0.36667 0,-0.73333 0,-1.1c0,-0.33333 0,-0.68333 0,-1.05c0,-0.36667 0,-0.71667 0,-1.05c0.13333,-0.36667 0.26667,-0.73333 0.4,-1.1c0.23333,-0.36667 0.46667,-0.71667 0.7,-1.05c0.1,-0.36667 0.21667,-0.73333 0.35,-1.1c0.23333,-0.33333 0.46667,-0.68333 0.7,-1.05c0.13333,-0.36667 0.25,-0.73333 0.35,-1.1c0.13333,-0.33333 0.26667,-0.68333 0.4,-1.05c0,-0.36667 0,-0.71667 0,-1.05c0.23333,-0.36667 0.46667,-0.73333 0.7,-1.1c0.23333,-0.36667 0.46667,-0.71667 0.7,-1.05c0.36667,-0.36667 0.73333,-0.73333 1.1,-1.1c0.33333,-0.33333 0.68333,-0.68333 1.05,-1.05c0.23333,-0.36667 0.46667,-0.73333 0.7,-1.1c0.13333,-0.33333 0.25,-0.68333 0.35,-1.05c0.26667,-0.36667 0.51667,-0.71667 0.75,-1.05c0.33333,-0.36667 0.68333,-0.73333 1.05,-1.1c0.46667,-0.36667 0.95,-0.71667 1.45,-1.05c0.23333,-0.36667 0.46667,-0.73333 0.7,-1.1c0.36667,-0.33333 0.71667,-0.68333 1.05,-1.05c0.36667,-0.23333 0.73333,-0.46667 1.1,-0.7c0.6,-0.26667 1.2,-0.51667 1.8,-0.75c0.33333,-0.33333 0.68333,-0.68333 1.05,-1.05c0.36667,-0.36667 0.71667,-0.73333 1.05,-1.1c0.36667,-0.33333 0.73333,-0.68333 1.1,-1.05c0.36667,-0.36667 0.71667,-0.71667 1.05,-1.05M905.4455,290.1027c0.6,0.23333 1.2,0.48333 1.8,0.75c0.46667,0.33333 0.95,0.66667 1.45,1c0.6,0.4 1.18333,0.76667 1.75,1.1c0.36667,0.36667 0.73333,0.73333 1.1,1.1c0.23333,0.23333 0.46667,0.46667 0.7,0.7c0.6,0.23333 1.2,0.46667 1.8,0.7c0.36667,0.26667 0.71667,0.51667 1.05,0.75c0.52643,0.20469 1.0431,0.40469 1.55,0.6c0.08711,-0.20117 0.17044,-0.40117 0.25,-0.6c0.23333,-0.36667 0.46667,-0.73333 0.7,-1.1c0.13333,-0.33333 0.25,-0.68333 0.35,-1.05c0.26667,-0.36667 0.51667,-0.73333 0.75,-1.1c0.33333,-0.33333 0.68333,-0.68333 1.05,-1.05c0.83333,-0.36667 1.66667,-0.71667 2.5,-1.05c0.36667,-0.26667 0.73333,-0.51667 1.1,-0.75c0.56667,-0.1 1.15,-0.21667 1.75,-0.35c4.4,-0.23333 8.81667,-0.46667 13.25,-0.7c0.83333,-0.23333 1.66667,-0.46667 2.5,-0.7c6.76667,-0.26667 13.55,-0.51667 20.35,-0.75c0.83333,-0.23333 1.65,-0.48333 2.45,-0.75c0.6,-0.2 1.21667,-0.4 1.85,-0.6c0.8,-0.26667 1.63333,-0.51667 2.5,-0.75c1.03333,-0.26667 2.1,-0.51667 3.2,-0.75c0.83333,-0.36667 1.66667,-0.71667 2.5,-1.05c0.33333,-0.23333 0.68333,-0.46667 1.05,-0.7c0.6,-0.13333 1.2,-0.26667 1.8,-0.4c0.6,-0.23333 1.18333,-0.46667 1.75,-0.7c0.83333,-0.36667 1.66667,-0.71667 2.5,-1.05c0.36667,-0.23333 0.73333,-0.48333 1.1,-0.75c0.6,-0.23333 1.2,-0.46667 1.8,-0.7c0.33333,-0.23333 0.68333,-0.46667 1.05,-0.7c0.6,-0.23333 1.2,-0.46667 1.8,-0.7c0.33333,-0.26667 0.68333,-0.51667 1.05,-0.75c0.6,-0.1 1.2,-0.21667 1.8,-0.35c0.6,-0.23333 1.2,-0.46667 1.8,-0.7c0.83333,-0.13333 1.65,-0.31667 2.45,-0.55c0.03333,0 0.05,-0.05 0.05,-0.15c5.23333,0 10.46667,0 15.7,0c0.7,0.23333 1.41667,0.46667 2.15,0.7c0.7,0.23333 1.41667,0.46667 2.15,0.7c0.7,0.23333 1.4,0.46667 2.1,0.7c0.36667,0.26667 0.73333,0.51667 1.1,0.75c0.6,0.23333 1.2,0.46667 1.8,0.7c0.46667,0.36667 0.93333,0.71667 1.4,1.05c0.23333,0.26667 0.46667,0.51667 0.7,0.75c0.13333,0.1 0.26667,0.18333 0.4,0.25c0.56667,0.3 1.15,0.56667 1.75,0.8c0.36667,0.23333 0.73333,0.46667 1.1,0.7c0.6,0.26667 1.18333,0.51667 1.75,0.75c0.5,0.33333 0.98333,0.68333 1.45,1.05c0.36667,0.36667 0.71667,0.71667 1.05,1.05c0.13333,0.36667 0.25,0.73333 0.35,1.1c0.26667,0.36667 0.51667,0.71667 0.75,1.05c0.23333,0.36667 0.46667,0.73333 0.7,1.1c0.36667,0.33333 0.71667,0.68333 1.05,1.05c0.13333,0.36667 0.26667,0.73333 0.4,1.1c0.23333,0.33333 0.46667,0.68333 0.7,1.05c0.23333,0.36667 0.46667,0.71667 0.7,1.05c0.36667,0.36667 0.73333,0.73333 1.1,1.1c0.1,0.36667 0.21667,0.71667 0.35,1.05c0.23333,0.36667 0.46667,0.73333 0.7,1.1c0,0.33333 0,0.68333 0,1.05c0.13333,0.36667 0.25,0.73333 0.35,1.1c0.13333,0.33333 0.25,0.68333 0.35,1.05c0.23333,0.36667 0.48333,0.71667 0.75,1.05c0.1,0.36667 0.21667,0.73333 0.35,1.1c0.23333,0.36667 0.46667,0.71667 0.7,1.05c0.13333,0.36667 0.25,0.73333 0.35,1.1c0,0.33333 0,0.68333 0,1.05c0,0.36667 0,0.73333 0,1.1c0,0.33333 0,0.68333 0,1.05c0,0.36667 0,0.71667 0,1.05c0,0.73333 0,1.45 0,2.15c0.03333,1.06667 0.03333,2.15 0,3.25c0,0.7 0,1.4 0,2.1c0,0.36667 0,0.73333 0,1.1c0,0.36667 0,0.71667 0,1.05c-0.1,0.36667 -0.21667,0.73333 -0.35,1.1c0,0.33333 0,0.68333 0,1.05c-0.13333,0.36667 -0.25,0.73333 -0.35,1.1c-0.13333,0.33333 -0.25,0.68333 -0.35,1.05c-0.23333,0.36667 -0.48333,0.71667 -0.75,1.05c-0.1,0.36667 -0.21667,0.73333 -0.35,1.1c-0.23333,0.36667 -0.46667,0.71667 -0.7,1.05c-0.13333,0.36667 -0.25,0.73333 -0.35,1.1c0,0.33333 0,0.68333 0,1.05c-0.13333,0.36667 -0.25,0.73333 -0.35,1.1c-0.23333,0.33333 -0.48333,0.68333 -0.75,1.05c-0.33333,0.36667 -0.68333,0.71667 -1.05,1.05c-0.23333,0.36667 -0.46667,0.73333 -0.7,1.1c-0.36667,0.36667 -0.73333,0.71667 -1.1,1.05c-0.33333,0.36667 -0.68333,0.73333 -1.05,1.1c-0.23333,0.33333 -0.46667,0.68333 -0.7,1.05c-0.26667,0.36667 -0.51667,0.73333 -0.75,1.1c-0.23333,0.33333 -0.46667,0.68333 -0.7,1.05c-0.23333,0.36667 -0.46667,0.71667 -0.7,1.05c-0.46667,0.36667 -0.95,0.73333 -1.45,1.1c-0.23333,0.36667 -0.46667,0.71667 -0.7,1.05c-0.36667,0.36667 -0.71667,0.73333 -1.05,1.1c-0.36667,0.33333 -0.73333,0.68333 -1.1,1.05c-0.36667,0.23333 -0.71667,0.48333 -1.05,0.75c-0.13333,0.1 -0.25,0.21667 -0.35,0.35c-0.6,0.23333 -1.2,0.46667 -1.8,0.7c-0.36667,0.36667 -0.73333,0.71667 -1.1,1.05c-0.33333,0.23333 -0.68333,0.48333 -1.05,0.75c-0.13333,0.1 -0.25,0.21667 -0.35,0.35c-0.46667,0.23333 -0.95,0.46667 -1.45,0.7c0.13333,0.36667 0.25,0.71667 0.35,1.05c0.26667,0.36667 0.51667,0.73333 0.75,1.1c0.1,0.36667 0.21667,0.71667 0.35,1.05c0.23333,0.36667 0.46667,0.73333 0.7,1.1c0.13333,0.33333 0.25,0.68333 0.35,1.05c0.23333,0.36667 0.48333,0.71667 0.75,1.05c0.1,0.36667 0.21667,0.73333 0.35,1.1c0.1,0.36667 0.21667,0.71667 0.35,1.05c0,0.36667 0,0.73333 0,1.1c0,0.33333 0,0.68333 0,1.05c-0.13333,0.36667 -0.25,0.73333 -0.35,1.1c0,0.33333 0,0.68333 0,1.05c0,0.36667 0,0.71667 0,1.05c0,0.36667 0,0.73333 0,1.1c-0.23333,0.36667 -0.48333,0.71667 -0.75,1.05c-0.23333,0.36667 -0.46667,0.73333 -0.7,1.1c-0.1,0.33333 -0.21667,0.68333 -0.35,1.05c-0.13333,0.36667 -0.25,0.73333 -0.35,1.1c-0.23333,0.33333 -0.46667,0.68333 -0.7,1.05c-0.13333,0.36667 -0.26667,0.71667 -0.4,1.05c-0.23333,0.36667 -0.46667,0.73333 -0.7,1.1c-0.36667,0.36667 -0.71667,0.71667 -1.05,1.05c-0.36667,0.36667 -0.73333,0.73333 -1.1,1.1c-0.33333,0.33333 -0.68333,0.68333 -1.05,1.05c-0.36667,0.36667 -0.73333,0.73333 -1.1,1.1c-0.23333,0.23333 -0.46667,0.46667 -0.7,0.7c-0.1,0.1 -0.23333,0.18333 -0.4,0.25c-0.43333,0.2 -0.9,0.35 -1.4,0.45c0.36667,0.13333 0.73333,0.25 1.1,0.35c0.7,0.23333 1.41667,0.48333 2.15,0.75c0.7,0.23333 1.41667,0.46667 2.15,0.7c0.7,0.23333 1.4,0.46667 2.1,0.7c0.36667,0.23333 0.73333,0.46667 1.1,0.7c0.6,0.26667 1.2,0.51667 1.8,0.75c0.33333,0.23333 0.68333,0.46667 1.05,0.7c0.6,0.23333 1.2,0.46667 1.8,0.7c0.46667,0.36667 0.93333,0.73333 1.4,1.1c0.36667,0.33333 0.73333,0.68333 1.1,1.05c0.33333,0.36667 0.68333,0.73333 1.05,1.1c0.23333,0.33333 0.46667,0.68333 0.7,1.05c0.13333,0.36667 0.26667,0.71667 0.4,1.05c0.23333,0.36667 0.46667,0.73333 0.7,1.1c0.1,0.36667 0.21667,0.71667 0.35,1.05c0.23333,0.36667 0.46667,0.73333 0.7,1.1c0,0.33333 0,0.68333 0,1.05c0.13333,0.36667 0.25,0.73333 0.35,1.1c0.13333,0.33333 0.25,0.68333 0.35,1.05c0.26667,0.36667 0.51667,0.71667 0.75,1.05c0,0.36667 0,0.73333 0,1.1c0,0.36667 0,0.71667 0,1.05c0,0.36667 0,0.73333 0,1.1c0,0.33333 0,0.68333 0,1.05c0,0.73333 0,1.45 0,2.15c0,1.06667 0,2.13333 0,3.2c0,0.73333 0,1.45 0,2.15c0,0.36667 0,0.73333 0,1.1c0,0.33333 0,0.68333 0,1.05c-0.13333,0.36667 -0.25,0.71667 -0.35,1.05c-0.26667,0.36667 -0.51667,0.73333 -0.75,1.1c-0.1,0.36667 -0.21667,0.71667 -0.35,1.05c0,0.36667 0,0.73333 0,1.1c-0.1,0.33333 -0.21667,0.68333 -0.35,1.05c-0.23333,0.36667 -0.46667,0.73333 -0.7,1.1c-0.13333,0.33333 -0.25,0.68333 -0.35,1.05c0,0.36667 0,0.71667 0,1.05c-0.13333,0.36667 -0.25,0.73333 -0.35,1.1c-0.26667,0.36667 -0.51667,0.71667 -0.75,1.05c-0.23333,0.36667 -0.46667,0.73333 -0.7,1.1c-0.36667,0.33333 -0.71667,0.68333 -1.05,1.05c-0.13333,0.36667 -0.26667,0.71667 -0.4,1.05c-0.23333,0.36667 -0.46667,0.73333 -0.7,1.1c-0.23333,0.36667 -0.46667,0.71667 -0.7,1.05c-0.36667,0.36667 -0.73333,0.73333 -1.1,1.1c-0.33333,0.33333 -0.68333,0.68333 -1.05,1.05c-0.36667,0.36667 -0.71667,0.73333 -1.05,1.1c-0.36667,0.33333 -0.73333,0.68333 -1.1,1.05c-0.36667,0.36667 -0.71667,0.71667 -1.05,1.05c-0.6,0.36667 -1.2,0.73333 -1.8,1.1c-0.23333,0.36667 -0.46667,0.71667 -0.7,1.05c-0.36667,0.36667 -0.73333,0.73333 -1.1,1.1c-0.7,0.33333 -1.41667,0.68333 -2.15,1.05c-0.33333,0.36667 -0.68333,0.73333 -1.05,1.1c-0.36667,0.33333 -0.71667,0.68333 -1.05,1.05c-0.36667,0.36667 -0.73333,0.71667 -1.1,1.05c-0.36667,0.36667 -0.71667,0.73333 -1.05,1.1c-0.36667,0.23333 -0.73333,0.46667 -1.1,0.7c-0.6,0.23333 -1.18333,0.46667 -1.75,0.7c-0.36667,0.26667 -0.73333,0.51667 -1.1,0.75c-0.6,0.23333 -1.2,0.46667 -1.8,0.7c-0.33333,0.23333 -0.68333,0.46667 -1.05,0.7c-0.6,0.13333 -1.2,0.25 -1.8,0.35c-1.16667,0.26667 -2.35,0.53333 -3.55,0.8c-0.73333,0.2 -1.45,0.41667 -2.15,0.65c-5.96667,0.23333 -11.91667,0.46667 -17.85,0.7c-0.73333,0.23333 -1.45,0.48333 -2.15,0.75c-2.86667,0 -5.71667,0 -8.55,0c-0.83333,-0.26667 -1.68333,-0.48333 -2.55,-0.65c-1.53333,-0.3 -3.06667,-0.6 -4.6,-0.9c-0.83333,-0.16667 -1.66667,-0.36667 -2.5,-0.6c-0.46667,-0.36667 -0.95,-0.71667 -1.45,-1.05c-0.33333,-0.26667 -0.7,-0.5 -1.1,-0.7c-0.2,-0.16667 -0.41667,-0.3 -0.65,-0.4c-0.96667,-0.13333 -1.93333,-0.25 -2.9,-0.35c-0.83333,-0.23333 -1.66667,-0.48333 -2.5,-0.75c-0.83333,0 -1.66667,0 -2.5,0c-0.7,0.26667 -1.4,0.51667 -2.1,0.75c-2.63333,0.23333 -5.26667,0.46667 -7.9,0.7c-0.7,0.23333 -1.4,0.46667 -2.1,0.7c-3.1,0.23333 -6.2,0.48333 -9.3,0.75c-0.73333,0.23333 -1.45,0.46667 -2.15,0.7c-2.86667,0 -5.71667,0 -8.55,0c-0.83333,-0.23333 -1.66667,-0.46667 -2.5,-0.7c-0.26667,-0.36667 -0.51667,-0.73333 -0.75,-1.1c-0.46667,-0.36667 -0.95,-0.7 -1.45,-1c-0.56667,-0.4 -1.15,-0.78333 -1.75,-1.15c-0.36667,-0.33333 -0.71667,-0.68333 -1.05,-1.05c-0.36667,-0.36667 -0.73333,-0.73333 -1.1,-1.1c-0.36667,-0.33333 -0.71667,-0.68333 -1.05,-1.05c-0.36667,-0.36667 -0.73333,-0.71667 -1.1,-1.05c-0.33333,-0.36667 -0.68333,-0.73333 -1.05,-1.1c-0.36667,-0.36667 -0.73333,-0.71667 -1.1,-1.05c-0.23333,-0.36667 -0.46667,-0.73333 -0.7,-1.1c-0.08438,-0.28138 -0.18437,-0.58138 -0.3,-0.9c-0.13034,0.0888 -0.26367,0.17214 -0.4,0.25c-0.36667,0.2 -0.73333,0.41667 -1.1,0.65c-0.56667,0.23333 -1.15,0.48333 -1.75,0.75c-0.36667,0.33333 -0.73333,0.68333 -1.1,1.05c-0.23333,0.23333 -0.46667,0.46667 -0.7,0.7c-0.23333,0.13333 -0.46667,0.25 -0.7,0.35c-0.6,0.26667 -1.2,0.51667 -1.8,0.75c-0.36667,0.23333 -0.71667,0.46667 -1.05,0.7c-2.1,0.43333 -4.15,1 -6.15,1.7c-3.26667,1.13333 -6.58333,2.11667 -9.95,2.95c-1.9,0.46667 -3.8,0.93333 -5.7,1.4c-5.7,-0.1 -11.41667,-0.21667 -17.15,-0.35c-0.83333,-0.23333 -1.66667,-0.45 -2.5,-0.65c-1.06667,-0.26667 -2.13333,-0.53333 -3.2,-0.8c-0.83333,-0.2 -1.66667,-0.43333 -2.5,-0.7c-0.13333,-0.23333 -0.25,-0.46667 -0.35,-0.7c-0.83333,-0.23333 -1.66667,-0.46667 -2.5,-0.7c-0.23333,-0.36667 -0.48333,-0.73333 -0.75,-1.1c-0.33333,-0.23333 -0.68333,-0.46667 -1.05,-0.7c-0.13333,-0.1 -0.26667,-0.18333 -0.4,-0.25c-0.7,-0.3 -1.4,-0.56667 -2.1,-0.8c-0.23333,-0.36667 -0.46667,-0.73333 -0.7,-1.1c-0.5,-0.33333 -0.98333,-0.68333 -1.45,-1.05c-0.36667,-0.36667 -0.71667,-0.73333 -1.05,-1.1c-0.36667,-0.33333 -0.73333,-0.68333 -1.1,-1.05c-0.23333,-0.23333 -0.46667,-0.46667 -0.7,-0.7c-0.7,-0.23333 -1.41667,-0.48333 -2.15,-0.75c-0.23333,-0.33333 -0.46667,-0.68333 -0.7,-1.05c-0.46667,-0.36667 -0.95,-0.71667 -1.45,-1.05c-0.23333,-0.36667 -0.46667,-0.73333 -0.7,-1.1c-0.13333,-0.36667 -0.25,-0.71667 -0.35,-1.05c-0.13333,-0.36667 -0.25,-0.73333 -0.35,-1.1c-0.0957,-0.13659 -0.1957,-0.28659 -0.3,-0.45c-0.0125,0.04375 -0.02917,0.07708 -0.05,0.1c-0.83333,0.36667 -1.66667,0.73333 -2.5,1.1c-0.23333,0.23333 -0.48333,0.46667 -0.75,0.7c-0.56667,0.1 -1.15,0.21667 -1.75,0.35c-1.9,0 -3.81667,0 -5.75,0c-0.83333,-0.23333 -1.66667,-0.46667 -2.5,-0.7c-0.33333,-0.23333 -0.68333,-0.48333 -1.05,-0.75c-0.36667,0.36667 -0.71667,0.73333 -1.05,1.1c-0.26667,0.36667 -0.51667,0.71667 -0.75,1.05c-0.23333,0.36667 -0.46667,0.73333 -0.7,1.1c-0.23333,0.33333 -0.46667,0.68333 -0.7,1.05c-0.36667,0.36667 -0.73333,0.73333 -1.1,1.1c-0.33333,0.33333 -0.68333,0.68333 -1.05,1.05c-0.36667,0.36667 -0.73333,0.71667 -1.1,1.05c-0.33333,0.36667 -0.68333,0.73333 -1.05,1.1c-0.46667,0.36667 -0.95,0.71667 -1.45,1.05c-0.33333,0.36667 -0.68333,0.73333 -1.05,1.1c-0.83333,0.33333 -1.66667,0.68333 -2.5,1.05c-0.23333,0.23333 -0.46667,0.46667 -0.7,0.7c-0.6,0.13333 -1.2,0.26667 -1.8,0.4c-6.66667,0 -13.33333,0 -20,0c-0.83333,-0.26667 -1.66667,-0.51667 -2.5,-0.75c-0.23333,-0.23333 -0.46667,-0.46667 -0.7,-0.7c-0.73333,-0.23333 -1.45,-0.46667 -2.15,-0.7c-0.23333,-0.23333 -0.46667,-0.48333 -0.7,-0.75c-0.73333,-0.23333 -1.45,-0.46667 -2.15,-0.7c-0.36667,-0.36667 -0.73333,-0.71667 -1.1,-1.05c-0.23333,-0.23333 -0.46667,-0.48333 -0.7,-0.75c-0.13333,-0.1 -0.26667,-0.18333 -0.4,-0.25c-0.7,-0.3 -1.4,-0.56667 -2.1,-0.8c-0.36667,-0.36667 -0.71667,-0.71667 -1.05,-1.05c-0.26667,-0.26667 -0.51667,-0.51667 -0.75,-0.75c-0.1,-0.1 -0.23333,-0.18333 -0.4,-0.25c-0.66667,-0.3 -1.36667,-0.56667 -2.1,-0.8c-0.33333,-0.36667 -0.68333,-0.73333 -1.05,-1.1c-0.6,-0.33333 -1.2,-0.68333 -1.8,-1.05c-0.83333,-0.36667 -1.66667,-0.71667 -2.5,-1.05c-0.33333,-0.36667 -0.68333,-0.73333 -1.05,-1.1c-0.36667,-0.36667 -0.73333,-0.71667 -1.1,-1.05c-0.33333,-0.36667 -0.68333,-0.73333 -1.05,-1.1c-0.36667,-0.33333 -0.71667,-0.68333 -1.05,-1.05c-0.09779,-0.09779 -0.19779,-0.19779 -0.3,-0.3c-0.03112,0.10221 -0.06445,0.20221 -0.1,0.3c-0.33333,0.36667 -0.68333,0.71667 -1.05,1.05c-0.23333,0.36667 -0.46667,0.73333 -0.7,1.1c-0.23333,0.33333 -0.48333,0.68333 -0.75,1.05c-0.1,0.36667 -0.21667,0.73333 -0.35,1.1c-0.33333,0.33333 -0.68333,0.68333 -1.05,1.05c-0.46667,0.36667 -0.95,0.71667 -1.45,1.05c-0.7,0.36667 -1.41667,0.73333 -2.15,1.1c-0.33333,0.36667 -0.68333,0.71667 -1.05,1.05c-0.23333,0.23333 -0.46667,0.48333 -0.7,0.75c-0.23333,0.1 -0.48333,0.2 -0.75,0.3c-0.56667,0.26667 -1.15,0.51667 -1.75,0.75c-0.36667,0.23333 -0.73333,0.46667 -1.1,0.7c-0.6,0.13333 -1.18333,0.25 -1.75,0.35c-1.93333,0 -3.85,0 -5.75,0c-0.83333,-0.23333 -1.66667,-0.46667 -2.5,-0.7c-0.23333,-0.23333 -0.46667,-0.46667 -0.7,-0.7c-0.7,-0.23333 -1.41667,-0.46667 -2.15,-0.7c-0.23333,-0.26667 -0.46667,-0.51667 -0.7,-0.75c-0.73333,-0.23333 -1.45,-0.46667 -2.15,-0.7c-0.36667,-0.36667 -0.71667,-0.71667 -1.05,-1.05c-0.36667,0 -0.73333,0 -1.1,0c-0.1,0.33333 -0.21667,0.68333 -0.35,1.05c-0.23333,0.36667 -0.46667,0.71667 -0.7,1.05c-0.13333,0.36667 -0.25,0.73333 -0.35,1.1c-0.26667,0.36667 -0.51667,0.71667 -0.75,1.05c-0.1,0.36667 -0.21667,0.73333 -0.35,1.1c-0.23333,0.33333 -0.46667,0.68333 -0.7,1.05c-0.13333,0.36667 -0.25,0.73333 -0.35,1.1c-0.23333,0.33333 -0.48333,0.68333 -0.75,1.05c-0.1,0.36667 -0.21667,0.71667 -0.35,1.05c-0.23333,0.36667 -0.46667,0.73333 -0.7,1.1c-0.36667,0.36667 -0.71667,0.71667 -1.05,1.05c-0.36667,0.36667 -0.73333,0.73333 -1.1,1.1c-0.36667,0.33333 -0.71667,0.68333 -1.05,1.05c-0.36667,0.36667 -0.73333,0.73333 -1.1,1.1c-0.33333,0.33333 -0.68333,0.68333 -1.05,1.05c-0.36667,0.36667 -0.73333,0.71667 -1.1,1.05c-0.46667,0.36667 -0.93333,0.73333 -1.4,1.1c-0.73333,0.36667 -1.43333,0.73333 -2.1,1.1c-0.4,0.2 -0.76667,0.43333 -1.1,0.7c-0.6,0.1 -1.2,0.21667 -1.8,0.35c-1.2,0.23333 -2.38333,0.5 -3.55,0.8c-0.73333,0.16667 -1.45,0.36667 -2.15,0.6c-1.43333,0 -2.86667,0 -4.3,0c-0.83333,-0.23333 -1.66667,-0.43333 -2.5,-0.6c-1.53333,-0.3 -3.08333,-0.56667 -4.65,-0.8c-0.83333,-0.23333 -1.66667,-0.5 -2.5,-0.8c-0.6,-0.2 -1.2,-0.4 -1.8,-0.6c-0.83333,-0.26667 -1.66667,-0.51667 -2.5,-0.75c-0.23333,-0.23333 -0.46667,-0.46667 -0.7,-0.7c-0.7,-0.26667 -1.41667,-0.51667 -2.15,-0.75c-0.23333,-0.23333 -0.46667,-0.46667 -0.7,-0.7c-0.7,-0.23333 -1.41667,-0.46667 -2.15,-0.7c-0.23333,-0.23333 -0.46667,-0.48333 -0.7,-0.75c-0.73333,-0.23333 -1.45,-0.46667 -2.15,-0.7c-0.36667,-0.36667 -0.71667,-0.71667 -1.05,-1.05c-0.36667,-0.36667 -0.73333,-0.73333 -1.1,-1.1c-0.36667,-0.33333 -0.71667,-0.68333 -1.05,-1.05c-0.36667,-0.36667 -0.73333,-0.73333 -1.1,-1.1c-0.33333,-0.33333 -0.68333,-0.68333 -1.05,-1.05c-0.36667,-0.36667 -0.73333,-0.71667 -1.1,-1.05c-0.23333,-0.36667 -0.46667,-0.73333 -0.7,-1.1c-0.23333,-0.36667 -0.46667,-0.71667 -0.7,-1.05c-0.23333,-0.36667 -0.46667,-0.73333 -0.7,-1.1c-0.13333,-0.33333 -0.26667,-0.68333 -0.4,-1.05c-0.33333,-0.36667 -0.68333,-0.73333 -1.05,-1.1c-0.23333,-0.33333 -0.46667,-0.68333 -0.7,-1.05c-0.5,-0.36667 -0.98333,-0.71667 -1.45,-1.05c-0.23333,-0.36667 -0.46667,-0.73333 -0.7,-1.1c-0.13333,-0.36667 -0.25,-0.71667 -0.35,-1.05c-0.13333,-0.36667 -0.25,-0.73333 -0.35,-1.1c-0.26667,-0.33333 -0.51667,-0.68333 -0.75,-1.05c-0.1,-0.36667 -0.21667,-0.73333 -0.35,-1.1c-0.23333,-0.33333 -0.46667,-0.68333 -0.7,-1.05c-0.13333,-0.36667 -0.25,-0.71667 -0.35,-1.05c-0.23333,-0.36667 -0.48333,-0.73333 -0.75,-1.1c-0.23333,-0.33333 -0.46667,-0.68333 -0.7,-1.05c-0.1,-0.36667 -0.21667,-0.73333 -0.35,-1.1c-0.13333,-0.33333 -0.25,-0.68333 -0.35,-1.05c-0.23333,-0.36667 -0.46667,-0.71667 -0.7,-1.05c0,-0.36667 0,-0.73333 0,-1.1c-0.13333,-0.36667 -0.26667,-0.71667 -0.4,-1.05c-0.1,-0.36667 -0.21667,-0.73333 -0.35,-1.1c-0.23333,-0.33333 -0.46667,-0.68333 -0.7,-1.05c0,-0.36667 0,-0.73333 0,-1.1c-0.13333,-0.33333 -0.25,-0.68333 -0.35,-1.05c-0.13333,-0.36667 -0.25,-0.71667 -0.35,-1.05c-0.23333,-0.36667 -0.48333,-0.73333 -0.75,-1.1c0,-0.36667 0,-0.71667 0,-1.05c0,-0.36667 0,-0.73333 0,-1.1c0,-0.33333 0,-0.68333 0,-1.05c-0.23333,-0.36667 -0.46667,-0.73333 -0.7,-1.1c-0.23333,-0.33333 -0.46667,-0.68333 -0.7,-1.05c0,-0.36667 0,-0.71667 0,-1.05c0,-0.36667 0,-0.73333 0,-1.1c0,-0.36667 0,-0.71667 0,-1.05c-0.13333,-0.36667 -0.25,-0.73333 -0.35,-1.1c-0.23333,-0.33333 -0.48333,-0.68333 -0.75,-1.05c-0.1,-0.36667 -0.21667,-0.73333 -0.35,-1.1c0,-2.13333 0,-4.26667 0,-6.4c0,-2.13333 0,-4.28333 0,-6.45c0,-2.83333 0,-5.68333 0,-8.55c0,-2.86667 0,-5.73333 0,-8.6c0,-2.83333 0,-5.68333 0,-8.55c0,-0.7 0,-1.41667 0,-2.15c0.23333,-0.36667 0.48333,-0.71667 0.75,-1.05c0.1,-0.36667 0.21667,-0.73333 0.35,-1.1c0.1,-0.33333 0.21667,-0.68333 0.35,-1.05c0,-0.36667 0,-0.71667 0,-1.05c0,-0.36667 0,-0.73333 0,-1.1c0,-0.36667 0,-0.71667 0,-1.05c0.1,-0.36667 0.21667,-0.73333 0.35,-1.1c0.23333,-0.33333 0.46667,-0.68333 0.7,-1.05c0.13333,-0.36667 0.25,-0.73333 0.35,-1.1c0,-0.33333 0,-0.68333 0,-1.05c0,-0.36667 0,-0.71667 0,-1.05c0,-0.36667 0,-0.73333 0,-1.1c0.26667,-0.36667 0.51667,-0.71667 0.75,-1.05c0.23333,-0.36667 0.46667,-0.73333 0.7,-1.1c0.13333,-0.33333 0.25,-0.68333 0.35,-1.05c0.13333,-0.36667 0.25,-0.73333 0.35,-1.1c0.23333,-0.33333 0.48333,-0.68333 0.75,-1.05c0,-0.36667 0,-0.71667 0,-1.05c0,-0.36667 0,-0.73333 0,-1.1c0,-0.36667 0,-0.71667 0,-1.05c0.23333,-0.36667 0.46667,-0.73333 0.7,-1.1c0.23333,-0.33333 0.46667,-0.68333 0.7,-1.05c0.13333,-0.36667 0.25,-0.73333 0.35,-1.1c0,-0.33333 0,-0.68333 0,-1.05c0.36667,-0.36667 0.73333,-0.71667 1.1,-1.05c0.1,-0.36667 0.21667,-0.73333 0.35,-1.1c0,-0.36667 0,-0.71667 0,-1.05c0,-0.36667 0,-0.73333 0,-1.1c0,-0.33333 0,-0.68333 0,-1.05c0.23333,-0.36667 0.46667,-0.73333 0.7,-1.1c0.23333,-0.33333 0.46667,-0.68333 0.7,-1.05c0,-0.36667 0,-0.71667 0,-1.05c0.26667,-0.36667 0.51667,-0.73333 0.75,-1.1c0.1,-0.36667 0.21667,-0.71667 0.35,-1.05c0.1,-0.36667 0.21667,-0.73333 0.35,-1.1c0,-0.33333 0,-0.68333 0,-1.05c0.36667,-0.36667 0.71667,-0.73333 1.05,-1.1c0,-0.11667 0,-0.23333 0,-0.35c0.09284,-0.11615 0.17617,-0.23281 0.25,-0.35c0.05742,-0.11641 0.10742,-0.23307 0.15,-0.35c0.1,-0.36667 0.21667,-0.71667 0.35,-1.05c0.1,-0.36667 0.21667,-0.73333 0.35,-1.1c0.11667,-0.18333 0.23333,-0.36667 0.35,-0.55c0,-0.29063 0,-0.57396 0,-0.85c0.23333,-0.36667 0.46667,-0.73333 0.7,-1.1c0.05898,-0.04323 0.10898,-0.09323 0.15,-0.15c0.08008,-0.17148 0.14674,-0.35482 0.2,-0.55c0.36667,-0.36667 0.73333,-0.73333 1.1,-1.1c0.11445,-0.10404 0.23112,-0.2207 0.35,-0.35c0.13333,-0.33333 0.25,-0.68333 0.35,-1.05c0.23333,-0.36667 0.46667,-0.73333 0.7,-1.1c0.06445,-0.04297 0.13112,-0.09297 0.2,-0.15c0.06419,-0.17669 0.13086,-0.36003 0.2,-0.55c0.33333,-0.36667 0.68333,-0.71667 1.05,-1.05c0.11758,-0.11758 0.23424,-0.23424 0.35,-0.35c0.13333,-0.36667 0.25,-0.73333 0.35,-1.1c0.23333,-0.36667 0.48333,-0.71667 0.75,-1.05c0.46667,-0.36667 0.93333,-0.73333 1.4,-1.1c0.23333,-0.33333 0.46667,-0.68333 0.7,-1.05c0.36667,-0.36667 0.73333,-0.73333 1.1,-1.1c0.36667,-0.33333 0.71667,-0.68333 1.05,-1.05c0.5,-0.36667 0.98333,-0.71667 1.45,-1.05c0.23333,-0.36667 0.46667,-0.73333 0.7,-1.1c0.36667,-0.36667 0.73333,-0.71667 1.1,-1.05c0.33333,-0.36667 0.68333,-0.73333 1.05,-1.1c0.36667,-0.33333 0.71667,-0.68333 1.05,-1.05c0.36667,-0.36667 0.73333,-0.73333 1.1,-1.1c0.36667,-0.33333 0.71667,-0.68333 1.05,-1.05c0.36667,-0.23333 0.73333,-0.46667 1.1,-0.7c0.83333,-0.23333 1.66667,-0.48333 2.5,-0.75c0.33333,-0.23333 0.68333,-0.45 1.05,-0.65c0.23333,-0.13333 0.46667,-0.26667 0.7,-0.4c0.6,-0.13333 1.2,-0.25 1.8,-0.35c0.6,-0.23333 1.2,-0.45 1.8,-0.65c0.83333,-0.26667 1.66667,-0.53333 2.5,-0.8c2,-0.23333 4.01667,-0.46667 6.05,-0.7c0.83333,-0.1 1.65,-0.26667 2.45,-0.5c0.03333,-0.03333 0.05,-0.1 0.05,-0.2c4.76667,0 9.53333,0.03333 14.3,0.1c2.86667,0.03333 5.71667,0.11667 8.55,0.25c0.73333,0.23333 1.45,0.46667 2.15,0.7c1.66667,0.23333 3.33333,0.48333 5,0.75c0.73333,0.23333 1.45,0.46667 2.15,0.7c0.36667,0.23333 0.71667,0.46667 1.05,0.7c0.6,0.23333 1.2,0.46667 1.8,0.7c0.36667,0.36667 0.73333,0.73333 1.1,1.1c0.1,0.33333 0.21667,0.68333 0.35,1.05c0.33333,0.13333 0.68333,0.25 1.05,0.35c0.36667,-0.23333 0.73333,-0.46667 1.1,-0.7c0.56667,-0.36667 1.15,-0.73333 1.75,-1.1c0.5,-0.33333 0.98333,-0.68333 1.45,-1.05c0.36667,-0.36667 0.71667,-0.71667 1.05,-1.05c0.36667,-0.23333 0.73333,-0.46667 1.1,-0.7c0.6,-0.13333 1.18333,-0.26667 1.75,-0.4c3.83333,0 7.65,0 11.45,0c0.7,0.26667 1.41667,0.51667 2.15,0.75c2.6,0.23333 5.21667,0.46667 7.85,0.7c0.7,0.23333 1.41667,0.46667 2.15,0.7c1.66667,0.23333 3.33333,0.46667 5,0.7c0.7,0.26667 1.41667,0.51667 2.15,0.75c0.7,0.23333 1.4,0.46667 2.1,0.7c0.73333,0.23333 1.45,0.46667 2.15,0.7c0.36667,0.23333 0.73333,0.48333 1.1,0.75c0.6,0.23333 1.18333,0.46667 1.75,0.7c0.36667,0.36667 0.73333,0.71667 1.1,1.05c0.36667,0.36667 0.71667,0.73333 1.05,1.1c0.36667,0.33333 0.73333,0.68333 1.1,1.05c0.23333,0.36667 0.46667,0.73333 0.7,1.1c0.36667,0.33333 0.71667,0.68333 1.05,1.05c0.26667,0.36667 0.51667,0.71667 0.75,1.05c0.1,0.36667 0.21667,0.73333 0.35,1.1c0.23333,0.36667 0.46667,0.71667 0.7,1.05c0.13333,0.36667 0.25,0.73333 0.35,1.1c0.13333,0.33333 0.25,0.68333 0.35,1.05c0,0.36667 0,0.73333 0,1.1c0,0.33333 0,0.68333 0,1.05c0,0.36667 0,0.71667 0,1.05c0,0.26667 0,0.51667 0,0.75c0.36667,0 0.73333,0 1.1,0c0.1,-0.13333 0.23333,-0.23333 0.4,-0.3c0.56667,-0.3 1.15,-0.56667 1.75,-0.8c0.33333,-0.23333 0.68333,-0.46667 1.05,-0.7c0.6,-0.23333 1.2,-0.46667 1.8,-0.7c0.36667,-0.23333 0.71667,-0.48333 1.05,-0.75c0.6,-0.1 1.2,-0.2 1.8,-0.3c1.53333,-0.26667 3.06667,-0.55 4.6,-0.85c0.86667,-0.16667 1.71667,-0.36667 2.55,-0.6c6.2,0 12.38333,0 18.55,0c0.83333,0.23333 1.68333,0.43333 2.55,0.6c1.0056,0.19674 2.0056,0.38008 3,0.55c0.05859,-0.14805 0.10859,-0.29805 0.15,-0.45c0.13333,-0.36667 0.26667,-0.71667 0.4,-1.05c0.23333,-0.36667 0.46667,-0.73333 0.7,-1.1c0.46667,-0.36667 0.93333,-0.71667 1.4,-1.05c0.13333,-0.36667 0.26667,-0.73333 0.4,-1.1c0.1,-0.33333 0.21667,-0.68333 0.35,-1.05c0.23333,-0.36667 0.46667,-0.73333 0.7,-1.1c0.46667,-0.33333 0.95,-0.68333 1.45,-1.05c0.23333,-0.36667 0.46667,-0.71667 0.7,-1.05c0.46667,-0.36667 0.93333,-0.73333 1.4,-1.1c0.26667,-0.36667 0.51667,-0.71667 0.75,-1.05c0.46667,-0.36667 0.93333,-0.73333 1.4,-1.1c0.23333,-0.33333 0.48333,-0.68333 0.75,-1.05c0.46667,-0.36667 0.93333,-0.73333 1.4,-1.1c0.23333,-0.33333 0.46667,-0.68333 0.7,-1.05c0.5,-0.36667 0.98333,-0.71667 1.45,-1.05c0.23333,-0.36667 0.46667,-0.73333 0.7,-1.1c0.73333,-0.33333 1.45,-0.68333 2.15,-1.05c0.23333,-0.23333 0.46667,-0.46667 0.7,-0.7c0.26667,-0.13333 0.51667,-0.26667 0.75,-0.4c0.6,0 1.18333,-0.05 1.75,-0.15v-0.2c1.43333,0 2.86667,0.01667 4.3,0.05c5.23333,0.1 10.46667,0.2 15.7,0.3c0.73333,0.26667 1.45,0.51667 2.15,0.75c0.73333,0.23333 1.45,0.46667 2.15,0.7c0.73333,0.23333 1.45,0.46667 2.15,0.7c1.66667,0.23333 3.33333,0.48333 5,0.75c0.7,0.23333 1.41667,0.46667 2.15,0.7c3.1,0.23333 6.2,0.46667 9.3,0.7c0.7,0.23333 1.4,0.46667 2.1,0.7c0.73333,0.23333 1.45,0.48333 2.15,0.75c0.73333,0.23333 1.45,0.43333 2.15,0.6c1.2,0.3 2.38333,0.6 3.55,0.9c0.73333,0.16667 1.45,0.36667 2.15,0.6c0.73333,0.26667 1.45,0.51667 2.15,0.75c0.73333,0.23333 1.45,0.46667 2.15,0.7c0.36667,0.23333 0.71667,0.46667 1.05,0.7z" fill="#000000"/><path d="M324.8955,305.0527c7.4,5.96667 10.93333,14.1 10.6,24.4c-0.1,4.46667 -0.5,7.5 -1.2,9.1c-1.7,3.46667 -5.3,5.28333 -10.8,5.45c-6.93333,0.13333 -12.46667,-2.2 -16.6,-7c-1.33333,-1.4 -2.76667,-3.48333 -4.3,-6.25c-1.7,-2.73333 -2.88333,-4.43333 -3.55,-5.1c-2.23333,-0.13333 -4.43333,-0.26667 -6.6,-0.4c-1.56667,0.63333 -3.1,1.93333 -4.6,3.9c-1.5,1.76667 -2.26667,3.21667 -2.3,4.35c-0.23333,5.33333 2.61667,9.41667 8.55,12.25c2.13333,1 5.16667,2.13333 9.1,3.4c2.13333,0.5 5.63333,1.41667 10.5,2.75c8.76667,2.53333 15.33333,5.53333 19.7,9c5.93333,4.56667 9.56667,11 10.9,19.3c0.4,2.83333 0.56667,6.26667 0.5,10.3c-0.43333,5.5 -1.51667,10.58333 -3.25,15.25c-5.46667,13.33333 -17.1,20.45 -34.9,21.35c-17.73333,0.6 -31.43333,-4.73333 -41.1,-16c-5.63333,-6.4 -9.2,-13.45 -10.7,-21.15c-1.23333,-5.7 -1.45,-10.33333 -0.65,-13.9c1.46667,-7.1 5.41667,-10.68333 11.85,-10.75c3.03333,-0.16667 6.26667,1.16667 9.7,4c1.36667,1.16667 4.4,4.2 9.1,9.1c4,4.2 7.51667,7.23333 10.55,9.1c4.33333,2.66667 8.76667,3.93333 13.3,3.8c5.23333,-0.33333 8.68333,-2.25 10.35,-5.75c0.76667,-1.76667 1.03333,-3.6 0.8,-5.5c-0.96667,-5.7 -4.31667,-9.83333 -10.05,-12.4c-3.26667,-1.4 -9.61667,-3.06667 -19.05,-5c-9.03333,-1.8 -15.36667,-3.93333 -19,-6.4c-5.76667,-3.73333 -8.48333,-9.53333 -8.15,-17.4c0.46667,-13.7 4.5,-24.31667 12.1,-31.85c6.5,-6.66667 14.66667,-9.98333 24.5,-9.95c9.4,-0.23333 17.63333,2.43333 24.7,8M443.9955,381.6027c0,0.66667 0.33333,2.66667 1,6c0.43333,3.2 0.41667,6.1 -0.05,8.7c-1.76667,7.7 -7.78333,11.93333 -18.05,12.7c-13.63333,0.93333 -23.3,-1.8 -29,-8.2c-2.5,-2.73333 -4.2,-6.58333 -5.1,-11.55c-1.8,-8.93333 -0.13333,-16.43333 5,-22.5c4.46667,-5.63333 10.25,-9 17.35,-10.1c6.96667,-1.26667 13.01667,0.21667 18.15,4.45c5.56667,4.33333 9.13333,11.16667 10.7,20.5M423.0955,385.2027c-0.3,-1.8 -1.3,-3.2 -3,-4.2c-2.13333,-1.36667 -4.63333,-1.76667 -7.5,-1.2c-0.76667,1.93333 -1.16667,3.26667 -1.2,4c-0.46667,1.36667 -0.5,2.75 -0.1,4.15c0.3,2.3 3.1,3.3 8.4,3c2.03333,-0.16667 3.21667,-1.06667 3.55,-2.7c-0.03333,-0.7 -0.08333,-1.71667 -0.15,-3.05M418.2955,328.0527c-0.06667,2.8 -0.13333,4.68333 -0.2,5.65c-0.6,3.2 -1.71667,5.91667 -3.35,8.15c-5.4,6.8 -16.23333,8.9 -32.5,6.3c-1.06667,2.83333 -1.18333,8.83333 -0.35,18c1.46667,11.56667 2.71667,19.71667 3.75,24.45c2.8,21.26667 -2.65,32.35 -16.35,33.25c-8.4,0.53333 -14.2,-1.78333 -17.4,-6.95c-1.13333,-1.76667 -1.91667,-3.66667 -2.35,-5.7c-0.33333,-2 -0.48333,-3 -0.45,-3c-2.1,-9.06667 -2.13333,-19.31667 -0.1,-30.75c3.63333,-13.23333 6.98333,-24.06667 10.05,-32.5c-9.13333,1.03333 -15.08333,0.9 -17.85,-0.4c-1.63333,-0.76667 -2.41667,-2.43333 -2.35,-5c0.06667,-4.16667 0.2,-6.91667 0.4,-8.25c0.3,-4.33333 1.06667,-7.7 2.3,-10.1c0.2,-1.16667 0.43333,-2.11667 0.7,-2.85c0.33333,-1.56667 1.01667,-2.83333 2.05,-3.8c2.36667,-3.33333 7.5,-5.58333 15.4,-6.75c27.16667,-4.5 44.95,-3.45 53.35,3.15c2.8,2.2 4.55,5.2 5.25,9c0.13333,1.06667 0.13333,3.76667 0,8.1M525.8455,325.4527c-0.16667,5.36667 -2.76667,11.21667 -7.8,17.55c-5.66667,6.66667 -12.93333,12.26667 -21.8,16.8c10.93333,4.23333 21.9,10.58333 32.9,19.05c11.9,9.16667 18.43333,17.23333 19.6,24.2c0.3,2.53333 -0.06667,4.65 -1.1,6.35c-1.83333,2.43333 -5.2,3.88333 -10.1,4.35c-10.16667,0.7 -22.45,-4.05 -36.85,-14.25c-4.86667,-3.33333 -9.73333,-7.15 -14.6,-11.45c-4.36667,-3.96667 -6.78333,-6.2 -7.25,-6.7c-0.3,-0.03333 -0.53333,-0.01667 -0.7,0.05c1.33333,3.4 2.68333,8.7 4.05,15.9c0.23333,1.6 0.73333,4.11667 1.5,7.55c0.36667,2.73333 0.53333,5.16667 0.5,7.3c-0.63333,5.3 -3.75,10.01667 -9.35,14.15c-3.13333,0.3 -6.25,0.56667 -9.35,0.8c-4,-0.8 -6.63333,-2.76667 -7.9,-5.9c-1.03333,-3.56667 -2,-5.8 -2.9,-6.7c-5.26667,-22.9 -8.18333,-45.98333 -8.75,-69.25c-9.46667,4.53333 -15.81667,2.6 -19.05,-5.8c-1.63333,-4.53333 -2.36667,-11.71667 -2.2,-21.55c0.06667,-3.36667 5.41667,-6.66667 16.05,-9.9c10.46667,-3.33333 22.01667,-5.23333 34.65,-5.7c14.3,-0.86667 25.93333,0.36667 34.9,3.7c10.5,3.8 15.68333,10.28333 15.55,19.45M470.2455,335.7527c0.8,2.5 1.46667,5.76667 2,9.8c1.43333,-0.76667 3.25,-1.86667 5.45,-3.3c3.26667,-2.2 5.43333,-4.03333 6.5,-5.5c-1.63333,-0.9 -3.76667,-1.43333 -6.4,-1.6c-2.96667,-0.3 -5.48333,-0.1 -7.55,0.6M629.8955,306.0527c-0.03333,7.8 -8.26667,22.16667 -24.7,43.1c-4.5,5.23333 -9.75,11.51667 -15.75,18.85c-4.53333,5.63333 -6.75,8.61667 -6.65,8.95c0.03333,0.76667 1.96667,5.7 5.8,14.8c3.73333,8.9 5.73333,14.38333 6,16.45c0.46667,3.53333 -1.08333,6.76667 -4.65,9.7c-4.33333,3.36667 -10.36667,5.33333 -18.1,5.9c-6.63333,0.33333 -11.25,-1.26667 -13.85,-4.8c-0.9,-1.26667 -1.51667,-2.61667 -1.85,-4.05c-0.16667,-1.26667 -0.26667,-1.95 -0.3,-2.05c-1.8,-12.06667 -2.21667,-23.13333 -1.25,-33.2c-2.6,-0.93333 -9.06667,-4.43333 -19.4,-10.5c-11.23333,-6.53333 -16.78333,-10.55 -16.65,-12.05c-0.3,-3.66667 2.38333,-9.53333 8.05,-17.6c5.93333,-8.36667 11.03333,-12.6 15.3,-12.7c3.83333,-0.2 8.05,3.58333 12.65,11.35c0.7,1.13333 2.45,4.06667 5.25,8.8c1.93333,3.1 3.4,5.13333 4.4,6.1c1.63333,-3.13333 5.75,-9.86667 12.35,-20.2c6,-9.7 10.43333,-17.3 13.3,-22.8c4.6,-9.26667 9.4,-15.25 14.4,-17.95c2.43333,-1.6 5.05,-2.38333 7.85,-2.35c1.5,-0.16667 3.15,0.11667 4.95,0.85c3.46667,0.93333 6.56667,3.21667 9.3,6.85c2.33333,2.96667 3.51667,5.81667 3.55,8.55M758.2455,305.7527c2.53333,0.3 4.16667,1.7 4.9,4.2c0.16667,0.66667 0.3,2.16667 0.4,4.5c-0.06667,3.23333 -0.68333,8.95 -1.85,17.15c-1.33333,7.96667 -1.86667,13.66667 -1.6,17.1c0.9,16.36667 8.06667,29.96667 21.5,40.8c0.26667,0.26667 4.71667,3.36667 13.35,9.3c3.93333,2.66667 6.03333,5.11667 6.3,7.35c0.1,3.06667 -1.71667,5.66667 -5.45,7.8c-4.6,2.23333 -11.23333,3.21667 -19.9,2.95c-9.6,-0.3 -18.03333,-6.35 -25.3,-18.15c-2.53333,-3.83333 -4.98333,-8.45 -7.35,-13.85c-2.2,-5.13333 -3.58333,-8.28333 -4.15,-9.45c-0.1,-0.23333 -0.21667,-0.43333 -0.35,-0.6c0.53333,6.33333 0.61667,12.28333 0.25,17.85c-0.73333,8.6 -2.71667,12.86667 -5.95,12.8c-11.13333,-0.43333 -23.35,-13.95 -36.65,-40.55c-0.3,0.56667 -0.71667,1.61667 -1.25,3.15c-0.53333,1.06667 -0.68333,2.28333 -0.45,3.65c0.3,3.66667 2.9,8.96667 7.8,15.9c4.83333,6.96667 7.4,12.16667 7.7,15.6c0.36667,3.73333 -0.78333,6.85 -3.45,9.35c-3.8,3.13333 -10,4.63333 -18.6,4.5c-10.7,-0.1 -18.25,-6.76667 -22.65,-20c-1.56667,-4.2 -2.65,-8.9 -3.25,-14.1c-0.53333,-4.46667 -0.73333,-6.73333 -0.6,-6.8c-1.03333,-9.13333 -1.36667,-14.31667 -1,-15.55c0.06667,-1.7 2.23333,-8.65 6.5,-20.85c1.03333,-3.23333 2.38333,-6.63333 4.05,-10.2c1.76667,-4.23333 3.51667,-7.5 5.25,-9.8c5.06667,-7.36667 9.35,-12.06667 12.85,-14.1c5.23333,-3.5 11.86667,-3.96667 19.9,-1.4c4.06667,2.3 5.91667,6.21667 5.55,11.75c-0.23333,1.23333 -0.58333,3.46667 -1.05,6.7c-0.66667,2.83333 -0.95,4.9 -0.85,6.2c0.03333,10.8 0.53333,18.53333 1.5,23.2c0.56667,-6.9 2.7,-14.56667 6.4,-23c3.8,-9.2 8.56667,-17.08333 14.3,-23.65c5,-0.23333 9.96667,-0.45 14.9,-0.65c0.66667,0.13333 1.31667,0.26667 1.95,0.4c1.63333,0.2 3.75,0.36667 6.35,0.5M846.2455,362.4027c-1.16667,3.9 -2.9,7.58333 -5.2,11.05c-6.8,9.66667 -17.23333,14.41667 -31.3,14.25c-26.3,-0.6 -40.1,-9.23333 -41.4,-25.9c-0.56667,-6.63333 0.08333,-12.48333 1.95,-17.55c2.4,-7.96667 6.76667,-12.86667 13.1,-14.7c23.7,-7.8 41.38333,-6.06667 53.05,5.2c3.66667,3.5 6.56667,7.75 8.7,12.75c1.23333,3.16667 1.95,5.6 2.15,7.3c0,1.9 -0.35,4.43333 -1.05,7.6M812.4455,362.7527c1.86667,-1.76667 3.15,-3.01667 3.85,-3.75c0.8,-1.16667 1.21667,-2.35 1.25,-3.55c-0.1,-2.8 -1.53333,-5.21667 -4.3,-7.25c-3.33333,-2.66667 -7.93333,-4.05 -13.8,-4.15c-0.16667,0.6 -0.41667,1.8 -0.75,3.6c-0.3,1.7 -0.43333,3.16667 -0.4,4.4c0.13333,2.7 0.36667,4.43333 0.7,5.2c0.8,1.6 2.83333,3.61667 6.1,6.05c2.4,-0.2 4.85,-0.38333 7.35,-0.55M926.8955,329.4527c4.16667,7.36667 6.41667,14.4 6.75,21.1c0.86667,22.1 -9.18333,40.35 -30.15,54.75c-8,5 -16.96667,8.7 -26.9,11.1c-8.56667,1.96667 -16.41667,2.83333 -23.55,2.6c-7.46667,-0.46667 -14.91667,-0.9 -22.35,-1.3c-2.16667,-1.63333 -4.08333,-5.15 -5.75,-10.55c-1.46667,-4.23333 -2.25,-7.51667 -2.35,-9.85c-0.16667,-2 2.56667,-3.93333 8.2,-5.8c10.86667,-3.7 16.51667,-5.65 16.95,-5.85c2.96667,-1.36667 5.26667,-3.5 6.9,-6.4c0.93333,-1.7 1.78333,-3.9 2.55,-6.6c2.13333,-5.1 3.41667,-10.06667 3.85,-14.9c0.16667,-2.6 0.15,-6.95 -0.05,-13.05c-0.23333,-4.16667 -0.65,-7.06667 -1.25,-8.7c-1.33333,-3.76667 -4.25,-6.61667 -8.75,-8.55c-6.23333,-2.83333 -12.06667,-4.3 -17.5,-4.4c-1.16667,-0.06667 -1.81667,-0.43333 -1.95,-1.1c-0.13333,-0.53333 -0.23333,-2.38333 -0.3,-5.55c-0.2,-4.86667 0.38333,-8.45 1.75,-10.75c1.63333,-3.26667 4.83333,-5.38333 9.6,-6.35c10.83333,-2.53333 32.23333,1.26667 64.2,11.4c8.33333,3.73333 15.03333,9.98333 20.1,18.75M908.2455,351.4027c-0.23333,-3.06667 -1.88333,-6.03333 -4.95,-8.9c-4.43333,-4.2 -10.6,-6.38333 -18.5,-6.55c0.66667,5.3 1.11667,10.4 1.35,15.3c0.2,4.26667 -0.53333,9.56667 -2.2,15.9c-0.9,3.3 -2.3,8.61667 -4.2,15.95c0,0.23333 0,0.46667 0,0.7c10.46667,-4.76667 17.95,-9.76667 22.45,-15c4.23333,-5.23333 6.25,-11.03333 6.05,-17.4M1008.2955,326.7527c-6.5,6.6 -21,11.56667 -43.5,14.9c0,1.8 0.08333,3.56667 0.25,5.3c0.03333,0 1.36667,-0.05 4,-0.15c3.03333,-0.36667 5.15,-0.55 6.35,-0.55c7.63333,-0.13333 13.05,1.56667 16.25,5.1c1.63333,1.76667 2.51667,3.96667 2.65,6.6c0.06667,3.03333 -1.3,5.8 -4.1,8.3c-5.43333,4.4 -14.9,6.4 -28.4,6c0,2.73333 -0.01667,4.9 -0.05,6.5c-0.13333,2.53333 -0.48333,4.68333 -1.05,6.45c0.03333,0.06667 0.05,0.18333 0.05,0.35c0.83333,-0.23333 2.53333,-0.96667 5.1,-2.2c3.53333,-1.33333 8.73333,-1.95 15.6,-1.85c12.26667,-0.1 20.58333,3.16667 24.95,9.8c1.66667,2.76667 2.6,6.6 2.8,11.5c0.03333,4.96667 -1.15,9.36667 -3.55,13.2c-3.66667,5.43333 -9.58333,8.05 -17.75,7.85c-1.2,-0.1 -4.63333,-0.7 -10.3,-1.8c-6.46667,-1.2 -11.06667,-1.95 -13.8,-2.25c-13.36667,-1.6 -21.01667,-2.38333 -22.95,-2.35c-4.26667,-0.26667 -7.53333,0.13333 -9.8,1.2c-2.53333,1 -6.15,1.53333 -10.85,1.6c-1.56667,-0.73333 -2.71667,-1.31667 -3.45,-1.75c-1.26667,-0.73333 -1.9,-1.5 -1.9,-2.3c-0.1,-1.93333 1.21667,-5.1 3.95,-9.5c1.5,-2.76667 4.41667,-7.66667 8.75,-14.7c8.46667,-15.53333 12.56667,-28.53333 12.3,-39c-0.43333,-6.86667 -2.25,-14.26667 -5.45,-22.2c-1.8,-3.66667 -2.95,-6.26667 -3.45,-7.8c-1.1,-2.53333 -1.63333,-4.41667 -1.6,-5.65c-0.16667,-3.3 2.81667,-4.98333 8.95,-5.05c1.23333,-0.1 4.41667,0.06667 9.55,0.5c4.53333,0.13333 8.28333,0.21667 11.25,0.25c3.8,-0.13333 7.41667,-0.98333 10.85,-2.55c1.3,-0.8 4.2,-2.68333 8.7,-5.65c7.8,-5.43333 16.58333,-8.21667 26.35,-8.35c2.36667,0.93333 4.4,2.26667 6.1,4c1.53333,1.66667 2.33333,3.25 2.4,4.75c0.03333,5.26667 -0.06667,9.06667 -0.3,11.4c-0.76667,3.9 -2.4,7.26667 -4.9,10.1z" fill="#ffffff"/></g></g></svg>