<svg version="1.1" xmlns="http://www.w3.org/2000/svg" xmlns:xlink="http://www.w3.org/1999/xlink" width="358.91056" height="91.96124" viewBox="0,0,358.91056,91.96124"><g transform="translate(-460.54472,-314.01938)"><g data-paper-data="{&quot;isPaintingLayer&quot;:true}" fill="#ffffff" fill-rule="nonzero" stroke="none" stroke-width="1" stroke-linecap="butt" stroke-linejoin="miter" stroke-miterlimit="10" stroke-dasharray="" stroke-dashoffset="0" style="mix-blend-mode: normal"><path d="M553.39472,330.48062c0,1.7 -1.28333,7.03333 -3.85,16c-2.43333,8.46667 -4.06667,13.63333 -4.9,15.5c-1.06667,2.36667 -2.68333,7.63333 -4.85,15.8c-1.7,6.43333 -3.91667,11.58333 -6.65,15.45c-3.23333,0.2 -7.51667,0.6 -12.85,1.2c-4.76667,0.53333 -7.48333,0.8 -8.15,0.8c-2.03333,0 -3.53333,-1.48333 -4.5,-4.45c-0.7,-3.4 -1.2,-5.58333 -1.5,-6.55h-0.75c-0.63333,2.13333 -1.6,4.33333 -2.9,6.6c0.1,0.3 0.15,0.68333 0.15,1.15c0,1 -0.05,1.61667 -0.15,1.85c-0.2,0.46667 -0.31667,0.76667 -0.35,0.9c-4.06667,0 -8.86667,0.46667 -14.4,1.4c-5.5,0.9 -8.7,1.35 -9.6,1.35c-2.03333,0 -5.56667,-10.66667 -10.6,-32c-4.66667,-21.36667 -7,-32.11667 -7,-32.25c0,-4.43333 5.08333,-7.13333 15.25,-8.1c6.66667,-0.66667 12.7,-0.63333 18.1,0.1c0.03333,1.03333 0.8,7.28333 2.3,18.75c0.66667,5.1 1.18333,9.23333 1.55,12.4c0.4,-1.2 1.1,-3.61667 2.1,-7.25c1.2,-4.43333 2.8,-6.65 4.8,-6.65c1.9,0 3.45,2 4.65,6c0.63333,2.16667 1.41667,5.25 2.35,9.25c0.26667,-0.76667 1.2,-5.6 2.8,-14.5c1.2,-6.6 3.1,-11.6 5.7,-15c1,0 3.46667,0.1 7.4,0.3c3.96667,0.16667 7.16667,0.15 9.6,-0.05c0,-0.16667 0.38333,-0.28333 1.15,-0.35c1.23333,-0.1 3.85,-0.15 7.85,-0.15c0.23333,0.23333 0.51667,0.51667 0.85,0.85c1.6,-0.36667 2.98333,-0.48333 4.15,-0.35c0.43333,0.16667 0.96667,0.25 1.6,0.25c0.43333,0.13333 0.65,0.71667 0.65,1.75M546.89472,334.48062c-0.53333,0 -1.9,0.06667 -4.1,0.2c-1.73333,0.13333 -3.03333,0.15 -3.9,0.05c0,-0.13333 -0.08333,-0.36667 -0.25,-0.7c-2.26667,0.1 -4.66667,0.15 -7.2,0.15c-5.06667,0 -8.33333,-0.15 -9.8,-0.45c-0.73333,3.83333 -2.11667,9.43333 -4.15,16.8c-1.6,6.7 -2.38333,12.6 -2.35,17.7l-0.5,0.4c-0.33333,0.23333 -1,0.35 -2,0.35c-1.53333,0 -3.11667,-2.3 -4.75,-6.9c-1.53333,-5.13333 -2.53333,-8.25 -3,-9.35h-0.5c-0.43333,2.2 -1.06667,5.28333 -1.9,9.25c-0.9,3.23333 -2.35,6.06667 -4.35,8.5c-0.26667,-0.3 -0.5,-0.63333 -0.7,-1h-0.8c-0.06667,-0.3 -0.23333,-1.15 -0.5,-2.55c-0.56667,-1.53333 -0.98333,-3.33333 -1.25,-5.4c-0.03333,-0.63333 -0.08333,-1.23333 -0.15,-1.8c-0.56667,-2.9 -1.26667,-6.43333 -2.1,-10.6c-0.36667,-1.9 -0.7,-3.71667 -1,-5.45c-0.1,-0.33333 -0.2,-0.68333 -0.3,-1.05c-1.46667,-5.63333 -2.2,-8.9 -2.2,-9.8c0,-1.26667 0.05,-2.06667 0.15,-2.4c0.06667,-0.3 0.25,-0.7 0.55,-1.2c-14.63333,2.23333 -22.56667,3.56667 -23.8,4c1.26667,7.76667 3.46667,17.71667 6.6,29.85c4.1,16.03333 6.43333,25.33333 7,27.9c4.53333,-0.16667 11.13333,-0.71667 19.8,-1.65c0.06667,-2.83333 0.63333,-5.95 1.7,-9.35c1.36667,-4.36667 3.03333,-7.2 5,-8.5c1.66667,2.2 3.15,5.1 4.45,8.7c0.76667,2 1.78333,4.93333 3.05,8.8c6,-0.16667 11.91667,-0.58333 17.75,-1.25c1.26667,-6.63333 3.61667,-15.41667 7.05,-26.35c3.9,-12.06667 6.63333,-20.78333 8.2,-26.15l0.25,-0.75M586.89472,360.23062c0.06667,1.2 0.35,3.41667 0.85,6.65c0.43333,2.93333 0.65,4.83333 0.65,5.7c0,1.13333 -0.18333,1.91667 -0.55,2.35c-0.2,0.23333 -0.76667,0.58333 -1.7,1.05c-1.13333,0.03333 -2.31667,0.1 -3.55,0.2c-2.43333,0.23333 -3.91667,0.5 -4.45,0.8c0,1 0.08333,1.75 0.25,2.25c6.63333,-0.86667 12.21667,-1.45 16.75,-1.75c2.93333,1.86667 4.65,5.95 5.15,12.25c0.23333,3.13333 0.18333,6.16667 -0.15,9.1c0,1.26667 -0.4,2.06667 -1.2,2.4c-0.86667,0.33333 -2.96667,0.5 -6.3,0.5c-4.73333,-0.33333 -9.3,-0.63333 -13.7,-0.9c-8.6,-0.53333 -14.53333,-0.65 -17.8,-0.35h-8c-1,-0.96667 -1.75,-1.96667 -2.25,-3c-0.33333,-0.7 -0.5,-1.25 -0.5,-1.65c0,-2.7 1.25,-12.68333 3.75,-29.95c2.5,-17.26667 3.75,-29.65 3.75,-37.15c0,-1.8 4.96667,-3.16667 14.9,-4.1c14.23333,-1.36667 23.26667,-2.5 27.1,-3.4c0.33333,4 0.5,10.5 0.5,19.5c0,4.66667 -0.03333,7.43333 -0.1,8.3c-0.26667,3.63333 -0.98333,6.28333 -2.15,7.95h-20.25v4.5c1,-0.06667 2.18333,-0.38333 3.55,-0.95c1.3,-0.53333 2.36667,-0.8 3.2,-0.8c1.03333,0 1.71667,0.08333 2.05,0.25c0.16667,0.1 0.23333,0.18333 0.2,0.25M595.89472,327.23062c-1.33333,-0.26667 -5.05,0.11667 -11.15,1.15c-8.83333,1.46667 -16.2,2.5 -22.1,3.1c-0.16667,3.06667 -0.56667,8.5 -1.2,16.3c-0.53333,6.83333 -0.8,10.65 -0.8,11.45c0,5.2 -0.48333,10.38333 -1.45,15.55c-1.23333,6.5 -2.08333,13.06667 -2.55,19.7c5.33333,-0.23333 10.55,-0.95 15.65,-2.15c4.16667,-0.5 9.95,0.46667 17.35,2.9h4.75l0.25,-0.75v-12c-0.56667,0 -2.95,0.15 -7.15,0.45c-4.5,0.3 -7.95,0.56667 -10.35,0.8c-2.43333,-0.73333 -3.76667,-2.11667 -4,-4.15c0.16667,-2.43333 0.16667,-4.21667 0,-5.35c1,-0.53333 4.25,-1.53333 9.75,-3l0.25,-1.5v-4.5c-0.56667,0.1 -1.2,0.18333 -1.9,0.25c-1.36667,0.16667 -3.06667,0.25 -5.1,0.25c-1.16667,-1.6 -1.93333,-3.15 -2.3,-4.65c-0.3,-1.23333 -0.45,-3.1 -0.45,-5.6c0,-1 0.1,-1.6 0.3,-1.8c0.2,-0.2 1.01667,-0.51667 2.45,-0.95c1.1,-0.33333 2.88333,-0.3 5.35,0.1c1.4,0.23333 3.58333,0.63333 6.55,1.2c5.23333,0.73333 7.85,-0.7 7.85,-4.3c0,-0.73333 -0.16667,-1.98333 -0.5,-3.75c-0.33333,-1.73333 -0.5,-2.98333 -0.5,-3.75c0,-1.43333 0.16667,-3.83333 0.5,-7.2c0.33333,-3.4 0.5,-6 0.5,-7.8M650.54472,322.58062c1.23333,-0.26667 2.68333,-0.38333 4.35,-0.35c0.16667,1 0.25,2.61667 0.25,4.85c0,1.66667 -0.1,3.75 -0.3,6.25c-0.23333,3.13333 -0.55,5.68333 -0.95,7.65c-0.16667,0.8 -0.11667,1.85 0.15,3.15c0.16667,0.73333 0.4,1.81667 0.7,3.25c0.4,2.56667 -0.46667,4.43333 -2.6,5.6c-7.33333,0 -12.25,0.08333 -14.75,0.25c-0.9,0.33333 -1.56667,0.6 -2,0.8c-0.73333,0.3 -1.15,0.61667 -1.25,0.95v4.5c0.33333,0.2 1.56667,0.2 3.7,0c1.23333,-0.13333 3.33333,-0.38333 6.3,-0.75c1.06667,0.63333 1.71667,2.18333 1.95,4.65c0.03333,0.43333 0.05,1.91667 0.05,4.45c0,2.43333 -0.01667,3.85 -0.05,4.25c-0.23333,2.26667 -0.88333,3.81667 -1.95,4.65c-1.3,0.1 -2.6,0.21667 -3.9,0.35c-2.63333,0.3 -4,0.6 -4.1,0.9c0.1,0.13333 0.33333,0.45 0.7,0.95c0.2,0.26667 0.3,0.45 0.3,0.55l14,0.25c3.06667,0.63333 4.65,2.3 4.75,5c0.06667,1.5 -0.1,3.58333 -0.5,6.25c0.06667,0.56667 0.38333,2.55 0.95,5.95c0.36667,2.3 0.55,3.93333 0.55,4.9c0,2.6 -5.91667,3.9 -17.75,3.9c-0.83333,0 -3.95,-0.11667 -9.35,-0.35c-8.3,-0.33333 -15.85,-0.63333 -22.65,-0.9c-1.33333,-0.83333 -2.18333,-2.33333 -2.55,-4.5c-0.13333,-0.9 -0.2,-2.81667 -0.2,-5.75c0.93333,-9.76667 1.71667,-19.46667 2.35,-29.1c1.26667,-19.1 1.23333,-31.9 -0.1,-38.4c1.4,-1.16667 3.31667,-1.75 5.75,-1.75c16.66667,0 27.93333,-0.48333 33.8,-1.45c0.36667,-0.06667 1.81667,-0.38333 4.35,-0.95M651.14472,327.98062c-0.1,0.03333 -2.4,0.35 -6.9,0.95c-3.53333,0.46667 -5.9,0.9 -7.1,1.3l-25.25,0.5c-0.5,12.5 -1.16667,31.5 -2,57v11c12.16667,0 21.88333,0.16667 29.15,0.5c6.23333,0 10.35,-0.16667 12.35,-0.5l0.25,-0.75c-0.63333,-3.73333 -0.8,-8.31667 -0.5,-13.75c-8,1.63333 -13.51667,1.3 -16.55,-1c-1.63333,-1.26667 -2.45,-3.06667 -2.45,-5.4c0,-1.1 0.11667,-1.96667 0.35,-2.6c0.43333,-1.23333 1.31667,-2.06667 2.65,-2.5c4.66667,-0.33333 7,-0.75 7,-1.25v-3.4c0,-1.4 -0.03333,-2.31667 -0.1,-2.75c-0.13333,-0.6 -0.43333,-1.13333 -0.9,-1.6c-1.7,0.16667 -3.31667,0.56667 -4.85,1.2c-1.33333,0.53333 -2.38333,0.8 -3.15,0.8c-1.6,0 -2.58333,-1.41667 -2.95,-4.25c-0.03333,-2.86667 -0.05,-4.36667 -0.05,-4.5c-0.13333,-0.66667 -0.18333,-1.31667 -0.15,-1.95c0.1,-1.26667 0.55,-2.36667 1.35,-3.3c2.56667,-2.9 8.41667,-3.98333 17.55,-3.25c0,-5.23333 0.75,-11.9 2.25,-20v-0.5M727.64472,334.73062c0,0.1 -2.95,4.71667 -8.85,13.85c-5.93333,9.13333 -8.9,13.76667 -8.9,13.9c0,1.73333 3.46667,5.3 10.4,10.7c6.9,5.4 10.35,9.25 10.35,11.55c-13.83333,13.5 -21.66667,20.25 -23.5,20.25c-1.7,0 -5.06667,-4.05 -10.1,-12.15c-3.06667,-4.9 -5.43333,-9.28333 -7.1,-13.15c0.23333,1.83333 0.43333,3.88333 0.6,6.15c0.63333,8.36667 1,13 1.1,13.9l-0.5,2c-0.4,0.1 -2.08333,0.08333 -5.05,-0.05c-3.7,-0.13333 -5.76667,-0.2 -6.2,-0.2c-0.96667,0 -2.41667,0.26667 -4.35,0.8c-2.1,0.6 -3.23333,0.91667 -3.4,0.95c-1.7,0.23333 -3.35,0.5 -4.95,0.8c-0.8,0.13333 -1.65,0.2 -2.55,0.2c-1.03333,0 -1.8,-0.08333 -2.3,-0.25l-0.45,-0.25c-0.16667,-2 -0.25,-5.25 -0.25,-9.75c0,-0.03333 0.21667,-4.85 0.65,-14.45c0.4,-9.56667 0.6,-16.75 0.6,-21.55c0.16667,-8 0.25,-14 0.25,-18c-0.5,-4.13333 -0.85,-7.2 -1.05,-9.2c-0.2,-2.56667 0.08333,-4.45 0.85,-5.65c-0.03333,-0.63333 -0.05,-1.1 -0.05,-1.4c0,-0.96667 1.8,-1.75 5.4,-2.35c5.63333,-1 10.58333,-2.38333 14.85,-4.15c3.66667,-1.5 5.86667,-2.31667 6.6,-2.45c2.33333,-0.33333 3.3,0.9 2.9,3.7c-1,6.7 -1.08333,13.61667 -0.25,20.75c1.5,-3.86667 3.66667,-10.2 6.5,-19l0.8,-0.2c-0.03333,-0.1 -0.05,-0.2 -0.05,-0.3c0,-2.83333 1.66667,-3.16667 5,-1c1.8,1.16667 4.21667,2.91667 7.25,5.25c1.3,0.73333 2.86667,1.88333 4.7,3.45c1.83333,1.56667 3.01667,2.5 3.55,2.8c0.93333,0.5 2.53333,1.15 4.8,1.95c1.8,0.8 2.7,1.65 2.7,2.55M709.14472,329.38062c-2.8,-1.96667 -4.96667,-3.68333 -6.5,-5.15c-1.3,4.76667 -4.96667,15.85 -11,33.25l-1.5,0.5c-1.63333,-1.9 -2.4,-4.96667 -2.3,-9.2c0.1,-5.9 0.11667,-9 0.05,-9.3c-0.4,-2.46667 -0.75,-5.45 -1.05,-8.95c-0.3,-3.86667 -0.53333,-6.71667 -0.7,-8.55c-9.16667,2.56667 -15.66667,4.15 -19.5,4.75c0,0.73333 0.16667,1.88333 0.5,3.45c0.33333,1.56667 0.5,2.78333 0.5,3.65c0,1.26667 -0.05,3.45 -0.15,6.55c0,0.53333 0,1.06667 0,1.6c0.03333,4.26667 0,10.68333 -0.1,19.25c0.66667,10.63333 0.41667,22.8 -0.75,36.5v0.25c2.16667,-0.23333 5.46667,-0.65 9.9,-1.25c3.76667,-0.43333 6.8,-0.6 9.1,-0.5c0.13333,-1.26667 0.03333,-3.2 -0.3,-5.8c-0.43333,-3.46667 -0.66667,-5.68333 -0.7,-6.65c-0.26667,-4.83333 0.73333,-8.45 3,-10.85c-0.1,-0.33333 -0.18333,-0.65 -0.25,-0.95c0.16667,-0.16667 0.21667,-0.4 0.15,-0.7c0.06667,-0.2 0.6,-0.3 1.6,-0.3c0.76667,0 3.38333,3.83333 7.85,11.5c5.46667,9.36667 8.68333,14.7 9.65,16c1.6,-0.96667 4.48333,-3.25 8.65,-6.85c4.86667,-4.23333 7.65,-6.61667 8.35,-7.15l-10.15,-9.8c-5.73333,-5.53333 -8.6,-9.51667 -8.6,-11.95c0,-0.86667 2.35,-5.21667 7.05,-13.05c3.83333,-6.33333 6.56667,-10.73333 8.2,-13.2c-4.06667,-2.46667 -7.73333,-4.83333 -11,-7.1M808.84472,333.53062c0.7,6.26667 1.05,9.66667 1.05,10.2c0,1.83333 -0.33333,2.85 -1,3.05c-0.5,0.13333 -3.61667,0.2 -9.35,0.2c-8.2,0 -14.33333,1.41667 -18.4,4.25c-2.5,1.76667 -3.75,3.38333 -3.75,4.85c0,1.03333 0.01667,1.6 0.05,1.7c0.06667,0.1 0.21667,0.41667 0.45,0.95c0.1,0 0.28333,0.08333 0.55,0.25c0.26667,0.16667 0.88333,0.25 1.85,0.25c0.83333,0 3.31667,-0.33333 7.45,-1c4.1,-0.66667 6.56667,-1 7.4,-1c11.76667,0 19.28333,4.66667 22.55,14c1.66667,4.76667 2.15,9.88333 1.45,15.35c0,0.86667 0.05,2.61667 0.15,5.25c-0.2,2.5 -1.08333,4.63333 -2.65,6.4c-4.6,5.16667 -15.43333,7.75 -32.5,7.75c-14.53333,0 -24.28333,-2.41667 -29.25,-7.25c-4.5,-4.36667 -6.75,-12.75 -6.75,-25.15c0,-12.1 0.45,-20.41667 1.35,-24.95c2.1,-10.23333 6.9,-17.95 14.4,-23.15c5.66667,-3.96667 12.68333,-7.16667 21.05,-9.6c11.43333,-3.26667 19,-2.23333 22.7,3.1c0.1,3.16667 0.5,8.01667 1.2,14.55M796.54472,321.58062l0.1,0.4c-15.33333,-0.66667 -26.83333,4.15 -34.5,14.45c-5.5,7.36667 -8.25,15.66667 -8.25,24.9c0,8.56667 0.26667,14.86667 0.8,18.9c0.63333,5.1 1.88333,8.93333 3.75,11.5c1.93333,2.7 4.9,4.6 8.9,5.7c3.73333,1.03333 9.13333,1.55 16.2,1.55c7.5,0 12.05,-0.05 13.65,-0.15c4.03333,-0.2 7.11667,-0.8 9.25,-1.8c4.63333,-2.2 6.95,-8.05 6.95,-17.55c0,-3.23333 -0.76667,-6.23333 -2.3,-9c-1.9,-3.46667 -4.8,-6.13333 -8.7,-8c-9.23333,-0.1 -15.35,0.38333 -18.35,1.45c-1.1,0.53333 -1.9,0.88333 -2.4,1.05c-0.8,0.26667 -1.96667,0.35 -3.5,0.25c-2.63333,-0.63333 -4.33333,-2.16667 -5.1,-4.6c-0.26667,-0.9 -0.4,-2.41667 -0.4,-4.55c0,-2.5 0.18333,-4.1 0.55,-4.8c0.73333,-1.43333 2.88333,-3.45 6.45,-6.05c0.8,-0.56667 2.35,-1.28333 4.65,-2.15c2.6,-1.03333 4.63333,-1.56667 6.1,-1.6c6.66667,-0.5 10.76667,-1.13333 12.3,-1.9c0.53333,-0.3 0.81667,-0.65 0.85,-1.05c-0.1,-0.46667 -0.15,-0.81667 -0.15,-1.05c0,-0.8 -0.18333,-3.23333 -0.55,-7.3c-0.23333,-2.73333 -0.4,-5 -0.5,-6.8c-0.7,-0.13333 -1.58333,-0.41667 -2.65,-0.85c-1.03333,-0.4 -2.08333,-0.71667 -3.15,-0.95M785.14472,386.98062c-0.7,-0.7 -1.51667,-2.08333 -2.45,-4.15c-0.86667,-1.8 -1.3,-2.83333 -1.3,-3.1c0,-0.53333 0.18333,-1.2 0.55,-2c0.5,-1.13333 1.23333,-2.13333 2.2,-3h13c2.16667,1.86667 3.25,3.65 3.25,5.35c0,2.16667 -0.1,3.45 -0.3,3.85c-0.7,1.2 -2.68333,2.21667 -5.95,3.05h-9M786.89472,382.23062l6.75,-0.25c1.16667,-0.5 1.91667,-1 2.25,-1.5l-0.5,-1.5h-10.25c0.23333,0.3 0.53333,0.86667 0.9,1.7c0.3,0.76667 0.58333,1.28333 0.85,1.55z"/></g></g></svg>