<svg version="1.1" xmlns="http://www.w3.org/2000/svg" xmlns:xlink="http://www.w3.org/1999/xlink" width="107.69242" height="81.46598" viewBox="0,0,107.69242,81.46598"><g transform="translate(-589.15679,-319.26701)"><g data-paper-data="{&quot;isPaintingLayer&quot;:true}" fill-rule="nonzero" stroke="none" stroke-width="1" stroke-linecap="butt" stroke-linejoin="miter" stroke-miterlimit="10" stroke-dasharray="" stroke-dashoffset="0" style="mix-blend-mode: normal"><path d="M666.38671,330.60494c0.43333,1.76667 0.7,3.95 0.8,6.55c0.03333,1.5 0.08333,3.71667 0.15,6.65l2.1,-2.15c0.86667,-0.86667 1.61667,-1.55 2.25,-2.05c3.76667,0.03333 6.16667,0.13333 7.2,0.3c2.7,0.46667 4.73333,1.56667 6.1,3.3c2.03333,1.96667 3.45,4.41667 4.25,7.35c0.7,2.66667 0.88333,5.51667 0.55,8.55c2.5,1.7 4.35,4.11667 5.55,7.25c1.1,2.76667 1.6,5.8 1.5,9.1c-0.1,4.26667 -1.5,7.6 -4.2,10c-0.66667,0.6 -1.63333,1.15 -2.9,1.65c-1.73333,0.7 -2.75,1.13333 -3.05,1.3c-1.43333,1.73333 -2.53333,3 -3.3,3.8c-1.3,1.4 -2.61667,2.4 -3.95,3c-2.36667,1.3 -4.93333,1.85 -7.7,1.65c-2.8,-0.2 -5.28333,-1.11667 -7.45,-2.75c-2.63333,3.16667 -6.05,5.21667 -10.25,6.15c-4.2,0.93333 -8.15,0.5 -11.85,-1.3c-2.66667,-1.26667 -4.73333,-3.36667 -6.2,-6.3c-1.36667,-2.66667 -2.01667,-5.56667 -1.95,-8.7c-3.06667,-2.23333 -5.41667,-4.98333 -7.05,-8.25c-5.46667,0.86667 -10.43333,0.88333 -14.9,0.05c-5.43333,-0.96667 -9.83333,-3.11667 -13.2,-6.45c-4.73333,-3.96667 -7.76667,-9.15 -9.1,-15.55c-1.33333,-6.43333 -0.55,-12.38333 2.35,-17.85c3.66667,-7.16667 9.68333,-12.13333 18.05,-14.9c8.46667,-2.8 16.18333,-2.21667 23.15,1.75c5.03333,2.76667 9.23333,7.68333 12.6,14.75c5.9,-3.56667 11.58333,-6.43333 17.05,-8.6c0.66667,-0.4 1.36667,-0.4 2.1,0c0.7,0.4 1.13333,0.96667 1.3,1.7M648.18671,345.65494c4.86667,-2.2 9.16667,-3.4 12.9,-3.6l0.25,-8.7c-5.13333,3.76667 -9.83333,6.4 -14.1,7.9l0.95,4.4M654.63671,346.60494c-2.13333,1 -3.73333,1.71667 -4.8,2.15c-0.66667,1.3 -1.21667,3.4 -1.65,6.3c-0.4,2.86667 -0.95,4.96667 -1.65,6.3c-1.26667,3.03333 -3.26667,5.71667 -6,8.05c-2.53333,2.16667 -5.45,3.83333 -8.75,5c0.83333,1.5 2.08333,3.13333 3.75,4.9c0.93333,1.03333 2.35,2.53333 4.25,4.5l-1.25,2.6c1.43333,4.13333 3.55,6.76667 6.35,7.9c2.26667,0.93333 4.63333,1.26667 7.1,1c2.53333,-0.3 4.73333,-1.2 6.6,-2.7c0.46667,-0.33333 1.13333,-0.85 2,-1.55c0.76667,-0.63333 1.46667,-1.1 2.1,-1.4c2.93333,1.16667 5.2,1.9 6.8,2.2c2.63333,0.46667 4.95,0.23333 6.95,-0.7c1.16667,-0.36667 2.75,-1.75 4.75,-4.15c1.7,-2.03333 3.45,-3.01667 5.25,-2.95c2.23333,-1.6 3.73333,-3.78333 4.5,-6.55c0.7,-2.7 0.55,-5.35 -0.45,-7.95c-0.3,-1.26667 -1.03333,-2.5 -2.2,-3.7c-1.5,-1.23333 -2.6,-2.16667 -3.3,-2.8c-0.03333,-0.23333 -0.18333,-2.4 -0.45,-6.5c-0.16667,-2.63333 -0.71667,-4.71667 -1.65,-6.25c-0.76667,-1.73333 -2.03333,-3.13333 -3.8,-4.2c-1.66667,-1 -3.5,-1.53333 -5.5,-1.6c-1.03333,0.26667 -2.11667,0.81667 -3.25,1.65c-1.3,1.03333 -2.26667,1.78333 -2.9,2.25c-1.66667,-0.93333 -2.91667,-1.6 -3.75,-2c-1.5,-0.73333 -2.85,-1.15 -4.05,-1.25c-1.43333,0.16667 -3.1,0.65 -5,1.45M643.68671,348.50494c-0.33333,-2.83333 -1.4,-5.9 -3.2,-9.2c-2.3,-3.73333 -4.01667,-6.53333 -5.15,-8.4c-2.23333,-2.3 -5.1,-3.88333 -8.6,-4.75c-3.2,-0.76667 -6.51667,-0.86667 -9.95,-0.3c-3.16667,0.26667 -4.93333,0.43333 -5.3,0.5c-2,0.36667 -3.6,1.11667 -4.8,2.25c-3.23333,2.83333 -5.7,5.48333 -7.4,7.95c-2.3,3.3 -3.53333,6.63333 -3.7,10c-0.16667,3.66667 0.6,7.35 2.3,11.05c1.53333,3.36667 3.7,6.45 6.5,9.25c0.96667,1.13333 2.38333,1.96667 4.25,2.5c1.06667,0.3 2.7,0.63333 4.9,1c4.46667,1.03333 9.08333,0.88333 13.85,-0.45c4.5,-1.2 8.63333,-3.3 12.4,-6.3c2,-1.6 3.3,-3.91667 3.9,-6.95c0.46667,-2.4 0.46667,-5.11667 0,-8.15M632.48671,351.35494c1.1,-0.96667 2.33333,-1.01667 3.7,-0.15c1.36667,0.83333 1.86667,1.96667 1.5,3.4c-0.43333,2.53333 -1.83333,4.75 -4.2,6.65c-1.9,1.5 -4.3,2.7 -7.2,3.6c-5.63333,1.5 -10.86667,2.01667 -15.7,1.55c-2.63333,-0.4 -4.91667,-1.73333 -6.85,-4c-1.7,-1.96667 -2.93333,-4.35 -3.7,-7.15c0.76667,0.46667 2.35,2.16667 4.75,5.1c1.83333,2.2 3.76667,3.31667 5.8,3.35c7.03333,-0.53333 12.76667,-2.21667 17.2,-5.05c1.1,-0.6 2.03333,-1.7 2.8,-3.3c0.43333,-0.86667 1.06667,-2.2 1.9,-4M600.38671,344.15494c0.26667,-2.96667 1.25,-5.68333 2.95,-8.15c1.3,-1.93333 2.75,-3.41667 4.35,-4.45c1.96667,-1.3 3.93333,-1.76667 5.9,-1.4c2.26667,0.4 3.8,2.4 4.6,6c1.03333,-2.03333 2.28333,-3.68333 3.75,-4.95c1.76667,-1.5 3.65,-2.21667 5.65,-2.15c1.63333,0.13333 2.98333,1 4.05,2.6c0.83333,1.3 1.38333,2.88333 1.65,4.75c0.4,3.06667 0.26667,5.95 -0.4,8.65c-0.76667,3.1 -2.16667,5.6 -4.2,7.5c-1.8,1.3 -3.53333,2.13333 -5.2,2.5c-2.13333,0.53333 -3.93333,0.21667 -5.4,-0.95c-0.83333,-0.5 -1.48333,-1.33333 -1.95,-2.5c-0.06667,-0.13333 -0.38333,-1.18333 -0.95,-3.15c-1.53333,2.66667 -2.36667,4.1 -2.5,4.3c-1.1,1.56667 -2.33333,2.61667 -3.7,3.15c-1.36667,0.56667 -2.75,0.51667 -4.15,-0.15c-1.46667,-0.66667 -2.36667,-1.71667 -2.7,-3.15c-1.43333,-2.53333 -2.01667,-5.35 -1.75,-8.45M612.63671,338.15494c-0.4,-0.5 -0.8,-0.48333 -1.2,0.05c-0.96667,1 -1.63333,1.95 -2,2.85c-0.56667,1.3 -0.33333,2.23333 0.7,2.8c1.03333,0.3 1.85,-0.08333 2.45,-1.15c0.5,-0.9 0.73333,-1.91667 0.7,-3.05c-0.16667,-0.63333 -0.38333,-1.13333 -0.65,-1.5M620.88671,340.00494c-0.03333,1.3 0.56667,2 1.8,2.1c1.83333,0.06667 2.66667,-1.1 2.5,-3.5c-0.1,-0.9 -0.38333,-1.53333 -0.85,-1.9c-0.56667,-0.36667 -1.26667,-0.23333 -2.1,0.4c-0.9,0.76667 -1.35,1.73333 -1.35,2.9M685.98671,379.80494c-0.6,0.9 -1.56667,1.43333 -2.9,1.6c-1.56667,0.03333 -2.7,0.06667 -3.4,0.1c-4.03333,-0.03333 -8.41667,0.48333 -13.15,1.55c-3.36667,0.76667 -7.6,2 -12.7,3.7c-1.76667,0.53333 -3.1,0.86667 -4,1c-1.56667,0.23333 -2.86667,0.03333 -3.9,-0.6c-0.86667,-1 -1.36667,-2.26667 -1.5,-3.8c-0.1,-1.03333 -0.01667,-2.41667 0.25,-4.15c1.46667,1.26667 2.7,2.96667 3.7,5.1c6.7,-2.43333 12.23333,-4.21667 16.6,-5.35c6.2,-1.63333 11.93333,-2.56667 17.2,-2.8c0.56667,-2.23333 1.05,-3.8 1.45,-4.7c0.86667,-0.5 1.75,-0.55 2.65,-0.15c0.9,0.4 1.41667,1.1 1.55,2.1c0,2.23333 -0.61667,4.36667 -1.85,6.4M660.38671,353.70494c1.3,-1.56667 2.73333,-2.71667 4.3,-3.45c1.9,-0.86667 3.65,-0.86667 5.25,0c2.73333,1.2 5.11667,2.95 7.15,5.25c2.06667,2.33333 3.5,4.93333 4.3,7.8c0.56667,1.96667 0.41667,3.9 -0.45,5.8c-0.9,2.03333 -2.35,3.25 -4.35,3.65c-2.16667,0.53333 -4.45,0.16667 -6.85,-1.1c-1.3,-0.7 -3.25,-2.13333 -5.85,-4.3c-1.96667,5.96667 -4.8,9.56667 -8.5,10.8c-1.76667,0.43333 -3.48333,0.36667 -5.15,-0.2c-1.9,-0.66667 -3.06667,-1.83333 -3.5,-3.5c-0.8,-3.1 -0.86667,-6.25 -0.2,-9.45c0.63333,-3.33333 1.95,-6.2 3.95,-8.6c1.13333,-1.36667 2.63333,-2.28333 4.5,-2.75c1.73333,-0.43333 3.53333,-0.41667 5.4,0.05M668.53671,362.65494c-0.53333,0.66667 -0.58333,1.31667 -0.15,1.95c0.4,0.86667 1.18333,1.35 2.35,1.45c1.2,0.1 1.9,-0.35 2.1,-1.35c0.36667,-0.8 0.21667,-1.65 -0.45,-2.55c-0.7,-0.9 -1.41667,-1.23333 -2.15,-1c-1.03333,0.86667 -1.6,1.36667 -1.7,1.5M654.93671,364.90494c1,1.2 1.83333,1.3 2.5,0.3c1.06667,-0.76667 1.16667,-1.8 0.3,-3.1c-0.86667,-1.3 -1.78333,-1.31667 -2.75,-0.05c-1,0.7 -1.01667,1.65 -0.05,2.85z" fill="#000000"/><path d="M643.68671,356.65494c-0.6,3.03333 -1.9,5.35 -3.9,6.95c-3.76667,3 -7.9,5.1 -12.4,6.3c-4.76667,1.33333 -9.38333,1.48333 -13.85,0.45c-2.2,-0.36667 -3.83333,-0.7 -4.9,-1c-1.86667,-0.53333 -3.28333,-1.36667 -4.25,-2.5c-2.8,-2.8 -4.96667,-5.88333 -6.5,-9.25c-1.7,-3.7 -2.46667,-7.38333 -2.3,-11.05c0.16667,-3.36667 1.4,-6.7 3.7,-10c1.7,-2.46667 4.16667,-5.11667 7.4,-7.95c1.2,-1.13333 2.8,-1.88333 4.8,-2.25c0.36667,-0.06667 2.13333,-0.23333 5.3,-0.5c3.43333,-0.56667 6.75,-0.46667 9.95,0.3c3.5,0.86667 6.36667,2.45 8.6,4.75c1.13333,1.86667 2.85,4.66667 5.15,8.4c1.8,3.3 2.86667,6.36667 3.2,9.2c0.46667,3.03333 0.46667,5.75 0,8.15M602.13671,352.60494c0.33333,1.43333 1.23333,2.48333 2.7,3.15c1.4,0.66667 2.78333,0.71667 4.15,0.15c1.36667,-0.53333 2.6,-1.58333 3.7,-3.15c0.13333,-0.2 0.96667,-1.63333 2.5,-4.3c0.56667,1.96667 0.88333,3.01667 0.95,3.15c0.46667,1.16667 1.11667,2 1.95,2.5c1.46667,1.16667 3.26667,1.48333 5.4,0.95c1.66667,-0.36667 3.4,-1.2 5.2,-2.5c2.03333,-1.9 3.43333,-4.4 4.2,-7.5c0.66667,-2.7 0.8,-5.58333 0.4,-8.65c-0.26667,-1.86667 -0.81667,-3.45 -1.65,-4.75c-1.06667,-1.6 -2.41667,-2.46667 -4.05,-2.6c-2,-0.06667 -3.88333,0.65 -5.65,2.15c-1.46667,1.26667 -2.71667,2.91667 -3.75,4.95c-0.8,-3.6 -2.33333,-5.6 -4.6,-6c-1.96667,-0.36667 -3.93333,0.1 -5.9,1.4c-1.6,1.03333 -3.05,2.51667 -4.35,4.45c-1.7,2.46667 -2.68333,5.18333 -2.95,8.15c-0.26667,3.1 0.31667,5.91667 1.75,8.45M627.78671,358.65494c-4.43333,2.83333 -10.16667,4.51667 -17.2,5.05c-2.03333,-0.03333 -3.96667,-1.15 -5.8,-3.35c-2.4,-2.93333 -3.98333,-4.63333 -4.75,-5.1c0.76667,2.8 2,5.18333 3.7,7.15c1.93333,2.26667 4.21667,3.6 6.85,4c4.83333,0.46667 10.06667,-0.05 15.7,-1.55c2.9,-0.9 5.3,-2.1 7.2,-3.6c2.36667,-1.9 3.76667,-4.11667 4.2,-6.65c0.36667,-1.43333 -0.13333,-2.56667 -1.5,-3.4c-1.36667,-0.86667 -2.6,-0.81667 -3.7,0.15c-0.83333,1.8 -1.46667,3.13333 -1.9,4c-0.76667,1.6 -1.7,2.7 -2.8,3.3z" fill="#b4b4b4"/><path d="M622.23671,337.10494c0.83333,-0.63333 1.53333,-0.76667 2.1,-0.4c0.46667,0.36667 0.75,1 0.85,1.9c0.16667,2.4 -0.66667,3.56667 -2.5,3.5c-1.23333,-0.1 -1.83333,-0.8 -1.8,-2.1c0,-1.16667 0.45,-2.13333 1.35,-2.9M613.28671,339.65494c0.03333,1.13333 -0.2,2.15 -0.7,3.05c-0.6,1.06667 -1.41667,1.45 -2.45,1.15c-1.03333,-0.56667 -1.26667,-1.5 -0.7,-2.8c0.36667,-0.9 1.03333,-1.85 2,-2.85c0.4,-0.53333 0.8,-0.55 1.2,-0.05c0.26667,0.36667 0.48333,0.86667 0.65,1.5M657.73671,362.10494c0.86667,1.3 0.76667,2.33333 -0.3,3.1c-0.66667,1 -1.5,0.9 -2.5,-0.3c-0.96667,-1.2 -0.95,-2.15 0.05,-2.85c0.96667,-1.26667 1.88333,-1.25 2.75,0.05M672.38671,362.15494c0.66667,0.9 0.81667,1.75 0.45,2.55c-0.2,1 -0.9,1.45 -2.1,1.35c-1.16667,-0.1 -1.95,-0.58333 -2.35,-1.45c-0.43333,-0.63333 -0.38333,-1.28333 0.15,-1.95c0.1,-0.13333 0.66667,-0.63333 1.7,-1.5c0.73333,-0.23333 1.45,0.1 2.15,1z" fill="#e1e1e1"/><path d="M659.63671,345.15494c1.2,0.1 2.55,0.51667 4.05,1.25c0.83333,0.4 2.08333,1.06667 3.75,2c0.63333,-0.46667 1.6,-1.21667 2.9,-2.25c1.13333,-0.83333 2.21667,-1.38333 3.25,-1.65c2,0.06667 3.83333,0.6 5.5,1.6c1.76667,1.06667 3.03333,2.46667 3.8,4.2c0.93333,1.53333 1.48333,3.61667 1.65,6.25c0.26667,4.1 0.41667,6.26667 0.45,6.5c0.7,0.63333 1.8,1.56667 3.3,2.8c1.16667,1.2 1.9,2.43333 2.2,3.7c1,2.6 1.15,5.25 0.45,7.95c-0.76667,2.76667 -2.26667,4.95 -4.5,6.55c-1.8,-0.06667 -3.55,0.91667 -5.25,2.95c-2,2.4 -3.58333,3.78333 -4.75,4.15c-2,0.93333 -4.31667,1.16667 -6.95,0.7c-1.6,-0.3 -3.86667,-1.03333 -6.8,-2.2c-0.63333,0.3 -1.33333,0.76667 -2.1,1.4c-0.86667,0.7 -1.53333,1.21667 -2,1.55c-1.86667,1.5 -4.06667,2.4 -6.6,2.7c-2.46667,0.26667 -4.83333,-0.06667 -7.1,-1c-2.8,-1.13333 -4.91667,-3.76667 -6.35,-7.9l1.25,-2.6c-1.9,-1.96667 -3.31667,-3.46667 -4.25,-4.5c-1.66667,-1.76667 -2.91667,-3.4 -3.75,-4.9c3.3,-1.16667 6.21667,-2.83333 8.75,-5c2.73333,-2.33333 4.73333,-5.01667 6,-8.05c0.7,-1.33333 1.25,-3.43333 1.65,-6.3c0.43333,-2.9 0.98333,-5 1.65,-6.3c1.06667,-0.43333 2.66667,-1.15 4.8,-2.15c1.9,-0.8 3.56667,-1.28333 5,-1.45M654.98671,353.65494c-1.86667,0.46667 -3.36667,1.38333 -4.5,2.75c-2,2.4 -3.31667,5.26667 -3.95,8.6c-0.66667,3.2 -0.6,6.35 0.2,9.45c0.43333,1.66667 1.6,2.83333 3.5,3.5c1.66667,0.56667 3.38333,0.63333 5.15,0.2c3.7,-1.23333 6.53333,-4.83333 8.5,-10.8c2.6,2.16667 4.55,3.6 5.85,4.3c2.4,1.26667 4.68333,1.63333 6.85,1.1c2,-0.4 3.45,-1.61667 4.35,-3.65c0.86667,-1.9 1.01667,-3.83333 0.45,-5.8c-0.8,-2.86667 -2.23333,-5.46667 -4.3,-7.8c-2.03333,-2.3 -4.41667,-4.05 -7.15,-5.25c-1.6,-0.86667 -3.35,-0.86667 -5.25,0c-1.56667,0.73333 -3,1.88333 -4.3,3.45c-1.86667,-0.46667 -3.66667,-0.48333 -5.4,-0.05M687.83671,373.40494c-0.13333,-1 -0.65,-1.7 -1.55,-2.1c-0.9,-0.4 -1.78333,-0.35 -2.65,0.15c-0.4,0.9 -0.88333,2.46667 -1.45,4.7c-5.26667,0.23333 -11,1.16667 -17.2,2.8c-4.36667,1.13333 -9.9,2.91667 -16.6,5.35c-1,-2.13333 -2.23333,-3.83333 -3.7,-5.1c-0.26667,1.73333 -0.35,3.11667 -0.25,4.15c0.13333,1.53333 0.63333,2.8 1.5,3.8c1.03333,0.63333 2.33333,0.83333 3.9,0.6c0.9,-0.13333 2.23333,-0.46667 4,-1c5.1,-1.7 9.33333,-2.93333 12.7,-3.7c4.73333,-1.06667 9.11667,-1.58333 13.15,-1.55c0.7,-0.03333 1.83333,-0.06667 3.4,-0.1c1.33333,-0.16667 2.3,-0.7 2.9,-1.6c1.23333,-2.03333 1.85,-4.16667 1.85,-6.4M661.33671,333.35494l-0.25,8.7c-3.73333,0.2 -8.03333,1.4 -12.9,3.6l-0.95,-4.4c4.26667,-1.5 8.96667,-4.13333 14.1,-7.9z" fill="#d57e00"/></g></g></svg>