<svg version="1.1" xmlns="http://www.w3.org/2000/svg" xmlns:xlink="http://www.w3.org/1999/xlink" width="45.05758" height="69.35806" viewBox="0,0,45.05758,69.35806"><g transform="translate(-608.19145,-337.8333)"><g data-paper-data="{&quot;isPaintingLayer&quot;:true}" fill-rule="nonzero" stroke="none" stroke-width="1" stroke-linecap="butt" stroke-linejoin="miter" stroke-miterlimit="10" stroke-dasharray="" stroke-dashoffset="0" style="mix-blend-mode: normal"><path d="M652.25811,358.73784c-1.16667,4.76667 -3.76667,8.58333 -7.8,11.45c0.86667,0.7 1.71667,1.43333 2.55,2.2c3.03333,2.7 5.01667,6.06667 5.95,10.1c0.26667,1.03333 0.35,2.08333 0.25,3.15c-0.53333,6.23333 -3.01667,11.58333 -7.45,16.05c-0.96667,0.93333 -2.01667,1.68333 -3.15,2.25c-0.76667,0.43333 -1.55,0.76667 -2.35,1c-3.9,1 -7.83333,1.66667 -11.8,2c-5.63333,0.56667 -11.21667,0.18333 -16.75,-1.15c-0.86667,-0.53333 -1.41667,-1.31667 -1.65,-2.35c-0.1,-0.53333 -0.23333,-1.11667 -0.4,-1.75c-0.06667,-0.2 -0.1,-0.38333 -0.1,-0.55c-0.03333,-2.23333 -0.08333,-4.45 -0.15,-6.65c0,-0.36667 -0.01667,-0.71667 -0.05,-1.05c-0.1,-1.63333 -0.2,-3.23333 -0.3,-4.8c-0.03333,-0.3 -0.05,-0.55 -0.05,-0.75c-0.23333,-6.8 -0.25,-13.63333 -0.05,-20.5c0.03333,-0.76667 -0.01667,-1.51667 -0.15,-2.25c-0.13333,-0.56667 -0.16667,-1.18333 -0.1,-1.85c0.16667,-2.16667 0.15,-4.3 -0.05,-6.4c-0.46667,-4.43333 -0.58333,-8.86667 -0.35,-13.3c0.16667,-0.2 0.3,-0.41667 0.4,-0.65c0.56667,-1.4 1.6,-2.35 3.1,-2.85c1.6,-0.4 3.21667,-0.78333 4.85,-1.15c3.66667,-0.9 7.43333,-1.25 11.3,-1.05c4.6,0.13333 9.1,0.75 13.5,1.85c4.26667,1.06667 7.51667,3.55 9.75,7.45c1.53333,3.06667 2.03333,6.21667 1.5,9.45c-0.03333,0.3 -0.08333,0.55 -0.15,0.75c-0.1,0.43333 -0.2,0.88333 -0.3,1.35M646.80811,353.23784c-0.3,-1.73333 -1.01667,-3.35 -2.15,-4.85c-3.3,-2.46667 -7.01667,-3.93333 -11.15,-4.4c-6.66667,-0.5 -13.18333,0.16667 -19.55,2c0.1,1.06667 0.08333,2.1 -0.05,3.1c-0.06667,0.46667 -0.1,0.96667 -0.1,1.5c0.1,3.83333 0.16667,7.66667 0.2,11.5c0,0.43333 0.05,0.85 0.15,1.25c0.06667,0.2 0.1,0.46667 0.1,0.8c0.26667,7.5 0.41667,14.91667 0.45,22.25c0,0.16667 0.01667,0.33333 0.05,0.5c0.06667,0.16667 0.1,0.35 0.1,0.55c0.03333,1.3 0.11667,2.5 0.25,3.6c0.36667,2.6 0.38333,5.11667 0.05,7.55c-0.06667,0.63333 0.08333,1.23333 0.45,1.8c3.7,0.6 7.4,0.81667 11.1,0.65c3.83333,-0.16667 7.53333,-0.81667 11.1,-1.95c0.73333,-0.2 1.43333,-0.5 2.1,-0.9c0.66667,-0.33333 1.25,-0.78333 1.75,-1.35c0.63333,-0.76667 1.3,-1.61667 2,-2.55c0.2,-0.26667 0.41667,-0.56667 0.65,-0.9c0.66667,-0.93333 1.23333,-1.86667 1.7,-2.8c0.73333,-1.43333 1.11667,-3.01667 1.15,-4.75c0.03333,-0.63333 0,-1.26667 -0.1,-1.9c-0.43333,-2.3 -1.51667,-4.31667 -3.25,-6.05c-1.03333,-1 -2.11667,-1.96667 -3.25,-2.9c-2.9,-2.36667 -6.05,-4.08333 -9.45,-5.15c3.06667,-1.06667 5.98333,-2.46667 8.75,-4.2c0.13333,-0.1 0.28333,-0.18333 0.45,-0.25c2.56667,-1.26667 4.3,-3.26667 5.2,-6c0.6,-1.8 1.08333,-3.6 1.45,-5.4c-0.06667,-0.26667 -0.11667,-0.51667 -0.15,-0.75M623.60811,383.03784c-0.03333,-0.3 0.08333,-0.6 0.35,-0.9c1.23333,-1.16667 2.68333,-1.78333 4.35,-1.85c0.26667,-0.06667 0.55,-0.13333 0.85,-0.2c2.23333,-0.03333 4.36667,0.4 6.4,1.3c1.9,0.9 3.18333,2.31667 3.85,4.25c0.66667,1.96667 0.35,3.73333 -0.95,5.3c-1.33333,1.6 -3.05,2.68333 -5.15,3.25c-3.3,0.9 -6.31667,0.43333 -9.05,-1.4c-0.2,-0.7 -0.26667,-1.38333 -0.2,-2.05c0.03333,-0.36667 0.01667,-0.7 -0.05,-1c-0.2,-1.1 -0.2,-2.21667 0,-3.35c0.06667,-0.36667 0.06667,-0.7 0,-1c-0.16667,-0.76667 -0.3,-1.55 -0.4,-2.35M627.40811,387.23784l0.55,1.8c1.5,0.53333 2.98333,0.51667 4.45,-0.05c1.03333,-0.3 1.8,-0.85 2.3,-1.65l-0.3,-0.75c-2.3,-1.5 -4.66667,-1.71667 -7.1,-0.65l0.1,1.3M637.85811,356.53784c0.13333,0.76667 0,1.45 -0.4,2.05c-1.33333,2.03333 -3.2,3.35 -5.6,3.95c-2.4,0.7 -4.93333,0.96667 -7.6,0.8c-0.63333,-0.2 -1.1,-0.58333 -1.4,-1.15c0.1,-1.3 0.11667,-2.66667 0.05,-4.1c-0.03333,-1.26667 -0.21667,-2.53333 -0.55,-3.8c-0.13333,-0.5 -0.15,-1.01667 -0.05,-1.55c0.16667,-0.7 0.58333,-1.13333 1.25,-1.3c3.5,-1.23333 7.1,-0.98333 10.8,0.75c1.9,0.83333 3.06667,2.28333 3.5,4.35M626.05811,355.58784l0.3,2.9c2.3,0.4 4.46667,-0.01667 6.5,-1.25c-0.36667,-0.3 -0.73333,-0.58333 -1.1,-0.85c-1.73333,-1.13333 -3.63333,-1.4 -5.7,-0.8z" fill="#000000"/><path d="M646.95811,353.98784c-0.36667,1.8 -0.85,3.6 -1.45,5.4c-0.9,2.73333 -2.63333,4.73333 -5.2,6c-0.16667,0.06667 -0.31667,0.15 -0.45,0.25c-2.76667,1.73333 -5.68333,3.13333 -8.75,4.2c3.4,1.06667 6.55,2.78333 9.45,5.15c1.13333,0.93333 2.21667,1.9 3.25,2.9c1.73333,1.73333 2.81667,3.75 3.25,6.05c0.1,0.63333 0.13333,1.26667 0.1,1.9c-0.03333,1.73333 -0.41667,3.31667 -1.15,4.75c-0.46667,0.93333 -1.03333,1.86667 -1.7,2.8c-0.23333,0.33333 -0.45,0.63333 -0.65,0.9c-0.7,0.93333 -1.36667,1.78333 -2,2.55c-0.5,0.56667 -1.08333,1.01667 -1.75,1.35c-0.66667,0.4 -1.36667,0.7 -2.1,0.9c-3.56667,1.13333 -7.26667,1.78333 -11.1,1.95c-3.7,0.16667 -7.4,-0.05 -11.1,-0.65c-0.36667,-0.56667 -0.51667,-1.16667 -0.45,-1.8c0.33333,-2.43333 0.31667,-4.95 -0.05,-7.55c-0.13333,-1.1 -0.21667,-2.3 -0.25,-3.6c0,-0.2 -0.03333,-0.38333 -0.1,-0.55c-0.03333,-0.16667 -0.05,-0.33333 -0.05,-0.5c-0.03333,-7.33333 -0.18333,-14.75 -0.45,-22.25c0,-0.33333 -0.03333,-0.6 -0.1,-0.8c-0.1,-0.4 -0.15,-0.81667 -0.15,-1.25c-0.03333,-3.83333 -0.1,-7.66667 -0.2,-11.5c0,-0.53333 0.03333,-1.03333 0.1,-1.5c0.13333,-1 0.15,-2.03333 0.05,-3.1c6.36667,-1.83333 12.88333,-2.5 19.55,-2c4.13333,0.46667 7.85,1.93333 11.15,4.4c1.13333,1.5 1.85,3.11667 2.15,4.85c0.03333,0.23333 0.08333,0.48333 0.15,0.75M634.35811,352.18784c-3.7,-1.73333 -7.3,-1.98333 -10.8,-0.75c-0.66667,0.16667 -1.08333,0.6 -1.25,1.3c-0.1,0.53333 -0.08333,1.05 0.05,1.55c0.33333,1.26667 0.51667,2.53333 0.55,3.8c0.06667,1.43333 0.05,2.8 -0.05,4.1c0.3,0.56667 0.76667,0.95 1.4,1.15c2.66667,0.16667 5.2,-0.1 7.6,-0.8c2.4,-0.6 4.26667,-1.91667 5.6,-3.95c0.4,-0.6 0.53333,-1.28333 0.4,-2.05c-0.43333,-2.06667 -1.6,-3.51667 -3.5,-4.35M624.00811,386.38784c-0.2,1.13333 -0.2,2.25 0,3.35c0.06667,0.3 0.08333,0.63333 0.05,1c-0.06667,0.66667 0,1.35 0.2,2.05c2.73333,1.83333 5.75,2.3 9.05,1.4c2.1,-0.56667 3.81667,-1.65 5.15,-3.25c1.3,-1.56667 1.61667,-3.33333 0.95,-5.3c-0.66667,-1.93333 -1.95,-3.35 -3.85,-4.25c-2.03333,-0.9 -4.16667,-1.33333 -6.4,-1.3c-0.3,0.06667 -0.58333,0.13333 -0.85,0.2c-1.66667,0.06667 -3.11667,0.68333 -4.35,1.85c-0.26667,0.3 -0.38333,0.6 -0.35,0.9c0.1,0.8 0.23333,1.58333 0.4,2.35c0.06667,0.3 0.06667,0.63333 0,1z" fill="#ffffff"/></g></g></svg>