<svg version="1.1" xmlns="http://www.w3.org/2000/svg" xmlns:xlink="http://www.w3.org/1999/xlink" width="52.47532" height="66.17404" viewBox="0,0,52.47532,66.17404"><g transform="translate(-606.63994,-337.9138)"><g data-paper-data="{&quot;isPaintingLayer&quot;:true}" fill-rule="nonzero" stroke="none" stroke-width="1" stroke-linecap="butt" stroke-linejoin="miter" stroke-miterlimit="10" stroke-dasharray="" stroke-dashoffset="0" style="mix-blend-mode: normal"><path d="M657.8566,358.03784c0.13333,0.83333 0.28333,1.65 0.45,2.45c0.96667,5 1.06667,10.01667 0.3,15.05c-0.16667,1.2 -0.35,2.43333 -0.55,3.7c-0.36667,2.1 -0.86667,4.15 -1.5,6.15c-0.63333,2 -1.63333,3.88333 -3,5.65c-2.7,3.46667 -6.06667,6.2 -10.1,8.2c-1.43333,0.66667 -2.9,1.21667 -4.4,1.65c-5.56667,1.6 -11.31667,2.66667 -17.25,3.2c-2.53333,-0.03333 -4.95,-0.41667 -7.25,-1.15c-1.2,-0.36667 -2.33333,-0.85 -3.4,-1.45c-0.36667,-0.16667 -0.63333,-0.41667 -0.8,-0.75c-0.23333,-0.4 -0.41667,-0.8 -0.55,-1.2c-0.4,-1.26667 -0.73333,-2.6 -1,-4c-0.43333,-2.23333 -0.65,-4.4 -0.65,-6.5c0,-0.9 0.03333,-1.76667 0.1,-2.6c0.03333,-0.43333 0.11667,-0.8 0.25,-1.1c0.43333,-0.83333 1.01667,-1.35 1.75,-1.55c2.56667,-0.23333 4.9,-0.8 7,-1.7c0.1,-1.03333 0.08333,-2.1 -0.05,-3.2c-0.4,-3.66667 -0.46667,-7.33333 -0.2,-11c0.03333,-0.3 -0.05,-0.66667 -0.25,-1.1c-0.06667,-0.16667 -0.1,-0.31667 -0.1,-0.45c0.1,-0.8 0.11667,-1.61667 0.05,-2.45c-0.06667,-0.56667 -0.16667,-1.1 -0.3,-1.6c-0.23333,-0.7 -0.26667,-1.41667 -0.1,-2.15c0.16667,-0.7 0,-1.11667 -0.5,-1.25c-1.5,0.26667 -2.98333,0.55 -4.45,0.85c-0.93333,0.26667 -1.85,0.28333 -2.75,0.05c-1,-0.33333 -1.61667,-0.91667 -1.85,-1.75c-0.06667,-0.26667 -0.1,-0.53333 -0.1,-0.8c-0.03333,-0.33333 -0.01667,-0.58333 0.05,-0.75c0.06667,-0.26667 0.11667,-0.63333 0.15,-1.1c0.1,-3.06667 0.36667,-6.2 0.8,-9.4c-0.03333,-0.1 -0.06667,-0.16667 -0.1,-0.2c-0.1,-0.23333 -0.18333,-0.43333 -0.25,-0.6c-0.1,-0.16667 -0.18333,-0.33333 -0.25,-0.5c-0.03333,-0.1 -0.06667,-0.2 -0.1,-0.3c0,-0.1 0,-0.18333 0,-0.25c0,-0.1 0,-0.18333 0,-0.25c0,-0.2 0.01667,-0.38333 0.05,-0.55c0.03333,-0.2 0.06667,-0.38333 0.1,-0.55c0.4,-0.36667 0.81667,-0.7 1.25,-1c0.9,-0.6 1.85,-1.03333 2.85,-1.3c3.16667,-1 6.45,-1.61667 9.85,-1.85c3.4,-0.23333 6.81667,-0.46667 10.25,-0.7c4.43333,-0.16667 8.75,0.53333 12.95,2.1c3.6,1.36667 6.58333,3.53333 8.95,6.5c2.46667,3.06667 3.98333,6.63333 4.55,10.7c0.03333,0.26667 0.06667,0.53333 0.1,0.8M649.7066,352.53784c-1.2,-1.76667 -2.65,-3.25 -4.35,-4.45c-3.13333,-2.03333 -6.58333,-3.26667 -10.35,-3.7c-6.46667,-0.4 -12.98333,0.03333 -19.55,1.3c-1.63333,0.3 -3.05,0.76667 -4.25,1.4l0.45,6.05c1.86667,-0.53333 3.75,-0.7 5.65,-0.5c2.33333,-0.33333 3.85,0.51667 4.55,2.55c0.16667,0.46667 0.28333,0.91667 0.35,1.35c0.26667,1.83333 0.46667,3.71667 0.6,5.65c0.03333,0.66667 0.08333,1.28333 0.15,1.85c0.23333,1.7 0.33333,3.4 0.3,5.1c-0.1,3.33333 -0.03333,6.71667 0.2,10.15c0.06667,0.96667 0.18333,1.93333 0.35,2.9c0.26667,1.4 0.13333,2.8 -0.4,4.2c-0.2,0.53333 -0.65,0.98333 -1.35,1.35c-0.36667,0.23333 -0.76667,0.31667 -1.2,0.25c-2.33333,0.4 -4.58333,0.98333 -6.75,1.75l1.3,7.25c1.8,0.13333 3.61667,0.28333 5.45,0.45c4.6,0.16667 9.11667,-0.31667 13.55,-1.45c4,-0.9 7.53333,-2.63333 10.6,-5.2c1,-0.83333 1.93333,-1.7 2.8,-2.6c1.16667,-1.2 2,-2.55 2.5,-4.05c0.66667,-1.96667 1.2,-4.01667 1.6,-6.15c0.1,-0.5 0.2,-1.01667 0.3,-1.55c0.86667,-4.6 0.91667,-9.18333 0.15,-13.75c-0.2,-1.13333 -0.41667,-2.28333 -0.65,-3.45c-0.43333,-2.3 -1.1,-4.53333 -2,-6.7M632.2066,354.73784c1.83333,0.06667 3.56667,0.38333 5.2,0.95c1.36667,0.46667 2.55,1.16667 3.55,2.1c1.1,1.1 2.16667,2.2 3.2,3.3c1.56667,1.56667 2.41667,3.53333 2.55,5.9c0.23333,4.23333 -0.83333,8.15 -3.2,11.75c-0.1,0.2 -0.2,0.4 -0.3,0.6c-1.36667,2.1 -3.25,3.46667 -5.65,4.1c-2.2,0.66667 -4.36667,0.56667 -6.5,-0.3c-0.13333,-0.16667 -0.21667,-0.35 -0.25,-0.55c-0.63333,-2.43333 -0.9,-4.91667 -0.8,-7.45c-0.03333,-0.1 -0.06667,-0.2 -0.1,-0.3c-0.13333,-0.26667 -0.21667,-0.53333 -0.25,-0.8c-0.26667,-4.63333 -0.43333,-9.28333 -0.5,-13.95c0,-0.16667 -0.03333,-0.31667 -0.1,-0.45c-0.36667,-0.93333 -0.35,-1.86667 0.05,-2.8c0.56667,-1.36667 1.6,-2.06667 3.1,-2.1M634.9566,378.03784c0.96667,-0.03333 1.83333,-0.35 2.6,-0.95c0.46667,-0.36667 0.85,-0.78333 1.15,-1.25c1.43333,-2.16667 2.28333,-4.46667 2.55,-6.9c0.13333,-1.33333 -0.16667,-2.56667 -0.9,-3.7c-1.73333,-2.63333 -4.21667,-4.16667 -7.45,-4.6l-0.35,0.3z" fill="#000000"/><path d="M651.7066,359.23784c0.23333,1.16667 0.45,2.31667 0.65,3.45c0.76667,4.56667 0.71667,9.15 -0.15,13.75c-0.1,0.53333 -0.2,1.05 -0.3,1.55c-0.4,2.13333 -0.93333,4.18333 -1.6,6.15c-0.5,1.5 -1.33333,2.85 -2.5,4.05c-0.86667,0.9 -1.8,1.76667 -2.8,2.6c-3.06667,2.56667 -6.6,4.3 -10.6,5.2c-4.43333,1.13333 -8.95,1.61667 -13.55,1.45c-1.83333,-0.16667 -3.65,-0.31667 -5.45,-0.45l-1.3,-7.25c2.16667,-0.76667 4.41667,-1.35 6.75,-1.75c0.43333,0.06667 0.83333,-0.01667 1.2,-0.25c0.7,-0.36667 1.15,-0.81667 1.35,-1.35c0.53333,-1.4 0.66667,-2.8 0.4,-4.2c-0.16667,-0.96667 -0.28333,-1.93333 -0.35,-2.9c-0.23333,-3.43333 -0.3,-6.81667 -0.2,-10.15c0.03333,-1.7 -0.06667,-3.4 -0.3,-5.1c-0.06667,-0.56667 -0.11667,-1.18333 -0.15,-1.85c-0.13333,-1.93333 -0.33333,-3.81667 -0.6,-5.65c-0.06667,-0.43333 -0.18333,-0.88333 -0.35,-1.35c-0.7,-2.03333 -2.21667,-2.88333 -4.55,-2.55c-1.9,-0.2 -3.78333,-0.03333 -5.65,0.5l-0.45,-6.05c1.2,-0.63333 2.61667,-1.1 4.25,-1.4c6.56667,-1.26667 13.08333,-1.7 19.55,-1.3c3.76667,0.43333 7.21667,1.66667 10.35,3.7c1.7,1.2 3.15,2.68333 4.35,4.45c0.9,2.16667 1.56667,4.4 2,6.7M629.0566,359.63784c0.06667,0.13333 0.1,0.28333 0.1,0.45c0.06667,4.66667 0.23333,9.31667 0.5,13.95c0.03333,0.26667 0.11667,0.53333 0.25,0.8c0.03333,0.1 0.06667,0.2 0.1,0.3c-0.1,2.53333 0.16667,5.01667 0.8,7.45c0.03333,0.2 0.11667,0.38333 0.25,0.55c2.13333,0.86667 4.3,0.96667 6.5,0.3c2.4,-0.63333 4.28333,-2 5.65,-4.1c0.1,-0.2 0.2,-0.4 0.3,-0.6c2.36667,-3.6 3.43333,-7.51667 3.2,-11.75c-0.13333,-2.36667 -0.98333,-4.33333 -2.55,-5.9c-1.03333,-1.1 -2.1,-2.2 -3.2,-3.3c-1,-0.93333 -2.18333,-1.63333 -3.55,-2.1c-1.63333,-0.56667 -3.36667,-0.88333 -5.2,-0.95c-1.5,0.03333 -2.53333,0.73333 -3.1,2.1c-0.4,0.93333 -0.41667,1.86667 -0.05,2.8z" fill="#ffffff"/></g></g></svg>