<svg version="1.1" xmlns="http://www.w3.org/2000/svg" xmlns:xlink="http://www.w3.org/1999/xlink" width="55.1962" height="62.55833" viewBox="0,0,55.1962,62.55833"><g transform="translate(-608.33033,-337.72951)"><g data-paper-data="{&quot;isPaintingLayer&quot;:true}" fill-rule="nonzero" stroke="none" stroke-width="1" stroke-linecap="butt" stroke-linejoin="miter" stroke-miterlimit="10" stroke-dasharray="" stroke-dashoffset="0" style="mix-blend-mode: normal"><path d="M653.60811,340.18784c0.46667,0.96667 0.63333,1.93333 0.5,2.9c0.36667,1.76667 0.78333,3.63333 1.25,5.6c0.23333,1.03333 0.41667,1.96667 0.55,2.8c0.1,0.5 0.23333,1.03333 0.4,1.6c0.16667,0.46667 0.3,0.96667 0.4,1.5c0.16667,0.73333 0.28333,1.46667 0.35,2.2c0.06667,0.5 0.15,1.03333 0.25,1.6c0.33333,1.6 0.63333,3.21667 0.9,4.85c0.5,3.1 1.11667,6.11667 1.85,9.05c0.16667,0.63333 0.28333,1.26667 0.35,1.9c0.23333,2 0.6,3.98333 1.1,5.95c0.13333,0.56667 0.3,1.15 0.5,1.75c0.5,1.63333 0.86667,3.25 1.1,4.85c0.03333,0.4 0.03333,0.76667 0,1.1c-0.03333,0.6 0.05,1.13333 0.25,1.6c0.26667,0.63333 0.21667,1.23333 -0.15,1.8c-1.13333,1.9 -2.75,3.25 -4.85,4.05l0.45,0.05l-11.45,4.95l-6.55,-21.4c-1.06667,3.16667 -2.08333,6.36667 -3.05,9.6c-0.43333,1.46667 -1.36667,2.2 -2.8,2.2c-1.6,0 -2.65,-0.73333 -3.15,-2.2c-0.56667,-1.6 -1.08333,-3.2 -1.55,-4.8c-0.66667,-2.26667 -1.36667,-4.48333 -2.1,-6.65l-3.25,17.15c-0.16667,0.9 -0.36667,1.78333 -0.6,2.65c-0.3,1.03333 -1,1.7 -2.1,2c-0.56667,0.1 -1.11667,0.06667 -1.65,-0.1c-3.13333,-0.8 -6.28333,-1.83333 -9.45,-3.1c-0.63333,-0.26667 -1.2,-0.61667 -1.7,-1.05c-0.5,-0.5 -0.8,-1.06667 -0.9,-1.7c-0.26667,-1.8 -0.23333,-3.56667 0.1,-5.3c0.1,-0.63333 0.18333,-1.26667 0.25,-1.9c0.4,-3.96667 0.95,-7.98333 1.65,-12.05c0.23333,-1.43333 0.45,-2.86667 0.65,-4.3c0.53333,-4.03333 1.43333,-7.95 2.7,-11.75c0.23333,-1.9 0.6,-3.8 1.1,-5.7c0.23333,-0.86667 0.5,-1.71667 0.8,-2.55c0.23333,-0.6 0.33333,-1.18333 0.3,-1.75c-0.03333,-0.5 -0.01667,-0.95 0.05,-1.35c0.2,-1.76667 0.25,-3.55 0.15,-5.35l1.05,-1.6c1.1,-0.2 2.2,-0.4 3.3,-0.6c2.13333,-0.2 4.26667,-0.5 6.4,-0.9c2.06667,-0.23333 3.86667,0.23333 5.4,1.4l2.25,13.5c0.33333,-1.83333 0.63333,-3.7 0.9,-5.6c0.13333,-0.9 0.2,-1.86667 0.2,-2.9c0,-1.56667 0.51667,-2.9 1.55,-4c4.2,-0.9 8.36667,-1.61667 12.5,-2.15c0.7,-0.23333 1.36667,-0.11667 2,0.35c0.2,0.1 0.41667,0.23333 0.65,0.4c0.5,0.4 0.88333,0.86667 1.15,1.4M642.95811,345.63784c-0.73333,0.1 -1.46667,0.21667 -2.2,0.35l-5.85,15.8l-0.7,0.25l-1.45,-0.7c-0.33333,-0.96667 -0.55,-1.93333 -0.65,-2.9c-0.03333,-0.23333 -0.05,-0.43333 -0.05,-0.6c0.1,-0.96667 -0.01667,-1.95 -0.35,-2.95c-0.1,-0.36667 -0.16667,-0.63333 -0.2,-0.8c-0.36667,-3.5 -1.05,-6.88333 -2.05,-10.15c-2.76667,0.66667 -5.5,0.9 -8.2,0.7c-0.2,1.76667 -0.51667,3.55 -0.95,5.35c-0.23333,1 -0.43333,1.96667 -0.6,2.9c-0.26667,1.7 -0.53333,3.41667 -0.8,5.15c-0.1,0.63333 -0.23333,1.25 -0.4,1.85c-1.26667,4.86667 -2.1,9.78333 -2.5,14.75c-0.2,2.66667 -0.6,5.25 -1.2,7.75l-0.85,8.3c1.43333,0.7 2.96667,1.05 4.6,1.05c0.33333,0 0.66667,-0.05 1,-0.15l1.45,-6.95c0.33333,-2.43333 0.71667,-4.85 1.15,-7.25c0.06667,-0.26667 0.11667,-0.53333 0.15,-0.8c0.1,-1.36667 0.4,-2.7 0.9,-4c0.56667,-1.46667 0.88333,-2.9 0.95,-4.3c0.13333,-2.53333 1.33333,-4.11667 3.6,-4.75c1.1,0.16667 1.96667,0.7 2.6,1.6c0.66667,0.9 1.15,1.88333 1.45,2.95c0.93333,3.53333 1.93333,7.08333 3,10.65c1.23333,-3.76667 2.23333,-7.55 3,-11.35c0.33333,-1.73333 1.35,-2.75 3.05,-3.05c0.66667,0.13333 1.28333,0.36667 1.85,0.7c1.13333,0.6 1.76667,1.5 1.9,2.7c0.03333,0.16667 0.06667,0.35 0.1,0.55c1.96667,8.1 4.18333,16.1 6.65,24l5.7,-3.65c-0.76667,-2.86667 -1.45,-5.81667 -2.05,-8.85c-0.03333,-0.26667 -0.06667,-0.53333 -0.1,-0.8c-0.1,-1.56667 -0.33333,-3.18333 -0.7,-4.85c-1,-4.4 -1.93333,-8.85 -2.8,-13.35c-0.13333,-0.7 -0.21667,-1.33333 -0.25,-1.9c-0.13333,-1.36667 -0.33333,-2.68333 -0.6,-3.95c-0.2,-0.96667 -0.38333,-1.9 -0.55,-2.8c-0.46667,-2.33333 -0.83333,-4.63333 -1.1,-6.9l-0.1,-0.25c-1.9,0.36667 -3.85,0.58333 -5.85,0.65z" fill="#000000"/><path d="M650.00811,352.13784c0.16667,0.9 0.35,1.83333 0.55,2.8c0.26667,1.26667 0.46667,2.58333 0.6,3.95c0.03333,0.56667 0.11667,1.2 0.25,1.9c0.86667,4.5 1.8,8.95 2.8,13.35c0.36667,1.66667 0.6,3.28333 0.7,4.85c0.03333,0.26667 0.06667,0.53333 0.1,0.8c0.6,3.03333 1.28333,5.98333 2.05,8.85l-5.7,3.65c-2.46667,-7.9 -4.68333,-15.9 -6.65,-24c-0.03333,-0.2 -0.06667,-0.38333 -0.1,-0.55c-0.13333,-1.2 -0.76667,-2.1 -1.9,-2.7c-0.56667,-0.33333 -1.18333,-0.56667 -1.85,-0.7c-1.7,0.3 -2.71667,1.31667 -3.05,3.05c-0.76667,3.8 -1.76667,7.58333 -3,11.35c-1.06667,-3.56667 -2.06667,-7.11667 -3,-10.65c-0.3,-1.06667 -0.78333,-2.05 -1.45,-2.95c-0.63333,-0.9 -1.5,-1.43333 -2.6,-1.6c-2.26667,0.63333 -3.46667,2.21667 -3.6,4.75c-0.06667,1.4 -0.38333,2.83333 -0.95,4.3c-0.5,1.3 -0.8,2.63333 -0.9,4c-0.03333,0.26667 -0.08333,0.53333 -0.15,0.8c-0.43333,2.4 -0.81667,4.81667 -1.15,7.25l-1.45,6.95c-0.33333,0.1 -0.66667,0.15 -1,0.15c-1.63333,0 -3.16667,-0.35 -4.6,-1.05l0.85,-8.3c0.6,-2.5 1,-5.08333 1.2,-7.75c0.4,-4.96667 1.23333,-9.88333 2.5,-14.75c0.16667,-0.6 0.3,-1.21667 0.4,-1.85c0.26667,-1.73333 0.53333,-3.45 0.8,-5.15c0.16667,-0.93333 0.36667,-1.9 0.6,-2.9c0.43333,-1.8 0.75,-3.58333 0.95,-5.35c2.7,0.2 5.43333,-0.03333 8.2,-0.7c1,3.26667 1.68333,6.65 2.05,10.15c0.03333,0.16667 0.1,0.43333 0.2,0.8c0.33333,1 0.45,1.98333 0.35,2.95c0,0.16667 0.01667,0.36667 0.05,0.6c0.1,0.96667 0.31667,1.93333 0.65,2.9l1.45,0.7l0.7,-0.25l5.85,-15.8c0.73333,-0.13333 1.46667,-0.25 2.2,-0.35c2,-0.06667 3.95,-0.28333 5.85,-0.65l0.1,0.25c0.26667,2.26667 0.63333,4.56667 1.1,6.9z" fill="#ffffff"/></g></g></svg>