<svg version="1.1" xmlns="http://www.w3.org/2000/svg" xmlns:xlink="http://www.w3.org/1999/xlink" width="154.94781" height="159.40706" viewBox="0,0,154.94781,159.40706"><g transform="translate(-565.04507,-276.16723)"><g data-paper-data="{&quot;isPaintingLayer&quot;:true}" fill-rule="nonzero" stroke="none" stroke-linecap="butt" stroke-linejoin="miter" stroke-miterlimit="10" stroke-dasharray="" stroke-dashoffset="0" style="mix-blend-mode: normal"><path d="M644.92379,340.39809l-0.05,0.05l-0.35,-0.05c0.13333,0 0.26667,0 0.4,0z" fill="#000000" stroke-width="1"/><path d="M717.80109,352.19282c-1.65533,4.31651 -2.71132,8.83291 -4.6372,13.047c-5.94879,13.0168 -13.08675,25.06505 -22.04514,36.22569c-4.36702,6.00403 -10.89578,10.90692 -16.38424,15.92713c-3.68689,3.37234 -6.62732,7.81115 -10.52591,10.91588c-7.45327,5.93556 -16.6826,7.39735 -25.85448,7.25675c-8.77401,-0.16186 -14.62929,-4.15714 -21.33809,-9.35153c-3.21674,-2.49061 -6.84296,-4.79181 -9.69394,-7.72783c-6.84453,-7.04867 -11.03698,-16.76524 -17.0578,-24.53525c-6.55752,-7.61026 -11.82407,-15.75473 -17.33784,-24.11668c-1.45319,-2.20385 -3.27265,-3.85843 -5.10467,-5.70578c-0.91352,-0.92117 -2.34921,-1.59569 -2.63953,-2.8601c-0.65364,-2.84669 1.16388,-5.54388 2.59423,-7.6983c2.57713,-3.88172 5.69325,-6.34284 7.01686,-10.9257c3.14197,-5.62202 7.12085,-9.9834 11.0366,-15.0301c2.15374,-2.77579 4.39506,-5.81693 8.32651,-5.98807c3.34415,-0.14558 6.66843,2.66593 9.09546,4.54087c3.26579,2.52292 6.75917,5.0546 9.00564,8.59138c0.43608,0.68653 0.83073,1.39846 1.21049,2.12045c0.0358,-2.52669 0.08017,-5.05333 0.1189,-7.57995c0.08347,-5.44439 0.16693,-10.88879 0.25039,-16.33319c0.00302,-0.19699 0.08095,-6.00272 0.12811,-6.25061c0.37098,-1.95031 1.57803,-3.65909 2.08872,-5.57756c1.10418,-4.14799 0.02719,-9.32764 1.77526,-13.21711c0.95523,-2.12539 2.94085,-3.82361 4.56929,-5.41c3.1427,-2.69173 5.46739,-3.55503 9.41068,-4.59566c10.02975,-2.64682 18.88815,-2.86587 27.6546,3.46637c0.95952,0.6931 4.28188,3.02076 5.0109,3.88065c3.69232,4.35516 3.24928,9.85115 3.79299,15.06568c0.19982,1.91645 0.74716,3.78949 0.8971,5.71048c0.41822,6.22257 0.06143,12.51361 -0.03414,18.74804c-0.04645,3.03032 0.55742,6.48357 -0.06835,9.35502c0.03144,-0.13132 0.12938,-0.50567 0.23382,-0.6243c0.55806,-0.63392 1.23444,-1.15299 1.84586,-1.73562c1.96773,-1.87508 2.44315,-2.61443 4.98168,-3.96679c7.25683,-3.86594 14.31734,-1.88892 20.58106,2.63012c7.23839,4.77064 13.81023,10.19394 20.78195,15.22365l1.99065,2.52935c0,0 1.46917,2.02275 -0.55359,3.49192c-0.39803,0.28909 -0.77462,0.44298 -1.1228,0.50368z" data-paper-data="{&quot;index&quot;:null}" fill="#006aff" stroke-width="0.5"/></g></g></svg>