<svg version="1.1" xmlns="http://www.w3.org/2000/svg" xmlns:xlink="http://www.w3.org/1999/xlink" width="615.3" height="122.45" viewBox="0,0,615.3,122.45"><g transform="translate(-329.43784,-296.50631)"><g data-paper-data="{&quot;isPaintingLayer&quot;:true}" fill-rule="nonzero" stroke="none" stroke-width="1" stroke-linecap="butt" stroke-linejoin="miter" stroke-miterlimit="10" stroke-dasharray="" stroke-dashoffset="0" style="mix-blend-mode: normal"><path d="M347.13784,305.60631c0.16667,-0.13333 0.33333,-0.25 0.5,-0.35c0.3,-0.13333 0.6,-0.26667 0.9,-0.4c0.16667,-0.16667 0.35,-0.33333 0.55,-0.5c0.16667,-0.13333 0.35,-0.25 0.55,-0.35c0.03333,-0.06667 0.08333,-0.11667 0.15,-0.15c0.3,-0.1 0.6,-0.18333 0.9,-0.25c0.3,-0.1 0.6,-0.2 0.9,-0.3c0.4,-0.13333 0.81667,-0.26667 1.25,-0.4c0.3,-0.1 0.6,-0.2 0.9,-0.3c0.4,-0.16667 0.81667,-0.3 1.25,-0.4c1,-0.13333 2,-0.25 3,-0.35c0.43333,-0.13333 0.85,-0.25 1.25,-0.35c0.5,0 0.98333,0 1.45,0c3.1,0.03333 6.2,0.08333 9.3,0.15c0.33333,0.13333 0.68333,0.25 1.05,0.35c0.83333,0.13333 1.66667,0.23333 2.5,0.3c1.2,0.1 2.38333,0.18333 3.55,0.25c0.3,0.13333 0.6,0.25 0.9,0.35c1.13333,0.13333 2.26667,0.25 3.4,0.35c0.3,0.13333 0.6,0.25 0.9,0.35c0.16667,0.13333 0.35,0.26667 0.55,0.4c0.46667,0.03333 0.93333,0.08333 1.4,0.15c0.3,0.13333 0.6,0.25 0.9,0.35c0.2,0.13333 0.38333,0.25 0.55,0.35c0.3,0.13333 0.6,0.26667 0.9,0.4c0.1,0.1 0.21667,0.21667 0.35,0.35c0.06667,0.06667 0.13333,0.11667 0.2,0.15c0.26667,0.13333 0.55,0.25 0.85,0.35c0.13333,0.13333 0.25,0.26667 0.35,0.4c0.06667,0 0.13333,0 0.2,0c1.43333,0 2.86667,0 4.3,0c0.33333,0.1 0.68333,0.21667 1.05,0.35c5.66667,0 11.31667,0 16.95,0c0.43333,-0.13333 0.85,-0.25 1.25,-0.35c1.96667,-0.13333 3.93333,-0.26667 5.9,-0.4c0.43333,-0.1 0.85,-0.21667 1.25,-0.35c1.26667,-0.1 2.51667,-0.21667 3.75,-0.35c0.43333,-0.1 0.85,-0.21667 1.25,-0.35c1.96667,-0.13333 3.93333,-0.25 5.9,-0.35c0.43333,-0.13333 0.85,-0.25 1.25,-0.35c1.5,-0.13333 2.98333,-0.25 4.45,-0.35c0.43333,-0.13333 0.85,-0.26667 1.25,-0.4c0.8,-0.1 1.58333,-0.21667 2.35,-0.35c0.4,-0.1 0.81667,-0.21667 1.25,-0.35c0.3,-0.1 0.6,-0.2 0.9,-0.3c0.4,-0.16667 0.81667,-0.3 1.25,-0.4c0.53333,-0.13333 1.06667,-0.26667 1.6,-0.4c0.4,-0.1 0.81667,-0.2 1.25,-0.3c1.46667,-0.13333 2.95,-0.26667 4.45,-0.4c0.43333,-0.1 0.85,-0.21667 1.25,-0.35c1.43333,0 2.86667,0 4.3,0c0.33333,0.13333 0.68333,0.25 1.05,0.35c0.83333,0.13333 1.66667,0.26667 2.5,0.4c0.36667,0.1 0.73333,0.21667 1.1,0.35c0.16667,0.1 0.33333,0.21667 0.5,0.35c0.3,0.1 0.6,0.21667 0.9,0.35c0.2,0.13333 0.38333,0.25 0.55,0.35c0.3,0.13333 0.6,0.25 0.9,0.35c0.16667,0.13333 0.33333,0.25 0.5,0.35c0.3,0.13333 0.6,0.26667 0.9,0.4c0.2,0.16667 0.38333,0.33333 0.55,0.5c0.23333,0.2 0.46667,0.38333 0.7,0.55c0.2,0.16667 0.38333,0.35 0.55,0.55c0.16667,0.16667 0.35,0.33333 0.55,0.5c0.1,0.2 0.21667,0.38333 0.35,0.55c0.23333,0.2 0.46667,0.38333 0.7,0.55c0.2,0.06667 0.38333,0.11667 0.55,0.15c0.06667,-0.1 0.13333,-0.21667 0.2,-0.35c0.1,-0.16667 0.21667,-0.33333 0.35,-0.5c0.1,-0.2 0.21667,-0.38333 0.35,-0.55c0.06667,-0.16667 0.11667,-0.35 0.15,-0.55c0.13333,-0.16667 0.25,-0.35 0.35,-0.55c0.2,-0.16667 0.38333,-0.33333 0.55,-0.5c0.23333,-0.2 0.46667,-0.38333 0.7,-0.55c0.13333,-0.16667 0.26667,-0.35 0.4,-0.55c0.16667,-0.16667 0.33333,-0.33333 0.5,-0.5c0.2,-0.2 0.38333,-0.38333 0.55,-0.55c0.16667,-0.13333 0.35,-0.26667 0.55,-0.4c0.06667,-0.03333 0.11667,-0.08333 0.15,-0.15c0.3,-0.1 0.6,-0.21667 0.9,-0.35c0.2,-0.13333 0.38333,-0.25 0.55,-0.35c0.3,-0.13333 0.6,-0.25 0.9,-0.35c0.16667,-0.13333 0.33333,-0.25 0.5,-0.35c0.3,-0.13333 0.6,-0.26667 0.9,-0.4c0.2,-0.1 0.38333,-0.21667 0.55,-0.35c0.3,-0.03333 0.6,-0.08333 0.9,-0.15c0.3,-0.13333 0.6,-0.25 0.9,-0.35c0.4,-0.13333 0.81667,-0.26667 1.25,-0.4c1.23333,-0.1 2.48333,-0.21667 3.75,-0.35c0.4,-0.1 0.81667,-0.21667 1.25,-0.35c2.13333,0 4.26667,0 6.4,0c0.36667,0.13333 0.73333,0.25 1.1,0.35c4.86667,0.13333 9.75,0.25 14.65,0.35c0.4,0.13333 0.81667,0.26667 1.25,0.4c1.93333,0.1 3.88333,0.21667 5.85,0.35c0.43333,0.1 0.85,0.21667 1.25,0.35c1.73333,0.1 3.46667,0.21667 5.2,0.35c0.36667,0.13333 0.71667,0.25 1.05,0.35c2.03333,0.13333 4.06667,0.25 6.1,0.35c0.33333,0.13333 0.68333,0.25 1.05,0.35c1.3,0.13333 2.61667,0.26667 3.95,0.4c0.4,0.1 0.81667,0.2 1.25,0.3c1.16667,0.26667 2.35,0.53333 3.55,0.8c1.5,0.33333 2.98333,0.66667 4.45,1c2.06667,0.5 4.1,1.1 6.1,1.8c0.16667,0.13333 0.35,0.25 0.55,0.35c0.26667,0.13333 0.55,0.25 0.85,0.35c0.2,0.13333 0.38333,0.26667 0.55,0.4c0.3,0.1 0.6,0.21667 0.9,0.35c0.16667,0.16667 0.35,0.33333 0.55,0.5c0.16667,0.13333 0.33333,0.26667 0.5,0.4c0.06667,0.03333 0.13333,0.08333 0.2,0.15c0.3,0.13333 0.6,0.25 0.9,0.35c0.16667,0.2 0.35,0.38333 0.55,0.55c0.16667,0.16667 0.33333,0.35 0.5,0.55c0.2,0.16667 0.38333,0.33333 0.55,0.5c0.16667,0.06667 0.35,0.13333 0.55,0.2c0.16667,-0.13333 0.33333,-0.25 0.5,-0.35c0.2,-0.16667 0.38333,-0.35 0.55,-0.55c0.16667,-0.16667 0.35,-0.35 0.55,-0.55c0.16667,-0.16667 0.35,-0.33333 0.55,-0.5c0.16667,-0.2 0.33333,-0.38333 0.5,-0.55c0.2,-0.16667 0.38333,-0.35 0.55,-0.55c0.36667,-0.33333 0.71667,-0.68333 1.05,-1.05c0.36667,-0.36667 0.73333,-0.73333 1.1,-1.1c0.53333,-0.53333 1.06667,-1.06667 1.6,-1.6c0.4,-0.16667 0.81667,-0.33333 1.25,-0.5c0.16667,-0.2 0.35,-0.38333 0.55,-0.55c0.16667,-0.13333 0.33333,-0.26667 0.5,-0.4c0.06667,-0.03333 0.13333,-0.08333 0.2,-0.15c0.3,-0.1 0.6,-0.21667 0.9,-0.35c0.16667,-0.13333 0.35,-0.25 0.55,-0.35c0.26667,-0.13333 0.55,-0.25 0.85,-0.35c0.2,-0.13333 0.38333,-0.25 0.55,-0.35c0.3,-0.13333 0.6,-0.26667 0.9,-0.4c0.16667,-0.1 0.35,-0.21667 0.55,-0.35c0.3,-0.1 0.6,-0.21667 0.9,-0.35c0.16667,-0.1 0.33333,-0.21667 0.5,-0.35c0.3,-0.06667 0.6,-0.13333 0.9,-0.2c1.43333,0 2.86667,0 4.3,0c0.36667,0.13333 0.71667,0.26667 1.05,0.4c0.13333,0.1 0.25,0.21667 0.35,0.35c0.36667,0.1 0.73333,0.21667 1.1,0.35c0.1,0.1 0.21667,0.21667 0.35,0.35c0.36667,0.13333 0.71667,0.25 1.05,0.35c0.2,0.2 0.38333,0.38333 0.55,0.55c0.16667,0.16667 0.35,0.35 0.55,0.55c0.16667,0.16667 0.33333,0.33333 0.5,0.5c0.2,0.2 0.38333,0.38333 0.55,0.55c0.23333,0.16667 0.46667,0.35 0.7,0.55c0.2,0.16667 0.38333,0.33333 0.55,0.5c0.13333,0.2 0.25,0.38333 0.35,0.55c0.13333,0.2 0.25,0.38333 0.35,0.55c0.2,0.16667 0.38333,0.35 0.55,0.55c0.23333,0.16667 0.46667,0.33333 0.7,0.5c0.13333,0.2 0.26667,0.38333 0.4,0.55c0.03333,0.16667 0.08333,0.35 0.15,0.55c0.2,0.16667 0.38333,0.33333 0.55,0.5c0.16667,0.2 0.35,0.38333 0.55,0.55c0.16667,0.2 0.33333,0.38333 0.5,0.55c0.2,0.16667 0.38333,0.35 0.55,0.55c0.16667,0.16667 0.35,0.33333 0.55,0.5c0.33333,0.36667 0.68333,0.73333 1.05,1.1c0.36667,0.33333 0.73333,0.68333 1.1,1.05c0.33333,0.36667 0.68333,0.73333 1.05,1.1c0.36667,0.16667 0.71667,0.33333 1.05,0.5c0.2,0.2 0.38333,0.38333 0.55,0.55c0.06667,0.16667 0.13333,0.35 0.2,0.55c0.1,0.16667 0.21667,0.33333 0.35,0.5c0.16667,0.2 0.35,0.38333 0.55,0.55c0.1,0.16667 0.21667,0.35 0.35,0.55c0.23333,0.16667 0.46667,0.35 0.7,0.55c0.13333,0.16667 0.25,0.33333 0.35,0.5c0.2,0.2 0.38333,0.38333 0.55,0.55c0.23333,0.16667 0.46667,0.35 0.7,0.55c0.13333,0.16667 0.25,0.33333 0.35,0.5c0.2,0.2 0.38333,0.38333 0.55,0.55c0.23333,0.16667 0.46667,0.35 0.7,0.55c0.13333,0.16667 0.25,0.35 0.35,0.55c0.2,0.16667 0.38333,0.33333 0.55,0.5c0.2,0.2 0.38333,0.38333 0.55,0.55c0.16667,0.06667 0.35,0.13333 0.55,0.2c0.1,-0.13333 0.21667,-0.26667 0.35,-0.4c0.06667,-0.16667 0.11667,-0.33333 0.15,-0.5c0,-0.2 0,-0.38333 0,-0.55c0,-0.16667 0,-0.35 0,-0.55c0.06667,-0.16667 0.13333,-0.33333 0.2,-0.5c0.1,-0.2 0.21667,-0.38333 0.35,-0.55c0.06667,-0.2 0.13333,-0.38333 0.2,-0.55c0.03333,-0.16667 0.08333,-0.35 0.15,-0.55c0.13333,-0.16667 0.25,-0.33333 0.35,-0.5c0.06667,-0.2 0.13333,-0.38333 0.2,-0.55c0.1,-0.16667 0.21667,-0.35 0.35,-0.55c0.13333,-0.16667 0.25,-0.33333 0.35,-0.5c0,-0.2 0,-0.38333 0,-0.55c0,-0.16667 0,-0.35 0,-0.55c0.13333,-0.16667 0.25,-0.35 0.35,-0.55c0.13333,-0.16667 0.25,-0.33333 0.35,-0.5c0,-0.2 0,-0.38333 0,-0.55c0,-0.16667 0,-0.35 0,-0.55c0.13333,-0.16667 0.26667,-0.33333 0.4,-0.5c0.03333,-0.2 0.08333,-0.38333 0.15,-0.55c0.13333,-0.16667 0.25,-0.35 0.35,-0.55c0.13333,-0.16667 0.25,-0.35 0.35,-0.55c0.06667,-0.16667 0.13333,-0.33333 0.2,-0.5c0,-0.2 0,-0.38333 0,-0.55c0.06667,-0.16667 0.13333,-0.35 0.2,-0.55c0.1,-0.16667 0.21667,-0.33333 0.35,-0.5c0.06667,-0.2 0.11667,-0.38333 0.15,-0.55c0,-0.16667 0,-0.35 0,-0.55c0.06667,-0.16667 0.13333,-0.35 0.2,-0.55c0.1,-0.16667 0.21667,-0.33333 0.35,-0.5c0.06667,-0.2 0.13333,-0.38333 0.2,-0.55c0,-0.16667 0,-0.35 0,-0.55c0.03333,-0.16667 0.08333,-0.33333 0.15,-0.5c0.13333,-0.2 0.25,-0.38333 0.35,-0.55c0.06667,-0.16667 0.13333,-0.35 0.2,-0.55c0.1,-0.16667 0.21667,-0.35 0.35,-0.55c0.06667,-0.16667 0.13333,-0.33333 0.2,-0.5c0.03333,-0.2 0.08333,-0.38333 0.15,-0.55c0,-0.16667 0,-0.35 0,-0.55c0.13333,-0.16667 0.25,-0.33333 0.35,-0.5c0.13333,-0.2 0.25,-0.38333 0.35,-0.55c0.2,-0.16667 0.38333,-0.35 0.55,-0.55c0.06667,-0.16667 0.13333,-0.35 0.2,-0.55c0.1,-0.16667 0.21667,-0.33333 0.35,-0.5c0.1,-0.2 0.21667,-0.38333 0.35,-0.55c0.16667,-0.16667 0.35,-0.35 0.55,-0.55c0.16667,-0.1 0.33333,-0.21667 0.5,-0.35c0.3,0 0.6,-0.03333 0.9,-0.1v-0.05c1.43333,0 2.86667,0 4.3,0c0.36667,0.1 0.73333,0.2 1.1,0.3c0.56667,0.13333 1.15,0.28333 1.75,0.45c0.36667,0.06667 0.73333,0.16667 1.1,0.3c0.33333,0.13333 0.68333,0.25 1.05,0.35c0.36667,0.13333 0.71667,0.25 1.05,0.35c0.13333,0.13333 0.26667,0.25 0.4,0.35c0.33333,0.13333 0.68333,0.26667 1.05,0.4c0.16667,0.16667 0.35,0.33333 0.55,0.5c0.16667,0.13333 0.33333,0.26667 0.5,0.4c0.06667,0.03333 0.13333,0.08333 0.2,0.15c0.3,0.13333 0.6,0.25 0.9,0.35c0.36667,0.13333 0.71667,0.25 1.05,0.35c0.36667,0.13333 0.73333,0.25 1.1,0.35c0.16667,0.2 0.33333,0.38333 0.5,0.55c0.2,0.13333 0.38333,0.26667 0.55,0.4c0.06667,0.03333 0.13333,0.08333 0.2,0.15c0.3,0.1 0.6,0.21667 0.9,0.35c0.1,0.13333 0.21667,0.25 0.35,0.35c0.33333,0.13333 0.68333,0.25 1.05,0.35c0.23333,0.2 0.46667,0.38333 0.7,0.55c0.13333,0.13333 0.26667,0.25 0.4,0.35c0.03333,0.06667 0.08333,0.11667 0.15,0.15c0.3,0.13333 0.6,0.26667 0.9,0.4c0.16667,0.16667 0.35,0.35 0.55,0.55c0.23333,0.16667 0.46667,0.33333 0.7,0.5c0.16667,0.2 0.35,0.38333 0.55,0.55c0.16667,0.16667 0.33333,0.35 0.5,0.55c0.2,0.16667 0.38333,0.33333 0.55,0.5c0.13333,0.2 0.25,0.38333 0.35,0.55c0.2,0.2 0.38333,0.38333 0.55,0.55c0.23333,0.16667 0.46667,0.35 0.7,0.55c0.2,0.16667 0.38333,0.33333 0.55,0.5c0.13333,0.2 0.25,0.38333 0.35,0.55c0.16667,0.16667 0.35,0.35 0.55,0.55c0.1,0.16667 0.21667,0.33333 0.35,0.5c0.13333,0.2 0.25,0.38333 0.35,0.55c0.06667,0.2 0.13333,0.38333 0.2,0.55c0.1,0.16667 0.21667,0.35 0.35,0.55c0.06667,0.16667 0.11667,0.33333 0.15,0.5c0,0.2 0,0.38333 0,0.55c0.06667,0.16667 0.13333,0.35 0.2,0.55c0.13333,0.16667 0.25,0.33333 0.35,0.5c0.06667,0.2 0.13333,0.38333 0.2,0.55c0,0.16667 0,0.35 0,0.55c0,0.16667 0,0.35 0,0.55c0,0.16667 0,0.33333 0,0.5c0,0.2 0,0.38333 0,0.55c0,0.16667 0,0.35 0,0.55c0,0.33333 0,0.68333 0,1.05c0,0.16667 0,0.35 0,0.55c0,0.53333 0,1.06667 0,1.6c0,0.16667 0,0.35 0,0.55c0,0.16667 0,0.33333 0,0.5c0,0.2 0,0.38333 0,0.55c-0.06667,0.16667 -0.13333,0.35 -0.2,0.55c-0.1,0.16667 -0.21667,0.35 -0.35,0.55c-0.06667,0.16667 -0.13333,0.33333 -0.2,0.5c0,0.2 0,0.38333 0,0.55c0,0.16667 0,0.35 0,0.55c0,0.16667 0,0.33333 0,0.5c0,0.2 0,0.38333 0,0.55c0,0.16667 0,0.35 0,0.55c-0.03333,0.16667 -0.08333,0.35 -0.15,0.55c-0.13333,0.16667 -0.25,0.33333 -0.35,0.5c-0.06667,0.2 -0.13333,0.38333 -0.2,0.55c0,0.16667 0,0.35 0,0.55c-0.06667,0.16667 -0.11667,0.33333 -0.15,0.5c-0.13333,0.2 -0.26667,0.38333 -0.4,0.55c-0.03333,0.16667 -0.08333,0.35 -0.15,0.55c0,0.16667 0,0.35 0,0.55c0,0.16667 0,0.33333 0,0.5c-0.06667,0.2 -0.13333,0.38333 -0.2,0.55c-0.06667,0.16667 -0.11667,0.35 -0.15,0.55c-0.13333,0.16667 -0.25,0.33333 -0.35,0.5c0,0.2 0,0.38333 0,0.55c-0.06667,0.16667 -0.13333,0.35 -0.2,0.55c-0.06667,0.16667 -0.13333,0.35 -0.2,0.55c-0.1,0.16667 -0.21667,0.33333 -0.35,0.5c-0.06667,0.2 -0.11667,0.38333 -0.15,0.55c-0.13333,0.16667 -0.25,0.35 -0.35,0.55c-0.06667,0.16667 -0.13333,0.33333 -0.2,0.5c0,0.2 0,0.38333 0,0.55c-0.06667,0.16667 -0.13333,0.35 -0.2,0.55c-0.1,0.16667 -0.21667,0.35 -0.35,0.55c-0.23333,0.16667 -0.46667,0.33333 -0.7,0.5c-0.16667,0.2 -0.35,0.38333 -0.55,0.55c-0.1,0.16667 -0.21667,0.35 -0.35,0.55c-0.1,0.16667 -0.21667,0.33333 -0.35,0.5c-0.16667,0.2 -0.35,0.38333 -0.55,0.55c-0.16667,0.16667 -0.33333,0.35 -0.5,0.55c-0.2,0.16667 -0.38333,0.35 -0.55,0.55c-0.2,0.16667 -0.38333,0.33333 -0.55,0.5c-0.23333,0.2 -0.46667,0.38333 -0.7,0.55c-0.13333,0.16667 -0.25,0.35 -0.35,0.55c-0.2,0.16667 -0.38333,0.33333 -0.55,0.5c-0.16667,0.2 -0.35,0.38333 -0.55,0.55c-0.16667,0.16667 -0.33333,0.35 -0.5,0.55c-0.2,0.16667 -0.38333,0.35 -0.55,0.55c-0.2,0.16667 -0.38333,0.33333 -0.55,0.5c-0.06667,0.2 -0.11667,0.38333 -0.15,0.55c0,0.16667 0,0.35 0,0.55c-0.13333,0.16667 -0.26667,0.33333 -0.4,0.5c-0.1,0.2 -0.21667,0.38333 -0.35,0.55c0,0.16667 0,0.35 0,0.55c0,0.16667 0,0.33333 0,0.5c0,0.2 0,0.38333 0,0.55c0,0.2 0,0.38333 0,0.55c0,0.16667 0,0.35 0,0.55c0,0.16667 0,0.33333 0,0.5c-0.1,0.2 -0.21667,0.38333 -0.35,0.55c-0.1,0.16667 -0.21667,0.35 -0.35,0.55c0,0.16667 0,0.33333 0,0.5c0,0.2 0,0.38333 0,0.55c0,0.2 0,0.38333 0,0.55c0,0.16667 0,0.35 0,0.55c0.13333,0.16667 0.25,0.33333 0.35,0.5c0.13333,0.2 0.25,0.38333 0.35,0.55c0.06667,0.16667 0.13333,0.35 0.2,0.55c0.16667,0.16667 0.35,0.33333 0.55,0.5c0.33333,0.13333 0.68333,0.26667 1.05,0.4c0.13333,0 0.25,0 0.35,0c0.3,-0.06667 0.6,-0.13333 0.9,-0.2c0.53333,-0.13333 1.06667,-0.26667 1.6,-0.4c0.43333,-0.1 0.85,-0.21667 1.25,-0.35c0.3,-0.1 0.6,-0.2 0.9,-0.3c0.4,-0.2 0.81667,-0.38333 1.25,-0.55c0.16667,-0.16667 0.35,-0.35 0.55,-0.55c0.16667,-0.1 0.33333,-0.21667 0.5,-0.35c0.06667,-0.06667 0.13333,-0.13333 0.2,-0.2c0.3,-0.1 0.6,-0.21667 0.9,-0.35c0.16667,-0.1 0.35,-0.21667 0.55,-0.35c0.26667,-0.1 0.55,-0.21667 0.85,-0.35c0.2,-0.13333 0.38333,-0.25 0.55,-0.35c0.3,-0.13333 0.6,-0.25 0.9,-0.35c0.16667,-0.13333 0.35,-0.25 0.55,-0.35c0.3,-0.13333 0.6,-0.26667 0.9,-0.4c0.16667,-0.1 0.33333,-0.21667 0.5,-0.35c0.3,-0.03333 0.6,-0.08333 0.9,-0.15c0.53333,-0.13333 1.06667,-0.25 1.6,-0.35c0,-0.2 0,-0.38333 0,-0.55c0,-0.16667 0,-0.35 0,-0.55c0,-0.16667 0,-0.35 0,-0.55c0,-0.16667 0,-0.33333 0,-0.5c0,-0.2 0,-0.38333 0,-0.55c0,-0.16667 0,-0.35 0,-0.55c0,-0.16667 0,-0.33333 0,-0.5c0,-0.2 0,-0.38333 0,-0.55c0,-0.16667 0,-0.35 0,-0.55c0.13333,-0.16667 0.25,-0.33333 0.35,-0.5c0.13333,-0.2 0.26667,-0.38333 0.4,-0.55c0,-0.2 0,-0.38333 0,-0.55c0,-0.16667 0,-0.35 0,-0.55c0,-0.16667 0,-0.33333 0,-0.5c0,-0.2 0,-0.38333 0,-0.55c0,-0.16667 0,-0.35 0,-0.55c0,-0.33333 0,-0.68333 0,-1.05c0,-0.36667 0,-0.73333 0,-1.1c0,-0.53333 0,-1.06667 0,-1.6c0,-0.16667 0,-0.33333 0,-0.5c0,-0.36667 0,-0.73333 0,-1.1c0.1,-0.16667 0.21667,-0.35 0.35,-0.55c0.03333,-0.16667 0.08333,-0.33333 0.15,-0.5c0.06667,-0.2 0.13333,-0.38333 0.2,-0.55c0,-0.16667 0,-0.35 0,-0.55c0,-0.16667 0,-0.33333 0,-0.5c0,-0.2 0,-0.38333 0,-0.55c0,-0.2 0,-0.38333 0,-0.55c0,-0.16667 0,-0.35 0,-0.55c0,-0.33333 0,-0.68333 0,-1.05c0,-0.16667 0,-0.35 0,-0.55c0,-0.53333 0,-1.06667 0,-1.6c0,-0.16667 0,-0.35 0,-0.55c0,-0.16667 0,-0.33333 0,-0.5c0,-0.2 0,-0.38333 0,-0.55c0.06667,-0.16667 0.11667,-0.35 0.15,-0.55c0.13333,-0.16667 0.26667,-0.33333 0.4,-0.5c0.03333,-0.2 0.08333,-0.38333 0.15,-0.55c0,-0.2 0,-0.38333 0,-0.55c0,-0.16667 0,-0.35 0,-0.55c0,-0.16667 0,-0.33333 0,-0.5c0,-0.2 0,-0.38333 0,-0.55c0,-0.16667 0,-0.35 0,-0.55c0,-0.16667 0,-0.33333 0,-0.5c0,-0.2 0,-0.38333 0,-0.55c0,-0.2 0,-0.38333 0,-0.55c0.06667,-0.16667 0.13333,-0.35 0.2,-0.55c0.1,-0.16667 0.21667,-0.33333 0.35,-0.5c0.06667,-0.2 0.11667,-0.38333 0.15,-0.55c0,-0.16667 0,-0.35 0,-0.55c0,-0.16667 0,-0.33333 0,-0.5c0,-0.2 0,-0.38333 0,-0.55c0,-0.2 0,-0.38333 0,-0.55c0,-0.16667 0,-0.35 0,-0.55c0,-0.16667 0,-0.33333 0,-0.5c0,-0.2 0,-0.38333 0,-0.55c0,-0.16667 0,-0.35 0,-0.55c0.13333,-0.16667 0.25,-0.33333 0.35,-0.5c0.13333,-0.2 0.26667,-0.38333 0.4,-0.55c0,-0.2 0,-0.38333 0,-0.55c0,-0.16667 0,-0.35 0,-0.55c0,-0.16667 0,-0.33333 0,-0.5c0,-0.2 0,-0.38333 0,-0.55c0,-0.16667 0,-0.35 0,-0.55c0,-0.16667 0,-0.33333 0,-0.5c0,-0.2 0,-0.38333 0,-0.55c0.1,-0.16667 0.21667,-0.35 0.35,-0.55c0.06667,-0.16667 0.11667,-0.35 0.15,-0.55c0.06667,-0.16667 0.13333,-0.33333 0.2,-0.5c0,-0.2 0,-0.38333 0,-0.55c0,-0.16667 0,-0.35 0,-0.55c0,-0.16667 0,-0.33333 0,-0.5c0,-0.2 0,-0.38333 0,-0.55c0,-0.16667 0,-0.35 0,-0.55c0,-0.16667 0,-0.35 0,-0.55c0,-0.16667 0,-0.33333 0,-0.5c0,-0.2 0,-0.38333 0,-0.55c0.1,-0.16667 0.21667,-0.35 0.35,-0.55c0.16667,-0.1 0.35,-0.21667 0.55,-0.35c0.06667,-0.06667 0.13333,-0.1 0.2,-0.1c0.26667,-0.1 0.55,-0.18333 0.85,-0.25c0.3,-0.13333 0.6,-0.25 0.9,-0.35c0.43333,-0.13333 0.85,-0.25 1.25,-0.35c1.73333,-0.13333 3.46667,-0.25 5.2,-0.35c0.4,-0.13333 0.81667,-0.26667 1.25,-0.4c3.63333,-0.1 7.25,-0.21667 10.85,-0.35c0.43333,-0.1 0.85,-0.21667 1.25,-0.35c1.26667,-0.1 2.51667,-0.21667 3.75,-0.35c0.43333,-0.13333 0.85,-0.25 1.25,-0.35c1.96667,-0.13333 3.93333,-0.25 5.9,-0.35c0.43333,-0.13333 0.85,-0.25 1.25,-0.35c1.03333,-0.13333 2.05,-0.26667 3.05,-0.4c0.4,-0.1 0.81667,-0.21667 1.25,-0.35c1.43333,0 2.86667,0 4.3,0c0.33333,0.13333 0.68333,0.25 1.05,0.35c0.16667,0.2 0.35,0.38333 0.55,0.55c0.06667,0.2 0.11667,0.38333 0.15,0.55c0.06667,0.16667 0.13333,0.35 0.2,0.55c0,0.16667 0,0.33333 0,0.5c0.13333,0.2 0.25,0.38333 0.35,0.55c0.06667,0.16667 0.13333,0.35 0.2,0.55c0.03333,0.16667 0.08333,0.33333 0.15,0.5c0,0.2 0,0.38333 0,0.55c0.13333,0.2 0.25,0.38333 0.35,0.55c0.06667,0.16667 0.13333,0.35 0.2,0.55c0.06667,0.16667 0.13333,0.33333 0.2,0.5c0,0.2 0,0.38333 0,0.55c0.1,0.16667 0.21667,0.35 0.35,0.55c0.03333,0.16667 0.08333,0.33333 0.15,0.5c0.06667,0.2 0.13333,0.38333 0.2,0.55c0,0.2 0,0.38333 0,0.55c0,0.16667 0,0.35 0,0.55c0.06667,0.16667 0.11667,0.33333 0.15,0.5c0.13333,0.2 0.26667,0.38333 0.4,0.55c0.03333,0.16667 0.08333,0.35 0.15,0.55c0,0.16667 0,0.33333 0,0.5c0,0.2 0,0.38333 0,0.55c0,0.2 0,0.38333 0,0.55c0,0.16667 0,0.35 0,0.55c0,0.16667 0,0.33333 0,0.5c0,0.2 0,0.38333 0,0.55c0,0.16667 0,0.35 0,0.55c0.06667,0 0.1,-0.01667 0.1,-0.05c0.1,-0.16667 0.18333,-0.33333 0.25,-0.5c0.06667,-0.16667 0.13333,-0.35 0.2,-0.55c0.1,-0.16667 0.21667,-0.33333 0.35,-0.5c0.06667,-0.2 0.13333,-0.38333 0.2,-0.55c0,-0.16667 0,-0.35 0,-0.55c0.1,-0.16667 0.21667,-0.35 0.35,-0.55c0.03333,-0.16667 0.08333,-0.33333 0.15,-0.5c0.06667,-0.2 0.13333,-0.38333 0.2,-0.55c0,-0.16667 0,-0.35 0,-0.55c0.1,-0.16667 0.21667,-0.33333 0.35,-0.5c0.06667,-0.2 0.13333,-0.38333 0.2,-0.55c0.03333,-0.16667 0.08333,-0.35 0.15,-0.55c0,-0.16667 0,-0.35 0,-0.55c0.13333,-0.16667 0.25,-0.33333 0.35,-0.5c0.13333,-0.2 0.25,-0.38333 0.35,-0.55c0.2,-0.16667 0.38333,-0.35 0.55,-0.55c0.06667,-0.16667 0.13333,-0.33333 0.2,-0.5c0,-0.2 0,-0.38333 0,-0.55c0.03333,-0.16667 0.08333,-0.35 0.15,-0.55c0.13333,-0.16667 0.25,-0.35 0.35,-0.55c0.06667,-0.16667 0.13333,-0.33333 0.2,-0.5c0.13333,-0.2 0.25,-0.38333 0.35,-0.55c0.13333,-0.16667 0.25,-0.35 0.35,-0.55c0.2,-0.16667 0.38333,-0.33333 0.55,-0.5c0.16667,-0.2 0.35,-0.38333 0.55,-0.55c0.16667,-0.16667 0.33333,-0.35 0.5,-0.55c0.2,-0.16667 0.38333,-0.35 0.55,-0.55c0.43333,-0.1 0.85,-0.21667 1.25,-0.35c5.3,-0.1 10.6,-0.21667 15.9,-0.35c0.4,-0.1 0.81667,-0.21667 1.25,-0.35c2.43333,-0.13333 4.86667,-0.25 7.3,-0.35c0.43333,-0.13333 0.85,-0.25 1.25,-0.35c3.33333,0 6.66667,0 10,0c0.36667,0.1 0.73333,0.21667 1.1,0.35c0.16667,0.1 0.33333,0.21667 0.5,0.35c0.3,0.13333 0.6,0.25 0.9,0.35c0.2,0.2 0.38333,0.38333 0.55,0.55c0.06667,0.16667 0.13333,0.35 0.2,0.55c0.03333,0.16667 0.08333,0.33333 0.15,0.5c0.13333,0.2 0.25,0.38333 0.35,0.55c0.13333,0.16667 0.25,0.35 0.35,0.55c0,0.16667 0,0.33333 0,0.5c0,0.2 0,0.38333 0,0.55c0,0.2 0,0.38333 0,0.55c0.13333,0.16667 0.26667,0.35 0.4,0.55c0.03333,0.16667 0.08333,0.33333 0.15,0.5c0.06667,0.2 0.13333,0.38333 0.2,0.55c0,0.16667 0,0.35 0,0.55c0,0.16667 0,0.33333 0,0.5c0.06667,0.2 0.11667,0.38333 0.15,0.55c0.13333,0.2 0.25,0.38333 0.35,0.55c0.06667,0.16667 0.13333,0.35 0.2,0.55c0,0.16667 0,0.33333 0,0.5c0,0.2 0,0.38333 0,0.55c0,0.16667 0,0.35 0,0.55c0,0.16667 0,0.33333 0,0.5c0,0.2 0,0.38333 0,0.55c0.06667,0.2 0.13333,0.38333 0.2,0.55c0.1,0.16667 0.21667,0.35 0.35,0.55c0.06667,0.16667 0.11667,0.33333 0.15,0.5c0,0.2 0,0.38333 0,0.55c0,0.16667 0,0.35 0,0.55c0,0.16667 0,0.33333 0,0.5c0.06667,0.2 0.13333,0.38333 0.2,0.55c0.06667,0.16667 0.11667,0.35 0.15,0.55c0.06667,0.16667 0.13333,0.35 0.2,0.55c0.06667,0.16667 0.13333,0.33333 0.2,0.5c0,0.2 0,0.38333 0,0.55c0.1,0.16667 0.21667,0.35 0.35,0.55c0.06667,0.16667 0.11667,0.33333 0.15,0.5c0.06667,0.2 0.13333,0.38333 0.2,0.55c0.1,0.16667 0.21667,0.35 0.35,0.55c0.13333,0.16667 0.25,0.35 0.35,0.55c0,0.16667 0,0.33333 0,0.5c0,0.2 0,0.38333 0,0.55c0.06667,0.16667 0.13333,0.35 0.2,0.55c0.06667,0.16667 0.11667,0.33333 0.15,0.5c0.06667,0.2 0.13333,0.38333 0.2,0.55c0.06667,0.16667 0.11667,0.35 0.15,0.55c0,0.16667 0,0.35 0,0.55c0.13333,0.16667 0.26667,0.33333 0.4,0.5c0.03333,0.2 0.08333,0.38333 0.15,0.55c0.06667,0.16667 0.13333,0.35 0.2,0.55c0,0.1 0,0.21667 0,0.35c0.23333,-0.06667 0.46667,-0.13333 0.7,-0.2c0.23333,-0.16667 0.46667,-0.33333 0.7,-0.5c0.13333,-0.2 0.25,-0.38333 0.35,-0.55c0.2,-0.2 0.38333,-0.38333 0.55,-0.55c0.16667,-0.16667 0.35,-0.35 0.55,-0.55c0.16667,-0.16667 0.35,-0.33333 0.55,-0.5c0.16667,-0.2 0.33333,-0.38333 0.5,-0.55c0.2,-0.16667 0.38333,-0.35 0.55,-0.55c0.16667,-0.16667 0.35,-0.33333 0.55,-0.5c0.16667,-0.2 0.33333,-0.38333 0.5,-0.55c0.2,-0.2 0.38333,-0.38333 0.55,-0.55c0.43333,-0.16667 0.85,-0.35 1.25,-0.55c0.16667,-0.1 0.35,-0.21667 0.55,-0.35c0.3,-0.1 0.6,-0.21667 0.9,-0.35c0.16667,-0.1 0.33333,-0.21667 0.5,-0.35c0.3,-0.13333 0.6,-0.25 0.9,-0.35c0.2,-0.13333 0.38333,-0.25 0.55,-0.35c0.3,-0.06667 0.6,-0.13333 0.9,-0.2c0.3,-0.1 0.6,-0.2 0.9,-0.3c0.4,-0.16667 0.81667,-0.3 1.25,-0.4c1,-0.13333 2,-0.25 3,-0.35c0,-0.2 0,-0.38333 0,-0.55c0,-0.16667 0,-0.35 0,-0.55c0,-0.16667 0,-0.33333 0,-0.5c0,-0.2 0,-0.38333 0,-0.55c0,-0.16667 0,-0.35 0,-0.55c0,-0.16667 0,-0.35 0,-0.55c0,-0.16667 0,-0.33333 0,-0.5c0,-0.2 0,-0.38333 0,-0.55c-0.03333,-0.16667 -0.08333,-0.35 -0.15,-0.55c-0.13333,-0.16667 -0.25,-0.33333 -0.35,-0.5c-0.06667,-0.2 -0.13333,-0.38333 -0.2,-0.55c0,-0.16667 0,-0.35 0,-0.55c0,-0.16667 0,-0.35 0,-0.55c0,-0.16667 0,-0.33333 0,-0.5c0,-0.2 0,-0.38333 0,-0.55c0,-0.16667 0,-0.35 0,-0.55c-0.06667,-0.16667 -0.11667,-0.33333 -0.15,-0.5c-0.13333,-0.2 -0.26667,-0.38333 -0.4,-0.55c-0.03333,-0.16667 -0.08333,-0.35 -0.15,-0.55c0,-0.16667 0,-0.35 0,-0.55c0,-0.16667 0,-0.33333 0,-0.5c-0.06667,-0.2 -0.13333,-0.38333 -0.2,-0.55c-0.06667,-0.16667 -0.11667,-0.35 -0.15,-0.55c-0.13333,-0.16667 -0.25,-0.33333 -0.35,-0.5c0,-0.2 0,-0.38333 0,-0.55c0,-0.16667 0,-0.35 0,-0.55c0,-0.16667 0,-0.35 0,-0.55c0,-0.16667 0,-0.33333 0,-0.5c0,-0.2 0,-0.38333 0,-0.55c0.1,-0.16667 0.21667,-0.35 0.35,-0.55c0.23333,-0.16667 0.46667,-0.33333 0.7,-0.5c0.13333,-0.2 0.25,-0.38333 0.35,-0.55c0.43333,-0.13333 0.85,-0.25 1.25,-0.35c0.53333,-0.13333 1.06667,-0.26667 1.6,-0.4c0.43333,-0.1 0.85,-0.21667 1.25,-0.35c4.3,0 8.58333,0 12.85,0c0.43333,0.13333 0.85,0.26667 1.25,0.4c3.16667,0.1 6.33333,0.21667 9.5,0.35c0.33333,0.1 0.68333,0.21667 1.05,0.35c1.3,0.1 2.61667,0.21667 3.95,0.35c0.33333,0.13333 0.68333,0.25 1.05,0.35c1.8,0.13333 3.58333,0.25 5.35,0.35c0.36667,0.13333 0.73333,0.25 1.1,0.35c1.53333,0.13333 3.06667,0.26667 4.6,0.4c0.36667,0.1 0.73333,0.21667 1.1,0.35c1.06667,0.1 2.13333,0.21667 3.2,0.35c0.36667,0.1 0.73333,0.21667 1.1,0.35c1.06667,0.13333 2.13333,0.25 3.2,0.35c0.36667,0.13333 0.71667,0.25 1.05,0.35c1.06667,0.13333 2.15,0.25 3.25,0.35c0.93333,0.26667 1.86667,0.53333 2.8,0.8c2.03333,0.66667 4.06667,1.23333 6.1,1.7c3.46667,0.83333 6.9,1.71667 10.3,2.65c1.83333,0.5 3.63333,1.05 5.4,1.65c0.2,0.13333 0.38333,0.25 0.55,0.35c0.3,0.13333 0.6,0.25 0.9,0.35c0.16667,0.13333 0.35,0.26667 0.55,0.4c0.3,0.1 0.6,0.21667 0.9,0.35c0.16667,0.1 0.33333,0.21667 0.5,0.35c0.3,0.1 0.6,0.21667 0.9,0.35c0.16667,0.13333 0.35,0.25 0.55,0.35c0.3,0.13333 0.6,0.25 0.9,0.35c0.16667,0.13333 0.33333,0.25 0.5,0.35c0.3,0.13333 0.6,0.26667 0.9,0.4c0.23333,0.16667 0.46667,0.33333 0.7,0.5c0.13333,0.13333 0.26667,0.25 0.4,0.35c0.03333,0.06667 0.1,0.11667 0.2,0.15c0.26667,0.16667 0.55,0.3 0.85,0.4c0.23333,0.16667 0.46667,0.35 0.7,0.55c0.2,0.16667 0.38333,0.35 0.55,0.55c0.16667,0.16667 0.35,0.33333 0.55,0.5c0.33333,0.2 0.68333,0.38333 1.05,0.55c0.23333,0.16667 0.46667,0.35 0.7,0.55c0.13333,0.16667 0.26667,0.33333 0.4,0.5c0.16667,0.2 0.33333,0.38333 0.5,0.55c0.23333,0.16667 0.48333,0.35 0.75,0.55c0.16667,0.16667 0.33333,0.35 0.5,0.55c0.13333,0.1 0.25,0.21667 0.35,0.35c0.06667,-0.06667 0.11667,-0.13333 0.15,-0.2c0.03333,-0.16667 0.05,-0.35 0.05,-0.55c0,-0.16667 0,-0.33333 0,-0.5c0,-0.2 0,-0.38333 0,-0.55c0,-0.16667 0,-0.35 0,-0.55c0,-0.16667 0,-0.33333 0,-0.5c0.13333,-0.2 0.25,-0.38333 0.35,-0.55c0.06667,-0.2 0.13333,-0.38333 0.2,-0.55c0.06667,-0.16667 0.11667,-0.35 0.15,-0.55c0,-0.16667 0,-0.33333 0,-0.5c0,-0.2 0,-0.38333 0,-0.55c0,-0.16667 0,-0.35 0,-0.55c0,-0.16667 0,-0.33333 0,-0.5c0,-0.2 0,-0.38333 0,-0.55c0,-0.16667 0,-0.35 0,-0.55c0.13333,-0.16667 0.25,-0.35 0.35,-0.55c0.06667,-0.16667 0.13333,-0.33333 0.2,-0.5c0.06667,-0.2 0.13333,-0.38333 0.2,-0.55c0,-0.16667 0,-0.35 0,-0.55c0.1,-0.16667 0.21667,-0.33333 0.35,-0.5c0.06667,-0.2 0.11667,-0.38333 0.15,-0.55c0.06667,-0.16667 0.13333,-0.35 0.2,-0.55c0.1,-0.16667 0.21667,-0.35 0.35,-0.55c0.13333,-0.16667 0.25,-0.33333 0.35,-0.5c0,-0.2 0,-0.38333 0,-0.55c0,-0.16667 0,-0.35 0,-0.55c0.13333,-0.16667 0.25,-0.33333 0.35,-0.5c0.23333,-0.2 0.48333,-0.38333 0.75,-0.55c0.1,-0.16667 0.21667,-0.35 0.35,-0.55c0.16667,-0.16667 0.33333,-0.35 0.5,-0.55c0.2,-0.1 0.38333,-0.21667 0.55,-0.35c0.3,-0.03333 0.6,-0.08333 0.9,-0.15c0.3,-0.13333 0.6,-0.25 0.9,-0.35c0.4,-0.13333 0.81667,-0.26667 1.25,-0.4c0.76667,-0.1 1.53333,-0.21667 2.3,-0.35c0.43333,-0.1 0.85,-0.2 1.25,-0.3c0.53333,-0.13333 1.06667,-0.26667 1.6,-0.4c0.43333,-0.13333 0.85,-0.25 1.25,-0.35c1.26667,-0.13333 2.51667,-0.25 3.75,-0.35c0.43333,-0.13333 0.85,-0.25 1.25,-0.35c5.5,0 10.98333,0 16.45,0c0.36667,0.1 0.73333,0.2 1.1,0.3c0.56667,0.13333 1.15,0.26667 1.75,0.4c0.43333,0.1 0.85,0.21667 1.25,0.35c5.3,0.13333 10.6,0.25 15.9,0.35c0.36667,0.13333 0.71667,0.25 1.05,0.35c1.06667,0.13333 2.15,0.25 3.25,0.35c0.33333,0.13333 0.68333,0.26667 1.05,0.4c0.83333,0.1 1.66667,0.21667 2.5,0.35c0.36667,0.1 0.71667,0.21667 1.05,0.35c0.13333,0.1 0.26667,0.21667 0.4,0.35c0.33333,0.13333 0.68333,0.25 1.05,0.35c0.16667,0.2 0.35,0.38333 0.55,0.55c0.16667,0.16667 0.33333,0.35 0.5,0.55c0.2,0.16667 0.38333,0.33333 0.55,0.5c0.2,0.2 0.38333,0.38333 0.55,0.55c0.16667,0.16667 0.35,0.35 0.55,0.55c0.03333,0.16667 0.08333,0.33333 0.15,0.5c0.06667,0.2 0.13333,0.38333 0.2,0.55c0.1,0.2 0.21667,0.38333 0.35,0.55c0.1,0.16667 0.21667,0.35 0.35,0.55c0,0.16667 0,0.33333 0,0.5c0,0.2 0,0.38333 0,0.55c0,0.16667 0,0.35 0,0.55c0.13333,0.16667 0.25,0.33333 0.35,0.5c0.06667,0.2 0.13333,0.38333 0.2,0.55c0.06667,0.2 0.11667,0.38333 0.15,0.55c0,0.16667 0,0.35 0,0.55c0,0.16667 0,0.33333 0,0.5c0,0.2 0,0.38333 0,0.55c0,0.36667 0,0.71667 0,1.05c0,0.36667 0,0.73333 0,1.1c0,0.53333 0,1.06667 0,1.6c0.03333,0.53333 0.05,1.06667 0.05,1.6c-0.03333,0.53333 -0.05,1.06667 -0.05,1.6c0,0.53333 0,1.06667 0,1.6c0,0.2 0,0.38333 0,0.55c-0.03333,0.16667 -0.08333,0.35 -0.15,0.55c-0.06667,0.16667 -0.13333,0.35 -0.2,0.55c-0.1,0.16667 -0.21667,0.33333 -0.35,0.5c0,0.2 0,0.38333 0,0.55c0,0.16667 0,0.35 0,0.55c0,0.16667 0,0.33333 0,0.5c0,0.2 0,0.38333 0,0.55c0,0.16667 0,0.35 0,0.55c0,0.16667 0,0.35 0,0.55c0,0.16667 0,0.33333 0,0.5c0,0.2 0,0.38333 0,0.55c-0.06667,0.16667 -0.13333,0.35 -0.2,0.55c-0.1,0.16667 -0.21667,0.33333 -0.35,0.5c-0.03333,0.2 -0.08333,0.38333 -0.15,0.55c-0.13333,0.16667 -0.25,0.35 -0.35,0.55c-0.13333,0.16667 -0.26667,0.35 -0.4,0.55c0,0.16667 0,0.33333 0,0.5c0,0.2 0,0.38333 0,0.55c0,0.16667 0,0.35 0,0.55c-0.03333,0.16667 -0.08333,0.33333 -0.15,0.5c-0.13333,0.2 -0.25,0.38333 -0.35,0.55c-0.06667,0.16667 -0.13333,0.35 -0.2,0.55c0,0.16667 0,0.35 0,0.55c0,0.16667 0,0.33333 0,0.5c0,0.2 0,0.38333 0,0.55c0,0.16667 0,0.35 0,0.55c0,0.16667 0,0.33333 0,0.5c-0.06667,0.2 -0.11667,0.38333 -0.15,0.55c-0.13333,0.16667 -0.26667,0.35 -0.4,0.55c-0.03333,0.16667 -0.08333,0.35 -0.15,0.55c-0.13333,0.16667 -0.25,0.33333 -0.35,0.5c-0.13333,0.2 -0.25,0.38333 -0.35,0.55c-0.13333,0.16667 -0.26667,0.35 -0.4,0.55c-0.16667,0.16667 -0.33333,0.33333 -0.5,0.5c-0.2,0.2 -0.38333,0.38333 -0.55,0.55c-0.16667,0.16667 -0.35,0.35 -0.55,0.55c-0.16667,0.16667 -0.33333,0.35 -0.5,0.55c-0.2,0.16667 -0.38333,0.33333 -0.55,0.5c-0.16667,0.2 -0.35,0.38333 -0.55,0.55c-0.16667,0.16667 -0.35,0.35 -0.55,0.55c-0.16667,0.16667 -0.33333,0.33333 -0.5,0.5c-0.2,0.13333 -0.38333,0.26667 -0.55,0.4c-0.06667,0.03333 -0.13333,0.06667 -0.2,0.1c-0.33333,0.16667 -0.68333,0.3 -1.05,0.4c-0.13333,0.13333 -0.25,0.25 -0.35,0.35c-0.3,0.13333 -0.6,0.26667 -0.9,0.4c0.06667,0.16667 0.13333,0.33333 0.2,0.5c0.1,0.2 0.21667,0.38333 0.35,0.55c0,0.16667 0,0.35 0,0.55c0,0.16667 0,0.33333 0,0.5c0,0.2 0,0.38333 0,0.55c0,0.16667 0,0.35 0,0.55c0.06667,0.16667 0.11667,0.33333 0.15,0.5c0.13333,0.2 0.25,0.38333 0.35,0.55c0.06667,0.2 0.13333,0.38333 0.2,0.55c0,0.16667 0,0.35 0,0.55c0,0.16667 0,0.33333 0,0.5c0,0.2 0,0.38333 0,0.55c0,0.16667 0,0.35 0,0.55c0,0.16667 0,0.33333 0,0.5c0.06667,0.2 0.13333,0.38333 0.2,0.55c0.1,0.2 0.21667,0.38333 0.35,0.55c0.06667,0.16667 0.11667,0.35 0.15,0.55c0,0.16667 0,0.33333 0,0.5c0.06667,0.2 0.13333,0.38333 0.2,0.55c0.1,0.16667 0.21667,0.35 0.35,0.55c0.06667,0.16667 0.13333,0.33333 0.2,0.5c0,0.2 0,0.38333 0,0.55c0,0.2 0,0.38333 0,0.55c0,0.16667 0,0.35 0,0.55c0,0.16667 0,0.33333 0,0.5c0,0.2 0,0.38333 0,0.55c0,0.16667 0,0.35 0,0.55c0,0.16667 0,0.33333 0,0.5c0,0.2 0,0.38333 0,0.55c0,0.2 0,0.38333 0,0.55c-0.13333,0.16667 -0.25,0.35 -0.35,0.55c-0.06667,0.1 -0.13333,0.21667 -0.2,0.35v0.1c2.6,0.1 5.21667,0.18333 7.85,0.25c0.36667,0.1 0.71667,0.21667 1.05,0.35c0.2,0.13333 0.38333,0.25 0.55,0.35c0.3,0.13333 0.6,0.25 0.9,0.35c0.16667,0.2 0.35,0.38333 0.55,0.55c0.16667,0.16667 0.33333,0.35 0.5,0.55c0.13333,0.16667 0.26667,0.33333 0.4,0.5c0.03333,0.2 0.08333,0.38333 0.15,0.55c0.13333,0.2 0.25,0.38333 0.35,0.55c0.06667,0.16667 0.13333,0.35 0.2,0.55c0.06667,0.16667 0.11667,0.33333 0.15,0.5c0.13333,0.2 0.26667,0.38333 0.4,0.55c0.1,0.16667 0.21667,0.35 0.35,0.55c0,0.16667 0,0.33333 0,0.5c0,0.2 0,0.38333 0,0.55c0.1,0.2 0.21667,0.38333 0.35,0.55c0.1,0.16667 0.21667,0.35 0.35,0.55c0,0.16667 0,0.33333 0,0.5c0,0.2 0,0.38333 0,0.55c0,0.16667 0,0.35 0,0.55c0,0.16667 0,0.33333 0,0.5c0.06667,0.2 0.13333,0.38333 0.2,0.55c0.1,0.2 0.21667,0.38333 0.35,0.55c0.06667,0.16667 0.11667,0.35 0.15,0.55c0,0.16667 0,0.33333 0,0.5c0,0.2 0,0.38333 0,0.55c0,0.16667 0,0.35 0,0.55c0,0.16667 0,0.33333 0,0.5c0,0.2 0,0.38333 0,0.55c0.06667,0.2 0.13333,0.38333 0.2,0.55c0.1,0.16667 0.21667,0.35 0.35,0.55c0.06667,0.16667 0.13333,0.33333 0.2,0.5c0,0.2 0,0.38333 0,0.55c0,0.16667 0,0.35 0,0.55c0,0.16667 0,0.33333 0,0.5c0.1,0.2 0.21667,0.38333 0.35,0.55c0.1,0.2 0.21667,0.38333 0.35,0.55c0,0.16667 0,0.35 0,0.55c0,0.16667 0,0.33333 0,0.5c0,0.2 0,0.38333 0,0.55c0,0.16667 0,0.35 0,0.55c0,0.16667 0,0.33333 0,0.5c0,0.2 0,0.38333 0,0.55c0,0.16667 0,0.35 0,0.55c0,0.16667 0,0.35 0,0.55c0,0.16667 0,0.33333 0,0.5c0,0.2 0,0.38333 0,0.55c-0.06667,0.16667 -0.13333,0.35 -0.2,0.55c-0.03333,0.16667 -0.08333,0.33333 -0.15,0.5c-0.13333,0.2 -0.25,0.38333 -0.35,0.55c0,0.16667 0,0.35 0,0.55c0,0.16667 0,0.35 0,0.55c0,0.16667 0,0.33333 0,0.5c0,0.2 0,0.38333 0,0.55c-0.06667,0.16667 -0.13333,0.35 -0.2,0.55c-0.13333,0.16667 -0.25,0.33333 -0.35,0.5c-0.06667,0.2 -0.13333,0.38333 -0.2,0.55c0,0.16667 0,0.35 0,0.55c0,0.16667 0,0.35 0,0.55c0,0.16667 0,0.33333 0,0.5c0,0.2 0,0.38333 0,0.55c-0.1,0.16667 -0.21667,0.35 -0.35,0.55c-0.1,0.16667 -0.21667,0.33333 -0.35,0.5c0,0.2 0,0.38333 0,0.55c0,0.16667 0,0.35 0,0.55c0,0.16667 0,0.35 0,0.55c0,0.16667 0,0.33333 0,0.5c-0.06667,0.2 -0.13333,0.38333 -0.2,0.55c-0.03333,0.16667 -0.08333,0.35 -0.15,0.55c-0.16667,0.16667 -0.35,0.33333 -0.55,0.5c-0.16667,0.2 -0.35,0.38333 -0.55,0.55c-0.16667,0.16667 -0.33333,0.35 -0.5,0.55c-0.13333,0.1 -0.25,0.21667 -0.35,0.35c-0.06667,0.06667 -0.13333,0.11667 -0.2,0.15c-0.36667,0.13333 -0.71667,0.26667 -1.05,0.4c-0.2,0.16667 -0.38333,0.33333 -0.55,0.5c-0.13333,0.13333 -0.25,0.26667 -0.35,0.4c-0.06667,0.03333 -0.13333,0.06667 -0.2,0.1c-0.3,0.1 -0.6,0.18333 -0.9,0.25c-0.33333,0.1 -0.68333,0.21667 -1.05,0.35c-0.36667,0.1 -0.73333,0.21667 -1.1,0.35c-0.33333,0.13333 -0.68333,0.25 -1.05,0.35c-0.7,0.23333 -1.41667,0.46667 -2.15,0.7c-0.36667,0.13333 -0.71667,0.26667 -1.05,0.4c-0.76667,0.1 -1.55,0.21667 -2.35,0.35c-0.4,0.1 -0.81667,0.21667 -1.25,0.35c-0.76667,0.1 -1.53333,0.23333 -2.3,0.4c-0.43333,0.1 -0.85,0.2 -1.25,0.3c-4.1,0.13333 -8.2,0.25 -12.3,0.35c-0.43333,0.13333 -0.85,0.25 -1.25,0.35c-7.86667,0 -15.73333,0 -23.6,0c-0.4,-0.1 -0.81667,-0.21667 -1.25,-0.35c-1,-0.1 -2.01667,-0.21667 -3.05,-0.35c-0.4,-0.1 -0.81667,-0.21667 -1.25,-0.35c-0.53333,-0.13333 -1.06667,-0.26667 -1.6,-0.4c-0.4,-0.1 -0.81667,-0.2 -1.25,-0.3c-0.93333,-0.23333 -1.88333,-0.48333 -2.85,-0.75c-0.93333,-0.23333 -1.88333,-0.46667 -2.85,-0.7c-0.13333,-0.16667 -0.25,-0.35 -0.35,-0.55c-0.23333,-0.16667 -0.46667,-0.33333 -0.7,-0.5c-0.2,-0.2 -0.38333,-0.38333 -0.55,-0.55c-0.16667,-0.16667 -0.35,-0.35 -0.55,-0.55c-0.1,-0.16667 -0.21667,-0.33333 -0.35,-0.5c-0.13333,-0.2 -0.25,-0.38333 -0.35,-0.55c0,-0.2 0,-0.38333 0,-0.55c-0.06667,-0.16667 -0.13333,-0.35 -0.2,-0.55c-0.03333,-0.16667 -0.08333,-0.33333 -0.15,-0.5c-0.13333,-0.2 -0.25,-0.38333 -0.35,-0.55c0,-0.16667 0,-0.35 0,-0.55c0,-0.16667 0,-0.33333 0,-0.5c0,-0.2 0,-0.38333 0,-0.55c-0.13333,-0.2 -0.26667,-0.38333 -0.4,-0.55c-0.1,-0.16667 -0.21667,-0.35 -0.35,-0.55c0,-0.16667 0,-0.33333 0,-0.5c0,-0.2 0,-0.38333 0,-0.55c-0.03333,-0.16667 -0.08333,-0.35 -0.15,-0.55c-0.06667,0.13333 -0.13333,0.25 -0.2,0.35c-0.06667,0.2 -0.11667,0.38333 -0.15,0.55c-0.13333,0.16667 -0.26667,0.35 -0.4,0.55c-0.16667,0.16667 -0.33333,0.35 -0.5,0.55c-0.13333,0.16667 -0.25,0.33333 -0.35,0.5c-0.2,0.2 -0.38333,0.38333 -0.55,0.55c-0.16667,0.16667 -0.35,0.35 -0.55,0.55c-0.16667,0.16667 -0.35,0.33333 -0.55,0.5c-0.16667,0.2 -0.33333,0.38333 -0.5,0.55c-0.23333,0.16667 -0.48333,0.35 -0.75,0.55c-0.16667,0.16667 -0.33333,0.35 -0.5,0.55c-0.2,0.16667 -0.38333,0.33333 -0.55,0.5c-0.16667,0.2 -0.35,0.38333 -0.55,0.55c-0.4,0.16667 -0.81667,0.35 -1.25,0.55c-0.1,0.1 -0.21667,0.21667 -0.35,0.35c-0.3,0.06667 -0.58333,0.13333 -0.85,0.2c-0.73333,0.23333 -1.46667,0.41667 -2.2,0.55c-1.33333,0.3 -2.65,0.65 -3.95,1.05c-2.23333,0.7 -4.48333,1.35 -6.75,1.95c-1.3,0.1 -2.6,0.21667 -3.9,0.35c-0.36667,0.13333 -0.73333,0.25 -1.1,0.35c-1.76667,0.13333 -3.55,0.25 -5.35,0.35c-0.36667,0.13333 -0.71667,0.25 -1.05,0.35c-1.56667,0.13333 -3.11667,0.26667 -4.65,0.4c-0.36667,0.1 -0.73333,0.21667 -1.1,0.35c-1.3,0.1 -2.6,0.21667 -3.9,0.35c-0.36667,0.1 -0.73333,0.21667 -1.1,0.35c-2,0.13333 -4.01667,0.25 -6.05,0.35c-0.36667,0.13333 -0.71667,0.25 -1.05,0.35c-2.26667,0.13333 -4.53333,0.25 -6.8,0.35c-0.36667,0.13333 -0.73333,0.26667 -1.1,0.4c-1.76667,0.1 -3.55,0.21667 -5.35,0.35c-0.33333,0.1 -0.68333,0.21667 -1.05,0.35c-3.8,0 -7.61667,0 -11.45,0c-0.4,-0.13333 -0.81667,-0.25 -1.25,-0.35c-1.46667,-0.13333 -2.95,-0.25 -4.45,-0.35c-0.4,-0.13333 -0.81667,-0.26667 -1.25,-0.4c-0.3,-0.1 -0.6,-0.2 -0.9,-0.3c-0.4,-0.13333 -0.81667,-0.26667 -1.25,-0.4c-0.1,-0.1 -0.21667,-0.21667 -0.35,-0.35c-0.36667,-0.13333 -0.71667,-0.25 -1.05,-0.35c-0.2,-0.2 -0.38333,-0.38333 -0.55,-0.55c-0.16667,-0.16667 -0.35,-0.35 -0.55,-0.55c-0.16667,-0.16667 -0.33333,-0.33333 -0.5,-0.5c-0.13333,-0.2 -0.26667,-0.38333 -0.4,-0.55c-0.16667,-0.16667 -0.33333,-0.35 -0.5,-0.55c-0.23333,-0.16667 -0.48333,-0.33333 -0.75,-0.5c-0.1,-0.2 -0.21667,-0.38333 -0.35,-0.55c-0.06667,-0.2 -0.11667,-0.38333 -0.15,-0.55c-0.06667,-0.16667 -0.13333,-0.35 -0.2,-0.55c-0.1,-0.16667 -0.21667,-0.33333 -0.35,-0.5c-0.06667,-0.2 -0.13333,-0.38333 -0.2,-0.55c-0.1,-0.16667 -0.21667,-0.35 -0.35,-0.55c-0.06667,-0.16667 -0.11667,-0.33333 -0.15,-0.5c-0.13333,-0.2 -0.25,-0.38333 -0.35,-0.55c-0.2,-0.2 -0.38333,-0.38333 -0.55,-0.55c-0.13333,-0.16667 -0.25,-0.35 -0.35,-0.55c-0.06667,-0.16667 -0.13333,-0.33333 -0.2,-0.5c0,-0.2 0,-0.38333 0,-0.55c0,-0.16667 0,-0.35 0,-0.55c-0.06667,-0.16667 -0.11667,-0.33333 -0.15,-0.5c-0.13333,-0.2 -0.26667,-0.38333 -0.4,-0.55c-0.03333,-0.2 -0.08333,-0.38333 -0.15,-0.55c0,-0.16667 0,-0.35 0,-0.55c-0.06667,-0.16667 -0.13333,-0.33333 -0.2,-0.5c-0.06667,-0.2 -0.11667,-0.38333 -0.15,-0.55c-0.13333,-0.16667 -0.25,-0.35 -0.35,-0.55c0,-0.16667 0,-0.33333 0,-0.5c0,-0.2 0,-0.38333 0,-0.55c-0.2,0 -0.38333,0 -0.55,0c-0.36667,0.1 -0.73333,0.21667 -1.1,0.35c-0.33333,0.13333 -0.68333,0.25 -1.05,0.35c-0.36667,0.13333 -0.71667,0.25 -1.05,0.35c-2.63333,0 -5.26667,0 -7.9,0c-0.3,0.06667 -0.58333,0.13333 -0.85,0.2c0.16667,0.16667 0.33333,0.35 0.5,0.55c0.2,0.16667 0.38333,0.33333 0.55,0.5c0.06667,0.2 0.13333,0.38333 0.2,0.55c0.03333,0.16667 0.08333,0.35 0.15,0.55c0,0.16667 0,0.33333 0,0.5c0.13333,0.2 0.25,0.38333 0.35,0.55c0.06667,0.16667 0.13333,0.35 0.2,0.55c0.06667,0.16667 0.11667,0.35 0.15,0.55c0.13333,0.16667 0.26667,0.33333 0.4,0.5c0.1,0.2 0.21667,0.38333 0.35,0.55c0.03333,0.16667 0.08333,0.35 0.15,0.55c0.13333,0.16667 0.25,0.33333 0.35,0.5c0.06667,0.2 0.13333,0.38333 0.2,0.55c0,0.16667 0,0.35 0,0.55c0,0.16667 0,0.35 0,0.55c0,0.16667 0,0.33333 0,0.5c0,0.2 0,0.38333 0,0.55c0,0.16667 0,0.35 0,0.55c0,0.16667 0,0.33333 0,0.5c0,0.2 0,0.38333 0,0.55c-0.06667,0.16667 -0.13333,0.35 -0.2,0.55c-0.03333,0.16667 -0.08333,0.35 -0.15,0.55c-0.2,0.16667 -0.38333,0.33333 -0.55,0.5c-0.4,0.2 -0.81667,0.38333 -1.25,0.55c-0.1,0.13333 -0.21667,0.25 -0.35,0.35c-0.36667,0.13333 -0.71667,0.25 -1.05,0.35c-0.13333,0.13333 -0.26667,0.25 -0.4,0.35c-0.3,0.06667 -0.58333,0.13333 -0.85,0.2c-0.6,0.13333 -1.2,0.26667 -1.8,0.4c-0.36667,0.1 -0.73333,0.2 -1.1,0.3c-1.3,0.13333 -2.6,0.25 -3.9,0.35c-0.36667,0.13333 -0.73333,0.26667 -1.1,0.4c-1.3,0.1 -2.6,0.21667 -3.9,0.35c-0.36667,0.1 -0.73333,0.21667 -1.1,0.35c-1.06667,0.1 -2.13333,0.21667 -3.2,0.35c-0.36667,0.13333 -0.71667,0.25 -1.05,0.35c-8.33333,0 -16.66667,0 -25,0c-0.43333,-0.1 -0.85,-0.21667 -1.25,-0.35c-1.5,-0.13333 -2.98333,-0.25 -4.45,-0.35c-0.43333,-0.13333 -0.85,-0.25 -1.25,-0.35c-0.13333,-0.2 -0.26667,-0.38333 -0.4,-0.55c-0.16667,-0.13333 -0.33333,-0.25 -0.5,-0.35c-0.06667,-0.06667 -0.13333,-0.11667 -0.2,-0.15c-0.36667,-0.13333 -0.71667,-0.26667 -1.05,-0.4c-0.13333,-0.16667 -0.25,-0.35 -0.35,-0.55c-0.26667,-0.16667 -0.51667,-0.33333 -0.75,-0.5c-0.1,-0.2 -0.21667,-0.38333 -0.35,-0.55c-0.06667,-0.16667 -0.11667,-0.35 -0.15,-0.55c-0.13333,-0.16667 -0.26667,-0.33333 -0.4,-0.5c-0.16667,-0.2 -0.33333,-0.38333 -0.5,-0.55c0,0.1 0,0.21667 0,0.35c0,0.16667 0,0.35 0,0.55c-0.06667,0.16667 -0.13333,0.33333 -0.2,0.5c-0.06667,0.2 -0.11667,0.38333 -0.15,0.55c-0.2,0.16667 -0.38333,0.35 -0.55,0.55c-0.2,0.16667 -0.38333,0.35 -0.55,0.55c-0.16667,0.16667 -0.35,0.33333 -0.55,0.5c-0.1,0.13333 -0.21667,0.25 -0.35,0.35c-0.06667,0.06667 -0.13333,0.11667 -0.2,0.15c-0.26667,0.1 -0.55,0.18333 -0.85,0.25c-0.46667,0 -0.95,0 -1.45,0c-0.4,-0.13333 -0.81667,-0.26667 -1.25,-0.4c-0.1,-0.1 -0.21667,-0.21667 -0.35,-0.35c-0.36667,-0.1 -0.71667,-0.21667 -1.05,-0.35c-0.2,-0.16667 -0.38333,-0.35 -0.55,-0.55c-0.13333,-0.1 -0.25,-0.21667 -0.35,-0.35c-0.06667,-0.06667 -0.13333,-0.1 -0.2,-0.1c-0.33333,-0.16667 -0.68333,-0.3 -1.05,-0.4c-0.2,-0.2 -0.38333,-0.38333 -0.55,-0.55c-0.16667,-0.2 -0.35,-0.38333 -0.55,-0.55c-0.16667,-0.16667 -0.33333,-0.35 -0.5,-0.55c-0.06667,0.13333 -0.13333,0.26667 -0.2,0.4c0,0.16667 0,0.33333 0,0.5c-0.06667,0.2 -0.11667,0.38333 -0.15,0.55c-0.13333,0.16667 -0.26667,0.35 -0.4,0.55c-0.1,0.16667 -0.21667,0.33333 -0.35,0.5c-0.23333,0.2 -0.46667,0.38333 -0.7,0.55c-0.36667,0.13333 -0.71667,0.25 -1.05,0.35c-0.36667,0.13333 -0.73333,0.25 -1.1,0.35c-0.36667,0.13333 -0.73333,0.25 -1.1,0.35c-0.56667,0.13333 -1.15,0.26667 -1.75,0.4c-0.36667,0.1 -0.71667,0.21667 -1.05,0.35c-1.1,0.1 -2.18333,0.21667 -3.25,0.35c-0.33333,0.13333 -0.68333,0.25 -1.05,0.35c-1.8,0.13333 -3.58333,0.25 -5.35,0.35c-0.36667,0.13333 -0.73333,0.25 -1.1,0.35c-2,0.13333 -4.01667,0.26667 -6.05,0.4c-0.36667,0.1 -0.73333,0.21667 -1.1,0.35c-5,0 -10,0 -15,0c-0.4,-0.13333 -0.8,-0.26667 -1.2,-0.4c-0.3,-0.1 -0.61667,-0.2 -0.95,-0.3c-0.4,-0.13333 -0.8,-0.26667 -1.2,-0.4c-0.13333,-0.16667 -0.26667,-0.33333 -0.4,-0.5c-0.23333,-0.2 -0.46667,-0.38333 -0.7,-0.55c-0.16667,-0.2 -0.33333,-0.38333 -0.5,-0.55c-0.2,-0.16667 -0.38333,-0.35 -0.55,-0.55c-0.13333,-0.16667 -0.25,-0.33333 -0.35,-0.5c-0.13333,-0.2 -0.25,-0.38333 -0.35,-0.55c-0.06667,-0.16667 -0.13333,-0.35 -0.2,-0.55c-0.13333,-0.16667 -0.25,-0.33333 -0.35,-0.5c-0.06667,-0.2 -0.13333,-0.38333 -0.2,-0.55c-0.1,-0.2 -0.21667,-0.38333 -0.35,-0.55c-0.1,-0.16667 -0.21667,-0.35 -0.35,-0.55c0,-0.16667 0,-0.33333 0,-0.5c0,-0.2 0,-0.38333 0,-0.55c-0.13333,-0.16667 -0.25,-0.35 -0.35,-0.55c-0.13333,-0.16667 -0.25,-0.33333 -0.35,-0.5c0,-0.2 0,-0.38333 0,-0.55c0,-0.2 0,-0.38333 0,-0.55c0,-0.16667 0,-0.35 0,-0.55c-0.06667,-0.16667 -0.13333,-0.33333 -0.2,-0.5c-0.1,-0.2 -0.21667,-0.38333 -0.35,-0.55c-0.06667,-0.16667 -0.13333,-0.35 -0.2,-0.55c0,-0.16667 0,-0.33333 0,-0.5c0,-0.2 0,-0.38333 0,-0.55c-0.03333,-0.2 -0.08333,-0.38333 -0.15,-0.55c-0.06667,-0.16667 -0.13333,-0.35 -0.2,-0.55c-0.1,-0.16667 -0.21667,-0.33333 -0.35,-0.5c-0.06667,-0.2 -0.11667,-0.38333 -0.15,-0.55c-0.13333,-0.16667 -0.26667,-0.35 -0.4,-0.55c-0.03333,-0.16667 -0.08333,-0.33333 -0.15,-0.5c0,-0.2 0,-0.38333 0,-0.55c0,-0.2 0,-0.38333 0,-0.55c-0.06667,-0.16667 -0.13333,-0.35 -0.2,-0.55c-0.06667,-0.16667 -0.11667,-0.33333 -0.15,-0.5c-0.13333,-0.2 -0.25,-0.38333 -0.35,-0.55c0,-0.16667 0,-0.35 0,-0.55c0,-0.16667 0,-0.33333 0,-0.5c-0.06667,-0.2 -0.13333,-0.38333 -0.2,-0.55c-0.06667,-0.2 -0.13333,-0.38333 -0.2,-0.55c-0.1,-0.16667 -0.21667,-0.35 -0.35,-0.55c-0.06667,-0.16667 -0.11667,-0.33333 -0.15,-0.5c-0.06667,-0.2 -0.13333,-0.38333 -0.2,-0.55c-0.1,-0.16667 -0.21667,-0.35 -0.35,-0.55c0,-0.16667 0,-0.33333 0,-0.5c0,-0.2 0,-0.38333 0,-0.55c0,-0.2 0,-0.38333 0,-0.55c0,-0.16667 0,-0.35 0,-0.55c0,-0.16667 0,-0.33333 0,-0.5c-0.06667,-0.2 -0.13333,-0.38333 -0.2,-0.55c-0.03333,-0.16667 -0.08333,-0.35 -0.15,-0.55c-0.13333,-0.16667 -0.25,-0.33333 -0.35,-0.5c0,-0.2 0,-0.38333 0,-0.55c0,-0.2 0,-0.38333 0,-0.55c0,-0.16667 0,-0.35 0,-0.55c0,-0.16667 0,-0.33333 0,-0.5c0,-0.2 0,-0.38333 0,-0.55c0,-0.16667 0,-0.35 0,-0.55c0,-0.16667 0,-0.33333 0,-0.5c0,-0.2 0,-0.38333 0,-0.55c0,-0.16667 0,-0.35 0,-0.55c0,-0.3 0,-0.6 0,-0.9c-0.06667,0 -0.13333,0 -0.2,0c-1.53333,0.13333 -3.08333,0.25 -4.65,0.35c-0.33333,0.13333 -0.68333,0.26667 -1.05,0.4c-2.03333,0.1 -4.06667,0.21667 -6.1,0.35c-0.33333,0.1 -0.68333,0.2 -1.05,0.3c-0.6,0.13333 -1.2,0.28333 -1.8,0.45c-0.33333,0.1 -0.68333,0.2 -1.05,0.3c-0.36667,0.13333 -0.73333,0.25 -1.1,0.35c-0.16667,0.2 -0.33333,0.38333 -0.5,0.55c-0.2,0.16667 -0.38333,0.35 -0.55,0.55c-0.06667,0.16667 -0.13333,0.33333 -0.2,0.5c0,0.2 0,0.38333 0,0.55c0,0.16667 0,0.35 0,0.55c0,0.16667 0,0.35 0,0.55c0,0.16667 0,0.33333 0,0.5c0,0.2 0,0.38333 0,0.55c0,0.16667 0,0.35 0,0.55c0,0.16667 0,0.33333 0,0.5c0,0.2 0,0.38333 0,0.55c0.06667,0.16667 0.13333,0.35 0.2,0.55c0.13333,0.16667 0.25,0.35 0.35,0.55c0.06667,0.16667 0.13333,0.33333 0.2,0.5c0,0.2 0,0.38333 0,0.55c0,0.16667 0,0.35 0,0.55c0,0.16667 0,0.33333 0,0.5c0,0.2 0,0.38333 0,0.55c0,0.16667 0,0.35 0,0.55c0,0.36667 0,0.71667 0,1.05c0,0.2 0,0.38333 0,0.55c0,0.53333 0,1.06667 0,1.6c0,0.16667 0,0.35 0,0.55c0,0.16667 0,0.35 0,0.55c0.03333,0.16667 0.08333,0.33333 0.15,0.5c0.13333,0.2 0.25,0.38333 0.35,0.55c0.06667,0.16667 0.13333,0.35 0.2,0.55c0,0.16667 0,0.33333 0,0.5c0,0.2 0,0.38333 0,0.55c0,0.16667 0,0.35 0,0.55c0,0.16667 0,0.35 0,0.55c0,0.16667 0,0.33333 0,0.5c0,0.2 0,0.38333 0,0.55c0,0.16667 0,0.35 0,0.55c0,0.16667 0,0.33333 0,0.5c0,0.36667 0,0.73333 0,1.1c0,0.16667 0,0.35 0,0.55c-0.06667,0.16667 -0.13333,0.33333 -0.2,0.5c-0.03333,0.2 -0.08333,0.38333 -0.15,0.55c-0.13333,0.16667 -0.25,0.35 -0.35,0.55c-0.06667,0.16667 -0.13333,0.33333 -0.2,0.5c-0.1,0.2 -0.21667,0.38333 -0.35,0.55c-0.16667,0.16667 -0.35,0.35 -0.55,0.55c-0.16667,0.16667 -0.33333,0.35 -0.5,0.55c-0.36667,0.1 -0.73333,0.21667 -1.1,0.35c-0.7,0.23333 -1.4,0.48333 -2.1,0.75c-1.3,0.46667 -2.61667,0.85 -3.95,1.15c-2.26667,0.5 -4.53333,1.05 -6.8,1.65c-3.1,0 -6.2,0 -9.3,0c-0.4,-0.1 -0.81667,-0.21667 -1.25,-0.35c-0.53333,-0.13333 -1.06667,-0.26667 -1.6,-0.4c-0.4,-0.1 -0.81667,-0.2 -1.25,-0.3c-0.06667,-0.13333 -0.11667,-0.25 -0.15,-0.35c-0.43333,-0.13333 -0.85,-0.26667 -1.25,-0.4c-0.13333,-0.16667 -0.26667,-0.33333 -0.4,-0.5c-0.23333,-0.2 -0.46667,-0.38333 -0.7,-0.55c-0.16667,-0.16667 -0.35,-0.35 -0.55,-0.55c-0.16667,-0.16667 -0.33333,-0.33333 -0.5,-0.5c-0.13333,-0.2 -0.25,-0.38333 -0.35,-0.55c-0.13333,-0.2 -0.26667,-0.38333 -0.4,-0.55c0,-0.16667 0,-0.35 0,-0.55c-0.03333,-0.16667 -0.08333,-0.33333 -0.15,-0.5c-0.06667,-0.2 -0.13333,-0.38333 -0.2,-0.55c-0.1,-0.16667 -0.21667,-0.35 -0.35,-0.55c-0.1,0.13333 -0.21667,0.25 -0.35,0.35c-0.16667,0.2 -0.35,0.38333 -0.55,0.55c-0.16667,0.16667 -0.33333,0.35 -0.5,0.55c-0.13333,0.16667 -0.26667,0.35 -0.4,0.55c-0.1,0.16667 -0.21667,0.33333 -0.35,0.5c-0.1,0.2 -0.21667,0.38333 -0.35,0.55c-0.1,0.13333 -0.21667,0.25 -0.35,0.35c-0.36667,0.13333 -0.71667,0.25 -1.05,0.35c-0.2,0.2 -0.38333,0.38333 -0.55,0.55c-0.13333,0.13333 -0.25,0.25 -0.35,0.35c-0.06667,0.06667 -0.13333,0.11667 -0.2,0.15c-0.36667,0.13333 -0.71667,0.26667 -1.05,0.4c-0.13333,0.1 -0.25,0.21667 -0.35,0.35c-0.36667,0.13333 -0.73333,0.25 -1.1,0.35c-0.1,0.13333 -0.21667,0.25 -0.35,0.35c-0.36667,0.13333 -0.71667,0.25 -1.05,0.35c-0.13333,0.13333 -0.25,0.26667 -0.35,0.4c-0.36667,0.1 -0.73333,0.21667 -1.1,0.35c-0.1,0.1 -0.21667,0.21667 -0.35,0.35c-0.3,0.06667 -0.6,0.13333 -0.9,0.2c-0.36667,0.1 -0.71667,0.21667 -1.05,0.35c-0.36667,0.1 -0.73333,0.21667 -1.1,0.35c-0.33333,0.1 -0.68333,0.21667 -1.05,0.35c-0.43333,0.16667 -0.85,0.35 -1.25,0.55c-0.13333,0.1 -0.25,0.21667 -0.35,0.35c-0.3,0.03333 -0.6,0.1 -0.9,0.2c-0.36667,0.1 -0.73333,0.2 -1.1,0.3c-0.33333,0.13333 -0.68333,0.26667 -1.05,0.4c-0.83333,0.1 -1.66667,0.21667 -2.5,0.35c-0.36667,0.1 -0.71667,0.21667 -1.05,0.35c-0.5,0 -0.98333,0 -1.45,0c-0.43333,-0.13333 -0.85,-0.25 -1.25,-0.35c-0.53333,-0.13333 -1.06667,-0.26667 -1.6,-0.4c-0.43333,-0.1 -0.85,-0.21667 -1.25,-0.35c-0.13333,-0.16667 -0.25,-0.33333 -0.35,-0.5c-0.23333,-0.2 -0.48333,-0.38333 -0.75,-0.55c-0.16667,-0.16667 -0.33333,-0.35 -0.5,-0.55c-0.2,-0.16667 -0.38333,-0.33333 -0.55,-0.5c-0.16667,-0.2 -0.35,-0.38333 -0.55,-0.55c-0.16667,-0.2 -0.33333,-0.38333 -0.5,-0.55c-0.2,-0.16667 -0.38333,-0.35 -0.55,-0.55c-0.43333,-0.16667 -0.85,-0.33333 -1.25,-0.5c-0.2,-0.2 -0.38333,-0.38333 -0.55,-0.55c-0.16667,-0.16667 -0.35,-0.35 -0.55,-0.55c-0.16667,-0.16667 -0.33333,-0.33333 -0.5,-0.5c-0.13333,-0.2 -0.25,-0.38333 -0.35,-0.55c-0.06667,-0.2 -0.13333,-0.38333 -0.2,-0.55c-0.13333,-0.16667 -0.25,-0.35 -0.35,-0.55c-0.2,-0.16667 -0.38333,-0.33333 -0.55,-0.5c-0.16667,-0.2 -0.35,-0.38333 -0.55,-0.55c-0.16667,-0.16667 -0.33333,-0.35 -0.5,-0.55c-0.2,-0.16667 -0.38333,-0.33333 -0.55,-0.5c-0.16667,-0.2 -0.35,-0.38333 -0.55,-0.55c-0.1,-0.2 -0.21667,-0.38333 -0.35,-0.55c-0.1,-0.16667 -0.21667,-0.35 -0.35,-0.55c-0.06667,-0.16667 -0.13333,-0.33333 -0.2,-0.5c-0.16667,-0.2 -0.33333,-0.38333 -0.5,-0.55c-0.2,-0.16667 -0.38333,-0.35 -0.55,-0.55c-0.16667,-0.16667 -0.35,-0.33333 -0.55,-0.5c-0.16667,-0.2 -0.33333,-0.38333 -0.5,-0.55c-0.13333,-0.2 -0.26667,-0.38333 -0.4,-0.55c-0.03333,-0.16667 -0.08333,-0.35 -0.15,-0.55c-0.13333,-0.16667 -0.25,-0.33333 -0.35,-0.5c-0.2,-0.2 -0.38333,-0.38333 -0.55,-0.55c-0.16667,-0.16667 -0.35,-0.35 -0.55,-0.55c-0.1,-0.16667 -0.21667,-0.33333 -0.35,-0.5c-0.06667,-0.2 -0.11667,-0.38333 -0.15,-0.55c-0.13333,-0.13333 -0.26667,-0.25 -0.4,-0.35c0,0.16667 0,0.33333 0,0.5c0,0.2 0,0.38333 0,0.55c0,0.16667 0,0.35 0,0.55c0,0.16667 0,0.35 0,0.55c0,0.16667 0,0.33333 0,0.5c0,0.2 0,0.38333 0,0.55c0,0.16667 0,0.35 0,0.55c0,0.16667 0,0.33333 0,0.5c0,0.36667 0,0.73333 0,1.1c0,0.36667 0,0.71667 0,1.05c0.13333,0.2 0.26667,0.38333 0.4,0.55c0.1,0.16667 0.21667,0.35 0.35,0.55c0,0.16667 0,0.33333 0,0.5c0,0.2 0,0.38333 0,0.55c0,0.16667 0,0.35 0,0.55c0,0.16667 0,0.35 0,0.55c0,0.16667 0,0.33333 0,0.5c0,0.2 0,0.38333 0,0.55c0,0.16667 0,0.35 0,0.55c0,0.16667 0,0.33333 0,0.5c0,0.2 0,0.38333 0,0.55c-0.06667,0.16667 -0.13333,0.35 -0.2,0.55c-0.1,0.16667 -0.21667,0.35 -0.35,0.55c-0.13333,0.1 -0.25,0.21667 -0.35,0.35c-0.06667,0.03333 -0.13333,0.06667 -0.2,0.1c-0.33333,0.16667 -0.68333,0.3 -1.05,0.4c-0.13333,0.13333 -0.25,0.26667 -0.35,0.4c-0.3,0.03333 -0.6,0.08333 -0.9,0.15c-0.83333,0.13333 -1.66667,0.25 -2.5,0.35c-0.36667,0.13333 -0.73333,0.25 -1.1,0.35c-0.83333,0.13333 -1.66667,0.26667 -2.5,0.4c-0.33333,0.1 -0.68333,0.21667 -1.05,0.35c-1.06667,0.1 -2.13333,0.21667 -3.2,0.35c-0.36667,0.1 -0.73333,0.21667 -1.1,0.35c-1.53333,0.13333 -3.08333,0.25 -4.65,0.35c-0.33333,0.13333 -0.68333,0.25 -1.05,0.35c-4.03333,0 -8.08333,0 -12.15,0c-0.4,-0.1 -0.81667,-0.21667 -1.25,-0.35c-0.1,-0.1 -0.21667,-0.21667 -0.35,-0.35c-0.36667,-0.13333 -0.71667,-0.25 -1.05,-0.35c-0.13333,-0.2 -0.25,-0.38333 -0.35,-0.55c-0.26667,-0.16667 -0.51667,-0.35 -0.75,-0.55c-0.1,-0.16667 -0.21667,-0.33333 -0.35,-0.5c-0.06667,-0.2 -0.11667,-0.38333 -0.15,-0.55c-0.13333,-0.16667 -0.26667,-0.35 -0.4,-0.55c-0.16667,-0.16667 -0.33333,-0.33333 -0.5,-0.5c-0.13333,-0.2 -0.25,-0.38333 -0.35,-0.55c-0.06667,-0.2 -0.13333,-0.38333 -0.2,-0.55c-0.06667,-0.16667 -0.13333,-0.35 -0.2,-0.55c-0.1,-0.16667 -0.21667,-0.33333 -0.35,-0.5c0,-0.2 0,-0.38333 0,-0.55c-0.06667,-0.16667 -0.11667,-0.35 -0.15,-0.55c-0.06667,-0.16667 -0.13333,-0.33333 -0.2,-0.5c-0.1,-0.2 -0.21667,-0.38333 -0.35,-0.55c0,-0.2 0,-0.38333 0,-0.55c-0.06667,-0.16667 -0.13333,-0.35 -0.2,-0.55c-0.03333,-0.16667 -0.08333,-0.33333 -0.15,-0.5c-0.13333,-0.2 -0.25,-0.38333 -0.35,-0.55c0,-0.16667 0,-0.35 0,-0.55c0,-0.16667 0,-0.33333 0,-0.5c0,-0.2 0,-0.38333 0,-0.55c0,-0.2 0,-0.38333 0,-0.55c-0.06667,-0.16667 -0.13333,-0.35 -0.2,-0.55c-0.1,-0.16667 -0.21667,-0.33333 -0.35,-0.5c-0.06667,-0.2 -0.13333,-0.38333 -0.2,-0.55c0,-0.16667 0,-0.35 0,-0.55c0,-0.16667 0,-0.33333 0,-0.5c0,-0.2 0,-0.38333 0,-0.55c-0.16667,0 -0.33333,0 -0.5,0c-0.2,0.16667 -0.38333,0.35 -0.55,0.55c-0.13333,0.16667 -0.25,0.33333 -0.35,0.5c-0.2,0.2 -0.38333,0.38333 -0.55,0.55c-0.23333,0.16667 -0.46667,0.35 -0.7,0.55c-0.2,0.16667 -0.38333,0.33333 -0.55,0.5c-0.16667,0.2 -0.35,0.38333 -0.55,0.55c-0.16667,0.16667 -0.33333,0.35 -0.5,0.55c-0.2,0.16667 -0.38333,0.35 -0.55,0.55c-0.16667,0.16667 -0.35,0.33333 -0.55,0.5c-0.1,0.13333 -0.21667,0.25 -0.35,0.35c-0.3,0.13333 -0.6,0.26667 -0.9,0.4c-0.16667,0.16667 -0.33333,0.33333 -0.5,0.5c-0.26667,0.2 -0.51667,0.38333 -0.75,0.55c-0.16667,0.16667 -0.33333,0.35 -0.5,0.55c-0.2,0.16667 -0.38333,0.33333 -0.55,0.5c-0.2,0.2 -0.38333,0.38333 -0.55,0.55c-0.1,0.13333 -0.21667,0.25 -0.35,0.35c-0.06667,0.06667 -0.13333,0.11667 -0.2,0.15c-0.33333,0.13333 -0.68333,0.26667 -1.05,0.4c-0.13333,0.13333 -0.25,0.25 -0.35,0.35c-0.3,0.06667 -0.6,0.13333 -0.9,0.2c-0.36667,0.1 -0.71667,0.21667 -1.05,0.35c-0.43333,0.16667 -0.85,0.35 -1.25,0.55c-0.13333,0.1 -0.26667,0.21667 -0.4,0.35c-0.3,0.03333 -0.58333,0.08333 -0.85,0.15c-0.6,0.13333 -1.2,0.26667 -1.8,0.4c-0.36667,0.1 -0.73333,0.21667 -1.1,0.35c-3.33333,0 -6.66667,0 -10,0c-0.4,-0.13333 -0.81667,-0.25 -1.25,-0.35c-0.53333,-0.13333 -1.06667,-0.26667 -1.6,-0.4c-0.4,-0.1 -0.81667,-0.21667 -1.25,-0.35c-0.1,-0.1 -0.21667,-0.21667 -0.35,-0.35c-0.36667,-0.13333 -0.71667,-0.25 -1.05,-0.35c-0.3,-0.13333 -0.6,-0.25 -0.9,-0.35c-0.43333,-0.13333 -0.85,-0.25 -1.25,-0.35c-0.16667,-0.2 -0.35,-0.38333 -0.55,-0.55c-0.1,-0.13333 -0.21667,-0.25 -0.35,-0.35c-0.06667,-0.06667 -0.13333,-0.11667 -0.2,-0.15c-0.33333,-0.13333 -0.68333,-0.26667 -1.05,-0.4c-0.16667,-0.16667 -0.35,-0.35 -0.55,-0.55c-0.1,-0.1 -0.21667,-0.21667 -0.35,-0.35c-0.06667,-0.06667 -0.13333,-0.11667 -0.2,-0.15c-0.33333,-0.13333 -0.68333,-0.26667 -1.05,-0.4c-0.16667,-0.16667 -0.35,-0.33333 -0.55,-0.5c-0.1,-0.13333 -0.21667,-0.25 -0.35,-0.35c-0.03333,-0.06667 -0.1,-0.11667 -0.2,-0.15c-0.33333,-0.16667 -0.68333,-0.3 -1.05,-0.4c-0.1,-0.2 -0.21667,-0.38333 -0.35,-0.55c-0.23333,-0.16667 -0.46667,-0.35 -0.7,-0.55c-0.16667,-0.16667 -0.35,-0.33333 -0.55,-0.5c-0.16667,-0.2 -0.35,-0.38333 -0.55,-0.55c-0.1,-0.16667 -0.21667,-0.35 -0.35,-0.55c-0.23333,-0.16667 -0.46667,-0.33333 -0.7,-0.5c-0.13333,-0.2 -0.25,-0.38333 -0.35,-0.55c-0.06667,-0.2 -0.13333,-0.38333 -0.2,-0.55c-0.03333,-0.16667 -0.08333,-0.35 -0.15,-0.55c-0.23333,-0.16667 -0.48333,-0.33333 -0.75,-0.5c0,0.1 0,0.21667 0,0.35c0,0.16667 0,0.35 0,0.55c0,0.16667 0,0.33333 0,0.5c0,0.36667 0,0.73333 0,1.1c0,0.33333 0,0.68333 0,1.05c0,0.36667 0,0.73333 0,1.1c0,0.53333 0,1.06667 0,1.6c0,0.33333 0,0.68333 0,1.05c0,0.53333 0,1.06667 0,1.6c0,0.36667 0,0.73333 0,1.1c0,0.16667 0,0.33333 0,0.5c-0.1,0.2 -0.21667,0.38333 -0.35,0.55c-0.1,0.16667 -0.21667,0.35 -0.35,0.55c-0.1,0.16667 -0.21667,0.35 -0.35,0.55c-0.16667,0.1 -0.35,0.21667 -0.55,0.35c-0.03333,0.03333 -0.1,0.06667 -0.2,0.1c-0.26667,0.1 -0.55,0.18333 -0.85,0.25c-5.13333,0.1 -10.25,0.21667 -15.35,0.35c-0.36667,0.13333 -0.73333,0.25 -1.1,0.35c-3.2,0.13333 -6.4,0.25 -9.6,0.35c-0.36667,0.13333 -0.73333,0.25 -1.1,0.35c-1.3,0.13333 -2.6,0.26667 -3.9,0.4c-0.36667,0.1 -0.73333,0.2 -1.1,0.3c-0.6,0.13333 -1.18333,0.28333 -1.75,0.45c-0.36667,0.06667 -0.73333,0.16667 -1.1,0.3c-0.96667,0 -1.91667,0 -2.85,0c-0.43333,-0.13333 -0.85,-0.25 -1.25,-0.35c-0.13333,-0.13333 -0.25,-0.25 -0.35,-0.35c-0.36667,-0.13333 -0.73333,-0.25 -1.1,-0.35c-0.1,-0.2 -0.21667,-0.38333 -0.35,-0.55c-0.1,-0.2 -0.21667,-0.38333 -0.35,-0.55c0,-0.16667 0,-0.35 0,-0.55c-0.06667,-0.16667 -0.13333,-0.33333 -0.2,-0.5c-0.03333,-0.2 -0.08333,-0.38333 -0.15,-0.55c-0.13333,-0.16667 -0.25,-0.35 -0.35,-0.55c0,-0.16667 0,-0.33333 0,-0.5c0,-0.2 0,-0.38333 0,-0.55c0,-0.2 0,-0.38333 0,-0.55c0,-0.16667 0,-0.35 0,-0.55c-0.06667,-0.16667 -0.13333,-0.33333 -0.2,-0.5c-0.1,-0.2 -0.21667,-0.38333 -0.35,-0.55c-0.06667,-0.16667 -0.13333,-0.35 -0.2,-0.55c0,-0.16667 0,-0.33333 0,-0.5c0,-0.2 0,-0.38333 0,-0.55c0,-0.2 0,-0.38333 0,-0.55c0,-0.16667 0,-0.35 0,-0.55c0,-0.16667 0,-0.33333 0,-0.5c0,-0.2 0,-0.38333 0,-0.55c0,-0.16667 0,-0.35 0,-0.55c0,-0.16667 0,-0.33333 0,-0.5c0,-0.2 0,-0.38333 0,-0.55c0,-0.2 0,-0.38333 0,-0.55c-0.1,0 -0.21667,0 -0.35,0c-0.06667,0.16667 -0.11667,0.35 -0.15,0.55c-0.06667,0.16667 -0.13333,0.35 -0.2,0.55c-0.1,0.16667 -0.21667,0.33333 -0.35,0.5c-0.06667,0.2 -0.13333,0.38333 -0.2,0.55c-0.1,0.16667 -0.21667,0.35 -0.35,0.55c-0.06667,0.16667 -0.11667,0.33333 -0.15,0.5c-0.13333,0.2 -0.25,0.38333 -0.35,0.55c-0.13333,0.16667 -0.26667,0.35 -0.4,0.55c-0.1,0.16667 -0.21667,0.35 -0.35,0.55c-0.1,0.16667 -0.21667,0.33333 -0.35,0.5c-0.1,0.2 -0.21667,0.38333 -0.35,0.55c-0.13333,0.16667 -0.25,0.35 -0.35,0.55c-0.13333,0.16667 -0.25,0.33333 -0.35,0.5c-0.13333,0.2 -0.25,0.38333 -0.35,0.55c-0.26667,0.36667 -0.51667,0.73333 -0.75,1.1c-0.16667,0.16667 -0.33333,0.33333 -0.5,0.5c-0.2,0.2 -0.38333,0.38333 -0.55,0.55c-0.16667,0.16667 -0.35,0.35 -0.55,0.55c-0.16667,0.16667 -0.35,0.33333 -0.55,0.5c-0.1,0.13333 -0.21667,0.26667 -0.35,0.4c-0.33333,0.1 -0.68333,0.21667 -1.05,0.35c-0.13333,0.1 -0.25,0.21667 -0.35,0.35c-0.3,0.06667 -0.6,0.13333 -0.9,0.2c-0.73333,0.23333 -1.45,0.43333 -2.15,0.6c-1.53333,0.4 -3.08333,0.8 -4.65,1.2c-2.26667,0.56667 -4.53333,1.15 -6.8,1.75c-1.06667,0.1 -2.13333,0.21667 -3.2,0.35c-0.36667,0.13333 -0.71667,0.25 -1.05,0.35c-2.03333,0.13333 -4.06667,0.25 -6.1,0.35c-0.33333,0.13333 -0.68333,0.25 -1.05,0.35c-0.96667,0 -1.91667,0 -2.85,0c-0.43333,-0.1 -0.85,-0.21667 -1.25,-0.35c-1.26667,-0.1 -2.51667,-0.21667 -3.75,-0.35c-0.43333,-0.1 -0.85,-0.2 -1.25,-0.3c-1.3,-0.23333 -2.56667,-0.58333 -3.8,-1.05c-2.03333,-0.73333 -4.11667,-1.3 -6.25,-1.7c-2.9,-0.53333 -5.75,-1.3 -8.55,-2.3c-0.16667,-0.16667 -0.33333,-0.35 -0.5,-0.55c-0.13333,-0.1 -0.25,-0.21667 -0.35,-0.35c-0.06667,-0.06667 -0.13333,-0.11667 -0.2,-0.15c-0.36667,-0.13333 -0.71667,-0.26667 -1.05,-0.4c-0.3,-0.1 -0.6,-0.2 -0.9,-0.3c-0.43333,-0.13333 -0.85,-0.26667 -1.25,-0.4c-0.13333,-0.16667 -0.25,-0.35 -0.35,-0.55c-0.2,-0.1 -0.38333,-0.21667 -0.55,-0.35c-0.06667,-0.06667 -0.13333,-0.1 -0.2,-0.1c-0.33333,-0.16667 -0.68333,-0.3 -1.05,-0.4c-0.13333,-0.13333 -0.25,-0.26667 -0.35,-0.4c-0.36667,-0.1 -0.73333,-0.21667 -1.1,-0.35c-0.1,-0.1 -0.21667,-0.21667 -0.35,-0.35c-0.36667,-0.1 -0.71667,-0.21667 -1.05,-0.35c-0.13333,-0.13333 -0.25,-0.25 -0.35,-0.35c-0.36667,-0.13333 -0.73333,-0.25 -1.1,-0.35c-0.1,-0.13333 -0.21667,-0.25 -0.35,-0.35c-0.36667,-0.13333 -0.71667,-0.26667 -1.05,-0.4c-0.13333,-0.16667 -0.26667,-0.33333 -0.4,-0.5c-0.23333,-0.2 -0.46667,-0.38333 -0.7,-0.55c-0.16667,-0.16667 -0.35,-0.35 -0.55,-0.55c-0.1,-0.16667 -0.21667,-0.33333 -0.35,-0.5c-0.03333,-0.2 -0.08333,-0.38333 -0.15,-0.55c0,-0.2 0,-0.38333 0,-0.55c-0.06667,-0.16667 -0.13333,-0.35 -0.2,-0.55c-0.1,-0.16667 -0.21667,-0.33333 -0.35,-0.5c-0.06667,-0.2 -0.13333,-0.38333 -0.2,-0.55c0,-0.16667 0,-0.35 0,-0.55c0,-0.16667 0,-0.33333 0,-0.5c0,-0.2 0,-0.38333 0,-0.55c0,-0.2 0,-0.38333 0,-0.55c-0.1,-0.16667 -0.21667,-0.35 -0.35,-0.55c-0.1,-0.16667 -0.21667,-0.33333 -0.35,-0.5c0,-0.2 0,-0.38333 0,-0.55c0,-0.16667 0,-0.35 0,-0.55c0,-0.16667 0,-0.33333 0,-0.5c0,-0.2 0,-0.38333 0,-0.55c0,-0.2 0,-0.38333 0,-0.55c0,-0.36667 0,-0.71667 0,-1.05c0,-0.2 0,-0.38333 0,-0.55c0,-0.53333 0,-1.06667 0,-1.6c0,-0.2 0,-0.38333 0,-0.55c0,-0.16667 0,-0.35 0,-0.55c0,-0.16667 0,-0.33333 0,-0.5c-0.1,-0.2 -0.21667,-0.38333 -0.35,-0.55c-0.13333,-0.16667 -0.25,-0.35 -0.35,-0.55c0,-0.16667 0,-0.33333 0,-0.5c0,-0.2 0,-0.38333 0,-0.55c0,-0.2 0,-0.38333 0,-0.55c0,-0.16667 0,-0.35 0,-0.55c0,-0.16667 0,-0.33333 0,-0.5c0,-0.2 0,-0.38333 0,-0.55c0,-0.16667 0,-0.35 0,-0.55c0,-0.16667 0,-0.33333 0,-0.5c0,-0.2 0,-0.38333 0,-0.55c0,-0.2 0,-0.38333 0,-0.55c-0.13333,-0.16667 -0.25,-0.35 -0.35,-0.55c-0.13333,-0.16667 -0.25,-0.33333 -0.35,-0.5c0,-0.2 0,-0.38333 0,-0.55c0,-0.16667 0,-0.35 0,-0.55c0,-0.16667 0,-0.33333 0,-0.5c0,-0.2 0,-0.38333 0,-0.55c0,-0.16667 0,-0.35 0,-0.55c0,-0.36667 0,-0.71667 0,-1.05c0,-0.2 0,-0.38333 0,-0.55c0,-0.53333 0,-1.06667 0,-1.6c0,-0.16667 0,-0.35 0,-0.55c0,-0.16667 0,-0.35 0,-0.55c0,-0.16667 0,-0.33333 0,-0.5c0.03333,-0.2 0.08333,-0.38333 0.15,-0.55c0.06667,-0.16667 0.13333,-0.35 0.2,-0.55c0.1,-0.16667 0.21667,-0.33333 0.35,-0.5c0,-0.2 0,-0.38333 0,-0.55c0,-0.16667 0,-0.35 0,-0.55c0,-0.16667 0,-0.35 0,-0.55c0,-0.16667 0,-0.33333 0,-0.5c0,-0.2 0,-0.38333 0,-0.55c0,-0.16667 0,-0.35 0,-0.55c0,-0.16667 0,-0.33333 0,-0.5c0,-0.2 0,-0.38333 0,-0.55c0.1,-0.16667 0.21667,-0.35 0.35,-0.55c0.06667,-0.16667 0.13333,-0.35 0.2,-0.55c0.03333,-0.16667 0.08333,-0.33333 0.15,-0.5c0,-0.2 0,-0.38333 0,-0.55c0,-0.16667 0,-0.35 0,-0.55c0,-0.16667 0,-0.33333 0,-0.5c0,-0.2 0,-0.38333 0,-0.55c0,-0.16667 0,-0.35 0,-0.55c0,-0.16667 0,-0.35 0,-0.55c0.06667,-0.16667 0.13333,-0.33333 0.2,-0.5c0.1,-0.2 0.21667,-0.38333 0.35,-0.55c0.16667,-0.13333 0.35,-0.25 0.55,-0.35c0.3,-0.13333 0.58333,-0.25 0.85,-0.35c0.2,-0.13333 0.38333,-0.25 0.55,-0.35c0.3,-0.06667 0.6,-0.13333 0.9,-0.2c0.3,-0.13333 0.6,-0.25 0.9,-0.35c0.4,-0.13333 0.81667,-0.26667 1.25,-0.4c0.3,-0.1 0.6,-0.21667 0.9,-0.35c0.4,-0.16667 0.81667,-0.33333 1.25,-0.5c0.23333,-0.16667 0.46667,-0.35 0.7,-0.55c-0.13333,-0.16667 -0.25,-0.35 -0.35,-0.55c-0.2,-0.16667 -0.38333,-0.33333 -0.55,-0.5c-0.16667,-0.2 -0.35,-0.38333 -0.55,-0.55c-0.16667,-0.16667 -0.33333,-0.35 -0.5,-0.55c-0.13333,-0.16667 -0.25,-0.33333 -0.35,-0.5c-0.2,-0.2 -0.38333,-0.38333 -0.55,-0.55c-0.23333,-0.16667 -0.46667,-0.35 -0.7,-0.55c-0.13333,-0.16667 -0.26667,-0.35 -0.4,-0.55c-0.03333,-0.16667 -0.08333,-0.33333 -0.15,-0.5c-0.06667,-0.13333 -0.13333,-0.25 -0.2,-0.35c-0.03333,-0.06667 -0.1,-0.11667 -0.2,-0.15c-0.33333,-0.16667 -0.68333,-0.3 -1.05,-0.4c-0.1,-0.16667 -0.21667,-0.35 -0.35,-0.55c-0.1,-0.16667 -0.21667,-0.35 -0.35,-0.55c-0.06667,-0.16667 -0.13333,-0.33333 -0.2,-0.5c-0.1,-0.2 -0.21667,-0.38333 -0.35,-0.55c-0.03333,-0.16667 -0.08333,-0.35 -0.15,-0.55c-0.13333,-0.16667 -0.25,-0.33333 -0.35,-0.5c-0.13333,-0.2 -0.26667,-0.38333 -0.4,-0.55c-0.03333,-0.16667 -0.08333,-0.35 -0.15,-0.55c-0.06667,-0.16667 -0.13333,-0.35 -0.2,-0.55c-0.1,-0.16667 -0.21667,-0.33333 -0.35,-0.5c-0.06667,-0.2 -0.11667,-0.38333 -0.15,-0.55c-0.13333,-0.16667 -0.26667,-0.35 -0.4,-0.55c-0.03333,-0.16667 -0.08333,-0.33333 -0.15,-0.5c0,-0.2 0,-0.38333 0,-0.55c-0.06667,-0.16667 -0.13333,-0.35 -0.2,-0.55c-0.1,-0.16667 -0.21667,-0.33333 -0.35,-0.5c-0.06667,-0.2 -0.11667,-0.38333 -0.15,-0.55c0,-0.2 0,-0.38333 0,-0.55c-0.06667,-0.16667 -0.13333,-0.35 -0.2,-0.55c-0.13333,-0.16667 -0.25,-0.33333 -0.35,-0.5c-0.06667,-0.2 -0.13333,-0.38333 -0.2,-0.55c0,-0.16667 0,-0.35 0,-0.55c0,-0.16667 0,-0.33333 0,-0.5c-0.03333,-0.2 -0.08333,-0.38333 -0.15,-0.55c-0.06667,-0.2 -0.13333,-0.38333 -0.2,-0.55c-0.1,-0.16667 -0.21667,-0.35 -0.35,-0.55c0,-0.16667 0,-0.33333 0,-0.5c0,-0.2 0,-0.38333 0,-0.55c0,-0.16667 0,-0.35 0,-0.55c0,-0.33333 0,-0.68333 0,-1.05c0,-0.36667 0,-0.73333 0,-1.1c0,-0.53333 0,-1.06667 0,-1.6c0,-0.53333 0,-1.06667 0,-1.6c0,-0.53333 0,-1.06667 0,-1.6c0,-0.53333 0,-1.06667 0,-1.6c0,-0.36667 0,-0.73333 0,-1.1c0.13333,-0.16667 0.25,-0.33333 0.35,-0.5c0.13333,-0.2 0.25,-0.38333 0.35,-0.55c0,-0.16667 0,-0.35 0,-0.55c0,-0.16667 0,-0.33333 0,-0.5c0,-0.2 0,-0.38333 0,-0.55c0.13333,-0.2 0.25,-0.38333 0.35,-0.55c0.06667,-0.16667 0.13333,-0.35 0.2,-0.55c0.06667,-0.16667 0.13333,-0.33333 0.2,-0.5c0,-0.2 0,-0.38333 0,-0.55c0.1,-0.16667 0.21667,-0.35 0.35,-0.55c0.06667,-0.16667 0.11667,-0.33333 0.15,-0.5c0.06667,-0.2 0.13333,-0.38333 0.2,-0.55c0.1,-0.2 0.21667,-0.38333 0.35,-0.55c0.13333,-0.16667 0.25,-0.35 0.35,-0.55c0.06667,-0.16667 0.13333,-0.33333 0.2,-0.5c0.1,-0.2 0.21667,-0.38333 0.35,-0.55c0.06667,-0.16667 0.11667,-0.35 0.15,-0.55c0.13333,-0.16667 0.26667,-0.33333 0.4,-0.5c0.03333,-0.2 0.08333,-0.38333 0.15,-0.55c0.06667,-0.2 0.13333,-0.38333 0.2,-0.55c0.1,-0.16667 0.21667,-0.35 0.35,-0.55c0.16667,-0.16667 0.35,-0.33333 0.55,-0.5c0.1,-0.2 0.21667,-0.38333 0.35,-0.55c0.06667,-0.16667 0.11667,-0.35 0.15,-0.55c0.13333,-0.16667 0.25,-0.33333 0.35,-0.5c0.2,-0.2 0.38333,-0.38333 0.55,-0.55c0.2,-0.2 0.38333,-0.38333 0.55,-0.55c0.16667,-0.16667 0.35,-0.35 0.55,-0.55c0.03333,-0.16667 0.08333,-0.33333 0.15,-0.5c0.13333,-0.2 0.25,-0.38333 0.35,-0.55c0.13333,-0.16667 0.25,-0.35 0.35,-0.55c0.2,-0.16667 0.38333,-0.33333 0.55,-0.5c0.06667,-0.2 0.13333,-0.38333 0.2,-0.55c0.1,-0.16667 0.21667,-0.35 0.35,-0.55c0.1,-0.16667 0.21667,-0.35 0.35,-0.55c0.4,-0.16667 0.81667,-0.33333 1.25,-0.5c0.06667,-0.2 0.13333,-0.38333 0.2,-0.55c0.1,-0.16667 0.21667,-0.35 0.35,-0.55c0.1,-0.16667 0.21667,-0.33333 0.35,-0.5c0.4,-0.2 0.81667,-0.38333 1.25,-0.55c0.16667,-0.16667 0.35,-0.35 0.55,-0.55c0.16667,-0.1 0.33333,-0.21667 0.5,-0.35c0.06667,-0.06667 0.13333,-0.13333 0.2,-0.2c0.3,-0.1 0.6,-0.21667 0.9,-0.35c0.16667,-0.16667 0.33333,-0.33333 0.5,-0.5c0.2,-0.13333 0.38333,-0.26667 0.55,-0.4c0.06667,-0.03333 0.13333,-0.08333 0.2,-0.15c0.3,-0.13333 0.6,-0.25 0.9,-0.35z" fill="#ffffff"/><path d="M388.13784,329.85631c-0.26667,2.3 -1.36667,4.01667 -3.3,5.15l-20,0.85l-1.8,2.3c0.7,0.8 1.61667,1.25 2.75,1.35c7,1.3 13.88333,2.96667 20.65,5c8.43333,2.46667 15.41667,7.31667 20.95,14.55c7.73333,10.03333 8.15,20.43333 1.25,31.2c-7.6,11.8 -18.51667,17.26667 -32.75,16.4c-8.56667,-0.83333 -17.21667,-1.51667 -25.95,-2.05c-3.16667,0.16667 -5.58333,-1.15 -7.25,-3.95c-6.2,-10.56667 -6.16667,-20.96667 0.1,-31.2c5.2,0.4 10.4,1.41667 15.6,3.05c7.5,2.33333 14.85,2.15 22.05,-0.55c1.66667,-0.6 2.61667,-1.8 2.85,-3.6c0.7,-5.43333 -1.75,-8.65 -7.35,-9.65c-7.96667,-1.16667 -15.95,-2.36667 -23.95,-3.6c-9.1,-1.2 -13.5,-6.46667 -13.2,-15.8c0.36667,-10.43333 4.81667,-18.46667 13.35,-24.1c4.13333,-2.8 8.55,-4.25 13.25,-4.35c3.2,-0.06667 6.43333,-0.05 9.7,0.05c8.63333,0.23333 13.06667,4.65 13.3,13.25c0.06667,1.9 -0.01667,3.8 -0.25,5.7M461.68784,313.05631c0.66667,5.43333 1.8,10.75 3.4,15.95l1.75,5.95l-26.4,8.65c2.1,8.86667 4.55,17.66667 7.35,26.4c3.4,10.5 4.65,21 3.75,31.5c-9.23333,3.2 -18.88333,4.18333 -28.95,2.95c-0.63333,-0.96667 -1.05,-1.96667 -1.25,-3c-1.03333,-5.73333 -1.56667,-11.53333 -1.6,-17.4c-0.1,-14.36667 -0.35,-28.73333 -0.75,-43.1c-6.96667,1.3 -13.96667,1.58333 -21,0.85c-1.13333,-0.13333 -1.96667,-0.65 -2.5,-1.55c-1.4,-2.36667 -1.85,-5.03333 -1.35,-8c0.3,-1.8 0.26667,-3.61667 -0.1,-5.45c-1.06667,-5.13333 0.28333,-9.13333 4.05,-12l2.6,1.8l58.95,-6.6c0.46667,0.46667 0.9,0.95 1.3,1.45c0.43333,0.5 0.68333,1.03333 0.75,1.6M500.48784,391.35631c-4.93333,5.56667 -10.88333,8.35 -17.85,8.35c-6.96667,0 -12.91667,-2.78333 -17.85,-8.35c-4.93333,-5.53333 -7.4,-12.21667 -7.4,-20.05c0,-7.83333 2.46667,-14.53333 7.4,-20.1c4.93333,-5.53333 10.88333,-8.3 17.85,-8.3c6.96667,0 12.91667,2.76667 17.85,8.3c4.93333,5.56667 7.4,12.26667 7.4,20.1c0,7.83333 -2.46667,14.51667 -7.4,20.05M486.18784,364.10631l-9.1,-1.85c-3.23333,3.96667 -2.93333,8.23333 0.9,12.8c0.33333,0.36667 0.73333,0.61667 1.2,0.75c5.8,1.46667 9.26667,-1.05 10.4,-7.55l-3.4,-4.15M582.33784,397.00631l-20.2,6.2l-24.2,-34.35l-4.6,0.5l4.8,31c-6.53333,2.63333 -13.46667,3.31667 -20.8,2.05c-1.3,-2.26667 -2.11667,-4.71667 -2.45,-7.35c-2.33333,-18.23333 -5.11667,-36.41667 -8.35,-54.55c-7.73333,-3.2 -15.98333,-4.56667 -24.75,-4.1c-2.16667,-2.46667 -3.25,-5.38333 -3.25,-8.75c0,-1.3 -0.18333,-2.56667 -0.55,-3.8c-1.6,-5.76667 -0.68333,-10.55 2.75,-14.35c0.3,0.33333 0.6,0.46667 0.9,0.4c6.06667,-0.46667 12.11667,-0.63333 18.15,-0.5c5.5,0.1 10.98333,-0.11667 16.45,-0.65c10.06667,-0.23333 19.75,1.5 29.05,5.2c8.9,3.53333 15.2,9.61667 18.9,18.25c4.56667,10.66667 2.05,19.05 -7.55,25.15l27.1,36.6l-1.4,3.05M530.18784,345.05631c5.8,0.63333 10.05,-1.31667 12.75,-5.85c-0.86667,-3.06667 -2.96667,-5 -6.3,-5.8c-4.03333,-1.06667 -7.45,-0.73333 -10.25,1l3.8,10.65M618.38784,308.45631c5.96667,2.96667 10.1,7.16667 12.4,12.6l-21.95,40.85l8.5,36.8c-0.36667,0.4 -0.76667,0.66667 -1.2,0.8c-7.76667,2.76667 -15.5,2.83333 -23.2,0.2l-6.65,-44.7l-25.95,-37.55l2.1,0.6c2.6,-4.63333 6.55,-7.78333 11.85,-9.45c1.6,-0.53333 2.88333,-0.13333 3.85,1.2c7.03333,9.7 13.83333,19.66667 20.4,29.9l14,-33.3c0.63333,0.06667 1.25,0.18333 1.85,0.35c1.4,0.5 2.73333,1.06667 4,1.7M744.98784,397.60631c-0.8,0.73333 -1.66667,1.18333 -2.6,1.35c-7.43333,0.76667 -14.95,0.76667 -22.55,0c-1.1,0 -1.86667,-0.55 -2.3,-1.65c-3.26667,-8.56667 -5.36667,-17.55 -6.3,-26.95l-11.45,25.7l-16.55,-25.55c0.36667,4.83333 1.11667,9.6 2.25,14.3c1.3,5.4 1.08333,10.43333 -0.65,15.1l-23.35,1.3l-1.4,-2.35c-0.66667,0.06667 -1.1,-0.18333 -1.3,-0.75c-3.63333,-9.93333 -5.45,-20.35 -5.45,-31.25c0,-4.43333 0.06667,-8.81667 0.2,-13.15c0.33333,-11.43333 1.2,-22.83333 2.6,-34.2c0.76667,-6.4 4.13333,-9.48333 10.1,-9.25c1.93333,0 3.76667,-0.18333 5.5,-0.55c4.53333,-1.16667 9.08333,-1.68333 13.65,-1.55c1.9,0.03333 2.96667,0.96667 3.2,2.8c1.5,11.66667 4.7,22.71667 9.6,33.15l13.05,-35.55l27.7,-0.25c0.83333,2.1 1.3,4.33333 1.4,6.7c0.3,8.43333 0.56667,16.85 0.8,25.25c0.56667,18.73333 3.23333,37.1 8,55.1l-0.35,1.95l-3.8,0.3M775.08784,330.20631c5.43333,0.1 10.41667,1.63333 14.95,4.6c11.76667,7.76667 15.63333,18.56667 11.6,32.4c-0.8,2.83333 -2.23333,5.16667 -4.3,7c-8.93333,7.93333 -19.6,10.71667 -32,8.35c-4.06667,-0.86667 -7.6,-2.68333 -10.6,-5.45c-7.73333,-7.16667 -9.93333,-16.05 -6.6,-26.65c4.1,-13.13333 13.08333,-19.88333 26.95,-20.25M768.28784,350.70631c-1.76667,1.46667 -2.65,3.23333 -2.65,5.3c0,2.06667 0.88333,3.81667 2.65,5.25c1.76667,1.46667 3.9,2.2 6.4,2.2c2.5,0 4.63333,-0.73333 6.4,-2.2c1.76667,-1.43333 2.65,-3.18333 2.65,-5.25c0,-2.06667 -0.88333,-3.83333 -2.65,-5.3c-1.76667,-1.43333 -3.9,-2.15 -6.4,-2.15c-2.5,0 -4.63333,0.71667 -6.4,2.15M861.83784,329.60631c10.86667,17.03333 12.91667,35.13333 6.15,54.3c-0.83333,2.36667 -2.15,4.31667 -3.95,5.85c-6.26667,5.33333 -13.63333,8.45 -22.1,9.35c-13.8,2.43333 -27.75,3.66667 -41.85,3.7c-2.36667,0 -4.65,-0.38333 -6.85,-1.15c-6.8,-2.16667 -9.51667,-7.15 -8.15,-14.95c0.06667,-0.16667 0.16667,-0.3 0.3,-0.4c6.73333,-3.33333 13.88333,-5.88333 21.45,-7.65c0.76667,-0.23333 1.26667,-0.68333 1.5,-1.35c5.06667,-16.13333 3.58333,-31.78333 -4.45,-46.95l-25.7,-3.3l-3.7,-17.6l3.3,-2.35c0.16667,-0.26667 0.36667,-0.43333 0.6,-0.5c0.13333,0 0.26667,0.13333 0.4,0.4c0.13333,0.2 0.26667,0.43333 0.4,0.7c1.03333,-0.13333 2.08333,-0.26667 3.15,-0.4c3.06667,-0.06667 6.18333,-0.1 9.35,-0.1c19.5,-1.36667 38,1.9 55.5,9.8c6.13333,2.73333 11.01667,6.93333 14.65,12.6M846.43784,361.85631c-0.03333,-11.83333 -6.1,-18.05 -18.2,-18.65l2.6,26.8c4.83333,1.33333 9.11667,0.51667 12.85,-2.45c1.83333,-1.43333 2.75,-3.33333 2.75,-5.7M924.03784,338.90631l-28.35,0.7l2.2,6.05l18.05,-1.15c1.73333,3.46667 3.01667,7.06667 3.85,10.8c0.56667,2.46667 0.21667,4.65 -1.05,6.55l-19.8,1.65l3.05,8.4h29.95c1.46667,1.73333 2.6,3.65 3.4,5.75c2.5,6.63333 2.31667,12.83333 -0.55,18.6l-55.7,1.2c-1.8,-3.7 -2.83333,-7.58333 -3.1,-11.65c-0.96667,-14.26667 -1.41667,-28.61667 -1.35,-43.05c0.03333,-9.33333 -0.51667,-18.58333 -1.65,-27.75l37.9,-3.65l13.2,0.75c0.36667,0.8 0.66667,1.61667 0.9,2.45c2.16667,8.33333 1.85,16.45 -0.95,24.35z" fill="#000000"/></g></g></svg>