<svg version="1.1" xmlns="http://www.w3.org/2000/svg" xmlns:xlink="http://www.w3.org/1999/xlink" width="54.69091" height="66.26958" viewBox="0,0,54.69091,66.26958"><g transform="translate(-608.10811,-337.83159)"><g data-paper-data="{&quot;isPaintingLayer&quot;:true}" fill-rule="nonzero" stroke="none" stroke-width="1" stroke-linecap="butt" stroke-linejoin="miter" stroke-miterlimit="10" stroke-dasharray="" stroke-dashoffset="0" style="mix-blend-mode: normal"><path d="M661.40811,347.98784c0.5,0.56667 0.86667,1.16667 1.1,1.8c0.26667,0.8 0.35,1.63333 0.25,2.5c0,0.23333 0,0.5 0,0.8c-0.76667,1.8 -1.93333,3.35 -3.5,4.65c-1.36667,1.13333 -2.65,2.35 -3.85,3.65c-0.13333,0.1 -0.28333,0.18333 -0.45,0.25c-0.06667,0.1 -0.15,0.2 -0.25,0.3c-0.06667,0.06667 -0.13333,0.15 -0.2,0.25c-0.06667,0.1 -0.15,0.18333 -0.25,0.25c-1.5,1.06667 -2.88333,2.28333 -4.15,3.65c-0.86667,0.96667 -1.76667,1.9 -2.7,2.8c1.03333,0.86667 1.98333,1.81667 2.85,2.85c0.8,0.93333 1.48333,1.95 2.05,3.05c0.1,0.06667 0.18333,0.15 0.25,0.25c0.13333,0.1 0.25,0.18333 0.35,0.25c0.53333,0.8 1.08333,1.55 1.65,2.25c0.86667,1 1.63333,2.05 2.3,3.15c0.36667,0.3 0.68333,0.63333 0.95,1c0.4,0.5 0.73333,1.05 1,1.65c0.06667,0.2 0.13333,0.38333 0.2,0.55c0.06667,0.1 0.15,0.18333 0.25,0.25c0.06667,0.1 0.13333,0.2 0.2,0.3c0.06667,0.06667 0.11667,0.15 0.15,0.25c0.03333,0.1 0.06667,0.18333 0.1,0.25c0.2,0.2 0.4,0.38333 0.6,0.55c0.2,0.16667 0.36667,0.36667 0.5,0.6c0.16667,0.26667 0.36667,0.51667 0.6,0.75c0,0.06667 0,0.15 0,0.25c0.03333,0.1 0.06667,0.2 0.1,0.3c0.16667,0.26667 0.31667,0.53333 0.45,0.8c0.16667,0.36667 0.33333,0.71667 0.5,1.05c0.1,0.26667 0.2,0.53333 0.3,0.8c-0.53333,2.8 -2.05,5.11667 -4.55,6.95c-1.43333,1.03333 -2.71667,2.25 -3.85,3.65c-1.16667,1.4 -2.6,2.3 -4.3,2.7c-0.93333,-0.06667 -1.73333,-0.41667 -2.4,-1.05c-0.43333,-0.43333 -0.88333,-0.88333 -1.35,-1.35c-0.06667,-0.1 -0.11667,-0.2 -0.15,-0.3c-0.03333,-0.06667 -0.06667,-0.15 -0.1,-0.25c-0.03333,-0.06667 -0.06667,-0.15 -0.1,-0.25c-0.3,-0.33333 -0.55,-0.68333 -0.75,-1.05c-0.3,-0.53333 -0.58333,-1.08333 -0.85,-1.65c-0.16667,-0.26667 -0.31667,-0.53333 -0.45,-0.8c-2.36667,-3 -4.75,-6 -7.15,-9c-0.33333,-0.4 -0.63333,-0.81667 -0.9,-1.25c-0.76667,0.96667 -1.61667,1.9 -2.55,2.8c-0.83333,0.8 -1.6,1.66667 -2.3,2.6c-1.26667,1.66667 -2.53333,3.31667 -3.8,4.95c-0.5,1.13333 -1.16667,2.18333 -2,3.15c-0.9,1.03333 -1.78333,2.13333 -2.65,3.3c-0.6,0.53333 -1.31667,0.83333 -2.15,0.9c-0.86667,0.06667 -1.7,-0.11667 -2.5,-0.55c-0.86667,-0.9 -1.76667,-1.78333 -2.7,-2.65c-0.9,-0.8 -1.66667,-1.7 -2.3,-2.7c-0.26667,-0.3 -0.51667,-0.58333 -0.75,-0.85c-0.36667,-0.36667 -0.73333,-0.71667 -1.1,-1.05c-0.1,-0.1 -0.18333,-0.18333 -0.25,-0.25c-0.26667,-0.56667 -0.58333,-1.1 -0.95,-1.6c-0.53333,-0.8 -1.01667,-1.61667 -1.45,-2.45c-0.1,-0.23333 -0.2,-0.5 -0.3,-0.8c0,-0.16667 0,-0.33333 0,-0.5c0,-0.3 0,-0.56667 0,-0.8c0.03333,-0.36667 0.1,-0.73333 0.2,-1.1c0.2,-0.4 0.41667,-0.78333 0.65,-1.15c0.36667,-0.56667 0.8,-1.08333 1.3,-1.55c0.1,-0.06667 0.18333,-0.15 0.25,-0.25c0.06667,-0.1 0.11667,-0.18333 0.15,-0.25c0.06667,-0.1 0.11667,-0.18333 0.15,-0.25c0.03333,-0.1 0.08333,-0.2 0.15,-0.3c0.36667,-0.36667 0.73333,-0.71667 1.1,-1.05c0.66667,-0.63333 1.31667,-1.26667 1.95,-1.9c1.86667,-2.26667 3.86667,-4.41667 6,-6.45c1.46667,-1.4 2.91667,-2.81667 4.35,-4.25c-0.1,-0.7 -0.41667,-1.33333 -0.95,-1.9c-0.86667,-0.86667 -1.56667,-1.83333 -2.1,-2.9c-0.03333,-0.1 -0.08333,-0.2 -0.15,-0.3c-0.1,-0.1 -0.18333,-0.18333 -0.25,-0.25c-0.16667,-0.2 -0.31667,-0.38333 -0.45,-0.55c-0.1,-0.16667 -0.2,-0.35 -0.3,-0.55c-0.03333,-0.06667 -0.06667,-0.15 -0.1,-0.25c-0.06667,-0.1 -0.15,-0.2 -0.25,-0.3c-0.06667,-0.06667 -0.11667,-0.15 -0.15,-0.25c-0.06667,-0.06667 -0.11667,-0.15 -0.15,-0.25c-0.03333,-0.1 -0.08333,-0.18333 -0.15,-0.25c-0.8,-0.93333 -1.58333,-1.86667 -2.35,-2.8c-0.86667,-1.13333 -1.51667,-2.35 -1.95,-3.65c-0.93333,-0.93333 -1.68333,-1.96667 -2.25,-3.1c-0.5,-1.03333 -0.95,-2.05 -1.35,-3.05c-0.33333,-0.16667 -0.63333,-0.36667 -0.9,-0.6c-0.33333,-0.3 -0.61667,-0.63333 -0.85,-1c0,-0.1 0,-0.2 0,-0.3c-0.03333,-0.06667 -0.05,-0.15 -0.05,-0.25c-0.03333,-0.1 -0.05,-0.18333 -0.05,-0.25c0,-0.1 0,-0.2 0,-0.3c0,-0.06667 0,-0.15 0,-0.25c0.06667,-0.16667 0.13333,-0.35 0.2,-0.55c0.06667,-0.16667 0.13333,-0.33333 0.2,-0.5c0.06667,-0.13333 0.13333,-0.25 0.2,-0.35c0,-0.06667 0.01667,-0.13333 0.05,-0.2c0.06667,-0.1 0.11667,-0.2 0.15,-0.3c0.06667,-0.06667 0.13333,-0.15 0.2,-0.25c0.13333,-0.1 0.25,-0.18333 0.35,-0.25c0.13333,-0.06667 0.26667,-0.11667 0.4,-0.15c0.13333,-0.03333 0.28333,-0.05 0.45,-0.05c0,-0.03333 0.01667,-0.05 0.05,-0.05v-0.05h0.05c4.6,-2.4 9.36667,-4.15 14.3,-5.25c1.36667,-0.3 2.53333,0.05 3.5,1.05c1.3,2.03333 2.43333,4.16667 3.4,6.4c0.96667,2.23333 1.91667,4.48333 2.85,6.75c0.03333,0.06667 0.06667,0.1 0.1,0.1c0.13333,0.03333 0.28333,0.03333 0.45,0c0.4,-0.33333 0.78333,-0.68333 1.15,-1.05c0.46667,-0.46667 0.91667,-0.93333 1.35,-1.4c0.06667,-0.06667 0.11667,-0.15 0.15,-0.25c0.03333,-0.1 0.08333,-0.18333 0.15,-0.25c0.03333,-0.1 0.08333,-0.2 0.15,-0.3c2.96667,-3.13333 5.9,-6.31667 8.8,-9.55c1.66667,-1.83333 3.58333,-3.1 5.75,-3.8c0.5,-0.03333 1,0.06667 1.5,0.3c0.4,0.16667 0.76667,0.41667 1.1,0.75c0.06667,0.16667 0.15,0.35 0.25,0.55c0.06667,0.06667 0.13333,0.15 0.2,0.25c0.13333,0.16667 0.26667,0.35 0.4,0.55c0.03333,0.06667 0.06667,0.15 0.1,0.25c0.1,0.1 0.2,0.18333 0.3,0.25c0.06667,0.1 0.15,0.2 0.25,0.3c0.53333,0.93333 1.03333,1.88333 1.5,2.85c0.66667,1.36667 1.26667,2.73333 1.8,4.1M648.45811,349.88784c-0.06667,0.06667 -0.11667,0.15 -0.15,0.25c-0.03333,0.1 -0.08333,0.18333 -0.15,0.25c-0.03333,0.1 -0.08333,0.2 -0.15,0.3c-0.7,0.7 -1.38333,1.43333 -2.05,2.2c-0.7,0.76667 -1.41667,1.55 -2.15,2.35c-0.06667,0.06667 -0.11667,0.15 -0.15,0.25c-0.03333,0.1 -0.06667,0.18333 -0.1,0.25c-0.06667,0.1 -0.13333,0.2 -0.2,0.3c-1.06667,1.2 -2.23333,2.3 -3.5,3.3c-0.93333,0.73333 -1.73333,1.6 -2.4,2.6c-0.53333,0.56667 -1.21667,0.85 -2.05,0.85c-0.7,0.03333 -1.38333,-0.13333 -2.05,-0.5c-0.16667,-0.2 -0.33333,-0.38333 -0.5,-0.55c-0.1,-0.1 -0.2,-0.18333 -0.3,-0.25c-0.06667,-0.1 -0.15,-0.2 -0.25,-0.3c-0.23333,-0.4 -0.43333,-0.83333 -0.6,-1.3c-0.23333,-0.63333 -0.45,-1.26667 -0.65,-1.9c-0.1,-0.3 -0.25,-0.56667 -0.45,-0.8c-0.06667,-0.56667 -0.23333,-1.11667 -0.5,-1.65c-0.33333,-0.8 -0.65,-1.6 -0.95,-2.4c-0.1,-0.23333 -0.18333,-0.48333 -0.25,-0.75c-0.53333,-0.83333 -1,-1.7 -1.4,-2.6c-0.56667,-1.26667 -1.06667,-2.55 -1.5,-3.85c-0.03333,-0.1 -0.08333,-0.18333 -0.15,-0.25c-0.53333,-0.26667 -1.16667,-0.15 -1.9,0.35c-0.53333,0.4 -1.11667,0.7 -1.75,0.9c-0.1,0.06667 -0.21667,0.15 -0.35,0.25c-0.1,0.06667 -0.18333,0.13333 -0.25,0.2c-1.8,0.6 -3.56667,1.33333 -5.3,2.2c0.26667,0.46667 0.51667,0.93333 0.75,1.4c0.36667,0.73333 0.81667,1.43333 1.35,2.1c0.06667,0.1 0.11667,0.18333 0.15,0.25c0.93333,1.3 1.9,2.56667 2.9,3.8c1.06667,1.33333 2.1,2.66667 3.1,4c0.4,0.4 0.78333,0.83333 1.15,1.3c0.56667,0.66667 1.06667,1.38333 1.5,2.15c0.06667,0.1 0.13333,0.2 0.2,0.3c0.73333,0.93333 1.51667,1.83333 2.35,2.7c0.86667,0.93333 1.5,1.98333 1.9,3.15c-0.03333,1.9 -0.81667,3.43333 -2.35,4.6c-1.63333,1.23333 -3.05,2.65 -4.25,4.25c-1.06667,0.7 -2.01667,1.55 -2.85,2.55c-0.76667,0.93333 -1.63333,1.78333 -2.6,2.55c-0.1,0.3 -0.23333,0.56667 -0.4,0.8c-0.26667,0.33333 -0.53333,0.66667 -0.8,1c-0.16667,0.23333 -0.35,0.43333 -0.55,0.6c-0.13333,0.16667 -0.26667,0.33333 -0.4,0.5c-0.26667,0.3 -0.53333,0.58333 -0.8,0.85c-0.16667,0.16667 -0.33333,0.35 -0.5,0.55c-0.03333,0.06667 -0.06667,0.15 -0.1,0.25c-0.13333,0.16667 -0.26667,0.33333 -0.4,0.5c-0.16667,0.2 -0.33333,0.38333 -0.5,0.55c-0.1,0.1 -0.18333,0.2 -0.25,0.3c0.06667,0.16667 0.13333,0.33333 0.2,0.5c0.16667,0.26667 0.33333,0.53333 0.5,0.8c0.2,0.26667 0.35,0.55 0.45,0.85c0.53333,0.53333 1.05,1.08333 1.55,1.65c0.63333,0.7 1.33333,1.33333 2.1,1.9c0.3,-0.16667 0.53333,-0.4 0.7,-0.7c0.23333,-0.4 0.51667,-0.76667 0.85,-1.1c0.16667,-0.16667 0.33333,-0.33333 0.5,-0.5c0.63333,-0.9 1.25,-1.83333 1.85,-2.8c0.76667,-1.16667 1.66667,-2.2 2.7,-3.1c0.23333,-0.46667 0.5,-0.91667 0.8,-1.35c0.5,-0.73333 1.01667,-1.45 1.55,-2.15c0.06667,-0.1 0.15,-0.18333 0.25,-0.25c0.06667,-0.1 0.11667,-0.2 0.15,-0.3c0.06667,-0.06667 0.11667,-0.15 0.15,-0.25c0.03333,-0.1 0.08333,-0.18333 0.15,-0.25c1.03333,-1.3 2.2,-2.33333 3.5,-3.1c0,-0.06667 0,-0.11667 0,-0.15c0.03333,-0.06667 0.05,-0.15 0.05,-0.25c0.03333,-0.1 0.06667,-0.18333 0.1,-0.25c0.03333,-0.1 0.06667,-0.2 0.1,-0.3c0.1,-0.06667 0.18333,-0.15 0.25,-0.25c0.1,-0.1 0.2,-0.18333 0.3,-0.25c0.06667,-0.1 0.15,-0.2 0.25,-0.3c0.13333,-0.03333 0.25,-0.08333 0.35,-0.15c0.1,-0.03333 0.2,-0.06667 0.3,-0.1c0.16667,-0.03333 0.33333,-0.06667 0.5,-0.1c0.43333,0.16667 0.85,0.35 1.25,0.55c0.23333,0.1 0.48333,0.25 0.75,0.45c0.16667,0.23333 0.33333,0.48333 0.5,0.75c0.03333,0.03333 0.06667,0.06667 0.1,0.1c0.23333,0.26667 0.43333,0.56667 0.6,0.9c0.23333,0.36667 0.48333,0.71667 0.75,1.05c0.73333,1 1.6,1.85 2.6,2.55c0.33333,0.43333 0.71667,0.83333 1.15,1.2c0.76667,0.66667 1.38333,1.43333 1.85,2.3c0.3,0.26667 0.6,0.53333 0.9,0.8c0.36667,0.3 0.66667,0.65 0.9,1.05c0.03333,0.1 0.06667,0.18333 0.1,0.25c0.7,0.7 1.36667,1.43333 2,2.2c0.63333,0.73333 1.18333,1.51667 1.65,2.35c0.1,0.06667 0.2,0.11667 0.3,0.15c0.1,0 0.2,-0.01667 0.3,-0.05c0.2,-0.06667 0.38333,-0.15 0.55,-0.25c0.16667,-0.26667 0.35,-0.53333 0.55,-0.8c0.26667,-0.3 0.56667,-0.56667 0.9,-0.8c0.13333,-0.1 0.28333,-0.2 0.45,-0.3c0.2,-0.4 0.48333,-0.7 0.85,-0.9c0.93333,-0.53333 1.51667,-1.21667 1.75,-2.05c-0.73333,-0.93333 -1.41667,-1.93333 -2.05,-3c-0.73333,-1.16667 -1.51667,-2.3 -2.35,-3.4c-0.53333,-0.53333 -1.03333,-1.1 -1.5,-1.7c-0.56667,-0.7 -1.05,-1.46667 -1.45,-2.3c-0.06667,-0.1 -0.11667,-0.2 -0.15,-0.3c-1.2,-1.6 -2.51667,-3.08333 -3.95,-4.45c-1.23333,-1.2 -2.45,-2.38333 -3.65,-3.55c-0.03333,-0.1 -0.06667,-0.2 -0.1,-0.3c-0.03333,-0.1 -0.06667,-0.18333 -0.1,-0.25c-0.03333,-0.1 -0.06667,-0.2 -0.1,-0.3c0,-0.06667 -0.01667,-0.15 -0.05,-0.25c0,-0.1 0,-0.18333 0,-0.25c0,-0.1 0,-0.2 0,-0.3c0,-0.06667 0,-0.15 0,-0.25c0,-0.1 0,-0.18333 0,-0.25c0,-0.1 0,-0.2 0,-0.3c0.83333,-1.7 1.95,-3.25 3.35,-4.65c1.26667,-1.2 2.5,-2.41667 3.7,-3.65c1.86667,-1.66667 3.7,-3.43333 5.5,-5.3c1.13333,-1.16667 2.23333,-2.33333 3.3,-3.5c-0.43333,-0.9 -0.83333,-1.8 -1.2,-2.7c-0.46667,-1.2 -1,-2.36667 -1.6,-3.5c-0.06667,-0.06667 -0.1,-0.15 -0.1,-0.25c-0.83333,0.76667 -1.63333,1.55 -2.4,2.35c-0.8,0.8 -1.61667,1.6 -2.45,2.4z" fill="#000000"/><path d="M653.40811,345.38784c0.6,1.13333 1.13333,2.3 1.6,3.5c0.36667,0.9 0.76667,1.8 1.2,2.7c-1.06667,1.16667 -2.16667,2.33333 -3.3,3.5c-1.8,1.86667 -3.63333,3.63333 -5.5,5.3c-1.2,1.23333 -2.43333,2.45 -3.7,3.65c-1.4,1.4 -2.51667,2.95 -3.35,4.65c0,0.1 0,0.2 0,0.3c0,0.06667 0,0.15 0,0.25c0,0.1 0,0.18333 0,0.25c0,0.1 0,0.2 0,0.3c0,0.06667 0,0.15 0,0.25c0.03333,0.1 0.05,0.18333 0.05,0.25c0.03333,0.1 0.06667,0.2 0.1,0.3c0.03333,0.06667 0.06667,0.15 0.1,0.25c0.03333,0.1 0.06667,0.2 0.1,0.3c1.2,1.16667 2.41667,2.35 3.65,3.55c1.43333,1.36667 2.75,2.85 3.95,4.45c0.03333,0.1 0.08333,0.2 0.15,0.3c0.4,0.83333 0.88333,1.6 1.45,2.3c0.46667,0.6 0.96667,1.16667 1.5,1.7c0.83333,1.1 1.61667,2.23333 2.35,3.4c0.63333,1.06667 1.31667,2.06667 2.05,3c-0.23333,0.83333 -0.81667,1.51667 -1.75,2.05c-0.36667,0.2 -0.65,0.5 -0.85,0.9c-0.16667,0.1 -0.31667,0.2 -0.45,0.3c-0.33333,0.23333 -0.63333,0.5 -0.9,0.8c-0.2,0.26667 -0.38333,0.53333 -0.55,0.8c-0.16667,0.1 -0.35,0.18333 -0.55,0.25c-0.1,0.03333 -0.2,0.05 -0.3,0.05c-0.1,-0.03333 -0.2,-0.08333 -0.3,-0.15c-0.46667,-0.83333 -1.01667,-1.61667 -1.65,-2.35c-0.63333,-0.76667 -1.3,-1.5 -2,-2.2c-0.03333,-0.06667 -0.06667,-0.15 -0.1,-0.25c-0.23333,-0.4 -0.53333,-0.75 -0.9,-1.05c-0.3,-0.26667 -0.6,-0.53333 -0.9,-0.8c-0.46667,-0.86667 -1.08333,-1.63333 -1.85,-2.3c-0.43333,-0.36667 -0.81667,-0.76667 -1.15,-1.2c-1,-0.7 -1.86667,-1.55 -2.6,-2.55c-0.26667,-0.33333 -0.51667,-0.68333 -0.75,-1.05c-0.16667,-0.33333 -0.36667,-0.63333 -0.6,-0.9c-0.03333,-0.03333 -0.06667,-0.06667 -0.1,-0.1c-0.16667,-0.26667 -0.33333,-0.51667 -0.5,-0.75c-0.26667,-0.2 -0.51667,-0.35 -0.75,-0.45c-0.4,-0.2 -0.81667,-0.38333 -1.25,-0.55c-0.16667,0.03333 -0.33333,0.06667 -0.5,0.1c-0.1,0.03333 -0.2,0.06667 -0.3,0.1c-0.1,0.06667 -0.21667,0.11667 -0.35,0.15c-0.1,0.1 -0.18333,0.2 -0.25,0.3c-0.1,0.06667 -0.2,0.15 -0.3,0.25c-0.06667,0.1 -0.15,0.18333 -0.25,0.25c-0.03333,0.1 -0.06667,0.2 -0.1,0.3c-0.03333,0.06667 -0.06667,0.15 -0.1,0.25c0,0.1 -0.01667,0.18333 -0.05,0.25c0,0.03333 0,0.08333 0,0.15c-1.3,0.76667 -2.46667,1.8 -3.5,3.1c-0.06667,0.06667 -0.11667,0.15 -0.15,0.25c-0.03333,0.1 -0.08333,0.18333 -0.15,0.25c-0.03333,0.1 -0.08333,0.2 -0.15,0.3c-0.1,0.06667 -0.18333,0.15 -0.25,0.25c-0.53333,0.7 -1.05,1.41667 -1.55,2.15c-0.3,0.43333 -0.56667,0.88333 -0.8,1.35c-1.03333,0.9 -1.93333,1.93333 -2.7,3.1c-0.6,0.96667 -1.21667,1.9 -1.85,2.8c-0.16667,0.16667 -0.33333,0.33333 -0.5,0.5c-0.33333,0.33333 -0.61667,0.7 -0.85,1.1c-0.16667,0.3 -0.4,0.53333 -0.7,0.7c-0.76667,-0.56667 -1.46667,-1.2 -2.1,-1.9c-0.5,-0.56667 -1.01667,-1.11667 -1.55,-1.65c-0.1,-0.3 -0.25,-0.58333 -0.45,-0.85c-0.16667,-0.26667 -0.33333,-0.53333 -0.5,-0.8c-0.06667,-0.16667 -0.13333,-0.33333 -0.2,-0.5c0.06667,-0.1 0.15,-0.2 0.25,-0.3c0.16667,-0.16667 0.33333,-0.35 0.5,-0.55c0.13333,-0.16667 0.26667,-0.33333 0.4,-0.5c0.03333,-0.1 0.06667,-0.18333 0.1,-0.25c0.16667,-0.2 0.33333,-0.38333 0.5,-0.55c0.26667,-0.26667 0.53333,-0.55 0.8,-0.85c0.13333,-0.16667 0.26667,-0.33333 0.4,-0.5c0.2,-0.16667 0.38333,-0.36667 0.55,-0.6c0.26667,-0.33333 0.53333,-0.66667 0.8,-1c0.16667,-0.23333 0.3,-0.5 0.4,-0.8c0.96667,-0.76667 1.83333,-1.61667 2.6,-2.55c0.83333,-1 1.78333,-1.85 2.85,-2.55c1.2,-1.6 2.61667,-3.01667 4.25,-4.25c1.53333,-1.16667 2.31667,-2.7 2.35,-4.6c-0.4,-1.16667 -1.03333,-2.21667 -1.9,-3.15c-0.83333,-0.86667 -1.61667,-1.76667 -2.35,-2.7c-0.06667,-0.1 -0.13333,-0.2 -0.2,-0.3c-0.43333,-0.76667 -0.93333,-1.48333 -1.5,-2.15c-0.36667,-0.46667 -0.75,-0.9 -1.15,-1.3c-1,-1.33333 -2.03333,-2.66667 -3.1,-4c-1,-1.23333 -1.96667,-2.5 -2.9,-3.8c-0.03333,-0.06667 -0.08333,-0.15 -0.15,-0.25c-0.53333,-0.66667 -0.98333,-1.36667 -1.35,-2.1c-0.23333,-0.46667 -0.48333,-0.93333 -0.75,-1.4c1.73333,-0.86667 3.5,-1.6 5.3,-2.2c0.06667,-0.06667 0.15,-0.13333 0.25,-0.2c0.13333,-0.1 0.25,-0.18333 0.35,-0.25c0.63333,-0.2 1.21667,-0.5 1.75,-0.9c0.73333,-0.5 1.36667,-0.61667 1.9,-0.35c0.06667,0.06667 0.11667,0.15 0.15,0.25c0.43333,1.3 0.93333,2.58333 1.5,3.85c0.4,0.9 0.86667,1.76667 1.4,2.6c0.06667,0.26667 0.15,0.51667 0.25,0.75c0.3,0.8 0.61667,1.6 0.95,2.4c0.26667,0.53333 0.43333,1.08333 0.5,1.65c0.2,0.23333 0.35,0.5 0.45,0.8c0.2,0.63333 0.41667,1.26667 0.65,1.9c0.16667,0.46667 0.36667,0.9 0.6,1.3c0.1,0.1 0.18333,0.2 0.25,0.3c0.1,0.06667 0.2,0.15 0.3,0.25c0.16667,0.16667 0.33333,0.35 0.5,0.55c0.66667,0.36667 1.35,0.53333 2.05,0.5c0.83333,0 1.51667,-0.28333 2.05,-0.85c0.66667,-1 1.46667,-1.86667 2.4,-2.6c1.26667,-1 2.43333,-2.1 3.5,-3.3c0.06667,-0.1 0.13333,-0.2 0.2,-0.3c0.03333,-0.06667 0.06667,-0.15 0.1,-0.25c0.03333,-0.1 0.08333,-0.18333 0.15,-0.25c0.73333,-0.8 1.45,-1.58333 2.15,-2.35c0.66667,-0.76667 1.35,-1.5 2.05,-2.2c0.06667,-0.1 0.11667,-0.2 0.15,-0.3c0.06667,-0.06667 0.11667,-0.15 0.15,-0.25c0.03333,-0.1 0.08333,-0.18333 0.15,-0.25c0.83333,-0.8 1.65,-1.6 2.45,-2.4c0.76667,-0.8 1.56667,-1.58333 2.4,-2.35c0,0.1 0.03333,0.18333 0.1,0.25z" fill="#ffffff"/></g></g></svg>