<svg version="1.1" xmlns="http://www.w3.org/2000/svg" xmlns:xlink="http://www.w3.org/1999/xlink" width="45.2842" height="66.51765" viewBox="0,0,45.2842,66.51765"><g transform="translate(-613.04306,-337.20051)"><g data-paper-data="{&quot;isPaintingLayer&quot;:true}" fill-rule="nonzero" stroke="none" stroke-width="1" stroke-linecap="round" stroke-linejoin="miter" stroke-miterlimit="4" stroke-dasharray="" stroke-dashoffset="0" style="mix-blend-mode: normal"><path d="M622.1155,342.20051c0.3,-0.13333 1.35,-0.63333 3.15,-1.5l3.65,-1.8c1.43333,-0.63333 2.7,-1.08333 3.8,-1.35c2.1,-0.46667 4.75,-0.46667 7.95,0c3.8,0.53333 6.76667,1.55 8.9,3.05c2.86667,2.03333 5.01667,5.1 6.45,9.2c1,2.9 1.7,6.75 2.1,11.55c0.4,4.93333 0.23333,8.95 -0.5,12.05c-0.7,3.06667 -2.26667,6.6 -4.7,10.6c-3.1,5.16667 -6.21667,9.25 -9.35,12.25c-4.03333,3.8 -8.31667,6.18333 -12.85,7.15c-2.86667,0.6 -5.23333,0.35 -7.1,-0.75c-1.1,-0.66667 -1.95,-1.6 -2.55,-2.8c-0.63333,-1.3 -0.78333,-2.58333 -0.45,-3.85c0.26667,-1.06667 0.91667,-2.11667 1.95,-3.15c1.23333,-1.13333 2.15,-2 2.75,-2.6c0.5,-0.5 1.33333,-1.5 2.5,-3c2.63333,-3.6 4.7,-6.65 6.2,-9.15c-4.23333,0.13333 -7.63333,-0.23333 -10.2,-1.1c-3.73333,-1.2 -6.51667,-3.28333 -8.35,-6.25c-2.4,-3.8 -3.01667,-8.78333 -1.85,-14.95c0.93333,-5.33333 2.81667,-9.23333 5.65,-11.7c0.76667,-0.63333 1.71667,-1.26667 2.85,-1.9M632.0155,344.05051c-1.3,0.63333 -3.25,1.5 -5.85,2.6c-2.26667,1.13333 -3.95,2.46667 -5.05,4c-1.33333,1.83333 -2.21667,4.43333 -2.65,7.8c-0.26667,2.56667 -0.16667,4.71667 0.3,6.45c0.6,2.36667 1.75,4.03333 3.45,5c2.53333,1.3 5.23333,2.05 8.1,2.25c2.83333,0.23333 5.6,-0.1 8.3,-1c1.3,-0.43333 2.23333,-0.56667 2.8,-0.4c0.36667,0.13333 0.71667,0.38333 1.05,0.75c0.3,0.4 0.48333,0.83333 0.55,1.3c0.2,1.03333 -0.26667,2.38333 -1.4,4.05l-9.2,13.6c-1.16667,1.7 -2.08333,2.85 -2.75,3.45c-1.2,1.16667 -2.41667,1.76667 -3.65,1.8l-0.5,1.4c2.06667,1 4.7,0.73333 7.9,-0.8c3.33333,-1.6 6.33333,-3.9 9,-6.9c1.53333,-1.7 3.46667,-4.48333 5.8,-8.35c2.1,-3.36667 3.46667,-6.11667 4.1,-8.25c0.56667,-2.03333 0.83333,-4.4 0.8,-7.1c0,-1.5 -0.15,-3.68333 -0.45,-6.55c-0.56667,-3.4 -1.1,-5.8 -1.6,-7.2c-0.9,-2.63333 -2.21667,-4.63333 -3.95,-6c-1.6,-1.23333 -4.06667,-2.06667 -7.4,-2.5c-1.66667,-0.23333 -3.08333,-0.33333 -4.25,-0.3c-1.53333,0.1 -2.86667,0.45 -4,1.05l0.55,-0.15M641.4655,351.30051c1.06667,0.5 1.65,1.26667 1.75,2.3c0.1,0.9 -0.3,1.93333 -1.2,3.1c-1.03333,1.4 -2.2,2.65 -3.5,3.75c-0.56667,0.46667 -0.95,0.83333 -1.15,1.1l-0.7,0.95c-0.73333,0.9 -2.05,1.55 -3.95,1.95c-1.9,0.36667 -3.38333,0.33333 -4.45,-0.1c-0.73333,-0.33333 -1.36667,-0.9 -1.9,-1.7c-0.5,-0.8 -0.76667,-1.66667 -0.8,-2.6c-0.03333,-1.33333 0.38333,-2.63333 1.25,-3.9c0.73333,-1 1.73333,-1.88333 3,-2.65c2.66667,-1.66667 5.63333,-2.55 8.9,-2.65c1.2,0 2.11667,0.15 2.75,0.45M635.1655,357.55051l0.4,-0.55c-0.66667,0.23333 -1.35,0.55 -2.05,0.95c0.43333,-0.23333 0.86667,-0.31667 1.3,-0.25l0.2,-0.05z" fill="#000000"/><path d="M631.4655,344.20051c1.13333,-0.6 2.46667,-0.95 4,-1.05c1.16667,-0.03333 2.58333,0.06667 4.25,0.3c3.33333,0.43333 5.8,1.26667 7.4,2.5c1.73333,1.36667 3.05,3.36667 3.95,6c0.5,1.4 1.03333,3.8 1.6,7.2c0.3,2.86667 0.45,5.05 0.45,6.55c0.03333,2.7 -0.23333,5.06667 -0.8,7.1c-0.63333,2.13333 -2,4.88333 -4.1,8.25c-2.33333,3.86667 -4.26667,6.65 -5.8,8.35c-2.66667,3 -5.66667,5.3 -9,6.9c-3.2,1.53333 -5.83333,1.8 -7.9,0.8l0.5,-1.4c1.23333,-0.03333 2.45,-0.63333 3.65,-1.8c0.66667,-0.6 1.58333,-1.75 2.75,-3.45l9.2,-13.6c1.13333,-1.66667 1.6,-3.01667 1.4,-4.05c-0.06667,-0.46667 -0.25,-0.9 -0.55,-1.3c-0.33333,-0.36667 -0.68333,-0.61667 -1.05,-0.75c-0.56667,-0.16667 -1.5,-0.03333 -2.8,0.4c-2.7,0.9 -5.46667,1.23333 -8.3,1c-2.86667,-0.2 -5.56667,-0.95 -8.1,-2.25c-1.7,-0.96667 -2.85,-2.63333 -3.45,-5c-0.46667,-1.73333 -0.56667,-3.88333 -0.3,-6.45c0.43333,-3.36667 1.31667,-5.96667 2.65,-7.8c1.1,-1.53333 2.78333,-2.86667 5.05,-4c2.6,-1.1 4.55,-1.96667 5.85,-2.6l-0.55,0.15M629.8155,353.50051c-1.26667,0.76667 -2.26667,1.65 -3,2.65c-0.86667,1.26667 -1.28333,2.56667 -1.25,3.9c0.03333,0.93333 0.3,1.8 0.8,2.6c0.53333,0.8 1.16667,1.36667 1.9,1.7c1.06667,0.43333 2.55,0.46667 4.45,0.1c1.9,-0.4 3.21667,-1.05 3.95,-1.95l0.7,-0.95c0.2,-0.26667 0.58333,-0.63333 1.15,-1.1c1.3,-1.1 2.46667,-2.35 3.5,-3.75c0.9,-1.16667 1.3,-2.2 1.2,-3.1c-0.1,-1.03333 -0.68333,-1.8 -1.75,-2.3c-0.63333,-0.3 -1.55,-0.45 -2.75,-0.45c-3.26667,0.1 -6.23333,0.98333 -8.9,2.65z" fill="#ffffff"/></g></g></svg>