<svg version="1.1" xmlns="http://www.w3.org/2000/svg" xmlns:xlink="http://www.w3.org/1999/xlink" width="138.58623" height="141.30308" viewBox="0,0,138.58623,141.30308"><g transform="translate(-570.70688,-289.34846)"><g data-paper-data="{&quot;isPaintingLayer&quot;:true}" fill-rule="nonzero" stroke="none" stroke-width="1" stroke-linecap="butt" stroke-linejoin="miter" stroke-miterlimit="10" stroke-dasharray="" stroke-dashoffset="0" style="mix-blend-mode: normal"><g><path d="M658.66777,333.89846c1.23333,-0.7 2.51666,-1.46666 3.85,-2.3c0.26667,-0.16667 0.53334,-0.33334 0.8,-0.5c-0.73333,0.5 -1.53333,1.03333 -2.4,1.6c-0.66666,0.43333 -1.33334,0.83333 -2,1.2c-0.1,0 -0.18334,0 -0.25,0M681.66777,340.69846c1.3,0.03334 2.73333,0.08333 4.3,0.15c0.26666,0.03333 0.51666,0.05 0.75,0.05c0.93333,0.03334 2.3,0.08334 4.1,0.15c2.23334,0.03333 4.05,1.01666 5.45,2.95c1.33334,1.83334 2.7,5.31667 4.1,10.45c0.4,7.16667 -0.05,14.31667 -1.35,21.45c-3.73333,0.33334 -6.5,0.68334 -8.3,1.05c-3.5,-0.16666 -8.61667,-0.4 -15.35,-0.7c-18.3,-0.76666 -27.88333,-1.16667 -28.75,-1.2c-1.13333,-0.06667 -2.11666,0.01666 -2.95,0.25c-1.96667,0.43333 -2.91666,1.51666 -2.85,3.25c0,0.36666 0.06667,0.71666 0.2,1.05c-0.46666,-0.86667 -0.7,-1.6 -0.7,-2.2c-0.06666,-1.66666 0.8,-2.7 2.6,-3.1c0.86667,-0.23334 1.81666,-0.31667 2.85,-0.25c0.83334,0.03333 9.96666,0.4 27.4,1.1c6.4,0.3 11.28333,0.55 14.65,0.75c1.73334,-0.36666 4.35,-0.68333 7.85,-0.95c1.23333,-6.86666 1.66666,-13.7 1.3,-20.5c-1.33334,-4.86666 -2.63333,-8.18333 -3.9,-9.95c-1.36667,-1.83334 -3.08334,-2.76666 -5.15,-2.8c-0.73334,-0.03333 -1.38333,-0.05 -1.95,-0.05c-0.8,-0.06666 -1.46667,-0.1 -2,-0.1c-1.76667,-0.06667 -3.35,-0.11667 -4.75,-0.15c-1.5,-0.06666 -3.76667,-0.15 -6.8,-0.25c-3.03334,-0.03333 -12.85,-0.13333 -29.45,-0.3c-0.3,0.03333 -0.8,0 -1.5,-0.1c-0.23334,-0.13333 -0.48334,-0.26666 -0.75,-0.4v-0.05c-0.33334,-0.23334 -0.5,-0.81667 -0.5,-1.75c0.03333,-0.63334 0.35,-1.31667 0.95,-2.05c-0.26667,0.43333 -0.4,0.83333 -0.4,1.2c-0.03333,1 0.13333,1.61667 0.5,1.85v0.05c0.3,0.16666 0.56667,0.31666 0.8,0.45c0.7,0.06667 1.23334,0.1 1.6,0.1c17.43333,0.2 27.71666,0.33334 30.85,0.4c3.26667,0.03333 5.65,0.08333 7.15,0.15M653.61777,309.64846c-5,-6.73334 -7.96667,-10.06666 -8.9,-10c-1.13333,0.13333 -5.05,2.13333 -11.75,6c-5.76667,3.46667 -14.11667,9.08334 -25.05,16.85c-1.4,0.96667 -2.85,1.98334 -4.35,3.05c-14.03333,9.26666 -21.43333,18.21666 -22.2,26.85c0,8.83334 1.3,15.21667 3.9,19.15c1.83334,3.13333 4.25,6.15 7.25,9.05c5.8,4.76666 11.4,9.46666 16.8,14.1c-0.9,-0.66666 -2.03333,-1.55 -3.4,-2.65c2.56666,2.26666 4.76666,4.13333 6.6,5.6c0.86667,0.83333 1.66666,1.5 2.4,2c0.8,0.86666 1.5,1.45 2.1,1.75c15.66666,12.26666 23.98334,18.35 24.95,18.25c1.16666,-0.03333 4.73333,-2.7 10.7,-8c5.2,-4.56667 8.9,-7.98333 11.1,-10.25c1,0.83333 1.71666,1.48333 2.15,1.95c-2.23334,2.36666 -6.26667,6.1 -12.1,11.2c-6.23333,5.56667 -9.95,8.36667 -11.15,8.4c-1.1,0.1 -9.86667,-6.3 -26.3,-19.2c-0.6,-0.33333 -1.33334,-0.95 -2.2,-1.85c-0.8,-0.5 -1.63333,-1.2 -2.5,-2.1c-1.93334,-1.5 -4.25,-3.45 -6.95,-5.85c1.46666,1.16667 2.65,2.08334 3.55,2.75c-5.66666,-4.86666 -11.56667,-9.78333 -17.7,-14.75c-3.13333,-3.13333 -5.63333,-6.31666 -7.5,-9.55c-2.76666,-4.1 -4.13333,-10.8 -4.1,-20.1c0.76666,-9.1 8.53334,-18.5 23.3,-28.2c1.93333,-1.4 3.81667,-2.71666 5.65,-3.95c10.96666,-7.76666 19.38333,-13.43333 25.25,-17c7.03333,-4.03333 11.13333,-6.13333 12.3,-6.3c0.96666,-0.03334 4.08334,3.45 9.35,10.45c5.6,7.16667 8.91666,11.51667 9.95,13.05c-0.7,0.33333 -1.4,0.66666 -2.1,1c-1.3,-1.8 -4.31667,-5.7 -9.05,-11.7z" fill="#ffffff"/><path d="M699.41777,335.29846c5.33334,2.73334 8.56666,8.93334 9.7,18.6c0.53334,8.23334 -0.15,16.5 -2.05,24.8c-3.66666,3.03334 -8.03333,4.76667 -13.1,5.2c-5.86667,-0.06667 -10.18333,-0.06667 -12.95,0c-5.13333,0.23333 -9.2,0.35 -12.2,0.35c-4.76666,0 -9.03333,-0.25 -12.8,-0.75c-0.1,0.03334 -0.21666,0.08334 -0.35,0.15c-0.13333,0.03333 -0.28334,0.06667 -0.45,0.1c0.66666,0.63333 2.26666,1.78334 4.8,3.45c3.23334,2.06667 5.45,3.56667 6.65,4.5c0.6,0.46667 1.18333,0.95 1.75,1.45c4.2,3.8 6.1,7.4 5.7,10.8c-0.53333,3.13334 -5.98333,8.53334 -16.35,16.2c-3.26666,2.53334 -6.7,5.01667 -10.3,7.45c-3.13333,2.1 -4.71667,3.11667 -4.75,3.05c-2.1,0.1 -7.23334,-2.96667 -15.4,-9.2c-4.13333,-3 -8.16666,-6.2 -12.1,-9.6c-2.86667,-2.53334 -7.66666,-6.41667 -14.4,-11.65c-2.8,-2.33333 -5.25,-4.7 -7.35,-7.1c-6,-4.53334 -11.13333,-9.85 -15.4,-15.95c-6.06666,-8.13333 -8.38333,-16.35 -6.95,-24.65c2.16666,-9.73334 8.68333,-19.3 19.55,-28.7c1.46666,-2.73334 7.21666,-7.35 17.25,-13.85c2.8,-1.83333 5.96666,-3.83333 9.5,-6c15.43333,-9.73334 24.63333,-14.6 27.6,-14.6c2.76667,0.1 5.15,0.91666 7.15,2.45c1.8,1.6 4.83334,5.73334 9.1,12.4c4.5,6.86667 7.71666,11.95 9.65,15.25c1.73333,3.2 -0.8,7.08333 -7.6,11.65c-0.26666,0.16666 -0.53333,0.33333 -0.8,0.5c-1.33334,0.83333 -2.61667,1.6 -3.85,2.3c0.06666,0 0.15,0 0.25,0c2.33334,0.2 4.91666,0.41667 7.75,0.65c2.76666,0.1 7.06666,0.01666 12.9,-0.25c2.7,-0.1 4.83334,-0.16667 6.4,-0.2c1.86667,-0.06667 2.93333,-0.1 3.2,-0.1c0.63333,0.06667 2.08334,0.01666 4.35,-0.15c2.2,0.2 4.16666,0.68333 5.9,1.45M664.76777,320.34846c-1.03334,-1.53334 -4.35,-5.88333 -9.95,-13.05c-5.26666,-7 -8.38333,-10.48334 -9.35,-10.45c-1.16666,0.16666 -5.26667,2.26666 -12.3,6.3c-5.86667,3.56667 -14.28334,9.23334 -25.25,17c-1.83334,1.23334 -3.71667,2.55 -5.65,3.95c-14.76666,9.7 -22.53334,19.1 -23.3,28.2c-0.03334,9.3 1.33334,16 4.1,20.1c1.86667,3.23334 4.36667,6.41667 7.5,9.55c6.13333,4.96667 12.03334,9.88334 17.7,14.75c-0.9,-0.66666 -2.08334,-1.58333 -3.55,-2.75c2.7,2.4 5.01666,4.35 6.95,5.85c0.86667,0.9 1.7,1.6 2.5,2.1c0.86667,0.9 1.6,1.51666 2.2,1.85c16.43333,12.9 25.2,19.3 26.3,19.2c1.2,-0.03333 4.91666,-2.83333 11.15,-8.4c5.83334,-5.1 9.86667,-8.83334 12.1,-11.2c-0.43334,-0.46667 -1.15,-1.11667 -2.15,-1.95c-2.4,-2.13334 -6.43333,-5.53334 -12.1,-10.2c-6.3,-5.2 -9.85,-9.06666 -10.65,-11.6c-0.13333,-0.33334 -0.2,-0.68334 -0.2,-1.05c-0.06666,-1.73334 0.88333,-2.81667 2.85,-3.25c0.83334,-0.23334 1.81666,-0.31667 2.95,-0.25c0.86667,0.03333 10.45,0.43333 28.75,1.2c6.73334,0.3 11.85,0.53334 15.35,0.7c1.8,-0.36666 4.56667,-0.71666 8.3,-1.05c1.3,-7.13333 1.75,-14.28333 1.35,-21.45c-1.4,-5.13333 -2.76666,-8.61666 -4.1,-10.45c-1.4,-1.93333 -3.21666,-2.91667 -5.45,-2.95c-1.8,-0.06667 -3.16666,-0.11667 -4.1,-0.15c-0.23334,0 -0.48334,-0.01666 -0.75,-0.05c-1.56667,-0.06667 -3,-0.11667 -4.3,-0.15c-1.5,-0.06667 -3.88333,-0.11667 -7.15,-0.15c-3.13333,-0.06667 -13.41666,-0.2 -30.85,-0.4c-0.36667,0 -0.9,-0.03333 -1.6,-0.1c-0.23333,-0.13334 -0.5,-0.28334 -0.8,-0.45v-0.05c-0.36667,-0.23334 -0.53333,-0.85 -0.5,-1.85c0,-0.36667 0.13333,-0.76666 0.4,-1.2c1,-1.93333 4.08334,-4.56667 9.25,-7.9c3.73333,-2.4 7.81666,-4.81667 12.25,-7.25c0.7,-0.33334 1.4,-0.66667 2.1,-1z" fill="#201e31"/><path d="M650.41777,328.59846c-5.16666,3.33333 -8.25,5.96666 -9.25,7.9c-0.6,0.73334 -0.91667,1.41666 -0.95,2.05c0,0.93333 0.16666,1.51666 0.5,1.75v0.05c0.26666,0.13333 0.51666,0.26666 0.75,0.4c0.7,0.1 1.2,0.13333 1.5,0.1c16.6,0.16666 26.41666,0.26666 29.45,0.3c3.03333,0.1 5.3,0.18334 6.8,0.25c1.4,0.03334 2.98333,0.08334 4.75,0.15c0.53333,0 1.2,0.03334 2,0.1c0.56667,0 1.21666,0.01667 1.95,0.05c2.06666,0.03334 3.78333,0.96666 5.15,2.8c1.26667,1.76666 2.56667,5.08334 3.9,9.95c0.36667,6.8 -0.06667,13.63334 -1.3,20.5c-3.5,0.26667 -6.11667,0.58334 -7.85,0.95c-3.36667,-0.2 -8.25,-0.45 -14.65,-0.75c-17.43334,-0.7 -26.56667,-1.06667 -27.4,-1.1c-1.03333,-0.06667 -1.98333,0.01666 -2.85,0.25c-1.8,0.4 -2.66666,1.43333 -2.6,3.1c0,0.6 0.23334,1.33334 0.7,2.2c0.8,2.53333 4.35,6.4 10.65,11.6c5.66666,4.66667 9.7,8.06667 12.1,10.2c-2.2,2.26666 -5.9,5.68333 -11.1,10.25c-5.96667,5.3 -9.53334,7.96667 -10.7,8c-0.96667,0.1 -9.28334,-5.98333 -24.95,-18.25c-0.6,-0.3 -1.3,-0.88334 -2.1,-1.75c-0.73334,-0.5 -1.53334,-1.16667 -2.4,-2c-1.83334,-1.46667 -4.03334,-3.33334 -6.6,-5.6c1.36667,1.1 2.5,1.98334 3.4,2.65c-5.4,-4.63333 -11,-9.33333 -16.8,-14.1c-3,-2.9 -5.41666,-5.91667 -7.25,-9.05c-2.6,-3.93333 -3.9,-10.31666 -3.9,-19.15c0.76666,-8.63333 8.16666,-17.58333 22.2,-26.85c1.5,-1.06667 2.95,-2.08333 4.35,-3.05c10.93333,-7.76666 19.28333,-13.38333 25.05,-16.85c6.7,-3.86667 10.61667,-5.86667 11.75,-6c0.93333,-0.06666 3.9,3.26666 8.9,10c4.73334,6 7.75,9.9 9.05,11.7c-4.43334,2.43333 -8.51667,4.85 -12.25,7.25M644.11777,342.34846l0.35,0.05l0.05,-0.05c-0.13333,0 -0.26666,0 -0.4,0z" fill="#7e6ab5"/><path d="M644.11777,342.34846c0.13333,0 0.26666,0 0.4,0l-0.05,0.05z" fill="#000000"/></g></g></g></svg>