<svg version="1.1" xmlns="http://www.w3.org/2000/svg" xmlns:xlink="http://www.w3.org/1999/xlink" width="53.05" height="69.51257" viewBox="0,0,53.05,69.51257"><g transform="translate(-608.10811,-337.83784)"><g data-paper-data="{&quot;isPaintingLayer&quot;:true}" fill-rule="nonzero" stroke="none" stroke-width="1" stroke-linecap="butt" stroke-linejoin="miter" stroke-miterlimit="10" stroke-dasharray="" stroke-dashoffset="0" style="mix-blend-mode: normal"><path d="M660.05811,342.63784c0,0.1 0,0.2 0,0.3c0.03333,0.06667 0.06667,0.15 0.1,0.25c0.03333,0.1 0.06667,0.18333 0.1,0.25c0.03333,0.2 0.08333,0.38333 0.15,0.55c0.03333,0.1 0.06667,0.18333 0.1,0.25c0,0.1 0,0.2 0,0.3c0,0.06667 0,0.15 0,0.25c0,0.16667 0,0.35 0,0.55c0,0.06667 0,0.15 0,0.25c0,0.1 0,0.18333 0,0.25c0.03333,0.1 0.06667,0.2 0.1,0.3c0.03333,0.06667 0.06667,0.15 0.1,0.25c0,0.1 0.01667,0.2 0.05,0.3c0,0.16667 0,0.33333 0,0.5c0,0.26667 0,0.53333 0,0.8c0,0.26667 0,0.53333 0,0.8c0,0.1 0,0.2 0,0.3c0,0.06667 0,0.15 0,0.25c0,0.73333 0,1.45 0,2.15c0,0.46667 0,0.91667 0,1.35c0.03333,0.06667 0.06667,0.15 0.1,0.25c0.03333,0.1 0.06667,0.18333 0.1,0.25c0.03333,0.1 0.06667,0.2 0.1,0.3c0.03333,0.06667 0.06667,0.15 0.1,0.25c0,0.1 -0.01667,0.2 -0.05,0.3c0,0.23333 0,0.5 0,0.8c0.03333,0.06667 0.05,0.15 0.05,0.25c0,0.1 -0.01667,0.18333 -0.05,0.25c0,0.26667 -0.03333,0.53333 -0.1,0.8c0,0.1 -0.01667,0.2 -0.05,0.3c-0.16667,0.36667 -0.38333,0.71667 -0.65,1.05c-0.46667,0.5 -1.01667,0.83333 -1.65,1c-0.63333,0.2 -1.28333,0.36667 -1.95,0.5c-3.5,0.73333 -7.05,0.86667 -10.65,0.4c0,0.43333 0.01667,0.86667 0.05,1.3c0.06667,0.36667 0.08333,0.73333 0.05,1.1c0,0.16667 0,0.35 0,0.55c0,1.86667 0,3.73333 0,5.6c0,1.06667 0,2.13333 0,3.2c-0.03333,0.1 -0.06667,0.2 -0.1,0.3c-0.03333,0.06667 -0.06667,0.15 -0.1,0.25c-0.03333,0.1 -0.06667,0.18333 -0.1,0.25c-0.03333,0.1 -0.06667,0.2 -0.1,0.3c0,0.16667 0,0.33333 0,0.5c0,0.26667 0,0.55 0,0.85c0,0.33333 0,0.68333 0,1.05c0,0.1 0,0.18333 0,0.25c0,0.8 0,1.61667 0,2.45c0,0.43333 0,0.86667 0,1.3c0,0.1 -0.01667,0.2 -0.05,0.3c-0.03333,0.06667 -0.06667,0.15 -0.1,0.25c-0.03333,0.1 -0.06667,0.18333 -0.1,0.25c-0.03333,0.1 -0.06667,0.2 -0.1,0.3c0,0.06667 0,0.15 0,0.25c0,0.26667 0,0.53333 0,0.8c0,0.1 0,0.2 0,0.3c0,0.06667 0,0.15 0,0.25c0,0.26667 0,0.53333 0,0.8c0,0.1 0,0.18333 0,0.25c0,0.2 0,0.38333 0,0.55c-0.03333,0.1 -0.06667,0.18333 -0.1,0.25c0,0.1 -0.01667,0.2 -0.05,0.3c-0.03333,0.06667 -0.06667,0.15 -0.1,0.25c-0.03333,0.1 -0.06667,0.18333 -0.1,0.25c0,0.1 0,0.2 0,0.3c0,0.16667 0,0.35 0,0.55c0,0.06667 0,0.15 0,0.25c0,0.1 0,0.18333 0,0.25c0,0.1 0,0.2 0,0.3c0,0.16667 0,0.33333 0,0.5c-0.03333,0.1 -0.06667,0.2 -0.1,0.3c-0.03333,0.06667 -0.05,0.15 -0.05,0.25c-0.03333,0.1 -0.06667,0.18333 -0.1,0.25c-0.03333,0.1 -0.06667,0.2 -0.1,0.3c0,0.06667 0,0.15 0,0.25c0,0.26667 0,0.53333 0,0.8c0,0.1 0,0.2 0,0.3c0,0.06667 0,0.15 0,0.25c-0.06667,0.26667 -0.13333,0.53333 -0.2,0.8c0,0.1 -0.01667,0.18333 -0.05,0.25c-0.03333,0.1 -0.06667,0.2 -0.1,0.3c0,0.43333 -0.06667,0.86667 -0.2,1.3c-0.1,0.36667 -0.16667,0.73333 -0.2,1.1c-0.03333,0.16667 -0.06667,0.35 -0.1,0.55c-0.5,1.96667 -1.21667,3.83333 -2.15,5.6c-0.43333,0.8 -0.98333,1.51667 -1.65,2.15c-4.43333,5.06667 -10.13333,7.08333 -17.1,6.05c-7.06667,-1.06667 -11.5,-4.93333 -13.3,-11.6c-0.16667,-0.63333 -0.35,-1.25 -0.55,-1.85c0,-0.1 0,-0.2 0,-0.3c0,-0.06667 0,-0.15 0,-0.25c0,-0.1 0,-0.18333 0,-0.25c-0.03333,-0.1 -0.06667,-0.2 -0.1,-0.3c-0.03333,-0.06667 -0.06667,-0.15 -0.1,-0.25c-0.03333,-0.1 -0.06667,-0.18333 -0.1,-0.25c-0.03333,-0.1 -0.06667,-0.2 -0.1,-0.3c0,-0.06667 0,-0.15 0,-0.25c0.03333,-0.26667 0.03333,-0.53333 0,-0.8c0,-0.1 0,-0.2 0,-0.3c0,-0.06667 0,-0.15 0,-0.25c0,-0.26667 0,-0.53333 0,-0.8c0,-0.1 -0.01667,-0.18333 -0.05,-0.25c-0.03333,-0.1 -0.06667,-0.2 -0.1,-0.3c-0.03333,-0.06667 -0.06667,-0.15 -0.1,-0.25c-0.03333,-0.1 -0.06667,-0.18333 -0.1,-0.25c0,-0.1 0,-0.2 0,-0.3c0,-0.26667 0,-0.53333 0,-0.8c0,-0.1 0.01667,-0.18333 0.05,-0.25c0,-0.1 0,-0.2 0,-0.3c0.03333,-0.23333 0.05,-0.5 0.05,-0.8c0,-0.06667 0,-0.15 0,-0.25c0,-0.16667 0,-0.35 0,-0.55c-0.03333,-0.06667 -0.06667,-0.15 -0.1,-0.25c-0.03333,-0.1 -0.06667,-0.18333 -0.1,-0.25c0,-0.1 -0.01667,-0.2 -0.05,-0.3c-0.03333,-0.06667 -0.06667,-0.15 -0.1,-0.25c0,-0.36667 0,-0.73333 0,-1.1c0,-0.16667 0,-0.33333 0,-0.5c0,-0.3 0,-0.56667 0,-0.8c0,-0.1 0,-0.2 0,-0.3c0,-1.23333 0,-2.48333 0,-3.75c0,-0.8 0,-1.6 0,-2.4c0.03333,-0.1 0.06667,-0.18333 0.1,-0.25c0.03333,-0.1 0.05,-0.2 0.05,-0.3c0.03333,-0.06667 0.06667,-0.15 0.1,-0.25c0.03333,-0.1 0.05,-0.18333 0.05,-0.25c0,-0.1 0,-0.2 0,-0.3c-0.03333,-0.16667 -0.05,-0.33333 -0.05,-0.5c0,-0.1 0,-0.2 0,-0.3c0.03333,-0.06667 0.06667,-0.15 0.1,-0.25c0.03333,-0.1 0.05,-0.2 0.05,-0.3c0.03333,-0.06667 0.05,-0.15 0.05,-0.25c0.03333,-0.1 0.06667,-0.18333 0.1,-0.25c0.36667,-0.7 0.93333,-1.1 1.7,-1.2c1.96667,-0.3 3.9,-0.71667 5.8,-1.25c2.73333,-0.8 5.2,-0.55 7.4,0.75c0.06667,0.1 0.11667,0.18333 0.15,0.25c0.13333,0.26667 0.25,0.55 0.35,0.85c0.03333,0.06667 0.05,0.15 0.05,0.25c0,0.16667 0.01667,0.33333 0.05,0.5c0,0.2 0,0.38333 0,0.55c0,0.1 0,0.18333 0,0.25c0,0.56667 0,1.11667 0,1.65c0,0.26667 0,0.53333 0,0.8c0.03333,0.06667 0.06667,0.15 0.1,0.25c0.03333,0.1 0.06667,0.18333 0.1,0.25c0.03333,0.1 0.06667,0.2 0.1,0.3c0.03333,0.06667 0.05,0.15 0.05,0.25c0,0.1 0,0.18333 0,0.25c0,0.26667 0,0.55 0,0.85c0,0.06667 0,0.15 0,0.25c0,0.1 0,0.18333 0,0.25c0,0.26667 0,0.53333 0,0.8c0,0.1 0,0.2 0,0.3c0,0.16667 0,0.33333 0,0.5c0.03333,0.1 0.06667,0.2 0.1,0.3c0.03333,0.06667 0.06667,0.15 0.1,0.25c0.03333,0.1 0.06667,0.18333 0.1,0.25c0.03333,0.1 0.06667,0.2 0.1,0.3c0,0.06667 0,0.15 0,0.25c0,0.1 0,0.2 0,0.3c0,0.16667 0,0.33333 0,0.5c0,0.1 0,0.2 0,0.3c0,0.06667 0,0.15 0,0.25c0,0.1 0,0.18333 0,0.25c0.06667,0.2 0.13333,0.38333 0.2,0.55c0.03333,0.1 0.05,0.18333 0.05,0.25c0.03333,0.1 0.05,0.2 0.05,0.3c0.03333,0.06667 0.05,0.15 0.05,0.25c0,0.1 0,0.18333 0,0.25c0.03333,0.1 0.06667,0.2 0.1,0.3c0,0.06667 0.01667,0.15 0.05,0.25c0.03333,0.1 0.06667,0.2 0.1,0.3c0.03333,0.06667 0.06667,0.15 0.1,0.25c0,0.1 0,0.18333 0,0.25c0,0.1 0.01667,0.18333 0.05,0.25c0.03333,0.1 0.06667,0.2 0.1,0.3c0.3,0.2 0.6,0.05 0.9,-0.45c0.06667,-0.1 0.13333,-0.18333 0.2,-0.25c0.23333,-0.33333 0.36667,-0.7 0.4,-1.1c0.03333,-0.06667 0.06667,-0.15 0.1,-0.25c0.4,-0.86667 0.68333,-1.76667 0.85,-2.7c0.06667,-0.43333 0.18333,-0.86667 0.35,-1.3c0,-0.1 0,-0.2 0,-0.3c0.03333,-0.16667 0.05,-0.35 0.05,-0.55c0.03333,-0.06667 0.05,-0.15 0.05,-0.25c0.03333,-0.1 0.08333,-0.18333 0.15,-0.25c0.03333,-0.1 0.06667,-0.2 0.1,-0.3c0,-0.33333 0,-0.68333 0,-1.05c0,-0.26667 0,-0.53333 0,-0.8c0,-0.16667 0,-0.35 0,-0.55c0,-0.1 0,-0.18333 0,-0.25c0,-1.53333 -0.03333,-3.05 -0.1,-4.55c-0.03333,-1.03333 0.11667,-2.01667 0.45,-2.95c0,-0.36667 0,-0.73333 0,-1.1c0,-0.43333 0,-0.86667 0,-1.3c0,-0.1 0,-0.2 0,-0.3c0,-1.6 0.03333,-3.2 0.1,-4.8c0.03333,-1.13333 0.03333,-2.26667 0,-3.4c-2.76667,-0.46667 -5.51667,-0.5 -8.25,-0.1c-1,0.13333 -2,0.23333 -3,0.3c-0.9,0.06667 -1.76667,-0.08333 -2.6,-0.45c-0.1,-0.1 -0.18333,-0.2 -0.25,-0.3c-0.16667,-0.16667 -0.31667,-0.35 -0.45,-0.55c-0.06667,-0.06667 -0.11667,-0.15 -0.15,-0.25c-0.06667,-0.06667 -0.11667,-0.15 -0.15,-0.25c0,-0.1 -0.01667,-0.18333 -0.05,-0.25c0,-0.1 0,-0.2 0,-0.3c0,-0.26667 0,-0.53333 0,-0.8c0,-0.1 0,-0.18333 0,-0.25c0.03333,-0.1 0.05,-0.2 0.05,-0.3c0,-0.26667 0.01667,-0.53333 0.05,-0.8c0,-0.06667 0.01667,-0.15 0.05,-0.25c0,-0.36667 0,-0.71667 0,-1.05c0,-0.2 0,-0.38333 0,-0.55c0.03333,-0.1 0.06667,-0.18333 0.1,-0.25c0.13333,-0.26667 0.23333,-0.55 0.3,-0.85c0.03333,-0.06667 0.06667,-0.15 0.1,-0.25c0,-0.1 0,-0.18333 0,-0.25c0.03333,-0.26667 0.05,-0.53333 0.05,-0.8c0.03333,-0.1 0.06667,-0.2 0.1,-0.3c0.03333,-0.06667 0.06667,-0.15 0.1,-0.25c0.03333,-0.1 0.08333,-0.2 0.15,-0.3c0.03333,-0.06667 0.06667,-0.15 0.1,-0.25c0,-0.1 0,-0.18333 0,-0.25c0,-0.1 0,-0.2 0,-0.3c0,-0.06667 0,-0.15 0,-0.25c0,-0.1 0,-0.18333 0,-0.25c0.03333,-0.1 0.06667,-0.2 0.1,-0.3c0.1,-0.23333 0.2,-0.5 0.3,-0.8c0.03333,-0.06667 0.05,-0.15 0.05,-0.25c0.03333,-0.1 0.05,-0.18333 0.05,-0.25c0,-0.3 0.01667,-0.56667 0.05,-0.8c0.03333,-0.1 0.05,-0.2 0.05,-0.3c0,-0.1 -0.03333,-0.18333 -0.1,-0.25c-0.03333,-0.1 -0.06667,-0.2 -0.1,-0.3c-0.1,-0.16667 -0.18333,-0.33333 -0.25,-0.5c0,-0.1 -0.01667,-0.2 -0.05,-0.3c0,-0.06667 0,-0.15 0,-0.25c0,-0.1 0,-0.18333 0,-0.25c0,-0.1 0,-0.2 0,-0.3c0,-0.06667 0,-0.15 0,-0.25c0.03333,-0.1 0.05,-0.18333 0.05,-0.25c0.03333,-0.1 0.06667,-0.2 0.1,-0.3c0.06667,-0.16667 0.13333,-0.33333 0.2,-0.5c0.03333,-0.1 0.06667,-0.2 0.1,-0.3c0.9,-1.2 2.15,-1.76667 3.75,-1.7c6.86667,0.23333 13.65,0.03333 20.35,-0.6c3.53333,0.06667 7.05,0.23333 10.55,0.5c2.23333,0.2 4.48333,0.41667 6.75,0.65c1.4,0.13333 2.23333,0.9 2.5,2.3c0,0.1 0,0.2 0,0.3c0,0.06667 0,0.15 0,0.25c0,0.16667 0,0.35 0,0.55c0,0.06667 0,0.15 0,0.25M654.20811,345.68784c-0.06667,-0.1 -0.1,-0.2 -0.1,-0.3c-0.03333,-0.06667 -0.05,-0.15 -0.05,-0.25c-3.4,-0.56667 -6.93333,-0.9 -10.6,-1c-0.76667,0 -1.53333,0.01667 -2.3,0.05c-2.43333,0.2 -4.88333,0.41667 -7.35,0.65c-3.3,0.26667 -6.56667,0.33333 -9.8,0.2c-1.33333,-0.06667 -2.65,-0.08333 -3.95,-0.05c0.03333,0.16667 0.06667,0.33333 0.1,0.5c0,0.1 0,0.2 0,0.3c0,0.06667 0,0.15 0,0.25c0,0.16667 0,0.35 0,0.55c-0.03333,0.06667 -0.06667,0.15 -0.1,0.25c-0.03333,0.1 -0.06667,0.18333 -0.1,0.25c-0.03333,0.1 -0.05,0.2 -0.05,0.3c0,0.06667 0,0.15 0,0.25c0,0.1 0,0.18333 0,0.25c0,0.1 0.01667,0.2 0.05,0.3c0,0.1 0,0.18333 0,0.25c0,0.1 0,0.2 0,0.3c-0.03333,0.06667 -0.05,0.15 -0.05,0.25c-0.03333,0.1 -0.06667,0.18333 -0.1,0.25c-0.03333,0.1 -0.06667,0.2 -0.1,0.3c0,0.16667 0,0.33333 0,0.5c0,0.1 0,0.2 0,0.3c0,0.06667 0,0.15 0,0.25c0,0.16667 0,0.35 0,0.55c0,0.06667 0,0.15 0,0.25c3.36667,-0.16667 6.8,-0.45 10.3,-0.85c1.66667,-0.2 3.08333,0.26667 4.25,1.4c0.4,0.43333 0.66667,0.93333 0.8,1.5c0,0.1 0,0.2 0,0.3c0,0.06667 0,0.15 0,0.25c0,0.1 0,0.18333 0,0.25c0,0.1 0,0.2 0,0.3c0.03333,0.06667 0.06667,0.15 0.1,0.25c0.03333,0.1 0.06667,0.18333 0.1,0.25c0.03333,0.1 0.05,0.2 0.05,0.3c0.03333,0.06667 0.06667,0.15 0.1,0.25c0,0.63333 0,1.26667 0,1.9c0,0.43333 0.01667,0.86667 0.05,1.3c0.03333,1.53333 0.05,3.05 0.05,4.55c0,1.36667 0,2.71667 0,4.05c0,0.43333 0.01667,0.88333 0.05,1.35c0.03333,0.66667 -0.1,1.28333 -0.4,1.85c0,0.36667 0,0.71667 0,1.05c0,0.3 0,0.58333 0,0.85c0,0.16667 0,0.33333 0,0.5c0,0.53333 0,1.06667 0,1.6c0,0.83333 0.01667,1.65 0.05,2.45c0.1,1.36667 -0.03333,2.7 -0.4,4c0.03333,0.26667 0.01667,0.53333 -0.05,0.8c-0.03333,0.1 -0.06667,0.18333 -0.1,0.25c-0.16667,0.23333 -0.25,0.5 -0.25,0.8c0,0.1 -0.01667,0.2 -0.05,0.3c-0.1,0.63333 -0.25,1.25 -0.45,1.85c-0.06667,0.3 -0.15,0.58333 -0.25,0.85c-0.36667,0.8 -0.73333,1.6 -1.1,2.4c-0.13333,0.16667 -0.28333,0.33333 -0.45,0.5c-0.06667,0.1 -0.15,0.18333 -0.25,0.25c-0.13333,0.1 -0.25,0.2 -0.35,0.3c-0.43333,0.8 -1.01667,1.45 -1.75,1.95c-0.56667,0.36667 -1.13333,0.71667 -1.7,1.05c-1.76667,1.13333 -3.45,1.06667 -5.05,-0.2c-0.8,-0.63333 -1.55,-1.36667 -2.25,-2.2c-0.03333,-0.26667 -0.1,-0.51667 -0.2,-0.75c-0.03333,-0.1 -0.06667,-0.2 -0.1,-0.3c-0.06667,-0.26667 -0.15,-0.53333 -0.25,-0.8c-0.03333,-0.1 -0.06667,-0.2 -0.1,-0.3c-0.13333,-0.33333 -0.23333,-0.68333 -0.3,-1.05c-0.03333,-0.23333 -0.1,-0.5 -0.2,-0.8c-0.03333,-0.1 -0.06667,-0.18333 -0.1,-0.25c0,-0.1 0,-0.2 0,-0.3c0,-0.06667 0,-0.15 0,-0.25c0,-0.26667 -0.06667,-0.53333 -0.2,-0.8c-0.03333,-0.1 -0.06667,-0.18333 -0.1,-0.25c-0.06667,-0.26667 -0.08333,-0.53333 -0.05,-0.8c0,-0.1 0,-0.2 0,-0.3c0,-0.26667 0,-0.53333 0,-0.8c-0.03333,-0.1 -0.05,-0.18333 -0.05,-0.25c-0.03333,-0.1 -0.06667,-0.2 -0.1,-0.3c-0.03333,-0.06667 -0.06667,-0.15 -0.1,-0.25c-0.03333,-0.1 -0.06667,-0.18333 -0.1,-0.25c0,-0.3 0,-0.56667 0,-0.8c0,-0.1 0,-0.2 0,-0.3c0,-0.23333 0,-0.5 0,-0.8c0,-0.06667 0,-0.15 0,-0.25c0,-0.3 0,-0.56667 0,-0.8c0,-0.1 0,-0.2 0,-0.3c-0.03333,-0.06667 -0.06667,-0.15 -0.1,-0.25c-0.03333,-0.1 -0.05,-0.18333 -0.05,-0.25c-0.03333,-0.1 -0.06667,-0.2 -0.1,-0.3c-0.03333,-0.06667 -0.06667,-0.15 -0.1,-0.25c0,-0.16667 0,-0.35 0,-0.55c0,-0.06667 0,-0.15 0,-0.25c0,-0.1 0,-0.18333 0,-0.25c0,-0.1 0,-0.2 0,-0.3c-0.43333,-0.16667 -0.91667,-0.15 -1.45,0.05c-0.2,0.06667 -0.4,0.13333 -0.6,0.2c-0.36667,0.13333 -0.75,0.21667 -1.15,0.25c-0.43333,0.03333 -0.85,0.11667 -1.25,0.25c-0.03333,0 -0.06667,0.05 -0.1,0.15c-0.1,0.26667 -0.13333,0.53333 -0.1,0.8c0,0.1 0,0.2 0,0.3c0,0.23333 0,0.5 0,0.8c0,0.06667 0,0.15 0,0.25c0,0.43333 0,0.88333 0,1.35c0,0.16667 0,0.33333 0,0.5c0,0.1 0,0.2 0,0.3c0,0.53333 0,1.06667 0,1.6c0.03333,0.3 0.11667,0.56667 0.25,0.8c0.03333,0.1 0.05,0.18333 0.05,0.25c0.06667,0.26667 0.1,0.53333 0.1,0.8c-0.03333,0.1 -0.05,0.2 -0.05,0.3c0,0.26667 0,0.53333 0,0.8c0,0.26667 0,0.53333 0,0.8c0,0.1 0,0.18333 0,0.25c0,0.1 0,0.2 0,0.3c0.13333,0.26667 0.25,0.53333 0.35,0.8c0,0.06667 0.01667,0.15 0.05,0.25c0.06667,0.26667 0.1,0.53333 0.1,0.8c-0.03333,0.1 -0.05,0.2 -0.05,0.3c0,0.26667 0,0.53333 0,0.8c0,0.16667 0,0.33333 0,0.5c0,0.1 0,0.2 0,0.3c0.03333,0.06667 0.06667,0.15 0.1,0.25c0.03333,0.1 0.06667,0.18333 0.1,0.25c0.03333,0.1 0.06667,0.2 0.1,0.3c0.03333,0.06667 0.05,0.15 0.05,0.25c0,0.1 0,0.18333 0,0.25c0,0.1 0,0.2 0,0.3c0.46667,1.3 0.96667,2.58333 1.5,3.85c1.03333,2.43333 2.85,4.05 5.45,4.85c5.6,1.66667 10.16667,0.26667 13.7,-4.2c1.13333,-1.43333 1.86667,-3.05 2.2,-4.85c0.1,-0.63333 0.25,-1.26667 0.45,-1.9c0,-0.1 0,-0.18333 0,-0.25c0,-0.1 0,-0.2 0,-0.3c0,-0.06667 0,-0.15 0,-0.25c0,-0.1 0,-0.18333 0,-0.25c0.03333,-0.1 0.06667,-0.2 0.1,-0.3c0.03333,-0.06667 0.06667,-0.15 0.1,-0.25c0.03333,-0.1 0.06667,-0.18333 0.1,-0.25c0.03333,-0.1 0.06667,-0.2 0.1,-0.3c-0.03333,-0.26667 -0.03333,-0.53333 0,-0.8c0,-0.06667 -0.01667,-0.15 -0.05,-0.25c-0.03333,-0.26667 0,-0.53333 0.1,-0.8c0,-0.1 0.01667,-0.18333 0.05,-0.25c0.06667,-0.3 0.15,-0.58333 0.25,-0.85c0,-0.26667 0,-0.53333 0,-0.8c0,-0.06667 0,-0.15 0,-0.25c0,-0.26667 0,-0.53333 0,-0.8c0.03333,-0.1 0.05,-0.2 0.05,-0.3c0,-0.26667 0.06667,-0.53333 0.2,-0.8c0.03333,-0.06667 0.06667,-0.15 0.1,-0.25c0,-0.26667 0,-0.53333 0,-0.8c0,-0.1 0,-0.18333 0,-0.25c0,-0.3 0,-0.56667 0,-0.8c0,-0.1 0,-0.2 0,-0.3c0,-0.26667 0.01667,-0.53333 0.05,-0.8c0.03333,-0.26667 0.08333,-0.53333 0.15,-0.8c0,-0.1 0.01667,-0.18333 0.05,-0.25c0.03333,-0.1 0.06667,-0.2 0.1,-0.3c0,-0.23333 0,-0.5 0,-0.8c0,-0.06667 0,-0.15 0,-0.25c0,-0.26667 0,-0.53333 0,-0.8c0,-0.1 0,-0.18333 0,-0.25c0,-0.46667 0,-0.91667 0,-1.35c0,-0.2 0,-0.38333 0,-0.55c0,-0.1 0,-0.18333 0,-0.25c0,-0.53333 0,-1.06667 0,-1.6c0.03333,-0.1 0.06667,-0.2 0.1,-0.3c0.03333,-0.06667 0.06667,-0.15 0.1,-0.25c0,-0.1 0.01667,-0.2 0.05,-0.3c0.03333,-0.06667 0.06667,-0.15 0.1,-0.25c0,-0.63333 0,-1.25 0,-1.85c0,-0.46667 0,-0.91667 0,-1.35c0,-1.53333 0.01667,-3.05 0.05,-4.55c0.03333,-1.33333 0.05,-2.68333 0.05,-4.05c0,-0.43333 0,-0.86667 0,-1.3c0,-0.63333 0,-1.26667 0,-1.9c0.03333,-0.1 0.06667,-0.18333 0.1,-0.25c0.03333,-0.1 0.05,-0.2 0.05,-0.3c0.03333,-0.06667 0.06667,-0.15 0.1,-0.25c0.03333,-0.1 0.06667,-0.18333 0.1,-0.25c0.1,-0.1 0.18333,-0.2 0.25,-0.3c0.06667,-0.06667 0.13333,-0.15 0.2,-0.25c0.1,-0.1 0.18333,-0.18333 0.25,-0.25c1.06667,-0.7 2.2,-0.83333 3.4,-0.4c0.36667,0.1 0.73333,0.15 1.1,0.15c2.76667,0.1 5.53333,0.15 8.3,0.15c0.06667,-0.03333 0.15,-0.06667 0.25,-0.1c0.13333,-0.06667 0.28333,-0.11667 0.45,-0.15c0,-0.3 0,-0.58333 0,-0.85c0,-0.06667 0,-0.15 0,-0.25c0,-0.26667 0,-0.53333 0,-0.8c0,-0.1 0,-0.18333 0,-0.25c0,-0.36667 0,-0.73333 0,-1.1c0,-0.26667 0,-0.53333 0,-0.8c0,-0.1 0,-0.18333 0,-0.25c0,-0.2 0,-0.38333 0,-0.55c-0.06667,-0.16667 -0.11667,-0.35 -0.15,-0.55c-0.03333,-0.06667 -0.05,-0.15 -0.05,-0.25c-0.03333,-0.1 -0.05,-0.18333 -0.05,-0.25c0,-0.2 0,-0.38333 0,-0.55c0,-0.1 0,-0.18333 0,-0.25c-0.03333,-0.1 -0.08333,-0.2 -0.15,-0.3c-0.03333,-0.06667 -0.06667,-0.15 -0.1,-0.25z" fill="#000000"/><path d="M654.45811,346.48784c0,0.16667 0,0.35 0,0.55c0,0.06667 0.01667,0.15 0.05,0.25c0,0.1 0.01667,0.18333 0.05,0.25c0.03333,0.2 0.08333,0.38333 0.15,0.55c0,0.16667 0,0.35 0,0.55c0,0.06667 0,0.15 0,0.25c0,0.26667 0,0.53333 0,0.8c0,0.36667 0,0.73333 0,1.1c0,0.06667 0,0.15 0,0.25c0,0.26667 0,0.53333 0,0.8c0,0.1 0,0.18333 0,0.25c0,0.26667 0,0.55 0,0.85c-0.16667,0.03333 -0.31667,0.08333 -0.45,0.15c-0.1,0.03333 -0.18333,0.06667 -0.25,0.1c-2.76667,0 -5.53333,-0.05 -8.3,-0.15c-0.36667,0 -0.73333,-0.05 -1.1,-0.15c-1.2,-0.43333 -2.33333,-0.3 -3.4,0.4c-0.06667,0.06667 -0.15,0.15 -0.25,0.25c-0.06667,0.1 -0.13333,0.18333 -0.2,0.25c-0.06667,0.1 -0.15,0.2 -0.25,0.3c-0.03333,0.06667 -0.06667,0.15 -0.1,0.25c-0.03333,0.1 -0.06667,0.18333 -0.1,0.25c0,0.1 -0.01667,0.2 -0.05,0.3c-0.03333,0.06667 -0.06667,0.15 -0.1,0.25c0,0.63333 0,1.26667 0,1.9c0,0.43333 0,0.86667 0,1.3c0,1.36667 -0.01667,2.71667 -0.05,4.05c-0.03333,1.5 -0.05,3.01667 -0.05,4.55c0,0.43333 0,0.88333 0,1.35c0,0.6 0,1.21667 0,1.85c-0.03333,0.1 -0.06667,0.18333 -0.1,0.25c-0.03333,0.1 -0.05,0.2 -0.05,0.3c-0.03333,0.1 -0.06667,0.18333 -0.1,0.25c-0.03333,0.1 -0.06667,0.2 -0.1,0.3c0,0.53333 0,1.06667 0,1.6c0,0.06667 0,0.15 0,0.25c0,0.16667 0,0.35 0,0.55c0,0.43333 0,0.88333 0,1.35c0,0.06667 0,0.15 0,0.25c0,0.26667 0,0.53333 0,0.8c0,0.1 0,0.18333 0,0.25c0,0.3 0,0.56667 0,0.8c-0.03333,0.1 -0.06667,0.2 -0.1,0.3c-0.03333,0.06667 -0.05,0.15 -0.05,0.25c-0.06667,0.26667 -0.11667,0.53333 -0.15,0.8c-0.03333,0.26667 -0.05,0.53333 -0.05,0.8c0,0.1 0,0.2 0,0.3c0,0.23333 0,0.5 0,0.8c0,0.06667 0,0.15 0,0.25c0,0.26667 0,0.53333 0,0.8c-0.03333,0.1 -0.06667,0.18333 -0.1,0.25c-0.13333,0.26667 -0.2,0.53333 -0.2,0.8c0,0.1 -0.01667,0.2 -0.05,0.3c0,0.26667 0,0.53333 0,0.8c0,0.1 0,0.18333 0,0.25c0,0.26667 0,0.53333 0,0.8c-0.1,0.26667 -0.18333,0.55 -0.25,0.85c-0.03333,0.06667 -0.05,0.15 -0.05,0.25c-0.1,0.26667 -0.13333,0.53333 -0.1,0.8c0.03333,0.1 0.05,0.18333 0.05,0.25c-0.03333,0.26667 -0.03333,0.53333 0,0.8c-0.03333,0.1 -0.06667,0.2 -0.1,0.3c-0.03333,0.06667 -0.06667,0.15 -0.1,0.25c-0.03333,0.1 -0.06667,0.18333 -0.1,0.25c-0.03333,0.1 -0.06667,0.2 -0.1,0.3c0,0.06667 0,0.15 0,0.25c0,0.1 0,0.18333 0,0.25c0,0.1 0,0.2 0,0.3c0,0.06667 0,0.15 0,0.25c-0.2,0.63333 -0.35,1.26667 -0.45,1.9c-0.33333,1.8 -1.06667,3.41667 -2.2,4.85c-3.53333,4.46667 -8.1,5.86667 -13.7,4.2c-2.6,-0.8 -4.41667,-2.41667 -5.45,-4.85c-0.53333,-1.26667 -1.03333,-2.55 -1.5,-3.85c0,-0.1 0,-0.2 0,-0.3c0,-0.06667 0,-0.15 0,-0.25c0,-0.1 -0.01667,-0.18333 -0.05,-0.25c-0.03333,-0.1 -0.06667,-0.2 -0.1,-0.3c-0.03333,-0.06667 -0.06667,-0.15 -0.1,-0.25c-0.03333,-0.1 -0.06667,-0.18333 -0.1,-0.25c0,-0.1 0,-0.2 0,-0.3c0,-0.16667 0,-0.33333 0,-0.5c0,-0.26667 0,-0.53333 0,-0.8c0,-0.1 0.01667,-0.2 0.05,-0.3c0,-0.26667 -0.03333,-0.53333 -0.1,-0.8c-0.03333,-0.1 -0.05,-0.18333 -0.05,-0.25c-0.1,-0.26667 -0.21667,-0.53333 -0.35,-0.8c0,-0.1 0,-0.2 0,-0.3c0,-0.06667 0,-0.15 0,-0.25c0,-0.26667 0,-0.53333 0,-0.8c0,-0.26667 0,-0.53333 0,-0.8c0,-0.1 0.01667,-0.2 0.05,-0.3c0,-0.26667 -0.03333,-0.53333 -0.1,-0.8c0,-0.06667 -0.01667,-0.15 -0.05,-0.25c-0.13333,-0.23333 -0.21667,-0.5 -0.25,-0.8c0,-0.53333 0,-1.06667 0,-1.6c0,-0.1 0,-0.2 0,-0.3c0,-0.16667 0,-0.33333 0,-0.5c0,-0.46667 0,-0.91667 0,-1.35c0,-0.1 0,-0.18333 0,-0.25c0,-0.3 0,-0.56667 0,-0.8c0,-0.1 0,-0.2 0,-0.3c-0.03333,-0.26667 0,-0.53333 0.1,-0.8c0.03333,-0.1 0.06667,-0.15 0.1,-0.15c0.4,-0.13333 0.81667,-0.21667 1.25,-0.25c0.4,-0.03333 0.78333,-0.11667 1.15,-0.25c0.2,-0.06667 0.4,-0.13333 0.6,-0.2c0.53333,-0.2 1.01667,-0.21667 1.45,-0.05c0,0.1 0,0.2 0,0.3c0,0.06667 0,0.15 0,0.25c0,0.1 0,0.18333 0,0.25c0,0.2 0,0.38333 0,0.55c0.03333,0.1 0.06667,0.18333 0.1,0.25c0.03333,0.1 0.06667,0.2 0.1,0.3c0,0.06667 0.01667,0.15 0.05,0.25c0.03333,0.1 0.06667,0.18333 0.1,0.25c0,0.1 0,0.2 0,0.3c0,0.23333 0,0.5 0,0.8c0,0.1 0,0.18333 0,0.25c0,0.3 0,0.56667 0,0.8c0,0.1 0,0.2 0,0.3c0,0.23333 0,0.5 0,0.8c0.03333,0.06667 0.06667,0.15 0.1,0.25c0.03333,0.1 0.06667,0.18333 0.1,0.25c0.03333,0.1 0.06667,0.2 0.1,0.3c0,0.06667 0.01667,0.15 0.05,0.25c0,0.26667 0,0.53333 0,0.8c0,0.1 0,0.2 0,0.3c-0.03333,0.26667 -0.01667,0.53333 0.05,0.8c0.03333,0.06667 0.06667,0.15 0.1,0.25c0.13333,0.26667 0.2,0.53333 0.2,0.8c0,0.1 0,0.18333 0,0.25c0,0.1 0,0.2 0,0.3c0.03333,0.06667 0.06667,0.15 0.1,0.25c0.1,0.3 0.16667,0.56667 0.2,0.8c0.06667,0.36667 0.16667,0.71667 0.3,1.05c0.03333,0.1 0.06667,0.2 0.1,0.3c0.1,0.26667 0.18333,0.53333 0.25,0.8c0.03333,0.1 0.06667,0.2 0.1,0.3c0.1,0.23333 0.16667,0.48333 0.2,0.75c0.7,0.83333 1.45,1.56667 2.25,2.2c1.6,1.26667 3.28333,1.33333 5.05,0.2c0.56667,-0.33333 1.13333,-0.68333 1.7,-1.05c0.73333,-0.5 1.31667,-1.15 1.75,-1.95c0.1,-0.1 0.21667,-0.2 0.35,-0.3c0.1,-0.06667 0.18333,-0.15 0.25,-0.25c0.16667,-0.16667 0.31667,-0.33333 0.45,-0.5c0.36667,-0.8 0.73333,-1.6 1.1,-2.4c0.1,-0.26667 0.18333,-0.55 0.25,-0.85c0.2,-0.6 0.35,-1.21667 0.45,-1.85c0.03333,-0.1 0.05,-0.2 0.05,-0.3c0,-0.3 0.08333,-0.56667 0.25,-0.8c0.03333,-0.06667 0.06667,-0.15 0.1,-0.25c0.06667,-0.26667 0.08333,-0.53333 0.05,-0.8c0.36667,-1.3 0.5,-2.63333 0.4,-4c-0.03333,-0.8 -0.05,-1.61667 -0.05,-2.45c0,-0.53333 0,-1.06667 0,-1.6c0,-0.16667 0,-0.33333 0,-0.5c0,-0.26667 0,-0.55 0,-0.85c0,-0.33333 0,-0.68333 0,-1.05c0.3,-0.56667 0.43333,-1.18333 0.4,-1.85c-0.03333,-0.46667 -0.05,-0.91667 -0.05,-1.35c0,-1.33333 0,-2.68333 0,-4.05c0,-1.5 -0.01667,-3.01667 -0.05,-4.55c-0.03333,-0.43333 -0.05,-0.86667 -0.05,-1.3c0,-0.63333 0,-1.26667 0,-1.9c-0.03333,-0.1 -0.06667,-0.18333 -0.1,-0.25c0,-0.1 -0.01667,-0.2 -0.05,-0.3c-0.03333,-0.06667 -0.06667,-0.15 -0.1,-0.25c-0.03333,-0.1 -0.06667,-0.18333 -0.1,-0.25c0,-0.1 0,-0.2 0,-0.3c0,-0.06667 0,-0.15 0,-0.25c0,-0.1 0,-0.18333 0,-0.25c0,-0.1 0,-0.2 0,-0.3c-0.13333,-0.56667 -0.4,-1.06667 -0.8,-1.5c-1.16667,-1.13333 -2.58333,-1.6 -4.25,-1.4c-3.5,0.4 -6.93333,0.68333 -10.3,0.85c0,-0.1 0,-0.18333 0,-0.25c0,-0.2 0,-0.38333 0,-0.55c0,-0.1 0,-0.18333 0,-0.25c0,-0.1 0,-0.2 0,-0.3c0,-0.16667 0,-0.33333 0,-0.5c0.03333,-0.1 0.06667,-0.2 0.1,-0.3c0.03333,-0.06667 0.06667,-0.15 0.1,-0.25c0,-0.1 0.01667,-0.18333 0.05,-0.25c0,-0.1 0,-0.2 0,-0.3c0,-0.06667 0,-0.15 0,-0.25c-0.03333,-0.1 -0.05,-0.2 -0.05,-0.3c0,-0.06667 0,-0.15 0,-0.25c0,-0.1 0,-0.18333 0,-0.25c0,-0.1 0.01667,-0.2 0.05,-0.3c0.03333,-0.06667 0.06667,-0.15 0.1,-0.25c0.03333,-0.1 0.06667,-0.18333 0.1,-0.25c0,-0.2 0,-0.38333 0,-0.55c0,-0.1 0,-0.18333 0,-0.25c0,-0.1 0,-0.2 0,-0.3c-0.03333,-0.16667 -0.06667,-0.33333 -0.1,-0.5c1.3,-0.03333 2.61667,-0.01667 3.95,0.05c3.23333,0.13333 6.5,0.06667 9.8,-0.2c2.46667,-0.23333 4.91667,-0.45 7.35,-0.65c0.76667,-0.03333 1.53333,-0.05 2.3,-0.05c3.66667,0.1 7.2,0.43333 10.6,1c0,0.1 0.01667,0.18333 0.05,0.25c0,0.1 0.03333,0.2 0.1,0.3c0.03333,0.1 0.06667,0.18333 0.1,0.25c0.06667,0.1 0.11667,0.2 0.15,0.3c0,0.06667 0,0.15 0,0.25z" fill="#ffffff"/></g></g></svg>