<svg version="1.1" xmlns="http://www.w3.org/2000/svg" xmlns:xlink="http://www.w3.org/1999/xlink" width="45.07" height="69.48672" viewBox="0,0,45.07,69.48672"><g transform="translate(-608.10811,-337.80375)"><g data-paper-data="{&quot;isPaintingLayer&quot;:true}" fill-rule="nonzero" stroke="none" stroke-width="1" stroke-linecap="butt" stroke-linejoin="miter" stroke-miterlimit="10" stroke-dasharray="" stroke-dashoffset="0" style="mix-blend-mode: normal"><path d="M652.95811,356.08784c0.03333,0.43333 0.06667,0.86667 0.1,1.3c0.2,2.73333 0.15,5.43333 -0.15,8.1c-0.03333,0.26667 -0.06667,0.55 -0.1,0.85c-0.36667,2.36667 -0.93333,4.7 -1.7,7c-0.5,1.43333 -1.31667,2.76667 -2.45,4c-0.7,0.8 -1.48333,1.48333 -2.35,2.05c-4.3,3.03333 -9.08333,4.55 -14.35,4.55c-0.6,0 -1.2,0.01667 -1.8,0.05l1.45,19c-1.43333,2.63333 -3.65,3.93333 -6.65,3.9c-1.7,-0.03333 -3.35,0.1 -4.95,0.4c-1.83333,0.03333 -3.51667,-0.25 -5.05,-0.85c-1.03333,-0.33333 -1.98333,-0.78333 -2.85,-1.35c-0.36667,-0.16667 -0.61667,-0.43333 -0.75,-0.8c-0.13333,-0.43333 -0.23333,-0.86667 -0.3,-1.3c-0.2,-1.66667 -0.38333,-3.26667 -0.55,-4.8c-0.06667,-0.8 -0.13333,-1.58333 -0.2,-2.35c-0.2,-1.93333 -0.33333,-3.85 -0.4,-5.75c-0.16667,-5.5 -0.4,-11.01667 -0.7,-16.55c-0.26667,-4.86667 -0.26667,-9.71667 0,-14.55c0.06667,-0.96667 0.11667,-1.91667 0.15,-2.85c0.03333,-0.9 0.11667,-1.8 0.25,-2.7c0.36667,-2.53333 0.41667,-5 0.15,-7.4l-1.65,-2.2c0.03333,-0.33333 0.06667,-0.66667 0.1,-1c0.1,-0.63333 0.4,-1.2 0.9,-1.7c2,-1.73333 4.38333,-2.71667 7.15,-2.95c4,-0.43333 8.06667,-0.5 12.2,-0.2c2.4,0.1 4.8,0.2 7.2,0.3c4.73333,0.3 8.95,1.83333 12.65,4.6c1.63333,1.16667 2.73333,2.71667 3.3,4.65c0.4,1.23333 0.66667,2.5 0.8,3.8c0.16667,1.6 0.35,3.18333 0.55,4.75M646.30811,352.63784c-0.13333,-1.46667 -0.51667,-2.8 -1.15,-4c-2.46667,-2.46667 -5.48333,-3.9 -9.05,-4.3c-5.4,-0.5 -10.81667,-0.45 -16.25,0.15c-2.1,-0.03333 -4.11667,0.25 -6.05,0.85c0.53333,2.63333 0.5,5.21667 -0.1,7.75c0.06667,0.66667 0.15,1.38333 0.25,2.15c0.06667,0.36667 0.08333,0.81667 0.05,1.35c-0.26667,4.43333 -0.28333,8.91667 -0.05,13.45c0.06667,0.93333 0.18333,1.86667 0.35,2.8c0.03333,0.26667 0.05,0.56667 0.05,0.9c0.03333,1.33333 0.1,2.66667 0.2,4c0.23333,3.76667 0.38333,7.51667 0.45,11.25c0,0.16667 0.01667,0.35 0.05,0.55c0.1,1.16667 0.2,2.31667 0.3,3.45c0.26667,2.7 0.53333,5.35 0.8,7.95c1.6,0.6 3.3,0.76667 5.1,0.5c1.6,-0.23333 3.06667,-0.56667 4.4,-1l-1.65,-21.2c0.93333,-2 2.41667,-2.83333 4.45,-2.5c1.06667,0.2 2.13333,0.41667 3.2,0.65c2.8,0.4 5.53333,0.06667 8.2,-1c2.76667,-1.16667 4.63333,-3.1 5.6,-5.8c0.7,-2 1.11667,-4.05 1.25,-6.15c0.03333,-0.36667 0.08333,-0.71667 0.15,-1.05c0.3,-1.63333 0.35,-3.25 0.15,-4.85c-0.26667,-1.96667 -0.5,-3.93333 -0.7,-5.9M639.85811,355.18784c1.3,2.83333 1.16667,5.55 -0.4,8.15c-0.86667,1.4 -2.06667,2.51667 -3.6,3.35c-1.36667,0.66667 -2.83333,1.11667 -4.4,1.35c-2.46667,0.5 -4.86667,0.2 -7.2,-0.9c-0.2,-0.26667 -0.36667,-0.55 -0.5,-0.85c-0.23333,-0.53333 -0.36667,-1.06667 -0.4,-1.6c-0.1,-2.63333 -0.03333,-5.3 0.2,-8c0.03333,-0.43333 -0.03333,-0.95 -0.2,-1.55c-0.16667,-0.56667 -0.23333,-1.03333 -0.2,-1.4c0.16667,-1.86667 1.25,-2.93333 3.25,-3.2c3.83333,-0.56667 7.46667,0.06667 10.9,1.9c1.2,0.73333 2.05,1.65 2.55,2.75M633.85811,360.63784c0.1,-0.1 0.16667,-0.2 0.2,-0.3c0.06667,-0.16667 0.1,-0.31667 0.1,-0.45c0.06667,-0.53333 0.08333,-1.06667 0.05,-1.6c0,-0.2 -0.03333,-0.38333 -0.1,-0.55c-0.46667,-0.23333 -0.93333,-0.45 -1.4,-0.65c-1.6,-0.6 -3.2,-0.8 -4.8,-0.6l0.45,5.1c0.43333,0 0.86667,0.01667 1.3,0.05c1.3,-0.23333 2.6,-0.46667 3.9,-0.7c0.1,-0.1 0.2,-0.2 0.3,-0.3z" fill="#000000"/><path d="M647.00811,358.53784c0.2,1.6 0.15,3.21667 -0.15,4.85c-0.06667,0.33333 -0.11667,0.68333 -0.15,1.05c-0.13333,2.1 -0.55,4.15 -1.25,6.15c-0.96667,2.7 -2.83333,4.63333 -5.6,5.8c-2.66667,1.06667 -5.4,1.4 -8.2,1c-1.06667,-0.23333 -2.13333,-0.45 -3.2,-0.65c-2.03333,-0.33333 -3.51667,0.5 -4.45,2.5l1.65,21.2c-1.33333,0.43333 -2.8,0.76667 -4.4,1c-1.8,0.26667 -3.5,0.1 -5.1,-0.5c-0.26667,-2.6 -0.53333,-5.25 -0.8,-7.95c-0.1,-1.13333 -0.2,-2.28333 -0.3,-3.45c-0.03333,-0.2 -0.05,-0.38333 -0.05,-0.55c-0.06667,-3.73333 -0.21667,-7.48333 -0.45,-11.25c-0.1,-1.33333 -0.16667,-2.66667 -0.2,-4c0,-0.33333 -0.01667,-0.63333 -0.05,-0.9c-0.16667,-0.93333 -0.28333,-1.86667 -0.35,-2.8c-0.23333,-4.53333 -0.21667,-9.01667 0.05,-13.45c0.03333,-0.53333 0.01667,-0.98333 -0.05,-1.35c-0.1,-0.76667 -0.18333,-1.48333 -0.25,-2.15c0.6,-2.53333 0.63333,-5.11667 0.1,-7.75c1.93333,-0.6 3.95,-0.88333 6.05,-0.85c5.43333,-0.6 10.85,-0.65 16.25,-0.15c3.56667,0.4 6.58333,1.83333 9.05,4.3c0.63333,1.2 1.01667,2.53333 1.15,4c0.2,1.96667 0.43333,3.93333 0.7,5.9M626.40811,350.53784c-2,0.26667 -3.08333,1.33333 -3.25,3.2c-0.03333,0.36667 0.03333,0.83333 0.2,1.4c0.16667,0.6 0.23333,1.11667 0.2,1.55c-0.23333,2.7 -0.3,5.36667 -0.2,8c0.03333,0.53333 0.16667,1.06667 0.4,1.6c0.13333,0.3 0.3,0.58333 0.5,0.85c2.33333,1.1 4.73333,1.4 7.2,0.9c1.56667,-0.23333 3.03333,-0.68333 4.4,-1.35c1.53333,-0.83333 2.73333,-1.95 3.6,-3.35c1.56667,-2.6 1.7,-5.31667 0.4,-8.15c-0.5,-1.1 -1.35,-2.01667 -2.55,-2.75c-3.43333,-1.83333 -7.06667,-2.46667 -10.9,-1.9z" fill="#ffffff"/></g></g></svg>