<svg version="1.1" xmlns="http://www.w3.org/2000/svg" xmlns:xlink="http://www.w3.org/1999/xlink" width="260.25" height="297.86454" viewBox="0,0,260.25,297.86454"><g transform="translate(-512.83459,-212.46503)"><g data-paper-data="{&quot;isPaintingLayer&quot;:true}" fill-rule="nonzero" stroke="none" stroke-width="1" stroke-linecap="round" stroke-linejoin="miter" stroke-miterlimit="4" stroke-dasharray="" stroke-dashoffset="0" style="mix-blend-mode: normal"><path d="M720.28459,494.62958c1.86667,1.7 2.8,4.01667 2.8,6.95c0,2.76667 -1.15,5 -3.45,6.7c-1.83333,1.36667 -3.68333,2.05 -5.55,2.05c-4.3,0 -7.11667,-1.81667 -8.45,-5.45c-0.36667,-1.06667 -0.56667,-2.16667 -0.6,-3.3l0.05,-0.6c0.03333,-2.7 0.96667,-4.85 2.8,-6.45c1.7,-1.46667 3.76667,-2.2 6.2,-2.2c2.43333,0 4.5,0.76667 6.2,2.3M710.68459,503.57958c0,0.06667 0.08333,0.63333 0.25,1.7c0.46667,1.03333 1.38333,1.55 2.75,1.55c1.06667,0 1.86667,-0.41667 2.4,-1.25c0.4,-0.6 0.6,-1.3 0.6,-2.1c0,-2 -1,-3.06667 -3,-3.2c-2,-0.13333 -3,0.96667 -3,3.3M565.38459,459.27958c2.16667,-1.76667 4.78333,-2.65 7.85,-2.65c3.06667,0 5.66667,0.9 7.8,2.7c2.36667,2.03333 3.55,4.78333 3.55,8.25c0,3.7 -1.5,6.46667 -4.5,8.3c-2.1,1.3 -4.35,1.95 -6.75,1.95c-5.3,0 -8.81667,-1.81667 -10.55,-5.45c-0.53333,-1.13333 -0.85,-2.38333 -0.95,-3.75v-1.55c0,-3.26667 1.18333,-5.86667 3.55,-7.8M572.23459,464.77958c-2.5,-0.23333 -3.75,0.95 -3.75,3.55c0,0.06667 0.18333,0.71667 0.55,1.95c0.63333,1.2 1.7,1.8 3.2,1.8c1.33333,0 2.35,-0.51667 3.05,-1.55c0.46667,-0.7 0.7,-1.41667 0.7,-2.15c0,-2.16667 -1.25,-3.36667 -3.75,-3.6M512.83459,437.57958c0,-2.76667 0.98333,-5.05 2.95,-6.85c1.8,-1.63333 3.98333,-2.53333 6.55,-2.7c2.6,-0.13333 4.78333,0.53333 6.55,2c1.96667,1.63333 2.95,3.98333 2.95,7.05c0,2.63333 -0.83333,4.88333 -2.5,6.75c-1.8,2 -4.13333,3 -7,3c-4.7,0 -7.68333,-1.45 -8.95,-4.35c-0.36667,-0.8 -0.55,-2.43333 -0.55,-4.9M518.48459,439.77958c0.63333,1.2 1.71667,1.8 3.25,1.8c1.33333,0 2.33333,-0.5 3,-1.5c0.5,-0.73333 0.75,-1.55 0.75,-2.45c0,-2.83333 -1.25,-4.1 -3.75,-3.8c-2.5,0.33333 -3.75,1.66667 -3.75,4c0,0.06667 0.16667,0.71667 0.5,1.95M531.88459,288.62958l-0.05,-1.55c0,-3.26667 1.1,-5.86667 3.3,-7.8c1.96667,-1.76667 4.36667,-2.65 7.2,-2.65c2.86667,0 5.26667,0.9 7.2,2.7c2.2,2.03333 3.3,4.78333 3.3,8.25c0,2.4 -1,4.66667 -3,6.8c-2.13333,2.3 -4.63333,3.45 -7.5,3.45c-4.66667,0 -7.81667,-1.81667 -9.45,-5.45c-0.53333,-1.13333 -0.86667,-2.38333 -1,-3.75M543.73459,289.57958c0.66667,-0.76667 1,-1.65 1,-2.65c0,-2.46667 -1.35,-3.75 -4.05,-3.85c-2.73333,-0.1 -4.1,1.18333 -4.1,3.85c0,0.7 0.21667,1.41667 0.65,2.15c0.73333,1.2 1.9,1.8 3.5,1.8c1.26667,0 2.26667,-0.43333 3,-1.3M631.08459,223.07958c0,2.16667 -0.83333,4.41667 -2.5,6.75c-2.16667,3 -5,4.5 -8.5,4.5c-5.8,0 -9.63333,-2 -11.5,-6c-0.56667,-1.2 -0.9,-2.5 -1,-3.9v-1.35c0,-3.06667 1.21667,-5.61667 3.65,-7.65c2.23333,-1.8 4.93333,-2.78333 8.1,-2.95c3.2,-0.13333 5.9,0.65 8.1,2.35c2.43333,1.9 3.65,4.65 3.65,8.25M622.33459,222.12958c0,-2.53333 -1.2,-3.78333 -3.6,-3.75c-2.43333,0.06667 -3.65,1.26667 -3.65,3.6l0.4,1.8c0.6,1.2 1.68333,1.8 3.25,1.8c1.1,0 2,-0.41667 2.7,-1.25c0.6,-0.66667 0.9,-1.4 0.9,-2.2M705.58459,245.07958c0,2.76667 -0.81667,5.01667 -2.45,6.75c-1.86667,2 -4.55,3 -8.05,3c-5.23333,0 -8.55,-1.45 -9.95,-4.35c-0.36667,-0.76667 -0.55,-2.4 -0.55,-4.9c0,-2.76667 1.1,-5.05 3.3,-6.85c1.96667,-1.63333 4.36667,-2.53333 7.2,-2.7c2.86667,-0.13333 5.26667,0.53333 7.2,2c2.2,1.63333 3.3,3.98333 3.3,7.05M690.93459,243.22958c0,0.73333 0.18333,1.43333 0.55,2.1c0.63333,1.23333 1.7,1.85 3.2,1.85c1.33333,0 2.33333,-0.53333 3,-1.6c0.5,-0.76667 0.75,-1.58333 0.75,-2.45c0,-2.73333 -1.25,-4.03333 -3.75,-3.9c-2.5,0.13333 -3.75,1.46667 -3.75,4M751.53459,440.82958c2.03333,1.43333 3.05,3.6 3.05,6.5c0,2.7 -1.15,5.21667 -3.45,7.55c-2.26667,2.3 -4.61667,3.45 -7.05,3.45c-4.4,0 -7.21667,-1.45 -8.45,-4.35c-0.36667,-0.86667 -0.55,-2.5 -0.55,-4.9c0,-2.66667 1.01667,-4.91667 3.05,-6.75c1.83333,-1.66667 4.06667,-2.65 6.7,-2.95c2.66667,-0.3 4.9,0.18333 6.7,1.45M747.43459,451.47958c0.46667,-0.66667 0.7,-1.41667 0.7,-2.25c0,-2.23333 -1.16667,-3.35 -3.5,-3.35c-2.33333,0 -3.5,1.15 -3.5,3.45c0,0.06667 0.15,0.66667 0.45,1.8c0.6,1.13333 1.61667,1.7 3.05,1.7c1.23333,0 2.16667,-0.45 2.8,-1.35M770.28459,295.22958c1.86667,1.73333 2.8,3.76667 2.8,6.1c0,2.16667 -0.81667,4.16667 -2.45,6c-1.76667,2 -3.95,3 -6.55,3c-4.3,0 -7.11667,-1.81667 -8.45,-5.45c-0.36667,-1.06667 -0.56667,-2.16667 -0.6,-3.3l0.05,-0.6c0.03333,-3.2 0.96667,-5.55 2.8,-7.05c1.66667,-1.33333 3.73333,-1.85 6.2,-1.55c2.4,0.3 4.46667,1.25 6.2,2.85M766.13459,302.92958c0.5,-0.63333 0.75,-1.25 0.75,-1.85c0,-2.3 -1.08333,-3.4 -3.25,-3.3c-2.16667,0.06667 -3.25,1.13333 -3.25,3.2c0,0.56667 0.16667,1.15 0.5,1.75c0.56667,0.96667 1.48333,1.45 2.75,1.45c1.03333,0 1.86667,-0.41667 2.5,-1.25M768.28459,242.62958c1.86667,1.7 2.8,4.01667 2.8,6.95c0,2.36667 -0.81667,4.6 -2.45,6.7c-1.8,2.36667 -3.98333,3.55 -6.55,3.55c-3.83333,0 -6.48333,-1.81667 -7.95,-5.45c-0.46667,-1.13333 -0.78333,-2.38333 -0.95,-3.75l-0.1,-1.55c0,-2.73333 0.93333,-4.91667 2.8,-6.55c1.7,-1.46667 3.76667,-2.2 6.2,-2.2c2.43333,0 4.5,0.76667 6.2,2.3M762.13459,252.92958c0.9,0 1.63333,-0.28333 2.2,-0.85c0.53333,-0.56667 0.8,-1.26667 0.8,-2.1c0,-2.16667 -1,-3.15 -3,-2.95c-1.99779,0.16654 -2.99779,1.11654 -3,2.85c0.0026,-0.11771 0.08594,0.31563 0.25,1.3c0.46667,1.16667 1.38333,1.75 2.75,1.75z" fill="#00ff00"/><path d="M713.69459,500.27958c2,0.13333 3,1.2 3,3.2c0,0.8 -0.2,1.5 -0.6,2.1c-0.53333,0.83333 -1.33333,1.25 -2.4,1.25c-1.36667,0 -2.28333,-0.51667 -2.75,-1.55c-0.16667,-1.06667 -0.25,-1.63333 -0.25,-1.7c0,-2.33333 1,-3.43333 3,-3.3M575.99459,468.37958c0,0.73333 -0.23333,1.45 -0.7,2.15c-0.7,1.03333 -1.71667,1.55 -3.05,1.55c-1.5,0 -2.56667,-0.6 -3.2,-1.8c-0.36667,-1.23333 -0.55,-1.88333 -0.55,-1.95c0,-2.6 1.25,-3.78333 3.75,-3.55c2.5,0.23333 3.75,1.43333 3.75,3.6M517.99459,437.82958c0,-2.33333 1.25,-3.66667 3.75,-4c2.5,-0.3 3.75,0.96667 3.75,3.8c0,0.9 -0.25,1.71667 -0.75,2.45c-0.66667,1 -1.66667,1.5 -3,1.5c-1.53333,0 -2.61667,-0.6 -3.25,-1.8c-0.33333,-1.23333 -0.5,-1.88333 -0.5,-1.95M540.74459,290.87958c-1.6,0 -2.76667,-0.6 -3.5,-1.8c-0.43333,-0.73333 -0.65,-1.45 -0.65,-2.15c0,-2.66667 1.36667,-3.95 4.1,-3.85c2.7,0.1 4.05,1.38333 4.05,3.85c0,1 -0.33333,1.88333 -1,2.65c-0.73333,0.86667 -1.73333,1.3 -3,1.3M621.44459,224.32958c-0.7,0.83333 -1.6,1.25 -2.7,1.25c-1.56667,0 -2.65,-0.6 -3.25,-1.8l-0.4,-1.8c0,-2.33333 1.21667,-3.53333 3.65,-3.6c2.4,-0.03333 3.6,1.21667 3.6,3.75c0,0.8 -0.3,1.53333 -0.9,2.2M694.69459,239.22958c2.5,-0.13333 3.75,1.16667 3.75,3.9c0,0.86667 -0.25,1.68333 -0.75,2.45c-0.66667,1.06667 -1.66667,1.6 -3,1.6c-1.5,0 -2.56667,-0.61667 -3.2,-1.85c-0.36667,-0.66667 -0.55,-1.36667 -0.55,-2.1c0,-2.53333 1.25,-3.86667 3.75,-4M744.64459,452.82958c-1.43333,0 -2.45,-0.56667 -3.05,-1.7c-0.3,-1.13333 -0.45,-1.73333 -0.45,-1.8c0,-2.3 1.16667,-3.45 3.5,-3.45c2.33333,0 3.5,1.11667 3.5,3.35c0,0.83333 -0.23333,1.58333 -0.7,2.25c-0.63333,0.9 -1.56667,1.35 -2.8,1.35M763.64459,304.17958c-1.26667,0 -2.18333,-0.48333 -2.75,-1.45c-0.33333,-0.6 -0.5,-1.18333 -0.5,-1.75c0,-2.06667 1.08333,-3.13333 3.25,-3.2c2.16667,-0.1 3.25,1 3.25,3.3c0,0.6 -0.25,1.21667 -0.75,1.85c-0.63333,0.83333 -1.46667,1.25 -2.5,1.25M762.14459,247.02958c2,-0.2 3,0.78333 3,2.95c0,0.83333 -0.26667,1.53333 -0.8,2.1c-0.56667,0.56667 -1.3,0.85 -2.2,0.85c-1.36667,0 -2.28333,-0.58333 -2.75,-1.75c-0.16406,-0.98437 -0.2474,-1.41771 -0.25,-1.3c0.00221,-1.73346 1.00221,-2.68346 3,-2.85z" fill="#ffffff"/></g></g></svg>