<svg version="1.1" xmlns="http://www.w3.org/2000/svg" xmlns:xlink="http://www.w3.org/1999/xlink" width="22.66" height="52.69079" viewBox="0,0,22.66,52.69079"><g transform="translate(-616.59799,-345.67701)"><g data-paper-data="{&quot;isPaintingLayer&quot;:true}" fill-rule="nonzero" stroke="none" stroke-width="1" stroke-linecap="round" stroke-linejoin="miter" stroke-miterlimit="4" stroke-dasharray="" stroke-dashoffset="0" style="mix-blend-mode: normal"><path d="M631.49799,378.35201c0.83333,0.3 1.61667,0.71667 2.35,1.25c0.7,0.53333 1.31667,1.15 1.85,1.85c0.53333,0.73333 1,1.53333 1.4,2.4c0.6,1.3 0.75,2.63333 0.45,4c-0.4,1.93333 -0.83333,3.85 -1.3,5.75c-0.3,1.2 -0.91667,2.1 -1.85,2.7c-0.43333,0.43333 -0.93333,0.75 -1.5,0.95c-0.56667,0.23333 -1.13333,0.43333 -1.7,0.6c-1.5,0.46667 -3.15,0.61667 -4.95,0.45c-1.83333,-0.16667 -3.46667,-0.63333 -4.9,-1.4c-1.5,-0.8 -2.61667,-1.95 -3.35,-3.45c-0.93333,-1.83333 -1.4,-3.75 -1.4,-5.75c0,-1.26667 0.11667,-2.5 0.35,-3.7c0.16667,-0.83333 0.45,-1.61667 0.85,-2.35c0.76667,-1.36667 1.95,-2.41667 3.55,-3.15c0.73333,-0.4 1.48333,-0.75 2.25,-1.05c1.73333,-0.46667 3.5,-0.48333 5.3,-0.05c0.86667,0.26667 1.73333,0.58333 2.6,0.95M625.59799,393.00201c1.86667,0.53333 3.68333,0.38333 5.45,-0.45l0.5,-0.6c0.76667,-1.9 1,-3.85 0.7,-5.85c-0.1,-0.53333 -0.31667,-1.03333 -0.65,-1.5c-0.26667,-0.46667 -0.6,-0.85 -1,-1.15c-1.36667,-0.96667 -2.93333,-1.36667 -4.7,-1.2c-1.36667,0.26667 -2.66667,0.9 -3.9,1.9c-0.66667,1.96667 -0.6,3.91667 0.2,5.85c0.2,0.5 0.48333,0.98333 0.85,1.45c0.66667,0.76667 1.51667,1.28333 2.55,1.55M636.89799,363.35201c-0.93333,1.13333 -2.1,2.01667 -3.5,2.65c-1.76667,0.76667 -3.6,1.15 -5.5,1.15c-1.63333,-0.13333 -3.18333,-0.53333 -4.65,-1.2c-1.6,-0.76667 -2.9,-1.95 -3.9,-3.55c-1,-1.6 -1.66667,-3.26667 -2,-5c-0.33333,-1.7 -0.21667,-3.3 0.35,-4.8c0.56667,-1.6 1.5,-2.98333 2.8,-4.15c0.83333,-0.7 1.73333,-1.28333 2.7,-1.75c0.86667,-0.43333 1.78333,-0.75 2.75,-0.95c1.96667,-0.2 3.85,0 5.65,0.6c0.9,0.33333 1.76667,0.75 2.6,1.25c1.53333,0.86667 2.78333,2.08333 3.75,3.65c0.56667,0.9 0.95,1.98333 1.15,3.25c0.26667,1.66667 0.2,3.33333 -0.2,5c-0.2,0.9 -0.58333,1.78333 -1.15,2.65c-0.26667,0.4 -0.55,0.8 -0.85,1.2M626.39799,350.70201c-1.86667,0.5 -3.1,1.61667 -3.7,3.35c-0.66667,2 -0.41667,3.8 0.75,5.4c0.96667,1.33333 2.26667,2.18333 3.9,2.55c1.9,0.46667 3.56667,0.06667 5,-1.2c0.9,-0.86667 1.5,-1.85 1.8,-2.95c0.26667,-0.93333 0.26667,-1.86667 0,-2.8c-0.56667,-1.76667 -1.75,-2.86667 -3.55,-3.3c-1.36667,-0.46667 -2.76667,-0.81667 -4.2,-1.05z" fill="#000000"/><path d="M623.04799,391.45201c-0.36667,-0.46667 -0.65,-0.95 -0.85,-1.45c-0.8,-1.93333 -0.86667,-3.88333 -0.2,-5.85c1.23333,-1 2.53333,-1.63333 3.9,-1.9c1.76667,-0.16667 3.33333,0.23333 4.7,1.2c0.4,0.3 0.73333,0.68333 1,1.15c0.33333,0.46667 0.55,0.96667 0.65,1.5c0.3,2 0.06667,3.95 -0.7,5.85l-0.5,0.6c-1.76667,0.83333 -3.58333,0.98333 -5.45,0.45c-1.03333,-0.26667 -1.88333,-0.78333 -2.55,-1.55M634.14799,357.85201c-0.3,1.1 -0.9,2.08333 -1.8,2.95c-1.43333,1.26667 -3.1,1.66667 -5,1.2c-1.63333,-0.36667 -2.93333,-1.21667 -3.9,-2.55c-1.16667,-1.6 -1.41667,-3.4 -0.75,-5.4c0.6,-1.73333 1.83333,-2.85 3.7,-3.35c1.43333,0.23333 2.83333,0.58333 4.2,1.05c1.8,0.43333 2.98333,1.53333 3.55,3.3c0.26667,0.93333 0.26667,1.86667 0,2.8z" fill="#ffffff"/></g></g></svg>