<svg version="1.1" xmlns="http://www.w3.org/2000/svg" xmlns:xlink="http://www.w3.org/1999/xlink" width="486.75" height="111.8" viewBox="0,0,486.75,111.8"><g transform="translate(-391.25541,-306.36832)"><g data-paper-data="{&quot;isPaintingLayer&quot;:true}" fill-rule="nonzero" stroke="none" stroke-width="1" stroke-linecap="butt" stroke-linejoin="miter" stroke-miterlimit="10" stroke-dasharray="" stroke-dashoffset="0" style="mix-blend-mode: normal"><path d="M411.80541,316.91832c0.3,-0.2 0.6,-0.38333 0.9,-0.55c0.3,-0.16667 0.6,-0.35 0.9,-0.55c0.16667,-0.16667 0.35,-0.33333 0.55,-0.5c0.16667,-0.2 0.33333,-0.38333 0.5,-0.55c0.3,-0.16667 0.6,-0.35 0.9,-0.55c0.23333,-0.1 0.46667,-0.21667 0.7,-0.35c0.13333,-0.06667 0.26667,-0.11667 0.4,-0.15c0.26667,-0.13333 0.55,-0.26667 0.85,-0.4c0.2,-0.16667 0.38333,-0.33333 0.55,-0.5c0.16667,-0.13333 0.35,-0.26667 0.55,-0.4c0.06667,-0.03333 0.13333,-0.06667 0.2,-0.1c0.26667,-0.1 0.55,-0.18333 0.85,-0.25c0.3,-0.1 0.6,-0.21667 0.9,-0.35c0.43333,-0.16667 0.85,-0.35 1.25,-0.55c0.16667,-0.1 0.35,-0.21667 0.55,-0.35c0.3,-0.03333 0.6,-0.08333 0.9,-0.15c0.3,-0.13333 0.58333,-0.26667 0.85,-0.4c0.43333,-0.16667 0.85,-0.33333 1.25,-0.5c0.2,-0.13333 0.38333,-0.25 0.55,-0.35c0.3,-0.13333 0.6,-0.25 0.9,-0.35c0.16667,-0.13333 0.35,-0.26667 0.55,-0.4c0.3,-0.03333 0.6,-0.08333 0.9,-0.15c0.3,-0.13333 0.6,-0.25 0.9,-0.35c0.4,-0.13333 0.81667,-0.25 1.25,-0.35c0.53333,-0.13333 1.06667,-0.26667 1.6,-0.4c0.4,-0.1 0.81667,-0.2 1.25,-0.3c0.76667,-0.13333 1.53333,-0.28333 2.3,-0.45c0.43333,-0.06667 0.85,-0.16667 1.25,-0.3c7.13333,0 14.28333,0 21.45,0c0.33333,0.13333 0.68333,0.25 1.05,0.35c0.83333,0.13333 1.66667,0.25 2.5,0.35c0.36667,0.13333 0.73333,0.25 1.1,0.35c0.56667,0.13333 1.15,0.26667 1.75,0.4c0.36667,0.1 0.73333,0.21667 1.1,0.35c0.16667,0.1 0.33333,0.21667 0.5,0.35c0.3,0.1 0.6,0.21667 0.9,0.35c0.13333,0.13333 0.25,0.25 0.35,0.35c0.23333,0.06667 0.48333,0.13333 0.75,0.2c0.26667,0.1 0.56667,0.2 0.9,0.3c0.4,0.13333 0.8,0.28333 1.2,0.45c0.3,0.1 0.6,0.2 0.9,0.3c0.2,0.13333 0.38333,0.25 0.55,0.35c0.3,0.13333 0.6,0.25 0.9,0.35c0.4,0.13333 0.81667,0.26667 1.25,0.4c0.3,0.1 0.6,0.21667 0.9,0.35c0.16667,0.1 0.33333,0.21667 0.5,0.35c0.3,0.1 0.6,0.21667 0.9,0.35c0.2,0.13333 0.38333,0.25 0.55,0.35c0.3,0.13333 0.6,0.25 0.9,0.35c0.23333,0.2 0.46667,0.38333 0.7,0.55c0.36667,0.16667 0.73333,0.35 1.1,0.55c0.16667,0.06667 0.33333,0.11667 0.5,0.15c0.06667,-0.03333 0.13333,-0.08333 0.2,-0.15c0.3,-0.13333 0.6,-0.25 0.9,-0.35c0.16667,-0.13333 0.33333,-0.26667 0.5,-0.4c0.3,-0.1 0.6,-0.21667 0.9,-0.35c0.2,-0.1 0.38333,-0.21667 0.55,-0.35c0.3,-0.06667 0.6,-0.11667 0.9,-0.15c0.3,-0.13333 0.6,-0.25 0.9,-0.35c0.4,-0.13333 0.81667,-0.26667 1.25,-0.4c5.7,0 11.4,0 17.1,0c0.43333,0.13333 0.85,0.25 1.25,0.35c2.23333,0.13333 4.45,0.26667 6.65,0.4c0.4,0.1 0.81667,0.21667 1.25,0.35c1.46667,0.1 2.95,0.21667 4.45,0.35c0.36667,0.1 0.71667,0.21667 1.05,0.35c1.06667,0.13333 2.15,0.25 3.25,0.35c0.4,0.13333 0.81667,0.25 1.25,0.35c1,0.13333 2,0.25 3,0.35c0.36667,0.13333 0.73333,0.26667 1.1,0.4c0.83333,0.1 1.66667,0.21667 2.5,0.35c0.4,0.1 0.81667,0.2 1.25,0.3c0.53333,0.13333 1.06667,0.28333 1.6,0.45c0.36667,0.1 0.71667,0.2 1.05,0.3c0.36667,0.13333 0.73333,0.25 1.1,0.35c0.33333,0.13333 0.68333,0.25 1.05,0.35c0.73333,0.26667 1.45,0.51667 2.15,0.75c0.7,0.23333 1.41667,0.46667 2.15,0.7c0.16667,0.13333 0.35,0.25 0.55,0.35c0.26667,0.13333 0.55,0.25 0.85,0.35c0.2,0.13333 0.38333,0.25 0.55,0.35c0.3,0.13333 0.6,0.25 0.9,0.35c0.36667,0.13333 0.73333,0.25 1.1,0.35c0.26667,0.1 0.55,0.16667 0.85,0.2c0.13333,0 0.25,0 0.35,0c0.3,-0.03333 0.6,-0.08333 0.9,-0.15c0.3,-0.13333 0.6,-0.26667 0.9,-0.4c0.43333,-0.16667 0.85,-0.33333 1.25,-0.5c0.16667,-0.13333 0.35,-0.25 0.55,-0.35c0.3,-0.06667 0.6,-0.13333 0.9,-0.2c0.76667,-0.1 1.53333,-0.23333 2.3,-0.4c0.43333,-0.1 0.85,-0.2 1.25,-0.3c1.2,0 2.4,0 3.6,0c0.33333,0.1 0.68333,0.21667 1.05,0.35c15.66667,0 31.31667,0 46.95,0c0.43333,-0.13333 0.85,-0.25 1.25,-0.35c2.13333,0 4.28333,0 6.45,0c0.33333,0.1 0.68333,0.21667 1.05,0.35c1.06667,0.13333 2.13333,0.25 3.2,0.35c0.36667,0.13333 0.73333,0.25 1.1,0.35c0.16667,0.2 0.35,0.38333 0.55,0.55c0.16667,0.13333 0.33333,0.25 0.5,0.35c0.06667,0.06667 0.13333,0.13333 0.2,0.2c0.3,0.1 0.6,0.21667 0.9,0.35c0.23333,0.16667 0.46667,0.35 0.7,0.55c0.13333,0.1 0.25,0.21667 0.35,0.35c0.06667,0.06667 0.13333,0.11667 0.2,0.15c0.3,0.13333 0.6,0.25 0.9,0.35c0.16667,0.2 0.33333,0.38333 0.5,0.55c0.23333,0.2 0.48333,0.38333 0.75,0.55c0.16667,0.16667 0.33333,0.35 0.5,0.55c0.2,0.16667 0.38333,0.33333 0.55,0.5c0.13333,0.2 0.25,0.38333 0.35,0.55c0.16667,0.16667 0.35,0.35 0.55,0.55c0.1,0.16667 0.21667,0.33333 0.35,0.5c0.06667,0.2 0.13333,0.38333 0.2,0.55c0.03333,0.13333 0.08333,0.25 0.15,0.35c0.23333,-0.03333 0.46667,-0.08333 0.7,-0.15c0.2,-0.13333 0.38333,-0.25 0.55,-0.35c0.3,-0.06667 0.6,-0.13333 0.9,-0.2c0.3,-0.13333 0.6,-0.25 0.9,-0.35c0.4,-0.13333 0.81667,-0.26667 1.25,-0.4c0.3,-0.1 0.6,-0.2 0.9,-0.3c0.4,-0.13333 0.81667,-0.25 1.25,-0.35c0.53333,-0.13333 1.06667,-0.26667 1.6,-0.4c0.4,-0.1 0.81667,-0.21667 1.25,-0.35c1.66667,0 3.33333,0 5,0c0.33333,0.13333 0.68333,0.25 1.05,0.35c1.06667,0.13333 2.13333,0.25 3.2,0.35c0.36667,0.13333 0.73333,0.26667 1.1,0.4c0.16667,0.16667 0.35,0.33333 0.55,0.5c0.16667,0.13333 0.33333,0.25 0.5,0.35c0.23333,0.06667 0.48333,0.13333 0.75,0.2c0.33333,0.13333 0.68333,0.25 1.05,0.35c0.23333,0.2 0.46667,0.38333 0.7,0.55c0.2,0.16667 0.38333,0.35 0.55,0.55c0.16667,0.16667 0.35,0.33333 0.55,0.5c0.16667,0.2 0.33333,0.38333 0.5,0.55c0.2,0.16667 0.38333,0.35 0.55,0.55c0.2,0.16667 0.38333,0.33333 0.55,0.5c0.16667,0.2 0.35,0.38333 0.55,0.55c0.16667,0.2 0.33333,0.38333 0.5,0.55c0.13333,0.16667 0.25,0.35 0.35,0.55c0.06667,0.16667 0.13333,0.33333 0.2,0.5c0.13333,0.2 0.25,0.38333 0.35,0.55c0.2,0.06667 0.38333,0.13333 0.55,0.2c0.1,-0.13333 0.21667,-0.26667 0.35,-0.4c0.16667,-0.16667 0.35,-0.33333 0.55,-0.5c0.06667,-0.2 0.11667,-0.38333 0.15,-0.55c0.13333,-0.16667 0.25,-0.35 0.35,-0.55c0.13333,-0.16667 0.26667,-0.33333 0.4,-0.5c0.16667,-0.2 0.33333,-0.38333 0.5,-0.55c0.2,-0.16667 0.38333,-0.35 0.55,-0.55c0.16667,-0.16667 0.35,-0.35 0.55,-0.55c0.16667,-0.16667 0.33333,-0.33333 0.5,-0.5c0.2,-0.2 0.38333,-0.38333 0.55,-0.55c0.36667,-0.36667 0.73333,-0.71667 1.1,-1.05c0.33333,-0.36667 0.68333,-0.73333 1.05,-1.1c0.36667,-0.36667 0.71667,-0.71667 1.05,-1.05c0.2,-0.2 0.38333,-0.38333 0.55,-0.55c0.43333,-0.13333 0.85,-0.26667 1.25,-0.4c0.3,-0.1 0.6,-0.2 0.9,-0.3c0.4,-0.2 0.81667,-0.38333 1.25,-0.55c0.16667,-0.13333 0.35,-0.25 0.55,-0.35c0.3,-0.06667 0.6,-0.13333 0.9,-0.2c0.53333,-0.1 1.06667,-0.21667 1.6,-0.35c0.4,-0.1 0.81667,-0.21667 1.25,-0.35c1.23333,-0.13333 2.48333,-0.25 3.75,-0.35c0.4,-0.13333 0.81667,-0.25 1.25,-0.35c2.13333,0 4.26667,0 6.4,0c0.43333,0.1 0.85,0.21667 1.25,0.35c2.7,0.1 5.38333,0.21667 8.05,0.35c0.4,0.13333 0.81667,0.25 1.25,0.35c1.23333,0.13333 2.48333,0.25 3.75,0.35c0.36667,0.13333 0.71667,0.25 1.05,0.35c0.36667,0.13333 0.73333,0.25 1.1,0.35c0.4,0.13333 0.81667,0.25 1.25,0.35c0.76667,0.13333 1.53333,0.26667 2.3,0.4c0.36667,0.1 0.73333,0.21667 1.1,0.35c0.33333,0.13333 0.68333,0.25 1.05,0.35c0.36667,0.13333 0.73333,0.23333 1.1,0.3c0.56667,0.16667 1.15,0.31667 1.75,0.45c0.43333,0.1 0.85,0.21667 1.25,0.35c0.66667,0.23333 1.31667,0.46667 1.95,0.7c0.2,0.1 0.38333,0.21667 0.55,0.35c0.36667,0.13333 0.73333,0.25 1.1,0.35c0.3,0.13333 0.6,0.25 0.9,0.35c0.33333,0.13333 0.68333,0.25 1.05,0.35c0.23333,0.2 0.46667,0.38333 0.7,0.55c0.13333,0.13333 0.25,0.25 0.35,0.35c0.06667,0.06667 0.13333,0.11667 0.2,0.15c0.3,0.13333 0.6,0.26667 0.9,0.4c0.23333,0.16667 0.46667,0.35 0.7,0.55c0.16667,0.16667 0.35,0.33333 0.55,0.5c0.16667,0.13333 0.33333,0.26667 0.5,0.4c0.06667,-0.06667 0.11667,-0.13333 0.15,-0.2c0.03333,-0.16667 0.05,-0.35 0.05,-0.55c0,-0.16667 0,-0.33333 0,-0.5c0,-0.2 0,-0.38333 0,-0.55c0.13333,-0.16667 0.25,-0.35 0.35,-0.55c0.06667,-0.16667 0.13333,-0.35 0.2,-0.55c0.06667,-0.16667 0.11667,-0.33333 0.15,-0.5c0,-0.2 0,-0.38333 0,-0.55c0.13333,-0.16667 0.25,-0.35 0.35,-0.55c0.13333,-0.16667 0.26667,-0.33333 0.4,-0.5c0.16667,-0.2 0.33333,-0.38333 0.5,-0.55c0.2,-0.13333 0.38333,-0.25 0.55,-0.35c0.3,-0.13333 0.6,-0.25 0.9,-0.35c0.16667,-0.13333 0.35,-0.26667 0.55,-0.4c0.3,-0.03333 0.58333,-0.08333 0.85,-0.15c0.56667,-0.13333 1.1,-0.26667 1.6,-0.4c0.43333,-0.1 0.86667,-0.2 1.3,-0.3c1,-0.13333 2,-0.26667 3,-0.4c0.43333,-0.1 0.85,-0.21667 1.25,-0.35c1.03333,-0.1 2.05,-0.21667 3.05,-0.35c0.43333,-0.1 0.85,-0.21667 1.25,-0.35c1,-0.13333 2.01667,-0.25 3.05,-0.35c0.4,-0.13333 0.81667,-0.25 1.25,-0.35c0.53333,-0.13333 1.06667,-0.26667 1.6,-0.4c0.4,-0.1 0.81667,-0.21667 1.25,-0.35c3.8,0 7.6,0 11.4,0c0.36667,0.13333 0.73333,0.25 1.1,0.35c0.6,0.13333 1.18333,0.28333 1.75,0.45c0.36667,0.06667 0.73333,0.15 1.1,0.25c0.6,0.13333 1.18333,0.28333 1.75,0.45c0.36667,0.1 0.73333,0.2 1.1,0.3c0.73333,0.23333 1.45,0.46667 2.15,0.7c0.16667,0.13333 0.35,0.26667 0.55,0.4c0.3,0.1 0.6,0.21667 0.9,0.35c0.23333,0.16667 0.46667,0.33333 0.7,0.5c0.1,0.13333 0.21667,0.26667 0.35,0.4c0.06667,0.03333 0.13333,0.05 0.2,0.05c0.23333,0 0.46667,-0.01667 0.7,-0.05c0.1,-0.2 0.21667,-0.38333 0.35,-0.55c0.13333,-0.16667 0.25,-0.35 0.35,-0.55c0,-0.16667 0,-0.35 0,-0.55c0,-0.16667 0,-0.33333 0,-0.5c0,-0.2 0,-0.38333 0,-0.55c0,-0.16667 0,-0.35 0,-0.55c0.06667,-0.16667 0.13333,-0.33333 0.2,-0.5c0.1,-0.2 0.21667,-0.38333 0.35,-0.55c0.16667,-0.16667 0.35,-0.35 0.55,-0.55c0.16667,-0.1 0.33333,-0.21667 0.5,-0.35c0.06667,-0.06667 0.13333,-0.1 0.2,-0.1c0.3,-0.1 0.6,-0.18333 0.9,-0.25c1.7,-0.13333 3.41667,-0.25 5.15,-0.35c0.43333,-0.13333 0.85,-0.25 1.25,-0.35c1.73333,-0.13333 3.46667,-0.26667 5.2,-0.4c0.4,-0.1 0.81667,-0.21667 1.25,-0.35c1,-0.1 2,-0.21667 3,-0.35c0.43333,-0.1 0.85,-0.21667 1.25,-0.35c7.63333,0 15.26667,0 22.9,0c0.33333,0.13333 0.68333,0.25 1.05,0.35c0.36667,0.13333 0.71667,0.25 1.05,0.35c0.36667,0.13333 0.73333,0.25 1.1,0.35c0.16667,0.2 0.35,0.38333 0.55,0.55c0.16667,0.2 0.33333,0.38333 0.5,0.55c0.2,0.16667 0.38333,0.35 0.55,0.55c0.16667,0.16667 0.35,0.33333 0.55,0.5c0.16667,0.2 0.33333,0.38333 0.5,0.55c0.06667,0.16667 0.13333,0.35 0.2,0.55c0.06667,0.16667 0.13333,0.33333 0.2,0.5c0,0.2 0,0.38333 0,0.55c0.1,0.2 0.21667,0.38333 0.35,0.55c0.03333,0.16667 0.08333,0.35 0.15,0.55c0.06667,0.16667 0.13333,0.33333 0.2,0.5c0,0.2 0,0.38333 0,0.55v0.1c0.23333,-0.06667 0.46667,-0.16667 0.7,-0.3c0.13333,-0.16667 0.25,-0.33333 0.35,-0.5c0.2,-0.2 0.38333,-0.38333 0.55,-0.55c0.06667,-0.16667 0.13333,-0.35 0.2,-0.55c0.1,-0.16667 0.21667,-0.33333 0.35,-0.5c0.1,-0.2 0.21667,-0.38333 0.35,-0.55c0.16667,-0.16667 0.35,-0.35 0.55,-0.55c0.16667,-0.16667 0.33333,-0.35 0.5,-0.55c0.2,-0.16667 0.38333,-0.33333 0.55,-0.5c0.16667,-0.2 0.35,-0.38333 0.55,-0.55c0.16667,-0.16667 0.33333,-0.35 0.5,-0.55c0.2,-0.1 0.38333,-0.21667 0.55,-0.35c0.3,-0.1 0.6,-0.21667 0.9,-0.35c0.16667,-0.13333 0.35,-0.25 0.55,-0.35c0.3,-0.06667 0.6,-0.13333 0.9,-0.2c0.26667,-0.1 0.56667,-0.2 0.9,-0.3c0.4,-0.13333 0.8,-0.26667 1.2,-0.4c6.2,0 12.4,0 18.6,0c0.33333,0.13333 0.68333,0.25 1.05,0.35c1.06667,0.13333 2.13333,0.25 3.2,0.35c0.36667,0.13333 0.73333,0.25 1.1,0.35c0.6,0.13333 1.18333,0.26667 1.75,0.4c0.43333,0.1 0.85,0.21667 1.25,0.35c0.33333,0.1 0.65,0.21667 0.95,0.35c0.33333,0.1 0.68333,0.21667 1.05,0.35c0.16667,0.13333 0.35,0.25 0.55,0.35c0.3,0.13333 0.6,0.25 0.9,0.35c0.33333,0.13333 0.68333,0.25 1.05,0.35c0.36667,0.13333 0.71667,0.26667 1.05,0.4c0.23333,0.16667 0.48333,0.33333 0.75,0.5c0.1,0.13333 0.21667,0.25 0.35,0.35c0.06667,0.06667 0.13333,0.11667 0.2,0.15c0.26667,0.16667 0.55,0.3 0.85,0.4c0.2,0.13333 0.38333,0.25 0.55,0.35c0.3,0.13333 0.6,0.25 0.9,0.35c0.16667,0.13333 0.33333,0.26667 0.5,0.4c0.3,0.1 0.6,0.21667 0.9,0.35c0.2,0.16667 0.38333,0.33333 0.55,0.5c0.16667,0.2 0.35,0.38333 0.55,0.55c0.1,0.2 0.21667,0.38333 0.35,0.55c0.06667,0.16667 0.11667,0.35 0.15,0.55c0.13333,0.16667 0.26667,0.33333 0.4,0.5c0.16667,0.2 0.33333,0.38333 0.5,0.55c0.13333,0.16667 0.25,0.35 0.35,0.55c0.06667,0.16667 0.13333,0.33333 0.2,0.5c0,0.2 0,0.38333 0,0.55c0,0.2 0,0.38333 0,0.55c0,0.16667 0,0.35 0,0.55c0,0.16667 0,0.33333 0,0.5c0,0.2 0,0.38333 0,0.55c0,0.36667 0,0.71667 0,1.05c0,0.56667 0,1.11667 0,1.65c0,0.33333 0,0.68333 0,1.05c0,0.53333 0,1.06667 0,1.6c0,0.36667 0,0.73333 0,1.1c0,0.53333 0,1.06667 0,1.6c0,0.16667 0,0.33333 0,0.5c-0.13333,0.2 -0.25,0.38333 -0.35,0.55c-0.13333,0.16667 -0.25,0.35 -0.35,0.55c0,0.16667 0,0.35 0,0.55c0,0.16667 0,0.33333 0,0.5c0,0.2 0,0.38333 0,0.55c0,0.16667 0,0.35 0,0.55c0,0.16667 0,0.33333 0,0.5c0,0.2 0,0.38333 0,0.55c-0.13333,0.16667 -0.25,0.35 -0.35,0.55c-0.13333,0.16667 -0.26667,0.35 -0.4,0.55c0,0.16667 0,0.33333 0,0.5c0,0.2 0,0.38333 0,0.55c0,0.16667 0,0.35 0,0.55c0,0.16667 0,0.33333 0,0.5c-0.03333,0.2 -0.08333,0.38333 -0.15,0.55c-0.06667,0.16667 -0.13333,0.35 -0.2,0.55c-0.1,0.16667 -0.21667,0.35 -0.35,0.55c0,0.16667 0,0.33333 0,0.5c0,0.2 0,0.38333 0,0.55c0,0.16667 0,0.35 0,0.55c-0.1,0.16667 -0.21667,0.33333 -0.35,0.5c0.13333,0.2 0.25,0.38333 0.35,0.55c0.23333,0.16667 0.46667,0.35 0.7,0.55c0.13333,0.1 0.26667,0.21667 0.4,0.35c0.3,0.13333 0.58333,0.25 0.85,0.35c0.2,0.13333 0.38333,0.25 0.55,0.35c0.3,0.13333 0.6,0.25 0.9,0.35c0.16667,0.2 0.35,0.38333 0.55,0.55c0.16667,0.16667 0.33333,0.35 0.5,0.55c0.2,0.16667 0.38333,0.35 0.55,0.55c0.2,0.16667 0.38333,0.33333 0.55,0.5c0.16667,0.2 0.35,0.38333 0.55,0.55c0.16667,0.16667 0.33333,0.35 0.5,0.55c0.2,0.16667 0.38333,0.33333 0.55,0.5c0.13333,0.2 0.25,0.38333 0.35,0.55c0.13333,0.16667 0.25,0.35 0.35,0.55c0.06667,0.16667 0.13333,0.35 0.2,0.55c0.16667,0.16667 0.35,0.33333 0.55,0.5c0.1,0.2 0.21667,0.38333 0.35,0.55c0.1,0.16667 0.21667,0.35 0.35,0.55c0.06667,0.16667 0.11667,0.33333 0.15,0.5c0.2,0.2 0.38333,0.38333 0.55,0.55c0.13333,0.16667 0.25,0.35 0.35,0.55c0.13333,0.16667 0.25,0.35 0.35,0.55c0.06667,0.16667 0.13333,0.33333 0.2,0.5c0.13333,0.2 0.25,0.38333 0.35,0.55c0.06667,0.16667 0.13333,0.35 0.2,0.55c0.1,0.16667 0.21667,0.33333 0.35,0.5c0.06667,0.2 0.11667,0.38333 0.15,0.55c0.06667,0.16667 0.13333,0.35 0.2,0.55c0,0.16667 0,0.35 0,0.55c0.13333,0.16667 0.25,0.33333 0.35,0.5c0.06667,0.2 0.13333,0.38333 0.2,0.55c0.03333,0.16667 0.08333,0.35 0.15,0.55c0.13333,0.16667 0.25,0.33333 0.35,0.5c0.13333,0.2 0.26667,0.38333 0.4,0.55c0,0.16667 0,0.35 0,0.55c0,0.16667 0,0.35 0,0.55c0.1,0.16667 0.21667,0.33333 0.35,0.5c0.1,0.2 0.21667,0.38333 0.35,0.55c0,0.16667 0,0.35 0,0.55c0,0.16667 0,0.33333 0,0.5c0,0.2 0,0.38333 0,0.55c0.1,0.16667 0.21667,0.35 0.35,0.55c0.06667,0.16667 0.13333,0.33333 0.2,0.5c0.03333,0.2 0.08333,0.38333 0.15,0.55c0,0.2 0,0.38333 0,0.55c0,0.16667 0,0.35 0,0.55c0,0.16667 0,0.33333 0,0.5c0,0.2 0,0.38333 0,0.55c-0.06667,0.16667 -0.11667,0.35 -0.15,0.55c0,0.16667 0,0.33333 0,0.5c0,0.2 0,0.38333 0,0.55c0,0.2 0,0.38333 0,0.55c0,0.16667 0,0.35 0,0.55c0,0.16667 0,0.33333 0,0.5c0,0.2 0,0.38333 0,0.55c0,0.36667 0,0.71667 0,1.05c0,0.36667 0,0.73333 0,1.1c0,0.16667 0,0.35 0,0.55c0,0.16667 0,0.33333 0,0.5c0,0.2 0,0.38333 0,0.55c-0.13333,0.16667 -0.26667,0.35 -0.4,0.55c-0.1,0.16667 -0.21667,0.33333 -0.35,0.5c0,0.2 0,0.38333 0,0.55c0,0.2 0,0.38333 0,0.55c0,0.16667 0,0.35 0,0.55c0,0.16667 0,0.33333 0,0.5c-0.06667,0.2 -0.11667,0.38333 -0.15,0.55c-0.06667,0.16667 -0.13333,0.35 -0.2,0.55c-0.1,0.16667 -0.21667,0.33333 -0.35,0.5c0,0.2 0,0.38333 0,0.55c-0.06667,0.2 -0.13333,0.38333 -0.2,0.55c-0.03333,0.16667 -0.08333,0.35 -0.15,0.55c-0.13333,0.16667 -0.25,0.33333 -0.35,0.5c-0.06667,0.2 -0.13333,0.38333 -0.2,0.55c-0.1,0.16667 -0.21667,0.35 -0.35,0.55c0,0.16667 0,0.33333 0,0.5c0,0.2 0,0.38333 0,0.55c-0.06667,0.2 -0.13333,0.38333 -0.2,0.55c-0.1,0.16667 -0.21667,0.35 -0.35,0.55c-0.1,0.16667 -0.21667,0.33333 -0.35,0.5c-0.16667,0.2 -0.35,0.38333 -0.55,0.55c-0.03333,0.16667 -0.08333,0.35 -0.15,0.55c-0.13333,0.16667 -0.25,0.33333 -0.35,0.5c-0.06667,0.2 -0.13333,0.38333 -0.2,0.55c-0.1,0.2 -0.21667,0.38333 -0.35,0.55c-0.13333,0.16667 -0.25,0.35 -0.35,0.55c-0.13333,0.1 -0.25,0.21667 -0.35,0.35c-0.3,0.1 -0.6,0.21667 -0.9,0.35c-0.13333,0.16667 -0.25,0.35 -0.35,0.55c-0.06667,0.16667 -0.13333,0.33333 -0.2,0.5c-0.16667,0.2 -0.35,0.38333 -0.55,0.55c-0.33333,0.16667 -0.68333,0.35 -1.05,0.55c-0.16667,0.16667 -0.35,0.33333 -0.55,0.5c-0.16667,0.2 -0.33333,0.38333 -0.5,0.55c-0.2,0.2 -0.38333,0.38333 -0.55,0.55c-0.23333,0.16667 -0.46667,0.35 -0.7,0.55c-0.13333,0.1 -0.26667,0.21667 -0.4,0.35c-0.26667,0.1 -0.55,0.21667 -0.85,0.35c-0.2,0.16667 -0.38333,0.35 -0.55,0.55c-0.16667,0.16667 -0.35,0.33333 -0.55,0.5c-0.23333,0.2 -0.46667,0.38333 -0.7,0.55c-0.16667,0.16667 -0.35,0.35 -0.55,0.55c-0.1,0.1 -0.21667,0.21667 -0.35,0.35c-0.3,0.1 -0.6,0.21667 -0.9,0.35c-0.16667,0.16667 -0.35,0.35 -0.55,0.55c-0.23333,0.16667 -0.46667,0.33333 -0.7,0.5c-0.16667,0.2 -0.35,0.38333 -0.55,0.55c-0.4,0.16667 -0.81667,0.35 -1.25,0.55c-0.1,0.1 -0.21667,0.21667 -0.35,0.35c-0.33333,0.13333 -0.68333,0.25 -1.05,0.35c-0.16667,0.16667 -0.35,0.35 -0.55,0.55c-0.1,0.1 -0.21667,0.21667 -0.35,0.35c-0.06667,0.06667 -0.13333,0.1 -0.2,0.1c-0.26667,0.1 -0.55,0.18333 -0.85,0.25c-0.83333,0.13333 -1.66667,0.25 -2.5,0.35c-0.36667,0.13333 -0.73333,0.25 -1.1,0.35c-0.6,0.13333 -1.18333,0.26667 -1.75,0.4c-0.36667,0.1 -0.73333,0.2 -1.1,0.3c-0.6,0.13333 -1.18333,0.28333 -1.75,0.45c-0.36667,0.06667 -0.73333,0.16667 -1.1,0.3c-0.83333,0.13333 -1.66667,0.25 -2.5,0.35c-0.36667,0.13333 -0.73333,0.25 -1.1,0.35c-1.3,0.13333 -2.6,0.25 -3.9,0.35c-0.36667,0.13333 -0.71667,0.26667 -1.05,0.4c-0.83333,0.1 -1.66667,0.21667 -2.5,0.35c-0.36667,0.1 -0.73333,0.21667 -1.1,0.35c-1,0.1 -2.01667,0.21667 -3.05,0.35c-0.4,0.13333 -0.81667,0.25 -1.25,0.35c-2.83333,0 -5.68333,0 -8.55,0c-0.43333,-0.1 -0.85,-0.21667 -1.25,-0.35c-2.93333,-0.13333 -5.85,-0.25 -8.75,-0.35c-0.43333,-0.13333 -0.85,-0.25 -1.25,-0.35c-1.96667,-0.13333 -3.93333,-0.25 -5.9,-0.35c-0.4,-0.13333 -0.81667,-0.26667 -1.25,-0.4c-0.76667,-0.1 -1.53333,-0.21667 -2.3,-0.35c-0.43333,-0.1 -0.85,-0.21667 -1.25,-0.35c-0.13333,-0.1 -0.25,-0.21667 -0.35,-0.35c-0.36667,-0.13333 -0.73333,-0.25 -1.1,-0.35c-0.1,-0.2 -0.21667,-0.38333 -0.35,-0.55c-0.23333,-0.16667 -0.46667,-0.35 -0.7,-0.55c-0.06667,-0.1 -0.13333,-0.21667 -0.2,-0.35c-0.23333,0 -0.46667,0 -0.7,0c-0.06667,0.06667 -0.13333,0.11667 -0.2,0.15c-0.3,0.1 -0.6,0.16667 -0.9,0.2c-0.56667,0.13333 -1.15,0.26667 -1.75,0.4c-0.36667,0.1 -0.73333,0.21667 -1.1,0.35c-1.76667,0.1 -3.55,0.21667 -5.35,0.35c-0.36667,0.1 -0.71667,0.21667 -1.05,0.35c-3.1,0 -6.2,0 -9.3,0c-0.4,-0.13333 -0.81667,-0.25 -1.25,-0.35c-1,-0.13333 -2.01667,-0.25 -3.05,-0.35c-0.4,-0.13333 -0.8,-0.26667 -1.2,-0.4c-0.33333,-0.1 -0.65,-0.2 -0.95,-0.3c-0.4,-0.13333 -0.8,-0.26667 -1.2,-0.4c-0.13333,-0.1 -0.26667,-0.21667 -0.4,-0.35c-0.33333,-0.1 -0.68333,-0.21667 -1.05,-0.35c-0.13333,-0.16667 -0.25,-0.35 -0.35,-0.55c-0.2,-0.1 -0.38333,-0.21667 -0.55,-0.35c-0.06667,-0.06667 -0.13333,-0.11667 -0.2,-0.15c-0.33333,-0.13333 -0.68333,-0.26667 -1.05,-0.4c-0.16667,-0.16667 -0.35,-0.33333 -0.55,-0.5c-0.16667,-0.2 -0.33333,-0.38333 -0.5,-0.55c-0.2,-0.16667 -0.38333,-0.35 -0.55,-0.55c-0.16667,-0.16667 -0.35,-0.33333 -0.55,-0.5c-0.1,-0.13333 -0.21667,-0.26667 -0.35,-0.4c-0.23333,0.06667 -0.46667,0.13333 -0.7,0.2c0,0.16667 0,0.35 0,0.55c0,0.16667 0,0.33333 0,0.5c0,0.2 0,0.38333 0,0.55c0,0.16667 0,0.35 0,0.55c-0.06667,0.16667 -0.13333,0.35 -0.2,0.55c-0.06667,0.16667 -0.11667,0.33333 -0.15,0.5c-0.2,0.2 -0.38333,0.38333 -0.55,0.55c-0.16667,0.16667 -0.35,0.35 -0.55,0.55c-0.1,0.1 -0.21667,0.21667 -0.35,0.35c-0.3,0.06667 -0.6,0.13333 -0.9,0.2c-0.33333,0.1 -0.68333,0.21667 -1.05,0.35c-0.36667,0.1 -0.73333,0.21667 -1.1,0.35c-2.43333,0.1 -4.86667,0.21667 -7.3,0.35c-0.43333,0.1 -0.85,0.21667 -1.25,0.35c-1,0.13333 -2.01667,0.25 -3.05,0.35c-0.4,0.13333 -0.81667,0.25 -1.25,0.35c-1.06667,0.13333 -2.13333,0.25 -3.2,0.35c-0.36667,0.13333 -0.71667,0.26667 -1.05,0.4c-5.83333,0.1 -11.66667,0.21667 -17.5,0.35c-0.36667,0.1 -0.73333,0.21667 -1.1,0.35c-0.7,0 -1.41667,0 -2.15,0c-0.4,-0.13333 -0.81667,-0.25 -1.25,-0.35c-0.1,-0.2 -0.21667,-0.38333 -0.35,-0.55c-0.23333,-0.16667 -0.46667,-0.35 -0.7,-0.55c-0.16667,-0.16667 -0.35,-0.33333 -0.55,-0.5c-0.1,-0.2 -0.21667,-0.38333 -0.35,-0.55c-0.06667,-0.2 -0.13333,-0.38333 -0.2,-0.55c-0.1,-0.16667 -0.21667,-0.35 -0.35,-0.55c-0.1,-0.16667 -0.21667,-0.33333 -0.35,-0.5c0,-0.2 0,-0.38333 0,-0.55c0,-0.16667 0,-0.35 0,-0.55c0,-0.16667 0,-0.33333 0,-0.5c-0.06667,-0.2 -0.11667,-0.38333 -0.15,-0.55c-0.13333,-0.2 -0.26667,-0.38333 -0.4,-0.55c-0.03333,-0.16667 -0.08333,-0.35 -0.15,-0.55c0,-0.16667 0,-0.33333 0,-0.5c0,-0.2 0,-0.38333 0,-0.55c0,-0.16667 0,-0.35 0,-0.55c0,-0.16667 0,-0.33333 0,-0.5c-0.13333,-0.2 -0.25,-0.38333 -0.35,-0.55c-0.13333,-0.16667 -0.25,-0.35 -0.35,-0.55c0,-0.16667 0,-0.35 0,-0.55c0,-0.16667 0,-0.33333 0,-0.5c0,-0.2 0,-0.38333 0,-0.55c0,-0.16667 0,-0.35 0,-0.55c0,-0.16667 0,-0.33333 0,-0.5c0,-0.2 0,-0.38333 0,-0.55c0,-0.16667 0,-0.35 0,-0.55c-0.06667,-0.16667 -0.13333,-0.35 -0.2,-0.55c-0.13333,0.06667 -0.25,0.13333 -0.35,0.2c-0.06667,0.06667 -0.13333,0.13333 -0.2,0.2c-0.3,0.1 -0.6,0.21667 -0.9,0.35c-0.16667,0.16667 -0.33333,0.33333 -0.5,0.5c-0.2,0.2 -0.38333,0.38333 -0.55,0.55c-0.23333,0.2 -0.46667,0.38333 -0.7,0.55c-0.36667,0.16667 -0.73333,0.35 -1.1,0.55c-0.16667,0.16667 -0.33333,0.33333 -0.5,0.5c-0.2,0.13333 -0.38333,0.25 -0.55,0.35c-0.06667,0.06667 -0.13333,0.11667 -0.2,0.15c-0.46667,0.16667 -0.93333,0.3 -1.4,0.4c-0.23333,0.2 -0.48333,0.38333 -0.75,0.55c-0.16667,0.1 -0.33333,0.21667 -0.5,0.35c-0.06667,0.06667 -0.13333,0.13333 -0.2,0.2c-0.3,0.1 -0.6,0.21667 -0.9,0.35c-0.16667,0.16667 -0.33333,0.33333 -0.5,0.5c-0.2,0.13333 -0.38333,0.26667 -0.55,0.4c-0.06667,0.03333 -0.13333,0.06667 -0.2,0.1c-0.3,0.1 -0.6,0.18333 -0.9,0.25c-0.26667,0.1 -0.55,0.21667 -0.85,0.35c-0.26667,0.16667 -0.51667,0.35 -0.75,0.55c-0.1,0.1 -0.21667,0.21667 -0.35,0.35c-0.3,0.03333 -0.58333,0.1 -0.85,0.2c-0.36667,0.1 -0.73333,0.2 -1.1,0.3c-0.53333,0.2 -1.06667,0.38333 -1.6,0.55c-0.23333,0.13333 -0.46667,0.25 -0.7,0.35c-0.3,0.06667 -0.6,0.13333 -0.9,0.2c-0.6,0.1 -1.2,0.23333 -1.8,0.4c-0.36667,0.1 -0.71667,0.2 -1.05,0.3c-1.73333,0.13333 -3.46667,0.25 -5.2,0.35c-0.43333,0.13333 -0.85,0.25 -1.25,0.35c-1.9,0 -3.8,0 -5.7,0c-0.43333,-0.1 -0.85,-0.21667 -1.25,-0.35c-1.26667,-0.1 -2.51667,-0.21667 -3.75,-0.35c-0.43333,-0.1 -0.85,-0.21667 -1.25,-0.35c-0.8,-0.13333 -1.58333,-0.26667 -2.35,-0.4c-0.4,-0.1 -0.81667,-0.18333 -1.25,-0.25c-0.76667,-0.16667 -1.53333,-0.33333 -2.3,-0.5c-0.96667,-0.2 -1.91667,-0.43333 -2.85,-0.7c-1.13333,-0.3 -2.26667,-0.63333 -3.4,-1c-0.13333,0 -0.25,0 -0.35,0c0,0.16667 0,0.35 0,0.55c0,0.16667 0,0.33333 0,0.5c0,0.2 0,0.38333 0,0.55c0,0.16667 0,0.35 0,0.55c-0.06667,0.16667 -0.13333,0.33333 -0.2,0.5c-0.1,0.2 -0.21667,0.38333 -0.35,0.55c-0.13333,0.13333 -0.25,0.25 -0.35,0.35c-0.06667,0.06667 -0.13333,0.11667 -0.2,0.15c-0.3,0.1 -0.6,0.16667 -0.9,0.2c-3.6,0.13333 -7.21667,0.26667 -10.85,0.4c-0.43333,0.1 -0.85,0.21667 -1.25,0.35c-2.2,0.1 -4.41667,0.21667 -6.65,0.35c-0.4,0.1 -0.81667,0.21667 -1.25,0.35c-5.7,0 -11.4,0 -17.1,0c-0.43333,-0.13333 -0.85,-0.25 -1.25,-0.35c-0.13333,-0.2 -0.25,-0.38333 -0.35,-0.55c-0.26667,-0.16667 -0.51667,-0.35 -0.75,-0.55c-0.1,-0.16667 -0.21667,-0.33333 -0.35,-0.5c-0.06667,-0.2 -0.11667,-0.38333 -0.15,-0.55c-0.13333,-0.16667 -0.26667,-0.35 -0.4,-0.55c-0.16667,-0.16667 -0.33333,-0.33333 -0.5,-0.5c-0.13333,-0.2 -0.25,-0.38333 -0.35,-0.55c-0.06667,-0.2 -0.13333,-0.38333 -0.2,-0.55c-0.06667,-0.16667 -0.13333,-0.35 -0.2,-0.55c-0.1,-0.16667 -0.21667,-0.33333 -0.35,-0.5c-0.06667,-0.2 -0.11667,-0.38333 -0.15,-0.55c-0.13333,-0.16667 -0.25,-0.35 -0.35,-0.55c-0.06667,-0.16667 -0.13333,-0.33333 -0.2,-0.5c0,-0.2 0,-0.38333 0,-0.55c-0.06667,-0.16667 -0.13333,-0.35 -0.2,-0.55c-0.03333,0 -0.06667,0.01667 -0.1,0.05c-0.03333,0.16667 -0.05,0.33333 -0.05,0.5c0,0.16667 0,0.35 0,0.55c0,0.16667 0,0.33333 0,0.5c0,0.2 0,0.38333 0,0.55c0,0.16667 0,0.35 0,0.55c0,0.16667 0,0.33333 0,0.5c-0.13333,0.2 -0.25,0.38333 -0.35,0.55c-0.13333,0.16667 -0.25,0.35 -0.35,0.55c-0.13333,0.1 -0.26667,0.21667 -0.4,0.35c-0.3,0.06667 -0.58333,0.13333 -0.85,0.2c-7.76667,0.1 -15.51667,0.21667 -23.25,0.35c-0.33333,0.1 -0.68333,0.21667 -1.05,0.35c-2.2,0.1 -4.4,0.21667 -6.6,0.35c-0.43333,0.13333 -0.85,0.25 -1.25,0.35c-1.8,0.13333 -3.58333,0.25 -5.35,0.35c-0.36667,0.13333 -0.73333,0.25 -1.1,0.35c-2.26667,0.13333 -4.53333,0.26667 -6.8,0.4c-0.33333,0.1 -0.68333,0.21667 -1.05,0.35c-0.83333,0.1 -1.66667,0.21667 -2.5,0.35c-0.36667,0.1 -0.71667,0.21667 -1.05,0.35c-0.96667,0 -1.93333,0 -2.9,0c-0.4,-0.13333 -0.8,-0.25 -1.2,-0.35c-0.13333,-0.2 -0.26667,-0.38333 -0.4,-0.55c-0.23333,-0.16667 -0.46667,-0.35 -0.7,-0.55c-0.16667,-0.16667 -0.35,-0.33333 -0.55,-0.5c-0.1,-0.2 -0.21667,-0.38333 -0.35,-0.55c-0.06667,-0.16667 -0.11667,-0.35 -0.15,-0.55c0,-0.16667 0,-0.33333 0,-0.5c-0.06667,-0.2 -0.13333,-0.38333 -0.2,-0.55c-0.1,-0.2 -0.21667,-0.38333 -0.35,-0.55c-0.06667,-0.16667 -0.13333,-0.35 -0.2,-0.55c0,-0.16667 0,-0.33333 0,-0.5c0,-0.2 0,-0.38333 0,-0.55c0,-0.16667 0,-0.35 0,-0.55c0,-0.16667 0,-0.33333 0,-0.5c0,-0.2 0,-0.38333 0,-0.55c0,-0.16667 0,-0.35 0,-0.55c0,-0.16667 0,-0.35 0,-0.55c0,-0.16667 0,-0.33333 0,-0.5c0,-0.36667 0,-0.73333 0,-1.1c0,-0.16667 0,-0.33333 0,-0.5c-0.03333,-0.2 -0.08333,-0.38333 -0.15,-0.55c-0.06667,-0.16667 -0.13333,-0.35 -0.2,-0.55c-0.1,-0.16667 -0.21667,-0.35 -0.35,-0.55c0,-0.16667 0,-0.33333 0,-0.5c0,-0.2 0,-0.38333 0,-0.55c0,-0.16667 0,-0.35 0,-0.55c0,-0.33333 0,-0.68333 0,-1.05c0,-0.73333 0,-1.45 0,-2.15c0,-0.53333 0,-1.06667 0,-1.6c0,-0.53333 0,-1.06667 0,-1.6c0,-0.53333 0,-1.06667 0,-1.6c0,-0.53333 0,-1.08333 0,-1.65c0,-0.7 0,-1.4 0,-2.1c0,-0.2 0,-0.38333 0,-0.55c-0.06667,-0.16667 -0.11667,-0.35 -0.15,-0.55c-0.13333,0.13333 -0.26667,0.25 -0.4,0.35c-0.53333,0.2 -1.06667,0.38333 -1.6,0.55c-0.23333,0.13333 -0.46667,0.25 -0.7,0.35c-0.36667,0.13333 -0.71667,0.25 -1.05,0.35c-0.13333,0.13333 -0.26667,0.25 -0.4,0.35c-0.33333,0.13333 -0.68333,0.26667 -1.05,0.4c-0.23333,0.16667 -0.46667,0.33333 -0.7,0.5c-0.23333,0.13333 -0.48333,0.25 -0.75,0.35c-0.1,0.06667 -0.21667,0.13333 -0.35,0.2c-0.33333,0.13333 -0.68333,0.25 -1.05,0.35c-0.13333,0.13333 -0.25,0.25 -0.35,0.35c-0.5,0.13333 -0.98333,0.25 -1.45,0.35c-0.23333,0.13333 -0.46667,0.26667 -0.7,0.4c-0.46667,0.1 -0.95,0.21667 -1.45,0.35c-0.23333,0.1 -0.46667,0.21667 -0.7,0.35c-0.3,0.06667 -0.6,0.11667 -0.9,0.15c-0.6,0.13333 -1.18333,0.26667 -1.75,0.4c-0.36667,0.1 -0.73333,0.21667 -1.1,0.35c-1.73333,0 -3.46667,0 -5.2,0c0,0.16667 0,0.33333 0,0.5c0,0.2 0,0.38333 0,0.55c0,0.2 0,0.38333 0,0.55c0.06667,0.16667 0.13333,0.35 0.2,0.55c0.06667,0.16667 0.13333,0.33333 0.2,0.5c0.03333,0.2 0.08333,0.38333 0.15,0.55c0.06667,0.16667 0.13333,0.35 0.2,0.55c0,0.16667 0,0.33333 0,0.5c0,0.2 0,0.38333 0,0.55c0.1,0.2 0.21667,0.38333 0.35,0.55c0.06667,0.16667 0.11667,0.35 0.15,0.55c0.06667,0.16667 0.13333,0.33333 0.2,0.5c0,0.2 0,0.38333 0,0.55c0.06667,0.16667 0.13333,0.35 0.2,0.55c0.1,0.16667 0.21667,0.33333 0.35,0.5c0.03333,0.2 0.08333,0.38333 0.15,0.55c0,0.2 0,0.38333 0,0.55c0,0.16667 0,0.35 0,0.55c0,0.16667 0,0.33333 0,0.5c0,0.2 0,0.38333 0,0.55c0,0.16667 0,0.35 0,0.55c0.06667,0.16667 0.13333,0.33333 0.2,0.5c0.1,0.2 0.21667,0.38333 0.35,0.55c0.06667,0.2 0.13333,0.38333 0.2,0.55c0,0.16667 0,0.35 0,0.55c0.03333,0.16667 0.08333,0.33333 0.15,0.5c0.13333,0.2 0.25,0.38333 0.35,0.55c0.06667,0.16667 0.13333,0.35 0.2,0.55c0,0.16667 0,0.33333 0,0.5c0.06667,0.2 0.11667,0.38333 0.15,0.55c0.13333,0.16667 0.26667,0.35 0.4,0.55c0.03333,0.16667 0.08333,0.35 0.15,0.55c0,0.16667 0,0.33333 0,0.5c0,0.2 0,0.38333 0,0.55c-0.06667,0.16667 -0.11667,0.35 -0.15,0.55c-0.13333,0.16667 -0.26667,0.33333 -0.4,0.5c-0.1,0.13333 -0.21667,0.26667 -0.35,0.4c-0.06667,0.03333 -0.13333,0.06667 -0.2,0.1c-0.26667,0.1 -0.55,0.16667 -0.85,0.2c-1.3,0.13333 -2.61667,0.26667 -3.95,0.4c-0.33333,0.1 -0.68333,0.21667 -1.05,0.35c-1.06667,0.13333 -2.13333,0.25 -3.2,0.35c-0.36667,0.13333 -0.73333,0.25 -1.1,0.35c-1.06667,0.13333 -2.13333,0.25 -3.2,0.35c-0.36667,0.13333 -0.73333,0.26667 -1.1,0.4c-1.06667,0.1 -2.13333,0.21667 -3.2,0.35c-0.36667,0.1 -0.71667,0.21667 -1.05,0.35c-1.06667,0.1 -2.15,0.21667 -3.25,0.35c-0.33333,0.13333 -0.68333,0.25 -1.05,0.35c-1.06667,0.13333 -2.13333,0.25 -3.2,0.35c-0.36667,0.13333 -0.73333,0.25 -1.1,0.35c-2.26667,0.13333 -4.51667,0.26667 -6.75,0.4c-0.36667,0.1 -0.73333,0.21667 -1.1,0.35c-1.06667,0.1 -2.13333,0.21667 -3.2,0.35c-0.36667,0.1 -0.73333,0.21667 -1.1,0.35c-2.13333,0 -4.26667,0 -6.4,0c-0.43333,-0.13333 -0.85,-0.25 -1.25,-0.35c-0.13333,-0.13333 -0.25,-0.25 -0.35,-0.35c-0.36667,-0.13333 -0.73333,-0.25 -1.1,-0.35c-0.1,-0.2 -0.21667,-0.38333 -0.35,-0.55c-0.23333,-0.2 -0.46667,-0.38333 -0.7,-0.55c-0.13333,-0.16667 -0.25,-0.35 -0.35,-0.55c-0.06667,-0.16667 -0.13333,-0.33333 -0.2,-0.5c-0.06667,-0.2 -0.11667,-0.38333 -0.15,-0.55c-0.13333,-0.16667 -0.25,-0.35 -0.35,-0.55c-0.06667,-0.16667 -0.13333,-0.33333 -0.2,-0.5c-0.13333,-0.2 -0.25,-0.38333 -0.35,-0.55c-0.06667,-0.2 -0.13333,-0.38333 -0.2,-0.55c0,-0.16667 0,-0.35 0,-0.55c-0.06667,-0.16667 -0.11667,-0.33333 -0.15,-0.5c-0.2,-0.2 -0.38333,-0.38333 -0.55,-0.55c-0.13333,-0.16667 -0.25,-0.35 -0.35,-0.55c-0.13333,-0.16667 -0.25,-0.33333 -0.35,-0.5c0,-0.2 0,-0.38333 0,-0.55c-0.06667,-0.2 -0.13333,-0.38333 -0.2,-0.55c-0.06667,-0.16667 -0.11667,-0.35 -0.15,-0.55c-0.13333,-0.16667 -0.26667,-0.33333 -0.4,-0.5c0,-0.2 0,-0.38333 0,-0.55c0,-0.16667 0,-0.35 0,-0.55c0,-0.16667 0,-0.33333 0,-0.5c0,-0.2 0,-0.38333 0,-0.55c-0.1,-0.16667 -0.21667,-0.35 -0.35,-0.55c-0.06667,-0.16667 -0.11667,-0.35 -0.15,-0.55c-0.06667,-0.16667 -0.13333,-0.33333 -0.2,-0.5c0,-0.2 0,-0.38333 0,-0.55c-0.06667,-0.16667 -0.11667,-0.35 -0.15,-0.55c-0.13333,0.06667 -0.25,0.13333 -0.35,0.2c-0.06667,0.06667 -0.13333,0.11667 -0.2,0.15c-0.3,0.13333 -0.6,0.26667 -0.9,0.4c-0.13333,0.16667 -0.25,0.33333 -0.35,0.5c-0.06667,0.2 -0.13333,0.38333 -0.2,0.55c-0.1,0.16667 -0.21667,0.35 -0.35,0.55c-0.16667,0.16667 -0.35,0.33333 -0.55,0.5c-0.16667,0.2 -0.33333,0.38333 -0.5,0.55c-0.2,0.2 -0.38333,0.38333 -0.55,0.55c-0.16667,0.16667 -0.35,0.35 -0.55,0.55c-0.16667,0.16667 -0.33333,0.33333 -0.5,0.5c-0.36667,0.36667 -0.73333,0.73333 -1.1,1.1c-0.36667,0.33333 -0.71667,0.68333 -1.05,1.05c-0.36667,0.36667 -0.73333,0.73333 -1.1,1.1c-0.16667,0.16667 -0.33333,0.33333 -0.5,0.5c-0.26667,0.2 -0.51667,0.38333 -0.75,0.55c-0.1,0.13333 -0.21667,0.25 -0.35,0.35c-0.3,0.13333 -0.6,0.25 -0.9,0.35c-0.16667,0.2 -0.33333,0.38333 -0.5,0.55c-0.2,0.13333 -0.38333,0.25 -0.55,0.35c-0.06667,0.06667 -0.13333,0.11667 -0.2,0.15c-0.3,0.06667 -0.6,0.13333 -0.9,0.2c-0.3,0.13333 -0.58333,0.25 -0.85,0.35c-0.26667,0.2 -0.51667,0.38333 -0.75,0.55c-0.1,0.13333 -0.21667,0.25 -0.35,0.35c-0.36667,0.13333 -0.71667,0.25 -1.05,0.35c-0.13333,0.13333 -0.25,0.26667 -0.35,0.4c-0.5,0.1 -0.98333,0.21667 -1.45,0.35c-0.23333,0.1 -0.46667,0.21667 -0.7,0.35c-0.36667,0.1 -0.73333,0.21667 -1.1,0.35c-0.1,0.13333 -0.21667,0.25 -0.35,0.35c-0.3,0.06667 -0.6,0.13333 -0.9,0.2c-0.53333,0.1 -1.06667,0.21667 -1.6,0.35c-0.4,0.1 -0.81667,0.21667 -1.25,0.35c-0.36667,0.13333 -0.71667,0.25 -1.05,0.35c-0.36667,0.13333 -0.73333,0.25 -1.1,0.35c-0.76667,0.13333 -1.53333,0.26667 -2.3,0.4c-0.43333,0.1 -0.85,0.21667 -1.25,0.35c-3.56667,0 -7.13333,0 -10.7,0c-0.43333,-0.13333 -0.85,-0.26667 -1.25,-0.4c-1.73333,-0.1 -3.46667,-0.21667 -5.2,-0.35c-0.4,-0.1 -0.81667,-0.2 -1.25,-0.3c-0.76667,-0.13333 -1.53333,-0.28333 -2.3,-0.45c-0.43333,-0.1 -0.85,-0.2 -1.25,-0.3c-0.53333,-0.13333 -1.06667,-0.26667 -1.6,-0.4c-0.43333,-0.1 -0.85,-0.21667 -1.25,-0.35c-0.73333,-0.23333 -1.45,-0.46667 -2.15,-0.7c-0.13333,-0.1 -0.26667,-0.21667 -0.4,-0.35c-0.33333,-0.1 -0.68333,-0.21667 -1.05,-0.35c-0.13333,-0.13333 -0.25,-0.25 -0.35,-0.35c-0.36667,-0.13333 -0.73333,-0.25 -1.1,-0.35c-0.1,-0.13333 -0.21667,-0.25 -0.35,-0.35c-0.33333,-0.13333 -0.68333,-0.26667 -1.05,-0.4c-0.13333,-0.1 -0.25,-0.21667 -0.35,-0.35c-0.36667,-0.1 -0.73333,-0.21667 -1.1,-0.35c-0.1,-0.1 -0.21667,-0.21667 -0.35,-0.35c-0.33333,-0.13333 -0.68333,-0.25 -1.05,-0.35c-0.13333,-0.13333 -0.25,-0.25 -0.35,-0.35c-0.36667,-0.13333 -0.73333,-0.25 -1.1,-0.35c-0.1,-0.13333 -0.21667,-0.26667 -0.35,-0.4c-0.36667,-0.1 -0.71667,-0.21667 -1.05,-0.35c-0.13333,-0.1 -0.25,-0.21667 -0.35,-0.35c-0.36667,-0.1 -0.73333,-0.21667 -1.1,-0.35c-0.1,-0.16667 -0.21667,-0.35 -0.35,-0.55c-0.16667,-0.16667 -0.35,-0.33333 -0.55,-0.5c-0.23333,-0.2 -0.46667,-0.38333 -0.7,-0.55c-0.16667,-0.2 -0.35,-0.38333 -0.55,-0.55c-0.16667,-0.16667 -0.33333,-0.35 -0.5,-0.55c-0.2,-0.16667 -0.38333,-0.33333 -0.55,-0.5c-0.2,-0.2 -0.38333,-0.38333 -0.55,-0.55c-0.16667,-0.16667 -0.35,-0.35 -0.55,-0.55c-0.1,-0.1 -0.21667,-0.21667 -0.35,-0.35c-0.33333,-0.1 -0.68333,-0.21667 -1.05,-0.35c-0.13333,-0.16667 -0.25,-0.35 -0.35,-0.55c-0.13333,-0.16667 -0.25,-0.33333 -0.35,-0.5c-0.06667,-0.2 -0.13333,-0.38333 -0.2,-0.55c-0.43333,-0.16667 -0.85,-0.35 -1.25,-0.55c-0.13333,-0.16667 -0.25,-0.35 -0.35,-0.55c-0.2,-0.16667 -0.38333,-0.33333 -0.55,-0.5c-0.23333,-0.2 -0.46667,-0.38333 -0.7,-0.55c-0.2,-0.16667 -0.38333,-0.35 -0.55,-0.55c-0.1,-0.16667 -0.21667,-0.33333 -0.35,-0.5c-0.23333,-0.2 -0.46667,-0.38333 -0.7,-0.55c-0.13333,-0.16667 -0.25,-0.35 -0.35,-0.55c-0.26667,-0.16667 -0.51667,-0.35 -0.75,-0.55c-0.1,-0.16667 -0.21667,-0.33333 -0.35,-0.5c-0.1,-0.2 -0.21667,-0.38333 -0.35,-0.55c-0.06667,-0.16667 -0.13333,-0.35 -0.2,-0.55c-0.1,-0.16667 -0.21667,-0.33333 -0.35,-0.5c-0.06667,-0.2 -0.11667,-0.38333 -0.15,-0.55c-0.13333,-0.16667 -0.25,-0.35 -0.35,-0.55c-0.2,-0.16667 -0.38333,-0.35 -0.55,-0.55c-0.13333,-0.16667 -0.25,-0.33333 -0.35,-0.5c-0.06667,-0.2 -0.13333,-0.38333 -0.2,-0.55c-0.1,-0.16667 -0.21667,-0.35 -0.35,-0.55c-0.13333,-0.16667 -0.25,-0.33333 -0.35,-0.5c-0.06667,-0.2 -0.13333,-0.38333 -0.2,-0.55c-0.1,-0.16667 -0.21667,-0.35 -0.35,-0.55c-0.16667,-0.16667 -0.35,-0.35 -0.55,-0.55c-0.1,-0.16667 -0.21667,-0.33333 -0.35,-0.5c-0.06667,-0.2 -0.11667,-0.38333 -0.15,-0.55c-0.06667,-0.16667 -0.13333,-0.35 -0.2,-0.55c-0.1,-0.16667 -0.21667,-0.33333 -0.35,-0.5c-0.06667,-0.2 -0.13333,-0.38333 -0.2,-0.55c-0.1,-0.16667 -0.21667,-0.35 -0.35,-0.55c-0.06667,-0.16667 -0.11667,-0.35 -0.15,-0.55c-0.13333,-0.16667 -0.25,-0.33333 -0.35,-0.5c-0.13333,-0.2 -0.26667,-0.38333 -0.4,-0.55c0,-0.16667 0,-0.35 0,-0.55c-0.03333,-0.16667 -0.08333,-0.33333 -0.15,-0.5c-0.06667,-0.2 -0.13333,-0.38333 -0.2,-0.55c-0.1,-0.16667 -0.21667,-0.35 -0.35,-0.55c0,-0.16667 0,-0.35 0,-0.55c0,-0.16667 0,-0.33333 0,-0.5c0,-0.2 0,-0.38333 0,-0.55c-0.1,-0.16667 -0.21667,-0.35 -0.35,-0.55c-0.06667,-0.16667 -0.13333,-0.33333 -0.2,-0.5c-0.03333,-0.2 -0.08333,-0.38333 -0.15,-0.55c0,-0.16667 0,-0.35 0,-0.55c0,-0.16667 0,-0.35 0,-0.55c-0.06667,-0.16667 -0.13333,-0.33333 -0.2,-0.5c-0.1,-0.2 -0.21667,-0.38333 -0.35,-0.55c-0.06667,-0.16667 -0.11667,-0.35 -0.15,-0.55c0,-0.16667 0,-0.33333 0,-0.5c0,-0.2 0,-0.38333 0,-0.55c0,-0.16667 0,-0.35 0,-0.55c0,-0.16667 0,-0.35 0,-0.55c-0.06667,-0.16667 -0.13333,-0.33333 -0.2,-0.5c-0.13333,-0.2 -0.25,-0.38333 -0.35,-0.55c-0.06667,-0.16667 -0.13333,-0.35 -0.2,-0.55c0,-0.16667 0,-0.33333 0,-0.5c0,-0.2 0,-0.38333 0,-0.55c-0.06667,-0.16667 -0.11667,-0.35 -0.15,-0.55c-0.06667,-0.16667 -0.13333,-0.33333 -0.2,-0.5c-0.1,-0.2 -0.21667,-0.38333 -0.35,-0.55c0,-0.2 0,-0.38333 0,-0.55c0,-0.16667 0,-0.35 0,-0.55c0,-0.16667 0,-0.33333 0,-0.5c0,-0.2 0,-0.38333 0,-0.55c0,-0.16667 0,-0.35 0,-0.55c-0.06667,-0.16667 -0.13333,-0.33333 -0.2,-0.5c-0.03333,-0.2 -0.08333,-0.38333 -0.15,-0.55c-0.13333,-0.2 -0.25,-0.38333 -0.35,-0.55c0,-0.16667 0,-0.35 0,-0.55c0,-0.16667 0,-0.33333 0,-0.5c0,-0.2 0,-0.38333 0,-0.55c0,-0.16667 0,-0.35 0,-0.55c0,-0.16667 0,-0.33333 0,-0.5c0,-0.2 0,-0.38333 0,-0.55c0,-0.2 0,-0.38333 0,-0.55c0,-0.16667 0,-0.35 0,-0.55c-0.06667,-0.16667 -0.13333,-0.33333 -0.2,-0.5c-0.1,-0.2 -0.21667,-0.38333 -0.35,-0.55c-0.06667,-0.16667 -0.13333,-0.35 -0.2,-0.55c0,-0.16667 0,-0.33333 0,-0.5c0,-0.2 0,-0.38333 0,-0.55c0,-0.2 0,-0.38333 0,-0.55c0,-0.16667 0,-0.35 0,-0.55c0,-0.16667 0,-0.33333 0,-0.5c0,-0.2 0,-0.38333 0,-0.55c0,-0.16667 0,-0.35 0,-0.55c0,-0.16667 0,-0.33333 0,-0.5c0,-0.36667 0,-0.73333 0,-1.1c0,-0.16667 0,-0.35 0,-0.55c0.13333,-0.16667 0.26667,-0.33333 0.4,-0.5c0.03333,-0.2 0.08333,-0.38333 0.15,-0.55c0.06667,-0.16667 0.13333,-0.35 0.2,-0.55c0,-0.16667 0,-0.33333 0,-0.5c0,-0.2 0,-0.38333 0,-0.55c0,-0.2 0,-0.38333 0,-0.55c0,-0.16667 0,-0.35 0,-0.55c0,-0.16667 0,-0.33333 0,-0.5c0,-0.36667 0,-0.73333 0,-1.1c0,-0.33333 0,-0.68333 0,-1.05c0,-0.36667 0,-0.73333 0,-1.1c0,-0.16667 0,-0.33333 0,-0.5c0,-0.36667 0,-0.73333 0,-1.1c0,-0.16667 0,-0.33333 0,-0.5c0,-0.2 0,-0.38333 0,-0.55c0.1,-0.2 0.21667,-0.38333 0.35,-0.55c0.06667,-0.16667 0.11667,-0.35 0.15,-0.55c0.06667,-0.16667 0.13333,-0.33333 0.2,-0.5c0,-0.2 0,-0.38333 0,-0.55c0,-0.16667 0,-0.35 0,-0.55c0,-0.16667 0,-0.33333 0,-0.5c0.06667,-0.2 0.13333,-0.38333 0.2,-0.55c0.1,-0.2 0.21667,-0.38333 0.35,-0.55c0.03333,-0.16667 0.08333,-0.35 0.15,-0.55c0,-0.16667 0,-0.33333 0,-0.5c0,-0.2 0,-0.38333 0,-0.55c0,-0.16667 0,-0.35 0,-0.55c0.13333,-0.16667 0.25,-0.33333 0.35,-0.5c0.13333,-0.2 0.26667,-0.38333 0.4,-0.55c0.03333,-0.16667 0.08333,-0.35 0.15,-0.55c0.13333,-0.16667 0.25,-0.35 0.35,-0.55c0.06667,-0.16667 0.13333,-0.33333 0.2,-0.5c0,-0.2 0,-0.38333 0,-0.55c0.06667,-0.16667 0.11667,-0.35 0.15,-0.55c0.13333,-0.16667 0.26667,-0.33333 0.4,-0.5c0.16667,-0.2 0.33333,-0.38333 0.5,-0.55c0.13333,-0.16667 0.25,-0.35 0.35,-0.55c0.06667,-0.16667 0.13333,-0.35 0.2,-0.55c0.06667,-0.16667 0.13333,-0.33333 0.2,-0.5c0.1,-0.2 0.21667,-0.38333 0.35,-0.55c0.1,-0.16667 0.21667,-0.35 0.35,-0.55c0.1,-0.16667 0.21667,-0.33333 0.35,-0.5c0.16667,-0.2 0.35,-0.38333 0.55,-0.55c0.16667,-0.16667 0.33333,-0.35 0.5,-0.55c0.2,-0.16667 0.38333,-0.35 0.55,-0.55c0.13333,-0.16667 0.25,-0.33333 0.35,-0.5c0.06667,-0.2 0.13333,-0.38333 0.2,-0.55c0.1,-0.16667 0.21667,-0.35 0.35,-0.55c0.16667,-0.16667 0.35,-0.33333 0.55,-0.5c0.16667,-0.2 0.33333,-0.38333 0.5,-0.55c0.2,-0.16667 0.38333,-0.35 0.55,-0.55c0.16667,-0.16667 0.35,-0.35 0.55,-0.55c0.16667,-0.16667 0.35,-0.33333 0.55,-0.5c0.33333,-0.36667 0.68333,-0.73333 1.05,-1.1c0.36667,-0.33333 0.71667,-0.68333 1.05,-1.05c0.2,-0.16667 0.38333,-0.35 0.55,-0.55c0.36667,-0.16667 0.73333,-0.35 1.1,-0.55c0.23333,-0.16667 0.46667,-0.33333 0.7,-0.5c0.06667,-0.2 0.11667,-0.38333 0.15,-0.55c0.13333,-0.16667 0.26667,-0.35 0.4,-0.55c0.1,-0.16667 0.21667,-0.33333 0.35,-0.5c0.16667,-0.2 0.33333,-0.38333 0.5,-0.55c0.26667,-0.16667 0.51667,-0.35 0.75,-0.55c0.33333,-0.16667 0.68333,-0.33333 1.05,-0.5c0.43333,-0.2 0.85,-0.38333 1.25,-0.55z" fill="#ffffff"/><path d="M418.10541,330.61832c7.6,-7.86667 16.93333,-11.96667 28,-12.3c10.96667,-0.26667 20.31667,3.25 28.05,10.55c8.46667,8.03333 12.7,18.95 12.7,32.75c0,2.83333 -0.65,6.98333 -1.95,12.45c-1.26667,5.4 -2.5,9.28333 -3.7,11.65c-2.36667,4.7 -5.48333,8.73333 -9.35,12.1c-1.1,1.03333 -4.98333,2.6 -11.65,4.7c-6.56667,2.1 -10.85,3.15 -12.85,3.15c-15.83333,0 -27.51667,-6.13333 -35.05,-18.4c-2.46667,-4 -4.33333,-8.45 -5.6,-13.35c-0.86667,-3.3 -1.3,-5.86667 -1.3,-7.7c0,-14.9 4.23333,-26.76667 12.7,-35.6M453.35541,356.21832c-2.66667,-3.53333 -5.7,-5.98333 -9.1,-7.35c-3.73333,-1.43333 -6.78333,-1.01667 -9.15,1.25c-2.8,2.66667 -4.2,7.56667 -4.2,14.7c0,2.6 0.55,5.28333 1.65,8.05c1.73333,4.46667 4.4,6.7 8,6.7c6.13333,0 10.76667,-1.83333 13.9,-5.5c2.06667,-2.4 3.1,-4.7 3.1,-6.9c0,-3.6 -1.4,-7.25 -4.2,-10.95M545.80541,365.41832c-4.86667,5.13333 -12.55,7.7 -23.05,7.7c-1.13333,0 -2.16667,-0.03333 -3.1,-0.1c0.86667,2.4 2.03333,6.15 3.5,11.25c2.7,9.36667 4.05,14.31667 4.05,14.85c0,1.03333 -0.06667,1.63333 -0.2,1.8c-0.33333,0.5 -1.23333,0.86667 -2.7,1.1c-2.16667,0.36667 -10.55,0.93333 -25.15,1.7h-2.75c-2.43333,-1.9 -4.43333,-11.33333 -6,-28.3c-1.26667,-13.53333 -1.9,-26.08333 -1.9,-37.65c0,-3.46667 0.03333,-5.66667 0.1,-6.6c0.03333,-0.5 0.1,-0.98333 0.2,-1.45c-0.1,-0.23333 -0.15,-0.55 -0.15,-0.95c0,-0.36667 0.18333,-0.68333 0.55,-0.95c0.23333,-0.86667 0.58333,-1.5 1.05,-1.9c0.2,0.36667 0.36667,0.75 0.5,1.15c1.6,-0.53333 4.13333,-0.95 7.6,-1.25c6.86667,-0.5 13.95,-0.08333 21.25,1.25c8.9,1.66667 15.98333,4.48333 21.25,8.45c6.46667,4.83333 9.7,11.08333 9.7,18.75c0,4.03333 -1.58333,7.75 -4.75,11.15M509.60541,351.61832c0.23333,2.1 1.08333,3.45 2.55,4.05l8.4,-0.25c1.23333,-0.33333 2.1,-0.71667 2.6,-1.15c0.06667,0.6 0.1,0.35 0.1,-0.75c0,-1.03333 -1.03333,-2.31667 -3.1,-3.85c-2.8,-2.03333 -6.28333,-2.96667 -10.45,-2.8c0,0.8 -0.03333,2.38333 -0.1,4.75M647.80541,390.46832c0,0.6 -0.11667,1.36667 -0.35,2.3c-0.36667,1.43333 -0.91667,2.48333 -1.65,3.15c-4.76667,0 -8.78333,0.43333 -12.05,1.3c-3.26667,0.83333 -5.4,1.25 -6.4,1.25c-1.93333,0 -3.06667,-1.26667 -3.4,-3.8c0,-2.53333 0,-3.85 0,-3.95c0.06667,-6.3 0.1,-10.96667 0.1,-14c0,-2.9 0.31667,-5.43333 0.95,-7.6c1,-3.43333 2.51667,-3.56667 4.55,-0.4c7.86667,-4.5 13.2,-3.08333 16,4.25c1.5,3.8 2.25,9.63333 2.25,17.5M614.90541,336.46832c0,1.86667 0.23333,4.55 0.7,8.05c0.1,0.66667 0.6,3.55 1.5,8.65c0.83333,4.63333 1.25,7.26667 1.25,7.9c0,0.96667 -0.01667,1.48333 -0.05,1.55c-0.16667,0.5 -0.71667,0.91667 -1.65,1.25c-2.23333,0.76667 -8.06667,1.45 -17.5,2.05c0.3,1.03333 1.66667,5.6 4.1,13.7c2.3,7.96667 3.45,12.88333 3.45,14.75c0,0.56667 -0.15,1.06667 -0.45,1.5c-0.3,0.36667 -0.81667,0.78333 -1.55,1.25c-6.73333,0.2 -13.2,0.43333 -19.4,0.7c-6.7,0.26667 -10.3,0.48333 -10.8,0.65h-2.7c-1.6,-0.4 -2.66667,-2.06667 -3.2,-5c-0.16667,-1.2 -0.25,-3.08333 -0.25,-5.65c0,-5.73333 0.06667,-9.48333 0.2,-11.25c0.2,-3.63333 0.83333,-7.66667 1.9,-12.1c-3.63333,-0.5 -6.96667,-0.15 -10,1.05c-3.3,1.33333 -5.23333,2 -5.8,2c-1.5,0 -2.33333,-2.1 -2.5,-6.3c0.1,-4.8 0.15,-7.85 0.15,-9.15c0,-0.9 -0.1,-2.16667 -0.3,-3.8c-0.26667,-1.73333 -0.41667,-2.98333 -0.45,-3.75c-0.13333,-2.63333 -0.7,-4.36667 -1.7,-5.2c-0.93333,-0.83333 -1.4,-1.4 -1.4,-1.7c0,-1.33333 2.13333,-2.38333 6.4,-3.15c6.3,-1.06667 19.46667,-2.18333 39.5,-3.35c0,-0.33333 2.85,-0.41667 8.55,-0.25c5.86667,0.16667 9.31667,0.68333 10.35,1.55c1.1,0.9 1.65,2.25 1.65,4.05M641.70541,342.86832c1.76667,2.56667 2.65,5.11667 2.65,7.65c0,2.1 -0.4,3.98333 -1.2,5.65c-1.66667,3.26667 -4.68333,4.9 -9.05,4.9c-3.96667,0 -6.96667,-1.05 -9,-3.15c-1.93333,-2 -2.9,-4.83333 -2.9,-8.5c0,-3.73333 0.83333,-6.61667 2.5,-8.65c1.8,-2.2 4.35,-3.23333 7.65,-3.1c3.9,0.2 7.01667,1.93333 9.35,5.2M720.45541,366.01832c0,5.96667 -2.05,11.6 -6.15,16.9c-7.33333,9.46667 -19.78333,14.2 -37.35,14.2c-10.03333,0 -16.95,-4.61667 -20.75,-13.85c-1.2,-2.96667 -2.01667,-6.25 -2.45,-9.85c-0.2,-1.66667 -0.3,-3.33333 -0.3,-5c0,-7.1 1.43333,-14 4.3,-20.7c4.33333,-10.2 11.06667,-15.73333 20.2,-16.6c16.46667,-1.6 28.38333,3.01667 35.75,13.85c4.5,6.53333 6.75,13.55 6.75,21.05M693.05541,360.91832c-1.23333,-1.43333 -2.6,-2.73333 -4.1,-3.9c-2.16667,0.06667 -3.68333,0.3 -4.55,0.7c-1.93333,0.9 -2.93333,1.36667 -3,1.4c-0.53333,-0.3 -0.93333,-0.8 -1.2,-1.5c-0.13333,-0.6 -0.23333,-0.9 -0.3,-0.9c-0.5,0.5 -1.23333,1.88333 -2.2,4.15c-0.96667,2.26667 -1.45,3.73333 -1.45,4.4c0,1.7 0.56667,3.56667 1.7,5.6c1.76667,3.13333 4.36667,4.7 7.8,4.7c2.9,0 5.35,-1.81667 7.35,-5.45c1.03333,-1.83333 1.75,-3.71667 2.15,-5.65c0,-0.73333 -0.73333,-1.91667 -2.2,-3.55M798.60541,332.41832c0.03333,1 -0.01667,2.35 -0.15,4.05v26.7c0.1,6.4 0.36667,15.95 0.8,28.65c0,1.46667 -0.21667,2.65 -0.65,3.55c0.03333,0.1 0.01667,0.18333 -0.05,0.25c0.03333,0.16667 0.05,0.35 0.05,0.55c-0.73333,0.56667 -1.8,0.86667 -3.2,0.9c-3.66667,0.16667 -8.31667,0.66667 -13.95,1.5h-6.2c-8.5,-7.96667 -14.78333,-13.83333 -18.85,-17.6c-3,-2.83333 -5.36667,-5.11667 -7.1,-6.85c0.06667,1.36667 0.21667,2.86667 0.45,4.5c0.13333,0.93333 0.68333,3.08333 1.65,6.45c0.83333,3 1.25,5.2 1.25,6.6c0,1 -0.7,1.88333 -2.1,2.65c-2.4,1.33333 -6.5,2 -12.3,2c-1.23333,0 -3,-0.11667 -5.3,-0.35c-2.73333,-0.3 -4.4,-0.61667 -5,-0.95c0.06667,-0.1 0.13333,-0.18333 0.2,-0.25c-1.26667,-1.26667 -2.18333,-7.75 -2.75,-19.45c-0.33333,-13.16667 -0.5,-19.8 -0.5,-19.9c0,-6.56667 0.48333,-11.66667 1.45,-15.3c-0.46667,-0.2 -0.83333,-0.46667 -1.1,-0.8c0.23333,-0.76667 0.93333,-1.43333 2.1,-2c0.2,-0.5 0.4,-0.93333 0.6,-1.3c0.3,0.13333 0.68333,0.28333 1.15,0.45l0.05,0.05c0.56667,-0.2 1.18333,-0.4 1.85,-0.6c1.73333,-0.43333 6.43333,-1.28333 14.1,-2.55c0,-0.1 0.43333,-0.18333 1.3,-0.25c0.03333,-0.06667 0.06667,-0.15 0.1,-0.25c0.2,-0.23333 0.66667,-0.35 1.4,-0.35c0.6,0 1.26667,0.16667 2,0.5c0.4,0 0.85,0 1.35,0c0.23333,0.26667 0.68333,0.66667 1.35,1.2c0.36667,0.3 0.55,0.5 0.55,0.6c0,0.06667 -0.06667,0.16667 -0.2,0.3c2.2,1.9 4.81667,4.8 7.85,8.7c3.13333,4.06667 7.16667,9.56667 12.1,16.5c-0.23333,-1.13333 -1.46667,-5.58333 -3.7,-13.35c-1.9,-6.8 -2.85,-10.53333 -2.85,-11.2c-0.13333,-0.3 -0.18333,-0.55 -0.15,-0.75c0.06667,-0.43333 0.5,-0.76667 1.3,-1c2.4,-0.76667 8.25,-1.05 17.55,-0.85c1.93333,0.03333 4.46667,-0.33333 7.6,-1.1c0.8,-0.16667 1.5,-0.31667 2.1,-0.45c0.13333,-1.16667 0.7,-1.93333 1.7,-2.3c1.4,0.2 2.11667,1.23333 2.15,3.1M851.30541,350.16832l-16.8,0.3c-2.7,0.36667 -4.46667,0.68333 -5.3,0.95c-0.56667,0.2 -1.36667,0.65 -2.4,1.35c3.6,2.06667 6.58333,3.2 8.95,3.4c1.5,0.13333 3.23333,-0.2 5.2,-1c2.06667,-0.83333 3.75,-1.25 5.05,-1.25c2.36667,-0.03333 5.33333,0.78333 8.9,2.45c2.43333,1.06667 4.03333,1.81667 4.8,2.25c1.8,0.93333 3.16667,1.81667 4.1,2.65c1.6,1.5 2.91667,3.8 3.95,6.9c0.9,2.63333 1.35,4.9 1.35,6.8c0,1.86667 -0.53333,4.08333 -1.6,6.65c-1.33333,3.16667 -3.21667,6.06667 -5.65,8.7c-6.8,7.3 -16.46667,10.95 -29,10.95c-6.63333,0 -11.58333,-0.26667 -14.85,-0.8c-3.63333,-0.6 -6.3,-1.68333 -8,-3.25c-1.63333,-1.5 -2.7,-3.8 -3.2,-6.9c-0.43333,-2.36667 -0.65,-6.3 -0.65,-11.8c0,-2.96667 0.01667,-4.55 0.05,-4.75c0.26667,-1.76667 1.03333,-2.65 2.3,-2.65c1,0 1.65,0.21667 1.95,0.65c0.16667,0.3 0.45,0.81667 0.85,1.55c1.23333,1.43333 5.26667,2.15 12.1,2.15c5.33333,0 8.91667,-0.3 10.75,-0.9c2.1,-0.66667 4.35,-2.35 6.75,-5.05c-1.86667,-1.6 -6.4,-2.68333 -13.6,-3.25c-7.1,-0.33333 -10.96667,-0.56667 -11.6,-0.7c-1.13333,-0.3 -2.43333,-0.9 -3.9,-1.8c-0.93333,-0.6 -1.76667,-1.2 -2.5,-1.8c-1.13333,-1 -1.85,-2.53333 -2.15,-4.6c-0.13333,-0.8 -0.2,-2.6 -0.2,-5.4c0,-3.73333 0.6,-6.88333 1.8,-9.45c1.8,-4 5.01667,-7.01667 9.65,-9.05c7.7,-3.3 15.35,-4.73333 22.95,-4.3c8.93333,0.46667 13.4,3.85 13.4,10.15c0,1.4 -0.21667,3.11667 -0.65,5.15c-0.66667,3.03333 -1.6,4.93333 -2.8,5.7z" fill="#000000"/></g></g></svg>