<svg version="1.1" xmlns="http://www.w3.org/2000/svg" xmlns:xlink="http://www.w3.org/1999/xlink" width="118.41338" height="97.16665" viewBox="0,0,118.41338,97.16665"><g transform="translate(-580.79331,-311.41667)"><g data-paper-data="{&quot;isPaintingLayer&quot;:true}" fill-rule="nonzero" stroke="none" stroke-width="1" stroke-linecap="butt" stroke-linejoin="miter" stroke-miterlimit="10" stroke-dasharray="" stroke-dashoffset="0" style="mix-blend-mode: normal"><path d="M662.50669,324.82133c4.63333,4.2 9.25,9.4 13.85,15.6c3.76667,5.13333 6.96667,10.28333 9.6,15.45c0.56667,1.1 1.43333,2.73333 2.6,4.9c0.96667,1.9 1.58333,3.61667 1.85,5.15l-3.6,3.35c1.4,0.63333 3.93333,1.36667 7.6,2.2c3,1.06667 4.6,2.85 4.8,5.35c-1.83333,0.13333 -3.93333,-0.28333 -6.3,-1.25c-2.66667,-1.2 -4.68333,-2.03333 -6.05,-2.5c-0.03333,2.86667 -0.35,6.15 -0.95,9.85c-0.13333,1 -0.71667,4.23333 -1.75,9.7c2.73333,2.93333 3.58333,5.63333 2.55,8.1c-0.73333,2.33333 -2.43333,4.13333 -5.1,5.4c-1.86667,0.86667 -4.36667,1.51667 -7.5,1.95c-5.3,0.53333 -11.13333,0.65 -17.5,0.35c-4.73333,-0.23333 -10.55,-0.76667 -17.45,-1.6c-5.46667,-0.8 -9.21667,-1.46667 -11.25,-2c-4.16667,-1.03333 -7.61667,-2.56667 -10.35,-4.6c-1.56667,-1.1 -3.01667,-2.63333 -4.35,-4.6c-0.76667,-1.13333 -1.81667,-2.98333 -3.15,-5.55c-11.13333,-3 -19.66667,-8.23333 -25.6,-15.7c-3.4,-4.46667 -4.43333,-8.48333 -3.1,-12.05c0.66667,-2.13333 2,-3.93333 4,-5.4c1.83333,-1.4 3.91667,-2.26667 6.25,-2.6c1.73333,-0.66667 3.71667,-0.98333 5.95,-0.95c1.5,0.03333 3.51667,0.25 6.05,0.65l-0.55,-5.4c-0.86667,-3.4 -1.38333,-6.35 -1.55,-8.85c-0.23333,-3.3 0.06667,-6.26667 0.9,-8.9c0.83333,-2.53333 2.26667,-4.63333 4.3,-6.3c2.23333,-1.8 4.63333,-2.58333 7.2,-2.35c1.7,0.06667 3.43333,0.66667 5.2,1.8c1.03333,0.66667 2.48333,1.85 4.35,3.55c-0.13333,-2.93333 -0.03333,-5.23333 0.3,-6.9c0.46667,-2.53333 1.51667,-4.51667 3.15,-5.95c2.33333,-2.1 5.28333,-3.2 8.85,-3.3c3.13333,-0.06667 6.28333,0.58333 9.45,1.95c6,2.6 11.76667,6.41667 17.3,11.45M640.00669,317.17133c-2.2,-0.76667 -4.35,-0.91667 -6.45,-0.45c-2.43333,0.53333 -4.05,1.8 -4.85,3.8c-0.7,2.23333 -0.95,5.1 -0.75,8.6c0.33333,5.1 0.48333,8 0.45,8.7l-2.55,1.6c-1.23333,-0.86667 -2.93333,-2.96667 -5.1,-6.3c-1.93333,-2.9 -3.86667,-4.75 -5.8,-5.55c-2.1,-0.73333 -4.03333,-0.21667 -5.8,1.55c-1.6,1.6 -2.48333,3.51667 -2.65,5.75c-0.3,3.76667 0.11667,7.88333 1.25,12.35c0.76667,3.13333 2.08333,7.1 3.95,11.9c-0.63333,0.8 -1.13333,1.36667 -1.5,1.7c-0.66667,0.6 -1.36667,0.76667 -2.1,0.5c-1.96667,-0.63333 -3.45,-1.1 -4.45,-1.4c-1.76667,-0.53333 -3.31667,-0.78333 -4.65,-0.75c-2.76667,-0.1 -4.96667,0.03333 -6.6,0.4c-2.46667,0.53333 -4.28333,1.65 -5.45,3.35c-1.16667,2.46667 -0.2,5.46667 2.9,9c4.73333,5.1 11.31667,10.1 19.75,15c-1.4,-2.83333 -2.3,-5.06667 -2.7,-6.7c-0.63333,-2.66667 -0.48333,-5.01667 0.45,-7.05c0.46667,-1.2 1.31667,-2.08333 2.55,-2.65c1.23333,-0.53333 2.45,-0.56667 3.65,-0.1c2.7,0.93333 5.46667,2.53333 8.3,4.8c1.66667,1.33333 4.01667,3.51667 7.05,6.55c-1.3,-5.16667 -2.05,-9.06667 -2.25,-11.7c-0.3,-4.43333 0.38333,-8.26667 2.05,-11.5c1,-2.4 2.65,-4.36667 4.95,-5.9c2.23333,-1.46667 4.66667,-2.25 7.3,-2.35c1.4,0.06667 2.83333,0.6 4.3,1.6c0.66667,0.5 1.83333,1.51667 3.5,3.05c5,5.1 12.86667,12.38333 23.6,21.85c1.1,-1.6 2.73333,-4.05 4.9,-7.35c1.96667,-2.8 3.86667,-5.05 5.7,-6.75c-0.3,-1.2 -0.85,-2.55 -1.65,-4.05c-0.96667,-1.7 -1.7,-2.98333 -2.2,-3.85c-4.8,-8.56667 -10.85,-16.55 -18.15,-23.95c-7.23333,-6.83333 -14.21667,-11.4 -20.95,-13.7M644.35669,354.22133c-1.16667,-0.9 -2.31667,-1.23333 -3.45,-1c-2.36667,0.3 -4.5,1.41667 -6.4,3.35c-1.8,1.76667 -3.03333,3.86667 -3.7,6.3c-0.66667,3.1 -0.76667,6.55 -0.3,10.35c0.33333,2.73333 1.06667,6.13333 2.2,10.2c0.53333,1.83333 0.8,3.06667 0.8,3.7c-0.03333,1.36667 -0.86667,1.81667 -2.5,1.35c-1.5,-0.9 -4.7,-3.7 -9.6,-8.4c-3.8,-3.66667 -7.38333,-5.83333 -10.75,-6.5c-1.06667,2.96667 -0.75,6.35 0.95,10.15c0.93333,2.13333 2.53333,5.26667 4.8,9.4c0.53333,-1.43333 1.1,-3.23333 1.7,-5.4c0.66667,-2.4 1.16667,-4.2 1.5,-5.4c2.4,0.63333 5.1,2.35 8.1,5.15c3.43333,3.13333 5.98333,5.08333 7.65,5.85c1.43333,0.8 3.71667,1.55 6.85,2.25c3.13333,0.7 5.4,1.43333 6.8,2.2l-0.85,1.35c-2.13333,0.46667 -4.51667,0.48333 -7.15,0.05c-1.73333,-0.3 -4.06667,-0.91667 -7,-1.85c-1.06667,0.06667 -2.51667,0.25 -4.35,0.55c-2.06667,0.33333 -3.53333,0.55 -4.4,0.65l0.1,0.65c16.43333,3.9 31.95,5.33333 46.55,4.3c2.86667,-0.43333 4.81667,-0.81667 5.85,-1.15c2.16667,-0.73333 3.7,-1.88333 4.6,-3.45c0.16667,-0.86667 -0.25,-1.66667 -1.25,-2.4c-1.26667,-0.7 -2.11667,-1.26667 -2.55,-1.7l-1.95,1.65c-0.76667,0.46667 -1.4,0.28333 -1.9,-0.55c-0.46667,-1.1 -0.83333,-1.83333 -1.1,-2.2l-4.35,-1.65c-0.86667,2.33333 -1.35,3.61667 -1.45,3.85c-0.66667,1.43333 -1.45,2.55 -2.35,3.35c-0.53333,0.1 -1.18333,0.16667 -1.95,0.2l-1.95,0.1c-1.1,-2.03333 -1.76667,-4.73333 -2,-8.1c-0.33333,-5.3 -0.51667,-8.08333 -0.55,-8.35c-3.06667,-3.03333 -5.38333,-5.3 -6.95,-6.8c-2.73333,-2.7 -5.1,-4.91667 -7.1,-6.65c-0.5,1.3 -1.16667,3.26667 -2,5.9c-0.83333,2.36667 -1.75,4.23333 -2.75,5.6c-0.56667,-2.06667 -0.55,-4.41667 0.05,-7.05c0.33333,-1.56667 1.08333,-3.83333 2.25,-6.8c0.3,-0.76667 0.78333,-1.33333 1.45,-1.7c0.76667,-0.43333 1.41667,-0.3 1.95,0.4c8.53333,9.26667 16.68333,16.56667 24.45,21.9c1.16667,-1.33333 2.75,-1.78333 4.75,-1.35c0.63333,-1.53333 1.63333,-3.46667 3,-5.8c1.66667,-2.9 2.71667,-4.78333 3.15,-5.65c0.2,-2.2 0.38333,-3.83333 0.55,-4.9c0.26667,-1.53333 0.73333,-2.83333 1.4,-3.9c-0.66667,0.93333 -1.86667,2.53333 -3.6,4.8c-1.63333,2.2 -2.88333,4.06667 -3.75,5.6c-0.5,0.9 -0.9,1.56667 -1.2,2c-0.46667,0.76667 -0.98333,1.33333 -1.55,1.7c-1.03333,-0.13333 -2.11667,-0.75 -3.25,-1.85c-1.23333,-1.3 -2.18333,-2.21667 -2.85,-2.75c-8.2,-7.23333 -14.86667,-13.56667 -20,-19c-1.13333,-1.2 -2.01667,-2.05 -2.65,-2.55M679.50669,390.32133c0.63333,-2.7 1.11667,-5.28333 1.45,-7.75c-2.1,3.23333 -3.63333,6.51667 -4.6,9.85l3.15,-2.1M662.60669,385.97133c0.4,2.7 0.78333,5.98333 1.15,9.85c0.9,-2.03333 1.8,-4.21667 2.7,-6.55l-3.85,-3.3M621.05669,385.07133c-0.46667,2.63333 -1.1,5.78333 -1.9,9.45c4.4,-0.36667 7.36667,-0.66667 8.9,-0.9c-1.63333,-1.83333 -2.85,-3.21667 -3.65,-4.15c-1.36667,-1.63333 -2.48333,-3.1 -3.35,-4.4z" fill="#000000"/><path d="M628.05669,393.62133c-1.53333,0.23333 -4.5,0.53333 -8.9,0.9c0.8,-3.66667 1.43333,-6.81667 1.9,-9.45c0.86667,1.3 1.98333,2.76667 3.35,4.4c0.8,0.93333 2.01667,2.31667 3.65,4.15M666.45669,389.27133c-0.9,2.33333 -1.8,4.51667 -2.7,6.55c-0.36667,-3.86667 -0.75,-7.15 -1.15,-9.85l3.85,3.3M680.95669,382.57133c-0.33333,2.46667 -0.81667,5.05 -1.45,7.75l-3.15,2.1c0.96667,-3.33333 2.5,-6.61667 4.6,-9.85z" fill="#e1e1e1"/><path d="M647.00669,356.77133c5.13333,5.43333 11.8,11.76667 20,19c0.66667,0.53333 1.61667,1.45 2.85,2.75c1.13333,1.1 2.21667,1.71667 3.25,1.85c0.56667,-0.36667 1.08333,-0.93333 1.55,-1.7c0.3,-0.43333 0.7,-1.1 1.2,-2c0.86667,-1.53333 2.11667,-3.4 3.75,-5.6c1.73333,-2.26667 2.93333,-3.86667 3.6,-4.8c-0.66667,1.06667 -1.13333,2.36667 -1.4,3.9c-0.16667,1.06667 -0.35,2.7 -0.55,4.9c-0.43333,0.86667 -1.48333,2.75 -3.15,5.65c-1.36667,2.33333 -2.36667,4.26667 -3,5.8c-2,-0.43333 -3.58333,0.01667 -4.75,1.35c-7.76667,-5.33333 -15.91667,-12.63333 -24.45,-21.9c-0.53333,-0.7 -1.18333,-0.83333 -1.95,-0.4c-0.66667,0.36667 -1.15,0.93333 -1.45,1.7c-1.16667,2.96667 -1.91667,5.23333 -2.25,6.8c-0.6,2.63333 -0.61667,4.98333 -0.05,7.05c1,-1.36667 1.91667,-3.23333 2.75,-5.6c0.83333,-2.63333 1.5,-4.6 2,-5.9c2,1.73333 4.36667,3.95 7.1,6.65c1.56667,1.5 3.88333,3.76667 6.95,6.8c0.03333,0.26667 0.21667,3.05 0.55,8.35c0.23333,3.36667 0.9,6.06667 2,8.1l1.95,-0.1c0.76667,-0.03333 1.41667,-0.1 1.95,-0.2c0.9,-0.8 1.68333,-1.91667 2.35,-3.35c0.1,-0.23333 0.58333,-1.51667 1.45,-3.85l4.35,1.65c0.26667,0.36667 0.63333,1.1 1.1,2.2c0.5,0.83333 1.13333,1.01667 1.9,0.55l1.95,-1.65c0.43333,0.43333 1.28333,1 2.55,1.7c1,0.73333 1.41667,1.53333 1.25,2.4c-0.9,1.56667 -2.43333,2.71667 -4.6,3.45c-1.03333,0.33333 -2.98333,0.71667 -5.85,1.15c-14.6,1.03333 -30.11667,-0.4 -46.55,-4.3l-0.1,-0.65c0.86667,-0.1 2.33333,-0.31667 4.4,-0.65c1.83333,-0.3 3.28333,-0.48333 4.35,-0.55c2.93333,0.93333 5.26667,1.55 7,1.85c2.63333,0.43333 5.01667,0.41667 7.15,-0.05l0.85,-1.35c-1.4,-0.76667 -3.66667,-1.5 -6.8,-2.2c-3.13333,-0.7 -5.41667,-1.45 -6.85,-2.25c-1.66667,-0.76667 -4.21667,-2.71667 -7.65,-5.85c-3,-2.8 -5.7,-4.51667 -8.1,-5.15c-0.33333,1.2 -0.83333,3 -1.5,5.4c-0.6,2.16667 -1.16667,3.96667 -1.7,5.4c-2.26667,-4.13333 -3.86667,-7.26667 -4.8,-9.4c-1.7,-3.8 -2.01667,-7.18333 -0.95,-10.15c3.36667,0.66667 6.95,2.83333 10.75,6.5c4.9,4.7 8.1,7.5 9.6,8.4c1.63333,0.46667 2.46667,0.01667 2.5,-1.35c0,-0.63333 -0.26667,-1.86667 -0.8,-3.7c-1.13333,-4.06667 -1.86667,-7.46667 -2.2,-10.2c-0.46667,-3.8 -0.36667,-7.25 0.3,-10.35c0.66667,-2.43333 1.9,-4.53333 3.7,-6.3c1.9,-1.93333 4.03333,-3.05 6.4,-3.35c1.13333,-0.23333 2.28333,0.1 3.45,1c0.63333,0.5 1.51667,1.35 2.65,2.55M679.10669,354.82133c0.5,0.86667 1.23333,2.15 2.2,3.85c0.8,1.5 1.35,2.85 1.65,4.05c-1.83333,1.7 -3.73333,3.95 -5.7,6.75c-2.16667,3.3 -3.8,5.75 -4.9,7.35c-10.73333,-9.46667 -18.6,-16.75 -23.6,-21.85c-1.66667,-1.53333 -2.83333,-2.55 -3.5,-3.05c-1.46667,-1 -2.9,-1.53333 -4.3,-1.6c-2.63333,0.1 -5.06667,0.88333 -7.3,2.35c-2.3,1.53333 -3.95,3.5 -4.95,5.9c-1.66667,3.23333 -2.35,7.06667 -2.05,11.5c0.2,2.63333 0.95,6.53333 2.25,11.7c-3.03333,-3.03333 -5.38333,-5.21667 -7.05,-6.55c-2.83333,-2.26667 -5.6,-3.86667 -8.3,-4.8c-1.2,-0.46667 -2.41667,-0.43333 -3.65,0.1c-1.23333,0.56667 -2.08333,1.45 -2.55,2.65c-0.93333,2.03333 -1.08333,4.38333 -0.45,7.05c0.4,1.63333 1.3,3.86667 2.7,6.7c-8.43333,-4.9 -15.01667,-9.9 -19.75,-15c-3.1,-3.53333 -4.06667,-6.53333 -2.9,-9c1.16667,-1.7 2.98333,-2.81667 5.45,-3.35c1.63333,-0.36667 3.83333,-0.5 6.6,-0.4c1.33333,-0.03333 2.88333,0.21667 4.65,0.75c1,0.3 2.48333,0.76667 4.45,1.4c0.73333,0.26667 1.43333,0.1 2.1,-0.5c0.36667,-0.33333 0.86667,-0.9 1.5,-1.7c-1.86667,-4.8 -3.18333,-8.76667 -3.95,-11.9c-1.13333,-4.46667 -1.55,-8.58333 -1.25,-12.35c0.16667,-2.23333 1.05,-4.15 2.65,-5.75c1.76667,-1.76667 3.7,-2.28333 5.8,-1.55c1.93333,0.8 3.86667,2.65 5.8,5.55c2.16667,3.33333 3.86667,5.43333 5.1,6.3l2.55,-1.6c0.03333,-0.7 -0.11667,-3.6 -0.45,-8.7c-0.2,-3.5 0.05,-6.36667 0.75,-8.6c0.8,-2 2.41667,-3.26667 4.85,-3.8c2.1,-0.46667 4.25,-0.31667 6.45,0.45c6.73333,2.3 13.71667,6.86667 20.95,13.7c7.3,7.4 13.35,15.38333 18.15,23.95z" fill="#b7d855"/></g></g></svg>