<svg version="1.1" xmlns="http://www.w3.org/2000/svg" xmlns:xlink="http://www.w3.org/1999/xlink" width="357.35" height="484.02579" viewBox="0,0,357.35,484.02579"><g transform="translate(-532.5,-139.67421)"><g data-paper-data="{&quot;isPaintingLayer&quot;:true}" fill-rule="nonzero" stroke="none" stroke-width="1" stroke-linecap="butt" stroke-linejoin="miter" stroke-miterlimit="10" stroke-dasharray="" stroke-dashoffset="0" style="mix-blend-mode: normal"><path d="M884.2,606.7c-0.66927,-3.13958 -3.83594,-6.57292 -9.5,-10.3c-5.69193,-3.77682 -11.85859,-6.17682 -18.5,-7.2c2.6306,-1.70547 4.74727,-3.05547 6.35,-4.05c6.97279,1.73125 12.88945,4.33125 17.75,7.8c5.46185,3.88906 8.57852,7.98906 9.35,12.3c-2.06992,0.55143 -3.88659,1.03477 -5.45,1.45M724.5,601.2c1.13177,0.21667 2.34844,0.46667 3.65,0.75c2.30013,0.50781 4.3668,0.99115 6.2,1.45c-4.71146,2.99219 -11.04479,5.80885 -19,8.45c-3.57109,1.19232 -7.27109,2.29232 -11.1,3.3c-2.4849,-1.90039 -4.71823,-3.60039 -6.7,-5.1c6.18385,-1.37005 12.03385,-2.98672 17.55,-4.85c2.03333,-0.66667 5.03333,-1.93333 9,-3.8c0.14492,-0.06862 0.27826,-0.13529 0.4,-0.2M861.45,550.95c-0.9181,0.61055 -1.8681,1.16055 -2.85,1.65c2.73073,1.29154 5.1474,3.02487 7.25,5.2c3.33333,3.46667 5,6.9 5,10.3c0,1.4026 -0.21667,2.76927 -0.65,4.1c-2.86263,0.43411 -5.19596,0.76745 -7,1c1.43333,-1.70755 2.15,-3.40755 2.15,-5.1c0,-1.36667 -2.4,-3.83333 -7.2,-7.4c-2.95156,-2.04063 -5.26823,-3.65729 -6.95,-4.85c2.72604,-1.27487 6.14271,-2.9082 10.25,-4.9M795.75,356.8c3.63333,-0.06667 6.08333,0.11667 7.35,0.55c0.63333,0.43333 2.7,1.7 6.2,3.8c3.4,2.1 5.5,3.5 6.3,4.2c1.5082,1.23932 2.99154,2.55599 4.45,3.95c1.84844,1.74596 3.6651,3.61263 5.45,5.6c3.3,3.66667 5.83333,6.98333 7.6,9.95c3.53333,5.83333 6.51667,12.11667 8.95,18.85c2.7,7.46667 4.05,13.8 4.05,19c0,2.86966 -0.25,5.76966 -0.75,8.7c-0.24258,0.18516 -0.49258,0.36849 -0.75,0.55c-2.40911,1.67539 -4.72578,3.07539 -6.95,4.2c0.64753,-2.08685 1.16419,-4.03685 1.55,-5.85c0.6,-2.74141 0.9,-5.14141 0.9,-7.2c0,-4.46667 -1,-9.96667 -3,-16.5c-2.5,-8.23333 -6,-15.58333 -10.5,-22.05c-5.20273,-7.44805 -11.25273,-13.08138 -18.15,-16.9c-4.97943,-2.7776 -10.41276,-4.61094 -16.3,-5.5c0.13997,-0.51367 0.27331,-1.04701 0.4,-1.6c0.30299,-1.29674 0.58633,-2.51341 0.85,-3.65c1.11771,-0.05 1.90104,-0.08333 2.35,-0.1M694.35,144.75c0.40794,-0.76367 0.79128,-1.48034 1.15,-2.15c22.2293,5.5944 40.09596,19.21107 53.6,40.85c6.86667,11 12.13333,23.41667 15.8,37.25c0.29674,1.13021 0.58008,2.24687 0.85,3.35c-0.96563,0.33698 -1.84896,0.65365 -2.65,0.95c-1.29622,0.49414 -2.46289,1.01081 -3.5,1.55c-2.94245,-12.36797 -7.10911,-23.68464 -12.5,-33.95c-13.0362,-24.78724 -31.11953,-39.82057 -54.25,-45.1c0.47096,-0.85521 0.97096,-1.77187 1.5,-2.75M850.95,588.55c-7.21771,2.93333 -15.33438,4.4 -24.35,4.4c-1.5,0 -2.58333,-0.25 -3.25,-0.75c1.9,-0.8 6.08333,-2.38333 12.55,-4.75c4.61953,-1.67747 8.41953,-3.14414 11.4,-4.4c0.16406,0.17305 0.33073,0.33971 0.5,0.5c2.28906,2.18763 4.20573,3.9543 5.75,5.3c-0.80586,-0.06146 -1.62253,-0.11146 -2.45,-0.15c-0.04375,-0.04375 -0.09375,-0.09375 -0.15,-0.15M642.25,593.85c-2.33333,-1.56667 -4,-2.65 -5,-3.25c-1.51914,-0.8862 -2.80247,-1.71953 -3.85,-2.5c6.91771,0.9 16.53438,1.35 28.85,1.35c1.1,0 2.15,0.18333 3.15,0.55c0.33333,0.1 1.45,0.58333 3.35,1.45c-1.46667,0.1 -2.48333,0.33333 -3.05,0.7c-0.86667,0.63333 -1.48333,1 -1.85,1.1c-2.52422,0.8612 -9.30755,1.32786 -20.35,1.4c-0.39701,-0.23477 -0.81367,-0.50143 -1.25,-0.8M736.1,590.2c0.62161,0.16354 1.23828,0.41354 1.85,0.75c0.43828,-0.01901 0.85495,-0.03568 1.25,-0.05c-2.72253,2.42174 -5.00586,4.33841 -6.85,5.75c-1.40039,0.03333 -2.81706,0.05 -4.25,0.05c-1.13333,0 -4.91667,-0.55 -11.35,-1.65c-6.43333,-1.13333 -9.9,-1.75 -10.4,-1.85c-0.7,-0.5 -1.21667,-0.86667 -1.55,-1.1c-0.53333,-0.43333 -0.85,-0.81667 -0.95,-1.15c1.33333,-0.2 5.3,-0.21667 11.9,-0.05c3.4,0.06667 7.18333,0.16667 11.35,0.3c2.91771,0 5.75104,-0.05 8.5,-0.15c0.14401,-0.29453 0.31068,-0.57786 0.5,-0.85M785.95,592.2c0.78034,0.43125 1.76367,0.99792 2.95,1.7c1.73333,0.86667 3.96667,1.63333 6.7,2.3l-0.3,0.4c-0.43333,0.23333 -1.16667,0.35 -2.2,0.35c-3.54219,0 -6.67552,-0.16667 -9.4,-0.5c-0.01549,0.03919 -0.04883,0.07253 -0.1,0.1c0.5224,-0.96458 1.0224,-1.89792 1.5,-2.8c0.29375,-0.54622 0.57708,-1.06289 0.85,-1.55M797.85,580.85c-2.93333,2.46667 -6.6,4.68333 -11,6.65c-1.45911,0.64857 -2.99245,1.26523 -4.6,1.85c-3.13854,-1.17422 -6.10521,-2.37422 -8.9,-3.6c-0.15703,-0.07005 -0.3237,-0.13672 -0.5,-0.2c2.62305,-0.80182 5.45638,-1.75182 8.5,-2.85c12.06667,-4.43333 18.81667,-6.3 20.25,-5.6c-0.3,0.26667 -1.55,1.51667 -3.75,3.75M718,537.05c3.03854,0.97708 6.08854,1.76042 9.15,2.35c2.24922,1.94661 5.06589,4.29661 8.45,7.05c-1.18151,-0.07461 -2.36484,-0.19128 -3.55,-0.35c1.56966,0.90599 3.23633,1.85599 5,2.85c10.1,5.66667 16.25,8.5 18.45,8.5c1.73333,0 6.38333,-4.51667 13.95,-13.55c1.12539,-1.34466 2.20872,-2.62799 3.25,-3.85c0.05443,-0.07617 0.10443,-0.15951 0.15,-0.25c1.20508,-1.4069 2.33841,-2.74023 3.4,-4c-0.75846,0.49648 -1.52513,0.97982 -2.3,1.45c2.24766,-5.30951 3.41432,-8.09284 3.5,-8.35c0.55013,-1.34844 1.03346,-2.6151 1.45,-3.8c0.09766,-0.07552 0.18099,-0.15885 0.25,-0.25c1.00859,0.16667 1.70859,0.25 2.1,0.25c1,0 2.5,-0.33333 4.5,-1c-0.33815,1.375 -0.20482,3.275 0.4,5.7c-4.51719,5.75924 -13.30052,15.55924 -26.35,29.4c-0.81979,0.90169 -1.66979,1.81836 -2.55,2.75c-1.85937,-0.51406 -3.65937,-1.06406 -5.4,-1.65c-7.42956,-2.36784 -13.82956,-5.18451 -19.2,-8.45c-3.19271,-1.91081 -6.90938,-4.62747 -11.15,-8.15c-1.56823,-0.53099 -3.10156,-1.13099 -4.6,-1.8c-1.04245,-0.46523 -2.00911,-0.9319 -2.9,-1.4c-0.06419,-1.78021 -0.26419,-3.54687 -0.6,-5.3c1.28346,0.5043 2.8168,1.12096 4.6,1.85M676.8,548.4c1.87604,0.17552 3.82604,0.27552 5.85,0.3c0.2819,0 0.56523,0 0.85,0c10.6,0 17.06667,-2.78333 19.4,-8.35c0.32513,-0.79792 0.55846,-1.64792 0.7,-2.55c0.62604,0.04427 1.27604,0.09427 1.95,0.15c1.87292,0.27214 3.50625,0.65547 4.9,1.15c-0.69362,3.12617 -2.46029,6.00951 -5.3,8.65c-4.77839,4.45768 -11.61172,6.77435 -20.5,6.95c-0.34362,0 -0.69362,0 -1.05,0c-1.29792,0 -2.56458,-0.03333 -3.8,-0.1c-0.32057,1.77174 -1.88724,3.55508 -4.7,5.35c-0.78294,0.52148 -1.66628,1.03815 -2.65,1.55c-5.46667,2.8 -11.7,4.2 -18.7,4.2c-6.64583,0 -12.5125,-0.9 -17.6,-2.7c0.68776,-1.05195 1.47109,-2.23529 2.35,-3.55c0.39922,-0.60365 0.78255,-1.18698 1.15,-1.75c4.11341,1.33333 8.76341,2 13.95,2c4.52682,0 8.41016,-0.46667 11.65,-1.4c2.28685,-0.64062 4.25352,-1.52396 5.9,-2.65c0.47917,-0.30951 0.92917,-0.64284 1.35,-1c0.22604,-0.1918 0.44271,-0.40846 0.65,-0.65c-0.18255,-0.01042 -0.38255,-0.02708 -0.6,-0.05c0.98711,-1.21615 2.18711,-2.76615 3.6,-4.65c0.22891,-0.30378 0.44557,-0.60378 0.65,-0.9M713.6,454.3c5.23333,2.36667 9.58333,5.45 13.05,9.25c3.96667,4.36667 5.95,8.88333 5.95,13.55c0,2.5 -0.23333,4.65 -0.7,6.45c-0.27161,1.07617 -0.62161,1.97617 -1.05,2.7c0.66667,1.89453 1,3.62786 1,5.2c0,0.49779 -0.03333,1.01445 -0.1,1.55c-0.28763,2.24961 -1.1543,4.93294 -2.6,8.05c-0.41849,0.03333 -0.88516,0.05 -1.4,0.05c-1.42604,0 -3.19271,-0.4 -5.3,-1.2c0.94792,-1.86797 1.71458,-3.41797 2.3,-4.65c1.06667,-2.14349 1.6,-3.24349 1.6,-3.3c0,-0.8082 -0.28333,-1.87487 -0.85,-3.2c-0.10091,-0.28633 -0.23424,-0.58633 -0.4,-0.9c-0.47943,-1.08203 -1.12943,-2.31536 -1.95,-3.7c-2.26667,-3.86667 -5.03333,-7.63333 -8.3,-11.3c-8.66667,-9.66667 -16.78333,-14.5 -24.35,-14.5c-4.23333,0 -9.21667,2.98333 -14.95,8.95c-0.72812,0.76862 -1.76146,1.90195 -3.1,3.4c-5.00521,5.91146 -8.53854,10.86146 -10.6,14.85c-1.23464,2.4056 -2.23464,5.02227 -3,7.85c-1.60573,-1.66315 -2.83906,-3.02982 -3.7,-4.1c1.11523,-3.04284 2.4819,-6.19284 4.1,-9.45c4.48997,-9.00469 9.50664,-15.00469 15.05,-18c1.00143,-1.13008 1.85143,-2.13008 2.55,-3c4.4,-5.33333 9.25,-7.63333 14.55,-6.9c1.07396,0.14714 2.59063,0.6138 4.55,1.4c1.00065,-1.025 2.53398,-1.64167 4.6,-1.85c3.66667,-0.4 8.01667,0.53333 13.05,2.8M705.6,457.85c5.9,3.03333 11.73333,8.2 17.5,15.5c1.86888,2.36003 3.43555,4.57669 4.7,6.65c-0.29336,-5.6332 -2.21003,-10.61654 -5.75,-14.95c-4.19661,-5.16693 -10.06328,-7.76693 -17.6,-7.8c0.38724,0.20573 0.77057,0.40573 1.15,0.6M806.55,537.25c-5.72539,-0.53073 -10.35872,-2.28073 -13.9,-5.25c-1.93893,-1.61576 -3.28893,-3.21576 -4.05,-4.8c0.5737,-3.34284 0.95703,-5.37617 1.15,-6.1h3h0.05c-0.01198,0.02552 -0.02865,0.04219 -0.05,0.05c-0.16172,0.04648 -0.32839,0.07982 -0.5,0.1c0.92135,1.61536 1.87135,2.9987 2.85,4.15c3.5668,4.20951 8.30013,6.39284 14.2,6.55c0.67188,0.72904 1.42188,1.52904 2.25,2.4c1.08203,1.13698 2.06536,2.12031 2.95,2.95c-0.09206,0.02786 -0.19206,0.04453 -0.3,0.05c1.17383,1.13581 2.80716,2.80247 4.9,5v0c1.18333,1.12005 2.4,2.12005 3.65,3c5.0444,3.56667 10.7944,5.35 17.25,5.35c2.32747,0 4.54414,-0.18333 6.65,-0.55c0.5457,0.74714 1.1457,1.54714 1.8,2.4c0.82305,1.0862 1.55638,2.06953 2.2,2.95c-3.2526,0.8 -6.76927,1.2 -10.55,1.2c-7.13333,0 -13.73333,-2.08333 -19.8,-6.25c-0.24336,-0.16745 -0.49336,-0.35078 -0.75,-0.55c-1.88151,-1.3543 -3.88151,-3.07096 -6,-5.15c-2.20651,-2.11237 -4.53984,-4.61237 -7,-7.5M815.35,456.1c1.90911,1.6026 3.45911,2.88594 4.65,3.85v0c-0.13555,0.47318 -0.28555,0.95651 -0.45,1.45c-0.37214,1.15625 -0.75547,2.08958 -1.15,2.8c-1.37096,-0.73307 -2.8043,-1.43307 -4.3,-2.1c-6.41901,-2.82357 -13.83568,-4.82357 -22.25,-6c-5.2,4.7 -10.46667,11 -15.8,18.9c-1.3543,2.00208 -2.57096,3.90208 -3.65,5.7c-2.64818,4.53086 -4.34818,8.38086 -5.1,11.55c-0.18151,0.78646 -0.31484,1.51979 -0.4,2.2c-0.28906,-0.0569 -0.58906,-0.12357 -0.9,-0.2c-4.36667,-1.1 -7.03333,-1.65 -8,-1.65c-0.73542,0 -2.20208,0.75 -4.4,2.25c-0.66146,-1.3776 -1.26146,-2.94427 -1.8,-4.7c-0.06458,-0.22578 -0.13125,-0.45911 -0.2,-0.7c-0.70065,-2.52852 -1.23398,-5.29518 -1.6,-8.3c-0.03516,-0.27969 -0.06849,-0.56302 -0.1,-0.85c-0.2,-2.83333 -0.3,-4.28333 -0.3,-4.35c0,-9.26667 2.78333,-17.13333 8.35,-23.6c5.03333,-5.86667 11.51667,-9.75 19.45,-11.65c7.73333,-1.86667 15.05,-1.41667 21.95,1.35c6.75599,2.70846 11.78932,7.1918 15.1,13.45c0.32135,0.2026 0.62135,0.4026 0.9,0.6M805.65,451.6c-1.92018,-1.66419 -4.10352,-3.01419 -6.55,-4.05c-0.43516,-0.17656 -0.88516,-0.3599 -1.35,-0.55l-4.5,-1.2c-1.60677,-0.31497 -3.30677,-0.53164 -5.1,-0.65c-0.86784,-0.03333 -1.75117,-0.05 -2.65,-0.05c-2.66576,0 -5.16576,0.23333 -7.5,0.7c-0.84023,0.18464 -1.6569,0.38464 -2.45,0.6c-3.4612,1.02461 -6.52786,2.60794 -9.2,4.75c-0.46901,0.39479 -0.93568,0.79479 -1.4,1.2c-0.29687,0.30664 -0.59687,0.60664 -0.9,0.9l-2.55,3.05c-0.10195,0.12852 -0.20195,0.26185 -0.3,0.4c-0.54453,0.76549 -1.0612,1.56549 -1.55,2.4c-0.8,1.36237 -1.51667,2.72904 -2.15,4.1c-0.64427,1.48268 -1.19427,2.96602 -1.65,4.45c-0.83333,2.89609 -1.25,5.79609 -1.25,8.7c0,1.85104 0.16667,3.63437 0.5,5.35c0.39453,2.05482 1.02786,4.00482 1.9,5.85c0.06432,0.15937 0.13099,0.30937 0.2,0.45c0.20013,0.40885 0.40013,0.80885 0.6,1.2c0.01706,-0.04219 0.01706,-0.09219 0,-0.15c0.03333,-1.49049 0.05,-2.27383 0.05,-2.35c0,-1.67995 0.06667,-3.29661 0.2,-4.85c0.22617,-2.56693 0.62617,-4.96693 1.2,-7.2c0.21055,-0.72878 0.42721,-1.44544 0.65,-2.15c0.94323,-2.77227 2.19323,-5.27227 3.75,-7.5c0.81523,-1.17852 1.69857,-2.26185 2.65,-3.25c0.76224,-0.75417 1.56224,-1.45417 2.4,-2.1c0.64922,-0.49128 1.31589,-0.95794 2,-1.4c3.59023,-2.13516 7.87357,-3.38516 12.85,-3.75c0.19375,-0.00586 0.37708,-0.02253 0.55,-0.05c0.55039,-0.43477 1.10039,-0.8681 1.65,-1.3c0.76823,-0.61706 1.55156,-1.21706 2.35,-1.8c0.05417,-0.04023 0.10417,-0.09023 0.15,-0.15c0.05221,-0.00807 0.08555,-0.02474 0.1,-0.05c0.09883,-0.05482 0.18216,-0.10482 0.25,-0.15l4.1,-1.25c0.56602,-0.06797 1.14935,-0.1013 1.75,-0.1v0c1.23333,0.02161 2.56667,0.15495 4,0.4v-0.05c0.35612,0.07773 0.72279,0.1444 1.1,0.2l1.1,0.25c0.89505,0.21914 1.82839,0.46914 2.8,0.75c0.91888,0.26016 1.78555,0.51016 2.6,0.75c-0.12799,-0.10964 -0.26133,-0.2263 -0.4,-0.35M777.25,461.1c-0.34727,0.2207 -0.69727,0.43737 -1.05,0.65c-7.83945,4.73672 -12.35612,11.42005 -13.55,20.05c-0.2,1.54128 -0.3,3.14128 -0.3,4.8c0,0.23451 0,0.48451 0,0.75c0.47122,-1.83906 1.08789,-3.7224 1.85,-5.65c1.23971,-3.12539 2.88971,-6.35872 4.95,-9.7c2.33932,-3.7918 4.93932,-7.2918 7.8,-10.5c0.10638,-0.12773 0.20638,-0.26107 0.3,-0.4M742.95,266.4c1.14284,-1.4362 2.12617,-2.61953 2.95,-3.55c2.94362,2.7112 5.27695,5.67786 7,8.9c-0.40964,0.91927 -0.90964,1.96927 -1.5,3.15c-0.64583,1.29167 -1.24583,2.425 -1.8,3.4c-1.52148,-3.97188 -4.05482,-7.55521 -7.6,-10.75l0.95,-1.15M579.3,269.6c0.10039,0.10169 0.20039,0.20169 0.3,0.3c-5.04284,2.1957 -9.24284,6.72904 -12.6,13.6c-0.26745,-0.32422 -0.55078,-0.67422 -0.85,-1.05c-1.89766,-2.37201 -3.26432,-4.42201 -4.1,-6.15c0.13516,0.22917 0.26849,0.44583 0.4,0.65c0.83763,-0.15495 1.57096,-0.18828 2.2,-0.1c0,0.04102 0.01667,0.09102 0.05,0.15c1.30482,-1.74349 2.75482,-3.37682 4.35,-4.9c1.07031,-1.02044 2.17031,-1.97044 3.3,-2.85c1.17708,-0.89831 2.37708,-1.73164 3.6,-2.5c-1.44674,-0.77995 -2.78008,-2.02995 -4,-3.75c1.48646,0.95807 3.58646,2.80807 6.3,5.55c0.3668,0.37083 0.7168,0.72083 1.05,1.05M639.65,291.9c1.09805,-0.70924 2.48138,-1.30924 4.15,-1.8c0.49818,-0.13997 0.96484,-0.25664 1.4,-0.35c0.57747,-0.39206 1.17747,-0.80872 1.8,-1.25c3.53333,-2.53333 6.11667,-4.75 7.75,-6.65c0.37786,-0.4224 0.77786,-1.0224 1.2,-1.8c-0.96667,-1.81628 -1.45,-3.13294 -1.45,-3.95c0,-1.93333 0.66667,-3.35 2,-4.25c0.57878,1.30221 1.12878,2.48555 1.65,3.55c0.24427,-0.59349 0.49427,-1.22682 0.75,-1.9c1.46667,-3.83333 2.91667,-6.21667 4.35,-7.15c0.5,0.16667 1.1,0.25 1.8,0.25c0.46667,0.13333 0.7,0.71667 0.7,1.75c0,1.03333 -0.5,2.91667 -1.5,5.65c-0.87383,2.36172 -1.89049,4.59505 -3.05,6.7c1.11003,1.44401 2.39336,2.66068 3.85,3.65c0.12682,-0.49193 0.24349,-0.99193 0.35,-1.5c2.18893,-8.72721 6.48893,-15.94388 12.9,-21.65c8.5,-7.56667 19.16667,-11.36667 32,-11.4c11.14102,-0.03008 20.89102,2.66992 29.25,8.1c-0.18177,0.71706 -0.39844,1.50039 -0.65,2.35c-0.44544,1.49622 -0.86211,2.79622 -1.25,3.9c-7.84036,-5.29583 -17.05703,-7.87917 -27.65,-7.75c-11.43333,0.1 -20.91667,3.41667 -28.45,9.95c-6.14766,5.34062 -10.11432,12.19063 -11.9,20.55c-0.38971,1.92383 -0.67305,3.90716 -0.85,5.95l0.1,0.1c0.23333,0.33333 0.35,1.05 0.35,2.15c0,0.29987 -0.08333,0.61654 -0.25,0.95c-0.10599,0.19349 -0.23932,0.39349 -0.4,0.6c0,0.39544 0,0.79544 0,1.2c0,2.4375 0.2,4.77083 0.6,7c0.27005,1.58099 0.63672,3.09766 1.1,4.55c0.86211,2.80026 2.06211,5.43359 3.6,7.9c0.56602,0.91068 1.16602,1.76068 1.8,2.55c0.55742,0.73242 1.14076,1.41576 1.75,2.05c0.70156,0.72539 1.4349,1.39206 2.2,2c0.37461,-0.04648 0.60794,-0.06315 0.7,-0.05l0.4,0.9c4.70508,3.4 10.62174,5.1 17.75,5.1c6.83724,0 13.03724,-0.66667 18.6,-2v-0.25c0.1,0 0.46667,-0.11667 1.1,-0.35c0.63333,-0.26667 1.43333,-0.4 2.4,-0.4c0.04414,0 0.09414,0 0.15,0c0.94102,-0.28841 1.85768,-0.60508 2.75,-0.95c0.08685,0.05703 0.17018,0.10703 0.25,0.15c2.81302,1.5237 5.16302,2.65703 7.05,3.4c-0.46497,0.23867 -0.93164,0.45534 -1.4,0.65c5.86458,2 12.06458,3 18.6,3c1.9793,0 3.84596,-0.15 5.6,-0.45c1.34909,3.26315 2.18242,6.22982 2.5,8.9c-0.69753,-1.35911 -1.23086,-2.49245 -1.6,-3.4c-2.01784,0.3 -4.15117,0.45 -6.4,0.45c-6.97878,0 -13.26211,-0.88333 -18.85,-2.65c-1.3474,-0.42591 -2.66406,-0.90924 -3.95,-1.45c-1.19388,-0.50065 -2.34388,-1.05065 -3.45,-1.65c-0.89818,0.28255 -1.83151,0.53255 -2.8,0.75c3.35508,0.63047 6.53841,1.49714 9.55,2.6c1.5237,0.57318 3.00703,1.20651 4.45,1.9c5.55352,2.69674 9.17018,5.69674 10.85,9c5.17917,-1.0862 9.74583,-1.65286 13.7,-1.7c0.16914,0.29049 0.31914,0.57383 0.45,0.85c0.69922,1.44427 1.26589,2.91094 1.7,4.4c-0.56615,-0.00898 -1.14948,-0.00898 -1.75,0c-0.14375,0 -2.07708,0.11667 -5.8,0.35c-1.45872,0.10195 -3.19206,0.21862 -5.2,0.35c-1.33203,0.08464 -2.5487,0.11797 -3.65,0.1c-0.45638,0.26667 -1.03971,0.4 -1.75,0.4c-0.31146,0 -0.76146,-0.18333 -1.35,-0.55c-0.85599,-0.10013 -1.57266,-0.25013 -2.15,-0.45c-0.18802,-0.56406 -0.32135,-1.0474 -0.4,-1.45c-2.55768,-2.03529 -4.70768,-3.58529 -6.45,-4.65c-7.73333,-4.76667 -17.28333,-7.15 -28.65,-7.15c-7.7,0 -15.66667,4 -23.9,12c-4.1,4 -7.63333,8.08333 -10.6,12.25c-0.56667,0.3 -2.56667,0.63333 -6,1c-4.03333,0.43333 -7.15,0.93333 -9.35,1.5c-0.36641,0.09271 -0.71641,0.17604 -1.05,0.25c-2.10299,0.61159 -3.75299,1.27826 -4.95,2c-0.05703,0.04974 -0.1237,0.09974 -0.2,0.15c-1.36667,1.06667 -2.63333,1.93333 -3.8,2.6c-1.60117,0.90247 -3.71784,2.70247 -6.35,5.4c-0.36576,0.40286 -0.74909,0.81953 -1.15,1.25c-0.74154,0.80091 -1.42487,1.51758 -2.05,2.15c0.16133,0.05443 0.31133,0.10443 0.45,0.15c-0.98333,1.15898 -2.06667,2.57565 -3.25,4.25c-0.21849,0.30703 -0.43516,0.60703 -0.65,0.9c-4.5082,-1.28854 -9.14154,-1.58854 -13.9,-0.9c-0.21589,0.03086 -0.44922,0.06419 -0.7,0.1c-2.53737,0.42891 -6.18737,1.34557 -10.95,2.75c-4.36667,1.3 -7.6,1.95 -9.7,1.95c-0.21888,0 -0.45221,0 -0.7,0c-2.32826,0.2681 -5.11159,1.78477 -8.35,4.55c-0.76081,0.68828 -1.56081,1.43828 -2.4,2.25c-0.95326,-1.48555 -1.80326,-2.81888 -2.55,-4c2.12305,-1.7444 4.33971,-3.32773 6.65,-4.75c1.66836,-0.99974 3.38503,-1.93307 5.15,-2.8c2.5569,-1.19557 5.2069,-2.22891 7.95,-3.1c0.23372,-0.05208 0.45039,-0.11875 0.65,-0.2c3.78294,-1.10547 7.74961,-1.8888 11.9,-2.35c5.0901,-0.54896 9.87344,-0.53229 14.35,0.05c0.15299,-0.63529 0.36966,-1.28529 0.65,-1.95c0.9151,-1.93815 2.54844,-3.93815 4.9,-6c1.19909,-1.02005 2.56576,-2.05339 4.1,-3.1c0.47044,-0.31576 0.95378,-0.63242 1.45,-0.95c5.50013,-3.5293 11.45013,-6.0793 17.85,-7.65c2.90638,-0.69792 5.90638,-1.19792 9,-1.5c2.38581,-5.45326 5.78581,-9.98659 10.2,-13.6c2.51445,-2.02292 5.34779,-3.75625 8.5,-5.2c2.19023,-1.01237 4.47357,-1.86237 6.85,-2.55c-1.72852,-0.54284 -3.51185,-1.27617 -5.35,-2.2c-2.16732,-1.07956 -4.41732,-2.42956 -6.75,-4.05c-2.49193,1.57552 -5.90859,2.90885 -10.25,4c-6.4,1.56667 -13.75,2.35 -22.05,2.35c-0.04479,0 -0.22812,-0.03333 -0.55,-0.1c-1.50169,-0.28411 -6.08503,-1.26745 -13.75,-2.95c-7.87461,10.42682 -20.22461,15.84349 -37.05,16.25c-1.99922,1.55026 -5.63255,3.31693 -10.9,5.3c-0.24961,0.09336 -0.49961,0.17669 -0.75,0.25c-2.55339,0.95586 -4.97005,1.75586 -7.25,2.4c-0.19557,0.79531 -0.54557,2.11198 -1.05,3.95c-0.47904,-1.47773 -0.8957,-3.57773 -1.25,-6.3c-0.11823,-0.91029 -0.2349,-1.89362 -0.35,-2.95c3.04076,-0.76589 6.22409,-1.86589 9.55,-3.3c0.21328,-0.1056 0.41328,-0.2056 0.6,-0.3c-0.66979,-0.16198 -1.33646,-0.34531 -2,-0.55c3.92904,-1.88776 6.9457,-3.38776 9.05,-4.5c0.69414,0.03333 1.39414,0.05 2.1,0.05c0.125,0 0.24167,0 0.35,0c16.50339,-0.07891 28.37005,-5.34557 35.6,-15.8c0.32448,-0.47109 0.64115,-0.95443 0.95,-1.45c1.94635,-3.14049 3.41302,-6.42383 4.4,-9.85c0.29219,-1.01484 0.54219,-2.04818 0.75,-3.1c0.53333,-2.59375 0.8,-5.27708 0.8,-8.05c0,-1.58581 -0.08333,-3.13581 -0.25,-4.65c-0.17357,-1.80391 -0.47357,-3.55391 -0.9,-5.25c-0.99544,-4.17214 -2.67878,-7.9888 -5.05,-11.45c-6.4,-9.33333 -17.08333,-14.38333 -32.05,-15.15c-3.46667,1.7 -5.65,2.43333 -6.55,2.2c-0.22188,-0.05547 -0.53854,-0.1888 -0.95,-0.4c-0.07708,-0.04961 -0.16042,-0.09961 -0.25,-0.15c-0.6,-0.26667 -1.35,-0.4 -2.25,-0.4c-0.71719,0 -1.43385,0.03333 -2.15,0.1c0.26185,-1.86354 0.44518,-3.79687 0.55,-5.8c3.95729,-1.0776 8.20729,-1.5776 12.75,-1.5c11.4,0.2 21.16667,3.93333 29.3,11.2c5.77109,5.18516 9.65443,11.36849 11.65,18.55c0.11263,0.33698 0.21263,0.67031 0.3,1M639.9,314.1l4.75,1c3.9,0.83333 6.21667,1.25 6.95,1.25c5.06667,0 9.15,-1.03333 12.25,-3.1c0.56758,-0.38229 1.11758,-0.79896 1.65,-1.25c-0.83633,-2.14323 -1.35299,-3.74323 -1.55,-4.8c-0.04154,-0.22826 -0.07487,-0.69492 -0.1,-1.4c-0.05208,-1.18451 -0.08542,-3.03451 -0.1,-5.55c-0.07643,0.05833 -0.15977,0.10833 -0.25,0.15c-3.36654,1.8 -6.94987,2.7 -10.75,2.7c-6.13919,0 -10.07253,-0.51667 -11.8,-1.55c0.03333,0.56654 0.05,1.1332 0.05,1.7c0,3.1237 -0.25,6.1237 -0.75,9c-0.06667,0.4457 -0.15,0.87904 -0.25,1.3c-0.02813,0.18542 -0.06146,0.36875 -0.1,0.55M634.5,327.75c0.24714,0.03737 0.49714,0.0707 0.75,0.1c0.46849,0.08607 0.91849,0.1694 1.35,0.25c3.91237,0.66667 7.07904,1 9.5,1c3.27161,0 6.88828,-0.26667 10.85,-0.8c3.44336,-0.46784 7.14336,-1.13451 11.1,-2c2.36484,-0.51992 4.38151,-0.95326 6.05,-1.3c-0.65313,-0.53255 -1.26979,-1.04922 -1.85,-1.55c-0.59792,-0.52474 -1.14792,-1.04141 -1.65,-1.55c-1.13906,-1.16432 -1.88906,-2.18099 -2.25,-3.05c-0.34336,-0.77591 -0.67669,-1.52591 -1,-2.25c-0.52031,0.42135 -1.12031,0.83802 -1.8,1.25c-3.9,2.33333 -8.5,3.5 -13.8,3.5c-6.4,0 -10.76667,-0.85 -13.1,-2.55h-0.05c-1.00937,3.14336 -2.37604,6.12669 -4.1,8.95M640.75,298.25c0.84219,-0.26315 1.50885,-0.29648 2,-0.1c1.66667,0.63333 3.16667,0.95 4.5,0.95c6.73333,0 11.83333,-1.1 15.3,-3.3c0.35339,-0.22487 0.77005,-0.52487 1.25,-0.9c0.09427,-2.62031 0.3276,-5.13698 0.7,-7.55c-0.04401,0 -0.09401,0 -0.15,0c-1.94714,0 -3.74714,-0.93333 -5.4,-2.8c-4.91159,7.53333 -10.47826,11.3 -16.7,11.3c-0.75026,0 -1.36693,-0.06667 -1.85,-0.2c0.14661,0.86641 0.26328,1.73307 0.35,2.6z" fill="#210c2a"/><path d="M764.55,382.4c2.42669,-2.04323 4.77669,-4.94323 7.05,-8.7c0.23607,-0.39128 0.45273,-0.77461 0.65,-1.15c0,0.34792 0,0.69792 0,1.05c0,2.53333 1.66667,5.81667 5,9.85c1.8,2.2 4.3,4.91667 7.5,8.15h-0.5c-0.03919,-0.01966 -0.08919,-0.03633 -0.15,-0.05c-1.38724,-2.69661 -5.38724,-5.07995 -12,-7.15c-1.93424,-0.59896 -4.45091,-1.26562 -7.55,-2M839.65,468.25c0.23854,1.19141 0.38854,2.84141 0.45,4.95c0.01029,0.43997 0.04362,0.85664 0.1,1.25c-1.12682,-0.31315 -2.31016,-0.57982 -3.55,-0.8c-0.07578,-0.01081 -0.15911,-0.02747 -0.25,-0.05c-1.57461,-1.76745 -3.42461,-3.55078 -5.55,-5.35c1.25833,0.09375 2.725,0.21042 4.4,0.35c1.49974,0 2.96641,-0.11667 4.4,-0.35M817.15,424.35c-8.9,-12.26667 -21.86667,-16.18333 -38.9,-11.75c-4.2,1.03333 -9.31667,3.91667 -15.35,8.65c-4.00898,3.14779 -7.79232,6.54779 -11.35,10.2c-0.4375,0.475 -0.87083,0.94167 -1.3,1.4c-3.06667,3.73333 -6.05,7.48333 -8.95,11.25c-1.32461,1.72747 -2.50794,3.27747 -3.55,4.65c-1.45273,2.05195 -2.60273,3.73529 -3.45,5.05c-0.05,-0.05833 -0.11667,-0.125 -0.2,-0.2c-1.00052,-1.1194 -2.18385,-2.2694 -3.55,-3.45c-3.58034,-3.05456 -7.68034,-5.77122 -12.3,-8.15c-1.49896,-0.78659 -3.06562,-1.53659 -4.7,-2.25c-7.26667,-3.2 -14.36667,-5.01667 -21.3,-5.45c-7.9,-0.53333 -14.81667,0.81667 -20.75,4.05c-4.77747,2.6026 -9.02747,5.5526 -12.75,8.85c-3.24987,2.87057 -6.09987,6.00391 -8.55,9.4c-4.8,6.66667 -7.2,13 -7.2,19c0,4.16667 0.66667,7.91667 2,11.25c1.67383,4.12865 4.20716,6.87865 7.6,8.25c-0.06237,0.00833 -0.12904,0.00833 -0.2,0c-5.71211,0.82721 -9.49544,3.47721 -11.35,7.95c-0.15182,0.3526 -0.30182,0.7526 -0.45,1.2c-5.12799,0.14453 -9.56133,1.07786 -13.3,2.8c-0.38099,-0.35182 -0.73099,-0.66849 -1.05,-0.95c-11.26667,-0.33333 -18.98333,-3.06667 -23.15,-8.2c-1.4,-1.76667 -2.48333,-3.91667 -3.25,-6.45c-0.6,-2.63333 -1.05,-4.41667 -1.35,-5.35c-0.83333,-2.6 -1.01667,-6.75 -0.55,-12.45c0.18216,-2.10755 0.24883,-3.97422 0.2,-5.6c3.07865,0.53333 6.27865,0.8 9.6,0.8c4.02604,0 7.82604,-0.25 11.4,-0.75c15.9974,-2.10443 27.76406,-8.93776 35.3,-20.5c0.9138,-1.39792 1.74714,-2.83125 2.5,-4.3c0.54167,-1.01654 1.04167,-2.04987 1.5,-3.1c0.02969,0.58177 0.06302,1.19844 0.1,1.85c2.79128,-2.01536 6.57461,-4.1487 11.35,-6.4c9.16667,-4.36667 16.45,-6.55 21.85,-6.55c6.13333,0 13.91667,1.71667 23.35,5.15c9.6,3.5 15.31667,6.78333 17.15,9.85c11.23333,-14 21.05,-23.78333 29.45,-29.35c9.16667,-6.1 19.43333,-9.15 30.8,-9.15c11.13333,0 19.88333,4.5 26.25,13.5c1.94141,2.72956 3.54141,5.67956 4.8,8.85c1.45456,3.56289 2.47122,7.39622 3.05,11.5c0.66133,0.91315 1.19466,1.76315 1.6,2.55c1.7,3.33333 2.55,8.11667 2.55,14.35c0,0.26432 0,0.51432 0,0.75c-0.00312,1.07122 -0.01979,2.00456 -0.05,2.8c-0.00156,1.84414 -0.0349,2.99414 -0.1,3.45c-0.12865,0.77188 -0.49531,2.03854 -1.1,3.8c-0.77083,-0.59036 -1.57083,-1.19036 -2.4,-1.8c-1.27591,-0.94297 -2.35924,-1.74297 -3.25,-2.4c-0.04974,-0.04583 -0.09974,-0.09583 -0.15,-0.15c0.33034,-0.65964 0.69701,-1.45964 1.1,-2.4c0.34036,-0.76797 0.6237,-1.46797 0.85,-2.1c0.73333,-1.76029 1.1,-2.96029 1.1,-3.6c0,-4.4 -0.7,-9.11667 -2.1,-14.15c-0.52813,-1.94701 -1.14479,-3.81367 -1.85,-5.6c-0.95378,-2.53568 -2.07044,-4.90234 -3.35,-7.1c-0.72187,-1.21862 -1.48854,-2.38529 -2.3,-3.5M726.65,506.1c0.17995,-0.32539 0.34661,-0.65872 0.5,-1c0.36237,0.2681 0.72904,0.5181 1.1,0.75l9,0.25c0.96107,0 1.91107,-0.05 2.85,-0.15c4.70547,-0.3944 9.15547,-1.82773 13.35,-4.3c1.26628,-0.75469 2.36628,-1.48802 3.3,-2.2c1.02956,1.06068 2.14622,1.84401 3.35,2.35c-1.98385,1.49844 -3.55052,2.58177 -4.7,3.25c-0.12148,0.0707 -0.25482,0.13737 -0.4,0.2c-7.4362,4.23333 -17.31953,6.35 -29.65,6.35c-0.63294,0 -1.31628,-0.11667 -2.05,-0.35c1.11237,-1.41081 2.1957,-3.07747 3.25,-5c0.03229,-0.0375 0.06562,-0.0875 0.1,-0.15M712.1,517.85c0.8388,0 1.65547,-0.1 2.45,-0.3c2.52539,2.70612 6.80872,5.47279 12.85,8.3c7.9,3.66667 15.35,5.5 22.35,5.5c5.76667,0 11.26667,-2.75 16.5,-8.25c2.2901,-2.40885 3.9901,-4.60885 5.1,-6.6c2.56862,2.1957 5.53529,3.71237 8.9,4.55c0.7099,0.18203 1.42656,0.33203 2.15,0.45c-0.83242,0.83411 -1.91576,1.95078 -3.25,3.35c-0.06901,0.09115 -0.15234,0.17448 -0.25,0.25c-0.93333,1.02435 -1.98333,2.17435 -3.15,3.45c-1.02708,0.98659 -2.11042,1.90326 -3.25,2.75c-8.05299,6.26667 -18.51966,9.4 -31.4,9.4c-3.6056,0 -7.18893,-0.26667 -10.75,-0.8c-1.05586,-0.13333 -2.12253,-0.3 -3.2,-0.5c-3.06146,-0.58958 -6.11146,-1.37292 -9.15,-2.35c-1.7832,-0.72904 -3.31654,-1.3457 -4.6,-1.85c-1.12552,-0.46654 -2.05885,-0.84987 -2.8,-1.15c-0.13854,-0.70312 -0.37187,-1.48646 -0.7,-2.35c-0.16484,-0.40924 -0.34818,-0.79258 -0.55,-1.15c2.33333,-2.4487 3.5,-5.3487 3.5,-8.7c0,-0.26667 -0.48333,-1.53333 -1.45,-3.8c-0.03086,-0.07227 -0.06419,-0.1556 -0.1,-0.25c0.26471,0.03333 0.53138,0.05 0.8,0.05z" fill="#c7463f"/><path d="M837.1,406.6c2,6.53333 3,12.03333 3,16.5c0,2.05859 -0.3,4.45859 -0.9,7.2c-0.38581,1.81315 -0.90247,3.76315 -1.55,5.85c-0.57513,1.9207 -1.25846,3.95404 -2.05,6.1c-1.5,4.1 -3,7.96667 -4.5,11.6c0,0.85221 0.28333,1.85221 0.85,3c0.30586,0.6207 0.67253,1.2707 1.1,1.95c0.43997,0.64427 0.93997,1.3276 1.5,2.05c1.2,1.53333 2.71667,3.45 4.55,5.75c0.21862,0.37305 0.40195,0.92305 0.55,1.65c-1.43359,0.23333 -2.90026,0.35 -4.4,0.35c-1.675,-0.13958 -3.14167,-0.25625 -4.4,-0.35c-0.44141,-0.35117 -0.89141,-0.71784 -1.35,-1.1c0.60469,-1.76146 0.97135,-3.02812 1.1,-3.8c0.0651,-0.45586 0.09844,-1.60586 0.1,-3.45c0.03021,-0.79544 0.04688,-1.72878 0.05,-2.8c0,-0.23568 0,-0.48568 0,-0.75c0,-6.23333 -0.85,-11.01667 -2.55,-14.35c-0.40534,-0.78685 -0.93867,-1.63685 -1.6,-2.55c-0.57878,-4.10378 -1.59544,-7.93711 -3.05,-11.5c-1.25859,-3.17044 -2.85859,-6.12044 -4.8,-8.85c-6.36667,-9 -15.11667,-13.5 -26.25,-13.5c-11.36667,0 -21.63333,3.05 -30.8,9.15c-8.4,5.56667 -18.21667,15.35 -29.45,29.35c-1.83333,-3.06667 -7.55,-6.35 -17.15,-9.85c-9.43333,-3.43333 -17.21667,-5.15 -23.35,-5.15c-5.4,0 -12.68333,2.18333 -21.85,6.55c-4.77539,2.2513 -8.55872,4.38464 -11.35,6.4c-0.03698,-0.65156 -0.07031,-1.26823 -0.1,-1.85c2.93333,-6.72422 4.4,-14.14089 4.4,-22.25c0,-3.7431 -0.33333,-7.25977 -1,-10.55c2.62057,-1.53893 5.18724,-3.38893 7.7,-5.55c1.95039,-1.66432 3.55039,-3.03099 4.8,-4.1c1.96901,-1.66341 3.08568,-2.59674 3.35,-2.8c5.85872,-4.30378 14.44206,-7.47044 25.75,-9.5c2.27826,-0.41602 4.66159,-0.78268 7.15,-1.1h31.75c3.73333,1.06667 8.56667,2 14.5,2.8c6.5,0.9 10.25,1.46667 11.25,1.7c2.13333,0.46667 5.1,1.43333 8.9,2.9c1.9,0.76667 3.6,1.46667 5.1,2.1c1.06667,0 1.73333,-0.05 2,-0.15c0.16667,-0.06667 0.33333,-0.18333 0.5,-0.35v-0.5c-0.09167,-0.44453 -0.25833,-0.87786 -0.5,-1.3c0.06081,0.01367 0.11081,0.03034 0.15,0.05h0.5c-3.2,-3.23333 -5.7,-5.95 -7.5,-8.15c-3.33333,-4.03333 -5,-7.31667 -5,-9.85c0,-0.35208 0,-0.70208 0,-1.05c1.12708,-1.91745 2.04375,-3.70078 2.75,-5.35c0.82422,-1.92357 1.37422,-3.67357 1.65,-5.25c5.48047,-0.56823 10.64714,-0.50156 15.5,0.2c5.88724,0.88906 11.32057,2.7224 16.3,5.5c6.89727,3.81862 12.94727,9.45195 18.15,16.9c4.5,6.46667 8,13.81667 10.5,22.05z" fill="#ffa420"/><path d="M550.75,259.6c0.82747,0.80729 1.69414,1.55729 2.6,2.25c0.18919,2.81198 0.52253,5.59531 1,8.35c0.64779,3.71263 1.49779,6.7293 2.55,9.05c-0.22904,0.13086 -0.46237,0.26419 -0.7,0.4c-3.32331,1.9125 -5.08997,3.2625 -5.3,4.05c-1.11563,-1.47188 -2.09896,-2.83854 -2.95,-4.1c-5.46667,-8.3 -8.2,-16.91667 -8.2,-25.85c0,-4.67214 0.45,-9.3888 1.35,-14.15c1.05143,8.08607 4.2681,14.75273 9.65,20M596.75,226.1c5.7,-4.3 11.83333,-7.73333 18.4,-10.3c6.3,-2.46667 11.83333,-3.7 16.6,-3.7c1.56667,0 5.95,1.11667 13.15,3.35c7.46667,2.3 11.91667,4.01667 13.35,5.15c2.5,-5.4 8.03333,-10.26667 16.6,-14.6c8.33333,-4.26667 16.21667,-6.4 23.65,-6.4c7.16667,0 14.58333,2.15 22.25,6.45c7.23333,4.06667 13.7,9.45 19.4,16.15c5.76667,6.76667 9.76667,13.75 12,20.95c0.33177,1.05872 0.6151,2.09206 0.85,3.1c-0.42878,1.04674 -0.84544,1.91341 -1.25,2.6c-1.15443,1.99961 -2.60443,3.99961 -4.35,6c0.23333,-1.42279 0.35,-2.92279 0.35,-4.5c0,-6.76667 -3.03333,-13.78333 -9.1,-21.05c-5,-6 -12.38333,-12.48333 -22.15,-19.45c-15.76667,-7.03333 -29.76667,-6.51667 -42,1.55c-4.53333,3 -8.25,6.7 -11.15,11.1c-2.30469,3.50195 -3.57135,6.53529 -3.8,9.1c-7.41615,-8.29583 -15.59948,-13.0625 -24.55,-14.3c-8.73333,-1.16667 -17.66667,1.01667 -26.8,6.55c-7.73333,4.73333 -14.41667,11.01667 -20.05,18.85c-5.26667,7.3 -7.9,13.4 -7.9,18.3c0,1.56667 0.03333,2.56667 0.1,3c0.03138,0.16471 0.06471,0.31471 0.1,0.45c-0.30703,0.15547 -0.6237,0.30547 -0.95,0.45c-1.13529,-1.65312 -2.35195,-3.73646 -3.65,-6.25c0.98034,-11.92357 7.94701,-22.77357 20.9,-32.55M608.9,351.3c4.39232,-0.70807 10.24232,-1.94141 17.55,-3.7c0.11771,-0.02826 0.23438,-0.06159 0.35,-0.1c12.30938,-2.93333 20.70938,-4.4 25.2,-4.4c2.06667,1.1 3.31667,2.1 3.75,3c-3.86667,2.73333 -8.88333,4.63333 -15.05,5.7c-4.86667,0.86667 -11.18333,1.3 -18.95,1.3c-0.59206,0 -1.15872,0 -1.7,0c-3.36888,-0.0181 -5.48555,-0.08477 -6.35,-0.2c-1.68789,-0.25 -3.28789,-0.78333 -4.8,-1.6M725.3,334.5c1.28594,0.54076 2.6026,1.02409 3.95,1.45c-0.21641,0.09128 -0.43307,0.17461 -0.65,0.25c-3.01159,-1.10286 -6.19492,-1.96953 -9.55,-2.6c0.96849,-0.21745 1.90182,-0.46745 2.8,-0.75c1.10612,0.59935 2.25612,1.14935 3.45,1.65M672.25,340.6c-0.16667,-1.7 2.2,-3.66667 7.1,-5.9c2.30664,-1.06732 4.28997,-1.86732 5.95,-2.4c1.83815,0.92383 3.62148,1.65716 5.35,2.2c-2.37643,0.68763 -4.65977,1.53763 -6.85,2.55c-3.15221,1.44375 -5.98555,3.17708 -8.5,5.2c-0.98581,-0.36393 -2.00247,-0.91393 -3.05,-1.65M655.75,357.1c0.12812,0.08333 0.24479,0.16667 0.35,0.25c-6.39987,1.5707 -12.34987,4.1207 -17.85,7.65c-0.49622,0.31758 -0.97956,0.63424 -1.45,0.95c-3.44883,-0.40846 -7.51549,-1.00846 -12.2,-1.8c-1.47096,-0.24727 -2.87096,-0.49727 -4.2,-0.75c1.89063,-0.47122 3.89063,-0.98789 6,-1.55c13.13333,-3.5 22.41667,-5.25 27.85,-5.25c0.46667,0 0.96667,0.16667 1.5,0.5M642.25,295.85c6.22174,0 11.78841,-3.76667 16.7,-11.3c1.65286,1.86667 3.45286,2.8 5.4,2.8c0.05599,0 0.10599,0 0.15,0c-0.3724,2.41302 -0.60573,4.92969 -0.7,7.55c-0.47995,0.37513 -0.89661,0.67513 -1.25,0.9c-3.46667,2.2 -8.56667,3.3 -15.3,3.3c-1.33333,0 -2.83333,-0.31667 -4.5,-0.95c-0.49115,-0.19648 -1.15781,-0.16315 -2,0.1c-0.08672,-0.86693 -0.20339,-1.73359 -0.35,-2.6c0.48307,0.13333 1.09974,0.2 1.85,0.2M638.6,318.8h0.05c2.33333,1.7 6.7,2.55 13.1,2.55c5.3,0 9.9,-1.16667 13.8,-3.5c0.67969,-0.41198 1.27969,-0.82865 1.8,-1.25c0.32331,0.72409 0.65664,1.47409 1,2.25c0.36094,0.86901 1.11094,1.88568 2.25,3.05c0.50208,0.50859 1.05208,1.02526 1.65,1.55c0.58021,0.50078 1.19687,1.01745 1.85,1.55c-1.66849,0.34674 -3.68516,0.78008 -6.05,1.3c-3.95664,0.86549 -7.65664,1.53216 -11.1,2c-3.96172,0.53333 -7.57839,0.8 -10.85,0.8c-2.42096,0 -5.58763,-0.33333 -9.5,-1c-0.43151,-0.0806 -0.88151,-0.16393 -1.35,-0.25c-0.25286,-0.0293 -0.50286,-0.06263 -0.75,-0.1c1.72396,-2.82331 3.09063,-5.80664 4.1,-8.95M554.4,286.6c1.14922,0 3.08255,-0.91667 5.8,-2.75c0.10182,0.06003 0.18516,0.11003 0.25,0.15c-1.14727,2.48398 -2.09727,5.11732 -2.85,7.9c-0.61706,-0.74388 -1.30039,-1.56055 -2.05,-2.45c-0.84128,-0.99909 -1.64128,-1.96576 -2.4,-2.9c0.35247,0.03333 0.76914,0.05 1.25,0.05z" fill="#86bcff"/><path d="M574.8,256.55c-1.9,-3.93333 -4.41667,-7.08333 -7.55,-9.45c-3,-1.03333 -6.16667,-0.45 -9.5,1.75c-3.06667,2.03333 -4.6,4.08333 -4.6,6.15c-0.02995,2.30521 0.03672,4.58854 0.2,6.85c-0.90586,-0.69271 -1.77253,-1.44271 -2.6,-2.25c-5.3819,-5.24727 -8.59857,-11.91393 -9.65,-20c1.47461,-7.56471 4.10794,-15.23138 7.9,-23c6.33333,-12.93333 15.18333,-24.6 26.55,-35c12.16667,-11.16667 26.15,-19.85 41.95,-26.05c17.3,-6.8 35.8,-10.2 55.5,-10.2c6.99688,0 13.61354,0.71667 19.85,2.15c23.13047,5.27943 41.2138,20.31276 54.25,45.1c5.39089,10.26536 9.55755,21.58203 12.5,33.95c0.10638,0.39479 0.20638,0.79479 0.3,1.2c0.7,2.99714 1.28333,5.78047 1.75,8.35c-2.86497,-0.20664 -4.94831,0.92669 -6.25,3.4c-0.84284,2.76055 -1.64284,5.01055 -2.4,6.75c-0.2349,-1.00794 -0.51823,-2.04128 -0.85,-3.1c-2.23333,-7.2 -6.23333,-14.18333 -12,-20.95c-5.7,-6.7 -12.16667,-12.08333 -19.4,-16.15c-7.66667,-4.3 -15.08333,-6.45 -22.25,-6.45c-7.43333,0 -15.31667,2.13333 -23.65,6.4c-8.56667,4.33333 -14.1,9.2 -16.6,14.6c-1.43333,-1.13333 -5.88333,-2.85 -13.35,-5.15c-7.2,-2.23333 -11.58333,-3.35 -13.15,-3.35c-4.76667,0 -10.3,1.23333 -16.6,3.7c-6.56667,2.56667 -12.7,6 -18.4,10.3c-12.95299,9.77643 -19.91966,20.62643 -20.9,32.55c-0.33919,-0.65807 -0.68919,-1.35807 -1.05,-2.1M741.25,546.7c10.22721,0 20.06055,-2.53333 29.5,-7.6c0.17292,-0.09388 0.33958,-0.19388 0.5,-0.3c0.9181,-0.48997 1.8181,-1.00664 2.7,-1.55c0.77487,-0.47018 1.54154,-0.95352 2.3,-1.45c-1.06159,1.25977 -2.19492,2.5931 -3.4,4c-0.04557,0.09049 -0.09557,0.17383 -0.15,0.25c-1.04128,1.22201 -2.12461,2.50534 -3.25,3.85c-7.56667,9.03333 -12.21667,13.55 -13.95,13.55c-2.2,0 -8.35,-2.83333 -18.45,-8.5c-1.76367,-0.99401 -3.43034,-1.94401 -5,-2.85c1.18516,0.15872 2.36849,0.27539 3.55,0.35c1.85326,0.16667 3.73659,0.25 5.65,0.25M647,503.85c0.73333,-1 2.48333,-2.43333 5.25,-4.3c0.02057,-0.01328 0.03724,-0.02995 0.05,-0.05c-0.53333,2.89896 -0.8,5.68229 -0.8,8.35c0,6.06667 1.58333,11.55 4.75,16.45c5.29323,8.24766 14.17656,12.68099 26.65,13.3c1.04596,0.06667 2.11263,0.1 3.2,0.1c3.7901,0 7.1901,-0.28333 10.2,-0.85c2.85807,-0.5207 5.35807,-1.30404 7.5,-2.35c0.05482,1.17461 -0.01185,2.27461 -0.2,3.3c-0.14154,0.90208 -0.37487,1.75208 -0.7,2.55c-2.33333,5.56667 -8.8,8.35 -19.4,8.35c-0.28477,0 -0.5681,0 -0.85,0c-2.02396,-0.02448 -3.97396,-0.12448 -5.85,-0.3c-13.46068,-1.21549 -22.71068,-6.31549 -27.75,-15.3c-2.86667,-5.06667 -4.3,-12.2 -4.3,-21.4c0,-1.18867 0.13333,-2.40534 0.4,-3.65c0.40977,-0.03021 0.6931,-0.08021 0.85,-0.15c0.2,-0.1 0.36667,-0.36667 0.5,-0.8c-0.22656,-0.5099 -0.42656,-0.9599 -0.6,-1.35c0.33555,-0.71732 0.70221,-1.35065 1.1,-1.9M697,504.7c1.36367,1.81836 2.54701,3.43503 3.55,4.85c0.1457,0.19518 0.27904,0.37852 0.4,0.55c0.70625,0.9875 1.35625,1.90417 1.95,2.75l-0.05,0.35l0.25,1.15c0.625,0.625 1.20833,1.14167 1.75,1.55c1.66667,2.67669 2.5,4.49336 2.5,5.45c0,2 -1.16667,3.95 -3.5,5.85c-3.76667,3 -9.71667,4.5 -17.85,4.5c-0.36875,0 -0.73542,0 -1.1,0c-10.07799,-0.21042 -17.59466,-3.24375 -22.55,-9.1c-3.56667,-4.2 -5.35,-8.83333 -5.35,-13.9c0,-4.19818 0.33333,-8.09818 1,-11.7c0.07109,-0.30091 0.13776,-0.60091 0.2,-0.9h0.05c1.03333,0 1.55,-0.2 1.55,-0.6l-0.3,-0.65c-0.29049,-0.22852 -0.57383,-0.46185 -0.85,-0.7c0.06602,-0.24609 0.13268,-0.49609 0.2,-0.75c0.76536,-2.82773 1.76536,-5.4444 3,-7.85c2.06146,-3.98854 5.59479,-8.93854 10.6,-14.85c1.33854,-1.49805 2.37187,-2.63138 3.1,-3.4c5.73333,-5.96667 10.71667,-8.95 14.95,-8.95c7.56667,0 15.68333,4.83333 24.35,14.5c3.26667,3.66667 6.03333,7.43333 8.3,11.3c0.82057,1.38464 1.47057,2.61797 1.95,3.7c0.16576,0.31367 0.29909,0.61367 0.4,0.9c0.56667,1.32513 0.85,2.3918 0.85,3.2c0,0.05651 -0.53333,1.15651 -1.6,3.3c-0.58542,1.23203 -1.35208,2.78203 -2.3,4.65c-0.31823,0.69544 -0.66823,1.42878 -1.05,2.2c-0.95326,1.60208 -1.88659,3.00208 -2.8,4.2c-2.87695,3.86667 -5.54362,5.8 -8,5.8c-0.43932,0 -1.17266,-0.08333 -2.2,-0.25c-0.25052,-0.50339 -0.51719,-1.00339 -0.8,-1.5c-0.91159,-1.61732 -1.81159,-3.06732 -2.7,-4.35c-0.09466,-0.14362 -0.19466,-0.29362 -0.3,-0.45c-2.97044,-4.13333 -5.72044,-6.2 -8.25,-6.2c-1.03333,0 -1.76667,0.05 -2.2,0.15l-0.3,0.1l-0.25,0.75c1.22878,1.56263 2.36211,3.01263 3.4,4.35M704.45,457.25c7.53672,0.03307 13.40339,2.63307 17.6,7.8c3.53997,4.33346 5.45664,9.3168 5.75,14.95c-1.26445,-2.07331 -2.83112,-4.28997 -4.7,-6.65c-5.76667,-7.3 -11.6,-12.46667 -17.5,-15.5c-0.37943,-0.19427 -0.76276,-0.39427 -1.15,-0.6M642.2,436.1c-7.2,11.4 -20.01667,17.1 -38.45,17.1c-5.46667,0 -11.15,-1.95 -17.05,-5.85c-7.46667,-4.96667 -11.2,-11.38333 -11.2,-19.25c0,-6.3 2.05,-12.86667 6.15,-19.7c4.8,-7.96667 11,-13.36667 18.6,-16.2c7.7,-3.96667 15.98333,-4.75 24.85,-2.35c6.5,1.73333 11.36667,4.26667 14.6,7.6c3.06667,3.13333 5.25,6.41667 6.55,9.85c1.06667,2.73333 1.6,5.7 1.6,8.9c0,7.3 -1.88333,13.93333 -5.65,19.9M846.35,485.8c-0.1875,-0.95677 -0.50417,-1.92344 -0.95,-2.9c0.34609,0.32773 0.67943,0.66107 1,1c0.42279,0.4526 0.80612,0.9026 1.15,1.35c2.53333,3.07318 3.8,6.10651 3.8,9.1c0,4.67305 -0.98333,9.32305 -2.95,13.95c-0.87383,2.1043 -1.95716,4.2043 -3.25,6.3c-3.25521,5.25391 -7.45521,9.30391 -12.6,12.15c-6.15534,3.46667 -13.67201,5.2 -22.55,5.2c-0.22435,0 -0.45768,0 -0.7,0c-5.89987,-0.15716 -10.6332,-2.34049 -14.2,-6.55c-0.97865,-1.1513 -1.92865,-2.53464 -2.85,-4.15c0.17161,-0.02018 0.33828,-0.05352 0.5,-0.1c0.02135,-0.00781 0.03802,-0.02448 0.05,-0.05c0.91159,-0.21797 1.77826,-0.51797 2.6,-0.9c0.3457,0.77904 0.8457,1.4957 1.5,2.15c1.90521,2.00286 4.85521,3.26953 8.85,3.8c1.45117,0.19557 3.01784,0.29557 4.7,0.3c0.21927,0.08112 0.43594,0.16445 0.65,0.25c0.70964,-0.02083 1.5263,-0.12083 2.45,-0.3c1.01341,-0.00469 1.93008,-0.03802 2.75,-0.1c3.02539,-0.14844 4.72539,-0.4651 5.1,-0.95c0.12135,-0.12135 0.17135,-0.52135 0.15,-1.2c3.56484,-1.25104 5.81484,-2.45104 6.75,-3.6c0.23672,-0.24414 0.38672,-0.49414 0.45,-0.75c1.81875,-1.18307 3.35208,-2.73307 4.6,-4.65c0.9625,-1.49557 1.7125,-3.07891 2.25,-4.75c0.96328,-0.46081 1.94661,-1.32747 2.95,-2.6c1.2819,-1.59518 2.59857,-3.81185 3.95,-6.65c2.73333,-5.7 4.1,-10.01667 4.1,-12.95c0,-0.79792 -0.08333,-1.59792 -0.25,-2.4M831.85,479.1c1.16836,-0.22812 2.30169,-0.34479 3.4,-0.35c0.62708,0.85378 1.46042,1.88711 2.5,3.1c2.36107,2.79023 3.62773,4.8069 3.8,6.05c0.03333,0.10391 0.05,0.20391 0.05,0.3c0,1.95365 -1.46667,5.62031 -4.4,11c-0.06224,0.13685 -0.12891,0.27018 -0.2,0.4c-0.21484,0.38815 -0.43151,0.75482 -0.65,1.1c-0.05443,-0.47344 -0.13776,-0.95677 -0.25,-1.45c-0.60599,-2.77279 -1.78932,-5.40612 -3.55,-7.9c-0.89909,-1.24909 -1.94909,-2.46576 -3.15,-3.65c-4.36667,-4.3 -9.63333,-7.11667 -15.8,-8.45c-6.26667,-1.4 -11.53333,-0.81667 -15.8,1.75c-4.8,2.86667 -7.2,7.73333 -7.2,14.6c0,1.89518 0.21667,3.77852 0.65,5.65c0.02005,0.14167 0.03672,0.275 0.05,0.4c0.6638,2.75391 1.7638,5.50391 3.3,8.25c0.57747,1.03294 1.19414,1.99961 1.85,2.9c-0.03398,0.06263 -0.06732,0.11263 -0.1,0.15c-1.82852,1.76758 -4.59518,2.71758 -8.3,2.85c-0.33698,0.03333 -0.68698,0.05 -1.05,0.05c-6.33333,0 -11.55,-3.08333 -15.65,-9.25c-0.56927,-0.84036 -1.1026,-1.7237 -1.6,-2.65c-0.61172,-1.13633 -1.16172,-2.33633 -1.65,-3.6c0.14102,-0.20508 0.30768,-0.37174 0.5,-0.5c-0.29544,-0.17578 -0.59544,-0.35911 -0.9,-0.55c-0.56667,-1.66862 -0.85,-2.86862 -0.85,-3.6c0,-0.3931 0.01667,-0.80977 0.05,-1.25c0.08516,-0.68021 0.21849,-1.41354 0.4,-2.2c0.75182,-3.16914 2.45182,-7.01914 5.1,-11.55c1.07904,-1.79792 2.2957,-3.69792 3.65,-5.7c5.33333,-7.9 10.6,-14.2 15.8,-18.9c8.41432,1.17643 15.83099,3.17643 22.25,6c1.4957,0.66693 2.92904,1.36693 4.3,2.1c0.34297,0.19336 0.6763,0.37669 1,0.55c2.2474,1.28385 4.3474,2.68385 6.3,4.2c1.95117,1.48971 4.05117,3.32305 6.3,5.5c-0.33841,0.9418 -0.55508,1.4918 -0.65,1.65l0.5,3M776.95,461.5c-2.86068,3.2082 -5.46068,6.7082 -7.8,10.5c-2.06029,3.34128 -3.71029,6.57461 -4.95,9.7c-0.76211,1.9276 -1.37878,3.81094 -1.85,5.65c0,-0.26549 0,-0.51549 0,-0.75c0,-1.65872 0.1,-3.25872 0.3,-4.8c1.19388,-8.62995 5.71055,-15.31328 13.55,-20.05c0.35273,-0.21263 0.70273,-0.4293 1.05,-0.65c-0.09362,0.13893 -0.19362,0.27227 -0.3,0.4M763.4,290.5c3.45977,2.56094 6.00977,5.4776 7.65,8.75h-1.8c-0.83333,0.3 -1.58333,0.66667 -2.25,1.1c-0.1,-1.56667 -0.45,-3.2 -1.05,-4.9c-0.63333,-1.83333 -1.45,-3.4 -2.45,-4.7c-0.02318,-0.07891 -0.05651,-0.16224 -0.1,-0.25M673.8,295.35c0,-6.33333 1.3,-11.86667 3.9,-16.6c3.5,-6.43333 9.45,-11.65 17.85,-15.65c12.1,-5.7 23,-5.9 32.7,-0.6c4,2.2 7.18333,5.11667 9.55,8.75c2.3,3.5 3.45,7.1 3.45,10.8c0,3.5 -0.76667,7.11667 -2.3,10.85c-1.26667,3.16667 -3.23333,6.73333 -5.9,10.7c-1.22904,1.79466 -2.62904,3.46133 -4.2,5c-3.25078,3.23255 -7.23411,5.94922 -11.95,8.15c-5.53333,2.56667 -10.33333,3.85 -14.4,3.85c-7.18854,0 -13.05521,-1.35 -17.6,-4.05c-3.06784,-1.82018 -5.53451,-4.25352 -7.4,-7.3c-2.46667,-4 -3.7,-8.63333 -3.7,-13.9M626.35,282.8c4.6,6.1 6.9,12.43333 6.9,19c0,5.16667 -1.63333,10.6 -4.9,16.3c-4.76667,8.33333 -11.63333,12.5 -20.6,12.5c-17.26667,0 -29.08333,-4.78333 -35.45,-14.35c-3.26667,-4.9 -4.9,-10.9 -4.9,-18c0,-6.83333 2.03333,-12.88333 6.1,-18.15c5.83333,-7.56667 14.91667,-11.1 27.25,-10.6c11.03333,0.86667 19.56667,5.3 25.6,13.3M627.15,377c-4.47656,-0.58229 -9.2599,-0.59896 -14.35,-0.05c-4.15039,0.4612 -8.11706,1.24453 -11.9,2.35c-2.01641,-0.56393 -3.58307,-1.0806 -4.7,-1.55c-0.62826,-0.22591 -1.11159,-0.44258 -1.45,-0.65c0.53333,-0.46667 1.43333,-0.96667 2.7,-1.5c0.3013,-0.12826 0.58464,-0.24492 0.85,-0.35c1.21797,-0.43333 2.28464,-0.65 3.2,-0.65c6.66667,0.66667 10.41667,1 11.25,1c1,0 4.2,-0.1 9.6,-0.3c1.98776,-0.07435 3.80443,-0.15768 5.45,-0.25c-0.28034,0.66471 -0.49701,1.31471 -0.65,1.95M632.7,369.05c-2.85286,0.36667 -5.66953,0.55 -8.45,0.55c-3.76667,0 -9.26667,-0.66667 -16.5,-2c-0.76927,-0.14492 -1.5026,-0.29492 -2.2,-0.45c-0.59271,-0.10247 -1.15937,-0.21914 -1.7,-0.35c0.72526,-0.07383 1.50859,-0.19049 2.35,-0.35c3.64128,-0.57148 8.37461,-1.58815 14.2,-3.05c1.32904,0.25273 2.72904,0.50273 4.2,0.75c4.68451,0.79154 8.75117,1.39154 12.2,1.8c-1.53424,1.04661 -2.90091,2.07995 -4.1,3.1M547.9,310c0,2.2 -0.85,4 -2.55,5.4c-0.96667,0.76667 -2.45,1.88333 -4.45,3.35c-0.72292,0.77643 -1.53958,1.9431 -2.45,3.5c0.71224,-4.26732 2.29557,-8.58398 4.75,-12.95c1.77656,-3.14622 3.8099,-5.84622 6.1,-8.1c-0.93333,2.80339 -1.4,5.73672 -1.4,8.8z" fill="#ffffff"/><path d="M567.15,181.3c11.61224,-11.79896 24.92891,-21.19896 39.95,-28.2c12.59844,-5.85521 25.9651,-9.78854 40.1,-11.8c5.52487,-0.77057 11.1582,-1.25391 16.9,-1.45c11.29141,-0.59531 21.75807,0.32135 31.4,2.75c-0.35872,0.66966 -0.74206,1.38633 -1.15,2.15c-0.52904,0.97813 -1.02904,1.89479 -1.5,2.75c-6.23646,-1.43333 -12.85312,-2.15 -19.85,-2.15c-19.7,0 -38.2,3.4 -55.5,10.2c-15.8,6.2 -29.78333,14.88333 -41.95,26.05c-11.36667,10.4 -20.21667,22.06667 -26.55,35c-3.79206,7.76862 -6.42539,15.43529 -7.9,23c-0.9,4.7612 -1.35,9.47786 -1.35,14.15c0,8.93333 2.73333,17.55 8.2,25.85c0.85104,1.26146 1.83437,2.62813 2.95,4.1c0.21003,-0.7875 1.97669,-2.1375 5.3,-4.05c0.23763,-0.13581 0.47096,-0.26914 0.7,-0.4c-1.05221,-2.3207 -1.90221,-5.33737 -2.55,-9.05c-0.47747,-2.75469 -0.81081,-5.53802 -1,-8.35c-0.16328,-2.26146 -0.22995,-4.54479 -0.2,-6.85c0,-2.06667 1.53333,-4.11667 4.6,-6.15c3.33333,-2.2 6.5,-2.78333 9.5,-1.75c3.13333,2.36667 5.65,5.51667 7.55,9.45c0.36081,0.74193 0.71081,1.44193 1.05,2.1c1.29805,2.51354 2.51471,4.59688 3.65,6.25c0.3263,-0.14453 0.64297,-0.29453 0.95,-0.45c-0.03529,-0.13529 -0.06862,-0.28529 -0.1,-0.45c-0.06667,-0.43333 -0.1,-1.43333 -0.1,-3c0,-4.9 2.63333,-11 7.9,-18.3c5.63333,-7.83333 12.31667,-14.11667 20.05,-18.85c9.13333,-5.53333 18.06667,-7.71667 26.8,-6.55c8.95052,1.2375 17.13385,6.00417 24.55,14.3c0.22865,-2.56471 1.49531,-5.59805 3.8,-9.1c2.9,-4.4 6.61667,-8.1 11.15,-11.1c12.23333,-8.06667 26.23333,-8.58333 42,-1.55c9.76667,6.96667 17.15,13.45 22.15,19.45c6.06667,7.26667 9.1,14.28333 9.1,21.05c0,1.57721 -0.11667,3.07721 -0.35,4.5c1.74557,-2.00039 3.19557,-4.00039 4.35,-6c0.40456,-0.68659 0.82122,-1.55326 1.25,-2.6c0.75716,-1.73945 1.55716,-3.98945 2.4,-6.75c1.30169,-2.47331 3.38503,-3.60664 6.25,-3.4c-0.46667,-2.56953 -1.05,-5.35286 -1.75,-8.35c-0.09362,-0.40521 -0.19362,-0.80521 -0.3,-1.2c1.03711,-0.53919 2.20378,-1.05586 3.5,-1.55c0.80104,-0.29635 1.68438,-0.61302 2.65,-0.95c1.45286,6.02266 2.4362,11.55599 2.95,16.6c0.84792,1.45026 1.19792,2.76693 1.05,3.95c-0.16667,0.6 -0.33333,1.03333 -0.5,1.3c-0.05143,0.08008 -0.1181,0.14674 -0.2,0.2c0.03333,0.7694 0.05,1.5194 0.05,2.25c-3.54753,19.70885 -7.86419,30.44219 -12.95,32.2c0.05091,0.27044 0.10091,0.53711 0.15,0.8c1.46693,-0.20391 3.35026,0.29609 5.65,1.5c3.23333,1.66667 6.86667,4.41667 10.9,8.25c3.7,6.6 5.6,10.03333 5.7,10.3c0.1082,0.32448 0.17487,1.22448 0.2,2.7c0.06667,1.25208 0.1,2.91875 0.1,5c0,1.64583 -0.11667,3.24583 -0.35,4.8c-0.61966,4.49362 -2.15299,8.64362 -4.6,12.45c-3.04753,4.72565 -7.21419,8.07565 -12.5,10.05c0.12148,0.12318 0.23815,0.23984 0.35,0.35c1.28242,1.28242 2.16576,2.61576 2.65,4c0.3,0.84792 0.45,1.71458 0.45,2.6c0,0.74883 -0.28333,1.58216 -0.85,2.5c1.09609,0.19128 2.12943,0.44128 3.1,0.75c1.32253,0.4224 2.52253,0.95573 3.6,1.6c3.64818,2.16523 5.66484,5.44857 6.05,9.85c0.71927,-0.0556 1.6026,-0.12227 2.65,-0.2c2.36055,-0.18685 5.59388,-0.43685 9.7,-0.75c1.77096,-0.08359 3.2043,-0.15026 4.3,-0.2c-0.26367,1.13659 -0.54701,2.35326 -0.85,3.65c-0.12669,0.55299 -0.26003,1.08633 -0.4,1.6c-4.85286,-0.70156 -10.01953,-0.76823 -15.5,-0.2c-0.27578,1.57643 -0.82578,3.32643 -1.65,5.25c-0.70625,1.64922 -1.62292,3.43255 -2.75,5.35c-0.19727,0.37539 -0.41393,0.75872 -0.65,1.15c-2.27331,3.75677 -4.62331,6.65677 -7.05,8.7c3.09909,0.73438 5.61576,1.40104 7.55,2c6.61276,2.07005 10.61276,4.45339 12,7.15c0.24167,0.42214 0.40833,0.85547 0.5,1.3v0.5c-0.16667,0.16667 -0.33333,0.28333 -0.5,0.35c-0.26667,0.1 -0.93333,0.15 -2,0.15c-1.5,-0.63333 -3.2,-1.33333 -5.1,-2.1c-3.8,-1.46667 -6.76667,-2.43333 -8.9,-2.9c-1,-0.23333 -4.75,-0.8 -11.25,-1.7c-5.93333,-0.8 -10.76667,-1.73333 -14.5,-2.8h-31.75c-2.48841,0.31732 -4.87174,0.68398 -7.15,1.1c-11.30794,2.02956 -19.89128,5.19622 -25.75,9.5c-0.26432,0.20326 -1.38099,1.13659 -3.35,2.8c-1.24961,1.06901 -2.84961,2.43568 -4.8,4.1c-2.51276,2.16107 -5.07943,4.01107 -7.7,5.55c0.66667,3.29023 1,6.8069 1,10.55c0,8.10911 -1.46667,15.52578 -4.4,22.25c-0.45833,1.05013 -0.95833,2.08346 -1.5,3.1c-0.75286,1.46875 -1.5862,2.90208 -2.5,4.3c-7.53594,11.56224 -19.3026,18.39557 -35.3,20.5c-3.57396,0.5 -7.37396,0.75 -11.4,0.75c-3.32135,0 -6.52135,-0.26667 -9.6,-0.8c0.04883,1.62578 -0.01784,3.49245 -0.2,5.6c-0.46667,5.7 -0.28333,9.85 0.55,12.45c0.3,0.93333 0.75,2.71667 1.35,5.35c0.76667,2.53333 1.85,4.68333 3.25,6.45c4.16667,5.13333 11.88333,7.86667 23.15,8.2c0.31901,0.28151 0.66901,0.59818 1.05,0.95c3.73867,-1.72214 8.17201,-2.65547 13.3,-2.8c0.14818,-0.4474 0.29818,-0.8474 0.45,-1.2c1.85456,-4.47279 5.63789,-7.12279 11.35,-7.95c0.07096,0.00833 0.13763,0.00833 0.2,0c-3.39284,-1.37135 -5.92617,-4.12135 -7.6,-8.25c-1.33333,-3.33333 -2,-7.08333 -2,-11.25c0,-6 2.4,-12.33333 7.2,-19c2.45013,-3.39609 5.30013,-6.52943 8.55,-9.4c3.72253,-3.2974 7.97253,-6.2474 12.75,-8.85c5.93333,-3.23333 12.85,-4.58333 20.75,-4.05c6.93333,0.43333 14.03333,2.25 21.3,5.45c1.63438,0.71341 3.20104,1.46341 4.7,2.25c4.61966,2.37878 8.71966,5.09544 12.3,8.15c1.36615,1.1806 2.54948,2.3306 3.55,3.45c0.08333,0.075 0.15,0.14167 0.2,0.2c0.84727,-1.31471 1.99727,-2.99805 3.45,-5.05c1.04206,-1.37253 2.22539,-2.92253 3.55,-4.65c2.9,-3.76667 5.88333,-7.51667 8.95,-11.25c0.42917,-0.45833 0.8625,-0.925 1.3,-1.4c3.55768,-3.65221 7.34102,-7.05221 11.35,-10.2c6.03333,-4.73333 11.15,-7.61667 15.35,-8.65c17.03333,-4.43333 30,-0.51667 38.9,11.75c0.81146,1.11471 1.57813,2.28138 2.3,3.5c1.27956,2.19766 2.39622,4.56432 3.35,7.1c0.70521,1.78633 1.32188,3.65299 1.85,5.6c1.4,5.03333 2.1,9.75 2.1,14.15c0,0.63971 -0.36667,1.83971 -1.1,3.6c-0.2263,0.63203 -0.50964,1.33203 -0.85,2.1c-0.40299,0.94036 -0.76966,1.74036 -1.1,2.4c0.05026,0.05417 0.10026,0.10417 0.15,0.15c0.89076,0.65703 1.97409,1.45703 3.25,2.4c0.82917,0.60964 1.62917,1.20964 2.4,1.8c0.45859,0.38216 0.90859,0.74883 1.35,1.1c2.12539,1.79922 3.97539,3.58255 5.55,5.35c0.09089,0.02253 0.17422,0.03919 0.25,0.05c1.23984,0.22018 2.42318,0.48685 3.55,0.8c-0.05638,-0.39336 -0.08971,-0.81003 -0.1,-1.25c-0.06146,-2.10859 -0.21146,-3.75859 -0.45,-4.95c-0.14805,-0.72695 -0.33138,-1.27695 -0.55,-1.65c-1.83333,-2.3 -3.35,-4.21667 -4.55,-5.75c-0.56003,-0.7224 -1.06003,-1.40573 -1.5,-2.05c-0.42747,-0.6793 -0.79414,-1.3293 -1.1,-1.95c-0.56667,-1.14779 -0.85,-2.14779 -0.85,-3c1.5,-3.63333 3,-7.5 4.5,-11.6c0.79154,-2.14596 1.47487,-4.1793 2.05,-6.1c2.22422,-1.12461 4.54089,-2.52461 6.95,-4.2c0.25742,-0.18151 0.50742,-0.36484 0.75,-0.55c-0.02539,0.25885 -0.05872,0.50885 -0.1,0.75c-0.64141,3.62799 -1.64141,7.29466 -3,11c-0.66667,1.73333 -1.56667,3.96667 -2.7,6.7c-0.8,2.03333 -1.2,3.48333 -1.2,4.35c0,0.25378 0.23333,0.77044 0.7,1.55c0.00794,0.03516 0.00794,0.05182 0,0.05c0.73034,1.19883 1.96367,2.98216 3.7,5.35c1.39284,1.92109 2.44284,3.70443 3.15,5.35c0.8,1.81016 1.2,3.46016 1.2,4.95c0,0.96667 -0.3,2.26667 -0.9,3.9c-0.18633,0.49688 -0.38633,0.96354 -0.6,1.4c2.41445,1.36523 4.51445,3.1319 6.3,5.3c0.21875,0.26758 0.41875,0.53424 0.6,0.8c2.61719,3.42813 3.98385,6.92813 4.1,10.5c2.86797,0.13945 5.5013,0.78945 7.9,1.95c3.48151,1.64609 6.49818,4.34609 9.05,8.1c0.05339,0.0638 0.10339,0.13047 0.15,0.2c3.43333,5.13333 5.15,9.96667 5.15,14.5c0,2.36667 -0.43333,5.25 -1.3,8.65c-1.23333,4.8 -3.03333,9.13333 -5.4,13c-2.91341,4.72565 -6.48008,8.45898 -10.7,11.2c-4.10729,1.9918 -7.52396,3.62513 -10.25,4.9c1.68177,1.19271 3.99844,2.80937 6.95,4.85c4.8,3.56667 7.2,6.03333 7.2,7.4c0,1.69245 -0.71667,3.39245 -2.15,5.1c1.80404,-0.23255 4.13737,-0.56589 7,-1c-1.37773,4.42786 -5.06107,8.49453 -11.05,12.2c1.15911,0.23008 2.29245,0.48008 3.4,0.75c-1.60273,0.99453 -3.7194,2.34453 -6.35,4.05c6.64141,1.02318 12.80807,3.42318 18.5,7.2c5.66406,3.72708 8.83073,7.16042 9.5,10.3c1.56341,-0.41523 3.38008,-0.89857 5.45,-1.45c0.13333,0.73711 0.2,1.47044 0.2,2.2c0,4.3 -2.16667,7.65 -6.5,10.05c-7.46667,4.13333 -21.38333,6.2 -41.75,6.2c-18.43333,0 -33.38333,-1.11667 -44.85,-3.35c-3.33333,-0.66667 -6.78333,-1.51667 -10.35,-2.55c-3.2,-0.93333 -5.21667,-1.46667 -6.05,-1.6c-7.76667,-1.26667 -12.43333,-2.58333 -14,-3.95c-0.66667,-0.6 -1.03333,-1.36667 -1.1,-2.3c0.06667,-1.23333 0.1,-2.23333 0.1,-3c0,-1.93333 2.1,-4.91667 6.3,-8.95c1.19154,-1.15495 2.3082,-2.15495 3.35,-3c-1.95859,-0.35872 -4.25859,-0.79206 -6.9,-1.3c-0.11706,-0.11706 -0.25039,-0.23372 -0.4,-0.35c-7.66029,1.54193 -16.34362,2.54193 -26.05,3c-0.6332,1.99596 -2.8332,4.21263 -6.6,6.65c-0.21784,0.14219 -0.45117,0.27552 -0.7,0.4c-1.8332,-0.45885 -3.89987,-0.94219 -6.2,-1.45c-1.30156,-0.28333 -2.51823,-0.53333 -3.65,-0.75c-0.12174,0.06471 -0.25508,0.13138 -0.4,0.2c-3.96667,1.86667 -6.96667,3.13333 -9,3.8c-5.51615,1.86328 -11.36615,3.47995 -17.55,4.85c1.98177,1.49961 4.2151,3.19961 6.7,5.1c-18.1151,4.8194 -39.1151,7.6694 -63,8.55h-30c-3.53333,-1.26667 -5.98333,-2.76667 -7.35,-4.5c-0.93333,-1.13333 -1.4,-2.5 -1.4,-4.1c0,-4.36667 5.16667,-9.58333 15.5,-15.65c3.98216,-2.33438 7.54883,-4.18438 10.7,-5.55c-5.76289,-1.02591 -9.92956,-3.00924 -12.5,-5.95c-1.8,-2.06667 -2.7,-4.81667 -2.7,-8.25c0,-4.83333 1.71667,-9.21667 5.15,-13.15c3.04258,-3.47721 6.82591,-5.61055 11.35,-6.4c-4.22604,-2.46927 -7.74271,-5.76927 -10.55,-9.9c-1.73333,-2.57812 -3.1,-5.14479 -4.1,-7.7c-1.23333,-3.30117 -1.85,-6.58451 -1.85,-9.85c0,-7.63333 1.78333,-13.86667 5.35,-18.7c0.49935,-0.67409 1.03268,-1.32409 1.6,-1.95c-11.69701,-0.30352 -19.76367,-5.02018 -24.2,-14.15c-2.33333,-4.8 -3.5,-10.56667 -3.5,-17.3c0,-5.73255 0.5,-10.18255 1.5,-13.35c-5.30977,-1.35443 -10.1931,-3.55443 -14.65,-6.6c-4.53333,-3.06667 -8.06667,-6.5 -10.6,-10.3c-0.93333,-1.46667 -2.2,-5.13333 -3.8,-11c-0.0375,-0.13854 -0.07083,-0.28854 -0.1,-0.45c-1.56667,-5.78841 -2.35,-9.85508 -2.35,-12.2c0,-11.99206 3.93333,-22.30872 11.8,-30.95c-2.15104,-1.39727 -4.00104,-4.11393 -5.55,-8.15c-1.66667,-4.3 -2.5,-7.68333 -2.5,-10.15c0,-5.44635 0.21667,-9.52969 0.65,-12.25c0.10286,-0.46784 0.20286,-0.90117 0.3,-1.3c0.57917,-2.37083 1.5625,-4.6375 2.95,-6.8c-2.63034,0.5 -5.01367,0.75 -7.15,0.75c-2.5931,0 -5.02643,-0.2 -7.3,-0.6c-8.92904,-1.4957 -15.41237,-5.96237 -19.45,-13.4c-1.9487,-3.60521 -3.18203,-7.43854 -3.7,-11.5c-0.2,-1.50521 -0.3,-3.03854 -0.3,-4.6c0,-8.2 1.7,-15.36667 5.1,-21.5c3.67474,-6.61966 8.92474,-10.78633 15.75,-12.5c-7.13659,-6.2668 -12.15326,-13.13346 -15.05,-20.6c-2.53333,-6.53333 -3.8,-15.55 -3.8,-27.05c0,-8.76667 2.66667,-18.76667 8,-30c5.86667,-12.33333 13.91667,-23.76667 24.15,-34.3c0.16341,-0.16758 0.33008,-0.33424 0.5,-0.5M555.55,289.45c0.74961,0.88945 1.43294,1.70612 2.05,2.45c0.75273,-2.78268 1.70273,-5.41602 2.85,-7.9c-0.06484,-0.03997 -0.14818,-0.08997 -0.25,-0.15c-2.71745,1.83333 -4.65078,2.75 -5.8,2.75c-0.48086,0 -0.89753,-0.01667 -1.25,-0.05c0.75872,0.93424 1.55872,1.90091 2.4,2.9M543.2,309.3c-2.45443,4.36602 -4.03776,8.68268 -4.75,12.95c0.91042,-1.5569 1.72708,-2.72357 2.45,-3.5c2,-1.46667 3.48333,-2.58333 4.45,-3.35c1.7,-1.4 2.55,-3.2 2.55,-5.4c0,-3.06328 0.46667,-5.99661 1.4,-8.8c-2.2901,2.25378 -4.32344,4.95378 -6.1,8.1M639.35,290.9c-1.99557,-7.18151 -5.87891,-13.36484 -11.65,-18.55c-8.13333,-7.26667 -17.9,-11 -29.3,-11.2c-4.54271,-0.0776 -8.79271,0.4224 -12.75,1.5c-0.10482,2.00313 -0.28815,3.93646 -0.55,5.8c0.71615,-0.06667 1.43281,-0.1 2.15,-0.1c0.9,0 1.65,0.13333 2.25,0.4c0.08958,0.05039 0.17292,0.10039 0.25,0.15c0.41146,0.2112 0.72812,0.34453 0.95,0.4c0.9,0.23333 3.08333,-0.5 6.55,-2.2c14.96667,0.76667 25.65,5.81667 32.05,15.15c2.37122,3.4612 4.05456,7.27786 5.05,11.45c0.42643,1.69609 0.72643,3.44609 0.9,5.25c0.16667,1.51419 0.25,3.06419 0.25,4.65c0,2.77292 -0.26667,5.45625 -0.8,8.05c-0.20781,1.05182 -0.45781,2.08516 -0.75,3.1c-0.98698,3.42617 -2.45365,6.70951 -4.4,9.85c-0.30885,0.49557 -0.62552,0.97891 -0.95,1.45c-7.22995,10.45443 -19.09661,15.72109 -35.6,15.8c-0.10833,0 -0.225,0 -0.35,0c-0.70586,0 -1.40586,-0.01667 -2.1,-0.05c-2.1043,1.11224 -5.12096,2.61224 -9.05,4.5c0.66354,0.20469 1.33021,0.38802 2,0.55c-0.18672,0.0944 -0.38672,0.1944 -0.6,0.3c-3.32591,1.43411 -6.50924,2.53411 -9.55,3.3c0.1151,1.05638 0.23177,2.03971 0.35,2.95c0.3543,2.72227 0.77096,4.82227 1.25,6.3c0.50443,-1.83802 0.85443,-3.15469 1.05,-3.95c2.27995,-0.64414 4.69661,-1.44414 7.25,-2.4c0.25039,-0.07331 0.50039,-0.15664 0.75,-0.25c5.26745,-1.98307 8.90078,-3.74974 10.9,-5.3c16.82539,-0.40651 29.17539,-5.82318 37.05,-16.25c7.66497,1.68255 12.24831,2.66589 13.75,2.95c0.32187,0.06667 0.50521,0.1 0.55,0.1c8.3,0 15.65,-0.78333 22.05,-2.35c4.34141,-1.09115 7.75807,-2.42448 10.25,-4c2.33268,1.62044 4.58268,2.97044 6.75,4.05c-1.66003,0.53268 -3.64336,1.33268 -5.95,2.4c-4.9,2.23333 -7.26667,4.2 -7.1,5.9c1.04753,0.73607 2.06419,1.28607 3.05,1.65c-4.41419,3.61341 -7.81419,8.14674 -10.2,13.6c-3.09362,0.30208 -6.09362,0.80208 -9,1.5c-0.10521,-0.08333 -0.22188,-0.16667 -0.35,-0.25c-0.53333,-0.33333 -1.03333,-0.5 -1.5,-0.5c-5.43333,0 -14.71667,1.75 -27.85,5.25c-2.10937,0.56211 -4.10937,1.07878 -6,1.55c-5.82539,1.46185 -10.55872,2.47852 -14.2,3.05c-0.84141,0.15951 -1.62474,0.27617 -2.35,0.35c0.54062,0.13086 1.10729,0.24753 1.7,0.35c0.6974,0.15508 1.43073,0.30508 2.2,0.45c7.23333,1.33333 12.73333,2 16.5,2c2.78047,0 5.59714,-0.18333 8.45,-0.55c-2.35156,2.06185 -3.9849,4.06185 -4.9,6c-1.64557,0.09232 -3.46224,0.17565 -5.45,0.25c-5.4,0.2 -8.6,0.3 -9.6,0.3c-0.83333,0 -4.58333,-0.33333 -11.25,-1c-0.91536,0 -1.98203,0.21667 -3.2,0.65c-0.26536,0.10508 -0.5487,0.22174 -0.85,0.35c-1.26667,0.53333 -2.16667,1.03333 -2.7,1.5c0.33841,0.20742 0.82174,0.42409 1.45,0.65c1.11693,0.4694 2.68359,0.98607 4.7,1.55c-0.19961,0.08125 -0.41628,0.14792 -0.65,0.2c-2.7431,0.87109 -5.3931,1.90443 -7.95,3.1c-1.76497,0.86693 -3.48164,1.80026 -5.15,2.8c-2.31029,1.42227 -4.52695,3.0056 -6.65,4.75c0.74674,1.18112 1.59674,2.51445 2.55,4c0.83919,-0.81172 1.63919,-1.56172 2.4,-2.25c3.23841,-2.76523 6.02174,-4.2819 8.35,-4.55c0.24779,0 0.48112,0 0.7,0c2.1,0 5.33333,-0.65 9.7,-1.95c4.76263,-1.40443 8.41263,-2.32109 10.95,-2.75c0.25078,-0.03581 0.48411,-0.06914 0.7,-0.1c4.75846,-0.68854 9.3918,-0.38854 13.9,0.9c0.21484,-0.29297 0.43151,-0.59297 0.65,-0.9c1.18333,-1.67435 2.26667,-3.09102 3.25,-4.25c4.62539,1.24974 8.87539,3.18307 12.75,5.8c0.27917,0.18685 0.54583,0.37018 0.8,0.55c1.05299,0.75013 2.05299,1.53346 3,2.35c0.88971,-0.26263 1.80638,-0.5793 2.75,-0.95c2.08828,-0.81901 3.73828,-1.63568 4.95,-2.45c0.79609,-0.49844 1.41276,-0.99844 1.85,-1.5c0.16667,-0.2 1.55,-2.13333 4.15,-5.8c0.93333,-1.3 2.16667,-1.95 3.7,-1.95c0.13333,0 3.53333,1.08333 10.2,3.25c2.60247,0.7832 4.90247,1.41654 6.9,1.9c3.56393,0.9 6.19727,1.35 7.9,1.35c1.25703,0 2.49036,-0.05 3.7,-0.15c2.32604,-0.37331 4.89271,-0.75664 7.7,-1.15c6.47083,-1.54622 12.5375,-4.42956 18.2,-8.65c0.78372,-0.58346 1.55039,-1.18346 2.3,-1.8c1.47409,-1.19922 2.87409,-2.44922 4.2,-3.75c1.94948,-1.89193 3.74948,-3.89193 5.4,-6h6c0.1263,0.04115 0.25964,0.07448 0.4,0.1c0.32669,0.11758 0.67669,0.21758 1.05,0.3c1.39141,0.40208 3.14141,0.81875 5.25,1.25c2.96667,0.56667 5.06667,0.85 6.3,0.85c6.56667,0 10.76667,-2.01667 12.6,-6.05c0.39193,-0.86771 0.85859,-2.05104 1.4,-3.55c-1.79596,-0.91979 -4.14596,-1.45312 -7.05,-1.6c-0.10299,0.01979 -0.20299,0.01979 -0.3,0c-0.43411,-1.48906 -1.00078,-2.95573 -1.7,-4.4c-0.13086,-0.27617 -0.28086,-0.55951 -0.45,-0.85c-3.95417,0.04714 -8.52083,0.6138 -13.7,1.7c-1.67982,-3.30326 -5.29648,-6.30326 -10.85,-9c-1.44297,-0.69349 -2.9263,-1.32682 -4.45,-1.9c0.21693,-0.07539 0.43359,-0.15872 0.65,-0.25c5.58789,1.76667 11.87122,2.65 18.85,2.65c2.24883,0 4.38216,-0.15 6.4,-0.45c0.36914,0.90755 0.90247,2.04089 1.6,3.4c-0.31758,-2.67018 -1.15091,-5.63685 -2.5,-8.9c-1.75404,0.3 -3.6207,0.45 -5.6,0.45c-6.53542,0 -12.73542,-1 -18.6,-3c0.46836,-0.19466 0.93503,-0.41133 1.4,-0.65c-1.88698,-0.74297 -4.23698,-1.8763 -7.05,-3.4c-0.07982,-0.04297 -0.16315,-0.09297 -0.25,-0.15c-0.89232,0.34492 -1.80898,0.66159 -2.75,0.95c-0.05586,0 -0.10586,0 -0.15,0c-0.96667,0 -1.76667,0.13333 -2.4,0.4c-0.63333,0.23333 -1,0.35 -1.1,0.35v0.25c-5.56276,1.33333 -11.76276,2 -18.6,2c-7.12826,0 -13.04492,-1.7 -17.75,-5.1l-0.4,-0.9c-0.09206,-0.01315 -0.32539,0.00352 -0.7,0.05c-0.7651,-0.60794 -1.49844,-1.27461 -2.2,-2c-0.60924,-0.63424 -1.19258,-1.31758 -1.75,-2.05c-0.63398,-0.78932 -1.23398,-1.63932 -1.8,-2.55c-1.53789,-2.46641 -2.73789,-5.09974 -3.6,-7.9c-0.46328,-1.45234 -0.82995,-2.96901 -1.1,-4.55c-0.4,-2.22917 -0.6,-4.5625 -0.6,-7c0,-0.40456 0,-0.80456 0,-1.2c0.16068,-0.20651 0.29401,-0.40651 0.4,-0.6c0.16667,-0.33346 0.25,-0.65013 0.25,-0.95c0,-1.1 -0.11667,-1.81667 -0.35,-2.15l-0.1,-0.1c0.17695,-2.04284 0.46029,-4.02617 0.85,-5.95c1.78568,-8.35937 5.75234,-15.20938 11.9,-20.55c7.53333,-6.53333 17.01667,-9.85 28.45,-9.95c10.59297,-0.12917 19.80964,2.45417 27.65,7.75c0.38789,-1.10378 0.80456,-2.40378 1.25,-3.9c0.25156,-0.84961 0.46823,-1.63294 0.65,-2.35c-8.35898,-5.43008 -18.10898,-8.13008 -29.25,-8.1c-12.83333,0.03333 -23.5,3.83333 -32,11.4c-6.41107,5.70612 -10.71107,12.92279 -12.9,21.65c-0.10651,0.50807 -0.22318,1.00807 -0.35,1.5c-1.45664,-0.98932 -2.73997,-2.20599 -3.85,-3.65c1.15951,-2.10495 2.17617,-4.33828 3.05,-6.7c1,-2.73333 1.5,-4.61667 1.5,-5.65c0,-1.03333 -0.23333,-1.61667 -0.7,-1.75c-0.7,0 -1.3,-0.08333 -1.8,-0.25c-1.43333,0.93333 -2.88333,3.31667 -4.35,7.15c-0.25573,0.67318 -0.50573,1.30651 -0.75,1.9c-0.52122,-1.06445 -1.07122,-2.24779 -1.65,-3.55c-1.33333,0.9 -2,2.31667 -2,4.25c0,0.81706 0.48333,2.13372 1.45,3.95c-0.42214,0.7776 -0.82214,1.3776 -1.2,1.8c-1.63333,1.9 -4.21667,4.11667 -7.75,6.65c-0.62253,0.44128 -1.22253,0.85794 -1.8,1.25c-0.43516,0.09336 -0.90182,0.21003 -1.4,0.35c-1.66862,0.49076 -3.05195,1.09076 -4.15,1.8c-0.08737,-0.32969 -0.18737,-0.66302 -0.3,-1M600.75,269.5c-12.33333,-0.5 -21.41667,3.03333 -27.25,10.6c-4.06667,5.26667 -6.1,11.31667 -6.1,18.15c0,7.1 1.63333,13.1 4.9,18c6.36667,9.56667 18.18333,14.35 35.45,14.35c8.96667,0 15.83333,-4.16667 20.6,-12.5c3.26667,-5.7 4.9,-11.13333 4.9,-16.3c0,-6.56667 -2.3,-12.9 -6.9,-19c-6.03333,-8 -14.56667,-12.43333 -25.6,-13.3M578.25,268.55c-2.71354,-2.74193 -4.81354,-4.59193 -6.3,-5.55c1.21992,1.72005 2.55326,2.97005 4,3.75c-1.22292,0.76836 -2.42292,1.60169 -3.6,2.5c-1.12969,0.87956 -2.22969,1.82956 -3.3,2.85c-1.59518,1.52318 -3.04518,3.15651 -4.35,4.9c-0.03333,-0.05898 -0.05,-0.10898 -0.05,-0.15c-0.62904,-0.08828 -1.36237,-0.05495 -2.2,0.1c-0.13151,-0.20417 -0.26484,-0.42083 -0.4,-0.65c0.83568,1.72799 2.20234,3.77799 4.1,6.15c0.29922,0.37578 0.58255,0.72578 0.85,1.05c3.35716,-6.87096 7.55716,-11.4043 12.6,-13.6c-0.09961,-0.09831 -0.19961,-0.19831 -0.3,-0.3c-0.3332,-0.32917 -0.6832,-0.67917 -1.05,-1.05M613.7,352.9c0.86445,0.11523 2.98112,0.1819 6.35,0.2c0.54128,0 1.10794,0 1.7,0c7.76667,0 14.08333,-0.43333 18.95,-1.3c6.16667,-1.06667 11.18333,-2.96667 15.05,-5.7c-0.43333,-0.9 -1.68333,-1.9 -3.75,-3c-4.49063,0 -12.89062,1.46667 -25.2,4.4c-0.11562,0.03841 -0.23229,0.07174 -0.35,0.1c-7.30768,1.75859 -13.15768,2.99193 -17.55,3.7c1.51211,0.81667 3.11211,1.35 4.8,1.6M677.5,309.25c1.86549,3.04648 4.33216,5.47982 7.4,7.3c4.54479,2.7 10.41146,4.05 17.6,4.05c4.06667,0 8.86667,-1.28333 14.4,-3.85c4.71589,-2.20078 8.69922,-4.91745 11.95,-8.15c1.57096,-1.53867 2.97096,-3.20534 4.2,-5c2.66667,-3.96667 4.63333,-7.53333 5.9,-10.7c1.53333,-3.73333 2.3,-7.35 2.3,-10.85c0,-3.7 -1.15,-7.3 -3.45,-10.8c-2.36667,-3.63333 -5.55,-6.55 -9.55,-8.75c-9.7,-5.3 -20.6,-5.1 -32.7,0.6c-8.4,4 -14.35,9.21667 -17.85,15.65c-2.6,4.73333 -3.9,10.26667 -3.9,16.6c0,5.26667 1.23333,9.9 3.7,13.9M763.5,290.75c1,1.3 1.81667,2.86667 2.45,4.7c0.6,1.7 0.95,3.33333 1.05,4.9c0.66667,-0.43333 1.41667,-0.8 2.25,-1.1h1.8c-1.64023,-3.2724 -4.19023,-6.18906 -7.65,-8.75c0.04349,0.08776 0.07682,0.17109 0.1,0.25M742,267.55c3.54518,3.19479 6.07852,6.77812 7.6,10.75c0.55417,-0.975 1.15417,-2.10833 1.8,-3.4c0.59036,-1.18073 1.09036,-2.23073 1.5,-3.15c-1.72305,-3.22214 -4.05638,-6.1888 -7,-8.9c-0.82383,0.93047 -1.80716,2.1138 -2.95,3.55l-0.95,1.15M770.8,356.3c-0.84922,1.4293 -2.23255,2.94596 -4.15,4.55c-3.96667,3.33333 -8.31667,5 -13.05,5c-1.3,0 -3.7,-0.28333 -7.2,-0.85c-3.56667,-0.6 -6.08333,-1.15 -7.55,-1.65h-3.5c-2.8,3.93333 -6.58333,7.65 -11.35,11.15c-1.95091,1.43203 -3.95091,2.71536 -6,3.85h26.1c4.80156,0.86549 9.06823,1.68216 12.8,2.45c1.13971,-1.37409 3.42305,-3.70742 6.85,-7c1.86979,-2.05443 3.38646,-4.00443 4.55,-5.85c2.03333,-3.10599 3.05,-5.88932 3.05,-8.35c0,-1.22682 -0.18333,-2.32682 -0.55,-3.3M814.45,455.5c-3.31068,-6.2582 -8.34401,-10.74154 -15.1,-13.45c-6.9,-2.76667 -14.21667,-3.21667 -21.95,-1.35c-7.93333,1.9 -14.41667,5.78333 -19.45,11.65c-5.56667,6.46667 -8.35,14.33333 -8.35,23.6c0,0.06667 0.1,1.51667 0.3,4.35c0.03151,0.28698 0.06484,0.57031 0.1,0.85c0.36602,3.00482 0.89935,5.77148 1.6,8.3c0.06875,0.24089 0.13542,0.47422 0.2,0.7c0.53854,1.75573 1.13854,3.3224 1.8,4.7c2.19792,-1.5 3.66458,-2.25 4.4,-2.25c0.96667,0 3.63333,0.55 8,1.65c0.31094,0.07643 0.61094,0.1431 0.9,0.2c-0.03333,0.44023 -0.05,0.8569 -0.05,1.25c0,0.73138 0.28333,1.93138 0.85,3.6c0.30456,0.19089 0.60456,0.37422 0.9,0.55c-0.19232,0.12826 -0.35898,0.29492 -0.5,0.5c0.48828,1.26367 1.03828,2.46367 1.65,3.6c0.4974,0.9263 1.03073,1.80964 1.6,2.65c4.1,6.16667 9.31667,9.25 15.65,9.25c0.36302,0 0.71302,-0.01667 1.05,-0.05c3.70482,-0.13242 6.47148,-1.08242 8.3,-2.85c0.03268,-0.03737 0.06602,-0.08737 0.1,-0.15c-0.65586,-0.90039 -1.27253,-1.86706 -1.85,-2.9c-1.5362,-2.74609 -2.6362,-5.49609 -3.3,-8.25c-0.01328,-0.125 -0.02995,-0.25833 -0.05,-0.4c-0.43333,-1.87148 -0.65,-3.75482 -0.65,-5.65c0,-6.86667 2.4,-11.73333 7.2,-14.6c4.26667,-2.56667 9.53333,-3.15 15.8,-1.75c6.16667,1.33333 11.43333,4.15 15.8,8.45c1.20091,1.18424 2.25091,2.40091 3.15,3.65c1.76068,2.49388 2.94401,5.12721 3.55,7.9c0.11224,0.49323 0.19557,0.97656 0.25,1.45c0.21849,-0.34518 0.43516,-0.71185 0.65,-1.1c0.07109,-0.12982 0.13776,-0.26315 0.2,-0.4c2.93333,-5.37969 4.4,-9.04635 4.4,-11c0,-0.09609 -0.01667,-0.19609 -0.05,-0.3c-0.17227,-1.2431 -1.43893,-3.25977 -3.8,-6.05c-1.03958,-1.21289 -1.87292,-2.24622 -2.5,-3.1c-1.09831,0.00521 -2.23164,0.12188 -3.4,0.35l-0.5,-3c0.09492,-0.1582 0.31159,-0.7082 0.65,-1.65c-2.24883,-2.17695 -4.34883,-4.01029 -6.3,-5.5c-1.9526,-1.51615 -4.0526,-2.91615 -6.3,-4.2c-0.3237,-0.17331 -0.65703,-0.35664 -1,-0.55c0.39453,-0.71042 0.77786,-1.64375 1.15,-2.8c0.16445,-0.49349 0.31445,-0.97682 0.45,-1.45v0c-1.19089,-0.96406 -2.74089,-2.2474 -4.65,-3.85c-0.27865,-0.1974 -0.57865,-0.3974 -0.9,-0.6M846.6,488.2c0,2.93333 -1.36667,7.25 -4.1,12.95c-1.35143,2.83815 -2.6681,5.05482 -3.95,6.65c-1.00339,1.27253 -1.98672,2.13919 -2.95,2.6c-0.5375,1.67109 -1.2875,3.25443 -2.25,4.75c-1.24792,1.91693 -2.78125,3.46693 -4.6,4.65c-0.06328,0.25586 -0.21328,0.50586 -0.45,0.75c-0.93516,1.14896 -3.18516,2.34896 -6.75,3.6c0.02135,0.67865 -0.02865,1.07865 -0.15,1.2c-0.37461,0.4849 -2.07461,0.80156 -5.1,0.95c-0.81992,0.06198 -1.73659,0.09531 -2.75,0.1c-0.9237,0.17917 -1.74036,0.27917 -2.45,0.3c-0.21406,-0.08555 -0.43073,-0.16888 -0.65,-0.25c-1.68216,-0.00443 -3.24883,-0.10443 -4.7,-0.3c-3.99479,-0.53047 -6.94479,-1.79714 -8.85,-3.8c-0.6543,-0.6543 -1.1543,-1.37096 -1.5,-2.15c-0.82174,0.38203 -1.68841,0.68203 -2.6,0.9h-0.05h-3c-0.19297,0.72383 -0.5763,2.75716 -1.15,6.1c0.76107,1.58424 2.11107,3.18424 4.05,4.8c3.54128,2.96927 8.17461,4.71927 13.9,5.25c2.46016,2.88763 4.79349,5.38763 7,7.5c2.11849,2.07904 4.11849,3.7957 6,5.15c0.25664,0.19922 0.50664,0.38255 0.75,0.55c6.06667,4.16667 12.66667,6.25 19.8,6.25c3.78073,0 7.2974,-0.4 10.55,-1.2c-0.64362,-0.88047 -1.37695,-1.8638 -2.2,-2.95c-0.6543,-0.85286 -1.2543,-1.65286 -1.8,-2.4c-2.10586,0.36667 -4.32253,0.55 -6.65,0.55c-6.4556,0 -12.2056,-1.78333 -17.25,-5.35c-1.25,-0.87995 -2.46667,-1.87995 -3.65,-3v0c-2.09284,-2.19753 -3.72617,-3.86419 -4.9,-5c0.10794,-0.00547 0.20794,-0.02214 0.3,-0.05c-0.88464,-0.82969 -1.86797,-1.81302 -2.95,-2.95c-0.82812,-0.87096 -1.57812,-1.67096 -2.25,-2.4c0.24232,0 0.47565,0 0.7,0c8.87799,0 16.39466,-1.73333 22.55,-5.2c5.14479,-2.84609 9.34479,-6.89609 12.6,-12.15c1.29284,-2.0957 2.37617,-4.1957 3.25,-6.3c1.96667,-4.62695 2.95,-9.27695 2.95,-13.95c0,-2.99349 -1.26667,-6.02682 -3.8,-9.1c-0.34388,-0.4474 -0.72721,-0.8974 -1.15,-1.35c-0.32057,-0.33893 -0.65391,-0.67227 -1,-1c0.44583,0.97656 0.7625,1.94323 0.95,2.9c0.16667,0.80208 0.25,1.60208 0.25,2.4M806.6,482.85c-3.74648,1.3112 -6.54648,3.09453 -8.4,5.35c-1.73333,2.20156 -2.6,4.8349 -2.6,7.9c0,1.38359 0.21667,2.81693 0.65,4.3c0.1181,0.33138 0.23477,0.64805 0.35,0.95c0.75339,2.08451 1.92005,4.26784 3.5,6.55c0.33789,0.49219 0.67122,0.95885 1,1.4c0.22865,0.03333 0.46198,0.05 0.7,0.05c0.53034,0.13255 0.79701,0.69922 0.8,1.7c0.30443,0.35677 0.60443,0.6901 0.9,1c-0.43333,-1.52617 -0.65,-3.64284 -0.65,-6.35c0,-1.68125 0.16667,-3.24792 0.5,-4.7c0.19635,-0.70716 0.42969,-1.39049 0.7,-2.05c0.51419,-1.26953 1.18086,-2.4362 2,-3.5c0.52096,-0.59583 1.08763,-1.1625 1.7,-1.7c2.9,-2.56667 6.48333,-3.81667 10.75,-3.75c1.37826,0.03281 2.67826,0.19948 3.9,0.5c-4.88542,-3.7306 -10.15208,-5.44727 -15.8,-5.15c0.03333,-0.66667 0.06667,-1.18333 0.1,-1.55c0.03333,-0.63333 0,-0.95 -0.1,-0.95M821.35,494.85c-2.20573,0.35833 -4.15573,0.85833 -5.85,1.5c-2.69661,1.07539 -4.74661,2.52539 -6.15,4.35c-0.33607,0.4444 -0.63607,0.91107 -0.9,1.4c-0.9,1.7 -1.35,4.31667 -1.35,7.85c0,0.8 1.4,2.23333 4.2,4.3c1.20352,0.88841 2.48685,1.83841 3.85,2.85h7.45c1.3,-0.8 3.13333,-2.88333 5.5,-6.25c1.17656,-1.68086 2.0599,-3.06419 2.65,-4.15c-0.8599,-1.9194 -1.64323,-3.55273 -2.35,-4.9c-0.38932,-0.73984 -0.78932,-1.42318 -1.2,-2.05c-1.71146,-2.57409 -3.64479,-4.20742 -5.8,-4.9c-0.01536,0.0056 -0.03203,0.0056 -0.05,0M683.2,383.75c-1.78581,-0.42513 -3.63581,-0.97513 -5.55,-1.65c-0.74115,-0.26133 -1.44115,-0.51133 -2.1,-0.75c-3.87122,-1.33333 -6.02122,-2 -6.45,-2c-1.14622,1.18581 -2.42956,2.36914 -3.85,3.55c-0.96745,0.81914 -2.00078,1.63581 -3.1,2.45c-3.02904,2.25768 -5.92904,3.87435 -8.7,4.85c0.20378,0.22982 0.40378,0.46315 0.6,0.7c2.82135,3.35247 4.95469,7.16914 6.4,11.45c1.11185,-1.1362 2.51185,-2.4362 4.2,-3.9c2.6,-2.2 6.08333,-4.98333 10.45,-8.35c0.13333,-0.1 1.41667,-1.3 3.85,-3.6c0.44622,-0.41003 0.89622,-0.79336 1.35,-1.15c0.86393,-0.59583 1.76393,-1.09583 2.7,-1.5c0.07656,-0.03255 0.14323,-0.06589 0.2,-0.1M647.85,416.2c0,-3.2 -0.53333,-6.16667 -1.6,-8.9c-1.3,-3.43333 -3.48333,-6.71667 -6.55,-9.85c-3.23333,-3.33333 -8.1,-5.86667 -14.6,-7.6c-8.86667,-2.4 -17.15,-1.61667 -24.85,2.35c-7.6,2.83333 -13.8,8.23333 -18.6,16.2c-4.1,6.83333 -6.15,13.4 -6.15,19.7c0,7.86667 3.73333,14.28333 11.2,19.25c5.9,3.9 11.58333,5.85 17.05,5.85c18.43333,0 31.25,-5.7 38.45,-17.1c3.76667,-5.96667 5.65,-12.6 5.65,-19.9M700.55,451.5c-2.06602,0.20833 -3.59935,0.825 -4.6,1.85c-1.95938,-0.7862 -3.47604,-1.25286 -4.55,-1.4c-5.3,-0.73333 -10.15,1.56667 -14.55,6.9c-0.69857,0.86992 -1.54857,1.86992 -2.55,3c-5.54336,2.99531 -10.56003,8.99531 -15.05,18c-1.6181,3.25716 -2.98477,6.40716 -4.1,9.45c0.86094,1.07018 2.09427,2.43685 3.7,4.1c-0.06732,0.25391 -0.13398,0.50391 -0.2,0.75c0.27617,0.23815 0.55951,0.47148 0.85,0.7l0.3,0.65c0,0.4 -0.51667,0.6 -1.55,0.6h-0.05c-0.06224,0.29909 -0.12891,0.59909 -0.2,0.9c-0.66667,3.60182 -1,7.50182 -1,11.7c0,5.06667 1.78333,9.7 5.35,13.9c4.95534,5.85625 12.47201,8.88958 22.55,9.1c0.36458,0 0.73125,0 1.1,0c8.13333,0 14.08333,-1.5 17.85,-4.5c2.33333,-1.9 3.5,-3.85 3.5,-5.85c0,-0.95664 -0.83333,-2.77331 -2.5,-5.45c-0.54167,-0.40833 -1.125,-0.925 -1.75,-1.55l-0.25,-1.15l0.05,-0.35c-0.59375,-0.84583 -1.24375,-1.7625 -1.95,-2.75c-0.12096,-0.17148 -0.2543,-0.35482 -0.4,-0.55c-1.00299,-1.41497 -2.18633,-3.03164 -3.55,-4.85c-1.03789,-1.33737 -2.17122,-2.78737 -3.4,-4.35l0.25,-0.75l0.3,-0.1c0.43333,-0.1 1.16667,-0.15 2.2,-0.15c2.52956,0 5.27956,2.06667 8.25,6.2c0.10534,0.15638 0.20534,0.30638 0.3,0.45c0.88841,1.28268 1.78841,2.73268 2.7,4.35c0.28281,0.49661 0.54948,0.99661 0.8,1.5c1.02734,0.16667 1.76068,0.25 2.2,0.25c2.45638,0 5.12305,-1.93333 8,-5.8c0.91341,-1.19792 1.84674,-2.59792 2.8,-4.2c0.38177,-0.77122 0.73177,-1.50456 1.05,-2.2c2.10729,0.8 3.87396,1.2 5.3,1.2c0.51484,0 0.98151,-0.01667 1.4,-0.05c1.4457,-3.11706 2.31237,-5.80039 2.6,-8.05c0.06667,-0.53555 0.1,-1.05221 0.1,-1.55c0,-1.57214 -0.33333,-3.30547 -1,-5.2c0.42839,-0.72383 0.77839,-1.62383 1.05,-2.7c0.46667,-1.8 0.7,-3.95 0.7,-6.45c0,-4.66667 -1.98333,-9.18333 -5.95,-13.55c-3.46667,-3.8 -7.81667,-6.88333 -13.05,-9.25c-5.03333,-2.26667 -9.38333,-3.2 -13.05,-2.8M645.9,505.75c0.17344,0.3901 0.37344,0.8401 0.6,1.35c-0.13333,0.43333 -0.3,0.7 -0.5,0.8c-0.1569,0.06979 -0.44023,0.11979 -0.85,0.15c-0.26667,1.24466 -0.4,2.46133 -0.4,3.65c0,9.2 1.43333,16.33333 4.3,21.4c5.03932,8.98451 14.28932,14.08451 27.75,15.3c-0.20443,0.29622 -0.42109,0.59622 -0.65,0.9c-1.41289,1.88385 -2.61289,3.43385 -3.6,4.65c0.21745,0.02292 0.41745,0.03958 0.6,0.05c-0.20729,0.24154 -0.42396,0.4582 -0.65,0.65c-0.42083,0.35716 -0.87083,0.69049 -1.35,1c-1.64648,1.12604 -3.61315,2.00937 -5.9,2.65c-3.23984,0.93333 -7.12318,1.4 -11.65,1.4c-5.18659,0 -9.83659,-0.66667 -13.95,-2c-0.36745,0.56302 -0.75078,1.14635 -1.15,1.75c-0.87891,1.31471 -1.66224,2.49805 -2.35,3.55c5.0875,1.8 10.95417,2.7 17.6,2.7c7,0 13.23333,-1.4 18.7,-4.2c0.98372,-0.51185 1.86706,-1.02852 2.65,-1.55c2.81276,-1.79492 4.37943,-3.57826 4.7,-5.35c1.23542,0.06667 2.50208,0.1 3.8,0.1c0.35638,0 0.70638,0 1.05,0c8.88828,-0.17565 15.72161,-2.49232 20.5,-6.95c2.83971,-2.64049 4.60638,-5.52383 5.3,-8.65c-1.39375,-0.49453 -3.02708,-0.87786 -4.9,-1.15c-0.67396,-0.05573 -1.32396,-0.10573 -1.95,-0.15c0.18815,-1.02539 0.25482,-2.12539 0.2,-3.3c-2.14193,1.04596 -4.64193,1.8293 -7.5,2.35c-3.0099,0.56667 -6.4099,0.85 -10.2,0.85c-1.08737,0 -2.15404,-0.03333 -3.2,-0.1c-12.47344,-0.61901 -21.35677,-5.05234 -26.65,-13.3c-3.16667,-4.9 -4.75,-10.38333 -4.75,-16.45c0,-2.66771 0.26667,-5.45104 0.8,-8.35c-0.01276,0.02005 -0.02943,0.03672 -0.05,0.05c-2.76667,1.86667 -4.51667,3.3 -5.25,4.3c-0.39779,0.54935 -0.76445,1.18268 -1.1,1.9M711.4,518.05c0.96667,2.26667 1.45,3.53333 1.45,3.8c0,3.3513 -1.16667,6.2513 -3.5,8.7c0.20182,0.35742 0.38516,0.74076 0.55,1.15c0.32813,0.86354 0.56146,1.64687 0.7,2.35c0.74115,0.30013 1.67448,0.68346 2.8,1.15c0.33581,1.75312 0.53581,3.51979 0.6,5.3c0.89089,0.4681 1.85755,0.93477 2.9,1.4c1.49844,0.66901 3.03177,1.26901 4.6,1.8c4.24062,3.52253 7.95729,6.23919 11.15,8.15c5.37044,3.26549 11.77044,6.08216 19.2,8.45c1.74063,0.58594 3.54063,1.13594 5.4,1.65c0.88021,-0.93164 1.73021,-1.84831 2.55,-2.75c13.04948,-13.84076 21.83281,-23.64076 26.35,-29.4c-0.60482,-2.425 -0.73815,-4.325 -0.4,-5.7c-2,0.66667 -3.5,1 -4.5,1c-0.39141,0 -1.09141,-0.08333 -2.1,-0.25c1.33424,-1.39922 2.41758,-2.51589 3.25,-3.35c-0.72344,-0.11797 -1.4401,-0.26797 -2.15,-0.45c-3.36471,-0.83763 -6.33138,-2.3543 -8.9,-4.55c-1.1099,1.99115 -2.8099,4.19115 -5.1,6.6c-5.23333,5.5 -10.73333,8.25 -16.5,8.25c-7,0 -14.45,-1.83333 -22.35,-5.5c-6.04128,-2.82721 -10.32461,-5.59388 -12.85,-8.3c-0.79453,0.2 -1.6112,0.3 -2.45,0.3c-0.26862,0 -0.53529,-0.01667 -0.8,-0.05c0.03581,0.0944 0.06914,0.17773 0.1,0.25M726.55,506.25c-1.0543,1.92253 -2.13763,3.58919 -3.25,5c0.73372,0.23333 1.41706,0.35 2.05,0.35c12.33047,0 22.2138,-2.11667 29.65,-6.35c0.14518,-0.06263 0.27852,-0.1293 0.4,-0.2c1.14948,-0.66823 2.71615,-1.75156 4.7,-3.25c-1.20378,-0.50599 -2.32044,-1.28932 -3.35,-2.35c-0.93372,0.71198 -2.03372,1.44531 -3.3,2.2c-4.19453,2.47227 -8.64453,3.9056 -13.35,4.3c-0.93893,0.1 -1.88893,0.15 -2.85,0.15l-9,-0.25c-0.37096,-0.2319 -0.73763,-0.4819 -1.1,-0.75c-0.15339,0.34128 -0.32005,0.67461 -0.5,1c-0.03438,0.0625 -0.06771,0.1125 -0.1,0.15M800.05,517c1.00273,0.78307 2.0694,1.43307 3.2,1.95c-1.07096,-0.61719 -2.08763,-1.33385 -3.05,-2.15c-0.03685,0.07552 -0.08685,0.14219 -0.15,0.2M801.6,577.1c-1.43333,-0.7 -8.18333,1.16667 -20.25,5.6c-3.04362,1.09818 -5.87695,2.04818 -8.5,2.85c0.1763,0.06328 0.34297,0.12995 0.5,0.2c2.79479,1.22578 5.76146,2.42578 8.9,3.6c1.60755,-0.58477 3.14089,-1.20143 4.6,-1.85c4.4,-1.96667 8.06667,-4.18333 11,-6.65c2.2,-2.23333 3.45,-3.48333 3.75,-3.75M785.1,593.75c-0.4776,0.90208 -0.9776,1.83542 -1.5,2.8c0.05117,-0.02747 0.08451,-0.06081 0.1,-0.1c2.72448,0.33333 5.85781,0.5 9.4,0.5c1.03333,0 1.76667,-0.11667 2.2,-0.35l0.3,-0.4c-2.73333,-0.66667 -4.96667,-1.43333 -6.7,-2.3c-1.18633,-0.70208 -2.16966,-1.26875 -2.95,-1.7c-0.27292,0.48711 -0.55625,1.00378 -0.85,1.55M735.6,591.05c-2.74896,0.1 -5.58229,0.15 -8.5,0.15c-4.16667,-0.13333 -7.95,-0.23333 -11.35,-0.3c-6.6,-0.16667 -10.56667,-0.15 -11.9,0.05c0.1,0.33333 0.41667,0.71667 0.95,1.15c0.33333,0.23333 0.85,0.6 1.55,1.1c0.5,0.1 3.96667,0.71667 10.4,1.85c6.43333,1.1 10.21667,1.65 11.35,1.65c1.43294,0 2.84961,-0.01667 4.25,-0.05c1.84414,-1.41159 4.12747,-3.32826 6.85,-5.75c-0.39505,0.01432 -0.81172,0.03099 -1.25,0.05c-0.61172,-0.33646 -1.22839,-0.58646 -1.85,-0.75c-0.18932,0.27214 -0.35599,0.55547 -0.5,0.85M643.5,594.65c11.04245,-0.07214 17.82578,-0.5388 20.35,-1.4c0.36667,-0.1 0.98333,-0.46667 1.85,-1.1c0.56667,-0.36667 1.58333,-0.6 3.05,-0.7c-1.9,-0.86667 -3.01667,-1.35 -3.35,-1.45c-1,-0.36667 -2.05,-0.55 -3.15,-0.55c-12.31562,0 -21.93229,-0.45 -28.85,-1.35c1.04753,0.78047 2.33086,1.6138 3.85,2.5c1,0.6 2.66667,1.68333 5,3.25c0.43633,0.29857 0.85299,0.56523 1.25,0.8M851.1,588.7c0.82747,0.03854 1.64414,0.08854 2.45,0.15c-1.54427,-1.3457 -3.46094,-3.11237 -5.75,-5.3c-0.16927,-0.16029 -0.33594,-0.32695 -0.5,-0.5c-2.98047,1.25586 -6.78047,2.72253 -11.4,4.4c-6.46667,2.36667 -10.65,3.95 -12.55,4.75c0.66667,0.5 1.75,0.75 3.25,0.75c9.01563,0 17.13229,-1.46667 24.35,-4.4c0.05625,0.05625 0.10625,0.10625 0.15,0.15M735.6,546.45c-3.38411,-2.75339 -6.20078,-5.10339 -8.45,-7.05c1.07747,0.2 2.14414,0.36667 3.2,0.5c3.56107,0.53333 7.1444,0.8 10.75,0.8c12.88034,0 23.34701,-3.13333 31.4,-9.4c1.13958,-0.84674 2.22292,-1.76341 3.25,-2.75c1.16667,-1.27565 2.21667,-2.42565 3.15,-3.45c-0.41654,1.1849 -0.89987,2.45156 -1.45,3.8c-0.08568,0.25716 -1.25234,3.04049 -3.5,8.35c-0.8819,0.54336 -1.7819,1.06003 -2.7,1.55c-0.16042,0.10612 -0.32708,0.20612 -0.5,0.3c-9.43945,5.06667 -19.27279,7.6 -29.5,7.6c-1.91341,0 -3.79674,-0.08333 -5.65,-0.25M806.05,451.95c-0.81445,-0.23984 -1.68112,-0.48984 -2.6,-0.75c-0.97161,-0.28086 -1.90495,-0.53086 -2.8,-0.75c-1.00729,-0.43945 -2.00729,-0.82279 -3,-1.15c0.25612,0.24505 0.52279,0.47839 0.8,0.7v0.05c-1.43333,-0.24505 -2.76667,-0.37839 -4,-0.4v0c-0.59245,-0.36276 -1.24245,-0.79609 -1.95,-1.3c-0.39987,0 -0.79987,0 -1.2,0c-3.09948,0 -6.03281,0.31667 -8.8,0.95c1.58346,1.51107 2.6668,2.7944 3.25,3.85c-0.54961,0.4319 -1.09961,0.86523 -1.65,1.3c-0.17292,0.02747 -0.35625,0.04414 -0.55,0.05c-0.27174,-0.30677 -0.55508,-0.65677 -0.85,-1.05c-1.2,-1.6 -2.01667,-2.6 -2.45,-3c-0.15352,-0.12734 -0.30352,-0.26068 -0.45,-0.4c-3.92878,1.29896 -7.49544,3.29896 -10.7,6c0.53698,0.86784 1.07031,1.60117 1.6,2.2c-0.68411,0.44206 -1.35078,0.90872 -2,1.4c-0.44076,-0.52643 -0.89076,-1.20977 -1.35,-2.05c-0.98451,0.96641 -1.93451,1.99974 -2.85,3.1c-0.4224,0.5181 -0.83906,1.05143 -1.25,1.6c-2.00768,2.67695 -3.55768,5.47695 -4.65,8.4c0.34036,0.68958 0.7737,1.28958 1.3,1.8c-0.22279,0.70456 -0.43945,1.42122 -0.65,2.15c-0.52969,-0.34284 -1.01302,-0.84284 -1.45,-1.5c-0.23607,0.8293 -0.43607,1.66263 -0.6,2.5c-0.92813,4.73646 -0.72813,9.20313 0.6,13.4c0.01706,0.05781 0.01706,0.10781 0,0.15c-0.19987,-0.39115 -0.39987,-0.79115 -0.6,-1.2c-0.06901,-0.14062 -0.13568,-0.29062 -0.2,-0.45c-0.22656,-1.21172 -0.4099,-2.67839 -0.55,-4.4c-0.23333,-2.36667 -0.35,-4.61667 -0.35,-6.75c0,-1.77005 0.21667,-3.53672 0.65,-5.3c-0.48919,-1.29531 -0.78919,-2.44531 -0.9,-3.45c0.45573,-1.48398 1.00573,-2.96732 1.65,-4.45c0.18555,1.2263 0.26888,2.79297 0.25,4.7c0.00469,0.03828 0.00469,0.07161 0,0.1c1.16719,-2.88112 2.93385,-5.74779 5.3,-8.6c0.19401,-0.2293 0.39401,-0.46263 0.6,-0.7c0.88672,-1.02422 1.82005,-1.99089 2.8,-2.9c-0.75625,-1.54323 -1.25625,-2.69323 -1.5,-3.45c0.46432,-0.40521 0.93099,-0.80521 1.4,-1.2c0.44883,0.71615 1.04883,1.76615 1.8,3.15c2.97253,-2.38047 6.28919,-4.24714 9.95,-5.6c-0.35703,-0.30964 -0.6737,-0.5763 -0.95,-0.8c-0.18125,-0.14779 -0.36458,-0.29779 -0.55,-0.45c-0.00846,-0.26471 -0.05846,-0.43138 -0.15,-0.5c-0.19635,-0.05612 -0.39635,-0.12279 -0.6,-0.2c-0.10117,-0.11029 -0.20117,-0.22695 -0.3,-0.35c0.7931,-0.21536 1.60977,-0.41536 2.45,-0.6c0.84089,0.48685 1.77422,1.15352 2.8,2c2.50599,-0.69167 5.15599,-1.175 7.95,-1.45c0.3224,0.01237 0.63906,0.02904 0.95,0.05c-0.63477,-0.47995 -1.15143,-0.89661 -1.55,-1.25c1.79323,0.11836 3.49323,0.33503 5.1,0.65c0.24128,0.15729 0.47461,0.32396 0.7,0.5c0.19701,0.15273 0.39701,0.3194 0.6,0.5c1.69987,0.19727 3.21654,0.44727 4.55,0.75c2.44648,1.03581 4.62982,2.38581 6.55,4.05c0.13867,0.1237 0.27201,0.24036 0.4,0.35M640.25,312.25c0.5,-2.8763 0.75,-5.8763 0.75,-9c0,-0.5668 -0.01667,-1.13346 -0.05,-1.7c1.72747,1.03333 5.66081,1.55 11.8,1.55c3.80013,0 7.38346,-0.9 10.75,-2.7c0.09023,-0.04167 0.17357,-0.09167 0.25,-0.15c0.01458,2.51549 0.04792,4.36549 0.1,5.55c0.02513,0.70508 0.05846,1.17174 0.1,1.4c0.19701,1.05677 0.71367,2.65677 1.55,4.8c-0.53242,0.45104 -1.08242,0.86771 -1.65,1.25c-3.1,2.06667 -7.18333,3.1 -12.25,3.1c-0.73333,0 -3.05,-0.41667 -6.95,-1.25l-4.75,-1c0.03854,-0.18125 0.07187,-0.36458 0.1,-0.55c0.1,-0.42096 0.18333,-0.8543 0.25,-1.3z" fill="#000000"/><path d="M683,383.85c-0.93607,0.40417 -1.83607,0.90417 -2.7,1.5c-0.45378,0.35664 -0.90378,0.73997 -1.35,1.15c-2.43333,2.3 -3.71667,3.5 -3.85,3.6c-4.36667,3.36667 -7.85,6.15 -10.45,8.35c-1.68815,1.4638 -3.08815,2.7638 -4.2,3.9c-1.44531,-4.28086 -3.57865,-8.09753 -6.4,-11.45c-0.19622,-0.23685 -0.39622,-0.47018 -0.6,-0.7c2.77096,-0.97565 5.67096,-2.59232 8.7,-4.85c1.09922,-0.81419 2.13255,-1.63086 3.1,-2.45c1.42044,-1.18086 2.70378,-2.36419 3.85,-3.55c0.42878,0 2.57878,0.66667 6.45,2c0.65885,0.23867 1.35885,0.48867 2.1,0.75c1.91419,0.67487 3.76419,1.22487 5.55,1.65c-0.05677,0.03411 -0.12344,0.06745 -0.2,0.1M768.3,367.95c-1.16354,1.84557 -2.68021,3.79557 -4.55,5.85c-3.42695,3.29258 -5.71029,5.62591 -6.85,7c-3.73177,-0.76784 -7.99844,-1.58451 -12.8,-2.45h-26.1c2.04909,-1.13464 4.04909,-2.41797 6,-3.85c4.76667,-3.5 8.55,-7.21667 11.35,-11.15h3.5c1.46667,0.5 3.98333,1.05 7.55,1.65c3.5,0.56667 5.9,0.85 7.2,0.85c4.73333,0 9.08333,-1.66667 13.05,-5c1.91745,-1.60404 3.30078,-3.1207 4.15,-4.55c0.36667,0.97318 0.55,2.07318 0.55,3.3c0,2.46068 -1.01667,5.24401 -3.05,8.35z" fill="#246f44"/><path d="M821.4,494.85c2.15521,0.69258 4.08854,2.32591 5.8,4.9c0.41068,0.62682 0.81068,1.31016 1.2,2.05c0.70677,1.34727 1.4901,2.9806 2.35,4.9c-0.5901,1.08581 -1.47344,2.46914 -2.65,4.15c-2.36667,3.36667 -4.2,5.45 -5.5,6.25h-7.45c-1.36315,-1.01159 -2.64648,-1.96159 -3.85,-2.85c-2.8,-2.06667 -4.2,-3.5 -4.2,-4.3c0,-3.53333 0.45,-6.15 1.35,-7.85c0.26393,-0.48893 0.56393,-0.9556 0.9,-1.4c1.40339,-1.82461 3.45339,-3.27461 6.15,-4.35c1.69427,-0.64167 3.64427,-1.14167 5.85,-1.5c0.01797,0.0056 0.03464,0.0056 0.05,0M806.05,495.45c-0.81914,1.0638 -1.48581,2.23047 -2,3.5c-0.27031,0.65951 -0.50365,1.34284 -0.7,2.05c-0.33333,1.45208 -0.5,3.01875 -0.5,4.7c0,2.70716 0.21667,4.82383 0.65,6.35c-0.29557,-0.3099 -0.59557,-0.64323 -0.9,-1c-0.00299,-1.00078 -0.26966,-1.56745 -0.8,-1.7c-0.23802,0 -0.47135,-0.01667 -0.7,-0.05c-0.32878,-0.44115 -0.66211,-0.90781 -1,-1.4c-1.57995,-2.28216 -2.74661,-4.46549 -3.5,-6.55c-0.11523,-0.30195 -0.2319,-0.61862 -0.35,-0.95c-0.43333,-1.48307 -0.65,-2.91641 -0.65,-4.3c0,-3.0651 0.86667,-5.69844 2.6,-7.9c1.23685,1.19857 2.80352,2.66523 4.7,4.4c1.22461,1.1151 2.27461,2.0651 3.15,2.85M758.05,481.85c-0.13333,1.55339 -0.2,3.17005 -0.2,4.85c0,0.07617 -0.01667,0.85951 -0.05,2.35c-1.32812,-4.19687 -1.52813,-8.66354 -0.6,-13.4c0.16393,-0.83737 0.36393,-1.6707 0.6,-2.5c0.43698,0.65716 0.92031,1.15716 1.45,1.5c-0.57383,2.23307 -0.97383,4.63307 -1.2,7.2M756.75,471.1c-0.43333,1.76328 -0.65,3.52995 -0.65,5.3c0,2.13333 0.11667,4.38333 0.35,6.75c0.1401,1.72161 0.32344,3.18828 0.55,4.4c-0.87214,-1.84518 -1.50547,-3.79518 -1.9,-5.85c-0.33333,-1.71563 -0.5,-3.49896 -0.5,-5.35c0,-2.90391 0.41667,-5.80391 1.25,-8.7c0.11081,1.00469 0.41081,2.15469 0.9,3.45M764.5,460.7c0.57956,0.42096 1.17956,0.77096 1.8,1.05c-0.95143,0.98815 -1.83477,2.07148 -2.65,3.25c-1.55677,2.22773 -2.80677,4.72773 -3.75,7.5c-0.5263,-0.51042 -0.95964,-1.11042 -1.3,-1.8c1.09232,-2.92305 2.64232,-5.72305 4.65,-8.4c0.41094,-0.54857 0.8276,-1.0819 1.25,-1.6M763.05,459.4c-2.36615,2.85221 -4.13281,5.71888 -5.3,8.6c0.00469,-0.02839 0.00469,-0.06172 0,-0.1c0.01888,-1.90703 -0.06445,-3.4737 -0.25,-4.7c0.63333,-1.37096 1.35,-2.73763 2.15,-4.1c0.4888,-0.83451 1.00547,-1.63451 1.55,-2.4c0.15625,0.33516 0.32292,0.68516 0.5,1.05c0.42305,0.6125 0.87305,1.1625 1.35,1.65z" fill="#343545"/><path d="M806.7,483.8c-0.03333,0.36667 -0.06667,0.88333 -0.1,1.55c5.64792,-0.29727 10.91458,1.4194 15.8,5.15c-1.22174,-0.30052 -2.52174,-0.46719 -3.9,-0.5c-4.26667,-0.06667 -7.85,1.18333 -10.75,3.75c-0.61237,0.5375 -1.17904,1.10417 -1.7,1.7c-0.87539,-0.7849 -1.92539,-1.7349 -3.15,-2.85c-1.89648,-1.73477 -3.46315,-3.20143 -4.7,-4.4c1.85352,-2.25547 4.65352,-4.0388 8.4,-5.35c0.1,0 0.13333,0.31667 0.1,0.95M766.3,461.75c-0.62044,-0.27904 -1.22044,-0.62904 -1.8,-1.05c0.91549,-1.10026 1.86549,-2.13359 2.85,-3.1c0.45924,0.84023 0.90924,1.52357 1.35,2.05c-0.83776,0.64583 -1.63776,1.34583 -2.4,2.1M799.55,450.2c-0.37721,-0.0556 -0.74388,-0.12227 -1.1,-0.2c-0.27721,-0.22161 -0.54388,-0.45495 -0.8,-0.7c0.99271,0.32721 1.99271,0.71055 3,1.15l-1.1,-0.25M788.1,451.35c-0.79844,0.58294 -1.58177,1.18294 -2.35,1.8c-0.5832,-1.0556 -1.66654,-2.33893 -3.25,-3.85c2.76719,-0.63333 5.70052,-0.95 8.8,-0.95c0.40013,0 0.80013,0 1.2,0c0.70755,0.50391 1.35755,0.93724 1.95,1.3c-0.60065,-0.0013 -1.18398,0.03203 -1.75,0.1l-4.1,1.25c-0.06784,0.04518 -0.15117,0.09518 -0.25,0.15c-0.01445,0.02526 -0.04779,0.04193 -0.1,0.05c-0.04583,0.05977 -0.09583,0.10977 -0.15,0.15M793.25,445.8l4.5,1.2c0.46484,0.1901 0.91484,0.37344 1.35,0.55c-1.33346,-0.30273 -2.85013,-0.55273 -4.55,-0.75c-0.20299,-0.1806 -0.40299,-0.34727 -0.6,-0.5c-0.22539,-0.17604 -0.45872,-0.34271 -0.7,-0.5M778,445.8c2.33424,-0.46667 4.83424,-0.7 7.5,-0.7c0.89883,0 1.78216,0.01667 2.65,0.05c0.39857,0.35339 0.91523,0.77005 1.55,1.25c-0.31094,-0.02096 -0.6276,-0.03763 -0.95,-0.05c-2.79401,0.275 -5.44401,0.75833 -7.95,1.45c-1.02578,-0.84648 -1.95911,-1.51315 -2.8,-2M766.35,451.15c2.67214,-2.14206 5.7388,-3.72539 9.2,-4.75c0.09883,0.12305 0.19883,0.23971 0.3,0.35c-0.02969,-0.01745 -0.06302,-0.03411 -0.1,-0.05c-0.9,0.3 -1.51667,0.55 -1.85,0.75c-0.53333,0.26667 -1.08333,0.76667 -1.65,1.5c0.26667,0.26667 0.4,0.48333 0.4,0.65l1.6,0.1c0.33333,0 0.81667,-0.2 1.45,-0.6c0.63333,-0.46667 0.95,-0.86667 0.95,-1.2c0,-0.16732 -0.01667,-0.31732 -0.05,-0.45c0.18542,0.15221 0.36875,0.30221 0.55,0.45c0.2763,0.2237 0.59297,0.49036 0.95,0.8c-3.66081,1.35286 -6.97747,3.21953 -9.95,5.6c-0.75117,-1.38385 -1.35117,-2.43385 -1.8,-3.15M769.1,456.05c3.20456,-2.70104 6.77122,-4.70104 10.7,-6c0.14648,0.13932 0.29648,0.27266 0.45,0.4c0.43333,0.4 1.25,1.4 2.45,3c0.29492,0.39323 0.57826,0.74323 0.85,1.05c-4.97643,0.36484 -9.25977,1.61484 -12.85,3.75c-0.52969,-0.59883 -1.06302,-1.33216 -1.6,-2.2M764.05,453.25c0.30313,-0.29336 0.60313,-0.59336 0.9,-0.9c0.24375,0.75677 0.74375,1.90677 1.5,3.45c-0.97995,0.90911 -1.91328,1.87578 -2.8,2.9c-0.20599,0.23737 -0.40599,0.4707 -0.6,0.7c-0.47695,-0.4875 -0.92695,-1.0375 -1.35,-1.65c-0.17708,-0.36484 -0.34375,-0.71484 -0.5,-1.05c0.09805,-0.13815 0.19805,-0.27148 0.3,-0.4z" fill="#485e84"/><path d="M775.75,446.7c0.03698,0.01589 0.07031,0.03255 0.1,0.05c0.20365,0.07721 0.40365,0.14388 0.6,0.2c0.09154,0.06862 0.14154,0.23529 0.15,0.5c0.03333,0.13268 0.05,0.28268 0.05,0.45c0,0.33333 -0.31667,0.73333 -0.95,1.2c-0.63333,0.4 -1.11667,0.6 -1.45,0.6l-1.6,-0.1c0,-0.16667 -0.13333,-0.38333 -0.4,-0.65c0.56667,-0.73333 1.11667,-1.23333 1.65,-1.5c0.33333,-0.2 0.95,-0.45 1.85,-0.75z" fill="#8fbbbe"/><path d="M731.25,344.75c1.74232,1.06471 3.89232,2.61471 6.45,4.65c0.07865,0.4026 0.21198,0.88594 0.4,1.45c0.57734,0.19987 1.29401,0.34987 2.15,0.45c0.58854,0.36667 1.03854,0.55 1.35,0.55c0.71029,0 1.29362,-0.13333 1.75,-0.4c1.1013,0.01797 2.31797,-0.01536 3.65,-0.1c2.00794,-0.13138 3.74128,-0.24805 5.2,-0.35c3.72292,-0.23333 5.65625,-0.35 5.8,-0.35c0.60052,-0.00898 1.18385,-0.00898 1.75,0c0.09701,0.01979 0.19701,0.01979 0.3,0c2.90404,0.14688 5.25404,0.68021 7.05,1.6c-0.54141,1.49896 -1.00807,2.68229 -1.4,3.55c-1.83333,4.03333 -6.03333,6.05 -12.6,6.05c-1.23333,0 -3.33333,-0.28333 -6.3,-0.85c-2.10859,-0.43125 -3.85859,-0.84792 -5.25,-1.25c-0.37331,-0.08242 -0.72331,-0.18242 -1.05,-0.3c-0.14036,-0.02552 -0.2737,-0.05885 -0.4,-0.1h-6c-1.65052,2.10807 -3.45052,4.10807 -5.4,6c-1.32591,1.30078 -2.72591,2.55078 -4.2,3.75c-0.74961,0.61654 -1.51628,1.21654 -2.3,1.8c-5.6625,4.22044 -11.72917,7.10378 -18.2,8.65c-2.80729,0.39336 -5.37396,0.77669 -7.7,1.15c-1.20964,0.1 -2.44297,0.15 -3.7,0.15c-1.70273,0 -4.33607,-0.45 -7.9,-1.35c-1.99753,-0.48346 -4.29753,-1.1168 -6.9,-1.9c-6.66667,-2.16667 -10.06667,-3.25 -10.2,-3.25c-1.53333,0 -2.76667,0.65 -3.7,1.95c-2.6,3.66667 -3.98333,5.6 -4.15,5.8c-0.43724,0.50156 -1.05391,1.00156 -1.85,1.5c-1.21172,0.81432 -2.86172,1.63099 -4.95,2.45c-0.94362,0.3707 -1.86029,0.68737 -2.75,0.95c-0.94701,-0.81654 -1.94701,-1.59987 -3,-2.35c-0.25417,-0.17982 -0.52083,-0.36315 -0.8,-0.55c-3.87461,-2.61693 -8.12461,-4.55026 -12.75,-5.8c-0.13867,-0.04557 -0.28867,-0.09557 -0.45,-0.15c0.62513,-0.63242 1.30846,-1.34909 2.05,-2.15c0.40091,-0.43047 0.78424,-0.84714 1.15,-1.25c2.63216,-2.69753 4.74883,-4.49753 6.35,-5.4c1.16667,-0.66667 2.43333,-1.53333 3.8,-2.6c0.0763,-0.05026 0.14297,-0.10026 0.2,-0.15c1.19701,-0.72174 2.84701,-1.38841 4.95,-2c0.33359,-0.07396 0.68359,-0.15729 1.05,-0.25c2.2,-0.56667 5.31667,-1.06667 9.35,-1.5c3.43333,-0.36667 5.43333,-0.7 6,-1c2.96667,-4.16667 6.5,-8.25 10.6,-12.25c8.23333,-8 16.2,-12 23.9,-12c11.36667,0 20.91667,2.38333 28.65,7.15z" fill="#91c53c"/></g></g></svg>