<svg version="1.1" xmlns="http://www.w3.org/2000/svg" xmlns:xlink="http://www.w3.org/1999/xlink" width="51.12539" height="63.74463" viewBox="0,0,51.12539,63.74463"><g transform="translate(-609.8501,-338.73526)"><g data-paper-data="{&quot;isPaintingLayer&quot;:true}" fill-rule="nonzero" stroke="none" stroke-width="1" stroke-linecap="round" stroke-linejoin="miter" stroke-miterlimit="4" stroke-dasharray="" stroke-dashoffset="0" style="mix-blend-mode: normal"><path d="M649.91549,339.92051c2.83333,0.83333 4.71667,2.08333 5.65,3.75c0.83333,1.5 0.98333,3.25 0.45,5.25c-0.73333,3.16667 -2.58333,5.76667 -5.55,7.8c-2.5,1.7 -5.55,2.75 -9.15,3.15c2.26667,0.9 4.75,2.03333 7.45,3.4c3.4,1.76667 5.86667,3.53333 7.4,5.3c1.4,1.63333 2.6,3.88333 3.6,6.75c1.1,3.36667 1.45,6.23333 1.05,8.6c-0.43333,2.46667 -1.63333,4.86667 -3.6,7.2c-1.23333,1.5 -3.25,3.35 -6.05,5.55c-3.23333,2.76667 -7.23333,4.55 -12,5.35c-4.03333,0.7 -8.45,0.6 -13.25,-0.3c-4.56667,-0.8 -7.93333,-2.28333 -10.1,-4.45c-1.83333,-1.83333 -2.98333,-4.1 -3.45,-6.8c-0.3,-1.5 -0.3,-2.93333 0,-4.3c0.33333,-1.5 1,-2.68333 2,-3.55c1.13333,-1 2.68333,-1.65 4.65,-1.95c1.7,-0.3 5.16667,-0.43333 10.4,-0.4c4.33333,0.06667 7.7,-0.36667 10.1,-1.3c-6.56667,-1.36667 -13.23333,-1.76667 -20,-1.2c-1.16667,0.1 -2.05,0.13333 -2.65,0.1c-0.96667,-0.06667 -1.78333,-0.28333 -2.45,-0.65c-1.43333,-0.8 -2.43333,-2.73333 -3,-5.8c-0.43333,-2.76667 -0.8,-6.35 -1.1,-10.75c-0.36667,-4.5 -0.51667,-8.08333 -0.45,-10.75c0.06667,-2.53333 0.6,-4.33333 1.6,-5.4c0.76667,-0.8 2.18333,-1.46667 4.25,-2c5,-1.3 10.05,-2.3 15.15,-3c7.8,-1.16667 14.15,-1.03333 19.05,0.4M617.06549,348.22051c-0.46667,0.06667 -0.81667,0.21667 -1.05,0.45c-0.26667,0.26667 -0.4,0.76667 -0.4,1.5c0.1,7.1 0.68333,14.28333 1.75,21.55c6.46667,-0.3 12.13333,-0.25 17,0.15c1.8,0.16667 3.21667,0.36667 4.25,0.6c1.53333,0.36667 2.83333,0.9 3.9,1.6c1.23333,0.83333 2.11667,1.95 2.65,3.35c0.6,1.43333 0.61667,2.78333 0.05,4.05c-0.8,1.73333 -2.61667,2.98333 -5.45,3.75c-2.7,0.73333 -6.05,1.1 -10.05,1.1c-3.5,-0.03333 -5.43333,-0.05 -5.8,-0.05c-2.2,0.06667 -4.08333,0.35 -5.65,0.85c-0.4,1 -0.4,2.08333 0,3.25c0.36667,1.06667 1,2 1.9,2.8c1.33333,1.16667 3.36667,2.03333 6.1,2.6c5.43333,0.86667 9.81667,0.9 13.15,0.1c3.7,-0.86667 7.3,-2.85 10.8,-5.95c2.73333,-2.36667 4.33333,-4.73333 4.8,-7.1c0.36667,-2.03333 -0.08333,-4.41667 -1.35,-7.15c-0.63333,-1.4 -1.41667,-2.58333 -2.35,-3.55c-0.9,-0.96667 -2.48333,-2.05 -4.75,-3.25c-2.93333,-1.53333 -5.46667,-2.65 -7.6,-3.35c-2.86667,-0.96667 -5.55,-1.36667 -8.05,-1.2c-0.66667,0.06667 -1.16667,0.11667 -1.5,0.15c-0.63333,0.03333 -1.15,0.03333 -1.55,0c-1.26667,-0.13333 -2.18333,-0.55 -2.75,-1.25c-0.56667,-0.73333 -0.78333,-1.8 -0.65,-3.2c0.23333,-1.66667 0.85,-2.88333 1.85,-3.65c0.73333,-0.56667 2.16667,-0.95 4.3,-1.15c1.66667,-0.13333 4.73333,-0.56667 9.2,-1.3c1.56667,-0.23333 2.71667,-0.43333 3.45,-0.6c1.3,-0.3 2.4,-0.7 3.3,-1.2c1.1,-0.56667 1.98333,-1.31667 2.65,-2.25c0.76667,-1 1.15,-2.06667 1.15,-3.2c-2.2,-1.3 -5.26667,-1.95 -9.2,-1.95c-3.63333,0 -7.66667,0.36667 -12.1,1.1c-2.73333,0.43333 -6.73333,1.23333 -12,2.4z" fill="#000000"/><path d="M650.36549,346.67051c0,1.13333 -0.38333,2.2 -1.15,3.2c-0.66667,0.93333 -1.55,1.68333 -2.65,2.25c-0.9,0.5 -2,0.9 -3.3,1.2c-0.73333,0.16667 -1.88333,0.36667 -3.45,0.6c-4.46667,0.73333 -7.53333,1.16667 -9.2,1.3c-2.13333,0.2 -3.56667,0.58333 -4.3,1.15c-1,0.76667 -1.61667,1.98333 -1.85,3.65c-0.13333,1.4 0.08333,2.46667 0.65,3.2c0.56667,0.7 1.48333,1.11667 2.75,1.25c0.4,0.03333 0.91667,0.03333 1.55,0c0.33333,-0.03333 0.83333,-0.08333 1.5,-0.15c2.5,-0.16667 5.18333,0.23333 8.05,1.2c2.13333,0.7 4.66667,1.81667 7.6,3.35c2.26667,1.2 3.85,2.28333 4.75,3.25c0.93333,0.96667 1.71667,2.15 2.35,3.55c1.26667,2.73333 1.71667,5.11667 1.35,7.15c-0.46667,2.36667 -2.06667,4.73333 -4.8,7.1c-3.5,3.1 -7.1,5.08333 -10.8,5.95c-3.33333,0.8 -7.71667,0.76667 -13.15,-0.1c-2.73333,-0.56667 -4.76667,-1.43333 -6.1,-2.6c-0.9,-0.8 -1.53333,-1.73333 -1.9,-2.8c-0.4,-1.16667 -0.4,-2.25 0,-3.25c1.56667,-0.5 3.45,-0.78333 5.65,-0.85c0.36667,0 2.3,0.01667 5.8,0.05c4,0 7.35,-0.36667 10.05,-1.1c2.83333,-0.76667 4.65,-2.01667 5.45,-3.75c0.56667,-1.26667 0.55,-2.61667 -0.05,-4.05c-0.53333,-1.4 -1.41667,-2.51667 -2.65,-3.35c-1.06667,-0.7 -2.36667,-1.23333 -3.9,-1.6c-1.03333,-0.23333 -2.45,-0.43333 -4.25,-0.6c-4.86667,-0.4 -10.53333,-0.45 -17,-0.15c-1.06667,-7.26667 -1.65,-14.45 -1.75,-21.55c0,-0.73333 0.13333,-1.23333 0.4,-1.5c0.23333,-0.23333 0.58333,-0.38333 1.05,-0.45c5.26667,-1.16667 9.26667,-1.96667 12,-2.4c4.43333,-0.73333 8.46667,-1.1 12.1,-1.1c3.93333,0 7,0.65 9.2,1.95z" fill="#ffffff"/></g></g></svg>