<svg version="1.1" xmlns="http://www.w3.org/2000/svg" xmlns:xlink="http://www.w3.org/1999/xlink" width="136.26329" height="80.07473" viewBox="0,0,136.26329,80.07473"><g transform="translate(-576.69392,-320.46587)"><g data-paper-data="{&quot;isPaintingLayer&quot;:true}" fill-rule="nonzero" stroke="none" stroke-width="1" stroke-linecap="butt" stroke-linejoin="miter" stroke-miterlimit="10" stroke-dasharray="" stroke-dashoffset="0" style="mix-blend-mode: normal"><path d="M592.90721,373.06787c-3.63333,1.1 -7.41667,1.61667 -11.35,1.55c2.83333,-1.66667 6.31667,-3.08333 10.45,-4.25c1.7,-0.5 5.36667,-1.36667 11,-2.6c-2.83333,2.33333 -6.2,4.1 -10.1,5.3M613.60721,367.41787c0.96667,-0.13333 1.86667,-0.25 2.7,-0.35c1.86667,-0.2 3.3,-0.26667 4.3,-0.2c0.33333,0.7 1.88333,3.61667 4.65,8.75c-1.6,-0.46667 -2.81667,-0.81667 -3.65,-1.05c-1.43333,-0.4 -2.66667,-0.48333 -3.7,-0.25c-0.16667,0.23333 -0.33333,0.46667 -0.5,0.7c-1.1,1.46667 -2.33333,3.45 -3.7,5.95c-1.83333,3.3 -3.15,5.55 -3.95,6.75c-0.83333,-7.4 -1.9,-14.06667 -3.2,-20c1.66667,0.2 4.01667,0.1 7.05,-0.3M618.65721,329.86787c-0.26667,11.63333 0.85,22.31667 3.35,32.05c-1.33333,0.03333 -3.18333,0.13333 -5.55,0.3c-2.56667,0.2 -4.41667,0.31667 -5.55,0.35c-0.86667,-1.36667 -1.56667,-3.26667 -2.1,-5.7c-0.9,-4 -1.35,-6.01667 -1.35,-6.05c-0.8,-3.46667 -1.33333,-6.08333 -1.6,-7.85c-0.46667,-3.1 -0.28333,-5.71667 0.55,-7.85c1.33333,-1.4 3.25,-2.51667 5.75,-3.35c1.43333,-0.5 3.6,-1.13333 6.5,-1.9M645.05721,364.71787c5.53333,-0.3 10.05,-0.2 13.55,0.3c-1.13333,1.3 -2.88333,3.08333 -5.25,5.35c-0.4,-0.03333 -0.8,-0.05 -1.2,-0.05c-2.43333,-1.43333 -4.8,-3.3 -7.1,-5.6M671.90721,374.96787c-0.03333,1.1 -0.23333,2.75 -0.6,4.95c-0.36667,2.13333 -0.56667,3.76667 -0.6,4.9c0.26667,0.8 0.96667,1.66667 2.1,2.6c1.3,1.03333 2.11667,1.83333 2.45,2.4c-1.23333,1.1 -2.83333,2.06667 -4.8,2.9c-0.9,0.36667 -2.66667,0.96667 -5.3,1.8c-4.5,1.2 -9.5,1.75 -15,1.65c-4.16667,-0.06667 -9.16667,-0.55 -15,-1.45c-0.93607,-0.16797 -1.9694,-0.41797 -3.1,-0.75l-14.3,-5.05c-1.08164,-0.38568 -1.93164,-0.66901 -2.55,-0.85c1.83333,-3.16667 3.48333,-6.33333 4.95,-9.5c1,0.2 2.5,0.53333 4.5,1c1.8,0.4 3.31667,0.61667 4.55,0.65c0.73333,0.2 1.26667,-0.13333 1.6,-1c0.3,-0.83333 0.25,-1.51667 -0.15,-2.05c-0.9,-1.6 -2.06667,-3.43333 -3.5,-5.5c-1.66667,-2.33333 -2.91667,-4.1 -3.75,-5.3c1.7,-0.2 4.23333,-0.5 7.6,-0.9c2.93333,-0.3 5.5,-0.36667 7.7,-0.2l6.35,5.5c2.56667,2.23333 4.91667,3.71667 7.05,4.45c1.8,-0.1 3.63333,-1.08333 5.5,-2.95c0.73333,-0.73333 1.38333,-1.38333 1.95,-1.95c1.6,-1.6 2.48333,-2.46667 2.65,-2.6c1.26667,0.7 2.5,1.46667 3.7,2.3c2.1,1.43333 4.1,3.08333 6,4.95M646.40721,375.46787c-0.63333,-1.2 -1.33333,-2.08333 -2.1,-2.65c-1.06667,-0.8 -2,-0.7 -2.8,0.3c-0.63333,1.6 -0.93333,3.5 -0.9,5.7c0,1.43333 0.18333,3.38333 0.55,5.85c0.16667,1.3 1.1,1.98333 2.8,2.05c1.7,0.03333 2.6,-0.63333 2.7,-2c0.56667,-3.86667 0.48333,-6.95 -0.25,-9.25M657.45721,373.31787c-0.23333,4.4 -0.18333,8.78333 0.15,13.15c0.46667,0.1 1.16667,0.28333 2.1,0.55c0.83333,0.1 1.46667,-0.16667 1.9,-0.8c0.76667,-6.1 0.4,-11.3 -1.1,-15.6l-3.05,2.7M680.40721,357.61787c-0.3,0.96667 -0.11667,1.68333 0.55,2.15c2.43333,2.2 4.38333,4.11667 5.85,5.75c1.96667,2.23333 3.51667,4.46667 4.65,6.7c2.47734,4.89193 3.76068,10.49193 3.85,16.8c0.00391,0.39727 0.00391,0.79727 0,1.2c-0.37526,-0.40286 -0.75859,-0.80286 -1.15,-1.2c-2.77526,-2.95547 -5.55859,-5.75547 -8.35,-8.4c-6.86667,-6.56667 -13.68333,-12.21667 -20.45,-16.95c2.56667,-3.33333 4.43333,-6.31667 5.6,-8.95c-1.5,0.4 -3.05,1.35 -4.65,2.85c-1.73333,1.8 -3.05,3.08333 -3.95,3.85c-2.03333,-0.73333 -4,-1.25 -5.9,-1.55c2.63333,-3.4 6.63333,-7.9 12,-13.5c1.26667,-1.36667 2.61667,-2.78333 4.05,-4.25c2.2,-2.2 4.05,-3.88333 5.55,-5.05c2.16667,-1.73333 4.3,-3.01667 6.4,-3.85c2.6,-0.9 5.5,0.28333 8.7,3.55c2.66667,2.8 5.23333,6.1 7.7,9.9c1.93333,3.03333 3.98333,6.68333 6.15,10.95c-5.53333,-0.56667 -9.7,-0.98333 -12.5,-1.25c-4.93333,-0.46667 -9.1,-0.53333 -12.5,-0.2c-0.8,0 -1.33333,0.48333 -1.6,1.45M654.00721,360.56787c-3,-0.06667 -7.51667,-0.1 -13.55,-0.1c-1.53333,-1.73333 -2.68333,-3.01667 -3.45,-3.85c-1.36667,-1.46667 -2.61667,-2.63333 -3.75,-3.5c-1.7,0.1 -2.58333,0.96667 -2.65,2.6c0.43333,0.76667 1,1.65 1.7,2.65c0.43333,0.6 1.05,1.46667 1.85,2.6l-8.55,0.4c-1.6,-7.83333 -2.56667,-17.06667 -2.9,-27.7c0,-1.1 0,-1.91667 0,-2.45c0,-1.03333 0.11667,-1.86667 0.35,-2.5c1.76667,-0.53333 3.93333,-0.98333 6.5,-1.35c1.46667,-0.2 3.65,-0.48333 6.55,-0.85c9.5,-0.76667 15.95,-1.2 19.35,-1.3c7.23333,-0.2 13.65,0.2 19.25,1.2l0.3,8.15c-9,7.8 -16,16.46667 -21,26z" data-paper-data="{&quot;index&quot;:null}" fill="#31b0d1"/><path d="M684.60721,329.11787c2.4,-0.56667 4.5,-0.31667 6.3,0.75c3,1.6 5.88333,4.08333 8.65,7.45c1.4,1.66667 3.63333,4.8 6.7,9.4c1.96667,3.33333 3.33333,5.8 4.1,7.4c1.33333,2.83333 2.2,5.5 2.6,8c-1.3,0.66667 -2.9,0.9 -4.8,0.7c-2.2,-0.33333 -3.85,-0.56667 -4.95,-0.7c-3.03333,-0.5 -7.61667,-0.88333 -13.75,-1.15c3.83333,3.96667 6.68333,8.71667 8.55,14.25c1.51563,4.43464 2.28229,9.03464 2.3,13.8c0.01406,0.89414 -0.0026,1.79414 -0.05,2.7c-0.05951,0.80273 -0.17617,2.0694 -0.35,3.8c-0.01172,0.2099 -0.02839,0.42656 -0.05,0.65c-0.36667,1.7 -1.25,2.75 -2.65,3.15c-0.7,-0.13333 -1.38333,-0.53333 -2.05,-1.2c-0.7,-0.83333 -1.23333,-1.45 -1.6,-1.85c-0.11523,-0.15365 -0.2319,-0.30365 -0.35,-0.45c-1.67148,-2.19336 -3.62148,-4.46003 -5.85,-6.8c-0.75026,-0.79154 -1.53359,-1.59154 -2.35,-2.4c-2.16667,-2.1 -5.35,-5.01667 -9.55,-8.75l-0.4,5.75c2.23333,1.96667 3.38333,2.98333 3.45,3.05c1.16667,1.33333 1.55,2.71667 1.15,4.15c-0.53333,1.43333 -1.6,2.66667 -3.2,3.7c-0.86667,0.56667 -2.36667,1.3 -4.5,2.2c-7,2.9 -15.06667,4.15 -24.2,3.75c-4.49818,-0.20547 -9.73151,-0.87214 -15.7,-2c-6.86667,-0.63333 -13.13333,-2.81667 -18.8,-6.55l-2,2.7c-0.04922,0.09323 -0.09922,0.17656 -0.15,0.25c-0.93333,1.06667 -1.96667,1.48333 -3.1,1.25c-0.83333,-0.2 -1.45,-0.78333 -1.85,-1.75c-0.16667,-0.4 -0.36667,-1.26667 -0.6,-2.6c-0.63333,-4.23333 -1.43333,-10.35 -2.4,-18.35c-7.53333,3.26667 -14.23333,4.91667 -20.1,4.95c-1.5,-0.06667 -2.66667,-0.23333 -3.5,-0.5c-1.3,-0.4 -2.23333,-1.08333 -2.8,-2.05c-0.33333,-1.5 0.65,-2.98333 2.95,-4.45c3.63333,-2.06667 7.86667,-3.71667 12.7,-4.95c3.63333,-0.9 8.11667,-1.66667 13.45,-2.3c-1.6,-5.3 -2.76667,-9.65 -3.5,-13.05c-1.06667,-4.86667 -1.63333,-9.33333 -1.7,-13.4c-0.16667,-2.33333 0.65,-4.43333 2.45,-6.3c1.5,-1.56667 3.48333,-2.8 5.95,-3.7c11.1,-3.93333 22.1,-6.11667 33,-6.55c6.53333,-0.43333 11.71667,-0.65 15.55,-0.65c5.73333,-0.03333 10.9,0.35 15.5,1.15c2.93333,0.63333 4.75,1.78333 5.45,3.45c0.23333,0.9 0.31667,1.98333 0.25,3.25c-0.03333,0.73333 -0.11667,1.83333 -0.25,3.3c2.36667,-1.3 4.38333,-2.13333 6.05,-2.5M674.70721,326.41787c-5.6,-1 -12.01667,-1.4 -19.25,-1.2c-3.4,0.1 -9.85,0.53333 -19.35,1.3c-2.9,0.36667 -5.08333,0.65 -6.55,0.85c-2.56667,0.36667 -4.73333,0.81667 -6.5,1.35c-0.23333,0.63333 -0.35,1.46667 -0.35,2.5c0,0.53333 0,1.35 0,2.45c0.33333,10.63333 1.3,19.86667 2.9,27.7l8.55,-0.4c-0.8,-1.13333 -1.41667,-2 -1.85,-2.6c-0.7,-1 -1.26667,-1.88333 -1.7,-2.65c0.06667,-1.63333 0.95,-2.5 2.65,-2.6c1.13333,0.86667 2.38333,2.03333 3.75,3.5c0.76667,0.83333 1.91667,2.11667 3.45,3.85c6.03333,0 10.55,0.03333 13.55,0.1c5,-9.53333 12,-18.2 21,-26l-0.3,-8.15M682.00721,356.16787c3.4,-0.33333 7.56667,-0.26667 12.5,0.2c2.8,0.26667 6.96667,0.68333 12.5,1.25c-2.16667,-4.26667 -4.21667,-7.91667 -6.15,-10.95c-2.46667,-3.8 -5.03333,-7.1 -7.7,-9.9c-3.2,-3.26667 -6.1,-4.45 -8.7,-3.55c-2.1,0.83333 -4.23333,2.11667 -6.4,3.85c-1.5,1.16667 -3.35,2.85 -5.55,5.05c-1.43333,1.46667 -2.78333,2.88333 -4.05,4.25c-5.36667,5.6 -9.36667,10.1 -12,13.5c1.9,0.3 3.86667,0.81667 5.9,1.55c0.9,-0.76667 2.21667,-2.05 3.95,-3.85c1.6,-1.5 3.15,-2.45 4.65,-2.85c-1.16667,2.63333 -3.03333,5.61667 -5.6,8.95c6.76667,4.73333 13.58333,10.38333 20.45,16.95c2.79141,2.64453 5.57474,5.44453 8.35,8.4c0.39141,0.39714 0.77474,0.79714 1.15,1.2c0.00391,-0.40273 0.00391,-0.80273 0,-1.2c-0.08932,-6.30807 -1.37266,-11.90807 -3.85,-16.8c-1.13333,-2.23333 -2.68333,-4.46667 -4.65,-6.7c-1.46667,-1.63333 -3.41667,-3.55 -5.85,-5.75c-0.66667,-0.46667 -0.85,-1.18333 -0.55,-2.15c0.26667,-0.96667 0.8,-1.45 1.6,-1.45M665.90721,370.01787c-1.2,-0.83333 -2.43333,-1.6 -3.7,-2.3c-0.16667,0.13333 -1.05,1 -2.65,2.6c-0.56667,0.56667 -1.21667,1.21667 -1.95,1.95c-1.86667,1.86667 -3.7,2.85 -5.5,2.95c-2.13333,-0.73333 -4.48333,-2.21667 -7.05,-4.45l-6.35,-5.5c-2.2,-0.16667 -4.76667,-0.1 -7.7,0.2c-3.36667,0.4 -5.9,0.7 -7.6,0.9c0.83333,1.2 2.08333,2.96667 3.75,5.3c1.43333,2.06667 2.6,3.9 3.5,5.5c0.4,0.53333 0.45,1.21667 0.15,2.05c-0.33333,0.86667 -0.86667,1.2 -1.6,1c-1.23333,-0.03333 -2.75,-0.25 -4.55,-0.65c-2,-0.46667 -3.5,-0.8 -4.5,-1c-1.46667,3.16667 -3.11667,6.33333 -4.95,9.5c0.61836,0.18099 1.46836,0.46432 2.55,0.85l14.3,5.05c1.1306,0.33203 2.16393,0.58203 3.1,0.75c5.83333,0.9 10.83333,1.38333 15,1.45c5.5,0.1 10.5,-0.45 15,-1.65c2.63333,-0.83333 4.4,-1.43333 5.3,-1.8c1.96667,-0.83333 3.56667,-1.8 4.8,-2.9c-0.33333,-0.56667 -1.15,-1.36667 -2.45,-2.4c-1.13333,-0.93333 -1.83333,-1.8 -2.1,-2.6c0.03333,-1.13333 0.23333,-2.76667 0.6,-4.9c0.36667,-2.2 0.56667,-3.85 0.6,-4.95c-1.9,-1.86667 -3.9,-3.51667 -6,-4.95M653.35721,370.36787c2.36667,-2.26667 4.11667,-4.05 5.25,-5.35c-3.5,-0.5 -8.01667,-0.6 -13.55,-0.3c2.3,2.3 4.66667,4.16667 7.1,5.6c0.23333,0.16667 0.48333,0.31667 0.75,0.45c0.13333,-0.13333 0.28333,-0.26667 0.45,-0.4M612.15721,331.76787c-2.5,0.83333 -4.41667,1.95 -5.75,3.35c-0.83333,2.13333 -1.01667,4.75 -0.55,7.85c0.26667,1.76667 0.8,4.38333 1.6,7.85c0,0.03333 0.45,2.05 1.35,6.05c0.53333,2.43333 1.23333,4.33333 2.1,5.7c1.13333,-0.03333 2.98333,-0.15 5.55,-0.35c2.36667,-0.16667 4.21667,-0.26667 5.55,-0.3c-2.5,-9.73333 -3.61667,-20.41667 -3.35,-32.05c-2.9,0.76667 -5.06667,1.4 -6.5,1.9M606.55721,367.71787c1.3,5.93333 2.36667,12.6 3.2,20c0.8,-1.2 2.11667,-3.45 3.95,-6.75c1.36667,-2.5 2.6,-4.48333 3.7,-5.95c0.16667,-0.23333 0.33333,-0.46667 0.5,-0.7c1.03333,-0.23333 2.26667,-0.15 3.7,0.25c0.83333,0.23333 2.05,0.58333 3.65,1.05c-2.76667,-5.13333 -4.31667,-8.05 -4.65,-8.75c-1,-0.06667 -2.43333,0 -4.3,0.2c-0.83333,0.1 -1.73333,0.21667 -2.7,0.35c-3.03333,0.4 -5.38333,0.5 -7.05,0.3M603.00721,367.76787c-5.63333,1.23333 -9.3,2.1 -11,2.6c-4.13333,1.16667 -7.61667,2.58333 -10.45,4.25c3.93333,0.06667 7.71667,-0.45 11.35,-1.55c3.9,-1.2 7.26667,-2.96667 10.1,-5.3M660.50721,370.61787c1.5,4.3 1.86667,9.5 1.1,15.6c-0.43333,0.63333 -1.06667,0.9 -1.9,0.8c-0.93333,-0.26667 -1.63333,-0.45 -2.1,-0.55c-0.33333,-4.36667 -0.38333,-8.75 -0.15,-13.15l3.05,-2.7M643.95721,386.71787c-1.7,-0.06667 -2.63333,-0.75 -2.8,-2.05c-0.36667,-2.46667 -0.55,-4.41667 -0.55,-5.85c-0.03333,-2.2 0.26667,-4.1 0.9,-5.7c0.8,-1 1.73333,-1.1 2.8,-0.3c0.76667,0.56667 1.46667,1.45 2.1,2.65c0.73333,2.3 0.81667,5.38333 0.25,9.25c-0.1,1.36667 -1,2.03333 -2.7,2z" data-paper-data="{&quot;index&quot;:null}" fill="#000000"/><path d="M652.15721,370.31787c0.4,0 0.8,0.01667 1.2,0.05c-0.16667,0.13333 -0.31667,0.26667 -0.45,0.4c-0.26667,-0.13333 -0.51667,-0.28333 -0.75,-0.45z" data-paper-data="{&quot;index&quot;:null}" fill="#0091ee"/></g></g></svg>