<svg version="1.1" xmlns="http://www.w3.org/2000/svg" xmlns:xlink="http://www.w3.org/1999/xlink" width="354.5" height="494.52529" viewBox="0,0,354.5,494.52529"><g transform="translate(-531.5,-130.32471)"><g data-paper-data="{&quot;isPaintingLayer&quot;:true}" fill-rule="nonzero" stroke="none" stroke-width="1" stroke-linecap="butt" stroke-linejoin="miter" stroke-miterlimit="10" stroke-dasharray="" stroke-dashoffset="0" style="mix-blend-mode: normal"><path d="M543.05,229.75c0.79362,3.58802 2.14362,7.45469 4.05,11.6c2.83333,6.2 5.71667,10.45 8.65,12.75c0.06042,0.04844 0.11042,0.09844 0.15,0.15c-0.76667,2.73151 -1.15,5.14818 -1.15,7.25c0.2,3.56667 0.86667,7.05 2,10.45c0.19219,0.5737 0.39219,1.1237 0.6,1.65c-2.47982,0.45521 -4.74648,1.07187 -6.8,1.85c-2.80625,-4.02891 -4.75625,-7.36224 -5.85,-10c-1.96667,-4.8 -2.95,-12.36667 -2.95,-22.7c0,-4.04622 0.43333,-8.37956 1.3,-13M744.15,243.75c-0.22109,-0.11146 -0.43776,-0.22812 -0.65,-0.35c0,-0.33542 0,-0.68542 0,-1.05c0,-5.6 -5.15,-13.83333 -15.45,-24.7c-9,-9.53333 -16.51667,-15.96667 -22.55,-19.3c-12.63333,-6 -23.81667,-3.61667 -33.55,7.15c-3.53333,3.9 -6.45,8.46667 -8.75,13.7c-1.22135,2.81523 -2.07135,5.26523 -2.55,7.35c-1.51771,-2.29388 -3.36771,-4.34388 -5.55,-6.15c-9.63333,-7.9 -22.58333,-9 -38.85,-3.3c-10,3.53333 -18.28333,9 -24.85,16.4c-5.87656,6.61523 -8.92656,12.8819 -9.15,18.8c-0.25443,0.21719 -0.50443,0.45052 -0.75,0.7c-0.94635,1.41953 -1.79635,2.60286 -2.55,3.55c-0.05951,-0.29896 -0.10951,-0.61562 -0.15,-0.95c-0.03333,-0.43333 -0.05,-1.43333 -0.05,-3c0,-13.23333 6.16667,-24.06667 18.5,-32.5c10.73333,-7.33333 22.65,-11 35.75,-11c5.93333,0 11.01667,0.75 15.25,2.25c4,1.4 7.66667,3.65 11,6.75c1.43333,-8.16667 5.36667,-14.95 11.8,-20.35c6.1,-5.1 12.66667,-7.65 19.7,-7.65c17.13333,0 31.4,8.21667 42.8,24.65c4.76667,6.86667 8.45,14.5 11.05,22.9c0.77096,2.47734 1.42096,4.91068 1.95,7.3c-0.75755,-0.37878 -1.55755,-0.77878 -2.4,-1.2M582.5,262.3c0.3168,2.12357 0.80013,3.87357 1.45,5.25c0.10156,0.18971 0.20156,0.37305 0.3,0.55c-0.99714,0.26198 -1.98047,0.54531 -2.95,0.85c-0.95794,-1.09453 -1.80794,-2.29453 -2.55,-3.6c0.85404,-0.7763 1.7707,-1.6263 2.75,-2.55c0.32318,-0.30599 0.63984,-0.60599 0.95,-0.9c0.01315,0.13555 0.02982,0.26888 0.05,0.4M554.65,281.05c3.0694,-0.025 5.6194,-0.175 7.65,-0.45c0.16094,0.10612 0.31094,0.20612 0.45,0.3c-1.51576,1.65469 -2.88242,3.40469 -4.1,5.25c-1.43008,-1.77109 -2.76341,-3.47109 -4,-5.1M658.55,337.7c1.46667,0.26667 2.36667,0.9 2.7,1.9c-2.43333,1.93333 -8.28333,3.8 -17.55,5.6c-5.14805,0.99245 -9.59805,1.67578 -13.35,2.05c-1.14922,-1.16654 -2.21589,-2.31654 -3.2,-3.45c1.3362,-1.06654 2.5862,-2.2332 3.75,-3.5c3.29974,-0.41081 6.29974,-0.79414 9,-1.15c8.23333,-1.03333 13.1,-1.55 14.6,-1.55c2.23333,0 3.58333,0.03333 4.05,0.1M651,354.35c-2.67305,1.62435 -5.08971,3.19102 -7.25,4.7c-1.5556,-1.29622 -3.1056,-2.57956 -4.65,-3.85c-0.07604,-0.06302 -0.15938,-0.12969 -0.25,-0.2c5.58997,-0.93333 8.97331,-1.4 10.15,-1.4c0.4,0 1.08333,0.08333 2.05,0.25c0.32031,0.05716 0.62031,0.10716 0.9,0.15c-0.52044,0.16562 -0.83711,0.28229 -0.95,0.35M666,319.75c-1.22279,0.26146 -3.05612,0.62813 -5.5,1.1c-1.5,0.33333 -3.55,0.46667 -6.15,0.4c-2.96667,-0.16667 -5.18333,-0.25 -6.65,-0.25c-2.48372,0 -4.60039,0.31667 -6.35,0.95c0.15195,-0.44362 0.28529,-0.91029 0.4,-1.4c0.51471,-1.93516 0.89805,-3.93516 1.15,-6c0.2276,0.19427 0.4276,0.3776 0.6,0.55c1.53333,0.13333 4,0.45 7.4,0.95c2.66667,0.36667 4.45,0.55 5.35,0.55c0.23333,0 2.53333,-0.86667 6.9,-2.6c0.42083,-0.16523 0.82083,-0.3319 1.2,-0.5c0.3543,1.85156 0.8043,3.66823 1.35,5.45c0.10612,0.27187 0.20612,0.53854 0.3,0.8M668.7,281.3c-1.03438,1.99089 -1.91771,4.05755 -2.65,6.2c-0.36133,1.12305 -0.69466,2.25638 -1,3.4c-1.34622,0.59023 -2.54622,1.09023 -3.6,1.5c-4.88685,2.00482 -11.57018,2.98815 -20.05,2.95c-0.41263,-1.33932 -0.89596,-2.65599 -1.45,-3.95c0.55078,-0.11172 1.10078,-0.26172 1.65,-0.45c5.02839,-1.64349 10.64505,-5.54349 16.85,-11.7c0.84505,-0.83711 1.64505,-1.68711 2.4,-2.55c0.05885,0.06172 0.10885,0.11172 0.15,0.15c2.85221,2.64648 5.41888,4.12982 7.7,4.45M742.65,251.8c0.14974,-0.56393 0.28307,-1.19727 0.4,-1.9c1.08164,0.68932 2.06497,1.30599 2.95,1.85c-0.15078,0.34701 -0.31745,0.69701 -0.5,1.05c-2.16667,4.16667 -3.25,6.68333 -3.25,7.55c0,0.12044 0,0.23711 0,0.35c0,0.08529 0,0.16862 0,0.25c-1.21953,-0.83242 -2.50286,-1.59909 -3.85,-2.3c0.075,-0.04492 0.14167,-0.09492 0.2,-0.15c1.91536,-1.65143 3.26536,-3.88477 4.05,-6.7z" fill="#86bcff"/><path d="M883.45,604.85c-1.63646,0.10586 -3.13646,0.18919 -4.5,0.25c-3.02643,-4.57201 -6.62643,-8.40534 -10.8,-11.5c-4.31654,-3.20339 -9.11654,-5.50339 -14.4,-6.9c1.62982,-1.32096 3.74648,-2.8543 6.35,-4.6c1.77773,0.8918 3.66107,1.95846 5.65,3.2c5.46667,3.43333 10.1,7.21667 13.9,11.35c2.76159,2.97904 4.61159,5.66237 5.55,8.05c-0.55612,0.06055 -1.13945,0.11055 -1.75,0.15M729.6,599.7c0.84323,0.29193 1.69323,0.59193 2.55,0.9c-0.88776,0.78477 -1.93776,1.60143 -3.15,2.45c-4.46667,3.1 -10.45,6.18333 -17.95,9.25c-2.83242,1.15521 -5.66576,2.22188 -8.5,3.2c-0.3526,-0.16276 -0.71927,-0.34609 -1.1,-0.55c-2.06042,-1.11602 -3.91042,-2.23268 -5.55,-3.35c7.59844,-1.91628 13.69844,-3.91628 18.3,-6c4.62083,-2.11029 8.1875,-4.59362 10.7,-7.45c1.31393,0.41901 2.8806,0.93568 4.7,1.55M860.25,556.1h0.65c0.51745,0.52643 0.98411,1.1431 1.4,1.85c1.13333,1.86667 1.7,3.61667 1.7,5.25c0,1.85807 -0.65,4.04141 -1.95,6.55c-1.53411,0.29349 -2.48411,0.47682 -2.85,0.55c-2.33438,0.49089 -4.38438,0.95755 -6.15,1.4c3.13333,-3.06732 4.7,-6.01732 4.7,-8.85c0,-0.73333 -0.53333,-1.85 -1.6,-3.35c-0.14219,-0.19401 -0.27552,-0.39401 -0.4,-0.6v-1.4c1.66654,-0.53164 3.16654,-0.99831 4.5,-1.4M817.55,538.4c0.47174,0.37617 0.93841,0.74284 1.4,1.1c0.58672,0.45221 1.17005,0.88555 1.75,1.3c-0.48138,0.03333 -0.96471,0.05 -1.45,0.05c-0.48659,0 -0.96992,-0.01667 -1.45,-0.05c1.87318,1.41263 3.58984,2.59596 5.15,3.55c0.53841,0.32669 1.05508,0.62669 1.55,0.9c8.03333,4.4 16.4,6.6 25.1,6.6c1.44792,0 2.84792,-0.1 4.2,-0.3c0.91354,2.28997 1.56354,3.97331 1.95,5.05v0.9c-0.23919,0.09336 -0.48919,0.17669 -0.75,0.25c-0.02839,-0.07344 -0.06172,-0.15677 -0.1,-0.25c-1.64622,0.23333 -3.36289,0.35 -5.15,0.35c-8.1,0 -16.08333,-2.1 -23.95,-6.3c-2.07799,-1.10833 -3.96133,-2.25833 -5.65,-3.45c-3.16667,-2.22669 -5.66667,-4.61003 -7.5,-7.15c-0.11237,-0.13255 -0.22904,-0.28255 -0.35,-0.45c-7.3957,-0.74219 -12.97904,-2.79219 -16.75,-6.15c-3.2,-2.83333 -4.8,-6.08333 -4.8,-9.75c0,-0.19831 0,-0.39831 0,-0.6c-0.6401,0.06667 -1.30677,0.1 -2,0.1c-0.03099,0 -0.06432,0 -0.1,0c0.58789,-1 1.20456,-1.5 1.85,-1.5c0.3,0 1.3,0.25 3,0.75c0.97461,0.28659 1.70794,0.48659 2.2,0.6c0.96589,1.69036 1.83255,2.99036 2.6,3.9c3.16667,3.72539 8.11667,5.95872 14.85,6.7c1.13555,1.13828 2.60221,2.42161 4.4,3.85M793.75,352.45c7.44062,1.09818 12.60729,2.89818 15.5,5.4c1.1,1.1 4.61667,4.36667 10.55,9.8c3.4,3.1 6.3,6.25 8.7,9.45c4.93333,6.6 8.36667,13.2 10.3,19.8c1.63333,5.53333 2.45,12.18333 2.45,19.95c0,0.24427 0,0.4776 0,0.7c-0.04505,4.67721 -0.49505,9.46055 -1.35,14.35c-0.45117,0.51263 -0.91784,1.0293 -1.4,1.55c-2.73034,2.90312 -5.06367,5.06979 -7,6.5c0.42721,-1.98828 0.84388,-4.03828 1.25,-6.15c1.66667,-8.63333 2.5,-14.41667 2.5,-17.35c0,-0.19063 0,-0.39062 0,-0.6c-0.06172,-5.64323 -1.01172,-11.09323 -2.85,-16.35c-1.73333,-5 -4.7,-10.96667 -8.9,-17.9c-5.9,-9.8 -14.68333,-17.13333 -26.35,-22c-0.3875,-0.16146 -0.77083,-0.32812 -1.15,-0.5c-1.34505,-0.33555 -2.69505,-0.58555 -4.05,-0.75c0.63346,-2.16523 1.23346,-4.1319 1.8,-5.9M636.1,291.25c-0.74023,0.67813 -1.42357,1.29479 -2.05,1.85c-0.15638,-0.30273 -0.32305,-0.6194 -0.5,-0.95c-0.81263,-1.51367 -1.76263,-2.94701 -2.85,-4.3c-7.63333,-9.5 -21.36667,-14.25 -41.2,-14.25c-0.8207,0 -1.63737,0.01667 -2.45,0.05c0.01068,-0.15573 0.01068,-0.3224 0,-0.5c-0.15677,-3.03138 -0.25677,-5.18138 -0.3,-6.45c0.95117,-0.27214 1.61784,-0.4388 2,-0.5c0.56667,-0.06667 2.65,-0.1 6.25,-0.1c10.46667,0 20.63333,2.85 30.5,8.55c6.88099,3.98607 11.73099,8.35273 14.55,13.1c-0.33073,0.28424 -0.6974,0.58424 -1.1,0.9c-0.81276,0.75104 -1.76276,1.61771 -2.85,2.6M838.35,582.65c3.06133,1.18802 5.54466,2.27135 7.45,3.25c-4.31771,2.3 -8.83437,3.45 -13.55,3.45c-1.06667,0 -1.68333,-0.06667 -1.85,-0.2c-0.1,-0.26667 -0.23333,-0.53333 -0.4,-0.8c1.79544,-1.66719 4.41211,-3.63385 7.85,-5.9c0.17708,0.0724 0.34375,0.13906 0.5,0.2M641.45,590.7c-0.10078,0.07852 -0.21745,0.14518 -0.35,0.2c1.23841,-1.38411 2.80508,-3.10078 4.7,-5.15c4.84284,0.48008 10.40951,0.84674 16.7,1.1l0.25,0.5c-5.16667,2.5 -8.66667,3.75 -10.5,3.75c-3.87695,0 -7.47695,-0.13333 -10.8,-0.4M730.75,588.85c-0.49622,0.77891 -1.04622,1.57891 -1.65,2.4c-0.52839,0.71445 -1.01172,1.36445 -1.45,1.95c-5.55703,-0.26211 -9.79036,-0.86211 -12.7,-1.8c-2.96667,-1.5 -5.61667,-2.43333 -7.95,-2.8v-1.5c9.33333,1.33333 14.75,2 16.25,2c2.24948,0 4.61615,-0.06667 7.1,-0.2c0.14128,-0.00729 0.27461,-0.02396 0.4,-0.05M785.85,590.1c0.94362,0.00586 1.52695,0.07253 1.75,0.2c0.13333,0.06667 0.43333,0.25 0.9,0.55l0.3,0.9c1.01107,0.57695 2.07773,1.19362 3.2,1.85v1.25c0.56667,0.16667 0.01667,0.25 -1.65,0.25c-0.90885,0 -1.92552,-0.1 -3.05,-0.3c-0.66589,0.88151 -1.48255,1.88151 -2.45,3c-0.32214,-2.09844 -0.52214,-4.9651 -0.6,-8.6c0.52773,0.29089 1.06107,0.59089 1.6,0.9M791.4,579.55c-2.43333,2.16667 -5.63333,4.15 -9.6,5.95c-0.61289,0.27891 -1.24622,0.54557 -1.9,0.8c-2.15625,-0.48997 -4.80625,-1.57331 -7.95,-3.25c-0.19284,-0.10169 -0.39284,-0.20169 -0.6,-0.3c2.17201,-0.58268 3.80534,-1.13268 4.9,-1.65c1.06667,-0.53333 4.2,-1.56667 9.4,-3.1c4.93333,-1.46667 7.88333,-2.26667 8.85,-2.4c-0.26667,1.03333 -1.3,2.35 -3.1,3.95M709.95,537.7c0.24076,-1.96901 0.42409,-3.65234 0.55,-5.05c1.41484,0.40521 3.34818,1.05521 5.8,1.95c1.00703,0.36758 2.05703,0.68424 3.15,0.95c0.32122,-0.21393 0.75456,-0.36393 1.3,-0.45c0.24987,0.31927 0.56654,0.6526 0.95,1c1.69909,0.34479 3.48242,0.59479 5.35,0.75c3.28633,2.05599 6.15299,3.95599 8.6,5.7c-0.88633,0.02826 -1.78633,0.04492 -2.7,0.05c1.0444,0.47018 2.1444,0.95352 3.3,1.45c7.59219,3.22891 13.37552,5.04557 17.35,5.45c0.59492,0.06667 1.14492,0.1 1.65,0.1c0.05352,-0.05508 0.10352,-0.12174 0.15,-0.2c3.46224,-3.52891 7.19557,-7.29557 11.2,-11.3c0.49688,-0.49688 0.98021,-0.98021 1.45,-1.45c-0.93581,0.35234 -1.88581,0.68568 -2.85,1c1.13411,-1.48867 2.55078,-3.45534 4.25,-5.9c0.94336,-1.35273 1.77669,-2.58607 2.5,-3.7c0.9569,-0.55573 2.0569,-1.35573 3.3,-2.4c1.82044,-1.52786 3.18711,-2.64453 4.1,-3.35c1.10508,0.48086 2.45508,1.06419 4.05,1.75c1.5112,0.63477 2.72786,1.15143 3.65,1.55c-0.53685,0.6013 -1.20352,1.23464 -2,1.9c-1.20924,1.02643 -2.57591,2.02643 -4.1,3c-2.78516,3.09479 -6.38516,6.92813 -10.8,11.5c-2.67422,2.75677 -4.99089,5.0901 -6.95,7c-4.29948,4.23333 -6.78281,6.35 -7.45,6.35c-3.7,0 -8.48333,-1.31667 -14.35,-3.95c-0.68646,-0.30169 -1.48646,-0.68503 -2.4,-1.15c-1.97305,-0.94896 -4.47305,-2.24896 -7.5,-3.9c-3.4,-1.36667 -6.05,-2.6 -7.95,-3.7c-0.3306,-0.18893 -0.64727,-0.38893 -0.95,-0.6c-4.85456,-0.57799 -8.58789,-1.67799 -11.2,-3.3c-0.50195,-0.32174 -0.98529,-0.67174 -1.45,-1.05M669.85,552.65c2.05013,0.3 4.18346,0.45 6.4,0.45c2.07852,0 4.04518,-0.13333 5.9,-0.4c3.26172,-0.425 6.17839,-1.24167 8.75,-2.45c5.04557,-2.3556 8.82891,-6.1556 11.35,-11.4c0.00768,-0.01602 0.00768,-0.03268 0,-0.05c-0.60768,0.51615 -1.27435,0.98281 -2,1.4c1.80898,-2.32878 3.64232,-5.36211 5.5,-9.1c1.31237,2.76745 2.3957,4.81745 3.25,6.15c-0.19674,0.54583 -0.41341,1.09583 -0.65,1.65c-1.43333,3.33333 -3.38333,6.4 -5.85,9.2c-0.81471,0.93841 -1.66471,1.80508 -2.55,2.6c-4.4151,4.21549 -9.5151,6.83216 -15.3,7.85c-1.88542,0.36667 -3.85208,0.55 -5.9,0.55c-2.91615,0 -5.69948,-0.16667 -8.35,-0.5c-1.00937,1.56289 -3.37604,3.39622 -7.1,5.5c-5.86667,3.33333 -11.88333,5 -18.05,5c-9.30729,0 -16.70729,-1.4 -22.2,-4.2c0.33984,-1.54466 0.97318,-3.34466 1.9,-5.4c3.95273,2.4 9.38607,3.6 16.3,3.6c6.76667,0 13.03333,-1.38333 18.8,-4.15c0.09753,-0.05859 1.06419,-0.67526 2.9,-1.85c1.90781,-0.73555 3.87448,-1.91888 5.9,-3.55c0.35885,-0.28919 0.69219,-0.58919 1,-0.9M706.25,454.6c5.06667,0 10.06667,1.83333 15,5.5c2.70482,2.02865 4.62148,3.96198 5.75,5.8c0.83333,1.37214 1.25,2.6888 1.25,3.95c0,0.42031 -0.16667,1.75365 -0.5,4c0.01003,0.0944 0.01003,0.17773 0,0.25c-0.33333,2.43333 -0.5,3.85 -0.5,4.25c0,0.46667 0.75,1.71667 2.25,3.75c0.84974,1.17083 1.44974,2.07083 1.8,2.7c0.3,0.51211 0.45,0.86211 0.45,1.05c0,3.73724 -0.55,7.75391 -1.65,12.05c-2.3388,-0.67422 -4.67214,-1.45755 -7,-2.35c0.76667,-2.73763 1.15,-4.8043 1.15,-6.2c0,-0.49401 -0.11667,-1.04401 -0.35,-1.65c-1.32513,-3.27409 -6.30846,-8.07409 -14.95,-14.4c-10,-7.3 -16.81667,-10.95 -20.45,-10.95h-6.5c-11.49245,9.29766 -19.04245,17.38099 -22.65,24.25c-1.27487,-1.50755 -2.34154,-2.80755 -3.2,-3.9c0.54609,-0.88177 1.09609,-1.7651 1.65,-2.65c2.93333,-4.63333 5.41667,-7.95 7.45,-9.95c4,-4.03333 6.58333,-6.65 7.75,-7.85c1.8,-1.83333 3.18333,-2.98333 4.15,-3.45c1,-0.53333 2.36667,-0.8 4.1,-0.8c1.2,-0.03333 3.78333,0 7.75,0.1c4.06667,0 7.36667,-0.58333 9.9,-1.75c2.5,-1.16667 4.95,-1.75 7.35,-1.75M714,469.1c3.81211,2.88581 6.82878,5.26914 9.05,7.15c0.3,-1.41862 0.45,-2.55195 0.45,-3.4c0,-1.16667 -0.66667,-2.6 -2,-4.3c-1.5,-1.9 -3.41667,-3.53333 -5.75,-4.9c-4.35156,-2.50964 -9.11823,-3.54297 -14.3,-3.1c1.2375,0.83542 2.60417,1.78542 4.1,2.85c4,2.83333 6.81667,4.73333 8.45,5.7M807.95,452.75c-3.42956,-2.55065 -7.44622,-4.45065 -12.05,-5.7c-3.42266,-2.23503 -6.88932,-3.38503 -10.4,-3.45v0.75c0.59792,0.20391 1.46458,0.63724 2.6,1.3c-2.06484,-0.2 -4.23151,-0.3 -6.5,-0.3c-2.14036,0 -4.1737,0.23333 -6.1,0.7c-0.85391,-0.42956 -1.63724,-0.57956 -2.35,-0.45v1.1c0.02083,0.01367 0.0375,0.03034 0.05,0.05c-3.47773,1.24974 -6.56107,3.34974 -9.25,6.3c0.00937,-0.0862 0.00937,-0.15286 0,-0.2c-0.1,-0.43333 -0.33333,-0.76667 -0.7,-1c-0.53138,0.3543 -0.83138,1.4043 -0.9,3.15c-0.72227,0.9582 -1.42227,1.99154 -2.1,3.1c-0.42708,0.73919 -0.84375,1.50586 -1.25,2.3c-0.56576,1.08815 -1.09909,2.20482 -1.6,3.35c0.04336,-0.19974 0.07669,-0.41641 0.1,-0.65c-1.06667,0.86667 -1.7,1.65 -1.9,2.35c-0.06667,0.26667 -0.1,1.2 -0.1,2.8c0,0.06432 0.03333,0.36432 0.1,0.9c-0.21901,0.75117 -0.41901,1.51784 -0.6,2.3c-0.66667,2.86667 -1,5.03333 -1,6.5c0,0.73789 0.05,1.48789 0.15,2.25c0.03372,0.19271 0.06706,0.37604 0.1,0.55c0.38841,2.33359 1.23841,4.78359 2.55,7.35c-0.46797,0.66354 -1.01797,1.34688 -1.65,2.05c-1.15169,1.27969 -2.41836,2.49635 -3.8,3.65c-1.29492,-2.05833 -2.24492,-3.775 -2.85,-5.15c-0.96576,-2.23177 -1.63242,-4.69844 -2,-7.4c-0.02331,-0.30768 -0.05664,-0.62435 -0.1,-0.95c-0.1,-1.19414 -0.15,-2.42747 -0.15,-3.7c0,-10.7 2.83333,-19.36667 8.5,-26c6.26667,-7.33333 15.18333,-11 26.75,-11c3.73333,0 8.01667,0.75 12.85,2.25c2.66667,0.86667 6.13333,2.11667 10.4,3.75c2.16836,0.76354 4.71836,2.53021 7.65,5.3c-1.25326,1.52747 -2.16992,2.59414 -2.75,3.2c-0.55039,-0.46992 -1.11706,-0.91992 -1.7,-1.35M665.7,318.95c1.61706,-0.30365 3.46706,-0.68698 5.55,-1.15c0.7362,2.06888 1.65286,4.06888 2.75,6c2.60312,4.62956 6.00312,8.11289 10.2,10.45c-0.21263,0.40703 -0.4293,0.8237 -0.65,1.25c-0.74622,1.57891 -1.41289,2.97891 -2,4.2c-0.10221,-0.02904 -0.20221,-0.07904 -0.3,-0.15c-0.87148,0.75312 -1.95482,1.65312 -3.25,2.7c-1.36471,1.10885 -2.54805,2.09219 -3.55,2.95c-0.46341,0.3918 -0.89674,0.75846 -1.3,1.1c-1.41797,2.2431 -2.9013,4.87643 -4.45,7.9c-0.56667,1.1 -1.23333,1.81667 -2,2.15c-0.48242,0.19297 -1.19909,0.3263 -2.15,0.4c-0.86276,0.29922 -1.87943,0.56589 -3.05,0.8c-3.31159,0.64089 -5.57826,1.15755 -6.8,1.55c-1.84388,0.87044 -3.92721,2.00378 -6.25,3.4c-0.09193,0.05417 -0.19193,0.10417 -0.3,0.15c-0.12643,0.09557 -0.25977,0.17891 -0.4,0.25c-2.40299,1.59167 -4.65299,3.34167 -6.75,5.25c-0.40169,0.37799 -0.80169,0.76133 -1.2,1.15c-1.85742,1.80885 -3.34076,3.55885 -4.45,5.25c-0.03438,0.14258 -0.06771,0.27591 -0.1,0.4c-0.26654,1.22539 -0.4332,2.40872 -0.5,3.55c0.25729,0.18242 0.50729,0.34909 0.75,0.5c0.14167,0.0901 0.29167,0.17344 0.45,0.25c0.14922,0.81068 0.39922,1.76068 0.75,2.85c0.11927,0.36354 0.21927,0.71354 0.3,1.05c-0.15703,-0.02031 -0.3237,-0.03698 -0.5,-0.05c-0.09974,-0.05169 -0.19974,-0.10169 -0.3,-0.15c0.23138,0.45339 0.38138,0.88672 0.45,1.3c-0.37773,0.06185 -0.77773,0.14518 -1.2,0.25c-2.30768,0.56901 -4.85768,1.76901 -7.65,3.6h-0.05c-4.73099,-1.47227 -9.88099,-1.73893 -15.45,-0.8c-1.24648,0.20339 -2.51315,0.47005 -3.8,0.8c-8.02279,1.75078 -14.80612,4.55078 -20.35,8.4c-0.00247,0.09036 -0.01914,0.1737 -0.05,0.25c-0.17422,-0.21602 -0.35755,-0.43268 -0.55,-0.65c-1.19167,-1.35573 -2.25833,-2.55573 -3.2,-3.6c7.4276,-5.63815 15.99427,-9.13815 25.7,-10.5c0.95156,-0.11081 1.90156,-0.21081 2.85,-0.3c2.1707,-0.20755 4.2707,-0.30755 6.3,-0.3c3.83841,0.05391 7.45508,0.48724 10.85,1.3c-0.23607,-0.33099 -0.43607,-0.69766 -0.6,-1.1c-0.3,-0.8 -0.45,-1.85 -0.45,-3.15c0,-0.64362 0.05,-1.29362 0.15,-1.95c0.19258,-1.17318 0.55924,-2.37318 1.1,-3.6c0.4276,-0.91758 0.96094,-1.85091 1.6,-2.8c0.95586,-1.42253 2.15586,-2.85586 3.6,-4.3c1.51914,-1.51914 3.38581,-3.11914 5.6,-4.8c0.86315,-0.64076 1.76315,-1.29076 2.7,-1.95c2.16029,-1.50898 4.57695,-3.07565 7.25,-4.7c0.11289,-0.06771 0.42956,-0.18438 0.95,-0.35c0.99766,-0.33906 2.76432,-0.8724 5.3,-1.6c3.56667,-1.06667 5.56667,-1.83333 6,-2.3c0.46667,-0.5 1.06667,-1.63333 1.8,-3.4c0.73333,-1.7 1.38333,-2.81667 1.95,-3.35c1.7,-1.66667 3.83333,-3.81667 6.4,-6.45c0.71484,-0.50924 1.49818,-0.92591 2.35,-1.25c-3.00755,-2.77331 -5.52422,-6.25664 -7.55,-10.45c-0.20872,0.14505 -0.44206,0.27839 -0.7,0.4c-3.26667,1.5 -8.18333,2.25 -14.75,2.25c-1.66667,0 -5.83333,-0.08333 -12.5,-0.25c-0.24766,-0.06198 -0.51432,-0.16198 -0.8,-0.3c-1.24818,2.84818 -2.79818,5.59818 -4.65,8.25c-1.19544,1.70273 -2.49544,3.28607 -3.9,4.75c-1.1638,1.2668 -2.4138,2.43346 -3.75,3.5c-1.52982,1.28789 -3.16315,2.45456 -4.9,3.5c-6.97773,4.23398 -15.52773,6.68398 -25.65,7.35c-0.39206,0.55729 -1.12539,1.29063 -2.2,2.2c-1.93333,1.63333 -4.25,3.2 -6.95,4.7c-4.175,2.36953 -8.30833,4.06953 -12.4,5.1c-0.42292,-1.8125 -0.85625,-3.1625 -1.3,-4.05v-2.35c1.71771,-0.5668 3.55104,-1.30013 5.5,-2.2v0.05c4.45495,-1.21198 9.33828,-4.32865 14.65,-9.35c12.3043,-0.54375 22.08763,-3.87708 29.35,-10c0.22161,-0.15534 0.42161,-0.32201 0.6,-0.5c2.53958,-2.20794 4.75625,-4.75794 6.65,-7.65c1.79922,-2.75885 3.23255,-5.59219 4.3,-8.5c1.92122,-0.00781 3.77122,-0.34115 5.55,-1c0.40964,-0.14128 0.8763,-0.32461 1.4,-0.55c-0.11471,0.48971 -0.24805,0.95638 -0.4,1.4c1.74961,-0.63333 3.86628,-0.95 6.35,-0.95c1.46667,0 3.68333,0.08333 6.65,0.25c2.6,0.06667 4.65,-0.06667 6.15,-0.4c2.44388,-0.47188 4.27721,-0.83854 5.5,-1.1c-0.09388,-0.26146 -0.19388,-0.52812 -0.3,-0.8M731.15,255.75c0.73997,0.2082 1.43997,0.42487 2.1,0.65c-0.57474,2.67917 -1.05807,4.92917 -1.45,6.75c-6.11237,-2.34206 -12.9957,-3.17539 -20.65,-2.5c-11.46667,1.03333 -21.13333,5.18333 -29,12.45c-2.2668,2.10312 -4.25013,4.35312 -5.95,6.75c-0.27943,-0.13971 -0.57943,-0.28971 -0.9,-0.45c-1.26211,-0.63815 -2.41211,-1.20482 -3.45,-1.7c2.66758,-3.90482 5.51758,-7.32148 8.55,-10.25c1.92643,-1.84401 3.92643,-3.49401 6,-4.95c8.43333,-5.93333 18.55,-8.9 30.35,-8.9c1.66406,0 3.36406,0.1 5.1,0.3c2.97917,0.33398 6.07917,0.95065 9.3,1.85M680.4,130.45c21.94596,1.14883 40.09596,10.41549 54.45,27.8c3.93268,4.7681 7.58268,10.15143 10.95,16.15c6.33333,11.26667 11.2,24 14.6,38.2c0.14857,0.61563 0.2819,1.21563 0.4,1.8c-0.64974,0.35365 -1.33307,0.70365 -2.05,1.05c-1.3276,0.59922 -2.54427,1.14922 -3.65,1.65c-0.40508,-1.65117 -0.85508,-3.33451 -1.35,-5.05c-2.1,-7.26667 -5.43333,-16.66667 -10,-28.2c-1.26667,-3.13333 -4.21667,-7.71667 -8.85,-13.75c-6.83333,-8.96667 -10.38333,-13.63333 -10.65,-14c-0.09987,-0.14479 -0.19987,-0.29479 -0.3,-0.45c-2.98437,-4.11341 -7.60104,-7.79674 -13.85,-11.05c-8.70898,-4.53307 -19.19232,-7.19974 -31.45,-8c0.26042,-0.85456 0.54375,-1.82122 0.85,-2.9c0.3401,-1.20156 0.6401,-2.2849 0.9,-3.25z" fill="#210c2a"/><path d="M846.5,484.15c2.64766,1.29206 4.73099,3.04206 6.25,5.25c1.6974,2.49974 2.5974,5.38307 2.7,8.65c-0.46667,0.34583 -0.7,0.94583 -0.7,1.8c0,0.28906 0.16667,0.65573 0.5,1.1c-0.24375,1.37708 -0.71042,3.11042 -1.4,5.2c-1.46667,4.43333 -3.41667,8.5 -5.85,12.2c-5.05443,7.72201 -11.38776,12.72201 -19,15c-3.23802,1 -6.70469,1.5 -10.4,1.5c-1.92956,0 -3.74622,-0.1 -5.45,-0.3c-6.73333,-0.74128 -11.68333,-2.97461 -14.85,-6.7c-0.76745,-0.90964 -1.63411,-2.20964 -2.6,-3.9c-0.12005,-0.24505 -0.25339,-0.51172 -0.4,-0.8c1.19948,-0.38477 2.26615,-0.90143 3.2,-1.55c0.63216,-0.43763 1.16549,-0.9043 1.6,-1.4c0.54987,0.81172 1.09987,1.57839 1.65,2.3c2.67096,3.50807 5.5043,5.90807 8.5,7.2c1.78255,0.76667 3.61589,1.15 5.5,1.15c6.9319,0 12.5819,-2.53333 16.95,-7.6c0.41719,-0.45664 0.81719,-0.93997 1.2,-1.45c0.2,0 0.65,0.01667 1.35,0.05c5.33333,-4.56667 9.1,-8.75 11.3,-12.55c2.3,-3.93333 3.45,-8.33333 3.45,-13.2c0,-3.89701 -1.16667,-7.88034 -3.5,-11.95M678.65,136.6c12.25768,0.80026 22.74102,3.46693 31.45,8c6.24896,3.25326 10.86563,6.93659 13.85,11.05c0.10013,0.15521 0.20013,0.30521 0.3,0.45c0.26667,0.36667 3.81667,5.03333 10.65,14c4.63333,6.03333 7.58333,10.61667 8.85,13.75c4.56667,11.53333 7.9,20.93333 10,28.2c0.49492,1.71549 0.94492,3.39883 1.35,5.05c1.54115,6.09805 2.50781,11.71471 2.9,16.85c-3.43776,0.09089 -6.02109,2.89089 -7.75,8.4c-0.30716,0.98281 -0.80716,2.24948 -1.5,3.8c-0.68776,-0.37773 -1.42109,-0.77773 -2.2,-1.2c-0.52904,-2.38932 -1.17904,-4.82266 -1.95,-7.3c-2.6,-8.4 -6.28333,-16.03333 -11.05,-22.9c-11.4,-16.43333 -25.66667,-24.65 -42.8,-24.65c-7.03333,0 -13.6,2.55 -19.7,7.65c-6.43333,5.4 -10.36667,12.18333 -11.8,20.35c-3.33333,-3.1 -7,-5.35 -11,-6.75c-4.23333,-1.5 -9.31667,-2.25 -15.25,-2.25c-13.1,0 -25.01667,3.66667 -35.75,11c-12.33333,8.43333 -18.5,19.26667 -18.5,32.5c0,1.56667 0.01667,2.56667 0.05,3c0.04049,0.33438 0.09049,0.65104 0.15,0.95c-0.75547,1.02279 -1.40547,1.78945 -1.95,2.3c-0.13255,0.13255 -0.34922,0.31589 -0.65,0.55c-0.14779,-0.47773 -0.28112,-0.97773 -0.4,-1.5c-1,-4.5 -1.61667,-7.11667 -1.85,-7.85c-0.96667,-2.86667 -2.41667,-5.26667 -4.35,-7.2l-5.5,-0.25c-2.86667,0.1 -5.26667,2.85 -7.2,8.25c-0.43464,1.18112 -0.81797,2.31445 -1.15,3.4c-0.03958,-0.05156 -0.08958,-0.10156 -0.15,-0.15c-2.93333,-2.3 -5.81667,-6.55 -8.65,-12.75c-1.90638,-4.14531 -3.25638,-8.01198 -4.05,-11.6c2.43281,-13.04883 8.33281,-28.34883 17.7,-45.9c4.04375,-7.57943 11.11042,-14.66276 21.2,-21.25c6.48021,-4.17982 14.19687,-8.16315 23.15,-11.95c22.46667,-9.53333 44.3,-14.3 65.5,-14.3c2.77201,0 5.45534,0.08333 8.05,0.25M633.75,306.85c0,10.5 -3.16667,18.75 -9.5,24.75c-5.53333,5.26667 -12.28333,7.9 -20.25,7.9c-16.5,0 -28.08333,-4.96667 -34.75,-14.9c-3.56667,-5.33333 -5.35,-11.13333 -5.35,-17.4c0,-7.5 1.81667,-13.71667 5.45,-18.65c5.5,-7.5 14.8,-11.35 27.9,-11.55c12.23333,0.76667 21.75,4.75 28.55,11.95c5.3,5.66667 7.95,11.63333 7.95,17.9M547.4,327.35c-3.86667,1.4 -7.15,3.25 -9.85,5.55c-0.11888,0.10221 -0.23555,0.20221 -0.35,0.3c0.34167,-1.76367 1.125,-4.44701 2.35,-8.05c1.63333,-4.93333 2.86667,-7.95 3.7,-9.05c0.73229,-0.94349 1.61563,-2.04349 2.65,-3.3c-0.1,0.92435 -0.15,1.84102 -0.15,2.75c0,5.2 0.55,9.13333 1.65,11.8M735.65,542.55c10.67318,-0.28008 20.52318,-1.91341 29.55,-4.9c0.96419,-0.31432 1.91419,-0.64766 2.85,-1c-0.46979,0.46979 -0.95312,0.95312 -1.45,1.45c-4.00443,4.00443 -7.73776,7.77109 -11.2,11.3c-0.04648,0.07826 -0.09648,0.14492 -0.15,0.2c-0.50508,0 -1.05508,-0.03333 -1.65,-0.1c-3.97448,-0.40443 -9.75781,-2.22109 -17.35,-5.45c-1.1556,-0.49648 -2.2556,-0.97982 -3.3,-1.45c0.91367,-0.00508 1.81367,-0.02174 2.7,-0.05M654.55,529.6c5.98646,8.99518 14.68646,13.79518 26.1,14.4c0.85117,0.06667 1.71784,0.1 2.6,0.1c7.18112,0 12.84779,-1.3 17,-3.9c0.72565,-0.41719 1.39232,-0.88385 2,-1.4c0.00768,0.01732 0.00768,0.03398 0,0.05c-2.52109,5.2444 -6.30443,9.0444 -11.35,11.4c-2.57161,1.20833 -5.48828,2.025 -8.75,2.45c-1.85482,0.26667 -3.82148,0.4 -5.9,0.4c-2.21654,0 -4.34987,-0.15 -6.4,-0.45c-7.39557,-0.98529 -13.54557,-3.83529 -18.45,-8.55c-1.39779,-1.33542 -2.69779,-2.83542 -3.9,-4.5c-2.23333,-3.1 -3.95,-6.55 -5.15,-10.35c-0.9,-2.8 -1.35,-5.1 -1.35,-6.9c0,-3.76667 1.28333,-8.05 3.85,-12.85c1.43112,-2.69779 2.98112,-4.89779 4.65,-6.6c-0.66667,2.27292 -1,5.92292 -1,10.95c0,1.06667 0.4,2.86667 1.2,5.4c1.13333,3.76667 2.75,7.21667 4.85,10.35M688.5,462.35c3.63333,0 10.45,3.65 20.45,10.95c8.64154,6.32591 13.62487,11.12591 14.95,14.4c0.23333,0.60599 0.35,1.15599 0.35,1.65c0,1.3957 -0.38333,3.46237 -1.15,6.2c-0.26172,0.99883 -0.57839,2.08216 -0.95,3.25c-0.73333,2.3 -1.61667,4.9 -2.65,7.8c-0.76667,2.3 -2.1,5.3 -4,9c-0.33333,0.66667 -2.45,1.73333 -6.35,3.2c-0.96914,0.36797 -1.81914,0.73464 -2.55,1.1c-0.69779,-1.41445 -1.64779,-2.96445 -2.85,-4.65c0.51745,0.06667 1.05078,0.1 1.6,0.1c2.03333,0 3.33333,-0.41667 3.9,-1.25c-3.03333,-1.46667 -5.6,-3.48333 -7.7,-6.05c-1.2263,-1.51589 -2.20964,-2.69922 -2.95,-3.55c-0.67174,-0.77031 -1.12174,-1.23698 -1.35,-1.4c-1.05365,0.52682 -1.77031,1.31016 -2.15,2.35c-2.52227,-2.25794 -4.97227,-3.95794 -7.35,-5.1l-0.5,0.75c1.23971,1.64323 3.25638,4.69323 6.05,9.15c0.42708,0.70104 0.87708,1.43438 1.35,2.2c4.56667,7.36667 6.85,11.83333 6.85,13.4c0,0.06667 -0.05,0.73333 -0.15,2c-0.3,1.46667 -0.91667,2.8 -1.85,4c-2.9,3.83333 -8.36667,5.75 -16.4,5.75c-0.71068,0 -1.41068,-0.03333 -2.1,-0.1c-7.60716,-0.53255 -14.19049,-4.08255 -19.75,-10.65c-2.23333,-2.6 -4.05,-5.41667 -5.45,-8.45c-0.70729,-1.55221 -1.20729,-2.91888 -1.5,-4.1c0.18177,-0.01719 0.49844,0.04948 0.95,0.2c0.16667,0.03333 0.25,-0.43333 0.25,-1.4c0,-2.90495 0.01667,-5.38828 0.05,-7.45c0.22396,-0.65586 0.47396,-1.35586 0.75,-2.1c1.8,-4.96667 2.86667,-8.2 3.2,-9.7c-1.10104,0.26797 -2.11771,0.6013 -3.05,1c0.40208,-1.92383 0.93542,-3.74049 1.6,-5.45c0.06484,-0.03984 0.11484,-0.08984 0.15,-0.15c0.0418,-0.1569 0.07513,-0.3069 0.1,-0.45c0.05443,-0.09609 0.10443,-0.19609 0.15,-0.3c0.26784,-0.62109 0.56784,-1.25443 0.9,-1.9c3.60755,-6.86901 11.15755,-14.95234 22.65,-24.25h6.5M705.55,463.4c-1.49583,-1.06458 -2.8625,-2.01458 -4.1,-2.85c5.18177,-0.44297 9.94844,0.59036 14.3,3.1c2.33333,1.36667 4.25,3 5.75,4.9c1.33333,1.7 2,3.13333 2,4.3c0,0.84805 -0.15,1.98138 -0.45,3.4c-2.22122,-1.88086 -5.23789,-4.26419 -9.05,-7.15c-1.63333,-0.96667 -4.45,-2.86667 -8.45,-5.7M646.3,419.6c0,7.93333 -1.96667,15.35 -5.9,22.25c-5.93333,10.46667 -15.23333,15.88333 -27.9,16.25h-10.1c-7.66667,-2.6 -13.45,-6.86667 -17.35,-12.8c-3.03333,-4.66667 -4.55,-9.6 -4.55,-14.8c0,-5.43333 1.85,-10.8 5.55,-16.1c4,-5.73333 9.61667,-10.56667 16.85,-14.5c0.96667,-0.53333 3.58333,-1.45 7.85,-2.75c2,-0.26667 3.48333,-0.35 4.45,-0.25c1.76667,0.16667 3.03333,0.25 3.8,0.25c6.26667,0 10.85,0.63333 13.75,1.9c1.63333,0.66667 3.43333,2.1 5.4,4.3c4.03333,4.43333 6.36667,7.28333 7,8.55c0.76667,1.46667 1.15,4.03333 1.15,7.7M786.5,456.35c-1.08776,0.75716 -2.30443,1.74049 -3.65,2.95c-3.06667,2.8 -6.01667,6.13333 -8.85,10c-2.07409,2.84583 -3.85742,5.62917 -5.35,8.35c-0.78919,1.50417 -1.50586,2.9875 -2.15,4.45c-1.02396,2.40521 -1.80729,4.75521 -2.35,7.05c-0.1,-0.65039 -0.15,-1.30039 -0.15,-1.95c0,-0.81315 0.38333,-2.61315 1.15,-5.4c0.01393,-0.06289 0.0306,-0.12956 0.05,-0.2c0.30703,-1.1194 0.64036,-2.2194 1,-3.3c0.8224,-2.5276 1.7724,-4.9276 2.85,-7.2c4.63333,-9.83333 10.36667,-14.75 17.2,-14.75c0.09245,0 0.17578,0 0.25,0M844.5,496.2c0,3.06667 -1.83333,7.91667 -5.5,14.55c-0.05547,0.09987 -0.12214,0.19987 -0.2,0.3c0.13333,-0.74362 0.2,-1.47695 0.2,-2.2c0,-3.39948 -0.48333,-6.49948 -1.45,-9.3c-0.30586,-0.85924 -0.65586,-1.69258 -1.05,-2.5c-1.17734,-2.38711 -2.76068,-4.52044 -4.75,-6.4c-4.3,-4.1 -9.63333,-6.35 -16,-6.75c-1.04714,-0.06719 -2.08047,-0.08385 -3.1,-0.05c-4.91146,0.18763 -9.21146,1.6543 -12.9,4.4c-2.63919,1.96576 -4.55586,4.33242 -5.75,7.1c-1,2.3431 -1.5,4.95977 -1.5,7.85c0,0.36667 0.48333,1.85 1.45,4.45c0.89948,2.43789 1.88281,4.72122 2.95,6.85c-0.07474,0.06172 -0.15807,0.11172 -0.25,0.15c-0.38594,0.27383 -0.73594,0.57383 -1.05,0.9c-0.76667,1.03333 -1.46667,1.8 -2.1,2.3l-4,0.25c-5.29362,-1.04714 -9.82695,-3.6138 -13.6,-7.7l0.35,-1.05c-2.61784,-3.47656 -4.71784,-6.3099 -6.3,-8.5c-0.46667,-1.45638 -0.7,-2.87305 -0.7,-4.25c0,-3.82148 1.18333,-8.05482 3.55,-12.7c0.95326,-1.83451 2.08659,-3.73451 3.4,-5.7c0.9776,-1.45885 2.01094,-2.89219 3.1,-4.3c3.80703,-4.8849 8.29036,-9.40156 13.45,-13.55l5,-0.25c3.02865,0 6.16198,0.48333 9.4,1.45c6.97396,2.04076 14.45729,6.27409 22.45,12.7c0.80938,0.64935 1.59271,1.29935 2.35,1.95c1.41068,1.78073 3.02734,3.98073 4.85,6.6c2.23333,3.23333 4.33333,6.33333 6.3,9.3c0.28984,0 0.53984,-0.01667 0.75,-0.05c0.43333,1.39297 0.65,2.7763 0.65,4.15M763.95,297.25c0.20208,0.19492 0.38542,0.37826 0.55,0.55c6.5,6.7 9.75,13.05 9.75,19.05c0,0.28372 0,0.55039 0,0.8c-0.66602,-0.12604 -2.38268,-0.50938 -5.15,-1.15c-3.73333,-0.86667 -6.25,-1.36667 -7.55,-1.5v-0.15c0.33333,-1.6 0.86667,-4.18333 1.6,-7.75c0.56667,-3.13333 0.85,-5.63333 0.85,-7.5c0,-0.94883 -0.01667,-1.73216 -0.05,-2.35M628.35,376.7c-1.62422,0.36523 -3.07422,0.6819 -4.35,0.95c-3.14661,0.63333 -5.22995,0.95 -6.25,0.95c-2.83333,0 -5.68333,-0.18333 -8.55,-0.55c-2.49375,-0.31471 -4.66042,-0.74805 -6.5,-1.3c5.88177,-1.62331 12.39844,-3.18997 19.55,-4.7c3.61745,-0.72344 6.81745,-1.37344 9.6,-1.95c-0.63906,0.94909 -1.1724,1.88242 -1.6,2.8c-0.54076,1.22682 -0.90742,2.42682 -1.1,3.6c-0.25964,0.07044 -0.5263,0.13711 -0.8,0.2M622.25,347.3c1.73685,-1.04544 3.37018,-2.21211 4.9,-3.5c0.98411,1.13346 2.05078,2.28346 3.2,3.45c-2.2944,0.23333 -4.32773,0.35 -6.1,0.35c-0.64531,0 -1.31198,-0.1 -2,-0.3M641.05,361c-0.75469,0.16966 -1.55469,0.33633 -2.4,0.5c-7.2,1.4 -14.58333,2.1 -22.15,2.1c-1.56667,0 -3.73333,-0.33333 -6.5,-1c-2.72721,-0.65977 -4.56055,-1.10977 -5.5,-1.35c8.52865,-1.57812 15.96198,-2.94479 22.3,-4.1c4.78008,-0.87474 8.79674,-1.59141 12.05,-2.15c0.09062,0.07031 0.17396,0.13698 0.25,0.2c1.5444,1.27044 3.0944,2.55378 4.65,3.85c-0.93685,0.65924 -1.83685,1.30924 -2.7,1.95M698.75,268.1c16.16667,-6.16667 28.58333,-5.85 37.25,0.95c3.13333,2.46667 5.55,5.63333 7.25,9.5c1.33333,3.06667 2,5.95 2,8.65c0,2.26667 -0.93333,5.58333 -2.8,9.95c-2.2,5.06667 -4.98333,9.8 -8.35,14.2c-9.33333,12.16667 -20.2,18.25 -32.6,18.25c-10.26667,0 -17.76667,-4.11667 -22.5,-12.35c-2.8,-4.9 -4.2,-9.58333 -4.2,-14.05c0,-6 1.88333,-12.26667 5.65,-18.8c4.56667,-7.96667 10.66667,-13.4 18.3,-16.3z" fill="#ffffff"/><path d="M810.15,414.6c-8.85234,-8.84831 -22.48568,-10.01497 -40.9,-3.5c-3.86667,1.36667 -8.01667,4.1 -12.45,8.2c-2.83333,2.6 -6.26667,6.28333 -10.3,11.05c-1.63333,1.86667 -4.41667,6.06667 -8.35,12.6c-0.44844,0.74479 -0.88177,1.44479 -1.3,2.1c-1.91016,3.27266 -3.22682,5.65599 -3.95,7.15c-0.18034,-0.25716 -0.36367,-0.52383 -0.55,-0.8c-6.63802,-9.22956 -14.10469,-15.67956 -22.4,-19.35c-9.63333,-4.23333 -19.61667,-4.46667 -29.95,-0.7c-9.1,3.3 -16.88333,8.93333 -23.35,16.9c-6.26667,7.73333 -9.4,15.18333 -9.4,22.35c0,0.13333 0.5,3.38333 1.5,9.75c1.04583,3.97409 2.4125,6.69076 4.1,8.15l0.05,0.05c-0.94557,3.15938 -1.49557,6.37604 -1.65,9.65c-5.16276,0.98763 -9.16276,3.97096 -12,8.95c-0.50977,0.89714 -0.97643,1.8138 -1.4,2.75c-2.79141,1.0151 -5.35807,2.09844 -7.7,3.25c-0.13867,-0.21328 -0.28867,-0.42995 -0.45,-0.65c-0.96667,-1.3 -1.45,-2.35 -1.45,-3.15c0,-1.86667 -0.03333,-3.03333 -0.1,-3.5c-0.16667,-1.36667 -0.63333,-2.45 -1.4,-3.25c-0.76667,-0.86667 -3.2,-1.78333 -7.3,-2.75c-4.66667,-1.1 -7.23333,-1.76667 -7.7,-2c-1.63333,-0.76667 -3.15,-1.81667 -4.55,-3.15c-1.86667,-1.8 -3.1,-2.91667 -3.7,-3.35c-3.66667,-2.7 -6.45,-7.18333 -8.35,-13.45c-0.71797,-2.65924 -1.31797,-4.75924 -1.8,-6.3c4.87552,1.5 10.34219,2.25 16.4,2.25c19.33333,0 33.41667,-7.23333 42.25,-21.7c3.03333,-4.96667 5.28333,-10.55 6.75,-16.75c1,-4.3 1.5,-8.11667 1.5,-11.45c0,-0.34883 0,-0.69883 0,-1.05c0.15977,0.67318 0.32643,1.37318 0.5,2.1c1.83333,7.73333 2.83333,11.76667 3,12.1c1.93333,-3.1 6.91667,-5.85 14.95,-8.25c7.3,-2.16667 13.98333,-3.25 20.05,-3.25c5.8,0 12.4,1.75 19.8,5.25c7.56667,3.6 12.3,7.35 14.2,11.25l0.25,0.05c0.16667,0.1 0.25,0.25 0.25,0.45c6.83333,-12.86667 15.93333,-22.83333 27.3,-29.9c10.86667,-6.73333 22.51667,-10.1 34.95,-10.1c9.05052,0 16.00052,3.9 20.85,11.7c1.5026,2.39779 2.8026,5.16445 3.9,8.3c2.65208,7.57318 4.13542,17.57318 4.45,30c0.03333,1.62083 0.05,3.2875 0.05,5c0,1.2 1.66667,2.2 5,3c1.4793,0.35221 2.96263,0.60221 4.45,0.75c0.1293,0.47995 0.2293,0.89661 0.3,1.25c0.16211,0.89154 0.24544,3.17487 0.25,6.85c-1.03607,-0.95742 -2.13607,-1.89076 -3.3,-2.8c-4.03086,-3.14779 -8.19753,-5.51445 -12.5,-7.1c0.02096,-0.06081 0.03763,-0.12747 0.05,-0.2c-0.1332,-0.31315 -0.2832,-0.62982 -0.45,-0.95c0.17396,-0.4569 0.32396,-0.99023 0.45,-1.6c0.12305,-0.42969 0.22305,-0.91302 0.3,-1.45c0.18919,-0.85612 0.35586,-1.82279 0.5,-2.9c0.46667,-3.43333 0.7,-6.51667 0.7,-9.25c0,-9.9 -2.45,-18.25 -7.35,-25.05c-0.92852,-1.29049 -1.92852,-2.47383 -3,-3.55M777,359.3c-4.16667,3.59023 -6.25,7.77357 -6.25,12.55c0,2.3 0.71667,5.08333 2.15,8.35c0.40495,0.91953 0.82161,1.75286 1.25,2.5c-2.88398,-1.91914 -6.45065,-3.60247 -10.7,-5.05c2.36888,-2.19297 4.35221,-4.99297 5.95,-8.4c1.48958,-3.18828 2.38958,-6.27161 2.7,-9.25c1.36224,-0.2043 2.99557,-0.43763 4.9,-0.7M731.1,500.5c2.2,0.23333 4.08333,0.35 5.65,0.35c2.3,0 5.96667,-0.66667 11,-2c2.18438,-0.59102 4.10104,-1.19102 5.75,-1.8c0.09727,-0.02839 0.19727,-0.06172 0.3,-0.1c0.50104,0.58971 1.11771,1.32305 1.85,2.2c0.61784,0.71406 1.30117,1.51406 2.05,2.4c-1.60898,0.69323 -3.30898,1.37656 -5.1,2.05c-8.33333,3.16667 -16.36667,4.75 -24.1,4.75c-0.88294,0 -1.79961,-0.2 -2.75,-0.6c1.01823,-2.4125 1.90156,-4.9625 2.65,-7.65c0.3,0.07539 0.63333,0.14206 1,0.2c0.50638,0.06823 1.07305,0.1349 1.7,0.2M710.25,531.2c0.06667,-1.63333 -0.01667,-3.2 -0.25,-4.7c-0.05599,-0.37891 -0.12266,-0.74557 -0.2,-1.1c3.63438,-0.59427 6.95104,-2.84427 9.95,-6.75c1.73346,1.30482 3.6668,2.53815 5.8,3.7c6.86667,3.66667 14.26667,5.5 22.2,5.5c6.53333,0 12.25,-2.95 17.15,-8.85c1.3151,-1.57812 2.84844,-3.77812 4.6,-6.6c2.99922,4.52318 6.41589,7.72318 10.25,9.6c-0.10286,0.09258 -0.20286,0.17591 -0.3,0.25c-0.02318,0.01732 -0.05651,0.03398 -0.1,0.05c-0.91289,0.70547 -2.27956,1.82214 -4.1,3.35c-1.2431,1.04427 -2.3431,1.84427 -3.3,2.4c-0.33685,0.22266 -0.65352,0.40599 -0.95,0.55c-4.63333,2.3 -8.5,3.93333 -11.6,4.9c-7.8,2.4 -16.73333,3.6 -26.8,3.6c-1.92227,0 -3.77227,-0.08333 -5.55,-0.25c-1.86758,-0.15521 -3.65091,-0.40521 -5.35,-0.75c-0.38346,-0.3474 -0.70013,-0.68073 -0.95,-1c-0.54544,0.08607 -0.97878,0.23607 -1.3,0.45c-1.09297,-0.26576 -2.14297,-0.58242 -3.15,-0.95c-2.45182,-0.89479 -4.38516,-1.54479 -5.8,-1.95c-0.11107,-0.03724 -0.22773,-0.07057 -0.35,-0.1c0.06667,-0.46849 0.1,-0.91849 0.1,-1.35z" fill="#c7463f"/><path d="M788.25,358.1c1.23906,0 2.4724,0.08333 3.7,0.25c1.35495,0.16445 2.70495,0.41445 4.05,0.75c0.37917,0.17188 0.7625,0.33854 1.15,0.5c11.66667,4.86667 20.45,12.2 26.35,22c4.2,6.93333 7.16667,12.9 8.9,17.9c1.83828,5.25677 2.78828,10.70677 2.85,16.35c0,0.20938 0,0.40937 0,0.6c0,2.93333 -0.83333,8.71667 -2.5,17.35c-0.40612,2.11172 -0.82279,4.16172 -1.25,6.15c-0.40612,2.11758 -0.82279,4.16758 -1.25,6.15c0,0.99518 0.11667,2.11185 0.35,3.35c0.28802,1.36732 0.72135,2.88398 1.3,4.55c1.10312,3.2043 1.86979,5.6543 2.3,7.35c-1.48737,-0.14779 -2.9707,-0.39779 -4.45,-0.75c-3.33333,-0.8 -5,-1.8 -5,-3c0,-1.7125 -0.01667,-3.37917 -0.05,-5c-0.31458,-12.42682 -1.79792,-22.42682 -4.45,-30c-1.0974,-3.13555 -2.3974,-5.90221 -3.9,-8.3c-4.84948,-7.8 -11.79948,-11.7 -20.85,-11.7c-12.43333,0 -24.08333,3.36667 -34.95,10.1c-11.36667,7.06667 -20.46667,17.03333 -27.3,29.9c0,-0.2 -0.08333,-0.35 -0.25,-0.45l-0.25,-0.05c-1.9,-3.9 -6.63333,-7.65 -14.2,-11.25c-7.4,-3.5 -14,-5.25 -19.8,-5.25c-6.06667,0 -12.75,1.08333 -20.05,3.25c-8.03333,2.4 -13.01667,5.15 -14.95,8.25c-0.16667,-0.33333 -1.16667,-4.36667 -3,-12.1c-0.17357,-0.72682 -0.34023,-1.42682 -0.5,-2.1c-0.11576,-7.05039 -1.36576,-13.28372 -3.75,-18.7c6.16602,-5.67878 12.31602,-10.32878 18.45,-13.95c3.42539,-1.97878 6.84206,-3.64544 10.25,-5c6.69336,-2.66966 14.42669,-4.56966 23.2,-5.7c6.3582,-0.8 13.2582,-1.2 20.7,-1.2c11.23333,0 22.55,1.61667 33.95,4.85c5.76667,1.63333 11.25,3.35 16.45,5.15l-0.5,-1.5c-1.31445,-1.48724 -2.93112,-2.87057 -4.85,-4.15c-0.42839,-0.74714 -0.84505,-1.58047 -1.25,-2.5c-1.43333,-3.26667 -2.15,-6.05 -2.15,-8.35c0,-4.77643 2.08333,-8.95977 6.25,-12.55c0.8737,-0.10924 1.80703,-0.22591 2.8,-0.35c4.43333,-0.56667 7.25,-0.85 8.45,-0.85z" fill="#ffa420"/><path d="M678.65,136.6c-2.59466,-0.16667 -5.27799,-0.25 -8.05,-0.25c-21.2,0 -43.03333,4.76667 -65.5,14.3c-8.95312,3.78685 -16.66979,7.77018 -23.15,11.95c-10.08958,6.58724 -17.15625,13.67057 -21.2,21.25c-9.36719,17.55117 -15.26719,32.85117 -17.7,45.9c-0.86667,4.62044 -1.3,8.95378 -1.3,13c0,10.33333 0.98333,17.9 2.95,22.7c1.09375,2.63776 3.04375,5.97109 5.85,10c2.05352,-0.77813 4.32018,-1.39479 6.8,-1.85c-0.20781,-0.5263 -0.40781,-1.0763 -0.6,-1.65c-1.13333,-3.4 -1.8,-6.88333 -2,-10.45c0,-2.10182 0.38333,-4.51849 1.15,-7.25c0.33203,-1.08555 0.71536,-2.21888 1.15,-3.4c1.93333,-5.4 4.33333,-8.15 7.2,-8.25l5.5,0.25c1.93333,1.93333 3.38333,4.33333 4.35,7.2c0.23333,0.73333 0.85,3.35 1.85,7.85c0.11888,0.52227 0.25221,1.02227 0.4,1.5c0.30078,-0.23411 0.51745,-0.41745 0.65,-0.55c0.54453,-0.51055 1.19453,-1.27721 1.95,-2.3c0.75365,-0.94714 1.60365,-2.13047 2.55,-3.55c0.24557,-0.24948 0.49557,-0.48281 0.75,-0.7c0.22344,-5.9181 3.27344,-12.18477 9.15,-18.8c6.56667,-7.4 14.85,-12.86667 24.85,-16.4c16.26667,-5.7 29.21667,-4.6 38.85,3.3c2.18229,1.80612 4.03229,3.85612 5.55,6.15c0.47865,-2.08477 1.32865,-4.53477 2.55,-7.35c2.3,-5.23333 5.21667,-9.8 8.75,-13.7c9.73333,-10.76667 20.91667,-13.15 33.55,-7.15c6.03333,3.33333 13.55,9.76667 22.55,19.3c10.3,10.86667 15.45,19.1 15.45,24.7c0,0.36458 0,0.71458 0,1.05c0.21224,0.12187 0.42891,0.23854 0.65,0.35c0.84245,0.42122 1.64245,0.82122 2.4,1.2c0.77891,0.42227 1.51224,0.82227 2.2,1.2c0.69284,-1.55052 1.19284,-2.81719 1.5,-3.8c1.72891,-5.50911 4.31224,-8.30911 7.75,-8.4c-0.39219,-5.13529 -1.35885,-10.75195 -2.9,-16.85c1.10573,-0.50078 2.3224,-1.05078 3.65,-1.65c0.71693,-0.34635 1.40026,-0.69635 2.05,-1.05c2.08555,8.91159 3.21888,16.47826 3.4,22.7c0.86667,1.20286 1.3,2.50286 1.3,3.9c0,1.03333 -0.03333,1.78333 -0.1,2.25l-0.15,0.35l-0.25,0.4c-0.12461,0.17435 -0.49128,0.27435 -1.1,0.3c-0.14844,1.47539 -0.38177,3.00872 -0.7,4.6c-0.5987,3.35977 -1.4987,7.00977 -2.7,10.95c-2.1013,6.87266 -4.3513,11.57266 -6.75,14.1c2.38438,4.32643 3.98438,8.75977 4.8,13.3c7.08594,2.60339 12.53594,6.68672 16.35,12.25c3.56667,5.23333 5.35,11.06667 5.35,17.5c0,1.43932 -0.15,2.88932 -0.45,4.35c-0.60326,3.36615 -1.93659,6.81615 -4,10.35c-0.39674,0.71419 -0.83008,1.43086 -1.3,2.15c-2.72461,4.19883 -5.89128,7.21549 -9.5,9.05c2.72852,1.05833 4.71185,2.425 5.95,4.1c0.01315,0.03828 0.02982,0.07161 0.05,0.1c1.06966,1.49102 1.60299,3.32435 1.6,5.5c0.73047,-0.27604 1.63047,-0.50937 2.7,-0.7c3.06667,-0.53333 6.98333,-0.6 11.75,-0.2c1.27474,0.10339 2.49141,0.22005 3.65,0.35c1.07357,0.12279 2.09023,0.25612 3.05,0.4c-0.56654,1.7681 -1.16654,3.73477 -1.8,5.9c-1.2276,-0.16667 -2.46094,-0.25 -3.7,-0.25c-1.2,0 -4.01667,0.28333 -8.45,0.85c-0.99297,0.12409 -1.9263,0.24076 -2.8,0.35c-1.90443,0.26237 -3.53776,0.4957 -4.9,0.7c-0.31042,2.97839 -1.21042,6.06172 -2.7,9.25c-1.59779,3.40703 -3.58112,6.20703 -5.95,8.4c4.24935,1.44753 7.81602,3.13086 10.7,5.05c1.91888,1.27943 3.53555,2.66276 4.85,4.15l0.5,1.5c-5.2,-1.8 -10.68333,-3.51667 -16.45,-5.15c-11.4,-3.23333 -22.71667,-4.85 -33.95,-4.85c-7.4418,0 -14.3418,0.4 -20.7,1.2c-8.77331,1.13034 -16.50664,3.03034 -23.2,5.7c-3.40794,1.35456 -6.82461,3.02122 -10.25,5c-6.13398,3.62122 -12.28398,8.27122 -18.45,13.95c2.38424,5.41628 3.63424,11.64961 3.75,18.7c0,0.35117 0,0.70117 0,1.05c0,3.33333 -0.5,7.15 -1.5,11.45c-1.46667,6.2 -3.71667,11.78333 -6.75,16.75c-8.83333,14.46667 -22.91667,21.7 -42.25,21.7c-6.05781,0 -11.52448,-0.75 -16.4,-2.25c0.48203,1.54076 1.08203,3.64076 1.8,6.3c1.9,6.26667 4.68333,10.75 8.35,13.45c0.6,0.43333 1.83333,1.55 3.7,3.35c1.4,1.33333 2.91667,2.38333 4.55,3.15c0.46667,0.23333 3.03333,0.9 7.7,2c4.1,0.96667 6.53333,1.88333 7.3,2.75c0.76667,0.8 1.23333,1.88333 1.4,3.25c0.06667,0.46667 0.1,1.63333 0.1,3.5c0,0.8 0.48333,1.85 1.45,3.15c0.16133,0.22005 0.31133,0.43672 0.45,0.65c2.34193,-1.15156 4.90859,-2.2349 7.7,-3.25c0.42357,-0.9362 0.89023,-1.85286 1.4,-2.75c2.83724,-4.97904 6.83724,-7.96237 12,-8.95c0.15443,-3.27396 0.70443,-6.49063 1.65,-9.65l-0.05,-0.05c-1.6875,-1.45924 -3.05417,-4.17591 -4.1,-8.15c-1,-6.36667 -1.5,-9.61667 -1.5,-9.75c0,-7.16667 3.13333,-14.61667 9.4,-22.35c6.46667,-7.96667 14.25,-13.6 23.35,-16.9c10.33333,-3.76667 20.31667,-3.53333 29.95,0.7c8.29531,3.67044 15.76198,10.12044 22.4,19.35c0.18633,0.27617 0.36966,0.54284 0.55,0.8c0.72318,-1.49401 2.03984,-3.87734 3.95,-7.15c0.41823,-0.65521 0.85156,-1.35521 1.3,-2.1c3.93333,-6.53333 6.71667,-10.73333 8.35,-12.6c4.03333,-4.76667 7.46667,-8.45 10.3,-11.05c4.43333,-4.1 8.58333,-6.83333 12.45,-8.2c18.41432,-6.51497 32.04766,-5.34831 40.9,3.5c1.07148,1.07617 2.07148,2.25951 3,3.55c4.9,6.8 7.35,15.15 7.35,25.05c0,2.73333 -0.23333,5.81667 -0.7,9.25c-0.14414,1.07721 -0.31081,2.04388 -0.5,2.9c-0.07695,0.53698 -0.17695,1.02031 -0.3,1.45c-0.12604,0.60977 -0.27604,1.1431 -0.45,1.6c0.1668,0.32018 0.3168,0.63685 0.45,0.95c-0.01237,0.07253 -0.02904,0.13919 -0.05,0.2c4.30247,1.58555 8.46914,3.95221 12.5,7.1c1.16393,0.90924 2.26393,1.84258 3.3,2.8c-0.00456,-3.67513 -0.08789,-5.95846 -0.25,-6.85c-0.0707,-0.35339 -0.1707,-0.77005 -0.3,-1.25c-0.43021,-1.6957 -1.19688,-4.1457 -2.3,-7.35c-0.57865,-1.66602 -1.01198,-3.18268 -1.3,-4.55c-0.23333,-1.23815 -0.35,-2.35482 -0.35,-3.35c0.42721,-1.98242 0.84388,-4.03242 1.25,-6.15c1.93633,-1.43021 4.26966,-3.59688 7,-6.5c0.48216,-0.5207 0.94883,-1.03737 1.4,-1.55c-0.22747,1.26797 -0.47747,2.53464 -0.75,3.8c-1.35065,6.12513 -2.06732,9.55846 -2.15,10.3c0,0.04167 0,0.075 0,0.1l2.15,8.5c0.66862,2.70625 1.16862,4.95625 1.5,6.75c0.4,1.96263 0.6,3.3793 0.6,4.25c0,2.23581 -0.13333,5.86914 -0.4,10.9c0.10039,0.10885 0.20039,0.20885 0.3,0.3c8.0612,1.5806 13.64453,4.5806 16.75,9c2.06667,2.96667 3.1,7.15 3.1,12.55c0,0.1806 0,0.36393 0,0.55c2.24844,1.04466 4.74844,2.71133 7.5,5c3.83333,3.13333 6.98333,6.55 9.45,10.25c0.68672,1.03008 1.28672,2.03008 1.8,3c1.66667,3.17839 2.5,6.16172 2.5,8.95c0,6.83333 -2.31667,13.35 -6.95,19.55c-1.98229,2.64297 -4.23229,4.85964 -6.75,6.65c-3.41523,1.54909 -6.06523,2.71576 -7.95,3.5c0.11198,0.10534 0.21198,0.20534 0.3,0.3h-0.65c-1.33346,0.40169 -2.83346,0.86836 -4.5,1.4v-0.9c-0.38646,-1.07669 -1.03646,-2.76003 -1.95,-5.05c-1.35208,0.2 -2.75208,0.3 -4.2,0.3c-8.7,0 -17.06667,-2.2 -25.1,-6.6c-0.49492,-0.27331 -1.01159,-0.57331 -1.55,-0.9c-1.56016,-0.95404 -3.27682,-2.13737 -5.15,-3.55c0.48008,0.03333 0.96341,0.05 1.45,0.05c0.48529,0 0.96862,-0.01667 1.45,-0.05c-0.57995,-0.41445 -1.16328,-0.84779 -1.75,-1.3c-0.46159,-0.35716 -0.92826,-0.72383 -1.4,-1.1c-1.79779,-1.42839 -3.26445,-2.71172 -4.4,-3.85c1.70378,0.2 3.52044,0.3 5.45,0.3c3.69531,0 7.16198,-0.5 10.4,-1.5c7.61224,-2.27799 13.94557,-7.27799 19,-15c2.43333,-3.7 4.38333,-7.76667 5.85,-12.2c0.68958,-2.08958 1.15625,-3.82292 1.4,-5.2c-0.33333,-0.44427 -0.5,-0.81094 -0.5,-1.1c0,-0.85417 0.23333,-1.45417 0.7,-1.8c-0.1026,-3.26693 -1.0026,-6.15026 -2.7,-8.65c-1.51901,-2.20794 -3.60234,-3.95794 -6.25,-5.25c2.33333,4.06966 3.5,8.05299 3.5,11.95c0,4.86667 -1.15,9.26667 -3.45,13.2c-2.2,3.8 -5.96667,7.98333 -11.3,12.55c-0.7,-0.03333 -1.15,-0.05 -1.35,-0.05c-0.38281,0.51003 -0.78281,0.99336 -1.2,1.45c-4.3681,5.06667 -10.0181,7.6 -16.95,7.6c-1.88411,0 -3.71745,-0.38333 -5.5,-1.15c-2.9957,-1.29193 -5.82904,-3.69193 -8.5,-7.2c-0.55013,-0.72161 -1.10013,-1.48828 -1.65,-2.3c-0.43451,0.4957 -0.96784,0.96237 -1.6,1.4c-0.93385,0.64857 -2.00052,1.16523 -3.2,1.55c0.14661,0.28828 0.27995,0.55495 0.4,0.8c-0.49206,-0.11341 -1.22539,-0.31341 -2.2,-0.6c-1.7,-0.5 -2.7,-0.75 -3,-0.75c-0.64544,0 -1.26211,0.5 -1.85,1.5c0.03568,0 0.06901,0 0.1,0c0.69323,0 1.3599,-0.03333 2,-0.1c0,0.20169 0,0.40169 0,0.6c0,3.66667 1.6,6.91667 4.8,9.75c3.77096,3.35781 9.3543,5.40781 16.75,6.15c0.12096,0.16745 0.23763,0.31745 0.35,0.45c1.83333,2.53997 4.33333,4.92331 7.5,7.15c1.68867,1.19167 3.57201,2.34167 5.65,3.45c7.86667,4.2 15.85,6.3 23.95,6.3c1.78711,0 3.50378,-0.11667 5.15,-0.35c0.03828,0.09323 0.07161,0.17656 0.1,0.25c0.26081,-0.07331 0.51081,-0.15664 0.75,-0.25v1.4c0.12448,0.20599 0.25781,0.40599 0.4,0.6c1.06667,1.5 1.6,2.61667 1.6,3.35c0,2.83268 -1.56667,5.78268 -4.7,8.85c1.76563,-0.44245 3.81562,-0.90911 6.15,-1.4c0.36589,-0.07318 1.31589,-0.25651 2.85,-0.55c-0.17461,0.32878 -0.35794,0.66211 -0.55,1c-1.7,3.03333 -3.95,5.9 -6.75,8.6c-0.1487,0.14297 -0.2987,0.2763 -0.45,0.4c1.78008,0.53945 3.71341,1.32279 5.8,2.35c-2.60352,1.7457 -4.72018,3.27904 -6.35,4.6c5.28346,1.39661 10.08346,3.69661 14.4,6.9c4.17357,3.09466 7.77357,6.92799 10.8,11.5c1.36354,-0.06081 2.86354,-0.14414 4.5,-0.25c0.61055,-0.03945 1.19388,-0.08945 1.75,-0.15c0.53333,1.30924 0.8,2.52591 0.8,3.65c0,3.36667 -2.9,6.18333 -8.7,8.45c-10.26667,4.03333 -28.61667,6.05 -55.05,6.05c-8.36667,0 -18.7,-1.33333 -31,-4c-13.83333,-3 -20.75,-6.08333 -20.75,-9.25c0,-1.2 2.08333,-4.68333 6.25,-10.45c1.76393,-2.43724 3.29727,-4.38724 4.6,-5.85c-1.08086,-0.34284 -2.23086,-0.74284 -3.45,-1.2c-5.1,-1.93333 -8.31667,-2.85 -9.65,-2.75c-0.07865,-0.07018 -0.16198,-0.13685 -0.25,-0.2c-14.15208,2.76328 -24.86875,4.16328 -32.15,4.2c0.0862,0.40716 0.1362,0.82383 0.15,1.25c0,1.75195 -1.28333,3.75195 -3.85,6c-0.85677,-0.30807 -1.70677,-0.60807 -2.55,-0.9c-1.8194,-0.61432 -3.38607,-1.13099 -4.7,-1.55c-2.5125,2.85638 -6.07917,5.33971 -10.7,7.45c-4.60156,2.08372 -10.70156,4.08372 -18.3,6c1.63958,1.11732 3.48958,2.23398 5.55,3.35c0.38073,0.20391 0.7474,0.38724 1.1,0.55c-14.14349,5.0388 -28.24349,8.15547 -42.3,9.35h-39c-6.66667,-0.63333 -11.35,-2.41667 -14.05,-5.35c-1.8,-2 -2.7,-4.63333 -2.7,-7.9c0,-1.93333 1.31667,-4.43333 3.95,-7.5c2.63333,-3.06667 5.93333,-5.96667 9.9,-8.7c4.08997,-2.82396 7.92331,-4.90729 11.5,-6.25c-11.56667,-2.53945 -17.35,-7.55612 -17.35,-15.05c0,-3.13333 0.78333,-6.3 2.35,-9.5c0.74023,-1.49219 1.57357,-2.74219 2.5,-3.75c-1.06979,-1.05951 -2.00313,-2.22617 -2.8,-3.5c-1.6,-2.56667 -2.58333,-5.53333 -2.95,-8.9c-0.06667,-0.56667 -0.1,-2.48333 -0.1,-5.75c0,-5.04049 0.7,-9.45716 2.1,-13.25c0.98242,-2.61406 2.29909,-4.93073 3.95,-6.95c1.64583,-2.01797 3.7125,-3.9013 6.2,-5.65c-0.04258,-0.57227 -0.04258,-1.42227 0,-2.55c0.06667,-3.6 -2.35,-6.16667 -7.25,-7.7c-2.03333,-0.66667 -4.56667,-1.93333 -7.6,-3.8c-3.23333,-2 -5.86667,-3.98333 -7.9,-5.95c-3.8,-3.76667 -6.95,-8 -9.45,-12.7c-2.53333,-4.83333 -3.8,-9.1 -3.8,-12.8c0,-0.63359 0.03333,-1.26693 0.1,-1.9c-6.99883,-3.34076 -12.46549,-8.60742 -16.4,-15.8c-0.87656,-1.60586 -1.6599,-3.23919 -2.35,-4.9c-2.4,-5.88581 -3.6,-12.15247 -3.6,-18.8c0,-13.08333 4.58333,-24.11667 13.75,-33.1c-0.2832,-0.15482 -0.56654,-0.33815 -0.85,-0.55c-2.8901,-2.02253 -5.10677,-5.58919 -6.65,-10.7c-1.3,-4.3 -1.96667,-8.8 -2,-13.5c0,-0.5832 0.01667,-1.14987 0.05,-1.7c0.0724,-1.03711 0.20573,-1.98711 0.4,-2.85c-1.48594,0.2 -2.96927,0.3 -4.45,0.3c-0.51784,0 -1.03451,-0.01667 -1.55,-0.05c-1.92253,-0.02552 -3.77253,-0.15885 -5.55,-0.4c-10.53776,-1.36315 -18.10443,-5.97982 -22.7,-13.85c-1.22734,-2.1099 -2.21068,-4.37656 -2.95,-6.8c-1,-3.40742 -1.5,-7.12409 -1.5,-11.15c0,-9.9 2.96667,-18.65 8.9,-26.25c3.72005,-4.75599 7.98672,-8.40599 12.8,-10.95c0.86471,-3.2319 2.04805,-6.26523 3.55,-9.1c-3.61875,-2.55508 -6.75208,-5.52174 -9.4,-8.9c-0.11289,-0.00677 -0.22956,-0.02344 -0.35,-0.05c0,-0.1 -0.08333,-0.25 -0.25,-0.45c-0.07135,-0.09987 -0.13802,-0.26654 -0.2,-0.5c-3.21849,-4.39414 -5.63516,-9.44414 -7.25,-15.15c-1.86667,-6.63333 -2.8,-16.8 -2.8,-30.5c0,-7.63333 2.76667,-18.1 8.3,-31.4c5.4,-12.9 10.63333,-22.06667 15.7,-27.5c1.74857,-1.86068 3.31523,-3.52734 4.7,-5c4.80117,-5.09375 7.43451,-7.86042 7.9,-8.3c6.1,-5.53333 12.48333,-9.35 19.15,-11.45c3.26667,-1 6.71667,-2.48333 10.35,-4.45c4.33333,-2.33333 7.68333,-3.96667 10.05,-4.9c10.23333,-4.03333 27.85,-7.33333 52.85,-9.9c5.14935,-0.52122 10.11602,-0.65456 14.9,-0.4c-0.2599,0.9651 -0.5599,2.04844 -0.9,3.25c-0.30625,1.07878 -0.58958,2.04544 -0.85,2.9M721.85,253.9c-1.73594,-0.2 -3.43594,-0.3 -5.1,-0.3c-11.8,0 -21.91667,2.96667 -30.35,8.9c-2.07357,1.45599 -4.07357,3.10599 -6,4.95c-3.03242,2.92852 -5.88242,6.34518 -8.55,10.25c1.03789,0.49518 2.18789,1.06185 3.45,1.7c0.32057,0.16029 0.62057,0.31029 0.9,0.45c1.69987,-2.39688 3.6832,-4.64688 5.95,-6.75c7.86667,-7.26667 17.53333,-11.41667 29,-12.45c7.6543,-0.67539 14.53763,0.15794 20.65,2.5c0.39193,-1.82083 0.87526,-4.07083 1.45,-6.75c-0.66003,-0.22513 -1.36003,-0.4418 -2.1,-0.65c-3.22083,-0.89935 -6.32083,-1.51602 -9.3,-1.85M738.4,258.65c1.34714,0.70091 2.63047,1.46758 3.85,2.3c0,-0.08138 0,-0.16471 0,-0.25c0,-0.11289 0,-0.22956 0,-0.35c0,-0.86667 1.08333,-3.38333 3.25,-7.55c0.18255,-0.35299 0.34922,-0.70299 0.5,-1.05c-0.88503,-0.54401 -1.86836,-1.16068 -2.95,-1.85c-0.11693,0.70273 -0.25026,1.33607 -0.4,1.9c-0.78464,2.81523 -2.13464,5.04857 -4.05,6.7c-0.05833,0.05508 -0.125,0.10508 -0.2,0.15M661,276.85c-0.04115,-0.03828 -0.09115,-0.08828 -0.15,-0.15c-0.75495,0.86289 -1.55495,1.71289 -2.4,2.55c-6.20495,6.15651 -11.82161,10.05651 -16.85,11.7c-0.54922,0.18828 -1.09922,0.33828 -1.65,0.45c0.55404,1.29401 1.03737,2.61068 1.45,3.95c8.47982,0.03815 15.16315,-0.94518 20.05,-2.95c1.05378,-0.40977 2.25378,-0.90977 3.6,-1.5c0.30534,-1.14362 0.63867,-2.27695 1,-3.4c0.73229,-2.14245 1.61563,-4.20911 2.65,-6.2c-2.28112,-0.32018 -4.84779,-1.80352 -7.7,-4.45M674.8,303.2c0,4.46667 1.4,9.15 4.2,14.05c4.73333,8.23333 12.23333,12.35 22.5,12.35c12.4,0 23.26667,-6.08333 32.6,-18.25c3.36667,-4.4 6.15,-9.13333 8.35,-14.2c1.86667,-4.36667 2.8,-7.68333 2.8,-9.95c0,-2.7 -0.66667,-5.58333 -2,-8.65c-1.7,-3.86667 -4.11667,-7.03333 -7.25,-9.5c-8.66667,-6.8 -21.08333,-7.11667 -37.25,-0.95c-7.63333,2.9 -13.73333,8.33333 -18.3,16.3c-3.76667,6.53333 -5.65,12.8 -5.65,18.8M664.35,313.5c-0.37917,0.1681 -0.77917,0.33477 -1.2,0.5c-4.36667,1.73333 -6.66667,2.6 -6.9,2.6c-0.9,0 -2.68333,-0.18333 -5.35,-0.55c-3.4,-0.5 -5.86667,-0.81667 -7.4,-0.95c-0.1724,-0.1724 -0.3724,-0.35573 -0.6,-0.55c-0.25195,2.06484 -0.63529,4.06484 -1.15,6c-0.5237,0.22539 -0.99036,0.40872 -1.4,0.55c-1.77878,0.65885 -3.62878,0.99219 -5.55,1c-1.06745,2.90781 -2.50078,5.74115 -4.3,8.5c-1.89375,2.89206 -4.11042,5.44206 -6.65,7.65c-0.17839,0.17799 -0.37839,0.34466 -0.6,0.5c-7.26237,6.12292 -17.0457,9.45625 -29.35,10c-5.31172,5.02135 -10.19505,8.13802 -14.65,9.35v-0.05c-1.94896,0.89987 -3.78229,1.6332 -5.5,2.2v2.35c0.44375,0.8875 0.87708,2.2375 1.3,4.05c4.09167,-1.03047 8.225,-2.73047 12.4,-5.1c2.7,-1.5 5.01667,-3.06667 6.95,-4.7c1.07461,-0.90937 1.80794,-1.64271 2.2,-2.2c10.12227,-0.66602 18.67227,-3.11602 25.65,-7.35c0.68802,0.2 1.35469,0.3 2,0.3c1.77227,0 3.8056,-0.11667 6.1,-0.35c3.75195,-0.37422 8.20195,-1.05755 13.35,-2.05c9.26667,-1.8 15.11667,-3.66667 17.55,-5.6c-0.33333,-1 -1.23333,-1.63333 -2.7,-1.9c-0.46667,-0.06667 -1.81667,-0.1 -4.05,-0.1c-1.5,0 -6.36667,0.51667 -14.6,1.55c-2.70026,0.35586 -5.70026,0.73919 -9,1.15c1.40456,-1.46393 2.70456,-3.04727 3.9,-4.75c1.85182,-2.65182 3.40182,-5.40182 4.65,-8.25c0.28568,0.13802 0.55234,0.23802 0.8,0.3c6.66667,0.16667 10.83333,0.25 12.5,0.25c6.56667,0 11.48333,-0.75 14.75,-2.25c0.25794,-0.12161 0.49128,-0.25495 0.7,-0.4c2.02578,4.19336 4.54245,7.67669 7.55,10.45c-0.85182,0.32409 -1.63516,0.74076 -2.35,1.25c-2.56667,2.63333 -4.7,4.78333 -6.4,6.45c-0.56667,0.53333 -1.21667,1.65 -1.95,3.35c-0.73333,1.76667 -1.33333,2.9 -1.8,3.4c-0.43333,0.46667 -2.43333,1.23333 -6,2.3c-2.53568,0.7276 -4.30234,1.26094 -5.3,1.6c-0.27969,-0.04284 -0.57969,-0.09284 -0.9,-0.15c-0.96667,-0.16667 -1.65,-0.25 -2.05,-0.25c-1.17669,0 -4.56003,0.46667 -10.15,1.4c-3.25326,0.55859 -7.26992,1.27526 -12.05,2.15c-6.33802,1.15521 -13.77135,2.52188 -22.3,4.1c0.93945,0.24023 2.77279,0.69023 5.5,1.35c2.76667,0.66667 4.93333,1 6.5,1c7.56667,0 14.95,-0.7 22.15,-2.1c0.84531,-0.16367 1.64531,-0.33034 2.4,-0.5c-2.21419,1.68086 -4.08086,3.28086 -5.6,4.8c-1.44414,1.44414 -2.64414,2.87747 -3.6,4.3c-2.78255,0.57656 -5.98255,1.22656 -9.6,1.95c-7.15156,1.51003 -13.66823,3.07669 -19.55,4.7c1.83958,0.55195 4.00625,0.98529 6.5,1.3c2.86667,0.36667 5.71667,0.55 8.55,0.55c1.02005,0 3.10339,-0.31667 6.25,-0.95c1.27578,-0.2681 2.72578,-0.58477 4.35,-0.95c0.2737,-0.06289 0.54036,-0.12956 0.8,-0.2c-0.1,0.65638 -0.15,1.30638 -0.15,1.95c0,1.3 0.15,2.35 0.45,3.15c0.16393,0.40234 0.36393,0.76901 0.6,1.1c-3.39492,-0.81276 -7.01159,-1.24609 -10.85,-1.3c-2.0293,-0.00755 -4.1293,0.09245 -6.3,0.3c-0.94844,0.08919 -1.89844,0.18919 -2.85,0.3c-9.70573,1.36185 -18.2724,4.86185 -25.7,10.5c0.94167,1.04427 2.00833,2.24427 3.2,3.6c0.19245,0.21732 0.37578,0.43398 0.55,0.65c0.03086,-0.0763 0.04753,-0.15964 0.05,-0.25c5.54388,-3.84922 12.32721,-6.64922 20.35,-8.4c1.28685,-0.32995 2.55352,-0.59661 3.8,-0.8c5.56901,-0.93893 10.71901,-0.67227 15.45,0.8h0.05c2.79232,-1.83099 5.34232,-3.03099 7.65,-3.6c0.42227,-0.10482 0.82227,-0.18815 1.2,-0.25c0.03672,0.09635 0.05339,0.17969 0.05,0.25c0.03333,0.16432 0.05,0.31432 0.05,0.45c0.28164,0.12135 0.56497,0.23802 0.85,0.35c0.20573,0.11432 0.40573,0.21432 0.6,0.3c2.56484,1.23854 4.98151,2.73854 7.25,4.5c2.01693,1.56719 3.81693,3.28385 5.4,5.15c1.49232,1.71628 2.79232,3.54961 3.9,5.5c1.16693,-1.61328 2.88359,-3.42995 5.15,-5.45c0.81536,-0.72604 1.66536,-1.44271 2.55,-2.15c4.09271,-3.29388 8.95937,-6.46055 14.6,-9.5c2.81185,-1.51615 5.54518,-2.88281 8.2,-4.1c2.47604,-1.10964 4.87604,-2.09297 7.2,-2.95c-1.97422,-0.00625 -4.40755,-0.07292 -7.3,-0.2c-3.86667,-0.13333 -5.91667,-0.31667 -6.15,-0.55c-1.03333,-0.13333 -2.76667,-0.48333 -5.2,-1.05c-2.46667,-0.53333 -4.65,-0.93333 -6.55,-1.2c-0.26667,0.1 -3.25,2.11667 -8.95,6.05c-3.89531,2.71576 -7.07865,4.31576 -9.55,4.8c-0.53372,0.1 -1.03372,0.15 -1.5,0.15c-0.25456,0 -0.58789,-0.03333 -1,-0.1c-0.72617,-0.06055 -1.70951,-0.21055 -2.95,-0.45c-2.09036,-0.43034 -4.19036,-0.73034 -6.3,-0.9c-0.08073,-0.33646 -0.18073,-0.68646 -0.3,-1.05c-0.35078,-1.08932 -0.60078,-2.03932 -0.75,-2.85c2.18763,1.23333 5.37096,1.85 9.55,1.85c2.83333,0 6.85,-1.91667 12.05,-5.75c5.2,-3.83333 8.1,-5.75 8.7,-5.75c1.86667,0 5.06667,0.66667 9.6,2c4.53333,1.33333 10.16667,2 16.9,2c9.96667,0 19.28333,-2.95 27.95,-8.85c4.33333,-2.96667 7.85,-5.93333 10.55,-8.9c0.83333,0 2.71667,0.41667 5.65,1.25c1.86094,0.53477 3.29427,0.90143 4.3,1.1c0.5681,0.1 1.00143,0.15 1.3,0.15c7.83333,0 14.03333,-2.16667 18.6,-6.5c0.63932,-0.60286 1.23932,-1.21953 1.8,-1.85c-1.3888,-1.16159 -3.17214,-2.06159 -5.35,-2.7c-3.33646,-0.94596 -7.60312,-1.26263 -12.8,-0.95c-3.9,0.2 -6.48333,-0.26667 -7.75,-1.4c-0.83333,-1.43333 -1.75,-2.38333 -2.75,-2.85c-0.63333,-0.23333 -2.95,-0.86667 -6.95,-1.9c-1.78073,-0.42682 -3.1974,-0.77682 -4.25,-1.05c-1.9806,0.74427 -4.01393,1.41094 -6.1,2c-6.3,1.8 -12.03333,2.7 -17.2,2.7c-5.9556,0 -11.2056,-0.98333 -15.75,-2.95c-0.83711,-0.3513 -1.65378,-0.7513 -2.45,-1.2c0.58711,-1.22109 1.25378,-2.62109 2,-4.2c0.2207,-0.4263 0.43737,-0.84297 0.65,-1.25c-4.19688,-2.33711 -7.59688,-5.82044 -10.2,-10.45c-1.09714,-1.93112 -2.0138,-3.93112 -2.75,-6c-2.08294,0.46302 -3.93294,0.84635 -5.55,1.15c-0.5457,-1.78177 -0.9957,-3.59844 -1.35,-5.45M764,299.6c0,1.86667 -0.28333,4.36667 -0.85,7.5c-0.73333,3.56667 -1.26667,6.15 -1.6,7.75v0.15c1.3,0.13333 3.81667,0.63333 7.55,1.5c2.76732,0.64063 4.48398,1.02396 5.15,1.15c0,-0.24961 0,-0.51628 0,-0.8c0,-6 -3.25,-12.35 -9.75,-19.05c-0.16458,-0.17174 -0.34792,-0.35508 -0.55,-0.55c0.03333,0.61784 0.05,1.40117 0.05,2.35M764.4,351.55c-0.97422,1.04583 -2.17422,2.2125 -3.6,3.5c-4.8,4.36667 -8.65,6.55 -11.55,6.55c-0.24479,0 -0.66146,-0.03333 -1.25,-0.1c-1.34141,-0.12917 -3.62474,-0.42917 -6.85,-0.9c-1.26927,-0.18398 -2.4026,-0.35065 -3.4,-0.5c-2.56328,-0.33333 -4.14661,-0.5 -4.75,-0.5c-0.26667,0 -1.61667,0.88333 -4.05,2.65c-3.23333,2.36667 -6.15,4.31667 -8.75,5.85c-0.51888,0.30625 -1.03555,0.60625 -1.55,0.9c-2.30026,1.28594 -4.58359,2.4026 -6.85,3.35c2.96068,-0.11211 5.77734,0.05456 8.45,0.5c1.7957,-0.14453 3.57904,-0.24453 5.35,-0.3c9.75677,-0.35143 19.3401,0.51523 28.75,2.6c0.54362,0.12057 1.07695,0.23724 1.6,0.35c0.95677,-1.15951 2.47344,-2.97617 4.55,-5.45c3.83333,-5.13333 5.75,-9.2 5.75,-12.2c0,-2.49023 -0.61667,-4.59023 -1.85,-6.3M813.6,458c-1.27461,-1.4431 -2.59128,-2.7431 -3.95,-3.9c0.58008,-0.60586 1.49674,-1.67253 2.75,-3.2c-2.93164,-2.76979 -5.48164,-4.53646 -7.65,-5.3c-4.26667,-1.63333 -7.73333,-2.88333 -10.4,-3.75c-4.83333,-1.5 -9.11667,-2.25 -12.85,-2.25c-11.56667,0 -20.48333,3.66667 -26.75,11c-5.66667,6.63333 -8.5,15.3 -8.5,26c0,1.27253 0.05,2.50586 0.15,3.7c0.04336,0.32565 0.07669,0.64232 0.1,0.95c0.36758,2.70156 1.03424,5.16823 2,7.4c0.60508,1.375 1.55508,3.09167 2.85,5.15c1.38164,-1.15365 2.64831,-2.37031 3.8,-3.65c0.63203,-0.70312 1.18203,-1.38646 1.65,-2.05c0.18997,0.35104 0.37331,0.68438 0.55,1c-0.12578,-0.36185 -0.20911,-0.57852 -0.25,-0.65c-0.23333,-0.4 -0.5,-2.01667 -0.8,-4.85c-0.3,-2.7 -0.45,-4.65 -0.45,-5.85c0,-1.02409 0.11667,-2.12409 0.35,-3.3c-0.29844,-2.55742 -0.49844,-4.32409 -0.6,-5.3c-0.06667,-0.53568 -0.1,-0.83568 -0.1,-0.9c0,-1.6 0.03333,-2.53333 0.1,-2.8c0.2,-0.7 0.83333,-1.48333 1.9,-2.35c-0.02331,0.23359 -0.05664,0.45026 -0.1,0.65c-0.26667,2.91172 -0.4,4.44505 -0.4,4.6c0,0.62161 0.1,1.40495 0.3,2.35c0.56341,-1.46589 1.28008,-3.03255 2.15,-4.7c1.16576,-2.21927 2.44909,-4.26927 3.85,-6.15c0.08451,-0.06562 0.15117,-0.14896 0.2,-0.25c-0.1,-0.30885 -0.15,-0.47552 -0.15,-0.5c0,-0.4 -0.16667,-0.96667 -0.5,-1.7c-0.33333,-0.7 -0.5,-1.26667 -0.5,-1.7c0,-0.24779 0,-0.48112 0,-0.7c0.06862,-1.7457 0.36862,-2.7957 0.9,-3.15c0.36667,0.23333 0.6,0.56667 0.7,1c0.00937,0.04714 0.00937,0.1138 0,0.2c0.03333,0.19336 0.05,0.49336 0.05,0.9c0,1.03359 0.35,2.30026 1.05,3.8c1.5138,-1.6612 3.14714,-3.1612 4.9,-4.5c0.79349,-0.60247 1.59349,-1.16914 2.4,-1.7c0.19505,-0.05195 0.39505,-0.11862 0.6,-0.2c0.65313,-0.32656 1.18646,-0.67656 1.6,-1.05c0.6431,-0.30182 1.27643,-0.58516 1.9,-0.85c-0.26237,-0.25117 -0.52904,-0.48451 -0.8,-0.7c0.06667,-0.18268 0.1,-0.36602 0.1,-0.55c0,-0.5 -0.03333,-0.8 -0.1,-0.9c-0.1,-0.1 -0.15,-0.16667 -0.15,-0.2c-0.55742,-0.22865 -1.20742,-0.26198 -1.95,-0.1c-0.10937,-0.09414 -0.22604,-0.17747 -0.35,-0.25c-0.0125,-0.01966 -0.02917,-0.03633 -0.05,-0.05v-1.1c0.71276,-0.12956 1.49609,0.02044 2.35,0.45c0.92057,0.45391 1.92057,1.22057 3,2.3c0.04323,0.04935 0.12656,0.14935 0.25,0.3c4.54336,-1.35846 9.29336,-1.30846 14.25,0.15c-1.96745,-1.33568 -3.60078,-2.38568 -4.9,-3.15c-1.13542,-0.66276 -2.00208,-1.09609 -2.6,-1.3v-0.75c3.51068,0.06497 6.97734,1.21497 10.4,3.45c0.11237,0.07461 0.21237,0.14128 0.3,0.2c1.86328,1.24922 3.44661,2.59922 4.75,4.05c2.36237,0.58008 4.57904,1.39674 6.65,2.45c2.28841,1.19076 4.23841,2.60742 5.85,4.25c0.06523,0.01003 0.11523,0.01003 0.15,0M843.85,492.05c-0.21016,0.03333 -0.46016,0.05 -0.75,0.05c-1.96667,-2.96667 -4.06667,-6.06667 -6.3,-9.3c-1.82266,-2.61927 -3.43932,-4.81927 -4.85,-6.6c-0.75729,-0.65065 -1.54063,-1.30065 -2.35,-1.95c-7.99271,-6.42591 -15.47604,-10.65924 -22.45,-12.7c-3.23802,-0.96667 -6.37135,-1.45 -9.4,-1.45l-5,0.25c-5.15964,4.14844 -9.64297,8.6651 -13.45,13.55c-1.08906,1.40781 -2.1224,2.84115 -3.1,4.3c-1.31341,1.96549 -2.44674,3.86549 -3.4,5.7c-2.36667,4.64518 -3.55,8.87852 -3.55,12.7c0,1.37695 0.23333,2.79362 0.7,4.25c1.58216,2.1901 3.68216,5.02344 6.3,8.5l-0.35,1.05c3.77305,4.0862 8.30638,6.65286 13.6,7.7l4,-0.25c0.63333,-0.5 1.33333,-1.26667 2.1,-2.3c0.31406,-0.32617 0.66406,-0.62617 1.05,-0.9c0.09193,-0.03828 0.17526,-0.08828 0.25,-0.15c-1.06719,-2.12878 -2.05052,-4.41211 -2.95,-6.85c-0.96667,-2.6 -1.45,-4.08333 -1.45,-4.45c0,-2.89023 0.5,-5.5069 1.5,-7.85c1.19414,-2.76758 3.11081,-5.13424 5.75,-7.1c3.68854,-2.7457 7.98854,-4.21237 12.9,-4.4c1.01953,-0.03385 2.05286,-0.01719 3.1,0.05c6.36667,0.4 11.7,2.65 16,6.75c1.98932,1.87956 3.57266,4.01289 4.75,6.4c0.39414,0.80742 0.74414,1.64076 1.05,2.5c0.96667,2.80052 1.45,5.90052 1.45,9.3c0,0.72305 -0.06667,1.45638 -0.2,2.2c0.07786,-0.10013 0.14453,-0.20013 0.2,-0.3c3.66667,-6.63333 5.5,-11.48333 5.5,-14.55c0,-1.3737 -0.21667,-2.75703 -0.65,-4.15M802.6,495.7c-0.45964,0.53932 -0.9263,1.08932 -1.4,1.65c-1.0694,1.41901 -2.13607,3.00234 -3.2,4.75c0.8,4 2.63333,8.15 5.5,12.45c0.8668,1.31901 1.75013,2.53568 2.65,3.65c-0.26667,-1.85378 -0.4,-4.97044 -0.4,-9.35c0,-1.43594 0.45,-2.81927 1.35,-4.15c0.86458,-1.24557 2.11458,-2.44557 3.75,-3.6c2.21836,-1.60091 4.66836,-2.76758 7.35,-3.5c1.21484,-0.3431 2.48151,-0.5931 3.8,-0.75c2.64167,-0.33021 5.00833,-0.23021 7.1,0.3c-0.10599,-0.12734 -0.22266,-0.26068 -0.35,-0.4c-1.92747,-2.5388 -4.16081,-4.4888 -6.7,-5.85c-2.25898,-1.20768 -4.47565,-1.85768 -6.65,-1.95c-4.44922,-0.12161 -8.71589,2.12839 -12.8,6.75M824.1,502.35c-2.10521,0 -3.98854,0.28333 -5.65,0.85c-3.00521,1.0707 -5.22187,3.1207 -6.65,6.15c-1.1,2.36667 -1.61667,4.86667 -1.55,7.5c0,0.19779 0.05,0.39779 0.15,0.6c0.38477,0.96497 1.60143,2.14831 3.65,3.55c1.95664,1.34271 3.38997,2.32604 4.3,2.95c4.50651,-1.19453 8.17318,-3.39453 11,-6.6c2.17201,-2.48594 3.48867,-4.9026 3.95,-7.25c-0.28815,-0.72643 -0.55482,-1.3431 -0.8,-1.85c-1.83333,-3.93333 -4.63333,-5.9 -8.4,-5.9M781.65,452.1c3.31276,-1.08724 6.74609,-1.67057 10.3,-1.75c-1.60911,-0.33333 -3.24245,-0.5 -4.9,-0.5c-2.33906,0 -4.55573,0.25 -6.65,0.75c0.36654,0.43971 0.7832,0.93971 1.25,1.5M778.3,451.15c-4.69622,1.54948 -8.76289,4.41615 -12.2,8.6c0.16276,0.2668 0.32943,0.53346 0.5,0.8c0.34714,0.53867 0.74714,1.12201 1.2,1.75c0.44792,-0.57526 0.91458,-1.15859 1.4,-1.75c0.26576,-0.31927 0.53242,-0.63594 0.8,-0.95c2.58568,-2.95508 5.90234,-5.23841 9.95,-6.85c-0.56849,-0.56094 -1.11849,-1.09427 -1.65,-1.6M786.25,456.35c-6.83333,0 -12.56667,4.91667 -17.2,14.75c-1.0776,2.2724 -2.0276,4.6724 -2.85,7.2c-0.35964,1.0806 -0.69297,2.1806 -1,3.3c-0.0194,0.07044 -0.03607,0.13711 -0.05,0.2c-0.76667,2.78685 -1.15,4.58685 -1.15,5.4c0,0.64961 0.05,1.29961 0.15,1.95c0.54271,-2.29479 1.32604,-4.64479 2.35,-7.05c0.64414,-1.4625 1.36081,-2.94583 2.15,-4.45c1.49258,-2.72083 3.27591,-5.50417 5.35,-8.35c2.83333,-3.86667 5.78333,-7.2 8.85,-10c1.34557,-1.20951 2.56224,-2.19284 3.65,-2.95c-0.07422,0 -0.15755,0 -0.25,0M645.15,411.9c-0.63333,-1.26667 -2.96667,-4.11667 -7,-8.55c-1.96667,-2.2 -3.76667,-3.63333 -5.4,-4.3c-2.9,-1.26667 -7.48333,-1.9 -13.75,-1.9c-0.76667,0 -2.03333,-0.08333 -3.8,-0.25c-0.96667,-0.1 -2.45,-0.01667 -4.45,0.25c-4.26667,1.3 -6.88333,2.21667 -7.85,2.75c-7.23333,3.93333 -12.85,8.76667 -16.85,14.5c-3.7,5.3 -5.55,10.66667 -5.55,16.1c0,5.2 1.51667,10.13333 4.55,14.8c3.9,5.93333 9.68333,10.2 17.35,12.8h10.1c12.66667,-0.36667 21.96667,-5.78333 27.9,-16.25c3.93333,-6.9 5.9,-14.31667 5.9,-22.25c0,-3.66667 -0.38333,-6.23333 -1.15,-7.7M698.9,456.35c-2.53333,1.16667 -5.83333,1.75 -9.9,1.75c-3.96667,-0.1 -6.55,-0.13333 -7.75,-0.1c-1.73333,0 -3.1,0.26667 -4.1,0.8c-0.96667,0.46667 -2.35,1.61667 -4.15,3.45c-1.16667,1.2 -3.75,3.81667 -7.75,7.85c-2.03333,2 -4.51667,5.31667 -7.45,9.95c-0.55391,0.8849 -1.10391,1.76823 -1.65,2.65c0.85846,1.09245 1.92513,2.39245 3.2,3.9c-0.33216,0.64557 -0.63216,1.27891 -0.9,1.9c-0.04557,0.10391 -0.09557,0.20391 -0.15,0.3c-0.02487,0.1431 -0.0582,0.2931 -0.1,0.45c-0.03516,0.06016 -0.08516,0.11016 -0.15,0.15c-0.66458,1.70951 -1.19792,3.52617 -1.6,5.45c0.93229,-0.3987 1.94896,-0.73203 3.05,-1c-0.33333,1.5 -1.4,4.73333 -3.2,9.7c-0.27604,0.74414 -0.52604,1.44414 -0.75,2.1c-0.03333,2.06172 -0.05,4.54505 -0.05,7.45c0,0.96667 -0.08333,1.43333 -0.25,1.4c-0.45156,-0.15052 -0.76823,-0.21719 -0.95,-0.2c0.29271,1.18112 0.79271,2.54779 1.5,4.1c1.4,3.03333 3.21667,5.85 5.45,8.45c5.55951,6.56745 12.14284,10.11745 19.75,10.65c0.68932,0.06667 1.38932,0.1 2.1,0.1c8.03333,0 13.5,-1.91667 16.4,-5.75c0.93333,-1.2 1.55,-2.53333 1.85,-4c0.1,-1.26667 0.15,-1.93333 0.15,-2c0,-1.56667 -2.28333,-6.03333 -6.85,-13.4c-0.47292,-0.76562 -0.92292,-1.49896 -1.35,-2.2c-2.79362,-4.45677 -4.81029,-7.50677 -6.05,-9.15l0.5,-0.75c2.37773,1.14206 4.82773,2.84206 7.35,5.1c0.37969,-1.03984 1.09635,-1.82318 2.15,-2.35c0.22826,0.16302 0.67826,0.62969 1.35,1.4c0.74036,0.85078 1.7237,2.03411 2.95,3.55c2.1,2.56667 4.66667,4.58333 7.7,6.05c-0.56667,0.83333 -1.86667,1.25 -3.9,1.25c-0.54922,0 -1.08255,-0.03333 -1.6,-0.1c1.20221,1.68555 2.15221,3.23555 2.85,4.65c0.73086,-0.36536 1.58086,-0.73203 2.55,-1.1c3.9,-1.46667 6.01667,-2.53333 6.35,-3.2c1.9,-3.7 3.23333,-6.7 4,-9c1.03333,-2.9 1.91667,-5.5 2.65,-7.8c0.37161,-1.16784 0.68828,-2.25117 0.95,-3.25c2.32786,0.89245 4.6612,1.67578 7,2.35c1.1,-4.29609 1.65,-8.31276 1.65,-12.05c0,-0.18789 -0.15,-0.53789 -0.45,-1.05c-0.35026,-0.62917 -0.95026,-1.52917 -1.8,-2.7c-1.5,-2.03333 -2.25,-3.28333 -2.25,-3.75c0,-0.4 0.16667,-1.81667 0.5,-4.25c0.01003,-0.07227 0.01003,-0.1556 0,-0.25c0.33333,-2.24635 0.5,-3.57969 0.5,-4c0,-1.2612 -0.41667,-2.57786 -1.25,-3.95c-1.12852,-1.83802 -3.04518,-3.77135 -5.75,-5.8c-4.93333,-3.66667 -9.93333,-5.5 -15,-5.5c-2.4,0 -4.85,0.58333 -7.35,1.75M649.7,519.25c-0.8,-2.53333 -1.2,-4.33333 -1.2,-5.4c0,-5.02708 0.33333,-8.67708 1,-10.95c-1.66888,1.70221 -3.21888,3.90221 -4.65,6.6c-2.56667,4.8 -3.85,9.08333 -3.85,12.85c0,1.8 0.45,4.1 1.35,6.9c1.2,3.8 2.91667,7.25 5.15,10.35c1.20221,1.66458 2.50221,3.16458 3.9,4.5c4.90443,4.71471 11.05443,7.56471 18.45,8.55c-0.30781,0.31081 -0.64115,0.61081 -1,0.9c-2.02552,1.63112 -3.99219,2.81445 -5.9,3.55c-1.83581,1.17474 -2.80247,1.79141 -2.9,1.85c-5.76667,2.76667 -12.03333,4.15 -18.8,4.15c-6.91393,0 -12.34727,-1.2 -16.3,-3.6c-0.92682,2.05534 -1.56016,3.85534 -1.9,5.4c5.49271,2.8 12.89271,4.2 22.2,4.2c6.16667,0 12.18333,-1.66667 18.05,-5c3.72396,-2.10378 6.09063,-3.93711 7.1,-5.5c2.65052,0.33333 5.43385,0.5 8.35,0.5c2.04792,0 4.01458,-0.18333 5.9,-0.55c5.7849,-1.01784 10.8849,-3.63451 15.3,-7.85c0.88529,-0.79492 1.73529,-1.66159 2.55,-2.6c2.46667,-2.8 4.41667,-5.86667 5.85,-9.2c0.23659,-0.55417 0.45326,-1.10417 0.65,-1.65c-0.8543,-1.33255 -1.93763,-3.38255 -3.25,-6.15c-1.85768,3.73789 -3.69102,6.77122 -5.5,9.1c-4.15221,2.6 -9.81888,3.9 -17,3.9c-0.88216,0 -1.74883,-0.03333 -2.6,-0.1c-11.41354,-0.60482 -20.11354,-5.40482 -26.1,-14.4c-2.1,-3.13333 -3.71667,-6.58333 -4.85,-10.35M710.5,532.65c-0.12591,1.39766 -0.30924,3.08099 -0.55,5.05c0.46471,0.37826 0.94805,0.72826 1.45,1.05c2.61211,1.62201 6.34544,2.72201 11.2,3.3c0.30273,0.21107 0.6194,0.41107 0.95,0.6c1.9,1.1 4.55,2.33333 7.95,3.7c3.02695,1.65104 5.52695,2.95104 7.5,3.9c0.91354,0.46497 1.71354,0.84831 2.4,1.15c5.86667,2.63333 10.65,3.95 14.35,3.95c0.66719,0 3.15052,-2.11667 7.45,-6.35c1.95911,-1.9099 4.27578,-4.24323 6.95,-7c4.41484,-4.57187 8.01484,-8.40521 10.8,-11.5c1.52409,-0.97357 2.89076,-1.97357 4.1,-3c0.79648,-0.66536 1.46315,-1.2987 2,-1.9c-0.92214,-0.39857 -2.1388,-0.91523 -3.65,-1.55c-1.59492,-0.68581 -2.94492,-1.26914 -4.05,-1.75c0.04349,-0.01602 0.07682,-0.03268 0.1,-0.05c0.09714,-0.07409 0.19714,-0.15742 0.3,-0.25c-3.83411,-1.87682 -7.25078,-5.07682 -10.25,-9.6c-1.75156,2.82187 -3.2849,5.02187 -4.6,6.6c-4.9,5.9 -10.61667,8.85 -17.15,8.85c-7.93333,0 -15.33333,-1.83333 -22.2,-5.5c-2.1332,-1.16185 -4.06654,-2.39518 -5.8,-3.7c-2.99896,3.90573 -6.31562,6.15573 -9.95,6.75c0.07734,0.35443 0.14401,0.72109 0.2,1.1c0.23333,1.5 0.31667,3.06667 0.25,4.7c0,0.43151 -0.03333,0.88151 -0.1,1.35c0.12227,0.02943 0.23893,0.06276 0.35,0.1M764.75,462.65c-0.09479,-0.23372 -0.19479,-0.46706 -0.3,-0.7c-0.17591,0.30664 -0.35924,0.60664 -0.55,0.9c-2.60326,3.9862 -4.41992,7.96953 -5.45,11.95c0.41211,1.19023 0.84544,2.2069 1.3,3.05c1.21654,-4.39688 3.29987,-8.76354 6.25,-13.1c-0.40911,-0.53919 -0.82578,-1.23919 -1.25,-2.1M757.65,479.5c-0.1,1.00859 -0.15,2.00859 -0.15,3c0,0.75612 0.33333,2.23945 1,4.45c0,-0.5474 0.01667,-1.0974 0.05,-1.65c0.06237,-1.28438 0.1957,-2.56771 0.4,-3.85c-0.47161,-0.47031 -0.90495,-1.12031 -1.3,-1.95M729.4,500.3c-0.36667,-0.05794 -0.7,-0.12461 -1,-0.2c-0.74844,2.6875 -1.63177,5.2375 -2.65,7.65c0.95039,0.4 1.86706,0.6 2.75,0.6c7.73333,0 15.76667,-1.58333 24.1,-4.75c1.79102,-0.67344 3.49102,-1.35677 5.1,-2.05c-0.74883,-0.88594 -1.43216,-1.68594 -2.05,-2.4c-0.73229,-0.87695 -1.34896,-1.61029 -1.85,-2.2c-0.10273,0.03828 -0.20273,0.07161 -0.3,0.1c-1.64896,0.60898 -3.56562,1.20898 -5.75,1.8c-5.03333,1.33333 -8.7,2 -11,2c-1.56667,0 -3.45,-0.11667 -5.65,-0.35c-0.62695,-0.0651 -1.19362,-0.13177 -1.7,-0.2M794.5,575.6c-0.96667,0.13333 -3.91667,0.93333 -8.85,2.4c-5.2,1.53333 -8.33333,2.56667 -9.4,3.1c-1.09466,0.51732 -2.72799,1.06732 -4.9,1.65c0.20716,0.09831 0.40716,0.19831 0.6,0.3c3.14375,1.67669 5.79375,2.76003 7.95,3.25c0.65378,-0.25443 1.28711,-0.52109 1.9,-0.8c3.96667,-1.8 7.16667,-3.78333 9.6,-5.95c1.8,-1.6 2.83333,-2.91667 3.1,-3.95M784.25,589.2c0.07786,3.6349 0.27786,6.50156 0.6,8.6c0.96745,-1.11849 1.78411,-2.11849 2.45,-3c1.12448,0.2 2.14115,0.3 3.05,0.3c1.66667,0 2.21667,-0.08333 1.65,-0.25v-1.25c-1.12227,-0.65638 -2.18893,-1.27305 -3.2,-1.85l-0.3,-0.9c-0.46667,-0.3 -0.76667,-0.48333 -0.9,-0.55c-0.22305,-0.12747 -0.80638,-0.19414 -1.75,-0.2c-0.53893,-0.30911 -1.07227,-0.60911 -1.6,-0.9M730.35,588.9c-2.48385,0.13333 -4.85052,0.2 -7.1,0.2c-1.5,0 -6.91667,-0.66667 -16.25,-2v1.5c2.33333,0.36667 4.98333,1.3 7.95,2.8c2.90964,0.93789 7.14297,1.53789 12.7,1.8c0.43828,-0.58555 0.92161,-1.23555 1.45,-1.95c0.60378,-0.82109 1.15378,-1.62109 1.65,-2.4c-0.12539,0.02604 -0.25872,0.04271 -0.4,0.05M652.25,591.1c1.83333,0 5.33333,-1.25 10.5,-3.75l-0.25,-0.5c-6.29049,-0.25326 -11.85716,-0.61992 -16.7,-1.1c-1.89492,2.04922 -3.46159,3.76589 -4.7,5.15c0.13255,-0.05482 0.24922,-0.12148 0.35,-0.2c3.32305,0.26667 6.92305,0.4 10.8,0.4M837.85,582.45c-3.43789,2.26615 -6.05456,4.23281 -7.85,5.9c0.16667,0.26667 0.3,0.53333 0.4,0.8c0.16667,0.13333 0.78333,0.2 1.85,0.2c4.71563,0 9.23229,-1.15 13.55,-3.45c-1.90534,-0.97865 -4.38867,-2.06198 -7.45,-3.25c-0.15625,-0.06094 -0.32292,-0.1276 -0.5,-0.2M558.65,286.15c1.21758,-1.84531 2.58424,-3.59531 4.1,-5.25c-0.13906,-0.09388 -0.28906,-0.19388 -0.45,-0.3c-2.0306,0.275 -4.5806,0.425 -7.65,0.45c1.23659,1.62891 2.56992,3.32891 4,5.1M545.75,315.55c0,-0.90898 0.05,-1.82565 0.15,-2.75c-1.03437,1.25651 -1.91771,2.35651 -2.65,3.3c-0.83333,1.1 -2.06667,4.11667 -3.7,9.05c-1.225,3.60299 -2.00833,6.28633 -2.35,8.05c0.11445,-0.09779 0.23112,-0.19779 0.35,-0.3c2.7,-2.3 5.98333,-4.15 9.85,-5.55c-1.1,-2.66667 -1.65,-6.6 -1.65,-11.8M638.95,288.65c0.4026,-0.31576 0.76927,-0.61576 1.1,-0.9c-2.81901,-4.74727 -7.66901,-9.11393 -14.55,-13.1c-9.86667,-5.7 -20.03333,-8.55 -30.5,-8.55c-3.6,0 -5.68333,0.03333 -6.25,0.1c-0.38216,0.0612 -1.04883,0.22786 -2,0.5c0.04323,1.26862 0.14323,3.41862 0.3,6.45c0.01068,0.1776 0.01068,0.34427 0,0.5c0.81263,-0.03333 1.6293,-0.05 2.45,-0.05c19.83333,0 33.56667,4.75 41.2,14.25c1.08737,1.35299 2.03737,2.78633 2.85,4.3c0.17695,0.3306 0.34362,0.64727 0.5,0.95c0.62643,-0.55521 1.30977,-1.17187 2.05,-1.85c1.08724,-0.98229 2.03724,-1.84896 2.85,-2.6M625.8,288.95c-6.8,-7.2 -16.31667,-11.18333 -28.55,-11.95c-13.1,0.2 -22.4,4.05 -27.9,11.55c-3.63333,4.93333 -5.45,11.15 -5.45,18.65c0,6.26667 1.78333,12.06667 5.35,17.4c6.66667,9.93333 18.25,14.9 34.75,14.9c7.96667,0 14.71667,-2.63333 20.25,-7.9c6.33333,-6 9.5,-14.25 9.5,-24.75c0,-6.26667 -2.65,-12.23333 -7.95,-17.9M582.45,261.9c-0.31016,0.29401 -0.62682,0.59401 -0.95,0.9c-0.9793,0.9237 -1.89596,1.7737 -2.75,2.55c0.74206,1.30547 1.59206,2.50547 2.55,3.6c0.96953,-0.30469 1.95286,-0.58802 2.95,-0.85c-0.09844,-0.17695 -0.19844,-0.36029 -0.3,-0.55c-0.64987,-1.37643 -1.1332,-3.12643 -1.45,-5.25c-0.02018,-0.13112 -0.03685,-0.26445 -0.05,-0.4M759.4,533.5c3.1,-0.96667 6.96667,-2.6 11.6,-4.9c0.29648,-0.14401 0.61315,-0.32734 0.95,-0.55c-0.72331,1.11393 -1.55664,2.34727 -2.5,3.7c-1.69922,2.44466 -3.11589,4.41133 -4.25,5.9c-9.02682,2.98659 -18.87682,4.61992 -29.55,4.9c-2.44701,-1.74401 -5.31367,-3.64401 -8.6,-5.7c1.77773,0.16667 3.62773,0.25 5.55,0.25c10.06667,0 19,-1.2 26.8,-3.6z" fill="#000000"/><path d="M758.95,481.45c-0.2043,1.28229 -0.33763,2.56562 -0.4,3.85c-0.03333,0.5526 -0.05,1.1026 -0.05,1.65c-0.66667,-2.21055 -1,-3.69388 -1,-4.45c0,-0.99141 0.05,-1.99141 0.15,-3c0.39505,0.82969 0.82839,1.47969 1.3,1.95M766,464.75c-2.95013,4.33646 -5.03346,8.70313 -6.25,13.1c-0.45456,-0.8431 -0.88789,-1.85977 -1.3,-3.05c1.03008,-3.98047 2.84674,-7.9638 5.45,-11.95c0.19076,-0.29336 0.37409,-0.59336 0.55,-0.9c0.10521,0.23294 0.20521,0.46628 0.3,0.7c0.42422,0.86081 0.84089,1.56081 1.25,2.1M769.2,460.55c-0.48542,0.59141 -0.95208,1.17474 -1.4,1.75c-0.45286,-0.62799 -0.85286,-1.21133 -1.2,-1.75c0.37734,0.03333 0.76068,0.05 1.15,0.05c0.47435,0 0.95768,-0.01667 1.45,-0.05M832.5,508.25c0.24518,0.5069 0.51185,1.12357 0.8,1.85c-0.46133,2.3474 -1.77799,4.76406 -3.95,7.25c-2.82682,3.20547 -6.49349,5.40547 -11,6.6c-0.91003,-0.62396 -2.34336,-1.60729 -4.3,-2.95c-2.04857,-1.40169 -3.26523,-2.58503 -3.65,-3.55c-0.1,-0.20221 -0.15,-0.40221 -0.15,-0.6c-0.06667,-2.63333 0.45,-5.13333 1.55,-7.5c1.42813,-3.0293 3.64479,-5.0793 6.65,-6.15c1.66146,-0.56667 3.54479,-0.85 5.65,-0.85c3.76667,0 6.56667,1.96667 8.4,5.9M806.15,518.2c-0.89987,-1.11432 -1.7832,-2.33099 -2.65,-3.65c-2.86667,-4.3 -4.7,-8.45 -5.5,-12.45c1.06393,-1.74766 2.1306,-3.33099 3.2,-4.75c1.43776,1.82773 3.40443,4.27773 5.9,7.35c-0.9,1.33073 -1.35,2.71406 -1.35,4.15c0,4.37956 0.13333,7.49622 0.4,9.35M755.6,469.15c0.10156,0.97591 0.30156,2.74258 0.6,5.3c-0.23333,1.17591 -0.35,2.27591 -0.35,3.3c0,1.2 0.15,3.15 0.45,5.85c0.3,2.83333 0.56667,4.45 0.8,4.85c0.04089,0.07148 0.12422,0.28815 0.25,0.65c-0.17669,-0.31562 -0.36003,-0.64896 -0.55,-1c-1.31159,-2.56641 -2.16159,-5.01641 -2.55,-7.35c-0.03294,-0.17396 -0.06628,-0.35729 -0.1,-0.55c-0.1,-0.76211 -0.15,-1.51211 -0.15,-2.25c0,-1.46667 0.33333,-3.63333 1,-6.5c0.18099,-0.78216 0.38099,-1.54883 0.6,-2.3M760.25,458.1c0.92292,0.77174 1.93958,1.35508 3.05,1.75c-1.40091,1.88073 -2.68424,3.93073 -3.85,6.15c-0.86992,1.66745 -1.58659,3.23411 -2.15,4.7c-0.2,-0.94505 -0.3,-1.72839 -0.3,-2.35c0,-0.15495 0.13333,-1.68828 0.4,-4.6c0.50091,-1.14518 1.03424,-2.26185 1.6,-3.35c0.40625,-0.79414 0.82292,-1.56081 1.25,-2.3z" fill="#343545"/><path d="M779.95,452.75c-4.04766,1.61159 -7.36432,3.89492 -9.95,6.85c-0.26758,0.31406 -0.53424,0.63073 -0.8,0.95c-0.49232,0.03333 -0.97565,0.05 -1.45,0.05c-0.38932,0 -0.77266,-0.01667 -1.15,-0.05c-0.17057,-0.26654 -0.33724,-0.5332 -0.5,-0.8c3.43711,-4.18385 7.50378,-7.05052 12.2,-8.6c0.53151,0.50573 1.08151,1.03906 1.65,1.6M780.4,450.6c2.09427,-0.5 4.31094,-0.75 6.65,-0.75c1.65755,0 3.29089,0.16667 4.9,0.5c-3.55391,0.07943 -6.98724,0.66276 -10.3,1.75c-0.4668,-0.56029 -0.88346,-1.06029 -1.25,-1.5M815.4,488.95c2.17435,0.09232 4.39102,0.74232 6.65,1.95c2.53919,1.3612 4.77253,3.3112 6.7,5.85c0.12734,0.13932 0.24401,0.27266 0.35,0.4c-2.09167,-0.53021 -4.45833,-0.63021 -7.1,-0.3c-1.31849,0.1569 -2.58516,0.4069 -3.8,0.75c-2.68164,0.73242 -5.13164,1.89909 -7.35,3.5c-1.63542,1.15443 -2.88542,2.35443 -3.75,3.6c-2.49557,-3.07227 -4.46224,-5.52227 -5.9,-7.35c0.4737,-0.56068 0.94036,-1.11068 1.4,-1.65c4.08411,-4.62161 8.35078,-6.87161 12.8,-6.75M776.45,449.45c-0.62357,0.26484 -1.2569,0.54818 -1.9,0.85c0.61003,-0.4819 0.97669,-0.99857 1.1,-1.55c0.27096,0.21549 0.53763,0.44883 0.8,0.7M762.35,455.7c0,0.43333 0.16667,1 0.5,1.7c0.33333,0.73333 0.5,1.3 0.5,1.7c0,0.02448 0.05,0.19115 0.15,0.5c-0.04883,0.10104 -0.11549,0.18438 -0.2,0.25c-1.11042,-0.39492 -2.12708,-0.97826 -3.05,-1.75c0.67773,-1.10846 1.37773,-2.1418 2.1,-3.1c0,0.21888 0,0.45221 0,0.7M767.15,452c0,0.53333 0.08333,0.86667 0.25,1c0.13333,0.06667 0.41667,0.13333 0.85,0.2c0.78828,-0.30313 2.15495,-0.85312 4.1,-1.65c-0.80651,0.53086 -1.60651,1.09753 -2.4,1.7c-1.75286,1.3388 -3.3862,2.8388 -4.9,4.5c-0.7,-1.49974 -1.05,-2.76641 -1.05,-3.8c0,-0.40664 -0.01667,-0.70664 -0.05,-0.9c2.68893,-2.95026 5.77227,-5.05026 9.25,-6.3c0.12396,0.07253 0.24062,0.15586 0.35,0.25c-0.94336,0.2194 -2.04336,0.78607 -3.3,1.7c-2.06667,1.46667 -3.1,2.56667 -3.1,3.3M781.6,445.35c2.26849,0 4.43516,0.1 6.5,0.3c1.29922,0.76432 2.93255,1.81432 4.9,3.15c-4.95664,-1.45846 -9.70664,-1.50846 -14.25,-0.15c-0.12344,-0.15065 -0.20677,-0.25065 -0.25,-0.3c-1.07943,-1.07943 -2.07943,-1.84609 -3,-2.3c1.9263,-0.46667 3.95964,-0.7 6.1,-0.7M813.6,458c-0.03477,0.01003 -0.08477,0.01003 -0.15,0c-1.61159,-1.64258 -3.56159,-3.05924 -5.85,-4.25c-2.07096,-1.05326 -4.28763,-1.86992 -6.65,-2.45c-1.30339,-1.45078 -2.88672,-2.80078 -4.75,-4.05c-0.08763,-0.05872 -0.18763,-0.12539 -0.3,-0.2c4.60378,1.24935 8.62044,3.14935 12.05,5.7c0.58294,0.43008 1.14961,0.88008 1.7,1.35c1.35872,1.1569 2.67539,2.4569 3.95,3.9z" fill="#485e84"/><path d="M773.55,447c0.74258,-0.16198 1.39258,-0.12865 1.95,0.1c0,0.03333 0.05,0.1 0.15,0.2c0.06667,0.1 0.1,0.4 0.1,0.9c0,0.18398 -0.03333,0.36732 -0.1,0.55c-0.12331,0.55143 -0.48997,1.0681 -1.1,1.55c-0.41354,0.37344 -0.94687,0.72344 -1.6,1.05c-0.20495,0.08138 -0.40495,0.14805 -0.6,0.2c-1.94505,0.79688 -3.31172,1.34687 -4.1,1.65c-0.43333,-0.06667 -0.71667,-0.13333 -0.85,-0.2c-0.16667,-0.13333 -0.25,-0.46667 -0.25,-1c0,-0.73333 1.03333,-1.83333 3.1,-3.3c1.25664,-0.91393 2.35664,-1.4806 3.3,-1.7z" fill="#8fbbbe"/><path d="M766.25,357.85c0,3 -1.91667,7.06667 -5.75,12.2c-2.07656,2.47383 -3.59323,4.29049 -4.55,5.45c-0.52305,-0.11276 -1.05638,-0.22943 -1.6,-0.35c-9.4099,-2.08477 -18.99323,-2.95143 -28.75,-2.6c-1.77096,0.05547 -3.5543,0.15547 -5.35,0.3c-2.67266,-0.44544 -5.48932,-0.61211 -8.45,-0.5c2.26641,-0.9474 4.54974,-2.06406 6.85,-3.35c0.51445,-0.29375 1.03112,-0.59375 1.55,-0.9c2.6,-1.53333 5.51667,-3.48333 8.75,-5.85c2.43333,-1.76667 3.78333,-2.65 4.05,-2.65c0.60339,0 2.18672,0.16667 4.75,0.5c0.9974,0.14935 2.13073,0.31602 3.4,0.5c3.22526,0.47083 5.50859,0.77083 6.85,0.9c0.58854,0.06667 1.00521,0.1 1.25,0.1c2.9,0 6.75,-2.18333 11.55,-6.55c1.42578,-1.2875 2.62578,-2.45417 3.6,-3.5c1.23333,1.70977 1.85,3.80977 1.85,6.3M677.05,383.65c-5.64062,3.03945 -10.50729,6.20612 -14.6,9.5c-0.88464,0.70729 -1.73464,1.42396 -2.55,2.15c-2.26641,2.02005 -3.98307,3.83672 -5.15,5.45c-1.10768,-1.95039 -2.40768,-3.78372 -3.9,-5.5c-1.58307,-1.86615 -3.38307,-3.58281 -5.4,-5.15c-2.26849,-1.76146 -4.68516,-3.26146 -7.25,-4.5c-0.19427,-0.08568 -0.39427,-0.18568 -0.6,-0.3c-0.28503,-0.11198 -0.56836,-0.22865 -0.85,-0.35c0,-0.13568 -0.01667,-0.28568 -0.05,-0.45c0.00339,-0.07031 -0.01328,-0.15365 -0.05,-0.25c-0.06862,-0.41328 -0.21862,-0.84661 -0.45,-1.3c0.10026,0.04831 0.20026,0.09831 0.3,0.15c0.1763,0.01302 0.34297,0.02969 0.5,0.05c2.10964,0.16966 4.20964,0.46966 6.3,0.9c1.24049,0.23945 2.22383,0.38945 2.95,0.45c0.41211,0.06667 0.74544,0.1 1,0.1c0.46628,0 0.96628,-0.05 1.5,-0.15c2.47135,-0.48424 5.65469,-2.08424 9.55,-4.8c5.7,-3.93333 8.68333,-5.95 8.95,-6.05c1.9,0.26667 4.08333,0.66667 6.55,1.2c2.43333,0.56667 4.16667,0.91667 5.2,1.05c0.23333,0.23333 2.28333,0.41667 6.15,0.55c2.89245,0.12708 5.32578,0.19375 7.3,0.2c-2.32396,0.85703 -4.72396,1.84036 -7.2,2.95c-2.65482,1.21719 -5.38815,2.58385 -8.2,4.1z" fill="#246f44"/><path d="M681.25,339.55c0.09779,0.07096 0.19779,0.12096 0.3,0.15c0.79622,0.4487 1.61289,0.8487 2.45,1.2c4.5444,1.96667 9.7944,2.95 15.75,2.95c5.16667,0 10.9,-0.9 17.2,-2.7c2.08607,-0.58906 4.1194,-1.25573 6.1,-2c1.0526,0.27318 2.46927,0.62318 4.25,1.05c4,1.03333 6.31667,1.66667 6.95,1.9c1,0.46667 1.91667,1.41667 2.75,2.85c1.26667,1.13333 3.85,1.6 7.75,1.4c5.19688,-0.31263 9.46354,0.00404 12.8,0.95c2.17786,0.63841 3.9612,1.53841 5.35,2.7c-0.56068,0.63047 -1.16068,1.24714 -1.8,1.85c-4.56667,4.33333 -10.76667,6.5 -18.6,6.5c-0.29857,0 -0.7319,-0.05 -1.3,-0.15c-1.00573,-0.19857 -2.43906,-0.56523 -4.3,-1.1c-2.93333,-0.83333 -4.81667,-1.25 -5.65,-1.25c-2.7,2.96667 -6.21667,5.93333 -10.55,8.9c-8.66667,5.9 -17.98333,8.85 -27.95,8.85c-6.73333,0 -12.36667,-0.66667 -16.9,-2c-4.53333,-1.33333 -7.73333,-2 -9.6,-2c-0.6,0 -3.5,1.91667 -8.7,5.75c-5.2,3.83333 -9.21667,5.75 -12.05,5.75c-4.17904,0 -7.36237,-0.61667 -9.55,-1.85c-0.15833,-0.07656 -0.30833,-0.1599 -0.45,-0.25c-0.24271,-0.15091 -0.49271,-0.31758 -0.75,-0.5c0.0668,-1.14128 0.23346,-2.32461 0.5,-3.55c0.03229,-0.12409 0.06562,-0.25742 0.1,-0.4c1.10924,-1.69115 2.59258,-3.44115 4.45,-5.25c0.39831,-0.38867 0.79831,-0.77201 1.2,-1.15c2.09701,-1.90833 4.34701,-3.65833 6.75,-5.25c0.14023,-0.07109 0.27357,-0.15443 0.4,-0.25c0.10807,-0.04583 0.20807,-0.09583 0.3,-0.15c2.32279,-1.39622 4.40612,-2.52956 6.25,-3.4c1.22174,-0.39245 3.48841,-0.90911 6.8,-1.55c1.17057,-0.23411 2.18724,-0.50078 3.05,-0.8c0.95091,-0.0737 1.66758,-0.20703 2.15,-0.4c0.76667,-0.33333 1.43333,-1.05 2,-2.15c1.5487,-3.02357 3.03203,-5.6569 4.45,-7.9c0.40326,-0.34154 0.83659,-0.7082 1.3,-1.1c1.00195,-0.85781 2.18529,-1.84115 3.55,-2.95c1.29518,-1.04687 2.37852,-1.94687 3.25,-2.7z" fill="#91c53c"/></g></g></svg>