<svg version="1.1" xmlns="http://www.w3.org/2000/svg" xmlns:xlink="http://www.w3.org/1999/xlink" width="615.3" height="122.45" viewBox="0,0,615.3,122.45"><g transform="translate(-329.43784,-296.50631)"><g data-paper-data="{&quot;isPaintingLayer&quot;:true}" fill-rule="nonzero" stroke="none" stroke-width="1" stroke-linecap="butt" stroke-linejoin="miter" stroke-miterlimit="10" stroke-dasharray="" stroke-dashoffset="0" style="mix-blend-mode: normal"><path d="M347.13784,305.60631c0.16667,-0.13333 0.33333,-0.25 0.5,-0.35c0.3,-0.13333 0.6,-0.26667 0.9,-0.4c0.16667,-0.16667 0.35,-0.33333 0.55,-0.5c0.16667,-0.13333 0.35,-0.25 0.55,-0.35c0.03333,-0.06667 0.08333,-0.11667 0.15,-0.15c0.3,-0.1 0.6,-0.18333 0.9,-0.25c0.3,-0.1 0.6,-0.2 0.9,-0.3c0.4,-0.13333 0.81667,-0.26667 1.25,-0.4c0.3,-0.1 0.6,-0.2 0.9,-0.3c0.4,-0.16667 0.81667,-0.3 1.25,-0.4c1,-0.13333 2,-0.25 3,-0.35c0.43333,-0.13333 0.85,-0.25 1.25,-0.35c0.5,0 0.98333,0 1.45,0c3.1,0.03333 6.2,0.08333 9.3,0.15c0.33333,0.13333 0.68333,0.25 1.05,0.35c0.83333,0.13333 1.66667,0.23333 2.5,0.3c1.2,0.1 2.38333,0.18333 3.55,0.25c0.3,0.13333 0.6,0.25 0.9,0.35c1.13333,0.13333 2.26667,0.25 3.4,0.35c0.3,0.13333 0.6,0.25 0.9,0.35c0.16667,0.13333 0.35,0.26667 0.55,0.4c0.46667,0.03333 0.93333,0.08333 1.4,0.15c0.3,0.13333 0.6,0.25 0.9,0.35c0.2,0.13333 0.38333,0.25 0.55,0.35c0.3,0.13333 0.6,0.26667 0.9,0.4c0.1,0.1 0.21667,0.21667 0.35,0.35c0.06667,0.06667 0.13333,0.11667 0.2,0.15c0.26667,0.13333 0.55,0.25 0.85,0.35c0.13333,0.13333 0.25,0.26667 0.35,0.4c0.06667,0 0.13333,0 0.2,0c1.43333,0 2.86667,0 4.3,0c0.33333,0.1 0.68333,0.21667 1.05,0.35c5.66667,0 11.31667,0 16.95,0c0.43333,-0.13333 0.85,-0.25 1.25,-0.35c1.96667,-0.13333 3.93333,-0.26667 5.9,-0.4c0.43333,-0.1 0.85,-0.21667 1.25,-0.35c1.26667,-0.1 2.51667,-0.21667 3.75,-0.35c0.43333,-0.1 0.85,-0.21667 1.25,-0.35c1.96667,-0.13333 3.93333,-0.25 5.9,-0.35c0.43333,-0.13333 0.85,-0.25 1.25,-0.35c1.5,-0.13333 2.98333,-0.25 4.45,-0.35c0.43333,-0.13333 0.85,-0.26667 1.25,-0.4c0.8,-0.1 1.58333,-0.21667 2.35,-0.35c0.4,-0.1 0.81667,-0.21667 1.25,-0.35c0.3,-0.1 0.6,-0.2 0.9,-0.3c0.4,-0.16667 0.81667,-0.3 1.25,-0.4c0.53333,-0.13333 1.06667,-0.26667 1.6,-0.4c0.4,-0.1 0.81667,-0.2 1.25,-0.3c1.46667,-0.13333 2.95,-0.26667 4.45,-0.4c0.43333,-0.1 0.85,-0.21667 1.25,-0.35c1.43333,0 2.86667,0 4.3,0c0.33333,0.13333 0.68333,0.25 1.05,0.35c0.83333,0.13333 1.66667,0.26667 2.5,0.4c0.36667,0.1 0.73333,0.21667 1.1,0.35c0.16667,0.1 0.33333,0.21667 0.5,0.35c0.3,0.1 0.6,0.21667 0.9,0.35c0.2,0.13333 0.38333,0.25 0.55,0.35c0.3,0.13333 0.6,0.25 0.9,0.35c0.16667,0.13333 0.33333,0.25 0.5,0.35c0.3,0.13333 0.6,0.26667 0.9,0.4c0.2,0.16667 0.38333,0.33333 0.55,0.5c0.23333,0.2 0.46667,0.38333 0.7,0.55c0.2,0.16667 0.38333,0.35 0.55,0.55c0.16667,0.16667 0.35,0.33333 0.55,0.5c0.1,0.2 0.21667,0.38333 0.35,0.55c0.23333,0.2 0.46667,0.38333 0.7,0.55c0.2,0.06667 0.38333,0.11667 0.55,0.15c0.06667,-0.1 0.13333,-0.21667 0.2,-0.35c0.1,-0.16667 0.21667,-0.33333 0.35,-0.5c0.1,-0.2 0.21667,-0.38333 0.35,-0.55c0.06667,-0.16667 0.11667,-0.35 0.15,-0.55c0.13333,-0.16667 0.25,-0.35 0.35,-0.55c0.2,-0.16667 0.38333,-0.33333 0.55,-0.5c0.23333,-0.2 0.46667,-0.38333 0.7,-0.55c0.13333,-0.16667 0.26667,-0.35 0.4,-0.55c0.16667,-0.16667 0.33333,-0.33333 0.5,-0.5c0.2,-0.2 0.38333,-0.38333 0.55,-0.55c0.16667,-0.13333 0.35,-0.26667 0.55,-0.4c0.06667,-0.03333 0.11667,-0.08333 0.15,-0.15c0.3,-0.1 0.6,-0.21667 0.9,-0.35c0.2,-0.13333 0.38333,-0.25 0.55,-0.35c0.3,-0.13333 0.6,-0.25 0.9,-0.35c0.16667,-0.13333 0.33333,-0.25 0.5,-0.35c0.3,-0.13333 0.6,-0.26667 0.9,-0.4c0.2,-0.1 0.38333,-0.21667 0.55,-0.35c0.3,-0.03333 0.6,-0.08333 0.9,-0.15c0.3,-0.13333 0.6,-0.25 0.9,-0.35c0.4,-0.13333 0.81667,-0.26667 1.25,-0.4c1.23333,-0.1 2.48333,-0.21667 3.75,-0.35c0.4,-0.1 0.81667,-0.21667 1.25,-0.35c2.13333,0 4.26667,0 6.4,0c0.36667,0.13333 0.73333,0.25 1.1,0.35c4.86667,0.13333 9.75,0.25 14.65,0.35c0.4,0.13333 0.81667,0.26667 1.25,0.4c1.93333,0.1 3.88333,0.21667 5.85,0.35c0.43333,0.1 0.85,0.21667 1.25,0.35c1.73333,0.1 3.46667,0.21667 5.2,0.35c0.36667,0.13333 0.71667,0.25 1.05,0.35c2.03333,0.13333 4.06667,0.25 6.1,0.35c0.33333,0.13333 0.68333,0.25 1.05,0.35c1.3,0.13333 2.61667,0.26667 3.95,0.4c0.4,0.1 0.81667,0.2 1.25,0.3c1.16667,0.26667 2.35,0.53333 3.55,0.8c1.5,0.33333 2.98333,0.66667 4.45,1c2.06667,0.5 4.1,1.1 6.1,1.8c0.16667,0.13333 0.35,0.25 0.55,0.35c0.26667,0.13333 0.55,0.25 0.85,0.35c0.2,0.13333 0.38333,0.26667 0.55,0.4c0.3,0.1 0.6,0.21667 0.9,0.35c0.16667,0.16667 0.35,0.33333 0.55,0.5c0.16667,0.13333 0.33333,0.26667 0.5,0.4c0.06667,0.03333 0.13333,0.08333 0.2,0.15c0.3,0.13333 0.6,0.25 0.9,0.35c0.16667,0.2 0.35,0.38333 0.55,0.55c0.16667,0.16667 0.33333,0.35 0.5,0.55c0.2,0.16667 0.38333,0.33333 0.55,0.5c0.16667,0.06667 0.35,0.13333 0.55,0.2c0.16667,-0.13333 0.33333,-0.25 0.5,-0.35c0.2,-0.16667 0.38333,-0.35 0.55,-0.55c0.16667,-0.16667 0.35,-0.35 0.55,-0.55c0.16667,-0.16667 0.35,-0.33333 0.55,-0.5c0.16667,-0.2 0.33333,-0.38333 0.5,-0.55c0.2,-0.16667 0.38333,-0.35 0.55,-0.55c0.36667,-0.33333 0.71667,-0.68333 1.05,-1.05c0.36667,-0.36667 0.73333,-0.73333 1.1,-1.1c0.53333,-0.53333 1.06667,-1.06667 1.6,-1.6c0.4,-0.16667 0.81667,-0.33333 1.25,-0.5c0.16667,-0.2 0.35,-0.38333 0.55,-0.55c0.16667,-0.13333 0.33333,-0.26667 0.5,-0.4c0.06667,-0.03333 0.13333,-0.08333 0.2,-0.15c0.3,-0.1 0.6,-0.21667 0.9,-0.35c0.16667,-0.13333 0.35,-0.25 0.55,-0.35c0.26667,-0.13333 0.55,-0.25 0.85,-0.35c0.2,-0.13333 0.38333,-0.25 0.55,-0.35c0.3,-0.13333 0.6,-0.26667 0.9,-0.4c0.16667,-0.1 0.35,-0.21667 0.55,-0.35c0.3,-0.1 0.6,-0.21667 0.9,-0.35c0.16667,-0.1 0.33333,-0.21667 0.5,-0.35c0.3,-0.06667 0.6,-0.13333 0.9,-0.2c1.43333,0 2.86667,0 4.3,0c0.36667,0.13333 0.71667,0.26667 1.05,0.4c0.13333,0.1 0.25,0.21667 0.35,0.35c0.36667,0.1 0.73333,0.21667 1.1,0.35c0.1,0.1 0.21667,0.21667 0.35,0.35c0.36667,0.13333 0.71667,0.25 1.05,0.35c0.2,0.2 0.38333,0.38333 0.55,0.55c0.16667,0.16667 0.35,0.35 0.55,0.55c0.16667,0.16667 0.33333,0.33333 0.5,0.5c0.2,0.2 0.38333,0.38333 0.55,0.55c0.23333,0.16667 0.46667,0.35 0.7,0.55c0.2,0.16667 0.38333,0.33333 0.55,0.5c0.13333,0.2 0.25,0.38333 0.35,0.55c0.13333,0.2 0.25,0.38333 0.35,0.55c0.2,0.16667 0.38333,0.35 0.55,0.55c0.23333,0.16667 0.46667,0.33333 0.7,0.5c0.13333,0.2 0.26667,0.38333 0.4,0.55c0.03333,0.16667 0.08333,0.35 0.15,0.55c0.2,0.16667 0.38333,0.33333 0.55,0.5c0.16667,0.2 0.35,0.38333 0.55,0.55c0.16667,0.2 0.33333,0.38333 0.5,0.55c0.2,0.16667 0.38333,0.35 0.55,0.55c0.16667,0.16667 0.35,0.33333 0.55,0.5c0.33333,0.36667 0.68333,0.73333 1.05,1.1c0.36667,0.33333 0.73333,0.68333 1.1,1.05c0.33333,0.36667 0.68333,0.73333 1.05,1.1c0.36667,0.16667 0.71667,0.33333 1.05,0.5c0.2,0.2 0.38333,0.38333 0.55,0.55c0.06667,0.16667 0.13333,0.35 0.2,0.55c0.1,0.16667 0.21667,0.33333 0.35,0.5c0.16667,0.2 0.35,0.38333 0.55,0.55c0.1,0.16667 0.21667,0.35 0.35,0.55c0.23333,0.16667 0.46667,0.35 0.7,0.55c0.13333,0.16667 0.25,0.33333 0.35,0.5c0.2,0.2 0.38333,0.38333 0.55,0.55c0.23333,0.16667 0.46667,0.35 0.7,0.55c0.13333,0.16667 0.25,0.33333 0.35,0.5c0.2,0.2 0.38333,0.38333 0.55,0.55c0.23333,0.16667 0.46667,0.35 0.7,0.55c0.13333,0.16667 0.25,0.35 0.35,0.55c0.2,0.16667 0.38333,0.33333 0.55,0.5c0.2,0.2 0.38333,0.38333 0.55,0.55c0.16667,0.06667 0.35,0.13333 0.55,0.2c0.1,-0.13333 0.21667,-0.26667 0.35,-0.4c0.06667,-0.16667 0.11667,-0.33333 0.15,-0.5c0,-0.2 0,-0.38333 0,-0.55c0,-0.16667 0,-0.35 0,-0.55c0.06667,-0.16667 0.13333,-0.33333 0.2,-0.5c0.1,-0.2 0.21667,-0.38333 0.35,-0.55c0.06667,-0.2 0.13333,-0.38333 0.2,-0.55c0.03333,-0.16667 0.08333,-0.35 0.15,-0.55c0.13333,-0.16667 0.25,-0.33333 0.35,-0.5c0.06667,-0.2 0.13333,-0.38333 0.2,-0.55c0.1,-0.16667 0.21667,-0.35 0.35,-0.55c0.13333,-0.16667 0.25,-0.33333 0.35,-0.5c0,-0.2 0,-0.38333 0,-0.55c0,-0.16667 0,-0.35 0,-0.55c0.13333,-0.16667 0.25,-0.35 0.35,-0.55c0.13333,-0.16667 0.25,-0.33333 0.35,-0.5c0,-0.2 0,-0.38333 0,-0.55c0,-0.16667 0,-0.35 0,-0.55c0.13333,-0.16667 0.26667,-0.33333 0.4,-0.5c0.03333,-0.2 0.08333,-0.38333 0.15,-0.55c0.13333,-0.16667 0.25,-0.35 0.35,-0.55c0.13333,-0.16667 0.25,-0.35 0.35,-0.55c0.06667,-0.16667 0.13333,-0.33333 0.2,-0.5c0,-0.2 0,-0.38333 0,-0.55c0.06667,-0.16667 0.13333,-0.35 0.2,-0.55c0.1,-0.16667 0.21667,-0.33333 0.35,-0.5c0.06667,-0.2 0.11667,-0.38333 0.15,-0.55c0,-0.16667 0,-0.35 0,-0.55c0.06667,-0.16667 0.13333,-0.35 0.2,-0.55c0.1,-0.16667 0.21667,-0.33333 0.35,-0.5c0.06667,-0.2 0.13333,-0.38333 0.2,-0.55c0,-0.16667 0,-0.35 0,-0.55c0.03333,-0.16667 0.08333,-0.33333 0.15,-0.5c0.13333,-0.2 0.25,-0.38333 0.35,-0.55c0.06667,-0.16667 0.13333,-0.35 0.2,-0.55c0.1,-0.16667 0.21667,-0.35 0.35,-0.55c0.06667,-0.16667 0.13333,-0.33333 0.2,-0.5c0.03333,-0.2 0.08333,-0.38333 0.15,-0.55c0,-0.16667 0,-0.35 0,-0.55c0.13333,-0.16667 0.25,-0.33333 0.35,-0.5c0.13333,-0.2 0.25,-0.38333 0.35,-0.55c0.2,-0.16667 0.38333,-0.35 0.55,-0.55c0.06667,-0.16667 0.13333,-0.35 0.2,-0.55c0.1,-0.16667 0.21667,-0.33333 0.35,-0.5c0.1,-0.2 0.21667,-0.38333 0.35,-0.55c0.16667,-0.16667 0.35,-0.35 0.55,-0.55c0.16667,-0.1 0.33333,-0.21667 0.5,-0.35c0.3,0 0.6,-0.03333 0.9,-0.1v-0.05c1.43333,0 2.86667,0 4.3,0c0.36667,0.1 0.73333,0.2 1.1,0.3c0.56667,0.13333 1.15,0.28333 1.75,0.45c0.36667,0.06667 0.73333,0.16667 1.1,0.3c0.33333,0.13333 0.68333,0.25 1.05,0.35c0.36667,0.13333 0.71667,0.25 1.05,0.35c0.13333,0.13333 0.26667,0.25 0.4,0.35c0.33333,0.13333 0.68333,0.26667 1.05,0.4c0.16667,0.16667 0.35,0.33333 0.55,0.5c0.16667,0.13333 0.33333,0.26667 0.5,0.4c0.06667,0.03333 0.13333,0.08333 0.2,0.15c0.3,0.13333 0.6,0.25 0.9,0.35c0.36667,0.13333 0.71667,0.25 1.05,0.35c0.36667,0.13333 0.73333,0.25 1.1,0.35c0.16667,0.2 0.33333,0.38333 0.5,0.55c0.2,0.13333 0.38333,0.26667 0.55,0.4c0.06667,0.03333 0.13333,0.08333 0.2,0.15c0.3,0.1 0.6,0.21667 0.9,0.35c0.1,0.13333 0.21667,0.25 0.35,0.35c0.33333,0.13333 0.68333,0.25 1.05,0.35c0.23333,0.2 0.46667,0.38333 0.7,0.55c0.13333,0.13333 0.26667,0.25 0.4,0.35c0.03333,0.06667 0.08333,0.11667 0.15,0.15c0.3,0.13333 0.6,0.26667 0.9,0.4c0.16667,0.16667 0.35,0.35 0.55,0.55c0.23333,0.16667 0.46667,0.33333 0.7,0.5c0.16667,0.2 0.35,0.38333 0.55,0.55c0.16667,0.16667 0.33333,0.35 0.5,0.55c0.2,0.16667 0.38333,0.33333 0.55,0.5c0.13333,0.2 0.25,0.38333 0.35,0.55c0.2,0.2 0.38333,0.38333 0.55,0.55c0.23333,0.16667 0.46667,0.35 0.7,0.55c0.2,0.16667 0.38333,0.33333 0.55,0.5c0.13333,0.2 0.25,0.38333 0.35,0.55c0.16667,0.16667 0.35,0.35 0.55,0.55c0.1,0.16667 0.21667,0.33333 0.35,0.5c0.13333,0.2 0.25,0.38333 0.35,0.55c0.06667,0.2 0.13333,0.38333 0.2,0.55c0.1,0.16667 0.21667,0.35 0.35,0.55c0.06667,0.16667 0.11667,0.33333 0.15,0.5c0,0.2 0,0.38333 0,0.55c0.06667,0.16667 0.13333,0.35 0.2,0.55c0.13333,0.16667 0.25,0.33333 0.35,0.5c0.06667,0.2 0.13333,0.38333 0.2,0.55c0,0.16667 0,0.35 0,0.55c0,0.16667 0,0.35 0,0.55c0,0.16667 0,0.33333 0,0.5c0,0.2 0,0.38333 0,0.55c0,0.16667 0,0.35 0,0.55c0,0.33333 0,0.68333 0,1.05c0,0.16667 0,0.35 0,0.55c0,0.53333 0,1.06667 0,1.6c0,0.16667 0,0.35 0,0.55c0,0.16667 0,0.33333 0,0.5c0,0.2 0,0.38333 0,0.55c-0.06667,0.16667 -0.13333,0.35 -0.2,0.55c-0.1,0.16667 -0.21667,0.35 -0.35,0.55c-0.06667,0.16667 -0.13333,0.33333 -0.2,0.5c0,0.2 0,0.38333 0,0.55c0,0.16667 0,0.35 0,0.55c0,0.16667 0,0.33333 0,0.5c0,0.2 0,0.38333 0,0.55c0,0.16667 0,0.35 0,0.55c-0.03333,0.16667 -0.08333,0.35 -0.15,0.55c-0.13333,0.16667 -0.25,0.33333 -0.35,0.5c-0.06667,0.2 -0.13333,0.38333 -0.2,0.55c0,0.16667 0,0.35 0,0.55c-0.06667,0.16667 -0.11667,0.33333 -0.15,0.5c-0.13333,0.2 -0.26667,0.38333 -0.4,0.55c-0.03333,0.16667 -0.08333,0.35 -0.15,0.55c0,0.16667 0,0.35 0,0.55c0,0.16667 0,0.33333 0,0.5c-0.06667,0.2 -0.13333,0.38333 -0.2,0.55c-0.06667,0.16667 -0.11667,0.35 -0.15,0.55c-0.13333,0.16667 -0.25,0.33333 -0.35,0.5c0,0.2 0,0.38333 0,0.55c-0.06667,0.16667 -0.13333,0.35 -0.2,0.55c-0.06667,0.16667 -0.13333,0.35 -0.2,0.55c-0.1,0.16667 -0.21667,0.33333 -0.35,0.5c-0.06667,0.2 -0.11667,0.38333 -0.15,0.55c-0.13333,0.16667 -0.25,0.35 -0.35,0.55c-0.06667,0.16667 -0.13333,0.33333 -0.2,0.5c0,0.2 0,0.38333 0,0.55c-0.06667,0.16667 -0.13333,0.35 -0.2,0.55c-0.1,0.16667 -0.21667,0.35 -0.35,0.55c-0.23333,0.16667 -0.46667,0.33333 -0.7,0.5c-0.16667,0.2 -0.35,0.38333 -0.55,0.55c-0.1,0.16667 -0.21667,0.35 -0.35,0.55c-0.1,0.16667 -0.21667,0.33333 -0.35,0.5c-0.16667,0.2 -0.35,0.38333 -0.55,0.55c-0.16667,0.16667 -0.33333,0.35 -0.5,0.55c-0.2,0.16667 -0.38333,0.35 -0.55,0.55c-0.2,0.16667 -0.38333,0.33333 -0.55,0.5c-0.23333,0.2 -0.46667,0.38333 -0.7,0.55c-0.13333,0.16667 -0.25,0.35 -0.35,0.55c-0.2,0.16667 -0.38333,0.33333 -0.55,0.5c-0.16667,0.2 -0.35,0.38333 -0.55,0.55c-0.16667,0.16667 -0.33333,0.35 -0.5,0.55c-0.2,0.16667 -0.38333,0.35 -0.55,0.55c-0.2,0.16667 -0.38333,0.33333 -0.55,0.5c-0.06667,0.2 -0.11667,0.38333 -0.15,0.55c0,0.16667 0,0.35 0,0.55c-0.13333,0.16667 -0.26667,0.33333 -0.4,0.5c-0.1,0.2 -0.21667,0.38333 -0.35,0.55c0,0.16667 0,0.35 0,0.55c0,0.16667 0,0.33333 0,0.5c0,0.2 0,0.38333 0,0.55c0,0.2 0,0.38333 0,0.55c0,0.16667 0,0.35 0,0.55c0,0.16667 0,0.33333 0,0.5c-0.1,0.2 -0.21667,0.38333 -0.35,0.55c-0.1,0.16667 -0.21667,0.35 -0.35,0.55c0,0.16667 0,0.33333 0,0.5c0,0.2 0,0.38333 0,0.55c0,0.2 0,0.38333 0,0.55c0,0.16667 0,0.35 0,0.55c0.13333,0.16667 0.25,0.33333 0.35,0.5c0.13333,0.2 0.25,0.38333 0.35,0.55c0.06667,0.16667 0.13333,0.35 0.2,0.55c0.16667,0.16667 0.35,0.33333 0.55,0.5c0.33333,0.13333 0.68333,0.26667 1.05,0.4c0.13333,0 0.25,0 0.35,0c0.3,-0.06667 0.6,-0.13333 0.9,-0.2c0.53333,-0.13333 1.06667,-0.26667 1.6,-0.4c0.43333,-0.1 0.85,-0.21667 1.25,-0.35c0.3,-0.1 0.6,-0.2 0.9,-0.3c0.4,-0.2 0.81667,-0.38333 1.25,-0.55c0.16667,-0.16667 0.35,-0.35 0.55,-0.55c0.16667,-0.1 0.33333,-0.21667 0.5,-0.35c0.06667,-0.06667 0.13333,-0.13333 0.2,-0.2c0.3,-0.1 0.6,-0.21667 0.9,-0.35c0.16667,-0.1 0.35,-0.21667 0.55,-0.35c0.26667,-0.1 0.55,-0.21667 0.85,-0.35c0.2,-0.13333 0.38333,-0.25 0.55,-0.35c0.3,-0.13333 0.6,-0.25 0.9,-0.35c0.16667,-0.13333 0.35,-0.25 0.55,-0.35c0.3,-0.13333 0.6,-0.26667 0.9,-0.4c0.16667,-0.1 0.33333,-0.21667 0.5,-0.35c0.3,-0.03333 0.6,-0.08333 0.9,-0.15c0.53333,-0.13333 1.06667,-0.25 1.6,-0.35c0,-0.2 0,-0.38333 0,-0.55c0,-0.16667 0,-0.35 0,-0.55c0,-0.16667 0,-0.35 0,-0.55c0,-0.16667 0,-0.33333 0,-0.5c0,-0.2 0,-0.38333 0,-0.55c0,-0.16667 0,-0.35 0,-0.55c0,-0.16667 0,-0.33333 0,-0.5c0,-0.2 0,-0.38333 0,-0.55c0,-0.16667 0,-0.35 0,-0.55c0.13333,-0.16667 0.25,-0.33333 0.35,-0.5c0.13333,-0.2 0.26667,-0.38333 0.4,-0.55c0,-0.2 0,-0.38333 0,-0.55c0,-0.16667 0,-0.35 0,-0.55c0,-0.16667 0,-0.33333 0,-0.5c0,-0.2 0,-0.38333 0,-0.55c0,-0.16667 0,-0.35 0,-0.55c0,-0.33333 0,-0.68333 0,-1.05c0,-0.36667 0,-0.73333 0,-1.1c0,-0.53333 0,-1.06667 0,-1.6c0,-0.16667 0,-0.33333 0,-0.5c0,-0.36667 0,-0.73333 0,-1.1c0.1,-0.16667 0.21667,-0.35 0.35,-0.55c0.03333,-0.16667 0.08333,-0.33333 0.15,-0.5c0.06667,-0.2 0.13333,-0.38333 0.2,-0.55c0,-0.16667 0,-0.35 0,-0.55c0,-0.16667 0,-0.33333 0,-0.5c0,-0.2 0,-0.38333 0,-0.55c0,-0.2 0,-0.38333 0,-0.55c0,-0.16667 0,-0.35 0,-0.55c0,-0.33333 0,-0.68333 0,-1.05c0,-0.16667 0,-0.35 0,-0.55c0,-0.53333 0,-1.06667 0,-1.6c0,-0.16667 0,-0.35 0,-0.55c0,-0.16667 0,-0.33333 0,-0.5c0,-0.2 0,-0.38333 0,-0.55c0.06667,-0.16667 0.11667,-0.35 0.15,-0.55c0.13333,-0.16667 0.26667,-0.33333 0.4,-0.5c0.03333,-0.2 0.08333,-0.38333 0.15,-0.55c0,-0.2 0,-0.38333 0,-0.55c0,-0.16667 0,-0.35 0,-0.55c0,-0.16667 0,-0.33333 0,-0.5c0,-0.2 0,-0.38333 0,-0.55c0,-0.16667 0,-0.35 0,-0.55c0,-0.16667 0,-0.33333 0,-0.5c0,-0.2 0,-0.38333 0,-0.55c0,-0.2 0,-0.38333 0,-0.55c0.06667,-0.16667 0.13333,-0.35 0.2,-0.55c0.1,-0.16667 0.21667,-0.33333 0.35,-0.5c0.06667,-0.2 0.11667,-0.38333 0.15,-0.55c0,-0.16667 0,-0.35 0,-0.55c0,-0.16667 0,-0.33333 0,-0.5c0,-0.2 0,-0.38333 0,-0.55c0,-0.2 0,-0.38333 0,-0.55c0,-0.16667 0,-0.35 0,-0.55c0,-0.16667 0,-0.33333 0,-0.5c0,-0.2 0,-0.38333 0,-0.55c0,-0.16667 0,-0.35 0,-0.55c0.13333,-0.16667 0.25,-0.33333 0.35,-0.5c0.13333,-0.2 0.26667,-0.38333 0.4,-0.55c0,-0.2 0,-0.38333 0,-0.55c0,-0.16667 0,-0.35 0,-0.55c0,-0.16667 0,-0.33333 0,-0.5c0,-0.2 0,-0.38333 0,-0.55c0,-0.16667 0,-0.35 0,-0.55c0,-0.16667 0,-0.33333 0,-0.5c0,-0.2 0,-0.38333 0,-0.55c0.1,-0.16667 0.21667,-0.35 0.35,-0.55c0.06667,-0.16667 0.11667,-0.35 0.15,-0.55c0.06667,-0.16667 0.13333,-0.33333 0.2,-0.5c0,-0.2 0,-0.38333 0,-0.55c0,-0.16667 0,-0.35 0,-0.55c0,-0.16667 0,-0.33333 0,-0.5c0,-0.2 0,-0.38333 0,-0.55c0,-0.16667 0,-0.35 0,-0.55c0,-0.16667 0,-0.35 0,-0.55c0,-0.16667 0,-0.33333 0,-0.5c0,-0.2 0,-0.38333 0,-0.55c0.1,-0.16667 0.21667,-0.35 0.35,-0.55c0.16667,-0.1 0.35,-0.21667 0.55,-0.35c0.06667,-0.06667 0.13333,-0.1 0.2,-0.1c0.26667,-0.1 0.55,-0.18333 0.85,-0.25c0.3,-0.13333 0.6,-0.25 0.9,-0.35c0.43333,-0.13333 0.85,-0.25 1.25,-0.35c1.73333,-0.13333 3.46667,-0.25 5.2,-0.35c0.4,-0.13333 0.81667,-0.26667 1.25,-0.4c3.63333,-0.1 7.25,-0.21667 10.85,-0.35c0.43333,-0.1 0.85,-0.21667 1.25,-0.35c1.26667,-0.1 2.51667,-0.21667 3.75,-0.35c0.43333,-0.13333 0.85,-0.25 1.25,-0.35c1.96667,-0.13333 3.93333,-0.25 5.9,-0.35c0.43333,-0.13333 0.85,-0.25 1.25,-0.35c1.03333,-0.13333 2.05,-0.26667 3.05,-0.4c0.4,-0.1 0.81667,-0.21667 1.25,-0.35c1.43333,0 2.86667,0 4.3,0c0.33333,0.13333 0.68333,0.25 1.05,0.35c0.16667,0.2 0.35,0.38333 0.55,0.55c0.06667,0.2 0.11667,0.38333 0.15,0.55c0.06667,0.16667 0.13333,0.35 0.2,0.55c0,0.16667 0,0.33333 0,0.5c0.13333,0.2 0.25,0.38333 0.35,0.55c0.06667,0.16667 0.13333,0.35 0.2,0.55c0.03333,0.16667 0.08333,0.33333 0.15,0.5c0,0.2 0,0.38333 0,0.55c0.13333,0.2 0.25,0.38333 0.35,0.55c0.06667,0.16667 0.13333,0.35 0.2,0.55c0.06667,0.16667 0.13333,0.33333 0.2,0.5c0,0.2 0,0.38333 0,0.55c0.1,0.16667 0.21667,0.35 0.35,0.55c0.03333,0.16667 0.08333,0.33333 0.15,0.5c0.06667,0.2 0.13333,0.38333 0.2,0.55c0,0.2 0,0.38333 0,0.55c0,0.16667 0,0.35 0,0.55c0.06667,0.16667 0.11667,0.33333 0.15,0.5c0.13333,0.2 0.26667,0.38333 0.4,0.55c0.03333,0.16667 0.08333,0.35 0.15,0.55c0,0.16667 0,0.33333 0,0.5c0,0.2 0,0.38333 0,0.55c0,0.2 0,0.38333 0,0.55c0,0.16667 0,0.35 0,0.55c0,0.16667 0,0.33333 0,0.5c0,0.2 0,0.38333 0,0.55c0,0.16667 0,0.35 0,0.55c0.06667,0 0.1,-0.01667 0.1,-0.05c0.1,-0.16667 0.18333,-0.33333 0.25,-0.5c0.06667,-0.16667 0.13333,-0.35 0.2,-0.55c0.1,-0.16667 0.21667,-0.33333 0.35,-0.5c0.06667,-0.2 0.13333,-0.38333 0.2,-0.55c0,-0.16667 0,-0.35 0,-0.55c0.1,-0.16667 0.21667,-0.35 0.35,-0.55c0.03333,-0.16667 0.08333,-0.33333 0.15,-0.5c0.06667,-0.2 0.13333,-0.38333 0.2,-0.55c0,-0.16667 0,-0.35 0,-0.55c0.1,-0.16667 0.21667,-0.33333 0.35,-0.5c0.06667,-0.2 0.13333,-0.38333 0.2,-0.55c0.03333,-0.16667 0.08333,-0.35 0.15,-0.55c0,-0.16667 0,-0.35 0,-0.55c0.13333,-0.16667 0.25,-0.33333 0.35,-0.5c0.13333,-0.2 0.25,-0.38333 0.35,-0.55c0.2,-0.16667 0.38333,-0.35 0.55,-0.55c0.06667,-0.16667 0.13333,-0.33333 0.2,-0.5c0,-0.2 0,-0.38333 0,-0.55c0.03333,-0.16667 0.08333,-0.35 0.15,-0.55c0.13333,-0.16667 0.25,-0.35 0.35,-0.55c0.06667,-0.16667 0.13333,-0.33333 0.2,-0.5c0.13333,-0.2 0.25,-0.38333 0.35,-0.55c0.13333,-0.16667 0.25,-0.35 0.35,-0.55c0.2,-0.16667 0.38333,-0.33333 0.55,-0.5c0.16667,-0.2 0.35,-0.38333 0.55,-0.55c0.16667,-0.16667 0.33333,-0.35 0.5,-0.55c0.2,-0.16667 0.38333,-0.35 0.55,-0.55c0.43333,-0.1 0.85,-0.21667 1.25,-0.35c5.3,-0.1 10.6,-0.21667 15.9,-0.35c0.4,-0.1 0.81667,-0.21667 1.25,-0.35c2.43333,-0.13333 4.86667,-0.25 7.3,-0.35c0.43333,-0.13333 0.85,-0.25 1.25,-0.35c3.33333,0 6.66667,0 10,0c0.36667,0.1 0.73333,0.21667 1.1,0.35c0.16667,0.1 0.33333,0.21667 0.5,0.35c0.3,0.13333 0.6,0.25 0.9,0.35c0.2,0.2 0.38333,0.38333 0.55,0.55c0.06667,0.16667 0.13333,0.35 0.2,0.55c0.03333,0.16667 0.08333,0.33333 0.15,0.5c0.13333,0.2 0.25,0.38333 0.35,0.55c0.13333,0.16667 0.25,0.35 0.35,0.55c0,0.16667 0,0.33333 0,0.5c0,0.2 0,0.38333 0,0.55c0,0.2 0,0.38333 0,0.55c0.13333,0.16667 0.26667,0.35 0.4,0.55c0.03333,0.16667 0.08333,0.33333 0.15,0.5c0.06667,0.2 0.13333,0.38333 0.2,0.55c0,0.16667 0,0.35 0,0.55c0,0.16667 0,0.33333 0,0.5c0.06667,0.2 0.11667,0.38333 0.15,0.55c0.13333,0.2 0.25,0.38333 0.35,0.55c0.06667,0.16667 0.13333,0.35 0.2,0.55c0,0.16667 0,0.33333 0,0.5c0,0.2 0,0.38333 0,0.55c0,0.16667 0,0.35 0,0.55c0,0.16667 0,0.33333 0,0.5c0,0.2 0,0.38333 0,0.55c0.06667,0.2 0.13333,0.38333 0.2,0.55c0.1,0.16667 0.21667,0.35 0.35,0.55c0.06667,0.16667 0.11667,0.33333 0.15,0.5c0,0.2 0,0.38333 0,0.55c0,0.16667 0,0.35 0,0.55c0,0.16667 0,0.33333 0,0.5c0.06667,0.2 0.13333,0.38333 0.2,0.55c0.06667,0.16667 0.11667,0.35 0.15,0.55c0.06667,0.16667 0.13333,0.35 0.2,0.55c0.06667,0.16667 0.13333,0.33333 0.2,0.5c0,0.2 0,0.38333 0,0.55c0.1,0.16667 0.21667,0.35 0.35,0.55c0.06667,0.16667 0.11667,0.33333 0.15,0.5c0.06667,0.2 0.13333,0.38333 0.2,0.55c0.1,0.16667 0.21667,0.35 0.35,0.55c0.13333,0.16667 0.25,0.35 0.35,0.55c0,0.16667 0,0.33333 0,0.5c0,0.2 0,0.38333 0,0.55c0.06667,0.16667 0.13333,0.35 0.2,0.55c0.06667,0.16667 0.11667,0.33333 0.15,0.5c0.06667,0.2 0.13333,0.38333 0.2,0.55c0.06667,0.16667 0.11667,0.35 0.15,0.55c0,0.16667 0,0.35 0,0.55c0.13333,0.16667 0.26667,0.33333 0.4,0.5c0.03333,0.2 0.08333,0.38333 0.15,0.55c0.06667,0.16667 0.13333,0.35 0.2,0.55c0,0.1 0,0.21667 0,0.35c0.23333,-0.06667 0.46667,-0.13333 0.7,-0.2c0.23333,-0.16667 0.46667,-0.33333 0.7,-0.5c0.13333,-0.2 0.25,-0.38333 0.35,-0.55c0.2,-0.2 0.38333,-0.38333 0.55,-0.55c0.16667,-0.16667 0.35,-0.35 0.55,-0.55c0.16667,-0.16667 0.35,-0.33333 0.55,-0.5c0.16667,-0.2 0.33333,-0.38333 0.5,-0.55c0.2,-0.16667 0.38333,-0.35 0.55,-0.55c0.16667,-0.16667 0.35,-0.33333 0.55,-0.5c0.16667,-0.2 0.33333,-0.38333 0.5,-0.55c0.2,-0.2 0.38333,-0.38333 0.55,-0.55c0.43333,-0.16667 0.85,-0.35 1.25,-0.55c0.16667,-0.1 0.35,-0.21667 0.55,-0.35c0.3,-0.1 0.6,-0.21667 0.9,-0.35c0.16667,-0.1 0.33333,-0.21667 0.5,-0.35c0.3,-0.13333 0.6,-0.25 0.9,-0.35c0.2,-0.13333 0.38333,-0.25 0.55,-0.35c0.3,-0.06667 0.6,-0.13333 0.9,-0.2c0.3,-0.1 0.6,-0.2 0.9,-0.3c0.4,-0.16667 0.81667,-0.3 1.25,-0.4c1,-0.13333 2,-0.25 3,-0.35c0,-0.2 0,-0.38333 0,-0.55c0,-0.16667 0,-0.35 0,-0.55c0,-0.16667 0,-0.33333 0,-0.5c0,-0.2 0,-0.38333 0,-0.55c0,-0.16667 0,-0.35 0,-0.55c0,-0.16667 0,-0.35 0,-0.55c0,-0.16667 0,-0.33333 0,-0.5c0,-0.2 0,-0.38333 0,-0.55c-0.03333,-0.16667 -0.08333,-0.35 -0.15,-0.55c-0.13333,-0.16667 -0.25,-0.33333 -0.35,-0.5c-0.06667,-0.2 -0.13333,-0.38333 -0.2,-0.55c0,-0.16667 0,-0.35 0,-0.55c0,-0.16667 0,-0.35 0,-0.55c0,-0.16667 0,-0.33333 0,-0.5c0,-0.2 0,-0.38333 0,-0.55c0,-0.16667 0,-0.35 0,-0.55c-0.06667,-0.16667 -0.11667,-0.33333 -0.15,-0.5c-0.13333,-0.2 -0.26667,-0.38333 -0.4,-0.55c-0.03333,-0.16667 -0.08333,-0.35 -0.15,-0.55c0,-0.16667 0,-0.35 0,-0.55c0,-0.16667 0,-0.33333 0,-0.5c-0.06667,-0.2 -0.13333,-0.38333 -0.2,-0.55c-0.06667,-0.16667 -0.11667,-0.35 -0.15,-0.55c-0.13333,-0.16667 -0.25,-0.33333 -0.35,-0.5c0,-0.2 0,-0.38333 0,-0.55c0,-0.16667 0,-0.35 0,-0.55c0,-0.16667 0,-0.35 0,-0.55c0,-0.16667 0,-0.33333 0,-0.5c0,-0.2 0,-0.38333 0,-0.55c0.1,-0.16667 0.21667,-0.35 0.35,-0.55c0.23333,-0.16667 0.46667,-0.33333 0.7,-0.5c0.13333,-0.2 0.25,-0.38333 0.35,-0.55c0.43333,-0.13333 0.85,-0.25 1.25,-0.35c0.53333,-0.13333 1.06667,-0.26667 1.6,-0.4c0.43333,-0.1 0.85,-0.21667 1.25,-0.35c4.3,0 8.58333,0 12.85,0c0.43333,0.13333 0.85,0.26667 1.25,0.4c3.16667,0.1 6.33333,0.21667 9.5,0.35c0.33333,0.1 0.68333,0.21667 1.05,0.35c1.3,0.1 2.61667,0.21667 3.95,0.35c0.33333,0.13333 0.68333,0.25 1.05,0.35c1.8,0.13333 3.58333,0.25 5.35,0.35c0.36667,0.13333 0.73333,0.25 1.1,0.35c1.53333,0.13333 3.06667,0.26667 4.6,0.4c0.36667,0.1 0.73333,0.21667 1.1,0.35c1.06667,0.1 2.13333,0.21667 3.2,0.35c0.36667,0.1 0.73333,0.21667 1.1,0.35c1.06667,0.13333 2.13333,0.25 3.2,0.35c0.36667,0.13333 0.71667,0.25 1.05,0.35c1.06667,0.13333 2.15,0.25 3.25,0.35c0.93333,0.26667 1.86667,0.53333 2.8,0.8c2.03333,0.66667 4.06667,1.23333 6.1,1.7c3.46667,0.83333 6.9,1.71667 10.3,2.65c1.83333,0.5 3.63333,1.05 5.4,1.65c0.2,0.13333 0.38333,0.25 0.55,0.35c0.3,0.13333 0.6,0.25 0.9,0.35c0.16667,0.13333 0.35,0.26667 0.55,0.4c0.3,0.1 0.6,0.21667 0.9,0.35c0.16667,0.1 0.33333,0.21667 0.5,0.35c0.3,0.1 0.6,0.21667 0.9,0.35c0.16667,0.13333 0.35,0.25 0.55,0.35c0.3,0.13333 0.6,0.25 0.9,0.35c0.16667,0.13333 0.33333,0.25 0.5,0.35c0.3,0.13333 0.6,0.26667 0.9,0.4c0.23333,0.16667 0.46667,0.33333 0.7,0.5c0.13333,0.13333 0.26667,0.25 0.4,0.35c0.03333,0.06667 0.1,0.11667 0.2,0.15c0.26667,0.16667 0.55,0.3 0.85,0.4c0.23333,0.16667 0.46667,0.35 0.7,0.55c0.2,0.16667 0.38333,0.35 0.55,0.55c0.16667,0.16667 0.35,0.33333 0.55,0.5c0.33333,0.2 0.68333,0.38333 1.05,0.55c0.23333,0.16667 0.46667,0.35 0.7,0.55c0.13333,0.16667 0.26667,0.33333 0.4,0.5c0.16667,0.2 0.33333,0.38333 0.5,0.55c0.23333,0.16667 0.48333,0.35 0.75,0.55c0.16667,0.16667 0.33333,0.35 0.5,0.55c0.13333,0.1 0.25,0.21667 0.35,0.35c0.06667,-0.06667 0.11667,-0.13333 0.15,-0.2c0.03333,-0.16667 0.05,-0.35 0.05,-0.55c0,-0.16667 0,-0.33333 0,-0.5c0,-0.2 0,-0.38333 0,-0.55c0,-0.16667 0,-0.35 0,-0.55c0,-0.16667 0,-0.33333 0,-0.5c0.13333,-0.2 0.25,-0.38333 0.35,-0.55c0.06667,-0.2 0.13333,-0.38333 0.2,-0.55c0.06667,-0.16667 0.11667,-0.35 0.15,-0.55c0,-0.16667 0,-0.33333 0,-0.5c0,-0.2 0,-0.38333 0,-0.55c0,-0.16667 0,-0.35 0,-0.55c0,-0.16667 0,-0.33333 0,-0.5c0,-0.2 0,-0.38333 0,-0.55c0,-0.16667 0,-0.35 0,-0.55c0.13333,-0.16667 0.25,-0.35 0.35,-0.55c0.06667,-0.16667 0.13333,-0.33333 0.2,-0.5c0.06667,-0.2 0.13333,-0.38333 0.2,-0.55c0,-0.16667 0,-0.35 0,-0.55c0.1,-0.16667 0.21667,-0.33333 0.35,-0.5c0.06667,-0.2 0.11667,-0.38333 0.15,-0.55c0.06667,-0.16667 0.13333,-0.35 0.2,-0.55c0.1,-0.16667 0.21667,-0.35 0.35,-0.55c0.13333,-0.16667 0.25,-0.33333 0.35,-0.5c0,-0.2 0,-0.38333 0,-0.55c0,-0.16667 0,-0.35 0,-0.55c0.13333,-0.16667 0.25,-0.33333 0.35,-0.5c0.23333,-0.2 0.48333,-0.38333 0.75,-0.55c0.1,-0.16667 0.21667,-0.35 0.35,-0.55c0.16667,-0.16667 0.33333,-0.35 0.5,-0.55c0.2,-0.1 0.38333,-0.21667 0.55,-0.35c0.3,-0.03333 0.6,-0.08333 0.9,-0.15c0.3,-0.13333 0.6,-0.25 0.9,-0.35c0.4,-0.13333 0.81667,-0.26667 1.25,-0.4c0.76667,-0.1 1.53333,-0.21667 2.3,-0.35c0.43333,-0.1 0.85,-0.2 1.25,-0.3c0.53333,-0.13333 1.06667,-0.26667 1.6,-0.4c0.43333,-0.13333 0.85,-0.25 1.25,-0.35c1.26667,-0.13333 2.51667,-0.25 3.75,-0.35c0.43333,-0.13333 0.85,-0.25 1.25,-0.35c5.5,0 10.98333,0 16.45,0c0.36667,0.1 0.73333,0.2 1.1,0.3c0.56667,0.13333 1.15,0.26667 1.75,0.4c0.43333,0.1 0.85,0.21667 1.25,0.35c5.3,0.13333 10.6,0.25 15.9,0.35c0.36667,0.13333 0.71667,0.25 1.05,0.35c1.06667,0.13333 2.15,0.25 3.25,0.35c0.33333,0.13333 0.68333,0.26667 1.05,0.4c0.83333,0.1 1.66667,0.21667 2.5,0.35c0.36667,0.1 0.71667,0.21667 1.05,0.35c0.13333,0.1 0.26667,0.21667 0.4,0.35c0.33333,0.13333 0.68333,0.25 1.05,0.35c0.16667,0.2 0.35,0.38333 0.55,0.55c0.16667,0.16667 0.33333,0.35 0.5,0.55c0.2,0.16667 0.38333,0.33333 0.55,0.5c0.2,0.2 0.38333,0.38333 0.55,0.55c0.16667,0.16667 0.35,0.35 0.55,0.55c0.03333,0.16667 0.08333,0.33333 0.15,0.5c0.06667,0.2 0.13333,0.38333 0.2,0.55c0.1,0.2 0.21667,0.38333 0.35,0.55c0.1,0.16667 0.21667,0.35 0.35,0.55c0,0.16667 0,0.33333 0,0.5c0,0.2 0,0.38333 0,0.55c0,0.16667 0,0.35 0,0.55c0.13333,0.16667 0.25,0.33333 0.35,0.5c0.06667,0.2 0.13333,0.38333 0.2,0.55c0.06667,0.2 0.11667,0.38333 0.15,0.55c0,0.16667 0,0.35 0,0.55c0,0.16667 0,0.33333 0,0.5c0,0.2 0,0.38333 0,0.55c0,0.36667 0,0.71667 0,1.05c0,0.36667 0,0.73333 0,1.1c0,0.53333 0,1.06667 0,1.6c0.03333,0.53333 0.05,1.06667 0.05,1.6c-0.03333,0.53333 -0.05,1.06667 -0.05,1.6c0,0.53333 0,1.06667 0,1.6c0,0.2 0,0.38333 0,0.55c-0.03333,0.16667 -0.08333,0.35 -0.15,0.55c-0.06667,0.16667 -0.13333,0.35 -0.2,0.55c-0.1,0.16667 -0.21667,0.33333 -0.35,0.5c0,0.2 0,0.38333 0,0.55c0,0.16667 0,0.35 0,0.55c0,0.16667 0,0.33333 0,0.5c0,0.2 0,0.38333 0,0.55c0,0.16667 0,0.35 0,0.55c0,0.16667 0,0.35 0,0.55c0,0.16667 0,0.33333 0,0.5c0,0.2 0,0.38333 0,0.55c-0.06667,0.16667 -0.13333,0.35 -0.2,0.55c-0.1,0.16667 -0.21667,0.33333 -0.35,0.5c-0.03333,0.2 -0.08333,0.38333 -0.15,0.55c-0.13333,0.16667 -0.25,0.35 -0.35,0.55c-0.13333,0.16667 -0.26667,0.35 -0.4,0.55c0,0.16667 0,0.33333 0,0.5c0,0.2 0,0.38333 0,0.55c0,0.16667 0,0.35 0,0.55c-0.03333,0.16667 -0.08333,0.33333 -0.15,0.5c-0.13333,0.2 -0.25,0.38333 -0.35,0.55c-0.06667,0.16667 -0.13333,0.35 -0.2,0.55c0,0.16667 0,0.35 0,0.55c0,0.16667 0,0.33333 0,0.5c0,0.2 0,0.38333 0,0.55c0,0.16667 0,0.35 0,0.55c0,0.16667 0,0.33333 0,0.5c-0.06667,0.2 -0.11667,0.38333 -0.15,0.55c-0.13333,0.16667 -0.26667,0.35 -0.4,0.55c-0.03333,0.16667 -0.08333,0.35 -0.15,0.55c-0.13333,0.16667 -0.25,0.33333 -0.35,0.5c-0.13333,0.2 -0.25,0.38333 -0.35,0.55c-0.13333,0.16667 -0.26667,0.35 -0.4,0.55c-0.16667,0.16667 -0.33333,0.33333 -0.5,0.5c-0.2,0.2 -0.38333,0.38333 -0.55,0.55c-0.16667,0.16667 -0.35,0.35 -0.55,0.55c-0.16667,0.16667 -0.33333,0.35 -0.5,0.55c-0.2,0.16667 -0.38333,0.33333 -0.55,0.5c-0.16667,0.2 -0.35,0.38333 -0.55,0.55c-0.16667,0.16667 -0.35,0.35 -0.55,0.55c-0.16667,0.16667 -0.33333,0.33333 -0.5,0.5c-0.2,0.13333 -0.38333,0.26667 -0.55,0.4c-0.06667,0.03333 -0.13333,0.06667 -0.2,0.1c-0.33333,0.16667 -0.68333,0.3 -1.05,0.4c-0.13333,0.13333 -0.25,0.25 -0.35,0.35c-0.3,0.13333 -0.6,0.26667 -0.9,0.4c0.06667,0.16667 0.13333,0.33333 0.2,0.5c0.1,0.2 0.21667,0.38333 0.35,0.55c0,0.16667 0,0.35 0,0.55c0,0.16667 0,0.33333 0,0.5c0,0.2 0,0.38333 0,0.55c0,0.16667 0,0.35 0,0.55c0.06667,0.16667 0.11667,0.33333 0.15,0.5c0.13333,0.2 0.25,0.38333 0.35,0.55c0.06667,0.2 0.13333,0.38333 0.2,0.55c0,0.16667 0,0.35 0,0.55c0,0.16667 0,0.33333 0,0.5c0,0.2 0,0.38333 0,0.55c0,0.16667 0,0.35 0,0.55c0,0.16667 0,0.33333 0,0.5c0.06667,0.2 0.13333,0.38333 0.2,0.55c0.1,0.2 0.21667,0.38333 0.35,0.55c0.06667,0.16667 0.11667,0.35 0.15,0.55c0,0.16667 0,0.33333 0,0.5c0.06667,0.2 0.13333,0.38333 0.2,0.55c0.1,0.16667 0.21667,0.35 0.35,0.55c0.06667,0.16667 0.13333,0.33333 0.2,0.5c0,0.2 0,0.38333 0,0.55c0,0.2 0,0.38333 0,0.55c0,0.16667 0,0.35 0,0.55c0,0.16667 0,0.33333 0,0.5c0,0.2 0,0.38333 0,0.55c0,0.16667 0,0.35 0,0.55c0,0.16667 0,0.33333 0,0.5c0,0.2 0,0.38333 0,0.55c0,0.2 0,0.38333 0,0.55c-0.13333,0.16667 -0.25,0.35 -0.35,0.55c-0.06667,0.1 -0.13333,0.21667 -0.2,0.35v0.1c2.6,0.1 5.21667,0.18333 7.85,0.25c0.36667,0.1 0.71667,0.21667 1.05,0.35c0.2,0.13333 0.38333,0.25 0.55,0.35c0.3,0.13333 0.6,0.25 0.9,0.35c0.16667,0.2 0.35,0.38333 0.55,0.55c0.16667,0.16667 0.33333,0.35 0.5,0.55c0.13333,0.16667 0.26667,0.33333 0.4,0.5c0.03333,0.2 0.08333,0.38333 0.15,0.55c0.13333,0.2 0.25,0.38333 0.35,0.55c0.06667,0.16667 0.13333,0.35 0.2,0.55c0.06667,0.16667 0.11667,0.33333 0.15,0.5c0.13333,0.2 0.26667,0.38333 0.4,0.55c0.1,0.16667 0.21667,0.35 0.35,0.55c0,0.16667 0,0.33333 0,0.5c0,0.2 0,0.38333 0,0.55c0.1,0.2 0.21667,0.38333 0.35,0.55c0.1,0.16667 0.21667,0.35 0.35,0.55c0,0.16667 0,0.33333 0,0.5c0,0.2 0,0.38333 0,0.55c0,0.16667 0,0.35 0,0.55c0,0.16667 0,0.33333 0,0.5c0.06667,0.2 0.13333,0.38333 0.2,0.55c0.1,0.2 0.21667,0.38333 0.35,0.55c0.06667,0.16667 0.11667,0.35 0.15,0.55c0,0.16667 0,0.33333 0,0.5c0,0.2 0,0.38333 0,0.55c0,0.16667 0,0.35 0,0.55c0,0.16667 0,0.33333 0,0.5c0,0.2 0,0.38333 0,0.55c0.06667,0.2 0.13333,0.38333 0.2,0.55c0.1,0.16667 0.21667,0.35 0.35,0.55c0.06667,0.16667 0.13333,0.33333 0.2,0.5c0,0.2 0,0.38333 0,0.55c0,0.16667 0,0.35 0,0.55c0,0.16667 0,0.33333 0,0.5c0.1,0.2 0.21667,0.38333 0.35,0.55c0.1,0.2 0.21667,0.38333 0.35,0.55c0,0.16667 0,0.35 0,0.55c0,0.16667 0,0.33333 0,0.5c0,0.2 0,0.38333 0,0.55c0,0.16667 0,0.35 0,0.55c0,0.16667 0,0.33333 0,0.5c0,0.2 0,0.38333 0,0.55c0,0.16667 0,0.35 0,0.55c0,0.16667 0,0.35 0,0.55c0,0.16667 0,0.33333 0,0.5c0,0.2 0,0.38333 0,0.55c-0.06667,0.16667 -0.13333,0.35 -0.2,0.55c-0.03333,0.16667 -0.08333,0.33333 -0.15,0.5c-0.13333,0.2 -0.25,0.38333 -0.35,0.55c0,0.16667 0,0.35 0,0.55c0,0.16667 0,0.35 0,0.55c0,0.16667 0,0.33333 0,0.5c0,0.2 0,0.38333 0,0.55c-0.06667,0.16667 -0.13333,0.35 -0.2,0.55c-0.13333,0.16667 -0.25,0.33333 -0.35,0.5c-0.06667,0.2 -0.13333,0.38333 -0.2,0.55c0,0.16667 0,0.35 0,0.55c0,0.16667 0,0.35 0,0.55c0,0.16667 0,0.33333 0,0.5c0,0.2 0,0.38333 0,0.55c-0.1,0.16667 -0.21667,0.35 -0.35,0.55c-0.1,0.16667 -0.21667,0.33333 -0.35,0.5c0,0.2 0,0.38333 0,0.55c0,0.16667 0,0.35 0,0.55c0,0.16667 0,0.35 0,0.55c0,0.16667 0,0.33333 0,0.5c-0.06667,0.2 -0.13333,0.38333 -0.2,0.55c-0.03333,0.16667 -0.08333,0.35 -0.15,0.55c-0.16667,0.16667 -0.35,0.33333 -0.55,0.5c-0.16667,0.2 -0.35,0.38333 -0.55,0.55c-0.16667,0.16667 -0.33333,0.35 -0.5,0.55c-0.13333,0.1 -0.25,0.21667 -0.35,0.35c-0.06667,0.06667 -0.13333,0.11667 -0.2,0.15c-0.36667,0.13333 -0.71667,0.26667 -1.05,0.4c-0.2,0.16667 -0.38333,0.33333 -0.55,0.5c-0.13333,0.13333 -0.25,0.26667 -0.35,0.4c-0.06667,0.03333 -0.13333,0.06667 -0.2,0.1c-0.3,0.1 -0.6,0.18333 -0.9,0.25c-0.33333,0.1 -0.68333,0.21667 -1.05,0.35c-0.36667,0.1 -0.73333,0.21667 -1.1,0.35c-0.33333,0.13333 -0.68333,0.25 -1.05,0.35c-0.7,0.23333 -1.41667,0.46667 -2.15,0.7c-0.36667,0.13333 -0.71667,0.26667 -1.05,0.4c-0.76667,0.1 -1.55,0.21667 -2.35,0.35c-0.4,0.1 -0.81667,0.21667 -1.25,0.35c-0.76667,0.1 -1.53333,0.23333 -2.3,0.4c-0.43333,0.1 -0.85,0.2 -1.25,0.3c-4.1,0.13333 -8.2,0.25 -12.3,0.35c-0.43333,0.13333 -0.85,0.25 -1.25,0.35c-7.86667,0 -15.73333,0 -23.6,0c-0.4,-0.1 -0.81667,-0.21667 -1.25,-0.35c-1,-0.1 -2.01667,-0.21667 -3.05,-0.35c-0.4,-0.1 -0.81667,-0.21667 -1.25,-0.35c-0.53333,-0.13333 -1.06667,-0.26667 -1.6,-0.4c-0.4,-0.1 -0.81667,-0.2 -1.25,-0.3c-0.93333,-0.23333 -1.88333,-0.48333 -2.85,-0.75c-0.93333,-0.23333 -1.88333,-0.46667 -2.85,-0.7c-0.13333,-0.16667 -0.25,-0.35 -0.35,-0.55c-0.23333,-0.16667 -0.46667,-0.33333 -0.7,-0.5c-0.2,-0.2 -0.38333,-0.38333 -0.55,-0.55c-0.16667,-0.16667 -0.35,-0.35 -0.55,-0.55c-0.1,-0.16667 -0.21667,-0.33333 -0.35,-0.5c-0.13333,-0.2 -0.25,-0.38333 -0.35,-0.55c0,-0.2 0,-0.38333 0,-0.55c-0.06667,-0.16667 -0.13333,-0.35 -0.2,-0.55c-0.03333,-0.16667 -0.08333,-0.33333 -0.15,-0.5c-0.13333,-0.2 -0.25,-0.38333 -0.35,-0.55c0,-0.16667 0,-0.35 0,-0.55c0,-0.16667 0,-0.33333 0,-0.5c0,-0.2 0,-0.38333 0,-0.55c-0.13333,-0.2 -0.26667,-0.38333 -0.4,-0.55c-0.1,-0.16667 -0.21667,-0.35 -0.35,-0.55c0,-0.16667 0,-0.33333 0,-0.5c0,-0.2 0,-0.38333 0,-0.55c-0.03333,-0.16667 -0.08333,-0.35 -0.15,-0.55c-0.06667,0.13333 -0.13333,0.25 -0.2,0.35c-0.06667,0.2 -0.11667,0.38333 -0.15,0.55c-0.13333,0.16667 -0.26667,0.35 -0.4,0.55c-0.16667,0.16667 -0.33333,0.35 -0.5,0.55c-0.13333,0.16667 -0.25,0.33333 -0.35,0.5c-0.2,0.2 -0.38333,0.38333 -0.55,0.55c-0.16667,0.16667 -0.35,0.35 -0.55,0.55c-0.16667,0.16667 -0.35,0.33333 -0.55,0.5c-0.16667,0.2 -0.33333,0.38333 -0.5,0.55c-0.23333,0.16667 -0.48333,0.35 -0.75,0.55c-0.16667,0.16667 -0.33333,0.35 -0.5,0.55c-0.2,0.16667 -0.38333,0.33333 -0.55,0.5c-0.16667,0.2 -0.35,0.38333 -0.55,0.55c-0.4,0.16667 -0.81667,0.35 -1.25,0.55c-0.1,0.1 -0.21667,0.21667 -0.35,0.35c-0.3,0.06667 -0.58333,0.13333 -0.85,0.2c-0.73333,0.23333 -1.46667,0.41667 -2.2,0.55c-1.33333,0.3 -2.65,0.65 -3.95,1.05c-2.23333,0.7 -4.48333,1.35 -6.75,1.95c-1.3,0.1 -2.6,0.21667 -3.9,0.35c-0.36667,0.13333 -0.73333,0.25 -1.1,0.35c-1.76667,0.13333 -3.55,0.25 -5.35,0.35c-0.36667,0.13333 -0.71667,0.25 -1.05,0.35c-1.56667,0.13333 -3.11667,0.26667 -4.65,0.4c-0.36667,0.1 -0.73333,0.21667 -1.1,0.35c-1.3,0.1 -2.6,0.21667 -3.9,0.35c-0.36667,0.1 -0.73333,0.21667 -1.1,0.35c-2,0.13333 -4.01667,0.25 -6.05,0.35c-0.36667,0.13333 -0.71667,0.25 -1.05,0.35c-2.26667,0.13333 -4.53333,0.25 -6.8,0.35c-0.36667,0.13333 -0.73333,0.26667 -1.1,0.4c-1.76667,0.1 -3.55,0.21667 -5.35,0.35c-0.33333,0.1 -0.68333,0.21667 -1.05,0.35c-3.8,0 -7.61667,0 -11.45,0c-0.4,-0.13333 -0.81667,-0.25 -1.25,-0.35c-1.46667,-0.13333 -2.95,-0.25 -4.45,-0.35c-0.4,-0.13333 -0.81667,-0.26667 -1.25,-0.4c-0.3,-0.1 -0.6,-0.2 -0.9,-0.3c-0.4,-0.13333 -0.81667,-0.26667 -1.25,-0.4c-0.1,-0.1 -0.21667,-0.21667 -0.35,-0.35c-0.36667,-0.13333 -0.71667,-0.25 -1.05,-0.35c-0.2,-0.2 -0.38333,-0.38333 -0.55,-0.55c-0.16667,-0.16667 -0.35,-0.35 -0.55,-0.55c-0.16667,-0.16667 -0.33333,-0.33333 -0.5,-0.5c-0.13333,-0.2 -0.26667,-0.38333 -0.4,-0.55c-0.16667,-0.16667 -0.33333,-0.35 -0.5,-0.55c-0.23333,-0.16667 -0.48333,-0.33333 -0.75,-0.5c-0.1,-0.2 -0.21667,-0.38333 -0.35,-0.55c-0.06667,-0.2 -0.11667,-0.38333 -0.15,-0.55c-0.06667,-0.16667 -0.13333,-0.35 -0.2,-0.55c-0.1,-0.16667 -0.21667,-0.33333 -0.35,-0.5c-0.06667,-0.2 -0.13333,-0.38333 -0.2,-0.55c-0.1,-0.16667 -0.21667,-0.35 -0.35,-0.55c-0.06667,-0.16667 -0.11667,-0.33333 -0.15,-0.5c-0.13333,-0.2 -0.25,-0.38333 -0.35,-0.55c-0.2,-0.2 -0.38333,-0.38333 -0.55,-0.55c-0.13333,-0.16667 -0.25,-0.35 -0.35,-0.55c-0.06667,-0.16667 -0.13333,-0.33333 -0.2,-0.5c0,-0.2 0,-0.38333 0,-0.55c0,-0.16667 0,-0.35 0,-0.55c-0.06667,-0.16667 -0.11667,-0.33333 -0.15,-0.5c-0.13333,-0.2 -0.26667,-0.38333 -0.4,-0.55c-0.03333,-0.2 -0.08333,-0.38333 -0.15,-0.55c0,-0.16667 0,-0.35 0,-0.55c-0.06667,-0.16667 -0.13333,-0.33333 -0.2,-0.5c-0.06667,-0.2 -0.11667,-0.38333 -0.15,-0.55c-0.13333,-0.16667 -0.25,-0.35 -0.35,-0.55c0,-0.16667 0,-0.33333 0,-0.5c0,-0.2 0,-0.38333 0,-0.55c-0.2,0 -0.38333,0 -0.55,0c-0.36667,0.1 -0.73333,0.21667 -1.1,0.35c-0.33333,0.13333 -0.68333,0.25 -1.05,0.35c-0.36667,0.13333 -0.71667,0.25 -1.05,0.35c-2.63333,0 -5.26667,0 -7.9,0c-0.3,0.06667 -0.58333,0.13333 -0.85,0.2c0.16667,0.16667 0.33333,0.35 0.5,0.55c0.2,0.16667 0.38333,0.33333 0.55,0.5c0.06667,0.2 0.13333,0.38333 0.2,0.55c0.03333,0.16667 0.08333,0.35 0.15,0.55c0,0.16667 0,0.33333 0,0.5c0.13333,0.2 0.25,0.38333 0.35,0.55c0.06667,0.16667 0.13333,0.35 0.2,0.55c0.06667,0.16667 0.11667,0.35 0.15,0.55c0.13333,0.16667 0.26667,0.33333 0.4,0.5c0.1,0.2 0.21667,0.38333 0.35,0.55c0.03333,0.16667 0.08333,0.35 0.15,0.55c0.13333,0.16667 0.25,0.33333 0.35,0.5c0.06667,0.2 0.13333,0.38333 0.2,0.55c0,0.16667 0,0.35 0,0.55c0,0.16667 0,0.35 0,0.55c0,0.16667 0,0.33333 0,0.5c0,0.2 0,0.38333 0,0.55c0,0.16667 0,0.35 0,0.55c0,0.16667 0,0.33333 0,0.5c0,0.2 0,0.38333 0,0.55c-0.06667,0.16667 -0.13333,0.35 -0.2,0.55c-0.03333,0.16667 -0.08333,0.35 -0.15,0.55c-0.2,0.16667 -0.38333,0.33333 -0.55,0.5c-0.4,0.2 -0.81667,0.38333 -1.25,0.55c-0.1,0.13333 -0.21667,0.25 -0.35,0.35c-0.36667,0.13333 -0.71667,0.25 -1.05,0.35c-0.13333,0.13333 -0.26667,0.25 -0.4,0.35c-0.3,0.06667 -0.58333,0.13333 -0.85,0.2c-0.6,0.13333 -1.2,0.26667 -1.8,0.4c-0.36667,0.1 -0.73333,0.2 -1.1,0.3c-1.3,0.13333 -2.6,0.25 -3.9,0.35c-0.36667,0.13333 -0.73333,0.26667 -1.1,0.4c-1.3,0.1 -2.6,0.21667 -3.9,0.35c-0.36667,0.1 -0.73333,0.21667 -1.1,0.35c-1.06667,0.1 -2.13333,0.21667 -3.2,0.35c-0.36667,0.13333 -0.71667,0.25 -1.05,0.35c-8.33333,0 -16.66667,0 -25,0c-0.43333,-0.1 -0.85,-0.21667 -1.25,-0.35c-1.5,-0.13333 -2.98333,-0.25 -4.45,-0.35c-0.43333,-0.13333 -0.85,-0.25 -1.25,-0.35c-0.13333,-0.2 -0.26667,-0.38333 -0.4,-0.55c-0.16667,-0.13333 -0.33333,-0.25 -0.5,-0.35c-0.06667,-0.06667 -0.13333,-0.11667 -0.2,-0.15c-0.36667,-0.13333 -0.71667,-0.26667 -1.05,-0.4c-0.13333,-0.16667 -0.25,-0.35 -0.35,-0.55c-0.26667,-0.16667 -0.51667,-0.33333 -0.75,-0.5c-0.1,-0.2 -0.21667,-0.38333 -0.35,-0.55c-0.06667,-0.16667 -0.11667,-0.35 -0.15,-0.55c-0.13333,-0.16667 -0.26667,-0.33333 -0.4,-0.5c-0.16667,-0.2 -0.33333,-0.38333 -0.5,-0.55c0,0.1 0,0.21667 0,0.35c0,0.16667 0,0.35 0,0.55c-0.06667,0.16667 -0.13333,0.33333 -0.2,0.5c-0.06667,0.2 -0.11667,0.38333 -0.15,0.55c-0.2,0.16667 -0.38333,0.35 -0.55,0.55c-0.2,0.16667 -0.38333,0.35 -0.55,0.55c-0.16667,0.16667 -0.35,0.33333 -0.55,0.5c-0.1,0.13333 -0.21667,0.25 -0.35,0.35c-0.06667,0.06667 -0.13333,0.11667 -0.2,0.15c-0.26667,0.1 -0.55,0.18333 -0.85,0.25c-0.46667,0 -0.95,0 -1.45,0c-0.4,-0.13333 -0.81667,-0.26667 -1.25,-0.4c-0.1,-0.1 -0.21667,-0.21667 -0.35,-0.35c-0.36667,-0.1 -0.71667,-0.21667 -1.05,-0.35c-0.2,-0.16667 -0.38333,-0.35 -0.55,-0.55c-0.13333,-0.1 -0.25,-0.21667 -0.35,-0.35c-0.06667,-0.06667 -0.13333,-0.1 -0.2,-0.1c-0.33333,-0.16667 -0.68333,-0.3 -1.05,-0.4c-0.2,-0.2 -0.38333,-0.38333 -0.55,-0.55c-0.16667,-0.2 -0.35,-0.38333 -0.55,-0.55c-0.16667,-0.16667 -0.33333,-0.35 -0.5,-0.55c-0.06667,0.13333 -0.13333,0.26667 -0.2,0.4c0,0.16667 0,0.33333 0,0.5c-0.06667,0.2 -0.11667,0.38333 -0.15,0.55c-0.13333,0.16667 -0.26667,0.35 -0.4,0.55c-0.1,0.16667 -0.21667,0.33333 -0.35,0.5c-0.23333,0.2 -0.46667,0.38333 -0.7,0.55c-0.36667,0.13333 -0.71667,0.25 -1.05,0.35c-0.36667,0.13333 -0.73333,0.25 -1.1,0.35c-0.36667,0.13333 -0.73333,0.25 -1.1,0.35c-0.56667,0.13333 -1.15,0.26667 -1.75,0.4c-0.36667,0.1 -0.71667,0.21667 -1.05,0.35c-1.1,0.1 -2.18333,0.21667 -3.25,0.35c-0.33333,0.13333 -0.68333,0.25 -1.05,0.35c-1.8,0.13333 -3.58333,0.25 -5.35,0.35c-0.36667,0.13333 -0.73333,0.25 -1.1,0.35c-2,0.13333 -4.01667,0.26667 -6.05,0.4c-0.36667,0.1 -0.73333,0.21667 -1.1,0.35c-5,0 -10,0 -15,0c-0.4,-0.13333 -0.8,-0.26667 -1.2,-0.4c-0.3,-0.1 -0.61667,-0.2 -0.95,-0.3c-0.4,-0.13333 -0.8,-0.26667 -1.2,-0.4c-0.13333,-0.16667 -0.26667,-0.33333 -0.4,-0.5c-0.23333,-0.2 -0.46667,-0.38333 -0.7,-0.55c-0.16667,-0.2 -0.33333,-0.38333 -0.5,-0.55c-0.2,-0.16667 -0.38333,-0.35 -0.55,-0.55c-0.13333,-0.16667 -0.25,-0.33333 -0.35,-0.5c-0.13333,-0.2 -0.25,-0.38333 -0.35,-0.55c-0.06667,-0.16667 -0.13333,-0.35 -0.2,-0.55c-0.13333,-0.16667 -0.25,-0.33333 -0.35,-0.5c-0.06667,-0.2 -0.13333,-0.38333 -0.2,-0.55c-0.1,-0.2 -0.21667,-0.38333 -0.35,-0.55c-0.1,-0.16667 -0.21667,-0.35 -0.35,-0.55c0,-0.16667 0,-0.33333 0,-0.5c0,-0.2 0,-0.38333 0,-0.55c-0.13333,-0.16667 -0.25,-0.35 -0.35,-0.55c-0.13333,-0.16667 -0.25,-0.33333 -0.35,-0.5c0,-0.2 0,-0.38333 0,-0.55c0,-0.2 0,-0.38333 0,-0.55c0,-0.16667 0,-0.35 0,-0.55c-0.06667,-0.16667 -0.13333,-0.33333 -0.2,-0.5c-0.1,-0.2 -0.21667,-0.38333 -0.35,-0.55c-0.06667,-0.16667 -0.13333,-0.35 -0.2,-0.55c0,-0.16667 0,-0.33333 0,-0.5c0,-0.2 0,-0.38333 0,-0.55c-0.03333,-0.2 -0.08333,-0.38333 -0.15,-0.55c-0.06667,-0.16667 -0.13333,-0.35 -0.2,-0.55c-0.1,-0.16667 -0.21667,-0.33333 -0.35,-0.5c-0.06667,-0.2 -0.11667,-0.38333 -0.15,-0.55c-0.13333,-0.16667 -0.26667,-0.35 -0.4,-0.55c-0.03333,-0.16667 -0.08333,-0.33333 -0.15,-0.5c0,-0.2 0,-0.38333 0,-0.55c0,-0.2 0,-0.38333 0,-0.55c-0.06667,-0.16667 -0.13333,-0.35 -0.2,-0.55c-0.06667,-0.16667 -0.11667,-0.33333 -0.15,-0.5c-0.13333,-0.2 -0.25,-0.38333 -0.35,-0.55c0,-0.16667 0,-0.35 0,-0.55c0,-0.16667 0,-0.33333 0,-0.5c-0.06667,-0.2 -0.13333,-0.38333 -0.2,-0.55c-0.06667,-0.2 -0.13333,-0.38333 -0.2,-0.55c-0.1,-0.16667 -0.21667,-0.35 -0.35,-0.55c-0.06667,-0.16667 -0.11667,-0.33333 -0.15,-0.5c-0.06667,-0.2 -0.13333,-0.38333 -0.2,-0.55c-0.1,-0.16667 -0.21667,-0.35 -0.35,-0.55c0,-0.16667 0,-0.33333 0,-0.5c0,-0.2 0,-0.38333 0,-0.55c0,-0.2 0,-0.38333 0,-0.55c0,-0.16667 0,-0.35 0,-0.55c0,-0.16667 0,-0.33333 0,-0.5c-0.06667,-0.2 -0.13333,-0.38333 -0.2,-0.55c-0.03333,-0.16667 -0.08333,-0.35 -0.15,-0.55c-0.13333,-0.16667 -0.25,-0.33333 -0.35,-0.5c0,-0.2 0,-0.38333 0,-0.55c0,-0.2 0,-0.38333 0,-0.55c0,-0.16667 0,-0.35 0,-0.55c0,-0.16667 0,-0.33333 0,-0.5c0,-0.2 0,-0.38333 0,-0.55c0,-0.16667 0,-0.35 0,-0.55c0,-0.16667 0,-0.33333 0,-0.5c0,-0.2 0,-0.38333 0,-0.55c0,-0.16667 0,-0.35 0,-0.55c0,-0.3 0,-0.6 0,-0.9c-0.06667,0 -0.13333,0 -0.2,0c-1.53333,0.13333 -3.08333,0.25 -4.65,0.35c-0.33333,0.13333 -0.68333,0.26667 -1.05,0.4c-2.03333,0.1 -4.06667,0.21667 -6.1,0.35c-0.33333,0.1 -0.68333,0.2 -1.05,0.3c-0.6,0.13333 -1.2,0.28333 -1.8,0.45c-0.33333,0.1 -0.68333,0.2 -1.05,0.3c-0.36667,0.13333 -0.73333,0.25 -1.1,0.35c-0.16667,0.2 -0.33333,0.38333 -0.5,0.55c-0.2,0.16667 -0.38333,0.35 -0.55,0.55c-0.06667,0.16667 -0.13333,0.33333 -0.2,0.5c0,0.2 0,0.38333 0,0.55c0,0.16667 0,0.35 0,0.55c0,0.16667 0,0.35 0,0.55c0,0.16667 0,0.33333 0,0.5c0,0.2 0,0.38333 0,0.55c0,0.16667 0,0.35 0,0.55c0,0.16667 0,0.33333 0,0.5c0,0.2 0,0.38333 0,0.55c0.06667,0.16667 0.13333,0.35 0.2,0.55c0.13333,0.16667 0.25,0.35 0.35,0.55c0.06667,0.16667 0.13333,0.33333 0.2,0.5c0,0.2 0,0.38333 0,0.55c0,0.16667 0,0.35 0,0.55c0,0.16667 0,0.33333 0,0.5c0,0.2 0,0.38333 0,0.55c0,0.16667 0,0.35 0,0.55c0,0.36667 0,0.71667 0,1.05c0,0.2 0,0.38333 0,0.55c0,0.53333 0,1.06667 0,1.6c0,0.16667 0,0.35 0,0.55c0,0.16667 0,0.35 0,0.55c0.03333,0.16667 0.08333,0.33333 0.15,0.5c0.13333,0.2 0.25,0.38333 0.35,0.55c0.06667,0.16667 0.13333,0.35 0.2,0.55c0,0.16667 0,0.33333 0,0.5c0,0.2 0,0.38333 0,0.55c0,0.16667 0,0.35 0,0.55c0,0.16667 0,0.35 0,0.55c0,0.16667 0,0.33333 0,0.5c0,0.2 0,0.38333 0,0.55c0,0.16667 0,0.35 0,0.55c0,0.16667 0,0.33333 0,0.5c0,0.36667 0,0.73333 0,1.1c0,0.16667 0,0.35 0,0.55c-0.06667,0.16667 -0.13333,0.33333 -0.2,0.5c-0.03333,0.2 -0.08333,0.38333 -0.15,0.55c-0.13333,0.16667 -0.25,0.35 -0.35,0.55c-0.06667,0.16667 -0.13333,0.33333 -0.2,0.5c-0.1,0.2 -0.21667,0.38333 -0.35,0.55c-0.16667,0.16667 -0.35,0.35 -0.55,0.55c-0.16667,0.16667 -0.33333,0.35 -0.5,0.55c-0.36667,0.1 -0.73333,0.21667 -1.1,0.35c-0.7,0.23333 -1.4,0.48333 -2.1,0.75c-1.3,0.46667 -2.61667,0.85 -3.95,1.15c-2.26667,0.5 -4.53333,1.05 -6.8,1.65c-3.1,0 -6.2,0 -9.3,0c-0.4,-0.1 -0.81667,-0.21667 -1.25,-0.35c-0.53333,-0.13333 -1.06667,-0.26667 -1.6,-0.4c-0.4,-0.1 -0.81667,-0.2 -1.25,-0.3c-0.06667,-0.13333 -0.11667,-0.25 -0.15,-0.35c-0.43333,-0.13333 -0.85,-0.26667 -1.25,-0.4c-0.13333,-0.16667 -0.26667,-0.33333 -0.4,-0.5c-0.23333,-0.2 -0.46667,-0.38333 -0.7,-0.55c-0.16667,-0.16667 -0.35,-0.35 -0.55,-0.55c-0.16667,-0.16667 -0.33333,-0.33333 -0.5,-0.5c-0.13333,-0.2 -0.25,-0.38333 -0.35,-0.55c-0.13333,-0.2 -0.26667,-0.38333 -0.4,-0.55c0,-0.16667 0,-0.35 0,-0.55c-0.03333,-0.16667 -0.08333,-0.33333 -0.15,-0.5c-0.06667,-0.2 -0.13333,-0.38333 -0.2,-0.55c-0.1,-0.16667 -0.21667,-0.35 -0.35,-0.55c-0.1,0.13333 -0.21667,0.25 -0.35,0.35c-0.16667,0.2 -0.35,0.38333 -0.55,0.55c-0.16667,0.16667 -0.33333,0.35 -0.5,0.55c-0.13333,0.16667 -0.26667,0.35 -0.4,0.55c-0.1,0.16667 -0.21667,0.33333 -0.35,0.5c-0.1,0.2 -0.21667,0.38333 -0.35,0.55c-0.1,0.13333 -0.21667,0.25 -0.35,0.35c-0.36667,0.13333 -0.71667,0.25 -1.05,0.35c-0.2,0.2 -0.38333,0.38333 -0.55,0.55c-0.13333,0.13333 -0.25,0.25 -0.35,0.35c-0.06667,0.06667 -0.13333,0.11667 -0.2,0.15c-0.36667,0.13333 -0.71667,0.26667 -1.05,0.4c-0.13333,0.1 -0.25,0.21667 -0.35,0.35c-0.36667,0.13333 -0.73333,0.25 -1.1,0.35c-0.1,0.13333 -0.21667,0.25 -0.35,0.35c-0.36667,0.13333 -0.71667,0.25 -1.05,0.35c-0.13333,0.13333 -0.25,0.26667 -0.35,0.4c-0.36667,0.1 -0.73333,0.21667 -1.1,0.35c-0.1,0.1 -0.21667,0.21667 -0.35,0.35c-0.3,0.06667 -0.6,0.13333 -0.9,0.2c-0.36667,0.1 -0.71667,0.21667 -1.05,0.35c-0.36667,0.1 -0.73333,0.21667 -1.1,0.35c-0.33333,0.1 -0.68333,0.21667 -1.05,0.35c-0.43333,0.16667 -0.85,0.35 -1.25,0.55c-0.13333,0.1 -0.25,0.21667 -0.35,0.35c-0.3,0.03333 -0.6,0.1 -0.9,0.2c-0.36667,0.1 -0.73333,0.2 -1.1,0.3c-0.33333,0.13333 -0.68333,0.26667 -1.05,0.4c-0.83333,0.1 -1.66667,0.21667 -2.5,0.35c-0.36667,0.1 -0.71667,0.21667 -1.05,0.35c-0.5,0 -0.98333,0 -1.45,0c-0.43333,-0.13333 -0.85,-0.25 -1.25,-0.35c-0.53333,-0.13333 -1.06667,-0.26667 -1.6,-0.4c-0.43333,-0.1 -0.85,-0.21667 -1.25,-0.35c-0.13333,-0.16667 -0.25,-0.33333 -0.35,-0.5c-0.23333,-0.2 -0.48333,-0.38333 -0.75,-0.55c-0.16667,-0.16667 -0.33333,-0.35 -0.5,-0.55c-0.2,-0.16667 -0.38333,-0.33333 -0.55,-0.5c-0.16667,-0.2 -0.35,-0.38333 -0.55,-0.55c-0.16667,-0.2 -0.33333,-0.38333 -0.5,-0.55c-0.2,-0.16667 -0.38333,-0.35 -0.55,-0.55c-0.43333,-0.16667 -0.85,-0.33333 -1.25,-0.5c-0.2,-0.2 -0.38333,-0.38333 -0.55,-0.55c-0.16667,-0.16667 -0.35,-0.35 -0.55,-0.55c-0.16667,-0.16667 -0.33333,-0.33333 -0.5,-0.5c-0.13333,-0.2 -0.25,-0.38333 -0.35,-0.55c-0.06667,-0.2 -0.13333,-0.38333 -0.2,-0.55c-0.13333,-0.16667 -0.25,-0.35 -0.35,-0.55c-0.2,-0.16667 -0.38333,-0.33333 -0.55,-0.5c-0.16667,-0.2 -0.35,-0.38333 -0.55,-0.55c-0.16667,-0.16667 -0.33333,-0.35 -0.5,-0.55c-0.2,-0.16667 -0.38333,-0.33333 -0.55,-0.5c-0.16667,-0.2 -0.35,-0.38333 -0.55,-0.55c-0.1,-0.2 -0.21667,-0.38333 -0.35,-0.55c-0.1,-0.16667 -0.21667,-0.35 -0.35,-0.55c-0.06667,-0.16667 -0.13333,-0.33333 -0.2,-0.5c-0.16667,-0.2 -0.33333,-0.38333 -0.5,-0.55c-0.2,-0.16667 -0.38333,-0.35 -0.55,-0.55c-0.16667,-0.16667 -0.35,-0.33333 -0.55,-0.5c-0.16667,-0.2 -0.33333,-0.38333 -0.5,-0.55c-0.13333,-0.2 -0.26667,-0.38333 -0.4,-0.55c-0.03333,-0.16667 -0.08333,-0.35 -0.15,-0.55c-0.13333,-0.16667 -0.25,-0.33333 -0.35,-0.5c-0.2,-0.2 -0.38333,-0.38333 -0.55,-0.55c-0.16667,-0.16667 -0.35,-0.35 -0.55,-0.55c-0.1,-0.16667 -0.21667,-0.33333 -0.35,-0.5c-0.06667,-0.2 -0.11667,-0.38333 -0.15,-0.55c-0.13333,-0.13333 -0.26667,-0.25 -0.4,-0.35c0,0.16667 0,0.33333 0,0.5c0,0.2 0,0.38333 0,0.55c0,0.16667 0,0.35 0,0.55c0,0.16667 0,0.35 0,0.55c0,0.16667 0,0.33333 0,0.5c0,0.2 0,0.38333 0,0.55c0,0.16667 0,0.35 0,0.55c0,0.16667 0,0.33333 0,0.5c0,0.36667 0,0.73333 0,1.1c0,0.36667 0,0.71667 0,1.05c0.13333,0.2 0.26667,0.38333 0.4,0.55c0.1,0.16667 0.21667,0.35 0.35,0.55c0,0.16667 0,0.33333 0,0.5c0,0.2 0,0.38333 0,0.55c0,0.16667 0,0.35 0,0.55c0,0.16667 0,0.35 0,0.55c0,0.16667 0,0.33333 0,0.5c0,0.2 0,0.38333 0,0.55c0,0.16667 0,0.35 0,0.55c0,0.16667 0,0.33333 0,0.5c0,0.2 0,0.38333 0,0.55c-0.06667,0.16667 -0.13333,0.35 -0.2,0.55c-0.1,0.16667 -0.21667,0.35 -0.35,0.55c-0.13333,0.1 -0.25,0.21667 -0.35,0.35c-0.06667,0.03333 -0.13333,0.06667 -0.2,0.1c-0.33333,0.16667 -0.68333,0.3 -1.05,0.4c-0.13333,0.13333 -0.25,0.26667 -0.35,0.4c-0.3,0.03333 -0.6,0.08333 -0.9,0.15c-0.83333,0.13333 -1.66667,0.25 -2.5,0.35c-0.36667,0.13333 -0.73333,0.25 -1.1,0.35c-0.83333,0.13333 -1.66667,0.26667 -2.5,0.4c-0.33333,0.1 -0.68333,0.21667 -1.05,0.35c-1.06667,0.1 -2.13333,0.21667 -3.2,0.35c-0.36667,0.1 -0.73333,0.21667 -1.1,0.35c-1.53333,0.13333 -3.08333,0.25 -4.65,0.35c-0.33333,0.13333 -0.68333,0.25 -1.05,0.35c-4.03333,0 -8.08333,0 -12.15,0c-0.4,-0.1 -0.81667,-0.21667 -1.25,-0.35c-0.1,-0.1 -0.21667,-0.21667 -0.35,-0.35c-0.36667,-0.13333 -0.71667,-0.25 -1.05,-0.35c-0.13333,-0.2 -0.25,-0.38333 -0.35,-0.55c-0.26667,-0.16667 -0.51667,-0.35 -0.75,-0.55c-0.1,-0.16667 -0.21667,-0.33333 -0.35,-0.5c-0.06667,-0.2 -0.11667,-0.38333 -0.15,-0.55c-0.13333,-0.16667 -0.26667,-0.35 -0.4,-0.55c-0.16667,-0.16667 -0.33333,-0.33333 -0.5,-0.5c-0.13333,-0.2 -0.25,-0.38333 -0.35,-0.55c-0.06667,-0.2 -0.13333,-0.38333 -0.2,-0.55c-0.06667,-0.16667 -0.13333,-0.35 -0.2,-0.55c-0.1,-0.16667 -0.21667,-0.33333 -0.35,-0.5c0,-0.2 0,-0.38333 0,-0.55c-0.06667,-0.16667 -0.11667,-0.35 -0.15,-0.55c-0.06667,-0.16667 -0.13333,-0.33333 -0.2,-0.5c-0.1,-0.2 -0.21667,-0.38333 -0.35,-0.55c0,-0.2 0,-0.38333 0,-0.55c-0.06667,-0.16667 -0.13333,-0.35 -0.2,-0.55c-0.03333,-0.16667 -0.08333,-0.33333 -0.15,-0.5c-0.13333,-0.2 -0.25,-0.38333 -0.35,-0.55c0,-0.16667 0,-0.35 0,-0.55c0,-0.16667 0,-0.33333 0,-0.5c0,-0.2 0,-0.38333 0,-0.55c0,-0.2 0,-0.38333 0,-0.55c-0.06667,-0.16667 -0.13333,-0.35 -0.2,-0.55c-0.1,-0.16667 -0.21667,-0.33333 -0.35,-0.5c-0.06667,-0.2 -0.13333,-0.38333 -0.2,-0.55c0,-0.16667 0,-0.35 0,-0.55c0,-0.16667 0,-0.33333 0,-0.5c0,-0.2 0,-0.38333 0,-0.55c-0.16667,0 -0.33333,0 -0.5,0c-0.2,0.16667 -0.38333,0.35 -0.55,0.55c-0.13333,0.16667 -0.25,0.33333 -0.35,0.5c-0.2,0.2 -0.38333,0.38333 -0.55,0.55c-0.23333,0.16667 -0.46667,0.35 -0.7,0.55c-0.2,0.16667 -0.38333,0.33333 -0.55,0.5c-0.16667,0.2 -0.35,0.38333 -0.55,0.55c-0.16667,0.16667 -0.33333,0.35 -0.5,0.55c-0.2,0.16667 -0.38333,0.35 -0.55,0.55c-0.16667,0.16667 -0.35,0.33333 -0.55,0.5c-0.1,0.13333 -0.21667,0.25 -0.35,0.35c-0.3,0.13333 -0.6,0.26667 -0.9,0.4c-0.16667,0.16667 -0.33333,0.33333 -0.5,0.5c-0.26667,0.2 -0.51667,0.38333 -0.75,0.55c-0.16667,0.16667 -0.33333,0.35 -0.5,0.55c-0.2,0.16667 -0.38333,0.33333 -0.55,0.5c-0.2,0.2 -0.38333,0.38333 -0.55,0.55c-0.1,0.13333 -0.21667,0.25 -0.35,0.35c-0.06667,0.06667 -0.13333,0.11667 -0.2,0.15c-0.33333,0.13333 -0.68333,0.26667 -1.05,0.4c-0.13333,0.13333 -0.25,0.25 -0.35,0.35c-0.3,0.06667 -0.6,0.13333 -0.9,0.2c-0.36667,0.1 -0.71667,0.21667 -1.05,0.35c-0.43333,0.16667 -0.85,0.35 -1.25,0.55c-0.13333,0.1 -0.26667,0.21667 -0.4,0.35c-0.3,0.03333 -0.58333,0.08333 -0.85,0.15c-0.6,0.13333 -1.2,0.26667 -1.8,0.4c-0.36667,0.1 -0.73333,0.21667 -1.1,0.35c-3.33333,0 -6.66667,0 -10,0c-0.4,-0.13333 -0.81667,-0.25 -1.25,-0.35c-0.53333,-0.13333 -1.06667,-0.26667 -1.6,-0.4c-0.4,-0.1 -0.81667,-0.21667 -1.25,-0.35c-0.1,-0.1 -0.21667,-0.21667 -0.35,-0.35c-0.36667,-0.13333 -0.71667,-0.25 -1.05,-0.35c-0.3,-0.13333 -0.6,-0.25 -0.9,-0.35c-0.43333,-0.13333 -0.85,-0.25 -1.25,-0.35c-0.16667,-0.2 -0.35,-0.38333 -0.55,-0.55c-0.1,-0.13333 -0.21667,-0.25 -0.35,-0.35c-0.06667,-0.06667 -0.13333,-0.11667 -0.2,-0.15c-0.33333,-0.13333 -0.68333,-0.26667 -1.05,-0.4c-0.16667,-0.16667 -0.35,-0.35 -0.55,-0.55c-0.1,-0.1 -0.21667,-0.21667 -0.35,-0.35c-0.06667,-0.06667 -0.13333,-0.11667 -0.2,-0.15c-0.33333,-0.13333 -0.68333,-0.26667 -1.05,-0.4c-0.16667,-0.16667 -0.35,-0.33333 -0.55,-0.5c-0.1,-0.13333 -0.21667,-0.25 -0.35,-0.35c-0.03333,-0.06667 -0.1,-0.11667 -0.2,-0.15c-0.33333,-0.16667 -0.68333,-0.3 -1.05,-0.4c-0.1,-0.2 -0.21667,-0.38333 -0.35,-0.55c-0.23333,-0.16667 -0.46667,-0.35 -0.7,-0.55c-0.16667,-0.16667 -0.35,-0.33333 -0.55,-0.5c-0.16667,-0.2 -0.35,-0.38333 -0.55,-0.55c-0.1,-0.16667 -0.21667,-0.35 -0.35,-0.55c-0.23333,-0.16667 -0.46667,-0.33333 -0.7,-0.5c-0.13333,-0.2 -0.25,-0.38333 -0.35,-0.55c-0.06667,-0.2 -0.13333,-0.38333 -0.2,-0.55c-0.03333,-0.16667 -0.08333,-0.35 -0.15,-0.55c-0.23333,-0.16667 -0.48333,-0.33333 -0.75,-0.5c0,0.1 0,0.21667 0,0.35c0,0.16667 0,0.35 0,0.55c0,0.16667 0,0.33333 0,0.5c0,0.36667 0,0.73333 0,1.1c0,0.33333 0,0.68333 0,1.05c0,0.36667 0,0.73333 0,1.1c0,0.53333 0,1.06667 0,1.6c0,0.33333 0,0.68333 0,1.05c0,0.53333 0,1.06667 0,1.6c0,0.36667 0,0.73333 0,1.1c0,0.16667 0,0.33333 0,0.5c-0.1,0.2 -0.21667,0.38333 -0.35,0.55c-0.1,0.16667 -0.21667,0.35 -0.35,0.55c-0.1,0.16667 -0.21667,0.35 -0.35,0.55c-0.16667,0.1 -0.35,0.21667 -0.55,0.35c-0.03333,0.03333 -0.1,0.06667 -0.2,0.1c-0.26667,0.1 -0.55,0.18333 -0.85,0.25c-5.13333,0.1 -10.25,0.21667 -15.35,0.35c-0.36667,0.13333 -0.73333,0.25 -1.1,0.35c-3.2,0.13333 -6.4,0.25 -9.6,0.35c-0.36667,0.13333 -0.73333,0.25 -1.1,0.35c-1.3,0.13333 -2.6,0.26667 -3.9,0.4c-0.36667,0.1 -0.73333,0.2 -1.1,0.3c-0.6,0.13333 -1.18333,0.28333 -1.75,0.45c-0.36667,0.06667 -0.73333,0.16667 -1.1,0.3c-0.96667,0 -1.91667,0 -2.85,0c-0.43333,-0.13333 -0.85,-0.25 -1.25,-0.35c-0.13333,-0.13333 -0.25,-0.25 -0.35,-0.35c-0.36667,-0.13333 -0.73333,-0.25 -1.1,-0.35c-0.1,-0.2 -0.21667,-0.38333 -0.35,-0.55c-0.1,-0.2 -0.21667,-0.38333 -0.35,-0.55c0,-0.16667 0,-0.35 0,-0.55c-0.06667,-0.16667 -0.13333,-0.33333 -0.2,-0.5c-0.03333,-0.2 -0.08333,-0.38333 -0.15,-0.55c-0.13333,-0.16667 -0.25,-0.35 -0.35,-0.55c0,-0.16667 0,-0.33333 0,-0.5c0,-0.2 0,-0.38333 0,-0.55c0,-0.2 0,-0.38333 0,-0.55c0,-0.16667 0,-0.35 0,-0.55c-0.06667,-0.16667 -0.13333,-0.33333 -0.2,-0.5c-0.1,-0.2 -0.21667,-0.38333 -0.35,-0.55c-0.06667,-0.16667 -0.13333,-0.35 -0.2,-0.55c0,-0.16667 0,-0.33333 0,-0.5c0,-0.2 0,-0.38333 0,-0.55c0,-0.2 0,-0.38333 0,-0.55c0,-0.16667 0,-0.35 0,-0.55c0,-0.16667 0,-0.33333 0,-0.5c0,-0.2 0,-0.38333 0,-0.55c0,-0.16667 0,-0.35 0,-0.55c0,-0.16667 0,-0.33333 0,-0.5c0,-0.2 0,-0.38333 0,-0.55c0,-0.2 0,-0.38333 0,-0.55c-0.1,0 -0.21667,0 -0.35,0c-0.06667,0.16667 -0.11667,0.35 -0.15,0.55c-0.06667,0.16667 -0.13333,0.35 -0.2,0.55c-0.1,0.16667 -0.21667,0.33333 -0.35,0.5c-0.06667,0.2 -0.13333,0.38333 -0.2,0.55c-0.1,0.16667 -0.21667,0.35 -0.35,0.55c-0.06667,0.16667 -0.11667,0.33333 -0.15,0.5c-0.13333,0.2 -0.25,0.38333 -0.35,0.55c-0.13333,0.16667 -0.26667,0.35 -0.4,0.55c-0.1,0.16667 -0.21667,0.35 -0.35,0.55c-0.1,0.16667 -0.21667,0.33333 -0.35,0.5c-0.1,0.2 -0.21667,0.38333 -0.35,0.55c-0.13333,0.16667 -0.25,0.35 -0.35,0.55c-0.13333,0.16667 -0.25,0.33333 -0.35,0.5c-0.13333,0.2 -0.25,0.38333 -0.35,0.55c-0.26667,0.36667 -0.51667,0.73333 -0.75,1.1c-0.16667,0.16667 -0.33333,0.33333 -0.5,0.5c-0.2,0.2 -0.38333,0.38333 -0.55,0.55c-0.16667,0.16667 -0.35,0.35 -0.55,0.55c-0.16667,0.16667 -0.35,0.33333 -0.55,0.5c-0.1,0.13333 -0.21667,0.26667 -0.35,0.4c-0.33333,0.1 -0.68333,0.21667 -1.05,0.35c-0.13333,0.1 -0.25,0.21667 -0.35,0.35c-0.3,0.06667 -0.6,0.13333 -0.9,0.2c-0.73333,0.23333 -1.45,0.43333 -2.15,0.6c-1.53333,0.4 -3.08333,0.8 -4.65,1.2c-2.26667,0.56667 -4.53333,1.15 -6.8,1.75c-1.06667,0.1 -2.13333,0.21667 -3.2,0.35c-0.36667,0.13333 -0.71667,0.25 -1.05,0.35c-2.03333,0.13333 -4.06667,0.25 -6.1,0.35c-0.33333,0.13333 -0.68333,0.25 -1.05,0.35c-0.96667,0 -1.91667,0 -2.85,0c-0.43333,-0.1 -0.85,-0.21667 -1.25,-0.35c-1.26667,-0.1 -2.51667,-0.21667 -3.75,-0.35c-0.43333,-0.1 -0.85,-0.2 -1.25,-0.3c-1.3,-0.23333 -2.56667,-0.58333 -3.8,-1.05c-2.03333,-0.73333 -4.11667,-1.3 -6.25,-1.7c-2.9,-0.53333 -5.75,-1.3 -8.55,-2.3c-0.16667,-0.16667 -0.33333,-0.35 -0.5,-0.55c-0.13333,-0.1 -0.25,-0.21667 -0.35,-0.35c-0.06667,-0.06667 -0.13333,-0.11667 -0.2,-0.15c-0.36667,-0.13333 -0.71667,-0.26667 -1.05,-0.4c-0.3,-0.1 -0.6,-0.2 -0.9,-0.3c-0.43333,-0.13333 -0.85,-0.26667 -1.25,-0.4c-0.13333,-0.16667 -0.25,-0.35 -0.35,-0.55c-0.2,-0.1 -0.38333,-0.21667 -0.55,-0.35c-0.06667,-0.06667 -0.13333,-0.1 -0.2,-0.1c-0.33333,-0.16667 -0.68333,-0.3 -1.05,-0.4c-0.13333,-0.13333 -0.25,-0.26667 -0.35,-0.4c-0.36667,-0.1 -0.73333,-0.21667 -1.1,-0.35c-0.1,-0.1 -0.21667,-0.21667 -0.35,-0.35c-0.36667,-0.1 -0.71667,-0.21667 -1.05,-0.35c-0.13333,-0.13333 -0.25,-0.25 -0.35,-0.35c-0.36667,-0.13333 -0.73333,-0.25 -1.1,-0.35c-0.1,-0.13333 -0.21667,-0.25 -0.35,-0.35c-0.36667,-0.13333 -0.71667,-0.26667 -1.05,-0.4c-0.13333,-0.16667 -0.26667,-0.33333 -0.4,-0.5c-0.23333,-0.2 -0.46667,-0.38333 -0.7,-0.55c-0.16667,-0.16667 -0.35,-0.35 -0.55,-0.55c-0.1,-0.16667 -0.21667,-0.33333 -0.35,-0.5c-0.03333,-0.2 -0.08333,-0.38333 -0.15,-0.55c0,-0.2 0,-0.38333 0,-0.55c-0.06667,-0.16667 -0.13333,-0.35 -0.2,-0.55c-0.1,-0.16667 -0.21667,-0.33333 -0.35,-0.5c-0.06667,-0.2 -0.13333,-0.38333 -0.2,-0.55c0,-0.16667 0,-0.35 0,-0.55c0,-0.16667 0,-0.33333 0,-0.5c0,-0.2 0,-0.38333 0,-0.55c0,-0.2 0,-0.38333 0,-0.55c-0.1,-0.16667 -0.21667,-0.35 -0.35,-0.55c-0.1,-0.16667 -0.21667,-0.33333 -0.35,-0.5c0,-0.2 0,-0.38333 0,-0.55c0,-0.16667 0,-0.35 0,-0.55c0,-0.16667 0,-0.33333 0,-0.5c0,-0.2 0,-0.38333 0,-0.55c0,-0.2 0,-0.38333 0,-0.55c0,-0.36667 0,-0.71667 0,-1.05c0,-0.2 0,-0.38333 0,-0.55c0,-0.53333 0,-1.06667 0,-1.6c0,-0.2 0,-0.38333 0,-0.55c0,-0.16667 0,-0.35 0,-0.55c0,-0.16667 0,-0.33333 0,-0.5c-0.1,-0.2 -0.21667,-0.38333 -0.35,-0.55c-0.13333,-0.16667 -0.25,-0.35 -0.35,-0.55c0,-0.16667 0,-0.33333 0,-0.5c0,-0.2 0,-0.38333 0,-0.55c0,-0.2 0,-0.38333 0,-0.55c0,-0.16667 0,-0.35 0,-0.55c0,-0.16667 0,-0.33333 0,-0.5c0,-0.2 0,-0.38333 0,-0.55c0,-0.16667 0,-0.35 0,-0.55c0,-0.16667 0,-0.33333 0,-0.5c0,-0.2 0,-0.38333 0,-0.55c0,-0.2 0,-0.38333 0,-0.55c-0.13333,-0.16667 -0.25,-0.35 -0.35,-0.55c-0.13333,-0.16667 -0.25,-0.33333 -0.35,-0.5c0,-0.2 0,-0.38333 0,-0.55c0,-0.16667 0,-0.35 0,-0.55c0,-0.16667 0,-0.33333 0,-0.5c0,-0.2 0,-0.38333 0,-0.55c0,-0.16667 0,-0.35 0,-0.55c0,-0.36667 0,-0.71667 0,-1.05c0,-0.2 0,-0.38333 0,-0.55c0,-0.53333 0,-1.06667 0,-1.6c0,-0.16667 0,-0.35 0,-0.55c0,-0.16667 0,-0.35 0,-0.55c0,-0.16667 0,-0.33333 0,-0.5c0.03333,-0.2 0.08333,-0.38333 0.15,-0.55c0.06667,-0.16667 0.13333,-0.35 0.2,-0.55c0.1,-0.16667 0.21667,-0.33333 0.35,-0.5c0,-0.2 0,-0.38333 0,-0.55c0,-0.16667 0,-0.35 0,-0.55c0,-0.16667 0,-0.35 0,-0.55c0,-0.16667 0,-0.33333 0,-0.5c0,-0.2 0,-0.38333 0,-0.55c0,-0.16667 0,-0.35 0,-0.55c0,-0.16667 0,-0.33333 0,-0.5c0,-0.2 0,-0.38333 0,-0.55c0.1,-0.16667 0.21667,-0.35 0.35,-0.55c0.06667,-0.16667 0.13333,-0.35 0.2,-0.55c0.03333,-0.16667 0.08333,-0.33333 0.15,-0.5c0,-0.2 0,-0.38333 0,-0.55c0,-0.16667 0,-0.35 0,-0.55c0,-0.16667 0,-0.33333 0,-0.5c0,-0.2 0,-0.38333 0,-0.55c0,-0.16667 0,-0.35 0,-0.55c0,-0.16667 0,-0.35 0,-0.55c0.06667,-0.16667 0.13333,-0.33333 0.2,-0.5c0.1,-0.2 0.21667,-0.38333 0.35,-0.55c0.16667,-0.13333 0.35,-0.25 0.55,-0.35c0.3,-0.13333 0.58333,-0.25 0.85,-0.35c0.2,-0.13333 0.38333,-0.25 0.55,-0.35c0.3,-0.06667 0.6,-0.13333 0.9,-0.2c0.3,-0.13333 0.6,-0.25 0.9,-0.35c0.4,-0.13333 0.81667,-0.26667 1.25,-0.4c0.3,-0.1 0.6,-0.21667 0.9,-0.35c0.4,-0.16667 0.81667,-0.33333 1.25,-0.5c0.23333,-0.16667 0.46667,-0.35 0.7,-0.55c-0.13333,-0.16667 -0.25,-0.35 -0.35,-0.55c-0.2,-0.16667 -0.38333,-0.33333 -0.55,-0.5c-0.16667,-0.2 -0.35,-0.38333 -0.55,-0.55c-0.16667,-0.16667 -0.33333,-0.35 -0.5,-0.55c-0.13333,-0.16667 -0.25,-0.33333 -0.35,-0.5c-0.2,-0.2 -0.38333,-0.38333 -0.55,-0.55c-0.23333,-0.16667 -0.46667,-0.35 -0.7,-0.55c-0.13333,-0.16667 -0.26667,-0.35 -0.4,-0.55c-0.03333,-0.16667 -0.08333,-0.33333 -0.15,-0.5c-0.06667,-0.13333 -0.13333,-0.25 -0.2,-0.35c-0.03333,-0.06667 -0.1,-0.11667 -0.2,-0.15c-0.33333,-0.16667 -0.68333,-0.3 -1.05,-0.4c-0.1,-0.16667 -0.21667,-0.35 -0.35,-0.55c-0.1,-0.16667 -0.21667,-0.35 -0.35,-0.55c-0.06667,-0.16667 -0.13333,-0.33333 -0.2,-0.5c-0.1,-0.2 -0.21667,-0.38333 -0.35,-0.55c-0.03333,-0.16667 -0.08333,-0.35 -0.15,-0.55c-0.13333,-0.16667 -0.25,-0.33333 -0.35,-0.5c-0.13333,-0.2 -0.26667,-0.38333 -0.4,-0.55c-0.03333,-0.16667 -0.08333,-0.35 -0.15,-0.55c-0.06667,-0.16667 -0.13333,-0.35 -0.2,-0.55c-0.1,-0.16667 -0.21667,-0.33333 -0.35,-0.5c-0.06667,-0.2 -0.11667,-0.38333 -0.15,-0.55c-0.13333,-0.16667 -0.26667,-0.35 -0.4,-0.55c-0.03333,-0.16667 -0.08333,-0.33333 -0.15,-0.5c0,-0.2 0,-0.38333 0,-0.55c-0.06667,-0.16667 -0.13333,-0.35 -0.2,-0.55c-0.1,-0.16667 -0.21667,-0.33333 -0.35,-0.5c-0.06667,-0.2 -0.11667,-0.38333 -0.15,-0.55c0,-0.2 0,-0.38333 0,-0.55c-0.06667,-0.16667 -0.13333,-0.35 -0.2,-0.55c-0.13333,-0.16667 -0.25,-0.33333 -0.35,-0.5c-0.06667,-0.2 -0.13333,-0.38333 -0.2,-0.55c0,-0.16667 0,-0.35 0,-0.55c0,-0.16667 0,-0.33333 0,-0.5c-0.03333,-0.2 -0.08333,-0.38333 -0.15,-0.55c-0.06667,-0.2 -0.13333,-0.38333 -0.2,-0.55c-0.1,-0.16667 -0.21667,-0.35 -0.35,-0.55c0,-0.16667 0,-0.33333 0,-0.5c0,-0.2 0,-0.38333 0,-0.55c0,-0.16667 0,-0.35 0,-0.55c0,-0.33333 0,-0.68333 0,-1.05c0,-0.36667 0,-0.73333 0,-1.1c0,-0.53333 0,-1.06667 0,-1.6c0,-0.53333 0,-1.06667 0,-1.6c0,-0.53333 0,-1.06667 0,-1.6c0,-0.53333 0,-1.06667 0,-1.6c0,-0.36667 0,-0.73333 0,-1.1c0.13333,-0.16667 0.25,-0.33333 0.35,-0.5c0.13333,-0.2 0.25,-0.38333 0.35,-0.55c0,-0.16667 0,-0.35 0,-0.55c0,-0.16667 0,-0.33333 0,-0.5c0,-0.2 0,-0.38333 0,-0.55c0.13333,-0.2 0.25,-0.38333 0.35,-0.55c0.06667,-0.16667 0.13333,-0.35 0.2,-0.55c0.06667,-0.16667 0.13333,-0.33333 0.2,-0.5c0,-0.2 0,-0.38333 0,-0.55c0.1,-0.16667 0.21667,-0.35 0.35,-0.55c0.06667,-0.16667 0.11667,-0.33333 0.15,-0.5c0.06667,-0.2 0.13333,-0.38333 0.2,-0.55c0.1,-0.2 0.21667,-0.38333 0.35,-0.55c0.13333,-0.16667 0.25,-0.35 0.35,-0.55c0.06667,-0.16667 0.13333,-0.33333 0.2,-0.5c0.1,-0.2 0.21667,-0.38333 0.35,-0.55c0.06667,-0.16667 0.11667,-0.35 0.15,-0.55c0.13333,-0.16667 0.26667,-0.33333 0.4,-0.5c0.03333,-0.2 0.08333,-0.38333 0.15,-0.55c0.06667,-0.2 0.13333,-0.38333 0.2,-0.55c0.1,-0.16667 0.21667,-0.35 0.35,-0.55c0.16667,-0.16667 0.35,-0.33333 0.55,-0.5c0.1,-0.2 0.21667,-0.38333 0.35,-0.55c0.06667,-0.16667 0.11667,-0.35 0.15,-0.55c0.13333,-0.16667 0.25,-0.33333 0.35,-0.5c0.2,-0.2 0.38333,-0.38333 0.55,-0.55c0.2,-0.2 0.38333,-0.38333 0.55,-0.55c0.16667,-0.16667 0.35,-0.35 0.55,-0.55c0.03333,-0.16667 0.08333,-0.33333 0.15,-0.5c0.13333,-0.2 0.25,-0.38333 0.35,-0.55c0.13333,-0.16667 0.25,-0.35 0.35,-0.55c0.2,-0.16667 0.38333,-0.33333 0.55,-0.5c0.06667,-0.2 0.13333,-0.38333 0.2,-0.55c0.1,-0.16667 0.21667,-0.35 0.35,-0.55c0.1,-0.16667 0.21667,-0.35 0.35,-0.55c0.4,-0.16667 0.81667,-0.33333 1.25,-0.5c0.06667,-0.2 0.13333,-0.38333 0.2,-0.55c0.1,-0.16667 0.21667,-0.35 0.35,-0.55c0.1,-0.16667 0.21667,-0.33333 0.35,-0.5c0.4,-0.2 0.81667,-0.38333 1.25,-0.55c0.16667,-0.16667 0.35,-0.35 0.55,-0.55c0.16667,-0.1 0.33333,-0.21667 0.5,-0.35c0.06667,-0.06667 0.13333,-0.13333 0.2,-0.2c0.3,-0.1 0.6,-0.21667 0.9,-0.35c0.16667,-0.16667 0.33333,-0.33333 0.5,-0.5c0.2,-0.13333 0.38333,-0.26667 0.55,-0.4c0.06667,-0.03333 0.13333,-0.08333 0.2,-0.15c0.3,-0.13333 0.6,-0.25 0.9,-0.35z" fill="#ffffff"/><path d="M388.38784,324.15631c0,2.96667 -0.06667,4.86667 -0.2,5.7c-0.5,2.5 -1.61667,4.21667 -3.35,5.15c-10.5,-0.5 -16.81667,-0.35 -18.95,0.45c-0.86667,0.13333 -1.41667,0.51667 -1.65,1.15c-0.56667,0.63333 -1.01667,1.11667 -1.35,1.45c0.06667,0 0.51667,0.4 1.35,1.2c0.93333,0.66667 1.93333,1.11667 3,1.35c6.56667,0.66667 13.13333,1.4 19.7,2.2c3.6,1.1 7.6,3.65 12,7.65c2.9,2.66667 5.65,5.58333 8.25,8.75c2.76667,3.3 4.58333,6.35 5.45,9.15c0.53333,1.93333 0.85,4.51667 0.95,7.75c0,2.4 -0.61667,5.3 -1.85,8.7c-1.63333,3.96667 -3.8,7.5 -6.5,10.6c-7.7,8.56667 -18.33333,12.25 -31.9,11.05c-7.86667,-0.73333 -15.66667,-1.35 -23.4,-1.85c-4.7,0.13333 -8.08333,-2.58333 -10.15,-8.15c-1.43333,-3.6 -2.08333,-7.23333 -1.95,-10.9c-0.1,-1.9 0.45,-4.85 1.65,-8.85c1.23333,-4.76667 2.46667,-7.25 3.7,-7.45c1,0 2.05,0.05 3.15,0.15c2.06667,0.56667 4.78333,1.26667 8.15,2.1c5.43333,1.36667 9.6,2.21667 12.5,2.55c6.9,0.43333 11.78333,-0.41667 14.65,-2.55c1.43333,-1.33333 2.2,-2.71667 2.3,-4.15c-0.06667,-4.66667 -2.41667,-7.7 -7.05,-9.1c-2,-0.63333 -7.21667,-1.11667 -15.65,-1.45c-7.23333,-0.33333 -12.48333,-1.38333 -15.75,-3.15c-4.83333,-2.63333 -7.21667,-7.43333 -7.15,-14.4c-0.03333,-3.9 1.18333,-8.3 3.65,-13.2c2.76667,-5.83333 6.06667,-9.58333 9.9,-11.25c1.23333,-0.56667 2.78333,-1.26667 4.65,-2.1c1.43333,-0.8 3.13333,-1.48333 5.1,-2.05c1.33333,-0.5 3.73333,-0.51667 7.2,-0.05c4.46667,0.6 7.06667,0.91667 7.8,0.95c5.2,0.13333 8.66667,2 10.4,5.6c0.86667,1.7 1.31667,4.03333 1.35,7M463.13784,322.45631c0.06667,0.7 0.71667,2.88333 1.95,6.55c1.06667,3.4 1.65,5.38333 1.75,5.95c-0.03333,1.43333 -4.41667,3.08333 -13.15,4.95c-8.93333,1.63333 -13.35,2.86667 -13.25,3.7c-0.06667,0.3 1.91667,8.16667 5.95,23.6c4.03333,16.2 6.06667,26.28333 6.1,30.25c-0.1,1.53333 -0.28333,2.66667 -0.55,3.4c-0.46667,0.83333 -1.46667,1.5 -3,2c-2.36667,0.7 -9.93333,1.38333 -22.7,2.05c-1.26667,-0.16667 -2.48333,-0.31667 -3.65,-0.45c-1.7,-1.8 -2.55,-3.91667 -2.55,-6.35c0.16667,-2.9 0.2,-5 0.1,-6.3c-0.23333,-1.56667 -0.35,-3.51667 -0.35,-5.85c-0.13333,-2.76667 -0.21667,-4.88333 -0.25,-6.35c-0.13333,-3.26667 -0.2,-8 -0.2,-14.2c0,-5.9 0.05,-9.08333 0.15,-9.55c-0.1,-6.76667 -0.26667,-11.73333 -0.5,-14.9c-6.66667,1.23333 -13.66667,1.51667 -21,0.85c-2.5,-0.33333 -3.8,-1.9 -3.9,-4.7c0.4,-3.3 0.6,-5.41667 0.6,-6.35c-0.03333,-1.53333 -0.06667,-3.46667 -0.1,-5.8c-0.16667,-2.36667 -0.26667,-4.11667 -0.3,-5.25c-0.06667,-0.56667 0.45,-1.51667 1.55,-2.85c0.96667,-1.4 1.71667,-2.08333 2.25,-2.05c0.5,0 0.91667,0.3 1.25,0.9c0.2,0.46667 0.6,0.76667 1.2,0.9c0.13333,-0.06667 6.86667,-1.1 20.2,-3.1c15.2,-2.2 27.86667,-3.58333 38,-4.15c2.4,1.53333 3.78333,3.68333 4.15,6.45c0.1,1.43333 0.18333,3.65 0.25,6.65M503.63784,386.25631c-4.83333,9.33333 -12.55,13.8 -23.15,13.4c-10.3,-0.6 -17.2,-5.31667 -20.7,-14.15c-1.6,-3.83333 -2.4,-8.7 -2.4,-14.6c-0.1,-9.56667 2.46667,-16.81667 7.7,-21.75c4.66667,-4.5 10.45,-6.56667 17.35,-6.2c6.7,0.36667 12.46667,2.86667 17.3,7.5c5.3,5.03333 8,11.55 8.1,19.55c0.06667,5.16667 -1.33333,10.58333 -4.2,16.25M486.18784,364.10631c-2.16667,-1.2 -4.93333,-1.85 -8.3,-1.95c-1.2,-0.13333 -2.06667,0.61667 -2.6,2.25c-0.43333,0.93333 -0.61667,1.85 -0.55,2.75c0,1.16667 0.53333,2.88333 1.6,5.15c1.23333,2.9 2.78333,4.4 4.65,4.5c2.76667,0.13333 5.05,-1.11667 6.85,-3.75c0.8,-1.4 1.4,-2.76667 1.8,-4.1c-0.13333,-2.03333 -1.28333,-3.65 -3.45,-4.85M582.33784,397.00631c-0.76667,0.43333 -2.86667,1.26667 -6.3,2.5c-2.53333,0.73333 -4.75,1.41667 -6.65,2.05c-3.86667,1.1 -6.2,1.66667 -7,1.7c-1.33333,-0.06667 -6.13333,-6.93333 -14.4,-20.6c-3.8,-6.13333 -6.68333,-10.88333 -8.65,-14.25c-1.86667,0.56667 -3.86667,0.88333 -6,0.95c0.73333,2.6 1.58333,6.26667 2.55,11c1.06667,5.4 2.05,10.91667 2.95,16.55c-0.03333,1.63333 -0.26667,2.78333 -0.7,3.45c-1.6,1.63333 -5.21667,2.31667 -10.85,2.05c-3.36667,-0.06667 -6.68333,-0.06667 -9.95,0c-2.46667,-4.33333 -3.95,-9.68333 -4.45,-16.05c-0.33333,-7.3 -0.8,-12.75 -1.4,-16.35c-2.76667,-15.46667 -4.41667,-25.3 -4.95,-29.5c-0.66667,-0.16667 -1.15,-0.35 -1.45,-0.55l-2.05,-1.2c-2.93333,-1.2 -10.01667,-1.98333 -21.25,-2.35c-1.66667,-1.5 -2.68333,-3.65 -3.05,-6.45c-0.23333,-1 -0.33333,-3.08333 -0.3,-6.25c-0.5,-2.36667 -0.73333,-4.58333 -0.7,-6.65c-0.03333,-2.1 0.2,-3.73333 0.7,-4.9c0,-0.23333 0.06667,-0.4 0.2,-0.5c0.43333,-1.03333 1.13333,-1.75 2.1,-2.15c0.33333,0.2 0.65,0.53333 0.95,1c0.23333,-0.13333 0.53333,-0.18333 0.9,-0.15c3.6,-0.7 9.33333,-1.03333 17.2,-1c0,-0.1 0,-0.21667 0,-0.35c11,0.5 21.98333,0.95 32.95,1.35c12.16667,2.63333 21.18333,7.21667 27.05,13.75c4.26667,4.93333 6.46667,10.51667 6.6,16.75c0.03333,2.76667 0,4.51667 -0.1,5.25c-0.4,1.76667 -1.6,3.83333 -3.6,6.2c-0.66667,0.83333 -2.53333,2.41667 -5.6,4.75c-0.36667,0.2 -0.61667,0.38333 -0.75,0.55c2.53333,2.43333 5.85,6.1 9.95,11c4.33333,5.06667 8.33333,10.33333 12,15.8c3.56667,5.13333 5.38333,8.31667 5.45,9.55c0,1.36667 -0.46667,2.38333 -1.4,3.05M527.83784,339.45631c0.53333,2.53333 1.31667,4.4 2.35,5.6c1.26667,0.03333 2.6,0.03333 4,0c2.56667,-0.86667 4.46667,-1.6 5.7,-2.2c1.96667,-1.13333 2.98333,-2.35 3.05,-3.65c-0.03333,-1.7 -1.26667,-3.25 -3.7,-4.65c-3.26667,-2.03333 -7.6,-2.28333 -13,-0.75c0.06667,0.4 0.6,2.28333 1.6,5.65M630.78784,321.05631c-0.1,0.43333 -1.46667,3.15 -4.1,8.15c-2.93333,5.26667 -5.68333,10.01667 -8.25,14.25c-2.66667,4.8 -4.73333,8.48333 -6.2,11.05c-1.4,2.2 -2.68333,4.2 -3.85,6c1.06667,3.36667 2.46667,8.35 4.2,14.95c1.7,6.93333 3.33333,13.93333 4.9,21c-0.03333,1.16667 -0.08333,1.91667 -0.15,2.25c-0.4,0.8 -1.4,1.61667 -3,2.45c-7.53333,0.16667 -11.81667,0.28333 -12.85,0.35c-4.83333,-0.06667 -7.68333,-0.66667 -8.55,-1.8c-0.7,-0.93333 -1.46667,-4.48333 -2.3,-10.65c-0.7,-5.73333 -1.21667,-9.86667 -1.55,-12.4c-1.53333,-10.03333 -2.46667,-17.25 -2.8,-21.65c-3.8,-4.53333 -8.61667,-10.96667 -14.45,-19.3c-7.7,-10.96667 -11.53333,-16.76667 -11.5,-17.4c-0.06667,-0.76667 -0.01667,-1.15 0.15,-1.15c0.03333,-0.03333 0.06667,0 0.1,0.1c0.56667,0.06667 1.18333,0.33333 1.85,0.8c0.23333,-1.76667 1.38333,-3.36667 3.45,-4.8c0.53333,-0.56667 3,-1.98333 7.4,-4.25c2.5,-1.4 4.8,-0.68333 6.9,2.15c1.1,1.63333 2.6,4.2 4.5,7.7c0.3,0.56667 3.06667,4.53333 8.3,11.9c2.4,3.53333 4.25,6.51667 5.55,8.95c0.7,-2.23333 1.98333,-5.65 3.85,-10.25c3.3,-8.23333 5.2,-12.93333 5.7,-14.1c0.06667,-0.33333 0.38333,-1.46667 0.95,-3.4c0.4,-1.76667 0.85,-3.01667 1.35,-3.75c0.73333,-1.36667 1.73333,-1.98333 3,-1.85c1.26667,0.1 2.86667,0.93333 4.8,2.5c1.76667,1.46667 4.58333,3.36667 8.45,5.7c2.6,1.9 3.98333,4.06667 4.15,6.5M744.98784,397.60631c-2.1,1.96667 -4.75,2.81667 -7.95,2.55c-2.23333,-0.33333 -3.93333,-0.55 -5.1,-0.65c-2.13333,-0.23333 -4.01667,-0.18333 -5.65,0.15h-5.75c-0.53333,-0.06667 -1.03333,-0.25 -1.5,-0.55c-1.96667,-0.13333 -3.65,-3.81667 -5.05,-11.05c-1.3,-8.83333 -2.21667,-14.73333 -2.75,-17.7c-1.3,3.83333 -3.38333,9.01667 -6.25,15.55c-2.93333,6.76667 -4.63333,10.15 -5.1,10.15c-0.73333,0 -3.16667,-3.3 -7.3,-9.9c-3.56667,-5.7 -6.61667,-10.91667 -9.15,-15.65h-0.2c0.03333,2.4 0.51667,6.5 1.45,12.3c0.9,5.66667 1.35,9.96667 1.35,12.9c0,1.3 -0.03333,2.1 -0.1,2.4c-0.23333,0.9 -0.83333,1.65 -1.8,2.25c-3.8,0.13333 -7.76667,0.41667 -11.9,0.85c-3.76667,0.36667 -5.75,0.55 -5.95,0.55c-0.73333,0 -1.66667,-0.03333 -2.8,-0.1l-1.5,-0.1c-0.4,-0.1 -1.01667,-0.96667 -1.85,-2.6c-0.03333,-0.03333 -0.05,-0.06667 -0.05,-0.1c-2.56667,-0.1 -4.5,-7.51667 -5.8,-22.25c-0.83333,-14.86667 -1.25,-22.38333 -1.25,-22.55c0,-1.83333 0.56667,-9.33333 1.7,-22.5c0.53333,-1.43333 0.93333,-3.38333 1.2,-5.85c0.23333,-2.8 0.45,-4.85 0.65,-6.15c0.26667,-1.83333 0.71667,-3.35 1.35,-4.55c0.56667,-2.03333 1.43333,-3.35 2.6,-3.95c0.96667,-0.53333 2.48333,-0.81667 4.55,-0.85c1.23333,0 3.5,0.03333 6.8,0.1c0.53333,0 1.93333,-0.36667 4.2,-1.1c2.53333,-0.8 4.51667,-1.3 5.95,-1.5c5.03333,-0.7 7.61667,1.41667 7.75,6.35c0.23333,1.06667 0.55,3.05 0.95,5.95c0.36667,2.9 0.66667,4.86667 0.9,5.9c0.13333,0.66667 1.28333,4.56667 3.45,11.7c0.3,0.96667 0.58333,1.88333 0.85,2.75c0.73333,1.6 1.48333,2.85 2.25,3.75c0.8,-1.86667 2.6,-7.8 5.4,-17.8c2.2,-7.76667 4.75,-13.68333 7.65,-17.75l13.3,-0.35c1.23333,-0.4 2.7,-0.7 4.4,-0.9c3,-0.36667 6.15,-0.41667 9.45,-0.15c1.4,2.9 2.15,6.56667 2.25,11c0.06667,2.53333 0.03333,6.3 -0.1,11.3c0.06667,2.33333 0.1,5.93333 0.1,10.8c0.06667,4.46667 0.26667,8.2 0.6,11.2c0.23333,2.2 0.55,5.73333 0.95,10.6c0.43333,4.43333 1.08333,8.21667 1.95,11.35c0.1,0.36667 0.96667,3.63333 2.6,9.8c1.6,6.36667 2.4,10.41667 2.4,12.15v1.5c-0.1,0.33333 -0.5,0.55 -1.2,0.65c-0.3,0.03333 -1.28333,0.06667 -2.95,0.1M775.08784,330.20631c7.53333,0.13333 14,2.56667 19.4,7.3c5.86667,5.13333 8.8,11.78333 8.8,19.95c0,5.8 -1.23333,10.63333 -3.7,14.5c-4.73333,7.3 -13.43333,10.95 -26.1,10.95c-9.5,0 -16.51667,-2.33333 -21.05,-7c-3.73333,-3.76667 -5.6,-8.81667 -5.6,-15.15c0,-10.06667 2.93333,-17.86667 8.8,-23.4c5.23333,-4.93333 11.71667,-7.31667 19.45,-7.15M774.63784,348.70631c-2.5,-0.5 -4.55,-0.11667 -6.15,1.15c-1.9,1.4 -2.85,3.78333 -2.85,7.15c0,1.6 0.1,2.66667 0.3,3.2c0.6,1.53333 1.98333,2.61667 4.15,3.25h7.4c2.1,-0.93333 4.16667,-2.9 6.2,-5.9c0,-2.03333 -0.93333,-3.95 -2.8,-5.75c-1.8,-1.6 -3.88333,-2.63333 -6.25,-3.1M841.93784,399.10631c-11.5,2.3 -26.63333,3.45 -45.4,3.45c-5.13333,0 -8.5,-1.63333 -10.1,-4.9c-0.96667,-1.93333 -1.45,-5.41667 -1.45,-10.45c0,-1.43333 1.78333,-2.66667 5.35,-3.7c2.1,-0.6 5.71667,-1.6 10.85,-3c1.13333,-0.4 3.01667,-1.01667 5.65,-1.85c2.06667,-0.96667 3.1,-2.43333 3.1,-4.4c1,-8.83333 1.5,-14.28333 1.5,-16.35c0,-7.13333 -1.6,-14.46667 -4.8,-22c-1.1,-2.16667 -2.01667,-4.01667 -2.75,-5.55c-3.16667,-0.13333 -5.55,-0.26667 -7.15,-0.4c-3.33333,-0.26667 -6.1,-0.63333 -8.3,-1.1c-1.86667,-0.4 -4.53333,-0.7 -8,-0.9c-1.53333,-0.1 -2.36667,-0.61667 -2.5,-1.55c-0.76667,-5.23333 -1.15,-9 -1.15,-11.3c-0.06667,-0.2 -0.13333,-0.38333 -0.2,-0.55c-0.96667,-2.6 -1.66667,-4.3 -2.1,-5.1c0.76667,-0.53333 1.71667,-0.96667 2.85,-1.3c0.23333,-0.8 0.56667,-1.41667 1,-1.85c0.33333,0.4 0.61667,0.86667 0.85,1.4c0.96667,-0.2 2.01667,-0.33333 3.15,-0.4c1.53333,-0.1 6.53333,-0.15 15,-0.15c26.5,0 45.61667,4.7 57.35,14.1c11.53333,9.26667 17.3,24.16667 17.3,44.7c0,5.26667 -1.08333,10.73333 -3.25,16.4c-3.26667,8.5 -8.16667,12.9 -14.7,13.2c-1.93333,1.16667 -5.96667,2.35 -12.1,3.55M828.23784,343.20631v0.2c0.5,11.16667 1.36667,20.03333 2.6,26.6c6.7,1.2 11.41667,0.05 14.15,-3.45c1.43333,-1.86667 2.15,-4.05 2.15,-6.55c0,-3.53333 -1.26667,-6.95 -3.8,-10.25c-3.53333,-4.56667 -8.56667,-6.75 -15.1,-6.55M917.13784,338.55631h-18.2c-0.83333,0.23333 -1.96667,0.46667 -3.4,0.7c0.13333,0.2 0.38333,1.33333 0.75,3.4c0.46667,2 1,3 1.6,3c0.86667,0 2.35,-0.16667 4.45,-0.5c2.06667,-0.33333 3.85,-0.68333 5.35,-1.05h7.85c0.96667,0.73333 1.96667,3.25 3,7.55c0.86667,3.7 1.3,6.21667 1.3,7.55c0,0.8 -0.13333,1.43333 -0.4,1.9c-0.33333,0.53333 -0.93333,0.98333 -1.8,1.35c-5.56667,0.13333 -9.78333,0.31667 -12.65,0.55c-2.53333,0.23333 -4.55,0.4 -6.05,0.5c0,2.4 0.06667,3.9 0.2,4.5c0.36667,1.9 1.31667,3.2 2.85,3.9c6.93333,-0.23333 11.68333,-0.36667 14.25,-0.4c5.1,-0.03333 10.33333,0.1 15.7,0.4c1.76667,1.9 3.08333,4.71667 3.95,8.45c0.66667,2.9 1,5.91667 1,9.05c0,0.96667 -0.1,2 -0.3,3.1c-0.36667,1.83333 -0.96667,3.08333 -1.8,3.75c-1.36667,0.06667 -2.78333,0.13333 -4.25,0.2c-2.9,0.2 -4.56667,0.36667 -5,0.5h-35c-3.56667,0.1 -5.73333,0.26667 -6.5,0.5h-4.95c-2.73333,-5.43333 -4.16667,-12.13333 -4.3,-20.1c0.33333,-9.03333 0.38333,-15.83333 0.15,-20.4c0.2,-8.93333 0.3,-15.73333 0.3,-20.4c0,-2.26667 -0.41667,-5.66667 -1.25,-10.2c-0.86667,-4.53333 -1.3,-7.9 -1.3,-10.1c0,-0.76667 0.16667,-1.26667 0.5,-1.5c0.53333,-0.43333 1.81667,-0.8 3.85,-1.1c3.86667,-0.56667 14.55,-1.25 32.05,-2.05c0,-0.13333 0.6,-0.21667 1.8,-0.25c1.7,-0.06667 5.85,-0.1 12.45,-0.1c1.93333,1.66667 2.9,6.48333 2.9,14.45c0,6.56667 -0.73333,10.96667 -2.2,13.2c-3.8,0 -6.1,-0.11667 -6.9,-0.35z" fill="#000000"/></g></g></svg>