<svg version="1.1" xmlns="http://www.w3.org/2000/svg" xmlns:xlink="http://www.w3.org/1999/xlink" width="32.19405" height="72.04185" viewBox="0,0,32.19405,72.04185"><g transform="translate(-623.79572,-334.58867)"><g data-paper-data="{&quot;isPaintingLayer&quot;:true}" fill-rule="nonzero" stroke="none" stroke-width="1" stroke-linecap="round" stroke-linejoin="miter" stroke-miterlimit="4" stroke-dasharray="" stroke-dashoffset="0" style="mix-blend-mode: normal"><path d="M655.36,353.98051c0.76667,4.33333 0.83333,10 0.2,17c-0.83333,9.26667 -1.25,14.96667 -1.25,17.1c0,0.03333 0.05,1.58333 0.15,4.65c0.06667,1.83333 0.06667,3.36667 0,4.6c-0.13333,2.46667 -0.66667,4.28333 -1.6,5.45c-0.73333,0.9 -1.8,1.6 -3.2,2.1c-0.9,0.33333 -2.18333,0.63333 -3.85,0.9c-3.63333,0.5 -6.46667,0.7 -8.5,0.6c-1.4,0.13333 -2.25,0.2 -2.55,0.2c-0.96667,0.06667 -1.81667,0.06667 -2.55,0c-1.96667,-0.23333 -3.51667,-0.85 -4.65,-1.85c-1.3,-1.1 -2.15,-2.68333 -2.55,-4.75c-0.43333,-2.13333 -0.18333,-3.81667 0.75,-5.05c0.6,-0.9 1.7,-1.66667 3.3,-2.3c1.33333,-0.53333 3.01667,-0.98333 5.05,-1.35c1.13333,-0.23333 2.85,-0.55 5.15,-0.95c-0.76667,-3.6 -1.16667,-7.26667 -1.2,-11l-0.55,-26c-4.96667,-1.13333 -8.66667,-2.71667 -11.1,-4.75c-1.5,-1.23333 -2.35,-2.53333 -2.55,-3.9c-0.1,-0.5 -0.08333,-1.26667 0.05,-2.3c0.06667,-0.96667 0.25,-1.7 0.55,-2.2c0.4,-0.8 1.45,-1.53333 3.15,-2.2c7.1,-2.63333 13.31667,-3.73333 18.65,-3.3c2.4,0.2 4.16667,0.81667 5.3,1.85c1.16667,1.03333 1.9,2.61667 2.2,4.75c0.16667,1.16667 0.26667,2.93333 0.3,5.3c0.06667,1 0.25,2.23333 0.55,3.7c0.16667,0.83333 0.41667,2.06667 0.75,3.7M638.66,341.23051c-3.33333,0.33333 -6.15,1.28333 -8.45,2.85c2.36667,1.6 5.16667,2.7 8.4,3.3c1,0.2 1.65,0.35 1.95,0.45c0.73333,0.2 1.3,0.5 1.7,0.9c0.86667,0.8 1.3,2.33333 1.3,4.6l0.2,13.35c0.13333,9.2 0.43333,16.1 0.9,20.7l0.05,-0.45c0.1,0.8 0.28333,1.96667 0.55,3.5c0.1,1.4 -0.11667,2.55 -0.65,3.45c-0.8,1.2 -2.16667,1.98333 -4.1,2.35c-2.16667,0.23333 -3.76667,0.46667 -4.8,0.7l0.45,-0.05l-5.3,1.4c-0.16667,0.36667 -0.15,0.75 0.05,1.15c0.2,0.4 0.5,0.68333 0.9,0.85c0.4,0.23333 1.2,0.35 2.4,0.35c5.16667,-0.2 9.03333,-0.48333 11.6,-0.85l-0.8,0.1c0.13333,-0.03333 0.7,-0.15 1.7,-0.35c0.7,-0.1 1.18333,-0.33333 1.45,-0.7c0.23333,-0.33333 0.35,-0.91667 0.35,-1.75c-0.06667,-3.2 -0.1,-5.6 -0.1,-7.2c-0.03333,-2.83333 0,-5.25 0.1,-7.25c0.56667,-6 0.98333,-10.5 1.25,-13.5c0.43333,-5.36667 0.36667,-9.86667 -0.2,-13.5c-0.03333,-0.16667 -0.38333,-1.91667 -1.05,-5.25c-0.4,-2.13333 -0.61667,-3.9 -0.65,-5.3c0,-1.96667 -0.06667,-3.21667 -0.2,-3.75c-3.83333,-0.33333 -6.83333,-0.36667 -9,-0.1z" fill="#000000"/><path d="M648.51,350.38051c0.66667,3.33333 1.01667,5.08333 1.05,5.25c0.56667,3.63333 0.63333,8.13333 0.2,13.5c-0.26667,3 -0.68333,7.5 -1.25,13.5c-0.1,2 -0.13333,4.41667 -0.1,7.25c0,1.6 0.03333,4 0.1,7.2c0,0.83333 -0.11667,1.41667 -0.35,1.75c-0.26667,0.36667 -0.75,0.6 -1.45,0.7c-1,0.2 -1.56667,0.31667 -1.7,0.35l0.8,-0.1c-2.56667,0.36667 -6.43333,0.65 -11.6,0.85c-1.2,0 -2,-0.11667 -2.4,-0.35c-0.4,-0.16667 -0.7,-0.45 -0.9,-0.85c-0.2,-0.4 -0.21667,-0.78333 -0.05,-1.15l5.3,-1.4l-0.45,0.05c1.03333,-0.23333 2.63333,-0.46667 4.8,-0.7c1.93333,-0.36667 3.3,-1.15 4.1,-2.35c0.53333,-0.9 0.75,-2.05 0.65,-3.45c-0.26667,-1.53333 -0.45,-2.7 -0.55,-3.5l-0.05,0.45c-0.46667,-4.6 -0.76667,-11.5 -0.9,-20.7l-0.2,-13.35c0,-2.26667 -0.43333,-3.8 -1.3,-4.6c-0.4,-0.4 -0.96667,-0.7 -1.7,-0.9c-0.3,-0.1 -0.95,-0.25 -1.95,-0.45c-3.23333,-0.6 -6.03333,-1.7 -8.4,-3.3c2.3,-1.56667 5.11667,-2.51667 8.45,-2.85c2.16667,-0.26667 5.16667,-0.23333 9,0.1c0.13333,0.53333 0.2,1.78333 0.2,3.75c0.03333,1.4 0.25,3.16667 0.65,5.3z" fill="#ffffff"/></g></g></svg>