<svg version="1.1" xmlns="http://www.w3.org/2000/svg" xmlns:xlink="http://www.w3.org/1999/xlink" width="42.7" height="66.30526" viewBox="0,0,42.7,66.30526"><g transform="translate(-608.10811,-337.83784)"><g data-paper-data="{&quot;isPaintingLayer&quot;:true}" fill-rule="nonzero" stroke="none" stroke-width="1" stroke-linecap="butt" stroke-linejoin="miter" stroke-miterlimit="10" stroke-dasharray="" stroke-dashoffset="0" style="mix-blend-mode: normal"><path d="M649.55811,340.48784c0.1,0.2 0.16667,0.38333 0.2,0.55c0.13333,0.46667 0.25,0.91667 0.35,1.35c0.1,0.26667 0.18333,0.53333 0.25,0.8c0,0.1 0,0.18333 0,0.25c0,0.1 0,0.2 0,0.3c0,0.06667 0,0.15 0,0.25c0,0.1 0,0.18333 0,0.25c0.03333,0.1 0.06667,0.2 0.1,0.3c0.03333,0.06667 0.06667,0.15 0.1,0.25c0,0.1 0.01667,0.18333 0.05,0.25c0.06667,0.2 0.13333,0.38333 0.2,0.55c0,0.1 0,0.18333 0,0.25c0,0.1 0,0.2 0,0.3c0,0.7 0,1.41667 0,2.15c0,1.66667 0,3.35 0,5.05c0,0.63333 0,1.26667 0,1.9c-0.03333,0.1 -0.06667,0.18333 -0.1,0.25c-0.13333,0.63333 -0.46667,1.13333 -1,1.5c-2.53333,1.66667 -5.38333,2.58333 -8.55,2.75c-4.66667,0.26667 -9.33333,0.43333 -14,0.5c0,0.1 0,0.18333 0,0.25c0,0.1 0,0.2 0,0.3c0,0.06667 0,0.15 0,0.25c0,0.1 0,0.18333 0,0.25c0.03333,0.1 0.06667,0.2 0.1,0.3c0,0.06667 0.01667,0.15 0.05,0.25c0.03333,0.1 0.06667,0.18333 0.1,0.25c0.03333,0.2 0.06667,0.38333 0.1,0.55c0,0.1 0.01667,0.18333 0.05,0.25c0,0.03333 0.01667,0.05 0.05,0.05c5,-0.86667 9.9,-0.7 14.7,0.5c0.06667,0.1 0.13333,0.2 0.2,0.3c0.06667,0.06667 0.11667,0.15 0.15,0.25c0.1,0.16667 0.2,0.35 0.3,0.55c0.03333,0.06667 0.06667,0.15 0.1,0.25c0.03333,0.1 0.05,0.18333 0.05,0.25c0.03333,0.1 0.06667,0.2 0.1,0.3c0,0.06667 0,0.15 0,0.25c0,0.1 0,0.18333 0,0.25c0,1.43333 0.03333,2.86667 0.1,4.3c0.13333,2.63333 -0.01667,5.21667 -0.45,7.75c-0.06667,0.26667 -0.18333,0.55 -0.35,0.85c-0.1,0.06667 -0.2,0.13333 -0.3,0.2c-0.13333,0.13333 -0.28333,0.2 -0.45,0.2c-4.16667,0.76667 -8.36667,1.46667 -12.6,2.1c-0.9,0.13333 -1.8,0.25 -2.7,0.35c0,0.06667 0,0.15 0,0.25c0,0.1 -0.01667,0.18333 -0.05,0.25c0,0.26667 0,0.53333 0,0.8c0.03333,0.1 0.03333,0.2 0,0.3c0,0.23333 0,0.5 0,0.8c-0.03333,0.36667 -0.11667,0.71667 -0.25,1.05c0.03333,0.1 0.06667,0.2 0.1,0.3c0.03333,0.06667 0.05,0.15 0.05,0.25c0.13333,2.2 0.25,4.43333 0.35,6.7c0.13333,3.6 -0.15,7.08333 -0.85,10.45c-0.06667,0.06667 -0.13333,0.15 -0.2,0.25c-0.1,0.1 -0.21667,0.16667 -0.35,0.2c-5.3,1.1 -10.61667,1.25 -15.95,0.45c-0.1,-0.1 -0.2,-0.2 -0.3,-0.3c-0.06667,-0.06667 -0.15,-0.15 -0.25,-0.25c-0.2,-0.26667 -0.35,-0.53333 -0.45,-0.8c-0.03333,-0.1 -0.06667,-0.18333 -0.1,-0.25c-0.03333,-0.1 -0.06667,-0.2 -0.1,-0.3c0,-0.7 0.01667,-1.41667 0.05,-2.15c0,-6.33333 0.03333,-12.66667 0.1,-19c0,-2.13333 0.01667,-4.28333 0.05,-6.45c0.06667,-1.93333 0.08333,-3.88333 0.05,-5.85c0,-0.63333 0.05,-1.26667 0.15,-1.9c0,-0.1 -0.01667,-0.18333 -0.05,-0.25c0,-0.1 -0.01667,-0.2 -0.05,-0.3c-0.03333,-0.06667 -0.06667,-0.15 -0.1,-0.25c-0.06667,-0.16667 -0.13333,-0.35 -0.2,-0.55c0,-0.06667 0,-0.15 0,-0.25c0,-0.1 0.01667,-0.18333 0.05,-0.25c0.03333,-0.53333 0.05,-1.08333 0.05,-1.65c0,-1.06667 0,-2.13333 0,-3.2c0,-0.8 0.03333,-1.6 0.1,-2.4c0.03333,-0.1 0.06667,-0.18333 0.1,-0.25c0.03333,-0.1 0.06667,-0.2 0.1,-0.3c0.03333,-0.06667 0.05,-0.15 0.05,-0.25c0.03333,-0.1 0.06667,-0.18333 0.1,-0.25c0,-0.1 0,-0.2 0,-0.3c0,-0.06667 0,-0.15 0,-0.25c0.03333,-1 0.06667,-1.98333 0.1,-2.95c0.06667,-2.06667 0.18333,-4.11667 0.35,-6.15c0.03333,-0.53333 0.03333,-1.06667 0,-1.6c0.03333,-0.1 0.06667,-0.2 0.1,-0.3c0.03333,-0.06667 0.06667,-0.15 0.1,-0.25c-0.03333,-0.1 -0.06667,-0.18333 -0.1,-0.25c-0.06667,-0.1 -0.11667,-0.2 -0.15,-0.3c-0.06667,-0.16667 -0.13333,-0.35 -0.2,-0.55c-0.03333,-0.06667 -0.06667,-0.15 -0.1,-0.25c-0.03333,-0.1 -0.06667,-0.18333 -0.1,-0.25c-0.03333,-0.1 -0.06667,-0.2 -0.1,-0.3c0,-0.06667 0,-0.15 0,-0.25c0,-0.1 0,-0.18333 0,-0.25c0,-0.1 0,-0.2 0,-0.3c0,-0.06667 0,-0.15 0,-0.25c0.03333,-0.1 0.06667,-0.18333 0.1,-0.25c0.03333,-0.1 0.06667,-0.2 0.1,-0.3c0.56667,-1.26667 1.55,-1.93333 2.95,-2c5.06667,-0.23333 10.06667,-0.6 15,-1.1c1.66667,0 3.33333,0 5,0c3.96667,0.06667 7.95,0.1 11.95,0.1c1.83333,0 3.53333,0.41667 5.1,1.25c0.06667,0.06667 0.11667,0.15 0.15,0.25c0.06667,0.1 0.13333,0.18333 0.2,0.25c0.13333,0.26667 0.28333,0.53333 0.45,0.8M644.45811,346.03784c0,-0.1 0,-0.18333 0,-0.25c0,-0.2 0,-0.38333 0,-0.55c0,-0.1 0,-0.18333 0,-0.25c0,-0.1 0,-0.2 0,-0.3c0,-0.06667 0,-0.11667 0,-0.15c-0.56667,-0.13333 -1.18333,-0.21667 -1.85,-0.25c-3.63333,-0.1 -7.26667,-0.16667 -10.9,-0.2c-3.36667,0.03333 -6.71667,0.18333 -10.05,0.45c-2.93333,0.26667 -5.86667,0.53333 -8.8,0.8c-0.03333,0.36667 -0.03333,0.71667 0,1.05c0.06667,0.36667 0.11667,0.73333 0.15,1.1c0.03333,0.33333 0.05,0.68333 0.05,1.05c0.03333,1.23333 0.08333,2.48333 0.15,3.75c0.03333,1.6 0.06667,3.2 0.1,4.8c-0.03333,0.1 -0.06667,0.2 -0.1,0.3c-0.03333,0.06667 -0.06667,0.15 -0.1,0.25c0,0.1 -0.01667,0.18333 -0.05,0.25c-0.03333,0.1 -0.05,0.2 -0.05,0.3c0.06667,0.26667 0.08333,0.53333 0.05,0.8c0,0.16667 0,0.35 0,0.55c0,0.16667 0,0.33333 0,0.5c0,0.1 0,0.2 0,0.3c0,0.23333 0,0.5 0,0.8c0,0.06667 0,0.15 0,0.25c0,0.8 0,1.6 0,2.4c0.43333,1.56667 0.66667,3.18333 0.7,4.85c0.03333,6.66667 0.06667,13.35 0.1,20.05c0.03333,3.03333 0.03333,6.08333 0,9.15v0.05c1.3,-0.03333 2.56667,0.1 3.8,0.4c0.06667,0 0.13333,0.01667 0.2,0.05c0.4,-0.03333 0.78333,-0.08333 1.15,-0.15c0.5,-0.06667 0.98333,-0.16667 1.45,-0.3c0.1,-0.33333 0.13333,-0.68333 0.1,-1.05c0,-0.36667 0,-0.71667 0,-1.05c0,-0.36667 0,-0.73333 0,-1.1c0,-0.9 0,-1.78333 0,-2.65c0,-1.33333 0,-2.68333 0,-4.05c0,-0.06667 -0.03333,-0.13333 -0.1,-0.2c-0.16667,-0.26667 -0.25,-0.55 -0.25,-0.85c0,-0.1 0,-0.2 0,-0.3c-0.03333,-0.26667 -0.05,-0.53333 -0.05,-0.8c0.03333,-0.06667 0.03333,-0.15 0,-0.25c0,-0.26667 0,-0.53333 0,-0.8c0.03333,-0.1 0.03333,-0.18333 0,-0.25c0,-0.3 0.01667,-0.56667 0.05,-0.8c0,-0.1 0.01667,-0.2 0.05,-0.3c0.03333,-0.1 0.06667,-0.18333 0.1,-0.25c0.03333,-0.1 0.06667,-0.2 0.1,-0.3c0.03333,-0.06667 0.06667,-0.15 0.1,-0.25c0,-0.1 0,-0.18333 0,-0.25c0,-0.3 0,-0.56667 0,-0.8c0,-0.1 0,-0.2 0,-0.3c0,-0.23333 0,-0.5 0,-0.8c0,-0.06667 0,-0.15 0,-0.25c0,-0.3 0,-0.56667 0,-0.8c0,-0.1 -0.01667,-0.18333 -0.05,-0.25c-0.13333,-0.63333 -0.1,-1.26667 0.1,-1.9c0.06667,-0.1 0.13333,-0.18333 0.2,-0.25c0.13333,-0.2 0.26667,-0.38333 0.4,-0.55c0.06667,-0.1 0.15,-0.18333 0.25,-0.25c0.06667,-0.1 0.15,-0.2 0.25,-0.3c2.1,-0.7 4.3,-1.01667 6.6,-0.95c0.7,0.03333 1.41667,-0.01667 2.15,-0.15c2.26667,-0.4 4.53333,-0.8 6.8,-1.2c0,-0.1 0,-0.2 0,-0.3c-0.03333,-0.26667 -0.03333,-0.53333 0,-0.8c0,-0.06667 0,-0.15 0,-0.25c-0.03333,-0.26667 -0.03333,-0.53333 0,-0.8c0,-0.1 0,-0.18333 0,-0.25c-0.03333,-0.3 -0.03333,-0.58333 0,-0.85c0,-0.06667 0,-0.15 0,-0.25c0,-0.43333 0,-0.88333 0,-1.35c-2.86667,-0.2 -5.8,0.01667 -8.8,0.65c-2.26667,0.5 -4.05,-0.1 -5.35,-1.8c-0.66667,-0.86667 -1.16667,-1.85 -1.5,-2.95c0,-0.06667 0,-0.15 0,-0.25c0,-0.1 0,-0.2 0,-0.3c0,-0.06667 0,-0.15 0,-0.25c-0.03333,-0.1 -0.06667,-0.18333 -0.1,-0.25c-0.03333,-0.1 -0.05,-0.2 -0.05,-0.3c-0.03333,-0.06667 -0.06667,-0.15 -0.1,-0.25c-0.03333,-0.1 -0.06667,-0.18333 -0.1,-0.25c0,-0.1 0,-0.2 0,-0.3c0,-0.06667 0,-0.15 0,-0.25c0,-0.1 0,-0.18333 0,-0.25c0,-0.1 0,-0.2 0,-0.3c-0.03333,-0.06667 -0.06667,-0.15 -0.1,-0.25c-0.03333,-0.1 -0.06667,-0.18333 -0.1,-0.25c-0.03333,-0.1 -0.05,-0.2 -0.05,-0.3c-0.03333,-0.06667 -0.06667,-0.15 -0.1,-0.25c0,-0.1 0,-0.2 0,-0.3c0,-0.23333 0,-0.5 0,-0.8c0,-0.06667 0,-0.15 0,-0.25c0,-0.26667 0,-0.53333 0,-0.8c0,-0.1 0,-0.18333 0,-0.25c0,-0.3 0,-0.56667 0,-0.8c0,-0.1 0,-0.2 0,-0.3c0.46667,-1.5 1.51667,-2.33333 3.15,-2.5c3.06667,-0.36667 6.15,-0.58333 9.25,-0.65c3.96667,-0.06667 7.78333,-0.58333 11.45,-1.55c0,-0.1 0,-0.2 0,-0.3c-0.03333,-0.26667 -0.05,-0.53333 -0.05,-0.8c0.03333,-0.16667 0.05,-0.35 0.05,-0.55c0,-0.16667 0,-0.33333 0,-0.5c0,-0.1 0,-0.2 0,-0.3c-0.03333,-0.26667 -0.03333,-0.53333 0,-0.8c0,-0.06667 0,-0.15 0,-0.25c0,-0.7 0,-1.41667 0,-2.15c-0.03333,-0.1 -0.06667,-0.18333 -0.1,-0.25c-0.03333,-0.1 -0.06667,-0.2 -0.1,-0.3c-0.03333,-0.06667 -0.06667,-0.15 -0.1,-0.25z" fill="#000000"/><path d="M644.75811,346.83784c0,0.73333 0,1.45 0,2.15c0,0.1 0,0.18333 0,0.25c-0.03333,0.26667 -0.03333,0.53333 0,0.8c0,0.1 0,0.2 0,0.3c0,0.16667 0,0.33333 0,0.5c0,0.2 -0.01667,0.38333 -0.05,0.55c0,0.26667 0.01667,0.53333 0.05,0.8c0,0.1 0,0.2 0,0.3c-3.66667,0.96667 -7.48333,1.48333 -11.45,1.55c-3.1,0.06667 -6.18333,0.28333 -9.25,0.65c-1.63333,0.16667 -2.68333,1 -3.15,2.5c0,0.1 0,0.2 0,0.3c0,0.23333 0,0.5 0,0.8c0,0.06667 0,0.15 0,0.25c0,0.26667 0,0.53333 0,0.8c0,0.1 0,0.18333 0,0.25c0,0.3 0,0.56667 0,0.8c0,0.1 0,0.2 0,0.3c0.03333,0.1 0.06667,0.18333 0.1,0.25c0,0.1 0.01667,0.2 0.05,0.3c0.03333,0.06667 0.06667,0.15 0.1,0.25c0.03333,0.1 0.06667,0.18333 0.1,0.25c0,0.1 0,0.2 0,0.3c0,0.06667 0,0.15 0,0.25c0,0.1 0,0.18333 0,0.25c0,0.1 0,0.2 0,0.3c0.03333,0.06667 0.06667,0.15 0.1,0.25c0.03333,0.1 0.06667,0.18333 0.1,0.25c0,0.1 0.01667,0.2 0.05,0.3c0.03333,0.06667 0.06667,0.15 0.1,0.25c0,0.1 0,0.18333 0,0.25c0,0.1 0,0.2 0,0.3c0,0.1 0,0.18333 0,0.25c0.33333,1.1 0.83333,2.08333 1.5,2.95c1.3,1.7 3.08333,2.3 5.35,1.8c3,-0.63333 5.93333,-0.85 8.8,-0.65c0,0.46667 0,0.91667 0,1.35c0,0.1 0,0.18333 0,0.25c-0.03333,0.26667 -0.03333,0.55 0,0.85c0,0.06667 0,0.15 0,0.25c-0.03333,0.26667 -0.03333,0.53333 0,0.8c0,0.1 0,0.18333 0,0.25c-0.03333,0.26667 -0.03333,0.53333 0,0.8c0,0.1 0,0.2 0,0.3c-2.26667,0.4 -4.53333,0.8 -6.8,1.2c-0.73333,0.13333 -1.45,0.18333 -2.15,0.15c-2.3,-0.06667 -4.5,0.25 -6.6,0.95c-0.1,0.1 -0.18333,0.2 -0.25,0.3c-0.1,0.06667 -0.18333,0.15 -0.25,0.25c-0.13333,0.16667 -0.26667,0.35 -0.4,0.55c-0.06667,0.06667 -0.13333,0.15 -0.2,0.25c-0.2,0.63333 -0.23333,1.26667 -0.1,1.9c0.03333,0.06667 0.05,0.15 0.05,0.25c0,0.23333 0,0.5 0,0.8c0,0.1 0,0.18333 0,0.25c0,0.3 0,0.56667 0,0.8c0,0.1 0,0.2 0,0.3c0,0.23333 0,0.5 0,0.8c0,0.06667 0,0.15 0,0.25c-0.03333,0.1 -0.06667,0.18333 -0.1,0.25c-0.03333,0.1 -0.06667,0.2 -0.1,0.3c-0.03333,0.06667 -0.06667,0.15 -0.1,0.25c-0.03333,0.1 -0.05,0.2 -0.05,0.3c-0.03333,0.23333 -0.05,0.5 -0.05,0.8c0.03333,0.06667 0.03333,0.15 0,0.25c0,0.26667 0,0.53333 0,0.8c0.03333,0.1 0.03333,0.18333 0,0.25c0,0.26667 0.01667,0.53333 0.05,0.8c0,0.1 0,0.2 0,0.3c0,0.3 0.08333,0.58333 0.25,0.85c0.06667,0.06667 0.1,0.13333 0.1,0.2c0,1.36667 0,2.71667 0,4.05c0,0.86667 0,1.75 0,2.65c0,0.36667 0,0.73333 0,1.1c0,0.33333 0,0.68333 0,1.05c0.03333,0.36667 0,0.71667 -0.1,1.05c-0.46667,0.13333 -0.95,0.23333 -1.45,0.3c-0.36667,0.06667 -0.75,0.11667 -1.15,0.15c-0.06667,-0.03333 -0.13333,-0.05 -0.2,-0.05c-1.23333,-0.3 -2.5,-0.43333 -3.8,-0.4v-0.05c0.03333,-3.06667 0.03333,-6.11667 0,-9.15c-0.03333,-6.7 -0.06667,-13.38333 -0.1,-20.05c-0.03333,-1.66667 -0.26667,-3.28333 -0.7,-4.85c0,-0.8 0,-1.6 0,-2.4c0,-0.1 0,-0.18333 0,-0.25c0,-0.3 0,-0.56667 0,-0.8c0,-0.1 0,-0.2 0,-0.3c0,-0.16667 0,-0.33333 0,-0.5c0,-0.2 0,-0.38333 0,-0.55c0.03333,-0.26667 0.01667,-0.53333 -0.05,-0.8c0,-0.1 0.01667,-0.2 0.05,-0.3c0.03333,-0.06667 0.05,-0.15 0.05,-0.25c0.03333,-0.1 0.06667,-0.18333 0.1,-0.25c0.03333,-0.1 0.06667,-0.2 0.1,-0.3c-0.03333,-1.6 -0.06667,-3.2 -0.1,-4.8c-0.06667,-1.26667 -0.11667,-2.51667 -0.15,-3.75c0,-0.36667 -0.01667,-0.71667 -0.05,-1.05c-0.03333,-0.36667 -0.08333,-0.73333 -0.15,-1.1c-0.03333,-0.33333 -0.03333,-0.68333 0,-1.05c2.93333,-0.26667 5.86667,-0.53333 8.8,-0.8c3.33333,-0.26667 6.68333,-0.41667 10.05,-0.45c3.63333,0.03333 7.26667,0.1 10.9,0.2c0.66667,0.03333 1.28333,0.11667 1.85,0.25c0,0.03333 0,0.08333 0,0.15c0,0.1 0,0.2 0,0.3c0,0.06667 0,0.15 0,0.25c0,0.16667 0,0.35 0,0.55c0,0.06667 0,0.15 0,0.25c0.03333,0.1 0.06667,0.18333 0.1,0.25c0.03333,0.1 0.06667,0.2 0.1,0.3c0.03333,0.06667 0.06667,0.15 0.1,0.25z" fill="#ffffff"/></g></g></svg>