<svg version="1.1" xmlns="http://www.w3.org/2000/svg" xmlns:xlink="http://www.w3.org/1999/xlink" width="41.66008" height="62.27203" viewBox="0,0,41.66008,62.27203"><g transform="translate(-614.66255,-339.34801)"><g data-paper-data="{&quot;isPaintingLayer&quot;:true}" fill-rule="nonzero" stroke="none" stroke-width="1" stroke-linecap="round" stroke-linejoin="miter" stroke-miterlimit="4" stroke-dasharray="" stroke-dashoffset="0" style="mix-blend-mode: normal"><path d="M653.01549,344.81051c1.06667,2.3 1.66667,5.48333 1.8,9.55c0.2,5.33333 0.41667,8.63333 0.65,9.9c0.13333,0.63333 0.33333,1.58333 0.6,2.85c0.2,1.1 0.28333,2.05 0.25,2.85c0,1.16667 -0.3,2.9 -0.9,5.2c-0.26667,1.6 -0.33333,3.76667 -0.2,6.5c-0.23333,1.1 -0.45,3.55 -0.65,7.35c-0.16667,3.03333 -0.61667,5.4 -1.35,7.1c-0.43333,1.1 -1.01667,1.96667 -1.75,2.6c-0.78841,0.65247 -1.58841,0.93581 -2.4,0.85c-0.03112,0.05365 -0.06445,0.10365 -0.1,0.15c-0.36667,0.56667 -0.86667,1 -1.5,1.3c-1.03333,0.53333 -2.16667,0.71667 -3.4,0.55c-1.2,-0.16667 -2.28333,-0.61667 -3.25,-1.35c-1.73333,-1.26667 -2.95,-3.23333 -3.65,-5.9c-0.4,-1.63333 -0.63333,-3.96667 -0.7,-7l-0.25,-8.7l-11.95,-1.75c-1.5,-0.23333 -2.6,-0.45 -3.3,-0.65c-1.2,-0.33333 -2.18333,-0.78333 -2.95,-1.35c-1.13333,-0.83333 -2,-1.98333 -2.6,-3.45c-0.53333,-1.36667 -0.78333,-2.83333 -0.75,-4.4c0.03333,-1.3 0.28333,-2.75 0.75,-4.35c0.23333,-0.83333 0.7,-2.23333 1.4,-4.2l4.4,-11.85l-0.1,0.55c1.36667,-3.76667 3.25,-6.06667 5.65,-6.9c1.46667,-0.5 3,-0.41667 4.6,0.25c1.5,0.63333 2.71667,1.63333 3.65,3c1.6,2.4 2.1,5.45 1.5,9.15c-0.1,0.76667 -0.33333,1.91667 -0.7,3.45c-0.36667,1.5 -0.61667,2.65 -0.75,3.45c0.65352,0.11146 1.50352,0.29479 2.55,0.55c-0.2,-6.66667 0.5,-11.91667 2.1,-15.75c0.93333,-2.2 2.1,-3.66667 3.5,-4.4c0.86667,-0.46667 1.85,-0.66667 2.95,-0.6c1.03333,0.06667 2,0.36667 2.9,0.9c1.6,0.93333 2.91667,2.45 3.95,4.55M648.11549,347.86051c-0.5,-1.23333 -1.26667,-2.11667 -2.3,-2.65c-1.2,2.1 -1.96667,4.65 -2.3,7.65c-0.23333,1.9 -0.3,4.61667 -0.2,8.15c0.06667,1.76667 -0.18333,3.01667 -0.75,3.75c-0.8,0.96667 -2.16667,1.41667 -4.1,1.35c-1.46667,0 -3,-0.13333 -4.6,-0.4c-0.73125,-0.16615 -1.34792,-0.36615 -1.85,-0.6c-0.3319,0.07435 -0.66523,0.07435 -1,0c-0.5,-0.13333 -0.93333,-0.41667 -1.3,-0.85c-0.36667,-0.43333 -0.6,-0.93333 -0.7,-1.5c-0.1,-0.76667 0.01667,-1.85 0.35,-3.25c0.53333,-1.8 0.91667,-3.15 1.15,-4.05c0.43333,-1.6 0.71667,-2.98333 0.85,-4.15c0.23333,-2.06667 -0.08333,-3.66667 -0.95,-4.8c-0.43333,-0.56667 -0.88333,-0.86667 -1.35,-0.9c-0.8,-0.1 -1.43333,0.38333 -1.9,1.45c-0.36667,1.06667 -0.73333,1.83333 -1.1,2.3c-0.83333,1.46667 -1.6,3.58333 -2.3,6.35c-0.86667,3.33333 -1.51667,5.53333 -1.95,6.6c-0.23333,0.6 -0.58333,1.51667 -1.05,2.75c-0.36667,1.06667 -0.48333,2.01667 -0.35,2.85c0.13333,1.06667 0.58333,1.81667 1.35,2.25c0.4,0.23333 1.01667,0.38333 1.85,0.45c0.93333,0.03333 1.58333,0.13333 1.95,0.3c3.35859,0.62604 7.09193,1.17604 11.2,1.65c2,0.2 3.35,0.66667 4.05,1.4c0.53333,0.6 0.9,1.68333 1.1,3.25c0.13333,1.33333 0.21667,4 0.25,8c0,3.33333 0.18333,5.96667 0.55,7.9c0.26667,1.3 0.73333,2.08333 1.4,2.35c0.56667,0.2 1.45,0.13333 2.65,-0.2c0.29701,-0.01419 0.58034,0.01914 0.85,0.1c0.24609,-0.34961 0.42943,-0.63294 0.55,-0.85c0.5,-0.76667 0.8,-1.76667 0.9,-3c0.03333,-0.1 0.06667,-1.16667 0.1,-3.2c0.03333,-0.8 0.11667,-1.91667 0.25,-3.35c0.13333,-1.6 0.21667,-2.73333 0.25,-3.4c0,-1.56667 0,-2.73333 0,-3.5c0,-1.4 0.06667,-2.58333 0.2,-3.55c0.5,-2.26667 0.73333,-3.96667 0.7,-5.1c-0.03333,-0.56667 -0.13333,-1.25 -0.3,-2.05c-0.23333,-0.86667 -0.4,-1.53333 -0.5,-2c-0.4,-1.8 -0.61667,-4.13333 -0.65,-7c-0.1,-3.9 -0.18333,-6.23333 -0.25,-7c-0.2,-1.6 -0.45,-2.76667 -0.75,-3.5z" fill="#000000"/><path d="M649.76549,365.36051c0.1,0.46667 0.26667,1.13333 0.5,2c0.16667,0.8 0.26667,1.48333 0.3,2.05c0.03333,1.13333 -0.2,2.83333 -0.7,5.1c-0.13333,0.96667 -0.2,2.15 -0.2,3.55c0,0.76667 0,1.93333 0,3.5c-0.03333,0.66667 -0.11667,1.8 -0.25,3.4c-0.13333,1.43333 -0.21667,2.55 -0.25,3.35c-0.03333,2.03333 -0.06667,3.1 -0.1,3.2c-0.1,1.23333 -0.4,2.23333 -0.9,3c-0.12057,0.21706 -0.30391,0.50039 -0.55,0.85c-0.26966,-0.08086 -0.55299,-0.11419 -0.85,-0.1c-1.2,0.33333 -2.08333,0.4 -2.65,0.2c-0.66667,-0.26667 -1.13333,-1.05 -1.4,-2.35c-0.36667,-1.93333 -0.55,-4.56667 -0.55,-7.9c-0.03333,-4 -0.11667,-6.66667 -0.25,-8c-0.2,-1.56667 -0.56667,-2.65 -1.1,-3.25c-0.7,-0.73333 -2.05,-1.2 -4.05,-1.4c-4.10807,-0.47396 -7.84141,-1.02396 -11.2,-1.65c-0.36667,-0.16667 -1.01667,-0.26667 -1.95,-0.3c-0.83333,-0.06667 -1.45,-0.21667 -1.85,-0.45c-0.76667,-0.43333 -1.21667,-1.18333 -1.35,-2.25c-0.13333,-0.83333 -0.01667,-1.78333 0.35,-2.85c0.46667,-1.23333 0.81667,-2.15 1.05,-2.75c0.43333,-1.06667 1.08333,-3.26667 1.95,-6.6c0.7,-2.76667 1.46667,-4.88333 2.3,-6.35c0.36667,-0.46667 0.73333,-1.23333 1.1,-2.3c0.46667,-1.06667 1.1,-1.55 1.9,-1.45c0.46667,0.03333 0.91667,0.33333 1.35,0.9c0.86667,1.13333 1.18333,2.73333 0.95,4.8c-0.13333,1.16667 -0.41667,2.55 -0.85,4.15c-0.23333,0.9 -0.61667,2.25 -1.15,4.05c-0.33333,1.4 -0.45,2.48333 -0.35,3.25c0.1,0.56667 0.33333,1.06667 0.7,1.5c0.36667,0.43333 0.8,0.71667 1.3,0.85c0.33477,0.07435 0.6681,0.07435 1,0c0.50208,0.23385 1.11875,0.43385 1.85,0.6c1.6,0.26667 3.13333,0.4 4.6,0.4c1.93333,0.06667 3.3,-0.38333 4.1,-1.35c0.56667,-0.73333 0.81667,-1.98333 0.75,-3.75c-0.1,-3.53333 -0.03333,-6.25 0.2,-8.15c0.33333,-3 1.1,-5.55 2.3,-7.65c1.03333,0.53333 1.8,1.41667 2.3,2.65c0.3,0.73333 0.55,1.9 0.75,3.5c0.06667,0.76667 0.15,3.1 0.25,7c0.03333,2.86667 0.25,5.2 0.65,7z" fill="#ffffff"/></g></g></svg>