<svg version="1.1" xmlns="http://www.w3.org/2000/svg" xmlns:xlink="http://www.w3.org/1999/xlink" width="499.69124" height="523.825" viewBox="0,0,499.69124,523.825"><g transform="translate(-339.34395,-192.4)"><g data-paper-data="{&quot;isPaintingLayer&quot;:true}" fill-rule="nonzero" stroke="none" stroke-width="1" stroke-linecap="butt" stroke-linejoin="miter" stroke-miterlimit="10" stroke-dasharray="" stroke-dashoffset="0" style="mix-blend-mode: normal"><path d="M466.21047,451.84824c2.80546,-5.90945 6.27586,-10.46166 10.41122,-13.65663c2.73567,-2.07864 5.39805,-4.24171 7.98714,-6.48921c8.46606,-7.21091 17.19663,-13.75328 26.1917,-19.62712c0.02548,-0.0616 0.03557,-0.12957 0.03025,-0.20392c-0.81718,-5.7849 -0.4587,-12.05738 1.07542,-18.81743c2.05814,-1.31285 4.2156,-2.38622 6.47239,-3.22011c9.89798,-3.69671 20.52732,-5.62995 31.88802,-5.79973c2.49483,1.03211 4.47086,2.22835 5.9281,3.58871c8.50444,7.95511 15.37339,16.55024 20.60683,25.78539c-0.89735,1.03557 -1.80317,2.26602 -2.71748,3.69136c-6.82917,10.66562 -13.78421,21.2431 -20.8651,31.73244c-1.69402,-0.70082 -3.42998,-1.25666 -5.20788,-1.66753c-4.13037,-0.91516 -8.45618,-2.05545 -12.97742,-3.42088c-6.76917,3.98109 -13.34978,8.50912 -19.74184,13.58409c-8.5415,6.78291 -16.78876,14.33685 -24.74176,22.6618c-0.0924,-0.03823 -0.16037,-0.04831 -0.20392,-0.03025c-5.53951,1.53191 -12.2953,0.16188 -20.26737,-4.1101c0.02548,-0.0616 0.0292,-0.11417 0.01114,-0.15771c-3.90658,-4.68225 -6.30829,-9.95034 -7.20512,-15.80428c0.82714,-2.43534 1.9357,-5.11497 3.32569,-8.0389z" fill-opacity="0.99608" fill="#000000"/><path d="M497.13493,499.44774c-7.42215,13.25008 -15.82933,22.59913 -25.22152,28.04715c-7.02582,4.06315 -14.46494,6.59454 -22.31737,7.59417c-7.70231,1.02543 -16.13498,-1.01099 -25.29801,-6.10926c-5.3047,-2.9559 -9.38956,-6.64997 -12.25458,-11.08222c-5.70709,-8.77135 -8.1,-19.31107 -7.17872,-31.61917c0.46438,-6.09022 1.58207,-12.59225 3.35307,-19.50609c1.79793,-6.90178 4.5863,-14.35442 8.3651,-22.35793c3.43729,-6.37474 7.2898,-12.37705 11.55753,-18.00694c3.9745,-5.26399 8.20741,-9.62498 12.69873,-13.08296c9.05195,-6.92635 19.12112,-9.62648 30.20749,-8.10041c4.19586,0.59468 8.54789,2.21233 13.0561,4.85294c7.74311,4.58664 13.48988,10.30953 17.24032,17.16867c4.97498,9.10643 7.45665,19.52016 7.44502,31.24121c-0.00606,6.00544 -0.88861,12.34345 -2.64765,19.01403c-1.96446,7.49016 -4.9663,14.80576 -9.0055,21.94681z" fill-opacity="0.99608" fill="#000000"/><path d="M467.1,658.5c-0.23333,0.9 -1.15,3.63333 -2.75,8.2c-1.4,4.4 -1.81667,7.16667 -1.25,8.3c2.43333,4.96667 5.81667,9.28333 10.15,12.95c2,1.7 5.15,4.43333 9.45,8.2c3.73333,3.13333 6.58333,5.25 8.55,6.35l-2.75,3.55c-0.56667,0.13333 -2.15,-0.33333 -4.75,-1.4c-2.66667,-1.1 -4.76667,-2.13333 -6.3,-3.1c-1.56667,-0.96667 -4.26667,-3.3 -8.1,-7c-3.83333,-3.7 -7,-7.1 -9.5,-10.2c-2.53333,-3.1 -4.21667,-5.51667 -5.05,-7.25c-0.83333,-1.76667 -1.08333,-3.41667 -0.75,-4.95c0.3,-1.53333 0.7,-3.15 1.2,-4.85c0.5,-1.76667 0.98333,-3.31667 1.45,-4.65c0.46667,-1.33333 0.81667,-2.26667 1.05,-2.8c0.2,-0.53333 0.56667,-1.56667 1.1,-3.1c0.5,-1.56667 0.86667,-2.73333 1.1,-3.5c0.23333,-0.76667 1.16667,-1.76667 2.8,-3c1.56667,-1.2 3.06667,-2.08333 4.5,-2.65c1.4,-0.56667 3.05,-1.06667 4.95,-1.5c1.9,-0.43333 3.53333,-0.7 4.9,-0.8c1.36667,-0.1 2.66667,-0.31667 3.9,-0.65c1.2,-0.33333 2.05,-0.58333 2.55,-0.75c0.5,-0.16667 2.01667,-0.8 4.55,-1.9c1.43333,-0.63333 2.38333,-1.11667 2.85,-1.45c0.1,-0.06667 0.95,-0.55 2.55,-1.45c1.3,-0.76667 3.56667,-2.65 6.8,-5.65c3.23333,-3.03333 5.03333,-4.73333 5.4,-5.1l-0.05,0.15l-0.2,0.45c-0.16667,0.6 -0.13333,1.03333 0.1,1.3c0.26667,0.3 0.71667,0.26667 1.35,-0.1c0.56667,-0.33333 1.1,-0.78333 1.6,-1.35c-1.5,3.13333 -3.11667,6.25 -4.85,9.35c-2.53333,4.6 -4.43333,7.55 -5.7,8.85c-1.26667,1.3 -4.85,2.86667 -10.75,4.7c-4.46667,1.36667 -8.46667,2.4 -12,3.1c-3.2,0.63333 -5.01667,1.03333 -5.45,1.2c-1.46667,0.5 -2.35,1.33333 -2.65,2.5M565.1,499.1c0.43333,0.2 1.08333,0.56667 1.95,1.1c-1.16667,0.56667 -6.05,4.38333 -14.65,11.45c-9.2,7.53333 -14.3,11.66667 -15.3,12.4c-1.46667,-2.7 -3.68333,-5.91667 -6.65,-9.65c2.76667,-1.6 8.66667,-4.76667 17.7,-9.5c9.03333,-4.76667 14,-6.98333 14.9,-6.65c0.9,0.33333 1.58333,0.61667 2.05,0.85M531.5,565.5c0.93333,0.56667 1.75,1.08333 2.45,1.55l-10,4.35c-2.46667,-4.23333 -4.93333,-8.61667 -7.4,-13.15c-4.9,-8.86667 -7.46667,-14.08333 -7.7,-15.65c2.7,5.3 5.41667,9.28333 8.15,11.95c2.73333,2.63333 4.96667,4.53333 6.7,5.7c1.26667,1.06667 3.86667,2.81667 7.8,5.25M788.4,710.25c-0.36667,0.13333 -0.66667,0.23333 -0.9,0.3h-0.05c-2.26667,0.6 -5.18333,1.43333 -8.75,2.5c-3.63333,1.03333 -7.06667,1.8 -10.3,2.3c-3.26667,0.5 -7.11667,0.78333 -11.55,0.85c-4.43333,0.06667 -7.65,0 -9.65,-0.2c-2,-0.2 -3.98333,-0.63333 -5.95,-1.3c-1.96667,-0.66667 -4,-1.63333 -6.1,-2.9c-2.1,-1.23333 -5.05,-3.13333 -8.85,-5.7c-2.06667,-1.43333 -4.11667,-2.63333 -6.15,-3.6c-2.66667,-0.73333 -5.9,-2.41667 -9.7,-5.05c-3.7,-2.6 -5.75,-3.95 -6.15,-4.05c-1.5,-0.36667 -9.65,-1.98333 -24.45,-4.85c0,0.5 -0.23333,0.83333 -0.7,1c-0.46667,0.13333 -1.25,0 -2.35,-0.4c-1.13333,-0.43333 -6.16667,-6.75 -15.1,-18.95l0.45,0.3c-2.16667,-1.7 -3.75,-3.66667 -4.75,-5.9c-1.1,-2.33333 -1.48333,-4.8 -1.15,-7.4c0.26667,-2.13333 2.1,-5.93333 5.5,-11.4c3.73333,-5.73333 5.98333,-9.36667 6.75,-10.9c-2.13333,-3.06667 -5.66667,-8.71667 -10.6,-16.95c-4.66667,-7.9 -7.26667,-12.26667 -7.8,-13.1c-1.46667,-2.23333 -2.65,-4.55 -3.55,-6.95c-1.46667,-3.9 -1.86667,-7.23333 -1.2,-10c0.63333,-2.7 3.55,-8.05 8.75,-16.05l6.75,-10l7.65,6.45l-13.75,23l-0.3,0.8c-0.1,0.63333 0.05,1.23333 0.45,1.8c0.6,1.13333 3.43333,6.86667 8.5,17.2c5.06667,10.2 8.38333,16.21667 9.95,18.05c2.16667,2.56667 5.28333,6.05 9.35,10.45c4.4,4.76667 7.1,7.55 8.1,8.35c-1.96667,-0.1 -3.73333,-0.3 -5.3,-0.6c-2.93333,-0.6 -5.8,-1.76667 -8.6,-3.5c-2.33333,1.16667 -4.58333,3.53333 -6.75,7.1c-2.7,4.36667 -3.25,8.21667 -1.65,11.55c2.3,4.76667 4.53333,8.46667 6.7,11.1c3.1,3.7 6.53333,6 10.3,6.9c4.13333,1 9.2,2.08333 15.2,3.25c5.9,1.2 9.35,1.81667 10.35,1.85c2.3,2.2 7.95,6.1 16.95,11.7c11.23333,7 19.25,10.73333 24.05,11.2c5.33333,0.53333 10.31667,0.43333 14.95,-0.3c4.06667,-0.63333 7.38333,-1.66667 9.95,-3.1c0.53333,0.3 2.91667,1.26667 7.15,2.9c2.86667,1.13333 4.3,1.88333 4.3,2.25M718.5,575.95c3.06667,-2.23333 6.33333,-4.88333 9.8,-7.95c6.96667,-6.16667 11.53333,-11.33333 13.7,-15.5l-9.6,19.45l-13.9,4M514.6,638.9c1.9,3.83333 3.8,6.56667 5.7,8.2c4.9,4.23333 8.51667,6.95 10.85,8.15c4.13333,2.16667 6.95,3.53333 8.45,4.1c-3.36667,0.43333 -7,0.31667 -10.9,-0.35c-4.83333,-0.86667 -8.23333,-2.41667 -10.2,-4.65c-2.86667,-3.26667 -4.91667,-10.15 -6.15,-20.65l2.25,5.2M761.6,662c-14.13333,2.83333 -22.3,4.28333 -24.5,4.35l16.45,-4.4c11.5,-3.2 19.51667,-6.4 24.05,-9.6c4.53333,-3.23333 6.95,-8.25 7.25,-15.05c1.13333,4.4 2.21667,8.25 3.25,11.55c0.56667,1.8 1.11667,4.08333 1.65,6.85c-4.13333,1.3 -13.51667,3.4 -28.15,6.3z" fill="#2c2d41"/><path d="M799.85,637.4c5.1,3.9 8.95,6.68333 11.55,8.35c2.6,1.63333 5.86667,3.66667 9.8,6.1c3.9,2.43333 6.23333,3.98333 7,4.65c0.76667,0.63333 2.33333,3.2 4.7,7.7c2.33333,4.46667 3.81667,7.28333 4.45,8.45c0.63333,1.13333 1.13333,2.53333 1.5,4.2c0.33333,1.66667 0.21667,3.55 -0.35,5.65c-0.5,1.9 -1.71667,3.9 -3.65,6c-1,1.06667 -1.93333,1.93333 -2.8,2.6c-4.06667,2.86667 -11.93333,6.66667 -23.6,11.4c-10.43333,4.23333 -17.11667,6.81667 -20.05,7.75c0,-0.36667 -1.43333,-1.11667 -4.3,-2.25c-4.23333,-1.63333 -6.61667,-2.6 -7.15,-2.9c-2.56667,1.43333 -5.88333,2.46667 -9.95,3.1c-4.63333,0.73333 -9.61667,0.83333 -14.95,0.3c-4.8,-0.46667 -12.81667,-4.2 -24.05,-11.2c-9,-5.6 -14.65,-9.5 -16.95,-11.7c-1,-0.03333 -4.45,-0.65 -10.35,-1.85c-6,-1.16667 -11.06667,-2.25 -15.2,-3.25c-3.76667,-0.9 -7.2,-3.2 -10.3,-6.9c-2.16667,-2.63333 -4.4,-6.33333 -6.7,-11.1c-1.6,-3.33333 -1.05,-7.18333 1.65,-11.55c2.16667,-3.56667 4.41667,-5.93333 6.75,-7.1c2.8,1.73333 5.66667,2.9 8.6,3.5c1.56667,0.3 3.33333,0.5 5.3,0.6c-1,-0.8 -3.7,-3.58333 -8.1,-8.35c-4.06667,-4.4 -7.18333,-7.88333 -9.35,-10.45c-1.56667,-1.83333 -4.88333,-7.85 -9.95,-18.05c-5.06667,-10.33333 -7.9,-16.06667 -8.5,-17.2c-0.4,-0.56667 -0.55,-1.16667 -0.45,-1.8l0.3,-0.8l13.75,-23l-7.65,-6.45l0.85,-1.25l-0.25,-1c-11.5,-11.4 -17.91667,-18.11667 -19.25,-20.15c-1.83333,-1.26667 -8.2,-2.43333 -19.1,-3.5l-15.8,-1.25l-18.8,7.05v0.75c12.26667,8.7 19.33333,14.6 21.2,17.7c2.73333,8.96667 5.03333,20.11667 6.9,33.45c1.83333,13.33333 2.83333,23.93333 3,31.8l4.6,10.2c3.33333,7.3 5.68333,12.3 7.05,15c1.36667,2.7 1.88333,4.73333 1.55,6.1c-0.2,0.76667 -0.66667,1.78333 -1.4,3.05c-1.76667,3.06667 -5.05,7.3 -9.85,12.7l-0.75,-0.55c-1.96667,1.53333 -5.3,3.66667 -10,6.4c-4.7,2.7 -9.4,5.16667 -14.1,7.4c-4.76667,2.26667 -10.66667,4.21667 -17.7,5.85c-7.06667,1.63333 -13.28333,3.13333 -18.65,4.5c-5.4,1.36667 -10.95,2.61667 -16.65,3.75c-3.4,0.7 -10.48333,2.03333 -21.25,4c-7.53333,1.36667 -15.45,2.15 -23.75,2.35l-10.2,-0.15l2.75,-3.55c-1.96667,-1.1 -4.81667,-3.21667 -8.55,-6.35c-4.3,-3.76667 -7.45,-6.5 -9.45,-8.2c-4.33333,-3.66667 -7.71667,-7.98333 -10.15,-12.95c-0.56667,-1.13333 -0.15,-3.9 1.25,-8.3c1.6,-4.56667 2.51667,-7.3 2.75,-8.2c0.3,-1.16667 1.18333,-2 2.65,-2.5c0.43333,-0.16667 2.25,-0.56667 5.45,-1.2c3.53333,-0.7 7.53333,-1.73333 12,-3.1c5.9,-1.83333 9.48333,-3.4 10.75,-4.7c1.26667,-1.3 3.16667,-4.25 5.7,-8.85c1.73333,-3.1 3.35,-6.21667 4.85,-9.35c-0.5,0.56667 -1.03333,1.01667 -1.6,1.35c-0.63333,0.36667 -1.08333,0.4 -1.35,0.1c-0.23333,-0.26667 -0.26667,-0.7 -0.1,-1.3l0.2,-0.45c0.1,-0.1 0.2,-0.2 0.3,-0.3c0.26667,-0.26667 0.43333,-0.45 0.5,-0.55l1.65,-1.7l-25.35,-55.65l-0.15,-4c10.16667,-5.53333 16.18333,-9.21667 18.05,-11.05c1.46667,-1.46667 2.95,-3.2 4.45,-5.2c1.6,-2.2 2.73333,-4.1 3.4,-5.7l0.35,-1.75c0.23333,1.56667 2.8,6.78333 7.7,15.65c2.46667,4.53333 4.93333,8.91667 7.4,13.15l10,-4.35c0.2,0.1 0.38333,0.2 0.55,0.3c0.8,0.46667 0.63333,0.35 -0.5,-0.35l-0.05,0.05c-0.7,-0.46667 -1.51667,-0.98333 -2.45,-1.55c-3.93333,-2.43333 -6.53333,-4.18333 -7.8,-5.25c-1.73333,-1.16667 -3.96667,-3.06667 -6.7,-5.7c-2.73333,-2.66667 -5.45,-6.65 -8.15,-11.95l0.35,-1.75c0.1,-0.56667 -0.76667,-1.8 -2.6,-3.7c-1.66667,-1.73333 -5.63333,-7.01667 -11.9,-15.85l-8.9,-12.7l13.95,-4.85c9.5,-3.2 14.96667,-4.8 16.4,-4.8c3,2.43333 6.76667,6.35 11.3,11.75c1.06667,1.26667 2.06667,2.5 3,3.7c2.96667,3.73333 5.18333,6.95 6.65,9.65c1,-0.73333 6.1,-4.86667 15.3,-12.4c8.6,-7.06667 13.48333,-10.88333 14.65,-11.45c-0.86667,-0.53333 -1.51667,-0.9 -1.95,-1.1c-0.46667,-0.23333 -1.15,-0.51667 -2.05,-0.85c-1.73333,-5.73333 -3.46667,-15.03333 -5.2,-27.9c-1.73333,-12.86667 -1.65,-24.95 0.25,-36.25c1.86667,-11.3 3.36667,-19.23333 4.5,-23.8c1.33333,-6.9 5.15,-14.46667 11.45,-22.7c6.3,-8.26667 19.23333,-12 38.8,-11.2c8.93333,0.36667 17.3,3.21667 25.1,8.55c1.33333,0.93333 2.66667,1.93333 4,3c7.76667,6.3 14.95,15.18333 21.55,26.65l55,102.3l6.3,-2.95c4.53333,-1.9 7.6,-2.86667 9.2,-2.9c4.06667,1.43333 8.9,4.86667 14.5,10.3c2.83333,2.7 5.23333,5.28333 7.2,7.75c-0.56667,1.1 -1.41667,2.65 -2.55,4.65c-1.16667,2 -2.18333,4.85 -3.05,8.55c-0.9,3.7 -0.3,7.45 1.8,11.25c2.1,3.8 4.28333,6.16667 6.55,7.1c2.23333,0.9 3.95,1.41667 5.15,1.55c1.2,0.1 1.76667,0.51667 1.7,1.25c-0.06667,0.7 -0.15,2.36667 -0.25,5l24.45,60.85c1.8,1.46667 5.25,4.16667 10.35,8.1M788.1,648.85c-1.03333,-3.3 -2.11667,-7.15 -3.25,-11.55c-0.3,6.8 -2.71667,11.81667 -7.25,15.05c-4.53333,3.2 -12.55,6.4 -24.05,9.6l-16.45,4.4c2.2,-0.06667 10.36667,-1.51667 24.5,-4.35c14.63333,-2.9 24.01667,-5 28.15,-6.3c-0.53333,-2.76667 -1.08333,-5.05 -1.65,-6.85M636.15,389.15l1.25,27.35c-0.03333,0 -0.05,0.01667 -0.05,0.05c-0.03333,0.06667 -0.06667,0.13333 -0.1,0.2c-0.53333,0.9 -1.1,1.78333 -1.7,2.65v0.05c-2.76667,3.8 -7.81667,7.15 -15.15,10.05c-10.66667,4.16667 -20.26667,4.9 -28.8,2.2c-8.53333,-2.73333 -14.21667,-7.16667 -17.05,-13.3c0,-0.03333 -0.01667,-0.06667 -0.05,-0.1l0.5,-25.8c-0.1,0.46667 -0.98333,2.08333 -2.65,4.85c-2.8,4.83333 -5.03333,11.93333 -6.7,21.3l-2.35,17.1c-1.3,12.46667 -1.25,21.38333 0.15,26.75c1.7,6.4 3.98333,12.16667 6.85,17.3c2.8,5.06667 6.06667,9.3 9.8,12.7c4.2,3.83333 8.6,6.58333 13.2,8.25c5.7,2.03333 12.18333,2.61667 19.45,1.75c7.66667,-0.9 15.51667,-2.85 23.55,-5.85c7.7,-2.9 14.86667,-6.83333 21.5,-11.8c6.6,-5 12.06667,-9.31667 16.4,-12.95c4.33333,-3.66667 7.63333,-6.46667 9.9,-8.4c-1.8,-3.03333 -6.56667,-11.61667 -14.3,-25.75c-3.7,-6.73333 -6.11667,-11.2 -7.25,-13.4l-4.05,-7.8c-6.86667,-11.63333 -12.46667,-19.56667 -16.8,-23.8c-1.4,-1.6 -3.25,-2.8 -5.55,-3.6M512.35,633.7c1.23333,10.5 3.28333,17.38333 6.15,20.65c1.96667,2.23333 5.36667,3.78333 10.2,4.65c3.9,0.66667 7.53333,0.78333 10.9,0.35c-1.5,-0.56667 -4.31667,-1.93333 -8.45,-4.1c-2.33333,-1.2 -5.95,-3.91667 -10.85,-8.15c-1.9,-1.63333 -3.8,-4.36667 -5.7,-8.2l-2.25,-5.2M742,552.5c-2.16667,4.16667 -6.73333,9.33333 -13.7,15.5c-3.46667,3.06667 -6.73333,5.71667 -9.8,7.95l13.9,-4z" fill="#000000"/><path d="M658.5,416.55l4.05,7.8c1.13333,2.2 3.55,6.66667 7.25,13.4c7.73333,14.13333 12.5,22.71667 14.3,25.75c-2.26667,1.93333 -5.56667,4.73333 -9.9,8.4c-4.33333,3.63333 -9.8,7.95 -16.4,12.95c-6.63333,4.96667 -13.8,8.9 -21.5,11.8c-8.03333,3 -15.88333,4.95 -23.55,5.85c-7.26667,0.86667 -13.75,0.28333 -19.45,-1.75c-4.6,-1.66667 -9,-4.41667 -13.2,-8.25c-3.73333,-3.4 -7,-7.63333 -9.8,-12.7c-2.86667,-5.13333 -5.15,-10.9 -6.85,-17.3c-1.4,-5.36667 -1.45,-14.28333 -0.15,-26.75l2.35,-17.1c1.66667,-9.36667 3.9,-16.46667 6.7,-21.3c1.66667,-2.76667 2.55,-4.38333 2.65,-4.85l-0.5,25.8c0.03333,0.03333 0.05,0.06667 0.05,0.1c2.83333,6.13333 8.51667,10.56667 17.05,13.3c8.53333,2.7 18.13333,1.96667 28.8,-2.2c7.33333,-2.9 12.38333,-6.25 15.15,-10.05v-0.05c0.6,-0.86667 1.16667,-1.75 1.7,-2.65c0.03333,-0.06667 0.06667,-0.13333 0.1,-0.2c0,-0.03333 0.01667,-0.05 0.05,-0.05l-1.25,-27.35c2.3,0.8 4.15,2 5.55,3.6c4.33333,4.23333 9.93333,12.16667 16.8,23.8z" fill="#ffffff"/><path d="M705.7,226.7c5.46667,5.7 8.46667,10.96667 9,15.8c0.53333,4.86667 0.75,8.81667 0.65,11.85c-0.03333,3 -0.05,5.36667 -0.05,7.1c-0.03333,1.66667 -0.06667,2.68333 -0.1,3.05c0.16667,0.1 0.3,0.23333 0.4,0.4c2.1,1.9 4.9,4.25 8.4,7.05c3.46667,2.83333 5.38333,6.5 5.75,11c0.13333,1.76667 0.21667,3.06667 0.25,3.9c0.2,1.46667 0.23333,5.15 0.1,11.05c-0.13333,6.9 -0.31667,10.86667 -0.55,11.9c-0.2,1.03333 -0.48333,3.41667 -0.85,7.15c-0.3,3.73333 -0.9,10.15 -1.8,19.25c-0.86667,9.06667 -2.88333,17.61667 -6.05,25.65c-3.2,8.06667 -5.66667,13.15 -7.4,15.25c-1.63333,2.03333 -2.76667,3.48333 -3.4,4.35c-1.03333,1.46667 -2.18333,2.55 -3.45,3.25c-1.03333,0.63333 -1.85,1.36667 -2.45,2.2c-0.03333,0.2 -0.21667,1.2 -0.55,3c-0.26667,1.76667 -0.55,3.28333 -0.85,4.55c-0.3,1.23333 -1.55,2.21667 -3.75,2.95c-2.16667,0.7 -6.11667,2.03333 -11.85,4c-5.73333,1.96667 -10.3,3.56667 -13.7,4.8c-3.43333,1.16667 -9.75,3.08333 -18.95,5.75c-9.16667,2.63333 -17.01667,4.18333 -23.55,4.65c-6.53333,0.46667 -12.53333,0.75 -18,0.85c-5.43333,0.06667 -10.11667,0.16667 -14.05,0.3c-3.93333,0.06667 -8.83333,0.06667 -14.7,0c-5.9,-0.13333 -11.76667,-0.15 -17.6,-0.05c-5.8,0.1 -10.65,0.01667 -14.55,-0.25c-3.83333,-0.33333 -7.11667,-0.55 -9.85,-0.65c-2.76667,-0.13333 -5.15,-0.33333 -7.15,-0.6c-4.16667,-0.53333 -7.56667,-1 -10.2,-1.4c-3.73333,-0.6 -7.11667,-1.21667 -10.15,-1.85c-3.76667,-0.76667 -7.26667,-1.63333 -10.5,-2.6c-3.2,-0.96667 -6.31667,-1.91667 -9.35,-2.85c-3.06667,-0.93333 -5.31667,-1.7 -6.75,-2.3c-1.46667,-0.6 -2.81667,-1.25 -4.05,-1.95c-1.26667,-0.7 -3,-1.75 -5.2,-3.15l-1.6,-6c-0.96667,-3.6 -1.63333,-6.33333 -2,-8.2c-0.5,-2.83333 -0.88333,-4.9 -1.15,-6.2l-1.1,-6.8l-14.25,-0.7c-0.53333,-1.26667 -1.31667,-3.43333 -2.35,-6.5c-1.06667,-3.1 -2.05,-8.18333 -2.95,-15.25c-0.93333,-7.06667 -1.48333,-11.38333 -1.65,-12.95c-0.16667,-1.6 -0.4,-5.76667 -0.7,-12.5c-0.3,-6.8 -0.31667,-12.26667 -0.05,-16.4c0.26667,-4.06667 0.5,-8.81667 0.7,-14.25c0.23333,-5.46667 0.58333,-10.46667 1.05,-15c0.46667,-4.56667 1.4,-9.96667 2.8,-16.2c1.43333,-6.16667 2.58333,-10.3 3.45,-12.4c0.86667,-2.1 2.13333,-3.91667 3.8,-5.45c1.7,-1.6 3.16667,-2.48333 4.4,-2.65c1.3,-0.23333 2.2,-0.35 2.7,-0.35c0.6,-0.06667 1.01667,-0.11667 1.25,-0.15l10,-1.3c0.66667,-2.5 1.76667,-6.61667 3.3,-12.35c1.46667,-5.7 4,-11.38333 7.6,-17.05c3.63333,-5.7 7.11667,-9.56667 10.45,-11.6c3.36667,-2 6.2,-3.36667 8.5,-4.1c2.3,-0.76667 7.01667,-1.51667 14.15,-2.25c7.2,-0.73333 15.86667,-1.08333 26,-1.05c10.13333,0 19.63333,-0.01667 28.5,-0.05c8.86667,0 20.2,0.81667 34,2.45c13.86667,1.6 25.41667,3.48333 34.65,5.65c9.3,2.13333 16.55,4.13333 21.75,6c5.26667,1.83333 11.15,4.23333 17.65,7.2c6.53333,2.93333 12.51667,7.26667 17.95,13M622.75,266.55c-2.3,-1.3 -8.85,-3.28333 -19.65,-5.95c-12.1,-3 -22.96667,-5.1 -32.6,-6.3c-9.06667,-1.16667 -21.51667,-1.93333 -37.35,-2.3c-1.33333,-0.06667 -14.01667,-0.25 -38.05,-0.55c-9.93333,-0.13333 -16.7,0.08333 -20.3,0.65c-2.03333,0.33333 -3.88333,1.06667 -5.55,2.2c-1.03333,0.7 -2.03333,2.05 -3,4.05c-0.33333,0.63333 -0.61667,1.2 -0.85,1.7c0,0.63333 -0.68333,4.28333 -2.05,10.95c-1.6,7.46667 -2.73333,17.11667 -3.4,28.95c-0.63333,10.4 -0.76667,19.45 -0.4,27.15c0.26667,5.73333 1.16667,12.48333 2.7,20.25c0.8,3.83333 1.55,7.13333 2.25,9.9l14.7,-0.55c0.36667,-1.53333 0.91667,-3.63333 1.65,-6.3c0.8,-2.76667 1.31667,-4.5 1.55,-5.2c0.06667,-0.03333 0.13333,-0.08333 0.2,-0.15l0.9,-0.15c3.33333,0.03333 6.76667,0.05 10.3,0.05c7,0.03333 10.86667,0.08333 11.6,0.15c0.7,0.1 1.16667,0.3 1.4,0.6l0.2,0.4l2.95,10.05l92.6,6.6c-0.4,3.9 1.33333,-0.88333 5.2,-14.35c3.86667,-13.53333 6.4,-24.05 7.6,-31.55c1.23333,-7.53333 2.75,-17.18333 4.55,-28.95c1.8,-11.83333 2.75,-18.95 2.85,-21.35M490.9,392.85c16.36667,9.76667 43.3,13.28333 80.8,10.55c2.2,-3.1 4.61667,-7.85 7.25,-14.25c2.43333,-5.9 3.68333,-9.41667 3.75,-10.55c0.06667,-0.73333 -0.4,-1.25 -1.4,-1.55c-0.56667,-0.16667 -1.11667,-0.26667 -1.65,-0.3l-46.4,-3.2c-5.16667,-0.33333 -10.26667,-0.88333 -15.3,-1.65c-5,-0.8 -8.21667,-1.43333 -9.65,-1.9c-1.5,-0.53333 -2.5,-1.63333 -3,-3.3l-2.4,-7.65c-5.5,0.43333 -8.5,0.71667 -9,0.85c-0.73333,2.03333 -1.46667,6.1 -2.2,12.2l-5.15,0.25c0.73333,6.83333 2.18333,13.66667 4.35,20.5z" fill="#000000"/><path d="M491.7,372.1c0.73333,-6.1 1.46667,-10.16667 2.2,-12.2c0.5,-0.13333 3.5,-0.41667 9,-0.85l2.4,7.65c0.5,1.66667 1.5,2.76667 3,3.3c1.43333,0.46667 4.65,1.1 9.65,1.9c5.03333,0.76667 10.13333,1.31667 15.3,1.65l46.4,3.2c0.53333,0.03333 1.08333,0.13333 1.65,0.3c1,0.3 1.46667,0.81667 1.4,1.55c-0.06667,1.13333 -1.31667,4.65 -3.75,10.55c-2.63333,6.4 -5.05,11.15 -7.25,14.25c-37.5,2.73333 -64.43333,-0.78333 -80.8,-10.55c-2.16667,-6.83333 -3.61667,-13.66667 -4.35,-20.5l5.15,-0.25M615.35,316.85c-1.2,7.5 -3.73333,18.01667 -7.6,31.55c-3.86667,13.46667 -5.6,18.25 -5.2,14.35l-92.6,-6.6l-2.95,-10.05l-0.2,-0.4c-0.23333,-0.3 -0.7,-0.5 -1.4,-0.6c-0.73333,-0.06667 -4.6,-0.11667 -11.6,-0.15c-3.53333,0 -6.96667,-0.01667 -10.3,-0.05l-0.9,0.15c-0.06667,0.06667 -0.13333,0.11667 -0.2,0.15c-0.23333,0.7 -0.75,2.43333 -1.55,5.2c-0.73333,2.66667 -1.28333,4.76667 -1.65,6.3l-14.7,0.55c-0.7,-2.76667 -1.45,-6.06667 -2.25,-9.9c-1.53333,-7.76667 -2.43333,-14.51667 -2.7,-20.25c-0.36667,-7.7 -0.23333,-16.75 0.4,-27.15c0.66667,-11.83333 1.8,-21.48333 3.4,-28.95c1.36667,-6.66667 2.05,-10.31667 2.05,-10.95c0.23333,-0.5 0.51667,-1.06667 0.85,-1.7c0.96667,-2 1.96667,-3.35 3,-4.05c1.66667,-1.13333 3.51667,-1.86667 5.55,-2.2c3.6,-0.56667 10.36667,-0.78333 20.3,-0.65c24.03333,0.3 36.71667,0.48333 38.05,0.55c15.83333,0.36667 28.28333,1.13333 37.35,2.3c9.63333,1.2 20.5,3.3 32.6,6.3c10.8,2.66667 17.35,4.65 19.65,5.95c-0.1,2.4 -1.05,9.51667 -2.85,21.35c-1.8,11.76667 -3.31667,21.41667 -4.55,28.95z" fill="#ffffff"/><path d="M505,376.8c0.79896,0.16667 3.54896,0.13333 8.25,-0.1c4.73607,-0.23477 9.48607,-0.8181 14.25,-1.75c3.48828,-0.67565 5.92161,-1.17565 7.3,-1.5c0.05625,-0.01029 0.67292,-0.19362 1.85,-0.55c1.18477,-0.36172 1.98477,-0.61172 2.4,-0.75c0.40794,-0.14193 1.05794,-0.40859 1.95,-0.8c0.89258,-0.35039 6.72591,-2.46706 17.5,-6.35c0.42005,0.85326 0.73672,4.18659 0.95,10c0.23333,6.9 -0.08333,17.73333 -0.95,32.5c-4.93164,3.37292 -12.98164,4.55625 -24.15,3.55c-11.12799,-0.97214 -18.62799,-2.9888 -22.5,-6.05l-10.2,-25.1c-0.86667,-2.03333 -1.28333,-3.46667 -1.25,-4.3c0.03333,-0.66667 0.55,-0.88333 1.55,-0.65c1.03333,0.23333 2.05,0.85 3.05,1.85M518.5,390.7c3.85299,-0.00846 8.48633,-0.3418 13.9,-1c9.24453,-1.6625 16.22786,-3.77917 20.95,-6.35l-1.1,-10.95c-4.84831,3.23346 -11.38164,5.68346 -19.6,7.35c-8.21927,1.66302 -14.26927,2.06302 -18.15,1.2l4,9.75M542.7,391c-4.03307,0.4332 -6.78307,1.76654 -8.25,4l7.55,0.55c5.3,0.5 8.63333,1.03333 10,1.6c0.51888,-0.73138 0.90221,-1.71471 1.15,-2.95c0.24779,-1.20078 -0.26888,-2.08411 -1.55,-2.65c-1.86745,-0.79961 -4.83411,-0.98294 -8.9,-0.55M537.85,401.2c-10.2,-0.93333 -15.61667,-1.36667 -16.25,-1.3c-0.16667,0.53333 -0.56667,1.73333 -1.2,3.6c1.52331,1.3263 5.73997,2.30964 12.65,2.95c6.91484,0.6681 13.48151,0.55143 19.7,-0.35c0.1,-0.46667 0.16667,-1.18333 0.2,-2.15v-1.35c-4.96667,-0.46667 -10,-0.93333 -15.1,-1.4z" fill="#000000"/><path d="M552.95,403.95c-0.03333,0.96667 -0.1,1.68333 -0.2,2.15c-6.21849,0.90143 -12.78516,1.0181 -19.7,0.35c-6.91003,-0.64036 -11.12669,-1.6237 -12.65,-2.95c0.63333,-1.86667 1.03333,-3.06667 1.2,-3.6c0.63333,-0.06667 6.05,0.36667 16.25,1.3c5.1,0.46667 10.13333,0.93333 15.1,1.4v1.35M532.65,379.75c8.21836,-1.66654 14.75169,-4.11654 19.6,-7.35l1.1,10.95c-4.72214,2.57083 -11.70547,4.6875 -20.95,6.35c-5.41367,0.6582 -10.04701,0.99154 -13.9,1l-4,-9.75c3.88073,0.86302 9.93073,0.46302 18.15,-1.2z" fill="#ffffff"/><path d="M553.15,394.2c-0.24779,1.23529 -0.63112,2.21862 -1.15,2.95c-1.36667,-0.56667 -4.7,-1.1 -10,-1.6l-7.55,-0.55c1.46693,-2.23346 4.21693,-3.5668 8.25,-4c4.06589,-0.43294 7.03255,-0.24961 8.9,0.55c1.28112,0.56589 1.79779,1.44922 1.55,2.65z" fill="#f3769b"/><path d="M722.69778,449.7993c-1.05381,5.82758 -3.59617,11.02911 -7.62708,15.60458c-0.01922,0.04304 -0.01692,0.09569 0.0069,0.15795c-8.08381,4.0561 -14.87382,5.24405 -20.37004,3.56385c-0.04304,-0.01922 -0.11126,-0.01097 -0.20465,0.02476c-7.72623,-8.53549 -15.76731,-16.30816 -24.12325,-23.31801c-6.25322,-5.2448 -12.70962,-9.94794 -19.3692,-14.10942c-4.5562,1.2434 -8.91099,2.26701 -13.06437,3.07081c-1.78826,0.36293 -3.53849,0.87191 -5.25069,1.52693c-6.79628,-10.6756 -13.46439,-21.43593 -20.00431,-32.28098c-0.87565,-1.44936 -1.74807,-2.70369 -2.61724,-3.76297c5.47962,-9.09095 12.57691,-17.49819 21.29187,-25.2217c1.49324,-1.32068 3.50066,-2.46336 6.02227,-3.42803c11.35178,0.47501 21.92508,2.69317 31.71992,6.65446c2.23351,0.89422 4.3613,2.02515 6.38337,3.39281c1.35186,6.79868 1.54163,13.07839 0.5693,18.83911c-0.00731,0.07417 0.00094,0.14239 0.02476,0.20465c8.83376,6.11331 17.38516,12.8878 25.65418,20.32346c2.5277,2.31621 5.13092,4.55 7.80968,6.70137c4.04791,3.30487 7.39464,7.9486 10.04021,13.93118c1.31087,2.96016 2.347,5.66855 3.10838,8.12519z" fill-opacity="0.99608" fill="#000000"/><path d="M469.4426,453.85086c1.14005,1.14048 2.01147,2.33132 2.61425,3.57253c1.94128,3.90338 3.68845,7.85761 5.2415,11.86272c3.83882,9.87832 5.02628,20.59587 3.56238,32.15266c-0.48337,0.9507 -0.97428,1.91625 -1.47276,2.89666c-0.04532,0.08913 -0.08308,0.1634 -0.11329,0.22282c-4.78757,2.6508 -9.72823,4.79378 -14.82198,6.42895c-0.07452,-0.0005 -0.1415,-0.01586 -0.20091,-0.04607c-1.46255,6.92121 -4.16984,13.86386 -8.12189,20.82795c-1.55383,2.76197 -3.53293,4.48515 -5.93731,5.16954c-5.19699,1.47051 -11.07206,0.7081 -17.62523,-2.28723c-2.31833,-1.02916 -4.09839,-2.30809 -5.34017,-3.83679c-3.26237,1.93068 -6.737,3.28608 -10.42389,4.06619c-0.04481,0.0146 -0.08233,0.05162 -0.11254,0.11103c-2.95961,5.67399 -6.19896,10.83186 -9.71804,15.47361c-1.33885,1.82437 -2.98614,2.96847 -4.94188,3.4323c-6.43468,1.55163 -13.51975,1.18353 -21.25521,-1.10429c-3.03486,-0.87001 -6.09869,-1.86692 -9.19147,-2.99071c-6.86938,-2.52049 -13.10734,-5.84162 -18.7139,-9.96341c-4.40508,-3.24919 -7.94383,-6.76831 -10.61624,-10.55736c-2.37682,-3.41442 -3.29768,-7.22896 -2.76256,-11.44361c0.12535,-0.90839 0.2633,-1.47387 0.41385,-1.69644c0.05942,0.03021 0.12639,0.04557 0.20091,0.04607c2.26743,-0.26796 4.54947,-0.49111 6.84611,-0.66944c-0.04532,0.08913 -0.09793,0.15585 -0.15785,0.20016c-0.97783,1.33492 -1.56843,2.71715 -1.77182,4.14671c1.89103,6.94375 7.06132,12.76928 15.51088,17.47659c10.03826,5.62722 19.40523,9.11845 28.10091,10.47368c0.86358,0.13995 1.61512,0.31642 2.25462,0.5294c3.30125,1.15501 6.06744,0.97238 8.29857,-0.54788c2.35047,-1.53437 4.5481,-3.61381 6.59289,-6.23833c2.15002,-2.75796 3.66809,-5.74375 4.55421,-8.95738c-1.96633,-0.17718 -3.8823,-0.08572 -5.7479,0.27437c-2.94015,0.56155 -5.9035,0.13918 -8.89004,-1.26711c4.13053,-0.25544 8.20264,-0.69013 12.21634,-1.30408c2.35756,-0.37169 4.64915,-0.90779 6.87478,-1.60829c2.04636,-0.64208 4.08518,-1.26931 6.11644,-1.88169c5.49658,-1.69208 9.09699,-6.2364 10.80122,-13.63296c-0.08913,-0.04532 -0.1634,-0.08308 -0.22282,-0.11329c-2.70205,-1.59814 -5.03978,-3.06714 -7.0132,-4.40699c0.05942,0.03021 0.13369,0.06797 0.22282,0.11329c5.08982,1.16703 9.93137,1.57222 14.52465,1.21555c0.03021,-0.05942 0.07528,-0.11128 0.1352,-0.1556c4.94463,-3.84218 9.40732,-9.16324 13.38808,-15.96318c0.03021,-0.05942 0.06797,-0.13369 0.11329,-0.22282c0.36252,-0.71302 0.8862,-1.00761 1.57101,-0.88377c-0.04532,0.08913 -0.08308,0.1634 -0.11329,0.22282c0.1144,2.93714 -0.53329,6.15982 -1.94308,9.66803c-0.8494,2.18539 -1.85339,4.08654 -3.01198,5.70345c-1.62485,2.2398 -2.77889,4.289 -3.46213,6.14759c-0.04532,0.08913 -0.09793,0.15585 -0.15785,0.20016c-1.68026,1.6134 -3.71857,2.1661 -6.11493,1.65811c-0.04532,0.08913 -0.09038,0.14099 -0.1352,0.1556c-0.71703,0.23367 -1.41971,0.54941 -2.10804,0.94723c-0.04532,0.08913 -0.08308,0.1634 -0.11329,0.22282c-1.12329,3.01826 -2.40849,5.72986 -3.85558,8.13482c-0.04532,0.08913 -0.06067,0.1561 -0.04607,0.20091c0.54186,1.43457 1.44223,2.7523 2.70112,3.9532c1.75636,0.36954 3.54293,0.67966 5.35971,0.93036c5.25648,0.7657 9.40229,-1.76271 12.43743,-7.58525c0.93602,-1.76746 1.49917,-3.50016 1.68945,-5.1981c0.53762,-4.58727 2.33385,-9.03938 5.38868,-13.35633c1.04684,-0.51465 2.14505,-0.90972 3.29462,-1.18519c3.17983,-0.7388 6.33775,-1.54482 9.47377,-2.41807c0.03021,-0.05942 0.06797,-0.13369 0.11329,-0.22282c0.3026,-0.66871 0.64247,-1.33717 1.0196,-2.00538c0.62753,-11.30902 -1.06045,-21.85108 -5.06392,-31.62616c-1.43722,-3.49754 -2.78482,-7.02429 -4.04278,-10.58024c1.16969,-1.05042 2.36078,-1.9591 3.57328,-2.72604c0.04481,-0.0146 0.08988,-0.06647 0.1352,-0.1556z" fill-opacity="0.99608" fill="#2b2c3f"/><path d="M392.66673,383.68897c0.03021,-0.05942 0.08283,-0.12614 0.15785,-0.20016c0.76535,-0.76994 1.38997,-1.66752 1.87383,-2.69274c2.45871,-2.11495 4.82175,-4.40941 7.0891,-6.88338c3.97933,-4.37036 8.34516,-7.47861 13.09751,-9.32475c9.86271,-3.73459 20.76257,-4.32461 32.69957,-1.77005c2.03685,0.77387 4.11775,1.64492 6.24273,2.61316c6.74653,3.05626 12.05145,6.5947 15.91474,10.61534c8.12641,8.4315 12.929,17.95856 14.40776,28.58119c1.49386,10.59292 -0.24648,22.25219 -5.22102,34.97782c-2.97322,5.48013 -6.17985,10.20596 -9.6199,14.17749l0.13369,0.06797c-0.04532,0.08913 -0.09038,0.14099 -0.1352,0.1556c-1.2125,0.76693 -2.40359,1.67561 -3.57328,2.72604c1.25796,3.55596 2.60556,7.0827 4.04278,10.58024c4.00348,9.77508 5.69145,20.31714 5.06392,31.62616c-0.37713,0.66821 -0.717,1.33667 -1.0196,2.00538c-0.04532,0.08913 -0.08308,0.1634 -0.11329,0.22282c-3.13602,0.87325 -6.29394,1.67927 -9.47377,2.41807c-1.14957,0.27548 -2.24778,0.67054 -3.29462,1.18519c-3.05483,4.31695 -4.85106,8.76906 -5.38868,13.35633c-0.19028,1.69794 -0.75343,3.43064 -1.68945,5.1981c-3.03514,5.82254 -7.18095,8.35095 -12.43743,7.58525c-1.81678,-0.2507 -3.60335,-0.56082 -5.35971,-0.93036c-1.25889,-1.2009 -2.15927,-2.51863 -2.70112,-3.9532c-0.0146,-0.04481 0.00075,-0.11179 0.04607,-0.20091c1.44709,-2.40496 2.73228,-5.11656 3.85558,-8.13482c0.03021,-0.05942 0.06797,-0.13369 0.11329,-0.22282c0.68833,-0.39782 1.391,-0.71356 2.10804,-0.94723c0.04481,-0.0146 0.08988,-0.06647 0.1352,-0.1556c2.39636,0.50799 4.43467,-0.04471 6.11493,-1.65811c0.05992,-0.04431 0.11254,-0.11103 0.15785,-0.20016c0.68324,-1.85859 1.83728,-3.90778 3.46213,-6.14759c1.15859,-1.61691 2.16258,-3.51806 3.01198,-5.70345c1.40979,-3.50821 2.05749,-6.73089 1.94308,-9.66803c0.03021,-0.05942 0.06797,-0.13369 0.11329,-0.22282c-0.68482,-0.12385 -1.20849,0.17074 -1.57101,0.88377c-0.04532,0.08913 -0.08308,0.1634 -0.11329,0.22282c-3.98075,6.79994 -8.44345,12.121 -13.38808,15.96318c-0.05992,0.04431 -0.10498,0.09618 -0.1352,0.1556c-4.59328,0.35666 -9.43483,-0.04852 -14.52465,-1.21555c-0.08913,-0.04532 -0.1634,-0.08308 -0.22282,-0.11329c1.97342,1.33985 4.31115,2.80885 7.0132,4.40699c0.05942,0.03021 0.13369,0.06797 0.22282,0.11329c-1.70423,7.39656 -5.30464,11.94087 -10.80122,13.63296c-2.03126,0.61237 -4.07007,1.2396 -6.11644,1.88169c-2.22562,0.7005 -4.51721,1.2366 -6.87478,1.60829c-4.0137,0.61395 -8.08581,1.04865 -12.21634,1.30408c2.98654,1.40629 5.94989,1.82865 8.89004,1.26711c1.8656,-0.36009 3.78157,-0.45155 5.7479,-0.27437c-0.88612,3.21362 -2.40419,6.19941 -4.55421,8.95738c-2.04479,2.62452 -4.24242,4.70396 -6.59289,6.23833c-2.23113,1.52026 -4.99732,1.70289 -8.29857,0.54788c-0.6395,-0.21298 -1.39104,-0.38944 -2.25462,-0.5294c-8.69568,-1.35523 -18.06265,-4.84646 -28.10091,-10.47368c-8.44956,-4.70731 -13.61986,-10.53284 -15.51088,-17.47659c0.20338,-1.42956 0.79399,-2.81179 1.77182,-4.14671c0.05992,-0.04431 0.11254,-0.11103 0.15785,-0.20016c-2.29664,0.17833 -4.57867,0.40148 -6.84611,0.66944c-0.07452,-0.0005 -0.1415,-0.01586 -0.20091,-0.04607c0.03021,-0.05942 0.06797,-0.13369 0.11329,-0.22282c2.09253,-5.29228 4.81021,-10.45365 8.15304,-15.48413c-1.23384,-4.9271 -1.94476,-10.03699 -2.13276,-15.3297c-0.0146,-0.04481 -0.05162,-0.08233 -0.11103,-0.11254c4.15951,-6.78383 8.61841,-12.64897 13.37669,-17.5954c0.05992,-0.04431 0.11254,-0.11103 0.15785,-0.20016c0.67234,-11.32363 1.08335,-22.57449 1.23302,-33.75257c0.06586,-3.14461 0.73671,-6.48637 2.01256,-10.0253c0.12134,-0.3122 0.25754,-0.61685 0.40859,-0.91394c7.27549,-4.67612 15.1573,-7.5297 23.64544,-8.56073c0.02971,0.01511 0.06722,-0.02191 0.11254,-0.11103c0.05711,-8.49573 1.53344,-17.46634 4.42897,-26.91184c0.03021,-0.05942 0.06797,-0.13369 0.11329,-0.22282c-0.14203,-1.04434 0.22199,-1.98093 1.09208,-2.80979c0.05992,-0.04431 0.11254,-0.11103 0.15785,-0.20016M398.68664,386.18884c-0.04532,0.08913 -0.08308,0.1634 -0.11329,0.22282c-0.2134,2.92004 -0.12065,5.7527 0.27824,8.49798c-0.01511,0.02971 0.02191,0.06722 0.11103,0.11254c-0.2759,1.13096 -0.36499,2.18865 -0.26727,3.17307c0.15313,1.61082 0.64258,1.97184 1.46836,1.08306c0.03021,-0.05942 0.06797,-0.13369 0.11329,-0.22282c3.95012,-4.45999 8.00222,-8.56901 12.15629,-12.32707c-1.10441,-4.22567 -1.48423,-8.69986 -1.13947,-13.42257c-0.0146,-0.04481 -0.05162,-0.08233 -0.11103,-0.11254c-4.88879,2.18805 -9.05418,6.51989 -12.49616,12.99553M435.34572,367.47554c-0.07452,-0.0005 -0.1415,-0.01586 -0.20091,-0.04607c0.16172,2.54992 0.34585,5.09254 0.55239,7.62786c-0.0005,0.07452 -0.01586,0.1415 -0.04607,0.20091c4.84907,-0.71267 9.88093,-0.90243 15.0956,-0.56926c0.02971,0.01511 0.06722,-0.02191 0.11254,-0.11103c-3.29173,-2.57096 -7.33775,-4.90851 -12.13807,-7.01264c-0.08913,-0.04532 -0.1634,-0.08308 -0.22282,-0.11329c-1.07304,-0.02212 -2.12393,-0.01428 -3.15266,0.02352M431.12051,367.40242c-0.0146,-0.04481 -0.05162,-0.08233 -0.11103,-0.11254c-5.32141,0.02385 -10.31422,1.05602 -14.97844,3.09653c-0.05992,0.04431 -0.10498,0.09618 -0.1352,0.1556c-0.04932,0.68532 -0.21093,1.44441 -0.48483,2.27728l0.13369,0.06797c-0.04532,0.08913 -0.08308,0.1634 -0.11329,0.22282c-0.04532,0.08913 -0.06822,0.17095 -0.06872,0.24548c-0.84732,4.0933 -0.85071,7.92399 -0.01018,11.49204c0.03021,-0.05942 0.07528,-0.11128 0.1352,-0.1556c5.04686,-3.52848 10.34929,-6.2727 15.9073,-8.23267c-0.75641,-2.7775 -0.84791,-5.79647 -0.27449,-9.05691M453.84645,372.56343c-0.04481,0.0146 0.02871,0.16415 0.22057,0.44865c0.58918,1.04734 1.34652,1.46979 2.27202,1.26733c-0.25887,-1.40285 -1.08973,-1.97485 -2.49258,-1.71598M446.02542,378.56992c-0.04532,0.08913 -0.08283,0.12614 -0.11254,0.11103c-3.17632,0.21713 -6.27207,0.64349 -9.28725,1.27906c-0.04532,0.08913 -0.06067,0.1561 -0.04607,0.20091c0.85714,3.31477 2.22964,6.4616 4.11752,9.44048c0.05942,0.03021 1.36255,-0.91498 3.90939,-2.83557c2.56194,-1.9503 4.65914,-3.50127 6.29157,-4.65292l1.3701,-0.92983c-0.86157,-0.43805 -1.77551,-0.84664 -2.74182,-1.22577l-0.04532,0.08913c-0.08913,-0.04532 -0.1634,-0.08308 -0.22282,-0.11329c-1.10025,-0.40984 -2.17784,-0.86425 -3.23277,-1.36322M432.4843,380.71471c-0.0146,-0.04481 -0.05162,-0.08233 -0.11103,-0.11254c-5.61392,1.40809 -10.84083,4.00376 -15.68072,7.78702c-0.05992,0.04431 -0.10498,0.09618 -0.1352,0.1556c0.54659,7.38188 3.34147,14.01869 8.38462,19.91044c0.04431,0.05992 0.11103,0.11254 0.20016,0.15785c4.03116,-5.4283 8.15144,-10.81128 12.36085,-16.14895c0.05992,-0.04431 0.11254,-0.11103 0.15785,-0.20016c-2.43524,-3.59368 -4.16075,-7.44344 -5.17653,-11.54927M441.32046,396.64843c-2.429,2.13006 -4.69661,4.64129 -6.80282,7.53369c-2.15152,2.98153 -4.3174,5.88099 -6.49763,8.69837c4.03253,5.4527 10.06007,10.14372 18.0826,14.07307c1.15867,0.5891 2.33294,1.07397 3.52281,1.45461c1.35353,0.42645 2.3193,-0.2229 2.8973,-1.94804c2.74506,-7.01692 4.59383,-13.74176 5.54631,-20.17452c0.0005,-0.07452 0.02341,-0.15635 0.06872,-0.24548c-6.63471,-1.9525 -12.17375,-5.03045 -16.61713,-9.23385c-0.07402,-0.07502 -0.14074,-0.12764 -0.20016,-0.15785M443.9594,393.22301c-0.07502,0.07402 -0.12764,0.14074 -0.15785,0.20016c1.64211,1.84441 3.71801,3.4607 6.2277,4.84888c2.77707,1.52412 5.41616,2.51072 7.91726,2.95979c0.07452,0.0005 0.14955,-0.07352 0.22507,-0.22207c-0.16789,-6.06765 -1.00044,-11.93109 -2.49765,-17.59033c-0.0146,-0.04481 0.00075,-0.11179 0.04607,-0.20091c-4.04483,3.02843 -7.96503,6.36325 -11.76059,10.00448M413.17897,392.21119c-0.0146,-0.04481 -0.05162,-0.08233 -0.11103,-0.11254c-3.57958,2.55458 -6.84492,6.03541 -9.79601,10.44249c-0.04532,0.08913 -0.08308,0.1634 -0.11329,0.22282l-0.13369,-0.06797c-0.8746,1.49957 -1.77035,2.82014 -2.68726,3.96169c2.13078,8.97251 5.77016,17.47818 10.91812,25.51702c0.73722,1.19739 1.47266,1.55262 2.2063,1.06567c0.64544,-2.88732 1.40267,-5.77389 2.27168,-8.65971l0.13369,0.06797l0.08913,0.04532c1.46821,-3.32895 3.21211,-6.6486 5.23169,-9.95894l0.08913,0.04532c0.39073,-0.47435 0.69964,-0.9716 0.92671,-1.49177c-0.22157,-0.2996 -0.45069,-0.58434 -0.68736,-0.85423c-0.07402,-0.07502 -0.14074,-0.12764 -0.20016,-0.15785c0.03021,-0.05942 0.06797,-0.13369 0.11329,-0.22282c-4.47567,-6.05189 -7.22598,-12.66605 -8.25093,-19.84246M394.63511,406.84293c0.34592,-0.45974 0.72104,-0.82986 1.12537,-1.11034c-0.57006,-1.67324 -0.93091,-3.42706 -1.08254,-5.26145c-0.0146,-0.04481 -0.05162,-0.08233 -0.11103,-0.11254c-0.60063,2.87272 -0.65317,5.14544 -0.15763,6.81819l0.22583,-0.33385M397.50171,412.78712c-0.86808,0.53076 -1.44888,1.56279 -1.74239,3.09607c-0.30711,1.33943 -0.67289,2.53686 -1.09734,3.59229c0.85135,10.82709 5.66099,20.41382 14.42891,28.7602c0.59268,0.52568 1.22463,0.75351 1.89585,0.68349c0.08963,-0.02921 0.17221,-0.11809 0.24773,-0.26663c-0.17583,-2.66926 0.04413,-5.4551 0.65986,-8.35753c0.0005,-0.07452 0.02341,-0.15635 0.06872,-0.24548c-3.11605,-4.31372 -6.00803,-8.70046 -8.67594,-13.16022c-2.66791,-4.45976 -4.59637,-9.16049 -5.7854,-14.10219M425.86076,418.12015c-0.05942,-0.03021 -0.13394,-0.03071 -0.22357,-0.0015c-1.215,1.13955 -2.20994,2.80228 -2.98481,4.98817c-0.69835,1.8883 -1.29196,3.71768 -1.78083,5.48814c-0.04532,0.08913 -0.08308,0.1634 -0.11329,0.22282c-1.49892,3.4629 -2.52729,6.77245 -3.0851,9.92865c1.59629,2.00806 3.43326,3.68982 5.51091,5.04528c4.52642,2.93699 9.33379,5.10079 14.42211,6.4914c0.03021,-0.05942 0.08283,-0.12614 0.15785,-0.20016c3.48136,-3.46447 6.73685,-7.6981 9.76648,-12.70087c0.15656,-1.11686 0.55835,-2.12773 1.20537,-3.03261c0.05992,-0.04431 0.11254,-0.11103 0.15785,-0.20016c0.03021,-0.05942 0.06797,-0.13369 0.11329,-0.22282c0.31571,-0.40033 0.61656,-0.8082 0.90255,-1.22363c-6.10545,-0.86084 -11.6324,-3.52136 -16.58083,-7.98155c-2.39995,-2.19233 -4.88927,-4.39272 -7.46797,-6.60115M413.7467,450.7711c-0.01561,0.10423 -0.03851,0.18606 -0.06872,0.24548c5.07579,3.2537 10.13039,5.22539 15.1638,5.91507c0.02971,0.01511 0.06722,-0.02191 0.11254,-0.11103c1.57001,-0.73472 3.01539,-1.77584 4.33613,-3.12335c0.05992,-0.04431 0.11254,-0.11103 0.15785,-0.20016c-6.97612,-2.16347 -12.73673,-5.54102 -17.28184,-10.13265c-0.07402,-0.07502 -0.14074,-0.12764 -0.20016,-0.15785c-1.07598,2.63103 -1.81584,5.15253 -2.2196,7.5645M387.51016,425.71006c-0.04431,-0.05992 -0.09618,-0.10498 -0.1556,-0.1352c-1.39912,6.35523 -1.15496,12.16254 0.73249,17.42195c0.0146,0.04481 0.06647,0.08988 0.1556,0.1352c-0.04532,0.08913 -0.06822,0.17095 -0.06872,0.24548c0.0126,0.34291 0.10728,0.67147 0.28403,0.98567c-0.04532,0.08913 -0.05312,0.14124 -0.02341,0.15635c0.80924,1.57051 1.58878,3.12592 2.3386,4.66622c-0.04532,0.08913 -0.05312,0.14124 -0.02341,0.15635c0.9865,1.81019 1.91332,3.62744 2.78048,5.45173c0.05942,0.03021 0.11128,0.07528 0.1556,0.1352c2.12813,4.93311 6.44462,9.16547 12.94947,12.69707c1.67783,0.96523 3.22372,1.60165 4.63767,1.90927c1.5776,0.35343 3.08043,0.74362 4.50848,1.17058c8.44949,2.5013 15.90463,2.14152 22.36544,-1.07935c-0.88477,-1.42197 -2.26071,-1.84112 -4.12781,-1.25745c-0.38823,0.10173 -0.79861,0.1735 -1.23115,0.21531c-1.22309,0.12593 -2.45299,0.15492 -3.68969,0.08699c-4.46242,-1.37149 -8.93114,-2.91444 -13.40615,-4.62884c-1.78407,-0.68274 -3.52281,-1.45461 -5.21625,-2.3156c-4.27665,-2.39872 -7.59733,-5.09657 -9.96206,-8.09356c-0.04431,-0.05992 -0.09618,-0.10498 -0.1556,-0.1352c-0.57608,-0.77896 -1.24958,-1.47659 -2.02053,-2.09289c-0.07402,-0.07502 -0.14074,-0.12764 -0.20016,-0.15785c0.03021,-0.05942 0.06797,-0.13369 0.11329,-0.22282c-0.30969,-0.49396 -0.61209,-0.96552 -0.90718,-1.41466c-0.02971,-0.01511 -0.02191,-0.06722 0.02341,-0.15635c0.03021,-0.05942 0.06797,-0.13369 0.11329,-0.22282c-1.21207,-1.5136 -2.19252,-3.11507 -2.94134,-4.80443c-0.04431,-0.05992 -0.09618,-0.10498 -0.1556,-0.1352c0.03021,-0.05942 0.06797,-0.13369 0.11329,-0.22282c-0.77903,-1.62993 -1.46113,-3.26667 -2.0463,-4.9102c-0.04431,-0.05992 -0.09618,-0.10498 -0.1556,-0.1352c0.03021,-0.05942 0.06797,-0.13369 0.11329,-0.22282c-1.77462,-4.3047 -3.40725,-8.66807 -4.89788,-13.09011M462.44206,377.71889c-0.07402,-0.07502 -0.14074,-0.12764 -0.20016,-0.15785c-1.04942,-1.31874 -2.18568,-1.91514 -3.40877,-1.78921c-0.07452,-0.0005 -0.09013,0.10373 -0.04682,0.3127c-0.14196,1.16167 0.45828,1.67249 1.80071,1.53246c0.04481,-0.0146 0.11179,0.00075 0.20091,0.04607c0.05942,0.03021 0.13369,0.06797 0.22282,0.11329c1.45526,0.81468 2.90422,1.4579 4.34687,1.92967c-1.14356,-0.61881 -2.11541,-1.28119 -2.91556,-1.98712M461.53736,382.58689c-0.22207,-0.22507 -0.4819,-0.37588 -0.7795,-0.4524c0.24091,6.29172 0.39748,12.93316 0.46973,19.9243c-0.0005,0.07452 -0.01586,0.1415 -0.04607,0.20091c3.55252,1.46971 6.97307,1.50761 10.26164,0.1137c0.04481,-0.0146 0.08988,-0.06647 0.1352,-0.1556c-0.91921,-7.38438 -4.26621,-13.92802 -10.041,-19.63092M470.1873,386.31178c0.0146,0.04481 0.03676,0.07477 0.06647,0.08988c0.14704,0.2991 0.42603,0.927 0.83695,1.88371c0.05892,0.10473 0.12514,0.23188 0.19866,0.38142c0.82234,1.8389 1.61952,4.09498 2.39154,6.76825c0.83043,2.85253 1.28266,4.3163 1.35669,4.39133c0.47335,0.53978 0.9303,0.19257 1.37085,-1.04162c0.03021,-0.05942 0.06797,-0.13369 0.11329,-0.22282c-1.37279,-4.21257 -2.86288,-7.60612 -4.47027,-10.18067c-0.72262,-1.15258 -1.21662,-1.94589 -1.482,-2.37993c-0.08863,-0.11984 -0.19211,-0.24723 -0.31045,-0.38218c-0.93109,-1.18379 -0.955,-0.95292 -0.07173,0.69262M477.17529,404.44653c-0.0146,-0.04481 -0.09643,-0.06772 -0.24548,-0.06872c-0.80716,0.3374 -1.30238,0.8334 -1.48564,1.48801l0.13369,0.06797c-0.04532,0.08913 -0.06067,0.1561 -0.04607,0.20091c0.02821,0.23868 0.07882,0.47005 0.15184,0.69412c-0.04532,0.08913 -0.08308,0.1634 -0.11329,0.22282c-0.04532,0.08913 -0.06067,0.1561 -0.04607,0.20091c0.43627,6.05455 0.44681,12.24784 0.0316,18.57987c0.03021,-0.05942 0.08283,-0.12614 0.15785,-0.20016c0.82477,-0.73973 1.56267,-1.86013 2.2137,-3.3612c0.75962,-6.5682 0.5089,-12.50971 -0.75214,-17.82453M472.10874,406.46943c-0.0146,-0.04481 -0.05162,-0.08233 -0.11103,-0.11254c-3.4024,0.58825 -7.01681,0.56395 -10.84323,-0.0729c-0.04481,0.0146 -0.08233,0.05162 -0.11254,0.11103c-0.32808,6.67544 -2.24933,14.20469 -5.76375,22.58774l0.13369,0.06797c2.14308,0.49138 4.16203,0.60184 6.05684,0.33137c0.04481,-0.0146 0.11179,0.00075 0.20091,0.04607c0.05942,0.03021 0.12639,0.04557 0.20091,0.04607c3.41199,0.2018 6.62683,-0.20139 9.64451,-1.20958c0.4898,-4.12552 0.96475,-8.25859 1.42485,-12.39922c-0.0146,-0.04481 -0.05162,-0.08233 -0.11103,-0.11254c0.03021,-0.05942 0.06797,-0.13369 0.11329,-0.22282c0.03021,-0.05942 0.06797,-0.13369 0.11329,-0.22282c-0.24835,-2.96786 -0.56391,-5.91381 -0.9467,-8.83785M461.89237,449.50733c0.04481,-0.0146 0.11179,0.00075 0.20091,0.04607c1.70137,-2.5374 3.35919,-5.2465 4.97344,-8.1273c0.03021,-0.05942 0.06797,-0.13369 0.11329,-0.22282c1.18271,-2.98805 2.20858,-5.92498 3.07759,-8.81079c0.03021,-0.05942 0.06797,-0.13369 0.11329,-0.22282c-5.07815,1.53093 -10.52165,1.97877 -16.33051,1.3435c-0.04481,0.0146 -0.08233,0.05162 -0.11254,0.11103c-2.8891,6.27068 -6.43005,11.94821 -10.62285,17.0326c-0.04532,0.08913 -0.08308,0.1634 -0.11329,0.22282c6.83208,1.41723 13.06563,0.9598 18.70067,-1.37228M454.91175,470.18644c0.02971,0.01511 0.06722,-0.02191 0.11254,-0.11103c-0.96631,-0.37913 -1.15716,-0.81267 -0.57257,-1.30062c0.28499,-0.26638 0.42874,-0.58588 0.43125,-0.9585c-0.0514,-1.22259 -0.36439,-2.33515 -0.93896,-3.33768c-1.93712,-0.08755 -3.80172,0.1235 -5.5938,0.63314c-0.04481,0.0146 -0.08233,0.05162 -0.11254,0.11103c1.3113,2.27445 3.53599,3.929 6.67409,4.96367M439.83073,455.28394c-0.10423,-0.01561 -0.18606,-0.03851 -0.24548,-0.06872c-1.13898,0.91648 -2.24824,1.84807 -3.3278,2.79476c-0.07502,0.07402 -0.12764,0.14074 -0.15785,0.20016c6.18048,0.78682 11.91603,0.13228 17.20665,-1.96364c0.04481,-0.0146 0.08988,-0.06647 0.1352,-0.1556c-4.38431,0.31335 -8.92122,0.04436 -13.61071,-0.80696M420.90141,507.29598c0.02971,0.01511 0.06722,-0.02191 0.11254,-0.11103c-1.06653,-0.99093 -1.95806,-1.40682 -2.67459,-1.24768c-0.04481,0.0146 -0.08233,0.05162 -0.11254,0.11103c1.06854,0.69283 1.96007,1.10873 2.67459,1.24768M383.39512,489.06786l0.06797,-0.13369c-5.87201,-6.76184 -10.69088,-13.86687 -14.4566,-21.31511c-0.04431,-0.05992 -0.09618,-0.10498 -0.1556,-0.1352c-0.35193,1.35403 -0.34534,2.59123 0.01976,3.71159c-0.0005,0.07452 -0.01586,0.1415 -0.04607,0.20091c-1.98093,-0.22199 -3.46712,0.23754 -4.45855,1.37859c-0.02971,-0.01511 -0.07427,-0.03776 -0.13369,-0.06797c1.36871,2.60275 3.40964,4.98644 6.12279,7.15107c2.95032,2.35999 5.7624,4.21972 8.43625,5.57919c-0.06293,0.49146 0.21026,0.87338 0.81955,1.14578l-0.04532,0.08913c1.39584,0.78447 2.67234,1.58304 3.8295,2.39571z" fill="#000000"/><path d="M383.4631,488.93416l-0.06797,0.13369c-1.15716,-0.81267 -2.43366,-1.61124 -3.8295,-2.39571l0.04532,-0.08913c-0.60929,-0.27239 -0.88248,-0.65432 -0.81955,-1.14578c-2.67384,-1.35947 -5.48593,-3.2192 -8.43625,-5.57919c-2.71315,-2.16463 -4.75408,-4.54831 -6.12279,-7.15107c0.05942,0.03021 0.10398,0.05287 0.13369,0.06797c0.99143,-1.14106 2.47761,-1.60059 4.45855,-1.37859c0.03021,-0.05942 0.04557,-0.12639 0.04607,-0.20091c-0.3651,-1.12036 -0.37169,-2.35756 -0.01976,-3.71159c0.05942,0.03021 0.11128,0.07528 0.1556,0.1352c3.76573,7.44823 8.58459,14.55327 14.4566,21.31511z" fill="#2c2d40"/><path d="M421.01395,507.18494c-0.04532,0.08913 -0.08283,0.12614 -0.11254,0.11103c-0.71453,-0.13895 -1.60606,-0.55485 -2.67459,-1.24768c0.03021,-0.05942 0.06772,-0.09643 0.11254,-0.11103c0.71653,-0.15914 1.60806,0.25675 2.67459,1.24768z" fill="#353849"/><path d="M439.58525,455.21521c0.05942,0.03021 0.14124,0.05312 0.24548,0.06872c4.6895,0.85133 9.2264,1.12031 13.61071,0.80696c-0.04532,0.08913 -0.09038,0.14099 -0.1352,0.1556c-5.29062,2.09591 -11.02617,2.75046 -17.20665,1.96364c0.03021,-0.05942 0.08283,-0.12614 0.15785,-0.20016c1.07956,-0.94669 2.18882,-1.87828 3.3278,-2.79476M462.09329,449.5534c-0.08913,-0.04532 -0.1561,-0.06067 -0.20091,-0.04607c-5.63504,2.33209 -11.86859,2.78951 -18.70067,1.37228c0.03021,-0.05942 0.06797,-0.13369 0.11329,-0.22282c4.1928,-5.08439 7.73375,-10.76192 10.62285,-17.0326c0.03021,-0.05942 0.06772,-0.09643 0.11254,-0.11103c5.80886,0.63527 11.25236,0.18744 16.33051,-1.3435c-0.04532,0.08913 -0.08308,0.1634 -0.11329,0.22282c-0.86901,2.88582 -1.89487,5.82275 -3.07759,8.81079c-0.04532,0.08913 -0.08308,0.1634 -0.11329,0.22282c-1.61425,2.88081 -3.27206,5.58991 -4.97344,8.1273M472.82887,415.75292c0.05942,0.03021 0.09643,0.06772 0.11103,0.11254c-0.46009,4.14062 -0.93504,8.2737 -1.42485,12.39922c-3.01768,1.00819 -6.23252,1.41138 -9.64451,1.20958c-0.07452,-0.0005 -0.1415,-0.01586 -0.20091,-0.04607c0.03021,-0.05942 0.08283,-0.12614 0.15785,-0.20016c3.9295,-3.61052 7.59663,-8.10222 11.00138,-13.4751M476.92981,404.37781c0.14905,0.001 0.23087,0.02391 0.24548,0.06872c1.26105,5.31482 1.51176,11.25633 0.75214,17.82453c-0.65103,1.50107 -1.38893,2.62148 -2.2137,3.3612c-0.07502,0.07402 -0.12764,0.14074 -0.15785,0.20016c0.4152,-6.33203 0.40467,-12.52532 -0.0316,-18.57987c-0.0146,-0.04481 0.00075,-0.11179 0.04607,-0.20091c0.05942,0.03021 0.13369,0.06797 0.22282,0.11329c0.3122,0.12134 0.57403,-0.02595 0.78551,-0.44188c0.15756,-1.2659 -0.12342,-1.59571 -0.84296,-0.98943c-0.07502,0.07402 -0.12764,0.14074 -0.15785,0.20016l-0.13369,-0.06797c0.18327,-0.65461 0.67848,-1.15061 1.48564,-1.48801M413.67797,451.01658c0.03021,-0.05942 0.05312,-0.14124 0.06872,-0.24548c0.40376,-2.41197 1.14362,-4.93347 2.2196,-7.5645c0.05942,0.03021 0.12614,0.08283 0.20016,0.15785c4.54511,4.59163 10.30572,7.96917 17.28184,10.13265c-0.04532,0.08913 -0.09793,0.15585 -0.15785,0.20016c-1.32074,1.34752 -2.76612,2.38864 -4.33613,3.12335c-0.04532,0.08913 -0.08283,0.12614 -0.11254,0.11103c-5.03341,-0.68968 -10.08801,-2.66137 -15.1638,-5.91507M420.87154,428.59496c0.05942,0.03021 0.13369,0.06797 0.22282,0.11329c10.23112,5.76267 19.49758,7.57635 27.79937,5.44106c-0.04532,0.08913 -0.09793,0.15585 -0.15785,0.20016c-0.64702,0.90488 -1.04881,1.91575 -1.20537,3.03261c-3.02963,5.00277 -6.28512,9.2364 -9.76648,12.70087c-0.07502,0.07402 -0.12764,0.14074 -0.15785,0.20016c-5.08832,-1.3906 -9.89569,-3.5544 -14.42211,-6.4914c-2.07765,-1.35546 -3.91462,-3.03722 -5.51091,-5.04528c0.55781,-3.15621 1.58618,-6.46576 3.0851,-9.92865c0.03021,-0.05942 0.06797,-0.13369 0.11329,-0.22282M395.75931,415.88319c0.29351,-1.53329 0.87431,-2.56531 1.74239,-3.09607c1.18903,4.9417 3.11749,9.64243 5.7854,14.10219c2.66791,4.45976 5.55989,8.8465 8.67594,13.16022c-0.04532,0.08913 -0.06822,0.17095 -0.06872,0.24548c-0.61573,2.90243 -0.83568,5.68827 -0.65986,8.35753c-0.07553,0.14855 -0.1581,0.23742 -0.24773,0.26663c-0.67122,0.07001 -1.30317,-0.15782 -1.89585,-0.68349c-8.76792,-8.34638 -13.57756,-17.93311 -14.42891,-28.7602c0.42445,-1.05543 0.79023,-2.25286 1.09734,-3.59229M395.76048,405.73258c-0.40433,0.28049 -0.77946,0.6506 -1.12537,1.11034l-0.22583,0.33385c-0.49554,-1.67274 -0.443,-3.94547 0.15763,-6.81819c0.05942,0.03021 0.09643,0.06772 0.11103,0.11254c0.15163,1.83439 0.51247,3.58821 1.08254,5.26145M403.15864,402.76396c-0.07553,0.14855 -0.15105,0.29709 -0.22658,0.44564c-0.15105,0.29709 -0.19007,0.55768 -0.11705,0.78175c2.82763,7.30778 7.21621,14.11926 13.16575,20.43446c-0.04532,0.08913 -0.08308,0.1634 -0.11329,0.22282l-0.13369,-0.06797c-0.86901,2.88582 -1.62624,5.77239 -2.27168,8.65971c-0.73364,0.48695 -1.46907,0.13173 -2.2063,-1.06567c-5.14796,-8.03884 -8.78734,-16.54451 -10.91812,-25.51702c0.91691,-1.14156 1.81266,-2.46212 2.68726,-3.96169l0.13369,0.06797M399.11823,395.15737c0.43813,1.34444 0.78662,2.71808 1.04549,4.12094c-0.82578,0.88878 -1.31523,0.52775 -1.46836,-1.08306c-0.09772,-0.98442 -0.00863,-2.04211 0.26727,-3.17307c0.05942,0.03021 0.11128,0.07528 0.1556,0.1352z" fill="#343444"/><path d="M455.02429,470.07541c-0.04532,0.08913 -0.08283,0.12614 -0.11254,0.11103c-3.1381,-1.03467 -5.36279,-2.68922 -6.67409,-4.96367c0.03021,-0.05942 0.06772,-0.09643 0.11254,-0.11103c1.79208,-0.50964 3.65668,-0.72069 5.5938,-0.63314c0.57457,1.00253 0.88756,2.11509 0.93896,3.33768c-0.0025,0.37262 -0.14625,0.69212 -0.43125,0.9585c-0.58459,0.48795 -0.39374,0.92149 0.57257,1.30062z" fill="#2c2c3f"/><path d="M471.9977,406.35689c0.05942,0.03021 0.09643,0.06772 0.11103,0.11254c0.38279,2.92404 0.69836,5.86999 0.9467,8.83785c-0.04532,0.08913 -0.08308,0.1634 -0.11329,0.22282c-0.04532,0.08913 -0.08308,0.1634 -0.11329,0.22282c-3.40475,5.37289 -7.07188,9.86459 -11.00138,13.4751c-0.07502,0.07402 -0.12764,0.14074 -0.15785,0.20016c-0.08913,-0.04532 -0.1561,-0.06067 -0.20091,-0.04607c-1.89481,0.27047 -3.91376,0.16001 -6.05684,-0.33137l-0.13369,-0.06797c3.51442,-8.38305 5.43567,-15.9123 5.76375,-22.58774c0.03021,-0.05942 0.06772,-0.09643 0.11254,-0.11103c3.82642,0.63685 7.44083,0.66115 10.84323,0.0729M415.78143,470.70592c-1.42805,-0.42695 -2.93088,-0.81715 -4.50848,-1.17058c-1.41395,-0.30761 -2.95984,-0.94404 -4.63767,-1.90927c0.03021,-0.05942 0.06797,-0.13369 0.11329,-0.22282c1.32224,-1.57109 2.56466,-3.46318 3.72726,-5.67628c1.69343,0.861 3.43218,1.63286 5.21625,2.3156c4.47502,1.7144 8.94374,3.25735 13.40615,4.62884c1.2367,0.06794 2.46659,0.03894 3.68969,-0.08699c0.43254,-0.04181 0.84292,-0.11358 1.23115,-0.21531c1.86711,-0.58367 3.24304,-0.16452 4.12781,1.25745c-6.46081,3.22086 -13.91596,3.58064 -22.36544,1.07935M387.35456,425.57486c0.05942,0.03021 0.11128,0.07528 0.1556,0.1352c1.49063,4.42204 3.12325,8.78541 4.89788,13.09011c-0.04532,0.08913 -0.08308,0.1634 -0.11329,0.22282c-0.96122,1.08164 -1.87183,2.39465 -2.73182,3.93903l-0.08913,-0.04532c0.03021,-0.05942 0.06797,-0.13369 0.11329,-0.22282c-0.3001,0.29609 -0.68127,0.45749 -1.14352,0.48419c-0.07452,-0.0005 -0.1415,-0.01586 -0.20091,-0.04607c-0.08913,-0.04532 -0.14099,-0.09038 -0.1556,-0.1352c-1.88745,-5.25941 -2.13161,-11.06673 -0.73249,-17.42195M425.63718,418.11865c0.08963,-0.02921 0.16415,-0.02871 0.22357,0.0015c2.5787,2.20844 5.06803,4.40882 7.46797,6.60115c4.94844,4.46019 10.47538,7.1207 16.58083,7.98155c-0.286,0.41543 -0.58685,0.82331 -0.90255,1.22363c-0.04532,0.08913 -0.08308,0.1634 -0.11329,0.22282c-8.30179,2.13529 -17.56825,0.32161 -27.79937,-5.44106c-0.08913,-0.04532 -0.1634,-0.08308 -0.22282,-0.11329c0.48888,-1.77046 1.08249,-3.59984 1.78083,-5.48814c0.77487,-2.18589 1.76981,-3.84862 2.98481,-4.98817M443.80154,393.42317c0.03021,-0.05942 0.08283,-0.12614 0.15785,-0.20016c3.79556,-3.64123 7.71576,-6.97605 11.76059,-10.00448c-0.04532,0.08913 -0.06067,0.1561 -0.04607,0.20091c1.49722,5.65923 2.32977,11.52268 2.49765,17.59033c-0.07553,0.14855 -0.15055,0.22257 -0.22507,0.22207c-2.5011,-0.44907 -5.14018,-1.43567 -7.91726,-2.95979c-2.50969,-1.38817 -4.58559,-3.00447 -6.2277,-4.84888M445.91289,378.68096c0.02971,0.01511 0.06722,-0.02191 0.11254,-0.11103c1.05493,0.49897 2.13252,0.95338 3.23277,1.36322c0.05942,0.03021 0.13369,0.06797 0.22282,0.11329l0.04532,-0.08913c0.96631,0.37913 1.88024,0.78772 2.74182,1.22577l-1.3701,0.92983c-1.63244,1.15165 -3.72963,2.70263 -6.29157,4.65292c-2.54684,1.92059 -3.84997,2.86578 -3.90939,2.83557c-1.88787,-2.97888 -3.26038,-6.1257 -4.11752,-9.44048c-0.0146,-0.04481 0.00075,-0.11179 0.04607,-0.20091c3.01518,-0.63557 6.11092,-1.06192 9.28725,-1.27906z" fill="#475c81"/><path d="M475.57034,407.05165c0.03021,-0.05942 0.06797,-0.13369 0.11329,-0.22282c-0.07302,-0.22407 -0.12363,-0.45545 -0.15184,-0.69412c-0.0146,-0.04481 0.00075,-0.11179 0.04607,-0.20091c0.03021,-0.05942 0.08283,-0.12614 0.15785,-0.20016c0.71954,-0.60629 1.00052,-0.27648 0.84296,0.98943c-0.21147,0.41593 -0.47331,0.56323 -0.78551,0.44188c-0.08913,-0.04532 -0.1634,-0.08308 -0.22282,-0.11329z" fill="#425574"/><path d="M470.45694,386.11237l0.04456,0.02266c-0.19136,-0.35902 -0.27218,-0.53097 -0.24247,-0.51587c0.11834,0.13494 0.22182,0.26234 0.31045,0.38218c0.26538,0.43404 0.75938,1.22735 1.482,2.37993c1.60739,2.57454 3.09748,5.9681 4.47027,10.18067c-0.04532,0.08913 -0.08308,0.1634 -0.11329,0.22282c-0.44056,1.23419 -0.89751,1.5814 -1.37085,1.04162c-0.07402,-0.07502 -0.52625,-1.5388 -1.35669,-4.39133c-0.77202,-2.67327 -1.5692,-4.92935 -2.39154,-6.76825l-0.81429,-1.92828l-0.06572,-0.20167c-0.02971,-0.01511 -0.11103,-0.11254 -0.24398,-0.2923l0.22282,0.11329c-0.02921,-0.08963 -0.06597,-0.1644 -0.11028,-0.22432c-0.44063,-0.97182 -0.38096,-0.97887 0.17901,-0.02115z" fill="#415476"/><path d="M470.5015,386.13503l-0.04456,-0.02266c-0.55997,-0.95771 -0.61964,-0.95066 -0.17901,0.02115c0.04431,0.05992 0.08107,0.13469 0.11028,0.22432l-0.22282,-0.11329c0.13294,0.17976 0.21427,0.27719 0.24398,0.2923l0.06572,0.20167l0.81429,1.92828c-0.07352,-0.14955 -0.13974,-0.27669 -0.19866,-0.38142c-0.41092,-0.95671 -0.6899,-1.58462 -0.83695,-1.88371c-0.02971,-0.01511 -0.05187,-0.04507 -0.06647,-0.08988c-0.88327,-1.64554 -0.85935,-1.87641 0.07173,-0.69262c-0.02971,-0.01511 0.05111,0.15685 0.24247,0.51587z" fill="#415370"/><path d="M460.75787,382.13448c0.29759,0.07653 0.55743,0.22733 0.7795,0.4524c5.77479,5.7029 9.12179,12.24653 10.041,19.63092c-0.04532,0.08913 -0.09038,0.14099 -0.1352,0.1556c-3.28857,1.39391 -6.70912,1.35601 -10.26164,-0.1137c0.03021,-0.05942 0.04557,-0.12639 0.04607,-0.20091c-0.07224,-6.99115 -0.22882,-13.63258 -0.46973,-19.9243z" fill="#465c81"/><path d="M462.24189,377.56103c0.05942,0.03021 0.12614,0.08283 0.20016,0.15785c0.80015,0.70594 1.772,1.36831 2.91556,1.98712c-1.44266,-0.47177 -2.89162,-1.11499 -4.34687,-1.92967c-0.08913,-0.04532 -0.1634,-0.08308 -0.22282,-0.11329c-0.08913,-0.04532 -0.1561,-0.06067 -0.20091,-0.04607c-1.34243,0.14003 -1.94267,-0.37079 -1.80071,-1.53246c-0.04331,-0.20897 -0.02771,-0.3132 0.04682,-0.3127c1.22309,-0.12593 2.35935,0.47048 3.40877,1.78921M454.06702,373.01208c-0.19186,-0.28449 -0.26538,-0.43404 -0.22057,-0.44865c1.40285,-0.25887 2.23371,0.31313 2.49258,1.71598c-0.9255,0.20245 -1.68284,-0.21999 -2.27202,-1.26733z" fill="#435878"/><path d="M397.367,449.45364c-0.04532,0.08913 -0.05312,0.14124 -0.02341,0.15635c0.29509,0.44915 0.59748,0.9207 0.90718,1.41466c-0.04532,0.08913 -0.08308,0.1634 -0.11329,0.22282c-0.04532,0.08913 -0.05312,0.14124 -0.02341,0.15635c0.6637,1.04784 1.41173,1.74598 2.2441,2.0944c0.05942,0.03021 0.11128,0.07528 0.1556,0.1352c2.36473,2.99699 5.68541,5.69484 9.96206,8.09356c-1.1626,2.2131 -2.40502,4.10519 -3.72726,5.67628c-0.04532,0.08913 -0.08308,0.1634 -0.11329,0.22282c-6.50485,-3.53161 -10.82134,-7.76396 -12.94947,-12.69707c-0.04431,-0.05992 -0.09618,-0.10498 -0.1556,-0.1352c0.03021,-0.05942 0.06797,-0.13369 0.11329,-0.22282c1.30714,-1.54138 2.5483,-3.24716 3.7235,-5.11735M389.47379,442.9167l0.08913,0.04532c0.85999,-1.54439 1.7706,-2.8574 2.73182,-3.93903c0.05942,0.03021 0.11128,0.07528 0.1556,0.1352c0.58517,1.64353 1.26727,3.28027 2.0463,4.9102c-0.04532,0.08913 -0.08308,0.1634 -0.11329,0.22282c-1.30513,1.24328 -2.47883,2.8899 -3.52109,4.93985l-0.08913,-0.04532c-0.74982,-1.5403 -1.52936,-3.09571 -2.3386,-4.66622c-0.02971,-0.01511 -0.02191,-0.06722 0.02341,-0.15635c0.03021,-0.05942 0.07528,-0.11128 0.1352,-0.1556c0.37412,-0.22107 0.66767,-0.65135 0.88065,-1.29085M415.5447,372.88726c0.57249,-0.90538 1.23992,-1.51947 2.00226,-1.84227c0.13444,-0.04381 0.28374,-0.08007 0.4479,-0.10878c3.28256,-0.49962 6.71821,-0.49143 10.30696,0.02457c-3.64759,1.58527 -7.26622,3.29743 -10.85589,5.13648c-0.16465,0.10323 -0.39553,0.07932 -0.69262,-0.07173c-1.2775,-0.64952 -1.68842,-1.60623 -1.23276,-2.87014l-0.08913,-0.04532c0.03021,-0.05942 0.06797,-0.13369 0.11329,-0.22282M440.48122,371.8252c-0.04532,0.08913 -0.08308,0.1634 -0.11329,0.22282c-1.87462,1.70153 -3.15388,1.31284 -3.83777,-1.16607c-0.0146,-0.04481 0.00075,-0.11179 0.04607,-0.20091c-0.14454,-0.67172 0.08204,-1.11736 0.67973,-1.33692c2.04687,-0.71661 3.23524,-0.1124 3.56512,1.81262c-0.15055,0.22257 -0.26384,0.44539 -0.33987,0.66846M404.76291,380.30477c0.05942,0.03021 0.11154,0.03801 0.15635,0.02341c2.17723,-2.37024 4.17577,-2.55057 5.99563,-0.54101c-0.04532,0.08913 -0.08308,0.1634 -0.11329,0.22282c-0.04532,0.08913 -0.08308,0.1634 -0.11329,0.22282l0.08913,0.04532c-0.27139,0.46024 -0.30361,0.81776 -0.09664,1.07254c-0.32931,0.20646 -0.67472,0.59168 -1.03625,1.15566l-0.08913,-0.04532c-1.67625,1.01721 -3.24297,2.37052 -4.70015,4.05995c-0.02971,-0.01511 -0.07427,-0.03776 -0.13369,-0.06797c-1.1626,2.2131 -2.56591,3.64949 -4.20995,4.30919c-0.14955,0.07352 -0.03701,-0.03751 0.33761,-0.3331c0.17976,-0.13294 0.34516,-0.34796 0.49622,-0.64505c0.03021,-0.05942 0.06797,-0.13369 0.11329,-0.22282c1.07898,-3.07818 2.18037,-6.16365 3.30416,-9.25644z" fill="#8fbbbe"/><path d="M398.13748,451.24748c0.05942,0.03021 0.12614,0.08283 0.20016,0.15785c0.77094,0.61631 1.44445,1.31394 2.02053,2.09289c-0.83236,-0.34842 -1.5804,-1.04655 -2.2441,-2.0944c-0.02971,-0.01511 -0.02191,-0.06722 0.02341,-0.15635z" fill="#94c3c7"/><path d="M389.58708,442.69388c-0.04532,0.08913 -0.08308,0.1634 -0.11329,0.22282c-0.21298,0.6395 -0.50652,1.06979 -0.88065,1.29085c-0.05992,0.04431 -0.10498,0.09618 -0.1352,0.1556c-0.17675,-0.3142 -0.27143,-0.64276 -0.28403,-0.98567c0.0005,-0.07452 0.02341,-0.15635 0.06872,-0.24548c0.05942,0.03021 0.12639,0.04557 0.20091,0.04607c0.46225,-0.0267 0.84342,-0.1881 1.14352,-0.48419M394.38335,444.2912c0.05942,0.03021 0.11128,0.07528 0.1556,0.1352c0.74882,1.68935 1.72927,3.29083 2.94134,4.80443c-0.04532,0.08913 -0.08308,0.1634 -0.11329,0.22282c-1.1752,1.87019 -2.41637,3.57597 -3.7235,5.11735c-0.04532,0.08913 -0.08308,0.1634 -0.11329,0.22282c-0.86716,-1.8243 -1.79399,-3.64154 -2.78048,-5.45173c-0.02971,-0.01511 -0.02191,-0.06722 0.02341,-0.15635l0.08913,0.04532c1.04226,-2.04995 2.21595,-3.69656 3.52109,-4.93985M431.00948,367.28988c0.05942,0.03021 0.09643,0.06772 0.11103,0.11254c-0.57342,3.26044 -0.48193,6.27941 0.27449,9.05691c-5.55801,1.95997 -10.86044,4.70419 -15.9073,8.23267c-0.05992,0.04431 -0.10498,0.09618 -0.1352,0.1556c-0.84053,-3.56806 -0.83714,-7.39874 0.01018,-11.49204c0.0005,-0.07452 0.02341,-0.15635 0.06872,-0.24548l0.08913,0.04532c-0.45566,1.2639 -0.04474,2.22061 1.23276,2.87014c0.29709,0.15105 0.52797,0.17496 0.69262,0.07173c3.58967,-1.83905 7.2083,-3.55121 10.85589,-5.13648c-3.58875,-0.51601 -7.0244,-0.5242 -10.30696,-0.02457c-0.16415,0.02871 -0.31345,0.06497 -0.4479,0.10878c-0.76235,0.3228 -1.42977,0.93688 -2.00226,1.84227l-0.13369,-0.06797c0.2739,-0.83286 0.43551,-1.59196 0.48483,-2.27728c0.03021,-0.05942 0.07528,-0.11128 0.1352,-0.1556c4.66422,-2.0405 9.65704,-3.07268 14.97844,-3.09653z" fill="#475d81"/><path d="M421.51677,412.43432c0.23667,0.26989 0.46579,0.55463 0.68736,0.85423c-0.22708,0.52016 -0.53598,1.01742 -0.92671,1.49177l-0.08913,-0.04532c0.03021,-0.05942 0.06797,-0.13369 0.11329,-0.22282c0.15155,-0.37162 0.34037,-0.74298 0.56644,-1.1141c-0.22157,-0.2996 -0.42073,-0.6065 -0.59748,-0.9207c-0.0146,-0.04481 0.00075,-0.11179 0.04607,-0.20091c0.05942,0.03021 0.12614,0.08283 0.20016,0.15785z" fill="#364461"/><path d="M413.06794,392.09865c0.05942,0.03021 0.09643,0.06772 0.11103,0.11254c1.02495,7.17642 3.77526,13.79057 8.25093,19.84246c-0.04532,0.08913 -0.08308,0.1634 -0.11329,0.22282c-0.04532,0.08913 -0.06067,0.1561 -0.04607,0.20091c0.17675,0.3142 0.37591,0.6211 0.59748,0.9207c-0.22608,0.37112 -0.41489,0.74248 -0.56644,1.1141c-0.04532,0.08913 -0.08308,0.1634 -0.11329,0.22282c-2.01959,3.31034 -3.76348,6.62999 -5.23169,9.95894l-0.08913,-0.04532c0.03021,-0.05942 0.06797,-0.13369 0.11329,-0.22282c-5.94954,-6.31519 -10.33812,-13.12668 -13.16575,-20.43446c-0.07302,-0.22407 -0.03401,-0.48466 0.11705,-0.78175c0.07553,-0.14855 0.15105,-0.29709 0.22658,-0.44564c0.03021,-0.05942 0.06797,-0.13369 0.11329,-0.22282c2.9511,-4.40708 6.21643,-7.88791 9.79601,-10.44249M434.51764,404.18212c2.10621,-2.89241 4.37382,-5.40364 6.80282,-7.53369c0.05942,0.03021 0.12614,0.08283 0.20016,0.15785c4.44338,4.2034 9.98242,7.28135 16.61713,9.23385c-0.04532,0.08913 -0.06822,0.17095 -0.06872,0.24548c-0.95248,6.43276 -2.80125,13.15759 -5.54631,20.17452c-0.578,1.72515 -1.54377,2.3745 -2.8973,1.94804c-1.18988,-0.38064 -2.36415,-0.8655 -3.52281,-1.45461c-8.02253,-3.92935 -14.05007,-8.62038 -18.0826,-14.07307c2.18023,-2.81738 4.34611,-5.71684 6.49763,-8.69837M432.37327,380.60217c0.05942,0.03021 0.09643,0.06772 0.11103,0.11254c1.01578,4.10583 2.74129,7.95559 5.17653,11.54927c-0.04532,0.08913 -0.09793,0.15585 -0.15785,0.20016c-4.20941,5.33767 -8.3297,10.72065 -12.36085,16.14895c-0.08913,-0.04532 -0.15585,-0.09793 -0.20016,-0.15785c-5.04315,-5.89175 -7.83803,-12.52856 -8.38462,-19.91044c0.03021,-0.05942 0.07528,-0.11128 0.1352,-0.1556c4.8399,-3.78326 10.0668,-6.37894 15.68072,-7.78702z" fill="#475d82"/><path d="M435.14481,367.42947c0.05942,0.03021 0.12639,0.04557 0.20091,0.04607c1.02873,-0.0378 2.07962,-0.04564 3.15266,-0.02352c0.05942,0.03021 0.13369,0.06797 0.22282,0.11329c4.80032,2.10413 8.84634,4.44168 12.13807,7.01264c-0.04532,0.08913 -0.08283,0.12614 -0.11254,0.11103c-5.21467,-0.33317 -10.24654,-0.14341 -15.0956,0.56926c0.03021,-0.05942 0.04557,-0.12639 0.04607,-0.20091c-0.20654,-2.53532 -0.39067,-5.07794 -0.55239,-7.62786M440.36793,372.04802c0.03021,-0.05942 0.06797,-0.13369 0.11329,-0.22282c0.07603,-0.22307 0.18932,-0.44589 0.33987,-0.66846c-0.32988,-1.92502 -1.51826,-2.52923 -3.56512,-1.81262c-0.59769,0.21956 -0.82427,0.6652 -0.67973,1.33692c-0.04532,0.08913 -0.06067,0.1561 -0.04607,0.20091c0.68389,2.4789 1.96315,2.86759 3.83777,1.16607z" fill="#455a7e"/><path d="M398.57335,386.41166c0.03021,-0.05942 0.06797,-0.13369 0.11329,-0.22282c3.44198,-6.47564 7.60736,-10.80749 12.49616,-12.99553c0.05942,0.03021 0.09643,0.06772 0.11103,0.11254c-0.34476,4.72271 0.03506,9.1969 1.13947,13.42257c-4.15408,3.75806 -8.20617,7.86708 -12.15629,12.32707c-0.04532,0.08913 -0.08308,0.1634 -0.11329,0.22282c-0.25887,-1.40285 -0.60736,-2.7765 -1.04549,-4.12094c-0.04431,-0.05992 -0.09618,-0.10498 -0.1556,-0.1352c-0.08913,-0.04532 -0.12614,-0.08283 -0.11103,-0.11254c-0.3989,-2.74529 -0.49165,-5.57795 -0.27824,-8.49798M404.91926,380.32818c-0.04481,0.0146 -0.09693,0.0068 -0.15635,-0.02341c-1.1238,3.09278 -2.22518,6.17826 -3.30416,9.25644c-0.04532,0.08913 -0.08308,0.1634 -0.11329,0.22282c-0.15105,0.29709 -0.31646,0.51211 -0.49622,0.64505c-0.37462,0.29559 -0.48716,0.40663 -0.33761,0.3331c1.64404,-0.65969 3.04735,-2.09609 4.20995,-4.30919c0.05942,0.03021 0.10398,0.05287 0.13369,0.06797c1.45719,-1.68943 3.02391,-3.04274 4.70015,-4.05995l0.08913,0.04532c0.36152,-0.56398 0.70694,-0.9492 1.03625,-1.15566c-0.20696,-0.25478 -0.17475,-0.6123 0.09664,-1.07254l-0.08913,-0.04532c0.03021,-0.05942 0.06797,-0.13369 0.11329,-0.22282c0.03021,-0.05942 0.06797,-0.13369 0.11329,-0.22282c-1.81986,-2.00957 -3.81841,-1.82923 -5.99563,0.54101z" fill="#475c80"/><path d="M687.45,403.35c-0.06667,0.03333 -0.13333,0.06667 -0.2,0.1c-0.06667,0 -0.11667,0.01667 -0.15,0.05c-4.06667,1.8 -6.8,3.11667 -8.2,3.95c-2.2,1.26667 -4.23333,3.28333 -6.1,6.05c-1.46667,2.16667 -2.81667,4.38333 -4.05,6.65c-1.23333,2.23333 -2.06667,4.23333 -2.5,6c-0.43333,1.76667 0.36667,4.36667 2.4,7.8c1.63333,2.73333 3.08333,4.63333 4.35,5.7c2.86667,-1.4 6.58333,-2.3 11.15,-2.7c6.36667,-0.56667 11.15,0.63333 14.35,3.6c2.66667,2.46667 4.33333,5.16667 5,8.1c0.7,3 1.81667,5.25 3.35,6.75c2.83333,2.76667 5.11667,4.71667 6.85,5.85c2.1,1.33333 4.13333,2 6.1,2c-2.3,1.3 -5.7,1.75 -10.2,1.35c-4.16667,-0.4 -7.33333,-1.26667 -9.5,-2.6c-1.3,-0.8 -1.01667,1.28333 0.85,6.25c2.06667,5.4 5.11667,10.8 9.15,16.2c12.16667,16.36667 27.61667,24.93333 46.35,25.7c-1.26667,0.6 -2.98333,1.06667 -5.15,1.4c-4.4,0.63333 -8.91667,0.28333 -13.55,-1.05c-5.6,-1.6 -11.71667,-4.46667 -18.35,-8.6c-6.66667,-4.16667 -11.01667,-7.85 -13.05,-11.05c-3.5,-5.5 -5.75,-9.13333 -6.75,-10.9c-2.56667,-4.56667 -4.2,-8.45 -4.9,-11.65c-1.23333,-4.63333 -2.08333,-8 -2.55,-10.1c-0.83333,-3.6 -1.05,-6.78333 -0.65,-9.55c0.3,-1 -0.15,-1.85 -1.35,-2.55c-1.53333,-0.86667 -3.7,-0.5 -6.5,1.1c-1.93333,0.66667 -4.23333,1.88333 -6.9,3.65c-2.66667,1.76667 -4.46667,3.03333 -5.4,3.8c-0.96667,0.73333 -1.71667,1.03333 -2.25,0.9c-0.56667,-0.13333 -1.63333,-0.65 -3.2,-1.55c-1.6,-0.9 -3.86667,-3 -6.8,-6.3c-2.83333,-3.2 -4.53333,-5.55 -5.1,-7.05c-0.56667,-1.53333 -1.1,-4.38333 -1.6,-8.55c-0.5,-4.36667 -0.58333,-7.33333 -0.25,-8.9c0.3,-1.46667 0.75,-2.63333 1.35,-3.5c0.3,-0.43333 0.95,-1.11667 1.95,-2.05c1.3,-1.2 4.65,-3.8 10.05,-7.8c6.16667,-4.63333 10.33333,-7.25 12.5,-7.85c2.13333,-0.6 3.88333,-0.88333 5.25,-0.85c1.33333,0 2.73333,0.73333 4.2,2.2M680.6,304.1l1.75,2.75c1.53333,2.3 3.21667,4.66667 5.05,7.1c-1.4,5.23333 -2.3,9.51667 -2.7,12.85c-0.73333,6.26667 -0.28333,11.33333 1.35,15.2c1.66667,3.93333 5.25,9.28333 10.75,16.05c4.4,5.36667 7.96667,9.33333 10.7,11.9c-0.06667,2.46667 -0.33333,7.4 -0.8,14.8c-0.33333,6.63333 -0.38333,10.86667 -0.15,12.7c0.3,2.16667 0.16667,4.96667 -0.4,8.4c-0.5,3.16667 -1.18333,5.96667 -2.05,8.4l-3.6,-6.8c0,-0.03333 0.01667,-0.05 0.05,-0.05c0,-0.02018 0,-0.03685 0,-0.05h0.05c0.9,-1.76667 1.56667,-3.4 2,-4.9c0.4,-1.53333 0.78333,-3.06667 1.15,-4.6c0.33333,-1.53333 0.5,-3.31667 0.5,-5.35c0,-2.06667 -0.28333,-4.58333 -0.85,-7.55c-0.56667,-2.96667 -1.48333,-5.56667 -2.75,-7.8c-1.26667,-2.26667 -3.93333,-5.68333 -8,-10.25c-4.1,-4.56667 -7.51667,-7.98333 -10.25,-10.25c-1,-3.33333 -2.28333,-8.3 -3.85,-14.9c-1.56667,-6.63333 -2.4,-12.18333 -2.5,-16.65c-0.13333,-4.5 0.06667,-8.43333 0.6,-11.8c0.5,-3.36667 1.81667,-6.43333 3.95,-9.2M740.15,318.1c-2.23333,4.03333 -3.78333,6.88333 -4.65,8.55l-0.15,1.3c-0.03333,1 0.06667,1.9 0.3,2.7c0.13333,0.5 0.3,3.23333 0.5,8.2c0.16667,4.9 0.43333,7.91667 0.8,9.05c0.66667,2.03333 2.11667,6.25 4.35,12.65c0.3,0.9 0.13333,3.8 -0.5,8.7c-0.73333,5.83333 -1.11667,9.15 -1.15,9.95c-0.06667,2.66667 -0.15,5.36667 -0.25,8.1c0,0.76667 -0.05,1.81667 -0.15,3.15c-0.1,1.33333 -0.15,2.36667 -0.15,3.1c-0.3,-1.33333 -0.91667,-3.88333 -1.85,-7.65c-0.96667,-3.66667 -1.55,-5.83333 -1.75,-6.5l1.25,-0.15c-2.63333,-17.16667 -4.66667,-27.66667 -6.1,-31.5c-1.2,-4.86667 -2.41667,-8.68333 -3.65,-11.45c-0.7,-1.53333 -1.13333,-4.46667 -1.3,-8.8c-0.23333,-4.63333 0.01667,-7.81667 0.75,-9.55c0.73333,-1.73333 2.3,-5.4 4.7,-11c2.36667,-5.63333 3.73333,-8.5 4.1,-8.6l1.1,7.75c0.8,5.3 1.7,8.81667 2.7,10.55c0.53333,0.86667 0.9,1.35 1.1,1.45M732.1,446.25c0.53333,-1.86667 1.73333,-3.83333 3.6,-5.9c1.86667,-2.06667 3.4,-3.66667 4.6,-4.8c-0.7,1.93333 -1.15,4.5 -1.35,7.7c-0.23333,3.16667 0.01667,6.35 0.75,9.55c0.7,3.13333 2.6,5.55 5.7,7.25c3.06667,1.7 5.71667,3.06667 7.95,4.1c2.2,1 3.05,1.53333 2.55,1.6c-1.7,0.26667 -3.15,0.41667 -4.35,0.45c-1.9,0.06667 -3.9,-0.05 -6,-0.35c-4.2,-0.63333 -8.11667,-3.2 -11.75,-7.7c-1.33333,-1.66667 -2.08333,-3.6 -2.25,-5.8c-0.2,-2.2 -0.01667,-4.23333 0.55,-6.1M757.4,372.5c-3.1,2.66667 -5.05,7.5 -5.85,14.5c-0.4,3.83333 -0.6,8.83333 -0.6,15c-1,0 -2.38333,1.65 -4.15,4.95c-1.93333,3.6 -2.66667,6.7 -2.2,9.3c0.46667,2.63333 1.98333,4.81667 4.55,6.55c1.46667,1.03333 5.2,2.91667 11.2,5.65c-1,1.1 -2.01667,2.08333 -3.05,2.95c-2,1.73333 -3.88333,2.56667 -5.65,2.5c-1.93333,-0.06667 -5.15,-2.18333 -9.65,-6.35c-4.2,-3.9 -6.58333,-6.63333 -7.15,-8.2c-0.43333,-1.26667 0.25,-3.58333 2.05,-6.95c1.7,-3.1 3.83333,-6.2 6.4,-9.3c2.1,-2.53333 3.43333,-5.18333 4,-7.95c0.4,-1.93333 0.41667,-3.58333 0.05,-4.95c-1.03333,-3.7 -1.15,-6.9 -0.35,-9.6c0.43333,-1.46667 2.3,-3.26667 5.6,-5.4c1.63333,-1.03333 3.23333,-1.93333 4.8,-2.7z" fill="#2c2d41"/><path d="M764.65,319.95c0.53333,1.43333 0.76667,2.63333 0.7,3.6c-0.1,0.93333 -0.11667,7.11667 -0.05,18.55c0.1,11.4 0.31667,18.03333 0.65,19.9c0.73333,1.03333 4.73333,3.73333 12,8.1c3.8,2.3 8.46667,5.05 14,8.25c0.93333,1.1 1.91667,3.78333 2.95,8.05c0.53333,2.16667 1.06667,4.58333 1.6,7.25c0.33333,1.1 0.75,5.6 1.25,13.5c0.76667,0.8 2.3,2.9 4.6,6.3c2.26667,3.36667 4.16667,6.86667 5.7,10.5c1.46667,3.6 2.53333,6.95 3.2,10.05c0.6,3.06667 0.85,7.2 0.75,12.4c-0.1,5.16667 -0.46667,9.25 -1.1,12.25c-0.66667,2.96667 -1.81667,6.65 -3.45,11.05c-1.63333,4.4 -3.78333,8.71667 -6.45,12.95c-2.66667,4.23333 -6.15,8.43333 -10.45,12.6c-4.33333,4.16667 -8.41667,7.33333 -12.25,9.5c-3.86667,2.13333 -7.91667,3.6 -12.15,4.4c-4.26667,0.76667 -7.5,1.1 -9.7,1c-18.73333,-0.76667 -34.18333,-9.33333 -46.35,-25.7c-4.03333,-5.4 -7.08333,-10.8 -9.15,-16.2c-1.86667,-4.96667 -2.15,-7.05 -0.85,-6.25c2.16667,1.33333 5.33333,2.2 9.5,2.6c4.5,0.4 7.9,-0.05 10.2,-1.35c-1.96667,0 -4,-0.66667 -6.1,-2c-1.73333,-1.13333 -4.01667,-3.08333 -6.85,-5.85c-1.53333,-1.5 -2.65,-3.75 -3.35,-6.75c-0.66667,-2.93333 -2.33333,-5.63333 -5,-8.1c-3.2,-2.96667 -7.98333,-4.16667 -14.35,-3.6c-4.56667,0.4 -8.28333,1.3 -11.15,2.7c-1.26667,-1.06667 -2.71667,-2.96667 -4.35,-5.7c-2.03333,-3.43333 -2.83333,-6.03333 -2.4,-7.8c0.43333,-1.76667 1.26667,-3.76667 2.5,-6c1.23333,-2.26667 2.58333,-4.48333 4.05,-6.65c1.86667,-2.76667 3.9,-4.78333 6.1,-6.05c1.4,-0.83333 4.13333,-2.15 8.2,-3.95c0.03333,-0.03333 0.08333,-0.05 0.15,-0.05c0.06667,-0.03333 0.13333,-0.06667 0.2,-0.1l7.2,3.55c1.76667,0.7 3.21667,0.98333 4.35,0.85l1.55,-0.4c0,0.01315 0,0.02982 0,0.05c-0.03333,0 -0.05,0.01667 -0.05,0.05l3.6,6.8c0.86667,-2.43333 1.55,-5.23333 2.05,-8.4c0.56667,-3.43333 0.7,-6.23333 0.4,-8.4c-0.23333,-1.83333 -0.18333,-6.06667 0.15,-12.7c0.46667,-7.4 0.73333,-12.33333 0.8,-14.8c-2.73333,-2.56667 -6.3,-6.53333 -10.7,-11.9c-5.5,-6.76667 -9.08333,-12.11667 -10.75,-16.05c-1.63333,-3.86667 -2.08333,-8.93333 -1.35,-15.2c0.4,-3.33333 1.3,-7.61667 2.7,-12.85c-1.83333,-2.43333 -3.51667,-4.8 -5.05,-7.1l-1.75,-2.75c1.21888,-1.44076 2.93555,-2.74076 5.15,-3.9c2.25065,-1.13268 4.93398,-2.04935 8.05,-2.75c3.14648,-0.69414 5.91315,-1.14414 8.3,-1.35c4.26667,-0.3 7.15,0.9 8.65,3.6c0.5,1.7 1.03333,4.63333 1.6,8.8c0.3,2.16667 0.63333,4.73333 1,7.7c0.2,1.36667 0.71667,3.95 1.55,7.75c0.71654,3.26758 1.26654,5.63424 1.65,7.1c0.0651,0.22305 0.1151,0.43971 0.15,0.65c0.5,1.93333 1.53333,5.38333 3.1,10.35c0.03333,0.03333 1.18333,3.25 3.45,9.65c0.9,2.36667 4.98333,11.6 12.25,27.7c0.2,0.66667 0.78333,2.83333 1.75,6.5c0.93333,3.76667 1.55,6.31667 1.85,7.65c0,-0.73333 0.05,-1.76667 0.15,-3.1c0.1,-1.33333 0.15,-2.38333 0.15,-3.15c0.1,-2.73333 0.18333,-5.43333 0.25,-8.1c0.03333,-0.8 0.41667,-4.11667 1.15,-9.95c0.63333,-4.9 0.8,-7.8 0.5,-8.7c-2.23333,-6.4 -3.68333,-10.61667 -4.35,-12.65c-0.36667,-1.13333 -0.63333,-4.15 -0.8,-9.05c-0.2,-4.96667 -0.36667,-7.7 -0.5,-8.2c-0.23333,-0.8 -0.33333,-1.7 -0.3,-2.7l0.15,-1.3c0.86667,-1.66667 2.41667,-4.51667 4.65,-8.55c-0.2,-0.1 -0.56667,-0.58333 -1.1,-1.45c-1,-1.73333 -1.9,-5.25 -2.7,-10.55l-1.1,-7.75c0.7,-1.3 1.71667,-2 3.05,-2.1c1.16667,-0.13333 2.25,0.21667 3.25,1.05c1.33333,1.1 4.48333,3.83333 9.45,8.2c5.5,4.83333 9.01667,8.1 10.55,9.8c1.5,1.66667 2.53333,3.21667 3.1,4.65M747,380.6c-0.8,2.7 -0.68333,5.9 0.35,9.6c0.36667,1.36667 0.35,3.01667 -0.05,4.95c-0.56667,2.76667 -1.9,5.41667 -4,7.95c-2.56667,3.1 -4.7,6.2 -6.4,9.3c-1.8,3.36667 -2.48333,5.68333 -2.05,6.95c0.56667,1.56667 2.95,4.3 7.15,8.2c4.5,4.16667 7.71667,6.28333 9.65,6.35c1.76667,0.06667 3.65,-0.76667 5.65,-2.5c1.03333,-0.86667 2.05,-1.85 3.05,-2.95c-6,-2.73333 -9.73333,-4.61667 -11.2,-5.65c-2.56667,-1.73333 -4.08333,-3.91667 -4.55,-6.55c-0.46667,-2.6 0.26667,-5.7 2.2,-9.3c1.76667,-3.3 3.15,-4.95 4.15,-4.95c0,-6.16667 0.2,-11.16667 0.6,-15c0.8,-7 2.75,-11.83333 5.85,-14.5c-1.56667,0.76667 -3.16667,1.66667 -4.8,2.7c-3.3,2.13333 -5.16667,3.93333 -5.6,5.4M733.8,458.15c3.63333,4.5 7.55,7.06667 11.75,7.7c2.1,0.3 4.1,0.41667 6,0.35c1.2,-0.03333 2.65,-0.18333 4.35,-0.45c0.5,-0.06667 -0.35,-0.6 -2.55,-1.6c-2.23333,-1.03333 -4.88333,-2.4 -7.95,-4.1c-3.1,-1.7 -5,-4.11667 -5.7,-7.25c-0.73333,-3.2 -0.98333,-6.38333 -0.75,-9.55c0.2,-3.2 0.65,-5.76667 1.35,-7.7c-1.2,1.13333 -2.73333,2.73333 -4.6,4.8c-1.86667,2.06667 -3.06667,4.03333 -3.6,5.9c-0.56667,1.86667 -0.75,3.9 -0.55,6.1c0.16667,2.2 0.91667,4.13333 2.25,5.8z" fill="#000000"/></g></g></svg>