<svg version="1.1" xmlns="http://www.w3.org/2000/svg" xmlns:xlink="http://www.w3.org/1999/xlink" width="584.95" height="155" viewBox="0,0,584.95,155"><g transform="translate(-348.35076,-279.65)"><g data-paper-data="{&quot;isPaintingLayer&quot;:true}" fill-rule="nonzero" stroke="none" stroke-width="1" stroke-linecap="round" stroke-linejoin="miter" stroke-miterlimit="4" stroke-dasharray="" stroke-dashoffset="0" style="mix-blend-mode: normal"><g><g fill="#000000"><path d="M385.50076,287.1c0.83333,-0.06667 1.65,-0.21667 2.45,-0.45c0.03333,0 0.05,-0.06667 0.05,-0.2c1.43333,0 2.86667,0.01667 4.3,0.05c5.23333,0.1 10.46667,0.2 15.7,0.3c0.7,0.23333 1.41667,0.48333 2.15,0.75c2.13333,0.23333 4.26667,0.46667 6.4,0.7c0.73333,0.23333 1.45,0.46667 2.15,0.7c2.26667,0 4.53333,0 6.8,0c0.83333,-0.23333 1.66667,-0.46667 2.5,-0.7c2.36667,0 4.75,0 7.15,0c0.7,0.23333 1.41667,0.46667 2.15,0.7c1.66667,0.23333 3.33333,0.46667 5,0.7c0.7,0.26667 1.4,0.51667 2.1,0.75c1.66667,0.23333 3.33333,0.46667 5,0.7c0.73333,0.23333 1.45,0.46667 2.15,0.7c0.23333,0.23333 0.48333,0.48333 0.75,0.75c0.46667,0.1 0.93333,0.21667 1.4,0.35c0.6,0.23333 1.2,0.45 1.8,0.65c0.83333,0.26667 1.66667,0.53333 2.5,0.8c0.6,0.2 1.2,0.4 1.8,0.6c0.83333,0.3 1.65,0.58333 2.45,0.85c0.6,0.2 1.2,0.41667 1.8,0.65c0.5,0.36667 0.98333,0.73333 1.45,1.1c0.36667,0.33333 0.71667,0.68333 1.05,1.05c0.6,0.36667 1.2,0.73333 1.8,1.1c0.36667,0.23333 0.71667,0.46667 1.05,0.7c0.6,0.23333 1.2,0.46667 1.8,0.7c0.36667,0.23333 0.73333,0.46667 1.1,0.7c0.56667,0.23333 1.15,0.48333 1.75,0.75c0.36667,0.33333 0.73333,0.68333 1.1,1.05c0.33333,0.36667 0.68333,0.71667 1.05,1.05c0.23333,0.36667 0.46667,0.73333 0.7,1.1c0.36667,0.33333 0.73333,0.68333 1.1,1.05c0.36667,0.36667 0.71667,0.73333 1.05,1.1c0.36667,0.33333 0.73333,0.68333 1.1,1.05c0.1,0.36667 0.21667,0.71667 0.35,1.05c0.1,0.36667 0.21667,0.73333 0.35,1.1c0.13333,0.36667 0.25,0.71667 0.35,1.05c0.07956,0.125 0.16289,0.24167 0.25,0.35c0.14622,-0.225 0.29622,-0.45833 0.45,-0.7c0.36667,-0.36667 0.73333,-0.71667 1.1,-1.05c0.36667,-0.36667 0.71667,-0.73333 1.05,-1.1c0.36667,-0.23333 0.73333,-0.46667 1.1,-0.7c0.6,-0.23333 1.18333,-0.46667 1.75,-0.7c0.36667,-0.36667 0.73333,-0.73333 1.1,-1.1c0.36667,-0.33333 0.71667,-0.68333 1.05,-1.05c0.36667,-0.36667 0.73333,-0.73333 1.1,-1.1c0.33333,-0.33333 0.68333,-0.68333 1.05,-1.05c0.36667,-0.23333 0.73333,-0.46667 1.1,-0.7c0.56667,-0.23333 1.15,-0.46667 1.75,-0.7c0.36667,-0.36667 0.73333,-0.73333 1.1,-1.1c0.23333,-0.23333 0.46667,-0.46667 0.7,-0.7c0.23333,-0.13333 0.46667,-0.25 0.7,-0.35c0.5,-0.13333 0.98333,-0.26667 1.45,-0.4c0.7,-0.23333 1.4,-0.48333 2.1,-0.75c0.86667,-0.3 1.71667,-0.63333 2.55,-1c0.33333,-0.23333 0.68333,-0.46667 1.05,-0.7c0.46667,-0.13333 0.95,-0.23333 1.45,-0.3c0.93333,-0.16667 1.88333,-0.31667 2.85,-0.45c0.6,-0.23333 1.2,-0.45 1.8,-0.65c0.8,-0.26667 1.61667,-0.51667 2.45,-0.75c2.03333,-0.23333 4.06667,-0.48333 6.1,-0.75c0.83333,-0.23333 1.66667,-0.45 2.5,-0.65c1.06667,-0.26667 2.13333,-0.53333 3.2,-0.8c0.83333,-0.2 1.66667,-0.41667 2.5,-0.65c6.2,0 12.4,0 18.6,0c0.7,0.23333 1.4,0.46667 2.1,0.7c0.96667,0.36667 1.93333,0.71667 2.9,1.05c0.46667,0.36667 0.93333,0.73333 1.4,1.1c0.23333,0.23333 0.46667,0.46667 0.7,0.7c0.13333,0.13333 0.26667,0.23333 0.4,0.3c0.56667,0.26667 1.15,0.51667 1.75,0.75c0.36667,0.26667 0.73333,0.51667 1.1,0.75c0.6,0.23333 1.18333,0.46667 1.75,0.7c0.36667,0.23333 0.73333,0.46667 1.1,0.7c0.6,0.23333 1.2,0.48333 1.8,0.75c0.33333,0.33333 0.68333,0.68333 1.05,1.05c0.23333,0.36667 0.46667,0.71667 0.7,1.05c0.6,0.36667 1.2,0.73333 1.8,1.1c0.36667,0.33333 0.71667,0.68333 1.05,1.05c0.36667,0.13333 0.73333,0.25 1.1,0.35c0.23333,-0.23333 0.46667,-0.46667 0.7,-0.7c0.13333,-0.36667 0.25,-0.71667 0.35,-1.05c0.23333,-0.36667 0.48333,-0.73333 0.75,-1.1c0.1,-0.33333 0.21667,-0.68333 0.35,-1.05c0.23333,-0.36667 0.46667,-0.73333 0.7,-1.1c0.36667,-0.33333 0.71667,-0.68333 1.05,-1.05c0.96667,-0.36667 1.93333,-0.71667 2.9,-1.05c0.7,-0.26667 1.41667,-0.5 2.15,-0.7c0.56667,-0.13333 1.15,-0.26667 1.75,-0.4c5.36667,-0.23333 10.71667,-0.46667 16.05,-0.7c0.83333,-0.23333 1.66667,-0.46667 2.5,-0.7c2.4,0 4.78333,0 7.15,0c0.73333,0.23333 1.45,0.46667 2.15,0.7c3.23333,0 6.45,0 9.65,0c0.83333,-0.23333 1.66667,-0.46667 2.5,-0.7c4.4,-0.26667 8.8,-0.51667 13.2,-0.75c0.83333,-0.23333 1.66667,-0.46667 2.5,-0.7c3.93333,-0.23333 7.86667,-0.5 11.8,-0.8c0.83333,-0.06667 1.65,-0.21667 2.45,-0.45c0.03333,0 0.05,-0.06667 0.05,-0.2c6.2,0 12.38333,0 18.55,0c0.73333,0.26667 1.45,0.51667 2.15,0.75c0.36667,0.33333 0.73333,0.68333 1.1,1.05c0.23333,0.36667 0.46667,0.73333 0.7,1.1c0.1,0.33333 0.21667,0.68333 0.35,1.05c0,0.36667 0,0.71667 0,1.05c0,0.36667 0,0.73333 0,1.1c0,0.7 0,1.41667 0,2.15c0,0.7 0,1.41667 0,2.15c0,0.7 0,1.4 0,2.1c0,0.73333 0,1.45 0,2.15c0,0.05951 0,0.10951 0,0.15c0.23737,-0.15313 0.4707,-0.31979 0.7,-0.5c0.36667,-0.36667 0.73333,-0.71667 1.1,-1.05c0.33333,-0.36667 0.68333,-0.73333 1.05,-1.1c0.23333,-0.23333 0.46667,-0.46667 0.7,-0.7c0.26667,-0.13333 0.51667,-0.25 0.75,-0.35c0.6,-0.23333 1.18333,-0.46667 1.75,-0.7c0.36667,-0.26667 0.73333,-0.51667 1.1,-0.75c0.46667,-0.1 0.93333,-0.21667 1.4,-0.35c0.6,-0.23333 1.2,-0.46667 1.8,-0.7c0.46667,-0.36667 0.95,-0.71667 1.45,-1.05c0.33333,-0.26667 0.68333,-0.51667 1.05,-0.75c0.6,-0.23333 1.2,-0.46667 1.8,-0.7c0.36667,-0.23333 0.71667,-0.46667 1.05,-0.7c0.6,-0.26667 1.2,-0.51667 1.8,-0.75c0.36667,-0.33333 0.71667,-0.68333 1.05,-1.05c0.36667,-0.36667 0.73333,-0.73333 1.1,-1.1c0.36667,-0.33333 0.71667,-0.68333 1.05,-1.05c0.36667,-0.36667 0.73333,-0.71667 1.1,-1.05c0.33333,-0.26667 0.68333,-0.51667 1.05,-0.75c0.46667,-0.1 0.95,-0.16667 1.45,-0.2c5.23333,-0.2 10.46667,-0.36667 15.7,-0.5c0.7,0.23333 1.41667,0.46667 2.15,0.7c5.46667,0.23333 10.93333,0.48333 16.4,0.75c0.73333,0.23333 1.45,0.46667 2.15,0.7c0.36667,0.36667 0.73333,0.71667 1.1,1.05c0.1,0.36667 0.21667,0.73333 0.35,1.1c0.1,0.33333 0.21667,0.68333 0.35,1.05c0.36667,0.36667 0.71667,0.73333 1.05,1.1c0.36667,0.33333 0.73333,0.68333 1.1,1.05c0.1,0.36667 0.21667,0.71667 0.35,1.05c0.1,0.36667 0.21667,0.73333 0.35,1.1c0.23333,0.36667 0.46667,0.71667 0.7,1.05c0.23333,0.36667 0.48333,0.73333 0.75,1.1c0.23333,0.33333 0.46667,0.68333 0.7,1.05c0.23333,0.36667 0.46667,0.71667 0.7,1.05c0.23333,0 0.46667,0 0.7,0c0,-0.33333 0,-0.68333 0,-1.05c0.26667,-0.36667 0.51667,-0.71667 0.75,-1.05c0.1,-0.36667 0.21667,-0.73333 0.35,-1.1c0.1,-0.33333 0.21667,-0.68333 0.35,-1.05c0.23333,-0.36667 0.46667,-0.73333 0.7,-1.1c0.5,-0.33333 0.98333,-0.68333 1.45,-1.05c0.23333,-0.36667 0.46667,-0.71667 0.7,-1.05c0.83333,-0.36667 1.66667,-0.73333 2.5,-1.1c0.36667,-0.23333 0.73333,-0.46667 1.1,-0.7c0.56667,-0.13333 1.15,-0.26667 1.75,-0.4c1.06667,-0.2 2.13333,-0.43333 3.2,-0.7c0.86667,-0.23333 1.71667,-0.46667 2.55,-0.7c4.86667,-0.23333 9.73333,-0.46667 14.6,-0.7c0.83333,-0.23333 1.66667,-0.46667 2.5,-0.7c2.5,-0.26667 5,-0.51667 7.5,-0.75c0.83333,-0.23333 1.66667,-0.46667 2.5,-0.7c3.46667,-0.23333 6.91667,-0.46667 10.35,-0.7c0.83333,-0.23333 1.66667,-0.48333 2.5,-0.75c6.33333,-0.23333 12.65,-0.46667 18.95,-0.7c0.83333,-0.23333 1.66667,-0.46667 2.5,-0.7c2.03333,-0.23333 4.05,-0.46667 6.05,-0.7c0.83333,-0.26667 1.66667,-0.51667 2.5,-0.75c2.03333,-0.23333 4.06667,-0.46667 6.1,-0.7c0.83333,-0.13333 1.65,-0.3 2.45,-0.5c0.03333,-0.03333 0.05,-0.1 0.05,-0.2c1.43333,0 2.86667,0 4.3,0c0.7,0.23333 1.4,0.46667 2.1,0.7c0.36667,0.36667 0.73333,0.71667 1.1,1.05c0.36667,0.26667 0.71667,0.51667 1.05,0.75c0.13333,0.1 0.25,0.21667 0.35,0.35c0.6,0.23333 1.2,0.46667 1.8,0.7c0.36667,0.36667 0.73333,0.73333 1.1,1.1c0.33333,0.33333 0.68333,0.68333 1.05,1.05c0.175,0.275 0.34167,0.54167 0.5,0.8c0.19167,-0.25833 0.375,-0.525 0.55,-0.8c0.23333,-0.36667 0.48333,-0.71667 0.75,-1.05c0.1,-0.36667 0.21667,-0.73333 0.35,-1.1c0.23333,-0.36667 0.46667,-0.71667 0.7,-1.05c0.13333,-0.36667 0.25,-0.73333 0.35,-1.1c0,-0.33333 0,-0.68333 0,-1.05c0.13333,-0.36667 0.25,-0.73333 0.35,-1.1c0.23333,-0.33333 0.48333,-0.68333 0.75,-1.05c0.33333,-0.36667 0.68333,-0.71667 1.05,-1.05c0.36667,-0.26667 0.71667,-0.51667 1.05,-0.75c0.13333,-0.1 0.26667,-0.18333 0.4,-0.25c0.56667,-0.16667 1.15,-0.31667 1.75,-0.45c0.6,-0.23333 1.2,-0.46667 1.8,-0.7c0.83333,-0.13333 1.65,-0.31667 2.45,-0.55c0.03333,0 0.05,-0.06667 0.05,-0.2c3.33333,0 6.66667,0 10,0c0.7,0.26667 1.41667,0.51667 2.15,0.75c5.93333,0.23333 11.88333,0.46667 17.85,0.7c0.7,0.23333 1.41667,0.46667 2.15,0.7c2.13333,0.23333 4.26667,0.48333 6.4,0.75c0.73333,0.23333 1.45,0.46667 2.15,0.7c5.96667,0.23333 11.91667,0.46667 17.85,0.7c0.73333,0.23333 1.45,0.46667 2.15,0.7c0.73333,0.26667 1.45,0.5 2.15,0.7c0.83333,0.26667 1.66667,0.51667 2.5,0.75c0.6,0.36667 1.2,0.71667 1.8,1.05c0.23333,0.26667 0.46667,0.51667 0.7,0.75c0.13333,0.1 0.26667,0.18333 0.4,0.25c0.56667,0.16667 1.15,0.31667 1.75,0.45c0.6,0.23333 1.2,0.46667 1.8,0.7c0.33333,0.36667 0.68333,0.73333 1.05,1.1c0.23333,0.33333 0.46667,0.68333 0.7,1.05c0,0.36667 0,0.73333 0,1.1c0,0.33333 0,0.68333 0,1.05c0,0.36667 0,0.71667 0,1.05c0,0.36667 0,0.73333 0,1.1c0.13333,0.36667 0.25,0.71667 0.35,1.05c0.26667,0.36667 0.51667,0.73333 0.75,1.1c0.1,0.33333 0.21667,0.68333 0.35,1.05c0,0.36667 0,0.73333 0,1.1c0,0.33333 0,0.68333 0,1.05c0,0.36667 0,0.71667 0,1.05c0,0.36667 0,0.73333 0,1.1c0,0.33333 0,0.68333 0,1.05c0,0.36667 0,0.73333 0,1.1c0,0.33333 0,0.68333 0,1.05c0,0.7 0,1.41667 0,2.15c0,0.7 0,1.41667 0,2.15c0,1.06667 0,2.13333 0,3.2c0,1.06667 0,2.13333 0,3.2c0,1.06667 0,2.15 0,3.25c-0.23333,0.33333 -0.46667,0.68333 -0.7,1.05c-0.13333,0.36667 -0.26667,0.71667 -0.4,1.05c-0.1,0.36667 -0.21667,0.73333 -0.35,1.1c0,0.36667 0,0.71667 0,1.05c0,0.36667 0,0.73333 0,1.1c0,0.33333 0,0.68333 0,1.05c0,0.36667 0,0.73333 0,1.1c0,0.33333 0,0.68333 0,1.05c0,0.36667 0,0.71667 0,1.05c0,0.36667 0,0.73333 0,1.1c-0.1,0.36667 -0.21667,0.71667 -0.35,1.05c-0.23333,0.36667 -0.46667,0.73333 -0.7,1.1c0,0.33333 0,0.68333 0,1.05c0,0.36667 0,0.73333 0,1.1c0,0.33333 0,0.68333 0,1.05c0,0.36667 0,0.71667 0,1.05c0,0.36667 0,0.73333 0,1.1c0,0.36667 0,0.71667 0,1.05c0,0.36667 0,0.73333 0,1.1c0,1.06667 0,2.13333 0,3.2c0,1.8 0,3.58333 0,5.35c0,2.13333 0,4.28333 0,6.45c0,2.13333 0,4.26667 0,6.4c0,1.06667 0,2.15 0,3.25c-0.13333,0.33333 -0.25,0.68333 -0.35,1.05c-0.13698,0.21523 -0.28698,0.41523 -0.45,0.6c0.04062,0.04297 0.07396,0.0763 0.1,0.1c0.1,0.36667 0.21667,0.73333 0.35,1.1c0.1,0.33333 0.21667,0.68333 0.35,1.05c-0.13333,0.36667 -0.25,0.73333 -0.35,1.1c-0.13333,0.33333 -0.25,0.68333 -0.35,1.05c-0.36667,0.36667 -0.73333,0.71667 -1.1,1.05c-0.7,0.23333 -1.41667,0.48333 -2.15,0.75c-6.3,0.23333 -12.6,0.46667 -18.9,0.7c0,0.2224 0,0.43906 0,0.65c0.5862,-0.02526 1.16953,-0.05859 1.75,-0.1c0.03333,0 0.05,-0.06667 0.05,-0.2c2.36667,0 4.73333,0 7.1,0c0.6,0.23333 1.2,0.46667 1.8,0.7c1.3,0.13333 2.61667,0.25 3.95,0.35c0.46667,0 0.93333,0 1.4,0c0.73333,0.26667 1.45,0.48333 2.15,0.65c1.2,0.3 2.38333,0.6 3.55,0.9c0.73333,0.16667 1.45,0.36667 2.15,0.6c0.36667,0.36667 0.73333,0.73333 1.1,1.1c0.1,0.33333 0.21667,0.68333 0.35,1.05c0.1,0.36667 0.21667,0.73333 0.35,1.1c-0.13333,0.33333 -0.25,0.68333 -0.35,1.05c-0.13333,0.36667 -0.25,0.71667 -0.35,1.05c-0.25,0.25 -0.5,0.5 -0.75,0.75c0,0.33333 0,0.68333 0,1.05c0,2.13333 0,4.28333 0,6.45c0,0.7 0,1.41667 0,2.15c0,0.33333 0,0.68333 0,1.05c0,2.86667 0,5.71667 0,8.55c0,0.36667 0,0.73333 0,1.1c0,0.36667 0,0.71667 0,1.05c0,0.36667 0,0.73333 0,1.1c0,2.13333 0,4.26667 0,6.4c0,2.5 0,5 0,7.5c-0.23333,0.36667 -0.46667,0.73333 -0.7,1.1c-0.23333,0.33333 -0.46667,0.68333 -0.7,1.05c0,0.36667 0,0.73333 0,1.1c0,0.33333 0,0.68333 0,1.05c0,0.36667 0,0.71667 0,1.05c-0.13333,0.36667 -0.25,0.73333 -0.35,1.1c-0.23333,0.36667 -0.48333,0.71667 -0.75,1.05c-0.23333,0.23333 -0.46667,0.48333 -0.7,0.75c-0.1,0.1 -0.23333,0.18333 -0.4,0.25c-0.56667,0.16667 -1.15,0.31667 -1.75,0.45c-4.26667,0 -8.55,0 -12.85,0c-0.83333,-0.23333 -1.66667,-0.46667 -2.5,-0.7c-2.73333,0 -5.46667,0 -8.2,0c-0.7,0.23333 -1.41667,0.46667 -2.15,0.7c-3.56667,0.23333 -7.13333,0.46667 -10.7,0.7c-0.73333,0.23333 -1.45,0.46667 -2.15,0.7c-12.96667,0.26667 -25.95,0.51667 -38.95,0.75c-0.83333,0.23333 -1.66667,0.46667 -2.5,0.7c-0.46667,0 -0.93333,0.01667 -1.4,0.05c-1.3,0.1 -2.61667,0.2 -3.95,0.3c-0.56667,0.23333 -1.15,0.46667 -1.75,0.7c-1.9,0 -3.81667,0 -5.75,0c-0.7,-0.23333 -1.4,-0.46667 -2.1,-0.7c-0.36667,-0.36667 -0.73333,-0.71667 -1.1,-1.05c-0.1,-0.36667 -0.21667,-0.73333 -0.35,-1.1c-0.13333,-0.33333 -0.25,-0.68333 -0.35,-1.05c-0.36667,-0.36667 -0.73333,-0.73333 -1.1,-1.1c0,-0.33333 0,-0.68333 0,-1.05c-0.23333,-0.36667 -0.46667,-0.71667 -0.7,-1.05c-0.23333,-0.36667 -0.46667,-0.73333 -0.7,-1.1c-0.13333,-0.36667 -0.25,-0.71667 -0.35,-1.05c-0.23333,-0.36667 -0.48333,-0.73333 -0.75,-1.1c-0.1,-0.33333 -0.21667,-0.68333 -0.35,-1.05c0,-0.36667 0,-0.73333 0,-1.1c0,-0.33333 0,-0.68333 0,-1.05c0,-0.36667 0,-0.71667 0,-1.05c-0.23333,-0.36667 -0.46667,-0.73333 -0.7,-1.1c-0.23333,-0.36667 -0.46667,-0.71667 -0.7,-1.05c0,-0.36667 0,-0.73333 0,-1.1c0,-0.33333 0,-0.68333 0,-1.05c0.1,-0.36667 0.21667,-0.73333 0.35,-1.1c-0.13333,-0.33333 -0.25,-0.68333 -0.35,-1.05c-0.10208,-0.16042 -0.21875,-0.32708 -0.35,-0.5c0.01107,0.05951 0.01107,0.10951 0,0.15c-0.26667,0.36667 -0.51667,0.71667 -0.75,1.05c0,0.36667 0,0.73333 0,1.1c-0.1,0.33333 -0.21667,0.68333 -0.35,1.05c-0.1,0.36667 -0.21667,0.73333 -0.35,1.1c-0.23333,0.33333 -0.46667,0.68333 -0.7,1.05c-0.13333,0.36667 -0.25,0.71667 -0.35,1.05c-0.26667,0.36667 -0.51667,0.73333 -0.75,1.1c-0.1,0.36667 -0.21667,0.71667 -0.35,1.05c0,0.36667 0,0.73333 0,1.1c-0.1,0.33333 -0.21667,0.68333 -0.35,1.05c-0.23333,0.36667 -0.46667,0.73333 -0.7,1.1c-0.36667,0.33333 -0.73333,0.68333 -1.1,1.05c-0.33333,0.36667 -0.68333,0.71667 -1.05,1.05c-0.6,0.26667 -1.2,0.51667 -1.8,0.75c-0.6,0.1 -1.2,0.21667 -1.8,0.35c-0.46667,0 -0.93333,0 -1.4,0c-0.83333,-0.23333 -1.66667,-0.46667 -2.5,-0.7c-0.23333,-0.26667 -0.46667,-0.51667 -0.7,-0.75c-1.33333,0 -2.65,0.01667 -3.95,0.05c-2.63333,0.1 -5.25,0.2 -7.85,0.3c-0.73333,0.26667 -1.45,0.51667 -2.15,0.75c-5,0.23333 -10,0.46667 -15,0.7c-0.6,0.23333 -1.2,0.46667 -1.8,0.7c-0.6,0.13333 -1.18333,0.25 -1.75,0.35c-0.96667,0 -1.91667,0 -2.85,0c-0.83333,-0.23333 -1.66667,-0.46667 -2.5,-0.7c-0.36667,-0.36667 -0.73333,-0.71667 -1.1,-1.05c-0.36667,-0.36667 -0.71667,-0.73333 -1.05,-1.1c-0.23333,-0.33333 -0.48333,-0.68333 -0.75,-1.05c-0.1,-0.36667 -0.21667,-0.73333 -0.35,-1.1c-0.23333,-0.33333 -0.46667,-0.68333 -0.7,-1.05c-0.36667,-0.36667 -0.71667,-0.71667 -1.05,-1.05c-0.26667,-0.36667 -0.51667,-0.73333 -0.75,-1.1c-0.1,-0.36667 -0.21667,-0.71667 -0.35,-1.05c0,-0.36667 0,-0.73333 0,-1.1c-0.1,-0.23333 -0.21667,-0.46667 -0.35,-0.7c0,0.36667 0,0.71667 0,1.05c-0.13333,0.36667 -0.25,0.73333 -0.35,1.1c-0.13333,0.36667 -0.25,0.71667 -0.35,1.05c-0.23333,0.36667 -0.48333,0.73333 -0.75,1.1c0,0.33333 0,0.68333 0,1.05c0.13333,0.36667 0.26667,0.73333 0.4,1.1c0,0.33333 0,0.68333 0,1.05c-0.26667,0.36667 -0.51667,0.71667 -0.75,1.05c-0.1,0.36667 -0.21667,0.73333 -0.35,1.1c-0.23333,0.23333 -0.46667,0.46667 -0.7,0.7c-0.23333,0.13333 -0.46667,0.25 -0.7,0.35c-0.6,0.13333 -1.2,0.25 -1.8,0.35c-10.96667,0 -21.91667,0 -32.85,0c-0.83333,-0.23333 -1.66667,-0.46667 -2.5,-0.7c-0.23333,-0.23333 -0.48333,-0.46667 -0.75,-0.7c-1.06667,0.1 -2.13333,0.21667 -3.2,0.35c-0.7,0.23333 -1.41667,0.46667 -2.15,0.7c-1.43333,0 -2.85,0 -4.25,0c-0.83333,-0.23333 -1.66667,-0.46667 -2.5,-0.7c-0.26667,-0.36667 -0.51667,-0.71667 -0.75,-1.05c-0.23333,-0.36667 -0.46667,-0.73333 -0.7,-1.1c-0.13333,-0.36667 -0.25,-0.71667 -0.35,-1.05c-0.23333,-0.36667 -0.46667,-0.73333 -0.7,-1.1c-0.13333,-0.33333 -0.25,-0.68333 -0.35,-1.05c0,-0.36667 0,-0.73333 0,-1.1c-0.13333,-0.33333 -0.26667,-0.68333 -0.4,-1.05c-0.23333,-0.36667 -0.46667,-0.71667 -0.7,-1.05c-0.1,-0.36667 -0.21667,-0.73333 -0.35,-1.1c0,-0.36667 0,-0.71667 0,-1.05c-0.13333,-0.36667 -0.25,-0.73333 -0.35,-1.1c-0.23333,-0.33333 -0.46667,-0.68333 -0.7,-1.05c-0.13333,-0.36667 -0.26667,-0.73333 -0.4,-1.1c-0.1,-0.33333 -0.21667,-0.68333 -0.35,-1.05c-0.1,0.23333 -0.21667,0.46667 -0.35,0.7c-0.1,0.36667 -0.21667,0.73333 -0.35,1.1c-0.23333,0.33333 -0.46667,0.68333 -0.7,1.05c-0.13333,0.36667 -0.25,0.73333 -0.35,1.1c-0.26667,0.33333 -0.51667,0.68333 -0.75,1.05c-0.23333,0.36667 -0.46667,0.71667 -0.7,1.05c-0.13333,0.36667 -0.25,0.73333 -0.35,1.1c-0.13333,0.36667 -0.25,0.71667 -0.35,1.05c-0.23333,0.36667 -0.48333,0.73333 -0.75,1.1c0,0.33333 0,0.68333 0,1.05c-0.1,0.36667 -0.21667,0.73333 -0.35,1.1c-0.1,0.33333 -0.21667,0.68333 -0.35,1.05c-0.36667,0.36667 -0.71667,0.71667 -1.05,1.05c-0.36667,0.36667 -0.73333,0.73333 -1.1,1.1c-0.23333,0.23333 -0.46667,0.46667 -0.7,0.7c-0.6,0.13333 -1.2,0.25 -1.8,0.35c-0.93333,0 -1.88333,0 -2.85,0c-0.83333,-0.23333 -1.66667,-0.46667 -2.5,-0.7c-1.76667,0 -3.55,0 -5.35,0c-0.7,0.23333 -1.41667,0.46667 -2.15,0.7c-2.86667,0 -5.71667,0 -8.55,0c-0.83333,-0.23333 -1.66667,-0.46667 -2.5,-0.7c-0.23333,-0.36667 -0.48333,-0.71667 -0.75,-1.05c-0.23333,-0.36667 -0.46667,-0.73333 -0.7,-1.1c0,-0.36667 0,-0.71667 0,-1.05c-0.1,-0.36667 -0.21667,-0.73333 -0.35,-1.1c-0.23333,-0.33333 -0.46667,-0.68333 -0.7,-1.05c-0.36667,0.23333 -0.73333,0.46667 -1.1,0.7c-0.23333,0.36667 -0.46667,0.73333 -0.7,1.1c-0.36667,0.23333 -0.71667,0.46667 -1.05,0.7c-0.13333,0.1 -0.26667,0.18333 -0.4,0.25c-0.56667,0.2 -1.15,0.35 -1.75,0.45c-9.06667,0 -18.11667,0 -27.15,0c-0.83333,-0.23333 -1.66667,-0.46667 -2.5,-0.7c-3.93333,-0.23333 -7.86667,-0.46667 -11.8,-0.7c-0.83333,-0.26667 -1.66667,-0.51667 -2.5,-0.75c-0.23333,-0.33333 -0.46667,-0.68333 -0.7,-1.05c-0.23333,-0.36667 -0.46667,-0.73333 -0.7,-1.1c0,-0.33333 0,-0.68333 0,-1.05c-0.13333,-0.36667 -0.25,-0.71667 -0.35,-1.05c-0.13333,-0.36667 -0.26667,-0.73333 -0.4,-1.1c-0.23333,-0.36667 -0.46667,-0.71667 -0.7,-1.05c0,-0.36667 0,-0.73333 0,-1.1c0,-0.33333 0,-0.68333 0,-1.05c0,-0.36667 0,-0.73333 0,-1.1c-0.23333,-0.33333 -0.46667,-0.68333 -0.7,-1.05c-0.23333,-0.36667 -0.46667,-0.71667 -0.7,-1.05c0,-0.36667 0,-0.73333 0,-1.1c-0.13333,-0.23333 -0.26667,-0.46667 -0.4,-0.7c-0.1,0.36667 -0.21667,0.71667 -0.35,1.05c0,0.36667 0,0.73333 0,1.1c-0.1,0.33333 -0.21667,0.68333 -0.35,1.05c-0.23333,0.36667 -0.46667,0.73333 -0.7,1.1c-0.23333,0.23333 -0.46667,0.46667 -0.7,0.7c-0.13333,0.1 -0.26667,0.18333 -0.4,0.25c-0.56667,0.2 -1.15,0.35 -1.75,0.45c-4.06667,0.23333 -8.11667,0.46667 -12.15,0.7c-0.73333,0.26667 -1.45,0.48333 -2.15,0.65c-1.2,0.3 -2.38333,0.6 -3.55,0.9c-0.73333,0.16667 -1.45,0.36667 -2.15,0.6c-1.66667,0.23333 -3.33333,0.48333 -5,0.75c-0.73333,0.23333 -1.45,0.46667 -2.15,0.7c-5.73333,-0.13333 -11.45,-0.25 -17.15,-0.35c-0.7,-0.23333 -1.41667,-0.48333 -2.15,-0.75c-0.33333,-0.33333 -0.68333,-0.68333 -1.05,-1.05c-0.36667,-0.36667 -0.73333,-0.71667 -1.1,-1.05c-0.33333,-0.36667 -0.68333,-0.73333 -1.05,-1.1c-0.36667,-0.36667 -0.71667,-0.71667 -1.05,-1.05c0,-0.36667 0,-0.73333 0,-1.1c0,-0.33333 0,-0.68333 0,-1.05c0.1,-0.36667 0.21667,-0.73333 0.35,-1.1c-0.13333,-0.33333 -0.25,-0.68333 -0.35,-1.05c-0.26667,-0.36667 -0.51667,-0.71667 -0.75,-1.05c-0.1,-0.36667 -0.21667,-0.73333 -0.35,-1.1c0,-0.05456 0,-0.10456 0,-0.15c-0.23333,0.16667 -0.46667,0.33333 -0.7,0.5c-0.73333,0.36667 -1.45,0.73333 -2.15,1.1c-0.7,0.7 -1.41667,1.41667 -2.15,2.15c-0.7,0.7 -1.41667,1.4 -2.15,2.1c-0.7,0.73333 -1.41667,1.45 -2.15,2.15c-1.06667,1.06667 -2.13333,2.15 -3.2,3.25c-0.36667,0.23333 -0.71667,0.46667 -1.05,0.7c-0.6,0.23333 -1.2,0.46667 -1.8,0.7c-0.36667,0.36667 -0.71667,0.73333 -1.05,1.1c-0.26667,0.23333 -0.51667,0.46667 -0.75,0.7c-0.23333,0.1 -0.46667,0.21667 -0.7,0.35c-0.6,0.23333 -1.2,0.46667 -1.8,0.7c-0.33333,0.23333 -0.68333,0.48333 -1.05,0.75c-0.6,0.23333 -1.2,0.46667 -1.8,0.7c-0.36667,0.23333 -0.71667,0.46667 -1.05,0.7c-0.6,0.23333 -1.2,0.46667 -1.8,0.7c-0.36667,0.36667 -0.71667,0.73333 -1.05,1.1c-0.26667,0.23333 -0.51667,0.46667 -0.75,0.7c-0.23333,0.13333 -0.46667,0.25 -0.7,0.35c-0.6,0.13333 -1.2,0.25 -1.8,0.35c-0.7,0.13333 -1.41667,0.26667 -2.15,0.4c-0.7,0.23333 -1.4,0.46667 -2.1,0.7c-1.93333,0 -3.85,0 -5.75,0c-0.83333,-0.23333 -1.66667,-0.46667 -2.5,-0.7c-1.53333,-0.26667 -3.08333,-0.51667 -4.65,-0.75c-0.83333,-0.23333 -1.65,-0.48333 -2.45,-0.75c-0.6,-0.2 -1.21667,-0.4 -1.85,-0.6c-0.8,-0.26667 -1.61667,-0.53333 -2.45,-0.8c-0.13333,-0.23333 -0.25,-0.46667 -0.35,-0.7c-0.83333,-0.23333 -1.66667,-0.46667 -2.5,-0.7c-0.36667,-0.36667 -0.73333,-0.73333 -1.1,-1.1c-0.23333,-0.23333 -0.46667,-0.46667 -0.7,-0.7c-0.13333,-0.1 -0.26667,-0.18333 -0.4,-0.25c-0.7,-0.3 -1.4,-0.56667 -2.1,-0.8c-0.23333,-0.36667 -0.46667,-0.73333 -0.7,-1.1c-0.36667,-0.23333 -0.73333,-0.46667 -1.1,-0.7c-0.1,-0.13333 -0.23333,-0.21667 -0.4,-0.25c-0.66667,-0.3 -1.36667,-0.56667 -2.1,-0.8c-0.1,-0.26667 -0.21667,-0.51667 -0.35,-0.75c-0.83333,-0.23333 -1.66667,-0.46667 -2.5,-0.7c-0.23333,-0.36667 -0.46667,-0.71667 -0.7,-1.05c-0.46667,-0.36667 -0.95,-0.73333 -1.45,-1.1c-0.33333,-0.36667 -0.68333,-0.71667 -1.05,-1.05c-0.23333,-0.36667 -0.46667,-0.73333 -0.7,-1.1c-0.26667,-0.33333 -0.51667,-0.68333 -0.75,-1.05c-0.33333,-0.36667 -0.68333,-0.73333 -1.05,-1.1c-0.36667,-0.33333 -0.73333,-0.68333 -1.1,-1.05c-0.23333,-0.23333 -0.46667,-0.46667 -0.7,-0.7c-0.7,-0.23333 -1.41667,-0.48333 -2.15,-0.75c-0.33333,-0.33333 -0.68333,-0.68333 -1.05,-1.05c-0.36667,-0.36667 -0.73333,-0.71667 -1.1,-1.05c-0.23333,-0.36667 -0.46667,-0.73333 -0.7,-1.1c-0.1,-0.36667 -0.21667,-0.71667 -0.35,-1.05c-0.23333,-0.36667 -0.46667,-0.73333 -0.7,-1.1c-0.29531,-0.26849 -0.59531,-0.55182 -0.9,-0.85c-0.17865,0.29818 -0.36198,0.58151 -0.55,0.85c-0.36667,0.36667 -0.71667,0.73333 -1.05,1.1c-0.36667,0.33333 -0.73333,0.68333 -1.1,1.05c-0.6,0.36667 -1.18333,0.73333 -1.75,1.1c-0.36667,0.33333 -0.73333,0.68333 -1.1,1.05c-0.23333,0.36667 -0.46667,0.71667 -0.7,1.05c-0.23333,0.36667 -0.46667,0.73333 -0.7,1.1c-0.36667,0.36667 -0.73333,0.71667 -1.1,1.05c-0.36667,0.36667 -0.71667,0.73333 -1.05,1.1c-0.36667,0.33333 -0.73333,0.68333 -1.1,1.05c-0.33333,0.36667 -0.68333,0.73333 -1.05,1.1c-0.36667,0.33333 -0.73333,0.68333 -1.1,1.05c-0.33333,0.36667 -0.68333,0.71667 -1.05,1.05c-0.36667,0.36667 -0.71667,0.73333 -1.05,1.1c-0.36667,0.36667 -0.73333,0.71667 -1.1,1.05c-0.36667,0.23333 -0.71667,0.48333 -1.05,0.75c-0.13333,0.1 -0.25,0.21667 -0.35,0.35c-0.6,0.23333 -1.2,0.46667 -1.8,0.7c-0.36667,0.36667 -0.73333,0.71667 -1.1,1.05c-0.23333,0.36667 -0.46667,0.73333 -0.7,1.1c-0.23333,0.36667 -0.46667,0.71667 -0.7,1.05c-0.23333,0.36667 -0.46667,0.73333 -0.7,1.1c-0.26667,0.23333 -0.51667,0.46667 -0.75,0.7c-0.7,0.23333 -1.41667,0.46667 -2.15,0.7c-0.23333,0.23333 -0.46667,0.48333 -0.7,0.75c-0.6,0.1 -1.18333,0.23333 -1.75,0.4c-0.73333,0.2 -1.45,0.41667 -2.15,0.65c-0.73333,0.23333 -1.45,0.46667 -2.15,0.7c-0.73333,0.23333 -1.45,0.48333 -2.15,0.75c-0.73333,0.23333 -1.45,0.46667 -2.15,0.7c-0.7,0.23333 -1.41667,0.46667 -2.15,0.7c-0.7,0.23333 -1.41667,0.46667 -2.15,0.7c-0.7,0.26667 -1.4,0.51667 -2.1,0.75c-0.73333,0.23333 -1.45,0.46667 -2.15,0.7c-1.66667,0.23333 -3.33333,0.46667 -5,0.7c-0.73333,0.23333 -1.45,0.48333 -2.15,0.75c-3.1,0.23333 -6.2,0.46667 -9.3,0.7c-0.7,0.23333 -1.41667,0.46667 -2.15,0.7c-9.03333,0 -18.08333,0 -27.15,0c-0.83333,-0.23333 -1.66667,-0.45 -2.5,-0.65c-1.06667,-0.26667 -2.13333,-0.53333 -3.2,-0.8c-0.83333,-0.23333 -1.66667,-0.46667 -2.5,-0.7c-0.23333,-0.33333 -0.46667,-0.68333 -0.7,-1.05c-0.23333,-0.36667 -0.46667,-0.73333 -0.7,-1.1c0,-0.33333 0,-0.68333 0,-1.05c-0.13333,-0.36667 -0.26667,-0.71667 -0.4,-1.05c-0.1,-0.36667 -0.21667,-0.73333 -0.35,-1.1c-0.23333,-0.36667 -0.46667,-0.71667 -0.7,-1.05c0,-0.36667 0,-0.73333 0,-1.1c0,-0.33333 0,-0.68333 0,-1.05c0,-0.36667 0,-0.73333 0,-1.1c0,-0.33333 0,-0.68333 0,-1.05c-0.13333,-0.36667 -0.25,-0.71667 -0.35,-1.05c-0.23333,-0.36667 -0.46667,-0.73333 -0.7,-1.1c-0.13333,-0.36667 -0.26667,-0.71667 -0.4,-1.05c0,-0.36667 0,-0.73333 0,-1.1c0,-0.33333 0,-0.68333 0,-1.05c0,-0.36667 0,-0.73333 0,-1.1c0,-0.33333 0,-0.68333 0,-1.05c-0.23333,-0.36667 -0.46667,-0.71667 -0.7,-1.05c-0.23333,-0.36667 -0.46667,-0.73333 -0.7,-1.1c0,-0.36667 0,-0.71667 0,-1.05c0,-0.36667 0,-0.73333 0,-1.1c0,-0.33333 0,-0.68333 0,-1.05c-0.13333,-0.36667 -0.25,-0.73333 -0.35,-1.1c-0.23333,-0.33333 -0.48333,-0.68333 -0.75,-1.05c-0.1,-0.36667 -0.21667,-0.71667 -0.35,-1.05c0,-0.36667 0,-0.73333 0,-1.1c0,-0.36667 0,-0.71667 0,-1.05c-0.1,-0.36667 -0.21667,-0.73333 -0.35,-1.1c-0.1,-0.33333 -0.21667,-0.68333 -0.35,-1.05c-0.23333,-0.36667 -0.46667,-0.73333 -0.7,-1.1c0,-0.33333 0,-0.68333 0,-1.05c-0.13333,-0.36667 -0.25,-0.71667 -0.35,-1.05c-0.13333,-0.36667 -0.25,-0.73333 -0.35,-1.1c-0.26667,-0.36667 -0.51667,-0.71667 -0.75,-1.05c0,-0.36667 0,-0.73333 0,-1.1c-0.1,-0.33333 -0.21667,-0.68333 -0.35,-1.05c-0.1,-0.36667 -0.21667,-0.73333 -0.35,-1.1c-0.23333,-0.33333 -0.46667,-0.68333 -0.7,-1.05c0,-0.36667 0,-0.71667 0,-1.05c-0.13333,-0.36667 -0.25,-0.73333 -0.35,-1.1c-0.13333,-0.36667 -0.26667,-0.71667 -0.4,-1.05c-0.23333,-0.36667 -0.46667,-0.73333 -0.7,-1.1c0,-0.33333 0,-0.68333 0,-1.05c-0.1,-0.36667 -0.21667,-0.73333 -0.35,-1.1c-0.13333,-0.33333 -0.25,-0.68333 -0.35,-1.05c-0.23333,-0.36667 -0.46667,-0.71667 -0.7,-1.05c0,-0.36667 0,-0.73333 0,-1.1c-0.13333,-0.36667 -0.26667,-0.71667 -0.4,-1.05c-0.1,-0.36667 -0.21667,-0.73333 -0.35,-1.1c-0.23333,-0.33333 -0.46667,-0.68333 -0.7,-1.05c0,-0.36667 0,-0.73333 0,-1.1c-0.13333,-0.33333 -0.25,-0.68333 -0.35,-1.05c-0.13333,-0.36667 -0.25,-0.71667 -0.35,-1.05c-0.23333,-0.36667 -0.48333,-0.73333 -0.75,-1.1c-0.1,-0.36667 -0.21667,-0.71667 -0.35,-1.05c-0.23333,-0.36667 -0.46667,-0.73333 -0.7,-1.1c-0.13333,-0.33333 -0.25,-0.68333 -0.35,-1.05c-0.23333,-0.36667 -0.46667,-0.71667 -0.7,-1.05c-0.26667,-0.36667 -0.51667,-0.73333 -0.75,-1.1c0,-0.36667 0,-0.71667 0,-1.05c0,-0.36667 0,-0.73333 0,-1.1c0.13333,-0.33333 0.25,-0.68333 0.35,-1.05c0.26667,-0.36667 0.51667,-0.73333 0.75,-1.1c0.33333,-0.23333 0.68333,-0.46667 1.05,-0.7c0.6,-0.23333 1.2,-0.46667 1.8,-0.7c0.36667,-0.23333 0.71667,-0.46667 1.05,-0.7c0.6,-0.13333 1.2,-0.26667 1.8,-0.4c0.96667,-0.23333 1.91667,-0.46667 2.85,-0.7c-0.23333,-0.23333 -0.46667,-0.46667 -0.7,-0.7c-0.23333,-0.13333 -0.46667,-0.25 -0.7,-0.35c-0.5,-0.13333 -0.98333,-0.26667 -1.45,-0.4c-0.83333,-0.23333 -1.66667,-0.46667 -2.5,-0.7c-0.23333,-0.33333 -0.46667,-0.68333 -0.7,-1.05c-0.23333,-0.36667 -0.48333,-0.73333 -0.75,-1.1c0,-0.33333 0,-0.68333 0,-1.05c0,-0.36667 0,-0.71667 0,-1.05c0,-0.36667 0,-0.73333 0,-1.1c-0.23333,-0.36667 -0.46667,-0.71667 -0.7,-1.05c-0.23333,-0.36667 -0.46667,-0.73333 -0.7,-1.1c0,-0.33333 0,-0.68333 0,-1.05c0,-0.36667 0,-0.73333 0,-1.1c0,-0.33333 0,-0.68333 0,-1.05c-0.13333,-0.36667 -0.25,-0.71667 -0.35,-1.05c-0.23333,-0.36667 -0.48333,-0.73333 -0.75,-1.1c-0.1,-0.36667 -0.21667,-0.71667 -0.35,-1.05c0,-0.36667 0,-0.73333 0,-1.1c0,-0.33333 0,-0.68333 0,-1.05c-0.1,-0.36667 -0.21667,-0.73333 -0.35,-1.1c-0.23333,-0.33333 -0.46667,-0.68333 -0.7,-1.05c-0.13333,-0.36667 -0.25,-0.71667 -0.35,-1.05c0,-0.36667 0,-0.73333 0,-1.1c-0.13333,-0.36667 -0.25,-0.71667 -0.35,-1.05c-0.13333,-0.36667 -0.26667,-0.73333 -0.4,-1.1c-0.23333,-0.33333 -0.46667,-0.68333 -0.7,-1.05c0,-0.36667 0,-0.73333 0,-1.1c-0.1,-0.33333 -0.21667,-0.68333 -0.35,-1.05c-0.13333,-0.36667 -0.25,-0.71667 -0.35,-1.05c-0.23333,-0.36667 -0.46667,-0.73333 -0.7,-1.1c0,-0.36667 0,-0.71667 0,-1.05c0,-0.36667 0,-0.73333 0,-1.1c0,-0.33333 0,-0.68333 0,-1.05c0,-0.36667 0,-0.73333 0,-1.1c-0.26667,-0.33333 -0.51667,-0.68333 -0.75,-1.05c-0.1,-0.36667 -0.21667,-0.71667 -0.35,-1.05c-0.1,-0.36667 -0.21667,-0.73333 -0.35,-1.1c0,-0.36667 0,-0.71667 0,-1.05c0,-0.36667 0,-0.73333 0,-1.1c0,-0.33333 0,-0.68333 0,-1.05c0,-0.36667 0,-0.73333 0,-1.1c0,-0.33333 0,-0.68333 0,-1.05c0,-0.36667 0,-0.71667 0,-1.05c-0.13333,-0.36667 -0.25,-0.73333 -0.35,-1.1c-0.23333,-0.36667 -0.46667,-0.71667 -0.7,-1.05c-0.13333,-0.36667 -0.26667,-0.73333 -0.4,-1.1c0,-0.33333 0,-0.68333 0,-1.05c0,-0.36667 0,-0.73333 0,-1.1c0,-0.33333 0,-0.68333 0,-1.05c0,-0.36667 0,-0.71667 0,-1.05c-0.23333,-0.36667 -0.46667,-0.73333 -0.7,-1.1c-0.1,-0.36667 -0.21667,-0.71667 -0.35,-1.05c-0.13333,-0.36667 -0.25,-0.73333 -0.35,-1.1c0,-0.33333 0,-0.68333 0,-1.05c0,-0.36667 0,-0.73333 0,-1.1c-0.13333,-0.33333 -0.25,-0.68333 -0.35,-1.05c-0.13333,-0.36667 -0.25,-0.71667 -0.35,-1.05c-0.26667,-0.36667 -0.51667,-0.73333 -0.75,-1.1c0,-0.33333 0,-0.68333 0,-1.05c0,-0.36667 0,-0.73333 0,-1.1c0,-0.33333 0,-0.68333 0,-1.05c0,-0.36667 0,-0.71667 0,-1.05c0,-0.36667 0,-0.73333 0,-1.1c0.23333,-0.36667 0.48333,-0.71667 0.75,-1.05c0.33333,-0.23333 0.68333,-0.48333 1.05,-0.75c0.13333,-0.1 0.26667,-0.18333 0.4,-0.25c0.56667,-0.16667 1.15,-0.31667 1.75,-0.45c1.06667,-0.23333 2.13333,-0.48333 3.2,-0.75c0.83333,-0.2 1.66667,-0.41667 2.5,-0.65c2.03333,-0.26667 4.06667,-0.51667 6.1,-0.75c0.83333,-0.33333 1.66667,-0.68333 2.5,-1.05c0.33333,-0.23333 0.68333,-0.46667 1.05,-0.7c0.46667,-0.13333 0.95,-0.25 1.45,-0.35c0.56667,-0.13333 1.15,-0.26667 1.75,-0.4c1.06667,-0.23333 2.13333,-0.48333 3.2,-0.75c0.83333,-0.2 1.66667,-0.41667 2.5,-0.65c3,-0.23333 5.98333,-0.5 8.95,-0.8z"/></g><g fill="#ffffff"><path d="M475.50076,367.45c-2.93333,17.13333 -11.88333,29.88333 -26.85,38.25c-2.46667,1.33333 -5.03333,2.21667 -7.7,2.65c-18.03333,2.1 -36.15,3.31667 -54.35,3.65c-2.43333,0.03333 -4.61667,-0.65 -6.55,-2.05l-5.65,-29.45l29.7,-1.2l-6.9,-30.8l-26.15,2.35c-1.96667,-4.3 -3.53333,-8.75 -4.7,-13.35c-2.06667,-8.3 -2.75,-16.51667 -2.05,-24.65l2.65,0.25c2.83333,-1.5 5.83333,-2.68333 9,-3.55c18.53333,-4.9 37.28333,-5.76667 56.25,-2.6c20.46667,3.26667 34.18333,14.63333 41.15,34.1c2.96667,8.6 3.68333,17.4 2.15,26.4M421.45076,343.65l7.7,24c5.6,-0.13333 9.35,-3.26667 11.25,-9.4c0.66667,-2.13333 0.51667,-4.16667 -0.45,-6.1c-3.66667,-7.5 -9.83333,-10.33333 -18.5,-8.5M562.65076,346.8c1.6,5.66667 2.35,11.43333 2.25,17.3c-0.16667,11.23333 -4.28333,20.68333 -12.35,28.35c-7.43333,7 -16.33333,11.11667 -26.7,12.35c-6.9,0.7 -13.65,0.25 -20.25,-1.35c-14.63333,-3.6 -22.78333,-13.06667 -24.45,-28.4c-0.73333,-6.6 -1.15,-13.21667 -1.25,-19.85c-0.16667,-8.56667 1.01667,-16.88333 3.55,-24.95c1.6,-5.13333 4.73333,-8.93333 9.4,-11.4c8.53333,-4.5 17.73333,-6.46667 27.6,-5.9c6.9,0.6 13.58333,2.1 20.05,4.5c13.73333,4.96667 21.11667,14.75 22.15,29.35M513.50076,350.3c-1,6.8 -0.01667,13.01667 2.95,18.65c0.46667,0.06667 0.95,0.13333 1.45,0.2c5.56667,-0.4 9.11667,-3.23333 10.65,-8.5c-0.83333,-3.03333 -2.38333,-5.61667 -4.65,-7.75c-3.33333,-3.1 -6.75,-4.11667 -10.25,-3.05c-0.06667,0.13333 -0.11667,0.28333 -0.15,0.45M655.65076,320.1c0.16667,3.03333 0.25,6.1 0.25,9.2c0,17.36667 0.66667,34.68333 2,51.95c0.16667,1.93333 0.65,3.73333 1.45,5.4c2.13333,4.56667 3.11667,9.15 2.95,13.75c-1.73333,1.76667 -3.91667,2.43333 -6.55,2c-10.8,-1.86667 -21.73333,-2.4 -32.8,-1.6c-10.4,-10.36667 -18.78333,-22.35 -25.15,-35.95l8.1,31.55c-0.36667,0.86667 -0.98333,1.5 -1.85,1.9c-2.76667,1.1 -5.71667,1.8 -8.85,2.1c-7.6,1.1 -14.93333,0.36667 -22,-2.2c-1.4,-0.53333 -2.26667,-1.45 -2.6,-2.75c-2.1,-8.43333 -2.73333,-17.05 -1.9,-25.85c0.86667,-8.83333 1,-17.65 0.4,-26.45c-0.6,-8.66667 0.58333,-16.81667 3.55,-24.45l1.85,1.15c3.36667,-0.53333 6.7,-1.08333 10,-1.65c4.1,-0.43333 8.08333,-1.28333 11.95,-2.55c4.63333,-1.63333 8.81667,-1.46667 12.55,0.5c0,4.33333 0.7,8.56667 2.1,12.7c1.53333,4.63333 3.15,9.23333 4.85,13.8l2.1,-23.85l34.95,-4.15l1.75,1.5c0.5,1.3 0.8,2.61667 0.9,3.95M699.15076,400c-6.53333,0.4 -13.26667,0.7 -20.2,0.9c-3.93333,0.1 -6.9,-1.46667 -8.9,-4.7c-2.2,-3.66667 -3.13333,-7.71667 -2.8,-12.15c0.66667,-8.73333 1.46667,-17.45 2.4,-26.15c0.6,-5.63333 1.68333,-11.08333 3.25,-16.35c2.2,-7.36667 3.85,-14.78333 4.95,-22.25c0.1,-0.63333 0.45,-1.01667 1.05,-1.15c14.33333,-3.06667 28.93333,-5.08333 43.8,-6.05c3.4,8.2 6.9,16.4 10.5,24.6c9.36667,21.26667 16.53333,43.11667 21.5,65.55c-0.43333,0.2 -0.88333,0.35 -1.35,0.45c-11.6,3 -23.45,4.06667 -35.55,3.2c-0.76667,-0.56667 -1.38333,-1.23333 -1.85,-2c-6.2,-9.6 -9.38333,-20.26667 -9.55,-32l-7.1,1.35l-0.15,26.75M701.35076,351.1l4.4,-1.1l-6.2,-6.65l-1.4,7.35l3.2,0.4M838.60076,311.65l2.2,31.3c-3.13333,3.1 -7.08333,4.5 -11.85,4.2c-1.13333,-0.06667 -2.25,-0.01667 -3.35,0.15c-7.7,1.16667 -15.4,2.45 -23.1,3.85c0.43333,1.43333 0.71667,2.95 0.85,4.55c1.36667,16.9 4.56667,33.45 9.6,49.65l-2.85,2.7l-35.55,-0.1c-2.93333,-4.76667 -4.31667,-10.08333 -4.15,-15.95c0.4,-14.6 1.55,-29.23333 3.45,-43.9c-1.6,0.53333 -3.15,0.98333 -4.65,1.35c-8.9,1.86667 -16.91667,0.78333 -24.05,-3.25c-0.06667,-0.23333 -0.11667,-0.45 -0.15,-0.65c-0.03333,-0.5 -0.05,-0.98333 -0.05,-1.45c-0.1,-7.06667 0.31667,-14.1 1.25,-21.1c0.5,-3.83333 1.71667,-5.5 3.65,-5c1.66667,-1.6 3.7,-2.38333 6.1,-2.35c22.9,0.16667 45.4,-2.65 67.5,-8.45c5.36667,-1.46667 10.11667,-1.33333 14.25,0.4l0.9,4.05M914.45076,348.6c-1.86667,1.43333 -3.95,1.68333 -6.25,0.75c-1.33333,-0.56667 -2.66667,-0.95 -4,-1.15c-10.6,-1.16667 -21.33333,-1.51667 -32.2,-1.05v6.3c2.83333,0 5.61667,-0.33333 8.35,-1c2.76667,-0.7 5.48333,-1.48333 8.15,-2.35c2.36667,-0.73333 4.48333,-0.38333 6.35,1.05c-0.53333,8.4 -1.48333,16.85 -2.85,25.35c-0.13333,0.83333 -0.6,1.35 -1.4,1.55c-7.06667,1.23333 -14.4,1.21667 -22,-0.05l1.15,6.35c7.1,0.06667 14.21667,0.1 21.35,0.1c0.4,0 0.81667,-0.01667 1.25,-0.05c1.66667,-0.43333 3.35,-0.95 5.05,-1.55c4.96667,-1.6 9.35,-1.35 13.15,0.75c0.56667,5.7 0.73333,11.41667 0.5,17.15c-0.23333,5.46667 -2.18333,9.98333 -5.85,13.55c-17.73333,-0.4 -35.46667,-0.55 -53.2,-0.45c-4.76667,0.03333 -8.63333,-1.55 -11.6,-4.75c0.73333,-5.53333 1.06667,-11.1 1,-16.7c-0.06667,-7.6 0.7,-15.11667 2.3,-22.55c3.63333,-16.8 5.9,-33.7 6.8,-50.7l-2.7,-3.4c0.86667,-1.8 2.35,-2.9 4.45,-3.3c20.13333,-3.93333 40.25,-6.7 60.35,-8.3l3.15,5.95z"/></g></g></g></g></svg>