<svg version="1.1" xmlns="http://www.w3.org/2000/svg" xmlns:xlink="http://www.w3.org/1999/xlink" width="442.98846" height="81.67604" viewBox="0,0,442.98846,81.67604"><g transform="translate(-418.50577,-319.16198)"><g data-paper-data="{&quot;isPaintingLayer&quot;:true}" fill="#ffffff" fill-rule="nonzero" stroke="none" stroke-width="1" stroke-linecap="butt" stroke-linejoin="miter" stroke-miterlimit="10" stroke-dasharray="" stroke-dashoffset="0" style="mix-blend-mode: normal"><path d="M484.15577,329.88802c-0.23333,0 -0.46667,0.01667 -0.7,0.05c0.2,1.16667 0.3,2.46667 0.3,3.9c0,7.46667 -0.08333,12.28333 -0.25,14.45c-0.13333,1.63333 -0.31667,3.06667 -0.55,4.3c-0.06667,2 -0.11667,3.86667 -0.15,5.6c-0.56667,-0.13333 -1.16667,-0.23333 -1.8,-0.3c-0.16667,0.16667 -0.33333,0.31667 -0.5,0.45l-1.75,-0.7c-1.76667,-0.13333 -3.83333,-0.18333 -6.2,-0.15c-2.23333,0.03333 -4.05,0.06667 -5.45,0.1c0.03333,0.26667 0.06667,0.55 0.1,0.85c0.23333,2.63333 0.25,6.43333 0.05,11.4c0.13333,1.9 0.41667,5.48333 0.85,10.75c0.36667,4.33333 0.55,6.88333 0.55,7.65c0,2.4 -0.03333,3.9 -0.1,4.5c-0.36667,1.9 -1.21667,2.95 -2.55,3.15c-1.66667,-0.16667 -5.51667,-0.11667 -11.55,0.15c-5.9,0.3 -9.16667,0.45 -9.8,0.45c-2.26667,0 -3.6,-5.71667 -4,-17.15c0.1,-12.8 0.15,-20.56667 0.15,-23.3c-5.66667,0.1 -10.71667,0.31667 -15.15,0.65c-0.43333,0.03333 -0.85,0.08333 -1.25,0.15c-0.03333,-0.1 -0.03333,-0.18333 0,-0.25c-1.36667,-0.3 -2.36667,-2.6 -3,-6.9c-0.23333,-1.83333 -0.46667,-4.85 -0.7,-9.05c0,-1.3 -0.36667,-4.25 -1.1,-8.85c-0.73333,-4.53333 -1.1,-6.9 -1.1,-7.1c0,-2.1 0.93333,-3.06667 2.8,-2.9c0.6,0.03333 1.36667,0.21667 2.3,0.55c0,-0.03333 0.01667,-0.06667 0.05,-0.1c0.2,0 0.4,0 0.6,0c1.4,0 3.55,0.08333 6.45,0.25c2.63333,0.1 4.73333,-0.01667 6.3,-0.35h18.85c6.96667,0.4 13.78333,0.68333 20.45,0.85c3.3,0.06667 6.1,0.1 8.4,0.1c-0.2,1.73333 -0.38333,4 -0.55,6.8M466.95577,329.53802c-6.7,-0.36667 -10.35,-0.63333 -10.95,-0.8l-19,-0.35c-2.86667,0.06667 -5.2,0.18333 -7,0.35c-1.53333,0.13333 -2.46667,0.2 -2.8,0.2c-0.86667,0 -1.68333,0 -2.45,0c0.63333,3.03333 1.23333,6.96667 1.8,11.8c0.43333,3.6 0.73333,6.65 0.9,9.15c9.56667,-0.73333 14.93333,-1.1 16.1,-1.1c1.56667,0 2.46667,4.71667 2.7,14.15c0.06667,4.76667 0,9.65 -0.2,14.65c0,0.6 0.13333,2.43333 0.4,5.5c0.23333,3.06667 0.35,5.23333 0.35,6.5c0.1,0 1.76667,-0.15 5,-0.45c3.9,-0.3 7.65,-0.5 11.25,-0.6c0.1,-0.16667 0.16667,-0.25 0.2,-0.25c0,-0.13333 0,-0.68333 0,-1.65c0,-0.63333 -0.21667,-2.96667 -0.65,-7c-0.43333,-4.36667 -0.68333,-7.56667 -0.75,-9.6c-0.06667,-1.16667 -0.46667,-4 -1.2,-8.5c-0.3,-1.96667 -0.55,-3.51667 -0.75,-4.65c0,-0.06667 -0.01667,-0.11667 -0.05,-0.15c-0.16667,-0.13333 -0.25,-0.61667 -0.25,-1.45c0,-0.16667 0.01667,-0.31667 0.05,-0.45c-0.03333,-0.2 -0.05,-0.33333 -0.05,-0.4c0,-1.13333 0.38333,-1.98333 1.15,-2.55c0.56667,-0.43333 1.2,-0.65 1.9,-0.65c0.63333,0 1.2,0.13333 1.7,0.4c0.23333,-0.03333 0.48333,-0.06667 0.75,-0.1c2.76667,-0.33333 6.98333,-0.28333 12.65,0.15c0,-0.63333 0,-1.28333 0,-1.95c0,-1.23333 0.08333,-3.7 0.25,-7.4c0.2,-4.13333 0.41667,-7.46667 0.65,-10c0.1,-0.86667 0.18333,-1.65 0.25,-2.35c-0.23333,0 -0.45,0 -0.65,0c-1.3,0 -5.06667,-0.15 -11.3,-0.45M540.15577,367.18802c-0.06667,0.73333 -0.13333,2.93333 -0.2,6.6c-0.33333,3.76667 -1.06667,7.08333 -2.2,9.95c-3.53333,8.5 -10.95,12.78333 -22.25,12.85c-12.3,0.06667 -20.25,-1.91667 -23.85,-5.95c-1.93333,-2.2 -3.25,-5.36667 -3.95,-9.5c-0.66667,-3.63333 -1,-8.93333 -1,-15.9c0,-0.3 0.15,-3.18333 0.45,-8.65c0.26667,-5.6 0.41667,-9.8 0.45,-12.6c0,-1.16667 0.11667,-2.95 0.35,-5.35c0.3,-2.73333 0.5,-4.7 0.6,-5.9c0.13333,-0.4 0.15,-1.21667 0.05,-2.45c-0.16667,-1.56667 -0.21667,-2.63333 -0.15,-3.2c0.03333,-0.36667 0.08333,-0.66667 0.15,-0.9c0.1,-1.4 0.8,-2.15 2.1,-2.25c1.16667,-0.1 4.76667,-0.2 10.8,-0.3c0,-0.36667 2.45,-0.51667 7.35,-0.45c1.13333,1 1.91667,2.5 2.35,4.5c0.2,1.1 0.3,2.13333 0.3,3.1c-0.06667,0.76667 -0.53333,5.98333 -1.4,15.65c-0.83333,9.33333 -1.25,14.36667 -1.25,15.1c-0.03333,0.9 0.1,1.5 0.4,1.8c0.13333,0.2 0.56667,0.55 1.3,1.05l3.35,-0.2c1.33333,-1.5 2.21667,-3.75 2.65,-6.75c0.16667,-1.06667 0.33333,-3.38333 0.5,-6.95c0.03333,-4.76667 0.11667,-8.45 0.25,-11.05c0.03333,-1.2 -0.15,-3.16667 -0.55,-5.9c-0.43333,-2.8 -0.65,-4.53333 -0.65,-5.2c0.06667,-1.33333 0.18333,-2.2 0.35,-2.6c0.43333,-1.36667 1.36667,-2.18333 2.8,-2.45c0.9,0 5.76667,0.7 14.6,2.1c0.63333,0.2 1.15,0.53333 1.55,1c0.13333,-0.1 0.31667,-0.13333 0.55,-0.1c2.9,0.03333 4.48333,6.98333 4.75,20.85c0.06667,6.66667 -0.11667,13.35 -0.55,20.05M520.65577,343.48802c0,6.4 -0.18333,11.1 -0.55,14.1c-1.16667,10.43333 -5.33333,14.46667 -12.5,12.1c-1.7,-0.66667 -2.81667,-1.9 -3.35,-3.7c-0.36667,-1.2 -0.48333,-2.75 -0.35,-4.65c0,-4.5 0.03333,-7.46667 0.1,-8.9c0,-1.3 0.21667,-4.33333 0.65,-9.1c0.4,-5.36667 0.81667,-9.66667 1.25,-12.9l0.05,-0.15c-5.6,0.53333 -9.8,0.68333 -12.6,0.45c0.16667,3.66667 0.25,5.86667 0.25,6.6c-0.03333,0.73333 -0.31667,5.51667 -0.85,14.35c-0.53333,8.5 -0.78333,13.1 -0.75,13.8c-0.13333,12.56667 1.75,20.21667 5.65,22.95c1.7,1.2 4.16667,1.88333 7.4,2.05c0.36667,0.03333 3.83333,0.05 10.4,0.05c7.9,-0.03333 13.21667,-2.28333 15.95,-6.75c1.83333,-2.96667 3.03333,-8.55 3.6,-16.75c0.46667,-8 0.3,-16.03333 -0.5,-24.1c-0.73333,-5.36667 -1.15,-9.01667 -1.25,-10.95c-2.23333,0.23333 -6.26667,-0.01667 -12.1,-0.75c-0.33333,2 -0.5,6.08333 -0.5,12.25M596.40577,321.28802c2,2.13333 3,4.86667 3,8.2c0,1.86667 -0.1,4.68333 -0.3,8.45c0.2,2.53333 0.36667,5.78333 0.5,9.75c0.13333,3.4 0.2,5.75 0.2,7.05c0,2.16667 -0.05,3.65 -0.15,4.45c-0.36667,2.5 -1.2,3.88333 -2.5,4.15h-13.25v5.65c1.43333,5.56667 2.15,12.83333 2.15,21.8c0,0.46667 0.16667,1.21667 0.5,2.25c0.16667,0.93333 -0.18333,1.66667 -1.05,2.2c-2.36667,1.56667 -9.76667,2.35 -22.2,2.35c-3.26667,0 -5.21667,-1.13333 -5.85,-3.4c-0.23333,-0.7 -0.3,-1.5 -0.2,-2.4c0.1,-0.76667 0.15,-1.18333 0.15,-1.25c0,-1.23333 0.16667,-4.36667 0.5,-9.4c0.3,-5.53333 0.63333,-10.01667 1,-13.45v-6.05c-5.93333,0.56667 -9.83333,0.85 -11.7,0.85c-1.73333,-1.13333 -2.83333,-3.01667 -3.3,-5.65c-0.16667,-0.9 -0.25,-2.9 -0.25,-6c0,-3.16667 0.23333,-7.31667 0.7,-12.45c0.1,-1.03333 0.55,-5.43333 1.35,-13.2c0.13333,0 0.3,-0.16667 0.5,-0.5c0.33333,-0.36667 0.86667,-0.55 1.6,-0.55c0.63333,0 1.2,0.28333 1.7,0.85c0.5,0.56667 1.05,0.85 1.65,0.85c1.2,0 5.16667,-0.7 11.9,-2.1c0.9,-0.16667 4.85,-0.45 11.85,-0.85c9.3,-0.56667 15.48333,-0.96667 18.55,-1.2v-0.4h2.95M592.80577,328.38802c-16.56667,0.23333 -26.63333,0.75 -30.2,1.55c-1.6,0.53333 -2.93333,0.95 -4,1.25c-1.83333,0.5 -4.56667,0.95 -8.2,1.35c0,2.06667 -0.21667,5.45 -0.65,10.15c-0.43333,4.7 -0.65,7.26667 -0.65,7.7c0,1.8 0.25,3.4 0.75,4.8c2.43333,-0.03333 4.83333,-0.13333 7.2,-0.3c2.16667,-0.16667 3.91667,-0.25 5.25,-0.25c1.4,0.2 2.26667,0.85 2.6,1.95c0.06667,0.33333 0.1,1.25 0.1,2.75c0,2.4 -0.35,7.4 -1.05,15c-0.7,7.63333 -1.05,12.86667 -1.05,15.7c0,0.8 0.01667,1.18333 0.05,1.15c0.1,-0.16667 0.2,-0.2 0.3,-0.1c3.53333,-0.46667 9.31667,-0.81667 17.35,-1.05c-0.76667,-3.33333 -1.43333,-7.95 -2,-13.85c-0.56667,-5.83333 -0.85,-11.03333 -0.85,-15.6c0,-0.96667 0.05,-1.66667 0.15,-2.1c0.4,-1.26667 1.25,-2.01667 2.55,-2.25c0.4,0 1.86667,0.06667 4.4,0.2c2.5,0.13333 5.66667,0.2 9.5,0.2v-6.25c-0.13333,-1.4 -0.35,-5.11667 -0.65,-11.15c-0.23333,-4.53333 -0.53333,-8.15 -0.9,-10.85M651.65577,341.23802c0.1,2.3 0.31667,6.5 0.65,12.6c0.26667,5.13333 0.4,8.13333 0.4,9c0,1.36667 -0.11667,3.93333 -0.35,7.7c-0.26667,4.43333 -0.56667,8.01667 -0.9,10.75c-1.06667,8.26667 -3.2,13.35 -6.4,15.25c-1.2,0.73333 -2.76667,1.11667 -4.7,1.15c-2.3,-0.06667 -4.05,-0.1 -5.25,-0.1c-9.4,0 -15.88333,-0.28333 -19.45,-0.85c-4.36667,-0.7 -7.33333,-2.15 -8.9,-4.35c-1.43333,-2.03333 -2.21667,-5.56667 -2.35,-10.6c0.06667,-7.46667 0.1,-13.96667 0.1,-19.5c0,-9.13333 0.31667,-16 0.95,-20.6c-1.26667,-6.7 -0.2,-11.65 3.2,-14.85c2.96667,-2.83333 7.31667,-3.98333 13.05,-3.45c7.56667,-2.36667 14.45,-1.71667 20.65,1.95c6.23333,3.7 9.33333,9 9.3,15.9M646.30577,344.18802c-0.83333,-5.06667 -2.38333,-8.76667 -4.65,-11.1c-2.36667,-2.53333 -5.88333,-3.88333 -10.55,-4.05c-4.6,-0.16667 -10.9,0.78333 -18.9,2.85c-1.13333,3.93333 -1.83333,9.03333 -2.1,15.3c-0.06667,2.03333 -0.1,7.03333 -0.1,15c0,0.7 -0.05,2.88333 -0.15,6.55c-0.06667,3.76667 -0.01667,6.68333 0.15,8.75c0.13333,1.7 0.21667,3.73333 0.25,6.1c0.13333,1.66667 0.58333,2.86667 1.35,3.6c1.53333,1.46667 7.26667,2.7 17.2,3.7h12.65c2.8,-3.9 4.58333,-8.6 5.35,-14.1c0.33333,-2.4 0.5,-7.08333 0.5,-14.05c0,-8.23333 -0.33333,-14.41667 -1,-18.55M624.85577,350.63802c0.66667,0.53333 2.28333,0.55 4.85,0.05c2.73333,1.33333 4.41667,2.88333 5.05,4.65c0.23333,0.6 0.35,2.06667 0.35,4.4c0,3.16667 -0.08333,5.05 -0.25,5.65c-0.5,1.53333 -1.98333,3.36667 -4.45,5.5h-6.5c-1.36667,-0.63333 -2.2,-1.51667 -2.5,-2.65c-0.16667,-0.43333 -0.25,-1.38333 -0.25,-2.85c0.13333,-4.96667 0.2,-8.68333 0.2,-11.15c0.1,-0.2 0.11667,-1.18333 0.05,-2.95c-0.03333,-1.2 0.55,-1.81667 1.75,-1.85c0.23333,0.03333 0.8,0.43333 1.7,1.2M627.05577,355.23802c-0.36667,0.06667 -1.06667,0.3 -2.1,0.7v6.15c0.16667,0.43333 0.25,1.5 0.25,3.2v0.6h4c1.2,-1.23333 1.91667,-2.4 2.15,-3.5c0.1,-0.33333 0.15,-1.18333 0.15,-2.55c0,-0.96667 -0.13333,-1.73333 -0.4,-2.3c-0.16667,-0.36667 -0.55,-0.9 -1.15,-1.6l-1.3,-0.75c-0.63333,-0.03333 -1.16667,-0.01667 -1.6,0.05M709.15577,340.73802c0,3.83333 -0.61667,7.08333 -1.85,9.75c-1.43333,3.13333 -4.11667,6.43333 -8.05,9.9c2.93333,1.9 5.66667,4.03333 8.2,6.4c3.56667,3.26667 5.35,5.83333 5.35,7.7c0,0.9 -0.03333,1.48333 -0.1,1.75c-0.03333,0.2 -0.11667,0.55 -0.25,1.05c-0.2,0.16667 -0.4,0.35 -0.6,0.55c-0.16667,0.13333 -0.33333,0.23333 -0.5,0.3c0,0.1 0.01667,0.2 0.05,0.3c0,0.86667 -1.16667,2.81667 -3.5,5.85c-2.33333,2.86667 -3.51667,4.35 -3.55,4.45c-1.26667,2.76667 -2.16667,4.56667 -2.7,5.4c-1.5,2.3 -3.03333,3.45 -4.6,3.45c-2.26667,0 -6.91667,-4.11667 -13.95,-12.35c-1.33333,-1.66667 -2.53333,-3.15 -3.6,-4.45c0,0.1 0.01667,0.2 0.05,0.3c0.56667,3.6 1.01667,7.25 1.35,10.95c0,0.83333 -0.11667,1.7 -0.35,2.6c-0.43333,1.7 -1.21667,2.96667 -2.35,3.8l-19.6,-0.25c-1.86667,-1.73333 -2.8,-4.3 -2.8,-7.7c0.36667,-3.86667 0.48333,-6.65 0.35,-8.35c-0.5,-7 -0.75,-12.23333 -0.75,-15.7c0,-1.43333 0.16667,-4.61667 0.5,-9.55c0.36667,-5.7 0.75,-10.2 1.15,-13.5c0.16667,-5.46667 0.25,-9.43333 0.25,-11.9c0.36667,-3.56667 1.26667,-5.46667 2.7,-5.7c0.13333,-0.03333 0.23333,-0.03333 0.3,0v-0.05c0,-1.63333 0.98333,-2.93333 2.95,-3.9c1.86667,-0.93333 4.2,-1.4 7,-1.4h21.75c7.43333,3.13333 12.38333,6.58333 14.85,10.35c1.53333,2.36667 2.3,5.68333 2.3,9.95M703.80577,340.63802c0,-2.63333 -0.66667,-4.8 -2,-6.5c-1.76667,-2.26667 -5.21667,-4.6 -10.35,-7l-24.3,-0.45l-4.85,1.7c-0.06667,-0.1 -0.13333,-0.18333 -0.2,-0.25c0.03333,0.36667 0.05,0.8 0.05,1.3c0,1.43333 -0.55,14.26667 -1.65,38.5c0,0.2 0.13333,3.5 0.4,9.9c0.23333,6.4 0.35,11.16667 0.35,14.3h12.65l1.65,-0.5c-0.93333,-4.16667 -1.51667,-6.88333 -1.75,-8.15c-0.33333,-1.73333 -0.5,-3.91667 -0.5,-6.55c0,-1.8 0.01667,-3 0.05,-3.6h-0.05c0,-1 0.23333,-1.66667 0.7,-2c0.46667,-0.63333 1.16667,-0.95 2.1,-0.95c0.46667,0 0.93333,0.56667 1.4,1.7c1.63333,1.03333 3.81667,2.83333 6.55,5.4c0.3,0.26667 2.91667,2.86667 7.85,7.8c2.63333,2.6 4.16667,3.9 4.6,3.9c0.43333,0 2.3,-2.31667 5.6,-6.95c2.03333,-2.86667 3.65,-4.85 4.85,-5.95c-0.6,-0.53333 -1.25,-1.16667 -1.95,-1.9c-2.63333,-2.93333 -4.2,-4.66667 -4.7,-5.2c-0.3,-0.3 -2.36667,-1.45 -6.2,-3.45c-3.2,-1.63333 -4.8,-3.13333 -4.8,-4.5c0,-1.46667 1.06667,-2.8 3.2,-4c3.1,-1.7 5.65,-3.88333 7.65,-6.55c0.8,-1.1 1.6,-2.7 2.4,-4.8c0.83333,-2.23333 1.25,-3.98333 1.25,-5.25M690.25577,340.88802c0.66667,1.1 1,2.6 1,4.5c0,1.7 -0.35,3 -1.05,3.9c-1.23333,1.43333 -3.53333,2.3 -6.9,2.6h-4.35c-1.36667,-0.43333 -2.31667,-0.98333 -2.85,-1.65c-0.36667,-0.46667 -0.55,-1.08333 -0.55,-1.85c0,-4.16667 0.51667,-6.83333 1.55,-8c0.76667,-0.86667 3.33333,-2.03333 7.7,-3.5c2.66667,1.06667 4.48333,2.4 5.45,4M679.15577,345.83802l0.9,0.6l1.7,-0.05c1.4,-0.06667 2.68333,-0.18333 3.85,-0.35l0.15,-0.25c0.16667,-0.23333 0.48333,-0.5 0.95,-0.8c-0.46667,-1.73333 -1.6,-2.51667 -3.4,-2.35c-0.83333,0.06667 -2.28333,0.53333 -4.35,1.4l0.1,0.45c0.06667,0.4 0.1,0.85 0.1,1.35M738.90577,340.18802c0,3.43333 -0.76667,6.36667 -2.3,8.8c-2.43333,3.9 -6.56667,5.85 -12.4,5.85c-5.26667,0 -8.65,-2 -10.15,-6c-0.46667,-1.23333 -0.71667,-2.61667 -0.75,-4.15c0.06667,-1.3 0.1,-1.98333 0.1,-2.05c0,-3.56667 0.65,-7.05 1.95,-10.45c1.63333,-4.23333 3.93333,-7.08333 6.9,-8.55c2.1,-1.03333 4.81667,-0.53333 8.15,1.5c2.86667,1.76667 4.66667,3.45 5.4,5.05c1.56667,1.8 2.53333,3.58333 2.9,5.35c0.13333,0.63333 0.2,2.18333 0.2,4.65M731.05577,334.13802c-1.5,-1.86667 -3.21667,-2.96667 -5.15,-3.3c-2.1,-0.33333 -3.81667,0.36667 -5.15,2.1c-1.56667,2 -2.35,5.16667 -2.35,9.5c0,1.73333 0.05,2.76667 0.15,3.1c0.33333,0.9 1.31667,1.91667 2.95,3.05h5.45c3.4,-1.13333 5.43333,-2.3 6.1,-3.5c0.23333,-0.43333 0.35,-1.91667 0.35,-4.45c0,-2.4 -0.78333,-4.56667 -2.35,-6.5M743.80577,383.93802c0.6,5.2 0.9,8.11667 0.9,8.75c0,1.2 -0.05,1.95 -0.15,2.25c-0.36667,1.3 -1.23333,1.9 -2.6,1.8l-21.2,0.4c-0.1,0.3 -0.76667,0.45 -2,0.45c-2.23333,0 -3.56667,-1.21667 -4,-3.65c0,-2.43333 0,-3.66667 0,-3.7c0,-2.8 -0.01667,-5.41667 -0.05,-7.85c0,-4.7 0.08333,-8.35 0.25,-10.95c0.13333,-1.83333 0.05,-3.96667 -0.25,-6.4c-0.3,-2.36667 -0.41667,-3.86667 -0.35,-4.5c0.26667,-2.3 3.2,-3.45 8.8,-3.45c0.46667,0 2.26667,-0.25 5.4,-0.75c3.4,-0.53333 6.16667,-0.85 8.3,-0.95c2.2,2.5 3.68333,5.55 4.45,9.15c0.46667,2.06667 0.9,5.21667 1.3,9.45c0.26667,1.73333 0.66667,5.05 1.2,9.95M728.95577,362.88802c-3.96667,0.8 -7.13333,1.38333 -9.5,1.75l0.4,25.6l18.65,-0.2v-4.35c-0.63333,-2.86667 -1.35,-6.91667 -2.15,-12.15c-0.86667,-5.43333 -1.53333,-9.31667 -2,-11.65c-0.2,0 -2,0.33333 -5.4,1M792.35577,323.73802c0.73333,1.16667 1.36667,2.83333 1.9,5c0.33333,1.23333 0.76667,3.13333 1.3,5.7c0.26667,1.03333 1.03333,4.45 2.3,10.25c0.9,4.16667 1.78333,7.63333 2.65,10.4c1.3,4.33333 3.21667,12.25 5.75,23.75c2.43333,11.06667 3.65,17.1 3.65,18.1c0,1.5 -0.31667,2.51667 -0.95,3.05c-0.63333,0.56667 -1.86667,0.85 -3.7,0.85c-10.26667,0 -16.93333,-0.48333 -20,-1.45h-0.05c-0.36667,0.26667 -0.78333,0.4 -1.25,0.4c-1.93333,0 -3.28333,-2.48333 -4.05,-7.45c-0.56667,-6.03333 -1.01667,-10.13333 -1.35,-12.3l-2.55,-0.2l-1.95,0.2c-0.5,3.3 -1.11667,6.5 -1.85,9.6c0.16667,0.16667 0.3,0.36667 0.4,0.6c0.23333,0.46667 0.35,1.03333 0.35,1.7c0,1.83333 -1.31667,3.23333 -3.95,4.2c-2.7,0.96667 -6.65,1.45 -11.85,1.45c-4.1,0 -6.85,-0.8 -8.25,-2.4c-0.46667,-0.5 -0.76667,-1.06667 -0.9,-1.7c-0.03333,-0.2 -0.05,-0.5 -0.05,-0.9c0,-1.03333 0.96667,-5.91667 2.9,-14.65c2.1,-9.26667 3.68333,-15.43333 4.75,-18.5c0.8,-2.26667 1.73333,-5.56667 2.8,-9.9c1.33333,-5.43333 2.18333,-8.81667 2.55,-10.15c0.23333,-0.76667 0.46667,-1.5 0.7,-2.2c0,-4.7 0.15,-8.03333 0.45,-10c0.7,-4.63333 2.2,-6.88333 4.5,-6.75h19.3c0.33333,-1.16667 1.18333,-1.53333 2.55,-1.1c1.73333,0.6 3.03333,2.06667 3.9,4.4M786.85577,326.68802c-3.23333,0.93333 -8.6,1.11667 -16.1,0.55c0.1,0.2 0.15,0.65 0.15,1.35c0,0.8 -0.6,2.1 -1.8,3.9c-0.13333,0.23333 -0.28333,0.46667 -0.45,0.7c-0.86667,3.93333 -2.75,11.56667 -5.65,22.9c-4.5,17.73333 -7.21667,29.18333 -8.15,34.35l1.05,0.65c2.8,-0.63333 6.91667,-1.33333 12.35,-2.1v-0.05c0,-0.56667 0.16667,-2.11667 0.5,-4.65c0.33333,-2.56667 0.5,-4.55 0.5,-5.95c0.3,-0.53333 0.51667,-1.35 0.65,-2.45c0.1,-1.03333 0.31667,-1.73333 0.65,-2.1c1.03333,-1.16667 4.55,-1.1 10.55,0.2c1.63333,1.3 2.58333,3.1 2.85,5.4c0.16667,1.3 0.28333,3.18333 0.35,5.65c0.1,0.4 0.61667,2.06667 1.55,5c0.5,1.73333 0.83333,3.15 1,4.25c3.06667,-0.53333 8.56667,-0.78333 16.5,-0.75c-1.23333,-6.3 -4.61667,-20.11667 -10.15,-41.45c-3.1,-12 -5.21667,-20.46667 -6.35,-25.4M783.50577,358.03802c-1.43333,1.43333 -4.88333,2.31667 -10.35,2.65c-0.7,-0.3 -1.15,-0.58333 -1.35,-0.85c-0.36667,-0.43333 -0.55,-1.13333 -0.55,-2.1c0,-1.86667 0.5,-4.33333 1.5,-7.4c1.06667,-3.3 2.1,-5.2 3.1,-5.7c1.03333,-0.56667 3.48333,0.11667 7.35,2.05c0.86667,1.76667 1.3,4.03333 1.3,6.8c0,2.36667 -0.33333,3.88333 -1,4.55M776.30577,355.33802c0.7,-0.03333 1.4,-0.11667 2.1,-0.25c1.1,-0.2 1.78333,-0.68333 2.05,-1.45c0.06667,-0.2 0.1,-0.81667 0.1,-1.85c0,-1.1 -0.06667,-1.73333 -0.2,-1.9c-0.3,-0.5 -1.25,-0.93333 -2.85,-1.3c-0.2,0.3 -0.53333,1.16667 -1,2.6c-0.53333,1.53333 -0.88333,2.83333 -1.05,3.9v0.3l0.85,-0.05M858.20577,364.63802c1.8,0 2.85,2 3.15,6c0.2,2.13333 0.18333,4.73333 -0.05,7.8c0,0.96667 0.01667,4.61667 0.05,10.95c-0.23333,3.46667 -0.78333,5.91667 -1.65,7.35c0.03333,0.06667 0.08333,0.13333 0.15,0.2c-0.16667,0.83333 -0.4,1.45 -0.7,1.85c-0.56667,0.66667 -1.95,1.06667 -4.15,1.2h-37.7c-2.86667,-0.2 -4.4,-1.25 -4.6,-3.15c0.3,-2.2 0.43333,-3.65 0.4,-4.35c0,-0.8 -0.1,-2.13333 -0.3,-4c-0.23333,-1.86667 -0.36667,-3.23333 -0.4,-4.1c-0.43333,-9.43333 -0.65,-14.85 -0.65,-16.25c-0.1,-3.3 -0.16667,-6.5 -0.2,-9.6c-0.06667,-6.03333 0.05,-10.73333 0.35,-14.1c0.1,-1.06667 0.03333,-3.05 -0.2,-5.95c-0.26667,-3.23333 -0.4,-5.55 -0.4,-6.95c0.03333,-2.2 0.35,-3.91667 0.95,-5.15c-0.16667,-0.03333 -0.33333,-0.06667 -0.5,-0.1c-0.26667,-0.16667 -0.45,-0.3 -0.55,-0.4c-0.13333,-0.16667 -0.2,-0.68333 -0.2,-1.55c0,-0.83333 0.06667,-1.31667 0.2,-1.45c0.1,-0.06667 0.28333,-0.18333 0.55,-0.35c0.86667,-0.33333 3.28333,-0.43333 7.25,-0.3c6.36667,0.2 12.81667,0.16667 19.35,-0.1c2,1.13333 3,2.96667 3,5.5c0,1.46667 -0.1,3.73333 -0.3,6.8c0.2,2.63333 0.2,6.56667 0,11.8c-0.5,7.76667 -0.75,15.63333 -0.75,23.6c2.2,0.4 5.16667,-0.31667 8.9,-2.15c4.06667,-2.03333 7.06667,-3.05 9,-3.05M835.70577,328.58802c-9.96667,0.76667 -16.26667,0.81667 -18.9,0.15c0.23333,27.23333 0.76667,48.83333 1.6,64.8l36.6,0.2l0.25,0.05c-0.1,-1.4 -0.08333,-3.1 0.05,-5.1c0.66667,-8.16667 0.56667,-13.56667 -0.3,-16.2l-17.75,5.85c-1.6,0 -2.58333,-0.55 -2.95,-1.65c-0.06667,-1.16667 -0.1,-1.78333 -0.1,-1.85c0,-1.33333 0.16667,-4.88333 0.5,-10.65c0.33333,-6.46667 0.66667,-11.66667 1,-15.6z"/></g></g></svg>