<svg version="1.1" xmlns="http://www.w3.org/2000/svg" xmlns:xlink="http://www.w3.org/1999/xlink" width="41.91762" height="62.13536" viewBox="0,0,41.91762,62.13536"><g transform="translate(-614.61121,-339.48246)"><g data-paper-data="{&quot;isPaintingLayer&quot;:true}" fill-rule="nonzero" stroke="none" stroke-width="1" stroke-linecap="round" stroke-linejoin="miter" stroke-miterlimit="4" stroke-dasharray="" stroke-dashoffset="0" style="mix-blend-mode: normal"><path d="M625.3255,341.00051c0.76667,-0.36667 1.85,-0.68333 3.25,-0.95c1.23333,-0.2 2.16667,-0.23333 2.8,-0.1c1.06667,0.23333 2,0.9 2.8,2c0.53333,0.8 0.98333,1.88333 1.35,3.25c1.3,4.86667 1.08333,9.63333 -0.65,14.3l3.15,0.1c-0.2,-5.66667 0.03333,-9.98333 0.7,-12.95c0.46667,-2.13333 1.21667,-3.78333 2.25,-4.95c1.13333,-1.23333 2.58333,-1.95 4.35,-2.15c1.8,-0.23333 3.38333,0.13333 4.75,1.1c1.73333,1.26667 2.96667,3.33333 3.7,6.2c0.46667,1.83333 0.76667,4.28333 0.9,7.35c0.16667,3.83333 0.31667,6.31667 0.45,7.45c0.16667,1.26667 0.38333,2.45 0.65,3.55c0.46667,1.9 0.71667,3.15 0.75,3.75c0.03333,1.06667 -0.18333,2.66667 -0.65,4.8c-0.1,0.66667 -0.15,1.98333 -0.15,3.95c0.06667,4.4 -0.15,8.63333 -0.65,12.7c-0.33333,3.16667 -0.96667,5.51667 -1.9,7.05c-0.83333,1.33333 -2,2.38333 -3.5,3.15c-1.5,0.76667 -3.03333,1.1 -4.6,1c-1.3,-0.06667 -2.53333,-0.45 -3.7,-1.15c-1.2,-0.66667 -2.11667,-1.55 -2.75,-2.65c-0.73333,-1.26667 -1.2,-3.05 -1.4,-5.35c-0.06667,-0.93333 -0.08333,-3.28333 -0.05,-7.05c0.03333,-2.9 -0.11667,-5.23333 -0.45,-7c-5.1,-0.56667 -9.91667,-1.33333 -14.45,-2.3c-2.56667,-0.53333 -4.35,-1.25 -5.35,-2.15c-1.8,-1.63333 -2.55,-4.21667 -2.25,-7.75c0.3,-2.8 1.41667,-6.53333 3.35,-11.2l3.3,-8.25c0.56667,-1.43333 1.08333,-2.51667 1.55,-3.25c0.73333,-1.13333 1.55,-1.96667 2.45,-2.5M645.1255,345.10051c-0.80143,0.48789 -1.30143,1.55456 -1.5,3.2c-0.46667,3.8 -0.55,7.78333 -0.25,11.95c0.06667,1.3 0.06667,2.16667 0,2.6c-0.1,1 -0.51667,1.73333 -1.25,2.2c-0.56667,0.36667 -1.56667,0.51667 -3,0.45c-2.93333,-0.16667 -5.31667,-0.43333 -7.15,-0.8c-1.53333,-0.33333 -2.51667,-0.86667 -2.95,-1.6c-0.43333,-0.83333 -0.33333,-2.15 0.3,-3.95c2,-5.53333 2.16667,-10.25 0.5,-14.15c-1.16667,0.26667 -2.16667,1.45 -3,3.55l-4.4,11.05c-1.33333,3.4 -2.01667,6.05 -2.05,7.95c0,0.86667 0.16667,1.5 0.5,1.9c0.3,0.36667 0.88333,0.65 1.75,0.85c4.4,1.06667 8.95,1.83333 13.65,2.3c1.1,0.1 1.9,0.21667 2.4,0.35c0.86667,0.2 1.55,0.55 2.05,1.05c0.86667,0.83333 1.36667,2.36667 1.5,4.6c0.33333,4.53333 0.4,9.21667 0.2,14.05c0,1 0.13333,1.66667 0.4,2c0.2,0.26667 0.56667,0.53333 1.1,0.8c1.33333,0.53333 2.38333,0.65 3.15,0.35c1.13333,-0.4 1.88333,-1.75 2.25,-4.05c0.5,-3.6 0.8,-7.23333 0.9,-10.9c0.13333,-4 0.35,-6.68333 0.65,-8.05c0.23333,-0.86667 0.38333,-1.51667 0.45,-1.95c0.16667,-0.76667 0.21667,-1.43333 0.15,-2c-0.03333,-0.36667 -0.13333,-0.83333 -0.3,-1.4c-0.3,-0.86667 -0.45,-1.33333 -0.45,-1.4c-0.33333,-1.03333 -0.6,-2.85 -0.8,-5.45c-0.23333,-3.73333 -0.53333,-7.5 -0.9,-11.3c-0.13333,-1.36667 -0.4,-2.4 -0.8,-3.1c-0.26667,-0.46667 -0.63333,-0.83333 -1.1,-1.1c-0.53333,-0.26667 -1.05,-0.33333 -1.55,-0.2c-0.15885,0.04961 -0.30885,0.11628 -0.45,0.2z" fill="#000000"/><path d="M648.2255,346.19051c0.4,0.7 0.66667,1.73333 0.8,3.1c0.36667,3.8 0.66667,7.56667 0.9,11.3c0.2,2.6 0.46667,4.41667 0.8,5.45c0,0.06667 0.15,0.53333 0.45,1.4c0.16667,0.56667 0.26667,1.03333 0.3,1.4c0.06667,0.56667 0.01667,1.23333 -0.15,2c-0.06667,0.43333 -0.21667,1.08333 -0.45,1.95c-0.3,1.36667 -0.51667,4.05 -0.65,8.05c-0.1,3.66667 -0.4,7.3 -0.9,10.9c-0.36667,2.3 -1.11667,3.65 -2.25,4.05c-0.76667,0.3 -1.81667,0.18333 -3.15,-0.35c-0.53333,-0.26667 -0.9,-0.53333 -1.1,-0.8c-0.26667,-0.33333 -0.4,-1 -0.4,-2c0.2,-4.83333 0.13333,-9.51667 -0.2,-14.05c-0.13333,-2.23333 -0.63333,-3.76667 -1.5,-4.6c-0.5,-0.5 -1.18333,-0.85 -2.05,-1.05c-0.5,-0.13333 -1.3,-0.25 -2.4,-0.35c-4.7,-0.46667 -9.25,-1.23333 -13.65,-2.3c-0.86667,-0.2 -1.45,-0.48333 -1.75,-0.85c-0.33333,-0.4 -0.5,-1.03333 -0.5,-1.9c0.03333,-1.9 0.71667,-4.55 2.05,-7.95l4.4,-11.05c0.83333,-2.1 1.83333,-3.28333 3,-3.55c1.66667,3.9 1.5,8.61667 -0.5,14.15c-0.63333,1.8 -0.73333,3.11667 -0.3,3.95c0.43333,0.73333 1.41667,1.26667 2.95,1.6c1.83333,0.36667 4.21667,0.63333 7.15,0.8c1.43333,0.06667 2.43333,-0.08333 3,-0.45c0.73333,-0.46667 1.15,-1.2 1.25,-2.2c0.06667,-0.43333 0.06667,-1.3 0,-2.6c-0.3,-4.16667 -0.21667,-8.15 0.25,-11.95c0.19857,-1.64544 0.69857,-2.71211 1.5,-3.2c0.14115,-0.08372 0.29115,-0.15039 0.45,-0.2c0.5,-0.13333 1.01667,-0.06667 1.55,0.2c0.46667,0.26667 0.83333,0.63333 1.1,1.1z" fill="#ffffff"/></g></g></svg>