<svg version="1.1" xmlns="http://www.w3.org/2000/svg" xmlns:xlink="http://www.w3.org/1999/xlink" width="443.7" height="117.5" viewBox="0,0,443.7,117.5"><g transform="translate(-418.15,-301.25)"><g data-paper-data="{&quot;isPaintingLayer&quot;:true}" fill-rule="nonzero" stroke="none" stroke-width="1" stroke-linecap="round" stroke-linejoin="miter" stroke-miterlimit="4" stroke-dasharray="" stroke-dashoffset="0" style="mix-blend-mode: normal"><path d="M439.55,305.9c0.43333,-0.1 0.85,-0.21667 1.25,-0.35c1.73333,-0.13333 3.46667,-0.25 5.2,-0.35c0.4,-0.13333 0.81667,-0.25 1.25,-0.35c1.9,0 3.8,0 5.7,0c0.36667,0.1 0.71667,0.21667 1.05,0.35c4.16667,0.1 8.33333,0.21667 12.5,0.35c0.43333,0.13333 0.85,0.25 1.25,0.35c0.26667,0.13333 0.51667,0.25 0.75,0.35c0.76667,0.06667 1.53333,0.13333 2.3,0.2c0.36667,0.1 0.73333,0.21667 1.1,0.35c0.83333,0.1 1.66667,0.21667 2.5,0.35c0.26667,0.13333 0.55,0.25 0.85,0.35c0.66667,0.13333 1.33333,0.25 2,0.35c0.33333,0.13333 0.68333,0.25 1.05,0.35c0.83333,0.13333 1.66667,0.26667 2.5,0.4c0.3,0.1 0.6,0.2 0.9,0.3c0.4,0.13333 0.81667,0.26667 1.25,0.4c0.3,0.1 0.6,0.21667 0.9,0.35c0.29115,0.0431 0.57448,0.07643 0.85,0.1c0.13945,-0.03034 0.27279,-0.06367 0.4,-0.1c0.23333,0 0.46667,-0.03333 0.7,-0.1v-0.1c0.3,0.13333 0.6,0.26667 0.9,0.4c0.16667,0.1 0.35,0.21667 0.55,0.35c0.3,0.1 0.6,0.21667 0.9,0.35c0.03997,0.02396 0.07331,0.04062 0.1,0.05c0.14167,0.05833 0.275,0.10833 0.4,0.15c0.36667,0.1 0.73333,0.21667 1.1,0.35c0.33333,0.1 0.68333,0.21667 1.05,0.35c0.36667,0.1 0.73333,0.21667 1.1,0.35c0.7,0.23333 1.41667,0.45 2.15,0.65c0.11549,0.03398 0.23216,0.06732 0.35,0.1c0.96237,0.11211 1.91237,0.21211 2.85,0.3c0.93333,0.23333 1.88333,0.48333 2.85,0.75c0.93333,0.23333 1.88333,0.48333 2.85,0.75c0.36667,0.06667 0.71667,0.16667 1.05,0.3c0.36667,0.13333 0.73333,0.25 1.1,0.35c0.33333,0.13333 0.68333,0.25 1.05,0.35c0.36667,0.2 0.73333,0.38333 1.1,0.55c0.23333,0.13333 0.46667,0.25 0.7,0.35c0.46667,0 0.93333,0 1.4,0c0.36667,0.13333 0.73333,0.25 1.1,0.35c0.23333,0.2 0.46667,0.38333 0.7,0.55c0.2,0.13333 0.38333,0.25 0.55,0.35c0.4,0.06667 0.81667,0.13333 1.25,0.2c0.36667,0.1 0.71667,0.21667 1.05,0.35c0.36667,0.1 0.73333,0.21667 1.1,0.35c0.33333,0.13333 0.68333,0.25 1.05,0.35c0.36667,0.13333 0.73333,0.25 1.1,0.35c0.33333,0.13333 0.68333,0.25 1.05,0.35c0.16667,0.13333 0.35,0.26667 0.55,0.4c0.33333,0.1 0.68333,0.2 1.05,0.3c0.50872,0.12721 1.00872,0.26055 1.5,0.4c0.10872,-0.05508 0.20872,-0.12174 0.3,-0.2c0.1,-0.16667 0.21667,-0.33333 0.35,-0.5c0.16667,-0.2 0.35,-0.38333 0.55,-0.55c0.16667,-0.16667 0.33333,-0.35 0.5,-0.55c0.2,-0.16667 0.38333,-0.35 0.55,-0.55c0.2,-0.16667 0.38333,-0.33333 0.55,-0.5c0.16667,-0.2 0.35,-0.38333 0.55,-0.55c0.1,-0.16667 0.21667,-0.35 0.35,-0.55c0.06667,-0.16667 0.11667,-0.33333 0.15,-0.5c0.13333,-0.2 0.25,-0.38333 0.35,-0.55c0.2,-0.13333 0.38333,-0.26667 0.55,-0.4c0.06667,-0.03333 0.13333,-0.08333 0.2,-0.15c0.3,-0.1 0.6,-0.21667 0.9,-0.35c0.16667,-0.16667 0.33333,-0.35 0.5,-0.55c0.2,-0.16667 0.38333,-0.33333 0.55,-0.5c0.16667,-0.2 0.35,-0.38333 0.55,-0.55c0.16667,-0.16667 0.33333,-0.35 0.5,-0.55c0.2,-0.16667 0.38333,-0.35 0.55,-0.55c0.2,-0.16667 0.38333,-0.33333 0.55,-0.5c0.16667,-0.2 0.35,-0.38333 0.55,-0.55c0.4,-0.16667 0.81667,-0.35 1.25,-0.55c0.16667,-0.16667 0.33333,-0.33333 0.5,-0.5c0.2,-0.2 0.38333,-0.38333 0.55,-0.55c0.16667,-0.16667 0.35,-0.35 0.55,-0.55c0.4,-0.16667 0.81667,-0.35 1.25,-0.55c0.16667,-0.16667 0.33333,-0.33333 0.5,-0.5c0.2,-0.13333 0.38333,-0.26667 0.55,-0.4c0.06667,-0.03333 0.13333,-0.08333 0.2,-0.15c0.3,-0.13333 0.6,-0.25 0.9,-0.35c0.26667,-0.16667 0.56667,-0.33333 0.9,-0.5c0.23333,-0.13333 0.46667,-0.26667 0.7,-0.4c0.1,-0.06667 0.21667,-0.11667 0.35,-0.15c0.3,-0.13333 0.6,-0.26667 0.9,-0.4c0.16667,-0.1 0.33333,-0.21667 0.5,-0.35c0.3,-0.06667 0.6,-0.11667 0.9,-0.15c0.3,-0.13333 0.6,-0.25 0.9,-0.35c0.53333,-0.2 1.06667,-0.4 1.6,-0.6c0.3,-0.1 0.6,-0.2 0.9,-0.3c0.3,-0.06667 0.6,-0.13333 0.9,-0.2c0.53333,-0.1 1.06667,-0.21667 1.6,-0.35c0.43333,-0.13333 0.85,-0.26667 1.25,-0.4c0.3,-0.1 0.6,-0.2 0.9,-0.3c0.4,-0.13333 0.81667,-0.23333 1.25,-0.3c1.2,-0.23333 2.38333,-0.46667 3.55,-0.7v-0.1c6.66667,0 13.33333,0 20,0c0.43333,0.13333 0.85,0.25 1.25,0.35c0.8,0.13333 1.58333,0.28333 2.35,0.45c0.4,0.06667 0.81667,0.15 1.25,0.25c0.76667,0.13333 1.53333,0.26667 2.3,0.4c0.36667,0.1 0.73333,0.21667 1.1,0.35c0.16667,0.13333 0.33333,0.25 0.5,0.35c0.36667,0.13333 0.73333,0.25 1.1,0.35c0.3,0.2 0.6,0.38333 0.9,0.55c0.3,0.16667 0.58333,0.35 0.85,0.55c0.2,0.16667 0.38333,0.33333 0.55,0.5c0.36667,0.2 0.73333,0.38333 1.1,0.55c0.23333,0.16667 0.46667,0.35 0.7,0.55c0.16667,0.16667 0.35,0.33333 0.55,0.5c0.16667,0.2 0.33333,0.38333 0.5,0.55c0.2,0.2 0.38333,0.38333 0.55,0.55c0.16667,0.16667 0.35,0.35 0.55,0.55c0.1,0.16667 0.21667,0.33333 0.35,0.5c0.1,0.2 0.21667,0.38333 0.35,0.55c0.13333,0.16667 0.25,0.35 0.35,0.55c0.06667,0.16667 0.13333,0.33333 0.2,0.5c0.06667,0.2 0.11667,0.38333 0.15,0.55c0.06667,0.2 0.13333,0.38333 0.2,0.55c0.1,0.16667 0.21667,0.35 0.35,0.55c0.13333,0.16667 0.25,0.33333 0.35,0.5c0.06667,0.2 0.13333,0.38333 0.2,0.55c0.16667,0 0.33333,0 0.5,0c0.26667,-0.16667 0.51667,-0.35 0.75,-0.55c0.1,-0.16667 0.21667,-0.33333 0.35,-0.5c0.4,-0.13333 0.81667,-0.26667 1.25,-0.4c6.23333,-0.1 12.48333,-0.21667 18.75,-0.35c0.4,-0.1 0.81667,-0.21667 1.25,-0.35c3.4,-0.1 6.78333,-0.21667 10.15,-0.35c0.43333,-0.13333 0.85,-0.25 1.25,-0.35c4.3,0 8.58333,0 12.85,0c0.36667,0.1 0.73333,0.21667 1.1,0.35c3.73333,0 7.48333,0 11.25,0c0.4,-0.13333 0.81667,-0.25 1.25,-0.35c1.23333,-0.13333 2.48333,-0.25 3.75,-0.35c0.4,-0.13333 0.81667,-0.25 1.25,-0.35c2.86667,0 5.71667,0 8.55,0c0.36667,0.1 0.73333,0.21667 1.1,0.35c0.16667,0.16667 0.33333,0.33333 0.5,0.5c0.2,0.2 0.38333,0.38333 0.55,0.55c0.2,0.2 0.38333,0.38333 0.55,0.55c0.23333,0.16667 0.46667,0.35 0.7,0.55c0.16667,0.16667 0.35,0.33333 0.55,0.5c0.1,0.2 0.21667,0.38333 0.35,0.55c0.13333,0.16667 0.25,0.35 0.35,0.55c0.13333,0 0.25,0 0.35,0c0.2,-0.2 0.38333,-0.38333 0.55,-0.55c0.23333,-0.16667 0.46667,-0.35 0.7,-0.55c0.13333,-0.16667 0.25,-0.33333 0.35,-0.5c0.43333,-0.13333 0.86667,-0.23333 1.3,-0.3c0.76667,-0.16667 1.53333,-0.33333 2.3,-0.5c0.4,-0.06667 0.81667,-0.16667 1.25,-0.3c1.23333,-0.1 2.48333,-0.21667 3.75,-0.35c0.4,-0.13333 0.81667,-0.25 1.25,-0.35c2.2,-0.13333 4.4,-0.25 6.6,-0.35c0.4,-0.13333 0.81667,-0.25 1.25,-0.35c1.73333,-0.13333 3.46667,-0.26667 5.2,-0.4c0.4,-0.1 0.81667,-0.21667 1.25,-0.35c1,-0.1 2,-0.21667 3,-0.35c0.43333,-0.1 0.85,-0.21667 1.25,-0.35c1.26667,-0.13333 2.51667,-0.25 3.75,-0.35c0.43333,-0.13333 0.85,-0.25 1.25,-0.35c3.1,0 6.2,0 9.3,0c0.36667,0.1 0.71667,0.21667 1.05,0.35c0.13333,0.1 0.25,0.21667 0.35,0.35c0.36667,0.13333 0.73333,0.25 1.1,0.35c0.16667,0.13333 0.35,0.25 0.55,0.35c0.3,0.13333 0.58333,0.25 0.85,0.35c0.2,0.2 0.38333,0.38333 0.55,0.55c0.23333,0.2 0.46667,0.38333 0.7,0.55c0.2,0.16667 0.38333,0.35 0.55,0.55c0.2,0.16667 0.38333,0.33333 0.55,0.5c0.1,0.2 0.21667,0.38333 0.35,0.55c0.23333,0.16667 0.46667,0.35 0.7,0.55c0.13333,0.16667 0.25,0.33333 0.35,0.5c0.13333,0.2 0.26667,0.38333 0.4,0.55c0.1,0.2 0.21667,0.38333 0.35,0.55c0.1,0.16667 0.21667,0.35 0.35,0.55c0.1,0.16667 0.21667,0.33333 0.35,0.5c0.13333,0.13333 0.25,0.25 0.35,0.35c0.06667,0.06667 0.13333,0.1 0.2,0.1c0.3,0 0.6,-0.03333 0.9,-0.1c0.03333,-0.16667 0.08333,-0.33333 0.15,-0.5c0.06667,-0.2 0.13333,-0.38333 0.2,-0.55c0,-0.16667 0,-0.35 0,-0.55c0.1,-0.16667 0.21667,-0.33333 0.35,-0.5c0.06667,-0.2 0.11667,-0.38333 0.15,-0.55c0.06667,-0.16667 0.13333,-0.35 0.2,-0.55c0,-0.16667 0,-0.35 0,-0.55c0,-0.16667 0,-0.33333 0,-0.5c0.06667,-0.2 0.13333,-0.38333 0.2,-0.55c0.1,-0.16667 0.21667,-0.35 0.35,-0.55c0.16667,-0.1 0.33333,-0.21667 0.5,-0.35c0.3,-0.1 0.6,-0.21667 0.9,-0.35c0.2,-0.13333 0.38333,-0.25 0.55,-0.35c0.3,-0.06667 0.6,-0.11667 0.9,-0.15c1.5,-0.13333 2.98333,-0.26667 4.45,-0.4c0.43333,-0.1 0.85,-0.21667 1.25,-0.35c1.96667,-0.13333 3.93333,-0.25 5.9,-0.35c0.4,-0.13333 0.81667,-0.25 1.25,-0.35c1.23333,-0.13333 2.48333,-0.25 3.75,-0.35c0.4,-0.13333 0.81667,-0.26667 1.25,-0.4c1,-0.1 2.01667,-0.21667 3.05,-0.35c0.4,-0.1 0.81667,-0.21667 1.25,-0.35c1,-0.1 2,-0.21667 3,-0.35c0.43333,-0.1 0.85,-0.21667 1.25,-0.35c1.5,-0.13333 3,-0.25 4.5,-0.35c0.4,-0.13333 0.81667,-0.25 1.25,-0.35c1,-0.13333 2,-0.25 3,-0.35c0.43333,-0.13333 0.85,-0.26667 1.25,-0.4c0.8,-0.1 1.58333,-0.21667 2.35,-0.35c0.4,-0.1 0.81667,-0.21667 1.25,-0.35c0.76667,-0.1 1.53333,-0.23333 2.3,-0.4c0.43333,-0.1 0.85,-0.2 1.25,-0.3c1.03333,-0.13333 2.05,-0.25 3.05,-0.35c0.4,-0.13333 0.81667,-0.25 1.25,-0.35c2.13333,0 4.26667,0 6.4,0c0.36667,0.1 0.73333,0.21667 1.1,0.35c0.1,0.1 0.21667,0.21667 0.35,0.35c0.36667,0.1 0.71667,0.21667 1.05,0.35c0.2,0.16667 0.38333,0.35 0.55,0.55c0.2,0.16667 0.38333,0.33333 0.55,0.5c0.16667,0.2 0.35,0.38333 0.55,0.55c0.23333,0.16667 0.46667,0.35 0.7,0.55c0.16667,0.16667 0.35,0.35 0.55,0.55c0.1,0.16667 0.21667,0.33333 0.35,0.5c0.1,0.2 0.21667,0.38333 0.35,0.55c0.06667,0.16667 0.11667,0.35 0.15,0.55c0,0.16667 0,0.33333 0,0.5c0.13333,0.2 0.26667,0.38333 0.4,0.55c0.1,0.16667 0.21667,0.35 0.35,0.55c0.1,0.16667 0.21667,0.33333 0.35,0.5c0.1,0.2 0.21667,0.38333 0.35,0.55c0,0.2 0,0.38333 0,0.55c0,0.16667 0,0.35 0,0.55c0.13333,0 0.25,0 0.35,0c0.13333,-0.2 0.25,-0.38333 0.35,-0.55c0.06667,-0.16667 0.13333,-0.35 0.2,-0.55c0.06667,-0.16667 0.11667,-0.35 0.15,-0.55c0,-0.16667 0,-0.33333 0,-0.5c0,-0.2 0,-0.38333 0,-0.55c0,-0.16667 0,-0.35 0,-0.55c0,-0.16667 0,-0.33333 0,-0.5c0,-0.2 0,-0.38333 0,-0.55c0,-0.16667 0,-0.35 0,-0.55c0.13333,-0.16667 0.26667,-0.33333 0.4,-0.5c0.1,-0.2 0.21667,-0.38333 0.35,-0.55c0.4,-0.13333 0.81667,-0.25 1.25,-0.35c3.13333,-0.13333 6.28333,-0.25 9.45,-0.35c0.43333,-0.13333 0.85,-0.26667 1.25,-0.4c2.66667,-0.1 5.35,-0.21667 8.05,-0.35c0.4,-0.1 0.81667,-0.21667 1.25,-0.35c7.83333,0 15.68333,0 23.55,0c0.43333,0.13333 0.85,0.25 1.25,0.35c1.96667,0.13333 3.93333,0.25 5.9,0.35c0.36667,0.13333 0.71667,0.26667 1.05,0.4c0.36667,0.1 0.73333,0.21667 1.1,0.35c0.33333,0.1 0.68333,0.21667 1.05,0.35c0.36667,0.1 0.73333,0.21667 1.1,0.35c0.33333,0.13333 0.68333,0.25 1.05,0.35c0.16667,0.16667 0.35,0.35 0.55,0.55c0.16667,0.16667 0.33333,0.33333 0.5,0.5c0.13333,0.2 0.26667,0.38333 0.4,0.55c0.03333,0.2 0.08333,0.38333 0.15,0.55c0.13333,0.16667 0.25,0.35 0.35,0.55c0.06667,0.16667 0.13333,0.33333 0.2,0.5c0.06667,0.2 0.11667,0.38333 0.15,0.55c0.13333,0.16667 0.26667,0.35 0.4,0.55c0.1,0.16667 0.21667,0.33333 0.35,0.5c0,0.2 0,0.38333 0,0.55c0,0.2 0,0.38333 0,0.55c0.1,0.16667 0.21667,0.35 0.35,0.55c0.1,0.16667 0.21667,0.33333 0.35,0.5c0.06667,0.2 0.13333,0.38333 0.2,0.55c0.1,0.16667 0.21667,0.35 0.35,0.55c0.06667,0.16667 0.11667,0.33333 0.15,0.5c0,0.2 0,0.38333 0,0.55c0,0.2 0,0.38333 0,0.55c0,0.16667 0,0.35 0,0.55c0.13333,0.16667 0.25,0.33333 0.35,0.5c0.13333,0.2 0.26667,0.38333 0.4,0.55c0,0.16667 0,0.35 0,0.55c0,0.16667 0,0.33333 0,0.5c0,0.2 0,0.38333 0,0.55c0,0.2 0,0.38333 0,0.55c0.1,0.16667 0.21667,0.35 0.35,0.55c0.06667,0.16667 0.11667,0.33333 0.15,0.5c0.06667,0.2 0.13333,0.38333 0.2,0.55c0,0.16667 0,0.35 0,0.55c0,0.16667 0,0.33333 0,0.5c0,0.2 0,0.38333 0,0.55c0,0.2 0,0.38333 0,0.55c0,0.16667 0,0.35 0,0.55c0.06667,0.16667 0.11667,0.33333 0.15,0.5c0.13333,0.2 0.26667,0.38333 0.4,0.55c0.03333,0.16667 0.08333,0.35 0.15,0.55c0,0.16667 0,0.33333 0,0.5c0,0.56667 0,1.11667 0,1.65c0,0.86667 0,1.75 0,2.65c0,1.43333 0,2.86667 0,4.3c0,1.96667 0,3.93333 0,5.9c0,0.33333 0,0.68333 0,1.05c0,0.16667 0,0.35 0,0.55c0,0.16667 0,0.35 0,0.55c0,0.16667 0,0.33333 0,0.5c0,0.2 0,0.38333 0,0.55c0,0.16667 0,0.35 0,0.55c0,0.16667 0,0.33333 0,0.5c0,0.2 0,0.38333 0,0.55c0,0.53333 0,1.06667 0,1.6c0,0.2 0,0.38333 0,0.55c0,1.6 0,3.2 0,4.8c0,1.1 0,2.18333 0,3.25c0,0.16667 0,0.33333 0,0.5c-0.1,0.2 -0.21667,0.38333 -0.35,0.55c-0.13333,0.16667 -0.25,0.35 -0.35,0.55c-0.13333,0.1 -0.25,0.21667 -0.35,0.35c-0.36667,0.13333 -0.73333,0.25 -1.1,0.35c-0.1,0.13333 -0.21667,0.25 -0.35,0.35c-0.36667,0.13333 -0.71667,0.25 -1.05,0.35c-0.13333,0.13333 -0.25,0.26667 -0.35,0.4c-0.3,0.03333 -0.6,0.1 -0.9,0.2c-0.36667,0.1 -0.73333,0.2 -1.1,0.3c-0.33333,0.13333 -0.68333,0.25 -1.05,0.35c-0.53333,0.13333 -1.06667,0.26667 -1.6,0.4c0,0.16667 0,0.33333 0,0.5c0,0.2 0,0.38333 0,0.55c0,0.16667 0,0.35 0,0.55c0,0.16667 0,0.33333 0,0.5c0,0.2 0,0.38333 0,0.55c0,0.16667 0,0.35 0,0.55c0,0.16667 0,0.35 0,0.55c-0.06667,0.16667 -0.13333,0.33333 -0.2,0.5c0,0.2 0,0.38333 0,0.55c0,0.16667 0,0.35 0,0.55c0,0.16667 0,0.33333 0,0.5c0,0.2 0,0.38333 0,0.55c0,0.16667 0,0.35 0,0.55c-0.06667,0.16667 -0.11667,0.35 -0.15,0.55c-0.06667,0.16667 -0.13333,0.33333 -0.2,0.5c-0.13333,0.2 -0.25,0.38333 -0.35,0.55c0,0.16667 0,0.35 0,0.55c0.16667,0.16667 0.35,0.33333 0.55,0.5c0.16667,0.2 0.33333,0.38333 0.5,0.55c0.13333,0.13333 0.25,0.25 0.35,0.35c0.06667,0.06667 0.13333,0.1 0.2,0.1c0.53333,0.13333 1.06667,0.21667 1.6,0.25c0.3,0.13333 0.6,0.26667 0.9,0.4c0.66667,0.1 1.31667,0.21667 1.95,0.35c0.3,0.1 0.6,0.2 0.9,0.3c0.43333,0.13333 0.85,0.26667 1.25,0.4c0.3,0.13333 0.6,0.25 0.9,0.35c0.23333,0.16667 0.46667,0.35 0.7,0.55c0.2,0.16667 0.38333,0.35 0.55,0.55c0.16667,0.16667 0.35,0.33333 0.55,0.5c0.16667,0.2 0.33333,0.38333 0.5,0.55c0.13333,0.16667 0.26667,0.35 0.4,0.55c0.1,0.16667 0.21667,0.33333 0.35,0.5c0,0.2 0,0.38333 0,0.55c0,0.53333 0,1.06667 0,1.6c0,0.53333 0,1.06667 0,1.6c0,0.73333 0,1.45 0,2.15c0,0.9 0,1.8 0,2.7c0,1.43333 0,2.85 0,4.25c0,1.1 0,2.18333 0,3.25c0,0.16667 0,0.33333 0,0.5c0,0.2 0,0.38333 0,0.55c0,0.2 0,0.38333 0,0.55c0,0.16667 0,0.35 0,0.55c0,0.16667 0,0.33333 0,0.5c0,0.2 0,0.38333 0,0.55c0,0.16667 0,0.35 0,0.55c0,0.33333 0,0.68333 0,1.05c0,0.2 0,0.38333 0,0.55c-0.13333,0.16667 -0.25,0.35 -0.35,0.55c-0.13333,0.16667 -0.26667,0.33333 -0.4,0.5c0,0.2 0,0.38333 0,0.55c0,0.16667 0,0.35 0,0.55c0,0.16667 0,0.33333 0,0.5c0,0.2 0,0.38333 0,0.55c0,0.2 0,0.38333 0,0.55c0,0.16667 0,0.35 0,0.55c-0.1,0.16667 -0.21667,0.33333 -0.35,0.5c-0.1,0.2 -0.21667,0.38333 -0.35,0.55c0,0.16667 0,0.35 0,0.55c0,0.16667 0,0.33333 0,0.5c0,0.2 0,0.38333 0,0.55c0,0.2 0,0.38333 0,0.55c0,0.16667 0,0.35 0,0.55c0,0.16667 0,0.33333 0,0.5c0,0.2 0,0.38333 0,0.55c0,0.16667 0,0.35 0,0.55c0,0.16667 0,0.33333 0,0.5c0,0.2 0,0.38333 0,0.55c-0.1,0.2 -0.21667,0.38333 -0.35,0.55c-0.13333,0.16667 -0.25,0.35 -0.35,0.55c-0.13333,0.16667 -0.25,0.33333 -0.35,0.5c-0.2,0.2 -0.38333,0.38333 -0.55,0.55c-0.16667,0.16667 -0.35,0.35 -0.55,0.55c-0.33333,0.1 -0.68333,0.2 -1.05,0.3c-0.6,0.13333 -1.2,0.28333 -1.8,0.45c-0.36667,0.1 -0.71667,0.18333 -1.05,0.25c-0.6,0.16667 -1.2,0.31667 -1.8,0.45c-0.36667,0.1 -0.71667,0.2 -1.05,0.3c-2.93333,0.13333 -5.85,0.26667 -8.75,0.4c-0.43333,0.1 -0.85,0.21667 -1.25,0.35c-2.03333,0.1 -4.06667,0.21667 -6.1,0.35c-0.33333,0.1 -0.68333,0.21667 -1.05,0.35c-1.56667,0.13333 -3.11667,0.25 -4.65,0.35c-0.36667,0.13333 -0.71667,0.25 -1.05,0.35c-3,0.13333 -5.98333,0.25 -8.95,0.35c-0.36667,0.13333 -0.71667,0.26667 -1.05,0.4c-6.66667,0 -13.33333,0 -20,0c-0.43333,-0.13333 -0.85,-0.26667 -1.25,-0.4c-1.73333,-0.1 -3.46667,-0.21667 -5.2,-0.35c-0.4,-0.1 -0.81667,-0.21667 -1.25,-0.35c-0.13333,-0.1 -0.25,-0.21667 -0.35,-0.35c-0.36667,-0.13333 -0.73333,-0.25 -1.1,-0.35c-0.1,-0.13333 -0.21667,-0.25 -0.35,-0.35c-0.33333,-0.13333 -0.68333,-0.25 -1.05,-0.35c-0.13333,-0.2 -0.25,-0.38333 -0.35,-0.55c-0.23333,-0.2 -0.48333,-0.38333 -0.75,-0.55c-0.16667,-0.16667 -0.33333,-0.35 -0.5,-0.55c-0.13333,-0.16667 -0.25,-0.33333 -0.35,-0.5c-0.06667,-0.2 -0.13333,-0.38333 -0.2,-0.55c-0.13333,-0.16667 -0.25,-0.35 -0.35,-0.55c-0.16667,-0.16667 -0.35,-0.33333 -0.55,-0.5c-0.1,-0.2 -0.21667,-0.38333 -0.35,-0.55c-0.06667,-0.16667 -0.13333,-0.35 -0.2,-0.55c-0.1,-0.16667 -0.21667,-0.35 -0.35,-0.55c-0.1,0.13333 -0.21667,0.26667 -0.35,0.4c-0.1,0.16667 -0.21667,0.33333 -0.35,0.5c0,0.2 0,0.38333 0,0.55c0,0.16667 0,0.35 0,0.55c0,0.16667 0,0.33333 0,0.5c-0.06667,0.2 -0.13333,0.38333 -0.2,0.55c-0.1,0.16667 -0.21667,0.35 -0.35,0.55c-0.16667,0.16667 -0.33333,0.35 -0.5,0.55c-0.13333,0.16667 -0.26667,0.33333 -0.4,0.5c-0.16667,0.2 -0.33333,0.38333 -0.5,0.55c-0.2,0.16667 -0.38333,0.35 -0.55,0.55c-0.16667,0.1 -0.35,0.21667 -0.55,0.35c-0.03333,0.06667 -0.1,0.1 -0.2,0.1c-0.26667,0.1 -0.55,0.18333 -0.85,0.25c-0.6,0.13333 -1.2,0.26667 -1.8,0.4c-0.36667,0.1 -0.71667,0.2 -1.05,0.3c-2.73333,0.13333 -5.46667,0.25 -8.2,0.35c-0.36667,0.13333 -0.73333,0.26667 -1.1,0.4c-2.86667,0 -5.71667,0 -8.55,0c-0.43333,-0.13333 -0.85,-0.26667 -1.25,-0.4c-1.13333,0 -2.26667,0 -3.4,0c-0.36667,0.13333 -0.73333,0.25 -1.1,0.35c-0.56667,0.13333 -1.15,0.28333 -1.75,0.45c-0.36667,0.06667 -0.73333,0.16667 -1.1,0.3c-0.46667,0 -0.93333,0 -1.4,0c-0.43333,-0.13333 -0.85,-0.25 -1.25,-0.35c-0.2,-0.2 -0.38333,-0.38333 -0.55,-0.55c-0.16667,-0.16667 -0.35,-0.35 -0.55,-0.55c-0.16667,-0.16667 -0.33333,-0.33333 -0.5,-0.5c-0.2,-0.2 -0.38333,-0.38333 -0.55,-0.55c-0.13333,-0.2 -0.25,-0.38333 -0.35,-0.55c-0.23333,-0.16667 -0.48333,-0.35 -0.75,-0.55c-0.16667,0 -0.33333,0 -0.5,0c-0.13333,0.13333 -0.25,0.26667 -0.35,0.4c-0.06667,0.03333 -0.13333,0.06667 -0.2,0.1c-0.36667,0.16667 -0.71667,0.3 -1.05,0.4c-0.13333,0.13333 -0.26667,0.25 -0.4,0.35c-0.33333,0.13333 -0.68333,0.26667 -1.05,0.4c-0.13333,0.1 -0.25,0.21667 -0.35,0.35c-0.3,0.03333 -0.6,0.1 -0.9,0.2c-0.36667,0.1 -0.71667,0.2 -1.05,0.3c-0.36667,0.13333 -0.73333,0.26667 -1.1,0.4c-8.43333,0.1 -16.88333,0.21667 -25.35,0.35c-0.36667,0.1 -0.71667,0.21667 -1.05,0.35c-11.43333,0 -22.86667,0 -34.3,0c-0.43333,-0.13333 -0.85,-0.25 -1.25,-0.35c-1.5,-0.13333 -2.98333,-0.25 -4.45,-0.35c-0.43333,-0.13333 -0.85,-0.26667 -1.25,-0.4c-0.06667,-0.1 -0.13333,-0.21667 -0.2,-0.35c-0.4,-0.1 -0.81667,-0.21667 -1.25,-0.35c-0.1,-0.16667 -0.21667,-0.35 -0.35,-0.55c-0.23333,-0.16667 -0.46667,-0.33333 -0.7,-0.5c-0.2,-0.2 -0.38333,-0.38333 -0.55,-0.55c-0.16667,-0.16667 -0.35,-0.35 -0.55,-0.55c-0.1,-0.16667 -0.21667,-0.33333 -0.35,-0.5c-0.1,-0.2 -0.21667,-0.38333 -0.35,-0.55c-0.06667,-0.2 -0.13333,-0.38333 -0.2,-0.55c-0.16667,-0.1 -0.33333,-0.21667 -0.5,-0.35c-0.2,0.16667 -0.38333,0.35 -0.55,0.55c-0.4,0.16667 -0.81667,0.33333 -1.25,0.5c-0.13333,0.13333 -0.25,0.26667 -0.35,0.4c-0.36667,0.1 -0.73333,0.21667 -1.1,0.35c-0.1,0.1 -0.21667,0.21667 -0.35,0.35c-0.3,0.06667 -0.58333,0.13333 -0.85,0.2c-0.36667,0.1 -0.73333,0.21667 -1.1,0.35c-0.36667,0.1 -0.71667,0.21667 -1.05,0.35c-7.16667,0 -14.31667,0 -21.45,0c-0.4,-0.13333 -0.81667,-0.25 -1.25,-0.35c-0.1,-0.13333 -0.21667,-0.26667 -0.35,-0.4c-0.36667,-0.1 -0.71667,-0.21667 -1.05,-0.35c-0.13333,-0.16667 -0.26667,-0.33333 -0.4,-0.5c-0.16667,-0.13333 -0.33333,-0.26667 -0.5,-0.4c-0.06667,-0.03333 -0.13333,-0.06667 -0.2,-0.1c-0.36667,-0.16667 -0.71667,-0.3 -1.05,-0.4c-0.2,0.1 -0.38333,0.21667 -0.55,0.35c-0.06667,0.16667 -0.13333,0.35 -0.2,0.55c-0.16667,0.16667 -0.33333,0.33333 -0.5,0.5c-0.43333,0.2 -0.85,0.38333 -1.25,0.55c-0.13333,0.13333 -0.25,0.25 -0.35,0.35c-0.3,0.06667 -0.6,0.13333 -0.9,0.2c-2.5,0.1 -5,0.21667 -7.5,0.35c-0.36667,0.1 -0.73333,0.21667 -1.1,0.35c-1.06667,0.13333 -2.13333,0.25 -3.2,0.35c-0.36667,0.13333 -0.71667,0.25 -1.05,0.35c-0.83333,0.13333 -1.66667,0.25 -2.5,0.35c-0.36667,0.13333 -0.73333,0.26667 -1.1,0.4c-3.56667,0 -7.13333,0 -10.7,0c-0.43333,-0.13333 -0.85,-0.26667 -1.25,-0.4c-0.3,-0.1 -0.6,-0.2 -0.9,-0.3c-0.4,-0.13333 -0.81667,-0.26667 -1.25,-0.4c-0.06667,-0.1 -0.13333,-0.21667 -0.2,-0.35c-0.4,-0.13333 -0.81667,-0.25 -1.25,-0.35c-0.1,-0.2 -0.21667,-0.38333 -0.35,-0.55c-0.23333,-0.16667 -0.46667,-0.35 -0.7,-0.55c-0.16667,-0.16667 -0.35,-0.33333 -0.55,-0.5c-0.1,-0.2 -0.21667,-0.38333 -0.35,-0.55c-0.06667,-0.16667 -0.11667,-0.35 -0.15,-0.55c-0.13333,-0.16667 -0.26667,-0.33333 -0.4,-0.5c-0.1,-0.2 -0.21667,-0.38333 -0.35,-0.55c0,-0.16667 0,-0.35 0,-0.55c0,-0.16667 0,-0.35 0,-0.55c-0.1,-0.16667 -0.21667,-0.33333 -0.35,-0.5c-0.1,-0.2 -0.21667,-0.38333 -0.35,-0.55c0,-0.16667 0,-0.35 0,-0.55c-0.06667,-0.1 -0.13333,-0.21667 -0.2,-0.35c-0.16667,0.2 -0.33333,0.38333 -0.5,0.55c-0.13333,0.16667 -0.25,0.35 -0.35,0.55c-0.26667,0.16667 -0.51667,0.33333 -0.75,0.5c-0.16667,0.2 -0.33333,0.38333 -0.5,0.55c-0.13333,0.13333 -0.26667,0.25 -0.4,0.35c-0.03333,0.06667 -0.08333,0.11667 -0.15,0.15c-0.36667,0.13333 -0.73333,0.26667 -1.1,0.4c-0.1,0.1 -0.21667,0.21667 -0.35,0.35c-0.33333,0.13333 -0.68333,0.25 -1.05,0.35c-0.13333,0.13333 -0.25,0.25 -0.35,0.35c-0.36667,0.13333 -0.73333,0.25 -1.1,0.35c-0.1,0.13333 -0.21667,0.26667 -0.35,0.4c-0.36667,0.1 -0.71667,0.21667 -1.05,0.35c-0.13333,0.1 -0.25,0.21667 -0.35,0.35c-0.36667,0.1 -0.73333,0.21667 -1.1,0.35c-0.1,0.13333 -0.21667,0.25 -0.35,0.35c-0.3,0.06667 -0.6,0.13333 -0.9,0.2c-0.53333,0.1 -1.06667,0.21667 -1.6,0.35c-0.46667,0.16667 -0.95,0.35 -1.45,0.55c-0.1,0.1 -0.21667,0.21667 -0.35,0.35c-0.3,0.03333 -0.6,0.08333 -0.9,0.15c-0.56667,0.13333 -1.15,0.26667 -1.75,0.4c-0.36667,0.1 -0.73333,0.2 -1.1,0.3c-0.6,0.13333 -1.18333,0.28333 -1.75,0.45c-0.36667,0.06667 -0.73333,0.16667 -1.1,0.3c-4.5,0 -9.01667,0 -13.55,0c-0.43333,-0.13333 -0.85,-0.25 -1.25,-0.35c-0.53333,-0.13333 -1.06667,-0.26667 -1.6,-0.4c-0.43333,-0.1 -0.85,-0.21667 -1.25,-0.35c-0.3,-0.1 -0.6,-0.2 -0.9,-0.3c-0.96667,-0.26667 -1.91667,-0.53333 -2.85,-0.8c-1.13333,-0.33333 -2.26667,-0.65 -3.4,-0.95c-0.96667,-0.3 -1.91667,-0.56667 -2.85,-0.8c-0.13333,-0.1 -0.25,-0.21667 -0.35,-0.35c-0.36667,-0.1 -0.73333,-0.2 -1.1,-0.3c-0.53333,-0.16667 -1.06667,-0.31667 -1.6,-0.45c-0.43333,-0.1 -0.85,-0.2 -1.25,-0.3c-0.13333,-0.13333 -0.25,-0.25 -0.35,-0.35c-0.36667,-0.13333 -0.73333,-0.26667 -1.1,-0.4c-0.03333,-0.1 -0.08333,-0.21667 -0.15,-0.35c-0.43333,-0.1 -0.85,-0.21667 -1.25,-0.35c-0.2,-0.16667 -0.38333,-0.35 -0.55,-0.55c-0.16667,-0.16667 -0.35,-0.33333 -0.55,-0.5c-0.16667,-0.2 -0.33333,-0.38333 -0.5,-0.55c-0.2,-0.16667 -0.38333,-0.35 -0.55,-0.55c-0.13333,-0.16667 -0.25,-0.33333 -0.35,-0.5c-0.13333,-0.2 -0.25,-0.38333 -0.35,-0.55c-0.06667,-0.16667 -0.13333,-0.35 -0.2,-0.55c-0.16667,-0.16667 -0.35,-0.35 -0.55,-0.55c-0.1,-0.16667 -0.21667,-0.33333 -0.35,-0.5c-0.23333,-0.2 -0.46667,-0.38333 -0.7,-0.55c-0.13333,-0.16667 -0.25,-0.35 -0.35,-0.55c0,-0.16667 0,-0.33333 0,-0.5c0,-0.2 0,-0.38333 0,-0.55c-0.13333,0 -0.25,0 -0.35,0c-0.13333,0.16667 -0.25,0.35 -0.35,0.55c-0.13333,0.16667 -0.26667,0.33333 -0.4,0.5c-0.1,0.13333 -0.21667,0.25 -0.35,0.35c-0.3,0.13333 -0.6,0.26667 -0.9,0.4c-0.16667,0.16667 -0.33333,0.33333 -0.5,0.5c-0.2,0.2 -0.38333,0.38333 -0.55,0.55c-0.16667,0.16667 -0.35,0.35 -0.55,0.55c-0.16667,0.16667 -0.33333,0.33333 -0.5,0.5c-0.2,0.2 -0.38333,0.38333 -0.55,0.55c-0.16667,0.2 -0.35,0.38333 -0.55,0.55c-0.16667,0.16667 -0.35,0.35 -0.55,0.55c-0.23333,0.16667 -0.46667,0.33333 -0.7,0.5c-0.23333,0.2 -0.46667,0.38333 -0.7,0.55c-0.3,0.16667 -0.6,0.35 -0.9,0.55c-0.16667,0.16667 -0.35,0.33333 -0.55,0.5c-0.23333,0.2 -0.46667,0.38333 -0.7,0.55c-0.23333,0.16667 -0.48333,0.33333 -0.75,0.5c-0.26667,0.2 -0.55,0.4 -0.85,0.6c-0.23333,0.16667 -0.48333,0.33333 -0.75,0.5c-0.26667,0.2 -0.55,0.38333 -0.85,0.55c-0.23333,0.13333 -0.48333,0.25 -0.75,0.35c-0.46667,0.13333 -0.93333,0.25 -1.4,0.35c-0.23333,0.2 -0.48333,0.38333 -0.75,0.55c-0.26667,0.16667 -0.55,0.35 -0.85,0.55c-0.3,0.16667 -0.6,0.35 -0.9,0.55c-0.23333,0.16667 -0.46667,0.33333 -0.7,0.5c-0.13333,0.13333 -0.26667,0.25 -0.4,0.35c-0.26667,0.06667 -0.55,0.13333 -0.85,0.2c-0.53333,0.1 -1.08333,0.21667 -1.65,0.35c-0.23333,0.16667 -0.46667,0.35 -0.7,0.55c-0.1,0.1 -0.21667,0.21667 -0.35,0.35c-0.3,0.06667 -0.6,0.11667 -0.9,0.15c-0.76667,0.13333 -1.53333,0.28333 -2.3,0.45c-0.43333,0.06667 -0.85,0.15 -1.25,0.25c-0.76667,0.13333 -1.53333,0.28333 -2.3,0.45c-0.43333,0.06667 -0.86667,0.16667 -1.3,0.3c-11.9,0 -23.8,0 -35.7,0c-0.4,-0.13333 -0.81667,-0.25 -1.25,-0.35c-1.46667,-0.13333 -2.95,-0.25 -4.45,-0.35c-0.43333,-0.13333 -0.85,-0.26667 -1.25,-0.4c-0.3,-0.1 -0.6,-0.2 -0.9,-0.3c-0.4,-0.13333 -0.81667,-0.26667 -1.25,-0.4c-0.76667,-0.1 -1.53333,-0.21667 -2.3,-0.35c-0.43333,-0.1 -0.85,-0.23333 -1.25,-0.4c-0.3,-0.1 -0.6,-0.2 -0.9,-0.3c-0.43333,-0.13333 -0.85,-0.26667 -1.25,-0.4c-0.3,-0.1 -0.6,-0.2 -0.9,-0.3c-0.43333,-0.13333 -0.85,-0.26667 -1.25,-0.4c-0.73333,-0.23333 -1.45,-0.46667 -2.15,-0.7c-0.13333,-0.1 -0.25,-0.21667 -0.35,-0.35c-0.36667,-0.13333 -0.73333,-0.25 -1.1,-0.35c-0.03333,-0.13333 -0.08333,-0.25 -0.15,-0.35c-0.43333,-0.13333 -0.85,-0.25 -1.25,-0.35c-0.13333,-0.2 -0.25,-0.38333 -0.35,-0.55c-0.23333,-0.2 -0.48333,-0.38333 -0.75,-0.55c-0.1,-0.16667 -0.21667,-0.35 -0.35,-0.55c-0.03333,-0.16667 -0.08333,-0.33333 -0.15,-0.5c-0.06667,-0.2 -0.13333,-0.38333 -0.2,-0.55c-0.1,-0.16667 -0.21667,-0.35 -0.35,-0.55c0,-0.16667 0,-0.33333 0,-0.5c-0.06667,-0.2 -0.13333,-0.38333 -0.2,-0.55c-0.03333,-0.16667 -0.08333,-0.35 -0.15,-0.55c-0.13333,-0.16667 -0.25,-0.35 -0.35,-0.55c-0.06667,-0.16667 -0.13333,-0.33333 -0.2,-0.5c-0.1,-0.2 -0.21667,-0.38333 -0.35,-0.55c-0.06667,-0.16667 -0.13333,-0.35 -0.2,-0.55c0,-0.16667 0,-0.33333 0,-0.5c-0.03333,-0.2 -0.08333,-0.38333 -0.15,-0.55c-0.13333,-0.16667 -0.25,-0.35 -0.35,-0.55c-0.06667,-0.16667 -0.13333,-0.35 -0.2,-0.55c0,-0.16667 0,-0.33333 0,-0.5c-0.06667,-0.2 -0.11667,-0.38333 -0.15,-0.55c-0.13333,-0.16667 -0.26667,-0.35 -0.4,-0.55c-0.03333,-0.16667 -0.08333,-0.33333 -0.15,-0.5c-0.13333,-0.2 -0.25,-0.38333 -0.35,-0.55c-0.13333,-0.16667 -0.25,-0.35 -0.35,-0.55c0,-0.16667 0,-0.35 0,-0.55c0,-0.16667 0,-0.33333 0,-0.5c-0.13333,-0.2 -0.26667,-0.38333 -0.4,-0.55c-0.1,-0.16667 -0.21667,-0.35 -0.35,-0.55c0,-0.16667 0,-0.33333 0,-0.5c-0.03333,-0.2 -0.08333,-0.38333 -0.15,-0.55c-0.06667,-0.16667 -0.13333,-0.35 -0.2,-0.55c-0.1,-0.16667 -0.21667,-0.35 -0.35,-0.55c0,-0.16667 0,-0.33333 0,-0.5c0,-0.2 0,-0.38333 0,-0.55c-0.13333,-0.16667 -0.25,-0.35 -0.35,-0.55c-0.13333,-0.16667 -0.25,-0.33333 -0.35,-0.5c-0.06667,-0.2 -0.13333,-0.38333 -0.2,-0.55c-0.1,-0.16667 -0.21667,-0.35 -0.35,-0.55c-0.06667,-0.16667 -0.13333,-0.35 -0.2,-0.55c0,-0.16667 0,-0.33333 0,-0.5c0,-0.2 0,-0.38333 0,-0.55c-0.03333,-0.16667 -0.08333,-0.35 -0.15,-0.55c-0.06667,-0.16667 -0.13333,-0.33333 -0.2,-0.5c-0.1,-0.2 -0.21667,-0.38333 -0.35,-0.55c0,-0.16667 0,-0.35 0,-0.55c0,-0.16667 0,-0.35 0,-0.55c-0.1,-0.16667 -0.21667,-0.33333 -0.35,-0.5c-0.13333,-0.2 -0.25,-0.38333 -0.35,-0.55c-0.06667,-0.16667 -0.13333,-0.35 -0.2,-0.55c-0.1,-0.16667 -0.21667,-0.33333 -0.35,-0.5c-0.06667,-0.2 -0.11667,-0.38333 -0.15,-0.55c0,-0.16667 0,-0.35 0,-0.55c0,-0.16667 0,-0.35 0,-0.55c-0.06667,-0.16667 -0.13333,-0.33333 -0.2,-0.5c-0.06667,-0.2 -0.13333,-0.38333 -0.2,-0.55c-0.16667,-0.16667 -0.33333,-0.35 -0.5,-0.55c-0.13333,-0.16667 -0.25,-0.33333 -0.35,-0.5c-0.06667,-0.2 -0.13333,-0.38333 -0.2,-0.55c0,-0.16667 0,-0.35 0,-0.55c0,-0.16667 0,-0.35 0,-0.55c-0.06667,-0.16667 -0.13333,-0.33333 -0.2,-0.5c-0.1,-0.2 -0.21667,-0.38333 -0.35,-0.55c-0.16667,-0.16667 -0.33333,-0.35 -0.5,-0.55c-0.13333,-0.16667 -0.26667,-0.33333 -0.4,-0.5c-0.03333,-0.2 -0.08333,-0.38333 -0.15,-0.55c-0.13333,-0.16667 -0.25,-0.35 -0.35,-0.55c-0.06667,-0.16667 -0.13333,-0.35 -0.2,-0.55c-0.06667,-0.16667 -0.11667,-0.33333 -0.15,-0.5c-0.2,-0.2 -0.38333,-0.38333 -0.55,-0.55c-0.13333,-0.16667 -0.25,-0.35 -0.35,-0.55c-0.13333,-0.16667 -0.25,-0.33333 -0.35,-0.5c-0.06667,-0.2 -0.13333,-0.38333 -0.2,-0.55c-0.1,-0.16667 -0.21667,-0.35 -0.35,-0.55c-0.06667,-0.16667 -0.13333,-0.33333 -0.2,-0.5c-0.1,-0.2 -0.21667,-0.38333 -0.35,-0.55c-0.1,-0.2 -0.21667,-0.38333 -0.35,-0.55c0,-0.16667 0,-0.35 0,-0.55c0,-0.16667 0,-0.33333 0,-0.5c0,-0.2 0,-0.38333 0,-0.55c0,-0.16667 0,-0.35 0,-0.55c0,-0.16667 0,-0.33333 0,-0.5c0.13333,-0.2 0.25,-0.38333 0.35,-0.55c0.13333,-0.2 0.25,-0.38333 0.35,-0.55c0.43333,-0.16667 0.85,-0.35 1.25,-0.55c0.2,-0.1 0.38333,-0.21667 0.55,-0.35c0.3,-0.1 0.6,-0.21667 0.9,-0.35c0.16667,-0.1 0.35,-0.21667 0.55,-0.35c0.3,-0.13333 0.58333,-0.25 0.85,-0.35c0.3,-0.2 0.61667,-0.38333 0.95,-0.55c0.2,-0.1 0.43333,-0.21667 0.7,-0.35c0.1,-0.06667 0.21667,-0.13333 0.35,-0.2c0.4,-0.1 0.81667,-0.21667 1.25,-0.35c0.3,-0.1 0.6,-0.2 0.9,-0.3c0.4,-0.13333 0.8,-0.28333 1.2,-0.45c0.33333,-0.1 0.63333,-0.2 0.9,-0.3c0.3,-0.06667 0.6,-0.13333 0.9,-0.2c0.3,-0.1 0.6,-0.21667 0.9,-0.35c0.36667,-0.16667 0.73333,-0.35 1.1,-0.55c0.23333,-0.1 0.46667,-0.21667 0.7,-0.35c0.3,-0.06667 0.6,-0.11667 0.9,-0.15c0.53333,-0.13333 1.06667,-0.26667 1.6,-0.4c0.4,-0.1 0.81667,-0.21667 1.25,-0.35c0.16667,-0.1 0.35,-0.21667 0.55,-0.35c-0.13333,-0.16667 -0.26667,-0.33333 -0.4,-0.5c0,-0.2 0,-0.38333 0,-0.55c0,-0.2 0,-0.38333 0,-0.55c-0.1,-0.16667 -0.21667,-0.35 -0.35,-0.55c-0.1,-0.16667 -0.21667,-0.33333 -0.35,-0.5c-0.06667,-0.2 -0.11667,-0.38333 -0.15,-0.55c-0.06667,-0.16667 -0.13333,-0.35 -0.2,-0.55c-0.13333,-0.16667 -0.25,-0.33333 -0.35,-0.5c0,-0.2 0,-0.38333 0,-0.55c-0.06667,-0.2 -0.13333,-0.38333 -0.2,-0.55c-0.03333,-0.16667 -0.08333,-0.35 -0.15,-0.55c-0.13333,-0.16667 -0.25,-0.33333 -0.35,-0.5c0,-0.2 0,-0.38333 0,-0.55c0,-0.16667 0,-0.35 0,-0.55c-1.1,0 -2.18333,0 -3.25,0c-0.4,0.13333 -0.81667,0.25 -1.25,0.35c-1.3,0.13333 -2.6,0.26667 -3.9,0.4c-0.36667,0.1 -0.73333,0.21667 -1.1,0.35c-1.66667,0 -3.33333,0 -5,0c-0.4,-0.13333 -0.81667,-0.25 -1.25,-0.35c-0.1,-0.2 -0.21667,-0.38333 -0.35,-0.55c-0.23333,-0.2 -0.46667,-0.38333 -0.7,-0.55c-0.13333,-0.16667 -0.25,-0.35 -0.35,-0.55c-0.06667,-0.16667 -0.13333,-0.33333 -0.2,-0.5c-0.06667,-0.2 -0.11667,-0.38333 -0.15,-0.55c-0.13333,-0.16667 -0.25,-0.35 -0.35,-0.55c0,-0.16667 0,-0.33333 0,-0.5c-0.06667,-0.2 -0.13333,-0.38333 -0.2,-0.55c-0.06667,-0.2 -0.13333,-0.38333 -0.2,-0.55c-0.1,-0.16667 -0.21667,-0.35 -0.35,-0.55c0,-0.16667 0,-0.33333 0,-0.5c-0.06667,-0.2 -0.11667,-0.38333 -0.15,-0.55c-0.13333,-0.16667 -0.25,-0.35 -0.35,-0.55c-0.06667,-0.16667 -0.13333,-0.33333 -0.2,-0.5c-0.06667,-0.2 -0.13333,-0.38333 -0.2,-0.55c-0.1,-0.2 -0.21667,-0.38333 -0.35,-0.55c-0.06667,-0.16667 -0.11667,-0.35 -0.15,-0.55c0,-0.16667 0,-0.33333 0,-0.5c0,-0.2 0,-0.38333 0,-0.55c0,-0.16667 0,-0.35 0,-0.55c0,-0.16667 0,-0.33333 0,-0.5c0,-0.2 0,-0.38333 0,-0.55c0,-0.2 0,-0.38333 0,-0.55c-0.06667,-0.16667 -0.13333,-0.35 -0.2,-0.55c-0.1,-0.16667 -0.21667,-0.33333 -0.35,-0.5c-0.06667,-0.2 -0.13333,-0.38333 -0.2,-0.55c0,-0.16667 0,-0.35 0,-0.55c0,-0.16667 0,-0.33333 0,-0.5c0,-0.2 0,-0.38333 0,-0.55c0,-0.16667 0,-0.35 0,-0.55c-0.03333,-0.16667 -0.08333,-0.35 -0.15,-0.55c-0.06667,-0.16667 -0.13333,-0.33333 -0.2,-0.5c-0.06667,-0.2 -0.11667,-0.38333 -0.15,-0.55c-0.06667,-0.16667 -0.13333,-0.35 -0.2,-0.55c0,-0.16667 0,-0.33333 0,-0.5c0,-0.2 0,-0.38333 0,-0.55c0,-0.16667 0,-0.35 0,-0.55c0,-0.16667 0,-0.35 0,-0.55c0,-0.16667 0,-0.33333 0,-0.5c0,-0.2 0,-0.38333 0,-0.55c-0.06667,-0.16667 -0.11667,-0.35 -0.15,-0.55c-0.06667,-0.16667 -0.13333,-0.33333 -0.2,-0.5c-0.06667,-0.2 -0.13333,-0.38333 -0.2,-0.55c-0.03333,-0.16667 -0.08333,-0.35 -0.15,-0.55c0,-0.16667 0,-0.35 0,-0.55c0,-0.16667 0,-0.33333 0,-0.5c0,-0.2 0,-0.38333 0,-0.55c0,-0.16667 0,-0.35 0,-0.55c-0.06667,-0.16667 -0.13333,-0.33333 -0.2,-0.5c-0.06667,-0.2 -0.11667,-0.38333 -0.15,-0.55c-0.06667,-0.16667 -0.13333,-0.35 -0.2,-0.55c-0.06667,-0.16667 -0.11667,-0.35 -0.15,-0.55c0,-0.16667 0,-0.33333 0,-0.5c-0.06667,-0.2 -0.13333,-0.38333 -0.2,-0.55c-0.06667,-0.16667 -0.13333,-0.35 -0.2,-0.55c-0.03333,-0.16667 -0.08333,-0.33333 -0.15,-0.5c0,-0.2 0,-0.38333 0,-0.55c-0.06667,-0.16667 -0.13333,-0.35 -0.2,-0.55c-0.06667,-0.16667 -0.11667,-0.35 -0.15,-0.55c-0.06667,-0.16667 -0.13333,-0.33333 -0.2,-0.5c-0.06667,-0.2 -0.11667,-0.38333 -0.15,-0.55c-0.06667,-0.16667 -0.13333,-0.35 -0.2,-0.55c0,-0.16667 0,-0.33333 0,-0.5c0,-0.2 0,-0.38333 0,-0.55c0,-0.16667 0,-0.35 0,-0.55c0,-0.16667 0,-0.35 0,-0.55c0,-0.16667 0,-0.33333 0,-0.5c0,-0.2 0,-0.38333 0,-0.55c0,-0.16667 0,-0.35 0,-0.55c0,-0.16667 0,-0.33333 0,-0.5c-0.13333,-0.2 -0.25,-0.38333 -0.35,-0.55c-0.06667,-0.16667 -0.13333,-0.35 -0.2,-0.55c-0.06667,-0.16667 -0.11667,-0.35 -0.15,-0.55c0,-0.16667 0,-0.33333 0,-0.5c0,-0.2 0,-0.38333 0,-0.55c0,-0.16667 0,-0.35 0,-0.55c0,-0.16667 0,-0.33333 0,-0.5c0,-0.2 0,-0.38333 0,-0.55c0,-0.16667 0,-0.35 0,-0.55c0,-0.16667 0,-0.35 0,-0.55c0.1,-0.16667 0.21667,-0.33333 0.35,-0.5c0.1,-0.2 0.21667,-0.38333 0.35,-0.55c0.4,-0.13333 0.81667,-0.26667 1.25,-0.4c0.3,-0.1 0.6,-0.2 0.9,-0.3c0.4,-0.2 0.81667,-0.38333 1.25,-0.55c0.16667,-0.13333 0.35,-0.25 0.55,-0.35c0.26667,-0.06667 0.55,-0.13333 0.85,-0.2c0.53333,-0.1 1.06667,-0.21667 1.6,-0.35c0.43333,-0.1 0.86667,-0.21667 1.3,-0.35c0.53333,-0.13333 1.06667,-0.25 1.6,-0.35c0.4,-0.13333 0.81667,-0.23333 1.25,-0.3c0.76667,-0.16667 1.53333,-0.3 2.3,-0.4c0.43333,-0.13333 0.85,-0.26667 1.25,-0.4c0.76667,-0.1 1.53333,-0.23333 2.3,-0.4c0.43333,-0.06667 0.85,-0.16667 1.25,-0.3c1.03333,-0.1 2.05,-0.21667 3.05,-0.35z" fill="#ffffff"/><path d="M511.7,393.35c-18.53333,11.36667 -38.36667,14.38333 -59.5,9.05l-1.4,1.6c-0.86667,0.06667 -1.51667,-0.25 -1.95,-0.95c-4.3,-6.93333 -6.66667,-14.66667 -7.1,-23.2c-0.06667,-1.13333 0.23333,-2.1 0.9,-2.9l18.6,0.1l-7.35,-31.15l-21.2,-0.8l-1.35,-1.55c1.06667,-3.2 0.93333,-6.96667 -0.4,-11.3c-1.23333,-4 -1.96667,-8.05 -2.2,-12.15c0.3,-0.4 0.65,-0.66667 1.05,-0.8c17.56667,-4.2 35.33333,-4.25 53.3,-0.15c5.2,1.26667 10.16667,3.2 14.9,5.8c12.13333,6.6 19.55,17.05 22.25,31.35c1.26667,5.83333 1.98333,11.73333 2.15,17.7c0.23333,8.4 -3.33333,14.85 -10.7,19.35M479,350.15l4.4,22c3.1,-0.1 6.35,-1.01667 9.75,-2.75c2.33333,-1.13333 3.38333,-2.88333 3.15,-5.25c-1.1,-10.2 -6.86667,-14.86667 -17.3,-14M591.1,389.85c-1.33333,1.83333 -2.93333,3.21667 -4.8,4.15c-14.1,7.36667 -29.03333,9.1 -44.8,5.2c-1.03333,-0.3 -1.91667,-0.81667 -2.65,-1.55c-7.36667,-7.03333 -11.43333,-15.95 -12.2,-26.75c-0.43333,-5.83333 -1.1,-11.65 -2,-17.45c-1.73333,-11.36667 1.85,-20.41667 10.75,-27.15c0.73333,-0.6 1.53333,-1.05 2.4,-1.35c13.3,-4.9 26.71667,-4.75 40.25,0.45c0.8,0.3 1.41667,0.78333 1.85,1.45c10.46667,15.43333 15.38333,32.53333 14.75,51.3c0.1,4.26667 -1.08333,8.16667 -3.55,11.7M552,353.6c0.3,0.13333 0.43333,0.38333 0.4,0.75c-0.2,2.06667 -0.45,4.08333 -0.75,6.05c-1.26667,8.36667 2,12.43333 9.8,12.2c2,-2.8 3.25,-5.91667 3.75,-9.35c0.2,-1.33333 0.16667,-2.66667 -0.1,-4c-1.16667,-5.96667 -4.7,-8.36667 -10.6,-7.2c-2.56667,0.56667 -3.4,1.08333 -2.5,1.55M660.45,326.3l4.2,67.45l-2.85,3.35h-21.85l-17.85,-23.75l3.3,23.05l-23.05,1.25c-1.16667,-1.1 -1.9,-2.4 -2.2,-3.9c-0.53333,-2.5 -0.91667,-5 -1.15,-7.5c-1.4,-15.5 -2.18333,-30.98333 -2.35,-46.45c0,-1.23333 0.18333,-2.38333 0.55,-3.45c0.9,-2.73333 0.71667,-5.06667 -0.55,-7l23.75,-3.2l12.65,24.2l-2.6,-24l30,-3.5l1.95,1.65l-1.95,1.8M706.4,322.1c9.6,1.23333 14.81667,7.05 15.65,17.45l12.6,58.3c-1.33333,1.56667 -3.01667,2.6 -5.05,3.1c-3.83333,0.7 -7.73333,1.1 -11.7,1.2c-7.3,0.2 -10.88333,-2.96667 -10.75,-9.5c0.13333,-5.43333 -1,-9.71667 -3.4,-12.85l-7.25,-0.3l1.1,18.5l-24.65,1.7c-1.66667,-2.13333 -2.41667,-4.61667 -2.25,-7.45c1.36667,-21.66667 3.13333,-43.21667 5.3,-64.65c8.3,-2.5 16.78333,-4.35 25.45,-5.55c1.66667,-0.23333 3.31667,-0.21667 4.95,0.05M696.4,353.1l-0.95,7.55l8.25,-1.65c0.3,-5.9 -1.71667,-9.71667 -6.05,-11.45l-1.25,5.55M789.3,334.35l2.3,18.4l-17.7,4l5.65,39.15c-0.56667,0.76667 -1.35,1.26667 -2.35,1.5c-8.73333,0.1 -17.45,0.1 -26.15,0c-0.8,0 -1.55,-0.28333 -2.25,-0.85l-0.75,-40.5l-15.35,0.5c-0.4,-0.5 -0.68333,-1.03333 -0.85,-1.6c-2.6,-8.76667 -3.68333,-17.86667 -3.25,-27.3c0.53333,-0.36667 1.1,-0.56667 1.7,-0.6c16.76667,-3.5 33.68333,-6.13333 50.75,-7.9c0.96667,-0.26667 1.85,-0.18333 2.65,0.25c5.4,3.13333 7.26667,8.11667 5.6,14.95M817.15,352.15l1.2,4.35l19.35,-2.8l1.5,16.35l-20.25,1.45l0.95,6.1c9.23333,-2.23333 18.48333,-2.28333 27.75,-0.15c1.03333,0.23333 1.85,0.81667 2.45,1.75c3.2,5.13333 4.06667,10.8 2.6,17c-1.13333,0.6 -2.43333,1.05 -3.9,1.35c-13.2,0.23333 -26.38333,0.51667 -39.55,0.85c-0.53333,0.13333 -1.03333,0.1 -1.5,-0.1c-2.13333,-0.03333 -4.25,-0.23333 -6.35,-0.6c-0.4,-0.9 -0.65,-1.8 -0.75,-2.7c-1.76667,-14.16667 -2.63333,-28.5 -2.6,-43c0,-3.83333 -0.15,-7.65 -0.45,-11.45c-0.43333,-5.2 -0.13333,-10.2 0.9,-15c13.63333,-4.03333 27.56667,-5.33333 41.8,-3.9c2.26667,0.2 3.58333,1.41667 3.95,3.65c1.23333,7.8 1.31667,15.5 0.25,23.1l-7.9,2.1z" fill="#000000"/></g></g></svg>