<svg version="1.1" xmlns="http://www.w3.org/2000/svg" xmlns:xlink="http://www.w3.org/1999/xlink" width="54.025" height="66.75068" viewBox="0,0,54.025,66.75068"><g transform="translate(-603.52861,-337.78716)"><g data-paper-data="{&quot;isPaintingLayer&quot;:true}" fill-rule="nonzero" stroke="none" stroke-width="1" stroke-linecap="butt" stroke-linejoin="miter" stroke-miterlimit="10" stroke-dasharray="" stroke-dashoffset="0" style="mix-blend-mode: normal"><path d="M655.15361,383.88784c0.06667,0.36667 0.08333,0.61667 0.05,0.75c0.03333,0.06667 0.06667,0.15 0.1,0.25c0.8,1.16667 1.28333,2.5 1.45,4c0.06667,0.5 0.18333,1.06667 0.35,1.7c0.3,1.06667 0.45,2.16667 0.45,3.3c0,0.66667 -0.06667,1.31667 -0.2,1.95c-0.4,2 -1.36667,3.73333 -2.9,5.2c-0.6,0.6 -1.31667,1.1 -2.15,1.5c-2.3,0.93333 -4.71667,1.1 -7.25,0.5c-0.8,-0.1 -1.41667,-0.48333 -1.85,-1.15c-1.86667,-2.96667 -3.33333,-6.11667 -4.4,-9.45c-0.66667,-2.1 -1.43333,-4.06667 -2.3,-5.9l-11,1.15c-1.3,2.9 -2.3,5.85 -3,8.85c-0.06667,0.26667 -0.11667,0.51667 -0.15,0.75c-0.3,1.33333 -0.8,2.65 -1.5,3.95c-0.96667,1.86667 -2.4,2.96667 -4.3,3.3c-2.06667,-0.1 -4.05,-0.66667 -5.95,-1.7c-1.03333,-0.56667 -2.05,-1.13333 -3.05,-1.7c-1.7,-1 -2.93333,-2.36667 -3.7,-4.1c-0.43333,-1.03333 -0.43333,-2.13333 0,-3.3c0.13333,-0.3 0.23333,-0.61667 0.3,-0.95c1.16667,-4.8 2.53333,-9.56667 4.1,-14.3c0.1,-0.26667 0.21667,-0.53333 0.35,-0.8c0.56667,-1.1 1.01667,-2.36667 1.35,-3.8c0.06667,-0.23333 0.21667,-0.46667 0.45,-0.7c0.96667,-3.66667 2.35,-7.26667 4.15,-10.8c1.86667,-3.63333 3.55,-7.31667 5.05,-11.05c1.1,-2.73333 2.1,-5.46667 3,-8.2c0.1,-0.36667 0.21667,-0.73333 0.35,-1.1c0.1,-0.26667 0.23333,-0.48333 0.4,-0.65c2.4,-2.43333 5.35,-3.63333 8.85,-3.6c1.46667,0.03333 2.88333,0.26667 4.25,0.7c1.1,0.36667 2.13333,0.86667 3.1,1.5c0.66667,0.43333 1.2,1 1.6,1.7c0.8,1.46667 1.5,2.98333 2.1,4.55c1.33333,3.5 2.71667,7 4.15,10.5c0.76667,2.4 1.51667,4.81667 2.25,7.25c1.76667,6.13333 3.48333,12.28333 5.15,18.45c0.13333,0.53333 0.25,1.01667 0.35,1.45M625.95361,348.18784c-0.2,0.4 -0.36667,0.83333 -0.5,1.3c-0.86667,3.36667 -2.06667,6.68333 -3.6,9.95c-0.83333,1.76667 -1.7,3.53333 -2.6,5.3c-0.86667,1.63333 -1.48333,3.25 -1.85,4.85c-0.06667,0.33333 -0.18333,0.66667 -0.35,1c-0.13333,0.33333 -0.25,0.68333 -0.35,1.05c-1.26667,3.63333 -2.55,7.28333 -3.85,10.95c-1.53333,4.2 -2.6,8.48333 -3.2,12.85c0.93333,0.6 1.88333,1.18333 2.85,1.75c1,0.6 2.08333,0.85 3.25,0.75c0.73333,-2.43333 1.46667,-4.86667 2.2,-7.3c0.86667,-3 2.13333,-5.75 3.8,-8.25c5.7,-1.2 11.55,-1.56667 17.55,-1.1c0.73333,0.16667 1.31667,0.53333 1.75,1.1c0.96667,1.3 1.71667,2.73333 2.25,4.3c1.23333,3.56667 2.68333,7.06667 4.35,10.5l0.85,0.2c0.53333,-0.23333 1.08333,-0.51667 1.65,-0.85c0.5,-0.3 0.83333,-0.66667 1,-1.1c0.16667,-0.36667 0.35,-0.71667 0.55,-1.05l-3.2,-12.3c-3.2,-13 -7.4,-25.61667 -12.6,-37.85c-2.06667,0.03333 -4.08333,0.25 -6.05,0.65c-1.1,0.2 -2.16667,0.56667 -3.2,1.1c-0.16667,0.36667 -0.28333,0.78333 -0.35,1.25c-0.06667,0.33333 -0.18333,0.65 -0.35,0.95M632.80361,356.83784c1.96667,3.53333 3.43333,7.16667 4.4,10.9c0.36667,1.33333 0.78333,2.68333 1.25,4.05c0.46667,1.46667 0.1,2.61667 -1.1,3.45c-1.73333,0.03333 -3.41667,-0.08333 -5.05,-0.35c-2.36667,-0.53333 -4.56667,-0.45 -6.6,0.25c-0.7,0.23333 -1.16667,-0.01667 -1.4,-0.75c-0.16667,-0.5 -0.25,-1 -0.25,-1.5c0.03333,-0.83333 0.23333,-1.55 0.6,-2.15c0.3,-0.53333 0.53333,-1.23333 0.7,-2.1c0.26667,-1.4 0.75,-2.65 1.45,-3.75l3.35,-7.75c0.53333,-0.33333 1.1,-0.6 1.7,-0.8c0.4,-0.06667 0.71667,0.1 0.95,0.5M628.90361,370.53784l4.35,-0.2l-2.2,-6.6l-0.75,1.5z" fill="#000000"/><path d="M626.30361,347.23784c0.06667,-0.46667 0.18333,-0.88333 0.35,-1.25c1.03333,-0.53333 2.1,-0.9 3.2,-1.1c1.96667,-0.4 3.98333,-0.61667 6.05,-0.65c5.2,12.23333 9.4,24.85 12.6,37.85l3.2,12.3c-0.2,0.33333 -0.38333,0.68333 -0.55,1.05c-0.16667,0.43333 -0.5,0.8 -1,1.1c-0.56667,0.33333 -1.11667,0.61667 -1.65,0.85l-0.85,-0.2c-1.66667,-3.43333 -3.11667,-6.93333 -4.35,-10.5c-0.53333,-1.56667 -1.28333,-3 -2.25,-4.3c-0.43333,-0.56667 -1.01667,-0.93333 -1.75,-1.1c-6,-0.46667 -11.85,-0.1 -17.55,1.1c-1.66667,2.5 -2.93333,5.25 -3.8,8.25c-0.73333,2.43333 -1.46667,4.86667 -2.2,7.3c-1.16667,0.1 -2.25,-0.15 -3.25,-0.75c-0.96667,-0.56667 -1.91667,-1.15 -2.85,-1.75c0.6,-4.36667 1.66667,-8.65 3.2,-12.85c1.3,-3.66667 2.58333,-7.31667 3.85,-10.95c0.1,-0.36667 0.21667,-0.71667 0.35,-1.05c0.16667,-0.33333 0.28333,-0.66667 0.35,-1c0.36667,-1.6 0.98333,-3.21667 1.85,-4.85c0.9,-1.76667 1.76667,-3.53333 2.6,-5.3c1.53333,-3.26667 2.73333,-6.58333 3.6,-9.95c0.13333,-0.46667 0.3,-0.9 0.5,-1.3c0.16667,-0.3 0.28333,-0.61667 0.35,-0.95M630.15361,357.13784l-3.35,7.75c-0.7,1.1 -1.18333,2.35 -1.45,3.75c-0.16667,0.86667 -0.4,1.56667 -0.7,2.1c-0.36667,0.6 -0.56667,1.31667 -0.6,2.15c0,0.5 0.08333,1 0.25,1.5c0.23333,0.73333 0.7,0.98333 1.4,0.75c2.03333,-0.7 4.23333,-0.78333 6.6,-0.25c1.63333,0.26667 3.31667,0.38333 5.05,0.35c1.2,-0.83333 1.56667,-1.98333 1.1,-3.45c-0.46667,-1.36667 -0.88333,-2.71667 -1.25,-4.05c-0.96667,-3.73333 -2.43333,-7.36667 -4.4,-10.9c-0.23333,-0.4 -0.55,-0.56667 -0.95,-0.5c-0.6,0.2 -1.16667,0.46667 -1.7,0.8z" fill="#ffffff"/></g></g></svg>