<svg version="1.1" xmlns="http://www.w3.org/2000/svg" xmlns:xlink="http://www.w3.org/1999/xlink" width="133.31865" height="125.39953" viewBox="0,0,133.31865,125.39953"><g transform="translate(-583.7761,-297.30022)"><g data-paper-data="{&quot;isPaintingLayer&quot;:true}" fill-rule="nonzero" stroke="none" stroke-width="1" stroke-linecap="butt" stroke-linejoin="miter" stroke-miterlimit="10" stroke-dasharray="" stroke-dashoffset="0" style="mix-blend-mode: normal"><g><path d="M670.49911,304.30708c-0.13196,0.97647 -0.22432,1.55707 -0.27711,1.74181c-0.13196,0.65978 -0.34308,1.21399 -0.63339,1.66264c-5.27822,8.97297 -9.06534,16.05898 -11.36137,21.25803c-0.97647,1.21399 -2.49396,2.03211 -4.55246,2.45437c-2.42798,0.2903 -4.19618,0.51463 -5.30461,0.67297c3.06137,2.58633 5.30461,5.11987 6.72973,7.60063c0.23752,1.02925 0.48824,2.62591 0.75215,4.78998c-0.95008,1.4779 -1.67583,3.35167 -2.17727,5.6213c-0.2903,1.31955 -0.63339,3.31208 -1.02925,5.97758c0.76534,1.08203 1.43831,2.40159 2.01892,3.95866c0.34308,0.92369 0.77854,2.34881 1.30636,4.27536l-1.10843,2.09809c-0.84451,0.50143 -1.46471,0.8841 -1.86057,1.14801c-0.71256,0.44865 -1.26677,0.91049 -1.66264,1.38553c0.23752,1.68903 0.79173,3.73434 1.66264,6.13593c0.50143,1.31955 1.24038,3.31208 2.21685,5.97758c-1.84738,1.02925 -4.27536,2.20366 -7.28394,3.52321c-4.24897,1.84738 -6.71653,2.92941 -7.4027,3.2461c-2.69189,1.1876 -6.09634,2.79746 -10.21335,4.82957c-5.70048,2.82385 -9.07854,4.48649 -10.13418,4.98792c-0.71256,0.31669 -1.25358,0.55421 -1.62305,0.71256c-0.63339,0.23752 -1.21399,0.36948 -1.74181,0.39587c-1.05564,-0.50143 -2.45437,-1.31955 -4.19618,-2.45437c-1.90016,-1.24038 -3.2725,-2.0849 -4.11701,-2.53354c-0.65978,-0.34308 -1.79459,-0.76534 -3.40445,-1.26677c-1.50429,-0.47504 -2.63911,-0.92369 -3.40445,-1.34595c-0.36948,-1.71542 -0.81812,-4.20938 -1.34595,-7.48187c-0.55421,-3.43084 -0.98967,-5.938 -1.30636,-7.52146c-1.45151,0.79173 -2.55994,1.37234 -3.32528,1.74181c-1.34595,0.65978 -2.54674,0.97647 -3.60238,0.95008c-1.1876,-0.84451 -2.19046,-2.11129 -3.00858,-3.80032c-0.42226,-0.87091 -1.00286,-2.41479 -1.74181,-4.63164c-1.42512,-5.54213 -2.28283,-9.05214 -2.57313,-10.53005c-0.79173,-4.01145 -1.12162,-7.58744 -0.98967,-10.72798l0.23752,-7.67981c0.2903,0.05278 0.72576,0.10556 1.30636,0.15835c0.50143,0.10556 0.85771,0.32989 1.06884,0.67297c0.97647,1.10843 2.17727,2.75787 3.60238,4.94833c1.55707,2.42798 2.70509,4.10381 3.44404,5.0275c-0.97647,-6.88808 -1.72862,-12.06073 -2.25644,-15.51796c-0.92369,-6.01717 -1.82099,-11.17663 -2.69189,-15.47838c1.97933,-1.37234 4.59205,-2.59952 7.83815,-3.68156c1.84738,-0.63339 4.61844,-1.51749 8.31319,-2.6523c-0.05278,-0.34308 -0.71256,-3.15374 -1.97933,-8.43195c-0.81812,-3.40445 -1.29316,-6.24149 -1.42512,-8.51113l1.22719,-0.71256c0.95008,0.71256 2.17727,2.0849 3.68156,4.11701c1.42512,1.95294 2.6787,3.28569 3.76073,3.99825c3.74754,3.08776 8.90699,5.10668 15.47838,6.05676c3.82671,0.79173 8.12846,1.12162 12.90524,0.98967c3.19332,-0.07917 7.48187,-0.44865 12.86566,-1.10843c2.48076,-0.36948 5.72687,-1.4779 9.73831,-3.32528c4.40731,-2.00572 7.60063,-3.2461 9.57997,-3.72114M657.43552,324.25875c0.71256,-1.39873 2.00572,-3.82671 3.87949,-7.28394c1.68903,-3.08776 2.969,-5.52893 3.8399,-7.32353c-0.8973,0.26391 -2.74467,0.95008 -5.54213,2.05851c-2.26963,0.8973 -4.1434,1.4911 -5.6213,1.7814c-6.36025,1.66264 -13.98728,2.21685 -22.88108,1.66264c-6.01717,-0.76534 -10.662,-1.67583 -13.9345,-2.73148c-5.0407,-1.63625 -8.99936,-4.09062 -11.87599,-7.36311c1.26677,4.67122 2.12448,8.82782 2.57313,12.46979c-6.8089,1.7682 -12.19268,3.51002 -16.15135,5.22544c0.36948,2.45437 1.38553,8.37917 3.04817,17.7744c1.29316,7.28394 2.19046,13.22194 2.69189,17.81399c-2.40159,-0.23752 -4.56566,-1.66264 -6.49221,-4.27536c-1.90016,-3.21971 -3.43084,-5.46296 -4.59205,-6.72973c-0.02639,9.34245 2.12448,18.89602 6.45262,28.66073c0.10556,-0.02639 1.46471,-0.63339 4.07742,-1.82099c1.63625,-0.73895 3.07456,-1.13482 4.31494,-1.1876c0.21113,1.66264 0.68617,4.30175 1.42512,7.91733c0.68617,3.43084 1.13482,6.08315 1.34595,7.95691c4.96153,1.79459 8.68267,3.64197 11.16343,5.54213c0.31669,0.18474 0.80493,0.50143 1.46471,0.95008c0.607,0.31669 1.16121,0.35628 1.66264,0.11876c0.47504,-0.21113 5.96439,-2.88982 16.46804,-8.03609c6.62416,-3.21971 12.21908,-5.67408 16.78474,-7.36311c-0.5806,-2.87663 -1.50429,-5.75326 -2.77106,-8.62989c-3.35167,3.2461 -6.42623,5.938 -9.22369,8.07567c-3.51002,2.6655 -6.99364,4.78998 -10.45087,6.37345c-0.68617,0.31669 -1.4779,0.38267 -2.3752,0.19793c-0.55421,-0.13196 -1.30636,-0.42226 -2.25644,-0.87091c-1.71542,-0.79173 -3.73434,-1.79459 -6.05676,-3.00858c-2.63911,-1.39873 -4.63164,-2.45437 -5.97758,-3.16693c-1.92655,-0.95008 -3.12734,-2.362 -3.60238,-4.23577c-0.68617,-2.85024 -1.21399,-6.45262 -1.58347,-10.80715c-0.607,-7.23116 -0.91049,-10.85993 -0.91049,-10.88633c-0.10556,-1.92655 -0.13196,-3.10095 -0.07917,-3.52321c0.10556,-1.34595 0.55421,-2.40159 1.34595,-3.16693c0.13196,0.07917 1.71542,0.84451 4.7504,2.29603c1.90016,0.8973 3.35167,1.86057 4.35453,2.88982l-3.08776,0.43545c2.69189,1.87377 5.06709,3.32528 7.1256,4.35453c-1.79459,-4.19618 -2.92941,-8.64308 -3.40445,-13.3407c-0.47504,-4.61844 -0.27711,-9.21049 0.5938,-13.77615c0.15835,-1.16121 0.32989,-2.01892 0.51463,-2.57313c0.31669,-0.97647 0.91049,-1.50429 1.7814,-1.58347c3.35167,5.64769 5.51574,9.22369 6.49221,10.72798c2.61272,3.95866 5.25183,7.20477 7.91733,9.73831c0.5806,0.52782 1.41192,1.39873 2.49396,2.61272c1.02925,1.00286 2.0717,1.55707 3.12734,1.66264c-0.42226,-1.95294 -1.08203,-4.1566 -1.97933,-6.61097c0.55421,-0.02639 1.42512,-0.02639 2.61272,0c1.02925,-0.07917 1.72862,-0.48824 2.09809,-1.22719c0.52782,-1.05564 0.607,-2.38839 0.23752,-3.99825c-0.52782,-1.82099 -0.85771,-3.16693 -0.98967,-4.03784c0.47504,0.2903 1.22719,0.71256 2.25644,1.26677c0.81812,0.5806 1.35914,1.24038 1.62305,1.97933c0.44865,0.97647 0.50143,2.0717 0.15835,3.28569c-0.21113,0.73895 -0.67297,1.75501 -1.38553,3.04817c1.26677,1.84738 1.90016,3.8531 1.90016,6.01717c0.73895,-0.52782 1.95294,-1.31955 3.64197,-2.3752c1.34595,-1.05564 2.0849,-2.25644 2.21685,-3.60238c0.2903,-1.10843 0.0132,-2.28283 -0.83132,-3.52321c-1.13482,-1.31955 -1.92655,-2.30922 -2.3752,-2.969c-0.50143,-0.73895 -1.74181,-1.97933 -3.72114,-3.72114c-1.63625,-1.4779 -2.6787,-2.85024 -3.12734,-4.11701c1.00286,-0.13196 2.79746,-0.21113 5.38378,-0.23752c2.26963,-0.05278 4.05103,-0.19793 5.3442,-0.43545c0.95008,-0.15835 1.7814,-0.72576 2.49396,-1.70223l1.62305,-2.6523M640.84872,345.04173l1.62305,3.60238c0.95008,-0.47504 1.63625,-1.06884 2.05851,-1.7814c0.44865,-0.81812 0.47504,-1.71542 0.07917,-2.69189c-0.55421,-0.02639 -1.20079,0.06598 -1.93975,0.27711c-0.79173,0.2903 -1.39873,0.48824 -1.82099,0.5938M648.37018,356.60103c0.55421,0 1.02925,-0.18474 1.42512,-0.55421c0.36948,-0.39587 0.55421,-0.85771 0.55421,-1.38553c0,-0.52782 -0.18474,-0.97647 -0.55421,-1.34595c-0.39587,-0.39587 -0.87091,-0.5938 -1.42512,-0.5938c-0.55421,0 -1.01606,0.19793 -1.38553,0.5938c-0.39587,0.36948 -0.5938,0.81812 -0.5938,1.34595c0,0.52782 0.19793,0.98967 0.5938,1.38553c0.36948,0.36948 0.83132,0.55421 1.38553,0.55421M644.13441,360.44094c-0.23752,-0.31669 -1.00286,-1.42512 -2.29603,-3.32528c-1.37234,0.63339 -3.33847,1.31955 -5.89841,2.05851c-2.82385,0.84451 -4.78998,1.4911 -5.89841,1.93975c4.56566,1.24038 7.77218,2.13768 9.61955,2.69189c1.95294,0.63339 4.16979,1.00286 6.65056,1.10843c1.82099,0.07917 4.06423,0.0132 6.72973,-0.19793l-0.91049,-3.68156c-1.31955,1.08203 -2.0717,1.67583 -2.25644,1.7814c-0.95008,0.52782 -1.86057,0.607 -2.73148,0.23752c-1.05564,-0.55421 -2.05851,-1.42512 -3.00858,-2.61272M632.17925,350.188c-0.39587,-0.39587 -0.85771,-0.5938 -1.38553,-0.5938c-0.52782,0 -0.97647,0.19793 -1.34595,0.5938c-0.39587,0.36948 -0.5938,0.83132 -0.5938,1.38553c0,0.55421 0.19793,1.02925 0.5938,1.42512c0.36948,0.36948 0.81812,0.55421 1.34595,0.55421c0.52782,0 0.98967,-0.18474 1.38553,-0.55421c0.36948,-0.39587 0.55421,-0.87091 0.55421,-1.42512c0,-0.55421 -0.18474,-1.01606 -0.55421,-1.38553M637.72138,366.57687c0.63339,3.69475 1.27997,6.62416 1.93975,8.78823c1.26677,-0.52782 2.38839,-1.62305 3.36486,-3.28569c0.55421,-0.95008 1.34595,-2.38839 2.3752,-4.31494l-2.45437,-0.27711c-1.10843,-0.34308 -2.85024,-0.64658 -5.22544,-0.91049M635.06907,368.23951c-1.31955,2.16407 -4.52607,7.03323 -9.61955,14.60747c0.42226,0.07917 1.06884,0.26391 1.93975,0.55421c0.76534,0.15835 1.39873,0.05278 1.90016,-0.31669c1.16121,-0.607 2.48076,-1.42512 3.95866,-2.45437c0.87091,-0.607 2.15087,-1.51749 3.8399,-2.73148c-0.44865,-1.26677 -0.84451,-2.86343 -1.1876,-4.78998c-0.34308,-2.16407 -0.62019,-3.78712 -0.83132,-4.86916M633.44602,365.23092c-4.06423,-1.29316 -8.77504,-3.20652 -14.13243,-5.74006c0.607,3.72114 1.39873,7.4027 2.3752,11.04467c0.47504,1.95294 1.26677,4.86916 2.3752,8.74865c1.05564,-1.45151 2.61272,-3.80032 4.67122,-7.04642c1.97933,-3.11415 3.5496,-5.44976 4.71081,-7.00684M613.53394,365.82472c0.92369,-3.87949 1.67583,-6.78251 2.25644,-8.70906c-1.63625,-1.08203 -3.91908,-2.9558 -6.84849,-5.6213c0.23752,2.40159 0.50143,6.01717 0.79173,10.84674c0.34308,4.27536 0.85771,7.86455 1.54388,10.76757l0.87091,-2.49396c0.26391,-1.16121 0.54102,-2.24324 0.83132,-3.2461l0.55421,-1.54388M617.2155,378.53203c1.66264,0.95008 3.04817,1.71542 4.1566,2.29603c-0.34308,-1.84738 -0.8973,-3.91908 -1.66264,-6.2151c-1.31955,-6.06995 -2.12448,-9.67234 -2.41479,-10.80715c-0.79173,1.63625 -1.55707,3.66836 -2.29603,6.09634c-0.44865,1.37234 -1.06884,3.45723 -1.86057,6.25469c0.18474,0.10556 1.54388,0.8973 4.07742,2.3752z" fill="#000000"/><path d="M614.99865,369.90214c0.73895,-2.42798 1.50429,-4.46009 2.29603,-6.09634c0.2903,1.13482 1.09523,4.7372 2.41479,10.80715c0.76534,2.29603 1.31955,4.36773 1.66264,6.2151c-1.10843,-0.5806 -2.49396,-1.34595 -4.1566,-2.29603c-2.53354,-1.4779 -3.89269,-2.26963 -4.07742,-2.3752c0.79173,-2.79746 1.41192,-4.88235 1.86057,-6.25469M612.97973,367.3686c-0.2903,1.00286 -0.56741,2.0849 -0.83132,3.2461l-0.87091,2.49396c-0.68617,-2.90302 -1.20079,-6.49221 -1.54388,-10.76757c-0.2903,-4.82957 -0.55421,-8.44515 -0.79173,-10.84674c2.92941,2.6655 5.21224,4.53927 6.84849,5.6213c-0.5806,1.92655 -1.33275,4.82957 -2.25644,8.70906l-0.55421,1.54388M628.73521,372.23776c-2.05851,3.2461 -3.61558,5.59491 -4.67122,7.04642c-1.10843,-3.87949 -1.90016,-6.79571 -2.3752,-8.74865c-0.97647,-3.64197 -1.7682,-7.32353 -2.3752,-11.04467c5.35739,2.53354 10.0682,4.4469 14.13243,5.74006c-1.16121,1.55707 -2.73148,3.89269 -4.71081,7.00684M635.90039,373.10866c0.34308,1.92655 0.73895,3.52321 1.1876,4.78998c-1.68903,1.21399 -2.969,2.12448 -3.8399,2.73148c-1.4779,1.02925 -2.79746,1.84738 -3.95866,2.45437c-0.50143,0.36948 -1.13482,0.47504 -1.90016,0.31669c-0.87091,-0.2903 -1.51749,-0.47504 -1.93975,-0.55421c5.09348,-7.57424 8.3,-12.4434 9.61955,-14.60747c0.21113,1.08203 0.48824,2.70509 0.83132,4.86916M645.40119,367.76447c-1.02925,1.92655 -1.82099,3.36486 -2.3752,4.31494c-0.97647,1.66264 -2.09809,2.75787 -3.36486,3.28569c-0.65978,-2.16407 -1.30636,-5.09348 -1.93975,-8.78823c2.3752,0.26391 4.11701,0.56741 5.22544,0.91049z" fill="#ffffff"/><path d="M632.17925,352.99865c-0.39587,0.36948 -0.85771,0.55421 -1.38553,0.55421c-0.52782,0 -0.97647,-0.18474 -1.34595,-0.55421c-0.39587,-0.39587 -0.5938,-0.87091 -0.5938,-1.42512c0,-0.55421 0.19793,-1.01606 0.5938,-1.38553c0.36948,-0.39587 0.81812,-0.5938 1.34595,-0.5938c0.52782,0 0.98967,0.19793 1.38553,0.5938c0.36948,0.36948 0.55421,0.83132 0.55421,1.38553c0,0.55421 -0.18474,1.02925 -0.55421,1.42512z" fill="#efff4a"/><path d="M649.87448,362.81614c0.18474,-0.10556 0.93688,-0.69936 2.25644,-1.7814l0.91049,3.68156c-2.6655,0.21113 -4.90874,0.27711 -6.72973,0.19793c-2.48076,-0.10556 -4.69761,-0.47504 -6.65056,-1.10843c-1.84738,-0.55421 -5.05389,-1.45151 -9.61955,-2.69189c1.10843,-0.44865 3.07456,-1.09523 5.89841,-1.93975c2.55994,-0.73895 4.52607,-1.42512 5.89841,-2.05851c1.29316,1.90016 2.05851,3.00858 2.29603,3.32528c0.95008,1.1876 1.95294,2.05851 3.00858,2.61272c0.87091,0.36948 1.7814,0.2903 2.73148,-0.23752z" fill="#bf7cd4"/><path d="M646.39085,354.66129c0,-0.52782 0.19793,-0.97647 0.5938,-1.34595c0.36948,-0.39587 0.83132,-0.5938 1.38553,-0.5938c0.55421,0 1.02925,0.19793 1.42512,0.5938c0.36948,0.36948 0.55421,0.81812 0.55421,1.34595c0,0.52782 -0.18474,0.98967 -0.55421,1.38553c-0.39587,0.36948 -0.87091,0.55421 -1.42512,0.55421c-0.55421,0 -1.01606,-0.18474 -1.38553,-0.55421c-0.39587,-0.39587 -0.5938,-0.85771 -0.5938,-1.38553z" fill="#ecff49"/><path d="M644.60945,344.17083c0.39587,0.97647 0.36948,1.87377 -0.07917,2.69189c-0.42226,0.71256 -1.10843,1.30636 -2.05851,1.7814l-1.62305,-3.60238c0.42226,-0.10556 1.02925,-0.3035 1.82099,-0.5938c0.73895,-0.21113 1.38553,-0.3035 1.93975,-0.27711z" fill="#b66ad6"/><path d="M653.31851,328.61328c-1.29316,0.23752 -3.07456,0.38267 -5.3442,0.43545c-2.58633,0.02639 -4.38092,0.10556 -5.38378,0.23752c0.44865,1.26677 1.4911,2.63911 3.12734,4.11701c1.97933,1.74181 3.21971,2.98219 3.72114,3.72114c0.44865,0.65978 1.24038,1.64944 2.3752,2.969c0.84451,1.24038 1.12162,2.41479 0.83132,3.52321c-0.13196,1.34595 -0.87091,2.54674 -2.21685,3.60238c-1.68903,1.05564 -2.90302,1.84738 -3.64197,2.3752c0,-2.16407 -0.63339,-4.16979 -1.90016,-6.01717c0.71256,-1.29316 1.1744,-2.30922 1.38553,-3.04817c0.34308,-1.21399 0.2903,-2.30922 -0.15835,-3.28569c-0.26391,-0.73895 -0.80493,-1.39873 -1.62305,-1.97933c-1.02925,-0.55421 -1.7814,-0.97647 -2.25644,-1.26677c0.13196,0.87091 0.46184,2.21685 0.98967,4.03784c0.36948,1.60986 0.2903,2.94261 -0.23752,3.99825c-0.36948,0.73895 -1.06884,1.14801 -2.09809,1.22719c-1.1876,-0.02639 -2.05851,-0.02639 -2.61272,0c0.8973,2.45437 1.55707,4.65803 1.97933,6.61097c-1.05564,-0.10556 -2.09809,-0.65978 -3.12734,-1.66264c-1.08203,-1.21399 -1.91335,-2.0849 -2.49396,-2.61272c-2.6655,-2.53354 -5.30461,-5.77965 -7.91733,-9.73831c-0.97647,-1.50429 -3.14054,-5.08029 -6.49221,-10.72798c-0.87091,0.07917 -1.46471,0.607 -1.7814,1.58347c-0.18474,0.55421 -0.35628,1.41192 -0.51463,2.57313c-0.87091,4.56566 -1.06884,9.15771 -0.5938,13.77615c0.47504,4.69761 1.60986,9.14451 3.40445,13.3407c-2.05851,-1.02925 -4.4337,-2.48076 -7.1256,-4.35453l3.08776,-0.43545c-1.00286,-1.02925 -2.45437,-1.99253 -4.35453,-2.88982c-3.03498,-1.45151 -4.61844,-2.21685 -4.7504,-2.29603c-0.79173,0.76534 -1.24038,1.82099 -1.34595,3.16693c-0.05278,0.42226 -0.02639,1.59666 0.07917,3.52321c0,0.02639 0.3035,3.65517 0.91049,10.88633c0.36948,4.35453 0.8973,7.95691 1.58347,10.80715c0.47504,1.87377 1.67583,3.28569 3.60238,4.23577c1.34595,0.71256 3.33847,1.7682 5.97758,3.16693c2.32242,1.21399 4.34133,2.21685 6.05676,3.00858c0.95008,0.44865 1.70223,0.73895 2.25644,0.87091c0.8973,0.18474 1.68903,0.11876 2.3752,-0.19793c3.45723,-1.58347 6.94086,-3.70795 10.45087,-6.37345c2.79746,-2.13768 5.87202,-4.82957 9.22369,-8.07567c1.26677,2.87663 2.19046,5.75326 2.77106,8.62989c-4.56566,1.68903 -10.16057,4.1434 -16.78474,7.36311c-10.50365,5.14626 -15.993,7.82496 -16.46804,8.03609c-0.50143,0.23752 -1.05564,0.19793 -1.66264,-0.11876c-0.65978,-0.44865 -1.14801,-0.76534 -1.46471,-0.95008c-2.48076,-1.90016 -6.20191,-3.74754 -11.16343,-5.54213c-0.21113,-1.87377 -0.65978,-4.52607 -1.34595,-7.95691c-0.73895,-3.61558 -1.21399,-6.25469 -1.42512,-7.91733c-1.24038,0.05278 -2.6787,0.44865 -4.31494,1.1876c-2.61272,1.1876 -3.97186,1.79459 -4.07742,1.82099c-4.32814,-9.7647 -6.47901,-19.31828 -6.45262,-28.66073c1.16121,1.26677 2.69189,3.51002 4.59205,6.72973c1.92655,2.61272 4.09062,4.03784 6.49221,4.27536c-0.50143,-4.59205 -1.39873,-10.53005 -2.69189,-17.81399c-1.66264,-9.39523 -2.6787,-15.32003 -3.04817,-17.7744c3.95866,-1.71542 9.34245,-3.45723 16.15135,-5.22544c-0.44865,-3.64197 -1.30636,-7.79857 -2.57313,-12.46979c2.87663,3.2725 6.83529,5.72687 11.87599,7.36311c3.2725,1.05564 7.91733,1.96614 13.9345,2.73148c8.8938,0.55421 16.52082,0 22.88108,-1.66264c1.4779,-0.2903 3.35167,-0.8841 5.6213,-1.7814c2.79746,-1.10843 4.64483,-1.79459 5.54213,-2.05851c-0.87091,1.79459 -2.15087,4.23577 -3.8399,7.32353c-1.87377,3.45723 -3.16693,5.88521 -3.87949,7.28394l-1.62305,2.6523c-0.71256,0.97647 -1.54388,1.54388 -2.49396,1.70223z" fill="#af66ce"/></g><g><path d="M684.66175,340.46235c-2.49319,2.32881 -4.27753,4.18458 -5.35303,5.56731c-1.78434,2.28029 -2.88428,4.56058 -3.29981,6.84088c8.99504,-2.37733 17.07347,-2.78972 24.23529,-1.23718c2.44431,0.53369 4.6564,1.38273 6.63629,2.54713c2.17543,1.2857 3.89867,2.86249 5.16971,4.73039c1.14882,1.64957 1.91878,3.39618 2.30987,5.23982c0.43997,1.98919 0.36665,3.86922 -0.21999,5.64008c-0.43997,1.33421 -1.25882,2.6563 -2.45653,3.96625c-0.5133,0.55794 -1.66213,1.63744 -3.44647,3.2385c0.53775,0.2911 1.44214,0.63072 2.71318,1.01885c1.07549,0.46091 1.72324,1.11589 1.94322,1.96493c-0.24443,1.09163 -0.9655,2.17113 -2.16321,3.2385c-1.44214,1.1644 -2.45653,2.06197 -3.04316,2.69268c3.37314,3.68728 5.1086,5.6037 5.20637,5.74925c1.85767,2.25603 3.14093,4.45142 3.84978,6.58616c0.5133,1.45551 0.46442,2.91101 -0.14666,4.36652c-0.65996,1.50402 -1.73546,2.43797 -3.22648,2.80185c-2.61541,0.67924 -4.66862,1.06737 -6.15965,1.1644c-2.37098,0.14555 -4.38753,-0.25471 -6.04966,-1.20079c-1.02661,-0.55794 -1.82101,-0.89756 -2.3832,-1.01885c-9.99721,4.34226 -19.11447,7.04707 -27.35178,8.11444c-1.5888,1.60106 -3.50758,3.25063 -5.75634,4.94872c-1.44214,1.09163 -3.50758,2.54713 -6.19631,4.36652c-0.73329,0.63072 -1.56436,0.93395 -2.49319,0.90969c-1.05105,-0.02426 -1.69879,-0.50943 -1.94322,-1.45551c0.02444,-1.23718 0.31776,-2.66843 0.87995,-4.29374c0.73329,-1.81938 1.25882,-3.18998 1.57658,-4.1118c-4.86417,0.84904 -8.84839,0.46091 -11.95265,-1.1644c-1.12438,-0.60646 -2.01655,-1.33421 -2.67651,-2.18326c-0.80662,-1.04311 -1.1366,-2.12261 -0.98994,-3.2385c0.19554,-1.47976 0.94106,-2.91101 2.23654,-4.29374c0.3422,-0.33962 1.5888,-1.41912 3.73979,-3.2385c-0.85551,-1.2857 -1.16105,-2.71694 -0.91661,-4.29374c0.19554,-1.45551 0.81884,-2.80185 1.86989,-4.03903c-2.49319,-0.50943 -4.06977,-0.84904 -4.72973,-1.01885c-1.78434,-0.43665 -3.32426,-0.93395 -4.61974,-1.49189c-0.36665,-0.14555 -0.65996,-0.33962 -0.87995,-0.5822c-0.36665,-0.38813 -0.57441,-0.89756 -0.6233,-1.52828c-0.09777,-0.89756 0.10999,-1.63744 0.6233,-2.21965c0.07333,-0.09703 0.15888,-0.19407 0.25665,-0.2911c1.85767,-2.13474 4.68084,-4.82743 8.46952,-8.07805c-2.05322,-1.60106 -3.56869,-2.85036 -4.54641,-3.74793c-1.66213,-1.50402 -2.85984,-3.02017 -3.59313,-4.54845c-0.41553,-1.06737 -0.20777,-2.04984 0.6233,-2.9474c0.70885,-0.80053 1.63768,-1.34634 2.78651,-1.63744c2.78651,-0.80053 6.48963,-1.72235 11.10937,-2.76546c5.81745,-1.2857 9.54501,-2.13474 11.1827,-2.54713c0.02444,-0.33962 -0.15888,-0.64285 -0.54997,-0.90969c-0.5133,-0.24258 -0.85551,-0.44878 -1.02661,-0.61859c-1.66213,-0.9946 -2.94539,-1.85577 -3.84978,-2.58352c-1.36881,-1.06737 -2.44431,-2.18326 -3.22648,-3.34766c-0.73329,-1.11589 -1.11216,-2.34094 -1.1366,-3.67515c0,-1.40699 0.40331,-2.60778 1.20993,-3.60238c1.02661,-1.2857 2.46875,-2.34094 4.32642,-3.16572c1.12438,-0.50943 2.84762,-1.06737 5.16971,-1.67383c3.37314,-0.72775 6.33075,-1.1644 8.87283,-1.30995c3.27537,-0.19407 6.25742,0.02426 8.94616,0.65498c0.90439,0.12129 1.49103,0.63072 1.7599,1.52828c0.26887,0.92182 0.03666,1.64957 -0.69663,2.18326M680.8853,355.85432c-1.66213,0.36388 -2.90872,0.60646 -3.73979,0.72775c-1.49103,0.26684 -2.73762,0.13342 -3.73979,-0.40026c0.24443,0.89756 0.14666,1.69809 -0.29332,2.40158c-0.46442,0.70349 -1.14882,1.14015 -2.05322,1.30995c-3.12871,0.80053 -7.69956,1.88003 -13.71255,3.2385c-6.23298,1.40699 -10.80383,2.47436 -13.71255,3.20211c1.14882,1.18866 2.43208,2.72907 3.84978,4.62123c0.80662,1.06737 1.99211,2.66843 3.55646,4.80317c-0.75773,1.47976 -1.96767,3.08082 -3.62979,4.80317c-1.931,1.8679 -3.3487,3.28702 -4.25309,4.25735l6.85628,1.38273c0,-1.8679 0.03666,-3.27489 0.10999,-4.22097c0.12222,-1.60106 0.48886,-2.93527 1.09994,-4.00264c0.26887,-0.46091 0.70885,-0.71562 1.31992,-0.76414c0.61108,-0.04852 1.11216,0.10916 1.50325,0.47304c1.07549,0.77627 2.57874,1.97706 4.50974,3.60238c2.00433,1.64957 3.50758,2.85036 4.50974,3.60238c1.2466,0.92182 2.41986,2.08622 3.5198,3.49321c-1.14882,-5.7735 -1.7599,-10.49177 -1.83323,-14.15479c-0.14666,-1.11589 0.41553,-2.32881 1.68657,-3.63876c-0.92884,-0.8733 -1.06327,-1.24931 -0.40331,-1.12802c0.41553,0.09703 0.95328,0.31536 1.61324,0.65498c3.3487,-1.94067 6.13521,-3.4447 8.35952,-4.51207c3.12871,-1.50402 6.08632,-2.59565 8.87283,-3.27489l1.31992,0.36388c0.61108,1.2857 0.70885,2.85036 0.29332,4.694c-0.26887,1.06737 -0.76996,2.63204 -1.50325,4.694c1.63768,-1.45551 2.8965,-2.51075 3.77645,-3.16572c1.46658,-1.11589 2.87206,-1.96493 4.21643,-2.54713c0.73329,-0.36388 1.4788,-0.4973 2.23654,-0.40026c0.85551,0.09703 1.45436,0.4973 1.79656,1.20079c0.56219,1.01885 0.74551,2.26816 0.54997,3.74793c-0.07333,0.63072 -0.36665,1.90429 -0.87995,3.8207c2.32209,-0.50943 4.53419,-0.46091 6.63629,0.14555c1.73546,-1.09163 3.05538,-2.03771 3.95977,-2.83824c1.36881,-1.23718 2.29765,-2.54713 2.78651,-3.92986c0.48886,-2.32881 -0.02444,-4.58484 -1.53991,-6.7681c-1.4177,-1.98919 -3.29981,-3.4447 -5.64635,-4.36652c-3.1776,-1.2857 -6.80739,-1.96493 -10.88938,-2.03771c-3.05538,-0.04852 -6.7585,0.25471 -11.10937,0.90969M678.64876,366.37035c1.53991,0.8733 3.05538,2.53501 4.54641,4.98511c0.73329,-2.42584 1.3077,-4.77891 1.72324,-7.0592l-3.11649,1.05524c-1.2466,0.43665 -2.29765,0.77627 -3.15315,1.01885M681.36194,376.34056c0.19554,-0.89756 0.32998,-1.5768 0.40331,-2.03771c0.12222,-0.80053 0.03666,-1.46763 -0.25665,-2.00132c-0.31776,-0.84904 -1.00217,-1.74661 -2.05322,-2.69268c-1.34437,-1.1644 -2.17543,-1.9528 -2.49319,-2.3652c-0.12222,0.07278 -1.34437,0.67924 -3.66646,1.81938c-1.46658,0.72775 -2.60319,1.45551 -3.40981,2.18326c0.14666,0.80053 0.6233,1.5768 1.42992,2.32881c0.43997,0.41239 1.14882,1.00672 2.12655,1.78299c3.54424,3.12934 5.69523,5.03362 6.45297,5.71286c2.39542,2.18326 4.46086,4.17245 6.19631,5.96757c-0.41553,-1.2857 -0.90439,-2.99592 -1.46658,-5.13066c-0.65996,-2.59565 -1.11216,-4.318 -1.35659,-5.16704l-1.90656,-0.40026M684.66175,375.06699c1.44214,5.28834 2.43208,9.67911 2.96983,13.17232c0.68441,-1.62531 1.51547,-4.03903 2.49319,-7.24114c1.00217,-3.3234 1.80879,-5.73712 2.41986,-7.24114c0.21999,-0.50943 0.68441,-1.40699 1.39325,-2.69268c0.63552,-1.11589 1.07549,-2.02558 1.31992,-2.72907c-1.7599,0.5822 -3.61757,1.55254 -5.57302,2.91101c-0.43997,0.2911 -2.11432,1.56467 -5.02305,3.8207M693.31459,376.77721c-1.31992,4.17245 -2.62763,7.70205 -3.92311,10.5888c2.49319,-2.76546 5.12082,-6.08886 7.88288,-9.97021l-3.95977,-0.61859M707.98043,392.02363c-1.97989,-2.03771 -3.29981,-3.61451 -3.95977,-4.73039c-0.56219,-1.30995 -0.26887,-2.59565 0.87995,-3.85709c0.63552,-0.72775 1.71101,-1.69809 3.22648,-2.91101l-3.04316,-1.52828l-1.35659,0.61859c-0.07333,2.159 -0.40331,4.62123 -0.98994,7.38669c-0.14666,0.67924 -0.72107,3.10508 -1.72324,7.27753c1.2466,1.11589 2.02877,2.41371 2.34653,3.89348c0.36665,1.60106 0.10999,3.06869 -0.76996,4.4029c1.09994,-0.04852 2.76207,-0.10916 4.98638,-0.18194c1.931,-0.12129 3.56869,-0.42452 4.91305,-0.90969c0.56219,-0.5822 0.69663,-1.34634 0.40331,-2.29242c-0.04889,-0.16981 -0.41553,-0.94608 -1.09994,-2.32881c-0.68441,-1.2857 -1.95544,-2.89888 -3.81312,-4.83956M692.5813,389.33094c-0.80662,0.07278 -1.20993,0.64285 -1.20993,1.71022c0.02444,1.06737 0.50108,1.51615 1.42992,1.34634c0.90439,0.19407 1.3077,-0.31536 1.20993,-1.52828c-0.09777,-1.21292 -0.57441,-1.72235 -1.42992,-1.52828M696.90772,393.95217c-0.68441,1.55254 -1.14882,2.52288 -1.39325,2.91101c-0.70885,1.04311 -1.57658,1.5768 -2.60319,1.60106c-1.00217,-0.46091 -1.91878,-1.24931 -2.74984,-2.3652c-0.85551,-1.38273 -1.49103,-2.41371 -1.90656,-3.09295c-0.90439,0.8733 -2.00433,2.54713 -3.29981,5.02149c-1.22215,2.32881 -2.39542,3.94199 -3.5198,4.83956c-0.70885,0.63072 -1.5888,0.8733 -2.63985,0.72775c-0.95328,-0.12129 -1.78434,-0.53369 -2.49319,-1.23718c-0.73329,-0.75201 -1.44214,-1.75874 -2.12655,-3.02017c-0.70885,-1.50402 -1.2466,-2.63204 -1.61324,-3.38405c-1.07549,-0.07278 -1.88212,-0.16981 -2.41986,-0.2911c-0.92884,-0.26684 -1.38103,-0.81266 -1.35659,-1.63744c0.58663,-0.36388 1.51547,-0.81266 2.78651,-1.34634c-1.83323,-6.50126 -2.88428,-13.42704 -3.15315,-20.77734c-0.02444,0.02426 -0.39109,0.23046 -1.09994,0.61859c-0.46442,0.26684 -0.70885,0.5822 -0.73329,0.94608c-0.09777,2.47436 0.14666,5.73712 0.73329,9.78827c0.70885,4.9002 1.09994,8.15083 1.17327,9.75189c-0.95328,-0.50943 -1.89434,-1.33421 -2.82317,-2.47436c-0.65996,0.07278 -1.14882,0.10916 -1.46658,0.10916c-0.56219,0 -1.01439,-0.14555 -1.35659,-0.43665c-1.39325,-1.09163 -3.0065,-2.48649 -4.83972,-4.18458c-2.05322,-1.98919 -3.60535,-3.46895 -4.6564,-4.43929c-0.31776,3.90561 0.36665,7.5565 2.05322,10.95268c1.85767,3.66302 4.53419,6.16164 8.02954,7.49585c0.63552,-1.21292 1.1366,-2.09835 1.50325,-2.6563c0.31776,-0.48517 0.81884,-0.70349 1.50325,-0.65498c0.68441,0.07278 1.11216,0.38813 1.28326,0.94608c0.48886,1.21292 1.22215,3.00804 2.19987,5.38537c0.85551,2.06197 1.67435,3.8207 2.45653,5.27621c6.15965,-1.43125 10.86494,-2.66843 14.11586,-3.71154c5.15748,-1.62531 9.60612,-3.55386 13.34591,-5.78563c-1.12438,-1.1644 -1.78434,-1.89216 -1.97989,-2.18326c-0.65996,-0.8733 -0.97772,-1.77086 -0.95328,-2.69268M685.35838,390.13147c-0.65996,-0.97034 -1.46658,-1.0795 -2.41986,-0.32749c-0.63552,0.67924 -0.63552,1.45551 0,2.32881c0.61108,0.84904 1.33215,1.03098 2.16321,0.54581c0.85551,-0.72775 0.94106,-1.5768 0.25665,-2.54713M662.80966,341.99063c-1.31992,0.55794 -2.40764,1.23718 -3.26315,2.03771c-0.56219,0.48517 -0.76996,1.14015 -0.6233,1.96493c0.12222,0.75201 0.46442,1.39486 1.02661,1.92854c1.53991,1.5768 3.71534,3.09295 6.5263,4.54845c1.5888,0.82479 3.972,2.03771 7.14959,3.63876c-0.29332,-1.30995 -0.50108,-2.29242 -0.6233,-2.9474c-0.19554,-1.1644 -0.13444,-2.14687 0.18332,-2.9474c1.29548,-3.54173 4.02088,-7.18049 8.1762,-10.91629c-5.81745,-0.12129 -10.79161,0.37601 -14.92248,1.49189c-1.5888,0.46091 -2.79873,0.86117 -3.62979,1.20079M650.01372,393.22442c-0.1711,0.9946 -0.14666,1.84364 0.07333,2.54713c0.36665,0.5822 0.98994,1.17653 1.86989,1.78299c1.22215,0.80053 1.94322,1.29783 2.16321,1.49189c0.48886,0.5822 0.54997,1.23718 0.18332,1.96493c-0.36665,0.72775 -0.92884,1.04311 -1.68657,0.94608c-1.49103,-0.07278 -2.8965,0.30323 -4.21643,1.12802c-1.31992,0.80053 -2.30987,1.8679 -2.96983,3.20211c-0.14666,0.60646 0.04889,1.14015 0.58663,1.60106c0.19554,0.16981 0.73329,0.4973 1.61324,0.98247c1.61324,0.70349 3.59313,1.20079 5.93966,1.49189c1.34437,0.19407 3.38536,0.40026 6.12299,0.61859c0.63552,0.60646 0.83106,1.56467 0.58663,2.87462c-0.14666,0.72775 -0.39109,1.78299 -0.73329,3.16572c2.66429,-2.30455 5.6219,-4.71826 8.87283,-7.24114c-1.27104,-2.81398 -2.2121,-5.11853 -2.82317,-6.91365c-1.73546,0.75201 -3.53202,0.57007 -5.38969,-0.54581c-0.80662,-0.46091 -2.26098,-1.68596 -4.36309,-3.67515c-1.02661,-0.89756 -2.01655,-2.159 -2.96983,-3.78431c-1.00217,-1.89216 -1.78434,-3.29915 -2.34653,-4.22097c-0.07333,0.55794 -0.24443,1.41912 -0.5133,2.58352z" fill="#000000"/><path d="M652.87356,394.86186c0.95328,1.62531 1.94322,2.88675 2.96983,3.78431c2.1021,1.98919 3.55646,3.21424 4.36309,3.67515c1.85767,1.11589 3.65424,1.29783 5.38969,0.54581c0.61108,1.79512 1.55213,4.09967 2.82317,6.91365c-3.25093,2.52288 -6.20854,4.93659 -8.87283,7.24114c0.3422,-1.38273 0.58663,-2.43797 0.73329,-3.16572c0.24443,-1.30995 0.04889,-2.26816 -0.58663,-2.87462c-2.73762,-0.21833 -4.77862,-0.42452 -6.12299,-0.61859c-2.34653,-0.2911 -4.32642,-0.7884 -5.93966,-1.49189c-0.87995,-0.48517 -1.4177,-0.81266 -1.61324,-0.98247c-0.53775,-0.46091 -0.73329,-0.9946 -0.58663,-1.60106c0.65996,-1.33421 1.64991,-2.40158 2.96983,-3.20211c1.31992,-0.82479 2.7254,-1.20079 4.21643,-1.12802c0.75773,0.09703 1.31992,-0.21833 1.68657,-0.94608c0.36665,-0.72775 0.30554,-1.38273 -0.18332,-1.96493c-0.21999,-0.19407 -0.94106,-0.69137 -2.16321,-1.49189c-0.87995,-0.60646 -1.50325,-1.20079 -1.86989,-1.78299c-0.21999,-0.70349 -0.24443,-1.55254 -0.07333,-2.54713c0.26887,-1.1644 0.43997,-2.02558 0.5133,-2.58352c0.56219,0.92182 1.34437,2.32881 2.34653,4.22097M666.43945,340.78984c4.13088,-1.11589 9.10504,-1.61319 14.92248,-1.49189c-4.15532,3.7358 -6.88072,7.37456 -8.1762,10.91629c-0.31776,0.80053 -0.37887,1.78299 -0.18332,2.9474c0.12222,0.65498 0.32998,1.63744 0.6233,2.9474c-3.1776,-1.60106 -5.56079,-2.81398 -7.14959,-3.63876c-2.81095,-1.45551 -4.98638,-2.97166 -6.5263,-4.54845c-0.56219,-0.53369 -0.90439,-1.17653 -1.02661,-1.92854c-0.14666,-0.82479 0.06111,-1.47976 0.6233,-1.96493c0.85551,-0.80053 1.94322,-1.47976 3.26315,-2.03771c0.83106,-0.33962 2.041,-0.73988 3.62979,-1.20079M697.861,396.64486c0.19554,0.2911 0.85551,1.01885 1.97989,2.18326c-3.73979,2.23177 -8.18842,4.16032 -13.34591,5.78563c-3.25093,1.04311 -7.95621,2.28029 -14.11586,3.71154c-0.78218,-1.45551 -1.60102,-3.21424 -2.45653,-5.27621c-0.97772,-2.37733 -1.71101,-4.17245 -2.19987,-5.38537c-0.1711,-0.55794 -0.59885,-0.8733 -1.28326,-0.94608c-0.68441,-0.04852 -1.18549,0.16981 -1.50325,0.65498c-0.36665,0.55794 -0.86773,1.44338 -1.50325,2.6563c-3.49536,-1.33421 -6.17187,-3.83283 -8.02954,-7.49585c-1.68657,-3.39618 -2.37098,-7.04707 -2.05322,-10.95268c1.05105,0.97034 2.60319,2.4501 4.6564,4.43929c1.83323,1.69809 3.44647,3.09295 4.83972,4.18458c0.3422,0.2911 0.7944,0.43665 1.35659,0.43665c0.31776,0 0.80662,-0.03639 1.46658,-0.10916c0.92884,1.14015 1.86989,1.96493 2.82317,2.47436c-0.07333,-1.60106 -0.46442,-4.85168 -1.17327,-9.75189c-0.58663,-4.05116 -0.83106,-7.31391 -0.73329,-9.78827c0.02444,-0.36388 0.26887,-0.67924 0.73329,-0.94608c0.70885,-0.38813 1.07549,-0.59433 1.09994,-0.61859c0.26887,7.3503 1.31992,14.27608 3.15315,20.77734c-1.27104,0.53369 -2.19987,0.98247 -2.78651,1.34634c-0.02444,0.82479 0.42775,1.3706 1.35659,1.63744c0.53775,0.12129 1.34437,0.21833 2.41986,0.2911c0.36665,0.75201 0.90439,1.88003 1.61324,3.38405c0.68441,1.26144 1.39325,2.26816 2.12655,3.02017c0.70885,0.70349 1.53991,1.11589 2.49319,1.23718c1.05105,0.14555 1.931,-0.09703 2.63985,-0.72775c1.12438,-0.89756 2.29765,-2.51075 3.5198,-4.83956c1.29548,-2.47436 2.39542,-4.14819 3.29981,-5.02149c0.41553,0.67924 1.05105,1.71022 1.90656,3.09295c0.83106,1.11589 1.74768,1.90429 2.74984,2.3652c1.02661,-0.02426 1.89434,-0.55794 2.60319,-1.60106c0.24443,-0.38813 0.70885,-1.35847 1.39325,-2.91101c-0.02444,0.92182 0.29332,1.81938 0.95328,2.69268M711.79354,396.86318c0.68441,1.38273 1.05105,2.159 1.09994,2.32881c0.29332,0.94608 0.15888,1.71022 -0.40331,2.29242c-1.34437,0.48517 -2.98205,0.7884 -4.91305,0.90969c-2.22432,0.07278 -3.88645,0.13342 -4.98638,0.18194c0.87995,-1.33421 1.1366,-2.80185 0.76996,-4.4029c-0.31776,-1.47976 -1.09994,-2.77759 -2.34653,-3.89348c1.00217,-4.17245 1.57658,-6.59829 1.72324,-7.27753c0.58663,-2.76546 0.91661,-5.22769 0.98994,-7.38669l1.35659,-0.61859l3.04316,1.52828c-1.51547,1.21292 -2.59096,2.18326 -3.22648,2.91101c-1.14882,1.26144 -1.44214,2.54713 -0.87995,3.85709c0.65996,1.11589 1.97989,2.69268 3.95977,4.73039c1.85767,1.94067 3.12871,3.55386 3.81312,4.83956M697.27437,377.3958c-2.76207,3.88135 -5.38969,7.20475 -7.88288,9.97021c1.29548,-2.88675 2.60319,-6.41635 3.92311,-10.5888l3.95977,0.61859M689.6848,371.24629c1.95544,-1.35847 3.81312,-2.32881 5.57302,-2.91101c-0.24443,0.70349 -0.68441,1.61319 -1.31992,2.72907c-0.70885,1.2857 -1.17327,2.18326 -1.39325,2.69268c-0.61108,1.50402 -1.4177,3.91774 -2.41986,7.24114c-0.97772,3.20211 -1.80879,5.61582 -2.49319,7.24114c-0.53775,-3.49321 -1.52769,-7.88399 -2.96983,-13.17232c2.90872,-2.25603 4.58307,-3.5296 5.02305,-3.8207M683.2685,376.74082c0.24443,0.84904 0.69663,2.57139 1.35659,5.16704c0.56219,2.13474 1.05105,3.84496 1.46658,5.13066c-1.73546,-1.79512 -3.80089,-3.78431 -6.19631,-5.96757c-0.75773,-0.67924 -2.90872,-2.58352 -6.45297,-5.71286c-0.97772,-0.77627 -1.68657,-1.3706 -2.12655,-1.78299c-0.80662,-0.75201 -1.28326,-1.52828 -1.42992,-2.32881c0.80662,-0.72775 1.94322,-1.45551 3.40981,-2.18326c2.32209,-1.14015 3.54424,-1.74661 3.66646,-1.81938c0.31776,0.41239 1.14882,1.20079 2.49319,2.3652c1.05105,0.94608 1.73546,1.84364 2.05322,2.69268c0.29332,0.53369 0.37887,1.20079 0.25665,2.00132c-0.07333,0.46091 -0.20777,1.14015 -0.40331,2.03771l1.90656,0.40026M681.80191,365.35149l3.11649,-1.05524c-0.41553,2.28029 -0.98994,4.63336 -1.72324,7.0592c-1.49103,-2.4501 -3.0065,-4.1118 -4.54641,-4.98511c0.85551,-0.24258 1.90656,-0.5822 3.15315,-1.01885M702.88405,356.98234c2.34653,0.92182 4.22865,2.37733 5.64635,4.36652c1.51547,2.18326 2.02877,4.43929 1.53991,6.7681c-0.48886,1.38273 -1.4177,2.69268 -2.78651,3.92986c-0.90439,0.80053 -2.22432,1.74661 -3.95977,2.83824c-2.1021,-0.60646 -4.3142,-0.65498 -6.63629,-0.14555c0.5133,-1.91642 0.80662,-3.18998 0.87995,-3.8207c0.19554,-1.47976 0.01222,-2.72907 -0.54997,-3.74793c-0.3422,-0.70349 -0.94106,-1.10376 -1.79656,-1.20079c-0.75773,-0.09703 -1.50325,0.03639 -2.23654,0.40026c-1.34437,0.5822 -2.74984,1.43125 -4.21643,2.54713c-0.87995,0.65498 -2.13877,1.71022 -3.77645,3.16572c0.73329,-2.06197 1.23437,-3.62663 1.50325,-4.694c0.41553,-1.84364 0.31776,-3.40831 -0.29332,-4.694l-1.31992,-0.36388c-2.78651,0.67924 -5.74412,1.77086 -8.87283,3.27489c-2.22432,1.06737 -5.01083,2.57139 -8.35952,4.51207c-0.65996,-0.33962 -1.19771,-0.55794 -1.61324,-0.65498c-0.65996,-0.12129 -0.52553,0.25471 0.40331,1.12802c-1.27104,1.30995 -1.83323,2.52288 -1.68657,3.63876c0.07333,3.66302 0.68441,8.38129 1.83323,14.15479c-1.09994,-1.40699 -2.2732,-2.57139 -3.5198,-3.49321c-1.00217,-0.75201 -2.50541,-1.9528 -4.50974,-3.60238c-1.931,-1.62531 -3.43425,-2.82611 -4.50974,-3.60238c-0.39109,-0.36388 -0.89217,-0.52156 -1.50325,-0.47304c-0.61108,0.04852 -1.05105,0.30323 -1.31992,0.76414c-0.61108,1.06737 -0.97772,2.40158 -1.09994,4.00264c-0.07333,0.94608 -0.10999,2.35307 -0.10999,4.22097l-6.85628,-1.38273c0.90439,-0.97034 2.32209,-2.38945 4.25309,-4.25735c1.66213,-1.72235 2.87206,-3.3234 3.62979,-4.80317c-1.56436,-2.13474 -2.74984,-3.7358 -3.55646,-4.80317c-1.4177,-1.89216 -2.70096,-3.43257 -3.84978,-4.62123c2.90872,-0.72775 7.47957,-1.79512 13.71255,-3.20211c6.01299,-1.35847 10.58384,-2.43797 13.71255,-3.2385c0.90439,-0.16981 1.5888,-0.60646 2.05322,-1.30995c0.43997,-0.70349 0.53775,-1.50402 0.29332,-2.40158c1.00217,0.53369 2.24876,0.66711 3.73979,0.40026c0.83106,-0.12129 2.07766,-0.36388 3.73979,-0.72775c4.35086,-0.65498 8.05399,-0.95821 11.10937,-0.90969c4.08199,0.07278 7.71178,0.75201 10.88938,2.03771z" fill="#d8558e"/><path d="M685.10173,392.67861c-0.83106,0.48517 -1.55213,0.30323 -2.16321,-0.54581c-0.63552,-0.8733 -0.63552,-1.64957 0,-2.32881c0.95328,-0.75201 1.7599,-0.64285 2.41986,0.32749c0.68441,0.97034 0.59885,1.81938 -0.25665,2.54713M692.80129,392.38751c-0.92884,0.16981 -1.40548,-0.27897 -1.42992,-1.34634c0,-1.06737 0.40331,-1.63744 1.20993,-1.71022c0.85551,-0.19407 1.33215,0.31536 1.42992,1.52828c0.09777,1.21292 -0.30554,1.72235 -1.20993,1.52828z" fill="#e1e1e1"/></g></g></g></svg>