<svg version="1.1" xmlns="http://www.w3.org/2000/svg" xmlns:xlink="http://www.w3.org/1999/xlink" width="43.575" height="58.51644" viewBox="0,0,43.575,58.51644"><g transform="translate(-608.18311,-343.95294)"><g data-paper-data="{&quot;isPaintingLayer&quot;:true}" fill-rule="nonzero" stroke="none" stroke-width="1" stroke-linecap="butt" stroke-linejoin="miter" stroke-miterlimit="10" stroke-dasharray="" stroke-dashoffset="0" style="mix-blend-mode: normal"><path d="M651.70811,368.14385c-0.16667,2.4 -0.36667,4.81667 -0.6,7.25c-0.1,1.06667 -0.21667,2.11667 -0.35,3.15c-0.13333,1.23333 -0.26667,2.41667 -0.4,3.55c-0.3,2.9 -1.01667,5.75 -2.15,8.55c-0.8,2.03333 -2.03333,3.88333 -3.7,5.55c-0.86667,0.83333 -1.8,1.55 -2.8,2.15c-2.83333,1.8 -5.88333,3.03333 -9.15,3.7c-3.5,0.66667 -6.9,0.55 -10.2,-0.35c-1.66667,-0.5 -3.31667,-1.03333 -4.95,-1.6c-1.06667,-0.26667 -2.01667,-0.9 -2.85,-1.9c-0.16667,-0.16667 -0.31667,-0.31667 -0.45,-0.45c-1.66667,-1.86667 -2.95,-3.95 -3.85,-6.25c-0.66667,-1.7 -1.11667,-3.46667 -1.35,-5.3c-0.36667,-2.93333 -0.56667,-5.8 -0.6,-8.6c0,-1.86667 -0.03333,-3.73333 -0.1,-5.6c-0.03333,-0.46667 -0.03333,-0.91667 0,-1.35c0.13333,-1.1 0.25,-2.18333 0.35,-3.25c0.23333,-3.13333 0.36667,-6.25 0.4,-9.35c0,-2.7 -0.11667,-5.46667 -0.35,-8.3c-0.03333,-0.63333 0.03333,-1.25 0.2,-1.85c0.4,-1.23333 1.11667,-2.2 2.15,-2.9l0.9,-0.3c0.8,0.13333 1.63333,0.1 2.5,-0.1c1.03333,-0.03333 2.06667,-0.15 3.1,-0.35c2.03333,-0.26667 4.06667,-0.35 6.1,-0.25c1.23333,0.2 2.16667,0.83333 2.8,1.9c0.36667,0.66667 0.58333,1.36667 0.65,2.1c0.23333,2.9 0.31667,5.81667 0.25,8.75c0,0.3 0,0.56667 0,0.8c-0.13333,1.66667 -0.23333,3.26667 -0.3,4.8c-0.06667,1.43333 -0.11667,2.95 -0.15,4.55c0,0.6 0.03333,1.23333 0.1,1.9c0.16667,1.7 0.35,3.36667 0.55,5c0.03333,0.26667 0.06667,0.51667 0.1,0.75c0.1,1.56667 0.63333,2.73333 1.6,3.5l1.35,-0.25c1.06667,-1.6 1.71667,-3.3 1.95,-5.1c0.06667,-0.36667 0.1,-0.71667 0.1,-1.05c-0.03333,-1.16667 0.08333,-2.33333 0.35,-3.5c0.06667,-0.23333 0.1,-0.5 0.1,-0.8c0.16667,-6.46667 0.26667,-12.9 0.3,-19.3c0,-1.83333 0.93333,-2.86667 2.8,-3.1c0.56667,0.13333 1.13333,0.28333 1.7,0.45c2.23333,-0.03333 4.46667,-0.05 6.7,-0.05c0.43333,-0.1 0.86667,-0.03333 1.3,0.2l1.4,-0.45c0.3,0.06667 0.6,0.15 0.9,0.25c1.4,0.63333 2.2,1.63333 2.4,3c0.16667,3.36667 0.35,6.75 0.55,10.15c0.16667,2.43333 0.38333,4.85 0.65,7.25c0.06667,0.76667 0.06667,1.56667 0,2.4M638.95811,351.79385c0.4,7.13333 0.26667,14.28333 -0.4,21.45c-0.03333,0.16667 -0.05,0.35 -0.05,0.55c-0.03333,3.1 -1.21667,5.71667 -3.55,7.85c-1.7,1.6 -3.65,2.51667 -5.85,2.75c-1,-0.1 -1.98333,-0.43333 -2.95,-1c-2.06667,-1.16667 -3.41667,-2.81667 -4.05,-4.95c-0.3,-0.96667 -0.48333,-1.95 -0.55,-2.95c-0.06667,-0.66667 -0.18333,-1.36667 -0.35,-2.1c-0.06667,-0.23333 -0.1,-0.5 -0.1,-0.8c-0.06667,-1.03333 -0.2,-2.08333 -0.4,-3.15c-0.3,-1.53333 -0.28333,-3.06667 0.05,-4.6c0.3,-1.46667 0.4,-2.98333 0.3,-4.55c-0.06667,-1.33333 0,-2.65 0.2,-3.95c0.3,-1.96667 0.31667,-3.86667 0.05,-5.7l-7.9,-0.2c0.13333,2.66667 0.16667,5.35 0.1,8.05c-0.2,8.06667 0.01667,16.2 0.65,24.4c0.06667,1.1 0.23333,2.15 0.5,3.15c0.73333,2.66667 1.88333,5.1 3.45,7.3c0.56667,0.33333 1.15,0.63333 1.75,0.9c1.1,0.53333 2.23333,0.98333 3.4,1.35c4.4,1.13333 8.68333,0.78333 12.85,-1.05c2,-0.86667 3.58333,-2.1 4.75,-3.7c1.6,-2.16667 2.61667,-4.55 3.05,-7.15c0.16667,-1.03333 0.31667,-2.01667 0.45,-2.95c0.2,-1.26667 0.33333,-2.43333 0.4,-3.5c0.06667,-1.03333 0.15,-2.05 0.25,-3.05c0.43333,-4.43333 0.46667,-8.86667 0.1,-13.3c0,-0.16667 0,-0.33333 0,-0.5c-0.2,-2.6 -0.4,-5.2 -0.6,-7.8v-0.9z" fill="#000000"/><path d="M645.10811,360.39385c0,0.16667 0,0.33333 0,0.5c0.36667,4.43333 0.33333,8.86667 -0.1,13.3c-0.1,1 -0.18333,2.01667 -0.25,3.05c-0.06667,1.06667 -0.2,2.23333 -0.4,3.5c-0.13333,0.93333 -0.28333,1.91667 -0.45,2.95c-0.43333,2.6 -1.45,4.98333 -3.05,7.15c-1.16667,1.6 -2.75,2.83333 -4.75,3.7c-4.16667,1.83333 -8.45,2.18333 -12.85,1.05c-1.16667,-0.36667 -2.3,-0.81667 -3.4,-1.35c-0.6,-0.26667 -1.18333,-0.56667 -1.75,-0.9c-1.56667,-2.2 -2.71667,-4.63333 -3.45,-7.3c-0.26667,-1 -0.43333,-2.05 -0.5,-3.15c-0.63333,-8.2 -0.85,-16.33333 -0.65,-24.4c0.06667,-2.7 0.03333,-5.38333 -0.1,-8.05l7.9,0.2c0.26667,1.83333 0.25,3.73333 -0.05,5.7c-0.2,1.3 -0.26667,2.61667 -0.2,3.95c0.1,1.56667 0,3.08333 -0.3,4.55c-0.33333,1.53333 -0.35,3.06667 -0.05,4.6c0.2,1.06667 0.33333,2.11667 0.4,3.15c0,0.3 0.03333,0.56667 0.1,0.8c0.16667,0.73333 0.28333,1.43333 0.35,2.1c0.06667,1 0.25,1.98333 0.55,2.95c0.63333,2.13333 1.98333,3.78333 4.05,4.95c0.96667,0.56667 1.95,0.9 2.95,1c2.2,-0.23333 4.15,-1.15 5.85,-2.75c2.33333,-2.13333 3.51667,-4.75 3.55,-7.85c0,-0.2 0.01667,-0.38333 0.05,-0.55c0.66667,-7.16667 0.8,-14.31667 0.4,-21.45l5.55,-0.1v0.9c0.2,2.6 0.4,5.2 0.6,7.8z" fill="#ffffff"/></g></g></svg>