<svg version="1.1" xmlns="http://www.w3.org/2000/svg" xmlns:xlink="http://www.w3.org/1999/xlink" width="57.31127" height="62.03625" viewBox="0,0,57.31127,62.03625"><g transform="translate(-608.19403,-337.89271)"><g data-paper-data="{&quot;isPaintingLayer&quot;:true}" fill-rule="nonzero" stroke="none" stroke-width="1" stroke-linecap="butt" stroke-linejoin="miter" stroke-miterlimit="10" stroke-dasharray="" stroke-dashoffset="0" style="mix-blend-mode: normal"><path d="M657.05811,341.43784c2.5,1.6 4.5,3.71667 6,6.35c2.2,1.5 2.91667,3.48333 2.15,5.95c-0.13333,0.43333 -0.31667,0.81667 -0.55,1.15c-1.06667,6.23333 -2.66667,12.36667 -4.8,18.4c-2.3,6.43333 -4.38333,12.91667 -6.25,19.45c-0.46667,1.6 -0.86667,3.18333 -1.2,4.75c-0.23333,1.1 -0.85,1.81667 -1.85,2.15c-1.7,0.63333 -3.01667,0.23333 -3.95,-1.2c-0.26667,-0.43333 -0.53333,-0.85 -0.8,-1.25c-1.1,-1.73333 -2.25,-3.43333 -3.45,-5.1c-0.26667,-0.4 -0.51667,-0.78333 -0.75,-1.15c-0.26667,-0.46667 -0.55,-0.88333 -0.85,-1.25c-0.3,-0.33333 -0.56667,-0.73333 -0.8,-1.2c-0.13333,-0.23333 -0.26667,-0.45 -0.4,-0.65c-1.16667,-1.66667 -2.3,-3.26667 -3.4,-4.8c-1.6,2.8 -3.3,5.46667 -5.1,8c-1.73333,2.4 -3.41667,4.78333 -5.05,7.15c-0.6,0.9 -1.46667,1.45 -2.6,1.65c-1.26667,-0.03333 -2.21667,-0.55 -2.85,-1.55c-0.76667,-1.23333 -1.3,-2.5 -1.6,-3.8c-0.9,-3.86667 -1.88333,-7.71667 -2.95,-11.55c-0.43333,-1.53333 -0.78333,-3.15 -1.05,-4.85c-0.16667,-0.93333 -0.35,-1.83333 -0.55,-2.7c-0.16667,-0.73333 -0.35,-1.51667 -0.55,-2.35c-0.2,-0.7 -0.35,-1.41667 -0.45,-2.15c-0.13333,-0.73333 -0.25,-1.45 -0.35,-2.15c-0.1,-0.16667 -0.15,-0.33333 -0.15,-0.5c-0.06667,-0.63333 -0.15,-1.18333 -0.25,-1.65c-0.16667,-1.1 -0.36667,-2.16667 -0.6,-3.2c-0.16667,-0.7 -0.28333,-1.41667 -0.35,-2.15c-0.23333,-1.96667 -0.5,-3.93333 -0.8,-5.9c-0.06667,-0.43333 -0.15,-0.88333 -0.25,-1.35c-0.26667,-1.13333 -0.76667,-2.11667 -1.5,-2.95c-1.23333,-1.36667 -1.28333,-2.71667 -0.15,-4.05c1.16667,-1.4 2.51667,-2.53333 4.05,-3.4c0.33333,-0.2 0.66667,-0.41667 1,-0.65c2.46667,-1.56667 4.96667,-3.11667 7.5,-4.65c1.1,-0.6 2.15,-0.51667 3.15,0.25c0.53333,0.4 0.86667,0.9 1,1.5c0.23333,0.83333 0.38333,1.71667 0.45,2.65c0.1,1.1 0.25,2.16667 0.45,3.2c0.13333,0.63333 0.23333,1.26667 0.3,1.9c0.06667,0.56667 0.16667,1.1 0.3,1.6c0.4,1.73333 0.85,3.41667 1.35,5.05c0.26667,0.96667 0.53333,1.95 0.8,2.95c0.06667,0.36667 0.16667,0.71667 0.3,1.05c0.1,0.33333 0.11667,0.7 0.05,1.1c-0.06667,0.66667 0.05,1.36667 0.35,2.1c0.2,-0.2 0.4,-0.51667 0.6,-0.95c1.1,-2.2 2,-4.55 2.7,-7.05c0.03333,-0.16667 0.08333,-0.33333 0.15,-0.5c0.36667,-0.9 0.7,-1.8 1,-2.7c0.23333,-0.66667 0.63333,-1.2 1.2,-1.6c1.06667,-0.76667 2.23333,-0.81667 3.5,-0.15c2.8,3.3 4.76667,7.06667 5.9,11.3c0.26667,-0.66667 0.48333,-1.35 0.65,-2.05c1.23333,-5.26667 2.81667,-10.41667 4.75,-15.45c0.3,-0.8 0.75,-1.45 1.35,-1.95c1.16667,-0.2 2.26667,-0.2 3.3,0c0.66667,0.23333 1.3,0.53333 1.9,0.9M648.30811,366.93784c-0.06667,0.16667 -0.13333,0.35 -0.2,0.55c-0.13333,0.53333 -0.33333,1.05 -0.6,1.55c-0.5,1.03333 -1.33333,1.36667 -2.5,1c-0.8,-0.26667 -1.35,-0.86667 -1.65,-1.8c-0.63333,-1.9 -1.3,-3.78333 -2,-5.65c-0.6,-1.53333 -1.2,-3.15 -1.8,-4.85c-0.1,-0.23333 -0.18333,-0.48333 -0.25,-0.75c-0.26667,-1.13333 -0.75,-2.08333 -1.45,-2.85c-0.7,0.83333 -1.18333,1.83333 -1.45,3c-0.03333,0.16667 -0.08333,0.33333 -0.15,0.5c-0.46667,1.26667 -1,2.5 -1.6,3.7c-1.16667,2.43333 -2.25,4.86667 -3.25,7.3c-0.2,0.46667 -0.58333,0.8 -1.15,1c-1.1,0.3 -1.91667,-0.03333 -2.45,-1c-0.63333,-1.16667 -1.11667,-2.3 -1.45,-3.4c-0.23333,-0.73333 -0.4,-1.43333 -0.5,-2.1c-0.3,-2 -0.76667,-3.96667 -1.4,-5.9c-0.53333,-1.66667 -1.13333,-3.38333 -1.8,-5.15c-0.66667,-1.86667 -1.28333,-3.81667 -1.85,-5.85l-6.85,3.85l5.5,24.4l4.55,16.2c0.36667,-0.43333 0.76667,-0.95 1.2,-1.55c0.13333,-0.16667 0.26667,-0.31667 0.4,-0.45c0.83333,-0.86667 1.46667,-1.75 1.9,-2.65c0.76667,-1.63333 1.63333,-3.2 2.6,-4.7c0.7,-1.03333 1.26667,-2.11667 1.7,-3.25c0.56667,-1.5 1.63333,-2.55 3.2,-3.15c2.03333,-0.73333 3.6,-0.18333 4.7,1.65c2.66667,4.46667 5.53333,8.73333 8.6,12.8c0.5,-2.53333 1.15,-4.96667 1.95,-7.3c0.56667,-1.6 1.18333,-3.2 1.85,-4.8c1.6,-4 2.88333,-8.1 3.85,-12.3c0.36667,-1.53333 0.66667,-3.05 0.9,-4.55c0.43333,-2.56667 1.16667,-4.96667 2.2,-7.2l-3.9,-4.5c-0.43333,1.16667 -0.88333,2.33333 -1.35,3.5c-0.26667,0.63333 -0.5,1.26667 -0.7,1.9c-1.4,4.36667 -3,8.63333 -4.8,12.8z" fill="#000000"/><path d="M655.15811,348.73784l3.9,4.5c-1.03333,2.23333 -1.76667,4.63333 -2.2,7.2c-0.23333,1.5 -0.53333,3.01667 -0.9,4.55c-0.96667,4.2 -2.25,8.3 -3.85,12.3c-0.66667,1.6 -1.28333,3.2 -1.85,4.8c-0.8,2.33333 -1.45,4.76667 -1.95,7.3c-3.06667,-4.06667 -5.93333,-8.33333 -8.6,-12.8c-1.1,-1.83333 -2.66667,-2.38333 -4.7,-1.65c-1.56667,0.6 -2.63333,1.65 -3.2,3.15c-0.43333,1.13333 -1,2.21667 -1.7,3.25c-0.96667,1.5 -1.83333,3.06667 -2.6,4.7c-0.43333,0.9 -1.06667,1.78333 -1.9,2.65c-0.13333,0.13333 -0.26667,0.28333 -0.4,0.45c-0.43333,0.6 -0.83333,1.11667 -1.2,1.55l-4.55,-16.2l-5.5,-24.4l6.85,-3.85c0.56667,2.03333 1.18333,3.98333 1.85,5.85c0.66667,1.76667 1.26667,3.48333 1.8,5.15c0.63333,1.93333 1.1,3.9 1.4,5.9c0.1,0.66667 0.26667,1.36667 0.5,2.1c0.33333,1.1 0.81667,2.23333 1.45,3.4c0.53333,0.96667 1.35,1.3 2.45,1c0.56667,-0.2 0.95,-0.53333 1.15,-1c1,-2.43333 2.08333,-4.86667 3.25,-7.3c0.6,-1.2 1.13333,-2.43333 1.6,-3.7c0.06667,-0.16667 0.11667,-0.33333 0.15,-0.5c0.26667,-1.16667 0.75,-2.16667 1.45,-3c0.7,0.76667 1.18333,1.71667 1.45,2.85c0.06667,0.26667 0.15,0.51667 0.25,0.75c0.6,1.7 1.2,3.31667 1.8,4.85c0.7,1.86667 1.36667,3.75 2,5.65c0.3,0.93333 0.85,1.53333 1.65,1.8c1.16667,0.36667 2,0.03333 2.5,-1c0.26667,-0.5 0.46667,-1.01667 0.6,-1.55c0.06667,-0.2 0.13333,-0.38333 0.2,-0.55c1.8,-4.16667 3.4,-8.43333 4.8,-12.8c0.2,-0.63333 0.43333,-1.26667 0.7,-1.9c0.46667,-1.16667 0.91667,-2.33333 1.35,-3.5z" fill="#ffffff"/></g></g></svg>