<svg version="1.1" xmlns="http://www.w3.org/2000/svg" xmlns:xlink="http://www.w3.org/1999/xlink" width="44.95177" height="64.87903" viewBox="0,0,44.95177,64.87903"><g transform="translate(-613.02373,-338.06051)"><g data-paper-data="{&quot;isPaintingLayer&quot;:true}" fill-rule="nonzero" stroke="none" stroke-width="1" stroke-linecap="round" stroke-linejoin="miter" stroke-miterlimit="4" stroke-dasharray="" stroke-dashoffset="0" style="mix-blend-mode: normal"><path d="M626.78549,339.31051c1.7,-1 3.76667,-1.4 6.2,-1.2c1.46667,0.13333 3.55,0.65 6.25,1.55c4.1,1.46667 7.21667,3.06667 9.35,4.8c0.83333,0.73333 2,1.93333 3.5,3.6c1.13333,1.26667 1.93333,2.26667 2.4,3c0.43333,0.76667 0.86667,1.75 1.3,2.95c0.2,0.66667 0.53333,1.66667 1,3l0.65,2c0.23333,0.76667 0.33333,1.45 0.3,2.05c0,0.43333 -0.1,1.03333 -0.3,1.8c-0.06667,0.53333 -0.06667,1.28333 0,2.25l0.45,8.7c0.1,1.7 0.11667,2.98333 0.05,3.85c-0.06667,0.96667 -0.4,2.75 -1,5.35c-0.46667,2.03333 -0.76667,3.2 -0.9,3.5c-0.13333,0.46667 -0.43333,1.15 -0.9,2.05c-0.6,1.36667 -1.1,2.35 -1.5,2.95c-0.83333,1.36667 -2.13333,2.86667 -3.9,4.5c-2.2,1.86667 -4.6,3.41667 -7.2,4.65c-2.66667,1.26667 -5.16667,2 -7.5,2.2c-2.5,0.23333 -4.75,-0.05 -6.75,-0.85c-1.63333,-0.6 -3.41667,-1.66667 -5.35,-3.2c-2.06667,-1.6 -3.55,-3.06667 -4.45,-4.4c-1.2,-1.63333 -2.16667,-4.03333 -2.9,-7.2c-0.8,-3.06667 -1.31667,-6.18333 -1.55,-9.35c-0.13333,-2.46667 -0.28333,-4.06667 -0.45,-4.8c-0.3,-1.5 -0.48333,-2.65 -0.55,-3.45c-0.06667,-1.26667 0.15,-2.31667 0.65,-3.15c-0.1,-1.26667 -0.03333,-2.73333 0.2,-4.4c0.06667,-0.7 0.33333,-2.2 0.8,-4.5c0.5,-2.66667 0.76667,-4.13333 0.8,-4.4c0.43333,-1.66667 0.93333,-3.05 1.5,-4.15c0.76667,-1.6 2.21667,-3.5 4.35,-5.7c1.33333,-1.4 2.46667,-2.36667 3.4,-2.9c0.56667,-0.33333 1.1,-0.58333 1.6,-0.75c0.16667,-0.1 0.31667,-0.21667 0.45,-0.35M627.93549,345.11051c-0.63333,0.56667 -1.46667,1.31667 -2.5,2.25c-1.63333,1.5 -2.71667,2.66667 -3.25,3.5c-0.63333,1 -1.1,2.26667 -1.4,3.8c-0.2,0.9 -0.41667,2.26667 -0.65,4.1c-0.13333,0.7 -0.33333,1.7 -0.6,3c-0.16667,1.13333 -0.25,2.1 -0.25,2.9c0,0.56667 0,1.4 0,2.5c-0.03333,0.43333 -0.11667,0.83333 -0.25,1.2v0.05c0.16667,0.86667 0.25,1.86667 0.25,3c0,0.7 -0.01667,1.71667 -0.05,3.05c0,3.46667 0.6,7.31667 1.8,11.55c0.33333,1.4 0.75,2.61667 1.25,3.65c0.3,0.6 0.65,1.11667 1.05,1.55c0.5,0.63333 1.4,1.38333 2.7,2.25c1.2,0.86667 2.08333,1.58333 2.65,2.15c1.26667,0.8 2.75,1.2 4.45,1.2c1.43333,0.03333 3.15,-0.3 5.15,-1c3,-1.1 5.63333,-2.63333 7.9,-4.6c1.03333,-0.83333 1.86667,-1.73333 2.5,-2.7c0.56667,-0.86667 1.03333,-1.9 1.4,-3.1c0.56667,-1.8 0.98333,-4.06667 1.25,-6.8c0.63333,-6.1 0.51667,-11.96667 -0.35,-17.6c-0.26667,-1.66667 -0.6,-3.05 -1,-4.15c-1.2,-3.4 -3.46667,-6.25 -6.8,-8.55c-2.7,-1.9 -6.11667,-3.26667 -10.25,-4.1c-1.16667,-0.23333 -2.03333,-0.26667 -2.6,-0.1c-0.26667,0.06667 -0.65,0.23333 -1.15,0.5c-0.5,0.26667 -0.9,0.43333 -1.2,0.5h-0.05M634.18549,374.36051l5.6,6.5c0.76667,0.9 1.28333,1.63333 1.55,2.2c0.46667,0.86667 0.58333,1.73333 0.35,2.6c-0.16667,0.7 -0.68333,1.41667 -1.55,2.15c-0.83333,0.7 -1.71667,1.23333 -2.65,1.6c-1.86667,0.86667 -3.63333,1 -5.3,0.4c-1.56667,-0.56667 -2.78333,-1.83333 -3.65,-3.8c-0.6,-1.46667 -0.85,-3.25 -0.75,-5.35l0.1,0.5l-0.45,-4.15c-0.06667,-0.7 -0.06667,-1.21667 0,-1.55c0.23333,-1 0.88333,-1.78333 1.95,-2.35c0.93333,-0.53333 1.81667,-0.7 2.65,-0.5c0.7,0.23333 1.41667,0.81667 2.15,1.75M634.13549,384.51051h0.5l1,-0.25l-2.75,-3.35l0.25,2.1c0.13333,0.46667 0.33333,0.86667 0.6,1.2l0.4,0.3M642.38549,358.61051c0.83333,2.03333 1.73333,5.25 2.7,9.65c0.3,1.43333 0.4,2.51667 0.3,3.25c-0.23333,1.33333 -0.88333,2.13333 -1.95,2.4c-0.76667,0.23333 -1.58333,0.05 -2.45,-0.55c-0.13333,-0.1 -0.76667,-0.71667 -1.9,-1.85c-0.46667,-0.5 -1.33333,-1.3 -2.6,-2.4c-1.1,-0.96667 -1.93333,-1.76667 -2.5,-2.4c-1.3,-1.83333 -2.31667,-3.2 -3.05,-4.1c-0.73333,-0.83333 -1.26667,-1.45 -1.6,-1.85c-0.6,-0.76667 -1.03333,-1.45 -1.3,-2.05c-0.36667,-0.93333 -0.5,-1.96667 -0.4,-3.1c0.13333,-1.13333 0.53333,-2.06667 1.2,-2.8c0.66667,-0.7 1.73333,-1.16667 3.2,-1.4c1.43333,-0.13333 2.85,0.05 4.25,0.55c1.43333,0.53333 2.63333,1.33333 3.6,2.4c0.9,0.96667 1.73333,2.38333 2.5,4.25M633.88549,357.16051c1.13333,1.4 2.41667,3.1 3.85,5.1l-0.2,-0.3c0.17279,0.24596 0.53945,0.7293 1.1,1.45c-0.23333,-1.1 -0.8,-2.35 -1.7,-3.75l-1,-1.35c-0.53333,-0.43333 -1.21667,-0.81667 -2.05,-1.15z" fill="#000000"/><path d="M627.98549,345.11051c0.3,-0.06667 0.7,-0.23333 1.2,-0.5c0.5,-0.26667 0.88333,-0.43333 1.15,-0.5c0.56667,-0.16667 1.43333,-0.13333 2.6,0.1c4.13333,0.83333 7.55,2.2 10.25,4.1c3.33333,2.3 5.6,5.15 6.8,8.55c0.4,1.1 0.73333,2.48333 1,4.15c0.86667,5.63333 0.98333,11.5 0.35,17.6c-0.26667,2.73333 -0.68333,5 -1.25,6.8c-0.36667,1.2 -0.83333,2.23333 -1.4,3.1c-0.63333,0.96667 -1.46667,1.86667 -2.5,2.7c-2.26667,1.96667 -4.9,3.5 -7.9,4.6c-2,0.7 -3.71667,1.03333 -5.15,1c-1.7,0 -3.18333,-0.4 -4.45,-1.2c-0.56667,-0.56667 -1.45,-1.28333 -2.65,-2.15c-1.3,-0.86667 -2.2,-1.61667 -2.7,-2.25c-0.4,-0.43333 -0.75,-0.95 -1.05,-1.55c-0.5,-1.03333 -0.91667,-2.25 -1.25,-3.65c-1.2,-4.23333 -1.8,-8.08333 -1.8,-11.55c0.03333,-1.33333 0.05,-2.35 0.05,-3.05c0,-1.13333 -0.08333,-2.13333 -0.25,-3v-0.05c0.13333,-0.36667 0.21667,-0.76667 0.25,-1.2c0,-1.1 0,-1.93333 0,-2.5c0,-0.8 0.08333,-1.76667 0.25,-2.9c0.26667,-1.3 0.46667,-2.3 0.6,-3c0.23333,-1.83333 0.45,-3.2 0.65,-4.1c0.3,-1.53333 0.76667,-2.8 1.4,-3.8c0.53333,-0.83333 1.61667,-2 3.25,-3.5c1.03333,-0.93333 1.86667,-1.68333 2.5,-2.25h0.05M639.88549,354.36051c-0.96667,-1.06667 -2.16667,-1.86667 -3.6,-2.4c-1.4,-0.5 -2.81667,-0.68333 -4.25,-0.55c-1.46667,0.23333 -2.53333,0.7 -3.2,1.4c-0.66667,0.73333 -1.06667,1.66667 -1.2,2.8c-0.1,1.13333 0.03333,2.16667 0.4,3.1c0.26667,0.6 0.7,1.28333 1.3,2.05c0.33333,0.4 0.86667,1.01667 1.6,1.85c0.73333,0.9 1.75,2.26667 3.05,4.1c0.56667,0.63333 1.4,1.43333 2.5,2.4c1.26667,1.1 2.13333,1.9 2.6,2.4c1.13333,1.13333 1.76667,1.75 1.9,1.85c0.86667,0.6 1.68333,0.78333 2.45,0.55c1.06667,-0.26667 1.71667,-1.06667 1.95,-2.4c0.1,-0.73333 0,-1.81667 -0.3,-3.25c-0.96667,-4.4 -1.86667,-7.61667 -2.7,-9.65c-0.76667,-1.86667 -1.6,-3.28333 -2.5,-4.25M629.38549,373.11051c-1.06667,0.56667 -1.71667,1.35 -1.95,2.35c-0.06667,0.33333 -0.06667,0.85 0,1.55l0.45,4.15l-0.1,-0.5c-0.1,2.1 0.15,3.88333 0.75,5.35c0.86667,1.96667 2.08333,3.23333 3.65,3.8c1.66667,0.6 3.43333,0.46667 5.3,-0.4c0.93333,-0.36667 1.81667,-0.9 2.65,-1.6c0.86667,-0.73333 1.38333,-1.45 1.55,-2.15c0.23333,-0.86667 0.11667,-1.73333 -0.35,-2.6c-0.26667,-0.56667 -0.78333,-1.3 -1.55,-2.2l-5.6,-6.5c-0.73333,-0.93333 -1.45,-1.51667 -2.15,-1.75c-0.83333,-0.2 -1.71667,-0.03333 -2.65,0.5z" fill="#ffffff"/></g></g></svg>