<svg version="1.1" xmlns="http://www.w3.org/2000/svg" xmlns:xlink="http://www.w3.org/1999/xlink" width="159.46189" height="154.77334" viewBox="0,0,159.46189,154.77334"><g transform="translate(-562.77296,-278.46632)"><g data-paper-data="{&quot;isPaintingLayer&quot;:true}" fill-rule="nonzero" stroke="none" stroke-linecap="butt" stroke-linejoin="miter" stroke-miterlimit="10" stroke-dasharray="" stroke-dashoffset="0" style="mix-blend-mode: normal"><path d="M640.48402,340.39809l-0.35,0.05l-0.05,-0.05c0.13333,0 0.26667,0 0.4,0z" data-paper-data="{&quot;index&quot;:null}" fill="#000000" stroke-width="1"/><path d="M637.65442,280.62129c4.34138,1.58897 8.87343,2.57561 13.11655,4.43667c13.10645,5.74857 25.2627,12.70101 36.55934,21.48728c6.07026,4.27447 11.07265,10.72732 16.1764,16.13818c3.42846,3.63476 7.91182,6.50681 11.07594,10.35735c6.04911,7.36141 7.6522,16.56725 7.6522,25.74021c-0.02735,8.77546 -3.93241,14.69129 -9.02336,21.47892c-2.44101,3.25453 -4.68636,6.9156 -7.57833,9.81125c-6.94292,6.95177 -16.59409,11.29267 -24.2709,17.43188c-7.50885,6.6734 -15.57164,12.06417 -23.84809,17.70547c-2.18131,1.4868 -3.80781,3.33141 -5.62686,5.19153c-0.90705,0.92753 -1.55949,2.37339 -2.8193,2.68306c-2.83634,0.6972 -5.56107,-1.07876 -7.73716,-2.47592c-3.92076,-2.51733 -6.42936,-5.59536 -11.03197,-6.84857c-5.66952,-3.05543 -10.09137,-6.96699 -15.1975,-10.80492c-2.80848,-2.11094 -5.88362,-4.30539 -6.115,-8.23375c-0.19682,-3.34152 2.5634,-6.70851 4.40092,-9.16399c2.47256,-3.30408 4.9504,-6.83585 8.45233,-9.13627c0.67977,-0.44655 1.38557,-0.85207 2.10165,-1.24285c-2.52694,0.00293 -5.05396,-0.0027 -7.58088,-0.0027c-5.44503,0 -10.89007,0 -16.33511,0c-0.19701,0 -6.00326,0.01107 -6.25184,-0.03228c-1.95577,-0.34104 -3.68285,-1.52176 -5.60892,-2.00298c-4.16443,-1.04047 -9.32696,0.11579 -13.24277,-1.57246c-2.13978,-0.92254 -3.86824,-2.8819 -5.4794,-4.48583c-2.73959,-3.10107 -3.63842,-5.41225 -4.73937,-9.33913c-2.80025,-9.988 -3.15505,-18.842 3.04207,-27.70448c0.67831,-0.97003 2.95478,-4.32768 3.80339,-5.06979c4.29805,-3.75864 9.80019,-3.39989 15.00577,-4.02347c1.91316,-0.22918 3.77759,-0.80516 5.69606,-0.98453c6.21543,-0.51355 12.5112,-0.25324 18.74636,-0.25324c3.03068,0 6.47427,-0.65673 9.35497,-0.07505c-0.13179,-0.02942 -0.50759,-0.12161 -0.62781,-0.22422c-0.6424,-0.54828 -1.17178,-1.21662 -1.76371,-1.81904c-1.90502,-1.93876 -2.65157,-2.40279 -4.04268,-4.92029c-3.97672,-7.19672 -2.10816,-14.28671 2.31434,-20.61896c4.65913,-7.31067 9.98105,-13.96486 14.90331,-21.01286l2.49854,-2.02919c0,0 2,-1.5 3.5,0.5c0.29516,0.39355 0.4548,0.76774 0.52083,1.11495z" data-paper-data="{&quot;index&quot;:null}" fill="#f11717" stroke-width="0.5"/></g></g></svg>