<svg version="1.1" xmlns="http://www.w3.org/2000/svg" xmlns:xlink="http://www.w3.org/1999/xlink" width="50" height="43.5" viewBox="0,0,50,43.5"><g transform="translate(-612.21053,-319.5133)"><g data-paper-data="{&quot;isPaintingLayer&quot;:true}" fill-rule="nonzero" stroke="none" stroke-width="1" stroke-linecap="round" stroke-linejoin="miter" stroke-miterlimit="4" stroke-dasharray="" stroke-dashoffset="0" style="mix-blend-mode: normal"><path d="M618.01053,324.5133c-0.13333,5.7 -0.26667,11.85 -0.4,18.45c-0.03333,1.56667 -0.06667,3.08333 -0.1,4.55c-0.13333,5.66667 -0.25,10.83333 -0.35,15.5h-4.95v-43.5h5.9c-0.03333,1.63333 -0.06667,3.3 -0.1,5M662.21053,363.0133h-5.4c0.03333,-1.4 0.05,-2.75 0.05,-4.05c0.06667,-2.73333 0.15,-6.55 0.25,-11.45c0,-1.86667 0.01667,-3.9 0.05,-6.1c0.03333,-3.03333 0.08333,-8.66667 0.15,-16.9c0,-1.56667 0.01667,-3.23333 0.05,-5h4.85z" fill="#1542b7"/><path d="M619.11053,319.5133c-0.03333,1.63333 -0.06667,3.3 -0.1,5c-0.06667,4.1 -0.15,8.43333 -0.25,13c-0.06667,3.23333 -0.11667,6.56667 -0.15,10c-0.03333,4.96667 -0.01667,10.13333 0.05,15.5h-1.5c0.1,-4.66667 0.21667,-9.83333 0.35,-15.5c0.03333,-1.46667 0.06667,-2.98333 0.1,-4.55c0.13333,-6.6 0.26667,-12.75 0.4,-18.45c0.03333,-1.7 0.06667,-3.36667 0.1,-5h1M657.31053,324.5133c-0.06667,8.23333 -0.11667,13.86667 -0.15,16.9c-0.03333,2.2 -0.05,4.23333 -0.05,6.1c-0.1,4.9 -0.18333,8.71667 -0.25,11.45c0,1.3 -0.01667,2.65 -0.05,4.05h-0.8c0.03333,-3.73333 0.08333,-7.11667 0.15,-10.15c0.03333,-1.46667 0.06667,-3.25 0.1,-5.35c0.03333,-3.1 0.08333,-6.91667 0.15,-11.45c0,-2.26667 0.03333,-6.11667 0.1,-11.55c0,-1.53333 0.01667,-3.2 0.05,-5h0.8c-0.03333,1.76667 -0.05,3.43333 -0.05,5z" fill="#ffffff"/><path d="M656.41053,336.0633c-0.06667,4.53333 -0.11667,8.35 -0.15,11.45c-0.03333,2.1 -0.06667,3.88333 -0.1,5.35c-0.06667,3.03333 -0.11667,6.41667 -0.15,10.15h-37.35c-0.06667,-5.36667 -0.08333,-10.53333 -0.05,-15.5c0.03333,-3.43333 0.08333,-6.76667 0.15,-10c0.1,-4.56667 0.18333,-8.9 0.25,-13c0.03333,-1.7 0.06667,-3.36667 0.1,-5h37.45c-0.03333,1.8 -0.05,3.46667 -0.05,5c-0.06667,5.43333 -0.1,9.28333 -0.1,11.55z" fill="#00ffff"/></g></g></svg>