<svg version="1.1" xmlns="http://www.w3.org/2000/svg" xmlns:xlink="http://www.w3.org/1999/xlink" width="492.7" height="531.91081" viewBox="0,0,492.7,531.91081"><g transform="translate(-453.4,-94.78919)"><g data-paper-data="{&quot;isPaintingLayer&quot;:true}" fill-rule="nonzero" stroke="none" stroke-width="1" stroke-linecap="butt" stroke-linejoin="miter" stroke-miterlimit="10" stroke-dasharray="" stroke-dashoffset="0" style="mix-blend-mode: normal"><path d="M858.3,569.35c-3.95664,1.76667 -8.37331,2.65 -13.25,2.65c-1.9,0 -3.31667,-0.15 -4.25,-0.45c-1.5,-0.53333 -2.6,-0.85 -3.3,-0.95c-0.3,0.06667 -0.53333,0.16667 -0.7,0.3c-0.06667,0.06667 -0.11667,0.13333 -0.15,0.2c0.10794,0.07201 0.35794,0.27201 0.75,0.6c-0.35339,-0.0901 -0.70339,-0.1901 -1.05,-0.3l-6.65,-2.55c-0.57617,-1.30234 -1.05951,-2.38568 -1.45,-3.25c2.35365,0.93333 4.93698,1.4 7.75,1.4c5.09076,0 9.59076,-0.96667 13.5,-2.9c2.87917,2.23737 5.8125,3.98737 8.8,5.25M818.75,557.5c1.69974,2.60456 3.66641,4.67122 5.9,6.2c0.26003,0.71549 0.71003,1.69883 1.35,2.95c-2.16484,-1.54245 -4.03151,-3.34245 -5.6,-5.4c-1.66693,-2.20169 -2.95026,-4.60169 -3.85,-7.2l-0.15,-0.5c-0.0487,-0.15937 -0.0987,-0.32604 -0.15,-0.5c0.65807,1.42409 1.49141,2.90742 2.5,4.45M862.45,570.85c0.69076,0.20247 1.37409,0.36914 2.05,0.5c-2.44089,0.97344 -5.02422,1.60677 -7.75,1.9c2.00404,-0.55208 3.90404,-1.35208 5.7,-2.4M897.65,545.05c-0.85599,2.55508 -2.30599,5.37174 -4.35,8.45c-1.01745,1.36523 -1.83411,2.46523 -2.45,3.3c-0.32487,0.01927 -0.64154,0.03594 -0.95,0.05c-0.45898,0.01979 -0.89232,0.05313 -1.3,0.1c1.59609,-3.25456 2.89609,-6.73789 3.9,-10.45c0.13359,-0.49271 0.25026,-0.97604 0.35,-1.45c0.58503,0.03333 1.21836,0.05 1.9,0.05c1.46445,0 2.43112,-0.01667 2.9,-0.05M898.3,526.85c0.78607,2.1638 1.15273,4.63047 1.1,7.4c-0.00456,0.29076 -0.02122,0.59076 -0.05,0.9c0.0082,0.15312 0.0082,0.30312 0,0.45c-0.81745,-0.26354 -1.83411,-0.46354 -3.05,-0.6c-0.8237,-0.10586 -1.5737,-0.22253 -2.25,-0.35c-0.12135,-2.89583 -0.48802,-5.64583 -1.1,-8.25l4.15,0.55c0.40443,-0.03112 0.80443,-0.06445 1.2,-0.1M876.5,554.85c0.61562,-1.23125 1.19896,-2.49792 1.75,-3.8c1.90182,-0.31758 3.88516,-0.81758 5.95,-1.5c0.14362,-0.0474 0.27695,-0.0974 0.4,-0.15c-1.06484,2.57552 -2.31484,5.02552 -3.75,7.35c-0.28698,0.46523 -0.58698,0.91523 -0.9,1.35c-3.30573,5.02656 -7.15573,8.8099 -11.55,11.35c-0.94375,-0.0306 -1.96042,-0.1806 -3.05,-0.45c3.71484,-2.79271 6.98151,-6.69271 9.8,-11.7c0.47266,-0.78737 0.92266,-1.60404 1.35,-2.45M852,555.6c1.23776,0 2.45443,-0.05 3.65,-0.15c-1.77461,2.06992 -3.77461,3.75326 -6,5.05c-0.03099,-0.00456 -0.06432,-0.02122 -0.1,-0.05c-2.22852,-1.81172 -4.26185,-3.71172 -6.1,-5.7c2.69219,0.56667 5.54219,0.85 8.55,0.85M869.7,551.45c1.1707,0.03333 2.35404,0.05 3.55,0.05c0.63255,0 1.26589,-0.03333 1.9,-0.1c-0.20156,0.49935 -0.41823,0.98268 -0.65,1.45c-0.59427,1.17943 -1.2276,2.29609 -1.9,3.35c-3.05143,5.0612 -6.75143,8.89453 -11.1,11.5c-3.02656,-1.20065 -6.1099,-2.93398 -9.25,-5.2c2.98529,-1.91849 5.56862,-4.48516 7.75,-7.7c3.25964,-0.69414 6.34297,-1.82747 9.25,-3.4c0.15651,0.02266 0.30651,0.03932 0.45,0.05M881.6,540.85c2.38242,-3.01276 4.19909,-6.19609 5.45,-9.55c0.11068,0.10807 0.21068,0.20807 0.3,0.3c0.18151,0.18151 0.34818,0.33151 0.5,0.45c0.16667,1.43255 0.25,2.89922 0.25,4.4c0,1.7 -0.53333,4.3 -1.6,7.8c-0.02018,0.06497 -0.03685,0.13164 -0.05,0.2l-0.1,0.3c-0.10794,0.31107 -0.22461,0.61107 -0.35,0.9c-0.85169,0.37448 -1.73503,0.74115 -2.65,1.1c-1.13776,0.45065 -2.43776,0.81732 -3.9,1.1c0.82539,-2.23281 1.54206,-4.56615 2.15,-7M873.65,548.6c1.35521,-1.00326 2.67188,-2.11992 3.95,-3.35c-0.3487,1.05898 -0.73203,2.09232 -1.15,3.1c-0.88216,0.11185 -1.81549,0.19518 -2.8,0.25M826,551.3c2.12786,1.46667 4.7112,2.2 7.75,2.2c1.36979,0 2.65313,-0.13333 3.85,-0.4c0.59753,0.22448 1.19753,0.42448 1.8,0.6c1.28073,1.73945 2.6974,3.42279 4.25,5.05c1.08099,1.12773 2.16432,2.17773 3.25,3.15c-3.24648,1.4 -6.91315,2.1 -11,2.1c-3.42669,0 -6.46003,-0.7 -9.1,-2.1c-0.6,-2.16263 -0.9,-4.59596 -0.9,-7.3c0,-1.15013 0.03333,-2.25013 0.1,-3.3M826.55,547.6c0.11615,-0.50182 0.23281,-0.98516 0.35,-1.45c1.40885,1.45937 3.02552,2.77604 4.85,3.95c0.18047,0.11615 0.3638,0.23281 0.55,0.35c-2.20911,-0.23685 -4.12578,-1.18685 -5.75,-2.85M824.75,545.2c-0.16992,-0.26224 -0.33659,-0.54557 -0.5,-0.85c-1.10964,-2.09596 -1.80964,-4.01263 -2.1,-5.75c0.78984,2.02174 1.82318,3.87174 3.1,5.55c-0.1806,0.35221 -0.34727,0.70221 -0.5,1.05M819.55,538.1c0.17344,2.55586 0.80677,5.03919 1.9,7.45c0.6526,1.44102 1.41927,2.67435 2.3,3.7c-0.06667,0.87969 -0.1,2.62969 -0.1,5.25c0,2.10221 0.08333,3.91888 0.25,5.45c-1.7388,-1.46081 -3.25547,-3.31081 -4.55,-5.55c-1.16667,-2.03333 -2.1,-4.3 -2.8,-6.8c-0.46667,-2.2 -0.73333,-3.4 -0.8,-3.6c-0.26341,0.19753 -0.48008,0.34753 -0.65,0.45c0.00417,-1.05208 0.0375,-2.10208 0.1,-3.15c0.93828,-0.55664 2.33828,-1.58997 4.2,-3.1c0.04974,-0.03177 0.09974,-0.0651 0.15,-0.1M820.25,527.6c0,0.89323 0.03333,1.7599 0.1,2.6c-0.43411,1.55143 -0.70078,3.1681 -0.8,4.85c-0.28919,0.1737 -0.55586,0.3237 -0.8,0.45c-1.22227,0.61602 -2.27227,1.18268 -3.15,1.7c0.33008,-2.14049 0.79674,-4.20716 1.4,-6.2c0.89193,-2.90573 2.09193,-5.6224 3.6,-8.15c-0.23333,1.46615 -0.35,3.04948 -0.35,4.75z" fill="#343545"/><path d="M737.7,585.35c1.9349,1.48932 4.6349,3.50599 8.1,6.05c-7.8181,0.70352 -14.03477,1.75352 -18.65,3.15c-6.56667,2 -10.4,5.01667 -11.5,9.05c-0.16667,0.6 -0.38333,2.2 -0.65,4.8c-0.04362,0.39935 -0.11029,0.76602 -0.2,1.1c-0.74466,-0.78633 -1.61133,-1.68633 -2.6,-2.7c-1.01224,-1.03867 -1.89557,-1.95534 -2.65,-2.75c1.41237,-1.69414 2.31237,-3.72747 2.7,-6.1c0.16667,-1.23333 1.25,-2.68333 3.25,-4.35c1.9,-1.56667 3.56667,-2.53333 5,-2.9c1.56667,-0.36667 2.81667,-0.9 3.75,-1.6c1.16667,-0.9 2.08333,-1.48333 2.75,-1.75c1.90117,-0.80143 5.46784,-1.4681 10.7,-2M716.65,519.9c-1.9151,-0.44154 -3.8151,-1.07487 -5.7,-1.9c0.07487,0.03398 0.14154,0.06732 0.2,0.1c3.66615,2.04375 7.68281,3.44375 12.05,4.2c2.57057,0.43333 5.25391,0.65 8.05,0.65c5.98841,0 11.42174,-0.68333 16.3,-2.05l9.35,1.55c-0.41745,0.26055 -0.83411,0.51055 -1.25,0.75c3.0957,0.40352 6.26237,1.27018 9.5,2.6c1.94831,0.80885 3.91497,1.77552 5.9,2.9c2.23333,1.26667 5.71667,3.68333 10.45,7.25c0,-2.06289 -0.81667,-6.16289 -2.45,-12.3c-0.3181,-1.18021 -0.6681,-2.44688 -1.05,-3.8c-1.46641,-5.19544 -2.48307,-9.29544 -3.05,-12.3c-0.25404,0.29922 -0.5207,0.58255 -0.8,0.85c-0.33893,-1.9401 -0.7556,-4.35677 -1.25,-7.25c1.98203,-1.93685 3.78203,-4.07018 5.4,-6.4c0.27461,-0.40339 0.54128,-0.80339 0.8,-1.2c0.5237,0.30039 1.09036,0.61706 1.7,0.95c1.1151,0.60404 2.28177,1.2207 3.5,1.85c-1.85013,2.66693 -3.93346,5.30026 -6.25,7.9c1.0569,3.02083 2.39023,7.57083 4,13.65c0.25768,0.98529 0.49102,1.93529 0.7,2.85c0.16484,-0.12969 0.34818,-0.24635 0.55,-0.35c0.16445,0.68424 0.33112,1.40091 0.5,2.15c0.19883,0.73815 0.39883,1.50482 0.6,2.3c-0.34258,-0.4474 -0.64258,-0.8474 -0.9,-1.2c1.66667,6.96237 2.5,11.86237 2.5,14.7c0,1.73333 -0.08333,3.01667 -0.25,3.85l-2,0.5c-5.5,-3.1 -10.4,-5.65 -14.7,-7.65c-1.40951,-0.65768 -7.84284,-3.52435 -19.3,-8.6c-0.10859,-0.04479 -0.22526,-0.09479 -0.35,-0.15c-0.13073,0.05286 -0.26406,0.10286 -0.4,0.15c-4.22643,1.66667 -8.30977,2.5 -12.25,2.5c-10.86667,0 -19.78333,-1.73333 -26.75,-5.2c-2.79258,-1.39622 -4.85924,-2.72956 -6.2,-4c-1.12604,0.55 -2.47604,1.11667 -4.05,1.7c-4.32305,1.62695 -8.72305,2.67695 -13.2,3.15c-2.12852,-2.33789 -3.99518,-4.38789 -5.6,-6.15c7.62917,-0.02513 13.52917,-0.87513 17.7,-2.55c1.17865,-0.46432 2.34531,-0.99766 3.5,-1.6l0.1,-0.1c0,-0.16667 0.05,-0.33333 0.15,-0.5c0.06523,-0.10859 0.16523,-0.20859 0.3,-0.3c1.82187,1.19466 3.42188,2.14466 4.8,2.85c2.55547,1.29648 5.2388,2.36315 8.05,3.2c1.32266,0.38073 2.67266,0.71406 4.05,1c-0.98542,-0.13151 -1.96875,-0.31484 -2.95,-0.55M816.55,554.05c0.89974,2.59831 2.18307,4.99831 3.85,7.2c1.56849,2.05755 3.43516,3.85755 5.6,5.4c1.15039,0.81302 2.38372,1.54635 3.7,2.2l6.65,2.55c0.34661,0.1099 0.69661,0.2099 1.05,0.3v0c4.54336,1.16667 9.74336,1.75 15.6,1.75c0.55286,0 1.10286,-0.01667 1.65,-0.05c0.19284,0.08464 0.37617,0.1513 0.55,0.2c0.20964,0.08255 0.40964,0.14922 0.6,0.2l1.75,0.55c0.09284,0.0444 0.17617,0.07773 0.25,0.1c4.47448,1.36289 7.55781,2.39622 9.25,3.1c-0.88555,0.33659 -1.80221,0.63659 -2.75,0.9c0.28529,0.07891 0.56862,0.16224 0.85,0.25c5.53451,1.58437 10.15117,3.50104 13.85,5.75c4.15547,2.52187 6.52214,5.15521 7.1,7.9c-2.75573,-0.15391 -5.30573,-0.30391 -7.65,-0.45c-2.525,-2.24792 -8.75833,-4.61458 -18.7,-7.1c-8.06667,-2 -12.65,-3.15 -13.75,-3.45c-2.77122,-0.84245 -4.62122,-1.62578 -5.55,-2.35c-2.89427,-0.49193 -5.59427,-1.17526 -8.1,-2.05c-1.92279,-0.67057 -3.73945,-1.45391 -5.45,-2.35c-0.41979,-0.55 -0.85313,-1.11667 -1.3,-1.7c-5.66263,-7.88958 -10.34596,-14.37292 -14.05,-19.45l5,0.6M533.65,299.15c3.00273,0.86393 6.08607,1.6806 9.25,2.45h33.6c11.53294,-2.78685 21.78294,-6.20352 30.75,-10.25c3.69453,-0.82253 7.17786,-1.77253 10.45,-2.85c0.04453,-0.00937 0.07786,-0.02604 0.1,-0.05c0.42526,-0.12617 0.84193,-0.25951 1.25,-0.4c5.14518,-1.77917 9.37852,-3.74583 12.7,-5.9c0.04935,-0.01133 0.08268,-0.02799 0.1,-0.05c1.27188,-0.80755 2.40521,-1.64089 3.4,-2.5c0.62526,0.62526 1.62526,1.52526 3,2.7c-0.74141,-0.1401 -1.47474,-0.2901 -2.2,-0.45c-1.11484,0.93307 -2.28151,1.83307 -3.5,2.7c-4.58633,3.38216 -9.73633,6.51549 -15.45,9.4c-11.16549,5.64414 -24.44883,10.36081 -39.85,14.15h-34.15c-1.38594,-1.29193 -3.08594,-2.89193 -5.1,-4.8c-1.68073,-1.58477 -3.13073,-2.9681 -4.35,-4.15M744.2,326.35c5.29049,-1.83333 10.47383,-2.75 15.55,-2.75c1.87305,0.30625 3.67305,0.60625 5.4,0.9c2.27591,0.99805 5.14258,1.53138 8.6,1.6c8.02565,1.56602 14.20898,3.08268 18.55,4.55c0.05378,-0.04948 0.10378,-0.09948 0.15,-0.15c0.08867,0.03229 0.17201,0.06563 0.25,0.1c3.72656,1.61927 6.59323,2.81927 8.6,3.6c-0.12943,0.12799 -0.27943,0.24466 -0.45,0.35c0.34961,0.19622 0.68294,0.39622 1,0.6c2.9112,1.81237 5.62786,3.96237 8.15,6.45c4.13333,4.06667 7.6,11.61667 10.4,22.65c2.14831,8.50352 3.33164,16.25352 3.55,23.25c-2.01094,2.52578 -3.74427,5.00911 -5.2,7.45c0,-6.5 -0.51667,-12.48333 -1.55,-17.95c-0.76667,-4 -2.41667,-10.38333 -4.95,-19.15c-0.53333,-1.83333 -1.85,-4.1 -3.95,-6.8c-2.73333,-3.43333 -6.1,-6.56667 -10.1,-9.4c-0.77161,-0.54857 -1.55495,-1.0819 -2.35,-1.6c-10.90091,-6.96667 -24.31758,-10.45 -40.25,-10.45c-3.27383,0 -6.55716,0.5 -9.85,1.5l-0.15,0.65c-0.09115,-0.13099 -0.19115,-0.26432 -0.3,-0.4c-1.00208,-1.25495 -1.86875,-2.40495 -2.6,-3.45c-0.47318,-0.67786 -0.88984,-1.3112 -1.25,-1.9c0.43268,0.26927 0.91602,0.5526 1.45,0.85c0.44479,-0.15286 0.87812,-0.31953 1.3,-0.5M682.8,384.15c-0.53516,1.09023 -1.10182,2.1569 -1.7,3.2c-4.89896,8.54023 -11.56563,14.67357 -20,18.4c8.95456,2.54635 15.87122,8.01302 20.75,16.4c2.33333,3.96667 4.05,8.36667 5.15,13.2c0.73333,3.16667 1.1,5.75 1.1,7.75c0,9 -1.75,16.5 -5.25,22.5c-0.59401,1.01289 -1.22734,1.97956 -1.9,2.9c-1.49935,-0.79401 -3.43268,-1.74401 -5.8,-2.85c1.12214,-1.31615 2.12214,-2.74948 3,-4.3c2.63333,-4.66667 3.95,-10.8 3.95,-18.4c0,-7.2 -2.33333,-13.43333 -7,-18.7c-5.33203,-6.06172 -13.46536,-10.36172 -24.4,-12.9c-0.78333,-0.51263 -1.58333,-1.0293 -2.4,-1.55c-1.62852,-1.05182 -3.31185,-2.11849 -5.05,-3.2c1.31719,-0.67982 2.98385,-1.57982 5,-2.7c1.03073,-0.56536 2.13073,-1.18203 3.3,-1.85c10.05768,-2.52982 17.85768,-8.16315 23.4,-16.9c0.6638,-1.05469 1.29714,-2.15469 1.9,-3.3c0.83503,-1.59661 1.58503,-3.21328 2.25,-4.85c0.41888,0.08789 0.83555,0.17122 1.25,0.25c2.34245,0.43242 4.42578,0.94909 6.25,1.55c-0.09648,0.07292 -0.19648,0.13958 -0.3,0.2c-0.64036,0.35286 -1.15703,0.6362 -1.55,0.85c-0.59271,1.46628 -1.24271,2.89961 -1.95,4.3M835.7,509.05c-3.33607,1.66068 -6.40273,3.82734 -9.2,6.5c-0.51029,0.48789 -1.01029,0.98789 -1.5,1.5c-0.76458,0.83516 -1.49792,1.70182 -2.2,2.6c-0.78229,1.03763 -1.51562,2.1043 -2.2,3.2c-1.50807,2.5276 -2.70807,5.24427 -3.6,8.15c-0.94414,-0.3987 -1.96081,-0.83203 -3.05,-1.3c-2.4237,-1.03359 -4.44036,-1.91693 -6.05,-2.65c1.37969,0.39362 2.54635,0.77695 3.5,1.15c2.16133,-6.36406 5.82799,-11.9474 11,-16.75c0.64089,-0.59531 1.29089,-1.17865 1.95,-1.75c1.01732,-0.8237 2.05065,-1.60703 3.1,-2.35c1.6112,0.42292 3.5112,0.83958 5.7,1.25c0.91888,0.16432 1.76888,0.31432 2.55,0.45M665.4,550.45c2.47656,1.49935 5.49323,2.79935 9.05,3.9c2.8,0.86667 7.25,1.91667 13.35,3.15c4.76667,0.96667 7.7,1.78333 8.8,2.45c-0.33333,0.26667 -0.81667,0.7 -1.45,1.3c-0.66667,0.46667 -1.51667,0.7 -2.55,0.7c-4.04818,0 -7.83151,-0.25 -11.35,-0.75c-1.29336,0.32943 -2.92669,0.62943 -4.9,0.9c-6.27018,0.63724 -11.50352,1.18724 -15.7,1.65c0.08867,-0.41745 0.18867,-0.85078 0.3,-1.3c0.37969,-1.29557 0.69635,-2.39557 0.95,-3.3c0.05508,-0.17526 0.10508,-0.34193 0.15,-0.5c2.24453,-0.18255 4.6112,-0.38255 7.1,-0.6c-2.05208,-0.81471 -3.96875,-1.76471 -5.75,-2.85c-0.03216,0.07878 -0.08216,0.16211 -0.15,0.25c0.61979,-1.44115 1.23646,-2.87448 1.85,-4.3c0.10534,-0.23971 0.20534,-0.47305 0.3,-0.7M674.05,527.5c1.84857,-0.49466 4.6319,-1.09466 8.35,-1.8c8.17448,2.65495 19.94115,7.95495 35.3,15.9c0.98815,0.44648 1.87148,0.89648 2.65,1.35c2.15625,1.29896 6.28958,2.36563 12.4,3.2c1.21615,-0.54974 2.83281,-1.03307 4.85,-1.45c4.83333,-1.03333 10.33333,-1.31667 16.5,-0.85c6.73333,0.53333 12.23333,1.88333 16.5,4.05c5,2.5 7.5,5.81667 7.5,9.95c0,4.36667 -1.65,8.15 -4.95,11.35c-5.33333,5.16667 -14.35,7.75 -27.05,7.75c-5,0 -9.11667,0.75 -12.35,2.25c-1.86667,0.86667 -4.26667,2.53333 -7.2,5c-2.86667,2.43333 -5.45,4.16667 -7.75,5.2c-3.73333,1.63333 -8.46667,2.56667 -14.2,2.8c-0.06667,0.1 -0.95,2.53333 -2.65,7.3c-1.3026,3.56927 -2.68594,6.71927 -4.15,9.45c-0.80573,0.39076 -1.6224,0.72409 -2.45,1c-1.98568,0.62565 -4.26901,0.99232 -6.85,1.1c1.01419,-1.46862 1.88086,-3.06862 2.6,-4.8c0.66667,-1.83333 1,-2.76667 1,-2.8c2.33333,-5.1 4.21667,-8.68333 5.65,-10.75c2.4,-3.43333 6.26667,-5.76667 11.6,-7c6.03333,-1.4 11.08333,-3.68333 15.15,-6.85c2.03333,-1.7 3.53333,-2.93333 4.5,-3.7c1.73333,-1.36667 3.43333,-2.43333 5.1,-3.2c1.83333,-0.83333 5.11667,-1.45 9.85,-1.85c8.2,-0.7 12.4,-1.06667 12.6,-1.1c10.36667,-1.33333 15.55,-4.96667 15.55,-10.9c0,-1.73333 -0.56667,-3.01667 -1.7,-3.85c-1.16667,-0.86667 -3.18333,-1.46667 -6.05,-1.8c-1.82852,-0.21771 -6.84518,-0.36771 -15.05,-0.45c-1.95612,0.96667 -4.02279,1.45 -6.2,1.45c-2.4888,0 -5.40547,-0.31667 -8.75,-0.95c-0.55117,0.3 -1.30117,0.45 -2.25,0.45c-1.74036,-0.73151 -3.49036,-1.46484 -5.25,-2.2c-2.83906,-0.76523 -5.90573,-1.69857 -9.2,-2.8c-8.9388,-2.97956 -14.32214,-5.49622 -16.15,-7.55c-15.56953,-6.27031 -25.96953,-10.12031 -31.2,-11.55c1.06523,-0.50872 2.31523,-0.95872 3.75,-1.35M638.5,587.55c1.51615,0.43333 3.18281,0.65 5,0.65c8.6,0 15.91667,-1.66667 21.95,-5c2.76667,-1.66667 4.78333,-2.81667 6.05,-3.45c2.13333,-1.03333 4.25,-1.55 6.35,-1.55c1.16667,0 1.9,0.06667 2.2,0.2c0.23333,0.1 0.41667,0.36667 0.55,0.8c-0.9,1.36667 -1.58333,2.31667 -2.05,2.85c-1.62018,1.95091 -3.62018,3.71758 -6,5.3c-1.08555,2.32109 -2.75221,5.43776 -5,9.35c-4.13255,7.19258 -6.31589,12.42591 -6.55,15.7c-2.61979,0.10612 -4.45312,0.17279 -5.5,0.2c0,-0.05365 0,-0.10365 0,-0.15c0,-4.23333 1.9,-9.61667 5.7,-16.15c0.87799,-1.53646 1.81133,-3.06979 2.8,-4.6c-5.91068,2.16667 -12.82734,3.25 -20.75,3.25c-4.45885,0 -8.19219,-0.93333 -11.2,-2.8c2.29076,-1.58242 4.44076,-3.11576 6.45,-4.6M669.8,326.2c-3.78542,-3.00938 -7.98542,-5.17604 -12.6,-6.5c-5.04687,-1.4457 -10.59688,-1.86237 -16.65,-1.25c-11.53333,1.2 -21.28333,5.78333 -29.25,13.75c-2.45443,2.44518 -4.57109,5.06185 -6.35,7.85c-3.6875,5.83255 -5.90417,12.41589 -6.65,19.75c-0.3862,0.25039 -0.7862,0.50039 -1.2,0.75c-2.96862,1.78112 -5.18529,3.26445 -6.65,4.45c-0.19974,-0.16211 -0.39974,-0.32878 -0.6,-0.5c-1.24805,-1.08776 -2.66471,-2.37109 -4.25,-3.85c-2.54609,-3.32878 -6.04609,-8.26211 -10.5,-14.8c-1.05065,-1.5388 -2.05065,-3.00547 -3,-4.4c-2.05898,-3.00872 -3.87565,-5.65872 -5.45,-7.95c3.11667,2.91172 6.03333,5.64505 8.75,8.2c2.77904,2.6069 5.36237,5.04023 7.75,7.3c3.98997,3.80417 7.23997,6.95417 9.75,9.45c0.71914,-6.25885 2.43581,-12.05885 5.15,-17.4c2.40677,-4.71393 5.5901,-9.06393 9.55,-13.05c1.17135,-1.17565 2.37135,-2.29232 3.6,-3.35c-3.55,-1.08177 -8.33333,-2.78177 -14.35,-5.1c-11.23333,-4.3 -18.85,-7.7 -22.85,-10.2c3.74284,0.31563 7.50951,0.78229 11.3,1.4c4.59974,0.77383 9.23307,1.77383 13.9,3c1.39466,0.36654 2.72799,0.7332 4,1.1c2.59935,0.78711 4.96602,1.58711 7.1,2.4c1.80951,0.72917 3.45951,1.4625 4.95,2.2c0.58268,0.31432 1.13268,0.61432 1.65,0.9c1.39987,-0.88073 2.81654,-1.71406 4.25,-2.5c4.66003,-2.41641 9.66003,-4.16641 15,-5.25c1.52318,-0.27669 3.07318,-0.51003 4.65,-0.7c1.10078,-0.13411 2.18411,-0.23411 3.25,-0.3c6.36706,-0.43268 12.21706,0.23398 17.55,2c-0.69922,-0.66576 -1.48255,-1.41576 -2.35,-2.25c2.29154,0.94284 4.32487,1.80951 6.1,2.6c2.04779,0.93802 3.76445,1.78802 5.15,2.55c4.19583,2.31797 7.59583,4.93464 10.2,7.85c0.37266,0.42214 0.72266,0.8388 1.05,1.25c-0.23333,0.5 -2.55,2.31667 -6.95,5.45c-0.02279,-0.02721 -0.05612,-0.06055 -0.1,-0.1c-1.43607,-1.71471 -3.0694,-3.29805 -4.9,-4.75M665,169.55c-0.4974,-1.41237 -1.03073,-2.86237 -1.6,-4.35c-5.23333,-13.7 -11.2,-22.56667 -17.9,-26.6c-3.53333,-2.16667 -8.61667,-5.78333 -15.25,-10.85c-5.8,-4.46667 -11.38333,-8.18333 -16.75,-11.15c-0.5875,-0.32865 -1.1875,-0.66198 -1.8,-1c-10.58633,-5.57201 -23.11966,-9.28867 -37.6,-11.15c-5.65547,-0.71797 -10.7388,-1.0513 -15.25,-1c-0.39167,-1.58568 -0.85833,-3.43568 -1.4,-5.55c-0.25573,-0.9901 -0.50573,-1.9401 -0.75,-2.85c0.77474,-0.13281 1.47474,-0.21615 2.1,-0.25c3.16667,-0.13333 11.98333,0.96667 26.45,3.3c11.4,3.73333 20.56667,7.23333 27.5,10.5c3.11979,1.44349 7.01979,3.72682 11.7,6.85c2.04479,1.34154 4.22812,2.84154 6.55,4.5c10.86667,7.83333 17.03333,12.21667 18.5,13.15c8.37487,5.48581 15.07487,14.86914 20.1,28.15c-1.82865,3.25898 -3.36198,6.02565 -4.6,8.3z" fill="#210c2a"/><path d="M774.95,507.55c0.56693,3.00456 1.58359,7.10456 3.05,12.3c0.3819,1.35312 0.7319,2.61979 1.05,3.8c1.63333,6.13711 2.45,10.23711 2.45,12.3c-4.73333,-3.56667 -8.21667,-5.98333 -10.45,-7.25c-1.98503,-1.12448 -3.95169,-2.09115 -5.9,-2.9c-3.23763,-1.32982 -6.4043,-2.19648 -9.5,-2.6c0.41589,-0.23945 0.83255,-0.48945 1.25,-0.75c4.87565,-2.95951 9.92565,-6.94284 15.15,-11.95c0.71927,-0.68997 1.41927,-1.38997 2.1,-2.1c0.2793,-0.26745 0.54596,-0.55078 0.8,-0.85M793.95,280.75c5.86667,4.86667 8.8,11.46667 8.8,19.8c0,3.07214 -0.33333,5.87214 -1,8.4c-0.55156,2.23047 -1.36823,4.24714 -2.45,6.05c-4.43333,7.4 -12.7,11.1 -24.8,11.1c-0.25,0 -0.5,0 -0.75,0c-3.45742,-0.06862 -6.32409,-0.60195 -8.6,-1.6c-0.6043,-0.26081 -1.17096,-0.56081 -1.7,-0.9c-1.83333,-1.8 -2.96667,-2.83333 -3.4,-3.1c-2.3,-1.13333 -3.86667,-1.95 -4.7,-2.45c-1.33333,-0.8 -2.43333,-1.98333 -3.3,-3.55c-2.13333,-3.8 -3.9,-6.78333 -5.3,-8.95c-0.3,-0.7 -0.45,-2.96667 -0.45,-6.8c0,-0.64401 0.01667,-1.27734 0.05,-1.9c0.45521,-6.84701 3.37188,-12.36367 8.75,-16.55c5.33333,-4.16667 11.81667,-6.21667 19.45,-6.15c7.66667,0.06667 14.13333,2.26667 19.4,6.6M750,300c0.26667,-0.3 0.55,-0.76667 0.85,-1.4c-0.55365,0.70117 -1.10365,1.35117 -1.65,1.95c0.31797,-0.13789 0.58464,-0.32122 0.8,-0.55M914.1,582.75c-1.33333,2.63333 -3.36667,3.95 -6.1,3.95c-2.7,0 -10.23333,-2.5 -22.6,-7.5c-3.31745,-1.34492 -6.21745,-2.51159 -8.7,-3.5c-1.1543,-0.46367 -2.22096,-0.89701 -3.2,-1.3c4.82096,-2.97643 8.9543,-7.17643 12.4,-12.6c0.34701,0.33633 0.74701,0.71966 1.2,1.15c2.48646,-0.16146 4.88646,-0.07812 7.2,0.25c4.84831,0.7112 9.31497,2.5112 13.4,5.4c1.01576,0.7237 1.93242,1.4237 2.75,2.1c3.26667,2.8375 4.9,5.47083 4.9,7.9c-0.13034,1.40169 -0.53034,2.75169 -1.2,4.05c-0.01784,0.03724 -0.03451,0.07057 -0.05,0.1M721.6,442.6c-2.5,-0.96667 -4.65,-4.25 -6.45,-9.85c-1.53333,-4.7 -2.3,-8.88333 -2.3,-12.55c0,-3.46667 0.58333,-6.16667 1.75,-8.1c2.03333,0.96667 4.23333,4.75 6.6,11.35c2.1,5.73333 3.15,9.56667 3.15,11.5c0,2.43333 -0.91667,4.98333 -2.75,7.65M764.35,391.35c4.23333,0.93333 7.43333,3.93333 9.6,9c1.6,3.73333 2.4,7.65 2.4,11.75c0,0.13333 -0.06667,1.71667 -0.2,4.75c-0.7,3 -2.38333,4.5 -5.05,4.5c-1.86667,0 -3.78333,-3.48333 -5.75,-10.45c-1.66667,-5.9 -2.5,-10.05 -2.5,-12.45c0,-1.73333 0.5,-4.1 1.5,-7.1M933.1,541.1c0,-1.57812 -0.45,-3.61146 -1.35,-6.1c0.93503,0.75104 1.65169,1.36771 2.15,1.85c4.13333,3.9 6.2,9.31667 6.2,16.25c0.5,2.5 0.16667,4.93333 -1,7.3c-2.26667,4.7 -7.46667,7.05 -15.6,7.05c-1.34948,0 -3.54948,-0.11667 -6.6,-0.35c-0.49219,-0.49128 -1.02552,-0.97461 -1.6,-1.45c-0.48398,-0.40091 -0.98398,-0.80091 -1.5,-1.2c5.62109,-1.05247 10.23776,-3.95247 13.85,-8.7c3.63333,-4.76667 5.45,-9.65 5.45,-14.65M909.4,525.1c0.05299,0.04219 0.10299,0.07552 0.15,0.1c0.46029,0.52656 1.11029,1.04323 1.95,1.55c1.16667,0.66667 3.28333,1.7 6.35,3.1c2.53008,1.2582 4.53008,2.62487 6,4.1c2.16667,2.15221 3.25,4.53555 3.25,7.15c0,3 -1.48333,6.36667 -4.45,10.1c-4,5 -9.18333,7.5 -15.55,7.5c-0.1418,0 -0.27513,0 -0.4,0c-1.41003,0.04049 -2.34336,0.27383 -2.8,0.7h-0.05c-0.40534,-0.12578 -0.82201,-0.25911 -1.25,-0.4c-1.20417,-0.40143 -2.37083,-0.75143 -3.5,-1.05c0.66367,-0.90247 1.28034,-1.98581 1.85,-3.25c0.63294,-1.38021 1.19961,-2.98021 1.7,-4.8c0.07253,-0.20755 0.13919,-0.42422 0.2,-0.65c0.14414,-0.54036 0.27747,-1.0737 0.4,-1.6c1.06667,-4.36914 1.6,-8.35247 1.6,-11.95c0,-4.5 -0.11667,-7.3 -0.35,-8.4c-0.09375,-0.41836 -0.21042,-0.81836 -0.35,-1.2c1.81784,-0.27227 3.56784,-0.6056 5.25,-1M934.3,499.9c-1.5,3.23333 -3.56667,6.21667 -6.2,8.95c-4.90885,5.06159 -10.97552,8.46159 -18.2,10.2c-0.37539,0.10703 -0.75872,0.19036 -1.15,0.25c-2.52018,0.56042 -5.18685,0.91042 -8,1.05c-1.06198,0.06667 -2.14531,0.1 -3.25,0.1c-0.92318,0 -1.83984,-0.03333 -2.75,-0.1c-1.07448,-0.07174 -2.14115,-0.18841 -3.2,-0.35c-0.26302,-0.04961 -0.51302,-0.09961 -0.75,-0.15c-0.47292,-1.06445 -1.00625,-2.09779 -1.6,-3.1c-1.53477,-2.68242 -3.45143,-5.11576 -5.75,-7.3c2.31706,-0.25833 4.76706,-0.825 7.35,-1.7c5.14427,-1.68997 10.8276,-4.55664 17.05,-8.6c0.78268,-0.50026 1.56602,-1.01693 2.35,-1.55c2.93333,-2 6.85,-4.75 11.75,-8.25c3.76667,-2.5 6.45,-3.75 8.05,-3.75c1.53333,0 3,1.25 4.4,3.75c1.13333,2.03333 1.7,3.53333 1.7,4.5c0,1.46667 -0.6,3.48333 -1.8,6.05M632.05,583.5c-2.03333,-2.36667 -3.05,-4.88333 -3.05,-7.55c0,-5.73333 9.35,-9.66667 28.05,-11.8c1.09818,-0.12552 2.29818,-0.25885 3.6,-0.4c4.19648,-0.46276 9.42982,-1.01276 15.7,-1.65c1.97331,-0.27057 3.60664,-0.57057 4.9,-0.9c3.51849,0.5 7.30182,0.75 11.35,0.75c1.03333,0 1.88333,-0.23333 2.55,-0.7c0.63333,-0.6 1.11667,-1.03333 1.45,-1.3c-1.1,-0.66667 -4.03333,-1.48333 -8.8,-2.45c-6.1,-1.23333 -10.55,-2.28333 -13.35,-3.15c-3.55677,-1.10065 -6.57344,-2.40065 -9.05,-3.9c-5.6,-3.41536 -8.4,-7.86536 -8.4,-13.35c-0.1,-1.6 0.23333,-3.13333 1,-4.6c1.53333,-2.86667 4.53333,-4.3 9,-4.3c0.64271,0 1.74271,0.21667 3.3,0.65c5.23047,1.42969 15.63047,5.27969 31.2,11.55c1.82786,2.05378 7.2112,4.57044 16.15,7.55c3.29427,1.10143 6.36094,2.03477 9.2,2.8c1.75964,0.73516 3.50964,1.46849 5.25,2.2c0.94883,0 1.69883,-0.15 2.25,-0.45c3.34453,0.63333 6.2612,0.95 8.75,0.95c2.17721,0 4.24388,-0.48333 6.2,-1.45c8.20482,0.08229 13.22148,0.23229 15.05,0.45c2.86667,0.33333 4.88333,0.93333 6.05,1.8c1.13333,0.83333 1.7,2.11667 1.7,3.85c0,5.93333 -5.18333,9.56667 -15.55,10.9c-0.2,0.03333 -4.4,0.4 -12.6,1.1c-4.73333,0.4 -8.01667,1.01667 -9.85,1.85c-1.66667,0.76667 -3.36667,1.83333 -5.1,3.2c-0.96667,0.76667 -2.46667,2 -4.5,3.7c-4.06667,3.16667 -9.11667,5.45 -15.15,6.85c-5.33333,1.23333 -9.2,3.56667 -11.6,7c-1.43333,2.06667 -3.31667,5.65 -5.65,10.75c0,0.03333 -0.33333,0.96667 -1,2.8c-0.71914,1.73138 -1.58581,3.33138 -2.6,4.8c-0.23216,0.37839 -0.48216,0.74505 -0.75,1.1c-4.16667,5.7 -9.58333,8.55 -16.25,8.55c-2.5,0 -4.9,-0.91667 -7.2,-2.75c-0.44674,-0.35195 -0.84674,-0.70195 -1.2,-1.05c0.1,-0.32552 0.15,-0.67552 0.15,-1.05c0,-0.25807 -0.75,-1.07474 -2.25,-2.45c0,-0.14688 0,-0.29687 0,-0.45c0,-0.17331 0,-0.35664 0,-0.55c0.23411,-3.27409 2.41745,-8.50742 6.55,-15.7c2.24779,-3.91224 3.91445,-7.02891 5,-9.35c2.37982,-1.58242 4.37982,-3.34909 6,-5.3c0.46667,-0.53333 1.15,-1.48333 2.05,-2.85c-0.13333,-0.43333 -0.31667,-0.7 -0.55,-0.8c-0.3,-0.13333 -1.03333,-0.2 -2.2,-0.2c-2.1,0 -4.21667,0.51667 -6.35,1.55c-1.26667,0.63333 -3.28333,1.78333 -6.05,3.45c-6.03333,3.33333 -13.35,5 -21.95,5c-1.81719,0 -3.48385,-0.21667 -5,-0.65c-2.60898,-0.71302 -4.75898,-2.06302 -6.45,-4.05M590.5,441.4c0,-4.36667 2.03333,-9.5 6.1,-15.4c4.86667,-7.1 10.58333,-10.98333 17.15,-11.65l14.75,0.1c1.56667,0.53333 2.5,1.03333 2.8,1.5c0.16667,0.26667 0.73333,0.4 1.7,0.4c0.23333,0 0.98333,-0.1 2.25,-0.3c0.84036,-0.15078 1.6737,-0.25078 2.5,-0.3c2.56432,0.44336 4.64766,0.82669 6.25,1.15c0.10156,0.06445 0.20156,0.13112 0.3,0.2c0.16667,0 0.5,0.06667 1,0.2v-0.1c0.75612,0.25208 2.70612,0.90208 5.85,1.95c3.12096,1.03073 5.42096,1.61406 6.9,1.75c3.57917,1.67109 6.47917,3.40443 8.7,5.2c3.16667,2.56667 5.28333,5.15 6.35,7.75c0.83333,1.96667 1.25,4.68333 1.25,8.15c0,5.16667 -1.16667,9.73333 -3.5,13.7c-4.76667,8.16667 -13.6,12.25 -26.5,12.25c-7.93333,0 -16.85,-1.2 -26.75,-3.6c-9.16667,-2.23333 -15.4,-4.48333 -18.7,-6.75c-2.06667,-1.43333 -4.01667,-4.08333 -5.85,-7.95c-1.7,-3.53333 -2.55,-6.28333 -2.55,-8.25M566.05,318.35c4.58424,1.71536 10.66758,3.7487 18.25,6.1c8.53932,2.65326 13.98932,4.16992 16.35,4.55c-1.93763,2.58346 -3.6543,4.93346 -5.15,7.05c-1.5651,2.20326 -2.78177,4.05326 -3.65,5.55c-1.03034,1.83229 -1.56367,3.16562 -1.6,4c-0.94349,-0.18503 -2.52682,-1.41836 -4.75,-3.7c-1.77083,-1.80716 -3.95417,-4.29049 -6.55,-7.45c-2.96068,-3.59518 -7.26068,-8.96185 -12.9,-16.1M634.75,294.85c0,2.9 -0.66667,5.5 -2,7.8c-1.73333,2.96667 -4.23333,4.45 -7.5,4.45c-0.63333,0 -1.28333,-0.16667 -1.95,-0.5c-1.03333,-0.5 -1.55,-1.25 -1.55,-2.25c0,-0.63333 2.08333,-3.31667 6.25,-8.05c2.7832,-3.16172 4.6332,-5.96172 5.55,-8.4c0.8,2.95443 1.2,5.27109 1.2,6.95M606,209.45c-0.33333,1.2 -0.5,2 -0.5,2.4c-3,0.33333 -6.43333,-4.21667 -10.3,-13.65c-3.46667,-8.4 -5.2,-14.35 -5.2,-17.85c0,-1.03333 0.18333,-2.03333 0.55,-3c0.23333,-0.53333 0.55,-1.28333 0.95,-2.25c3.43333,0.63333 6.86667,4.9 10.3,12.8c3.13333,7.26667 4.7,13.38333 4.7,18.35c0,0.93333 -0.16667,2 -0.5,3.2M655.85,325.1c7.16667,3.06667 11.96667,6.65 14.4,10.75c0.10872,0.14701 0.20872,0.29701 0.3,0.45c2.31224,3.20091 3.96224,6.61758 4.95,10.25c0.83333,3.1 1.25,6.66667 1.25,10.7c0,11 -4.23333,20.2 -12.7,27.6c-4.80247,4.18073 -9.83581,7.01406 -15.1,8.5c-2.91003,0.83333 -5.89336,1.25 -8.95,1.25c-13.26667,0 -23.05,-4.9 -29.35,-14.7c-2.06667,-3.23333 -3.63333,-6.8 -4.7,-10.7c-0.7,-2.63333 -1.05,-4.7 -1.05,-6.2c0,-7.66667 1.96667,-14.7 5.9,-21.1c0.74128,-1.21536 1.54128,-2.38203 2.4,-3.5c4.83815,-6.31523 11.57148,-11.19857 20.2,-14.65c5.29805,-2.15143 11.18138,-2.28477 17.65,-0.4c1.57721,0.4776 3.17721,1.06094 4.8,1.75M621.15,317.85c-1.43346,0.78594 -2.85013,1.61927 -4.25,2.5c-0.51732,-0.28568 -1.06732,-0.58568 -1.65,-0.9v-1.85c0,-0.04909 0.03333,-0.84909 0.1,-2.4c0.62344,-0.06667 1.25677,-0.1 1.9,-0.1c1.86667,0 2.9,0.1 3.1,0.3c0.1418,0.1418 0.40846,0.95846 0.8,2.45M644.25,307.6c0,2.26667 -0.05,3.56667 -0.15,3.9l-0.05,0.1c-1.06589,0.06589 -2.14922,0.16589 -3.25,0.3c-1.57682,0.18997 -3.12682,0.42331 -4.65,0.7c1.19466,-1.61706 2.29466,-3.63372 3.3,-6.05c1,-2.36667 1.93333,-5.01667 2.8,-7.95c1.33333,3.93333 2,6.93333 2,9M693.25,292c10.66667,1.5 17.28333,2.53333 19.85,3.1c2.25091,0.48477 6.43424,1.23477 12.55,2.25c0.36914,0.62305 0.75247,1.27305 1.15,1.95c0.51706,0.87148 1.05039,1.78815 1.6,2.75c-2.44674,-0.46393 -4.84674,-0.9306 -7.2,-1.4c-8.19245,-1.55534 -15.67578,-3.03867 -22.45,-4.45c-4.59427,-0.94961 -8.91094,-1.93294 -12.95,-2.95c-6.91133,-1.72083 -12.97799,-3.5375 -18.2,-5.45c4.49023,0.86914 7.12357,1.38581 7.9,1.55c0.93867,0.18776 4.95534,0.78776 12.05,1.8c1.71536,0.26706 3.61536,0.55039 5.7,0.85M640.75,205.85c-2.06667,-2.4 -4.3,-6.03333 -6.7,-10.9c-2.7,-5.5 -4.05,-9.65 -4.05,-12.45c0,-1.26667 0.01667,-2.05 0.05,-2.35c0.06667,-0.33333 0.21667,-0.68333 0.45,-1.05c3.93333,1.93333 7.23333,6.06667 9.9,12.4c2.46667,5.8 3.41667,10.66667 2.85,14.6l-2.5,-0.25M670.25,195.1c0,2.13216 -0.1,4.31549 -0.3,6.55c-0.42917,1.05352 -0.89583,2.22018 -1.4,3.5c-1.78945,4.48229 -3.57279,8.53229 -5.35,12.15c-1.62135,3.31445 -3.23802,6.26445 -4.85,8.85c-12.6,19.96667 -30.66667,29.95 -54.2,29.95c-10.95391,0 -23.60391,-3.85 -37.95,-11.55c-1.85859,-0.96549 -3.74193,-2.01549 -5.65,-3.15c-0.4763,-0.95951 -0.94297,-1.85951 -1.4,-2.7c5.3944,3.98294 11.22773,7.18294 17.5,9.6c6.63333,2.53333 12.83333,3.8 18.6,3.8c9.23333,0 16.51667,-2.9 21.85,-8.7c4.39466,-4.78646 6.77799,-10.80313 7.15,-18.05c1.94505,2.14479 4.42839,4.16146 7.45,6.05c4.5,2.8 8.35,4.2 11.55,4.2c5.96667,0 10.8,-4 14.5,-12c3,-6.43333 4.5,-12.93333 4.5,-19.5c0,-5.53333 -0.45,-9.61667 -1.35,-12.25c-0.73333,-2.13333 -2.78333,-5.88333 -6.15,-11.25c-0.21341,-0.33984 -0.46341,-0.70651 -0.75,-1.1c-0.64753,-2.36484 -1.39753,-4.84818 -2.25,-7.45c-3.86667,-11.8 -7.78333,-20.11667 -11.75,-24.95c-3.43333,-7.26667 -7.68333,-12.55 -12.75,-15.85c-4.66667,-3.06667 -9.36667,-4.06667 -14.1,-3c-4.7,1.1 -8.51667,4.03333 -11.45,8.8c-2.43672,4.01797 -3.93672,8.83464 -4.5,14.45c-1.82096,-2.56354 -4.57096,-5.18021 -8.25,-7.85c-7.46667,-5.36667 -15.8,-8.93333 -25,-10.7c-10.3,-1.93333 -18.66667,-0.81667 -25.1,3.35c-7.63333,4.96667 -11.45,13.78333 -11.45,26.45c0,2.6 0.88333,7.41667 2.65,14.45c1.89531,7.65898 4.29531,14.84232 7.2,21.55c0,0.46901 0,0.83568 0,1.1c0,10.06276 3.33333,19.22943 10,27.5c1.05469,2.60898 2.13802,5.20898 3.25,7.8c-1.82969,-1.21458 -3.67969,-2.48125 -5.55,-3.8c-0.2862,-0.20273 -0.5862,-0.4194 -0.9,-0.65c-3.47409,-8.89049 -7.27409,-16.70716 -11.4,-23.45c-2.66667,-4.43333 -4.8,-7.05 -6.4,-7.85c-1.73333,-0.9 -2.6,0.5 -2.6,4.2c2.79857,6.10326 5.6819,12.31992 8.65,18.65c-0.53268,-0.38685 -1.08268,-0.78685 -1.65,-1.2c-1.84661,-2.34974 -4.07995,-4.66641 -6.7,-6.95c-5.03333,-4.36667 -10.06667,-7.35 -15.1,-8.95c-5.6,-1.83333 -10.06667,-1.5 -13.4,1c-3.86667,2.9 -5.8,8.46667 -5.8,16.7c0,4.46667 0.1,7.31667 0.3,8.55c0.43333,2.43333 1.66667,5.83333 3.7,10.2c0.66393,1.4543 1.6806,3.08763 3.05,4.9c0.41224,0.69753 0.82891,1.38086 1.25,2.05c-5.23698,-2.21693 -10.13698,-4.86693 -14.7,-7.95c-12.07383,-8.1556 -20.02383,-17.9056 -23.85,-29.25c0,-0.5707 0,-1.15404 0,-1.75c0,-9.96667 1.08333,-19.48333 3.25,-28.55c2.66667,-11.33333 6.83333,-20.81667 12.5,-28.45c2.49792,-3.36563 5.28125,-6.73229 8.35,-10.1c4.73711,-5.15247 10.15378,-10.30247 16.25,-15.45c15.46667,-13.03333 29.35,-19.76667 41.65,-20.2c4.25117,-2.17747 10.06784,-3.31081 17.45,-3.4c4.5112,-0.0513 9.59453,0.28203 15.25,1c14.48034,1.86133 27.01367,5.57799 37.6,11.15c0.6125,0.33802 1.2125,0.67135 1.8,1c5.36667,2.96667 10.95,6.68333 16.75,11.15c6.63333,5.06667 11.71667,8.68333 15.25,10.85c6.7,4.03333 12.66667,12.9 17.9,26.6c0.56927,1.48763 1.1026,2.93763 1.6,4.35c3.5,10.0306 5.25,18.54727 5.25,25.55z" fill="#ffffff"/><path d="M774.15,508.4c-0.68073,0.71003 -1.38073,1.41003 -2.1,2.1c-5.22435,5.00716 -10.27435,8.99049 -15.15,11.95l-9.35,-1.55c5.80534,-1.61224 10.83867,-4.17891 15.1,-7.7c4.06667,-3.36667 7.43333,-7.31667 10.1,-11.85c0.05951,-0.05846 0.10951,-0.12513 0.15,-0.2c0.4944,2.89323 0.91107,5.3099 1.25,7.25M631.4,620.95c1.10964,0.02656 1.39297,0.34323 0.85,0.95c-0.56667,0.63333 -0.85,0.31667 -0.85,-0.95M749.2,300.55c0.54635,-0.59883 1.09635,-1.24883 1.65,-1.95c-0.3,0.63333 -0.58333,1.1 -0.85,1.4c-0.21536,0.22878 -0.48203,0.41211 -0.8,0.55M654,179.5c2.33333,8.27513 3.5,15.10846 3.5,20.5c0,5.16667 -0.83333,10.23333 -2.5,15.2c-0.47396,1.41536 -0.99063,2.6987 -1.55,3.85c-2.30807,4.6526 -5.37474,7.08594 -9.2,7.3h-6c-1.57617,-0.96641 -3.17617,-2.06641 -4.8,-3.3c-5.49974,-4.1263 -11.31641,-9.74297 -17.45,-16.85c1,3.76693 1.5,6.31693 1.5,7.65c0,4.82839 -0.73333,9.22839 -2.2,13.2c-0.31654,0.87995 -0.66654,1.72995 -1.05,2.55c-4,8.5 -11,12.75 -21,12.75c-5.71875,0 -11.11875,-0.8 -16.2,-2.4c-9.33164,-2.87826 -17.59831,-8.42826 -24.8,-16.65c1.39661,5.08307 2.64661,8.34974 3.75,9.8c0.90482,1.36354 1.95482,3.23021 3.15,5.6c0.45703,0.84049 0.9237,1.74049 1.4,2.7c1.90807,1.13451 3.79141,2.18451 5.65,3.15c14.34609,7.7 26.99609,11.55 37.95,11.55c23.53333,0 41.6,-9.98333 54.2,-29.95c1.61198,-2.58555 3.22865,-5.53555 4.85,-8.85c1.77721,-3.61771 3.56055,-7.66771 5.35,-12.15c0.50417,-1.27982 0.97083,-2.44648 1.4,-3.5c0.2,-2.23451 0.3,-4.41784 0.3,-6.55c0,-7.00273 -1.75,-15.5194 -5.25,-25.55c1.23802,-2.27435 2.77135,-5.04102 4.6,-8.3c0.13398,0.37031 0.26732,0.73698 0.4,1.1c4.16667,11.46667 6.25,22.46667 6.25,33c0,6.5694 -0.6,13.48607 -1.8,20.75c-0.40469,2.42227 -0.87135,4.87227 -1.4,7.35c-1.28203,5.91732 -4.46536,13.38398 -9.55,22.4c0.16667,0.30247 0.25,0.80247 0.25,1.5c0,2.56667 -2.25,6.36667 -6.75,11.4c-1.31589,1.4707 -2.73255,2.93737 -4.25,4.4c-0.77266,1.16497 -1.57266,2.34831 -2.4,3.55c-2.65742,3.85286 -5.79076,7.4862 -9.4,10.9c6.22187,1.0582 18.23854,3.14154 36.05,6.25c3.82995,0.67266 8.67995,1.40599 14.55,2.2c7.9194,1.10117 17.68607,2.31784 29.3,3.65c0.72253,0.08203 1.45586,0.16536 2.2,0.25c1.68841,0.24023 3.28841,0.47357 4.8,0.7c0.83151,-1.97995 2.56484,-4.37995 5.2,-7.2c4.06667,-4.3 8.95,-8.11667 14.65,-11.45c15.16667,-8.8 28.8,-10.26667 40.9,-4.4c8.3,3.33333 14.55,9.51667 18.75,18.55c3.16667,6.83333 4.75,13.9 4.75,21.2c0,2.28151 -0.4,4.94818 -1.2,8c-0.59531,2.35794 -1.42865,4.94128 -2.5,7.75c-2.04661,5.37487 -4.41328,9.07487 -7.1,11.1c-2.00677,-0.78073 -4.87344,-1.98073 -8.6,-3.6c-0.07799,-0.03438 -0.16133,-0.06771 -0.25,-0.1c-0.04622,0.05052 -0.09622,0.10052 -0.15,0.15c-4.34102,-1.46732 -10.52435,-2.98398 -18.55,-4.55c0.25,0 0.5,0 0.75,0c12.1,0 20.36667,-3.7 24.8,-11.1c1.08177,-1.80286 1.89844,-3.81953 2.45,-6.05c0.66667,-2.52786 1,-5.32786 1,-8.4c0,-8.33333 -2.93333,-14.93333 -8.8,-19.8c-5.26667,-4.33333 -11.73333,-6.53333 -19.4,-6.6c-7.63333,-0.06667 -14.11667,1.98333 -19.45,6.15c-5.37812,4.18633 -8.29479,9.70299 -8.75,16.55c-0.03333,0.62266 -0.05,1.25599 -0.05,1.9c0,3.83333 0.15,6.1 0.45,6.8c1.4,2.16667 3.16667,5.15 5.3,8.95c0.86667,1.56667 1.96667,2.75 3.3,3.55c0.83333,0.5 2.4,1.31667 4.7,2.45c0.43333,0.26667 1.56667,1.3 3.4,3.1c0.52904,0.33919 1.0957,0.63919 1.7,0.9c-1.72695,-0.29375 -3.52695,-0.59375 -5.4,-0.9c-5.07617,0 -10.25951,0.91667 -15.55,2.75c-0.42187,0.18047 -0.85521,0.34714 -1.3,0.5c-0.53398,-0.2974 -1.01732,-0.58073 -1.45,-0.85c0.36016,0.5888 0.77682,1.22214 1.25,1.9c0.73125,1.04505 1.59792,2.19505 2.6,3.45c0.10885,0.13568 0.20885,0.26901 0.3,0.4v0.1l-0.5,0.5c-0.33333,0.33333 -1,0.5 -2,0.5c-0.52708,0 -1.06042,-0.05 -1.6,-0.15c-1.60898,0.73893 -3.22565,1.58893 -4.85,2.55c-1.30065,0.79297 -2.60065,1.65964 -3.9,2.6c-3.53333,2.76667 -6.05,4.65 -7.55,5.65c-2.37305,1.6237 -4.40638,2.49036 -6.1,2.6c-0.12161,0 -0.23828,0 -0.35,0c-1.03333,0 -2.15,-0.81667 -3.35,-2.45c-2.2,-3.03333 -3.58333,-4.83333 -4.15,-5.4c-4.93333,-5.26667 -12.51667,-7.9 -22.75,-7.9c-0.31523,0 -0.66523,0.03333 -1.05,0.1l-0.35,0.3c-0.29674,0.20781 -0.86341,0.32448 -1.7,0.35c-0.22031,0.08997 -0.45365,0.18997 -0.7,0.3c-0.39154,0.17552 -0.7582,0.32552 -1.1,0.45c3.66667,6.8026 5.5,15.0526 5.5,24.75c0,5.11094 -0.55,10.0276 -1.65,14.75c1.77409,-0.54714 3.80742,-0.89714 6.1,-1.05c8.37799,-0.53346 16.41133,1.51654 24.1,6.15c0.48958,0.29115 0.97292,0.59115 1.45,0.9c2.5,1.86667 5.5,5.1 9,9.7c1.45573,1.91888 2.6224,3.58555 3.5,5c0.01432,-7.67747 0.63099,-14.52747 1.85,-20.55c1.65742,-7.93021 4.37409,-14.39688 8.15,-19.4c6,-7.96667 13.33333,-10.85 22,-8.65c5.20781,1.30195 9.92448,4.16862 14.15,8.6c2.8388,2.9832 5.45547,6.64987 7.85,11c6.18607,11.2276 9.50273,24.81094 9.95,40.75c0.03333,1.26445 0.05,2.53112 0.05,3.8c0,10.33333 -0.98333,18.83333 -2.95,25.5c-4.46667,15 -13.15,22.5 -26.05,22.5c-11.03333,0 -20.05,-4.5 -27.05,-13.5c-1.27578,-1.63164 -2.44245,-3.34831 -3.5,-5.15c0.03333,0.58307 0.05,1.13307 0.05,1.65c0,2.46667 -0.53333,5.76667 -1.6,9.9c-1.43333,5.43333 -3.4,10.4 -5.9,14.9c-7.26667,12.96667 -17.55,19.45 -30.85,19.45c-6.36667,0 -12.01667,-1.91667 -16.95,-5.75c-1.52617,-1.16888 -2.89284,-2.45221 -4.1,-3.85c-0.93216,0.86302 -1.91549,1.66302 -2.95,2.4c0.1349,0.6901 0.2849,1.47344 0.45,2.35c1.3,4.56667 4.93333,6.85 10.9,6.85c10.20352,0 23.72018,-2.41667 40.55,-7.25c0.66888,-0.17214 1.33555,-0.35547 2,-0.55c11.76667,-3.43333 22.83333,-7.25 33.2,-11.45c4.34766,-1.76745 8.59766,-3.40078 12.75,-4.9c2.19167,-0.79674 4.34167,-1.56341 6.45,-2.3c0.49479,-0.14349 0.97813,-0.29349 1.45,-0.45c4.93333,-1.63333 7.71667,-2.63333 8.35,-3c1,-0.6 1.41667,-1.66667 1.25,-3.2c-0.19909,-1.53984 -0.36576,-2.88984 -0.5,-4.05c-0.16667,-1.76406 -0.25,-3.0974 -0.25,-4c0,-1.03333 0.05,-1.78333 0.15,-2.25l0.1,-0.35l0.5,-0.35c0.33333,-0.26667 1,-0.4 2,-0.4c0.38138,0 0.71471,0.06667 1,0.2c0.36497,0.17174 0.66497,0.43841 0.9,0.8c0.4,0.66667 1.01667,1 1.85,1c1.8,0 3.58333,-0.06667 5.35,-0.2c2.33333,-0.2 3.55,-0.46667 3.65,-0.8c-1.26667,-1.5 -2.8,-3.73333 -4.6,-6.7c-1.45508,-2.41484 -2.75508,-4.76484 -3.9,-7.05c-0.08125,-0.16003 -0.16458,-0.32669 -0.25,-0.5c0.10508,-0.01784 0.20508,-0.03451 0.3,-0.05c3.04844,-0.35586 6.23177,1.54414 9.55,5.7c3.1,3.9 4.65,7.21667 4.65,9.95c0,0.2 0.05,0.65 0.15,1.35c-0.03333,0.66667 -0.36667,1.25 -1,1.75c-1.39505,1.07122 -4.34505,1.77122 -8.85,2.1c-1.49701,0.10807 -3.18034,0.17474 -5.05,0.2c0.16667,0.5 0.4,1.13333 0.7,1.9c0.2,0.66667 0.3,1.53333 0.3,2.6c0,3.83333 -5.28333,8.01667 -15.85,12.55c-1.74831,0.75417 -4.68164,1.85417 -8.8,3.3c-1.53307,1.85378 -3.79974,4.37044 -6.8,7.55c-7.2,7.6 -12.13333,13.58333 -14.8,17.95c-2.5,4.43333 -5.76667,9.08333 -9.8,13.95c-7.1,8.53333 -13.16667,12.8 -18.2,12.8c-1.34779,0 -2.68112,-0.08333 -4,-0.25c-1.37734,-0.28594 -2.72734,-0.61927 -4.05,-1c-2.8112,-0.83685 -5.49453,-1.90352 -8.05,-3.2c-1.37812,-0.70534 -2.97813,-1.65534 -4.8,-2.85c0.12682,-0.03346 0.26016,-0.0668 0.4,-0.1c-0.57786,-0.45755 -1.1612,-0.94089 -1.75,-1.45c-1.39935,-1.17682 -2.78268,-2.47682 -4.15,-3.9c-5.61536,-5.87188 -9.3987,-11.62188 -11.35,-17.25c-0.03737,0 -0.0707,0 -0.1,0c-3.50365,0 -6.47031,-0.51667 -8.9,-1.55c-2.70977,-1.11914 -4.7431,-2.88581 -6.1,-5.3c-0.65573,-1.16146 -1.13906,-2.51146 -1.45,-4.05c-0.99401,1.07917 -2.24401,2.29583 -3.75,3.65c-3.8,3.4 -6.56667,5.65 -8.3,6.75c-4.36667,0.2 -7.1,-0.08333 -8.2,-0.85c-0.36667,-0.26667 -0.55,-1.01667 -0.55,-2.25c0,-0.86667 0.05,-1.76667 0.15,-2.7c0.01315,-0.19089 0.01315,-0.37422 0,-0.55c-2.19479,0.16667 -4.49479,0.25 -6.9,0.25c-20.00182,0 -35.73516,-3.71667 -47.2,-11.15c0.45612,0.68034 0.97279,1.41367 1.55,2.2c1.23333,1.7 2.91667,3.93333 5.05,6.7c3.13333,4.96667 6.51667,7.48333 10.15,7.55c0.96667,0.03333 3.13333,-0.16667 6.5,-0.6c3.53333,-0.46667 6.73333,-0.7 9.6,-0.7c1.43333,0 3.38333,1.58333 5.85,4.75c4.23333,5.4 7.1,8.88333 8.6,10.45c9.86667,10.1 22.78333,15.15 38.75,15.15c0.1151,0 0.23177,0 0.35,0c1.60482,1.76211 3.47148,3.81211 5.6,6.15c4.47695,-0.47305 8.87695,-1.52305 13.2,-3.15c1.57396,-0.58333 2.92396,-1.15 4.05,-1.7c1.34076,1.27044 3.40742,2.60378 6.2,4c6.96667,3.46667 15.88333,5.2 26.75,5.2c3.94023,0 8.02357,-0.83333 12.25,-2.5c0.13594,-0.04714 0.26927,-0.09714 0.4,-0.15c0.12474,0.05521 0.24141,0.10521 0.35,0.15c11.45716,5.07565 17.89049,7.94232 19.3,8.6c4.3,2 9.2,4.55 14.7,7.65l2,-0.5c0.16667,-0.83333 0.25,-2.11667 0.25,-3.85c0,-2.83763 -0.83333,-7.73763 -2.5,-14.7c0.25742,0.3526 0.55742,0.7526 0.9,1.2c-0.20117,-0.79518 -0.40117,-1.56185 -0.6,-2.3c-0.16888,-0.74909 -0.33555,-1.46576 -0.5,-2.15c-0.20182,0.10365 -0.38516,0.22031 -0.55,0.35c-0.20898,-0.91471 -0.44232,-1.86471 -0.7,-2.85c-1.60977,-6.07917 -2.9431,-10.62917 -4,-13.65c2.31654,-2.59974 4.39987,-5.23307 6.25,-7.9c-1.21823,-0.6293 -2.3849,-1.24596 -3.5,-1.85c-0.60964,-0.33294 -1.1763,-0.64961 -1.7,-0.95c1.2401,-1.96979 2.20677,-3.86979 2.9,-5.7c0.99648,-2.75937 2.12982,-4.55938 3.4,-5.4c0.44518,-0.88841 1.87852,-1.45508 4.3,-1.7c3.37747,-0.33776 6.37747,-0.85443 9,-1.55c1.27422,-0.32227 2.45755,-0.68893 3.55,-1.1c0.06667,-0.03333 1.48333,-0.98333 4.25,-2.85c2.76667,-1.83333 4.26667,-2.8 4.5,-2.9c2.76667,-0.96667 5.25,-2.96667 7.45,-6c1.23333,-1.7 2.75,-4.2 4.55,-7.5c1.13333,-1.9 2.45,-6.23333 3.95,-13c1.53333,-6.8 2.3,-11.85 2.3,-15.15c0,-4.16667 -0.78333,-8 -2.35,-11.5c-1.05,-2.40013 -2.85,-5.4168 -5.4,-9.05c0.00924,0.07383 0.00924,0.14049 0,0.2c-0.33333,0.33333 -1.5,0.5 -3.5,0.5c0,-1.86667 0.13333,-4.83333 0.4,-8.9c0.23333,-4.03333 0.35,-6.36667 0.35,-7c1.45573,-2.44089 3.18906,-4.92422 5.2,-7.45c0.03333,0.83268 0.05,1.64935 0.05,2.45c0,1.16667 -0.28333,4.06667 -0.85,8.7c-0.19883,1.55378 -0.39883,3.07044 -0.6,4.55c1.87852,0.37747 3.52852,1.61081 4.95,3.7c0.43333,0.66667 1.26667,2.11667 2.5,4.35c0.96667,1.8 1.8,3.08333 2.5,3.85c1.43333,3.33333 2.3,6.13333 2.6,8.4c0.1,0.8 0.15,3.11667 0.15,6.95c0,2.9 -0.85,8.36667 -2.55,16.4c-1.66667,7.7 -2.9,12.36667 -3.7,14c-1.76667,3.23333 -5.75,7.78333 -11.95,13.65c-2.24714,2.11654 -4.38047,3.9332 -6.4,5.45c-5.21185,3.93333 -9.67852,5.9 -13.4,5.9c-2.25091,0 -4.93424,-0.15 -8.05,-0.45c0.03333,0.26315 0.05,0.52982 0.05,0.8c0,1.13424 -0.5,2.66758 -1.5,4.6c0.22956,0.0625 0.46289,0.12917 0.7,0.2c1.4,0.43333 3.76667,1.21667 7.1,2.35c3.06667,0.96667 5.63333,1.63333 7.7,2c1.79883,0.58203 3.48216,1.11536 5.05,1.6c4.3681,1.36263 7.85143,2.36263 10.45,3c3.56185,0.83802 7.71185,1.62135 12.45,2.35c1.34232,0.23034 2.72565,0.44701 4.15,0.65c4.95273,-2.15677 10.3694,-3.45677 16.25,-3.9c10.12201,-0.73346 18.87201,1.26654 26.25,6c0.5819,-0.15391 1.19857,-0.32057 1.85,-0.5c2.94596,-0.95273 5.9793,-2.03607 9.1,-3.25c5.18906,-2.03398 10.6224,-4.43398 16.3,-7.2c0.4026,-0.19766 0.8026,-0.41432 1.2,-0.65c1.47995,-0.8474 3.01328,-1.9474 4.6,-3.3c1.16667,-1 2.91667,-2.53333 5.25,-4.6c4.6,-3.66667 10.25,-5.81667 16.95,-6.45c3.16667,1.1 5.56667,3.51667 7.2,7.25c1.2,2.7 1.8,5.31667 1.8,7.85c0,7.1 -3.45,13.71667 -10.35,19.85c-2.7638,2.45664 -5.8638,4.57331 -9.3,6.35c-1.02409,0.51953 -2.07409,1.00286 -3.15,1.45c2.21536,1.1487 4.6487,2.68203 7.3,4.6c0.44896,0.32318 0.88229,0.72318 1.3,1.2c0.1349,0.05716 0.25156,0.10716 0.35,0.15c1.42839,0.49974 3.02839,1.16641 4.8,2c5.46667,2.6 8.56667,4.73333 9.3,6.4c2.2,5.46667 3.38333,8.63333 3.55,9.5c0.13333,0.6 0.2,3.06667 0.2,7.4c0,3.33333 -0.01667,5.15 -0.05,5.45c-0.2,2.7 -0.83333,5.01667 -1.9,6.95c-3.13333,5.63333 -9.98333,8.45 -20.55,8.45c-0.94674,0 -1.84674,-0.03333 -2.7,-0.1c0.13333,0.67161 0.2,1.33828 0.2,2c0,4.5 -0.48333,7.88333 -1.45,10.15c-0.76589,1.73945 -1.81589,3.13945 -3.15,4.2c-2.09948,1.66667 -4.89948,2.5 -8.4,2.5c-5.66667,0 -11.13333,-1.23333 -16.4,-3.7c-4.63333,-2.7 -7.41667,-4.3 -8.35,-4.8c-4.16667,-1.5 -7.71667,-2.9 -10.65,-4.2c-1.49531,-0.64974 -2.82865,-1.29974 -4,-1.95c-0.38672,-0.22305 -0.77005,-0.45638 -1.15,-0.7c-0.14531,0.07839 -0.31198,0.14505 -0.5,0.2c-1.69219,-0.70378 -4.77552,-1.73711 -9.25,-3.1c-0.07383,-0.02227 -0.15716,-0.0556 -0.25,-0.1l-1.75,-0.55c-0.19036,-0.05078 -0.39036,-0.11745 -0.6,-0.2c-0.17383,-0.0487 -0.35716,-0.11536 -0.55,-0.2c-0.54714,0.03333 -1.09714,0.05 -1.65,0.05c-5.85664,0 -11.05664,-0.58333 -15.6,-1.75v0c-0.39206,-0.32799 -0.64206,-0.52799 -0.75,-0.6c0.03333,-0.06667 0.08333,-0.13333 0.15,-0.2c0.16667,-0.13333 0.4,-0.23333 0.7,-0.3c0.7,0.1 1.8,0.41667 3.3,0.95c0.93333,0.3 2.35,0.45 4.25,0.45c4.87669,0 9.29336,-0.88333 13.25,-2.65c-2.9875,-1.26263 -5.92083,-3.01263 -8.8,-5.25c-3.90924,1.93333 -8.40924,2.9 -13.5,2.9c-2.81302,0 -5.39635,-0.46667 -7.75,-1.4c0.39049,0.86432 0.87383,1.94766 1.45,3.25c-1.31628,-0.65365 -2.54961,-1.38698 -3.7,-2.2c-0.63997,-1.25117 -1.08997,-2.23451 -1.35,-2.95c-2.23359,-1.52878 -4.20026,-3.59544 -5.9,-6.2c-1.00859,-1.54258 -1.84193,-3.02591 -2.5,-4.45c0.0513,0.17396 0.1013,0.34063 0.15,0.5l0.15,0.5l-5,-0.6c3.70404,5.07708 8.38737,11.56042 14.05,19.45c0.44688,0.58333 0.88021,1.15 1.3,1.7c1.71055,0.89609 3.52721,1.67943 5.45,2.35c2.50573,0.87474 5.20573,1.55807 8.1,2.05c0.92878,0.72422 2.77878,1.50755 5.55,2.35c1.1,0.3 5.68333,1.45 13.75,3.45c9.94167,2.48542 16.175,4.85208 18.7,7.1c2.34427,0.14609 4.89427,0.29609 7.65,0.45c0.1,0.44648 0.15,0.89648 0.15,1.35c0,7.53333 -9,13.28333 -27,17.25c-12.13333,2.66667 -23.63333,4 -34.5,4c-18.13333,0 -28.33333,-0.16667 -30.6,-0.5c-1.23333,-0.2 -2.16667,-0.56667 -2.8,-1.1c-1.13333,-1 -2.08333,-1.71667 -2.85,-2.15c-1.54206,-0.79766 -2.64206,-1.59766 -3.3,-2.4c-0.81641,-0.36523 -1.38307,-0.81523 -1.7,-1.35c-0.16667,-0.3 -0.25,-0.91667 -0.25,-1.85c0,-1.85469 1.35,-3.70469 4.05,-5.55c1.28932,-1.56667 2.60599,-2.35 3.95,-2.35v0c3.08737,-1.87057 4.83737,-3.28724 5.25,-4.25c-0.2,-0.6 -1.2,-1.26667 -3,-2c-4.36667,0.26667 -8.63333,0.46667 -12.8,0.6c-8.3,0.3 -12.45,-0.06667 -12.45,-1.1c0,-0.17969 0.01667,-0.34635 0.05,-0.5c-8.58451,0.09414 -16.08451,0.41081 -22.5,0.95c-3.4651,-2.54401 -6.1651,-4.56068 -8.1,-6.05c-5.23216,0.5319 -8.79883,1.19857 -10.7,2c-0.66667,0.26667 -1.58333,0.85 -2.75,1.75c-0.93333,0.7 -2.18333,1.23333 -3.75,1.6c-1.43333,0.36667 -3.1,1.33333 -5,2.9c-2,1.66667 -3.08333,3.11667 -3.25,4.35c-0.38763,2.37253 -1.28763,4.40586 -2.7,6.1c0.75443,0.79466 1.63776,1.71133 2.65,2.75c0.98867,1.01367 1.85534,1.91367 2.6,2.7c-0.21914,1.31055 -0.60247,2.34388 -1.15,3.1c-2,2.73333 -7.63333,4.1 -16.9,4.1c-1.03333,0 -2.1,-0.03333 -3.2,-0.1l-0.8,-0.1c-3.49974,4.14349 -7.54974,7.02682 -12.15,8.65c-2.93854,1.03333 -6.10521,1.55 -9.5,1.55c-6.03333,0 -10.4,-2 -13.1,-6c-0.08815,-0.13216 -0.17148,-0.26549 -0.25,-0.4c-0.0526,-0.08294 -0.1026,-0.16628 -0.15,-0.25c-0.19388,0.02799 -0.39388,0.04466 -0.6,0.05c-4.3651,0.56458 -12.89844,0.84792 -25.6,0.85l-0.05,-0.05c-0.21224,-0.12813 -2.52891,-0.14479 -6.95,-0.05c-6.16667,0.16667 -11.28333,0.11667 -15.35,-0.15c-14.93333,-0.96667 -22.4,-4.71667 -22.4,-11.25c0,-1.94232 1.03333,-3.99232 3.1,-6.15c0.76068,-0.7707 1.64401,-1.55404 2.65,-2.35c3.43333,-2.73333 7.91667,-5.25 13.45,-7.55c5.36667,-2.23333 10.56667,-3.8 15.6,-4.7c2.25729,-0.40664 4.27396,-0.63997 6.05,-0.7c-0.4388,-0.62708 -0.85547,-1.29375 -1.25,-2c-1.83333,-3.3 -2.75,-6.81667 -2.75,-10.55c0,-3.4 0.7,-6 2.1,-7.8c1.56667,-2.06667 4.4,-3.71667 8.5,-4.95c4.09844,-1.22747 11.6651,-2.41081 22.7,-3.55c-0.03333,-0.39818 -0.05,-1.04818 -0.05,-1.95c0,-1.43333 0.56667,-3.06667 1.7,-4.9c0.11992,-0.20091 0.23659,-0.40091 0.35,-0.6c-4.86667,-4.34063 -7.3,-9.12396 -7.3,-14.35c0,-8.47773 3.55,-13.31107 10.65,-14.5c-8.9875,-2.22331 -16.72083,-6.20664 -23.2,-11.95c-5.26667,-4.66667 -9.11667,-9.85 -11.55,-15.55c-1.03333,0.06667 -2.4,0.21667 -4.1,0.45c-1.36667,0.2 -2.5,0.3 -3.4,0.3c-9.53333,0 -17.61667,-4.33333 -24.25,-13c-2.3,-2.96667 -4.2,-6.18333 -5.7,-9.65c-1.10794,-2.5543 -1.70794,-4.38763 -1.8,-5.5c-0.56107,-0.5168 -1.11107,-1.05013 -1.65,-1.6c-4.03333,-4.1 -7.01667,-8.71667 -8.95,-13.85c-1.36667,-3.63333 -2.05,-6.9 -2.05,-9.8c0,-6.96667 1.66667,-13.38333 5,-19.25c3.03333,-5.3 7.15,-9.68333 12.35,-13.15c1.60326,-1.07969 3.23659,-2.02969 4.9,-2.85c-4.14883,-0.2332 -8.31549,-0.5832 -12.5,-1.05c-11.16667,-1.26667 -16.75,-2.95 -16.75,-5.05c0,-1.66667 3.66667,-8.66667 11,-21c0.98763,-1.60352 1.92096,-3.08685 2.8,-4.45c0.81354,-1.24505 1.58021,-2.39505 2.3,-3.45c-2.69206,-2.5306 -6.04206,-6.49727 -10.05,-11.9c-4.56159,-6.1138 -9.24492,-13.03047 -14.05,-20.75c-0.24831,-0.39271 -0.49831,-0.79271 -0.75,-1.2c-0.34167,-0.54102 -4.125,-5.12435 -11.35,-13.75c-1.60482,-1.49336 -3.38815,-3.14336 -5.35,-4.95c-7.96953,-7.65182 -12.7862,-13.00182 -14.45,-16.05c-10.37526,-3.45508 -19.64193,-7.27174 -27.8,-11.45c-16.01484,-8.18229 -27.71484,-17.71562 -35.1,-28.6c-5.16667,-7.63333 -8.65,-16.46667 -10.45,-26.5c-1.23333,-6.76667 -1.85,-16 -1.85,-27.7c0,-22.05208 4.76667,-41.36875 14.3,-57.95c3.77435,-6.56393 8.29102,-12.69727 13.55,-18.4c16.73333,-18.16667 38.98333,-30.13333 66.75,-35.9c3.53359,-1.16953 6.43359,-1.9362 8.7,-2.3c0.24427,0.9099 0.49427,1.8599 0.75,2.85c0.54167,2.11432 1.00833,3.96432 1.4,5.55c-7.38216,0.08919 -13.19883,1.22253 -17.45,3.4c-12.3,0.43333 -26.18333,7.16667 -41.65,20.2c-6.09622,5.14753 -11.51289,10.29753 -16.25,15.45c-3.06875,3.36771 -5.85208,6.73438 -8.35,10.1c-5.66667,7.63333 -9.83333,17.11667 -12.5,28.45c-2.16667,9.06667 -3.25,18.58333 -3.25,28.55c0,0.59596 0,1.1793 0,1.75c0.06979,9.7457 0.68646,17.77904 1.85,24.1c1.8,9.63333 5.16667,18.13333 10.1,25.5c6.99896,10.49857 17.69896,19.39857 32.1,26.7c8.72682,4.42878 18.79349,8.26211 30.2,11.5c1.21927,1.1819 2.66927,2.56523 4.35,4.15c2.01406,1.90807 3.71406,3.50807 5.1,4.8h34.15c15.40117,-3.78919 28.68451,-8.50586 39.85,-14.15c5.71367,-2.88451 10.86367,-6.01784 15.45,-9.4c1.21849,-0.86693 2.38516,-1.76693 3.5,-2.7c0.72526,0.1599 1.45859,0.3099 2.2,0.45c-1.37474,-1.17474 -2.37474,-2.07474 -3,-2.7c-0.99479,0.85911 -2.12812,1.69245 -3.4,2.5c-0.01732,0.02201 -0.05065,0.03867 -0.1,0.05c-3.32148,2.15417 -7.55482,4.12083 -12.7,5.9c-0.40807,0.14049 -0.82474,0.27383 -1.25,0.4c-0.02214,0.02396 -0.05547,0.04062 -0.1,0.05c-3.27214,1.07747 -6.75547,2.02747 -10.45,2.85c1.03333,-0.45156 2.05,-0.91823 3.05,-1.4c-5.45937,1.76667 -10.64271,2.65 -15.55,2.65c-10.64805,0 -21.08138,-1.15 -31.3,-3.45c-0.06849,0.08034 -0.13516,0.16367 -0.2,0.25c-4.13333,5.46667 -8.46667,8.2 -13,8.2c-1.9,0 -3.1,-0.6 -3.6,-1.8c-0.16667,-0.36667 -0.25,-1.05 -0.25,-2.05c0,-1.81719 1.76667,-4.41719 5.3,-7.8c-4.23047,-1.33932 -8.3138,-2.85599 -12.25,-4.55c-0.73424,0.51667 -1.53424,1.06667 -2.4,1.65c-6,4.03333 -9.21667,6.05 -9.65,6.05c-1.26667,0 -2.26667,-0.78333 -3,-2.35c-0.5,-1.06667 -0.75,-1.95 -0.75,-2.65c0,-1.4349 2.58333,-3.61823 7.75,-6.55c-3.46185,-1.82656 -6.79518,-3.8099 -10,-5.95c-0.58568,-0.39102 -1.16901,-0.79102 -1.75,-1.2c-8.99219,-6.26094 -16.05885,-13.29427 -21.2,-21.1c-0.16393,-0.24727 -0.3306,-0.49727 -0.5,-0.75c-0.42109,-0.66914 -0.83776,-1.35247 -1.25,-2.05c-1.3694,-1.81237 -2.38607,-3.4457 -3.05,-4.9c-2.03333,-4.36667 -3.26667,-7.76667 -3.7,-10.2c-0.2,-1.23333 -0.3,-4.08333 -0.3,-8.55c0,-8.23333 1.93333,-13.8 5.8,-16.7c3.33333,-2.5 7.8,-2.83333 13.4,-1c5.03333,1.6 10.06667,4.58333 15.1,8.95c2.62005,2.28359 4.85339,4.60026 6.7,6.95c0.56732,0.41315 1.11732,0.81315 1.65,1.2c-2.9681,-6.33008 -5.85143,-12.54674 -8.65,-18.65c0,-3.7 0.86667,-5.1 2.6,-4.2c1.6,0.8 3.73333,3.41667 6.4,7.85c4.12591,6.74284 7.92591,14.55951 11.4,23.45c0.3138,0.2306 0.6138,0.44727 0.9,0.65c1.87031,1.31875 3.72031,2.58542 5.55,3.8c-1.11198,-2.59102 -2.19531,-5.19102 -3.25,-7.8c-1.24245,-3.07448 -2.44245,-6.15781 -3.6,-9.25c0,-0.96667 0.01667,-1.46667 0.05,-1.5c0.2,-0.2 0.35,-0.45 0.45,-0.75c0.92188,-0.10534 1.77188,-0.03867 2.55,0.2c-2.40013,-3.53359 -4.6668,-7.43359 -6.8,-11.7c-0.91393,-1.82786 -1.79727,-3.69453 -2.65,-5.6c-2.90469,-6.70768 -5.30469,-13.89102 -7.2,-21.55c-1.76667,-7.03333 -2.65,-11.85 -2.65,-14.45c0,-12.66667 3.81667,-21.48333 11.45,-26.45c6.43333,-4.16667 14.8,-5.28333 25.1,-3.35c9.2,1.76667 17.53333,5.33333 25,10.7c3.67904,2.66979 6.42904,5.28646 8.25,7.85c0.56328,-5.61536 2.06328,-10.43203 4.5,-14.45c2.93333,-4.76667 6.75,-7.7 11.45,-8.8c4.73333,-1.06667 9.43333,-0.06667 14.1,3c5.06667,3.3 9.31667,8.58333 12.75,15.85c3.96667,4.83333 7.88333,13.15 11.75,24.95c0.85247,2.60182 1.60247,5.08516 2.25,7.45M643.25,206.1c0.56667,-3.93333 -0.38333,-8.8 -2.85,-14.6c-2.66667,-6.33333 -5.96667,-10.46667 -9.9,-12.4c-0.23333,0.36667 -0.38333,0.71667 -0.45,1.05c-0.03333,0.3 -0.05,1.08333 -0.05,2.35c0,2.8 1.35,6.95 4.05,12.45c2.4,4.86667 4.63333,8.5 6.7,10.9l2.5,0.25M687.55,291.15c-7.09466,-1.01224 -11.11133,-1.61224 -12.05,-1.8c-0.77643,-0.16419 -3.40977,-0.68086 -7.9,-1.55c5.22201,1.9125 11.28867,3.72917 18.2,5.45c4.03906,1.01706 8.35573,2.00039 12.95,2.95c6.77422,1.41133 14.25755,2.89466 22.45,4.45c2.35326,0.4694 4.75326,0.93607 7.2,1.4c-0.54961,-0.96185 -1.08294,-1.87852 -1.6,-2.75c-0.39753,-0.67695 -0.78086,-1.32695 -1.15,-1.95c-6.11576,-1.01523 -10.29909,-1.76523 -12.55,-2.25c-2.56667,-0.56667 -9.18333,-1.6 -19.85,-3.1c-2.08464,-0.29961 -3.98464,-0.58294 -5.7,-0.85M642.25,298.6c-0.86667,2.93333 -1.8,5.58333 -2.8,7.95c-1.00534,2.41628 -2.10534,4.43294 -3.3,6.05c-5.33997,1.08359 -10.33997,2.83359 -15,5.25c-0.39154,-1.49154 -0.6582,-2.3082 -0.8,-2.45c-0.2,-0.2 -1.23333,-0.3 -3.1,-0.3c-0.64323,0 -1.27656,0.03333 -1.9,0.1c-1.82943,0.29375 -3.51276,0.97708 -5.05,2.05c-2.13398,-0.81289 -4.50065,-1.61289 -7.1,-2.4c0.50599,-0.06784 1.00599,-0.15117 1.5,-0.25c6.03333,-1.2 9.05,-3.2 9.05,-6c0,-0.83333 -0.66667,-1.33333 -2,-1.5h-3.25c-1.83333,0 -6.28333,0.66667 -13.35,2c-4.21484,0.79154 -7.49818,1.34154 -9.85,1.65c-3.79049,-0.61771 -7.55716,-1.08437 -11.3,-1.4c4,2.5 11.61667,5.9 22.85,10.2c6.01667,2.31823 10.8,4.01823 14.35,5.1c-1.22865,1.05768 -2.42865,2.17435 -3.6,3.35c-3.9599,3.98607 -7.14323,8.33607 -9.55,13.05c-2.71419,5.34115 -4.43086,11.14115 -5.15,17.4c-2.51003,-2.49583 -5.76003,-5.64583 -9.75,-9.45c-2.38763,-2.25977 -4.97096,-4.6931 -7.75,-7.3c-2.71667,-2.55495 -5.63333,-5.28828 -8.75,-8.2c1.57435,2.29128 3.39102,4.94128 5.45,7.95c0.94935,1.39453 1.94935,2.8612 3,4.4c4.45391,6.53789 7.95391,11.47122 10.5,14.8c1.58529,1.47891 3.00195,2.76224 4.25,3.85c0.20026,0.17122 0.40026,0.33789 0.6,0.5c1.46471,-1.18555 3.68138,-2.66888 6.65,-4.45c0.4138,-0.24961 0.8138,-0.49961 1.2,-0.75c0.74583,-7.33411 2.9625,-13.91745 6.65,-19.75c1.77891,-2.78815 3.89557,-5.40482 6.35,-7.85c7.96667,-7.96667 17.71667,-12.55 29.25,-13.75c6.05313,-0.61237 11.60313,-0.1957 16.65,1.25c4.61458,1.32396 8.81458,3.49062 12.6,6.5c1.8306,1.45195 3.46393,3.03529 4.9,4.75c0.04388,0.03945 0.07721,0.07279 0.1,0.1c4.4,-3.13333 6.71667,-4.95 6.95,-5.45c-0.32734,-0.4112 -0.67734,-0.82786 -1.05,-1.25c-2.60417,-2.91536 -6.00417,-5.53203 -10.2,-7.85c-1.38555,-0.76198 -3.10221,-1.61198 -5.15,-2.55c-1.77513,-0.79049 -3.80846,-1.65716 -6.1,-2.6c0.86745,0.83424 1.65078,1.58424 2.35,2.25c-5.33294,-1.76602 -11.18294,-2.43268 -17.55,-2l0.05,-0.1c0.1,-0.33333 0.15,-1.63333 0.15,-3.9c0,-2.06667 -0.66667,-5.06667 -2,-9M664.5,308.35c0.75664,0.78021 1.62331,1.59688 2.6,2.45c0.06615,0.05586 0.13281,0.10586 0.2,0.15c0.3306,0.21797 0.64727,0.43464 0.95,0.65c5.70026,3.78633 10.53359,7.36966 14.5,10.75c1.10339,0.94779 2.13672,1.86445 3.1,2.75c1.55508,-0.5 2.68841,-0.75 3.4,-0.75c10.96667,0 19.1,2.25 24.4,6.75c1.26667,1.06667 2.66667,2.61667 4.2,4.65c1.1,1.4 1.93333,2.1 2.5,2.1c1.26667,0 3.21667,-0.75 5.85,-2.25c1.56667,-0.86667 4.36667,-2.48333 8.4,-4.85c0.47201,-0.26055 0.93867,-0.51055 1.4,-0.75c-2.1319,-1.8224 -4.16523,-4.50573 -6.1,-8.05c-1.41458,-2.59349 -2.59792,-5.22682 -3.55,-7.9c-7.45299,-0.46732 -15.40299,-1.26732 -23.85,-2.4c-1.80039,-0.24115 -3.55039,-0.47448 -5.25,-0.7c-10.40065,-1.30391 -18.88398,-2.12057 -25.45,-2.45c-1.53437,-0.07747 -2.96771,-0.12747 -4.3,-0.15h-3M651.05,323.35c-6.46862,-1.88477 -12.35195,-1.75143 -17.65,0.4c-8.62852,3.45143 -15.36185,8.33477 -20.2,14.65c-0.85872,1.11797 -1.65872,2.28464 -2.4,3.5c-3.93333,6.4 -5.9,13.43333 -5.9,21.1c0,1.5 0.35,3.56667 1.05,6.2c1.06667,3.9 2.63333,7.46667 4.7,10.7c6.3,9.8 16.08333,14.7 29.35,14.7c3.05664,0 6.03997,-0.41667 8.95,-1.25c5.26419,-1.48594 10.29753,-4.31927 15.1,-8.5c8.46667,-7.4 12.7,-16.6 12.7,-27.6c0,-4.03333 -0.41667,-7.6 -1.25,-10.7c-0.98776,-3.63242 -2.63776,-7.04909 -4.95,-10.25c-0.09128,-0.15299 -0.19128,-0.30299 -0.3,-0.45c-2.43333,-4.1 -7.23333,-7.68333 -14.4,-10.75c-1.62279,-0.68906 -3.22279,-1.2724 -4.8,-1.75M606.5,206.25c0,-4.96667 -1.56667,-11.08333 -4.7,-18.35c-3.43333,-7.9 -6.86667,-12.16667 -10.3,-12.8c-0.4,0.96667 -0.71667,1.71667 -0.95,2.25c-0.36667,0.96667 -0.55,1.96667 -0.55,3c0,3.5 1.73333,9.45 5.2,17.85c3.86667,9.43333 7.3,13.98333 10.3,13.65c0,-0.4 0.16667,-1.2 0.5,-2.4c0.33333,-1.2 0.5,-2.26667 0.5,-3.2M633.55,287.9c-0.9168,2.43828 -2.7668,5.23828 -5.55,8.4c-4.16667,4.73333 -6.25,7.41667 -6.25,8.05c0,1 0.51667,1.75 1.55,2.25c0.66667,0.33333 1.31667,0.5 1.95,0.5c3.26667,0 5.76667,-1.48333 7.5,-4.45c1.33333,-2.3 2,-4.9 2,-7.8c0,-1.67891 -0.4,-3.99557 -1.2,-6.95M578.95,334.45c2.59583,3.15951 4.77917,5.64284 6.55,7.45c2.22318,2.28164 3.80651,3.51497 4.75,3.7c0.03633,-0.83438 0.56966,-2.16771 1.6,-4c0.86823,-1.49674 2.0849,-3.34674 3.65,-5.55c1.4957,-2.11654 3.21237,-4.46654 5.15,-7.05c-2.36068,-0.38008 -7.81068,-1.89674 -16.35,-4.55c-7.58242,-2.3513 -13.66576,-4.38464 -18.25,-6.1c5.63932,7.13815 9.93932,12.50482 12.9,16.1M608.35,404.15c2.09479,-0.29023 4.09479,-0.37357 6,-0.25c-4.02643,-2.45 -7.65977,-5.61667 -10.9,-9.5c-4.00964,-4.8151 -6.9263,-9.89844 -8.75,-15.25c-0.67956,-2.04089 -1.21289,-4.12422 -1.6,-6.25c-0.02565,0.0625 -0.05898,0.12917 -0.1,0.2c-0.01732,1.31602 -0.10065,1.89935 -0.25,1.75l-0.5,0.5c-0.22201,0.22201 -0.58867,0.37201 -1.1,0.45c-0.47057,0.66836 -0.97057,1.36836 -1.5,2.1c-0.04023,0.08138 -0.09023,0.16471 -0.15,0.25c-6.83333,9.76667 -11.25,16.75 -13.25,20.95l-0.25,0.25c1.73333,0.36667 4.26667,0.58333 7.6,0.65c4.4,0.13333 7.36667,0.26667 8.9,0.4c5.4819,0.46654 10.59857,1.7332 15.35,3.8c0.16484,-0.00846 0.33151,-0.02513 0.5,-0.05M593.05,449.65c1.83333,3.86667 3.78333,6.51667 5.85,7.95c3.3,2.26667 9.53333,4.51667 18.7,6.75c9.9,2.4 18.81667,3.6 26.75,3.6c12.9,0 21.73333,-4.08333 26.5,-12.25c2.33333,-3.96667 3.5,-8.53333 3.5,-13.7c0,-3.46667 -0.41667,-6.18333 -1.25,-8.15c-1.06667,-2.6 -3.18333,-5.18333 -6.35,-7.75c-2.22083,-1.79557 -5.12083,-3.52891 -8.7,-5.2c-1.47904,-0.13594 -3.77904,-0.71927 -6.9,-1.75c-3.14388,-1.04792 -5.09388,-1.69792 -5.85,-1.95v0.1c-0.5,-0.13333 -0.83333,-0.2 -1,-0.2c-0.09844,-0.06888 -0.19844,-0.13555 -0.3,-0.2c-1.60234,-0.32331 -3.68568,-0.70664 -6.25,-1.15c-0.8263,0.04922 -1.65964,0.14922 -2.5,0.3c-1.26667,0.2 -2.01667,0.3 -2.25,0.3c-0.96667,0 -1.53333,-0.13333 -1.7,-0.4c-0.3,-0.46667 -1.23333,-0.96667 -2.8,-1.5l-14.75,-0.1c-6.56667,0.66667 -12.28333,4.55 -17.15,11.65c-4.06667,5.9 -6.1,11.03333 -6.1,15.4c0,1.96667 0.85,4.71667 2.55,8.25M632.05,592.15c3.00781,1.86667 6.74115,2.8 11.2,2.8c7.92266,0 14.83932,-1.08333 20.75,-3.25c-0.98867,1.53021 -1.92201,3.06354 -2.8,4.6c-3.8,6.53333 -5.7,11.91667 -5.7,16.15c0,0.04635 0,0.09635 0,0.15c1.04688,-0.02721 2.88021,-0.09388 5.5,-0.2c0,0.19336 0,0.37669 0,0.55c0,0.15313 0,0.30313 0,0.45c1.5,1.37526 2.25,2.19193 2.25,2.45c0,0.37448 -0.05,0.72448 -0.15,1.05c0.35326,0.34805 0.75326,0.69805 1.2,1.05c2.3,1.83333 4.7,2.75 7.2,2.75c6.66667,0 12.08333,-2.85 16.25,-8.55c0.26784,-0.35495 0.51784,-0.72161 0.75,-1.1c2.58099,-0.10768 4.86432,-0.47435 6.85,-1.1c0.8276,-0.27591 1.64427,-0.60924 2.45,-1c1.46406,-2.73073 2.8474,-5.88073 4.15,-9.45c1.7,-4.76667 2.58333,-7.2 2.65,-7.3c5.73333,-0.23333 10.46667,-1.16667 14.2,-2.8c2.3,-1.03333 4.88333,-2.76667 7.75,-5.2c2.93333,-2.46667 5.33333,-4.13333 7.2,-5c3.23333,-1.5 7.35,-2.25 12.35,-2.25c12.7,0 21.71667,-2.58333 27.05,-7.75c3.3,-3.2 4.95,-6.98333 4.95,-11.35c0,-4.13333 -2.5,-7.45 -7.5,-9.95c-4.26667,-2.16667 -9.76667,-3.51667 -16.5,-4.05c-6.16667,-0.46667 -11.66667,-0.18333 -16.5,0.85c-2.01719,0.41693 -3.63385,0.90026 -4.85,1.45c-6.11042,-0.83438 -10.24375,-1.90104 -12.4,-3.2c-0.77852,-0.45352 -1.66185,-0.90352 -2.65,-1.35c-15.35885,-7.94505 -27.12552,-13.24505 -35.3,-15.9c-3.7181,0.70534 -6.50143,1.30534 -8.35,1.8c-1.43477,0.39128 -2.68477,0.84128 -3.75,1.35c-1.55729,-0.43333 -2.65729,-0.65 -3.3,-0.65c-4.46667,0 -7.46667,1.43333 -9,4.3c-0.76667,1.46667 -1.1,3 -1,4.6c0,5.48464 2.8,9.93464 8.4,13.35c-0.09466,0.22695 -0.19466,0.46029 -0.3,0.7c-0.61354,1.42552 -1.23021,2.85885 -1.85,4.3c0.06784,-0.08789 0.11784,-0.17122 0.15,-0.25c1.78125,1.08529 3.69792,2.03529 5.75,2.85c-2.4888,0.21745 -4.85547,0.41745 -7.1,0.6c-0.04492,0.15807 -0.09492,0.32474 -0.15,0.5c-0.25365,0.90443 -0.57031,2.00443 -0.95,3.3c-0.11133,0.44922 -0.21133,0.88255 -0.3,1.3c-1.30182,0.14115 -2.50182,0.27448 -3.6,0.4c-18.7,2.13333 -28.05,6.06667 -28.05,11.8c0,2.66667 1.01667,5.18333 3.05,7.55c1.69102,1.98698 3.84102,3.33698 6.45,4.05c-2.00924,1.48424 -4.15924,3.01758 -6.45,4.6M852.25,507.1c1.9,0.6 3.66667,1.53333 5.3,2.8c1.1,0.83333 2.38333,2.06667 3.85,3.7c1.86667,2 3.4,4.55 4.6,7.65c0.11875,0.30195 0.23542,0.60195 0.35,0.9c4.71836,-0.09701 8.86836,0.26966 12.45,1.1c-1.19544,-3.02174 -3.09544,-5.88841 -5.7,-8.6c-4.64115,-4.85104 -10.79115,-7.91771 -18.45,-9.2c-0.85313,0.46536 -1.73646,0.98203 -2.65,1.55c0.08255,0.03021 0.16589,0.06354 0.25,0.1M848.75,505.35c-2.97904,0.34792 -5.81237,0.96458 -8.5,1.85v0.15c-0.20599,0.02891 -0.42266,0.04557 -0.65,0.05c-1.31979,0.49154 -2.61979,1.04154 -3.9,1.65c-0.78112,-0.13568 -1.63112,-0.28568 -2.55,-0.45c-2.1888,-0.41042 -4.0888,-0.82708 -5.7,-1.25c-1.04935,0.74297 -2.08268,1.5263 -3.1,2.35c-0.65911,0.57135 -1.30911,1.15469 -1.95,1.75c-5.17201,4.8026 -8.83867,10.38594 -11,16.75c-0.95365,-0.37305 -2.12031,-0.75638 -3.5,-1.15c1.60964,0.73307 3.6263,1.61641 6.05,2.65c1.08919,0.46797 2.10586,0.9013 3.05,1.3c-0.60326,1.99284 -1.06992,4.05951 -1.4,6.2c0.87773,-0.51732 1.92773,-1.08398 3.15,-1.7c0.24414,-0.1263 0.51081,-0.2763 0.8,-0.45c0.09922,-1.6819 0.36589,-3.29857 0.8,-4.85c0.69401,-2.49596 1.82734,-4.79596 3.4,-6.9c-0.44779,-1.36771 -0.76445,-2.58437 -0.95,-3.65c0.70208,-0.89818 1.43542,-1.76484 2.2,-2.6c-0.01198,0.27214 -0.04531,0.57214 -0.1,0.9c0,1.13971 0.13333,2.30638 0.4,3.5c2.8099,-2.9763 6.1599,-4.8263 10.05,-5.55c1.53659,-0.29779 2.98659,-0.38112 4.35,-0.25c1.45404,-1.52174 3.40404,-3.92174 5.85,-7.2c-2.60065,-0.1776 -5.40065,0.1224 -8.4,0.9l-0.15,-0.4c1.03333,-0.8 3.1,-1.51667 6.2,-2.15c1.58776,-0.32031 3.03776,-0.48698 4.35,-0.5c0.38177,-0.32135 0.78177,-0.63802 1.2,-0.95M835.2,518.5c-3.56667,0.7 -6.58333,2.6 -9.05,5.7c0.1974,0.49089 0.41406,0.99089 0.65,1.5c1.21628,2.55664 2.76628,4.57331 4.65,6.05c0.18854,-2.32943 0.95521,-4.89609 2.3,-7.7c1.03646,-2.1181 2.23646,-4.05143 3.6,-5.8c-0.68138,0.01901 -1.39805,0.10234 -2.15,0.25M824.75,526.15c-1.31094,2.18581 -2.16094,4.63581 -2.55,7.35c0.15443,-0.07747 0.30443,-0.16081 0.45,-0.25c1.43815,-0.49596 3.57148,-0.71263 6.4,-0.65c-1.64258,-1.24544 -3.07591,-3.39544 -4.3,-6.45M833.4,532.1c1.32995,-1.3612 5.07995,-3.14453 11.25,-5.35c1.03984,-0.36992 2.02318,-0.71992 2.95,-1.05c-0.66836,-2.09258 -1.76836,-3.79258 -3.3,-5.1c-1.07956,-0.90677 -2.26289,-1.55677 -3.55,-1.95c-1.72995,2.01276 -3.27995,4.54609 -4.65,7.6c-1.13242,2.52604 -2.03242,4.47604 -2.7,5.85M819.4,538.2c-1.86172,1.51003 -3.26172,2.54336 -4.2,3.1c-0.0625,1.04792 -0.09583,2.09792 -0.1,3.15c0.16992,-0.10247 0.38659,-0.25247 0.65,-0.45c0.06667,0.2 0.33333,1.4 0.8,3.6c0.7,2.5 1.63333,4.76667 2.8,6.8c1.29453,2.23919 2.8112,4.08919 4.55,5.55c-0.16667,-1.53112 -0.25,-3.34779 -0.25,-5.45c0,-2.62031 0.03333,-4.37031 0.1,-5.25c-0.88073,-1.02565 -1.6474,-2.25898 -2.3,-3.7c-1.09323,-2.41081 -1.72656,-4.89414 -1.9,-7.45c-0.05026,0.0349 -0.10026,0.06823 -0.15,0.1M822,536.85c0,0.56393 0.05,1.14727 0.15,1.75c0.29036,1.73737 0.99036,3.65404 2.1,5.75c0.16341,0.30443 0.33008,0.58776 0.5,0.85c0.15273,-0.34779 0.3194,-0.69779 0.5,-1.05c0.12786,-0.21589 0.2612,-0.43255 0.4,-0.65c1.23333,-2.56667 2.26667,-4.5 3.1,-5.8c1.05872,-1.61094 2.20872,-2.5776 3.45,-2.9l0.05,-0.3c-3.69401,0.01992 -7.11068,0.76992 -10.25,2.25c0,0.03685 0,0.07018 0,0.1M810,533.45c-1.71497,-0.42487 -4.81497,-1.54154 -9.3,-3.35c-2.03516,-0.81992 -4.36849,-1.78659 -7,-2.9c-1.24076,-0.3487 -2.39076,-0.5987 -3.45,-0.75c2.81732,3.80586 6.80065,9.32253 11.95,16.55c1.81393,2.52721 3.76393,5.26055 5.85,8.2c0.47344,0.66667 0.9401,1.31667 1.4,1.95c0.46536,0.67526 0.91536,1.32526 1.35,1.95c-0.17083,-0.58841 -0.3375,-1.20508 -0.5,-1.85c-0.18633,-0.73424 -0.35299,-1.50091 -0.5,-2.3c-0.46667,-2.48346 -0.7,-5.10013 -0.7,-7.85c0,-3.36471 0.3,-6.58138 0.9,-9.65M833.45,537.8c0.7418,3.28828 2.30846,6.73828 4.7,10.35c0.29206,0.43633 0.59206,0.86966 0.9,1.3c1.96302,-0.82773 3.62969,-2.1444 5,-3.95c-0.43268,-0.20781 -0.86602,-0.42448 -1.3,-0.65c-3.2,-1.66667 -5.78333,-3.45 -7.75,-5.35c-0.62266,-0.61068 -1.13932,-1.17734 -1.55,-1.7M834,534.1c-0.01966,0.11797 -0.06966,0.2013 -0.15,0.25c1.71081,3.33138 5.62747,6.23138 11.75,8.7c0.28659,-0.53112 0.55326,-1.09779 0.8,-1.7c0.8,-1.96667 1.36667,-4.15 1.7,-6.55c0.2,-1.3 0.3,-2.43333 0.3,-3.4c0,-1.11146 -0.08333,-2.16146 -0.25,-3.15c-5.31315,2.30977 -10.07982,4.20977 -14.3,5.7c0.05339,0.05339 0.10339,0.10339 0.15,0.15M827.4,544.7c-0.17318,0.46198 -0.33984,0.94531 -0.5,1.45c-0.11719,0.46484 -0.23385,0.94818 -0.35,1.45c1.62422,1.66315 3.54089,2.61315 5.75,2.85c0.3569,0.03333 0.72357,0.05 1.1,0.05c1.25586,0 2.43919,-0.13333 3.55,-0.4c-0.61081,-0.96224 -1.17747,-1.94557 -1.7,-2.95c-2.0168,-3.93594 -3.05013,-7.38594 -3.1,-10.35c-2.23776,2.69219 -3.82109,5.32552 -4.75,7.9M825.9,554.6c0,2.70404 0.3,5.13737 0.9,7.3c2.63997,1.4 5.67331,2.1 9.1,2.1c4.08685,0 7.75352,-0.7 11,-2.1c-1.08568,-0.97227 -2.16901,-2.02227 -3.25,-3.15c-1.5526,-1.62721 -2.96927,-3.31055 -4.25,-5.05c-0.22786,-0.28724 -0.4612,-0.58724 -0.7,-0.9c-0.34102,0.11602 -0.70768,0.21602 -1.1,0.3c-1.19687,0.26667 -2.48021,0.4 -3.85,0.4c-3.0388,0 -5.62214,-0.73333 -7.75,-2.2c-0.06667,1.04987 -0.1,2.14987 -0.1,3.3M880.4,515.8c-1.09987,-1.18424 -2.3332,-2.30091 -3.7,-3.35c-0.11953,-0.09206 -0.2362,-0.19206 -0.35,-0.3c-2.72734,-2.02526 -5.66068,-3.62526 -8.8,-4.8c3.79518,1.77865 6.57852,3.61198 8.35,5.5c2.06667,2.16667 3.8,5.16667 5.2,9c0.28802,0.76589 0.53802,1.51589 0.75,2.25c0.48607,0.15586 0.95273,0.32253 1.4,0.5c0.97383,0.38021 1.84049,0.76354 2.6,1.15c0.25898,0.15156 0.49232,0.2849 0.7,0.4c-0.05638,-0.21003 -0.12305,-0.42669 -0.2,-0.65c-0.60065,-1.7056 -1.36732,-3.32227 -2.3,-4.85c-0.04505,-0.11719 -0.11172,-0.23385 -0.2,-0.35c0.00326,-0.03451 -0.01341,-0.06784 -0.05,-0.1c-0.03659,-0.0763 -0.08659,-0.15964 -0.15,-0.25c-0.71693,-1.13385 -1.53359,-2.23385 -2.45,-3.3c-0.24909,-0.28294 -0.51576,-0.56628 -0.8,-0.85M867.75,529.4c0,6.26484 -1.36667,12.51484 -4.1,18.75c2.22708,0.4 4.09375,0.6 5.6,0.6c0.2375,0 0.47083,0 0.7,0c1.29688,-0.01276 2.53021,-0.06276 3.7,-0.15c0.98451,-0.05482 1.91784,-0.13815 2.8,-0.25c0.41797,-1.00768 0.8013,-2.04102 1.15,-3.1c0.65,-1.98672 1.21667,-4.05339 1.7,-6.2c0.73333,-3.4 1.1,-5.93333 1.1,-7.6c0,-0.53177 -0.01667,-1.0651 -0.05,-1.6c-0.07656,-1.05313 -0.22656,-2.10312 -0.45,-3.15c-3.48958,-1.27943 -7.73958,-1.92943 -12.75,-1.95c0.4,1.63776 0.6,3.18776 0.6,4.65M863.9,524.8c-4.7349,0.24727 -9.10156,1.04727 -13.1,2.4c0.23333,1.29688 0.35,2.69687 0.35,4.2c0,4.4 -0.96667,8.61667 -2.9,12.65v0c1.31419,0.46953 2.71419,0.91953 4.2,1.35c3.02214,0.88424 5.72214,1.58424 8.1,2.1c0.07057,-0.12331 0.13724,-0.25664 0.2,-0.4c1.56667,-3.6 2.7,-7.56667 3.4,-11.9c0.4,-2.46667 0.6,-4.45 0.6,-5.95c0,-1.1918 -0.28333,-2.67513 -0.85,-4.45M883.15,531.6c0,1.93333 -0.48333,4.86667 -1.45,8.8c-0.03724,0.15365 -0.07057,0.30365 -0.1,0.45c-0.60794,2.43385 -1.32461,4.76719 -2.15,7c1.46224,-0.28268 2.76224,-0.64935 3.9,-1.1c0.91497,-0.35885 1.79831,-0.72552 2.65,-1.1c0.12539,-0.28893 0.24206,-0.58893 0.35,-0.9l0.1,-0.3c0.01315,-0.06836 0.02982,-0.13503 0.05,-0.2c1.06667,-3.5 1.6,-6.1 1.6,-7.8c0,-1.50078 -0.08333,-2.96745 -0.25,-4.4c-0.15182,-0.11849 -0.31849,-0.26849 -0.5,-0.45c-0.08932,-0.09193 -0.18932,-0.19193 -0.3,-0.3c-1.01732,-1.02187 -2.01732,-1.85521 -3,-2.5c-0.38958,-0.25664 -0.78958,-0.50664 -1.2,-0.75c0.2,1.24714 0.3,2.43047 0.3,3.55M848.4,509.45c-0.83333,0.63333 -2.03333,2.01667 -3.6,4.15c-0.83828,1.15065 -1.52161,2.06732 -2.05,2.75c1.24193,0.46484 2.39193,1.14818 3.45,2.05c1.9151,1.62487 3.2651,3.7582 4.05,6.4c3.84531,-1.23724 6.51198,-1.93724 8,-2.1c1.61745,-0.17917 3.18411,-0.3125 4.7,-0.4c-1.07799,-2.52018 -2.46133,-4.77018 -4.15,-6.75c-2.80651,-3.34036 -6.08984,-5.50703 -9.85,-6.5c-0.18242,0.12969 -0.36576,0.26302 -0.55,0.4M860,554.8c-2.18138,3.21484 -4.76471,5.78151 -7.75,7.7c3.1401,2.26602 6.22344,3.99935 9.25,5.2c4.34857,-2.60547 8.04857,-6.4388 11.1,-11.5c0.6724,-1.05391 1.30573,-2.17057 1.9,-3.35c0.23177,-0.46732 0.44844,-0.95065 0.65,-1.45c-0.63411,0.06667 -1.26745,0.1 -1.9,0.1c-1.19596,0 -2.3793,-0.01667 -3.55,-0.05c-0.14349,-0.01068 -0.29349,-0.02734 -0.45,-0.05c-2.36523,-0.0944 -4.66523,-0.2944 -6.9,-0.6c-0.71159,1.43086 -1.49492,2.76419 -2.35,4M859.15,550.3c-4.43164,-0.78815 -8.58164,-1.98815 -12.45,-3.6c-1.56393,2.35208 -3.4806,4.08542 -5.75,5.2c0.78815,0.98724 1.62148,1.93724 2.5,2.85c1.83815,1.98828 3.87148,3.88828 6.1,5.7c0.03568,0.02878 0.06901,0.04544 0.1,0.05c2.22539,-1.29674 4.22539,-2.98008 6,-5.05c1.29154,-1.51432 2.4582,-3.23099 3.5,-5.15M875.15,557.3c-2.81849,5.00729 -6.08516,8.90729 -9.8,11.7c1.08958,0.2694 2.10625,0.4194 3.05,0.45c4.39427,-2.5401 8.24427,-6.32344 11.55,-11.35c0.31302,-0.43477 0.61302,-0.88477 0.9,-1.35c1.43516,-2.32448 2.68516,-4.77448 3.75,-7.35c-0.12305,0.0526 -0.25638,0.1026 -0.4,0.15c-2.06484,0.68242 -4.04818,1.18242 -5.95,1.5c-0.55104,1.30208 -1.13438,2.56875 -1.75,3.8c-0.42734,0.84596 -0.87734,1.66263 -1.35,2.45M936.1,493.85c0,-0.96667 -0.56667,-2.46667 -1.7,-4.5c-1.4,-2.5 -2.86667,-3.75 -4.4,-3.75c-1.6,0 -4.28333,1.25 -8.05,3.75c-4.9,3.5 -8.81667,6.25 -11.75,8.25c-0.78398,0.53307 -1.56732,1.04974 -2.35,1.55c-6.2224,4.04336 -11.90573,6.91003 -17.05,8.6c-2.58294,0.875 -5.03294,1.44167 -7.35,1.7c2.29857,2.18424 4.21523,4.61758 5.75,7.3c0.59375,1.00221 1.12708,2.03555 1.6,3.1c0.23698,0.05039 0.48698,0.10039 0.75,0.15c1.05885,0.16159 2.12552,0.27826 3.2,0.35c0.91016,0.06667 1.82682,0.1 2.75,0.1c1.10469,0 2.18802,-0.03333 3.25,-0.1c2.81315,-0.13958 5.47982,-0.48958 8,-1.05c0.39128,-0.05964 0.77461,-0.14297 1.15,-0.25c7.22448,-1.73841 13.29115,-5.13841 18.2,-10.2c2.63333,-2.73333 4.7,-5.71667 6.2,-8.95c1.2,-2.56667 1.8,-4.58333 1.8,-6.05M904.15,526.1c0.13958,0.38164 0.25625,0.78164 0.35,1.2c0.23333,1.1 0.35,3.9 0.35,8.4c0,3.59753 -0.53333,7.58086 -1.6,11.95c-0.12253,0.5263 -0.25586,1.05964 -0.4,1.6c-0.06081,0.22578 -0.12747,0.44245 -0.2,0.65c-0.50039,1.81979 -1.06706,3.41979 -1.7,4.8c-0.56966,1.26419 -1.18633,2.34753 -1.85,3.25c1.12917,0.29857 2.29583,0.64857 3.5,1.05c0.42799,0.14089 0.84466,0.27422 1.25,0.4h0.05c0.45664,-0.42617 1.38997,-0.65951 2.8,-0.7c0.12487,0 0.2582,0 0.4,0c6.36667,0 11.55,-2.5 15.55,-7.5c2.96667,-3.73333 4.45,-7.1 4.45,-10.1c0,-2.61445 -1.08333,-4.99779 -3.25,-7.15c-1.46992,-1.47513 -3.46992,-2.8418 -6,-4.1c-3.06667,-1.4 -5.18333,-2.43333 -6.35,-3.1c-0.83971,-0.50677 -1.48971,-1.02344 -1.95,-1.55c-0.04701,-0.02448 -0.09701,-0.05781 -0.15,-0.1c-1.68216,0.3944 -3.43216,0.72773 -5.25,1M897.1,526.95l-4.15,-0.55c0.61198,2.60417 0.97865,5.35417 1.1,8.25c0.03333,0.75859 0.05,1.52526 0.05,2.3c0,2.12852 -0.41667,4.82852 -1.25,8.1c-0.09974,0.47396 -0.21641,0.95729 -0.35,1.45c-1.00391,3.71211 -2.30391,7.19544 -3.9,10.45c0.40768,-0.04687 0.84102,-0.08021 1.3,-0.1c0.30846,-0.01406 0.62513,-0.03073 0.95,-0.05c0.61589,-0.83477 1.43255,-1.93477 2.45,-3.3c2.04401,-3.07826 3.49401,-5.89492 4.35,-8.45c0.3099,-0.8974 0.54323,-1.76406 0.7,-2.6c0.52969,-2.67474 0.86302,-4.95807 1,-6.85c0.0082,-0.14688 0.0082,-0.29687 0,-0.45c0.02878,-0.30924 0.04544,-0.60924 0.05,-0.9c0.05273,-2.76953 -0.31393,-5.2362 -1.1,-7.4c-0.39557,0.03555 -0.79557,0.06888 -1.2,0.1M927.65,555.75c-3.61224,4.74753 -8.22891,7.64753 -13.85,8.7c0.51602,0.39909 1.01602,0.79909 1.5,1.2c0.57448,0.47539 1.10781,0.95872 1.6,1.45c3.05052,0.23333 5.25052,0.35 6.6,0.35c8.13333,0 13.33333,-2.35 15.6,-7.05c1.16667,-2.36667 1.5,-4.8 1,-7.3c0,-6.93333 -2.06667,-12.35 -6.2,-16.25c-0.49831,-0.48229 -1.21497,-1.09896 -2.15,-1.85c0.9,2.48854 1.35,4.52188 1.35,6.1c0,5 -1.81667,9.88333 -5.45,14.65M762.85,398.45c0,2.4 0.83333,6.55 2.5,12.45c1.96667,6.96667 3.88333,10.45 5.75,10.45c2.66667,0 4.35,-1.5 5.05,-4.5c0.13333,-3.03333 0.2,-4.61667 0.2,-4.75c0,-4.1 -0.8,-8.01667 -2.4,-11.75c-2.16667,-5.06667 -5.36667,-8.06667 -9.6,-9c-1,3 -1.5,5.36667 -1.5,7.1M724.35,434.95c0,-1.93333 -1.05,-5.76667 -3.15,-11.5c-2.36667,-6.6 -4.56667,-10.38333 -6.6,-11.35c-1.16667,1.93333 -1.75,4.63333 -1.75,8.1c0,3.66667 0.76667,7.85 2.3,12.55c1.8,5.6 3.95,8.88333 6.45,9.85c1.83333,-2.66667 2.75,-5.21667 2.75,-7.65M684.75,379.85c0.39297,-0.2138 0.90964,-0.49714 1.55,-0.85c0.10352,-0.06042 0.20352,-0.12708 0.3,-0.2c-1.82422,-0.60091 -3.90755,-1.11758 -6.25,-1.55c-0.41445,-0.07878 -0.83112,-0.16211 -1.25,-0.25c-0.66497,1.63672 -1.41497,3.25339 -2.25,4.85c-0.60286,1.14531 -1.2362,2.24531 -1.9,3.3c-5.54232,8.73685 -13.34232,14.37018 -23.4,16.9c-1.16927,0.66797 -2.26927,1.28464 -3.3,1.85c-2.01615,1.12018 -3.68281,2.02018 -5,2.7c1.73815,1.08151 3.42148,2.14818 5.05,3.2c0.81667,0.5207 1.61667,1.03737 2.4,1.55c10.93464,2.53828 19.06797,6.83828 24.4,12.9c4.66667,5.26667 7,11.5 7,18.7c0,7.6 -1.31667,13.73333 -3.95,18.4c-0.87786,1.55052 -1.87786,2.98385 -3,4.3c2.36732,1.10599 4.30065,2.05599 5.8,2.85c0.67266,-0.92044 1.30599,-1.88711 1.9,-2.9c3.5,-6 5.25,-13.5 5.25,-22.5c0,-2 -0.36667,-4.58333 -1.1,-7.75c-1.1,-4.83333 -2.81667,-9.23333 -5.15,-13.2c-4.87878,-8.38698 -11.79544,-13.85365 -20.75,-16.4c8.43437,-3.72643 15.10104,-9.85977 20,-18.4c0.59818,-1.0431 1.16484,-2.10977 1.7,-3.2c0.70729,-1.40039 1.35729,-2.83372 1.95,-4.3M651.65,483.55c0.06667,0.55443 0.1,1.32109 0.1,2.3c2.71758,-0.22852 5.51758,-1.52852 8.4,-3.9c-2.63151,0.70404 -5.46484,1.23737 -8.5,1.6M914.15,582.65c0.66966,-1.29831 1.06966,-2.64831 1.2,-4.05c0,-2.42917 -1.63333,-5.0625 -4.9,-7.9c-0.81758,-0.6763 -1.73424,-1.3763 -2.75,-2.1c-4.08503,-2.8888 -8.55169,-4.6888 -13.4,-5.4c-2.31354,-0.32812 -4.71354,-0.41146 -7.2,-0.25c-0.45299,-0.43034 -0.85299,-0.81367 -1.2,-1.15c-3.4457,5.42357 -7.57904,9.62357 -12.4,12.6c0.97904,0.40299 2.0457,0.83633 3.2,1.3c2.48255,0.98841 5.38255,2.15508 8.7,3.5c12.36667,5 19.9,7.5 22.6,7.5c2.73333,0 4.76667,-1.31667 6.1,-3.95c0.01549,-0.02943 0.03216,-0.06276 0.05,-0.1M864.5,571.35c-0.67591,-0.13086 -1.35924,-0.29753 -2.05,-0.5c-1.79596,1.04792 -3.69596,1.84792 -5.7,2.4c2.72578,-0.29323 5.30911,-0.92656 7.75,-1.9z" fill="#000000"/><path d="M796.85,442.35c-0.83333,0 -1.45,-0.33333 -1.85,-1c-0.23503,-0.36159 -0.53503,-0.62826 -0.9,-0.8c1.63997,-4.10221 2.72331,-8.41888 3.25,-12.95c1.14492,2.28516 2.44492,4.63516 3.9,7.05c1.8,2.96667 3.33333,5.2 4.6,6.7c-0.1,0.33333 -1.31667,0.6 -3.65,0.8c-1.76667,0.13333 -3.55,0.2 -5.35,0.2M780.05,458.4c4.1125,-2.19531 7.62917,-5.76198 10.55,-10.7c0.13424,1.16016 0.30091,2.51016 0.5,4.05c0.16667,1.53333 -0.25,2.6 -1.25,3.2c-0.63333,0.36667 -3.41667,1.36667 -8.35,3c-0.47187,0.15651 -0.95521,0.30651 -1.45,0.45M752.3,457.9c5.8,2.13333 11.36667,3.2 16.7,3.2c1.59648,0 3.12982,-0.13333 4.6,-0.4c-4.15234,1.49922 -8.40234,3.13255 -12.75,4.9c-10.36667,4.2 -21.43333,8.01667 -33.2,11.45c-0.66445,0.19453 -1.33112,0.37786 -2,0.55c3.67227,-4.00729 6.7056,-8.22396 9.1,-12.65c3,-5.53333 4.5,-10.31667 4.5,-14.35c3.2,2.86667 7.55,5.3 13.05,7.3M685.4,331.1c0.83659,-0.02552 1.40326,-0.14219 1.7,-0.35l0.35,-0.3c0.38477,-0.06667 0.73477,-0.1 1.05,-0.1c10.23333,0 17.81667,2.63333 22.75,7.9c0.56667,0.56667 1.95,2.36667 4.15,5.4c1.2,1.63333 2.31667,2.45 3.35,2.45c0.11172,0 0.22839,0 0.35,0c3.57383,5.55104 5.79049,9.38437 6.65,11.5h0.5c-0.9,-3.86667 1.96667,-10.48333 8.6,-19.85c0.61576,-0.86589 1.21576,-1.69922 1.8,-2.5c1.62435,-0.96107 3.24102,-1.81107 4.85,-2.55c0.53958,0.1 1.07292,0.15 1.6,0.15c1,0 1.66667,-0.16667 2,-0.5l0.5,-0.5v-0.1l0.15,-0.65c3.29284,-1 6.57617,-1.5 9.85,-1.5c15.93242,0 29.34909,3.48333 40.25,10.45c0.79505,0.5181 1.57839,1.05143 2.35,1.6c4,2.83333 7.36667,5.96667 10.1,9.4c2.1,2.7 3.41667,4.96667 3.95,6.8c2.53333,8.76667 4.18333,15.15 4.95,19.15c1.03333,5.46667 1.55,11.45 1.55,17.95c0,0.63333 -0.11667,2.96667 -0.35,7c-0.26667,4.06667 -0.4,7.03333 -0.4,8.9c2,0 3.16667,-0.16667 3.5,-0.5c0.00924,-0.05951 0.00924,-0.12617 0,-0.2c2.55,3.6332 4.35,6.64987 5.4,9.05c1.56667,3.5 2.35,7.33333 2.35,11.5c0,3.3 -0.76667,8.35 -2.3,15.15c-1.5,6.76667 -2.81667,11.1 -3.95,13c-1.8,3.3 -3.31667,5.8 -4.55,7.5c-2.2,3.03333 -4.68333,5.03333 -7.45,6c-0.23333,0.1 -1.73333,1.06667 -4.5,2.9c-2.76667,1.86667 -4.18333,2.81667 -4.25,2.85c-1.09245,0.41107 -2.27578,0.77773 -3.55,1.1c-2.74909,-0.54115 -5.18242,-1.34115 -7.3,-2.4c-4.46667,-2.23333 -6.85,-5.3 -7.15,-9.2c14.33333,-6.33333 21.5,-10.33333 21.5,-12c0,-1.5 -0.66667,-3.15 -2,-4.95c-0.73294,-0.97721 -1.34961,-1.89388 -1.85,-2.75c4.50495,-0.32878 7.45495,-1.02878 8.85,-2.1c0.63333,-0.5 0.96667,-1.08333 1,-1.75c-0.1,-0.7 -0.15,-1.15 -0.15,-1.35c0,-2.73333 -1.55,-6.05 -4.65,-9.95c-3.31823,-4.15586 -6.50156,-6.05586 -9.55,-5.7c0.23333,-2.02461 0.35,-4.09128 0.35,-6.2c0,-7.48789 -0.73333,-13.17122 -2.2,-17.05c-0.44727,-15.93906 -3.76393,-29.5224 -9.95,-40.75c-2.39453,-4.35013 -5.0112,-8.0168 -7.85,-11c-4.22552,-4.43138 -8.94219,-7.29805 -14.15,-8.6c-8.66667,-2.2 -16,0.68333 -22,8.65c-3.77591,5.00312 -6.49258,11.46979 -8.15,19.4c-1.21901,6.02253 -1.83568,12.87253 -1.85,20.55c-0.8776,-1.41445 -2.04427,-3.08112 -3.5,-5c-3.5,-4.6 -6.5,-7.83333 -9,-9.7c-0.47708,-0.30885 -0.96042,-0.60885 -1.45,-0.9c-7.68867,-4.63346 -15.72201,-6.68346 -24.1,-6.15c-2.29258,0.15286 -4.32591,0.50286 -6.1,1.05c1.1,-4.7224 1.65,-9.63906 1.65,-14.75c0,-9.6974 -1.83333,-17.9474 -5.5,-24.75c0.3418,-0.12448 0.70846,-0.27448 1.1,-0.45c0.24635,-0.11003 0.47969,-0.21003 0.7,-0.3z" fill="#ffa420"/><path d="M795.55,403.8c1.46667,3.87878 2.2,9.56211 2.2,17.05c0,2.10872 -0.11667,4.17539 -0.35,6.2c-0.09492,0.01549 -0.19492,0.03216 -0.3,0.05c0.08542,0.17331 0.16875,0.33997 0.25,0.5c-0.52669,4.53112 -1.61003,8.84779 -3.25,12.95c-0.28529,-0.13333 -0.61862,-0.2 -1,-0.2c-1,0 -1.66667,0.13333 -2,0.4l-0.5,0.35l-0.1,0.35c-0.1,0.46667 -0.15,1.21667 -0.15,2.25c0,0.9026 0.08333,2.23594 0.25,4c-2.92083,4.93802 -6.4375,8.50469 -10.55,10.7c-2.10833,0.73659 -4.25833,1.50326 -6.45,2.3c-1.47018,0.26667 -3.00352,0.4 -4.6,0.4c-5.33333,0 -10.9,-1.06667 -16.7,-3.2c-5.5,-2 -9.85,-4.43333 -13.05,-7.3c0,4.03333 -1.5,8.81667 -4.5,14.35c-2.3944,4.42604 -5.42773,8.64271 -9.1,12.65c-16.82982,4.83333 -30.34648,7.25 -40.55,7.25c-5.96667,0 -9.6,-2.28333 -10.9,-6.85c-0.1651,-0.87656 -0.3151,-1.6599 -0.45,-2.35c1.03451,-0.73698 2.01784,-1.53698 2.95,-2.4c1.20716,1.39779 2.57383,2.68112 4.1,3.85c4.93333,3.83333 10.58333,5.75 16.95,5.75c13.3,0 23.58333,-6.48333 30.85,-19.45c2.5,-4.5 4.46667,-9.46667 5.9,-14.9c1.06667,-4.13333 1.6,-7.43333 1.6,-9.9c0,-0.51693 -0.01667,-1.06693 -0.05,-1.65c1.05755,1.80169 2.22422,3.51836 3.5,5.15c7,9 16.01667,13.5 27.05,13.5c12.9,0 21.58333,-7.5 26.05,-22.5c1.96667,-6.66667 2.95,-15.16667 2.95,-25.5c0,-1.26888 -0.01667,-2.53555 -0.05,-3.8M805.75,455.6c0,1.66667 -7.16667,5.66667 -21.5,12c0.3,3.9 2.68333,6.96667 7.15,9.2c2.11758,1.05885 4.55091,1.85885 7.3,2.4c-2.62253,0.69557 -5.62253,1.21224 -9,1.55c-2.42148,0.24492 -3.85482,0.81159 -4.3,1.7c-1.27018,0.84062 -2.40352,2.64063 -3.4,5.4c-0.69323,1.83021 -1.6599,3.73021 -2.9,5.7c-0.25872,0.39661 -0.52539,0.79661 -0.8,1.2c-1.61797,2.32982 -3.41797,4.46315 -5.4,6.4c-0.04049,0.07487 -0.09049,0.14154 -0.15,0.2c-2.66667,4.53333 -6.03333,8.48333 -10.1,11.85c-4.26133,3.52109 -9.29466,6.08776 -15.1,7.7c-4.87826,1.36667 -10.31159,2.05 -16.3,2.05c-2.79609,0 -5.47943,-0.21667 -8.05,-0.65c-4.36719,-0.75625 -8.38385,-2.15625 -12.05,-4.2c-0.05846,-0.03268 -0.12513,-0.06602 -0.2,-0.1c1.8849,0.82513 3.7849,1.45846 5.7,1.9c0.98125,0.23516 1.96458,0.41849 2.95,0.55c1.31888,0.16667 2.65221,0.25 4,0.25c5.03333,0 11.1,-4.26667 18.2,-12.8c4.03333,-4.86667 7.3,-9.51667 9.8,-13.95c2.66667,-4.36667 7.6,-10.35 14.8,-17.95c3.00026,-3.17956 5.26693,-5.69622 6.8,-7.55c4.11836,-1.44583 7.05169,-2.54583 8.8,-3.3c10.56667,-4.53333 15.85,-8.71667 15.85,-12.55c0,-1.06667 -0.1,-1.93333 -0.3,-2.6c-0.3,-0.76667 -0.53333,-1.4 -0.7,-1.9c1.86966,-0.02526 3.55299,-0.09193 5.05,-0.2c0.50039,0.85612 1.11706,1.77279 1.85,2.75c1.33333,1.8 2,3.45 2,4.95M611.3,489.4c-3.63333,-0.06667 -7.01667,-2.58333 -10.15,-7.55c-2.13333,-2.76667 -3.81667,-5 -5.05,-6.7c-0.57721,-0.78633 -1.09388,-1.51966 -1.55,-2.2c11.46484,7.43333 27.19818,11.15 47.2,11.15c2.40521,0 4.70521,-0.08333 6.9,-0.25c0.01315,0.17578 0.01315,0.35911 0,0.55c-0.1,0.93333 -0.15,1.83333 -0.15,2.7c0,1.23333 0.18333,1.98333 0.55,2.25c1.1,0.76667 3.83333,1.05 8.2,0.85c1.73333,-1.1 4.5,-3.35 8.3,-6.75c1.50599,-1.35417 2.75599,-2.57083 3.75,-3.65c0.31094,1.53854 0.79427,2.88854 1.45,4.05c1.3569,2.41419 3.39023,4.18086 6.1,5.3c2.42969,1.03333 5.39635,1.55 8.9,1.55c0.0293,0 0.06263,0 0.1,0c1.9513,5.62812 5.73464,11.37812 11.35,17.25c1.36732,1.42318 2.75065,2.72318 4.15,3.9c0.5888,0.50911 1.17214,0.99245 1.75,1.45c-0.13984,0.0332 -0.27318,0.06654 -0.4,0.1c-0.13477,0.09141 -0.23477,0.19141 -0.3,0.3c-0.1,0.16667 -0.15,0.33333 -0.15,0.5l-0.1,0.1c-1.15469,0.60234 -2.32135,1.13568 -3.5,1.6c-4.17083,1.67487 -10.07083,2.52487 -17.7,2.55c-0.11823,0 -0.2349,0 -0.35,0c-15.96667,0 -28.88333,-5.05 -38.75,-15.15c-1.5,-1.56667 -4.36667,-5.05 -8.6,-10.45c-2.46667,-3.16667 -4.41667,-4.75 -5.85,-4.75c-2.86667,0 -6.06667,0.23333 -9.6,0.7c-3.36667,0.43333 -5.53333,0.63333 -6.5,0.6M732.75,337.85c1.29935,-0.94036 2.59935,-1.80703 3.9,-2.6c-0.58424,0.80078 -1.18424,1.63411 -1.8,2.5c-6.63333,9.36667 -9.5,15.98333 -8.6,19.85h-0.5c-0.85951,-2.11563 -3.07617,-5.94896 -6.65,-11.5c1.69362,-0.10964 3.72695,-0.9763 6.1,-2.6c1.5,-1 4.01667,-2.88333 7.55,-5.65M651.75,485.85c0,-0.97891 -0.03333,-1.74557 -0.1,-2.3c3.03516,-0.36263 5.86849,-0.89596 8.5,-1.6c-2.88242,2.37148 -5.68242,3.67148 -8.4,3.9z" fill="#c7463f"/><path d="M537.25,198.75c0.85273,1.90547 1.73607,3.77214 2.65,5.6c2.1332,4.26641 4.39987,8.16641 6.8,11.7c-0.77813,-0.23867 -1.62813,-0.30534 -2.55,-0.2c-0.1,0.3 -0.25,0.55 -0.45,0.75c-0.03333,0.03333 -0.05,0.53333 -0.05,1.5c1.15755,3.09219 2.35755,6.17552 3.6,9.25c-6.66667,-8.27057 -10,-17.43724 -10,-27.5c0,-0.26432 0,-0.63099 0,-1.1M461.25,235.45c-1.16354,-6.32096 -1.78021,-14.3543 -1.85,-24.1c3.82617,11.3444 11.77617,21.0944 23.85,29.25c4.56302,3.08307 9.46302,5.73307 14.7,7.95c0.1694,0.25273 0.33607,0.50273 0.5,0.75c5.14115,7.80573 12.20781,14.83906 21.2,21.1c0.58099,0.40898 1.16432,0.80898 1.75,1.2c3.20482,2.1401 6.53815,4.12344 10,5.95c-5.16667,2.93177 -7.75,5.1151 -7.75,6.55c0,0.7 0.25,1.58333 0.75,2.65c0.73333,1.56667 1.73333,2.35 3,2.35c0.43333,0 3.65,-2.01667 9.65,-6.05c0.86576,-0.58333 1.66576,-1.13333 2.4,-1.65c3.9362,1.69401 8.01953,3.21068 12.25,4.55c-3.53333,3.38281 -5.3,5.98281 -5.3,7.8c0,1 0.08333,1.68333 0.25,2.05c0.5,1.2 1.7,1.8 3.6,1.8c4.53333,0 8.86667,-2.73333 13,-8.2c0.06484,-0.08633 0.13151,-0.16966 0.2,-0.25c10.21862,2.3 20.65195,3.45 31.3,3.45c4.90729,0 10.09063,-0.88333 15.55,-2.65c-1,0.48177 -2.01667,0.94844 -3.05,1.4c-8.96706,4.04648 -19.21706,7.46315 -30.75,10.25h-33.6c-3.16393,-0.7694 -6.24727,-1.58607 -9.25,-2.45c-11.40651,-3.23789 -21.47318,-7.07122 -30.2,-11.5c-14.40104,-7.30143 -25.10104,-16.20143 -32.1,-26.7c-4.93333,-7.36667 -8.3,-15.86667 -10.1,-25.5M615.35,315.2c-0.06667,1.55091 -0.1,2.35091 -0.1,2.4v1.85c-1.49049,-0.7375 -3.14049,-1.47083 -4.95,-2.2c1.53724,-1.07292 3.22057,-1.75625 5.05,-2.05M613.75,308.6c0,2.8 -3.01667,4.8 -9.05,6c-0.49401,0.09883 -0.99401,0.18216 -1.5,0.25c-1.27201,-0.3668 -2.60534,-0.73346 -4,-1.1c-4.66693,-1.22617 -9.30026,-2.22617 -13.9,-3c2.35182,-0.30846 5.63516,-0.85846 9.85,-1.65c7.06667,-1.33333 11.51667,-2 13.35,-2h3.25c1.33333,0.16667 2,0.66667 2,1.5M660.9,191.85c0.9,2.63333 1.35,6.71667 1.35,12.25c0,6.56667 -1.5,13.06667 -4.5,19.5c-3.7,8 -8.53333,12 -14.5,12c-3.2,0 -7.05,-1.4 -11.55,-4.2c-3.02161,-1.88854 -5.50495,-3.90521 -7.45,-6.05c-0.37201,7.24687 -2.75534,13.26354 -7.15,18.05c-5.33333,5.8 -12.61667,8.7 -21.85,8.7c-5.76667,0 -11.96667,-1.26667 -18.6,-3.8c-6.27227,-2.41706 -12.1056,-5.61706 -17.5,-9.6c-1.19518,-2.36979 -2.24518,-4.23646 -3.15,-5.6c-1.10339,-1.45026 -2.35339,-4.71693 -3.75,-9.8c7.20169,8.22174 15.46836,13.77174 24.8,16.65c5.08125,1.6 10.48125,2.4 16.2,2.4c10,0 17,-4.25 21,-12.75c0.38346,-0.82005 0.73346,-1.67005 1.05,-2.55c1.46667,-3.97161 2.2,-8.37161 2.2,-13.2c0,-1.33307 -0.5,-3.88307 -1.5,-7.65c6.13359,7.10703 11.95026,12.7237 17.45,16.85c1.62383,1.23359 3.22383,2.33359 4.8,3.3h6c3.82526,-0.21406 6.89193,-2.6474 9.2,-7.3c0.55937,-1.1513 1.07604,-2.43464 1.55,-3.85c1.66667,-4.96667 2.5,-10.03333 2.5,-15.2c0,-5.39154 -1.16667,-12.22487 -3.5,-20.5c0.28659,0.39349 0.53659,0.76016 0.75,1.1c3.36667,5.36667 5.41667,9.11667 6.15,11.25z" fill="#86bcff"/><path d="M898.35,542.45c-0.15677,0.83594 -0.3901,1.7026 -0.7,2.6c-0.46888,0.03333 -1.43555,0.05 -2.9,0.05c-0.68164,0 -1.31497,-0.01667 -1.9,-0.05c0.83333,-3.27148 1.25,-5.97148 1.25,-8.1c0,-0.77474 -0.01667,-1.54141 -0.05,-2.3c0.6763,0.12747 1.4263,0.24414 2.25,0.35c1.21589,0.13646 2.23255,0.33646 3.05,0.6c-0.13698,1.89193 -0.47031,4.17526 -1,6.85M843.45,554.75c-0.87852,-0.91276 -1.71185,-1.86276 -2.5,-2.85c2.2694,-1.11458 4.18607,-2.84792 5.75,-5.2c3.86836,1.61185 8.01836,2.81185 12.45,3.6c-1.0418,1.91901 -2.20846,3.63568 -3.5,5.15c-1.19557,0.1 -2.41224,0.15 -3.65,0.15c-3.00781,0 -5.85781,-0.28333 -8.55,-0.85M862.35,550.8c2.23477,0.3056 4.53477,0.5056 6.9,0.6c-2.90703,1.57253 -5.99036,2.70586 -9.25,3.4c0.85508,-1.23581 1.63841,-2.56914 2.35,-4M848.95,509.05c3.76016,0.99297 7.04349,3.15964 9.85,6.5c1.68867,1.97982 3.07201,4.22982 4.15,6.75c-1.51589,0.0875 -3.08255,0.22083 -4.7,0.4c-1.48802,0.16276 -4.15469,0.86276 -8,2.1c-0.7849,-2.6418 -2.1349,-4.77513 -4.05,-6.4c-1.05807,-0.90182 -2.20807,-1.58516 -3.45,-2.05c0.52839,-0.68268 1.21172,-1.59935 2.05,-2.75c1.56667,-2.13333 2.76667,-3.51667 3.6,-4.15c0.18424,-0.13698 0.36758,-0.27031 0.55,-0.4M882.85,528.05c0.41042,0.24336 0.81042,0.49336 1.2,0.75c0.98268,0.64479 1.98268,1.47813 3,2.5c-1.25091,3.35391 -3.06758,6.53724 -5.45,9.55c0.02943,-0.14635 0.06276,-0.29635 0.1,-0.45c0.96667,-3.93333 1.45,-6.86667 1.45,-8.8c0,-1.11953 -0.1,-2.30286 -0.3,-3.55M864.75,529.25c0,1.5 -0.2,3.48333 -0.6,5.95c-0.7,4.33333 -1.83333,8.3 -3.4,11.9c-0.06276,0.14336 -0.12943,0.27669 -0.2,0.4c-2.37786,-0.51576 -5.07786,-1.21576 -8.1,-2.1c-1.48581,-0.43047 -2.88581,-0.88047 -4.2,-1.35v0c1.93333,-4.03333 2.9,-8.25 2.9,-12.65c0,-1.50313 -0.11667,-2.90313 -0.35,-4.2c3.99844,-1.35273 8.3651,-2.15273 13.1,-2.4c0.56667,1.77487 0.85,3.2582 0.85,4.45M867.15,524.75c5.01042,0.02057 9.26042,0.67057 12.75,1.95c0.22344,1.04688 0.37344,2.09687 0.45,3.15c0.03333,0.5349 0.05,1.06823 0.05,1.6c0,1.66667 -0.36667,4.2 -1.1,7.6c-0.48333,2.14661 -1.05,4.21328 -1.7,6.2c-1.27812,1.23008 -2.59479,2.34674 -3.95,3.35c-1.16979,0.08724 -2.40313,0.13724 -3.7,0.15c-0.22917,0 -0.4625,0 -0.7,0c-1.50625,0 -3.37292,-0.2 -5.6,-0.6c2.73333,-6.23516 4.1,-12.48516 4.1,-18.75c0,-1.46224 -0.2,-3.01224 -0.6,-4.65M881.2,516.65c0.91641,1.06615 1.73307,2.16615 2.45,3.3c0.06341,0.09036 0.11341,0.1737 0.15,0.25c0.03659,0.03216 0.05326,0.06549 0.05,0.1c0.08828,0.11615 0.15495,0.23281 0.2,0.35c0.93268,1.52773 1.69935,3.1444 2.3,4.85c0.07695,0.22331 0.14362,0.43997 0.2,0.65c-0.20768,-0.1151 -0.44102,-0.24844 -0.7,-0.4c-0.75951,-0.38646 -1.62617,-0.76979 -2.6,-1.15c-0.44727,-0.17747 -0.91393,-0.34414 -1.4,-0.5c-0.21198,-0.73411 -0.46198,-1.48411 -0.75,-2.25c-1.4,-3.83333 -3.13333,-6.83333 -5.2,-9c-1.77148,-1.88802 -4.55482,-3.72135 -8.35,-5.5c3.13932,1.17474 6.07266,2.77474 8.8,4.8c0.1138,0.10794 0.23047,0.20794 0.35,0.3c1.3668,1.04909 2.60013,2.16576 3.7,3.35c0.28424,0.28372 0.55091,0.56706 0.8,0.85M838.7,552.8c0.2388,0.31276 0.47214,0.61276 0.7,0.9c-0.60247,-0.17552 -1.20247,-0.37552 -1.8,-0.6c0.39232,-0.08398 0.75898,-0.18398 1.1,-0.3M832.15,536.8c0.04987,2.96406 1.0832,6.41406 3.1,10.35c0.52253,1.00443 1.08919,1.98776 1.7,2.95c-1.11081,0.26667 -2.29414,0.4 -3.55,0.4c-0.37643,0 -0.7431,-0.01667 -1.1,-0.05c-0.1862,-0.11719 -0.36953,-0.23385 -0.55,-0.35c-1.82448,-1.17396 -3.44115,-2.49063 -4.85,-3.95c0.16016,-0.50469 0.32682,-0.98802 0.5,-1.45c0.92891,-2.57448 2.51224,-5.20781 4.75,-7.9M833.85,533.95c4.22018,-1.49023 8.98685,-3.39023 14.3,-5.7c0.16667,0.98854 0.25,2.03854 0.25,3.15c0,0.96667 -0.1,2.1 -0.3,3.4c-0.33333,2.4 -0.9,4.58333 -1.7,6.55c-0.24674,0.60221 -0.51341,1.16888 -0.8,1.7c-6.12253,-2.46862 -10.03919,-5.36862 -11.75,-8.7c0.08034,-0.0487 0.13034,-0.13203 0.15,-0.25c-0.04661,-0.04661 -0.09661,-0.09661 -0.15,-0.15M835,539.5c1.96667,1.9 4.55,3.68333 7.75,5.35c0.43398,0.22552 0.86732,0.44219 1.3,0.65c-1.37031,1.8056 -3.03698,3.12227 -5,3.95c-0.30794,-0.43034 -0.60794,-0.86367 -0.9,-1.3c-2.39154,-3.61172 -3.9582,-7.06172 -4.7,-10.35c0.41068,0.52266 0.92734,1.08932 1.55,1.7M822,536.75c3.13932,-1.48008 6.55599,-2.23008 10.25,-2.25l-0.05,0.3c-1.24128,0.3224 -2.39128,1.28906 -3.45,2.9c-0.83333,1.3 -1.86667,3.23333 -3.1,5.8c-0.1388,0.21745 -0.27214,0.43411 -0.4,0.65c-1.27682,-1.67826 -2.31016,-3.52826 -3.1,-5.55c-0.1,-0.60273 -0.15,-1.18607 -0.15,-1.75c0,-0.02982 0,-0.06315 0,-0.1M836.1,526.25c1.37005,-3.05391 2.92005,-5.58724 4.65,-7.6c1.28711,0.39323 2.47044,1.04323 3.55,1.95c1.53164,1.30742 2.63164,3.00742 3.3,5.1c-0.92682,0.33008 -1.91016,0.68008 -2.95,1.05c-6.17005,2.20547 -9.92005,3.9888 -11.25,5.35c0.66758,-1.37396 1.56758,-3.32396 2.7,-5.85M829.05,532.6c-2.82852,-0.06263 -4.96185,0.15404 -6.4,0.65c-0.14557,0.08919 -0.29557,0.17253 -0.45,0.25c0.38906,-2.71419 1.23906,-5.16419 2.55,-7.35c1.22409,3.05456 2.65742,5.20456 4.3,6.45M837.35,518.25c-1.36354,1.74857 -2.56354,3.6819 -3.6,5.8c-1.34479,2.80391 -2.11146,5.37057 -2.3,7.7c-1.88372,-1.47669 -3.43372,-3.49336 -4.65,-6.05c-0.23594,-0.50911 -0.4526,-1.00911 -0.65,-1.5c2.46667,-3.1 5.48333,-5 9.05,-5.7c0.75195,-0.14766 1.46862,-0.23099 2.15,-0.25M823.75,523.3c-1.57266,2.10404 -2.70599,4.40404 -3.4,6.9c-0.06667,-0.8401 -0.1,-1.70677 -0.1,-2.6c0,-1.70052 0.11667,-3.28385 0.35,-4.75c0.68438,-1.0957 1.41771,-2.16237 2.2,-3.2c0.18555,1.06562 0.50221,2.28229 0.95,3.65M847.55,506.3c-1.31224,0.01302 -2.76224,0.17969 -4.35,0.5c-3.1,0.63333 -5.16667,1.35 -6.2,2.15l0.15,0.4c2.99935,-0.7776 5.79935,-1.0776 8.4,-0.9c-2.44596,3.27826 -4.39596,5.67826 -5.85,7.2c-1.36341,-0.13112 -2.81341,-0.04779 -4.35,0.25c-3.8901,0.7237 -7.2401,2.5737 -10.05,5.55c-0.26667,-1.19362 -0.4,-2.36029 -0.4,-3.5c0.05469,-0.32786 0.08802,-0.62786 0.1,-0.9c0.48971,-0.51211 0.98971,-1.01211 1.5,-1.5c2.79727,-2.67266 5.86393,-4.83932 9.2,-6.5c1.28021,-0.60846 2.58021,-1.15846 3.9,-1.65c0.22734,-0.00443 0.44401,-0.02109 0.65,-0.05v-0.15c2.68763,-0.88542 5.52096,-1.50208 8.5,-1.85c-0.41823,0.31198 -0.81823,0.62865 -1.2,0.95M852,507c0.91354,-0.56797 1.79688,-1.08464 2.65,-1.55c7.65885,1.28229 13.80885,4.34896 18.45,9.2c2.60456,2.71159 4.50456,5.57826 5.7,8.6c-3.58164,-0.83034 -7.73164,-1.19701 -12.45,-1.1c-0.11458,-0.29805 -0.23125,-0.59805 -0.35,-0.9c-1.2,-3.1 -2.73333,-5.65 -4.6,-7.65c-1.46667,-1.63333 -2.75,-2.86667 -3.85,-3.7c-1.63333,-1.26667 -3.4,-2.2 -5.3,-2.8c-0.08411,-0.03646 -0.16745,-0.06979 -0.25,-0.1M873,517.7c0.43333,-0.26667 0.65,-0.66667 0.65,-1.2c0,-1.16667 -1.81667,-3 -5.45,-5.5c-3.63333,-2.46667 -5.45,-2.4 -5.45,0.2c0,0.4 0.38333,1.03333 1.15,1.9c0.63333,0.7 1.25,1.28333 1.85,1.75c0.26667,0.2 1.35,0.76667 3.25,1.7c1.9,0.93333 2.9,1.4 3,1.4c0.36667,0 0.7,-0.08333 1,-0.25M869,521.85c0.5,0 0.86667,-0.06667 1.1,-0.2l0.3,-0.2c0.06667,0.1 0.1,-0.26667 0.1,-1.1c0,-0.66667 -0.25,-1.18333 -0.75,-1.55c-0.6,-0.46667 -1.46667,-0.53333 -2.6,-0.2c-0.03333,0.26667 -0.08333,0.41667 -0.15,0.45c0,0.06667 0,0.35 0,0.85c0,1.3 0.66667,1.95 2,1.95z" fill="#485e84"/><path d="M867,519.05c0.06667,-0.03333 0.11667,-0.18333 0.15,-0.45c1.13333,-0.33333 2,-0.26667 2.6,0.2c0.5,0.36667 0.75,0.88333 0.75,1.55c0,0.83333 -0.03333,1.2 -0.1,1.1l-0.3,0.2c-0.23333,0.13333 -0.6,0.2 -1.1,0.2c-1.33333,0 -2,-0.65 -2,-1.95c0,-0.5 0,-0.78333 0,-0.85M869,516.55c-1.9,-0.93333 -2.98333,-1.5 -3.25,-1.7c-0.6,-0.46667 -1.21667,-1.05 -1.85,-1.75c-0.76667,-0.86667 -1.15,-1.5 -1.15,-1.9c0,-2.6 1.81667,-2.66667 5.45,-0.2c3.63333,2.5 5.45,4.33333 5.45,5.5c0,0.53333 -0.21667,0.93333 -0.65,1.2c-0.3,0.16667 -0.63333,0.25 -1,0.25c-0.1,0 -1.1,-0.46667 -3,-1.4z" fill="#8fbbbe"/><path d="M592.5,400.4c-1.53333,-0.13333 -4.5,-0.26667 -8.9,-0.4c-3.33333,-0.06667 -5.86667,-0.28333 -7.6,-0.65l0.25,-0.25c2,-4.2 6.41667,-11.18333 13.25,-20.95c0.05977,-0.08529 0.10977,-0.16862 0.15,-0.25c0.52943,-0.73164 1.02943,-1.43164 1.5,-2.1c0.51133,-0.07799 0.87799,-0.22799 1.1,-0.45l0.5,-0.5c0.14935,0.14935 0.23268,-0.43398 0.25,-1.75c0.04102,-0.07083 0.07435,-0.1375 0.1,-0.2c0.38711,2.12578 0.92044,4.20911 1.6,6.25c1.8237,5.35156 4.74036,10.4349 8.75,15.25c3.24023,3.88333 6.87357,7.05 10.9,9.5c-1.90521,-0.12357 -3.90521,-0.04023 -6,0.25c-0.16849,0.02487 -0.33516,0.04154 -0.5,0.05c-4.75143,-2.0668 -9.8681,-3.33346 -15.35,-3.8z" fill="#246f44"/></g></g></svg>