<svg version="1.1" xmlns="http://www.w3.org/2000/svg" xmlns:xlink="http://www.w3.org/1999/xlink" width="46.57015" height="18.52235" viewBox="0,0,46.57015,18.52235"><g transform="translate(-616.70191,-364.23533)"><g data-paper-data="{&quot;isPaintingLayer&quot;:true}" fill-rule="nonzero" stroke="none" stroke-width="1" stroke-linecap="round" stroke-linejoin="miter" stroke-miterlimit="4" stroke-dasharray="" stroke-dashoffset="0" style="mix-blend-mode: normal"><path d="M661.29,365.95351c1.16667,0.86667 1.81667,2.35 1.95,4.45c0.16667,2.5 -0.31667,4.9 -1.45,7.2c-0.36667,0.76667 -1.03333,1.35 -2,1.75c-0.6,0.26667 -1.53333,0.51667 -2.8,0.75c-0.76667,0.16667 -2.55,0.6 -5.35,1.3c-2.2,0.56667 -3.98333,0.95 -5.35,1.15c-1.86667,0.23333 -3.96667,0.26667 -6.3,0.1c-1.56667,-0.06667 -3.68333,-0.28333 -6.35,-0.65c-4.26667,-0.5 -7.65,-1.05 -10.15,-1.65c-2.63333,-0.66667 -4.43333,-1.63333 -5.4,-2.9c-0.76667,-1.06667 -1.21667,-2.88333 -1.35,-5.45c-0.13333,-1.9 0.08333,-3.23333 0.65,-4c0.46667,-0.63333 1.18333,-1.11667 2.15,-1.45c0.23333,-0.06667 1.1,-0.28333 2.6,-0.65c1.03333,-0.23333 2.56667,-0.66667 4.6,-1.3c1.53333,-0.3 3.63333,-0.41667 6.3,-0.35c7.5,0.1 15.55,0.33333 24.15,0.7c1.93333,0.06667 3.3,0.4 4.1,1M658.09,372.55351c0,-1.26667 0.01667,-1.98333 0.05,-2.15c-1.43333,0.06667 -3.23333,0.01667 -5.4,-0.15c-2.43333,-0.23333 -4.25,-0.38333 -5.45,-0.45c-1.13333,-0.06667 -2.63333,-0.08333 -4.5,-0.05c-2.3,0 -3.78333,0 -4.45,0c-2.14974,-0.03112 -4.29974,-0.16445 -6.45,-0.4c-0.4293,0.07826 -1.0293,0.14492 -1.8,0.2c-0.9,0.1 -1.56667,0.18333 -2,0.25c-0.5,0.1 -1.53333,0.4 -3.1,0.9c-1.3,0.4 -2.35,0.61667 -3.15,0.65c-0.13333,1.43333 0.08333,2.4 0.65,2.9c0.16667,0.16667 0.55,0.36667 1.15,0.6c1.43333,0.43333 2.91667,0.78333 4.45,1.05l-0.7,-0.15c5.96081,1.08672 11.81081,1.65339 17.55,1.7c3.51107,-0.62773 7.27773,-1.4444 11.3,-2.45c0.53333,-0.13333 0.91667,-0.3 1.15,-0.5c0.46667,-0.36667 0.7,-1.01667 0.7,-1.95z" fill="#000000"/><path d="M644.94,377.45351c-5.73919,-0.04661 -11.58919,-0.61328 -17.55,-1.7l0.7,0.15c-1.53333,-0.26667 -3.01667,-0.61667 -4.45,-1.05c-0.6,-0.23333 -0.98333,-0.43333 -1.15,-0.6c-0.56667,-0.5 -0.78333,-1.46667 -0.65,-2.9c0.8,-0.03333 1.85,-0.25 3.15,-0.65c1.56667,-0.5 2.6,-0.8 3.1,-0.9c0.43333,-0.06667 1.1,-0.15 2,-0.25c0.7707,-0.05508 1.3707,-0.12174 1.8,-0.2c2.15026,0.23555 4.30026,0.36888 6.45,0.4c0.66667,0 2.15,0 4.45,0c1.86667,-0.03333 3.36667,-0.01667 4.5,0.05c1.2,0.06667 3.01667,0.21667 5.45,0.45c2.16667,0.16667 3.96667,0.21667 5.4,0.15c-0.03333,0.16667 -0.05,0.88333 -0.05,2.15c0,0.93333 -0.23333,1.58333 -0.7,1.95c-0.23333,0.2 -0.61667,0.36667 -1.15,0.5c-4.02227,1.0056 -7.78893,1.82227 -11.3,2.45z" fill="#ffffff"/></g></g></svg>