<svg version="1.1" xmlns="http://www.w3.org/2000/svg" xmlns:xlink="http://www.w3.org/1999/xlink" width="44.65566" height="66.12696" viewBox="0,0,44.65566,66.12696"><g transform="translate(-613.27339,-337.62334)"><g data-paper-data="{&quot;isPaintingLayer&quot;:true}" fill-rule="nonzero" stroke="none" stroke-width="1" stroke-linecap="round" stroke-linejoin="miter" stroke-miterlimit="4" stroke-dasharray="" stroke-dashoffset="0" style="mix-blend-mode: normal"><path d="M654.4555,347.29051c2.83333,6 3.93333,12.78333 3.3,20.35c-0.46667,5.46667 -1.68333,10.16667 -3.65,14.1c-1.3,2.63333 -3.51667,5.85 -6.65,9.65c-2.03333,2.53333 -3.73333,4.48333 -5.1,5.85c-1.96667,1.96667 -3.95,3.46667 -5.95,4.5c-2.73333,1.43333 -5.66667,2.1 -8.8,2c-3.03333,-0.13333 -5.13333,-1.13333 -6.3,-3c-0.53333,-0.9 -0.8,-1.93333 -0.8,-3.1c0,-1.13333 0.21667,-2.21667 0.65,-3.25c0.86667,-1.83333 2.31667,-3.3 4.35,-4.4c1.13333,-0.63333 1.83333,-1.1 2.1,-1.4c0.23333,-0.26667 0.58333,-0.93333 1.05,-2c0.6,-1.36667 1.43333,-2.78333 2.5,-4.25c0.63333,-0.9 1.65,-2.2 3.05,-3.9c-4.36667,0.46667 -8.58333,-0.31667 -12.65,-2.35c-2.23333,-1.13333 -3.9,-2.45 -5,-3.95c-1.1,-1.5 -1.96667,-3.73333 -2.6,-6.7c-1.2,-6.23333 -0.81667,-11.36667 1.15,-15.4c2.03333,-4.1 5.9,-7.41667 11.6,-9.95c2.46667,-1.13333 4.68333,-1.86667 6.65,-2.2c4.6,-0.76667 9.43333,0.11667 14.5,2.65c2.56667,0.66667 4.76667,2.91667 6.6,6.75M629.2555,345.59051c-2.63333,0.9 -4.8,2.08333 -6.5,3.55c-2.16667,1.86667 -3.51667,4.05 -4.05,6.55c-0.36667,1.8 -0.25,4.38333 0.35,7.75c0.3,2.06667 0.76667,3.58333 1.4,4.55c0.56667,0.86667 1.56667,1.71667 3,2.55c4.13333,2.13333 8.51667,2.58333 13.15,1.35c1.6,-0.4 2.58333,-0.6 2.95,-0.6c1.23333,0 2.11667,0.4 2.65,1.2c0.66667,0.86667 0.76667,1.98333 0.3,3.35c-0.23333,0.66667 -0.83333,1.63333 -1.8,2.9l-3.05,3.9c-0.7,0.9 -1.11667,1.53333 -1.25,1.9c-0.1,0.2 -0.38333,0.95 -0.85,2.25c-0.93333,2.83333 -2.56667,5.06667 -4.9,6.7c-0.56667,0.4 -1.43333,0.96667 -2.6,1.7c-1.06667,0.7 -1.83333,1.4 -2.3,2.1c2.83333,0.96667 5.83333,0.53333 9,-1.3c2.13333,-1.3 4.51667,-3.45 7.15,-6.45c1.7,-2.13333 2.95,-3.73333 3.75,-4.8c1.5,-1.9 2.63333,-3.6 3.4,-5.1c2.06667,-3.8 3.25,-8.31667 3.55,-13.55c0.3,-5.43333 -0.4,-10.26667 -2.1,-14.5c-0.7,-1.8 -1.5,-3.15 -2.4,-4.05c-1,-0.96667 -2.48333,-1.8 -4.45,-2.5c-2.8,-0.93333 -5.23333,-1.4 -7.3,-1.4c-2.76667,0 -5.13333,0.65 -7.1,1.95M637.6555,361.79051l-5.5,3.15c-1,0.4 -2.05,0.46667 -3.15,0.2c-0.96667,-0.23333 -1.71667,-0.7 -2.25,-1.4c-0.53333,-0.8 -0.73333,-2.01667 -0.6,-3.65c0.06667,-1.3 0.3,-2.46667 0.7,-3.5c0.53333,-1.23333 1.21667,-2.15 2.05,-2.75l-0.15,0.1c1.72878,-1.34479 3.64544,-2.21146 5.75,-2.6c0.53333,0 1.55,-0.15 3.05,-0.45c1.4,-0.2 2.45,-0.21667 3.15,-0.05c1.2,0.3 2.03333,0.91667 2.5,1.85c0.43333,0.9 0.5,1.88333 0.2,2.95c-0.26667,0.93333 -0.73333,1.8 -1.4,2.6c-0.96667,1.13333 -2.41667,2.31667 -4.35,3.55M631.7555,358.94051c0.33333,0 0.63333,0.06667 0.9,0.2c0.4,-0.63333 0.88333,-1.15 1.45,-1.55c-1.1,0.43333 -1.88333,0.88333 -2.35,1.35z" fill="#000000"/><path d="M636.3555,343.64051c2.06667,0 4.5,0.46667 7.3,1.4c1.96667,0.7 3.45,1.53333 4.45,2.5c0.9,0.9 1.7,2.25 2.4,4.05c1.7,4.23333 2.4,9.06667 2.1,14.5c-0.3,5.23333 -1.48333,9.75 -3.55,13.55c-0.76667,1.5 -1.9,3.2 -3.4,5.1c-0.8,1.06667 -2.05,2.66667 -3.75,4.8c-2.63333,3 -5.01667,5.15 -7.15,6.45c-3.16667,1.83333 -6.16667,2.26667 -9,1.3c0.46667,-0.7 1.23333,-1.4 2.3,-2.1c1.16667,-0.73333 2.03333,-1.3 2.6,-1.7c2.33333,-1.63333 3.96667,-3.86667 4.9,-6.7c0.46667,-1.3 0.75,-2.05 0.85,-2.25c0.13333,-0.36667 0.55,-1 1.25,-1.9l3.05,-3.9c0.96667,-1.26667 1.56667,-2.23333 1.8,-2.9c0.46667,-1.36667 0.36667,-2.48333 -0.3,-3.35c-0.53333,-0.8 -1.41667,-1.2 -2.65,-1.2c-0.36667,0 -1.35,0.2 -2.95,0.6c-4.63333,1.23333 -9.01667,0.78333 -13.15,-1.35c-1.43333,-0.83333 -2.43333,-1.68333 -3,-2.55c-0.63333,-0.96667 -1.1,-2.48333 -1.4,-4.55c-0.6,-3.36667 -0.71667,-5.95 -0.35,-7.75c0.53333,-2.5 1.88333,-4.68333 4.05,-6.55c1.7,-1.46667 3.86667,-2.65 6.5,-3.55c1.96667,-1.3 4.33333,-1.95 7.1,-1.95M643.4055,355.64051c0.3,-1.06667 0.23333,-2.05 -0.2,-2.95c-0.46667,-0.93333 -1.3,-1.55 -2.5,-1.85c-0.7,-0.16667 -1.75,-0.15 -3.15,0.05c-1.5,0.3 -2.51667,0.45 -3.05,0.45c-2.10456,0.38854 -4.02122,1.25521 -5.75,2.6l0.15,-0.1c-0.83333,0.6 -1.51667,1.51667 -2.05,2.75c-0.4,1.03333 -0.63333,2.2 -0.7,3.5c-0.13333,1.63333 0.06667,2.85 0.6,3.65c0.53333,0.7 1.28333,1.16667 2.25,1.4c1.1,0.26667 2.15,0.2 3.15,-0.2l5.5,-3.15c1.93333,-1.23333 3.38333,-2.41667 4.35,-3.55c0.66667,-0.8 1.13333,-1.66667 1.4,-2.6z" fill="#ffffff"/></g></g></svg>