<svg version="1.1" xmlns="http://www.w3.org/2000/svg" xmlns:xlink="http://www.w3.org/1999/xlink" width="579.36341" height="468.255" viewBox="0,0,579.36341,468.255"><g transform="translate(-356.42565,-250.55)"><g data-paper-data="{&quot;isPaintingLayer&quot;:true}" fill-rule="nonzero" stroke="none" stroke-width="1" stroke-linecap="butt" stroke-linejoin="miter" stroke-miterlimit="10" stroke-dasharray="" stroke-dashoffset="0" style="mix-blend-mode: normal"><path d="M573.98095,402.13689c3.6884,5.40229 5.8695,10.69442 6.54329,15.87641c0.41558,3.41043 0.94101,6.80015 1.5763,10.16915c1.95803,10.94661 3.20538,21.78454 3.74207,32.51378c0.04034,0.05307 0.09396,0.09605 0.16083,0.12894c5.40747,2.21124 10.64319,5.68353 15.70714,10.41688c0.09592,2.43924 -0.06504,4.84349 -0.48288,7.21276c-1.7986,10.41117 -5.48877,20.5647 -11.07052,30.4606c-2.14921,1.63394 -4.17857,2.73713 -6.08806,3.30956c-11.15763,3.33266 -22.04326,4.93031 -32.65691,4.79294c-0.44178,-1.29704 -1.04757,-2.69968 -1.81737,-4.2079c-5.76663,-11.27506 -11.39368,-22.61437 -16.88116,-34.01792c1.45934,-1.10947 2.81464,-2.32825 4.0659,-3.65634c2.8729,-3.10525 6.03876,-6.26575 9.49758,-9.48148c-0.0246,-7.85274 -0.61657,-15.81844 -1.77592,-23.89709c-1.5504,-10.79595 -3.91496,-21.72658 -7.0937,-32.79188c0.0796,-0.06052 0.12258,-0.11413 0.12894,-0.16083c1.47031,-5.55596 6.05982,-10.69897 13.76851,-15.42904c0.04034,0.05307 0.08387,0.08278 0.13057,0.08914c6.01306,-1.01254 11.77321,-0.43017 17.28046,1.74708c1.68592,1.94222 3.4409,4.25063 5.26492,6.92525z" fill-opacity="0.99608" fill="#000000"/><path d="M462.58946,490.44081c-13.61852,-6.72182 -23.39268,-14.63053 -29.3225,-23.72611c-4.42357,-6.80457 -7.33901,-14.10168 -8.74633,-21.89132c-1.42526,-7.63838 0.16907,-16.16561 4.783,-25.58169c2.67549,-5.45143 6.1517,-9.72313 10.4286,-12.81512c8.46199,-6.1562 18.86258,-9.09485 31.20176,-8.81595c6.10604,0.14651 12.65736,0.92399 19.65396,2.33242c6.98595,1.43596 14.57361,3.83232 22.76298,7.18906c6.54504,3.10054 12.7398,6.63513 18.58428,10.60377c5.46381,3.69488 10.03931,7.69484 13.7265,11.9999c7.38838,8.6788 10.60935,18.59356 9.6629,29.74429c-0.37529,4.2211 -1.764,8.65146 -4.16613,13.29106c-4.17697,7.97145 -9.59263,14.00848 -16.24697,18.11109c-8.83475,5.44254 -19.1049,8.46327 -30.81044,9.0622c-5.9975,0.30677 -12.37278,-0.24443 -19.12583,-1.6536c-7.5822,-1.57162 -15.04413,-4.18829 -22.38579,-7.85z" fill-opacity="0.99608" fill="#000000"/><path d="M486.55,627.6c0.5,1.5 0.46667,2.61667 -0.1,3.35c-0.5,0.6 -1.55,1.06667 -3.15,1.4c-0.2,0.03333 -0.45,0.05 -0.75,0.05c-0.06667,0.03333 -0.31667,0.05 -0.75,0.05c-1.63333,0 -3.01667,0.41667 -4.15,1.25c-1.06667,0.76667 -1.95,1.95 -2.65,3.55c-0.8,1.93333 -2.25,5.2 -4.35,9.8c-1.93333,4.13333 -3.38333,7.4 -4.35,9.8l-1.7,3.85c-0.43333,1 -0.63333,1.76667 -0.6,2.3c0,0.6 0.26667,1.38333 0.8,2.35c0.3,0.5 1.18333,1.88333 2.65,4.15c2.33333,3.56667 5.25,7.91667 8.75,13.05c3.9,5.76667 6.83333,10.08333 8.8,12.95c-1.16667,-0.1 -2.9,-0.25 -5.2,-0.45c-2.03333,-0.16667 -3.75,-0.38333 -5.15,-0.65c-3.6,-0.66667 -6.13333,-2.33333 -7.6,-5c-0.26667,-0.46667 -0.65,-1 -1.15,-1.6c-0.26667,-0.36667 -0.68333,-0.88333 -1.25,-1.55c-2.33333,-2.86667 -4.5,-6.18333 -6.5,-9.95c-1.6,-3 -3.25,-6.61667 -4.95,-10.85c-0.23333,-0.53333 -0.36667,-1 -0.4,-1.4c-0.06667,-0.5 -0.01667,-0.98333 0.15,-1.45c0.1,-0.26667 0.73333,-2.2 1.9,-5.8c0.73333,-2.33333 1.55,-4.21667 2.45,-5.65c2.33333,-3.76667 4.05,-7.15 5.15,-10.15c0.6,-1.66667 1.35,-3.5 2.25,-5.5c0.56667,-1.3 1.38333,-3.11667 2.45,-5.45c0.66667,-1.4 1.13333,-2.35 1.4,-2.85c0.4,-0.7 0.83333,-1.23333 1.3,-1.6c0.43333,-0.33333 1.06667,-0.63333 1.9,-0.9c0.5,-0.16667 1.55,-0.45 3.15,-0.85c2.66667,-0.7 4.66667,-1.2 6,-1.5c2.3,-0.53333 4.31667,-0.86667 6.05,-1c-1.06667,1.86667 -1.2,3.95 -0.4,6.25M765.6,658.65c0.4,0.23333 0.68333,0.4 0.85,0.5c-1.26667,0.16667 -3.08333,0.46667 -5.45,0.9c-2.03333,0.33333 -3.76667,0.46667 -5.2,0.4c-1.73333,-0.1 -4.3,0.08333 -7.7,0.55c-3.4,0.46667 -5.96667,0.65 -7.7,0.55c-0.1,0 -0.26667,0.03333 -0.5,0.1c-2.6,0.6 -6.03333,1.11667 -10.3,1.55c-5.46667,0.6 -8.91667,1 -10.35,1.2c-3.23333,0.5 -7.98333,1.18333 -14.25,2.05c-0.56667,0.06667 -1.01667,0.25 -1.35,0.55c-0.33333,0.3 -0.56667,0.71667 -0.7,1.25c-0.06667,0.23333 -0.2,0.63333 -0.4,1.2c-0.2,0.5 -0.31667,0.9 -0.35,1.2c-0.5,2.4 -1.85,9.05 -4.05,19.95c-0.13333,0.66667 -0.1,1.23333 0.1,1.7c0.2,0.5 0.56667,0.93333 1.1,1.3c0.33333,0.23333 0.78333,0.6 1.35,1.1c0.6,0.53333 1.05,0.9 1.35,1.1c8.66667,6 18.28333,11.25 28.85,15.75c3.3,1.36667 6.23333,2.53333 8.8,3.5c3.13333,1.2 6.11667,2.2 8.95,3c0.06667,0 0.13333,0.05 0.2,0.15c0.03333,0.03333 0.08333,0.1 0.15,0.2c-0.86667,0.16667 -1.86667,0.21667 -3,0.15c-0.4,-0.03333 -1.38333,-0.13333 -2.95,-0.3c-1.2,-0.16667 -2.83333,-0.41667 -4.9,-0.75c-2.4,-0.36667 -4.05,-0.61667 -4.95,-0.75c-5.93333,-0.83333 -12.08333,-2.2 -18.45,-4.1c-5.5,-1.63333 -11.41667,-3.75 -17.75,-6.35c-4.1,-1.7 -7.75,-4.51667 -10.95,-8.45c-0.53333,-0.63333 -0.83333,-1.28333 -0.9,-1.95c-0.06667,-0.6 0.05,-1.31667 0.35,-2.15c1.26667,-3.23333 2.23333,-6.3 2.9,-9.2c0.76667,-3.26667 1.2,-6.45 1.3,-9.55c0,-0.63333 0.11667,-1.2 0.35,-1.7c0.2,-0.46667 0.51667,-0.91667 0.95,-1.35c1,-0.86667 1.75,-1.53333 2.25,-2c1.7,-1.56667 2.98333,-2.75 3.85,-3.55c1.5,-1.4 2.75,-2.61667 3.75,-3.65c0.83333,-0.86667 1.21667,-1.65 1.15,-2.35c-0.03333,-0.66667 -0.5,-1.43333 -1.4,-2.3c-1.56667,-1.4 -2.73333,-2.45 -3.5,-3.15c-1.36667,-1.26667 -2.4,-2.43333 -3.1,-3.5c1.1,0.16667 2.83333,0.36667 5.2,0.6c2.26667,0.2 3.98333,0.41667 5.15,0.65c1.86667,0.33333 4.25,0.61667 7.15,0.85c4.13333,0.33333 6.51667,0.53333 7.15,0.6c3.5,0.5 6.13333,0.85 7.9,1.05c3.1,0.36667 5.75,0.46667 7.95,0.3c0.43333,-0.03333 0.76667,0 1,0.1c1.6,0.5 4.06667,0.78333 7.4,0.85c3.3,0.06667 5.76667,0.38333 7.4,0.95c1.7,-0.13333 4.18333,0.03333 7.45,0.5c3.33333,0.46667 5.8,0.66667 7.4,0.6c0.1,0 0.25,0.05 0.45,0.15z" fill="#2c2d41"/><path d="M550.1,636.6c0.73333,0.16667 1.28333,0.31667 1.65,0.45c0.63333,0.26667 1.06667,0.73333 1.3,1.4c-1.93333,-0.03333 -4.76667,-0.06667 -8.5,-0.1c-3.23333,-0.1 -6.03333,-0.38333 -8.4,-0.85c-8.96667,-1.8 -16.76667,-4.55 -23.4,-8.25c-6.5,-3.63333 -12.11667,-7.46667 -16.85,-11.5c-0.5,-0.43333 -0.96667,-0.76667 -1.4,-1c-0.53333,-0.26667 -1.08333,-0.41667 -1.65,-0.45c0.2,-0.66667 0.56667,-1.28333 1.1,-1.85c0.33333,-0.36667 0.86667,-0.85 1.6,-1.45c0.53333,-0.46667 0.91667,-1 1.15,-1.6c0.16667,-0.53333 0.23333,-1.16667 0.2,-1.9c0.46667,0.3 0.8,0.51667 1,0.65c0.43333,0.26667 0.76667,0.51667 1,0.75c1.13333,1.2 2.5,2.4 4.1,3.6c1.1,0.83333 2.6,1.88333 4.5,3.15c8.73333,5.93333 18.85,10.88333 30.35,14.85c1.06667,0.36667 3.11667,1.05 6.15,2.05c2.56667,0.83333 4.6,1.51667 6.1,2.05z" fill="#2c2d40"/><path d="M759.75,529.9c0.5,0.6 1.01667,0.98333 1.55,1.15c0.46667,0.16667 1.08333,0.15 1.85,-0.05c3.36667,-0.8 6.13333,-1.38333 8.3,-1.75c3.03333,-0.56667 5.83333,-0.91667 8.4,-1.05c5.33333,-0.33333 10.11667,1.21667 14.35,4.65c4.6,3.76667 9.1,7.03333 13.5,9.8c4.93333,3.1 9.86667,5.7 14.8,7.8c1.16667,0.46667 2.05,1.11667 2.65,1.95c0.56667,0.8 1,1.85 1.3,3.15c0.96667,4.76667 2.36667,11.36667 4.2,19.8c2,9.23333 3.41667,15.81667 4.25,19.75c2.03333,9.8 3.06667,14.76667 3.1,14.9c1.13333,5.66667 2.01667,10.65 2.65,14.95c0.56667,3.73333 1.4,7.55 2.5,11.45c0.96667,3.53333 2.2,7.23333 3.7,11.1c0.8,2 1.96667,5.01667 3.5,9.05c1.36667,3.53333 2.56667,6.55 3.6,9.05c0.63333,1.53333 0.96667,2.78333 1,3.75c0.03333,1.3 -0.4,2.51667 -1.3,3.65c-0.3,0.36667 -0.56667,0.86667 -0.8,1.5c-0.16667,0.36667 -0.36667,0.91667 -0.6,1.65c-2.06667,5.73333 -3.55,9.95 -4.45,12.65c-0.4,1.13333 -1.05,2.06667 -1.95,2.8c-1.9,1.53333 -3.26667,2.61667 -4.1,3.25c-1.56667,1.16667 -3,2.15 -4.3,2.95c-12.56667,7.6 -26.05,13.15 -40.45,16.65c-3.03333,0.76667 -6.53333,1.45 -10.5,2.05c-1.8,0.26667 -5.33333,0.75 -10.6,1.45c-4.13333,0.53333 -8.61667,0.81667 -13.45,0.85c-3.73333,0.03333 -8.21667,-0.1 -13.45,-0.4c-0.06667,-0.1 -0.11667,-0.16667 -0.15,-0.2c-0.06667,-0.1 -0.13333,-0.15 -0.2,-0.15c-2.83333,-0.8 -5.81667,-1.8 -8.95,-3c-2.56667,-0.96667 -5.5,-2.13333 -8.8,-3.5c-10.56667,-4.5 -20.18333,-9.75 -28.85,-15.75c-0.3,-0.2 -0.75,-0.56667 -1.35,-1.1c-0.56667,-0.5 -1.01667,-0.86667 -1.35,-1.1c-0.53333,-0.36667 -0.9,-0.8 -1.1,-1.3c-0.2,-0.46667 -0.23333,-1.03333 -0.1,-1.7c2.2,-10.9 3.55,-17.55 4.05,-19.95c0.03333,-0.3 0.15,-0.7 0.35,-1.2c0.2,-0.56667 0.33333,-0.96667 0.4,-1.2c0.13333,-0.53333 0.36667,-0.95 0.7,-1.25c0.33333,-0.3 0.78333,-0.48333 1.35,-0.55c6.26667,-0.86667 11.01667,-1.55 14.25,-2.05c1.43333,-0.2 4.88333,-0.6 10.35,-1.2c4.26667,-0.43333 7.7,-0.95 10.3,-1.55c0.23333,-0.06667 0.4,-0.1 0.5,-0.1c1.73333,0.1 4.3,-0.08333 7.7,-0.55c3.4,-0.46667 5.96667,-0.65 7.7,-0.55c1.43333,0.06667 3.16667,-0.06667 5.2,-0.4c2.36667,-0.43333 4.18333,-0.73333 5.45,-0.9c-0.16667,-0.1 -0.45,-0.26667 -0.85,-0.5c-0.2,-0.1 -0.35,-0.15 -0.45,-0.15c-1.6,0.06667 -4.06667,-0.13333 -7.4,-0.6c-3.26667,-0.46667 -5.75,-0.63333 -7.45,-0.5c-1.63333,-0.56667 -4.1,-0.88333 -7.4,-0.95c-3.33333,-0.06667 -5.8,-0.35 -7.4,-0.85c-0.23333,-0.1 -0.56667,-0.13333 -1,-0.1c-2.2,0.16667 -4.85,0.06667 -7.95,-0.3c-1.76667,-0.2 -4.4,-0.55 -7.9,-1.05c-0.63333,-0.06667 -3.01667,-0.26667 -7.15,-0.6c-2.9,-0.23333 -5.28333,-0.51667 -7.15,-0.85c-1.16667,-0.23333 -2.88333,-0.45 -5.15,-0.65c-2.36667,-0.23333 -4.1,-0.43333 -5.2,-0.6c-1.73333,-1.56667 -3.38333,-3.65 -4.95,-6.25c-2.4,-3.93333 -4.43333,-7.35 -6.1,-10.25c-0.33333,-0.56667 -0.71667,-0.98333 -1.15,-1.25c-0.43333,-0.26667 -0.98333,-0.38333 -1.65,-0.35c-4.9,0.03333 -8.56667,0.01667 -11,-0.05c-1.36667,-0.03333 -2.51667,-0.55 -3.45,-1.55c-0.9,-0.96667 -1.36667,-2.16667 -1.4,-3.6c-0.23333,-8.26667 -0.75,-15.88333 -1.55,-22.85c0,-0.1 -0.08333,-0.66667 -0.25,-1.7c-0.13333,-0.7 -0.18333,-1.28333 -0.15,-1.75c-0.03333,-1.8 -0.05,-2.98333 -0.05,-3.55c0,-0.83333 0.11667,-1.38333 0.35,-1.65c0.23333,-0.26667 0.75,-0.43333 1.55,-0.5c0.06667,0 1.23333,-0.01667 3.5,-0.05c1.6,0.03333 2.66667,0.06667 3.2,0.1c0.83333,0 1.45,-0.11667 1.85,-0.35c0.46667,-0.23333 0.9,-0.73333 1.3,-1.5c0.33333,-0.63333 0.83333,-1.83333 1.5,-3.6c0.1,-0.26667 0.2,-0.6 0.3,-1c0.13333,-0.5 0.21667,-0.81667 0.25,-0.95c0.96667,-3.36667 1.7,-5.9 2.2,-7.6c0.9,-3 1.73333,-5.51667 2.5,-7.55c0.36667,-1 0.56667,-1.85 0.6,-2.55c0,-0.8 -0.21667,-1.61667 -0.65,-2.45c-2,-3.73333 -4.41667,-8.46667 -7.25,-14.2c-0.36667,-0.73333 -0.73333,-1.25 -1.1,-1.55c-0.46667,-0.4 -1.08333,-0.6 -1.85,-0.6c-3.3,0 -6.95,-0.2 -10.95,-0.6c-2.63333,-0.26667 -6.26667,-0.71667 -10.9,-1.35c-3.06667,-0.4 -6.4,-1.1 -10,-2.1c-2.56667,-0.73333 -5.8,-1.78333 -9.7,-3.15c-0.26667,-0.06667 -1.16667,-0.56667 -2.7,-1.5c-1.06667,-0.63333 -1.96667,-0.85 -2.7,-0.65c-0.7,0.2 -1.48333,0.71667 -2.35,1.55c-0.5,0.5 -1.23333,1.23333 -2.2,2.2c-2.4,2.06667 -3.9,3.36667 -4.5,3.9c-2.2,2 -4.41667,4.01667 -6.65,6.05c-0.03333,0.03333 -0.05,0.11667 -0.05,0.25c0.03333,0.26667 0.05,0.45 0.05,0.55c0.76667,0.23333 1.7,0.35 2.8,0.35c1.3,-0.06667 2.26667,-0.1 2.9,-0.1c2.96667,0.03333 4.95,0.28333 5.95,0.75c1.03333,0.46667 2.45,1.83333 4.25,4.1c1,1.26667 1.98333,2.8 2.95,4.6c1.03333,1.96667 2.83333,5.53333 5.4,10.7c1.96667,3.96667 4.1,7.51667 6.4,10.65c3.73333,5.16667 6.71667,9.76667 8.95,13.8c0.96667,1.8 1.55,3.6 1.75,5.4c0.2,1.76667 0.01667,3.63333 -0.55,5.6c-3.16667,10.83333 -4.9,16.73333 -5.2,17.7c-2.03333,6.7 -4,12.53333 -5.9,17.5c-0.13333,0.36667 -0.36667,0.9 -0.7,1.6c-0.26667,0.63333 -0.33333,1.2 -0.2,1.7c0.26667,0.86667 0.18333,1.68333 -0.25,2.45c-0.23333,0.43333 -0.75,1.05 -1.55,1.85c-1.2,1.16667 -2.53333,2.13333 -4,2.9c-3.43333,1.8 -7.71667,3.63333 -12.85,5.5c-3.63333,1.3 -8.15,2.7 -13.55,4.2c-3.03333,0.83333 -7.6,2.08333 -13.7,3.75c-2.7,0.76667 -5.11667,1.61667 -7.25,2.55c-2.46667,1.06667 -4.71667,2.3 -6.75,3.7c-2.9,1.96667 -7.2,4.96667 -12.9,9c-5.06667,3.5 -9.45,6.33333 -13.15,8.5c-2.16667,1.26667 -5.08333,2.88333 -8.75,4.85c-1.4,0.73333 -2.66667,1.08333 -3.8,1.05c-0.26667,0 -2.01667,0.01667 -5.25,0.05c-2.1,0 -3.85,-0.03333 -5.25,-0.1c-10.83333,-0.63333 -20.73333,-1.75 -29.7,-3.35c-3.53333,-0.66667 -5.73333,-1.08333 -6.6,-1.25c-2.46667,-0.56667 -4.6,-1.21667 -6.4,-1.95c-1.96667,-2.86667 -4.9,-7.18333 -8.8,-12.95c-3.5,-5.13333 -6.41667,-9.48333 -8.75,-13.05c-1.46667,-2.26667 -2.35,-3.65 -2.65,-4.15c-0.53333,-0.96667 -0.8,-1.75 -0.8,-2.35c-0.03333,-0.53333 0.16667,-1.3 0.6,-2.3l1.7,-3.85c0.96667,-2.4 2.41667,-5.66667 4.35,-9.8c2.1,-4.6 3.55,-7.86667 4.35,-9.8c0.7,-1.6 1.58333,-2.78333 2.65,-3.55c1.13333,-0.83333 2.51667,-1.25 4.15,-1.25c0.43333,0 0.68333,-0.01667 0.75,-0.05c0.3,0 0.55,-0.01667 0.75,-0.05c1.6,-0.33333 2.65,-0.8 3.15,-1.4c0.56667,-0.73333 0.6,-1.85 0.1,-3.35c-0.8,-2.3 -0.66667,-4.38333 0.4,-6.25l5.9,-5.05c0.56667,0.03333 1.11667,0.18333 1.65,0.45c0.43333,0.23333 0.9,0.56667 1.4,1c4.73333,4.03333 10.35,7.86667 16.85,11.5c6.63333,3.7 14.43333,6.45 23.4,8.25c2.36667,0.46667 5.16667,0.75 8.4,0.85c3.73333,0.03333 6.56667,0.06667 8.5,0.1c-0.23333,-0.66667 -0.66667,-1.13333 -1.3,-1.4c-0.36667,-0.13333 -0.91667,-0.28333 -1.65,-0.45c-1.5,-0.53333 -3.53333,-1.21667 -6.1,-2.05c-3.03333,-1 -5.08333,-1.68333 -6.15,-2.05c-11.5,-3.96667 -21.61667,-8.91667 -30.35,-14.85c-1.9,-1.26667 -3.4,-2.31667 -4.5,-3.15c-1.6,-1.2 -2.96667,-2.4 -4.1,-3.6c-0.23333,-0.23333 -0.56667,-0.48333 -1,-0.75c-0.2,-0.13333 -0.53333,-0.35 -1,-0.65c-1.23333,-1.2 -2.46667,-2.66667 -3.7,-4.4c-0.7,-1.03333 -1.71667,-2.65 -3.05,-4.85c-0.9,-1.46667 -2.53333,-4.18333 -4.9,-8.15c-2.03333,-3.4 -3.65,-6.1 -4.85,-8.1c-0.73333,-1.23333 -1.28333,-1.91667 -1.65,-2.05c-0.4,-0.16667 -1.26667,-0.05 -2.6,0.35c-1.8,0.56667 -3.31667,0.2 -4.55,-1.1c-1.1,-1.1 -1.96667,-2 -2.6,-2.7c-0.93333,-1 -1.71667,-1.96667 -2.35,-2.9c-3.96667,-5.53333 -7.15,-10.2 -9.55,-14c-2.06667,-3.3 -4.58333,-7.41667 -7.55,-12.35c-1.66667,-2.73333 -4.15,-6.85 -7.45,-12.35c-0.56667,-0.96667 -1.43333,-2.38333 -2.6,-4.25c-0.73333,-1.26667 -1.08333,-2.18333 -1.05,-2.75c0.06667,-0.63333 0.6,-1.46667 1.6,-2.5c0.86667,-0.9 1.51667,-1.55 1.95,-1.95c0.73333,-0.7 1.45,-1.26667 2.15,-1.7c1.66667,-1.03333 3.51667,-2.28333 5.55,-3.75c0.86667,-0.66667 2.66667,-2.01667 5.4,-4.05c3.13333,-2.43333 6.53333,-2.61667 10.2,-0.55c2.13333,1.2 4.95,2.8 8.45,4.8c4.23333,2.43333 7.05,4.03333 8.45,4.8c1.13333,0.66667 2.08333,1.16667 2.85,1.5c1.1,0.46667 2.13333,0.78333 3.1,0.95c4.26667,0.83333 7.45,1.43333 9.55,1.8c3.73333,0.66667 6.95,1.1 9.65,1.3c1.53333,0.1 2.78333,0.41667 3.75,0.95c1.13333,0.63333 2,1.6 2.6,2.9c0.4,0.86667 0.98333,1.88333 1.75,3.05c0.86667,1.3 1.5,2.26667 1.9,2.9l6.05,9.5c0.53333,0 1,-0.11667 1.4,-0.35c0.2,-0.06667 0.55,-0.3 1.05,-0.7c2.76667,-2.23333 4.83333,-3.9 6.2,-5c2.46667,-1.96667 4.56667,-3.6 6.3,-4.9c2.33333,-1.73333 5.88333,-4.35 10.65,-7.85c4.73333,-3.43333 8.28333,-6.05 10.65,-7.85c0.96667,-0.7 2.13333,-1.65 3.5,-2.85l3.35,-2.95c1.9,-1.66667 3.3,-2.76667 4.2,-3.3c0.23333,-0.13333 0.46667,-0.23333 0.7,-0.3c1.66667,-12.03333 3.48333,-22.05 5.45,-30.05c0.36667,-1.5 0.75,-2.93333 1.15,-4.3c1.3,-7.66667 2.66667,-14 4.1,-19c4.06667,-14.2 10.81667,-25.83333 20.25,-34.9c9.43333,-9.16667 20.26667,-16.96667 32.5,-23.4c11.1,-5.9 25.81667,-10.93333 44.15,-15.1c29.83333,-6.83333 50.36667,-0.46667 61.6,19.1c3.83333,6.73333 6.66667,15.2 8.5,25.4c1,5.63333 1.9,12.76667 2.7,21.4c0.9,6.73333 1.35,15.58333 1.35,26.55c-0.03333,1.86667 -0.08333,3.83333 -0.15,5.9c-0.2,4.73333 -0.51667,8.93333 -0.95,12.6l-0.95,8.05c-0.76667,5.96667 -1.46667,10.4 -2.1,13.3l-0.1,0.6c0.76667,0 1.41667,0.2 1.95,0.6c0.76667,0.63333 1.46667,1.31667 2.1,2.05c0.63333,0.7 1.78333,1.9 3.45,3.6c1.46667,1.53333 2.58333,2.76667 3.35,3.7M770,551.85c0.33333,4.4 0.18333,8.95 -0.45,13.65c-0.56667,4.23333 -1.51667,8.68333 -2.85,13.35c-0.16667,0.53333 -0.28333,1 -0.35,1.4c0,0.06667 0.03333,0.13333 0.1,0.2c0.03333,0.06667 0.08333,0.15 0.15,0.25c0.1,-0.03333 0.18333,-0.05 0.25,-0.05c0.1,0 0.16667,-0.03333 0.2,-0.1c2.53333,-2.9 4.56667,-5.71667 6.1,-8.45c1.8,-3.16667 3.01667,-6.4 3.65,-9.7c0.6,-3.23333 0.38333,-6.25 -0.65,-9.05c-1,-2.76667 -2.76667,-5.26667 -5.3,-7.5c-0.2,-0.16667 -0.41667,-0.31667 -0.65,-0.45c-0.26667,-0.13333 -0.46667,-0.16667 -0.6,-0.1c-0.6,0.23333 -0.7,0.78333 -0.3,1.65c0.3,0.63333 0.5,1.43333 0.6,2.4c0.03333,0.53333 0.06667,1.36667 0.1,2.5M705.8,429.55c-2.33333,20.4 -4.6,29.88333 -6.8,28.45c-16.33333,4.43333 -32.86667,6.7 -49.6,6.8c-16.73333,0.06667 -30.2,-2.2 -40.4,-6.8c0.5,-9.36667 1.58333,-19.5 3.25,-30.4c-1.8,0.03333 -5.46667,3.36667 -11,10c-5.53333,6.63333 -9.43333,12.85 -11.7,18.65c-2.26667,5.8 -4.18333,15.65 -5.75,29.55c-0.06667,5.2 0.63333,8.71667 2.1,10.55c1.86667,2.36667 5.6,6.11667 11.2,11.25c5.56667,5.1 12.3,9.36667 20.2,12.8c7.9,3.43333 14.06667,5.51667 18.5,6.25c2.03333,0.23333 5,0.61667 8.9,1.15c4.03333,0.56667 7,0.95 8.9,1.15c1.96667,0.23333 4.46667,0.36667 7.5,0.4c1.5,0.03333 4.25,0.03333 8.25,0c3.46667,0 6.21667,0.01667 8.25,0.05c2.4,0.06667 5.05,-0.05 7.95,-0.35c2.03333,-0.23333 4.66667,-0.6 7.9,-1.1l5.7,-1.1c4.66667,-1 9.11667,-2.26667 13.35,-3.8c13.5,-4.93333 22.93333,-12.03333 28.3,-21.3c0.96667,-1.66667 1.95,-3.93333 2.95,-6.8c1.43333,-4.06667 2.33333,-7.88333 2.7,-11.45c0.13333,-1.3 0.2,-2.63333 0.2,-4v-0.05c0.43333,-15.03333 -2.06667,-34.06667 -7.5,-57.1c-4.33333,-18.2 -14.41667,-28.2 -30.25,-30c0.26667,4.36667 -0.76667,16.76667 -3.1,37.2M555.75,578.45c0.2,0.63333 0.55,1.1 1.05,1.4c0.16667,0.1 0.61667,0.25 1.35,0.45c1.8,0.53333 3.16667,0.93333 4.1,1.2c1.56667,0.4 2.93333,0.68333 4.1,0.85c5.4,0.7 10.25,-0.56667 14.55,-3.8c1.3,-1 2.28333,-1.8 2.95,-2.4c1.03333,-0.9 1.85,-1.81667 2.45,-2.75c1.16667,-1.43333 2.03333,-2.55 2.6,-3.35c1.03333,-1.4 1.65,-2.88333 1.85,-4.45c-5.03333,3.43333 -10.71667,6.23333 -17.05,8.4c-4.83333,1.63333 -10.81667,3.11667 -17.95,4.45M516.25,590.4c-5.4,-0.8 -9.96667,-1.53333 -13.7,-2.2c-4.93333,-0.9 -9.45,-1.9 -13.55,-3c-0.46667,-0.1 -1.08333,-0.33333 -1.85,-0.7c-0.93333,-0.4 -1.55,-0.66667 -1.85,-0.8c-0.2,-0.06667 -0.45,-0.1 -0.75,-0.1c-0.3,0 -0.5,0.06667 -0.6,0.2c-0.26667,0.3 -0.3,0.58333 -0.1,0.85c0.13333,0.13333 0.4,0.31667 0.8,0.55c3.76667,2.26667 6.6,3.96667 8.5,5.1c3.33333,1.96667 6.21667,3.61667 8.65,4.95c1.86667,1.03333 3.41667,1.68333 4.65,1.95c1,0.23333 2.58333,0.33333 4.75,0.3c0.96667,0.13333 2.01667,0.01667 3.15,-0.35c0.9,-0.3 1.93333,-0.8 3.1,-1.5c1.03333,-0.53333 1.8,-0.96667 2.3,-1.3c0.83333,-0.6 1.41667,-1.28333 1.75,-2.05c-0.5,-0.86667 -1.28333,-1.4 -2.35,-1.6c-0.63333,-0.13333 -1.6,-0.23333 -2.9,-0.3M720.3,641.05c1.03333,0.2 2.08333,0.26667 3.15,0.2c1,-0.06667 2.06667,-0.23333 3.2,-0.5c2,-0.53333 4.15,-1.4 6.45,-2.6c1.16667,-0.6 3.16667,-1.76667 6,-3.5c0.2,-0.13333 0.45,-0.36667 0.75,-0.7c0.63333,-0.73333 1.01667,-1.18333 1.15,-1.35c-0.2,-0.03333 -0.76667,-0.08333 -1.7,-0.15c-0.46667,-0.03333 -0.83333,-0.05 -1.1,-0.05c-2.83333,0.36667 -7.08333,0.93333 -12.75,1.7c-0.43333,0.06667 -1.08333,0.16667 -1.95,0.3c-7.66667,0.9 -14.93333,1.25 -21.8,1.05c-0.2,-0.03333 -0.45,-0.03333 -0.75,0c-0.16667,0.03333 -0.43333,0.06667 -0.8,0.1c0.13333,0.6 0.46667,0.93333 1,1c0.63333,0 1.08333,0.03333 1.35,0.1c2.7,0.9 5.63333,1.73333 8.8,2.5c2.6,0.6 5.6,1.23333 9,1.9z" fill="#000000"/><path d="M702.5,636.65c-0.26667,-0.06667 -0.71667,-0.1 -1.35,-0.1c-0.53333,-0.06667 -0.86667,-0.4 -1,-1c0.36667,-0.03333 0.63333,-0.06667 0.8,-0.1c0.3,-0.03333 0.55,-0.03333 0.75,0c6.86667,0.2 14.13333,-0.15 21.8,-1.05c0.86667,-0.13333 1.51667,-0.23333 1.95,-0.3c5.66667,-0.76667 9.91667,-1.33333 12.75,-1.7c0.26667,0 0.63333,0.01667 1.1,0.05c0.93333,0.06667 1.5,0.11667 1.7,0.15c-0.13333,0.16667 -0.51667,0.61667 -1.15,1.35c-0.3,0.33333 -0.55,0.56667 -0.75,0.7c-2.83333,1.73333 -4.83333,2.9 -6,3.5c-2.3,1.2 -4.45,2.06667 -6.45,2.6c-1.13333,0.26667 -2.2,0.43333 -3.2,0.5c-1.06667,0.06667 -2.11667,0 -3.15,-0.2c-3.4,-0.66667 -6.4,-1.3 -9,-1.9c-3.16667,-0.76667 -6.1,-1.6 -8.8,-2.5M573.7,574c6.33333,-2.16667 12.01667,-4.96667 17.05,-8.4c-0.2,1.56667 -0.81667,3.05 -1.85,4.45c-0.56667,0.8 -1.43333,1.91667 -2.6,3.35c-0.6,0.93333 -1.41667,1.85 -2.45,2.75c-0.66667,0.6 -1.65,1.4 -2.95,2.4c-4.3,3.23333 -9.15,4.5 -14.55,3.8c-1.16667,-0.16667 -2.53333,-0.45 -4.1,-0.85c-0.93333,-0.26667 -2.3,-0.66667 -4.1,-1.2c-0.73333,-0.2 -1.18333,-0.35 -1.35,-0.45c-0.5,-0.3 -0.85,-0.76667 -1.05,-1.4c7.13333,-1.33333 13.11667,-2.81667 17.95,-4.45M769.3,546.95c-0.4,-0.86667 -0.3,-1.41667 0.3,-1.65c0.13333,-0.06667 0.33333,-0.03333 0.6,0.1c0.23333,0.13333 0.45,0.28333 0.65,0.45c2.53333,2.23333 4.3,4.73333 5.3,7.5c1.03333,2.8 1.25,5.81667 0.65,9.05c-0.63333,3.3 -1.85,6.53333 -3.65,9.7c-1.53333,2.73333 -3.56667,5.55 -6.1,8.45c-0.03333,0.06667 -0.1,0.1 -0.2,0.1c-0.06667,0 -0.15,0.01667 -0.25,0.05c-0.06667,-0.1 -0.11667,-0.18333 -0.15,-0.25c-0.06667,-0.06667 -0.1,-0.13333 -0.1,-0.2c0.06667,-0.4 0.18333,-0.86667 0.35,-1.4c1.33333,-4.66667 2.28333,-9.11667 2.85,-13.35c0.63333,-4.7 0.78333,-9.25 0.45,-13.65c-0.03333,-1.13333 -0.06667,-1.96667 -0.1,-2.5c-0.1,-0.96667 -0.3,-1.76667 -0.6,-2.4z" fill="#2b2c3f"/><path d="M521.5,592.3c-0.33333,0.76667 -0.91667,1.45 -1.75,2.05c-0.5,0.33333 -1.26667,0.76667 -2.3,1.3c-1.16667,0.7 -2.2,1.2 -3.1,1.5c-1.13333,0.36667 -2.18333,0.48333 -3.15,0.35c-2.16667,0.03333 -3.75,-0.06667 -4.75,-0.3c-1.23333,-0.26667 -2.78333,-0.91667 -4.65,-1.95c-2.43333,-1.33333 -5.31667,-2.98333 -8.65,-4.95c-1.9,-1.13333 -4.73333,-2.83333 -8.5,-5.1c-0.4,-0.23333 -0.66667,-0.41667 -0.8,-0.55c-0.2,-0.26667 -0.16667,-0.55 0.1,-0.85c0.1,-0.13333 0.3,-0.2 0.6,-0.2c0.3,0 0.55,0.03333 0.75,0.1c0.3,0.13333 0.91667,0.4 1.85,0.8c0.76667,0.36667 1.38333,0.6 1.85,0.7c4.1,1.1 8.61667,2.1 13.55,3c3.73333,0.66667 8.3,1.4 13.7,2.2c1.3,0.06667 2.26667,0.16667 2.9,0.3c1.06667,0.2 1.85,0.73333 2.35,1.6z" fill="#2b2c40"/><path d="M739.15,422.35c5.43333,23.03333 7.93333,42.06667 7.5,57.1v0.05c0,1.36667 -0.06667,2.7 -0.2,4c-0.36667,3.56667 -1.26667,7.38333 -2.7,11.45c-1,2.86667 -1.98333,5.13333 -2.95,6.8c-5.36667,9.26667 -14.8,16.36667 -28.3,21.3c-4.23333,1.53333 -8.68333,2.8 -13.35,3.8l-5.7,1.1c-3.23333,0.5 -5.86667,0.86667 -7.9,1.1c-2.9,0.3 -5.55,0.41667 -7.95,0.35c-2.03333,-0.03333 -4.78333,-0.05 -8.25,-0.05c-4,0.03333 -6.75,0.03333 -8.25,0c-3.03333,-0.03333 -5.53333,-0.16667 -7.5,-0.4c-1.9,-0.2 -4.86667,-0.58333 -8.9,-1.15c-3.9,-0.53333 -6.86667,-0.91667 -8.9,-1.15c-4.43333,-0.73333 -10.6,-2.81667 -18.5,-6.25c-7.9,-3.43333 -14.63333,-7.7 -20.2,-12.8c-5.6,-5.13333 -9.33333,-8.88333 -11.2,-11.25c-1.46667,-1.83333 -2.16667,-5.35 -2.1,-10.55c1.56667,-13.9 3.48333,-23.75 5.75,-29.55c2.26667,-5.8 6.16667,-12.01667 11.7,-18.65c5.53333,-6.63333 9.2,-9.96667 11,-10c-1.66667,10.9 -2.75,21.03333 -3.25,30.4c10.2,4.6 23.66667,6.86667 40.4,6.8c16.73333,-0.1 33.26667,-2.36667 49.6,-6.8c2.2,1.43333 4.46667,-8.05 6.8,-28.45c2.33333,-20.43333 3.36667,-32.83333 3.1,-37.2c15.83333,1.8 25.91667,11.8 30.25,30z" fill="#ffffff"/><path d="M809.9,409.45c0.56667,-0.66667 0.95,-1.3 1.15,-1.9c0.3,0.2 0.53333,0.53333 0.7,1l0.35,1.15c0.1,0.16667 0.65,0.93333 1.65,2.3c0.63333,0.9 0.93333,1.71667 0.9,2.45c-0.06667,0.86667 -0.53333,1.7 -1.4,2.5c-0.46667,0.46667 -1.21667,1.13333 -2.25,2c-0.96667,1.03333 -1.45,1.71667 -1.45,2.05c0,0.46667 0.65,1.11667 1.95,1.95c0.83333,0.53333 1.76667,1.21667 2.8,2.05c0.6,0.5 1.48333,1.25 2.65,2.25c2.2,1.86667 3.21667,4.03333 3.05,6.5c-0.06667,0.83333 -0.13333,2.06667 -0.2,3.7c-0.06667,1.43333 -0.23333,2.66667 -0.5,3.7c-0.3,1.33333 -0.56667,2.96667 -0.8,4.9c-0.13333,1.1 -0.31667,2.75 -0.55,4.95c-0.1,1.06667 0.05,2 0.45,2.8c0.4,0.76667 1.08333,1.48333 2.05,2.15c1.23333,0.83333 2.83333,1.53333 4.8,2.1c2.23333,0.53333 3.9,0.96667 5,1.3c0.36667,0.13333 0.7,0.01667 1,-0.35c0.26667,-0.33333 0.31667,-0.73333 0.15,-1.2c-0.36667,-1.03333 -0.38333,-1.95 -0.05,-2.75c0.26667,-0.7 0.83333,-1.36667 1.7,-2c0.43333,-0.3 0.96667,-0.63333 1.6,-1c0.73333,-0.43333 1.28333,-0.75 1.65,-0.95c-0.53333,1.33333 -0.6,2.61667 -0.2,3.85c0.3,0.83333 0.93333,1.9 1.9,3.2c0.2,0.23333 0.48333,0.65 0.85,1.25c0.33333,0.53333 0.6,0.93333 0.8,1.2c0.53333,0.7 0.88333,1.26667 1.05,1.7c0.2,0.63333 0.18333,1.28333 -0.05,1.95c-0.13333,0.36667 -0.08333,0.68333 0.15,0.95l0.7,0.65c0.5,0.43333 1.25,1.1 2.25,2c0.86667,0.76667 1.56667,1.46667 2.1,2.1c1.2,1.43333 2.63333,2.61667 4.3,3.55c1.43333,0.83333 3.18333,1.55 5.25,2.15c1.9,0.56667 3.61667,0.8 5.15,0.7c1.66667,-0.13333 3.28333,-0.65 4.85,-1.55c1.83333,-1.06667 3.23333,-1.81667 4.2,-2.25c1.6,-0.76667 3.08333,-1.26667 4.45,-1.5c1.73333,-0.26667 3.46667,-0.83333 5.2,-1.7c1.33333,-0.66667 2.86667,-1.61667 4.6,-2.85c-0.4,2.5 -1.26667,4.58333 -2.6,6.25c-1.33333,1.73333 -3.18333,3.08333 -5.55,4.05c-2.03333,0.83333 -4.35,1.91667 -6.95,3.25c-0.06667,0.03333 -2.35,1.23333 -6.85,3.6c-1.36667,0.7 -2.68333,1.06667 -3.95,1.1c-1.33333,0.03333 -2.68333,-0.33333 -4.05,-1.1c-5.2,-2.9 -9.71667,-5.93333 -13.55,-9.1c-1.6,-1.16667 -2.78333,-2.06667 -3.55,-2.7c-1.36667,-1.1 -2.35,-2.2 -2.95,-3.3c0.06667,-0.7 0.23333,-1.3 0.5,-1.8c0.33333,-0.5 0.81667,-0.93333 1.45,-1.3c1.13333,-0.66667 1.08333,-1.36667 -0.15,-2.1c-0.53333,-0.3 -0.96667,-0.5 -1.3,-0.6c-0.4,-0.13333 -0.73333,-0.13333 -1,0c-0.3,0.13333 -0.45,0.38333 -0.45,0.75c-0.03333,0.9 -0.2,1.65 -0.5,2.25c-0.36667,0.7 -0.91667,1.25 -1.65,1.65c-2.56667,0.2 -5.23333,-0.31667 -8,-1.55c-1.13333,-0.53333 -3.48333,-1.9 -7.05,-4.1c-0.76667,-0.46667 -1.4,-1.11667 -1.9,-1.95c-0.46667,-0.8 -0.75,-1.66667 -0.85,-2.6c-0.36667,-3.53333 -0.66667,-7.5 -0.9,-11.9c-0.06667,-0.9 -0.01667,-1.96667 0.15,-3.2c0.2,-1.43333 0.33333,-2.51667 0.4,-3.25c0.43333,-3.26667 0.2,-5.61667 -0.7,-7.05c-0.73333,-1.23333 -2.43333,-2.35 -5.1,-3.35c-0.9,-0.36667 -1.5,-0.63333 -1.8,-0.8c-1.13333,-0.7 -1.95,-1.26667 -2.45,-1.7c-0.7,-0.63333 -1.13333,-1.28333 -1.3,-1.95c-0.16667,-0.73333 -0.03333,-1.56667 0.4,-2.5c2.03333,-4.1 4.28333,-7.56667 6.75,-10.4c0.7,-0.73333 1.2,-1.28333 1.5,-1.65z" fill="#2c2d41"/><path d="M791.9,384.9c2.83333,1.03333 4.85,1.78333 6.05,2.25c0.9,0.33333 1.46667,0.68333 1.7,1.05c0.23333,0.36667 0.28333,1 0.15,1.9c-0.1,0.93333 -0.31667,2.33333 -0.65,4.2c-0.23333,1.63333 -0.3,3.03333 -0.2,4.2v0.05c-1,1.1 -2.3,2.28333 -3.9,3.55c-0.93333,0.73333 -2.35,1.8 -4.25,3.2c-0.23333,0.2 -0.53333,0.3 -0.9,0.3c-0.23333,0 -0.55,-0.03333 -0.95,-0.1c-0.03333,-1.76667 -0.05,-3.1 -0.05,-4c-0.03333,-1.56667 -0.05,-2.9 -0.05,-4c0.03333,-4.66667 0.11667,-8.31667 0.25,-10.95c0.03333,-0.83333 0.31667,-1.38333 0.85,-1.65c0.46667,-0.26667 1.11667,-0.26667 1.95,0M811.8,381.35c-0.43333,0.6 -0.7,1.26667 -0.8,2c-0.06667,0.63333 -0.03333,1.36667 0.1,2.2l-0.15,2c-0.03333,0.03333 -0.26667,0.61667 -0.7,1.75c-0.26667,0.7 -0.63333,1.23333 -1.1,1.6c-0.76667,0.56667 -1.73333,1.3 -2.9,2.2c-0.66667,0.5 -1.71667,1.31667 -3.15,2.45l-0.25,-5.05l2.4,-17.55l0.7,-0.05c0.23333,-0.03333 0.4,-0.01667 0.5,0.05c1.36667,0.53333 2.38333,0.93333 3.05,1.2c1.2,0.46667 2.03333,1.08333 2.5,1.85c0.33333,0.6 0.4,1.46667 0.2,2.6c-0.3,1.43333 -0.43333,2.35 -0.4,2.75z" fill="#fbfbfb"/><path d="M811,383.35c0.1,-0.73333 0.36667,-1.4 0.8,-2c0.2,0.96667 0.28333,1.7 0.25,2.2c-0.06667,0.76667 -0.38333,1.43333 -0.95,2c-0.13333,-0.83333 -0.16667,-1.56667 -0.1,-2.2M835.25,368.2c-0.66667,2.76667 -1.4,5.31667 -2.2,7.65c-0.93333,2.6 -2.41667,4.75 -4.45,6.45c-0.06667,0.03333 -2.51667,2.01667 -7.35,5.95c-2.96667,2.36667 -5.4,4.36667 -7.3,6c-1.5,1.23333 -2.36667,1.98333 -2.6,2.25c-0.86667,0.96667 -1.36667,2.01667 -1.5,3.15c-1.1,-0.5 -2.13333,-0.26667 -3.1,0.7c-3.4,3.33333 -6.35,6.18333 -8.85,8.55c-1.46667,1.46667 -2.9,2.53333 -4.3,3.2c-0.8,0.36667 -1.5,0.6 -2.1,0.7c-0.76667,0.13333 -1.48333,0.08333 -2.15,-0.15c-0.96667,-0.3 -1.7,-0.63333 -2.2,-1c-0.7,-0.5 -1.16667,-1.16667 -1.4,-2c1.43333,-0.43333 2.28333,-0.83333 2.55,-1.2c0.26667,-0.33333 0.48333,-1.31667 0.65,-2.95c0.4,0.06667 0.71667,0.1 0.95,0.1c0.36667,0 0.66667,-0.1 0.9,-0.3c1.9,-1.4 3.31667,-2.46667 4.25,-3.2c1.6,-1.26667 2.9,-2.45 3.9,-3.55c0.03125,-0.03125 0.08125,-0.04792 0.15,-0.05c2,-1.06667 2.95,-2.7 2.85,-4.9c-0.03333,-0.76667 -0.01667,-1.31667 0.05,-1.65c0.1,-0.6 0.38333,-1.08333 0.85,-1.45l0.25,5.05c1.43333,-1.13333 2.48333,-1.95 3.15,-2.45c1.16667,-0.9 2.13333,-1.63333 2.9,-2.2c0.46667,-0.36667 0.83333,-0.9 1.1,-1.6c0.43333,-1.13333 0.66667,-1.71667 0.7,-1.75c0.33333,-0.06667 0.58333,-0.11667 0.75,-0.15c0.3,-0.03333 0.51667,-0.1 0.65,-0.2c4.26667,-3.3 9.23333,-7.18333 14.9,-11.65c0.56667,-0.43333 1,-0.93333 1.3,-1.5c1.6,-2.66667 2.78333,-4.66667 3.55,-6c1.36667,-2.36667 2.35,-4.48333 2.95,-6.35c0.23333,-0.76667 0.38333,-1.21667 0.45,-1.35c0.23333,-0.46667 0.6,-0.76667 1.1,-0.9c0,0.03333 0.06667,0.2 0.2,0.5c0.03333,0.2 0.05,0.35 0.05,0.45c-0.53333,2.96667 -1.06667,5.56667 -1.6,7.8z" fill="#2c2d40"/><path d="M918.15,444.2c-4.93333,6.1 -10.55,11.6 -16.85,16.5c-0.53333,0.43333 -1.13333,0.73333 -1.8,0.9c-0.53333,0.16667 -1.16667,0.23333 -1.9,0.2c-1.1,0 -2.75,0 -4.95,0c-1.93333,0 -3.58333,-0.03333 -4.95,-0.1c-0.53333,0 -1.01667,0.08333 -1.45,0.25c-0.36667,0.16667 -0.76667,0.41667 -1.2,0.75c-0.23333,-1.5 -0.88333,-3 -1.95,-4.5c-0.3,-0.36667 -0.46667,-0.65 -0.5,-0.85c-0.1,-0.33333 -0.03333,-0.65 0.2,-0.95c0.46667,-0.56667 1.05,-0.8 1.75,-0.7c1.63333,0.26667 2.86667,0.46667 3.7,0.6c1.4,0.26667 2.61667,0.51667 3.65,0.75c2.33333,0.53333 4.45,0.61667 6.35,0.25c2.1,-0.4 4.03333,-1.33333 5.8,-2.8c1.5,-1.26667 3.43333,-2.81667 5.8,-4.65c3.9,-3.03333 5.86667,-4.56667 5.9,-4.6c0.5,-0.46667 0.86667,-0.8 1.1,-1c0.46667,-0.33333 0.93333,-0.51667 1.4,-0.55c-0.03333,0.06667 -0.05,0.15 -0.05,0.25c0,0.1 -0.01667,0.18333 -0.05,0.25z" fill="#2d2e42"/><path d="M919.05,359.65c1.33333,1.66667 2.68333,3.56667 4.05,5.7c1,1.6 2.16667,3.61667 3.5,6.05c2,3.56667 3.58333,6.58333 4.75,9.05c1.56667,3.33333 2.81667,6.5 3.75,9.5c0.7,2.36667 0.86667,4.48333 0.5,6.35c-0.4,2 -1.01667,5.01667 -1.85,9.05c-0.73333,3.56667 -1.33333,6.56667 -1.8,9c-0.3,1.7 -0.91667,3.15 -1.85,4.35c-0.9,1.13333 -2.11667,2.1 -3.65,2.9c-2.86667,1.5 -4.95,2.53333 -6.25,3.1c-0.96667,0.43333 -1.65,1 -2.05,1.7c-0.36667,0.66667 -0.46667,1.55 -0.3,2.65c0.2,1.6 0.4,3.5 0.6,5.7c0.13333,1.26667 0.31667,3.16667 0.55,5.7c0.06667,0.8 0.06667,1.36667 0,1.7c-0.06667,0.63333 -0.31667,1.15 -0.75,1.55c-0.46667,0.03333 -0.93333,0.21667 -1.4,0.55c-0.23333,0.2 -0.6,0.53333 -1.1,1c-0.03333,0.03333 -2,1.56667 -5.9,4.6c-2.36667,1.83333 -4.3,3.38333 -5.8,4.65c-1.76667,1.46667 -3.7,2.4 -5.8,2.8c-1.9,0.36667 -4.01667,0.28333 -6.35,-0.25c-1.03333,-0.23333 -2.25,-0.48333 -3.65,-0.75c-0.83333,-0.13333 -2.06667,-0.33333 -3.7,-0.6c-0.7,-0.1 -1.28333,0.13333 -1.75,0.7c-0.23333,0.3 -0.3,0.61667 -0.2,0.95c0.03333,0.2 0.2,0.48333 0.5,0.85c1.06667,1.5 1.71667,3 1.95,4.5c-0.06667,0.83333 -0.16667,1.5 -0.3,2c-0.2,0.7 -0.5,1.3 -0.9,1.8c-1.73333,1.23333 -3.26667,2.18333 -4.6,2.85c-1.73333,0.86667 -3.46667,1.43333 -5.2,1.7c-1.36667,0.23333 -2.85,0.73333 -4.45,1.5c-0.96667,0.43333 -2.36667,1.18333 -4.2,2.25c-1.56667,0.9 -3.18333,1.41667 -4.85,1.55c-1.53333,0.1 -3.25,-0.13333 -5.15,-0.7c-2.06667,-0.6 -3.81667,-1.31667 -5.25,-2.15c-1.66667,-0.93333 -3.1,-2.11667 -4.3,-3.55c-0.53333,-0.63333 -1.23333,-1.33333 -2.1,-2.1c-1,-0.9 -1.75,-1.56667 -2.25,-2l-0.7,-0.65c-0.23333,-0.26667 -0.28333,-0.58333 -0.15,-0.95c0.23333,-0.66667 0.25,-1.31667 0.05,-1.95c-0.16667,-0.43333 -0.51667,-1 -1.05,-1.7c-0.2,-0.26667 -0.46667,-0.66667 -0.8,-1.2c-0.36667,-0.6 -0.65,-1.01667 -0.85,-1.25c-0.96667,-1.3 -1.6,-2.36667 -1.9,-3.2c-0.4,-1.23333 -0.33333,-2.51667 0.2,-3.85c-0.36667,0.2 -0.91667,0.51667 -1.65,0.95c-0.63333,0.36667 -1.16667,0.7 -1.6,1c-0.86667,0.63333 -1.43333,1.3 -1.7,2c-0.33333,0.8 -0.31667,1.71667 0.05,2.75c0.16667,0.46667 0.11667,0.86667 -0.15,1.2c-0.3,0.36667 -0.63333,0.48333 -1,0.35c-1.1,-0.33333 -2.76667,-0.76667 -5,-1.3c-1.96667,-0.56667 -3.56667,-1.26667 -4.8,-2.1c-0.96667,-0.66667 -1.65,-1.38333 -2.05,-2.15c-0.4,-0.8 -0.55,-1.73333 -0.45,-2.8c0.23333,-2.2 0.41667,-3.85 0.55,-4.95c0.23333,-1.93333 0.5,-3.56667 0.8,-4.9c0.26667,-1.03333 0.43333,-2.26667 0.5,-3.7c0.06667,-1.63333 0.13333,-2.86667 0.2,-3.7c0.16667,-2.46667 -0.85,-4.63333 -3.05,-6.5c-1.16667,-1 -2.05,-1.75 -2.65,-2.25c-1.03333,-0.83333 -1.96667,-1.51667 -2.8,-2.05c-1.3,-0.83333 -1.95,-1.48333 -1.95,-1.95c0,-0.33333 0.48333,-1.01667 1.45,-2.05c1.03333,-0.86667 1.78333,-1.53333 2.25,-2c0.86667,-0.8 1.33333,-1.63333 1.4,-2.5c0.03333,-0.73333 -0.26667,-1.55 -0.9,-2.45c-1,-1.36667 -1.55,-2.13333 -1.65,-2.3l-0.35,-1.15c-0.16667,-0.46667 -0.4,-0.8 -0.7,-1c-0.46667,-2.03333 -0.75,-3.33333 -0.85,-3.9c-0.26667,-1.5 -0.38333,-2.83333 -0.35,-4c0.13333,-1.13333 0.63333,-2.18333 1.5,-3.15c0.23333,-0.26667 1.1,-1.01667 2.6,-2.25c1.9,-1.63333 4.33333,-3.63333 7.3,-6c4.83333,-3.93333 7.28333,-5.91667 7.35,-5.95c2.03333,-1.7 3.51667,-3.85 4.45,-6.45c0.8,-2.33333 1.53333,-4.88333 2.2,-7.65c0.53333,-2.23333 1.06667,-4.83333 1.6,-7.8c0,-0.1 -0.01667,-0.25 -0.05,-0.45c-0.13333,-0.3 -0.2,-0.46667 -0.2,-0.5c-0.5,0.13333 -0.86667,0.43333 -1.1,0.9c-0.06667,0.13333 -0.21667,0.58333 -0.45,1.35c-0.6,1.86667 -1.58333,3.98333 -2.95,6.35c-0.76667,1.33333 -1.95,3.33333 -3.55,6c-0.3,0.56667 -0.73333,1.06667 -1.3,1.5c-5.66667,4.46667 -10.63333,8.35 -14.9,11.65c-0.13333,0.1 -0.35,0.16667 -0.65,0.2c-0.16667,0.03333 -0.41667,0.08333 -0.75,0.15l0.15,-2c0.56667,-0.56667 0.88333,-1.23333 0.95,-2c0.03333,-0.5 -0.05,-1.23333 -0.25,-2.2c-0.03333,-0.4 0.1,-1.31667 0.4,-2.75c0.2,-1.13333 0.13333,-2 -0.2,-2.6c-0.46667,-0.76667 -1.3,-1.38333 -2.5,-1.85c-0.66667,-0.26667 -1.68333,-0.66667 -3.05,-1.2c-0.1,-0.06667 -0.26667,-0.08333 -0.5,-0.05l-0.7,0.05l-2.4,17.55c-0.46667,0.36667 -0.75,0.85 -0.85,1.45c-0.06667,0.33333 -0.08333,0.88333 -0.05,1.65c0.1,2.2 -0.85,3.83333 -2.85,4.9c-0.06875,0 -0.11875,0 -0.15,0c-0.1,-1.16667 -0.03333,-2.56667 0.2,-4.2c0.33333,-1.86667 0.55,-3.26667 0.65,-4.2c0.13333,-0.9 0.08333,-1.53333 -0.15,-1.9c-0.23333,-0.36667 -0.8,-0.71667 -1.7,-1.05c-1.2,-0.46667 -3.21667,-1.21667 -6.05,-2.25c-0.83333,-0.26667 -1.48333,-0.26667 -1.95,0c-0.53333,0.26667 -0.81667,0.81667 -0.85,1.65c-0.13333,2.63333 -0.21667,6.28333 -0.25,10.95c0,1.1 0.01667,2.43333 0.05,4c0,0.9 0.01667,2.23333 0.05,4c-0.16667,1.63333 -0.38333,2.61667 -0.65,2.95c-0.26667,0.36667 -1.11667,0.76667 -2.55,1.2c0.23333,0.83333 0.7,1.5 1.4,2c0.5,0.36667 1.23333,0.7 2.2,1c0.66667,0.23333 1.38333,0.28333 2.15,0.15c0.6,-0.1 1.3,-0.33333 2.1,-0.7l1.25,2.8c0.96667,2.3 1.8,4.46667 2.5,6.5c0.7,2.1 0.81667,3.9 0.35,5.4c-0.33333,0.96667 -2.6,8.03333 -6.8,21.2l-21.9,19l-36,-19l-4,-60l20,-34.4l20,-5.6l7.4,6.8c0.63333,-1.76667 1.58333,-3.56667 2.85,-5.4c0.2,-0.33333 0.41667,-0.66667 0.65,-1c1.03333,-1.4 2.53333,-3.05 4.5,-4.95c2.63333,-2.56667 4.23333,-4.15 4.8,-4.75c1.53333,-1.7 3.46667,-3.75 5.8,-6.15c2.63333,-2.7 4.61667,-4.73333 5.95,-6.1c0.7,-0.76667 1.21667,-1.5 1.55,-2.2c0.36667,-0.83333 0.5,-1.71667 0.4,-2.65c-0.13333,-1.16667 -0.01667,-2.48333 0.35,-3.95c0.23333,-1.1 0.41667,-1.9 0.55,-2.4c0.26667,-0.93333 0.66667,-1.66667 1.2,-2.2c0.7,-0.7 2.13333,-2.2 4.3,-4.5c1.8,-1.9 3.25,-3.4 4.35,-4.5c0.73333,-0.73333 1.51667,-1.18333 2.35,-1.35c0.86667,-0.23333 1.76667,-0.11667 2.7,0.35c1.83333,0.9 3.86667,1.28333 6.1,1.15c1.56667,-0.06667 3.58333,-0.45 6.05,-1.15c2.73333,-0.8 5.35,-1.85 7.85,-3.15c4.33333,-2.26667 7.56667,-4 9.7,-5.2c0.66667,-0.36667 1.26667,-0.63333 1.8,-0.8c0.66667,-0.23333 1.31667,-0.33333 1.95,-0.3c0.63333,0.03333 1.35,-0.01667 2.15,-0.15c0.26667,-0.06667 1,-0.23333 2.2,-0.5c2.1,-0.5 3.98333,-0.53333 5.65,-0.1c1.83333,0.46667 3.55,1.5 5.15,3.1c5.26667,5.33333 9.56667,9.83333 12.9,13.5c4.56667,5.06667 8.53333,9.88333 11.9,14.45c4.03333,5.5 7,9.7 8.9,12.6c3.16667,4.76667 5.73333,9.23333 7.7,13.4c0.26667,0.56667 0.51667,1 0.75,1.3c0.33333,0.4 0.71667,0.68333 1.15,0.85c1.6,0.73333 3.15,1.83333 4.65,3.3c0.96667,0.9 2.23333,2.33333 3.8,4.3M896.5,379.45c-1.7,2.5 -3.75,4.88333 -6.15,7.15c-2.1,1.96667 -4.55,3.93333 -7.35,5.9c-0.16667,0.1 -0.36667,0.25 -0.6,0.45c-0.1,0.13333 -0.26667,0.31667 -0.5,0.55c-0.53333,0.3 -1.36667,0.73333 -2.5,1.3c-0.93333,0.6 -1.58333,1.33333 -1.95,2.2c1.43333,-0.3 2.36667,-0.55 2.8,-0.75c0.46667,-0.2 1.36667,-0.76667 2.7,-1.7c2.3,-0.96667 4.61667,-2.26667 6.95,-3.9c1.86667,-1.33333 3.91667,-3.01667 6.15,-5.05c1.73333,-1.56667 3.18333,-3.36667 4.35,-5.4c1.16667,-2.06667 1.96667,-4.25 2.4,-6.55c0.4,-1.33333 0.68333,-2.35 0.85,-3.05c0.3,-1.3 0.25,-2.48333 -0.15,-3.55c-1.76667,4.03333 -4.1,8.16667 -7,12.4M908.6,403.95c-0.3,0.13333 -0.46667,0.45 -0.5,0.95c-0.06667,0.5 0.03333,0.91667 0.3,1.25c0.73333,0.96667 2.25,2.91667 4.55,5.85c0.7,0.86667 1.95,2.4 3.75,4.6c0.23333,-1.56667 0.35,-3.08333 0.35,-4.55c0,-1.1 -0.06667,-2.35 -0.2,-3.75c-0.23333,-2.16667 -1.28333,-3.61667 -3.15,-4.35c-1.6,-0.63333 -3.3,-0.63333 -5.1,0z" fill="#000000"/><path d="M917.05,412.05c0,1.46667 -0.11667,2.98333 -0.35,4.55c-1.8,-2.2 -3.05,-3.73333 -3.75,-4.6c-2.3,-2.93333 -3.81667,-4.88333 -4.55,-5.85c-0.26667,-0.33333 -0.36667,-0.75 -0.3,-1.25c0.03333,-0.5 0.2,-0.81667 0.5,-0.95c1.8,-0.63333 3.5,-0.63333 5.1,0c1.86667,0.73333 2.91667,2.18333 3.15,4.35c0.13333,1.4 0.2,2.65 0.2,3.75z" fill="#2a2b3d"/><path d="M880.25,396.25c-0.43333,0.2 -1.36667,0.45 -2.8,0.75c0.36667,-0.86667 1.01667,-1.6 1.95,-2.2c1.13333,-0.56667 1.96667,-1 2.5,-1.3l1.05,1.05c-1.33333,0.93333 -2.23333,1.5 -2.7,1.7z" fill="#1b1b27"/><path d="M903.65,370.6c-0.16667,0.7 -0.45,1.71667 -0.85,3.05c-0.43333,2.3 -1.23333,4.48333 -2.4,6.55c-1.16667,2.03333 -2.61667,3.83333 -4.35,5.4c-2.23333,2.03333 -4.28333,3.71667 -6.15,5.05c-2.33333,1.63333 -4.65,2.93333 -6.95,3.9l-1.05,-1.05c0.23333,-0.23333 0.4,-0.41667 0.5,-0.55c0.23333,-0.2 0.43333,-0.35 0.6,-0.45c2.8,-1.96667 5.25,-3.93333 7.35,-5.9c2.4,-2.26667 4.45,-4.65 6.15,-7.15c2.9,-4.23333 5.23333,-8.36667 7,-12.4c0.4,1.06667 0.45,2.25 0.15,3.55z" fill="#292a3c"/><path d="M761.25,299.8c4.33333,7.06667 7.58333,14.23333 9.75,21.5l3,8.7c2.03333,7.06667 3.1,13.48333 3.2,19.25l-8.2,117.75l-31.95,21c-3.53333,2.73333 -8.15,6.36667 -13.85,10.9l-4.2,3.3c-15.86667,7.3 -28.21667,11.91667 -37.05,13.85c-8.86667,1.93333 -16.51667,3.06667 -22.95,3.4c-5.9,0.33333 -12.63333,0.3 -20.2,-0.1c-15.1,-0.86667 -26.8,-3.53333 -35.1,-8c-5.03333,-2.36667 -11.71667,-6.36667 -20.05,-12c-8.36667,-5.66667 -14.4,-10.7 -18.1,-15.1c-1.46667,-2.03333 -2.43333,-3.4 -2.9,-4.1c-11.03333,-8.8 -18.08333,-14.51667 -21.15,-17.15c-3.06667,-2.7 -5.85,-5.86667 -8.35,-9.5c-2.53333,-3.66667 -5.5,-8.8 -8.9,-15.4c-0.76667,-1.46667 -1.48333,-2.88333 -2.15,-4.25c-2.33333,-4.86667 -4.98333,-11.18333 -7.95,-18.95l-3.95,-10.55c-1.33333,-2.93333 -1.93333,-5.35 -1.8,-7.25c0.53333,-1.96667 1.4,-3.46667 2.6,-4.5l11.75,-11.1c-3.13333,-6.2 -4.88333,-10 -5.25,-11.4c-0.36667,-1.43333 -0.21667,-3.1 0.45,-5c0.86667,-2.56667 2.6,-4.93333 5.2,-7.1c1.1,-0.83333 3.5,-2.91667 7.2,-6.25c0.4,-9.46667 0.71667,-15.21667 0.95,-17.25c0.16667,-1.4 1.01667,-4.43333 2.55,-9.1c1.36667,-4.2 2.53333,-7.48333 3.5,-9.85c0.7,-1.7 2.23333,-4.6 4.6,-8.7c1.26667,-2.13333 2.75,-4.53333 4.45,-7.2c1.7,-2.66667 4.88333,-6.18333 9.55,-10.55c4.6,-4.36667 8.8,-7.95 12.6,-10.75c3.76667,-2.83333 10.58333,-6.91667 20.45,-12.25l13.45,-5c9.36667,-3.36667 16.31667,-5.63333 20.85,-6.8c4.5,-1.2 12.28333,-2.18333 23.35,-2.95c11.03333,-0.8 18.48333,-1 22.35,-0.6l5,0.1c4.16667,0.2 8.33333,0.56667 12.5,1.1c13.33333,1.7 24.16667,4.83333 32.5,9.4c15.33333,7.9 26.66667,16.78333 34,26.65c0.86667,1.3 3.61667,5.23333 8.25,11.8M688.95,420.25c-9.76667,2.03333 -15.71667,3.28333 -17.85,3.75l-0.8,0.15c-9.03333,1.66667 -17.9,2.68333 -26.6,3.05c-15.93333,1 -31.01667,-0.3 -45.25,-3.9c-4.46667,-1.13333 -8.96667,-2.55 -13.5,-4.25c-3.96667,-1.63333 -8.76667,-3.76667 -14.4,-6.4c-5.66667,-2.66667 -12.01667,-7.31667 -19.05,-13.95c-7.06667,-6.66667 -11.23333,-11.55 -12.5,-14.65c0,0.1 -2.16667,1.9 -6.5,5.4c-5.56667,4.5 -8.68333,7.01667 -9.35,7.55c-1.56667,1.3 -2.46667,2.61667 -2.7,3.95c-0.13333,0.63333 -0.1,1.15 0.1,1.55l2.45,8.45l6,17.05c1.16667,3.6 2.68333,7.11667 4.55,10.55c1.83333,3.43333 3.38333,6.16667 4.65,8.2c1.26667,2.03333 3.53333,4.6 6.8,7.7c1.73333,1.63333 3.91667,3.68333 6.55,6.15c1.7,1.73333 6.28333,4.83333 13.75,9.3c3.23333,2.7 8.76667,5.83333 16.6,9.4c7.83333,3.56667 13.71667,5.81667 17.65,6.75l0.9,-8.05c0.63333,-2.43333 2.03333,-3.7 4.2,-3.8c1.5,-0.06667 3.35,0.43333 5.55,1.5c4.33333,2.16667 12.33333,3.75 24,4.75l7.25,14.4c12.76667,6.16667 30.08333,5.83333 51.95,-1c10.93333,-3.43333 20.6,-7.48333 29,-12.15l2.5,-10.05c0.7,-2.76667 1.65,-7.21667 2.85,-13.35c1.16667,-6.13333 2.05,-11.7 2.65,-16.7c0.56667,-5 1.06667,-8.6 1.5,-10.8c0.23333,-1.2 0.71667,-2.13333 1.45,-2.8c-0.13333,-4.16667 -1.46667,-9.26667 -4,-15.3l-3.8,-7.85c-3.06667,1.73333 -6.9,3.68333 -11.5,5.85c-8.96667,4.2 -17.16667,7.35 -24.6,9.45c-0.16667,0 -0.33333,0.03333 -0.5,0.1M585.45,488.4c-3.23333,-1.7 -6.81667,-3.45 -10.75,-5.25c-2.28333,-1.05677 -4.1,-1.90677 -5.45,-2.55l11.55,9.35c7.73333,6 14,10.3 18.8,12.9c4.8,2.63333 9.66667,4.65 14.6,6.05c4.9,1.36667 12.7,2.56667 23.4,3.6c10.7,1 21.2,0.55 31.5,-1.35c10.3,-1.9 20.26667,-5.73333 29.9,-11.5c-14.93333,2.9 -24.46667,4.58333 -28.6,5.05c-15.1,1.7 -25.56667,0.61667 -31.4,-3.25c-1.56667,-0.63333 -2.7,-1.45 -3.4,-2.45c-1.23333,-1.76667 -3.13333,-5.93333 -5.7,-12.5c-4.76667,-0.86667 -8.66667,-1.6 -11.7,-2.2c-5.63333,-1.16667 -9.4,-2.25 -11.3,-3.25c-1.66667,5.63333 -3.03333,9.58333 -4.1,11.85c-0.9,0.66667 -3.15,0.51667 -6.75,-0.45c-3.83333,-1 -7.36667,-2.35 -10.6,-4.05z" fill="#000000"/><path d="M602.8,492.9c1.06667,-2.26667 2.43333,-6.21667 4.1,-11.85c1.9,1 5.66667,2.08333 11.3,3.25c3.03333,0.6 6.93333,1.33333 11.7,2.2c2.56667,6.56667 4.46667,10.73333 5.7,12.5c0.7,1 1.83333,1.81667 3.4,2.45c5.83333,3.86667 16.3,4.95 31.4,3.25c4.13333,-0.46667 13.66667,-2.15 28.6,-5.05c-9.63333,5.76667 -19.6,9.6 -29.9,11.5c-10.3,1.9 -20.8,2.35 -31.5,1.35c-10.7,-1.03333 -18.5,-2.23333 -23.4,-3.6c-4.93333,-1.4 -9.8,-3.41667 -14.6,-6.05c-4.8,-2.6 -11.06667,-6.9 -18.8,-12.9l-11.55,-9.35c1.35,0.64323 3.16667,1.49323 5.45,2.55c3.93333,1.8 7.51667,3.55 10.75,5.25c3.23333,1.7 6.76667,3.05 10.6,4.05c3.6,0.96667 5.85,1.11667 6.75,0.45M714.05,410.7c4.6,-2.16667 8.43333,-4.11667 11.5,-5.85l3.8,7.85c2.53333,6.03333 3.86667,11.13333 4,15.3c-0.73333,0.66667 -1.21667,1.6 -1.45,2.8c-0.43333,2.2 -0.93333,5.8 -1.5,10.8c-0.6,5 -1.48333,10.56667 -2.65,16.7c-1.2,6.13333 -2.15,10.58333 -2.85,13.35l-2.5,10.05c-8.4,4.66667 -18.06667,8.71667 -29,12.15c-21.86667,6.83333 -39.18333,7.16667 -51.95,1l-7.25,-14.4c-11.66667,-1 -19.66667,-2.58333 -24,-4.75c-2.2,-1.06667 -4.05,-1.56667 -5.55,-1.5c-2.16667,0.1 -3.56667,1.36667 -4.2,3.8l-0.9,8.05c-3.93333,-0.93333 -9.81667,-3.18333 -17.65,-6.75c-7.83333,-3.56667 -13.36667,-6.7 -16.6,-9.4c-7.46667,-4.46667 -12.05,-7.56667 -13.75,-9.3c-2.63333,-2.46667 -4.81667,-4.51667 -6.55,-6.15c-3.26667,-3.1 -5.53333,-5.66667 -6.8,-7.7c-1.26667,-2.03333 -2.81667,-4.76667 -4.65,-8.2c-1.86667,-3.43333 -3.38333,-6.95 -4.55,-10.55l-6,-17.05l-2.45,-8.45c-0.2,-0.4 -0.23333,-0.91667 -0.1,-1.55c0.23333,-1.33333 1.13333,-2.65 2.7,-3.95c0.66667,-0.53333 3.78333,-3.05 9.35,-7.55c4.33333,-3.5 6.5,-5.3 6.5,-5.4c1.26667,3.1 5.43333,7.98333 12.5,14.65c7.03333,6.63333 13.38333,11.28333 19.05,13.95c5.63333,2.63333 10.43333,4.76667 14.4,6.4c4.53333,1.7 9.03333,3.11667 13.5,4.25c14.23333,3.6 29.31667,4.9 45.25,3.9c8.7,-0.36667 17.56667,-1.38333 26.6,-3.05l0.8,-0.15c2.13333,-0.46667 8.08333,-1.71667 17.85,-3.75c0.16667,-0.06667 0.33333,-0.1 0.5,-0.1c7.43333,-2.1 15.63333,-5.25 24.6,-9.45z" fill="#ffffff"/><path d="M661.9,514.7c-0.66667,1.46667 -1.9,2.96667 -3.7,4.5c-3.56667,3.03333 -6.88333,4.9 -9.95,5.6c-2.23294,0.5 -4.61628,0.46667 -7.15,-0.1c-2.53477,-0.56667 -5.03477,-1.76667 -7.5,-3.6c-2.46536,-1.83073 -4.5987,-3.5974 -6.4,-5.3c-1.80521,-1.70404 -3.90521,-3.48737 -6.3,-5.35c-2.35352,-1.87253 -4.10352,-3.32253 -5.25,-4.35c-1.15286,-1.01732 -3.36953,-1.80065 -6.65,-2.35c-3.27591,-0.55781 -4.60924,-1.40781 -4,-2.55c0.61029,-1.10547 2.16029,-1.35547 4.65,-0.75l11.1,2.4c7.96667,1.6 13.31667,2.41667 16.05,2.45c7.33333,0.06667 11.91667,0.2 13.75,0.4c6.13333,0.76667 9.98333,2.6 11.55,5.5c0.5,0.93333 0.43333,2.1 -0.2,3.5M654.9,516.25c-2.03333,-2.96667 -5.9,-3.7 -11.6,-2.2c-1.76667,0.46667 -3.6,1.15 -5.5,2.05l-2.1,0.95c2.96667,4.06667 6.85,5.35 11.65,3.85c2.5,-0.8 5.01667,-2.35 7.55,-4.65z" fill="#000000"/><path d="M637.8,516.1c1.9,-0.9 3.73333,-1.58333 5.5,-2.05c5.7,-1.5 9.56667,-0.76667 11.6,2.2c-2.53333,2.3 -5.05,3.85 -7.55,4.65c-4.8,1.5 -8.68333,0.21667 -11.65,-3.85z" fill="#f3769b"/><path d="M459.48226,505.23939c-1.1085,1.17121 -2.27478,2.07528 -3.49885,2.71221c-3.84821,2.04865 -7.75264,3.90466 -11.71329,5.56803c-9.76844,4.11092 -20.44922,5.59469 -32.04234,4.45129c-0.96374,-0.45687 -1.94253,-0.92088 -2.93639,-1.39202c-0.09035,-0.04283 -0.16564,-0.07852 -0.22588,-0.10708c-2.78239,-4.71243 -5.06138,-9.59197 -6.83698,-14.6386c-0.00156,-0.07451 0.01193,-0.14188 0.04049,-0.20212c-6.95918,-1.27039 -13.97426,-3.78449 -21.04524,-7.54228c-2.80399,-1.4768 -4.58133,-3.40747 -5.33205,-5.79203c-1.61387,-5.15438 -1.01439,-11.04843 1.79842,-17.68215c0.9646,-2.34598 2.19378,-4.1608 3.68755,-5.44446c-2.02031,-3.20773 -3.47141,-6.64357 -4.35331,-10.30752c-0.01584,-0.04439 -0.05388,-0.08087 -0.11411,-0.10942c-5.75387,-2.80144 -10.99955,-5.89681 -15.73704,-9.2861c-1.86078,-1.28785 -3.05007,-2.90287 -3.56787,-4.84505c-1.72922,-6.38938 -1.55741,-13.48207 0.51541,-21.27806c0.78567,-3.05785 1.69739,-6.14816 2.73515,-9.27093c2.32938,-6.93666 5.4766,-13.26431 9.44166,-18.98295c3.12605,-4.49344 6.54591,-8.12833 10.25959,-10.90468c3.34738,-2.47049 7.13503,-3.49662 11.36296,-3.07839c0.91153,0.10015 1.48062,0.2224 1.70728,0.36673c-0.02855,0.06023 -0.04205,0.12761 -0.04049,0.20212c0.33064,2.25919 0.61689,4.53422 0.85874,6.82508c-0.09035,-0.04283 -0.1585,-0.09358 -0.20446,-0.15225c-1.36151,-0.94051 -2.75959,-1.49264 -4.19426,-1.65636c-6.88887,2.08259 -12.56913,7.4123 -17.04079,15.98911c-5.34725,10.19041 -8.57787,19.65063 -9.69185,28.38067c-0.11599,0.86714 -0.27159,1.62329 -0.46678,2.26846c-1.06319,3.33203 -0.80404,6.09215 0.77744,8.28038c1.59889,2.30714 3.73842,4.44639 6.4186,6.41777c2.81649,2.07288 5.84322,3.50773 9.08021,4.30456c0.12267,-1.97052 -0.0218,-3.88326 -0.43341,-5.73821c-0.64275,-2.92353 -0.30258,-5.8975 1.02051,-8.92189c0.3697,4.12196 0.91698,8.18055 1.64184,12.17579c0.43683,2.34641 1.03618,4.62233 1.79804,6.82775c0.69851,2.02784 1.38195,4.04855 2.05034,6.06211c1.84365,5.44774 6.486,8.92102 13.92705,10.41984c0.04283,-0.09035 0.07852,-0.16564 0.10708,-0.22588c1.52275,-2.74531 2.92649,-5.12287 4.21122,-7.13267c-0.02855,0.06023 -0.06425,0.13553 -0.10708,0.22588c-1.02569,5.12028 -1.29668,9.97129 -0.81297,14.55302c0.06023,0.02855 0.11333,0.07217 0.15928,0.13084c3.97768,4.83646 9.42036,9.1502 16.32804,12.94124c0.06023,0.02855 0.13553,0.06425 0.22588,0.10708c0.7228,0.34265 1.03178,0.85798 0.92694,1.54597c-0.09035,-0.04283 -0.16564,-0.07852 -0.22588,-0.10708c-2.93291,0.19568 -6.17235,-0.36255 -9.71832,-1.6747c-2.20811,-0.78858 -4.13637,-1.73957 -5.78477,-2.85298c-2.28397,-1.56224 -4.36437,-2.65913 -6.2412,-3.29067c-0.09035,-0.04283 -0.1585,-0.09358 -0.20446,-0.15225c-1.65933,-1.63498 -2.26827,-3.65724 -1.82681,-6.0668c-0.09035,-0.04283 -0.14345,-0.08644 -0.15928,-0.13084c-0.25343,-0.7103 -0.58852,-1.40398 -1.00525,-2.08105c-0.09035,-0.04283 -0.16564,-0.07852 -0.22588,-0.10708c-3.04826,-1.03932 -5.79446,-2.24897 -8.23861,-3.62895c-0.09035,-0.04283 -0.15772,-0.05633 -0.20212,-0.04049c-1.41904,0.58138 -2.71137,1.51791 -3.87698,2.80959c-0.32078,1.76595 -0.58132,3.56046 -0.78163,5.38352c-0.61989,5.27577 2.02239,9.35007 7.92684,12.2229c1.79273,0.88675 3.54039,1.40172 5.24299,1.54492c4.60048,0.41042 9.10071,2.08273 13.50067,5.01693c0.54345,1.03221 0.96878,2.11908 1.27598,3.26061c0.82657,3.15822 1.71973,6.29268 2.67949,9.40338c0.06023,0.02855 0.13553,0.06425 0.22588,0.10708c0.67685,0.28398 1.35447,0.60522 2.03288,0.96371c11.32229,0.31419 21.81377,-1.66504 31.47446,-5.9377c3.45648,-1.53353 6.94463,-2.97828 10.46447,-4.33424c1.08243,1.14018 2.02375,2.30568 2.82398,3.4965c0.01584,0.04439 0.06893,0.08801 0.15928,0.13084z" fill-opacity="0.99608" fill="#2b2c3f"/><path d="M527.49297,426.54889c0.06023,0.02855 0.12839,0.07931 0.20446,0.15225c0.79085,0.74376 1.7054,1.34329 2.74364,1.7986c2.18226,2.39926 4.54131,4.69791 7.07715,6.89595c4.47894,3.85688 7.70694,8.13507 9.68398,12.83458c4.0063,9.75573 4.89788,20.63528 2.67475,32.63867c-0.7172,2.05753 -1.53032,4.1618 -2.43937,6.31281c-2.86836,6.8287 -6.25864,12.22965 -10.17085,16.20286c-8.20344,8.3569 -17.59407,13.42151 -28.1719,15.19383c-10.54771,1.7866 -22.25093,0.3697 -35.10966,-4.2507c-5.56045,-2.82041 -10.37335,-5.89503 -14.43868,-9.22387l-0.06425,0.13553c-0.09035,-0.04283 -0.14345,-0.08644 -0.15928,-0.13084c-0.80022,-1.19082 -1.74155,-2.35632 -2.82398,-3.4965c-3.51983,1.35596 -7.00799,2.80071 -10.46447,4.33424c-9.66069,4.27266 -20.15217,6.25189 -31.47446,5.9377c-0.67841,-0.35849 -1.35604,-0.67973 -2.03288,-0.96371c-0.09035,-0.04283 -0.16564,-0.07852 -0.22588,-0.10708c-0.95975,-3.1107 -1.85292,-6.24516 -2.67949,-9.40338c-0.3072,-1.14153 -0.73253,-2.2284 -1.27598,-3.26061c-4.39996,-2.9342 -8.90018,-4.60651 -13.50067,-5.01693c-1.70259,-0.1432 -3.45026,-0.65817 -5.24299,-1.54492c-5.90445,-2.87283 -8.54673,-6.94713 -7.92684,-12.2229c0.20031,-1.82306 0.46085,-3.61757 0.78163,-5.38352c1.16561,-1.29168 2.45793,-2.22821 3.87698,-2.80959c0.04439,-0.01584 0.11177,-0.00234 0.20212,0.04049c2.44415,1.37998 5.19035,2.58963 8.23861,3.62895c0.06023,0.02855 0.13553,0.06425 0.22588,0.10708c0.41673,0.67706 0.75182,1.37074 1.00525,2.08105c0.01584,0.04439 0.06893,0.08801 0.15928,0.13084c-0.44146,2.40956 0.16748,4.43182 1.82681,6.0668c0.04596,0.05867 0.11411,0.10942 0.20446,0.15225c1.87683,0.63153 3.95723,1.72842 6.2412,3.29067c1.6484,1.1134 3.57665,2.06439 5.78477,2.85298c3.54597,1.31215 6.78541,1.87038 9.71832,1.6747c0.06023,0.02855 0.13553,0.06425 0.22588,0.10708c0.10484,-0.688 -0.20414,-1.20332 -0.92694,-1.54597c-0.09035,-0.04283 -0.16564,-0.07852 -0.22588,-0.10708c-6.90768,-3.79104 -12.35036,-8.10479 -16.32804,-12.94124c-0.04596,-0.05867 -0.09905,-0.10228 -0.15928,-0.13084c-0.48371,-4.58173 -0.21271,-9.43274 0.81297,-14.55302c0.04283,-0.09035 0.07852,-0.16564 0.10708,-0.22588c-1.28473,2.0098 -2.68847,4.38735 -4.21122,7.13267c-0.02855,0.06023 -0.06425,0.13553 -0.10708,0.22588c-7.44105,-1.49883 -12.0834,-4.97211 -13.92705,-10.41984c-0.66839,-2.01357 -1.35184,-4.03427 -2.05034,-6.06211c-0.76187,-2.20542 -1.36121,-4.48133 -1.79804,-6.82775c-0.72485,-3.99524 -1.27213,-8.05384 -1.64184,-12.17579c-1.32309,3.02439 -1.66326,5.99836 -1.02051,8.92189c0.41162,1.85496 0.55609,3.76769 0.43341,5.73821c-3.23699,-0.79682 -6.26372,-2.23168 -9.08021,-4.30456c-2.68018,-1.97138 -4.81971,-4.11064 -6.4186,-6.41777c-1.58148,-2.18823 -1.84063,-4.94836 -0.77744,-8.28038c0.19519,-0.64517 0.35079,-1.40132 0.46678,-2.26846c1.11399,-8.73004 4.3446,-18.19026 9.69185,-28.38067c4.47166,-8.57682 10.15192,-13.90652 17.04079,-15.98911c1.43467,0.16373 2.83275,0.71585 4.19426,1.65636c0.04596,0.05867 0.11411,0.10942 0.20446,0.15225c-0.24185,-2.29087 -0.5281,-4.56589 -0.85874,-6.82508c-0.00156,-0.07451 0.01193,-0.14188 0.04049,-0.20212c0.06023,0.02855 0.13553,0.06425 0.22588,0.10708c5.34829,1.94525 10.58303,4.51904 15.70423,7.72137c4.89114,-1.36981 9.9795,-2.22195 15.26507,-2.55641c0.04439,-0.01584 0.08087,-0.05388 0.10942,-0.11411c6.89653,3.97018 12.88298,8.26507 17.95936,12.88467c0.04596,0.05867 0.11411,0.10942 0.20446,0.15225c11.33813,0.35859 22.59627,0.45795 33.77444,0.29808c3.14529,-0.02123 6.50441,0.55686 10.07737,1.73426c0.31544,0.11265 0.62375,0.24037 0.92492,0.38314c4.87585,7.14338 7.94661,14.94332 9.21228,23.39982c-0.01428,0.03012 0.02376,0.06659 0.11411,0.10942c8.49422,-0.17813 17.50245,1.0493 27.02468,3.68227c0.06023,0.02855 0.13553,0.06425 0.22588,0.10708c1.04002,-0.1709 1.98636,0.16707 2.839,1.01389c0.04596,0.05867 0.11411,0.10942 0.20446,0.15225M525.16068,432.63582c-0.09035,-0.04283 -0.16564,-0.07852 -0.22588,-0.10708c-2.92488,-0.13248 -5.75394,0.03866 -8.48719,0.51342c-0.03012,-0.01428 -0.06659,0.02376 -0.10942,0.11411c-1.13819,-0.24449 -2.19796,-0.30426 -3.17931,-0.17932c-1.60599,0.19767 -1.95333,0.69694 -1.04202,1.49781c0.06023,0.02855 0.13553,0.06425 0.22588,0.10708c4.56773,3.8252 8.78745,7.76206 12.65916,11.81058c4.19356,-1.221 8.6556,-1.72456 13.38615,-1.51068c0.04439,-0.01584 0.08087,-0.05388 0.10942,-0.11411c-2.32261,-4.82644 -6.7682,-8.87038 -13.33678,-12.13181M544.88214,468.76347c-0.00156,-0.07451 0.01193,-0.14188 0.04049,-0.20212c-2.54452,0.23226 -5.08111,0.48672 -7.60979,0.76338c-0.07451,0.00156 -0.14188,-0.01193 -0.20212,-0.04049c0.84667,4.82757 1.17567,9.85236 0.987,15.07435c-0.01428,0.03012 0.02376,0.06659 0.11411,0.10942c2.47889,-3.36171 4.70357,-7.47098 6.67403,-12.32781c0.04283,-0.09035 0.07852,-0.16564 0.10708,-0.22588c-0.0076,-1.07327 -0.04453,-2.12355 -0.1108,-3.15087M544.83826,464.53777c0.04439,-0.01584 0.08087,-0.05388 0.10942,-0.11411c-0.17117,-5.31881 -1.34121,-10.28124 -3.5101,-14.88727c-0.04596,-0.05867 -0.09905,-0.10228 -0.15928,-0.13084c-0.68644,-0.03033 -1.44973,-0.17087 -2.28987,-0.4216l-0.06425,0.13553c-0.09035,-0.04283 -0.16564,-0.07852 -0.22588,-0.10708c-0.09035,-0.04283 -0.17278,-0.06347 -0.24729,-0.0619c-4.11528,-0.73368 -7.94466,-0.63101 -11.48814,0.308c0.06023,0.02855 0.11333,0.07217 0.15928,0.13084c3.66692,4.94733 6.55695,10.17186 8.67009,15.67358c2.75555,-0.83304 5.77089,-1.00808 9.04602,-0.52514M540.30833,487.39834c-0.01584,-0.04439 -0.1633,0.03324 -0.44238,0.23291c-1.03065,0.61796 -1.43197,1.38672 -1.20397,2.30628c1.39518,-0.29761 1.94396,-1.14401 1.64634,-2.53918M534.08748,479.74646c-0.09035,-0.04283 -0.12839,-0.07931 -0.11411,-0.10942c-0.305,-3.16916 -0.8169,-6.25197 -1.53572,-9.24846c-0.09035,-0.04283 -0.15772,-0.05633 -0.20212,-0.04049c-3.28984,0.9486 -6.39752,2.40773 -9.32305,4.37739c-0.02855,0.06023 0.95237,1.33672 2.94277,3.82946c2.02052,2.50702 3.62899,4.5605 4.82542,6.16046l0.96743,1.34386c0.41404,-0.87339 0.79718,-1.79831 1.14942,-2.77476l-0.09035,-0.04283c0.04283,-0.09035 0.07852,-0.16564 0.10708,-0.22588c0.37923,-1.1112 0.80364,-2.20098 1.27322,-3.26934M531.56857,466.26964c0.04439,-0.01584 0.08087,-0.05388 0.10942,-0.11411c-1.56301,-5.57289 -4.30245,-10.72603 -8.21834,-15.45943c-0.04596,-0.05867 -0.09905,-0.10228 -0.15928,-0.13084c-7.36406,0.75077 -13.92108,3.72838 -19.67106,8.93282c-0.05867,0.04596 -0.10942,0.11411 -0.15225,0.20446c5.53793,3.8794 11.03304,7.84915 16.48531,11.90925c0.04596,0.05867 0.11411,0.10942 0.20446,0.15225c3.52495,-2.53385 7.32553,-4.36532 11.40175,-5.49441M515.88529,475.54373c-2.19653,-2.36915 -4.76963,-4.5664 -7.7193,-6.59176c-3.04002,-2.06819 -5.99839,-4.15301 -8.87511,-6.25444c-5.33907,4.18203 -9.8615,10.33725 -13.56731,18.46566c-0.55681,1.17455 -1.00899,2.36182 -1.35654,3.56181c-0.38882,1.36484 0.28703,2.31228 2.02755,2.84231c7.09037,2.54979 13.86395,4.2117 20.32074,4.98573c0.07451,-0.00156 0.15694,0.01907 0.24729,0.0619c1.7681,-6.68635 4.69157,-12.3086 8.77042,-16.86674c0.07295,-0.07607 0.1237,-0.14423 0.15225,-0.20446M519.38252,478.08687c-0.07607,-0.07295 -0.14423,-0.1237 -0.20446,-0.15225c-1.79828,1.69258 -3.35651,3.81247 -4.67469,6.35968c-1.44668,2.81826 -2.35985,5.48371 -2.73951,7.99633c0.00156,0.07451 0.07764,0.14746 0.22822,0.21884c6.0608,-0.33582 11.89906,-1.33041 17.51478,-2.98376c0.04439,-0.01584 0.11177,-0.00234 0.20212,0.04049c-3.13931,-3.95952 -6.58147,-7.78596 -10.32645,-11.47932M519.54177,447.28963c0.04439,-0.01584 0.08087,-0.05388 0.10942,-0.11411c-2.65276,-3.50755 -6.22273,-6.67533 -10.70992,-9.50333c-0.09035,-0.04283 -0.16564,-0.07852 -0.22588,-0.10708l0.06425,-0.13553c-1.52324,-0.83276 -2.86813,-1.69163 -4.03465,-2.57659c-8.91025,2.37843 -17.31207,6.25197 -25.20545,11.62063c-1.17655,0.77011 -1.51128,1.51511 -1.00419,2.235c2.90414,0.56526 5.81062,1.2423 8.71945,2.03109l-0.06425,0.13553l-0.04283,0.09035c3.36839,1.37551 6.73511,3.02686 10.10017,4.95406l-0.04283,0.09035c0.48499,0.37746 0.99062,0.67248 1.51688,0.88508c0.29336,-0.22978 0.57165,-0.4667 0.83489,-0.71076c0.07295,-0.07607 0.1237,-0.14423 0.15225,-0.20446c0.06023,0.02855 0.13553,0.06425 0.22588,0.10708c5.92578,-4.6416 12.46138,-7.57403 19.60681,-8.7973M504.40193,429.1576c0.46915,0.33306 0.84952,0.6978 1.1411,1.09422c1.65685,-0.61618 3.40004,-1.02546 5.22957,-1.22782c0.04439,-0.01584 0.08087,-0.05388 0.10942,-0.11411c-2.8883,-0.52087 -5.16166,-0.51047 -6.82007,0.0312l0.33999,0.2165M498.53927,432.18774c-0.5546,-0.85307 -1.60233,-1.40509 -3.14319,-1.65604c-1.34744,-0.26992 -2.55456,-0.60241 -3.62137,-0.99749c-10.79958,1.15081 -20.24966,6.22412 -28.35025,15.21994c-0.50907,0.60702 -0.71933,1.24505 -0.63075,1.91409c0.03168,0.08879 0.12281,0.16887 0.27339,0.24026c2.66342,-0.24967 5.45434,-0.10692 8.37276,0.42822c0.07451,-0.00156 0.15694,0.01907 0.24729,0.0619c4.22588,-3.23435 8.53096,-6.24673 12.91523,-9.03715c4.38428,-2.79041 9.0299,-4.84833 13.93689,-6.17374M493.99334,460.68413c0.02855,-0.06023 0.02699,-0.13474 -0.00469,-0.22353c-1.17278,-1.18301 -2.86244,-2.13155 -5.06899,-2.84562c-1.90695,-0.64581 -3.7521,-1.18856 -5.53545,-1.62824c-0.09035,-0.04283 -0.16564,-0.07852 -0.22588,-0.10708c-3.50314,-1.4025 -6.83996,-2.33886 -10.01046,-2.80909c-1.96314,1.65131 -3.59343,3.53417 -4.89087,5.6486c-2.8106,4.60609 -4.84052,9.47162 -6.08974,14.59659c0.06023,0.02855 0.12839,0.07931 0.20446,0.15225c3.5596,3.38417 7.88182,6.52127 12.96665,9.41128c1.12079,0.12558 2.14241,0.49924 3.06488,1.12097c0.04596,0.05867 0.11411,0.10942 0.20446,0.15225c0.06023,0.02855 0.13553,0.06425 0.22588,0.10708c0.40892,0.30451 0.82498,0.59396 1.24818,0.86835c0.69149,-6.12707 3.19802,-11.72566 7.51958,-16.79579c2.12509,-2.45977 4.25575,-5.00911 6.39199,-7.64802M461.01887,449.47847c-0.10463,-0.01271 -0.18706,-0.03335 -0.24729,-0.0619c-3.11199,5.16403 -4.94302,10.27138 -5.49308,15.32206c-0.01428,0.03012 0.02376,0.06659 0.11411,0.10942c0.77792,1.5491 1.85868,2.96513 3.24227,4.24808c0.04596,0.05867 0.11411,0.10942 0.20446,0.15225c1.96954,-7.03348 5.18637,-12.88551 9.65049,-17.55609c0.07295,-0.07607 0.1237,-0.14423 0.15225,-0.20446c-2.65987,-1.00274 -5.20094,-1.67252 -7.62321,-2.00936M485.3444,422.55761c0.05867,-0.04596 0.10228,-0.09905 0.13084,-0.15928c-6.39165,-1.22266 -12.1901,-0.8178 -17.39534,1.21458c-0.04439,0.01584 -0.08801,0.06893 -0.13084,0.15928c-0.09035,-0.04283 -0.17278,-0.06347 -0.24729,-0.0619c-0.34244,0.02209 -0.66825,0.12583 -0.97745,0.31122c-0.09035,-0.04283 -0.14266,-0.04919 -0.15694,-0.01907c-1.54754,0.85243 -3.0808,1.67474 -4.59978,2.46694c-0.09035,-0.04283 -0.14266,-0.04919 -0.15694,-0.01907c-1.78222,1.03626 -3.57314,2.01306 -5.37277,2.93041c-0.02855,0.06023 -0.07217,0.11333 -0.13084,0.15928c-4.87239,2.26394 -8.9837,6.69603 -12.33393,13.2963c-0.91842,1.70394 -1.51181,3.26689 -1.78017,4.68884c-0.30962,1.58681 -0.65807,3.0999 -1.04533,4.53925c-2.26645,8.51567 -1.70039,15.95814 1.69818,22.32743c1.39695,-0.92382 1.77786,-2.31086 1.14271,-4.16113c-0.11244,-0.38527 -0.19554,-0.79351 -0.24931,-1.22474c-0.15974,-1.21916 -0.22278,-2.44781 -0.18911,-3.68594c1.24744,-4.49877 2.6661,-9.00858 4.25598,-13.52944c0.6331,-1.80232 1.35654,-3.56181 2.17034,-5.27846c2.27944,-4.3415 4.88437,-7.73568 7.8148,-10.18252c0.05867,-0.04596 0.10228,-0.09905 0.13084,-0.15928c0.76272,-0.59743 1.44145,-1.29001 2.03619,-2.07774c0.07295,-0.07607 0.1237,-0.14423 0.15225,-0.20446c0.06023,0.02855 0.13553,0.06425 0.22588,0.10708c0.48521,-0.32326 0.94822,-0.6386 1.38903,-0.94601c0.01428,-0.03012 0.06659,-0.02376 0.15694,0.01907c0.06023,0.02855 0.13553,0.06425 0.22588,0.10708c1.47949,-1.25354 3.05324,-2.27797 4.72124,-3.07329c0.05867,-0.04596 0.10228,-0.09905 0.13084,-0.15928c0.06023,0.02855 0.13553,0.06425 0.22588,0.10708c1.60777,-0.82388 3.22502,-1.55104 4.85176,-2.1815c0.05867,-0.04596 0.10228,-0.09905 0.13084,-0.15928c0.06023,0.02855 0.13553,0.06425 0.22588,0.10708c4.254,-1.89316 8.57059,-3.646 12.94974,-5.25852M535.39273,496.13356c0.07295,-0.07607 0.1237,-0.14423 0.15225,-0.20446c1.2892,-1.08555 1.85393,-2.23791 1.69418,-3.45707c-0.00156,-0.07451 -0.10619,-0.08723 -0.31388,-0.03814c-1.16518,-0.10974 -1.6592,0.50442 -1.48205,1.84249c0.01584,0.04439 0.00234,0.11177 -0.04049,0.20212c-0.02855,0.06023 -0.06425,0.13553 -0.10708,0.22588c-0.77409,1.47728 -1.37696,2.94352 -1.80862,4.39872c0.58693,-1.16028 1.22215,-2.15012 1.90568,-2.96952M530.50145,495.36397c0.21884,-0.22822 0.3624,-0.49213 0.43066,-0.79174c-6.28277,0.41502 -12.91745,0.75541 -19.90405,1.02119c-0.07451,0.00156 -0.14188,-0.01193 -0.20212,-0.04049c-1.37082,3.59192 -1.314,7.01228 0.17045,10.26106c0.01584,0.04439 0.06893,0.08801 0.15928,0.13084c7.35625,-1.12333 13.80484,-4.65028 19.34578,-10.58087M527.0174,504.11389c-0.04439,0.01584 -0.07373,0.03882 -0.08801,0.06893c-0.29492,0.15527 -0.91487,0.45154 -1.85986,0.8888c-0.10306,0.0618 -0.22833,0.13151 -0.37579,0.20915c-1.81546,0.87296 -4.04866,1.73231 -6.69958,2.57806c-2.8285,0.90911 -4.27922,1.4017 -4.35217,1.47777c-0.52648,0.48812 -0.16675,0.93529 1.07919,1.34151c0.06023,0.02855 0.13553,0.06425 0.22588,0.10708c4.17303,-1.48893 7.5241,-3.07243 10.0532,-4.75051c1.13215,-0.75427 1.9115,-1.27005 2.33803,-1.54735c0.11734,-0.09191 0.24182,-0.19888 0.37344,-0.32091c1.15758,-0.96352 0.92613,-0.98103 -0.69436,-0.05253M509.08271,511.60143c0.04439,-0.01584 0.06503,-0.09827 0.0619,-0.24729c-0.35962,-0.79753 -0.86916,-1.27883 -1.5286,-1.44391l-0.06425,0.13553c-0.09035,-0.04283 -0.15772,-0.05633 -0.20212,-0.04049c-0.23781,0.0348 -0.4677,0.09181 -0.68967,0.171c-0.09035,-0.04283 -0.16564,-0.07852 -0.22588,-0.10708c-0.09035,-0.04283 -0.15772,-0.05633 -0.20212,-0.04049c-6.04027,0.60374 -12.23101,0.78574 -18.57224,0.546c0.06023,0.02855 0.12839,0.07931 0.20446,0.15225c0.76229,0.80399 1.90272,1.5106 3.42127,2.11983c6.58684,0.57749 12.51925,0.16237 17.79723,-1.24537M506.92028,506.59273c0.04439,-0.01584 0.08087,-0.05388 0.10942,-0.11411c-0.68224,-3.38488 -0.75802,-6.99864 -0.22734,-10.84131c-0.01584,-0.04439 -0.05388,-0.08087 -0.11411,-0.10942c-6.6821,-0.14314 -14.2618,-1.85523 -22.73911,-5.13628l-0.06425,0.13553c-0.43187,2.15591 -0.48639,4.17718 -0.16356,6.06381c0.01584,0.04439 0.00234,0.11177 -0.04049,0.20212c-0.02855,0.06023 -0.04205,0.12761 -0.04049,0.20212c-0.10726,3.41634 0.38479,6.61885 1.47616,9.60751c4.13758,0.3754 8.2823,0.73575 12.43416,1.08104c0.04439,-0.01584 0.08087,-0.05388 0.10942,-0.11411c0.06023,0.02855 0.13553,0.06425 0.22588,0.10708c0.06023,0.02855 0.13553,0.06425 0.22588,0.10708c2.9599,-0.33043 5.89604,-0.72744 8.80842,-1.19105M463.61517,497.57165c0.01584,0.04439 0.00234,0.11177 -0.04049,0.20212c2.58358,1.6305 5.33759,3.21271 8.26205,4.74661c0.06023,0.02855 0.13553,0.06425 0.22588,0.10708c3.01971,1.09955 5.98397,2.04373 8.8928,2.83253c0.06023,0.02855 0.13553,0.06425 0.22588,0.10708c-1.67097,-5.03392 -2.26936,-10.46304 -1.79515,-16.28737c-0.01584,-0.04439 -0.05388,-0.08087 -0.11411,-0.10942c-6.34839,-2.71443 -12.1219,-6.09691 -17.32052,-10.14742c-0.09035,-0.04283 -0.16564,-0.07852 -0.22588,-0.10708c-1.22756,6.86883 -0.59771,13.08746 1.88954,18.65588M442.7503,491.1661c-0.01428,0.03012 0.02376,0.06659 0.11411,0.10942c0.35224,-0.97645 0.78034,-1.17924 1.2843,-0.60837c0.27418,0.27752 0.59754,0.41237 0.97009,0.40455c1.22073,-0.08523 2.32422,-0.42891 3.31047,-1.03103c0.03389,-1.93884 -0.22871,-3.79692 -0.78778,-5.57424c-0.01584,-0.04439 -0.05388,-0.08087 -0.11411,-0.10942c-2.23731,1.37379 -3.82967,3.64349 -4.77708,6.80909M457.22985,475.67796c0.01271,-0.10463 0.03335,-0.18706 0.0619,-0.24729c-0.94768,-1.11319 -1.90964,-2.19626 -2.88588,-3.24921c-0.07607,-0.07295 -0.14423,-0.1237 -0.20446,-0.15225c-0.61542,6.20001 0.19769,11.91535 2.43932,17.14603c0.01584,0.04439 0.06893,0.08801 0.15928,0.13084c-0.43462,-4.37404 -0.29135,-8.91674 0.42983,-13.62811M404.71263,458.19557c-0.01428,0.03012 0.02376,0.06659 0.11411,0.10942c0.96104,-1.09358 1.3521,-1.9963 1.17318,-2.70817c-0.01584,-0.04439 -0.05388,-0.08087 -0.11411,-0.10942c-0.663,1.08733 -1.05406,1.99005 -1.17318,2.70817M421.8957,420.19824l0.13553,0.06425c6.5968,-6.05709 13.56584,-11.07092 20.9071,-15.04149c0.05867,-0.04596 0.10228,-0.09905 0.13084,-0.15928c-1.36328,-0.31431 -2.59985,-0.27347 -3.7097,0.12252c-0.07451,0.00156 -0.14188,-0.01193 -0.20212,-0.04049c0.16707,-1.98636 -0.33344,-3.45928 -1.50153,-4.41876c0.01428,-0.03012 0.03569,-0.07529 0.06425,-0.13553c-2.56391,1.44027 -4.89023,3.54646 -6.97895,6.31855c-2.27745,3.01459 -4.05864,5.87714 -5.34359,8.58765c-0.49302,-0.0493 -0.86724,0.23436 -1.12267,0.85098l-0.09035,-0.04283c-0.74554,1.41705 -1.50847,2.7152 -2.28882,3.89444z" fill="#000000"/><path d="M422.03123,420.26248l-0.13553,-0.06425c0.78034,-1.17924 1.54328,-2.47739 2.28882,-3.89444l0.09035,0.04283c0.25543,-0.61661 0.62965,-0.90027 1.12267,-0.85098c1.28494,-2.71051 3.06614,-5.57306 5.34359,-8.58765c2.08872,-2.77209 4.41504,-4.87827 6.97895,-6.31855c-0.02855,0.06023 -0.04997,0.10541 -0.06425,0.13553c1.16809,0.95948 1.6686,2.4324 1.50153,4.41876c0.06023,0.02855 0.12761,0.04205 0.20212,0.04049c1.10985,-0.39599 2.34641,-0.43683 3.7097,-0.12252c-0.02855,0.06023 -0.07217,0.11333 -0.13084,0.15928c-7.34127,3.97057 -14.3103,8.9844 -20.9071,15.04149z" fill="#2c2d40"/><path d="M404.82674,458.30499c-0.09035,-0.04283 -0.12839,-0.07931 -0.11411,-0.10942c0.11912,-0.71812 0.51018,-1.62084 1.17318,-2.70817c0.06023,0.02855 0.09827,0.06503 0.11411,0.10942c0.17892,0.71187 -0.21214,1.61459 -1.17318,2.70817z" fill="#353849"/><path d="M457.29175,475.43067c-0.02855,0.06023 -0.04919,0.14266 -0.0619,0.24729c-0.72118,4.71136 -0.86446,9.25406 -0.42983,13.62811c-0.09035,-0.04283 -0.14345,-0.08644 -0.15928,-0.13084c-2.24163,-5.23067 -3.05474,-10.94601 -2.43932,-17.14603c0.06023,0.02855 0.12839,0.07931 0.20446,0.15225c0.97624,1.05295 1.9382,2.13602 2.88588,3.24921M463.57468,497.77377c0.04283,-0.09035 0.05633,-0.15772 0.04049,-0.20212c-2.48725,-5.56842 -3.1171,-11.78705 -1.88954,-18.65588c0.06023,0.02855 0.13553,0.06425 0.22588,0.10708c5.19862,4.05051 10.97213,7.43298 17.32052,10.14742c0.06023,0.02855 0.09827,0.06503 0.11411,0.10942c-0.47421,5.82433 0.12417,11.25346 1.79515,16.28737c-0.09035,-0.04283 -0.16564,-0.07852 -0.22588,-0.10708c-2.90883,-0.7888 -5.87309,-1.73297 -8.8928,-2.83253c-0.09035,-0.04283 -0.16564,-0.07852 -0.22588,-0.10708c-2.92445,-1.5339 -5.67847,-3.11611 -8.26205,-4.74661M497.6601,507.56962c-0.02855,0.06023 -0.06503,0.09827 -0.10942,0.11411c-4.15186,-0.34529 -8.29658,-0.70563 -12.43416,-1.08104c-1.09137,-2.98867 -1.58343,-6.19117 -1.47616,-9.60751c-0.00156,-0.07451 0.01193,-0.14188 0.04049,-0.20212c0.06023,0.02855 0.12839,0.07931 0.20446,0.15225c3.718,3.82811 8.3096,7.36955 13.7748,10.6243M509.14462,511.35414c0.00313,0.14902 -0.01751,0.23145 -0.0619,0.24729c-5.27797,1.40774 -11.21038,1.82286 -17.79723,1.24537c-1.51855,-0.60923 -2.65898,-1.31584 -3.42127,-2.11983c-0.07607,-0.07295 -0.14423,-0.1237 -0.20446,-0.15225c6.34122,0.23974 12.53197,0.05774 18.57224,-0.546c0.04439,-0.01584 0.11177,-0.00234 0.20212,0.04049c-0.02855,0.06023 -0.06425,0.13553 -0.10708,0.22588c-0.11265,0.31544 0.04184,0.57311 0.46347,0.77299c1.26981,0.12246 1.59172,-0.16756 0.96573,-0.87005c-0.07607,-0.07295 -0.14423,-0.1237 -0.20446,-0.15225l0.06425,-0.13553c0.65944,0.16508 1.16898,0.64638 1.5286,1.44391M460.77158,449.41657c0.06023,0.02855 0.14266,0.04919 0.24729,0.0619c2.42227,0.33683 4.96334,1.00662 7.62321,2.00936c-0.02855,0.06023 -0.07931,0.12839 -0.15225,0.20446c-4.46412,4.67058 -7.68095,10.52261 -9.65049,17.55609c-0.09035,-0.04283 -0.1585,-0.09358 -0.20446,-0.15225c-1.38359,-1.28295 -2.46435,-2.69898 -3.24227,-4.24808c-0.09035,-0.04283 -0.12839,-0.07931 -0.11411,-0.10942c0.55007,-5.05067 2.3811,-10.15803 5.49308,-15.32206M483.38421,455.98674c-0.02855,0.06023 -0.06425,0.13553 -0.10708,0.22588c-5.47731,10.38695 -7.03378,19.70025 -4.66941,27.9399c-0.09035,-0.04283 -0.1585,-0.09358 -0.20446,-0.15225c-0.92247,-0.62173 -1.94409,-0.99539 -3.06488,-1.12097c-5.08483,-2.89002 -9.40705,-6.02711 -12.96665,-9.41128c-0.07607,-0.07295 -0.14423,-0.1237 -0.20446,-0.15225c1.24922,-5.12497 3.27913,-9.9905 6.08974,-14.59659c1.29744,-2.11442 2.92773,-3.99729 4.89087,-5.6486c3.1705,0.47023 6.50732,1.40659 10.01046,2.80909c0.06023,0.02855 0.13553,0.06425 0.22588,0.10708M495.39608,430.5317c1.54086,0.25095 2.58859,0.80297 3.14319,1.65604c-4.90698,1.32541 -9.55261,3.38333 -13.93689,6.17374c-4.38428,2.79041 -8.68935,5.80279 -12.91523,9.03715c-0.09035,-0.04283 -0.17278,-0.06347 -0.24729,-0.0619c-2.91842,-0.53515 -5.70934,-0.67789 -8.37276,-0.42822c-0.15058,-0.07139 -0.24172,-0.15147 -0.27339,-0.24026c-0.08857,-0.66903 0.12168,-1.30706 0.63075,-1.91409c8.10059,-8.99582 17.55067,-14.06913 28.35025,-15.21994c1.0668,0.39507 2.27392,0.72757 3.62137,0.99749M505.54303,430.25183c-0.29158,-0.39642 -0.67194,-0.76116 -1.1411,-1.09422l-0.33999,-0.2165c1.65841,-0.54167 3.93177,-0.55207 6.82007,-0.0312c-0.02855,0.06023 -0.06503,0.09827 -0.10942,0.11411c-1.82953,0.20236 -3.57271,0.61163 -5.22957,1.22782M508.7154,437.5651c-0.15058,-0.07139 -0.30117,-0.14277 -0.45175,-0.21416c-0.30117,-0.14277 -0.56274,-0.17456 -0.78471,-0.09536c-7.22683,3.02893 -13.91434,7.6045 -20.06252,13.72672c-0.09035,-0.04283 -0.16564,-0.07852 -0.22588,-0.10708l0.06425,-0.13553c-2.90883,-0.7888 -5.81531,-1.46583 -8.71945,-2.03109c-0.50708,-0.71989 -0.17235,-1.46489 1.00419,-2.235c7.89339,-5.36866 16.2952,-9.2422 25.20545,-11.62063c1.16653,0.88497 2.51141,1.74383 4.03465,2.57659l-0.06425,0.13553M516.20736,433.31556c-1.33182,0.47519 -2.69531,0.86159 -4.09049,1.1592c-0.91132,-0.80087 -0.56398,-1.30014 1.04202,-1.49781c0.98135,-0.12494 2.04112,-0.06517 3.17931,0.17932c-0.02855,0.06023 -0.07217,0.11333 -0.13084,0.15928z" fill="#343444"/><path d="M442.86441,491.27552c-0.09035,-0.04283 -0.12839,-0.07931 -0.11411,-0.10942c0.94741,-3.1656 2.53977,-5.4353 4.77708,-6.80909c0.06023,0.02855 0.09827,0.06503 0.11411,0.10942c0.55907,1.77732 0.82167,3.6354 0.78778,5.57424c-0.98626,0.60212 -2.08975,0.9458 -3.31047,1.03103c-0.37255,0.00781 -0.69592,-0.12704 -0.97009,-0.40455c-0.50396,-0.57087 -0.93206,-0.36808 -1.2843,0.60837z" fill="#2c2c3f"/><path d="M507.0297,506.47862c-0.02855,0.06023 -0.06503,0.09827 -0.10942,0.11411c-2.91238,0.46361 -5.84852,0.86062 -8.80842,1.19105c-0.09035,-0.04283 -0.16564,-0.07852 -0.22588,-0.10708c-0.09035,-0.04283 -0.16564,-0.07852 -0.22588,-0.10708c-5.4652,-3.25476 -10.0568,-6.79619 -13.7748,-10.6243c-0.07607,-0.07295 -0.14423,-0.1237 -0.20446,-0.15225c0.04283,-0.09035 0.05633,-0.15772 0.04049,-0.20212c-0.32283,-1.88663 -0.26831,-3.90791 0.16356,-6.06381l0.06425,-0.13553c8.47731,3.28105 16.05701,4.99314 22.73911,5.13628c0.06023,0.02855 0.09827,0.06503 0.11411,0.10942c-0.53068,3.84266 -0.45489,7.45643 0.22734,10.84131M441.14763,452.06439c0.38726,-1.43936 0.7357,-2.95244 1.04533,-4.53925c0.26836,-1.42195 0.86175,-2.9849 1.78017,-4.68884c0.06023,0.02855 0.13553,0.06425 0.22588,0.10708c1.60713,1.27826 3.53293,2.46785 5.77741,3.56875c-0.8138,1.71666 -1.53724,3.47614 -2.17034,5.27846c-1.58988,4.52086 -3.00854,9.03067 -4.25598,13.52944c-0.03367,1.23813 0.02937,2.46677 0.18911,3.68594c0.05377,0.43122 0.13687,0.83947 0.24931,1.22474c0.63515,1.85027 0.25425,3.23731 -1.14271,4.16113c-3.39857,-6.36929 -3.96463,-13.81176 -1.69818,-22.32743M485.47524,422.39833c-0.02855,0.06023 -0.07217,0.11333 -0.13084,0.15928c-4.37916,1.61252 -8.69574,3.36536 -12.94974,5.25852c-0.09035,-0.04283 -0.16564,-0.07852 -0.22588,-0.10708c-1.10786,-0.93092 -2.4456,-1.80485 -4.01324,-2.62177l0.04283,-0.09035c0.06023,0.02855 0.13553,0.06425 0.22588,0.10708c-0.30429,-0.29179 -0.47619,-0.66836 -0.51568,-1.1297c-0.00156,-0.07451 0.01193,-0.14188 0.04049,-0.20212c0.04283,-0.09035 0.08644,-0.14345 0.13084,-0.15928c5.20524,-2.03238 11.00369,-2.43724 17.39534,-1.21458M493.98866,460.4606c0.03168,0.08879 0.03324,0.1633 0.00469,0.22353c-2.13624,2.63891 -4.2669,5.18825 -6.39199,7.64802c-4.32156,5.07013 -6.82809,10.66872 -7.51958,16.79579c-0.4232,-0.27439 -0.83926,-0.56384 -1.24818,-0.86835c-0.09035,-0.04283 -0.16564,-0.07852 -0.22588,-0.10708c-2.36436,-8.23965 -0.80789,-17.55295 4.66941,-27.9399c0.04283,-0.09035 0.07852,-0.16564 0.10708,-0.22588c1.78335,0.43968 3.62851,0.98243 5.53545,1.62824c2.20655,0.71407 3.89622,1.66261 5.06899,2.84562M519.17806,477.93462c0.06023,0.02855 0.12839,0.07931 0.20446,0.15225c3.74499,3.69337 7.18714,7.51981 10.32645,11.47932c-0.09035,-0.04283 -0.15772,-0.05633 -0.20212,-0.04049c-5.61572,1.65336 -11.45398,2.64795 -17.51478,2.98376c-0.15058,-0.07139 -0.22666,-0.14433 -0.22822,-0.21884c0.37966,-2.51262 1.29283,-5.17806 2.73951,-7.99633c1.31818,-2.54721 2.87641,-4.66711 4.67469,-6.35968M533.97337,479.63703c-0.01428,0.03012 0.02376,0.06659 0.11411,0.10942c-0.46958,1.06836 -0.89399,2.15814 -1.27322,3.26934c-0.02855,0.06023 -0.06425,0.13553 -0.10708,0.22588l0.09035,0.04283c-0.35224,0.97645 -0.73538,1.90137 -1.14942,2.77476l-0.96743,-1.34386c-1.19643,-1.59996 -2.8049,-3.65345 -4.82542,-6.16046c-1.9904,-2.49274 -2.97133,-3.76923 -2.94277,-3.82946c2.92553,-1.96966 6.03321,-3.42879 9.32305,-4.37739c0.04439,-0.01584 0.11177,-0.00234 0.20212,0.04049c0.71882,2.99648 1.23073,6.0793 1.53572,9.24846z" fill="#475c81"/><path d="M506.43411,510.06919c0.06023,0.02855 0.13553,0.06425 0.22588,0.10708c0.22197,-0.0792 0.45186,-0.1362 0.68967,-0.171c0.04439,-0.01584 0.11177,-0.00234 0.20212,0.04049c0.06023,0.02855 0.12839,0.07931 0.20446,0.15225c0.62599,0.70249 0.30408,0.99251 -0.96573,0.87005c-0.42163,-0.19988 -0.57613,-0.45754 -0.46347,-0.77299c0.04283,-0.09035 0.07852,-0.16564 0.10708,-0.22588z" fill="#425574"/><path d="M527.2242,504.37791l-0.02142,0.04518c0.35359,-0.20123 0.52324,-0.28678 0.50897,-0.25667c-0.13162,0.12203 -0.2561,0.229 -0.37344,0.32091c-0.42654,0.2773 -1.20588,0.79309 -2.33803,1.54735c-2.52911,1.67808 -5.88017,3.26159 -10.0532,4.75051c-0.09035,-0.04283 -0.16564,-0.07852 -0.22588,-0.10708c-1.24594,-0.40622 -1.60567,-0.8534 -1.07919,-1.34151c0.07295,-0.07607 1.52367,-0.56866 4.35217,-1.47777c2.65092,-0.84575 4.88411,-1.70511 6.69958,-2.57806l1.90503,-0.86738l0.19977,-0.07128c0.01428,-0.03012 0.10942,-0.11411 0.28544,-0.25198l-0.10708,0.22588c0.08879,-0.03168 0.16252,-0.0705 0.22119,-0.11645c0.95926,-0.46738 0.96797,-0.40792 0.0261,0.17836z" fill="#415476"/><path d="M527.20279,504.42308l0.02142,-0.04518c0.94186,-0.58628 0.93316,-0.64573 -0.0261,-0.17836c-0.05867,0.04596 -0.1324,0.08477 -0.22119,0.11645l0.10708,-0.22588c-0.17601,0.13787 -0.27116,0.22186 -0.28544,0.25198l-0.19977,0.07128l-1.90503,0.86738c0.14746,-0.07764 0.27272,-0.14735 0.37579,-0.20915c0.94499,-0.43726 1.56494,-0.73353 1.85986,-0.8888c0.01428,-0.03012 0.04361,-0.05309 0.08801,-0.06893c1.62049,-0.9285 1.85194,-0.91099 0.69436,0.05253c0.01428,-0.03012 -0.15538,0.05544 -0.50897,0.25667z" fill="#415370"/><path d="M530.93211,494.57223c-0.06826,0.29961 -0.21181,0.56352 -0.43066,0.79174c-5.54094,5.93058 -11.98953,9.45754 -19.34578,10.58087c-0.09035,-0.04283 -0.14345,-0.08644 -0.15928,-0.13084c-1.48445,-3.24878 -1.54127,-6.66914 -0.17045,-10.26106c0.06023,0.02855 0.12761,0.04205 0.20212,0.04049c6.9866,-0.26578 13.62129,-0.60618 19.90405,-1.02119z" fill="#465c81"/><path d="M535.54498,495.9291c-0.02855,0.06023 -0.07931,0.12839 -0.15225,0.20446c-0.68353,0.8194 -1.31875,1.80924 -1.90568,2.96952c0.43165,-1.4552 1.03453,-2.92144 1.80862,-4.39872c0.04283,-0.09035 0.07852,-0.16564 0.10708,-0.22588c0.04283,-0.09035 0.05633,-0.15772 0.04049,-0.20212c-0.17715,-1.33807 0.31687,-1.95223 1.48205,-1.84249c0.20769,-0.04908 0.31232,-0.03637 0.31388,0.03814c0.15974,1.21916 -0.40498,2.37152 -1.69418,3.45707M539.86595,487.63125c0.27908,-0.19967 0.42654,-0.2773 0.44238,-0.23291c0.29761,1.39518 -0.25117,2.24157 -1.64634,2.53918c-0.228,-0.91956 0.17332,-1.68832 1.20397,-2.30628z" fill="#435878"/><path d="M461.88235,433.06826c-0.09035,-0.04283 -0.14266,-0.04919 -0.15694,-0.01907c-0.44081,0.30742 -0.90383,0.62276 -1.38903,0.94601c-0.09035,-0.04283 -0.16564,-0.07852 -0.22588,-0.10708c-0.09035,-0.04283 -0.14266,-0.04919 -0.15694,-0.01907c-1.02909,0.69247 -1.70626,1.45956 -2.0315,2.30127c-0.02855,0.06023 -0.07217,0.11333 -0.13084,0.15928c-2.93043,2.44684 -5.53536,5.84102 -7.8148,10.18252c-2.24448,-1.1009 -4.17029,-2.29049 -5.77741,-3.56875c-0.09035,-0.04283 -0.16564,-0.07852 -0.22588,-0.10708c3.35023,-6.60026 7.46154,-11.03236 12.33393,-13.2963c0.05867,-0.04596 0.10228,-0.09905 0.13084,-0.15928c0.06023,0.02855 0.13553,0.06425 0.22588,0.10708c1.57701,1.26399 3.31654,2.45748 5.21858,3.58047M468.19837,424.99693l-0.04283,0.09035c1.56764,0.81692 2.90538,1.69085 4.01324,2.62177c-0.02855,0.06023 -0.07217,0.11333 -0.13084,0.15928c-1.62674,0.63046 -3.24399,1.35763 -4.85176,2.1815c-0.09035,-0.04283 -0.16564,-0.07852 -0.22588,-0.10708c-1.27897,-1.27024 -2.95748,-2.39792 -5.03554,-3.38304l0.04283,-0.09035c1.51898,-0.7922 3.05224,-1.61451 4.59978,-2.46694c0.01428,-0.03012 0.06659,-0.02376 0.15694,0.01907c0.06023,0.02855 0.11333,0.07217 0.15928,0.13084c0.23134,0.36787 0.6696,0.6494 1.31477,0.84459M538.92417,449.11948c0.92091,0.54722 1.55325,1.1974 1.89704,1.95053c0.04752,0.13318 0.0879,0.28142 0.12114,0.44472c0.59032,3.26753 0.67726,6.70216 0.2608,10.30389c-1.68568,-3.60237 -3.49741,-7.17228 -5.43517,-10.70974c-0.10775,-0.16174 -0.09024,-0.39319 0.05253,-0.69436c0.61392,-1.29502 1.5589,-1.73228 2.83496,-1.31178l0.04283,-0.09035c0.06023,0.02855 0.13553,0.06425 0.22588,0.10708M540.67626,474.01753c-0.09035,-0.04283 -0.16564,-0.07852 -0.22588,-0.10708c-1.75281,-1.82683 -1.39968,-3.11638 1.05939,-3.86866c0.04439,-0.01584 0.11177,-0.00234 0.20212,0.04049c0.66747,-0.16308 1.11922,0.05107 1.35526,0.64247c0.77302,2.02628 0.20193,3.23095 -1.71326,3.61401c-0.22666,-0.14433 -0.45253,-0.25141 -0.67763,-0.32124M531.21085,438.54697c-0.02855,0.06023 -0.03491,0.11255 -0.01907,0.15694c2.42965,2.11081 2.66526,4.10363 0.70681,5.97847c-0.09035,-0.04283 -0.16564,-0.07852 -0.22588,-0.10708c-0.09035,-0.04283 -0.16564,-0.07852 -0.22588,-0.10708l-0.04283,0.09035c-0.46759,-0.25855 -0.82587,-0.28086 -1.07483,-0.06691c-0.2155,-0.32347 -0.61015,-0.6581 -1.18393,-1.00387l0.04283,-0.09035c-1.06325,-1.64748 -2.45945,-3.17616 -4.18861,-4.58604c0.01428,-0.03012 0.03569,-0.07529 0.06425,-0.13553c-2.24448,-1.1009 -3.71921,-2.46394 -4.42418,-4.08911c-0.07764,-0.14746 0.03647,-0.03804 0.34233,0.32827c0.13787,0.17601 0.35739,0.33541 0.65856,0.47818c0.06023,0.02855 0.13553,0.06425 0.22588,0.10708c3.10693,0.99336 6.22178,2.00893 9.34455,3.04668z" fill="#8fbbbe"/><path d="M460.1105,433.88812c-0.02855,0.06023 -0.07931,0.12839 -0.15225,0.20446c-0.59474,0.78772 -1.27347,1.4803 -2.03619,2.07774c0.32525,-0.84171 1.00242,-1.6088 2.0315,-2.30127c0.01428,-0.03012 0.06659,-0.02376 0.15694,0.01907z" fill="#94c3c7"/><path d="M468.42425,425.10401c-0.09035,-0.04283 -0.16564,-0.07852 -0.22588,-0.10708c-0.64517,-0.19519 -1.08342,-0.47672 -1.31477,-0.84459c-0.04596,-0.05867 -0.09905,-0.10228 -0.15928,-0.13084c0.30919,-0.18539 0.63501,-0.28913 0.97745,-0.31122c0.07451,-0.00156 0.15694,0.01907 0.24729,0.0619c-0.02855,0.06023 -0.04205,0.12761 -0.04049,0.20212c0.03949,0.46134 0.21138,0.83791 0.51568,1.1297M466.96031,429.94276c-0.02855,0.06023 -0.07217,0.11333 -0.13084,0.15928c-1.668,0.79532 -3.24175,1.81975 -4.72124,3.07329c-0.09035,-0.04283 -0.16564,-0.07852 -0.22588,-0.10708c-1.90204,-1.12299 -3.64157,-2.31648 -5.21858,-3.58047c-0.09035,-0.04283 -0.16564,-0.07852 -0.22588,-0.10708c1.79962,-0.91735 3.59055,-1.89415 5.37277,-2.93041c0.01428,-0.03012 0.06659,-0.02376 0.15694,0.01907l-0.04283,0.09035c2.07806,0.98512 3.75657,2.1128 5.03554,3.38304M544.94768,464.42366c-0.02855,0.06023 -0.06503,0.09827 -0.10942,0.11411c-3.27513,-0.48294 -6.29047,-0.30789 -9.04602,0.52514c-2.11314,-5.50172 -5.00317,-10.72625 -8.67009,-15.67358c-0.04596,-0.05867 -0.09905,-0.10228 -0.15928,-0.13084c3.54349,-0.93901 7.37287,-1.04168 11.48814,-0.308c0.07451,-0.00156 0.15694,0.01907 0.24729,0.0619l-0.04283,0.09035c-1.27606,-0.4205 -2.22104,0.01676 -2.83496,1.31178c-0.14277,0.30117 -0.16028,0.53262 -0.05253,0.69436c1.93777,3.53745 3.74949,7.10736 5.43517,10.70974c0.41646,-3.60173 0.32952,-7.03636 -0.2608,-10.30389c-0.03324,-0.1633 -0.07362,-0.31154 -0.12114,-0.44472c-0.34378,-0.75313 -0.97613,-1.40331 -1.89704,-1.95053l0.06425,-0.13553c0.84014,0.25074 1.60344,0.39127 2.28987,0.4216c0.06023,0.02855 0.11333,0.07217 0.15928,0.13084c2.1689,4.60603 3.33893,9.56845 3.5101,14.88727z" fill="#475d81"/><path d="M499.55683,456.18431c-0.26324,0.24406 -0.54154,0.48098 -0.83489,0.71076c-0.52626,-0.21259 -1.03189,-0.50762 -1.51688,-0.88508l0.04283,-0.09035c0.06023,0.02855 0.13553,0.06425 0.22588,0.10708c0.37568,0.14121 0.75214,0.31967 1.12938,0.53539c0.29336,-0.22978 0.59463,-0.43737 0.90383,-0.62276c0.04439,-0.01584 0.11177,-0.00234 0.20212,0.04049c-0.02855,0.06023 -0.07931,0.12839 -0.15225,0.20446z" fill="#364461"/><path d="M519.65119,447.17552c-0.02855,0.06023 -0.06503,0.09827 -0.10942,0.11411c-7.14543,1.22327 -13.68103,4.1557 -19.60681,8.7973c-0.09035,-0.04283 -0.16564,-0.07852 -0.22588,-0.10708c-0.09035,-0.04283 -0.15772,-0.05633 -0.20212,-0.04049c-0.30919,0.18539 -0.61047,0.39297 -0.90383,0.62276c-0.37724,-0.21572 -0.7537,-0.39418 -1.12938,-0.53539c-0.09035,-0.04283 -0.16564,-0.07852 -0.22588,-0.10708c-3.36505,-1.9272 -6.73177,-3.57855 -10.10017,-4.95406l0.04283,-0.09035c0.06023,0.02855 0.13553,0.06425 0.22588,0.10708c6.14818,-6.12222 12.83568,-10.6978 20.06252,-13.72672c0.22197,-0.0792 0.48354,-0.04741 0.78471,0.09536c0.15058,0.07139 0.30117,0.14277 0.45175,0.21416c0.06023,0.02855 0.13553,0.06425 0.22588,0.10708c4.48719,2.82801 8.05716,5.99579 10.70992,9.50333M508.16599,468.95197c2.94967,2.02536 5.52277,4.22262 7.7193,6.59176c-0.02855,0.06023 -0.07931,0.12839 -0.15225,0.20446c-4.07885,4.55814 -7.00232,10.18039 -8.77042,16.86674c-0.09035,-0.04283 -0.17278,-0.06347 -0.24729,-0.0619c-6.45679,-0.77403 -13.23037,-2.43594 -20.32074,-4.98573c-1.74052,-0.53003 -2.41637,-1.47747 -2.02755,-2.84231c0.34755,-1.19998 0.79973,-2.38725 1.35654,-3.56181c3.70581,-8.12841 8.22824,-14.28363 13.56731,-18.46566c2.87672,2.10144 5.83509,4.18625 8.87511,6.25444M531.67799,466.15553c-0.02855,0.06023 -0.06503,0.09827 -0.10942,0.11411c-4.07621,1.12909 -7.8768,2.96056 -11.40175,5.49441c-0.09035,-0.04283 -0.1585,-0.09358 -0.20446,-0.15225c-5.45227,-4.0601 -10.94737,-8.02985 -16.48531,-11.90925c0.04283,-0.09035 0.09358,-0.1585 0.15225,-0.20446c5.74998,-5.20444 12.307,-8.18205 19.67106,-8.93282c0.06023,0.02855 0.11333,0.07217 0.15928,0.13084c3.91589,4.73339 6.65533,9.88653 8.21834,15.45943z" fill="#475d82"/><path d="M544.92263,468.56135c-0.02855,0.06023 -0.04205,0.12761 -0.04049,0.20212c0.06627,1.02731 0.1032,2.0776 0.1108,3.15087c-0.02855,0.06023 -0.06425,0.13553 -0.10708,0.22588c-1.97046,4.85683 -4.19514,8.9661 -6.67403,12.32781c-0.09035,-0.04283 -0.12839,-0.07931 -0.11411,-0.10942c0.18867,-5.222 -0.14033,-10.24678 -0.987,-15.07435c0.06023,0.02855 0.12761,0.04205 0.20212,0.04049c2.52868,-0.27666 5.06527,-0.53112 7.60979,-0.76338M540.45038,473.91045c0.06023,0.02855 0.13553,0.06425 0.22588,0.10708c0.22509,0.06982 0.45097,0.1769 0.67763,0.32124c1.91519,-0.38306 2.48627,-1.58773 1.71326,-3.61401c-0.23603,-0.5914 -0.68778,-0.80556 -1.35526,-0.64247c-0.09035,-0.04283 -0.15772,-0.05633 -0.20212,-0.04049c-2.45907,0.75228 -2.8122,2.04183 -1.05939,3.86866z" fill="#455a7e"/><path d="M524.93481,432.52874c0.06023,0.02855 0.13553,0.06425 0.22588,0.10708c6.56858,3.26144 11.01418,7.30538 13.33678,12.13181c-0.02855,0.06023 -0.06503,0.09827 -0.10942,0.11411c-4.73054,-0.21388 -9.19259,0.28968 -13.38615,1.51068c-3.87171,-4.04852 -8.09143,-7.98538 -12.65916,-11.81058c-0.09035,-0.04283 -0.16564,-0.07852 -0.22588,-0.10708c1.39518,-0.29761 2.75867,-0.68401 4.09049,-1.1592c0.05867,-0.04596 0.10228,-0.09905 0.13084,-0.15928c0.04283,-0.09035 0.07931,-0.12839 0.10942,-0.11411c2.73324,-0.47476 5.56231,-0.6459 8.48719,-0.51342M531.19178,438.70391c-0.01584,-0.04439 -0.00948,-0.09671 0.01907,-0.15694c-3.12277,-1.03776 -6.23762,-2.05332 -9.34455,-3.04668c-0.09035,-0.04283 -0.16564,-0.07852 -0.22588,-0.10708c-0.30117,-0.14277 -0.52069,-0.30216 -0.65856,-0.47818c-0.30586,-0.3663 -0.41997,-0.47573 -0.34233,-0.32827c0.70497,1.62517 2.1797,2.98821 4.42418,4.08911c-0.02855,0.06023 -0.04997,0.10541 -0.06425,0.13553c1.72916,1.40988 3.12536,2.93856 4.18861,4.58604l-0.04283,0.09035c0.57378,0.34578 0.96842,0.6804 1.18393,1.00387c0.24896,-0.21394 0.60724,-0.19164 1.07483,0.06691l0.04283,-0.09035c0.06023,0.02855 0.13553,0.06425 0.22588,0.10708c0.06023,0.02855 0.13553,0.06425 0.22588,0.10708c1.95845,-1.87484 1.72285,-3.86766 -0.70681,-5.97847z" fill="#475c80"/></g></g></svg>