<svg version="1.1" xmlns="http://www.w3.org/2000/svg" xmlns:xlink="http://www.w3.org/1999/xlink" width="428.41329" height="571.00293" viewBox="0,0,428.41329,571.00293"><g transform="translate(-433.6337,-148.89057)"><g data-paper-data="{&quot;isPaintingLayer&quot;:true}" fill-rule="nonzero" stroke="none" stroke-width="1" stroke-linecap="butt" stroke-linejoin="miter" stroke-miterlimit="10" stroke-dasharray="" stroke-dashoffset="0" style="mix-blend-mode: normal"><path d="M544.93468,447.92837c0.39728,-6.52907 1.91793,-12.04719 4.56194,-16.55436c1.76213,-2.94923 3.42477,-5.94944 4.98791,-9.00062c5.16288,-9.84886 10.82061,-19.17623 16.97321,-27.98211c0.00065,-0.06666 -0.01536,-0.13348 -0.04803,-0.20046c-2.91691,-5.06163 -4.92513,-11.0143 -6.02468,-17.85802c1.41938,-1.98598 3.02027,-3.78686 4.80266,-5.40264c7.80269,-7.12314 16.94194,-12.88327 27.41776,-17.28038c2.69959,0.02645 4.97914,0.39876 6.83867,1.11694c10.85817,4.20615 20.43795,9.61638 28.73934,16.23067c-0.446,1.29556 -0.82714,2.77507 -1.14342,4.43855c-2.35512,12.44289 -4.85989,24.85098 -7.51431,37.22427c-1.83305,-0.01796 -3.65091,0.11422 -5.45358,0.39654c-4.17321,0.6924 -8.61175,1.24888 -13.3156,1.66944c-4.794,6.21934 -9.20897,12.87571 -13.24491,19.96909c-5.39258,9.47996 -10.22446,19.56538 -14.49564,30.25626c-0.09998,-0.00098 -0.1668,0.01503 -0.20046,0.04803c-4.56725,3.48839 -11.34579,4.73856 -20.3356,3.75054c0.00065,-0.06666 -0.01552,-0.11681 -0.04852,-0.15047c-5.37142,-2.8858 -9.56541,-6.87667 -12.58198,-11.9726c-0.1415,-2.56791 -0.11309,-5.46747 0.08523,-8.69867z" fill-opacity="0.99608" fill="#000000"/><path d="M577.69864,476.46037c-4.17698,14.6012 -10.20925,25.6324 -18.09681,33.09361c-5.90309,5.56944 -12.5605,9.7432 -19.97221,12.52128c-7.2597,2.76867 -15.93396,2.72549 -26.02279,-0.12956c-5.84168,-1.65712 -10.66597,-4.31307 -14.47287,-7.96784c-7.57006,-7.22417 -12.32146,-16.93122 -14.25419,-29.12117c-0.94805,-6.03371 -1.35501,-12.61839 -1.22087,-19.75403c0.16312,-7.13009 1.16345,-15.02398 3.00098,-23.68167c1.8796,-6.99407 4.24887,-13.72115 7.10781,-20.18125c2.6577,-6.0366 5.77445,-11.25381 9.35023,-15.65163c7.21664,-8.82168 16.39464,-13.7643 27.53401,-14.82786c4.21985,-0.38587 8.82682,0.18789 13.82093,1.72129c8.58944,2.68357 15.49737,6.93188 20.72377,12.74492c6.93464,7.71857 11.74345,17.28261 14.42645,28.69212c1.37458,5.84584 1.97265,12.21684 1.79423,19.11299c-0.18993,7.74099 -1.42949,15.55059 -3.71868,23.4288z" fill-opacity="0.99608" fill="#000000"/><path d="M547.61993,412.95337c1.3573,0.87029 2.46297,1.84719 3.31702,2.93069c2.73041,3.39768 5.28209,6.88653 7.65505,10.46656c5.86086,8.8281 9.3114,19.0426 10.35161,30.64351c-0.26893,1.0319 -0.54206,2.07993 -0.81939,3.14407c-0.02521,0.09674 -0.04622,0.17736 -0.06303,0.24185c-4.10966,3.61241 -8.4774,6.76153 -13.1032,9.44737c-0.0729,0.01544 -0.14159,0.01475 -0.20609,-0.00205c0.05075,7.07284 -1.10971,14.43266 -3.4814,22.07948c-0.92737,3.02984 -2.49215,5.13595 -4.69433,6.31832c-4.76183,2.54708 -10.66322,3.0581 -17.70419,1.53305c-2.48438,-0.50972 -4.49639,-1.37845 -6.03603,-2.60619c-2.77385,2.58306 -5.87798,4.64957 -9.31239,6.19955c-0.04065,0.02384 -0.06938,0.06801 -0.08619,0.13251c-1.67807,6.1746 -3.73968,11.90487 -6.18482,17.19081c-0.91779,2.0681 -2.28224,3.53767 -4.09335,4.40871c-5.9534,2.89084 -12.95238,4.04562 -20.99692,3.46432c-3.15023,-0.20113 -6.35588,-0.52001 -9.61692,-0.95664c-7.24833,-0.99366 -14.05106,-2.9043 -20.40818,-5.73193c-4.99709,-2.23212 -9.20569,-4.91305 -12.6258,-8.0428c-3.05132,-2.82701 -4.76605,-6.35602 -5.14418,-10.58702c-0.07172,-0.91406 -0.05784,-1.49587 0.04164,-1.74544c0.06449,0.01681 0.13319,0.01749 0.20609,0.00205c2.15743,-0.74635 4.3387,-1.45205 6.54381,-2.11711c-0.02521,0.09674 -0.06235,0.17316 -0.1114,0.22925c-0.66977,1.51287 -0.95121,2.98919 -0.84432,4.42897c3.33116,6.37809 9.62631,10.96308 18.88547,13.75496c11.00753,3.35085 20.90284,4.75885 29.68595,4.22402c0.8734,-0.04787 1.64518,-0.03614 2.31533,0.0352c3.47133,0.42256 6.13416,-0.34704 7.98848,-2.30882c1.96786,-2.00105 3.66994,-4.50184 5.10623,-7.50236c1.51055,-3.15335 2.35516,-6.39417 2.53382,-9.72244c-1.95847,0.24721 -3.81033,0.74605 -5.55558,1.49651c-2.75175,1.17689 -5.73646,1.39771 -8.95411,0.66245c3.97987,-1.13232 7.86437,-2.42725 11.6535,-3.88478c2.22329,-0.86694 4.34701,-1.88035 6.37115,-3.04025c1.86154,-1.06453 3.71888,-2.11293 5.57201,-3.14521c5.0071,-2.82753 7.55251,-8.03569 7.63622,-15.62448c-0.09674,-0.02521 -0.17736,-0.04622 -0.24185,-0.06303c-2.98079,-0.98346 -5.57812,-1.91864 -7.79202,-2.80555c0.06449,0.01681 0.14511,0.03782 0.24185,0.06303c5.22088,0.05203 10.03644,-0.58701 14.44666,-1.91711c0.01681,-0.06449 0.04974,-0.12479 0.09879,-0.18088c4.00844,-4.80965 7.23006,-10.96078 9.66487,-18.4534c0.01681,-0.06449 0.03782,-0.14511 0.06303,-0.24185c0.2017,-0.77393 0.65023,-1.17359 1.34559,-1.19899c-0.02521,0.09674 -0.04622,0.17736 -0.06303,0.24185c0.73951,2.84439 0.79567,6.13055 0.16848,9.85849c-0.36255,2.31611 -0.93686,4.38763 -1.72292,6.21456c-1.10834,2.53499 -1.79757,4.78319 -2.06768,6.74458c-0.02521,0.09674 -0.06235,0.17316 -0.1114,0.22925c-1.29635,1.935 -3.16912,2.91051 -5.61833,2.92651c-0.02521,0.09674 -0.05814,0.15703 -0.09879,0.18088c-0.65042,0.38149 -1.26927,0.84007 -1.85656,1.37576c-0.02521,0.09674 -0.04622,0.17736 -0.06303,0.24185c-0.45207,3.18815 -1.12782,6.11138 -2.02724,8.7697c-0.02521,0.09674 -0.0259,0.16544 -0.00205,0.20609c0.83587,1.28539 1.99695,2.38004 3.48323,3.28394c1.7945,-0.01445 3.6058,-0.09339 5.43391,-0.23682c5.29789,-0.37558 8.80688,-3.73129 10.52697,-10.06712c0.53649,-1.92641 0.71621,-3.73918 0.53916,-5.4383c-0.45533,-4.59549 0.34756,-9.32797 2.40868,-14.19744c0.9125,-0.72643 1.90073,-1.34703 2.96469,-1.8618c2.94797,-1.40125 5.86018,-2.86348 8.73662,-4.38669c0.01681,-0.06449 0.03782,-0.14511 0.06303,-0.24185c0.15264,-0.71784 0.34173,-1.44339 0.56727,-2.17667c-1.80417,-11.18014 -5.70607,-21.11625 -11.70569,-29.80833c-2.15134,-3.10902 -4.22137,-6.26572 -6.2101,-9.47011c0.91797,-1.276 1.88715,-2.41812 2.90753,-3.42636c0.04065,-0.02384 0.07358,-0.08413 0.09879,-0.18088z" fill-opacity="0.99608" fill="#2b2c3f"/><path d="M457.63371,360.83269c0.01681,-0.06449 0.05394,-0.14091 0.1114,-0.22925c0.58299,-0.91561 1.00124,-1.92582 1.25473,-3.03062c1.9495,-2.59127 3.76718,-5.33743 5.45303,-8.23847c2.95269,-5.11923 6.55266,-9.08832 10.79991,-11.90725c8.83513,-5.75572 19.35539,-8.66167 31.56078,-8.71785c2.15488,0.32053 4.37356,0.72657 6.65606,1.21811c7.24285,1.54323 13.18068,3.86555 17.81347,6.96696c9.73951,6.49853 16.46665,14.77756 20.18141,24.83709c3.72317,10.02728 4.51527,21.78737 2.3763,35.28027c-1.73279,5.98815 -3.85478,11.28944 -6.36598,15.90386l0.14511,0.03782c-0.02521,0.09674 -0.05814,0.15703 -0.09879,0.18088c-1.02038,1.00825 -1.98956,2.15037 -2.90753,3.42636c1.98873,3.20439 4.05877,6.36109 6.2101,9.47011c5.99962,8.69208 9.90152,18.62819 11.70569,29.80833c-0.22554,0.73327 -0.41463,1.45883 -0.56727,2.17667c-0.02521,0.09674 -0.04622,0.17736 -0.06303,0.24185c-2.87644,1.52321 -5.78865,2.98543 -8.73662,4.38669c-1.06396,0.51477 -2.05219,1.13537 -2.96469,1.8618c-2.06111,4.86947 -2.864,9.60195 -2.40868,14.19744c0.17705,1.69912 -0.00267,3.51189 -0.53916,5.4383c-1.72009,6.33583 -5.22908,9.69154 -10.52697,10.06712c-1.82811,0.14343 -3.63942,0.22238 -5.43391,0.23682c-1.48628,-0.90391 -2.64736,-1.99855 -3.48323,-3.28394c-0.02384,-0.04065 -0.02316,-0.10935 0.00205,-0.20609c0.89942,-2.65832 1.57517,-5.58155 2.02724,-8.7697c0.01681,-0.06449 0.03782,-0.14511 0.06303,-0.24185c0.58729,-0.53569 1.20614,-0.99427 1.85656,-1.37576c0.04065,-0.02384 0.07358,-0.08413 0.09879,-0.18088c2.44921,-0.016 4.32198,-0.99151 5.61833,-2.92651c0.04905,-0.05609 0.08619,-0.13251 0.1114,-0.22925c0.27011,-1.9614 0.95933,-4.20959 2.06768,-6.74458c0.78606,-1.82693 1.36037,-3.89845 1.72292,-6.21456c0.62719,-3.72794 0.57103,-7.0141 -0.16848,-9.85849c0.01681,-0.06449 0.03782,-0.14511 0.06303,-0.24185c-0.69536,0.0254 -1.14389,0.42506 -1.34559,1.19899c-0.02521,0.09674 -0.04622,0.17736 -0.06303,0.24185c-2.43481,7.49261 -5.65643,13.64375 -9.66487,18.4534c-0.04905,0.05609 -0.08199,0.11638 -0.09879,0.18088c-4.41023,1.3301 -9.22578,1.96914 -14.44666,1.91711c-0.09674,-0.02521 -0.17736,-0.04622 -0.24185,-0.06303c2.21389,0.88691 4.81123,1.82209 7.79202,2.80555c0.06449,0.01681 0.14511,0.03782 0.24185,0.06303c-0.08371,7.58879 -2.62912,12.79695 -7.63622,15.62448c-1.85314,1.03228 -3.71047,2.08068 -5.57201,3.14521c-2.02414,1.1599 -4.14786,2.17331 -6.37115,3.04025c-3.78913,1.45753 -7.67363,2.75246 -11.6535,3.88478c3.21766,0.73526 6.20236,0.51444 8.95411,-0.66245c1.74525,-0.75046 3.59711,-1.2493 5.55558,-1.49651c-0.17866,3.32828 -1.02326,6.56909 -2.53382,9.72244c-1.43629,3.00052 -3.13836,5.50131 -5.10623,7.50236c-1.85432,1.96177 -4.51714,2.73138 -7.98848,2.30882c-0.67015,-0.07134 -1.44193,-0.08307 -2.31533,-0.0352c-8.7831,0.53483 -18.67842,-0.87317 -29.68595,-4.22402c-9.25916,-2.79189 -15.55432,-7.37687 -18.88547,-13.75496c-0.10689,-1.43978 0.17455,-2.9161 0.84432,-4.42897c0.04905,-0.05609 0.08619,-0.13251 0.1114,-0.22925c-2.20511,0.66505 -4.38638,1.37075 -6.54381,2.11711c-0.0729,0.01544 -0.14159,0.01475 -0.20609,-0.00205c0.01681,-0.06449 0.03782,-0.14511 0.06303,-0.24185c0.91273,-5.61644 2.46406,-11.23864 4.65397,-16.8666c-2.25823,-4.5488 -4.04477,-9.38791 -5.35962,-14.51734c-0.02384,-0.04065 -0.06801,-0.06938 -0.13251,-0.08619c2.61285,-7.51509 5.71448,-14.19683 9.30489,-20.04523c0.04905,-0.05609 0.08619,-0.13251 0.1114,-0.22925c-1.76352,-11.20398 -3.76675,-22.28103 -6.00967,-33.23115c-0.60778,-3.08555 -0.66677,-6.49298 -0.17698,-10.22229c0.05179,-0.33087 0.11971,-0.65754 0.20375,-0.98001c6.10685,-6.12238 13.19546,-10.59419 21.26582,-13.41544c0.03225,0.0084 0.06098,-0.03576 0.08619,-0.13251c-1.76003,-8.31035 -2.23535,-17.38788 -1.42596,-27.23259c0.01681,-0.06449 0.03782,-0.14511 0.06303,-0.24185c-0.36194,-0.98969 -0.20656,-1.98231 0.46614,-2.97786c0.04905,-0.05609 0.08619,-0.13251 0.1114,-0.22925M464.04792,361.98777c-0.02521,0.09674 -0.04622,0.17736 -0.06303,0.24185c0.41567,2.89774 1.11169,5.6447 2.08807,8.24088c-0.0084,0.03225 0.03576,0.06098 0.13251,0.08619c-0.02776,1.16363 0.11128,2.21576 0.41713,3.1564c0.49385,1.54063 1.04909,1.78864 1.6657,0.74404c0.01681,-0.06449 0.03782,-0.14511 0.06303,-0.24185c2.90501,-5.20053 5.98464,-10.08006 9.23888,-14.63858c-1.98189,-3.89135 -3.30915,-8.1803 -3.98181,-12.86687c-0.02384,-0.04065 -0.06801,-0.06938 -0.13251,-0.08619c-4.30744,3.18206 -7.4501,8.30344 -9.42797,15.36414M495.8548,335.87444c-0.0729,0.01544 -0.14159,0.01475 -0.20609,-0.00205c0.70296,2.45605 1.42625,4.90018 2.16987,7.3324c0.01544,0.0729 0.01475,0.14159 -0.00205,0.20609c4.58397,-1.7325 9.45826,-2.99332 14.62286,-3.78245c0.03225,0.0084 0.06098,-0.03576 0.08619,-0.13251c-3.76467,-1.80762 -8.21621,-3.22604 -13.35461,-4.25525c-0.09674,-0.02521 -0.17736,-0.04622 -0.24185,-0.06303c-1.05282,0.20774 -2.07759,0.44001 -3.07432,0.6968M491.71223,336.70608c-0.02384,-0.04065 -0.06801,-0.06938 -0.13251,-0.08619c-5.19256,1.16065 -9.84865,3.23595 -13.96827,6.22589c-0.04905,0.05609 -0.08199,0.11638 -0.09879,0.18088c0.0983,0.67992 0.10269,1.4559 0.01317,2.32794l0.14511,0.03782c-0.02521,0.09674 -0.04622,0.17736 -0.06303,0.24185c-0.02521,0.09674 -0.0301,0.18156 -0.01466,0.25446c0.04726,4.17921 0.86269,7.92153 2.44628,11.22695c0.01681,-0.06449 0.04974,-0.12479 0.09879,-0.18088c4.17534,-4.5251 8.76793,-8.3388 13.77777,-11.44111c-1.33246,-2.55124 -2.06708,-5.48044 -2.20386,-8.78761M515.01272,336.8898c-0.04065,0.02384 0.06312,0.1542 0.31133,0.39107c0.79933,0.89706 1.62934,1.14781 2.49005,0.75226c-0.55268,-1.3149 -1.48647,-1.69601 -2.80137,-1.14333M508.65737,344.42821c-0.02521,0.09674 -0.05394,0.14091 -0.08619,0.13251c-3.05604,0.89097 -5.98867,1.96907 -8.79788,3.2343c-0.02521,0.09674 -0.0259,0.16544 -0.00205,0.20609c1.54568,3.05449 3.55884,5.83478 6.0395,8.34088c0.06449,0.01681 1.1353,-1.18492 3.21242,-3.60518c2.08552,-2.45251 3.80244,-4.41565 5.15077,-5.88943l1.1395,-1.20104c-0.93516,-0.24372 -1.91517,-0.44747 -2.94004,-0.61125l-0.02521,0.09674c-0.09674,-0.02521 -0.17736,-0.04622 -0.24185,-0.06303c-1.16226,-0.16515 -2.31191,-0.37868 -3.44896,-0.64057M495.88957,349.41729c-0.02384,-0.04065 -0.06801,-0.06938 -0.13251,-0.08619c-5.1824,2.57522 -9.73297,6.22769 -13.65171,10.95741c-0.04905,0.05609 -0.08199,0.11638 -0.09879,0.18088c2.11163,7.09338 6.26001,12.97849 12.44513,17.65533c0.05609,0.04905 0.13251,0.08619 0.22925,0.1114c2.7772,-6.16364 5.65114,-12.30208 8.62183,-18.4153c0.04905,-0.05609 0.08619,-0.13251 0.1114,-0.22925c-3.14669,-2.98961 -5.65489,-6.38104 -7.5246,-10.17428M507.92579,363.09187c-1.91725,2.59968 -3.59539,5.53717 -5.03441,8.81247c-1.46424,3.37204 -2.96004,6.66699 -4.4874,9.88483c5.10417,4.464 11.99415,7.75765 20.66994,9.88094c1.25763,0.32776 2.50822,0.55037 3.75178,0.66784c1.4132,0.12724 2.21772,-0.71342 2.41356,-2.52199c1.18148,-7.44044 1.54993,-14.40403 1.10537,-20.89076c-0.01544,-0.0729 -0.01055,-0.15772 0.01466,-0.25446c-6.89772,-0.48904 -12.96581,-2.31153 -18.20425,-5.46748c-0.08834,-0.05746 -0.16475,-0.09459 -0.22925,-0.1114M509.77123,359.18209c-0.05746,0.08834 -0.09459,0.16475 -0.1114,0.22925c1.99813,1.45054 4.3712,2.58556 7.11922,3.40505c3.03824,0.89512 5.82682,1.29472 8.36574,1.19878c0.0729,-0.01544 0.13036,-0.10378 0.17238,-0.26501c-1.46084,-5.89066 -3.52723,-11.43979 -6.19919,-16.64741c-0.02384,-0.04065 -0.02316,-0.10935 0.00205,-0.20609c-3.30349,3.82251 -6.41976,7.91765 -9.3488,12.28543M479.49039,364.77258c-0.02384,-0.04065 -0.06801,-0.06938 -0.13251,-0.08619c-2.95033,3.26024 -5.39576,7.35803 -7.33629,12.29337c-0.02521,0.09674 -0.04622,0.17736 -0.06303,0.24185l-0.14511,-0.03782c-0.53375,1.65163 -1.12642,3.13293 -1.77802,4.44391c3.99895,8.30842 9.37162,15.83843 16.11802,22.59003c0.976,1.01198 1.77025,1.20175 2.38275,0.56933c0.01331,-2.95812 0.13598,-5.9394 0.36798,-8.94384l0.14511,0.03782l0.09674,0.02521c0.72256,-3.56534 1.71638,-7.18051 2.98147,-10.84551l0.09674,0.02521c0.28026,-0.54683 0.4757,-1.09854 0.58632,-1.65514c-0.28045,-0.24527 -0.5651,-0.47443 -0.85395,-0.68745c-0.08834,-0.05746 -0.16475,-0.09459 -0.22925,-0.1114c0.01681,-0.06449 0.03782,-0.14511 0.06303,-0.24185c-5.66507,-4.95455 -9.76507,-10.82706 -12.30002,-17.61751M464.50506,383.02747c0.23961,-0.52299 0.5269,-0.96467 0.86189,-1.32505c-0.91443,-1.51249 -1.64174,-3.14839 -2.18191,-4.90772c-0.02384,-0.04065 -0.06801,-0.06938 -0.13251,-0.08619c0.02734,2.93428 0.46177,5.16538 1.30331,6.69331l0.14922,-0.37436M468.57546,388.22073c-0.73446,0.70396 -1.08117,1.83611 -1.04014,3.39648c-0.01369,1.37392 -0.11504,2.62168 -0.30403,3.74329c3.14565,10.39333 9.89243,18.72913 20.24034,25.00741c0.69125,0.38677 1.3572,0.47424 1.99784,0.26239c0.0813,-0.04769 0.14296,-0.15215 0.18498,-0.31338c-0.74224,-2.5696 -1.12283,-5.33767 -1.14177,-8.30419c-0.01544,-0.0729 -0.01055,-0.15772 0.01466,-0.25446c-3.96557,-3.5474 -7.72788,-7.21401 -11.28694,-10.99983c-3.55906,-3.78583 -6.44737,-7.96506 -8.66495,-12.5377M497.41482,387.36848c-0.06449,-0.01681 -0.13739,-0.00137 -0.21869,0.04632c-0.94319,1.37274 -1.55961,3.20944 -1.84926,5.51011c-0.27851,1.99364 -0.46732,3.90735 -0.56642,5.74113c-0.02521,0.09674 -0.04622,0.17736 -0.06303,0.24185c-0.72393,3.70273 -1.02102,7.15511 -0.89128,10.35714c1.98835,1.62018 4.14205,2.87021 6.46109,3.75009c5.04888,1.90125 10.20693,2.98723 15.47412,3.25796c0.01681,-0.06449 0.05394,-0.14091 0.1114,-0.22925c2.65992,-4.12798 4.93484,-8.95895 6.82476,-14.49291c-0.08579,-1.12435 0.0906,-2.19758 0.52917,-3.21971c0.04905,-0.05609 0.08619,-0.13251 0.1114,-0.22925c0.01681,-0.06449 0.03782,-0.14511 0.06303,-0.24185c0.2228,-0.45849 0.42948,-0.92119 0.62003,-1.38808c-6.14745,0.46411 -12.1145,-0.95325 -17.90114,-4.25206c-2.8127,-1.6284 -5.71443,-3.24556 -8.70518,-4.85149M492.56107,421.84926c0.00703,0.10514 0.00215,0.18996 -0.01466,0.25446c5.65317,2.09317 11.01163,2.93867 16.07539,2.53651c0.03225,0.0084 0.06098,-0.03576 0.08619,-0.13251c1.37647,-1.05319 2.56571,-2.37902 3.56772,-3.97749c0.04905,-0.05609 0.08619,-0.13251 0.1114,-0.22925c-7.27628,-0.62214 -13.62481,-2.6899 -19.0456,-6.20331c-0.08834,-0.05746 -0.16475,-0.09459 -0.22925,-0.1114c-0.48861,2.79982 -0.67235,5.42081 -0.5512,7.86298M461.57833,402.97865c-0.05609,-0.04905 -0.11638,-0.08199 -0.18088,-0.09879c-0.00826,6.50646 1.47143,12.12654 4.43909,16.86022c0.02384,0.04065 0.08413,0.07358 0.18088,0.09879c-0.02521,0.09674 -0.0301,0.18156 -0.01466,0.25446c0.0856,0.33224 0.2483,0.63292 0.48809,0.90204c-0.02521,0.09674 -0.02169,0.14931 0.01055,0.15772c1.12609,1.36103 2.21994,2.71365 3.28154,4.05787c-0.02521,0.09674 -0.02169,0.14931 0.01055,0.15772c1.35045,1.55725 2.64413,3.13414 3.88103,4.73066c0.06449,0.01681 0.12479,0.04974 0.18088,0.09879c3.133,4.36353 8.2537,7.57489 15.36209,9.63406c1.84511,0.58417 3.49107,0.87539 4.93788,0.87364c1.61645,0.00803 3.16773,0.06794 4.65382,0.17974c8.78759,0.6372 15.99246,-1.30763 21.61461,-5.83447c-1.16811,-1.19979 -2.60164,-1.31511 -4.30057,-0.34596c-0.35745,0.18234 -0.74295,0.34015 -1.1565,0.47343c-1.16773,0.38441 -2.36283,0.6756 -3.58529,0.87357c-4.65177,-0.38583 -9.34634,-0.93778 -14.08371,-1.65586c-1.8885,-0.28555 -3.75178,-0.66784 -5.58986,-1.14687c-4.68987,-1.42887 -8.50995,-3.35425 -11.46023,-5.77612c-0.05609,-0.04905 -0.11638,-0.08199 -0.18088,-0.09879c-0.72917,-0.63771 -1.53612,-1.17517 -2.42085,-1.61237c-0.08834,-0.05746 -0.16475,-0.09459 -0.22925,-0.1114c0.01681,-0.06449 0.03782,-0.14511 0.06303,-0.24185c-0.40807,-0.41628 -0.80421,-0.81224 -1.18844,-1.18787c-0.03225,-0.0084 -0.03576,-0.06098 -0.01055,-0.15772c0.01681,-0.06449 0.03782,-0.14511 0.06303,-0.24185c-1.50739,-1.21934 -2.80732,-2.57402 -3.8998,-4.06403c-0.05609,-0.04905 -0.11638,-0.08199 -0.18088,-0.09879c0.01681,-0.06449 0.03782,-0.14511 0.06303,-0.24185c-1.10928,-1.42552 -2.12534,-2.8784 -3.04818,-4.35864c-0.05609,-0.04905 -0.11638,-0.08199 -0.18088,-0.09879c0.01681,-0.06449 0.03782,-0.14511 0.06303,-0.24185c-2.65341,-3.8253 -5.18066,-7.73824 -7.58175,-11.73884M524.51031,340.08819c-0.08834,-0.05746 -0.16475,-0.09459 -0.22925,-0.1114c-1.30687,-1.06377 -2.54418,-1.40345 -3.71191,-1.01904c-0.0729,0.01544 -0.06586,0.12058 0.0211,0.31543c0.10963,1.165 0.80509,1.53565 2.08637,1.11195c0.04065,-0.02384 0.10935,-0.02316 0.20609,0.00205c0.06449,0.01681 0.14511,0.03782 0.24185,0.06303c1.59554,0.4847 3.14828,0.80327 4.65821,0.95572c-1.24923,-0.36 -2.34005,-0.79926 -3.27247,-1.31776M524.66711,345.03634c-0.26501,-0.17238 -0.55103,-0.26414 -0.85806,-0.27528c1.58005,6.09391 3.15248,12.54742 4.71728,19.36054c0.01544,0.0729 0.01475,0.14159 -0.00205,0.20609c3.78403,0.67624 7.13313,-0.01782 10.0473,-2.08219c0.04065,-0.02384 0.07358,-0.08413 0.09879,-0.18088c-2.47612,-7.01618 -7.14387,-12.69228 -14.00325,-17.02828M533.91201,346.82584c0.02384,0.04065 0.05189,0.06518 0.08413,0.07358c0.20755,0.26071 0.61425,0.81439 1.22009,1.66102c0.07993,0.08971 0.17179,0.19974 0.27556,0.33009c1.19625,1.62037 2.45709,3.6536 3.78252,6.09969c1.4208,2.60869 2.17537,3.94177 2.2637,3.99923c0.57771,0.42606 0.94982,-0.01074 1.11634,-1.31039c0.01681,-0.06449 0.03782,-0.14511 0.06303,-0.24185c-2.24123,-3.82119 -4.42198,-6.81734 -6.54225,-8.98846c-0.95216,-0.97133 -1.60422,-1.6406 -1.9562,-2.00783c-0.11218,-0.09811 -0.24048,-0.20042 -0.38491,-0.30694c-1.16245,-0.95726 -1.13646,-0.72664 0.07797,0.69184M544.61347,363.04528c-0.02384,-0.04065 -0.10866,-0.04554 -0.25446,-0.01466c-0.71628,0.50207 -1.09396,1.09238 -1.13306,1.77094l0.14511,0.03782c-0.02521,0.09674 -0.0259,0.16544 -0.00205,0.20609c0.07856,0.2271 0.17745,0.44227 0.29667,0.64553c-0.02521,0.09674 -0.04622,0.17736 -0.06303,0.24185c-0.02521,0.09674 -0.0259,0.16544 -0.00205,0.20609c1.72018,5.8205 3.05418,11.8675 4.00199,18.14101c0.01681,-0.06449 0.05394,-0.14091 0.1114,-0.22925c0.64749,-0.89881 1.12876,-2.15086 1.44382,-3.75617c-0.66189,-6.5778 -2.17666,-12.32755 -4.54433,-17.24924M540.09711,366.10401c-0.02384,-0.04065 -0.06801,-0.06938 -0.13251,-0.08619c-3.19754,1.30177 -6.73309,2.05056 -10.60664,2.24635c-0.04065,0.02384 -0.06938,0.06801 -0.08619,0.13251c1.10631,6.59031 0.83898,14.35509 -0.80198,23.29433l0.14511,0.03782c2.19827,0.02191 4.19387,-0.30172 5.98681,-0.97088c0.04065,-0.02384 0.10935,-0.02316 0.20609,0.00205c0.06449,0.01681 0.13319,0.01749 0.20609,0.00205c3.37577,-0.53214 6.42967,-1.61308 9.16169,-3.2428c-0.40335,-4.13426 -0.82281,-8.27273 -1.25841,-12.41539c-0.02384,-0.04065 -0.06801,-0.06938 -0.13251,-0.08619c0.01681,-0.06449 0.03782,-0.14511 0.06303,-0.24185c0.01681,-0.06449 0.03782,-0.14511 0.06303,-0.24185c-0.8769,-2.84575 -1.81477,-5.65574 -2.81362,-8.42997M539.31694,410.32458c0.04065,-0.02384 0.10935,-0.02316 0.20609,0.00205c1.11948,-2.84202 2.15972,-5.84245 3.1207,-9.00128c0.01681,-0.06449 0.03782,-0.14511 0.06303,-0.24185c0.51656,-3.17134 0.89085,-6.25923 1.12286,-9.26367c0.01681,-0.06449 0.03782,-0.14511 0.06303,-0.24185c-4.63284,2.5807 -9.85403,4.18157 -15.66357,4.80261c-0.04065,0.02384 -0.06938,0.06801 -0.08619,0.13251c-1.48166,6.74234 -3.72679,13.04465 -6.73538,18.90693c-0.02521,0.09674 -0.04622,0.17736 -0.06303,0.24185c6.9761,-0.07597 12.96692,-1.85507 17.97246,-5.33731M536.91846,432.01476c0.03225,0.0084 0.06098,-0.03576 0.08619,-0.13251c-1.02487,-0.16378 -1.30395,-0.54645 -0.83724,-1.148c0.22143,-0.3211 0.29355,-0.66389 0.21636,-1.02838c-0.31152,-1.18317 -0.85501,-2.20296 -1.6305,-3.05937c-1.91078,0.32851 -3.68691,0.93318 -5.32839,1.81399c-0.04065,0.02384 -0.06938,0.06801 -0.08619,0.13251c1.76692,1.94128 4.29351,3.08187 7.57977,3.42176M519.00301,420.68214c-0.10514,0.00703 -0.18996,0.00215 -0.25446,-0.01466c-0.91661,1.1386 -1.80096,2.28561 -2.65308,3.44102c-0.05746,0.08834 -0.09459,0.16475 -0.1114,0.22925c6.20491,-0.55245 11.66717,-2.41764 16.38679,-5.59559c0.04065,-0.02384 0.07358,-0.08413 0.09879,-0.18088c-4.21537,1.24313 -8.70426,1.95009 -13.46665,2.12086M511.6306,475.53038c0.03225,0.0084 0.06098,-0.03576 0.08619,-0.13251c-1.25352,-0.73993 -2.21321,-0.9556 -2.87906,-0.64702c-0.04065,0.02384 -0.06938,0.06801 -0.08619,0.13251c1.19177,0.44834 2.15145,0.66401 2.87906,0.64702M471.10062,465.74249l0.03782,-0.14511c-7.18067,-5.34954 -13.40605,-11.25939 -18.67613,-17.72955c-0.05609,-0.04905 -0.11638,-0.08199 -0.18088,-0.09879c-0.05434,1.39776 0.21652,2.60478 0.81259,3.62105c0.01544,0.0729 0.01475,0.14159 -0.00205,0.20609c-1.98231,0.20656 -3.33571,0.97305 -4.06021,2.29947c-0.03225,-0.0084 -0.08062,-0.02101 -0.14511,-0.03782c1.89317,2.24968 4.39611,4.14172 7.50881,5.67612c3.38611,1.67453 6.53028,2.88997 9.4325,3.64633c0.04358,0.49348 0.39204,0.80813 1.04538,0.94397l-0.02521,0.09674c1.53104,0.46789 2.94854,0.97506 4.25248,1.52151z" fill="#000000"/><path d="M471.13844,465.59738l-0.03782,0.14511c-1.30395,-0.54645 -2.72144,-1.05362 -4.25248,-1.52151l0.02521,-0.09674c-0.65334,-0.13583 -1.0018,-0.45049 -1.04538,-0.94397c-2.90222,-0.75636 -6.04639,-1.97181 -9.4325,-3.64633c-3.1127,-1.5344 -5.61564,-3.42644 -7.50881,-5.67612c0.06449,0.01681 0.11286,0.02941 0.14511,0.03782c0.72449,-1.32642 2.0779,-2.09291 4.06021,-2.29947c0.01681,-0.06449 0.01749,-0.13319 0.00205,-0.20609c-0.59607,-1.01627 -0.86694,-2.22329 -0.81259,-3.62105c0.06449,0.01681 0.12479,0.04974 0.18088,0.09879c5.27008,6.47016 11.49545,12.38001 18.67613,17.72955z" fill="#2c2d40"/><path d="M511.71678,475.39787c-0.02521,0.09674 -0.05394,0.14091 -0.08619,0.13251c-0.72761,0.017 -1.6873,-0.19868 -2.87906,-0.64702c0.01681,-0.06449 0.04554,-0.10866 0.08619,-0.13251c0.66585,-0.30859 1.62554,-0.09292 2.87906,0.64702z" fill="#353849"/><path d="M518.74856,420.66748c0.06449,0.01681 0.14931,0.02169 0.25446,0.01466c4.76239,-0.17077 9.25127,-0.87772 13.46665,-2.12086c-0.02521,0.09674 -0.05814,0.15703 -0.09879,0.18088c-4.71962,3.17795 -10.18188,5.04315 -16.38679,5.59559c0.01681,-0.06449 0.05394,-0.14091 0.1114,-0.22925c0.85211,-1.15541 1.73647,-2.30242 2.65308,-3.44102M539.52303,410.32664c-0.09674,-0.02521 -0.16544,-0.0259 -0.20609,-0.00205c-5.00554,3.48224 -10.99636,5.26134 -17.97246,5.33731c0.01681,-0.06449 0.03782,-0.14511 0.06303,-0.24185c3.0086,-5.86228 5.25372,-12.16459 6.73538,-18.90693c0.01681,-0.06449 0.04554,-0.10866 0.08619,-0.13251c5.80954,-0.62105 11.03073,-2.22192 15.66357,-4.80261c-0.02521,0.09674 -0.04622,0.17736 -0.06303,0.24185c-0.23201,3.00444 -0.6063,6.09233 -1.12286,9.26367c-0.02521,0.09674 -0.04622,0.17736 -0.06303,0.24185c-0.96099,3.15883 -2.00122,6.15925 -3.1207,9.00128M542.78467,375.01769c0.06449,0.01681 0.10866,0.04554 0.13251,0.08619c0.43559,4.14267 0.85506,8.28113 1.25841,12.41539c-2.73202,1.62972 -5.78591,2.71065 -9.16169,3.2428c-0.0729,0.01544 -0.14159,0.01475 -0.20609,-0.00205c0.01681,-0.06449 0.05394,-0.14091 0.1114,-0.22925c3.06643,-4.36641 5.68825,-9.53744 7.86546,-15.51308M544.35901,363.03062c0.1458,-0.03088 0.23061,-0.02599 0.25446,0.01466c2.36767,4.92169 3.88245,10.67144 4.54433,17.24924c-0.31506,1.60531 -0.79633,2.85737 -1.44382,3.75617c-0.05746,0.08834 -0.09459,0.16475 -0.1114,0.22925c-0.94781,-6.27351 -2.28181,-12.32052 -4.00199,-18.14101c-0.02384,-0.04065 -0.02316,-0.10935 0.00205,-0.20609c0.06449,0.01681 0.14511,0.03782 0.24185,0.06303c0.33087,0.05179 0.55514,-0.14804 0.67279,-0.59949c-0.11666,-1.27014 -0.46161,-1.53222 -1.03483,-0.78625c-0.05746,0.08834 -0.09459,0.16475 -0.1114,0.22925l-0.14511,-0.03782c0.03909,-0.67855 0.41678,-1.26887 1.13306,-1.77094M492.54641,422.10371c0.01681,-0.06449 0.02169,-0.14931 0.01466,-0.25446c-0.12115,-2.44217 0.06258,-5.06317 0.5512,-7.86298c0.06449,0.01681 0.14091,0.05394 0.22925,0.1114c5.42079,3.5134 11.76932,5.58117 19.0456,6.20331c-0.02521,0.09674 -0.06235,0.17316 -0.1114,0.22925c-1.00202,1.59846 -2.19126,2.92429 -3.56772,3.97749c-0.02521,0.09674 -0.05394,0.14091 -0.08619,0.13251c-5.06376,0.40216 -10.42222,-0.44334 -16.07539,-2.53651M494.78044,398.66604c0.06449,0.01681 0.14511,0.03782 0.24185,0.06303c11.22485,3.44192 20.66345,3.23289 28.31578,-0.62711c-0.02521,0.09674 -0.06235,0.17316 -0.1114,0.22925c-0.43857,1.02213 -0.61496,2.09536 -0.52917,3.21971c-1.88992,5.53396 -4.16483,10.36493 -6.82476,14.49291c-0.05746,0.08834 -0.09459,0.16475 -0.1114,0.22925c-5.2672,-0.27072 -10.42524,-1.35671 -15.47412,-3.25796c-2.31904,-0.87987 -4.47274,-2.1299 -6.46109,-3.75009c-0.12974,-3.20203 0.16735,-6.65441 0.89128,-10.35714c0.01681,-0.06449 0.03782,-0.14511 0.06303,-0.24185M467.53532,391.61721c-0.04103,-1.56036 0.30569,-2.69252 1.04014,-3.39648c2.21758,4.57264 5.10589,8.75187 8.66495,12.5377c3.55906,3.78583 7.32137,7.45244 11.28694,10.99983c-0.02521,0.09674 -0.0301,0.18156 -0.01466,0.25446c0.01893,2.96653 0.39952,5.73459 1.14177,8.30419c-0.04202,0.16123 -0.10368,0.26569 -0.18498,0.31338c-0.64064,0.21185 -1.30659,0.12438 -1.99784,-0.26239c-10.3479,-6.27828 -17.09468,-14.61409 -20.24034,-25.00741c0.189,-1.12161 0.29034,-2.36937 0.30403,-3.74329M465.36695,381.70241c-0.33498,0.36038 -0.62228,0.80207 -0.86189,1.32505l-0.14922,0.37436c-0.84154,-1.52793 -1.27597,-3.75903 -1.30331,-6.69331c0.06449,0.01681 0.10866,0.04554 0.13251,0.08619c0.54017,1.75932 1.26747,3.39523 2.18191,4.90772M471.95856,377.22161c-0.04202,0.16123 -0.08404,0.32247 -0.12606,0.4837c-0.08404,0.32247 -0.06645,0.58533 0.05276,0.78859c4.32378,6.53347 10.06613,12.24856 17.22707,17.14528c-0.02521,0.09674 -0.04622,0.17736 -0.06303,0.24185l-0.14511,-0.03782c-0.23201,3.00444 -0.35467,5.98572 -0.36798,8.94384c-0.6125,0.63243 -1.40675,0.44265 -2.38275,-0.56933c-6.7464,-6.7516 -12.11908,-14.28161 -16.11802,-22.59003c0.6516,-1.31098 1.24427,-2.79228 1.77802,-4.44391l0.14511,0.03782M466.38634,370.65549c0.71529,1.21953 1.34927,2.48674 1.90195,3.80164c-0.61661,1.0446 -1.17184,0.79659 -1.6657,-0.74404c-0.30585,-0.94064 -0.44489,-1.99277 -0.41713,-3.1564c0.06449,0.01681 0.12479,0.04974 0.18088,0.09879z" fill="#343444"/><path d="M537.00465,431.88225c-0.02521,0.09674 -0.05394,0.14091 -0.08619,0.13251c-3.28626,-0.33989 -5.81285,-1.48048 -7.57977,-3.42176c0.01681,-0.06449 0.04554,-0.10866 0.08619,-0.13251c1.64148,-0.88082 3.41761,-1.48548 5.32839,-1.81399c0.77548,0.85641 1.31898,1.8762 1.6305,3.05937c0.07719,0.36449 0.00508,0.70728 -0.21636,1.02838c-0.46671,0.60155 -0.18763,0.98422 0.83724,1.148z" fill="#2c2c3f"/><path d="M539.9646,366.01783c0.06449,0.01681 0.10866,0.04554 0.13251,0.08619c0.99885,2.77423 1.93673,5.58422 2.81362,8.42997c-0.02521,0.09674 -0.04622,0.17736 -0.06303,0.24185c-0.02521,0.09674 -0.04622,0.17736 -0.06303,0.24185c-2.17721,5.97564 -4.79903,11.14666 -7.86546,15.51308c-0.05746,0.08834 -0.09459,0.16475 -0.1114,0.22925c-0.09674,-0.02521 -0.16544,-0.0259 -0.20609,-0.00205c-1.79294,0.66916 -3.78854,0.99278 -5.98681,0.97088l-0.14511,-0.03782c1.64096,-8.93924 1.90828,-16.70402 0.80198,-23.29433c0.01681,-0.06449 0.04554,-0.10866 0.08619,-0.13251c3.87355,-0.19579 7.40909,-0.94458 10.60664,-2.24635M498.8092,440.88558c-1.4861,-0.1118 -3.03737,-0.17172 -4.65382,-0.17974c-1.44681,0.00175 -3.09278,-0.28947 -4.93788,-0.87364c0.01681,-0.06449 0.03782,-0.14511 0.06303,-0.24185c0.9557,-1.81716 1.76482,-3.93079 2.42737,-6.34091c1.83807,0.47903 3.70136,0.86132 5.58986,1.14687c4.73737,0.71807 9.43194,1.27002 14.08371,1.65586c1.22246,-0.19797 2.41755,-0.48916 3.58529,-0.87357c0.41354,-0.13328 0.79904,-0.2911 1.1565,-0.47343c1.69894,-0.96915 3.13246,-0.85383 4.30057,0.34596c-5.62215,4.52684 -12.82702,6.47166 -21.61461,5.83447M461.39746,402.87985c0.06449,0.01681 0.12479,0.04974 0.18088,0.09879c2.4011,4.0006 4.92835,7.91355 7.58175,11.73884c-0.02521,0.09674 -0.04622,0.17736 -0.06303,0.24185c-0.70769,1.26193 -1.31648,2.73903 -1.82639,4.43131l-0.09674,-0.02521c0.01681,-0.06449 0.03782,-0.14511 0.06303,-0.24185c-0.22984,0.35335 -0.56765,0.59246 -1.01344,0.71734c-0.0729,0.01544 -0.14159,0.01475 -0.20609,-0.00205c-0.09674,-0.02521 -0.15703,-0.05814 -0.18088,-0.09879c-2.96766,-4.73369 -4.44736,-10.35376 -4.43909,-16.86022M497.19613,387.4148c0.0813,-0.04769 0.1542,-0.06312 0.21869,-0.04632c2.99075,1.60592 5.89247,3.22309 8.70518,4.85149c5.78664,3.29882 11.75369,4.71617 17.90114,4.25206c-0.19055,0.4669 -0.39723,0.92959 -0.62003,1.38808c-0.02521,0.09674 -0.04622,0.17736 -0.06303,0.24185c-7.65234,3.86 -17.09093,4.06903 -28.31578,0.62711c-0.09674,-0.02521 -0.17736,-0.04622 -0.24185,-0.06303c0.0991,-1.83378 0.28791,-3.74749 0.56642,-5.74113c0.28966,-2.30067 0.90608,-4.13738 1.84926,-5.51011M509.65983,359.41133c0.01681,-0.06449 0.05394,-0.14091 0.1114,-0.22925c2.92904,-4.36778 6.04531,-8.46292 9.3488,-12.28543c-0.02521,0.09674 -0.0259,0.16544 -0.00205,0.20609c2.67196,5.20762 4.73836,10.75675 6.19919,16.64741c-0.04202,0.16123 -0.09948,0.24957 -0.17238,0.26501c-2.53891,0.09594 -5.32749,-0.30366 -8.36574,-1.19878c-2.74802,-0.81949 -5.1211,-1.9545 -7.11922,-3.40505M508.57118,344.56071c0.03225,0.0084 0.06098,-0.03576 0.08619,-0.13251c1.13705,0.26189 2.2867,0.47542 3.44896,0.64057c0.06449,0.01681 0.14511,0.03782 0.24185,0.06303l0.02521,-0.09674c1.02487,0.16378 2.00488,0.36753 2.94004,0.61125l-1.1395,1.20104c-1.34833,1.47377 -3.06525,3.43692 -5.15077,5.88943c-2.07712,2.42026 -3.14792,3.62199 -3.21242,3.60518c-2.48065,-2.5061 -4.49382,-5.28639 -6.0395,-8.34088c-0.02384,-0.04065 -0.02316,-0.10935 0.00205,-0.20609c2.80921,-1.26523 5.74184,-2.34333 8.79788,-3.2343z" fill="#475c81"/><path d="M543.60265,365.93284c0.01681,-0.06449 0.03782,-0.14511 0.06303,-0.24185c-0.11921,-0.20325 -0.2181,-0.41843 -0.29667,-0.64553c-0.02384,-0.04065 -0.02316,-0.10935 0.00205,-0.20609c0.01681,-0.06449 0.05394,-0.14091 0.1114,-0.22925c0.57322,-0.74598 0.91816,-0.48389 1.03483,0.78625c-0.11766,0.45146 -0.34192,0.65129 -0.67279,0.59949c-0.09674,-0.02521 -0.17736,-0.04622 -0.24185,-0.06303z" fill="#425574"/><path d="M534.13275,346.57343l0.04837,0.01261c-0.26364,-0.30977 -0.37934,-0.46045 -0.34709,-0.45205c0.14443,0.10651 0.27273,0.20883 0.38491,0.30694c0.35198,0.36723 1.00404,1.0365 1.9562,2.00783c2.12027,2.17112 4.30102,5.16727 6.54225,8.98846c-0.02521,0.09674 -0.04622,0.17736 -0.06303,0.24185c-0.16652,1.29965 -0.53864,1.73645 -1.11634,1.31039c-0.08834,-0.05746 -0.8429,-1.39054 -2.2637,-3.99923c-1.32543,-2.44609 -2.58627,-4.47932 -3.78252,-6.09969l-1.20749,-1.70939l-0.10729,-0.18293c-0.03225,-0.0084 -0.13251,-0.08619 -0.30077,-0.23335l0.24185,0.06303c-0.04769,-0.0813 -0.09957,-0.14648 -0.15566,-0.19554c-0.63809,-0.85504 -0.58132,-0.87468 0.17032,-0.05892z" fill="#415476"/><path d="M534.18112,346.58604l-0.04837,-0.01261c-0.75164,-0.81576 -0.80842,-0.79612 -0.17032,0.05892c0.05609,0.04905 0.10798,0.11423 0.15566,0.19554l-0.24185,-0.06303c0.16827,0.14716 0.26853,0.22495 0.30077,0.23335l0.10729,0.18293l1.20749,1.70939c-0.10378,-0.13036 -0.19563,-0.24039 -0.27556,-0.33009c-0.60585,-0.84663 -1.01254,-1.40031 -1.22009,-1.66102c-0.03225,-0.0084 -0.06029,-0.03293 -0.08413,-0.07358c-1.21443,-1.41849 -1.24042,-1.6491 -0.07797,-0.69184c-0.03225,-0.0084 0.08345,0.14228 0.34709,0.45205z" fill="#415370"/><path d="M523.80905,344.76107c0.30703,0.01114 0.59305,0.1029 0.85806,0.27528c6.85938,4.33601 11.52713,10.0121 14.00325,17.02828c-0.02521,0.09674 -0.05814,0.15703 -0.09879,0.18088c-2.91417,2.06437 -6.26327,2.75843 -10.0473,2.08219c0.01681,-0.06449 0.01749,-0.13319 0.00205,-0.20609c-1.5648,-6.81312 -3.13723,-13.26663 -4.71728,-19.36054z" fill="#465c81"/><path d="M524.28107,339.97679c0.06449,0.01681 0.14091,0.05394 0.22925,0.1114c0.93242,0.5185 2.02325,0.95775 3.27247,1.31776c-1.50994,-0.15245 -3.06268,-0.47103 -4.65821,-0.95572c-0.09674,-0.02521 -0.17736,-0.04622 -0.24185,-0.06303c-0.09674,-0.02521 -0.16544,-0.0259 -0.20609,-0.00205c-1.28128,0.42369 -1.97674,0.05304 -2.08637,-1.11195c-0.08697,-0.19485 -0.094,-0.3 -0.0211,-0.31543c1.16773,-0.38441 2.40504,-0.04473 3.71191,1.01904M515.32405,337.28087c-0.2482,-0.23687 -0.35198,-0.36723 -0.31133,-0.39107c1.3149,-0.55268 2.24869,-0.17157 2.80137,1.14333c-0.8607,0.39556 -1.69072,0.1448 -2.49005,-0.75226z" fill="#435878"/><path d="M476.28072,424.06331c-0.02521,0.09674 -0.02169,0.14931 0.01055,0.15772c0.38422,0.37563 0.78037,0.77159 1.18844,1.18787c-0.02521,0.09674 -0.04622,0.17736 -0.06303,0.24185c-0.02521,0.09674 -0.02169,0.14931 0.01055,0.15772c0.87222,0.88162 1.75207,1.40364 2.63955,1.56605c0.06449,0.01681 0.12479,0.04974 0.18088,0.09879c2.95028,2.42187 6.77036,4.34724 11.46023,5.77612c-0.66255,2.41011 -1.47167,4.52375 -2.42737,6.34091c-0.02521,0.09674 -0.04622,0.17736 -0.06303,0.24185c-7.10839,-2.05918 -12.22908,-5.27053 -15.36209,-9.63406c-0.05609,-0.04905 -0.11638,-0.08199 -0.18088,-0.09879c0.01681,-0.06449 0.03782,-0.14511 0.06303,-0.24185c0.94729,-1.78491 1.79502,-3.7163 2.54316,-5.79417M467.17392,419.36544l0.09674,0.02521c0.50991,-1.69228 1.1187,-3.16938 1.82639,-4.43131c0.06449,0.01681 0.12479,0.04974 0.18088,0.09879c0.92284,1.48024 1.9389,2.93312 3.04818,4.35864c-0.02521,0.09674 -0.04622,0.17736 -0.06303,0.24185c-1.00905,1.49332 -1.80351,3.3525 -2.38339,5.57753l-0.09674,-0.02521c-1.0616,-1.34422 -2.15544,-2.69684 -3.28154,-4.05787c-0.03225,-0.0084 -0.03576,-0.06098 -0.01055,-0.15772c0.01681,-0.06449 0.04974,-0.12479 0.09879,-0.18088c0.31817,-0.29589 0.51293,-0.77891 0.58427,-1.44906M477.67094,345.39242c0.36567,-1.00669 0.88632,-1.74915 1.56195,-2.22737c0.12195,-0.07153 0.26003,-0.13886 0.41423,-0.20198c3.09943,-1.18959 6.45694,-1.9159 10.07251,-2.17893c-3.22394,2.32801 -6.39247,4.77377 -9.50559,7.33728c-0.13876,0.13602 -0.36938,0.16201 -0.69184,0.07797c-1.38662,-0.36137 -1.99246,-1.20801 -1.81754,-2.5399l-0.09674,-0.02521c0.01681,-0.06449 0.03782,-0.14511 0.06303,-0.24185M501.80053,339.02531c-0.02521,0.09674 -0.04622,0.17736 -0.06303,0.24185c-1.46735,2.06262 -2.79993,1.95639 -3.99774,-0.31869c-0.02384,-0.04065 -0.02316,-0.10935 0.00205,-0.20609c-0.28475,-0.6252 -0.15868,-1.10891 0.37818,-1.45111c1.8461,-1.13742 3.13598,-0.80126 3.86963,1.00848c-0.09948,0.24957 -0.16251,0.49142 -0.18909,0.72556M468.72526,354.94185c0.06449,0.01681 0.11707,0.01329 0.15772,-0.01055c1.61999,-2.78046 3.53352,-3.38375 5.74056,-1.80989c-0.02521,0.09674 -0.04622,0.17736 -0.06303,0.24185c-0.02521,0.09674 -0.04622,0.17736 -0.06303,0.24185l0.09674,0.02521c-0.16671,0.50755 -0.12176,0.86363 0.13484,1.06826c-0.27752,0.27204 -0.53257,0.72213 -0.76514,1.35026l-0.09674,-0.02521c-1.41986,1.35182 -2.66089,3.00852 -3.7231,4.97011c-0.03225,-0.0084 -0.08062,-0.02101 -0.14511,-0.03782c-0.66255,2.41011 -1.72623,4.11304 -3.19103,5.10877c-0.13036,0.10378 -0.04417,-0.02873 0.25857,-0.39752c0.14716,-0.16827 0.26277,-0.41364 0.34681,-0.73611c0.01681,-0.06449 0.03782,-0.14511 0.06303,-0.24185c0.39598,-3.2372 0.81229,-6.48633 1.24892,-9.74737z" fill="#8fbbbe"/><path d="M477.41668,425.65075c0.06449,0.01681 0.14091,0.05394 0.22925,0.1114c0.88474,0.4372 1.69169,0.97465 2.42085,1.61237c-0.88747,-0.16242 -1.76732,-0.68443 -2.63955,-1.56605c-0.03225,-0.0084 -0.03576,-0.06098 -0.01055,-0.15772z" fill="#94c3c7"/><path d="M467.23695,419.12358c-0.02521,0.09674 -0.04622,0.17736 -0.06303,0.24185c-0.07134,0.67015 -0.2661,1.15317 -0.58427,1.44906c-0.04905,0.05609 -0.08199,0.11638 -0.09879,0.18088c-0.2398,-0.26912 -0.4025,-0.5698 -0.48809,-0.90204c-0.01544,-0.0729 -0.01055,-0.15772 0.01466,-0.25446c0.06449,0.01681 0.13319,0.01749 0.20609,0.00205c0.44579,-0.12488 0.7836,-0.36399 1.01344,-0.71734M472.26308,419.65863c0.06449,0.01681 0.12479,0.04974 0.18088,0.09879c1.09248,1.49002 2.39241,2.84469 3.8998,4.06403c-0.02521,0.09674 -0.04622,0.17736 -0.06303,0.24185c-0.74815,2.07787 -1.59587,4.00926 -2.54316,5.79417c-0.02521,0.09674 -0.04622,0.17736 -0.06303,0.24185c-1.2369,-1.59653 -2.53058,-3.17342 -3.88103,-4.73066c-0.03225,-0.0084 -0.03576,-0.06098 -0.01055,-0.15772l0.09674,0.02521c0.57988,-2.22504 1.37434,-4.08421 2.38339,-5.57753M491.57973,336.6199c0.06449,0.01681 0.10866,0.04554 0.13251,0.08619c0.13678,3.30717 0.8714,6.23638 2.20386,8.78761c-5.00984,3.10231 -9.60243,6.91602 -13.77777,11.44111c-0.04905,0.05609 -0.08199,0.11638 -0.09879,0.18088c-1.58359,-3.30543 -2.39902,-7.04774 -2.44628,-11.22695c-0.01544,-0.0729 -0.01055,-0.15772 0.01466,-0.25446l0.09674,0.02521c-0.17493,1.3319 0.43092,2.17853 1.81754,2.5399c0.32247,0.08404 0.55308,0.05805 0.69184,-0.07797c3.11313,-2.56351 6.28166,-5.00927 9.50559,-7.33728c-3.61557,0.26303 -6.97308,0.98934 -10.07251,2.17893c-0.1542,0.06312 -0.29228,0.13045 -0.41423,0.20198c-0.67563,0.47823 -1.19628,1.22068 -1.56195,2.22737l-0.14511,-0.03782c0.08952,-0.87204 0.08513,-1.64802 -0.01317,-2.32794c0.01681,-0.06449 0.04974,-0.12479 0.09879,-0.18088c4.11963,-2.98994 8.77572,-5.06524 13.96827,-6.22589z" fill="#475d81"/><path d="M491.95662,382.74334c0.28885,0.21303 0.5735,0.44218 0.85395,0.68745c-0.11062,0.5566 -0.30606,1.10832 -0.58632,1.65514l-0.09674,-0.02521c0.01681,-0.06449 0.03782,-0.14511 0.06303,-0.24185c0.0686,-0.39537 0.17365,-0.79845 0.31515,-1.20926c-0.28045,-0.24527 -0.54057,-0.50247 -0.78037,-0.77159c-0.02384,-0.04065 -0.02316,-0.10935 0.00205,-0.20609c0.06449,0.01681 0.14091,0.05394 0.22925,0.1114z" fill="#364461"/><path d="M479.35788,364.68639c0.06449,0.01681 0.10866,0.04554 0.13251,0.08619c2.53495,6.79045 6.63495,12.66296 12.30002,17.61751c-0.02521,0.09674 -0.04622,0.17736 -0.06303,0.24185c-0.02521,0.09674 -0.0259,0.16544 -0.00205,0.20609c0.2398,0.26912 0.49992,0.52631 0.78037,0.77159c-0.1415,0.41081 -0.24655,0.81389 -0.31515,1.20926c-0.02521,0.09674 -0.04622,0.17736 -0.06303,0.24185c-1.26509,3.665 -2.25891,7.28018 -2.98147,10.84551l-0.09674,-0.02521c0.01681,-0.06449 0.03782,-0.14511 0.06303,-0.24185c-7.16094,-4.89672 -12.90329,-10.61181 -17.22707,-17.14528c-0.11921,-0.20325 -0.1368,-0.46612 -0.05276,-0.78859c0.04202,-0.16123 0.08404,-0.32247 0.12606,-0.4837c0.01681,-0.06449 0.03782,-0.14511 0.06303,-0.24185c1.94053,-4.93533 4.38596,-9.03312 7.33629,-12.29337M502.89137,371.90434c1.43902,-3.2753 3.11716,-6.21279 5.03441,-8.81247c0.06449,0.01681 0.14091,0.05394 0.22925,0.1114c5.23845,3.15595 11.30653,4.97844 18.20425,5.46748c-0.02521,0.09674 -0.0301,0.18156 -0.01466,0.25446c0.44456,6.48673 0.07611,13.45031 -1.10537,20.89076c-0.19584,1.80857 -1.00036,2.64923 -2.41356,2.52199c-1.24356,-0.11747 -2.49415,-0.34008 -3.75178,-0.66784c-8.67579,-2.12329 -15.56577,-5.41694 -20.66994,-9.88094c1.52736,-3.21784 3.02316,-6.51279 4.4874,-9.88483M495.75707,349.3311c0.06449,0.01681 0.10866,0.04554 0.13251,0.08619c1.86971,3.79324 4.37791,7.18466 7.5246,10.17428c-0.02521,0.09674 -0.06235,0.17316 -0.1114,0.22925c-2.97068,6.11322 -5.84462,12.25165 -8.62183,18.4153c-0.09674,-0.02521 -0.17316,-0.06235 -0.22925,-0.1114c-6.18513,-4.67684 -10.3335,-10.56195 -12.44513,-17.65533c0.01681,-0.06449 0.04974,-0.12479 0.09879,-0.18088c3.91873,-4.72972 8.4693,-8.38219 13.65171,-10.95741z" fill="#475d82"/><path d="M495.64871,335.87239c0.06449,0.01681 0.13319,0.01749 0.20609,0.00205c0.99673,-0.25679 2.0215,-0.48906 3.07432,-0.6968c0.06449,0.01681 0.14511,0.03782 0.24185,0.06303c5.1384,1.02921 9.58994,2.44763 13.35461,4.25525c-0.02521,0.09674 -0.05394,0.14091 -0.08619,0.13251c-5.1646,0.78913 -10.03889,2.04994 -14.62286,3.78245c0.01681,-0.06449 0.01749,-0.13319 0.00205,-0.20609c-0.74361,-2.43221 -1.4669,-4.87634 -2.16987,-7.3324M501.7375,339.26717c0.01681,-0.06449 0.03782,-0.14511 0.06303,-0.24185c0.02658,-0.23413 0.08961,-0.47598 0.18909,-0.72556c-0.73365,-1.80975 -2.02353,-2.14591 -3.86963,-1.00848c-0.53687,0.3422 -0.66293,0.82591 -0.37818,1.45111c-0.02521,0.09674 -0.0259,0.16544 -0.00205,0.20609c1.19781,2.27508 2.53039,2.38131 3.99774,0.31869z" fill="#455a7e"/><path d="M463.98489,362.22962c0.01681,-0.06449 0.03782,-0.14511 0.06303,-0.24185c1.97787,-7.0607 5.12053,-12.18208 9.42797,-15.36414c0.06449,0.01681 0.10866,0.04554 0.13251,0.08619c0.67265,4.68657 1.99992,8.97552 3.98181,12.86687c-3.25425,4.55852 -6.33388,9.43805 -9.23888,14.63858c-0.02521,0.09674 -0.04622,0.17736 -0.06303,0.24185c-0.55268,-1.3149 -1.18667,-2.58211 -1.90195,-3.80164c-0.05609,-0.04905 -0.11638,-0.08199 -0.18088,-0.09879c-0.09674,-0.02521 -0.14091,-0.05394 -0.13251,-0.08619c-0.97638,-2.59618 -1.6724,-5.34314 -2.08807,-8.24088M468.88297,354.9313c-0.04065,0.02384 -0.09322,0.02736 -0.15772,0.01055c-0.43663,3.26105 -0.85294,6.51017 -1.24892,9.74737c-0.02521,0.09674 -0.04622,0.17736 -0.06303,0.24185c-0.08404,0.32247 -0.19964,0.56784 -0.34681,0.73611c-0.30273,0.36879 -0.38892,0.50129 -0.25857,0.39752c1.4648,-0.99574 2.52848,-2.69866 3.19103,-5.10877c0.06449,0.01681 0.11286,0.02941 0.14511,0.03782c1.06221,-1.96158 2.30325,-3.61829 3.7231,-4.97011l0.09674,0.02521c0.23257,-0.62813 0.48762,-1.07822 0.76514,-1.35026c-0.25661,-0.20462 -0.30155,-0.56071 -0.13484,-1.06826l-0.09674,-0.02521c0.01681,-0.06449 0.03782,-0.14511 0.06303,-0.24185c0.01681,-0.06449 0.03782,-0.14511 0.06303,-0.24185c-2.20705,-1.57387 -4.12057,-0.97057 -5.74056,1.80989z" fill="#475c80"/><path d="M678.86414,616.19563c0.50122,3.10192 1.15281,6.22034 1.95476,9.35526c1.03586,4.0919 0.86878,7.9198 -0.50122,11.48371c-2.10513,5.54386 -3.07415,11.8137 -2.90708,18.80952c0,0.099 0.01671,0.165 0.05012,0.19799c0.63488,0.52799 1.37,0.95698 2.20537,1.28697c5.14587,6.86383 10.8932,13.15017 17.24199,18.85902c3.94294,3.53091 8.11978,6.83083 12.53052,9.89975c3.27464,2.27694 6.53258,4.55388 9.7738,6.83083c8.75465,6.20384 18.22773,11.61571 28.41921,16.23559c1.37,0.62698 2.79013,1.05597 4.26038,1.28697c5.11245,0.92398 10.35856,1.03947 15.73833,0.34649c13.46613,-1.68296 26.5814,-3.33292 39.34583,-4.94987c0,0.099 0,0.1815 0,0.24749c-10.39198,4.52089 -21.26847,8.49729 -32.62947,11.9292c-5.84757,1.74896 -12.74771,2.27694 -20.70042,1.58396c-1.93805,-0.19799 -3.79257,-0.57749 -5.56355,-1.13847c-11.32759,-3.56391 -21.38542,-8.38179 -30.17349,-14.45363c-8.82148,-6.07185 -17.12504,-12.65518 -24.91067,-19.75c-5.6805,-5.11487 -11.3443,-10.22974 -16.99138,-15.34461c-1.90464,-1.71596 -3.94294,-3.26692 -6.11489,-4.65288c-0.83537,-4.71888 -0.70171,-9.65226 0.40098,-14.80013c2.80684,-12.86967 2.97391,-26.00334 0.50122,-39.401c-1.16951,-6.36884 -2.20537,-12.86967 -3.10757,-19.50251c-1.63732,-12.47368 -3.32476,-24.94737 -5.06233,-37.42105c1.80439,-1.22097 3.6422,-2.35944 5.51343,-3.41541c0.06683,-0.033 0.15037,-0.0495 0.25061,-0.0495c1.47025,9.33876 2.94049,18.74353 4.41074,28.21429c1.93805,12.73768 3.95964,25.50836 6.06477,38.31203z" fill-opacity="0.99608" fill="#2b2c40"/><path d="M727.03145,469.72883c0.13366,0.59398 0.25061,1.18797 0.35085,1.78195c1.70415,8.34879 3.34147,16.74708 4.91196,25.19486c0.06683,0 0.13366,0.0165 0.20049,0.0495c0.50122,0.49499 1.01915,0.97348 1.55378,1.43546c0.06683,0 0.15037,0 0.25061,0c6.08148,0.82498 11.84552,1.97995 17.29211,3.46491c0.36756,2.07895 0.51793,4.0589 0.4511,5.93985c-0.30073,6.30284 0.51793,11.9292 2.45598,16.87907c4.14342,10.69173 11.77869,17.93505 22.90579,21.72995c0.56805,2.73893 1.23634,5.37886 2.00488,7.9198c3.47513,11.31871 6.91685,22.75292 10.32515,34.30263c3.34147,11.31871 6.74977,22.65393 10.2249,34.00564c0,0.099 0.01671,0.1485 0.05012,0.1485c1.70415,1.22097 3.27464,2.57393 4.71147,4.0589c0,0.099 0,0.1815 0,0.24749c-2.84025,-1.15497 -5.61367,-2.37594 -8.32026,-3.66291c-0.06683,-0.033 -0.13366,-0.0495 -0.20049,-0.0495c-3.87611,-5.41186 -6.63282,-11.9952 -8.27014,-19.75c-1.30317,-6.00585 -2.7233,-11.9622 -4.26038,-17.86905c-3.07415,-11.7147 -6.41562,-23.18191 -10.02441,-34.40163c-9.59002,-5.31287 -17.12504,-12.60568 -22.60505,-21.87845c-3.4083,-5.77485 -5.06233,-13.24917 -4.96208,-22.42293c-5.84757,-2.07895 -12.0293,-3.7949 -18.54517,-5.14787c-0.10024,-0.033 -0.18378,-0.0495 -0.25061,-0.0495c-1.77098,-8.97577 -3.15769,-18.29804 -4.16013,-27.96679h0.15037c0.60146,1.97995 1.53708,3.61341 2.80684,4.90038c0.03341,0.033 0.10024,0.0495 0.20049,0.0495c0.86878,-2.54094 1.06927,-5.51086 0.60146,-8.90977z" fill-opacity="0.99216" fill="#2b2c3f"/><path d="M491.05674,640.05402c-2.00488,1.28697 -3.99306,2.57393 -5.96453,3.8609c-2.33903,1.55096 -3.92623,3.9269 -4.7616,7.12782c-0.9022,3.56391 -1.55378,7.39181 -1.95476,11.48371c-0.53464,5.34586 0.53464,9.56976 3.20781,12.67168c1.73757,2.01295 3.57537,3.9269 5.51343,5.74185c7.68538,7.19382 16.77419,12.91917 27.26641,17.17607c3.4083,1.38596 6.53258,3.00292 9.37283,4.85088c0.93561,0.62698 1.78769,1.33647 2.55623,2.12845c-0.16707,0 -0.33415,-0.0165 -0.50122,-0.0495c-13.09857,-1.78195 -24.12542,-5.64286 -33.08057,-11.58271c-1.1361,-0.75898 -2.28891,-1.46846 -3.45842,-2.12845c-8.35368,-4.71888 -14.96979,-11.10422 -19.84834,-19.15602c0,-0.066 0,-0.1485 0,-0.24749c0.50122,-13.00167 3.09086,-23.97389 7.76892,-32.91667c1.10269,-0.39599 2.08842,-0.90748 2.9572,-1.53446c8.38709,-6.46784 17.10833,-12.60568 26.16372,-18.41353c2.87367,-1.81495 4.84513,-4.43839 5.9144,-7.8703c3.57537,-11.35171 6.85002,-22.95092 9.82393,-34.79762c1.47025,-5.93985 2.80684,-11.9787 4.00977,-18.11654c0.60146,-3.23392 1.31988,-6.33584 2.15525,-9.30576c0.9022,-3.16792 1.26976,-6.15434 1.10269,-8.95927c0.76854,-1.84795 2.10513,-3.06892 4.00977,-3.66291c5.81416,-1.84795 10.29173,-4.99937 13.43271,-9.45426c6.18172,-8.71178 9.38953,-20.34399 9.62344,-34.89662v-0.099c8.48734,-0.62698 16.84102,-1.33647 25.06104,-2.12845h0.10024c1.87122,-12.11069 3.50854,-24.40288 4.91196,-36.87657c0.06683,0 0.10024,0.0165 0.10024,0.0495c0.66829,3.7949 2.30562,6.58333 4.91196,8.36529c-2.07171,10.49373 -3.87611,21.30096 -5.41318,32.42168h-0.10024c-3.57537,1.18797 -7.58514,1.86445 -12.0293,2.02945c-4.91196,0.19799 -9.0888,0.75898 -12.53052,1.68296c-1.06927,6.36884 -2.23879,12.63868 -3.50854,18.80952c-1.90464,9.20677 -6.18172,16.07059 -12.83125,20.59148c-2.97391,2.04595 -6.29867,3.7619 -9.97429,5.14787c-3.27464,11.54971 -6.16501,23.51191 -8.67112,35.88659c-1.23634,6.10485 -2.57293,12.14369 -4.00977,18.11654c-1.80439,7.35881 -3.50854,14.76713 -5.11245,22.22494c-0.26732,1.22097 -0.26732,2.37594 0,3.46491c-8.38709,6.50084 -17.12504,12.62218 -26.21384,18.36404z" fill-opacity="0.99608" fill="#2b2c3f"/><path d="M485.09221,643.91493c1.97147,-1.28697 3.95964,-2.57393 5.96453,-3.8609c9.0888,-5.74185 17.82675,-11.8632 26.21384,-18.36404c-0.26732,-1.08897 -0.26732,-2.24394 0,-3.46491c1.60391,-7.45781 3.30806,-14.86612 5.11245,-22.22494c1.43683,-5.97285 2.77342,-12.0117 4.00977,-18.11654c2.5061,-12.37469 5.39648,-24.33688 8.67112,-35.88659c3.67562,-1.38596 7.00038,-3.10192 9.97429,-5.14787c6.64953,-4.52089 10.92661,-11.38471 12.83125,-20.59148c1.26976,-6.17084 2.43927,-12.44069 3.50854,-18.80952c3.44172,-0.92398 7.61855,-1.48496 12.53052,-1.68296c4.44416,-0.165 8.45392,-0.84148 12.0293,-2.02945h0.10024c1.53708,-11.12072 3.34147,-21.92795 5.41318,-32.42168c-2.60635,-1.78195 -4.24367,-4.57038 -4.91196,-8.36529c0,-0.033 -0.03341,-0.0495 -0.10024,-0.0495c1.70415,-9.10777 3.20781,-18.49603 4.51099,-28.16479c1.67074,-12.50668 3.47513,-25.29386 5.41318,-38.36153c1.93805,-12.77068 4.52769,-24.91437 7.76892,-36.43108c1.63732,-5.87385 3.27464,-11.66521 4.91196,-17.37406c1.67074,-5.87385 4.44416,-10.60923 8.32026,-14.20614c3.87611,-3.59691 8.47063,-6.55033 13.78357,-8.86028c5.11245,-2.24394 11.01015,-3.7619 17.69309,-4.55388c3.57537,-0.42899 7.15075,-0.32999 10.72612,0.29699c9.38953,1.58396 18.24443,3.8279 26.5647,6.73183c10.99344,3.8609 19.61444,10.08125 25.86299,18.66103c0,0.099 0.01671,0.165 0.05012,0.19799c0.60146,0.72598 1.00244,0.49499 1.20293,-0.69298c0.03341,-0.59398 0.16707,-0.65998 0.40098,-0.19799c1.87122,3.29992 2.99062,7.40831 3.35818,12.32519c0.33415,5.01587 0.51793,10.29574 0.55134,15.8396c0.03341,14.25564 0.63488,28.03279 1.80439,41.33146c0.9022,10.16374 1.83781,20.22849 2.80684,30.19424c1.26976,13.26566 2.89037,25.88785 4.86184,37.86654c0,0.65998 0,1.31997 0,1.97995c0,0.099 0,0.1815 0,0.24749h-0.15037c0.46781,3.39891 0.26732,6.36884 -0.60146,8.90977c-0.10024,0 -0.16707,-0.0165 -0.20049,-0.0495c-1.26976,-1.28697 -2.20537,-2.92043 -2.80684,-4.90038h-0.15037c1.00244,9.66876 2.38915,18.99102 4.16013,27.96679c0.06683,0 0.15037,0.0165 0.25061,0.0495c6.51587,1.35297 12.69759,3.06892 18.54517,5.14787c-0.10024,9.17377 1.55378,16.64808 4.96208,22.42293c5.48001,9.27277 13.01503,16.56558 22.60505,21.87845c3.60879,11.21972 6.95026,22.68693 10.02441,34.40163c1.53708,5.90685 2.9572,11.8632 4.26038,17.86905c1.63732,7.7548 4.39403,14.33814 8.27014,19.75c0.06683,0 0.13366,0.0165 0.20049,0.0495c2.70659,1.28697 5.48001,2.50794 8.32026,3.66291c2.40586,2.47494 4.86184,4.91688 7.36794,7.32581c2.5061,2.37594 5.06233,4.70238 7.66868,6.97932c7.98612,6.89683 13.83369,15.9056 17.54272,27.02632c-1.40342,9.99875 -4.22696,18.59503 -8.47063,25.78885c-0.03341,0.066 -0.05012,0.132 -0.05012,0.19799c-6.91685,4.22389 -14.11772,8.16729 -21.60261,11.8302c-0.06683,0.033 -0.13366,0.0495 -0.20049,0.0495c0,-0.066 0,-0.1485 0,-0.24749c-12.76442,1.61696 -25.8797,3.26692 -39.34583,4.94987c-5.37977,0.69298 -10.62588,0.57749 -15.73833,-0.34649c-1.47025,-0.23099 -2.89037,-0.65998 -4.26038,-1.28697c-10.19149,-4.61988 -19.66456,-10.03175 -28.41921,-16.23559c-3.24123,-2.27694 -6.49916,-4.55388 -9.7738,-6.83083c-4.41074,-3.06892 -8.58758,-6.36884 -12.53052,-9.89975c-6.3488,-5.70886 -12.09613,-11.9952 -17.24199,-18.85902c-0.83537,-0.32999 -1.57049,-0.75898 -2.20537,-1.28697c-0.03341,-0.033 -0.05012,-0.099 -0.05012,-0.19799c-0.16707,-6.99582 0.80195,-13.26566 2.90708,-18.80952c1.37,-3.56391 1.53708,-7.39181 0.50122,-11.48371c-0.80195,-3.13492 -1.45354,-6.25334 -1.95476,-9.35526c-2.10513,-12.80368 -4.12672,-25.57435 -6.06477,-38.31203c-1.47025,-9.47076 -2.94049,-18.87552 -4.41074,-28.21429c0,-0.066 0.01671,-0.1155 0.05012,-0.1485c2.60635,-1.31997 4.42745,-3.41541 5.46331,-6.28634c0,-0.066 0,-0.1485 0,-0.24749c0.06683,-2.34294 0.15037,-4.65288 0.25061,-6.92982c-1.00244,-1.81495 -2.15525,-3.48141 -3.45842,-4.99937c-0.03341,-0.033 -0.05012,-0.099 -0.05012,-0.19799c-6.18172,-2.96992 -13.6165,-4.66938 -22.30432,-5.09837c-4.61123,-0.23099 -9.62344,-0.34649 -15.03662,-0.34649c-1.67074,0 -3.25793,0.165 -4.7616,0.49499c-3.24123,3.16792 -5.07904,7.70531 -5.51343,13.61216c0,0.099 0,0.1815 0,0.24749c3.04074,3.69591 6.88343,6.56683 11.52808,8.61278c0.06683,0.033 0.15037,0.0495 0.25061,0.0495c-1.00244,9.47076 -2.055,19.28801 -3.15769,29.45176c-1.40342,13.23267 -2.68988,26.51483 -3.8594,39.84649c-0.2339,2.37594 -0.30073,4.76838 -0.20049,7.17732c0.06683,2.04595 0.35085,3.9599 0.85208,5.74185c2.2722,8.0188 4.5444,16.0046 6.8166,23.95739c0.70171,2.50794 0.80195,5.31287 0.30073,8.41479c-5.01221,6.13784 -11.47795,10.88972 -19.39724,14.25564c-5.14587,2.17794 -10.42539,4.35589 -15.83857,6.53383c-10.62588,4.19089 -21.5859,8.11779 -32.88008,11.7807c-10.99344,3.53091 -22.20408,6.86383 -33.63191,9.99875c-2.17196,-0.26399 -4.59452,-0.42899 -7.2677,-0.49499c-0.10024,0 -0.18378,0 -0.25061,0c-0.76854,-0.79198 -1.62061,-1.50146 -2.55623,-2.12845c-2.84025,-1.84795 -5.96453,-3.46491 -9.37283,-4.85088c-10.49222,-4.25689 -19.58102,-9.98225 -27.26641,-17.17607c-1.93805,-1.81495 -3.77586,-3.72891 -5.51343,-5.74185c-2.67318,-3.10192 -3.74245,-7.32581 -3.20781,-12.67168c0.40098,-4.0919 1.05256,-7.9198 1.95476,-11.48371c0.83537,-3.20092 2.42257,-5.57686 4.7616,-7.12782M633.80439,314.55025c-7.78563,3.13492 -13.31576,8.44779 -16.59041,15.9386c-1.73757,3.8939 -3.24123,8.0353 -4.51099,12.42419c-3.34147,11.35171 -6.26526,23.11592 -8.77136,35.29261c-2.5061,12.37469 -4.66135,25.06287 -6.46575,38.06454c-1.80439,13.23267 -3.39159,26.26734 -4.7616,39.10401c0.70171,0.69298 1.45354,1.35297 2.25549,1.97995c8.22002,6.66583 18.37809,11.50021 30.47422,14.50313c11.76198,2.93693 25.24482,4.37239 40.44851,4.30639c3.87611,-0.033 7.55173,-0.21449 11.02686,-0.54449c13.53296,-1.35297 25.79616,-4.0094 36.7896,-7.9693c1.37,-0.49499 2.75671,-0.90748 4.16013,-1.23747c2.07171,-0.46199 3.12428,-1.83145 3.15769,-4.1084c-1.80439,-12.96867 -3.55867,-25.93734 -5.26282,-38.90602c-0.9022,-6.66583 -1.47025,-13.66165 -1.70415,-20.98747c-0.53464,-14.12364 -1.1361,-28.23079 -1.80439,-42.32143c-0.26732,-6.17084 -0.51793,-12.35819 -0.75183,-18.56203c-2.87367,-6.99582 -7.23429,-12.50668 -13.08186,-16.53258c-0.06683,-0.033 -0.13366,-0.0495 -0.20049,-0.0495c-3.90952,11.38471 -5.2294,24.41938 -3.95964,39.10401c0.60146,6.79783 1.33659,13.56266 2.20537,20.29449c0.30073,2.50794 0.46781,4.73538 0.50122,6.68233c-3.30806,4.19089 -7.98612,6.99582 -14.03418,8.41479c-9.82393,2.34294 -20.83407,2.95343 -33.03044,1.83145c-3.37489,-0.32999 -6.63282,-0.94048 -9.7738,-1.83145c-2.87367,-0.82498 -5.64709,-1.81495 -8.32026,-2.96992c-0.63488,-0.132 -1.20293,-0.32999 -1.70415,-0.59398c-0.03341,0 -0.05012,-0.0495 -0.05012,-0.1485c-0.10024,0 -0.18378,-0.0165 -0.25061,-0.0495c-3.90952,-1.94695 -7.83575,-3.9104 -11.77869,-5.89035c-0.86878,-4.48789 -1.18622,-9.27277 -0.95232,-14.35464c0.20049,-3.62991 0.55134,-7.07832 1.05256,-10.34524c0.93561,-6.26984 1.92135,-12.55618 2.9572,-18.85902c1.03586,-6.50084 2.74001,-12.29219 5.11245,-17.37406c2.47269,-5.24687 5.01221,-10.01525 7.61855,-14.30514M738.86025,535.85916c0.03341,-0.29699 0.10024,-0.64348 0.20049,-1.03947c-8.01953,2.90393 -15.80516,6.02235 -23.35688,9.35526c-0.06683,0.033 -0.13366,0.0495 -0.20049,0.0495c4.81172,1.28697 10.15807,2.02945 16.03906,2.22744c0.06683,0 0.15037,0 0.25061,0c4.21025,-1.58396 6.56599,-5.11487 7.06721,-10.59273M785.62415,635.30214c0.03341,-0.066 0.05012,-0.1485 0.05012,-0.24749c-9.85734,5.04887 -19.61444,10.19674 -29.27129,15.44361c-2.74001,1.48496 -5.51343,2.93693 -8.32026,4.35589c8.95514,-1.71596 18.14419,-3.59691 27.56714,-5.64286c0.06683,-0.033 0.15037,-0.0495 0.25061,-0.0495c3.60879,-4.25689 6.85002,-8.87678 9.72368,-13.85965M562.12983,533.08723c2.43927,5.77485 5.74733,10.67523 9.92417,14.70113c0.20049,0.19799 0.40098,0.41249 0.60146,0.64348c0.9022,0 1.8211,0 2.75671,0c0.06683,0 0.15037,0 0.25061,0c3.47513,-1.58396 6.79989,-3.34942 9.97429,-5.29637c0.03341,0 0.05012,-0.0495 0.05012,-0.1485c-8.78807,-2.27694 -16.5737,-5.56036 -23.35688,-9.85025c-0.06683,-0.033 -0.13366,-0.0495 -0.20049,-0.0495M539.52478,642.67746c2.2722,0.36299 4.37733,0.54449 6.31538,0.54449c-8.38709,-4.38889 -17.00809,-8.57978 -25.86299,-12.57268c-0.06683,-0.033 -0.13366,-0.0495 -0.20049,-0.0495c0.80195,2.44194 1.70415,4.76838 2.70659,6.97932c0.03341,0.066 0.05012,0.132 0.05012,0.19799c4.97879,2.24394 10.64259,3.8774 16.99138,4.90038z" fill-opacity="0.99608" fill="#000000"/><path d="M545.84016,643.22194c-1.93805,0 -4.04318,-0.1815 -6.31538,-0.54449c-6.3488,-1.02297 -12.01259,-2.65643 -16.99138,-4.90038c0,-0.066 -0.01671,-0.132 -0.05012,-0.19799c-1.00244,-2.21094 -1.90464,-4.53739 -2.70659,-6.97932c0.06683,0 0.13366,0.0165 0.20049,0.0495c8.8549,3.9929 17.4759,8.18379 25.86299,12.57268z" fill="#2a2b3e"/><path d="M572.054,547.78836c-4.17684,-4.0259 -7.4849,-8.92627 -9.92417,-14.70113c0.06683,0 0.13366,0.0165 0.20049,0.0495c6.78319,4.28989 14.56882,7.57331 23.35688,9.85025c0,0.099 -0.01671,0.1485 -0.05012,0.1485c-3.1744,1.94695 -6.49916,3.71241 -9.97429,5.29637c-0.10024,0 -0.18378,0 -0.25061,0c-0.93561,0 -1.85452,0 -2.75671,0c-0.20049,-0.23099 -0.40098,-0.44549 -0.60146,-0.64348M785.67427,635.05465c0,0.099 -0.01671,0.1815 -0.05012,0.24749c-2.87367,4.98287 -6.11489,9.60276 -9.72368,13.85965c-0.10024,0 -0.18378,0.0165 -0.25061,0.0495c-9.42295,2.04595 -18.612,3.9269 -27.56714,5.64286c2.80684,-1.41896 5.58026,-2.87093 8.32026,-4.35589c9.65685,-5.24687 19.41395,-10.39474 29.27129,-15.44361M739.06074,534.81968c-0.10024,0.39599 -0.16707,0.74248 -0.20049,1.03947c-0.50122,5.47786 -2.85696,9.00877 -7.06721,10.59273c-0.10024,0 -0.18378,0 -0.25061,0c-5.88099,-0.19799 -11.22734,-0.94048 -16.03906,-2.22744c0.06683,0 0.13366,-0.0165 0.20049,-0.0495c7.55173,-3.33292 15.33735,-6.45134 23.35688,-9.35526z" fill="#2b2c3f"/><path d="M617.21399,330.48885c3.27464,-7.49081 8.80478,-12.80368 16.59041,-15.9386c-2.60635,4.28989 -5.14587,9.05827 -7.61855,14.30514c-2.37244,5.08187 -4.0766,10.87323 -5.11245,17.37406c-1.03586,6.30284 -2.02159,12.58918 -2.9572,18.85902c-0.50122,3.26692 -0.85208,6.71533 -1.05256,10.34524c-0.2339,5.08187 0.08354,9.86675 0.95232,14.35464c3.94294,1.97995 7.86917,3.9434 11.77869,5.89035c0.06683,0.033 0.15037,0.0495 0.25061,0.0495c0,0.099 0.01671,0.1485 0.05012,0.1485c0.50122,0.26399 1.06927,0.46199 1.70415,0.59398c2.67318,1.15497 5.4466,2.14495 8.32026,2.96992c3.14098,0.89098 6.39892,1.50146 9.7738,1.83145c12.19637,1.12197 23.20652,0.51149 33.03044,-1.83145c6.04806,-1.41896 10.72612,-4.22389 14.03418,-8.41479c-0.03341,-1.94695 -0.20049,-4.17439 -0.50122,-6.68233c-0.86878,-6.73183 -1.60391,-13.49666 -2.20537,-20.29449c-1.26976,-14.68463 0.05012,-27.7193 3.95964,-39.10401c0.06683,0 0.13366,0.0165 0.20049,0.0495c5.84757,4.0259 10.20819,9.53676 13.08186,16.53258c0.2339,6.20384 0.48451,12.39119 0.75183,18.56203c0.66829,14.09064 1.26976,28.19779 1.80439,42.32143c0.2339,7.32581 0.80195,14.32164 1.70415,20.98747c1.70415,12.96867 3.45842,25.93734 5.26282,38.90602c-0.03341,2.27694 -1.08598,3.64641 -3.15769,4.1084c-1.40342,0.32999 -2.79013,0.74248 -4.16013,1.23747c-10.99344,3.9599 -23.25664,6.61633 -36.7896,7.9693c-3.47513,0.32999 -7.15075,0.51149 -11.02686,0.54449c-15.20369,0.066 -28.68653,-1.36947 -40.44851,-4.30639c-12.09613,-3.00292 -22.2542,-7.8373 -30.47422,-14.50313c-0.80195,-0.62698 -1.55378,-1.28697 -2.25549,-1.97995c1.37,-12.83668 2.9572,-25.87135 4.7616,-39.10401c1.80439,-13.00167 3.95964,-25.68985 6.46575,-38.06454c2.5061,-12.17669 5.42989,-23.94089 8.77136,-35.29261c1.26976,-4.38889 2.77342,-8.53028 4.51099,-12.42419z" fill="#fefefe"/><path d="M742.76437,439.91025c-0.01776,0.0984 -0.0132,0.16696 0.01368,0.20568c0.83101,1.77568 1.58163,3.62153 2.25184,5.53753c-0.0984,-0.01776 -0.1804,-0.03256 -0.246,-0.0444c-5.4926,-1.09303 -10.83737,-1.9731 -16.0343,-2.6402c-1.26593,0.82142 -2.19906,1.95692 -2.79939,3.40651c-2.00325,4.71867 -3.63339,9.80951 -4.89042,15.27251c-4.04017,1.74314 -7.95642,3.64412 -11.74875,5.70294c-2.25809,1.25196 -3.57267,3.65642 -3.94376,7.21336c-0.64839,5.84381 -0.34359,11.09763 0.91443,15.76147c1.20698,4.38368 0.89404,9.11957 -0.93882,14.20769c-2.32296,6.48986 -3.83184,13.16053 -4.52665,20.01202c0.52575,0.84 1.02325,1.74265 1.49252,2.70793c0.41551,0.88784 0.95013,1.67865 1.60388,2.37241c7.25411,7.84598 15.94382,14.68103 26.06914,20.50514c-0.01776,0.0984 -0.01616,0.18336 0.0048,0.25488c1.26298,3.88576 2.67493,7.6968 4.23583,11.43313c2.16846,0.9333 4.77012,1.43678 7.80499,1.51042c9.8886,0.19309 18.5241,-1.58423 25.90652,-5.33195c0.0656,0.01184 0.11184,0.03712 0.13872,0.07584c1.19868,2.55329 2.378,5.12001 3.53796,7.70017c0.0656,0.01184 0.11184,0.03712 0.13872,0.07584c0.38863,0.84912 0.99838,0.94225 1.82927,0.27938c0.0656,0.01184 0.11184,0.03712 0.13872,0.07584c0.92349,1.82624 1.52082,3.86456 1.79199,6.11496c-0.01776,0.0984 -0.03256,0.1804 -0.0444,0.246c-1.34384,0.50254 -3.04303,0.53452 -5.09758,0.09593c-0.0984,-0.01776 -0.1804,-0.03256 -0.246,-0.0444c-1.90429,-1.83394 -3.51521,-3.88587 -4.83278,-6.1558c-0.02688,-0.03872 -0.07312,-0.064 -0.13872,-0.07584c-8.22207,2.20756 -17.02798,3.61544 -26.41771,4.22363c-0.00592,0.0328 -0.0148,0.082 -0.02664,0.1476c-1.73839,-0.31378 -3.46038,-0.6246 -5.16597,-0.93246c-0.0984,-0.01776 -0.1804,-0.03256 -0.246,-0.0444c-3.93385,-3.72436 -6.81338,-8.22366 -8.63858,-13.4979c-0.22735,-0.6168 -0.54262,-1.2156 -0.94581,-1.79641c-2.75626,-3.68114 -6.6206,-6.66478 -11.59303,-8.95092c-0.93663,-0.44001 -1.77054,-0.98002 -2.50173,-1.62003c-5.10648,-4.54565 -9.48319,-9.56921 -13.13015,-15.07067c-1.80412,-2.76417 -1.97742,-6.58872 -0.51993,-11.47364c1.95944,-6.35227 3.39792,-13.28966 4.31546,-20.81218c0.89161,-6.81596 0.28337,-12.73418 -1.82472,-17.75467c-1.51899,-3.59329 -1.30462,-7.31399 0.64311,-11.1621c1.04082,-2.01358 2.52356,-3.47323 4.4482,-4.37896c0.70608,-0.34671 1.40464,-0.74558 2.09569,-1.19661c3.01425,-2.06379 6.24354,-3.81782 9.68787,-5.26209c2.44361,-7.72122 5.58609,-14.43571 9.42743,-20.14347c0.04464,-0.05968 0.07584,-0.13872 0.0936,-0.23712c6.22781,0.20968 12.11697,1.35735 17.66748,3.44302c0.0656,0.01184 0.1476,0.02664 0.246,0.0444z" fill-opacity="0.99608" fill="#2b2c3f"/><path d="M742.77805,440.11593c-0.02688,-0.03872 -0.03144,-0.10728 -0.01368,-0.20568c8.4133,-4.20515 16.96852,-8.16454 25.66565,-11.87817c9.94257,-4.23393 20.35258,-7.77386 31.23001,-10.61978c0.0656,0.01184 0.14464,0.04304 0.23712,0.0936c6.99417,2.7188 13.24627,5.60847 18.75629,8.66901c0.0656,0.01184 0.13416,0.00728 0.20568,-0.01368c2.90674,-2.21867 5.85379,-4.37926 8.84117,-6.48178c0.0656,0.01184 0.1476,0.02664 0.246,0.0444c0.88559,0.15985 1.78759,0.32266 2.70598,0.48843c5.98615,4.7383 10.96558,10.17546 14.93828,16.31149c1.80412,2.76417 3.37887,5.67322 4.72426,8.72715c4.35009,9.86194 8.26082,20.00019 11.73219,30.41475c-0.69506,1.97438 -1.81268,3.3814 -3.35284,4.22106c-3.41697,1.85563 -6.66218,3.97934 -9.73564,6.37112c1.79323,3.57505 2.81797,7.65489 3.07422,12.23951c0.09533,2.28639 -0.36877,4.20086 -1.39231,5.7434c-0.87777,1.2979 -1.71819,2.67029 -2.52124,4.11715c-5.54667,10.277 -12.00269,19.30608 -19.36804,27.08723c-7.47559,7.82899 -15.45301,14.87309 -23.93226,21.13231c-8.51205,6.2533 -17.77376,11.40604 -27.78513,15.45821c-0.5512,0.23919 -1.07416,0.41574 -1.56888,0.52966c0.01184,-0.0656 0.02664,-0.1476 0.0444,-0.246c-0.27117,-2.25039 -0.8685,-4.28871 -1.79199,-6.11496c-0.02688,-0.03872 -0.07312,-0.064 -0.13872,-0.07584c-0.83089,0.66287 -1.44064,0.56974 -1.82927,-0.27938c-0.02688,-0.03872 -0.07312,-0.064 -0.13872,-0.07584c-1.15996,-2.58016 -2.33928,-5.14689 -3.53796,-7.70017c-0.02688,-0.03872 -0.07312,-0.064 -0.13872,-0.07584c-7.38242,3.74773 -16.01793,5.52504 -25.90652,5.33195c-3.03487,-0.07364 -5.63653,-0.57711 -7.80499,-1.51042c-1.5609,-3.73633 -2.97285,-7.54737 -4.23583,-11.43313c-0.02096,-0.07152 -0.02256,-0.15648 -0.0048,-0.25488c-10.12532,-5.82411 -18.81503,-12.65916 -26.06914,-20.50514c-0.65375,-0.69377 -1.18838,-1.48457 -1.60388,-2.37241c-0.46927,-0.96528 -0.96677,-1.86793 -1.49252,-2.70793c0.69481,-6.85148 2.20369,-13.52215 4.52665,-20.01202c1.83286,-5.08811 2.1458,-9.82401 0.93882,-14.20769c-1.25801,-4.66384 -1.56282,-9.91766 -0.91443,-15.76147c0.37109,-3.55694 1.68567,-5.96139 3.94376,-7.21336c3.79233,-2.05882 7.70858,-3.9598 11.74875,-5.70294c1.25703,-5.463 2.88717,-10.55384 4.89042,-15.27251c0.60034,-1.44959 1.53347,-2.58509 2.79939,-3.40651c5.19693,0.66711 10.5417,1.54717 16.0343,2.6402c0.0656,0.01184 0.1476,0.02664 0.246,0.0444c-0.67021,-1.916 -1.42082,-3.76184 -2.25184,-5.53753M726.30454,492.82213c0.04464,-0.05968 0.07584,-0.13872 0.0936,-0.23712c-4.15278,-0.07221 -8.15477,0.05213 -12.00595,0.37304c-0.0984,-0.01776 -0.1804,-0.03256 -0.246,-0.0444c-0.17809,0.61136 -0.3409,1.51335 -0.48843,2.70598c-0.01776,0.0984 -0.03256,0.1804 -0.0444,0.246c0.50397,2.46176 0.70113,5.12215 0.59149,7.98117c-0.01776,0.0984 -0.03256,0.1804 -0.0444,0.246c4.43778,-3.19545 8.48582,-6.95234 12.1441,-11.27067z" fill-opacity="0.99608" fill="#000000"/><path d="M726.39814,492.58501c-0.01776,0.0984 -0.04896,0.17744 -0.0936,0.23712c-3.65828,4.31833 -7.70631,8.07522 -12.1441,11.27067c0.01184,-0.0656 0.02664,-0.1476 0.0444,-0.246c0.10964,-2.85903 -0.08753,-5.51942 -0.59149,-7.98117c0.01184,-0.0656 0.02664,-0.1476 0.0444,-0.246c0.14754,-1.19263 0.31035,-2.09463 0.48843,-2.70598c0.0656,0.01184 0.1476,0.02664 0.246,0.0444c3.85119,-0.32091 7.85317,-0.44525 12.00595,-0.37304z" fill="#2a2b3e"/><path d="M720.52657,367.89377c3.70675,-4.03255 8.6879,-7.42569 14.94345,-10.17941c2.44132,0.40299 4.8673,0.75841 7.27792,1.06625c11.13635,1.51982 21.13454,5.21037 29.99457,11.07166c0.0307,0.09515 0.04043,0.17957 0.02917,0.25323c0.79846,6.81637 0.67399,13.16007 -0.37341,19.03113c2.97245,2.15771 5.86408,4.49909 8.6749,7.02414c7.07359,6.40265 14.10932,12.90506 21.10721,19.50723c4.01107,3.7487 7.6569,8.21057 10.9375,13.38562c0.0307,0.09515 0.05628,0.17445 0.07675,0.23788c1.28739,4.20723 2.33125,7.98526 3.13156,11.33408c-0.09515,0.0307 -0.13761,0.06191 -0.12738,0.09363c-1.49864,5.66644 -4.29777,10.66687 -8.3974,15.00128c-0.09515,0.0307 -0.17445,0.05628 -0.23788,0.07675c-8.60472,3.72178 -15.6467,4.41794 -21.12595,2.08847c-5.16435,-6.5634 -10.6126,-12.64997 -16.34476,-18.25974c-7.87276,-7.68567 -16.05142,-14.79988 -24.53598,-21.34262c-1.80894,0.6887 -3.4414,1.11034 -4.89737,1.26492c-4.35769,0.49546 -8.95631,1.38384 -13.79587,2.66513c-0.64058,-1.33419 -1.29754,-2.61057 -1.97086,-3.82913c-6.15299,-11.14718 -12.30599,-22.29435 -18.45898,-33.44153c4.30418,-5.87124 9.00178,-11.55423 14.0928,-17.04898M769.30901,393.07501c-2.96928,-0.30269 -6.08844,-0.36442 -9.35748,-0.18518c0.97345,7.25018 2.32446,14.69373 4.05304,22.33063c0.0307,0.09515 0.05628,0.17445 0.07675,0.23788c3.38568,-0.25189 6.72379,-0.48843 10.01431,-0.70963l-0.04605,-0.14273c-0.53436,-4.69533 -1.05798,-9.41164 -1.57086,-14.14893c-0.01023,-0.03172 0.03223,-0.06293 0.12738,-0.09363c3.81238,0.31083 7.25027,0.65494 10.31369,1.03232l-0.04605,-0.14273c-4.04889,-3.10614 -8.31825,-5.75593 -12.80807,-7.94937c-0.20976,-0.10742 -0.46198,-0.18363 -0.75665,-0.22864M782.84169,404.57272c-1.90517,-0.2608 -3.90753,-0.28013 -6.00708,-0.05798c0.56423,8.15265 1.0026,16.24084 1.31512,24.26459c-0.00102,0.10539 0.00871,0.1898 0.02917,0.25323c4.24518,0.24123 8.34559,0.73929 12.30124,1.49417c0.07367,0.01125 0.15808,0.00153 0.25323,-0.02917c-0.40342,-5.15782 -1.24171,-10.57805 -2.51486,-16.26071l0.14273,-0.04605c3.16473,0.79995 6.05268,1.339 8.66385,1.61716l-0.13815,-0.42819c-3.73381,-4.08329 -7.82722,-7.49024 -12.28024,-10.22086c-0.52389,-0.32125 -1.11222,-0.51664 -1.76501,-0.58618z" fill-opacity="0.99608" fill="#000000"/><path d="M776.83461,404.51474c2.09955,-0.22215 4.10191,-0.20282 6.00708,0.05798c0.65279,0.06954 1.24113,0.26493 1.76501,0.58618c4.45302,2.73061 8.54644,6.13756 12.28024,10.22086l0.13815,0.42819c-2.61117,-0.27816 -5.49911,-0.81721 -8.66385,-1.61716l-0.14273,0.04605c1.27315,5.68266 2.11144,11.1029 2.51486,16.26071c-0.09515,0.0307 -0.17957,0.04043 -0.25323,0.02917c-3.95565,-0.75488 -8.05606,-1.25294 -12.30124,-1.49417c-0.02047,-0.06344 -0.03019,-0.14785 -0.02917,-0.25323c-0.31252,-8.02374 -0.7509,-16.11194 -1.31512,-24.26459M759.95153,392.88983c3.26904,-0.17924 6.3882,-0.11751 9.35748,0.18518c0.29468,0.045 0.5469,0.12122 0.75665,0.22864c4.48983,2.19344 8.75919,4.84323 12.80807,7.94937l0.04605,0.14273c-3.06342,-0.37738 -6.50131,-0.72149 -10.31369,-1.03232c-0.09515,0.0307 -0.13761,0.06191 -0.12738,0.09363c0.51288,4.73728 1.0365,9.45359 1.57086,14.14893l0.04605,0.14273c-3.29053,0.22119 -6.62863,0.45773 -10.01431,0.70963c-0.02047,-0.06344 -0.04605,-0.14273 -0.07675,-0.23788c-1.72858,-7.6369 -3.07959,-15.08044 -4.05304,-22.33063z" fill-opacity="0.99608" fill="#ffffff"/><path d="M536.32733,229.27339c0.13887,-1.90223 0.21694,-3.40353 0.23419,-4.5039c-0.02767,-8.73386 3.10825,-14.2803 9.40777,-16.6393c0.06666,-0.00097 0.15023,0.01447 0.2507,0.04634c0.96949,0.18585 1.71916,0.15822 2.24903,-0.08288c1.85087,-1.09384 3.27977,-2.54822 4.28668,-4.36313c1.10495,-1.94969 1.73866,-4.2092 1.90112,-6.77851c0.62479,-9.71017 2.87402,-17.76058 6.74768,-24.15122c5.63303,-9.18332 14.64678,-15.14906 27.04127,-17.8972c12.42782,-2.74863 25.65423,-4.45882 39.67924,-5.13058c14.52447,-0.71239 29.1886,-0.99345 43.99238,-0.84317c1.96694,0.00458 3.55547,0.34806 4.76557,1.03045c4.59805,-0.16723 9.20121,0.0155 13.80949,0.54819c13.29156,1.60588 26.04049,3.71974 38.24679,6.34159c12.10631,2.62331 22.98078,6.4981 32.62341,11.62436c3.66267,1.98 6.9305,4.31582 9.80348,7.00744c6.66001,6.33666 10.79163,15.31055 12.39486,26.92169c0.9689,6.98658 1.69718,13.47663 2.18485,19.47014c0.06666,-0.00097 0.13356,0.01472 0.20071,0.04707c5.2163,3.35744 10.44878,6.68131 15.69744,9.9716c0.14189,2.8649 0.19754,5.53104 0.16694,7.99841c-0.08362,14.8028 -0.94674,28.73358 -2.58936,41.79232c-1.64067,13.19206 -3.7729,25.82458 -6.3967,37.89756c-0.68794,3.11039 -1.2428,6.20216 -1.66459,9.27532c-0.74196,5.29422 -2.75042,9.29068 -6.02538,11.98936c-0.58361,0.48384 -1.21055,0.92639 -1.88079,1.32764c-0.09999,0.00146 -0.18307,0.01934 -0.24924,0.05365c-1.62926,0.29051 -3.29234,0.54819 -4.98923,0.77301c0.00146,0.09999 -0.01398,0.18356 -0.04634,0.2507c-0.25998,0.9315 -0.49631,1.86839 -0.70899,2.81066c-0.20893,0.92281 -0.39551,1.84231 -0.55974,2.75848c-0.52923,2.93005 -0.85225,5.91843 -0.96905,8.96512c-7.22106,3.17256 -15.35445,5.50837 -24.40017,7.00743c-6.41852,1.06061 -12.5834,2.36753 -18.49466,3.92077c-2.93482,0.75704 -5.90809,1.46725 -8.91981,2.13062c-9.35704,2.13466 -19.08236,3.89368 -29.17598,5.27706c-6.62093,0.89688 -13.52979,1.48127 -20.72659,1.75317c-10.52782,0.45394 -21.44186,0.71351 -32.74212,0.7787c-7.36685,0.04103 -14.22441,-0.42545 -20.57266,-1.39942c-12.83079,-2.01266 -24.65843,-4.95674 -35.4829,-8.83226c-6.93936,-2.50807 -12.82518,-6.05575 -17.65747,-10.64302c-0.92256,-0.84207 -1.80229,-1.72931 -2.63919,-2.66171c-0.00097,-0.06666 -0.01886,-0.14974 -0.05365,-0.24924c-0.31321,-1.19503 -0.61429,-2.40742 -0.90326,-3.63718c-0.31469,-1.26064 -0.61675,-2.53969 -0.90619,-3.83716c-0.09999,0.00146 -0.18356,-0.01398 -0.2507,-0.04634c-7.23578,-2.39448 -11.07284,-8.32236 -11.51119,-17.78363c-2.48882,-1.49711 -4.66563,-3.31549 -6.53044,-5.45512c-1.89765,-2.10582 -3.21886,-4.68678 -3.96361,-7.74289c-0.99365,-4.11925 -1.77286,-8.39165 -2.33761,-12.8172c-1.58793,-12.84483 -2.57364,-26.6819 -2.95712,-41.51121c-0.30094,-11.46349 -0.09389,-22.38435 0.62115,-32.76258M548.36816,218.29621c-0.0995,0.03479 -0.18258,0.05267 -0.24924,0.05365c-3.00153,4.47769 -4.74964,10.32053 -5.24433,17.52853c-0.57519,8.54265 -0.77668,17.56323 -0.60448,27.06173c0.00146,0.09999 -0.01398,0.18356 -0.04634,0.2507c-0.09073,0.63473 0.01535,1.04989 0.31824,1.24548c0.00244,0.16665 0.00487,0.3333 0.00731,0.49995c0.00146,0.09999 0.00268,0.18331 0.00365,0.24997c0.89045,13.02171 2.04339,25.75622 3.45883,38.20352c0.38397,3.46142 1.4574,6.19602 3.22027,8.2038c7.33255,-0.1072 14.66486,-0.23106 21.99692,-0.37159c14.79744,-0.283 29.54368,-0.6486 44.2387,-1.09679l0.09999,-0.00146c0.16733,-2.23602 0.26776,-4.48773 0.30129,-6.75513c0.06666,-0.00097 0.14998,-0.00219 0.24997,-0.00365c13.34555,0.73833 26.69086,1.45999 40.03593,2.16499c0.06666,-0.00097 0.1169,0.01496 0.15071,0.0478c0.50872,0.59263 0.88606,1.32052 1.13204,2.18369c0.26274,-0.27054 0.46248,-0.29012 0.59921,-0.05877c1.06295,2.01801 1.89599,4.27274 2.49915,6.76419c0.40044,0.02748 0.81755,0.05472 1.25133,0.08172c13.945,0.69623 27.79221,1.5439 41.54161,2.54302c13.98272,0.99571 27.82797,1.71006 41.53577,2.14306c0.6322,-4.64307 1.21391,-9.31874 1.74514,-14.02701c1.5397,-13.25726 3.09802,-26.38144 4.67495,-39.37255c1.63921,-13.29205 3.29678,-26.46769 4.97273,-39.52692c-10.95731,-3.84024 -22.932,-6.58215 -35.92408,-8.22574c-6.71293,-0.83529 -13.29351,-1.7392 -19.74175,-2.71171c-12.86266,-1.91218 -26.38315,-3.21468 -40.56145,-3.90749c-8.60736,-0.44089 -17.27993,-0.78082 -26.01769,-1.01978c-15.30714,-0.37628 -29.71739,0.16776 -43.23076,1.63212c-7.68846,0.84581 -15.17474,1.83869 -22.45886,2.97862c-0.73131,0.14404 -1.47928,0.28832 -2.24391,0.43285l0.00146,0.09999c-6.96885,-0.09814 -12.87294,0.80493 -17.71229,2.70921M629.09049,318.42692c0.00146,0.09999 0.00268,0.18331 0.00365,0.24997c-0.57509,1.70859 -1.45501,3.08827 -2.63978,4.13903c-0.03284,0.03382 -0.04878,0.08406 -0.0478,0.15071c-12.86286,0.35473 -25.60175,1.20771 -38.21668,2.55892c-0.09999,0.00146 -0.18331,0.00268 -0.24997,0.00365c1.14636,12.28456 3.67211,23.1488 7.57725,32.59272c0.00049,0.03333 0.05073,0.04926 0.15071,0.0478c12.40287,2.38562 25.51258,4.09416 39.32913,5.12564c13.61609,1.00107 28.03633,1.14029 43.26073,0.41766c4.99703,-0.23974 9.7571,-0.72604 14.2802,-1.4589c4.72211,-0.80245 9.19156,-1.78455 13.40836,-2.94632c5.22215,-7.64382 9.46313,-16.2734 12.72292,-25.88875c-0.00049,-0.03333 0.04926,-0.05073 0.14925,-0.05219c-0.01169,-0.79991 -0.02388,-1.63316 -0.03654,-2.49973c-0.00097,-0.06666 -0.00219,-0.14998 -0.00365,-0.24997c-13.42098,-1.33729 -27.11918,-2.25381 -41.09459,-2.74958c-6.00374,-0.21226 -11.66167,-0.71294 -16.97377,-1.50204c-1.73705,-0.2413 -3.24493,-0.76931 -4.52364,-1.58404c-1.08146,-3.28454 -1.96587,-6.77199 -2.65322,-10.46233c-0.00097,-0.06666 -0.00219,-0.14998 -0.00365,-0.24997c-8.10255,-0.1149 -16.18867,-0.24672 -24.25837,-0.39544c-0.09999,0.00146 -0.18331,0.00268 -0.24997,0.00365c0.0229,1.5665 0.04605,3.14966 0.06944,4.74949z" fill-opacity="0.99608" fill="#000000"/><path d="M629.09414,318.67689c-0.00097,-0.06666 -0.00219,-0.14998 -0.00365,-0.24997c-0.02339,-1.59983 -0.04653,-3.18299 -0.06944,-4.74949c0.06666,-0.00097 0.14998,-0.00219 0.24997,-0.00365c8.0697,0.14872 16.15583,0.28053 24.25837,0.39544c0.00146,0.09999 0.00268,0.18331 0.00365,0.24997c0.68735,3.69035 1.57176,7.17779 2.65322,10.46233c1.27871,0.81473 2.78659,1.34274 4.52364,1.58404c5.3121,0.7891 10.97003,1.28978 16.97377,1.50204c13.97541,0.49576 27.6736,1.41229 41.09459,2.74958c0.00146,0.09999 0.00268,0.18331 0.00365,0.24997c0.01267,0.86657 0.02485,1.69982 0.03654,2.49973c-0.09999,0.00146 -0.14974,0.01886 -0.14925,0.05219c-3.25979,9.61535 -7.50077,18.24493 -12.72292,25.88875c-4.2168,1.16177 -8.68626,2.14387 -13.40836,2.94632c-4.5231,0.73286 -9.28317,1.21916 -14.2802,1.4589c-15.2244,0.72263 -29.64464,0.58341 -43.26073,-0.41766c-13.81655,-1.03147 -26.92626,-2.74002 -39.32913,-5.12564c-0.09999,0.00146 -0.15023,-0.01447 -0.15071,-0.0478c-3.90513,-9.44392 -6.43088,-20.30816 -7.57725,-32.59272c0.06666,-0.00097 0.14998,-0.00219 0.24997,-0.00365c12.61493,-1.35122 25.35382,-2.20419 38.21668,-2.55892c-0.00097,-0.06666 0.01496,-0.1169 0.0478,-0.15071c1.18477,-1.05076 2.06469,-2.43044 2.63978,-4.13903M548.11891,218.34986c0.06666,-0.00097 0.14974,-0.01886 0.24924,-0.05365c4.83935,-1.90428 10.74344,-2.80735 17.71229,-2.70921l-0.00146,-0.09999c0.76464,-0.14453 1.51261,-0.28881 2.24391,-0.43285c7.28412,-1.13993 14.7704,-2.13281 22.45886,-2.97862c13.51337,-1.46436 27.92363,-2.0084 43.23076,-1.63212c8.73776,0.23896 17.41032,0.57889 26.01769,1.01978c14.17831,0.69282 27.69879,1.99531 40.56145,3.90749c6.44824,0.97251 13.02882,1.87641 19.74175,2.71171c12.99208,1.64359 24.96678,4.38551 35.92408,8.22574c-1.67595,13.05923 -3.33352,26.23487 -4.97273,39.52692c-1.57693,12.99111 -3.13525,26.11529 -4.67495,39.37255c-0.53123,4.70827 -1.11295,9.38394 -1.74514,14.02701c-13.70779,-0.433 -27.55305,-1.14735 -41.53577,-2.14306c-13.74941,-0.99912 -27.59661,-1.84679 -41.54161,-2.54302c-0.43377,-0.027 -0.85088,-0.05423 -1.25133,-0.08172c-0.60315,-2.49145 -1.4362,-4.74618 -2.49915,-6.76419c-0.13673,-0.23136 -0.33646,-0.21177 -0.59921,0.05877c-0.24598,-0.86316 -0.62332,-1.59106 -1.13204,-2.18369c-0.03382,-0.03284 -0.08406,-0.04878 -0.15071,-0.0478c-13.34507,-0.705 -26.69037,-1.42666 -40.03593,-2.16499c-0.09999,0.00146 -0.18331,0.00268 -0.24997,0.00365c-0.03353,2.2674 -0.13395,4.51911 -0.30129,6.75513l-0.09999,0.00146c-14.69502,0.44819 -29.44125,0.81379 -44.2387,1.09679c-7.33206,0.14053 -14.66437,0.26439 -21.99692,0.37159c-1.76287,-2.00778 -2.83629,-4.74238 -3.22027,-8.2038c-1.41544,-12.44731 -2.56838,-25.18181 -3.45883,-38.20352c-0.00097,-0.06666 -0.00219,-0.14998 -0.00365,-0.24997c-0.00244,-0.16665 -0.00487,-0.3333 -0.00731,-0.49995c-0.30289,-0.19559 -0.40897,-0.61075 -0.31824,-1.24548c0.03236,-0.06715 0.0478,-0.15071 0.04634,-0.2507c-0.1722,-9.4985 0.02929,-18.51907 0.60448,-27.06173c0.49469,-7.208 2.2428,-13.05085 5.24433,-17.52853z" fill="#fefefe"/><path d="M642.48262,362.02794c-13.99071,0.73793 -24.55254,-2.27467 -31.6855,-9.03779c3.69454,1.87953 8.292,2.81242 13.79239,2.79868c4.13338,-0.02709 7.75648,0.38666 10.86931,1.24125c1.50617,0.41136 3.06015,0.67201 4.66193,0.78194c4.6725,0.36507 8.91878,1.21976 12.73884,2.56406c0.03333,-0.00049 0.05121,0.08259 0.05365,0.24924c-3.05659,0.71142 -6.53346,1.17896 -10.43061,1.40262z" fill="#020202"/><path d="M684.28927,351.91574c-0.32648,0.47149 -0.99283,0.4979 -1.99906,0.07923c-0.06715,-0.03236 -0.15071,-0.0478 -0.2507,-0.04634c-4.04382,1.59262 -9.03281,2.3823 -14.96697,2.36904c-7.66731,0.01208 -14.98904,-0.28092 -21.9652,-0.87901c-6.94331,-0.6319 -13.72363,-1.51622 -20.34095,-2.65294c-2.61629,-1.09521 -5.46223,-1.93703 -8.53783,-2.52546c-1.16995,-0.21625 -2.17521,-0.56826 -3.01576,-1.05603c-1.97308,-2.70478 -3.02657,-6.35644 -3.16048,-10.95497c-0.00097,-0.06666 -0.00219,-0.14998 -0.00365,-0.24997c1.79416,-2.69318 4.07842,-4.92681 6.85278,-6.70089c0.03333,-0.00049 0.04926,-0.05073 0.0478,-0.15071c14.50479,0.22133 28.27037,1.18687 41.29676,2.89664c4.87687,0.66211 9.278,1.84791 13.20341,3.55737c1.6777,0.74222 3.10932,1.75474 4.29486,3.03754c3.35276,3.58471 6.19549,7.62692 8.52818,12.12663c0.30825,0.56222 0.31385,0.94551 0.01681,1.14988M621.54013,335.33123c0.00146,0.09999 0.00268,0.18331 0.00365,0.24997c0.05623,1.56601 0.3257,2.89555 0.80839,3.98861c0.09999,-0.00146 0.18356,0.01398 0.2507,0.04634c4.04411,0.70763 8.05562,1.46573 12.03453,2.27432l0.00219,0.14998c-3.69668,0.25406 -7.36003,0.50764 -10.99005,0.76073c0.00146,0.09999 0.01934,0.18307 0.05365,0.24924c0.58122,0.99161 1.16245,1.98322 1.74367,2.97483c1.77086,0.27414 3.6079,0.51398 5.51111,0.71952c13.6538,1.30055 27.99145,1.49098 43.01295,0.5713c-2.00573,-4.93787 -5.89844,-7.83128 -11.67813,-8.68022c-13.29643,-1.93917 -26.88066,-3.04072 -40.75266,-3.30463z" fill="#010101"/><path d="M630.95798,346.74478c-1.90321,-0.20553 -3.74024,-0.44537 -5.51111,-0.71952c-0.58122,-0.99161 -1.16245,-1.98322 -1.74367,-2.97483c-0.0343,-0.06617 -0.05219,-0.14925 -0.05365,-0.24924c3.63002,-0.25309 7.29337,-0.50667 10.99005,-0.76073l-0.00219,-0.14998c-3.97891,-0.80859 -7.99042,-1.5667 -12.03453,-2.27432c-0.06715,-0.03236 -0.15071,-0.0478 -0.2507,-0.04634c-0.4827,-1.09306 -0.75216,-2.4226 -0.80839,-3.98861c-0.00097,-0.06666 -0.00219,-0.14998 -0.00365,-0.24997c13.87201,0.26391 27.45623,1.36546 40.75266,3.30463c5.77969,0.84894 9.67241,3.74234 11.67813,8.68022c-15.0215,0.91968 -29.35914,0.72925 -43.01295,-0.5713z" fill="#fdfdfd"/></g></g></svg>