<svg version="1.1" xmlns="http://www.w3.org/2000/svg" xmlns:xlink="http://www.w3.org/1999/xlink" width="43.34706" height="68.5496" viewBox="0,0,43.34706,68.5496"><g transform="translate(-608.11105,-337.83784)"><g data-paper-data="{&quot;isPaintingLayer&quot;:true}" fill-rule="nonzero" stroke="none" stroke-width="1" stroke-linecap="butt" stroke-linejoin="miter" stroke-miterlimit="10" stroke-dasharray="" stroke-dashoffset="0" style="mix-blend-mode: normal"><path d="M650.30811,353.48784c-1.06667,1.1 -2.13333,2.2 -3.2,3.3c-0.23333,0.33333 -0.48333,0.66667 -0.75,1c-0.66667,0.83333 -1.35,1.65 -2.05,2.45c-0.06667,0.1 -0.15,0.2 -0.25,0.3c-0.06667,0.16667 -0.16667,0.33333 -0.3,0.5c-0.13333,0.2 -0.26667,0.38333 -0.4,0.55c-0.36667,0.36667 -0.73333,0.73333 -1.1,1.1c-0.06667,0.16667 -0.15,0.33333 -0.25,0.5c-0.2,0.3 -0.41667,0.58333 -0.65,0.85c-0.26667,0.33333 -0.51667,0.68333 -0.75,1.05c-1.13333,1.3 -2.18333,2.66667 -3.15,4.1c-0.43333,0.66667 -0.93333,1.23333 -1.5,1.7c0.6,0.86667 1.23333,1.75 1.9,2.65c0.7,0.93333 1.33333,1.9 1.9,2.9c0.2,0.16667 0.36667,0.35 0.5,0.55c0.33333,0.4 0.61667,0.83333 0.85,1.3c0.03333,0.1 0.06667,0.18333 0.1,0.25c1.13333,1.46667 2.38333,2.81667 3.75,4.05c0.8,0.7 1.45,1.5 1.95,2.4c2.7,2.43333 3.98333,5.28333 3.85,8.55c-0.03333,0.5 -0.18333,0.96667 -0.45,1.4c-1.2,1.9 -2.6,3.66667 -4.2,5.3c-1.16667,2.13333 -2.7,3.91667 -4.6,5.35c-1.06667,0.83333 -2.2,0.9 -3.4,0.2c-0.1,-0.1 -0.2,-0.18333 -0.3,-0.25c-0.16667,-0.2 -0.35,-0.38333 -0.55,-0.55c-0.06667,-0.1 -0.15,-0.18333 -0.25,-0.25c-0.06667,-0.1 -0.11667,-0.2 -0.15,-0.3c-0.03333,-0.06667 -0.08333,-0.15 -0.15,-0.25c-0.03333,-0.1 -0.08333,-0.2 -0.15,-0.3c-0.36667,-0.33333 -0.71667,-0.68333 -1.05,-1.05c-0.43333,-0.43333 -0.88333,-0.88333 -1.35,-1.35c-0.06667,-0.06667 -0.11667,-0.15 -0.15,-0.25c-0.1,-0.16667 -0.21667,-0.33333 -0.35,-0.5c-0.1,-0.2 -0.23333,-0.4 -0.4,-0.6c-1.1,-1.9 -2.3,-3.75 -3.6,-5.55c-0.86667,-1.16667 -1.75,-2.31667 -2.65,-3.45c0,0.43333 0,0.88333 0,1.35c0,0.7 0,1.41667 0,2.15c0,0.16667 0,0.33333 0,0.5c0.03333,0.1 0.06667,0.2 0.1,0.3c0.03333,0.1 0.06667,0.18333 0.1,0.25c0.06667,0.2 0.11667,0.38333 0.15,0.55c0,0.96667 0,1.95 0,2.95c0,1.23333 0,2.48333 0,3.75c-0.03333,0.1 -0.05,0.18333 -0.05,0.25c-0.06667,0.2 -0.15,0.36667 -0.25,0.5c-0.16667,0.3 -0.33333,0.58333 -0.5,0.85c-5.1,2.26667 -10.45,2.45 -16.05,0.55c-0.6,-0.2 -0.98333,-0.61667 -1.15,-1.25c-0.06667,-1.7 -0.1,-3.4 -0.1,-5.1c0,-1.7 0,-3.4 0,-5.1c-0.26667,-1.1 -0.38333,-2.26667 -0.35,-3.5c0.03333,-1.33333 0.05,-2.66667 0.05,-4c-0.4,-2.33333 -0.55,-4.75 -0.45,-7.25c0.06667,-2.2 0.1,-4.41667 0.1,-6.65c-0.43333,-1.83333 -0.58333,-3.71667 -0.45,-5.65c0.1,-1.86667 0.2,-3.73333 0.3,-5.6c0.03333,-0.1 0.06667,-0.2 0.1,-0.3c0,-0.06667 0.01667,-0.15 0.05,-0.25c0.06667,-0.16667 0.13333,-0.35 0.2,-0.55c0,-3.3 0.03333,-6.6 0.1,-9.9c0.06667,-1.66667 0.18333,-3.31667 0.35,-4.95v-0.05c0,-0.1 0,-0.18333 0,-0.25c0,-0.2 0,-0.38333 0,-0.55c0,-0.1 -0.01667,-0.18333 -0.05,-0.25c-0.03333,-0.1 -0.08333,-0.2 -0.15,-0.3c-0.06667,-0.06667 -0.11667,-0.15 -0.15,-0.25c0,-0.1 -0.01667,-0.18333 -0.05,-0.25c0,-0.1 -0.01667,-0.2 -0.05,-0.3c0,-0.1 0,-0.18333 0,-0.25c0,-0.1 0,-0.2 0,-0.3c0.03333,-0.16667 0.06667,-0.33333 0.1,-0.5c0.06667,-0.2 0.15,-0.38333 0.25,-0.55c0.13333,-0.16667 0.25,-0.35 0.35,-0.55c4.16667,-1.43333 8.45,-2.38333 12.85,-2.85c0.43333,0.03333 0.85,0.08333 1.25,0.15c0.56667,0.1 1.08333,0.31667 1.55,0.65c0.16667,0.26667 0.31667,0.55 0.45,0.85c0.23333,0.43333 0.4,0.86667 0.5,1.3c0.06667,0.36667 0.16667,0.73333 0.3,1.1c0,0.6 0,1.21667 0,1.85c0,1.16667 0,2.33333 0,3.5c0,0.33333 0,0.68333 0,1.05c0.03333,0.1 0.05,0.18333 0.05,0.25c0.03333,0.1 0.06667,0.2 0.1,0.3c0.03333,0.06667 0.06667,0.15 0.1,0.25c0.03333,0.1 0.06667,0.2 0.1,0.3c0,0.16667 0,0.33333 0,0.5c0,0.3 0,0.56667 0,0.8c0,0.46667 0,0.91667 0,1.35c0,0.1 0,0.18333 0,0.25c0.03333,0.1 0.06667,0.2 0.1,0.3c0,0.06667 0.03333,0.15 0.1,0.25c0,0.06667 0.01667,0.13333 0.05,0.2c0.16667,-0.13333 0.3,-0.26667 0.4,-0.4c0.16667,-0.16667 0.3,-0.33333 0.4,-0.5c0.2,-0.26667 0.41667,-0.53333 0.65,-0.8c0.03333,-0.1 0.05,-0.2 0.05,-0.3c0.03333,-0.06667 0.06667,-0.15 0.1,-0.25c0.03333,-0.1 0.06667,-0.18333 0.1,-0.25c0.06667,-0.1 0.13333,-0.18333 0.2,-0.25c0.06667,-0.1 0.15,-0.2 0.25,-0.3c0.1,-0.1 0.18333,-0.18333 0.25,-0.25c0.2,-0.2 0.38333,-0.38333 0.55,-0.55c0.53333,-0.9 1.11667,-1.78333 1.75,-2.65c0.86667,-1.23333 1.5,-2.58333 1.9,-4.05c0.06667,-0.1 0.13333,-0.18333 0.2,-0.25c0.06667,-0.1 0.11667,-0.2 0.15,-0.3c0.03333,-0.06667 0.06667,-0.15 0.1,-0.25c0.1,-0.16667 0.18333,-0.35 0.25,-0.55c0.03333,-0.06667 0.06667,-0.15 0.1,-0.25c2.43333,-2.06667 5.03333,-1.86667 7.8,0.6c0.7,0.6 1.4,1.2 2.1,1.8c0.9,0.8 1.75,1.63333 2.55,2.5c0.1,0.1 0.21667,0.18333 0.35,0.25c0.13333,0.1 0.28333,0.2 0.45,0.3c0.06667,0.06667 0.15,0.15 0.25,0.25c0.06667,0.1 0.13333,0.18333 0.2,0.25c0.06667,0.1 0.15,0.2 0.25,0.3c0.63333,0.4 1.21667,0.85 1.75,1.35c0.76667,0.73333 1.21667,1.61667 1.35,2.65c-0.1,0.9 -0.48333,1.68333 -1.15,2.35M637.70811,348.18784c-0.23333,0.4 -0.51667,0.76667 -0.85,1.1c-0.2,0.4 -0.4,0.78333 -0.6,1.15c-0.43333,0.76667 -0.95,1.45 -1.55,2.05c-0.2,0.16667 -0.38333,0.35 -0.55,0.55c-0.03333,0.06667 -0.06667,0.15 -0.1,0.25c-0.03333,0.1 -0.06667,0.18333 -0.1,0.25c-0.03333,0.1 -0.08333,0.2 -0.15,0.3c-0.03333,0.06667 -0.06667,0.15 -0.1,0.25c-0.06667,0.1 -0.13333,0.2 -0.2,0.3c-0.33333,0.3 -0.61667,0.66667 -0.85,1.1c-0.33333,0.6 -0.68333,1.2 -1.05,1.8c-0.13333,0.2 -0.3,0.38333 -0.5,0.55c-0.06667,0.1 -0.1,0.2 -0.1,0.3c-0.06667,0.16667 -0.13333,0.33333 -0.2,0.5c-0.06667,0.2 -0.13333,0.38333 -0.2,0.55c-0.1,0.16667 -0.2,0.35 -0.3,0.55c-0.06667,0.06667 -0.15,0.15 -0.25,0.25c-0.1,0.1 -0.18333,0.18333 -0.25,0.25c-0.36667,1.1 -0.78333,2.13333 -1.25,3.1c-0.73333,1.53333 -1.96667,2.38333 -3.7,2.55c-0.76667,-0.03333 -1.43333,-0.31667 -2,-0.85c-0.5,-0.4 -0.81667,-0.91667 -0.95,-1.55c0,-0.1 0,-0.2 0,-0.3c0,-0.06667 0,-0.15 0,-0.25c0,-0.1 0,-0.18333 0,-0.25c0,-0.1 0,-0.2 0,-0.3c0,-0.06667 0,-0.15 0,-0.25c-0.13333,-0.43333 -0.21667,-0.88333 -0.25,-1.35c-0.06667,-0.86667 -0.1,-1.76667 -0.1,-2.7c0,-0.33333 0,-0.68333 0,-1.05c-0.03333,-0.1 -0.06667,-0.18333 -0.1,-0.25c0,-0.1 -0.01667,-0.2 -0.05,-0.3c-0.03333,-0.06667 -0.06667,-0.15 -0.1,-0.25c-0.03333,-0.1 -0.06667,-0.18333 -0.1,-0.25c0,-0.1 0,-0.2 0,-0.3c0,-0.06667 0,-0.15 0,-0.25c0,-0.1 0,-0.18333 0,-0.25c0,-0.1 0,-0.2 0,-0.3c0,-0.06667 0,-0.15 0,-0.25c-0.03333,-0.3 -0.08333,-0.58333 -0.15,-0.85c-0.16667,-0.5 -0.23333,-1.01667 -0.2,-1.55c0,-0.46667 0,-0.91667 0,-1.35c-0.03333,-0.1 -0.06667,-0.18333 -0.1,-0.25c-0.03333,-0.1 -0.06667,-0.2 -0.1,-0.3c-0.03333,-0.1 -0.05,-0.18333 -0.05,-0.25c-0.03333,-0.1 -0.06667,-0.2 -0.1,-0.3c0,-0.43333 0,-0.86667 0,-1.3c0,-0.9 0,-1.8 0,-2.7c0,-0.4 0,-0.81667 0,-1.25c-2.4,0.13333 -4.78333,0.21667 -7.15,0.25c0.1,2.56667 0.2,5.13333 0.3,7.7c0.1,2.76667 0.15,5.53333 0.15,8.3c-0.03333,0.1 -0.06667,0.18333 -0.1,0.25c-0.03333,0.1 -0.06667,0.2 -0.1,0.3c-0.03333,0.16667 -0.08333,0.33333 -0.15,0.5c0.1,1.33333 0.15,2.68333 0.15,4.05c0,1.43333 0,2.86667 0,4.3c0.03333,0.06667 0.06667,0.15 0.1,0.25c0.03333,0.1 0.06667,0.18333 0.1,0.25c0.06667,0.2 0.11667,0.38333 0.15,0.55c0.03333,2.23333 0.03333,4.46667 0,6.7c0,2.03333 0,4.08333 0,6.15c0.03333,0.1 0.06667,0.18333 0.1,0.25c0.03333,0.1 0.06667,0.2 0.1,0.3c0.06667,0.16667 0.13333,0.35 0.2,0.55c0,0.86667 0,1.75 0,2.65c0,1.16667 0,2.33333 0,3.5c0.43333,1.33333 0.61667,2.76667 0.55,4.3c-0.06667,1.56667 -0.1,3.13333 -0.1,4.7c2.3,0.4 4.58333,0.28333 6.85,-0.35c0,-0.16667 0,-0.35 0,-0.55c0,-0.43333 0,-0.88333 0,-1.35c0,-0.26667 0,-0.53333 0,-0.8c-0.03333,-0.06667 -0.06667,-0.15 -0.1,-0.25c-0.03333,-0.1 -0.06667,-0.18333 -0.1,-0.25c-0.03333,-0.2 -0.08333,-0.38333 -0.15,-0.55c0,-2.76667 -0.01667,-5.53333 -0.05,-8.3c-0.06667,-2.43333 0,-4.85 0.2,-7.25c0.26667,-0.4 0.58333,-0.73333 0.95,-1c0.5,-0.4 1.08333,-0.63333 1.75,-0.7c0.4,0.1 0.76667,0.23333 1.1,0.4c0.46667,0.2 0.9,0.43333 1.3,0.7c0.1,0.06667 0.18333,0.15 0.25,0.25c0.16667,0.16667 0.31667,0.35 0.45,0.55c0.1,0.16667 0.2,0.35 0.3,0.55c1.06667,1.36667 2.15,2.73333 3.25,4.1c0.76667,0.96667 1.4,2 1.9,3.1c0.26667,0.26667 0.55,0.53333 0.85,0.8c0.43333,0.36667 0.75,0.81667 0.95,1.35c0.16667,0.16667 0.33333,0.35 0.5,0.55c0.3,0.33333 0.5,0.68333 0.6,1.05c0,0.1 0.01667,0.18333 0.05,0.25c0.1,0.1 0.2,0.2 0.3,0.3c0.13333,0.16667 0.26667,0.35 0.4,0.55c0.1,0.16667 0.2,0.33333 0.3,0.5c0.43333,0.4 0.81667,0.83333 1.15,1.3c0.46667,0.56667 0.83333,1.21667 1.1,1.95c0.03333,0.06667 0.06667,0.13333 0.1,0.2c0.1,0.13333 0.2,0.25 0.3,0.35c0.16667,0.13333 0.31667,0.26667 0.45,0.4c0.2,-0.1 0.35,-0.23333 0.45,-0.4c0.33333,-0.46667 0.7,-0.9 1.1,-1.3c0.1,-0.06667 0.18333,-0.15 0.25,-0.25c0.06667,-0.1 0.11667,-0.2 0.15,-0.3c0.06667,-0.06667 0.11667,-0.15 0.15,-0.25c0.03333,-0.06667 0.08333,-0.15 0.15,-0.25c0.46667,-0.4 0.86667,-0.85 1.2,-1.35c0.4,-0.6 0.8,-1.21667 1.2,-1.85c-0.33333,-0.43333 -0.65,-0.9 -0.95,-1.4c-0.33333,-0.6 -0.7,-1.21667 -1.1,-1.85c-0.16667,-0.16667 -0.35,-0.33333 -0.55,-0.5c-0.33333,-0.33333 -0.65,-0.7 -0.95,-1.1c-0.06667,-0.1 -0.13333,-0.18333 -0.2,-0.25c-0.46667,-0.3 -0.88333,-0.65 -1.25,-1.05c-0.43333,-0.46667 -0.86667,-0.91667 -1.3,-1.35c-0.06667,-0.1 -0.13333,-0.2 -0.2,-0.3c-0.03333,-0.06667 -0.06667,-0.15 -0.1,-0.25c-0.06667,-0.1 -0.11667,-0.18333 -0.15,-0.25c-0.26667,-0.3 -0.51667,-0.6 -0.75,-0.9c-0.4,-0.53333 -0.83333,-1.05 -1.3,-1.55c-0.1,-0.16667 -0.2,-0.35 -0.3,-0.55c-0.2,-0.5 -0.5,-0.93333 -0.9,-1.3c-0.06667,-0.1 -0.15,-0.2 -0.25,-0.3c-0.43333,-0.73333 -0.9,-1.45 -1.4,-2.15c-0.5,-0.66667 -0.95,-1.36667 -1.35,-2.1c-0.3,-0.23333 -0.55,-0.5 -0.75,-0.8c-0.33333,-0.5 -0.6,-1.03333 -0.8,-1.6c-0.03333,-0.1 -0.05,-0.2 -0.05,-0.3c0,-0.1 0,-0.18333 0,-0.25c0,-0.1 0,-0.2 0,-0.3c0,-0.06667 0,-0.15 0,-0.25c0,-0.1 0,-0.18333 0,-0.25c0.16667,-0.6 0.41667,-1.08333 0.75,-1.45c-0.03333,-0.1 -0.05,-0.18333 -0.05,-0.25c-0.03333,-0.2 -0.06667,-0.38333 -0.1,-0.55c-0.03333,-0.36667 -0.01667,-0.71667 0.05,-1.05c0.06667,-0.2 0.11667,-0.38333 0.15,-0.55c0.03333,-0.1 0.08333,-0.18333 0.15,-0.25c0.06667,-0.1 0.13333,-0.2 0.2,-0.3c0.03333,-0.06667 0.1,-0.15 0.2,-0.25c0.06667,-0.1 0.15,-0.18333 0.25,-0.25c0.06667,-0.1 0.15,-0.2 0.25,-0.3c0.1,-0.3 0.25,-0.56667 0.45,-0.8c0.36667,-0.36667 0.71667,-0.71667 1.05,-1.05c0.2,-0.2 0.38333,-0.38333 0.55,-0.55c0.06667,-0.1 0.11667,-0.2 0.15,-0.3c0.06667,-0.06667 0.11667,-0.15 0.15,-0.25c0.03333,-0.06667 0.08333,-0.15 0.15,-0.25c0.16667,-0.16667 0.33333,-0.35 0.5,-0.55c0.13333,-0.16667 0.26667,-0.35 0.4,-0.55c0.23333,-0.4 0.53333,-0.75 0.9,-1.05c0.26667,-0.63333 0.65,-1.2 1.15,-1.7c0.93333,-0.9 1.81667,-1.85 2.65,-2.85c0.06667,-0.1 0.13333,-0.2 0.2,-0.3c0.03333,-0.06667 0.06667,-0.15 0.1,-0.25c0.06667,-0.06667 0.11667,-0.15 0.15,-0.25c0.43333,-0.4 0.83333,-0.81667 1.2,-1.25c0.76667,-0.86667 1.46667,-1.78333 2.1,-2.75c-0.53333,-0.76667 -1.18333,-1.48333 -1.95,-2.15c-1.06667,-0.86667 -2.13333,-1.66667 -3.2,-2.4c-0.1,0.16667 -0.18333,0.33333 -0.25,0.5c-0.13333,0.3 -0.26667,0.56667 -0.4,0.8z" fill="#000000"/><path d="M641.55811,349.28784c0.76667,0.66667 1.41667,1.38333 1.95,2.15c-0.63333,0.96667 -1.33333,1.88333 -2.1,2.75c-0.36667,0.43333 -0.76667,0.85 -1.2,1.25c-0.03333,0.1 -0.08333,0.18333 -0.15,0.25c-0.03333,0.1 -0.06667,0.18333 -0.1,0.25c-0.06667,0.1 -0.13333,0.2 -0.2,0.3c-0.83333,1 -1.71667,1.95 -2.65,2.85c-0.5,0.5 -0.88333,1.06667 -1.15,1.7c-0.36667,0.3 -0.66667,0.65 -0.9,1.05c-0.13333,0.2 -0.26667,0.38333 -0.4,0.55c-0.16667,0.2 -0.33333,0.38333 -0.5,0.55c-0.06667,0.1 -0.11667,0.18333 -0.15,0.25c-0.03333,0.1 -0.08333,0.18333 -0.15,0.25c-0.03333,0.1 -0.08333,0.2 -0.15,0.3c-0.16667,0.16667 -0.35,0.35 -0.55,0.55c-0.33333,0.33333 -0.68333,0.68333 -1.05,1.05c-0.2,0.23333 -0.35,0.5 -0.45,0.8c-0.1,0.1 -0.18333,0.2 -0.25,0.3c-0.1,0.06667 -0.18333,0.15 -0.25,0.25c-0.1,0.1 -0.16667,0.18333 -0.2,0.25c-0.06667,0.1 -0.13333,0.2 -0.2,0.3c-0.06667,0.06667 -0.11667,0.15 -0.15,0.25c-0.03333,0.16667 -0.08333,0.35 -0.15,0.55c-0.06667,0.33333 -0.08333,0.68333 -0.05,1.05c0.03333,0.16667 0.06667,0.35 0.1,0.55c0,0.06667 0.01667,0.15 0.05,0.25c-0.33333,0.36667 -0.58333,0.85 -0.75,1.45c0,0.06667 0,0.15 0,0.25c0,0.1 0,0.18333 0,0.25c0,0.1 0,0.2 0,0.3c0,0.06667 0,0.15 0,0.25c0,0.1 0.01667,0.2 0.05,0.3c0.2,0.56667 0.46667,1.1 0.8,1.6c0.2,0.3 0.45,0.56667 0.75,0.8c0.4,0.73333 0.85,1.43333 1.35,2.1c0.5,0.7 0.96667,1.41667 1.4,2.15c0.1,0.1 0.18333,0.2 0.25,0.3c0.4,0.36667 0.7,0.8 0.9,1.3c0.1,0.2 0.2,0.38333 0.3,0.55c0.46667,0.5 0.9,1.01667 1.3,1.55c0.23333,0.3 0.48333,0.6 0.75,0.9c0.03333,0.06667 0.08333,0.15 0.15,0.25c0.03333,0.1 0.06667,0.18333 0.1,0.25c0.06667,0.1 0.13333,0.2 0.2,0.3c0.43333,0.43333 0.86667,0.88333 1.3,1.35c0.36667,0.4 0.78333,0.75 1.25,1.05c0.06667,0.06667 0.13333,0.15 0.2,0.25c0.3,0.4 0.61667,0.76667 0.95,1.1c0.2,0.16667 0.38333,0.33333 0.55,0.5c0.4,0.63333 0.76667,1.25 1.1,1.85c0.3,0.5 0.61667,0.96667 0.95,1.4c-0.4,0.63333 -0.8,1.25 -1.2,1.85c-0.33333,0.5 -0.73333,0.95 -1.2,1.35c-0.06667,0.1 -0.11667,0.18333 -0.15,0.25c-0.03333,0.1 -0.08333,0.18333 -0.15,0.25c-0.03333,0.1 -0.08333,0.2 -0.15,0.3c-0.06667,0.1 -0.15,0.18333 -0.25,0.25c-0.4,0.4 -0.76667,0.83333 -1.1,1.3c-0.1,0.16667 -0.25,0.3 -0.45,0.4c-0.13333,-0.13333 -0.28333,-0.26667 -0.45,-0.4c-0.1,-0.1 -0.2,-0.21667 -0.3,-0.35c-0.03333,-0.06667 -0.06667,-0.13333 -0.1,-0.2c-0.26667,-0.73333 -0.63333,-1.38333 -1.1,-1.95c-0.33333,-0.46667 -0.71667,-0.9 -1.15,-1.3c-0.1,-0.16667 -0.2,-0.33333 -0.3,-0.5c-0.13333,-0.2 -0.26667,-0.38333 -0.4,-0.55c-0.1,-0.1 -0.2,-0.2 -0.3,-0.3c-0.03333,-0.06667 -0.05,-0.15 -0.05,-0.25c-0.1,-0.36667 -0.3,-0.71667 -0.6,-1.05c-0.16667,-0.2 -0.33333,-0.38333 -0.5,-0.55c-0.2,-0.53333 -0.51667,-0.98333 -0.95,-1.35c-0.3,-0.26667 -0.58333,-0.53333 -0.85,-0.8c-0.5,-1.1 -1.13333,-2.13333 -1.9,-3.1c-1.1,-1.36667 -2.18333,-2.73333 -3.25,-4.1c-0.1,-0.2 -0.2,-0.38333 -0.3,-0.55c-0.13333,-0.2 -0.28333,-0.38333 -0.45,-0.55c-0.06667,-0.1 -0.15,-0.18333 -0.25,-0.25c-0.4,-0.26667 -0.83333,-0.5 -1.3,-0.7c-0.33333,-0.16667 -0.7,-0.3 -1.1,-0.4c-0.66667,0.06667 -1.25,0.3 -1.75,0.7c-0.36667,0.26667 -0.68333,0.6 -0.95,1c-0.2,2.4 -0.26667,4.81667 -0.2,7.25c0.03333,2.76667 0.05,5.53333 0.05,8.3c0.06667,0.16667 0.11667,0.35 0.15,0.55c0.03333,0.06667 0.06667,0.15 0.1,0.25c0.03333,0.1 0.06667,0.18333 0.1,0.25c0,0.26667 0,0.53333 0,0.8c0,0.46667 0,0.91667 0,1.35c0,0.2 0,0.38333 0,0.55c-2.26667,0.63333 -4.55,0.75 -6.85,0.35c0,-1.56667 0.03333,-3.13333 0.1,-4.7c0.06667,-1.53333 -0.11667,-2.96667 -0.55,-4.3c0,-1.16667 0,-2.33333 0,-3.5c0,-0.9 0,-1.78333 0,-2.65c-0.06667,-0.2 -0.13333,-0.38333 -0.2,-0.55c-0.03333,-0.1 -0.06667,-0.2 -0.1,-0.3c-0.03333,-0.06667 -0.06667,-0.15 -0.1,-0.25c0,-2.06667 0,-4.11667 0,-6.15c0.03333,-2.23333 0.03333,-4.46667 0,-6.7c-0.03333,-0.16667 -0.08333,-0.35 -0.15,-0.55c-0.03333,-0.06667 -0.06667,-0.15 -0.1,-0.25c-0.03333,-0.1 -0.06667,-0.18333 -0.1,-0.25c0,-1.43333 0,-2.86667 0,-4.3c0,-1.36667 -0.05,-2.71667 -0.15,-4.05c0.06667,-0.16667 0.11667,-0.33333 0.15,-0.5c0.03333,-0.1 0.06667,-0.2 0.1,-0.3c0.03333,-0.06667 0.06667,-0.15 0.1,-0.25c0,-2.76667 -0.05,-5.53333 -0.15,-8.3c-0.1,-2.56667 -0.2,-5.13333 -0.3,-7.7c2.36667,-0.03333 4.75,-0.11667 7.15,-0.25c0,0.43333 0,0.85 0,1.25c0,0.9 0,1.8 0,2.7c0,0.43333 0,0.86667 0,1.3c0.03333,0.1 0.06667,0.2 0.1,0.3c0,0.06667 0.01667,0.15 0.05,0.25c0.03333,0.1 0.06667,0.2 0.1,0.3c0.03333,0.06667 0.06667,0.15 0.1,0.25c0,0.43333 0,0.88333 0,1.35c-0.03333,0.53333 0.03333,1.05 0.2,1.55c0.06667,0.26667 0.11667,0.55 0.15,0.85c0,0.1 0,0.18333 0,0.25c0,0.1 0,0.2 0,0.3c0,0.06667 0,0.15 0,0.25c0,0.1 0,0.18333 0,0.25c0,0.1 0,0.2 0,0.3c0.03333,0.06667 0.06667,0.15 0.1,0.25c0.03333,0.1 0.06667,0.18333 0.1,0.25c0.03333,0.1 0.05,0.2 0.05,0.3c0.03333,0.06667 0.06667,0.15 0.1,0.25c0,0.36667 0,0.71667 0,1.05c0,0.93333 0.03333,1.83333 0.1,2.7c0.03333,0.46667 0.11667,0.91667 0.25,1.35c0,0.1 0,0.18333 0,0.25c0,0.1 0,0.2 0,0.3c0,0.06667 0,0.15 0,0.25c0,0.1 0,0.18333 0,0.25c0,0.1 0,0.2 0,0.3c0.13333,0.63333 0.45,1.15 0.95,1.55c0.56667,0.53333 1.23333,0.81667 2,0.85c1.73333,-0.16667 2.96667,-1.01667 3.7,-2.55c0.46667,-0.96667 0.88333,-2 1.25,-3.1c0.06667,-0.06667 0.15,-0.15 0.25,-0.25c0.1,-0.1 0.18333,-0.18333 0.25,-0.25c0.1,-0.2 0.2,-0.38333 0.3,-0.55c0.06667,-0.16667 0.13333,-0.35 0.2,-0.55c0.06667,-0.16667 0.13333,-0.33333 0.2,-0.5c0,-0.1 0.03333,-0.2 0.1,-0.3c0.2,-0.16667 0.36667,-0.35 0.5,-0.55c0.36667,-0.6 0.71667,-1.2 1.05,-1.8c0.23333,-0.43333 0.51667,-0.8 0.85,-1.1c0.06667,-0.1 0.13333,-0.2 0.2,-0.3c0.03333,-0.1 0.06667,-0.18333 0.1,-0.25c0.06667,-0.1 0.11667,-0.2 0.15,-0.3c0.03333,-0.06667 0.06667,-0.15 0.1,-0.25c0.03333,-0.1 0.06667,-0.18333 0.1,-0.25c0.16667,-0.2 0.35,-0.38333 0.55,-0.55c0.6,-0.6 1.11667,-1.28333 1.55,-2.05c0.2,-0.36667 0.4,-0.75 0.6,-1.15c0.33333,-0.33333 0.61667,-0.7 0.85,-1.1c0.13333,-0.23333 0.26667,-0.5 0.4,-0.8c0.06667,-0.16667 0.15,-0.33333 0.25,-0.5c1.06667,0.73333 2.13333,1.53333 3.2,2.4z" fill="#ffffff"/></g></g></svg>