<svg version="1.1" xmlns="http://www.w3.org/2000/svg" xmlns:xlink="http://www.w3.org/1999/xlink" width="40.03368" height="62.26958" viewBox="0,0,40.03368,62.26958"><g transform="translate(-615.42946,-339.37926)"><g data-paper-data="{&quot;isPaintingLayer&quot;:true}" fill-rule="nonzero" stroke="none" stroke-width="1" stroke-linecap="round" stroke-linejoin="miter" stroke-miterlimit="4" stroke-dasharray="" stroke-dashoffset="0" style="mix-blend-mode: normal"><path d="M649.4455,344.39051c2.66667,2.36667 4.2,4.81667 4.6,7.35c1,2.6 1.4,5.35 1.2,8.25c-0.23333,2.9 -1.03333,5.56667 -2.4,8c-0.43333,0.8 -0.66667,1.38333 -0.7,1.75c-0.03333,0.4 0.08333,0.86667 0.35,1.4c0.06667,0.13333 0.35,0.55 0.85,1.25c2,2.96667 2.58333,6.83333 1.75,11.6c-0.7,3.93333 -2.13333,7.31667 -4.3,10.15c-2.33333,3.16667 -5.26667,5.33333 -8.8,6.5c-2.23333,0.73333 -5.36667,1.06667 -9.4,1c-5.73333,0 -9.98333,-1 -12.75,-3c-1.96667,-1.43333 -3.3,-3.26667 -4,-5.5c-0.7,-2.4 -0.51667,-4.65 0.55,-6.75c0.31823,-0.65234 0.6849,-1.16901 1.1,-1.55c0.43333,-0.86667 1.13333,-1.56667 2.1,-2.1c0.9,-0.5 1.9,-0.78333 3,-0.85c1.16667,-0.06667 3.2,0.23333 6.1,0.9c2.56667,0.56667 4.6,0.65 6.1,0.25c0.7,-0.2 1.11667,-0.51667 1.25,-0.95c0.06667,-0.3 -0.03333,-0.66667 -0.3,-1.1c-0.56667,-0.96667 -1.36667,-1.68333 -2.4,-2.15c-0.4,-0.16667 -0.96667,-0.36667 -1.7,-0.6c-0.83333,-0.23333 -1.41667,-0.41667 -1.75,-0.55c-1.26667,-0.53333 -2.26667,-1.46667 -3,-2.8c-0.73333,-1.33333 -0.98333,-2.68333 -0.75,-4.05c0.33333,-1.76667 1.45,-3.6 3.35,-5.5c1.06667,-1 1.85,-1.76667 2.35,-2.3c0.9,-0.9 1.6,-1.73333 2.1,-2.5l-9.5,4.4c-1.5,0.66667 -2.65,0.88333 -3.45,0.65c-1.06667,-0.33333 -1.9,-1.38333 -2.5,-3.15c-0.73333,-2.46667 -0.85,-5.4 -0.35,-8.8c0.14779,-1.18203 0.41445,-2.1487 0.8,-2.9c0.22708,-0.75664 0.64375,-1.55664 1.25,-2.4c2.06667,-2.93333 5.4,-5.36667 10,-7.3c2.6,-1.06667 4.88333,-1.61667 6.85,-1.65c2.53333,-0.1 5.05,0.46667 7.55,1.7c1.7,0.86667 3.31667,1.96667 4.85,3.3M624.3955,351.84051c-0.13333,0.36667 -0.33333,0.91667 -0.6,1.65c-0.0819,0.19453 -0.1819,0.3612 -0.3,0.5c-0.07044,0.64909 -0.18711,1.39909 -0.35,2.25c-0.16667,1.4 -0.13333,2.56667 0.1,3.5c5.26667,-2.7 9.35,-4.55 12.25,-5.55c1.8,-0.63333 3.13333,-0.66667 4,-0.1c0.83333,0.5 1.28333,1.3 1.35,2.4c0.1,0.8 -0.03333,1.73333 -0.4,2.8c-0.93333,2.83333 -2.51667,5.4 -4.75,7.7c-0.43333,0.46667 -1.1,1.13333 -2,2c-0.8,0.76667 -1.4,1.46667 -1.8,2.1c-0.2,0.36667 -0.26667,0.65 -0.2,0.85c0.13333,0.3 0.43333,0.48333 0.9,0.55c3.76667,0.86667 6.43333,2.66667 8,5.4c0.83333,1.5 1.15,3.1 0.95,4.8c-0.16667,1.8 -0.85,3.23333 -2.05,4.3c-1.33333,1.1 -3.06667,1.73333 -5.2,1.9c-1.73333,0.13333 -3.6,0.01667 -5.6,-0.35l-3.75,-0.85c-0.96667,-0.2 -1.66667,-0.21667 -2.1,-0.05c-0.33737,0.12044 -0.75404,0.37044 -1.25,0.75c-0.33333,1.1 -0.5,1.88333 -0.5,2.35c0.03333,1.03333 0.53333,1.96667 1.5,2.8c0.10495,0.07995 0.20495,0.14661 0.3,0.2c0.68997,0.45495 1.57331,0.83828 2.65,1.15c2.1,0.6 4.98333,0.86667 8.65,0.8c2.63333,-0.06667 4.65,-0.33333 6.05,-0.8c2.43333,-0.76667 4.51667,-2.35 6.25,-4.75c1.46667,-2.06667 2.46667,-4.51667 3,-7.35c0.43333,-2.1 0.43333,-3.86667 0,-5.3c-0.16667,-0.56667 -0.85,-1.96667 -2.05,-4.2c-0.9,-1.66667 -1.26667,-3.08333 -1.1,-4.25c0.1,-0.56667 0.33333,-1.23333 0.7,-2c0.43333,-0.83333 0.75,-1.46667 0.95,-1.9c1.2,-2.3 1.75,-4.78333 1.65,-7.45c-0.06667,-2.7 -0.78333,-5.15 -2.15,-7.35c-1.3,-1.33333 -2.33333,-2.3 -3.1,-2.9c-1.23333,-1 -2.45,-1.7 -3.65,-2.1c-2.06667,-0.7 -4.33333,-0.68333 -6.8,0.05c-1.73333,0.5 -3.8,1.51667 -6.2,3.05c-1.7,1.2 -2.81667,2.33333 -3.35,3.4z" fill="#000000"/><path d="M640.7455,345.34051c1.2,0.4 2.41667,1.1 3.65,2.1c0.76667,0.6 1.8,1.56667 3.1,2.9c1.36667,2.2 2.08333,4.65 2.15,7.35c0.1,2.66667 -0.45,5.15 -1.65,7.45c-0.2,0.43333 -0.51667,1.06667 -0.95,1.9c-0.36667,0.76667 -0.6,1.43333 -0.7,2c-0.16667,1.16667 0.2,2.58333 1.1,4.25c1.2,2.23333 1.88333,3.63333 2.05,4.2c0.43333,1.43333 0.43333,3.2 0,5.3c-0.53333,2.83333 -1.53333,5.28333 -3,7.35c-1.73333,2.4 -3.81667,3.98333 -6.25,4.75c-1.4,0.46667 -3.41667,0.73333 -6.05,0.8c-3.66667,0.06667 -6.55,-0.2 -8.65,-0.8c-1.07669,-0.31172 -1.96003,-0.69505 -2.65,-1.15c-0.09505,-0.05339 -0.19505,-0.12005 -0.3,-0.2c-0.96667,-0.83333 -1.46667,-1.76667 -1.5,-2.8c0,-0.46667 0.16667,-1.25 0.5,-2.35c0.49596,-0.37956 0.91263,-0.62956 1.25,-0.75c0.43333,-0.16667 1.13333,-0.15 2.1,0.05l3.75,0.85c2,0.36667 3.86667,0.48333 5.6,0.35c2.13333,-0.16667 3.86667,-0.8 5.2,-1.9c1.2,-1.06667 1.88333,-2.5 2.05,-4.3c0.2,-1.7 -0.11667,-3.3 -0.95,-4.8c-1.56667,-2.73333 -4.23333,-4.53333 -8,-5.4c-0.46667,-0.06667 -0.76667,-0.25 -0.9,-0.55c-0.06667,-0.2 0,-0.48333 0.2,-0.85c0.4,-0.63333 1,-1.33333 1.8,-2.1c0.9,-0.86667 1.56667,-1.53333 2,-2c2.23333,-2.3 3.81667,-4.86667 4.75,-7.7c0.36667,-1.06667 0.5,-2 0.4,-2.8c-0.06667,-1.1 -0.51667,-1.9 -1.35,-2.4c-0.86667,-0.56667 -2.2,-0.53333 -4,0.1c-2.9,1 -6.98333,2.85 -12.25,5.55c-0.23333,-0.93333 -0.26667,-2.1 -0.1,-3.5c0.16289,-0.85091 0.27956,-1.60091 0.35,-2.25c0.1181,-0.1388 0.2181,-0.30547 0.3,-0.5c0.26667,-0.73333 0.46667,-1.28333 0.6,-1.65c0.53333,-1.06667 1.65,-2.2 3.35,-3.4c2.4,-1.53333 4.46667,-2.55 6.2,-3.05c2.46667,-0.73333 4.73333,-0.75 6.8,-0.05z" fill="#ffffff"/></g></g></svg>