<svg version="1.1" xmlns="http://www.w3.org/2000/svg" xmlns:xlink="http://www.w3.org/1999/xlink" width="606.7" height="155.35" viewBox="0,0,606.7,155.35"><g transform="translate(-339.10586,-283.45631)"><g data-paper-data="{&quot;isPaintingLayer&quot;:true}" fill-rule="nonzero" stroke="none" stroke-width="1" stroke-linecap="butt" stroke-linejoin="miter" stroke-miterlimit="10" stroke-dasharray="" stroke-dashoffset="0" style="mix-blend-mode: normal"><path d="M366.20586,301.65631c0.83333,-0.36667 1.66667,-0.71667 2.5,-1.05c0.36667,-0.36667 0.73333,-0.73333 1.1,-1.1c0.33333,-0.23333 0.68333,-0.48333 1.05,-0.75c0.13333,-0.1 0.25,-0.2 0.35,-0.3c0.6,-0.23333 1.2,-0.46667 1.8,-0.7c0.36667,-0.36667 0.71667,-0.73333 1.05,-1.1c0.36667,-0.23333 0.71667,-0.48333 1.05,-0.75c0.13333,-0.1 0.26667,-0.2 0.4,-0.3c0.6,-0.23333 1.2,-0.48333 1.8,-0.75c0.33333,-0.23333 0.68333,-0.46667 1.05,-0.7c0.6,-0.23333 1.2,-0.46667 1.8,-0.7c0.36667,-0.23333 0.71667,-0.46667 1.05,-0.7c0.6,-0.13333 1.2,-0.26667 1.8,-0.4c0.6,-0.23333 1.2,-0.45 1.8,-0.65c0.83333,-0.26667 1.65,-0.53333 2.45,-0.8c0.63333,-0.2 1.23333,-0.41667 1.8,-0.65c0.83333,-0.13333 1.66667,-0.31667 2.5,-0.55v-0.2c4.3,0 8.6,0.03333 12.9,0.1c4.73333,0.06667 9.48333,0.15 14.25,0.25c0.6,0.26667 1.2,0.51667 1.8,0.75c0.36667,0.23333 0.71667,0.46667 1.05,0.7c0.96667,0.13333 1.93333,0.25 2.9,0.35c0.56667,0.23333 1.15,0.46667 1.75,0.7c0.36667,0.26667 0.73333,0.51667 1.1,0.75c0.46667,0.1 0.93333,0.21667 1.4,0.35c0.6,0.23333 1.2,0.46667 1.8,0.7c0.36667,0.36667 0.71667,0.73333 1.05,1.1c0.36667,0.33333 0.73333,0.68333 1.1,1.05c0.40417,0.21172 0.80417,0.41172 1.2,0.6c0.07643,-0.07721 0.1431,-0.16055 0.2,-0.25c0.36667,-0.23333 0.71667,-0.48333 1.05,-0.75c0.13333,-0.1 0.26667,-0.2 0.4,-0.3c0.6,-0.23333 1.2,-0.48333 1.8,-0.75c0.33333,-0.23333 0.68333,-0.46667 1.05,-0.7c0.6,-0.23333 1.2,-0.46667 1.8,-0.7c0.33333,-0.23333 0.68333,-0.46667 1.05,-0.7c0.6,-0.26667 1.2,-0.51667 1.8,-0.75c0.36667,-0.23333 0.71667,-0.46667 1.05,-0.7c0.6,-0.13333 1.2,-0.25 1.8,-0.35c7.63333,0 15.25,0 22.85,0c0.73333,0.23333 1.45,0.46667 2.15,0.7c1.66667,0.23333 3.33333,0.46667 5,0.7c0.7,0.26667 1.41667,0.48333 2.15,0.65c1.2,0.3 2.38333,0.6 3.55,0.9c0.73333,0.16667 1.45,0.36667 2.15,0.6c0.36667,0.23333 0.73333,0.48333 1.1,0.75c0.56667,0.23333 1.15,0.45 1.75,0.65c0.73333,0.26667 1.45,0.51667 2.15,0.75c0.73333,0.23333 1.45,0.46667 2.15,0.7c0.36667,0.26667 0.71667,0.51667 1.05,0.75c0.6,0.23333 1.2,0.45 1.8,0.65c0.73333,0.26667 1.45,0.51667 2.15,0.75c0.7,0.23333 1.41667,0.48333 2.15,0.75c0.23333,0.23333 0.46667,0.46667 0.7,0.7c0.73333,0.23333 1.45,0.46667 2.15,0.7c0.23333,0.23333 0.46667,0.46667 0.7,0.7c0.73333,0.26667 1.45,0.51667 2.15,0.75c0.36667,0.23333 0.71667,0.46667 1.05,0.7c0.6,0.23333 1.2,0.46667 1.8,0.7c0.73333,0.23333 1.45,0.48333 2.15,0.75c0.7,0.23333 1.41667,0.46667 2.15,0.7c0.36667,0.23333 0.71667,0.46667 1.05,0.7c0.6,0.23333 1.2,0.46667 1.8,0.7c0.83333,0 1.66667,0 2.5,0c0,-0.33333 0,-0.68333 0,-1.05c0,-0.36667 0,-0.71667 0,-1.05c0,-0.36667 0,-0.73333 0,-1.1c0.13333,-0.36667 0.25,-0.71667 0.35,-1.05c0.23333,-0.36667 0.46667,-0.73333 0.7,-1.1c0.13333,-0.33333 0.26667,-0.68333 0.4,-1.05c0,-0.36667 0,-0.73333 0,-1.1c0.1,-0.33333 0.21667,-0.68333 0.35,-1.05c0.23333,-0.36667 0.46667,-0.71667 0.7,-1.05c0.13333,-0.36667 0.25,-0.73333 0.35,-1.1c0.23333,-0.36667 0.46667,-0.71667 0.7,-1.05c0.26667,-0.36667 0.51667,-0.73333 0.75,-1.1c0.33333,-0.33333 0.68333,-0.68333 1.05,-1.05c0.36667,-0.23333 0.73333,-0.46667 1.1,-0.7c0.56667,-0.13333 1.15,-0.26667 1.75,-0.4c8.1,0 16.2,0 24.3,0c0.7,0.26667 1.41667,0.51667 2.15,0.75c4.03333,0.23333 8.08333,0.46667 12.15,0.7c0.7,0.23333 1.41667,0.46667 2.15,0.7c2.6,0.23333 5.21667,0.48333 7.85,0.75c0.7,0.23333 1.4,0.46667 2.1,0.7c6.93333,0.23333 13.85,0.46667 20.75,0.7c0.7,0.23333 1.41667,0.46667 2.15,0.7c5,0.26667 10,0.51667 15,0.75c0.7,0.23333 1.4,0.46667 2.1,0.7c0.36667,0.36667 0.73333,0.71667 1.1,1.05c0.1,0.36667 0.21667,0.73333 0.35,1.1c0.13333,0.36667 0.25,0.71667 0.35,1.05c0.23333,0.36667 0.46667,0.73333 0.7,1.1c0.26667,0.33333 0.51667,0.68333 0.75,1.05c0,0.36667 0,0.73333 0,1.1c0,0.33333 0,0.68333 0,1.05c0.1,0.36667 0.21667,0.71667 0.35,1.05c0.23333,0.36667 0.46667,0.73333 0.7,1.1c0.13333,0.36667 0.25,0.71667 0.35,1.05c0.23333,0.13333 0.48333,0.25 0.75,0.35c0.33333,-0.23333 0.68333,-0.46667 1.05,-0.7c0.36667,-0.23333 0.71667,-0.46667 1.05,-0.7c0.6,-0.23333 1.2,-0.46667 1.8,-0.7c0.36667,-0.26667 0.73333,-0.51667 1.1,-0.75c0.56667,-0.1 1.15,-0.21667 1.75,-0.35c0.6,-0.23333 1.2,-0.45 1.8,-0.65c0.83333,-0.26667 1.66667,-0.51667 2.5,-0.75c1.9,0 3.8,0 5.7,0c0.73333,0.23333 1.45,0.46667 2.15,0.7c0.36667,0.23333 0.71667,0.46667 1.05,0.7c0.6,0.23333 1.2,0.46667 1.8,0.7c0.36667,0.36667 0.73333,0.73333 1.1,1.1c0.46667,0.36667 0.93333,0.71667 1.4,1.05c0.46667,0.36667 0.95,0.73333 1.45,1.1c0.33333,0.33333 0.68333,0.68333 1.05,1.05c0.36667,0.36667 0.73333,0.73333 1.1,1.1c0.33333,0.33333 0.68333,0.68333 1.05,1.05c0.36667,0.13333 0.71667,0.25 1.05,0.35c0.36667,-0.23333 0.73333,-0.46667 1.1,-0.7c0.36667,-0.36667 0.71667,-0.73333 1.05,-1.1c0.36667,-0.33333 0.73333,-0.68333 1.1,-1.05c0.33333,-0.36667 0.68333,-0.71667 1.05,-1.05c0.83333,-0.36667 1.66667,-0.73333 2.5,-1.1c0.36667,-0.36667 0.73333,-0.71667 1.1,-1.05c0.33333,-0.23333 0.68333,-0.48333 1.05,-0.75c0.13333,-0.1 0.25,-0.21667 0.35,-0.35c0.6,-0.23333 1.2,-0.46667 1.8,-0.7c0.36667,-0.23333 0.71667,-0.46667 1.05,-0.7c0.6,-0.23333 1.2,-0.48333 1.8,-0.75c0.36667,-0.23333 0.71667,-0.46667 1.05,-0.7c0.6,-0.1 1.2,-0.21667 1.8,-0.35c0.6,-0.23333 1.2,-0.48333 1.8,-0.75c0.83333,-0.33333 1.66667,-0.68333 2.5,-1.05c0.36667,-0.23333 0.71667,-0.46667 1.05,-0.7c0.6,-0.23333 1.2,-0.46667 1.8,-0.7c0.36667,-0.23333 0.71667,-0.48333 1.05,-0.75c0.6,-0.23333 1.2,-0.46667 1.8,-0.7c0.36667,-0.23333 0.73333,-0.46667 1.1,-0.7c0.56667,-0.13333 1.15,-0.25 1.75,-0.35c0.6,-0.23333 1.2,-0.46667 1.8,-0.7c0.7,-0.26667 1.41667,-0.5 2.15,-0.7c0.6,-0.13333 1.2,-0.26667 1.8,-0.4c4.73333,0 9.48333,0 14.25,0c0.73333,0.23333 1.45,0.46667 2.15,0.7c2.13333,0.23333 4.28333,0.48333 6.45,0.75c0.7,0.23333 1.4,0.46667 2.1,0.7c0.36667,0.23333 0.73333,0.46667 1.1,0.7c0.6,0.23333 1.2,0.46667 1.8,0.7c0.46667,0.36667 0.93333,0.73333 1.4,1.1c0.23333,0.23333 0.46667,0.46667 0.7,0.7c0.13333,0.13333 0.26667,0.23333 0.4,0.3c0.56667,0.26667 1.15,0.53333 1.75,0.8c0.5,0.33333 0.98333,0.68333 1.45,1.05c0.23333,0.23333 0.46667,0.46667 0.7,0.7c0.13333,0.13333 0.26667,0.23333 0.4,0.3c0.56667,0.3 1.15,0.56667 1.75,0.8c0.46667,0.33333 0.95,0.68333 1.45,1.05c0.23333,0.23333 0.46667,0.46667 0.7,0.7c0.1,0.13333 0.23333,0.23333 0.4,0.3c0.56667,0.3 1.15,0.56667 1.75,0.8c0.46667,0.36667 0.93333,0.71667 1.4,1.05c0.36667,0.36667 0.73333,0.73333 1.1,1.1c0.33333,0.33333 0.68333,0.68333 1.05,1.05c0.73333,0.23333 1.45,0.46667 2.15,0.7c0.23333,-0.1 0.46667,-0.21667 0.7,-0.35c0,-0.33333 0,-0.68333 0,-1.05c0,-0.36667 0,-0.73333 0,-1.1c0,-0.33333 0,-0.68333 0,-1.05c0,-0.36667 0,-0.71667 0,-1.05c0,-0.36667 0,-0.73333 0,-1.1c0.13333,-0.36667 0.25,-0.71667 0.35,-1.05c0.36667,-0.36667 0.73333,-0.73333 1.1,-1.1c0.36667,-0.33333 0.71667,-0.68333 1.05,-1.05c0.23333,-0.23333 0.48333,-0.46667 0.75,-0.7c0.23333,-0.13333 0.46667,-0.26667 0.7,-0.4c0.6,-0.1 1.2,-0.2 1.8,-0.3c1.53333,-0.26667 3.06667,-0.55 4.6,-0.85c0.83333,-0.16667 1.66667,-0.36667 2.5,-0.6c1.56667,-0.23333 3.11667,-0.48333 4.65,-0.75c0.83333,-0.23333 1.66667,-0.46667 2.5,-0.7c2.03333,-0.23333 4.06667,-0.46667 6.1,-0.7c0.83333,-0.23333 1.66667,-0.46667 2.5,-0.7c1.06667,-0.26667 2.13333,-0.53333 3.2,-0.8c0.83333,-0.2 1.66667,-0.41667 2.5,-0.65c2.03333,-0.23333 4.05,-0.46667 6.05,-0.7c0.83333,-0.23333 1.66667,-0.48333 2.5,-0.75c2.03333,-0.23333 4.06667,-0.46667 6.1,-0.7c0.83333,-0.23333 1.66667,-0.46667 2.5,-0.7c13.43333,-0.23333 26.88333,-0.46667 40.35,-0.7c0.83333,-0.26667 1.66667,-0.51667 2.5,-0.75c3.43333,-0.23333 6.88333,-0.46667 10.35,-0.7c0.83333,-0.23333 1.66667,-0.46667 2.5,-0.7c2.96667,-0.23333 5.93333,-0.5 8.9,-0.8c0.83333,-0.06667 1.66667,-0.21667 2.5,-0.45v-0.2c0.5,0 0.98333,0 1.45,0c0.7,0.23333 1.41667,0.46667 2.15,0.7c0.36667,0.36667 0.71667,0.73333 1.05,1.1c0.23333,0.36667 0.48333,0.71667 0.75,1.05c0.1,0.36667 0.21667,0.73333 0.35,1.1c-0.0224,0.96042 -0.03906,1.91042 -0.05,2.85h0.05c0.33333,-0.36667 0.68333,-0.73333 1.05,-1.1c0.23333,-0.23333 0.46667,-0.46667 0.7,-0.7c0.26667,-0.1 0.51667,-0.21667 0.75,-0.35c0.6,-0.23333 1.18333,-0.46667 1.75,-0.7c0.36667,-0.36667 0.73333,-0.73333 1.1,-1.1c0.23333,-0.23333 0.46667,-0.46667 0.7,-0.7c0.23333,-0.13333 0.48333,-0.25 0.75,-0.35c0.56667,-0.23333 1.15,-0.46667 1.75,-0.7c0.36667,-0.26667 0.73333,-0.51667 1.1,-0.75c0.56667,-0.1 1.15,-0.21667 1.75,-0.35c0.6,-0.23333 1.2,-0.45 1.8,-0.65c0.83333,-0.26667 1.66667,-0.55 2.5,-0.85c0.6,-0.2 1.2,-0.4 1.8,-0.6c0.83333,-0.26667 1.65,-0.53333 2.45,-0.8c0.63333,-0.2 1.25,-0.4 1.85,-0.6c0.8,-0.26667 1.63333,-0.5 2.5,-0.7c1.53333,-0.3 3.06667,-0.6 4.6,-0.9c0.83333,-0.16667 1.66667,-0.36667 2.5,-0.6c3.83333,0 7.65,0 11.45,0c0.7,0.23333 1.41667,0.46667 2.15,0.7c3.1,0.23333 6.18333,0.46667 9.25,0.7c0.73333,0.26667 1.46667,0.48333 2.2,0.65c1.16667,0.3 2.33333,0.6 3.5,0.9c0.73333,0.16667 1.46667,0.35 2.2,0.55c1.16667,0.26667 2.33333,0.55 3.5,0.85c0.73333,0.2 1.46667,0.41667 2.2,0.65c0.33333,0.23333 0.68333,0.46667 1.05,0.7c0.6,0.23333 1.2,0.46667 1.8,0.7c0.36667,0.26667 0.71667,0.51667 1.05,0.75c0.6,0.23333 1.2,0.46667 1.8,0.7c0.46667,0.36667 0.95,0.71667 1.45,1.05c0.33333,0.36667 0.68333,0.73333 1.05,1.1c0.36667,0.36667 0.71667,0.71667 1.05,1.05c0.36667,0.36667 0.73333,0.73333 1.1,1.1c0.23333,0.33333 0.46667,0.68333 0.7,1.05c0.23333,0.36667 0.46667,0.73333 0.7,1.1c0.13333,0.33333 0.26667,0.68333 0.4,1.05c0,0.36667 0,0.71667 0,1.05c0,0.36667 0,0.73333 0,1.1c0,0.36667 0,0.71667 0,1.05c0,0.36667 0,0.73333 0,1.1c0,0.33333 0,0.68333 0,1.05c0,0.36667 0,0.73333 0,1.1c0,0.33333 0,0.68333 0,1.05c0,1.06667 0,2.13333 0,3.2c0,1.06667 0,2.15 0,3.25c0,1.06667 0,2.13333 0,3.2c0,1.43333 0,2.85 0,4.25c0,0.73333 0,1.45 0,2.15c-0.13333,0.36667 -0.26667,0.73333 -0.4,1.1c-0.23333,0.33333 -0.46667,0.68333 -0.7,1.05c-0.1,0.36667 -0.21667,0.73333 -0.35,1.1c0,0.33333 0,0.68333 0,1.05c0,0.36667 0,0.71667 0,1.05c0,0.36667 0,0.73333 0,1.1c0,0.36667 0,0.71667 0,1.05c0,0.36667 0,0.73333 0,1.1c0,0.33333 0,0.68333 0,1.05c0,0.36667 0,0.73333 0,1.1c0,0.33333 0,0.68333 0,1.05c0,0.36667 0,0.71667 0,1.05c-0.13333,0.36667 -0.25,0.73333 -0.35,1.1c-0.13333,0.36667 -0.25,0.71667 -0.35,1.05c-0.23333,0.36667 -0.48333,0.73333 -0.75,1.1c0,0.33333 0,0.68333 0,1.05c0,0.36667 0,0.73333 0,1.1c0,0.33333 0,0.68333 0,1.05c0,0.36667 0,0.71667 0,1.05c0,0.36667 0,0.73333 0,1.1c-0.1,0.36667 -0.21667,0.71667 -0.35,1.05c-0.23333,0.36667 -0.46667,0.73333 -0.7,1.1c-0.13333,0.33333 -0.25,0.68333 -0.35,1.05c0,0.36667 0,0.73333 0,1.1c0,0.33333 0,0.68333 0,1.05c0,0.36667 0,0.71667 0,1.05c0,0.36667 0,0.73333 0,1.1c-0.23333,0.36667 -0.46667,0.71667 -0.7,1.05c-0.13333,0.36667 -0.26667,0.73333 -0.4,1.1c0.13333,0.33333 0.26667,0.68333 0.4,1.05c0.23333,0.36667 0.46667,0.73333 0.7,1.1c0.23333,0.33333 0.46667,0.68333 0.7,1.05c0.36667,0.36667 0.73333,0.71667 1.1,1.05c0.1,0.36667 0.21667,0.73333 0.35,1.1c0.23333,0.36667 0.46667,0.71667 0.7,1.05c0.23333,0.36667 0.46667,0.73333 0.7,1.1c0.36667,0.33333 0.73333,0.68333 1.1,1.05c0.33333,0.36667 0.68333,0.73333 1.05,1.1c0.23333,0.33333 0.46667,0.68333 0.7,1.05c0.13333,0.36667 0.26667,0.71667 0.4,1.05c0.23333,0.36667 0.46667,0.73333 0.7,1.1c0.1,0.36667 0.21667,0.71667 0.35,1.05c0.23333,0.36667 0.46667,0.73333 0.7,1.1c0.13333,0.33333 0.25,0.68333 0.35,1.05c0.26667,0.36667 0.51667,0.73333 0.75,1.1c0.1,0.33333 0.21667,0.68333 0.35,1.05c0.23333,0.36667 0.46667,0.71667 0.7,1.05c0.13333,0.36667 0.25,0.73333 0.35,1.1c0.13333,0.36667 0.25,0.71667 0.35,1.05c0,0.36667 0,0.73333 0,1.1c0,0.33333 0,0.68333 0,1.05c0,0.36667 0,0.73333 0,1.1c0.13333,0.33333 0.26667,0.68333 0.4,1.05c0.1,0.36667 0.21667,0.71667 0.35,1.05c0.23333,0.36667 0.46667,0.73333 0.7,1.1c0,0.36667 0,0.71667 0,1.05c0,0.36667 0,0.73333 0,1.1c0,0.33333 0,0.68333 0,1.05c0,0.36667 0,0.71667 0,1.05c0,0.36667 0,0.73333 0,1.1c0,0.36667 0,0.71667 0,1.05c0,0.36667 0,0.73333 0,1.1c0,0.33333 0,0.68333 0,1.05c-0.23333,0.36667 -0.46667,0.73333 -0.7,1.1c-0.13333,0.33333 -0.25,0.68333 -0.35,1.05c-0.13333,0.36667 -0.26667,0.71667 -0.4,1.05c0,0.36667 0,0.73333 0,1.1c0,0.36667 0,0.71667 0,1.05c0,0.36667 0,0.73333 0,1.1c0,0.33333 0,0.68333 0,1.05c0,0.36667 0,0.73333 0,1.1c-0.23333,0.33333 -0.46667,0.68333 -0.7,1.05c-0.1,0.36667 -0.21667,0.71667 -0.35,1.05c-0.13333,0.36667 -0.25,0.73333 -0.35,1.1c0,0.36667 0,0.71667 0,1.05c-0.23333,0.36667 -0.46667,0.73333 -0.7,1.1c-0.13333,0.33333 -0.26667,0.68333 -0.4,1.05c-0.33333,0.36667 -0.68333,0.73333 -1.05,1.1c-0.23333,0.33333 -0.46667,0.68333 -0.7,1.05c-0.23333,0.36667 -0.48333,0.71667 -0.75,1.05c-0.1,0.36667 -0.21667,0.73333 -0.35,1.1c-0.23333,0.36667 -0.46667,0.71667 -0.7,1.05c-0.13333,0.36667 -0.25,0.73333 -0.35,1.1c-0.23333,0.33333 -0.46667,0.68333 -0.7,1.05c-0.36667,0.36667 -0.73333,0.73333 -1.1,1.1c-0.23333,0.33333 -0.46667,0.68333 -0.7,1.05c-0.13333,0.36667 -0.25,0.71667 -0.35,1.05c-0.23333,0.36667 -0.48333,0.73333 -0.75,1.1c-0.1,0.36667 -0.21667,0.71667 -0.35,1.05c-0.23333,0.36667 -0.46667,0.73333 -0.7,1.1c-0.36667,0.33333 -0.71667,0.68333 -1.05,1.05c-0.5,0.36667 -0.98333,0.73333 -1.45,1.1c-0.13333,0.33333 -0.25,0.68333 -0.35,1.05c-0.36667,0.36667 -0.73333,0.71667 -1.1,1.05c-0.46667,0.36667 -0.93333,0.73333 -1.4,1.1c-0.73333,0.36667 -1.45,0.71667 -2.15,1.05c-0.36667,0.36667 -0.71667,0.73333 -1.05,1.1c-0.26667,0.23333 -0.51667,0.46667 -0.75,0.7c-0.23333,0.13333 -0.46667,0.25 -0.7,0.35c-0.6,0.23333 -1.2,0.46667 -1.8,0.7c-0.33333,0.26667 -0.68333,0.51667 -1.05,0.75c-0.6,0.23333 -1.2,0.46667 -1.8,0.7c-0.36667,0.23333 -0.71667,0.46667 -1.05,0.7c-0.6,0.13333 -1.2,0.28333 -1.8,0.45c-0.7,0.2 -1.41667,0.41667 -2.15,0.65c-0.7,0.33333 -1.4,0.7 -2.1,1.1c-0.36667,0.2 -0.73333,0.41667 -1.1,0.65c-0.6,0.13333 -1.18333,0.28333 -1.75,0.45c-0.73333,0.2 -1.46667,0.41667 -2.2,0.65c-0.7,0.23333 -1.4,0.46667 -2.1,0.7c-1.66667,0.23333 -3.33333,0.46667 -5,0.7c-0.73333,0.26667 -1.46667,0.48333 -2.2,0.65c-1.16667,0.3 -2.33333,0.6 -3.5,0.9c-0.73333,0.16667 -1.46667,0.36667 -2.2,0.6c-7.13333,0 -14.26667,0 -21.4,0c-0.83333,-0.23333 -1.66667,-0.45 -2.5,-0.65c-1.06667,-0.26667 -2.13333,-0.53333 -3.2,-0.8c-0.83333,-0.2 -1.68333,-0.41667 -2.55,-0.65c-1.06667,-0.26667 -2.11667,-0.53333 -3.15,-0.8c-0.86667,-0.2 -1.71667,-0.41667 -2.55,-0.65c-0.23333,-0.23333 -0.46667,-0.46667 -0.7,-0.7c-0.7,-0.26667 -1.41667,-0.51667 -2.15,-0.75c-0.6,-0.23333 -1.2,-0.45 -1.8,-0.65c-0.83333,-0.26667 -1.66667,-0.51667 -2.5,-0.75c-0.23333,-0.23333 -0.46667,-0.48333 -0.7,-0.75c-0.7,-0.23333 -1.41667,-0.46667 -2.15,-0.7c-0.23333,-0.23333 -0.46667,-0.46667 -0.7,-0.7c-0.7,-0.23333 -1.41667,-0.46667 -2.15,-0.7c-0.23333,-0.26667 -0.46667,-0.51667 -0.7,-0.75c-0.73333,-0.23333 -1.45,-0.46667 -2.15,-0.7c-0.23333,-0.23333 -0.46667,-0.46667 -0.7,-0.7c-0.73333,-0.23333 -1.45,-0.48333 -2.15,-0.75c-0.36667,-0.33333 -0.71667,-0.68333 -1.05,-1.05c-0.26667,0 -0.51667,0 -0.75,0c0,0.36667 0,0.71667 0,1.05c-0.23333,0.36667 -0.46667,0.73333 -0.7,1.1c-0.13333,0.36667 -0.25,0.71667 -0.35,1.05c-0.13333,0.36667 -0.25,0.73333 -0.35,1.1c0,0.33333 0,0.68333 0,1.05c0,0.36667 0,0.73333 0,1.1c-0.13333,0.33333 -0.25,0.68333 -0.35,1.05c-0.26667,0.36667 -0.51667,0.71667 -0.75,1.05c-0.23333,0.36667 -0.46667,0.73333 -0.7,1.1c-0.36667,0.36667 -0.71667,0.71667 -1.05,1.05c-0.36667,0.23333 -0.73333,0.48333 -1.1,0.75c-0.6,0.1 -1.2,0.21667 -1.8,0.35c-8.56667,0 -17.13333,0 -25.7,0c-0.83333,-0.23333 -1.66667,-0.48333 -2.5,-0.75c-2.96667,-0.23333 -5.93333,-0.46667 -8.9,-0.7c-0.83333,-0.23333 -1.66667,-0.46667 -2.5,-0.7c-6.56667,0 -13.11667,0 -19.65,0c-0.73333,0.23333 -1.45,0.46667 -2.15,0.7c-3.1,0.23333 -6.2,0.46667 -9.3,0.7c-0.7,0.26667 -1.41667,0.51667 -2.15,0.75c-2.6,0.23333 -5.21667,0.46667 -7.85,0.7c-0.7,0.23333 -1.41667,0.46667 -2.15,0.7c-3.33333,0 -6.66667,0 -10,0c-0.83333,-0.23333 -1.66667,-0.46667 -2.5,-0.7c-0.33333,-0.36667 -0.68333,-0.71667 -1.05,-1.05c-0.36667,-0.36667 -0.71667,-0.73333 -1.05,-1.1c-0.36667,-0.36667 -0.73333,-0.71667 -1.1,-1.05c-0.36667,-0.36667 -0.71667,-0.73333 -1.05,-1.1c-0.13333,-0.33333 -0.25,-0.68333 -0.35,-1.05c-0.13333,-0.36667 -0.26667,-0.73333 -0.4,-1.1c-0.33333,-0.33333 -0.68333,-0.68333 -1.05,-1.05c-0.36667,-0.36667 -0.71667,-0.71667 -1.05,-1.05c-0.13333,-0.36667 -0.26667,-0.73333 -0.4,-1.1c-0.1,-0.36667 -0.21667,-0.71667 -0.35,-1.05c-0.23333,-0.36667 -0.46667,-0.73333 -0.7,-1.1c-0.13333,-0.33333 -0.25,-0.68333 -0.35,-1.05c0,-0.36667 0,-0.73333 0,-1.1c-0.13333,-0.33333 -0.25,-0.68333 -0.35,-1.05c-0.23333,-0.36667 -0.48333,-0.71667 -0.75,-1.05c-0.23333,-0.36667 -0.46667,-0.73333 -0.7,-1.1c-0.23333,0.23333 -0.46667,0.46667 -0.7,0.7c-0.36667,0.36667 -0.73333,0.73333 -1.1,1.1c-0.33333,0.36667 -0.68333,0.71667 -1.05,1.05c-0.36667,0.36667 -0.71667,0.73333 -1.05,1.1c-0.36667,0.33333 -0.73333,0.68333 -1.1,1.05c-0.36667,0.36667 -0.71667,0.73333 -1.05,1.1c-0.5,0.33333 -0.98333,0.68333 -1.45,1.05c-0.7,0.36667 -1.4,0.73333 -2.1,1.1c-0.36667,0.23333 -0.73333,0.46667 -1.1,0.7c-0.6,0.23333 -1.2,0.46667 -1.8,0.7c-0.36667,0.23333 -0.71667,0.46667 -1.05,0.7c-0.6,0.23333 -1.2,0.48333 -1.8,0.75c-0.36667,0.23333 -0.71667,0.46667 -1.05,0.7c-0.6,0.1 -1.2,0.21667 -1.8,0.35c-6.66667,0 -13.33333,0 -20,0c-0.83333,-0.23333 -1.66667,-0.45 -2.5,-0.65c-1.06667,-0.26667 -2.13333,-0.53333 -3.2,-0.8c-0.83333,-0.23333 -1.66667,-0.46667 -2.5,-0.7c-0.23333,-0.23333 -0.48333,-0.46667 -0.75,-0.7c-0.7,-0.23333 -1.4,-0.48333 -2.1,-0.75c-0.6,-0.23333 -1.21667,-0.45 -1.85,-0.65c-0.8,-0.26667 -1.61667,-0.51667 -2.45,-0.75c-0.23333,-0.23333 -0.46667,-0.46667 -0.7,-0.7c-0.73333,-0.23333 -1.45,-0.48333 -2.15,-0.75c-0.23333,-0.23333 -0.48333,-0.46667 -0.75,-0.7c-0.7,-0.23333 -1.4,-0.46667 -2.1,-0.7c-0.36667,-0.36667 -0.73333,-0.73333 -1.1,-1.1c-0.36667,-0.33333 -0.71667,-0.68333 -1.05,-1.05c-0.36667,-0.23333 -0.73333,-0.46667 -1.1,-0.7c0,0.33333 0,0.68333 0,1.05c0,0.36667 0,0.73333 0,1.1c0,0.33333 0,0.68333 0,1.05c0,0.36667 0,0.71667 0,1.05c0,0.36667 0,0.73333 0,1.1c-0.1,0.36667 -0.21667,0.71667 -0.35,1.05c-0.23333,0.36667 -0.46667,0.73333 -0.7,1.1c-0.36667,0.33333 -0.73333,0.68333 -1.1,1.05c-0.7,0.23333 -1.4,0.46667 -2.1,0.7c-0.73333,0.26667 -1.45,0.51667 -2.15,0.75c-0.73333,0.23333 -1.46667,0.43333 -2.2,0.6c-1.16667,0.3 -2.33333,0.6 -3.5,0.9c-0.73333,0.16667 -1.45,0.38333 -2.15,0.65c-8.56667,0 -17.15,0 -25.75,0c-0.83333,-0.26667 -1.66667,-0.48333 -2.5,-0.65c-1.53333,-0.3 -3.06667,-0.6 -4.6,-0.9c-0.83333,-0.16667 -1.66667,-0.36667 -2.5,-0.6c-0.36667,-0.36667 -0.73333,-0.73333 -1.1,-1.1c-0.23333,-0.23333 -0.46667,-0.46667 -0.7,-0.7c-0.13333,-0.13333 -0.26667,-0.21667 -0.4,-0.25c-0.7,-0.3 -1.4,-0.56667 -2.1,-0.8c-0.36667,-0.36667 -0.73333,-0.73333 -1.1,-1.1c-0.33333,-0.36667 -0.68333,-0.71667 -1.05,-1.05c-0.36667,-0.36667 -0.71667,-0.73333 -1.05,-1.1c-0.36667,0.23333 -0.73333,0.48333 -1.1,0.75c-0.36667,0.33333 -0.71667,0.68333 -1.05,1.05c-0.73333,0.23333 -1.45,0.46667 -2.15,0.7c-3.1,0.23333 -6.2,0.48333 -9.3,0.75c-0.7,0.23333 -1.41667,0.46667 -2.15,0.7c-1.9,0 -3.8,0.03333 -5.7,0.1c-2.13333,0.03333 -4.28333,0.11667 -6.45,0.25c-0.7,0.23333 -1.4,0.46667 -2.1,0.7c-10,0 -20,0 -30,0c-0.83333,-0.23333 -1.66667,-0.46667 -2.5,-0.7c-0.13333,-0.23333 -0.25,-0.46667 -0.35,-0.7c-0.83333,-0.23333 -1.66667,-0.48333 -2.5,-0.75c-0.26667,-0.33333 -0.51667,-0.68333 -0.75,-1.05c-0.23333,-0.36667 -0.46667,-0.71667 -0.7,-1.05c0,-0.36667 0,-0.73333 0,-1.1c0,-0.36667 0,-0.71667 0,-1.05c0,-0.36667 0,-0.73333 0,-1.1c-0.23333,-0.33333 -0.46667,-0.68333 -0.7,-1.05c-0.23333,-0.36667 -0.48333,-0.73333 -0.75,-1.1c0,-0.33333 0,-0.68333 0,-1.05c0,-0.36667 0,-0.71667 0,-1.05c0,-0.36667 0,-0.73333 0,-1.1c0,-0.7 0,-1.41667 0,-2.15c0,-0.7 0,-1.41667 0,-2.15c0,-1.4 0,-2.81667 0,-4.25c0,-1.43333 0,-2.86667 0,-4.3c0,-1.76667 0,-3.55 0,-5.35c0,-2.13333 0,-4.28333 0,-6.45c0,-0.23333 0,-0.46667 0,-0.7v-0.2c-0.56667,-0.1 -1.15,-0.15 -1.75,-0.15c-0.73333,0.23333 -1.45,0.48333 -2.15,0.75c-0.83333,0.33333 -1.66667,0.68333 -2.5,1.05c-0.23333,0.23333 -0.46667,0.46667 -0.7,0.7c-0.6,0.1 -1.2,0.21667 -1.8,0.35c-1.2,0.23333 -2.4,0.46667 -3.6,0.7c-0.33333,0.36667 -0.68333,0.73333 -1.05,1.1c0,0.33333 0,0.68333 0,1.05c0,0.36667 0,0.73333 0,1.1c0,0.33333 0,0.68333 0,1.05c0,0.36667 0,0.71667 0,1.05c0,0.36667 0,0.73333 0,1.1c0.23333,0.36667 0.46667,0.71667 0.7,1.05c0.13333,0.36667 0.25,0.73333 0.35,1.1c0.13333,0.33333 0.26667,0.68333 0.4,1.05c0,0.36667 0,0.73333 0,1.1c0,0.33333 0,0.68333 0,1.05c0,0.36667 0,0.71667 0,1.05c0,0.36667 0,0.73333 0,1.1c0,0.36667 0,0.71667 0,1.05c0,0.36667 0,0.73333 0,1.1c0,0.33333 0,0.68333 0,1.05c0,0.73333 0,1.45 0,2.15c0,0.7 0,1.41667 0,2.15c0,0.7 0,1.41667 0,2.15c0,1.06667 0,2.13333 0,3.2c0,0.7 0,1.41667 0,2.15c-0.26667,0.36667 -0.51667,0.71667 -0.75,1.05c-0.23333,0.36667 -0.46667,0.73333 -0.7,1.1c-0.36667,0.33333 -0.71667,0.68333 -1.05,1.05c-0.26667,0.23333 -0.51667,0.46667 -0.75,0.7c-0.1,0.13333 -0.23333,0.23333 -0.4,0.3c-0.66667,0.3 -1.36667,0.56667 -2.1,0.8c-0.23333,0.23333 -0.46667,0.46667 -0.7,0.7c-0.6,0.13333 -1.2,0.25 -1.8,0.35c-1.66667,0.23333 -3.33333,0.48333 -5,0.75c-0.7,0.23333 -1.41667,0.46667 -2.15,0.7c-2.13333,0.23333 -4.26667,0.46667 -6.4,0.7c-0.7,0.23333 -1.41667,0.46667 -2.15,0.7c-2.6,0.26667 -5.21667,0.51667 -7.85,0.75c-0.7,0.23333 -1.41667,0.43333 -2.15,0.6c-1.2,0.3 -2.38333,0.6 -3.55,0.9c-0.73333,0.16667 -1.45,0.38333 -2.15,0.65c-1.66667,0.23333 -3.33333,0.46667 -5,0.7c-0.73333,0.23333 -1.45,0.46667 -2.15,0.7c-0.96667,0 -1.91667,0 -2.85,0c-0.83333,-0.23333 -1.66667,-0.46667 -2.5,-0.7c-0.23333,-0.36667 -0.46667,-0.73333 -0.7,-1.1c-0.5,-0.33333 -1,-0.66667 -1.5,-1c-0.56667,-0.4 -1.15,-0.76667 -1.75,-1.1c-0.33333,-0.36667 -0.68333,-0.73333 -1.05,-1.1c-0.13333,-0.36667 -0.25,-0.71667 -0.35,-1.05c-0.13333,-0.36667 -0.25,-0.73333 -0.35,-1.1c-0.36667,-0.33333 -0.73333,-0.68333 -1.1,-1.05c0,-0.36667 0,-0.73333 0,-1.1c-0.23333,-0.33333 -0.46667,-0.68333 -0.7,-1.05c-0.23333,-0.36667 -0.46667,-0.71667 -0.7,-1.05c-0.13333,-0.36667 -0.26667,-0.73333 -0.4,-1.1c-0.23333,-0.36667 -0.46667,-0.71667 -0.7,-1.05c-0.1,-0.36667 -0.21667,-0.73333 -0.35,-1.1c0,-0.33333 0,-0.68333 0,-1.05c-0.13333,-0.36667 -0.25,-0.73333 -0.35,-1.1c-0.23333,-0.33333 -0.46667,-0.68333 -0.7,-1.05c-0.13333,-0.36667 -0.26667,-0.71667 -0.4,-1.05c0,-0.36667 0,-0.73333 0,-1.1c0,-0.36667 0,-0.71667 0,-1.05c-0.23333,-0.36667 -0.46667,-0.73333 -0.7,-1.1c-0.1,-0.33333 -0.21667,-0.68333 -0.35,-1.05c0,-0.11849 0,-0.23516 0,-0.35c-0.11484,0.11484 -0.23151,0.23151 -0.35,0.35c-0.36667,0.36667 -0.73333,0.71667 -1.1,1.05c-0.1,0.36667 -0.21667,0.73333 -0.35,1.1c-0.23333,0.33333 -0.46667,0.68333 -0.7,1.05c-0.23333,0.23333 -0.46667,0.46667 -0.7,0.7c-0.13333,0.13333 -0.26667,0.23333 -0.4,0.3c-0.56667,0.3 -1.15,0.56667 -1.75,0.8c-0.36667,0.36667 -0.73333,0.71667 -1.1,1.05c-0.33333,0.36667 -0.68333,0.73333 -1.05,1.1c-0.36667,0.33333 -0.71667,0.68333 -1.05,1.05c-0.5,0.36667 -0.98333,0.73333 -1.45,1.1c-0.36667,0.33333 -0.71667,0.68333 -1.05,1.05c-0.26667,0.36667 -0.51667,0.71667 -0.75,1.05c-0.46667,0.36667 -0.93333,0.73333 -1.4,1.1c-0.36667,0.36667 -0.73333,0.71667 -1.1,1.05c-0.23333,0.36667 -0.46667,0.73333 -0.7,1.1c-0.36667,0.23333 -0.71667,0.48333 -1.05,0.75c-0.13333,0.1 -0.26667,0.2 -0.4,0.3c-0.56667,0.23333 -1.15,0.46667 -1.75,0.7c-0.36667,0.36667 -0.73333,0.73333 -1.1,1.1c-0.46667,0.36667 -0.93333,0.71667 -1.4,1.05c-0.36667,0.36667 -0.73333,0.73333 -1.1,1.1c-0.7,0.23333 -1.41667,0.46667 -2.15,0.7c-0.7,0.23333 -1.4,0.48333 -2.1,0.75c-0.83333,0.33333 -1.66667,0.68333 -2.5,1.05c-0.23333,0.23333 -0.48333,0.46667 -0.75,0.7c-0.56667,0.13333 -1.16667,0.23333 -1.8,0.3c-2.6,0.26667 -5.2,0.51667 -7.8,0.75c-0.73333,0.26667 -1.45,0.51667 -2.15,0.75c-6.2,0 -12.4,0 -18.6,0c-0.83333,-0.23333 -1.66667,-0.46667 -2.5,-0.7c-1.06667,-0.26667 -2.13333,-0.53333 -3.2,-0.8c-0.83333,-0.2 -1.66667,-0.41667 -2.5,-0.65c-2.96667,-0.23333 -5.95,-0.46667 -8.95,-0.7c-0.83333,-0.26667 -1.65,-0.53333 -2.45,-0.8c-0.6,-0.2 -1.21667,-0.4 -1.85,-0.6c-0.8,-0.26667 -1.61667,-0.51667 -2.45,-0.75c-0.23333,-0.23333 -0.48333,-0.48333 -0.75,-0.75c-0.7,-0.23333 -1.4,-0.46667 -2.1,-0.7c-0.26667,-0.23333 -0.51667,-0.46667 -0.75,-0.7c-0.7,-0.23333 -1.41667,-0.46667 -2.15,-0.7c-0.33333,-0.36667 -0.68333,-0.73333 -1.05,-1.1c-0.23333,-0.23333 -0.46667,-0.46667 -0.7,-0.7c-0.13333,-0.13333 -0.26667,-0.23333 -0.4,-0.3c-0.7,-0.26667 -1.4,-0.53333 -2.1,-0.8c-0.23333,-0.23333 -0.46667,-0.46667 -0.7,-0.7c-0.73333,-0.23333 -1.45,-0.46667 -2.15,-0.7c-0.23333,-0.36667 -0.48333,-0.73333 -0.75,-1.1c-0.33333,-0.23333 -0.68333,-0.46667 -1.05,-0.7c-0.13333,-0.1 -0.26667,-0.18333 -0.4,-0.25c-0.7,-0.3 -1.4,-0.56667 -2.1,-0.8c-0.23333,-0.36667 -0.46667,-0.73333 -0.7,-1.1c-0.36667,-0.33333 -0.73333,-0.68333 -1.1,-1.05c-0.46667,-0.36667 -0.93333,-0.73333 -1.4,-1.1c-0.23333,-0.33333 -0.48333,-0.68333 -0.75,-1.05c-0.1,-0.36667 -0.21667,-0.71667 -0.35,-1.05c-0.23333,-0.36667 -0.46667,-0.73333 -0.7,-1.1c-0.36667,-0.36667 -0.71667,-0.71667 -1.05,-1.05c-0.26667,-0.36667 -0.51667,-0.73333 -0.75,-1.1c-0.1,-0.33333 -0.21667,-0.68333 -0.35,-1.05c-0.23333,-0.36667 -0.46667,-0.73333 -0.7,-1.1c-0.36667,-0.33333 -0.73333,-0.68333 -1.1,-1.05c-0.23333,-0.36667 -0.46667,-0.71667 -0.7,-1.05c-0.1,-0.36667 -0.21667,-0.73333 -0.35,-1.1c0,-0.36667 0,-0.71667 0,-1.05c-0.13333,-0.36667 -0.25,-0.73333 -0.35,-1.1c-0.23333,-0.33333 -0.46667,-0.68333 -0.7,-1.05c-0.13333,-0.36667 -0.26667,-0.73333 -0.4,-1.1c-0.23333,-0.33333 -0.46667,-0.68333 -0.7,-1.05c-0.23333,-0.36667 -0.46667,-0.71667 -0.7,-1.05c0,-0.36667 0,-0.73333 0,-1.1c0,-0.36667 0,-0.71667 0,-1.05c0,-0.36667 0,-0.73333 0,-1.1c-0.13333,-0.33333 -0.25,-0.68333 -0.35,-1.05c-0.23333,-0.36667 -0.48333,-0.73333 -0.75,-1.1c-0.1,-0.33333 -0.21667,-0.68333 -0.35,-1.05c-0.23333,-0.36667 -0.46667,-0.71667 -0.7,-1.05c-0.23333,-0.36667 -0.46667,-0.73333 -0.7,-1.1c0,-0.36667 0,-0.71667 0,-1.05c0,-0.36667 0,-0.73333 0,-1.1c-0.23333,-0.33333 -0.48333,-0.68333 -0.75,-1.05c-0.23333,-0.36667 -0.46667,-0.73333 -0.7,-1.1c0,-0.33333 0,-0.68333 0,-1.05c0,-0.36667 0,-0.71667 0,-1.05c0,-0.36667 0,-0.73333 0,-1.1c-0.23333,-0.36667 -0.46667,-0.71667 -0.7,-1.05c-0.13333,-0.36667 -0.25,-0.73333 -0.35,-1.1c-0.13333,-0.33333 -0.25,-0.68333 -0.35,-1.05c0,-0.36667 0,-0.71667 0,-1.05c0,-0.36667 0,-0.73333 0,-1.1c0,-1.43333 0,-2.86667 0,-4.3c0,-1.76667 0,-3.55 0,-5.35c0,-1.43333 0,-2.85 0,-4.25c0,-1.43333 0,-2.86667 0,-4.3c0,-1.43333 0,-2.86667 0,-4.3c0,-1.06667 0,-2.13333 0,-3.2c0,-0.36667 0,-0.73333 0,-1.1c0,-0.33333 0,-0.68333 0,-1.05c0,-0.36667 0,-0.71667 0,-1.05c0,-1.1 0,-2.18333 0,-3.25c0.1,-0.33333 0.21667,-0.68333 0.35,-1.05c0.23333,-0.36667 0.46667,-0.73333 0.7,-1.1c0.13333,-0.33333 0.25,-0.68333 0.35,-1.05c0,-0.36667 0,-0.71667 0,-1.05c0,-0.36667 0,-0.73333 0,-1.1c0,-0.36667 0,-0.71667 0,-1.05c0,-0.36667 0,-0.73333 0,-1.1c0.23333,-0.33333 0.46667,-0.68333 0.7,-1.05c0.13333,-0.36667 0.26667,-0.73333 0.4,-1.1c0.1,-0.33333 0.21667,-0.68333 0.35,-1.05c0,-0.36667 0,-0.71667 0,-1.05c0.23333,-0.36667 0.46667,-0.73333 0.7,-1.1c0.13333,-0.36667 0.25,-0.71667 0.35,-1.05c0.13333,-0.36667 0.25,-0.73333 0.35,-1.1c0.23333,-0.33333 0.48333,-0.68333 0.75,-1.05c0.23333,-0.36667 0.46667,-0.73333 0.7,-1.1c0.1,-0.33333 0.21667,-0.68333 0.35,-1.05c0.23333,-0.36667 0.46667,-0.71667 0.7,-1.05c0.13333,-0.36667 0.25,-0.73333 0.35,-1.1c0.26667,-0.36667 0.51667,-0.71667 0.75,-1.05c0.1,-0.36667 0.21667,-0.73333 0.35,-1.1c0.1,-0.33333 0.21667,-0.68333 0.35,-1.05c0.23333,-0.36667 0.46667,-0.73333 0.7,-1.1c0.23333,-0.33333 0.48333,-0.68333 0.75,-1.05c0.1,-0.36667 0.21667,-0.71667 0.35,-1.05c0.23333,-0.36667 0.46667,-0.73333 0.7,-1.1c0.36667,-0.36667 0.71667,-0.71667 1.05,-1.05c0.26667,-0.36667 0.51667,-0.73333 0.75,-1.1c0.1,-0.33333 0.21667,-0.68333 0.35,-1.05c0.23333,-0.36667 0.46667,-0.73333 0.7,-1.1c0.36667,-0.33333 0.73333,-0.68333 1.1,-1.05c0.33333,-0.36667 0.68333,-0.71667 1.05,-1.05c0.23333,-0.36667 0.46667,-0.73333 0.7,-1.1c0.13333,-0.33333 0.25,-0.68333 0.35,-1.05c0.26667,-0.36667 0.51667,-0.73333 0.75,-1.1c0.33333,-0.33333 0.68333,-0.68333 1.05,-1.05c0.36667,-0.36667 0.73333,-0.71667 1.1,-1.05c0.33333,-0.36667 0.68333,-0.73333 1.05,-1.1c0.13333,-0.36667 0.25,-0.71667 0.35,-1.05c0.23333,-0.36667 0.46667,-0.73333 0.7,-1.1c0.26667,-0.33333 0.51667,-0.68333 0.75,-1.05c0.33333,-0.36667 0.68333,-0.73333 1.05,-1.1c0.46667,-0.33333 0.95,-0.68333 1.45,-1.05c0.33333,-0.36667 0.68333,-0.71667 1.05,-1.05c0.23333,-0.36667 0.46667,-0.73333 0.7,-1.1z" fill="#000000"/><path d="M438.80586,402.10631c-5.1,4.83333 -10.63333,8.68333 -16.6,11.55c-5.86667,2.8 -11.18333,4.26667 -15.95,4.4c-20.4,0.06667 -34.81667,-7.88333 -43.25,-23.85c-4.5,-8.43333 -6.86667,-17.38333 -7.1,-26.85c-0.53333,-22.16667 4.25,-38.58333 14.35,-49.25c7.16667,-7.8 16.08333,-11.73333 26.75,-11.8c2.36667,-0.06667 4.88333,0.08333 7.55,0.45c6.33333,0.86667 12.58333,2.88333 18.75,6.05c6.16667,3.16667 11.71667,7.23333 16.65,12.2c10.9,10.96667 16.51667,23.63333 16.85,38c0.06667,7.36667 -1.58333,14.61667 -4.95,21.75c-3.2,6.26667 -7.55,12.05 -13.05,17.35M400.50586,344.45631c-3.63333,-1.33333 -6.6,-0.76667 -8.9,1.7c-2.7,2.7 -3.98333,7.4 -3.85,14.1c0.1,3.23333 1.2,7 3.3,11.3c2.7,5.63333 6.23333,8.45 10.6,8.45c5.63333,0 9.41667,-2.31667 11.35,-6.95c0.5,-1.56667 0.85,-3.2 1.05,-4.9c-0.03333,-1.56667 -0.01667,-2.35 0.05,-2.35c-0.13333,-5.06667 -1.6,-9.63333 -4.4,-13.7c-2.7,-3.83333 -5.76667,-6.38333 -9.2,-7.65M537.20586,347.05631c0.1,6.46667 -2.83333,11.55 -8.8,15.25c-5.13333,3 -15.5,6.63333 -31.1,10.9c-1.2,0.16667 -2.36667,0.35 -3.5,0.55c1.5,2.6 2.88333,5.68333 4.15,9.25c0.76667,2.33333 1.68333,5.43333 2.75,9.3c0.46667,1.86667 2.15,5.25 5.05,10.15c2.63333,4.4 3.96667,7.11667 4,8.15c-0.93333,0.83333 -1.93333,1.75 -3,2.75c-4.73333,0.03333 -9.43333,0.1 -14.1,0.2c-13.03333,-0.03333 -20.78333,-0.08333 -23.25,-0.15c-0.33333,-0.8 -0.65,-1.58333 -0.95,-2.35c0,-0.16667 0.05,-0.26667 0.15,-0.3c-1.5,-2.33333 -2.81667,-6.71667 -3.95,-13.15c-1.8,-11.76667 -2.98333,-19.38333 -3.55,-22.85c-0.86667,-5.33333 -1.55,-12.98333 -2.05,-22.95c-0.33333,-5.9 -0.55,-11.06667 -0.65,-15.5c-0.03333,-0.56667 -0.06667,-1.35 -0.1,-2.35c-0.9,-1.03333 -1.85,-2.1 -2.85,-3.2c-9.23333,-10.53333 -13.81667,-15.91667 -13.75,-16.15c-0.03333,-1.2 0,-2.05 0.1,-2.55c0,-0.26667 0.05,-0.45 0.15,-0.55c34.96667,-0.7 60.83333,3.56667 77.6,12.8c6.13333,3.36667 10.76667,7.33333 13.9,11.9c2.3,3.53333 3.55,7.15 3.75,10.85M491.00586,338.95631c-0.03333,3.46667 0.1,6.3 0.4,8.5c0.33333,0 0.71667,0.06667 1.15,0.2c0.86667,0.03333 1.95,0.08333 3.25,0.15c1.76667,0 3.58333,-0.33333 5.45,-1c0.93333,-0.4 2.35,-1.08333 4.25,-2.05c-1.36667,-1.7 -3.1,-3.08333 -5.2,-4.15c-2.76667,-1.3 -5.86667,-1.85 -9.3,-1.65M614.00586,380.50631c3.2,-9.6 7.03333,-12.16667 11.5,-7.7c10.2,-2.6 16.85,-0.13333 19.95,7.4c1.46667,3.8 1.93333,8.23333 1.4,13.3c-0.03333,0.33333 0.05,1.56667 0.25,3.7c0.03333,2.3 -0.01667,4.36667 -0.15,6.2c-0.6,5.5 -2.4,8.21667 -5.4,8.15c-16.7,-0.1 -26.88333,-1.88333 -30.55,-5.35c-1.2,-1.16667 -1.66667,-2.45 -1.4,-3.85c0.36667,-1.46667 0.61667,-2.26667 0.75,-2.4c-0.1,-1.76667 0.18333,-4.4 0.85,-7.9c0.66667,-4.46667 1.6,-8.31667 2.8,-11.55M612.70586,324.70631c0.1,1.4 0.08333,3.4 -0.05,6c0.56667,3.43333 1.25,8.08333 2.05,13.95c0.56667,5.2 0.85,8.58333 0.85,10.15c-0.06667,0.7 -0.2,1.25 -0.4,1.65c-0.4,0.43333 -1.23333,1.15 -2.5,2.15c-7.3,-0.03333 -14,0.08333 -20.1,0.35c-4.93333,0.23333 -7.85,0.38333 -8.75,0.45c-0.23333,0 -0.43333,0 -0.6,0c1.03333,4.13333 2.55,10.76667 4.55,19.9c1.66667,8.4 3.31667,16.86667 4.95,25.4c-0.03333,2.16667 -0.5,3.56667 -1.4,4.2c-1.63333,1 -5.35,1.55 -11.15,1.65c-1.4,-0.03333 -5.15,-0.3 -11.25,-0.8c-5.73333,-0.43333 -9.95,-0.76667 -12.65,-1c-1.6,-1.53333 -2.63333,-3.33333 -3.1,-5.4c-0.13333,-0.9 -0.2,-2.66667 -0.2,-5.3c-0.1,-6.13333 0.4,-13.56667 1.5,-22.3c0.53333,-4.36667 1.63333,-11.4 3.3,-21.1c-4.53333,-0.23333 -9.05,-0.41667 -13.55,-0.55c-2.36667,-1.73333 -3.65,-4.36667 -3.85,-7.9c0.1,-4.1 0.05,-6.98333 -0.15,-8.65c-0.23333,-1.56667 -0.68333,-4.68333 -1.35,-9.35c-0.73333,-4.03333 -1.11667,-6.51667 -1.15,-7.45c-0.03333,-0.2 -0.03333,-0.35 0,-0.45c-0.1,-0.06667 -0.18333,-0.08333 -0.25,-0.05c-0.13333,-0.13333 -0.23333,-0.25 -0.3,-0.35c-0.3,-0.33333 -0.45,-1.03333 -0.45,-2.1c-0.1,-1.2 0.81667,-2.03333 2.75,-2.5c3.5,-0.96667 10.76667,-1.15 21.8,-0.55c2,0.1 9.81667,0.66667 23.45,1.7c13.13333,0.86667 20.71667,1.71667 22.75,2.55c3.2,1.16667 4.95,3.06667 5.25,5.7M644.00586,354.50631c-2.4,3.1 -6.65,4.7 -12.75,4.8c-6.26667,0 -10.41667,-1.88333 -12.45,-5.65c-0.76667,-1.26667 -1.16667,-2.58333 -1.2,-3.95l-0.05,-2c-0.13333,-3.1 0.9,-6.46667 3.1,-10.1c2.4,-4.2 5.3,-6.45 8.7,-6.75c1.86667,-0.23333 3.81667,0.43333 5.85,2c1.1,0.76667 2.91667,2.16667 5.45,4.2c2.76667,2 4.41667,3.8 4.95,5.4c0.16667,0.4 0.28333,1.75 0.35,4.05c0.03333,3.33333 -0.61667,6 -1.95,8M733.00586,371.70631c-1.6,6.1 -3.78333,11.63333 -6.55,16.6c-8.6,15.03333 -21.81667,22.35 -39.65,21.95c-14.9,-0.36667 -25.35,-7.56667 -31.35,-21.6c-2.06667,-4.56667 -3.41667,-9.55 -4.05,-14.95c-0.43333,-2.8 -0.65,-5.25 -0.65,-7.35c-0.2,-14.36667 4,-25.66667 12.6,-33.9c7.56667,-7.33333 17.05,-11.11667 28.45,-11.35c11.23333,-0.3 20.91667,3.08333 29.05,10.15c8.9,7.7 13.41667,18.03333 13.55,31c0,2.06667 -0.46667,5.21667 -1.4,9.45M684.55586,348.15631c-2.36667,0.7 -4.5,3.3 -6.4,7.8c-1.73333,3.73333 -2.56667,6.83333 -2.5,9.3c0,1.43333 0.91667,3.76667 2.75,7c2.26667,3.93333 4.88333,6.45 7.85,7.55c2.26667,-0.06667 4.58333,-0.05 6.95,0.05c3.63333,-1.1 6.08333,-3.15 7.35,-6.15c0.56667,-1.66667 0.9,-3.65 1,-5.95c-0.06667,-4.5 -2.11667,-8.53333 -6.15,-12.1c-1.03333,-0.83333 -4.65,-3.33333 -10.85,-7.5M822.95586,314.90631c0.73333,0.13333 1.4,0.45 2,0.95c0.6,0.33333 0.93333,0.76667 1,1.3c0.16667,1.1 0.3,3.05 0.4,5.85c-0.1,1.06667 -0.11667,2.95 -0.05,5.65c-0.2,2.5 -0.16667,4.61667 0.1,6.35c0.23333,6.46667 0.55,15.93333 0.95,28.4c0.26667,9.13333 0.43333,15.48333 0.5,19.05c-0.1,3.83333 0.51667,10.33333 1.85,19.5c0.36667,7.6 -1.36667,12.65 -5.2,15.15c-3.23333,-0.1 -6.46667,-0.2 -9.7,-0.3c-1.33333,-0.46667 -7.31667,-0.96667 -17.95,-1.5c-4.06667,-4.13333 -8.5,-9.66667 -13.3,-16.6c-5.13333,-7.9 -8.75,-13.38333 -10.85,-16.45c-0.1,-0.03333 -0.15,-0.03333 -0.15,0c-0.06667,2.4 -0.05,4.83333 0.05,7.3c0.9,2.1 1.73333,4.66667 2.5,7.7c0.66667,3.2 1.01667,6.06667 1.05,8.6c0.03333,0.56667 -1.06667,1.66667 -3.3,3.3c-9.1,-0.3 -16.43333,-0.35 -22,-0.15c-4.13333,0.13333 -6.65,0.2 -7.55,0.2c-1.3,0 -2.3,-0.1 -3,-0.3c-0.23333,-0.13333 -0.48333,-0.21667 -0.75,-0.25c-0.5,-7.5 -0.76667,-13.36667 -0.8,-17.6c-0.03333,-2.16667 0.26667,-10.38333 0.9,-24.65c0.53333,-16.63333 1.06667,-29.68333 1.6,-39.15c1.2,-0.46667 4.58333,-1.13333 10.15,-2c9.03333,-1.5 16.38333,-2.76667 22.05,-3.8c3.23333,3.46667 6.53333,8.66667 9.9,15.6c5.43333,11.06667 8.21667,16.78333 8.35,17.15c-0.23333,-3.46667 -0.46667,-8.15 -0.7,-14.05c-0.2,-4.76667 -0.3,-8.23333 -0.3,-10.4c-1.1,-4.03333 -1.5,-7.56667 -1.2,-10.6c0.36667,-5.96667 3.85,-7.8 10.45,-5.5c0.5,0.13333 4.36667,0.33333 11.6,0.6c7.06667,0.16667 10.86667,0.38333 11.4,0.65M921.35586,401.50631c-4.9,7.43333 -14.26667,12.36667 -28.1,14.8c-11.23333,-0.2 -22.4,-0.4 -33.5,-0.6c-12.86667,-3.6 -20.36667,-6.48333 -22.5,-8.65c-1.16667,-1.13333 -1.73333,-2.51667 -1.7,-4.15c-0.03333,-2.36667 0.03333,-4.31667 0.2,-5.85c-0.1,-5.36667 0.3,-10.3 1.2,-14.8c1.3,-8.1 3.78333,-12.11667 7.45,-12.05c2.2,-0.03333 4.11667,0.35 5.75,1.15c0.9,0.43333 2.2,1.26667 3.9,2.5c4.03333,2.5 11.18333,3.75 21.45,3.75c1.73333,0 4.11667,-0.2 7.15,-0.6c3.23333,-0.46667 5.11667,-0.9 5.65,-1.3c-2.13333,-1.96667 -8.35,-4.11667 -18.65,-6.45c-10.43333,-2.56667 -16.4,-4.45 -17.9,-5.65c-4.9,-4.1 -7.71667,-6.65 -8.45,-7.65c-1.2,-1.76667 -1.78333,-4.55 -1.75,-8.35c-0.03333,-10.16667 3.75,-18.4 11.35,-24.7c6.2,-5.3 14.63333,-8.91667 25.3,-10.85c8.8,-1.63333 17.3,-1.83333 25.5,-0.6c7.73333,1.03333 11.63333,2.76667 11.7,5.2c-0.06667,3.1 -0.68333,7.81667 -1.85,14.15c-1.36667,6.7 -2.08333,13.18333 -2.15,19.45c-0.2,0.26667 -0.4,0.53333 -0.6,0.8c-0.46667,0.43333 -1.33333,0.66667 -2.6,0.7c-2.86667,-1.16667 -5.98333,-2.28333 -9.35,-3.35c-6.7,-2.36667 -12.36667,-3.48333 -17,-3.35c-1.3,0.03333 -3.08333,0.11667 -5.35,0.25c-0.96667,0 -1.96667,0.06667 -3,0.2c-1.23333,0.46667 -2.03333,0.8 -2.4,1c-0.93333,0.3 -1.58333,0.68333 -1.95,1.15c-0.03333,0.33333 0.15,0.83333 0.55,1.5c0.23333,0.46667 0.58333,0.78333 1.05,0.95c23.73333,0.06667 39.75,4.4 48.05,13c3,2.93333 4.98333,6.55 5.95,10.85c0.4,2.26667 0.66667,5.5 0.8,9.7c-0.1,7.6 -1.5,13.55 -4.2,17.85z" fill="#ffffff"/></g></g></svg>