<svg version="1.1" xmlns="http://www.w3.org/2000/svg" xmlns:xlink="http://www.w3.org/1999/xlink" width="480.61893" height="560.37973" viewBox="0,0,480.61893,560.37973"><g transform="translate(-453.15607,-160.16824)"><g data-paper-data="{&quot;isPaintingLayer&quot;:true}" fill-rule="nonzero" stroke="none" stroke-width="1" stroke-linecap="butt" stroke-linejoin="miter" stroke-miterlimit="10" stroke-dasharray="" stroke-dashoffset="0" style="mix-blend-mode: normal"><path d="M540.11333,409.64059c4.57764,-4.67261 9.34169,-7.84545 14.29216,-9.51852c3.26351,-1.07377 6.48524,-2.25124 9.66519,-3.53241c10.3531,-4.05864 20.73844,-7.39908 31.15601,-10.02132c0.04416,-0.04993 0.07584,-0.11091 0.09504,-0.18292c1.11229,-5.73518 3.49488,-11.54826 7.14777,-17.43923c2.37348,-0.57056 4.76283,-0.88236 7.16804,-0.9354c10.56182,-0.26984 21.24047,1.36576 32.03597,4.9068c2.02228,1.7886 3.50063,3.56333 4.43503,5.32419c5.448,10.29152 9.1413,20.65522 11.0799,31.0911c-1.18574,0.68663 -2.443,1.55474 -3.77177,2.60433c-9.93123,7.85798 -19.95273,15.59164 -30.0645,23.20095c-1.37315,-1.21448 -2.83319,-2.30558 -4.38011,-3.27328c-3.6066,-2.21093 -7.3246,-4.69837 -11.15401,-7.46233c-7.69656,1.55812 -15.39306,3.69473 -23.0895,6.40985c-10.28497,3.62944 -20.54298,8.08366 -30.77403,13.36266c-0.0749,-0.06624 -0.13587,-0.09792 -0.18292,-0.09504c-5.73607,-0.35664 -11.67648,-3.85301 -17.82121,-10.48911c0.04416,-0.04993 0.0648,-0.09842 0.06192,-0.14547c-2.16763,-5.69935 -2.72171,-11.46222 -1.66224,-17.28862c1.57544,-2.03282 3.49653,-4.2049 5.76327,-6.51624z" fill-opacity="0.99608" fill="#000000"/><path d="M544.29134,456.49691c-13.81309,6.32692 -26.20692,8.79846 -37.18149,7.41462c-8.20248,-1.04533 -15.86984,-3.62118 -23.00208,-7.72754c-7.0217,-3.9906 -12.89373,-10.98034 -17.61609,-20.96922c-2.73137,-5.78644 -4.0198,-11.41854 -3.8653,-16.89629c0.27465,-10.86379 4.33332,-21.11148 12.17602,-30.74307c3.88779,-4.76049 8.55784,-9.45197 14.01014,-14.07445c5.46786,-4.59554 12.07944,-9.02554 19.83474,-13.29c6.53405,-3.1279 13.20084,-5.68586 20.00036,-7.67387c6.34436,-1.86877 12.38558,-2.826 18.12365,-2.87169c11.54,-0.05641 21.50075,4.03255 29.88225,12.26689c3.16231,3.13065 5.86716,7.20809 8.11455,12.23234c3.83058,8.67195 5.34098,17.03172 4.5312,25.07932c-1.07862,10.6816 -4.99076,20.88057 -11.73642,30.5969c-3.45631,4.97823 -7.83573,9.68145 -13.13825,14.10963c-5.94508,4.97899 -12.65617,9.16112 -20.13329,12.54641z" fill-opacity="0.99608" fill="#000000"/><path d="M685.87256,615.8c0.05211,3.13333 0.25183,6.28333 0.59918,9.45c0.4425,4.13333 -0.27689,8 -2.15815,11.6c-2.90049,5.6 -4.77247,11.93333 -5.61594,19c-0.01429,0.1 -0.00716,0.16667 0.02141,0.2c0.5571,0.53333 1.22849,0.96667 2.01417,1.3c4.14225,6.93333 8.96789,13.28333 14.47691,19.05c3.4235,3.56667 7.11368,6.9 11.07056,10c2.93789,2.3 5.85912,4.6 8.76368,6.9c7.83755,6.26667 16.50612,11.73333 26.00571,16.4c1.27614,0.63333 2.63086,1.06667 4.06417,1.3c4.96659,0.93333 10.18324,1.05 15.64997,0.35c13.67634,-1.7 26.99791,-3.36667 39.96472,-5c-0.01429,0.1 -0.02621,0.18333 -0.03574,0.25c-11.01945,4.56667 -22.44361,8.58333 -34.27248,12.05c-6.08587,1.76667 -13.04544,2.3 -20.87871,1.6c-1.90474,-0.2 -3.69995,-0.58333 -5.38561,-1.15c-10.7854,-3.6 -20.12307,-8.46667 -28.01301,-14.6c-7.92327,-6.13333 -15.25603,-12.78333 -21.99826,-19.95c-4.92812,-5.16667 -9.83958,-10.33333 -14.73436,-15.5c-1.65223,-1.73333 -3.46162,-3.3 -5.42816,-4.7c-0.15197,-4.76667 0.69371,-9.75 2.53702,-14.95c4.65828,-13 6.72134,-26.26667 6.18918,-39.8c-0.24706,-6.43333 -0.34172,-13 -0.284,-19.7c0.16777,-12.6 0.28553,-25.2 0.3533,-37.8c1.9763,-1.23333 3.97402,-2.38333 5.99316,-3.45c0.07143,-0.03333 0.15715,-0.05 0.25715,-0.05c0.11823,9.43333 0.22692,18.93333 0.32609,28.5c0.09412,12.86667 0.2668,25.76667 0.51805,38.7z" fill-opacity="0.99608" fill="#2b2c40"/><path d="M755.07118,467.85c0.04757,0.6 0.07847,1.2 0.0927,1.8c0.4945,8.43333 0.91519,16.91667 1.26207,25.45c0.06667,0 0.13095,0.01667 0.19285,0.05c0.42853,0.5 0.8761,0.98333 1.34273,1.45c0.06667,0 0.15,0 0.25,0c5.94755,0.83333 11.53078,2 16.74969,3.5c0.06648,2.1 -0.06941,4.1 -0.40767,6c-1.21008,6.36667 -1.20581,12.05 0.0128,17.05c2.58953,10.8 9.16033,18.11667 19.71237,21.95c0.17119,2.76667 0.45667,5.43333 0.85645,8c1.83234,11.43333 3.61466,22.98333 5.34698,34.65c1.699,11.43333 3.46229,22.88333 5.28986,34.35c-0.01429,0.1 -0.00477,0.15 0.02856,0.15c1.5237,1.23333 2.89501,2.6 4.11393,4.1c-0.01429,0.1 -0.02621,0.18333 -0.03574,0.25c-2.66656,-1.16667 -5.25693,-2.4 -7.77111,-3.7c-0.0619,-0.03333 -0.12619,-0.05 -0.19285,-0.05c-3.08524,-5.46667 -4.88466,-12.11667 -5.39826,-19.95c-0.4328,-6.06667 -0.98942,-12.08333 -1.66985,-18.05c-1.37516,-11.83333 -3.05272,-23.41667 -5.03268,-34.75c-8.79953,-5.36667 -15.26318,-12.73333 -19.39093,-22.1c-2.56616,-5.83333 -3.13693,-13.38333 -1.71231,-22.65c-5.53315,-2.1 -11.45205,-3.83333 -17.75669,-5.2c-0.09524,-0.03333 -0.17619,-0.05 -0.24285,-0.05c-0.47064,-9.06667 -0.50791,-18.48333 -0.11182,-28.25h0.15c0.31411,2 1.01159,3.65 2.09243,4.95c0.02857,0.03333 0.09285,0.05 0.19285,0.05c1.23356,-2.56667 1.86239,-5.56667 1.8865,-9z" fill-opacity="0.99216" fill="#2b2c3f"/><path d="M495.07761,639.9c-2.18583,1.3 -4.35499,2.6 -6.50748,3.9c-2.55728,1.56667 -4.48368,3.96667 -5.7792,7.2c-1.4146,3.6 -2.61732,7.46667 -3.60815,11.6c-1.30523,5.4 -0.84846,9.66667 1.37031,12.8c1.44268,2.03333 2.99965,3.96667 4.67092,5.8c6.62794,7.26667 14.86791,13.05 24.71992,17.35c3.19988,1.4 6.08307,3.03333 8.64957,4.9c0.8428,0.63333 1.59036,1.35 2.24267,2.15c-0.16667,0 -0.33095,-0.01667 -0.49285,-0.05c-12.80937,-1.8 -23.25188,-5.7 -31.32755,-11.7c-1.02374,-0.76667 -2.0713,-1.48333 -3.14267,-2.15c-7.65197,-4.76667 -13.32997,-11.21667 -17.03403,-19.35c0.00953,-0.06667 0.02144,-0.15 0.03574,-0.25c2.37734,-13.13333 6.54497,-24.21667 12.5029,-33.25c1.15718,-0.4 2.21437,-0.91667 3.17156,-1.55c9.30057,-6.53333 18.88682,-12.73333 28.75876,-18.6c3.12873,-1.83333 5.4742,-4.48333 7.03641,-7.95c5.20576,-11.46667 10.14726,-23.18333 14.82449,-35.15c2.32433,-6 4.52963,-12.1 6.61588,-18.3c1.06695,-3.26667 2.23151,-6.4 3.49368,-9.4c1.35742,-3.2 2.1553,-6.21667 2.39365,-9.05c1.0335,-1.86667 2.54313,-3.1 4.52889,-3.7c6.06683,-1.86667 10.98854,-5.05 14.76512,-9.55c7.42458,-8.8 12.30417,-20.55 14.63879,-35.25l0.01429,-0.1c8.5572,-0.63333 16.99297,-1.35 25.30733,-2.15h0.1c3.61535,-12.23333 7.02358,-24.65 10.22468,-37.25c0.06667,0 0.09762,0.01667 0.09285,0.05c0.11871,3.83333 1.34942,6.65 3.69212,8.45c-3.58188,10.6 -6.94235,21.51667 -10.08143,32.75h-0.1c-3.7382,1.2 -7.83588,1.88333 -12.29304,2.05c-4.92859,0.2 -9.17626,0.76667 -12.74301,1.7c-1.98628,6.43333 -4.05826,12.76667 -6.21594,19c-3.22938,9.3 -8.48713,16.23333 -15.77324,20.8c-3.26208,2.06667 -6.82652,3.8 -10.69331,5.2c-4.93435,11.66667 -9.54493,23.75 -13.83173,36.25c-2.11482,6.16667 -4.32012,12.26667 -6.61588,18.3c-2.86255,7.43333 -5.63225,14.91667 -8.3091,22.45c-0.44296,1.23333 -0.60973,2.4 -0.50031,3.5c-9.30533,6.56667 -18.90587,12.75 -28.80162,18.55z" fill-opacity="0.99608" fill="#2b2c3f"/><path d="M488.57012,643.8c2.15249,-1.3 4.32166,-2.6 6.50748,-3.9c9.89574,-5.8 19.49628,-11.98333 28.80162,-18.55c-0.10943,-1.1 0.05734,-2.26667 0.50031,-3.5c2.67685,-7.53333 5.44655,-15.01667 8.3091,-22.45c2.29576,-6.03333 4.50106,-12.13333 6.61588,-18.3c4.2868,-12.5 8.89738,-24.58333 13.83173,-36.25c3.86679,-1.4 7.43123,-3.13333 10.69331,-5.2c7.28611,-4.56667 12.54386,-11.5 15.77324,-20.8c2.15769,-6.23333 4.22967,-12.56667 6.21594,-19c3.56675,-0.93333 7.81442,-1.5 12.74301,-1.7c4.45716,-0.16667 8.55484,-0.85 12.29304,-2.05h0.1c3.13907,-11.23333 6.49955,-22.15 10.08143,-32.75c-2.3427,-1.8 -3.57341,-4.61667 -3.69212,-8.45c0.00476,-0.03333 -0.02619,-0.05 -0.09285,-0.05c3.01509,-9.2 5.87068,-18.68333 8.56677,-28.45c3.47253,-12.63333 7.11889,-25.55 10.93909,-38.75c3.77732,-12.9 8.1141,-25.16667 13.01035,-36.8c2.48147,-5.93333 4.95103,-11.78333 7.40867,-17.55c2.5148,-5.93333 5.96522,-10.71667 10.35125,-14.35c4.38603,-3.63333 9.39582,-6.61667 15.02935,-8.95c5.42401,-2.26667 11.52652,-3.8 18.30754,-4.6c3.62861,-0.43333 7.18098,-0.33333 10.65712,0.3c9.13796,1.6 17.64728,3.86667 25.52798,6.8c10.40918,3.9 18.11102,10.18333 23.1055,18.85c-0.01429,0.1 -0.00716,0.16667 0.02141,0.2c0.49517,0.73333 0.92853,0.5 1.30006,-0.7c0.1191,-0.6 0.26196,-0.66667 0.42859,-0.2c1.39019,3.33333 1.91363,7.48333 1.57034,12.45c-0.39092,5.06667 -0.96995,10.4 -1.73711,16c-2.02507,14.4 -3.41437,28.31667 -4.16793,41.75c-0.56756,10.26667 -1.0875,20.43333 -1.5598,30.5c-0.64879,13.4 -0.85466,26.15 -0.61762,38.25c-0.0953,0.66667 -0.19059,1.33333 -0.28589,2c-0.01429,0.1 -0.02621,0.18333 -0.03574,0.25h-0.15c-0.02411,3.43333 -0.65294,6.43333 -1.8865,9c-0.1,0 -0.16428,-0.01667 -0.19285,-0.05c-1.08084,-1.3 -1.77831,-2.95 -2.09243,-4.95h-0.15c-0.39609,9.76667 -0.35882,19.18333 0.11182,28.25c0.06667,0 0.14762,0.01667 0.24285,0.05c6.30464,1.36667 12.22354,3.1 17.75669,5.2c-1.42462,9.26667 -0.85385,16.81667 1.71231,22.65c4.12775,9.36667 10.5914,16.73333 19.39093,22.1c1.97996,11.33333 3.65753,22.91667 5.03268,34.75c0.68043,5.96667 1.23705,11.98333 1.66985,18.05c0.5136,7.83333 2.31302,14.48333 5.39826,19.95c0.06667,0 0.13095,0.01667 0.19285,0.05c2.51417,1.3 5.10454,2.53333 7.77111,3.7c2.04264,2.5 4.14004,4.96667 6.29221,7.4c2.15693,2.4 4.37101,4.75 6.64224,7.05c6.97082,6.96667 11.50336,16.06667 13.59762,27.3c-2.84374,10.1 -6.90164,18.78333 -12.1737,26.05c-0.04286,0.06667 -0.06906,0.13333 -0.07859,0.2c-7.5099,4.26667 -15.26262,8.25 -23.25818,11.95c-0.07143,0.03333 -0.14048,0.05 -0.20715,0.05c0.00953,-0.06667 0.02144,-0.15 0.03574,-0.25c-12.96681,1.63333 -26.28838,3.3 -39.96472,5c-5.46673,0.7 -10.68338,0.58333 -15.64997,-0.35c-1.43331,-0.23333 -2.78804,-0.66667 -4.06417,-1.3c-9.49959,-4.66667 -18.16816,-10.13333 -26.00571,-16.4c-2.90456,-2.3 -5.82579,-4.6 -8.76368,-6.9c-3.95687,-3.1 -7.64706,-6.43333 -11.07056,-10c-5.50902,-5.76667 -10.33466,-12.11667 -14.47691,-19.05c-0.78569,-0.33333 -1.45708,-0.76667 -2.01417,-1.3c-0.02857,-0.03333 -0.03571,-0.1 -0.02141,-0.2c0.84347,-7.06667 2.71545,-13.4 5.61594,-19c1.88127,-3.6 2.60065,-7.46667 2.15815,-11.6c-0.34734,-3.16667 -0.54707,-6.31667 -0.59918,-9.45c-0.25125,-12.93333 -0.42394,-25.83333 -0.51805,-38.7c-0.09917,-9.56667 -0.20786,-19.06667 -0.32609,-28.5c0.00953,-0.06667 0.03334,-0.11667 0.07144,-0.15c2.79059,-1.33333 4.90982,-3.45 6.3577,-6.35c0.00953,-0.06667 0.02144,-0.15 0.03574,-0.25c0.40497,-2.36667 0.82184,-4.7 1.25061,-7c-0.73794,-1.83333 -1.64731,-3.51667 -2.72813,-5.05c-0.02857,-0.03333 -0.03571,-0.1 -0.02141,-0.2c-5.73783,-3 -12.90911,-4.71667 -21.51384,-5.15c-4.56665,-0.23333 -9.54997,-0.35 -14.94997,-0.35c-1.66667,0 -3.27382,0.16667 -4.82147,0.5c-3.69076,3.2 -6.17925,7.78333 -7.46548,13.75c-0.01429,0.1 -0.02621,0.18333 -0.03574,0.25c2.49967,3.73333 5.91847,6.63333 10.25638,8.7c0.0619,0.03333 0.14285,0.05 0.24285,0.05c-2.3675,9.56667 -4.83503,19.48333 -7.40259,29.75c-3.31069,13.36667 -6.51186,26.78333 -9.60351,40.25c-0.5764,2.4 -0.98852,4.81667 -1.23635,7.25c-0.22875,2.06667 -0.22178,4 0.02092,5.8c1.10882,8.1 2.2224,16.16667 3.34075,24.2c0.33787,2.53333 0.03287,5.36667 -0.91503,8.5c-5.88625,6.2 -13.02239,11 -21.4084,14.4c-5.44781,2.2 -11.02896,4.4 -16.74343,6.6c-11.20513,4.23333 -22.70548,8.2 -34.50104,11.9c-11.4765,3.56667 -23.14108,6.93333 -34.99374,10.1c-2.12855,-0.26667 -4.52139,-0.43333 -7.17853,-0.5c-0.1,0 -0.18333,0 -0.25,0c-0.65231,-0.8 -1.39987,-1.51667 -2.24267,-2.15c-2.5665,-1.86667 -5.44969,-3.5 -8.64957,-4.9c-9.85201,-4.3 -18.09198,-10.08333 -24.71992,-17.35c-1.67127,-1.83333 -3.22824,-3.76667 -4.67092,-5.8c-2.21877,-3.13333 -2.67555,-7.4 -1.37031,-12.8c0.99084,-4.13333 2.19355,-8 3.60815,-11.6c1.29552,-3.23333 3.22192,-5.63333 5.7792,-7.2M684.4777,311.1c-8.21932,3.16667 -14.50312,8.53333 -18.8514,16.1c-2.29558,3.93333 -4.39356,8.11667 -6.29395,12.55c-4.97243,11.46667 -9.58775,23.35 -13.84597,35.65c-4.2868,12.5 -8.26887,25.31667 -11.94621,38.45c-3.71069,13.36667 -7.17612,26.53333 -10.3963,39.5c0.59994,0.7 1.25464,1.36667 1.96411,2c7.23751,6.73333 16.6728,11.61667 28.30587,14.65c11.30927,2.96667 24.552,4.41667 39.72819,4.35c3.87143,-0.03333 7.5643,-0.21667 11.07862,-0.55c13.69536,-1.36667 26.31226,-4.05 37.8507,-8.05c1.43814,-0.5 2.88103,-0.91667 4.32868,-1.25c2.13337,-0.46667 3.38111,-1.85 3.74322,-4.15c0.07257,-13.1 0.19514,-26.2 0.36771,-39.3c0.06249,-6.73333 0.50597,-13.8 1.33042,-21.2c1.50601,-14.26667 2.94296,-28.51667 4.31087,-42.75c0.62435,-6.23333 1.26776,-12.48333 1.93021,-18.75c-1.85653,-7.06667 -5.4108,-12.63333 -10.66283,-16.7c-0.0619,-0.03333 -0.12619,-0.05 -0.19285,-0.05c-5.54386,11.5 -8.74263,24.66667 -9.5963,39.5c-0.38155,6.86667 -0.625,13.7 -0.73036,20.5c-0.06213,2.53333 -0.21708,4.78333 -0.46487,6.75c-3.90513,4.23333 -8.97681,7.06667 -15.21503,8.5c-10.1383,2.36667 -21.20978,2.98333 -33.21445,1.85c-3.31902,-0.33333 -6.48087,-0.95 -9.48555,-1.85c-2.74755,-0.83333 -5.37127,-1.83333 -7.87117,-3c-0.61427,-0.13333 -1.15235,-0.33333 -1.61423,-0.6c-0.03333,0 -0.04285,-0.05 -0.02856,-0.15c-0.1,0 -0.18095,-0.01667 -0.24285,-0.05c-3.61888,-1.96667 -7.25204,-3.95 -10.89948,-5.95c-0.21865,-4.53333 0.15558,-9.36667 1.12269,-14.5c0.72413,-3.66667 1.57205,-7.15 2.54377,-10.45c1.83865,-6.33333 3.72968,-12.68333 5.67309,-19.05c1.972,-6.56667 4.50823,-12.41667 7.60867,-17.55c3.22427,-5.3 6.44612,-10.11667 9.66555,-14.45M757.3225,534.65c0.07622,-0.3 0.19291,-0.65 0.35009,-1.05c-8.4193,2.93333 -16.63624,6.08333 -24.65082,9.45c-0.07143,0.03333 -0.14048,0.05 -0.20715,0.05c4.61417,1.3 9.8403,2.05 15.67838,2.25c0.06667,0 0.15,0 0.25,0c4.42871,-1.6 7.28855,-5.16667 8.5795,-10.7M789.61374,635.1c0.04286,-0.06667 0.07144,-0.15 0.08574,-0.25c-10.56235,5.1 -21.03899,10.3 -31.42993,15.6c-2.94775,1.5 -5.92407,2.96667 -8.92896,4.4c9.1811,-1.73333 18.61936,-3.63333 28.31478,-5.7c0.07143,-0.03333 0.15715,-0.05 0.25715,-0.05c4.21466,-4.3 8.11507,-8.96667 11.70122,-14M581.42274,531.85c1.59949,5.83333 4.19192,10.78333 7.77728,14.85c0.17141,0.2 0.34044,0.41667 0.50709,0.65c0.9,0 1.81667,0 2.75,0c0.06667,0 0.15,0 0.25,0c3.69538,-1.6 7.26696,-3.38333 10.71475,-5.35c0.03333,0 0.05715,-0.05 0.07144,-0.15c-8.43789,-2.3 -15.73046,-5.61667 -21.8777,-9.95c-0.0619,-0.03333 -0.12619,-0.05 -0.19285,-0.05M543.0488,642.55c2.21425,0.36667 4.28805,0.55 6.22138,0.55c-7.73295,-4.43333 -15.72782,-8.66667 -23.98461,-12.7c-0.0619,-0.03333 -0.12619,-0.05 -0.19285,-0.05c0.4474,2.46667 1.01148,4.81667 1.69224,7.05c0.0238,0.06667 0.03094,0.13333 0.02141,0.2c4.64266,2.26667 10.0568,3.91667 16.24243,4.95z" fill-opacity="0.99608" fill="#000000"/><path d="M549.27018,643.1c-1.93333,0 -4.00713,-0.18333 -6.22138,-0.55c-6.18562,-1.03333 -11.59977,-2.68333 -16.24243,-4.95c0.00953,-0.06667 0.00239,-0.13333 -0.02141,-0.2c-0.68076,-2.23333 -1.24484,-4.58333 -1.69224,-7.05c0.06667,0 0.13095,0.01667 0.19285,0.05c8.25679,4.03333 16.25166,8.26667 23.98461,12.7z" fill="#2a2b3e"/><path d="M589.20002,546.7c-3.58536,-4.06667 -6.17779,-9.01667 -7.77728,-14.85c0.06667,0 0.13095,0.01667 0.19285,0.05c6.14724,4.33333 13.43981,7.65 21.8777,9.95c-0.01429,0.1 -0.03811,0.15 -0.07144,0.15c-3.44779,1.96667 -7.01937,3.75 -10.71475,5.35c-0.1,0 -0.18333,0 -0.25,0c-0.93333,0 -1.85,0 -2.75,0c-0.16665,-0.23333 -0.33568,-0.45 -0.50709,-0.65M789.69948,634.85c-0.01429,0.1 -0.04287,0.18333 -0.08574,0.25c-3.58615,5.03333 -7.48656,9.7 -11.70122,14c-0.1,0 -0.18572,0.01667 -0.25715,0.05c-9.69542,2.06667 -19.13368,3.96667 -28.31478,5.7c3.00489,-1.43333 5.98121,-2.9 8.92896,-4.4c10.39094,-5.3 20.86758,-10.5 31.42993,-15.6M757.67259,533.6c-0.15718,0.4 -0.27387,0.75 -0.35009,1.05c-1.29096,5.53333 -4.15079,9.1 -8.5795,10.7c-0.1,0 -0.18333,0 -0.25,0c-5.83808,-0.2 -11.0642,-0.95 -15.67838,-2.25c0.06667,0 0.13572,-0.01667 0.20715,-0.05c8.01458,-3.36667 16.23152,-6.51667 24.65082,-9.45z" fill="#2b2c3f"/><path d="M665.6263,327.2c4.34828,-7.56667 10.63208,-12.93333 18.8514,-16.1c-3.21943,4.33333 -6.44127,9.15 -9.66555,14.45c-3.10045,5.13333 -5.63667,10.98333 -7.60867,17.55c-1.94341,6.36667 -3.83444,12.71667 -5.67309,19.05c-0.97172,3.3 -1.81964,6.78333 -2.54377,10.45c-0.96711,5.13333 -1.34135,9.96667 -1.12269,14.5c3.64744,2 7.28061,3.98333 10.89948,5.95c0.0619,0.03333 0.14285,0.05 0.24285,0.05c-0.01429,0.1 -0.00477,0.15 0.02856,0.15c0.46188,0.26667 0.99996,0.46667 1.61423,0.6c2.4999,1.16667 5.12362,2.16667 7.87117,3c3.00468,0.9 6.16653,1.51667 9.48555,1.85c12.00466,1.13333 23.07615,0.51667 33.21445,-1.85c6.23822,-1.43333 11.3099,-4.26667 15.21503,-8.5c0.24779,-1.96667 0.40275,-4.21667 0.46487,-6.75c0.10535,-6.8 0.34881,-13.63333 0.73036,-20.5c0.85367,-14.83333 4.05244,-28 9.5963,-39.5c0.06667,0 0.13095,0.01667 0.19285,0.05c5.25203,4.06667 8.8063,9.63333 10.66283,16.7c-0.66245,6.26667 -1.30585,12.51667 -1.93021,18.75c-1.36791,14.23333 -2.80486,28.48333 -4.31087,42.75c-0.82445,7.4 -1.26793,14.46667 -1.33042,21.2c-0.17257,13.1 -0.29514,26.2 -0.36771,39.3c-0.36211,2.3 -1.60984,3.68333 -3.74322,4.15c-1.44765,0.33333 -2.89054,0.75 -4.32868,1.25c-11.53844,4 -24.15534,6.68333 -37.8507,8.05c-3.51431,0.33333 -7.20719,0.51667 -11.07862,0.55c-15.1762,0.06667 -28.41893,-1.38333 -39.72819,-4.35c-11.63307,-3.03333 -21.06836,-7.91667 -28.30587,-14.65c-0.70947,-0.63333 -1.36417,-1.3 -1.96411,-2c3.22018,-12.96667 6.68561,-26.13333 10.3963,-39.5c3.67734,-13.13333 7.65941,-25.95 11.94621,-38.45c4.25822,-12.3 8.87354,-24.18333 13.84597,-35.65c1.90039,-4.43333 3.99837,-8.61667 6.29395,-12.55z" fill="#fefefe"/><path d="M569.53376,252.84366c-0.03727,-1.90644 -0.09809,-3.40815 -0.18245,-4.50513c-0.83342,-8.69178 1.77654,-14.50246 7.82989,-17.43204c0.06627,-0.00712 0.15088,0.00055 0.25385,0.023c0.98225,0.09555 1.72598,-0.00112 2.2312,-0.29003c1.74157,-1.25967 3.0298,-2.8393 3.86469,-4.73891c0.92005,-2.04282 1.34241,-4.35057 1.26706,-6.92325c-0.27399,-9.72387 1.22225,-17.94537 4.48871,-24.66451c4.76019,-9.66152 13.18269,-16.43194 25.2675,-20.31128c12.11795,-3.8829 25.1267,-6.80575 39.02625,-8.76854c14.393,-2.04934 28.96482,-3.68217 43.71545,-4.89851c1.95846,-0.17693 3.57149,0.01843 4.83908,0.58607c4.5618,-0.59073 9.16099,-0.83356 13.79756,-0.72849c13.37957,0.3722 26.26584,1.30016 38.65881,2.78387c12.29356,1.49439 23.47634,4.34826 33.54832,8.56159c3.82878,1.63309 7.29734,3.65681 10.40568,6.07116c7.21454,5.69346 12.15548,14.24551 14.82281,25.65616c1.60916,6.86556 2.93298,13.25903 3.97146,19.18042c0.06627,-0.00712 0.13432,0.00233 0.20414,0.02834c5.50248,2.86094 11.01797,5.68696 16.54647,8.47807c0.40559,2.83884 0.70699,5.48777 0.90419,7.94681c1.2826,14.74352 1.70878,28.69088 1.27852,41.84207c-0.41602,13.28373 -1.373,26.05581 -2.87095,38.31624c-0.39783,3.15979 -0.66491,6.28876 -0.80123,9.38693c-0.25011,5.33872 -1.88072,9.50241 -4.89186,12.49105c-0.53633,0.5355 -1.11959,1.03389 -1.74978,1.49517c-0.0994,0.01068 -0.18046,0.03615 -0.24316,0.0764c-1.59508,0.43953 -3.22686,0.84949 -4.89532,1.22987c0.01068,0.0994 0.00302,0.18402 -0.023,0.25385c-0.17285,0.95128 -0.32167,1.90573 -0.44644,2.86336c-0.12284,0.93791 -0.22373,1.87046 -0.30268,2.79764c-0.25648,2.96562 -0.3023,5.97028 -0.13746,9.01396c-6.89565,3.82449 -14.7767,6.90019 -23.64316,9.22711c-6.2916,1.64804 -12.308,3.51788 -18.04918,5.60952c-2.85168,1.02441 -5.74597,2.00575 -8.68284,2.944c-9.11772,2.98837 -18.63672,5.63678 -28.55701,7.94523c-6.50821,1.50373 -13.33188,2.72295 -20.47101,3.65767c-10.43829,1.42329 -21.27897,2.68871 -32.52206,3.79628c-7.32972,0.72058 -14.19928,0.88896 -20.60866,0.50515c-12.95842,-0.81965 -25.00417,-2.65908 -36.13724,-5.51829c-7.13937,-1.85643 -13.32589,-4.84496 -18.55957,-8.9656c-0.99609,-0.75314 -1.9537,-1.55518 -2.87284,-2.40614c-0.00712,-0.06627 -0.03259,-0.14732 -0.0764,-0.24316c-0.42205,-1.16072 -0.83365,-2.33985 -1.23478,-3.53738c-0.42958,-1.2259 -0.84829,-2.47129 -1.25614,-3.73618c-0.0994,0.01068 -0.18402,0.00302 -0.25385,-0.023c-7.42396,-1.716 -11.79062,-7.263 -13.09998,-16.641c-2.61569,-1.26069 -4.95043,-2.86998 -7.00422,-4.82787c-2.08337,-1.92119 -3.63673,-4.36856 -4.6601,-7.34212c-1.36924,-4.00892 -2.53913,-8.19008 -3.50967,-12.54349c-2.76593,-12.64017 -5.02392,-26.32366 -6.77396,-41.05046c-1.35731,-11.38384 -2.15886,-22.27437 -2.40466,-32.6716M580.50722,240.80516c-0.09584,0.04382 -0.1769,0.06928 -0.24316,0.0764c-2.57479,4.73437 -3.77587,10.71207 -3.60324,17.93309c0.21565,8.55706 0.84739,17.5554 1.89523,26.99501c0.01068,0.0994 0.00302,0.18402 -0.023,0.25385c-0.03175,0.64023 0.11215,1.04372 0.43172,1.21048c0.0178,0.16567 0.0356,0.33134 0.05341,0.49701c0.01068,0.0994 0.01958,0.18224 0.0267,0.2485c2.08792,12.88061 4.41065,25.45109 6.96819,37.71146c0.70162,3.41033 2.0225,6.03351 3.96265,7.86954c7.28947,-0.78328 14.57716,-1.58314 21.86307,-2.39955c14.70435,-1.64708 29.35011,-3.37165 43.93726,-5.17372l0.0994,-0.01068c-0.03974,-2.24134 -0.14753,-4.49212 -0.32337,-6.75235c0.06627,-0.00712 0.1491,-0.01602 0.2485,-0.0267c13.35327,-0.4964 26.70476,-1.00937 40.05447,-1.53891c0.06627,-0.00712 0.11775,0.00411 0.15444,0.03368c0.5611,0.54301 1.0039,1.23279 1.32841,2.06935c0.23659,-0.29355 0.43361,-0.33148 0.59107,-0.11379c1.24434,1.9108 2.28166,4.07846 3.11196,6.50298c0.40117,-0.00959 0.8189,-0.02096 1.2532,-0.03411c13.94612,-0.59362 27.80886,-1.02746 41.58823,-1.30152c14.0113,-0.29898 27.8598,-0.86535 41.5455,-1.69913c0.20092,-4.68039 0.34858,-9.38857 0.44297,-14.12454c0.30949,-13.33932 0.64979,-26.54788 1.0209,-39.62569c0.40533,-13.38313 0.8397,-26.65208 1.30309,-39.80684c-11.26205,-2.81183 -23.43554,-4.43643 -36.52047,-4.87381c-6.75962,-0.21211 -13.39382,-0.50474 -19.9026,-0.87787c-12.98088,-0.71669 -26.56034,-0.76576 -40.7384,-0.14722c-8.60909,0.3553 -17.27376,0.81713 -25.99402,1.38547c-15.27257,1.03781 -29.5674,2.90901 -42.88449,5.61362c-7.57561,1.5514 -14.9364,3.23053 -22.08237,5.03741c-0.71471,0.21086 -1.44598,0.42351 -2.19382,0.63793l0.01068,0.0994c-6.94636,0.54532 -12.74041,1.98907 -17.38214,4.33125M670.1032,333.03442c0.01068,0.0994 0.01958,0.18224 0.0267,0.2485c-0.41483,1.75392 -1.16347,3.20854 -2.24592,4.36387c-0.02957,0.03669 -0.0408,0.08818 -0.03368,0.15444c-12.7719,1.53998 -25.37443,3.5645 -37.80759,6.07358c-0.0994,0.01068 -0.18224,0.01958 -0.2485,0.0267c2.27467,12.12318 5.79142,22.70519 10.55027,31.74604c0.00356,0.03313 0.05504,0.04436 0.15444,0.03368c12.56685,1.23041 25.77486,1.7216 39.62405,1.47355c13.64683,-0.25981 28.01464,-1.45177 43.10345,-3.57588c4.95229,-0.69973 9.64594,-1.62304 14.08095,-2.76993c4.62669,-1.23452 8.9853,-2.62458 13.07582,-4.17017c4.49323,-8.09107 7.91875,-17.0729 10.27659,-26.94551c-0.00356,-0.03313 0.04436,-0.05504 0.14376,-0.06572c-0.08545,-0.79521 -0.17446,-1.62356 -0.26703,-2.48505c-0.00712,-0.06627 -0.01602,-0.1491 -0.0267,-0.2485c-13.48363,-0.09289 -27.20439,0.25866 -41.16228,1.05465c-5.99615,0.34266 -11.67467,0.3663 -17.03553,0.07092c-1.75145,-0.07993 -3.30122,-0.46642 -4.64932,-1.15948c-1.37963,-3.16989 -2.58182,-6.55994 -3.60657,-10.17017c-0.00712,-0.06627 -0.01602,-0.1491 -0.0267,-0.2485c-8.07647,0.63324 -16.13816,1.24812 -24.18506,1.84467c-0.0994,0.01068 -0.18224,0.01958 -0.2485,0.0267c0.16734,1.5573 0.33646,3.13116 0.50735,4.72159z" fill-opacity="0.99608" fill="#000000"/><path d="M670.1299,333.28293c-0.00712,-0.06627 -0.01602,-0.1491 -0.0267,-0.2485c-0.1709,-1.59043 -0.34002,-3.16429 -0.50735,-4.72159c0.06627,-0.00712 0.1491,-0.01602 0.2485,-0.0267c8.0469,-0.59654 16.10859,-1.21143 24.18506,-1.84467c0.01068,0.0994 0.01958,0.18224 0.0267,0.2485c1.02475,3.61022 2.22694,7.00028 3.60657,10.17017c1.3481,0.69305 2.89787,1.07955 4.64932,1.15948c5.36087,0.29538 11.03938,0.27174 17.03553,-0.07092c13.95789,-0.79599 27.67865,-1.14754 41.16228,-1.05465c0.01068,0.0994 0.01958,0.18224 0.0267,0.2485c0.09257,0.86148 0.18158,1.68983 0.26703,2.48505c-0.0994,0.01068 -0.14732,0.03259 -0.14376,0.06572c-2.35783,9.8726 -5.78336,18.85444 -10.27659,26.94551c-4.09052,1.54559 -8.44913,2.93564 -13.07582,4.17017c-4.43501,1.14689 -9.12866,2.0702 -14.08095,2.76993c-15.08881,2.1241 -29.45663,3.31606 -43.10345,3.57588c-13.84919,0.24804 -27.05721,-0.24314 -39.62405,-1.47355c-0.0994,0.01068 -0.15088,-0.00055 -0.15444,-0.03368c-4.75885,-9.04085 -8.2756,-19.62287 -10.55027,-31.74604c0.06627,-0.00712 0.1491,-0.01602 0.2485,-0.0267c12.43315,-2.50907 25.03568,-4.5336 37.80759,-6.07358c-0.00712,-0.06627 0.00411,-0.11775 0.03368,-0.15444c1.08245,-1.15533 1.83109,-2.60995 2.24592,-4.36387M580.26406,240.88156c0.06627,-0.00712 0.14732,-0.03259 0.24316,-0.0764c4.64174,-2.34218 10.43578,-3.78593 17.38214,-4.33125l-0.01068,-0.0994c0.74784,-0.21442 1.47911,-0.42707 2.19382,-0.63793c7.14596,-1.80688 14.50675,-3.48601 22.08237,-5.03741c13.31709,-2.70461 27.61192,-4.57581 42.88449,-5.61362c8.72026,-0.56835 17.38493,-1.03017 25.99402,-1.38547c14.17806,-0.61855 27.75753,-0.56947 40.7384,0.14722c6.50878,0.37313 13.14299,0.66576 19.9026,0.87787c13.08493,0.43738 25.25842,2.06198 36.52047,4.87381c-0.46339,13.15476 -0.89775,26.4237 -1.30309,39.80684c-0.37111,13.07781 -0.71141,26.28637 -1.0209,39.62569c-0.0944,4.73597 -0.24206,9.44415 -0.44297,14.12454c-13.6857,0.83377 -27.5342,1.40015 -41.5455,1.69913c-13.77936,0.27406 -27.6421,0.7079 -41.58823,1.30152c-0.4343,0.01315 -0.85204,0.02452 -1.2532,0.03411c-0.83031,-2.42452 -1.86763,-4.59218 -3.11196,-6.50298c-0.15746,-0.2177 -0.35448,-0.17977 -0.59107,0.11379c-0.32451,-0.83656 -0.76731,-1.52634 -1.32841,-2.06935c-0.03669,-0.02957 -0.08818,-0.0408 -0.15444,-0.03368c-13.34971,0.52954 -26.7012,1.04251 -40.05447,1.53891c-0.0994,0.01068 -0.18224,0.01958 -0.2485,0.0267c0.17584,2.26023 0.28363,4.51101 0.32337,6.75235l-0.0994,0.01068c-14.58715,1.80207 -29.2329,3.52664 -43.93726,5.17372c-7.28591,0.81642 -14.5736,1.61627 -21.86307,2.39955c-1.94015,-1.83603 -3.26103,-4.45921 -3.96265,-7.86954c-2.55754,-12.26036 -4.88027,-24.83085 -6.96819,-37.71146c-0.00712,-0.06627 -0.01602,-0.1491 -0.0267,-0.2485c-0.0178,-0.16567 -0.0356,-0.33134 -0.05341,-0.49701c-0.31957,-0.16676 -0.46347,-0.57025 -0.43172,-1.21048c0.02601,-0.06983 0.03368,-0.15444 0.023,-0.25385c-1.04784,-9.43962 -1.67959,-18.43795 -1.89523,-26.99501c-0.17263,-7.22102 1.02845,-13.19872 3.60324,-17.93309z" fill="#fefefe"/><path d="M681.35,375.1c23.1,-1.06667 36.3,-1.98333 39.6,-2.75c-2.83333,1.36667 -7.85,2.58333 -15.05,3.65c-9.9,1.5 -18.08333,1.2 -24.55,-0.9M663.15,347.25c-0.71237,-0.67461 -1.91237,-1.09128 -3.6,-1.25c-1.65273,-0.12904 -2.6694,-0.32904 -3.05,-0.6c-0.34766,-0.23424 -0.56432,-0.65091 -0.65,-1.25c-0.05638,-0.60104 0.14362,-1.03437 0.6,-1.3c0.46693,-0.22917 5.25026,-0.34583 14.35,-0.35c9.0957,0.02904 15.06237,-0.08763 17.9,-0.35c2.83503,-0.26536 7.48503,-0.7487 13.95,-1.45c5.66667,-0.66667 9.5,-1.2 11.5,-1.6c2.5,-0.5 4.55,-1.15 6.15,-1.95c1.23333,-0.63333 2.8,-1.7 4.7,-3.2c1.5,-1.16667 3.5,-1.53333 6,-1.1c2.03333,0.33333 3.36667,0.81667 4,1.45c0.5,0.5 1.25,1.38333 2.25,2.65c1.16667,1.53333 2.03333,2.78333 2.6,3.75c0.76667,1.33333 1.2,2.76667 1.3,4.3c0.13333,1.93333 -0.3,3.83333 -1.3,5.7c-1,1.86667 -3.11667,4.75 -6.35,8.65c-3.03333,3.66667 -4.85,5.68333 -5.45,6.05c-0.43333,0.26667 -1.23333,0.48333 -2.4,0.65c-2.2,0.33333 -4.43333,0.66667 -6.7,1c-2.8,0.43333 -7.55,1.05 -14.25,1.85l-9.2,1.05c-9.67799,0.83086 -15.59466,1.14753 -17.75,0.95c-2.12956,-0.16589 -4.36289,-0.48255 -6.7,-0.95c-2,-0.4 -2.73333,-1.23333 -2.2,-2.5c0.03333,-0.06667 0.7,-0.96667 2,-2.7c0.5,-0.63333 0.78333,-1.18333 0.85,-1.65c0.06667,-0.5 -0.03333,-1.33333 -0.3,-2.5c-0.23333,-1.1 -1.3,-3.13333 -3.2,-6.1c-1.6,-2.53333 -3.11667,-4.73333 -4.55,-6.6c-0.20417,-0.26341 -0.37083,-0.48008 -0.5,-0.65M677.7,350.5c0.25586,0.68828 0.90586,1.33828 1.95,1.95c1.04531,0.65026 6.36198,0.76693 15.95,0.35c9.58659,-0.38411 17.38659,-1.48411 23.4,-3.3c6.04635,-1.78646 10.74635,-3.48646 14.1,-5.1c1.83333,-1.13333 2.73333,-2.05 2.7,-2.75c-0.03333,-0.46667 -0.26667,-0.93333 -0.7,-1.4c-0.33333,-0.36667 -0.65,-0.6 -0.95,-0.7c-0.66758,0.24609 -1.88424,0.57943 -3.65,1c-1.72904,0.42214 -5.22904,1.1388 -10.5,2.15c-5.24219,1.03984 -9.60885,1.77318 -13.1,2.2c-3.45625,0.4625 -7.93958,0.97917 -13.45,1.55c-5.47018,0.6013 -10.97018,1.11797 -16.5,1.55c0.24492,0.97279 0.49492,1.80612 0.75,2.5M695,356.7l-3.9,0.05c-1.66667,2.5 -3.7,4.78333 -6.1,6.85l2.2,2.65c4.6,0.53333 10.65,0.25 18.15,-0.85c6.2,-0.93333 11.88333,-2.15 17.05,-3.65c3.6,-1.03333 6.43333,-2.95 8.5,-5.75c1.03333,-1.4 1.7,-2.7 2,-3.9c-1.9,-0.16667 -3.2,-0.11667 -3.9,0.15c-0.9,1.3 -1.65,2.18333 -2.25,2.65c-0.9,0.7 -2.48333,1.46667 -4.75,2.3c-2.4,0.9 -6.91667,1.8 -13.55,2.7c-6.53333,0.93333 -10.41667,1.23333 -11.65,0.9c-1,-0.26667 -1.6,-1.03333 -1.8,-2.3z" fill="#000000"/><path d="M696.8,360.8c1.23333,0.33333 5.11667,0.03333 11.65,-0.9c6.63333,-0.9 11.15,-1.8 13.55,-2.7c2.26667,-0.83333 3.85,-1.6 4.75,-2.3c0.6,-0.46667 1.35,-1.35 2.25,-2.65c0.7,-0.26667 2,-0.31667 3.9,-0.15c-0.3,1.2 -0.96667,2.5 -2,3.9c-2.06667,2.8 -4.9,4.71667 -8.5,5.75c-5.16667,1.5 -10.85,2.71667 -17.05,3.65c-7.5,1.1 -13.55,1.38333 -18.15,0.85l-2.2,-2.65c2.4,-2.06667 4.43333,-4.35 6.1,-6.85l3.9,-0.05v1.8c0.2,1.26667 0.8,2.03333 1.8,2.3M693.45,346.45c5.51042,-0.57083 9.99375,-1.0875 13.45,-1.55c3.49115,-0.42682 7.85781,-1.16016 13.1,-2.2c5.27096,-1.0112 8.77096,-1.72786 10.5,-2.15c1.76576,-0.42057 2.98242,-0.75391 3.65,-1c0.3,0.1 0.61667,0.33333 0.95,0.7c0.43333,0.46667 0.66667,0.93333 0.7,1.4c0.03333,0.7 -0.86667,1.61667 -2.7,2.75c-3.35365,1.61354 -8.05365,3.31354 -14.1,5.1c-6.01341,1.81589 -13.81341,2.91589 -23.4,3.3c-9.58802,0.41693 -14.90469,0.30026 -15.95,-0.35c-1.04414,-0.61172 -1.69414,-1.26172 -1.95,-1.95c-0.25508,-0.69388 -0.50508,-1.52721 -0.75,-2.5c5.52982,-0.43203 11.02982,-0.9487 16.5,-1.55z" fill="#ffffff"/><path d="M582.51721,422.43755c-0.53125,1.52273 -1.2247,2.82543 -2.08034,3.90811c-2.67098,3.44594 -5.4722,6.7392 -8.40364,9.87976c-7.22659,7.75347 -16.36212,13.4842 -27.4066,17.19217c-1.06641,-0.02183 -2.14948,-0.04399 -3.24921,-0.0665c-0.09998,-0.00205 -0.18329,-0.00375 -0.24994,-0.00512c-4.46948,-3.15868 -8.54821,-6.67609 -12.2362,-10.55224c-0.03196,-0.06733 -0.04726,-0.13432 -0.0459,-0.20097c-6.86918,1.69306 -14.29904,2.27446 -22.28958,1.74418c-3.16317,-0.1981 -5.57578,-1.23098 -7.23785,-3.09865c-3.58461,-4.04073 -5.45321,-9.66328 -5.60581,-16.86766c-0.08146,-2.53544 0.29612,-4.69476 1.13276,-6.47795c-3.15761,-2.09832 -5.88945,-4.638 -8.19552,-7.61904c-0.03264,-0.03401 -0.08229,-0.05169 -0.14894,-0.05306c-6.39707,-0.19761 -12.451,-0.87161 -18.16179,-2.02201c-2.22529,-0.41228 -3.97208,-1.39819 -5.24039,-2.95775c-4.19596,-5.12009 -6.94593,-11.66084 -8.2499,-19.62225c-0.53642,-3.11152 -0.97116,-6.30431 -1.30422,-9.57836c-0.71776,-7.28263 -0.43987,-14.34484 0.8337,-21.18664c1.01028,-5.38027 2.64043,-10.09773 4.89046,-14.1524c2.04121,-3.62553 5.076,-6.11386 9.10435,-7.465c0.87259,-0.28219 1.44185,-0.4039 1.70777,-0.36512c-0.00136,0.06665 0.01393,0.13364 0.0459,0.20097c1.22748,1.92545 2.42095,3.88355 3.58042,5.87429c-0.09998,-0.00205 -0.18295,-0.02041 -0.24892,-0.0551c-1.62748,-0.30002 -3.12916,-0.23074 -4.50504,0.20785c-5.43093,4.72302 -8.42859,11.91294 -8.99296,21.56974c-0.70187,11.48764 0.22793,21.44174 2.7894,29.8623c0.24955,0.83859 0.41749,1.59215 0.50383,2.2607c0.39562,3.47537 1.76317,5.88711 4.10266,7.23522c2.40409,1.44945 5.23259,2.52418 8.4855,3.22421c3.41885,0.73676 6.76804,0.8053 10.04755,0.20564c-0.69564,-1.84789 -1.61131,-3.53359 -2.74699,-5.0571c-1.78446,-2.4036 -2.69291,-5.25602 -2.72536,-8.55726c2.02651,3.60877 4.18904,7.08696 6.48761,10.43458c1.3601,1.96151 2.83956,3.7921 4.43839,5.49178c1.46826,1.56365 2.91985,3.12696 4.35479,4.68993c3.91445,4.21417 9.57286,5.48018 16.97524,3.79804c0.00205,-0.09998 0.00375,-0.18329 0.00512,-0.24994c0.26407,-3.12848 0.57028,-5.87269 0.91863,-8.23264c-0.00136,0.06665 -0.00307,0.14996 -0.00512,0.24994c1.16268,5.09135 2.90349,9.62776 5.22242,13.60925c0.06665,0.00136 0.13296,0.01939 0.19893,0.05408c5.61072,2.78197 12.34368,4.48671 20.19887,5.11423c0.06665,0.00136 0.14996,0.00307 0.24994,0.00512c0.7998,0.01637 1.29286,0.35985 1.47917,1.03045c-0.09998,-0.00205 -0.18329,-0.00375 -0.24994,-0.00512c-2.59537,1.38046 -5.77934,2.19879 -9.55191,2.45496c-2.33754,0.18553 -4.48633,0.10821 -6.44638,-0.23196c-2.7238,-0.48916 -5.07118,-0.63722 -7.04214,-0.44418c-0.09998,-0.00205 -0.18295,-0.02041 -0.24892,-0.0551c-2.18378,-0.8115 -3.56804,-2.40677 -4.15279,-4.78582c-0.09998,-0.00205 -0.16628,-0.02007 -0.19893,-0.05408c-0.52229,-0.54412 -1.11225,-1.03961 -1.76989,-1.48648c-0.09998,-0.00205 -0.18329,-0.00375 -0.24994,-0.00512c-3.20672,0.3011 -6.20769,0.32303 -9.00292,0.06578c-0.09998,-0.00205 -0.16697,0.01325 -0.20097,0.0459c-1.05627,1.11191 -1.8514,2.49588 -2.38538,4.15191c0.43109,1.74246 0.92882,3.48628 1.49321,5.23147c1.59659,5.06689 5.67674,7.70084 12.24044,7.90186c1.99883,0.07425 3.80419,-0.17218 5.41607,-0.7393c4.36501,-1.51094 9.15571,-1.82963 14.37207,-0.95606c0.91878,0.71893 1.7522,1.53612 2.50027,2.45159c2.04833,2.54236 4.14768,5.03576 6.29803,7.48019c0.06665,0.00136 0.14996,0.00307 0.24994,0.00512c0.73384,-0.01832 1.48365,-0.00297 2.24945,0.04604c10.45758,-4.35343 19.21737,-10.45857 26.27939,-18.31543c2.52472,-2.81549 5.11473,-5.56297 7.77003,-8.24244c1.45471,0.59654 2.79108,1.274 4.00911,2.0324c0.03264,0.03401 0.09895,0.05203 0.19893,0.05408z" fill-opacity="0.99608" fill="#2b2c3f"/><path d="M612.31176,322.77985c0.06665,0.00136 0.14962,0.01973 0.24892,0.0551c1.02626,0.3544 2.10626,0.52653 3.24,0.51639c2.97403,1.29442 6.06811,2.4246 9.28224,3.39054c5.66655,1.68292 10.36458,4.26284 14.09408,7.73977c7.65282,7.25787 12.92478,16.81742 15.8159,28.67866c0.18894,2.17091 0.30953,4.42377 0.36176,6.75858c0.18183,7.40501 -0.69758,13.72145 -2.63823,18.94932c-4.05884,10.98553 -10.54994,19.45418 -19.47329,25.40595c-8.89003,5.95245 -20.14702,9.45604 -33.77098,10.51076c-6.2284,-0.29417 -11.87902,-1.12662 -16.95186,-2.49733l-0.00307,0.14996c-0.09998,-0.00205 -0.16628,-0.02007 -0.19893,-0.05408c-1.21803,-0.75839 -2.5544,-1.43586 -4.00911,-2.0324c-2.65529,2.67946 -5.2453,5.42694 -7.77003,8.24244c-7.06201,7.85686 -15.82181,13.962 -26.27939,18.31543c-0.7658,-0.04901 -1.51561,-0.06436 -2.24945,-0.04604c-0.09998,-0.00205 -0.18329,-0.00375 -0.24994,-0.00512c-2.15035,-2.44443 -4.2497,-4.93783 -6.29803,-7.48019c-0.74806,-0.91547 -1.58149,-1.73267 -2.50027,-2.45159c-5.21637,-0.87356 -10.00706,-0.55488 -14.37207,0.95606c-1.61189,0.56711 -3.41724,0.81355 -5.41607,0.7393c-6.5637,-0.20102 -10.64385,-2.83497 -12.24044,-7.90186c-0.56439,-1.74519 -1.06212,-3.48901 -1.49321,-5.23147c0.53398,-1.65603 1.32911,-3.04 2.38538,-4.15191c0.03401,-0.03264 0.101,-0.04794 0.20097,-0.0459c2.79522,0.25724 5.7962,0.23532 9.00292,-0.06578c0.06665,0.00136 0.14996,0.00307 0.24994,0.00512c0.65764,0.44687 1.2476,0.94236 1.76989,1.48648c0.03264,0.03401 0.09895,0.05203 0.19893,0.05408c0.58475,2.37905 1.96902,3.97432 4.15279,4.78582c0.06597,0.03469 0.14894,0.05306 0.24892,0.0551c1.97096,-0.19303 4.31834,-0.04497 7.04214,0.44418c1.96005,0.34017 4.10884,0.41749 6.44638,0.23196c3.77257,-0.25618 6.95654,-1.0745 9.55191,-2.45496c0.06665,0.00136 0.14996,0.00307 0.24994,0.00512c-0.18631,-0.6706 -0.67937,-1.01408 -1.47917,-1.03045c-0.09998,-0.00205 -0.18329,-0.00375 -0.24994,-0.00512c-7.8552,-0.62752 -14.58815,-2.33226 -20.19887,-5.11423c-0.06597,-0.03469 -0.13228,-0.05272 -0.19893,-0.05408c-2.31893,-3.98148 -4.05974,-8.5179 -5.22242,-13.60925c0.00205,-0.09998 0.00375,-0.18329 0.00512,-0.24994c-0.34835,2.35995 -0.65456,5.10416 -0.91863,8.23264c-0.00136,0.06665 -0.00307,0.14996 -0.00512,0.24994c-7.40238,1.68215 -13.0608,0.41614 -16.97524,-3.79804c-1.43493,-1.56297 -2.88653,-3.12628 -4.35479,-4.68993c-1.59883,-1.69968 -3.0783,-3.53028 -4.43839,-5.49178c-2.29856,-3.34762 -4.4611,-6.82581 -6.48761,-10.43458c0.03245,3.30124 0.94091,6.15366 2.72536,8.55726c1.13569,1.52351 2.05135,3.2092 2.74699,5.0571c-3.27951,0.59966 -6.62869,0.53111 -10.04755,-0.20564c-3.25291,-0.70002 -6.08141,-1.77476 -8.4855,-3.22421c-2.33949,-1.34811 -3.70704,-3.75985 -4.10266,-7.23522c-0.08633,-0.66855 -0.25428,-1.42212 -0.50383,-2.2607c-2.56147,-8.42055 -3.49127,-18.37465 -2.7894,-29.8623c0.56438,-9.6568 3.56203,-16.84672 8.99296,-21.56974c1.37588,-0.43859 2.87756,-0.50787 4.50504,-0.20785c0.06597,0.03469 0.14894,0.05306 0.24892,0.0551c-1.15947,-1.99074 -2.35294,-3.94884 -3.58042,-5.87429c-0.03196,-0.06733 -0.04726,-0.13432 -0.0459,-0.20097c0.06665,0.00136 0.14996,0.00307 0.24994,0.00512c5.6762,-0.41725 11.5064,-0.21458 17.49061,0.60802c3.9006,-3.25408 8.19327,-6.11674 12.87799,-8.58797c0.03401,-0.03264 0.05169,-0.08229 0.05306,-0.14894c7.91844,0.79551 15.13973,2.26021 21.66386,4.39408c0.06597,0.03469 0.14894,0.05306 0.24892,0.0551c10.49022,-4.31942 20.80125,-8.84255 30.93308,-13.56937c2.86061,-1.30836 6.16189,-2.15762 9.90387,-2.54778c0.33393,-0.0265 0.66753,-0.03635 1.00078,-0.02953c7.37549,4.51838 13.37335,10.37548 17.99357,17.57128c-0.00068,0.03333 0.04896,0.05101 0.14894,0.05306c7.6759,-3.64356 16.39672,-6.21555 26.16246,-7.71597c0.06665,0.00136 0.14996,0.00307 0.24994,0.00512c0.87873,-0.58212 1.88053,-0.66163 3.00541,-0.23854c0.06597,0.03469 0.14894,0.05306 0.24892,0.0551M612.67863,329.28849c-0.09998,-0.00205 -0.18329,-0.00375 -0.24994,-0.00512c-2.72253,1.07781 -5.23322,2.39333 -7.53208,3.94656c-0.03333,-0.00068 -0.05101,0.04896 -0.05306,0.14894c-1.13851,0.24341 -2.12979,0.62319 -2.97383,1.13934c-1.38407,0.83849 -1.49632,1.4363 -0.33676,1.79342c0.06665,0.00136 0.14996,0.00307 0.24994,0.00512c5.73457,1.61763 11.19741,3.47975 16.38855,5.58634c3.32521,-2.83245 7.18937,-5.12044 11.59249,-6.86398c0.03401,-0.03264 0.05169,-0.08229 0.05306,-0.14894c-4.09676,-3.4511 -9.80955,-5.31833 -17.13836,-5.60169M645.47532,354.16397c-0.03196,-0.06733 -0.04726,-0.13432 -0.0459,-0.20097c-2.22606,1.25467 -4.43581,2.52634 -6.62923,3.81501c-0.06733,0.03196 -0.13432,0.04726 -0.20097,0.0459c2.75079,4.057 5.11016,8.50606 7.07811,13.34717c-0.00068,0.03333 0.04896,0.05101 0.14894,0.05306c0.8837,-4.08263 1.22913,-8.74304 1.03629,-13.98124c0.00205,-0.09998 0.00375,-0.18329 0.00512,-0.24994c-0.44677,-0.97598 -0.91089,-1.91898 -1.39235,-2.82899M643.70353,350.32705c0.03401,-0.03264 0.05169,-0.08229 0.05306,-0.14894c-2.33589,-4.78197 -5.43693,-8.82947 -9.30315,-12.14249c-0.06597,-0.03469 -0.13228,-0.05272 -0.19893,-0.05408c-0.63864,0.25364 -1.39254,0.43825 -2.26173,0.55381l-0.00307,0.14996c-0.09998,-0.00205 -0.18329,-0.00375 -0.24994,-0.00512c-0.09998,-0.00205 -0.18363,0.01291 -0.25096,0.04487c-4.05486,1.0172 -7.50616,2.6802 -10.3539,4.98899c0.06665,0.00136 0.13296,0.01939 0.19893,0.05408c5.37267,3.01047 10.15021,6.59219 14.33262,10.74517c2.17237,-1.88921 4.8514,-3.28463 8.03707,-4.18626M648.93969,373.03816c-0.03264,-0.03401 -0.13535,0.09725 -0.30811,0.39376c-0.68697,0.98611 -0.73802,1.85189 -0.15318,2.59732c1.15079,-0.84326 1.30455,-1.84029 0.46129,-2.99108M640.12883,368.60709c-0.09998,-0.00205 -0.14962,-0.01973 -0.14894,-0.05306c-1.57701,-2.76609 -3.30738,-5.36862 -5.19114,-7.80759c-0.09998,-0.00205 -0.16697,0.01325 -0.20097,0.0459c-2.61242,2.21359 -4.84945,4.81827 -6.71107,7.81403c-0.00136,0.06665 1.41661,0.82913 4.25393,2.28745c2.87065,1.459 5.17954,2.67312 6.92667,3.64238l1.43328,0.82947c0.01978,-0.96643 -0.00975,-1.96721 -0.08858,-3.00234l-0.09998,-0.00205c0.00205,-0.09998 0.00375,-0.18329 0.00512,-0.24994c-0.10943,-1.16911 -0.16887,-2.3372 -0.17832,-3.50426M632.30792,357.34508c0.03401,-0.03264 0.05169,-0.08229 0.05306,-0.14894c-3.70972,-4.44336 -8.32064,-8.02167 -13.83274,-10.73494c-0.06597,-0.03469 -0.13228,-0.05272 -0.19893,-0.05408c-6.41022,3.7028 -11.17163,9.10631 -14.28422,16.21053c-0.03469,0.06597 -0.05306,0.14894 -0.0551,0.24892c6.64185,1.26947 13.28165,2.63892 19.91941,4.10834c0.06597,0.03469 0.14894,0.05306 0.24892,0.0551c2.17724,-3.7561 4.89378,-6.98441 8.14961,-9.68492M621.80144,372.23268c-2.97471,-1.26109 -6.22251,-2.21105 -9.74338,-2.84988c-3.62085,-0.64087 -7.17403,-1.33037 -10.65953,-2.06849c-3.15673,6.00312 -4.75984,13.47162 -4.80933,22.4055c-0.0266,1.29968 0.04746,2.56809 0.22217,3.80521c0.20463,1.40443 1.20945,1.99176 3.01447,1.76199c7.51317,-0.57969 14.37349,-1.83952 20.58094,-3.7795c0.06733,-0.03196 0.15099,-0.04692 0.25096,-0.04487c-1.12722,-6.82426 -0.76435,-13.15127 1.08861,-18.98104c0.03537,-0.09929 0.05374,-0.18227 0.0551,-0.24892M626.03403,373.11945c-0.09929,-0.03537 -0.18227,-0.05374 -0.24892,-0.0551c-0.94684,2.28102 -1.49958,4.85349 -1.65821,7.71741c-0.16477,3.16385 0.09452,5.96964 0.77789,8.41739c0.03196,0.06733 0.13125,0.1027 0.29788,0.10611c5.39137,-2.79016 10.30976,-6.09009 14.75516,-9.89979c0.03401,-0.03264 0.101,-0.04794 0.20097,-0.0459c-4.48653,-2.32555 -9.19479,-4.40559 -14.12477,-6.24013M613.55811,344.95923c0.03401,-0.03264 0.05169,-0.08229 0.05306,-0.14894c-3.85744,-2.11264 -8.41237,-3.53943 -13.66479,-4.28038c-0.09998,-0.00205 -0.18329,-0.00375 -0.24994,-0.00512l0.00307,-0.14996c-1.73086,-0.13544 -3.30972,-0.36779 -4.73656,-0.69705c-7.15371,5.82129 -13.23087,12.79815 -18.2315,20.93058c-0.75771,1.1847 -0.75776,2.00151 -0.00014,2.45042c2.88097,-0.6745 5.80989,-1.24799 8.78674,-1.72049l-0.00307,0.14996l-0.00205,0.09998c3.63654,-0.12561 7.3846,0.00111 11.24418,0.38016l-0.00205,0.09998c0.59713,0.14558 1.17929,0.2075 1.7465,0.18577c0.17345,-0.32984 0.33023,-0.66002 0.47035,-0.99055c0.03537,-0.09929 0.05374,-0.18227 0.0551,-0.24892c0.06665,0.00136 0.14996,0.00307 0.24994,0.00512c3.50362,-6.6628 8.26401,-12.01632 14.28115,-16.06056M592.31592,334.62273c0.56448,0.11157 1.06095,0.28843 1.4894,0.53057c1.25895,-1.24112 2.68146,-2.32887 4.26752,-3.26324c0.03401,-0.03264 0.05169,-0.08229 0.05306,-0.14894c-2.84833,0.7085 -4.91795,1.64965 -6.20886,2.82344l0.39888,0.05817M588.20947,339.7896c-0.85554,-0.55094 -2.03756,-0.62514 -3.54606,-0.2226c-1.33983,0.30597 -2.57729,0.49735 -3.7124,0.57413c-9.38036,5.47567 -15.92212,13.97662 -19.6253,25.50285c-0.21564,0.76239 -0.14597,1.4306 0.20901,2.00463c0.06529,0.06801 0.18124,0.10373 0.34787,0.10714c2.3274,-1.31927 4.93193,-2.33282 7.81359,-3.04064c0.06733,-0.03196 0.15099,-0.04692 0.25096,-0.04487c2.52959,-4.68239 5.2224,-9.19474 8.07843,-13.53705c2.85602,-4.34231 6.25066,-8.12351 10.18391,-11.34358M595.74069,367.64858c0.00136,-0.06665 -0.0306,-0.13398 -0.09588,-0.202c-1.55469,-0.59859 -3.48482,-0.77145 -5.7904,-0.51858c-2.00429,0.19235 -3.90996,0.4534 -5.71702,0.78315c-0.09998,-0.00205 -0.18329,-0.00375 -0.24994,-0.00512c-3.77052,0.1562 -7.19829,0.66948 -10.28331,1.53984c-1.11415,2.31094 -1.82976,4.69671 -2.14684,7.15732c-0.67634,5.35376 -0.53417,10.62426 0.42652,15.81149c0.06665,0.00136 0.14962,0.01973 0.24892,0.0551c4.63415,1.62845 9.86275,2.71897 15.68579,3.27156c1.07391,-0.34475 2.15902,-0.42256 3.25535,-0.23343c0.06597,0.03469 0.14894,0.05306 0.24892,0.0551c0.06665,0.00136 0.14996,0.00307 0.24994,0.00512c0.49783,0.11021 0.996,0.20375 1.49452,0.28063c-1.88015,-5.87283 -1.88795,-12.0074 -0.0234,-18.40369c0.93057,-3.11483 1.82952,-6.31366 2.69685,-9.59649M561.06729,370.93962c-0.10066,0.03128 -0.18431,0.04624 -0.25096,0.04487c-0.72263,5.98626 -0.29992,11.39585 1.26812,16.22878c-0.00068,0.03333 0.04896,0.05101 0.14894,0.05306c1.34451,1.09437 2.91074,1.94324 4.69871,2.5466c0.06597,0.03469 0.14894,0.05306 0.24892,0.0551c-1.08571,-7.22348 -0.54939,-13.88033 1.60895,-19.97056c0.03537,-0.09929 0.05374,-0.18227 0.0551,-0.24892c-2.83742,0.1753 -5.43001,0.60566 -7.77778,1.29107M572.2258,336.41193c0.03469,-0.06597 0.05272,-0.13228 0.05408,-0.19893c-6.33188,1.50402 -11.45563,4.24965 -15.37124,8.23689c-0.03401,0.03264 -0.05203,0.09895 -0.05408,0.19893c-0.09998,-0.00205 -0.18363,0.01291 -0.25096,0.04487c-0.30334,0.16049 -0.55805,0.38865 -0.76414,0.68448c-0.09998,-0.00205 -0.1503,0.01359 -0.15099,0.04692c-1.06241,1.41184 -2.12414,2.79035 -3.18518,4.13554c-0.09998,-0.00205 -0.1503,0.01359 -0.15099,0.04692c-1.20117,1.67571 -2.43464,3.30076 -3.70041,4.87513c-0.00136,0.06665 -0.01939,0.13296 -0.05408,0.19893c-3.51707,4.06207 -5.45129,9.79016 -5.80266,17.18426c-0.13954,1.93082 -0.04034,3.5998 0.29759,5.00696c0.36785,1.57447 0.67006,3.09759 0.90665,4.56935c1.42227,8.69729 4.98871,15.25475 10.6993,19.67238c0.89578,-1.41525 0.67483,-2.83669 -0.66285,-4.26431c-0.26046,-0.30538 -0.50358,-0.64375 -0.72935,-1.0151c-0.64536,-1.04672 -1.20638,-2.14173 -1.68307,-3.28502c-0.70568,-4.61525 -1.25969,-9.31074 -1.66203,-14.08647c-0.16107,-1.90363 -0.22217,-3.80521 -0.18329,-5.70475c0.30022,-4.89471 1.28559,-9.05861 2.95614,-12.49169c0.03469,-0.06597 0.05272,-0.13228 0.05408,-0.19893c0.45096,-0.85759 0.78631,-1.76755 1.00604,-2.72989c0.03537,-0.09929 0.05374,-0.18227 0.0551,-0.24892c0.06665,0.00136 0.14996,0.00307 0.24994,0.00512c0.31016,-0.49374 0.60331,-0.97116 0.87946,-1.43225c0.00068,-0.03333 0.05101,-0.04896 0.15099,-0.04692c0.06665,0.00136 0.14996,0.00307 0.24994,0.00512c0.83595,-1.74987 1.85179,-3.32935 3.0475,-4.73847c0.03469,-0.06597 0.05272,-0.13228 0.05408,-0.19893c0.06665,0.00136 0.14996,0.00307 0.24994,0.00512c1.12906,-1.41048 2.3064,-2.73661 3.53203,-3.97842c0.03469,-0.06597 0.05272,-0.13228 0.05408,-0.19893c0.06665,0.00136 0.14996,0.00307 0.24994,0.00512c3.10489,-3.4704 6.32438,-6.83844 9.65845,-10.10412M648.03524,383.0214c0.03537,-0.09929 0.05374,-0.18227 0.0551,-0.24892c0.7312,-1.51864 0.77413,-2.80131 0.12877,-3.84804c-0.03196,-0.06733 -0.13262,-0.03605 -0.30197,0.09384c-1.10792,0.37739 -1.30689,1.14012 -0.59693,2.28818c0.03264,0.03401 0.04794,0.101 0.0459,0.20097c-0.00136,0.06665 -0.00307,0.14996 -0.00512,0.24994c-0.10075,1.6649 -0.04984,3.24955 0.15274,4.75396c0.05993,-1.299 0.23376,-2.46231 0.52151,-3.48994M643.25776,384.32386c0.10611,-0.29788 0.12892,-0.59747 0.0684,-0.89876c-5.56141,2.95338 -11.47443,5.9829 -17.73908,9.08858c-0.06733,0.03196 -0.13432,0.04726 -0.20097,0.0459c0.22149,3.83854 1.67504,6.93549 4.36064,9.29086c0.03264,0.03401 0.09895,0.05203 0.19893,0.05408c6.25042,-4.03947 10.68778,-9.89969 13.31209,-17.58066M643.66527,393.73384c-0.03401,0.03264 -0.05135,0.06563 -0.05203,0.09895c-0.20541,0.26251 -0.64955,0.78685 -1.33242,1.57301c-0.0687,0.09861 -0.1544,0.21354 -0.2571,0.3448c-1.29841,1.54037 -2.98348,3.23951 -5.05519,5.09744c-2.20774,1.9885 -3.3293,3.0324 -3.36467,3.13169c-0.28024,0.66105 0.23118,0.92156 1.53428,0.78153c0.06665,0.00136 0.14996,0.00307 0.24994,0.00512c3.19668,-3.06845 5.60477,-5.88633 7.22425,-8.45364c0.7237,-1.15206 1.22329,-1.94197 1.49875,-2.36974c0.06938,-0.13194 0.1391,-0.28054 0.20916,-0.4458c0.66114,-1.35337 0.44282,-1.27449 -0.65496,0.23664M630.37276,407.91431c0.03401,-0.03264 0.01905,-0.1163 -0.04487,-0.25096c-0.65491,-0.58017 -1.31698,-0.81042 -1.98621,-0.69077l-0.00307,0.14996c-0.09998,-0.00205 -0.16697,0.01325 -0.20097,0.0459c-0.20268,0.12921 -0.38904,0.27542 -0.55907,0.43864c-0.09998,-0.00205 -0.18329,-0.00375 -0.24994,-0.00512c-0.09998,-0.00205 -0.16697,0.01325 -0.20097,0.0459c-5.26284,3.02617 -10.8358,5.72926 -16.71886,8.10929c0.06665,0.00136 0.14962,0.01973 0.24892,0.0551c1.0249,0.42105 2.35483,0.59829 3.98982,0.53174c6.24555,-2.17257 11.4873,-4.98247 15.72525,-8.42968M626.34743,404.23129c0.03401,-0.03264 0.05169,-0.08229 0.05306,-0.14894c-2.00955,-2.80828 -3.55966,-6.0739 -4.65033,-9.79687c-0.03264,-0.03401 -0.08229,-0.05169 -0.14894,-0.05306c-6.15444,2.60785 -13.77071,4.15226 -22.8488,4.63324l-0.00307,0.14996c0.48955,2.14373 1.26816,4.00998 2.33584,5.59878c0.03264,0.03401 0.04794,0.101 0.0459,0.20097c-0.00136,0.06665 0.01393,0.13364 0.0459,0.20097c1.30222,3.16053 3.06354,5.88038 5.28395,8.15955c3.92838,-1.35318 7.85709,-2.72303 11.78615,-4.10953c0.03401,-0.03264 0.05169,-0.08229 0.05306,-0.14894c0.06665,0.00136 0.14996,0.00307 0.24994,0.00512c0.06665,0.00136 0.14996,0.00307 0.24994,0.00512c2.56477,-1.51445 5.08058,-3.0799 7.54742,-4.69637M583.14512,413.74889c0.03264,0.03401 0.04794,0.101 0.0459,0.20097c3.02509,0.42865 6.18587,0.74338 9.48233,0.94421c0.06665,0.00136 0.14996,0.00307 0.24994,0.00512c3.20536,-0.23445 6.29646,-0.58792 9.27332,-1.06042c0.06665,0.00136 0.14996,0.00307 0.24994,0.00512c-3.58733,-3.90742 -6.35815,-8.61495 -8.31245,-14.12257c-0.03264,-0.03401 -0.08229,-0.05169 -0.14894,-0.05306c-6.90377,0.12541 -13.55687,-0.59419 -19.95931,-2.15881c-0.09998,-0.00205 -0.18329,-0.00375 -0.24994,-0.00512c1.69511,6.7692 4.81818,12.18406 9.36922,16.24456M561.48594,416.45614c-0.00068,0.03333 0.04896,0.05101 0.14894,0.05306c-0.07883,-1.03513 0.2286,-1.39557 0.92229,-1.08132c0.36385,0.1408 0.7141,0.1313 1.05077,-0.0285c1.07868,-0.57803 1.9445,-1.34378 2.59746,-2.29725c-0.76366,-1.7826 -1.76468,-3.37003 -3.00307,-4.76228c-0.03264,-0.03401 -0.08229,-0.05169 -0.14894,-0.05306c-1.478,2.17013 -2.00048,4.89325 -1.56745,8.16935M568.3477,396.39305c-0.03128,-0.10066 -0.04624,-0.18431 -0.04487,-0.25096c-1.32073,-0.62714 -2.64214,-1.22095 -3.96424,-1.78143c-0.09929,-0.03537 -0.18227,-0.05374 -0.24892,-0.0551c1.97944,5.9082 5.06344,10.78883 9.25199,14.64188c0.03264,0.03401 0.09895,0.05203 0.19893,0.05408c-2.18904,-3.81213 -3.92,-8.01495 -5.19289,-12.60847M513.27402,401.96702c-0.00068,0.03333 0.04896,0.05101 0.14894,0.05306c0.42855,-1.39147 0.41535,-2.37525 -0.03961,-2.95133c-0.03264,-0.03401 -0.08229,-0.05169 -0.14894,-0.05306c-0.15922,1.26363 -0.14602,2.2474 0.03961,2.95133M513.37747,360.26186l0.14996,0.00307c3.53568,-8.22908 7.83847,-15.659 12.90838,-22.28974c0.03469,-0.06597 0.05272,-0.13228 0.05408,-0.19893c-1.37247,0.27196 -2.4838,0.81598 -3.33398,1.63206c-0.06733,0.03196 -0.13432,0.04726 -0.20097,0.0459c-0.66163,-1.88053 -1.72185,-3.0191 -3.18066,-3.41568c0.00068,-0.03333 0.00171,-0.08331 0.00307,-0.14996c-1.74869,2.36463 -3.00774,5.23937 -3.77714,8.62421c-0.84219,3.68341 -1.29398,7.02475 -1.35536,10.02402c-0.46996,0.15708 -0.6951,0.56921 -0.67542,1.23639l-0.09998,-0.00205c-0.09939,1.59825 -0.26338,3.09515 -0.49198,4.49072z" fill="#000000"/><path d="M513.52743,360.26493l-0.14996,-0.00307c0.2286,-1.39557 0.39259,-2.89247 0.49198,-4.49072l0.09998,0.00205c-0.01968,-0.66719 0.20546,-1.07932 0.67542,-1.23639c0.06139,-2.99927 0.51317,-6.34061 1.35536,-10.02402c0.7694,-3.38485 2.02845,-6.25958 3.77714,-8.62421c-0.00136,0.06665 -0.00239,0.11664 -0.00307,0.14996c1.45881,0.39659 2.51903,1.53515 3.18066,3.41568c0.06665,0.00136 0.13364,-0.01393 0.20097,-0.0459c0.85018,-0.81608 1.96151,-1.3601 3.33398,-1.63206c-0.00136,0.06665 -0.01939,0.13296 -0.05408,0.19893c-5.06991,6.63074 -9.3727,14.06066 -12.90838,22.28974z" fill="#2c2d40"/><path d="M513.42296,402.02008c-0.09998,-0.00205 -0.14962,-0.01973 -0.14894,-0.05306c-0.18563,-0.70392 -0.19883,-1.6877 -0.03961,-2.95133c0.06665,0.00136 0.1163,0.01905 0.14894,0.05306c0.45496,0.57608 0.46816,1.55985 0.03961,2.95133z" fill="#353849"/><path d="M568.30283,396.14209c-0.00136,0.06665 0.01359,0.1503 0.04487,0.25096c1.27289,4.59352 3.00385,8.79634 5.19289,12.60847c-0.09998,-0.00205 -0.16628,-0.02007 -0.19893,-0.05408c-4.18855,-3.85305 -7.27255,-8.73368 -9.25199,-14.64188c0.06665,0.00136 0.14962,0.01973 0.24892,0.0551c1.32209,0.56049 2.64351,1.1543 3.96424,1.78143M583.19102,413.94986c0.00205,-0.09998 -0.01325,-0.16697 -0.0459,-0.20097c-4.55104,-4.06051 -7.67411,-9.47536 -9.36922,-16.24456c0.06665,0.00136 0.14996,0.00307 0.24994,0.00512c6.40243,1.56462 13.05554,2.28423 19.95931,2.15881c0.06665,0.00136 0.1163,0.01905 0.14894,0.05306c1.9543,5.50762 4.72512,10.21514 8.31245,14.12257c-0.09998,-0.00205 -0.18329,-0.00375 -0.24994,-0.00512c-2.97686,0.4725 -6.06796,0.82597 -9.27332,1.06042c-0.09998,-0.00205 -0.18329,-0.00375 -0.24994,-0.00512c-3.29647,-0.20083 -6.45724,-0.51556 -9.48233,-0.94421M618.30013,408.91744c-0.00136,0.06665 -0.01905,0.1163 -0.05306,0.14894c-3.92906,1.38651 -7.85778,2.75635 -11.78615,4.10953c-2.22041,-2.27917 -3.98173,-4.99902 -5.28395,-8.15955c-0.03196,-0.06733 -0.04726,-0.13432 -0.0459,-0.20097c0.06665,0.00136 0.14962,0.01973 0.24892,0.0551c4.96058,1.96852 10.60063,3.3175 16.92014,4.04695M630.32789,407.66335c0.06392,0.13466 0.07888,0.21832 0.04487,0.25096c-4.23795,3.44721 -9.4797,6.25711 -15.72525,8.42968c-1.63498,0.06655 -2.96492,-0.11069 -3.98982,-0.53174c-0.09929,-0.03537 -0.18227,-0.05374 -0.24892,-0.0551c5.88306,-2.38003 11.45602,-5.08312 16.71886,-8.10929c0.03401,-0.03264 0.101,-0.04794 0.20097,-0.0459c-0.00136,0.06665 -0.00307,0.14996 -0.00512,0.24994c0.0265,0.33393 0.27303,0.50568 0.73959,0.51522c1.20857,-0.40867 1.38338,-0.80517 0.52443,-1.18948c-0.09929,-0.03537 -0.18227,-0.05374 -0.24892,-0.0551l0.00307,-0.14996c0.66923,-0.11966 1.3313,0.1106 1.98621,0.69077M560.81633,370.98449c0.06665,0.00136 0.1503,-0.01359 0.25096,-0.04487c2.34777,-0.68541 4.94036,-1.11576 7.77778,-1.29107c-0.00136,0.06665 -0.01973,0.14962 -0.0551,0.24892c-2.15834,6.09023 -2.69465,12.74708 -1.60895,19.97056c-0.09998,-0.00205 -0.18295,-0.02041 -0.24892,-0.0551c-1.78797,-0.60336 -3.3542,-1.45223 -4.69871,-2.5466c-0.09998,-0.00205 -0.14962,-0.01973 -0.14894,-0.05306c-1.56804,-4.83293 -1.99075,-10.24253 -1.26812,-16.22878M584.13739,367.71115c-0.00136,0.06665 -0.00307,0.14996 -0.00512,0.24994c-0.73997,11.72024 1.65687,20.85421 7.19052,27.40193c-0.09998,-0.00205 -0.18295,-0.02041 -0.24892,-0.0551c-1.09632,-0.18913 -2.18144,-0.11133 -3.25535,0.23343c-5.82304,-0.55259 -11.05164,-1.64311 -15.68579,-3.27156c-0.09929,-0.03537 -0.18227,-0.05374 -0.24892,-0.0551c-0.96069,-5.18723 -1.10286,-10.45773 -0.42652,-15.81149c0.31707,-2.46061 1.03269,-4.84638 2.14684,-7.15732c3.08502,-0.87036 6.51278,-1.38363 10.28331,-1.53984c0.06665,0.00136 0.14996,0.00307 0.24994,0.00512M584.6634,339.567c1.5085,-0.40253 2.69052,-0.32833 3.54606,0.2226c-3.93325,3.22007 -7.32788,7.00127 -10.18391,11.34358c-2.85602,4.34231 -5.54883,8.85466 -8.07843,13.53705c-0.09998,-0.00205 -0.18363,0.01291 -0.25096,0.04487c-2.88165,0.70782 -5.48618,1.72137 -7.81359,3.04064c-0.16663,-0.00341 -0.28258,-0.03912 -0.34787,-0.10714c-0.35498,-0.57403 -0.42465,-1.24224 -0.20901,-2.00463c3.70318,-11.52623 10.24495,-20.02718 19.6253,-25.50285c1.1351,-0.07679 2.37257,-0.26816 3.7124,-0.57413M593.80532,335.15331c-0.42845,-0.24214 -0.92492,-0.419 -1.4894,-0.53057l-0.39888,-0.05817c1.29091,-1.17379 3.36053,-2.11493 6.20886,-2.82344c-0.00136,0.06665 -0.01905,0.1163 -0.05306,0.14894c-1.58606,0.93437 -3.00857,2.02212 -4.26752,3.26324M599.69643,340.5248c-0.16663,-0.00341 -0.33325,-0.00682 -0.49988,-0.01023c-0.33325,-0.00682 -0.5849,0.07138 -0.75493,0.23459c-5.35142,5.72482 -9.57699,12.63956 -12.67671,20.74421c-0.09998,-0.00205 -0.18329,-0.00375 -0.24994,-0.00512l0.00307,-0.14996c-2.97686,0.4725 -5.90577,1.046 -8.78674,1.72049c-0.75761,-0.44892 -0.75756,-1.26572 0.00014,-2.45042c5.00062,-8.13242 11.07779,-15.10928 18.2315,-20.93058c1.42684,0.32926 3.0057,0.56161 4.73656,0.69705l-0.00307,0.14996M604.78948,333.5778c-1.02022,0.97929 -2.10572,1.89057 -3.25651,2.73384c-1.15956,-0.35712 -1.04731,-0.95493 0.33676,-1.79342c0.84404,-0.51615 1.83532,-0.89593 2.97383,-1.13934c-0.00136,0.06665 -0.01939,0.13296 -0.05408,0.19893z" fill="#343444"/><path d="M561.63488,416.50919c-0.09998,-0.00205 -0.14962,-0.01973 -0.14894,-0.05306c-0.43304,-3.2761 0.08945,-5.99922 1.56745,-8.16935c0.06665,0.00136 0.1163,0.01905 0.14894,0.05306c1.23839,1.39225 2.23942,2.97968 3.00307,4.76228c-0.65296,0.95347 -1.51878,1.71922 -2.59746,2.29725c-0.33666,0.15981 -0.68692,0.16931 -1.05077,0.0285c-0.69369,-0.31425 -1.00112,0.04619 -0.92229,1.08132z" fill="#2c2c3f"/><path d="M626.40049,404.08235c-0.00136,0.06665 -0.01905,0.1163 -0.05306,0.14894c-2.46684,1.61647 -4.98265,3.18193 -7.54742,4.69637c-0.09998,-0.00205 -0.18329,-0.00375 -0.24994,-0.00512c-0.09998,-0.00205 -0.18329,-0.00375 -0.24994,-0.00512c-6.31951,-0.72945 -11.95956,-2.07843 -16.92014,-4.04695c-0.09929,-0.03537 -0.18227,-0.05374 -0.24892,-0.0551c0.00205,-0.09998 -0.01325,-0.16697 -0.0459,-0.20097c-1.06767,-1.58879 -1.84629,-3.45505 -2.33584,-5.59878l0.00307,-0.14996c9.07809,-0.48098 16.69436,-2.0254 22.8488,-4.63324c0.06665,0.00136 0.1163,0.01905 0.14894,0.05306c1.09067,3.72297 2.64078,6.98859 4.65033,9.79687M543.99939,381.44219c-0.23659,-1.47177 -0.53881,-2.99488 -0.90665,-4.56935c-0.33793,-1.40716 -0.43713,-3.07615 -0.29759,-5.00696c0.06665,0.00136 0.14996,0.00307 0.24994,0.00512c1.98996,0.50748 4.2343,0.80346 6.73301,0.88794c-0.03888,1.89954 0.02222,3.80112 0.18329,5.70475c0.40234,4.77573 0.95635,9.47122 1.66203,14.08647c0.47669,1.14329 1.03771,2.23829 1.68307,3.28502c0.22577,0.37135 0.46889,0.70972 0.72935,1.0151c1.33769,1.42762 1.55864,2.84906 0.66285,4.26431c-5.7106,-4.41763 -9.27703,-10.97509 -10.6993,-19.67238M572.27988,336.21301c-0.00136,0.06665 -0.01939,0.13296 -0.05408,0.19893c-3.33408,3.26568 -6.55356,6.63372 -9.65845,10.10412c-0.09998,-0.00205 -0.18329,-0.00375 -0.24994,-0.00512c-1.39216,-0.39522 -2.97067,-0.64424 -4.73554,-0.74704l0.00205,-0.09998c0.06665,0.00136 0.14996,0.00307 0.24994,0.00512c-0.39717,-0.14149 -0.70831,-0.41457 -0.9334,-0.81924c-0.03196,-0.06733 -0.04726,-0.13432 -0.0459,-0.20097c0.00205,-0.09998 0.02007,-0.16628 0.05408,-0.19893c3.91561,-3.98724 9.03936,-6.73287 15.37124,-8.23689M595.64481,367.44659c0.06529,0.06801 0.09725,0.13535 0.09588,0.202c-0.86733,3.28282 -1.76628,6.48165 -2.69685,9.59649c-1.86455,6.3963 -1.85675,12.53086 0.0234,18.40369c-0.49851,-0.07688 -0.99669,-0.17043 -1.49452,-0.28063c-0.09998,-0.00205 -0.18329,-0.00375 -0.24994,-0.00512c-5.53364,-6.54771 -7.93048,-15.68169 -7.19052,-27.40193c0.00205,-0.09998 0.00375,-0.18329 0.00512,-0.24994c1.80706,-0.32975 3.71274,-0.59079 5.71702,-0.78315c2.30558,-0.25286 4.23571,-0.08 5.7904,0.51858M625.78511,373.06434c0.06665,0.00136 0.14962,0.01973 0.24892,0.0551c4.92999,1.83454 9.63824,3.91458 14.12477,6.24013c-0.09998,-0.00205 -0.16697,0.01325 -0.20097,0.0459c-4.4454,3.8097 -9.36379,7.10963 -14.75516,9.89979c-0.16663,-0.00341 -0.26592,-0.03878 -0.29788,-0.10611c-0.68336,-2.44774 -0.94266,-5.25354 -0.77789,-8.41739c0.15863,-2.86392 0.71137,-5.43639 1.65821,-7.71741M639.97989,368.55403c-0.00068,0.03333 0.04896,0.05101 0.14894,0.05306c0.00945,1.16706 0.06889,2.33515 0.17832,3.50426c-0.00136,0.06665 -0.00307,0.14996 -0.00512,0.24994l0.09998,0.00205c0.07883,1.03513 0.10836,2.03591 0.08858,3.00234l-1.43328,-0.82947c-1.74714,-0.96926 -4.05603,-2.18338 -6.92667,-3.64238c-2.83732,-1.45832 -4.2553,-2.2208 -4.25393,-2.28745c1.86163,-2.99576 4.09865,-5.60044 6.71107,-7.81403c0.03401,-0.03264 0.101,-0.04794 0.20097,-0.0459c1.88375,2.43897 3.61413,5.0415 5.19114,7.80759z" fill="#475c81"/><path d="M627.32862,407.60196c0.06665,0.00136 0.14996,0.00307 0.24994,0.00512c0.17004,-0.16322 0.35639,-0.30943 0.55907,-0.43864c0.03401,-0.03264 0.101,-0.04794 0.20097,-0.0459c0.06665,0.00136 0.14962,0.01973 0.24892,0.0551c0.85895,0.38431 0.68414,0.7808 -0.52443,1.18948c-0.46655,-0.00955 -0.71308,-0.18129 -0.73959,-0.51522c0.00205,-0.09998 0.00375,-0.18329 0.00512,-0.24994z" fill="#425574"/><path d="M643.96212,393.88994l-0.00102,0.04999c0.2401,-0.32848 0.3598,-0.47605 0.35912,-0.44273c-0.07006,0.16526 -0.13978,0.31386 -0.20916,0.4458c-0.27547,0.42777 -0.77505,1.21769 -1.49875,2.36974c-1.61949,2.56731 -4.02757,5.38519 -7.22425,8.45364c-0.09998,-0.00205 -0.18329,-0.00375 -0.24994,-0.00512c-1.30309,0.14003 -1.81452,-0.12049 -1.53428,-0.78153c0.03537,-0.09929 1.15693,-1.14319 3.36467,-3.13169c2.07171,-1.85793 3.75678,-3.55708 5.05519,-5.09744l1.38241,-1.57199l0.15303,-0.14689c0.00068,-0.03333 0.05306,-0.14894 0.15713,-0.34685l-0.00512,0.24994c0.06801,-0.06529 0.11937,-0.13091 0.15406,-0.19688c0.68356,-0.81949 0.71586,-0.76882 0.09691,0.15201z" fill="#415476"/><path d="M643.9611,393.93993l0.00102,-0.04999c0.61895,-0.92083 0.58665,-0.9715 -0.09691,-0.15201c-0.03469,0.06597 -0.08604,0.1316 -0.15406,0.19688l0.00512,-0.24994c-0.10407,0.1979 -0.15644,0.31352 -0.15713,0.34685l-0.15303,0.14689l-1.38241,1.57199c0.1027,-0.13125 0.1884,-0.24619 0.2571,-0.3448c0.68287,-0.78616 1.12701,-1.3105 1.33242,-1.57301c0.00068,-0.03333 0.01803,-0.06631 0.05203,-0.09895c1.09778,-1.51113 1.3161,-1.59001 0.65496,-0.23664c0.00068,-0.03333 -0.11903,0.11425 -0.35912,0.44273z" fill="#415370"/><path d="M643.32616,383.4251c0.06051,0.30129 0.03771,0.60088 -0.0684,0.89876c-2.6243,7.68097 -7.06167,13.54119 -13.31209,17.58066c-0.09998,-0.00205 -0.16628,-0.02007 -0.19893,-0.05408c-2.6856,-2.35537 -4.13915,-5.45232 -4.36064,-9.29086c0.06665,0.00136 0.13364,-0.01393 0.20097,-0.0459c6.26465,-3.10568 12.17767,-6.13521 17.73908,-9.08858z" fill="#465c81"/><path d="M648.09035,382.77248c-0.00136,0.06665 -0.01973,0.14962 -0.0551,0.24892c-0.28775,1.02762 -0.46158,2.19094 -0.52151,3.48994c-0.20258,-1.50441 -0.2535,-3.08906 -0.15274,-4.75396c0.00205,-0.09998 0.00375,-0.18329 0.00512,-0.24994c0.00205,-0.09998 -0.01325,-0.16697 -0.0459,-0.20097c-0.70996,-1.14806 -0.51099,-1.91079 0.59693,-2.28818c0.16935,-0.12989 0.27001,-0.16117 0.30197,-0.09384c0.64536,1.04672 0.60244,2.3294 -0.12877,3.84804M648.63158,373.43193c0.17276,-0.29652 0.27547,-0.42777 0.30811,-0.39376c0.84326,1.15079 0.6895,2.14782 -0.46129,2.99108c-0.58485,-0.74543 -0.53379,-1.6112 0.15318,-2.59732z" fill="#435878"/><path d="M555.12984,355.61544c-0.09998,-0.00205 -0.1503,0.01359 -0.15099,0.04692c-0.27615,0.4611 -0.5693,0.93851 -0.87946,1.43225c-0.09998,-0.00205 -0.18329,-0.00375 -0.24994,-0.00512c-0.09998,-0.00205 -0.1503,0.01359 -0.15099,0.04692c-0.655,1.05345 -0.95839,2.03074 -0.91016,2.93189c-0.00136,0.06665 -0.01939,0.13296 -0.05408,0.19893c-1.67054,3.43308 -2.65592,7.59698 -2.95614,12.49169c-2.49871,-0.08448 -4.74304,-0.38046 -6.73301,-0.88794c-0.09998,-0.00205 -0.18329,-0.00375 -0.24994,-0.00512c0.35137,-7.3941 2.28559,-13.12219 5.80266,-17.18426c0.03469,-0.06597 0.05272,-0.13228 0.05408,-0.19893c0.06665,0.00136 0.14996,0.00307 0.24994,0.00512c1.95664,0.50679 4.03264,0.88268 6.22801,1.12764M557.58391,345.66393l-0.00205,0.09998c1.76487,0.1028 3.34338,0.35181 4.73554,0.74704c-0.00136,0.06665 -0.01939,0.13296 -0.05408,0.19893c-1.22563,1.2418 -2.40297,2.56794 -3.53203,3.97842c-0.09998,-0.00205 -0.18329,-0.00375 -0.24994,-0.00512c-1.68731,-0.63464 -3.68068,-0.97549 -5.98012,-1.02255l0.00205,-0.09998c1.06105,-1.34519 2.12277,-2.7237 3.18518,-4.13554c0.00068,-0.03333 0.05101,-0.04896 0.15099,-0.04692c0.06665,0.00136 0.13296,0.01939 0.19893,0.05408c0.3618,0.24078 0.87698,0.318 1.54553,0.23167M631.98971,338.68531c1.06436,0.1218 1.90767,0.45578 2.52994,1.00195c0.09793,0.10202 0.19552,0.22071 0.29277,0.35605c1.87761,2.7389 3.36449,5.83653 4.46061,9.2929c-3.01408,-2.59547 -6.12984,-5.10966 -9.34728,-7.54259c-0.16458,-0.10339 -0.24346,-0.3217 -0.23664,-0.65496c0.02933,-1.43298 0.7122,-2.21915 2.04862,-2.35849l0.00205,-0.09998c0.06665,0.00136 0.14996,0.00307 0.24994,0.00512M643.79167,360.68066c-0.09998,-0.00205 -0.18329,-0.00375 -0.24994,-0.00512c-2.34767,-0.94821 -2.55401,-2.26933 -0.619,-3.96336c0.03401,-0.03264 0.101,-0.04794 0.20097,-0.0459c0.54207,-0.42231 1.04195,-0.41208 1.49963,0.03069c1.53559,1.53169 1.50831,2.8647 -0.08185,3.99902c-0.26592,-0.03878 -0.51586,-0.0439 -0.74982,-0.01535M620.62041,332.20152c-0.00136,0.06665 0.01428,0.11698 0.04692,0.15099c3.08151,0.92989 4.11313,2.6513 3.09486,5.16423c-0.09998,-0.00205 -0.18329,-0.00375 -0.24994,-0.00512c-0.09998,-0.00205 -0.18329,-0.00375 -0.24994,-0.00512l-0.00205,0.09998c-0.53252,-0.04424 -0.8685,0.08224 -1.00794,0.37944c-0.32916,-0.20677 -0.82631,-0.3503 -1.49145,-0.4306l0.00205,-0.09998c-1.64512,-1.06718 -3.54529,-1.88955 -5.70051,-2.46708c0.00068,-0.03333 0.00171,-0.08331 0.00307,-0.14996c-2.49871,-0.08448 -4.40263,-0.72355 -5.71176,-1.91722c-0.13125,-0.1027 0.01769,-0.04965 0.44682,0.15917c0.1979,0.10407 0.46348,0.15951 0.79674,0.16633c0.06665,0.00136 0.14996,0.00307 0.24994,0.00512c3.24141,-0.36707 6.49914,-0.71713 9.7732,-1.05019z" fill="#8fbbbe"/><path d="M553.84945,357.0895c-0.00136,0.06665 -0.01973,0.14962 -0.0551,0.24892c-0.21973,0.96234 -0.55508,1.8723 -1.00604,2.72989c-0.04823,-0.90114 0.25515,-1.87844 0.91016,-2.93189c0.00068,-0.03333 0.05101,-0.04896 0.15099,-0.04692z" fill="#94c3c7"/><path d="M557.83385,345.66904c-0.09998,-0.00205 -0.18329,-0.00375 -0.24994,-0.00512c-0.66855,0.08633 -1.18373,0.00911 -1.54553,-0.23167c-0.06597,-0.03469 -0.13228,-0.05272 -0.19893,-0.05408c0.20609,-0.29583 0.4608,-0.524 0.76414,-0.68448c0.06733,-0.03196 0.15099,-0.04692 0.25096,-0.04487c-0.00136,0.06665 0.01393,0.13364 0.0459,0.20097c0.22509,0.40468 0.53622,0.67776 0.9334,0.81924M558.48136,350.68317c-0.00136,0.06665 -0.01939,0.13296 -0.05408,0.19893c-1.19571,1.40911 -2.21154,2.9886 -3.0475,4.73847c-0.09998,-0.00205 -0.18329,-0.00375 -0.24994,-0.00512c-2.19537,-0.24497 -4.27137,-0.62085 -6.22801,-1.12764c-0.09998,-0.00205 -0.18329,-0.00375 -0.24994,-0.00512c1.26577,-1.57437 2.49924,-3.19942 3.70041,-4.87513c0.00068,-0.03333 0.05101,-0.04896 0.15099,-0.04692l-0.00205,0.09998c2.29944,0.04706 4.29281,0.38791 5.98012,1.02255M643.75658,350.17811c-0.00136,0.06665 -0.01905,0.1163 -0.05306,0.14894c-3.18567,0.90163 -5.8647,2.29706 -8.03707,4.18626c-4.18241,-4.15298 -8.95995,-7.7347 -14.33262,-10.74517c-0.06597,-0.03469 -0.13228,-0.05272 -0.19893,-0.05408c2.84774,-2.3088 6.29904,-3.97179 10.3539,-4.98899c0.06733,-0.03196 0.15099,-0.04692 0.25096,-0.04487l-0.00205,0.09998c-1.33642,0.13934 -2.01929,0.92551 -2.04862,2.35849c-0.00682,0.33325 0.07206,0.55157 0.23664,0.65496c3.21744,2.43293 6.3332,4.94713 9.34728,7.54259c-1.09613,-3.45637 -2.583,-6.554 -4.46061,-9.2929c-0.09725,-0.13535 -0.19484,-0.25403 -0.29277,-0.35605c-0.62227,-0.54616 -1.46558,-0.88014 -2.52994,-1.00195l0.00307,-0.14996c0.86918,-0.11557 1.62309,-0.30017 2.26173,-0.55381c0.06665,0.00136 0.13296,0.01939 0.19893,0.05408c3.86621,3.31303 6.96726,7.36053 9.30315,12.14249z" fill="#475d81"/><path d="M598.97192,361.26359c-0.14012,0.33052 -0.29691,0.66071 -0.47035,0.99055c-0.56721,0.02173 -1.14938,-0.04019 -1.7465,-0.18577l0.00205,-0.09998c0.06665,0.00136 0.14996,0.00307 0.24994,0.00512c0.40058,-0.02514 0.81715,-0.01661 1.24969,0.02558c0.17345,-0.32984 0.36321,-0.64268 0.5693,-0.93851c0.03401,-0.03264 0.101,-0.04794 0.20097,-0.0459c-0.00136,0.06665 -0.01973,0.14962 -0.0551,0.24892z" fill="#364461"/><path d="M613.61116,344.81029c-0.00136,0.06665 -0.01905,0.1163 -0.05306,0.14894c-6.01714,4.04424 -10.77753,9.39776 -14.28115,16.06056c-0.09998,-0.00205 -0.18329,-0.00375 -0.24994,-0.00512c-0.09998,-0.00205 -0.16697,0.01325 -0.20097,0.0459c-0.20609,0.29583 -0.39586,0.60867 -0.5693,0.93851c-0.43255,-0.04219 -0.84911,-0.05072 -1.24969,-0.02558c-0.09998,-0.00205 -0.18329,-0.00375 -0.24994,-0.00512c-3.85958,-0.37905 -7.60765,-0.50577 -11.24418,-0.38016l0.00205,-0.09998c0.06665,0.00136 0.14996,0.00307 0.24994,0.00512c3.09972,-8.10465 7.32529,-15.01939 12.67671,-20.74421c0.17004,-0.16322 0.42168,-0.24141 0.75493,-0.23459c0.16663,0.00341 0.33325,0.00682 0.49988,0.01023c0.06665,0.00136 0.14996,0.00307 0.24994,0.00512c5.25242,0.74095 9.80735,2.16774 13.66479,4.28038M612.05805,369.3828c3.52088,0.63883 6.76867,1.58879 9.74338,2.84988c-0.00136,0.06665 -0.01973,0.14962 -0.0551,0.24892c-1.85295,5.82977 -2.21582,12.15678 -1.08861,18.98104c-0.09998,-0.00205 -0.18363,0.01291 -0.25096,0.04487c-6.20745,1.93998 -13.06776,3.19981 -20.58094,3.7795c-1.80502,0.22977 -2.80984,-0.35756 -3.01447,-1.76199c-0.17471,-1.23712 -0.24877,-2.50553 -0.22217,-3.80521c0.04949,-8.93388 1.6526,-16.40238 4.80933,-22.4055c3.4855,0.73812 7.03868,1.42762 10.65953,2.06849M632.36098,357.19614c-0.00136,0.06665 -0.01905,0.1163 -0.05306,0.14894c-3.25583,2.70051 -5.97237,5.92882 -8.14961,9.68492c-0.09998,-0.00205 -0.18295,-0.02041 -0.24892,-0.0551c-6.63776,-1.46942 -13.27756,-2.83887 -19.91941,-4.10834c0.00205,-0.09998 0.02041,-0.18295 0.0551,-0.24892c3.11259,-7.10421 7.87399,-12.50772 14.28422,-16.21053c0.06665,0.00136 0.13296,0.01939 0.19893,0.05408c5.51211,2.71327 10.12302,6.29158 13.83274,10.73494z" fill="#475d82"/><path d="M645.42942,353.963c-0.00136,0.06665 0.01393,0.13364 0.0459,0.20097c0.48146,0.91001 0.94558,1.85301 1.39235,2.82899c-0.00136,0.06665 -0.00307,0.14996 -0.00512,0.24994c0.19284,5.23819 -0.15259,9.89861 -1.03629,13.98124c-0.09998,-0.00205 -0.14962,-0.01973 -0.14894,-0.05306c-1.96794,-4.84112 -4.32731,-9.29017 -7.07811,-13.34717c0.06665,0.00136 0.13364,-0.01393 0.20097,-0.0459c2.19342,-1.28867 4.40316,-2.56034 6.62923,-3.81501M643.54173,360.67554c0.06665,0.00136 0.14996,0.00307 0.24994,0.00512c0.23396,-0.02855 0.4839,-0.02344 0.74982,0.01535c1.59016,-1.13432 1.61744,-2.46733 0.08185,-3.99902c-0.45769,-0.44278 -0.95756,-0.45301 -1.49963,-0.03069c-0.09998,-0.00205 -0.16697,0.01325 -0.20097,0.0459c-1.935,1.69403 -1.72867,3.01515 0.619,3.96336z" fill="#455a7e"/><path d="M612.42869,329.28338c0.06665,0.00136 0.14996,0.00307 0.24994,0.00512c7.32881,0.28336 13.0416,2.15059 17.13836,5.60169c-0.00136,0.06665 -0.01905,0.1163 -0.05306,0.14894c-4.40311,1.74353 -8.26728,4.03153 -11.59249,6.86398c-5.19113,-2.1066 -10.65398,-3.96871 -16.38855,-5.58634c-0.09998,-0.00205 -0.18329,-0.00375 -0.24994,-0.00512c1.15079,-0.84326 2.23629,-1.75454 3.25651,-2.73384c0.03469,-0.06597 0.05272,-0.13228 0.05408,-0.19893c0.00205,-0.09998 0.01973,-0.14962 0.05306,-0.14894c2.29885,-1.55323 4.80954,-2.86875 7.53208,-3.94656M620.66732,332.35251c-0.03264,-0.03401 -0.04828,-0.08434 -0.04692,-0.15099c-3.27405,0.33306 -6.53179,0.68312 -9.7732,1.05019c-0.09998,-0.00205 -0.18329,-0.00375 -0.24994,-0.00512c-0.33325,-0.00682 -0.59883,-0.06227 -0.79674,-0.16633c-0.42914,-0.20882 -0.57808,-0.26188 -0.44682,-0.15917c1.30914,1.19366 3.21306,1.83274 5.71176,1.91722c-0.00136,0.06665 -0.00239,0.11664 -0.00307,0.14996c2.15522,0.57754 4.05539,1.3999 5.70051,2.46708l-0.00205,0.09998c0.66514,0.08029 1.16229,0.22382 1.49145,0.4306c0.13944,-0.2972 0.47542,-0.42368 1.00794,-0.37944l0.00205,-0.09998c0.06665,0.00136 0.14996,0.00307 0.24994,0.00512c0.06665,0.00136 0.14996,0.00307 0.24994,0.00512c1.01827,-2.51293 -0.01335,-4.23435 -3.09486,-5.16423z" fill="#475c80"/><path d="M735.40541,364.6723c2.51132,-4.86824 6.42074,-9.45603 11.72824,-13.76338c2.46134,-0.2556 4.89531,-0.55304 7.30191,-0.89232c11.14357,-1.47316 21.76216,-0.55196 31.85577,2.76358c0.05473,0.08369 0.08639,0.16254 0.09498,0.23658c2.56926,6.36453 4.12349,12.5167 4.66268,18.45653c3.4368,1.29688 6.84411,2.79225 10.22194,4.48613c8.51324,4.30925 17.01629,8.72472 25.50917,13.24642c4.85859,2.55746 9.55308,5.89927 14.08349,10.02543c0.05473,0.08369 0.10034,0.15342 0.13682,0.20921c2.35227,3.71864 4.35634,7.08753 6.0122,10.10667c-0.08369,0.05473 -0.11641,0.09604 -0.09816,0.12394c0.04991,5.86155 -1.33045,11.42388 -4.14109,16.687c-0.08369,0.05473 -0.15342,0.10034 -0.20921,0.13682c-7.31807,5.86118 -13.92723,8.3913 -19.82749,7.59037c-6.71396,-4.96822 -13.57593,-9.40155 -20.58592,-13.3c-9.62277,-5.33596 -19.3898,-10.03994 -29.30107,-14.11194c-1.56319,1.14177 -3.02662,1.97935 -4.39029,2.51274c-4.07278,1.62806 -8.27428,3.69873 -12.60449,6.212c-0.97006,-1.11793 -1.94065,-2.17577 -2.91177,-3.17352c-8.87743,-9.12893 -17.75486,-18.25786 -26.63229,-27.38679c2.60234,-6.79957 5.63387,-13.52138 9.09459,-20.16545M789.10845,376.08772c-2.94414,0.49169 -5.96927,1.25539 -9.07537,2.29109c2.85256,6.73681 6.12036,13.5605 9.8034,20.47105c0.05473,0.08369 0.10034,0.15342 0.13682,0.20921c3.19944,-1.13656 6.35705,-2.24576 9.47281,-3.3276l-0.08209,-0.12553c-1.7547,-4.38822 -3.50457,-8.79951 -5.24962,-13.23387c-0.01824,-0.0279 0.01448,-0.06921 0.09816,-0.12394c3.75957,-0.70636 7.16668,-1.28179 10.22134,-1.72629l-0.08209,-0.12553c-4.72548,-1.92765 -9.54318,-3.3569 -14.45312,-4.28776c-0.23069,-0.04826 -0.4941,-0.05521 -0.79023,-0.02085M805.19706,383.60707c-1.90662,0.25125 -3.84325,0.76109 -5.80991,1.52952c2.696,7.71537 5.25358,15.40177 7.67276,23.05923c0.02683,0.10193 0.05849,0.18079 0.09498,0.23658c4.15869,-0.88773 8.24552,-1.48951 12.26049,-1.80534c0.07403,-0.00859 0.15289,-0.04025 0.23658,-0.09498c-1.75045,-4.8689 -3.98965,-9.87617 -6.7176,-15.02181l0.12553,-0.08209c3.26392,-0.06362 6.192,-0.30585 8.78422,-0.72669l-0.24628,-0.37658c-4.67944,-2.9534 -9.52726,-5.15947 -14.54347,-6.61821c-0.59014,-0.17162 -1.20924,-0.20482 -1.8573,-0.09961z" fill-opacity="0.99608" fill="#000000"/><path d="M799.38715,385.13658c1.96665,-0.76842 3.90329,-1.27826 5.80991,-1.52952c0.64806,-0.10521 1.26715,-0.07201 1.8573,0.09961c5.01621,1.45874 9.86403,3.66481 14.54347,6.61821l0.24628,0.37658c-2.59222,0.42085 -5.52029,0.66308 -8.78422,0.72669l-0.12553,0.08209c2.72794,5.14563 4.96714,10.1529 6.7176,15.02181c-0.08369,0.05473 -0.16254,0.08639 -0.23658,0.09498c-4.01497,0.31583 -8.1018,0.91761 -12.26049,1.80534c-0.03649,-0.05579 -0.06815,-0.13465 -0.09498,-0.23658c-2.41917,-7.65745 -4.97676,-15.34386 -7.67276,-23.05923M780.03307,378.37881c3.10611,-1.0357 6.13123,-1.79939 9.07537,-2.29109c0.29613,-0.03436 0.55954,-0.02741 0.79023,0.02085c4.90993,0.93086 9.72764,2.36011 14.45312,4.28776l0.08209,0.12553c-3.05466,0.44449 -6.46178,1.01992 -10.22134,1.72629c-0.08369,0.05473 -0.11641,0.09604 -0.09816,0.12394c1.74505,4.43436 3.49492,8.84565 5.24962,13.23387l0.08209,0.12553c-3.11576,1.08184 -6.27336,2.19104 -9.47281,3.3276c-0.03649,-0.05579 -0.08209,-0.12553 -0.13682,-0.20921c-3.68304,-6.91055 -6.95084,-13.73424 -9.8034,-20.47105z" fill-opacity="0.99608" fill="#ffffff"/><path d="M837.25,293.45c-2.23333,0.63333 -4.68333,1.05 -7.35,1.25c-2.1,0.2 -4.58333,0.26667 -7.45,0.2c-0.46667,-0.03333 -0.95,-0.13333 -1.45,-0.3c-0.26667,-0.1 -0.73333,-0.3 -1.4,-0.6c-0.6,-0.26667 -1.23333,-0.46667 -1.9,-0.6c-0.6,-0.13333 -1.01667,-0.13333 -1.25,0c-0.3,0.16667 -0.48333,0.56667 -0.55,1.2c-0.1,0.93333 -0.25,2.03333 -0.45,3.3c-0.1,0.76667 -0.26667,1.88333 -0.5,3.35c-0.3,2.13333 -0.75,5.31667 -1.35,9.55c-0.06667,0.33333 -0.1,0.8 -0.1,1.4c-0.03333,0.6 -0.06667,1.05 -0.1,1.35c-0.1,0.8 0,1.43333 0.3,1.9c0.3,0.5 0.81667,0.88333 1.55,1.15c0.53333,0.16667 1.08333,0.46667 1.65,0.9c0.23333,0.16667 0.7,0.58333 1.4,1.25c1.53333,1.36667 3.33333,2.48333 5.4,3.35c1.7,0.7 3.71667,1.28333 6.05,1.75c2.86667,0.53333 5.33333,0.93333 7.4,1.2c2.66667,0.3 5.15,0.41667 7.45,0.35c0.76667,-0.03333 1.45,0.15 2.05,0.55c0.43333,0.3 0.9,0.78333 1.4,1.45c1.2,1.56667 2.35,3.35 3.45,5.35c0.9,1.63333 1.85,3.51667 2.85,5.65c0.23333,0.5 0.61667,1.43333 1.15,2.8c0.5,1.16667 0.9,2.06667 1.2,2.7c0.43333,0.83333 0.6,1.68333 0.5,2.55c-0.06667,0.76667 -0.31667,1.58333 -0.75,2.45c-1.46667,3 -2.76667,5.41667 -3.9,7.25c-1.76667,2.93333 -4.01667,6.13333 -6.75,9.6c-0.36667,0.46667 -0.73333,0.85 -1.1,1.15c-0.46667,0.43333 -1,0.8 -1.6,1.1c0.06667,-0.93333 -0.15,-1.78333 -0.65,-2.55c-0.23333,-0.36667 -0.78333,-0.98333 -1.65,-1.85c-1.76667,-1.7 -3.58333,-3.91667 -5.45,-6.65c-2.1,-3.2 -3.68333,-5.58333 -4.75,-7.15c-2.03333,-3.1 -4.11667,-5.68333 -6.25,-7.75c-0.7,-0.63333 -1.36667,-1.05 -2,-1.25c-0.73333,-0.23333 -1.56667,-0.23333 -2.5,0c-4.86667,1.26667 -8.93333,3.4 -12.2,6.4c-0.9,0.83333 -1.88333,1.9 -2.95,3.2c-0.6,0.76667 -1.5,1.91667 -2.7,3.45c-0.56667,0.73333 -1.46667,2.01667 -2.7,3.85c-0.5,0.73333 -0.73333,1.21667 -0.7,1.45c0.03333,0.26667 0.38333,0.66667 1.05,1.2c1.3,1.03333 3.55,2.71667 6.75,5.05c2.03333,1.46667 5.06667,3.66667 9.1,6.6c1.26667,0.93333 2.3,2 3.1,3.2c0.93333,1.43333 1.35,2.88333 1.25,4.35c-0.1,1.5 -0.73333,2.86667 -1.9,4.1c-0.5,0.5 -1.25,1.26667 -2.25,2.3c-0.86667,0.9 -1.7,1.6 -2.5,2.1c-0.36667,0.26667 -0.55,0.5 -0.55,0.7c0,0.26667 0.18333,0.55 0.55,0.85c1.83333,1.56667 3.51667,2.9 5.05,4c1.86667,1.36667 3.68333,2.53333 5.45,3.5c3.46667,1.86667 6.93333,4.13333 10.4,6.8c-0.7,1.33333 -1.48333,2.16667 -2.35,2.5c-0.86667,0.33333 -2.11667,0.26667 -3.75,-0.2c-1.3,-0.33333 -2.68333,-0.88333 -4.15,-1.65c-0.83333,-0.46667 -2.13333,-1.23333 -3.9,-2.3c-0.73333,-0.5 -1.28333,-0.85 -1.65,-1.05c-0.33333,-0.16667 -0.61667,-0.21667 -0.85,-0.15c-0.26667,0.1 -0.41667,0.33333 -0.45,0.7c-0.16667,1.3 -0.45,3.21667 -0.85,5.75c-0.23333,2.2 -0.2,4.15 0.1,5.85c0.16667,0.8 0.35,2.23333 0.55,4.3c0.2,1.83333 0.41667,3.26667 0.65,4.3c2.33333,10.06667 7.9,18.03333 16.7,23.9c1.4,0.96667 3.03333,1.86667 4.9,2.7c1.33333,0.63333 3.05,1.33333 5.15,2.1c0.03333,0.76667 -0.26667,1.75 -0.9,2.95c-0.6,1.2 -0.88333,2.13333 -0.85,2.8c-5.3,-1.33333 -10.21667,-3.85 -14.75,-7.55c-5.06667,-4.13333 -9.01667,-8.9 -11.85,-14.3c-2.8,-5.4 -4.45,-11.36667 -4.95,-17.9c-0.43333,-5.7 -0.05,-11.65 1.15,-17.85c0.13333,-0.53333 0.13333,-0.96667 0,-1.3c-0.13333,-0.33333 -0.41667,-0.65 -0.85,-0.95c-2.1,-1.46667 -3.86667,-2.98333 -5.3,-4.55c-1.06667,-1.16667 -1.6,-2.21667 -1.6,-3.15c0,-0.9 0.5,-1.95 1.5,-3.15c1.13333,-1.33333 2.85,-3.15 5.15,-5.45c0.66667,-0.66667 1.01667,-1.21667 1.05,-1.65c0.03333,-0.46667 -0.25,-1.05 -0.85,-1.75c-1.63333,-1.9 -3.31667,-3.35 -5.05,-4.35c-3.26667,-1.83333 -6.61667,-3.68333 -10.05,-5.55c-0.6,-0.33333 -1.2,-0.78333 -1.8,-1.35c-0.13333,-0.13333 -0.66667,-0.66667 -1.6,-1.6c-0.3,-0.33333 -0.51667,-0.71667 -0.65,-1.15c-0.1,-0.36667 -0.15,-0.81667 -0.15,-1.35c0.03333,-3.66667 1.3,-7.2 3.8,-10.6c1.5,-2.06667 3.45,-4.11667 5.85,-6.15c1.2,-1.03333 3.43333,-2.76667 6.7,-5.2c0.66667,-0.5 1.65,-1.2 2.95,-2.1c1.36667,-0.93333 2.35,-1.61667 2.95,-2.05c3.2,-2.33333 6.81667,-2.61667 10.85,-0.85c1.66667,0.7 3.3,1.76667 4.9,3.2c1.16667,1 2.53333,2.4 4.1,4.2c1.46667,1.73333 2.93333,3.7 4.4,5.9c1.16667,1.73333 2.45,3.81667 3.85,6.25c0.46667,0.83333 0.8,1.41667 1,1.75c0.5,0.76667 1.05,1.15 1.65,1.15c0.6,0 1.16667,-0.4 1.7,-1.2c0.66667,-0.96667 1.5,-2.25 2.5,-3.85c1.3,-2.03333 2.13333,-3.33333 2.5,-3.9c0.4,-0.56667 0.6,-1.13333 0.6,-1.7c0.03333,-0.56667 -0.11667,-1.15 -0.45,-1.75c-2.13333,-4.13333 -4.35,-8.51667 -6.65,-13.15c-0.23333,-0.43333 -0.5,-0.73333 -0.8,-0.9c-0.3,-0.16667 -0.68333,-0.23333 -1.15,-0.2c-0.46667,0 -1.13333,0 -2,0c-0.93333,0 -1.6,0 -2,0c-6.8,0.16667 -13.45,-1.35 -19.95,-4.55c-0.9,-0.43333 -1.38333,-0.66667 -1.45,-0.7c-0.56667,-0.23333 -1.1,-0.33333 -1.6,-0.3c-0.2,0 -0.43333,-0.05 -0.7,-0.15c-0.3,-0.16667 -0.51667,-0.28333 -0.65,-0.35c-1.8,-0.9 -3.26667,-2.38333 -4.4,-4.45c-1.13333,-2.06667 -1.58333,-4.1 -1.35,-6.1c0.76667,-6.56667 1.11667,-12.35 1.05,-17.35c-0.03333,-1.9 0.23333,-3.96667 0.8,-6.2c0.3,-1.03333 0.63333,-1.68333 1,-1.95c0.33333,-0.26667 1.03333,-0.4 2.1,-0.4c0.76667,-0.03333 1.71667,0.13333 2.85,0.5c1.4,0.4 2.31667,0.63333 2.75,0.7c1.5,0.23333 3.16667,0.35 5,0.35c1.3,0 2.95,-0.05 4.95,-0.15c1.56667,-0.13333 3.33333,-0.36667 5.3,-0.7c1.2,-0.23333 2.93333,-0.6 5.2,-1.1c0.16667,-0.03333 0.41667,-0.08333 0.75,-0.15c0.3,-0.06667 0.53333,-0.13333 0.7,-0.2c2.56667,-1.16667 4.88333,-0.88333 6.95,0.85c-0.53333,-0.06667 -0.96667,0.06667 -1.3,0.4c-0.2,0.2 -0.43333,0.56667 -0.7,1.1c-0.46667,0.9 -0.95,1.55 -1.45,1.95c-0.63333,0.46667 -1.45,0.68333 -2.45,0.65c-0.7,0 -1.58333,0.16667 -2.65,0.5c-1.16667,0.43333 -2.03333,0.73333 -2.6,0.9M866.9,365.05c0.5,1.56667 1.25,3.9 2.25,7c0.86667,2.73333 1.58333,5.06667 2.15,7c0.43333,1.33333 0.18333,2.58333 -0.75,3.75c-0.8,1 -1.38333,1.68333 -1.75,2.05l-10.65,10.55c-1.6,1.6 -3.08333,3.38333 -4.45,5.35c-0.3,0.43333 -0.48333,0.83333 -0.55,1.2c-0.06667,0.4 -0.03333,0.85 0.1,1.35c0.56667,1.96667 1.38333,4.31667 2.45,7.05c0.56667,1.53333 1.46667,3.85 2.7,6.95c0.06667,0.23333 0.2,0.58333 0.4,1.05c0.13333,0.4 0.18333,0.76667 0.15,1.1c-0.6,-0.36667 -1.16667,-0.91667 -1.7,-1.65c-0.56667,-0.86667 -1,-1.51667 -1.3,-1.95c-2.6,-3.63333 -4.33333,-7.55 -5.2,-11.75c-1.13333,-5.4 0.13333,-10.06667 3.8,-14c2.6,-2.83333 5.35,-5.38333 8.25,-7.65c1.4,-1.13333 2.38333,-2.46667 2.95,-4c0.6,-1.53333 0.73333,-3.21667 0.4,-5.05c-0.3,-1.8 -0.5,-3.15 -0.6,-4.05c-0.16667,-1.5 -0.2,-2.86667 -0.1,-4.1c0,-0.4 0,-0.61667 0,-0.65c0.06667,-0.2 0.21667,-0.33333 0.45,-0.4c0.26667,-0.06667 0.48333,0 0.65,0.2c0.13333,0.1 0.25,0.31667 0.35,0.65M894,336.45c-2.2,1.1 -4.31667,1.81667 -6.35,2.15c-0.13333,0.03333 -0.28333,0.08333 -0.45,0.15c-0.2,0.1 -0.35,0.16667 -0.45,0.2c-1.33333,0.5 -2.16667,0.81667 -2.5,0.95c-0.73333,0.33333 -1.3,0.71667 -1.7,1.15c-0.86667,0.9 -1.25,2.55 -1.15,4.95c0.03333,0.56667 0.01667,0.98333 -0.05,1.25c-0.56667,2.16667 -0.53333,4.36667 0.1,6.6c0.46667,1.73333 1.38333,3.7 2.75,5.9c0.76667,1.23333 1.71667,2.16667 2.85,2.8c1.2,0.66667 2.55,0.98333 4.05,0.95c1.13333,-0.03333 2.38333,-0.13333 3.75,-0.3c0.8,-0.1 2.01667,-0.28333 3.65,-0.55c0.76667,-0.13333 1.48333,-0.2 2.15,-0.2c0.76667,0 1.58333,0.08333 2.45,0.25c-0.93333,1.26667 -2,2.2 -3.2,2.8c-1.06667,0.5 -2.31667,0.8 -3.75,0.9c-1.56667,0.13333 -3.73333,0.15 -6.5,0.05c-2.06667,-0.1 -4.01667,-0.9 -5.85,-2.4c-1.5,-1.2 -2.73333,-2.65 -3.7,-4.35c-0.86667,-1.5 -1.58333,-3.26667 -2.15,-5.3c-0.96667,-3.56667 -1.5,-6.66667 -1.6,-9.3c-0.03333,-0.43333 -0.11667,-1.25 -0.25,-2.45c-0.1,-1.03333 -0.15,-1.86667 -0.15,-2.5c0.03333,-4.03333 2,-6.31667 5.9,-6.85c3.8,-0.5 7,-1.13333 9.6,-1.9c3.4,-1.03333 6.38333,-2.41667 8.95,-4.15c0.66667,-0.46667 1.18333,-0.75 1.55,-0.85c0.6,-0.16667 1.13333,0.01667 1.6,0.55c0.36667,0.43333 0.43333,0.93333 0.2,1.5c-0.13333,0.33333 -0.4,0.8 -0.8,1.4c-0.66667,1.2 -1.71667,2.25 -3.15,3.15c-2.53333,1.63333 -4.46667,2.78333 -5.8,3.45M869.9,318.35c-1.06667,0.6 -2.3,1.11667 -3.7,1.55c-1.03333,0.3 -2.41667,0.6 -4.15,0.9c-2.1,0.3 -3.48333,0.53333 -4.15,0.7c-0.76667,0.16667 -1.68333,0.28333 -2.75,0.35c-1.2,0.06667 -2.1,0.11667 -2.7,0.15c-0.7,0.03333 -1.31667,-0.08333 -1.85,-0.35c-0.46667,-0.26667 -0.91667,-0.66667 -1.35,-1.2c-3.36667,-4.3 -5.31667,-9.25 -5.85,-14.85c-0.16667,-1.56667 -0.35,-2.8 -0.55,-3.7c-0.36667,-1.56667 -0.3,-3.13333 0.2,-4.7c0.4,-1.23333 1.15,-2.63333 2.25,-4.2c0.4,0.26667 0.76667,0.7 1.1,1.3c0.4,0.66667 0.68333,1.08333 0.85,1.25c0.6,0.63333 1,1.3 1.2,2c0.23333,0.7 0.25,1.51667 0.05,2.45c-0.3,1.63333 -0.16667,3.43333 0.4,5.4c0.3,1.03333 0.96667,2.73333 2,5.1c0.63333,1.4 1.48333,2.53333 2.55,3.4c1,0.76667 2.26667,1.35 3.8,1.75c1.1,0.26667 2.15,0.28333 3.15,0.05c3.26667,-0.7 5.88333,-1.13333 7.85,-1.3c0.9,-0.06667 1.73333,-0.35 2.5,-0.85c0.73333,-0.43333 1.36667,-1 1.9,-1.7c0.8,-1 2.08333,-2.38333 3.85,-4.15c1.76667,-1.76667 3.05,-3.15 3.85,-4.15c0.36667,0.23333 0.56667,0.51667 0.6,0.85c0,0.2 -0.06667,0.5 -0.2,0.9c-0.56667,1.43333 -1.35,2.71667 -2.35,3.85c-0.63333,0.7 -1.51667,1.78333 -2.65,3.25c-1.16667,1.5 -2.06667,2.6 -2.7,3.3c-0.9,1.03333 -1.95,1.91667 -3.15,2.65z" fill="#2c2d41"/><path d="M923.8,316.1c2.06667,1.53333 3.61667,3.65 4.65,6.35c0.3,0.76667 0.56667,1.71667 0.8,2.85c0.13333,0.66667 0.31667,1.65 0.55,2.95c0.4,2.03333 1.01667,5.28333 1.85,9.75c0.8,4.23333 1.43333,7.48333 1.9,9.75c0.5,2.46667 0.16667,4.88333 -1,7.25c-1.26667,2.63333 -2.91667,5.51667 -4.95,8.65c-0.5,0.8 -1.1,1.88333 -1.8,3.25c-0.86667,1.7 -1.43333,2.81667 -1.7,3.35c-0.73333,1.26667 -1.16667,2.66667 -1.3,4.2c-0.1,1.23333 -0.01667,2.7 0.25,4.4c0.83333,4.96667 1.25,9.58333 1.25,13.85c0,6.96667 -1.11667,14.5 -3.35,22.6c-1.33333,4.66667 -2.85,8.91667 -4.55,12.75c-1.93333,4.3 -4.18333,8.23333 -6.75,11.8c-6.2,8.63333 -13.9,14.41667 -23.1,17.35c-2.93333,0.96667 -5.61667,1.66667 -8.05,2.1c-2.9,0.56667 -5.66667,0.81667 -8.3,0.75c-3,-0.03333 -5.25,-0.05 -6.75,-0.05c-2.66667,-0.03333 -4.9,-0.16667 -6.7,-0.4c-5.23333,-0.66667 -10,-1.73333 -14.3,-3.2c-0.03333,-0.66667 0.25,-1.6 0.85,-2.8c0.63333,-1.2 0.93333,-2.18333 0.9,-2.95c-2.1,-0.76667 -3.81667,-1.46667 -5.15,-2.1c-1.86667,-0.83333 -3.5,-1.73333 -4.9,-2.7c-8.8,-5.86667 -14.36667,-13.83333 -16.7,-23.9c-0.23333,-1.03333 -0.45,-2.46667 -0.65,-4.3c-0.2,-2.06667 -0.38333,-3.5 -0.55,-4.3c-0.3,-1.7 -0.33333,-3.65 -0.1,-5.85c0.4,-2.53333 0.68333,-4.45 0.85,-5.75c0.03333,-0.36667 0.18333,-0.6 0.45,-0.7c0.23333,-0.06667 0.51667,-0.01667 0.85,0.15c0.36667,0.2 0.91667,0.55 1.65,1.05c1.76667,1.06667 3.06667,1.83333 3.9,2.3c1.46667,0.76667 2.85,1.31667 4.15,1.65c1.63333,0.46667 2.88333,0.53333 3.75,0.2c0.86667,-0.33333 1.65,-1.16667 2.35,-2.5c-3.46667,-2.66667 -6.93333,-4.93333 -10.4,-6.8c-1.76667,-0.96667 -3.58333,-2.13333 -5.45,-3.5c-1.53333,-1.1 -3.21667,-2.43333 -5.05,-4c-0.36667,-0.3 -0.55,-0.58333 -0.55,-0.85c0,-0.2 0.18333,-0.43333 0.55,-0.7c0.8,-0.5 1.63333,-1.2 2.5,-2.1c1,-1.03333 1.75,-1.8 2.25,-2.3c1.16667,-1.23333 1.8,-2.6 1.9,-4.1c0.1,-1.46667 -0.31667,-2.91667 -1.25,-4.35c-0.8,-1.2 -1.83333,-2.26667 -3.1,-3.2c-4.03333,-2.93333 -7.06667,-5.13333 -9.1,-6.6c-3.2,-2.33333 -5.45,-4.01667 -6.75,-5.05c-0.66667,-0.53333 -1.01667,-0.93333 -1.05,-1.2c-0.03333,-0.23333 0.2,-0.71667 0.7,-1.45c1.23333,-1.83333 2.13333,-3.11667 2.7,-3.85c1.2,-1.53333 2.1,-2.68333 2.7,-3.45c1.06667,-1.3 2.05,-2.36667 2.95,-3.2c3.26667,-3 7.33333,-5.13333 12.2,-6.4c0.93333,-0.23333 1.76667,-0.23333 2.5,0c0.63333,0.2 1.3,0.61667 2,1.25c2.13333,2.06667 4.21667,4.65 6.25,7.75c1.06667,1.56667 2.65,3.95 4.75,7.15c1.86667,2.73333 3.68333,4.95 5.45,6.65c0.86667,0.86667 1.41667,1.48333 1.65,1.85c0.5,0.76667 0.71667,1.61667 0.65,2.55c0.6,-0.3 1.13333,-0.66667 1.6,-1.1c0.36667,-0.3 0.73333,-0.68333 1.1,-1.15c2.73333,-3.46667 4.98333,-6.66667 6.75,-9.6c1.13333,-1.83333 2.43333,-4.25 3.9,-7.25c0.43333,-0.86667 0.68333,-1.68333 0.75,-2.45c0.1,-0.86667 -0.06667,-1.71667 -0.5,-2.55c-0.3,-0.63333 -0.7,-1.53333 -1.2,-2.7c-0.53333,-1.36667 -0.91667,-2.3 -1.15,-2.8c-1,-2.13333 -1.95,-4.01667 -2.85,-5.65c-1.1,-2 -2.25,-3.78333 -3.45,-5.35c-0.5,-0.66667 -0.96667,-1.15 -1.4,-1.45c-0.6,-0.4 -1.28333,-0.58333 -2.05,-0.55c-2.3,0.06667 -4.78333,-0.05 -7.45,-0.35c-2.06667,-0.26667 -4.53333,-0.66667 -7.4,-1.2c-2.33333,-0.46667 -4.35,-1.05 -6.05,-1.75c-2.06667,-0.86667 -3.86667,-1.98333 -5.4,-3.35c-0.7,-0.66667 -1.16667,-1.08333 -1.4,-1.25c-0.56667,-0.43333 -1.11667,-0.73333 -1.65,-0.9c-0.73333,-0.26667 -1.25,-0.65 -1.55,-1.15c-0.3,-0.46667 -0.4,-1.1 -0.3,-1.9c0.03333,-0.3 0.06667,-0.75 0.1,-1.35c0,-0.6 0.03333,-1.06667 0.1,-1.4c0.6,-4.23333 1.05,-7.41667 1.35,-9.55c0.23333,-1.46667 0.4,-2.58333 0.5,-3.35c0.2,-1.26667 0.35,-2.36667 0.45,-3.3c0.06667,-0.63333 0.25,-1.03333 0.55,-1.2c0.23333,-0.13333 0.65,-0.13333 1.25,0c0.66667,0.13333 1.3,0.33333 1.9,0.6c0.66667,0.3 1.13333,0.5 1.4,0.6c0.5,0.16667 0.98333,0.26667 1.45,0.3c2.86667,0.06667 5.35,0 7.45,-0.2c2.66667,-0.2 5.11667,-0.61667 7.35,-1.25c0.56667,-0.16667 1.43333,-0.46667 2.6,-0.9c1.06667,-0.33333 1.95,-0.5 2.65,-0.5c1,0.03333 1.81667,-0.18333 2.45,-0.65c0.5,-0.4 0.98333,-1.05 1.45,-1.95c0.26667,-0.53333 0.5,-0.9 0.7,-1.1c0.33333,-0.33333 0.76667,-0.46667 1.3,-0.4c0.26667,0.06667 0.5,0.05 0.7,-0.05c0.2,-0.06667 0.4,-0.2 0.6,-0.4c2.13333,-2 4.76667,-4.25 7.9,-6.75c3.63333,-2.8 6.35,-4.91667 8.15,-6.35c1.5,-1.16667 2.46667,-1.88333 2.9,-2.15c1.1,-0.76667 2.18333,-1.26667 3.25,-1.5c2.36667,-0.56667 4.43333,-0.6 6.2,-0.1c2,0.53333 3.71667,1.7 5.15,3.5c2.66667,3.33333 4.96667,7.18333 6.9,11.55c0.7,1.6 1.8,3.2 3.3,4.8c0.73333,0.73333 2.16667,2.05 4.3,3.95c0.66667,0.6 1.68333,1.48333 3.05,2.65c1.16667,1 2.13333,1.9 2.9,2.7c1.83333,1.93333 3.05,3.98333 3.65,6.15c0.23333,0.86667 0.58333,2.01667 1.05,3.45c0.56667,1.76667 0.91667,2.9 1.05,3.4c0.3,0.96667 0.93333,1.36667 1.9,1.2c0.63333,-0.13333 1.45,-0.18333 2.45,-0.15c1.46667,0 2.3,0 2.5,0c2.83333,-0.13333 5.33333,0.61667 7.5,2.25M875.75,312.4c1.13333,-1.46667 2.01667,-2.55 2.65,-3.25c1,-1.13333 1.78333,-2.41667 2.35,-3.85c0.13333,-0.4 0.2,-0.7 0.2,-0.9c-0.03333,-0.33333 -0.23333,-0.61667 -0.6,-0.85c-0.8,1 -2.08333,2.38333 -3.85,4.15c-1.76667,1.76667 -3.05,3.15 -3.85,4.15c-0.53333,0.7 -1.16667,1.26667 -1.9,1.7c-0.76667,0.5 -1.6,0.78333 -2.5,0.85c-1.96667,0.16667 -4.58333,0.6 -7.85,1.3c-1,0.23333 -2.05,0.21667 -3.15,-0.05c-1.53333,-0.4 -2.8,-0.98333 -3.8,-1.75c-1.06667,-0.86667 -1.91667,-2 -2.55,-3.4c-1.03333,-2.36667 -1.7,-4.06667 -2,-5.1c-0.56667,-1.96667 -0.7,-3.76667 -0.4,-5.4c0.2,-0.93333 0.18333,-1.75 -0.05,-2.45c-0.2,-0.7 -0.6,-1.36667 -1.2,-2c-0.16667,-0.16667 -0.45,-0.58333 -0.85,-1.25c-0.33333,-0.6 -0.7,-1.03333 -1.1,-1.3c-1.1,1.56667 -1.85,2.96667 -2.25,4.2c-0.5,1.56667 -0.56667,3.13333 -0.2,4.7c0.2,0.9 0.38333,2.13333 0.55,3.7c0.53333,5.6 2.48333,10.55 5.85,14.85c0.43333,0.53333 0.88333,0.93333 1.35,1.2c0.53333,0.26667 1.15,0.38333 1.85,0.35c0.6,-0.03333 1.5,-0.08333 2.7,-0.15c1.06667,-0.06667 1.98333,-0.18333 2.75,-0.35c0.66667,-0.16667 2.05,-0.4 4.15,-0.7c1.73333,-0.3 3.11667,-0.6 4.15,-0.9c1.4,-0.43333 2.63333,-0.95 3.7,-1.55c1.2,-0.73333 2.25,-1.61667 3.15,-2.65c0.63333,-0.7 1.53333,-1.8 2.7,-3.3M899.8,333c1.43333,-0.9 2.48333,-1.95 3.15,-3.15c0.4,-0.6 0.66667,-1.06667 0.8,-1.4c0.23333,-0.56667 0.16667,-1.06667 -0.2,-1.5c-0.46667,-0.53333 -1,-0.71667 -1.6,-0.55c-0.36667,0.1 -0.88333,0.38333 -1.55,0.85c-2.56667,1.73333 -5.55,3.11667 -8.95,4.15c-2.6,0.76667 -5.8,1.4 -9.6,1.9c-3.9,0.53333 -5.86667,2.81667 -5.9,6.85c0,0.63333 0.05,1.46667 0.15,2.5c0.13333,1.2 0.21667,2.01667 0.25,2.45c0.1,2.63333 0.63333,5.73333 1.6,9.3c0.56667,2.03333 1.28333,3.8 2.15,5.3c0.96667,1.7 2.2,3.15 3.7,4.35c1.83333,1.5 3.78333,2.3 5.85,2.4c2.76667,0.1 4.93333,0.08333 6.5,-0.05c1.43333,-0.1 2.68333,-0.4 3.75,-0.9c1.2,-0.6 2.26667,-1.53333 3.2,-2.8c-0.86667,-0.16667 -1.68333,-0.25 -2.45,-0.25c-0.66667,0 -1.38333,0.06667 -2.15,0.2c-1.63333,0.26667 -2.85,0.45 -3.65,0.55c-1.36667,0.16667 -2.61667,0.26667 -3.75,0.3c-1.5,0.03333 -2.85,-0.28333 -4.05,-0.95c-1.13333,-0.63333 -2.08333,-1.56667 -2.85,-2.8c-1.36667,-2.2 -2.28333,-4.16667 -2.75,-5.9c-0.63333,-2.23333 -0.66667,-4.43333 -0.1,-6.6c0.06667,-0.26667 0.08333,-0.68333 0.05,-1.25c-0.1,-2.4 0.28333,-4.05 1.15,-4.95c0.4,-0.43333 0.96667,-0.81667 1.7,-1.15c0.33333,-0.13333 1.16667,-0.45 2.5,-0.95c0.1,-0.03333 0.25,-0.1 0.45,-0.2c0.16667,-0.06667 0.31667,-0.11667 0.45,-0.15c2.03333,-0.33333 4.15,-1.05 6.35,-2.15c1.33333,-0.66667 3.26667,-1.81667 5.8,-3.45M865.9,364.2c-0.23333,0.06667 -0.38333,0.2 -0.45,0.4c0,0.03333 0,0.25 0,0.65c-0.1,1.23333 -0.06667,2.6 0.1,4.1c0.1,0.9 0.3,2.25 0.6,4.05c0.33333,1.83333 0.2,3.51667 -0.4,5.05c-0.56667,1.53333 -1.55,2.86667 -2.95,4c-2.9,2.26667 -5.65,4.81667 -8.25,7.65c-3.66667,3.93333 -4.93333,8.6 -3.8,14c0.86667,4.2 2.6,8.11667 5.2,11.75c0.3,0.43333 0.73333,1.08333 1.3,1.95c0.53333,0.73333 1.1,1.28333 1.7,1.65c0.03333,-0.33333 -0.01667,-0.7 -0.15,-1.1c-0.2,-0.46667 -0.33333,-0.81667 -0.4,-1.05c-1.23333,-3.1 -2.13333,-5.41667 -2.7,-6.95c-1.06667,-2.73333 -1.88333,-5.08333 -2.45,-7.05c-0.13333,-0.5 -0.16667,-0.95 -0.1,-1.35c0.06667,-0.36667 0.25,-0.76667 0.55,-1.2c1.36667,-1.96667 2.85,-3.75 4.45,-5.35l10.65,-10.55c0.36667,-0.36667 0.95,-1.05 1.75,-2.05c0.93333,-1.16667 1.18333,-2.41667 0.75,-3.75c-0.56667,-1.93333 -1.28333,-4.26667 -2.15,-7c-1,-3.1 -1.75,-5.43333 -2.25,-7c-0.1,-0.33333 -0.21667,-0.55 -0.35,-0.65c-0.16667,-0.2 -0.38333,-0.26667 -0.65,-0.2z" fill="#000000"/></g></g></svg>