<svg version="1.1" xmlns="http://www.w3.org/2000/svg" xmlns:xlink="http://www.w3.org/1999/xlink" width="43.975" height="63.90588" viewBox="0,0,43.975,63.90588"><g transform="translate(-608.10811,-337.83784)"><g data-paper-data="{&quot;isPaintingLayer&quot;:true}" fill-rule="nonzero" stroke="none" stroke-width="1" stroke-linecap="butt" stroke-linejoin="miter" stroke-miterlimit="10" stroke-dasharray="" stroke-dashoffset="0" style="mix-blend-mode: normal"><path d="M651.90811,342.03784c-0.03333,0.46667 -0.01667,0.91667 0.05,1.35c0,0.1 0,0.18333 0,0.25c0,0.56667 0,1.1 0,1.6c0,0.9 0.03333,1.8 0.1,2.7c0.03333,1.23333 0.03333,2.48333 0,3.75c-0.03333,0.1 -0.06667,0.18333 -0.1,0.25c-0.03333,0.1 -0.05,0.2 -0.05,0.3c-0.03333,0.06667 -0.06667,0.15 -0.1,0.25c-0.03333,0.1 -0.06667,0.18333 -0.1,0.25c0,0.1 0,0.2 0,0.3c0,0.06667 0,0.15 0,0.25c0,0.26667 0,0.53333 0,0.8c0,0.1 0,0.2 0,0.3c0,0.16667 0,0.33333 0,0.5c0,0.1 0,0.2 0,0.3c0,0.06667 0,0.15 0,0.25c-0.03333,0.1 -0.06667,0.18333 -0.1,0.25c-0.06667,0.2 -0.11667,0.38333 -0.15,0.55c-0.03333,0.16667 -0.06667,0.35 -0.1,0.55c-0.03333,0.06667 -0.06667,0.15 -0.1,0.25c-0.03333,0.16667 -0.06667,0.35 -0.1,0.55c-0.03333,0.1 -0.06667,0.18333 -0.1,0.25c-0.16667,0.26667 -0.33333,0.53333 -0.5,0.8c-0.46667,0.5 -1.03333,0.81667 -1.7,0.95c-0.6,0.13333 -1.2,0.18333 -1.8,0.15c-3,-0.1 -6,-0.35 -9,-0.75c0,1 0,1.98333 0,2.95c0,4.03333 0,8.05 0,12.05c0,3.4 0,6.8 0,10.2c0.03333,0.1 0.06667,0.18333 0.1,0.25c0,0.1 0.01667,0.2 0.05,0.3c0.03333,0.06667 0.06667,0.15 0.1,0.25c0.03333,0.1 0.06667,0.18333 0.1,0.25c0,0.46667 0,0.91667 0,1.35c0,0.26667 0,0.53333 0,0.8c0,0.63333 0,1.26667 0,1.9c0,2.13333 0,4.26667 0,6.4c0,0.63333 0,1.26667 0,1.9c-0.03333,0.06667 -0.06667,0.15 -0.1,0.25c-0.03333,0.1 -0.06667,0.18333 -0.1,0.25c-0.03333,0.2 -0.1,0.38333 -0.2,0.55c-0.03333,0.1 -0.08333,0.2 -0.15,0.3c-0.06667,0.06667 -0.11667,0.15 -0.15,0.25c-0.06667,0.1 -0.13333,0.18333 -0.2,0.25c-2.66667,1.1 -5.48333,1.83333 -8.45,2.2c-1.6,0.2 -3.2,0.11667 -4.8,-0.25c-3.06667,-0.7 -4.36667,-2.7 -3.9,-6c0.2,-1.4 0.28333,-2.81667 0.25,-4.25c-0.03333,-1.33333 -0.05,-2.66667 -0.05,-4c0.03333,-0.1 0.06667,-0.2 0.1,-0.3c0,-0.06667 0.01667,-0.15 0.05,-0.25c0.03333,-0.1 0.06667,-0.18333 0.1,-0.25c0.03333,-0.1 0.06667,-0.2 0.1,-0.3c0,-0.43333 0,-0.86667 0,-1.3c0,-0.1 0,-0.2 0,-0.3c0,-0.33333 0,-0.68333 0,-1.05c0,-0.73333 -0.01667,-1.45 -0.05,-2.15c-0.06667,-1.2 0.06667,-2.36667 0.4,-3.5c0,-0.43333 0,-0.86667 0,-1.3c0,-0.3 0,-0.56667 0,-0.8c0,-0.53333 0,-1.08333 0,-1.65c0,-1.96667 0,-3.91667 0,-5.85c0,-0.83333 0,-1.65 0,-2.45c0.03333,-0.06667 0.06667,-0.15 0.1,-0.25c0.03333,-0.1 0.06667,-0.18333 0.1,-0.25c0.03333,-0.1 0.05,-0.2 0.05,-0.3c0.03333,-0.06667 0.06667,-0.15 0.1,-0.25c0,-0.43333 0,-0.88333 0,-1.35c0,-0.1 0,-0.18333 0,-0.25c0,-0.2 0,-0.38333 0,-0.55c0,-0.26667 0,-0.53333 0,-0.8c0,-0.53333 0,-1.06667 0,-1.6c0,-0.8 0,-1.6 0,-2.4c-0.73333,-0.23333 -1.6,-0.28333 -2.6,-0.15c-0.76667,0.1 -1.53333,0.25 -2.3,0.45c-3.03333,0.73333 -5.68333,0.28333 -7.95,-1.35c-0.3,-0.23333 -0.5,-0.55 -0.6,-0.95c-0.06667,-0.43333 -0.06667,-0.88333 0,-1.35c0.03333,-0.26667 0.06667,-0.51667 0.1,-0.75c0.03333,-0.53333 0.05,-1.08333 0.05,-1.65c0.06667,-1.86667 0.15,-3.73333 0.25,-5.6c0.06667,-0.8 0.13333,-1.6 0.2,-2.4c0,-0.1 0,-0.2 0,-0.3c-0.03333,-0.06667 -0.06667,-0.15 -0.1,-0.25c-0.03333,-0.1 -0.05,-0.18333 -0.05,-0.25c0,-0.1 0,-0.2 0,-0.3c0,-0.06667 0,-0.15 0,-0.25c0,-0.1 0,-0.18333 0,-0.25c0,-0.2 0.01667,-0.38333 0.05,-0.55c0.56667,-1.13333 1.46667,-1.76667 2.7,-1.9c6.9,-0.8 13.75,-1.48333 20.55,-2.05c3.6,0.16667 7.2,0.28333 10.8,0.35c2.96667,0.06667 5.65,0.8 8.05,2.2c0.6,0.36667 0.98333,0.91667 1.15,1.65M633.30811,343.93784c-3.7,0.3 -7.38333,0.66667 -11.05,1.1c-3.1,0.4 -6.2,0.65 -9.3,0.75c0.1,0.36667 0.13333,0.73333 0.1,1.1c0,0.06667 0,0.15 0,0.25c0.1,0.33333 0.15,0.68333 0.15,1.05c0.03333,0.63333 0.05,1.26667 0.05,1.9c-0.03333,0.36667 -0.01667,0.71667 0.05,1.05c0.03333,0.33333 0.03333,0.66667 0,1c4.26667,-0.66667 8.5,-0.71667 12.7,-0.15c0.56667,0.1 0.93333,0.43333 1.1,1c0.73333,2.36667 1.08333,4.85 1.05,7.45c-0.03333,2.26667 -0.25,4.5 -0.65,6.7c0,0.63333 0,1.25 0,1.85c0,0.83333 0,1.65 0,2.45c0,0.6 0,1.21667 0,1.85c0,1.96667 0,3.93333 0,5.9c-0.03333,0.1 -0.06667,0.18333 -0.1,0.25c-0.03333,0.1 -0.05,0.2 -0.05,0.3c-0.03333,0.06667 -0.06667,0.15 -0.1,0.25c-0.03333,0.1 -0.06667,0.18333 -0.1,0.25c0,0.73333 0,1.45 0,2.15c0,0.9 -0.01667,1.8 -0.05,2.7c-0.03333,1.96667 -0.11667,3.93333 -0.25,5.9c-0.1,1.23333 -0.15,2.48333 -0.15,3.75c0,0.23333 0,0.46667 0,0.7c0.4,0.1 0.88333,0.06667 1.45,-0.1c0.06667,-0.03333 0.15,-0.05 0.25,-0.05c0.63333,-0.16667 1.25,-0.3 1.85,-0.4c0.43333,-0.06667 0.85,-0.13333 1.25,-0.2c0.33333,-0.03333 0.66667,-0.08333 1,-0.15c0,-0.36667 0,-0.71667 0,-1.05c0,-0.2 0,-0.38333 0,-0.55c0,-0.53333 0,-1.06667 0,-1.6c0,-0.36667 0,-0.73333 0,-1.1c0,-0.33333 0,-0.68333 0,-1.05c0,-0.63333 0,-1.26667 0,-1.9c0,-0.26667 0,-0.53333 0,-0.8c-0.36667,-1.7 -0.53333,-3.48333 -0.5,-5.35c0.1,-3.2 0.15,-6.41667 0.15,-9.65c0,-5.43333 0,-10.86667 0,-16.3c0,-0.3 0,-0.56667 0,-0.8c0.03333,-0.1 0.06667,-0.2 0.1,-0.3c0.03333,-0.06667 0.05,-0.15 0.05,-0.25c0.03333,-0.1 0.06667,-0.2 0.1,-0.3c0.03333,-0.06667 0.06667,-0.15 0.1,-0.25c0.1,-0.1 0.18333,-0.18333 0.25,-0.25c0.06667,-0.1 0.13333,-0.18333 0.2,-0.25c0.1,-0.1 0.18333,-0.2 0.25,-0.3c1.1,-0.7 2.26667,-0.83333 3.5,-0.4c2.9,1.03333 5.88333,1.35 8.95,0.95c0,-0.2 0,-0.38333 0,-0.55c0,-0.1 0,-0.18333 0,-0.25c0,-0.1 0,-0.2 0,-0.3c0,-0.06667 0,-0.15 0,-0.25c0,-0.1 0,-0.18333 0,-0.25c0,-0.1 0.01667,-0.2 0.05,-0.3c0.03333,-0.06667 0.06667,-0.15 0.1,-0.25c0.03333,-0.1 0.06667,-0.18333 0.1,-0.25c0.03333,-0.1 0.06667,-0.2 0.1,-0.3c0,-0.33333 0,-0.68333 0,-1.05c0,-0.1 0,-0.2 0,-0.3c0,-0.23333 0,-0.5 0,-0.8c0,-0.26667 0.01667,-0.53333 0.05,-0.8c0.03333,-0.43333 0.03333,-0.86667 0,-1.3c0,-0.3 0,-0.58333 0,-0.85c0,-0.06667 0,-0.15 0,-0.25c-1.56667,-0.46667 -3.36667,-0.68333 -5.4,-0.65c-2.5,0.06667 -4.95,-0.06667 -7.35,-0.4z" fill="#000000"/><path d="M646.05811,345.23784c0,0.26667 0,0.55 0,0.85c0.03333,0.43333 0.03333,0.86667 0,1.3c-0.03333,0.26667 -0.05,0.53333 -0.05,0.8c0,0.3 0,0.56667 0,0.8c0,0.1 0,0.2 0,0.3c0,0.36667 0,0.71667 0,1.05c-0.03333,0.1 -0.06667,0.2 -0.1,0.3c-0.03333,0.06667 -0.06667,0.15 -0.1,0.25c-0.03333,0.1 -0.06667,0.18333 -0.1,0.25c-0.03333,0.1 -0.05,0.2 -0.05,0.3c0,0.06667 0,0.15 0,0.25c0,0.1 0,0.18333 0,0.25c0,0.1 0,0.2 0,0.3c0,0.06667 0,0.15 0,0.25c0,0.16667 0,0.35 0,0.55c-3.06667,0.4 -6.05,0.08333 -8.95,-0.95c-1.23333,-0.43333 -2.4,-0.3 -3.5,0.4c-0.06667,0.1 -0.15,0.2 -0.25,0.3c-0.06667,0.06667 -0.13333,0.15 -0.2,0.25c-0.06667,0.06667 -0.15,0.15 -0.25,0.25c-0.03333,0.1 -0.06667,0.18333 -0.1,0.25c-0.03333,0.1 -0.06667,0.2 -0.1,0.3c0,0.1 -0.01667,0.18333 -0.05,0.25c-0.03333,0.1 -0.06667,0.2 -0.1,0.3c0,0.23333 0,0.5 0,0.8c0,5.43333 0,10.86667 0,16.3c0,3.23333 -0.05,6.45 -0.15,9.65c-0.03333,1.86667 0.13333,3.65 0.5,5.35c0,0.26667 0,0.53333 0,0.8c0,0.63333 0,1.26667 0,1.9c0,0.36667 0,0.71667 0,1.05c0,0.36667 0,0.73333 0,1.1c0,0.53333 0,1.06667 0,1.6c0,0.16667 0,0.35 0,0.55c0,0.33333 0,0.68333 0,1.05c-0.33333,0.06667 -0.66667,0.11667 -1,0.15c-0.4,0.06667 -0.81667,0.13333 -1.25,0.2c-0.6,0.1 -1.21667,0.23333 -1.85,0.4c-0.1,0 -0.18333,0.01667 -0.25,0.05c-0.56667,0.16667 -1.05,0.2 -1.45,0.1c0,-0.23333 0,-0.46667 0,-0.7c0,-1.26667 0.05,-2.51667 0.15,-3.75c0.13333,-1.96667 0.21667,-3.93333 0.25,-5.9c0.03333,-0.9 0.05,-1.8 0.05,-2.7c0,-0.7 0,-1.41667 0,-2.15c0.03333,-0.06667 0.06667,-0.15 0.1,-0.25c0.03333,-0.1 0.06667,-0.18333 0.1,-0.25c0,-0.1 0.01667,-0.2 0.05,-0.3c0.03333,-0.06667 0.06667,-0.15 0.1,-0.25c0,-1.96667 0,-3.93333 0,-5.9c0,-0.63333 0,-1.25 0,-1.85c0,-0.8 0,-1.61667 0,-2.45c0,-0.6 0,-1.21667 0,-1.85c0.4,-2.2 0.61667,-4.43333 0.65,-6.7c0.03333,-2.6 -0.31667,-5.08333 -1.05,-7.45c-0.16667,-0.56667 -0.53333,-0.9 -1.1,-1c-4.2,-0.56667 -8.43333,-0.51667 -12.7,0.15c0.03333,-0.33333 0.03333,-0.66667 0,-1c-0.06667,-0.33333 -0.08333,-0.68333 -0.05,-1.05c0,-0.63333 -0.01667,-1.26667 -0.05,-1.9c0,-0.36667 -0.05,-0.71667 -0.15,-1.05c0,-0.1 0,-0.18333 0,-0.25c0.03333,-0.36667 0,-0.73333 -0.1,-1.1c3.1,-0.1 6.2,-0.35 9.3,-0.75c3.66667,-0.43333 7.35,-0.8 11.05,-1.1c2.4,0.33333 4.85,0.46667 7.35,0.4c2.03333,-0.03333 3.83333,0.18333 5.4,0.65c0,0.1 0,0.18333 0,0.25z" fill="#ffffff"/></g></g></svg>