<svg version="1.1" xmlns="http://www.w3.org/2000/svg" xmlns:xlink="http://www.w3.org/1999/xlink" width="107.96135" height="119.09597" viewBox="0,0,107.96135,119.09597"><g transform="translate(-585.21227,-300.45201)"><g data-paper-data="{&quot;isPaintingLayer&quot;:true}" fill-rule="nonzero" stroke="none" stroke-width="1" stroke-linecap="butt" stroke-linejoin="miter" stroke-miterlimit="10" stroke-dasharray="" stroke-dashoffset="0" style="mix-blend-mode: normal"><path d="M648.94427,306.54613c-3.4,3.2 -5.83333,5.75 -7.3,7.65c-2.43333,3.13333 -3.93333,6.26667 -4.5,9.4c12.26667,-3.26667 23.28333,-3.83333 33.05,-1.7c3.33333,0.73333 6.35,1.9 9.05,3.5c2.96667,1.76667 5.31667,3.93333 7.05,6.5c1.56667,2.26667 2.61667,4.66667 3.15,7.2c0.6,2.73333 0.5,5.31667 -0.3,7.75c-0.6,1.83333 -1.71667,3.65 -3.35,5.45c-0.7,0.76667 -2.26667,2.25 -4.7,4.45c0.73333,0.4 1.96667,0.86667 3.7,1.4c1.46667,0.63333 2.35,1.53333 2.65,2.7c-0.33333,1.5 -1.31667,2.98333 -2.95,4.45c-1.96667,1.6 -3.35,2.83333 -4.15,3.7c4.6,5.06667 6.96667,7.7 7.1,7.9c2.53333,3.1 4.28333,6.11667 5.25,9.05c0.7,2 0.63333,4 -0.2,6c-0.9,2.06667 -2.36667,3.35 -4.4,3.85c-3.56667,0.93333 -6.36667,1.46667 -8.4,1.6c-3.23333,0.2 -5.98333,-0.35 -8.25,-1.65c-1.4,-0.76667 -2.48333,-1.23333 -3.25,-1.4c-13.63333,5.96667 -26.06667,9.68333 -37.3,11.15c-2.16667,2.2 -4.78333,4.46667 -7.85,6.8c-1.96667,1.5 -4.78333,3.5 -8.45,6c-1,0.86667 -2.13333,1.28333 -3.4,1.25c-1.43333,-0.03333 -2.31667,-0.7 -2.65,-2c0.03333,-1.7 0.43333,-3.66667 1.2,-5.9c1,-2.5 1.71667,-4.38333 2.15,-5.65c-6.63333,1.16667 -12.06667,0.63333 -16.3,-1.6c-1.53333,-0.83333 -2.75,-1.83333 -3.65,-3c-1.1,-1.43333 -1.55,-2.91667 -1.35,-4.45c0.26667,-2.03333 1.28333,-4 3.05,-5.9c0.46667,-0.46667 2.16667,-1.95 5.1,-4.45c-1.16667,-1.76667 -1.58333,-3.73333 -1.25,-5.9c0.26667,-2 1.11667,-3.85 2.55,-5.55c-3.4,-0.7 -5.55,-1.16667 -6.45,-1.4c-2.43333,-0.6 -4.53333,-1.28333 -6.3,-2.05c-0.5,-0.2 -0.9,-0.46667 -1.2,-0.8c-0.5,-0.53333 -0.78333,-1.23333 -0.85,-2.1c-0.13333,-1.23333 0.15,-2.25 0.85,-3.05c0.1,-0.13333 0.21667,-0.26667 0.35,-0.4c2.53333,-2.93333 6.38333,-6.63333 11.55,-11.1c-2.8,-2.2 -4.86667,-3.91667 -6.2,-5.15c-2.26667,-2.06667 -3.9,-4.15 -4.9,-6.25c-0.56667,-1.46667 -0.28333,-2.81667 0.85,-4.05c0.96667,-1.1 2.23333,-1.85 3.8,-2.25c3.8,-1.1 8.85,-2.36667 15.15,-3.8c7.93333,-1.76667 13.01667,-2.93333 15.25,-3.5c0.03333,-0.46667 -0.21667,-0.88333 -0.75,-1.25c-0.7,-0.33333 -1.16667,-0.61667 -1.4,-0.85c-2.26667,-1.36667 -4.01667,-2.55 -5.25,-3.55c-1.86667,-1.46667 -3.33333,-3 -4.4,-4.6c-1,-1.53333 -1.51667,-3.21667 -1.55,-5.05c0,-1.93333 0.55,-3.58333 1.65,-4.95c1.4,-1.76667 3.36667,-3.21667 5.9,-4.35c1.53333,-0.7 3.88333,-1.46667 7.05,-2.3c4.6,-1 8.63333,-1.6 12.1,-1.8c4.46667,-0.26667 8.53333,0.03333 12.2,0.9c1.23333,0.16667 2.03333,0.86667 2.4,2.1c0.36667,1.26667 0.05,2.26667 -0.95,3M643.79427,327.69613c-2.26667,0.5 -3.96667,0.83333 -5.1,1c-2.03333,0.36667 -3.73333,0.18333 -5.1,-0.55c0.33333,1.23333 0.2,2.33333 -0.4,3.3c-0.63333,0.96667 -1.56667,1.56667 -2.8,1.8c-4.26667,1.1 -10.5,2.58333 -18.7,4.45c-8.5,1.93333 -14.73333,3.4 -18.7,4.4c1.56667,1.63333 3.31667,3.75 5.25,6.35c1.1,1.46667 2.71667,3.66667 4.85,6.6c-1.03333,2.03333 -2.68333,4.23333 -4.95,6.6c-2.63333,2.56667 -4.56667,4.51667 -5.8,5.85l9.35,1.9c0,-2.56667 0.05,-4.5 0.15,-5.8c0.16667,-2.2 0.66667,-4.03333 1.5,-5.5c0.36667,-0.63333 0.96667,-0.98333 1.8,-1.05c0.83333,-0.06667 1.51667,0.15 2.05,0.65c1.46667,1.06667 3.51667,2.71667 6.15,4.95c2.73333,2.26667 4.78333,3.91667 6.15,4.95c1.7,1.26667 3.3,2.86667 4.8,4.8c-1.56667,-7.93333 -2.4,-14.41667 -2.5,-19.45c-0.2,-1.53333 0.56667,-3.2 2.3,-5c-1.26667,-1.2 -1.45,-1.71667 -0.55,-1.55c0.56667,0.13333 1.3,0.43333 2.2,0.9c4.56667,-2.66667 8.36667,-4.73333 11.4,-6.2c4.26667,-2.06667 8.3,-3.56667 12.1,-4.5l1.8,0.5c0.83333,1.76667 0.96667,3.91667 0.4,6.45c-0.36667,1.46667 -1.05,3.61667 -2.05,6.45c2.23333,-2 3.95,-3.45 5.15,-4.35c2,-1.53333 3.91667,-2.7 5.75,-3.5c1,-0.5 2.01667,-0.68333 3.05,-0.55c1.16667,0.13333 1.98333,0.68333 2.45,1.65c0.76667,1.4 1.01667,3.11667 0.75,5.15c-0.1,0.86667 -0.5,2.61667 -1.2,5.25c3.16667,-0.7 6.18333,-0.63333 9.05,0.2c2.36667,-1.5 4.16667,-2.8 5.4,-3.9c1.86667,-1.7 3.13333,-3.5 3.8,-5.4c0.66667,-3.2 -0.03333,-6.3 -2.1,-9.3c-1.93333,-2.73333 -4.5,-4.73333 -7.7,-6c-4.33333,-1.76667 -9.28333,-2.7 -14.85,-2.8c-4.16667,-0.06667 -9.21667,0.35 -15.15,1.25M640.74427,342.14613c2.1,1.2 4.16667,3.48333 6.2,6.85c1,-3.33333 1.78333,-6.56667 2.35,-9.7l-4.25,1.45c-1.7,0.6 -3.13333,1.06667 -4.3,1.4M644.44427,355.84613c0.26667,-1.23333 0.45,-2.16667 0.55,-2.8c0.16667,-1.1 0.05,-2.01667 -0.35,-2.75c-0.43333,-1.16667 -1.36667,-2.4 -2.8,-3.7c-1.83333,-1.6 -2.96667,-2.68333 -3.4,-3.25c-0.16667,0.1 -1.83333,0.93333 -5,2.5c-2,1 -3.55,2 -4.65,3c0.2,1.1 0.85,2.16667 1.95,3.2c0.6,0.56667 1.56667,1.38333 2.9,2.45c4.83333,4.3 7.76667,6.91667 8.8,7.85c3.26667,3 6.08333,5.73333 8.45,8.2c-0.56667,-1.76667 -1.23333,-4.11667 -2,-7.05c-0.9,-3.56667 -1.51667,-5.93333 -1.85,-7.1l-2.6,-0.55M648.94427,354.09613c1.96667,7.26667 3.31667,13.3 4.05,18.1c0.93333,-2.23333 2.06667,-5.55 3.4,-9.95c1.36667,-4.56667 2.46667,-7.88333 3.3,-9.95c0.3,-0.7 0.93333,-1.93333 1.9,-3.7c0.86667,-1.53333 1.46667,-2.78333 1.8,-3.75c-2.4,0.8 -4.93333,2.13333 -7.6,4c-0.6,0.4 -2.88333,2.15 -6.85,5.25M660.74427,356.44613c-1.8,5.73333 -3.58333,10.58333 -5.35,14.55c3.4,-3.8 6.98333,-8.36667 10.75,-13.7l-5.4,-0.85M680.74427,377.39613c-2.7,-2.8 -4.5,-4.96667 -5.4,-6.5c-0.76667,-1.8 -0.36667,-3.56667 1.2,-5.3c0.86667,-1 2.33333,-2.33333 4.4,-4l-4.15,-2.1l-1.85,0.85c-0.1,2.96667 -0.55,6.35 -1.35,10.15c-0.2,0.93333 -0.98333,4.26667 -2.35,10c1.7,1.53333 2.76667,3.31667 3.2,5.35c0.5,2.2 0.15,4.21667 -1.05,6.05c1.5,-0.06667 3.76667,-0.15 6.8,-0.25c2.63333,-0.16667 4.86667,-0.58333 6.7,-1.25c0.76667,-0.8 0.95,-1.85 0.55,-3.15c-0.06667,-0.23333 -0.56667,-1.3 -1.5,-3.2c-0.93333,-1.76667 -2.66667,-3.98333 -5.2,-6.65M659.74427,373.69613c-1.1,0.1 -1.65,0.88333 -1.65,2.35c0.03333,1.46667 0.68333,2.08333 1.95,1.85c1.23333,0.26667 1.78333,-0.43333 1.65,-2.1c-0.13333,-1.66667 -0.78333,-2.36667 -1.95,-2.1M665.64427,380.04613c-0.93333,2.13333 -1.56667,3.46667 -1.9,4c-0.96667,1.43333 -2.15,2.16667 -3.55,2.2c-1.36667,-0.63333 -2.61667,-1.71667 -3.75,-3.25c-1.16667,-1.9 -2.03333,-3.31667 -2.6,-4.25c-1.23333,1.2 -2.73333,3.5 -4.5,6.9c-1.66667,3.2 -3.26667,5.41667 -4.8,6.65c-0.96667,0.86667 -2.16667,1.2 -3.6,1c-1.3,-0.16667 -2.43333,-0.73333 -3.4,-1.7c-1,-1.03333 -1.96667,-2.41667 -2.9,-4.15c-0.96667,-2.06667 -1.7,-3.61667 -2.2,-4.65c-1.46667,-0.1 -2.56667,-0.23333 -3.3,-0.4c-1.26667,-0.36667 -1.88333,-1.11667 -1.85,-2.25c0.8,-0.5 2.06667,-1.11667 3.8,-1.85c-2.5,-8.93333 -3.93333,-18.45 -4.3,-28.55c-0.03333,0.03333 -0.53333,0.31667 -1.5,0.85c-0.63333,0.36667 -0.96667,0.8 -1,1.3c-0.13333,3.4 0.2,7.88333 1,13.45c0.96667,6.73333 1.5,11.2 1.6,13.4c-1.3,-0.7 -2.58333,-1.83333 -3.85,-3.4c-0.9,0.1 -1.56667,0.15 -2,0.15c-0.76667,0 -1.38333,-0.2 -1.85,-0.6c-1.9,-1.5 -4.1,-3.41667 -6.6,-5.75c-2.8,-2.73333 -4.91667,-4.76667 -6.35,-6.1c-0.43333,5.36667 0.5,10.38333 2.8,15.05c2.53333,5.03333 6.18333,8.46667 10.95,10.3c0.86667,-1.66667 1.55,-2.88333 2.05,-3.65c0.43333,-0.66667 1.11667,-0.96667 2.05,-0.9c0.93333,0.1 1.51667,0.53333 1.75,1.3c0.66667,1.66667 1.66667,4.13333 3,7.4c1.16667,2.83333 2.28333,5.25 3.35,7.25c8.4,-1.96667 14.81667,-3.66667 19.25,-5.1c7.03333,-2.23333 13.1,-4.88333 18.2,-7.95c-1.53333,-1.6 -2.43333,-2.6 -2.7,-3c-0.9,-1.2 -1.33333,-2.43333 -1.3,-3.7M649.89427,374.79613c-0.9,-1.33333 -2,-1.48333 -3.3,-0.45c-0.86667,0.93333 -0.86667,2 0,3.2c0.83333,1.16667 1.81667,1.41667 2.95,0.75c1.16667,-1 1.28333,-2.16667 0.35,-3.5M619.14427,308.64613c-1.8,0.76667 -3.28333,1.7 -4.45,2.8c-0.76667,0.66667 -1.05,1.56667 -0.85,2.7c0.16667,1.03333 0.63333,1.91667 1.4,2.65c2.1,2.16667 5.06667,4.25 8.9,6.25c2.16667,1.13333 5.41667,2.8 9.75,5c-0.4,-1.8 -0.68333,-3.15 -0.85,-4.05c-0.26667,-1.6 -0.18333,-2.95 0.25,-4.05c1.76667,-4.86667 5.48333,-9.86667 11.15,-15c-7.93333,-0.16667 -14.71667,0.51667 -20.35,2.05c-2.16667,0.63333 -3.81667,1.18333 -4.95,1.65M601.69427,379.04613c-0.23333,1.36667 -0.2,2.53333 0.1,3.5c0.5,0.8 1.35,1.61667 2.55,2.45c1.66667,1.1 2.65,1.78333 2.95,2.05c0.66667,0.8 0.75,1.7 0.25,2.7c-0.5,1 -1.26667,1.43333 -2.3,1.3c-2.03333,-0.1 -3.95,0.41667 -5.75,1.55c-1.8,1.1 -3.15,2.56667 -4.05,4.4c-0.2,0.83333 0.06667,1.56667 0.8,2.2c0.26667,0.23333 1,0.68333 2.2,1.35c2.2,0.96667 4.9,1.65 8.1,2.05c1.83333,0.26667 4.61667,0.55 8.35,0.85c0.86667,0.83333 1.13333,2.15 0.8,3.95c-0.2,1 -0.53333,2.45 -1,4.35c3.63333,-3.16667 7.66667,-6.48333 12.1,-9.95c-1.73333,-3.86667 -3.01667,-7.03333 -3.85,-9.5c-2.36667,1.03333 -4.81667,0.78333 -7.35,-0.75c-1.1,-0.63333 -3.08333,-2.31667 -5.95,-5.05c-1.4,-1.23333 -2.75,-2.96667 -4.05,-5.2c-1.36667,-2.6 -2.43333,-4.53333 -3.2,-5.8c-0.1,0.76667 -0.33333,1.95 -0.7,3.55z" fill="#000000"/><path d="M605.59427,381.29613c1.3,2.23333 2.65,3.96667 4.05,5.2c2.86667,2.73333 4.85,4.41667 5.95,5.05c2.53333,1.53333 4.98333,1.78333 7.35,0.75c0.83333,2.46667 2.11667,5.63333 3.85,9.5c-4.43333,3.46667 -8.46667,6.78333 -12.1,9.95c0.46667,-1.9 0.8,-3.35 1,-4.35c0.33333,-1.8 0.06667,-3.11667 -0.8,-3.95c-3.73333,-0.3 -6.51667,-0.58333 -8.35,-0.85c-3.2,-0.4 -5.9,-1.08333 -8.1,-2.05c-1.2,-0.66667 -1.93333,-1.11667 -2.2,-1.35c-0.73333,-0.63333 -1,-1.36667 -0.8,-2.2c0.9,-1.83333 2.25,-3.3 4.05,-4.4c1.8,-1.13333 3.71667,-1.65 5.75,-1.55c1.03333,0.13333 1.8,-0.3 2.3,-1.3c0.5,-1 0.41667,-1.9 -0.25,-2.7c-0.3,-0.26667 -1.28333,-0.95 -2.95,-2.05c-1.2,-0.83333 -2.05,-1.65 -2.55,-2.45c-0.3,-0.96667 -0.33333,-2.13333 -0.1,-3.5c0.36667,-1.6 0.6,-2.78333 0.7,-3.55c0.76667,1.26667 1.83333,3.2 3.2,5.8M624.09427,306.99613c5.63333,-1.53333 12.41667,-2.21667 20.35,-2.05c-5.66667,5.13333 -9.38333,10.13333 -11.15,15c-0.43333,1.1 -0.51667,2.45 -0.25,4.05c0.16667,0.9 0.45,2.25 0.85,4.05c-4.33333,-2.2 -7.58333,-3.86667 -9.75,-5c-3.83333,-2 -6.8,-4.08333 -8.9,-6.25c-0.76667,-0.73333 -1.23333,-1.61667 -1.4,-2.65c-0.2,-1.13333 0.08333,-2.03333 0.85,-2.7c1.16667,-1.1 2.65,-2.03333 4.45,-2.8c1.13333,-0.46667 2.78333,-1.01667 4.95,-1.65M666.94427,383.74613c0.26667,0.4 1.16667,1.4 2.7,3c-5.1,3.06667 -11.16667,5.71667 -18.2,7.95c-4.43333,1.43333 -10.85,3.13333 -19.25,5.1c-1.06667,-2 -2.18333,-4.41667 -3.35,-7.25c-1.33333,-3.26667 -2.33333,-5.73333 -3,-7.4c-0.23333,-0.76667 -0.81667,-1.2 -1.75,-1.3c-0.93333,-0.06667 -1.61667,0.23333 -2.05,0.9c-0.5,0.76667 -1.18333,1.98333 -2.05,3.65c-4.76667,-1.83333 -8.41667,-5.26667 -10.95,-10.3c-2.3,-4.66667 -3.23333,-9.68333 -2.8,-15.05c1.43333,1.33333 3.55,3.36667 6.35,6.1c2.5,2.33333 4.7,4.25 6.6,5.75c0.46667,0.4 1.08333,0.6 1.85,0.6c0.43333,0 1.1,-0.05 2,-0.15c1.26667,1.56667 2.55,2.7 3.85,3.4c-0.1,-2.2 -0.63333,-6.66667 -1.6,-13.4c-0.8,-5.56667 -1.13333,-10.05 -1,-13.45c0.03333,-0.5 0.36667,-0.93333 1,-1.3c0.96667,-0.53333 1.46667,-0.81667 1.5,-0.85c0.36667,10.1 1.8,19.61667 4.3,28.55c-1.73333,0.73333 -3,1.35 -3.8,1.85c-0.03333,1.13333 0.58333,1.88333 1.85,2.25c0.73333,0.16667 1.83333,0.3 3.3,0.4c0.5,1.03333 1.23333,2.58333 2.2,4.65c0.93333,1.73333 1.9,3.11667 2.9,4.15c0.96667,0.96667 2.1,1.53333 3.4,1.7c1.43333,0.2 2.63333,-0.13333 3.6,-1c1.53333,-1.23333 3.13333,-3.45 4.8,-6.65c1.76667,-3.4 3.26667,-5.7 4.5,-6.9c0.56667,0.93333 1.43333,2.35 2.6,4.25c1.13333,1.53333 2.38333,2.61667 3.75,3.25c1.4,-0.03333 2.58333,-0.76667 3.55,-2.2c0.33333,-0.53333 0.96667,-1.86667 1.9,-4c-0.03333,1.26667 0.4,2.5 1.3,3.7M685.94427,384.04613c0.93333,1.9 1.43333,2.96667 1.5,3.2c0.4,1.3 0.21667,2.35 -0.55,3.15c-1.83333,0.66667 -4.06667,1.08333 -6.7,1.25c-3.03333,0.1 -5.3,0.18333 -6.8,0.25c1.2,-1.83333 1.55,-3.85 1.05,-6.05c-0.43333,-2.03333 -1.5,-3.81667 -3.2,-5.35c1.36667,-5.73333 2.15,-9.06667 2.35,-10c0.8,-3.8 1.25,-7.18333 1.35,-10.15l1.85,-0.85l4.15,2.1c-2.06667,1.66667 -3.53333,3 -4.4,4c-1.56667,1.73333 -1.96667,3.5 -1.2,5.3c0.9,1.53333 2.7,3.7 5.4,6.5c2.53333,2.66667 4.26667,4.88333 5.2,6.65M666.14427,357.29613c-3.76667,5.33333 -7.35,9.9 -10.75,13.7c1.76667,-3.96667 3.55,-8.81667 5.35,-14.55l5.4,0.85M655.79427,348.84613c2.66667,-1.86667 5.2,-3.2 7.6,-4c-0.33333,0.96667 -0.93333,2.21667 -1.8,3.75c-0.96667,1.76667 -1.6,3 -1.9,3.7c-0.83333,2.06667 -1.93333,5.38333 -3.3,9.95c-1.33333,4.4 -2.46667,7.71667 -3.4,9.95c-0.73333,-4.8 -2.08333,-10.83333 -4.05,-18.1c3.96667,-3.1 6.25,-4.85 6.85,-5.25M647.04427,356.39613c0.33333,1.16667 0.95,3.53333 1.85,7.1c0.76667,2.93333 1.43333,5.28333 2,7.05c-2.36667,-2.46667 -5.18333,-5.2 -8.45,-8.2c-1.03333,-0.93333 -3.96667,-3.55 -8.8,-7.85c-1.33333,-1.06667 -2.3,-1.88333 -2.9,-2.45c-1.1,-1.03333 -1.75,-2.1 -1.95,-3.2c1.1,-1 2.65,-2 4.65,-3c3.16667,-1.56667 4.83333,-2.4 5,-2.5c0.43333,0.56667 1.56667,1.65 3.4,3.25c1.43333,1.3 2.36667,2.53333 2.8,3.7c0.4,0.73333 0.51667,1.65 0.35,2.75c-0.1,0.63333 -0.28333,1.56667 -0.55,2.8l2.6,0.55M645.04427,340.74613l4.25,-1.45c-0.56667,3.13333 -1.35,6.36667 -2.35,9.7c-2.03333,-3.36667 -4.1,-5.65 -6.2,-6.85c1.16667,-0.33333 2.6,-0.8 4.3,-1.4M673.79427,329.24613c3.2,1.26667 5.76667,3.26667 7.7,6c2.06667,3 2.76667,6.1 2.1,9.3c-0.66667,1.9 -1.93333,3.7 -3.8,5.4c-1.23333,1.1 -3.03333,2.4 -5.4,3.9c-2.86667,-0.83333 -5.88333,-0.9 -9.05,-0.2c0.7,-2.63333 1.1,-4.38333 1.2,-5.25c0.26667,-2.03333 0.01667,-3.75 -0.75,-5.15c-0.46667,-0.96667 -1.28333,-1.51667 -2.45,-1.65c-1.03333,-0.13333 -2.05,0.05 -3.05,0.55c-1.83333,0.8 -3.75,1.96667 -5.75,3.5c-1.2,0.9 -2.91667,2.35 -5.15,4.35c1,-2.83333 1.68333,-4.98333 2.05,-6.45c0.56667,-2.53333 0.43333,-4.68333 -0.4,-6.45l-1.8,-0.5c-3.8,0.93333 -7.83333,2.43333 -12.1,4.5c-3.03333,1.46667 -6.83333,3.53333 -11.4,6.2c-0.9,-0.46667 -1.63333,-0.76667 -2.2,-0.9c-0.9,-0.16667 -0.71667,0.35 0.55,1.55c-1.73333,1.8 -2.5,3.46667 -2.3,5c0.1,5.03333 0.93333,11.51667 2.5,19.45c-1.5,-1.93333 -3.1,-3.53333 -4.8,-4.8c-1.36667,-1.03333 -3.41667,-2.68333 -6.15,-4.95c-2.63333,-2.23333 -4.68333,-3.88333 -6.15,-4.95c-0.53333,-0.5 -1.21667,-0.71667 -2.05,-0.65c-0.83333,0.06667 -1.43333,0.41667 -1.8,1.05c-0.83333,1.46667 -1.33333,3.3 -1.5,5.5c-0.1,1.3 -0.15,3.23333 -0.15,5.8l-9.35,-1.9c1.23333,-1.33333 3.16667,-3.28333 5.8,-5.85c2.26667,-2.36667 3.91667,-4.56667 4.95,-6.6c-2.13333,-2.93333 -3.75,-5.13333 -4.85,-6.6c-1.93333,-2.6 -3.68333,-4.71667 -5.25,-6.35c3.96667,-1 10.2,-2.46667 18.7,-4.4c8.2,-1.86667 14.43333,-3.35 18.7,-4.45c1.23333,-0.23333 2.16667,-0.83333 2.8,-1.8c0.6,-0.96667 0.73333,-2.06667 0.4,-3.3c1.36667,0.73333 3.06667,0.91667 5.1,0.55c1.13333,-0.16667 2.83333,-0.5 5.1,-1c5.93333,-0.9 10.98333,-1.31667 15.15,-1.25c5.56667,0.1 10.51667,1.03333 14.85,2.8z" fill="#d8558e"/><path d="M649.54427,378.29613c-1.13333,0.66667 -2.11667,0.41667 -2.95,-0.75c-0.86667,-1.2 -0.86667,-2.26667 0,-3.2c1.3,-1.03333 2.4,-0.88333 3.3,0.45c0.93333,1.33333 0.81667,2.5 -0.35,3.5M660.04427,377.89613c-1.26667,0.23333 -1.91667,-0.38333 -1.95,-1.85c0,-1.46667 0.55,-2.25 1.65,-2.35c1.16667,-0.26667 1.81667,0.43333 1.95,2.1c0.13333,1.66667 -0.41667,2.36667 -1.65,2.1z" fill="#e1e1e1"/></g></g></svg>