<svg version="1.1" xmlns="http://www.w3.org/2000/svg" xmlns:xlink="http://www.w3.org/1999/xlink" width="40.20433" height="64.31304" viewBox="0,0,40.20433,64.31304"><g transform="translate(-615.42259,-338.23162)"><g data-paper-data="{&quot;isPaintingLayer&quot;:true}" fill-rule="nonzero" stroke="none" stroke-width="1" stroke-linecap="round" stroke-linejoin="miter" stroke-miterlimit="4" stroke-dasharray="" stroke-dashoffset="0" style="mix-blend-mode: normal"><path d="M632.58549,338.32051c3.13333,-0.26667 5.96667,0.06667 8.5,1c2.56667,0.96667 4.8,2.56667 6.7,4.8c1.86667,2.16667 3.15,4.63333 3.85,7.4c1.36667,5.3 0.73333,10.73333 -1.9,16.3c3.36667,3.8 5.3,8 5.8,12.6c0.26667,2.76667 -0.05,5.48333 -0.95,8.15c-0.9,2.7 -2.28333,5.06667 -4.15,7.1c-3.13333,3.4 -7.13333,5.55 -12,6.45c-4.29297,0.80091 -8.65964,0.46758 -13.1,-1c-0.36042,-0.01146 -0.74375,-0.07812 -1.15,-0.2c-1.06667,-0.26667 -1.95,-0.68333 -2.65,-1.25c-1.2,-0.86667 -2.33333,-2.31667 -3.4,-4.35c-1.46667,-2.6 -2.26667,-4.83333 -2.4,-6.7c-0.03333,-0.66667 0.01667,-2.03333 0.15,-4.1c0.1,-1.56667 0.18333,-2.5 0.25,-2.8c0.08984,-0.31927 0.18984,-0.61927 0.3,-0.9c0.13646,-0.39935 0.26979,-0.81602 0.4,-1.25c0.26667,-0.96667 1.16667,-3.58333 2.7,-7.85c-1.86667,-2 -3.1,-4.55 -3.7,-7.65c-0.53333,-2.73333 -0.55,-5.68333 -0.05,-8.85c0.96667,-6.33333 3.36667,-10.9 7.2,-13.7c2.53333,-1.83333 5.73333,-2.9 9.6,-3.2M633.13549,344.47051c-3.1151,0.20977 -5.38177,0.77643 -6.8,1.7c-1.4,0.96667 -2.63333,2.66667 -3.7,5.1c-2,4.86667 -2.31667,9.56667 -0.95,14.1c0.2,0.7 0.75,1.63333 1.65,2.8c0.9,1.16667 1.45,2.1 1.65,2.8c0.21328,0.70065 0.24661,1.48398 0.1,2.35h-0.05c0.00638,0.07305 0.00638,0.13971 0,0.2c-0.16667,0.76667 -0.25,1.2 -0.25,1.3l0.05,0.6c0,0.46667 -0.31667,1.08333 -0.95,1.85l-0.3,1.5c-0.13333,0.63333 -0.41667,1.01667 -0.85,1.15c-0.23763,0.07422 -0.4543,0.07422 -0.65,0c-0.55195,3.08268 -0.66862,5.69935 -0.35,7.85c0.1,0.86667 0.26667,1.6 0.5,2.2c0.4,1.13333 1.06667,2.26667 2,3.4c0.36406,0.4651 0.73073,0.84844 1.1,1.15v0.05c0.04987,0.02552 0.09987,0.04219 0.15,0.05c0.18164,0.1638 0.36497,0.29714 0.55,0.4c0.42969,0.23633 0.87969,0.38633 1.35,0.45c2.16484,0.76745 4.48151,1.10078 6.95,1c3.16667,-0.13333 6.11667,-0.96667 8.85,-2.5c2.23333,-1.23333 3.81667,-2.7 4.75,-4.4c0.76667,-1.36667 1.26667,-3.13333 1.5,-5.3c0.3,-2.46667 0.2,-4.53333 -0.3,-6.2c-0.46667,-1.43333 -1.55,-3.26667 -3.25,-5.5c-0.73333,-0.9 -1.25,-1.6 -1.55,-2.1c-0.46667,-0.86667 -0.7,-1.68333 -0.7,-2.45c0,-0.66667 0.18333,-1.43333 0.55,-2.3c0.5,-0.93333 0.85,-1.65 1.05,-2.15c1.63333,-3.4 1.73333,-7.25 0.3,-11.55c-1.1,-3.26667 -2.78333,-5.48333 -5.05,-6.65c-1.6,-0.8 -4.01667,-1.1 -7.25,-0.9c-0.03333,0.00208 -0.06667,0.00208 -0.1,0M635.58549,377.82051c1.23333,-0.03333 2.65,0.55 4.25,1.75c0.9,0.66667 1.63333,1.33333 2.2,2c0.66667,0.9 1.05,1.8 1.15,2.7c0.06667,0.86667 -0.11667,1.71667 -0.55,2.55c-0.43333,0.76667 -1.03333,1.41667 -1.8,1.95c-0.8,0.53333 -1.91667,0.95 -3.35,1.25c-1.26667,0.33333 -2.48333,0.51667 -3.65,0.55c-0.42956,0.02044 -0.84622,0.00378 -1.25,-0.05c-0.68789,0.60612 -1.60456,0.62279 -2.75,0.05c-1.4,-0.73333 -2.16667,-1.75 -2.3,-3.05c-0.03333,-0.43333 0.01667,-0.96667 0.15,-1.6c0.2,-0.7 0.33333,-1.23333 0.4,-1.6c0.13333,-0.6 0.26667,-1.03333 0.4,-1.3c0.16667,-0.53333 0.46667,-0.86667 0.9,-1c0.01211,-0.02643 0.01211,-0.05977 0,-0.1c0.38789,-0.37786 0.82122,-0.79453 1.3,-1.25c1.06667,-1 1.8,-1.63333 2.2,-1.9c1,-0.6 1.9,-0.91667 2.7,-0.95M635.43549,383.57051l-1.65,1.6c0.36667,0 0.91667,-0.13333 1.65,-0.4c0.7,-0.23333 1.25,-0.35 1.65,-0.35l-0.95,-0.85c-0.13333,-0.13333 -0.23333,-0.2 -0.3,-0.2c-0.13333,0 -0.26667,0.06667 -0.4,0.2M637.83549,360.72051c-0.8,1.33333 -1.6,2.26667 -2.4,2.8c-1.13333,0.86667 -2.3,1.11667 -3.5,0.75c-0.7,-0.2 -1.3,-0.61667 -1.8,-1.25c-0.46667,-0.56667 -0.76667,-1.23333 -0.9,-2c-0.2,-1.43333 0.15,-2.85 1.05,-4.25c0.53333,-0.86667 1.28333,-1.73333 2.25,-2.6c1.03333,-0.83333 2.1,-1.53333 3.2,-2.1c0.86667,-0.43333 1.53333,-0.63333 2,-0.6c0.56667,0 1.08333,0.2 1.55,0.6c0.43333,0.4 0.73333,0.88333 0.9,1.45c0.16667,0.73333 0.05,1.71667 -0.35,2.95c-0.43333,1.33333 -1.1,2.75 -2,4.25z" fill="#000000"/><path d="M633.23549,344.47051c3.23333,-0.2 5.65,0.1 7.25,0.9c2.26667,1.16667 3.95,3.38333 5.05,6.65c1.43333,4.3 1.33333,8.15 -0.3,11.55c-0.2,0.5 -0.55,1.21667 -1.05,2.15c-0.36667,0.86667 -0.55,1.63333 -0.55,2.3c0,0.76667 0.23333,1.58333 0.7,2.45c0.3,0.5 0.81667,1.2 1.55,2.1c1.7,2.23333 2.78333,4.06667 3.25,5.5c0.5,1.66667 0.6,3.73333 0.3,6.2c-0.23333,2.16667 -0.73333,3.93333 -1.5,5.3c-0.93333,1.7 -2.51667,3.16667 -4.75,4.4c-2.73333,1.53333 -5.68333,2.36667 -8.85,2.5c-2.46849,0.10078 -4.78516,-0.23255 -6.95,-1c-0.47031,-0.06367 -0.92031,-0.21367 -1.35,-0.45c-0.18503,-0.10286 -0.36836,-0.2362 -0.55,-0.4c-0.05013,-0.00781 -0.10013,-0.02448 -0.15,-0.05v-0.05c-0.36927,-0.30156 -0.73594,-0.6849 -1.1,-1.15c-0.93333,-1.13333 -1.6,-2.26667 -2,-3.4c-0.23333,-0.6 -0.4,-1.33333 -0.5,-2.2c-0.31862,-2.15065 -0.20195,-4.76732 0.35,-7.85c0.1957,0.07422 0.41237,0.07422 0.65,0c0.43333,-0.13333 0.71667,-0.51667 0.85,-1.15l0.3,-1.5c0.63333,-0.76667 0.95,-1.38333 0.95,-1.85l-0.05,-0.6c0,-0.1 0.08333,-0.53333 0.25,-1.3c0.00638,-0.06029 0.00638,-0.12695 0,-0.2h0.05c0.14661,-0.86602 0.11328,-1.64935 -0.1,-2.35c-0.2,-0.7 -0.75,-1.63333 -1.65,-2.8c-0.9,-1.16667 -1.45,-2.1 -1.65,-2.8c-1.36667,-4.53333 -1.05,-9.23333 0.95,-14.1c1.06667,-2.43333 2.3,-4.13333 3.7,-5.1c1.41823,-0.92357 3.6849,-1.49023 6.8,-1.7c0.03333,0.00208 0.06667,0.00208 0.1,0M640.18549,353.52051c-0.16667,-0.56667 -0.46667,-1.05 -0.9,-1.45c-0.46667,-0.4 -0.98333,-0.6 -1.55,-0.6c-0.46667,-0.03333 -1.13333,0.16667 -2,0.6c-1.1,0.56667 -2.16667,1.26667 -3.2,2.1c-0.96667,0.86667 -1.71667,1.73333 -2.25,2.6c-0.9,1.4 -1.25,2.81667 -1.05,4.25c0.13333,0.76667 0.43333,1.43333 0.9,2c0.5,0.63333 1.1,1.05 1.8,1.25c1.2,0.36667 2.36667,0.11667 3.5,-0.75c0.8,-0.53333 1.6,-1.46667 2.4,-2.8c0.9,-1.5 1.56667,-2.91667 2,-4.25c0.4,-1.23333 0.51667,-2.21667 0.35,-2.95M630.68549,380.67051c-0.47878,0.45547 -0.91211,0.87214 -1.3,1.25c0.01211,0.04023 0.01211,0.07357 0,0.1c-0.43333,0.13333 -0.73333,0.46667 -0.9,1c-0.13333,0.26667 -0.26667,0.7 -0.4,1.3c-0.06667,0.36667 -0.2,0.9 -0.4,1.6c-0.13333,0.63333 -0.18333,1.16667 -0.15,1.6c0.13333,1.3 0.9,2.31667 2.3,3.05c1.14544,0.57279 2.06211,0.55612 2.75,-0.05c0.40378,0.05378 0.82044,0.07044 1.25,0.05c1.16667,-0.03333 2.38333,-0.21667 3.65,-0.55c1.43333,-0.3 2.55,-0.71667 3.35,-1.25c0.76667,-0.53333 1.36667,-1.18333 1.8,-1.95c0.43333,-0.83333 0.61667,-1.68333 0.55,-2.55c-0.1,-0.9 -0.48333,-1.8 -1.15,-2.7c-0.56667,-0.66667 -1.3,-1.33333 -2.2,-2c-1.6,-1.2 -3.01667,-1.78333 -4.25,-1.75c-0.8,0.03333 -1.7,0.35 -2.7,0.95c-0.4,0.26667 -1.13333,0.9 -2.2,1.9z" fill="#ffffff"/></g></g></svg>