<svg version="1.1" xmlns="http://www.w3.org/2000/svg" xmlns:xlink="http://www.w3.org/1999/xlink" width="632.05" height="170.7" viewBox="0,0,632.05,170.7"><g transform="translate(-330.19234,-275.99279)"><g data-paper-data="{&quot;isPaintingLayer&quot;:true}" fill-rule="nonzero" stroke="none" stroke-width="1" stroke-linecap="butt" stroke-linejoin="miter" stroke-miterlimit="10" stroke-dasharray="" stroke-dashoffset="0" style="mix-blend-mode: normal"><path d="M394.09234,279.54279c0.83333,-0.23333 1.66667,-0.46667 2.5,-0.7c2.03333,-0.23333 4.06667,-0.46667 6.1,-0.7c0.83333,-0.23333 1.66667,-0.46667 2.5,-0.7c2.5,-0.26667 5,-0.53333 7.5,-0.8c0.83333,-0.06667 1.65,-0.21667 2.45,-0.45c0.03333,0 0.05,-0.06667 0.05,-0.2c5.23333,0 10.46667,0 15.7,0c0.7,0.23333 1.41667,0.46667 2.15,0.7c0.23333,0.23333 0.46667,0.48333 0.7,0.75c0.7,0.23333 1.41667,0.46667 2.15,0.7c0.36667,0.36667 0.71667,0.71667 1.05,1.05c0.36667,0.36667 0.73333,0.73333 1.1,1.1c0.23333,0.33333 0.46667,0.68333 0.7,1.05c0.13333,0.36667 0.25,0.73333 0.35,1.1c0.23333,0.33333 0.46667,0.68333 0.7,1.05c0.13333,0.36667 0.26667,0.71667 0.4,1.05c0.1,0.36667 0.21667,0.73333 0.35,1.1c0.23333,0.33333 0.46667,0.68333 0.7,1.05c0.23333,0.36667 0.46667,0.73333 0.7,1.1c0,0.33333 0,0.68333 0,1.05c0,0.36667 0,0.71667 0,1.05c0.36667,0.36667 0.73333,0.73333 1.1,1.1c0.33333,0.36667 0.68333,0.71667 1.05,1.05c0.13333,0.36667 0.25,0.73333 0.35,1.1c0.13333,0.33333 0.25,0.68333 0.35,1.05c0.36667,0.36667 0.73333,0.73333 1.1,1.1c0.36667,0.33333 0.71667,0.68333 1.05,1.05c0.13333,0.36667 0.25,0.71667 0.35,1.05c0.13333,0.36667 0.26667,0.73333 0.4,1.1c0,0.36667 0,0.71667 0,1.05v0.2c0.33333,0 0.68333,-0.06667 1.05,-0.2c0.13333,-0.1 0.26667,-0.18333 0.4,-0.25c0.56667,-0.3 1.15,-0.56667 1.75,-0.8c0.36667,-0.23333 0.71667,-0.46667 1.05,-0.7c0.6,-0.26667 1.2,-0.51667 1.8,-0.75c0.36667,-0.23333 0.71667,-0.46667 1.05,-0.7c0.6,-0.13333 1.2,-0.25 1.8,-0.35c0.6,-0.23333 1.2,-0.45 1.8,-0.65c0.83333,-0.3 1.66667,-0.56667 2.5,-0.8c5.23333,0 10.46667,0 15.7,0c0.73333,0.23333 1.45,0.48333 2.15,0.75c0.7,0.23333 1.41667,0.46667 2.15,0.7c0.7,0.23333 1.41667,0.46667 2.15,0.7c0.23333,0.23333 0.46667,0.46667 0.7,0.7c0.7,0.26667 1.41667,0.51667 2.15,0.75c0.7,0.23333 1.41667,0.46667 2.15,0.7c0.7,0.23333 1.4,0.46667 2.1,0.7c0.26667,0.23333 0.51667,0.48333 0.75,0.75c0.7,0.23333 1.41667,0.46667 2.15,0.7c0.33333,0.23333 0.68333,0.46667 1.05,0.7c0.6,0.23333 1.2,0.46667 1.8,0.7c0.46667,0.36667 0.93333,0.73333 1.4,1.1c0.23333,0.23333 0.48333,0.46667 0.75,0.7c0.1,0.13333 0.21667,0.23333 0.35,0.3c0.6,0.26667 1.18333,0.53333 1.75,0.8c0.36667,0.23333 0.73333,0.46667 1.1,0.7c0.36667,-0.13333 0.71667,-0.25 1.05,-0.35c0.13333,-0.36667 0.25,-0.73333 0.35,-1.1c0.26667,-0.33333 0.51667,-0.68333 0.75,-1.05c0.23333,-0.36667 0.46667,-0.73333 0.7,-1.1c0.36667,-0.33333 0.71667,-0.68333 1.05,-1.05c0.36667,-0.36667 0.73333,-0.71667 1.1,-1.05c0.46667,-0.36667 0.93333,-0.73333 1.4,-1.1c0.26667,-0.36667 0.51667,-0.71667 0.75,-1.05c0.83333,-0.36667 1.66667,-0.73333 2.5,-1.1c0.33333,-0.33333 0.68333,-0.68333 1.05,-1.05c0.36667,-0.23333 0.71667,-0.48333 1.05,-0.75c0.13333,-0.1 0.26667,-0.21667 0.4,-0.35c0.6,-0.23333 1.18333,-0.46667 1.75,-0.7c0.36667,-0.36667 0.73333,-0.71667 1.1,-1.05c0.36667,-0.23333 0.71667,-0.48333 1.05,-0.75c0.13333,-0.1 0.26667,-0.18333 0.4,-0.25c0.56667,-0.16667 1.15,-0.31667 1.75,-0.45c0.6,-0.23333 1.2,-0.45 1.8,-0.65c0.83333,-0.26667 1.66667,-0.51667 2.5,-0.75c4.4,-0.26667 8.8,-0.51667 13.2,-0.75c0.83333,-0.23333 1.66667,-0.46667 2.5,-0.7c6.2,0 12.38333,0 18.55,0c0.73333,0.23333 1.45,0.46667 2.15,0.7c1.66667,0.23333 3.33333,0.48333 5,0.75c0.73333,0.23333 1.45,0.46667 2.15,0.7c0.73333,0.23333 1.45,0.46667 2.15,0.7c0.7,0.23333 1.41667,0.46667 2.15,0.7c0.7,0.26667 1.41667,0.51667 2.15,0.75c0.7,0.23333 1.41667,0.46667 2.15,0.7c0.33333,0.36667 0.68333,0.71667 1.05,1.05c0.23333,0.36667 0.46667,0.73333 0.7,1.1c0.5,0.36667 0.98333,0.71667 1.45,1.05c0.23333,0.36667 0.46667,0.73333 0.7,1.1c0.23333,0.33333 0.46667,0.68333 0.7,1.05c0.26667,0.36667 0.51667,0.73333 0.75,1.1c0.23333,0.33333 0.46667,0.68333 0.7,1.05c0.23333,0.36667 0.46667,0.71667 0.7,1.05c0.23333,0.36667 0.48333,0.73333 0.75,1.1c0.23333,0 0.46667,0 0.7,0c0.1,-0.36667 0.21667,-0.73333 0.35,-1.1c0.23333,-0.33333 0.46667,-0.68333 0.7,-1.05c0.36667,-0.36667 0.73333,-0.71667 1.1,-1.05c0.33333,-0.36667 0.68333,-0.73333 1.05,-1.1c0.36667,-0.36667 0.73333,-0.71667 1.1,-1.05c0.33333,-0.36667 0.68333,-0.73333 1.05,-1.1c0.36667,-0.23333 0.71667,-0.46667 1.05,-0.7c0.6,-0.13333 1.2,-0.25 1.8,-0.35c4.4,-0.23333 8.8,-0.46667 13.2,-0.7c0.83333,-0.26667 1.66667,-0.51667 2.5,-0.75c9.53333,0 19.06667,0 28.6,0c0.7,0.23333 1.41667,0.48333 2.15,0.75c0.7,0.23333 1.4,0.46667 2.1,0.7c0.73333,0.23333 1.45,0.46667 2.15,0.7c0.23333,0.23333 0.48333,0.46667 0.75,0.7c0.7,0.26667 1.4,0.51667 2.1,0.75c0.36667,0.33333 0.73333,0.68333 1.1,1.05c0.46667,0.36667 0.93333,0.73333 1.4,1.1c0.26667,0.33333 0.51667,0.68333 0.75,1.05c0.23333,0 0.46667,0 0.7,0c0,-0.36667 0,-0.71667 0,-1.05c0.23333,-0.36667 0.46667,-0.73333 0.7,-1.1c0.13333,-0.36667 0.25,-0.71667 0.35,-1.05c0.13333,-0.36667 0.26667,-0.73333 0.4,-1.1c0,-0.33333 0,-0.68333 0,-1.05c0.23333,-0.36667 0.46667,-0.73333 0.7,-1.1c0.1,-0.33333 0.21667,-0.68333 0.35,-1.05c0.13333,-0.36667 0.25,-0.71667 0.35,-1.05c0.23333,-0.36667 0.46667,-0.73333 0.7,-1.1c0.36667,-0.36667 0.73333,-0.71667 1.1,-1.05c0.36667,-0.36667 0.71667,-0.73333 1.05,-1.1c0.36667,-0.33333 0.73333,-0.68333 1.1,-1.05c0.33333,-0.36667 0.68333,-0.73333 1.05,-1.1c0.36667,-0.23333 0.71667,-0.46667 1.05,-0.7c0.13333,-0.1 0.26667,-0.21667 0.4,-0.35c0.6,-0.23333 1.18333,-0.46667 1.75,-0.7c0.36667,-0.23333 0.73333,-0.48333 1.1,-0.75c0.6,-0.23333 1.2,-0.46667 1.8,-0.7c0.33333,-0.23333 0.68333,-0.46667 1.05,-0.7c0.6,-0.23333 1.2,-0.46667 1.8,-0.7c0.33333,-0.23333 0.68333,-0.48333 1.05,-0.75c0.6,-0.1 1.2,-0.18333 1.8,-0.25c2.5,-0.3 5,-0.56667 7.5,-0.8c0.83333,-0.23333 1.66667,-0.46667 2.5,-0.7c2.5,-0.23333 5,-0.48333 7.5,-0.75c0.83333,-0.23333 1.66667,-0.46667 2.5,-0.7c2.36667,0 4.75,0 7.15,0c0.7,0.23333 1.4,0.46667 2.1,0.7c10.26667,0.26667 20.51667,0.51667 30.75,0.75c0.7,0.23333 1.41667,0.46667 2.15,0.7c2.6,0.23333 5.21667,0.46667 7.85,0.7c0.7,0.23333 1.41667,0.48333 2.15,0.75c2.13333,0.23333 4.26667,0.46667 6.4,0.7c0.73333,0.23333 1.45,0.45 2.15,0.65c1.9,0.5 3.8,0.98333 5.7,1.45c1.2,0.26667 2.38333,0.55 3.55,0.85c0.73333,0.16667 1.45,0.36667 2.15,0.6c0.26667,0.23333 0.51667,0.46667 0.75,0.7c0.7,0.26667 1.41667,0.51667 2.15,0.75c0.23333,0.23333 0.46667,0.46667 0.7,0.7c0.7,0.23333 1.41667,0.46667 2.15,0.7c0.46667,0.36667 0.93333,0.73333 1.4,1.1c0.36667,0.33333 0.73333,0.68333 1.1,1.05c0.33333,0.36667 0.68333,0.73333 1.05,1.1c0.73333,0.33333 1.45,0.68333 2.15,1.05c0.36667,0.36667 0.71667,0.71667 1.05,1.05c0.36667,0.36667 0.73333,0.73333 1.1,1.1c0.36667,0.36667 0.71667,0.71667 1.05,1.05c0.23333,0.36667 0.48333,0.73333 0.75,1.1c0.23333,0.33333 0.46667,0.68333 0.7,1.05c0.23333,0.36667 0.46667,0.73333 0.7,1.1c0.23333,0.33333 0.46667,0.68333 0.7,1.05c0.13333,0.36667 0.26667,0.71667 0.4,1.05c0,0.36667 0,0.73333 0,1.1c0.1,0.36667 0.21667,0.71667 0.35,1.05c0.23333,0.36667 0.46667,0.73333 0.7,1.1c0.13333,0.33333 0.25,0.68333 0.35,1.05c0,0.36667 0,0.73333 0,1.1c0,0.33333 0,0.68333 0,1.05c0,0.36667 0,0.71667 0,1.05c0,0.36667 0,0.73333 0,1.1c0.36667,-0.36667 0.73333,-0.73333 1.1,-1.1c0.33333,-0.33333 0.68333,-0.68333 1.05,-1.05c0.13333,-0.36667 0.25,-0.71667 0.35,-1.05c0.13333,-0.36667 0.25,-0.73333 0.35,-1.1c0.23333,-0.36667 0.48333,-0.71667 0.75,-1.05c0.1,-0.36667 0.21667,-0.73333 0.35,-1.1c0.23333,-0.33333 0.46667,-0.68333 0.7,-1.05c0.23333,-0.36667 0.46667,-0.73333 0.7,-1.1c0.13333,-0.33333 0.25,-0.68333 0.35,-1.05c0.26667,-0.36667 0.51667,-0.71667 0.75,-1.05c0.33333,-0.36667 0.68333,-0.73333 1.05,-1.1c0.23333,-0.36667 0.46667,-0.71667 0.7,-1.05c0.36667,-0.36667 0.73333,-0.73333 1.1,-1.1c0.36667,-0.33333 0.71667,-0.68333 1.05,-1.05c0.36667,-0.36667 0.73333,-0.73333 1.1,-1.1c0.33333,-0.33333 0.68333,-0.68333 1.05,-1.05c0.36667,-0.36667 0.73333,-0.71667 1.1,-1.05c0.33333,-0.36667 0.68333,-0.73333 1.05,-1.1c0.36667,-0.23333 0.71667,-0.46667 1.05,-0.7c0.6,-0.23333 1.2,-0.46667 1.8,-0.7c0.36667,-0.26667 0.73333,-0.51667 1.1,-0.75c0.56667,-0.23333 1.15,-0.46667 1.75,-0.7c0.36667,-0.23333 0.73333,-0.46667 1.1,-0.7c0.46667,-0.13333 0.93333,-0.26667 1.4,-0.4c0.73333,-0.23333 1.45,-0.46667 2.15,-0.7c0.6,-0.23333 1.2,-0.46667 1.8,-0.7c0.6,-0.13333 1.2,-0.25 1.8,-0.35c0.46667,0 0.93333,0 1.4,0c0.73333,0.23333 1.45,0.46667 2.15,0.7c2.13333,0.23333 4.26667,0.46667 6.4,0.7c0.73333,0.26667 1.45,0.51667 2.15,0.75c0.36667,0.23333 0.73333,0.46667 1.1,0.7c0.6,0.23333 1.18333,0.46667 1.75,0.7c0.36667,0.23333 0.73333,0.48333 1.1,0.75c0.6,0.23333 1.2,0.46667 1.8,0.7c0.33333,0.36667 0.68333,0.71667 1.05,1.05c0.36667,0.23333 0.71667,0.48333 1.05,0.75c0.13333,0.1 0.26667,0.21667 0.4,0.35c0.56667,0.23333 1.15,0.46667 1.75,0.7c0.36667,0.36667 0.73333,0.71667 1.1,1.05c0.33333,0.13333 0.68333,0.26667 1.05,0.4c0.13333,-0.26667 0.26667,-0.5 0.4,-0.7c0.2,-0.36667 0.43333,-0.73333 0.7,-1.1c0.1,-0.36667 0.21667,-0.73333 0.35,-1.1c0.1,-0.33333 0.21667,-0.68333 0.35,-1.05c0,-0.36667 0,-0.71667 0,-1.05c0.23333,-0.36667 0.46667,-0.73333 0.7,-1.1c0.13333,-0.36667 0.25,-0.71667 0.35,-1.05c0.13333,-0.36667 0.25,-0.73333 0.35,-1.1c0.26667,-0.33333 0.51667,-0.68333 0.75,-1.05c0.46667,-0.36667 0.93333,-0.73333 1.4,-1.1c0.23333,-0.33333 0.48333,-0.68333 0.75,-1.05c0.33333,-0.36667 0.68333,-0.71667 1.05,-1.05c0.36667,-0.36667 0.71667,-0.73333 1.05,-1.1c0.5,-0.33333 0.98333,-0.68333 1.45,-1.05c0.23333,-0.36667 0.46667,-0.73333 0.7,-1.1c0.83333,-0.33333 1.66667,-0.68333 2.5,-1.05c0.36667,-0.23333 0.73333,-0.46667 1.1,-0.7c0.6,-0.13333 1.18333,-0.25 1.75,-0.35c0.6,-0.26667 1.2,-0.51667 1.8,-0.75c0.83333,-0.1 1.65,-0.26667 2.45,-0.5c0.03333,0 0.05,-0.06667 0.05,-0.2c4.76667,0 9.53333,0 14.3,0c0.7,0.23333 1.41667,0.46667 2.15,0.7c1.66667,0.23333 3.33333,0.48333 5,0.75c0.7,0.23333 1.41667,0.43333 2.15,0.6c1.16667,0.3 2.35,0.6 3.55,0.9c0.7,0.16667 1.41667,0.36667 2.15,0.6c0.7,0.26667 1.41667,0.51667 2.15,0.75c0.7,0.23333 1.4,0.46667 2.1,0.7c0.36667,0.36667 0.73333,0.71667 1.1,1.05c0.36667,0.36667 0.71667,0.73333 1.05,1.1c0.36667,0.33333 0.73333,0.68333 1.1,1.05c0.23333,0.36667 0.46667,0.73333 0.7,1.1c0.23333,0.33333 0.46667,0.68333 0.7,1.05c0.13333,0.36667 0.25,0.71667 0.35,1.05c0.26667,0.36667 0.51667,0.73333 0.75,1.1c0.1,0.36667 0.21667,0.71667 0.35,1.05c0.23333,0.36667 0.46667,0.73333 0.7,1.1c0.13333,0.33333 0.25,0.68333 0.35,1.05c0.13333,0.36667 0.25,0.73333 0.35,1.1c0,0.33333 0,0.68333 0,1.05c0,0.36667 0,0.71667 0,1.05c0,0.36667 0,0.73333 0,1.1c0,0.36667 0,0.71667 0,1.05c0.26667,0.36667 0.51667,0.73333 0.75,1.1c0.23333,0.33333 0.46667,0.68333 0.7,1.05c0,0.36667 0,0.73333 0,1.1c0,0.33333 0,0.68333 0,1.05c0,0.36667 0,0.71667 0,1.05c0,0.36667 0,0.73333 0,1.1c0.13333,0.36667 0.25,0.71667 0.35,1.05c0.36667,0 0.73333,0 1.1,0c0.46667,-0.33333 0.93333,-0.68333 1.4,-1.05c0.13333,-0.36667 0.25,-0.73333 0.35,-1.1c0.13333,-0.33333 0.25,-0.68333 0.35,-1.05c0.26667,-0.36667 0.51667,-0.71667 0.75,-1.05c0.46667,-0.36667 0.93333,-0.73333 1.4,-1.1c0.13333,-0.36667 0.25,-0.71667 0.35,-1.05c0.13333,-0.36667 0.26667,-0.73333 0.4,-1.1c0.23333,-0.33333 0.46667,-0.68333 0.7,-1.05c0.46667,-0.36667 0.93333,-0.73333 1.4,-1.1c0.26667,-0.33333 0.51667,-0.68333 0.75,-1.05c0.33333,-0.36667 0.68333,-0.71667 1.05,-1.05c0.36667,-0.36667 0.73333,-0.73333 1.1,-1.1c0.46667,-0.36667 0.93333,-0.71667 1.4,-1.05c0.23333,-0.36667 0.46667,-0.73333 0.7,-1.1c0.83333,-0.33333 1.66667,-0.68333 2.5,-1.05c0.36667,-0.23333 0.73333,-0.46667 1.1,-0.7c0.6,-0.13333 1.2,-0.26667 1.8,-0.4c5.7,0 11.4,0 17.1,0c0.73333,0.26667 1.46667,0.48333 2.2,0.65c1.16667,0.3 2.33333,0.6 3.5,0.9c0.73333,0.16667 1.46667,0.36667 2.2,0.6c0.33333,0.36667 0.68333,0.73333 1.05,1.1c0.36667,0.23333 0.71667,0.48333 1.05,0.75c0.13333,0.1 0.26667,0.2 0.4,0.3c0.56667,0.23333 1.15,0.46667 1.75,0.7c0.36667,0.36667 0.73333,0.73333 1.1,1.1c0.1,0.36667 0.21667,0.71667 0.35,1.05c0.1,0.36667 0.21667,0.73333 0.35,1.1c0.36667,0.33333 0.71667,0.68333 1.05,1.05c0.5,0.36667 0.98333,0.73333 1.45,1.1c0.36667,0.33333 0.71667,0.68333 1.05,1.05c0.26667,0.36667 0.51667,0.71667 0.75,1.05c0.33333,0.36667 0.68333,0.73333 1.05,1.1c0.36667,0.36667 0.73333,0.71667 1.1,1.05c0.33333,0.36667 0.68333,0.73333 1.05,1.1c0.23333,0.33333 0.46667,0.68333 0.7,1.05c0.13333,0.36667 0.25,0.73333 0.35,1.1c0.23333,0.33333 0.48333,0.68333 0.75,1.05c0.33333,0.36667 0.68333,0.71667 1.05,1.05c0.23333,0.36667 0.46667,0.73333 0.7,1.1c0.13333,0.36667 0.25,0.71667 0.35,1.05c0.26667,0.36667 0.51667,0.73333 0.75,1.1c0.1,0.33333 0.21667,0.68333 0.35,1.05c0.1,0.36667 0.21667,0.73333 0.35,1.1c0,0.33333 0,0.68333 0,1.05c0,0.36667 0,0.71667 0,1.05c0.23333,0.36667 0.46667,0.73333 0.7,1.1c0.23333,0.36667 0.48333,0.71667 0.75,1.05c0.1,0.36667 0.21667,0.73333 0.35,1.1c0,0.33333 0,0.68333 0,1.05c0.1,0.36667 0.21667,0.73333 0.35,1.1c0.23333,0.33333 0.46667,0.68333 0.7,1.05c0.13333,0.36667 0.25,0.71667 0.35,1.05c0,0.36667 0,0.73333 0,1.1c0,0.36667 0,0.71667 0,1.05c0,0.36667 0,0.73333 0,1.1c0,0.33333 0,0.68333 0,1.05c0,0.36667 0,0.73333 0,1.1c0,0.33333 0,0.68333 0,1.05c-0.1,0.36667 -0.21667,0.71667 -0.35,1.05c-0.23333,0.36667 -0.46667,0.73333 -0.7,1.1c-0.13333,0.36667 -0.25,0.71667 -0.35,1.05c0,0.36667 0,0.73333 0,1.1c0,0.33333 0,0.68333 0,1.05c-0.13333,0.36667 -0.25,0.73333 -0.35,1.1c-0.13333,0.33333 -0.26667,0.68333 -0.4,1.05c-0.23333,0.36667 -0.46667,0.71667 -0.7,1.05c-0.1,0.36667 -0.21667,0.73333 -0.35,1.1c-0.23333,0.36667 -0.46667,0.71667 -0.7,1.05c-0.13333,0.36667 -0.25,0.73333 -0.35,1.1c-0.26667,0.33333 -0.51667,0.68333 -0.75,1.05c-0.1,0.36667 -0.21667,0.73333 -0.35,1.1c-0.1,0.33333 -0.21667,0.68333 -0.35,1.05c0,0.36667 0,0.71667 0,1.05c-0.23333,0.36667 -0.46667,0.73333 -0.7,1.1c-0.13333,0.36667 -0.25,0.71667 -0.35,1.05c-0.36667,0.36667 -0.73333,0.73333 -1.1,1.1c-0.23333,0.33333 -0.46667,0.68333 -0.7,1.05c-0.23333,0.36667 -0.46667,0.73333 -0.7,1.1c-0.13333,0.33333 -0.25,0.68333 -0.35,1.05c-0.36667,0.36667 -0.73333,0.71667 -1.1,1.05c-0.36667,0.36667 -0.71667,0.73333 -1.05,1.1c-0.36667,0.33333 -0.73333,0.68333 -1.1,1.05c-0.46667,0.36667 -0.93333,0.73333 -1.4,1.1c-0.36667,0.33333 -0.73333,0.68333 -1.1,1.05c-0.1,0.36667 -0.21667,0.71667 -0.35,1.05c-0.23333,0.36667 -0.46667,0.73333 -0.7,1.1c-0.13333,0.36667 -0.25,0.71667 -0.35,1.05c-0.23333,0.23333 -0.48333,0.48333 -0.75,0.75c-0.23333,0.1 -0.46667,0.2 -0.7,0.3c-0.6,0.26667 -1.2,0.51667 -1.8,0.75c-0.33333,0.36667 -0.68333,0.71667 -1.05,1.05c-0.36667,0.36667 -0.71667,0.73333 -1.05,1.1c-0.36667,0.36667 -0.73333,0.71667 -1.1,1.05c-0.36667,0.36667 -0.71667,0.73333 -1.05,1.1c-0.36667,0.33333 -0.73333,0.68333 -1.1,1.05c-0.7,0.73333 -1.41667,1.45 -2.15,2.15c-0.7,0.7 -1.4,1.41667 -2.1,2.15c-1.06667,1.06667 -2.15,2.13333 -3.25,3.2c-0.33333,0.36667 -0.68333,0.73333 -1.05,1.1c-0.23333,0.33333 -0.46667,0.68333 -0.7,1.05c-0.13333,0.36667 -0.26667,0.71667 -0.4,1.05c-0.23333,0.36667 -0.46667,0.73333 -0.7,1.1c-0.36667,0.36667 -0.71667,0.71667 -1.05,1.05c-0.36667,0.36667 -0.73333,0.73333 -1.1,1.1c-0.46667,0.33333 -0.93333,0.68333 -1.4,1.05c-0.35391,0.17695 -0.70391,0.34362 -1.05,0.5c0,0.32839 0,0.64505 0,0.95c0,1.06667 0,2.13333 0,3.2c0,1.06667 -0.01667,2.13333 -0.05,3.2c0,0.73333 0,1.45 0,2.15c-0.23333,0.36667 -0.46667,0.73333 -0.7,1.1c-0.23333,0.33333 -0.46667,0.68333 -0.7,1.05c0,0.36667 0,0.71667 0,1.05c0,0.36667 0,0.73333 0,1.1c0,0.36667 0,0.71667 0,1.05c0,0.36667 0,0.73333 0,1.1c0,0.33333 0,0.68333 0,1.05c0,0.36667 0,0.73333 0,1.1c0,0.33333 0,0.68333 0,1.05c-0.13333,0.36667 -0.25,0.71667 -0.35,1.05c-0.26667,0.36667 -0.51667,0.73333 -0.75,1.1c-0.1,0.36667 -0.21667,0.71667 -0.35,1.05c0,0.36667 0,0.73333 0,1.1c0,0.33333 0,0.68333 0,1.05c0,0.36667 0,0.73333 0,1.1c0,0.33333 0,0.68333 0,1.05c-0.23333,0.36667 -0.46667,0.71667 -0.7,1.05c-0.23333,0.36667 -0.46667,0.73333 -0.7,1.1c0,0.36667 0,0.71667 0,1.05c0,0.36667 0,0.73333 0,1.1c0,0.33333 0,0.68333 0,1.05c0,0.36667 0,0.73333 0,1.1c0,0.33333 0,0.68333 0,1.05c0,0.36667 0,0.71667 0,1.05c0,0.36667 0,0.73333 0,1.1c-0.13333,0.33333 -0.26667,0.68333 -0.4,1.05c-0.23333,0.36667 -0.46667,0.73333 -0.7,1.1c-0.1,0.33333 -0.21667,0.68333 -0.35,1.05c0,0.36667 0,0.71667 0,1.05c0,0.36667 0,0.73333 0,1.1c-0.13333,0.36667 -0.25,0.71667 -0.35,1.05c-0.13333,0.36667 -0.25,0.73333 -0.35,1.1c-0.23333,0.33333 -0.48333,0.68333 -0.75,1.05c-0.1,0.36667 -0.21667,0.73333 -0.35,1.1c-0.23333,0.33333 -0.46667,0.68333 -0.7,1.05c-0.23333,0.23333 -0.46667,0.46667 -0.7,0.7c-0.13333,0.13333 -0.26667,0.2 -0.4,0.2c-3.66667,0.46667 -7.35,0.88333 -11.05,1.25c-0.7,0.23333 -1.41667,0.46667 -2.15,0.7c-5.46667,0.23333 -10.93333,0.46667 -16.4,0.7c-0.73333,0.26667 -1.45,0.51667 -2.15,0.75c-4.3,0 -8.58333,0 -12.85,0c-0.83333,-0.23333 -1.66667,-0.48333 -2.5,-0.75c-0.23333,-0.33333 -0.46667,-0.68333 -0.7,-1.05c-0.5,-0.36667 -0.98333,-0.71667 -1.45,-1.05c-0.23333,-0.36667 -0.46667,-0.73333 -0.7,-1.1c-0.13333,-0.36667 -0.25,-0.71667 -0.35,-1.05c-0.36667,0.1 -0.73333,0.18333 -1.1,0.25c-3.2,0.43333 -6.41667,0.81667 -9.65,1.15c-0.7,0.23333 -1.41667,0.48333 -2.15,0.75c-7.6,0 -15.21667,0 -22.85,0c-0.83333,-0.26667 -1.66667,-0.51667 -2.5,-0.75c-0.23333,-0.33333 -0.46667,-0.68333 -0.7,-1.05c-0.46667,-0.36667 -0.95,-0.73333 -1.45,-1.1c-0.33333,-0.33333 -0.68333,-0.68333 -1.05,-1.05c-0.23333,0 -0.46667,0 -0.7,0c-0.23333,0.36667 -0.48333,0.71667 -0.75,1.05c-0.23333,0.26667 -0.46667,0.51667 -0.7,0.75c-0.1,0.1 -0.23333,0.18333 -0.4,0.25c-0.56667,0.16667 -1.15,0.31667 -1.75,0.45c-11.66667,0.23333 -23.33333,0.46667 -35,0.7c-0.7,0.23333 -1.4,0.48333 -2.1,0.75c-1.66667,0.23333 -3.33333,0.46667 -5,0.7c-0.73333,0.23333 -1.45,0.46667 -2.15,0.7c-2.16667,0.23333 -4.31667,0.46667 -6.45,0.7c-0.7,0.26667 -1.41667,0.51667 -2.15,0.75c-2.13333,0.23333 -4.26667,0.46667 -6.4,0.7c-0.73333,0.23333 -1.45,0.46667 -2.15,0.7c-1.66667,0.23333 -3.33333,0.48333 -5,0.75c-0.7,0.23333 -1.41667,0.46667 -2.15,0.7c-3.33333,0 -6.66667,0 -10,0c-0.83333,-0.23333 -1.66667,-0.46667 -2.5,-0.7c-0.1,-0.26667 -0.21667,-0.51667 -0.35,-0.75c-0.83333,-0.23333 -1.66667,-0.46667 -2.5,-0.7c-0.23333,-0.36667 -0.46667,-0.71667 -0.7,-1.05c-0.23333,-0.36667 -0.48333,-0.73333 -0.75,-1.1c-0.1,-0.36667 -0.21667,-0.71667 -0.35,-1.05c-0.33333,-0.36667 -0.68333,-0.73333 -1.05,-1.1c-0.23333,-0.33333 -0.46667,-0.68333 -0.7,-1.05c-0.26667,-0.36667 -0.51667,-0.73333 -0.75,-1.1c-0.1,-0.33333 -0.21667,-0.68333 -0.35,-1.05c-0.1,0 -0.16667,0.01667 -0.2,0.05c-0.1,0.33333 -0.15,0.66667 -0.15,1c0,0.36667 0,0.73333 0,1.1c-0.23333,0.36667 -0.46667,0.71667 -0.7,1.05c-0.23333,0.36667 -0.48333,0.73333 -0.75,1.1c-0.23333,0.23333 -0.46667,0.46667 -0.7,0.7c-4.43333,0.9 -8.81667,2.03333 -13.15,3.4c-4.73333,1.53333 -9.51667,2.9 -14.35,4.1c-7.13333,0 -14.26667,0 -21.4,0c-0.83333,-0.23333 -1.66667,-0.46667 -2.5,-0.7c-0.23333,-0.36667 -0.48333,-0.73333 -0.75,-1.1c-0.23333,-0.33333 -0.46667,-0.68333 -0.7,-1.05c-0.1,-0.36667 -0.21667,-0.73333 -0.35,-1.1c-0.23333,-0.33333 -0.46667,-0.68333 -0.7,-1.05c-0.13333,-0.36667 -0.25,-0.71667 -0.35,-1.05c-0.26667,-0.36667 -0.51667,-0.73333 -0.75,-1.1c-0.23333,-0.36667 -0.46667,-0.71667 -0.7,-1.05c0,-0.36667 0,-0.73333 0,-1.1c0,-0.7 0,-1.41667 0,-2.15c0,-0.7 0,-1.4 0,-2.1c0,-0.73333 0,-1.45 0,-2.15c0,-0.73333 0,-1.45 0,-2.15c0,-0.73333 0,-1.45 0,-2.15c0,-0.36667 0,-0.71667 0,-1.05c-0.23333,0 -0.46667,0 -0.7,0c-0.13333,0.33333 -0.25,0.68333 -0.35,1.05c-0.13333,0.36667 -0.26667,0.71667 -0.4,1.05c-0.23333,0.36667 -0.46667,0.73333 -0.7,1.1c0,0.36667 0,0.71667 0,1.05c-0.1,0.36667 -0.21667,0.73333 -0.35,1.1c-0.13333,0.33333 -0.25,0.68333 -0.35,1.05c-0.23333,0.36667 -0.46667,0.73333 -0.7,1.1c-0.36667,0.33333 -0.73333,0.68333 -1.1,1.05c-0.1,0.36667 -0.21667,0.71667 -0.35,1.05c0,0.36667 0,0.73333 0,1.1c-0.23333,0.36667 -0.46667,0.71667 -0.7,1.05c-0.23333,0.36667 -0.48333,0.73333 -0.75,1.1c-0.23333,0.33333 -0.46667,0.68333 -0.7,1.05c-0.36667,0.36667 -0.71667,0.73333 -1.05,1.1c-0.5,0.33333 -0.98333,0.68333 -1.45,1.05c-0.7,0.23333 -1.41667,0.46667 -2.15,0.7c-1.66667,0.23333 -3.33333,0.48333 -5,0.75c-0.7,0.23333 -1.41667,0.46667 -2.15,0.7c-12.83333,-0.13333 -25.68333,-0.25 -38.55,-0.35c-0.7,-0.23333 -1.41667,-0.48333 -2.15,-0.75c-0.33333,-0.33333 -0.68333,-0.68333 -1.05,-1.05c-0.36667,-0.36667 -0.73333,-0.71667 -1.1,-1.05c-0.33333,-0.36667 -0.68333,-0.73333 -1.05,-1.1c-0.36667,-0.36667 -0.71667,-0.71667 -1.05,-1.05c-0.26667,-0.36667 -0.51667,-0.73333 -0.75,-1.1c-0.33333,-0.33333 -0.68333,-0.68333 -1.05,-1.05c-0.23333,-0.36667 -0.46667,-0.73333 -0.7,-1.1c-0.13333,-0.33333 -0.26667,-0.68333 -0.4,-1.05c-0.23333,-0.36667 -0.46667,-0.71667 -0.7,-1.05c-0.36667,-0.36667 -0.71667,-0.73333 -1.05,-1.1c-0.23333,-0.36667 -0.48333,-0.71667 -0.75,-1.05c-0.05,-0.18333 -0.1,-0.36667 -0.15,-0.55c-0.06667,0.18333 -0.13333,0.36667 -0.2,0.55c-0.1,0.33333 -0.21667,0.68333 -0.35,1.05c-0.36667,0.36667 -0.71667,0.73333 -1.05,1.1c-0.36667,0.33333 -0.73333,0.68333 -1.1,1.05c-0.1,0.36667 -0.21667,0.71667 -0.35,1.05c-0.1,0.36667 -0.21667,0.73333 -0.35,1.1c-0.36667,0.36667 -0.71667,0.71667 -1.05,1.05c-0.36667,0.36667 -0.73333,0.73333 -1.1,1.1c-0.36667,0.33333 -0.71667,0.68333 -1.05,1.05c-0.23333,0.36667 -0.48333,0.73333 -0.75,1.1c-0.33333,0.33333 -0.68333,0.68333 -1.05,1.05c-0.13333,0.36667 -0.25,0.71667 -0.35,1.05c-0.23333,0.36667 -0.46667,0.73333 -0.7,1.1c-0.36667,0.36667 -0.73333,0.71667 -1.1,1.05c-0.36667,0.36667 -0.71667,0.73333 -1.05,1.1c-0.36667,0.33333 -0.73333,0.68333 -1.1,1.05c-0.23333,0.23333 -0.46667,0.46667 -0.7,0.7c-0.6,0.13333 -1.2,0.26667 -1.8,0.4c-5.46667,0.23333 -10.93333,0.46667 -16.4,0.7c-0.73333,0.23333 -1.45,0.46667 -2.15,0.7c-4.53333,0.23333 -9.06667,0.46667 -13.6,0.7c-0.7,0.26667 -1.4,0.51667 -2.1,0.75c-10.73333,0.23333 -21.45,0.46667 -32.15,0.7c-0.73333,0.23333 -1.45,0.46667 -2.15,0.7c-9.76667,0.23333 -19.53333,0.48333 -29.3,0.75c-0.7,0.23333 -1.41667,0.46667 -2.15,0.7c-1.4,0 -2.81667,0 -4.25,0c-0.96667,-0.23333 -1.91667,-0.46667 -2.85,-0.7c-0.36667,-0.26667 -0.73333,-0.51667 -1.1,-0.75c-0.1,-0.1 -0.23333,-0.18333 -0.4,-0.25c-0.66667,-0.3 -1.36667,-0.56667 -2.1,-0.8c-0.33333,-0.36667 -0.68333,-0.73333 -1.05,-1.1c-0.36667,-0.33333 -0.73333,-0.68333 -1.1,-1.05c-0.23333,-0.36667 -0.46667,-0.71667 -0.7,-1.05c-0.1,-0.36667 -0.21667,-0.73333 -0.35,-1.1c-0.23333,-0.36667 -0.46667,-0.71667 -0.7,-1.05c-0.36667,-0.36667 -0.73333,-0.73333 -1.1,-1.1c-0.23333,-0.33333 -0.46667,-0.68333 -0.7,-1.05c-0.13333,-0.36667 -0.25,-0.73333 -0.35,-1.1c-0.23333,-0.33333 -0.46667,-0.68333 -0.7,-1.05c-0.36667,-0.36667 -0.73333,-0.71667 -1.1,-1.05c-0.23333,-0.36667 -0.46667,-0.73333 -0.7,-1.1c-0.13333,-0.36667 -0.25,-0.71667 -0.35,-1.05c-0.23333,-0.36667 -0.48333,-0.73333 -0.75,-1.1c-0.05781,-0.19258 -0.12448,-0.39258 -0.2,-0.6c-0.04753,0.08438 -0.09753,0.16771 -0.15,0.25c-0.23333,0.36667 -0.46667,0.73333 -0.7,1.1c0,0.33333 0,0.68333 0,1.05c-0.23333,0.36667 -0.46667,0.71667 -0.7,1.05c-0.13333,0.36667 -0.25,0.73333 -0.35,1.1c-0.36667,0.36667 -0.73333,0.71667 -1.1,1.05c-0.36667,0.36667 -0.71667,0.73333 -1.05,1.1c-0.36667,0.33333 -0.73333,0.68333 -1.1,1.05c-0.33333,0.23333 -0.68333,0.46667 -1.05,0.7c-0.6,0.13333 -1.2,0.26667 -1.8,0.4c-5.46667,0.23333 -10.93333,0.46667 -16.4,0.7c-0.73333,0.23333 -1.45,0.46667 -2.15,0.7c-4.53333,0.23333 -9.06667,0.46667 -13.6,0.7c-0.7,0.26667 -1.41667,0.51667 -2.15,0.75c-0.93333,0 -1.88333,-0.01667 -2.85,-0.05c-2.36667,-0.1 -4.75,-0.2 -7.15,-0.3c-0.83333,-0.26667 -1.65,-0.51667 -2.45,-0.75c-0.26667,-0.33333 -0.51667,-0.68333 -0.75,-1.05c-0.23333,-0.36667 -0.46667,-0.73333 -0.7,-1.1c-0.13333,-0.33333 -0.25,-0.68333 -0.35,-1.05c-0.23333,-0.36667 -0.46667,-0.71667 -0.7,-1.05c-0.13333,-0.36667 -0.26667,-0.73333 -0.4,-1.1c-0.23333,-0.36667 -0.46667,-0.71667 -0.7,-1.05c-0.23333,-0.36667 -0.46667,-0.73333 -0.7,-1.1c0,-0.33333 0,-0.68333 0,-1.05c0,-0.36667 0,-0.73333 0,-1.1c0,-0.33333 0,-0.68333 0,-1.05c-0.23333,-0.23333 -0.46667,-0.46667 -0.7,-0.7c0,0.33333 0,0.68333 0,1.05c-0.13333,0.36667 -0.26667,0.73333 -0.4,1.1c-0.1,0.33333 -0.21667,0.68333 -0.35,1.05c-0.23333,0.36667 -0.46667,0.71667 -0.7,1.05c-0.13333,0.36667 -0.25,0.73333 -0.35,1.1c-0.23333,0.36667 -0.46667,0.71667 -0.7,1.05c-0.13333,0.36667 -0.26667,0.73333 -0.4,1.1c-0.23333,0.33333 -0.46667,0.68333 -0.7,1.05c-0.23333,0.36667 -0.46667,0.73333 -0.7,1.1c-0.36667,0.33333 -0.73333,0.68333 -1.1,1.05c-0.33333,0.36667 -0.68333,0.71667 -1.05,1.05c-0.36667,0.36667 -0.71667,0.73333 -1.05,1.1c-0.73333,0.23333 -1.45,0.46667 -2.15,0.7c-1.43333,0.46667 -2.86667,0.95 -4.3,1.45c-1.43333,0.46667 -2.86667,0.93333 -4.3,1.4c-2.6,0.23333 -5.21667,0.48333 -7.85,0.75c-0.7,0.23333 -1.41667,0.46667 -2.15,0.7c-6.16667,0 -12.35,0 -18.55,0c-0.83333,-0.23333 -1.66667,-0.46667 -2.5,-0.7c-2.5,-0.26667 -5,-0.51667 -7.5,-0.75c-0.83333,-0.23333 -1.66667,-0.46667 -2.5,-0.7c-0.23333,-0.36667 -0.46667,-0.71667 -0.7,-1.05c-0.5,-0.36667 -0.98333,-0.73333 -1.45,-1.1c-0.36667,-0.36667 -0.71667,-0.71667 -1.05,-1.05c-0.36667,-0.36667 -0.73333,-0.73333 -1.1,-1.1c-0.23333,-0.33333 -0.46667,-0.68333 -0.7,-1.05c-0.23333,-0.36667 -0.46667,-0.73333 -0.7,-1.1c0,-0.33333 0,-0.68333 0,-1.05c-0.13333,-0.36667 -0.25,-0.71667 -0.35,-1.05c-0.13333,-0.36667 -0.26667,-0.73333 -0.4,-1.1c-0.23333,-0.36667 -0.46667,-0.71667 -0.7,-1.05c0,-0.36667 0,-0.73333 0,-1.1c0,-0.33333 0,-0.68333 0,-1.05c0,-0.36667 0,-0.73333 0,-1.1c0,-0.33333 0,-0.68333 0,-1.05c-0.1,-0.36667 -0.21667,-0.71667 -0.35,-1.05c-0.23333,-0.36667 -0.46667,-0.73333 -0.7,-1.1c-0.13333,-0.36667 -0.25,-0.71667 -0.35,-1.05c0,-0.36667 0,-0.73333 0,-1.1c0,-0.33333 0,-0.68333 0,-1.05c-0.13333,-0.36667 -0.26667,-0.73333 -0.4,-1.1c-0.1,-0.33333 -0.21667,-0.68333 -0.35,-1.05c-0.23333,-0.36667 -0.46667,-0.71667 -0.7,-1.05c0,-0.36667 0,-0.73333 0,-1.1c0,-0.36667 0,-0.71667 0,-1.05c0,-0.36667 0,-0.73333 0,-1.1c0,-0.33333 0,-0.68333 0,-1.05c-0.13333,-0.36667 -0.25,-0.71667 -0.35,-1.05c-0.23333,-0.36667 -0.46667,-0.73333 -0.7,-1.1c-0.13333,-0.36667 -0.26667,-0.71667 -0.4,-1.05c0,-0.36667 0,-0.73333 0,-1.1c0,-0.33333 0,-0.68333 0,-1.05c0,-0.73333 0,-1.45 0,-2.15c0,-0.7 0,-1.41667 0,-2.15c0,-0.7 0,-1.41667 0,-2.15c0,-0.7 0,-1.41667 0,-2.15c-0.1,-0.33333 -0.21667,-0.68333 -0.35,-1.05c-0.1,-0.36667 -0.21667,-0.71667 -0.35,-1.05c-0.23333,-0.36667 -0.46667,-0.73333 -0.7,-1.1c0,-0.36667 0,-0.71667 0,-1.05c0,-0.36667 0,-0.73333 0,-1.1c0,-0.33333 0,-0.68333 0,-1.05c0,-0.36667 0,-0.73333 0,-1.1c0,-0.33333 0,-0.68333 0,-1.05c0,-0.36667 0,-0.71667 0,-1.05c0,-0.36667 0,-0.73333 0,-1.1c-0.23333,-0.36667 -0.46667,-0.71667 -0.7,-1.05c-0.26667,-0.36667 -0.51667,-0.73333 -0.75,-1.1c0,-1.43333 0,-2.85 0,-4.25c0,-1.8 0,-3.6 0,-5.4c0,-1.76667 0,-3.55 0,-5.35c0,-1.76667 0,-3.55 0,-5.35c0,-1.76667 0,-3.55 0,-5.35c0,-0.36667 0,-0.71667 0,-1.05c0.13333,-0.36667 0.25,-0.73333 0.35,-1.1c0,-0.36667 0,-0.71667 0,-1.05c0,-0.36667 0,-0.73333 0,-1.1c0,-0.33333 0,-0.68333 0,-1.05c-0.1,-0.36667 -0.21667,-0.73333 -0.35,-1.1c-0.1,-0.33333 -0.21667,-0.68333 -0.35,-1.05c-0.23333,-0.36667 -0.46667,-0.71667 -0.7,-1.05c0,-2.16667 0,-4.31667 0,-6.45c0,-2.86667 0,-5.71667 0,-8.55c0,-2.86667 0,-5.73333 0,-8.6c0,-2.83333 0,-5.68333 0,-8.55c0,-1.43333 0,-2.86667 0,-4.3c0.1,-0.36667 0.21667,-0.71667 0.35,-1.05c0,-1.06667 0,-2.15 0,-3.25c0,-1.4 0,-2.81667 0,-4.25c0,-1.43333 0,-2.86667 0,-4.3c0,-1.43333 0,-2.86667 0,-4.3c0,-1.43333 0,-2.85 0,-4.25c0,-0.36667 0,-0.73333 0,-1.1c0.13333,-0.36667 0.25,-0.71667 0.35,-1.05c0.23333,-0.36667 0.46667,-0.73333 0.7,-1.1c0.73333,-0.1 1.43333,-0.26667 2.1,-0.5c0.03333,0 0.05,-0.06667 0.05,-0.2c0.41615,0.16185 0.83281,0.31185 1.25,0.45c0.18281,-0.2444 0.36615,-0.51107 0.55,-0.8c0.36667,-0.36667 0.71667,-0.73333 1.05,-1.1c0.36667,-0.33333 0.73333,-0.68333 1.1,-1.05c0.36667,-0.36667 0.71667,-0.71667 1.05,-1.05c0.73333,-0.26667 1.45,-0.51667 2.15,-0.75c0.6,-0.23333 1.2,-0.46667 1.8,-0.7c0.33333,-0.23333 0.68333,-0.46667 1.05,-0.7c0.46667,-0.13333 0.95,-0.25 1.45,-0.35c3.1,-0.73333 6.18333,-1.5 9.25,-2.3c3.8,-1 7.61667,-1.95 11.45,-2.85c0.7,-0.13333 1.41667,-0.33333 2.15,-0.6c2.13333,-0.23333 4.26667,-0.46667 6.4,-0.7c0.73333,-0.23333 1.45,-0.46667 2.15,-0.7c1.9,-0.13333 3.81667,-0.25 5.75,-0.35c3.9,-0.23333 7.81667,-0.48333 11.75,-0.75z" fill="#000000"/><path d="M423.79234,321.24279c-0.86667,2.13333 -2.4,3.55 -4.6,4.25c-9.73333,2.93333 -19.8,4.51667 -30.2,4.75c-6.03333,0.5 -11.03333,2.1 -15,4.8l4.3,6.9c10.76667,-4.13333 21.68333,-6 32.75,-5.6c4.6,4.66667 7.38333,10.36667 8.35,17.1c0.4,2.9 0.63333,4.93333 0.7,6.1l-0.6,3.8c-6.06667,4.26667 -13.13333,6.41667 -21.2,6.45c-2.86667,0.36667 -5.75,0.75 -8.65,1.15c-3.66667,-0.16667 -5.68333,0.45 -6.05,1.85c1.26667,2.2 2.66667,4.33333 4.2,6.4c5.43333,7.26667 9.08333,15.23333 10.95,23.9c0.2,1 -0.01667,1.86667 -0.65,2.6c-6.83333,7.9 -15.8,11.6 -26.9,11.1c-3.7,-0.06667 -7,-1.08333 -9.9,-3.05c-9.83333,-6.86667 -15.35,-16.56667 -16.55,-29.1c-2.03333,-21.13333 -2.83333,-42.35 -2.4,-63.65c1.83333,-3.2 2.31667,-6.7 1.45,-10.5c-0.9,-3.93333 0.65,-6.56667 4.65,-7.9c21.53333,-7.13333 43.68333,-10.38333 66.45,-9.75c0.6,0.53333 1.2,1.08333 1.8,1.65c6.26667,5.4 8.93333,12.21667 8,20.45c0.23333,2.2 -0.06667,4.3 -0.9,6.3M511.14234,410.44279c-12.36667,3.06667 -24.9,4.46667 -37.6,4.2c-7.53333,-5.6 -13.51667,-12.5 -17.95,-20.7c-1.86667,-3.46667 -3.48333,-5.65 -4.85,-6.55c2,7.16667 3.05,14.45 3.15,21.85c0,0.9 -0.41667,1.55 -1.25,1.95c-11,5.23333 -22.38333,5.95 -34.15,2.15c-0.86667,-0.23333 -1.33333,-0.75 -1.4,-1.55c-0.86667,-9.76667 -0.45,-19.73333 1.25,-29.9c3,-17.93333 7.88333,-35.48333 14.65,-52.65c1.1,-2.8 2.86667,-5.01667 5.3,-6.65c13.73333,-9.43333 29.08333,-13.3 46.05,-11.6c13.6,1.63333 22.26667,8.63333 26,21c-1,6.13333 -3.88333,11.5 -8.65,16.1c-8.66667,8.3 -18.13333,14.98333 -28.4,20.05c6.46667,2.26667 12.4,5.56667 17.8,9.9c4.76667,3.83333 9.46667,7.8 14.1,11.9c6.26667,5.56667 8.75,12.15 7.45,19.75c-0.46667,0.36667 -0.96667,0.61667 -1.5,0.75M464.64234,335.99279l-9.05,10.55l22.35,-9.95l-13.3,-0.6M577.94234,318.69279c0.46667,6.46667 -0.15,12.91667 -1.85,19.35l0.75,10.7c-3.06667,1.7 -6.36667,1.98333 -9.9,0.85c-9,-2.73333 -17.73333,-2.63333 -26.2,0.3l2.4,5.3c4.06667,-2.53333 8.46667,-3.93333 13.2,-4.2c1.8,0 3.03333,0.86667 3.7,2.6c2.9,7.5 2.71667,14.8 -0.55,21.9l-16.35,1.65l4.05,6.75c10.6,0.03333 21.2,0.16667 31.8,0.4c0.8,0.03333 1.5,0.3 2.1,0.8c4.4,3.83333 7.18333,8.78333 8.35,14.85c0.6,3.1 0.2,5.91667 -1.2,8.45c-0.56667,1 -1.36667,1.58333 -2.4,1.75c-20.56667,1.86667 -41.2,2.01667 -61.9,0.45c-0.46667,-0.86667 -0.91667,-1.71667 -1.35,-2.55c-8.6,-17.16667 -11.68333,-35.2 -9.25,-54.1c0.36667,-2.83333 0.58333,-5.68333 0.65,-8.55c0.36667,-12.96667 5.05,-23.95 14.05,-32.95c1,-0.96667 2.21667,-1.56667 3.65,-1.8c8.06667,-1.53333 16.23333,-1.78333 24.5,-0.75c7.5,0.9 14.45,3.35 20.85,7.35c0.56667,0.36667 0.86667,0.85 0.9,1.45M647.59234,329.24279c0.7,7.9 -1.23333,14.9 -5.8,21l-30.45,0.05l2.65,5.8l18.2,-2.3c4.33333,4.66667 6.23333,10.5 5.7,17.5c-0.36667,5.13333 -3.63333,7.41667 -9.8,6.85c-3.86667,-0.13333 -6.95,0 -9.25,0.4l2.75,4.95l30.35,1.4c1.96667,3.2 3.15,6.73333 3.55,10.6c0.33333,3.06667 0.31667,6.13333 -0.05,9.2c-0.16667,1.2 -0.81667,1.98333 -1.95,2.35c-14.83333,4.83333 -30.2,6.33333 -46.1,4.5c-3.6,-0.3 -6.3,-1.91667 -8.1,-4.85c-3,-5 -5.18333,-10.31667 -6.55,-15.95c-4.6,-18.66667 -6.53333,-37.66667 -5.8,-57c0.26667,-6.56667 2.03333,-12.55 5.3,-17.95c1.13333,-1.83333 2.76667,-2.88333 4.9,-3.15c13,-0.26667 25.93333,0.43333 38.8,2.1c5.7,0.53333 9.53333,3.06667 11.5,7.6c-0.1,2.33333 -0.05,4.63333 0.15,6.9M767.19234,348.34279l0.6,3.35l-5.05,35.9l45.35,-4c0.96667,1.23333 1.91667,2.5 2.85,3.8c0.23333,0.33333 0.35,0.73333 0.35,1.2c0.3,8.1 -0.23333,15.93333 -1.6,23.5l-80.55,3.85c-1.83333,-2.4 -2.78333,-5.16667 -2.85,-8.3c-0.1,-4.63333 -0.4,-9.3 -0.9,-14c-1.26667,-12.5 -0.05,-24.53333 3.65,-36.1l-1.5,-1.5c4.6,-3.33333 9.83333,-5.18333 15.7,-5.55c1.46667,-0.3 2.88333,-0.71667 4.25,-1.25c6.8,-2.63333 13.36667,-2.93333 19.7,-0.9M757.84234,338.64279c-10.06667,8.16667 -21.73333,13.26667 -35,15.3c-4.56667,0.8 -8.03333,2.13333 -10.4,4c2.8,17.1 5.1,34.3 6.9,51.6c0.2,2.03333 -0.71667,3.18333 -2.75,3.45c-14.83333,2.5 -29.66667,2.61667 -44.5,0.35c-2.03333,-2.76667 -3.1,-5.88333 -3.2,-9.35c-0.6,-21.86667 1.83333,-43.56667 7.3,-65.1c-1.8,0.33333 -3.5,0.85 -5.1,1.55c-6.4,3 -12.76667,4.06667 -19.1,3.2c-0.8,-1.86667 -0.91667,-3.85 -0.35,-5.95c2.86667,-10.9 5.58333,-21.75 8.15,-32.55c1.23333,-5.23333 3.95,-7.95 8.15,-8.15c0.06667,0.1 0.13333,0.23333 0.2,0.4c0.2,0.4 0.35,0.61667 0.45,0.65c16.3,-2.56667 32.65,-4.03333 49.05,-4.4c12.96667,-0.3 24.71667,3.18333 35.25,10.45c10.56667,7.23333 13.41667,16.48333 8.55,27.75c-0.26667,0.96667 -0.56667,1.91667 -0.9,2.85c-0.6,1.63333 -1.5,2.95 -2.7,3.95M726.24234,326.49279c-7.8,-1.36667 -15.33333,-1.13333 -22.6,0.7l1.05,11.25c4.96667,-0.83333 9.78333,-1.93333 14.45,-3.3c5.16667,-1.53333 7.53333,-4.41667 7.1,-8.65M840.69234,324.89279l17.9,80.8l-2,1.75l-30.6,0.15c-2.53333,-2.8 -3.91667,-6.18333 -4.15,-10.15c-0.66667,-10.9 -1.36667,-21.53333 -2.1,-31.9c-0.6,-0.1 -1.18333,-0.25 -1.75,-0.45c-1.33333,-0.5 -2.63333,-1.06667 -3.9,-1.7c-0.36667,-0.16667 -0.71667,-0.31667 -1.05,-0.45c-2.03333,0.3 -4.05,0.61667 -6.05,0.95l-3.35,10.9l0.6,2.1l-3.25,2.8c-7.63333,0.33333 -15.26667,0.91667 -22.9,1.75c-4.63333,0.23333 -8.01667,-1.33333 -10.15,-4.7c0,-1.1 0.15,-2.2 0.45,-3.3c5.33333,-19.43333 12.96667,-38.08333 22.9,-55.95c0.8,-1.43333 1.38333,-2.91667 1.75,-4.45c0.3,-1.33333 0.98333,-2.38333 2.05,-3.15c9.8,-6.86667 20.95,-9.95 33.45,-9.25l12.15,24.25M814.54234,330.49279l-6.5,9.45l10.9,-0.4l-4.4,-9.05M924.74234,347.49279c-7.1,10.7 -16.43333,18.03333 -28,22c1.7,5.46667 3.21667,11.01667 4.55,16.65c1.16667,4.76667 2.3,9.53333 3.4,14.3c1.36667,5.93333 0.11667,10.58333 -3.75,13.95c-9.8,-0.36667 -19.6,-0.71667 -29.4,-1.05c-0.8,-0.2 -1.55,-0.46667 -2.25,-0.8c-2.06667,-1.03333 -3.18333,-2.75 -3.35,-5.15c-1.03333,-15.33333 0.01667,-30.58333 3.15,-45.75c-10.5,-14.16667 -17.71667,-29.68333 -21.65,-46.55c-0.2,-0.9 -0.15,-1.7 0.15,-2.4c4.1,-8.73333 11.13333,-13.5 21.1,-14.3c2.63333,0.2 4.46667,1.46667 5.5,3.8c2.36667,5.26667 4.35,10.75 5.95,16.45c2,7.26667 4.98333,13.38333 8.95,18.35c2.8,-4.03333 5.31667,-8.11667 7.55,-12.25c4.73333,-8.8 10.96667,-16.03333 18.7,-21.7l12.5,11.25l8,11.55c-0.13333,1.93333 -0.66667,3.76667 -1.6,5.5c-2.93333,5.6 -6.1,10.98333 -9.5,16.15z" fill="#ffffff"/></g></g></svg>