<svg version="1.1" xmlns="http://www.w3.org/2000/svg" xmlns:xlink="http://www.w3.org/1999/xlink" width="136.63409" height="87.81048" viewBox="0,0,136.63409,87.81048"><g transform="translate(-575.97683,-320.37512)"><g data-paper-data="{&quot;isPaintingLayer&quot;:true}" fill-rule="nonzero" stroke="none" stroke-width="1" stroke-linecap="butt" stroke-linejoin="miter" stroke-miterlimit="10" stroke-dasharray="" stroke-dashoffset="0" style="mix-blend-mode: normal"><path d="M680.42683,330.83438c2.16667,-1.66667 4.7,-2.26667 7.6,-1.8c2.73333,0.4 5.08333,1.6 7.05,3.6c6.3,5.9 11.71667,13.81667 16.25,23.75c0.6,1.4 0.96667,2.38333 1.1,2.95c0.3,1.16667 0.23333,2.18333 -0.2,3.05c-0.66667,0.53333 -1.51667,0.78333 -2.55,0.75c-1.2,-0.16667 -2.1,-0.3 -2.7,-0.4c-5.16667,-0.86667 -11.13333,-1.58333 -17.9,-2.15c5.06667,5.56667 8.26667,11.1 9.6,16.6c1.44388,6.14362 1.79388,12.22695 1.05,18.25h-0.15c0.00977,0.06523 0.00977,0.1319 0,0.2c-0.36667,1.7 -1.25,2.75 -2.65,3.15c-0.7,-0.13333 -1.38333,-0.53333 -2.05,-1.2c-0.11719,-0.13945 -0.23385,-0.27279 -0.35,-0.4h-0.2c-4.53529,-6.01406 -10.86862,-12.4474 -19,-19.3l-0.25,5.75c1.73333,1.2 2.95,2.31667 3.65,3.35c1.06667,1.53333 1.25,3.08333 0.55,4.65c-0.86667,1.33333 -2.25,2.5 -4.15,3.5c-2.26667,1.06667 -3.95,1.85 -5.05,2.35c0.06667,0.73333 0.18333,1.83333 0.35,3.3c0.1,1.26667 0.01667,2.36667 -0.25,3.3c-0.43333,1.23333 -1.31667,2.21667 -2.65,2.95c-1.1,0.63333 -2.4,1.01667 -3.9,1.15c-2.63333,0.03333 -6.6,-0.61667 -11.9,-1.95c-5.16667,-1.3 -9.15,-1.88333 -11.95,-1.75c-1.43333,0.03333 -3.61667,0.26667 -6.55,0.7c-2.86667,0.46667 -5.05,0.7 -6.55,0.7c-1.06667,0 -2.05,-0.21667 -2.95,-0.65c-1,-0.46667 -1.76667,-1.13333 -2.3,-2c-0.4,-1 -0.46667,-2.16667 -0.2,-3.5c0.06667,-0.23333 0.4,-1.38333 1,-3.45c-1.36667,-0.36667 -2.91667,-1 -4.65,-1.9c-1.96667,-1.1 -3.45,-1.91667 -4.45,-2.45c-0.93333,1.6 -1.86667,2.73333 -2.8,3.4c-1.4,1 -2.68333,0.88333 -3.85,-0.35c-0.73333,-2.53333 -1.36667,-6.15 -1.9,-10.85c-0.63333,-5.16667 -1.18333,-8.8 -1.65,-10.9c-4.1,1.86667 -7.68333,3.2 -10.75,4c-4.1,1.06667 -7.9,1.4 -11.4,1c-0.93333,-0.03333 -1.83333,-0.38333 -2.7,-1.05c-0.56667,-0.43333 -1.26667,-1.13333 -2.1,-2.1c2,-2.63333 3.96667,-4.31667 5.9,-5.05c8.63333,-3.6 16.55,-5.53333 23.75,-5.8c-1.63333,-6.16667 -2.8,-10.8 -3.5,-13.9c-1.26667,-5.46667 -1.76667,-10.18333 -1.5,-14.15c0.26667,-2.46667 1.61667,-4.55 4.05,-6.25c1.43333,-1 3.76667,-2.1 7,-3.3c14,-4.33333 28.7,-6.41667 44.1,-6.25l11.55,0.25c4.43333,0.36667 8.1,1.4 11,3.1l0.05,8.45l2.05,-1.35M674.52683,326.33438c-2.9,-0.63333 -6.33333,-1 -10.3,-1.1c-4.63333,0.03333 -8.1,0.05 -10.4,0.05c-11.23333,0.06667 -21.61667,1.21667 -31.15,3.45c-0.23333,8.46667 0.68333,19.18333 2.75,32.15l3.05,0.35c-0.26667,-1.16667 -0.41667,-2.05 -0.45,-2.65c-0.06667,-1.06667 0.3,-1.78333 1.1,-2.15c1.1,-0.5 2.18333,-0.2 3.25,0.9c0.6,0.6 1.43333,1.56667 2.5,2.9c0.06667,0 2.73333,0.05 8,0.15c2.4,-3.16667 4.6,-5.3 6.6,-6.4c0,2.2 -0.38333,4.35 -1.15,6.45l5.7,0.15c3.93333,-8.03333 10.43333,-16.33333 19.5,-24.9c1.16667,-0.93333 1.68333,-2.4 1.55,-4.4c-0.36667,-2.26667 -0.55,-3.91667 -0.55,-4.95M680.17683,335.38438c-2.4,1.7 -4.98333,3.93333 -7.75,6.7c-0.2,0.16667 -2.56667,2.65 -7.1,7.45c-2.06667,2.16667 -3.58333,3.81667 -4.55,4.95c-1.73333,1.96667 -3.05,3.78333 -3.95,5.45c1.96667,0.13333 4.16667,0.96667 6.6,2.5c3.76667,2.43333 5.78333,3.71667 6.05,3.85c1.9,-0.7 3.76667,-1.3 5.6,-1.8c-0.46667,1 -1.18333,2.51667 -2.15,4.55c6.43893,5.48737 13.43893,11.9707 21,19.45v0c0.36667,0.4 0.73333,0.8 1.1,1.2c0,-0.04961 0,-0.09961 0,-0.15c0,-0.34961 0,-0.69961 0,-1.05h0.05c-0.11927,-4.76276 -0.71927,-8.79609 -1.8,-12.1c-2,-5.83333 -6.13333,-11.38333 -12.4,-16.65c-0.86667,-0.63333 -1,-1.48333 -0.4,-2.55c0.56667,-1.06667 1.35,-1.55 2.35,-1.45c3.46667,-0.16667 7.51667,0.01667 12.15,0.55c2.7,0.3 6.73333,0.85 12.1,1.65c-3.7,-7.4 -7.26667,-13.21667 -10.7,-17.45c-1.6,-1.96667 -2.78333,-3.31667 -3.55,-4.05c-1.43333,-1.4 -2.88333,-2.41667 -4.35,-3.05c-1.3,-0.53333 -2.75,-0.55 -4.35,-0.05c-1.06667,0.36667 -2.38333,1.05 -3.95,2.05M668.67683,372.08438c-1.53333,1.1 -3.03333,2.25 -4.5,3.45c1.06667,2.2 1.81667,4 2.25,5.4c0.6,2.06667 0.8,4 0.6,5.8c-1.36667,-0.7 -2.61667,-1.86667 -3.75,-3.5c-1.23333,-2 -2.15,-3.48333 -2.75,-4.45l-3.9,1.8h-2.4c-0.9,-1.4 -0.85,-2.7 0.15,-3.9c0.26667,-0.3 1.38333,-1.2 3.35,-2.7c-0.43333,-1.16667 -1.21667,-2.76667 -2.35,-4.8c-1.13333,-2.1 -1.91667,-3.68333 -2.35,-4.75l-7.5,0.1l-2.45,4.4c2.36667,2.83333 3.68333,4.43333 3.95,4.8c1.43333,1.86667 2.4,3.66667 2.9,5.4c-1.6,-0.3 -3.33333,-1.18333 -5.2,-2.65c-1.96667,-1.73333 -3.5,-2.95 -4.6,-3.65c-1.23333,1.8 -2.16667,3.15 -2.8,4.05c-1.13333,1.6 -2.26667,2.78333 -3.4,3.55c-5.93333,-0.53333 -10.46667,-1.2 -13.6,-2c-2,3.56667 -3.66667,6.76667 -5,9.6c4.26667,1.23333 8.73333,2.93333 13.4,5.1c0,1.06667 -0.75,2.58333 -2.25,4.55c-1.4,1.8 -1.91667,3.43333 -1.55,4.9c1.83333,0.1 5,-0.23333 9.5,-1c4,-0.66667 7.16667,-0.8 9.5,-0.4c0.06667,0 3.73333,0.76667 11,2.3c4.4,0.93333 8.11667,1.23333 11.15,0.9c0.4,-0.93333 0.7,-1.65 0.9,-2.15c0.3,-0.86667 0.25,-1.58333 -0.15,-2.15l-1.35,-2.8c-0.53333,-1.13333 -0.55,-2.08333 -0.05,-2.85c1.16667,-0.43333 2.91667,-1.08333 5.25,-1.95c2,-0.8 3.65,-1.68333 4.95,-2.65c-0.06667,-0.06667 -0.96667,-0.81667 -2.7,-2.25c-1.1,-0.93333 -1.91667,-1.78333 -2.45,-2.55c0.03333,-1.4 0.21667,-3.08333 0.55,-5.05c0.46667,-2.23333 0.8,-3.9 1,-5l-3.35,-2.9M663.72683,370.08438c0.66667,-0.43333 0.83333,-0.95 0.5,-1.55c-0.76667,-0.76667 -1.75,-1.56667 -2.95,-2.4c-0.3,-0.2 -1.35,-0.88333 -3.15,-2.05c1.56667,2.96667 2.88333,5.31667 3.95,7.05c0.23333,-0.26667 0.78333,-0.61667 1.65,-1.05M605.62683,336.48438c-0.2,3.86667 0.26667,8.3 1.4,13.3c0.06667,0.26667 1.25,4.58333 3.55,12.95c2.53333,-0.2 6.31667,-0.55 11.35,-1.05c-2.13333,-8.56667 -3.23333,-19.16667 -3.3,-31.8c-4.33333,1.13333 -6.78333,1.81667 -7.35,2.05c-2.76667,1.06667 -4.65,2.58333 -5.65,4.55M633.92683,373.33438c0.63333,-0.96667 1.55,-2.4 2.75,-4.3l-3.7,-3.85l-9.55,0.85c0.76667,1.2 1.91667,2.98333 3.45,5.35c1.33333,2.1 2.51667,3.86667 3.55,5.3c1.2,-0.5 2.36667,-1.61667 3.5,-3.35M613.17683,367.48438c-2.86667,0.53333 -5.16667,0.55 -6.9,0.05c1.63333,6.76667 2.81667,13.5 3.55,20.2c0.7,-1.33333 1.96667,-3.58333 3.8,-6.75c1.66667,-2.83333 2.91667,-5.08333 3.75,-6.75c2.66667,0.06667 5.25,0.41667 7.75,1.05c-2.06667,-3.96667 -3.75,-6.88333 -5.05,-8.75c-1.1,-0.03333 -3.4,0.28333 -6.9,0.95M581.47683,374.43438c6.66667,0.6 13.81667,-1.48333 21.45,-6.25c-6.63333,0.4 -13.78333,2.48333 -21.45,6.25M663.77683,401.33438c-0.96667,0.76667 -1.91667,1.4 -2.85,1.9c-1.6,-0.1 -3.55,-0.43333 -5.85,-1c-2.56667,-0.7 -4.5,-1.2 -5.8,-1.5c-2.03333,-0.43333 -5.21667,-0.61667 -9.55,-0.55c-4.23333,0.06667 -7.41667,-0.16667 -9.55,-0.7c-0.4,-2.1 -0.11667,-4.06667 0.85,-5.9c1,-1.93333 2.51667,-3.15 4.55,-3.65l-1.2,3.7c5.1,-2.66667 10.55,-3.33333 16.35,-2c6.13333,1.43333 10.48333,4.66667 13.05,9.7M660.87683,400.78438c-3.06667,-4.03333 -7.36667,-6.36667 -12.9,-7c-5.46667,-0.6 -10.23333,0.65 -14.3,3.75c1.8,0.03333 4.5,0.01667 8.1,-0.05c3.2,0.03333 5.9,0.25 8.1,0.65c1.53333,0.23333 3.38333,0.63333 5.55,1.2c1.2,0.33333 3.01667,0.81667 5.45,1.45z" data-paper-data="{&quot;index&quot;:null}" fill="#000000"/><path d="M581.47683,374.43438c7.66667,-3.76667 14.81667,-5.85 21.45,-6.25c-7.63333,4.76667 -14.78333,6.85 -21.45,6.25z" data-paper-data="{&quot;index&quot;:null}" fill="#30afd0"/><path d="M620.07683,366.53438c1.3,1.86667 2.98333,4.78333 5.05,8.75c-2.5,-0.63333 -5.08333,-0.98333 -7.75,-1.05c-0.83333,1.66667 -2.08333,3.91667 -3.75,6.75c-1.83333,3.16667 -3.1,5.41667 -3.8,6.75c-0.73333,-6.7 -1.91667,-13.43333 -3.55,-20.2c1.73333,0.5 4.03333,0.48333 6.9,-0.05c3.5,-0.66667 5.8,-0.98333 6.9,-0.95M630.42683,376.68438c-1.03333,-1.43333 -2.21667,-3.2 -3.55,-5.3c-1.53333,-2.36667 -2.68333,-4.15 -3.45,-5.35l9.55,-0.85l3.7,3.85c-1.2,1.9 -2.11667,3.33333 -2.75,4.3c-1.13333,1.73333 -2.3,2.85 -3.5,3.35M611.27683,331.93438c0.56667,-0.23333 3.01667,-0.91667 7.35,-2.05c0.06667,12.63333 1.16667,23.23333 3.3,31.8c-5.03333,0.5 -8.81667,0.85 -11.35,1.05c-2.3,-8.36667 -3.48333,-12.68333 -3.55,-12.95c-1.13333,-5 -1.6,-9.43333 -1.4,-13.3c1,-1.96667 2.88333,-3.48333 5.65,-4.55M662.07683,371.13438c-1.06667,-1.73333 -2.38333,-4.08333 -3.95,-7.05c1.8,1.16667 2.85,1.85 3.15,2.05c1.2,0.83333 2.18333,1.63333 2.95,2.4c0.33333,0.6 0.16667,1.11667 -0.5,1.55c-0.86667,0.43333 -1.41667,0.78333 -1.65,1.05M672.02683,374.98438c-0.2,1.1 -0.53333,2.76667 -1,5c-0.33333,1.96667 -0.51667,3.65 -0.55,5.05c0.53333,0.76667 1.35,1.61667 2.45,2.55c1.73333,1.43333 2.63333,2.18333 2.7,2.25c-1.3,0.96667 -2.95,1.85 -4.95,2.65c-2.33333,0.86667 -4.08333,1.51667 -5.25,1.95c-0.5,0.76667 -0.48333,1.71667 0.05,2.85l1.35,2.8c0.4,0.56667 0.45,1.28333 0.15,2.15c-0.2,0.5 -0.5,1.21667 -0.9,2.15c-3.03333,0.33333 -6.75,0.03333 -11.15,-0.9c-7.26667,-1.53333 -10.93333,-2.3 -11,-2.3c-2.33333,-0.4 -5.5,-0.26667 -9.5,0.4c-4.5,0.76667 -7.66667,1.1 -9.5,1c-0.36667,-1.46667 0.15,-3.1 1.55,-4.9c1.5,-1.96667 2.25,-3.48333 2.25,-4.55c-4.66667,-2.16667 -9.13333,-3.86667 -13.4,-5.1c1.33333,-2.83333 3,-6.03333 5,-9.6c3.13333,0.8 7.66667,1.46667 13.6,2c1.13333,-0.76667 2.26667,-1.95 3.4,-3.55c0.63333,-0.9 1.56667,-2.25 2.8,-4.05c1.1,0.7 2.63333,1.91667 4.6,3.65c1.86667,1.46667 3.6,2.35 5.2,2.65c-0.5,-1.73333 -1.46667,-3.53333 -2.9,-5.4c-0.26667,-0.36667 -1.58333,-1.96667 -3.95,-4.8l2.45,-4.4l7.5,-0.1c0.43333,1.06667 1.21667,2.65 2.35,4.75c1.13333,2.03333 1.91667,3.63333 2.35,4.8c-1.96667,1.5 -3.08333,2.4 -3.35,2.7c-1,1.2 -1.05,2.5 -0.15,3.9h2.4l3.9,-1.8c0.6,0.96667 1.51667,2.45 2.75,4.45c1.13333,1.63333 2.38333,2.8 3.75,3.5c0.2,-1.8 0,-3.73333 -0.6,-5.8c-0.43333,-1.4 -1.18333,-3.2 -2.25,-5.4c1.46667,-1.2 2.96667,-2.35 4.5,-3.45l3.35,2.9M650.72683,391.63438c-5.8,-1.33333 -11.25,-0.66667 -16.35,2l1.2,-3.7c-2.03333,0.5 -3.55,1.71667 -4.55,3.65c-0.96667,1.83333 -1.25,3.8 -0.85,5.9c2.13333,0.53333 5.31667,0.76667 9.55,0.7c4.33333,-0.06667 7.51667,0.11667 9.55,0.55c1.3,0.3 3.23333,0.8 5.8,1.5c2.3,0.56667 4.25,0.9 5.85,1c0.93333,-0.5 1.88333,-1.13333 2.85,-1.9c-2.56667,-5.03333 -6.91667,-8.26667 -13.05,-9.7M684.12683,333.33438c1.6,-0.5 3.05,-0.48333 4.35,0.05c1.46667,0.63333 2.91667,1.65 4.35,3.05c0.76667,0.73333 1.95,2.08333 3.55,4.05c3.43333,4.23333 7,10.05 10.7,17.45c-5.36667,-0.8 -9.4,-1.35 -12.1,-1.65c-4.63333,-0.53333 -8.68333,-0.71667 -12.15,-0.55c-1,-0.1 -1.78333,0.38333 -2.35,1.45c-0.6,1.06667 -0.46667,1.91667 0.4,2.55c6.26667,5.26667 10.4,10.81667 12.4,16.65c1.08073,3.30391 1.68073,7.33724 1.8,12.1h-0.05c0,0.35039 0,0.70039 0,1.05c0,0.05039 0,0.10039 0,0.15c-0.36667,-0.4 -0.73333,-0.8 -1.1,-1.2v0c-7.56107,-7.4793 -14.56107,-13.96263 -21,-19.45c0.96667,-2.03333 1.68333,-3.55 2.15,-4.55c-1.83333,0.5 -3.7,1.1 -5.6,1.8c-0.26667,-0.13333 -2.28333,-1.41667 -6.05,-3.85c-2.43333,-1.53333 -4.63333,-2.36667 -6.6,-2.5c0.9,-1.66667 2.21667,-3.48333 3.95,-5.45c0.96667,-1.13333 2.48333,-2.78333 4.55,-4.95c4.53333,-4.8 6.9,-7.28333 7.1,-7.45c2.76667,-2.76667 5.35,-5 7.75,-6.7c1.56667,-1 2.88333,-1.68333 3.95,-2.05M673.52683,335.68438c-9.06667,8.56667 -15.56667,16.86667 -19.5,24.9l-5.7,-0.15c0.76667,-2.1 1.15,-4.25 1.15,-6.45c-2,1.1 -4.2,3.23333 -6.6,6.4c-5.26667,-0.1 -7.93333,-0.15 -8,-0.15c-1.06667,-1.33333 -1.9,-2.3 -2.5,-2.9c-1.06667,-1.1 -2.15,-1.4 -3.25,-0.9c-0.8,0.36667 -1.16667,1.08333 -1.1,2.15c0.03333,0.6 0.18333,1.48333 0.45,2.65l-3.05,-0.35c-2.06667,-12.96667 -2.98333,-23.68333 -2.75,-32.15c9.53333,-2.23333 19.91667,-3.38333 31.15,-3.45c2.3,0 5.76667,-0.01667 10.4,-0.05c3.96667,0.1 7.4,0.46667 10.3,1.1c0,1.03333 0.18333,2.68333 0.55,4.95c0.13333,2 -0.38333,3.46667 -1.55,4.4z" data-paper-data="{&quot;index&quot;:null}" fill="#31b0d1"/><path d="M641.77683,397.48438c-3.6,0.06667 -6.3,0.08333 -8.1,0.05c4.06667,-3.1 8.83333,-4.35 14.3,-3.75c5.53333,0.63333 9.83333,2.96667 12.9,7c-2.43333,-0.63333 -4.25,-1.11667 -5.45,-1.45c-2.16667,-0.56667 -4.01667,-0.96667 -5.55,-1.2c-2.2,-0.4 -4.9,-0.61667 -8.1,-0.65z" data-paper-data="{&quot;index&quot;:null}" fill="#e1e1e1"/></g></g></svg>