<svg version="1.1" xmlns="http://www.w3.org/2000/svg" xmlns:xlink="http://www.w3.org/1999/xlink" width="424.74169" height="554.12788" viewBox="0,0,424.74169,554.12788"><g transform="translate(-432.82558,-165.88065)"><g data-paper-data="{&quot;isPaintingLayer&quot;:true}" fill-rule="nonzero" stroke="none" stroke-width="1" stroke-linecap="butt" stroke-linejoin="miter" stroke-miterlimit="10" stroke-dasharray="" stroke-dashoffset="0" style="mix-blend-mode: normal"><path d="M533.66042,456.90806c1.18056,-6.43434 3.35469,-11.72973 6.52239,-15.88617c2.10457,-2.71588 4.1165,-5.49435 6.03579,-8.3354c6.31163,-9.15647 13.05178,-17.73563 20.22045,-25.73745c0.00867,-0.0661 0.00082,-0.13437 -0.02355,-0.2048c-2.28651,-5.37648 -3.56359,-11.52819 -3.83122,-18.45514c1.6483,-1.80081 3.45452,-3.396 5.41867,-4.78557c8.60429,-6.1325 18.37144,-10.75084 29.30144,-13.85503c2.67701,0.3513 4.89536,0.99541 6.65506,1.93232c10.27374,5.48331 19.13329,12.00812 26.57865,19.57442c-0.59879,1.23255 -1.15533,2.65555 -1.66963,4.26899c-3.83638,12.06994 -7.81714,24.08731 -11.94229,36.05211c-1.81772,-0.23854 -3.63844,-0.32618 -5.46215,-0.26294c-4.22661,0.18496 -8.70026,0.20302 -13.42096,0.05419c-5.5084,5.59745 -10.69311,11.67442 -15.55413,18.2309c-6.49527,8.76257 -12.50677,18.19376 -18.03449,28.29358c-0.09915,-0.01301 -0.16742,-0.00516 -0.2048,0.02355c-4.95446,2.91341 -11.83483,3.33844 -20.6411,1.2751c0.00867,-0.0661 -0.00135,-0.11784 -0.03006,-0.15523c-4.98537,-3.51181 -8.66872,-7.97899 -11.05004,-13.40152c0.16871,-2.5665 0.54603,-5.44181 1.13197,-8.62592z" fill-opacity="0.99608" fill="#000000"/><path d="M576.31701,479.85915c-2.96834,14.89465 -8.07812,26.38296 -15.32933,34.46492c-5.42803,6.03406 -11.72215,10.73879 -18.88235,14.1142c-7.00945,3.35359 -15.65899,4.02039 -25.94863,2.0004c-5.95828,-1.17359 -10.98423,-3.42595 -15.07785,-6.75708c-8.13666,-6.58075 -13.66705,-15.86683 -16.59118,-27.85824c-1.43879,-5.93615 -2.38334,-12.46571 -2.83366,-19.58869c-0.42097,-7.11982 -0.06998,-15.06943 1.05298,-23.84881c1.30105,-7.12471 3.11202,-14.0234 5.43293,-20.69607c2.15498,-6.2341 4.83457,-11.68908 8.03877,-16.36495c6.47112,-9.38302 15.21471,-15.06034 26.23075,-17.03195c4.17452,-0.72992 8.81345,-0.53506 13.91679,0.58457c8.7811,1.97178 16.01423,5.64071 21.69938,11.00681c7.54377,7.12552 13.11969,16.26436 16.72776,27.41651c1.84855,5.71399 2.96611,12.01494 3.35268,18.90285c0.44425,7.73089 -0.1521,15.61606 -1.78904,23.65551z" fill-opacity="0.99608" fill="#000000"/><path d="M543.65324,417.61234c1.45017,0.70543 2.66289,1.54623 3.63816,2.52241c3.1102,3.055 6.05355,6.2215 8.83006,9.4995c6.85593,8.08224 11.48012,17.82401 13.87257,29.22529c-0.14622,1.05649 -0.29473,2.1295 -0.44553,3.21901c-0.01371,0.09905 -0.02513,0.18158 -0.03427,0.24762c-3.65887,4.06971 -7.62837,7.70947 -11.90848,10.91929c-0.0706,0.02388 -0.13892,0.03125 -0.20495,0.02211c0.8791,7.01949 0.58873,14.46595 -0.87112,22.33939c-0.56616,3.11819 -1.87369,5.39352 -3.92259,6.82598c-4.43148,3.08793 -10.23345,4.28696 -17.40592,3.59708c-2.52745,-0.21522 -4.62776,-0.84239 -6.30093,-1.88152c-2.45261,2.89074 -5.29382,5.3071 -8.52361,7.24909c-0.03758,0.02845 -0.06095,0.07568 -0.07009,0.14172c-0.94337,6.32983 -2.31978,12.26324 -4.12921,17.80024c-0.66933,2.16177 -1.85245,3.78136 -3.54937,4.85876c-5.5748,3.569 -12.39156,5.53607 -20.4503,5.9012c-3.15269,0.16931 -6.3742,0.22816 -9.66455,0.17653c-7.31617,-0.13775 -14.29717,-1.23854 -20.94299,-3.30239c-5.22513,-1.63168 -9.71963,-3.80154 -13.48351,-6.50959c-3.3621,-2.45056 -5.47881,-5.755 -6.35013,-9.91335c-0.17833,-0.89953 -0.23271,-1.47907 -0.16314,-1.73862c0.06603,0.00914 0.13435,0.00177 0.20495,-0.02211c2.05552,-0.99413 4.13949,-1.95067 6.2519,-2.86962c-0.01371,0.09905 -0.04164,0.1793 -0.08379,0.24076c-0.48803,1.5812 -0.59461,3.0806 -0.31974,4.49821c4.05612,5.94505 10.84629,9.76173 20.3705,11.45006c11.32635,2.03869 21.32032,2.27788 29.98189,0.71756c0.86194,-0.14989 1.62992,-0.22866 2.30394,-0.23631c3.49758,0.01301 6.05239,-1.06343 7.66442,-3.22931c1.72022,-2.21821 3.11789,-4.90166 4.19299,-8.05035c1.13097,-3.3092 1.5902,-6.62725 1.3777,-9.95416c-1.91638,0.47502 -3.69738,1.18748 -5.34301,2.1374c-2.59542,1.49141 -5.53425,2.06046 -8.81648,1.70712c3.82053,-1.59104 7.52728,-3.33241 11.12024,-5.22413c2.10681,-1.12162 4.09756,-2.37707 5.97224,-3.76635c1.72434,-1.2755 3.44639,-2.53449 5.16616,-3.77697c4.64225,-3.39524 6.56039,-8.86672 5.7544,-16.41446c-0.09905,-0.01371 -0.18158,-0.02513 -0.24762,-0.03427c-3.07603,-0.62763 -5.76554,-1.25222 -8.06851,-1.8738c0.06603,0.00914 0.14857,0.02056 0.24762,0.03427c5.19199,-0.56002 9.9004,-1.75899 14.12522,-3.5969c0.00914,-0.06603 0.03479,-0.12978 0.07694,-0.19124c3.41805,-5.24707 5.89738,-11.73443 7.438,-19.4621c0.00914,-0.06603 0.02056,-0.14857 0.03427,-0.24762c0.10967,-0.79237 0.50836,-1.24191 1.19609,-1.34861c-0.01371,0.09905 -0.02513,0.18158 -0.03427,0.24762c1.06781,2.73868 1.50862,5.99624 1.32242,9.77268c-0.08876,2.34307 -0.4165,4.46799 -0.98324,6.37478c-0.8039,2.64786 -1.2251,4.96174 -1.26359,6.94164c-0.01371,0.09905 -0.04164,0.1793 -0.08379,0.24076c-1.06094,2.07392 -2.80687,3.26231 -5.23779,3.56517c-0.01371,0.09905 -0.03936,0.16279 -0.07694,0.19124c-0.60136,0.45514 -1.16233,0.98316 -1.68292,1.58406c-0.01371,0.09905 -0.02513,0.18158 -0.03427,0.24762c-0.0755,3.21975 -0.40422,6.20256 -0.98615,8.94844c-0.01371,0.09905 -0.00634,0.16736 0.02211,0.20495c0.98087,1.17884 2.26242,2.13012 3.84465,2.85382c1.78078,-0.2246 3.57069,-0.51524 5.36974,-0.8719c5.21838,-0.99379 8.31068,-4.73814 9.2769,-11.23304c0.30719,-1.97636 0.27331,-3.79803 -0.10163,-5.46502c-0.99071,-4.51134 -0.74768,-9.30618 0.72909,-14.3845c0.82127,-0.82847 1.73016,-1.5607 2.72668,-2.19668c2.76404,-1.73726 5.4854,-3.5309 8.1641,-5.38091c0.00914,-0.06603 0.02056,-0.14857 0.03427,-0.24762c0.06751,-0.73091 0.17033,-1.47376 0.30844,-2.22854c-3.102,-10.89382 -8.14191,-20.30617 -15.11973,-28.23705c-2.50119,-2.83612 -4.9272,-5.72913 -7.27805,-8.67903c0.76232,-1.375 1.59119,-2.62302 2.4866,-3.74406c0.03758,-0.02845 0.06323,-0.09219 0.07694,-0.19124z" fill-opacity="0.99608" fill="#2b2c3f"/><path d="M448.1634,376.38421c0.00914,-0.06603 0.03707,-0.14628 0.08379,-0.24076c0.47181,-0.97778 0.76889,-2.03022 0.89123,-3.15732c1.63283,-2.80232 3.11657,-5.74304 4.45123,-8.82216c2.33311,-5.43087 5.44391,-9.79515 9.33241,-13.09282c8.10155,-6.75231 18.21083,-10.87139 30.32783,-12.35724c2.17799,0.06591 4.42938,0.20927 6.75417,0.43009c7.37512,0.68427 13.54524,2.29533 18.51036,4.83316c10.43563,5.31385 18.0877,12.74921 22.95619,22.30607c4.87306,9.52385 7.03773,21.11231 6.49399,34.76539c-1.01957,6.15104 -2.50622,11.66542 -4.45994,16.54314l0.14857,0.02056c-0.01371,0.09905 -0.03936,0.16279 -0.07694,0.19124c-0.89541,1.12104 -1.72428,2.36906 -2.4866,3.74406c2.35085,2.9499 4.77686,5.84291 7.27805,8.67903c6.97782,7.93088 12.01773,17.34323 15.11973,28.23705c-0.13811,0.75479 -0.24093,1.49763 -0.30844,2.22854c-0.01371,0.09905 -0.02513,0.18158 -0.03427,0.24762c-2.6787,1.85002 -5.40007,3.64365 -8.1641,5.38091c-0.99652,0.63598 -1.90541,1.3682 -2.72668,2.19668c-1.47677,5.07833 -1.7198,9.87316 -0.72909,14.3845c0.37494,1.66699 0.40882,3.48867 0.10163,5.46502c-0.96622,6.4949 -4.05852,10.23925 -9.2769,11.23304c-1.79905,0.35666 -3.58897,0.6473 -5.36974,0.8719c-1.58223,-0.72371 -2.86378,-1.67498 -3.84465,-2.85382c-0.02845,-0.03758 -0.03581,-0.1059 -0.02211,-0.20495c0.58193,-2.74588 0.91065,-5.72869 0.98615,-8.94844c0.00914,-0.06603 0.02056,-0.14857 0.03427,-0.24762c0.52059,-0.60091 1.08157,-1.12893 1.68292,-1.58406c0.03758,-0.02845 0.06323,-0.09219 0.07694,-0.19124c2.43092,-0.30286 4.17685,-1.49125 5.23779,-3.56517c0.04215,-0.06146 0.07009,-0.14172 0.08379,-0.24076c0.03849,-1.9799 0.45969,-4.29378 1.26359,-6.94164c0.56674,-1.90679 0.89449,-4.03171 0.98324,-6.37478c0.1862,-3.77644 -0.25461,-7.034 -1.32242,-9.77268c0.00914,-0.06603 0.02056,-0.14857 0.03427,-0.24762c-0.68773,0.1067 -1.08642,0.55624 -1.19609,1.34861c-0.01371,0.09905 -0.02513,0.18158 -0.03427,0.24762c-1.54062,7.72767 -4.01995,14.21504 -7.438,19.4621c-0.04215,0.06146 -0.0678,0.12521 -0.07694,0.19124c-4.22483,1.83791 -8.93323,3.03688 -14.12522,3.5969c-0.09905,-0.01371 -0.18158,-0.02513 -0.24762,-0.03427c2.30297,0.62157 4.99247,1.24617 8.06851,1.8738c0.06603,0.00914 0.14857,0.02056 0.24762,0.03427c0.80599,7.54774 -1.11214,13.01922 -5.7544,16.41446c-1.71977,1.24248 -3.44182,2.50147 -5.16616,3.77697c-1.87468,1.38928 -3.86542,2.64473 -5.97224,3.76635c-3.59296,1.89172 -7.29971,3.63309 -11.12024,5.22413c3.28224,0.35333 6.22107,-0.21571 8.81648,-1.70712c1.64563,-0.94991 3.42663,-1.66238 5.34301,-2.1374c0.2125,3.3269 -0.24674,6.64496 -1.3777,9.95416c-1.0751,3.14869 -2.47277,5.83214 -4.19299,8.05035c-1.61204,2.16589 -4.16684,3.24232 -7.66442,3.22931c-0.67402,0.00766 -1.442,0.08643 -2.30394,0.23631c-8.66157,1.56032 -18.65554,1.32114 -29.98189,-0.71756c-9.52421,-1.68832 -16.31438,-5.50501 -20.3705,-11.45006c-0.27487,-1.41761 -0.16829,-2.91701 0.31974,-4.49821c0.04215,-0.06146 0.07009,-0.14172 0.08379,-0.24076c-2.11241,0.91896 -4.19638,1.8755 -6.2519,2.86962c-0.0706,0.02388 -0.13892,0.03125 -0.20495,0.02211c0.00914,-0.06603 0.02056,-0.14857 0.03427,-0.24762c0.24857,-5.68574 1.13077,-11.45202 2.6466,-17.29884c-2.77605,-4.25373 -5.11759,-8.85109 -7.02462,-13.79209c-0.02845,-0.03758 -0.07568,-0.06095 -0.14172,-0.07009c1.71483,-7.77085 4.01281,-14.77122 6.89393,-21.00109c0.04215,-0.06146 0.07009,-0.14172 0.08379,-0.24076c-3.06442,-10.92227 -6.35206,-21.69037 -9.86292,-32.30431c-0.96523,-2.99366 -1.42305,-6.37134 -1.37349,-10.13305c0.01268,-0.33472 0.04187,-0.66716 0.08756,-0.99732c5.34859,-6.79685 11.86575,-12.06923 19.55148,-15.81714c0.03302,0.00457 0.05638,-0.04267 0.07009,-0.14172c-2.72191,-8.04844 -4.25762,-17.00944 -4.60711,-26.883c0.00914,-0.06603 0.02056,-0.14857 0.03427,-0.24762c-0.47547,-0.94065 -0.43743,-1.94482 0.11412,-3.01252c0.04215,-0.06146 0.07009,-0.14172 0.08379,-0.24076M454.66996,376.78004c-0.01371,0.09905 -0.02513,0.18158 -0.03427,0.24762c0.7524,2.82961 1.7656,5.47661 3.03962,7.941c-0.00457,0.03302 0.04267,0.05638 0.14172,0.07009c0.10876,1.15908 0.37015,2.18787 0.78416,3.08637c0.67105,1.47244 1.25162,1.65374 1.74171,0.54389c0.00914,-0.06603 0.02056,-0.14857 0.03427,-0.24762c2.27622,-5.50604 4.7635,-10.71369 7.46183,-15.62295c-2.42453,-3.63306 -4.24542,-7.73776 -5.46267,-12.31411c-0.02845,-0.03758 -0.07568,-0.06095 -0.14172,-0.07009c-3.90575,3.66541 -6.4273,9.12068 -7.56465,16.3658M483.2041,347.11507c-0.0706,0.02388 -0.13892,0.03125 -0.20495,0.02211c0.98602,2.35723 1.99082,4.70024 3.01442,7.02902c0.02388,0.0706 0.03125,0.13892 0.02211,0.20495c4.35026,-2.25797 9.04416,-4.08143 14.08169,-5.47038c0.03302,0.00457 0.05638,-0.04267 0.07009,-0.14172c-3.95123,-1.35442 -8.53912,-2.24176 -13.76367,-2.66204c-0.09905,-0.01371 -0.18158,-0.02513 -0.24762,-0.03427c-1.02142,0.3297 -2.01211,0.68048 -2.97207,1.05233M479.18673,348.4265c-0.02845,-0.03758 -0.07568,-0.06095 -0.14172,-0.07009c-5.02177,1.76126 -9.4035,4.36818 -13.1452,7.82076c-0.04215,0.06146 -0.0678,0.12521 -0.07694,0.19124c0.1773,0.66385 0.27258,1.43411 0.28584,2.31079l0.14857,0.02056c-0.01371,0.09905 -0.02513,0.18158 -0.03427,0.24762c-0.01371,0.09905 -0.00862,0.18387 0.01525,0.25447c0.5366,4.14566 1.78503,7.76736 3.74529,10.86509c0.00914,-0.06603 0.03479,-0.12978 0.07694,-0.19124c3.61717,-4.98397 7.73215,-9.3102 12.34493,-12.9787c-1.62245,-2.37802 -2.69534,-5.20152 -3.21869,-8.4705M502.35258,345.87898c-0.03758,0.02845 0.08077,0.14577 0.35506,0.35197c0.89907,0.79739 1.75291,0.94922 2.5615,0.45547c-0.70304,-1.24133 -1.67522,-1.51048 -2.91656,-0.80744M496.92306,354.11149c-0.01371,0.09905 -0.03707,0.14628 -0.07009,0.14172c-2.93117,1.24306 -5.71783,2.65753 -8.35997,4.24342c-0.01371,0.09905 -0.00634,0.16736 0.02211,0.20495c1.8932,2.85291 4.21862,5.3787 6.97628,7.57736c0.06603,0.00914 0.98886,-1.31 2.76848,-3.95741c1.78419,-2.68042 3.2596,-4.83157 4.42622,-6.45345l0.99114,-1.3265c-0.95745,-0.13252 -1.95477,-0.22008 -2.99195,-0.26269l-0.01371,0.09905c-0.09905,-0.01371 -0.18158,-0.02513 -0.24762,-0.03427c-1.17382,-0.02787 -2.34078,-0.10526 -3.50089,-0.23218M484.82538,360.56308c-0.02845,-0.03758 -0.07568,-0.06095 -0.14172,-0.07009c-4.84595,3.16516 -8.93807,7.32631 -12.27638,12.48347c-0.04215,0.06146 -0.0678,0.12521 -0.07694,0.19124c2.92857,6.79843 7.73867,12.15805 14.43031,16.07886c0.06146,0.04215 0.14172,0.07009 0.24076,0.08379c2.03642,-6.44773 4.1719,-12.88174 6.40641,-19.30205c0.04215,-0.06146 0.07009,-0.14172 0.08379,-0.24076c-3.47588,-2.6009 -6.36463,-5.67572 -8.66624,-9.22447M498.38311,372.73578c-1.59981,2.80689 -2.92253,5.92131 -3.96816,9.34326c-1.05934,3.521 -2.15906,6.96912 -3.29917,10.34435c5.59299,3.83605 12.82269,6.30036 21.6891,7.39293c1.2876,0.17821 2.5559,0.25281 3.80489,0.22378c1.41864,-0.03919 2.11927,-0.96848 2.1019,-2.78787c0.3018,-7.529 -0.1481,-14.48909 -1.3497,-20.88025c-0.02388,-0.0706 -0.02896,-0.15542 -0.01525,-0.25447c-6.90879,0.32241 -13.14974,-0.7769 -18.72284,-3.29794c-0.09448,-0.04672 -0.17473,-0.07466 -0.24076,-0.08379M499.75809,368.63598c-0.04672,0.09448 -0.07466,0.17473 -0.08379,0.24076c2.15469,1.20671 4.64484,2.05608 7.47046,2.5481c3.12276,0.53315 5.93947,0.60334 8.45012,0.21057c0.0706,-0.02388 0.11732,-0.11835 0.14017,-0.28343c-2.14122,-5.68002 -4.84394,-10.94985 -8.10814,-15.80951c-0.02845,-0.03758 -0.03581,-0.1059 -0.02211,-0.20495c-2.83349,4.18394 -5.44906,8.61676 -7.84672,13.29845M470.33521,377.73686c-0.02845,-0.03758 -0.07568,-0.06095 -0.14172,-0.07009c-2.54857,3.58407 -4.4975,7.94091 -5.84677,13.07053c-0.01371,0.09905 -0.02513,0.18158 -0.03427,0.24762l-0.14857,-0.02056c-0.33666,1.70309 -0.7518,3.24391 -1.24543,4.62245c4.9456,7.7842 11.16452,14.63425 18.65676,20.55016c1.08803,0.89084 1.89919,0.98629 2.43349,0.28633c-0.33336,-2.93986 -0.56083,-5.91553 -0.68239,-8.92701l0.14857,0.02056l0.09905,0.01371c0.29998,-3.6261 0.86357,-7.33348 1.69078,-11.12215l0.09905,0.01371c0.21431,-0.576 0.3438,-1.14692 0.38847,-1.71275c-0.30731,-0.21077 -0.6169,-0.40504 -0.92878,-0.58279c-0.09448,-0.04672 -0.17473,-0.07466 -0.24076,-0.08379c0.00914,-0.06603 0.02056,-0.14857 0.03427,-0.24762c-6.2076,-4.2576 -10.96818,-9.61037 -14.28174,-16.0583M457.58915,397.62515c0.17673,-0.54755 0.41035,-1.01994 0.70086,-1.41715c-1.08552,-1.39521 -1.99961,-2.93494 -2.7423,-4.61918c-0.02845,-0.03758 -0.07568,-0.06095 -0.14172,-0.07009c0.37095,2.91141 1.06388,5.07666 2.07879,6.49575l0.10436,-0.38933M462.24074,402.3067c-0.64705,0.78529 -0.85879,1.95048 -0.63522,3.49558c0.14737,1.36631 0.1929,2.61759 0.13659,3.75382c4.3423,9.95511 12.02053,17.44456 23.03468,22.46835c0.73194,0.30319 1.40367,0.31204 2.0152,0.02655c0.07517,-0.05689 0.12418,-0.16788 0.14703,-0.33295c-1.03834,-2.46541 -1.7407,-5.17034 -2.10707,-8.11476c-0.02388,-0.0706 -0.02896,-0.15542 -0.01525,-0.25447c-4.35462,-3.059 -8.52131,-6.26022 -12.50008,-9.60368c-3.97877,-3.34346 -7.33739,-7.15627 -10.07586,-11.43844M490.78696,398.0812c-0.06603,-0.00914 -0.13663,0.01474 -0.2118,0.07163c-0.77603,1.47404 -1.17312,3.37066 -1.19128,5.68985c-0.04306,2.01291 -0.00638,3.93592 0.11003,5.76902c-0.01371,0.09905 -0.02513,0.18158 -0.03427,0.24762c-0.28525,3.76273 -0.17585,7.22678 0.32819,10.39215c2.16486,1.37636 4.45058,2.36567 6.85717,2.96794c5.2378,1.29695 10.48852,1.77132 15.75213,1.42309c0.00914,-0.06603 0.03707,-0.14628 0.08379,-0.24076c2.15844,-4.41196 3.85209,-9.4771 5.08095,-15.1954c-0.21695,-1.10676 -0.16748,-2.19347 0.14839,-3.26013c0.04215,-0.06146 0.07009,-0.14172 0.08379,-0.24076c0.00914,-0.06603 0.02056,-0.14857 0.03427,-0.24762c0.16759,-0.48152 0.31867,-0.96533 0.45324,-1.45142c-6.05187,1.18126 -12.14499,0.47254 -18.27936,-2.12618c-2.98464,-1.28793 -6.0564,-2.55428 -9.21526,-3.79903M490.00568,432.89957c0.01931,0.10362 0.02439,0.18844 0.01525,0.25447c5.86053,1.41679 11.28214,1.6288 16.26484,0.63604c0.03302,0.00457 0.05638,-0.04267 0.07009,-0.14172c1.24384,-1.20741 2.26977,-2.66369 3.07779,-4.36884c0.04215,-0.06146 0.07009,-0.14172 0.08379,-0.24076c-7.30041,0.23456 -13.84866,-1.07553 -19.64476,-3.93026c-0.09448,-0.04672 -0.17473,-0.07466 -0.24076,-0.08379c-0.1573,2.8383 -0.03271,5.46325 0.37376,7.87486M457.01962,417.78553c-0.06146,-0.04215 -0.12521,-0.0678 -0.19124,-0.07694c0.75412,6.46382 2.88238,11.87286 6.38477,16.22712c0.02845,0.03758 0.09219,0.06323 0.19124,0.07694c-0.01371,0.09905 -0.00862,0.18387 0.01525,0.25447c0.12395,0.31999 0.32079,0.59959 0.59051,0.83881c-0.01371,0.09905 -0.00406,0.15085 0.02896,0.15542c1.27801,1.21997 2.523,2.43536 3.73498,3.64619c-0.01371,0.09905 -0.00406,0.15085 0.02896,0.15542c1.52386,1.38858 2.99362,2.80333 4.40929,4.24424c0.06603,0.00914 0.12978,0.03479 0.19124,0.07694c3.62326,3.96721 9.08589,6.55707 16.3879,7.76959c1.90119,0.36408 3.57024,0.46049 5.00715,0.28924c1.60656,-0.18142 3.15446,-0.30366 4.64369,-0.36673c8.80335,-0.39667 15.73207,-3.17262 20.78615,-8.32784c-1.30086,-1.05489 -2.73828,-1.00148 -4.31228,0.16024c-0.33369,0.223 -0.69812,0.42492 -1.09328,0.60576c-1.11487,0.51865 -2.26784,0.94792 -3.4589,1.28778c-4.6658,0.16178 -9.39357,0.16357 -14.18332,0.00536c-1.9093,-0.06237 -3.80489,-0.22378 -5.68677,-0.48425c-4.82585,-0.86981 -8.84591,-2.3347 -12.06018,-4.39467c-0.06146,-0.04215 -0.12521,-0.0678 -0.19124,-0.07694c-0.799,-0.54801 -1.66351,-0.98732 -2.59354,-1.31792c-0.09448,-0.04672 -0.17473,-0.07466 -0.24076,-0.08379c0.00914,-0.06603 0.02056,-0.14857 0.03427,-0.24762c-0.45411,-0.36568 -0.89399,-0.71257 -1.31965,-1.04067c-0.03302,-0.00457 -0.04267,-0.05638 -0.02896,-0.15542c0.00914,-0.06603 0.02056,-0.14857 0.03427,-0.24762c-1.64015,-1.03455 -3.09009,-2.22785 -4.34982,-3.57987c-0.06146,-0.04215 -0.12521,-0.0678 -0.19124,-0.07694c0.00914,-0.06603 0.02056,-0.14857 0.03427,-0.24762c-1.26887,-1.286 -2.44835,-2.6101 -3.53843,-3.97229c-0.06146,-0.04215 -0.12521,-0.0678 -0.19124,-0.07694c0.00914,-0.06603 0.02056,-0.14857 0.03427,-0.24762c-3.08381,-3.48877 -6.05259,-7.07939 -8.90632,-10.77185M512.16126,347.94315c-0.09448,-0.04672 -0.17473,-0.07466 -0.24076,-0.08379c-1.42275,-0.90352 -2.69156,-1.09595 -3.80643,-0.5773c-0.0706,0.02388 -0.05129,0.12749 0.05792,0.31085c0.24539,1.14434 0.97961,1.43103 2.20267,0.86005c0.03758,-0.02845 0.1059,-0.03581 0.20495,-0.02211c0.06603,0.00914 0.14857,0.02056 0.24762,0.03427c1.64163,0.29451 3.22129,0.42902 4.73897,0.40354c-1.28303,-0.21123 -2.41801,-0.51973 -3.40493,-0.92551M512.89675,352.83977c-0.28343,-0.14017 -0.57828,-0.19781 -0.88456,-0.1729c2.28345,5.86794 4.60147,12.09397 6.95404,18.67808c0.02388,0.0706 0.03125,0.13892 0.02211,0.20495c3.8379,0.22835 7.08323,-0.85346 9.736,-3.24543c0.03758,-0.02845 0.06323,-0.09219 0.07694,-0.19124c-3.28157,-6.67904 -8.58308,-11.7702 -15.90452,-15.27347M522.28936,353.53409c0.02845,0.03758 0.05918,0.05866 0.09219,0.06323c0.23671,0.23465 0.70555,0.73696 1.40653,1.50694c0.08991,0.07974 0.19404,0.17827 0.31239,0.2956c1.37808,1.46935 2.8687,3.34123 4.47184,5.61563c1.71692,2.42474 2.62263,3.66048 2.7171,3.7072c0.62375,0.35551 0.9422,-0.12195 0.95533,-1.4324c0.00914,-0.06603 0.02056,-0.14857 0.03427,-0.24762c-2.67392,-3.53298 -5.1911,-6.25355 -7.55154,-8.1617c-1.05958,-0.85326 -1.78569,-1.44165 -2.17834,-1.76518c-0.12292,-0.08431 -0.26235,-0.1709 -0.41829,-0.25978c-1.26681,-0.81464 -1.21398,-0.58862 0.15851,0.67807M534.81945,368.39099c-0.02845,-0.03758 -0.11327,-0.0325 -0.25447,0.01525c-0.65265,0.58263 -0.95864,1.21323 -0.91797,1.89182l0.14857,0.02056c-0.01371,0.09905 -0.00634,0.16736 0.02211,0.20495c0.10464,0.21637 0.22808,0.41852 0.37031,0.60644c-0.01371,0.09905 -0.02513,0.18158 -0.03427,0.24762c-0.01371,0.09905 -0.00634,0.16736 0.02211,0.20495c2.39061,5.57994 4.42416,11.43012 6.10066,17.55053c0.00914,-0.06603 0.03707,-0.14628 0.08379,-0.24076c0.53784,-0.96864 0.86919,-2.2687 0.99405,-3.90016c-1.42814,-6.45617 -3.60643,-11.9899 -6.53488,-16.6012M530.69173,371.95839c-0.02845,-0.03758 -0.07568,-0.06095 -0.14172,-0.07009c-3.02359,1.66769 -6.44771,2.8257 -10.27236,3.47402c-0.03758,0.02845 -0.06095,0.07568 -0.07009,0.14172c1.87105,6.41652 2.51527,14.16058 1.93268,23.23217l0.14857,0.02056c2.1861,-0.2358 4.13041,-0.79107 5.83293,-1.66581c0.03758,-0.02845 0.1059,-0.03581 0.20495,-0.02211c0.06603,0.00914 0.13435,0.00177 0.20495,-0.02211c3.2908,-0.9241 6.19758,-2.3556 8.72034,-4.29449c-0.88503,-4.0593 -1.78657,-8.12088 -2.70462,-12.18474c-0.02845,-0.03758 -0.07568,-0.06095 -0.14172,-0.07009c0.00914,-0.06603 0.02056,-0.14857 0.03427,-0.24762c0.00914,-0.06603 0.02056,-0.14857 0.03427,-0.24762c-1.20444,-2.72394 -2.46527,-5.40521 -3.78246,-8.04381M535.0979,415.97399c0.03758,-0.02845 0.1059,-0.03581 0.20495,-0.02211c0.77899,-2.95414 1.46071,-6.05634 2.04515,-9.30659c0.00914,-0.06603 0.02056,-0.14857 0.03427,-0.24762c0.14153,-3.21061 0.15152,-6.32166 0.02996,-9.33314c0.00914,-0.06603 0.02056,-0.14857 0.03427,-0.24762c-4.29942,3.10621 -9.29805,5.30809 -14.99589,6.60565c-0.03758,0.02845 -0.06095,0.07568 -0.07009,0.14172c-0.68176,6.87075 -2.17343,13.39387 -4.47501,19.56937c-0.01371,0.09905 -0.02513,0.18158 -0.03427,0.24762c6.92044,-0.89281 12.66266,-3.3619 17.22666,-7.40728M535.25682,437.79981c0.03302,0.00457 0.05638,-0.04267 0.07009,-0.14172c-1.03719,-0.04261 -1.35923,-0.39001 -0.96613,-1.04221c0.18233,-0.34489 0.2138,-0.69384 0.09442,-1.04684c-0.44805,-1.13875 -1.10739,-2.08802 -1.97802,-2.84783c-1.85949,0.55019 -3.55287,1.3589 -5.08014,2.42614c-0.03758,0.02845 -0.06095,0.07568 -0.07009,0.14172c1.98253,1.72125 4.62582,2.55817 7.92988,2.51075M516.13366,428.64221c-0.10362,0.01931 -0.18844,0.02439 -0.25447,0.01525c-0.77706,1.23837 -1.5211,2.4813 -2.23213,3.72881c-0.04672,0.09448 -0.07466,0.17473 -0.08379,0.24076c6.0986,-1.27574 11.30571,-3.76842 15.62136,-7.47805c0.03758,-0.02845 0.06323,-0.09219 0.07694,-0.19124c-4.04147,1.7287 -8.41744,2.95685 -13.1279,3.68446M515.23694,483.98663c0.03302,0.00457 0.05638,-0.04267 0.07009,-0.14172c-1.33181,-0.5881 -2.31034,-0.68989 -2.93558,-0.30535c-0.03758,0.02845 -0.06095,0.07568 -0.07009,0.14172c1.23631,0.3057 2.21483,0.40749 2.93558,0.30535M473.83181,479.01304l0.02056,-0.14857c-7.75933,-4.47236 -14.63541,-9.61321 -20.62824,-15.42253c-0.06146,-0.04215 -0.12521,-0.0678 -0.19124,-0.07694c0.10979,1.39476 0.52026,2.56195 1.23141,3.50157c0.02388,0.0706 0.03125,0.13892 0.02211,0.20495c-1.94482,0.43743 -3.19935,1.35736 -3.76358,2.75977c-0.03302,-0.00457 -0.08254,-0.01142 -0.14857,-0.02056c2.14407,2.01279 4.85191,3.59889 8.12352,4.75831c3.55962,1.26657 6.82512,2.10548 9.79651,2.51674c0.1011,0.48506 0.4841,0.75678 1.14897,0.81516l-0.01371,0.09905c1.5756,0.28537 3.04302,0.62306 4.40225,1.01307z" fill="#000000"/><path d="M473.85238,478.86447l-0.02056,0.14857c-1.35923,-0.39001 -2.82665,-0.7277 -4.40225,-1.01307l0.01371,-0.09905c-0.66488,-0.05837 -1.04787,-0.33009 -1.14897,-0.81516c-2.97139,-0.41125 -6.23689,-1.25017 -9.79651,-2.51674c-3.27162,-1.15941 -5.97946,-2.74552 -8.12352,-4.75831c0.06603,0.00914 0.11555,0.01599 0.14857,0.02056c0.56423,-1.40241 1.81875,-2.32234 3.76358,-2.75977c0.00914,-0.06603 0.00177,-0.13435 -0.02211,-0.20495c-0.71115,-0.93962 -1.12162,-2.10681 -1.23141,-3.50157c0.06603,0.00914 0.12978,0.03479 0.19124,0.07694c5.99283,5.80932 12.86891,10.95017 20.62824,15.42253z" fill="#2c2d40"/><path d="M515.30703,483.84492c-0.01371,0.09905 -0.03707,0.14628 -0.07009,0.14172c-0.72074,0.10213 -1.69927,0.00035 -2.93558,-0.30535c0.00914,-0.06603 0.0325,-0.11327 0.07009,-0.14172c0.62524,-0.38453 1.60376,-0.28275 2.93558,0.30535z" fill="#353849"/><path d="M515.87919,428.65746c0.06603,0.00914 0.15085,0.00406 0.25447,-0.01525c4.71046,-0.72761 9.08643,-1.95577 13.1279,-3.68446c-0.01371,0.09905 -0.03936,0.16279 -0.07694,0.19124c-4.31564,3.70962 -9.52276,6.20231 -15.62136,7.47805c0.00914,-0.06603 0.03707,-0.14628 0.08379,-0.24076c0.71103,-1.24751 1.45507,-2.49044 2.23213,-3.72881M535.30284,415.95188c-0.09905,-0.01371 -0.16736,-0.00634 -0.20495,0.02211c-4.564,4.04538 -10.30622,6.51447 -17.22666,7.40728c0.00914,-0.06603 0.02056,-0.14857 0.03427,-0.24762c2.30158,-6.17549 3.79325,-12.69861 4.47501,-19.56937c0.00914,-0.06603 0.0325,-0.11327 0.07009,-0.14172c5.69784,-1.29756 10.69647,-3.49944 14.99589,-6.60565c-0.01371,0.09905 -0.02513,0.18158 -0.03427,0.24762c0.12156,3.01149 0.11158,6.12253 -0.02996,9.33314c-0.01371,0.09905 -0.02513,0.18158 -0.03427,0.24762c-0.58444,3.25025 -1.26616,6.35245 -2.04515,9.30659M534.40565,380.49743c0.06603,0.00914 0.11327,0.0325 0.14172,0.07009c0.91805,4.06386 1.81959,8.12544 2.70462,12.18474c-2.52276,1.93889 -5.42954,3.37039 -8.72034,4.29449c-0.0706,0.02388 -0.13892,0.03125 -0.20495,0.02211c0.00914,-0.06603 0.03707,-0.14628 0.08379,-0.24076c2.53429,-4.69642 4.53268,-10.13998 5.99516,-16.33066M534.56498,368.40624c0.1412,-0.04775 0.22602,-0.05284 0.25447,-0.01525c2.92845,4.6113 5.10674,10.14503 6.53488,16.6012c-0.12486,1.63147 -0.45621,2.93152 -0.99405,3.90016c-0.04672,0.09448 -0.07466,0.17473 -0.08379,0.24076c-1.6765,-6.12041 -3.71005,-11.97059 -6.10066,-17.55053c-0.02845,-0.03758 -0.03581,-0.1059 -0.02211,-0.20495c0.06603,0.00914 0.14857,0.02056 0.24762,0.03427c0.33472,0.01268 0.53407,-0.21209 0.59805,-0.6743c-0.2647,-1.24796 -0.63804,-1.46787 -1.12001,-0.65973c-0.04672,0.09448 -0.07466,0.17473 -0.08379,0.24076l-0.14857,-0.02056c-0.04067,-0.67859 0.26532,-1.30919 0.91797,-1.89182M490.02093,433.15404c0.00914,-0.06603 0.00406,-0.15085 -0.01525,-0.25447c-0.40647,-2.41161 -0.53106,-5.03656 -0.37376,-7.87486c0.06603,0.00914 0.14628,0.03707 0.24076,0.08379c5.7961,2.85473 12.34436,4.16481 19.64476,3.93026c-0.01371,0.09905 -0.04164,0.1793 -0.08379,0.24076c-0.80802,1.70515 -1.83394,3.16143 -3.07779,4.36884c-0.01371,0.09905 -0.03707,0.14628 -0.07009,0.14172c-4.9827,0.99276 -10.40431,0.78075 -16.26484,-0.63604M489.49392,409.6117c0.06603,0.00914 0.14857,0.02056 0.24762,0.03427c11.55289,2.1037 20.90374,0.79019 28.05253,-3.94053c-0.01371,0.09905 -0.04164,0.1793 -0.08379,0.24076c-0.31587,1.06666 -0.36533,2.15337 -0.14839,3.26013c-1.22886,5.7183 -2.92251,10.78343 -5.08095,15.1954c-0.04672,0.09448 -0.07466,0.17473 -0.08379,0.24076c-5.26362,0.34822 -10.51433,-0.12614 -15.75213,-1.42309c-2.40659,-0.60227 -4.69231,-1.59158 -6.85717,-2.96794c-0.50404,-3.16537 -0.61344,-6.62942 -0.32819,-10.39215c0.00914,-0.06603 0.02056,-0.14857 0.03427,-0.24762M461.60552,405.80229c-0.22357,-1.5451 -0.01183,-2.71029 0.63522,-3.49558c2.73847,4.28217 6.09709,8.09499 10.07586,11.43844c3.97877,3.34346 8.14546,6.54468 12.50008,9.60368c-0.01371,0.09905 -0.00862,0.18387 0.01525,0.25447c0.36638,2.94443 1.06874,5.64935 2.10707,8.11476c-0.02285,0.16508 -0.07186,0.27606 -0.14703,0.33295c-0.61153,0.28549 -1.28326,0.27664 -2.0152,-0.02655c-11.01415,-5.02379 -18.69237,-12.51324 -23.03468,-22.46835c0.05632,-1.13623 0.01079,-2.38751 -0.13659,-3.75382M458.29001,396.208c-0.29051,0.39721 -0.52413,0.8696 -0.70086,1.41715l-0.10436,0.38933c-1.01491,-1.41909 -1.70785,-3.58434 -2.07879,-6.49575c0.06603,0.00914 0.11327,0.0325 0.14172,0.07009c0.74268,1.68424 1.65678,3.22397 2.7423,4.61918M464.31245,390.98492c-0.02285,0.16508 -0.04569,0.33015 -0.06854,0.49523c-0.04569,0.33015 0.00257,0.58919 0.1448,0.77712c5.06029,5.98309 11.43377,10.98707 19.12044,15.01196c-0.01371,0.09905 -0.02513,0.18158 -0.03427,0.24762l-0.14857,-0.02056c0.12156,3.01149 0.34902,5.98716 0.68239,8.92701c-0.5343,0.69995 -1.34546,0.60451 -2.43349,-0.28633c-7.49224,-5.91591 -13.71116,-12.76596 -18.65676,-20.55016c0.49363,-1.37854 0.90877,-2.91936 1.24543,-4.62245l0.14857,0.02056M458.00826,385.11568c0.85338,1.12755 1.63159,2.31199 2.33463,3.55332c-0.49009,1.10985 -1.07066,0.92855 -1.74171,-0.54389c-0.41401,-0.8985 -0.67539,-1.92729 -0.78416,-3.08637c0.06603,0.00914 0.12978,0.03479 0.19124,0.07694z" fill="#343444"/><path d="M535.32691,437.6581c-0.01371,0.09905 -0.03707,0.14628 -0.07009,0.14172c-3.30406,0.04742 -5.94735,-0.78949 -7.92988,-2.51075c0.00914,-0.06603 0.0325,-0.11327 0.07009,-0.14172c1.52727,-1.06724 3.22065,-1.87595 5.08014,-2.42614c0.87063,0.75981 1.52997,1.70909 1.97802,2.84783c0.11938,0.353 0.08791,0.70195 -0.09442,1.04684c-0.3931,0.6522 -0.07105,0.9996 0.96613,1.04221z" fill="#2c2c3f"/><path d="M530.55002,371.8883c0.06603,0.00914 0.11327,0.0325 0.14172,0.07009c1.3172,2.6386 2.57802,5.31987 3.78246,8.04381c-0.01371,0.09905 -0.02513,0.18158 -0.03427,0.24762c-0.01371,0.09905 -0.02513,0.18158 -0.03427,0.24762c-1.46248,6.19068 -3.46087,11.63424 -5.99516,16.33066c-0.04672,0.09448 -0.07466,0.17473 -0.08379,0.24076c-0.09905,-0.01371 -0.16736,-0.00634 -0.20495,0.02211c-1.70252,0.87474 -3.64683,1.43001 -5.83293,1.66581l-0.14857,-0.02056c0.58259,-9.07159 -0.06163,-16.81565 -1.93268,-23.23217c0.00914,-0.06603 0.0325,-0.11327 0.07009,-0.14172c3.82465,-0.64833 7.24877,-1.80633 10.27236,-3.47402M498.44232,451.07625c-1.48924,0.06307 -3.03713,0.18531 -4.64369,0.36673c-1.43691,0.17125 -3.10596,0.07484 -5.00715,-0.28924c0.00914,-0.06603 0.02056,-0.14857 0.03427,-0.24762c0.73639,-1.91695 1.29244,-4.11122 1.66817,-6.58281c1.88188,0.26046 3.77747,0.42188 5.68677,0.48425c4.78975,0.15821 9.51753,0.15642 14.18332,-0.00536c1.19107,-0.33987 2.34404,-0.76913 3.4589,-1.28778c0.39516,-0.18084 0.75958,-0.38276 1.09328,-0.60576c1.574,-1.16171 3.01143,-1.21513 4.31228,-0.16024c-5.05408,5.15522 -11.9828,7.93117 -20.78615,8.32784M456.82838,417.70859c0.06603,0.00914 0.12978,0.03479 0.19124,0.07694c2.85373,3.69246 5.82251,7.28308 8.90632,10.77185c-0.01371,0.09905 -0.02513,0.18158 -0.03427,0.24762c-0.55509,1.33638 -0.98674,2.87492 -1.29495,4.6156l-0.09905,-0.01371c0.00914,-0.06603 0.02056,-0.14857 0.03427,-0.24762c-0.1869,0.37791 -0.49443,0.655 -0.9226,0.83127c-0.0706,0.02388 -0.13892,0.03125 -0.20495,0.02211c-0.09905,-0.01371 -0.16279,-0.03936 -0.19124,-0.07694c-3.50239,-4.35425 -5.63065,-9.76329 -6.38477,-16.22712M490.57516,398.15283c0.07517,-0.05689 0.14577,-0.08077 0.2118,-0.07163c3.15886,1.24475 6.23061,2.51109 9.21526,3.79903c6.13437,2.59872 12.22749,3.30744 18.27936,2.12618c-0.13457,0.48609 -0.28565,0.9699 -0.45324,1.45142c-0.01371,0.09905 -0.02513,0.18158 -0.03427,0.24762c-7.1488,4.73071 -16.49964,6.04422 -28.05253,3.94053c-0.09905,-0.01371 -0.18158,-0.02513 -0.24762,-0.03427c-0.11642,-1.8331 -0.15309,-3.7561 -0.11003,-5.76902c0.01816,-2.31919 0.41525,-4.21581 1.19128,-5.68985M499.6743,368.87675c0.00914,-0.06603 0.03707,-0.14628 0.08379,-0.24076c2.39766,-4.68169 5.01323,-9.1145 7.84672,-13.29845c-0.01371,0.09905 -0.00634,0.16736 0.02211,0.20495c3.2642,4.85965 5.96692,10.12949 8.10814,15.80951c-0.02285,0.16508 -0.06957,0.25955 -0.14017,0.28343c-2.51066,0.39277 -5.32736,0.32258 -8.45012,-0.21057c-2.82562,-0.49202 -5.31577,-1.34139 -7.47046,-2.5481M496.85297,354.25321c0.03302,0.00457 0.05638,-0.04267 0.07009,-0.14172c1.16011,0.12692 2.32707,0.20431 3.50089,0.23218c0.06603,0.00914 0.14857,0.02056 0.24762,0.03427l0.01371,-0.09905c1.03719,0.04261 2.0345,0.13017 2.99195,0.26269l-0.99114,1.3265c-1.16662,1.62187 -2.64202,3.77302 -4.42622,6.45345c-1.77963,2.64741 -2.70245,3.96654 -2.76848,3.95741c-2.75765,-2.19866 -5.08308,-4.72444 -6.97628,-7.57736c-0.02845,-0.03758 -0.03581,-0.1059 -0.02211,-0.20495c2.64214,-1.58589 5.4288,-3.00037 8.35997,-4.24342z" fill="#475c81"/><path d="M534.15372,371.37763c0.00914,-0.06603 0.02056,-0.14857 0.03427,-0.24762c-0.14223,-0.18792 -0.26567,-0.39007 -0.37031,-0.60644c-0.02845,-0.03758 -0.03581,-0.1059 -0.02211,-0.20495c0.00914,-0.06603 0.03707,-0.14628 0.08379,-0.24076c0.48198,-0.80814 0.85531,-0.58823 1.12001,0.65973c-0.06397,0.46222 -0.26332,0.68698 -0.59805,0.6743c-0.09905,-0.01371 -0.18158,-0.02513 -0.24762,-0.03427z" fill="#425574"/><path d="M522.47905,353.25752l0.04952,0.00685c-0.29817,-0.2768 -0.43074,-0.41292 -0.39773,-0.40835c0.15594,0.08888 0.29537,0.17547 0.41829,0.25978c0.39264,0.32353 1.11876,0.91192 2.17834,1.76518c2.36044,1.90815 4.87762,4.62871 7.55154,8.1617c-0.01371,0.09905 -0.02513,0.18158 -0.03427,0.24762c-0.01313,1.31045 -0.33158,1.78792 -0.95533,1.4324c-0.09448,-0.04672 -1.00018,-1.28246 -2.7171,-3.7072c-1.60314,-2.2744 -3.09375,-4.14628 -4.47184,-5.61563l-1.39968,-1.55646l-0.12801,-0.16913c-0.03302,-0.00457 -0.14172,-0.07009 -0.3261,-0.19655l0.24762,0.03427c-0.05689,-0.07517 -0.11607,-0.13383 -0.17753,-0.17599c-0.734,-0.77455 -0.6799,-0.80071 0.16228,-0.07848z" fill="#415476"/><path d="M522.52858,353.26437l-0.04952,-0.00685c-0.84218,-0.72222 -0.89627,-0.69606 -0.16228,0.07848c0.06146,0.04215 0.12064,0.10082 0.17753,0.17599l-0.24762,-0.03427c0.18438,0.12646 0.29308,0.19198 0.3261,0.19655l0.12801,0.16913l1.39968,1.55646c-0.11835,-0.11732 -0.22248,-0.21586 -0.31239,-0.2956c-0.70098,-0.76998 -1.16982,-1.27229 -1.40653,-1.50694c-0.03302,-0.00457 -0.06375,-0.02565 -0.09219,-0.06323c-1.37249,-1.26669 -1.42532,-1.49272 -0.15851,-0.67807c-0.03302,-0.00457 0.09956,0.13155 0.39773,0.40835z" fill="#415370"/><path d="M512.01219,352.66687c0.30628,-0.02491 0.60113,0.03273 0.88456,0.1729c7.32144,3.50327 12.62295,8.59442 15.90452,15.27347c-0.01371,0.09905 -0.03936,0.16279 -0.07694,0.19124c-2.65276,2.39197 -5.8981,3.47378 -9.736,3.24543c0.00914,-0.06603 0.00177,-0.13435 -0.02211,-0.20495c-2.35257,-6.58411 -4.67058,-12.81014 -6.95404,-18.67808z" fill="#465c81"/><path d="M511.92049,347.85936c0.06603,0.00914 0.14628,0.03707 0.24076,0.08379c0.98692,0.40578 2.1219,0.71428 3.40493,0.92551c-1.51768,0.02548 -3.09734,-0.10903 -4.73897,-0.40354c-0.09905,-0.01371 -0.18158,-0.02513 -0.24762,-0.03427c-0.09905,-0.01371 -0.16736,-0.00634 -0.20495,0.02211c-1.22305,0.57098 -1.95728,0.28429 -2.20267,-0.86005c-0.10921,-0.18336 -0.12852,-0.28697 -0.05792,-0.31085c1.11487,-0.51865 2.38368,-0.32622 3.80643,0.5773M502.70764,346.23095c-0.27429,-0.2062 -0.39264,-0.32353 -0.35506,-0.35197c1.24133,-0.70304 2.21352,-0.43389 2.91656,0.80744c-0.80859,0.49375 -1.66242,0.34193 -2.5615,-0.45547z" fill="#435878"/><path d="M474.09385,437.00628c-0.01371,0.09905 -0.00406,0.15085 0.02896,0.15542c0.42566,0.3281 0.86554,0.67499 1.31965,1.04067c-0.01371,0.09905 -0.02513,0.18158 -0.03427,0.24762c-0.01371,0.09905 -0.00406,0.15085 0.02896,0.15542c0.96967,0.77352 1.90479,1.18895 2.80534,1.24629c0.06603,0.00914 0.12978,0.03479 0.19124,0.07694c3.21427,2.05997 7.23433,3.52486 12.06018,4.39467c-0.37573,2.47159 -0.93178,4.66586 -1.66817,6.58281c-0.01371,0.09905 -0.02513,0.18158 -0.03427,0.24762c-7.30201,-1.21252 -12.76464,-3.80239 -16.3879,-7.76959c-0.06146,-0.04215 -0.12521,-0.0678 -0.19124,-0.07694c0.00914,-0.06603 0.02056,-0.14857 0.03427,-0.24762c0.73182,-1.88394 1.34756,-3.90171 1.84724,-6.05331M464.49766,433.40689l0.09905,0.01371c0.30821,-1.74068 0.73987,-3.27921 1.29495,-4.6156c0.06603,0.00914 0.12978,0.03479 0.19124,0.07694c1.09008,1.3622 2.26956,2.68629 3.53843,3.97229c-0.01371,0.09905 -0.02513,0.18158 -0.03427,0.24762c-0.82732,1.60154 -1.39863,3.54134 -1.71393,5.8194l-0.09905,-0.01371c-1.21198,-1.21083 -2.45697,-2.42623 -3.73498,-3.64619c-0.03302,-0.00457 -0.04267,-0.05638 -0.02896,-0.15542c0.00914,-0.06603 0.03479,-0.12978 0.07694,-0.19124c0.28137,-0.33118 0.41823,-0.83378 0.41057,-1.5078M466.25728,358.69977c0.24527,-1.04279 0.67544,-1.84127 1.29051,-2.39545c0.11275,-0.08534 0.24202,-0.16839 0.38779,-0.24916c2.93928,-1.54477 6.18918,-2.65959 9.74971,-3.34447c-2.92957,2.69014 -5.7903,5.49075 -8.58221,8.40183c-0.12189,0.15137 -0.34792,0.20421 -0.67807,0.15851c-1.41966,-0.19649 -2.12064,-0.96647 -2.10294,-2.30993l-0.09905,-0.01371c0.00914,-0.06603 0.02056,-0.14857 0.03427,-0.24762M489.47915,349.54819c-0.01371,0.09905 -0.02513,0.18158 -0.03427,0.24762c-1.21585,2.22072 -2.55195,2.27133 -4.00829,0.15184c-0.02845,-0.03758 -0.03581,-0.1059 -0.02211,-0.20495c-0.35609,-0.58765 -0.28755,-1.08288 0.20563,-1.48569c1.70046,-1.3461 3.02108,-1.16332 3.96185,0.54834c-0.06957,0.25955 -0.10384,0.50717 -0.10281,0.74285M458.49041,369.23331c0.06603,0.00914 0.11784,-0.00051 0.15542,-0.02896c1.28336,-2.95163 3.11338,-3.77508 5.49003,-2.47035c-0.01371,0.09905 -0.02513,0.18158 -0.03427,0.24762c-0.01371,0.09905 -0.02513,0.18158 -0.03427,0.24762l0.09905,0.01371c-0.10613,0.52368 -0.01976,0.87211 0.2591,1.0453c-0.24379,0.30274 -0.44439,0.77969 -0.60181,1.43086l-0.09905,-0.01371c-1.25195,1.50912 -2.29056,3.30012 -3.11583,5.37301c-0.03302,-0.00457 -0.08254,-0.01142 -0.14857,-0.02056c-0.37573,2.47159 -1.23275,4.28773 -2.57107,5.44841c-0.11732,0.11835 -0.04724,-0.02336 0.21026,-0.42515c0.12646,-0.18438 0.21254,-0.44165 0.25824,-0.77181c0.00914,-0.06603 0.02056,-0.14857 0.03427,-0.24762c0.01404,-3.2619 0.04687,-6.53803 0.0985,-9.82837z" fill="#8fbbbe"/><path d="M475.40819,438.44998c0.06603,0.00914 0.14628,0.03707 0.24076,0.08379c0.93003,0.33061 1.79455,0.76992 2.59354,1.31792c-0.90056,-0.05735 -1.83567,-0.47278 -2.80534,-1.24629c-0.03302,-0.00457 -0.04267,-0.05638 -0.02896,-0.15542z" fill="#94c3c7"/><path d="M464.53193,433.15927c-0.01371,0.09905 -0.02513,0.18158 -0.03427,0.24762c0.00766,0.67402 -0.1292,1.17662 -0.41057,1.5078c-0.04215,0.06146 -0.0678,0.12521 -0.07694,0.19124c-0.26972,-0.23922 -0.46656,-0.51882 -0.59051,-0.83881c-0.02388,-0.0706 -0.02896,-0.15542 -0.01525,-0.25447c0.06603,0.00914 0.13435,0.00177 0.20495,-0.02211c0.42817,-0.17627 0.73571,-0.45336 0.9226,-0.83127M469.58706,433.10185c0.06603,0.00914 0.12978,0.03479 0.19124,0.07694c1.25973,1.35203 2.70967,2.54532 4.34982,3.57987c-0.01371,0.09905 -0.02513,0.18158 -0.03427,0.24762c-0.49968,2.1516 -1.11543,4.16937 -1.84724,6.05331c-0.01371,0.09905 -0.02513,0.18158 -0.03427,0.24762c-1.41567,-1.44091 -2.88543,-2.85565 -4.40929,-4.24424c-0.03302,-0.00457 -0.04267,-0.05638 -0.02896,-0.15542l0.09905,0.01371c0.3153,-2.27807 0.8866,-4.21787 1.71393,-5.8194M479.04501,348.35641c0.06603,0.00914 0.11327,0.0325 0.14172,0.07009c0.52335,3.26898 1.59624,6.09248 3.21869,8.4705c-4.61278,3.6685 -8.72776,7.99473 -12.34493,12.9787c-0.04215,0.06146 -0.0678,0.12521 -0.07694,0.19124c-1.96026,-3.09773 -3.20869,-6.71943 -3.74529,-10.86509c-0.02388,-0.0706 -0.02896,-0.15542 -0.01525,-0.25447l0.09905,0.01371c-0.0177,1.34347 0.68328,2.11344 2.10294,2.30993c0.33015,0.04569 0.55618,-0.00714 0.67807,-0.15851c2.79191,-2.91108 5.65264,-5.71169 8.58221,-8.40183c-3.56052,0.68488 -6.81043,1.79971 -9.74971,3.34447c-0.14577,0.08077 -0.27503,0.16382 -0.38779,0.24916c-0.61507,0.55418 -1.04524,1.35266 -1.29051,2.39545l-0.14857,-0.02056c-0.01325,-0.87668 -0.10853,-1.64694 -0.28584,-2.31079c0.00914,-0.06603 0.03479,-0.12978 0.07694,-0.19124c3.7417,-3.45258 8.12343,-6.0595 13.1452,-7.82076z" fill="#475d81"/><path d="M484.82344,394.12657c0.31188,0.17776 0.62147,0.37202 0.92878,0.58279c-0.04467,0.56583 -0.17416,1.13675 -0.38847,1.71275l-0.09905,-0.01371c0.00914,-0.06603 0.02056,-0.14857 0.03427,-0.24762c0.02182,-0.40075 0.07894,-0.81345 0.17136,-1.23808c-0.30731,-0.21077 -0.59582,-0.43577 -0.86554,-0.67499c-0.02845,-0.03758 -0.03581,-0.1059 -0.02211,-0.20495c0.06603,0.00914 0.14628,0.03707 0.24076,0.08379z" fill="#364461"/><path d="M470.19349,377.66677c0.06603,0.00914 0.11327,0.0325 0.14172,0.07009c3.31356,6.44794 8.07414,11.8007 14.28174,16.0583c-0.01371,0.09905 -0.02513,0.18158 -0.03427,0.24762c-0.01371,0.09905 -0.00634,0.16736 0.02211,0.20495c0.26972,0.23922 0.55824,0.46421 0.86554,0.67499c-0.09242,0.42463 -0.14954,0.83732 -0.17136,1.23808c-0.01371,0.09905 -0.02513,0.18158 -0.03427,0.24762c-0.8272,3.78867 -1.39079,7.49605 -1.69078,11.12215l-0.09905,-0.01371c0.00914,-0.06603 0.02056,-0.14857 0.03427,-0.24762c-7.68667,-4.02489 -14.06015,-9.02887 -19.12044,-15.01196c-0.14223,-0.18792 -0.1905,-0.44696 -0.1448,-0.77712c0.02285,-0.16508 0.04569,-0.33015 0.06854,-0.49523c0.00914,-0.06603 0.02056,-0.14857 0.03427,-0.24762c1.34927,-5.12962 3.2982,-9.48646 5.84677,-13.07053M494.41495,382.07905c1.04563,-3.42196 2.36835,-6.53638 3.96816,-9.34326c0.06603,0.00914 0.14628,0.03707 0.24076,0.08379c5.5731,2.52103 11.81405,3.62035 18.72284,3.29794c-0.01371,0.09905 -0.00862,0.18387 0.01525,0.25447c1.2016,6.39117 1.6515,13.35125 1.3497,20.88025c0.01737,1.81939 -0.68326,2.74868 -2.1019,2.78787c-1.24899,0.02902 -2.51728,-0.04557 -3.80489,-0.22378c-8.86642,-1.09256 -16.09612,-3.55687 -21.6891,-7.39293c1.14011,-3.37523 2.23983,-6.82335 3.29917,-10.34435M484.68367,360.49299c0.06603,0.00914 0.11327,0.0325 0.14172,0.07009c2.30161,3.54875 5.19036,6.62357 8.66624,9.22447c-0.01371,0.09905 -0.04164,0.1793 -0.08379,0.24076c-2.23452,6.42031 -4.36999,12.85433 -6.40641,19.30205c-0.09905,-0.01371 -0.1793,-0.04164 -0.24076,-0.08379c-6.69163,-3.92082 -11.50174,-9.28044 -14.43031,-16.07886c0.00914,-0.06603 0.03479,-0.12978 0.07694,-0.19124c3.33831,-5.15716 7.43044,-9.31831 12.27638,-12.48347z" fill="#475d82"/><path d="M482.99915,347.13717c0.06603,0.00914 0.13435,0.00177 0.20495,-0.02211c0.95996,-0.37186 1.95065,-0.72263 2.97207,-1.05233c0.06603,0.00914 0.14857,0.02056 0.24762,0.03427c5.22455,0.42027 9.81244,1.30762 13.76367,2.66204c-0.01371,0.09905 -0.03707,0.14628 -0.07009,0.14172c-5.03753,1.38895 -9.73143,3.21241 -14.08169,5.47038c0.00914,-0.06603 0.00177,-0.13435 -0.02211,-0.20495c-1.0236,-2.32878 -2.02841,-4.67179 -3.01442,-7.02902M489.44488,349.79581c0.00914,-0.06603 0.02056,-0.14857 0.03427,-0.24762c-0.00103,-0.23568 0.03324,-0.48329 0.10281,-0.74285c-0.94077,-1.71166 -2.26139,-1.89444 -3.96185,-0.54834c-0.49317,0.40281 -0.56172,0.89804 -0.20563,1.48569c-0.01371,0.09905 -0.00634,0.16736 0.02211,0.20495c1.45634,2.11949 2.79244,2.06888 4.00829,-0.15184z" fill="#455a7e"/><path d="M454.63569,377.02765c0.00914,-0.06603 0.02056,-0.14857 0.03427,-0.24762c1.13735,-7.24512 3.6589,-12.70038 7.56465,-16.3658c0.06603,0.00914 0.11327,0.0325 0.14172,0.07009c1.21724,4.57635 3.03813,8.68105 5.46267,12.31411c-2.69834,4.90925 -5.18562,10.1169 -7.46183,15.62295c-0.01371,0.09905 -0.02513,0.18158 -0.03427,0.24762c-0.70304,-1.24133 -1.48125,-2.42577 -2.33463,-3.55332c-0.06146,-0.04215 -0.12521,-0.0678 -0.19124,-0.07694c-0.09905,-0.01371 -0.14628,-0.03707 -0.14172,-0.07009c-1.27402,-2.46439 -2.28722,-5.11139 -3.03962,-7.941M458.64583,369.20435c-0.03758,0.02845 -0.08939,0.0381 -0.15542,0.02896c-0.05163,3.29035 -0.08446,6.56647 -0.0985,9.82837c-0.01371,0.09905 -0.02513,0.18158 -0.03427,0.24762c-0.04569,0.33015 -0.13177,0.58742 -0.25824,0.77181c-0.2575,0.40178 -0.32758,0.5435 -0.21026,0.42515c1.33832,-1.16069 2.19534,-2.97682 2.57107,-5.44841c0.06603,0.00914 0.11555,0.01599 0.14857,0.02056c0.82526,-2.07289 1.86387,-3.8639 3.11583,-5.37301l0.09905,0.01371c0.15742,-0.65117 0.35803,-1.12812 0.60181,-1.43086c-0.27886,-0.17319 -0.36523,-0.52162 -0.2591,-1.0453l-0.09905,-0.01371c0.00914,-0.06603 0.02056,-0.14857 0.03427,-0.24762c0.00914,-0.06603 0.02056,-0.14857 0.03427,-0.24762c-2.37666,-1.30473 -4.20667,-0.48128 -5.49003,2.47035z" fill="#475c80"/><path d="M680.02963,618.35492c0.51098,3.04077 1.17525,6.09772 1.99282,9.17084c1.05602,4.01123 0.8857,7.76367 -0.51098,11.25732c-2.14611,5.43457 -3.134,11.58081 -2.96368,18.43872c0,0.09705 0.01703,0.16174 0.0511,0.19409c0.64724,0.51758 1.39668,0.93811 2.24831,1.2616c5.24605,6.72852 11.10527,12.89093 17.57767,18.48724c4.0197,3.4613 8.27785,6.69617 12.77447,9.70459c3.33839,2.23206 6.65976,4.46411 9.96408,6.69617c8.92509,6.08154 18.58259,11.38672 28.97249,15.91553c1.39668,0.61462 2.84445,1.03516 4.34332,1.2616c5.21198,0.90576 10.56023,1.01898 16.04473,0.33966c13.72829,-1.64978 27.0989,-3.26721 40.11183,-4.85229c0,0.09705 0,0.17792 0,0.24261c-10.59429,4.43176 -21.68253,8.32977 -33.26471,11.69403c-5.96142,1.71448 -12.99589,2.23206 -21.10342,1.55273c-1.97578,-0.19409 -3.86641,-0.5661 -5.67186,-1.11603c-11.54812,-3.49365 -21.80176,-8.21655 -30.76092,-14.1687c-8.99323,-5.95215 -17.45844,-12.4057 -25.39564,-19.36066c-5.79109,-5.01404 -11.56515,-10.02808 -17.32218,-15.04211c-1.94172,-1.68213 -4.0197,-3.20251 -6.23394,-4.56116c-0.85163,-4.62585 -0.71537,-9.46198 0.40878,-14.50836c2.86148,-12.61597 3.03181,-25.49072 0.51098,-38.62427c-1.19228,-6.24329 -2.24831,-12.61597 -3.16807,-19.11804c-1.6692,-12.22778 -3.38949,-24.45557 -5.16088,-36.68335c1.83952,-1.1969 3.71311,-2.31293 5.62077,-3.34808c0.06813,-0.03235 0.15329,-0.04852 0.25549,-0.04852c1.49887,9.15466 2.99774,18.37402 4.49661,27.65808c1.97578,12.48657 4.03673,25.00549 6.18284,37.55676z" fill-opacity="0.99608" fill="#2b2c40"/><path d="M729.13469,474.77551c0.13626,0.58228 0.25549,1.16455 0.35769,1.74683c1.73733,8.1842 3.40652,16.41693 5.00759,24.69818c0.06813,0 0.13626,0.01617 0.20439,0.04852c0.51098,0.48523 1.03899,0.95428 1.58403,1.40717c0.06813,0 0.15329,0 0.25549,0c6.19987,0.80872 12.07613,1.94092 17.62877,3.39661c0.37472,2.03796 0.52801,3.97888 0.45988,5.82275c-0.30659,6.17859 0.52801,11.69403 2.5038,16.54633c4.22409,10.48096 12.008,17.58148 23.35173,21.30157c0.57911,2.68494 1.26041,5.27283 2.04391,7.76367c3.54279,11.09558 7.05151,22.30438 10.52616,33.6264c3.40652,11.09558 6.88118,22.20734 10.42397,33.33527c0,0.09705 0.01703,0.14557 0.0511,0.14557c1.73733,1.1969 3.33839,2.52319 4.8032,3.97888c0,0.09705 0,0.17792 0,0.24261c-2.89555,-1.1322 -5.72296,-2.3291 -8.48225,-3.5907c-0.06813,-0.03235 -0.13626,-0.04852 -0.20439,-0.04852c-3.95157,-5.30518 -6.76195,-11.75873 -8.43115,-19.36066c-1.32854,-5.88745 -2.77632,-11.72638 -4.34332,-17.51678c-3.134,-11.48376 -6.54053,-22.72491 -10.21957,-33.72345c-9.77673,-5.20813 -17.45844,-12.35718 -23.04514,-21.44714c-3.47466,-5.66101 -5.16088,-12.98798 -5.05869,-21.9809c-5.96142,-2.03796 -12.26349,-3.72009 -18.90621,-5.04639c-0.1022,-0.03235 -0.18736,-0.04852 -0.25549,-0.04852c-1.80546,-8.79883 -3.21917,-17.93732 -4.24112,-27.41547h0.15329c0.61317,1.94092 1.567,3.54218 2.86148,4.80377c0.03407,0.03235 0.1022,0.04852 0.20439,0.04852c0.8857,-2.49084 1.09009,-5.40222 0.61317,-8.73413z" fill-opacity="0.99216" fill="#2b2c3f"/><path d="M488.56591,641.74298c-2.04391,1.2616 -4.0708,2.52319 -6.08065,3.78479c-2.38457,1.52039 -4.00267,3.84949 -4.8543,6.9873c-0.91976,3.49365 -1.58403,7.24609 -1.99282,11.25732c-0.54504,5.24048 0.54504,9.3811 3.27026,12.42188c1.77139,1.97327 3.64498,3.84949 5.62077,5.62866c7.83501,7.052 17.10075,12.66449 27.79724,16.83746c3.47466,1.35864 6.65976,2.94373 9.5553,4.75525c0.95383,0.61462 1.82249,1.31012 2.60599,2.08649c-0.17033,0 -0.34065,-0.01617 -0.51098,-0.04852c-13.35358,-1.74683 -24.59511,-5.53162 -33.72459,-11.35437c-1.15822,-0.74402 -2.33347,-1.43951 -3.52575,-2.08649c-8.51631,-4.62585 -15.26123,-10.88531 -20.23476,-18.77838c0,-0.0647 0,-0.14557 0,-0.24261c0.51098,-12.74536 3.15104,-23.50128 7.92017,-32.26776c1.12415,-0.38818 2.12908,-0.88959 3.01477,-1.50421c8.55038,-6.34033 17.44141,-12.35718 26.67309,-18.05054c2.92961,-1.77917 4.93946,-4.35089 6.02955,-7.71515c3.64498,-11.12793 6.98338,-22.49847 10.01518,-34.11163c1.49887,-5.82275 2.86148,-11.74255 4.08783,-17.7594c0.61317,-3.17017 1.34558,-6.21094 2.19721,-9.12231c0.91976,-3.10547 1.29448,-6.03302 1.12415,-8.78265c0.7835,-1.81152 2.14611,-3.00842 4.08783,-3.5907c5.92735,-1.81152 10.4921,-4.90082 13.69423,-9.26788c6.30207,-8.54004 9.57233,-19.94293 9.81079,-34.20868v-0.09705c8.65257,-0.61462 17.16888,-1.31012 25.54893,-2.08649h0.1022c1.90765,-11.87195 3.57685,-23.92181 5.00759,-36.1496c0.06813,0 0.1022,0.01617 0.1022,0.04852c0.6813,3.72009 2.3505,6.45355 5.00759,8.20038c-2.11205,10.28687 -3.95157,20.88104 -5.51857,31.78253h-0.1022c-3.64498,1.16455 -7.73281,1.8277 -12.26349,1.98944c-5.00759,0.19409 -9.26575,0.74402 -12.77447,1.64978c-1.09009,6.24329 -2.28237,12.38953 -3.57685,18.43872c-1.94172,9.02527 -6.30207,15.75378 -13.08105,20.18555c-3.03181,2.00562 -6.4213,3.68774 -10.16848,5.04639c-3.33839,11.32202 -6.28504,23.0484 -8.83993,35.17914c-1.26041,5.9845 -2.62302,11.9043 -4.08783,17.7594c-1.83952,7.21375 -3.57685,14.47601 -5.21198,21.7868c-0.27252,1.1969 -0.27252,2.3291 0,3.39661c-8.55038,6.37268 -17.45844,12.37335 -26.72419,18.00201z" fill-opacity="0.99608" fill="#2b2c3f"/><path d="M482.48527,645.52777c2.00985,-1.2616 4.03673,-2.52319 6.08065,-3.78479c9.26575,-5.62866 18.17381,-11.62933 26.72419,-18.00201c-0.27252,-1.0675 -0.27252,-2.19971 0,-3.39661c1.63513,-7.31079 3.37246,-14.57306 5.21198,-21.7868c1.46481,-5.8551 2.82742,-11.7749 4.08783,-17.7594c2.55489,-12.13074 5.50154,-23.85712 8.83993,-35.17914c3.74718,-1.35864 7.13667,-3.04077 10.16848,-5.04639c6.77898,-4.43176 11.13934,-11.16028 13.08105,-20.18555c1.29448,-6.04919 2.48676,-12.19543 3.57685,-18.43872c3.50872,-0.90576 7.76688,-1.45569 12.77447,-1.64978c4.53068,-0.16174 8.61851,-0.82489 12.26349,-1.98944h0.1022c1.567,-10.90149 3.40652,-21.49567 5.51857,-31.78253c-2.65709,-1.74683 -4.32629,-4.48029 -5.00759,-8.20038c0,-0.03235 -0.03407,-0.04852 -0.1022,-0.04852c1.73733,-8.92822 3.27026,-18.13141 4.59881,-27.60956c1.70326,-12.26013 3.54279,-24.79523 5.51857,-37.60529c1.97578,-12.51892 4.61584,-24.42322 7.92017,-35.71289c1.6692,-5.75806 3.33839,-11.43524 5.00759,-17.03156c1.70326,-5.75806 4.53068,-10.40009 8.48225,-13.92609c3.95157,-3.526 8.63554,-6.4212 14.05191,-8.68561c5.21198,-2.19971 11.2245,-3.68774 18.03755,-4.46411c3.64498,-0.42053 7.28996,-0.32349 10.93494,0.29114c9.57233,1.55273 18.59962,3.75244 27.08187,6.59912c11.20747,3.78479 19.9963,9.88251 26.3665,18.29315c0,0.09705 0.01703,0.16174 0.0511,0.19409c0.61317,0.71167 1.02196,0.48523 1.22635,-0.67932c0.03407,-0.58228 0.17033,-0.64697 0.40878,-0.19409c1.90765,3.23486 3.04884,7.26227 3.42356,12.08221c0.34065,4.91699 0.52801,10.09277 0.56208,15.52734c0.03407,13.97461 0.64724,27.48016 1.83952,40.51666c0.91976,9.96338 1.87359,19.82971 2.86148,29.599c1.29448,13.00415 2.94664,25.3775 4.95649,37.12006c0,0.64697 0,1.29395 0,1.94092c0,0.09705 0,0.17792 0,0.24261h-0.15329c0.47691,3.33191 0.27252,6.24329 -0.61317,8.73413c-0.1022,0 -0.17033,-0.01617 -0.20439,-0.04852c-1.29448,-1.2616 -2.24831,-2.86285 -2.86148,-4.80377h-0.15329c1.02196,9.47815 2.43567,18.61664 4.24112,27.41547c0.06813,0 0.15329,0.01617 0.25549,0.04852c6.64272,1.32629 12.94479,3.00842 18.90621,5.04639c-0.1022,8.99292 1.58403,16.31989 5.05869,21.9809c5.5867,9.08997 13.26841,16.23901 23.04514,21.44714c3.67905,10.99854 7.08557,22.23969 10.21957,33.72345c1.567,5.79041 3.01477,11.62933 4.34332,17.51678c1.6692,7.60193 4.47958,14.05548 8.43115,19.36066c0.06813,0 0.13626,0.01617 0.20439,0.04852c2.75928,1.2616 5.5867,2.4585 8.48225,3.5907c2.4527,2.42615 4.95649,4.81995 7.51139,7.1814c2.55489,2.3291 5.16088,4.60968 7.81797,6.84174c8.14159,6.76086 14.10301,15.59204 17.88425,26.49353c-1.43074,9.80164 -4.30925,18.22845 -8.63554,25.28046c-0.03407,0.0647 -0.0511,0.12939 -0.0511,0.19409c-7.05151,4.14063 -14.39257,8.00629 -22.02318,11.59698c-0.06813,0.03235 -0.13626,0.04852 -0.20439,0.04852c0,-0.0647 0,-0.14557 0,-0.24261c-13.01292,1.58508 -26.38353,3.20251 -40.11183,4.85229c-5.4845,0.67932 -10.83275,0.5661 -16.04473,-0.33966c-1.49887,-0.22644 -2.94664,-0.64697 -4.34332,-1.2616c-10.3899,-4.52881 -20.0474,-9.83398 -28.97249,-15.91553c-3.30433,-2.23206 -6.62569,-4.46411 -9.96408,-6.69617c-4.49661,-3.00842 -8.75477,-6.24329 -12.77447,-9.70459c-6.4724,-5.59631 -12.33162,-11.75873 -17.57767,-18.48724c-0.85163,-0.32349 -1.60107,-0.74402 -2.24831,-1.2616c-0.03407,-0.03235 -0.0511,-0.09705 -0.0511,-0.19409c-0.17033,-6.85791 0.81757,-13.00415 2.96368,-18.43872c1.39668,-3.49365 1.567,-7.24609 0.51098,-11.25732c-0.81757,-3.07312 -1.48184,-6.13007 -1.99282,-9.17084c-2.14611,-12.55127 -4.20706,-25.07019 -6.18284,-37.55676c-1.49887,-9.28406 -2.99774,-18.50342 -4.49661,-27.65808c0,-0.0647 0.01703,-0.11322 0.0511,-0.14557c2.65709,-1.29395 4.51365,-3.34808 5.56967,-6.16241c0,-0.0647 0,-0.14557 0,-0.24261c0.06813,-2.29675 0.15329,-4.56116 0.25549,-6.79321c-1.02196,-1.77917 -2.19721,-3.41278 -3.52575,-4.90082c-0.03407,-0.03235 -0.0511,-0.09705 -0.0511,-0.19409c-6.30207,-2.91138 -13.88159,-4.57733 -22.73855,-4.99786c-4.701,-0.22644 -9.81079,-0.33966 -15.32936,-0.33966c-1.70326,0 -3.32136,0.16174 -4.8543,0.48523c-3.30433,3.10547 -5.17792,7.55341 -5.62077,13.34381c0,0.09705 0,0.17792 0,0.24261c3.09994,3.62305 7.01744,6.43738 11.75251,8.44299c0.06813,0.03235 0.15329,0.04852 0.25549,0.04852c-1.02196,9.28406 -2.09501,18.90778 -3.21917,28.87115c-1.43074,12.9718 -2.74225,25.99213 -3.93454,39.06097c-0.23846,2.3291 -0.30659,4.67438 -0.20439,7.03583c0.06813,2.00562 0.35769,3.88184 0.86866,5.62866c2.31644,7.86072 4.63287,15.68909 6.94931,23.48511c0.71537,2.4585 0.81757,5.20813 0.30659,8.2489c-5.10979,6.01685 -11.70141,10.67505 -19.77488,13.97461c-5.24605,2.13501 -10.62836,4.27002 -16.14693,6.40503c-10.83275,4.10828 -22.00615,7.95776 -33.5202,11.54846c-11.20747,3.4613 -22.63636,6.72852 -34.28667,9.80164c-2.21424,-0.25879 -4.68397,-0.42053 -7.40919,-0.48523c-0.1022,0 -0.18736,0 -0.25549,0c-0.7835,-0.77637 -1.65216,-1.47186 -2.60599,-2.08649c-2.89555,-1.81152 -6.08065,-3.39661 -9.5553,-4.75525c-10.69649,-4.17297 -19.96223,-9.78546 -27.79724,-16.83746c-1.97578,-1.77917 -3.84937,-3.6554 -5.62077,-5.62866c-2.72522,-3.04077 -3.81531,-7.1814 -3.27026,-12.42187c0.40878,-4.01123 1.07306,-7.76367 1.99282,-11.25732c0.85163,-3.13782 2.46973,-5.46692 4.8543,-6.9873M634.09265,322.65607c-7.9372,3.07312 -13.575,8.28125 -16.91339,15.62439c-1.77139,3.81714 -3.30433,7.87689 -4.59881,12.17926c-3.40652,11.12793 -6.38723,22.66022 -8.94213,34.59686c-2.55489,12.13074 -4.7521,24.56879 -6.59163,37.31415c-1.83952,12.9718 -3.45762,25.74951 -4.8543,38.33313c0.71537,0.67932 1.48184,1.32629 2.2994,1.94092c8.38005,6.53442 18.73589,11.2735 31.0675,14.21722c11.99097,2.87903 25.73629,4.28619 41.23598,4.2215c3.95157,-0.03235 7.69875,-0.21027 11.24153,-0.53375c13.79642,-1.32629 26.29837,-3.93036 37.50584,-7.81219c1.39668,-0.48523 2.81038,-0.88959 4.24112,-1.21307c2.11205,-0.45288 3.1851,-1.79535 3.21917,-4.0274c-1.83952,-12.71301 -3.62795,-25.42603 -5.36528,-38.13904c-0.91976,-6.53442 -1.49887,-13.39233 -1.73733,-20.57373c-0.54504,-13.84521 -1.15822,-27.67426 -1.83952,-41.48712c-0.27252,-6.04919 -0.52801,-12.11456 -0.76647,-18.19611c-2.92961,-6.85791 -7.37513,-12.26013 -13.33654,-16.20667c-0.06813,-0.03235 -0.13626,-0.04852 -0.20439,-0.04852c-3.98563,11.16028 -5.33121,23.93799 -4.03673,38.33313c0.61317,6.66382 1.36261,13.29529 2.24831,19.89441c0.30659,2.4585 0.47691,4.64203 0.51098,6.5506c-3.37246,4.10828 -8.14159,6.85791 -14.3074,8.2489c-10.01518,2.29675 -21.23968,2.8952 -33.6735,1.79535c-3.44059,-0.32349 -6.76195,-0.92194 -9.96408,-1.79535c-2.92961,-0.80872 -5.75703,-1.77917 -8.48225,-2.91138c-0.64724,-0.12939 -1.22635,-0.32349 -1.73733,-0.58228c-0.03407,0 -0.0511,-0.04852 -0.0511,-0.14557c-0.1022,0 -0.18736,-0.01617 -0.25549,-0.04852c-3.98563,-1.90857 -7.9883,-3.83331 -12.008,-5.77423c-0.8857,-4.39941 -1.20932,-9.08997 -0.97086,-14.07166c0.20439,-3.55835 0.56208,-6.93878 1.07306,-10.1413c0.95383,-6.14624 1.95875,-12.30865 3.01477,-18.48724c1.05602,-6.37268 2.79335,-12.04987 5.21198,-17.03156c2.52083,-5.14343 5.10979,-9.81781 7.76688,-14.02313M741.19378,539.60217c0.03407,-0.29114 0.1022,-0.6308 0.20439,-1.01898c-8.17566,2.84668 -16.11286,5.90363 -23.81161,9.17084c-0.06813,0.03235 -0.13626,0.04852 -0.20439,0.04852c4.9054,1.2616 10.35583,1.98944 16.35132,2.18353c0.06813,0 0.15329,0 0.25549,0c4.29222,-1.55273 6.69382,-5.01404 7.2048,-10.38391M788.8681,637.08478c0.03407,-0.0647 0.0511,-0.14557 0.0511,-0.24261c-10.04925,4.94934 -19.9963,9.99573 -29.84116,15.13916c-2.79335,1.45569 -5.62077,2.87903 -8.48225,4.27002c9.12949,-1.68213 18.49743,-3.526 28.10383,-5.53162c0.06813,-0.03235 0.15329,-0.04852 0.25549,-0.04852c3.67905,-4.17297 6.98338,-8.70178 9.91299,-13.58643M561.02269,536.88489c2.48676,5.66101 5.85922,10.46478 10.11738,14.41132c0.20439,0.19409 0.40878,0.40436 0.61317,0.6308c0.91976,0 1.85656,0 2.81038,0c0.06813,0 0.15329,0 0.25549,0c3.54279,-1.55273 6.93228,-3.28339 10.16848,-5.19196c0.03407,0 0.0511,-0.04852 0.0511,-0.14557c-8.95916,-2.23206 -16.89636,-5.45074 -23.81161,-9.65607c-0.06813,-0.03235 -0.13626,-0.04852 -0.20439,-0.04852M537.97756,644.3147c2.31644,0.35583 4.46255,0.53375 6.43833,0.53375c-8.55038,-4.30237 -17.33921,-8.41064 -26.3665,-12.32483c-0.06813,-0.03235 -0.13626,-0.04852 -0.20439,-0.04852c0.81757,2.3938 1.73733,4.67438 2.75928,6.84174c0.03407,0.0647 0.0511,0.12939 0.0511,0.19409c5.07572,2.19971 10.84978,3.80096 17.32218,4.80377z" fill-opacity="0.99608" fill="#000000"/><path d="M544.41589,644.84845c-1.97578,0 -4.12189,-0.17792 -6.43833,-0.53375c-6.4724,-1.00281 -12.24646,-2.60406 -17.32218,-4.80377c0,-0.0647 -0.01703,-0.12939 -0.0511,-0.19409c-1.02196,-2.16736 -1.94172,-4.44794 -2.75928,-6.84174c0.06813,0 0.13626,0.01617 0.20439,0.04852c9.02729,3.91418 17.81612,8.02246 26.3665,12.32483z" fill="#2a2b3e"/><path d="M571.14007,551.2962c-4.25816,-3.94653 -7.63062,-8.75031 -10.11738,-14.41132c0.06813,0 0.13626,0.01617 0.20439,0.04852c6.91525,4.20532 14.85245,7.42401 23.81161,9.65607c0,0.09705 -0.01703,0.14557 -0.0511,0.14557c-3.2362,1.90857 -6.62569,3.63922 -10.16848,5.19196c-0.1022,0 -0.18736,0 -0.25549,0c-0.95383,0 -1.89062,0 -2.81038,0c-0.20439,-0.22644 -0.40878,-0.43671 -0.61317,-0.6308M788.91919,636.84216c0,0.09705 -0.01703,0.17792 -0.0511,0.24261c-2.92961,4.88464 -6.23394,9.41345 -9.91299,13.58643c-0.1022,0 -0.18736,0.01617 -0.25549,0.04852c-9.6064,2.00562 -18.97434,3.84949 -28.10383,5.53162c2.86148,-1.39099 5.6889,-2.81433 8.48225,-4.27002c9.84486,-5.14343 19.79191,-10.18982 29.84116,-15.13916M741.39818,538.58319c-0.1022,0.38818 -0.17033,0.72784 -0.20439,1.01898c-0.51098,5.36987 -2.91258,8.83118 -7.2048,10.38391c-0.1022,0 -0.18736,0 -0.25549,0c-5.99548,-0.19409 -11.44592,-0.92194 -16.35132,-2.18353c0.06813,0 0.13626,-0.01617 0.20439,-0.04852c7.69875,-3.26721 15.63595,-6.32416 23.81161,-9.17084z" fill="#2b2c3f"/><path d="M617.17925,338.28046c3.33839,-7.34314 8.97619,-12.55127 16.91339,-15.62439c-2.65709,4.20532 -5.24605,8.8797 -7.76688,14.02313c-2.41863,4.98169 -4.15596,10.65887 -5.21198,17.03156c-1.05602,6.17859 -2.06095,12.341 -3.01477,18.48724c-0.51098,3.20251 -0.86866,6.58295 -1.07306,10.1413c-0.23846,4.98169 0.08516,9.67224 0.97086,14.07166c4.0197,1.94092 8.02237,3.86566 12.008,5.77423c0.06813,0.03235 0.15329,0.04852 0.25549,0.04852c0,0.09705 0.01703,0.14557 0.0511,0.14557c0.51098,0.25879 1.09009,0.45288 1.73733,0.58228c2.72522,1.1322 5.55264,2.10266 8.48225,2.91138c3.20213,0.87341 6.52349,1.47186 9.96408,1.79535c12.43382,1.09985 23.65831,0.5014 33.6735,-1.79535c6.16581,-1.39099 10.93494,-4.14062 14.3074,-8.2489c-0.03407,-1.90857 -0.20439,-4.0921 -0.51098,-6.5506c-0.8857,-6.59912 -1.63513,-13.23059 -2.24831,-19.89441c-1.29448,-14.39514 0.0511,-27.17285 4.03673,-38.33313c0.06813,0 0.13626,0.01617 0.20439,0.04852c5.96142,3.94653 10.40693,9.34875 13.33654,16.20667c0.23846,6.08154 0.49395,12.14691 0.76647,18.19611c0.6813,13.81287 1.29448,27.64191 1.83952,41.48712c0.23846,7.1814 0.81757,14.03931 1.73733,20.57373c1.73733,12.71301 3.52575,25.42603 5.36528,38.13904c-0.03407,2.23206 -1.10712,3.57452 -3.21917,4.0274c-1.43074,0.32349 -2.84445,0.72784 -4.24112,1.21307c-11.20747,3.88184 -23.70941,6.4859 -37.50584,7.81219c-3.54279,0.32349 -7.28996,0.5014 -11.24153,0.53375c-15.49969,0.0647 -29.24501,-1.34247 -41.23598,-4.2215c-12.33162,-2.94373 -22.68745,-7.6828 -31.0675,-14.21722c-0.81757,-0.61462 -1.58403,-1.2616 -2.2994,-1.94092c1.39668,-12.58362 3.01477,-25.36133 4.8543,-38.33313c1.83952,-12.74536 4.03673,-25.18341 6.59163,-37.31415c2.55489,-11.93665 5.5356,-23.46893 8.94213,-34.59686c1.29448,-4.30237 2.82742,-8.36212 4.59881,-12.17926z" fill="#fefefe"/><path d="M741.95463,442.65963c-0.0265,0.09642 -0.02809,0.16512 -0.00478,0.20609c0.66885,1.84303 1.25135,3.74875 1.74748,5.71715c-0.09642,-0.0265 -0.17677,-0.04857 -0.24105,-0.06624c-5.37313,-1.58016 -10.61805,-2.93498 -15.73478,-4.06444c-1.33443,0.70491 -2.36547,1.75244 -3.09314,3.14259c-2.41755,4.52081 -4.49676,9.4457 -6.23762,14.77467c-4.18019,1.37477 -8.25107,2.91784 -12.21264,4.62922c-2.36119,1.04498 -3.88573,3.32232 -4.57361,6.83202c-1.16871,5.76273 -1.33518,11.02309 -0.49943,15.78108c0.80999,4.47437 0.07454,9.16357 -2.20634,14.06761c-2.89447,6.2564 -4.99425,12.76574 -6.29935,19.52801c0.44851,0.88373 0.86329,1.82732 1.24434,2.83078c0.33443,0.92151 0.79619,1.75703 1.38528,2.50655c6.52346,8.46407 14.56731,16.04965 24.13156,22.75673c-0.0265,0.09642 -0.0325,0.18119 -0.01803,0.2543c0.91032,3.98343 1.9757,7.90576 3.19614,11.767c2.07639,1.12364 4.62274,1.85791 7.63904,2.2028c9.83229,1.07711 18.59274,0.07946 26.28135,-2.99294c0.06428,0.01766 0.10808,0.04698 0.13139,0.08795c0.9655,2.65046 1.91051,5.31257 2.83503,7.98634c0.06428,0.01766 0.10808,0.04698 0.13139,0.08795c0.31112,0.88054 0.91014,1.02786 1.79705,0.44195c0.06428,0.01766 0.10808,0.04698 0.13139,0.08795c0.75644,1.90167 1.16904,3.98539 1.23779,6.25116c-0.0265,0.09642 -0.04857,0.17677 -0.06624,0.24105c-1.3835,0.38032 -3.07885,0.26013 -5.08604,-0.36055c-0.09642,-0.0265 -0.17677,-0.04857 -0.24105,-0.06624c-1.73268,-1.99708 -3.15365,-4.18506 -4.26292,-6.56391c-0.02331,-0.04097 -0.0671,-0.07029 -0.13139,-0.08795c-8.38714,1.46318 -17.28426,2.0776 -26.69135,1.84325c-0.00883,0.03214 -0.02208,0.08035 -0.03974,0.14463c-1.70345,-0.46808 -3.39083,-0.93175 -5.06215,-1.39101c-0.09642,-0.0265 -0.17677,-0.04857 -0.24105,-0.06624c-3.58509,-4.06164 -6.05068,-8.80082 -7.39677,-14.21756c-0.17127,-0.63471 -0.43171,-1.25936 -0.78135,-1.87394c-2.41601,-3.91323 -5.99815,-7.23085 -10.7464,-9.95287c-0.89356,-0.52208 -1.67586,-1.13457 -2.3469,-1.83747c-4.6796,-4.98461 -8.58957,-10.37994 -11.72988,-16.186c-1.54967,-2.91469 -1.3801,-6.73964 0.50872,-11.47487c2.52007,-6.15188 4.5736,-12.93318 6.16058,-20.34391c1.49794,-6.70928 1.42163,-12.65857 -0.22893,-17.84786c-1.19148,-3.71501 -0.64505,-7.40185 1.63929,-11.06051c1.21688,-1.9125 2.82436,-3.23373 4.82245,-3.96368c0.73432,-0.28216 1.46581,-0.61696 2.19448,-1.00437c3.18701,-1.78595 6.5605,-3.24412 10.12046,-4.3745c3.12482,-7.4721 6.85567,-13.87892 11.19255,-19.22045c0.0498,-0.05545 0.08795,-0.13139 0.11445,-0.22781c6.18447,0.76608 11.9477,2.43616 17.28969,5.01022c0.06428,0.01766 0.14463,0.03974 0.24105,0.06624z" fill-opacity="0.99608" fill="#2b2c3f"/><path d="M741.94985,442.86572c-0.02331,-0.04097 -0.02172,-0.10967 0.00478,-0.20609c8.75635,-3.43578 17.63206,-6.61407 26.62715,-9.53487c10.28216,-3.32761 20.96781,-5.92214 32.05695,-7.78358c0.06428,0.01766 0.14022,0.05581 0.22781,0.11445c6.72331,3.33387 12.69217,6.77154 17.9066,10.31301c0.06428,0.01766 0.13298,0.01926 0.20609,0.00478c3.09378,-1.94984 6.22252,-3.83821 9.38623,-5.66513c0.06428,0.01766 0.14463,0.03974 0.24105,0.06624c0.8678,0.23846 1.75166,0.48133 2.6516,0.72862c5.53857,5.25521 10.01186,11.11644 13.41986,17.58371c1.54967,2.91469 2.85793,5.95315 3.92476,9.1154c3.45053,10.21224 6.43871,20.66038 8.96454,31.34444c-0.86898,1.9044 -2.10807,3.20587 -3.71729,3.9044c-3.56952,1.54257 -6.99194,3.36753 -10.26727,5.47489c1.46627,3.72139 2.12193,7.87681 1.96697,12.46627c-0.10962,2.2859 -0.74319,4.15128 -1.9007,5.59615c-0.99044,1.21424 -1.95033,2.50601 -2.87967,3.87531c-6.44431,9.74016 -13.68272,18.15595 -21.71521,25.24738c-8.14658,7.12921 -16.72278,13.43174 -25.72861,18.90758c-9.03796,5.46701 -18.72416,9.77072 -29.05858,12.91114c-0.57043,0.18893 -1.10712,0.31799 -1.61008,0.38719c0.01766,-0.06428 0.03974,-0.14463 0.06624,-0.24105c-0.06875,-2.26578 -0.48134,-4.3495 -1.23779,-6.25116c-0.02331,-0.04097 -0.0671,-0.07029 -0.13139,-0.08795c-0.88692,0.58591 -1.48593,0.43859 -1.79705,-0.44195c-0.02331,-0.04097 -0.0671,-0.07029 -0.13139,-0.08795c-0.92452,-2.67377 -1.86953,-5.33588 -2.83503,-7.98634c-0.02331,-0.04097 -0.0671,-0.07029 -0.13139,-0.08795c-7.68861,3.0724 -16.44906,4.07004 -26.28135,2.99294c-3.0163,-0.34489 -5.56265,-1.07916 -7.63904,-2.2028c-1.22044,-3.86124 -2.28582,-7.78357 -3.19614,-11.767c-0.01448,-0.07311 -0.00847,-0.15788 0.01803,-0.2543c-9.56425,-6.70708 -17.6081,-14.29266 -24.13156,-22.75673c-0.58909,-0.74952 -1.05085,-1.58504 -1.38528,-2.50655c-0.38105,-1.00346 -0.79582,-1.94705 -1.24434,-2.83078c1.3051,-6.76227 3.40488,-13.27161 6.29935,-19.52801c2.28088,-4.90404 3.01633,-9.59324 2.20634,-14.06761c-0.83575,-4.75799 -0.66928,-10.01835 0.49943,-15.78108c0.68788,-3.5097 2.21241,-5.78704 4.57361,-6.83202c3.96158,-1.71138 8.03246,-3.25445 12.21264,-4.62922c1.74087,-5.32897 3.82007,-10.25386 6.23762,-14.77467c0.72767,-1.39015 1.75872,-2.43768 3.09314,-3.14259c5.11673,1.12947 10.36166,2.48428 15.73478,4.06444c0.06428,0.01766 0.14463,0.03974 0.24105,0.06624c-0.49613,-1.96841 -1.07863,-3.87412 -1.74748,-5.71715M720.8255,493.88994c0.0498,-0.05545 0.08795,-0.13139 0.11445,-0.22781c-4.12993,-0.4435 -8.12725,-0.67772 -11.99195,-0.70266c-0.09642,-0.0265 -0.17677,-0.04857 -0.24105,-0.06624c-0.23209,0.59301 -0.47496,1.47687 -0.72862,2.6516c-0.0265,0.09642 -0.04857,0.17677 -0.06624,0.24105c0.28171,2.49713 0.24006,5.16466 -0.12495,8.0026c-0.0265,0.09642 -0.04857,0.17677 -0.06624,0.24105c4.70618,-2.78577 9.07438,-6.16563 13.10461,-10.1396z" fill-opacity="0.99608" fill="#000000"/><path d="M720.93995,493.66213c-0.0265,0.09642 -0.06465,0.17236 -0.11445,0.22781c-4.03022,3.97397 -8.39843,7.35383 -13.10461,10.1396c0.01766,-0.06428 0.03974,-0.14463 0.06624,-0.24105c0.36501,-2.83793 0.40667,-5.50547 0.12495,-8.0026c0.01766,-0.06428 0.03974,-0.14463 0.06624,-0.24105c0.25366,-1.17473 0.49654,-2.05859 0.72862,-2.6516c0.06428,0.01766 0.14463,0.03974 0.24105,0.06624c3.8647,0.02494 7.86202,0.25916 11.99195,0.70266z" fill="#2a2b3e"/><path d="M715.48978,381.95778c3.34891,-4.33509 8.02235,-8.14197 14.02034,-11.42063c2.46711,0.19289 4.91486,0.33968 7.34325,0.44037c11.22676,0.56252 21.50494,3.38536 30.83455,8.46853c0.03873,0.09219 0.05563,0.17547 0.05072,0.24984c1.37827,6.72394 1.79649,13.05578 1.25464,18.99554c3.14635,1.89598 6.22786,3.98189 9.24453,6.25772c7.59578,5.77531 15.16237,11.65326 22.69977,17.63385c4.31727,3.39255 8.33156,7.52696 12.04287,12.40323c0.03873,0.09219 0.071,0.16902 0.09681,0.23048c1.64245,4.08227 3.00554,7.75767 4.08926,11.0262c-0.09219,0.03873 -0.13183,0.07345 -0.11893,0.10418c-1.00897,5.77444 -3.37075,10.9964 -7.08534,15.66586c-0.09219,0.03873 -0.16902,0.071 -0.23048,0.09681c-8.25607,4.44409 -15.21356,5.73971 -20.87249,3.88685c-5.70705,-6.09868 -11.65624,-11.69797 -17.84757,-16.79786c-8.50179,-6.98546 -17.25954,-13.37535 -26.27326,-19.16965c-1.74365,0.84088 -3.33428,1.40056 -4.77188,1.67905c-4.29988,0.86619 -8.80625,2.14449 -13.51912,3.83491c-0.75235,-1.2747 -1.51608,-2.4904 -2.29117,-3.64709c-7.084,-10.58169 -14.168,-21.16339 -21.252,-31.74508c3.78705,-6.21832 7.98223,-12.28269 12.58551,-18.19312M766.25161,402.87991c-2.98462,-0.04781 -6.09799,0.1573 -9.34012,0.61533c1.58972,7.14126 3.5722,14.44292 5.94743,21.90498c0.03873,0.09219 0.071,0.16902 0.09681,0.23048c3.35214,-0.5404 6.65819,-1.06143 9.91813,-1.56311l-0.05809,-0.13829c-0.93381,-4.633 -1.85871,-9.28782 -2.7747,-13.96447c-0.01291,-0.03073 0.02673,-0.06546 0.11893,-0.10418c3.82542,-0.01614 7.28054,0.03288 10.36535,0.14707l-0.05809,-0.13829c-4.30003,-2.74903 -8.78074,-5.02449 -13.44213,-6.82637c-0.2182,-0.08911 -0.47603,-0.14349 -0.77351,-0.16315M780.71909,413.1801c-1.92071,-0.09703 -3.91762,0.05487 -5.99073,0.45569c1.25909,8.0755 2.38727,16.09754 3.38453,24.06611c0.00799,0.1051 0.0249,0.18838 0.05072,0.24984c4.25074,-0.12249 8.37918,0.02331 12.38532,0.43739c0.07437,0.00491 0.15765,-0.01199 0.24984,-0.05072c-0.84287,-5.10504 -2.14149,-10.43439 -3.89586,-15.98807l0.13829,-0.05809c3.22189,0.5266 6.14567,0.81688 8.77135,0.87086l-0.17426,-0.41486c-4.06959,-3.74965 -8.4397,-6.79463 -13.11034,-9.13492c-0.54949,-0.27533 -1.15244,-0.41974 -1.80886,-0.43323z" fill-opacity="0.99608" fill="#000000"/><path d="M774.72836,413.63579c2.07311,-0.40082 4.07002,-0.55272 5.99073,-0.45569c0.65642,0.01349 1.25937,0.15791 1.80886,0.43323c4.67063,2.34029 9.04075,5.38527 13.11034,9.13492l0.17426,0.41486c-2.62568,-0.05398 -5.54946,-0.34426 -8.77135,-0.87086l-0.13829,0.05809c1.75438,5.55368 3.053,10.88303 3.89586,15.98807c-0.09219,0.03873 -0.17547,0.05563 -0.24984,0.05072c-4.00614,-0.41409 -8.13458,-0.55988 -12.38532,-0.43739c-0.02582,-0.06146 -0.04272,-0.14474 -0.05072,-0.24984c-0.99726,-7.96857 -2.12544,-15.9906 -3.38453,-24.06611M756.91149,403.49524c3.24213,-0.45803 6.3555,-0.66314 9.34012,-0.61533c0.29748,0.01966 0.55532,0.07404 0.77351,0.16315c4.66139,1.80188 9.1421,4.07734 13.44213,6.82637l0.05809,0.13829c-3.08481,-0.11419 -6.53992,-0.16321 -10.36535,-0.14707c-0.09219,0.03873 -0.13183,0.07345 -0.11893,0.10418c0.91599,4.67664 1.84089,9.33146 2.7747,13.96447l0.05809,0.13829c-3.25995,0.50167 -6.56599,1.02271 -9.91813,1.56311c-0.02582,-0.06146 -0.05809,-0.13829 -0.09681,-0.23048c-2.37523,-7.46206 -4.3577,-14.76372 -5.94743,-21.90498z" fill-opacity="0.99608" fill="#ffffff"/><path d="M526.01416,255.97109c-0.00051,-1.90727 -0.03236,-3.41025 -0.09557,-4.50892c-0.66583,-8.70838 2.05636,-14.46908 8.16658,-17.28209c0.06641,-0.00584 0.15088,0.00346 0.25342,0.0279c0.98046,0.1145 1.72611,0.03217 2.23693,-0.24701c1.76597,-1.22616 3.08475,-2.78104 3.95633,-4.66466c0.95951,-2.0252 1.4264,-4.32495 1.40067,-6.89923c-0.08646,-9.72975 1.56843,-17.9229 4.96469,-24.57945c4.94682,-9.5703 13.50042,-16.17869 25.6608,-19.82519c12.19358,-3.64942 25.2595,-6.32155 39.19775,-8.01638c14.4334,-1.77187 29.03761,-3.12376 43.81261,-4.05567c1.962,-0.13917 3.57135,0.08731 4.82807,0.67943c4.57348,-0.50279 9.17763,-0.65693 13.81246,-0.46242c13.37321,0.63027 26.24238,1.80682 38.60748,3.52965c12.26549,1.73159 23.39391,4.80131 33.38525,9.20916c3.79752,1.70703 7.22726,3.79778 10.28923,6.27223c7.10518,5.83295 11.88147,14.48083 14.32889,25.94362c1.47685,6.89702 2.67744,13.31641 3.60177,19.25819c0.06641,-0.00584 0.13428,0.00492 0.20361,0.03228c5.44764,2.96724 10.90896,5.89981 16.38396,8.79772c0.35087,2.84684 0.60119,5.50175 0.75098,7.96473c0.99833,14.76916 1.15552,28.72559 0.47159,41.86929c-0.67224,13.27652 -1.87562,26.03093 -3.61013,38.26322c-0.4588,3.15231 -0.78624,6.27632 -0.98232,9.37205c-0.35309,5.33422 -2.06411,9.46671 -5.13307,12.39747c-0.54669,0.52519 -1.1396,1.01236 -1.77872,1.46151c-0.09961,0.00876 -0.18116,0.03267 -0.24465,0.07172c-1.60366,0.40879 -3.24344,0.7873 -4.91935,1.13553c0.00876,0.09961 -0.00053,0.18409 -0.0279,0.25342c-0.19121,0.948 -0.35844,1.89964 -0.50169,2.85493c-0.14093,0.9356 -0.25982,1.86626 -0.35666,2.79197c-0.31369,2.96086 -0.41747,5.96481 -0.31132,9.01186c-6.96983,3.69173 -14.91069,6.61561 -23.82257,8.77167c-6.32377,1.52679 -12.3766,3.28071 -18.15848,5.26175c-2.87162,0.96947 -5.785,1.89505 -8.74016,2.77672c-9.17591,2.8127 -18.74658,5.27768 -28.712,7.39494c-6.53761,1.3783 -13.38521,2.46599 -20.54281,3.26307c-10.46638,1.22205 -21.33213,2.27847 -32.59728,3.16926c-7.34407,0.57925 -14.21729,0.61515 -20.61967,0.1077c-12.94341,-1.06963 -24.95442,-3.1415 -36.03303,-6.2156c-7.104,-1.99424 -13.23326,-5.10228 -18.38779,-9.32411c-0.98162,-0.77239 -1.92382,-1.59296 -2.82661,-2.4617c-0.00584,-0.06641 -0.02975,-0.14796 -0.07172,-0.24465c-0.39969,-1.16893 -0.78857,-2.35607 -1.16663,-3.56141c-0.40596,-1.23426 -0.80068,-2.4878 -1.18416,-3.76064c-0.09961,0.00876 -0.18409,-0.00053 -0.25342,-0.0279c-7.39132,-1.85929 -11.65126,-7.49085 -12.77982,-16.89468c-2.59154,-1.31122 -4.89538,-2.96564 -6.91154,-4.96325c-2.04644,-1.96149 -3.5527,-4.43897 -4.51878,-7.43245c-1.292,-4.03557 -2.38132,-8.23956 -3.26796,-12.61195c-2.52231,-12.69429 -4.51653,-26.42217 -5.98264,-41.18363c-1.13783,-11.41071 -1.72939,-22.31737 -1.77467,-32.71998M537.22048,244.1435c-0.09669,0.04197 -0.17824,0.06588 -0.24465,0.07172c-2.66626,4.685 -3.98271,10.6399 -3.94934,17.86469c0.05062,8.56174 0.50885,17.57282 1.3747,27.03322c0.00876,0.09961 -0.00053,0.18409 -0.0279,0.25342c-0.0441,0.63965 0.09203,1.04595 0.4084,1.21888c0.01461,0.16602 0.02922,0.33205 0.04382,0.49807c0.00876,0.09961 0.01607,0.18263 0.02191,0.24903c1.83962,12.92167 3.92005,25.53772 6.24128,37.84816c0.63589,3.42407 1.90626,6.07288 3.81112,7.94645c7.30502,-0.64274 14.60859,-1.30208 21.91069,-1.97803c14.73702,-1.36358 29.41693,-2.80578 44.03973,-4.32662l0.09961,-0.00876c0.00348,-2.24224 -0.0609,-4.49524 -0.19316,-6.759c0.06641,-0.00584 0.14942,-0.01315 0.24903,-0.02191c13.36366,-0.23889 26.72587,-0.49438 40.08661,-0.76648c0.06641,-0.00584 0.11768,0.00638 0.1538,0.03666c0.55066,0.55386 0.98018,1.25223 1.28858,2.0951c0.24226,-0.28901 0.44003,-0.32314 0.5933,-0.10239c1.20756,1.93492 2.20314,4.12271 2.98673,6.5634c0.40138,-0.00185 0.81936,-0.00517 1.25394,-0.00994c13.95843,-0.32468 27.83038,-0.49118 41.61588,-0.49949c14.01792,-0.02876 27.8782,-0.32808 41.58082,-0.89795c0.2912,-4.6768 0.52968,-9.38242 0.71542,-14.11686c0.56679,-13.33417 1.16186,-26.53698 1.78523,-39.60843c0.66348,-13.37614 1.35379,-26.63752 2.07092,-39.78414c-11.20851,-3.02921 -23.35141,-4.8887 -36.4287,-5.57848c-6.75594,-0.3425 -13.3849,-0.76309 -19.88689,-1.26178c-12.96785,-0.9671 -26.5472,-1.27808 -40.73806,-0.93295c-8.61647,0.18928 -17.29058,0.48402 -26.02233,0.88421c-15.29352,0.74331 -29.62532,2.33892 -42.99539,4.78685c-7.606,1.40538 -14.99963,2.94265 -22.18088,4.61182c-0.71882,0.19709 -1.45423,0.39565 -2.20626,0.59566l0.00876,0.09961c-6.9573,0.41138 -12.77955,1.74346 -17.46674,3.99627M625.04313,338.10645c0.00876,0.09961 0.01607,0.18263 0.02191,0.24903c-0.44868,1.74603 -1.22543,3.1863 -2.33023,4.32082c-0.03028,0.03613 -0.0425,0.08739 -0.03666,0.1538c-12.80239,1.29374 -25.44474,3.07533 -37.92704,5.34476c-0.09961,0.00876 -0.18263,0.01607 -0.24903,0.02191c2.04099,12.16779 5.35386,22.81828 9.93863,31.95147c0.00292,0.0332 0.05419,0.04542 0.1538,0.03666c12.54388,1.47286 25.74324,2.21882 39.59806,2.23787c13.65267,0.00338 28.04436,-0.91155 43.17506,-2.74476c4.96609,-0.60426 9.67784,-1.4371 14.13524,-2.49852c4.65079,-1.14536 9.03647,-2.45144 13.15705,-3.91823c4.64955,-8.0049 8.24852,-16.92122 10.79691,-26.74895c-0.00292,-0.0332 0.04542,-0.05419 0.14504,-0.06295c-0.07012,-0.79691 -0.14316,-1.62703 -0.21912,-2.49035c-0.00584,-0.06641 -0.01315,-0.14942 -0.02191,-0.24903c-13.48266,-0.35295 -27.21104,-0.26601 -41.18514,0.26082c-6.00313,0.22704 -11.68245,0.14116 -17.03795,-0.25764c-1.75001,-0.11372 -3.29243,-0.53012 -4.62724,-1.24922c-1.31858,-3.19669 -2.45546,-6.61014 -3.41064,-10.24035c-0.00584,-0.06641 -0.01315,-0.14942 -0.02191,-0.24903c-8.08918,0.4775 -16.16322,0.93694 -24.22212,1.37832c-0.09961,0.00876 -0.18263,0.01607 -0.24903,0.02191c0.13731,1.56062 0.27609,3.13784 0.41632,4.73166z" fill-opacity="0.99608" fill="#000000"/><path d="M625.06504,338.35548c-0.00584,-0.06641 -0.01315,-0.14942 -0.02191,-0.24903c-0.14023,-1.59382 -0.27901,-3.17104 -0.41632,-4.73166c0.06641,-0.00584 0.14942,-0.01315 0.24903,-0.02191c8.0589,-0.44138 16.13294,-0.90082 24.22212,-1.37832c0.00876,0.09961 0.01607,0.18263 0.02191,0.24903c0.95518,3.63021 2.09206,7.04366 3.41064,10.24035c1.33482,0.7191 2.87723,1.1355 4.62724,1.24922c5.3555,0.39879 11.03482,0.48467 17.03795,0.25764c13.9741,-0.52683 27.70248,-0.61377 41.18514,-0.26082c0.00876,0.09961 0.01607,0.18263 0.02191,0.24903c0.07596,0.86332 0.149,1.69344 0.21912,2.49035c-0.09961,0.00876 -0.14796,0.02975 -0.14504,0.06295c-2.54839,9.82773 -6.14736,18.74405 -10.79691,26.74895c-4.12058,1.46679 -8.50626,2.77287 -13.15705,3.91823c-4.4574,1.06142 -9.16915,1.89426 -14.13524,2.49852c-15.1307,1.83322 -29.52239,2.74814 -43.17506,2.74476c-13.85482,-0.01905 -27.05418,-0.76501 -39.59806,-2.23787c-0.09961,0.00876 -0.15088,-0.00346 -0.1538,-0.03666c-4.58477,-9.13319 -7.89764,-19.78368 -9.93863,-31.95147c0.06641,-0.00584 0.14942,-0.01315 0.24903,-0.02191c12.48231,-2.26943 25.12466,-4.05102 37.92704,-5.34476c-0.00584,-0.06641 0.00638,-0.11768 0.03666,-0.1538c1.1048,-1.13452 1.88154,-2.57479 2.33023,-4.32082M536.97583,244.21522c0.06641,-0.00584 0.14796,-0.02975 0.24465,-0.07172c4.68719,-2.2528 10.50944,-3.58489 17.46674,-3.99627l-0.00876,-0.09961c0.75202,-0.20001 1.48744,-0.39857 2.20626,-0.59566c7.18125,-1.66916 14.57488,-3.20644 22.18088,-4.61182c13.37007,-2.44793 27.70187,-4.04354 42.99539,-4.78685c8.73176,-0.40019 17.40587,-0.69493 26.02233,-0.88421c14.19086,-0.34513 27.77021,-0.03415 40.73806,0.93295c6.50199,0.49869 13.13095,0.91928 19.88689,1.26178c13.07729,0.68977 25.2202,2.54927 36.4287,5.57848c-0.71713,13.14663 -1.40744,26.40801 -2.07092,39.78414c-0.62336,13.07145 -1.21844,26.27426 -1.78523,39.60843c-0.18575,4.73444 -0.42422,9.44007 -0.71542,14.11686c-13.70262,0.56987 -27.56289,0.86918 -41.58082,0.89795c-13.78549,0.00831 -27.65745,0.17481 -41.61588,0.49949c-0.43458,0.00478 -0.85256,0.00809 -1.25394,0.00994c-0.7836,-2.44068 -1.77917,-4.62848 -2.98673,-6.5634c-0.15327,-0.22075 -0.35104,-0.18661 -0.5933,0.10239c-0.30839,-0.84287 -0.73792,-1.54124 -1.28858,-2.0951c-0.03613,-0.03028 -0.08739,-0.0425 -0.1538,-0.03666c-13.36074,0.27209 -26.72295,0.52759 -40.08661,0.76648c-0.09961,0.00876 -0.18263,0.01607 -0.24903,0.02191c0.13226,2.26376 0.19664,4.51676 0.19316,6.759l-0.09961,0.00876c-14.6228,1.52084 -29.30271,2.96304 -44.03973,4.32662c-7.3021,0.67595 -14.60566,1.33529 -21.91069,1.97803c-1.90486,-1.87356 -3.17523,-4.52238 -3.81112,-7.94645c-2.32123,-12.31044 -4.40166,-24.9265 -6.24128,-37.84816c-0.00584,-0.06641 -0.01315,-0.14942 -0.02191,-0.24903c-0.01461,-0.16602 -0.02922,-0.33205 -0.04382,-0.49807c-0.31637,-0.17293 -0.4525,-0.57923 -0.4084,-1.21888c0.02736,-0.06933 0.03666,-0.1538 0.0279,-0.25342c-0.86585,-9.4604 -1.32408,-18.47148 -1.3747,-27.03322c-0.03337,-7.22479 1.28307,-13.17969 3.94934,-17.86469z" fill="#fefefe"/><path d="M641.59052,380.61257c-13.89921,1.75833 -24.65282,-0.47437 -32.26084,-6.69808c3.82196,1.6045 8.47525,2.19893 13.95986,1.78328c4.1203,-0.32907 7.7639,-0.18119 10.93082,0.44363c1.53219,0.30019 3.10104,0.44658 4.70655,0.43916c4.68663,0.02264 8.98396,0.56473 12.892,1.62627c0.0332,-0.00292 0.05711,0.07863 0.07172,0.24465c-2.9964,0.93288 -6.42976,1.65324 -10.3001,2.16108z" fill="#020202"/><path d="M682.54593,367.47247c-0.29114,0.49408 -0.95378,0.56911 -1.9879,0.2251c-0.06933,-0.02736 -0.1538,-0.03666 -0.25342,-0.0279c-3.91658,1.88384 -8.83446,3.03598 -14.75365,3.4564c-7.64583,0.57234 -14.96931,0.81517 -21.97044,0.72847c-6.97084,-0.12282 -13.79757,-0.50928 -20.48019,-1.15939c-2.6893,-0.90108 -5.58911,-1.53267 -8.69945,-1.89477c-1.18261,-0.13018 -2.21089,-0.40778 -3.08483,-0.83281c-2.16544,-2.55333 -3.48295,-6.1182 -3.95253,-10.6946c-0.00584,-0.06641 -0.01315,-0.14942 -0.02191,-0.24903c1.59253,-2.81706 3.70743,-5.21161 6.3447,-7.18366c0.0332,-0.00292 0.04542,-0.05419 0.03666,-0.1538c14.482,-0.83921 28.28118,-0.88219 41.39752,-0.12893c4.91215,0.30396 9.38812,1.16495 13.42791,2.58297c1.72743,0.61763 3.22919,1.52281 4.5053,2.71553c3.60571,3.33007 6.73619,7.15369 9.39143,11.47086c0.34851,0.53819 0.38211,0.92004 0.10079,1.14556M618.7534,355.51794c0.00876,0.09961 0.01607,0.18263 0.02191,0.24903c0.17052,1.5577 0.53641,2.86397 1.09769,3.91882c0.09961,-0.00876 0.18409,0.00053 0.25342,0.0279c4.08496,0.4102 8.14109,0.87313 12.16841,1.38878l0.01315,0.14942c-3.66819,0.52352 -7.30317,1.04412 -10.90495,1.5618c0.00876,0.09961 0.03267,0.18116 0.07172,0.24465c0.65213,0.94647 1.30425,1.89295 1.95638,2.83942c1.78614,0.144 3.63577,0.24895 5.54888,0.31486c13.71217,0.2993 28.02523,-0.55851 42.93918,-2.57343c-2.36118,-4.77804 -6.45487,-7.37922 -12.28108,-7.80352c-13.40243,-0.96232 -27.03066,-1.06823 -40.8847,-0.31773z" fill="#010101"/><path d="M628.98,366.21262c-1.91312,-0.0659 -3.76274,-0.17086 -5.54888,-0.31486c-0.65213,-0.94647 -1.30425,-1.89295 -1.95638,-2.83942c-0.03905,-0.06349 -0.06295,-0.14504 -0.07172,-0.24465c3.60178,-0.51768 7.23676,-1.03828 10.90495,-1.5618l-0.01315,-0.14942c-4.02731,-0.51566 -8.08345,-0.97858 -12.16841,-1.38878c-0.06933,-0.02736 -0.1538,-0.03666 -0.25342,-0.0279c-0.56128,-1.05485 -0.92717,-2.36113 -1.09769,-3.91882c-0.00584,-0.06641 -0.01315,-0.14942 -0.02191,-0.24903c13.85404,-0.7505 27.48227,-0.64459 40.8847,0.31773c5.82621,0.4243 9.9199,3.02547 12.28108,7.80352c-14.91395,2.01492 -29.227,2.87273 -42.93918,2.57343z" fill="#fdfdfd"/></g></g></svg>