<svg version="1.1" xmlns="http://www.w3.org/2000/svg" xmlns:xlink="http://www.w3.org/1999/xlink" width="484.6" height="121.75" viewBox="0,0,484.6,121.75"><g transform="translate(-394.7524,-295.75631)"><g data-paper-data="{&quot;isPaintingLayer&quot;:true}" fill-rule="nonzero" stroke="none" stroke-width="1" stroke-linecap="butt" stroke-linejoin="miter" stroke-miterlimit="10" stroke-dasharray="" stroke-dashoffset="0" style="mix-blend-mode: normal"><path d="M638.3024,305.40631c0.4,-0.13333 0.81667,-0.25 1.25,-0.35c2.2,-0.13333 4.4,-0.26667 6.6,-0.4c0.4,-0.1 0.81667,-0.21667 1.25,-0.35c0.7,0 1.41667,0 2.15,0c0.33333,0.13333 0.68333,0.25 1.05,0.35c0.13333,0.13333 0.25,0.26667 0.35,0.4c0.36667,0.1 0.73333,0.21667 1.1,0.35c0.16667,0.16667 0.33333,0.33333 0.5,0.5c0.2,0.2 0.38333,0.38333 0.55,0.55c0.13333,0.16667 0.25,0.35 0.35,0.55c0.06667,0.16667 0.13333,0.35 0.2,0.55c0.1,0.16667 0.21667,0.33333 0.35,0.5c0.16667,0.2 0.35,0.38333 0.55,0.55c0.1,0.16667 0.21667,0.35 0.35,0.55c0.06667,0.16667 0.11667,0.33333 0.15,0.5c0.2,0.2 0.38333,0.38333 0.55,0.55c0.13333,0.16667 0.25,0.35 0.35,0.55c0.13333,0.16667 0.25,0.35 0.35,0.55c0.06667,0.16667 0.13333,0.33333 0.2,0.5c0.1,0.2 0.21667,0.38333 0.35,0.55c0.06667,0.16667 0.13333,0.35 0.2,0.55c0.03333,0.16667 0.08333,0.33333 0.15,0.5c0.13333,0.2 0.25,0.38333 0.35,0.55c0.13333,0.16667 0.25,0.35 0.35,0.55c0,0.16667 0,0.35 0,0.55c0,0.16667 0,0.33333 0,0.5c0.13333,0 0.26667,0 0.4,0c0,-0.16667 0,-0.33333 0,-0.5c0.03333,-0.2 0.08333,-0.38333 0.15,-0.55c0.13333,-0.2 0.25,-0.38333 0.35,-0.55c0.06667,-0.16667 0.13333,-0.35 0.2,-0.55c0,-0.16667 0,-0.33333 0,-0.5c0,-0.2 0,-0.38333 0,-0.55c0,-0.16667 0,-0.35 0,-0.55c0,-0.16667 0,-0.33333 0,-0.5c0,-0.2 0,-0.38333 0,-0.55c0.1,-0.2 0.21667,-0.38333 0.35,-0.55c0.06667,-0.16667 0.13333,-0.35 0.2,-0.55c0.03333,-0.16667 0.08333,-0.33333 0.15,-0.5c0,-0.2 0,-0.38333 0,-0.55c0,-0.16667 0,-0.35 0,-0.55c0,-0.16667 0,-0.33333 0,-0.5c0,-0.2 0,-0.38333 0,-0.55c0.13333,-0.2 0.25,-0.38333 0.35,-0.55c0.13333,-0.16667 0.25,-0.35 0.35,-0.55c0,-0.16667 0,-0.33333 0,-0.5c0,-0.2 0,-0.38333 0,-0.55c0,-0.16667 0,-0.35 0,-0.55c0.13333,-0.16667 0.26667,-0.33333 0.4,-0.5c0.03333,-0.2 0.08333,-0.38333 0.15,-0.55c0.06667,-0.2 0.13333,-0.38333 0.2,-0.55c0.1,-0.16667 0.21667,-0.35 0.35,-0.55c0.23333,-0.16667 0.46667,-0.33333 0.7,-0.5c0.13333,-0.2 0.25,-0.38333 0.35,-0.55c0.43333,-0.16667 0.85,-0.35 1.25,-0.55c0.2,-0.1 0.38333,-0.21667 0.55,-0.35c0.3,-0.06667 0.6,-0.11667 0.9,-0.15c1.5,-0.13333 2.98333,-0.26667 4.45,-0.4c0.43333,-0.1 0.85,-0.21667 1.25,-0.35c1.03333,-0.1 2.05,-0.21667 3.05,-0.35c0.4,-0.1 0.81667,-0.21667 1.25,-0.35c1.73333,-0.13333 3.45,-0.25 5.15,-0.35c0.43333,-0.13333 0.85,-0.25 1.25,-0.35c1.73333,-0.13333 3.46667,-0.25 5.2,-0.35c0.4,-0.13333 0.81667,-0.26667 1.25,-0.4c2.36667,0 4.75,0 7.15,0c0.36667,0.13333 0.71667,0.26667 1.05,0.4c3,0.1 5.98333,0.21667 8.95,0.35c0.36667,0.1 0.71667,0.21667 1.05,0.35c2.73333,0.1 5.48333,0.21667 8.25,0.35c0.33333,0.13333 0.68333,0.25 1.05,0.35c1.06667,0.13333 2.13333,0.25 3.2,0.35c0.43333,0.13333 0.85,0.25 1.25,0.35c0.76667,0.13333 1.55,0.26667 2.35,0.4c0.93333,0.23333 1.88333,0.48333 2.85,0.75c0.7,0.2 1.41667,0.41667 2.15,0.65c2,0.7 4.01667,1.26667 6.05,1.7c1.7,0.4 3.36667,0.9 5,1.5c0.16667,0.13333 0.35,0.26667 0.55,0.4c0.3,0.1 0.6,0.21667 0.9,0.35c0.1,0.1 0.21667,0.21667 0.35,0.35c0.33333,0.1 0.68333,0.21667 1.05,0.35c0.2,0.13333 0.38333,0.25 0.55,0.35c0.3,0.13333 0.6,0.25 0.9,0.35c0.23333,0.2 0.46667,0.38333 0.7,0.55c0.13333,0.13333 0.25,0.25 0.35,0.35c0.06667,0.06667 0.13333,0.11667 0.2,0.15c0.3,0.13333 0.6,0.26667 0.9,0.4c0.23333,0.16667 0.46667,0.35 0.7,0.55c0.1,0.16667 0.21667,0.33333 0.35,0.5c0.16667,0.2 0.35,0.38333 0.55,0.55c0.23333,0.16667 0.46667,0.35 0.7,0.55c0.16667,0.16667 0.35,0.33333 0.55,0.5c0.1,0.2 0.21667,0.38333 0.35,0.55c0.1,0.16667 0.21667,0.35 0.35,0.55c0.06667,0.16667 0.13333,0.35 0.2,0.55c0.16667,0.16667 0.33333,0.33333 0.5,0.5c0.13333,0.2 0.25,0.38333 0.35,0.55c0.13333,0.16667 0.26667,0.35 0.4,0.55c0.03333,0.16667 0.08333,0.33333 0.15,0.5c0.13333,0.2 0.25,0.38333 0.35,0.55c0.2,0.16667 0.38333,0.35 0.55,0.55c0.13333,0.16667 0.25,0.35 0.35,0.55c0.06667,0.16667 0.13333,0.33333 0.2,0.5c0.1,0.2 0.21667,0.38333 0.35,0.55c0.06667,0.16667 0.11667,0.35 0.15,0.55c0.06667,0.16667 0.13333,0.33333 0.2,0.5c0.13333,0.2 0.25,0.38333 0.35,0.55c0.13333,0.16667 0.25,0.35 0.35,0.55c0,0.16667 0,0.33333 0,0.5c0,0.2 0,0.38333 0,0.55c0.2,0.06667 0.38333,0.13333 0.55,0.2c0.16667,-0.13333 0.35,-0.25 0.55,-0.35c0.16667,-0.2 0.33333,-0.38333 0.5,-0.55c0.2,-0.16667 0.38333,-0.35 0.55,-0.55c0.2,-0.1 0.38333,-0.21667 0.55,-0.35c0.06667,-0.06667 0.13333,-0.1 0.2,-0.1c0.26667,-0.1 0.55,-0.18333 0.85,-0.25c4.83333,-0.13333 9.66667,-0.25 14.5,-0.35c0.4,-0.13333 0.81667,-0.25 1.25,-0.35c1.7,-0.13333 3.41667,-0.25 5.15,-0.35c0.43333,-0.13333 0.85,-0.26667 1.25,-0.4c3.03333,-0.1 6.06667,-0.21667 9.1,-0.35c-0.1,-0.16667 -0.21667,-0.33333 -0.35,-0.5c0,-0.2 0,-0.38333 0,-0.55c0,-0.2 0,-0.38333 0,-0.55c-0.1,-0.16667 -0.21667,-0.35 -0.35,-0.55c-0.16667,-0.16667 -0.35,-0.33333 -0.55,-0.5c-0.1,-0.2 -0.21667,-0.38333 -0.35,-0.55c-0.06667,-0.16667 -0.11667,-0.35 -0.15,-0.55c-0.13333,-0.16667 -0.26667,-0.33333 -0.4,-0.5c-0.1,-0.2 -0.21667,-0.38333 -0.35,-0.55c0,-0.2 0,-0.38333 0,-0.55c0,-0.16667 0,-0.35 0,-0.55c0,-0.16667 0,-0.33333 0,-0.5c0,-0.2 0,-0.38333 0,-0.55c0,-0.36667 0,-0.71667 0,-1.05c0,-0.36667 0,-0.73333 0,-1.1c0,-0.36667 0,-0.71667 0,-1.05c0,-0.36667 0,-0.73333 0,-1.1c0,-0.16667 0,-0.33333 0,-0.5c0.13333,-0.2 0.25,-0.38333 0.35,-0.55c0.13333,-0.2 0.26667,-0.38333 0.4,-0.55c0.16667,-0.16667 0.33333,-0.35 0.5,-0.55c0.2,-0.1 0.38333,-0.21667 0.55,-0.35c0.3,-0.1 0.6,-0.21667 0.9,-0.35c0.16667,-0.16667 0.35,-0.35 0.55,-0.55c0.16667,-0.1 0.33333,-0.21667 0.5,-0.35c0.06667,-0.06667 0.13333,-0.11667 0.2,-0.15c0.3,-0.13333 0.6,-0.25 0.9,-0.35c0.16667,-0.13333 0.33333,-0.26667 0.5,-0.4c0.3,-0.03333 0.6,-0.08333 0.9,-0.15c0.53333,-0.13333 1.06667,-0.26667 1.6,-0.4c0.43333,-0.1 0.86667,-0.18333 1.3,-0.25c0.76667,-0.16667 1.53333,-0.31667 2.3,-0.45c0.4,-0.1 0.81667,-0.21667 1.25,-0.35c1.46667,-0.1 2.95,-0.21667 4.45,-0.35c0.43333,-0.1 0.85,-0.21667 1.25,-0.35c1.26667,-0.13333 2.51667,-0.25 3.75,-0.35c0.43333,-0.13333 0.85,-0.25 1.25,-0.35c1.26667,-0.13333 2.51667,-0.25 3.75,-0.35c0.43333,-0.13333 0.85,-0.25 1.25,-0.35c0.76667,-0.13333 1.53333,-0.26667 2.3,-0.4c0.43333,-0.1 0.85,-0.21667 1.25,-0.35c1.03333,-0.1 2.05,-0.21667 3.05,-0.35c0.43333,-0.06667 0.85,-0.15 1.25,-0.25v-0.1c0.46667,0 0.95,0 1.45,0c0.33333,0.1 0.68333,0.21667 1.05,0.35c0.83333,0.13333 1.66667,0.25 2.5,0.35c0.36667,0.13333 0.73333,0.25 1.1,0.35c0.16667,0.13333 0.33333,0.25 0.5,0.35c0.3,0.13333 0.6,0.26667 0.9,0.4c0.16667,0.16667 0.35,0.33333 0.55,0.5c0.16667,0.2 0.35,0.38333 0.55,0.55c0.1,0.16667 0.21667,0.35 0.35,0.55c0.03333,0.16667 0.08333,0.33333 0.15,0.5c0.2,0.2 0.38333,0.38333 0.55,0.55c0.13333,0.16667 0.25,0.35 0.35,0.55c0.13333,0.16667 0.25,0.35 0.35,0.55c0.06667,0.16667 0.13333,0.33333 0.2,0.5c0.1,0.2 0.21667,0.38333 0.35,0.55c0.06667,0.16667 0.13333,0.35 0.2,0.55c0.03333,0.16667 0.08333,0.33333 0.15,0.5c0.13333,0.2 0.25,0.38333 0.35,0.55c0.13333,0.16667 0.25,0.35 0.35,0.55c0.06667,0.16667 0.13333,0.35 0.2,0.55c0.13333,0.16667 0.25,0.33333 0.35,0.5c0.06667,0.2 0.13333,0.38333 0.2,0.55c0.1,0.16667 0.21667,0.35 0.35,0.55c0.06667,0.16667 0.11667,0.33333 0.15,0.5c0.06667,0.2 0.13333,0.38333 0.2,0.55c0,0.16667 0,0.35 0,0.55c0,0.16667 0,0.35 0,0.55c0.13333,0.16667 0.25,0.33333 0.35,0.5c0.06667,0.2 0.13333,0.38333 0.2,0.55c0.03333,0.16667 0.08333,0.35 0.15,0.55c0.13333,0.16667 0.25,0.33333 0.35,0.5c0.06667,0.2 0.13333,0.38333 0.2,0.55c0.06667,0.16667 0.13333,0.35 0.2,0.55c0,0.1 0,0.21667 0,0.35c0.23333,-0.06667 0.46667,-0.13333 0.7,-0.2c0.06667,-0.16667 0.11667,-0.33333 0.15,-0.5c0.13333,-0.2 0.26667,-0.38333 0.4,-0.55c0.1,-0.16667 0.21667,-0.35 0.35,-0.55c0.16667,-0.16667 0.33333,-0.33333 0.5,-0.5c0.06667,-0.2 0.13333,-0.38333 0.2,-0.55c0.13333,-0.2 0.25,-0.38333 0.35,-0.55c0.13333,-0.16667 0.25,-0.35 0.35,-0.55c0.3,-0.16667 0.6,-0.33333 0.9,-0.5c0.16667,-0.2 0.35,-0.38333 0.55,-0.55c0.1,-0.16667 0.21667,-0.35 0.35,-0.55c0.06667,-0.16667 0.13333,-0.33333 0.2,-0.5c0.1,-0.2 0.21667,-0.38333 0.35,-0.55c0.1,-0.2 0.21667,-0.38333 0.35,-0.55c0.1,-0.16667 0.21667,-0.35 0.35,-0.55c0.16667,-0.16667 0.35,-0.33333 0.55,-0.5c0.16667,-0.2 0.33333,-0.38333 0.5,-0.55c0.06667,-0.16667 0.13333,-0.35 0.2,-0.55c0.06667,-0.16667 0.13333,-0.33333 0.2,-0.5c0,-0.2 0,-0.38333 0,-0.55c0.1,-0.2 0.21667,-0.38333 0.35,-0.55c0.16667,-0.16667 0.33333,-0.35 0.5,-0.55c0.13333,-0.16667 0.26667,-0.33333 0.4,-0.5c0.03333,-0.2 0.08333,-0.38333 0.15,-0.55c0.13333,-0.16667 0.25,-0.35 0.35,-0.55c0.23333,-0.16667 0.48333,-0.33333 0.75,-0.5c0.16667,-0.2 0.33333,-0.38333 0.5,-0.55c0.13333,-0.2 0.25,-0.38333 0.35,-0.55c0.2,-0.1 0.38333,-0.21667 0.55,-0.35c0.3,-0.06667 0.6,-0.13333 0.9,-0.2c1.9,0 3.8,0 5.7,0c0.36667,0.13333 0.73333,0.26667 1.1,0.4c0.1,0.1 0.21667,0.21667 0.35,0.35c0.36667,0.1 0.71667,0.21667 1.05,0.35c0.36667,0.1 0.73333,0.21667 1.1,0.35c0.33333,0.13333 0.68333,0.25 1.05,0.35c0.7,0.23333 1.41667,0.46667 2.15,0.7c0.7,0.26667 1.41667,0.51667 2.15,0.75c0.1,0.1 0.21667,0.21667 0.35,0.35c0.36667,0.1 0.71667,0.21667 1.05,0.35c0.2,0.13333 0.38333,0.25 0.55,0.35c0.3,0.13333 0.6,0.25 0.9,0.35c0.16667,0.13333 0.35,0.25 0.55,0.35c0.3,0.13333 0.58333,0.26667 0.85,0.4c0.26667,0.16667 0.51667,0.33333 0.75,0.5c0.16667,0.2 0.33333,0.38333 0.5,0.55c0.2,0.16667 0.38333,0.35 0.55,0.55c0.36667,0.16667 0.73333,0.33333 1.1,0.5c0.16667,0.2 0.33333,0.38333 0.5,0.55c0.06667,0.16667 0.13333,0.35 0.2,0.55c0.1,0.16667 0.21667,0.35 0.35,0.55c0.16667,0.16667 0.35,0.33333 0.55,0.5c0.16667,0.2 0.33333,0.38333 0.5,0.55c0.13333,0.13333 0.26667,0.25 0.4,0.35c0.03333,0.06667 0.1,0.11667 0.2,0.15c0.26667,0.13333 0.55,0.26667 0.85,0.4c0.16667,0.16667 0.35,0.35 0.55,0.55c0.06667,0.16667 0.11667,0.33333 0.15,0.5c0.13333,0.2 0.25,0.38333 0.35,0.55c0.2,0.16667 0.38333,0.35 0.55,0.55c0.13333,0.16667 0.25,0.33333 0.35,0.5c0.06667,0.2 0.13333,0.38333 0.2,0.55c0.1,0.16667 0.21667,0.35 0.35,0.55c0.16667,0.16667 0.35,0.35 0.55,0.55c0.1,0.16667 0.21667,0.33333 0.35,0.5c0.06667,0.2 0.11667,0.38333 0.15,0.55c0.06667,0.16667 0.13333,0.35 0.2,0.55c0,0.16667 0,0.33333 0,0.5c0.13333,0.2 0.25,0.38333 0.35,0.55c0.06667,0.16667 0.13333,0.35 0.2,0.55c0.06667,0.16667 0.11667,0.35 0.15,0.55c0,0.16667 0,0.33333 0,0.5c0,0.2 0,0.38333 0,0.55c0,0.16667 0,0.35 0,0.55c0,0.16667 0,0.33333 0,0.5c0.13333,0.2 0.25,0.38333 0.35,0.55c0.13333,0.16667 0.26667,0.35 0.4,0.55c0,0.16667 0,0.33333 0,0.5c0,0.2 0,0.38333 0,0.55c0,0.2 0,0.38333 0,0.55c0,0.16667 0,0.35 0,0.55c0,0.16667 0,0.33333 0,0.5c0,0.2 0,0.38333 0,0.55c0,0.16667 0,0.35 0,0.55c0,0.16667 0,0.33333 0,0.5c0,0.36667 0,0.73333 0,1.1c-0.06667,0.16667 -0.13333,0.35 -0.2,0.55c-0.06667,0.16667 -0.13333,0.33333 -0.2,0.5c-0.1,0.2 -0.21667,0.38333 -0.35,0.55c0,0.16667 0,0.35 0,0.55c-0.03333,0.16667 -0.08333,0.33333 -0.15,0.5c-0.06667,0.2 -0.13333,0.38333 -0.2,0.55c-0.1,0.2 -0.21667,0.38333 -0.35,0.55c-0.16667,0.16667 -0.35,0.35 -0.55,0.55c-0.1,0.16667 -0.21667,0.33333 -0.35,0.5c-0.06667,0.2 -0.11667,0.38333 -0.15,0.55c-0.13333,0.16667 -0.26667,0.35 -0.4,0.55c-0.03333,0.16667 -0.08333,0.33333 -0.15,0.5c-0.13333,0.2 -0.25,0.38333 -0.35,0.55c-0.13333,0.2 -0.25,0.38333 -0.35,0.55c-0.2,0.16667 -0.38333,0.35 -0.55,0.55c-0.16667,0.16667 -0.35,0.33333 -0.55,0.5c-0.1,0.2 -0.21667,0.38333 -0.35,0.55c-0.06667,0.16667 -0.13333,0.35 -0.2,0.55c-0.1,0.16667 -0.21667,0.33333 -0.35,0.5c-0.16667,0.2 -0.33333,0.38333 -0.5,0.55c-0.13333,0.2 -0.26667,0.38333 -0.4,0.55c-0.03333,0.16667 -0.08333,0.35 -0.15,0.55c-0.13333,0.16667 -0.25,0.33333 -0.35,0.5c-0.2,0.2 -0.38333,0.38333 -0.55,0.55c-0.13333,0.16667 -0.25,0.35 -0.35,0.55c-0.06667,0.16667 -0.13333,0.33333 -0.2,0.5c-0.1,0.2 -0.21667,0.38333 -0.35,0.55c-0.16667,0.2 -0.35,0.38333 -0.55,0.55c-0.16667,0.16667 -0.33333,0.35 -0.5,0.55c-0.2,0.16667 -0.38333,0.33333 -0.55,0.5c-0.16667,0.2 -0.35,0.38333 -0.55,0.55c0,0.16667 0,0.35 0,0.55c-0.03333,0.16667 -0.08333,0.33333 -0.15,0.5c-0.06667,0.2 -0.13333,0.38333 -0.2,0.55c-0.1,0.2 -0.21667,0.38333 -0.35,0.55c-0.16667,0.16667 -0.35,0.35 -0.55,0.55c-0.16667,0.16667 -0.33333,0.33333 -0.5,0.5c-0.2,0.2 -0.38333,0.38333 -0.55,0.55c-0.16667,0.16667 -0.35,0.35 -0.55,0.55c-0.16667,0.16667 -0.35,0.33333 -0.55,0.5c-0.16667,0.2 -0.33333,0.38333 -0.5,0.55c-0.2,0.2 -0.38333,0.38333 -0.55,0.55c-0.13333,0.16667 -0.25,0.35 -0.35,0.55c-0.06667,0.16667 -0.13333,0.33333 -0.2,0.5c-0.03333,0.2 -0.08333,0.38333 -0.15,0.55c-0.06667,0.16667 -0.13333,0.35 -0.2,0.55c-0.1,0.16667 -0.21667,0.33333 -0.35,0.5c-0.16667,0.2 -0.35,0.38333 -0.55,0.55c-0.16667,0.2 -0.33333,0.38333 -0.5,0.55c-0.2,0.16667 -0.38333,0.35 -0.55,0.55c-0.16667,0.16667 -0.35,0.33333 -0.55,0.5c-0.16667,0.2 -0.33333,0.38333 -0.5,0.55c-0.06667,0.16667 -0.13333,0.35 -0.2,0.55c-0.13333,0.16667 -0.25,0.33333 -0.35,0.5c-0.13333,0.2 -0.25,0.38333 -0.35,0.55c-0.2,0.16667 -0.38333,0.35 -0.55,0.55c-0.16667,0.16667 -0.35,0.35 -0.55,0.55c-0.16667,0.16667 -0.33333,0.33333 -0.5,0.5c-0.2,0.2 -0.38333,0.38333 -0.55,0.55c-0.2,0.16667 -0.38333,0.35 -0.55,0.55c-0.16667,0.16667 -0.35,0.33333 -0.55,0.5c-0.1,0.2 -0.21667,0.38333 -0.35,0.55c-0.1,0.16667 -0.21667,0.35 -0.35,0.55c-0.1,0.16667 -0.21667,0.35 -0.35,0.55c-0.13333,0.1 -0.25,0.21667 -0.35,0.35c-0.3,0.1 -0.6,0.21667 -0.9,0.35c-0.16667,0.16667 -0.35,0.35 -0.55,0.55c-0.1,0.16667 -0.21667,0.33333 -0.35,0.5c-0.1,0.2 -0.21667,0.38333 -0.35,0.55c-0.13333,0.16667 -0.25,0.35 -0.35,0.55c0,0.16667 0,0.33333 0,0.5c0,0.2 0,0.38333 0,0.55c0,0.16667 0,0.35 0,0.55c0,0.36667 0,0.71667 0,1.05c0,0.36667 0,0.73333 0,1.1c0,0.33333 0,0.68333 0,1.05c0,0.36667 0,0.73333 0,1.1c0,0.33333 0,0.68333 0,1.05c0,0.16667 0,0.35 0,0.55c0.1,0.16667 0.21667,0.33333 0.35,0.5c0.06667,0.2 0.13333,0.38333 0.2,0.55c0.03333,0.16667 0.08333,0.35 0.15,0.55c0,0.16667 0,0.35 0,0.55c0,0.16667 0,0.33333 0,0.5c0,0.2 0,0.38333 0,0.55c-0.06667,0.16667 -0.11667,0.35 -0.15,0.55c0,0.16667 0,0.33333 0,0.5c0,0.2 0,0.38333 0,0.55c0,0.16667 0,0.35 0,0.55c0.03333,0.16667 0.08333,0.35 0.15,0.55c0,0.16667 0,0.33333 0,0.5c0,0.2 0,0.38333 0,0.55c0,0.16667 0,0.35 0,0.55c0,0.16667 0,0.33333 0,0.5c0,0.2 0,0.38333 0,0.55c0,0.16667 0,0.35 0,0.55c0,0.16667 0,0.35 0,0.55c0,0.16667 0,0.33333 0,0.5c0.13333,0.2 0.25,0.38333 0.35,0.55c0.06667,0.16667 0.13333,0.35 0.2,0.55c0.06667,0.16667 0.11667,0.33333 0.15,0.5c0,0.53333 0,1.08333 0,1.65c0,1.23333 0,2.48333 0,3.75c0,1.4 0,2.81667 0,4.25c0.03333,1.6 0.05,3.21667 0.05,4.85c0,1.6 -0.01667,3.2 -0.05,4.8c0,1.26667 0,2.51667 0,3.75c0,0.16667 0,0.35 0,0.55c-0.03333,0.16667 -0.08333,0.33333 -0.15,0.5c-0.06667,0.2 -0.13333,0.38333 -0.2,0.55c-0.16667,0.2 -0.33333,0.38333 -0.5,0.55c-0.2,0.16667 -0.38333,0.35 -0.55,0.55c-0.13333,0.1 -0.25,0.21667 -0.35,0.35c-0.36667,0.1 -0.73333,0.21667 -1.1,0.35c-0.1,0.1 -0.21667,0.21667 -0.35,0.35c-0.3,0.06667 -0.6,0.11667 -0.9,0.15c-0.83333,0.13333 -1.66667,0.26667 -2.5,0.4c-0.33333,0.1 -0.68333,0.21667 -1.05,0.35c-2.5,0.1 -5,0.21667 -7.5,0.35c-0.36667,0.13333 -0.73333,0.25 -1.1,0.35c-1.53333,0.13333 -3.06667,0.25 -4.6,0.35c-0.36667,0.13333 -0.73333,0.25 -1.1,0.35c-1.3,0.13333 -2.6,0.26667 -3.9,0.4c-0.36667,0.1 -0.73333,0.21667 -1.1,0.35c-1.76667,0.1 -3.55,0.21667 -5.35,0.35c-0.36667,0.1 -0.71667,0.21667 -1.05,0.35c-1.1,0.13333 -2.18333,0.25 -3.25,0.35c-0.33333,0.13333 -0.68333,0.25 -1.05,0.35c-0.96667,0 -1.91667,0 -2.85,0c-0.43333,-0.1 -0.85,-0.21667 -1.25,-0.35c-0.3,-0.1 -0.6,-0.2 -0.9,-0.3c-0.43333,-0.16667 -0.85,-0.3 -1.25,-0.4c-0.13333,-0.16667 -0.25,-0.35 -0.35,-0.55c-0.23333,-0.16667 -0.48333,-0.35 -0.75,-0.55c-0.16667,-0.16667 -0.33333,-0.33333 -0.5,-0.5c-0.13333,-0.2 -0.25,-0.38333 -0.35,-0.55c-0.06667,-0.16667 -0.13333,-0.35 -0.2,-0.55c-0.06667,-0.1 -0.13333,-0.21667 -0.2,-0.35c-2.13333,-0.06667 -4.26667,-0.11667 -6.4,-0.15c-0.43333,-0.13333 -0.85,-0.26667 -1.25,-0.4c-5.3,-0.1 -10.6,-0.21667 -15.9,-0.35c-0.4,-0.1 -0.81667,-0.21667 -1.25,-0.35c-0.1,-0.1 -0.21667,-0.21667 -0.35,-0.35c-0.36667,-0.13333 -0.71667,-0.25 -1.05,-0.35c-0.2,-0.16667 -0.38333,-0.35 -0.55,-0.55c-0.13333,-0.1 -0.25,-0.21667 -0.35,-0.35c-0.06667,-0.06667 -0.13333,-0.11667 -0.2,-0.15c-0.36667,-0.13333 -0.71667,-0.26667 -1.05,-0.4c-0.13333,-0.16667 -0.25,-0.33333 -0.35,-0.5c-0.26667,-0.2 -0.51667,-0.38333 -0.75,-0.55c-0.1,-0.16667 -0.21667,-0.35 -0.35,-0.55c-0.06667,-0.16667 -0.11667,-0.35 -0.15,-0.55c-0.13333,-0.16667 -0.26667,-0.33333 -0.4,-0.5c-0.16667,-0.2 -0.33333,-0.38333 -0.5,-0.55c-0.2,-0.16667 -0.38333,-0.35 -0.55,-0.55c-0.16667,-0.16667 -0.35,-0.33333 -0.55,-0.5c-0.1,-0.13333 -0.21667,-0.26667 -0.35,-0.4c-0.1,0.2 -0.21667,0.38333 -0.35,0.55c-0.13333,0.2 -0.25,0.38333 -0.35,0.55c0,0.16667 0,0.35 0,0.55c-0.06667,0.16667 -0.13333,0.33333 -0.2,0.5c-0.06667,0.2 -0.11667,0.38333 -0.15,0.55c-0.13333,0.16667 -0.25,0.35 -0.35,0.55c0,0.16667 0,0.33333 0,0.5c-0.06667,0.2 -0.13333,0.38333 -0.2,0.55c-0.06667,0.2 -0.13333,0.38333 -0.2,0.55c-0.1,0.16667 -0.21667,0.35 -0.35,0.55c-0.06667,0.16667 -0.11667,0.33333 -0.15,0.5c-0.13333,0.2 -0.25,0.38333 -0.35,0.55c-0.06667,0.16667 -0.13333,0.35 -0.2,0.55c-0.13333,0.16667 -0.25,0.33333 -0.35,0.5c-0.13333,0.2 -0.25,0.38333 -0.35,0.55c-0.13333,0.2 -0.25,0.38333 -0.35,0.55c-0.26667,0.16667 -0.51667,0.35 -0.75,0.55c-0.16667,0.16667 -0.33333,0.33333 -0.5,0.5c-0.36667,0.13333 -0.73333,0.25 -1.1,0.35c-9.86667,0.13333 -19.75,0.26667 -29.65,0.4c-0.33333,0.1 -0.68333,0.21667 -1.05,0.35c-1.8,0.1 -3.58333,0.21667 -5.35,0.35c-0.36667,0.1 -0.73333,0.21667 -1.1,0.35c-1.76667,0.13333 -3.55,0.25 -5.35,0.35c-0.36667,0.13333 -0.71667,0.25 -1.05,0.35c-2.96667,0.13333 -5.95,0.25 -8.95,0.35c-0.33333,0.13333 -0.68333,0.26667 -1.05,0.4c-0.83333,0.1 -1.66667,0.21667 -2.5,0.35c-0.36667,0.1 -0.73333,0.2 -1.1,0.3c-0.56667,0.13333 -1.15,0.28333 -1.75,0.45c-0.36667,0.1 -0.73333,0.2 -1.1,0.3c-10.7,0 -21.41667,0 -32.15,0c-0.4,-0.1 -0.81667,-0.21667 -1.25,-0.35c-0.1,-0.13333 -0.21667,-0.25 -0.35,-0.35c-0.33333,-0.13333 -0.68333,-0.25 -1.05,-0.35c-0.13333,-0.2 -0.25,-0.38333 -0.35,-0.55c-0.13333,-0.16667 -0.25,-0.35 -0.35,-0.55c-0.06667,-0.16667 -0.13333,-0.33333 -0.2,-0.5c-0.13333,-0.2 -0.25,-0.38333 -0.35,-0.55c-0.06667,-0.16667 -0.13333,-0.35 -0.2,-0.55c0,-0.16667 0,-0.35 0,-0.55c-0.03333,-0.16667 -0.08333,-0.33333 -0.15,-0.5c-0.13333,-0.2 -0.25,-0.38333 -0.35,-0.55c-0.06667,-0.16667 -0.13333,-0.35 -0.2,-0.55c-0.13333,-0.16667 -0.25,-0.33333 -0.35,-0.5c-0.13333,-0.2 -0.25,-0.38333 -0.35,-0.55c0,-0.16667 0,-0.35 0,-0.55c0,-0.16667 0,-0.35 0,-0.55c-0.13333,-0.16667 -0.25,-0.33333 -0.35,-0.5c-0.13333,-0.2 -0.26667,-0.38333 -0.4,-0.55c0,-0.16667 0,-0.35 0,-0.55c0,-0.16667 0,-0.33333 0,-0.5c-0.1,-0.2 -0.21667,-0.38333 -0.35,-0.55c-0.1,-0.16667 -0.21667,-0.35 -0.35,-0.55c0,-0.16667 0,-0.35 0,-0.55c0,-0.16667 0,-0.33333 0,-0.5c0,-0.2 0,-0.38333 0,-0.55c0,-0.16667 0,-0.35 0,-0.55c0,-0.16667 0,-0.33333 0,-0.5c0,-0.2 0,-0.38333 0,-0.55c0,-0.16667 0,-0.35 0,-0.55c0,-0.36667 0,-0.71667 0,-1.05c0,-0.36667 0,-0.73333 0,-1.1c-0.06667,-0.16667 -0.11667,-0.33333 -0.15,-0.5c-0.13333,-0.2 -0.26667,-0.38333 -0.4,-0.55c-0.03333,-0.16667 -0.08333,-0.35 -0.15,-0.55c0,-0.16667 0,-0.35 0,-0.55c0,-0.16667 0,-0.33333 0,-0.5c0,-0.2 0,-0.38333 0,-0.55c0,-0.16667 0,-0.35 0,-0.55c0,-0.16667 0,-0.33333 0,-0.5c-0.06667,-0.2 -0.13333,-0.38333 -0.2,-0.55c-0.1,-0.16667 -0.21667,-0.35 -0.35,-0.55c-0.06667,-0.16667 -0.11667,-0.35 -0.15,-0.55c0,-0.16667 0,-0.33333 0,-0.5c0,-0.2 0,-0.38333 0,-0.55c0,-0.16667 0,-0.35 0,-0.55c0,-0.16667 0,-0.33333 0,-0.5c0,-0.2 0,-0.38333 0,-0.55c-0.06667,-0.16667 -0.13333,-0.35 -0.2,-0.55c-0.13333,-0.16667 -0.25,-0.35 -0.35,-0.55c-0.06667,-0.16667 -0.13333,-0.33333 -0.2,-0.5c0,-0.2 0,-0.38333 0,-0.55c0,-0.16667 0,-0.35 0,-0.55c0,-0.16667 0,-0.33333 0,-0.5c0,-0.2 0,-0.38333 0,-0.55c0,-0.16667 0,-0.35 0,-0.55c0,-0.16667 0,-0.33333 0,-0.5c0,-0.2 0,-0.38333 0,-0.55c-1.06667,0 -2.13333,0 -3.2,0c0,0.16667 0,0.35 0,0.55c0,0.16667 0,0.33333 0,0.5c0,0.2 0,0.38333 0,0.55c0.06667,0.16667 0.13333,0.35 0.2,0.55c0.1,0.16667 0.21667,0.33333 0.35,0.5c0.06667,0.2 0.11667,0.38333 0.15,0.55c0,0.16667 0,0.35 0,0.55c0,0.16667 0,0.33333 0,0.5c0,0.2 0,0.38333 0,0.55c0,0.36667 0,0.73333 0,1.1c0,0.33333 0,0.68333 0,1.05c0,0.53333 0,1.06667 0,1.6c0,0.53333 0,1.06667 0,1.6c0,0.53333 0,1.06667 0,1.6c0,0.2 0,0.38333 0,0.55c-0.1,0.2 -0.21667,0.38333 -0.35,0.55c-0.1,0.16667 -0.21667,0.35 -0.35,0.55c0,0.16667 0,0.33333 0,0.5c0,0.2 0,0.38333 0,0.55c0,0.16667 0,0.35 0,0.55c-0.06667,0.16667 -0.13333,0.33333 -0.2,0.5c-0.1,0.2 -0.21667,0.38333 -0.35,0.55c-0.03333,0.2 -0.08333,0.38333 -0.15,0.55c0,0.16667 0,0.35 0,0.55c-0.06667,0.16667 -0.13333,0.33333 -0.2,0.5c-0.1,0.2 -0.21667,0.38333 -0.35,0.55c-0.06667,0.16667 -0.13333,0.35 -0.2,0.55c0,0.16667 0,0.33333 0,0.5c-0.03333,0.2 -0.08333,0.38333 -0.15,0.55c-0.13333,0.2 -0.25,0.38333 -0.35,0.55c-0.06667,0.16667 -0.13333,0.35 -0.2,0.55c-0.1,0.16667 -0.21667,0.33333 -0.35,0.5c-0.13333,0.2 -0.25,0.38333 -0.35,0.55c-0.06667,0.16667 -0.13333,0.35 -0.2,0.55c-0.03333,0.16667 -0.08333,0.33333 -0.15,0.5c-0.13333,0.2 -0.25,0.38333 -0.35,0.55c-0.06667,0.2 -0.13333,0.38333 -0.2,0.55c-0.13333,0.16667 -0.25,0.35 -0.35,0.55c-0.16667,0.16667 -0.35,0.33333 -0.55,0.5c-0.16667,0.2 -0.35,0.38333 -0.55,0.55c-0.16667,0.16667 -0.33333,0.35 -0.5,0.55c-0.13333,0.1 -0.25,0.21667 -0.35,0.35c-0.3,0.06667 -0.6,0.11667 -0.9,0.15c-0.6,0.13333 -1.2,0.26667 -1.8,0.4c-0.36667,0.1 -0.71667,0.21667 -1.05,0.35c-5.6,0.1 -11.2,0.21667 -16.8,0.35c-0.36667,0.1 -0.71667,0.21667 -1.05,0.35c-1.56667,0.13333 -3.11667,0.25 -4.65,0.35c-0.36667,0.13333 -0.73333,0.25 -1.1,0.35c-1.46667,0.13333 -2.95,0.25 -4.45,0.35c-0.43333,0.13333 -0.85,0.26667 -1.25,0.4c-1.3,0.1 -2.61667,0.21667 -3.95,0.35c-0.33333,0.1 -0.68333,0.21667 -1.05,0.35c-1.3,0.1 -2.61667,0.21667 -3.95,0.35c-0.33333,0.13333 -0.68333,0.25 -1.05,0.35c-1.8,0.13333 -3.58333,0.25 -5.35,0.35c-0.36667,0.13333 -0.73333,0.25 -1.1,0.35c-2.83333,0 -5.68333,0 -8.55,0c-0.4,-0.1 -0.81667,-0.2 -1.25,-0.3c-0.53333,-0.13333 -1.06667,-0.26667 -1.6,-0.4c-0.43333,-0.1 -0.85,-0.21667 -1.25,-0.35c-0.16667,-0.16667 -0.35,-0.35 -0.55,-0.55c-0.16667,-0.16667 -0.35,-0.33333 -0.55,-0.5c-0.16667,-0.2 -0.33333,-0.38333 -0.5,-0.55c-0.2,-0.16667 -0.38333,-0.35 -0.55,-0.55c-0.13333,-0.16667 -0.25,-0.35 -0.35,-0.55c-0.13333,-0.16667 -0.25,-0.33333 -0.35,-0.5c-0.2,-0.13333 -0.38333,-0.25 -0.55,-0.35c-0.16667,0.16667 -0.35,0.33333 -0.55,0.5c-0.1,0.13333 -0.21667,0.25 -0.35,0.35c-0.3,0.06667 -0.58333,0.15 -0.85,0.25c-0.36667,0.1 -0.73333,0.2 -1.1,0.3c-0.36667,0.13333 -0.73333,0.23333 -1.1,0.3c-0.56667,0.16667 -1.15,0.31667 -1.75,0.45c-0.36667,0.1 -0.73333,0.21667 -1.1,0.35c-1.53333,0.1 -3.06667,0.21667 -4.6,0.35c-0.36667,0.1 -0.73333,0.21667 -1.1,0.35c-2.03333,0.1 -4.05,0.21667 -6.05,0.35c-0.36667,0.13333 -0.73333,0.25 -1.1,0.35c-2,0.13333 -4.01667,0.25 -6.05,0.35c-0.36667,0.13333 -0.73333,0.25 -1.1,0.35c-2.23333,0.13333 -4.48333,0.26667 -6.75,0.4c-0.36667,0.1 -0.73333,0.21667 -1.1,0.35c-5.7,0 -11.41667,0 -17.15,0c-0.4,-0.13333 -0.81667,-0.25 -1.25,-0.35c-0.1,-0.2 -0.21667,-0.38333 -0.35,-0.55c-0.16667,-0.13333 -0.33333,-0.25 -0.5,-0.35c-0.06667,-0.06667 -0.13333,-0.11667 -0.2,-0.15c-0.36667,-0.13333 -0.71667,-0.26667 -1.05,-0.4c-0.13333,-0.16667 -0.26667,-0.35 -0.4,-0.55c-0.1,-0.16667 -0.21667,-0.33333 -0.35,-0.5c-0.03333,-0.2 -0.08333,-0.38333 -0.15,-0.55c-0.2,-0.16667 -0.38333,-0.35 -0.55,-0.55c-0.13333,-0.16667 -0.25,-0.35 -0.35,-0.55c-0.13333,-0.16667 -0.25,-0.33333 -0.35,-0.5c-0.06667,-0.2 -0.13333,-0.38333 -0.2,-0.55c-0.1,-0.16667 -0.21667,-0.35 -0.35,-0.55c-0.06667,-0.16667 -0.13333,-0.33333 -0.2,-0.5c-0.1,-0.2 -0.21667,-0.38333 -0.35,-0.55c-0.1,-0.16667 -0.21667,-0.35 -0.35,-0.55c-0.06667,-0.16667 -0.11667,-0.35 -0.15,-0.55c-0.06667,0 -0.1,0.01667 -0.1,0.05c-0.06667,0.16667 -0.1,0.33333 -0.1,0.5c0,0.2 0,0.38333 0,0.55c0,0.16667 0,0.35 0,0.55c0,0.16667 0,0.33333 0,0.5c0,0.2 0,0.38333 0,0.55c0,0.16667 0,0.35 0,0.55c0,0.16667 0,0.33333 0,0.5c0,0.2 0,0.38333 0,0.55c-0.06667,0.2 -0.13333,0.38333 -0.2,0.55c-0.1,0.16667 -0.21667,0.35 -0.35,0.55c-0.16667,0.16667 -0.33333,0.33333 -0.5,0.5c-0.2,0.2 -0.38333,0.38333 -0.55,0.55c-0.16667,0.16667 -0.35,0.35 -0.55,0.55c-0.1,0.1 -0.21667,0.21667 -0.35,0.35c-0.3,0.06667 -0.6,0.13333 -0.9,0.2c-0.36667,0.1 -0.71667,0.21667 -1.05,0.35c-0.36667,0.1 -0.73333,0.21667 -1.1,0.35c-2,0.1 -4.01667,0.21667 -6.05,0.35c-0.36667,0.1 -0.73333,0.21667 -1.1,0.35c-2.83333,0 -5.68333,0 -8.55,0c-0.4,-0.13333 -0.81667,-0.23333 -1.25,-0.3c-0.76667,-0.16667 -1.53333,-0.3 -2.3,-0.4c-0.43333,-0.13333 -0.85,-0.26667 -1.25,-0.4c-0.3,-0.1 -0.6,-0.2 -0.9,-0.3c-0.43333,-0.13333 -0.85,-0.26667 -1.25,-0.4c-0.13333,-0.1 -0.25,-0.21667 -0.35,-0.35c-0.36667,-0.1 -0.73333,-0.21667 -1.1,-0.35c-0.16667,-0.16667 -0.33333,-0.35 -0.5,-0.55c-0.13333,-0.1 -0.26667,-0.21667 -0.4,-0.35c-0.03333,-0.06667 -0.1,-0.11667 -0.2,-0.15c-0.33333,-0.13333 -0.68333,-0.26667 -1.05,-0.4c-0.16667,-0.16667 -0.33333,-0.33333 -0.5,-0.5c-0.2,-0.2 -0.38333,-0.38333 -0.55,-0.55c-0.16667,-0.16667 -0.35,-0.35 -0.55,-0.55c-0.16667,-0.16667 -0.33333,-0.33333 -0.5,-0.5c-0.2,-0.2 -0.38333,-0.38333 -0.55,-0.55c-0.13333,-0.13333 -0.25,-0.25 -0.35,-0.35c-0.06667,-0.06667 -0.13333,-0.11667 -0.2,-0.15c-0.36667,-0.13333 -0.71667,-0.26667 -1.05,-0.4c-0.13333,-0.13333 -0.25,-0.25 -0.35,-0.35c0,0.16667 0,0.35 0,0.55c0,0.16667 0,0.33333 0,0.5c0,0.2 0,0.38333 0,0.55c0.1,0.16667 0.21667,0.35 0.35,0.55c0.1,0.16667 0.21667,0.33333 0.35,0.5c0,0.2 0,0.38333 0,0.55c0,0.2 0,0.38333 0,0.55c0,0.16667 0,0.35 0,0.55c0,0.16667 0,0.33333 0,0.5c-0.13333,0.2 -0.25,0.38333 -0.35,0.55c-0.13333,0.16667 -0.25,0.35 -0.35,0.55c-0.13333,0.1 -0.26667,0.21667 -0.4,0.35c-0.3,0.06667 -0.6,0.11667 -0.9,0.15c-1.06667,0.13333 -2.13333,0.26667 -3.2,0.4c-0.33333,0.1 -0.68333,0.21667 -1.05,0.35c-1.9,0 -3.8,0 -5.7,0c-0.43333,-0.13333 -0.85,-0.25 -1.25,-0.35c-1.8,0 -3.6,0 -5.4,0c-0.4,0.1 -0.81667,0.21667 -1.25,0.35c-3.66667,0.1 -7.35,0.21667 -11.05,0.35c-0.36667,0.1 -0.73333,0.2 -1.1,0.3c-0.56667,0.16667 -1.15,0.31667 -1.75,0.45c-0.36667,0.1 -0.73333,0.2 -1.1,0.3c-0.46667,0 -0.93333,0 -1.4,0c-0.43333,-0.1 -0.85,-0.21667 -1.25,-0.35c-0.13333,-0.16667 -0.25,-0.35 -0.35,-0.55c-0.23333,-0.16667 -0.48333,-0.33333 -0.75,-0.5c-0.1,-0.2 -0.21667,-0.38333 -0.35,-0.55c-0.03333,-0.16667 -0.08333,-0.35 -0.15,-0.55c-0.06667,-0.16667 -0.13333,-0.33333 -0.2,-0.5c-0.1,-0.2 -0.21667,-0.38333 -0.35,-0.55c0,-0.16667 0,-0.35 0,-0.55c-0.06667,-0.16667 -0.13333,-0.35 -0.2,-0.55c-0.03333,-0.16667 -0.08333,-0.33333 -0.15,-0.5c-0.13333,-0.2 -0.25,-0.38333 -0.35,-0.55c0,-0.16667 0,-0.35 0,-0.55c-0.06667,-0.16667 -0.13333,-0.33333 -0.2,-0.5c-0.06667,-0.2 -0.11667,-0.38333 -0.15,-0.55c-0.13333,-0.16667 -0.26667,-0.35 -0.4,-0.55c0,-0.16667 0,-0.35 0,-0.55c-0.03333,-0.16667 -0.08333,-0.33333 -0.15,-0.5c-0.06667,-0.2 -0.13333,-0.38333 -0.2,-0.55c-0.1,-0.16667 -0.21667,-0.35 -0.35,-0.55c0,-0.16667 0,-0.33333 0,-0.5c0,-0.2 0,-0.38333 0,-0.55c0,-0.16667 0,-0.35 0,-0.55c0,-0.16667 0,-0.35 0,-0.55c-0.06667,-0.16667 -0.11667,-0.33333 -0.15,-0.5c-0.13333,-0.2 -0.26667,-0.38333 -0.4,-0.55c-0.03333,-0.16667 -0.08333,-0.35 -0.15,-0.55c0,-0.16667 0,-0.33333 0,-0.5c0,-0.2 0,-0.38333 0,-0.55c0,-0.16667 0,-0.35 0,-0.55c0,-0.16667 0,-0.35 0,-0.55c0,-0.16667 0,-0.33333 0,-0.5c0,-0.2 0,-0.38333 0,-0.55c-0.06667,-0.16667 -0.13333,-0.35 -0.2,-0.55c-0.03333,-0.16667 -0.08333,-0.33333 -0.15,-0.5c-0.13333,-0.2 -0.25,-0.38333 -0.35,-0.55c0,-0.16667 0,-0.35 0,-0.55c0,-0.16667 0,-0.35 0,-0.55c0,-0.16667 0,-0.33333 0,-0.5c0,-0.36667 0,-0.73333 0,-1.1c0,-0.33333 0,-0.68333 0,-1.05c0,-0.36667 0,-0.73333 0,-1.1c0,-0.33333 0,-0.68333 0,-1.05c0,-0.53333 0,-1.06667 0,-1.6c0,-0.16667 0,-0.35 0,-0.55c-0.06667,-0.06667 -0.13333,-0.1 -0.2,-0.1c-0.23333,0 -0.46667,0.03333 -0.7,0.1c-0.43333,0.13333 -0.85,0.26667 -1.25,0.4c-0.3,0.1 -0.6,0.2 -0.9,0.3c-1.06667,0.13333 -2.13333,0.26667 -3.2,0.4c0,0.16667 0,0.33333 0,0.5c0.1,0.2 0.21667,0.38333 0.35,0.55c0.06667,0.16667 0.11667,0.35 0.15,0.55c0.06667,0.16667 0.13333,0.33333 0.2,0.5c0,0.2 0,0.38333 0,0.55c0.1,0.2 0.21667,0.38333 0.35,0.55c0.06667,0.16667 0.13333,0.35 0.2,0.55c0.03333,0.16667 0.08333,0.33333 0.15,0.5c0,0.2 0,0.38333 0,0.55c0,0.16667 0,0.35 0,0.55c0.06667,0.16667 0.13333,0.33333 0.2,0.5c0.1,0.2 0.21667,0.38333 0.35,0.55c0.06667,0.2 0.11667,0.38333 0.15,0.55c0,0.16667 0,0.35 0,0.55c0,0.16667 0,0.33333 0,0.5c0,0.2 0,0.38333 0,0.55c0.06667,0.16667 0.13333,0.35 0.2,0.55c0.06667,0.16667 0.13333,0.33333 0.2,0.5c0.03333,0.2 0.08333,0.38333 0.15,0.55c0.06667,0.2 0.13333,0.38333 0.2,0.55c0,0.16667 0,0.35 0,0.55c0,0.16667 0,0.33333 0,0.5c0.06667,0.2 0.11667,0.38333 0.15,0.55c0.13333,0.16667 0.25,0.35 0.35,0.55c0.06667,0.16667 0.13333,0.33333 0.2,0.5c0,0.2 0,0.38333 0,0.55c0,0.2 0,0.38333 0,0.55c0.06667,0.16667 0.13333,0.35 0.2,0.55c0.1,0.16667 0.21667,0.33333 0.35,0.5c0.1,0.2 0.21667,0.38333 0.35,0.55c0,0.16667 0,0.35 0,0.55c0,0.16667 0,0.33333 0,0.5c0.1,0.2 0.21667,0.38333 0.35,0.55c0.13333,0.2 0.25,0.38333 0.35,0.55c0,0.16667 0,0.35 0,0.55c0,0.16667 0,0.33333 0,0.5c-0.06667,0.2 -0.11667,0.38333 -0.15,0.55c0,0.16667 0,0.35 0,0.55c-0.13333,0.16667 -0.26667,0.33333 -0.4,0.5c-0.16667,0.2 -0.33333,0.38333 -0.5,0.55c-0.3,0.13333 -0.6,0.25 -0.9,0.35c-3.26667,0.13333 -6.53333,0.25 -9.8,0.35c-0.3,0.13333 -0.6,0.26667 -0.9,0.4c-2.56667,0.1 -5.13333,0.21667 -7.7,0.35c-0.3,0.1 -0.6,0.21667 -0.9,0.35c-7.13333,0 -14.26667,0 -21.4,0c-0.36667,-0.13333 -0.73333,-0.25 -1.1,-0.35c-2.96667,-0.06667 -5.93333,-0.13333 -8.9,-0.2c-0.43333,-0.1 -0.85,-0.21667 -1.25,-0.35c-0.13333,-0.16667 -0.25,-0.35 -0.35,-0.55c-0.26667,-0.16667 -0.51667,-0.33333 -0.75,-0.5c-0.1,-0.2 -0.21667,-0.38333 -0.35,-0.55c-0.06667,-0.16667 -0.11667,-0.35 -0.15,-0.55c-0.06667,-0.16667 -0.13333,-0.35 -0.2,-0.55c-0.13333,-0.16667 -0.25,-0.33333 -0.35,-0.5c0,-0.2 0,-0.38333 0,-0.55c0,-0.16667 0,-0.35 0,-0.55c0,-0.16667 0,-0.33333 0,-0.5c0,-0.2 0,-0.38333 0,-0.55c-0.06667,-0.16667 -0.13333,-0.35 -0.2,-0.55c-0.1,-0.16667 -0.21667,-0.35 -0.35,-0.55c-0.06667,-0.16667 -0.11667,-0.33333 -0.15,-0.5c0,-0.2 0,-0.38333 0,-0.55c0,-0.16667 0,-0.35 0,-0.55c0,-0.16667 0,-0.33333 0,-0.5c0,-0.2 0,-0.38333 0,-0.55c0,-0.16667 0,-0.35 0,-0.55c0,-0.16667 0,-0.35 0,-0.55c-0.06667,-0.16667 -0.13333,-0.33333 -0.2,-0.5c-0.06667,-0.2 -0.13333,-0.38333 -0.2,-0.55c-0.1,-0.16667 -0.21667,-0.35 -0.35,-0.55c0,-0.16667 0,-0.33333 0,-0.5c0,-0.2 0,-0.38333 0,-0.55c0,-0.16667 0,-0.35 0,-0.55c0,-0.16667 0,-0.35 0,-0.55c0,-0.16667 0,-0.33333 0,-0.5c0,-0.2 0,-0.38333 0,-0.55c0,-0.16667 0,-0.35 0,-0.55c-0.1,-0.16667 -0.21667,-0.33333 -0.35,-0.5c-0.1,-0.2 -0.21667,-0.38333 -0.35,-0.55c0,-0.16667 0,-0.35 0,-0.55c0,-0.16667 0,-0.35 0,-0.55c0,-0.16667 0,-0.33333 0,-0.5c0,-0.2 0,-0.38333 0,-0.55c0,-0.16667 0,-0.35 0,-0.55c0,-0.16667 0,-0.33333 0,-0.5c0,-0.2 0,-0.38333 0,-0.55c0,-0.16667 0,-0.35 0,-0.55c0,-0.36667 0,-0.71667 0,-1.05c0.06667,-0.2 0.13333,-0.38333 0.2,-0.55c0.03333,-0.16667 0.08333,-0.35 0.15,-0.55c0.13333,-0.16667 0.25,-0.33333 0.35,-0.5c0,-1.26667 0,-2.51667 0,-3.75c0,-2.5 0,-5 0,-7.5c0,-2.7 0,-5.38333 0,-8.05c0,-2.33333 0,-4.65 0,-6.95c0,-2.33333 0,-4.66667 0,-7c0,-0.86667 0,-1.75 0,-2.65c0,-0.73333 0,-1.45 0,-2.15c-0.03333,-0.16667 -0.08333,-0.35 -0.15,-0.55c-0.06667,-0.16667 -0.13333,-0.33333 -0.2,-0.5c-0.1,-0.2 -0.21667,-0.38333 -0.35,-0.55c0,-0.16667 0,-0.35 0,-0.55c0,-0.16667 0,-0.35 0,-0.55c0,-0.16667 0,-0.33333 0,-0.5c0,-0.2 0,-0.38333 0,-0.55c0,-0.16667 0,-0.35 0,-0.55c0,-0.16667 0,-0.33333 0,-0.5c0,-0.36667 0,-0.73333 0,-1.1c0,-0.36667 0,-0.71667 0,-1.05c0,-0.36667 0,-0.73333 0,-1.1c-0.13333,-0.16667 -0.25,-0.33333 -0.35,-0.5c-0.06667,-0.2 -0.13333,-0.38333 -0.2,-0.55c-0.03333,-0.16667 -0.08333,-0.35 -0.15,-0.55c0,-0.16667 0,-0.35 0,-0.55c0,-0.16667 0,-0.33333 0,-0.5c0,-0.2 0,-0.38333 0,-0.55c0,-0.36667 0,-0.71667 0,-1.05c0,-0.36667 0,-0.73333 0,-1.1c0,-0.53333 0,-1.06667 0,-1.6c0,-0.36667 0,-0.71667 0,-1.05c0,-0.53333 0,-1.08333 0,-1.65c0,-0.16667 0,-0.33333 0,-0.5c0.06667,-0.2 0.11667,-0.38333 0.15,-0.55c0.06667,-0.16667 0.13333,-0.35 0.2,-0.55c0.1,-0.16667 0.21667,-0.33333 0.35,-0.5c0,-0.2 0,-0.38333 0,-0.55c0,-0.16667 0,-0.35 0,-0.55c0,-0.16667 0,-0.35 0,-0.55c0,-0.33333 0,-0.68333 0,-1.05c0,-0.36667 0,-0.71667 0,-1.05c0,-0.36667 0,-0.73333 0,-1.1c0,-0.36667 0,-0.71667 0,-1.05c0,-0.53333 0,-1.06667 0,-1.6c0,-0.2 0,-0.38333 0,-0.55c0.13333,-0.16667 0.25,-0.35 0.35,-0.55c0.06667,-0.16667 0.13333,-0.35 0.2,-0.55c0.06667,-0.16667 0.11667,-0.33333 0.15,-0.5c0,-0.2 0,-0.38333 0,-0.55c0,-0.16667 0,-0.35 0,-0.55c0,-0.16667 0,-0.33333 0,-0.5c0,-0.2 0,-0.38333 0,-0.55c0,-0.16667 0,-0.35 0,-0.55c0,-0.16667 0,-0.35 0,-0.55c0,-0.16667 0,-0.33333 0,-0.5c0,-0.2 0,-0.38333 0,-0.55c0,-0.36667 0,-0.71667 0,-1.05c0.13333,-0.2 0.25,-0.38333 0.35,-0.55c0.13333,-0.16667 0.26667,-0.35 0.4,-0.55c0.16667,-0.16667 0.33333,-0.33333 0.5,-0.5c0.2,-0.13333 0.38333,-0.26667 0.55,-0.4c0.3,-0.1 0.6,-0.21667 0.9,-0.35c0.16667,-0.16667 0.35,-0.33333 0.55,-0.5c0.16667,-0.13333 0.33333,-0.26667 0.5,-0.4c0.06667,-0.03333 0.13333,-0.08333 0.2,-0.15c0.3,-0.13333 0.6,-0.25 0.9,-0.35c0.16667,-0.2 0.33333,-0.38333 0.5,-0.55c0.2,-0.13333 0.38333,-0.25 0.55,-0.35c0.06667,-0.06667 0.13333,-0.13333 0.2,-0.2c0.3,-0.1 0.6,-0.21667 0.9,-0.35c0.16667,-0.1 0.33333,-0.21667 0.5,-0.35c0.3,-0.06667 0.6,-0.13333 0.9,-0.2c0.3,-0.1 0.6,-0.2 0.9,-0.3c0.43333,-0.13333 0.85,-0.25 1.25,-0.35c0.53333,-0.13333 1.06667,-0.26667 1.6,-0.4c1.2,-0.23333 2.38333,-0.48333 3.55,-0.75c0.43333,-0.1 0.86667,-0.2 1.3,-0.3c1.23333,-0.13333 2.48333,-0.26667 3.75,-0.4c0.4,-0.1 0.81667,-0.21667 1.25,-0.35c0.23333,0 0.46667,0 0.7,0c1.3,-0.06667 2.6,-0.11667 3.9,-0.15c0.36667,-0.13333 0.73333,-0.25 1.1,-0.35c1.3,-0.13333 2.6,-0.26667 3.9,-0.4c0.36667,-0.1 0.73333,-0.21667 1.1,-0.35c7.86667,0.06667 15.71667,0.13333 23.55,0.2c0.23333,0.06667 0.46667,0.11667 0.7,0.15c0.3,0.13333 0.6,0.26667 0.9,0.4c0.2,0.1 0.38333,0.21667 0.55,0.35c0.3,0.1 0.6,0.21667 0.9,0.35c0.1,0.16667 0.21667,0.35 0.35,0.55c0.16667,0.16667 0.35,0.33333 0.55,0.5c0.4,0.2 0.81667,0.38333 1.25,0.55c0.06667,0.16667 0.11667,0.35 0.15,0.55c0.13333,0.1 0.25,0.21667 0.35,0.35c0.56667,-0.06667 1.11667,-0.13333 1.65,-0.2c0.4,-0.1 0.81667,-0.21667 1.25,-0.35c1.23333,-0.1 2.48333,-0.21667 3.75,-0.35c0.4,-0.13333 0.81667,-0.23333 1.25,-0.3c0.76667,-0.16667 1.53333,-0.31667 2.3,-0.45c0.43333,-0.1 0.85,-0.2 1.25,-0.3c3.63333,-0.13333 7.26667,-0.26667 10.9,-0.4c0.4,-0.1 0.81667,-0.21667 1.25,-0.35c1.9,0 3.8,0 5.7,0c0.43333,0.13333 0.85,0.25 1.25,0.35c3.4,0.13333 6.8,0.26667 10.2,0.4c0.33333,0.1 0.68333,0.21667 1.05,0.35c0.83333,0.1 1.66667,0.21667 2.5,0.35c0.43333,0.1 0.85,0.21667 1.25,0.35c1,0.13333 2.01667,0.25 3.05,0.35c0.36667,0.13333 0.71667,0.25 1.05,0.35c1.33333,0.13333 2.65,0.25 3.95,0.35c0.4,0.13333 0.81667,0.26667 1.25,0.4c1.23333,0.1 2.48333,0.21667 3.75,0.35c0.4,0.1 0.81667,0.21667 1.25,0.35c1.23333,0.1 2.48333,0.21667 3.75,0.35c0.4,0.13333 0.81667,0.23333 1.25,0.3c0.76667,0.16667 1.53333,0.3 2.3,0.4c0.36667,0.13333 0.73333,0.25 1.1,0.35c0.56667,0.13333 1.15,0.26667 1.75,0.4c0.36667,0.1 0.73333,0.21667 1.1,0.35c0.16667,0.1 0.33333,0.21667 0.5,0.35c0.3,0.1 0.6,0.21667 0.9,0.35c0.13333,0.13333 0.25,0.25 0.35,0.35c0.36667,0.13333 0.73333,0.25 1.1,0.35c0.16667,0.13333 0.35,0.25 0.55,0.35c0.3,0.13333 0.58333,0.26667 0.85,0.4c0.2,0.16667 0.38333,0.33333 0.55,0.5c0.23333,0 0.46667,0 0.7,0c0,-0.16667 0,-0.33333 0,-0.5c0,-0.2 0,-0.38333 0,-0.55c0,-0.2 0,-0.38333 0,-0.55c0,-0.16667 0,-0.35 0,-0.55c0,-0.16667 0,-0.33333 0,-0.5c0,-0.2 0,-0.38333 0,-0.55c0,-0.16667 0,-0.35 0,-0.55c0.13333,-0.16667 0.26667,-0.33333 0.4,-0.5c0.1,-0.2 0.21667,-0.38333 0.35,-0.55c0.16667,-0.2 0.33333,-0.38333 0.5,-0.55c0.2,-0.16667 0.38333,-0.35 0.55,-0.55c0.2,-0.1 0.38333,-0.21667 0.55,-0.35c0.06667,-0.06667 0.13333,-0.1 0.2,-0.1c0.26667,-0.1 0.55,-0.18333 0.85,-0.25c0.53333,-0.1 1.06667,-0.21667 1.6,-0.35c0.43333,-0.13333 0.85,-0.25 1.25,-0.35c8.4,-0.13333 16.8,-0.25 25.2,-0.35c0.4,-0.13333 0.81667,-0.25 1.25,-0.35c2.2,-0.13333 4.4,-0.26667 6.6,-0.4c0.43333,-0.1 0.85,-0.21667 1.25,-0.35c2.43333,-0.1 4.88333,-0.21667 7.35,-0.35c0.4,-0.1 0.8,-0.21667 1.2,-0.35c2.16667,0 4.31667,0 6.45,0c0.36667,0.13333 0.71667,0.25 1.05,0.35c0.13333,0.13333 0.26667,0.25 0.4,0.35c0.33333,0 0.68333,0 1.05,0c0.16667,-0.1 0.35,-0.21667 0.55,-0.35c0.16667,-0.16667 0.33333,-0.35 0.5,-0.55c0.2,-0.16667 0.38333,-0.33333 0.55,-0.5c0.2,-0.13333 0.38333,-0.25 0.55,-0.35c0.06667,-0.06667 0.13333,-0.11667 0.2,-0.15c0.26667,-0.1 0.55,-0.18333 0.85,-0.25c0.5,0 0.98333,0 1.45,0c0.36667,0.13333 0.71667,0.26667 1.05,0.4c2.33333,0 4.66667,0 7,0c0.4,-0.13333 0.81667,-0.26667 1.25,-0.4c5.53333,-0.1 11.06667,-0.21667 16.6,-0.35c0.4,-0.1 0.81667,-0.21667 1.25,-0.35c1.7,-0.1 3.41667,-0.21667 5.15,-0.35c0.43333,-0.13333 0.85,-0.25 1.25,-0.35c2.43333,-0.13333 4.88333,-0.25 7.35,-0.35z" fill="#ffffff"/><path d="M449.2024,355.70631c3.33333,7.1 4.33333,14.4 3,21.9l-17.65,3l4.25,23.75l-27.4,1.9l-1.85,-4.25c-2.2,-1.23333 -3.35,-3.96667 -3.45,-8.2c-0.4,-18.8 -1.46667,-37.55 -3.2,-56.25c-0.56667,-6.03333 -0.48333,-11.68333 0.25,-16.95l2.1,0.95c0.3,-0.13333 0.61667,-0.26667 0.95,-0.4c16.66667,-6.16667 33.78333,-7.88333 51.35,-5.15l5.1,29.1c-8.06667,1.6 -16.35,2.4 -24.85,2.4c-3.36667,0 -5.61667,0.86667 -6.75,2.6l1.95,6.55l15.75,-1.8c0.16667,0.26667 0.31667,0.55 0.45,0.85M527.4024,335.95631c-0.6,11.86667 -6.03333,21.26667 -16.3,28.2c2.93333,3.4 5.75,6.85 8.45,10.35c2.26667,2.93333 4.5,5.86667 6.7,8.8c4.2,5.63333 6.53333,11.53333 7,17.7l-25.2,2.8l-19.1,-24.5l3.1,22.1l-26.4,3.75c-0.4,-0.86667 -0.61667,-1.73333 -0.65,-2.6c-0.76667,-26.63333 -0.96667,-53.31667 -0.6,-80.05c0.03333,-2.16667 0.7,-3.2 2,-3.1c0.36667,0.13333 0.71667,0.13333 1.05,0c16.43333,-3.76667 32.45,-3.03333 48.05,2.2c4.66667,2.03333 8.25,5.25 10.75,9.65c0.83333,1.46667 1.21667,3.03333 1.15,4.7M486.1524,338.40631l1.85,10.4c0.8,0.1 1.6,0.2 2.4,0.3c1.86667,-0.33333 3.8,-0.6 5.8,-0.8c5.5,-0.73333 7.95,-3.43333 7.35,-8.1c-0.16667,-0.2 -0.33333,-0.36667 -0.5,-0.5c-5.53333,-3.6 -11.16667,-4.03333 -16.9,-1.3M586.3024,349.40631l-30.3,4.1l2.1,7.1l15.9,-2.55c0.3,0.26667 0.55,0.56667 0.75,0.9c1.43333,2.53333 2.41667,5.23333 2.95,8.1c0.43333,2.4 0.06667,4.58333 -1.1,6.55l-17.35,3.35l2.25,4.9l27.15,-2.25c0.86667,1.06667 1.53333,2.2 2,3.4c2.36667,5.9 2.51667,11.41667 0.45,16.55l-50.7,2.9c-2.36667,-2.93333 -3.68333,-6.3 -3.95,-10.1c-1.46667,-21.7 -2.45,-43.33333 -2.95,-64.9l48.1,-7.1c2.4,1.26667 3.71667,3.18333 3.95,5.75c0.66667,7.8 0.91667,15.56667 0.75,23.3M646.8024,346.25631l-29.5,3.75l0.65,4.4c2.1,0.8 4.53333,0.86667 7.3,0.2c2.66667,-0.46667 5.3,-0.91667 7.9,-1.35c1.33333,-0.2 2.3,0.11667 2.9,0.95c3.43333,4.56667 4.71667,9.93333 3.85,16.1l-20.95,2.15l0.65,3.5c9.43333,-0.3 18.95,-0.15 28.55,0.45c0.8,0.16667 1.38333,0.58333 1.75,1.25c2.93333,5.63333 4.86667,11.71667 5.8,18.25l-54.2,3.9c-1.23333,-1.23333 -1.95,-2.65 -2.15,-4.25c-1.7,-15.06667 -2.85,-30.2 -3.45,-45.4c-0.06667,-1.9 0.03333,-3.76667 0.3,-5.6c1.06667,-7.16667 -0.31667,-13.26667 -4.15,-18.3c0.33333,-0.4 0.71667,-0.71667 1.15,-0.95c4.13333,-2.23333 8.51667,-3.73333 13.15,-4.5c10.86667,-1.63333 21.71667,-2.41667 32.55,-2.35c4.13333,0.43333 6.3,2.75 6.5,6.95c0.33333,7.2 0.8,14.15 1.4,20.85M737.9024,321.10631c4.93333,11.5 2.56667,21.7 -7.1,30.6c-3.13333,2.83333 -4.55,4.36667 -4.25,4.6l15.3,-5.8l1.15,2.25l0.35,31.15l23.45,-4c1.36667,1.06667 2.15,2.51667 2.35,4.35c0.56667,5.23333 -0.03333,10 -1.8,14.3h-2.15l-44.05,4.05c-0.3,-0.7 -0.56667,-1.41667 -0.8,-2.15c-1.7,-5.63333 -2.93333,-11.43333 -3.7,-17.4c-1.06667,-8.36667 -0.03333,-16.11667 3.1,-23.25l-11,3.2c1.2,4.6 2.01667,9.38333 2.45,14.35c0.33333,3.7 1.05,7.26667 2.15,10.7c1.46667,4.46667 0.9,8.33333 -1.7,11.6c-4.63333,0.63333 -9.25,1.23333 -13.85,1.8c-1.73333,0.36667 -3.43333,0.8 -5.1,1.3c-5.33333,1.53333 -9.81667,0.81667 -13.45,-2.15l-0.4,-51.1l-11.7,1.25l-1.6,-2.25l1,-36.85c0.9,-0.76667 1.93333,-1.25 3.1,-1.45c8.7,-2 17.58333,-3.2 26.65,-3.6c12.1,-1.03333 23.45,1.16667 34.05,6.6c3.5,1.76667 6.01667,4.4 7.55,7.9M699.1024,334.80631l0.65,7.75c2.1,0.3 4.08333,-0.01667 5.95,-0.95c3.5,-1.63333 6,-4.2 7.5,-7.7l-0.45,-2.05c-1.2,-1.7 -2.8,-2.73333 -4.8,-3.1c-3.76667,-0.86667 -6.68333,-0.46667 -8.75,1.2l-0.1,4.85M808.6024,394.45631c-6.46667,2.93333 -13.33333,3.65 -20.6,2.15c-0.43333,-0.23333 -0.83333,-0.46667 -1.2,-0.7c-0.66667,-0.46667 -1.13333,-0.98333 -1.4,-1.55c-3.66667,-8.4 -5.46667,-17.28333 -5.4,-26.65l-5.7,0.25l-4.1,10.25l-17.85,1.3l-1.9,-2.55l10.25,-38.5l3.85,-6.65l31.55,0.35l2.5,2.4l11.55,57.5c-0.06667,1.16667 -0.58333,1.96667 -1.55,2.4M782.9024,349.95631c0,-0.63333 -0.3,-1.18333 -0.9,-1.65c-0.56667,-0.46667 -1.25,-0.7 -2.05,-0.7c-0.8,0 -1.5,0.23333 -2.1,0.7c-0.56667,0.46667 -0.85,1.01667 -0.85,1.65c0,0.63333 0.28333,1.18333 0.85,1.65c0.6,0.46667 1.3,0.7 2.1,0.7c0.8,0 1.48333,-0.23333 2.05,-0.7c0.6,-0.46667 0.9,-1.01667 0.9,-1.65M868.0024,323.55631l-27.45,37.2l2.85,36.95c-0.83333,0.76667 -1.78333,1.26667 -2.85,1.5c-8.06667,1.76667 -16.13333,1.91667 -24.2,0.45c-2.06667,-1.13333 -3.06667,-2.95 -3,-5.45c0.36667,-13.63333 0.83333,-27.25 1.4,-40.85c-3.5,-4.96667 -6.68333,-10.21667 -9.55,-15.75c-1.83333,-3.53333 -3.86667,-6.96667 -6.1,-10.3c-2.9,-4.23333 -4.21667,-8.63333 -3.95,-13.2c7.33333,-3.23333 15.13333,-5.21667 23.4,-5.95c0.66667,0.16667 1.16667,0.46667 1.5,0.9c5.73333,7.06667 9.38333,15.36667 10.95,24.9l17.9,-24.65l11.3,6.4z" fill="#000000"/></g></g></svg>