<svg version="1.1" xmlns="http://www.w3.org/2000/svg" xmlns:xlink="http://www.w3.org/1999/xlink" width="615.3" height="122.45" viewBox="0,0,615.3,122.45"><g transform="translate(-329.43784,-296.50631)"><g data-paper-data="{&quot;isPaintingLayer&quot;:true}" fill-rule="nonzero" stroke="none" stroke-width="1" stroke-linecap="butt" stroke-linejoin="miter" stroke-miterlimit="10" stroke-dasharray="" stroke-dashoffset="0" style="mix-blend-mode: normal"><path d="M347.13784,305.60631c0.16667,-0.13333 0.33333,-0.25 0.5,-0.35c0.3,-0.13333 0.6,-0.26667 0.9,-0.4c0.16667,-0.16667 0.35,-0.33333 0.55,-0.5c0.16667,-0.13333 0.35,-0.25 0.55,-0.35c0.03333,-0.06667 0.08333,-0.11667 0.15,-0.15c0.3,-0.1 0.6,-0.18333 0.9,-0.25c0.3,-0.1 0.6,-0.2 0.9,-0.3c0.4,-0.13333 0.81667,-0.26667 1.25,-0.4c0.3,-0.1 0.6,-0.2 0.9,-0.3c0.4,-0.16667 0.81667,-0.3 1.25,-0.4c1,-0.13333 2,-0.25 3,-0.35c0.43333,-0.13333 0.85,-0.25 1.25,-0.35c0.5,0 0.98333,0 1.45,0c3.1,0.03333 6.2,0.08333 9.3,0.15c0.33333,0.13333 0.68333,0.25 1.05,0.35c0.83333,0.13333 1.66667,0.23333 2.5,0.3c1.2,0.1 2.38333,0.18333 3.55,0.25c0.3,0.13333 0.6,0.25 0.9,0.35c1.13333,0.13333 2.26667,0.25 3.4,0.35c0.3,0.13333 0.6,0.25 0.9,0.35c0.16667,0.13333 0.35,0.26667 0.55,0.4c0.46667,0.03333 0.93333,0.08333 1.4,0.15c0.3,0.13333 0.6,0.25 0.9,0.35c0.2,0.13333 0.38333,0.25 0.55,0.35c0.3,0.13333 0.6,0.26667 0.9,0.4c0.1,0.1 0.21667,0.21667 0.35,0.35c0.06667,0.06667 0.13333,0.11667 0.2,0.15c0.26667,0.13333 0.55,0.25 0.85,0.35c0.13333,0.13333 0.25,0.26667 0.35,0.4c0.06667,0 0.13333,0 0.2,0c1.43333,0 2.86667,0 4.3,0c0.33333,0.1 0.68333,0.21667 1.05,0.35c5.66667,0 11.31667,0 16.95,0c0.43333,-0.13333 0.85,-0.25 1.25,-0.35c1.96667,-0.13333 3.93333,-0.26667 5.9,-0.4c0.43333,-0.1 0.85,-0.21667 1.25,-0.35c1.26667,-0.1 2.51667,-0.21667 3.75,-0.35c0.43333,-0.1 0.85,-0.21667 1.25,-0.35c1.96667,-0.13333 3.93333,-0.25 5.9,-0.35c0.43333,-0.13333 0.85,-0.25 1.25,-0.35c1.5,-0.13333 2.98333,-0.25 4.45,-0.35c0.43333,-0.13333 0.85,-0.26667 1.25,-0.4c0.8,-0.1 1.58333,-0.21667 2.35,-0.35c0.4,-0.1 0.81667,-0.21667 1.25,-0.35c0.3,-0.1 0.6,-0.2 0.9,-0.3c0.4,-0.16667 0.81667,-0.3 1.25,-0.4c0.53333,-0.13333 1.06667,-0.26667 1.6,-0.4c0.4,-0.1 0.81667,-0.2 1.25,-0.3c1.46667,-0.13333 2.95,-0.26667 4.45,-0.4c0.43333,-0.1 0.85,-0.21667 1.25,-0.35c1.43333,0 2.86667,0 4.3,0c0.33333,0.13333 0.68333,0.25 1.05,0.35c0.83333,0.13333 1.66667,0.26667 2.5,0.4c0.36667,0.1 0.73333,0.21667 1.1,0.35c0.16667,0.1 0.33333,0.21667 0.5,0.35c0.3,0.1 0.6,0.21667 0.9,0.35c0.2,0.13333 0.38333,0.25 0.55,0.35c0.3,0.13333 0.6,0.25 0.9,0.35c0.16667,0.13333 0.33333,0.25 0.5,0.35c0.3,0.13333 0.6,0.26667 0.9,0.4c0.2,0.16667 0.38333,0.33333 0.55,0.5c0.23333,0.2 0.46667,0.38333 0.7,0.55c0.2,0.16667 0.38333,0.35 0.55,0.55c0.16667,0.16667 0.35,0.33333 0.55,0.5c0.1,0.2 0.21667,0.38333 0.35,0.55c0.23333,0.2 0.46667,0.38333 0.7,0.55c0.2,0.06667 0.38333,0.11667 0.55,0.15c0.06667,-0.1 0.13333,-0.21667 0.2,-0.35c0.1,-0.16667 0.21667,-0.33333 0.35,-0.5c0.1,-0.2 0.21667,-0.38333 0.35,-0.55c0.06667,-0.16667 0.11667,-0.35 0.15,-0.55c0.13333,-0.16667 0.25,-0.35 0.35,-0.55c0.2,-0.16667 0.38333,-0.33333 0.55,-0.5c0.23333,-0.2 0.46667,-0.38333 0.7,-0.55c0.13333,-0.16667 0.26667,-0.35 0.4,-0.55c0.16667,-0.16667 0.33333,-0.33333 0.5,-0.5c0.2,-0.2 0.38333,-0.38333 0.55,-0.55c0.16667,-0.13333 0.35,-0.26667 0.55,-0.4c0.06667,-0.03333 0.11667,-0.08333 0.15,-0.15c0.3,-0.1 0.6,-0.21667 0.9,-0.35c0.2,-0.13333 0.38333,-0.25 0.55,-0.35c0.3,-0.13333 0.6,-0.25 0.9,-0.35c0.16667,-0.13333 0.33333,-0.25 0.5,-0.35c0.3,-0.13333 0.6,-0.26667 0.9,-0.4c0.2,-0.1 0.38333,-0.21667 0.55,-0.35c0.3,-0.03333 0.6,-0.08333 0.9,-0.15c0.3,-0.13333 0.6,-0.25 0.9,-0.35c0.4,-0.13333 0.81667,-0.26667 1.25,-0.4c1.23333,-0.1 2.48333,-0.21667 3.75,-0.35c0.4,-0.1 0.81667,-0.21667 1.25,-0.35c2.13333,0 4.26667,0 6.4,0c0.36667,0.13333 0.73333,0.25 1.1,0.35c4.86667,0.13333 9.75,0.25 14.65,0.35c0.4,0.13333 0.81667,0.26667 1.25,0.4c1.93333,0.1 3.88333,0.21667 5.85,0.35c0.43333,0.1 0.85,0.21667 1.25,0.35c1.73333,0.1 3.46667,0.21667 5.2,0.35c0.36667,0.13333 0.71667,0.25 1.05,0.35c2.03333,0.13333 4.06667,0.25 6.1,0.35c0.33333,0.13333 0.68333,0.25 1.05,0.35c1.3,0.13333 2.61667,0.26667 3.95,0.4c0.4,0.1 0.81667,0.2 1.25,0.3c1.16667,0.26667 2.35,0.53333 3.55,0.8c1.5,0.33333 2.98333,0.66667 4.45,1c2.06667,0.5 4.1,1.1 6.1,1.8c0.16667,0.13333 0.35,0.25 0.55,0.35c0.26667,0.13333 0.55,0.25 0.85,0.35c0.2,0.13333 0.38333,0.26667 0.55,0.4c0.3,0.1 0.6,0.21667 0.9,0.35c0.16667,0.16667 0.35,0.33333 0.55,0.5c0.16667,0.13333 0.33333,0.26667 0.5,0.4c0.06667,0.03333 0.13333,0.08333 0.2,0.15c0.3,0.13333 0.6,0.25 0.9,0.35c0.16667,0.2 0.35,0.38333 0.55,0.55c0.16667,0.16667 0.33333,0.35 0.5,0.55c0.2,0.16667 0.38333,0.33333 0.55,0.5c0.16667,0.06667 0.35,0.13333 0.55,0.2c0.16667,-0.13333 0.33333,-0.25 0.5,-0.35c0.2,-0.16667 0.38333,-0.35 0.55,-0.55c0.16667,-0.16667 0.35,-0.35 0.55,-0.55c0.16667,-0.16667 0.35,-0.33333 0.55,-0.5c0.16667,-0.2 0.33333,-0.38333 0.5,-0.55c0.2,-0.16667 0.38333,-0.35 0.55,-0.55c0.36667,-0.33333 0.71667,-0.68333 1.05,-1.05c0.36667,-0.36667 0.73333,-0.73333 1.1,-1.1c0.53333,-0.53333 1.06667,-1.06667 1.6,-1.6c0.4,-0.16667 0.81667,-0.33333 1.25,-0.5c0.16667,-0.2 0.35,-0.38333 0.55,-0.55c0.16667,-0.13333 0.33333,-0.26667 0.5,-0.4c0.06667,-0.03333 0.13333,-0.08333 0.2,-0.15c0.3,-0.1 0.6,-0.21667 0.9,-0.35c0.16667,-0.13333 0.35,-0.25 0.55,-0.35c0.26667,-0.13333 0.55,-0.25 0.85,-0.35c0.2,-0.13333 0.38333,-0.25 0.55,-0.35c0.3,-0.13333 0.6,-0.26667 0.9,-0.4c0.16667,-0.1 0.35,-0.21667 0.55,-0.35c0.3,-0.1 0.6,-0.21667 0.9,-0.35c0.16667,-0.1 0.33333,-0.21667 0.5,-0.35c0.3,-0.06667 0.6,-0.13333 0.9,-0.2c1.43333,0 2.86667,0 4.3,0c0.36667,0.13333 0.71667,0.26667 1.05,0.4c0.13333,0.1 0.25,0.21667 0.35,0.35c0.36667,0.1 0.73333,0.21667 1.1,0.35c0.1,0.1 0.21667,0.21667 0.35,0.35c0.36667,0.13333 0.71667,0.25 1.05,0.35c0.2,0.2 0.38333,0.38333 0.55,0.55c0.16667,0.16667 0.35,0.35 0.55,0.55c0.16667,0.16667 0.33333,0.33333 0.5,0.5c0.2,0.2 0.38333,0.38333 0.55,0.55c0.23333,0.16667 0.46667,0.35 0.7,0.55c0.2,0.16667 0.38333,0.33333 0.55,0.5c0.13333,0.2 0.25,0.38333 0.35,0.55c0.13333,0.2 0.25,0.38333 0.35,0.55c0.2,0.16667 0.38333,0.35 0.55,0.55c0.23333,0.16667 0.46667,0.33333 0.7,0.5c0.13333,0.2 0.26667,0.38333 0.4,0.55c0.03333,0.16667 0.08333,0.35 0.15,0.55c0.2,0.16667 0.38333,0.33333 0.55,0.5c0.16667,0.2 0.35,0.38333 0.55,0.55c0.16667,0.2 0.33333,0.38333 0.5,0.55c0.2,0.16667 0.38333,0.35 0.55,0.55c0.16667,0.16667 0.35,0.33333 0.55,0.5c0.33333,0.36667 0.68333,0.73333 1.05,1.1c0.36667,0.33333 0.73333,0.68333 1.1,1.05c0.33333,0.36667 0.68333,0.73333 1.05,1.1c0.36667,0.16667 0.71667,0.33333 1.05,0.5c0.2,0.2 0.38333,0.38333 0.55,0.55c0.06667,0.16667 0.13333,0.35 0.2,0.55c0.1,0.16667 0.21667,0.33333 0.35,0.5c0.16667,0.2 0.35,0.38333 0.55,0.55c0.1,0.16667 0.21667,0.35 0.35,0.55c0.23333,0.16667 0.46667,0.35 0.7,0.55c0.13333,0.16667 0.25,0.33333 0.35,0.5c0.2,0.2 0.38333,0.38333 0.55,0.55c0.23333,0.16667 0.46667,0.35 0.7,0.55c0.13333,0.16667 0.25,0.33333 0.35,0.5c0.2,0.2 0.38333,0.38333 0.55,0.55c0.23333,0.16667 0.46667,0.35 0.7,0.55c0.13333,0.16667 0.25,0.35 0.35,0.55c0.2,0.16667 0.38333,0.33333 0.55,0.5c0.2,0.2 0.38333,0.38333 0.55,0.55c0.16667,0.06667 0.35,0.13333 0.55,0.2c0.1,-0.13333 0.21667,-0.26667 0.35,-0.4c0.06667,-0.16667 0.11667,-0.33333 0.15,-0.5c0,-0.2 0,-0.38333 0,-0.55c0,-0.16667 0,-0.35 0,-0.55c0.06667,-0.16667 0.13333,-0.33333 0.2,-0.5c0.1,-0.2 0.21667,-0.38333 0.35,-0.55c0.06667,-0.2 0.13333,-0.38333 0.2,-0.55c0.03333,-0.16667 0.08333,-0.35 0.15,-0.55c0.13333,-0.16667 0.25,-0.33333 0.35,-0.5c0.06667,-0.2 0.13333,-0.38333 0.2,-0.55c0.1,-0.16667 0.21667,-0.35 0.35,-0.55c0.13333,-0.16667 0.25,-0.33333 0.35,-0.5c0,-0.2 0,-0.38333 0,-0.55c0,-0.16667 0,-0.35 0,-0.55c0.13333,-0.16667 0.25,-0.35 0.35,-0.55c0.13333,-0.16667 0.25,-0.33333 0.35,-0.5c0,-0.2 0,-0.38333 0,-0.55c0,-0.16667 0,-0.35 0,-0.55c0.13333,-0.16667 0.26667,-0.33333 0.4,-0.5c0.03333,-0.2 0.08333,-0.38333 0.15,-0.55c0.13333,-0.16667 0.25,-0.35 0.35,-0.55c0.13333,-0.16667 0.25,-0.35 0.35,-0.55c0.06667,-0.16667 0.13333,-0.33333 0.2,-0.5c0,-0.2 0,-0.38333 0,-0.55c0.06667,-0.16667 0.13333,-0.35 0.2,-0.55c0.1,-0.16667 0.21667,-0.33333 0.35,-0.5c0.06667,-0.2 0.11667,-0.38333 0.15,-0.55c0,-0.16667 0,-0.35 0,-0.55c0.06667,-0.16667 0.13333,-0.35 0.2,-0.55c0.1,-0.16667 0.21667,-0.33333 0.35,-0.5c0.06667,-0.2 0.13333,-0.38333 0.2,-0.55c0,-0.16667 0,-0.35 0,-0.55c0.03333,-0.16667 0.08333,-0.33333 0.15,-0.5c0.13333,-0.2 0.25,-0.38333 0.35,-0.55c0.06667,-0.16667 0.13333,-0.35 0.2,-0.55c0.1,-0.16667 0.21667,-0.35 0.35,-0.55c0.06667,-0.16667 0.13333,-0.33333 0.2,-0.5c0.03333,-0.2 0.08333,-0.38333 0.15,-0.55c0,-0.16667 0,-0.35 0,-0.55c0.13333,-0.16667 0.25,-0.33333 0.35,-0.5c0.13333,-0.2 0.25,-0.38333 0.35,-0.55c0.2,-0.16667 0.38333,-0.35 0.55,-0.55c0.06667,-0.16667 0.13333,-0.35 0.2,-0.55c0.1,-0.16667 0.21667,-0.33333 0.35,-0.5c0.1,-0.2 0.21667,-0.38333 0.35,-0.55c0.16667,-0.16667 0.35,-0.35 0.55,-0.55c0.16667,-0.1 0.33333,-0.21667 0.5,-0.35c0.3,0 0.6,-0.03333 0.9,-0.1v-0.05c1.43333,0 2.86667,0 4.3,0c0.36667,0.1 0.73333,0.2 1.1,0.3c0.56667,0.13333 1.15,0.28333 1.75,0.45c0.36667,0.06667 0.73333,0.16667 1.1,0.3c0.33333,0.13333 0.68333,0.25 1.05,0.35c0.36667,0.13333 0.71667,0.25 1.05,0.35c0.13333,0.13333 0.26667,0.25 0.4,0.35c0.33333,0.13333 0.68333,0.26667 1.05,0.4c0.16667,0.16667 0.35,0.33333 0.55,0.5c0.16667,0.13333 0.33333,0.26667 0.5,0.4c0.06667,0.03333 0.13333,0.08333 0.2,0.15c0.3,0.13333 0.6,0.25 0.9,0.35c0.36667,0.13333 0.71667,0.25 1.05,0.35c0.36667,0.13333 0.73333,0.25 1.1,0.35c0.16667,0.2 0.33333,0.38333 0.5,0.55c0.2,0.13333 0.38333,0.26667 0.55,0.4c0.06667,0.03333 0.13333,0.08333 0.2,0.15c0.3,0.1 0.6,0.21667 0.9,0.35c0.1,0.13333 0.21667,0.25 0.35,0.35c0.33333,0.13333 0.68333,0.25 1.05,0.35c0.23333,0.2 0.46667,0.38333 0.7,0.55c0.13333,0.13333 0.26667,0.25 0.4,0.35c0.03333,0.06667 0.08333,0.11667 0.15,0.15c0.3,0.13333 0.6,0.26667 0.9,0.4c0.16667,0.16667 0.35,0.35 0.55,0.55c0.23333,0.16667 0.46667,0.33333 0.7,0.5c0.16667,0.2 0.35,0.38333 0.55,0.55c0.16667,0.16667 0.33333,0.35 0.5,0.55c0.2,0.16667 0.38333,0.33333 0.55,0.5c0.13333,0.2 0.25,0.38333 0.35,0.55c0.2,0.2 0.38333,0.38333 0.55,0.55c0.23333,0.16667 0.46667,0.35 0.7,0.55c0.2,0.16667 0.38333,0.33333 0.55,0.5c0.13333,0.2 0.25,0.38333 0.35,0.55c0.16667,0.16667 0.35,0.35 0.55,0.55c0.1,0.16667 0.21667,0.33333 0.35,0.5c0.13333,0.2 0.25,0.38333 0.35,0.55c0.06667,0.2 0.13333,0.38333 0.2,0.55c0.1,0.16667 0.21667,0.35 0.35,0.55c0.06667,0.16667 0.11667,0.33333 0.15,0.5c0,0.2 0,0.38333 0,0.55c0.06667,0.16667 0.13333,0.35 0.2,0.55c0.13333,0.16667 0.25,0.33333 0.35,0.5c0.06667,0.2 0.13333,0.38333 0.2,0.55c0,0.16667 0,0.35 0,0.55c0,0.16667 0,0.35 0,0.55c0,0.16667 0,0.33333 0,0.5c0,0.2 0,0.38333 0,0.55c0,0.16667 0,0.35 0,0.55c0,0.33333 0,0.68333 0,1.05c0,0.16667 0,0.35 0,0.55c0,0.53333 0,1.06667 0,1.6c0,0.16667 0,0.35 0,0.55c0,0.16667 0,0.33333 0,0.5c0,0.2 0,0.38333 0,0.55c-0.06667,0.16667 -0.13333,0.35 -0.2,0.55c-0.1,0.16667 -0.21667,0.35 -0.35,0.55c-0.06667,0.16667 -0.13333,0.33333 -0.2,0.5c0,0.2 0,0.38333 0,0.55c0,0.16667 0,0.35 0,0.55c0,0.16667 0,0.33333 0,0.5c0,0.2 0,0.38333 0,0.55c0,0.16667 0,0.35 0,0.55c-0.03333,0.16667 -0.08333,0.35 -0.15,0.55c-0.13333,0.16667 -0.25,0.33333 -0.35,0.5c-0.06667,0.2 -0.13333,0.38333 -0.2,0.55c0,0.16667 0,0.35 0,0.55c-0.06667,0.16667 -0.11667,0.33333 -0.15,0.5c-0.13333,0.2 -0.26667,0.38333 -0.4,0.55c-0.03333,0.16667 -0.08333,0.35 -0.15,0.55c0,0.16667 0,0.35 0,0.55c0,0.16667 0,0.33333 0,0.5c-0.06667,0.2 -0.13333,0.38333 -0.2,0.55c-0.06667,0.16667 -0.11667,0.35 -0.15,0.55c-0.13333,0.16667 -0.25,0.33333 -0.35,0.5c0,0.2 0,0.38333 0,0.55c-0.06667,0.16667 -0.13333,0.35 -0.2,0.55c-0.06667,0.16667 -0.13333,0.35 -0.2,0.55c-0.1,0.16667 -0.21667,0.33333 -0.35,0.5c-0.06667,0.2 -0.11667,0.38333 -0.15,0.55c-0.13333,0.16667 -0.25,0.35 -0.35,0.55c-0.06667,0.16667 -0.13333,0.33333 -0.2,0.5c0,0.2 0,0.38333 0,0.55c-0.06667,0.16667 -0.13333,0.35 -0.2,0.55c-0.1,0.16667 -0.21667,0.35 -0.35,0.55c-0.23333,0.16667 -0.46667,0.33333 -0.7,0.5c-0.16667,0.2 -0.35,0.38333 -0.55,0.55c-0.1,0.16667 -0.21667,0.35 -0.35,0.55c-0.1,0.16667 -0.21667,0.33333 -0.35,0.5c-0.16667,0.2 -0.35,0.38333 -0.55,0.55c-0.16667,0.16667 -0.33333,0.35 -0.5,0.55c-0.2,0.16667 -0.38333,0.35 -0.55,0.55c-0.2,0.16667 -0.38333,0.33333 -0.55,0.5c-0.23333,0.2 -0.46667,0.38333 -0.7,0.55c-0.13333,0.16667 -0.25,0.35 -0.35,0.55c-0.2,0.16667 -0.38333,0.33333 -0.55,0.5c-0.16667,0.2 -0.35,0.38333 -0.55,0.55c-0.16667,0.16667 -0.33333,0.35 -0.5,0.55c-0.2,0.16667 -0.38333,0.35 -0.55,0.55c-0.2,0.16667 -0.38333,0.33333 -0.55,0.5c-0.06667,0.2 -0.11667,0.38333 -0.15,0.55c0,0.16667 0,0.35 0,0.55c-0.13333,0.16667 -0.26667,0.33333 -0.4,0.5c-0.1,0.2 -0.21667,0.38333 -0.35,0.55c0,0.16667 0,0.35 0,0.55c0,0.16667 0,0.33333 0,0.5c0,0.2 0,0.38333 0,0.55c0,0.2 0,0.38333 0,0.55c0,0.16667 0,0.35 0,0.55c0,0.16667 0,0.33333 0,0.5c-0.1,0.2 -0.21667,0.38333 -0.35,0.55c-0.1,0.16667 -0.21667,0.35 -0.35,0.55c0,0.16667 0,0.33333 0,0.5c0,0.2 0,0.38333 0,0.55c0,0.2 0,0.38333 0,0.55c0,0.16667 0,0.35 0,0.55c0.13333,0.16667 0.25,0.33333 0.35,0.5c0.13333,0.2 0.25,0.38333 0.35,0.55c0.06667,0.16667 0.13333,0.35 0.2,0.55c0.16667,0.16667 0.35,0.33333 0.55,0.5c0.33333,0.13333 0.68333,0.26667 1.05,0.4c0.13333,0 0.25,0 0.35,0c0.3,-0.06667 0.6,-0.13333 0.9,-0.2c0.53333,-0.13333 1.06667,-0.26667 1.6,-0.4c0.43333,-0.1 0.85,-0.21667 1.25,-0.35c0.3,-0.1 0.6,-0.2 0.9,-0.3c0.4,-0.2 0.81667,-0.38333 1.25,-0.55c0.16667,-0.16667 0.35,-0.35 0.55,-0.55c0.16667,-0.1 0.33333,-0.21667 0.5,-0.35c0.06667,-0.06667 0.13333,-0.13333 0.2,-0.2c0.3,-0.1 0.6,-0.21667 0.9,-0.35c0.16667,-0.1 0.35,-0.21667 0.55,-0.35c0.26667,-0.1 0.55,-0.21667 0.85,-0.35c0.2,-0.13333 0.38333,-0.25 0.55,-0.35c0.3,-0.13333 0.6,-0.25 0.9,-0.35c0.16667,-0.13333 0.35,-0.25 0.55,-0.35c0.3,-0.13333 0.6,-0.26667 0.9,-0.4c0.16667,-0.1 0.33333,-0.21667 0.5,-0.35c0.3,-0.03333 0.6,-0.08333 0.9,-0.15c0.53333,-0.13333 1.06667,-0.25 1.6,-0.35c0,-0.2 0,-0.38333 0,-0.55c0,-0.16667 0,-0.35 0,-0.55c0,-0.16667 0,-0.35 0,-0.55c0,-0.16667 0,-0.33333 0,-0.5c0,-0.2 0,-0.38333 0,-0.55c0,-0.16667 0,-0.35 0,-0.55c0,-0.16667 0,-0.33333 0,-0.5c0,-0.2 0,-0.38333 0,-0.55c0,-0.16667 0,-0.35 0,-0.55c0.13333,-0.16667 0.25,-0.33333 0.35,-0.5c0.13333,-0.2 0.26667,-0.38333 0.4,-0.55c0,-0.2 0,-0.38333 0,-0.55c0,-0.16667 0,-0.35 0,-0.55c0,-0.16667 0,-0.33333 0,-0.5c0,-0.2 0,-0.38333 0,-0.55c0,-0.16667 0,-0.35 0,-0.55c0,-0.33333 0,-0.68333 0,-1.05c0,-0.36667 0,-0.73333 0,-1.1c0,-0.53333 0,-1.06667 0,-1.6c0,-0.16667 0,-0.33333 0,-0.5c0,-0.36667 0,-0.73333 0,-1.1c0.1,-0.16667 0.21667,-0.35 0.35,-0.55c0.03333,-0.16667 0.08333,-0.33333 0.15,-0.5c0.06667,-0.2 0.13333,-0.38333 0.2,-0.55c0,-0.16667 0,-0.35 0,-0.55c0,-0.16667 0,-0.33333 0,-0.5c0,-0.2 0,-0.38333 0,-0.55c0,-0.2 0,-0.38333 0,-0.55c0,-0.16667 0,-0.35 0,-0.55c0,-0.33333 0,-0.68333 0,-1.05c0,-0.16667 0,-0.35 0,-0.55c0,-0.53333 0,-1.06667 0,-1.6c0,-0.16667 0,-0.35 0,-0.55c0,-0.16667 0,-0.33333 0,-0.5c0,-0.2 0,-0.38333 0,-0.55c0.06667,-0.16667 0.11667,-0.35 0.15,-0.55c0.13333,-0.16667 0.26667,-0.33333 0.4,-0.5c0.03333,-0.2 0.08333,-0.38333 0.15,-0.55c0,-0.2 0,-0.38333 0,-0.55c0,-0.16667 0,-0.35 0,-0.55c0,-0.16667 0,-0.33333 0,-0.5c0,-0.2 0,-0.38333 0,-0.55c0,-0.16667 0,-0.35 0,-0.55c0,-0.16667 0,-0.33333 0,-0.5c0,-0.2 0,-0.38333 0,-0.55c0,-0.2 0,-0.38333 0,-0.55c0.06667,-0.16667 0.13333,-0.35 0.2,-0.55c0.1,-0.16667 0.21667,-0.33333 0.35,-0.5c0.06667,-0.2 0.11667,-0.38333 0.15,-0.55c0,-0.16667 0,-0.35 0,-0.55c0,-0.16667 0,-0.33333 0,-0.5c0,-0.2 0,-0.38333 0,-0.55c0,-0.2 0,-0.38333 0,-0.55c0,-0.16667 0,-0.35 0,-0.55c0,-0.16667 0,-0.33333 0,-0.5c0,-0.2 0,-0.38333 0,-0.55c0,-0.16667 0,-0.35 0,-0.55c0.13333,-0.16667 0.25,-0.33333 0.35,-0.5c0.13333,-0.2 0.26667,-0.38333 0.4,-0.55c0,-0.2 0,-0.38333 0,-0.55c0,-0.16667 0,-0.35 0,-0.55c0,-0.16667 0,-0.33333 0,-0.5c0,-0.2 0,-0.38333 0,-0.55c0,-0.16667 0,-0.35 0,-0.55c0,-0.16667 0,-0.33333 0,-0.5c0,-0.2 0,-0.38333 0,-0.55c0.1,-0.16667 0.21667,-0.35 0.35,-0.55c0.06667,-0.16667 0.11667,-0.35 0.15,-0.55c0.06667,-0.16667 0.13333,-0.33333 0.2,-0.5c0,-0.2 0,-0.38333 0,-0.55c0,-0.16667 0,-0.35 0,-0.55c0,-0.16667 0,-0.33333 0,-0.5c0,-0.2 0,-0.38333 0,-0.55c0,-0.16667 0,-0.35 0,-0.55c0,-0.16667 0,-0.35 0,-0.55c0,-0.16667 0,-0.33333 0,-0.5c0,-0.2 0,-0.38333 0,-0.55c0.1,-0.16667 0.21667,-0.35 0.35,-0.55c0.16667,-0.1 0.35,-0.21667 0.55,-0.35c0.06667,-0.06667 0.13333,-0.1 0.2,-0.1c0.26667,-0.1 0.55,-0.18333 0.85,-0.25c0.3,-0.13333 0.6,-0.25 0.9,-0.35c0.43333,-0.13333 0.85,-0.25 1.25,-0.35c1.73333,-0.13333 3.46667,-0.25 5.2,-0.35c0.4,-0.13333 0.81667,-0.26667 1.25,-0.4c3.63333,-0.1 7.25,-0.21667 10.85,-0.35c0.43333,-0.1 0.85,-0.21667 1.25,-0.35c1.26667,-0.1 2.51667,-0.21667 3.75,-0.35c0.43333,-0.13333 0.85,-0.25 1.25,-0.35c1.96667,-0.13333 3.93333,-0.25 5.9,-0.35c0.43333,-0.13333 0.85,-0.25 1.25,-0.35c1.03333,-0.13333 2.05,-0.26667 3.05,-0.4c0.4,-0.1 0.81667,-0.21667 1.25,-0.35c1.43333,0 2.86667,0 4.3,0c0.33333,0.13333 0.68333,0.25 1.05,0.35c0.16667,0.2 0.35,0.38333 0.55,0.55c0.06667,0.2 0.11667,0.38333 0.15,0.55c0.06667,0.16667 0.13333,0.35 0.2,0.55c0,0.16667 0,0.33333 0,0.5c0.13333,0.2 0.25,0.38333 0.35,0.55c0.06667,0.16667 0.13333,0.35 0.2,0.55c0.03333,0.16667 0.08333,0.33333 0.15,0.5c0,0.2 0,0.38333 0,0.55c0.13333,0.2 0.25,0.38333 0.35,0.55c0.06667,0.16667 0.13333,0.35 0.2,0.55c0.06667,0.16667 0.13333,0.33333 0.2,0.5c0,0.2 0,0.38333 0,0.55c0.1,0.16667 0.21667,0.35 0.35,0.55c0.03333,0.16667 0.08333,0.33333 0.15,0.5c0.06667,0.2 0.13333,0.38333 0.2,0.55c0,0.2 0,0.38333 0,0.55c0,0.16667 0,0.35 0,0.55c0.06667,0.16667 0.11667,0.33333 0.15,0.5c0.13333,0.2 0.26667,0.38333 0.4,0.55c0.03333,0.16667 0.08333,0.35 0.15,0.55c0,0.16667 0,0.33333 0,0.5c0,0.2 0,0.38333 0,0.55c0,0.2 0,0.38333 0,0.55c0,0.16667 0,0.35 0,0.55c0,0.16667 0,0.33333 0,0.5c0,0.2 0,0.38333 0,0.55c0,0.16667 0,0.35 0,0.55c0.06667,0 0.1,-0.01667 0.1,-0.05c0.1,-0.16667 0.18333,-0.33333 0.25,-0.5c0.06667,-0.16667 0.13333,-0.35 0.2,-0.55c0.1,-0.16667 0.21667,-0.33333 0.35,-0.5c0.06667,-0.2 0.13333,-0.38333 0.2,-0.55c0,-0.16667 0,-0.35 0,-0.55c0.1,-0.16667 0.21667,-0.35 0.35,-0.55c0.03333,-0.16667 0.08333,-0.33333 0.15,-0.5c0.06667,-0.2 0.13333,-0.38333 0.2,-0.55c0,-0.16667 0,-0.35 0,-0.55c0.1,-0.16667 0.21667,-0.33333 0.35,-0.5c0.06667,-0.2 0.13333,-0.38333 0.2,-0.55c0.03333,-0.16667 0.08333,-0.35 0.15,-0.55c0,-0.16667 0,-0.35 0,-0.55c0.13333,-0.16667 0.25,-0.33333 0.35,-0.5c0.13333,-0.2 0.25,-0.38333 0.35,-0.55c0.2,-0.16667 0.38333,-0.35 0.55,-0.55c0.06667,-0.16667 0.13333,-0.33333 0.2,-0.5c0,-0.2 0,-0.38333 0,-0.55c0.03333,-0.16667 0.08333,-0.35 0.15,-0.55c0.13333,-0.16667 0.25,-0.35 0.35,-0.55c0.06667,-0.16667 0.13333,-0.33333 0.2,-0.5c0.13333,-0.2 0.25,-0.38333 0.35,-0.55c0.13333,-0.16667 0.25,-0.35 0.35,-0.55c0.2,-0.16667 0.38333,-0.33333 0.55,-0.5c0.16667,-0.2 0.35,-0.38333 0.55,-0.55c0.16667,-0.16667 0.33333,-0.35 0.5,-0.55c0.2,-0.16667 0.38333,-0.35 0.55,-0.55c0.43333,-0.1 0.85,-0.21667 1.25,-0.35c5.3,-0.1 10.6,-0.21667 15.9,-0.35c0.4,-0.1 0.81667,-0.21667 1.25,-0.35c2.43333,-0.13333 4.86667,-0.25 7.3,-0.35c0.43333,-0.13333 0.85,-0.25 1.25,-0.35c3.33333,0 6.66667,0 10,0c0.36667,0.1 0.73333,0.21667 1.1,0.35c0.16667,0.1 0.33333,0.21667 0.5,0.35c0.3,0.13333 0.6,0.25 0.9,0.35c0.2,0.2 0.38333,0.38333 0.55,0.55c0.06667,0.16667 0.13333,0.35 0.2,0.55c0.03333,0.16667 0.08333,0.33333 0.15,0.5c0.13333,0.2 0.25,0.38333 0.35,0.55c0.13333,0.16667 0.25,0.35 0.35,0.55c0,0.16667 0,0.33333 0,0.5c0,0.2 0,0.38333 0,0.55c0,0.2 0,0.38333 0,0.55c0.13333,0.16667 0.26667,0.35 0.4,0.55c0.03333,0.16667 0.08333,0.33333 0.15,0.5c0.06667,0.2 0.13333,0.38333 0.2,0.55c0,0.16667 0,0.35 0,0.55c0,0.16667 0,0.33333 0,0.5c0.06667,0.2 0.11667,0.38333 0.15,0.55c0.13333,0.2 0.25,0.38333 0.35,0.55c0.06667,0.16667 0.13333,0.35 0.2,0.55c0,0.16667 0,0.33333 0,0.5c0,0.2 0,0.38333 0,0.55c0,0.16667 0,0.35 0,0.55c0,0.16667 0,0.33333 0,0.5c0,0.2 0,0.38333 0,0.55c0.06667,0.2 0.13333,0.38333 0.2,0.55c0.1,0.16667 0.21667,0.35 0.35,0.55c0.06667,0.16667 0.11667,0.33333 0.15,0.5c0,0.2 0,0.38333 0,0.55c0,0.16667 0,0.35 0,0.55c0,0.16667 0,0.33333 0,0.5c0.06667,0.2 0.13333,0.38333 0.2,0.55c0.06667,0.16667 0.11667,0.35 0.15,0.55c0.06667,0.16667 0.13333,0.35 0.2,0.55c0.06667,0.16667 0.13333,0.33333 0.2,0.5c0,0.2 0,0.38333 0,0.55c0.1,0.16667 0.21667,0.35 0.35,0.55c0.06667,0.16667 0.11667,0.33333 0.15,0.5c0.06667,0.2 0.13333,0.38333 0.2,0.55c0.1,0.16667 0.21667,0.35 0.35,0.55c0.13333,0.16667 0.25,0.35 0.35,0.55c0,0.16667 0,0.33333 0,0.5c0,0.2 0,0.38333 0,0.55c0.06667,0.16667 0.13333,0.35 0.2,0.55c0.06667,0.16667 0.11667,0.33333 0.15,0.5c0.06667,0.2 0.13333,0.38333 0.2,0.55c0.06667,0.16667 0.11667,0.35 0.15,0.55c0,0.16667 0,0.35 0,0.55c0.13333,0.16667 0.26667,0.33333 0.4,0.5c0.03333,0.2 0.08333,0.38333 0.15,0.55c0.06667,0.16667 0.13333,0.35 0.2,0.55c0,0.1 0,0.21667 0,0.35c0.23333,-0.06667 0.46667,-0.13333 0.7,-0.2c0.23333,-0.16667 0.46667,-0.33333 0.7,-0.5c0.13333,-0.2 0.25,-0.38333 0.35,-0.55c0.2,-0.2 0.38333,-0.38333 0.55,-0.55c0.16667,-0.16667 0.35,-0.35 0.55,-0.55c0.16667,-0.16667 0.35,-0.33333 0.55,-0.5c0.16667,-0.2 0.33333,-0.38333 0.5,-0.55c0.2,-0.16667 0.38333,-0.35 0.55,-0.55c0.16667,-0.16667 0.35,-0.33333 0.55,-0.5c0.16667,-0.2 0.33333,-0.38333 0.5,-0.55c0.2,-0.2 0.38333,-0.38333 0.55,-0.55c0.43333,-0.16667 0.85,-0.35 1.25,-0.55c0.16667,-0.1 0.35,-0.21667 0.55,-0.35c0.3,-0.1 0.6,-0.21667 0.9,-0.35c0.16667,-0.1 0.33333,-0.21667 0.5,-0.35c0.3,-0.13333 0.6,-0.25 0.9,-0.35c0.2,-0.13333 0.38333,-0.25 0.55,-0.35c0.3,-0.06667 0.6,-0.13333 0.9,-0.2c0.3,-0.1 0.6,-0.2 0.9,-0.3c0.4,-0.16667 0.81667,-0.3 1.25,-0.4c1,-0.13333 2,-0.25 3,-0.35c0,-0.2 0,-0.38333 0,-0.55c0,-0.16667 0,-0.35 0,-0.55c0,-0.16667 0,-0.33333 0,-0.5c0,-0.2 0,-0.38333 0,-0.55c0,-0.16667 0,-0.35 0,-0.55c0,-0.16667 0,-0.35 0,-0.55c0,-0.16667 0,-0.33333 0,-0.5c0,-0.2 0,-0.38333 0,-0.55c-0.03333,-0.16667 -0.08333,-0.35 -0.15,-0.55c-0.13333,-0.16667 -0.25,-0.33333 -0.35,-0.5c-0.06667,-0.2 -0.13333,-0.38333 -0.2,-0.55c0,-0.16667 0,-0.35 0,-0.55c0,-0.16667 0,-0.35 0,-0.55c0,-0.16667 0,-0.33333 0,-0.5c0,-0.2 0,-0.38333 0,-0.55c0,-0.16667 0,-0.35 0,-0.55c-0.06667,-0.16667 -0.11667,-0.33333 -0.15,-0.5c-0.13333,-0.2 -0.26667,-0.38333 -0.4,-0.55c-0.03333,-0.16667 -0.08333,-0.35 -0.15,-0.55c0,-0.16667 0,-0.35 0,-0.55c0,-0.16667 0,-0.33333 0,-0.5c-0.06667,-0.2 -0.13333,-0.38333 -0.2,-0.55c-0.06667,-0.16667 -0.11667,-0.35 -0.15,-0.55c-0.13333,-0.16667 -0.25,-0.33333 -0.35,-0.5c0,-0.2 0,-0.38333 0,-0.55c0,-0.16667 0,-0.35 0,-0.55c0,-0.16667 0,-0.35 0,-0.55c0,-0.16667 0,-0.33333 0,-0.5c0,-0.2 0,-0.38333 0,-0.55c0.1,-0.16667 0.21667,-0.35 0.35,-0.55c0.23333,-0.16667 0.46667,-0.33333 0.7,-0.5c0.13333,-0.2 0.25,-0.38333 0.35,-0.55c0.43333,-0.13333 0.85,-0.25 1.25,-0.35c0.53333,-0.13333 1.06667,-0.26667 1.6,-0.4c0.43333,-0.1 0.85,-0.21667 1.25,-0.35c4.3,0 8.58333,0 12.85,0c0.43333,0.13333 0.85,0.26667 1.25,0.4c3.16667,0.1 6.33333,0.21667 9.5,0.35c0.33333,0.1 0.68333,0.21667 1.05,0.35c1.3,0.1 2.61667,0.21667 3.95,0.35c0.33333,0.13333 0.68333,0.25 1.05,0.35c1.8,0.13333 3.58333,0.25 5.35,0.35c0.36667,0.13333 0.73333,0.25 1.1,0.35c1.53333,0.13333 3.06667,0.26667 4.6,0.4c0.36667,0.1 0.73333,0.21667 1.1,0.35c1.06667,0.1 2.13333,0.21667 3.2,0.35c0.36667,0.1 0.73333,0.21667 1.1,0.35c1.06667,0.13333 2.13333,0.25 3.2,0.35c0.36667,0.13333 0.71667,0.25 1.05,0.35c1.06667,0.13333 2.15,0.25 3.25,0.35c0.93333,0.26667 1.86667,0.53333 2.8,0.8c2.03333,0.66667 4.06667,1.23333 6.1,1.7c3.46667,0.83333 6.9,1.71667 10.3,2.65c1.83333,0.5 3.63333,1.05 5.4,1.65c0.2,0.13333 0.38333,0.25 0.55,0.35c0.3,0.13333 0.6,0.25 0.9,0.35c0.16667,0.13333 0.35,0.26667 0.55,0.4c0.3,0.1 0.6,0.21667 0.9,0.35c0.16667,0.1 0.33333,0.21667 0.5,0.35c0.3,0.1 0.6,0.21667 0.9,0.35c0.16667,0.13333 0.35,0.25 0.55,0.35c0.3,0.13333 0.6,0.25 0.9,0.35c0.16667,0.13333 0.33333,0.25 0.5,0.35c0.3,0.13333 0.6,0.26667 0.9,0.4c0.23333,0.16667 0.46667,0.33333 0.7,0.5c0.13333,0.13333 0.26667,0.25 0.4,0.35c0.03333,0.06667 0.1,0.11667 0.2,0.15c0.26667,0.16667 0.55,0.3 0.85,0.4c0.23333,0.16667 0.46667,0.35 0.7,0.55c0.2,0.16667 0.38333,0.35 0.55,0.55c0.16667,0.16667 0.35,0.33333 0.55,0.5c0.33333,0.2 0.68333,0.38333 1.05,0.55c0.23333,0.16667 0.46667,0.35 0.7,0.55c0.13333,0.16667 0.26667,0.33333 0.4,0.5c0.16667,0.2 0.33333,0.38333 0.5,0.55c0.23333,0.16667 0.48333,0.35 0.75,0.55c0.16667,0.16667 0.33333,0.35 0.5,0.55c0.13333,0.1 0.25,0.21667 0.35,0.35c0.06667,-0.06667 0.11667,-0.13333 0.15,-0.2c0.03333,-0.16667 0.05,-0.35 0.05,-0.55c0,-0.16667 0,-0.33333 0,-0.5c0,-0.2 0,-0.38333 0,-0.55c0,-0.16667 0,-0.35 0,-0.55c0,-0.16667 0,-0.33333 0,-0.5c0.13333,-0.2 0.25,-0.38333 0.35,-0.55c0.06667,-0.2 0.13333,-0.38333 0.2,-0.55c0.06667,-0.16667 0.11667,-0.35 0.15,-0.55c0,-0.16667 0,-0.33333 0,-0.5c0,-0.2 0,-0.38333 0,-0.55c0,-0.16667 0,-0.35 0,-0.55c0,-0.16667 0,-0.33333 0,-0.5c0,-0.2 0,-0.38333 0,-0.55c0,-0.16667 0,-0.35 0,-0.55c0.13333,-0.16667 0.25,-0.35 0.35,-0.55c0.06667,-0.16667 0.13333,-0.33333 0.2,-0.5c0.06667,-0.2 0.13333,-0.38333 0.2,-0.55c0,-0.16667 0,-0.35 0,-0.55c0.1,-0.16667 0.21667,-0.33333 0.35,-0.5c0.06667,-0.2 0.11667,-0.38333 0.15,-0.55c0.06667,-0.16667 0.13333,-0.35 0.2,-0.55c0.1,-0.16667 0.21667,-0.35 0.35,-0.55c0.13333,-0.16667 0.25,-0.33333 0.35,-0.5c0,-0.2 0,-0.38333 0,-0.55c0,-0.16667 0,-0.35 0,-0.55c0.13333,-0.16667 0.25,-0.33333 0.35,-0.5c0.23333,-0.2 0.48333,-0.38333 0.75,-0.55c0.1,-0.16667 0.21667,-0.35 0.35,-0.55c0.16667,-0.16667 0.33333,-0.35 0.5,-0.55c0.2,-0.1 0.38333,-0.21667 0.55,-0.35c0.3,-0.03333 0.6,-0.08333 0.9,-0.15c0.3,-0.13333 0.6,-0.25 0.9,-0.35c0.4,-0.13333 0.81667,-0.26667 1.25,-0.4c0.76667,-0.1 1.53333,-0.21667 2.3,-0.35c0.43333,-0.1 0.85,-0.2 1.25,-0.3c0.53333,-0.13333 1.06667,-0.26667 1.6,-0.4c0.43333,-0.13333 0.85,-0.25 1.25,-0.35c1.26667,-0.13333 2.51667,-0.25 3.75,-0.35c0.43333,-0.13333 0.85,-0.25 1.25,-0.35c5.5,0 10.98333,0 16.45,0c0.36667,0.1 0.73333,0.2 1.1,0.3c0.56667,0.13333 1.15,0.26667 1.75,0.4c0.43333,0.1 0.85,0.21667 1.25,0.35c5.3,0.13333 10.6,0.25 15.9,0.35c0.36667,0.13333 0.71667,0.25 1.05,0.35c1.06667,0.13333 2.15,0.25 3.25,0.35c0.33333,0.13333 0.68333,0.26667 1.05,0.4c0.83333,0.1 1.66667,0.21667 2.5,0.35c0.36667,0.1 0.71667,0.21667 1.05,0.35c0.13333,0.1 0.26667,0.21667 0.4,0.35c0.33333,0.13333 0.68333,0.25 1.05,0.35c0.16667,0.2 0.35,0.38333 0.55,0.55c0.16667,0.16667 0.33333,0.35 0.5,0.55c0.2,0.16667 0.38333,0.33333 0.55,0.5c0.2,0.2 0.38333,0.38333 0.55,0.55c0.16667,0.16667 0.35,0.35 0.55,0.55c0.03333,0.16667 0.08333,0.33333 0.15,0.5c0.06667,0.2 0.13333,0.38333 0.2,0.55c0.1,0.2 0.21667,0.38333 0.35,0.55c0.1,0.16667 0.21667,0.35 0.35,0.55c0,0.16667 0,0.33333 0,0.5c0,0.2 0,0.38333 0,0.55c0,0.16667 0,0.35 0,0.55c0.13333,0.16667 0.25,0.33333 0.35,0.5c0.06667,0.2 0.13333,0.38333 0.2,0.55c0.06667,0.2 0.11667,0.38333 0.15,0.55c0,0.16667 0,0.35 0,0.55c0,0.16667 0,0.33333 0,0.5c0,0.2 0,0.38333 0,0.55c0,0.36667 0,0.71667 0,1.05c0,0.36667 0,0.73333 0,1.1c0,0.53333 0,1.06667 0,1.6c0.03333,0.53333 0.05,1.06667 0.05,1.6c-0.03333,0.53333 -0.05,1.06667 -0.05,1.6c0,0.53333 0,1.06667 0,1.6c0,0.2 0,0.38333 0,0.55c-0.03333,0.16667 -0.08333,0.35 -0.15,0.55c-0.06667,0.16667 -0.13333,0.35 -0.2,0.55c-0.1,0.16667 -0.21667,0.33333 -0.35,0.5c0,0.2 0,0.38333 0,0.55c0,0.16667 0,0.35 0,0.55c0,0.16667 0,0.33333 0,0.5c0,0.2 0,0.38333 0,0.55c0,0.16667 0,0.35 0,0.55c0,0.16667 0,0.35 0,0.55c0,0.16667 0,0.33333 0,0.5c0,0.2 0,0.38333 0,0.55c-0.06667,0.16667 -0.13333,0.35 -0.2,0.55c-0.1,0.16667 -0.21667,0.33333 -0.35,0.5c-0.03333,0.2 -0.08333,0.38333 -0.15,0.55c-0.13333,0.16667 -0.25,0.35 -0.35,0.55c-0.13333,0.16667 -0.26667,0.35 -0.4,0.55c0,0.16667 0,0.33333 0,0.5c0,0.2 0,0.38333 0,0.55c0,0.16667 0,0.35 0,0.55c-0.03333,0.16667 -0.08333,0.33333 -0.15,0.5c-0.13333,0.2 -0.25,0.38333 -0.35,0.55c-0.06667,0.16667 -0.13333,0.35 -0.2,0.55c0,0.16667 0,0.35 0,0.55c0,0.16667 0,0.33333 0,0.5c0,0.2 0,0.38333 0,0.55c0,0.16667 0,0.35 0,0.55c0,0.16667 0,0.33333 0,0.5c-0.06667,0.2 -0.11667,0.38333 -0.15,0.55c-0.13333,0.16667 -0.26667,0.35 -0.4,0.55c-0.03333,0.16667 -0.08333,0.35 -0.15,0.55c-0.13333,0.16667 -0.25,0.33333 -0.35,0.5c-0.13333,0.2 -0.25,0.38333 -0.35,0.55c-0.13333,0.16667 -0.26667,0.35 -0.4,0.55c-0.16667,0.16667 -0.33333,0.33333 -0.5,0.5c-0.2,0.2 -0.38333,0.38333 -0.55,0.55c-0.16667,0.16667 -0.35,0.35 -0.55,0.55c-0.16667,0.16667 -0.33333,0.35 -0.5,0.55c-0.2,0.16667 -0.38333,0.33333 -0.55,0.5c-0.16667,0.2 -0.35,0.38333 -0.55,0.55c-0.16667,0.16667 -0.35,0.35 -0.55,0.55c-0.16667,0.16667 -0.33333,0.33333 -0.5,0.5c-0.2,0.13333 -0.38333,0.26667 -0.55,0.4c-0.06667,0.03333 -0.13333,0.06667 -0.2,0.1c-0.33333,0.16667 -0.68333,0.3 -1.05,0.4c-0.13333,0.13333 -0.25,0.25 -0.35,0.35c-0.3,0.13333 -0.6,0.26667 -0.9,0.4c0.06667,0.16667 0.13333,0.33333 0.2,0.5c0.1,0.2 0.21667,0.38333 0.35,0.55c0,0.16667 0,0.35 0,0.55c0,0.16667 0,0.33333 0,0.5c0,0.2 0,0.38333 0,0.55c0,0.16667 0,0.35 0,0.55c0.06667,0.16667 0.11667,0.33333 0.15,0.5c0.13333,0.2 0.25,0.38333 0.35,0.55c0.06667,0.2 0.13333,0.38333 0.2,0.55c0,0.16667 0,0.35 0,0.55c0,0.16667 0,0.33333 0,0.5c0,0.2 0,0.38333 0,0.55c0,0.16667 0,0.35 0,0.55c0,0.16667 0,0.33333 0,0.5c0.06667,0.2 0.13333,0.38333 0.2,0.55c0.1,0.2 0.21667,0.38333 0.35,0.55c0.06667,0.16667 0.11667,0.35 0.15,0.55c0,0.16667 0,0.33333 0,0.5c0.06667,0.2 0.13333,0.38333 0.2,0.55c0.1,0.16667 0.21667,0.35 0.35,0.55c0.06667,0.16667 0.13333,0.33333 0.2,0.5c0,0.2 0,0.38333 0,0.55c0,0.2 0,0.38333 0,0.55c0,0.16667 0,0.35 0,0.55c0,0.16667 0,0.33333 0,0.5c0,0.2 0,0.38333 0,0.55c0,0.16667 0,0.35 0,0.55c0,0.16667 0,0.33333 0,0.5c0,0.2 0,0.38333 0,0.55c0,0.2 0,0.38333 0,0.55c-0.13333,0.16667 -0.25,0.35 -0.35,0.55c-0.06667,0.1 -0.13333,0.21667 -0.2,0.35v0.1c2.6,0.1 5.21667,0.18333 7.85,0.25c0.36667,0.1 0.71667,0.21667 1.05,0.35c0.2,0.13333 0.38333,0.25 0.55,0.35c0.3,0.13333 0.6,0.25 0.9,0.35c0.16667,0.2 0.35,0.38333 0.55,0.55c0.16667,0.16667 0.33333,0.35 0.5,0.55c0.13333,0.16667 0.26667,0.33333 0.4,0.5c0.03333,0.2 0.08333,0.38333 0.15,0.55c0.13333,0.2 0.25,0.38333 0.35,0.55c0.06667,0.16667 0.13333,0.35 0.2,0.55c0.06667,0.16667 0.11667,0.33333 0.15,0.5c0.13333,0.2 0.26667,0.38333 0.4,0.55c0.1,0.16667 0.21667,0.35 0.35,0.55c0,0.16667 0,0.33333 0,0.5c0,0.2 0,0.38333 0,0.55c0.1,0.2 0.21667,0.38333 0.35,0.55c0.1,0.16667 0.21667,0.35 0.35,0.55c0,0.16667 0,0.33333 0,0.5c0,0.2 0,0.38333 0,0.55c0,0.16667 0,0.35 0,0.55c0,0.16667 0,0.33333 0,0.5c0.06667,0.2 0.13333,0.38333 0.2,0.55c0.1,0.2 0.21667,0.38333 0.35,0.55c0.06667,0.16667 0.11667,0.35 0.15,0.55c0,0.16667 0,0.33333 0,0.5c0,0.2 0,0.38333 0,0.55c0,0.16667 0,0.35 0,0.55c0,0.16667 0,0.33333 0,0.5c0,0.2 0,0.38333 0,0.55c0.06667,0.2 0.13333,0.38333 0.2,0.55c0.1,0.16667 0.21667,0.35 0.35,0.55c0.06667,0.16667 0.13333,0.33333 0.2,0.5c0,0.2 0,0.38333 0,0.55c0,0.16667 0,0.35 0,0.55c0,0.16667 0,0.33333 0,0.5c0.1,0.2 0.21667,0.38333 0.35,0.55c0.1,0.2 0.21667,0.38333 0.35,0.55c0,0.16667 0,0.35 0,0.55c0,0.16667 0,0.33333 0,0.5c0,0.2 0,0.38333 0,0.55c0,0.16667 0,0.35 0,0.55c0,0.16667 0,0.33333 0,0.5c0,0.2 0,0.38333 0,0.55c0,0.16667 0,0.35 0,0.55c0,0.16667 0,0.35 0,0.55c0,0.16667 0,0.33333 0,0.5c0,0.2 0,0.38333 0,0.55c-0.06667,0.16667 -0.13333,0.35 -0.2,0.55c-0.03333,0.16667 -0.08333,0.33333 -0.15,0.5c-0.13333,0.2 -0.25,0.38333 -0.35,0.55c0,0.16667 0,0.35 0,0.55c0,0.16667 0,0.35 0,0.55c0,0.16667 0,0.33333 0,0.5c0,0.2 0,0.38333 0,0.55c-0.06667,0.16667 -0.13333,0.35 -0.2,0.55c-0.13333,0.16667 -0.25,0.33333 -0.35,0.5c-0.06667,0.2 -0.13333,0.38333 -0.2,0.55c0,0.16667 0,0.35 0,0.55c0,0.16667 0,0.35 0,0.55c0,0.16667 0,0.33333 0,0.5c0,0.2 0,0.38333 0,0.55c-0.1,0.16667 -0.21667,0.35 -0.35,0.55c-0.1,0.16667 -0.21667,0.33333 -0.35,0.5c0,0.2 0,0.38333 0,0.55c0,0.16667 0,0.35 0,0.55c0,0.16667 0,0.35 0,0.55c0,0.16667 0,0.33333 0,0.5c-0.06667,0.2 -0.13333,0.38333 -0.2,0.55c-0.03333,0.16667 -0.08333,0.35 -0.15,0.55c-0.16667,0.16667 -0.35,0.33333 -0.55,0.5c-0.16667,0.2 -0.35,0.38333 -0.55,0.55c-0.16667,0.16667 -0.33333,0.35 -0.5,0.55c-0.13333,0.1 -0.25,0.21667 -0.35,0.35c-0.06667,0.06667 -0.13333,0.11667 -0.2,0.15c-0.36667,0.13333 -0.71667,0.26667 -1.05,0.4c-0.2,0.16667 -0.38333,0.33333 -0.55,0.5c-0.13333,0.13333 -0.25,0.26667 -0.35,0.4c-0.06667,0.03333 -0.13333,0.06667 -0.2,0.1c-0.3,0.1 -0.6,0.18333 -0.9,0.25c-0.33333,0.1 -0.68333,0.21667 -1.05,0.35c-0.36667,0.1 -0.73333,0.21667 -1.1,0.35c-0.33333,0.13333 -0.68333,0.25 -1.05,0.35c-0.7,0.23333 -1.41667,0.46667 -2.15,0.7c-0.36667,0.13333 -0.71667,0.26667 -1.05,0.4c-0.76667,0.1 -1.55,0.21667 -2.35,0.35c-0.4,0.1 -0.81667,0.21667 -1.25,0.35c-0.76667,0.1 -1.53333,0.23333 -2.3,0.4c-0.43333,0.1 -0.85,0.2 -1.25,0.3c-4.1,0.13333 -8.2,0.25 -12.3,0.35c-0.43333,0.13333 -0.85,0.25 -1.25,0.35c-7.86667,0 -15.73333,0 -23.6,0c-0.4,-0.1 -0.81667,-0.21667 -1.25,-0.35c-1,-0.1 -2.01667,-0.21667 -3.05,-0.35c-0.4,-0.1 -0.81667,-0.21667 -1.25,-0.35c-0.53333,-0.13333 -1.06667,-0.26667 -1.6,-0.4c-0.4,-0.1 -0.81667,-0.2 -1.25,-0.3c-0.93333,-0.23333 -1.88333,-0.48333 -2.85,-0.75c-0.93333,-0.23333 -1.88333,-0.46667 -2.85,-0.7c-0.13333,-0.16667 -0.25,-0.35 -0.35,-0.55c-0.23333,-0.16667 -0.46667,-0.33333 -0.7,-0.5c-0.2,-0.2 -0.38333,-0.38333 -0.55,-0.55c-0.16667,-0.16667 -0.35,-0.35 -0.55,-0.55c-0.1,-0.16667 -0.21667,-0.33333 -0.35,-0.5c-0.13333,-0.2 -0.25,-0.38333 -0.35,-0.55c0,-0.2 0,-0.38333 0,-0.55c-0.06667,-0.16667 -0.13333,-0.35 -0.2,-0.55c-0.03333,-0.16667 -0.08333,-0.33333 -0.15,-0.5c-0.13333,-0.2 -0.25,-0.38333 -0.35,-0.55c0,-0.16667 0,-0.35 0,-0.55c0,-0.16667 0,-0.33333 0,-0.5c0,-0.2 0,-0.38333 0,-0.55c-0.13333,-0.2 -0.26667,-0.38333 -0.4,-0.55c-0.1,-0.16667 -0.21667,-0.35 -0.35,-0.55c0,-0.16667 0,-0.33333 0,-0.5c0,-0.2 0,-0.38333 0,-0.55c-0.03333,-0.16667 -0.08333,-0.35 -0.15,-0.55c-0.06667,0.13333 -0.13333,0.25 -0.2,0.35c-0.06667,0.2 -0.11667,0.38333 -0.15,0.55c-0.13333,0.16667 -0.26667,0.35 -0.4,0.55c-0.16667,0.16667 -0.33333,0.35 -0.5,0.55c-0.13333,0.16667 -0.25,0.33333 -0.35,0.5c-0.2,0.2 -0.38333,0.38333 -0.55,0.55c-0.16667,0.16667 -0.35,0.35 -0.55,0.55c-0.16667,0.16667 -0.35,0.33333 -0.55,0.5c-0.16667,0.2 -0.33333,0.38333 -0.5,0.55c-0.23333,0.16667 -0.48333,0.35 -0.75,0.55c-0.16667,0.16667 -0.33333,0.35 -0.5,0.55c-0.2,0.16667 -0.38333,0.33333 -0.55,0.5c-0.16667,0.2 -0.35,0.38333 -0.55,0.55c-0.4,0.16667 -0.81667,0.35 -1.25,0.55c-0.1,0.1 -0.21667,0.21667 -0.35,0.35c-0.3,0.06667 -0.58333,0.13333 -0.85,0.2c-0.73333,0.23333 -1.46667,0.41667 -2.2,0.55c-1.33333,0.3 -2.65,0.65 -3.95,1.05c-2.23333,0.7 -4.48333,1.35 -6.75,1.95c-1.3,0.1 -2.6,0.21667 -3.9,0.35c-0.36667,0.13333 -0.73333,0.25 -1.1,0.35c-1.76667,0.13333 -3.55,0.25 -5.35,0.35c-0.36667,0.13333 -0.71667,0.25 -1.05,0.35c-1.56667,0.13333 -3.11667,0.26667 -4.65,0.4c-0.36667,0.1 -0.73333,0.21667 -1.1,0.35c-1.3,0.1 -2.6,0.21667 -3.9,0.35c-0.36667,0.1 -0.73333,0.21667 -1.1,0.35c-2,0.13333 -4.01667,0.25 -6.05,0.35c-0.36667,0.13333 -0.71667,0.25 -1.05,0.35c-2.26667,0.13333 -4.53333,0.25 -6.8,0.35c-0.36667,0.13333 -0.73333,0.26667 -1.1,0.4c-1.76667,0.1 -3.55,0.21667 -5.35,0.35c-0.33333,0.1 -0.68333,0.21667 -1.05,0.35c-3.8,0 -7.61667,0 -11.45,0c-0.4,-0.13333 -0.81667,-0.25 -1.25,-0.35c-1.46667,-0.13333 -2.95,-0.25 -4.45,-0.35c-0.4,-0.13333 -0.81667,-0.26667 -1.25,-0.4c-0.3,-0.1 -0.6,-0.2 -0.9,-0.3c-0.4,-0.13333 -0.81667,-0.26667 -1.25,-0.4c-0.1,-0.1 -0.21667,-0.21667 -0.35,-0.35c-0.36667,-0.13333 -0.71667,-0.25 -1.05,-0.35c-0.2,-0.2 -0.38333,-0.38333 -0.55,-0.55c-0.16667,-0.16667 -0.35,-0.35 -0.55,-0.55c-0.16667,-0.16667 -0.33333,-0.33333 -0.5,-0.5c-0.13333,-0.2 -0.26667,-0.38333 -0.4,-0.55c-0.16667,-0.16667 -0.33333,-0.35 -0.5,-0.55c-0.23333,-0.16667 -0.48333,-0.33333 -0.75,-0.5c-0.1,-0.2 -0.21667,-0.38333 -0.35,-0.55c-0.06667,-0.2 -0.11667,-0.38333 -0.15,-0.55c-0.06667,-0.16667 -0.13333,-0.35 -0.2,-0.55c-0.1,-0.16667 -0.21667,-0.33333 -0.35,-0.5c-0.06667,-0.2 -0.13333,-0.38333 -0.2,-0.55c-0.1,-0.16667 -0.21667,-0.35 -0.35,-0.55c-0.06667,-0.16667 -0.11667,-0.33333 -0.15,-0.5c-0.13333,-0.2 -0.25,-0.38333 -0.35,-0.55c-0.2,-0.2 -0.38333,-0.38333 -0.55,-0.55c-0.13333,-0.16667 -0.25,-0.35 -0.35,-0.55c-0.06667,-0.16667 -0.13333,-0.33333 -0.2,-0.5c0,-0.2 0,-0.38333 0,-0.55c0,-0.16667 0,-0.35 0,-0.55c-0.06667,-0.16667 -0.11667,-0.33333 -0.15,-0.5c-0.13333,-0.2 -0.26667,-0.38333 -0.4,-0.55c-0.03333,-0.2 -0.08333,-0.38333 -0.15,-0.55c0,-0.16667 0,-0.35 0,-0.55c-0.06667,-0.16667 -0.13333,-0.33333 -0.2,-0.5c-0.06667,-0.2 -0.11667,-0.38333 -0.15,-0.55c-0.13333,-0.16667 -0.25,-0.35 -0.35,-0.55c0,-0.16667 0,-0.33333 0,-0.5c0,-0.2 0,-0.38333 0,-0.55c-0.2,0 -0.38333,0 -0.55,0c-0.36667,0.1 -0.73333,0.21667 -1.1,0.35c-0.33333,0.13333 -0.68333,0.25 -1.05,0.35c-0.36667,0.13333 -0.71667,0.25 -1.05,0.35c-2.63333,0 -5.26667,0 -7.9,0c-0.3,0.06667 -0.58333,0.13333 -0.85,0.2c0.16667,0.16667 0.33333,0.35 0.5,0.55c0.2,0.16667 0.38333,0.33333 0.55,0.5c0.06667,0.2 0.13333,0.38333 0.2,0.55c0.03333,0.16667 0.08333,0.35 0.15,0.55c0,0.16667 0,0.33333 0,0.5c0.13333,0.2 0.25,0.38333 0.35,0.55c0.06667,0.16667 0.13333,0.35 0.2,0.55c0.06667,0.16667 0.11667,0.35 0.15,0.55c0.13333,0.16667 0.26667,0.33333 0.4,0.5c0.1,0.2 0.21667,0.38333 0.35,0.55c0.03333,0.16667 0.08333,0.35 0.15,0.55c0.13333,0.16667 0.25,0.33333 0.35,0.5c0.06667,0.2 0.13333,0.38333 0.2,0.55c0,0.16667 0,0.35 0,0.55c0,0.16667 0,0.35 0,0.55c0,0.16667 0,0.33333 0,0.5c0,0.2 0,0.38333 0,0.55c0,0.16667 0,0.35 0,0.55c0,0.16667 0,0.33333 0,0.5c0,0.2 0,0.38333 0,0.55c-0.06667,0.16667 -0.13333,0.35 -0.2,0.55c-0.03333,0.16667 -0.08333,0.35 -0.15,0.55c-0.2,0.16667 -0.38333,0.33333 -0.55,0.5c-0.4,0.2 -0.81667,0.38333 -1.25,0.55c-0.1,0.13333 -0.21667,0.25 -0.35,0.35c-0.36667,0.13333 -0.71667,0.25 -1.05,0.35c-0.13333,0.13333 -0.26667,0.25 -0.4,0.35c-0.3,0.06667 -0.58333,0.13333 -0.85,0.2c-0.6,0.13333 -1.2,0.26667 -1.8,0.4c-0.36667,0.1 -0.73333,0.2 -1.1,0.3c-1.3,0.13333 -2.6,0.25 -3.9,0.35c-0.36667,0.13333 -0.73333,0.26667 -1.1,0.4c-1.3,0.1 -2.6,0.21667 -3.9,0.35c-0.36667,0.1 -0.73333,0.21667 -1.1,0.35c-1.06667,0.1 -2.13333,0.21667 -3.2,0.35c-0.36667,0.13333 -0.71667,0.25 -1.05,0.35c-8.33333,0 -16.66667,0 -25,0c-0.43333,-0.1 -0.85,-0.21667 -1.25,-0.35c-1.5,-0.13333 -2.98333,-0.25 -4.45,-0.35c-0.43333,-0.13333 -0.85,-0.25 -1.25,-0.35c-0.13333,-0.2 -0.26667,-0.38333 -0.4,-0.55c-0.16667,-0.13333 -0.33333,-0.25 -0.5,-0.35c-0.06667,-0.06667 -0.13333,-0.11667 -0.2,-0.15c-0.36667,-0.13333 -0.71667,-0.26667 -1.05,-0.4c-0.13333,-0.16667 -0.25,-0.35 -0.35,-0.55c-0.26667,-0.16667 -0.51667,-0.33333 -0.75,-0.5c-0.1,-0.2 -0.21667,-0.38333 -0.35,-0.55c-0.06667,-0.16667 -0.11667,-0.35 -0.15,-0.55c-0.13333,-0.16667 -0.26667,-0.33333 -0.4,-0.5c-0.16667,-0.2 -0.33333,-0.38333 -0.5,-0.55c0,0.1 0,0.21667 0,0.35c0,0.16667 0,0.35 0,0.55c-0.06667,0.16667 -0.13333,0.33333 -0.2,0.5c-0.06667,0.2 -0.11667,0.38333 -0.15,0.55c-0.2,0.16667 -0.38333,0.35 -0.55,0.55c-0.2,0.16667 -0.38333,0.35 -0.55,0.55c-0.16667,0.16667 -0.35,0.33333 -0.55,0.5c-0.1,0.13333 -0.21667,0.25 -0.35,0.35c-0.06667,0.06667 -0.13333,0.11667 -0.2,0.15c-0.26667,0.1 -0.55,0.18333 -0.85,0.25c-0.46667,0 -0.95,0 -1.45,0c-0.4,-0.13333 -0.81667,-0.26667 -1.25,-0.4c-0.1,-0.1 -0.21667,-0.21667 -0.35,-0.35c-0.36667,-0.1 -0.71667,-0.21667 -1.05,-0.35c-0.2,-0.16667 -0.38333,-0.35 -0.55,-0.55c-0.13333,-0.1 -0.25,-0.21667 -0.35,-0.35c-0.06667,-0.06667 -0.13333,-0.1 -0.2,-0.1c-0.33333,-0.16667 -0.68333,-0.3 -1.05,-0.4c-0.2,-0.2 -0.38333,-0.38333 -0.55,-0.55c-0.16667,-0.2 -0.35,-0.38333 -0.55,-0.55c-0.16667,-0.16667 -0.33333,-0.35 -0.5,-0.55c-0.06667,0.13333 -0.13333,0.26667 -0.2,0.4c0,0.16667 0,0.33333 0,0.5c-0.06667,0.2 -0.11667,0.38333 -0.15,0.55c-0.13333,0.16667 -0.26667,0.35 -0.4,0.55c-0.1,0.16667 -0.21667,0.33333 -0.35,0.5c-0.23333,0.2 -0.46667,0.38333 -0.7,0.55c-0.36667,0.13333 -0.71667,0.25 -1.05,0.35c-0.36667,0.13333 -0.73333,0.25 -1.1,0.35c-0.36667,0.13333 -0.73333,0.25 -1.1,0.35c-0.56667,0.13333 -1.15,0.26667 -1.75,0.4c-0.36667,0.1 -0.71667,0.21667 -1.05,0.35c-1.1,0.1 -2.18333,0.21667 -3.25,0.35c-0.33333,0.13333 -0.68333,0.25 -1.05,0.35c-1.8,0.13333 -3.58333,0.25 -5.35,0.35c-0.36667,0.13333 -0.73333,0.25 -1.1,0.35c-2,0.13333 -4.01667,0.26667 -6.05,0.4c-0.36667,0.1 -0.73333,0.21667 -1.1,0.35c-5,0 -10,0 -15,0c-0.4,-0.13333 -0.8,-0.26667 -1.2,-0.4c-0.3,-0.1 -0.61667,-0.2 -0.95,-0.3c-0.4,-0.13333 -0.8,-0.26667 -1.2,-0.4c-0.13333,-0.16667 -0.26667,-0.33333 -0.4,-0.5c-0.23333,-0.2 -0.46667,-0.38333 -0.7,-0.55c-0.16667,-0.2 -0.33333,-0.38333 -0.5,-0.55c-0.2,-0.16667 -0.38333,-0.35 -0.55,-0.55c-0.13333,-0.16667 -0.25,-0.33333 -0.35,-0.5c-0.13333,-0.2 -0.25,-0.38333 -0.35,-0.55c-0.06667,-0.16667 -0.13333,-0.35 -0.2,-0.55c-0.13333,-0.16667 -0.25,-0.33333 -0.35,-0.5c-0.06667,-0.2 -0.13333,-0.38333 -0.2,-0.55c-0.1,-0.2 -0.21667,-0.38333 -0.35,-0.55c-0.1,-0.16667 -0.21667,-0.35 -0.35,-0.55c0,-0.16667 0,-0.33333 0,-0.5c0,-0.2 0,-0.38333 0,-0.55c-0.13333,-0.16667 -0.25,-0.35 -0.35,-0.55c-0.13333,-0.16667 -0.25,-0.33333 -0.35,-0.5c0,-0.2 0,-0.38333 0,-0.55c0,-0.2 0,-0.38333 0,-0.55c0,-0.16667 0,-0.35 0,-0.55c-0.06667,-0.16667 -0.13333,-0.33333 -0.2,-0.5c-0.1,-0.2 -0.21667,-0.38333 -0.35,-0.55c-0.06667,-0.16667 -0.13333,-0.35 -0.2,-0.55c0,-0.16667 0,-0.33333 0,-0.5c0,-0.2 0,-0.38333 0,-0.55c-0.03333,-0.2 -0.08333,-0.38333 -0.15,-0.55c-0.06667,-0.16667 -0.13333,-0.35 -0.2,-0.55c-0.1,-0.16667 -0.21667,-0.33333 -0.35,-0.5c-0.06667,-0.2 -0.11667,-0.38333 -0.15,-0.55c-0.13333,-0.16667 -0.26667,-0.35 -0.4,-0.55c-0.03333,-0.16667 -0.08333,-0.33333 -0.15,-0.5c0,-0.2 0,-0.38333 0,-0.55c0,-0.2 0,-0.38333 0,-0.55c-0.06667,-0.16667 -0.13333,-0.35 -0.2,-0.55c-0.06667,-0.16667 -0.11667,-0.33333 -0.15,-0.5c-0.13333,-0.2 -0.25,-0.38333 -0.35,-0.55c0,-0.16667 0,-0.35 0,-0.55c0,-0.16667 0,-0.33333 0,-0.5c-0.06667,-0.2 -0.13333,-0.38333 -0.2,-0.55c-0.06667,-0.2 -0.13333,-0.38333 -0.2,-0.55c-0.1,-0.16667 -0.21667,-0.35 -0.35,-0.55c-0.06667,-0.16667 -0.11667,-0.33333 -0.15,-0.5c-0.06667,-0.2 -0.13333,-0.38333 -0.2,-0.55c-0.1,-0.16667 -0.21667,-0.35 -0.35,-0.55c0,-0.16667 0,-0.33333 0,-0.5c0,-0.2 0,-0.38333 0,-0.55c0,-0.2 0,-0.38333 0,-0.55c0,-0.16667 0,-0.35 0,-0.55c0,-0.16667 0,-0.33333 0,-0.5c-0.06667,-0.2 -0.13333,-0.38333 -0.2,-0.55c-0.03333,-0.16667 -0.08333,-0.35 -0.15,-0.55c-0.13333,-0.16667 -0.25,-0.33333 -0.35,-0.5c0,-0.2 0,-0.38333 0,-0.55c0,-0.2 0,-0.38333 0,-0.55c0,-0.16667 0,-0.35 0,-0.55c0,-0.16667 0,-0.33333 0,-0.5c0,-0.2 0,-0.38333 0,-0.55c0,-0.16667 0,-0.35 0,-0.55c0,-0.16667 0,-0.33333 0,-0.5c0,-0.2 0,-0.38333 0,-0.55c0,-0.16667 0,-0.35 0,-0.55c0,-0.3 0,-0.6 0,-0.9c-0.06667,0 -0.13333,0 -0.2,0c-1.53333,0.13333 -3.08333,0.25 -4.65,0.35c-0.33333,0.13333 -0.68333,0.26667 -1.05,0.4c-2.03333,0.1 -4.06667,0.21667 -6.1,0.35c-0.33333,0.1 -0.68333,0.2 -1.05,0.3c-0.6,0.13333 -1.2,0.28333 -1.8,0.45c-0.33333,0.1 -0.68333,0.2 -1.05,0.3c-0.36667,0.13333 -0.73333,0.25 -1.1,0.35c-0.16667,0.2 -0.33333,0.38333 -0.5,0.55c-0.2,0.16667 -0.38333,0.35 -0.55,0.55c-0.06667,0.16667 -0.13333,0.33333 -0.2,0.5c0,0.2 0,0.38333 0,0.55c0,0.16667 0,0.35 0,0.55c0,0.16667 0,0.35 0,0.55c0,0.16667 0,0.33333 0,0.5c0,0.2 0,0.38333 0,0.55c0,0.16667 0,0.35 0,0.55c0,0.16667 0,0.33333 0,0.5c0,0.2 0,0.38333 0,0.55c0.06667,0.16667 0.13333,0.35 0.2,0.55c0.13333,0.16667 0.25,0.35 0.35,0.55c0.06667,0.16667 0.13333,0.33333 0.2,0.5c0,0.2 0,0.38333 0,0.55c0,0.16667 0,0.35 0,0.55c0,0.16667 0,0.33333 0,0.5c0,0.2 0,0.38333 0,0.55c0,0.16667 0,0.35 0,0.55c0,0.36667 0,0.71667 0,1.05c0,0.2 0,0.38333 0,0.55c0,0.53333 0,1.06667 0,1.6c0,0.16667 0,0.35 0,0.55c0,0.16667 0,0.35 0,0.55c0.03333,0.16667 0.08333,0.33333 0.15,0.5c0.13333,0.2 0.25,0.38333 0.35,0.55c0.06667,0.16667 0.13333,0.35 0.2,0.55c0,0.16667 0,0.33333 0,0.5c0,0.2 0,0.38333 0,0.55c0,0.16667 0,0.35 0,0.55c0,0.16667 0,0.35 0,0.55c0,0.16667 0,0.33333 0,0.5c0,0.2 0,0.38333 0,0.55c0,0.16667 0,0.35 0,0.55c0,0.16667 0,0.33333 0,0.5c0,0.36667 0,0.73333 0,1.1c0,0.16667 0,0.35 0,0.55c-0.06667,0.16667 -0.13333,0.33333 -0.2,0.5c-0.03333,0.2 -0.08333,0.38333 -0.15,0.55c-0.13333,0.16667 -0.25,0.35 -0.35,0.55c-0.06667,0.16667 -0.13333,0.33333 -0.2,0.5c-0.1,0.2 -0.21667,0.38333 -0.35,0.55c-0.16667,0.16667 -0.35,0.35 -0.55,0.55c-0.16667,0.16667 -0.33333,0.35 -0.5,0.55c-0.36667,0.1 -0.73333,0.21667 -1.1,0.35c-0.7,0.23333 -1.4,0.48333 -2.1,0.75c-1.3,0.46667 -2.61667,0.85 -3.95,1.15c-2.26667,0.5 -4.53333,1.05 -6.8,1.65c-3.1,0 -6.2,0 -9.3,0c-0.4,-0.1 -0.81667,-0.21667 -1.25,-0.35c-0.53333,-0.13333 -1.06667,-0.26667 -1.6,-0.4c-0.4,-0.1 -0.81667,-0.2 -1.25,-0.3c-0.06667,-0.13333 -0.11667,-0.25 -0.15,-0.35c-0.43333,-0.13333 -0.85,-0.26667 -1.25,-0.4c-0.13333,-0.16667 -0.26667,-0.33333 -0.4,-0.5c-0.23333,-0.2 -0.46667,-0.38333 -0.7,-0.55c-0.16667,-0.16667 -0.35,-0.35 -0.55,-0.55c-0.16667,-0.16667 -0.33333,-0.33333 -0.5,-0.5c-0.13333,-0.2 -0.25,-0.38333 -0.35,-0.55c-0.13333,-0.2 -0.26667,-0.38333 -0.4,-0.55c0,-0.16667 0,-0.35 0,-0.55c-0.03333,-0.16667 -0.08333,-0.33333 -0.15,-0.5c-0.06667,-0.2 -0.13333,-0.38333 -0.2,-0.55c-0.1,-0.16667 -0.21667,-0.35 -0.35,-0.55c-0.1,0.13333 -0.21667,0.25 -0.35,0.35c-0.16667,0.2 -0.35,0.38333 -0.55,0.55c-0.16667,0.16667 -0.33333,0.35 -0.5,0.55c-0.13333,0.16667 -0.26667,0.35 -0.4,0.55c-0.1,0.16667 -0.21667,0.33333 -0.35,0.5c-0.1,0.2 -0.21667,0.38333 -0.35,0.55c-0.1,0.13333 -0.21667,0.25 -0.35,0.35c-0.36667,0.13333 -0.71667,0.25 -1.05,0.35c-0.2,0.2 -0.38333,0.38333 -0.55,0.55c-0.13333,0.13333 -0.25,0.25 -0.35,0.35c-0.06667,0.06667 -0.13333,0.11667 -0.2,0.15c-0.36667,0.13333 -0.71667,0.26667 -1.05,0.4c-0.13333,0.1 -0.25,0.21667 -0.35,0.35c-0.36667,0.13333 -0.73333,0.25 -1.1,0.35c-0.1,0.13333 -0.21667,0.25 -0.35,0.35c-0.36667,0.13333 -0.71667,0.25 -1.05,0.35c-0.13333,0.13333 -0.25,0.26667 -0.35,0.4c-0.36667,0.1 -0.73333,0.21667 -1.1,0.35c-0.1,0.1 -0.21667,0.21667 -0.35,0.35c-0.3,0.06667 -0.6,0.13333 -0.9,0.2c-0.36667,0.1 -0.71667,0.21667 -1.05,0.35c-0.36667,0.1 -0.73333,0.21667 -1.1,0.35c-0.33333,0.1 -0.68333,0.21667 -1.05,0.35c-0.43333,0.16667 -0.85,0.35 -1.25,0.55c-0.13333,0.1 -0.25,0.21667 -0.35,0.35c-0.3,0.03333 -0.6,0.1 -0.9,0.2c-0.36667,0.1 -0.73333,0.2 -1.1,0.3c-0.33333,0.13333 -0.68333,0.26667 -1.05,0.4c-0.83333,0.1 -1.66667,0.21667 -2.5,0.35c-0.36667,0.1 -0.71667,0.21667 -1.05,0.35c-0.5,0 -0.98333,0 -1.45,0c-0.43333,-0.13333 -0.85,-0.25 -1.25,-0.35c-0.53333,-0.13333 -1.06667,-0.26667 -1.6,-0.4c-0.43333,-0.1 -0.85,-0.21667 -1.25,-0.35c-0.13333,-0.16667 -0.25,-0.33333 -0.35,-0.5c-0.23333,-0.2 -0.48333,-0.38333 -0.75,-0.55c-0.16667,-0.16667 -0.33333,-0.35 -0.5,-0.55c-0.2,-0.16667 -0.38333,-0.33333 -0.55,-0.5c-0.16667,-0.2 -0.35,-0.38333 -0.55,-0.55c-0.16667,-0.2 -0.33333,-0.38333 -0.5,-0.55c-0.2,-0.16667 -0.38333,-0.35 -0.55,-0.55c-0.43333,-0.16667 -0.85,-0.33333 -1.25,-0.5c-0.2,-0.2 -0.38333,-0.38333 -0.55,-0.55c-0.16667,-0.16667 -0.35,-0.35 -0.55,-0.55c-0.16667,-0.16667 -0.33333,-0.33333 -0.5,-0.5c-0.13333,-0.2 -0.25,-0.38333 -0.35,-0.55c-0.06667,-0.2 -0.13333,-0.38333 -0.2,-0.55c-0.13333,-0.16667 -0.25,-0.35 -0.35,-0.55c-0.2,-0.16667 -0.38333,-0.33333 -0.55,-0.5c-0.16667,-0.2 -0.35,-0.38333 -0.55,-0.55c-0.16667,-0.16667 -0.33333,-0.35 -0.5,-0.55c-0.2,-0.16667 -0.38333,-0.33333 -0.55,-0.5c-0.16667,-0.2 -0.35,-0.38333 -0.55,-0.55c-0.1,-0.2 -0.21667,-0.38333 -0.35,-0.55c-0.1,-0.16667 -0.21667,-0.35 -0.35,-0.55c-0.06667,-0.16667 -0.13333,-0.33333 -0.2,-0.5c-0.16667,-0.2 -0.33333,-0.38333 -0.5,-0.55c-0.2,-0.16667 -0.38333,-0.35 -0.55,-0.55c-0.16667,-0.16667 -0.35,-0.33333 -0.55,-0.5c-0.16667,-0.2 -0.33333,-0.38333 -0.5,-0.55c-0.13333,-0.2 -0.26667,-0.38333 -0.4,-0.55c-0.03333,-0.16667 -0.08333,-0.35 -0.15,-0.55c-0.13333,-0.16667 -0.25,-0.33333 -0.35,-0.5c-0.2,-0.2 -0.38333,-0.38333 -0.55,-0.55c-0.16667,-0.16667 -0.35,-0.35 -0.55,-0.55c-0.1,-0.16667 -0.21667,-0.33333 -0.35,-0.5c-0.06667,-0.2 -0.11667,-0.38333 -0.15,-0.55c-0.13333,-0.13333 -0.26667,-0.25 -0.4,-0.35c0,0.16667 0,0.33333 0,0.5c0,0.2 0,0.38333 0,0.55c0,0.16667 0,0.35 0,0.55c0,0.16667 0,0.35 0,0.55c0,0.16667 0,0.33333 0,0.5c0,0.2 0,0.38333 0,0.55c0,0.16667 0,0.35 0,0.55c0,0.16667 0,0.33333 0,0.5c0,0.36667 0,0.73333 0,1.1c0,0.36667 0,0.71667 0,1.05c0.13333,0.2 0.26667,0.38333 0.4,0.55c0.1,0.16667 0.21667,0.35 0.35,0.55c0,0.16667 0,0.33333 0,0.5c0,0.2 0,0.38333 0,0.55c0,0.16667 0,0.35 0,0.55c0,0.16667 0,0.35 0,0.55c0,0.16667 0,0.33333 0,0.5c0,0.2 0,0.38333 0,0.55c0,0.16667 0,0.35 0,0.55c0,0.16667 0,0.33333 0,0.5c0,0.2 0,0.38333 0,0.55c-0.06667,0.16667 -0.13333,0.35 -0.2,0.55c-0.1,0.16667 -0.21667,0.35 -0.35,0.55c-0.13333,0.1 -0.25,0.21667 -0.35,0.35c-0.06667,0.03333 -0.13333,0.06667 -0.2,0.1c-0.33333,0.16667 -0.68333,0.3 -1.05,0.4c-0.13333,0.13333 -0.25,0.26667 -0.35,0.4c-0.3,0.03333 -0.6,0.08333 -0.9,0.15c-0.83333,0.13333 -1.66667,0.25 -2.5,0.35c-0.36667,0.13333 -0.73333,0.25 -1.1,0.35c-0.83333,0.13333 -1.66667,0.26667 -2.5,0.4c-0.33333,0.1 -0.68333,0.21667 -1.05,0.35c-1.06667,0.1 -2.13333,0.21667 -3.2,0.35c-0.36667,0.1 -0.73333,0.21667 -1.1,0.35c-1.53333,0.13333 -3.08333,0.25 -4.65,0.35c-0.33333,0.13333 -0.68333,0.25 -1.05,0.35c-4.03333,0 -8.08333,0 -12.15,0c-0.4,-0.1 -0.81667,-0.21667 -1.25,-0.35c-0.1,-0.1 -0.21667,-0.21667 -0.35,-0.35c-0.36667,-0.13333 -0.71667,-0.25 -1.05,-0.35c-0.13333,-0.2 -0.25,-0.38333 -0.35,-0.55c-0.26667,-0.16667 -0.51667,-0.35 -0.75,-0.55c-0.1,-0.16667 -0.21667,-0.33333 -0.35,-0.5c-0.06667,-0.2 -0.11667,-0.38333 -0.15,-0.55c-0.13333,-0.16667 -0.26667,-0.35 -0.4,-0.55c-0.16667,-0.16667 -0.33333,-0.33333 -0.5,-0.5c-0.13333,-0.2 -0.25,-0.38333 -0.35,-0.55c-0.06667,-0.2 -0.13333,-0.38333 -0.2,-0.55c-0.06667,-0.16667 -0.13333,-0.35 -0.2,-0.55c-0.1,-0.16667 -0.21667,-0.33333 -0.35,-0.5c0,-0.2 0,-0.38333 0,-0.55c-0.06667,-0.16667 -0.11667,-0.35 -0.15,-0.55c-0.06667,-0.16667 -0.13333,-0.33333 -0.2,-0.5c-0.1,-0.2 -0.21667,-0.38333 -0.35,-0.55c0,-0.2 0,-0.38333 0,-0.55c-0.06667,-0.16667 -0.13333,-0.35 -0.2,-0.55c-0.03333,-0.16667 -0.08333,-0.33333 -0.15,-0.5c-0.13333,-0.2 -0.25,-0.38333 -0.35,-0.55c0,-0.16667 0,-0.35 0,-0.55c0,-0.16667 0,-0.33333 0,-0.5c0,-0.2 0,-0.38333 0,-0.55c0,-0.2 0,-0.38333 0,-0.55c-0.06667,-0.16667 -0.13333,-0.35 -0.2,-0.55c-0.1,-0.16667 -0.21667,-0.33333 -0.35,-0.5c-0.06667,-0.2 -0.13333,-0.38333 -0.2,-0.55c0,-0.16667 0,-0.35 0,-0.55c0,-0.16667 0,-0.33333 0,-0.5c0,-0.2 0,-0.38333 0,-0.55c-0.16667,0 -0.33333,0 -0.5,0c-0.2,0.16667 -0.38333,0.35 -0.55,0.55c-0.13333,0.16667 -0.25,0.33333 -0.35,0.5c-0.2,0.2 -0.38333,0.38333 -0.55,0.55c-0.23333,0.16667 -0.46667,0.35 -0.7,0.55c-0.2,0.16667 -0.38333,0.33333 -0.55,0.5c-0.16667,0.2 -0.35,0.38333 -0.55,0.55c-0.16667,0.16667 -0.33333,0.35 -0.5,0.55c-0.2,0.16667 -0.38333,0.35 -0.55,0.55c-0.16667,0.16667 -0.35,0.33333 -0.55,0.5c-0.1,0.13333 -0.21667,0.25 -0.35,0.35c-0.3,0.13333 -0.6,0.26667 -0.9,0.4c-0.16667,0.16667 -0.33333,0.33333 -0.5,0.5c-0.26667,0.2 -0.51667,0.38333 -0.75,0.55c-0.16667,0.16667 -0.33333,0.35 -0.5,0.55c-0.2,0.16667 -0.38333,0.33333 -0.55,0.5c-0.2,0.2 -0.38333,0.38333 -0.55,0.55c-0.1,0.13333 -0.21667,0.25 -0.35,0.35c-0.06667,0.06667 -0.13333,0.11667 -0.2,0.15c-0.33333,0.13333 -0.68333,0.26667 -1.05,0.4c-0.13333,0.13333 -0.25,0.25 -0.35,0.35c-0.3,0.06667 -0.6,0.13333 -0.9,0.2c-0.36667,0.1 -0.71667,0.21667 -1.05,0.35c-0.43333,0.16667 -0.85,0.35 -1.25,0.55c-0.13333,0.1 -0.26667,0.21667 -0.4,0.35c-0.3,0.03333 -0.58333,0.08333 -0.85,0.15c-0.6,0.13333 -1.2,0.26667 -1.8,0.4c-0.36667,0.1 -0.73333,0.21667 -1.1,0.35c-3.33333,0 -6.66667,0 -10,0c-0.4,-0.13333 -0.81667,-0.25 -1.25,-0.35c-0.53333,-0.13333 -1.06667,-0.26667 -1.6,-0.4c-0.4,-0.1 -0.81667,-0.21667 -1.25,-0.35c-0.1,-0.1 -0.21667,-0.21667 -0.35,-0.35c-0.36667,-0.13333 -0.71667,-0.25 -1.05,-0.35c-0.3,-0.13333 -0.6,-0.25 -0.9,-0.35c-0.43333,-0.13333 -0.85,-0.25 -1.25,-0.35c-0.16667,-0.2 -0.35,-0.38333 -0.55,-0.55c-0.1,-0.13333 -0.21667,-0.25 -0.35,-0.35c-0.06667,-0.06667 -0.13333,-0.11667 -0.2,-0.15c-0.33333,-0.13333 -0.68333,-0.26667 -1.05,-0.4c-0.16667,-0.16667 -0.35,-0.35 -0.55,-0.55c-0.1,-0.1 -0.21667,-0.21667 -0.35,-0.35c-0.06667,-0.06667 -0.13333,-0.11667 -0.2,-0.15c-0.33333,-0.13333 -0.68333,-0.26667 -1.05,-0.4c-0.16667,-0.16667 -0.35,-0.33333 -0.55,-0.5c-0.1,-0.13333 -0.21667,-0.25 -0.35,-0.35c-0.03333,-0.06667 -0.1,-0.11667 -0.2,-0.15c-0.33333,-0.16667 -0.68333,-0.3 -1.05,-0.4c-0.1,-0.2 -0.21667,-0.38333 -0.35,-0.55c-0.23333,-0.16667 -0.46667,-0.35 -0.7,-0.55c-0.16667,-0.16667 -0.35,-0.33333 -0.55,-0.5c-0.16667,-0.2 -0.35,-0.38333 -0.55,-0.55c-0.1,-0.16667 -0.21667,-0.35 -0.35,-0.55c-0.23333,-0.16667 -0.46667,-0.33333 -0.7,-0.5c-0.13333,-0.2 -0.25,-0.38333 -0.35,-0.55c-0.06667,-0.2 -0.13333,-0.38333 -0.2,-0.55c-0.03333,-0.16667 -0.08333,-0.35 -0.15,-0.55c-0.23333,-0.16667 -0.48333,-0.33333 -0.75,-0.5c0,0.1 0,0.21667 0,0.35c0,0.16667 0,0.35 0,0.55c0,0.16667 0,0.33333 0,0.5c0,0.36667 0,0.73333 0,1.1c0,0.33333 0,0.68333 0,1.05c0,0.36667 0,0.73333 0,1.1c0,0.53333 0,1.06667 0,1.6c0,0.33333 0,0.68333 0,1.05c0,0.53333 0,1.06667 0,1.6c0,0.36667 0,0.73333 0,1.1c0,0.16667 0,0.33333 0,0.5c-0.1,0.2 -0.21667,0.38333 -0.35,0.55c-0.1,0.16667 -0.21667,0.35 -0.35,0.55c-0.1,0.16667 -0.21667,0.35 -0.35,0.55c-0.16667,0.1 -0.35,0.21667 -0.55,0.35c-0.03333,0.03333 -0.1,0.06667 -0.2,0.1c-0.26667,0.1 -0.55,0.18333 -0.85,0.25c-5.13333,0.1 -10.25,0.21667 -15.35,0.35c-0.36667,0.13333 -0.73333,0.25 -1.1,0.35c-3.2,0.13333 -6.4,0.25 -9.6,0.35c-0.36667,0.13333 -0.73333,0.25 -1.1,0.35c-1.3,0.13333 -2.6,0.26667 -3.9,0.4c-0.36667,0.1 -0.73333,0.2 -1.1,0.3c-0.6,0.13333 -1.18333,0.28333 -1.75,0.45c-0.36667,0.06667 -0.73333,0.16667 -1.1,0.3c-0.96667,0 -1.91667,0 -2.85,0c-0.43333,-0.13333 -0.85,-0.25 -1.25,-0.35c-0.13333,-0.13333 -0.25,-0.25 -0.35,-0.35c-0.36667,-0.13333 -0.73333,-0.25 -1.1,-0.35c-0.1,-0.2 -0.21667,-0.38333 -0.35,-0.55c-0.1,-0.2 -0.21667,-0.38333 -0.35,-0.55c0,-0.16667 0,-0.35 0,-0.55c-0.06667,-0.16667 -0.13333,-0.33333 -0.2,-0.5c-0.03333,-0.2 -0.08333,-0.38333 -0.15,-0.55c-0.13333,-0.16667 -0.25,-0.35 -0.35,-0.55c0,-0.16667 0,-0.33333 0,-0.5c0,-0.2 0,-0.38333 0,-0.55c0,-0.2 0,-0.38333 0,-0.55c0,-0.16667 0,-0.35 0,-0.55c-0.06667,-0.16667 -0.13333,-0.33333 -0.2,-0.5c-0.1,-0.2 -0.21667,-0.38333 -0.35,-0.55c-0.06667,-0.16667 -0.13333,-0.35 -0.2,-0.55c0,-0.16667 0,-0.33333 0,-0.5c0,-0.2 0,-0.38333 0,-0.55c0,-0.2 0,-0.38333 0,-0.55c0,-0.16667 0,-0.35 0,-0.55c0,-0.16667 0,-0.33333 0,-0.5c0,-0.2 0,-0.38333 0,-0.55c0,-0.16667 0,-0.35 0,-0.55c0,-0.16667 0,-0.33333 0,-0.5c0,-0.2 0,-0.38333 0,-0.55c0,-0.2 0,-0.38333 0,-0.55c-0.1,0 -0.21667,0 -0.35,0c-0.06667,0.16667 -0.11667,0.35 -0.15,0.55c-0.06667,0.16667 -0.13333,0.35 -0.2,0.55c-0.1,0.16667 -0.21667,0.33333 -0.35,0.5c-0.06667,0.2 -0.13333,0.38333 -0.2,0.55c-0.1,0.16667 -0.21667,0.35 -0.35,0.55c-0.06667,0.16667 -0.11667,0.33333 -0.15,0.5c-0.13333,0.2 -0.25,0.38333 -0.35,0.55c-0.13333,0.16667 -0.26667,0.35 -0.4,0.55c-0.1,0.16667 -0.21667,0.35 -0.35,0.55c-0.1,0.16667 -0.21667,0.33333 -0.35,0.5c-0.1,0.2 -0.21667,0.38333 -0.35,0.55c-0.13333,0.16667 -0.25,0.35 -0.35,0.55c-0.13333,0.16667 -0.25,0.33333 -0.35,0.5c-0.13333,0.2 -0.25,0.38333 -0.35,0.55c-0.26667,0.36667 -0.51667,0.73333 -0.75,1.1c-0.16667,0.16667 -0.33333,0.33333 -0.5,0.5c-0.2,0.2 -0.38333,0.38333 -0.55,0.55c-0.16667,0.16667 -0.35,0.35 -0.55,0.55c-0.16667,0.16667 -0.35,0.33333 -0.55,0.5c-0.1,0.13333 -0.21667,0.26667 -0.35,0.4c-0.33333,0.1 -0.68333,0.21667 -1.05,0.35c-0.13333,0.1 -0.25,0.21667 -0.35,0.35c-0.3,0.06667 -0.6,0.13333 -0.9,0.2c-0.73333,0.23333 -1.45,0.43333 -2.15,0.6c-1.53333,0.4 -3.08333,0.8 -4.65,1.2c-2.26667,0.56667 -4.53333,1.15 -6.8,1.75c-1.06667,0.1 -2.13333,0.21667 -3.2,0.35c-0.36667,0.13333 -0.71667,0.25 -1.05,0.35c-2.03333,0.13333 -4.06667,0.25 -6.1,0.35c-0.33333,0.13333 -0.68333,0.25 -1.05,0.35c-0.96667,0 -1.91667,0 -2.85,0c-0.43333,-0.1 -0.85,-0.21667 -1.25,-0.35c-1.26667,-0.1 -2.51667,-0.21667 -3.75,-0.35c-0.43333,-0.1 -0.85,-0.2 -1.25,-0.3c-1.3,-0.23333 -2.56667,-0.58333 -3.8,-1.05c-2.03333,-0.73333 -4.11667,-1.3 -6.25,-1.7c-2.9,-0.53333 -5.75,-1.3 -8.55,-2.3c-0.16667,-0.16667 -0.33333,-0.35 -0.5,-0.55c-0.13333,-0.1 -0.25,-0.21667 -0.35,-0.35c-0.06667,-0.06667 -0.13333,-0.11667 -0.2,-0.15c-0.36667,-0.13333 -0.71667,-0.26667 -1.05,-0.4c-0.3,-0.1 -0.6,-0.2 -0.9,-0.3c-0.43333,-0.13333 -0.85,-0.26667 -1.25,-0.4c-0.13333,-0.16667 -0.25,-0.35 -0.35,-0.55c-0.2,-0.1 -0.38333,-0.21667 -0.55,-0.35c-0.06667,-0.06667 -0.13333,-0.1 -0.2,-0.1c-0.33333,-0.16667 -0.68333,-0.3 -1.05,-0.4c-0.13333,-0.13333 -0.25,-0.26667 -0.35,-0.4c-0.36667,-0.1 -0.73333,-0.21667 -1.1,-0.35c-0.1,-0.1 -0.21667,-0.21667 -0.35,-0.35c-0.36667,-0.1 -0.71667,-0.21667 -1.05,-0.35c-0.13333,-0.13333 -0.25,-0.25 -0.35,-0.35c-0.36667,-0.13333 -0.73333,-0.25 -1.1,-0.35c-0.1,-0.13333 -0.21667,-0.25 -0.35,-0.35c-0.36667,-0.13333 -0.71667,-0.26667 -1.05,-0.4c-0.13333,-0.16667 -0.26667,-0.33333 -0.4,-0.5c-0.23333,-0.2 -0.46667,-0.38333 -0.7,-0.55c-0.16667,-0.16667 -0.35,-0.35 -0.55,-0.55c-0.1,-0.16667 -0.21667,-0.33333 -0.35,-0.5c-0.03333,-0.2 -0.08333,-0.38333 -0.15,-0.55c0,-0.2 0,-0.38333 0,-0.55c-0.06667,-0.16667 -0.13333,-0.35 -0.2,-0.55c-0.1,-0.16667 -0.21667,-0.33333 -0.35,-0.5c-0.06667,-0.2 -0.13333,-0.38333 -0.2,-0.55c0,-0.16667 0,-0.35 0,-0.55c0,-0.16667 0,-0.33333 0,-0.5c0,-0.2 0,-0.38333 0,-0.55c0,-0.2 0,-0.38333 0,-0.55c-0.1,-0.16667 -0.21667,-0.35 -0.35,-0.55c-0.1,-0.16667 -0.21667,-0.33333 -0.35,-0.5c0,-0.2 0,-0.38333 0,-0.55c0,-0.16667 0,-0.35 0,-0.55c0,-0.16667 0,-0.33333 0,-0.5c0,-0.2 0,-0.38333 0,-0.55c0,-0.2 0,-0.38333 0,-0.55c0,-0.36667 0,-0.71667 0,-1.05c0,-0.2 0,-0.38333 0,-0.55c0,-0.53333 0,-1.06667 0,-1.6c0,-0.2 0,-0.38333 0,-0.55c0,-0.16667 0,-0.35 0,-0.55c0,-0.16667 0,-0.33333 0,-0.5c-0.1,-0.2 -0.21667,-0.38333 -0.35,-0.55c-0.13333,-0.16667 -0.25,-0.35 -0.35,-0.55c0,-0.16667 0,-0.33333 0,-0.5c0,-0.2 0,-0.38333 0,-0.55c0,-0.2 0,-0.38333 0,-0.55c0,-0.16667 0,-0.35 0,-0.55c0,-0.16667 0,-0.33333 0,-0.5c0,-0.2 0,-0.38333 0,-0.55c0,-0.16667 0,-0.35 0,-0.55c0,-0.16667 0,-0.33333 0,-0.5c0,-0.2 0,-0.38333 0,-0.55c0,-0.2 0,-0.38333 0,-0.55c-0.13333,-0.16667 -0.25,-0.35 -0.35,-0.55c-0.13333,-0.16667 -0.25,-0.33333 -0.35,-0.5c0,-0.2 0,-0.38333 0,-0.55c0,-0.16667 0,-0.35 0,-0.55c0,-0.16667 0,-0.33333 0,-0.5c0,-0.2 0,-0.38333 0,-0.55c0,-0.16667 0,-0.35 0,-0.55c0,-0.36667 0,-0.71667 0,-1.05c0,-0.2 0,-0.38333 0,-0.55c0,-0.53333 0,-1.06667 0,-1.6c0,-0.16667 0,-0.35 0,-0.55c0,-0.16667 0,-0.35 0,-0.55c0,-0.16667 0,-0.33333 0,-0.5c0.03333,-0.2 0.08333,-0.38333 0.15,-0.55c0.06667,-0.16667 0.13333,-0.35 0.2,-0.55c0.1,-0.16667 0.21667,-0.33333 0.35,-0.5c0,-0.2 0,-0.38333 0,-0.55c0,-0.16667 0,-0.35 0,-0.55c0,-0.16667 0,-0.35 0,-0.55c0,-0.16667 0,-0.33333 0,-0.5c0,-0.2 0,-0.38333 0,-0.55c0,-0.16667 0,-0.35 0,-0.55c0,-0.16667 0,-0.33333 0,-0.5c0,-0.2 0,-0.38333 0,-0.55c0.1,-0.16667 0.21667,-0.35 0.35,-0.55c0.06667,-0.16667 0.13333,-0.35 0.2,-0.55c0.03333,-0.16667 0.08333,-0.33333 0.15,-0.5c0,-0.2 0,-0.38333 0,-0.55c0,-0.16667 0,-0.35 0,-0.55c0,-0.16667 0,-0.33333 0,-0.5c0,-0.2 0,-0.38333 0,-0.55c0,-0.16667 0,-0.35 0,-0.55c0,-0.16667 0,-0.35 0,-0.55c0.06667,-0.16667 0.13333,-0.33333 0.2,-0.5c0.1,-0.2 0.21667,-0.38333 0.35,-0.55c0.16667,-0.13333 0.35,-0.25 0.55,-0.35c0.3,-0.13333 0.58333,-0.25 0.85,-0.35c0.2,-0.13333 0.38333,-0.25 0.55,-0.35c0.3,-0.06667 0.6,-0.13333 0.9,-0.2c0.3,-0.13333 0.6,-0.25 0.9,-0.35c0.4,-0.13333 0.81667,-0.26667 1.25,-0.4c0.3,-0.1 0.6,-0.21667 0.9,-0.35c0.4,-0.16667 0.81667,-0.33333 1.25,-0.5c0.23333,-0.16667 0.46667,-0.35 0.7,-0.55c-0.13333,-0.16667 -0.25,-0.35 -0.35,-0.55c-0.2,-0.16667 -0.38333,-0.33333 -0.55,-0.5c-0.16667,-0.2 -0.35,-0.38333 -0.55,-0.55c-0.16667,-0.16667 -0.33333,-0.35 -0.5,-0.55c-0.13333,-0.16667 -0.25,-0.33333 -0.35,-0.5c-0.2,-0.2 -0.38333,-0.38333 -0.55,-0.55c-0.23333,-0.16667 -0.46667,-0.35 -0.7,-0.55c-0.13333,-0.16667 -0.26667,-0.35 -0.4,-0.55c-0.03333,-0.16667 -0.08333,-0.33333 -0.15,-0.5c-0.06667,-0.13333 -0.13333,-0.25 -0.2,-0.35c-0.03333,-0.06667 -0.1,-0.11667 -0.2,-0.15c-0.33333,-0.16667 -0.68333,-0.3 -1.05,-0.4c-0.1,-0.16667 -0.21667,-0.35 -0.35,-0.55c-0.1,-0.16667 -0.21667,-0.35 -0.35,-0.55c-0.06667,-0.16667 -0.13333,-0.33333 -0.2,-0.5c-0.1,-0.2 -0.21667,-0.38333 -0.35,-0.55c-0.03333,-0.16667 -0.08333,-0.35 -0.15,-0.55c-0.13333,-0.16667 -0.25,-0.33333 -0.35,-0.5c-0.13333,-0.2 -0.26667,-0.38333 -0.4,-0.55c-0.03333,-0.16667 -0.08333,-0.35 -0.15,-0.55c-0.06667,-0.16667 -0.13333,-0.35 -0.2,-0.55c-0.1,-0.16667 -0.21667,-0.33333 -0.35,-0.5c-0.06667,-0.2 -0.11667,-0.38333 -0.15,-0.55c-0.13333,-0.16667 -0.26667,-0.35 -0.4,-0.55c-0.03333,-0.16667 -0.08333,-0.33333 -0.15,-0.5c0,-0.2 0,-0.38333 0,-0.55c-0.06667,-0.16667 -0.13333,-0.35 -0.2,-0.55c-0.1,-0.16667 -0.21667,-0.33333 -0.35,-0.5c-0.06667,-0.2 -0.11667,-0.38333 -0.15,-0.55c0,-0.2 0,-0.38333 0,-0.55c-0.06667,-0.16667 -0.13333,-0.35 -0.2,-0.55c-0.13333,-0.16667 -0.25,-0.33333 -0.35,-0.5c-0.06667,-0.2 -0.13333,-0.38333 -0.2,-0.55c0,-0.16667 0,-0.35 0,-0.55c0,-0.16667 0,-0.33333 0,-0.5c-0.03333,-0.2 -0.08333,-0.38333 -0.15,-0.55c-0.06667,-0.2 -0.13333,-0.38333 -0.2,-0.55c-0.1,-0.16667 -0.21667,-0.35 -0.35,-0.55c0,-0.16667 0,-0.33333 0,-0.5c0,-0.2 0,-0.38333 0,-0.55c0,-0.16667 0,-0.35 0,-0.55c0,-0.33333 0,-0.68333 0,-1.05c0,-0.36667 0,-0.73333 0,-1.1c0,-0.53333 0,-1.06667 0,-1.6c0,-0.53333 0,-1.06667 0,-1.6c0,-0.53333 0,-1.06667 0,-1.6c0,-0.53333 0,-1.06667 0,-1.6c0,-0.36667 0,-0.73333 0,-1.1c0.13333,-0.16667 0.25,-0.33333 0.35,-0.5c0.13333,-0.2 0.25,-0.38333 0.35,-0.55c0,-0.16667 0,-0.35 0,-0.55c0,-0.16667 0,-0.33333 0,-0.5c0,-0.2 0,-0.38333 0,-0.55c0.13333,-0.2 0.25,-0.38333 0.35,-0.55c0.06667,-0.16667 0.13333,-0.35 0.2,-0.55c0.06667,-0.16667 0.13333,-0.33333 0.2,-0.5c0,-0.2 0,-0.38333 0,-0.55c0.1,-0.16667 0.21667,-0.35 0.35,-0.55c0.06667,-0.16667 0.11667,-0.33333 0.15,-0.5c0.06667,-0.2 0.13333,-0.38333 0.2,-0.55c0.1,-0.2 0.21667,-0.38333 0.35,-0.55c0.13333,-0.16667 0.25,-0.35 0.35,-0.55c0.06667,-0.16667 0.13333,-0.33333 0.2,-0.5c0.1,-0.2 0.21667,-0.38333 0.35,-0.55c0.06667,-0.16667 0.11667,-0.35 0.15,-0.55c0.13333,-0.16667 0.26667,-0.33333 0.4,-0.5c0.03333,-0.2 0.08333,-0.38333 0.15,-0.55c0.06667,-0.2 0.13333,-0.38333 0.2,-0.55c0.1,-0.16667 0.21667,-0.35 0.35,-0.55c0.16667,-0.16667 0.35,-0.33333 0.55,-0.5c0.1,-0.2 0.21667,-0.38333 0.35,-0.55c0.06667,-0.16667 0.11667,-0.35 0.15,-0.55c0.13333,-0.16667 0.25,-0.33333 0.35,-0.5c0.2,-0.2 0.38333,-0.38333 0.55,-0.55c0.2,-0.2 0.38333,-0.38333 0.55,-0.55c0.16667,-0.16667 0.35,-0.35 0.55,-0.55c0.03333,-0.16667 0.08333,-0.33333 0.15,-0.5c0.13333,-0.2 0.25,-0.38333 0.35,-0.55c0.13333,-0.16667 0.25,-0.35 0.35,-0.55c0.2,-0.16667 0.38333,-0.33333 0.55,-0.5c0.06667,-0.2 0.13333,-0.38333 0.2,-0.55c0.1,-0.16667 0.21667,-0.35 0.35,-0.55c0.1,-0.16667 0.21667,-0.35 0.35,-0.55c0.4,-0.16667 0.81667,-0.33333 1.25,-0.5c0.06667,-0.2 0.13333,-0.38333 0.2,-0.55c0.1,-0.16667 0.21667,-0.35 0.35,-0.55c0.1,-0.16667 0.21667,-0.33333 0.35,-0.5c0.4,-0.2 0.81667,-0.38333 1.25,-0.55c0.16667,-0.16667 0.35,-0.35 0.55,-0.55c0.16667,-0.1 0.33333,-0.21667 0.5,-0.35c0.06667,-0.06667 0.13333,-0.13333 0.2,-0.2c0.3,-0.1 0.6,-0.21667 0.9,-0.35c0.16667,-0.16667 0.33333,-0.33333 0.5,-0.5c0.2,-0.13333 0.38333,-0.26667 0.55,-0.4c0.06667,-0.03333 0.13333,-0.08333 0.2,-0.15c0.3,-0.13333 0.6,-0.25 0.9,-0.35z" fill="#ffffff"/><path d="M388.38784,324.15631c0.06667,1.9 -0.01667,3.8 -0.25,5.7c-0.26667,2.3 -1.36667,4.01667 -3.3,5.15c-6.76667,-0.83333 -13.43333,-0.55 -20,0.85l-1.8,2.3c0.23333,0.2 0.46667,0.4 0.7,0.6c0.63333,0.43333 1.31667,0.73333 2.05,0.9c3.73333,0.8 7.51667,1.46667 11.35,2c3.73333,0.56667 7.41667,1.31667 11.05,2.25c2.83333,0.8 5.35,2.08333 7.55,3.85c4.26667,3.4 8.15,7.15 11.65,11.25c4.96667,5.8 6.85,12.46667 5.65,20c-0.8,5.1 -2.8,9.73333 -6,13.9c-7.13333,9.36667 -16.7,13.96667 -28.7,13.8c-10.2,-0.7 -20.48333,-1.45 -30.85,-2.25c-1.36667,-0.3 -2.51667,-0.91667 -3.45,-1.85c-4.43333,-4.73333 -6.53333,-10.41667 -6.3,-17.05c0.06667,-2.03333 0.28333,-4.05 0.65,-6.05c0.76667,-4.03333 2.36667,-7.45 4.8,-10.25c1.6,0.2 3.18333,0.51667 4.75,0.95c8.5,2.66667 17.16667,3.95 26,3.85c2.36667,-0.23333 4.51667,-0.91667 6.45,-2.05c3.6,-2.2 4.4,-5.21667 2.4,-9.05c-1.26667,-2.4 -3.25,-3.88333 -5.95,-4.45c-6.86667,-1.2 -13.73333,-1.88333 -20.6,-2.05c-4.46667,-0.13333 -8.55,-1.5 -12.25,-4.1c-2.23333,-1.53333 -3.68333,-3.6 -4.35,-6.2c-2.03333,-7.86667 -0.95,-15.28333 3.25,-22.25c1.4,-2.36667 3.11667,-4.41667 5.15,-6.15c7.7,-6.43333 16.41667,-8.66667 26.15,-6.7c2,0.4 3.98333,0.83333 5.95,1.3c5.86667,1.6 8.61667,5.53333 8.25,11.8M462.53784,315.80631c0.03333,4.5 0.88333,8.9 2.55,13.2l1.55,6.55c-2.5,1.73333 -5.31667,2.86667 -8.45,3.4c-6.16667,0.83333 -12.08333,2.38333 -17.75,4.65c3.3,13.03333 6.5,26.15 9.6,39.35c0.96667,4.13333 1.75,8.4 2.35,12.8c0.23333,1.73333 0,3.4 -0.7,5c-0.2,0.43333 -0.51667,0.75 -0.95,0.95c-9.13333,2.8 -18.51667,3.71667 -28.15,2.75c-1.43333,-1.56667 -2.16667,-3.36667 -2.2,-5.4c-0.06667,-5.56667 -0.28333,-11.15 -0.65,-16.75c-0.13333,-2.33333 -0.18333,-4.65 -0.15,-6.95c0.06667,-11.46667 -0.13333,-22.93333 -0.6,-34.4c-6.03333,1.13333 -12.11667,1.53333 -18.25,1.2c-1.8,0.06667 -3.41667,-0.4 -4.85,-1.4c-0.93333,-0.63333 -1.36667,-1.48333 -1.3,-2.55c0.26667,-5.4 0.16667,-10.83333 -0.3,-16.3c-0.26667,-3.43333 1.13333,-5.76667 4.2,-7l1.3,1.4l58.95,-6.95c0.53333,0.43333 1.05,0.9 1.55,1.4c1.46667,1.33333 2.21667,3.01667 2.25,5.05M503.63784,386.25631c-1.56667,3.3 -3.83333,6.05 -6.8,8.25c-6.4,4.86667 -13.65,6.33333 -21.75,4.4c-7.36667,-1.8 -12.38333,-6.28333 -15.05,-13.45c-3.26667,-8.86667 -3.41667,-17.9 -0.45,-27.1c1.66667,-5.2 4.8,-9.13333 9.4,-11.8c8.2,-4.63333 16.51667,-4.7 24.95,-0.2c6.33333,3.4 10.48333,8.55 12.45,15.45c2.4,8.53333 1.48333,16.68333 -2.75,24.45M489.63784,368.95631c-0.1,-0.46667 -0.26667,-0.88333 -0.5,-1.25c-2.1,-3.7 -5.41667,-5.51667 -9.95,-5.45c-2.46667,-0.3 -3.85,0.9 -4.15,3.6c-0.3,2.66667 0.21667,5.21667 1.55,7.65c1.63333,3.03333 4.05,3.91667 7.25,2.65c3.16667,-1.3 5.1,-3.7 5.8,-7.2M582.33784,397.00631l-20.2,6.2c-2.46667,-2.4 -4.61667,-5.03333 -6.45,-7.9c-5.56667,-8.93333 -11.01667,-17.9 -16.35,-26.9l-6,0.95c1.73333,6.4 3.08333,12.8 4.05,19.2c0.5,3.16667 0.9,6.36667 1.2,9.6c0.03333,0.53333 -0.06667,1.05 -0.3,1.55c-0.46667,1.1 -1.4,1.7 -2.8,1.8c-6.06667,1 -12.11667,1.3 -18.15,0.9c-2.66667,-5.06667 -4.11667,-10.41667 -4.35,-16.05c-0.23333,-5.46667 -0.8,-10.9 -1.7,-16.3c-1.63333,-9.8 -3.21667,-19.65 -4.75,-29.55c-0.3,-0.1 -0.58333,-0.18333 -0.85,-0.25c-0.9,-0.5 -1.81667,-0.86667 -2.75,-1.1c-6.93333,-1.83333 -13.98333,-2.75 -21.15,-2.75c-2.16667,-2.46667 -3.25,-5.38333 -3.25,-8.75c0,-1.3 -0.11667,-2.6 -0.35,-3.9c-0.76667,-4.03333 -0.65,-7.88333 0.35,-11.55c0.5,-1.73333 1.4,-2.5 2.7,-2.3l0.9,0.5c4.96667,-0.73333 9.91667,-1.13333 14.85,-1.2c0.93333,0 1.86667,0.01667 2.8,0.05c10.96667,0.26667 21.91667,0.93333 32.85,2c7.5,0.9 14.4,3.4 20.7,7.5c8.73333,5.7 13.15,13.7 13.25,24c0,1.06667 -0.2,2.15 -0.6,3.25c-1.76667,5 -4.98333,8.86667 -9.65,11.6c1.9,2 3.78333,4.03333 5.65,6.1c5.86667,6.5 11.33333,13.38333 16.4,20.65c1.36667,2 2.76667,4.03333 4.2,6.1c1.66667,2.36667 1.58333,4.55 -0.25,6.55M539.88784,342.85631c0.86667,-0.43333 1.53333,-1.05 2,-1.85c1.4,-2.4 0.81667,-4.35 -1.75,-5.85c-4.53333,-2.73333 -9.13333,-3.1 -13.8,-1.1l3.85,11c0.63333,0 1.28333,0 1.95,0c2.7,-0.03333 5.28333,-0.76667 7.75,-2.2M630.78784,321.05631l-22.4,39.45c3.6,11.93333 6.63333,23.91667 9.1,35.95c0.2,1.03333 -0.03333,1.96667 -0.7,2.8c-0.63333,0.83333 -1.46667,1.35 -2.5,1.55c-6.2,0.73333 -12.38333,0.8 -18.55,0.2c-0.93333,-0.03333 -1.65,-0.38333 -2.15,-1.05c-1.13333,-1.4 -1.83333,-3.06667 -2.1,-5c-1.86667,-13.33333 -3.6,-26.65 -5.2,-39.95c-6.5,-7.96667 -12.6,-16.25 -18.3,-24.85c-1.3,-2 -2.68333,-3.86667 -4.15,-5.6c-1.9,-2.26667 -3.03333,-4.7 -3.4,-7.3l2,0.8c0.56667,-2.1 1.81667,-3.76667 3.75,-5c1.83333,-1.16667 3.63333,-2.33333 5.4,-3.5c2.43333,-1.53333 4.71667,-1.48333 6.85,0.15c1.53333,1.23333 2.85,2.75 3.95,4.55c5.2,8.56667 10.58333,17.05 16.15,25.45c1.93333,-5.36667 4,-10.58333 6.2,-15.65c1.53333,-3.53333 2.76667,-7.13333 3.7,-10.8c0.53333,-2.16667 1.46667,-4.08333 2.8,-5.75c0.36667,-0.43333 0.8,-0.65 1.3,-0.65c2.76667,0 5.21667,1.01667 7.35,3.05c1.23333,1.1 2.61667,2.03333 4.15,2.8c3.73333,1.83333 5.98333,4.61667 6.75,8.35M744.98784,397.60631c-2.23333,2.03333 -4.88333,2.88333 -7.95,2.55c-5.76667,-0.7 -11.51667,-0.91667 -17.25,-0.65c-1.66667,-0.5 -2.75,-1.6 -3.25,-3.3c-2.46667,-8.43333 -4.23333,-17.05 -5.3,-25.85l-11.45,25.7l-16.55,-25.55c0.13333,1.73333 0.31667,3.35 0.55,4.85c0.86667,6 1.63333,11.95 2.3,17.85c0.2,1.93333 -0.01667,3.76667 -0.65,5.5c-0.23333,0.7 -0.68333,1.13333 -1.35,1.3c-3.93333,0.5 -7.86667,1.03333 -11.8,1.6c-3.56667,0.36667 -7.1,0.3 -10.6,-0.2l-1.6,-2.55c-0.66667,0.06667 -1.11667,-0.16667 -1.35,-0.7c-2.33333,-5.1 -3.68333,-10.53333 -4.05,-16.3c-0.56667,-8.43333 -0.95,-16.9 -1.15,-25.4c-0.2,-7.5 0.11667,-14.98333 0.95,-22.45c0.73333,-6.46667 1.86667,-12.8 3.4,-19c0.33333,-1.33333 1.03333,-2.35 2.1,-3.05c2.3,-1.56667 4.88333,-2.13333 7.75,-1.7c2.36667,0.33333 4.61667,0.06667 6.75,-0.8c4.13333,-1.7 8.2,-2.06667 12.2,-1.1c0.83333,0.16667 1.4,0.66667 1.7,1.5c1.4,3.83333 2.36667,7.88333 2.9,12.15c0.96667,7.9 3.26667,15.26667 6.9,22.1c0.8,-1.9 1.41667,-3.85 1.85,-5.85c2.36667,-10.56667 6.1,-20.46667 11.2,-29.7l27.15,-1.4c0.83333,1.53333 1.35,3.18333 1.55,4.95c0.8,6.4 1.08333,12.85 0.85,19.35c-0.3,9.06667 0.01667,18.16667 0.95,27.3c0.33333,3.13333 0.88333,6.26667 1.65,9.4c2.16667,9.06667 4.08333,18.13333 5.75,27.2l-0.1,1.75l-4.05,0.5M798.88784,343.00631c5,8.16667 5.71667,16.76667 2.15,25.8c-1.46667,3.73333 -3.83333,6.66667 -7.1,8.8c-4.13333,2.76667 -8.7,4.43333 -13.7,5c-7.43333,1.06667 -14.6,0.18333 -21.5,-2.65c-4.26667,-1.76667 -7.4,-4.75 -9.4,-8.95c-2.1,-4.36667 -2.95,-8.98333 -2.55,-13.85c0.46667,-5.53333 2.21667,-10.55 5.25,-15.05c5.5,-8 13.18333,-11.96667 23.05,-11.9c5.43333,0.1 10.48333,1.51667 15.15,4.25c3.6,2.16667 6.48333,5.01667 8.65,8.55M767.08784,351.95631c-1.36667,2.43333 -1.7,4.98333 -1,7.65c0.53333,2.06667 1.86667,3.35 4,3.85c3,-0.3 5.9,-0.9 8.7,-1.8c2.1,-0.7 3.73333,-2.06667 4.9,-4.1c-0.06667,-0.5 -0.18333,-0.96667 -0.35,-1.4c-1.36667,-4.1 -4.26667,-6.58333 -8.7,-7.45c-3.4,-0.7 -5.91667,0.38333 -7.55,3.25M852.28784,319.80631c7.16667,4.86667 12.26667,11.41667 15.3,19.65c3.16667,8.53333 4.66667,17.36667 4.5,26.5c-0.13333,8.4 -2.46667,16.1 -7,23.1c-2.1,3.26667 -5,5.26667 -8.7,6c-0.76667,0.23333 -1.5,0.51667 -2.2,0.85c-3.93333,1.6 -8.01667,2.66667 -12.25,3.2c-2.26667,0.53333 -4.53333,0.98333 -6.8,1.35c-8.36667,1.1 -16.75,1.73333 -25.15,1.9c-6.23333,0.5 -12.36667,0.26667 -18.4,-0.7c-0.86667,-0.23333 -1.61667,-0.65 -2.25,-1.25c-3.73333,-3.6 -5.15,-8.16667 -4.25,-13.7c0.23333,-0.33333 0.5,-0.6 0.8,-0.8c2.63333,-1.73333 5.55,-2.93333 8.75,-3.6c4.13333,-1.03333 8.2,-2.25 12.2,-3.65c1.46667,-0.53333 2.38333,-1.55 2.75,-3.05c0.36667,-1.46667 0.68333,-2.93333 0.95,-4.4c2.46667,-14.46667 0.25,-28.08333 -6.65,-40.85c-3.93333,-0.1 -7.83333,-0.38333 -11.7,-0.85c-1.8,-0.26667 -3.56667,-0.56667 -5.3,-0.9c-3.16667,0.06667 -6.06667,-0.45 -8.7,-1.55c-0.16667,-0.83333 -0.26667,-1.66667 -0.3,-2.5c-0.16667,-5.36667 -1.3,-10.4 -3.4,-15.1l2.85,-1.3l1,-1.85l0.85,1.4c7.73333,-0.6 15.43333,-0.81667 23.1,-0.65c8.7,0.2 17.28333,1.08333 25.75,2.65c8.86667,1.7 16.95,5.06667 24.25,10.1M828.23784,343.20631l2.6,26.8c2.86667,0.66667 5.73333,0.68333 8.6,0.05c1.93333,-0.46667 3.53333,-1.46667 4.8,-3c3.4,-4.13333 3.88333,-8.61667 1.45,-13.45c-3.6,-7.13333 -9.41667,-10.6 -17.45,-10.4M924.03784,338.90631c-8.63333,-0.26667 -17.21667,-0.3 -25.75,-0.1c-1.33333,0.03333 -2.2,0.3 -2.6,0.8l2.2,6.05c6.1,-1.2 12.11667,-1.58333 18.05,-1.15c0.9,1.36667 1.55,2.8 1.95,4.3c0.6,2.26667 1.2,4.43333 1.8,6.5c0.8,2.7 0.33333,5 -1.4,6.9l-19.35,1.3c-0.03333,1.8 0.11667,3.55 0.45,5.25c0.3,1.5 1.16667,2.55 2.6,3.15h29.95c1.46667,1.73333 2.55,3.68333 3.25,5.85c0.96667,2.96667 1.63333,6.06667 2,9.3c0.4,3.53333 -0.4,6.6 -2.4,9.2l-55.7,1.2c-1,-2.13333 -1.83333,-4.33333 -2.5,-6.6c-0.76667,-2.46667 -1.18333,-5.03333 -1.25,-7.7c-0.3,-14.86667 -0.33333,-29.76667 -0.1,-44.7c0.03333,-2.5 -0.21667,-4.96667 -0.75,-7.4c-1.13333,-5.4 -1.63333,-10.75 -1.5,-16.05c0.23333,-0.16667 0.5,-0.26667 0.8,-0.3c7.66667,-1.6 15.5,-2.43333 23.5,-2.5c8.7,-0.66667 17.38333,-0.98333 26.05,-0.95c0.23333,0.26667 0.41667,0.58333 0.55,0.95c3.36667,8.93333 3.41667,17.83333 0.15,26.7z" fill="#000000"/></g></g></svg>