<svg version="1.1" xmlns="http://www.w3.org/2000/svg" xmlns:xlink="http://www.w3.org/1999/xlink" width="42.50217" height="63.97469" viewBox="0,0,42.50217,63.97469"><g transform="translate(-610.10811,-337.87534)"><g data-paper-data="{&quot;isPaintingLayer&quot;:true}" fill-rule="nonzero" stroke="none" stroke-width="1" stroke-linecap="butt" stroke-linejoin="miter" stroke-miterlimit="10" stroke-dasharray="" stroke-dashoffset="0" style="mix-blend-mode: normal"><path d="M651.55811,356.23784l-12.15,2.5l-0.4,21.55c0.93333,-0.1 1.86667,-0.18333 2.8,-0.25c2.5,-0.03333 4.76667,0.55 6.8,1.75c0.8,1.23333 1.23333,2.56667 1.3,4c0.03333,0.66667 0.06667,1.38333 0.1,2.15c0.03333,0.53333 0.11667,1.05 0.25,1.55c0.26667,0.83333 0.38333,1.66667 0.35,2.5c-0.03333,0.56667 -0.01667,1.26667 0.05,2.1c0,0.26667 0.01667,0.55 0.05,0.85c0.1,0.46667 0.16667,1 0.2,1.6c0.03333,0.66667 -0.1,1.26667 -0.4,1.8c-0.53333,0.9 -1.31667,1.46667 -2.35,1.7c-4.46667,0.73333 -9,1.23333 -13.6,1.5c-7.46667,0.53333 -14.8,0.38333 -22,-0.45c-0.93333,-1.1 -1.45,-2.45 -1.55,-4.05c-0.06667,-0.8 -0.2,-1.6 -0.4,-2.4c-0.13333,-0.63333 -0.18333,-1.25 -0.15,-1.85c0,-0.3 -0.05,-0.56667 -0.15,-0.8c-0.13333,-0.23333 -0.2,-0.51667 -0.2,-0.85c0,-1.86667 0,-3.81667 0,-5.85c0,-0.6 0.15,-1.08333 0.45,-1.45c0.53333,-0.63333 1.23333,-1.01667 2.1,-1.15c3.6,-0.53333 6.9,-1.06667 9.9,-1.6l-0.75,-22.5c-0.2,0 -0.4,0 -0.6,0c-1.83333,0.43333 -3.61667,0.66667 -5.35,0.7c-0.86667,-0.16667 -1.7,-0.35 -2.5,-0.55c-0.4,-0.1 -0.75,-0.26667 -1.05,-0.5c-0.63333,-0.6 -0.93333,-1.38333 -0.9,-2.35c0.03333,-1.43333 -0.01667,-2.86667 -0.15,-4.3c-0.16667,-2.16667 -0.06667,-4.48333 0.3,-6.95c-0.16667,-0.2 -0.31667,-0.38333 -0.45,-0.55c-0.3,-0.4 -0.41667,-0.83333 -0.35,-1.3c0,-0.1 0,-0.2 0,-0.3c0,-0.1 0,-0.18333 0,-0.25c0.03333,-0.1 0.06667,-0.18333 0.1,-0.25c0.03333,-0.1 0.06667,-0.2 0.1,-0.3c0.03333,-0.16667 0.08333,-0.33333 0.15,-0.5c0.33333,-0.3 0.7,-0.55 1.1,-0.75c1.46667,-0.5 2.95,-0.95 4.45,-1.35c3.6,-0.66667 7.25,-1.03333 10.95,-1.1c3.73333,-0.1 7.48333,-0.13333 11.25,-0.1c3.03333,0.16667 6.06667,0.33333 9.1,0.5c1.03333,0.13333 1.96667,0.51667 2.8,1.15c1.06667,0.8 1.61667,1.81667 1.65,3.05c0.1,2.7 0.16667,5.41667 0.2,8.15c0.03333,1.83333 -0.31667,3.66667 -1.05,5.5M646.20811,351.08784v-6.95c-9.46667,-0.23333 -18.98333,0.06667 -28.55,0.9c-0.73333,0.16667 -1.45,0.33333 -2.15,0.5l0.95,7.4l0.45,0.2c1.36667,-0.33333 2.73333,-0.66667 4.1,-1c1.96667,-0.43333 3.8,-0.16667 5.5,0.8c0.96667,0.56667 1.48333,1.31667 1.55,2.25c0.06667,0.96667 0.13333,1.81667 0.2,2.55c0.03333,0.63333 0.06667,1.26667 0.1,1.9c0.06667,2.86667 0.15,5.73333 0.25,8.6c0.03333,0.7 0.06667,1.4 0.1,2.1c0.16667,3.3 0.26667,6.6 0.3,9.9c0,0.86667 -0.05,1.73333 -0.15,2.6c-0.16667,1.43333 -0.56667,2.75 -1.2,3.95c-0.36667,0.76667 -1.01667,1.11667 -1.95,1.05c-2.4,-0.2 -4.76667,-0.15 -7.1,0.15c-0.8,0.2 -1.6,0.41667 -2.4,0.65l0.8,7c6.23333,-0.03333 12.51667,-0.23333 18.85,-0.6c2.9,-0.03333 5.75,-0.4 8.55,-1.1l-0.65,-7.35l-9.15,-0.25c-0.3,-0.36667 -0.56667,-0.73333 -0.8,-1.1c-0.23333,-0.33333 -0.36667,-0.68333 -0.4,-1.05c-0.73333,-6.36667 -0.78333,-12.7 -0.15,-19c0.06667,-0.73333 0.08333,-1.45 0.05,-2.15c-0.13333,-2.43333 -0.03333,-4.85 0.3,-7.25c0.2,-1.3 0.86667,-2.2 2,-2.7c0.76667,-0.26667 1.56667,-0.48333 2.4,-0.65c2.73333,-0.46667 5.46667,-0.91667 8.2,-1.35z" fill="#000000"/><path d="M633.60811,355.78784c-0.33333,2.4 -0.43333,4.81667 -0.3,7.25c0.03333,0.7 0.01667,1.41667 -0.05,2.15c-0.63333,6.3 -0.58333,12.63333 0.15,19c0.03333,0.36667 0.16667,0.71667 0.4,1.05c0.23333,0.36667 0.5,0.73333 0.8,1.1l9.15,0.25l0.65,7.35c-2.8,0.7 -5.65,1.06667 -8.55,1.1c-6.33333,0.36667 -12.61667,0.56667 -18.85,0.6l-0.8,-7c0.8,-0.23333 1.6,-0.45 2.4,-0.65c2.33333,-0.3 4.7,-0.35 7.1,-0.15c0.93333,0.06667 1.58333,-0.28333 1.95,-1.05c0.63333,-1.2 1.03333,-2.51667 1.2,-3.95c0.1,-0.86667 0.15,-1.73333 0.15,-2.6c-0.03333,-3.3 -0.13333,-6.6 -0.3,-9.9c-0.03333,-0.7 -0.06667,-1.4 -0.1,-2.1c-0.1,-2.86667 -0.18333,-5.73333 -0.25,-8.6c-0.03333,-0.63333 -0.06667,-1.26667 -0.1,-1.9c-0.06667,-0.73333 -0.13333,-1.58333 -0.2,-2.55c-0.06667,-0.93333 -0.58333,-1.68333 -1.55,-2.25c-1.7,-0.96667 -3.53333,-1.23333 -5.5,-0.8c-1.36667,0.33333 -2.73333,0.66667 -4.1,1l-0.45,-0.2l-0.95,-7.4c0.7,-0.16667 1.41667,-0.33333 2.15,-0.5c9.56667,-0.83333 19.08333,-1.13333 28.55,-0.9v6.95c-2.73333,0.43333 -5.46667,0.88333 -8.2,1.35c-0.83333,0.16667 -1.63333,0.38333 -2.4,0.65c-1.13333,0.5 -1.8,1.4 -2,2.7z" fill="#ffffff"/></g></g></svg>