<svg version="1.1" xmlns="http://www.w3.org/2000/svg" xmlns:xlink="http://www.w3.org/1999/xlink" width="564.96008" height="451.52495" viewBox="0,0,564.96008,451.52495"><g transform="translate(-369.80844,-267.52505)"><g data-paper-data="{&quot;isPaintingLayer&quot;:true}" fill-rule="nonzero" stroke="none" stroke-width="1" stroke-linecap="butt" stroke-linejoin="miter" stroke-miterlimit="10" stroke-dasharray="" stroke-dashoffset="0" style="mix-blend-mode: normal"><path d="M560.73014,414.14095c4.48678,4.76026 7.4675,9.64707 8.94216,14.66042c0.943,3.3038 1.99127,6.56999 3.14483,9.79857c3.64327,10.50691 6.5676,21.01743 8.77299,31.53156c0.04814,0.04612 0.1078,0.0802 0.179,0.10225c5.68656,1.33985 11.40036,3.95214 17.14141,7.83687c0.47561,2.39441 0.69202,4.79437 0.64923,7.19988c-0.15098,10.56458 -2.21061,21.17004 -6.17889,31.81636c-1.86779,1.94952 -3.70005,3.35608 -5.49679,4.21965c-10.50071,5.03403 -21.00366,8.31182 -31.50886,9.83336c-0.63889,-1.21219 -1.45628,-2.50307 -2.45215,-3.87264c-7.45655,-10.23667 -14.78526,-20.55858 -21.98614,-30.96574c1.26825,-1.32375 2.41666,-2.73923 3.44524,-4.24645c2.35288,-3.51582 4.98652,-7.13196 7.90089,-10.8484c-1.25043,-7.75279 -3.07893,-15.52857 -5.48549,-23.32733c-3.21711,-10.42174 -7.25945,-20.84939 -12.12703,-31.28293c0.06918,-0.0722 0.10326,-0.13187 0.10225,-0.179c0.58481,-5.71754 4.31511,-11.51422 11.1909,-17.39003c0.04814,0.04612 0.09577,0.06867 0.1429,0.06766c5.78137,-1.93903 11.56195,-2.26319 17.34175,-0.97248c1.96855,1.65521 4.06248,3.66135 6.2818,6.01842z" fill-opacity="0.99608" fill="#000000"/><path d="M459.58946,508.44081c-13.61852,-6.72182 -23.39268,-14.63053 -29.3225,-23.72611c-4.42357,-6.80457 -7.33901,-14.10168 -8.74633,-21.89132c-1.42526,-7.63838 0.16907,-16.16561 4.783,-25.58169c2.67549,-5.45143 6.1517,-9.72313 10.4286,-12.81512c8.46199,-6.1562 18.86258,-9.09485 31.20176,-8.81595c6.10604,0.14651 12.65736,0.92399 19.65396,2.33242c6.98595,1.43596 14.57361,3.83232 22.76298,7.18906c6.54504,3.10054 12.7398,6.63513 18.58428,10.60377c5.46381,3.69488 10.03931,7.69484 13.7265,11.9999c7.38838,8.6788 10.60935,18.59356 9.6629,29.74429c-0.37529,4.2211 -1.764,8.65146 -4.16613,13.29106c-4.17697,7.97145 -9.59263,14.00848 -16.24697,18.11109c-8.83475,5.44254 -19.1049,8.46327 -30.81044,9.0622c-5.9975,0.30677 -12.37278,-0.24443 -19.12583,-1.6536c-7.5822,-1.57162 -15.04413,-4.18829 -22.38579,-7.85z" fill-opacity="0.99608" fill="#000000"/><path d="M468.05,628.25l16.25,-0.05c0.66667,1.23333 1.38333,2.68333 2.15,4.35c0.33333,0.73333 0.98333,2.21667 1.95,4.45c0.23333,0.53333 0.05,0.78333 -0.55,0.75l-6.6,-0.4c-0.03333,0 -0.13333,-0.01667 -0.3,-0.05c-0.13333,-0.03333 -0.23333,-0.05 -0.3,-0.05c-1.5,0.03333 -3.21667,0 -5.15,-0.1c-0.96667,-0.06667 -2.68333,-0.21667 -5.15,-0.45c-0.5,-0.03333 -0.9,0.06667 -1.2,0.3c-0.26667,0.2 -0.48333,0.55 -0.65,1.05c-0.53333,1.46667 -1.23333,3.11667 -2.1,4.95c-0.3,0.66667 -1.1,2.26667 -2.4,4.8c-2.8,5.63333 -5.23333,10.85 -7.3,15.65c-0.4,0.93333 -0.5,1.85 -0.3,2.75c0.16667,0.76667 0.55,1.56667 1.15,2.4c1.46667,2.03333 3.38333,4.2 5.75,6.5c1.36667,1.33333 3.48333,3.28333 6.35,5.85c1.4,1.3 3.18333,2.41667 5.35,3.35c0.53333,0.23333 2.5,0.96667 5.9,2.2c2.53333,0.9 6.73333,2.48333 12.6,4.75c1.36667,0.53333 3.31667,1.31667 5.85,2.35c2.73333,1.1 4.7,1.9 5.9,2.4c0.36667,0.13333 1.73333,0.68333 4.1,1.65c1.63333,0.7 3,1.23333 4.1,1.6c0.33333,0.1 0.61667,0.33333 0.85,0.7c-0.16667,0 -0.31667,0 -0.45,0c-1.03333,-0.1 -1.83333,-0.16667 -2.4,-0.2c-1.1,-0.1 -2.03333,-0.21667 -2.8,-0.35c-0.63333,-0.1 -1.53333,-0.16667 -2.7,-0.2c-1.23333,-0.03333 -2.13333,-0.08333 -2.7,-0.15c-1.03333,-0.16667 -2.3,-0.28333 -3.8,-0.35c-1.66667,-0.06667 -2.91667,-0.13333 -3.75,-0.2c-0.13333,0 -0.21667,0 -0.25,0c-1.4,-0.76667 -3.16667,-1.21667 -5.3,-1.35c-2.43333,-0.03333 -4.25,-0.1 -5.45,-0.2c-0.43333,-0.03333 -1.78333,-0.06667 -4.05,-0.1c-1.63333,-0.03333 -2.96667,-0.16667 -4,-0.4c-1.96667,-0.46667 -3.5,-0.91667 -4.6,-1.35c-3.36667,-1.26667 -6.55,-3.21667 -9.55,-5.85c-2.36667,-2.1 -4.88333,-4.86667 -7.55,-8.3c-2.43333,-3.2 -5.43333,-7.23333 -9,-12.1c-0.7,-0.9 -1.1,-1.8 -1.2,-2.7c-0.1,-0.83333 0.05,-1.76667 0.45,-2.8c2.33333,-5.86667 5.21667,-11.76667 8.65,-17.7c2.36667,-4.03333 3.71667,-6.35 4.05,-6.95c1.5,-2.63333 2.78333,-4.98333 3.85,-7.05c0.66667,-1.26667 1.55,-2.16667 2.65,-2.7c0.96667,-0.43333 2.18333,-0.66667 3.65,-0.7M523.95,626.7c1.23333,0.36667 2.33333,0.61667 3.3,0.75c0.76667,0.13333 1.9,0.3 3.4,0.5c1.3,0.2 2.43333,0.3 3.4,0.3c1.06667,0 3.1,0 6.1,0c2.56667,0 4.61667,0 6.15,0c0.26667,0 0.96667,-0.01667 2.1,-0.05c0.9,-0.03333 1.63333,-0.03333 2.2,0c-0.43333,0.26667 -1.08333,0.66667 -1.95,1.2c-0.76667,0.46667 -1.43333,0.81667 -2,1.05c-2.23333,0.96667 -4.16667,1.71667 -5.8,2.25c-2.13333,0.7 -4.15,1.15 -6.05,1.35c-0.86667,0.1 -2.71667,0.38333 -5.55,0.85c-2.3,0.36667 -4.16667,0.58333 -5.6,0.65c-0.66667,0.03333 -1.83333,0.06667 -3.5,0.1c-1.46667,0 -2.63333,0.03333 -3.5,0.1c-1.43333,0.13333 -2.86667,-0.03333 -4.3,-0.5c-1.23333,-0.4 -2.53333,-1.01667 -3.9,-1.85c-4.4,-2.7 -8.3,-6.05 -11.7,-10.05c-0.23333,-0.23333 -0.55,-0.51667 -0.95,-0.85c-0.46667,-0.33333 -0.81667,-0.6 -1.05,-0.8c0.06667,-0.03333 0.13333,-0.06667 0.2,-0.1c0.33333,-0.16667 0.65,-0.45 0.95,-0.85c0.4,-0.53333 0.71667,-0.93333 0.95,-1.2c0.56667,-0.7 1.5,-1.66667 2.8,-2.9c1.2,-1.1 2.08333,-1.98333 2.65,-2.65c0.06667,-0.1 0.13333,-0.18333 0.2,-0.25c0.66667,0.46667 1.43333,1.16667 2.3,2.1c1.06667,1.16667 1.78333,1.91667 2.15,2.25c4.03333,3.5 8.6,6.05 13.7,7.65c1.93333,0.56667 3.03333,0.88333 3.3,0.95M762.75,719l-25.8,0.05c-2.96667,-0.06667 -6.43333,-0.35 -10.4,-0.85c-3.63333,-0.43333 -7.18333,-0.95 -10.65,-1.55c-5.06667,-0.9 -10.61667,-2.28333 -16.65,-4.15c-5.93333,-1.8 -11.13333,-4.11667 -15.6,-6.95c-2,-1.23333 -3.43333,-2.68333 -4.3,-4.35c-0.36667,-0.66667 -0.41667,-1.36667 -0.15,-2.1c3.03333,-8.53333 6.21667,-15.9 9.55,-22.1c0.06667,-0.1 0.13333,-0.2 0.2,-0.3c0.03333,-0.03333 0.08333,-0.06667 0.15,-0.1c0.03333,-0.1 0.06667,-0.16667 0.1,-0.2c0.03333,0.03333 0.06667,0.08333 0.1,0.15c0.16667,0.26667 0.43333,0.53333 0.8,0.8c0.23333,0.16667 0.6,0.4 1.1,0.7c3,1.96667 6,3.9 9,5.8c0.4,0.26667 0.63333,0.53333 0.7,0.8c0.06667,0.3 -0.06667,0.66667 -0.4,1.1c-0.93333,1.3 -4.08333,5.66667 -9.45,13.1c-0.3,0.43333 -0.33333,0.78333 -0.1,1.05c0.13333,0.13333 0.41667,0.28333 0.85,0.45c1.16667,0.43333 2.66667,1 4.5,1.7c2.36667,0.96667 3.85,1.55 4.45,1.75c3.13333,1.2 7.16667,2.58333 12.1,4.15c4.9,1.53333 9.76667,2.88333 14.6,4.05c1.43333,0.33333 3.56667,0.86667 6.4,1.6c2.56667,0.66667 4.73333,1.15 6.5,1.45c0.26667,0.06667 2.46667,0.5 6.6,1.3c2.66667,0.53333 4.88333,0.93333 6.65,1.2c1,0.13333 2.48333,0.35 4.45,0.65c1.73333,0.26667 3.2,0.46667 4.4,0.6c0.03333,0 0.08333,0.03333 0.15,0.1c0.03333,0 0.08333,0.03333 0.15,0.1M762.2,666.7c-4.2,1.13333 -7.55,2 -10.05,2.6c-3.7,0.93333 -7.06667,1.66667 -10.1,2.2c-2.23333,0.43333 -3.9,0.75 -5,0.95c-2,0.4 -3.66667,0.7 -5,0.9c-2.46667,0.36667 -5.7,0.81667 -9.7,1.35c-1.36667,0.2 -3.06667,0.3 -5.1,0.3c-2.26667,0 -3.96667,0 -5.1,0c-4.56667,0.06667 -8.86667,-0.8 -12.9,-2.6c-0.6,-0.26667 -1.2,-0.41667 -1.8,-0.45c0.03333,-0.03333 0.08333,-0.05 0.15,-0.05c0.06667,-0.1 0.16667,-0.18333 0.3,-0.25c0.4,-0.2 0.85,-0.38333 1.35,-0.55c0.2,-0.06667 0.85,-0.26667 1.95,-0.6c2.66667,-0.76667 5.1,-1.53333 7.3,-2.3c0.13333,-0.06667 0.28333,-0.15 0.45,-0.25l0.5,-0.35c-0.6,-0.2 -1.21667,-0.5 -1.85,-0.9c-0.2,-0.13333 -0.6,-0.4 -1.2,-0.8c-0.13333,-0.13333 -0.28333,-0.25 -0.45,-0.35c0.86667,0.06667 2.18333,0.18333 3.95,0.35c1.56667,0.13333 2.88333,0.28333 3.95,0.45c2.46667,0.36667 4.96667,0.56667 7.5,0.6c5.7,0.1 13.15,0.1 22.35,0c1.23333,0 2.85,-0.08333 4.85,-0.25c2.53333,-0.23333 4.13333,-0.36667 4.8,-0.4c0.96667,-0.06667 2.6,-0.2 4.9,-0.4c2.1,-0.23333 3.73333,-0.36667 4.9,-0.4c0.73333,-0.03333 1.65,-0.16667 2.75,-0.4c1.63333,-0.36667 2.55,-0.56667 2.75,-0.6c0.66667,-0.1 1.18333,-0.16667 1.55,-0.2c0.56667,-0.03333 1.08333,-0.01667 1.55,0.05c-1.4,0.23333 -3.01667,0.58333 -4.85,1.05c-2.1,0.56667 -3.66667,1 -4.7,1.3M696,641.4c-0.9,-0.33333 -1.5,-0.58333 -1.8,-0.75c-0.4,-0.13333 -0.68333,-0.23333 -0.85,-0.3c-0.3,-0.16667 -0.48333,-0.33333 -0.55,-0.5c10.8,-0.13333 19.95,-0.76667 27.45,-1.9c9.83333,-1.43333 18.73333,-3.9 26.7,-7.4c-0.56667,0.86667 -1.38333,1.76667 -2.45,2.7c-1.2,1 -2.1,1.75 -2.7,2.25c-1.46667,1.3 -3.25,2.58333 -5.35,3.85c-1,0.6 -2.91667,1.68333 -5.75,3.25c-2.2,1.2 -4.05,2.1 -5.55,2.7c-2.13333,0.86667 -4.15,1.4 -6.05,1.6c-2.46667,0.26667 -5.15,0.23333 -8.05,-0.1c-2.1,-0.23333 -4.36667,-0.81667 -6.8,-1.75c-1.06667,-0.4 -3.2,-1.35 -6.4,-2.85c-0.43333,-0.23333 -1.05,-0.5 -1.85,-0.8M574.1,578.75c-3.26667,3.23333 -6.75,5.58333 -10.45,7.05c-3.96667,1.53333 -8,1.71667 -12.1,0.55c-1.03333,-0.26667 -3.05,-0.85 -6.05,-1.75c2.46667,-0.16667 5,-0.65 7.6,-1.45c1.96667,-0.6 4.3,-1.48333 7,-2.65c3.53333,-1.56667 6.66667,-3.05 9.4,-4.45c3.26667,-1.7 6.25,-3.45 8.95,-5.25c1.56667,-1 2.75,-1.76667 3.55,-2.3c0.1,0.16667 0.11667,0.33333 0.05,0.5c0,0.03333 -0.08333,0.13333 -0.25,0.3c-0.8,1.1 -2.01667,2.71667 -3.65,4.85c-1.46667,1.83333 -2.81667,3.36667 -4.05,4.6M760.8,572.35c-0.23333,2.63333 -0.86667,4.9 -1.9,6.8c-0.86667,1.7 -2.08333,3.33333 -3.65,4.9c-1.16667,1.16667 -2.73333,2.5 -4.7,4c-0.26667,0.23333 -0.48333,0.25 -0.65,0.05c-0.1,-0.1 -0.15,-0.23333 -0.15,-0.4c0,-0.06667 0.03333,-0.2 0.1,-0.4c1.16667,-3.63333 1.93333,-6 2.3,-7.1c0.8,-2.63333 1.38333,-5.05 1.75,-7.25c0.46667,-2.6 0.66667,-5.06667 0.6,-7.4c-0.03333,-0.76667 -0.15,-1.71667 -0.35,-2.85c-0.33333,-1.8 -0.51667,-2.73333 -0.55,-2.8c-0.13333,-1 -0.43333,-2.25 -0.9,-3.75c-0.63333,-2.1 -1.01667,-3.38333 -1.15,-3.85c1.93333,1.33333 3.55,2.76667 4.85,4.3c1.4,1.63333 2.5,3.43333 3.3,5.4c0.63333,1.56667 1.03333,3.26667 1.2,5.1c0.13333,1.53333 0.1,3.28333 -0.1,5.25z" fill="#2c2d41"/><path d="M757,492.6c-0.1,3.13333 -1.05,8.73333 -2.85,16.8c-1.83333,8.06667 -3.4,13.93333 -4.7,17.6c-1.3,3.63333 -2.03333,5.88333 -2.2,6.75c-0.16667,0.86667 -0.01667,1.96667 0.45,3.3c0.7,2.06667 1.88333,3.98333 3.55,5.75c0.83333,0.9 1.56667,1.56667 2.2,2c0.36667,-0.36667 1.58333,-1.25 3.65,-2.65c2.03333,-1.4 4.5,-3.01667 7.4,-4.85c2.86667,-1.86667 5.3,-2.9 7.3,-3.1c1.96667,-0.26667 3.7,0.01667 5.2,0.85c1.5,0.83333 2.81667,1.61667 3.95,2.35c1.13333,0.7 3,1.88333 5.6,3.55c3.9,2.5 9.13333,5.38333 15.7,8.65c6.8,3.36667 12.38333,5.8 16.75,7.3c3.83333,1.33333 6.66667,2.98333 8.5,4.95c0.63333,0.66667 1.5,2.06667 2.6,4.2c0.73333,1.4 1.73333,3.73333 3,7c2.03333,4.06667 4.43333,9.65 7.2,16.75c2.13333,5.43333 3.7,9.86667 4.7,13.3c0.96667,3.4 1.8,6.31667 2.5,8.75c0.66667,2.43333 2.43333,8.86667 5.3,19.3c0.66667,2.43333 1.46667,5.61667 2.4,9.55c0.9,3.9 1.43333,6.51667 1.6,7.85c0.16667,1.33333 0.53333,3.35 1.1,6.05l4.45,4c2.8,2.53333 4.3,4.58333 4.5,6.15c0.06667,0.46667 -0.16667,1.3 -0.7,2.5c-0.3,0.66667 -3.51667,5.13333 -9.65,13.4l-7.2,9.2c-2.06667,2.6 -3.1,4.11667 -3.1,4.55c-0.03333,0.43333 -0.41667,1.01667 -1.15,1.75l-10.85,6.45c-8.8,4.63333 -19.91667,8.48333 -33.35,11.55c-13.46667,3.03333 -23.55,4.65 -30.25,4.85h-7.85c-0.06667,-0.06667 -0.11667,-0.1 -0.15,-0.1c-0.06667,-0.06667 -0.11667,-0.1 -0.15,-0.1c-1.2,-0.13333 -2.66667,-0.33333 -4.4,-0.6c-1.96667,-0.3 -3.45,-0.51667 -4.45,-0.65c-1.76667,-0.26667 -3.98333,-0.66667 -6.65,-1.2c-4.13333,-0.8 -6.33333,-1.23333 -6.6,-1.3c-1.76667,-0.3 -3.93333,-0.78333 -6.5,-1.45c-2.83333,-0.73333 -4.96667,-1.26667 -6.4,-1.6c-4.83333,-1.16667 -9.7,-2.51667 -14.6,-4.05c-4.93333,-1.56667 -8.96667,-2.95 -12.1,-4.15c-0.6,-0.2 -2.08333,-0.78333 -4.45,-1.75c-1.83333,-0.7 -3.33333,-1.26667 -4.5,-1.7c-0.43333,-0.16667 -0.71667,-0.31667 -0.85,-0.45c-0.23333,-0.26667 -0.2,-0.61667 0.1,-1.05c5.36667,-7.43333 8.51667,-11.8 9.45,-13.1c0.33333,-0.43333 0.46667,-0.8 0.4,-1.1c-0.06667,-0.26667 -0.3,-0.53333 -0.7,-0.8c-3,-1.9 -6,-3.83333 -9,-5.8c-0.5,-0.3 -0.86667,-0.53333 -1.1,-0.7c-0.36667,-0.26667 -0.63333,-0.53333 -0.8,-0.8c1.96667,-2.4 4.68333,-3.93333 8.15,-4.6c0.6,0.03333 1.2,0.18333 1.8,0.45c4.03333,1.8 8.33333,2.66667 12.9,2.6c1.13333,0 2.83333,0 5.1,0c2.03333,0 3.73333,-0.1 5.1,-0.3c4,-0.53333 7.23333,-0.98333 9.7,-1.35c1.33333,-0.2 3,-0.5 5,-0.9c1.1,-0.2 2.76667,-0.51667 5,-0.95c3.03333,-0.53333 6.4,-1.26667 10.1,-2.2c2.5,-0.6 5.85,-1.46667 10.05,-2.6c1.03333,-0.3 2.6,-0.73333 4.7,-1.3c1.83333,-0.46667 3.45,-0.81667 4.85,-1.05c-0.46667,-0.06667 -0.98333,-0.08333 -1.55,-0.05c-0.36667,0.03333 -0.88333,0.1 -1.55,0.2c-0.2,0.03333 -1.11667,0.23333 -2.75,0.6c-1.1,0.23333 -2.01667,0.36667 -2.75,0.4c-1.16667,0.03333 -2.8,0.16667 -4.9,0.4c-2.3,0.2 -3.93333,0.33333 -4.9,0.4c-0.66667,0.03333 -2.26667,0.16667 -4.8,0.4c-2,0.16667 -3.61667,0.25 -4.85,0.25c-9.2,0.1 -16.65,0.1 -22.35,0c-2.53333,-0.03333 -5.03333,-0.23333 -7.5,-0.6c-1.06667,-0.16667 -2.38333,-0.31667 -3.95,-0.45c-1.76667,-0.16667 -3.08333,-0.28333 -3.95,-0.35l-18.3,-15.1c-1.3,-1 -3.18333,-2.8 -5.65,-5.4c-1.86667,-1.96667 -3.53333,-3.76667 -5,-5.4l-8,0.7c-2.33333,0.2 -4.01667,-0.13333 -5.05,-1c-0.8,-0.93333 -1.51667,-2.68333 -2.15,-5.25c-0.66667,-2.6 -1.55,-7.51667 -2.65,-14.75l-0.6,-3.35c-0.13333,0.56667 -0.26667,1.05 -0.4,1.45c-0.56667,1.86667 -4.63333,9 -12.2,21.4c-7.6,12.4 -13.81667,21.3 -18.65,26.7c-6.36667,1.8 -11.95,3.36667 -16.75,4.7c-9.13333,2.53333 -15.71667,4.2 -19.75,5c-4.06667,0.8 -8.08333,2.01667 -12.05,3.65l-4.7,2.2c-6,4.1 -12.33333,7.98333 -19,11.65c-6.66667,3.66667 -12.45,6.03333 -17.35,7.1c-4.9,1.06667 -10.2,1.38333 -15.9,0.95l-7.5,-0.85c-0.23333,-0.36667 -0.51667,-0.6 -0.85,-0.7c-1.1,-0.36667 -2.46667,-0.9 -4.1,-1.6c-2.36667,-0.96667 -3.73333,-1.51667 -4.1,-1.65c-1.2,-0.5 -3.16667,-1.3 -5.9,-2.4c-2.53333,-1.03333 -4.48333,-1.81667 -5.85,-2.35c-5.86667,-2.26667 -10.06667,-3.85 -12.6,-4.75c-3.4,-1.23333 -5.36667,-1.96667 -5.9,-2.2c-2.16667,-0.93333 -3.95,-2.05 -5.35,-3.35c-2.86667,-2.56667 -4.98333,-4.51667 -6.35,-5.85c-2.36667,-2.3 -4.28333,-4.46667 -5.75,-6.5c-0.6,-0.83333 -0.98333,-1.63333 -1.15,-2.4c-0.2,-0.9 -0.1,-1.81667 0.3,-2.75c2.06667,-4.8 4.5,-10.01667 7.3,-15.65c1.3,-2.53333 2.1,-4.13333 2.4,-4.8c0.86667,-1.83333 1.56667,-3.48333 2.1,-4.95c0.16667,-0.5 0.38333,-0.85 0.65,-1.05c0.3,-0.23333 0.7,-0.33333 1.2,-0.3c2.46667,0.23333 4.18333,0.38333 5.15,0.45c1.93333,0.1 3.65,0.13333 5.15,0.1c0.06667,0 0.16667,0.01667 0.3,0.05c0.16667,0.03333 0.26667,0.05 0.3,0.05l6.6,0.4c0.6,0.03333 0.78333,-0.21667 0.55,-0.75c-0.96667,-2.23333 -1.61667,-3.71667 -1.95,-4.45c-0.76667,-1.66667 -1.48333,-3.11667 -2.15,-4.35c1.3,-0.46667 2.7,-1.08333 4.2,-1.85c3.03333,-1.56667 5.11667,-3.11667 6.25,-4.65c0.23333,0.2 0.58333,0.46667 1.05,0.8c0.4,0.33333 0.71667,0.61667 0.95,0.85c3.4,4 7.3,7.35 11.7,10.05c1.36667,0.83333 2.66667,1.45 3.9,1.85c1.43333,0.46667 2.86667,0.63333 4.3,0.5c0.86667,-0.06667 2.03333,-0.1 3.5,-0.1c1.66667,-0.03333 2.83333,-0.06667 3.5,-0.1c1.43333,-0.06667 3.3,-0.28333 5.6,-0.65c2.83333,-0.46667 4.68333,-0.75 5.55,-0.85c1.9,-0.2 3.91667,-0.65 6.05,-1.35c1.63333,-0.53333 3.56667,-1.28333 5.8,-2.25c0.56667,-0.23333 1.23333,-0.58333 2,-1.05c0.86667,-0.53333 1.51667,-0.93333 1.95,-1.2c-0.56667,-0.03333 -1.3,-0.03333 -2.2,0c-1.13333,0.03333 -1.83333,0.05 -2.1,0.05c-1.53333,0 -3.58333,0 -6.15,0c-3,0 -5.03333,0 -6.1,0c-0.96667,0 -2.1,-0.1 -3.4,-0.3c-1.5,-0.2 -2.63333,-0.36667 -3.4,-0.5c-0.96667,-0.13333 -2.06667,-0.38333 -3.3,-0.75c-0.26667,-0.06667 -1.36667,-0.38333 -3.3,-0.95c-5.1,-1.6 -9.66667,-4.15 -13.7,-7.65c-0.36667,-0.33333 -1.08333,-1.08333 -2.15,-2.25c-0.86667,-0.93333 -1.63333,-1.63333 -2.3,-2.1c-2.86667,-3 -6.05,-6.46667 -9.55,-10.4c-6.96667,-7.83333 -11.96667,-14.01667 -15,-18.55c-2.4,0.03333 -4.4,0.03333 -6,0l-1.7,-0.1c-5.43333,-6.83333 -10.98333,-13.9 -16.65,-21.2c-11.33333,-14.63333 -17.55,-23.13333 -18.65,-25.5c-0.93333,-1.76667 -1.6,-3.03333 -2,-3.8c-0.66667,-1.26667 -0.98333,-2.28333 -0.95,-3.05c0.13333,-2 1.66667,-3.6 4.6,-4.8c2.77318,-1.14753 11.10651,-3.29753 25,-6.45c2.63802,-0.19844 4.58802,0.61823 5.85,2.45c1.29831,1.83281 3.63164,3.63281 7,5.4c7.00247,3.56406 14.60247,4.98073 22.8,4.25c8.19245,-0.69219 13.10911,0.10781 14.75,2.4c4.88841,8.11589 8.00508,13.23255 9.35,15.35c2.8,-2.2 10.93333,-7.38333 24.4,-15.55c6.76667,-4.06667 13.23333,-7.93333 19.4,-11.6c-1.76667,-41.8 3.46667,-72.33333 15.7,-91.6c12.2,-19.26667 28.15,-31.73333 47.85,-37.4c19.66667,-5.66667 36.8,-6.96667 51.4,-3.9c14.56667,3.03333 26.1,8.11667 34.6,15.25c8.5,7.1 16.7,16.43333 24.6,28c7.86667,11.5 13.6,29.26667 17.2,53.3c0.06667,0.56667 0.15,1.15 0.25,1.75c0.23333,1.7 0.31667,3.23333 0.25,4.6M759.7,562c-0.8,-1.96667 -1.9,-3.76667 -3.3,-5.4c-1.3,-1.53333 -2.91667,-2.96667 -4.85,-4.3c0.13333,0.46667 0.51667,1.75 1.15,3.85c0.46667,1.5 0.76667,2.75 0.9,3.75c0.03333,0.06667 0.21667,1 0.55,2.8c0.2,1.13333 0.31667,2.08333 0.35,2.85c0.06667,2.33333 -0.13333,4.8 -0.6,7.4c-0.36667,2.2 -0.95,4.61667 -1.75,7.25c-0.36667,1.1 -1.13333,3.46667 -2.3,7.1c-0.06667,0.2 -0.1,0.33333 -0.1,0.4c0,0.16667 0.05,0.3 0.15,0.4c0.16667,0.2 0.38333,0.18333 0.65,-0.05c1.96667,-1.5 3.53333,-2.83333 4.7,-4c1.56667,-1.56667 2.78333,-3.2 3.65,-4.9c1.03333,-1.9 1.66667,-4.16667 1.9,-6.8c0.2,-1.96667 0.23333,-3.71667 0.1,-5.25c-0.16667,-1.83333 -0.56667,-3.53333 -1.2,-5.1M688.1,462.45c-11.9,6.43333 -29.86667,8.75 -53.9,6.95c-7.53333,-0.56667 -15.18333,-1.45 -22.95,-2.65c-3.76667,-1.13333 -6.86667,-2.83333 -9.3,-5.1c-3.13333,-2.83333 -4.96667,-16.53333 -5.5,-41.1c-14.4,17.4 -22.33333,38.81667 -23.8,64.25c-1.36667,23.46667 10.8,38.21667 36.5,44.25c6.1,1.56667 18.93333,3.13333 38.5,4.7c20.26667,1.6 35.06667,1.6 44.4,0c4.63333,-0.76667 8.85,-1.65 12.65,-2.65c10.8,-3.56667 18.66667,-6.96667 23.6,-10.2c4.93333,-3.23333 7.98333,-5.45 9.15,-6.65c1.13333,-1.2 1.75,-1.85 1.85,-1.95c0.1,-0.1 0.2,-0.21667 0.3,-0.35c2.23333,-2.46667 4.03333,-5 5.4,-7.6l1.05,-1.85c2.26667,-4.1 3.58333,-7.4 3.95,-9.9c0.4,-2.9 0.36667,-4.93333 -0.1,-6.1c-5.26667,-25.8 -14.45,-46.31667 -27.55,-61.55c-7.8,-9.1 -18.16667,-15.98333 -31.1,-20.65c2.1,6.9 3.55,17.53333 4.35,31.9c0.76667,14.36667 -1.73333,23.11667 -7.5,26.25M620.6,544.8c-3.56667,2.56667 -8.16667,5.86667 -13.8,9.9c-5.66667,4.03333 -9.01667,6.55 -10.05,7.55c0.23333,0 3.43333,-0.16667 9.6,-0.5c6.36667,-0.33333 10.2,-0.46667 11.5,-0.4c0.46667,0.6 1.58333,1.7 3.35,3.3c1.83333,1.63333 3,2.75 3.5,3.35c0.43333,0.5 3.06667,3.13333 7.9,7.9c5.1,5.03333 8.48333,8.46667 10.15,10.3c3,3.33333 7.56667,9.35 13.7,18.05c0.16667,-0.73333 0.5,-1.58333 1,-2.55l0.7,-1.2c0.56667,-0.33333 2.6,-0.41667 6.1,-0.25c3.46667,0.16667 5.25,-0.08333 5.35,-0.75c0.06667,-0.66667 0.18333,-1.21667 0.35,-1.65c0.33333,-0.93333 1.1,-2.4 2.3,-4.4c1.83333,-3.03333 5.01667,-6.83333 9.55,-11.4l-11.8,-27.45c-17.43333,-1.56667 -30.18333,-3.48333 -38.25,-5.75c-4.26667,-1.23333 -7.98333,-2.58333 -11.15,-4.05M578.15,574.15c1.63333,-2.13333 2.85,-3.75 3.65,-4.85c0.16667,-0.16667 0.25,-0.26667 0.25,-0.3c0.06667,-0.16667 0.05,-0.33333 -0.05,-0.5c-0.8,0.53333 -1.98333,1.3 -3.55,2.3c-2.7,1.8 -5.68333,3.55 -8.95,5.25c-2.73333,1.4 -5.86667,2.88333 -9.4,4.45c-2.7,1.16667 -5.03333,2.05 -7,2.65c-2.6,0.8 -5.13333,1.28333 -7.6,1.45c3,0.9 5.01667,1.48333 6.05,1.75c4.1,1.16667 8.13333,0.98333 12.1,-0.55c3.7,-1.46667 7.18333,-3.81667 10.45,-7.05c1.23333,-1.23333 2.58333,-2.76667 4.05,-4.6M526.45,603.65c-7.16667,-2.66667 -14.93333,-5.78333 -23.3,-9.35c-4.63333,-2 -8.45,-3.66667 -11.45,-5c-4.13333,-1.83333 -7.9,-3.58333 -11.3,-5.25c1.33333,1.9 2.61667,3.48333 3.85,4.75c4.13333,4.2 8.41667,7.71667 12.85,10.55c2.5,1.6 4.58333,2.85 6.25,3.75c2.33333,1.23333 4.55,2.2 6.65,2.9c2.96667,0.96667 5.8,1.26667 8.5,0.9c2.76667,-0.36667 5.41667,-1.45 7.95,-3.25M704.25,645.05c2.43333,0.93333 4.7,1.51667 6.8,1.75c2.9,0.33333 5.58333,0.36667 8.05,0.1c1.9,-0.2 3.91667,-0.73333 6.05,-1.6c1.5,-0.6 3.35,-1.5 5.55,-2.7c2.83333,-1.56667 4.75,-2.65 5.75,-3.25c2.1,-1.26667 3.88333,-2.55 5.35,-3.85c0.6,-0.5 1.5,-1.25 2.7,-2.25c1.06667,-0.93333 1.88333,-1.83333 2.45,-2.7c-7.96667,3.5 -16.86667,5.96667 -26.7,7.4c-7.5,1.13333 -16.65,1.76667 -27.45,1.9c0.06667,0.16667 0.25,0.33333 0.55,0.5c0.16667,0.06667 0.45,0.16667 0.85,0.3c0.3,0.16667 0.9,0.41667 1.8,0.75c0.8,0.3 1.41667,0.56667 1.85,0.8c3.2,1.5 5.33333,2.45 6.4,2.85z" fill="#000000"/><path d="M510,606c-2.1,-0.7 -4.31667,-1.66667 -6.65,-2.9c-1.66667,-0.9 -3.75,-2.15 -6.25,-3.75c-4.43333,-2.83333 -8.71667,-6.35 -12.85,-10.55c-1.23333,-1.26667 -2.51667,-2.85 -3.85,-4.75c3.4,1.66667 7.16667,3.41667 11.3,5.25c3,1.33333 6.81667,3 11.45,5c8.36667,3.56667 16.13333,6.68333 23.3,9.35c-2.53333,1.8 -5.18333,2.88333 -7.95,3.25c-2.7,0.36667 -5.53333,0.06667 -8.5,-0.9z" fill="#2c2d40"/><path d="M691.25,404.3c12.93333,4.66667 23.3,11.55 31.1,20.65c13.1,15.23333 22.28333,35.75 27.55,61.55c0.46667,1.16667 0.5,3.2 0.1,6.1c-0.36667,2.5 -1.68333,5.8 -3.95,9.9l-1.05,1.85c-1.36667,2.6 -3.16667,5.13333 -5.4,7.6c-0.1,0.13333 -0.2,0.25 -0.3,0.35c-0.1,0.1 -0.71667,0.75 -1.85,1.95c-1.16667,1.2 -4.21667,3.41667 -9.15,6.65c-4.93333,3.23333 -12.8,6.63333 -23.6,10.2c-3.8,1 -8.01667,1.88333 -12.65,2.65c-9.33333,1.6 -24.13333,1.6 -44.4,0c-19.56667,-1.56667 -32.4,-3.13333 -38.5,-4.7c-25.7,-6.03333 -37.86667,-20.78333 -36.5,-44.25c1.46667,-25.43333 9.4,-46.85 23.8,-64.25c0.53333,24.56667 2.36667,38.26667 5.5,41.1c2.43333,2.26667 5.53333,3.96667 9.3,5.1c7.76667,1.2 15.41667,2.08333 22.95,2.65c24.03333,1.8 42,-0.51667 53.9,-6.95c5.76667,-3.13333 8.26667,-11.88333 7.5,-26.25c-0.8,-14.36667 -2.25,-25 -4.35,-31.9z" fill="#ffffff"/><path d="M804.3,371.55c0.03333,1.16667 0.2,4.21667 0.5,9.15c0,0.16667 0.03333,0.35 0.1,0.55c0.03333,0.13333 0.08333,0.31667 0.15,0.55c0.03333,0.76667 -0.21667,1.5 -0.75,2.2c-0.73333,0.76667 -1.26667,1.33333 -1.6,1.7c-1.2,1.3 -2.05,2.36667 -2.55,3.2c-0.13333,0.23333 -0.26667,0.36667 -0.4,0.4c-0.13333,0.03333 -0.28333,-0.06667 -0.45,-0.3c-0.2,-1.83333 -0.4,-4.03333 -0.6,-6.6c-0.2,-2.9 -0.36667,-5.08333 -0.5,-6.55l-0.1,-2.75c-0.06667,-1.1 -0.16667,-2 -0.3,-2.7c-0.16667,-0.76667 -0.13333,-1.23333 0.1,-1.4c0.16667,-0.16667 0.63333,-0.15 1.4,0.05c1.5,0.36667 2.85,0.76667 4.05,1.2c0.36667,0.1 0.61667,0.25 0.75,0.45c0.13333,0.2 0.2,0.48333 0.2,0.85M786.85,380.85c0.2,-0.16667 0.86667,-0.08333 2,0.25c1.33333,0.36667 2.4,0.65 3.2,0.85c1.16667,0.26667 2.25,0.45 3.25,0.55c0.16667,0 0.28333,0.05 0.35,0.15c0.03333,0.06667 0.06667,0.2 0.1,0.4c0.03333,0.43333 0.11667,1.38333 0.25,2.85c0.13333,1.16667 0.21667,2.11667 0.25,2.85c0.03333,0.3 0.05,0.75 0.05,1.35c0.03333,0.56667 0.1,1.01667 0.2,1.35c0.1,0.33333 0.08333,0.65 -0.05,0.95c-0.06667,0.26667 -0.23333,0.55 -0.5,0.85c-0.2,0.23333 -1.4,1.58333 -3.6,4.05c-1.46667,1.6 -2.58333,3.01667 -3.35,4.25c-0.1,0 -0.25,-0.01667 -0.45,-0.05c-0.3,-0.9 -0.53333,-1.98333 -0.7,-3.25c-0.13333,-1.43333 -0.23333,-2.51667 -0.3,-3.25c-0.16667,-1.5 -0.35,-3.35 -0.55,-5.55c-0.2,-2.46667 -0.35,-4.31667 -0.45,-5.55c0,-0.46667 -0.01667,-0.8 -0.05,-1c0,-1.2 0.11667,-1.88333 0.35,-2.05z" fill="#fefefe"/><path d="M832.5,357.35c-0.06667,1.9 -0.28333,4.26667 -0.65,7.1c-0.06667,0.33333 -0.18333,0.9 -0.35,1.7c-0.16667,0.73333 -0.26667,1.3 -0.3,1.7c-0.06667,0.63333 -0.3,1.2 -0.7,1.7c-0.33333,0.36667 -0.83333,0.78333 -1.5,1.25c-1.93333,1.26667 -3.9,2.8 -5.9,4.6c-1.6,1.46667 -3.36667,3.21667 -5.3,5.25c-0.73333,0.76667 -1.68333,1.83333 -2.85,3.2c-1.4,1.6 -2.35,2.66667 -2.85,3.2c-0.16667,0.16667 -0.25,0.38333 -0.25,0.65c-0.06667,0.4 -0.1,0.61667 -0.1,0.65c-0.06667,-0.2 -0.15,-0.35 -0.25,-0.45c-0.1,-0.1 -0.21667,-0.13333 -0.35,-0.1c-0.1,0.03333 -0.28333,0.18333 -0.55,0.45c-1.03333,1 -1.78333,1.75 -2.25,2.25c-0.86667,0.86667 -1.6,1.63333 -2.2,2.3c-2.43333,2.83333 -4.73333,5.78333 -6.9,8.85l-4.05,5.7l-0.15,0.2c-0.6,-0.33333 -1.3,-0.88333 -2.1,-1.65c-0.96667,-0.93333 -1.61667,-1.53333 -1.95,-1.8c-0.66667,-0.43333 -1.15,-0.78333 -1.45,-1.05c-0.53333,-0.46667 -0.86667,-0.98333 -1,-1.55c0.2,0.03333 0.35,0.05 0.45,0.05c0.3,0.2 0.55,0.2 0.75,0c0.1,-0.1 0.23333,-0.28333 0.4,-0.55c1,-1.26667 2.55,-3.1 4.65,-5.5c0.46667,-0.53333 1.15,-1.35 2.05,-2.45c0.8,-1 1.51667,-1.8 2.15,-2.4c0.2,-0.2 0.3,-0.46667 0.3,-0.8c0,-0.53333 0,-0.81667 0,-0.85c0.16667,0.23333 0.31667,0.33333 0.45,0.3c0.13333,-0.03333 0.26667,-0.16667 0.4,-0.4c0.5,-0.83333 1.35,-1.9 2.55,-3.2c0.33333,-0.36667 0.86667,-0.93333 1.6,-1.7c0.53333,-0.7 0.78333,-1.43333 0.75,-2.2c0.1,0.06667 0.16667,0.2 0.2,0.4c0.06667,0.23333 0.13333,0.4 0.2,0.5c0.2,-0.16667 1.25,-1.2 3.15,-3.1c1.26667,-1.23333 2.33333,-2.23333 3.2,-3c1.96667,-1.76667 3.45,-3.05 4.45,-3.85c1.66667,-1.4 3.23333,-2.6 4.7,-3.6c0.56667,-0.36667 1.08333,-0.88333 1.55,-1.55c0.36667,-0.46667 0.76667,-1.1 1.2,-1.9c1.8,-3.46667 3.2,-6.28333 4.2,-8.45c1.46667,-3.13333 2.66667,-6.05 3.6,-8.75c0,-0.03333 0.08333,-0.16667 0.25,-0.4c0.16667,0.26667 0.25,0.63333 0.25,1.1c0.03333,0.63333 0.05,0.98333 0.05,1.05c0.4,2.16667 0.55,4.53333 0.45,7.1M891.8,394.55c-0.9,1.03333 -1.98333,2.11667 -3.25,3.25c-0.83333,0.73333 -2.01667,1.7 -3.55,2.9c-3,2.36667 -6.05,4.21667 -9.15,5.55c-0.16667,0.06667 -0.68333,0.25 -1.55,0.55c-0.63333,0.23333 -1.15,0.46667 -1.55,0.7c12.93333,-12.53333 23.53333,-25.78333 31.8,-39.75c-0.76667,3.73333 -1.98333,7.58333 -3.65,11.55c-2.56667,6.03333 -5.6,11.11667 -9.1,15.25z" fill="#2d2d41"/><path d="M899.35,463.7c-4.13333,3.16667 -8.6,5 -13.4,5.5c-2.1,0.2 -3.75,0.26667 -4.95,0.2c-1.83333,-0.16667 -3.45,-0.65 -4.85,-1.45c-0.6,-0.36667 -1.25,-0.88333 -1.95,-1.55c-0.33333,-0.33333 -0.65,-0.51667 -0.95,-0.55c-0.33333,0 -0.68333,0.15 -1.05,0.45c-0.7,0.6 -1.58333,1.31667 -2.65,2.15c-1.7,1.26667 -2.6,1.95 -2.7,2.05c-2.56667,2 -4.5,3.5 -5.8,4.5c-2.23333,1.7 -4.23333,3.06667 -6,4.1c-0.66667,0.36667 -1.35,0.55 -2.05,0.55c-0.7,0 -1.38333,-0.15 -2.05,-0.45c-1.63333,-0.76667 -2.73333,-1.28333 -3.3,-1.55c-1.2,-0.63333 -2.25,-1.25 -3.15,-1.85c-1.4,-0.93333 -3.11667,-2.05 -5.15,-3.35c-2.33333,-1.43333 -4.06667,-2.51667 -5.2,-3.25c-0.26667,-0.16667 -0.75,-0.4 -1.45,-0.7c-0.63333,-0.26667 -1.11667,-0.51667 -1.45,-0.75c-2,-1.5 -2.9,-3.35 -2.7,-5.55c0.06667,-0.63333 -0.06667,-1.31667 -0.4,-2.05c-0.4,-0.83333 -0.7,-1.46667 -0.9,-1.9c-0.06667,-0.16667 -0.21667,-0.25 -0.45,-0.25c-0.23333,0.03333 -0.41667,0.05 -0.55,0.05c-2.23333,0 -3.53333,-0.01667 -3.9,-0.05c-1.46667,-0.06667 -2.76667,-0.23333 -3.9,-0.5c-2.03333,-0.46667 -3.75,-1.08333 -5.15,-1.85c-1.7,-0.93333 -3.06667,-2.15 -4.1,-3.65c-0.4,-0.56667 -0.71667,-1.23333 -0.95,-2c-0.16667,-0.63333 -0.3,-1.36667 -0.4,-2.2c-0.3,-2.63333 -0.06667,-5.41667 0.7,-8.35c0.76667,-3.03333 2,-6.26667 3.7,-9.7c0.3,-0.56667 0.66667,-1.36667 1.1,-2.4c0.53333,-1.16667 0.9,-1.96667 1.1,-2.4c0.5,-1.06667 0.71667,-1.9 0.65,-2.5c-0.1,-0.56667 -0.51667,-1.31667 -1.25,-2.25c-1.46667,-1.76667 -2.56667,-3.08333 -3.3,-3.95c-1.3,-1.6 -2.28333,-3.03333 -2.95,-4.3c-1.16667,-2.2 -1.88333,-4.23333 -2.15,-6.1c-0.16667,-1.33333 0.18333,-2.55 1.05,-3.65c0.66667,-0.8 1.6,-1.51667 2.8,-2.15c0.46667,-0.23333 1.08333,-0.46667 1.85,-0.7c0.4,-0.13333 1.03333,-0.31667 1.9,-0.55c0.33333,-0.1 0.51667,-0.16667 0.55,-0.2c0.03333,-0.03333 0.06667,-0.05 0.1,-0.05c0.1,-0.13333 0.13333,-0.3 0.1,-0.5c0.36667,0.76667 0.98333,1.55 1.85,2.35c0.46667,0.46667 1.2,1.13333 2.2,2c1.53333,1.43333 3.4,3.43333 5.6,6c0.26667,0.3 0.35,0.51667 0.25,0.65c-0.1,0.16667 -0.33333,0.23333 -0.7,0.2c-1.2,-0.06667 -2.75,0.06667 -4.65,0.4c-2.43333,0.4 -3.98333,0.63333 -4.65,0.7c0.03333,0.16667 0.1,0.31667 0.2,0.45c0.06667,0.06667 0.16667,0.16667 0.3,0.3l9.95,10.2c0.26667,0.26667 0.6,0.63333 1,1.1c0.2,0.23333 0.51667,0.61667 0.95,1.15c0.3,0.33333 0.43333,0.73333 0.4,1.2c-0.03333,0.26667 -0.15,0.68333 -0.35,1.25c-0.63333,1.7 -1.48333,3.56667 -2.55,5.6c-0.53333,1.03333 -1.53333,2.83333 -3,5.4c-0.8,1.43333 -1.53333,2.65 -2.2,3.65c-0.86667,1.3 -1.71667,2.45 -2.55,3.45c-0.3,0.33333 -0.38333,0.63333 -0.25,0.9c0.06667,0.16667 0.16667,0.26667 0.3,0.3c0.03333,0 0.18333,0 0.45,0h17.6c0.4,0 0.65,-0.08333 0.75,-0.25c0.1,-0.16667 0.06667,-0.43333 -0.1,-0.8c-0.4,-0.96667 -0.7,-2.06667 -0.9,-3.3c-0.16667,-0.9 -0.31667,-2.05 -0.45,-3.45v-0.4c-0.16667,-0.86667 -0.2,-1.35 -0.1,-1.45c0.13333,-0.1 0.6,0 1.4,0.3c3.76667,1.43333 7.03333,3.36667 9.8,5.8c0.33333,0.3 1.78333,1.51667 4.35,3.65l-12.5,4.1c-0.36667,0.13333 -0.6,0.3 -0.7,0.5c-0.13333,0.2 -0.16667,0.5 -0.1,0.9c1.16667,5.66667 3.28333,10.53333 6.35,14.6c1.2,1.53333 2.13333,2.65 2.8,3.35c1.06667,1.16667 2.18333,2.06667 3.35,2.7c1.03333,0.53333 1.83333,0.9 2.4,1.1c0.93333,0.33333 1.81667,0.46667 2.65,0.4c0.96667,-0.03333 1.75,-0.35 2.35,-0.95c1.06667,-1 2.66667,-2.51667 4.8,-4.55c1.9,-1.8 3.5,-3.3 4.8,-4.5c0.73333,-0.63333 2.01667,-1.86667 3.85,-3.7c1.56667,-1.56667 2.86667,-2.76667 3.9,-3.6c0.36667,-0.3 0.65,-0.43333 0.85,-0.4c0.23333,0 0.45,0.21667 0.65,0.65c0.43333,0.96667 1.11667,1.81667 2.05,2.55c0.7,0.53333 1.65,1.06667 2.85,1.6c0.53333,0.23333 1.28333,0.51667 2.25,0.85c1.06667,0.36667 1.83333,0.65 2.3,0.85c0.46667,0.2 1.01667,0.26667 1.65,0.2c0.13333,-0.03333 0.63333,-0.15 1.5,-0.35c4.13333,-1 6.33333,-1.53333 6.6,-1.6c2.5,-0.63333 4.65,-1.31667 6.45,-2.05c2.46667,-1 4.66667,-2.08333 6.6,-3.25c0.26667,-0.16667 0.48333,-0.25 0.65,-0.25c-0.06667,0.13333 -0.13333,0.28333 -0.2,0.45c-2.06667,3.56667 -4.56667,6.46667 -7.5,8.7z" fill="#2c2d41"/><path d="M920.8,376.75c4.36667,7.86667 7.86667,15.18333 10.5,21.95c0.46667,1.23333 0.96667,2.63333 1.5,4.2c0.23333,0.8 0.66667,2.21667 1.3,4.25c0.63333,2.06667 0.81667,4.16667 0.55,6.3c-0.23333,1.9 -0.85,3.91667 -1.85,6.05c-0.53333,1.13333 -1.4,2.7 -2.6,4.7c-1.26667,2.13333 -2.15,3.68333 -2.65,4.65c-0.26667,0.56667 -0.46667,0.98333 -0.6,1.25c-0.2,0.46667 -0.33333,0.9 -0.4,1.3c-0.43333,1.8 -1.28333,3.28333 -2.55,4.45c-1.13333,1.03333 -2.63333,1.85 -4.5,2.45c-1.6,0.5 -2.5,0.76667 -2.7,0.8c-1.03333,0.3 -1.95,0.46667 -2.75,0.5c-0.33333,0 -0.56667,0.1 -0.7,0.3c-0.13333,0.13333 -0.25,0.38333 -0.35,0.75c-1.23333,5.03333 -2.85,9.3 -4.85,12.8c-0.16667,0.33333 -0.3,0.58333 -0.4,0.75c-0.2,0.26667 -0.41667,0.46667 -0.65,0.6c-0.1,0.06667 -0.18333,0.13333 -0.25,0.2c0.06667,-0.16667 0.13333,-0.31667 0.2,-0.45c-0.16667,0 -0.38333,0.08333 -0.65,0.25c-1.93333,1.16667 -4.13333,2.25 -6.6,3.25c-1.8,0.73333 -3.95,1.41667 -6.45,2.05c-0.26667,0.06667 -2.46667,0.6 -6.6,1.6c-0.86667,0.2 -1.36667,0.31667 -1.5,0.35c-0.63333,0.06667 -1.18333,0 -1.65,-0.2c-0.46667,-0.2 -1.23333,-0.48333 -2.3,-0.85c-0.96667,-0.33333 -1.71667,-0.61667 -2.25,-0.85c-1.2,-0.53333 -2.15,-1.06667 -2.85,-1.6c-0.93333,-0.73333 -1.61667,-1.58333 -2.05,-2.55c-0.2,-0.43333 -0.41667,-0.65 -0.65,-0.65c-0.2,-0.03333 -0.48333,0.1 -0.85,0.4c-1.03333,0.83333 -2.33333,2.03333 -3.9,3.6c-1.83333,1.83333 -3.11667,3.06667 -3.85,3.7c-1.3,1.2 -2.9,2.7 -4.8,4.5c-2.13333,2.03333 -3.73333,3.55 -4.8,4.55c-0.6,0.6 -1.38333,0.91667 -2.35,0.95c-0.83333,0.06667 -1.71667,-0.06667 -2.65,-0.4c-0.56667,-0.2 -1.36667,-0.56667 -2.4,-1.1c-1.16667,-0.63333 -2.28333,-1.53333 -3.35,-2.7c-0.66667,-0.7 -1.6,-1.81667 -2.8,-3.35c-3.06667,-4.06667 -5.18333,-8.93333 -6.35,-14.6c-0.06667,-0.4 -0.03333,-0.7 0.1,-0.9c0.1,-0.2 0.33333,-0.36667 0.7,-0.5l12.5,-4.1c-2.56667,-2.13333 -4.01667,-3.35 -4.35,-3.65c-2.76667,-2.43333 -6.03333,-4.36667 -9.8,-5.8c-0.8,-0.3 -1.26667,-0.4 -1.4,-0.3c-0.1,0.1 -0.06667,0.58333 0.1,1.45v0.4c0.13333,1.4 0.28333,2.55 0.45,3.45c0.2,1.23333 0.5,2.33333 0.9,3.3c0.16667,0.36667 0.2,0.63333 0.1,0.8c-0.1,0.16667 -0.35,0.25 -0.75,0.25h-17.6c-0.26667,0 -0.41667,0 -0.45,0c-0.13333,-0.03333 -0.23333,-0.13333 -0.3,-0.3c-0.13333,-0.26667 -0.05,-0.56667 0.25,-0.9c0.83333,-1 1.68333,-2.15 2.55,-3.45c0.66667,-1 1.4,-2.21667 2.2,-3.65c1.46667,-2.56667 2.46667,-4.36667 3,-5.4c1.06667,-2.03333 1.91667,-3.9 2.55,-5.6c0.2,-0.56667 0.31667,-0.98333 0.35,-1.25c0.03333,-0.46667 -0.1,-0.86667 -0.4,-1.2c-0.43333,-0.53333 -0.75,-0.91667 -0.95,-1.15c-0.4,-0.46667 -0.73333,-0.83333 -1,-1.1l-9.95,-10.2c-0.13333,-0.13333 -0.23333,-0.23333 -0.3,-0.3c-0.1,-0.13333 -0.16667,-0.28333 -0.2,-0.45c0.66667,-0.06667 2.21667,-0.3 4.65,-0.7c1.9,-0.33333 3.45,-0.46667 4.65,-0.4c0.36667,0.03333 0.6,-0.03333 0.7,-0.2c0.1,-0.13333 0.01667,-0.35 -0.25,-0.65c-2.2,-2.56667 -4.06667,-4.56667 -5.6,-6c-1,-0.86667 -1.73333,-1.53333 -2.2,-2c-0.86667,-0.8 -1.48333,-1.58333 -1.85,-2.35c0.03333,0.2 0,0.36667 -0.1,0.5c-0.1,-0.2 -0.18333,-0.36667 -0.25,-0.5c-0.76667,-3.06667 -1.43333,-6.26667 -2,-9.6c0,-0.16667 0.01667,-0.35 0.05,-0.55c0.1,0.1 0.18333,0.25 0.25,0.45c0,-0.03333 0.03333,-0.25 0.1,-0.65c0,-0.26667 0.08333,-0.48333 0.25,-0.65c0.5,-0.53333 1.45,-1.6 2.85,-3.2c1.16667,-1.36667 2.11667,-2.43333 2.85,-3.2c1.93333,-2.03333 3.7,-3.78333 5.3,-5.25c2,-1.8 3.96667,-3.33333 5.9,-4.6c0.66667,-0.46667 1.16667,-0.88333 1.5,-1.25c0.4,-0.5 0.63333,-1.06667 0.7,-1.7c0.03333,-0.4 0.13333,-0.96667 0.3,-1.7c0.16667,-0.8 0.28333,-1.36667 0.35,-1.7c0.36667,-2.83333 0.58333,-5.2 0.65,-7.1c0.1,-2.56667 -0.05,-4.93333 -0.45,-7.1c0,-0.06667 -0.01667,-0.41667 -0.05,-1.05c0,-0.46667 -0.08333,-0.83333 -0.25,-1.1c-0.16667,0.23333 -0.25,0.36667 -0.25,0.4c-0.93333,2.7 -2.13333,5.61667 -3.6,8.75c-1,2.16667 -2.4,4.98333 -4.2,8.45c-0.43333,0.8 -0.83333,1.43333 -1.2,1.9c-0.46667,0.66667 -0.98333,1.18333 -1.55,1.55c-1.46667,1 -3.03333,2.2 -4.7,3.6c-1,0.8 -2.48333,2.08333 -4.45,3.85c-0.86667,0.76667 -1.93333,1.76667 -3.2,3c-1.9,1.9 -2.95,2.93333 -3.15,3.1c-0.06667,-0.1 -0.13333,-0.26667 -0.2,-0.5c-0.03333,-0.2 -0.1,-0.33333 -0.2,-0.4c-0.06667,-0.23333 -0.11667,-0.41667 -0.15,-0.55c-0.06667,-0.2 -0.1,-0.38333 -0.1,-0.55c-0.3,-4.93333 -0.46667,-7.98333 -0.5,-9.15c0,-0.36667 -0.06667,-0.65 -0.2,-0.85c-0.13333,-0.2 -0.38333,-0.35 -0.75,-0.45c-1.2,-0.43333 -2.55,-0.83333 -4.05,-1.2c-0.76667,-0.2 -1.23333,-0.21667 -1.4,-0.05c-0.23333,0.16667 -0.26667,0.63333 -0.1,1.4c0.13333,0.7 0.23333,1.6 0.3,2.7l0.1,2.75c0.13333,1.46667 0.3,3.65 0.5,6.55c0.2,2.56667 0.4,4.76667 0.6,6.6c0,0.03333 0,0.31667 0,0.85c0,0.33333 -0.1,0.6 -0.3,0.8c-0.63333,0.6 -1.35,1.4 -2.15,2.4c-0.9,1.1 -1.58333,1.91667 -2.05,2.45c-2.1,2.4 -3.65,4.23333 -4.65,5.5c-0.16667,0.26667 -0.3,0.45 -0.4,0.55c-0.2,0.2 -0.45,0.2 -0.75,0c0.76667,-1.23333 1.88333,-2.65 3.35,-4.25c2.2,-2.46667 3.4,-3.81667 3.6,-4.05c0.26667,-0.3 0.43333,-0.58333 0.5,-0.85c0.13333,-0.3 0.15,-0.61667 0.05,-0.95c-0.1,-0.33333 -0.16667,-0.78333 -0.2,-1.35c0,-0.6 -0.01667,-1.05 -0.05,-1.35c-0.03333,-0.73333 -0.11667,-1.68333 -0.25,-2.85c-0.13333,-1.46667 -0.21667,-2.41667 -0.25,-2.85c-0.03333,-0.2 -0.06667,-0.33333 -0.1,-0.4c-0.06667,-0.1 -0.18333,-0.15 -0.35,-0.15c-1,-0.1 -2.08333,-0.28333 -3.25,-0.55c-0.8,-0.2 -1.86667,-0.48333 -3.2,-0.85c-1.13333,-0.33333 -1.8,-0.41667 -2,-0.25c-0.23333,0.16667 -0.35,0.85 -0.35,2.05c0.03333,0.2 0.05,0.53333 0.05,1c0.1,1.23333 0.25,3.08333 0.45,5.55c0.2,2.2 0.38333,4.05 0.55,5.55c0.06667,0.73333 0.16667,1.81667 0.3,3.25c0.16667,1.26667 0.4,2.35 0.7,3.25c0.13333,0.56667 0.46667,1.08333 1,1.55c0.3,0.26667 0.78333,0.61667 1.45,1.05c0.33333,0.26667 0.98333,0.86667 1.95,1.8c0.8,0.76667 1.5,1.31667 2.1,1.65l0.15,-0.2c0.03333,0 0.06667,0.01667 0.1,0.05c0.36667,0.36667 0.83333,0.76667 1.4,1.2c0.33333,0.26667 0.83333,0.65 1.5,1.15c1.43333,1.13333 2.38333,2.51667 2.85,4.15c0.1,0.36667 0.26667,0.8 0.5,1.3c0.13333,0.26667 0.35,0.66667 0.65,1.2c0.53333,1.1 0.75,2.08333 0.65,2.95c-0.06667,0.96667 -0.53333,1.85 -1.4,2.65c-0.16667,0.16667 -0.28333,0.4 -0.35,0.7c0,0.2 0,0.46667 0,0.8c-0.06667,1.2 -0.03333,2.88333 0.1,5.05c0.13333,2.33333 0.18333,4.01667 0.15,5.05c-0.03333,1.8 -0.46667,3.35 -1.3,4.65c-0.86667,1.36667 -1.93333,2.9 -3.2,4.6c-0.53333,0.7 -1.7,2.16667 -3.5,4.4c-0.63333,0.83333 -2.25,2.98333 -4.85,6.45c-1.96667,2.63333 -3.63333,4.73333 -5,6.3c-4.06667,4.73333 -8.08333,9 -12.05,12.8c-0.8,0.73333 -1.9,1.81667 -3.3,3.25c-1.5,1.5 -2.6,2.58333 -3.3,3.25c-1.7,1.63333 -3.21667,2.86667 -4.55,3.7c-0.43333,0.26667 -0.78333,0.46667 -1.05,0.6c-0.43333,0.16667 -0.85,0.25 -1.25,0.25l-17.95,-32.35l-2.75,-50l3.9,-29.05l19.2,-18.25l6.55,5.65c0.86667,-0.9 1.31667,-1.36667 1.35,-1.4c0.56667,-0.63333 1.38333,-1.63333 2.45,-3c1.6,-1.93333 4.35,-5.2 8.25,-9.8c1.23333,-1.46667 2.65,-3.33333 4.25,-5.6c0.9,-1.26667 2.23333,-3.16667 4,-5.7c1.36667,-1.93333 2.46667,-3.41667 3.3,-4.45c1.26667,-1.6 2.5,-3 3.7,-4.2c1.96667,-1.93333 3.48333,-3.85 4.55,-5.75c0.63333,-1.2 1.06667,-2.25 1.3,-3.15c0.3,-1.16667 0.35,-2.31667 0.15,-3.45c-0.1,-0.46667 -0.18333,-1.16667 -0.25,-2.1c-0.1,-0.96667 -0.18333,-1.66667 -0.25,-2.1c-0.33333,-1.93333 0.28333,-3.7 1.85,-5.3c1.53333,-1.53333 3.3,-3.11667 5.3,-4.75c1.43333,-1.2 3.3,-2.66667 5.6,-4.4c0.33333,-0.26667 0.83333,-0.65 1.5,-1.15c0.56667,-0.46667 0.98333,-0.96667 1.25,-1.5c0.13333,-0.3 0.35,-0.45 0.65,-0.45c0.23333,-0.03333 0.53333,0.01667 0.9,0.15c1.93333,0.66667 5.51667,1.88333 10.75,3.65c3.53333,1.2 6.86667,1.16667 10,-0.1c1.9,-0.8 4,-1.8 6.3,-3c1.1,-0.56667 3.15,-1.66667 6.15,-3.3c1.73333,-0.93333 2.78333,-1.48333 3.15,-1.65c1.2,-0.5 2.36667,-0.7 3.5,-0.6c2.16667,0.16667 3.81667,1 4.95,2.5c1.53333,1.96667 3.48333,3.88333 5.85,5.75c1.63333,1.3 3.3,2.81667 5,4.55c1.4,1.4 2.9,3.06667 4.5,5c2.86667,3.4 5.73333,7.33333 8.6,11.8c2.1,3.23333 4.6,7.41667 7.5,12.55c2.66667,4.66667 4.96667,8.81667 6.9,12.45c1.56667,2.9 2.6,4.86667 3.1,5.9c1.16667,2.23333 2.13333,4.23333 2.9,6c0.5,1.13333 1.23333,2.36667 2.2,3.7c0.56667,0.8 1.41667,1.95 2.55,3.45c1.73333,2.36667 3.5,5.03333 5.3,8c1.36667,2.26667 2.96667,5.05 4.8,8.35M904.55,367.75c-8.26667,13.96667 -18.86667,27.21667 -31.8,39.75c0.4,-0.23333 0.91667,-0.46667 1.55,-0.7c0.86667,-0.3 1.38333,-0.48333 1.55,-0.55c3.1,-1.33333 6.15,-3.18333 9.15,-5.55c1.53333,-1.2 2.71667,-2.16667 3.55,-2.9c1.26667,-1.13333 2.35,-2.21667 3.25,-3.25c3.5,-4.13333 6.53333,-9.21667 9.1,-15.25c1.66667,-3.96667 2.88333,-7.81667 3.65,-11.55M912.5,416.3c0.56667,2.93333 0.83333,5.68333 0.8,8.25c0,0.4 -0.05,1.1 -0.15,2.1c-0.1,0.9 -0.15,1.6 -0.15,2.1c0,0.06667 0,0.18333 0,0.35c0.03333,0.13333 0.1,0.23333 0.2,0.3c0.13333,0.03333 0.25,0.01667 0.35,-0.05c0.06667,-0.06667 0.16667,-0.15 0.3,-0.25c1.2,-1.2 2.08333,-2.1 2.65,-2.7c0.93333,-1.06667 1.7,-2.08333 2.3,-3.05c0.2,-0.3 0.28333,-0.56667 0.25,-0.8c0,-0.23333 -0.13333,-0.5 -0.4,-0.8c-1.43333,-1.5 -3.48333,-3.31667 -6.15,-5.45z" fill="#000000"/><path d="M918.8,423.35c-0.6,0.96667 -1.36667,1.98333 -2.3,3.05c-0.56667,0.6 -1.45,1.5 -2.65,2.7c-0.13333,0.1 -0.23333,0.18333 -0.3,0.25c-0.1,0.06667 -0.21667,0.08333 -0.35,0.05c-0.1,-0.06667 -0.16667,-0.16667 -0.2,-0.3c0,-0.16667 0,-0.28333 0,-0.35c0,-0.5 0.05,-1.2 0.15,-2.1c0.1,-1 0.15,-1.7 0.15,-2.1c0.03333,-2.56667 -0.23333,-5.31667 -0.8,-8.25c2.66667,2.13333 4.71667,3.95 6.15,5.45c0.26667,0.3 0.4,0.56667 0.4,0.8c0.03333,0.23333 -0.05,0.5 -0.25,0.8z" fill="#2c2d40"/><path d="M742.51929,307.83951c5.00864,6.60508 8.94909,13.41645 11.82136,20.43409l3.84279,8.36185c2.71987,6.83176 4.41373,13.11197 5.08159,18.84062l3.44507,117.98321l-29.72431,24.04634c-3.24669,3.06822 -7.48273,7.13882 -12.70811,12.21179l-3.85426,3.69782c-15.06973,8.82812 -26.90442,14.63942 -35.50408,17.43389c-8.63283,2.79776 -16.13378,4.67952 -22.50285,5.64527c-5.83834,0.91319 -12.54208,1.54363 -20.11122,1.89133c-15.11169,0.62577 -27.01737,-0.87477 -35.71707,-4.5016c-5.24201,-1.85904 -12.28693,-5.18083 -21.13478,-9.96535c-8.8843,-4.81441 -15.38424,-9.22854 -19.49982,-13.2424c-1.6599,-1.87886 -2.75654,-3.14358 -3.28992,-3.79417c-11.84676,-7.66962 -19.42575,-12.66355 -22.73697,-14.98179c-3.3178,-2.38458 -6.39963,-5.26147 -9.24552,-8.63067c-2.88234,-3.39909 -6.34044,-8.21497 -10.37431,-14.44765c-0.90747,-1.38395 -1.76026,-2.72306 -2.55837,-4.01735c-2.80158,-4.61294 -6.06119,-10.63759 -9.77883,-18.07395l-4.97048,-10.10919c-1.61592,-2.7876 -2.45117,-5.13333 -2.50575,-7.0372c0.3369,-2.00963 1.0515,-3.58772 2.1438,-4.73427l10.59865,-12.20384c-3.72908,-5.86092 -5.84505,-9.46989 -6.34791,-10.82691c-0.50614,-1.3902 -0.52113,-3.06351 -0.04498,-5.01994c0.60947,-2.63955 2.10109,-5.16549 4.47486,-7.57783c1.0125,-0.93768 3.19545,-3.24737 6.54887,-6.92909c-0.53495,-9.45987 -0.78653,-15.213 -0.75474,-17.2594c0.02787,-1.40959 0.57477,-4.51189 1.64068,-9.30689c0.94606,-4.31419 1.78343,-7.69647 2.51213,-10.14685c0.52904,-1.76069 1.76907,-4.79765 3.7201,-9.11088c1.05023,-2.24775 2.28978,-4.78223 3.71866,-7.60342c1.42888,-2.82119 4.25008,-6.63443 8.4636,-11.4397c4.14718,-4.79871 7.97351,-8.77848 11.47899,-11.93932c3.46903,-3.19073 9.84997,-7.92595 19.14283,-14.20567l12.89154,-6.30117c8.98912,-4.27337 15.68179,-7.21394 20.07801,-8.8217c4.35976,-1.63764 12.00817,-3.38328 22.94524,-5.23689c10.90061,-1.8835 18.29453,-2.81677 22.18174,-2.79981l4.98544,-0.39327c4.16603,-0.21163 8.34849,-0.2574 12.54738,-0.13733c13.43578,0.37761 24.52502,2.42795 33.26774,6.15101c16.03706,6.35023 28.19057,14.07321 36.46052,23.16895c0.99056,1.20824 4.11479,4.85133 9.37268,10.92929M682.44345,434.82701c-9.51858,2.98597 -15.31633,4.81628 -17.39325,5.49092l-0.78131,0.22811c-8.82496,2.54882 -17.54814,4.43439 -26.16952,5.65671c-15.75698,2.56545 -30.89479,2.75836 -45.41342,0.57873c-4.55655,-0.68758 -9.1742,-1.65383 -13.85295,-2.89874c-4.10827,-1.23442 -9.09509,-2.88426 -14.96045,-4.94954c-5.90181,-2.09516 -12.6791,-6.09662 -20.33185,-12.00438c-7.6892,-5.93765 -12.31681,-10.38649 -13.88282,-13.34651c0.00986,0.09951 -1.96883,2.10426 -5.93606,6.01425c-5.09598,5.02666 -7.9494,7.8382 -8.56024,8.43464c-1.43089,1.44806 -2.19673,2.847 -2.29752,4.19682c-0.07026,0.64338 0.01383,1.15424 0.25227,1.53258l3.27084,8.16728l7.65109,16.37541c1.51577,3.46744 3.37163,6.81746 5.56755,10.05005c2.16276,3.23588 3.97458,5.80311 5.43546,7.70167c1.46088,1.89857 3.96944,4.22931 7.52568,6.99222c1.88585,1.45453 4.26056,3.27934 7.12414,5.47443c1.86253,1.55732 6.72901,4.19047 14.59944,7.89944c3.48365,2.36815 9.29877,4.94084 17.44538,7.71806c8.1466,2.77723 14.22296,4.4364 18.22907,4.97752l0.10223,-8.09939c0.39042,-2.48387 1.65875,-3.88233 3.80498,-4.19538c1.48611,-0.21418 3.37635,0.10105 5.67074,0.94569c4.52571,1.72901 12.6427,2.51616 24.35096,2.36145l8.63381,13.61515c13.31209,4.87832 30.51136,2.83994 51.59778,-6.11513c10.54157,-4.49412 19.76188,-9.47706 27.66094,-14.94881l1.4973,-10.24732c0.42391,-2.82215 0.93069,-7.34405 1.52035,-13.5657c0.55649,-6.21837 0.88688,-11.84491 0.99117,-16.87963c0.07112,-5.03143 0.21387,-8.66313 0.42827,-10.8951c0.11393,-1.21714 0.50291,-2.19355 1.16696,-2.92924c-0.54333,-4.13318 -2.3728,-9.07687 -5.48838,-14.83107l-4.55511,-7.43716c-2.88086,2.02711 -6.50329,4.34539 -10.86729,6.95484c-8.50895,5.06322 -16.35845,9.006 -23.54852,11.82835c-0.16585,0.01643 -0.32842,0.06602 -0.4877,0.14879M586.16545,512.84484c-3.38509,-1.37303 -7.1234,-2.76133 -11.21493,-4.16488c-2.37634,-0.82657 -4.26791,-1.49338 -5.67471,-2.00042l12.41511,8.16602c8.28691,5.20853 14.94677,8.86992 19.97958,10.98415c5.03609,2.1474 10.07775,3.67458 15.12498,4.58153c5.01077,0.87707 12.89095,1.30247 23.64055,1.2762c10.74631,-0.05944 21.15069,-1.54208 31.21314,-4.44794c10.06245,-2.90585 19.60265,-7.70275 28.6206,-14.39069c-14.5746,4.35762 -23.89548,6.9723 -27.96264,7.84406c-14.85872,3.1799 -25.38105,3.13342 -31.56699,-0.13946c-1.62144,-0.47584 -2.82972,-1.17682 -3.62486,-2.10294c-1.40143,-1.63649 -3.7028,-5.59555 -6.90412,-11.87719c-4.82881,-0.39265 -8.78204,-0.73803 -11.8597,-1.03615c-5.72081,-0.60577 -9.57585,-1.31258 -11.56513,-2.12044c-1.10333,5.77009 -2.07402,9.83549 -2.91209,12.19622c-0.8299,0.75211 -3.0837,0.8246 -6.76139,0.21745c-3.91317,-0.61732 -7.5623,-1.61249 -10.9474,-2.98553z" fill="#000000"/><path d="M603.87423,515.61292c0.83806,-2.36073 1.80876,-6.42613 2.91209,-12.19622c1.98928,0.80786 5.84432,1.51467 11.56513,2.12044c3.07766,0.29812 7.03089,0.6435 11.8597,1.03615c3.20132,6.28164 5.5027,10.24071 6.90412,11.87719c0.79514,0.92613 2.00343,1.62711 3.62486,2.10294c6.18594,3.27287 16.70826,3.31936 31.56699,0.13946c4.06716,-0.87175 13.38804,-3.48644 27.96264,-7.84406c-9.01795,6.68794 -18.55815,11.48483 -28.6206,14.39069c-10.06245,2.90585 -20.46683,4.3885 -31.21314,4.44794c-10.7496,0.02627 -18.62978,-0.39913 -23.64055,-1.2762c-5.04722,-0.90695 -10.08888,-2.43413 -15.12498,-4.58153c-5.03281,-2.11423 -11.69267,-5.77562 -19.97958,-10.98415l-12.41511,-8.16602c1.4068,0.50704 3.29837,1.17384 5.67471,2.00042c4.09153,1.40356 7.82984,2.79185 11.21493,4.16488c3.38509,1.37303 7.03422,2.36821 10.9474,2.98553c3.67769,0.60714 5.93149,0.53466 6.76139,-0.21745M706.47968,422.84987c4.364,-2.60945 7.98643,-4.92773 10.86729,-6.95484l4.55511,7.43716c3.11559,5.7542 4.94505,10.69789 5.48838,14.83107c-0.66405,0.73569 -1.05304,1.7121 -1.16696,2.92924c-0.21439,2.23197 -0.35715,5.86367 -0.42827,10.8951c-0.10429,5.03472 -0.43468,10.66126 -0.99117,16.87963c-0.58966,6.22165 -1.09645,10.74355 -1.52035,13.5657l-1.4973,10.24732c-7.89905,5.47175 -17.11937,10.45469 -27.66094,14.94881c-21.08643,8.95507 -38.28569,10.99345 -51.59778,6.11513l-8.63381,-13.61515c-11.70826,0.15471 -19.82524,-0.63244 -24.35096,-2.36145c-2.29438,-0.84463 -4.18463,-1.15986 -5.67074,-0.94569c-2.14623,0.31305 -3.41456,1.71151 -3.80498,4.19538l-0.10223,8.09939c-4.00611,-0.54112 -10.08247,-2.20029 -18.22907,-4.97752c-8.1466,-2.77723 -13.96173,-5.34991 -17.44538,-7.71806c-7.87043,-3.70897 -12.73691,-6.34211 -14.59944,-7.89944c-2.86358,-2.19509 -5.23829,-4.0199 -7.12414,-5.47443c-3.55624,-2.76291 -6.0648,-5.09365 -7.52568,-6.99222c-1.46088,-1.89857 -3.2727,-4.46579 -5.43546,-7.70167c-2.19593,-3.2326 -4.05178,-6.58261 -5.56755,-10.05005l-7.65109,-16.37541l-3.27084,-8.16728c-0.23845,-0.37834 -0.32254,-0.88919 -0.25227,-1.53258c0.10079,-1.34982 0.86662,-2.74876 2.29752,-4.19682c0.61085,-0.59643 3.46426,-3.40798 8.56024,-8.43464c3.96723,-3.90999 5.94591,-5.91474 5.93606,-6.01425c1.56601,2.96003 6.19361,7.40886 13.88282,13.34651c7.65275,5.90776 14.43003,9.90922 20.33185,12.00438c5.86536,2.06527 10.85218,3.71512 14.96045,4.94954c4.67874,1.24491 9.29639,2.21115 13.85295,2.89874c14.51864,2.17963 29.65645,1.98673 45.41342,-0.57873c8.62138,-1.22232 17.34456,-3.10789 26.16952,-5.65671l0.78131,-0.22811c2.07692,-0.67464 7.87468,-2.50495 17.39325,-5.49092c0.15928,-0.08277 0.32185,-0.13236 0.4877,-0.14879c7.19007,-2.82235 15.03958,-6.76513 23.54852,-11.82835z" fill="#ffffff"/><path d="M621.5,528c-3.26953,-0.96654 -5.7362,-1.91654 -7.4,-2.85c-1.66042,-0.89753 -2.36042,-1.88086 -2.1,-2.95c0.2957,-1.07018 2.37904,-0.78685 6.25,0.85c3.90273,1.6724 10.25273,2.23906 19.05,1.7c8.80039,-0.50729 14.68372,-0.72396 17.65,-0.65h5.8l-0.05,5.05c-0.19284,3.79661 -0.85951,7.01328 -2,9.65c-1.11706,2.63828 -3.21706,3.37161 -6.3,2.2c-3.04323,-1.16901 -7.69323,-2.61901 -13.95,-4.35c-6.22526,-1.72956 -9.89193,-3.12956 -11,-4.2c-1.3,-1.2 -2.2,-2.01667 -2.7,-2.45c-0.83333,-0.76667 -1.91667,-1.43333 -3.25,-2M653.75,538.5c0.63333,-0.23333 1.31667,-1.6 2.05,-4.1c0.73333,-2.43333 1.01667,-4.13333 0.85,-5.1c-0.13333,-0.8 -1.43333,-1.15 -3.9,-1.05c-2.23333,0.1 -3.73333,0.36667 -4.5,0.8c-0.63333,0.36667 -1.21667,1.6 -1.75,3.7c-0.56667,2.16667 -0.43333,3.43333 0.4,3.8l2.75,1.15c2.2,0.73333 3.56667,1 4.1,0.8z" fill="#000000"/><path d="M646.5,532.75c0.53333,-2.1 1.11667,-3.33333 1.75,-3.7c0.76667,-0.43333 2.26667,-0.7 4.5,-0.8c2.46667,-0.1 3.76667,0.25 3.9,1.05c0.16667,0.96667 -0.11667,2.66667 -0.85,5.1c-0.73333,2.5 -1.41667,3.86667 -2.05,4.1c-0.53333,0.2 -1.9,-0.06667 -4.1,-0.8l-2.75,-1.15c-0.83333,-0.36667 -0.96667,-1.63333 -0.4,-3.8z" fill="#f3769b"/><path d="M458.62656,519.12717c-1.29991,0.95442 -2.60897,1.63566 -3.92716,2.04373c-4.15239,1.32841 -8.32568,2.45723 -12.51989,3.38646c-10.34598,2.30012 -21.1204,1.85228 -32.32326,-1.34353c-0.86667,-0.62168 -1.74687,-1.25307 -2.64062,-1.89418c-0.08125,-0.05828 -0.14896,-0.10685 -0.20312,-0.14571c-1.896,-5.13381 -3.26685,-10.34211 -4.11253,-15.62492c0.01177,-0.07359 0.03708,-0.13747 0.07594,-0.19164c-6.6206,-2.49305 -13.07404,-6.21984 -19.36034,-11.18035c-2.49521,-1.95394 -3.89918,-4.17111 -4.21192,-6.6515c-0.6673,-5.35994 0.97535,-11.05233 4.92794,-17.07718c1.36816,-2.13604 2.90178,-3.70219 4.60086,-4.69843c-1.41492,-3.51712 -2.22903,-7.15703 -2.44233,-10.91971c-0.00766,-0.04651 -0.03857,-0.08919 -0.09273,-0.12805c-5.16115,-3.78424 -9.76976,-7.76692 -13.82584,-11.94803c-1.60088,-1.59956 -2.48261,-3.40109 -2.6452,-5.4046c-0.5602,-6.59573 0.87574,-13.54392 4.30782,-20.84456c1.31926,-2.86844 2.76833,-5.74632 4.34723,-8.63361c3.53103,-6.40928 7.75799,-12.07324 12.68088,-16.99187c3.8785,-3.86296 7.89275,-6.82867 12.04275,-8.89713c3.73494,-1.83294 7.6451,-2.16606 11.73048,-0.99934c0.87901,0.26136 1.41714,0.4833 1.61438,0.6658c-0.03885,0.05417 -0.06417,0.11805 -0.07594,0.19164c-0.0782,2.28199 -0.20291,4.57165 -0.37413,6.86895c-0.08125,-0.05828 -0.13924,-0.12039 -0.17398,-0.18633c-1.17166,-1.16861 -2.4487,-1.9616 -3.8311,-2.37896c-7.15032,0.81868 -13.69142,5.04826 -19.62331,12.68872c-7.08165,9.07177 -11.95021,17.80313 -14.60568,26.1941c-0.26902,0.8325 -0.55718,1.54873 -0.86448,2.14868c-1.64129,3.08865 -1.87932,5.85078 -0.71407,8.28638c1.16113,2.55571 2.88422,5.0428 5.16926,7.46128c2.40103,2.5427 5.12291,4.49516 8.16563,5.85739c0.47268,-1.91699 0.67218,-3.82484 0.5985,-5.72355c-0.11023,-2.99143 0.75569,-5.85691 2.59776,-8.59644c-0.37249,4.12185 -0.55894,8.21307 -0.55934,12.27368c0.01071,2.38679 0.19391,4.73324 0.54962,7.03935c0.32509,2.12007 0.63663,4.23043 0.93463,6.33107c0.84099,5.68963 4.78845,9.93639 11.84238,12.74029c0.05828,-0.08125 0.10685,-0.14896 0.14571,-0.20312c1.98868,-2.42927 3.79458,-4.51794 5.41768,-6.26601c-0.03885,0.05417 -0.08742,0.12188 -0.14571,0.20313c-1.92381,4.85491 -3.05694,9.57967 -3.39938,14.17429c0.05417,0.03885 0.09862,0.09125 0.13336,0.15719c3.04997,5.46934 7.63479,10.68604 13.75447,15.65009c0.05417,0.03885 0.12187,0.08742 0.20313,0.14571c0.65,0.46626 0.86198,1.02851 0.63593,1.68674c-0.08125,-0.05828 -0.14896,-0.10685 -0.20312,-0.14571c-2.9208,-0.33133 -6.00854,-1.45924 -9.26324,-3.38371c-2.03183,-1.17034 -3.75927,-2.4505 -5.18234,-3.84047c-1.96828,-1.94514 -3.81937,-3.39603 -5.55328,-4.35266c-0.08125,-0.05828 -0.13924,-0.12039 -0.17398,-0.18633c-1.34067,-1.90513 -1.57862,-4.00372 -0.71385,-6.29576c-0.08125,-0.05828 -0.1257,-0.11068 -0.13336,-0.15719c-0.12249,-0.74417 -0.32829,-1.48658 -0.6174,-2.22721c-0.08125,-0.05828 -0.14896,-0.10685 -0.20312,-0.14571c-2.8137,-1.56712 -5.29977,-3.24789 -7.45821,-5.0423c-0.08125,-0.05828 -0.14513,-0.0836 -0.19164,-0.07594c-1.50012,0.31858 -2.93899,1.00925 -4.31661,2.072c-0.63106,1.68032 -1.20796,3.39949 -1.73069,5.15752c-1.5523,5.08039 0.31983,9.56127 5.61639,13.44265c1.60557,1.19273 3.23321,2.01161 4.8829,2.45663c4.45335,1.22557 8.58265,3.67488 12.38791,7.34791c0.35036,1.11272 0.57472,2.25812 0.6731,3.4362c0.24919,3.25518 0.56814,6.49888 0.95686,9.73109c0.05417,0.03885 0.12187,0.08742 0.20313,0.14571c0.61526,0.40032 1.22464,0.83744 1.82813,1.31136c11.08448,2.33153 21.76115,2.25804 32.03,-0.22047c3.67493,-0.89153 7.36517,-1.69004 11.07073,-2.39553c0.8614,1.31523 1.57944,2.63016 2.15412,3.94482c0.00766,0.04651 0.05211,0.09891 0.13336,0.15719z" fill-opacity="0.99608" fill="#2b2c3f"/><path d="M539.60161,453.84743c0.05417,0.03885 0.11216,0.10097 0.17398,0.18633c0.64531,0.87309 1.43809,1.62635 2.37835,2.25981c1.71868,2.75056 3.62929,5.43369 5.73184,8.04941c3.71816,4.59502 6.13018,9.38114 7.23608,14.35838c2.19944,10.31478 1.13342,21.17902 -3.19808,32.5927c-1.0732,1.89641 -2.24914,3.82167 -3.52782,5.77579c-4.04207,6.20677 -8.34267,10.91549 -12.90179,14.12614c-9.56451,6.75751 -19.70909,10.0635 -30.43375,9.91797c-10.69757,-0.1261 -21.95991,-3.61069 -33.78701,-10.45377c-4.96745,-3.76836 -9.15392,-7.65332 -12.55943,-11.6549l-0.08742,0.12187c-0.08125,-0.05828 -0.1257,-0.11068 -0.13336,-0.15719c-0.57468,-1.31465 -1.29272,-2.62959 -2.15412,-3.94482c-3.70555,0.70549 -7.3958,1.504 -11.07073,2.39553c-10.26885,2.47851 -20.94551,2.552 -32.03,0.22047c-0.60349,-0.47392 -1.21286,-0.91103 -1.82812,-1.31136c-0.08125,-0.05828 -0.14896,-0.10685 -0.20312,-0.14571c-0.38872,-3.23221 -0.70768,-6.47591 -0.95686,-9.73109c-0.09837,-1.17808 -0.32274,-2.32348 -0.6731,-3.4362c-3.80525,-3.67303 -7.93455,-6.12234 -12.38791,-7.34791c-1.64969,-0.44502 -3.27733,-1.2639 -4.8829,-2.45663c-5.29656,-3.88138 -7.16869,-8.36227 -5.61639,-13.44265c0.52273,-1.75803 1.09963,-3.4772 1.73069,-5.15752c1.37762,-1.06275 2.8165,-1.75342 4.31661,-2.072c0.04651,-0.00766 0.11039,0.01766 0.19164,0.07594c2.15844,1.79441 4.6445,3.47517 7.45821,5.0423c0.05417,0.03885 0.12187,0.08742 0.20313,0.14571c0.28911,0.74063 0.49491,1.48304 0.6174,2.22721c0.00766,0.04651 0.05211,0.09891 0.13336,0.15719c-0.86477,2.29204 -0.62682,4.39062 0.71385,6.29576c0.03474,0.06594 0.09273,0.12805 0.17398,0.18633c1.73391,0.95664 3.585,2.40753 5.55328,4.35266c1.42307,1.38997 3.15052,2.67013 5.18234,3.84047c3.25469,1.92447 6.34244,3.05238 9.26324,3.38371c0.05417,0.03885 0.12187,0.08742 0.20313,0.14571c0.22605,-0.65823 0.01407,-1.22048 -0.63593,-1.68674c-0.08125,-0.05828 -0.14896,-0.10685 -0.20312,-0.14571c-6.11968,-4.96405 -10.70451,-10.18075 -13.75447,-15.65009c-0.03474,-0.06594 -0.07919,-0.11833 -0.13336,-0.15719c0.34244,-4.59461 1.47557,-9.31937 3.39938,-14.17429c0.05828,-0.08125 0.10685,-0.14896 0.14571,-0.20312c-1.6231,1.74807 -3.42899,3.83674 -5.41768,6.26601c-0.03885,0.05417 -0.08742,0.12188 -0.14571,0.20313c-7.05393,-2.80389 -11.00139,-7.05065 -11.84238,-12.74029c-0.298,-2.10064 -0.60955,-4.211 -0.93463,-6.33107c-0.35571,-2.30611 -0.53892,-4.65256 -0.54962,-7.03935c0.0004,-4.0606 0.18685,-8.15183 0.55934,-12.27368c-1.84207,2.73953 -2.70799,5.60501 -2.59776,8.59644c0.07368,1.89871 -0.12582,3.80656 -0.5985,5.72355c-3.04272,-1.36223 -5.76459,-3.31469 -8.16563,-5.85739c-2.28504,-2.41848 -4.00813,-4.90557 -5.16926,-7.46128c-1.16524,-2.4356 -0.92722,-5.19773 0.71407,-8.28638c0.3073,-0.59995 0.59546,-1.31618 0.86448,-2.14868c2.65547,-8.39097 7.52403,-17.12234 14.60568,-26.1941c5.93189,-7.64046 12.47299,-11.87004 19.62331,-12.68872c1.3824,0.41736 2.65943,1.21035 3.8311,2.37896c0.03474,0.06594 0.09273,0.12805 0.17398,0.18633c0.17122,-2.29731 0.29593,-4.58696 0.37413,-6.86895c0.01177,-0.07359 0.03708,-0.13747 0.07594,-0.19164c0.05417,0.03885 0.12187,0.08742 0.20313,0.14571c4.91501,2.86934 9.60602,6.33686 14.07304,10.40256c5.05733,-0.47417 10.21625,-0.40376 15.47675,0.21125c0.04651,-0.00766 0.08919,-0.03857 0.12805,-0.09273c6.07671,5.13833 11.19995,10.4336 15.36972,15.88581c0.03474,0.06594 0.09273,0.12805 0.17398,0.18633c11.09214,2.37804 22.15188,4.48674 33.17924,6.32608c3.09861,0.54092 6.30057,1.70974 9.60589,3.50645c0.29026,0.16719 0.57081,0.34792 0.84164,0.5422c3.52167,7.89967 5.14993,16.12295 4.88479,24.66983c-0.01943,0.02708 0.01148,0.06977 0.09273,0.12805c8.38973,1.34197 17.03417,4.15874 25.9333,8.45032c0.05417,0.03885 0.12187,0.08742 0.20313,0.14571c1.05386,0.01761 1.92464,0.51919 2.61235,1.50472c0.03474,0.06594 0.09273,0.12805 0.17398,0.18633M536.2195,459.42009c-0.08125,-0.05828 -0.14896,-0.10685 -0.20312,-0.14571c-2.85428,-0.65279 -5.66852,-0.98972 -8.44271,-1.01079c-0.02708,-0.01943 -0.06977,0.01148 -0.12805,0.09273c-1.07625,-0.44387 -2.10834,-0.69198 -3.09626,-0.74433c-1.61553,-0.09236 -2.04648,0.33686 -1.29283,1.28765c0.05417,0.03885 0.12187,0.08742 0.20313,0.14571c3.81118,4.57971 7.25999,9.20712 10.34642,13.88223c4.34436,-0.45236 8.82475,-0.15082 13.44118,0.90459c0.04651,-0.00766 0.08919,-0.03857 0.12805,-0.09273c-1.42324,-5.16385 -5.07517,-9.93697 -10.9558,-14.31935M549.17139,498.49066c0.01177,-0.07359 0.03708,-0.13747 0.07594,-0.19164c-2.54517,-0.22596 -5.08652,-0.42867 -7.62403,-0.60813c-0.07359,-0.01177 -0.13747,-0.03708 -0.19164,-0.07594c-0.02922,4.90134 -0.60302,9.90426 -1.72141,15.00876c-0.01943,0.02708 0.01148,0.06977 0.09273,0.12805c3.03958,-2.86499 5.96255,-6.51095 8.76892,-10.93788c0.05828,-0.08125 0.10685,-0.14896 0.14571,-0.20312c0.18423,-1.0574 0.33549,-2.09743 0.45378,-3.1201M549.883,494.32493c0.04651,-0.00766 0.08919,-0.03857 0.12805,-0.09273c0.78162,-5.26404 0.51675,-10.35582 -0.79462,-15.27535c-0.03474,-0.06594 -0.07919,-0.11833 -0.13336,-0.15719c-0.67,-0.15246 -1.39594,-0.42707 -2.17782,-0.82386l-0.08742,0.12187c-0.08125,-0.05828 -0.14896,-0.10685 -0.20312,-0.14571c-0.08125,-0.05828 -0.15867,-0.09331 -0.23227,-0.10508c-3.91819,-1.45698 -7.70446,-2.03996 -11.35881,-1.74895c0.05417,0.03885 0.09862,0.09125 0.13336,0.15719c2.72439,5.52293 4.63484,11.17984 5.73136,16.97072c2.86013,-0.32747 5.85835,0.03889 8.99466,1.09908M541.34241,516.00953c-0.00766,-0.04651 -0.16662,0.00354 -0.47688,0.15015c-1.12449,0.42395 -1.65669,1.10869 -1.59659,2.05422c1.42595,-0.04363 2.11711,-0.77842 2.07347,-2.20437M536.58817,507.36927c-0.08125,-0.05828 -0.11216,-0.10097 -0.09273,-0.12805c0.26597,-3.17278 0.31293,-6.29757 0.14088,-9.37436c-0.08125,-0.05828 -0.14513,-0.0836 -0.19164,-0.07594c-3.40649,0.34575 -6.72493,1.22637 -9.95533,2.64187c-0.03885,0.05417 0.69832,1.48538 2.21154,4.29365c1.5403,2.82769 2.75617,5.13553 3.64761,6.92352l0.71187,1.4951c0.5634,-0.78542 1.1056,-1.62706 1.6266,-2.52492l-0.08125,-0.05828c0.05828,-0.08125 0.10685,-0.14896 0.14571,-0.20312c0.57163,-1.02563 1.18388,-2.02211 1.83676,-2.98946M536.5169,493.65878c0.04651,-0.00766 0.08919,-0.03857 0.12805,-0.09273c-0.5425,-5.76265 -2.31753,-11.32242 -5.32511,-16.67931c-0.03474,-0.06594 -0.07919,-0.11833 -0.13336,-0.15719c-7.37999,-0.57664 -14.36366,1.18198 -20.95098,5.27585c-0.06594,0.03474 -0.12805,0.09273 -0.18633,0.17398c4.75613,4.80633 9.45398,9.69391 14.09355,14.66274c0.03474,0.06594 0.09273,0.12805 0.17398,0.18633c3.92098,-1.86357 7.98772,-2.98679 12.2002,-3.36967M519.42874,499.98271c-1.73811,-2.72347 -3.87745,-5.34508 -6.41801,-7.86481c-2.62182,-2.57801 -5.16032,-5.1578 -7.61552,-7.73935c-6.00039,3.16127 -11.5497,8.40992 -16.64793,15.74596c-0.75767,1.05625 -1.41467,2.1437 -1.97098,3.26235c-0.62637,1.27349 -0.1306,2.32645 1.48732,3.15887c6.52115,3.77535 12.88919,6.62049 19.10411,8.53541c0.07359,0.01177 0.15102,0.0468 0.23227,0.10508c2.93404,-6.26324 6.81485,-11.27309 11.64242,-15.02952c0.08537,-0.06182 0.14748,-0.11982 0.18633,-0.17398M522.41561,503.10972c-0.06182,-0.08537 -0.11982,-0.14748 -0.17398,-0.18633c-2.07175,1.34421 -3.98363,3.15175 -5.73564,5.42264c-1.92686,2.51463 -3.30148,4.9742 -4.12385,7.37868c-0.01177,0.07359 0.05005,0.15896 0.18547,0.2561c6.02352,0.75215 11.94575,0.81635 17.76669,0.1926c0.04651,-0.00766 0.11039,0.01766 0.19164,0.07594c-2.38169,-4.45672 -5.08513,-8.8366 -8.11032,-13.13963M528.07329,472.83511c0.04651,-0.00766 0.08919,-0.03857 0.12805,-0.09273c-1.98367,-3.9251 -4.93053,-7.67971 -8.84058,-11.26384c-0.08125,-0.05828 -0.14896,-0.10685 -0.20312,-0.14571l0.08742,-0.12187c-1.35005,-1.09148 -2.51994,-2.17679 -3.50968,-3.25592c-9.1921,0.74872 -18.15099,3.05937 -26.87667,6.93197c-1.29522,0.5476 -1.75765,1.22085 -1.3873,2.01977c2.75657,1.07493 5.49549,2.26025 8.21674,3.55597l-0.08742,0.12187l-0.05828,0.08125c3.06865,1.9551 6.08638,4.18131 9.0532,6.67865l-0.05828,0.08125c0.40979,0.45803 0.85461,0.83863 1.33445,1.14182c0.32969,-0.1737 0.64584,-0.35711 0.94845,-0.55023c0.08537,-0.06182 0.14748,-0.11982 0.18633,-0.17398c0.05417,0.03885 0.12187,0.08742 0.20313,0.14571c6.65977,-3.50866 13.61429,-5.22665 20.86356,-5.15397M516.41513,452.28977c0.40213,0.41152 0.71125,0.83835 0.92734,1.28049c1.74033,-0.31035 3.52865,-0.40169 5.36496,-0.27401c0.04651,-0.00766 0.08919,-0.03857 0.12805,-0.09273c-2.74892,-1.02842 -4.98765,-1.42425 -6.71621,-1.1875l0.29586,0.27375M510.1053,454.22409c-0.39333,-0.93845 -1.32564,-1.66875 -2.79695,-2.1909c-1.27761,-0.50627 -2.40597,-1.04904 -3.38509,-1.62833c-10.83184,-0.79668 -21.03648,2.50726 -30.61391,9.9118c-0.60933,0.50635 -0.93017,1.09659 -0.96252,1.77071c0.01531,0.09302 0.09068,0.1881 0.22609,0.28524c2.66528,0.23008 5.38592,0.86904 8.16191,1.91689c0.07359,0.01177 0.15102,0.0468 0.23227,0.10508c4.73579,-2.42763 9.50985,-4.6227 14.3222,-6.58522c4.81235,-1.96252 9.75101,-3.15761 14.816,-3.58527M500.54231,481.45122c0.03885,-0.05417 0.05063,-0.12776 0.03531,-0.22078c-0.94265,-1.37351 -2.43577,-2.60864 -4.47937,-3.70538c-1.76099,-0.97607 -3.47959,-1.83968 -5.15579,-2.59085c-0.08125,-0.05828 -0.14896,-0.10685 -0.20312,-0.14571c-3.19641,-2.00572 -6.31243,-3.52308 -9.34807,-4.55208c-2.22659,1.27415 -4.16704,2.8356 -5.82134,4.68435c-3.58824,4.03015 -6.45466,8.45502 -8.59926,13.27462c0.05417,0.03885 0.11216,0.10097 0.17398,0.18633c2.898,3.96568 6.59052,7.82447 11.07754,11.57636c1.08037,0.32376 2.01886,0.87391 2.81547,1.65043c0.03474,0.06594 0.09273,0.12805 0.17398,0.18633c0.05417,0.03885 0.12187,0.08742 0.20313,0.14571c0.34797,0.37266 0.70565,0.73178 1.07304,1.07736c1.77481,-5.90523 5.24114,-10.96628 10.39897,-15.18313c2.53035,-2.04072 5.08219,-4.16857 7.65551,-6.38356M470.09851,464.53549c-0.10068,-0.0312 -0.1781,-0.06623 -0.23227,-0.10508c-3.98445,4.52531 -6.69837,9.22365 -8.14176,14.09502c-0.01943,0.02708 0.01148,0.06977 0.09273,0.12805c0.48874,1.66319 1.29922,3.24954 2.43145,4.75904c0.03474,0.06594 0.09273,0.12805 0.17398,0.18633c3.19425,-6.56882 7.40475,-11.75235 12.63149,-15.55061c0.08537,-0.06182 0.14748,-0.11982 0.18633,-0.17398c-2.43808,-1.46175 -4.81873,-2.57468 -7.14197,-3.33877M498.84229,442.39163c0.06594,-0.03474 0.11833,-0.07919 0.15719,-0.13336c-6.0707,-2.34471 -11.84841,-2.98207 -17.33315,-1.91206c-0.04651,0.00766 -0.09891,0.05211 -0.15719,0.13336c-0.08125,-0.05828 -0.15867,-0.09331 -0.23227,-0.10508c-0.34089,-0.03943 -0.68,0.00445 -1.01735,0.13163c-0.08125,-0.05828 -0.13159,-0.07388 -0.15102,-0.0468c-1.67497,0.56233 -3.3305,1.09758 -4.96661,1.60574c-0.08125,-0.05828 -0.13159,-0.07388 -0.15102,-0.0468c-1.93872,0.70129 -3.87538,1.34252 -5.80998,1.92371c-0.03885,0.05417 -0.09125,0.09862 -0.15719,0.13336c-5.19859,1.3573 -10.03559,4.98392 -14.51099,10.87986c-1.20804,1.51255 -2.07109,2.94443 -2.58912,4.29563c-0.58809,1.50605 -1.20121,2.93261 -1.83935,4.2797c-3.75115,7.97419 -4.52354,15.39835 -2.31719,22.27248c1.53955,-0.65947 2.16209,-1.95622 1.86763,-3.89024c-0.04182,-0.39917 -0.05067,-0.81571 -0.02655,-1.24962c0.06059,-1.22813 0.21802,-2.44832 0.47231,-3.66057c2.03099,-4.20376 4.23243,-8.3878 6.60431,-12.55213c0.94487,-1.66031 1.97098,-3.26235 3.07835,-4.8061c3.01834,-3.86469 6.18774,-6.7391 9.5082,-8.62325c0.06594,-0.03474 0.11833,-0.07919 0.15719,-0.13336c0.8572,-0.45161 1.64875,-1.01184 2.37464,-1.68069c0.08537,-0.06182 0.14748,-0.11982 0.18633,-0.17398c0.05417,0.03885 0.12187,0.08742 0.20313,0.14571c0.53516,-0.2314 1.04707,-0.45898 1.53572,-0.68272c0.01943,-0.02708 0.06977,-0.01148 0.15102,0.0468c0.05417,0.03885 0.12187,0.08742 0.20313,0.14571c1.67966,-0.96916 3.41113,-1.69605 5.19443,-2.18067c0.06594,-0.03474 0.11833,-0.07919 0.15719,-0.13336c0.05417,0.03885 0.12187,0.08742 0.20313,0.14571c1.72913,-0.52348 3.45032,-0.9501 5.16357,-1.27988c0.06594,-0.03474 0.11833,-0.07919 0.15719,-0.13336c0.05417,0.03885 0.12187,0.08742 0.20313,0.14571c4.5239,-1.10293 9.0843,-2.05662 13.68122,-2.86106M534.94542,523.72655c0.08537,-0.06182 0.14748,-0.11982 0.18633,-0.17398c1.46241,-0.83786 2.22391,-1.87085 2.2845,-3.09898c0.01177,-0.07359 -0.08891,-0.10479 -0.30203,-0.0936c-1.12688,-0.31611 -1.72267,0.19996 -1.78737,1.5482c0.00766,0.04651 -0.01766,0.11039 -0.07594,0.19164c-0.03885,0.05417 -0.08742,0.12188 -0.14571,0.20313c-1.02554,1.31531 -1.88064,2.65034 -2.56529,4.00508c0.78476,-1.03682 1.58659,-1.89732 2.40551,-2.58148M530.27009,522.09564c0.2561,-0.18547 0.44449,-0.4195 0.56517,-0.70211c-6.25608,-0.71387 -12.8451,-1.56402 -19.76707,-2.55045c-0.07359,-0.01177 -0.13747,-0.03708 -0.19164,-0.07594c-1.99041,3.28943 -2.54545,6.66505 -1.66511,10.12685c0.00766,0.04651 0.05211,0.09891 0.13336,0.15719c7.43885,0.20867 14.41395,-2.10985 20.9253,-6.95555M525.27903,530.08283c-0.04651,0.00766 -0.07948,0.02503 -0.09891,0.05211c-0.31792,0.1001 -0.98084,0.28088 -1.98877,0.54233c-0.11245,0.0424 -0.24815,0.08862 -0.40711,0.13867c-1.94226,0.53467 -4.29311,0.98134 -7.05256,1.34002c-2.94549,0.3893 -4.46092,0.61486 -4.54629,0.67668c-0.60522,0.38625 -0.33113,0.8905 0.82226,1.51275c0.05417,0.03885 0.12187,0.08742 0.20313,0.14571c4.37202,-0.71965 7.95216,-1.67918 10.74042,-2.87859c1.24871,-0.53994 2.10768,-0.90824 2.5769,-1.1049c0.13188,-0.06948 0.27347,-0.1525 0.42477,-0.24906c1.31111,-0.74129 1.0865,-0.79986 -0.67383,-0.17571M506.29472,534.24673c0.04651,-0.00766 0.08154,-0.08508 0.10508,-0.23227c-0.2114,-0.84897 -0.62679,-1.41356 -1.24616,-1.69377l-0.08742,0.12187c-0.08125,-0.05828 -0.14513,-0.0836 -0.19164,-0.07594c-0.24021,-0.00823 -0.47659,0.00679 -0.70915,0.04507c-0.08125,-0.05828 -0.14896,-0.10685 -0.20312,-0.14571c-0.08125,-0.05828 -0.14513,-0.0836 -0.19164,-0.07594c-6.05118,-0.48486 -12.1751,-1.41156 -18.37174,-2.78012c0.05417,0.03885 0.11216,0.10097 0.17398,0.18633c0.60645,0.92725 1.60236,1.82623 2.98773,2.69692c6.378,1.74476 12.28936,2.39595 17.73409,1.95355M505.06164,528.93215c0.04651,-0.00766 0.08919,-0.03857 0.12805,-0.09273c-0.06668,-3.45242 0.50424,-7.02174 1.71277,-10.70795c-0.00766,-0.04651 -0.03857,-0.08919 -0.09273,-0.12805c-6.5493,-1.3344 -13.70156,-4.3729 -21.45678,-9.11551l-0.08742,0.12187c-0.81003,2.04417 -1.22471,4.02327 -1.24405,5.9373c0.00766,0.04651 -0.01766,0.11039 -0.07594,0.19164c-0.03885,0.05417 -0.06417,0.11805 -0.07594,0.19164c-0.71577,3.34236 -0.80364,6.58137 -0.26361,9.71702c4.00413,1.10843 8.01798,2.20332 12.04154,3.28467c0.04651,-0.00766 0.08919,-0.03857 0.12805,-0.09273c0.05417,0.03885 0.12187,0.08742 0.20313,0.14571c0.05417,0.03885 0.12187,0.08742 0.20313,0.14571c2.97143,0.20357 5.93137,0.33738 8.87982,0.40142M464.06276,512.32069c0.00766,0.04651 -0.01766,0.11039 -0.07594,0.19164c2.25088,2.06582 4.67809,4.11455 7.28163,6.14621c0.05417,0.03885 0.12187,0.08742 0.20313,0.14571c2.77485,1.62129 5.5229,3.07979 8.24416,4.3755c0.05417,0.03885 0.12187,0.08742 0.20313,0.14571c-0.74501,-5.25161 -0.36404,-10.7005 1.1429,-16.34667c-0.00766,-0.04651 -0.03857,-0.08919 -0.09273,-0.12805c-5.76167,-3.80482 -10.83836,-8.16428 -15.23006,-13.07837c-0.08125,-0.05828 -0.14896,-0.10685 -0.20312,-0.14571c-2.43477,6.53935 -2.9258,12.77069 -1.47309,18.69402M444.67686,502.29105c-0.01943,0.02708 0.01148,0.06977 0.09273,0.12805c0.521,-0.89787 0.97845,-1.02094 1.37236,-0.36921c0.22021,0.32204 0.5143,0.51248 0.88227,0.57134c1.21636,0.13418 2.36353,-0.00688 3.44151,-0.42317c0.37966,-1.90168 0.45317,-3.77685 0.22053,-5.62551c-0.00766,-0.04651 -0.03857,-0.08919 -0.09273,-0.12805c-2.4468,0.95212 -4.41902,2.90097 -5.91666,5.84655M461.69055,489.63777c0.0312,-0.10068 0.06623,-0.1781 0.10508,-0.23227c-0.73364,-1.2646 -1.4867,-2.50212 -2.2592,-3.71255c-0.06182,-0.08537 -0.11982,-0.14748 -0.17398,-0.18633c-1.71299,5.9906 -1.9338,11.75947 -0.66244,17.3066c0.00766,0.04651 0.05211,0.09891 0.13336,0.15719c0.35364,-4.38149 1.30603,-8.8257 2.85718,-13.33264M413.13875,463.0553c-0.01943,0.02708 0.01148,0.06977 0.09273,0.12805c1.14095,-0.90437 1.68698,-1.72276 1.63808,-2.45516c-0.00766,-0.04651 -0.03857,-0.08919 -0.09273,-0.12805c-0.84658,0.95146 -1.39261,1.76984 -1.63808,2.45516M436.83316,428.73694l0.12187,0.08742c7.57286,-4.78157 15.32564,-8.47014 23.25832,-11.06571c0.06594,-0.03474 0.11833,-0.07919 0.15719,-0.13336c-1.28526,-0.55278 -2.50928,-0.73347 -3.67205,-0.54207c-0.07359,-0.01177 -0.13747,-0.03708 -0.19164,-0.07594c0.51919,-1.92464 0.2898,-3.46333 -0.68816,-4.61606c0.01943,-0.02708 0.04857,-0.06771 0.08742,-0.12188c-2.78003,0.9592 -5.44522,2.61606 -7.99557,4.97058c-2.77937,2.55942 -5.04329,5.05788 -6.79176,7.49538c-0.4763,-0.13657 -0.89519,0.07569 -1.25666,0.63679l-0.08125,-0.05828c-0.98669,1.26115 -1.96926,2.40219 -2.94771,3.42312z" fill="#000000"/><path d="M436.95504,428.82436l-0.12187,-0.08742c0.97845,-1.02094 1.96102,-2.16198 2.94771,-3.42312l0.08125,0.05828c0.36147,-0.56109 0.78035,-0.77336 1.25666,-0.63679c1.74847,-2.4375 4.0124,-4.93596 6.79176,-7.49538c2.55035,-2.35452 5.21555,-4.01138 7.99557,-4.97058c-0.03885,0.05417 -0.068,0.09479 -0.08742,0.12188c0.97796,1.15273 1.20735,2.69141 0.68816,4.61606c0.05417,0.03885 0.11805,0.06417 0.19164,0.07594c1.16277,-0.1914 2.38679,-0.01071 3.67205,0.54207c-0.03885,0.05417 -0.09125,0.09862 -0.15719,0.13336c-7.93269,2.59556 -15.68546,6.28413 -23.25832,11.06571z" fill="#2c2d40"/><path d="M413.23148,463.18335c-0.08125,-0.05828 -0.11216,-0.10097 -0.09273,-0.12805c0.24548,-0.68531 0.7915,-1.5037 1.63808,-2.45516c0.05417,0.03885 0.08508,0.08154 0.09273,0.12805c0.0489,0.7324 -0.49713,1.55079 -1.63808,2.45516z" fill="#353849"/><path d="M461.79563,489.40551c-0.03885,0.05417 -0.07388,0.13159 -0.10508,0.23227c-1.55115,4.50694 -2.50354,8.95116 -2.85718,13.33264c-0.08125,-0.05828 -0.1257,-0.11068 -0.13336,-0.15719c-1.27136,-5.54714 -1.05055,-11.316 0.66244,-17.3066c0.05417,0.03885 0.11216,0.10097 0.17398,0.18633c0.77249,1.21043 1.52556,2.44795 2.2592,3.71255M463.98682,512.51233c0.05828,-0.08125 0.0836,-0.14513 0.07594,-0.19164c-1.45271,-5.92334 -0.96168,-12.15468 1.47309,-18.69402c0.05417,0.03885 0.12187,0.08742 0.20313,0.14571c4.3917,4.91409 9.46839,9.27355 15.23006,13.07837c0.05417,0.03885 0.08508,0.08154 0.09273,0.12805c-1.50694,5.64617 -1.88791,11.09506 -1.1429,16.34667c-0.08125,-0.05828 -0.14896,-0.10685 -0.20312,-0.14571c-2.72126,-1.29571 -5.46931,-2.75421 -8.24416,-4.3755c-0.08125,-0.05828 -0.14896,-0.10685 -0.20312,-0.14571c-2.60354,-2.03165 -5.03075,-4.08039 -7.28163,-6.14621M495.77556,528.23932c-0.03885,0.05417 -0.08154,0.08508 -0.12805,0.09273c-4.02356,-1.08135 -8.03741,-2.17624 -12.04154,-3.28467c-0.54002,-3.13565 -0.45215,-6.37466 0.26361,-9.71702c0.01177,-0.07359 0.03708,-0.13747 0.07594,-0.19164c0.05417,0.03885 0.11216,0.10097 0.17398,0.18633c2.97456,4.43079 6.85991,8.73555 11.65605,12.91427M506.3998,534.01447c-0.02354,0.14719 -0.05857,0.22461 -0.10508,0.23227c-5.44473,0.4424 -11.35609,-0.20879 -17.73409,-1.95355c-1.38537,-0.8707 -2.38128,-1.76967 -2.98773,-2.69692c-0.06182,-0.08537 -0.11982,-0.14748 -0.17398,-0.18633c6.19665,1.36856 12.32056,2.29527 18.37174,2.78012c0.04651,-0.00766 0.11039,0.01766 0.19164,0.07594c-0.03885,0.05417 -0.08742,0.12188 -0.14571,0.20313c-0.16719,0.29026 -0.0612,0.57138 0.31796,0.84337c1.22756,0.34731 1.5961,0.11944 1.10564,-0.68359c-0.06182,-0.08537 -0.11982,-0.14748 -0.17398,-0.18633l0.08742,-0.12187c0.61938,0.28022 1.03476,0.84481 1.24616,1.69377M469.86624,464.43041c0.05417,0.03885 0.13159,0.07388 0.23227,0.10508c2.32324,0.76409 4.7039,1.87701 7.14197,3.33877c-0.03885,0.05417 -0.10097,0.11216 -0.18633,0.17398c-5.22674,3.79826 -9.43724,8.98179 -12.63149,15.55061c-0.08125,-0.05828 -0.13924,-0.12039 -0.17398,-0.18633c-1.13223,-1.5095 -1.94272,-3.09585 -2.43145,-4.75904c-0.08125,-0.05828 -0.11216,-0.10097 -0.09273,-0.12805c1.44339,-4.87137 4.15731,-9.56971 8.14176,-14.09502M490.94246,474.93421c-0.03885,0.05417 -0.08742,0.12188 -0.14571,0.20313c-7.24473,9.24192 -10.43976,18.12776 -9.5851,26.65752c-0.08125,-0.05828 -0.13924,-0.12039 -0.17398,-0.18633c-0.79661,-0.77652 -1.7351,-1.32667 -2.81547,-1.65043c-4.48703,-3.75189 -8.17954,-7.61068 -11.07754,-11.57636c-0.06182,-0.08537 -0.11982,-0.14748 -0.17398,-0.18633c2.14459,-4.8196 5.01101,-9.24447 8.59926,-13.27462c1.6543,-1.84875 3.59475,-3.4102 5.82134,-4.68435c3.03564,1.029 6.15166,2.54636 9.34807,4.55208c0.05417,0.03885 0.12187,0.08742 0.20313,0.14571M507.30835,452.03319c1.47131,0.52215 2.40362,1.25245 2.79695,2.1909c-5.06499,0.42766 -10.00365,1.62275 -14.816,3.58527c-4.81235,1.96252 -9.58641,4.15759 -14.3222,6.58522c-0.08125,-0.05828 -0.15867,-0.09331 -0.23227,-0.10508c-2.776,-1.04785 -5.49664,-1.68681 -8.16191,-1.91689c-0.13542,-0.09714 -0.21078,-0.19222 -0.22609,-0.28524c0.03235,-0.67412 0.35319,-1.26435 0.96252,-1.77071c9.57743,-7.40454 19.78207,-10.70847 30.61391,-9.9118c0.97912,0.57928 2.10748,1.12206 3.38509,1.62833M517.34247,453.57025c-0.21609,-0.44214 -0.5252,-0.86897 -0.92734,-1.28049l-0.29586,-0.27375c1.72856,-0.23676 3.96729,0.15908 6.71621,1.1875c-0.03885,0.05417 -0.08154,0.08508 -0.12805,0.09273c-1.83631,-0.12768 -3.62463,-0.03634 -5.36496,0.27401M519.15764,461.33283c-0.13542,-0.09714 -0.27083,-0.19427 -0.40625,-0.29141c-0.27083,-0.19427 -0.52253,-0.27227 -0.75508,-0.23399c-7.65189,1.68947 -15.04938,4.9971 -22.19244,9.9229c-0.08125,-0.05828 -0.14896,-0.10685 -0.20312,-0.14571l0.08742,-0.12187c-2.72126,-1.29571 -5.46017,-2.48104 -8.21674,-3.55597c-0.37036,-0.79892 0.09207,-1.47217 1.3873,-2.01977c8.72567,-3.8726 17.68456,-6.18325 26.87667,-6.93197c0.98974,1.07913 2.15963,2.16444 3.50968,3.25592l-0.08742,0.12187M527.28843,458.48969c-1.39532,0.22968 -2.80596,0.36633 -4.23191,0.40996c-0.75364,-0.9508 -0.3227,-1.38001 1.29283,-1.28765c0.98792,0.05235 2.02001,0.30046 3.09626,0.74433c-0.03885,0.05417 -0.09125,0.09862 -0.15719,0.13336z" fill="#343444"/><path d="M444.7696,502.4191c-0.08125,-0.05828 -0.11216,-0.10097 -0.09273,-0.12805c1.49764,-2.94558 3.46986,-4.89443 5.91666,-5.84655c0.05417,0.03885 0.08508,0.08154 0.09273,0.12805c0.23264,1.84866 0.15913,3.72383 -0.22053,5.62551c-1.07798,0.41629 -2.22515,0.55735 -3.44151,0.42317c-0.36797,-0.05886 -0.66206,-0.24931 -0.88227,-0.57134c-0.3939,-0.65173 -0.85135,-0.52866 -1.37236,0.36921z" fill="#2c2c3f"/><path d="M505.18969,528.83942c-0.03885,0.05417 -0.08154,0.08508 -0.12805,0.09273c-2.94846,-0.06404 -5.9084,-0.19785 -8.87982,-0.40142c-0.08125,-0.05828 -0.14896,-0.10685 -0.20312,-0.14571c-0.08125,-0.05828 -0.14896,-0.10685 -0.20312,-0.14571c-4.79614,-4.17872 -8.68149,-8.48348 -11.65605,-12.91427c-0.06182,-0.08537 -0.11982,-0.14748 -0.17398,-0.18633c0.05828,-0.08125 0.0836,-0.14513 0.07594,-0.19164c0.01934,-1.91402 0.43403,-3.89312 1.24405,-5.9373l0.08742,-0.12187c7.75522,4.74261 14.90748,7.78111 21.45678,9.11551c0.05417,0.03885 0.08508,0.08154 0.09273,0.12805c-1.20853,3.68621 -1.77946,7.25553 -1.71277,10.70795M450.08424,463.53052c0.63814,-1.34709 1.25126,-2.77365 1.83935,-4.2797c0.51804,-1.3512 1.38108,-2.78308 2.58912,-4.29563c0.05417,0.03885 0.12187,0.08742 0.20313,0.14571c1.35302,1.54482 3.03543,3.0593 5.04726,4.54344c-1.10737,1.54375 -2.13348,3.14578 -3.07835,4.8061c-2.37188,4.16433 -4.57332,8.34837 -6.60431,12.55213c-0.25428,1.21225 -0.41172,2.43244 -0.47231,3.66057c-0.02412,0.43391 -0.01527,0.85045 0.02655,1.24962c0.29446,1.93403 -0.32808,3.23077 -1.86763,3.89024c-2.20635,-6.87413 -1.43396,-14.29829 2.31719,-22.27248M498.99948,442.25827c-0.03885,0.05417 -0.09125,0.09862 -0.15719,0.13336c-4.59692,0.80444 -9.15732,1.75812 -13.68122,2.86106c-0.08125,-0.05828 -0.14896,-0.10685 -0.20312,-0.14571c-0.9238,-1.11387 -2.08398,-2.21272 -3.48054,-3.29654l0.05828,-0.08125c0.05417,0.03885 0.12187,0.08742 0.20313,0.14571c-0.24729,-0.34146 -0.34916,-0.74269 -0.30562,-1.20368c0.01177,-0.07359 0.03708,-0.13747 0.07594,-0.19164c0.05828,-0.08125 0.11068,-0.1257 0.15719,-0.13336c5.48474,-1.07001 11.26245,-0.43265 17.33315,1.91206M500.57762,481.23044c0.01531,0.09302 0.00354,0.16662 -0.03531,0.22078c-2.57332,2.21499 -5.12516,4.34284 -7.65551,6.38356c-5.15784,4.21685 -8.62416,9.2779 -10.39897,15.18313c-0.3674,-0.34558 -0.72508,-0.7047 -1.07304,-1.07736c-0.08125,-0.05828 -0.14896,-0.10685 -0.20312,-0.14571c-0.85466,-8.52976 2.34037,-17.4156 9.5851,-26.65752c0.05828,-0.08125 0.10685,-0.14896 0.14571,-0.20312c1.6762,0.75117 3.3948,1.61478 5.15579,2.59085c2.0436,1.09675 3.53672,2.33187 4.47937,3.70538M522.24163,502.92339c0.05417,0.03885 0.11216,0.10097 0.17398,0.18633c3.02519,4.30303 5.72863,8.68291 8.11032,13.13963c-0.08125,-0.05828 -0.14513,-0.0836 -0.19164,-0.07594c-5.82093,0.62375 -11.74316,0.55955 -17.76669,-0.1926c-0.13542,-0.09714 -0.19724,-0.1825 -0.18547,-0.2561c0.82237,-2.40449 2.19699,-4.86405 4.12385,-7.37868c1.75201,-2.27088 3.66389,-4.07843 5.73564,-5.42264M536.49543,507.24122c-0.01943,0.02708 0.01148,0.06977 0.09273,0.12805c-0.65288,0.96734 -1.26513,1.96383 -1.83676,2.98946c-0.03885,0.05417 -0.08742,0.12188 -0.14571,0.20313l0.08125,0.05828c-0.521,0.89787 -1.0632,1.73951 -1.6266,2.52492l-0.71187,-1.4951c-0.89145,-1.78799 -2.10732,-4.09583 -3.64761,-6.92352c-1.51321,-2.80826 -2.25039,-4.23948 -2.21154,-4.29365c3.2304,-1.4155 6.54885,-2.29612 9.95533,-2.64187c0.04651,-0.00766 0.11039,0.01766 0.19164,0.07594c0.17205,3.07679 0.1251,6.20158 -0.14088,9.37436z" fill="#475c81"/><path d="M503.9623,532.26599c0.05417,0.03885 0.12187,0.08742 0.20313,0.14571c0.23255,-0.03828 0.46894,-0.0533 0.70915,-0.04507c0.04651,-0.00766 0.11039,0.01766 0.19164,0.07594c0.05417,0.03885 0.11216,0.10097 0.17398,0.18633c0.49046,0.80303 0.12192,1.03089 -1.10564,0.68359c-0.37917,-0.27198 -0.48515,-0.55311 -0.31796,-0.84337c0.05828,-0.08125 0.10685,-0.14896 0.14571,-0.20312z" fill="#425574"/><path d="M525.43536,530.37955l-0.02914,0.04062c0.38386,-0.13484 0.56607,-0.18872 0.54665,-0.16164c-0.1513,0.09656 -0.29289,0.17958 -0.42477,0.24906c-0.46922,0.19666 -1.32819,0.56496 -2.5769,1.1049c-2.78826,1.19941 -6.3684,2.15894 -10.74042,2.87859c-0.08125,-0.05828 -0.14896,-0.10685 -0.20312,-0.14571c-1.15339,-0.62226 -1.42747,-1.12651 -0.82226,-1.51275c0.08537,-0.06182 1.6008,-0.28738 4.54629,-0.67668c2.75945,-0.35867 5.1103,-0.80535 7.05256,-1.34002l2.02939,-0.51319l0.2093,-0.03445c0.01943,-0.02708 0.12805,-0.09273 0.32586,-0.19695l-0.14571,0.20313c0.09302,-0.01531 0.1725,-0.04034 0.23844,-0.07508c1.02735,-0.28853 1.0253,-0.22848 -0.00617,0.18016z" fill="#415476"/><path d="M525.40622,530.42018l0.02914,-0.04062c1.03147,-0.40864 1.03353,-0.46869 0.00617,-0.18016c-0.06594,0.03474 -0.14542,0.05976 -0.23844,0.07508l0.14571,-0.20312c-0.19781,0.10422 -0.30644,0.16987 -0.32586,0.19695l-0.2093,0.03445l-2.02939,0.51319c0.15896,-0.05005 0.29466,-0.09627 0.40711,-0.13867c1.00793,-0.26145 1.67085,-0.44223 1.98877,-0.54233c0.01943,-0.02708 0.0524,-0.04445 0.09891,-0.05211c1.76033,-0.62415 1.98494,-0.56558 0.67383,0.17571c0.01943,-0.02708 -0.16279,0.0268 -0.54665,0.16164z" fill="#415370"/><path d="M530.83525,521.39353c-0.12068,0.2826 -0.30907,0.51664 -0.56517,0.70211c-6.51134,4.8457 -13.48644,7.16421 -20.9253,6.95555c-0.08125,-0.05828 -0.1257,-0.11068 -0.13336,-0.15719c-0.88034,-3.4618 -0.3253,-6.83742 1.66511,-10.12685c0.05417,0.03885 0.11805,0.06417 0.19164,0.07594c6.92197,0.98643 13.51099,1.83658 19.76707,2.55045z" fill="#465c81"/><path d="M535.13175,523.55257c-0.03885,0.05417 -0.10097,0.11216 -0.18633,0.17398c-0.81892,0.68416 -1.62076,1.54466 -2.40551,2.58148c0.68465,-1.35474 1.53975,-2.68977 2.56529,-4.00508c0.05828,-0.08125 0.10685,-0.14896 0.14571,-0.20312c0.05828,-0.08125 0.0836,-0.14513 0.07594,-0.19164c0.0647,-1.34824 0.66049,-1.8643 1.78737,-1.5482c0.21313,-0.0112 0.3138,0.02 0.30203,0.0936c-0.06059,1.22813 -0.82209,2.26113 -2.2845,3.09898M540.86553,516.15968c0.31026,-0.14661 0.46922,-0.19666 0.47688,-0.15015c0.04363,1.42595 -0.64753,2.16074 -2.07347,2.20437c-0.0601,-0.94553 0.4721,-1.63027 1.59659,-2.05422z" fill="#435878"/><path d="M473.87932,448.54283c-0.08125,-0.05828 -0.13159,-0.07388 -0.15102,-0.0468c-0.48865,0.22375 -1.00056,0.45132 -1.53572,0.68272c-0.08125,-0.05828 -0.14896,-0.10685 -0.20312,-0.14571c-0.08125,-0.05828 -0.13159,-0.07388 -0.15102,-0.0468c-1.13626,0.49754 -1.93958,1.13137 -2.40996,1.90147c-0.03885,0.05417 -0.09125,0.09862 -0.15719,0.13336c-3.32046,1.88415 -6.48986,4.75856 -9.5082,8.62325c-2.01182,-1.48415 -3.69424,-2.99863 -5.04726,-4.54344c-0.08125,-0.05828 -0.14896,-0.10685 -0.20312,-0.14571c4.4754,-5.89594 9.3124,-9.52255 14.51099,-10.87986c0.06594,-0.03474 0.11833,-0.07919 0.15719,-0.13336c0.05417,0.03885 0.12187,0.08742 0.20313,0.14571c1.32593,1.52539 2.82437,3.01044 4.4953,4.45515M481.53569,441.72919l-0.05828,0.08125c1.39656,1.08382 2.55674,2.18267 3.48054,3.29654c-0.03885,0.05417 -0.09125,0.09862 -0.15719,0.13336c-1.71324,0.32978 -3.43443,0.7564 -5.16357,1.27988c-0.08125,-0.05828 -0.14896,-0.10685 -0.20312,-0.14571c-1.03156,-1.4783 -2.48171,-2.8877 -4.35046,-4.2282l0.05828,-0.08125c1.63611,-0.50816 3.29165,-1.04341 4.96661,-1.60574c0.01943,-0.02708 0.06977,-0.01148 0.15102,0.0468c0.05417,0.03885 0.09862,0.09125 0.13336,0.15719c0.16192,0.40329 0.54286,0.75858 1.14281,1.06588M546.81783,478.09767c0.80838,0.70293 1.31445,1.45562 1.51819,2.25808c0.02297,0.13953 0.03622,0.29261 0.03976,0.45922c-0.00279,3.32054 -0.53075,6.71559 -1.58386,10.18513c-1.01518,-3.84566 -2.16017,-7.6819 -3.43499,-11.50871c-0.07713,-0.17839 -0.01856,-0.403 0.17571,-0.67383c0.83538,-1.16458 1.84331,-1.42603 3.02378,-0.78435l0.05828,-0.08125c0.05417,0.03885 0.12187,0.08742 0.20313,0.14571M544.09452,502.90915c-0.08125,-0.05828 -0.14896,-0.10685 -0.20312,-0.14571c-1.39837,-2.1106 -0.82057,-3.31639 1.73341,-3.61735c0.04651,-0.00766 0.11039,0.01766 0.19164,0.07594c0.68589,-0.04124 1.09214,0.25017 1.21875,0.87424c0.39868,2.13184 -0.37842,3.21518 -2.3313,3.25c-0.19724,-0.1825 -0.40036,-0.32821 -0.60937,-0.43712M541.11673,466.31707c-0.03885,0.05417 -0.05445,0.10451 -0.0468,0.15102c2.01364,2.51092 1.8895,4.51385 -0.37241,6.00879c-0.08125,-0.05828 -0.14896,-0.10685 -0.20312,-0.14571c-0.08125,-0.05828 -0.14896,-0.10685 -0.20312,-0.14571l-0.05828,0.08125c-0.41391,-0.33792 -0.76245,-0.42386 -1.04563,-0.25782c-0.15427,-0.35677 -0.48281,-0.75652 -0.98562,-1.19924l0.05828,-0.08125c-0.75191,-1.81096 -1.85266,-3.5645 -3.30224,-5.26062c0.01943,-0.02708 0.04857,-0.06771 0.08742,-0.12188c-2.01182,-1.48415 -3.21942,-3.08873 -3.62279,-4.81374c-0.05005,-0.15896 0.04268,-0.03091 0.2782,0.38415c0.10422,0.19781 0.29174,0.39386 0.56258,0.58813c0.05417,0.03885 0.12187,0.08742 0.20313,0.14571c2.87964,1.53238 5.76311,3.08802 8.65041,4.66692z" fill="#8fbbbe"/><path d="M471.98946,449.03305c-0.03885,0.05417 -0.10097,0.11216 -0.18633,0.17398c-0.7259,0.66885 -1.51744,1.22908 -2.37464,1.68069c0.47038,-0.7701 1.27369,-1.40393 2.40996,-1.90147c0.01943,-0.02708 0.06977,-0.01148 0.15102,0.0468z" fill="#94c3c7"/><path d="M481.73882,441.8749c-0.08125,-0.05828 -0.14896,-0.10685 -0.20312,-0.14571c-0.59995,-0.3073 -0.98089,-0.66259 -1.14281,-1.06588c-0.03474,-0.06594 -0.07919,-0.11833 -0.13336,-0.15719c0.33735,-0.12719 0.67646,-0.17106 1.01735,-0.13163c0.07359,0.01177 0.15102,0.0468 0.23227,0.10508c-0.03885,0.05417 -0.06417,0.11805 -0.07594,0.19164c-0.04355,0.46099 0.05833,0.86222 0.30562,1.20368M479.43407,446.37451c-0.03885,0.05417 -0.09125,0.09862 -0.15719,0.13336c-1.7833,0.48462 -3.51478,1.21151 -5.19443,2.18067c-0.08125,-0.05828 -0.14896,-0.10685 -0.20312,-0.14571c-1.67094,-1.44471 -3.16937,-2.92977 -4.4953,-4.45515c-0.08125,-0.05828 -0.14896,-0.10685 -0.20312,-0.14571c1.9346,-0.58118 3.87126,-1.22242 5.80998,-1.92371c0.01943,-0.02708 0.06977,-0.01148 0.15102,0.0468l-0.05828,0.08125c1.86875,1.3405 3.3189,2.7499 4.35046,4.2282M550.01105,494.2322c-0.03885,0.05417 -0.08154,0.08508 -0.12805,0.09273c-3.13631,-1.06019 -6.13453,-1.42656 -8.99466,-1.09908c-1.09651,-5.79089 -3.00697,-11.44779 -5.73136,-16.97072c-0.03474,-0.06594 -0.07919,-0.11833 -0.13336,-0.15719c3.65435,-0.29101 7.44062,0.29198 11.35881,1.74895c0.07359,0.01177 0.15102,0.0468 0.23227,0.10508l-0.05828,0.08125c-1.18047,-0.64168 -2.1884,-0.38023 -3.02378,0.78435c-0.19427,0.27083 -0.25285,0.49544 -0.17571,0.67383c1.27481,3.82681 2.41981,7.66305 3.43499,11.50871c1.05311,-3.46955 1.58107,-6.86459 1.58386,-10.18513c-0.00354,-0.16662 -0.01679,-0.31969 -0.03976,-0.45922c-0.20374,-0.80246 -0.70981,-1.55515 -1.51819,-2.25808l0.08742,-0.12187c0.78188,0.39678 1.50782,0.6714 2.17782,0.82386c0.05417,0.03885 0.09862,0.09125 0.13336,0.15719c1.31137,4.91953 1.57624,10.01131 0.79462,15.27535z" fill="#475d81"/><path d="M506.82028,478.01736c-0.30261,0.19312 -0.61876,0.37653 -0.94845,0.55023c-0.47984,-0.30318 -0.92466,-0.68379 -1.33445,-1.14182l0.05828,-0.08125c0.05417,0.03885 0.12187,0.08742 0.20313,0.14571c0.34443,0.20605 0.68297,0.44889 1.01563,0.72853c0.32969,-0.1737 0.66321,-0.32414 1.00056,-0.45132c0.04651,-0.00766 0.11039,0.01766 0.19164,0.07594c-0.03885,0.05417 -0.10097,0.11216 -0.18633,0.17398z" fill="#364461"/><path d="M528.20134,472.74237c-0.03885,0.05417 -0.08154,0.08508 -0.12805,0.09273c-7.24927,-0.07268 -14.20379,1.64531 -20.86356,5.15397c-0.08125,-0.05828 -0.14896,-0.10685 -0.20312,-0.14571c-0.08125,-0.05828 -0.14513,-0.0836 -0.19164,-0.07594c-0.33735,0.12719 -0.67087,0.27763 -1.00056,0.45132c-0.33266,-0.27964 -0.6712,-0.52248 -1.01562,-0.72853c-0.08125,-0.05828 -0.14896,-0.10685 -0.20312,-0.14571c-2.96682,-2.49734 -5.98455,-4.72356 -9.0532,-6.67865l0.05828,-0.08125c0.05417,0.03885 0.12187,0.08742 0.20313,0.14571c7.14307,-4.9258 14.54055,-8.23343 22.19244,-9.9229c0.23255,-0.03828 0.48425,0.03972 0.75508,0.23399c0.13542,0.09714 0.27083,0.19427 0.40625,0.29141c0.05417,0.03885 0.12187,0.08742 0.20313,0.14571c3.91004,3.58413 6.8569,7.33874 8.84058,11.26384M513.01073,492.11791c2.54057,2.51973 4.6799,5.14133 6.41801,7.86481c-0.03885,0.05417 -0.10097,0.11216 -0.18633,0.17398c-4.82757,3.75644 -8.70838,8.76628 -11.64242,15.02952c-0.08125,-0.05828 -0.15867,-0.09331 -0.23227,-0.10508c-6.21492,-1.91492 -12.58296,-4.76005 -19.10411,-8.53541c-1.61792,-0.83242 -2.11369,-1.88537 -1.48732,-3.15887c0.55632,-1.11865 1.21331,-2.2061 1.97098,-3.26235c5.09823,-7.33604 10.64754,-12.5847 16.64793,-15.74596c2.4552,2.58155 4.99371,5.16134 7.61552,7.73935M536.64495,493.56604c-0.03885,0.05417 -0.08154,0.08508 -0.12805,0.09273c-4.21248,0.38288 -8.27921,1.5061 -12.2002,3.36967c-0.08125,-0.05828 -0.13924,-0.12039 -0.17398,-0.18633c-4.63957,-4.96883 -9.33742,-9.85641 -14.09355,-14.66274c0.05828,-0.08125 0.12039,-0.13924 0.18633,-0.17398c6.58733,-4.09387 13.57099,-5.85249 20.95098,-5.27585c0.05417,0.03885 0.09862,0.09125 0.13336,0.15719c3.00757,5.35689 4.78261,10.91666 5.32511,16.67931z" fill="#475d82"/><path d="M549.24733,498.29901c-0.03885,0.05417 -0.06417,0.11805 -0.07594,0.19164c-0.11829,1.02266 -0.26955,2.06269 -0.45378,3.1201c-0.03885,0.05417 -0.08742,0.12188 -0.14571,0.20313c-2.80637,4.42693 -5.72934,8.07289 -8.76892,10.93788c-0.08125,-0.05828 -0.11216,-0.10097 -0.09273,-0.12805c1.11839,-5.1045 1.6922,-10.10742 1.72141,-15.00876c0.05417,0.03885 0.11805,0.06417 0.19164,0.07594c2.53752,0.17945 5.07886,0.38216 7.62403,0.60813M543.89139,502.76345c0.05417,0.03885 0.12187,0.08742 0.20313,0.14571c0.20901,0.10891 0.41214,0.25462 0.60938,0.43712c1.95288,-0.03482 2.72998,-1.11816 2.3313,-3.25c-0.12661,-0.62407 -0.53286,-0.91548 -1.21875,-0.87424c-0.08125,-0.05828 -0.14513,-0.0836 -0.19164,-0.07594c-2.55398,0.30097 -3.13178,1.50675 -1.73341,3.61735z" fill="#455a7e"/><path d="M536.01638,459.27439c0.05417,0.03885 0.12187,0.08742 0.20313,0.14571c5.88062,4.38238 9.53256,9.1555 10.9558,14.31935c-0.03885,0.05417 -0.08154,0.08508 -0.12805,0.09273c-4.61643,-1.05542 -9.09682,-1.35695 -13.44118,-0.90459c-3.08643,-4.67512 -6.53524,-9.30253 -10.34642,-13.88223c-0.08125,-0.05828 -0.14896,-0.10685 -0.20312,-0.14571c1.42595,-0.04363 2.83658,-0.18029 4.23191,-0.40996c0.06594,-0.03474 0.11833,-0.07919 0.15719,-0.13336c0.05828,-0.08125 0.10097,-0.11216 0.12805,-0.09273c2.77419,0.02107 5.58842,0.358 8.44271,1.01079M541.06993,466.46808c-0.00766,-0.04651 0.00794,-0.09685 0.0468,-0.15102c-2.8873,-1.57889 -5.77077,-3.13453 -8.65041,-4.66692c-0.08125,-0.05828 -0.14896,-0.10685 -0.20312,-0.14571c-0.27083,-0.19427 -0.45836,-0.39032 -0.56258,-0.58813c-0.23552,-0.41506 -0.32825,-0.54311 -0.2782,-0.38415c0.40337,1.72502 1.61097,3.3296 3.62279,4.81374c-0.03885,0.05417 -0.068,0.09479 -0.08742,0.12188c1.44958,1.69612 2.55032,3.44966 3.30224,5.26062l-0.05828,0.08125c0.50281,0.44272 0.83135,0.84246 0.98562,1.19924c0.28318,-0.16604 0.63172,-0.0801 1.04563,0.25782l0.05828,-0.08125c0.05417,0.03885 0.12187,0.08742 0.20313,0.14571c0.05417,0.03885 0.12187,0.08742 0.20313,0.14571c2.26191,-1.49494 2.38604,-3.49787 0.37241,-6.00879z" fill="#475c80"/></g></g></svg>