<svg version="1.1" xmlns="http://www.w3.org/2000/svg" xmlns:xlink="http://www.w3.org/1999/xlink" width="36.94855" height="75.17452" viewBox="0,0,36.94855,75.17452"><g transform="translate(-615.41795,-331.49901)"><g data-paper-data="{&quot;isPaintingLayer&quot;:true}" fill-rule="nonzero" stroke="none" stroke-width="1" stroke-linecap="round" stroke-linejoin="miter" stroke-miterlimit="4" stroke-dasharray="" stroke-dashoffset="0" style="mix-blend-mode: normal"><path d="M648.454,353.95901c1.1,1.7 1.88333,3.35 2.35,4.95c1.66667,5.03333 2,10.3 1,15.8c-0.63333,3.56667 -1.75,6.88333 -3.35,9.95c-0.83333,1.63333 -1.81667,3.2 -2.95,4.7c-1.33333,1.76667 -3.71667,4.36667 -7.15,7.8c-2.96667,2.96667 -5.4,5.2 -7.3,6.7c-2.13333,1.76667 -4.01667,2.7 -5.65,2.8c-1.46667,0.1 -2.88333,-0.31667 -4.25,-1.25c-1.3,-0.86667 -2.33333,-2 -3.1,-3.4c-1,-1.86667 -1.31667,-3.68333 -0.95,-5.45c0.3,-1.16667 0.93333,-2.31667 1.9,-3.45c0.5,-0.6 1.48333,-1.55 2.95,-2.85c4.6,-4.13333 8.16667,-8.5 10.7,-13.1c1.66667,-2.93333 2.53333,-5.51667 2.6,-7.75c0.03333,-1.86667 -0.4,-3.91667 -1.3,-6.15c-0.8,-1.93333 -1.9,-3.86667 -3.3,-5.8c-1.26667,-1.76667 -2.95,-3.73333 -5.05,-5.9l-6.4,-6.4c-1.43333,-1.43333 -2.43333,-2.68333 -3,-3.75c-0.86667,-1.7 -1.01667,-3.26667 -0.45,-4.7c0.73333,-1.73333 2.33333,-2.88333 4.8,-3.45c0.9,-0.13333 1.55,-0.3 1.95,-0.5c0.76667,-0.56667 1.36667,-0.93333 1.8,-1.1c1.06667,-0.4 2.46667,-0.05 4.2,1.05c1.73333,1.2 3.96667,3.2 6.7,6c2.66667,2.7 5.65,5.93333 8.95,9.7c1.73333,2.03333 3.03333,3.68333 3.9,4.95c0.13333,0.2 0.26667,0.4 0.4,0.6M627.754,339.70901c-1.03333,-1.03333 -1.88333,-1.68333 -2.55,-1.95c-1.36667,-0.5 -3.05,-0.23333 -5.05,0.8c1,1.33333 2.35,2.8 4.05,4.4c2.03333,1.8 3.53333,3.15 4.5,4.05c3.06667,2.93333 5.6,5.91667 7.6,8.95c2.03333,3.1 3.4,6.13333 4.1,9.1c0.5,2.2 0.6,4.38333 0.3,6.55c-0.3,2.26667 -0.98333,4.33333 -2.05,6.2c-0.9,2.8 -2.83333,5.88333 -5.8,9.25c-2.96667,3.46667 -5.96667,6.51667 -9,9.15c-0.73333,0.66667 -1.13333,1.25 -1.2,1.75c-0.03333,0.36667 0.11667,0.85 0.45,1.45c0.5,0.83333 1.08333,1.25 1.75,1.25c0.4,-0.03333 0.8,-0.2 1.2,-0.5c2.6,-1.73333 5.81667,-4.58333 9.65,-8.55c2.5,-2.56667 4.35,-4.66667 5.55,-6.3c2.5,-3.53333 4.13333,-7.41667 4.9,-11.65c0.73333,-4.26667 0.53333,-8.35 -0.6,-12.25l0.25,0.6c-0.96667,-2.6 -2.53333,-5.28333 -4.7,-8.05c-1.33333,-1.7 -3.43333,-4.03333 -6.3,-7z" fill="#000000"/><path d="M645.804,362.00901l-0.25,-0.6c1.13333,3.9 1.33333,7.98333 0.6,12.25c-0.76667,4.23333 -2.4,8.11667 -4.9,11.65c-1.2,1.63333 -3.05,3.73333 -5.55,6.3c-3.83333,3.96667 -7.05,6.81667 -9.65,8.55c-0.4,0.3 -0.8,0.46667 -1.2,0.5c-0.66667,0 -1.25,-0.41667 -1.75,-1.25c-0.33333,-0.6 -0.48333,-1.08333 -0.45,-1.45c0.06667,-0.5 0.46667,-1.08333 1.2,-1.75c3.03333,-2.63333 6.03333,-5.68333 9,-9.15c2.96667,-3.36667 4.9,-6.45 5.8,-9.25c1.06667,-1.86667 1.75,-3.93333 2.05,-6.2c0.3,-2.16667 0.2,-4.35 -0.3,-6.55c-0.7,-2.96667 -2.06667,-6 -4.1,-9.1c-2,-3.03333 -4.53333,-6.01667 -7.6,-8.95c-0.96667,-0.9 -2.46667,-2.25 -4.5,-4.05c-1.7,-1.6 -3.05,-3.06667 -4.05,-4.4c2,-1.03333 3.68333,-1.3 5.05,-0.8c0.66667,0.26667 1.51667,0.91667 2.55,1.95l7.05,7.25c2.86667,2.96667 4.96667,5.3 6.3,7c2.16667,2.76667 3.73333,5.45 4.7,8.05z" fill="#ffffff"/></g></g></svg>