<svg version="1.1" xmlns="http://www.w3.org/2000/svg" xmlns:xlink="http://www.w3.org/1999/xlink" width="251.2" height="290.9" viewBox="0,0,251.2,290.9"><g transform="translate(-517.49459,-218.52958)"><g data-paper-data="{&quot;isPaintingLayer&quot;:true}" fill-rule="nonzero" stroke="none" stroke-width="1" stroke-linecap="round" stroke-linejoin="miter" stroke-miterlimit="4" stroke-dasharray="" stroke-dashoffset="0" style="mix-blend-mode: normal"><path d="M696.94459,492.72958c0,-4.6 1.35,-7.96667 4.05,-10.1c2.4,-1.9 5.38333,-2.5 8.95,-1.8c3.46667,0.7 6.43333,2.43333 8.9,5.2c2.7,3.03333 4.05,6.63333 4.05,10.8c0,2.96667 -0.88333,5.66667 -2.65,8.1c-2.16667,3 -5.2,4.5 -9.1,4.5c-6,0 -10.16667,-2.86667 -12.5,-8.6c-0.73333,-1.76667 -1.23333,-3.68333 -1.5,-5.75l-0.2,-2.35M706.34459,496.22958c-0.66667,1.23333 -1,2.23333 -1,3c0,0.1 0.13333,1.03333 0.4,2.8c0.7,1.76667 2.26667,2.65 4.7,2.65c2.1,0 3.65,-0.75 4.65,-2.25c0.66667,-1 1,-2.06667 1,-3.2c0,-1.63333 -1.03333,-3.33333 -3.1,-5.1c-3.13333,-2.66667 -5.23333,-4.71667 -6.3,-6.15c0,0.03333 -0.11667,0.1 -0.35,0.2c-0.23333,0.13333 -0.4,0.26667 -0.5,0.4c0.03333,0.7 0.28333,1.65 0.75,2.85c0.5,1.2 0.75,2.05 0.75,2.55c0,0.23333 -0.33333,0.98333 -1,2.25M567.89459,461.42958c-0.06667,-0.56667 -0.1,-1.28333 -0.1,-2.15c0,-3.96667 1.4,-7.16667 4.2,-9.6c2.46667,-2.16667 5.55,-3.36667 9.25,-3.6c3.6,-0.2 6.66667,0.56667 9.2,2.3c2.8,1.93333 4.2,4.61667 4.2,8.05c0,2.5 -1.83333,5.6 -5.5,9.3c-3.73333,3.7 -6.93333,5.55 -9.6,5.55c-5.16667,0 -8.66667,-1.91667 -10.5,-5.75c-0.6,-1.23333 -0.98333,-2.6 -1.15,-4.1M572.84459,458.92958c0,0.06667 0.23333,1.48333 0.7,4.25c0.96667,2.7 2.78333,4.05 5.45,4.05c2.93333,0 4.86667,-1.23333 5.8,-3.7c0.36667,-1.03333 0.55,-2.56667 0.55,-4.6c0,-1.03333 0.08333,-1.66667 0.25,-1.9c0.36667,-0.7 0.83333,-2.18333 1.4,-4.45c-0.33333,-0.46667 -0.75,-0.8 -1.25,-1c-0.76667,0.36667 -1.53333,0.91667 -2.3,1.65l-1.05,1c-0.4,0 -1.13333,-0.2 -2.2,-0.6c-1.03333,-0.43333 -1.76667,-0.65 -2.2,-0.65c-2.06667,0 -3.53333,0.86667 -4.4,2.6c-0.5,1 -0.75,2.11667 -0.75,3.35M547.79459,427.92958c0,3.53333 -3.13333,7.13333 -9.4,10.8c-6.36667,3 -9.61667,4.5 -9.75,4.5c-4.86667,0 -8.16667,-1.63333 -9.9,-4.9c-0.83333,-1.53333 -1.25,-3.41667 -1.25,-5.65c0,-3.06667 1.58333,-5.91667 4.75,-8.55c2.9,-2.46667 6.36667,-4.16667 10.4,-5.1c4.16667,-0.96667 7.63333,-0.78333 10.4,0.55c3.16667,1.5 4.75,4.28333 4.75,8.35M539.89459,426.47958c-0.1,-0.16667 -0.56667,-0.25 -1.4,-0.25c-1.66667,0 -3.81667,-0.23333 -6.45,-0.7c-2.56667,-0.43333 -4.28333,-0.65 -5.15,-0.65c-3.1,0.1 -4.65,2.63333 -4.65,7.6c0,0.06667 0.3,1.31667 0.9,3.75c1.2,2.4 3.31667,3.6 6.35,3.6c2.1,0 3.9,-0.83333 5.4,-2.5c1.23333,-1.36667 1.85,-2.68333 1.85,-3.95c0,-0.86667 -0.08333,-1.91667 -0.25,-3.15c0.26667,-0.43333 0.93333,-0.85 2,-1.25c1,-0.33333 1.63333,-0.91667 1.9,-1.75l-0.5,-0.75M556.94459,291.92958c2.56667,2.33333 3.85,4.76667 3.85,7.3c0,2.76667 -0.96667,5.11667 -2.9,7.05c-1.93333,1.9 -4.2,2.85 -6.8,2.85c-6.33333,0 -10.73333,-2.41667 -13.2,-7.25c-0.73333,-1.4 -1.23333,-2.9 -1.5,-4.5l-0.15,-1.15c0.00299,-3.93516 1.28633,-6.66849 3.85,-8.2c2.2,-1.3 5.01667,-1.51667 8.45,-0.65c3.2,0.8 6,2.31667 8.4,4.55M549.99459,293.37958c-1.56667,-2.83333 -3.4,-3.58333 -5.5,-2.25c-1.9,1.16667 -2.85,2.58333 -2.85,4.25c0,0.8 1.78333,2.2 5.35,4.2c3.43333,1.86667 5.51667,2.8 6.25,2.8c0.83333,0 1.08333,-0.1 0.75,-0.3l0.25,-0.75c-1.1,-1.83333 -1.9,-3.16667 -2.4,-4c-0.9,-1.5 -1.51667,-2.81667 -1.85,-3.95M631.34459,221.67958c2.6,2.33333 3.9,5.5 3.9,9.5c0,2.16667 -1.23333,5.08333 -3.7,8.75c-2.36667,3.53333 -4.15,5.3 -5.35,5.3c-6.16667,0 -10.65,-2.18333 -13.45,-6.55c-1.63333,-2.56667 -2.45,-5.06667 -2.45,-7.5c0,-4 1.3,-7.16667 3.9,-9.5c2.33333,-2.1 5.2,-3.15 8.6,-3.15c3.36667,0 6.21667,1.05 8.55,3.15M621.99459,222.32958c-1.66667,0 -3.08333,0.5 -4.25,1.5c-1.26667,1.13333 -1.9,2.68333 -1.9,4.65c0,1.13333 0.45,2 1.35,2.6c1.73333,1.06667 3.36667,2.56667 4.9,4.5c0.16667,0.2 0.65,1.7 1.45,4.5c0.63333,2.16667 1.51667,3.25 2.65,3.25c0.43333,0 0.85,-0.16667 1.25,-0.5c0.43333,-0.36667 0.65,-0.81667 0.65,-1.35c0,-0.13333 -0.33333,-1.36667 -1,-3.7c-0.66667,-2.3 -1,-3.73333 -1,-4.3c0,-0.13333 0.33333,-0.81667 1,-2.05c0.66667,-1.23333 1,-2.25 1,-3.05c0,-1.9 -0.63333,-3.41667 -1.9,-4.55c-1.16667,-1 -2.56667,-1.5 -4.2,-1.5M693.74459,242.92958c2.8,0 5.18333,0.83333 7.15,2.5c2.16667,1.83333 3.25,4.3 3.25,7.4c0,2.36667 -0.8,4.45 -2.4,6.25c-1.93333,2.16667 -4.63333,3.25 -8.1,3.25c-4.43333,0 -7.48333,-1.5 -9.15,-4.5c-0.8,-1.46667 -1.2,-3.13333 -1.2,-5c0,-3.1 1.08333,-5.56667 3.25,-7.4c1.96667,-1.66667 4.36667,-2.5 7.2,-2.5M691.19459,256.67958c5.33333,0 8,-1.45 8,-4.35c0,-1.4 -0.5,-2.46667 -1.5,-3.2c-0.96667,-0.7 -2.08333,-0.95 -3.35,-0.75c-3.26667,0.46667 -4.9,2.65 -4.9,6.55c0,1.16667 0.58333,1.75 1.75,1.75M747.44459,444.42958c0,2.96667 -0.95,5.5 -2.85,7.6c-2.2,2.5 -5.3,3.75 -9.3,3.75c-5.4,0 -9.21667,-1.85 -11.45,-5.55c-0.7,-1.16667 -1.2,-2.45 -1.5,-3.85l-0.25,-1.75c0,-4.4 1.31667,-7.65 3.95,-9.75c2.33333,-1.86667 5.25,-2.61667 8.75,-2.25c3.33333,0.36667 6.23333,1.6 8.7,3.7c2.63333,2.3 3.95,5 3.95,8.1M741.99459,441.72958c-0.93333,-1.5 -2.7,-2.25 -5.3,-2.25c-0.4,0 -1.13333,0.16667 -2.2,0.5c-1.06667,0.33333 -1.81667,0.5 -2.25,0.5c-1.4,-0.56667 -2.4,-0.96667 -3,-1.2c-1.1,-0.43333 -1.65,0.11667 -1.65,1.65c0,0.46667 0.91667,2.13333 2.75,5c2.1,3.2 3.8,4.8 5.1,4.8c2.26667,0 4.11667,-0.88333 5.55,-2.65c1.06667,-1.36667 1.6,-2.68333 1.6,-3.95c0.06667,-0.83333 -0.13333,-1.63333 -0.6,-2.4M756.04459,290.42958c3.36667,-0.06667 6.26667,0.86667 8.7,2.8c2.63333,2.1 3.95,4.86667 3.95,8.3c0,2.6 -1.1,5.13333 -3.3,7.6c-2.96667,3.3 -7.16667,4.95 -12.6,4.95c-3.96667,0 -6.71667,-1.51667 -8.25,-4.55c-0.8,-1.53333 -1.2,-3.25 -1.2,-5.15c0,-4.43333 1.31667,-7.91667 3.95,-10.45c2.33333,-2.23333 5.25,-3.4 8.75,-3.5M762.59459,301.92958c0,-4.76667 -2.43333,-6.23333 -7.3,-4.4c-1.8,0.66667 -3.48333,1.63333 -5.05,2.9c-1.53333,1.23333 -2.3,2.16667 -2.3,2.8c0,0.53333 0.03333,0.85 0.1,0.95c0.06667,0.06667 0.2,0.13333 0.4,0.2c0.5,0.16667 1.16667,0.25 2,0.25c0.9,0 1.76667,0.36667 2.6,1.1c0.83333,0.73333 2.21667,1.1 4.15,1.1c1.9,0 3.33333,-0.56667 4.3,-1.7c0.73333,-0.86667 1.1,-1.93333 1.1,-3.2M759.49459,245.22958c2.56667,2.26667 3.85,5.48333 3.85,9.65c0,2.53333 -1.03333,5.01667 -3.1,7.45c-2.43333,2.9 -5.46667,4.35 -9.1,4.35c-5.1,0 -8.73333,-2.11667 -10.9,-6.35c-0.66667,-1.3 -1.15,-2.7 -1.45,-4.2l-0.2,-1.45c0,-3.6 1.28333,-6.56667 3.85,-8.9c2.36667,-2.1 5.21667,-3.21667 8.55,-3.35c3.36667,-0.13333 6.2,0.8 8.5,2.8M758.19459,254.12958c0,-1.2 -0.88333,-2.7 -2.65,-4.5c-2.03333,-2 -3.9,-2.51667 -5.6,-1.55c-0.73333,0.4 -1.8,1.85 -3.2,4.35c-1.26667,2.33333 -1.9,3.71667 -1.9,4.15c0,0.83333 0.03333,1.2 0.1,1.1l1.75,0.65c1,-0.23333 1.9,-0.16667 2.7,0.2c1,0.43333 1.93333,0.65 2.8,0.65c4,0 6,-1.68333 6,-5.05z" fill="#00ff00"/><path d="M707.34459,493.97958c0,-0.5 -0.25,-1.35 -0.75,-2.55c-0.46667,-1.2 -0.71667,-2.15 -0.75,-2.85c0.1,-0.13333 0.26667,-0.26667 0.5,-0.4c0.23333,-0.1 0.35,-0.16667 0.35,-0.2c1.06667,1.43333 3.16667,3.48333 6.3,6.15c2.06667,1.76667 3.1,3.46667 3.1,5.1c0,1.13333 -0.33333,2.2 -1,3.2c-1,1.5 -2.55,2.25 -4.65,2.25c-2.43333,0 -4,-0.88333 -4.7,-2.65c-0.26667,-1.76667 -0.4,-2.7 -0.4,-2.8c0,-0.76667 0.33333,-1.76667 1,-3c0.66667,-1.26667 1,-2.01667 1,-2.25M573.59459,455.57958c0.86667,-1.73333 2.33333,-2.6 4.4,-2.6c0.43333,0 1.16667,0.21667 2.2,0.65c1.06667,0.4 1.8,0.6 2.2,0.6l1.05,-1c0.76667,-0.73333 1.53333,-1.28333 2.3,-1.65c0.5,0.2 0.91667,0.53333 1.25,1c-0.56667,2.26667 -1.03333,3.75 -1.4,4.45c-0.16667,0.23333 -0.25,0.86667 -0.25,1.9c0,2.03333 -0.18333,3.56667 -0.55,4.6c-0.93333,2.46667 -2.86667,3.7 -5.8,3.7c-2.66667,0 -4.48333,-1.35 -5.45,-4.05c-0.46667,-2.76667 -0.7,-4.18333 -0.7,-4.25c0,-1.23333 0.25,-2.35 0.75,-3.35M540.39459,427.22958c-0.26667,0.83333 -0.9,1.41667 -1.9,1.75c-1.06667,0.4 -1.73333,0.81667 -2,1.25c0.16667,1.23333 0.25,2.28333 0.25,3.15c0,1.26667 -0.61667,2.58333 -1.85,3.95c-1.5,1.66667 -3.3,2.5 -5.4,2.5c-3.03333,0 -5.15,-1.2 -6.35,-3.6c-0.6,-2.43333 -0.9,-3.68333 -0.9,-3.75c0,-4.96667 1.55,-7.5 4.65,-7.6c0.86667,0 2.58333,0.21667 5.15,0.65c2.63333,0.46667 4.78333,0.7 6.45,0.7c0.83333,0 1.3,0.08333 1.4,0.25l0.5,0.75M551.84459,297.32958c0.5,0.83333 1.3,2.16667 2.4,4l-0.25,0.75c0.33333,0.2 0.08333,0.3 -0.75,0.3c-0.73333,0 -2.81667,-0.93333 -6.25,-2.8c-3.56667,-2 -5.35,-3.4 -5.35,-4.2c0,-1.66667 0.95,-3.08333 2.85,-4.25c2.1,-1.33333 3.93333,-0.58333 5.5,2.25c0.33333,1.13333 0.95,2.45 1.85,3.95M626.19459,223.82958c1.26667,1.13333 1.9,2.65 1.9,4.55c0,0.8 -0.33333,1.81667 -1,3.05c-0.66667,1.23333 -1,1.91667 -1,2.05c0,0.56667 0.33333,2 1,4.3c0.66667,2.33333 1,3.56667 1,3.7c0,0.53333 -0.21667,0.98333 -0.65,1.35c-0.4,0.33333 -0.81667,0.5 -1.25,0.5c-1.13333,0 -2.01667,-1.08333 -2.65,-3.25c-0.8,-2.8 -1.28333,-4.3 -1.45,-4.5c-1.53333,-1.93333 -3.16667,-3.43333 -4.9,-4.5c-0.9,-0.6 -1.35,-1.46667 -1.35,-2.6c0,-1.96667 0.63333,-3.51667 1.9,-4.65c1.16667,-1 2.58333,-1.5 4.25,-1.5c1.63333,0 3.03333,0.5 4.2,1.5M689.44459,254.92958c0,-3.9 1.63333,-6.08333 4.9,-6.55c1.26667,-0.2 2.38333,0.05 3.35,0.75c1,0.73333 1.5,1.8 1.5,3.2c0,2.9 -2.66667,4.35 -8,4.35c-1.16667,0 -1.75,-0.58333 -1.75,-1.75M742.59459,444.12958c0,1.26667 -0.53333,2.58333 -1.6,3.95c-1.43333,1.76667 -3.28333,2.65 -5.55,2.65c-1.3,0 -3,-1.6 -5.1,-4.8c-1.83333,-2.86667 -2.75,-4.53333 -2.75,-5c0,-1.53333 0.55,-2.08333 1.65,-1.65c0.6,0.23333 1.6,0.63333 3,1.2c0.43333,0 1.18333,-0.16667 2.25,-0.5c1.06667,-0.33333 1.8,-0.5 2.2,-0.5c2.6,0 4.36667,0.75 5.3,2.25c0.46667,0.76667 0.66667,1.56667 0.6,2.4M761.49459,305.12958c-0.96667,1.13333 -2.4,1.7 -4.3,1.7c-1.93333,0 -3.31667,-0.36667 -4.15,-1.1c-0.83333,-0.73333 -1.7,-1.1 -2.6,-1.1c-0.83333,0 -1.5,-0.08333 -2,-0.25c-0.2,-0.06667 -0.33333,-0.13333 -0.4,-0.2c-0.06667,-0.1 -0.1,-0.41667 -0.1,-0.95c0,-0.63333 0.76667,-1.56667 2.3,-2.8c1.56667,-1.26667 3.25,-2.23333 5.05,-2.9c4.86667,-1.83333 7.3,-0.36667 7.3,4.4c0,1.26667 -0.36667,2.33333 -1.1,3.2M746.69459,258.32958l-1.75,-0.65c-0.06667,0.1 -0.1,-0.26667 -0.1,-1.1c0,-0.43333 0.63333,-1.81667 1.9,-4.15c1.4,-2.5 2.46667,-3.95 3.2,-4.35c1.7,-0.96667 3.56667,-0.45 5.6,1.55c1.76667,1.8 2.65,3.3 2.65,4.5c0,3.36667 -2,5.05 -6,5.05c-0.86667,0 -1.8,-0.21667 -2.8,-0.65c-0.8,-0.36667 -1.7,-0.43333 -2.7,-0.2z" fill="#ffffff"/></g></g></svg>