<svg version="1.1" xmlns="http://www.w3.org/2000/svg" xmlns:xlink="http://www.w3.org/1999/xlink" width="42.65143" height="63.99" viewBox="0,0,42.65143,63.99"><g transform="translate(-610.10811,-337.83784)"><g data-paper-data="{&quot;isPaintingLayer&quot;:true}" fill-rule="nonzero" stroke="none" stroke-width="1" stroke-linecap="butt" stroke-linejoin="miter" stroke-miterlimit="10" stroke-dasharray="" stroke-dashoffset="0" style="mix-blend-mode: normal"><path d="M652.70811,348.73784c0.2,2.66667 -0.18333,5.16667 -1.15,7.5c-0.1,0.1 -0.2,0.18333 -0.3,0.25c-0.13333,0.1 -0.28333,0.16667 -0.45,0.2c-3.7,0.9 -7.5,1.5 -11.4,1.8c0,0.1 0,0.18333 0,0.25c0,0.1 0,0.2 0,0.3c0,1.06667 0.01667,2.13333 0.05,3.2c0.1,1.73333 -0.01667,3.43333 -0.35,5.1c0,0.06667 -0.01667,0.15 -0.05,0.25c0,0.1 0,0.18333 0,0.25c0,0.1 0,0.2 0,0.3c0,1.7 -0.01667,3.4 -0.05,5.1c-0.03333,2.3 -0.05,4.61667 -0.05,6.95c0,0.06667 0.01667,0.1 0.05,0.1c0.13333,0.03333 0.26667,0.03333 0.4,0c3.16667,-0.63333 6.15,-0.21667 8.95,1.25c0.06667,0.06667 0.15,0.15 0.25,0.25c0.06667,0.1 0.13333,0.18333 0.2,0.25c0.2,0.26667 0.33333,0.55 0.4,0.85c0.06667,0.33333 0.16667,0.68333 0.3,1.05c0.1,0.36667 0.21667,0.71667 0.35,1.05c0,0.1 0,0.2 0,0.3c0,0.06667 0,0.15 0,0.25c0,0.1 0,0.18333 0,0.25c0,0.1 0,0.2 0,0.3c0,0.06667 0,0.15 0,0.25c0,0.1 0,0.18333 0,0.25c0.03333,0.1 0.06667,0.2 0.1,0.3c0.03333,0.06667 0.06667,0.15 0.1,0.25c0,0.1 0.01667,0.18333 0.05,0.25c0,0.1 0,0.2 0,0.3c0,0.06667 0,0.15 0,0.25c0,0.16667 0,0.35 0,0.55c0,0.16667 0,0.35 0,0.55c0,0.16667 0,0.33333 0,0.5c0.03333,0.1 0.06667,0.2 0.1,0.3c0.03333,0.06667 0.06667,0.15 0.1,0.25c0.03333,0.1 0.06667,0.18333 0.1,0.25c0.03333,0.1 0.06667,0.2 0.1,0.3c0,0.06667 0,0.15 0,0.25c0,0.1 -0.01667,0.18333 -0.05,0.25c0,0.26667 0,0.53333 0,0.8c0,0.26667 0,0.55 0,0.85c0.03333,0.33333 0.05,0.68333 0.05,1.05c0,0.1 0.01667,0.18333 0.05,0.25c0.03333,0.1 0.06667,0.2 0.1,0.3c0.03333,0.06667 0.06667,0.15 0.1,0.25c0.03333,0.1 0.06667,0.18333 0.1,0.25c0,0.1 0,0.2 0,0.3c0,0.06667 0,0.15 0,0.25c0,0.16667 0,0.35 0,0.55c0,0.16667 0,0.35 0,0.55c0,0.16667 0,0.33333 0,0.5c-0.46667,1.76667 -1.6,2.8 -3.4,3.1c-11.53333,1.73333 -23.08333,2.13333 -34.65,1.2c-0.1,-0.1 -0.18333,-0.18333 -0.25,-0.25c-0.1,-0.1 -0.18333,-0.2 -0.25,-0.3c-0.2,-0.26667 -0.38333,-0.53333 -0.55,-0.8c-0.13333,-0.26667 -0.25,-0.53333 -0.35,-0.8c-0.06667,-0.16667 -0.13333,-0.35 -0.2,-0.55c0,-0.06667 0,-0.15 0,-0.25c0,-0.1 0,-0.18333 0,-0.25c0,-0.1 0,-0.2 0,-0.3c-0.03333,-0.06667 -0.06667,-0.15 -0.1,-0.25c-0.03333,-0.1 -0.06667,-0.18333 -0.1,-0.25c-0.03333,-0.1 -0.05,-0.2 -0.05,-0.3c-0.03333,-0.06667 -0.06667,-0.15 -0.1,-0.25c0,-0.1 0,-0.18333 0,-0.25c0,-0.1 0,-0.2 0,-0.3c0,-0.06667 0,-0.15 0,-0.25c0,-0.1 0,-0.2 0,-0.3c0,-0.06667 0,-0.15 0,-0.25c-0.03333,-0.1 -0.06667,-0.18333 -0.1,-0.25c-0.03333,-0.1 -0.06667,-0.2 -0.1,-0.3c-0.03333,-0.06667 -0.06667,-0.15 -0.1,-0.25c0,-0.1 -0.01667,-0.18333 -0.05,-0.25c0,-0.1 0,-0.2 0,-0.3c0,-0.06667 0,-0.15 0,-0.25c0,-0.16667 0,-0.35 0,-0.55c0,-0.16667 0,-0.33333 0,-0.5c0,-0.2 0,-0.38333 0,-0.55c-0.03333,-0.1 -0.06667,-0.2 -0.1,-0.3c-0.03333,-0.06667 -0.06667,-0.15 -0.1,-0.25c-0.03333,-0.1 -0.06667,-0.18333 -0.1,-0.25c-0.03333,-0.1 -0.06667,-0.2 -0.1,-0.3c0,-0.06667 0,-0.15 0,-0.25c0,-0.1 0,-0.18333 0,-0.25c0,-0.63333 0,-1.26667 0,-1.9c0,-1.16667 0.03333,-2.31667 0.1,-3.45c0,-0.26667 0.03333,-0.53333 0.1,-0.8c0.06667,-0.1 0.13333,-0.2 0.2,-0.3c0.03333,-0.1 0.08333,-0.18333 0.15,-0.25c0.06667,-0.1 0.13333,-0.18333 0.2,-0.25c0.06667,-0.1 0.15,-0.2 0.25,-0.3c0.1,-0.1 0.18333,-0.18333 0.25,-0.25c0.2,-0.1 0.38333,-0.18333 0.55,-0.25c0.23333,-0.06667 0.48333,-0.13333 0.75,-0.2c3.23333,-0.66667 6.53333,-1.11667 9.9,-1.35c0,-0.1 0,-0.18333 0,-0.25c0,-0.1 0,-0.2 0,-0.3c0,-1.33333 0,-2.66667 0,-4c0,-2.13333 0,-4.28333 0,-6.45c-0.03333,-0.06667 -0.06667,-0.15 -0.1,-0.25c-0.06667,-0.1 -0.1,-0.18333 -0.1,-0.25c-0.16667,-1.33333 -0.23333,-2.68333 -0.2,-4.05c0.03333,-2.03333 0.05,-4.08333 0.05,-6.15c-0.03333,-0.1 -0.08333,-0.18333 -0.15,-0.25c-0.03333,-0.1 -0.06667,-0.2 -0.1,-0.3c-0.03333,-0.06667 -0.05,-0.15 -0.05,-0.25c-0.03333,-0.1 -0.06667,-0.18333 -0.1,-0.25c-0.03333,-0.03333 -0.08333,-0.05 -0.15,-0.05c-0.16667,0 -0.31667,0.01667 -0.45,0.05c-2.36667,0.53333 -4.75,0.7 -7.15,0.5c-0.53333,-0.06667 -1.03333,-0.23333 -1.5,-0.5c-0.1,-0.1 -0.2,-0.2 -0.3,-0.3c-0.06667,-0.06667 -0.15,-0.15 -0.25,-0.25c-0.13333,-0.16667 -0.23333,-0.35 -0.3,-0.55c-0.1,-0.16667 -0.18333,-0.33333 -0.25,-0.5c-0.06667,-0.2 -0.11667,-0.38333 -0.15,-0.55c0,-0.1 0,-0.2 0,-0.3c0,-0.06667 0,-0.15 0,-0.25c0,-0.36667 0,-0.71667 0,-1.05c0,-0.46667 0,-0.91667 0,-1.35c0,-0.36667 0.01667,-0.71667 0.05,-1.05c0,-0.1 0,-0.2 0,-0.3c0,-0.1 -0.01667,-0.18333 -0.05,-0.25c-0.03333,-0.1 -0.06667,-0.2 -0.1,-0.3c-0.03333,-0.06667 -0.06667,-0.15 -0.1,-0.25c0,-0.1 0,-0.18333 0,-0.25c0,-0.1 0,-0.2 0,-0.3c-0.03333,-0.63333 -0.01667,-1.25 0.05,-1.85c0.1,-1.16667 0.21667,-2.33333 0.35,-3.5c0.03333,-0.26667 0.05,-0.53333 0.05,-0.8c-0.06667,-0.1 -0.13333,-0.18333 -0.2,-0.25c-0.06667,-0.1 -0.15,-0.2 -0.25,-0.3c-0.06667,-0.06667 -0.11667,-0.15 -0.15,-0.25c-0.03333,-0.1 -0.06667,-0.18333 -0.1,-0.25c-0.03333,-0.1 -0.06667,-0.2 -0.1,-0.3c0,-0.06667 0,-0.15 0,-0.25c0,-0.1 0,-0.18333 0,-0.25c0,-0.1 0,-0.2 0,-0.3c0,-0.06667 0,-0.15 0,-0.25c0.03333,-0.1 0.06667,-0.18333 0.1,-0.25c0.03333,-0.1 0.06667,-0.2 0.1,-0.3c0,-0.06667 0.01667,-0.15 0.05,-0.25c0.03333,-0.1 0.06667,-0.18333 0.1,-0.25c0.06667,-0.1 0.13333,-0.18333 0.2,-0.25c0.5,-0.56667 1.08333,-0.93333 1.75,-1.1c4.73333,-1.2 9.58333,-1.83333 14.55,-1.9c0.5,0 0.91667,-0.03333 1.25,-0.1c3.33333,0 6.66667,0.01667 10,0.05c3.03333,0.03333 6.06667,0.2 9.1,0.5c2.33333,0.23333 3.8,1.45 4.4,3.65c0,0.1 0,0.2 0,0.3c0,0.06667 0,0.15 0,0.25c0.1,2.03333 0.21667,4.08333 0.35,6.15M646.20811,344.13784c-2.43333,-0.03333 -4.88333,-0.05 -7.35,-0.05c-4.66667,-0.2 -9.31667,-0.06667 -13.95,0.4c-2.4,0.23333 -4.81667,0.41667 -7.25,0.55c-0.73333,0.03333 -1.45,0.11667 -2.15,0.25c0,0.06667 0,0.15 0,0.25c0.06667,0.26667 0.1,0.53333 0.1,0.8c0,0.16667 0.01667,0.35 0.05,0.55c0,0.16667 0.01667,0.33333 0.05,0.5c0,0.1 0,0.2 0,0.3c0.03333,0.36667 0.06667,0.71667 0.1,1.05c0.06667,0.46667 0.11667,0.91667 0.15,1.35c0,0.1 0,0.18333 0,0.25c0.06667,0.2 0.15,0.38333 0.25,0.55c0.03333,0.1 0.06667,0.2 0.1,0.3c0.03333,0.06667 0.05,0.15 0.05,0.25c0,0.1 0,0.18333 0,0.25c0,0.2 0,0.38333 0,0.55c0,0.1 0,0.18333 0,0.25c0,0.1 0,0.2 0,0.3c0,0.06667 0.03333,0.11667 0.1,0.15c0.13333,0.1 0.28333,0.16667 0.45,0.2c0.2,-0.06667 0.38333,-0.11667 0.55,-0.15c1.16667,-0.33333 2.35,-0.61667 3.55,-0.85c2,-0.4 3.83333,-0.13333 5.5,0.8c1.23333,0.7 1.78333,1.78333 1.65,3.25c-0.06667,0.43333 -0.1,0.86667 -0.1,1.3c0.03333,0.1 0.06667,0.2 0.1,0.3c0.26667,0.56667 0.36667,1.18333 0.3,1.85c0,0.1 0,0.18333 0,0.25c-0.03333,1.26667 -0.05,2.51667 -0.05,3.75c0,1.53333 0.01667,3.06667 0.05,4.6c0.3,0.66667 0.45,1.36667 0.45,2.1c-0.06667,3.33333 -0.01667,6.63333 0.15,9.9c0.13333,2.4 -0.33333,4.58333 -1.4,6.55c-0.4,0.76667 -1.05,1.11667 -1.95,1.05c-3.2,-0.3 -6.36667,-0.11667 -9.5,0.55c0,0.1 0,0.18333 0,0.25c0,0.1 0,0.2 0,0.3c0,0.06667 0,0.15 0,0.25c0,0.1 0,0.18333 0,0.25c0.03333,0.1 0.06667,0.2 0.1,0.3c0.1,0.26667 0.16667,0.53333 0.2,0.8c0,0.1 0,0.18333 0,0.25c0.03333,0.3 0.05,0.56667 0.05,0.8c0,0.1 0,0.2 0,0.3c0,0.16667 0,0.33333 0,0.5c0,0.1 0,0.2 0,0.3c0.03333,0.06667 0.06667,0.15 0.1,0.25c0.1,0.26667 0.16667,0.53333 0.2,0.8c0,0.1 0,0.2 0,0.3c0.03333,0.23333 0.05,0.5 0.05,0.8c0,0.06667 0,0.15 0,0.25c0,0.1 0.01667,0.18333 0.05,0.25c0,0.1 0.01667,0.2 0.05,0.3c5.16667,-0.1 10.48333,-0.26667 15.95,-0.5c3.83333,-0.16667 7.61667,-0.48333 11.35,-0.95c0.03333,-0.1 0.06667,-0.18333 0.1,-0.25c0,-0.2 0,-0.38333 0,-0.55c0,-0.1 0,-0.18333 0,-0.25c0,-0.1 0,-0.2 0,-0.3c0,-0.16667 0,-0.33333 0,-0.5c-0.03333,-0.1 -0.06667,-0.2 -0.1,-0.3c-0.1,-0.23333 -0.16667,-0.5 -0.2,-0.8c0,-0.06667 0,-0.15 0,-0.25c-0.03333,-0.3 -0.05,-0.56667 -0.05,-0.8c0,-0.1 0,-0.2 0,-0.3c0,-0.16667 0,-0.33333 0,-0.5c0,-0.3 0,-0.56667 0,-0.8c-0.03333,-0.1 -0.06667,-0.2 -0.1,-0.3c-0.03333,-0.16667 -0.06667,-0.33333 -0.1,-0.5c0,-0.1 -0.01667,-0.2 -0.05,-0.3c0,-0.06667 0,-0.15 0,-0.25c0,-0.2 0,-0.38333 0,-0.55c0,-0.06667 -0.01667,-0.1 -0.05,-0.1c-1.13333,-0.4 -2.28333,-0.43333 -3.45,-0.1c-0.16667,0.03333 -0.35,0.08333 -0.55,0.15c-1.76667,0.53333 -3.48333,0.43333 -5.15,-0.3c-0.1,-0.1 -0.2,-0.18333 -0.3,-0.25c-0.23333,-0.26667 -0.43333,-0.53333 -0.6,-0.8c-0.06667,-0.1 -0.11667,-0.2 -0.15,-0.3c-0.1,-0.23333 -0.2,-0.5 -0.3,-0.8c-0.03333,-0.1 -0.06667,-0.18333 -0.1,-0.25c-0.03333,-0.1 -0.06667,-0.2 -0.1,-0.3c0,-0.33333 0,-0.68333 0,-1.05c0,-0.43333 0,-0.88333 0,-1.35c0.03333,-2.6 0.01667,-5.18333 -0.05,-7.75c0,-1.43333 0,-2.86667 0,-4.3c0,-0.96667 0,-1.95 0,-2.95c0,-0.06667 0.01667,-0.15 0.05,-0.25c0.03333,-0.1 0.06667,-0.18333 0.1,-0.25c0.03333,-0.1 0.06667,-0.2 0.1,-0.3c0.03333,-0.06667 0.06667,-0.15 0.1,-0.25c0,-0.1 0,-0.2 0,-0.3c0,-0.6 0,-1.21667 0,-1.85c0,-0.1 0,-0.18333 0,-0.25c0,-0.8 0,-1.61667 0,-2.45c0,-1.13333 0,-2.28333 0,-3.45c0.03333,-0.1 0.05,-0.2 0.05,-0.3c0.1,-0.26667 0.18333,-0.53333 0.25,-0.8c0.03333,-0.06667 0.06667,-0.15 0.1,-0.25c0.1,-0.26667 0.15,-0.53333 0.15,-0.8c0,-0.1 0.01667,-0.18333 0.05,-0.25c0.06667,-0.1 0.13333,-0.2 0.2,-0.3c0.43333,-0.8 1.11667,-1.3 2.05,-1.5c0.6,-0.1 1.2,-0.18333 1.8,-0.25c2.73333,-0.36667 5.46667,-0.73333 8.2,-1.1c0,-0.1 0,-0.18333 0,-0.25c0,-0.43333 0,-0.88333 0,-1.35c0,-0.16667 0,-0.35 0,-0.55c0,-0.06667 0,-0.15 0,-0.25c0,-0.53333 0,-1.06667 0,-1.6c0,-1.06667 0,-2.11667 0,-3.15z" fill="#000000"/><path d="M646.20811,348.93784c0,0.1 0,0.18333 0,0.25c0,0.2 0,0.38333 0,0.55c0,0.46667 0,0.91667 0,1.35c0,0.06667 0,0.15 0,0.25c-2.73333,0.36667 -5.46667,0.73333 -8.2,1.1c-0.6,0.06667 -1.2,0.15 -1.8,0.25c-0.93333,0.2 -1.61667,0.7 -2.05,1.5c-0.06667,0.1 -0.13333,0.2 -0.2,0.3c-0.03333,0.06667 -0.05,0.15 -0.05,0.25c0,0.26667 -0.05,0.53333 -0.15,0.8c-0.03333,0.1 -0.06667,0.18333 -0.1,0.25c-0.06667,0.26667 -0.15,0.53333 -0.25,0.8c0,0.1 -0.01667,0.2 -0.05,0.3c0,1.16667 0,2.31667 0,3.45c0,0.83333 0,1.65 0,2.45c0,0.06667 0,0.15 0,0.25c0,0.63333 0,1.25 0,1.85c0,0.1 0,0.2 0,0.3c-0.03333,0.1 -0.06667,0.18333 -0.1,0.25c-0.03333,0.1 -0.06667,0.2 -0.1,0.3c-0.03333,0.06667 -0.06667,0.15 -0.1,0.25c-0.03333,0.1 -0.05,0.18333 -0.05,0.25c0,1 0,1.98333 0,2.95c0,1.43333 0,2.86667 0,4.3c0.06667,2.56667 0.08333,5.15 0.05,7.75c0,0.46667 0,0.91667 0,1.35c0,0.36667 0,0.71667 0,1.05c0.03333,0.1 0.06667,0.2 0.1,0.3c0.03333,0.06667 0.06667,0.15 0.1,0.25c0.1,0.3 0.2,0.56667 0.3,0.8c0.03333,0.1 0.08333,0.2 0.15,0.3c0.16667,0.26667 0.36667,0.53333 0.6,0.8c0.1,0.06667 0.2,0.15 0.3,0.25c1.66667,0.73333 3.38333,0.83333 5.15,0.3c0.2,-0.06667 0.38333,-0.11667 0.55,-0.15c1.16667,-0.33333 2.31667,-0.3 3.45,0.1c0.03333,0 0.05,0.03333 0.05,0.1c0,0.16667 0,0.35 0,0.55c0,0.1 0,0.18333 0,0.25c0.03333,0.1 0.05,0.2 0.05,0.3c0.03333,0.16667 0.06667,0.33333 0.1,0.5c0.03333,0.1 0.06667,0.2 0.1,0.3c0,0.23333 0,0.5 0,0.8c0,0.16667 0,0.33333 0,0.5c0,0.1 0,0.2 0,0.3c0,0.23333 0.01667,0.5 0.05,0.8c0,0.1 0,0.18333 0,0.25c0.03333,0.3 0.1,0.56667 0.2,0.8c0.03333,0.1 0.06667,0.2 0.1,0.3c0,0.16667 0,0.33333 0,0.5c0,0.1 0,0.2 0,0.3c0,0.06667 0,0.15 0,0.25c0,0.16667 0,0.35 0,0.55c-0.03333,0.06667 -0.06667,0.15 -0.1,0.25c-3.73333,0.46667 -7.51667,0.78333 -11.35,0.95c-5.46667,0.23333 -10.78333,0.4 -15.95,0.5c-0.03333,-0.1 -0.05,-0.2 -0.05,-0.3c-0.03333,-0.06667 -0.05,-0.15 -0.05,-0.25c0,-0.1 0,-0.18333 0,-0.25c0,-0.3 -0.01667,-0.56667 -0.05,-0.8c0,-0.1 0,-0.2 0,-0.3c-0.03333,-0.26667 -0.1,-0.53333 -0.2,-0.8c-0.03333,-0.1 -0.06667,-0.18333 -0.1,-0.25c0,-0.1 0,-0.2 0,-0.3c0,-0.16667 0,-0.33333 0,-0.5c0,-0.1 0,-0.2 0,-0.3c0,-0.23333 -0.01667,-0.5 -0.05,-0.8c0,-0.06667 0,-0.15 0,-0.25c-0.03333,-0.26667 -0.1,-0.53333 -0.2,-0.8c-0.03333,-0.1 -0.06667,-0.2 -0.1,-0.3c0,-0.06667 0,-0.15 0,-0.25c0,-0.1 0,-0.18333 0,-0.25c0,-0.1 0,-0.2 0,-0.3c0,-0.06667 0,-0.15 0,-0.25c3.13333,-0.66667 6.3,-0.85 9.5,-0.55c0.9,0.06667 1.55,-0.28333 1.95,-1.05c1.06667,-1.96667 1.53333,-4.15 1.4,-6.55c-0.16667,-3.26667 -0.21667,-6.56667 -0.15,-9.9c0,-0.73333 -0.15,-1.43333 -0.45,-2.1c-0.03333,-1.53333 -0.05,-3.06667 -0.05,-4.6c0,-1.23333 0.01667,-2.48333 0.05,-3.75c0,-0.06667 0,-0.15 0,-0.25c0.06667,-0.66667 -0.03333,-1.28333 -0.3,-1.85c-0.03333,-0.1 -0.06667,-0.2 -0.1,-0.3c0,-0.43333 0.03333,-0.86667 0.1,-1.3c0.13333,-1.46667 -0.41667,-2.55 -1.65,-3.25c-1.66667,-0.93333 -3.5,-1.2 -5.5,-0.8c-1.2,0.23333 -2.38333,0.51667 -3.55,0.85c-0.16667,0.03333 -0.35,0.08333 -0.55,0.15c-0.16667,-0.03333 -0.31667,-0.1 -0.45,-0.2c-0.06667,-0.03333 -0.1,-0.08333 -0.1,-0.15c0,-0.1 0,-0.2 0,-0.3c0,-0.06667 0,-0.15 0,-0.25c0,-0.16667 0,-0.35 0,-0.55c0,-0.06667 0,-0.15 0,-0.25c0,-0.1 -0.01667,-0.18333 -0.05,-0.25c-0.03333,-0.1 -0.06667,-0.2 -0.1,-0.3c-0.1,-0.16667 -0.18333,-0.35 -0.25,-0.55c0,-0.06667 0,-0.15 0,-0.25c-0.03333,-0.43333 -0.08333,-0.88333 -0.15,-1.35c-0.03333,-0.33333 -0.06667,-0.68333 -0.1,-1.05c0,-0.1 0,-0.2 0,-0.3c-0.03333,-0.16667 -0.05,-0.33333 -0.05,-0.5c-0.03333,-0.2 -0.05,-0.38333 -0.05,-0.55c0,-0.26667 -0.03333,-0.53333 -0.1,-0.8c0,-0.1 0,-0.18333 0,-0.25c0.7,-0.13333 1.41667,-0.21667 2.15,-0.25c2.43333,-0.13333 4.85,-0.31667 7.25,-0.55c4.63333,-0.46667 9.28333,-0.6 13.95,-0.4c2.46667,0 4.91667,0.01667 7.35,0.05v0.05c0,1.03333 0,2.08333 0,3.15c0,0.53333 0,1.06667 0,1.6z" fill="#ffffff"/></g></g></svg>