<svg version="1.1" xmlns="http://www.w3.org/2000/svg" xmlns:xlink="http://www.w3.org/1999/xlink" width="50.01432" height="62.34103" viewBox="0,0,50.01432,62.34103"><g transform="translate(-610.45924,-339.23623)"><g data-paper-data="{&quot;isPaintingLayer&quot;:true}" fill-rule="nonzero" stroke="none" stroke-width="1" stroke-linecap="round" stroke-linejoin="miter" stroke-miterlimit="4" stroke-dasharray="" stroke-dashoffset="0" style="mix-blend-mode: normal"><path d="M643.6655,339.35051c2.16667,-0.13333 3.96667,-0.15 5.4,-0.05c4.26667,0.3 7.41667,1.73333 9.45,4.3c1.1,1.36667 1.73333,2.95 1.9,4.75c0.2,1.83333 -0.11667,3.5 -0.95,5c-0.4,0.7 -0.96667,1.46667 -1.7,2.3c-0.86667,0.93333 -1.53333,1.61667 -2,2.05c-6.86667,7.23333 -11.35,17.33333 -13.45,30.3c-0.4,2.33333 -0.61667,3.63333 -0.65,3.9c-0.26667,1.46667 -0.61667,2.71667 -1.05,3.75c-1.2,2.9 -2.95,4.75 -5.25,5.55c-1.73333,0.6 -3.55,0.48333 -5.45,-0.35c-1.8,-0.76667 -3.25,-1.96667 -4.35,-3.6c-1.76667,-2.63333 -2.56667,-6.28333 -2.4,-10.95c0.26667,-7.4 2.68333,-15.88333 7.25,-25.45c-0.6,-0.06667 -2.98333,-0.28333 -7.15,-0.65c-2.9,-0.26667 -5.25,-0.61667 -7.05,-1.05c-2.1,-0.6 -3.58333,-1.41667 -4.45,-2.45c-0.73333,-0.86667 -1.15,-2.01667 -1.25,-3.45c-0.1,-0.93333 -0.06667,-2.23333 0.1,-3.9c0.2,-2.43333 0.75,-4.11667 1.65,-5.05c0.8,-0.96667 2.31667,-1.68333 4.55,-2.15c6.93333,-1.6 14.11667,-2.43333 21.55,-2.5c0.23333,0 2,-0.1 5.3,-0.3M622.5655,347.45051c-0.53333,0.16667 -1.58333,0.23333 -3.15,0.2c-1.36667,0 -2.38333,0.21667 -3.05,0.65c-0.23333,1.76667 -0.25,3.41667 -0.05,4.95l3.7,0.6c4.8,0.23333 9.81667,0.65 15.05,1.25c1.43333,0.13333 2.41667,0.48333 2.95,1.05c0.66667,0.73333 0.83333,1.66667 0.5,2.8c-0.13333,0.6 -0.56667,1.51667 -1.3,2.75c-2.66667,4.33333 -4.66667,8.83333 -6,13.5c-1.4,4.9 -1.98333,9.75 -1.75,14.55c0.06667,2.4 0.68333,4.01667 1.85,4.85c0.53333,0.43333 1.13333,0.61667 1.8,0.55c0.7,-0.1 1.18333,-0.41667 1.45,-0.95c0.5,-1 0.9,-2.23333 1.2,-3.7c0.03333,-0.26667 0.25,-1.56667 0.65,-3.9c1.1,-7.1 3.08333,-13.68333 5.95,-19.75c3.1,-6.5 7.06667,-12 11.9,-16.5v-0.05c0.23333,-0.9 0.08333,-1.75 -0.45,-2.55c-0.46667,-0.83333 -1.16667,-1.35 -2.1,-1.55c-2.36667,-0.56667 -5.25,-0.78333 -8.65,-0.65c-3.93333,0.33333 -6.88333,0.55 -8.85,0.65c-2.6,0.1 -4.56667,0.18333 -5.9,0.25c-2.26667,0.16667 -4.18333,0.5 -5.75,1z" fill="#000000"/><path d="M643.0655,345.54051c3.4,-0.13333 6.28333,0.08333 8.65,0.65c0.93333,0.2 1.63333,0.71667 2.1,1.55c0.53333,0.8 0.68333,1.65 0.45,2.55v0.05c-4.83333,4.5 -8.8,10 -11.9,16.5c-2.86667,6.06667 -4.85,12.65 -5.95,19.75c-0.4,2.33333 -0.61667,3.63333 -0.65,3.9c-0.3,1.46667 -0.7,2.7 -1.2,3.7c-0.26667,0.53333 -0.75,0.85 -1.45,0.95c-0.66667,0.06667 -1.26667,-0.11667 -1.8,-0.55c-1.16667,-0.83333 -1.78333,-2.45 -1.85,-4.85c-0.23333,-4.8 0.35,-9.65 1.75,-14.55c1.33333,-4.66667 3.33333,-9.16667 6,-13.5c0.73333,-1.23333 1.16667,-2.15 1.3,-2.75c0.33333,-1.13333 0.16667,-2.06667 -0.5,-2.8c-0.53333,-0.56667 -1.51667,-0.91667 -2.95,-1.05c-5.23333,-0.6 -10.25,-1.01667 -15.05,-1.25l-3.7,-0.6c-0.2,-1.53333 -0.18333,-3.18333 0.05,-4.95c0.66667,-0.43333 1.68333,-0.65 3.05,-0.65c1.56667,0.03333 2.61667,-0.03333 3.15,-0.2c1.56667,-0.5 3.48333,-0.83333 5.75,-1c1.33333,-0.06667 3.3,-0.15 5.9,-0.25c1.96667,-0.1 4.91667,-0.31667 8.85,-0.65z" fill="#ffffff"/></g></g></svg>