<svg version="1.1" xmlns="http://www.w3.org/2000/svg" xmlns:xlink="http://www.w3.org/1999/xlink" width="53.95" height="66.68601" viewBox="0,0,53.95,66.68601"><g transform="translate(-603.6036,-337.8152)"><g data-paper-data="{&quot;isPaintingLayer&quot;:true}" fill-rule="nonzero" stroke="none" stroke-width="1" stroke-linecap="butt" stroke-linejoin="miter" stroke-miterlimit="10" stroke-dasharray="" stroke-dashoffset="0" style="mix-blend-mode: normal"><path d="M647.4036,356.73784c1.6,4.8 3.1,9.66667 4.5,14.6c0.3,1.13333 0.63333,2.3 1,3.5c0,0.1 0,0.18333 0,0.25c0,0.06667 0,0.15 0,0.25c0,0.1 0,0.18333 0,0.25c0,0.1 0.01667,0.18333 0.05,0.25c0.33333,0.83333 0.6,1.66667 0.8,2.5c0.4,1.36667 0.8,2.71667 1.2,4.05c0.06667,0.23333 0.08333,0.48333 0.05,0.75c0.03333,0.06667 0.06667,0.13333 0.1,0.2c0,0.1 0.01667,0.2 0.05,0.3c0,0.06667 0.01667,0.15 0.05,0.25c0,0.06667 0,0.15 0,0.25c0,0.06667 0,0.15 0,0.25c0,0.1 0,0.18333 0,0.25c0.03333,0.06667 0.08333,0.13333 0.15,0.2c0.33333,0.46667 0.55,0.96667 0.65,1.5c0.2,0.86667 0.4,1.71667 0.6,2.55c0.06667,0.33333 0.16667,0.66667 0.3,1c0,0.06667 0,0.15 0,0.25c0,0.1 0,0.18333 0,0.25c0.03333,0.1 0.06667,0.18333 0.1,0.25c0.03333,0.06667 0.05,0.15 0.05,0.25c0.06667,0.16667 0.13333,0.33333 0.2,0.5c0.03333,0.1 0.05,0.18333 0.05,0.25c0.03333,0.2 0.05,0.36667 0.05,0.5c0,0.1 0.01667,0.18333 0.05,0.25c0,0.1 0.01667,0.2 0.05,0.3c0.03333,0.06667 0.06667,0.13333 0.1,0.2c0,0.1 0,0.18333 0,0.25c0,0.26667 0,0.51667 0,0.75c0,0.26667 0,0.51667 0,0.75c0,0.43333 0,0.85 0,1.25c-0.13333,0.73333 -0.4,1.43333 -0.8,2.1c-2.76667,4.86667 -7.03333,6.43333 -12.8,4.7c-0.1,-0.1 -0.18333,-0.16667 -0.25,-0.2c-0.43333,-0.4 -0.78333,-0.85 -1.05,-1.35c-0.4,-0.7 -0.76667,-1.45 -1.1,-2.25c-0.06667,-0.13333 -0.13333,-0.28333 -0.2,-0.45c-0.1,-0.1 -0.18333,-0.2 -0.25,-0.3c-0.03333,-0.06667 -0.08333,-0.13333 -0.15,-0.2c-0.06667,-0.16667 -0.13333,-0.33333 -0.2,-0.5c-0.66667,-1.66667 -1.3,-3.33333 -1.9,-5c-0.7,-1.96667 -1.45,-3.9 -2.25,-5.8c-0.03333,-0.06667 -0.06667,-0.1 -0.1,-0.1c-3.63333,0.26667 -7.26667,0.58333 -10.9,0.95c-0.03333,0.1 -0.06667,0.16667 -0.1,0.2c-0.56667,1.13333 -1.03333,2.3 -1.4,3.5c-0.56667,1.73333 -1.1,3.51667 -1.6,5.35c0,0.03333 -0.01667,0.1 -0.05,0.2c0,0.1 0,0.18333 0,0.25c0,0.1 0,0.2 0,0.3c-0.56667,1.83333 -1.4,3.51667 -2.5,5.05c-1.46667,2.03333 -3.55,2.63333 -6.25,1.8c-2.2,-0.63333 -4.23333,-1.66667 -6.1,-3.1c-1.1,-0.86667 -2.15,-1.8 -3.15,-2.8c-0.03333,-0.06667 -0.08333,-0.13333 -0.15,-0.2c-0.16667,-0.36667 -0.3,-0.71667 -0.4,-1.05c-0.2,-0.36667 -0.3,-0.76667 -0.3,-1.2c0,-0.46667 0,-0.9 0,-1.3c0.03333,-0.1 0.06667,-0.16667 0.1,-0.2c0.03333,-0.1 0.06667,-0.2 0.1,-0.3c0.03333,-0.06667 0.06667,-0.15 0.1,-0.25c0.03333,-0.1 0.06667,-0.18333 0.1,-0.25c0,-0.06667 0,-0.15 0,-0.25c0,-0.1 0,-0.18333 0,-0.25c0,-0.06667 0,-0.15 0,-0.25c0,-0.06667 0,-0.15 0,-0.25c0.13333,-0.4 0.26667,-0.8 0.4,-1.2c0.6,-2.43333 1.26667,-4.86667 2,-7.3c0.56667,-1.86667 1.15,-3.71667 1.75,-5.55c0.06667,-0.1 0.13333,-0.18333 0.2,-0.25c0.2,-0.26667 0.36667,-0.6 0.5,-1c0.1,-0.43333 0.25,-0.85 0.45,-1.25c0.13333,-0.26667 0.28333,-0.53333 0.45,-0.8c0,-0.03333 0,-0.1 0,-0.2c0,-0.1 0,-0.18333 0,-0.25c0.03333,-0.1 0.06667,-0.2 0.1,-0.3c0.03333,-0.03333 0.05,-0.1 0.05,-0.2c0,-0.1 0.03333,-0.18333 0.1,-0.25c0.03333,-0.1 0.06667,-0.2 0.1,-0.3c0.06667,-0.03333 0.11667,-0.1 0.15,-0.2c0.03333,-0.1 0.08333,-0.18333 0.15,-0.25c0,-0.1 0,-0.2 0,-0.3c0,-0.03333 0,-0.1 0,-0.2c0.03333,-0.1 0.06667,-0.18333 0.1,-0.25c0.03333,-0.1 0.06667,-0.2 0.1,-0.3c0.03333,-0.06667 0.05,-0.13333 0.05,-0.2c0.03333,-0.1 0.08333,-0.2 0.15,-0.3c0.03333,-0.06667 0.06667,-0.15 0.1,-0.25c0.06667,-0.06667 0.11667,-0.13333 0.15,-0.2c0,-0.1 0,-0.2 0,-0.3c0,-0.06667 0,-0.15 0,-0.25c1.1,-2.73333 2.28333,-5.46667 3.55,-8.2c1.7,-3.63333 3.38333,-7.25 5.05,-10.85c0,-0.1 0,-0.18333 0,-0.25c0.5,-1.53333 1.05,-3.05 1.65,-4.55c0.46667,-1.23333 0.98333,-2.43333 1.55,-3.6c0,-0.03333 0,-0.06667 0,-0.1c0,-0.1 0,-0.2 0,-0.3c0,-0.06667 0,-0.15 0,-0.25c0.03333,-0.06667 0.06667,-0.13333 0.1,-0.2c0.03333,-0.1 0.05,-0.2 0.05,-0.3c0.03333,-0.06667 0.06667,-0.15 0.1,-0.25c0.03333,-0.06667 0.06667,-0.15 0.1,-0.25c0.03333,-0.06667 0.05,-0.15 0.05,-0.25c0.06667,-0.06667 0.13333,-0.15 0.2,-0.25c0.06667,-0.06667 0.15,-0.13333 0.25,-0.2c1,-1.1 2.2,-1.8 3.6,-2.1c0.93333,-0.23333 1.8,-0.45 2.6,-0.65c3.03333,-0.56667 5.9,-0.25 8.6,0.95c1.63333,0.76667 2.78333,1.98333 3.45,3.65c0.93333,2.33333 1.81667,4.7 2.65,7.1c1.1,2.26667 2.03333,4.58333 2.8,6.95M649.3536,385.13784c-0.26667,-1 -0.55,-2.01667 -0.85,-3.05c-0.46667,-1.73333 -0.95,-3.48333 -1.45,-5.25c-0.03333,-0.23333 -0.05,-0.48333 -0.05,-0.75c-0.7,-2.16667 -1.36667,-4.33333 -2,-6.5c-0.76667,-2.76667 -1.65,-5.53333 -2.65,-8.3c0,-0.1 0,-0.18333 0,-0.25c0,-0.06667 0,-0.15 0,-0.25c-0.9,-2.6 -1.86667,-5.2 -2.9,-7.8c-1.16667,-2.93333 -2.35,-5.85 -3.55,-8.75c-1.6,-0.06667 -3.21667,-0.13333 -4.85,-0.2c-0.9,0.16667 -1.76667,0.45 -2.6,0.85c-0.63333,0.33333 -1.23333,0.7 -1.8,1.1c-0.06667,0.16667 -0.11667,0.33333 -0.15,0.5c-0.03333,0.1 -0.05,0.18333 -0.05,0.25c-0.03333,0.1 -0.05,0.18333 -0.05,0.25c-0.03333,0.06667 -0.05,0.15 -0.05,0.25c0,0.1 0,0.18333 0,0.25c-0.06667,0.26667 -0.15,0.53333 -0.25,0.8c-0.06667,0.06667 -0.11667,0.13333 -0.15,0.2c-0.06667,0.16667 -0.13333,0.33333 -0.2,0.5c-0.06667,0.16667 -0.15,0.33333 -0.25,0.5c-0.5,2.03333 -1.18333,4.05 -2.05,6.05c-1.06667,2.56667 -2.23333,5.08333 -3.5,7.55c-0.13333,0.56667 -0.3,1.15 -0.5,1.75c-0.43333,1 -0.91667,1.98333 -1.45,2.95c-0.2,0.36667 -0.36667,0.71667 -0.5,1.05c0,0.06667 0,0.15 0,0.25c0,0.06667 0,0.13333 0,0.2c0,0.1 0,0.2 0,0.3c-0.1,0.23333 -0.18333,0.48333 -0.25,0.75c-0.03333,0.1 -0.08333,0.18333 -0.15,0.25c-0.1,0.16667 -0.18333,0.33333 -0.25,0.5c-0.1,0.16667 -0.18333,0.33333 -0.25,0.5c-1.1,3.66667 -2.28333,7.35 -3.55,11.05c-1.23333,3.83333 -2.36667,7.68333 -3.4,11.55c0,0.13333 0,0.28333 0,0.45c0,0.1 0,0.2 0,0.3c-0.03333,0.1 -0.05,0.16667 -0.05,0.2c0,0.1 0.01667,0.2 0.05,0.3c0.86667,0.7 1.8,1.31667 2.8,1.85c1.03333,0.5 2.13333,0.71667 3.3,0.65c0.86667,-2.43333 1.61667,-4.86667 2.25,-7.3c0.73333,-2.96667 1.98333,-5.71667 3.75,-8.25c5.8,-1.3 11.65,-1.66667 17.55,-1.1c0.73333,0.06667 1.31667,0.43333 1.75,1.1c1.23333,1.76667 2.08333,3.71667 2.55,5.85c0.6,1.03333 1.08333,2.1 1.45,3.2c0.63333,1.83333 1.4,3.6 2.3,5.3c0.06667,0.16667 0.16667,0.31667 0.3,0.45c0.3,0.2 0.68333,0.21667 1.15,0.05c0.3,-0.13333 0.63333,-0.25 1,-0.35c0.13333,-0.06667 0.26667,-0.15 0.4,-0.25c0.23333,-0.2 0.45,-0.45 0.65,-0.75c0.1,-0.13333 0.2,-0.28333 0.3,-0.45c0.16667,-0.23333 0.3,-0.48333 0.4,-0.75c0.03333,-0.1 0.08333,-0.2 0.15,-0.3c0,-0.33333 -0.08333,-0.65 -0.25,-0.95c-0.13333,-0.4 -0.26667,-0.83333 -0.4,-1.3c-0.2,-0.63333 -0.31667,-1.3 -0.35,-2c-0.1,-0.43333 -0.21667,-0.85 -0.35,-1.25c-0.23333,-0.7 -0.46667,-1.36667 -0.7,-2c-0.23333,-0.56667 -0.33333,-1.15 -0.3,-1.75M628.5536,360.88784c0.06667,-0.13333 0.15,-0.26667 0.25,-0.4c0,-0.03333 0,-0.08333 0,-0.15c0.03333,-0.03333 0.08333,-0.06667 0.15,-0.1c0,-0.03333 0,-0.06667 0,-0.1c0.03333,-0.16667 0.08333,-0.35 0.15,-0.55c0.06667,-0.23333 0.13333,-0.48333 0.2,-0.75c0.03333,-0.03333 0.08333,-0.1 0.15,-0.2c0.03333,-0.03333 0.06667,-0.06667 0.1,-0.1c0,-0.06667 0,-0.11667 0,-0.15c0,-0.1 0,-0.2 0,-0.3c0.03333,-0.03333 0.06667,-0.1 0.1,-0.2c0.03333,-0.1 0.06667,-0.18333 0.1,-0.25c0.03333,-0.1 0.08333,-0.2 0.15,-0.3c0.06667,-0.06667 0.15,-0.13333 0.25,-0.2c0.1,-0.06667 0.21667,-0.11667 0.35,-0.15c0.03333,0 0.06667,0 0.1,0c0.1,-0.13333 0.23333,-0.25 0.4,-0.35c0.13333,-0.06667 0.26667,-0.13333 0.4,-0.2c0.16667,0 0.33333,0 0.5,0v-0.05c0.2,0.03333 0.41667,0.08333 0.65,0.15c0.13333,0.06667 0.25,0.15 0.35,0.25c0.96667,1.76667 1.78333,3.61667 2.45,5.55c0.6,1.66667 1.18333,3.33333 1.75,5c0,0.06667 0,0.15 0,0.25c0,0.06667 0,0.13333 0,0.2c0.06667,0.2 0.13333,0.38333 0.2,0.55c0.03333,0.26667 0.11667,0.51667 0.25,0.75c0.06667,0.13333 0.13333,0.3 0.2,0.5c0,0.1 0,0.18333 0,0.25c0,0.06667 0,0.15 0,0.25c0.1,0.23333 0.18333,0.48333 0.25,0.75c0.06667,0.36667 0.16667,0.7 0.3,1c0.06667,0.16667 0.13333,0.33333 0.2,0.5c0,0.16667 0,0.33333 0,0.5c0.03333,0.33333 0.01667,0.66667 -0.05,1c-0.06667,0.26667 -0.16667,0.51667 -0.3,0.75c-0.06667,0.1 -0.15,0.18333 -0.25,0.25c-0.1,0.1 -0.21667,0.18333 -0.35,0.25c-0.06667,0.03333 -0.13333,0.08333 -0.2,0.15c-3.46667,0.2 -6.91667,0.16667 -10.35,-0.1c-0.13333,0.1 -0.3,0.18333 -0.5,0.25c-0.2,0.1 -0.41667,0.16667 -0.65,0.2c-0.23333,-0.03333 -0.48333,-0.08333 -0.75,-0.15c-0.13333,-0.1 -0.25,-0.2 -0.35,-0.3c-0.1,-0.03333 -0.2,-0.1 -0.3,-0.2c-0.06667,-0.1 -0.11667,-0.18333 -0.15,-0.25c-0.03333,-0.1 -0.06667,-0.2 -0.1,-0.3c-0.03333,-0.03333 -0.06667,-0.1 -0.1,-0.2c0,-0.1 0,-0.18333 0,-0.25c0,-0.1 0,-0.2 0,-0.3c0,-0.03333 0,-0.1 0,-0.2c0,-0.1 0,-0.18333 0,-0.25c0.03333,-0.1 0.06667,-0.2 0.1,-0.3c0,-0.03333 0,-0.1 0,-0.2c0,-0.1 0,-0.18333 0,-0.25c0.03333,-0.2 0.05,-0.36667 0.05,-0.5c0.03333,-0.2 0.05,-0.38333 0.05,-0.55c0.03333,-0.26667 0.11667,-0.51667 0.25,-0.75c0.16667,-0.43333 0.36667,-0.85 0.6,-1.25c0.1,-0.16667 0.18333,-0.31667 0.25,-0.45c0,-0.1 0,-0.2 0,-0.3c0,-0.06667 0,-0.15 0,-0.25c0.03333,-0.06667 0.06667,-0.13333 0.1,-0.2c0,-0.1 0.03333,-0.2 0.1,-0.3c0.03333,-0.1 0.06667,-0.16667 0.1,-0.2c0,-0.1 0,-0.2 0,-0.3c0,-0.06667 0,-0.15 0,-0.25c0.03333,-0.1 0.06667,-0.16667 0.1,-0.2c0.03333,-0.1 0.06667,-0.2 0.1,-0.3c0.06667,-0.16667 0.13333,-0.33333 0.2,-0.5c0.06667,-0.16667 0.11667,-0.33333 0.15,-0.5c0.06667,-0.1 0.13333,-0.16667 0.2,-0.2c0.1,-0.1 0.18333,-0.2 0.25,-0.3c0.03333,-0.06667 0.06667,-0.15 0.1,-0.25c0,-0.1 0,-0.18333 0,-0.25c0,-0.06667 0,-0.15 0,-0.25c0.1,-0.16667 0.18333,-0.31667 0.25,-0.45c0.2,-0.3 0.4,-0.56667 0.6,-0.8c0.03333,-0.03333 0.05,-0.06667 0.05,-0.1c0,-0.06667 0,-0.11667 0,-0.15c0.06667,-0.26667 0.15,-0.53333 0.25,-0.8c0.03333,-0.06667 0.06667,-0.13333 0.1,-0.2c0.16667,-0.33333 0.33333,-0.66667 0.5,-1M630.3036,365.43784c0,0.1 0,0.2 0,0.3c-0.16667,0.43333 -0.3,0.86667 -0.4,1.3c-0.1,0.26667 -0.21667,0.51667 -0.35,0.75c0,0.03333 0,0.06667 0,0.1c-0.06667,0.23333 -0.13333,0.43333 -0.2,0.6c0,0.06667 0,0.15 0,0.25c0,0.1 -0.01667,0.18333 -0.05,0.25c-0.03333,0.1 -0.06667,0.18333 -0.1,0.25c-0.03333,0.06667 -0.08333,0.15 -0.15,0.25c0,0.1 0,0.18333 0,0.25c0,0.1 0,0.18333 0,0.25c-0.03333,0.06667 -0.05,0.15 -0.05,0.25c-0.03333,0.1 -0.06667,0.2 -0.1,0.3c0,0.03333 0,0.06667 0,0.1c1.26667,0 2.71667,-0.1 4.35,-0.3c-0.36667,-1.26667 -0.75,-2.53333 -1.15,-3.8c-0.4,-1.2 -0.75,-2.13333 -1.05,-2.8c-0.16667,0.2 -0.28333,0.45 -0.35,0.75c-0.06667,0.26667 -0.2,0.51667 -0.4,0.75c0,0.1 0,0.16667 0,0.2z" fill="#000000"/><path d="M649.6536,386.88784c0.23333,0.63333 0.46667,1.3 0.7,2c0.13333,0.4 0.25,0.81667 0.35,1.25c0.03333,0.7 0.15,1.36667 0.35,2c0.13333,0.46667 0.26667,0.9 0.4,1.3c0.16667,0.3 0.25,0.61667 0.25,0.95c-0.06667,0.1 -0.11667,0.2 -0.15,0.3c-0.1,0.26667 -0.23333,0.51667 -0.4,0.75c-0.1,0.16667 -0.2,0.31667 -0.3,0.45c-0.2,0.3 -0.41667,0.55 -0.65,0.75c-0.13333,0.1 -0.26667,0.18333 -0.4,0.25c-0.36667,0.1 -0.7,0.21667 -1,0.35c-0.46667,0.16667 -0.85,0.15 -1.15,-0.05c-0.13333,-0.13333 -0.23333,-0.28333 -0.3,-0.45c-0.9,-1.7 -1.66667,-3.46667 -2.3,-5.3c-0.36667,-1.1 -0.85,-2.16667 -1.45,-3.2c-0.46667,-2.13333 -1.31667,-4.08333 -2.55,-5.85c-0.43333,-0.66667 -1.01667,-1.03333 -1.75,-1.1c-5.9,-0.56667 -11.75,-0.2 -17.55,1.1c-1.76667,2.53333 -3.01667,5.28333 -3.75,8.25c-0.63333,2.43333 -1.38333,4.86667 -2.25,7.3c-1.16667,0.06667 -2.26667,-0.15 -3.3,-0.65c-1,-0.53333 -1.93333,-1.15 -2.8,-1.85c-0.03333,-0.1 -0.05,-0.2 -0.05,-0.3c0,-0.03333 0.01667,-0.1 0.05,-0.2c0,-0.1 0,-0.2 0,-0.3c0,-0.16667 0,-0.31667 0,-0.45c1.03333,-3.86667 2.16667,-7.71667 3.4,-11.55c1.26667,-3.7 2.45,-7.38333 3.55,-11.05c0.06667,-0.16667 0.15,-0.33333 0.25,-0.5c0.06667,-0.16667 0.15,-0.33333 0.25,-0.5c0.06667,-0.06667 0.11667,-0.15 0.15,-0.25c0.06667,-0.26667 0.15,-0.51667 0.25,-0.75c0,-0.1 0,-0.2 0,-0.3c0,-0.06667 0,-0.13333 0,-0.2c0,-0.1 0,-0.18333 0,-0.25c0.13333,-0.33333 0.3,-0.68333 0.5,-1.05c0.53333,-0.96667 1.01667,-1.95 1.45,-2.95c0.2,-0.6 0.36667,-1.18333 0.5,-1.75c1.26667,-2.46667 2.43333,-4.98333 3.5,-7.55c0.86667,-2 1.55,-4.01667 2.05,-6.05c0.1,-0.16667 0.18333,-0.33333 0.25,-0.5c0.06667,-0.16667 0.13333,-0.33333 0.2,-0.5c0.03333,-0.06667 0.08333,-0.13333 0.15,-0.2c0.1,-0.26667 0.18333,-0.53333 0.25,-0.8c0,-0.06667 0,-0.15 0,-0.25c0,-0.1 0.01667,-0.18333 0.05,-0.25c0,-0.06667 0.01667,-0.15 0.05,-0.25c0,-0.06667 0.01667,-0.15 0.05,-0.25c0.03333,-0.16667 0.08333,-0.33333 0.15,-0.5c0.56667,-0.4 1.16667,-0.76667 1.8,-1.1c0.83333,-0.4 1.7,-0.68333 2.6,-0.85c1.63333,0.06667 3.25,0.13333 4.85,0.2c1.2,2.9 2.38333,5.81667 3.55,8.75c1.03333,2.6 2,5.2 2.9,7.8c0,0.1 0,0.18333 0,0.25c0,0.06667 0,0.15 0,0.25c1,2.76667 1.88333,5.53333 2.65,8.3c0.63333,2.16667 1.3,4.33333 2,6.5c0,0.26667 0.01667,0.51667 0.05,0.75c0.5,1.76667 0.98333,3.51667 1.45,5.25c0.3,1.03333 0.58333,2.05 0.85,3.05c-0.03333,0.6 0.06667,1.18333 0.3,1.75M627.9536,362.08784c-0.1,0.26667 -0.18333,0.53333 -0.25,0.8c0,0.03333 0,0.08333 0,0.15c0,0.03333 -0.01667,0.06667 -0.05,0.1c-0.2,0.23333 -0.4,0.5 -0.6,0.8c-0.06667,0.13333 -0.15,0.28333 -0.25,0.45c0,0.1 0,0.18333 0,0.25c0,0.06667 0,0.15 0,0.25c-0.03333,0.1 -0.06667,0.18333 -0.1,0.25c-0.06667,0.1 -0.15,0.2 -0.25,0.3c-0.06667,0.03333 -0.13333,0.1 -0.2,0.2c-0.03333,0.16667 -0.08333,0.33333 -0.15,0.5c-0.06667,0.16667 -0.13333,0.33333 -0.2,0.5c-0.03333,0.1 -0.06667,0.2 -0.1,0.3c-0.03333,0.03333 -0.06667,0.1 -0.1,0.2c0,0.1 0,0.18333 0,0.25c0,0.1 0,0.2 0,0.3c-0.03333,0.03333 -0.06667,0.1 -0.1,0.2c-0.06667,0.1 -0.1,0.2 -0.1,0.3c-0.03333,0.06667 -0.06667,0.13333 -0.1,0.2c0,0.1 0,0.18333 0,0.25c0,0.1 0,0.2 0,0.3c-0.06667,0.13333 -0.15,0.28333 -0.25,0.45c-0.23333,0.4 -0.43333,0.81667 -0.6,1.25c-0.13333,0.23333 -0.21667,0.48333 -0.25,0.75c0,0.16667 -0.01667,0.35 -0.05,0.55c0,0.13333 -0.01667,0.3 -0.05,0.5c0,0.06667 0,0.15 0,0.25c0,0.1 0,0.16667 0,0.2c-0.03333,0.1 -0.06667,0.2 -0.1,0.3c0,0.06667 0,0.15 0,0.25c0,0.1 0,0.16667 0,0.2c0,0.1 0,0.2 0,0.3c0,0.06667 0,0.15 0,0.25c0.03333,0.1 0.06667,0.16667 0.1,0.2c0.03333,0.1 0.06667,0.2 0.1,0.3c0.03333,0.06667 0.08333,0.15 0.15,0.25c0.1,0.1 0.2,0.16667 0.3,0.2c0.1,0.1 0.21667,0.2 0.35,0.3c0.26667,0.06667 0.51667,0.11667 0.75,0.15c0.23333,-0.03333 0.45,-0.1 0.65,-0.2c0.2,-0.06667 0.36667,-0.15 0.5,-0.25c3.43333,0.26667 6.88333,0.3 10.35,0.1c0.06667,-0.06667 0.13333,-0.11667 0.2,-0.15c0.13333,-0.06667 0.25,-0.15 0.35,-0.25c0.1,-0.06667 0.18333,-0.15 0.25,-0.25c0.13333,-0.23333 0.23333,-0.48333 0.3,-0.75c0.06667,-0.33333 0.08333,-0.66667 0.05,-1c0,-0.16667 0,-0.33333 0,-0.5c-0.06667,-0.16667 -0.13333,-0.33333 -0.2,-0.5c-0.13333,-0.3 -0.23333,-0.63333 -0.3,-1c-0.06667,-0.26667 -0.15,-0.51667 -0.25,-0.75c0,-0.1 0,-0.18333 0,-0.25c0,-0.06667 0,-0.15 0,-0.25c-0.06667,-0.2 -0.13333,-0.36667 -0.2,-0.5c-0.13333,-0.23333 -0.21667,-0.48333 -0.25,-0.75c-0.06667,-0.16667 -0.13333,-0.35 -0.2,-0.55c0,-0.06667 0,-0.13333 0,-0.2c0,-0.1 0,-0.18333 0,-0.25c-0.56667,-1.66667 -1.15,-3.33333 -1.75,-5c-0.66667,-1.93333 -1.48333,-3.78333 -2.45,-5.55c-0.1,-0.1 -0.21667,-0.18333 -0.35,-0.25c-0.23333,-0.06667 -0.45,-0.11667 -0.65,-0.15v0.05c-0.16667,0 -0.33333,0 -0.5,0c-0.13333,0.06667 -0.26667,0.13333 -0.4,0.2c-0.16667,0.1 -0.3,0.21667 -0.4,0.35c-0.03333,0 -0.06667,0 -0.1,0c-0.13333,0.03333 -0.25,0.08333 -0.35,0.15c-0.1,0.06667 -0.18333,0.13333 -0.25,0.2c-0.06667,0.1 -0.11667,0.2 -0.15,0.3c-0.03333,0.06667 -0.06667,0.15 -0.1,0.25c-0.03333,0.1 -0.06667,0.16667 -0.1,0.2c0,0.1 0,0.2 0,0.3c0,0.03333 0,0.08333 0,0.15c-0.03333,0.03333 -0.06667,0.06667 -0.1,0.1c-0.06667,0.1 -0.11667,0.16667 -0.15,0.2c-0.06667,0.26667 -0.13333,0.51667 -0.2,0.75c-0.06667,0.2 -0.11667,0.38333 -0.15,0.55c0,0.03333 0,0.06667 0,0.1c-0.06667,0.03333 -0.11667,0.06667 -0.15,0.1c0,0.06667 0,0.11667 0,0.15c-0.1,0.13333 -0.18333,0.26667 -0.25,0.4c-0.16667,0.33333 -0.33333,0.66667 -0.5,1c-0.03333,0.06667 -0.06667,0.13333 -0.1,0.2z" fill="#ffffff"/></g></g></svg>