<svg version="1.1" xmlns="http://www.w3.org/2000/svg" xmlns:xlink="http://www.w3.org/1999/xlink" width="225.5" height="237.75089" viewBox="0,0,225.5,237.75089"><g transform="translate(-526.44009,-238.08319)"><g data-paper-data="{&quot;isPaintingLayer&quot;:true}" fill-rule="nonzero" stroke="none" stroke-width="1" stroke-linecap="round" stroke-linejoin="miter" stroke-miterlimit="4" stroke-dasharray="" stroke-dashoffset="0" style="mix-blend-mode: normal"><path d="M628.44009,431.83408c0,1.66667 -1.73333,6.41667 -5.2,14.25c-3.7,8.33333 -6.38333,12.5 -8.05,12.5c-2.63333,0 -4.45,-0.91667 -5.45,-2.75c-0.53333,-0.93333 -0.8,-1.93333 -0.8,-3c0,-1.33333 2.05,-5.15 6.15,-11.45c4.66667,-7.23333 8.7,-11.16667 12.1,-11.8c0.26667,0.26667 0.56667,0.41667 0.9,0.45c0.23333,0.16667 0.35,0.76667 0.35,1.8M622.04009,440.08408l-0.35,0.1c-0.33333,0.13333 -0.86667,0.55 -1.6,1.25c-0.83333,0.76667 -1.25,1.35 -1.25,1.75c0,0.93333 -0.75,2.46667 -2.25,4.6c-1.5,2.13333 -2.25,3.45 -2.25,3.95c0,0.76667 0.1,1.23333 0.3,1.4c0.13333,0.1 0.48333,0.21667 1.05,0.35c2.3,-1.76667 4.03333,-3.85 5.2,-6.25c1,-2 1.5,-3.96667 1.5,-5.9c0,-0.73333 -0.11667,-1.15 -0.35,-1.25M620.69009,414.83408c0,1.33333 -4.9,8.08333 -14.7,20.25c-10.1,12.5 -16.2,18.75 -18.3,18.75c-4,0 -6.56667,-1.28333 -7.7,-3.85c-0.36667,-0.83333 -0.56667,-1.75 -0.6,-2.75c0.03333,-0.86667 0.05,-1.33333 0.05,-1.4c0,-3 1.1,-5.48333 3.3,-7.45c2.63333,-2.36667 6.45,-3.55 11.45,-3.55c1.83333,0 5.85,-3.23333 12.05,-9.7c7.23333,-7.46667 11.38333,-11.56667 12.45,-12.3c0.43333,0.16667 0.91667,0.25 1.45,0.25c0.36667,0.13333 0.55,0.71667 0.55,1.75M586.04009,440.83408c-0.96667,0.83333 -1.45,1.9 -1.45,3.2c0,0.8 0.23333,1.61667 0.7,2.45c0.83333,1.4 2.15,2.1 3.95,2.1c1.43333,0 2.61667,-0.58333 3.55,-1.75c0.73333,-0.93333 1.1,-1.83333 1.1,-2.7c0,-3.26667 -1.55,-4.8 -4.65,-4.6c-1.23333,0.06667 -2.3,0.5 -3.2,1.3M674.09009,432.58408c1.83333,4.26667 3.36667,8.1 4.6,11.5c0.6,1.66667 2.98333,5.7 7.15,12.1c3.9,5.93333 5.85,9.26667 5.85,10c0,2.43333 -0.75,4.56667 -2.25,6.4c-1.76667,2.16667 -4.18333,3.25 -7.25,3.25c-4.33333,0 -7.41667,-1.91667 -9.25,-5.75c-0.6,-1.2 -1.03333,-2.53333 -1.3,-4c-0.13333,-0.83333 -0.2,-1.5 -0.2,-2c0,-1.83333 0.58333,-3.45 1.75,-4.85c1.16667,-1.43333 1.75,-3.06667 1.75,-4.9c0,-1.86667 -1.36667,-6.9 -4.1,-15.1c-2.76667,-8.2 -4.15,-12.66667 -4.15,-13.4c0,-2.63333 0.66667,-4.21667 2,-4.75c1.53333,2.86667 3.33333,6.7 5.4,11.5M677.99009,460.83408c-0.6,1.13333 -0.9,1.98333 -0.9,2.55c0,1 0.3,2 0.9,3c1,1.73333 2.6,2.6 4.8,2.6c1.8,0 3.23333,-0.63333 4.3,-1.9c0.93333,-1.1 1.4,-2.38333 1.4,-3.85c0,-0.66667 -4.46667,-6.91667 -13.4,-18.75c0.16667,0.73333 0.85,3.23333 2.05,7.5c1.13333,3.96667 1.7,6.05 1.7,6.25c0,0.6 -0.28333,1.46667 -0.85,2.6M714.99009,446.53408c2.33333,0.96667 3.93333,1.93333 4.8,2.9c1.26667,1.36667 1.9,3.36667 1.9,6c0,2.1 -0.4,3.73333 -1.2,4.9c-1.6,2.33333 -4.7,3.5 -9.3,3.5c-6.66667,0 -10.16667,-2.28333 -10.5,-6.85c-0.1,-1.43333 0.11667,-3.03333 0.65,-4.8c0.56667,-1.5 0.85,-2.28333 0.85,-2.35c0,-0.1 -3.25,-5.31667 -9.75,-15.65c-6.5,-10.33333 -9.75,-16.11667 -9.75,-17.35c0,-1.03333 0.33333,-1.65 1,-1.85c0.33333,-0.1 0.66667,-0.15 1,-0.15c1.66667,2.56667 4.46667,6.3 8.4,11.2c4.4,5.5 7.26667,9.18333 8.6,11.05c1.9,2.7 4.16667,4.85 6.8,6.45c1.23333,0.76667 3.4,1.76667 6.5,3M707.54009,451.48408c0,0.26667 -0.15,1.88333 -0.45,4.85c0.4,2.83333 2.3,4.25 5.7,4.25c2.13333,0 3.73333,-0.86667 4.8,-2.6c0.7,-1.13333 1.05,-2.21667 1.05,-3.25c0,-2.16667 -1.01667,-3.76667 -3.05,-4.8c-4.1,-2 -6.9,-3.61667 -8.4,-4.85c-1,-0.8 -2.4,-2.48333 -4.2,-5.05c-1.23333,-1.8 -2.43333,-2.68333 -3.6,-2.65c0.56667,2.4 2.13333,5.03333 4.7,7.9c2.3,2.53333 3.45,4.6 3.45,6.2M526.44009,346.08408c0,-8.33333 4.81667,-9.83333 14.45,-4.5c5,2.76667 10.93333,6.88333 17.8,12.35c-1.9,0.4 -4.13333,0.45 -6.7,0.15c-2.53333,-0.43333 -4.21667,-0.65 -5.05,-0.65c-0.83333,0 -2.03333,0.33333 -3.6,1c-1.6,0.66667 -2.81667,1 -3.65,1c-4.63333,0 -8.21667,-1.48333 -10.75,-4.45c-1.66667,-1.93333 -2.5,-3.56667 -2.5,-4.9M540.49009,349.58408c0.83333,-1.1 1.25,-2.18333 1.25,-3.25c0,-1.6 -0.61667,-2.93333 -1.85,-4c-1.13333,-0.96667 -2.48333,-1.5 -4.05,-1.6c-1.6,-0.1 -2.95,0.28333 -4.05,1.15c-1.23333,1 -1.85,2.45 -1.85,4.35c0,0.96667 0.28333,1.96667 0.85,3c1,1.8 2.6,2.7 4.8,2.7c2.1,0 3.73333,-0.78333 4.9,-2.35M593.69009,382.93408c0,0.16667 -9.98333,5.63333 -29.95,16.4c-20.03333,10.83333 -30.38333,16.25 -31.05,16.25c-2.76667,0 -4.58333,-1.16667 -5.45,-3.5c-0.36667,-2.36667 -0.55,-3.61667 -0.55,-3.75c0,-3.63333 0.6,-6.61667 1.8,-8.95c1.93333,-3.86667 5.33333,-5.8 10.2,-5.8c0.83333,0 2.08333,0.41667 3.75,1.25c1.66667,0.83333 2.91667,1.25 3.75,1.25c1.36667,0 3.76667,-0.81667 7.2,-2.45c2.06667,-1 5.73333,-2.8 11,-5.4c11.13333,-5.26667 20.65,-7.9 28.55,-7.9c0,0.1 0.13333,0.31667 0.4,0.65c0.23333,0.33333 0.35,0.98333 0.35,1.95M539.64009,397.33408c-5.66667,0.76667 -8.5,2.98333 -8.5,6.65c0,1.1 0.31667,2.18333 0.95,3.25c1.06667,1.73333 2.73333,2.6 5,2.6c1.4,0 4.56667,-1.58333 9.5,-4.75c5.8,-3.76667 9.4,-7.4 10.8,-10.9c-2.56667,0.96667 -5.66667,1.7 -9.3,2.2c-3.96667,0.4 -6.78333,0.71667 -8.45,0.95M586.94009,271.18408c0.23333,1.8 1.1,6.06667 2.6,12.8c1.26667,5.7 1.9,9.93333 1.9,12.7c0,0.76667 0.95,4.26667 2.85,10.5c2.06667,6.66667 3.61667,10.91667 4.65,12.75c-0.16667,0.5 -0.83333,0.83333 -2,1c-1.9,-2.56667 -3.9,-6.4 -6,-11.5c-2.83333,-6.83333 -4.5,-10.75 -5,-11.75c-3.23333,-6.23333 -7.5,-9.88333 -12.8,-10.95c-2.13333,-0.46667 -3.51667,-1.03333 -4.15,-1.7c-1.03333,-1.1 -1.55,-3.3 -1.55,-6.6c0,-1.66667 0.75,-3.98333 2.25,-6.95c1.63333,-3.2 3.45,-5.71667 5.45,-7.55c5.46667,-5.06667 9.4,-2.65 11.8,7.25M583.19009,271.18408c-1.16667,-1.03333 -2.6,-1.58333 -4.3,-1.65c-1.7,-0.06667 -3.13333,0.4 -4.3,1.4c-1.3,1.06667 -1.95,2.56667 -1.95,4.5c0,2.2 0.91667,3.78333 2.75,4.75c3.76667,2.03333 6.28333,3.6 7.55,4.7c0.86667,-0.1 1.41667,-0.33333 1.65,-0.7c-0.33333,-1.46667 -0.35,-3.11667 -0.05,-4.95c0.4,-2.33333 0.6,-3.53333 0.6,-3.6c0,-1.83333 -0.65,-3.31667 -1.95,-4.45M619.34009,252.03408c-0.93333,2 -1.4,3.1 -1.4,3.3c0,0.6 0.9,6.75 2.7,18.45c1.9,12.43333 3,20.4 3.3,23.9c-0.16667,0.5 -0.58333,0.91667 -1.25,1.25c-2,-2.76667 -3.66667,-6.9 -5,-12.4c-2,-8.13333 -3.08333,-12.41667 -3.25,-12.85c-2.53333,-7.26667 -5.78333,-12.06667 -9.75,-14.4c-1.63333,-0.93333 -2.66667,-1.76667 -3.1,-2.5c-0.76667,-1.3 -1.15,-3.53333 -1.15,-6.7c0,-4.06667 1.05,-7.16667 3.15,-9.3c1.83333,-1.83333 4.16667,-2.73333 7,-2.7c2.63333,0.03333 4.95,0.83333 6.95,2.4c2.1,1.7 3.15,3.76667 3.15,6.2c0,1.56667 -0.45,3.35 -1.35,5.35M616.54009,248.33408c0,-1.5 -0.61667,-2.81667 -1.85,-3.95c-1.13333,-1.03333 -2.48333,-1.63333 -4.05,-1.8c-1.63333,-0.2 -2.98333,0.15 -4.05,1.05c-1.23333,1.03333 -1.85,2.6 -1.85,4.7c0,2.46667 0.8,4.31667 2.4,5.55c1.03333,0.83333 3.41667,2.65 7.15,5.45c0.26667,-0.23333 0.38333,-0.51667 0.35,-0.85c-0.2,-0.7 0.05,-2.48333 0.75,-5.35c0.76667,-3.1 1.15,-4.7 1.15,-4.8M638.59009,251.38408c2.2,0.13333 4.05,0.91667 5.55,2.35c1.7,1.56667 2.55,3.63333 2.55,6.2c0,1.26667 -0.53333,5.41667 -1.6,12.45c-1.1,7.03333 -1.65,13.26667 -1.65,18.7c0,0.86667 -0.13333,2.26667 -0.4,4.2c-0.33333,2.26667 -0.53333,3.98333 -0.6,5.15c-0.03333,0 -0.2,0.15 -0.5,0.45c-0.33333,0.33333 -0.75,0.6 -1.25,0.8c-1.16667,-3 -2.16667,-6.4 -3,-10.2c-0.86667,-4.1 -1.36667,-7.86667 -1.5,-11.3c-0.13333,-4.03333 -1.13333,-8.26667 -3,-12.7c-1.83333,-4.33333 -2.75,-7.35 -2.75,-9.05c0,-2.36667 0.85,-4.2 2.55,-5.5c1.53333,-1.2 3.4,-1.71667 5.6,-1.55M643.14009,258.23408c-1.06667,-0.93333 -2.36667,-1.35 -3.9,-1.25c-1.53333,0.1 -2.85,0.65 -3.95,1.65c-1.16667,1.06667 -1.75,2.38333 -1.75,3.95c0,1.43333 0.85,3.2 2.55,5.3c1.6,1.96667 2.28333,4.13333 2.05,6.5c-0.26667,3.2 -0.36667,5.18333 -0.3,5.95c0.1,2.56667 0.78333,4.43333 2.05,5.6c0.26667,-0.06667 0.55,-0.2 0.85,-0.4c0.26667,-0.2 0.43333,-0.3 0.5,-0.3c0.33333,-4.1 0.5,-7.83333 0.5,-11.2c0,-1.76667 0.53333,-3.8 1.6,-6.1c1.03333,-2.3 1.55,-4.03333 1.55,-5.2c0,-1.96667 -0.58333,-3.46667 -1.75,-4.5M724.94009,290.48408c7.16667,-7 10.75,-6.51667 10.75,1.45c0,2.86667 -1.86667,5.31667 -5.6,7.35c-5.46667,2.5 -9.93333,4.88333 -13.4,7.15c-1.16667,-0.4 -1.76667,-0.6 -1.8,-0.6c-0.46667,-0.33333 -0.7,-1.05 -0.7,-2.15c0,-0.23333 1.11667,-1.8 3.35,-4.7c2.63333,-3.4 5.1,-6.23333 7.4,-8.5M731.54009,295.73408c1.43333,-1 2.15,-2.05 2.15,-3.15c0,-4.16667 -1.5,-4.61667 -4.5,-1.35c-3,4.1 -4.5,6.18333 -4.5,6.25c0,1.16667 0.11667,1.43333 0.35,0.8c2.76667,-0.6 4.93333,-1.45 6.5,-2.55M722.74009,262.58408c2.13333,1.56667 3.2,3.68333 3.2,6.35c0,2.9 -0.18333,4.93333 -0.55,6.1c-0.4,1.3 -1.28333,2.53333 -2.65,3.7c-5.36667,3.63333 -11.3,8.2 -17.8,13.7c-2.5,2.1 -5.98333,5.9 -10.45,11.4c-4.86667,5.96667 -8.13333,9.75 -9.8,11.35c-0.86667,-0.13333 -1.43333,-0.26667 -1.7,-0.4c-0.36667,-0.23333 -0.55,-0.88333 -0.55,-1.95c0,-1.8 1.2,-4.36667 3.6,-7.7c1.43333,-2 4.06667,-5.4 7.9,-10.2c7.66667,-10.06667 11.5,-18.73333 11.5,-26c0,-2.66667 1.06667,-4.78333 3.2,-6.35c1.93333,-1.4 4.28333,-2.1 7.05,-2.1c2.76667,0 5.11667,0.7 7.05,2.1M719.69009,267.98408c-1.1,-1 -2.45,-1.46667 -4.05,-1.4c-1.6,0.1 -2.96667,0.71667 -4.1,1.85c-1.26667,1.3 -1.93333,3 -2,5.1c-0.06667,1.8 -1.2,4.48333 -3.4,8.05c-2.2,3.53333 -3.3,6 -3.3,7.4c0,0.7 0.08333,1.11667 0.25,1.25l0.25,0.15l1.6,-0.05c0.3,-0.53333 3.26667,-3.41667 8.9,-8.65c5.13333,-4.76667 7.7,-7.81667 7.7,-9.15c0,-1.93333 -0.61667,-3.45 -1.85,-4.55M736.19009,373.18408c-3.16667,-0.5 -5.16667,-0.75 -6,-0.75c-1.6,0 -4.01667,-0.18333 -7.25,-0.55c-3.83333,-0.4 -6.75,-0.88333 -8.75,-1.45c0.83333,-0.56667 4,-1.83333 9.5,-3.8c6.13333,-2.2 10.3,-3.85 12.5,-4.95c5.53333,-2.76667 9.7,-3.2 12.5,-1.3c2,1.33333 3,3.35 3,6.05c0,1.73333 -0.5,3.23333 -1.5,4.5c-1.6,2 -4.26667,3 -8,3c-0.83333,0 -2.83333,-0.25 -6,-0.75M743.49009,372.93408c1.86667,0 3.3,-0.7 4.3,-2.1c0.7,-1 1.05,-2.08333 1.05,-3.25c0,-4.16667 -2.08333,-5.63333 -6.25,-4.4c-5.36667,2.5 -9.23333,4.13333 -11.6,4.9l0.2,1.05c0.6,0.76667 1.85,1.15 3.75,1.15c2.1,0 3.63333,0.45 4.6,1.35c0.93333,0.86667 2.25,1.3 3.95,1.3M751.94009,311.43408c0,1.66667 -3.06667,4.41667 -9.2,8.25c-6.4,4 -11.41667,6 -15.05,6c-1.8,0 -2.95,-0.53333 -3.45,-1.6c-0.2,-0.36667 -0.3,-1 -0.3,-1.9c0,-0.16667 1.46667,-1.71667 4.4,-4.65c3.46667,-3.5 6.66667,-6.36667 9.6,-8.6c9.33333,-7.03333 14,-6.2 14,2.5M745.14009,316.18408c1.9,-0.73333 2.85,-2.15 2.85,-4.25c0,-5.8 -2.11667,-6.38333 -6.35,-1.75c-4.23333,5.8 -6.35,8.75 -6.35,8.85c0,0.73333 0.18333,1.1 0.55,1.1c0.16667,0 0.33333,-0.08333 0.5,-0.25c1.1,-0.63333 4.03333,-1.86667 8.8,-3.7z" fill="#00ff00"/><path d="M622.39009,441.33408c0,1.93333 -0.5,3.9 -1.5,5.9c-1.16667,2.4 -2.9,4.48333 -5.2,6.25c-0.56667,-0.13333 -0.91667,-0.25 -1.05,-0.35c-0.2,-0.16667 -0.3,-0.63333 -0.3,-1.4c0,-0.5 0.75,-1.81667 2.25,-3.95c1.5,-2.13333 2.25,-3.66667 2.25,-4.6c0,-0.4 0.41667,-0.98333 1.25,-1.75c0.73333,-0.7 1.26667,-1.11667 1.6,-1.25l0.35,-0.1c0.23333,0.1 0.35,0.51667 0.35,1.25M589.24009,439.53408c3.1,-0.2 4.65,1.33333 4.65,4.6c0,0.86667 -0.36667,1.76667 -1.1,2.7c-0.93333,1.16667 -2.11667,1.75 -3.55,1.75c-1.8,0 -3.11667,-0.7 -3.95,-2.1c-0.46667,-0.83333 -0.7,-1.65 -0.7,-2.45c0,-1.3 0.48333,-2.36667 1.45,-3.2c0.9,-0.8 1.96667,-1.23333 3.2,-1.3M678.84009,458.23408c0,-0.2 -0.56667,-2.28333 -1.7,-6.25c-1.2,-4.26667 -1.88333,-6.76667 -2.05,-7.5c8.93333,11.83333 13.4,18.08333 13.4,18.75c0,1.46667 -0.46667,2.75 -1.4,3.85c-1.06667,1.26667 -2.5,1.9 -4.3,1.9c-2.2,0 -3.8,-0.86667 -4.8,-2.6c-0.6,-1 -0.9,-2 -0.9,-3c0,-0.56667 0.3,-1.41667 0.9,-2.55c0.56667,-1.13333 0.85,-2 0.85,-2.6M704.09009,445.28408c-2.56667,-2.86667 -4.13333,-5.5 -4.7,-7.9c1.16667,-0.03333 2.36667,0.85 3.6,2.65c1.8,2.56667 3.2,4.25 4.2,5.05c1.5,1.23333 4.3,2.85 8.4,4.85c2.03333,1.03333 3.05,2.63333 3.05,4.8c0,1.03333 -0.35,2.11667 -1.05,3.25c-1.06667,1.73333 -2.66667,2.6 -4.8,2.6c-3.4,0 -5.3,-1.41667 -5.7,-4.25c0.3,-2.96667 0.45,-4.58333 0.45,-4.85c0,-1.6 -1.15,-3.66667 -3.45,-6.2M535.59009,351.93408c-2.2,0 -3.8,-0.9 -4.8,-2.7c-0.56667,-1.03333 -0.85,-2.03333 -0.85,-3c0,-1.9 0.61667,-3.35 1.85,-4.35c1.1,-0.86667 2.45,-1.25 4.05,-1.15c1.56667,0.1 2.91667,0.63333 4.05,1.6c1.23333,1.06667 1.85,2.4 1.85,4c0,1.06667 -0.41667,2.15 -1.25,3.25c-1.16667,1.56667 -2.8,2.35 -4.9,2.35M548.09009,396.38408c3.63333,-0.5 6.73333,-1.23333 9.3,-2.2c-1.4,3.5 -5,7.13333 -10.8,10.9c-4.93333,3.16667 -8.1,4.75 -9.5,4.75c-2.26667,0 -3.93333,-0.86667 -5,-2.6c-0.63333,-1.06667 -0.95,-2.15 -0.95,-3.25c0,-3.66667 2.83333,-5.88333 8.5,-6.65c1.66667,-0.23333 4.48333,-0.55 8.45,-0.95M585.14009,275.63408c0,0.06667 -0.2,1.26667 -0.6,3.6c-0.3,1.83333 -0.28333,3.48333 0.05,4.95c-0.23333,0.36667 -0.78333,0.6 -1.65,0.7c-1.26667,-1.1 -3.78333,-2.66667 -7.55,-4.7c-1.83333,-0.96667 -2.75,-2.55 -2.75,-4.75c0,-1.93333 0.65,-3.43333 1.95,-4.5c1.16667,-1 2.6,-1.46667 4.3,-1.4c1.7,0.06667 3.13333,0.61667 4.3,1.65c1.3,1.13333 1.95,2.61667 1.95,4.45M615.39009,253.13408c-0.7,2.86667 -0.95,4.65 -0.75,5.35c0.03333,0.33333 -0.08333,0.61667 -0.35,0.85c-3.73333,-2.8 -6.11667,-4.61667 -7.15,-5.45c-1.6,-1.23333 -2.4,-3.08333 -2.4,-5.55c0,-2.1 0.61667,-3.66667 1.85,-4.7c1.06667,-0.9 2.41667,-1.25 4.05,-1.05c1.56667,0.16667 2.91667,0.76667 4.05,1.8c1.23333,1.13333 1.85,2.45 1.85,3.95c0,0.1 -0.38333,1.7 -1.15,4.8M644.89009,262.73408c0,1.16667 -0.51667,2.9 -1.55,5.2c-1.06667,2.3 -1.6,4.33333 -1.6,6.1c0,3.36667 -0.16667,7.1 -0.5,11.2c-0.06667,0 -0.23333,0.1 -0.5,0.3c-0.3,0.2 -0.58333,0.33333 -0.85,0.4c-1.26667,-1.16667 -1.95,-3.03333 -2.05,-5.6c-0.06667,-0.76667 0.03333,-2.75 0.3,-5.95c0.23333,-2.36667 -0.45,-4.53333 -2.05,-6.5c-1.7,-2.1 -2.55,-3.86667 -2.55,-5.3c0,-1.56667 0.58333,-2.88333 1.75,-3.95c1.1,-1 2.41667,-1.55 3.95,-1.65c1.53333,-0.1 2.83333,0.31667 3.9,1.25c1.16667,1.03333 1.75,2.53333 1.75,4.5M725.04009,298.28408c-0.23333,0.63333 -0.35,0.36667 -0.35,-0.8c0,-0.06667 1.5,-2.15 4.5,-6.25c3,-3.26667 4.5,-2.81667 4.5,1.35c0,1.1 -0.71667,2.15 -2.15,3.15c-1.56667,1.1 -3.73333,1.95 -6.5,2.55M721.54009,272.53408c0,1.33333 -2.56667,4.38333 -7.7,9.15c-5.63333,5.23333 -8.6,8.11667 -8.9,8.65l-1.6,0.05l-0.25,-0.15c-0.16667,-0.13333 -0.25,-0.55 -0.25,-1.25c0,-1.4 1.1,-3.86667 3.3,-7.4c2.2,-3.56667 3.33333,-6.25 3.4,-8.05c0.06667,-2.1 0.73333,-3.8 2,-5.1c1.13333,-1.13333 2.5,-1.75 4.1,-1.85c1.6,-0.06667 2.95,0.4 4.05,1.4c1.23333,1.1 1.85,2.61667 1.85,4.55M739.54009,371.63408c-0.96667,-0.9 -2.5,-1.35 -4.6,-1.35c-1.9,0 -3.15,-0.38333 -3.75,-1.15l-0.2,-1.05c2.36667,-0.76667 6.23333,-2.4 11.6,-4.9c4.16667,-1.23333 6.25,0.23333 6.25,4.4c0,1.16667 -0.35,2.25 -1.05,3.25c-1,1.4 -2.43333,2.1 -4.3,2.1c-1.7,0 -3.01667,-0.43333 -3.95,-1.3M735.29009,319.03408c0,-0.1 2.11667,-3.05 6.35,-8.85c4.23333,-4.63333 6.35,-4.05 6.35,1.75c0,2.1 -0.95,3.51667 -2.85,4.25c-4.76667,1.83333 -7.7,3.06667 -8.8,3.7c-0.16667,0.16667 -0.33333,0.25 -0.5,0.25c-0.36667,0 -0.55,-0.36667 -0.55,-1.1z" fill="#ffffff"/></g></g></svg>