<svg version="1.1" xmlns="http://www.w3.org/2000/svg" xmlns:xlink="http://www.w3.org/1999/xlink" width="51.59004" height="71.771" viewBox="0,0,51.59004,71.771"><g transform="translate(-609.76983,-334.61951)"><g data-paper-data="{&quot;isPaintingLayer&quot;:true}" fill-rule="nonzero" stroke="none" stroke-width="1" stroke-linecap="round" stroke-linejoin="miter" stroke-miterlimit="4" stroke-dasharray="" stroke-dashoffset="0" style="mix-blend-mode: normal"><path d="M629.82549,347.60051c1.0763,2.36771 2.24297,4.16771 3.5,5.4c2.07187,2.72526 4.65521,6.44193 7.75,11.15c3.73333,5.73333 6.26667,9.53333 7.6,11.4c3.03333,4.36667 6.33333,8.61667 9.9,12.75l-0.55,-0.5c0.03099,0.04648 0.06432,0.09648 0.1,0.15c0.24661,0.3543 0.59661,0.8043 1.05,1.35c0.16589,0.22396 0.34922,0.45729 0.55,0.7c0.6,0.9 0.91667,1.73333 0.95,2.5c0,0.08997 0,0.17331 0,0.25c0.32578,0.99076 0.52578,1.85742 0.6,2.6c0.3,2.36667 -0.2,4.71667 -1.5,7.05c-0.96667,1.66667 -2.15,2.81667 -3.55,3.45c-1.4,0.6 -2.98333,0.7 -4.75,0.3c-1.00638,-0.26641 -1.82305,-0.61641 -2.45,-1.05c-1.93034,-0.72617 -3.88034,-2.45951 -5.85,-5.2c-1.4,-1.5 -2.8,-3.5 -4.2,-6c-1.5,-2.9 -2.65,-5.06667 -3.45,-6.5c-1.13333,-2.06667 -3.28333,-5.35 -6.45,-9.85c-4.83333,-6.83333 -8.2,-11.78333 -10.1,-14.85c-3.53333,-5.66667 -6.21667,-10.96667 -8.05,-15.9c-1.16667,-3.13333 -1.45,-5.63333 -0.85,-7.5c0.4,-1.2 1.15,-2.21667 2.25,-3.05c1.03333,-0.83333 2.21667,-1.35 3.55,-1.55c2.23333,-0.3 4.38333,0.23333 6.45,1.6c1.76667,1.13333 3.26667,2.78333 4.5,4.95c0.16667,0.3 1.16667,2.41667 3,6.35M616.87549,340.65051c-0.43333,0.03333 -0.75,0.21667 -0.95,0.55c-0.23333,0.4 -0.21667,1.01667 0.05,1.85c1.8,5.36667 4.78333,11.3 8.95,17.8c2.4,3.76667 6.16667,9.31667 11.3,16.65l-0.3,-0.5c1.53333,1.93333 3.63333,5.36667 6.3,10.3c2.32435,4.33464 4.37435,7.5513 6.15,9.65l0.1,0.1c0.08906,0.11276 0.1724,0.21276 0.25,0.3c0.01224,0.02995 0.02891,0.06328 0.05,0.1c0.32266,0.69128 1.13932,1.32461 2.45,1.9c0.80586,0.3582 1.43919,0.69154 1.9,1c0.1901,0.05378 0.35677,0.05378 0.5,0c0.26667,-0.06667 0.55,-0.31667 0.85,-0.75c0.5,-0.76667 0.78333,-1.63333 0.85,-2.6c0.1,-0.93333 -0.03333,-1.81667 -0.4,-2.65c-0.06667,-0.16667 -0.4,-0.83333 -1,-2c-0.01458,-0.02578 -0.03125,-0.05911 -0.05,-0.1c-0.77604,-1.08724 -2.30938,-3.02057 -4.6,-5.8c-4.63333,-5.7 -8.73333,-11.65 -12.3,-17.85l0.25,0.5l-8.6,-12.5c-2.00339,-2.06862 -3.87005,-5.18529 -5.6,-9.35c-0.8,-1.9 -1.4,-3.16667 -1.8,-3.8c-0.9,-1.36667 -1.93333,-2.25 -3.1,-2.65c-0.4,-0.16667 -0.81667,-0.21667 -1.25,-0.15z" fill="#000000"/><path d="M623.02549,347.25051c1.72995,4.16471 3.59661,7.28138 5.6,9.35l8.6,12.5l-0.25,-0.5c3.56667,6.2 7.66667,12.15 12.3,17.85c2.29062,2.77943 3.82396,4.71276 4.6,5.8c0.01875,0.04089 0.03542,0.07422 0.05,0.1c0.6,1.16667 0.93333,1.83333 1,2c0.36667,0.83333 0.5,1.71667 0.4,2.65c-0.06667,0.96667 -0.35,1.83333 -0.85,2.6c-0.3,0.43333 -0.58333,0.68333 -0.85,0.75c-0.14323,0.05378 -0.3099,0.05378 -0.5,0c-0.46081,-0.30846 -1.09414,-0.6418 -1.9,-1c-1.31068,-0.57539 -2.12734,-1.20872 -2.45,-1.9c-0.02109,-0.03672 -0.03776,-0.07005 -0.05,-0.1c-0.0776,-0.08724 -0.16094,-0.18724 -0.25,-0.3l-0.1,-0.1c-1.77565,-2.0987 -3.82565,-5.31536 -6.15,-9.65c-2.66667,-4.93333 -4.76667,-8.36667 -6.3,-10.3l0.3,0.5c-5.13333,-7.33333 -8.9,-12.88333 -11.3,-16.65c-4.16667,-6.5 -7.15,-12.43333 -8.95,-17.8c-0.26667,-0.83333 -0.28333,-1.45 -0.05,-1.85c0.2,-0.33333 0.51667,-0.51667 0.95,-0.55c0.43333,-0.06667 0.85,-0.01667 1.25,0.15c1.16667,0.4 2.2,1.28333 3.1,2.65c0.4,0.63333 1,1.9 1.8,3.8z" fill="#ffffff"/></g></g></svg>