<svg version="1.1" xmlns="http://www.w3.org/2000/svg" xmlns:xlink="http://www.w3.org/1999/xlink" width="49.75" height="68.47902" viewBox="0,0,49.75,68.47902"><g transform="translate(-606.60661,-337.83784)"><g data-paper-data="{&quot;isPaintingLayer&quot;:true}" fill-rule="nonzero" stroke="none" stroke-width="1" stroke-linecap="butt" stroke-linejoin="miter" stroke-miterlimit="10" stroke-dasharray="" stroke-dashoffset="0" style="mix-blend-mode: normal"><path d="M653.65661,354.98784c0.06667,0.26667 0.16667,0.51667 0.3,0.75c0.13333,0.23333 0.21667,0.51667 0.25,0.85c0.03333,0.53333 0.15,1.06667 0.35,1.6c0.13333,0.36667 0.25,0.71667 0.35,1.05c0,0.1 0,0.2 0,0.3c0,0.06667 0,0.15 0,0.25c0.03333,0.1 0.06667,0.18333 0.1,0.25c0.06667,0.1 0.11667,0.2 0.15,0.3c0.06667,0.06667 0.1,0.15 0.1,0.25c0,0.1 0.01667,0.18333 0.05,0.25c0,0.1 0.01667,0.2 0.05,0.3c0,0.06667 0,0.15 0,0.25c0,0.1 0,0.18333 0,0.25c0.03333,0.1 0.06667,0.2 0.1,0.3c0.03333,0.1 0.06667,0.18333 0.1,0.25c0.03333,0.1 0.06667,0.2 0.1,0.3c0,0.06667 0,0.15 0,0.25c0,0.1 0,0.18333 0,0.25c0,0.1 0,0.2 0,0.3c0,0.06667 0,0.15 0,0.25c0,0.1 0.01667,0.18333 0.05,0.25c0.03333,0.1 0.06667,0.2 0.1,0.3c0.03333,0.06667 0.06667,0.15 0.1,0.25c0.03333,0.1 0.06667,0.18333 0.1,0.25c0,0.1 0,0.2 0,0.3c0,0.16667 0,0.33333 0,0.5c0,0.2 0,0.38333 0,0.55c0,0.2 0,0.38333 0,0.55c0,0.36667 0,0.71667 0,1.05c0,0.2 0,0.38333 0,0.55c0.03333,0.1 0.06667,0.18333 0.1,0.25c0,0.1 0.01667,0.2 0.05,0.3c0.03333,0.06667 0.06667,0.15 0.1,0.25c0.03333,0.1 0.06667,0.18333 0.1,0.25c0,0.2 0,0.38333 0,0.55c0,0.36667 0,0.73333 0,1.1c0,0.43333 -0.01667,0.86667 -0.05,1.3c-0.03333,0.56667 -0.05,1.11667 -0.05,1.65c0.03333,0.46667 -0.08333,0.9 -0.35,1.3c0,0.1 0,0.2 0,0.3c0,0.16667 0,0.33333 0,0.5c0,0.1 0,0.2 0,0.3c0,0.16667 0,0.33333 0,0.5c0,0.1 0,0.2 0,0.3c0,0.23333 0,0.5 0,0.8c-0.03333,0.1 -0.06667,0.18333 -0.1,0.25c-0.03333,0.1 -0.06667,0.2 -0.1,0.3c-0.03333,0.06667 -0.05,0.15 -0.05,0.25c-0.03333,0.1 -0.06667,0.18333 -0.1,0.25c0,0.1 0,0.2 0,0.3c0,0.16667 0,0.33333 0,0.5c0,0.1 0,0.2 0,0.3c0,0.16667 -0.01667,0.33333 -0.05,0.5c0,0.1 0,0.2 0,0.3c-0.03333,0.26667 -0.11667,0.53333 -0.25,0.8c0,0.1 0,0.18333 0,0.25c0,0.1 0,0.2 0,0.3c0,0.06667 0,0.15 0,0.25c0,0.1 -0.01667,0.18333 -0.05,0.25c-0.06667,0.2 -0.13333,0.38333 -0.2,0.55c-0.03333,0.1 -0.06667,0.18333 -0.1,0.25c-0.06667,0.2 -0.15,0.38333 -0.25,0.55c-0.03333,0.1 -0.06667,0.18333 -0.1,0.25c-0.03333,0.1 -0.06667,0.2 -0.1,0.3c0,0.06667 0,0.15 0,0.25c0,0.1 0,0.2 0,0.3c-0.03333,0.06667 -0.05,0.15 -0.05,0.25c-0.03333,0.1 -0.06667,0.18333 -0.1,0.25c-0.03333,0.1 -0.06667,0.2 -0.1,0.3c-0.03333,0.06667 -0.06667,0.15 -0.1,0.25c0,0.1 0,0.18333 0,0.25c0,0.1 0,0.2 0,0.3c-1.46667,5.83333 -4.58333,10.56667 -9.35,14.2c-3.36667,2.56667 -7.11667,4.26667 -11.25,5.1c-5.16667,1.03333 -9.91667,0.2 -14.25,-2.5c-0.86667,-0.53333 -1.71667,-1.05 -2.55,-1.55c-0.1,-0.1 -0.18333,-0.18333 -0.25,-0.25c-0.1,-0.1 -0.2,-0.2 -0.3,-0.3c-0.1,-0.06667 -0.21667,-0.15 -0.35,-0.25c-0.16667,-0.1 -0.33333,-0.18333 -0.5,-0.25c-0.2,-0.2 -0.38333,-0.38333 -0.55,-0.55c-0.36667,-0.36667 -0.7,-0.75 -1,-1.15c-0.36667,-0.4 -0.68333,-0.83333 -0.95,-1.3c-0.3,-0.46667 -0.66667,-0.9 -1.1,-1.3c-0.06667,-0.1 -0.11667,-0.2 -0.15,-0.3c-0.03333,-0.06667 -0.08333,-0.15 -0.15,-0.25c-0.03333,-0.1 -0.08333,-0.18333 -0.15,-0.25c-0.06667,-0.1 -0.15,-0.2 -0.25,-0.3c-0.06667,-0.06667 -0.13333,-0.15 -0.2,-0.25c-0.13333,-0.46667 -0.33333,-0.91667 -0.6,-1.35c-0.5,-0.83333 -0.88333,-1.71667 -1.15,-2.65c-0.3,-1.1 -0.63333,-2.18333 -1,-3.25c-0.26667,-0.7 -0.5,-1.4 -0.7,-2.1c0,-0.1 0,-0.2 0,-0.3c0,-0.06667 0,-0.15 0,-0.25c0,-0.1 0,-0.18333 0,-0.25c-0.03333,-0.1 -0.06667,-0.2 -0.1,-0.3c-0.03333,-0.1 -0.06667,-0.18333 -0.1,-0.25c-0.03333,-0.1 -0.06667,-0.2 -0.1,-0.3c-0.03333,-0.06667 -0.06667,-0.15 -0.1,-0.25c0,-0.1 0,-0.18333 0,-0.25c0,-0.1 0,-0.2 0,-0.3c0,-0.06667 0,-0.15 0,-0.25c0,-0.1 0,-0.18333 0,-0.25c0,-0.1 0,-0.2 0,-0.3c0,-0.06667 -0.01667,-0.15 -0.05,-0.25c-0.03333,-0.1 -0.06667,-0.18333 -0.1,-0.25c-0.03333,-0.1 -0.06667,-0.2 -0.1,-0.3c-0.03333,-0.06667 -0.06667,-0.15 -0.1,-0.25c0,-0.43333 0,-0.88333 0,-1.35c0,-0.86667 0,-1.75 0,-2.65c0,-1 0,-1.98333 0,-2.95c0,-0.9 0,-1.8 0,-2.7c0.03333,-0.1 0.06667,-0.18333 0.1,-0.25c0.03333,-0.1 0.06667,-0.2 0.1,-0.3c0.03333,-0.06667 0.06667,-0.15 0.1,-0.25c0.03333,-0.1 0.05,-0.18333 0.05,-0.25c0,-0.1 0,-0.2 0,-0.3c0,-0.26667 0,-0.53333 0,-0.8c0,-0.26667 0,-0.53333 0,-0.8c0,-0.43333 0,-0.88333 0,-1.35c0,-0.33333 0,-0.68333 0,-1.05c0.03333,-0.1 0.06667,-0.18333 0.1,-0.25c0.03333,-0.1 0.06667,-0.2 0.1,-0.3c0.03333,-0.06667 0.06667,-0.15 0.1,-0.25c0.03333,-0.1 0.06667,-0.2 0.1,-0.3c0,-0.06667 0,-0.15 0,-0.25c0,-0.1 0,-0.18333 0,-0.25c0,-0.1 0,-0.2 0,-0.3c0,-0.06667 0,-0.15 0,-0.25c0.03333,-0.1 0.05,-0.18333 0.05,-0.25c0.03333,-0.1 0.06667,-0.2 0.1,-0.3c0.03333,-0.06667 0.06667,-0.15 0.1,-0.25c0.03333,-0.1 0.06667,-0.18333 0.1,-0.25c0,-0.1 0,-0.2 0,-0.3c0.03333,-0.16667 0.05,-0.33333 0.05,-0.5c0.03333,-0.1 0.05,-0.2 0.05,-0.3c0.06667,-0.16667 0.15,-0.35 0.25,-0.55c0.03333,-0.06667 0.05,-0.15 0.05,-0.25c0,-0.3 0.1,-0.56667 0.3,-0.8c0,-0.1 0,-0.18333 0,-0.25c0,-0.1 0,-0.2 0,-0.3c0,-0.06667 0,-0.15 0,-0.25c0.03333,-0.1 0.06667,-0.18333 0.1,-0.25c0.06667,-0.2 0.11667,-0.38333 0.15,-0.55c0.03333,-0.1 0.06667,-0.18333 0.1,-0.25c0.06667,-0.2 0.13333,-0.38333 0.2,-0.55c0.03333,-0.1 0.06667,-0.18333 0.1,-0.25c0.1,-0.2 0.21667,-0.38333 0.35,-0.55c0.03333,-0.1 0.05,-0.2 0.05,-0.3c0.03333,-0.16667 0.08333,-0.33333 0.15,-0.5c0.03333,-0.2 0.08333,-0.38333 0.15,-0.55c0.06667,-0.16667 0.11667,-0.35 0.15,-0.55c0.16667,-0.46667 0.38333,-0.9 0.65,-1.3c0.1,-0.2 0.21667,-0.38333 0.35,-0.55c0,-0.3 0.05,-0.56667 0.15,-0.8c0.16667,-0.4 0.35,-0.78333 0.55,-1.15c0.33333,-0.7 0.73333,-1.38333 1.2,-2.05c0.43333,-0.6 0.8,-1.23333 1.1,-1.9c0.06667,-0.1 0.11667,-0.18333 0.15,-0.25c0.03333,-0.1 0.08333,-0.2 0.15,-0.3c0.16667,-0.16667 0.3,-0.35 0.4,-0.55c0.06667,-0.06667 0.11667,-0.13333 0.15,-0.2c0.13333,-0.2 0.28333,-0.4 0.45,-0.6c0.06667,-0.06667 0.11667,-0.15 0.15,-0.25c0.1,-0.16667 0.2,-0.35 0.3,-0.55c0.06667,-0.06667 0.15,-0.15 0.25,-0.25c0.1,-0.1 0.2,-0.18333 0.3,-0.25c0.1,-0.1 0.21667,-0.2 0.35,-0.3c0.1,-0.06667 0.21667,-0.15 0.35,-0.25c0.83333,-1 1.78333,-1.88333 2.85,-2.65c2.96667,-2.13333 6.23333,-3.25 9.8,-3.35c0.4,-0.03333 0.73333,-0.08333 1,-0.15c5.16667,0.03333 9.98333,1.23333 14.45,3.6c0.73333,0.4 1.41667,0.93333 2.05,1.6c2.96667,3.26667 5.11667,6.96667 6.45,11.1c0,0.1 0,0.2 0,0.3c0,0.1 0,0.18333 0,0.25c0.06667,0.1 0.11667,0.2 0.15,0.3M648.50661,359.13784c-0.06667,-0.16667 -0.13333,-0.33333 -0.2,-0.5c0,-0.1 0,-0.2 0,-0.3c0,-0.06667 0,-0.15 0,-0.25c-0.3,-0.7 -0.53333,-1.41667 -0.7,-2.15c-0.2,-0.93333 -0.53333,-1.81667 -1,-2.65c-0.6,-1.16667 -1.18333,-2.33333 -1.75,-3.5c-0.2,-0.16667 -0.38333,-0.35 -0.55,-0.55c-0.06667,-0.06667 -0.13333,-0.15 -0.2,-0.25c-0.06667,-0.1 -0.11667,-0.2 -0.15,-0.3c-0.03333,-0.06667 -0.06667,-0.15 -0.1,-0.25c-0.26667,-0.26667 -0.53333,-0.53333 -0.8,-0.8c-0.16667,-0.16667 -0.31667,-0.33333 -0.45,-0.5c-0.36667,-0.4 -0.75,-0.78333 -1.15,-1.15c-0.3,-0.26667 -0.63333,-0.51667 -1,-0.75c-1.16667,-0.43333 -2.36667,-0.76667 -3.6,-1c-1.83333,-0.3 -3.66667,-0.56667 -5.5,-0.8c-2.43333,0.23333 -4.73333,0.93333 -6.9,2.1c-1.7,0.93333 -3.21667,2.15 -4.55,3.65c-0.23333,0.46667 -0.48333,0.91667 -0.75,1.35c-0.3,0.53333 -0.63333,1.06667 -1,1.6c-0.43333,0.66667 -0.83333,1.36667 -1.2,2.1c-0.1,0.2 -0.21667,0.38333 -0.35,0.55c-0.06667,0.46667 -0.23333,0.9 -0.5,1.3c-0.36667,0.5 -0.61667,1.05 -0.75,1.65c-0.16667,0.83333 -0.43333,1.65 -0.8,2.45c-0.16667,0.33333 -0.31667,0.68333 -0.45,1.05c0,0.06667 0,0.15 0,0.25c0,0.1 0,0.18333 0,0.25c-0.06667,0.26667 -0.15,0.53333 -0.25,0.8c-0.03333,0.1 -0.06667,0.2 -0.1,0.3c-0.03333,0.06667 -0.06667,0.15 -0.1,0.25c0,0.1 -0.01667,0.18333 -0.05,0.25c-0.06667,0.2 -0.13333,0.38333 -0.2,0.55c0,0.16667 -0.01667,0.35 -0.05,0.55c0,0.1 0,0.18333 0,0.25c-0.03333,0.1 -0.05,0.18333 -0.05,0.25c-0.03333,0.1 -0.06667,0.2 -0.1,0.3c-0.03333,0.1 -0.08333,0.18333 -0.15,0.25c0,0.26667 0,0.53333 0,0.8c0,0.1 -0.01667,0.2 -0.05,0.3c0,0.06667 0,0.15 0,0.25c-0.03333,0.1 -0.06667,0.18333 -0.1,0.25c-0.06667,0.2 -0.13333,0.38333 -0.2,0.55c0,0.36667 0,0.73333 0,1.1c0,0.43333 0,0.86667 0,1.3c0,0.56667 0,1.1 0,1.6c0,0.5 -0.11667,0.95 -0.35,1.35c0,0.46667 0,0.91667 0,1.35c0,0.53333 0,1.06667 0,1.6c0,0.8 0,1.6 0,2.4c0,0.56667 0,1.11667 0,1.65c0.03333,0.16667 0.08333,0.33333 0.15,0.5c0.03333,0.1 0.06667,0.2 0.1,0.3c0.03333,0.06667 0.06667,0.15 0.1,0.25c0,0.16667 0,0.35 0,0.55c0,0.06667 0,0.15 0,0.25c0,0.1 0,0.18333 0,0.25c0,0.1 0,0.2 0,0.3c0.06667,0.16667 0.11667,0.33333 0.15,0.5c0.03333,0.1 0.06667,0.2 0.1,0.3c0.03333,0.06667 0.06667,0.15 0.1,0.25c0,0.1 0,0.2 0,0.3c0,0.06667 0,0.15 0,0.25c0,0.1 0,0.18333 0,0.25c0.23333,0.8 0.48333,1.6 0.75,2.4c0.46667,1.23333 0.91667,2.46667 1.35,3.7c0.5,1.43333 1.25,2.7 2.25,3.8c0.06667,0.1 0.13333,0.2 0.2,0.3c0.03333,0.06667 0.06667,0.15 0.1,0.25c0.06667,0.1 0.11667,0.18333 0.15,0.25c0.26667,0.26667 0.53333,0.55 0.8,0.85c0.1,0.06667 0.2,0.15 0.3,0.25c0.16667,0.16667 0.33333,0.35 0.5,0.55c0.1,0.06667 0.2,0.15 0.3,0.25c6.46667,4.63333 13.11667,4.86667 19.95,0.7c1.26667,-0.76667 2.41667,-1.68333 3.45,-2.75c0.3,-0.43333 0.61667,-0.86667 0.95,-1.3c0.4,-0.43333 0.78333,-0.9 1.15,-1.4c0.43333,-0.6 0.85,-1.21667 1.25,-1.85c0.06667,-0.1 0.13333,-0.2 0.2,-0.3c0,-0.06667 0,-0.15 0,-0.25c0.03333,-0.1 0.06667,-0.18333 0.1,-0.25c0.06667,-0.1 0.11667,-0.2 0.15,-0.3c0.06667,-0.06667 0.13333,-0.15 0.2,-0.25c0.06667,-0.1 0.13333,-0.18333 0.2,-0.25c0,-0.36667 0.1,-0.71667 0.3,-1.05c0.16667,-0.36667 0.28333,-0.73333 0.35,-1.1c0.06667,-0.46667 0.15,-0.91667 0.25,-1.35c0.1,-0.46667 0.26667,-0.91667 0.5,-1.35c0,-0.06667 0,-0.15 0,-0.25c0,-0.1 0,-0.18333 0,-0.25c0,-0.1 0,-0.2 0,-0.3c0.1,-0.26667 0.18333,-0.53333 0.25,-0.8c0.03333,-0.1 0.06667,-0.18333 0.1,-0.25c0.06667,-0.2 0.13333,-0.38333 0.2,-0.55c0.06667,-0.16667 0.11667,-0.35 0.15,-0.55c0.03333,-0.06667 0.06667,-0.15 0.1,-0.25c0,-0.1 0,-0.18333 0,-0.25c0,-0.1 0,-0.2 0,-0.3c0.03333,-0.06667 0.06667,-0.15 0.1,-0.25c0.03333,-0.1 0.06667,-0.18333 0.1,-0.25c0.03333,-0.1 0.06667,-0.2 0.1,-0.3c0,-0.16667 0,-0.33333 0,-0.5c0,-0.1 0,-0.2 0,-0.3c0,-0.1 0,-0.18333 0,-0.25c0,-0.1 0,-0.2 0,-0.3c0,-0.06667 0,-0.15 0,-0.25c0.03333,-0.16667 0.08333,-0.35 0.15,-0.55c0.03333,-0.06667 0.06667,-0.15 0.1,-0.25c0.03333,-0.1 0.06667,-0.18333 0.1,-0.25c0,-0.26667 0,-0.53333 0,-0.8c0,-0.1 0,-0.2 0,-0.3c0,-0.16667 0,-0.33333 0,-0.5c0,-0.3 0,-0.58333 0,-0.85c0,-0.16667 0,-0.33333 0,-0.5c0.03333,-0.2 0.08333,-0.38333 0.15,-0.55c0.03333,-0.1 0.06667,-0.18333 0.1,-0.25c0.03333,-0.1 0.06667,-0.2 0.1,-0.3c0,-0.16667 -0.01667,-0.33333 -0.05,-0.5c0,-0.1 -0.01667,-0.2 -0.05,-0.3c0,-0.06667 0,-0.15 0,-0.25c0,-0.1 0,-0.18333 0,-0.25c0,-0.1 0,-0.2 0,-0.3c0,-0.1 0,-0.18333 0,-0.25c-0.06667,-0.2 -0.13333,-0.38333 -0.2,-0.55c0,-0.1 -0.01667,-0.18333 -0.05,-0.25c-0.03333,-0.1 -0.06667,-0.2 -0.1,-0.3c0,-0.26667 0,-0.53333 0,-0.8c0,-0.06667 0,-0.15 0,-0.25c0,-0.26667 0,-0.53333 0,-0.8c0,-0.26667 0,-0.53333 0,-0.8c0,-0.3 0,-0.56667 0,-0.8c-0.06667,-0.2 -0.13333,-0.38333 -0.2,-0.55c-0.03333,-0.1 -0.05,-0.18333 -0.05,-0.25c-0.03333,-0.1 -0.06667,-0.2 -0.1,-0.3c0,-0.16667 0,-0.33333 0,-0.5c0,-0.1 0,-0.2 0,-0.3c0,-0.06667 0,-0.15 0,-0.25c0,-0.1 0,-0.18333 0,-0.25c-0.1,-0.3 -0.18333,-0.58333 -0.25,-0.85c-0.03333,-0.06667 -0.05,-0.15 -0.05,-0.25c-0.06667,-0.16667 -0.13333,-0.35 -0.2,-0.55c-0.1,-0.26667 -0.16667,-0.53333 -0.2,-0.8c-0.03333,-0.16667 -0.05,-0.33333 -0.05,-0.5c-0.06667,-0.3 -0.15,-0.56667 -0.25,-0.8c-0.03333,-0.1 -0.06667,-0.2 -0.1,-0.3c-0.03333,-0.06667 -0.05,-0.15 -0.05,-0.25c-0.03333,-0.1 -0.06667,-0.2 -0.1,-0.3M636.55661,354.83784c1.06667,0.73333 1.91667,1.63333 2.55,2.7c0.1,0.1 0.2,0.2 0.3,0.3c0.06667,0.06667 0.15,0.15 0.25,0.25c0.06667,0.1 0.13333,0.18333 0.2,0.25c0.03333,0.1 0.08333,0.2 0.15,0.3c0.03333,0.06667 0.06667,0.15 0.1,0.25c0.1,0.1 0.18333,0.18333 0.25,0.25c0.1,0.1 0.2,0.2 0.3,0.3c0.06667,0.1 0.15,0.18333 0.25,0.25c0.93333,1.63333 1.7,3.33333 2.3,5.1c0.86667,2.73333 1.21667,5.6 1.05,8.6c-0.06667,0.73333 -0.26667,1.43333 -0.6,2.1c0,0.1 0,0.2 0,0.3c0,0.06667 0,0.15 0,0.25c0,0.1 0,0.18333 0,0.25c-0.33333,1.5 -0.76667,2.93333 -1.3,4.3c-1.1,2.96667 -3,5.31667 -5.7,7.05c-0.2,0.16667 -0.41667,0.28333 -0.65,0.35c-0.1,0.1 -0.2,0.2 -0.3,0.3c-0.06667,0.06667 -0.15,0.15 -0.25,0.25c-0.13333,0.1 -0.25,0.18333 -0.35,0.25c-0.13333,0.1 -0.25,0.2 -0.35,0.3c-1.9,0.86667 -3.88333,1.15 -5.95,0.85c-1.26667,-0.2 -2.43333,-0.66667 -3.5,-1.4c-0.2,-0.16667 -0.38333,-0.35 -0.55,-0.55c-0.3,-0.23333 -0.56667,-0.46667 -0.8,-0.7c-0.43333,-0.43333 -0.8,-0.91667 -1.1,-1.45c-0.06667,-0.16667 -0.15,-0.33333 -0.25,-0.5c-0.1,-0.1 -0.18333,-0.2 -0.25,-0.3c-0.1,-0.06667 -0.2,-0.15 -0.3,-0.25c-0.06667,-0.1 -0.15,-0.18333 -0.25,-0.25c-0.16667,-0.26667 -0.3,-0.51667 -0.4,-0.75c-0.23333,-0.46667 -0.45,-0.93333 -0.65,-1.4c-0.26667,-0.73333 -0.5,-1.45 -0.7,-2.15c-0.03333,-0.16667 -0.05,-0.35 -0.05,-0.55c-0.03333,-0.1 -0.06667,-0.18333 -0.1,-0.25c-0.03333,-0.1 -0.05,-0.2 -0.05,-0.3c-0.03333,-0.06667 -0.06667,-0.15 -0.1,-0.25c-0.03333,-0.1 -0.06667,-0.18333 -0.1,-0.25c0,-0.1 0,-0.2 0,-0.3c0,-0.06667 0,-0.15 0,-0.25c0,-0.1 0,-0.18333 0,-0.25c0,-0.1 0,-0.2 0,-0.3c0,-0.16667 0,-0.33333 0,-0.5c0,-0.2 0,-0.38333 0,-0.55c-0.03333,-0.1 -0.06667,-0.18333 -0.1,-0.25c-0.03333,-0.1 -0.06667,-0.2 -0.1,-0.3c0,-0.1 -0.01667,-0.18333 -0.05,-0.25c-0.03333,-0.1 -0.06667,-0.2 -0.1,-0.3c0,-0.16667 0,-0.33333 0,-0.5c0,-0.3 0,-0.56667 0,-0.8c0,-0.46667 0,-0.91667 0,-1.35c0,-0.53333 0,-1.06667 0,-1.6c0.03333,-0.1 0.06667,-0.2 0.1,-0.3c0.03333,-0.06667 0.05,-0.15 0.05,-0.25c0.03333,-0.1 0.06667,-0.18333 0.1,-0.25c0.03333,-0.1 0.06667,-0.2 0.1,-0.3c0.03333,-0.06667 0.06667,-0.15 0.1,-0.25c0,-0.1 0,-0.18333 0,-0.25c0,-0.1 0,-0.2 0,-0.3c0,-0.06667 0,-0.15 0,-0.25c0.03333,-0.1 0.06667,-0.18333 0.1,-0.25c0,-0.1 0.03333,-0.2 0.1,-0.3c0.03333,-0.06667 0.08333,-0.15 0.15,-0.25c0.3,-2.26667 0.98333,-4.45 2.05,-6.55c1.9,-3.83333 4.88333,-6.45 8.95,-7.85c0.16667,0 0.33333,-0.01667 0.5,-0.05c1.83333,-0.23333 3.48333,0.13333 4.95,1.1M629.85661,359.68784c-0.36667,0.53333 -0.78333,1.05 -1.25,1.55c-0.6,0.66667 -1.06667,1.4 -1.4,2.2c-0.06667,0.1 -0.15,0.2 -0.25,0.3c-0.06667,0.36667 -0.18333,0.71667 -0.35,1.05c-0.3,0.5 -0.5,1.03333 -0.6,1.6c-0.06667,0.3 -0.18333,0.56667 -0.35,0.8c0,0.1 0,0.2 0,0.3c0,0.06667 0,0.15 0,0.25c-0.03333,0.1 -0.06667,0.18333 -0.1,0.25c-0.03333,0.1 -0.06667,0.18333 -0.1,0.25c-0.06667,0.1 -0.11667,0.2 -0.15,0.3c0,0.16667 0,0.35 0,0.55c0,0.06667 -0.01667,0.15 -0.05,0.25c0,0.16667 -0.03333,0.33333 -0.1,0.5c-0.06667,0.2 -0.15,0.38333 -0.25,0.55c0,0.1 0,0.2 0,0.3c0,0.06667 0,0.15 0,0.25c-0.03333,0.1 -0.05,0.2 -0.05,0.3c-0.03333,0.06667 -0.06667,0.15 -0.1,0.25c-0.03333,0.1 -0.06667,0.18333 -0.1,0.25c0,0.2 0,0.38333 0,0.55c0,0.16667 0,0.35 0,0.55c0,0.33333 0,0.68333 0,1.05c0,0.1 0,0.18333 0,0.25c0.03333,0.1 0.06667,0.2 0.1,0.3c0.03333,0.06667 0.06667,0.15 0.1,0.25c0,0.1 0.01667,0.2 0.05,0.3c0.03333,0.06667 0.06667,0.15 0.1,0.25c0,0.16667 0,0.35 0,0.55c0,0.06667 0,0.15 0,0.25c0,0.16667 0,0.35 0,0.55c0,0.16667 0,0.33333 0,0.5c0.03333,0.1 0.06667,0.2 0.1,0.3c0.03333,0.06667 0.06667,0.15 0.1,0.25c0.03333,0.1 0.06667,0.18333 0.1,0.25c0,0.1 0.01667,0.2 0.05,0.3c0,0.06667 0,0.15 0,0.25c0,0.1 0,0.2 0,0.3c0,0.06667 0,0.15 0,0.25c0.16667,0.26667 0.28333,0.53333 0.35,0.8c0.1,0.36667 0.26667,0.71667 0.5,1.05c0.16667,0.26667 0.28333,0.53333 0.35,0.8c0.2,0.33333 0.43333,0.6 0.7,0.8c0.46667,0.3 0.85,0.66667 1.15,1.1c0.06667,0.1 0.13333,0.18333 0.2,0.25c0.13333,0.1 0.28333,0.2 0.45,0.3c0.13333,0.06667 0.26667,0.15 0.4,0.25c0.53333,0.23333 1.08333,0.26667 1.65,0.1c0.66667,-0.16667 1.21667,-0.53333 1.65,-1.1c0.53333,-0.23333 1.03333,-0.51667 1.5,-0.85c0.46667,-0.4 0.93333,-0.81667 1.4,-1.25c0.2,-0.4 0.41667,-0.78333 0.65,-1.15c0.3,-0.46667 0.55,-0.96667 0.75,-1.5c0.1,-0.3 0.21667,-0.58333 0.35,-0.85c0,-0.1 0,-0.18333 0,-0.25c0,-0.1 0,-0.2 0,-0.3c0.13333,-0.36667 0.25,-0.71667 0.35,-1.05c0.13333,-0.53333 0.25,-1.08333 0.35,-1.65c0.06667,-0.36667 0.2,-0.71667 0.4,-1.05c0,-0.53333 0,-1.06667 0,-1.6c0,-0.7 0,-1.41667 0,-2.15c0,-0.36667 0,-0.71667 0,-1.05c-0.6,-1.83333 -1.31667,-3.61667 -2.15,-5.35c-1.03333,-2.16667 -2.58333,-3.71667 -4.65,-4.65c-0.26667,0.16667 -0.53333,0.33333 -0.8,0.5c-0.36667,0.2 -0.71667,0.38333 -1.05,0.55z" fill="#000000"/><path d="M648.60661,359.43784c0,0.1 0.01667,0.18333 0.05,0.25c0.03333,0.1 0.06667,0.2 0.1,0.3c0.1,0.23333 0.18333,0.5 0.25,0.8c0,0.16667 0.01667,0.33333 0.05,0.5c0.03333,0.26667 0.1,0.53333 0.2,0.8c0.06667,0.2 0.13333,0.38333 0.2,0.55c0,0.1 0.01667,0.18333 0.05,0.25c0.06667,0.26667 0.15,0.55 0.25,0.85c0,0.06667 0,0.15 0,0.25c0,0.1 0,0.18333 0,0.25c0,0.1 0,0.2 0,0.3c0,0.16667 0,0.33333 0,0.5c0.03333,0.1 0.06667,0.2 0.1,0.3c0,0.06667 0.01667,0.15 0.05,0.25c0.06667,0.16667 0.13333,0.35 0.2,0.55c0,0.23333 0,0.5 0,0.8c0,0.26667 0,0.53333 0,0.8c0,0.26667 0,0.53333 0,0.8c0,0.1 0,0.18333 0,0.25c0,0.26667 0,0.53333 0,0.8c0.03333,0.1 0.06667,0.2 0.1,0.3c0.03333,0.06667 0.05,0.15 0.05,0.25c0.06667,0.16667 0.13333,0.35 0.2,0.55c0,0.06667 0,0.15 0,0.25c0,0.1 0,0.2 0,0.3c0,0.06667 0,0.15 0,0.25c0,0.1 0,0.18333 0,0.25c0.03333,0.1 0.05,0.2 0.05,0.3c0.03333,0.16667 0.05,0.33333 0.05,0.5c-0.03333,0.1 -0.06667,0.2 -0.1,0.3c-0.03333,0.06667 -0.06667,0.15 -0.1,0.25c-0.06667,0.16667 -0.11667,0.35 -0.15,0.55c0,0.16667 0,0.33333 0,0.5c0,0.26667 0,0.55 0,0.85c0,0.16667 0,0.33333 0,0.5c0,0.1 0,0.2 0,0.3c0,0.26667 0,0.53333 0,0.8c-0.03333,0.06667 -0.06667,0.15 -0.1,0.25c-0.03333,0.1 -0.06667,0.18333 -0.1,0.25c-0.06667,0.2 -0.11667,0.38333 -0.15,0.55c0,0.1 0,0.18333 0,0.25c0,0.1 0,0.2 0,0.3c0,0.06667 0,0.15 0,0.25c0,0.1 0,0.2 0,0.3c0,0.16667 0,0.33333 0,0.5c-0.03333,0.1 -0.06667,0.2 -0.1,0.3c-0.03333,0.06667 -0.06667,0.15 -0.1,0.25c-0.03333,0.1 -0.06667,0.18333 -0.1,0.25c0,0.1 0,0.2 0,0.3c0,0.06667 0,0.15 0,0.25c-0.03333,0.1 -0.06667,0.18333 -0.1,0.25c-0.03333,0.2 -0.08333,0.38333 -0.15,0.55c-0.06667,0.16667 -0.13333,0.35 -0.2,0.55c-0.03333,0.06667 -0.06667,0.15 -0.1,0.25c-0.06667,0.26667 -0.15,0.53333 -0.25,0.8c0,0.1 0,0.2 0,0.3c0,0.06667 0,0.15 0,0.25c0,0.1 0,0.18333 0,0.25c-0.23333,0.43333 -0.4,0.88333 -0.5,1.35c-0.1,0.43333 -0.18333,0.88333 -0.25,1.35c-0.06667,0.36667 -0.18333,0.73333 -0.35,1.1c-0.2,0.33333 -0.3,0.68333 -0.3,1.05c-0.06667,0.06667 -0.13333,0.15 -0.2,0.25c-0.06667,0.1 -0.13333,0.18333 -0.2,0.25c-0.03333,0.1 -0.08333,0.2 -0.15,0.3c-0.03333,0.06667 -0.06667,0.15 -0.1,0.25c0,0.1 0,0.18333 0,0.25c-0.06667,0.1 -0.13333,0.2 -0.2,0.3c-0.4,0.63333 -0.81667,1.25 -1.25,1.85c-0.36667,0.5 -0.75,0.96667 -1.15,1.4c-0.33333,0.43333 -0.65,0.86667 -0.95,1.3c-1.03333,1.06667 -2.18333,1.98333 -3.45,2.75c-6.83333,4.16667 -13.48333,3.93333 -19.95,-0.7c-0.1,-0.1 -0.2,-0.18333 -0.3,-0.25c-0.16667,-0.2 -0.33333,-0.38333 -0.5,-0.55c-0.1,-0.1 -0.2,-0.18333 -0.3,-0.25c-0.26667,-0.3 -0.53333,-0.58333 -0.8,-0.85c-0.03333,-0.06667 -0.08333,-0.15 -0.15,-0.25c-0.03333,-0.1 -0.06667,-0.18333 -0.1,-0.25c-0.06667,-0.1 -0.13333,-0.2 -0.2,-0.3c-1,-1.1 -1.75,-2.36667 -2.25,-3.8c-0.43333,-1.23333 -0.88333,-2.46667 -1.35,-3.7c-0.26667,-0.8 -0.51667,-1.6 -0.75,-2.4c0,-0.06667 0,-0.15 0,-0.25c0,-0.1 0,-0.18333 0,-0.25c0,-0.1 0,-0.2 0,-0.3c-0.03333,-0.1 -0.06667,-0.18333 -0.1,-0.25c-0.03333,-0.1 -0.06667,-0.2 -0.1,-0.3c-0.03333,-0.16667 -0.08333,-0.33333 -0.15,-0.5c0,-0.1 0,-0.2 0,-0.3c0,-0.06667 0,-0.15 0,-0.25c0,-0.1 0,-0.18333 0,-0.25c0,-0.2 0,-0.38333 0,-0.55c-0.03333,-0.1 -0.06667,-0.18333 -0.1,-0.25c-0.03333,-0.1 -0.06667,-0.2 -0.1,-0.3c-0.06667,-0.16667 -0.11667,-0.33333 -0.15,-0.5c0,-0.53333 0,-1.08333 0,-1.65c0,-0.8 0,-1.6 0,-2.4c0,-0.53333 0,-1.06667 0,-1.6c0,-0.43333 0,-0.88333 0,-1.35c0.23333,-0.4 0.35,-0.85 0.35,-1.35c0,-0.5 0,-1.03333 0,-1.6c0,-0.43333 0,-0.86667 0,-1.3c0,-0.36667 0,-0.73333 0,-1.1c0.06667,-0.16667 0.13333,-0.35 0.2,-0.55c0.03333,-0.06667 0.06667,-0.15 0.1,-0.25c0,-0.1 0,-0.18333 0,-0.25c0.03333,-0.1 0.05,-0.2 0.05,-0.3c0,-0.26667 0,-0.53333 0,-0.8c0.06667,-0.06667 0.11667,-0.15 0.15,-0.25c0.03333,-0.1 0.06667,-0.2 0.1,-0.3c0,-0.06667 0.01667,-0.15 0.05,-0.25c0,-0.06667 0,-0.15 0,-0.25c0.03333,-0.2 0.05,-0.38333 0.05,-0.55c0.06667,-0.16667 0.13333,-0.35 0.2,-0.55c0.03333,-0.06667 0.05,-0.15 0.05,-0.25c0.03333,-0.1 0.06667,-0.18333 0.1,-0.25c0.03333,-0.1 0.06667,-0.2 0.1,-0.3c0.1,-0.26667 0.18333,-0.53333 0.25,-0.8c0,-0.06667 0,-0.15 0,-0.25c0,-0.1 0,-0.18333 0,-0.25c0.13333,-0.36667 0.28333,-0.71667 0.45,-1.05c0.36667,-0.8 0.63333,-1.61667 0.8,-2.45c0.13333,-0.6 0.38333,-1.15 0.75,-1.65c0.26667,-0.4 0.43333,-0.83333 0.5,-1.3c0.13333,-0.16667 0.25,-0.35 0.35,-0.55c0.36667,-0.73333 0.76667,-1.43333 1.2,-2.1c0.36667,-0.53333 0.7,-1.06667 1,-1.6c0.26667,-0.43333 0.51667,-0.88333 0.75,-1.35c1.33333,-1.5 2.85,-2.71667 4.55,-3.65c2.16667,-1.16667 4.46667,-1.86667 6.9,-2.1c1.83333,0.23333 3.66667,0.5 5.5,0.8c1.23333,0.23333 2.43333,0.56667 3.6,1c0.36667,0.23333 0.7,0.48333 1,0.75c0.4,0.36667 0.78333,0.75 1.15,1.15c0.13333,0.16667 0.28333,0.33333 0.45,0.5c0.26667,0.26667 0.53333,0.53333 0.8,0.8c0.03333,0.1 0.06667,0.18333 0.1,0.25c0.03333,0.1 0.08333,0.2 0.15,0.3c0.06667,0.1 0.13333,0.18333 0.2,0.25c0.16667,0.2 0.35,0.38333 0.55,0.55c0.56667,1.16667 1.15,2.33333 1.75,3.5c0.46667,0.83333 0.8,1.71667 1,2.65c0.16667,0.73333 0.4,1.45 0.7,2.15c0,0.1 0,0.18333 0,0.25c0,0.1 0,0.2 0,0.3c0.06667,0.16667 0.13333,0.33333 0.2,0.5c0.03333,0.1 0.06667,0.2 0.1,0.3M631.10661,353.78784c-4.06667,1.4 -7.05,4.01667 -8.95,7.85c-1.06667,2.1 -1.75,4.28333 -2.05,6.55c-0.06667,0.1 -0.11667,0.18333 -0.15,0.25c-0.06667,0.1 -0.1,0.2 -0.1,0.3c-0.03333,0.06667 -0.06667,0.15 -0.1,0.25c0,0.1 0,0.18333 0,0.25c0,0.1 0,0.2 0,0.3c0,0.06667 0,0.15 0,0.25c-0.03333,0.1 -0.06667,0.18333 -0.1,0.25c-0.03333,0.1 -0.06667,0.2 -0.1,0.3c-0.03333,0.06667 -0.06667,0.15 -0.1,0.25c0,0.1 -0.01667,0.18333 -0.05,0.25c-0.03333,0.1 -0.06667,0.2 -0.1,0.3c0,0.53333 0,1.06667 0,1.6c0,0.43333 0,0.88333 0,1.35c0,0.23333 0,0.5 0,0.8c0,0.16667 0,0.33333 0,0.5c0.03333,0.1 0.06667,0.2 0.1,0.3c0.03333,0.06667 0.05,0.15 0.05,0.25c0.03333,0.1 0.06667,0.2 0.1,0.3c0.03333,0.06667 0.06667,0.15 0.1,0.25c0,0.16667 0,0.35 0,0.55c0,0.16667 0,0.33333 0,0.5c0,0.1 0,0.2 0,0.3c0,0.06667 0,0.15 0,0.25c0,0.1 0,0.18333 0,0.25c0,0.1 0,0.2 0,0.3c0.03333,0.06667 0.06667,0.15 0.1,0.25c0.03333,0.1 0.06667,0.18333 0.1,0.25c0,0.1 0.01667,0.2 0.05,0.3c0.03333,0.06667 0.06667,0.15 0.1,0.25c0,0.2 0.01667,0.38333 0.05,0.55c0.2,0.7 0.43333,1.41667 0.7,2.15c0.2,0.46667 0.41667,0.93333 0.65,1.4c0.1,0.23333 0.23333,0.48333 0.4,0.75c0.1,0.06667 0.18333,0.15 0.25,0.25c0.1,0.1 0.2,0.18333 0.3,0.25c0.06667,0.1 0.15,0.2 0.25,0.3c0.1,0.16667 0.18333,0.33333 0.25,0.5c0.3,0.53333 0.66667,1.01667 1.1,1.45c0.23333,0.23333 0.5,0.46667 0.8,0.7c0.16667,0.2 0.35,0.38333 0.55,0.55c1.06667,0.73333 2.23333,1.2 3.5,1.4c2.06667,0.3 4.05,0.01667 5.95,-0.85c0.1,-0.1 0.21667,-0.2 0.35,-0.3c0.1,-0.06667 0.21667,-0.15 0.35,-0.25c0.1,-0.1 0.18333,-0.18333 0.25,-0.25c0.1,-0.1 0.2,-0.2 0.3,-0.3c0.23333,-0.06667 0.45,-0.18333 0.65,-0.35c2.7,-1.73333 4.6,-4.08333 5.7,-7.05c0.53333,-1.36667 0.96667,-2.8 1.3,-4.3c0,-0.06667 0,-0.15 0,-0.25c0,-0.1 0,-0.18333 0,-0.25c0,-0.1 0,-0.2 0,-0.3c0.33333,-0.66667 0.53333,-1.36667 0.6,-2.1c0.16667,-3 -0.18333,-5.86667 -1.05,-8.6c-0.6,-1.76667 -1.36667,-3.46667 -2.3,-5.1c-0.1,-0.06667 -0.18333,-0.15 -0.25,-0.25c-0.1,-0.1 -0.2,-0.2 -0.3,-0.3c-0.06667,-0.06667 -0.15,-0.15 -0.25,-0.25c-0.03333,-0.1 -0.06667,-0.18333 -0.1,-0.25c-0.06667,-0.1 -0.11667,-0.2 -0.15,-0.3c-0.06667,-0.06667 -0.13333,-0.15 -0.2,-0.25c-0.1,-0.1 -0.18333,-0.18333 -0.25,-0.25c-0.1,-0.1 -0.2,-0.2 -0.3,-0.3c-0.63333,-1.06667 -1.48333,-1.96667 -2.55,-2.7c-1.46667,-0.96667 -3.11667,-1.33333 -4.95,-1.1c-0.16667,0.03333 -0.33333,0.05 -0.5,0.05z" fill="#ffffff"/></g></g></svg>