<svg version="1.1" xmlns="http://www.w3.org/2000/svg" xmlns:xlink="http://www.w3.org/1999/xlink" width="30.79412" height="64.2803" viewBox="0,0,30.79412,64.2803"><g transform="translate(-620.15138,-338.40194)"><g data-paper-data="{&quot;isPaintingLayer&quot;:true}" fill-rule="nonzero" stroke="none" stroke-width="1" stroke-linecap="round" stroke-linejoin="miter" stroke-miterlimit="4" stroke-dasharray="" stroke-dashoffset="0" style="mix-blend-mode: normal"><path d="M641.1955,338.53051c1.1,-0.2 2.18333,-0.16667 3.25,0.1c1.13333,0.3 2.1,0.8 2.9,1.5c1.16667,1.06667 2,2.6 2.5,4.6c0.56667,2 0.88333,4.9 0.95,8.7c0.1,2.66667 0.15,5.31667 0.15,7.95c0,2.53333 -0.13333,6.36667 -0.4,11.5l-0.35,6.95c-0.1,2.6 -0.25,5.2 -0.45,7.8c-0.2,2.26667 -0.43333,4.08333 -0.7,5.45c-0.43333,1.93333 -1.06667,3.6 -1.9,5c-0.8,1.33333 -1.78333,2.4 -2.95,3.2c-1.26667,0.9 -2.6,1.36667 -4,1.4c-1.46667,0.03333 -2.86667,-0.41667 -4.2,-1.35c-1.23333,-0.83333 -2.25,-1.95 -3.05,-3.35c-1.03333,-1.9 -1.75,-4.81667 -2.15,-8.75c-0.4,-4.16667 -0.66667,-10.43333 -0.8,-18.8c-1.23333,0.56667 -2.58333,0.66667 -4.05,0.3c-1.43333,-0.36667 -2.61667,-1.08333 -3.55,-2.15c-0.93333,-1.03333 -1.58333,-2.26667 -1.95,-3.7c-0.33333,-1.33333 -0.38333,-2.71667 -0.15,-4.15c0.43333,-2.56667 1.65,-5.05 3.65,-7.45c0.56667,-0.66667 1.8,-1.95 3.7,-3.85c0.9,-0.93333 2.23333,-2.33333 4,-4.2c1.54089,-1.5737 2.97422,-2.8237 4.3,-3.75c1.54388,-1.56302 3.29388,-2.54635 5.25,-2.95M631.7955,353.98051c-0.8,1.13333 -1.51667,1.83333 -2.15,2.1c-0.53333,0.16667 -0.91667,0.31667 -1.15,0.45c-0.33333,0.13333 -0.68333,0.48333 -1.05,1.05c-0.56667,0.76667 -1.05,1.7 -1.45,2.8c-0.36667,1.16667 -0.43333,2.13333 -0.2,2.9c0.16667,0.5 0.45,0.9 0.85,1.2c0.4,0.3 0.83333,0.43333 1.3,0.4c0.53333,-0.06667 1.08333,-0.41667 1.65,-1.05c0.8,-0.9 1.28333,-1.4 1.45,-1.5c0.56667,-0.43333 1.23333,-0.6 2,-0.5c0.76667,0.1 1.38333,0.41667 1.85,0.95c0.6,0.7 0.9,2.01667 0.9,3.95c-0.07279,5.74596 0.07721,11.5793 0.45,17.5c0.15768,2.24596 0.34102,4.49596 0.55,6.75l-0.1,-0.6c0.06667,1.8 0.58333,3.45 1.55,4.95c0.4,0.63333 0.83333,1 1.3,1.1c0.56667,0.13333 1.15,-0.03333 1.75,-0.5c0.86667,-0.7 1.5,-1.71667 1.9,-3.05c0.23333,-0.9 0.4,-2.15 0.5,-3.75l0.4,-5.5c0.43333,-6.53333 0.71667,-11.43333 0.85,-14.7c0.23333,-5.46667 0.26667,-10.38333 0.1,-14.75c-0.13333,-3.13333 -0.38333,-5.63333 -0.75,-7.5c-0.26667,-1.43333 -0.81667,-2.18333 -1.65,-2.25c-0.36667,-0.03333 -0.85,0.15 -1.45,0.55c-3.7,2.5 -6.83333,5.5 -9.4,9z" fill="#000000"/><path d="M644.2955,346.68051c0.36667,1.86667 0.61667,4.36667 0.75,7.5c0.16667,4.36667 0.13333,9.28333 -0.1,14.75c-0.13333,3.26667 -0.41667,8.16667 -0.85,14.7l-0.4,5.5c-0.1,1.6 -0.26667,2.85 -0.5,3.75c-0.4,1.33333 -1.03333,2.35 -1.9,3.05c-0.6,0.46667 -1.18333,0.63333 -1.75,0.5c-0.46667,-0.1 -0.9,-0.46667 -1.3,-1.1c-0.96667,-1.5 -1.48333,-3.15 -1.55,-4.95l0.1,0.6c-0.20898,-2.25404 -0.39232,-4.50404 -0.55,-6.75c-0.37279,-5.9207 -0.52279,-11.75404 -0.45,-17.5c0,-1.93333 -0.3,-3.25 -0.9,-3.95c-0.46667,-0.53333 -1.08333,-0.85 -1.85,-0.95c-0.76667,-0.1 -1.43333,0.06667 -2,0.5c-0.16667,0.1 -0.65,0.6 -1.45,1.5c-0.56667,0.63333 -1.11667,0.98333 -1.65,1.05c-0.46667,0.03333 -0.9,-0.1 -1.3,-0.4c-0.4,-0.3 -0.68333,-0.7 -0.85,-1.2c-0.23333,-0.76667 -0.16667,-1.73333 0.2,-2.9c0.4,-1.1 0.88333,-2.03333 1.45,-2.8c0.36667,-0.56667 0.71667,-0.91667 1.05,-1.05c0.23333,-0.13333 0.61667,-0.28333 1.15,-0.45c0.63333,-0.26667 1.35,-0.96667 2.15,-2.1c2.56667,-3.5 5.7,-6.5 9.4,-9c0.6,-0.4 1.08333,-0.58333 1.45,-0.55c0.83333,0.06667 1.38333,0.81667 1.65,2.25z" fill="#ffffff"/></g></g></svg>