<svg version="1.1" xmlns="http://www.w3.org/2000/svg" xmlns:xlink="http://www.w3.org/1999/xlink" width="17.25" height="16.97553" viewBox="0,0,17.25,16.97553"><g transform="translate(-631.37,-380.74252)"><g data-paper-data="{&quot;isPaintingLayer&quot;:true}" fill-rule="nonzero" stroke="none" stroke-width="1" stroke-linecap="round" stroke-linejoin="miter" stroke-miterlimit="4" stroke-dasharray="" stroke-dashoffset="0" style="mix-blend-mode: normal"><path d="M646.12,383.69252c1.33333,1.26667 2.16667,2.78333 2.5,4.55c0,0.23333 0,0.46667 0,0.7c0,0.2 0,0.41667 0,0.65c0,0.2 0,0.43333 0,0.7c0,0.2 0,0.4 0,0.6c-0.53333,2.63333 -1.98333,4.53333 -4.35,5.7c-3.16667,1.53333 -6.35,1.5 -9.55,-0.1c-0.26667,-0.3 -0.5,-0.55 -0.7,-0.75c-0.2,-0.23333 -0.41667,-0.45 -0.65,-0.65c-0.23333,-0.23333 -0.45,-0.46667 -0.65,-0.7c-0.36667,-0.66667 -0.68333,-1.35 -0.95,-2.05c-0.2,-0.6 -0.31667,-1.23333 -0.35,-1.9c-0.03333,-0.86667 -0.05,-1.75 -0.05,-2.65c0.06667,-0.23333 0.15,-0.45 0.25,-0.65c0.06667,-0.23333 0.11667,-0.45 0.15,-0.65c0.1,-0.26667 0.18333,-0.5 0.25,-0.7c0.1,-0.2 0.2,-0.41667 0.3,-0.65c0.03333,-0.23333 0.08333,-0.45 0.15,-0.65c0.5,-0.73333 1.08333,-1.41667 1.75,-2.05c1,-0.86667 2.18333,-1.36667 3.55,-1.5c0.5,-0.06667 0.93333,-0.13333 1.3,-0.2c2.76667,0.2 5.11667,1.18333 7.05,2.95z" fill="#000000"/><path d="M643.93,387.73252c0.1,0.3 0.16667,0.6 0.2,0.9c0,0.43333 0,0.86667 0,1.3c-0.03333,0.1 -0.06667,0.2 -0.1,0.3c-0.03333,0.1 -0.06667,0.2 -0.1,0.3c-0.03333,0.13333 -0.06667,0.25 -0.1,0.35c-0.03333,0.06667 -0.08333,0.16667 -0.15,0.3c0,0.1 -0.01667,0.2 -0.05,0.3c-0.23333,0.36667 -0.51667,0.7 -0.85,1c-0.46667,0.4 -1.03333,0.63333 -1.7,0.7c-0.23333,0.03333 -0.43333,0.06667 -0.6,0.1c-1.33333,-0.1 -2.45,-0.56667 -3.35,-1.4c-0.63333,-0.6 -1.03333,-1.33333 -1.2,-2.2c0,-0.1 0,-0.2 0,-0.3c0,-0.1 0,-0.21667 0,-0.35c0,-0.06667 0,-0.16667 0,-0.3c0,-0.1 0,-0.2 0,-0.3c0.23333,-1.26667 0.91667,-2.16667 2.05,-2.7c1.53333,-0.73333 3.05,-0.71667 4.55,0.05c0.13333,0.13333 0.25,0.25 0.35,0.35c0.1,0.1 0.2,0.2 0.3,0.3c0.13333,0.1 0.23333,0.21667 0.3,0.35c0.2,0.3 0.35,0.61667 0.45,0.95z" fill="#ffffff"/></g></g></svg>