<svg version="1.1" xmlns="http://www.w3.org/2000/svg" xmlns:xlink="http://www.w3.org/1999/xlink" width="45.72381" height="19.22728" viewBox="0,0,45.72381,19.22728"><g transform="translate(-617.11286,-363.63351)"><g data-paper-data="{&quot;isPaintingLayer&quot;:true}" fill-rule="nonzero" stroke="none" stroke-width="1" stroke-linecap="round" stroke-linejoin="miter" stroke-miterlimit="4" stroke-dasharray="" stroke-dashoffset="0" style="mix-blend-mode: normal"><path d="M641.62,363.72351c3.63333,-0.2 8.05,-0.06667 13.25,0.4c1.43333,0.13333 2.53333,0.31667 3.3,0.55c1.2,0.33333 2.15,0.85 2.85,1.55c1,1 1.58333,2.33333 1.75,4c0.13333,1.13333 0.06667,2.6 -0.2,4.4c-0.13333,1.5 -0.46667,2.55 -1,3.15c-0.53333,0.63333 -1.68333,1.16667 -3.45,1.6c-1,0.23333 -2.61667,0.7 -4.85,1.4c-2.1,0.63333 -3.73333,1.08333 -4.9,1.35c-6.43333,1.36667 -14.36667,0.83333 -23.8,-1.6c-2,-0.53333 -3.41667,-1.06667 -4.25,-1.6c-1.53333,-0.86667 -2.51667,-1.98333 -2.95,-3.35c-0.2,-0.63333 -0.28333,-1.46667 -0.25,-2.5l0.1,-2.55c-0.03333,-0.6 -0.03333,-1.05 0,-1.35c0,-0.5 0.08333,-0.91667 0.25,-1.25c0.43333,-0.9 1.46667,-1.51667 3.1,-1.85c1.43333,-0.3 3.95,-0.63333 7.55,-1l6.75,-0.75c2.66667,-0.33333 4.91667,-0.53333 6.75,-0.6M638.27,369.32351c-4.66667,0.53333 -8.18333,0.91667 -10.55,1.15c-3.23333,0.26667 -5.51667,0.6 -6.85,1c-0.2,1.13333 0.15,2.13333 1.05,3c0.5,0.43333 1.25,0.8 2.25,1.1c1.2,0.36667 3.15,0.78333 5.85,1.25c3.03333,0.53333 5.31667,0.88333 6.85,1.05c2.56667,0.26667 4.86667,0.3 6.9,0.1c1.93333,-0.16667 4.26667,-0.65 7,-1.45c1.53333,-0.46667 3.83333,-1.16667 6.9,-2.1c0.1,-0.96667 0.11667,-2.03333 0.05,-3.2c-0.06667,-0.56667 -0.16667,-0.91667 -0.3,-1.05c-0.16667,-0.2 -0.53333,-0.33333 -1.1,-0.4c-5.96667,-0.8 -11.98333,-0.95 -18.05,-0.45z" fill="#000000"/><path d="M657.72,371.22351c0.06667,1.16667 0.05,2.23333 -0.05,3.2c-3.06667,0.93333 -5.36667,1.63333 -6.9,2.1c-2.73333,0.8 -5.06667,1.28333 -7,1.45c-2.03333,0.2 -4.33333,0.16667 -6.9,-0.1c-1.53333,-0.16667 -3.81667,-0.51667 -6.85,-1.05c-2.7,-0.46667 -4.65,-0.88333 -5.85,-1.25c-1,-0.3 -1.75,-0.66667 -2.25,-1.1c-0.9,-0.86667 -1.25,-1.86667 -1.05,-3c1.33333,-0.4 3.61667,-0.73333 6.85,-1c2.36667,-0.23333 5.88333,-0.61667 10.55,-1.15c6.06667,-0.5 12.08333,-0.35 18.05,0.45c0.56667,0.06667 0.93333,0.2 1.1,0.4c0.13333,0.13333 0.23333,0.48333 0.3,1.05z" fill="#ffffff"/></g></g></svg>