<svg version="1.1" xmlns="http://www.w3.org/2000/svg" xmlns:xlink="http://www.w3.org/1999/xlink" width="48.95716" height="76.12948" viewBox="0,0,48.95716,76.12948"><g transform="translate(-603.52141,-333.93526)"><g data-paper-data="{&quot;isPaintingLayer&quot;:true}" fill-rule="nonzero" stroke="none" stroke-width="1" stroke-linecap="round" stroke-linejoin="miter" stroke-miterlimit="4" stroke-dasharray="" stroke-dashoffset="0" style="mix-blend-mode: normal"><path d="M642.46658,333.93669c0.96667,0.03333 2.33333,0.65 4.1,1.85c1.53333,1.13333 2.66667,2.06667 3.4,2.8c1.16667,1.2 1.9,2.43333 2.2,3.7c0.5,2.06667 0.01667,4.25 -1.45,6.55c-0.86667,1.33333 -2.46667,2.96667 -4.8,4.9c-4.33333,3.63333 -10.75,8.76667 -19.25,15.4l17.15,17.1c3.36667,3.36667 5.61667,6.08333 6.75,8.15c0.9,1.63333 1.48333,3.3 1.75,5c0.3,1.86667 0.18333,3.58333 -0.35,5.15c-0.6,1.73333 -1.65,3.13333 -3.15,4.2c-1.6,1.1 -3.25,1.51667 -4.95,1.25c-1.7,-0.26667 -3.65,-1.4 -5.85,-3.4c-2.9,-2.53333 -7.05,-6.56667 -12.45,-12.1l-16.75,-17.1c-1.46667,-1.46667 -2.51667,-2.63333 -3.15,-3.5c-1,-1.4 -1.65,-2.78333 -1.95,-4.15c-0.36667,-1.7 -0.21667,-3.46667 0.45,-5.3c0.6,-1.66667 1.55,-3.21667 2.85,-4.65c1.03333,-1.13333 2.38333,-2.33333 4.05,-3.6c1.96667,-1.43333 3.43333,-2.51667 4.4,-3.25c1.56667,-1.16667 3.73333,-2.95 6.5,-5.35c2.9,-2.53333 5.05,-4.33333 6.45,-5.4c2.26667,-1.73333 5.53333,-3.93333 9.8,-6.6c1.73333,-1.13333 3.15,-1.68333 4.25,-1.65M646.76658,343.33669c-0.1,-0.63333 -0.53333,-1.3 -1.3,-2c-0.93333,-0.93333 -1.5,-1.56667 -1.7,-1.9c-6.36667,3.46667 -11,6.46667 -13.9,9l-10.95,9.55c-0.66667,0.6 -1.66667,1.31667 -3,2.15c-1.5,0.96667 -2.53333,1.66667 -3.1,2.1c-1.06667,0.83333 -1.88333,1.76667 -2.45,2.8c-0.66667,1.2 -0.91667,2.36667 -0.75,3.5c0.13333,0.9 0.55,1.81667 1.25,2.75c0.43333,0.56667 1.15,1.31667 2.15,2.25l13.7,13.15c0.8,0.76667 3.5,3.7 8.1,8.8c3.23333,3.6 6.15,6.26667 8.75,8c0.63333,0.4 1.33333,0.36667 2.1,-0.1c0.73333,-0.5 1.15,-1.15 1.25,-1.95c0.13333,-1.13333 -0.4,-2.55 -1.6,-4.25c-1.7,-2.4 -3.8,-4.93333 -6.3,-7.6c-1.5,-1.6 -3.83333,-3.93333 -7,-7l-9.7,-9.35c-2.1,-1.93333 -2.95,-3.68333 -2.55,-5.25c0.2,-0.76667 0.91667,-1.66667 2.15,-2.7c1.36667,-1.1 5.2,-4.1 11.5,-9c4.73333,-3.66667 8.5,-6.75 11.3,-9.25c1.5,-1.36667 2.18333,-2.6 2.05,-3.7z" fill="#000000"/><path d="M621.92658,365.29669c-1.23333,1.03333 -1.95,1.93333 -2.15,2.7c-0.4,1.56667 0.45,3.31667 2.55,5.25l9.7,9.35c3.16667,3.06667 5.5,5.4 7,7c2.5,2.66667 4.6,5.2 6.3,7.6c1.2,1.7 1.73333,3.11667 1.6,4.25c-0.1,0.8 -0.51667,1.45 -1.25,1.95c-0.76667,0.46667 -1.46667,0.5 -2.1,0.1c-2.6,-1.73333 -5.51667,-4.4 -8.75,-8c-4.6,-5.1 -7.3,-8.03333 -8.1,-8.8l-13.7,-13.15c-1,-0.93333 -1.71667,-1.68333 -2.15,-2.25c-0.7,-0.93333 -1.11667,-1.85 -1.25,-2.75c-0.16667,-1.13333 0.08333,-2.3 0.75,-3.5c0.56667,-1.03333 1.38333,-1.96667 2.45,-2.8c0.56667,-0.43333 1.6,-1.13333 3.1,-2.1c1.33333,-0.83333 2.33333,-1.55 3,-2.15l10.95,-9.55c2.9,-2.53333 7.53333,-5.53333 13.9,-9c0.2,0.33333 0.76667,0.96667 1.7,1.9c0.76667,0.7 1.2,1.36667 1.3,2c0.13333,1.1 -0.55,2.33333 -2.05,3.7c-2.8,2.5 -6.56667,5.58333 -11.3,9.25c-6.3,4.9 -10.13333,7.9 -11.5,9z" fill="#ffffff"/></g></g></svg>