<svg version="1.1" xmlns="http://www.w3.org/2000/svg" xmlns:xlink="http://www.w3.org/1999/xlink" width="94.47619" height="79.45704" viewBox="0,0,94.47619,79.45704"><g transform="translate(-598.82797,-320.27148)"><g data-paper-data="{&quot;isPaintingLayer&quot;:true}" fill-rule="nonzero" stroke="none" stroke-width="1" stroke-linecap="butt" stroke-linejoin="miter" stroke-miterlimit="10" stroke-dasharray="" stroke-dashoffset="0" style="mix-blend-mode: normal"><path d="M680.62797,331.30352c0.43333,2.16667 0.61667,4.8 0.55,7.9c0.63333,0.13333 1.6,0.3 2.9,0.5c1.13333,0.23333 2.06667,0.55 2.8,0.95c2.7,2.6 4.38333,6.56667 5.05,11.9c1.13333,8.6 1.56667,16.56667 1.3,23.9c-0.63333,0.7 -1.53333,1.58333 -2.7,2.65c-1.4,1.26667 -2.31667,2.11667 -2.75,2.55c-0.26667,0.6 -0.58333,1.48333 -0.95,2.65c-0.4,1.23333 -0.7,2.11667 -0.9,2.65c-4.43333,3.46667 -10.35,5.98333 -17.75,7.55c-5.5,1.2 -11.63333,2.23333 -18.4,3.1c-2.46667,0.33333 -5.28333,0.66667 -8.45,1c-3.06667,0.33333 -6.45,0.66667 -10.15,1c-3.3,0.16667 -5.68333,0.16667 -7.15,0c-1.46667,-0.16667 -2.78333,-0.5 -3.95,-1c-0.96667,-0.4 -1.81667,-0.91667 -2.55,-1.55c-1.06667,-0.76667 -1.91667,-1.85 -2.55,-3.25c-0.4,-0.86667 -0.83333,-2.21667 -1.3,-4.05c-1.56667,0.16667 -2.75,0.23333 -3.55,0.2c-1.4,-0.06667 -2.38333,-0.6 -2.95,-1.6c-1.6,-2.43333 -3.01667,-5.3 -4.25,-8.6c-0.83333,-2.33333 -1.76667,-5.41667 -2.8,-9.25c-0.56667,-2.36667 -0.93333,-4.2 -1.1,-5.5c-0.26667,-2.06667 -0.26667,-3.93333 0,-5.6c0.2,-1.06667 1.05,-1.95 2.55,-2.65c1.76667,-0.83333 2.83333,-1.51667 3.2,-2.05c-0.56667,-3.23333 -0.95,-5.66667 -1.15,-7.3c-0.36667,-2.86667 -0.25,-5.3 0.35,-7.3c0.6,-1.43333 1.71667,-2.8 3.35,-4.1c0.96667,-0.73333 2.45,-1.76667 4.45,-3.1c10.46667,-6.76667 22.58333,-10.81667 36.35,-12.15c12,-1.23333 21.8,-0.1 29.4,3.4c1.5,1.9 2.53333,4.28333 3.1,7.15M647.62797,343.65352c-2.16667,2.26667 -5.38333,4.75 -9.65,7.45c-0.33333,2.16667 -0.56667,3.53333 -0.7,4.1c-0.53333,0.6 -1.33333,1.16667 -2.4,1.7c-1.23333,0.56667 -2.13333,1.01667 -2.7,1.35l1.6,5.95c0.5,-0.16667 1.23333,-0.48333 2.2,-0.95c0.86667,-0.4 1.63333,-0.61667 2.3,-0.65c1.56667,1.5 3.38333,4.03333 5.45,7.6c2.16667,3.66667 3.93333,6.2 5.3,7.6c0.66667,-0.5 1.05,-1.43333 1.15,-2.8c0.1,-1.56667 0.31667,-2.6 0.65,-3.1c1.7,-1.1 4.51667,-2.01667 8.45,-2.75c0.5,0.4 0.88333,1.03333 1.15,1.9c0.13333,0.46667 0.33333,1.18333 0.6,2.15c4.66667,-0.6 9.6,-1.76667 14.8,-3.5c1.33333,-6.76667 1.35,-13.16667 0.05,-19.2c-1.4,-0.73333 -3.3,-1.33333 -5.7,-1.8c-3.16667,-0.6 -5.13333,-1.01667 -5.9,-1.25c-3.63333,-0.96667 -6.85,-3.5 -9.65,-7.6c-1.46667,2.66667 -2.46667,4.31667 -3,4.95c-0.6,0.33333 -1.3,0.3 -2.1,-0.1c-0.83333,-0.53333 -1.46667,-0.88333 -1.9,-1.05M667.42797,376.15352c-2.3,0.43333 -4.36667,0.7 -6.2,0.8c-0.73333,0.1 -1.46667,-0.05 -2.2,-0.45c-0.33333,-0.23333 -0.91667,-0.7 -1.75,-1.4l-3.5,-0.3c-0.16667,0.56667 -0.31667,1.5 -0.45,2.8c-0.2,1.13333 -0.68333,1.88333 -1.45,2.25c-5.23333,3.16667 -11.03333,4.8 -17.4,4.9c0.1,2.06667 0.18333,5.18333 0.25,9.35c1.03333,-0.3 2.05,-0.96667 3.05,-2c0.6,-0.6 1.45,-1.5 2.55,-2.7c2.3,-2.36667 5.03333,-4.25 8.2,-5.65c3.06667,-1.4 6.3,-2.25 9.7,-2.55c2.93333,-0.26667 5.7,0.23333 8.3,1.5c2.76667,1.33333 4.75,3.26667 5.95,5.8c0.3,-3.03333 0.53333,-5.31667 0.7,-6.85c0.26667,-2.7 0.41667,-4.98333 0.45,-6.85c-2.9,0.66667 -4.96667,1.11667 -6.2,1.35M649.32797,387.35352c-3.26667,1.36667 -6.06667,3.31667 -8.4,5.85c9.83333,-0.83333 18.61667,-2.05 26.35,-3.65c-2.4,-2.63333 -5.05,-4 -7.95,-4.1c-3.43333,-0.1 -6.76667,0.53333 -10,1.9M623.12797,358.45352l-0.5,3.65c2.2,-0.33333 3.51667,-0.51667 3.95,-0.55c1.5,-0.16667 2.83333,-0.16667 4,0c-0.26667,-1.13333 -0.46667,-1.98333 -0.6,-2.55c-0.16667,-1.03333 0.08333,-1.8 0.75,-2.3c2.16667,-1.9 3.45,-3.06667 3.85,-3.5c-4.43333,1.7 -8.25,3.45 -11.45,5.25M630.72797,364.40352l-1.45,-1.55l-5.9,0.95c1.33333,3.76667 2.33333,7.15 3,10.15l4.2,-3.95c-0.4,-1.66667 -0.35,-3.53333 0.15,-5.6M631.47797,371.20352c-1.96667,1.5 -3.75,3.18333 -5.35,5.05c0.76667,1.1 2,2.68333 3.7,4.75c5.16667,1.03333 10.31667,0.48333 15.45,-1.65c-2.96667,-5.46667 -5.23333,-9.55 -6.8,-12.25c-0.4,-0.93333 -1.21667,-1.63333 -2.45,-2.1c0.06667,1.46667 0.01667,2.95 -0.15,4.45c-0.33333,0.66667 -0.98333,1.11667 -1.95,1.35c-1.13333,0.13333 -1.95,0.26667 -2.45,0.4z" fill="#000000"/><path d="M635.87797,369.45352c0.16667,-1.5 0.21667,-2.98333 0.15,-4.45c1.23333,0.46667 2.05,1.16667 2.45,2.1c1.56667,2.7 3.83333,6.78333 6.8,12.25c-5.13333,2.13333 -10.28333,2.68333 -15.45,1.65c-1.7,-2.06667 -2.93333,-3.65 -3.7,-4.75c1.6,-1.86667 3.38333,-3.55 5.35,-5.05c0.5,-0.13333 1.31667,-0.26667 2.45,-0.4c0.96667,-0.23333 1.61667,-0.68333 1.95,-1.35M630.57797,370.00352l-4.2,3.95c-0.66667,-3 -1.66667,-6.38333 -3,-10.15l5.9,-0.95l1.45,1.55c-0.5,2.06667 -0.55,3.93333 -0.15,5.6M634.57797,353.20352c-0.4,0.43333 -1.68333,1.6 -3.85,3.5c-0.66667,0.5 -0.91667,1.26667 -0.75,2.3c0.13333,0.56667 0.33333,1.41667 0.6,2.55c-1.16667,-0.16667 -2.5,-0.16667 -4,0c-0.43333,0.03333 -1.75,0.21667 -3.95,0.55l0.5,-3.65c3.2,-1.8 7.01667,-3.55 11.45,-5.25M659.32797,385.45352c2.9,0.1 5.55,1.46667 7.95,4.1c-7.73333,1.6 -16.51667,2.81667 -26.35,3.65c2.33333,-2.53333 5.13333,-4.48333 8.4,-5.85c3.23333,-1.36667 6.56667,-2 10,-1.9M673.62797,374.80352c-0.03333,1.86667 -0.18333,4.15 -0.45,6.85c-0.16667,1.53333 -0.4,3.81667 -0.7,6.85c-1.2,-2.53333 -3.18333,-4.46667 -5.95,-5.8c-2.6,-1.26667 -5.36667,-1.76667 -8.3,-1.5c-3.4,0.3 -6.63333,1.15 -9.7,2.55c-3.16667,1.4 -5.9,3.28333 -8.2,5.65c-1.1,1.2 -1.95,2.1 -2.55,2.7c-1,1.03333 -2.01667,1.7 -3.05,2c-0.06667,-4.16667 -0.15,-7.28333 -0.25,-9.35c6.36667,-0.1 12.16667,-1.73333 17.4,-4.9c0.76667,-0.36667 1.25,-1.11667 1.45,-2.25c0.13333,-1.3 0.28333,-2.23333 0.45,-2.8l3.5,0.3c0.83333,0.7 1.41667,1.16667 1.75,1.4c0.73333,0.4 1.46667,0.55 2.2,0.45c1.83333,-0.1 3.9,-0.36667 6.2,-0.8c1.23333,-0.23333 3.3,-0.68333 6.2,-1.35M651.62797,344.80352c0.53333,-0.63333 1.53333,-2.28333 3,-4.95c2.8,4.1 6.01667,6.63333 9.65,7.6c0.76667,0.23333 2.73333,0.65 5.9,1.25c2.4,0.46667 4.3,1.06667 5.7,1.8c1.3,6.03333 1.28333,12.43333 -0.05,19.2c-5.2,1.73333 -10.13333,2.9 -14.8,3.5c-0.26667,-0.96667 -0.46667,-1.68333 -0.6,-2.15c-0.26667,-0.86667 -0.65,-1.5 -1.15,-1.9c-3.93333,0.73333 -6.75,1.65 -8.45,2.75c-0.33333,0.5 -0.55,1.53333 -0.65,3.1c-0.1,1.36667 -0.48333,2.3 -1.15,2.8c-1.36667,-1.4 -3.13333,-3.93333 -5.3,-7.6c-2.06667,-3.56667 -3.88333,-6.1 -5.45,-7.6c-0.66667,0.03333 -1.43333,0.25 -2.3,0.65c-0.96667,0.46667 -1.7,0.78333 -2.2,0.95l-1.6,-5.95c0.56667,-0.33333 1.46667,-0.78333 2.7,-1.35c1.06667,-0.53333 1.86667,-1.1 2.4,-1.7c0.13333,-0.56667 0.36667,-1.93333 0.7,-4.1c4.26667,-2.7 7.48333,-5.18333 9.65,-7.45c0.43333,0.16667 1.06667,0.51667 1.9,1.05c0.8,0.4 1.5,0.43333 2.1,0.1z" fill="#e1e1e1"/></g></g></svg>