<svg version="1.1" xmlns="http://www.w3.org/2000/svg" xmlns:xlink="http://www.w3.org/1999/xlink" width="75.12299" height="76.54623" viewBox="0,0,75.12299,76.54623"><g transform="translate(-592.93625,-331.06566)"><g data-paper-data="{&quot;isPaintingLayer&quot;:true}" fill-rule="nonzero" stroke="none" stroke-linecap="butt" stroke-linejoin="miter" stroke-miterlimit="10" stroke-dasharray="" stroke-dashoffset="0" style="mix-blend-mode: normal"><path d="M657.78301,388.05535c-0.96105,1.91618 -5.68197,5.64189 -14.16277,11.17715c-8.18754,5.52764 -13.09571,8.32077 -14.72455,8.37938c-1.48389,-0.01036 -2.78243,-0.41684 -3.89562,-1.2194c-0.99956,-0.82182 -2.7031,-3.01116 -5.1106,-6.568c-2.55625,-3.63451 -4.39509,-6.32574 -5.51653,-8.07369c-0.97396,-1.71918 0.33981,-3.86461 3.94131,-6.43632c0.14409,-0.10156 0.28819,-0.20313 0.43228,-0.30469c0.70502,-0.47482 1.38667,-0.90826 2.04492,-1.30034c-0.04887,0.00127 -0.09775,0.00254 -0.14664,0.00381c-1.25749,-0.08146 -2.66162,-0.15911 -4.21236,-0.23295c-1.48389,-0.01036 -3.81225,0.10719 -6.98507,0.35264c-3.20625,0.21371 -4.93156,0.32375 -5.17595,0.33009c-0.34299,-0.02369 -1.13254,0.02127 -2.36867,0.13489c-1.17518,-0.05099 -2.2489,-0.27581 -3.22117,-0.67444c-2.93774,-1.37471 -4.7843,-4.67712 -5.53971,-9.90724c-0.42509,-4.43983 -0.19118,-8.92938 0.70171,-13.46867c1.92823,-1.71306 4.25775,-2.72732 6.98856,-3.04281c3.19419,-0.05036 5.53196,-0.11925 7.01331,-0.20664c2.78265,-0.20271 4.9886,-0.32524 6.61786,-0.36755c2.57338,-0.09945 4.88195,-0.03714 6.92571,0.18693c0.06433,-0.03428 0.12865,-0.06855 0.19297,-0.10283c0.08104,-0.01841 0.16208,-0.03681 0.24311,-0.05523c-0.36733,-0.33283 -1.24691,-0.92951 -2.63877,-1.79005c-1.78837,-1.06219 -3.01497,-1.83735 -3.67979,-2.3255c-0.33262,-0.25221 -0.6571,-0.50464 -0.97343,-0.75729c-2.33387,-1.97733 -3.42695,-3.88904 -3.27927,-5.73518c0.24883,-1.71835 3.11303,-4.74369 8.59262,-9.07603c1.74077,-1.39841 3.56298,-2.79894 5.46667,-4.20159c1.64894,-1.16777 2.49012,-1.7358 2.52354,-1.70406c1.1388,-0.09479 3.96734,1.47023 8.48569,4.6951c2.27483,1.58757 4.51124,3.26581 6.70927,5.03471c1.58335,1.32836 4.25247,3.34589 8.00738,6.05257c1.5478,1.21516 2.90072,2.45985 4.05876,3.73405c3.33787,2.34252 6.21467,5.13722 8.63042,8.3841c3.42123,4.29679 4.81554,8.7033 4.18289,13.21951c-1.01966,5.30884 -4.39569,10.59737 -10.12813,15.8656M663.66258,372.44684c-0.14707,-5.03397 -0.99905,-8.64754 -2.55595,-10.84068c-1.07172,-1.71664 -2.48472,-3.39181 -4.23904,-5.02551c-3.39351,-2.60193 -6.67214,-5.17425 -9.83587,-7.71694c0.51437,0.34532 1.17899,0.82532 1.99383,1.43998c-1.49977,-1.24902 -2.78158,-2.26731 -3.84547,-3.05486c-0.50148,-0.47608 -0.9674,-0.83896 -1.39777,-1.08864c-0.4856,-0.4928 -0.90159,-0.81622 -1.24797,-0.97026c-9.10904,-6.725 -13.94762,-10.03936 -14.51575,-9.94309c-0.65128,0.03321 -2.63199,1.60905 -5.94213,4.7275c-3.05664,2.8347 -5.17087,4.91941 -6.34266,6.25414c0.25074,0.23803 0.64271,0.57838 1.17592,1.02104c1.34932,1.1062 3.58787,2.8659 6.71562,5.2791c3.49508,2.74603 5.48827,4.78927 5.9796,6.12969c0.07024,0.19382 0.1077,0.38033 0.11236,0.55956c0.05713,0.94412 -0.43228,1.56007 -1.46824,1.84783c-0.46952,0.12632 -1.00612,0.18102 -1.60978,0.16409c-0.4729,-0.00402 -5.66695,-0.05659 -15.58215,-0.15771c-3.65335,-0.05183 -6.4344,-0.10188 -8.34317,-0.15011c-0.97247,0.22091 -2.45817,0.45513 -4.45708,0.7027c-0.58356,3.89541 -0.71093,7.77896 -0.38211,11.65067c0.85399,2.74942 1.65233,4.61175 2.39502,5.58696c0.79283,1.02283 1.78414,1.52695 2.97392,1.51234c0.9784,0.00719 1.72035,0.01237 2.22584,0.01554c1.01099,0.00635 1.924,0.00708 2.73905,0.00222c0.83177,0.011 2.11972,0.01015 3.86388,-0.00255c1.71114,-0.02815 7.29261,-0.12423 16.74442,-0.28822c0.1788,-0.02095 0.46434,-0.01206 0.85663,0.02667c0.13203,0.06179 0.28036,0.12315 0.44498,0.18409l0.00063,0.02444c0.18302,0.14198 0.28132,0.47365 0.29487,0.99501c0.00551,0.2118 -0.05374,0.4416 -0.17774,0.68937c-0.51056,1.05669 -2.14352,2.52566 -4.89887,4.40694c-1.96971,1.37176 -4.14306,2.74879 -6.52008,4.13113c-0.36965,0.20524 -0.7393,0.41049 -1.10896,0.61573c0.57469,0.78394 2.43575,3.07516 5.58318,6.87365c2.9661,3.72168 4.71756,5.55925 5.25437,5.5127c0.63288,-0.11427 2.81882,-1.32045 6.55786,-3.61855c3.63959,-2.36074 9.10467,-6.30958 16.39527,-11.84653c7.81323,-5.50161 11.86773,-10.7181 12.16354,-15.64946M628.32149,378.91624l0.02381,-0.02508l0.1717,0.02c-0.06517,0.0017 -0.13034,0.00339 -0.19551,0.00509z" fill="#000000" stroke-width="1"/><path d="M663.72553,372.45263c-0.29581,4.93136 -4.36621,10.1843 -12.17944,15.68591c-7.2906,5.53695 -12.79368,9.50613 -16.43327,11.86687c-3.73904,2.29811 -5.93799,3.50481 -6.57087,3.61908c-0.53681,0.04655 -2.30013,-1.7929 -5.26623,-5.51458c-3.14743,-3.79849 -5.02507,-6.09663 -5.59976,-6.88057c0.36965,-0.20524 0.80265,-0.51989 1.1723,-0.72513c2.37702,-1.38234 4.53839,-2.76457 6.50811,-4.13632c2.75535,-1.88128 4.3716,-3.35313 4.88216,-4.40982c0.124,-0.24777 0.17953,-0.3512 0.17402,-0.56299c-0.01355,-0.52136 -0.11367,-0.85309 -0.2967,-0.99507l-0.00065,-0.02444c-0.16462,-0.06094 -0.31561,-0.12249 -0.44764,-0.18428c-0.39229,-0.03872 -0.68277,-0.04828 -0.86157,-0.02733c-9.45181,0.16399 -15.07684,0.2299 -16.78798,0.25805c-1.74416,0.0127 -3.03446,0.00918 -3.86622,-0.00182c-0.81505,0.00486 -1.72923,0.00163 -2.74021,-0.00472c-0.5055,-0.00317 -1.24819,-0.01014 -2.22659,-0.01733c-1.18979,0.01461 -2.18275,-0.4942 -2.97559,-1.51703c-0.74269,-0.97522 -1.54344,-2.84891 -2.39743,-5.59833c-0.32882,-3.87171 -0.20012,-7.77741 0.38343,-11.67282c1.99891,-0.24757 3.48559,-0.48539 4.45806,-0.70629c1.90877,0.04823 4.69215,0.09192 8.34549,0.14375c9.91519,0.10112 15.13941,0.12176 15.61231,0.12578c0.60367,0.01693 1.15056,-0.04179 1.62007,-0.16811c1.03596,-0.28777 1.53709,-0.90596 1.47996,-1.85008c-0.00466,-0.17922 -0.0298,-0.23991 -0.10004,-0.43373c-0.49132,-1.34043 -2.46645,-3.38823 -5.96154,-6.13426c-3.12776,-2.4132 -5.35732,-4.17753 -6.70664,-5.28373c-0.53322,-0.44266 -0.99282,-0.88981 -1.24356,-1.12785c1.17179,-1.33473 3.30253,-3.42698 6.35917,-6.26168c3.31014,-3.11845 5.30367,-4.69664 5.95495,-4.72986c0.56813,-0.09627 5.4394,3.22432 14.54844,9.94932c0.34638,0.15404 0.76563,0.47916 1.25122,0.97196c0.43037,0.24967 0.89987,0.61473 1.40135,1.09081c1.06389,0.78755 2.35487,1.81313 3.85464,3.06215c-0.81485,-0.61466 -1.48388,-1.09852 -1.99826,-1.44384c3.16373,2.54269 6.45978,5.13665 9.85329,7.73859c1.75432,1.6337 3.1718,3.32097 4.24352,5.03761c1.5569,2.19314 2.41059,5.82821 2.55766,10.86219" data-paper-data="{&quot;noHover&quot;:false,&quot;origItem&quot;:[&quot;Path&quot;,{&quot;applyMatrix&quot;:true,&quot;segments&quot;:[[[637.72562,386.24567],[0,0],[3.98079,-0.14259]],[[646.28658,384.16751],[-1.72651,1.24285],[1.35216,-0.85662]],[[650.23932,380.78847],[-1.283,1.39608],[2.04026,-2.69763]],[[656.29161,372.96865],[-1.9946,2.51558],[-0.27044,0.40864]],[[655.16308,374.55316],[0.48191,-0.6477],[0.98007,-1.19274]],[[657.55921,371.49569],[-0.61735,0.84558],[0.37393,-0.39912]],[[658.41296,370.38446],[-0.19523,0.3417],[0.38724,-0.38665]],[[659.17386,369.39233],[-0.12003,0.27477],[5.27152,-7.23977]],[[666.96247,357.8594],[0.07911,0.44885],[-0.02967,-0.51495]],[[663.19231,353.18422],[2.48377,2.60184],[-2.25802,-2.40282]],[[658.21258,348.20021],[1.0618,0.91985],[-0.18696,0.19956]],[[657.41114,349.13562],[0.34733,-0.42405],[-0.86789,1.073]],[[653.27075,354.4748],[1.89237,-2.48645],[-2.1537,2.77872]],[[648.45375,359.23627],[1.05763,-0.3956],[-0.15293,0.05657]],[[648.01176,359.32806],[0.14173,-0.00462],[-0.74644,0.05011]],[[646.54258,358.17642],[0.23301,0.81788],[-0.10236,-0.3707]],[[646.40439,356.90404],[-0.01024,0.47755],[0.00071,-0.37406]],[[646.44782,344.57872],[-0.02824,7.84282],[0.02193,-2.88984]],[[646.52301,337.97901],[-0.02819,1.50997],[-0.1798,-0.76801]],[[645.94396,334.45741],[0.20624,1.57972],[-3.08407,-0.44123]],[[636.72702,334.21598],[3.06056,-0.28028],[-2.17016,0.6898]],[[632.32058,336.13944],[0.76746,-0.59251],[-0.80486,0.63242]],[[631.13993,338.49952],[-0.01776,-0.94097],[-0.00058,0.77389]],[[631.13925,340.2601],[-0.00013,-0.39983],[0.00025,0.79966]],[[631.15179,342.42653],[-0.0081,-0.64463],[-0.00436,0.65793]],[[631.17397,345.4826],[-0.01915,-1.37945],[0.03119,1.35326]],[[631.48931,358.72488],[-0.17903,-7.47493],[0.0175,0.14131]],[[631.47269,359.40256],[0.02858,-0.31048],[-0.04818,0.10475]],[[631.32941,359.75547],[0.04734,-0.13052],[0,0]],[[631.31008,359.7561],[0,0],[-0.11134,0.1455]],[[630.52463,359.99451],[0.41229,-0.01344],[-0.16749,0.00546]],[[629.97846,359.85753],[0.19662,0.09678],[-0.83844,-0.39831]],[[626.46728,356.00583],[1.50235,2.16949],[-1.09525,-1.55076]],[[623.16579,350.87041],[1.10575,1.87286],[-0.16426,-0.2913]],[[622.673,349.99651],[0.16426,0.2913],[-0.61705,0.45863]],[[617.26551,354.44832],[2.98794,-2.50924],[-2.92814,2.36542]],[[612.93273,358.63296],[-0.03962,-0.42434],[0.09368,0.49997]],[[615.829,363.80093],[-1.83717,-2.94535],[1.88619,2.86637]],[[625.28441,376.70674],[-4.41742,-5.73751],[4.3922,6.15106]],[[637.72562,386.24567],[-3.90194,-0.20823],[0,0]]],&quot;fillColor&quot;:[0,0,0,1]}]}" fill="#ffffff" stroke-width="0.5"/></g></g></svg>