<svg version="1.1" xmlns="http://www.w3.org/2000/svg" xmlns:xlink="http://www.w3.org/1999/xlink" width="159.46188" height="154.77332" viewBox="0,0,159.46188,154.77332"><g transform="translate(-562.77295,-278.46632)"><g data-paper-data="{&quot;isPaintingLayer&quot;:true}" fill-rule="nonzero" stroke="none" stroke-linecap="butt" stroke-linejoin="miter" stroke-miterlimit="10" stroke-dasharray="" stroke-dashoffset="0" style="mix-blend-mode: normal"><path d="M644.92379,340.39809l-0.05,0.05l-0.35,-0.05c0.13333,0 0.26667,0 0.4,0z" fill="#000000" stroke-width="1"/><path d="M647.35338,280.62127c0.06603,-0.34721 0.22567,-0.7214 0.52083,-1.11495c1.5,-2 3.5,-0.5 3.5,-0.5l2.49854,2.02919c4.92226,7.048 10.24418,13.70219 14.90331,21.01286c4.4225,6.33225 6.29106,13.42224 2.31434,20.61896c-1.39111,2.5175 -2.13766,2.98153 -4.04268,4.92029c-0.59193,0.60242 -1.12131,1.27076 -1.76371,1.81904c-0.12022,0.10261 -0.49602,0.1948 -0.62781,0.22422c2.8807,-0.58168 6.32429,0.07505 9.35497,0.07505c6.23516,0 12.53093,-0.26031 18.74636,0.25324c1.91847,0.17937 3.7829,0.75535 5.69606,0.98453c5.20558,0.62358 10.70772,0.26483 15.00577,4.02347c0.84861,0.74211 3.12508,4.09976 3.80339,5.06979c6.19712,8.86248 5.84232,17.71648 3.04207,27.70448c-1.10095,3.92688 -1.99978,6.23806 -4.73937,9.33913c-1.61116,1.60393 -3.33962,3.56329 -5.4794,4.48583c-3.91581,1.68825 -9.07834,0.53199 -13.24277,1.57246c-1.92607,0.48122 -3.65315,1.66194 -5.60892,2.00298c-0.24858,0.04335 -6.05483,0.03228 -6.25184,0.03228c-5.44504,0 -10.89008,0 -16.33511,0c-2.52692,0 -5.05394,0.00563 -7.58088,0.0027c0.71608,0.39078 1.42188,0.7963 2.10165,1.24285c3.50193,2.30042 5.97977,5.83219 8.45233,9.13627c1.83752,2.45548 4.59774,5.82247 4.40092,9.16399c-0.23138,3.92836 -3.30652,6.12281 -6.115,8.23375c-5.10613,3.83793 -9.52798,7.74949 -15.1975,10.80492c-4.60261,1.25321 -7.11121,4.33124 -11.03197,6.84857c-2.17609,1.39716 -4.90082,3.17312 -7.73716,2.47592c-1.25981,-0.30967 -1.91225,-1.75553 -2.8193,-2.68306c-1.81905,-1.86012 -3.44555,-3.70473 -5.62686,-5.19153c-8.27645,-5.6413 -16.33924,-11.03207 -23.84809,-17.70547c-7.67681,-6.13921 -17.32798,-10.48011 -24.2709,-17.43188c-2.89197,-2.89565 -5.13732,-6.55672 -7.57833,-9.81125c-5.09095,-6.78763 -8.99601,-12.70346 -9.02336,-21.47892c0,-9.17296 1.60309,-18.3788 7.6522,-25.74021c3.16412,-3.85054 7.64748,-6.72259 11.07594,-10.35735c5.10375,-5.41086 10.10614,-11.86371 16.1764,-16.13818c11.29664,-8.78627 23.45289,-15.73871 36.55934,-21.48728c4.24312,-1.86106 8.77517,-2.8477 13.11655,-4.43667z" fill="#9966ff" stroke-width="0.5"/></g></g></svg>