<svg version="1.1" xmlns="http://www.w3.org/2000/svg" xmlns:xlink="http://www.w3.org/1999/xlink" width="76.53828" height="75.12714" viewBox="0,0,76.53828,75.12714"><g transform="translate(-592.23085,-331.78893)"><g data-paper-data="{&quot;isPaintingLayer&quot;:true}" fill-rule="nonzero" stroke="none" stroke-linecap="butt" stroke-linejoin="miter" stroke-miterlimit="10" stroke-dasharray="" stroke-dashoffset="0" style="mix-blend-mode: normal"><path d="M611.97755,396.75832c-1.92247,-0.94838 -5.67925,-5.64463 -11.27035,-14.08872c-5.58154,-8.15089 -8.40698,-13.04053 -8.47634,-14.66895c0.00057,-1.48393 0.39847,-2.78511 1.19367,-3.90357c0.8152,-1.00497 2.99326,-2.72291 6.53414,-5.15382c3.61757,-2.58017 6.29661,-4.43673 8.03713,-5.56968c1.71272,-0.98528 3.86677,0.3143 6.46218,3.89876c0.10251,0.14342 0.20503,0.28685 0.30754,0.43027c0.47946,0.70187 0.91738,1.38065 1.31381,2.0363c-0.00159,-0.04886 -0.00318,-0.09773 -0.00477,-0.14661c0.07317,-1.258 0.14155,-2.66261 0.20515,-4.21381c0.00057,-1.48393 -0.13234,-3.81146 -0.39871,-6.98259c-0.23486,-3.20477 -0.35628,-4.92932 -0.36423,-5.17366c0.02143,-0.34314 -0.02874,-1.13238 -0.15051,-2.36773c0.04324,-1.17549 0.26096,-2.25067 0.65317,-3.22555c1.3553,-2.94675 4.64545,-4.81505 9.87048,-5.60495c4.43693,-0.45438 8.92793,-0.25009 13.47301,0.61284c1.72574,1.91688 2.75536,4.23967 3.08885,6.96833c0.07143,3.19379 0.15574,5.53105 0.2529,7.0118c0.22106,2.78125 0.35814,4.98635 0.4112,6.61529c0.11643,2.57266 0.06934,4.88159 -0.14124,6.92679c0.03471,0.0641 0.06939,0.12819 0.1041,0.19229c0.01894,0.08092 0.03788,0.16183 0.05683,0.24275c0.3304,-0.36951 0.92126,-1.25302 1.7726,-2.65052c1.05037,-1.79534 1.81742,-3.02702 2.30117,-3.69505c0.25001,-0.33428 0.5003,-0.66042 0.75086,-0.9784c1.96189,-2.34686 3.86635,-3.45253 5.71343,-3.31703c1.71995,0.23748 4.76412,3.08167 9.13252,8.53256c1.40986,1.73151 2.82239,3.54444 4.23756,5.43883c1.17863,1.64119 1.75219,2.47861 1.72067,2.51225c0.10231,1.13815 -1.44403,3.97695 -4.63901,8.51648c-1.57253,2.28525 -3.23598,4.53269 -4.99034,6.74234c-1.31789,1.59208 -3.31776,4.27445 -5.99961,8.04714c-1.20493,1.55578 -2.44065,2.91689 -3.70719,4.08331c-2.32045,3.35325 -5.09611,6.24842 -8.32698,8.68554c-4.27413,3.4495 -8.67134,4.87285 -13.19162,4.27001c-5.31546,-0.98461 -10.62614,-4.32569 -15.93207,-10.02323M627.62451,402.53479c5.0329,-0.18027 8.64076,-1.05608 10.82358,-2.62741c1.70953,-1.08302 3.37535,-2.50705 4.99743,-4.27211c2.57949,-3.4106 5.13012,-6.70613 7.65188,-9.88657c-0.34191,0.51664 -0.81752,1.18441 -1.42679,2.00329c1.2391,-1.50797 2.2489,-2.79648 3.02942,-3.86554c0.47276,-0.50461 0.83256,-0.97292 1.07939,-1.40493c0.48959,-0.48884 0.81025,-0.90695 0.96201,-1.25435c6.66476,-9.15321 9.94712,-14.01355 9.8471,-14.58103c-0.03751,-0.65105 -1.62638,-2.62131 -4.7666,-5.91081c-2.85481,-3.03787 -4.95342,-5.13831 -6.29585,-6.30127c-0.23637,0.2523 -0.57412,0.64651 -1.01325,1.18264c-1.09727,1.35659 -2.84217,3.60669 -5.23468,6.7503c-2.72291,3.51313 -4.75295,5.51975 -6.09011,6.0199c-0.19335,0.07152 -0.37962,0.11021 -0.55881,0.11605c-0.94372,0.06336 -1.56289,-0.42197 -1.85748,-1.45601c-0.12941,-0.46868 -0.18765,-1.0049 -0.17471,-1.60867c0.0009,-0.47292 0.0192,-5.66721 0.0549,-15.58285c0.02773,-3.65361 0.05943,-6.43493 0.09507,-8.34398c-0.22732,-0.97099 -0.47134,-2.45511 -0.73209,-4.45234c-3.89918,-0.55784 -7.78348,-0.6596 -11.65294,-0.30524c-2.74373,0.87211 -4.60075,1.68272 -5.57104,2.43183c-1.01758,0.79956 -1.51514,1.79417 -1.49269,2.98383c-0.00073,0.97843 -0.00103,1.72039 -0.00086,2.22589c0.00032,1.01101 0.00562,1.92401 0.01586,2.73901c-0.00551,0.83182 0.00383,2.11974 0.02804,3.86378c0.03944,1.71092 0.17234,7.29163 0.39869,16.74215c0.02212,0.17866 0.01512,0.46425 -0.02101,0.85679c-0.06092,0.13243 -0.1213,0.28117 -0.18115,0.44618l-0.02444,0.00079c-0.14076,0.18396 -0.47179,0.28443 -0.99304,0.30142c-0.21176,0.00691 -0.44194,-0.05082 -0.69052,-0.17318c-1.06003,-0.50358 -2.53975,-2.12681 -4.43917,-4.86969c-1.38472,-1.96062 -2.77606,-4.12484 -4.17406,-6.49268c-0.20767,-0.36829 -0.41536,-0.73658 -0.62304,-1.10487c-0.78013,0.57984 -3.05902,2.45598 -6.83666,5.6284c-3.70204,2.99059 -5.52801,4.75413 -5.47792,5.29062c0.11844,0.63211 1.33902,2.81005 3.66174,6.53385c2.3847,3.62394 6.36951,9.06284 11.95443,16.31676c5.55304,7.77676 10.79616,11.79676 15.72937,12.06003M620.9221,367.23715l0.02524,0.02364l-0.01887,0.17183c-0.00212,-0.06516 -0.00425,-0.13031 -0.00637,-0.19547z" fill="#000000" stroke-width="1"/><path d="M627.61914,402.59777c-4.93321,-0.26326 -10.21288,-4.29893 -15.76592,-12.07569c-5.58492,-7.25391 -9.59033,-12.73068 -11.97502,-16.35462c-2.32272,-3.72379 -3.54391,-5.91474 -3.66235,-6.54685c-0.05009,-0.53649 1.77769,-2.31191 5.47972,-5.3025c3.77764,-3.17242 6.06335,-5.06518 6.84348,-5.64503c0.20767,0.36829 0.52517,0.7992 0.73285,1.16749c1.398,2.36785 2.79445,4.52005 4.17917,6.48067c1.89941,2.74288 3.3819,4.34939 4.44194,4.85297c0.24859,0.12236 0.35237,0.17721 0.56413,0.1703c0.52125,-0.01699 0.85232,-0.1193 0.99309,-0.30326l0.02444,-0.00081c0.05985,-0.16501 0.12041,-0.31642 0.18133,-0.44885c0.03613,-0.39254 0.04377,-0.68307 0.02165,-0.86173c-0.22635,-9.45052 -0.32936,-15.075 -0.3688,-16.78592c-0.02421,-1.74403 -0.0292,-3.03433 -0.02369,-3.86615c-0.01024,-0.815 -0.01304,-1.72918 -0.01335,-2.74018c-0.00017,-0.50551 0.00191,-1.24823 0.00265,-2.22666c-0.02246,-1.18966 0.47979,-2.18597 1.49737,-2.98553c0.97029,-0.74911 2.83867,-1.5622 5.5824,-2.43431c3.86946,-0.35435 7.77593,-0.25143 11.6751,0.30641c0.26075,1.99723 0.50837,3.48232 0.73569,4.45331c-0.03564,1.90905 -0.06097,4.69265 -0.08869,8.34626c-0.03571,9.91564 -0.02188,15.13988 -0.02278,15.6128c-0.01294,0.60377 0.04938,1.15025 0.1788,1.61893c0.29459,1.03404 0.91608,1.53108 1.8598,1.46772c0.17919,-0.00584 0.23971,-0.03138 0.43306,-0.1029c1.33716,-0.50016 3.37189,-2.48875 6.0948,-6.00187c2.39252,-3.14361 4.1421,-5.38477 5.23937,-6.74135c0.43913,-0.53613 0.88325,-0.99867 1.11962,-1.25097c1.34243,1.16296 3.44869,3.27985 6.3035,6.31772c3.14022,3.28949 4.73153,5.27256 4.76904,5.92361c0.10002,0.56748 -3.18837,5.46055 -9.85313,14.61377c-0.15175,0.34739 -0.4741,0.76877 -0.96368,1.25761c-0.24683,0.43201 -0.60878,0.90391 -1.08154,1.40852c-0.78052,1.06907 -1.79755,2.36678 -3.03665,3.87476c0.60928,-0.81889 1.08871,-1.4911 1.43062,-2.00774c-2.52176,3.18043 -5.09393,6.49353 -7.67341,9.90413c-1.62209,1.76506 -3.29998,3.19364 -5.0095,4.27666c-2.18282,1.57133 -5.81218,2.44899 -10.84507,2.62926" data-paper-data="{&quot;noHover&quot;:false,&quot;origItem&quot;:[&quot;Path&quot;,{&quot;applyMatrix&quot;:true,&quot;segments&quot;:[[[637.72562,386.24567],[0,0],[3.98079,-0.14259]],[[646.28658,384.16751],[-1.72651,1.24285],[1.35216,-0.85662]],[[650.23932,380.78847],[-1.283,1.39608],[2.04026,-2.69763]],[[656.29161,372.96865],[-1.9946,2.51558],[-0.27044,0.40864]],[[655.16308,374.55316],[0.48191,-0.6477],[0.98007,-1.19274]],[[657.55921,371.49569],[-0.61735,0.84558],[0.37393,-0.39912]],[[658.41296,370.38446],[-0.19523,0.3417],[0.38724,-0.38665]],[[659.17386,369.39233],[-0.12003,0.27477],[5.27152,-7.23977]],[[666.96247,357.8594],[0.07911,0.44885],[-0.02967,-0.51495]],[[663.19231,353.18422],[2.48377,2.60184],[-2.25802,-2.40282]],[[658.21258,348.20021],[1.0618,0.91985],[-0.18696,0.19956]],[[657.41114,349.13562],[0.34733,-0.42405],[-0.86789,1.073]],[[653.27075,354.4748],[1.89237,-2.48645],[-2.1537,2.77872]],[[648.45375,359.23627],[1.05763,-0.3956],[-0.15293,0.05657]],[[648.01176,359.32806],[0.14173,-0.00462],[-0.74644,0.05011]],[[646.54258,358.17642],[0.23301,0.81788],[-0.10236,-0.3707]],[[646.40439,356.90404],[-0.01024,0.47755],[0.00071,-0.37406]],[[646.44782,344.57872],[-0.02824,7.84282],[0.02193,-2.88984]],[[646.52301,337.97901],[-0.02819,1.50997],[-0.1798,-0.76801]],[[645.94396,334.45741],[0.20624,1.57972],[-3.08407,-0.44123]],[[636.72702,334.21598],[3.06056,-0.28028],[-2.17016,0.6898]],[[632.32058,336.13944],[0.76746,-0.59251],[-0.80486,0.63242]],[[631.13993,338.49952],[-0.01776,-0.94097],[-0.00058,0.77389]],[[631.13925,340.2601],[-0.00013,-0.39983],[0.00025,0.79966]],[[631.15179,342.42653],[-0.0081,-0.64463],[-0.00436,0.65793]],[[631.17397,345.4826],[-0.01915,-1.37945],[0.03119,1.35326]],[[631.48931,358.72488],[-0.17903,-7.47493],[0.0175,0.14131]],[[631.47269,359.40256],[0.02858,-0.31048],[-0.04818,0.10475]],[[631.32941,359.75547],[0.04734,-0.13052],[0,0]],[[631.31008,359.7561],[0,0],[-0.11134,0.1455]],[[630.52463,359.99451],[0.41229,-0.01344],[-0.16749,0.00546]],[[629.97846,359.85753],[0.19662,0.09678],[-0.83844,-0.39831]],[[626.46728,356.00583],[1.50235,2.16949],[-1.09525,-1.55076]],[[623.16579,350.87041],[1.10575,1.87286],[-0.16426,-0.2913]],[[622.673,349.99651],[0.16426,0.2913],[-0.61705,0.45863]],[[617.26551,354.44832],[2.98794,-2.50924],[-2.92814,2.36542]],[[612.93273,358.63296],[-0.03962,-0.42434],[0.09368,0.49997]],[[615.829,363.80093],[-1.83717,-2.94535],[1.88619,2.86637]],[[625.28441,376.70674],[-4.41742,-5.73751],[4.3922,6.15106]],[[637.72562,386.24567],[-3.90194,-0.20823],[0,0]]],&quot;fillColor&quot;:[0,0,0,1]}]}" fill="#ffffff" stroke-width="0.5"/></g></g></svg>