<svg version="1.1" xmlns="http://www.w3.org/2000/svg" xmlns:xlink="http://www.w3.org/1999/xlink" width="486.05515" height="540.34392" viewBox="0,0,486.05515,540.34392"><g transform="translate(-355.78413,-179.46322)"><g data-paper-data="{&quot;isPaintingLayer&quot;:true}" fill-rule="nonzero" stroke="none" stroke-width="1" stroke-linecap="butt" stroke-linejoin="miter" stroke-miterlimit="10" stroke-dasharray="" stroke-dashoffset="0" style="mix-blend-mode: normal"><path d="M473.54944,429.78981c3.7396,-5.36704 7.91172,-9.28595 12.51635,-11.75674c3.04036,-1.60005 6.02232,-3.29544 8.94589,-5.08616c9.53704,-5.71919 19.22496,-10.73545 29.06374,-15.04877c0.03527,-0.05657 0.05641,-0.12195 0.0634,-0.19615c0.14597,-5.84034 1.53176,-11.96813 4.15738,-18.38336c2.24607,-0.95622 4.55069,-1.65989 6.91387,-2.111c10.37109,-2.01736 21.17334,-2.17499 32.40676,-0.47289c2.2909,1.42857 4.04308,2.93364 5.25654,4.51523c7.07913,9.24594 12.43978,18.85401 16.08196,28.82421c-1.0555,0.87375 -2.15144,1.93832 -3.28782,3.19373c-8.49103,9.39607 -17.0917,18.68449 -25.80201,27.86526c-1.55555,-0.97001 -3.17632,-1.80394 -4.86231,-2.50177c-3.92334,-1.58236 -8.00239,-3.41894 -12.23716,-5.50975c-7.33182,2.81274 -14.56767,6.19598 -21.70755,10.14972c-9.54102,5.28462 -18.91869,11.37816 -28.13301,18.2806c-0.08485,-0.05291 -0.15023,-0.07404 -0.19615,-0.0634c-5.71593,0.59938 -12.15395,-1.86368 -19.31409,-7.3892c0.03527,-0.05657 0.04759,-0.10781 0.03694,-0.15373c-3.08268,-5.26116 -4.58464,-10.85251 -4.50588,-16.77404c1.21661,-2.26595 2.75099,-4.72654 4.60316,-7.38178z" fill-opacity="0.99608" fill="#000000"/><path d="M491.59611,493.70266c-10.09308,11.3471 -20.31071,18.67288 -30.65287,21.97734c-7.73381,2.45994 -15.54244,3.3352 -23.42588,2.62576c-7.74237,-0.65202 -15.54071,-4.45112 -23.39504,-11.39731c-4.54612,-4.0256 -7.74245,-8.51026 -9.589,-13.45398c-3.69067,-9.79154 -3.76502,-20.59866 -0.22304,-32.42136c1.76094,-5.84821 4.24833,-11.95836 7.46214,-18.33044c3.23753,-6.35452 7.5606,-13.03442 12.96922,-20.0397c4.72543,-5.48787 9.77641,-10.52289 15.15296,-15.10505c5.01163,-4.28776 10.08177,-7.63814 15.21042,-10.05115c10.32723,-4.82127 20.74064,-5.29673 31.2402,-1.42637c3.97009,1.48153 7.87311,3.99564 11.70904,7.54233c6.57744,6.1417 10.96129,12.96453 13.15156,20.46851c2.90374,9.96162 3.09183,20.66475 0.56425,32.1094c-1.29513,5.8638 -3.51766,11.86424 -6.66759,18.00132c-3.52648,6.89341 -8.02861,13.39364 -13.50639,19.50071z" fill-opacity="0.99608" fill="#000000"/><path d="M494,636.2l12.9,-16.9l-5.9,24.2l-26.2,11.5c-0.93333,6.66667 -1.46667,13.33333 -1.6,20l9.7,11.1c4.33333,4.93333 7.33333,8.13333 9,9.6c1.66667,1.43333 3.2,2.63333 4.6,3.6c1.36667,0.93333 2.4,1.65 3.1,2.15c-1.2,2.3 -2.6,4.66667 -4.2,7.1c-4.63333,-1.8 -11.43333,-7.21667 -20.4,-16.25l-12.1,-12.95l1.8,-29.4l29.3,-13.75M575.25,491.55c-1.36667,0.96667 -5.45,5.48333 -12.25,13.55c-3.4,4 -6.66667,7.91667 -9.8,11.75c-1.73333,-1.93333 -3.73333,-4.05 -6,-6.35c1.5,-1.23333 5.91667,-5.85 13.25,-13.85l11.85,-11.65l2.95,6.55M783.8,703.65c1.13333,-0.46667 4.3,1.35 9.5,5.45c1.56667,1.2 2.83333,2.11667 3.8,2.75c-2.63333,0.86667 -5.65,1.88333 -9.05,3.05c-4,1.36667 -7.81667,2.48333 -11.45,3.35c-3.6,0.86667 -7.93333,1.36667 -13,1.5c-5.06667,0.13333 -8.55,0.03333 -10.45,-0.3c-1.13333,-0.2 -3.45,-1.21667 -6.95,-3.05l-4.95,-2.7c-2.33333,-1.36667 -5.26667,-3.28333 -8.8,-5.75c-3.56667,-2.46667 -6.01667,-4.26667 -7.35,-5.4c-1.36667,-1.16667 -2.56667,-2.03333 -3.6,-2.6c-1.03333,-0.56667 -2.33333,-1.16667 -3.9,-1.8l-22.3,-5.15c-5.13333,-1.2 -8.21667,-2.38333 -9.25,-3.55l-12.3,-14.45c-0.73333,-0.9 -2.15,-3.25 -4.25,-7.05c-1.96667,-3.6 -3.11667,-5.83333 -3.45,-6.7c-0.23333,-0.63333 -0.46667,-1.46667 -0.7,-2.5l-0.25,-1.35c0.03333,-0.9 0.3,-2.7 0.8,-5.4c0.5,-2.73333 0.83333,-4.7 1,-5.9c0.13333,-1.23333 0.55,-3.48333 1.25,-6.75c0.7,-3.26667 1.28333,-5.81667 1.75,-7.65c0.46667,-1.83333 0.7,-3.13333 0.7,-3.9c0,-0.8 -0.18333,-1.73333 -0.55,-2.8c-0.3,-0.86667 -1.53333,-3.96667 -3.7,-9.3c-2.1,-5.16667 -3.56667,-8.73333 -4.4,-10.7c-0.76667,-1.8 -2.15,-5.25 -4.15,-10.35c-2,-5.06667 -3.23333,-8.28333 -3.7,-9.65c-0.43333,-1.23333 -0.56667,-2.31667 -0.4,-3.25c0.06667,-0.36667 0.65,-2.23333 1.75,-5.6c0.8,-2.43333 2.98333,-6.48333 6.55,-12.15c2.33333,-3.53333 4.06667,-6.16667 5.2,-7.9l4.45,7.45l-3.05,6.95c-2.03333,4.83333 -3.03333,7.81667 -3,8.95c0.03333,1.16667 0.88333,3.98333 2.55,8.45c1.13333,3 2.31667,5.95 3.55,8.85c1.2,2.86667 3.33333,7.55 6.4,14.05c3.03333,6.5 5.15,10.58333 6.35,12.25c1.16667,1.66667 3.06667,4.46667 5.7,8.4c2.4,3.53333 4.2,6.1 5.4,7.7c-2.1,-0.73333 -4.48333,-1.75 -7.15,-3.05c-2.7,-1.3 -4.86667,-2.65 -6.5,-4.05c-1.2,1.96667 -2.21667,4.53333 -3.05,7.7c-1.53333,6.03333 -1.81667,11.11667 -0.85,15.25c1.13333,3.56667 2.88333,7.33333 5.25,11.3c4.36667,7.6 8.66667,12.88333 12.9,15.85c1.53333,1.23333 4.65,2.3 9.35,3.2c4.66667,0.86667 10.88333,1.08333 18.65,0.65l11.15,8.75c8,6.06667 13.21667,9.68333 15.65,10.85c2.43333,1.16667 4.95,2.2 7.55,3.1c3.3,0.23333 6.85,-0.08333 10.65,-0.95c3.8,-0.9 6.85,-1.66667 9.15,-2.3c2.06667,-0.53333 3.9,-1.13333 5.5,-1.8M538.15,653.85c-3.66667,0.33333 -6.88333,0.36667 -9.65,0.1c-2.83333,-4.36667 -5.25,-8.13333 -7.25,-11.3c-3.76667,-6.03333 -6.06667,-10.15 -6.9,-12.35l2,2.65c1.76667,2.2 3.75,4.31667 5.95,6.35c7.03333,6.53333 14.86667,11.08333 23.5,13.65c-3.1,0.43333 -5.65,0.73333 -7.65,0.9M521.5,531l17.55,20.25l-9.15,-0.15l-8.4,-20.1M749.35,541.45c0.43333,5.36667 0.45,10.9 0.05,16.6c-1.66667,0.4 -3.65,0.68333 -5.95,0.85c-4.56667,0.33333 -8.36667,-0.06667 -11.4,-1.2l6.7,-7.1c4.86667,-4.96667 8.4,-8.01667 10.6,-9.15M794.85,652.4c-1.06667,0.83333 -4.7,2.25 -10.9,4.25c-5.6,1.8 -9.9,3.03333 -12.9,3.7c-2.73333,0.6 -6.96667,1.05 -12.7,1.35c-6.2,0.33333 -11,0.26667 -14.4,-0.2c1.63333,-0.43333 5.03333,-1.48333 10.2,-3.15c3.06667,-1 7.78333,-2.53333 14.15,-4.6c6.33333,-2.06667 11.03333,-3.73333 14.1,-5c3.03333,-1.26667 4.65,-2.23333 4.85,-2.9c0.86667,-2.7 1.6,-6.28333 2.2,-10.75l0.65,-6.05l1.95,8.9c1.4,6.56667 2.33333,11.38333 2.8,14.45z" fill="#2c2d41"/><path d="M799.75,630.45c2.96667,2.56667 5.13333,4.46667 6.5,5.7c1.36667,1.2 6.56667,4.3 15.6,9.3c9.03333,4.96667 13.96667,8.18333 14.8,9.65c0.83333,1.5 1.3,3.58333 1.4,6.25c0.06667,2.66667 0.21667,4.3 0.45,4.9c0.76667,1.83333 1.73333,5.25 2.9,10.25l0.35,2.85c0.16667,2.3 0.1,4.45 -0.2,6.45l-1.45,0.25c-6.76667,6.83333 -14.66667,12.53333 -23.7,17.1c-8.93333,4.46667 -14.86667,7.2 -17.8,8.2c-0.06667,0.03333 -0.11667,0.05 -0.15,0.05c-0.46667,0.13333 -0.91667,0.28333 -1.35,0.45c-0.96667,-0.63333 -2.23333,-1.55 -3.8,-2.75c-5.2,-4.1 -8.36667,-5.91667 -9.5,-5.45c-1.6,0.66667 -3.43333,1.26667 -5.5,1.8c-2.3,0.63333 -5.35,1.4 -9.15,2.3c-3.8,0.86667 -7.35,1.18333 -10.65,0.95c-2.6,-0.9 -5.11667,-1.93333 -7.55,-3.1c-2.43333,-1.16667 -7.65,-4.78333 -15.65,-10.85l-11.15,-8.75c-7.76667,0.43333 -13.98333,0.21667 -18.65,-0.65c-4.7,-0.9 -7.81667,-1.96667 -9.35,-3.2c-4.23333,-2.96667 -8.53333,-8.25 -12.9,-15.85c-2.36667,-3.96667 -4.11667,-7.73333 -5.25,-11.3c-0.96667,-4.13333 -0.68333,-9.21667 0.85,-15.25c0.83333,-3.16667 1.85,-5.73333 3.05,-7.7c1.63333,1.4 3.8,2.75 6.5,4.05c2.66667,1.3 5.05,2.31667 7.15,3.05c-1.2,-1.6 -3,-4.16667 -5.4,-7.7c-2.63333,-3.93333 -4.53333,-6.73333 -5.7,-8.4c-1.2,-1.66667 -3.31667,-5.75 -6.35,-12.25c-3.06667,-6.5 -5.2,-11.18333 -6.4,-14.05c-1.23333,-2.9 -2.41667,-5.85 -3.55,-8.85c-1.66667,-4.46667 -2.51667,-7.28333 -2.55,-8.45c-0.03333,-1.13333 0.96667,-4.11667 3,-8.95l3.05,-6.95l-4.45,-7.45c0.63333,-1.03333 1.06667,-1.73333 1.3,-2.1c-0.66667,-1.8 -2.21667,-4.41667 -4.65,-7.85c-2.73333,-3.66667 -4.51667,-6.08333 -5.35,-7.25c-1.03333,-1.43333 -2.21667,-2.76667 -3.55,-4c-1.3,-1.1 -2.13333,-1.81667 -2.5,-2.15c-0.43333,-0.4 -2.16667,-1.06667 -5.2,-2c-3.46667,-1.06667 -5.76667,-1.78333 -6.9,-2.15c-1.16667,-0.36667 -4.58333,-1.78333 -10.25,-4.25c-5.56667,-2.36667 -8.66667,-3.65 -9.3,-3.85c-4,1.93333 -9.2,5.6 -15.6,11c-6.5,5.53333 -9.08333,8.58333 -7.75,9.15c1.36667,0.6 3.33333,1.98333 5.9,4.15c2.53333,2.13333 4.25,3.81667 5.15,5.05c0.83333,1.16667 2.16667,2.41667 4,3.75c1.8,1.3 3.35,3.45 4.65,6.45c0.13333,0.23333 0.63333,2.61667 1.5,7.15c0.86667,4.5 1.45,7.56667 1.75,9.2c0.26667,1.6 0.75,5.33333 1.45,11.2c0.63333,5.46667 0.96667,9.4 1,11.8c0.03333,2.93333 0.81667,10.15 2.35,21.65c0.16667,1.73333 0.53333,3.8 1.1,6.2c0.53333,2.4 1.06667,4.23333 1.6,5.5c0.86667,2.13333 1.75,4.8 2.65,8c1.23333,4.56667 1.9,8.46667 2,11.7c0.1,3.1 -0.11667,5.7 -0.65,7.8c-0.23333,1.03333 -0.5,1.76667 -0.8,2.2l-1.65,-0.5c-1.6,2.73333 -4.05,5.56667 -7.35,8.5c-2.06667,1.8 -6.11667,4.35 -12.15,7.65c-0.26667,0.13333 -0.51667,0.28333 -0.75,0.45c-0.53333,0.26667 -1.1,0.55 -1.7,0.85c-3.66667,1.93333 -7.15,3.63333 -10.45,5.1c-4.36667,2.56667 -9.96667,5.33333 -16.8,8.3c-6.83333,2.93333 -16.18333,6.2 -28.05,9.8c-11.86667,3.6 -23.28333,5.71667 -34.25,6.35c-10.96667,0.6 -18.48333,0.46667 -22.55,-0.4c1.6,-2.43333 3,-4.8 4.2,-7.1c-0.7,-0.5 -1.73333,-1.21667 -3.1,-2.15c-1.4,-0.96667 -2.93333,-2.16667 -4.6,-3.6c-1.66667,-1.46667 -4.66667,-4.66667 -9,-9.6l-9.7,-11.1c0.13333,-6.66667 0.66667,-13.33333 1.6,-20l26.2,-11.5l5.9,-24.2c-1.66667,-7.36667 -3.61667,-15.16667 -5.85,-23.4c-4.46667,-16.43333 -8.1,-26.73333 -10.9,-30.9c6.93333,-5.76667 12.06667,-10.61667 15.4,-14.55c7.5,-8.93333 10.61667,-17.08333 9.35,-24.45c-2.1,-3.4 -4.93333,-8.63333 -8.5,-15.7l-4.75,-9.55l10.35,-4.75c7.56667,-3 13.06667,-4.05 16.5,-3.15c0.93333,0.7 4.38333,3.86667 10.35,9.5c2.96667,2.76667 5.63333,5.36667 8,7.8c0.1,0.1 0.21667,0.21667 0.35,0.35c2.26667,2.3 4.26667,4.41667 6,6.35c3.13333,-3.83333 6.4,-7.75 9.8,-11.75c6.8,-8.06667 10.88333,-12.58333 12.25,-13.55l-2.95,-6.55l-3.5,-23.15c-0.8,-5.36667 -1.31667,-11.58333 -1.55,-18.65l-0.25,-3.45c-0.23333,-4.4 -0.4,-9.06667 -0.5,-14c-0.13333,-4.96667 0.16667,-10.76667 0.9,-17.4c0.36667,-4.1 1.36667,-8.46667 3,-13.1c1.63333,-4.63333 3.63333,-8.05 6,-10.25l6.5,-5.1c5.56667,-3.83333 11.5,-6.76667 17.8,-8.8c16.06667,-5.2 32.03333,-3.96667 47.9,3.7c4.06667,1.96667 8.13333,4.35 12.2,7.15c7.53333,6.6 13.01667,14.4 16.45,23.4c3.4,9 5.56667,15.2 6.5,18.6c0.93333,3.36667 1.96667,6.81667 3.1,10.35c1.13333,3.53333 2.2,6.35 3.2,8.45c1.43333,2.53333 7.16667,14.98333 17.2,37.35l14.5,31.85c1.46667,-0.6 3.93333,-1.65 7.4,-3.15c3.43333,-1.5 6.1,-2.15 8,-1.95c1.86667,0.16667 3.95,0.98333 6.25,2.45c1.33333,0.86667 3.43333,2.25 6.3,4.15c3.26667,1.83333 5.26667,3.23333 6,4.2c1.53333,2 1.98333,5.13333 1.35,9.4c-0.6,4.03333 -0.35,8.31667 0.75,12.85c0.53333,2.3 1.13333,4.18333 1.8,5.65c0.9,2.36667 2.25,4.7 4.05,7c1.76667,2.3 3.38333,3.9 4.85,4.8c1.93333,0.96667 4,2.53333 6.2,4.7c1.13333,1.1 2.16667,3.36667 3.1,6.8c1.46667,5.56667 3.88333,14.26667 7.25,26.1c3.33333,11.83333 5.96667,20.81667 7.9,26.95c1.56667,3.1 3.83333,5.95 6.8,8.55M790.1,629.05l-0.65,6.05c-0.6,4.46667 -1.33333,8.05 -2.2,10.75c-0.2,0.66667 -1.81667,1.63333 -4.85,2.9c-3.06667,1.26667 -7.76667,2.93333 -14.1,5c-6.36667,2.06667 -11.08333,3.6 -14.15,4.6c-5.16667,1.66667 -8.56667,2.71667 -10.2,3.15c3.4,0.46667 8.2,0.53333 14.4,0.2c5.73333,-0.3 9.96667,-0.75 12.7,-1.35c3,-0.66667 7.3,-1.9 12.9,-3.7c6.2,-2 9.83333,-3.41667 10.9,-4.25c-0.46667,-3.06667 -1.4,-7.88333 -2.8,-14.45l-1.95,-8.9M661.35,391.65c-4.43333,-4.56667 -7.7,-7.4 -9.8,-8.5c-2.13333,-1.1 -3.35,-1.7 -3.65,-1.8l-2.3,21.5c-0.5,7.33333 -1.43333,11.8 -2.8,13.4c-1.36667,1.56667 -3.66667,3.03333 -6.9,4.4c-3.2,1.36667 -6.63333,2.38333 -10.3,3.05c-3.66667,0.66667 -8.23333,1.2 -13.7,1.6c-5.46667,0.4 -10.8,0.1 -16,-0.9c-5.2,-1 -9.18333,-2.5 -11.95,-4.5c-2.3,-1.66667 -4.11667,-4.23333 -5.45,-7.7c-0.83333,-2.4 -1.36667,-4.8 -1.6,-7.2c-0.36667,-4.1 -0.36667,-7.98333 0,-11.65c-1.43333,2.36667 -2.6,5.45 -3.5,9.25c-0.43333,1.9 -0.73333,3.56667 -0.9,5c-0.96667,19.7 0.13333,38.83333 3.3,57.4c5.93333,14.23333 13.93333,23.7 24,28.4c8.86667,4.13333 19.65,4.66667 32.35,1.6c9.86667,-2.36667 22.7,-7.9 38.5,-16.6c7.93333,-4.33333 14.95,-8.45 21.05,-12.35c-8.2,-22.23333 -12.71667,-35.13333 -13.55,-38.7c-0.83333,-3.56667 -2.61667,-9.15 -5.35,-16.75c-2.76667,-7.6 -6.58333,-13.91667 -11.45,-18.95M738.75,550.6l-6.7,7.1c3.03333,1.13333 6.83333,1.53333 11.4,1.2c2.3,-0.16667 4.28333,-0.45 5.95,-0.85c0.4,-5.7 0.38333,-11.23333 -0.05,-16.6c-2.2,1.13333 -5.73333,4.18333 -10.6,9.15M529.9,551.1l9.15,0.15l-17.55,-20.25l8.4,20.1M522.3,639.3c-2.2,-2.03333 -4.18333,-4.15 -5.95,-6.35l-2,-2.65c0.83333,2.2 3.13333,6.31667 6.9,12.35c2,3.16667 4.41667,6.93333 7.25,11.3c2.76667,0.26667 5.98333,0.23333 9.65,-0.1c2,-0.16667 4.55,-0.46667 7.65,-0.9c-8.63333,-2.56667 -16.46667,-7.11667 -23.5,-13.65z" fill="#000000"/><path d="M678.15,427.35c0.83333,3.56667 5.35,16.46667 13.55,38.7c-6.1,3.9 -13.11667,8.01667 -21.05,12.35c-15.8,8.7 -28.63333,14.23333 -38.5,16.6c-12.7,3.06667 -23.48333,2.53333 -32.35,-1.6c-10.06667,-4.7 -18.06667,-14.16667 -24,-28.4c-3.16667,-18.56667 -4.26667,-37.7 -3.3,-57.4c0.16667,-1.43333 0.46667,-3.1 0.9,-5c0.9,-3.8 2.06667,-6.88333 3.5,-9.25c-0.36667,3.66667 -0.36667,7.55 0,11.65c0.23333,2.4 0.76667,4.8 1.6,7.2c1.33333,3.46667 3.15,6.03333 5.45,7.7c2.76667,2 6.75,3.5 11.95,4.5c5.2,1 10.53333,1.3 16,0.9c5.46667,-0.4 10.03333,-0.93333 13.7,-1.6c3.66667,-0.66667 7.1,-1.68333 10.3,-3.05c3.23333,-1.36667 5.53333,-2.83333 6.9,-4.4c1.36667,-1.6 2.3,-6.06667 2.8,-13.4l2.3,-21.5c0.3,0.1 1.51667,0.7 3.65,1.8c2.1,1.1 5.36667,3.93333 9.8,8.5c4.86667,5.03333 8.68333,11.35 11.45,18.95c2.73333,7.6 4.51667,13.18333 5.35,16.75z" fill="#ffffff"/><path d="M720.6,215.8c4.5,4.73333 7.08333,10.1 7.75,16.1c0.4,3.16667 0.68333,5.88333 0.85,8.15c0.2,3 0.23333,5.76667 0.1,8.3c-0.03333,0.9 0.1,1.66667 0.4,2.3c0.26667,0.66667 0.68333,1.31667 1.25,1.95c1.63333,1.66667 3,3.16667 4.1,4.5c1.4,1.66667 2.63333,3.31667 3.7,4.95c1.7,2.7 2.66667,4.28333 2.9,4.75c1.03333,1.83333 1.71667,3.58333 2.05,5.25c0.1,0.36667 -0.03333,3.85 -0.4,10.45c-0.36667,6.43333 -0.6,10.05 -0.7,10.85c-0.16667,1.26667 -0.51667,4.31667 -1.05,9.15c-0.4,3.76667 -0.76667,6.83333 -1.1,9.2c-1.8,14.26667 -4.45,27.38333 -7.95,39.35c-1.6,5.3 -3.4,9.81667 -5.4,13.55c-1,1.93333 -1.8,3.33333 -2.4,4.2c-1.06667,1.43333 -2.23333,2.51667 -3.5,3.25c-1.13333,0.66667 -2,1.45 -2.6,2.35c-0.53333,0.83333 -0.88333,1.9 -1.05,3.2c-0.1,0.6 -0.28333,1.5 -0.55,2.7c-0.3,1.2 -0.48333,2.1 -0.55,2.7c-0.13333,0.93333 -0.43333,1.68333 -0.9,2.25c-0.46667,0.6 -1.13333,1.06667 -2,1.4c-7.06667,3.13333 -13.86667,5.78333 -20.4,7.95c-7.16667,2.33333 -14.18333,4.16667 -21.05,5.5c-11.83333,2.23333 -22.36667,4.01667 -31.6,5.35c-6.36667,0.86667 -11.21667,1.5 -14.55,1.9c-5.43333,0.6 -10.31667,0.95 -14.65,1.05c-3.53333,0.1 -7.6,0.11667 -12.2,0.05c-0.66667,0 -4.73333,-0.06667 -12.2,-0.2c-7.2,-0.1 -15.25,-0.86667 -24.15,-2.3c-1.6,-0.3 -4.03333,-0.71667 -7.3,-1.25c-2.83333,-0.5 -5.26667,-0.88333 -7.3,-1.15c-4.2,-0.56667 -7.63333,-1.05 -10.3,-1.45c-3.76667,-0.56667 -7.16667,-1.16667 -10.2,-1.8c-3.83333,-0.8 -7.18333,-1.63333 -10.05,-2.5c-3.56667,-1.06667 -6.78333,-2.31667 -9.65,-3.75c-2.53333,-1.23333 -4.3,-2.06667 -5.3,-2.5c-2.03333,-0.9 -3.88333,-1.56667 -5.55,-2c-1.76667,-0.46667 -3.23333,-1.3 -4.4,-2.5c-1.13333,-1.1 -2.05,-2.51667 -2.75,-4.25c-1.33333,-3.43333 -2.36667,-7.08333 -3.1,-10.95c-0.36667,-1.73333 -0.86667,-3.73333 -1.5,-6c-0.06667,-0.4 -0.61667,-2.38333 -1.65,-5.95c-0.23333,-0.8 -0.56667,-1.45 -1,-1.95c-0.43333,-0.5 -1,-0.86667 -1.7,-1.1c-1.9,-0.7 -3.93333,-1.78333 -6.1,-3.25c-0.03333,-0.03333 -1.86667,-1.35 -5.5,-3.95c-0.7,-0.53333 -1.16667,-1.16667 -1.4,-1.9c-0.23333,-0.86667 -0.4,-1.51667 -0.5,-1.95c-0.23333,-0.73333 -0.4,-1.38333 -0.5,-1.95c-1.43333,-11.13333 -2.55,-19.98333 -3.35,-26.55c-0.1,-0.83333 -0.13333,-1.81667 -0.1,-2.95c0,-0.33333 0.05,-1.35 0.15,-3.05c0.23333,-6 0.4,-10.5 0.5,-13.5c0.23333,-5.2 0.5,-9.66667 0.8,-13.4c0.5,-7.26667 1.21667,-13.58333 2.15,-18.95c0.53333,-3.1 1.5,-7.76667 2.9,-14c1.43333,-6.16667 2.41667,-10.81667 2.95,-13.95c0.36667,-2.16667 1.26667,-3.93333 2.7,-5.3c1.4,-1.3 3.21667,-2.11667 5.45,-2.45c0.33333,-0.06667 0.76667,-0.11667 1.3,-0.15c0.6,-0.06667 1.01667,-0.11667 1.25,-0.15l10.85,-1.35c0.6,-0.06667 1.05,-0.26667 1.35,-0.6c0.26667,-0.3 0.45,-0.75 0.55,-1.35c0.16667,-0.86667 0.5,-2.31667 1,-4.35c2.6,-10.03333 6.95,-19.45 13.05,-28.25c1.66667,-2.33333 3.55,-3.98333 5.65,-4.95c2.83333,-1.3 5.3,-2.35 7.4,-3.15c2.76667,-1.03333 5.31667,-1.83333 7.65,-2.4c10.46667,-2.63333 20.53333,-3.81667 30.2,-3.55c12.1,0.26667 21.88333,0.45 29.35,0.55c10.6,0.16667 22.95,1.1 37.05,2.8c13.43333,1.6 26.01667,4.08333 37.75,7.45c7.43333,2.06667 13.4,3.85 17.9,5.35c6.53333,2.13333 12.36667,4.33333 17.5,6.6c7.56667,3.3 14.11667,7.81667 19.65,13.55M634.8,248.6c-7.33333,-0.76667 -18.31667,-1.9 -32.95,-3.4c-3.56667,-0.4 -8.91667,-0.93333 -16.05,-1.6c-6.26667,-0.66667 -11.58333,-1.3 -15.95,-1.9c-11.8,-1.5 -23.5,-2.3 -35.1,-2.4c-6.43333,-0.03333 -14.73333,-0.13333 -24.9,-0.3c-3.43333,-0.03333 -7.15,0.1 -11.15,0.4c-3.2,0.3 -6.91667,0.73333 -11.15,1.3c-0.63333,0.1 -1.45,0.26667 -2.45,0.5c-1.3,0.3 -2.1,0.48333 -2.4,0.55c-1.76667,0.36667 -2.86667,1.5 -3.3,3.4c-0.96667,4.3 -1.63333,7.4 -2,9.3c-1.6,9.26667 -2.83333,17.45 -3.7,24.55c-1.1,8.76667 -1.73333,16.98333 -1.9,24.65c-0.13333,3.86667 -0.01667,8.18333 0.35,12.95c0.2,3.03333 0.56667,7.33333 1.1,12.9c0.23333,2.23333 0.66667,5.15 1.3,8.75c0.23333,1.36667 0.71667,2.43333 1.45,3.2c0.73333,0.76667 1.81667,1.3 3.25,1.6c2.86667,0.7 5.96667,1.16667 9.3,1.4c2.8,0.23333 5.93333,0.33333 9.4,0.3c1.26667,0 2.23333,-0.56667 2.9,-1.7c0.96667,-1.86667 1.63333,-3.58333 2,-5.15c0.43333,-1.8 0.4,-3.58333 -0.1,-5.35c-0.13333,-0.4 -0.23333,-0.71667 -0.3,-0.95c-0.03333,-0.36667 0.03333,-0.7 0.2,-1c0.36667,-0.33333 0.81667,-0.51667 1.35,-0.55c0.13333,0 0.61667,0.01667 1.45,0.05c3.2,0.03333 5.58333,0.06667 7.15,0.1c2.9,0.03333 5.3,0.23333 7.2,0.6c1.2,0.16667 2.66667,0.28333 4.4,0.35c2,0.03333 3.5,0.06667 4.5,0.1c1,0 1.85,0.21667 2.55,0.65c0.73333,0.4 1.38333,1.01667 1.95,1.85c0.53333,0.9 1.56667,2.36667 3.1,4.4c1.33333,1.86667 2.33333,3.33333 3,4.4c0.43333,0.73333 0.96667,1.25 1.6,1.55c0.56667,0.26667 1.26667,0.41667 2.1,0.45c6.4,0.06667 11.18333,0.1 14.35,0.1c6.3,0.06667 13.23333,0.36667 20.8,0.9c5.43333,0.36667 12.35,0.96667 20.75,1.8c4.2,0.43333 9.23333,0.85 15.1,1.25c6.66667,0.43333 11.7,0.76667 15.1,1c0.36667,0.03333 0.83333,0.05 1.4,0.05c0.66667,0 1.16667,0 1.5,0c0.6,0 1.06667,-0.11667 1.4,-0.35c0.4,-0.23333 0.66667,-0.65 0.8,-1.25c2.16667,-7.73333 3.8,-13.53333 4.9,-17.4c1.86667,-6.96667 3.36667,-12.81667 4.5,-17.55c0.83333,-3.46667 1.61667,-7.63333 2.35,-12.5c0.8,-5.6 1.41667,-9.81667 1.85,-12.65c0.36667,-2.56667 0.83333,-6.13333 1.4,-10.7c0.63333,-5.03333 1.1,-8.58333 1.4,-10.65c0.2,-1.4 0.2,-3.05 0,-4.95c-0.33333,-2.2 -0.56667,-3.85 -0.7,-4.95c-0.1,-1.1 -0.5,-2.06667 -1.2,-2.9c-0.66667,-0.73333 -1.53333,-1.35 -2.6,-1.85c-2.1,-0.93333 -3.93333,-1.63333 -5.5,-2.1c-2.03333,-0.63333 -3.96667,-1.05 -5.8,-1.25M510.45,351.15c-0.06667,0.23333 -0.2,0.71667 -0.4,1.45c-0.13333,0.6 -0.26667,1.08333 -0.4,1.45c-0.43333,1.46667 -1.01667,2.53333 -1.75,3.2c-0.86667,0.86667 -2.03333,1.2 -3.5,1c-0.2,0 -0.45,0.03333 -0.75,0.1c-0.16667,0.03333 -0.4,0.08333 -0.7,0.15c-1.63333,0.33333 -2.61667,0.8 -2.95,1.4c-0.4,0.6 -0.4,1.73333 0,3.4c0.06667,0.3 0.6,2.61667 1.6,6.95c0.63333,2.83333 1.16667,5.16667 1.6,7c0.13333,0.66667 0.36667,1.26667 0.7,1.8c0.3,0.46667 0.71667,0.95 1.25,1.45c1.1,1.13333 2.55,2.05 4.35,2.75c0.76667,0.26667 2.4,0.73333 4.9,1.4c2.23333,0.6 5.4,1.4 9.5,2.4c4.43333,1.1 7.61667,1.91667 9.55,2.45c4.03333,1.06667 8.86667,2 14.5,2.8c4.43333,0.6 8.61667,1.03333 12.55,1.3c4.56667,0.26667 9.26667,0.31667 14.1,0.15l11.45,0.1c0.66667,0.03333 1.16667,0.03333 1.5,0c2,-0.1 3.36667,-0.2 4.1,-0.3c1.03333,-0.2 1.86667,-0.46667 2.5,-0.8c0.6,-0.4 1.21667,-1.01667 1.85,-1.85c0.46667,-0.6 1.25,-1.75 2.35,-3.45c1.46667,-2.3 3.11667,-5.3 4.95,-9c2.93333,-5.96667 4.46667,-9.06667 4.6,-9.3c0.16667,-0.36667 0.2,-0.7 0.1,-1c-0.1,-0.26667 -0.3,-0.5 -0.6,-0.7c-1.93333,-1.36667 -3.86667,-2.2 -5.8,-2.5c-3.43333,-0.5 -8.63333,-1.3 -15.6,-2.4c-6.03333,-0.86667 -11.25,-1.51667 -15.65,-1.95c-4.03333,-0.4 -9.18333,-1.06667 -15.45,-2c-9.1,-1.33333 -14.21667,-2.08333 -15.35,-2.25c-1.63333,-0.2 -2.86667,-0.9 -3.7,-2.1c-0.5,-0.66667 -1.13333,-1.61667 -1.9,-2.85c-0.83333,-1.46667 -1.41667,-2.43333 -1.75,-2.9c-1.4,-2.16667 -2.95,-4.48333 -4.65,-6.95c-0.66667,-0.96667 -1.5,-1.36667 -2.5,-1.2c-1.53333,0.3 -3.25,0.5 -5.15,0.6c-1.2,0.03333 -2.93333,0.05 -5.2,0.05c-0.96667,0.03333 -1.58333,0.51667 -1.85,1.45c-0.5,1.93333 -1.3,4.83333 -2.4,8.7z" fill="#000000"/><path d="M514.7,341c2.26667,0 4,-0.01667 5.2,-0.05c1.9,-0.1 3.61667,-0.3 5.15,-0.6c1,-0.16667 1.83333,0.23333 2.5,1.2c1.7,2.46667 3.25,4.78333 4.65,6.95c0.33333,0.46667 0.91667,1.43333 1.75,2.9c0.76667,1.23333 1.4,2.18333 1.9,2.85c0.83333,1.2 2.06667,1.9 3.7,2.1c1.13333,0.16667 6.25,0.91667 15.35,2.25c6.26667,0.93333 11.41667,1.6 15.45,2c4.4,0.43333 9.61667,1.08333 15.65,1.95c6.96667,1.1 12.16667,1.9 15.6,2.4c1.93333,0.3 3.86667,1.13333 5.8,2.5c0.3,0.2 0.5,0.43333 0.6,0.7c0.1,0.3 0.06667,0.63333 -0.1,1c-0.13333,0.23333 -1.66667,3.33333 -4.6,9.3c-1.83333,3.7 -3.48333,6.7 -4.95,9c-1.1,1.7 -1.88333,2.85 -2.35,3.45c-0.63333,0.83333 -1.25,1.45 -1.85,1.85c-0.63333,0.33333 -1.46667,0.6 -2.5,0.8c-0.73333,0.1 -2.1,0.2 -4.1,0.3c-0.33333,0.03333 -0.83333,0.03333 -1.5,0l-11.45,-0.1c-4.83333,0.16667 -9.53333,0.11667 -14.1,-0.15c-3.93333,-0.26667 -8.11667,-0.7 -12.55,-1.3c-5.63333,-0.8 -10.46667,-1.73333 -14.5,-2.8c-1.93333,-0.53333 -5.11667,-1.35 -9.55,-2.45c-4.1,-1 -7.26667,-1.8 -9.5,-2.4c-2.5,-0.66667 -4.13333,-1.13333 -4.9,-1.4c-1.8,-0.7 -3.25,-1.61667 -4.35,-2.75c-0.53333,-0.5 -0.95,-0.98333 -1.25,-1.45c-0.33333,-0.53333 -0.56667,-1.13333 -0.7,-1.8c-0.43333,-1.83333 -0.96667,-4.16667 -1.6,-7c-1,-4.33333 -1.53333,-6.65 -1.6,-6.95c-0.4,-1.66667 -0.4,-2.8 0,-3.4c0.33333,-0.6 1.31667,-1.06667 2.95,-1.4c0.3,-0.06667 0.53333,-0.11667 0.7,-0.15c0.3,-0.06667 0.55,-0.1 0.75,-0.1c1.46667,0.2 2.63333,-0.13333 3.5,-1c0.73333,-0.66667 1.31667,-1.73333 1.75,-3.2c0.13333,-0.36667 0.26667,-0.85 0.4,-1.45c0.2,-0.73333 0.33333,-1.21667 0.4,-1.45c1.1,-3.86667 1.9,-6.76667 2.4,-8.7c0.26667,-0.93333 0.88333,-1.41667 1.85,-1.45M646.1,251.95c1.06667,0.5 1.93333,1.11667 2.6,1.85c0.7,0.83333 1.1,1.8 1.2,2.9c0.13333,1.1 0.36667,2.75 0.7,4.95c0.2,1.9 0.2,3.55 0,4.95c-0.3,2.06667 -0.76667,5.61667 -1.4,10.65c-0.56667,4.56667 -1.03333,8.13333 -1.4,10.7c-0.43333,2.83333 -1.05,7.05 -1.85,12.65c-0.73333,4.86667 -1.51667,9.03333 -2.35,12.5c-1.13333,4.73333 -2.63333,10.58333 -4.5,17.55c-1.1,3.86667 -2.73333,9.66667 -4.9,17.4c-0.13333,0.6 -0.4,1.01667 -0.8,1.25c-0.33333,0.23333 -0.8,0.35 -1.4,0.35c-0.33333,0 -0.83333,0 -1.5,0c-0.56667,0 -1.03333,-0.01667 -1.4,-0.05c-3.4,-0.23333 -8.43333,-0.56667 -15.1,-1c-5.86667,-0.4 -10.9,-0.81667 -15.1,-1.25c-8.4,-0.83333 -15.31667,-1.43333 -20.75,-1.8c-7.56667,-0.53333 -14.5,-0.83333 -20.8,-0.9c-3.16667,0 -7.95,-0.03333 -14.35,-0.1c-0.83333,-0.03333 -1.53333,-0.18333 -2.1,-0.45c-0.63333,-0.3 -1.16667,-0.81667 -1.6,-1.55c-0.66667,-1.06667 -1.66667,-2.53333 -3,-4.4c-1.53333,-2.03333 -2.56667,-3.5 -3.1,-4.4c-0.56667,-0.83333 -1.21667,-1.45 -1.95,-1.85c-0.7,-0.43333 -1.55,-0.65 -2.55,-0.65c-1,-0.03333 -2.5,-0.06667 -4.5,-0.1c-1.73333,-0.06667 -3.2,-0.18333 -4.4,-0.35c-1.9,-0.36667 -4.3,-0.56667 -7.2,-0.6c-1.56667,-0.03333 -3.95,-0.06667 -7.15,-0.1c-0.83333,-0.03333 -1.31667,-0.05 -1.45,-0.05c-0.53333,0.03333 -0.98333,0.21667 -1.35,0.55c-0.16667,0.3 -0.23333,0.63333 -0.2,1c0.06667,0.23333 0.16667,0.55 0.3,0.95c0.5,1.76667 0.53333,3.55 0.1,5.35c-0.36667,1.56667 -1.03333,3.28333 -2,5.15c-0.66667,1.13333 -1.63333,1.7 -2.9,1.7c-3.46667,0.03333 -6.6,-0.06667 -9.4,-0.3c-3.33333,-0.23333 -6.43333,-0.7 -9.3,-1.4c-1.43333,-0.3 -2.51667,-0.83333 -3.25,-1.6c-0.73333,-0.76667 -1.21667,-1.83333 -1.45,-3.2c-0.63333,-3.6 -1.06667,-6.51667 -1.3,-8.75c-0.53333,-5.56667 -0.9,-9.86667 -1.1,-12.9c-0.36667,-4.76667 -0.48333,-9.08333 -0.35,-12.95c0.16667,-7.66667 0.8,-15.88333 1.9,-24.65c0.86667,-7.1 2.1,-15.28333 3.7,-24.55c0.36667,-1.9 1.03333,-5 2,-9.3c0.43333,-1.9 1.53333,-3.03333 3.3,-3.4c0.3,-0.06667 1.1,-0.25 2.4,-0.55c1,-0.23333 1.81667,-0.4 2.45,-0.5c4.23333,-0.56667 7.95,-1 11.15,-1.3c4,-0.3 7.71667,-0.43333 11.15,-0.4c10.16667,0.16667 18.46667,0.26667 24.9,0.3c11.6,0.1 23.3,0.9 35.1,2.4c4.36667,0.6 9.68333,1.23333 15.95,1.9c7.13333,0.66667 12.48333,1.2 16.05,1.6c14.63333,1.5 25.61667,2.63333 32.95,3.4c1.83333,0.2 3.76667,0.61667 5.8,1.25c1.56667,0.46667 3.4,1.16667 5.5,2.1z" fill="#ffffff"/><path d="M518,359.65c0.93724,-0.15286 2.00391,0.09714 3.2,0.75l2.45,1.35c1.96667,0.56667 4.08333,0.78333 6.35,0.65c1.83333,-0.1 6.43333,-0.33333 13.8,-0.7c6.97083,-0.53255 12.4375,-1.16589 16.4,-1.9c3.95924,-0.70208 8.10924,-1.55208 12.45,-2.55c4.36771,-0.99831 7.15104,-1.69831 8.35,-2.1c1.20456,-0.36901 1.98789,-0.10234 2.35,0.8c0.35703,0.90195 0.5237,1.66862 0.5,2.3c0.33958,4.1 -1.26042,10.61667 -4.8,19.55c-3.53958,8.93333 -6.32292,15.96667 -8.35,21.1c-0.74284,2.48268 -8.47617,2.33268 -23.2,-0.45c-14.69883,-2.75247 -22.44883,-5.15247 -23.25,-7.2l-7.15,-29.65c-0.30677,-1.15156 -0.00677,-1.80156 0.9,-1.95M534.85,377c3.85911,0.9832 8.40911,1.59987 13.65,1.85c10.53333,0.76667 18.75,-0.08333 24.65,-2.55c2.56667,-7.53333 4.35,-13.13333 5.35,-16.8c-7.63333,3.4 -17.7,5.83333 -30.2,7.3l-16.5,1.25l3.05,8.95M535.35,390.9c4.43333,1.96667 10.76667,3.43333 19,4.4c4.1,0.46667 7.85,0.76667 11.25,0.9l1.25,-3.05l-31.5,-4.9v2.65M556.35,385.9l5,0.75c3.66667,0.46667 6.26667,0.55 7.8,0.25c1.19909,-1.88672 1.21576,-3.10339 0.05,-3.65c-1.22734,-0.47331 -3.24401,-0.55664 -6.05,-0.25c-2.78112,0.30391 -5.04779,1.27057 -6.8,2.9z" fill="#000000"/><path d="M569.15,386.9c-1.53333,0.3 -4.13333,0.21667 -7.8,-0.25l-5,-0.75c1.75221,-1.62943 4.01888,-2.59609 6.8,-2.9c2.80599,-0.30664 4.82266,-0.22331 6.05,0.25c1.16576,0.54661 1.14909,1.76328 -0.05,3.65z" fill="#f3769b"/><path d="M535.35,388.25l31.5,4.9l-1.25,3.05c-3.4,-0.13333 -7.15,-0.43333 -11.25,-0.9c-8.23333,-0.96667 -14.56667,-2.43333 -19,-4.4v-2.65M548.3,366.8c12.5,-1.46667 22.56667,-3.9 30.2,-7.3c-1,3.66667 -2.78333,9.26667 -5.35,16.8c-5.9,2.46667 -14.11667,3.31667 -24.65,2.55c-5.24089,-0.25013 -9.79089,-0.8668 -13.65,-1.85l-3.05,-8.95z" fill="#ffffff"/><path d="M737.96874,427.77596c-0.00896,5.92179 -1.59351,11.49002 -4.75364,16.70471c-0.01132,0.04575 0.00023,0.09717 0.03466,0.15425c-7.24087,5.41861 -13.71438,7.78593 -19.42055,7.10198c-0.04575,-0.01132 -0.11144,0.00884 -0.19706,0.06048c-9.11066,-7.03786 -18.39662,-13.26935 -27.85789,-18.69448c-7.08021,-4.05888 -14.26482,-7.54877 -21.55385,-10.46968c-4.26508,2.02776 -8.37071,3.80364 -12.31688,5.32764c-1.69607,0.67275 -3.32894,1.48254 -4.89862,2.42936c-8.57297,-9.30837 -17.03473,-18.72274 -25.38528,-28.24312c-1.1176,-1.27204 -2.1976,-2.35269 -3.24,-3.24193c3.78929,-9.9147 9.29143,-19.44188 16.50641,-28.58154c1.2367,-1.56337 3.0109,-3.04226 5.3226,-4.43667c11.25689,-1.53545 22.05514,-1.21784 32.39475,0.95283c2.35613,0.48604 4.64997,1.22374 6.88153,2.21308c2.53018,6.45313 3.825,12.60049 3.88444,18.44209c0.00589,0.07429 0.02605,0.13998 0.06048,0.19706c9.77338,4.45839 19.38549,9.61737 28.83634,15.47694c2.8966,1.83375 5.85299,3.57304 8.86917,5.21788c4.56732,2.53861 8.68074,6.51871 12.34027,11.94031c1.81255,2.68226 3.31025,5.1652 4.49311,7.44882z" fill-opacity="0.99608" fill="#000000"/><path d="M475.57242,431.40705c1.28609,0.97134 2.31323,2.02966 3.08142,3.17495c2.46101,3.59545 4.7369,7.26807 6.82769,11.01786c5.16501,9.24746 7.82157,19.69206 7.96969,31.33379c-0.34707,1.00785 -0.69956,2.03144 -1.05748,3.07078c-0.03254,0.09449 -0.05965,0.17322 -0.08134,0.23621c-4.3726,3.28551 -8.96693,6.08953 -13.78297,8.41204c-0.07384,0.0098 -0.14225,0.00386 -0.20524,-0.01783c-0.49119,7.05303 -2.21152,14.29932 -5.16099,21.73885c-1.15635,2.94866 -2.87721,4.92785 -5.16258,5.93757c-4.94098,2.1738 -10.86175,2.23107 -17.76232,0.1718c-2.43702,-0.69831 -4.37574,-1.71825 -5.81618,-3.05981c-2.96242,2.36193 -6.21444,4.18375 -9.75608,5.46547c-0.04234,0.02065 -0.07436,0.06247 -0.09605,0.12546c-2.14541,6.02538 -4.63904,11.57854 -7.4809,16.65948c-1.07313,1.99087 -2.54557,3.351 -4.41734,4.0804c-6.1549,2.42514 -13.21888,3.03993 -21.19195,1.84438c-3.12428,-0.44176 -6.29475,-1.00512 -9.51143,-1.69008c-7.14794,-1.54554 -13.78153,-3.97086 -19.90077,-7.27596c-4.80937,-2.60741 -8.79852,-5.60174 -11.96744,-8.98297c-2.82456,-3.05127 -4.26322,-6.6998 -4.316,-10.94559c-0.00146,-0.91649 0.05694,-1.49529 0.1752,-1.7364c0.06299,0.02169 0.1314,0.02764 0.20524,0.01783c2.20737,-0.5786 4.43539,-1.11485 6.68406,-1.60877c-0.03254,0.09449 -0.0754,0.1678 -0.12859,0.21994c-0.78341,1.4565 -1.17699,2.90632 -1.18075,4.34946c2.83145,6.61189 8.75431,11.66372 17.76861,15.15549c10.71399,4.18278 20.46831,6.34404 29.26296,6.48377c0.87415,0.01919 1.64244,0.09 2.30488,0.21243c3.42734,0.68705 6.1402,0.12399 8.13857,-1.68918c2.11455,-1.84362 4.00248,-4.20565 5.66379,-7.0861c1.74704,-3.02708 2.83705,-6.19235 3.27005,-9.49579c-1.97084,0.09637 -3.85471,0.45168 -5.6516,1.06594c-2.83268,0.96217 -5.8243,0.95363 -8.97486,-0.02564c4.05328,-0.82368 8.02396,-1.81672 11.91204,-2.97913c2.28225,-0.69373 4.47648,-1.54108 6.58269,-2.54205c1.93684,-0.91837 3.86827,-1.82099 5.79427,-2.70786c5.20691,-2.43452 8.14273,-7.43026 8.80745,-14.98722c-0.09449,-0.03254 -0.17322,-0.05965 -0.23621,-0.08134c-2.89547,-1.20849 -5.41248,-2.33949 -7.55102,-3.39301c0.06299,0.02169 0.14173,0.04881 0.23621,0.08134c5.19941,0.45177 10.04778,0.18374 14.54512,-0.80409c0.02169,-0.06299 0.05913,-0.12056 0.11232,-0.1727c4.36342,-4.4865 8.04542,-10.37026 11.046,-17.65127c0.02169,-0.06299 0.04881,-0.14173 0.08134,-0.23621c0.2603,-0.75588 0.73794,-1.11985 1.43292,-1.0919c-0.03254,0.09449 -0.05965,0.17322 -0.08134,0.23621c0.51915,2.8915 0.32341,6.17096 -0.58723,9.83837c-0.53875,2.28058 -1.26981,4.30117 -2.19318,6.06178c-1.2988,2.44161 -2.15793,4.62948 -2.57737,6.56361c-0.03254,0.09449 -0.0754,0.1678 -0.12859,0.21994c-1.44022,1.82922 -3.38145,2.65801 -5.82368,2.48635c-0.03254,0.09449 -0.06998,0.15205 -0.11232,0.1727c-0.67746,0.33039 -1.32936,0.74003 -1.95572,1.22894c-0.03254,0.09449 -0.05965,0.17322 -0.08134,0.23621c-0.69476,3.14284 -1.59216,6.00452 -2.69219,8.58504c-0.03254,0.09449 -0.03848,0.1629 -0.01783,0.20524c0.73461,1.34511 1.80795,2.52503 3.22002,3.53976c1.78959,0.12306 3.60087,0.18312 5.43385,0.1802c5.30891,0.03148 9.06319,-3.0442 11.26283,-9.22705c0.68225,-1.87886 1.00022,-3.67179 0.95392,-5.37879c-0.10179,-4.61498 1.06091,-9.27011 3.48811,-13.96539c0.96508,-0.6541 1.99754,-1.19692 3.09737,-1.62847c3.04543,-1.17075 6.05989,-2.40501 9.04337,-3.70278c0.02169,-0.06299 0.04881,-0.14173 0.08134,-0.23621c0.20712,-0.70374 0.45115,-1.41238 0.7321,-2.12592c-0.94175,-11.28089 -4.06948,-21.4826 -9.38321,-30.60512c-1.90598,-3.26339 -3.72728,-6.56808 -5.4639,-9.91407c1.01264,-1.20141 2.06606,-2.26546 3.16025,-3.19217c0.04234,-0.02065 0.07978,-0.07822 0.11232,-0.1727z" fill-opacity="0.99608" fill="#2b2c3f"/><path d="M389.87999,372.56814c0.02169,-0.06299 0.06455,-0.13631 0.12859,-0.21994c0.65118,-0.86789 1.1454,-1.84268 1.48266,-2.92436c2.14146,-2.43326 4.1634,-5.03099 6.06582,-7.79318c3.33493,-4.87591 7.22687,-8.55595 11.67581,-11.04011c9.24642,-5.05968 19.95403,-7.15006 32.12284,-6.27114c2.12311,0.48452 4.30326,1.05915 6.54046,1.72388c7.10038,2.09285 12.84043,4.86222 17.22014,8.30811c9.20911,7.2228 15.27955,15.98938 18.21133,26.29976c2.94262,10.27888 2.83127,22.06025 -0.33407,35.34411c-2.18567,5.83536 -4.70662,10.95635 -7.56287,15.36297l0.14173,0.04881c-0.03254,0.09449 -0.06998,0.15205 -0.11232,0.1727c-1.09419,0.92671 -2.14761,1.99077 -3.16025,3.19217c1.73662,3.34599 3.55792,6.65068 5.4639,9.91407c5.31373,9.12253 8.44146,19.32423 9.38321,30.60512c-0.28095,0.71354 -0.52499,1.42218 -0.7321,2.12592c-0.03254,0.09449 -0.05965,0.17322 -0.08134,0.23621c-2.98348,1.29777 -5.99794,2.53203 -9.04337,3.70278c-1.09983,0.43155 -2.13228,0.97437 -3.09737,1.62847c-2.4272,4.69528 -3.58991,9.35041 -3.48811,13.96539c0.04631,1.70699 -0.27166,3.49992 -0.95392,5.37879c-2.19964,6.18285 -5.95392,9.25854 -11.26283,9.22705c-1.83298,0.00292 -3.64426,-0.05714 -5.43385,-0.1802c-1.41207,-1.01472 -2.48541,-2.19464 -3.22002,-3.53976c-0.02065,-0.04234 -0.0147,-0.11075 0.01783,-0.20524c1.10003,-2.58052 1.99743,-5.4422 2.69219,-8.58504c0.02169,-0.06299 0.04881,-0.14173 0.08134,-0.23621c0.62636,-0.48891 1.27826,-0.89855 1.95572,-1.22894c0.04234,-0.02065 0.07978,-0.07822 0.11232,-0.1727c2.44223,0.17165 4.38345,-0.65713 5.82368,-2.48635c0.05319,-0.05214 0.09605,-0.12546 0.12859,-0.21994c0.41944,-1.93414 1.27857,-4.12201 2.57737,-6.56361c0.92337,-1.7606 1.65443,-3.78119 2.19318,-6.06178c0.91064,-3.66741 1.10638,-6.94687 0.58723,-9.83837c0.02169,-0.06299 0.04881,-0.14173 0.08134,-0.23621c-0.69498,-0.02795 -1.17262,0.33602 -1.43292,1.0919c-0.03254,0.09449 -0.05965,0.17322 -0.08134,0.23621c-3.00058,7.28101 -6.68258,13.16477 -11.046,17.65127c-0.05319,0.05214 -0.09063,0.10971 -0.11232,0.1727c-4.49734,0.98783 -9.34571,1.25586 -14.54512,0.80409c-0.09449,-0.03254 -0.17322,-0.05965 -0.23621,-0.08134c2.13854,1.05352 4.65555,2.18452 7.55102,3.39301c0.06299,0.02169 0.14173,0.04881 0.23621,0.08134c-0.66472,7.55696 -3.60054,12.5527 -8.80745,14.98722c-1.926,0.88687 -3.85742,1.78949 -5.79427,2.70786c-2.10621,1.00097 -4.30044,1.84831 -6.58269,2.54205c-3.88808,1.16241 -7.85876,2.15545 -11.91204,2.97913c3.15056,0.97926 6.14218,0.98781 8.97486,0.02564c1.79689,-0.61426 3.68076,-0.96958 5.6516,-1.06594c-0.433,3.30344 -1.52302,6.46871 -3.27005,9.49579c-1.66131,2.88045 -3.54924,5.24249 -5.66379,7.0861c-1.99837,1.81316 -4.71123,2.37622 -8.13857,1.68918c-0.66244,-0.12243 -1.43073,-0.19324 -2.30488,-0.21243c-8.79465,-0.13973 -18.54897,-2.30099 -29.26296,-6.48377c-9.01429,-3.49177 -14.93716,-8.5436 -17.76861,-15.15549c0.00375,-1.44314 0.39733,-2.89296 1.18075,-4.34946c0.05319,-0.05214 0.09605,-0.12546 0.12859,-0.21994c-2.24867,0.49391 -4.47669,1.03017 -6.68406,1.60877c-0.07384,0.0098 -0.14225,0.00386 -0.20524,-0.01783c0.02169,-0.06299 0.04881,-0.14173 0.08134,-0.23621c1.33989,-5.52771 3.31667,-11.01225 5.93034,-16.45361c-1.90223,-4.70654 -3.31212,-9.66629 -4.22966,-14.87925c-0.02065,-0.04234 -0.06247,-0.07436 -0.12546,-0.09605c3.17974,-7.28977 6.7828,-13.71156 10.80916,-19.26535c0.05319,-0.05214 0.09605,-0.12546 0.12859,-0.21994c-0.89941,-11.30154 -2.04744,-22.49493 -3.44409,-33.58017c-0.3694,-3.12177 -0.16719,-6.52231 0.60663,-10.20161c0.07696,-0.3258 0.16968,-0.64617 0.27814,-0.96112c6.55536,-5.6341 13.96276,-9.54795 22.2222,-11.74158c0.0315,0.01085 0.06351,-0.03097 0.09605,-0.12546c-1.11757,-8.41733 -0.89598,-17.50087 0.66479,-27.2506c0.02169,-0.06299 0.04881,-0.14173 0.08134,-0.23621c-0.28492,-1.0141 -0.05403,-1.99149 0.69268,-2.93218c0.05319,-0.05214 0.09605,-0.12546 0.12859,-0.21994M396.18423,374.21068c-0.03254,0.09449 -0.05965,0.17322 -0.08134,0.23621c0.19231,2.91987 0.67559,5.71094 1.44984,8.37322c-0.01085,0.0315 0.03097,0.06351 0.12546,0.09605c-0.1168,1.1576 -0.05881,2.21686 0.17396,3.17778c0.37419,1.5733 0.90857,1.86301 1.60312,0.86914c0.02169,-0.06299 0.04881,-0.14173 0.08134,-0.23621c3.29363,-4.96059 6.73671,-9.58788 10.32923,-13.88187c-1.67718,-4.03012 -2.67147,-8.40638 -2.98289,-13.12877c-0.02065,-0.04234 -0.06247,-0.07436 -0.12546,-0.09605c-4.53675,2.84145 -8.06118,7.70496 -10.57327,14.59051M429.88482,350.62117c-0.07384,0.0098 -0.14225,0.00386 -0.20524,-0.01783c0.51248,2.50167 1.04613,4.99302 1.60095,7.47404c0.0098,0.07384 0.00386,0.14225 -0.01783,0.20524c4.70132,-1.37557 9.65586,-2.2588 14.86361,-2.64969c0.0315,0.01085 0.06351,-0.03097 0.09605,-0.12546c-3.6136,-2.08994 -7.94158,-3.84458 -12.98393,-5.26394c-0.09449,-0.03254 -0.17322,-0.05965 -0.23621,-0.08134c-1.0652,0.1264 -2.10433,0.27939 -3.11739,0.45898M425.69242,351.13271c-0.02065,-0.04234 -0.06247,-0.07436 -0.12546,-0.09605c-5.26407,0.75902 -10.06353,2.47072 -14.39838,5.13509c-0.05319,0.05214 -0.09063,0.10971 -0.11232,0.1727c0.04589,0.68518 -0.00917,1.45889 -0.16519,2.32115l0.14173,0.04881c-0.03254,0.09449 -0.05965,0.17322 -0.08134,0.23621c-0.03254,0.09449 -0.04391,0.17865 -0.0341,0.25248c-0.27302,4.16883 0.25302,7.96107 1.57812,11.37673c0.02169,-0.06299 0.05913,-0.12056 0.11232,-0.1727c4.50797,-4.19011 9.3773,-7.63926 14.60799,-10.34743c-1.13258,-2.64476 -1.64037,-5.62042 -1.52336,-8.92699M448.90079,353.10059c-0.04234,0.02065 0.0511,0.15852 0.28033,0.41361c0.72794,0.95528 1.53596,1.26877 2.42408,0.94047c-0.45011,-1.35283 -1.35158,-1.80419 -2.70441,-1.35408M441.98929,360.12694c-0.03254,0.09449 -0.06455,0.13631 -0.09605,0.12546c-3.11405,0.6539 -6.11944,1.50375 -9.01616,2.54956c-0.03254,0.09449 -0.03848,0.1629 -0.01783,0.20524c1.30653,3.16265 3.09999,6.08784 5.38037,8.77556c0.06299,0.02169 1.22226,-1.09399 3.47781,-3.34704c2.26639,-2.28455 4.12794,-4.1096 5.58464,-5.47516l1.22768,-1.10974c-0.91336,-0.31453 -1.87448,-0.59267 -2.88337,-0.83441l-0.03254,0.09449c-0.09449,-0.03254 -0.17322,-0.05965 -0.23621,-0.08134c-1.14571,-0.25363 -2.27516,-0.5545 -3.38834,-0.90261M428.88211,364.12132c-0.02065,-0.04234 -0.06247,-0.07436 -0.12546,-0.09605c-5.3623,2.16963 -10.1774,5.4613 -14.4453,9.875c-0.05319,0.05214 -0.09063,0.10971 -0.11232,0.1727c1.56121,7.23136 5.2449,13.41452 11.05107,18.54947c0.05214,0.05319 0.12546,0.09605 0.21994,0.12859c3.24002,-5.93027 6.57454,-11.828 10.00353,-17.69319c0.05319,-0.05214 0.09605,-0.12546 0.12859,-0.21994c-2.90715,-3.22063 -5.14717,-6.79282 -6.72006,-10.71657M439.83056,378.67206c-2.10996,2.44411 -4.00749,5.24322 -5.69257,8.39732c-1.71763,3.24859 -3.4608,6.41792 -5.22953,9.508c4.74514,4.84002 11.35975,8.6504 19.84384,11.43113c1.22831,0.42299 2.45766,0.74065 3.68806,0.95298c1.39872,0.23506 2.26494,-0.54116 2.59866,-2.32866c1.74744,-7.32502 2.64807,-14.23706 2.70187,-20.73611c-0.0098,-0.07384 0.00156,-0.158 0.0341,-0.25248c-6.83716,-1.01576 -12.74532,-3.29695 -17.72448,-6.84359c-0.08364,-0.06403 -0.15695,-0.1069 -0.21994,-0.12859M441.9693,374.91673c-0.06403,0.08364 -0.1069,0.15695 -0.12859,0.21994c1.88033,1.59874 4.15851,2.91173 6.83456,3.93896c2.9595,1.12485 5.70813,1.73671 8.24589,1.83557c0.07384,-0.0098 0.13787,-0.09344 0.1921,-0.25092c-1.00473,-5.98282 -2.63915,-11.67165 -4.90326,-17.0665c-0.02065,-0.04234 -0.0147,-0.11075 0.01783,-0.20524c-3.58522,3.55666 -7.00473,7.39939 -10.25853,11.52818M411.36166,378.16902c-0.02065,-0.04234 -0.06247,-0.07436 -0.12546,-0.09605c-3.19018,3.02333 -5.9413,6.92008 -8.25337,11.69024c-0.03254,0.09449 -0.05965,0.17322 -0.08134,0.23621l-0.14173,-0.04881c-0.65847,1.60521 -1.36263,3.03615 -2.11246,4.29283c3.34914,8.5869 8.12703,16.50323 14.33367,23.74897c0.89521,1.08335 1.67227,1.33333 2.33116,0.74993c0.23986,-2.94719 0.59047,-5.90909 1.05184,-8.8857l0.14173,0.04881l0.09449,0.03254c0.99324,-3.49805 2.26065,-7.02498 3.80224,-10.58081l0.09449,0.03254c0.32121,-0.52353 0.55825,-1.05843 0.71114,-1.60469c-0.26072,-0.26594 -0.52687,-0.51612 -0.79843,-0.75056c-0.08364,-0.06403 -0.15695,-0.1069 -0.21994,-0.12859c0.02169,-0.06299 0.04881,-0.14173 0.08134,-0.23621c-5.26658,-5.37189 -8.90303,-11.53878 -10.90935,-18.50066M395.02823,395.21491c0.27887,-0.50288 0.59903,-0.92108 0.96049,-1.25459c-0.79552,-1.57747 -1.39507,-3.2636 -1.79867,-5.05841c-0.02065,-0.04234 -0.06247,-0.07436 -0.12546,-0.09605c-0.19752,2.92655 0.06456,5.18345 0.78624,6.77072l0.17739,-0.36167M398.68721,400.70257c-0.78592,0.64534 -1.21819,1.74715 -1.29682,3.30543c-0.11889,1.36827 -0.31547,2.60409 -0.58974,3.70746c2.339,10.59946 8.42467,19.42414 18.25701,26.47403c0.65931,0.43843 1.31633,0.57661 1.97105,0.41454c0.08468,-0.0413 0.15414,-0.14069 0.20837,-0.29816c-0.54293,-2.61785 -0.71022,-5.40579 -0.50185,-8.36384c-0.0098,-0.07384 0.00156,-0.158 0.0341,-0.25248c-3.68056,-3.83927 -7.14941,-7.78179 -10.40656,-11.82755c-3.25715,-4.04576 -5.81567,-8.43224 -7.67556,-13.15943M427.49525,402.06222c-0.06299,-0.02169 -0.13683,-0.01189 -0.22151,0.02941c-1.04518,1.29589 -1.80022,3.07923 -2.26514,5.35001c-0.43029,1.96563 -0.76505,3.85847 -1.00429,5.67851c-0.03254,0.09449 -0.05965,0.17322 -0.08134,0.23621c-1.00513,3.63487 -1.56567,7.05293 -1.68163,10.25417c1.85759,1.76706 3.90832,3.17787 6.1522,4.23243c4.88634,2.28162 9.94392,3.75906 15.17274,4.43234c0.02169,-0.06299 0.06455,-0.13631 0.12859,-0.21994c2.96721,-3.91041 5.60455,-8.55094 7.91203,-13.9216c0.00062,-1.12715 0.25863,-2.18328 0.77402,-3.16839c0.05319,-0.05214 0.09605,-0.12546 0.12859,-0.21994c0.02169,-0.06299 0.04881,-0.14173 0.08134,-0.23621c0.25717,-0.43989 0.4986,-0.8852 0.72428,-1.33594c-6.16241,-0.00833 -12.0009,-1.878 -17.51548,-5.60902c-2.67855,-1.83839 -5.44668,-3.67241 -8.3044,-5.50204M420.01657,436.05571c-0.00104,0.10533 -0.01241,0.18949 -0.0341,0.25248c5.4739,2.51918 10.74965,3.7723 15.82725,3.75936c0.0315,0.01085 0.06351,-0.03097 0.09605,-0.12546c1.45253,-0.94423 2.73934,-2.17453 3.86044,-3.69088c0.05319,-0.05214 0.09605,-0.12546 0.12859,-0.21994c-7.20425,-1.1774 -13.37313,-3.72454 -18.50664,-7.64139c-0.08364,-0.06403 -0.15695,-0.1069 -0.21994,-0.12859c-0.70144,2.75301 -1.08532,5.35115 -1.15164,7.79442M390.58308,414.87508c-0.05214,-0.05319 -0.10971,-0.09063 -0.1727,-0.11232c-0.50662,6.48404 0.53763,12.19863 3.13276,17.14378c0.02065,0.04234 0.07822,0.07978 0.1727,0.11232c-0.03254,0.09449 -0.04391,0.17865 -0.0341,0.25248c0.05986,0.33769 0.19898,0.64982 0.41736,0.93641c-0.03254,0.09449 -0.03306,0.14715 -0.00156,0.158c1.01807,1.44273 2.00464,2.87461 2.95972,4.29564c-0.03254,0.09449 -0.03306,0.14715 -0.00156,0.158c1.22664,1.65547 2.3952,3.32617 3.50567,5.0121c0.06299,0.02169 0.12056,0.05913 0.1727,0.11232c2.78827,4.5889 7.64583,8.18173 14.57267,10.7785c1.79418,0.72355 3.41232,1.13987 4.85443,1.24895c1.61042,0.13182 3.15191,0.31036 4.62447,0.53562c8.70935,1.30818 16.03905,-0.07825 21.98913,-4.15928c-1.0723,-1.28525 -2.49219,-1.50999 -4.25967,-0.67422c-0.37022,0.15435 -0.76652,0.2821 -1.18889,0.38326c-1.19327,0.29368 -2.40667,0.49235 -3.64019,0.59602c-4.60663,-0.74086 -9.2432,-1.65056 -13.9097,-2.7291c-1.8603,-0.42925 -3.68806,-0.95298 -5.48329,-1.5712c-4.56471,-1.78333 -8.22451,-3.99486 -10.97941,-6.63461c-0.05214,-0.05319 -0.10971,-0.09063 -0.1727,-0.11232c-0.67788,-0.69143 -1.44096,-1.2889 -2.28924,-1.7924c-0.08364,-0.06403 -0.15695,-0.1069 -0.21994,-0.12859c0.02169,-0.06299 0.04881,-0.14173 0.08134,-0.23621c-0.37481,-0.44615 -0.7393,-0.87112 -1.09347,-1.27493c-0.0315,-0.01085 -0.03097,-0.06351 0.00156,-0.158c0.02169,-0.06299 0.04881,-0.14173 0.08134,-0.23621c-1.40894,-1.33072 -2.60075,-2.78043 -3.57544,-4.34914c-0.05214,-0.05319 -0.10971,-0.09063 -0.1727,-0.11232c0.02169,-0.06299 0.04881,-0.14173 0.08134,-0.23621c-0.99638,-1.50572 -1.89774,-3.03156 -2.70411,-4.57753c-0.05214,-0.05319 -0.10971,-0.09063 -0.1727,-0.11232c0.02169,-0.06299 0.04881,-0.14173 0.08134,-0.23621c-2.35151,-4.01573 -4.57056,-8.10915 -6.65718,-12.28027M458.12158,357.01578c-0.08364,-0.06403 -0.15695,-0.1069 -0.21994,-0.12859c-1.22101,-1.16031 -2.42815,-1.59363 -3.62142,-1.29995c-0.07384,0.0098 -0.07488,0.11513 -0.00313,0.31599c0.02003,1.16949 0.68476,1.59217 1.99421,1.26804c0.04234,-0.02065 0.11075,-0.0147 0.20524,0.01783c0.06299,0.02169 0.14173,0.04881 0.23621,0.08134c1.55307,0.60529 3.0762,1.04173 4.5694,1.30933c-1.21747,-0.45449 -2.27099,-0.97582 -3.16057,-1.56401M457.89883,361.95937c-0.25092,-0.1921 -0.52895,-0.30546 -0.8341,-0.34008c1.10797,6.19453 2.1808,12.74687 3.21849,19.65703c0.0098,0.07384 0.00386,0.14225 -0.01783,0.20524c3.71956,0.96383 7.1106,0.52862 10.17314,-1.30561c0.04234,-0.02065 0.07978,-0.07822 0.11232,-0.1727c-1.93039,-7.18235 -6.14773,-13.19697 -12.65201,-18.04387M466.97569,364.45101c0.02065,0.04234 0.04672,0.06893 0.07822,0.07978c0.18689,0.27574 0.54981,0.85871 1.08878,1.74892c0.07279,0.09553 0.15591,0.21223 0.24935,0.3501c1.06813,1.70658 2.169,3.82958 3.30262,6.369c1.21622,2.70879 1.86615,4.0952 1.94979,4.15923c0.54314,0.46888 0.94746,0.06205 1.21298,-1.22049c0.02169,-0.06299 0.04881,-0.14173 0.08134,-0.23621c-1.94103,-3.98006 -3.88497,-7.13322 -5.83183,-9.45948c-0.87457,-1.04101 -1.47318,-1.75799 -1.79585,-2.15095c-0.10429,-0.10637 -0.22433,-0.21817 -0.36011,-0.33539c-1.08523,-1.04309 -1.07699,-0.81126 0.02472,0.6955M476.39892,381.43584c-0.02065,-0.04234 -0.10481,-0.05371 -0.25248,-0.0341c-0.75234,0.44552 -1.17397,1.00493 -1.26491,1.67821l0.14173,0.04881c-0.03254,0.09449 -0.03848,0.1629 -0.01783,0.20524c0.0609,0.23235 0.14298,0.45438 0.24623,0.66609c-0.03254,0.09449 -0.05965,0.17322 -0.08134,0.23621c-0.03254,0.09449 -0.03848,0.1629 -0.01783,0.20524c1.26858,5.93276 2.13491,12.06169 2.59901,18.38679c0.02169,-0.06299 0.06455,-0.13631 0.12859,-0.21994c0.71417,-0.8462 1.28973,-2.0572 1.7267,-3.633c-0.15582,-6.60647 -1.2251,-12.45299 -3.20784,-17.53955M471.66339,384.13838c-0.02065,-0.04234 -0.06247,-0.07436 -0.12546,-0.09605c-3.28655,1.05249 -6.86761,1.52794 -10.74318,1.42637c-0.04234,0.02065 -0.07436,0.06247 -0.09605,0.12546c0.59779,6.65298 -0.26341,14.37127 -2.5836,23.15488l0.14173,0.04881c2.18923,0.19022 4.20293,0.02054 6.04112,-0.50904c0.04234,-0.02065 0.11075,-0.0147 0.20524,0.01783c0.06299,0.02169 0.1314,0.02764 0.20524,0.01783c3.40523,-0.27178 6.53169,-1.11517 9.37939,-2.53016c-0.08532,-4.15131 -0.18638,-8.30804 -0.30319,-12.4702c-0.02065,-0.04234 -0.06247,-0.07436 -0.12546,-0.09605c0.02169,-0.06299 0.04881,-0.14173 0.08134,-0.23621c0.02169,-0.06299 0.04881,-0.14173 0.08134,-0.23621c-0.65598,-2.90339 -1.37547,-5.77581 -2.15848,-8.61725M467.49861,428.15107c0.04234,-0.02065 0.11075,-0.0147 0.20524,0.01783c1.33343,-2.74675 2.60001,-5.65745 3.79974,-8.73209c0.02169,-0.06299 0.04881,-0.14173 0.08134,-0.23621c0.75775,-3.12115 1.36732,-6.17003 1.82868,-9.14663c0.02169,-0.06299 0.04881,-0.14173 0.08134,-0.23621c-4.815,2.21718 -10.14132,3.41276 -15.97898,3.58672c-0.04234,0.02065 -0.07436,0.06247 -0.09605,0.12546c-1.99315,6.60627 -4.7135,12.71549 -8.16106,18.32768c-0.03254,0.09449 -0.05965,0.17322 -0.08134,0.23621c6.95855,0.45865 13.06558,-0.85561 18.32109,-3.94277M463.44673,449.58488c0.0315,0.01085 0.06351,-0.03097 0.09605,-0.12546c-1.00889,-0.24174 -1.25772,-0.6445 -0.7465,-1.20829c0.24529,-0.30306 0.34342,-0.63919 0.2944,-1.00837c-0.21984,-1.20307 -0.68341,-2.26108 -1.39069,-3.17402c-1.92955,0.18105 -3.74604,0.64764 -5.44949,1.39977c-0.04234,0.02065 -0.07436,0.06247 -0.09605,0.12546c1.6123,2.07012 4.04306,3.40042 7.29228,3.9909M446.45935,436.91792c-0.10533,-0.00104 -0.18949,-0.01241 -0.25248,-0.0341c-1.00075,1.06458 -1.97001,2.14 -2.90777,3.22628c-0.06403,0.08364 -0.1069,0.15695 -0.12859,0.21994c6.22644,-0.07531 11.81328,-1.51586 16.76051,-4.32164c0.04234,-0.02065 0.07978,-0.07822 0.11232,-0.1727c-4.29648,0.91608 -8.82448,1.27682 -13.584,1.08223M434.91033,491.01772c0.0315,0.01085 0.06351,-0.03097 0.09605,-0.12546c-1.19265,-0.83347 -2.1326,-1.12193 -2.81986,-0.86538c-0.04234,0.02065 -0.07436,0.06247 -0.09605,0.12546c1.15343,0.53813 2.09339,0.82659 2.81986,0.86538M395.26586,478.15808l0.04881,-0.14173c-6.74685,-5.88165 -12.49869,-12.24856 -17.25551,-19.10072c-0.05214,-0.05319 -0.10971,-0.09063 -0.1727,-0.11232c-0.16123,1.38891 0.01627,2.61264 0.5325,3.67116c0.0098,0.07384 0.00386,0.14225 -0.01783,0.20524c-1.99149,0.05403 -3.39907,0.71428 -4.22274,1.98076c-0.0315,-0.01085 -0.07874,-0.02711 -0.14173,-0.04881c1.71451,2.38716 4.06413,4.46458 7.04887,6.23227c3.24651,1.92829 6.28704,3.3805 9.1216,4.35664c0.00563,0.49516 0.32882,0.83545 0.96957,1.02088l-0.03254,0.09449c1.49008,0.5836 2.86397,1.19764 4.12169,1.84214z" fill="#000000"/><path d="M395.31466,478.01635l-0.04881,0.14173c-1.25772,-0.6445 -2.63162,-1.25855 -4.12169,-1.84214l0.03254,-0.09449c-0.64075,-0.18542 -0.96394,-0.52572 -0.96957,-1.02088c-2.83456,-0.97614 -5.8751,-2.42835 -9.1216,-4.35664c-2.98474,-1.76768 -5.33437,-3.84511 -7.04887,-6.23227c0.06299,0.02169 0.11023,0.03796 0.14173,0.04881c0.82367,-1.26648 2.23125,-1.92673 4.22274,-1.98076c0.02169,-0.06299 0.02764,-0.1314 0.01783,-0.20524c-0.51623,-1.05853 -0.69373,-2.28225 -0.5325,-3.67116c0.06299,0.02169 0.12056,0.05913 0.1727,0.11232c4.75682,6.85216 10.50866,13.21907 17.25551,19.10072z" fill="#2c2d40"/><path d="M435.00638,490.89226c-0.03254,0.09449 -0.06455,0.13631 -0.09605,0.12546c-0.72647,-0.03879 -1.66643,-0.32725 -2.81986,-0.86538c0.02169,-0.06299 0.05371,-0.10481 0.09605,-0.12546c0.68726,-0.25655 1.62721,0.03191 2.81986,0.86538z" fill="#353849"/><path d="M446.20687,436.88382c0.06299,0.02169 0.14715,0.03306 0.25248,0.0341c4.75952,0.19459 9.28752,-0.16615 13.584,-1.08223c-0.03254,0.09449 -0.06998,0.15205 -0.11232,0.1727c-4.94723,2.80579 -10.53407,4.24634 -16.76051,4.32164c0.02169,-0.06299 0.06455,-0.13631 0.12859,-0.21994c0.93776,-1.08627 1.90702,-2.1617 2.90777,-3.22628M467.70385,428.1689c-0.09449,-0.03254 -0.1629,-0.03848 -0.20524,-0.01783c-5.25551,3.08716 -11.36254,4.40141 -18.32109,3.94277c0.02169,-0.06299 0.04881,-0.14173 0.08134,-0.23621c3.44756,-5.61219 6.16791,-11.72142 8.16106,-18.32768c0.02169,-0.06299 0.05371,-0.10481 0.09605,-0.12546c5.83765,-0.17396 11.16398,-1.36954 15.97898,-3.58672c-0.03254,0.09449 -0.05965,0.17322 -0.08134,0.23621c-0.46137,2.9766 -1.07093,6.02548 -1.82868,9.14663c-0.03254,0.09449 -0.05965,0.17322 -0.08134,0.23621c-1.19973,3.07464 -2.46631,5.98533 -3.79974,8.73209M473.65918,393.22806c0.06299,0.02169 0.10481,0.05371 0.12546,0.09605c0.11681,4.16216 0.21787,8.31889 0.30319,12.4702c-2.8477,1.41499 -5.97416,2.25838 -9.37939,2.53016c-0.07384,0.0098 -0.14225,0.00386 -0.20524,-0.01783c0.02169,-0.06299 0.06455,-0.13631 0.12859,-0.21994c3.39062,-4.1169 6.39975,-9.06978 9.0274,-14.85863M476.14644,381.40174c0.14767,-0.01961 0.23183,-0.00824 0.25248,0.0341c1.98274,5.08657 3.05202,10.93308 3.20784,17.53955c-0.43697,1.5758 -1.01253,2.7868 -1.7267,3.633c-0.06403,0.08364 -0.1069,0.15695 -0.12859,0.21994c-0.4641,-6.3251 -1.33043,-12.45403 -2.59901,-18.38679c-0.02065,-0.04234 -0.0147,-0.11075 0.01783,-0.20524c0.06299,0.02169 0.14173,0.04881 0.23621,0.08134c0.3258,0.07696 0.56462,-0.10502 0.71646,-0.54595c-0.01898,-1.27482 -0.3427,-1.56245 -0.97114,-0.86288c-0.06403,0.08364 -0.1069,0.15695 -0.12859,0.21994l-0.14173,-0.04881c0.09094,-0.67329 0.51258,-1.23269 1.26491,-1.67821M419.98247,436.30819c0.02169,-0.06299 0.03306,-0.14715 0.0341,-0.25248c0.06632,-2.44327 0.4502,-5.04141 1.15164,-7.79442c0.06299,0.02169 0.13631,0.06455 0.21994,0.12859c5.13351,3.91686 11.30239,6.46399 18.50664,7.64139c-0.03254,0.09449 -0.0754,0.1678 -0.12859,0.21994c-1.1211,1.51636 -2.40791,2.74665 -3.86044,3.69088c-0.03254,0.09449 -0.06455,0.13631 -0.09605,0.12546c-5.0776,0.01294 -10.35335,-1.24018 -15.82725,-3.75936M424.00432,413.12015c0.06299,0.02169 0.14173,0.04881 0.23621,0.08134c10.92361,4.2902 20.3466,4.80485 28.26897,1.54394c-0.03254,0.09449 -0.0754,0.1678 -0.12859,0.21994c-0.51539,0.98511 -0.7734,2.04124 -0.77402,3.16839c-2.30748,5.37066 -4.94482,10.01119 -7.91203,13.9216c-0.06403,0.08364 -0.1069,0.15695 -0.12859,0.21994c-5.22882,-0.67328 -10.2864,-2.15072 -15.17274,-4.43234c-2.24387,-1.05456 -4.29461,-2.46537 -6.1522,-4.23243c0.11596,-3.20124 0.67651,-6.6193 1.68163,-10.25417c0.02169,-0.06299 0.04881,-0.14173 0.08134,-0.23621M397.39039,404.00799c0.07863,-1.55828 0.5109,-2.66009 1.29682,-3.30543c1.85989,4.72719 4.41841,9.11366 7.67556,13.15943c3.25715,4.04576 6.726,7.98828 10.40656,11.82755c-0.03254,0.09449 -0.04391,0.17865 -0.0341,0.25248c-0.20836,2.95804 -0.04108,5.74599 0.50185,8.36384c-0.05423,0.15748 -0.12369,0.25686 -0.20837,0.29816c-0.65472,0.16207 -1.31174,0.02388 -1.97105,-0.41454c-9.83234,-7.04989 -15.91801,-15.87456 -18.25701,-26.47403c0.27428,-1.10337 0.47086,-2.33919 0.58974,-3.70746M395.98873,393.96032c-0.36146,0.33352 -0.68163,0.75171 -0.96049,1.25459l-0.17739,0.36167c-0.72168,-1.58727 -0.98376,-3.84418 -0.78624,-6.77072c0.06299,0.02169 0.10481,0.05371 0.12546,0.09605c0.4036,1.7948 1.00316,3.48094 1.79867,5.05841M402.90149,389.99942c-0.05423,0.15748 -0.10846,0.31495 -0.16269,0.47243c-0.10846,0.31495 -0.11107,0.57828 -0.00782,0.78999c3.80884,6.84278 9.09419,12.97859 15.85606,18.40742c-0.03254,0.09449 -0.05965,0.17322 -0.08134,0.23621l-0.14173,-0.04881c-0.46137,2.9766 -0.81198,5.9385 -1.05184,8.8857c-0.65889,0.58339 -1.43595,0.33341 -2.33116,-0.74993c-6.20664,-7.24575 -10.98453,-15.16207 -14.33367,-23.74897c0.74983,-1.25668 1.45399,-2.68762 2.11246,-4.29283l0.14173,0.04881M397.85088,383.02848c0.61948,1.27023 1.15427,2.58176 1.60438,3.93459c-0.69456,0.99387 -1.22893,0.70416 -1.60312,-0.86914c-0.23277,-0.96091 -0.29076,-2.02017 -0.17396,-3.17778c0.06299,0.02169 0.12056,0.05913 0.1727,0.11232z" fill="#343444"/><path d="M463.54277,449.45942c-0.03254,0.09449 -0.06455,0.13631 -0.09605,0.12546c-3.24921,-0.59048 -5.67997,-1.92078 -7.29228,-3.9909c0.02169,-0.06299 0.05371,-0.10481 0.09605,-0.12546c1.70345,-0.75213 3.51994,-1.21872 5.44949,-1.39977c0.70729,0.91294 1.17085,1.97095 1.39069,3.17402c0.04902,0.36918 -0.04912,0.7053 -0.2944,1.00837c-0.51122,0.56378 -0.26239,0.96655 0.7465,1.20829z" fill="#2c2c3f"/><path d="M471.53793,384.04233c0.06299,0.02169 0.10481,0.05371 0.12546,0.09605c0.783,2.84144 1.5025,5.71386 2.15848,8.61725c-0.03254,0.09449 -0.05965,0.17322 -0.08134,0.23621c-0.03254,0.09449 -0.05965,0.17322 -0.08134,0.23621c-2.62764,5.78885 -5.63677,10.74173 -9.0274,14.85863c-0.06403,0.08364 -0.1069,0.15695 -0.12859,0.21994c-0.09449,-0.03254 -0.1629,-0.03848 -0.20524,-0.01783c-1.83819,0.52958 -3.8519,0.69926 -6.04112,0.50904l-0.14173,-0.04881c2.32019,-8.7836 3.18139,-16.50189 2.5836,-23.15488c0.02169,-0.06299 0.05371,-0.10481 0.09605,-0.12546c3.87557,0.10157 7.45663,-0.37389 10.74318,-1.42637M424.78562,455.50687c-1.47255,-0.22526 -3.01404,-0.4038 -4.62447,-0.53562c-1.4421,-0.10908 -3.06024,-0.5254 -4.85443,-1.24895c0.02169,-0.06299 0.04881,-0.14173 0.08134,-0.23621c1.09169,-1.73787 2.06,-3.78244 2.90495,-6.13374c1.79522,0.61822 3.62299,1.14195 5.48329,1.5712c4.6665,1.07854 9.30306,1.98824 13.9097,2.7291c1.23352,-0.10367 2.44692,-0.30234 3.64019,-0.59602c0.42237,-0.10116 0.81866,-0.22891 1.18889,-0.38326c1.76748,-0.83577 3.18737,-0.61103 4.25967,0.67422c-5.95007,4.08103 -13.27978,5.46746 -21.98913,4.15928M390.41037,414.76276c0.06299,0.02169 0.12056,0.05913 0.1727,0.11232c2.08661,4.17112 4.30567,8.26455 6.65718,12.28027c-0.03254,0.09449 -0.05965,0.17322 -0.08134,0.23621c-0.80198,1.20349 -1.52188,2.62901 -2.1597,4.27656l-0.09449,-0.03254c0.02169,-0.06299 0.04881,-0.14173 0.08134,-0.23621c-0.25613,0.33456 -0.61113,0.54699 -1.06499,0.63731c-0.07384,0.0098 -0.14225,0.00386 -0.20524,-0.01783c-0.09449,-0.03254 -0.15205,-0.06998 -0.1727,-0.11232c-2.59513,-4.94515 -3.63938,-10.65974 -3.13276,-17.14378M427.27374,402.09163c0.08468,-0.0413 0.15852,-0.0511 0.22151,-0.02941c2.85772,1.82963 5.62585,3.66365 8.3044,5.50204c5.51458,3.73102 11.35307,5.60069 17.51548,5.60902c-0.22568,0.45074 -0.46711,0.89605 -0.72428,1.33594c-0.03254,0.09449 -0.05965,0.17322 -0.08134,0.23621c-7.92238,3.26091 -17.34537,2.74626 -28.26897,-1.54394c-0.09449,-0.03254 -0.17322,-0.05965 -0.23621,-0.08134c0.23923,-1.82004 0.574,-3.71288 1.00429,-5.67851c0.46491,-2.27078 1.21996,-4.05411 2.26514,-5.35001M441.84071,375.13667c0.02169,-0.06299 0.06455,-0.13631 0.12859,-0.21994c3.25379,-4.12879 6.6733,-7.97152 10.25853,-11.52818c-0.03254,0.09449 -0.03848,0.1629 -0.01783,0.20524c2.26411,5.39484 3.89854,11.08367 4.90326,17.0665c-0.05423,0.15748 -0.11826,0.24112 -0.1921,0.25092c-2.53776,-0.09886 -5.28639,-0.71072 -8.24589,-1.83557c-2.67605,-1.02724 -4.95423,-2.34023 -6.83456,-3.93896M441.89324,360.2524c0.0315,0.01085 0.06351,-0.03097 0.09605,-0.12546c1.11318,0.34811 2.24262,0.64898 3.38834,0.90261c0.06299,0.02169 0.14173,0.04881 0.23621,0.08134l0.03254,-0.09449c1.00889,0.24174 1.97001,0.51987 2.88337,0.83441l-1.22768,1.10974c-1.4567,1.36556 -3.31825,3.19061 -5.58464,5.47516c-2.25555,2.25305 -3.41482,3.36873 -3.47781,3.34704c-2.28038,-2.68772 -4.07383,-5.61291 -5.38037,-8.77556c-0.02065,-0.04234 -0.0147,-0.11075 0.01783,-0.20524c2.89672,-1.04581 5.9021,-1.89566 9.01616,-2.54956z" fill="#475c81"/><path d="M475.1703,384.2363c0.02169,-0.06299 0.04881,-0.14173 0.08134,-0.23621c-0.10325,-0.21171 -0.18532,-0.43374 -0.24623,-0.66609c-0.02065,-0.04234 -0.0147,-0.11075 0.01783,-0.20524c0.02169,-0.06299 0.06455,-0.13631 0.12859,-0.21994c0.62844,-0.69957 0.95215,-0.41194 0.97114,0.86288c-0.15184,0.44093 -0.39066,0.62292 -0.71646,0.54595c-0.09449,-0.03254 -0.17322,-0.05965 -0.23621,-0.08134z" fill="#425574"/><path d="M467.21503,364.21636l0.04724,0.01627c-0.23903,-0.32893 -0.3428,-0.48797 -0.3113,-0.47712c0.13578,0.11722 0.25582,0.22902 0.36011,0.33539c0.32267,0.39296 0.92129,1.10994 1.79585,2.15095c1.94686,2.32626 3.89081,5.47942 5.83183,9.45948c-0.03254,0.09449 -0.05965,0.17322 -0.08134,0.23621c-0.26552,1.28254 -0.66984,1.68937 -1.21298,1.22049c-0.08364,-0.06403 -0.73357,-1.45044 -1.94979,-4.15923c-1.13362,-2.53942 -2.2345,-4.66242 -3.30262,-6.369l-1.07251,-1.79616l-0.09292,-0.19053c-0.0315,-0.01085 -0.12546,-0.09605 -0.28189,-0.25561l0.23621,0.08134c-0.0413,-0.08468 -0.08802,-0.15362 -0.14016,-0.2068c-0.57046,-0.90105 -0.51237,-0.91628 0.17427,-0.04568z" fill="#415476"/><path d="M467.26227,364.23263l-0.04724,-0.01627c-0.68664,-0.8706 -0.74473,-0.85537 -0.17427,0.04568c0.05214,0.05319 0.09887,0.12212 0.14016,0.2068l-0.23621,-0.08134c0.15643,0.15956 0.2504,0.24476 0.28189,0.25561l0.09292,0.19053l1.07251,1.79616c-0.09344,-0.13787 -0.17656,-0.25457 -0.24935,-0.3501c-0.53896,-0.89021 -0.90189,-1.47318 -1.08878,-1.74892c-0.0315,-0.01085 -0.05757,-0.03744 -0.07822,-0.07978c-1.10171,-1.50676 -1.10995,-1.73859 -0.02472,-0.6955c-0.0315,-0.01085 0.07227,0.14819 0.3113,0.47712z" fill="#415370"/><path d="M457.06472,361.61928c0.30515,0.03462 0.58318,0.14798 0.8341,0.34008c6.50428,4.8469 10.72161,10.86153 12.65201,18.04387c-0.03254,0.09449 -0.06998,0.15205 -0.11232,0.1727c-3.06253,1.83423 -6.45358,2.26944 -10.17314,1.30561c0.02169,-0.06299 0.02764,-0.1314 0.01783,-0.20524c-1.03768,-6.91016 -2.11051,-13.4625 -3.21849,-19.65703z" fill="#465c81"/><path d="M457.90163,356.88719c0.06299,0.02169 0.13631,0.06455 0.21994,0.12859c0.88958,0.58819 1.94311,1.10952 3.16057,1.56401c-1.4932,-0.2676 -3.01634,-0.70405 -4.5694,-1.30933c-0.09449,-0.03254 -0.17322,-0.05965 -0.23621,-0.08134c-0.09449,-0.03254 -0.1629,-0.03848 -0.20524,-0.01783c-1.30945,0.32413 -1.97418,-0.09855 -1.99421,-1.26804c-0.07175,-0.20086 -0.07071,-0.30619 0.00313,-0.31599c1.19327,-0.29368 2.40041,0.13964 3.62142,1.29995M449.18112,353.5142c-0.22923,-0.25509 -0.32267,-0.39296 -0.28033,-0.41361c1.35283,-0.45011 2.2543,0.00125 2.70441,1.35408c-0.88812,0.3283 -1.69615,0.01481 -2.42408,-0.94047z" fill="#435878"/><path d="M403.62117,437.0153c-0.03254,0.09449 -0.03306,0.14715 -0.00156,0.158c0.35416,0.4038 0.71865,0.82878 1.09347,1.27493c-0.03254,0.09449 -0.05965,0.17322 -0.08134,0.23621c-0.03254,0.09449 -0.03306,0.14715 -0.00156,0.158c0.80177,0.94548 1.63869,1.53314 2.51075,1.76299c0.06299,0.02169 0.12056,0.05913 0.1727,0.11232c2.75489,2.63975 6.41469,4.85128 10.97941,6.63461c-0.84494,2.35129 -1.81326,4.39587 -2.90495,6.13374c-0.03254,0.09449 -0.05965,0.17322 -0.08134,0.23621c-6.92685,-2.59677 -11.78441,-6.18961 -14.57267,-10.7785c-0.05214,-0.05319 -0.10971,-0.09063 -0.1727,-0.11232c0.02169,-0.06299 0.04881,-0.14173 0.08134,-0.23621c1.08084,-1.70637 2.07367,-3.56636 2.97847,-5.57996M394.90472,431.63559l0.09449,0.03254c0.63783,-1.64755 1.35773,-3.07307 2.1597,-4.27656c0.06299,0.02169 0.12056,0.05913 0.1727,0.11232c0.80636,1.54597 1.70773,3.07182 2.70411,4.57753c-0.03254,0.09449 -0.05965,0.17322 -0.08134,0.23621c-1.12006,1.41103 -2.05427,3.20312 -2.80264,5.37629l-0.09449,-0.03254c-0.95508,-1.42103 -1.94165,-2.85291 -2.95972,-4.29564c-0.0315,-0.01085 -0.03097,-0.06351 0.00156,-0.158c0.02169,-0.06299 0.05913,-0.12056 0.11232,-0.1727c0.33977,-0.27053 0.57087,-0.73701 0.69331,-1.39945M411.0328,358.71441c0.44156,-0.97531 1.01733,-1.6754 1.72733,-2.10027c0.12702,-0.06195 0.26979,-0.11847 0.42831,-0.16957c3.18017,-0.9482 6.58206,-1.4149 10.20567,-1.40009c-3.39146,2.07326 -6.73672,4.26813 -10.03578,6.58459c-0.14872,0.12494 -0.38055,0.13318 -0.6955,0.02472c-1.35429,-0.46638 -1.89326,-1.35658 -1.61689,-2.67062l-0.09449,-0.03254c0.02169,-0.06299 0.04881,-0.14173 0.08134,-0.23621M435.56928,354.21692c-0.03254,0.09449 -0.05965,0.17322 -0.08134,0.23621c-1.62043,1.94332 -2.94041,1.73537 -3.95994,-0.62385c-0.02065,-0.04234 -0.0147,-0.11075 0.01783,-0.20524c-0.2359,-0.64492 -0.07321,-1.11735 0.48807,-1.41728c1.92704,-0.9922 3.18685,-0.55837 3.77942,1.30151c-0.11826,0.24112 -0.19961,0.47733 -0.24403,0.70864M401.38561,367.54663c0.06299,0.02169 0.11566,0.02221 0.158,0.00156c1.82755,-2.64706 3.78087,-3.10176 5.85997,-1.36411c-0.03254,0.09449 -0.05965,0.17322 -0.08134,0.23621c-0.03254,0.09449 -0.05965,0.17322 -0.08134,0.23621l0.09449,0.03254c-0.20503,0.49308 -0.18751,0.85141 0.05256,1.07501c-0.29743,0.24988 -0.5861,0.67892 -0.86601,1.28713l-0.09449,-0.03254c-1.51865,1.23853 -2.88243,2.79463 -4.09133,4.66828c-0.0315,-0.01085 -0.07874,-0.02711 -0.14173,-0.04881c-0.84494,2.35129 -2.0355,3.96704 -3.57166,4.84723c-0.13787,0.09344 -0.04182,-0.03202 0.28815,-0.37638c0.15956,-0.15643 0.29357,-0.39213 0.40203,-0.70708c0.02169,-0.06299 0.04881,-0.14173 0.08134,-0.23621c0.64262,-3.19603 1.30641,-6.40238 1.99137,-9.61906z" fill="#8fbbbe"/><path d="M404.63173,438.68444c0.06299,0.02169 0.13631,0.06455 0.21994,0.12859c0.84828,0.5035 1.61136,1.10097 2.28924,1.7924c-0.87206,-0.22985 -1.70898,-0.81751 -2.51075,-1.76299c-0.0315,-0.01085 -0.03097,-0.06351 0.00156,-0.158z" fill="#94c3c7"/><path d="M394.98607,431.39938c-0.03254,0.09449 -0.05965,0.17322 -0.08134,0.23621c-0.12243,0.66244 -0.35354,1.12892 -0.69331,1.39945c-0.05319,0.05214 -0.09063,0.10971 -0.11232,0.1727c-0.21838,-0.28658 -0.3575,-0.59872 -0.41736,-0.93641c-0.0098,-0.07384 0.00156,-0.158 0.0341,-0.25248c0.06299,0.02169 0.1314,0.02764 0.20524,0.01783c0.45386,-0.09031 0.80886,-0.30275 1.06499,-0.63731M399.95437,432.31763c0.06299,0.02169 0.12056,0.05913 0.1727,0.11232c0.97468,1.56871 2.1665,3.01842 3.57544,4.34914c-0.03254,0.09449 -0.05965,0.17322 -0.08134,0.23621c-0.9048,2.0136 -1.89763,3.87359 -2.97847,5.57996c-0.03254,0.09449 -0.05965,0.17322 -0.08134,0.23621c-1.11047,-1.68593 -2.27902,-3.35663 -3.50567,-5.0121c-0.0315,-0.01085 -0.03097,-0.06351 0.00156,-0.158l0.09449,0.03254c0.74837,-2.17317 1.68258,-3.96526 2.80264,-5.37629M425.56696,351.03666c0.06299,0.02169 0.10481,0.05371 0.12546,0.09605c-0.11701,3.30657 0.39078,6.28224 1.52336,8.92699c-5.23069,2.70817 -10.10002,6.15732 -14.60799,10.34743c-0.05319,0.05214 -0.09063,0.10971 -0.11232,0.1727c-1.3251,-3.41566 -1.85114,-7.2079 -1.57812,-11.37673c-0.0098,-0.07384 0.00156,-0.158 0.0341,-0.25248l0.09449,0.03254c-0.27636,1.31404 0.2626,2.20424 1.61689,2.67062c0.31495,0.10846 0.54678,0.10022 0.6955,-0.02472c3.29906,-2.31646 6.64432,-4.51133 10.03578,-6.58459c-3.62361,-0.0148 -7.0255,0.4519 -10.20567,1.40009c-0.15852,0.0511 -0.30129,0.10763 -0.42831,0.16957c-0.71,0.42487 -1.28577,1.12496 -1.72733,2.10027l-0.14173,-0.04881c0.15601,-0.86226 0.21108,-1.63597 0.16519,-2.32115c0.02169,-0.06299 0.05913,-0.12056 0.11232,-0.1727c4.33485,-2.66437 9.13431,-4.37607 14.39838,-5.13509z" fill="#475d81"/><path d="M422.40961,397.03448c0.27157,0.23444 0.53771,0.48463 0.79843,0.75056c-0.15289,0.54626 -0.38993,1.08116 -0.71114,1.60469l-0.09449,-0.03254c0.02169,-0.06299 0.04881,-0.14173 0.08134,-0.23621c0.09866,-0.38879 0.23423,-0.78248 0.40672,-1.18107c-0.26072,-0.26594 -0.50027,-0.5422 -0.71865,-0.82878c-0.02065,-0.04234 -0.0147,-0.11075 0.01783,-0.20524c0.06299,0.02169 0.13631,0.06455 0.21994,0.12859z" fill="#364461"/><path d="M411.2362,378.07297c0.06299,0.02169 0.10481,0.05371 0.12546,0.09605c2.00632,6.96188 5.64276,13.12877 10.90935,18.50066c-0.03254,0.09449 -0.05965,0.17322 -0.08134,0.23621c-0.03254,0.09449 -0.03848,0.1629 -0.01783,0.20524c0.21838,0.28658 0.45793,0.56284 0.71865,0.82878c-0.17249,0.39859 -0.30807,0.79228 -0.40672,1.18107c-0.03254,0.09449 -0.05965,0.17322 -0.08134,0.23621c-1.54159,3.55582 -2.809,7.08276 -3.80224,10.58081l-0.09449,-0.03254c0.02169,-0.06299 0.04881,-0.14173 0.08134,-0.23621c-6.76187,-5.42883 -12.04722,-11.56464 -15.85606,-18.40742c-0.10325,-0.21171 -0.10064,-0.47503 0.00782,-0.78999c0.05423,-0.15748 0.10846,-0.31495 0.16269,-0.47243c0.02169,-0.06299 0.04881,-0.14173 0.08134,-0.23621c2.31207,-4.77016 5.06319,-8.66691 8.25337,-11.69024M434.13798,387.06938c1.68509,-3.15411 3.58261,-5.95321 5.69257,-8.39732c0.06299,0.02169 0.13631,0.06455 0.21994,0.12859c4.97916,3.54663 10.88732,5.82783 17.72448,6.84359c-0.03254,0.09449 -0.04391,0.17865 -0.0341,0.25248c-0.0538,6.49905 -0.95442,13.41109 -2.70187,20.73611c-0.33372,1.78751 -1.19994,2.56373 -2.59866,2.32866c-1.2304,-0.21233 -2.45975,-0.52999 -3.68806,-0.95298c-8.48409,-2.78073 -15.0987,-6.59111 -19.84384,-11.43113c1.76873,-3.09007 3.5119,-6.2594 5.22953,-9.508M428.75665,364.02527c0.06299,0.02169 0.10481,0.05371 0.12546,0.09605c1.57289,3.92375 3.81291,7.49594 6.72006,10.71657c-0.03254,0.09449 -0.0754,0.1678 -0.12859,0.21994c-3.429,5.86519 -6.76351,11.76293 -10.00353,17.69319c-0.09449,-0.03254 -0.1678,-0.0754 -0.21994,-0.12859c-5.80617,-5.13495 -9.48986,-11.3181 -11.05107,-18.54947c0.02169,-0.06299 0.05913,-0.12056 0.11232,-0.1727c4.2679,-4.41371 9.083,-7.70538 14.4453,-9.875z" fill="#475d82"/><path d="M429.67958,350.60334c0.06299,0.02169 0.1314,0.02764 0.20524,0.01783c1.01306,-0.17959 2.05219,-0.33258 3.11739,-0.45898c0.06299,0.02169 0.14173,0.04881 0.23621,0.08134c5.04235,1.41936 9.37033,3.174 12.98393,5.26394c-0.03254,0.09449 -0.06455,0.13631 -0.09605,0.12546c-5.20775,0.39088 -10.16229,1.27411 -14.86361,2.64969c0.02169,-0.06299 0.02764,-0.1314 0.01783,-0.20524c-0.55482,-2.48102 -1.08847,-4.97237 -1.60095,-7.47404M435.48793,354.45314c0.02169,-0.06299 0.04881,-0.14173 0.08134,-0.23621c0.04443,-0.23131 0.12577,-0.46753 0.24403,-0.70864c-0.59257,-1.85988 -1.85238,-2.29372 -3.77942,-1.30151c-0.56128,0.29993 -0.72397,0.77236 -0.48807,1.41728c-0.03254,0.09449 -0.03848,0.1629 -0.01783,0.20524c1.01953,2.35921 2.33951,2.56716 3.95994,0.62385z" fill="#455a7e"/><path d="M396.10289,374.44689c0.02169,-0.06299 0.04881,-0.14173 0.08134,-0.23621c2.51209,-6.88555 6.03651,-11.74905 10.57327,-14.59051c0.06299,0.02169 0.10481,0.05371 0.12546,0.09605c0.31141,4.72239 1.30571,9.09865 2.98289,13.12877c-3.59252,4.29398 -7.0356,8.92127 -10.32923,13.88187c-0.03254,0.09449 -0.05965,0.17322 -0.08134,0.23621c-0.45011,-1.35283 -0.98491,-2.66436 -1.60438,-3.93459c-0.05214,-0.05319 -0.10971,-0.09063 -0.1727,-0.11232c-0.09449,-0.03254 -0.13631,-0.06455 -0.12546,-0.09605c-0.77424,-2.66228 -1.25752,-5.45335 -1.44984,-8.37322M401.54361,367.54819c-0.04234,0.02065 -0.09501,0.02013 -0.158,-0.00156c-0.68496,3.21668 -1.34875,6.42303 -1.99137,9.61906c-0.03254,0.09449 -0.05965,0.17322 -0.08134,0.23621c-0.10846,0.31495 -0.24247,0.55064 -0.40203,0.70708c-0.32997,0.34436 -0.42602,0.46982 -0.28815,0.37638c1.53617,-0.8802 2.72672,-2.49594 3.57166,-4.84723c0.06299,0.02169 0.11023,0.03796 0.14173,0.04881c1.20891,-1.87365 2.57269,-3.42974 4.09133,-4.66828l0.09449,0.03254c0.27991,-0.60821 0.56858,-1.03725 0.86601,-1.28713c-0.24007,-0.22359 -0.25759,-0.58193 -0.05256,-1.07501l-0.09449,-0.03254c0.02169,-0.06299 0.04881,-0.14173 0.08134,-0.23621c0.02169,-0.06299 0.04881,-0.14173 0.08134,-0.23621c-2.0791,-1.73765 -4.03242,-1.28295 -5.85997,1.36411z" fill="#475c80"/><path d="M715.8046,391.8021c-0.07161,0.02111 -0.14321,0.04223 -0.21482,0.06334c-0.06558,-0.01195 -0.11778,-0.00438 -0.1566,0.02271c-4.32588,1.05653 -7.25275,1.87263 -8.7806,2.4483c-2.39317,0.86211 -4.75796,2.49806 -7.09435,4.90786c-1.83445,1.88633 -3.56316,3.84317 -5.18615,5.87052c-1.61696,1.99429 -2.79825,3.82882 -3.54387,5.5036c-0.74562,1.67478 -0.4286,4.39728 0.95107,8.1675c1.1127,3.00415 2.19568,5.14879 3.24894,6.43395c3.0731,-0.87486 6.89199,-1.10137 11.45668,-0.67954c6.36554,0.57918 10.85416,2.62699 13.46586,6.14344c2.17743,2.92486 3.32894,5.90191 3.45455,8.93117c0.14635,3.10136 0.83815,5.53344 2.07541,7.29624c2.28716,3.25232 4.18088,5.59595 5.68116,7.03089c1.82483,1.69906 3.70459,2.72486 5.63927,3.0774c-2.49757,0.87725 -5.92361,0.71414 -10.27811,-0.48931c-4.02659,-1.1437 -6.98509,-2.57106 -8.87551,-4.28206c-1.13425,-1.02661 -1.2321,1.09077 -0.29355,6.35211c1.05697,5.72705 3.08128,11.63037 6.07293,17.70996c9.0104,18.41606 22.66062,29.68341 40.95066,33.80205c-1.35452,0.36811 -3.12761,0.5233 -5.31929,0.46555c-4.44291,-0.1605 -8.82284,-1.31735 -13.1398,-3.47053c-5.2197,-2.59099 -10.71871,-6.53108 -16.49702,-11.82027c-5.80508,-5.32823 -9.41854,-9.76173 -10.84038,-13.30049c-2.44891,-6.08318 -4.00557,-10.09064 -4.66997,-12.02236c-1.69947,-4.99005 -2.6043,-9.13494 -2.71449,-12.43469c-0.37577,-4.81716 -0.6034,-8.30913 -0.68289,-10.4759c-0.16906,-3.72043 0.1932,-6.91701 1.08679,-9.58972c0.47588,-0.93818 0.18684,-1.86201 -0.86711,-2.7715c-1.35174,-1.13456 -3.54944,-1.15924 -6.5931,-0.07404c-2.02239,0.31474 -4.5049,1.10932 -7.44752,2.38375c-2.94263,1.27443 -4.9423,2.20825 -5.99904,2.80144c-1.0835,0.55415 -1.87552,0.71729 -2.37608,0.48943c-0.53335,-0.23384 -1.48927,-0.93756 -2.86778,-2.11117c-1.41129,-1.17958 -3.26151,-3.66902 -5.55063,-7.46831c-2.20883,-3.68217 -3.4564,-6.31802 -3.74272,-7.90754c-0.28029,-1.62258 -0.2898,-4.54527 -0.02851,-8.76806c0.29743,-4.42118 0.7517,-7.37893 1.36279,-8.87325c0.56023,-1.40109 1.21379,-2.47771 1.96069,-3.22985c0.37345,-0.37607 1.13639,-0.93739 2.28883,-1.68396c1.49576,-0.95731 5.26124,-2.93588 11.29642,-5.93571c6.90386,-3.49064 11.47573,-5.33934 13.71561,-5.54612c2.20709,-0.21275 3.97984,-0.1801 5.31825,0.09795c1.31165,0.23901 2.55632,1.21741 3.73402,2.9352M727.00601,292.12228l1.22446,3.04159c1.09265,2.55637 2.32082,5.20576 3.68449,7.94817c-2.32318,4.94029 -3.98278,9.02784 -4.97879,12.26267c-1.85414,6.08482 -2.32729,11.19141 -1.41944,15.31977c0.92858,4.20047 3.48659,10.1498 7.67401,17.84798c3.35838,6.11226 6.15003,10.68639 8.37496,13.72239c-0.51145,2.43488 -1.6655,7.28074 -3.46217,14.53758c-1.52692,6.52024 -2.34131,10.71057 -2.44316,12.57099c-0.09652,2.20302 -0.7338,4.9566 -1.91184,8.26075c-1.06426,3.05157 -2.24259,5.70656 -3.535,7.96497l-2.3123,-7.39066c0.00603,-0.03307 0.02543,-0.04661 0.05822,-0.04063c0.00365,-0.02002 0.00666,-0.03655 0.00904,-0.0496l0.04919,0.00896c1.2047,-1.59113 2.15575,-3.09182 2.85317,-4.50208c0.67065,-1.4493 1.32491,-2.90159 1.96277,-4.35686c0.60507,-1.46125 1.09137,-3.20037 1.45891,-5.21735c0.37356,-2.05005 0.54974,-4.59727 0.52853,-7.64166c-0.02121,-3.04439 -0.453,-5.78781 -1.29538,-8.23024c-0.83635,-2.4755 -2.84206,-6.34272 -6.01713,-11.60166c-3.20786,-5.26491 -5.95137,-9.26658 -8.23053,-12.00499c-0.38122,-3.48579 -0.74592,-8.64257 -1.09412,-15.47034c-0.34217,-6.86083 -0.15876,-12.51559 0.55025,-16.96426c0.68224,-4.48772 1.58995,-8.35357 2.72316,-11.59756c1.10041,-3.24996 2.94998,-6.05594 5.5487,-8.41794M783.0568,316.68465c-2.92605,3.60055 -4.966,6.14978 -6.11982,7.64769l-0.38254,1.26266c-0.21355,0.98598 -0.27785,1.89667 -0.19292,2.73207c0.04079,0.51988 -0.28932,3.26111 -0.99033,8.22369c-0.72175,4.89047 -1.0047,7.93069 -0.84885,9.12063c0.28829,2.13649 0.95251,6.57918 1.99268,13.32806c0.13244,0.94654 -0.55571,3.79334 -2.06444,8.54041c-1.77581,5.65497 -2.75242,8.87625 -2.92981,9.66384c-0.5476,2.63327 -1.11762,5.29662 -1.71005,7.99005c-0.13858,0.7605 -0.37756,1.7931 -0.71694,3.09778c-0.33938,1.30469 -0.57535,2.32075 -0.7079,3.04818c-0.05411,-1.37639 -0.19982,-4.01643 -0.43713,-7.92011c-0.28817,-3.81047 -0.47038,-6.06428 -0.54662,-6.76144l1.25678,0.07528c0.51247,-17.50067 0.41015,-28.28074 -0.30698,-32.34018c-0.3008,-5.04264 -0.8078,-9.04672 -1.52098,-12.01223c-0.41146,-1.64649 -0.30752,-4.63391 0.3118,-8.96227c0.60796,-4.6379 1.4293,-7.75082 2.46402,-9.33876c1.03471,-1.58794 3.23867,-4.94428 6.61186,-10.06902c3.34643,-5.16378 5.20903,-7.76241 5.58781,-7.79588l-0.31875,7.88487c-0.17102,5.40079 0.07869,9.05051 0.74911,10.94917c0.368,0.9553 0.64134,1.50048 0.82001,1.63553M751.97391,442.3611c0.86207,-1.75605 2.39804,-3.49179 4.6079,-5.20722c2.20987,-1.71543 4.00747,-3.0277 5.3928,-3.9368c-1.03807,1.7923 -1.94469,4.25766 -2.71986,7.39608c-0.80193,3.09937 -1.1314,6.30192 -0.98842,9.60765c0.12225,3.23362 1.55452,5.97145 4.29681,8.21348c2.7095,2.23606 5.06936,4.06678 7.07959,5.49215c1.98346,1.38633 2.72323,2.06775 2.21931,2.04425c-1.72055,-0.04022 -3.17408,-0.15135 -4.36058,-0.3334c-1.88115,-0.27446 -3.82753,-0.74871 -5.83914,-1.42275c-4.0172,-1.38113 -7.40622,-4.62926 -10.16706,-9.74439c-1.01039,-1.89228 -1.39873,-3.94451 -1.16502,-6.1567c0.20092,-2.21816 0.7488,-4.20228 1.64366,-5.95235M790.19311,373.73944c-3.53159,2.08952 -6.32352,6.53443 -8.3758,13.33473c-1.08639,3.7308 -2.18692,8.65474 -3.30157,14.77182c-0.98373,-0.17926 -2.64281,1.20949 -4.97724,4.16627c-2.55261,3.22448 -3.83435,6.1681 -3.84524,8.83084c-0.01691,2.69581 1.08043,5.13347 3.29204,7.31296c1.25603,1.28794 4.58821,3.82537 9.99655,7.61228c-1.18257,0.91189 -2.36044,1.70507 -3.53362,2.37953c-2.28078,1.36087 -4.28411,1.8499 -6.00999,1.46708c-1.88984,-0.4127 -4.67158,-3.08897 -8.34524,-8.0288c-3.42674,-4.62153 -5.27724,-7.76012 -5.5515,-9.41577c-0.19733,-1.33416 0.89364,-3.5097 3.27291,-6.52663c2.23269,-2.77033 4.89167,-5.46298 7.97693,-8.07795c2.52376,-2.13652 4.3144,-4.52619 5.37194,-7.16903c0.74295,-1.84608 1.0576,-3.47983 0.94393,-4.90123c-0.34773,-3.85548 0.11592,-7.05066 1.39095,-9.58554c0.69139,-1.37719 2.85306,-2.8281 6.48499,-4.35272c1.79355,-0.73223 3.5302,-1.33818 5.20996,-1.81784z" fill="#2c2d41"/><path d="M806.82389,322.91165c0.26558,1.51741 0.27821,2.74959 0.03789,3.69653c-0.26708,0.9079 -1.40115,7.03853 -3.4022,18.39187c-1.96224,11.32625 -2.94811,17.94509 -2.95761,19.8565c0.53462,1.15648 3.98152,4.55181 10.34069,10.18599c3.32245,2.96269 7.41613,6.52713 12.28104,10.6933c0.71932,1.25846 1.20163,4.09649 1.44693,8.51408c0.13302,2.24485 0.22085,4.73769 0.2635,7.47852c0.12908,1.15091 -0.27443,5.68941 -1.21053,13.61552c0.60959,0.931 1.7384,3.28898 3.38642,7.07394c1.62125,3.74592 2.8577,7.55837 3.70935,11.43735c0.79209,3.83397 1.23587,7.34824 1.33136,10.54282c0.03592,3.14956 -0.46527,7.29447 -1.50357,12.43473c-1.03228,5.10719 -2.13107,9.09196 -3.29636,11.95431c-1.19206,2.8233 -2.98914,6.27087 -5.39123,10.34269c-2.40209,4.07183 -5.29738,7.96837 -8.68587,11.68964c-3.38849,3.72126 -7.57434,7.26307 -12.55754,10.62541c-5.016,3.35637 -9.6053,5.76559 -13.76792,7.22767c-4.18938,1.42304 -8.43862,2.15191 -12.74769,2.18661c-4.33584,-0.00434 -7.57684,-0.2533 -9.72298,-0.74687c-18.29004,-4.11864 -31.94026,-15.38599 -40.95066,-33.80205c-2.99165,-6.07959 -5.01596,-11.98291 -6.07293,-17.70996c-0.93855,-5.26135 -0.8407,-7.37872 0.29355,-6.35211c1.89042,1.71101 4.84892,3.13836 8.87551,4.28206c4.3545,1.20345 7.78054,1.36656 10.27811,0.48931c-1.93468,-0.35255 -3.81443,-1.37835 -5.63927,-3.0774c-1.50028,-1.43494 -3.394,-3.77857 -5.68116,-7.03089c-1.23726,-1.7628 -1.92906,-4.19488 -2.07541,-7.29624c-0.12561,-3.02925 -1.27712,-6.00631 -3.45455,-8.93117c-2.61171,-3.51644 -7.10033,-5.56426 -13.46586,-6.14344c-4.56469,-0.42184 -8.38358,-0.19533 -11.45668,0.67954c-1.05326,-1.28515 -2.13624,-3.4298 -3.24894,-6.43395c-1.37967,-3.77022 -1.69669,-6.49272 -0.95107,-8.1675c0.74562,-1.67478 1.92691,-3.50931 3.54387,-5.5036c1.62298,-2.02735 3.3517,-3.98419 5.18615,-5.87052c2.33639,-2.4098 4.70118,-4.04575 7.09435,-4.90786c1.52786,-0.57567 4.45473,-1.39177 8.7806,-2.4483c0.03882,-0.02709 0.09102,-0.03466 0.1566,-0.02271c0.07161,-0.02111 0.14321,-0.04223 0.21482,-0.06334l6.4412,4.81213c1.6114,1.01106 2.9866,1.55205 4.1256,1.62295l1.59709,-0.11893c-0.00238,0.01305 -0.00539,0.02958 -0.00904,0.0496c-0.03279,-0.00598 -0.0522,0.00757 -0.05822,0.04063l2.3123,7.39066c1.29241,-2.25841 2.47074,-4.9134 3.535,-7.96497c1.17804,-3.30414 1.81532,-6.05773 1.91184,-8.26075c0.10185,-1.86042 0.91623,-6.05075 2.44316,-12.57099c1.79667,-7.25684 2.95072,-12.1027 3.46217,-14.53758c-2.22493,-3.03601 -5.01659,-7.61014 -8.37496,-13.72239c-4.18742,-7.69818 -6.74543,-13.64751 -7.67401,-17.84798c-0.90784,-4.12837 -0.4347,-9.23496 1.41944,-15.31977c0.99601,-3.23482 2.65561,-7.32238 4.97879,-12.26267c-1.36367,-2.74241 -2.59184,-5.3918 -3.68449,-7.94817l-1.22446,-3.04159c1.45948,-1.21067 3.3832,-2.19249 5.77118,-2.94545c2.41878,-0.72012 5.22416,-1.1484 8.41614,-1.28484c3.22077,-0.12452 6.02378,-0.07495 8.40901,0.14872c4.25149,0.46726 6.87102,2.17447 7.85858,5.12165c0.18458,1.77596 0.17902,4.78131 -0.01667,9.01605c-0.09652,2.20302 -0.23254,4.8088 -0.40808,7.81734c-0.05029,1.39153 -0.00898,4.04671 0.12393,7.96553c0.11425,3.36975 0.22751,5.81598 0.3398,7.33869c0.02373,0.23292 0.03375,0.45681 0.03007,0.67166c0.14241,2.00742 0.53532,5.61491 1.17876,10.82248c0.02677,0.03904 0.57663,3.43599 1.64959,10.19085c0.45757,2.50897 2.80551,12.40003 7.04381,29.67319c0.07624,0.69716 0.25845,2.95097 0.54662,6.76144c0.23731,3.90369 0.38301,6.54373 0.43713,7.92011c0.13255,-0.72744 0.36852,-1.7435 0.7079,-3.04818c0.33938,-1.30469 0.57836,-2.33728 0.71694,-3.09778c0.59244,-2.69343 1.16246,-5.35678 1.71005,-7.99005c0.1774,-0.78759 1.154,-4.00887 2.92981,-9.66384c1.50873,-4.74707 2.19688,-7.59387 2.06444,-8.54041c-1.04017,-6.74888 -1.7044,-11.19157 -1.99268,-13.32806c-0.15585,-1.18995 0.1271,-4.23016 0.84885,-9.12063c0.70101,-4.96258 1.03112,-7.70381 0.99033,-8.22369c-0.08493,-0.83539 -0.02063,-1.74608 0.19292,-2.73207l0.38254,-1.26266c1.15383,-1.49791 3.19377,-4.04713 6.11982,-7.64769c-0.17867,-0.13505 -0.45201,-0.68022 -0.82001,-1.63553c-0.67042,-1.89866 -0.92013,-5.54838 -0.74911,-10.94917l0.31875,-7.88487c0.9236,-1.16406 2.05025,-1.67619 3.37998,-1.53637c1.17179,0.07688 2.17424,0.61826 3.00734,1.62415c1.11281,1.33017 3.71751,4.60619 7.81409,9.82807c4.53689,5.7804 7.40588,9.65119 8.60699,11.61239c1.17434,1.92215 1.9107,3.64493 2.20906,5.16831M778.49816,379.90999c-1.27503,2.53488 -1.73868,5.73006 -1.39095,9.58554c0.11367,1.42141 -0.20097,3.05515 -0.94393,4.90123c-1.05754,2.64284 -2.84819,5.03251 -5.37194,7.16903c-3.08526,2.61497 -5.74424,5.30762 -7.97693,8.07795c-2.37927,3.01693 -3.47023,5.19247 -3.27291,6.52663c0.27427,1.65565 2.12477,4.79424 5.5515,9.41577c3.67366,4.93983 6.4554,7.6161 8.34524,8.0288c1.72588,0.38282 3.72921,-0.1062 6.00999,-1.46708c1.17318,-0.67446 2.35105,-1.46764 3.53362,-2.37953c-5.40834,-3.78692 -8.74052,-6.32434 -9.99655,-7.61228c-2.21161,-2.1795 -3.30895,-4.61715 -3.29204,-7.31296c0.01089,-2.66275 1.29264,-5.60636 3.84524,-8.83084c2.33442,-2.95677 3.9935,-4.34553 4.97724,-4.16627c1.11466,-6.11708 2.21518,-11.04102 3.30157,-14.77182c2.05228,-6.8003 4.84421,-11.24521 8.3758,-13.33473c-1.67976,0.47966 -3.41642,1.08561 -5.20996,1.81784c-3.63193,1.52462 -5.7936,2.97553 -6.48499,4.35272M751.49527,454.47015c2.76083,5.11513 6.14985,8.36326 10.16706,9.74439c2.01161,0.67403 3.958,1.14828 5.83914,1.42275c1.18651,0.18205 2.64003,0.29318 4.36058,0.3334c0.50392,0.0235 -0.23585,-0.65792 -2.21931,-2.04425c-2.01023,-1.42537 -4.37009,-3.25609 -7.07959,-5.49215c-2.74229,-2.24204 -4.17456,-4.97986 -4.29681,-8.21348c-0.14299,-3.30573 0.18648,-6.50828 0.98842,-9.60765c0.77516,-3.13842 1.68178,-5.60378 2.71986,-7.39608c-1.38534,0.90911 -3.18294,2.22138 -5.3928,3.9368c-2.20987,1.71543 -3.74583,3.45117 -4.6079,5.20722c-0.89486,1.75008 -1.44275,3.73419 -1.64366,5.95235c-0.23371,2.21219 0.15463,4.26442 1.16502,6.1567z" fill="#000000"/></g></g></svg>