<svg version="1.1" xmlns="http://www.w3.org/2000/svg" xmlns:xlink="http://www.w3.org/1999/xlink" width="486.75" height="111.8" viewBox="0,0,486.75,111.8"><g transform="translate(-391.25541,-306.36832)"><g data-paper-data="{&quot;isPaintingLayer&quot;:true}" fill-rule="nonzero" stroke="none" stroke-width="1" stroke-linecap="butt" stroke-linejoin="miter" stroke-miterlimit="10" stroke-dasharray="" stroke-dashoffset="0" style="mix-blend-mode: normal"><path d="M411.80541,316.91832c0.3,-0.2 0.6,-0.38333 0.9,-0.55c0.3,-0.16667 0.6,-0.35 0.9,-0.55c0.16667,-0.16667 0.35,-0.33333 0.55,-0.5c0.16667,-0.2 0.33333,-0.38333 0.5,-0.55c0.3,-0.16667 0.6,-0.35 0.9,-0.55c0.23333,-0.1 0.46667,-0.21667 0.7,-0.35c0.13333,-0.06667 0.26667,-0.11667 0.4,-0.15c0.26667,-0.13333 0.55,-0.26667 0.85,-0.4c0.2,-0.16667 0.38333,-0.33333 0.55,-0.5c0.16667,-0.13333 0.35,-0.26667 0.55,-0.4c0.06667,-0.03333 0.13333,-0.06667 0.2,-0.1c0.26667,-0.1 0.55,-0.18333 0.85,-0.25c0.3,-0.1 0.6,-0.21667 0.9,-0.35c0.43333,-0.16667 0.85,-0.35 1.25,-0.55c0.16667,-0.1 0.35,-0.21667 0.55,-0.35c0.3,-0.03333 0.6,-0.08333 0.9,-0.15c0.3,-0.13333 0.58333,-0.26667 0.85,-0.4c0.43333,-0.16667 0.85,-0.33333 1.25,-0.5c0.2,-0.13333 0.38333,-0.25 0.55,-0.35c0.3,-0.13333 0.6,-0.25 0.9,-0.35c0.16667,-0.13333 0.35,-0.26667 0.55,-0.4c0.3,-0.03333 0.6,-0.08333 0.9,-0.15c0.3,-0.13333 0.6,-0.25 0.9,-0.35c0.4,-0.13333 0.81667,-0.25 1.25,-0.35c0.53333,-0.13333 1.06667,-0.26667 1.6,-0.4c0.4,-0.1 0.81667,-0.2 1.25,-0.3c0.76667,-0.13333 1.53333,-0.28333 2.3,-0.45c0.43333,-0.06667 0.85,-0.16667 1.25,-0.3c7.13333,0 14.28333,0 21.45,0c0.33333,0.13333 0.68333,0.25 1.05,0.35c0.83333,0.13333 1.66667,0.25 2.5,0.35c0.36667,0.13333 0.73333,0.25 1.1,0.35c0.56667,0.13333 1.15,0.26667 1.75,0.4c0.36667,0.1 0.73333,0.21667 1.1,0.35c0.16667,0.1 0.33333,0.21667 0.5,0.35c0.3,0.1 0.6,0.21667 0.9,0.35c0.13333,0.13333 0.25,0.25 0.35,0.35c0.23333,0.06667 0.48333,0.13333 0.75,0.2c0.26667,0.1 0.56667,0.2 0.9,0.3c0.4,0.13333 0.8,0.28333 1.2,0.45c0.3,0.1 0.6,0.2 0.9,0.3c0.2,0.13333 0.38333,0.25 0.55,0.35c0.3,0.13333 0.6,0.25 0.9,0.35c0.4,0.13333 0.81667,0.26667 1.25,0.4c0.3,0.1 0.6,0.21667 0.9,0.35c0.16667,0.1 0.33333,0.21667 0.5,0.35c0.3,0.1 0.6,0.21667 0.9,0.35c0.2,0.13333 0.38333,0.25 0.55,0.35c0.3,0.13333 0.6,0.25 0.9,0.35c0.23333,0.2 0.46667,0.38333 0.7,0.55c0.36667,0.16667 0.73333,0.35 1.1,0.55c0.16667,0.06667 0.33333,0.11667 0.5,0.15c0.06667,-0.03333 0.13333,-0.08333 0.2,-0.15c0.3,-0.13333 0.6,-0.25 0.9,-0.35c0.16667,-0.13333 0.33333,-0.26667 0.5,-0.4c0.3,-0.1 0.6,-0.21667 0.9,-0.35c0.2,-0.1 0.38333,-0.21667 0.55,-0.35c0.3,-0.06667 0.6,-0.11667 0.9,-0.15c0.3,-0.13333 0.6,-0.25 0.9,-0.35c0.4,-0.13333 0.81667,-0.26667 1.25,-0.4c5.7,0 11.4,0 17.1,0c0.43333,0.13333 0.85,0.25 1.25,0.35c2.23333,0.13333 4.45,0.26667 6.65,0.4c0.4,0.1 0.81667,0.21667 1.25,0.35c1.46667,0.1 2.95,0.21667 4.45,0.35c0.36667,0.1 0.71667,0.21667 1.05,0.35c1.06667,0.13333 2.15,0.25 3.25,0.35c0.4,0.13333 0.81667,0.25 1.25,0.35c1,0.13333 2,0.25 3,0.35c0.36667,0.13333 0.73333,0.26667 1.1,0.4c0.83333,0.1 1.66667,0.21667 2.5,0.35c0.4,0.1 0.81667,0.2 1.25,0.3c0.53333,0.13333 1.06667,0.28333 1.6,0.45c0.36667,0.1 0.71667,0.2 1.05,0.3c0.36667,0.13333 0.73333,0.25 1.1,0.35c0.33333,0.13333 0.68333,0.25 1.05,0.35c0.73333,0.26667 1.45,0.51667 2.15,0.75c0.7,0.23333 1.41667,0.46667 2.15,0.7c0.16667,0.13333 0.35,0.25 0.55,0.35c0.26667,0.13333 0.55,0.25 0.85,0.35c0.2,0.13333 0.38333,0.25 0.55,0.35c0.3,0.13333 0.6,0.25 0.9,0.35c0.36667,0.13333 0.73333,0.25 1.1,0.35c0.26667,0.1 0.55,0.16667 0.85,0.2c0.13333,0 0.25,0 0.35,0c0.3,-0.03333 0.6,-0.08333 0.9,-0.15c0.3,-0.13333 0.6,-0.26667 0.9,-0.4c0.43333,-0.16667 0.85,-0.33333 1.25,-0.5c0.16667,-0.13333 0.35,-0.25 0.55,-0.35c0.3,-0.06667 0.6,-0.13333 0.9,-0.2c0.76667,-0.1 1.53333,-0.23333 2.3,-0.4c0.43333,-0.1 0.85,-0.2 1.25,-0.3c1.2,0 2.4,0 3.6,0c0.33333,0.1 0.68333,0.21667 1.05,0.35c15.66667,0 31.31667,0 46.95,0c0.43333,-0.13333 0.85,-0.25 1.25,-0.35c2.13333,0 4.28333,0 6.45,0c0.33333,0.1 0.68333,0.21667 1.05,0.35c1.06667,0.13333 2.13333,0.25 3.2,0.35c0.36667,0.13333 0.73333,0.25 1.1,0.35c0.16667,0.2 0.35,0.38333 0.55,0.55c0.16667,0.13333 0.33333,0.25 0.5,0.35c0.06667,0.06667 0.13333,0.13333 0.2,0.2c0.3,0.1 0.6,0.21667 0.9,0.35c0.23333,0.16667 0.46667,0.35 0.7,0.55c0.13333,0.1 0.25,0.21667 0.35,0.35c0.06667,0.06667 0.13333,0.11667 0.2,0.15c0.3,0.13333 0.6,0.25 0.9,0.35c0.16667,0.2 0.33333,0.38333 0.5,0.55c0.23333,0.2 0.48333,0.38333 0.75,0.55c0.16667,0.16667 0.33333,0.35 0.5,0.55c0.2,0.16667 0.38333,0.33333 0.55,0.5c0.13333,0.2 0.25,0.38333 0.35,0.55c0.16667,0.16667 0.35,0.35 0.55,0.55c0.1,0.16667 0.21667,0.33333 0.35,0.5c0.06667,0.2 0.13333,0.38333 0.2,0.55c0.03333,0.13333 0.08333,0.25 0.15,0.35c0.23333,-0.03333 0.46667,-0.08333 0.7,-0.15c0.2,-0.13333 0.38333,-0.25 0.55,-0.35c0.3,-0.06667 0.6,-0.13333 0.9,-0.2c0.3,-0.13333 0.6,-0.25 0.9,-0.35c0.4,-0.13333 0.81667,-0.26667 1.25,-0.4c0.3,-0.1 0.6,-0.2 0.9,-0.3c0.4,-0.13333 0.81667,-0.25 1.25,-0.35c0.53333,-0.13333 1.06667,-0.26667 1.6,-0.4c0.4,-0.1 0.81667,-0.21667 1.25,-0.35c1.66667,0 3.33333,0 5,0c0.33333,0.13333 0.68333,0.25 1.05,0.35c1.06667,0.13333 2.13333,0.25 3.2,0.35c0.36667,0.13333 0.73333,0.26667 1.1,0.4c0.16667,0.16667 0.35,0.33333 0.55,0.5c0.16667,0.13333 0.33333,0.25 0.5,0.35c0.23333,0.06667 0.48333,0.13333 0.75,0.2c0.33333,0.13333 0.68333,0.25 1.05,0.35c0.23333,0.2 0.46667,0.38333 0.7,0.55c0.2,0.16667 0.38333,0.35 0.55,0.55c0.16667,0.16667 0.35,0.33333 0.55,0.5c0.16667,0.2 0.33333,0.38333 0.5,0.55c0.2,0.16667 0.38333,0.35 0.55,0.55c0.2,0.16667 0.38333,0.33333 0.55,0.5c0.16667,0.2 0.35,0.38333 0.55,0.55c0.16667,0.2 0.33333,0.38333 0.5,0.55c0.13333,0.16667 0.25,0.35 0.35,0.55c0.06667,0.16667 0.13333,0.33333 0.2,0.5c0.13333,0.2 0.25,0.38333 0.35,0.55c0.2,0.06667 0.38333,0.13333 0.55,0.2c0.1,-0.13333 0.21667,-0.26667 0.35,-0.4c0.16667,-0.16667 0.35,-0.33333 0.55,-0.5c0.06667,-0.2 0.11667,-0.38333 0.15,-0.55c0.13333,-0.16667 0.25,-0.35 0.35,-0.55c0.13333,-0.16667 0.26667,-0.33333 0.4,-0.5c0.16667,-0.2 0.33333,-0.38333 0.5,-0.55c0.2,-0.16667 0.38333,-0.35 0.55,-0.55c0.16667,-0.16667 0.35,-0.35 0.55,-0.55c0.16667,-0.16667 0.33333,-0.33333 0.5,-0.5c0.2,-0.2 0.38333,-0.38333 0.55,-0.55c0.36667,-0.36667 0.73333,-0.71667 1.1,-1.05c0.33333,-0.36667 0.68333,-0.73333 1.05,-1.1c0.36667,-0.36667 0.71667,-0.71667 1.05,-1.05c0.2,-0.2 0.38333,-0.38333 0.55,-0.55c0.43333,-0.13333 0.85,-0.26667 1.25,-0.4c0.3,-0.1 0.6,-0.2 0.9,-0.3c0.4,-0.2 0.81667,-0.38333 1.25,-0.55c0.16667,-0.13333 0.35,-0.25 0.55,-0.35c0.3,-0.06667 0.6,-0.13333 0.9,-0.2c0.53333,-0.1 1.06667,-0.21667 1.6,-0.35c0.4,-0.1 0.81667,-0.21667 1.25,-0.35c1.23333,-0.13333 2.48333,-0.25 3.75,-0.35c0.4,-0.13333 0.81667,-0.25 1.25,-0.35c2.13333,0 4.26667,0 6.4,0c0.43333,0.1 0.85,0.21667 1.25,0.35c2.7,0.1 5.38333,0.21667 8.05,0.35c0.4,0.13333 0.81667,0.25 1.25,0.35c1.23333,0.13333 2.48333,0.25 3.75,0.35c0.36667,0.13333 0.71667,0.25 1.05,0.35c0.36667,0.13333 0.73333,0.25 1.1,0.35c0.4,0.13333 0.81667,0.25 1.25,0.35c0.76667,0.13333 1.53333,0.26667 2.3,0.4c0.36667,0.1 0.73333,0.21667 1.1,0.35c0.33333,0.13333 0.68333,0.25 1.05,0.35c0.36667,0.13333 0.73333,0.23333 1.1,0.3c0.56667,0.16667 1.15,0.31667 1.75,0.45c0.43333,0.1 0.85,0.21667 1.25,0.35c0.66667,0.23333 1.31667,0.46667 1.95,0.7c0.2,0.1 0.38333,0.21667 0.55,0.35c0.36667,0.13333 0.73333,0.25 1.1,0.35c0.3,0.13333 0.6,0.25 0.9,0.35c0.33333,0.13333 0.68333,0.25 1.05,0.35c0.23333,0.2 0.46667,0.38333 0.7,0.55c0.13333,0.13333 0.25,0.25 0.35,0.35c0.06667,0.06667 0.13333,0.11667 0.2,0.15c0.3,0.13333 0.6,0.26667 0.9,0.4c0.23333,0.16667 0.46667,0.35 0.7,0.55c0.16667,0.16667 0.35,0.33333 0.55,0.5c0.16667,0.13333 0.33333,0.26667 0.5,0.4c0.06667,-0.06667 0.11667,-0.13333 0.15,-0.2c0.03333,-0.16667 0.05,-0.35 0.05,-0.55c0,-0.16667 0,-0.33333 0,-0.5c0,-0.2 0,-0.38333 0,-0.55c0.13333,-0.16667 0.25,-0.35 0.35,-0.55c0.06667,-0.16667 0.13333,-0.35 0.2,-0.55c0.06667,-0.16667 0.11667,-0.33333 0.15,-0.5c0,-0.2 0,-0.38333 0,-0.55c0.13333,-0.16667 0.25,-0.35 0.35,-0.55c0.13333,-0.16667 0.26667,-0.33333 0.4,-0.5c0.16667,-0.2 0.33333,-0.38333 0.5,-0.55c0.2,-0.13333 0.38333,-0.25 0.55,-0.35c0.3,-0.13333 0.6,-0.25 0.9,-0.35c0.16667,-0.13333 0.35,-0.26667 0.55,-0.4c0.3,-0.03333 0.58333,-0.08333 0.85,-0.15c0.56667,-0.13333 1.1,-0.26667 1.6,-0.4c0.43333,-0.1 0.86667,-0.2 1.3,-0.3c1,-0.13333 2,-0.26667 3,-0.4c0.43333,-0.1 0.85,-0.21667 1.25,-0.35c1.03333,-0.1 2.05,-0.21667 3.05,-0.35c0.43333,-0.1 0.85,-0.21667 1.25,-0.35c1,-0.13333 2.01667,-0.25 3.05,-0.35c0.4,-0.13333 0.81667,-0.25 1.25,-0.35c0.53333,-0.13333 1.06667,-0.26667 1.6,-0.4c0.4,-0.1 0.81667,-0.21667 1.25,-0.35c3.8,0 7.6,0 11.4,0c0.36667,0.13333 0.73333,0.25 1.1,0.35c0.6,0.13333 1.18333,0.28333 1.75,0.45c0.36667,0.06667 0.73333,0.15 1.1,0.25c0.6,0.13333 1.18333,0.28333 1.75,0.45c0.36667,0.1 0.73333,0.2 1.1,0.3c0.73333,0.23333 1.45,0.46667 2.15,0.7c0.16667,0.13333 0.35,0.26667 0.55,0.4c0.3,0.1 0.6,0.21667 0.9,0.35c0.23333,0.16667 0.46667,0.33333 0.7,0.5c0.1,0.13333 0.21667,0.26667 0.35,0.4c0.06667,0.03333 0.13333,0.05 0.2,0.05c0.23333,0 0.46667,-0.01667 0.7,-0.05c0.1,-0.2 0.21667,-0.38333 0.35,-0.55c0.13333,-0.16667 0.25,-0.35 0.35,-0.55c0,-0.16667 0,-0.35 0,-0.55c0,-0.16667 0,-0.33333 0,-0.5c0,-0.2 0,-0.38333 0,-0.55c0,-0.16667 0,-0.35 0,-0.55c0.06667,-0.16667 0.13333,-0.33333 0.2,-0.5c0.1,-0.2 0.21667,-0.38333 0.35,-0.55c0.16667,-0.16667 0.35,-0.35 0.55,-0.55c0.16667,-0.1 0.33333,-0.21667 0.5,-0.35c0.06667,-0.06667 0.13333,-0.1 0.2,-0.1c0.3,-0.1 0.6,-0.18333 0.9,-0.25c1.7,-0.13333 3.41667,-0.25 5.15,-0.35c0.43333,-0.13333 0.85,-0.25 1.25,-0.35c1.73333,-0.13333 3.46667,-0.26667 5.2,-0.4c0.4,-0.1 0.81667,-0.21667 1.25,-0.35c1,-0.1 2,-0.21667 3,-0.35c0.43333,-0.1 0.85,-0.21667 1.25,-0.35c7.63333,0 15.26667,0 22.9,0c0.33333,0.13333 0.68333,0.25 1.05,0.35c0.36667,0.13333 0.71667,0.25 1.05,0.35c0.36667,0.13333 0.73333,0.25 1.1,0.35c0.16667,0.2 0.35,0.38333 0.55,0.55c0.16667,0.2 0.33333,0.38333 0.5,0.55c0.2,0.16667 0.38333,0.35 0.55,0.55c0.16667,0.16667 0.35,0.33333 0.55,0.5c0.16667,0.2 0.33333,0.38333 0.5,0.55c0.06667,0.16667 0.13333,0.35 0.2,0.55c0.06667,0.16667 0.13333,0.33333 0.2,0.5c0,0.2 0,0.38333 0,0.55c0.1,0.2 0.21667,0.38333 0.35,0.55c0.03333,0.16667 0.08333,0.35 0.15,0.55c0.06667,0.16667 0.13333,0.33333 0.2,0.5c0,0.2 0,0.38333 0,0.55v0.1c0.23333,-0.06667 0.46667,-0.16667 0.7,-0.3c0.13333,-0.16667 0.25,-0.33333 0.35,-0.5c0.2,-0.2 0.38333,-0.38333 0.55,-0.55c0.06667,-0.16667 0.13333,-0.35 0.2,-0.55c0.1,-0.16667 0.21667,-0.33333 0.35,-0.5c0.1,-0.2 0.21667,-0.38333 0.35,-0.55c0.16667,-0.16667 0.35,-0.35 0.55,-0.55c0.16667,-0.16667 0.33333,-0.35 0.5,-0.55c0.2,-0.16667 0.38333,-0.33333 0.55,-0.5c0.16667,-0.2 0.35,-0.38333 0.55,-0.55c0.16667,-0.16667 0.33333,-0.35 0.5,-0.55c0.2,-0.1 0.38333,-0.21667 0.55,-0.35c0.3,-0.1 0.6,-0.21667 0.9,-0.35c0.16667,-0.13333 0.35,-0.25 0.55,-0.35c0.3,-0.06667 0.6,-0.13333 0.9,-0.2c0.26667,-0.1 0.56667,-0.2 0.9,-0.3c0.4,-0.13333 0.8,-0.26667 1.2,-0.4c6.2,0 12.4,0 18.6,0c0.33333,0.13333 0.68333,0.25 1.05,0.35c1.06667,0.13333 2.13333,0.25 3.2,0.35c0.36667,0.13333 0.73333,0.25 1.1,0.35c0.6,0.13333 1.18333,0.26667 1.75,0.4c0.43333,0.1 0.85,0.21667 1.25,0.35c0.33333,0.1 0.65,0.21667 0.95,0.35c0.33333,0.1 0.68333,0.21667 1.05,0.35c0.16667,0.13333 0.35,0.25 0.55,0.35c0.3,0.13333 0.6,0.25 0.9,0.35c0.33333,0.13333 0.68333,0.25 1.05,0.35c0.36667,0.13333 0.71667,0.26667 1.05,0.4c0.23333,0.16667 0.48333,0.33333 0.75,0.5c0.1,0.13333 0.21667,0.25 0.35,0.35c0.06667,0.06667 0.13333,0.11667 0.2,0.15c0.26667,0.16667 0.55,0.3 0.85,0.4c0.2,0.13333 0.38333,0.25 0.55,0.35c0.3,0.13333 0.6,0.25 0.9,0.35c0.16667,0.13333 0.33333,0.26667 0.5,0.4c0.3,0.1 0.6,0.21667 0.9,0.35c0.2,0.16667 0.38333,0.33333 0.55,0.5c0.16667,0.2 0.35,0.38333 0.55,0.55c0.1,0.2 0.21667,0.38333 0.35,0.55c0.06667,0.16667 0.11667,0.35 0.15,0.55c0.13333,0.16667 0.26667,0.33333 0.4,0.5c0.16667,0.2 0.33333,0.38333 0.5,0.55c0.13333,0.16667 0.25,0.35 0.35,0.55c0.06667,0.16667 0.13333,0.33333 0.2,0.5c0,0.2 0,0.38333 0,0.55c0,0.2 0,0.38333 0,0.55c0,0.16667 0,0.35 0,0.55c0,0.16667 0,0.33333 0,0.5c0,0.2 0,0.38333 0,0.55c0,0.36667 0,0.71667 0,1.05c0,0.56667 0,1.11667 0,1.65c0,0.33333 0,0.68333 0,1.05c0,0.53333 0,1.06667 0,1.6c0,0.36667 0,0.73333 0,1.1c0,0.53333 0,1.06667 0,1.6c0,0.16667 0,0.33333 0,0.5c-0.13333,0.2 -0.25,0.38333 -0.35,0.55c-0.13333,0.16667 -0.25,0.35 -0.35,0.55c0,0.16667 0,0.35 0,0.55c0,0.16667 0,0.33333 0,0.5c0,0.2 0,0.38333 0,0.55c0,0.16667 0,0.35 0,0.55c0,0.16667 0,0.33333 0,0.5c0,0.2 0,0.38333 0,0.55c-0.13333,0.16667 -0.25,0.35 -0.35,0.55c-0.13333,0.16667 -0.26667,0.35 -0.4,0.55c0,0.16667 0,0.33333 0,0.5c0,0.2 0,0.38333 0,0.55c0,0.16667 0,0.35 0,0.55c0,0.16667 0,0.33333 0,0.5c-0.03333,0.2 -0.08333,0.38333 -0.15,0.55c-0.06667,0.16667 -0.13333,0.35 -0.2,0.55c-0.1,0.16667 -0.21667,0.35 -0.35,0.55c0,0.16667 0,0.33333 0,0.5c0,0.2 0,0.38333 0,0.55c0,0.16667 0,0.35 0,0.55c-0.1,0.16667 -0.21667,0.33333 -0.35,0.5c0.13333,0.2 0.25,0.38333 0.35,0.55c0.23333,0.16667 0.46667,0.35 0.7,0.55c0.13333,0.1 0.26667,0.21667 0.4,0.35c0.3,0.13333 0.58333,0.25 0.85,0.35c0.2,0.13333 0.38333,0.25 0.55,0.35c0.3,0.13333 0.6,0.25 0.9,0.35c0.16667,0.2 0.35,0.38333 0.55,0.55c0.16667,0.16667 0.33333,0.35 0.5,0.55c0.2,0.16667 0.38333,0.35 0.55,0.55c0.2,0.16667 0.38333,0.33333 0.55,0.5c0.16667,0.2 0.35,0.38333 0.55,0.55c0.16667,0.16667 0.33333,0.35 0.5,0.55c0.2,0.16667 0.38333,0.33333 0.55,0.5c0.13333,0.2 0.25,0.38333 0.35,0.55c0.13333,0.16667 0.25,0.35 0.35,0.55c0.06667,0.16667 0.13333,0.35 0.2,0.55c0.16667,0.16667 0.35,0.33333 0.55,0.5c0.1,0.2 0.21667,0.38333 0.35,0.55c0.1,0.16667 0.21667,0.35 0.35,0.55c0.06667,0.16667 0.11667,0.33333 0.15,0.5c0.2,0.2 0.38333,0.38333 0.55,0.55c0.13333,0.16667 0.25,0.35 0.35,0.55c0.13333,0.16667 0.25,0.35 0.35,0.55c0.06667,0.16667 0.13333,0.33333 0.2,0.5c0.13333,0.2 0.25,0.38333 0.35,0.55c0.06667,0.16667 0.13333,0.35 0.2,0.55c0.1,0.16667 0.21667,0.33333 0.35,0.5c0.06667,0.2 0.11667,0.38333 0.15,0.55c0.06667,0.16667 0.13333,0.35 0.2,0.55c0,0.16667 0,0.35 0,0.55c0.13333,0.16667 0.25,0.33333 0.35,0.5c0.06667,0.2 0.13333,0.38333 0.2,0.55c0.03333,0.16667 0.08333,0.35 0.15,0.55c0.13333,0.16667 0.25,0.33333 0.35,0.5c0.13333,0.2 0.26667,0.38333 0.4,0.55c0,0.16667 0,0.35 0,0.55c0,0.16667 0,0.35 0,0.55c0.1,0.16667 0.21667,0.33333 0.35,0.5c0.1,0.2 0.21667,0.38333 0.35,0.55c0,0.16667 0,0.35 0,0.55c0,0.16667 0,0.33333 0,0.5c0,0.2 0,0.38333 0,0.55c0.1,0.16667 0.21667,0.35 0.35,0.55c0.06667,0.16667 0.13333,0.33333 0.2,0.5c0.03333,0.2 0.08333,0.38333 0.15,0.55c0,0.2 0,0.38333 0,0.55c0,0.16667 0,0.35 0,0.55c0,0.16667 0,0.33333 0,0.5c0,0.2 0,0.38333 0,0.55c-0.06667,0.16667 -0.11667,0.35 -0.15,0.55c0,0.16667 0,0.33333 0,0.5c0,0.2 0,0.38333 0,0.55c0,0.2 0,0.38333 0,0.55c0,0.16667 0,0.35 0,0.55c0,0.16667 0,0.33333 0,0.5c0,0.2 0,0.38333 0,0.55c0,0.36667 0,0.71667 0,1.05c0,0.36667 0,0.73333 0,1.1c0,0.16667 0,0.35 0,0.55c0,0.16667 0,0.33333 0,0.5c0,0.2 0,0.38333 0,0.55c-0.13333,0.16667 -0.26667,0.35 -0.4,0.55c-0.1,0.16667 -0.21667,0.33333 -0.35,0.5c0,0.2 0,0.38333 0,0.55c0,0.2 0,0.38333 0,0.55c0,0.16667 0,0.35 0,0.55c0,0.16667 0,0.33333 0,0.5c-0.06667,0.2 -0.11667,0.38333 -0.15,0.55c-0.06667,0.16667 -0.13333,0.35 -0.2,0.55c-0.1,0.16667 -0.21667,0.33333 -0.35,0.5c0,0.2 0,0.38333 0,0.55c-0.06667,0.2 -0.13333,0.38333 -0.2,0.55c-0.03333,0.16667 -0.08333,0.35 -0.15,0.55c-0.13333,0.16667 -0.25,0.33333 -0.35,0.5c-0.06667,0.2 -0.13333,0.38333 -0.2,0.55c-0.1,0.16667 -0.21667,0.35 -0.35,0.55c0,0.16667 0,0.33333 0,0.5c0,0.2 0,0.38333 0,0.55c-0.06667,0.2 -0.13333,0.38333 -0.2,0.55c-0.1,0.16667 -0.21667,0.35 -0.35,0.55c-0.1,0.16667 -0.21667,0.33333 -0.35,0.5c-0.16667,0.2 -0.35,0.38333 -0.55,0.55c-0.03333,0.16667 -0.08333,0.35 -0.15,0.55c-0.13333,0.16667 -0.25,0.33333 -0.35,0.5c-0.06667,0.2 -0.13333,0.38333 -0.2,0.55c-0.1,0.2 -0.21667,0.38333 -0.35,0.55c-0.13333,0.16667 -0.25,0.35 -0.35,0.55c-0.13333,0.1 -0.25,0.21667 -0.35,0.35c-0.3,0.1 -0.6,0.21667 -0.9,0.35c-0.13333,0.16667 -0.25,0.35 -0.35,0.55c-0.06667,0.16667 -0.13333,0.33333 -0.2,0.5c-0.16667,0.2 -0.35,0.38333 -0.55,0.55c-0.33333,0.16667 -0.68333,0.35 -1.05,0.55c-0.16667,0.16667 -0.35,0.33333 -0.55,0.5c-0.16667,0.2 -0.33333,0.38333 -0.5,0.55c-0.2,0.2 -0.38333,0.38333 -0.55,0.55c-0.23333,0.16667 -0.46667,0.35 -0.7,0.55c-0.13333,0.1 -0.26667,0.21667 -0.4,0.35c-0.26667,0.1 -0.55,0.21667 -0.85,0.35c-0.2,0.16667 -0.38333,0.35 -0.55,0.55c-0.16667,0.16667 -0.35,0.33333 -0.55,0.5c-0.23333,0.2 -0.46667,0.38333 -0.7,0.55c-0.16667,0.16667 -0.35,0.35 -0.55,0.55c-0.1,0.1 -0.21667,0.21667 -0.35,0.35c-0.3,0.1 -0.6,0.21667 -0.9,0.35c-0.16667,0.16667 -0.35,0.35 -0.55,0.55c-0.23333,0.16667 -0.46667,0.33333 -0.7,0.5c-0.16667,0.2 -0.35,0.38333 -0.55,0.55c-0.4,0.16667 -0.81667,0.35 -1.25,0.55c-0.1,0.1 -0.21667,0.21667 -0.35,0.35c-0.33333,0.13333 -0.68333,0.25 -1.05,0.35c-0.16667,0.16667 -0.35,0.35 -0.55,0.55c-0.1,0.1 -0.21667,0.21667 -0.35,0.35c-0.06667,0.06667 -0.13333,0.1 -0.2,0.1c-0.26667,0.1 -0.55,0.18333 -0.85,0.25c-0.83333,0.13333 -1.66667,0.25 -2.5,0.35c-0.36667,0.13333 -0.73333,0.25 -1.1,0.35c-0.6,0.13333 -1.18333,0.26667 -1.75,0.4c-0.36667,0.1 -0.73333,0.2 -1.1,0.3c-0.6,0.13333 -1.18333,0.28333 -1.75,0.45c-0.36667,0.06667 -0.73333,0.16667 -1.1,0.3c-0.83333,0.13333 -1.66667,0.25 -2.5,0.35c-0.36667,0.13333 -0.73333,0.25 -1.1,0.35c-1.3,0.13333 -2.6,0.25 -3.9,0.35c-0.36667,0.13333 -0.71667,0.26667 -1.05,0.4c-0.83333,0.1 -1.66667,0.21667 -2.5,0.35c-0.36667,0.1 -0.73333,0.21667 -1.1,0.35c-1,0.1 -2.01667,0.21667 -3.05,0.35c-0.4,0.13333 -0.81667,0.25 -1.25,0.35c-2.83333,0 -5.68333,0 -8.55,0c-0.43333,-0.1 -0.85,-0.21667 -1.25,-0.35c-2.93333,-0.13333 -5.85,-0.25 -8.75,-0.35c-0.43333,-0.13333 -0.85,-0.25 -1.25,-0.35c-1.96667,-0.13333 -3.93333,-0.25 -5.9,-0.35c-0.4,-0.13333 -0.81667,-0.26667 -1.25,-0.4c-0.76667,-0.1 -1.53333,-0.21667 -2.3,-0.35c-0.43333,-0.1 -0.85,-0.21667 -1.25,-0.35c-0.13333,-0.1 -0.25,-0.21667 -0.35,-0.35c-0.36667,-0.13333 -0.73333,-0.25 -1.1,-0.35c-0.1,-0.2 -0.21667,-0.38333 -0.35,-0.55c-0.23333,-0.16667 -0.46667,-0.35 -0.7,-0.55c-0.06667,-0.1 -0.13333,-0.21667 -0.2,-0.35c-0.23333,0 -0.46667,0 -0.7,0c-0.06667,0.06667 -0.13333,0.11667 -0.2,0.15c-0.3,0.1 -0.6,0.16667 -0.9,0.2c-0.56667,0.13333 -1.15,0.26667 -1.75,0.4c-0.36667,0.1 -0.73333,0.21667 -1.1,0.35c-1.76667,0.1 -3.55,0.21667 -5.35,0.35c-0.36667,0.1 -0.71667,0.21667 -1.05,0.35c-3.1,0 -6.2,0 -9.3,0c-0.4,-0.13333 -0.81667,-0.25 -1.25,-0.35c-1,-0.13333 -2.01667,-0.25 -3.05,-0.35c-0.4,-0.13333 -0.8,-0.26667 -1.2,-0.4c-0.33333,-0.1 -0.65,-0.2 -0.95,-0.3c-0.4,-0.13333 -0.8,-0.26667 -1.2,-0.4c-0.13333,-0.1 -0.26667,-0.21667 -0.4,-0.35c-0.33333,-0.1 -0.68333,-0.21667 -1.05,-0.35c-0.13333,-0.16667 -0.25,-0.35 -0.35,-0.55c-0.2,-0.1 -0.38333,-0.21667 -0.55,-0.35c-0.06667,-0.06667 -0.13333,-0.11667 -0.2,-0.15c-0.33333,-0.13333 -0.68333,-0.26667 -1.05,-0.4c-0.16667,-0.16667 -0.35,-0.33333 -0.55,-0.5c-0.16667,-0.2 -0.33333,-0.38333 -0.5,-0.55c-0.2,-0.16667 -0.38333,-0.35 -0.55,-0.55c-0.16667,-0.16667 -0.35,-0.33333 -0.55,-0.5c-0.1,-0.13333 -0.21667,-0.26667 -0.35,-0.4c-0.23333,0.06667 -0.46667,0.13333 -0.7,0.2c0,0.16667 0,0.35 0,0.55c0,0.16667 0,0.33333 0,0.5c0,0.2 0,0.38333 0,0.55c0,0.16667 0,0.35 0,0.55c-0.06667,0.16667 -0.13333,0.35 -0.2,0.55c-0.06667,0.16667 -0.11667,0.33333 -0.15,0.5c-0.2,0.2 -0.38333,0.38333 -0.55,0.55c-0.16667,0.16667 -0.35,0.35 -0.55,0.55c-0.1,0.1 -0.21667,0.21667 -0.35,0.35c-0.3,0.06667 -0.6,0.13333 -0.9,0.2c-0.33333,0.1 -0.68333,0.21667 -1.05,0.35c-0.36667,0.1 -0.73333,0.21667 -1.1,0.35c-2.43333,0.1 -4.86667,0.21667 -7.3,0.35c-0.43333,0.1 -0.85,0.21667 -1.25,0.35c-1,0.13333 -2.01667,0.25 -3.05,0.35c-0.4,0.13333 -0.81667,0.25 -1.25,0.35c-1.06667,0.13333 -2.13333,0.25 -3.2,0.35c-0.36667,0.13333 -0.71667,0.26667 -1.05,0.4c-5.83333,0.1 -11.66667,0.21667 -17.5,0.35c-0.36667,0.1 -0.73333,0.21667 -1.1,0.35c-0.7,0 -1.41667,0 -2.15,0c-0.4,-0.13333 -0.81667,-0.25 -1.25,-0.35c-0.1,-0.2 -0.21667,-0.38333 -0.35,-0.55c-0.23333,-0.16667 -0.46667,-0.35 -0.7,-0.55c-0.16667,-0.16667 -0.35,-0.33333 -0.55,-0.5c-0.1,-0.2 -0.21667,-0.38333 -0.35,-0.55c-0.06667,-0.2 -0.13333,-0.38333 -0.2,-0.55c-0.1,-0.16667 -0.21667,-0.35 -0.35,-0.55c-0.1,-0.16667 -0.21667,-0.33333 -0.35,-0.5c0,-0.2 0,-0.38333 0,-0.55c0,-0.16667 0,-0.35 0,-0.55c0,-0.16667 0,-0.33333 0,-0.5c-0.06667,-0.2 -0.11667,-0.38333 -0.15,-0.55c-0.13333,-0.2 -0.26667,-0.38333 -0.4,-0.55c-0.03333,-0.16667 -0.08333,-0.35 -0.15,-0.55c0,-0.16667 0,-0.33333 0,-0.5c0,-0.2 0,-0.38333 0,-0.55c0,-0.16667 0,-0.35 0,-0.55c0,-0.16667 0,-0.33333 0,-0.5c-0.13333,-0.2 -0.25,-0.38333 -0.35,-0.55c-0.13333,-0.16667 -0.25,-0.35 -0.35,-0.55c0,-0.16667 0,-0.35 0,-0.55c0,-0.16667 0,-0.33333 0,-0.5c0,-0.2 0,-0.38333 0,-0.55c0,-0.16667 0,-0.35 0,-0.55c0,-0.16667 0,-0.33333 0,-0.5c0,-0.2 0,-0.38333 0,-0.55c0,-0.16667 0,-0.35 0,-0.55c-0.06667,-0.16667 -0.13333,-0.35 -0.2,-0.55c-0.13333,0.06667 -0.25,0.13333 -0.35,0.2c-0.06667,0.06667 -0.13333,0.13333 -0.2,0.2c-0.3,0.1 -0.6,0.21667 -0.9,0.35c-0.16667,0.16667 -0.33333,0.33333 -0.5,0.5c-0.2,0.2 -0.38333,0.38333 -0.55,0.55c-0.23333,0.2 -0.46667,0.38333 -0.7,0.55c-0.36667,0.16667 -0.73333,0.35 -1.1,0.55c-0.16667,0.16667 -0.33333,0.33333 -0.5,0.5c-0.2,0.13333 -0.38333,0.25 -0.55,0.35c-0.06667,0.06667 -0.13333,0.11667 -0.2,0.15c-0.46667,0.16667 -0.93333,0.3 -1.4,0.4c-0.23333,0.2 -0.48333,0.38333 -0.75,0.55c-0.16667,0.1 -0.33333,0.21667 -0.5,0.35c-0.06667,0.06667 -0.13333,0.13333 -0.2,0.2c-0.3,0.1 -0.6,0.21667 -0.9,0.35c-0.16667,0.16667 -0.33333,0.33333 -0.5,0.5c-0.2,0.13333 -0.38333,0.26667 -0.55,0.4c-0.06667,0.03333 -0.13333,0.06667 -0.2,0.1c-0.3,0.1 -0.6,0.18333 -0.9,0.25c-0.26667,0.1 -0.55,0.21667 -0.85,0.35c-0.26667,0.16667 -0.51667,0.35 -0.75,0.55c-0.1,0.1 -0.21667,0.21667 -0.35,0.35c-0.3,0.03333 -0.58333,0.1 -0.85,0.2c-0.36667,0.1 -0.73333,0.2 -1.1,0.3c-0.53333,0.2 -1.06667,0.38333 -1.6,0.55c-0.23333,0.13333 -0.46667,0.25 -0.7,0.35c-0.3,0.06667 -0.6,0.13333 -0.9,0.2c-0.6,0.1 -1.2,0.23333 -1.8,0.4c-0.36667,0.1 -0.71667,0.2 -1.05,0.3c-1.73333,0.13333 -3.46667,0.25 -5.2,0.35c-0.43333,0.13333 -0.85,0.25 -1.25,0.35c-1.9,0 -3.8,0 -5.7,0c-0.43333,-0.1 -0.85,-0.21667 -1.25,-0.35c-1.26667,-0.1 -2.51667,-0.21667 -3.75,-0.35c-0.43333,-0.1 -0.85,-0.21667 -1.25,-0.35c-0.8,-0.13333 -1.58333,-0.26667 -2.35,-0.4c-0.4,-0.1 -0.81667,-0.18333 -1.25,-0.25c-0.76667,-0.16667 -1.53333,-0.33333 -2.3,-0.5c-0.96667,-0.2 -1.91667,-0.43333 -2.85,-0.7c-1.13333,-0.3 -2.26667,-0.63333 -3.4,-1c-0.13333,0 -0.25,0 -0.35,0c0,0.16667 0,0.35 0,0.55c0,0.16667 0,0.33333 0,0.5c0,0.2 0,0.38333 0,0.55c0,0.16667 0,0.35 0,0.55c-0.06667,0.16667 -0.13333,0.33333 -0.2,0.5c-0.1,0.2 -0.21667,0.38333 -0.35,0.55c-0.13333,0.13333 -0.25,0.25 -0.35,0.35c-0.06667,0.06667 -0.13333,0.11667 -0.2,0.15c-0.3,0.1 -0.6,0.16667 -0.9,0.2c-3.6,0.13333 -7.21667,0.26667 -10.85,0.4c-0.43333,0.1 -0.85,0.21667 -1.25,0.35c-2.2,0.1 -4.41667,0.21667 -6.65,0.35c-0.4,0.1 -0.81667,0.21667 -1.25,0.35c-5.7,0 -11.4,0 -17.1,0c-0.43333,-0.13333 -0.85,-0.25 -1.25,-0.35c-0.13333,-0.2 -0.25,-0.38333 -0.35,-0.55c-0.26667,-0.16667 -0.51667,-0.35 -0.75,-0.55c-0.1,-0.16667 -0.21667,-0.33333 -0.35,-0.5c-0.06667,-0.2 -0.11667,-0.38333 -0.15,-0.55c-0.13333,-0.16667 -0.26667,-0.35 -0.4,-0.55c-0.16667,-0.16667 -0.33333,-0.33333 -0.5,-0.5c-0.13333,-0.2 -0.25,-0.38333 -0.35,-0.55c-0.06667,-0.2 -0.13333,-0.38333 -0.2,-0.55c-0.06667,-0.16667 -0.13333,-0.35 -0.2,-0.55c-0.1,-0.16667 -0.21667,-0.33333 -0.35,-0.5c-0.06667,-0.2 -0.11667,-0.38333 -0.15,-0.55c-0.13333,-0.16667 -0.25,-0.35 -0.35,-0.55c-0.06667,-0.16667 -0.13333,-0.33333 -0.2,-0.5c0,-0.2 0,-0.38333 0,-0.55c-0.06667,-0.16667 -0.13333,-0.35 -0.2,-0.55c-0.03333,0 -0.06667,0.01667 -0.1,0.05c-0.03333,0.16667 -0.05,0.33333 -0.05,0.5c0,0.16667 0,0.35 0,0.55c0,0.16667 0,0.33333 0,0.5c0,0.2 0,0.38333 0,0.55c0,0.16667 0,0.35 0,0.55c0,0.16667 0,0.33333 0,0.5c-0.13333,0.2 -0.25,0.38333 -0.35,0.55c-0.13333,0.16667 -0.25,0.35 -0.35,0.55c-0.13333,0.1 -0.26667,0.21667 -0.4,0.35c-0.3,0.06667 -0.58333,0.13333 -0.85,0.2c-7.76667,0.1 -15.51667,0.21667 -23.25,0.35c-0.33333,0.1 -0.68333,0.21667 -1.05,0.35c-2.2,0.1 -4.4,0.21667 -6.6,0.35c-0.43333,0.13333 -0.85,0.25 -1.25,0.35c-1.8,0.13333 -3.58333,0.25 -5.35,0.35c-0.36667,0.13333 -0.73333,0.25 -1.1,0.35c-2.26667,0.13333 -4.53333,0.26667 -6.8,0.4c-0.33333,0.1 -0.68333,0.21667 -1.05,0.35c-0.83333,0.1 -1.66667,0.21667 -2.5,0.35c-0.36667,0.1 -0.71667,0.21667 -1.05,0.35c-0.96667,0 -1.93333,0 -2.9,0c-0.4,-0.13333 -0.8,-0.25 -1.2,-0.35c-0.13333,-0.2 -0.26667,-0.38333 -0.4,-0.55c-0.23333,-0.16667 -0.46667,-0.35 -0.7,-0.55c-0.16667,-0.16667 -0.35,-0.33333 -0.55,-0.5c-0.1,-0.2 -0.21667,-0.38333 -0.35,-0.55c-0.06667,-0.16667 -0.11667,-0.35 -0.15,-0.55c0,-0.16667 0,-0.33333 0,-0.5c-0.06667,-0.2 -0.13333,-0.38333 -0.2,-0.55c-0.1,-0.2 -0.21667,-0.38333 -0.35,-0.55c-0.06667,-0.16667 -0.13333,-0.35 -0.2,-0.55c0,-0.16667 0,-0.33333 0,-0.5c0,-0.2 0,-0.38333 0,-0.55c0,-0.16667 0,-0.35 0,-0.55c0,-0.16667 0,-0.33333 0,-0.5c0,-0.2 0,-0.38333 0,-0.55c0,-0.16667 0,-0.35 0,-0.55c0,-0.16667 0,-0.35 0,-0.55c0,-0.16667 0,-0.33333 0,-0.5c0,-0.36667 0,-0.73333 0,-1.1c0,-0.16667 0,-0.33333 0,-0.5c-0.03333,-0.2 -0.08333,-0.38333 -0.15,-0.55c-0.06667,-0.16667 -0.13333,-0.35 -0.2,-0.55c-0.1,-0.16667 -0.21667,-0.35 -0.35,-0.55c0,-0.16667 0,-0.33333 0,-0.5c0,-0.2 0,-0.38333 0,-0.55c0,-0.16667 0,-0.35 0,-0.55c0,-0.33333 0,-0.68333 0,-1.05c0,-0.73333 0,-1.45 0,-2.15c0,-0.53333 0,-1.06667 0,-1.6c0,-0.53333 0,-1.06667 0,-1.6c0,-0.53333 0,-1.06667 0,-1.6c0,-0.53333 0,-1.08333 0,-1.65c0,-0.7 0,-1.4 0,-2.1c0,-0.2 0,-0.38333 0,-0.55c-0.06667,-0.16667 -0.11667,-0.35 -0.15,-0.55c-0.13333,0.13333 -0.26667,0.25 -0.4,0.35c-0.53333,0.2 -1.06667,0.38333 -1.6,0.55c-0.23333,0.13333 -0.46667,0.25 -0.7,0.35c-0.36667,0.13333 -0.71667,0.25 -1.05,0.35c-0.13333,0.13333 -0.26667,0.25 -0.4,0.35c-0.33333,0.13333 -0.68333,0.26667 -1.05,0.4c-0.23333,0.16667 -0.46667,0.33333 -0.7,0.5c-0.23333,0.13333 -0.48333,0.25 -0.75,0.35c-0.1,0.06667 -0.21667,0.13333 -0.35,0.2c-0.33333,0.13333 -0.68333,0.25 -1.05,0.35c-0.13333,0.13333 -0.25,0.25 -0.35,0.35c-0.5,0.13333 -0.98333,0.25 -1.45,0.35c-0.23333,0.13333 -0.46667,0.26667 -0.7,0.4c-0.46667,0.1 -0.95,0.21667 -1.45,0.35c-0.23333,0.1 -0.46667,0.21667 -0.7,0.35c-0.3,0.06667 -0.6,0.11667 -0.9,0.15c-0.6,0.13333 -1.18333,0.26667 -1.75,0.4c-0.36667,0.1 -0.73333,0.21667 -1.1,0.35c-1.73333,0 -3.46667,0 -5.2,0c0,0.16667 0,0.33333 0,0.5c0,0.2 0,0.38333 0,0.55c0,0.2 0,0.38333 0,0.55c0.06667,0.16667 0.13333,0.35 0.2,0.55c0.06667,0.16667 0.13333,0.33333 0.2,0.5c0.03333,0.2 0.08333,0.38333 0.15,0.55c0.06667,0.16667 0.13333,0.35 0.2,0.55c0,0.16667 0,0.33333 0,0.5c0,0.2 0,0.38333 0,0.55c0.1,0.2 0.21667,0.38333 0.35,0.55c0.06667,0.16667 0.11667,0.35 0.15,0.55c0.06667,0.16667 0.13333,0.33333 0.2,0.5c0,0.2 0,0.38333 0,0.55c0.06667,0.16667 0.13333,0.35 0.2,0.55c0.1,0.16667 0.21667,0.33333 0.35,0.5c0.03333,0.2 0.08333,0.38333 0.15,0.55c0,0.2 0,0.38333 0,0.55c0,0.16667 0,0.35 0,0.55c0,0.16667 0,0.33333 0,0.5c0,0.2 0,0.38333 0,0.55c0,0.16667 0,0.35 0,0.55c0.06667,0.16667 0.13333,0.33333 0.2,0.5c0.1,0.2 0.21667,0.38333 0.35,0.55c0.06667,0.2 0.13333,0.38333 0.2,0.55c0,0.16667 0,0.35 0,0.55c0.03333,0.16667 0.08333,0.33333 0.15,0.5c0.13333,0.2 0.25,0.38333 0.35,0.55c0.06667,0.16667 0.13333,0.35 0.2,0.55c0,0.16667 0,0.33333 0,0.5c0.06667,0.2 0.11667,0.38333 0.15,0.55c0.13333,0.16667 0.26667,0.35 0.4,0.55c0.03333,0.16667 0.08333,0.35 0.15,0.55c0,0.16667 0,0.33333 0,0.5c0,0.2 0,0.38333 0,0.55c-0.06667,0.16667 -0.11667,0.35 -0.15,0.55c-0.13333,0.16667 -0.26667,0.33333 -0.4,0.5c-0.1,0.13333 -0.21667,0.26667 -0.35,0.4c-0.06667,0.03333 -0.13333,0.06667 -0.2,0.1c-0.26667,0.1 -0.55,0.16667 -0.85,0.2c-1.3,0.13333 -2.61667,0.26667 -3.95,0.4c-0.33333,0.1 -0.68333,0.21667 -1.05,0.35c-1.06667,0.13333 -2.13333,0.25 -3.2,0.35c-0.36667,0.13333 -0.73333,0.25 -1.1,0.35c-1.06667,0.13333 -2.13333,0.25 -3.2,0.35c-0.36667,0.13333 -0.73333,0.26667 -1.1,0.4c-1.06667,0.1 -2.13333,0.21667 -3.2,0.35c-0.36667,0.1 -0.71667,0.21667 -1.05,0.35c-1.06667,0.1 -2.15,0.21667 -3.25,0.35c-0.33333,0.13333 -0.68333,0.25 -1.05,0.35c-1.06667,0.13333 -2.13333,0.25 -3.2,0.35c-0.36667,0.13333 -0.73333,0.25 -1.1,0.35c-2.26667,0.13333 -4.51667,0.26667 -6.75,0.4c-0.36667,0.1 -0.73333,0.21667 -1.1,0.35c-1.06667,0.1 -2.13333,0.21667 -3.2,0.35c-0.36667,0.1 -0.73333,0.21667 -1.1,0.35c-2.13333,0 -4.26667,0 -6.4,0c-0.43333,-0.13333 -0.85,-0.25 -1.25,-0.35c-0.13333,-0.13333 -0.25,-0.25 -0.35,-0.35c-0.36667,-0.13333 -0.73333,-0.25 -1.1,-0.35c-0.1,-0.2 -0.21667,-0.38333 -0.35,-0.55c-0.23333,-0.2 -0.46667,-0.38333 -0.7,-0.55c-0.13333,-0.16667 -0.25,-0.35 -0.35,-0.55c-0.06667,-0.16667 -0.13333,-0.33333 -0.2,-0.5c-0.06667,-0.2 -0.11667,-0.38333 -0.15,-0.55c-0.13333,-0.16667 -0.25,-0.35 -0.35,-0.55c-0.06667,-0.16667 -0.13333,-0.33333 -0.2,-0.5c-0.13333,-0.2 -0.25,-0.38333 -0.35,-0.55c-0.06667,-0.2 -0.13333,-0.38333 -0.2,-0.55c0,-0.16667 0,-0.35 0,-0.55c-0.06667,-0.16667 -0.11667,-0.33333 -0.15,-0.5c-0.2,-0.2 -0.38333,-0.38333 -0.55,-0.55c-0.13333,-0.16667 -0.25,-0.35 -0.35,-0.55c-0.13333,-0.16667 -0.25,-0.33333 -0.35,-0.5c0,-0.2 0,-0.38333 0,-0.55c-0.06667,-0.2 -0.13333,-0.38333 -0.2,-0.55c-0.06667,-0.16667 -0.11667,-0.35 -0.15,-0.55c-0.13333,-0.16667 -0.26667,-0.33333 -0.4,-0.5c0,-0.2 0,-0.38333 0,-0.55c0,-0.16667 0,-0.35 0,-0.55c0,-0.16667 0,-0.33333 0,-0.5c0,-0.2 0,-0.38333 0,-0.55c-0.1,-0.16667 -0.21667,-0.35 -0.35,-0.55c-0.06667,-0.16667 -0.11667,-0.35 -0.15,-0.55c-0.06667,-0.16667 -0.13333,-0.33333 -0.2,-0.5c0,-0.2 0,-0.38333 0,-0.55c-0.06667,-0.16667 -0.11667,-0.35 -0.15,-0.55c-0.13333,0.06667 -0.25,0.13333 -0.35,0.2c-0.06667,0.06667 -0.13333,0.11667 -0.2,0.15c-0.3,0.13333 -0.6,0.26667 -0.9,0.4c-0.13333,0.16667 -0.25,0.33333 -0.35,0.5c-0.06667,0.2 -0.13333,0.38333 -0.2,0.55c-0.1,0.16667 -0.21667,0.35 -0.35,0.55c-0.16667,0.16667 -0.35,0.33333 -0.55,0.5c-0.16667,0.2 -0.33333,0.38333 -0.5,0.55c-0.2,0.2 -0.38333,0.38333 -0.55,0.55c-0.16667,0.16667 -0.35,0.35 -0.55,0.55c-0.16667,0.16667 -0.33333,0.33333 -0.5,0.5c-0.36667,0.36667 -0.73333,0.73333 -1.1,1.1c-0.36667,0.33333 -0.71667,0.68333 -1.05,1.05c-0.36667,0.36667 -0.73333,0.73333 -1.1,1.1c-0.16667,0.16667 -0.33333,0.33333 -0.5,0.5c-0.26667,0.2 -0.51667,0.38333 -0.75,0.55c-0.1,0.13333 -0.21667,0.25 -0.35,0.35c-0.3,0.13333 -0.6,0.25 -0.9,0.35c-0.16667,0.2 -0.33333,0.38333 -0.5,0.55c-0.2,0.13333 -0.38333,0.25 -0.55,0.35c-0.06667,0.06667 -0.13333,0.11667 -0.2,0.15c-0.3,0.06667 -0.6,0.13333 -0.9,0.2c-0.3,0.13333 -0.58333,0.25 -0.85,0.35c-0.26667,0.2 -0.51667,0.38333 -0.75,0.55c-0.1,0.13333 -0.21667,0.25 -0.35,0.35c-0.36667,0.13333 -0.71667,0.25 -1.05,0.35c-0.13333,0.13333 -0.25,0.26667 -0.35,0.4c-0.5,0.1 -0.98333,0.21667 -1.45,0.35c-0.23333,0.1 -0.46667,0.21667 -0.7,0.35c-0.36667,0.1 -0.73333,0.21667 -1.1,0.35c-0.1,0.13333 -0.21667,0.25 -0.35,0.35c-0.3,0.06667 -0.6,0.13333 -0.9,0.2c-0.53333,0.1 -1.06667,0.21667 -1.6,0.35c-0.4,0.1 -0.81667,0.21667 -1.25,0.35c-0.36667,0.13333 -0.71667,0.25 -1.05,0.35c-0.36667,0.13333 -0.73333,0.25 -1.1,0.35c-0.76667,0.13333 -1.53333,0.26667 -2.3,0.4c-0.43333,0.1 -0.85,0.21667 -1.25,0.35c-3.56667,0 -7.13333,0 -10.7,0c-0.43333,-0.13333 -0.85,-0.26667 -1.25,-0.4c-1.73333,-0.1 -3.46667,-0.21667 -5.2,-0.35c-0.4,-0.1 -0.81667,-0.2 -1.25,-0.3c-0.76667,-0.13333 -1.53333,-0.28333 -2.3,-0.45c-0.43333,-0.1 -0.85,-0.2 -1.25,-0.3c-0.53333,-0.13333 -1.06667,-0.26667 -1.6,-0.4c-0.43333,-0.1 -0.85,-0.21667 -1.25,-0.35c-0.73333,-0.23333 -1.45,-0.46667 -2.15,-0.7c-0.13333,-0.1 -0.26667,-0.21667 -0.4,-0.35c-0.33333,-0.1 -0.68333,-0.21667 -1.05,-0.35c-0.13333,-0.13333 -0.25,-0.25 -0.35,-0.35c-0.36667,-0.13333 -0.73333,-0.25 -1.1,-0.35c-0.1,-0.13333 -0.21667,-0.25 -0.35,-0.35c-0.33333,-0.13333 -0.68333,-0.26667 -1.05,-0.4c-0.13333,-0.1 -0.25,-0.21667 -0.35,-0.35c-0.36667,-0.1 -0.73333,-0.21667 -1.1,-0.35c-0.1,-0.1 -0.21667,-0.21667 -0.35,-0.35c-0.33333,-0.13333 -0.68333,-0.25 -1.05,-0.35c-0.13333,-0.13333 -0.25,-0.25 -0.35,-0.35c-0.36667,-0.13333 -0.73333,-0.25 -1.1,-0.35c-0.1,-0.13333 -0.21667,-0.26667 -0.35,-0.4c-0.36667,-0.1 -0.71667,-0.21667 -1.05,-0.35c-0.13333,-0.1 -0.25,-0.21667 -0.35,-0.35c-0.36667,-0.1 -0.73333,-0.21667 -1.1,-0.35c-0.1,-0.16667 -0.21667,-0.35 -0.35,-0.55c-0.16667,-0.16667 -0.35,-0.33333 -0.55,-0.5c-0.23333,-0.2 -0.46667,-0.38333 -0.7,-0.55c-0.16667,-0.2 -0.35,-0.38333 -0.55,-0.55c-0.16667,-0.16667 -0.33333,-0.35 -0.5,-0.55c-0.2,-0.16667 -0.38333,-0.33333 -0.55,-0.5c-0.2,-0.2 -0.38333,-0.38333 -0.55,-0.55c-0.16667,-0.16667 -0.35,-0.35 -0.55,-0.55c-0.1,-0.1 -0.21667,-0.21667 -0.35,-0.35c-0.33333,-0.1 -0.68333,-0.21667 -1.05,-0.35c-0.13333,-0.16667 -0.25,-0.35 -0.35,-0.55c-0.13333,-0.16667 -0.25,-0.33333 -0.35,-0.5c-0.06667,-0.2 -0.13333,-0.38333 -0.2,-0.55c-0.43333,-0.16667 -0.85,-0.35 -1.25,-0.55c-0.13333,-0.16667 -0.25,-0.35 -0.35,-0.55c-0.2,-0.16667 -0.38333,-0.33333 -0.55,-0.5c-0.23333,-0.2 -0.46667,-0.38333 -0.7,-0.55c-0.2,-0.16667 -0.38333,-0.35 -0.55,-0.55c-0.1,-0.16667 -0.21667,-0.33333 -0.35,-0.5c-0.23333,-0.2 -0.46667,-0.38333 -0.7,-0.55c-0.13333,-0.16667 -0.25,-0.35 -0.35,-0.55c-0.26667,-0.16667 -0.51667,-0.35 -0.75,-0.55c-0.1,-0.16667 -0.21667,-0.33333 -0.35,-0.5c-0.1,-0.2 -0.21667,-0.38333 -0.35,-0.55c-0.06667,-0.16667 -0.13333,-0.35 -0.2,-0.55c-0.1,-0.16667 -0.21667,-0.33333 -0.35,-0.5c-0.06667,-0.2 -0.11667,-0.38333 -0.15,-0.55c-0.13333,-0.16667 -0.25,-0.35 -0.35,-0.55c-0.2,-0.16667 -0.38333,-0.35 -0.55,-0.55c-0.13333,-0.16667 -0.25,-0.33333 -0.35,-0.5c-0.06667,-0.2 -0.13333,-0.38333 -0.2,-0.55c-0.1,-0.16667 -0.21667,-0.35 -0.35,-0.55c-0.13333,-0.16667 -0.25,-0.33333 -0.35,-0.5c-0.06667,-0.2 -0.13333,-0.38333 -0.2,-0.55c-0.1,-0.16667 -0.21667,-0.35 -0.35,-0.55c-0.16667,-0.16667 -0.35,-0.35 -0.55,-0.55c-0.1,-0.16667 -0.21667,-0.33333 -0.35,-0.5c-0.06667,-0.2 -0.11667,-0.38333 -0.15,-0.55c-0.06667,-0.16667 -0.13333,-0.35 -0.2,-0.55c-0.1,-0.16667 -0.21667,-0.33333 -0.35,-0.5c-0.06667,-0.2 -0.13333,-0.38333 -0.2,-0.55c-0.1,-0.16667 -0.21667,-0.35 -0.35,-0.55c-0.06667,-0.16667 -0.11667,-0.35 -0.15,-0.55c-0.13333,-0.16667 -0.25,-0.33333 -0.35,-0.5c-0.13333,-0.2 -0.26667,-0.38333 -0.4,-0.55c0,-0.16667 0,-0.35 0,-0.55c-0.03333,-0.16667 -0.08333,-0.33333 -0.15,-0.5c-0.06667,-0.2 -0.13333,-0.38333 -0.2,-0.55c-0.1,-0.16667 -0.21667,-0.35 -0.35,-0.55c0,-0.16667 0,-0.35 0,-0.55c0,-0.16667 0,-0.33333 0,-0.5c0,-0.2 0,-0.38333 0,-0.55c-0.1,-0.16667 -0.21667,-0.35 -0.35,-0.55c-0.06667,-0.16667 -0.13333,-0.33333 -0.2,-0.5c-0.03333,-0.2 -0.08333,-0.38333 -0.15,-0.55c0,-0.16667 0,-0.35 0,-0.55c0,-0.16667 0,-0.35 0,-0.55c-0.06667,-0.16667 -0.13333,-0.33333 -0.2,-0.5c-0.1,-0.2 -0.21667,-0.38333 -0.35,-0.55c-0.06667,-0.16667 -0.11667,-0.35 -0.15,-0.55c0,-0.16667 0,-0.33333 0,-0.5c0,-0.2 0,-0.38333 0,-0.55c0,-0.16667 0,-0.35 0,-0.55c0,-0.16667 0,-0.35 0,-0.55c-0.06667,-0.16667 -0.13333,-0.33333 -0.2,-0.5c-0.13333,-0.2 -0.25,-0.38333 -0.35,-0.55c-0.06667,-0.16667 -0.13333,-0.35 -0.2,-0.55c0,-0.16667 0,-0.33333 0,-0.5c0,-0.2 0,-0.38333 0,-0.55c-0.06667,-0.16667 -0.11667,-0.35 -0.15,-0.55c-0.06667,-0.16667 -0.13333,-0.33333 -0.2,-0.5c-0.1,-0.2 -0.21667,-0.38333 -0.35,-0.55c0,-0.2 0,-0.38333 0,-0.55c0,-0.16667 0,-0.35 0,-0.55c0,-0.16667 0,-0.33333 0,-0.5c0,-0.2 0,-0.38333 0,-0.55c0,-0.16667 0,-0.35 0,-0.55c-0.06667,-0.16667 -0.13333,-0.33333 -0.2,-0.5c-0.03333,-0.2 -0.08333,-0.38333 -0.15,-0.55c-0.13333,-0.2 -0.25,-0.38333 -0.35,-0.55c0,-0.16667 0,-0.35 0,-0.55c0,-0.16667 0,-0.33333 0,-0.5c0,-0.2 0,-0.38333 0,-0.55c0,-0.16667 0,-0.35 0,-0.55c0,-0.16667 0,-0.33333 0,-0.5c0,-0.2 0,-0.38333 0,-0.55c0,-0.2 0,-0.38333 0,-0.55c0,-0.16667 0,-0.35 0,-0.55c-0.06667,-0.16667 -0.13333,-0.33333 -0.2,-0.5c-0.1,-0.2 -0.21667,-0.38333 -0.35,-0.55c-0.06667,-0.16667 -0.13333,-0.35 -0.2,-0.55c0,-0.16667 0,-0.33333 0,-0.5c0,-0.2 0,-0.38333 0,-0.55c0,-0.2 0,-0.38333 0,-0.55c0,-0.16667 0,-0.35 0,-0.55c0,-0.16667 0,-0.33333 0,-0.5c0,-0.2 0,-0.38333 0,-0.55c0,-0.16667 0,-0.35 0,-0.55c0,-0.16667 0,-0.33333 0,-0.5c0,-0.36667 0,-0.73333 0,-1.1c0,-0.16667 0,-0.35 0,-0.55c0.13333,-0.16667 0.26667,-0.33333 0.4,-0.5c0.03333,-0.2 0.08333,-0.38333 0.15,-0.55c0.06667,-0.16667 0.13333,-0.35 0.2,-0.55c0,-0.16667 0,-0.33333 0,-0.5c0,-0.2 0,-0.38333 0,-0.55c0,-0.2 0,-0.38333 0,-0.55c0,-0.16667 0,-0.35 0,-0.55c0,-0.16667 0,-0.33333 0,-0.5c0,-0.36667 0,-0.73333 0,-1.1c0,-0.33333 0,-0.68333 0,-1.05c0,-0.36667 0,-0.73333 0,-1.1c0,-0.16667 0,-0.33333 0,-0.5c0,-0.36667 0,-0.73333 0,-1.1c0,-0.16667 0,-0.33333 0,-0.5c0,-0.2 0,-0.38333 0,-0.55c0.1,-0.2 0.21667,-0.38333 0.35,-0.55c0.06667,-0.16667 0.11667,-0.35 0.15,-0.55c0.06667,-0.16667 0.13333,-0.33333 0.2,-0.5c0,-0.2 0,-0.38333 0,-0.55c0,-0.16667 0,-0.35 0,-0.55c0,-0.16667 0,-0.33333 0,-0.5c0.06667,-0.2 0.13333,-0.38333 0.2,-0.55c0.1,-0.2 0.21667,-0.38333 0.35,-0.55c0.03333,-0.16667 0.08333,-0.35 0.15,-0.55c0,-0.16667 0,-0.33333 0,-0.5c0,-0.2 0,-0.38333 0,-0.55c0,-0.16667 0,-0.35 0,-0.55c0.13333,-0.16667 0.25,-0.33333 0.35,-0.5c0.13333,-0.2 0.26667,-0.38333 0.4,-0.55c0.03333,-0.16667 0.08333,-0.35 0.15,-0.55c0.13333,-0.16667 0.25,-0.35 0.35,-0.55c0.06667,-0.16667 0.13333,-0.33333 0.2,-0.5c0,-0.2 0,-0.38333 0,-0.55c0.06667,-0.16667 0.11667,-0.35 0.15,-0.55c0.13333,-0.16667 0.26667,-0.33333 0.4,-0.5c0.16667,-0.2 0.33333,-0.38333 0.5,-0.55c0.13333,-0.16667 0.25,-0.35 0.35,-0.55c0.06667,-0.16667 0.13333,-0.35 0.2,-0.55c0.06667,-0.16667 0.13333,-0.33333 0.2,-0.5c0.1,-0.2 0.21667,-0.38333 0.35,-0.55c0.1,-0.16667 0.21667,-0.35 0.35,-0.55c0.1,-0.16667 0.21667,-0.33333 0.35,-0.5c0.16667,-0.2 0.35,-0.38333 0.55,-0.55c0.16667,-0.16667 0.33333,-0.35 0.5,-0.55c0.2,-0.16667 0.38333,-0.35 0.55,-0.55c0.13333,-0.16667 0.25,-0.33333 0.35,-0.5c0.06667,-0.2 0.13333,-0.38333 0.2,-0.55c0.1,-0.16667 0.21667,-0.35 0.35,-0.55c0.16667,-0.16667 0.35,-0.33333 0.55,-0.5c0.16667,-0.2 0.33333,-0.38333 0.5,-0.55c0.2,-0.16667 0.38333,-0.35 0.55,-0.55c0.16667,-0.16667 0.35,-0.35 0.55,-0.55c0.16667,-0.16667 0.35,-0.33333 0.55,-0.5c0.33333,-0.36667 0.68333,-0.73333 1.05,-1.1c0.36667,-0.33333 0.71667,-0.68333 1.05,-1.05c0.2,-0.16667 0.38333,-0.35 0.55,-0.55c0.36667,-0.16667 0.73333,-0.35 1.1,-0.55c0.23333,-0.16667 0.46667,-0.33333 0.7,-0.5c0.06667,-0.2 0.11667,-0.38333 0.15,-0.55c0.13333,-0.16667 0.26667,-0.35 0.4,-0.55c0.1,-0.16667 0.21667,-0.33333 0.35,-0.5c0.16667,-0.2 0.33333,-0.38333 0.5,-0.55c0.26667,-0.16667 0.51667,-0.35 0.75,-0.55c0.33333,-0.16667 0.68333,-0.33333 1.05,-0.5c0.43333,-0.2 0.85,-0.38333 1.25,-0.55z" fill="#ffffff"/><path d="M486.15541,354.21832c1.06667,8.63333 0.35,17.13333 -2.15,25.5c-2.63333,8.83333 -7.98333,15.41667 -16.05,19.75c-10.1,5.4 -20.6,6.86667 -31.5,4.4c-14.4,-3.26667 -23.8,-12.06667 -28.2,-26.4c-5.3,-17.36667 -2.01667,-32.98333 9.85,-46.85c6.6,-6.73333 14.58333,-10.71667 23.95,-11.95c6.63333,-0.8 13,0.05 19.1,2.55c14.73333,6.13333 23.06667,17.13333 25,33M436.50541,349.76832c-5.43333,5.9 -7.13333,12.96667 -5.1,21.2c1.26667,5.06667 4.33333,7.76667 9.2,8.1c4.8,0.56667 8.85,-0.81667 12.15,-4.15c5.83333,-5.83333 6.03333,-12.06667 0.6,-18.7c-3.2,-4.6 -7.53333,-7.18333 -13,-7.75c-1.53333,-0.3 -2.81667,0.13333 -3.85,1.3M550.55541,354.26832c0,3.7 -1.25,6.95 -3.75,9.75c-5.26667,6 -12,9 -20.2,9c-3.53333,-0.4 -5.71667,-0.06667 -6.55,1l6.95,26.9l-31,2.4c-0.3,-0.46667 -0.51667,-0.95 -0.65,-1.45c-4.16667,-15 -6.35,-30.33333 -6.55,-46c-0.06667,-4.53333 -0.33333,-9.06667 -0.8,-13.6c-0.63333,-5.9 0.11667,-11.35 2.25,-16.35c0.16667,0.36667 0.35,0.61667 0.55,0.75c1,0.03333 2.01667,-0.06667 3.05,-0.3c11.96667,-1.63333 23.7,-0.75 35.2,2.65c12.96667,3.96667 20.13333,12.38333 21.5,25.25M512.15541,355.66832l11.1,-1.45c-0.26667,-2.4 -1.6,-4.23333 -4,-5.5c-3.6,-1.86667 -6.78333,-2.23333 -9.55,-1.1l2.45,8.05M640.95541,367.66832c5.8,6.13333 8.08333,13.73333 6.85,22.8l-2,5.45l-20.25,2.05c-0.73333,-0.63333 -1.15,-1.41667 -1.25,-2.35c-1.06667,-9.73333 -0.53333,-19.2 1.6,-28.4l2.25,-0.2c0.46667,0.56667 0.85,0.81667 1.15,0.75c2.63333,-0.73333 5.31667,-1.25 8.05,-1.55c1.46667,-0.06667 2.66667,0.41667 3.6,1.45M614.90541,336.46832l3.4,26.15l-18.9,3.9l6.85,29.35l-35,2.45c-0.7,-0.36667 -1.11667,-0.85 -1.25,-1.45c-2.4,-10.66667 -2.25,-21.46667 0.45,-32.4l-16.3,3c-2.03333,-3.13333 -2.75,-6.75 -2.15,-10.85c1.06667,-7.06667 -0.11667,-13.4 -3.55,-19c0.66667,-1.36667 1.86667,-2.2 3.6,-2.5c4.9,-1.06667 9.9,-1.98333 15,-2.75c15.56667,-2.03333 30.96667,-2.01667 46.2,0.05l1.65,4.05M641.35541,341.31832c2.23333,2.23333 3.35,4.91667 3.35,8.05c0,3.13333 -1.11667,5.81667 -3.35,8.05c-2.23333,2.23333 -4.91667,3.35 -8.05,3.35c-3.13333,0 -5.81667,-1.11667 -8.05,-3.35c-2.23333,-2.23333 -3.35,-4.91667 -3.35,-8.05c0,-3.13333 1.11667,-5.81667 3.35,-8.05c2.23333,-2.23333 4.91667,-3.35 8.05,-3.35c3.13333,0 5.81667,1.11667 8.05,3.35M720.45541,366.01832c-0.13333,1.46667 -0.31667,2.93333 -0.55,4.4c-0.9,5.46667 -3.36667,10.08333 -7.4,13.85c-11.36667,10.6 -24.96667,14.73333 -40.8,12.4c-2.7,-0.46667 -5.06667,-1.6 -7.1,-3.4c-9.63333,-8.5 -13.3,-19.41667 -11,-32.75c1.43333,-8.4 4.96667,-15.66667 10.6,-21.8c5.96667,-6.43333 13.51667,-9.2 22.65,-8.3c4.2,0.53333 8.26667,1.68333 12.2,3.45c13.7,6.16667 20.83333,16.88333 21.4,32.15M688.95541,357.01832l-6.75,1.75l-2,-1.15c-0.33333,-1.13333 -0.96667,-0.85 -1.9,0.85c-3.6,6.6 -2.2,12 4.2,16.2c0.6,0.36667 1.28333,0.65 2.05,0.85c6.43333,-0.66667 9.96667,-4.55 10.6,-11.65l-6.2,-6.85M796.45541,329.31832c1.33333,0.3 2.01667,1.11667 2.05,2.45c0.33333,21.6 0.36667,43.06667 0.1,64.4l-23.35,2.4l-25.95,-24.45l2.85,19c-1.76667,1.56667 -3.91667,2.46667 -6.45,2.7c-6.36667,1.03333 -12.21667,0.68333 -17.55,-1.05c-2.66667,-12.83333 -3.65,-25.9 -2.95,-39.2c0.33333,-6.3 0.45,-11.88333 0.35,-16.75l2.4,-2.8l19.95,-3.5l3.35,0.5l21.6,26.75l-6.5,-25l28.4,-3.15l1.7,-2.3M826.80541,352.76832c4.43333,3.26667 9.15,4.06667 14.15,2.4c5.7,-1.9 11.23333,-1.25 16.6,1.95c1.93333,1.13333 3.63333,2.45 5.1,3.95c7.4,7.76667 8.21667,16.15 2.45,25.15c-1.63333,2.5 -3.7,4.58333 -6.2,6.25c-13.86667,9.33333 -29.06667,11.58333 -45.6,6.75c-1.2,-0.4 -2.13333,-1.16667 -2.8,-2.3c-4.36667,-7.2 -5.7,-15.28333 -4,-24.25l2,-1.55c0.6,-0.03333 1.13333,0.13333 1.6,0.5c0.46667,0.43333 0.96667,0.78333 1.5,1.05c6.56667,2.96667 13.53333,3.75 20.9,2.35c4.4,-0.96667 6.93333,-2.98333 7.6,-6.05c-1.76667,-0.96667 -3.7,-1.56667 -5.8,-1.8c-6.16667,-0.76667 -12.35,-1.45 -18.55,-2.05c-1.93333,-0.23333 -3.55,-1.1 -4.85,-2.6c-4.8,-5.66667 -5.5,-12.31667 -2.1,-19.95c0.63333,-1.46667 1.6,-2.73333 2.9,-3.8c10.83333,-8.86667 23.08333,-11.56667 36.75,-8.1c1.36667,0.36667 2.48333,1.18333 3.35,2.45c3.96667,5.76667 3.8,11.45 -0.5,17.05z" fill="#000000"/></g></g></svg>