<svg version="1.1" xmlns="http://www.w3.org/2000/svg" xmlns:xlink="http://www.w3.org/1999/xlink" width="57.45096" height="62.25" viewBox="0,0,57.45096,62.25"><g transform="translate(-608.10811,-337.83784)"><g data-paper-data="{&quot;isPaintingLayer&quot;:true}" fill-rule="nonzero" stroke="none" stroke-width="1" stroke-linecap="butt" stroke-linejoin="miter" stroke-miterlimit="10" stroke-dasharray="" stroke-dashoffset="0" style="mix-blend-mode: normal"><path d="M663.05811,347.78784c1.7,1.1 2.53333,2.61667 2.5,4.55c-0.03333,1.06667 -0.35,1.88333 -0.95,2.45c0,0.03333 0.01667,0.06667 0.05,0.1c0,0.1 0,0.2 0,0.3c0,0.1 0,0.18333 0,0.25c0,0.1 0,0.2 0,0.3c0,0.06667 0,0.15 0,0.25c-0.06667,0.16667 -0.13333,0.35 -0.2,0.55c-0.1,0.33333 -0.21667,0.68333 -0.35,1.05c-0.06667,0.16667 -0.13333,0.35 -0.2,0.55c0,0.16667 0,0.33333 0,0.5c-0.03333,0.26667 -0.08333,0.53333 -0.15,0.8c-0.06667,0.2 -0.13333,0.38333 -0.2,0.55c0,0.36667 -0.05,0.71667 -0.15,1.05c-0.2,0.53333 -0.33333,1.08333 -0.4,1.65c0,0.1 -0.01667,0.18333 -0.05,0.25c0,0.1 0,0.2 0,0.3c0,0.06667 0,0.15 0,0.25c-0.1,0.26667 -0.2,0.53333 -0.3,0.8c-0.16667,0.43333 -0.33333,0.88333 -0.5,1.35c-0.03333,0.06667 -0.06667,0.15 -0.1,0.25c0,0.1 0,0.18333 0,0.25c0,0.1 0,0.2 0,0.3c0,0.1 0,0.18333 0,0.25c-1.53333,4.4 -3.05,8.78333 -4.55,13.15c-1.1,3.16667 -2.11667,6.36667 -3.05,9.6c0,0.1 0,0.2 0,0.3c0,0.1 0,0.18333 0,0.25c-0.06667,0.4 -0.2,0.76667 -0.4,1.1c-0.23333,0.5 -0.41667,1.03333 -0.55,1.6c0,0.06667 -0.03333,0.15 -0.1,0.25c0,0.1 0,0.18333 0,0.25c0,0.1 0,0.2 0,0.3c0,0.1 0,0.18333 0,0.25c-0.06667,0.2 -0.11667,0.38333 -0.15,0.55c-0.1,0.3 -0.21667,0.56667 -0.35,0.8c-0.06667,0.1 -0.11667,0.18333 -0.15,0.25c0,0.1 0,0.2 0,0.3c0,0.16667 0,0.33333 0,0.5c0,0.2 0,0.38333 0,0.55c-0.1,0.26667 -0.2,0.53333 -0.3,0.8c-0.16667,0.46667 -0.38333,0.91667 -0.65,1.35c-0.06667,0.1 -0.13333,0.18333 -0.2,0.25c-0.3,0.3 -0.63333,0.53333 -1,0.7c-0.4,0.13333 -0.81667,0.23333 -1.25,0.3c-0.4,-0.1 -0.8,-0.2 -1.2,-0.3c-0.2,-0.06667 -0.38333,-0.15 -0.55,-0.25c-0.1,-0.06667 -0.2,-0.15 -0.3,-0.25c-0.16667,-0.16667 -0.33333,-0.35 -0.5,-0.55c-0.1,-0.06667 -0.2,-0.15 -0.3,-0.25c-0.16667,-0.23333 -0.3,-0.5 -0.4,-0.8c-0.1,-0.4 -0.28333,-0.76667 -0.55,-1.1c-0.03333,-0.06667 -0.06667,-0.15 -0.1,-0.25c-0.5,-0.46667 -0.93333,-0.98333 -1.3,-1.55c-0.36667,-0.53333 -0.65,-1.08333 -0.85,-1.65c-0.36667,-0.33333 -0.66667,-0.7 -0.9,-1.1c-0.23333,-0.4 -0.53333,-0.75 -0.9,-1.05c-0.06667,-0.1 -0.11667,-0.2 -0.15,-0.3c-0.03333,-0.06667 -0.06667,-0.15 -0.1,-0.25c-0.06667,-0.16667 -0.13333,-0.35 -0.2,-0.55c-0.03333,-0.06667 -0.1,-0.15 -0.2,-0.25c-0.16667,-0.16667 -0.33333,-0.35 -0.5,-0.55c-0.1,-0.06667 -0.18333,-0.15 -0.25,-0.25c-0.06667,-0.1 -0.13333,-0.2 -0.2,-0.3c-0.03333,-0.06667 -0.06667,-0.15 -0.1,-0.25c-0.03333,-0.16667 -0.08333,-0.33333 -0.15,-0.5c-0.06667,-0.1 -0.13333,-0.18333 -0.2,-0.25c-0.16667,-0.2 -0.35,-0.4 -0.55,-0.6c-0.06667,-0.06667 -0.15,-0.15 -0.25,-0.25c-0.06667,-0.1 -0.11667,-0.18333 -0.15,-0.25c-0.03333,-0.1 -0.06667,-0.2 -0.1,-0.3c-0.06667,-0.16667 -0.13333,-0.33333 -0.2,-0.5c-0.33333,-0.43333 -0.66667,-0.88333 -1,-1.35c-0.33333,-0.43333 -0.68333,-0.85 -1.05,-1.25c-0.53333,0.9 -1.06667,1.8 -1.6,2.7c-0.5,0.86667 -1.06667,1.66667 -1.7,2.4c-0.13333,0.36667 -0.28333,0.71667 -0.45,1.05c-0.26667,0.5 -0.61667,0.95 -1.05,1.35c-0.06667,0.1 -0.11667,0.18333 -0.15,0.25c-0.06667,0.1 -0.11667,0.18333 -0.15,0.25c-0.03333,0.1 -0.08333,0.2 -0.15,0.3c-0.36667,0.3 -0.66667,0.65 -0.9,1.05c-0.23333,0.4 -0.53333,0.76667 -0.9,1.1c-0.43333,0.7 -0.85,1.41667 -1.25,2.15c-0.43333,0.8 -1,1.51667 -1.7,2.15c-0.1,0.26667 -0.25,0.51667 -0.45,0.75c-0.4,0.46667 -0.86667,0.83333 -1.4,1.1c-0.63333,0.2 -1.26667,0.21667 -1.9,0.05c-0.36667,-0.13333 -0.75,-0.26667 -1.15,-0.4c-0.66667,-0.6 -1.11667,-1.31667 -1.35,-2.15c-0.26667,-0.8 -0.53333,-1.6 -0.8,-2.4c0,-0.1 0,-0.2 0,-0.3c0,-0.06667 0,-0.15 0,-0.25c-0.3,-0.66667 -0.53333,-1.38333 -0.7,-2.15c-0.2,-0.9 -0.43333,-1.78333 -0.7,-2.65c0,-0.1 0,-0.2 0,-0.3c0,-0.06667 0,-0.15 0,-0.25c-0.06667,-0.1 -0.11667,-0.2 -0.15,-0.3c-0.06667,-0.16667 -0.11667,-0.33333 -0.15,-0.5c-0.1,-0.26667 -0.13333,-0.53333 -0.1,-0.8c-0.16667,-0.63333 -0.35,-1.26667 -0.55,-1.9c-0.23333,-0.8 -0.48333,-1.6 -0.75,-2.4c0,-0.1 0,-0.18333 0,-0.25c0,-0.1 0,-0.2 0,-0.3c-0.2,-0.4 -0.36667,-0.83333 -0.5,-1.3c-0.16667,-0.63333 -0.33333,-1.26667 -0.5,-1.9c-0.03333,-0.1 -0.06667,-0.18333 -0.1,-0.25c0,-0.1 0,-0.2 0,-0.3c0,-0.06667 0,-0.15 0,-0.25c-0.03333,-0.1 -0.06667,-0.18333 -0.1,-0.25c0,-0.1 -0.01667,-0.2 -0.05,-0.3c-0.03333,-0.06667 -0.06667,-0.15 -0.1,-0.25c0,-0.1 0,-0.18333 0,-0.25c0,-0.1 0,-0.2 0,-0.3c0,-0.06667 0,-0.15 0,-0.25c0,-0.1 0,-0.18333 0,-0.25c0,-0.1 -0.01667,-0.18333 -0.05,-0.25c-0.03333,-0.1 -0.06667,-0.2 -0.1,-0.3c-0.1,-0.16667 -0.16667,-0.35 -0.2,-0.55c0,-0.1 0,-0.18333 0,-0.25c0,-0.1 0,-0.2 0,-0.3c-0.03333,-0.06667 -0.06667,-0.15 -0.1,-0.25c-0.06667,-0.16667 -0.13333,-0.35 -0.2,-0.55c-0.1,-0.23333 -0.11667,-0.5 -0.05,-0.8c-0.03333,-0.06667 -0.06667,-0.15 -0.1,-0.25c-0.03333,-0.1 -0.06667,-0.18333 -0.1,-0.25c-0.03333,-0.1 -0.06667,-0.2 -0.1,-0.3c0,-0.06667 0,-0.15 0,-0.25c0,-0.1 0,-0.18333 0,-0.25c-0.06667,-0.1 -0.11667,-0.2 -0.15,-0.3c-0.03333,-0.1 -0.06667,-0.18333 -0.1,-0.25c-0.03333,-0.1 -0.06667,-0.2 -0.1,-0.3c0,-0.06667 0,-0.15 0,-0.25c0,-0.1 0,-0.18333 0,-0.25c0,-0.1 0,-0.2 0,-0.3c0,-0.06667 0,-0.15 0,-0.25c-0.03333,-0.1 -0.06667,-0.18333 -0.1,-0.25c-0.03333,-0.1 -0.06667,-0.2 -0.1,-0.3c0,-0.06667 -0.01667,-0.15 -0.05,-0.25c0,-0.1 0,-0.18333 0,-0.25c0,-0.1 0,-0.2 0,-0.3c-0.06667,-0.06667 -0.13333,-0.15 -0.2,-0.25c-0.03333,-0.1 -0.06667,-0.18333 -0.1,-0.25c-0.03333,-0.1 -0.05,-0.2 -0.05,-0.3c0,-0.1 0,-0.18333 0,-0.25c0,-0.1 0,-0.2 0,-0.3c0,-0.06667 0,-0.15 0,-0.25c0,-0.1 0,-0.18333 0,-0.25c-0.03333,-0.1 -0.06667,-0.2 -0.1,-0.3c-0.03333,-0.06667 -0.06667,-0.15 -0.1,-0.25c-0.03333,-0.1 -0.06667,-0.18333 -0.1,-0.25c0,-0.1 0,-0.2 0,-0.3c0,-0.16667 0,-0.33333 0,-0.5c0,-0.2 0,-0.38333 0,-0.55c-0.03333,-0.1 -0.06667,-0.18333 -0.1,-0.25c0,-0.1 -0.01667,-0.2 -0.05,-0.3c-0.06667,-0.16667 -0.13333,-0.35 -0.2,-0.55c0,-0.06667 0,-0.15 0,-0.25c0,-0.1 0,-0.18333 0,-0.25c0,-0.1 0,-0.2 0,-0.3c-0.03333,-0.06667 -0.06667,-0.15 -0.1,-0.25c-0.03333,-0.1 -0.06667,-0.18333 -0.1,-0.25c0,-0.1 -0.01667,-0.2 -0.05,-0.3c0,-0.06667 0,-0.15 0,-0.25c0,-0.1 0,-0.18333 0,-0.25c0,-0.1 0,-0.2 0,-0.3c-0.03333,-0.06667 -0.06667,-0.15 -0.1,-0.25c-0.03333,-0.1 -0.06667,-0.18333 -0.1,-0.25c-0.03333,-0.1 -0.06667,-0.2 -0.1,-0.3c0,-0.16667 0,-0.35 0,-0.55c0,-0.26667 0,-0.53333 0,-0.8c0,-0.16667 0,-0.33333 0,-0.5c-0.03333,-0.1 -0.05,-0.2 -0.05,-0.3c-0.03333,-0.06667 -0.06667,-0.15 -0.1,-0.25c-0.03333,-0.1 -0.06667,-0.18333 -0.1,-0.25c0,-0.1 0,-0.2 0,-0.3c0,-0.06667 0,-0.15 0,-0.25c0,-0.1 0,-0.18333 0,-0.25c0,-0.1 0,-0.2 0,-0.3c-0.03333,-0.06667 -0.06667,-0.15 -0.1,-0.25c-0.03333,-0.1 -0.06667,-0.2 -0.1,-0.3c0,-0.06667 -0.01667,-0.15 -0.05,-0.25c0,-0.1 0,-0.18333 0,-0.25c0,-0.1 0,-0.2 0,-0.3c0,-0.06667 -0.01667,-0.15 -0.05,-0.25c-0.03333,-0.1 -0.08333,-0.18333 -0.15,-0.25c-0.06667,-0.1 -0.13333,-0.2 -0.2,-0.3c0,-0.06667 0,-0.15 0,-0.25c0,-0.1 -0.03333,-0.18333 -0.1,-0.25c-0.03333,-0.1 -0.08333,-0.2 -0.15,-0.3c-0.03333,-0.06667 -0.06667,-0.15 -0.1,-0.25c0,-0.1 0,-0.18333 0,-0.25c0,-0.1 0,-0.2 0,-0.3c-0.06667,-0.16667 -0.15,-0.33333 -0.25,-0.5c-0.06667,-0.1 -0.11667,-0.2 -0.15,-0.3c-0.03333,-0.1 -0.08333,-0.18333 -0.15,-0.25c-0.03333,-0.1 -0.08333,-0.2 -0.15,-0.3c-0.36667,-0.3 -0.68333,-0.65 -0.95,-1.05c-0.33333,-0.5 -0.5,-1.03333 -0.5,-1.6c0,-0.16667 0,-0.35 0,-0.55c0.1,-0.26667 0.21667,-0.51667 0.35,-0.75c0.26667,-0.53333 0.61667,-0.98333 1.05,-1.35c0.23333,-0.2 0.48333,-0.38333 0.75,-0.55c0.16667,-0.3 0.38333,-0.56667 0.65,-0.8c0.43333,-0.4 0.93333,-0.68333 1.5,-0.85c0.2,-0.16667 0.41667,-0.33333 0.65,-0.5c0.13333,-0.1 0.28333,-0.18333 0.45,-0.25c0.2,-0.1 0.4,-0.2 0.6,-0.3c2.06667,-1.4 4.13333,-2.85 6.2,-4.35c0.73333,-0.5 1.5,-0.78333 2.3,-0.85c1.03333,0 1.9,0.38333 2.6,1.15c0.56667,0.6 0.85,1.3 0.85,2.1c0,0.06667 0,0.15 0,0.25c-0.03333,0.1 -0.05,0.18333 -0.05,0.25c0,0.1 0.01667,0.2 0.05,0.3c0.03333,0.06667 0.06667,0.15 0.1,0.25c0.03333,0.1 0.06667,0.2 0.1,0.3c0,0.06667 0,0.15 0,0.25c0,0.1 0,0.18333 0,0.25c0,0.1 0,0.2 0,0.3c0,0.06667 0,0.15 0,0.25c0,0.1 0,0.18333 0,0.25c0.03333,0.1 0.06667,0.2 0.1,0.3c0.03333,0.06667 0.06667,0.15 0.1,0.25c0,0.1 0.01667,0.18333 0.05,0.25c0,0.1 0,0.2 0,0.3c0,0.06667 0,0.15 0,0.25c0,0.1 0,0.18333 0,0.25c0,0.1 0,0.2 0,0.3c0.03333,0.06667 0.06667,0.15 0.1,0.25c0.03333,0.1 0.06667,0.2 0.1,0.3c0.03333,0.06667 0.06667,0.15 0.1,0.25c0,0.1 0,0.18333 0,0.25c0,0.1 0,0.2 0,0.3c0.03333,0.06667 0.05,0.15 0.05,0.25c0.03333,0.1 0.06667,0.18333 0.1,0.25c0.03333,0.1 0.06667,0.2 0.1,0.3c0,0.06667 0,0.15 0,0.25c0,0.1 0,0.18333 0,0.25c0,0.1 0,0.2 0,0.3c0,0.06667 0,0.15 0,0.25c0,0.1 0,0.18333 0,0.25c0.03333,0.1 0.06667,0.2 0.1,0.3c0.03333,0.06667 0.06667,0.15 0.1,0.25c0,0.1 0.01667,0.2 0.05,0.3c0,0.06667 0,0.15 0,0.25c0,0.1 0,0.18333 0,0.25c0.1,0.36667 0.21667,0.71667 0.35,1.05c0.26667,0.63333 0.46667,1.26667 0.6,1.9c0.06667,0.26667 0.15,0.53333 0.25,0.8c0,0.1 0,0.2 0,0.3c0,0.06667 0,0.15 0,0.25c0.13333,0.33333 0.26667,0.68333 0.4,1.05c0.16667,0.53333 0.33333,1.06667 0.5,1.6c0.06667,0.26667 0.08333,0.55 0.05,0.85c0,0.06667 0.01667,0.15 0.05,0.25c0.03333,0.1 0.06667,0.18333 0.1,0.25c0.06667,0.1 0.11667,0.2 0.15,0.3c0,0.06667 0.01667,0.15 0.05,0.25c0,0.1 0,0.18333 0,0.25c0,0.1 0,0.2 0,0.3c0,0.06667 0,0.15 0,0.25c-0.03333,0.1 -0.05,0.18333 -0.05,0.25c0,0.1 0,0.2 0,0.3c0,0.06667 0,0.15 0,0.25c0,0.1 0.03333,0.18333 0.1,0.25c0.03333,0.1 0.06667,0.2 0.1,0.3c0.03333,0.1 0.06667,0.16667 0.1,0.2c0.03333,0.03333 0.08333,0.05 0.15,0.05c0.03333,-0.16667 0.08333,-0.35 0.15,-0.55c0.06667,-0.16667 0.13333,-0.33333 0.2,-0.5c0.13333,-0.26667 0.28333,-0.53333 0.45,-0.8c0.06667,-0.1 0.15,-0.2 0.25,-0.3c0.26667,-0.7 0.51667,-1.41667 0.75,-2.15c0.4,-1.16667 0.83333,-2.31667 1.3,-3.45c0.03333,-0.1 0.06667,-0.2 0.1,-0.3c0,-0.06667 0,-0.15 0,-0.25c0,-0.1 0,-0.18333 0,-0.25c0.13333,-0.36667 0.28333,-0.73333 0.45,-1.1c0.23333,-0.53333 0.51667,-1.05 0.85,-1.55c0.13333,-0.26667 0.23333,-0.55 0.3,-0.85c0.13333,-0.16667 0.28333,-0.33333 0.45,-0.5c0.1,-0.1 0.2,-0.18333 0.3,-0.25c0.2,-0.16667 0.43333,-0.33333 0.7,-0.5c0.46667,-0.16667 0.95,-0.2 1.45,-0.1c0.43333,0.1 0.86667,0.23333 1.3,0.4c1.76667,1.76667 3.08333,3.81667 3.95,6.15c0.66667,1.76667 1.31667,3.48333 1.95,5.15c0.06667,-0.13333 0.13333,-0.28333 0.2,-0.45c0.06667,-0.16667 0.13333,-0.33333 0.2,-0.5c0.13333,-0.23333 0.23333,-0.5 0.3,-0.8c0.03333,-0.1 0.06667,-0.2 0.1,-0.3c0.46667,-2.36667 1.06667,-4.7 1.8,-7c0.73333,-2.3 1.55,-4.6 2.45,-6.9c-0.03333,-0.3 -0.01667,-0.58333 0.05,-0.85c0.03333,-0.26667 0.11667,-0.51667 0.25,-0.75c0.23333,-0.36667 0.43333,-0.73333 0.6,-1.1c0.1,-0.1 0.2,-0.18333 0.3,-0.25c0.06667,-0.1 0.15,-0.2 0.25,-0.3c0.1,-0.06667 0.18333,-0.15 0.25,-0.25c3.03333,-0.66667 5.66667,0.33333 7.9,3c1.13333,1.36667 2.23333,2.78333 3.3,4.25M654.45811,350.63784c-0.4,1.1 -0.85,2.16667 -1.35,3.2c-0.03333,0.1 -0.08333,0.18333 -0.15,0.25c-0.63333,2.2 -1.36667,4.35 -2.2,6.45c-0.83333,2.03333 -1.65,4.08333 -2.45,6.15c0,0.1 0,0.18333 0,0.25c-0.03333,0.1 -0.06667,0.2 -0.1,0.3c-0.03333,0.1 -0.06667,0.18333 -0.1,0.25c-0.03333,0.1 -0.08333,0.2 -0.15,0.3c0,0.06667 0,0.15 0,0.25c0,0.1 0,0.18333 0,0.25c-0.03333,0.1 -0.06667,0.2 -0.1,0.3c-0.03333,0.06667 -0.06667,0.15 -0.1,0.25c-0.03333,0.1 -0.06667,0.18333 -0.1,0.25c-0.03333,0.1 -0.08333,0.2 -0.15,0.3c-0.06667,0.06667 -0.13333,0.15 -0.2,0.25c-0.1,0.1 -0.21667,0.18333 -0.35,0.25c-0.1,0.06667 -0.21667,0.13333 -0.35,0.2c-0.1,0.03333 -0.18333,0.06667 -0.25,0.1c-0.2,0.03333 -0.38333,0.06667 -0.55,0.1c-0.26667,-0.06667 -0.53333,-0.15 -0.8,-0.25c-0.16667,-0.06667 -0.35,-0.13333 -0.55,-0.2c-0.06667,-0.1 -0.15,-0.2 -0.25,-0.3c-0.1,-0.06667 -0.2,-0.15 -0.3,-0.25c-0.06667,-0.1 -0.15,-0.18333 -0.25,-0.25c-0.1,-0.2 -0.18333,-0.38333 -0.25,-0.55c-0.03333,-0.1 -0.06667,-0.18333 -0.1,-0.25c-0.06667,-0.2 -0.13333,-0.38333 -0.2,-0.55c-0.03333,-0.2 -0.08333,-0.38333 -0.15,-0.55c0,-0.1 0,-0.18333 0,-0.25c0,-0.1 0,-0.2 0,-0.3c-0.13333,-0.23333 -0.26667,-0.48333 -0.4,-0.75c-0.13333,-0.26667 -0.26667,-0.53333 -0.4,-0.8c-0.13333,-0.26667 -0.23333,-0.55 -0.3,-0.85c0,-0.06667 0,-0.15 0,-0.25c0,-0.1 0,-0.2 0,-0.3c-0.06667,-0.16667 -0.15,-0.33333 -0.25,-0.5c-0.1,-0.2 -0.18333,-0.38333 -0.25,-0.55c-0.1,-0.3 -0.25,-0.56667 -0.45,-0.8c0,-0.3 -0.06667,-0.56667 -0.2,-0.8c-0.13333,-0.33333 -0.28333,-0.68333 -0.45,-1.05c-0.13333,-0.33333 -0.18333,-0.7 -0.15,-1.1c-0.03333,-0.1 -0.08333,-0.18333 -0.15,-0.25c-0.06667,-0.1 -0.13333,-0.2 -0.2,-0.3c-0.06667,-0.06667 -0.13333,-0.15 -0.2,-0.25c-0.03333,-0.1 -0.06667,-0.18333 -0.1,-0.25c-0.03333,-0.1 -0.06667,-0.2 -0.1,-0.3c0,-0.06667 0,-0.15 0,-0.25c0,-0.1 0,-0.18333 0,-0.25c0,-0.1 -0.03333,-0.2 -0.1,-0.3c-0.03333,-0.06667 -0.06667,-0.15 -0.1,-0.25c-0.03333,-0.1 -0.05,-0.18333 -0.05,-0.25c-0.03333,-0.1 -0.06667,-0.2 -0.1,-0.3c-0.1,-0.16667 -0.21667,-0.35 -0.35,-0.55c-0.06667,-0.06667 -0.11667,-0.15 -0.15,-0.25c-0.03333,-0.1 -0.06667,-0.18333 -0.1,-0.25c-0.03333,-0.1 -0.06667,-0.2 -0.1,-0.3c-0.03333,-0.06667 -0.08333,-0.13333 -0.15,-0.2c-0.06667,-0.13333 -0.16667,-0.2 -0.3,-0.2c-0.1,-0.03333 -0.18333,-0.01667 -0.25,0.05c-0.16667,0.26667 -0.3,0.53333 -0.4,0.8c-0.1,0.36667 -0.21667,0.71667 -0.35,1.05c-0.16667,0.4 -0.33333,0.76667 -0.5,1.1c0,0.1 0,0.18333 0,0.25c0,0.1 0,0.2 0,0.3c-0.2,0.43333 -0.38333,0.86667 -0.55,1.3c-0.33333,0.8 -0.68333,1.6 -1.05,2.4c-0.1,0.2 -0.23333,0.4 -0.4,0.6c-0.13333,0.43333 -0.3,0.86667 -0.5,1.3c-0.3,0.73333 -0.63333,1.43333 -1,2.1c-0.1,0.23333 -0.21667,0.43333 -0.35,0.6c-0.16667,0.33333 -0.28333,0.68333 -0.35,1.05c-0.16667,0.56667 -0.41667,1.1 -0.75,1.6c-0.1,0.2 -0.21667,0.38333 -0.35,0.55c-0.1,0.1 -0.21667,0.18333 -0.35,0.25c-0.13333,0.06667 -0.28333,0.13333 -0.45,0.2c-0.16667,0.03333 -0.33333,0.06667 -0.5,0.1c-0.13333,0 -0.25,-0.01667 -0.35,-0.05c-0.3,-0.03333 -0.58333,-0.08333 -0.85,-0.15c-0.13333,-0.06667 -0.28333,-0.15 -0.45,-0.25c-0.36667,-0.4 -0.63333,-0.85 -0.8,-1.35c-0.23333,-0.73333 -0.51667,-1.45 -0.85,-2.15c-0.06667,-0.16667 -0.13333,-0.33333 -0.2,-0.5c0,-0.1 0,-0.2 0,-0.3c0,-0.06667 0,-0.15 0,-0.25c-0.16667,-0.23333 -0.28333,-0.5 -0.35,-0.8c-0.03333,-0.26667 -0.08333,-0.53333 -0.15,-0.8c-0.1,-0.36667 -0.2,-0.73333 -0.3,-1.1c0,-0.16667 0,-0.33333 0,-0.5c0,-0.1 0,-0.2 0,-0.3c0,-0.06667 0,-0.15 0,-0.25c0,-0.16667 0,-0.35 0,-0.55c-0.33333,-1.03333 -0.65,-2.1 -0.95,-3.2c-0.43333,-1.5 -1.03333,-2.93333 -1.8,-4.3c0,-0.26667 -0.06667,-0.53333 -0.2,-0.8c-0.2,-0.33333 -0.35,-0.66667 -0.45,-1c-0.1,-0.36667 -0.18333,-0.75 -0.25,-1.15c0,-0.33333 -0.05,-0.68333 -0.15,-1.05c-0.13333,-0.56667 -0.3,-1.1 -0.5,-1.6c-0.13333,-0.36667 -0.25,-0.73333 -0.35,-1.1c-1.13333,0.73333 -2.3,1.38333 -3.5,1.95c-0.83333,0.43333 -1.63333,0.95 -2.4,1.55c-0.06667,0.03333 -0.15,0.06667 -0.25,0.1c-0.2,0.06667 -0.41667,0.11667 -0.65,0.15c-0.03333,0.03333 -0.05,0.06667 -0.05,0.1c0,0.06667 0.01667,0.15 0.05,0.25c0,0.1 0,0.2 0,0.3c0,0.06667 0,0.15 0,0.25c0.06667,0.1 0.13333,0.2 0.2,0.3c0.03333,0.06667 0.06667,0.15 0.1,0.25c0.03333,0.16667 0.08333,0.35 0.15,0.55c0,0.06667 0,0.15 0,0.25c0,0.1 0,0.18333 0,0.25c0,0.1 0,0.2 0,0.3c0,0.06667 0,0.15 0,0.25c0.03333,0.1 0.06667,0.18333 0.1,0.25c0.06667,0.2 0.13333,0.38333 0.2,0.55c0.03333,0.16667 0.08333,0.35 0.15,0.55c0,0.06667 0,0.15 0,0.25c0,0.1 0,0.18333 0,0.25c0.06667,0.2 0.13333,0.38333 0.2,0.55c0.13333,0.23333 0.21667,0.5 0.25,0.8c0,0.2 0,0.38333 0,0.55c0.03333,0.1 0.06667,0.18333 0.1,0.25c0.06667,0.1 0.11667,0.2 0.15,0.3c0.06667,0.16667 0.13333,0.33333 0.2,0.5c0,0.1 0,0.2 0,0.3c0,0.16667 0,0.33333 0,0.5c0,0.26667 0,0.55 0,0.85c0.03333,0.06667 0.06667,0.15 0.1,0.25c0.06667,0.16667 0.11667,0.35 0.15,0.55c0.06667,0.16667 0.13333,0.33333 0.2,0.5c0,0.1 0,0.2 0,0.3c0,0.06667 0,0.15 0,0.25c0.16667,0.23333 0.28333,0.5 0.35,0.8c0.06667,0.46667 0.18333,0.91667 0.35,1.35c0.03333,0.1 0.06667,0.18333 0.1,0.25c0,0.1 0,0.2 0,0.3c0,0.16667 0,0.33333 0,0.5c0,0.2 0,0.38333 0,0.55c0.23333,0.7 0.46667,1.41667 0.7,2.15c0.26667,0.86667 0.45,1.75 0.55,2.65c0,0.1 0.01667,0.2 0.05,0.3c0.03333,0.06667 0.06667,0.15 0.1,0.25c0.06667,0.2 0.13333,0.38333 0.2,0.55c0,0.1 0,0.18333 0,0.25c0,0.1 0,0.2 0,0.3c0.16667,0.23333 0.28333,0.48333 0.35,0.75c0.1,0.46667 0.21667,0.91667 0.35,1.35c0.03333,0.1 0.06667,0.2 0.1,0.3c0,0.06667 0,0.15 0,0.25c0,0.1 0,0.2 0,0.3c0.06667,0.06667 0.11667,0.15 0.15,0.25c0.06667,0.1 0.11667,0.18333 0.15,0.25c0,0.1 0.01667,0.2 0.05,0.3c0,0.06667 0,0.15 0,0.25c0,0.1 0,0.18333 0,0.25c0,0.1 0,0.2 0,0.3c0.3,0.86667 0.6,1.73333 0.9,2.6c0.33333,0.96667 0.55,1.96667 0.65,3c0.6,1.5 1.11667,3.01667 1.55,4.55c0.36667,1.4 0.71667,2.83333 1.05,4.3l0.05,0.15c0.2,-0.33333 0.46667,-0.65 0.8,-0.95c0.1,-0.1 0.2,-0.2 0.3,-0.3c0.06667,-0.06667 0.11667,-0.15 0.15,-0.25c0.03333,-0.1 0.06667,-0.18333 0.1,-0.25c0.06667,-0.1 0.13333,-0.2 0.2,-0.3c0.26667,-0.23333 0.5,-0.5 0.7,-0.8c0.3,-0.43333 0.63333,-0.86667 1,-1.3c0,-0.1 0.01667,-0.2 0.05,-0.3c0.03333,-0.06667 0.06667,-0.15 0.1,-0.25c0.03333,-0.1 0.06667,-0.2 0.1,-0.3c0.06667,-0.06667 0.13333,-0.15 0.2,-0.25c0.06667,-0.1 0.15,-0.18333 0.25,-0.25c0.06667,-0.3 0.18333,-0.56667 0.35,-0.8c0.26667,-0.33333 0.45,-0.7 0.55,-1.1c0.03333,-0.06667 0.06667,-0.15 0.1,-0.25c0.83333,-1.06667 1.6,-2.18333 2.3,-3.35c0.6,-1 1.1,-2.03333 1.5,-3.1c3.03333,-3.1 5.65,-2.7 7.85,1.2c1.1,1.93333 2.23333,3.83333 3.4,5.7c0.26667,0.26667 0.53333,0.53333 0.8,0.8c0.33333,0.4 0.58333,0.85 0.75,1.35c0.2,0.26667 0.4,0.53333 0.6,0.8c0.3,0.4 0.53333,0.85 0.7,1.35c0.2,0.16667 0.36667,0.35 0.5,0.55c0.23333,0.36667 0.5,0.7 0.8,1c0.03333,0.03333 0.08333,0.05 0.15,0.05c0.03333,-0.1 0.06667,-0.18333 0.1,-0.25c0.06667,-0.1 0.1,-0.2 0.1,-0.3c0.03333,-0.16667 0.05,-0.35 0.05,-0.55c0.26667,-1 0.51667,-2 0.75,-3c0.26667,-1 0.61667,-1.96667 1.05,-2.9c0,-0.06667 0,-0.15 0,-0.25c0,-0.1 0,-0.18333 0,-0.25c0.96667,-3.16667 2.05,-6.26667 3.25,-9.3c0.96667,-2.43333 1.76667,-4.96667 2.4,-7.6c0,-0.06667 0,-0.15 0,-0.25c0,-0.1 0,-0.18333 0,-0.25c0.03333,-0.2 0.08333,-0.38333 0.15,-0.55c0.13333,-0.36667 0.25,-0.73333 0.35,-1.1c0.06667,-0.16667 0.13333,-0.33333 0.2,-0.5c0,-0.1 0,-0.2 0,-0.3c0,-0.06667 0,-0.15 0,-0.25c0,-0.1 0,-0.18333 0,-0.25c0.03333,-0.1 0.06667,-0.2 0.1,-0.3c0,-0.06667 0.01667,-0.15 0.05,-0.25c0.03333,-0.1 0.06667,-0.18333 0.1,-0.25c0,-0.1 0,-0.2 0,-0.3c0.03333,-0.16667 0.06667,-0.35 0.1,-0.55c0.03333,-0.26667 0.11667,-0.53333 0.25,-0.8c0,-0.06667 0,-0.15 0,-0.25c0,-0.1 0,-0.18333 0,-0.25c0,-0.1 0,-0.2 0,-0.3c0.03333,-0.06667 0.06667,-0.15 0.1,-0.25c0.03333,-0.1 0.06667,-0.18333 0.1,-0.25c0.06667,-0.2 0.11667,-0.38333 0.15,-0.55c0.1,-1.23333 0.45,-2.4 1.05,-3.5c0.1,-0.2 0.21667,-0.36667 0.35,-0.5c-0.43333,-0.7 -0.95,-1.33333 -1.55,-1.9c-0.1,-0.16667 -0.2,-0.35 -0.3,-0.55c-0.03333,-0.06667 -0.08333,-0.15 -0.15,-0.25c-0.16667,-0.16667 -0.3,-0.35 -0.4,-0.55c-0.06667,-0.06667 -0.11667,-0.15 -0.15,-0.25c-0.26667,-0.16667 -0.53333,-0.35 -0.8,-0.55c-0.1,-0.06667 -0.18333,-0.15 -0.25,-0.25c-0.1,-0.06667 -0.2,-0.13333 -0.3,-0.2c-0.26667,0.63333 -0.5,1.26667 -0.7,1.9z" fill="#000000"/><path d="M655.70811,349.18784c0.26667,0.2 0.53333,0.38333 0.8,0.55c0.03333,0.1 0.08333,0.18333 0.15,0.25c0.1,0.2 0.23333,0.38333 0.4,0.55c0.06667,0.1 0.11667,0.18333 0.15,0.25c0.1,0.2 0.2,0.38333 0.3,0.55c0.6,0.56667 1.11667,1.2 1.55,1.9c-0.13333,0.13333 -0.25,0.3 -0.35,0.5c-0.6,1.1 -0.95,2.26667 -1.05,3.5c-0.03333,0.16667 -0.08333,0.35 -0.15,0.55c-0.03333,0.06667 -0.06667,0.15 -0.1,0.25c-0.03333,0.1 -0.06667,0.18333 -0.1,0.25c0,0.1 0,0.2 0,0.3c0,0.06667 0,0.15 0,0.25c0,0.1 0,0.18333 0,0.25c-0.13333,0.26667 -0.21667,0.53333 -0.25,0.8c-0.03333,0.2 -0.06667,0.38333 -0.1,0.55c0,0.1 0,0.2 0,0.3c-0.03333,0.06667 -0.06667,0.15 -0.1,0.25c-0.03333,0.1 -0.05,0.18333 -0.05,0.25c-0.03333,0.1 -0.06667,0.2 -0.1,0.3c0,0.06667 0,0.15 0,0.25c0,0.1 0,0.18333 0,0.25c0,0.1 0,0.2 0,0.3c-0.06667,0.16667 -0.13333,0.33333 -0.2,0.5c-0.1,0.36667 -0.21667,0.73333 -0.35,1.1c-0.06667,0.16667 -0.11667,0.35 -0.15,0.55c0,0.06667 0,0.15 0,0.25c0,0.1 0,0.18333 0,0.25c-0.63333,2.63333 -1.43333,5.16667 -2.4,7.6c-1.2,3.03333 -2.28333,6.13333 -3.25,9.3c0,0.06667 0,0.15 0,0.25c0,0.1 0,0.18333 0,0.25c-0.43333,0.93333 -0.78333,1.9 -1.05,2.9c-0.23333,1 -0.48333,2 -0.75,3c0,0.2 -0.01667,0.38333 -0.05,0.55c0,0.1 -0.03333,0.2 -0.1,0.3c-0.03333,0.06667 -0.06667,0.15 -0.1,0.25c-0.06667,0 -0.11667,-0.01667 -0.15,-0.05c-0.3,-0.3 -0.56667,-0.63333 -0.8,-1c-0.13333,-0.2 -0.3,-0.38333 -0.5,-0.55c-0.16667,-0.5 -0.4,-0.95 -0.7,-1.35c-0.2,-0.26667 -0.4,-0.53333 -0.6,-0.8c-0.16667,-0.5 -0.41667,-0.95 -0.75,-1.35c-0.26667,-0.26667 -0.53333,-0.53333 -0.8,-0.8c-1.16667,-1.86667 -2.3,-3.76667 -3.4,-5.7c-2.2,-3.9 -4.81667,-4.3 -7.85,-1.2c-0.4,1.06667 -0.9,2.1 -1.5,3.1c-0.7,1.16667 -1.46667,2.28333 -2.3,3.35c-0.03333,0.1 -0.06667,0.18333 -0.1,0.25c-0.1,0.4 -0.28333,0.76667 -0.55,1.1c-0.16667,0.23333 -0.28333,0.5 -0.35,0.8c-0.1,0.06667 -0.18333,0.15 -0.25,0.25c-0.06667,0.1 -0.13333,0.18333 -0.2,0.25c-0.03333,0.1 -0.06667,0.2 -0.1,0.3c-0.03333,0.1 -0.06667,0.18333 -0.1,0.25c-0.03333,0.1 -0.05,0.2 -0.05,0.3c-0.36667,0.43333 -0.7,0.86667 -1,1.3c-0.2,0.3 -0.43333,0.56667 -0.7,0.8c-0.06667,0.1 -0.13333,0.2 -0.2,0.3c-0.03333,0.06667 -0.06667,0.15 -0.1,0.25c-0.03333,0.1 -0.08333,0.18333 -0.15,0.25c-0.1,0.1 -0.2,0.2 -0.3,0.3c-0.33333,0.3 -0.6,0.61667 -0.8,0.95l-0.05,-0.15c-0.33333,-1.46667 -0.68333,-2.9 -1.05,-4.3c-0.43333,-1.53333 -0.95,-3.05 -1.55,-4.55c-0.1,-1.03333 -0.31667,-2.03333 -0.65,-3c-0.3,-0.86667 -0.6,-1.73333 -0.9,-2.6c0,-0.1 0,-0.2 0,-0.3c0,-0.06667 0,-0.15 0,-0.25c0,-0.1 0,-0.18333 0,-0.25c-0.03333,-0.1 -0.05,-0.2 -0.05,-0.3c-0.03333,-0.06667 -0.08333,-0.15 -0.15,-0.25c-0.03333,-0.1 -0.08333,-0.18333 -0.15,-0.25c0,-0.1 0,-0.2 0,-0.3c0,-0.1 0,-0.18333 0,-0.25c-0.03333,-0.1 -0.06667,-0.2 -0.1,-0.3c-0.13333,-0.43333 -0.25,-0.88333 -0.35,-1.35c-0.06667,-0.26667 -0.18333,-0.51667 -0.35,-0.75c0,-0.1 0,-0.2 0,-0.3c0,-0.06667 0,-0.15 0,-0.25c-0.06667,-0.16667 -0.13333,-0.35 -0.2,-0.55c-0.03333,-0.1 -0.06667,-0.18333 -0.1,-0.25c-0.03333,-0.1 -0.05,-0.2 -0.05,-0.3c-0.1,-0.9 -0.28333,-1.78333 -0.55,-2.65c-0.23333,-0.73333 -0.46667,-1.45 -0.7,-2.15c0,-0.16667 0,-0.35 0,-0.55c0,-0.16667 0,-0.33333 0,-0.5c0,-0.1 0,-0.2 0,-0.3c-0.03333,-0.06667 -0.06667,-0.15 -0.1,-0.25c-0.16667,-0.43333 -0.28333,-0.88333 -0.35,-1.35c-0.06667,-0.3 -0.18333,-0.56667 -0.35,-0.8c0,-0.1 0,-0.18333 0,-0.25c0,-0.1 0,-0.2 0,-0.3c-0.06667,-0.16667 -0.13333,-0.33333 -0.2,-0.5c-0.03333,-0.2 -0.08333,-0.38333 -0.15,-0.55c-0.03333,-0.1 -0.06667,-0.18333 -0.1,-0.25c0,-0.3 0,-0.58333 0,-0.85c0,-0.16667 0,-0.33333 0,-0.5c0,-0.1 0,-0.2 0,-0.3c-0.06667,-0.16667 -0.13333,-0.33333 -0.2,-0.5c-0.03333,-0.1 -0.08333,-0.2 -0.15,-0.3c-0.03333,-0.06667 -0.06667,-0.15 -0.1,-0.25c0,-0.16667 0,-0.35 0,-0.55c-0.03333,-0.3 -0.11667,-0.56667 -0.25,-0.8c-0.06667,-0.16667 -0.13333,-0.35 -0.2,-0.55c0,-0.06667 0,-0.15 0,-0.25c0,-0.1 0,-0.18333 0,-0.25c-0.06667,-0.2 -0.11667,-0.38333 -0.15,-0.55c-0.06667,-0.16667 -0.13333,-0.35 -0.2,-0.55c-0.03333,-0.06667 -0.06667,-0.15 -0.1,-0.25c0,-0.1 0,-0.18333 0,-0.25c0,-0.1 0,-0.2 0,-0.3c0,-0.06667 0,-0.15 0,-0.25c0,-0.1 0,-0.18333 0,-0.25c-0.06667,-0.2 -0.11667,-0.38333 -0.15,-0.55c-0.03333,-0.1 -0.06667,-0.18333 -0.1,-0.25c-0.06667,-0.1 -0.13333,-0.2 -0.2,-0.3c0,-0.1 0,-0.18333 0,-0.25c0,-0.1 0,-0.2 0,-0.3c-0.03333,-0.1 -0.05,-0.18333 -0.05,-0.25c0,-0.03333 0.01667,-0.06667 0.05,-0.1c0.23333,-0.03333 0.45,-0.08333 0.65,-0.15c0.1,-0.03333 0.18333,-0.06667 0.25,-0.1c0.76667,-0.6 1.56667,-1.11667 2.4,-1.55c1.2,-0.56667 2.36667,-1.21667 3.5,-1.95c0.1,0.36667 0.21667,0.73333 0.35,1.1c0.2,0.5 0.36667,1.03333 0.5,1.6c0.1,0.36667 0.15,0.71667 0.15,1.05c0.06667,0.4 0.15,0.78333 0.25,1.15c0.1,0.33333 0.25,0.66667 0.45,1c0.13333,0.26667 0.2,0.53333 0.2,0.8c0.76667,1.36667 1.36667,2.8 1.8,4.3c0.3,1.1 0.61667,2.16667 0.95,3.2c0,0.2 0,0.38333 0,0.55c0,0.1 0,0.18333 0,0.25c0,0.1 0,0.2 0,0.3c0,0.16667 0,0.33333 0,0.5c0.1,0.36667 0.2,0.73333 0.3,1.1c0.06667,0.26667 0.11667,0.53333 0.15,0.8c0.06667,0.3 0.18333,0.56667 0.35,0.8c0,0.1 0,0.18333 0,0.25c0,0.1 0,0.2 0,0.3c0.06667,0.16667 0.13333,0.33333 0.2,0.5c0.33333,0.7 0.61667,1.41667 0.85,2.15c0.16667,0.5 0.43333,0.95 0.8,1.35c0.16667,0.1 0.31667,0.18333 0.45,0.25c0.26667,0.06667 0.55,0.11667 0.85,0.15c0.1,0.03333 0.21667,0.05 0.35,0.05c0.16667,-0.03333 0.33333,-0.06667 0.5,-0.1c0.16667,-0.06667 0.31667,-0.13333 0.45,-0.2c0.13333,-0.06667 0.25,-0.15 0.35,-0.25c0.13333,-0.16667 0.25,-0.35 0.35,-0.55c0.33333,-0.5 0.58333,-1.03333 0.75,-1.6c0.06667,-0.36667 0.18333,-0.71667 0.35,-1.05c0.13333,-0.16667 0.25,-0.36667 0.35,-0.6c0.36667,-0.66667 0.7,-1.36667 1,-2.1c0.2,-0.43333 0.36667,-0.86667 0.5,-1.3c0.16667,-0.2 0.3,-0.4 0.4,-0.6c0.36667,-0.8 0.71667,-1.6 1.05,-2.4c0.16667,-0.43333 0.35,-0.86667 0.55,-1.3c0,-0.1 0,-0.2 0,-0.3c0,-0.06667 0,-0.15 0,-0.25c0.16667,-0.33333 0.33333,-0.7 0.5,-1.1c0.13333,-0.33333 0.25,-0.68333 0.35,-1.05c0.1,-0.26667 0.23333,-0.53333 0.4,-0.8c0.06667,-0.06667 0.15,-0.08333 0.25,-0.05c0.13333,0 0.23333,0.06667 0.3,0.2c0.06667,0.06667 0.11667,0.13333 0.15,0.2c0.03333,0.1 0.06667,0.2 0.1,0.3c0.03333,0.06667 0.06667,0.15 0.1,0.25c0.03333,0.1 0.08333,0.18333 0.15,0.25c0.13333,0.2 0.25,0.38333 0.35,0.55c0.03333,0.1 0.06667,0.2 0.1,0.3c0,0.06667 0.01667,0.15 0.05,0.25c0.03333,0.1 0.06667,0.18333 0.1,0.25c0.06667,0.1 0.1,0.2 0.1,0.3c0,0.06667 0,0.15 0,0.25c0,0.1 0,0.18333 0,0.25c0.03333,0.1 0.06667,0.2 0.1,0.3c0.03333,0.06667 0.06667,0.15 0.1,0.25c0.06667,0.1 0.13333,0.18333 0.2,0.25c0.06667,0.1 0.13333,0.2 0.2,0.3c0.06667,0.06667 0.11667,0.15 0.15,0.25c-0.03333,0.4 0.01667,0.76667 0.15,1.1c0.16667,0.36667 0.31667,0.71667 0.45,1.05c0.13333,0.23333 0.2,0.5 0.2,0.8c0.2,0.23333 0.35,0.5 0.45,0.8c0.06667,0.16667 0.15,0.35 0.25,0.55c0.1,0.16667 0.18333,0.33333 0.25,0.5c0,0.1 0,0.2 0,0.3c0,0.1 0,0.18333 0,0.25c0.06667,0.3 0.16667,0.58333 0.3,0.85c0.13333,0.26667 0.26667,0.53333 0.4,0.8c0.13333,0.26667 0.26667,0.51667 0.4,0.75c0,0.1 0,0.2 0,0.3c0,0.06667 0,0.15 0,0.25c0.06667,0.16667 0.11667,0.35 0.15,0.55c0.06667,0.16667 0.13333,0.35 0.2,0.55c0.03333,0.06667 0.06667,0.15 0.1,0.25c0.06667,0.16667 0.15,0.35 0.25,0.55c0.1,0.06667 0.18333,0.15 0.25,0.25c0.1,0.1 0.2,0.18333 0.3,0.25c0.1,0.1 0.18333,0.2 0.25,0.3c0.2,0.06667 0.38333,0.13333 0.55,0.2c0.26667,0.1 0.53333,0.18333 0.8,0.25c0.16667,-0.03333 0.35,-0.06667 0.55,-0.1c0.06667,-0.03333 0.15,-0.06667 0.25,-0.1c0.13333,-0.06667 0.25,-0.13333 0.35,-0.2c0.13333,-0.06667 0.25,-0.15 0.35,-0.25c0.06667,-0.1 0.13333,-0.18333 0.2,-0.25c0.06667,-0.1 0.11667,-0.2 0.15,-0.3c0.03333,-0.06667 0.06667,-0.15 0.1,-0.25c0.03333,-0.1 0.06667,-0.18333 0.1,-0.25c0.03333,-0.1 0.06667,-0.2 0.1,-0.3c0,-0.06667 0,-0.15 0,-0.25c0,-0.1 0,-0.18333 0,-0.25c0.06667,-0.1 0.11667,-0.2 0.15,-0.3c0.03333,-0.06667 0.06667,-0.15 0.1,-0.25c0.03333,-0.1 0.06667,-0.2 0.1,-0.3c0,-0.06667 0,-0.15 0,-0.25c0.8,-2.06667 1.61667,-4.11667 2.45,-6.15c0.83333,-2.1 1.56667,-4.25 2.2,-6.45c0.06667,-0.06667 0.11667,-0.15 0.15,-0.25c0.5,-1.03333 0.95,-2.1 1.35,-3.2c0.2,-0.63333 0.43333,-1.26667 0.7,-1.9c0.1,0.06667 0.2,0.13333 0.3,0.2c0.06667,0.1 0.15,0.18333 0.25,0.25z" fill="#ffffff"/></g></g></svg>