<svg version="1.1" xmlns="http://www.w3.org/2000/svg" xmlns:xlink="http://www.w3.org/1999/xlink" width="107.9973" height="119.06805" viewBox="0,0,107.9973,119.06805"><g transform="translate(-585.19429,-300.46597)"><g data-paper-data="{&quot;isPaintingLayer&quot;:true}" fill-rule="nonzero" stroke="none" stroke-width="1" stroke-linecap="butt" stroke-linejoin="miter" stroke-miterlimit="10" stroke-dasharray="" stroke-dashoffset="0" style="mix-blend-mode: normal"><path d="M649.77877,303.30202c0.53333,1.26667 0.26667,2.33333 -0.8,3.2c-4.03333,4.13333 -6.45,6.7 -7.25,7.7c-0.83333,1.03333 -1.56667,2.08333 -2.2,3.15c-1.23333,2.06667 -2.03333,4.13333 -2.4,6.2c7.13333,-1.9 13.8,-2.88333 20,-2.95c4.63333,-0.1 9,0.31667 13.1,1.25c7.03333,1.56667 12.26667,4.73333 15.7,9.5c1.73333,2.26667 2.9,4.71667 3.5,7.35c0.66667,2.86667 0.58333,5.56667 -0.25,8.1c-0.63333,1.83333 -1.75,3.63333 -3.35,5.4c-1,1.13333 -2.56667,2.58333 -4.7,4.35c0.73333,0.43333 1.98333,0.95 3.75,1.55c1.46667,0.66667 2.33333,1.58333 2.6,2.75c-0.33333,1.46667 -1.33333,2.95 -3,4.45c-1.93333,1.56667 -3.3,2.78333 -4.1,3.65c1.56667,1.73333 3.93333,4.35 7.1,7.85c2.53333,3.13333 4.28333,6.15 5.25,9.05c0.63333,1.9 0.61667,3.78333 -0.05,5.65c-0.73333,2 -2.01667,3.31667 -3.85,3.95c-8.36667,2.9 -14.96667,2.55 -19.8,-1.05c-3.7,0.83333 -7.66667,2.26667 -11.9,4.3c-0.06667,0.03333 -0.15,0.06667 -0.25,0.1c-2.56667,1.26667 -6.33333,3.38333 -11.3,6.35c-1.93333,1.1 -3.41667,1.88333 -4.45,2.35c-1.76667,0.83333 -3.38333,1.2 -4.85,1.1c-0.7,-0.06667 -1.53333,-0.65 -2.5,-1.75c-0.93333,-1 -1.76667,-1.5 -2.5,-1.5c-3.63333,3.3 -7.28333,6.3 -10.95,9c-2.1,1.53333 -4.21667,2.96667 -6.35,4.3c-0.93333,0.7 -1.96667,0.98333 -3.1,0.85c-1.23333,-0.16667 -1.98333,-0.83333 -2.25,-2c0,-0.96667 0.13333,-2.01667 0.4,-3.15c0.16667,-0.83333 0.41667,-1.73333 0.75,-2.7c1,-2.53333 1.71667,-4.43333 2.15,-5.7c-7.7,1.4 -13.73333,0.48333 -18.1,-2.75c-1.2,-0.83333 -2.08333,-1.88333 -2.65,-3.15c-0.63333,-1.36667 -0.76667,-2.73333 -0.4,-4.1c0.46667,-1.8 1.53333,-3.56667 3.2,-5.3c0.36667,-0.33333 1.96667,-1.7 4.8,-4.1c-1.16667,-1.76667 -1.58333,-3.73333 -1.25,-5.9c0.26667,-2 1.11667,-3.85 2.55,-5.55c-3.36667,-0.7 -5.53333,-1.16667 -6.5,-1.4c-2.43333,-0.6 -4.51667,-1.28333 -6.25,-2.05c-1.1,-0.43333 -1.78333,-1.28333 -2.05,-2.55c-0.23333,-1.23333 0.01667,-2.3 0.75,-3.2c1.46667,-1.8 3.38333,-3.81667 5.75,-6.05c1.36667,-1.26667 3.41667,-3.15 6.15,-5.65c-2.76667,-2.23333 -4.8,-3.95 -6.1,-5.15c-2.26667,-2.1 -3.9,-4.16667 -4.9,-6.2c-0.56667,-1.63333 -0.2,-3.08333 1.1,-4.35c1.1,-1.06667 2.51667,-1.8 4.25,-2.2c3.86667,-1.06667 8.88333,-2.3 15.05,-3.7c8.43333,-1.93333 13.48333,-3.1 15.15,-3.5c-3.6,-2.4 -6.26667,-4.28333 -8,-5.65c-2.43333,-1.9 -4.13333,-3.93333 -5.1,-6.1c-0.23333,-0.53333 -0.41667,-1.06667 -0.55,-1.6c-0.66667,-2.5 -0.1,-4.86667 1.7,-7.1c1.56667,-1.93333 3.65,-3.36667 6.25,-4.3c4.83333,-1.83333 9.81667,-3.01667 14.95,-3.55c5.26667,-0.56667 10.38333,-0.41667 15.35,0.45c1.3,0.1 2.2,0.78333 2.7,2.05M655.37877,326.45202c-4.73333,0.16667 -10.46667,0.93333 -17.2,2.3c-1.63333,0.3 -3.13333,0.08333 -4.5,-0.65c0.33333,1.23333 0.18333,2.33333 -0.45,3.3c-0.63333,0.96667 -1.56667,1.56667 -2.8,1.8c-4.43333,1.13333 -10.66667,2.61667 -18.7,4.45c-8.76667,2 -15,3.46667 -18.7,4.4c1.56667,1.63333 3.31667,3.75 5.25,6.35c1.1,1.46667 2.71667,3.66667 4.85,6.6c-1.06667,2.06667 -2.7,4.26667 -4.9,6.6c-2.63333,2.56667 -4.58333,4.5 -5.85,5.8c2.93333,0.6 6.05,1.33333 9.35,2.2c-0.03333,-2.8 0.01667,-4.9 0.15,-6.3c0.2,-2.46667 0.86667,-4.41667 2,-5.85c1.13333,-0.63333 2.36667,-0.51667 3.7,0.35c0.73333,0.5 1.78333,1.35 3.15,2.55c0.7,0.63333 3.03333,2.53333 7,5.7c2.86667,2.3 5.05,4.35 6.55,6.15c-1.5,-7.7 -2.31667,-14.13333 -2.45,-19.3c-0.1,-0.8 0.25,-1.9 1.05,-3.3c0.16693,-0.31107 0.30026,-0.61107 0.4,-0.9c0.38854,-0.26185 0.72188,-0.49518 1,-0.7h0.05c0.03776,-0.03776 0.07109,-0.08776 0.1,-0.15c0.2651,-0.16888 0.48177,-0.33555 0.65,-0.5l0.05,0.05c2.6,-1.33333 6.51667,-3.38333 11.75,-6.15c4.56667,-2.26667 8.68333,-3.83333 12.35,-4.7l1.85,0.45c0.83333,1.76667 0.96667,3.93333 0.4,6.5c-0.36667,1.46667 -1.05,3.61667 -2.05,6.45c2.23333,-2 3.95,-3.45 5.15,-4.35c0.86667,-0.66667 1.71667,-1.25 2.55,-1.75c1.1,-0.7 2.16667,-1.28333 3.2,-1.75c1,-0.5 2,-0.68333 3,-0.55c1.16667,0.13333 1.98333,0.66667 2.45,1.6c0.8,1.43333 1.08333,3.16667 0.85,5.2c-0.1,0.8 -0.51667,2.55 -1.25,5.25c3.16667,-0.7 6.18333,-0.63333 9.05,0.2c2.5,-1.56667 4.38333,-2.95 5.65,-4.15c1.9,-1.8 3.13333,-3.73333 3.7,-5.8c0.46667,-3.36667 -0.5,-6.53333 -2.9,-9.5c-2.2,-2.7 -5,-4.6 -8.4,-5.7c-4.56667,-1.5 -9.68333,-2.23333 -15.35,-2.2c-0.56667,-0.03333 -1.15,-0.03333 -1.75,0M644.47877,355.05202c1.33333,-3.43333 2.3,-6.01667 2.9,-7.75c1.03333,-3.03333 1.68333,-5.71667 1.95,-8.05c-1.83333,0.53333 -4,1.3 -6.5,2.3c-2.8,1.16667 -4.91667,2.03333 -6.35,2.6c2.8,2.36667 5.31667,6.13333 7.55,11.3c2.93333,6.86667 4.85,11 5.75,12.4l1.05,-5.4l1.75,2.3l0.55,-2c0.8,-0.7 1.4,-0.51667 1.8,0.55c0.2,0.6 0.5,1.48333 0.9,2.65c0.3,-2.2 0.73333,-4.38333 1.3,-6.55c1.3,-5.03333 3.31667,-9.91667 6.05,-14.65c-1.86667,0.73333 -3.88333,1.8 -6.05,3.2c-0.93333,0.6 -1.88333,1.26667 -2.85,2c-3.56667,2.9 -6.3,5 -8.2,6.3l-1.2,-0.15l-0.4,-1.05M660.62877,355.40202c-1.13333,3.96667 -2.15,8.2 -3.05,12.7c1.16667,-0.66667 2.95,-1.66667 5.35,-3c2.06667,-1.23333 3.76667,-2.38333 5.1,-3.45c0.33333,-1.63333 -0.51667,-2.91667 -2.55,-3.85c-3.03333,-1.4 -4.65,-2.2 -4.85,-2.4M686.42877,390.50202c0.76667,-0.3 1.23333,-0.8 1.4,-1.5c-0.53333,-3 -2.2,-6.11667 -5,-9.35c-3.36667,-3.5 -5.73333,-6.2 -7.1,-8.1c-1.16667,-1.86667 -0.96667,-3.76667 0.6,-5.7c0.9,-1.1 2.46667,-2.55 4.7,-4.35c-1.3,-0.66667 -2.28333,-1.11667 -2.95,-1.35c-1.16667,-0.43333 -2.2,-0.5 -3.1,-0.2c-0.06667,3 -0.5,6.45 -1.3,10.35c-0.06667,0.3 -0.86667,3.68333 -2.4,10.15c1.7,1.53333 2.76667,3.31667 3.2,5.35c0.5,2.2 0.15,4.21667 -1.05,6.05c1.2,-0.06667 3.01667,-0.13333 5.45,-0.2c2.13333,-0.1 3.95,-0.3 5.45,-0.6c1.16667,-0.26667 1.86667,-0.45 2.1,-0.55M665.27877,370.25202c0.76667,-0.83333 1.23333,-1.63333 1.4,-2.4c-0.43333,-1.26667 -1.18333,-1.65 -2.25,-1.15c-0.33333,0.16667 -1.18333,0.8 -2.55,1.9l-4.1,1.15l0.9,2.75c-0.7,0.86667 -1.2,1.51667 -1.5,1.95c-0.03333,0.03333 -0.05,0.06667 -0.05,0.1c-0.5,0.76667 -0.71667,1.48333 -0.65,2.15c0.2,0.23333 0.41667,0.41667 0.65,0.55c0.5,0.26667 1.03333,0.25 1.6,-0.05c0.5,-0.23333 1.21667,-0.73333 2.15,-1.5c0.13333,0.06667 0.6,0.53333 1.4,1.4c0.56667,0.63333 1.1,0.76667 1.6,0.4c1,-0.4 1.28333,-1.18333 0.85,-2.35c-0.76667,-1.33333 -1.23333,-2.26667 -1.4,-2.8c0.4,-0.46667 1.05,-1.16667 1.95,-2.1M663.77877,384.00202c-0.96667,1.46667 -2.16667,2.18333 -3.6,2.15c-1.1,-0.5 -2.11667,-1.3 -3.05,-2.4c-0.23333,-0.26667 -0.45,-0.55 -0.65,-0.85c-1.16667,-1.9 -2.05,-3.31667 -2.65,-4.25c-1.56667,1.93333 -2.76667,3.55 -3.6,4.85c3.1,1.2 5.4,2.18333 6.9,2.95h0.05c2.46667,1.3 4.48333,2.78333 6.05,4.45c1.63333,-1.3 3.76667,-2.7 6.4,-4.2c-1.63333,-1.76667 -2.53333,-2.76667 -2.7,-3c-0.86667,-1.23333 -1.25,-2.48333 -1.15,-3.75c-1.1,2.36667 -1.76667,3.71667 -2,4.05M642.17877,370.45202c-0.36667,-0.16667 -1.71667,-0.93333 -4.05,-2.3l-1.35,1.75c0.5,0.73333 1.18333,1.56667 2.05,2.5c0.5,0.53333 1.25,1.31667 2.25,2.35c-0.26667,0.66667 -0.86667,1.66667 -1.8,3c-0.66667,1.23333 -0.7,2.3 -0.1,3.2c0.93333,0.3 1.8,0.05 2.6,-0.75c0.43333,-0.43333 1.05,-1.2 1.85,-2.3c0.43333,0.93333 1.1,1.6 2,2c1.06667,0.43333 1.78333,0.06667 2.15,-1.1c-0.6,-1.46667 -1,-2.56667 -1.2,-3.3c-0.36667,-1.26667 -0.38333,-2.43333 -0.05,-3.5c-1.33333,-0.2 -2.78333,-0.71667 -4.35,-1.55M650.17877,391.65202c-2.43333,1.23333 -4,2 -4.7,2.3c0.5,1.13333 1.6,1.71667 3.3,1.75c2.23333,0.06667 3.63333,0.25 4.2,0.55c-0.03333,-0.76667 -0.4,-1.58333 -1.1,-2.45c-1.13333,-1.4 -1.7,-2.11667 -1.7,-2.15M656.82877,389.80202c-1.7,-0.53333 -3.16667,-0.18333 -4.4,1.05c-0.46667,-1.2 -0.86667,-2.36667 -1.2,-3.5l-4.7,-1.65c-2.03333,2.33333 -3.33333,3.8 -3.9,4.4c-0.66667,-0.23333 -1.1,-0.86667 -1.3,-1.9c-0.33333,-1.53333 -0.51667,-2.35 -0.55,-2.45l-4.9,1.15c-0.26667,2.66667 -0.06667,5.63333 0.6,8.9c2.06667,-2.26667 3.8,-4 5.2,-5.2l1.65,2.75c0.3,-0.13333 1.45,-0.73333 3.45,-1.8c1.4,-0.76667 2.58333,-1.33333 3.55,-1.7c0.73333,0.6 1.56667,1.4 2.5,2.4c0.53333,0.53333 1.31667,1.36667 2.35,2.5l6.05,-2.75c-2.16667,-1.1 -3.53333,-1.78333 -4.1,-2.05l-0.3,-0.15M643.17877,394.15202c-1.26667,-0.5 -2.01667,-0.86667 -2.25,-1.1c-1.2,1.06667 -2.06667,1.9 -2.6,2.5c-0.9,1 -1.28333,2.06667 -1.15,3.2c1.73333,-0.66667 4.3,-1.73333 7.7,-3.2c-0.1,-0.5 -0.66667,-0.96667 -1.7,-1.4M648.97877,398.25202c-3.63333,0.43333 -7.53333,1.66667 -11.7,3.7l-2.3,-2.25c-0.8,-2.2 -1.33333,-5.01667 -1.6,-8.45c-0.16667,-3.8 -0.36667,-6.65 -0.6,-8.55c-1.53333,-0.03333 -2.68333,-0.13333 -3.45,-0.3c-1.36667,-0.33333 -2.01667,-1.1 -1.95,-2.3c0.86667,-0.53333 2.11667,-1.15 3.75,-1.85c-1.83333,-6.63333 -3.1,-13.46667 -3.8,-20.5c1.23333,2.06667 2.25,3.4 3.05,4c2.86667,2.33333 5.33333,4.06667 7.4,5.2c2.93333,1.63333 5.78333,2.6 8.55,2.9c-2.1,-8.6 -4.7,-15.73333 -7.8,-21.4c-0.56667,-0.86667 -1.01667,-1.5 -1.35,-1.9c-0.63333,-0.73333 -1.3,-1.03333 -2,-0.9c-1.23333,0.36667 -2.55,1.08333 -3.95,2.15c-1.53333,1.3 -2.7,2.25 -3.5,2.85l-1.2,-1.4l-2.3,2c-0.03333,3.63333 0.3,8.08333 1,13.35c0.4,2.96667 1,7.4 1.8,13.3c-0.73333,0.56667 -1.46667,0.41667 -2.2,-0.45c-0.73333,-1.1 -1.3,-1.81667 -1.7,-2.15c-0.9,0.1 -1.56667,0.15 -2,0.15c-0.8,0 -1.43333,-0.2 -1.9,-0.6c-1.96667,-1.53333 -4.16667,-3.45 -6.6,-5.75c-0.16667,-0.13333 -2.28333,-2.16667 -6.35,-6.1c-0.2,4.3 0.28333,8.25 1.45,11.85c1.36667,4.13333 3.53333,7.43333 6.5,9.9c0.6,0.43333 1.5,1.15 2.7,2.15c1.13333,0.8 2.18333,1.11667 3.15,0.95c0.43333,-0.56667 1.16667,-1.61667 2.2,-3.15c1.03333,-1.06667 2.11667,-1.15 3.25,-0.25c0.43333,0.86667 1.46667,3.4 3.1,7.6c1.13229,2.87669 2.26563,5.17669 3.4,6.9c0.09896,0.15534 0.19896,0.30534 0.3,0.45l0.55,0.85c0.36667,0.43333 0.66667,0.9 0.9,1.4c0.43333,0.73333 1.06667,1.66667 1.9,2.8l0.3,0.1l0.1,0.15h0.15l0.15,0.4c1.86667,-0.73333 4,-1.78333 6.4,-3.15c1.4,-0.8 3.46667,-2.03333 6.2,-3.7M634.37877,317.35202c0.9,-1.86667 2.1,-3.73333 3.6,-5.6c1.5,-1.86667 3.63333,-4.15 6.4,-6.85c-11.16667,-0.2 -20.1,1.28333 -26.8,4.45c-1.4,0.6 -2.46667,1.45 -3.2,2.55c-0.86667,1.3 -0.85,2.53333 0.05,3.7c0.46667,0.6 0.98333,1.18333 1.55,1.75c1.9,1.9 4.41667,3.68333 7.55,5.35c2.3,1.2 5.76667,2.96667 10.4,5.3c-0.43333,-1.8 -0.73333,-3.15 -0.9,-4.05c-0.23333,-1.6 -0.13333,-2.95 0.3,-4.05c0.3,-0.83333 0.65,-1.68333 1.05,-2.55M602.47877,375.40202c-0.56667,2.83333 -0.85,4.35 -0.85,4.55c-0.13333,1.8 0.38333,3.15 1.55,4.05c0.6,0.56667 1.71667,1.35 3.35,2.35c1.26667,1 1.61667,2.15 1.05,3.45c-0.66667,0.83333 -1.93333,1.31667 -3.8,1.45c-1.96667,0.13333 -3.3,0.5 -4,1.1c-1.83333,1.46667 -2.86667,2.33333 -3.1,2.6c-1.06667,1.2 -1.41667,2.38333 -1.05,3.55c2.2,1.93333 5.26667,3.21667 9.2,3.85c2.26667,0.36667 5.65,0.71667 10.15,1.05c0.83333,0.9 1.06667,2.23333 0.7,4c-0.16667,1 -0.48333,2.43333 -0.95,4.3c3.63333,-3.16667 7.66667,-6.48333 12.1,-9.95c-1.73333,-3.9 -3.01667,-7.08333 -3.85,-9.55c-2.36667,1.06667 -4.81667,0.83333 -7.35,-0.7c-1,-0.63333 -2.98333,-2.31667 -5.95,-5.05c-1.4,-1.26667 -2.75,-3 -4.05,-5.2c-1.36667,-2.63333 -2.41667,-4.58333 -3.15,-5.85M623.57877,347.90202c0.03685,0.01367 0.07018,0.01367 0.1,0c-0.03607,0.04857 -0.08607,0.0819 -0.15,0.1c0.02669,-0.01523 0.04336,-0.04857 0.05,-0.1M624.07877,346.70202c0,-0.0293 0,-0.06263 0,-0.1v0h0.05v0.05l-0.05,0.05M623.77877,346.35202v0l-0.05,0.05c0.00911,-0.05273 0.00911,-0.10273 0,-0.15l0.1,0.05z" fill="#000000"/><path d="M605.62877,381.25202c1.3,2.2 2.65,3.93333 4.05,5.2c2.96667,2.73333 4.95,4.41667 5.95,5.05c2.53333,1.53333 4.98333,1.76667 7.35,0.7c0.83333,2.46667 2.11667,5.65 3.85,9.55c-4.43333,3.46667 -8.46667,6.78333 -12.1,9.95c0.46667,-1.86667 0.78333,-3.3 0.95,-4.3c0.36667,-1.76667 0.13333,-3.1 -0.7,-4c-4.5,-0.33333 -7.88333,-0.68333 -10.15,-1.05c-3.93333,-0.63333 -7,-1.91667 -9.2,-3.85c-0.36667,-1.16667 -0.01667,-2.35 1.05,-3.55c0.23333,-0.26667 1.26667,-1.13333 3.1,-2.6c0.7,-0.6 2.03333,-0.96667 4,-1.1c1.86667,-0.13333 3.13333,-0.61667 3.8,-1.45c0.56667,-1.3 0.21667,-2.45 -1.05,-3.45c-1.63333,-1 -2.75,-1.78333 -3.35,-2.35c-1.16667,-0.9 -1.68333,-2.25 -1.55,-4.05c0,-0.2 0.28333,-1.71667 0.85,-4.55c0.73333,1.26667 1.78333,3.21667 3.15,5.85M633.32877,319.90202c-0.43333,1.1 -0.53333,2.45 -0.3,4.05c0.16667,0.9 0.46667,2.25 0.9,4.05c-4.63333,-2.33333 -8.1,-4.1 -10.4,-5.3c-3.13333,-1.66667 -5.65,-3.45 -7.55,-5.35c-0.56667,-0.56667 -1.08333,-1.15 -1.55,-1.75c-0.9,-1.16667 -0.91667,-2.4 -0.05,-3.7c0.73333,-1.1 1.8,-1.95 3.2,-2.55c6.7,-3.16667 15.63333,-4.65 26.8,-4.45c-2.76667,2.7 -4.9,4.98333 -6.4,6.85c-1.5,1.86667 -2.7,3.73333 -3.6,5.6c-0.4,0.86667 -0.75,1.71667 -1.05,2.55M642.77877,401.95202c-2.4,1.36667 -4.53333,2.41667 -6.4,3.15l-0.15,-0.4h-0.15l-0.1,-0.15l-0.3,-0.1c-0.83333,-1.13333 -1.46667,-2.06667 -1.9,-2.8c-0.23333,-0.5 -0.53333,-0.96667 -0.9,-1.4l-0.55,-0.85c-0.10104,-0.14466 -0.20104,-0.29466 -0.3,-0.45c-1.13437,-1.72331 -2.26771,-4.02331 -3.4,-6.9c-1.63333,-4.2 -2.66667,-6.73333 -3.1,-7.6c-1.13333,-0.9 -2.21667,-0.81667 -3.25,0.25c-1.03333,1.53333 -1.76667,2.58333 -2.2,3.15c-0.96667,0.16667 -2.01667,-0.15 -3.15,-0.95c-1.2,-1 -2.1,-1.71667 -2.7,-2.15c-2.96667,-2.46667 -5.13333,-5.76667 -6.5,-9.9c-1.16667,-3.6 -1.65,-7.55 -1.45,-11.85c4.06667,3.93333 6.18333,5.96667 6.35,6.1c2.43333,2.3 4.63333,4.21667 6.6,5.75c0.46667,0.4 1.1,0.6 1.9,0.6c0.43333,0 1.1,-0.05 2,-0.15c0.4,0.33333 0.96667,1.05 1.7,2.15c0.73333,0.86667 1.46667,1.01667 2.2,0.45c-0.8,-5.9 -1.4,-10.33333 -1.8,-13.3c-0.7,-5.26667 -1.03333,-9.71667 -1,-13.35l2.3,-2l1.2,1.4c0.8,-0.6 1.96667,-1.55 3.5,-2.85c1.4,-1.06667 2.71667,-1.78333 3.95,-2.15c0.7,-0.13333 1.36667,0.16667 2,0.9c0.33333,0.4 0.78333,1.03333 1.35,1.9c3.1,5.66667 5.7,12.8 7.8,21.4c-2.76667,-0.3 -5.61667,-1.26667 -8.55,-2.9c-2.06667,-1.13333 -4.53333,-2.86667 -7.4,-5.2c-0.8,-0.6 -1.81667,-1.93333 -3.05,-4c0.7,7.03333 1.96667,13.86667 3.8,20.5c-1.63333,0.7 -2.88333,1.31667 -3.75,1.85c-0.06667,1.2 0.58333,1.96667 1.95,2.3c0.76667,0.16667 1.91667,0.26667 3.45,0.3c0.23333,1.9 0.43333,4.75 0.6,8.55c0.26667,3.43333 0.8,6.25 1.6,8.45l2.3,2.25c4.16667,-2.03333 8.06667,-3.26667 11.7,-3.7c-2.73333,1.66667 -4.8,2.9 -6.2,3.7M665.77877,379.95202c-0.1,1.26667 0.28333,2.51667 1.15,3.75c0.16667,0.23333 1.06667,1.23333 2.7,3c-2.63333,1.5 -4.76667,2.9 -6.4,4.2c-1.56667,-1.66667 -3.58333,-3.15 -6.05,-4.45h-0.05c-1.5,-0.76667 -3.8,-1.75 -6.9,-2.95c0.83333,-1.3 2.03333,-2.91667 3.6,-4.85c0.6,0.93333 1.48333,2.35 2.65,4.25c0.2,0.3 0.41667,0.58333 0.65,0.85c0.93333,1.1 1.95,1.9 3.05,2.4c1.43333,0.03333 2.63333,-0.68333 3.6,-2.15c0.23333,-0.33333 0.9,-1.68333 2,-4.05M684.32877,391.05202c-1.5,0.3 -3.31667,0.5 -5.45,0.6c-2.43333,0.06667 -4.25,0.13333 -5.45,0.2c1.2,-1.83333 1.55,-3.85 1.05,-6.05c-0.43333,-2.03333 -1.5,-3.81667 -3.2,-5.35c1.53333,-6.46667 2.33333,-9.85 2.4,-10.15c0.8,-3.9 1.23333,-7.35 1.3,-10.35c0.9,-0.3 1.93333,-0.23333 3.1,0.2c0.66667,0.23333 1.65,0.68333 2.95,1.35c-2.23333,1.8 -3.8,3.25 -4.7,4.35c-1.56667,1.93333 -1.76667,3.83333 -0.6,5.7c1.36667,1.9 3.73333,4.6 7.1,8.1c2.8,3.23333 4.46667,6.35 5,9.35c-0.16667,0.7 -0.63333,1.2 -1.4,1.5c-0.23333,0.1 -0.93333,0.28333 -2.1,0.55M665.47877,357.80202c2.03333,0.93333 2.88333,2.21667 2.55,3.85c-1.33333,1.06667 -3.03333,2.21667 -5.1,3.45c-2.4,1.33333 -4.18333,2.33333 -5.35,3c0.9,-4.5 1.91667,-8.73333 3.05,-12.7c0.2,0.2 1.81667,1 4.85,2.4M644.87877,356.10202l1.2,0.15c1.9,-1.3 4.63333,-3.4 8.2,-6.3c0.96667,-0.73333 1.91667,-1.4 2.85,-2c2.16667,-1.4 4.18333,-2.46667 6.05,-3.2c-2.73333,4.73333 -4.75,9.61667 -6.05,14.65c-0.56667,2.16667 -1,4.35 -1.3,6.55c-0.4,-1.16667 -0.7,-2.05 -0.9,-2.65c-0.4,-1.06667 -1,-1.25 -1.8,-0.55l-0.55,2l-1.75,-2.3l-1.05,5.4c-0.9,-1.4 -2.81667,-5.53333 -5.75,-12.4c-2.23333,-5.16667 -4.75,-8.93333 -7.55,-11.3c1.43333,-0.56667 3.55,-1.43333 6.35,-2.6c2.5,-1 4.66667,-1.76667 6.5,-2.3c-0.26667,2.33333 -0.91667,5.01667 -1.95,8.05c-0.6,1.73333 -1.56667,4.31667 -2.9,7.75l0.4,1.05M657.12877,326.45202c5.66667,-0.03333 10.78333,0.7 15.35,2.2c3.4,1.1 6.2,3 8.4,5.7c2.4,2.96667 3.36667,6.13333 2.9,9.5c-0.56667,2.06667 -1.8,4 -3.7,5.8c-1.26667,1.2 -3.15,2.58333 -5.65,4.15c-2.86667,-0.83333 -5.88333,-0.9 -9.05,-0.2c0.73333,-2.7 1.15,-4.45 1.25,-5.25c0.23333,-2.03333 -0.05,-3.76667 -0.85,-5.2c-0.46667,-0.93333 -1.28333,-1.46667 -2.45,-1.6c-1,-0.13333 -2,0.05 -3,0.55c-1.03333,0.46667 -2.1,1.05 -3.2,1.75c-0.83333,0.5 -1.68333,1.08333 -2.55,1.75c-1.2,0.9 -2.91667,2.35 -5.15,4.35c1,-2.83333 1.68333,-4.98333 2.05,-6.45c0.56667,-2.56667 0.43333,-4.73333 -0.4,-6.5l-1.85,-0.45c-3.66667,0.86667 -7.78333,2.43333 -12.35,4.7c-5.23333,2.76667 -9.15,4.81667 -11.75,6.15l-0.05,-0.05c-0.16823,0.16445 -0.3849,0.33112 -0.65,0.5c-0.02891,0.06224 -0.06224,0.11224 -0.1,0.15h-0.05c-0.27812,0.20482 -0.61146,0.43815 -1,0.7c-0.09974,0.28893 -0.23307,0.58893 -0.4,0.9c-0.8,1.4 -1.15,2.5 -1.05,3.3c0.13333,5.16667 0.95,11.6 2.45,19.3c-1.5,-1.8 -3.68333,-3.85 -6.55,-6.15c-3.96667,-3.16667 -6.3,-5.06667 -7,-5.7c-1.36667,-1.2 -2.41667,-2.05 -3.15,-2.55c-1.33333,-0.86667 -2.56667,-0.98333 -3.7,-0.35c-1.13333,1.43333 -1.8,3.38333 -2,5.85c-0.13333,1.4 -0.18333,3.5 -0.15,6.3c-3.3,-0.86667 -6.41667,-1.6 -9.35,-2.2c1.26667,-1.3 3.21667,-3.23333 5.85,-5.8c2.2,-2.33333 3.83333,-4.53333 4.9,-6.6c-2.13333,-2.93333 -3.75,-5.13333 -4.85,-6.6c-1.93333,-2.6 -3.68333,-4.71667 -5.25,-6.35c3.7,-0.93333 9.93333,-2.4 18.7,-4.4c8.03333,-1.83333 14.26667,-3.31667 18.7,-4.45c1.23333,-0.23333 2.16667,-0.83333 2.8,-1.8c0.63333,-0.96667 0.78333,-2.06667 0.45,-3.3c1.36667,0.73333 2.86667,0.95 4.5,0.65c6.73333,-1.36667 12.46667,-2.13333 17.2,-2.3c0.6,-0.03333 1.18333,-0.03333 1.75,0M623.82877,346.30202l-0.1,-0.05c0.00911,0.04727 0.00911,0.09727 0,0.15l0.05,-0.05v0v0l0.05,-0.05M624.12877,346.65202v-0.05h-0.05v0c0,0.03737 0,0.0707 0,0.1l0.05,-0.05M623.67877,347.90202c-0.02982,0.01367 -0.06315,0.01367 -0.1,0c-0.00664,0.05143 -0.02331,0.08477 -0.05,0.1c0.06393,-0.0181 0.11393,-0.05143 0.15,-0.1z" fill="#d8558e"/><path d="M644.87877,395.55202c-3.4,1.46667 -5.96667,2.53333 -7.7,3.2c-0.13333,-1.13333 0.25,-2.2 1.15,-3.2c0.53333,-0.6 1.4,-1.43333 2.6,-2.5c0.23333,0.23333 0.98333,0.6 2.25,1.1c1.03333,0.43333 1.6,0.9 1.7,1.4M657.12877,389.95202c0.56667,0.26667 1.93333,0.95 4.1,2.05l-6.05,2.75c-1.03333,-1.13333 -1.81667,-1.96667 -2.35,-2.5c-0.93333,-1 -1.76667,-1.8 -2.5,-2.4c-0.96667,0.36667 -2.15,0.93333 -3.55,1.7c-2,1.06667 -3.15,1.66667 -3.45,1.8l-1.65,-2.75c-1.4,1.2 -3.13333,2.93333 -5.2,5.2c-0.66667,-3.26667 -0.86667,-6.23333 -0.6,-8.9l4.9,-1.15c0.03333,0.1 0.21667,0.91667 0.55,2.45c0.2,1.03333 0.63333,1.66667 1.3,1.9c0.56667,-0.6 1.86667,-2.06667 3.9,-4.4l4.7,1.65c0.33333,1.13333 0.73333,2.3 1.2,3.5c1.23333,-1.23333 2.7,-1.58333 4.4,-1.05l0.3,0.15M651.87877,393.80202c0.7,0.86667 1.06667,1.68333 1.1,2.45c-0.56667,-0.3 -1.96667,-0.48333 -4.2,-0.55c-1.7,-0.03333 -2.8,-0.61667 -3.3,-1.75c0.7,-0.3 2.26667,-1.06667 4.7,-2.3c0,0.03333 0.56667,0.75 1.7,2.15M646.52877,372.00202c-0.33333,1.06667 -0.31667,2.23333 0.05,3.5c0.2,0.73333 0.6,1.83333 1.2,3.3c-0.36667,1.16667 -1.08333,1.53333 -2.15,1.1c-0.9,-0.4 -1.56667,-1.06667 -2,-2c-0.8,1.1 -1.41667,1.86667 -1.85,2.3c-0.8,0.8 -1.66667,1.05 -2.6,0.75c-0.6,-0.9 -0.56667,-1.96667 0.1,-3.2c0.93333,-1.33333 1.53333,-2.33333 1.8,-3c-1,-1.03333 -1.75,-1.81667 -2.25,-2.35c-0.86667,-0.93333 -1.55,-1.76667 -2.05,-2.5l1.35,-1.75c2.33333,1.36667 3.68333,2.13333 4.05,2.3c1.56667,0.83333 3.01667,1.35 4.35,1.55M664.72877,375.15202c0.43333,1.16667 0.15,1.95 -0.85,2.35c-0.5,0.36667 -1.03333,0.23333 -1.6,-0.4c-0.8,-0.86667 -1.26667,-1.33333 -1.4,-1.4c-0.93333,0.76667 -1.65,1.26667 -2.15,1.5c-0.56667,0.3 -1.1,0.31667 -1.6,0.05c-0.23333,-0.13333 -0.45,-0.31667 -0.65,-0.55c-0.06667,-0.66667 0.15,-1.38333 0.65,-2.15c0,-0.03333 0.01667,-0.06667 0.05,-0.1c0.3,-0.43333 0.8,-1.08333 1.5,-1.95l-0.9,-2.75l4.1,-1.15c1.36667,-1.1 2.21667,-1.73333 2.55,-1.9c1.06667,-0.5 1.81667,-0.11667 2.25,1.15c-0.16667,0.76667 -0.63333,1.56667 -1.4,2.4c-0.9,0.93333 -1.55,1.63333 -1.95,2.1c0.16667,0.53333 0.63333,1.46667 1.4,2.8z" fill="#e1e1e1"/></g></g></svg>