<svg version="1.1" xmlns="http://www.w3.org/2000/svg" xmlns:xlink="http://www.w3.org/1999/xlink" width="491.18505" height="618.85149" viewBox="0,0,491.18505,618.85149"><g transform="translate(-410.89698,-100.52159)"><g data-paper-data="{&quot;isPaintingLayer&quot;:true}" fill-rule="nonzero" stroke="none" stroke-width="1" stroke-linecap="butt" stroke-linejoin="miter" stroke-miterlimit="10" stroke-dasharray="" stroke-dashoffset="0" style="mix-blend-mode: normal"><path d="M520.94231,359.83033c4.60183,-4.64918 9.38236,-7.7976 14.34159,-9.44524c3.26913,-1.05701 6.49702,-2.21793 9.68367,-3.48276c10.37431,-4.00547 20.77716,-7.29255 31.20854,-9.86124c0.04442,-0.04971 0.07642,-0.11052 0.09598,-0.18244c1.14185,-5.72963 3.55444,-11.53062 7.23776,-17.40297c2.37649,-0.55836 4.76751,-0.85787 7.17307,-0.89853c10.56353,-0.21548 21.23409,1.47514 32.01168,5.07187c2.01313,1.79907 3.48239,3.58146 4.40776,5.34718c5.39518,10.31988 9.03524,20.70291 10.92018,31.14908c-1.18931,0.68055 -2.45108,1.54221 -3.78529,2.58499c-9.97198,7.8071 -20.0336,15.4894 -30.18484,23.04689c-1.36694,-1.22159 -2.82141,-2.32023 -4.36339,-3.29593c-3.59532,-2.22956 -7.30063,-4.73622 -11.11593,-7.51998c-7.70481,1.51854 -15.41254,3.6156 -23.1232,6.29118c-10.30397,3.57661 -20.58522,7.97816 -30.84375,13.20465c-0.07456,-0.06663 -0.13537,-0.09863 -0.18244,-0.09598c-5.73441,-0.38618 -11.657,-3.91324 -17.76776,-10.58117c0.04442,-0.04971 0.06531,-0.09809 0.06267,-0.14516c-2.13836,-5.71068 -2.66279,-11.47658 -1.57329,-17.2977c1.58596,-2.02477 3.51829,-4.18703 5.79699,-6.48677z" fill-opacity="0.99608" fill="#000000"/><path d="M521.39613,423.47166c-14.87092,5.44026 -27.89552,7.08449 -39.0738,4.9327c-8.35364,-1.61941 -16.00349,-4.74772 -22.94957,-9.38493c-6.8436,-4.5127 -12.20389,-11.97524 -16.08089,-22.38761c-2.24153,-6.03148 -3.01059,-11.8079 -2.30719,-17.32929c1.36226,-10.95252 6.56498,-21.02277 15.60816,-30.21076c4.4815,-4.54044 9.76271,-8.95744 15.84365,-13.25098c6.0943,-4.26528 13.35143,-8.28476 21.77139,-12.05846c7.04786,-2.70982 14.17597,-4.83492 21.38432,-6.37532c6.7272,-1.45126 13.0513,-2.00278 18.97228,-1.65456c11.90434,0.73613 21.76859,5.55016 29.59274,14.4421c2.94965,3.37899 5.33358,7.68272 7.15179,12.91119c3.08829,9.0211 3.81529,17.56748 2.18099,25.63913c-2.17313,10.71327 -7.21992,20.74439 -15.14038,30.09335c-4.05823,4.79 -9.04095,9.23882 -14.94814,13.34644c-6.62444,4.61972 -13.95956,8.38205 -22.00536,11.28699z" fill-opacity="0.99608" fill="#000000"/><path d="M670.8,544.1l12.6,53.7l-6.4,21.2l10.55,50l14.65,0.85c8.53333,8.13333 14,13.15 16.4,15.05c1.03333,0.8 3.26667,2.58333 6.7,5.35c0.53333,0.43333 3.15,2.56667 7.85,6.4c4.7,3.8 8.1,6.46667 10.2,8c2.06667,1.53333 4.18333,2.66667 6.35,3.4c2.16667,0.7 8.6,0.8 19.3,0.3c10.66667,-0.53333 17.58333,-2.15 20.75,-4.85c1.13333,1.96667 2.03333,3.41667 2.7,4.35c1.13333,1.63333 2.3,2.93333 3.5,3.9l-13.35,4.3c-6.66667,2.4 -14.25,3.5 -22.75,3.3c-5.76667,-0.33333 -9.86667,-0.75 -12.3,-1.25c-2.46667,-0.5 -6.31667,-2.25 -11.55,-5.25l-9,-6.2c-3,-2.33333 -6,-4.65 -9,-6.95c-3.03333,-2.33333 -5.55,-4.51667 -7.55,-6.55c-2.03333,-2.06667 -4.96667,-4.3 -8.8,-6.7c-4.1,-2.56667 -7.36667,-4.18333 -9.8,-4.85c-2.13333,-0.56667 -4.61667,-1.68333 -7.45,-3.35l-3.6,-2.35c-0.4,-0.83333 -1.15,-3.7 -2.25,-8.6l-5.45,-21.85c-2.93333,-10.96667 -4.46667,-17.71667 -4.6,-20.25c0,-1.4 0.85,-4.98333 2.55,-10.75c2.2,-7.6 3.61667,-12.75 4.25,-15.45c-1.4,-4.16667 -3.71667,-15.41667 -6.95,-33.75l-4.45,-26.25l6.9,5.1M554.1,553.25l-3.45,45l-16.75,32.1l-11.4,5.45c-7.83333,4.06667 -12.23333,6.83333 -13.2,8.3l-4.7,5.85c-3.23333,4.36667 -5.05,7.43333 -5.45,9.2c-0.43333,1.76667 -0.56667,3.23333 -0.4,4.4c0.13333,1.16667 0.85,3.68333 2.15,7.55l4.4,13.05c5.3,5.23333 11.25,10.48333 17.85,15.75c13.03333,10.26667 22.11667,16.03333 27.25,17.3c-0.2,0 -0.4,0 -0.6,0c-1.33333,-0.06667 -2.68333,-0.35 -4.05,-0.85c-20,-7.6 -31.21667,-12.13333 -33.65,-13.6c-2.36667,-1.43333 -4.5,-2.96667 -6.4,-4.6c-2.5,-2.13333 -3.98333,-4 -4.45,-5.6c-1.7,-4.56667 -3.2,-8.68333 -4.5,-12.35c-2.53333,-7.13333 -3.95,-12.18333 -4.25,-15.15c-0.26667,-2.8 -0.25,-4.85 0.05,-6.15c0.5,-2.16667 1.98333,-4.95 4.45,-8.35c3.03333,-4.16667 4.73333,-6.51667 5.1,-7.05c0.73333,-1.06667 1.61667,-2.56667 2.65,-4.5c1,-1.86667 3.86667,-4.05 8.6,-6.55c3.7,-2 7.5,-3.7 11.4,-5.1c1.2,-0.3 2.51667,-1.16667 3.95,-2.6c1.56667,-1.56667 2.9,-3.48333 4,-5.75c0.23333,-0.46667 2.1,-4.1 5.6,-10.9c3.5,-6.83333 5.5,-11.21667 6,-13.15c0.5,-1.96667 0.81667,-4.6 0.95,-7.9c0.1,-3.33333 0.7,-8.31667 1.8,-14.95c1.1,-6.63333 1.7,-11 1.8,-13.1c0.4,-3.56667 0.68333,-6.9 0.85,-10l4.4,4.25M769.55,649.35c-3.13333,-0.36667 -7.31667,-1.38333 -12.55,-3.05c3.6,-0.83333 8.05,-3.23333 13.35,-7.2c5.26667,-4 8.65,-8.71667 10.15,-14.15c0.1,1.93333 0.21667,6.23333 0.35,12.9c0.06667,4.03333 -1.01667,7.05 -3.25,9.05c-2.23333,2 -4.91667,2.81667 -8.05,2.45M746.25,535.8c-0.56667,3.73333 -2.48333,11.66667 -5.75,23.8c-5.6,-2.96667 -10.88333,-6.2 -15.85,-9.7c1.6,0.56667 5.11667,-0.58333 10.55,-3.45c5.43333,-2.86667 9.11667,-6.41667 11.05,-10.65M546,620.5c1.1,4.96667 2.23333,8.3 3.4,10c3.73333,5.33333 10.98333,5.5 21.75,0.5c-2.63333,2.96667 -6.05,5.78333 -10.25,8.45c-5.26667,3.3 -9.9,5.03333 -13.9,5.2c-0.2,-11.2 -0.53333,-19.25 -1,-24.15M576.15,534.6c0.76667,1.43333 1.63333,2.68333 2.6,3.75c3.1,3.4 6.8,4.36667 11.1,2.9c-1.9,2.13333 -5.76667,6.33333 -11.6,12.6c-1.43333,-7.26667 -2.4,-14.3 -2.9,-21.1z" fill="#2a2b3e"/><path d="M823.05,655.05c1.26667,2.33333 2.98333,7.41667 5.15,15.25c2.2,8.63333 3.05,14.15 2.55,16.55c-0.23333,1.1 -1.16667,2.68333 -2.8,4.75c-1.66667,2.03333 -2.86667,3.45 -3.6,4.25c-0.76667,0.8 -2.08333,1.95 -3.95,3.45c-1.16667,0.96667 -3.53333,2.71667 -7.1,5.25c-2.46667,1.76667 -5.85,3.41667 -10.15,4.95c-4.13333,1.26667 -6.53333,2.01667 -7.2,2.25c-1.2,-0.96667 -2.36667,-2.26667 -3.5,-3.9c-0.66667,-0.93333 -1.56667,-2.38333 -2.7,-4.35c-3.16667,2.7 -10.08333,4.31667 -20.75,4.85c-10.7,0.5 -17.13333,0.4 -19.3,-0.3c-2.16667,-0.73333 -4.28333,-1.86667 -6.35,-3.4c-2.1,-1.53333 -5.5,-4.2 -10.2,-8c-4.7,-3.83333 -7.31667,-5.96667 -7.85,-6.4c-3.43333,-2.76667 -5.66667,-4.55 -6.7,-5.35c-2.4,-1.9 -7.86667,-6.91667 -16.4,-15.05l-14.65,-0.85l-10.55,-50l6.4,-21.2l-12.6,-53.7l-6.9,-5.1c3.83333,-2.7 5.93333,-4.28333 6.3,-4.75c0.43333,-0.56667 1.2,-1.68333 2.3,-3.35c1.33333,-2 2.18333,-3.41667 2.55,-4.25c0.36667,-0.8 0.36667,-2.83333 0,-6.1l-0.6,-4.65c-4.06667,-2.13333 -8.41667,-4.26667 -13.05,-6.4c-9.23333,-4.26667 -15.2,-6.33333 -17.9,-6.2c-0.36667,0.76667 -1.76667,4.03333 -4.2,9.8c-2.26667,5.36667 -3.7,8.56667 -4.3,9.6c1.2,1.36667 3.13333,4.45 5.8,9.25c2.9,5.2 4.68333,9.36667 5.35,12.5c0.66667,3.13333 -1.26667,12.41667 -5.8,27.85l-5.1,18.35l3.25,11.7c2.23333,8 3.43333,12.21667 3.6,12.65c0.16667,0.43333 -1,4.63333 -3.5,12.6c-2.53333,7.9 -4.18333,12.86667 -4.95,14.9c-0.73333,2 -2.05,6.71667 -3.95,14.15c-1.9,7.43333 -3.38333,12.38333 -4.45,14.85c-1.1,2.46667 -2.6,4.38333 -4.5,5.75c-1.9,1.33333 -5.11667,1.58333 -9.65,0.75l-9.65,5.15c-6.96667,4.1 -12.15,7.81667 -15.55,11.15c-3.43333,3.33333 -7.18333,6.2 -11.25,8.6c-4.06667,2.36667 -6.61667,4 -7.65,4.9c-7.33333,5.13333 -11.78333,8.05 -13.35,8.75c-0.96667,0.43333 -2.05,0.65 -3.25,0.65c-5.13333,-1.26667 -14.21667,-7.03333 -27.25,-17.3c-6.6,-5.26667 -12.55,-10.51667 -17.85,-15.75l-4.4,-13.05c-1.3,-3.86667 -2.01667,-6.38333 -2.15,-7.55c-0.16667,-1.16667 -0.03333,-2.63333 0.4,-4.4c0.4,-1.76667 2.21667,-4.83333 5.45,-9.2l4.7,-5.85c0.96667,-1.46667 5.36667,-4.23333 13.2,-8.3l11.4,-5.45l16.75,-32.1l3.45,-45l-4.4,-4.25c0.03333,0.03333 0.06667,-0.23333 0.1,-0.8c0.06667,-1.13333 0.1,-2.11667 0.1,-2.95c3.43333,-3.96667 6.66667,-7.73333 9.7,-11.3c5.9,-6.96667 9.13333,-11.13333 9.7,-12.5c0.63333,-1.56667 0.65,-4.46667 0.05,-8.7c-0.56667,-3.93333 -1.18333,-7.08333 -1.85,-9.45c-0.66667,-2.4 -0.88333,-4.01667 -0.65,-4.85c0.23333,-0.83333 1.46667,-2.03333 3.7,-3.6c10.73333,-5.6 16.61667,-8.95 17.65,-10.05c3.96667,-4.23333 6.03333,-6.45 6.2,-6.65c0.36667,-0.43333 0.46667,-2.03333 0.3,-4.8c-0.2,-3.13333 -0.25,-4.98333 -0.15,-5.55c0.1,-0.46667 0.45,-3.8 1.05,-10c0.6,-6.1 1.06667,-10.03333 1.4,-11.8c0.16667,-0.93333 0.8,-4.56667 1.9,-10.9c0.93333,-5.53333 1.61667,-9.25 2.05,-11.15c0.43333,-1.9 0.93333,-5.05 1.5,-9.45c0.66667,-5.13333 1.48333,-10.31667 2.45,-15.55c0.93333,-5.26667 2.2,-10.41667 3.8,-15.45c1.56667,-5.06667 2.83333,-8.96667 3.8,-11.7c0.93333,-2.73333 2.25,-6.36667 3.95,-10.9c1.7,-4.53333 3.63333,-9.1 5.8,-13.7c1.6,-3.4 2.88333,-5.98333 3.85,-7.75c0,-0.03333 0.01667,-0.06667 0.05,-0.1l1.6,-3.15c1.93333,-3.33333 4.55,-7.3 7.85,-11.9c1.83333,-2.63333 4.01667,-4.88333 6.55,-6.75c4.1,-3.06667 9.06667,-5.18333 14.9,-6.35c7,-1.4 14.78333,-1.45 23.35,-0.15c0.1,0 0.2,0.01667 0.3,0.05c5.76667,0.93333 11.28333,3.11667 16.55,6.55c5.36667,3.46667 9.35,7.81667 11.95,13.05c2.6,5.23333 4.08333,10.96667 4.45,17.2c0.33333,6.23333 0.43333,13.26667 0.3,21.1c-0.1,5.66667 0.21667,13.98333 0.95,24.95c0.1,2.6 0.4,6.6 0.9,12c0.5,5.4 0.91667,9.81667 1.25,13.25c0.3,3.43333 1.16667,10.13333 2.6,20.1c1.43333,9.96667 2.88333,18.68333 4.35,26.15c1.5,7.63333 2.5,12.15 3,13.55c1.5,2.1 6.33333,6.41667 14.5,12.95c4.16667,3.36667 8.66667,6.9 13.5,10.6c-0.13333,0.86667 -0.23333,3.6 -0.3,8.2c-0.13333,3.06667 0.41667,8.51667 1.65,16.35c1.9,6 4.35,11.16667 7.35,15.5c3,4.3 5.33333,7.1 7,8.4c1.66667,1.3 3.13333,3.35 4.4,6.15c1.26667,2.8 1.9,5.81667 1.9,9.05c0,2.26667 0.46667,6.23333 1.4,11.9c1.1,6.7 1.68333,10.33333 1.75,10.9c0.3,2.93333 2,9.6 5.1,20l10.55,27.6c2,1.3 5.53333,3.35 10.6,6.15c5.03333,2.8 8.18333,4.53333 9.45,5.2c1.26667,0.63333 2.53333,1.5 3.8,2.6c1.23333,1.06667 2.36667,2.56667 3.4,4.5M693.9,323.45v0.05c-0.03333,2.93333 -0.13333,6.13333 -0.3,9.6c-0.3,5.06667 -0.46667,9.11667 -0.5,12.15c-0.03333,3.03333 -0.48333,8.26667 -1.35,15.7c-0.9,7.43333 -1.5,11.26667 -1.8,11.5c-7.16667,4.8 -14.63333,7.83333 -22.4,9.1c-2.43333,0.4 -4.75,0.61667 -6.95,0.65l-2.6,-0.05c-6.33333,0.03333 -11.3,-0.51667 -14.9,-1.65c-3.63333,-1.16667 -7.18333,-3.65 -10.65,-7.45c-3.46667,-3.83333 -4.53333,-9.88333 -3.2,-18.15c1.3,-8.26667 2.51667,-14.48333 3.65,-18.65l1.5,-5.15c-1.83333,3.5 -3.78333,7.43333 -5.85,11.8c-2.26667,4.93333 -5.73333,14.28333 -10.4,28.05c-0.93333,2.76667 -2.31667,8.3 -4.15,16.6c-1,4.6 -2.38333,11.08333 -4.15,19.45c-1.46667,6.86667 -2.6,15.08333 -3.4,24.65c1.56667,7.43333 6.96667,17.05 16.2,28.85c9.2,11.8 22.05,16.55 38.55,14.25c16.5,-2.33333 33.71667,-15.98333 51.65,-40.95c-2.23333,-25.2 -3.61667,-48.18333 -4.15,-68.95c-0.13333,-4.6 -0.35,-8.78333 -0.65,-12.55c0,-0.1 0,-0.18333 0,-0.25c-0.13333,-1.46667 -0.26667,-2.86667 -0.4,-4.2c-1.06667,-9.06667 -2.66667,-14.9 -4.8,-17.5c-2.13333,-2.63333 -4.4,-4.8 -6.8,-6.5c-1,-0.7 -1.7,-1.23333 -2.1,-1.6l-0.05,0.1c0,0.36667 0,0.73333 0,1.1M578.25,553.85c5.83333,-6.26667 9.7,-10.46667 11.6,-12.6c-4.3,1.46667 -8,0.5 -11.1,-2.9c-0.96667,-1.06667 -1.83333,-2.31667 -2.6,-3.75l-0.8,-1.85c0.5,6.8 1.46667,13.83333 2.9,21.1M547,644.65c4,-0.16667 8.63333,-1.9 13.9,-5.2c4.2,-2.66667 7.61667,-5.48333 10.25,-8.45c-10.76667,5 -18.01667,4.83333 -21.75,-0.5c-1.16667,-1.7 -2.3,-5.03333 -3.4,-10c0.46667,4.9 0.8,12.95 1,24.15M735.2,546.45c-5.43333,2.86667 -8.95,4.01667 -10.55,3.45c4.96667,3.5 10.25,6.73333 15.85,9.7c3.26667,-12.13333 5.18333,-20.06667 5.75,-23.8c-1.93333,4.23333 -5.61667,7.78333 -11.05,10.65M780.85,637.85c-0.13333,-6.66667 -0.25,-10.96667 -0.35,-12.9c-1.5,5.43333 -4.88333,10.15 -10.15,14.15c-5.3,3.96667 -9.75,6.36667 -13.35,7.2c5.23333,1.66667 9.41667,2.68333 12.55,3.05c3.13333,0.36667 5.81667,-0.45 8.05,-2.45c2.23333,-2 3.31667,-5.01667 3.25,-9.05z" fill="#000000"/><path d="M693.95,322.25c0.4,0.36667 1.1,0.9 2.1,1.6c2.4,1.7 4.66667,3.86667 6.8,6.5c2.13333,2.6 3.73333,8.43333 4.8,17.5c0.13333,1.33333 0.26667,2.73333 0.4,4.2c0,0.06667 0,0.15 0,0.25c0.3,3.76667 0.51667,7.95 0.65,12.55c0.53333,20.76667 1.91667,43.75 4.15,68.95c-17.93333,24.96667 -35.15,38.61667 -51.65,40.95c-16.5,2.3 -29.35,-2.45 -38.55,-14.25c-9.23333,-11.8 -14.63333,-21.41667 -16.2,-28.85c0.8,-9.56667 1.93333,-17.78333 3.4,-24.65c1.76667,-8.36667 3.15,-14.85 4.15,-19.45c1.83333,-8.3 3.21667,-13.83333 4.15,-16.6c4.66667,-13.76667 8.13333,-23.11667 10.4,-28.05c2.06667,-4.36667 4.01667,-8.3 5.85,-11.8l-1.5,5.15c-1.13333,4.16667 -2.35,10.38333 -3.65,18.65c-1.33333,8.26667 -0.26667,14.31667 3.2,18.15c3.46667,3.8 7.01667,6.28333 10.65,7.45c3.6,1.13333 8.56667,1.68333 14.9,1.65l2.6,0.05c2.2,-0.03333 4.51667,-0.25 6.95,-0.65c7.76667,-1.26667 15.23333,-4.3 22.4,-9.1c0.3,-0.23333 0.9,-4.06667 1.8,-11.5c0.86667,-7.43333 1.31667,-12.66667 1.35,-15.7c0.03333,-3.03333 0.2,-7.08333 0.5,-12.15c0.16667,-3.46667 0.26667,-6.66667 0.3,-9.6v-0.05c0,-0.36667 0,-0.73333 0,-1.1z" fill="#ffffff"/><path d="M805.35,175.8c2.23333,4.7 4.1,9.5 5.6,14.4c1.9,6.2 2.56667,11.05 2,14.55c-0.5,3.1 -1.31667,6.15 -2.45,9.15c-1.53333,3.93333 -2.35,6.1 -2.45,6.5c1.73333,3.6 3.8,8.38333 6.2,14.35c2.36667,5.93333 3.28333,9.4 2.75,10.4c-1.1,4.1 -2.86667,9.81667 -5.3,17.15c-2.6,7.86667 -4.16667,12.7 -4.7,14.5c-2.6,8.76667 -4.73333,15.01667 -6.4,18.75c-1.36667,3.03333 -4.8,8.11667 -10.3,15.25c-7.4,0.86667 -11.83333,1.46667 -13.3,1.8c-0.7,2.3 -1.81667,4.68333 -3.35,7.15c-1.83333,2.73333 -3.2,4.83333 -4.1,6.3c-5.36667,3.8 -17.35,7.7 -35.95,11.7c-18.66667,3.96667 -32.56667,6.48333 -41.7,7.55c-9.16667,1.06667 -18.68333,1.4 -28.55,1c-9.86667,-0.43333 -20.03333,-1.5 -30.5,-3.2c-10.5,-1.7 -21.21667,-5.73333 -32.15,-12.1c-10.93333,-6.4 -18.08333,-11.21667 -21.45,-14.45c-1.4,-1.33333 -3.5,-3.5 -6.3,-6.5c-2.96667,-3.2 -5.03333,-5.48333 -6.2,-6.85c-1.2,-1.36667 -2.65,-3.65 -4.35,-6.85c-1.73333,-3.2 -2.9,-5.56667 -3.5,-7.1c-0.6,-1.56667 -0.51667,-4.51667 0.25,-8.85l1.3,-6.1l-8.3,-10.15c-0.6,-1.06667 0.03333,-3.91667 1.9,-8.55l2.45,-5.9l-11.35,-13.55c1.33333,-8.5 2.73333,-14.83333 4.2,-19c1.43333,-4.16667 3.31667,-9.46667 5.65,-15.9c0.4,-1.1 0.75,-2.03333 1.05,-2.8l-0.2,0.55l8.9,-20c1.73333,-3.56667 3.83333,-7.6 6.3,-12.1c4.86667,-8.96667 9.05,-15.76667 12.55,-20.4c1.23333,-1.63333 2.8,-3.63333 4.7,-6c14.13333,-6.93333 21.55,-11.3 22.25,-13.1c0.7,-1.8 7.18333,-5.68333 19.45,-11.65c12.23333,-6 21.63333,-9.86667 28.2,-11.6c5.7,-1.5 11.93333,-2.5 18.7,-3c3.6,-0.26667 9.36667,-0.46667 17.3,-0.6c7.9,-0.16667 14.86667,0.4 20.9,1.7c6,1.26667 12.41667,2.91667 19.25,4.95c6.8,2.03333 13.71667,4.95 20.75,8.75c7,3.8 12.96667,8.05 17.9,12.75c4.93333,4.7 11,12.55 18.2,23.55c7.2,10.96667 11.91667,18.81667 14.15,23.55M757,162.05c-5.86667,-5.4 -15.63333,-11.75 -29.3,-19.05c-13.66667,-7.3 -26.46667,-11.63333 -38.4,-13c-11.96667,-1.36667 -21,-2.3 -27.1,-2.8c-6.1,-0.5 -14.9,-0.06667 -26.4,1.3c-11.5,1.36667 -25.93333,7.51667 -43.3,18.45c-1.03333,0.53333 -1.91667,1.06667 -2.65,1.6c-1.3,0.96667 -3.33333,3.55 -6.1,7.75c-2.96667,4.5 -6.81667,12.06667 -11.55,22.7c-3.63333,8.16667 -6.6,15.31667 -8.9,21.45c-1.06667,2.86667 -2.96667,7.93333 -5.7,15.2c-2.26667,6.43333 -3.71667,11.43333 -4.35,15l5.35,-2.15c1.9,-0.76667 8.75,-2.33333 20.55,-4.7c11.8,-2.4 24.16667,-3.4 37.1,-3c1.43333,-2.4 4.23333,-6.75 8.4,-13.05c2.1,-3.16667 4.1,-6.08333 6,-8.75l4.65,-0.35c3.76667,-0.23333 7.43333,-0.26667 11,-0.1c11.36667,0.53333 19.36667,2.9 24,7.1c-0.4,3 -1.88333,8.3 -4.45,15.9c0.23333,-0.33333 3.21667,-0.15 8.95,0.55c5.73333,0.7 17.01667,3.61667 33.85,8.75c16.8,5.13333 32.91667,12.08333 48.35,20.85c2.03333,-4.46667 4.13333,-9.05 6.3,-13.75c4.33333,-9.43333 6.88333,-14.76667 7.65,-16c1.06667,-1.66667 2.58333,-6.26667 4.55,-13.8c2.1,-8.03333 3.18333,-13.91667 3.25,-17.65c0.1,-5.56667 -7.15,-15.05 -21.75,-28.45M682.75,244.05l-5.75,-0.7c-8.96667,-1.66667 -14.48333,-3.11667 -16.55,-4.35c-1.16667,-1 -2.66667,-3.41667 -4.5,-7.25c-0.86667,-1.8 -1.4,-3.61667 -1.6,-5.45c1.76667,-3.26667 2.65,-5.7 2.65,-7.3c-2.53333,-1.8 -6.05,-2.83333 -10.55,-3.1l-6.05,0.1c-3.13333,0.36667 -5.31667,1.01667 -6.55,1.95c-1.26667,0.93333 -2.25,2.43333 -2.95,4.5c-0.73333,2.1 -2.23333,4.9 -4.5,8.4l-3.2,4.45l-0.3,0.75c-0.23333,0.76667 -0.48333,1.75 -0.75,2.95c-7.36667,-0.43333 -14.83333,0.18333 -22.4,1.85c-4.73333,1.03333 -8.41667,2.15 -11.05,3.35c-2.46667,5.06667 -4.1,11.75 -4.9,20.05c-0.4,4.13333 -0.56667,7.76667 -0.5,10.9l19.8,-1.5c14.53333,-0.9 26.05,-1.08333 34.55,-0.55c8.46667,0.53333 18.88333,1.63333 31.25,3.3c12.36667,1.63333 20.96667,3.15 25.8,4.55c4.8,1.36667 7.9,2.25 9.3,2.65c1.36667,0.36667 3.91667,1.5 7.65,3.4c3.7,-3.23333 8.81667,-11.58333 15.35,-25.05c-2.76667,-1.76667 -7.86667,-4.55 -15.3,-8.35c-7.46667,-3.8 -17.11667,-6.98333 -28.95,-9.55z" fill="#000000"/><path d="M727,261.95c-6.53333,13.46667 -11.65,21.81667 -15.35,25.05c-3.73333,-1.9 -6.28333,-3.03333 -7.65,-3.4c-1.4,-0.4 -4.5,-1.28333 -9.3,-2.65c-4.83333,-1.4 -13.43333,-2.91667 -25.8,-4.55c-12.36667,-1.66667 -22.78333,-2.76667 -31.25,-3.3c-8.5,-0.53333 -20.01667,-0.35 -34.55,0.55l-19.8,1.5c-0.06667,-3.13333 0.1,-6.76667 0.5,-10.9c0.8,-8.3 2.43333,-14.98333 4.9,-20.05c2.63333,-1.2 6.31667,-2.31667 11.05,-3.35c7.56667,-1.66667 15.03333,-2.28333 22.4,-1.85c0.26667,-1.2 0.51667,-2.18333 0.75,-2.95l0.3,-0.75l3.2,-4.45c2.26667,-3.5 3.76667,-6.3 4.5,-8.4c0.7,-2.06667 1.68333,-3.56667 2.95,-4.5c1.23333,-0.93333 3.41667,-1.58333 6.55,-1.95l6.05,-0.1c4.5,0.26667 8.01667,1.3 10.55,3.1c0,1.6 -0.88333,4.03333 -2.65,7.3c0.2,1.83333 0.73333,3.65 1.6,5.45c1.83333,3.83333 3.33333,6.25 4.5,7.25c2.06667,1.23333 7.58333,2.68333 16.55,4.35l5.75,0.7c11.83333,2.56667 21.48333,5.75 28.95,9.55c7.43333,3.8 12.53333,6.58333 15.3,8.35M775.5,208.15c-1.96667,7.53333 -3.48333,12.13333 -4.55,13.8c-0.76667,1.23333 -3.31667,6.56667 -7.65,16c-2.16667,4.7 -4.26667,9.28333 -6.3,13.75c-15.43333,-8.76667 -31.55,-15.71667 -48.35,-20.85c-16.83333,-5.13333 -28.11667,-8.05 -33.85,-8.75c-5.73333,-0.7 -8.71667,-0.88333 -8.95,-0.55c2.56667,-7.6 4.05,-12.9 4.45,-15.9c-4.63333,-4.2 -12.63333,-6.56667 -24,-7.1c-3.56667,-0.16667 -7.23333,-0.13333 -11,0.1l-4.65,0.35c-1.9,2.66667 -3.9,5.58333 -6,8.75c-4.16667,6.3 -6.96667,10.65 -8.4,13.05c-12.93333,-0.4 -25.3,0.6 -37.1,3c-11.8,2.36667 -18.65,3.93333 -20.55,4.7l-5.35,2.15c0.63333,-3.56667 2.08333,-8.56667 4.35,-15c2.73333,-7.26667 4.63333,-12.33333 5.7,-15.2c2.3,-6.13333 5.26667,-13.28333 8.9,-21.45c4.73333,-10.63333 8.58333,-18.2 11.55,-22.7c2.76667,-4.2 4.8,-6.78333 6.1,-7.75c0.73333,-0.53333 1.61667,-1.06667 2.65,-1.6c17.36667,-10.93333 31.8,-17.08333 43.3,-18.45c11.5,-1.36667 20.3,-1.8 26.4,-1.3c6.1,0.5 15.13333,1.43333 27.1,2.8c11.93333,1.36667 24.73333,5.7 38.4,13c13.66667,7.3 23.43333,13.65 29.3,19.05c14.6,13.4 21.85,22.88333 21.75,28.45c-0.06667,3.73333 -1.15,9.61667 -3.25,17.65z" fill="#ffffff"/><path d="M625.35,240.7c0.86667,-1.73333 4.36667,-1.91667 10.5,-0.55l18.85,2.4c13.33333,1.6 21.86667,2.3 25.6,2.1c2.2,-0.1 6.53333,-0.25 13,-0.45c4.6,-0.16667 7.8,-0.33333 9.6,-0.5c-0.15924,0.98997 -0.89258,4.60664 -2.2,10.85c-1.27409,6.27669 -2.90742,12.69336 -4.9,19.25l-2.05,6.85c-1.35326,3.80977 -3.05326,5.37643 -5.1,4.7l-1.65,-0.6c-1.3612,-0.4599 -3.19453,-0.97656 -5.5,-1.55c-2.30794,-0.53841 -4.54128,-1.03841 -6.7,-1.5c-2.12513,-0.4306 -7.05846,-1.14727 -14.8,-2.15c-5.09401,-0.57448 -9.62734,-0.92448 -13.6,-1.05c-8.475,-0.28437 -13.825,-0.83438 -16.05,-1.65c-2.22396,-0.77201 -3.57396,-1.45534 -4.05,-2.05c-0.44622,-0.60469 -0.71289,-1.02135 -0.8,-1.25l-0.25,-0.7c-0.73333,-1.43333 -1.01667,-5.46667 -0.85,-12.1v-5.5c0.20339,-6.7388 0.52005,-11.5888 0.95,-14.55M633.3,254.95l6.15,5.3l1,-1.65c0.56667,-1.03333 1.31667,-1.98333 2.25,-2.85c0.4099,-0.36484 0.84323,-0.71484 1.3,-1.05c0.40755,-0.32005 0.94089,-0.63672 1.6,-0.95c1.80078,-0.78633 4.51745,-1.46966 8.15,-2.05c0.71823,-0.08555 1.45156,-0.18555 2.2,-0.3c9.58555,-1.20677 21.21888,2.79323 34.9,12l3.95,2.6c2.13333,-8.86667 3.43333,-14.53333 3.9,-17c-9.70938,0.71042 -23.29271,0.42708 -40.75,-0.85c-8.90794,-0.59701 -16.30794,-1.83034 -22.2,-3.7c-0.9,3.03333 -1.71667,6.53333 -2.45,10.5M668.45,277.2c1.61107,0.24948 4.56107,0.78281 8.85,1.6c4.29232,0.81875 6.82565,1.25208 7.6,1.3c1.26094,-1.61497 1.29427,-3.14831 0.1,-4.6c-1.16094,-1.41836 -3.0776,-2.86836 -5.75,-4.35c-7.96667,-3.53333 -15.03333,-4.93333 -21.2,-4.2c-5.13333,0.56667 -8.01667,2.08333 -8.65,4.55c-0.4,1.6 -0.36667,2.8 0.1,3.6c0.23333,0.43333 0.51667,0.68333 0.85,0.75c1.18776,-0.15872 4.10443,-0.02539 8.75,0.4c4.65195,0.42044 7.76862,0.73711 9.35,0.95z" fill="#000000"/><path d="M649.5,275.1c-0.46667,-0.8 -0.5,-2 -0.1,-3.6c0.63333,-2.46667 3.51667,-3.98333 8.65,-4.55c6.16667,-0.73333 13.23333,0.66667 21.2,4.2c2.6724,1.48164 4.58906,2.93164 5.75,4.35c1.19427,1.45169 1.16094,2.98503 -0.1,4.6c-0.77435,-0.04792 -3.30768,-0.48125 -7.6,-1.3c-4.28893,-0.81719 -7.23893,-1.35052 -8.85,-1.6c-1.58138,-0.21289 -4.69805,-0.52956 -9.35,-0.95c-4.64557,-0.42539 -7.56224,-0.55872 -8.75,-0.4c-0.33333,-0.06667 -0.61667,-0.31667 -0.85,-0.75z" fill="#f3769b"/><path d="M657.95,248.15c17.45729,1.27708 31.04062,1.56042 40.75,0.85c-0.46667,2.46667 -1.76667,8.13333 -3.9,17l-3.95,-2.6c-13.68112,-9.20677 -25.31445,-13.20677 -34.9,-12c-0.74844,0.11445 -1.48177,0.21445 -2.2,0.3c-3.17513,0.24518 -5.8918,0.92852 -8.15,2.05c-0.65911,0.31328 -1.19245,0.62995 -1.6,0.95c-0.45677,0.33516 -0.8901,0.68516 -1.3,1.05c-0.93333,0.86667 -1.68333,1.81667 -2.25,2.85l-1,1.65l-6.15,-5.3c0.73333,-3.96667 1.55,-7.46667 2.45,-10.5c5.89206,1.86966 13.29206,3.10299 22.2,3.7z" fill="#ffffff"/><path d="M539.28988,329.96454c1.16632,1.04265 2.06546,2.15206 2.69743,3.32821c2.03302,3.69584 3.87333,7.45408 5.52093,11.27472c4.072,9.42282 5.51524,19.83946 4.32973,31.24993c-0.46012,0.96222 -0.92744,1.93948 -1.40194,2.93177c-0.04314,0.09021 -0.07908,0.16538 -0.10784,0.22552c-4.71953,2.90623 -9.60418,5.32518 -14.65396,7.25686c-0.07447,0.00435 -0.14174,-0.00634 -0.20183,-0.03206c-1.29527,6.8716 -3.83361,13.84501 -7.61502,20.92021c-1.48617,2.80516 -3.42211,4.62082 -5.80782,5.44701c-5.15686,1.77717 -11.04469,1.41206 -17.66351,-1.09531c-2.34082,-0.85717 -4.14987,-1.99384 -5.42712,-3.41c-3.21303,2.10214 -6.65191,3.65479 -10.31664,4.65794c-0.04442,0.01721 -0.08101,0.05588 -0.10977,0.11602c-2.82083,5.74762 -5.9335,11.00805 -9.33802,15.78131c-1.29386,1.87318 -2.91218,3.10032 -4.85496,3.68142c-6.39145,1.93693 -13.47869,2.03645 -21.26172,0.29856c-3.05287,-0.65483 -6.13771,-1.43203 -9.25452,-2.33159c-6.92334,-2.02192 -13.23506,-4.86876 -18.93514,-8.54051c-4.47882,-2.89538 -8.0986,-6.11128 -10.85933,-9.64772c-2.45644,-3.18882 -3.46786,-6.86392 -3.03427,-11.02528c0.10346,-0.89756 0.22773,-1.46018 0.3728,-1.68788c0.06009,0.02572 0.12736,0.03641 0.20183,0.03206c2.25888,-0.40956 4.53342,-0.77618 6.82363,-1.09988c-0.04314,0.09021 -0.09411,0.15895 -0.15291,0.20623c-0.94491,1.37052 -1.50183,2.76223 -1.67076,4.17513c2.05569,6.67598 7.36077,12.04421 15.91523,16.10471c10.16372,4.85806 19.60557,7.66831 28.32557,8.43076c0.86612,0.08097 1.62118,0.20497 2.26519,0.37198c3.32583,0.91658 6.08505,0.5582 8.27764,-1.07515c2.31149,-1.6549 4.45721,-3.83358 6.43716,-6.53603c2.08189,-2.83993 3.52697,-5.86192 4.33523,-9.06595c-1.96873,-0.04583 -3.8807,0.16809 -5.73592,0.64177c-2.92393,0.74068 -5.89462,0.5195 -8.91206,-0.66354c4.12053,-0.51824 8.1784,-1.2082 12.17361,-2.06988c2.34644,-0.51697 4.62303,-1.19063 6.82977,-2.02098c2.02905,-0.76151 4.05091,-1.50799 6.06559,-2.23944c5.45086,-2.01356 8.93896,-6.6967 10.4643,-14.04941c-0.09013,-0.03858 -0.16524,-0.07074 -0.22533,-0.09646c-2.73782,-1.38936 -5.10857,-2.67593 -7.11225,-3.85969c0.06009,0.02572 0.1352,0.05788 0.22533,0.09646c5.11301,0.81225 9.95973,0.89468 14.54015,0.24729c0.02876,-0.06014 0.07254,-0.11385 0.13134,-0.16113c4.84789,-4.08292 9.17885,-9.58255 12.99287,-16.49889c0.02876,-0.06014 0.0647,-0.13531 0.10784,-0.22552c0.34509,-0.72167 0.86121,-1.0441 1.54836,-0.96729c-0.04314,0.09021 -0.07908,0.16538 -0.10784,0.22552c0.1847,2.86838 -0.38514,6.0658 -1.70952,9.59226c-0.79622,2.19489 -1.7537,4.12151 -2.87244,5.77986c-1.56963,2.2985 -2.67347,4.37982 -3.31152,6.24394c-0.04314,0.09021 -0.09411,0.15895 -0.15291,0.20623c-1.64001,1.68878 -3.66315,2.36226 -6.06944,2.02044c-0.04314,0.09021 -0.08692,0.14392 -0.13134,0.16113c-0.71076,0.27533 -1.40521,0.6301 -2.08335,1.06429c-0.04314,0.09021 -0.07908,0.16538 -0.10784,0.22552c-1.04989,3.02814 -2.26888,5.76655 -3.65697,8.21522c-0.04314,0.09021 -0.05687,0.15678 -0.04121,0.19971c0.57574,1.36943 1.50685,2.6012 2.79334,3.6953c1.76357,0.24781 3.55589,0.43547 5.37698,0.563c5.2699,0.40849 9.35121,-2.33625 12.24393,-8.23422c0.89278,-1.79131 1.41386,-3.52438 1.56327,-5.19921c0.42716,-4.52637 2.11499,-9.0021 5.06347,-13.4272c1.03352,-0.57186 2.12123,-1.02997 3.26312,-1.37431c3.15913,-0.92979 6.29477,-1.92398 9.40691,-2.98257c0.02876,-0.06014 0.0647,-0.13531 0.10784,-0.22552c0.28629,-0.67439 0.60982,-1.35095 0.97057,-2.02969c0.35586,-11.11358 -1.58322,-21.3259 -5.81724,-30.63695c-1.51971,-3.3312 -2.95057,-6.69681 -4.29259,-10.09684c1.14341,-1.10442 2.3116,-2.07144 3.50458,-2.90107c0.04442,-0.01721 0.0882,-0.07092 0.13134,-0.16113z" fill-opacity="0.99608" fill="#2b2c3f"/><path d="M460.90435,266.25187c0.02876,-0.06014 0.07973,-0.12888 0.15291,-0.20623c0.74618,-0.80354 1.34869,-1.72293 1.80753,-2.75815c2.40571,-2.23039 4.71153,-4.63033 6.91745,-7.19982c3.87083,-4.53741 8.15806,-7.86415 12.8617,-9.98024c9.76393,-4.29684 20.63941,-5.5821 32.62643,-3.8558c2.05348,0.62549 4.15332,1.34327 6.2995,2.15334c6.81345,2.55447 12.1982,5.67465 16.15424,9.36053c8.32089,7.72788 13.34732,16.74422 15.07931,27.04901c1.74637,10.27472 0.28714,21.80348 -4.3777,34.58627c-2.83907,5.55869 -5.92941,10.39398 -9.27103,14.50589l0.1352,0.05788c-0.04314,0.09021 -0.08692,0.14392 -0.13134,0.16113c-1.19298,0.82963 -2.36117,1.79665 -3.50458,2.90107c1.34202,3.40003 2.77288,6.76565 4.29259,10.09684c4.23402,9.31105 6.1731,19.52337 5.81724,30.63695c-0.36076,0.67874 -0.68428,1.3553 -0.97057,2.02969c-0.04314,0.09021 -0.07908,0.16538 -0.10784,0.22552c-3.11214,1.05858 -6.24778,2.05277 -9.40691,2.98257c-1.14189,0.34435 -2.2296,0.80245 -3.26312,1.37431c-2.94848,4.4251 -4.63631,8.90084 -5.06347,13.4272c-0.1494,1.67484 -0.67049,3.40791 -1.56327,5.19921c-2.89272,5.89796 -6.97403,8.6427 -12.24393,8.23422c-1.82108,-0.12753 -3.61341,-0.31519 -5.37698,-0.563c-1.28649,-1.0941 -2.21761,-2.32586 -2.79334,-3.6953c-0.01566,-0.04293 -0.00193,-0.1095 0.04121,-0.19971c1.38809,-2.44867 2.60707,-5.18708 3.65697,-8.21522c0.02876,-0.06014 0.0647,-0.13531 0.10784,-0.22552c0.67814,-0.43419 1.37259,-0.78896 2.08335,-1.06429c0.04442,-0.01721 0.0882,-0.07092 0.13134,-0.16113c2.40629,0.34182 4.42944,-0.33166 6.06944,-2.02044c0.0588,-0.04728 0.10977,-0.11602 0.15291,-0.20623c0.63805,-1.86413 1.74189,-3.94544 3.31152,-6.24394c1.11874,-1.65835 2.07623,-3.58497 2.87244,-5.77986c1.32438,-3.52646 1.89421,-6.72388 1.70952,-9.59226c0.02876,-0.06014 0.0647,-0.13531 0.10784,-0.22552c-0.68714,-0.07681 -1.20326,0.24563 -1.54836,0.96729c-0.04314,0.09021 -0.07908,0.16538 -0.10784,0.22552c-3.81402,6.91634 -8.14498,12.41597 -12.99287,16.49889c-0.0588,0.04728 -0.10258,0.10099 -0.13134,0.16113c-4.58042,0.64739 -9.42713,0.56496 -14.54015,-0.24729c-0.09013,-0.03858 -0.16524,-0.07074 -0.22533,-0.09646c2.00368,1.18377 4.37443,2.47033 7.11225,3.85969c0.06009,0.02572 0.1352,0.05788 0.22533,0.09646c-1.52533,7.35272 -5.01343,12.03585 -10.4643,14.04941c-2.01467,0.73145 -4.03654,1.47793 -6.06559,2.23944c-2.20674,0.83035 -4.48333,1.50401 -6.82977,2.02098c-3.99521,0.86168 -8.05308,1.55164 -12.17361,2.06988c3.01745,1.18304 5.98813,1.40422 8.91206,0.66354c1.85522,-0.47368 3.76719,-0.68761 5.73592,-0.64177c-0.80826,3.20403 -2.25333,6.22601 -4.33523,9.06595c-1.97996,2.70245 -4.12568,4.88112 -6.43716,6.53603c-2.1926,1.63335 -4.95181,1.99173 -8.27764,1.07515c-0.64401,-0.16701 -1.39907,-0.29101 -2.26519,-0.37198c-8.72,-0.76245 -18.16185,-3.5727 -28.32557,-8.43076c-8.55446,-4.06049 -13.85954,-9.42873 -15.91523,-16.10471c0.16892,-1.4129 0.72584,-2.80461 1.67076,-4.17513c0.0588,-0.04728 0.10977,-0.11602 0.15291,-0.20623c-2.29021,0.32369 -4.56475,0.69032 -6.82363,1.09988c-0.07447,0.00435 -0.14174,-0.00634 -0.20183,-0.03206c0.02876,-0.06014 0.0647,-0.13531 0.10784,-0.22552c1.96371,-5.31759 4.55512,-10.5476 7.77423,-15.69002c-1.35078,-4.7441 -2.18352,-9.70114 -2.49821,-14.8711c-0.01566,-0.04293 -0.05354,-0.07726 -0.11363,-0.10298c3.993,-6.91217 8.30712,-12.94427 12.94237,-18.09629c0.0588,-0.04728 0.10977,-0.11602 0.15291,-0.20623c0.40028,-11.13079 0.54122,-22.17337 0.42282,-33.12772c-0.00958,-3.08321 0.58054,-6.39874 1.77036,-9.94657c0.11375,-0.31356 0.24251,-0.62068 0.3863,-0.92138c7.15657,-5.05076 14.96258,-8.35639 23.41803,-9.91691c0.03004,0.01286 0.06663,-0.02581 0.10977,-0.11602c-0.14658,-8.32201 1.11333,-17.20112 3.77974,-26.63732c0.02876,-0.06014 0.0647,-0.13531 0.10784,-0.22552c-0.16693,-1.01331 0.1743,-1.95397 1.02371,-2.822c0.0588,-0.04728 0.10977,-0.11602 0.15291,-0.20623M466.97852,268.30874c-0.04314,0.09021 -0.07908,0.16538 -0.10784,0.22552c-0.14321,2.87291 0.01735,5.64039 0.48168,8.30245c-0.01438,0.03007 0.0235,0.0644 0.11363,0.10298c-0.24853,1.12525 -0.31219,2.16663 -0.19096,3.12415c0.1916,1.56724 0.68925,1.88895 1.49294,0.96513c0.02876,-0.06014 0.0647,-0.13531 0.10784,-0.22552c3.8395,-4.62327 7.7893,-8.90952 11.8494,-12.85876c-1.20466,-4.06573 -1.69137,-8.42182 -1.46013,-13.06829c-0.01566,-0.04293 -0.05354,-0.07726 -0.11363,-0.10298c-4.83176,2.45971 -8.8894,6.97149 -12.17292,13.53533M503.15462,247.60651c-0.07447,0.00435 -0.14174,-0.00634 -0.20183,-0.03206c0.22269,2.48617 0.4676,4.96373 0.73471,7.4327c0.00129,0.073 -0.01245,0.13957 -0.04121,0.19971c4.82743,-1.01257 9.85002,-1.52501 15.06778,-1.53731c0.03004,0.01286 0.06663,-0.02581 0.10977,-0.11602c-3.35026,-2.30359 -7.44852,-4.32966 -12.29476,-6.07824c-0.09013,-0.03858 -0.16524,-0.07074 -0.22533,-0.09646c-1.07257,0.048 -2.12228,0.1239 -3.14914,0.22769M498.93163,247.8092c-0.01566,-0.04293 -0.05354,-0.07726 -0.11363,-0.10298c-5.31584,0.36879 -10.27922,1.70352 -14.89015,4.00419c-0.0588,0.04728 -0.10258,0.10099 -0.13134,0.16113c-0.03285,0.67421 -0.17611,1.42794 -0.42979,2.26119l0.1352,0.05788c-0.04314,0.09021 -0.07908,0.16538 -0.10784,0.22552c-0.04314,0.09021 -0.06406,0.17181 -0.06278,0.24481c-0.74841,4.06282 -0.65998,7.81372 0.26529,11.2527c0.02876,-0.06014 0.07254,-0.11385 0.13134,-0.16113c4.95754,-3.78241 10.18922,-6.81353 15.69502,-9.09336c-0.82228,-2.67039 -0.98605,-5.62037 -0.49132,-8.84995M521.75993,251.38716c-0.04442,0.01721 0.03262,0.15886 0.23111,0.42496c0.61373,0.98722 1.38048,1.35168 2.30026,1.09338c-0.29225,-1.35675 -1.13604,-1.86286 -2.53137,-1.51833M514.09022,257.77592c-0.04314,0.09021 -0.07973,0.12888 -0.10977,0.11602c-3.16813,0.41879 -6.25076,1.0372 -9.24787,1.85523c-0.04314,0.09021 -0.05687,0.15678 -0.04121,0.19971c0.93579,3.18991 2.38243,6.18192 4.33994,8.97603c0.06009,0.02572 1.33934,-0.98432 3.83775,-3.03013c2.51279,-2.07588 4.57083,-3.7306 6.17413,-4.96417l1.34653,-0.99936c-0.87126,-0.37297 -1.79414,-0.7137 -2.76862,-1.02219l-0.04314,0.09021c-0.09013,-0.03858 -0.16524,-0.07074 -0.22533,-0.09646c-1.10904,-0.32986 -2.19651,-0.70483 -3.26241,-1.1249M500.61323,260.75494c-0.01566,-0.04293 -0.05354,-0.07726 -0.11363,-0.10298c-5.57489,1.74311 -10.73467,4.62389 -15.47934,8.64232c-0.0588,0.04728 -0.10258,0.10099 -0.13134,0.16113c0.72302,7.19223 3.67435,13.50901 8.854,18.95033c0.04571,0.05579 0.11363,0.10298 0.20376,0.14156c3.89725,-5.57662 7.88464,-11.11465 11.96215,-16.6141c0.0588,-0.04728 0.10977,-0.11602 0.15291,-0.20623c-2.51909,-3.36055 -4.33526,-7.01789 -5.44851,-10.97203M509.82302,275.78229c-2.37567,2.24325 -4.58095,4.84924 -6.61585,7.81797c-2.07804,3.05893 -4.17238,6.03844 -6.28303,8.93851c4.15945,5.07705 10.29376,9.27882 18.40295,12.60533c1.1717,0.50158 2.35649,0.9001 3.55437,1.19554c1.36248,0.32968 2.31178,-0.3688 2.84789,-2.09544c2.57429,-7.04858 4.26013,-13.75299 5.05752,-20.11323c-0.00129,-0.073 0.01964,-0.1546 0.06278,-0.24481c-6.67528,-1.48103 -12.2829,-4.13513 -16.82286,-7.9623c-0.07575,-0.06865 -0.14367,-0.11584 -0.20376,-0.14156M512.37737,272.2571c-0.07318,0.07735 -0.12415,0.14609 -0.15291,0.20623c1.68477,1.69929 3.79747,3.14707 6.33807,4.34334c2.811,1.31202 5.47126,2.10669 7.98077,2.38402c0.07447,-0.00435 0.14765,-0.08169 0.21954,-0.23204c-0.31317,-5.93003 -1.28549,-11.61698 -2.91695,-17.06083c-0.01566,-0.04293 -0.00193,-0.1095 0.04121,-0.19971c-3.96844,3.22775 -7.80502,6.74742 -11.50974,10.55899M481.6016,273.26454c-0.01566,-0.04293 -0.05354,-0.07726 -0.11363,-0.10298c-3.51498,2.7336 -6.69382,6.35371 -9.53651,10.86032c-0.04314,0.09021 -0.07908,0.16538 -0.10784,0.22552l-0.1352,-0.05788c-0.83783,1.52503 -1.70109,2.87616 -2.58977,4.0534c2.34385,8.6468 6.18369,16.73859 11.51951,24.27536c0.76523,1.12453 1.50849,1.42459 2.22977,0.90019c0.57562,-2.86892 1.26295,-5.74436 2.06197,-8.62632l0.1352,0.05788l0.09013,0.03858c1.38704,-3.35474 3.04972,-6.71826 4.98806,-10.09057l0.09013,0.03858c0.37899,-0.48981 0.67569,-0.99673 0.89009,-1.52077c-0.22854,-0.27896 -0.46427,-0.54288 -0.70719,-0.79177c-0.07575,-0.06865 -0.14367,-0.11584 -0.20376,-0.14156c0.02876,-0.06014 0.0647,-0.13531 0.10784,-0.22552c-4.61653,-5.63496 -7.5228,-11.93245 -8.7188,-18.89246M463.42587,288.7945c0.33457,-0.4726 0.70047,-0.85933 1.0977,-1.16021c-0.60964,-1.60129 -1.01218,-3.29506 -1.20764,-5.0813c-0.01566,-0.04293 -0.05354,-0.07726 -0.11363,-0.10298c-0.5312,2.85171 -0.52922,5.08039 0.00595,6.68603l0.21761,-0.34154M466.43226,294.42846c-0.85455,0.57603 -1.41006,1.6242 -1.66655,3.14452c-0.27472,1.33139 -0.61145,2.52756 -1.01021,3.5885c1.11008,10.54571 6.14499,19.62001 15.10474,27.2229c0.60473,0.47622 1.24155,0.65827 1.91045,0.54615c0.08884,-0.03442 0.16921,-0.1268 0.24111,-0.27715c-0.23964,-2.6021 -0.08667,-5.34404 0.45891,-8.22582c-0.00129,-0.073 0.01964,-0.1546 0.06278,-0.24481c-3.21653,-4.02135 -6.21094,-8.12875 -8.98324,-12.32218c-2.7723,-4.19344 -4.81163,-8.67081 -6.11799,-13.43212M494.89251,297.80917c-0.06009,-0.02572 -0.13455,-0.02138 -0.2234,0.01304c-1.18655,1.19463 -2.1407,2.88721 -2.86245,5.07776c-0.65243,1.8942 -1.20163,3.72391 -1.64761,5.48913c-0.04314,0.09021 -0.07908,0.16538 -0.10784,0.22552c-1.41451,3.48788 -2.36258,6.79507 -2.84422,9.92157c1.64292,1.8625 3.51848,3.38989 5.62667,4.58217c4.59257,2.58182 9.44729,4.38836 14.56416,5.41961c0.02876,-0.06014 0.07973,-0.12888 0.15291,-0.20623c3.39504,-3.61812 6.546,-7.97465 9.45287,-13.06962c0.12964,-1.1037 0.50683,-2.11954 1.13155,-3.04752c0.0588,-0.04728 0.10977,-0.11602 0.15291,-0.20623c0.02876,-0.06014 0.0647,-0.13531 0.10784,-0.22552c0.30581,-0.41246 0.59661,-0.83135 0.87238,-1.25667c-6.12035,-0.44653 -11.70588,-2.6927 -16.75658,-6.73851c-2.45024,-1.99075 -4.98997,-3.98359 -7.61919,-5.97851M483.57247,330.56462c-0.01309,0.10307 -0.03402,0.18467 -0.06278,0.24481c5.14902,2.85625 10.24613,4.45864 15.29135,4.80717c0.03004,0.01286 0.06663,-0.02581 0.10977,-0.11602c1.55093,-0.82129 2.96999,-1.9345 4.25719,-3.33961c0.0588,-0.04728 0.10977,-0.11602 0.15291,-0.20623c-7.02142,-1.66543 -12.85758,-4.59849 -17.50848,-8.79918c-0.07575,-0.06865 -0.14367,-0.11584 -0.20376,-0.14156c-1.0119,2.64593 -1.69063,5.1628 -2.03619,7.55061M456.75986,307.73012c-0.04571,-0.05579 -0.09861,-0.09655 -0.15869,-0.12227c-1.24547,6.31333 -0.86234,11.98351 1.1494,17.01056c0.01566,0.04293 0.06856,0.08369 0.15869,0.12227c-0.04314,0.09021 -0.06406,0.17181 -0.06278,0.24481c0.02081,0.33493 0.12327,0.65048 0.30739,0.94665c-0.04314,0.09021 -0.04968,0.14174 -0.01964,0.1546c0.84613,1.48518 1.66221,2.9575 2.44825,4.41696c-0.04314,0.09021 -0.04968,0.14174 -0.01964,0.1546c1.02896,1.70835 1.99848,3.42748 2.90855,5.15738c0.06009,0.02572 0.11298,0.06648 0.15869,0.12227c2.24438,4.69194 6.65826,8.5557 13.24165,11.59128c1.69939,0.83615 3.25908,1.35893 4.67908,1.56833c1.58459,0.24364 3.09536,0.52813 4.53231,0.85346c8.50151,1.90056 15.94103,1.06433 22.31857,-2.50867c-0.91802,-1.33483 -2.30271,-1.65591 -4.15408,-0.96323c-0.38542,0.12481 -0.7937,0.22172 -1.22483,0.29073c-1.21893,0.20269 -2.44697,0.31092 -3.68414,0.32469c-4.4911,-1.05317 -8.99261,-2.2738 -13.50452,-3.6619c-1.79875,-0.55267 -3.55437,-1.19554 -5.26685,-1.92863c-4.33013,-2.071 -7.71236,-4.49695 -10.1467,-7.27784c-0.04571,-0.05579 -0.09861,-0.09655 -0.15869,-0.12227c-0.59421,-0.72529 -1.2838,-1.36463 -2.06879,-1.91802c-0.07575,-0.06865 -0.14367,-0.11584 -0.20376,-0.14156c0.02876,-0.06014 0.0647,-0.13531 0.10784,-0.22552c-0.32124,-0.46354 -0.63465,-0.90562 -0.94023,-1.32623c-0.03004,-0.01286 -0.0235,-0.0644 0.01964,-0.1546c0.02876,-0.06014 0.0647,-0.13531 0.10784,-0.22552c-1.24721,-1.40331 -2.26513,-2.90769 -3.05374,-4.51315c-0.04571,-0.05579 -0.09861,-0.09655 -0.15869,-0.12227c0.02876,-0.06014 0.0647,-0.13531 0.10784,-0.22552c-0.81737,-1.54532 -1.53806,-3.10359 -2.16208,-4.67482c-0.04571,-0.05579 -0.09861,-0.09655 -0.15869,-0.12227c0.02876,-0.06014 0.0647,-0.13531 0.10784,-0.22552c-1.87614,-4.0996 -3.61182,-8.26586 -5.20704,-12.49878M530.47104,255.87696c-0.07575,-0.06865 -0.14367,-0.11584 -0.20376,-0.14156c-1.08005,-1.22307 -2.22953,-1.73326 -3.44846,-1.53056c-0.07447,0.00435 -0.08756,0.10742 -0.03928,0.30921c-0.11398,1.14663 0.49794,1.60781 1.83575,1.38356c0.04442,-0.01721 0.1117,-0.00652 0.20183,0.03206c0.06009,0.02572 0.1352,0.05788 0.22533,0.09646c1.47342,0.7032 2.93643,1.23892 4.38905,1.60719c-1.15732,-0.53165 -2.14414,-1.11711 -2.96046,-1.75636M529.68388,260.70202c-0.22726,-0.20596 -0.49046,-0.33674 -0.78961,-0.39235c0.39149,6.14469 0.70712,12.63726 0.94687,19.47771c0.00129,0.073 -0.01245,0.13957 -0.04121,0.19971c3.58442,1.2084 7.00266,1.02347 10.25473,-0.55481c0.04442,-0.01721 0.0882,-0.07092 0.13134,-0.16113c-1.09535,-7.17049 -4.59606,-13.3602 -10.50213,-18.56912M538.41497,263.78761c0.01566,0.04293 0.03852,0.07083 0.06856,0.08369c0.15408,0.28331 0.44785,0.87999 0.88131,1.79004c0.06137,0.09872 0.13058,0.21891 0.20762,0.36056c0.86565,1.74711 1.71616,3.90433 2.55153,6.47165c0.89803,2.73904 1.38492,4.14289 1.46067,4.21155c0.48584,0.49778 0.93404,0.12816 1.3446,-1.10886c0.02876,-0.06014 0.0647,-0.13531 0.10784,-0.22552c-1.47248,-4.03548 -3.04251,-7.26143 -4.7101,-9.67786c-0.74957,-1.0816 -1.26212,-1.82627 -1.53765,-2.23402c-0.09142,-0.11158 -0.19785,-0.2296 -0.31931,-0.35404c-0.95859,-1.09863 -0.97694,-0.87102 -0.05506,0.68281M545.83109,281.09001c-0.01566,-0.04293 -0.09796,-0.06005 -0.24689,-0.05135c-0.79832,0.38275 -1.28118,0.90054 -1.44858,1.55338l0.1352,0.05788c-0.04314,0.09021 -0.05687,0.15678 -0.04121,0.19971c0.0339,0.23186 0.09001,0.45512 0.16834,0.66977c-0.04314,0.09021 -0.07908,0.16538 -0.10784,0.22552c-0.04314,0.09021 -0.05687,0.15678 -0.04121,0.19971c0.58099,5.89978 0.73997,11.96305 0.47693,18.18979c0.02876,-0.06014 0.07973,-0.12888 0.15291,-0.20623c0.80627,-0.77782 1.51662,-1.92272 2.13105,-3.43471c0.60146,-6.48034 0.20857,-12.28149 -1.17869,-17.40346M540.81779,283.39955c-0.01566,-0.04293 -0.05354,-0.07726 -0.11363,-0.10298c-3.3851,0.79683 -6.9967,1.00767 -10.83479,0.63252c-0.04442,0.01721 -0.08101,0.05588 -0.10977,0.11602c-0.16776,6.55733 -1.90673,14.05405 -5.21691,22.49017l0.1352,0.05788c2.15285,0.342 4.17255,0.31909 6.0591,-0.06873c0.04442,-0.01721 0.1117,-0.00652 0.20183,0.03206c0.06009,0.02572 0.12736,0.03641 0.20183,0.03206c3.41363,-0.0239 6.61578,-0.62737 9.60646,-1.8104c0.39046,-4.07116 0.76589,-8.14875 1.1263,-12.23276c-0.01566,-0.04293 -0.05354,-0.07726 -0.11363,-0.10298c0.02876,-0.06014 0.0647,-0.13531 0.10784,-0.22552c0.02876,-0.06014 0.0647,-0.13531 0.10784,-0.22552c-0.31925,-2.88975 -0.70514,-5.75369 -1.15766,-8.59182M531.64264,326.20185c0.04442,-0.01721 0.1117,-0.00652 0.20183,0.03206c1.63896,-2.59485 3.23027,-5.35499 4.77396,-8.28043c0.02876,-0.06014 0.0647,-0.13531 0.10784,-0.22552c1.10998,-3.00242 2.06448,-5.94461 2.8635,-8.82657c0.02876,-0.06014 0.0647,-0.13531 0.10784,-0.22552c-5.03668,1.82861 -10.46434,2.62046 -16.28297,2.37554c-0.04442,0.01721 -0.08101,0.05588 -0.10977,0.11602c-2.73608,6.32727 -6.13761,12.1161 -10.20461,17.36648c-0.04314,0.09021 -0.07908,0.16538 -0.10784,0.22552c6.85963,0.94413 13.07637,0.0916 18.65021,-2.55759M525.16425,346.90225c0.03004,0.01286 0.06663,-0.02581 0.10977,-0.11602c-0.97449,-0.30849 -1.17556,-0.72058 -0.60321,-1.23629c0.27834,-0.27932 0.4143,-0.60148 0.40787,-0.96648c-0.08066,-1.19372 -0.42002,-2.26273 -1.01809,-3.20702c-1.9374,0.04003 -3.79519,0.36771 -5.57337,0.98304c-0.04442,0.01721 -0.08101,0.05588 -0.10977,0.11602c1.36458,2.14182 3.62685,3.61741 6.7868,4.42675M509.74017,333.28996c-0.10451,-0.00851 -0.18681,-0.02563 -0.24689,-0.05135c-1.11594,0.97128 -2.20183,1.95542 -3.25768,2.95242c-0.07318,0.07735 -0.12415,0.14609 -0.15291,0.20623c6.19353,0.36918 11.908,-0.64402 17.14342,-3.03961c0.04442,-0.01721 0.0882,-0.07092 0.13134,-0.16113c-4.37268,0.59142 -8.91177,0.62256 -13.61727,0.09344M492.07536,385.44458c0.03004,0.01286 0.06663,-0.02581 0.10977,-0.11602c-1.08928,-0.901 -1.98995,-1.25033 -2.70199,-1.048c-0.04442,0.01721 -0.08101,0.05588 -0.10977,0.11602c1.08414,0.609 1.9848,0.95833 2.70199,1.048M454.16737,370.03188l0.0647,-0.13531c-6.02858,-6.23944 -11.01322,-12.88327 -14.95395,-19.9315c-0.04571,-0.05579 -0.09861,-0.09655 -0.15869,-0.12227c-0.31914,1.3486 -0.2829,2.55953 0.10871,3.6328c0.00129,0.073 -0.01245,0.13957 -0.04121,0.19971c-1.98439,-0.08876 -3.45817,0.45765 -4.42132,1.63923c-0.03004,-0.01286 -0.07511,-0.03215 -0.1352,-0.05788c1.42981,2.45954 3.52596,4.66096 6.28845,6.60426c3.00412,2.11918 5.85814,3.75752 8.56206,4.91503c-0.05109,0.48528 0.231,0.84149 0.84624,1.06865l-0.04314,0.09021c1.41333,0.67747 2.70778,1.3765 3.88333,2.09709z" fill="#000000"/><path d="M454.23208,369.89657l-0.0647,0.13531c-1.17556,-0.72058 -2.47,-1.41961 -3.88333,-2.09709l0.04314,-0.09021c-0.61525,-0.22715 -0.89733,-0.58337 -0.84624,-1.06865c-2.70392,-1.1575 -5.55794,-2.79584 -8.56206,-4.91503c-2.76248,-1.94329 -4.85863,-4.14471 -6.28845,-6.60426c0.06009,0.02572 0.10515,0.04501 0.1352,0.05788c0.96315,-1.18158 2.43692,-1.728 4.42132,-1.63923c0.02876,-0.06014 0.04249,-0.12671 0.04121,-0.19971c-0.39162,-1.07327 -0.42785,-2.2842 -0.10871,-3.6328c0.06009,0.02572 0.11298,0.06648 0.15869,0.12227c3.94072,7.04823 8.92537,13.69206 14.95395,19.9315z" fill="#2c2d40"/><path d="M492.18513,385.32856c-0.04314,0.09021 -0.07973,0.12888 -0.10977,0.11602c-0.71719,-0.08967 -1.61785,-0.439 -2.70199,-1.048c0.02876,-0.06014 0.06535,-0.09881 0.10977,-0.11602c0.71204,-0.20233 1.61271,0.147 2.70199,1.048z" fill="#353849"/><path d="M509.49328,333.23861c0.06009,0.02572 0.14239,0.04284 0.24689,0.05135c4.7055,0.52913 9.24459,0.49798 13.61727,-0.09344c-0.04314,0.09021 -0.08692,0.14392 -0.13134,0.16113c-5.23541,2.39559 -10.94989,3.40879 -17.14342,3.03961c0.02876,-0.06014 0.07973,-0.12888 0.15291,-0.20623c1.05585,-0.997 2.14175,-1.98114 3.25768,-2.95242M531.84447,326.23391c-0.09013,-0.03858 -0.15741,-0.04927 -0.20183,-0.03206c-5.57384,2.64918 -11.79058,3.50171 -18.65021,2.55759c0.02876,-0.06014 0.0647,-0.13531 0.10784,-0.22552c4.06699,-5.25038 7.46853,-11.03921 10.20461,-17.36648c0.02876,-0.06014 0.06535,-0.09881 0.10977,-0.11602c5.81863,0.24492 11.24629,-0.54693 16.28297,-2.37554c-0.04314,0.09021 -0.07908,0.16538 -0.10784,0.22552c-0.79902,2.88196 -1.75352,5.82415 -2.8635,8.82657c-0.04314,0.09021 -0.07908,0.16538 -0.10784,0.22552c-1.54368,2.92543 -3.135,5.68558 -4.77396,8.28043M541.75976,292.44241c0.06009,0.02572 0.09796,0.06005 0.11363,0.10298c-0.36041,4.08402 -0.73584,8.16161 -1.1263,12.23276c-2.99068,1.18303 -6.19283,1.7865 -9.60646,1.8104c-0.07447,0.00435 -0.14174,-0.00634 -0.20183,-0.03206c0.02876,-0.06014 0.07973,-0.12888 0.15291,-0.20623c3.83927,-3.7902 7.39529,-8.42615 10.66805,-13.90785M545.5842,281.03865c0.14893,-0.00869 0.23123,0.00842 0.24689,0.05135c1.38726,5.12196 1.78015,10.92312 1.17869,17.40346c-0.61443,1.51199 -1.32478,2.65689 -2.13105,3.43471c-0.07318,0.07735 -0.12415,0.14609 -0.15291,0.20623c0.26304,-6.22674 0.10406,-12.29001 -0.47693,-18.18979c-0.01566,-0.04293 -0.00193,-0.1095 0.04121,-0.19971c0.06009,0.02572 0.1352,0.05788 0.22533,0.09646c0.31481,0.09854 0.57287,-0.06267 0.77418,-0.48365c0.12707,-1.2497 -0.16155,-1.55438 -0.86588,-0.91404c-0.07318,0.07735 -0.12415,0.14609 -0.15291,0.20623l-0.1352,-0.05788c0.1674,-0.65283 0.65026,-1.17063 1.44858,-1.55338M483.5097,330.80944c0.02876,-0.06014 0.04968,-0.14174 0.06278,-0.24481c0.34556,-2.38781 1.02429,-4.90468 2.03619,-7.55061c0.06009,0.02572 0.12801,0.07291 0.20376,0.14156c4.6509,4.20069 10.48706,7.13374 17.50848,8.79918c-0.04314,0.09021 -0.09411,0.15895 -0.15291,0.20623c-1.2872,1.40511 -2.70626,2.51832 -4.25719,3.33961c-0.04314,0.09021 -0.07973,0.12888 -0.10977,0.11602c-5.04521,-0.34853 -10.14233,-1.95092 -15.29135,-4.80717M490.15906,308.3891c0.06009,0.02572 0.1352,0.05788 0.22533,0.09646c10.35964,4.97816 19.66087,6.15243 27.90368,3.52282c-0.04314,0.09021 -0.09411,0.15895 -0.15291,0.20623c-0.62472,0.92799 -1.0019,1.94383 -1.13155,3.04752c-2.90687,5.09496 -6.05782,9.4515 -9.45287,13.06962c-0.07318,0.07735 -0.12415,0.14609 -0.15291,0.20623c-5.11687,-1.03125 -9.97159,-2.83779 -14.56416,-5.41961c-2.10819,-1.19228 -3.98375,-2.71967 -5.62667,-4.58217c0.48164,-3.1265 1.42971,-6.43369 2.84422,-9.92157c0.02876,-0.06014 0.0647,-0.13531 0.10784,-0.22552M464.76572,297.57298c0.25648,-1.52032 0.812,-2.5685 1.66655,-3.14452c1.30636,4.76131 3.34569,9.23868 6.11799,13.43212c2.7723,4.19344 5.76671,8.30083 8.98324,12.32218c-0.04314,0.09021 -0.06406,0.17181 -0.06278,0.24481c-0.54558,2.88178 -0.69855,5.62372 -0.45891,8.22582c-0.07189,0.15035 -0.15226,0.24273 -0.24111,0.27715c-0.66891,0.11213 -1.30573,-0.06992 -1.91045,-0.54615c-8.95975,-7.6029 -13.99466,-16.6772 -15.10474,-27.2229c0.39875,-1.06095 0.73549,-2.25711 1.01021,-3.5885M464.52357,287.63429c-0.39723,0.30088 -0.76313,0.68761 -1.0977,1.16021l-0.21761,0.34154c-0.53517,-1.60564 -0.53715,-3.83432 -0.00595,-6.68603c0.06009,0.02572 0.09796,0.06005 0.11363,0.10298c0.19546,1.78624 0.598,3.48 1.20764,5.0813M471.84363,284.24741c-0.07189,0.15035 -0.14379,0.30069 -0.21568,0.45104c-0.14379,0.30069 -0.17652,0.55837 -0.0982,0.77302c3.00014,6.9716 7.54787,13.35595 13.6432,19.15304c-0.04314,0.09021 -0.07908,0.16538 -0.10784,0.22552l-0.1352,-0.05788c-0.79902,2.88196 -1.48635,5.7574 -2.06197,8.62632c-0.72128,0.5244 -1.46454,0.22434 -2.22977,-0.90019c-5.33582,-7.53677 -9.17565,-15.62856 -11.51951,-24.27536c0.88868,-1.17724 1.75194,-2.52837 2.58977,-4.0534l0.1352,0.05788M467.62468,277.06196c0.46994,1.28792 0.85104,2.61025 1.14329,3.967c-0.8037,0.92382 -1.30134,0.60211 -1.49294,-0.96513c-0.12122,-0.95751 -0.05757,-1.9989 0.19096,-3.12415c0.06009,0.02572 0.11298,0.06648 0.15869,0.12227z" fill="#343444"/><path d="M525.27402,346.78623c-0.04314,0.09021 -0.07973,0.12888 -0.10977,0.11602c-3.15995,-0.80935 -5.42222,-2.28493 -6.7868,-4.42675c0.02876,-0.06014 0.06535,-0.09881 0.10977,-0.11602c1.77818,-0.61533 3.63597,-0.94302 5.57337,-0.98304c0.59806,0.94429 0.93743,2.0133 1.01809,3.20702c0.00643,0.365 -0.12953,0.68716 -0.40787,0.96648c-0.57235,0.51571 -0.37128,0.92781 0.60321,1.23629z" fill="#2c2c3f"/><path d="M540.70416,283.29657c0.06009,0.02572 0.09796,0.06005 0.11363,0.10298c0.45252,2.83813 0.83841,5.70207 1.15766,8.59182c-0.04314,0.09021 -0.07908,0.16538 -0.10784,0.22552c-0.04314,0.09021 -0.07908,0.16538 -0.10784,0.22552c-3.27277,5.4817 -6.82879,10.11765 -10.66805,13.90785c-0.07318,0.07735 -0.12415,0.14609 -0.15291,0.20623c-0.09013,-0.03858 -0.15741,-0.04927 -0.20183,-0.03206c-1.88655,0.38782 -3.90625,0.41073 -6.0591,0.06873l-0.1352,-0.05788c3.31018,-8.43612 5.04915,-15.93284 5.21691,-22.49017c0.02876,-0.06014 0.06535,-0.09881 0.10977,-0.11602c3.83809,0.37515 7.44969,0.16431 10.83479,-0.63252M486.08313,349.95104c-1.43695,-0.32533 -2.94772,-0.60982 -4.53231,-0.85346c-1.42,-0.2094 -2.97969,-0.73218 -4.67908,-1.56833c0.02876,-0.06014 0.0647,-0.13531 0.10784,-0.22552c1.28334,-1.62411 2.47924,-3.55734 3.5877,-5.79969c1.71248,0.73308 3.4681,1.37596 5.26685,1.92863c4.51191,1.3881 9.01341,2.60873 13.50452,3.6619c1.23716,-0.01376 2.46521,-0.12199 3.68414,-0.32469c0.43113,-0.06901 0.83941,-0.16592 1.22483,-0.29073c1.85136,-0.69268 3.23605,-0.3716 4.15408,0.96323c-6.37754,3.573 -13.81706,4.40923 -22.31857,2.50867M456.60116,307.60785c0.06009,0.02572 0.11298,0.06648 0.15869,0.12227c1.59523,4.23292 3.33091,8.39918 5.20704,12.49878c-0.04314,0.09021 -0.07908,0.16538 -0.10784,0.22552c-0.93439,1.12145 -1.81267,2.46615 -2.63484,4.03411l-0.09013,-0.03858c0.02876,-0.06014 0.0647,-0.13531 0.10784,-0.22552c-0.29272,0.30939 -0.66967,0.49216 -1.13084,0.54831c-0.07447,0.00435 -0.14174,-0.00634 -0.20183,-0.03206c-0.09013,-0.03858 -0.14303,-0.07934 -0.15869,-0.12227c-2.01174,-5.02705 -2.39488,-10.69723 -1.1494,-17.01056M494.66911,297.82221c0.08884,-0.03442 0.16331,-0.03876 0.2234,-0.01304c2.62922,1.99492 5.16895,3.98775 7.61919,5.97851c5.0507,4.04581 10.63623,6.29198 16.75658,6.73851c-0.27577,0.42532 -0.56656,0.84421 -0.87238,1.25667c-0.04314,0.09021 -0.07908,0.16538 -0.10784,0.22552c-8.24281,2.62961 -17.54404,1.45534 -27.90368,-3.52282c-0.09013,-0.03858 -0.16524,-0.07074 -0.22533,-0.09646c0.44598,-1.76522 0.99518,-3.59493 1.64761,-5.48913c0.72175,-2.19054 1.6759,-3.88313 2.86245,-5.07776M512.22446,272.46333c0.02876,-0.06014 0.07973,-0.12888 0.15291,-0.20623c3.70471,-3.81157 7.54129,-7.33124 11.50974,-10.55899c-0.04314,0.09021 -0.05687,0.15678 -0.04121,0.19971c1.63146,5.44385 2.60378,11.1308 2.91695,17.06083c-0.07189,0.15035 -0.14507,0.22769 -0.21954,0.23204c-2.50951,-0.27733 -5.16977,-1.07201 -7.98077,-2.38402c-2.54061,-1.19627 -4.6533,-2.64404 -6.33807,-4.34334M513.98045,257.89194c0.03004,0.01286 0.06663,-0.02581 0.10977,-0.11602c1.0659,0.42007 2.15337,0.79504 3.26241,1.1249c0.06009,0.02572 0.1352,0.05788 0.22533,0.09646l0.04314,-0.09021c0.97449,0.30849 1.89736,0.64922 2.76862,1.02219l-1.34653,0.99936c-1.6033,1.23357 -3.66134,2.88829 -6.17413,4.96417c-2.49841,2.04581 -3.77766,3.05585 -3.83775,3.03013c-1.9575,-2.79411 -3.40415,-5.78612 -4.33994,-8.97603c-0.01566,-0.04293 -0.00193,-0.1095 0.04121,-0.19971c2.99711,-0.81803 6.07973,-1.43644 9.24787,-1.85523z" fill="#475c81"/><path d="M544.2901,283.7449c0.02876,-0.06014 0.0647,-0.13531 0.10784,-0.22552c-0.07832,-0.21465 -0.13444,-0.43791 -0.16834,-0.66977c-0.01566,-0.04293 -0.00193,-0.1095 0.04121,-0.19971c0.02876,-0.06014 0.07973,-0.12888 0.15291,-0.20623c0.70433,-0.64033 0.99296,-0.33565 0.86588,0.91404c-0.2013,0.42097 -0.45936,0.58219 -0.77418,0.48365c-0.09013,-0.03858 -0.16524,-0.07074 -0.22533,-0.09646z" fill="#425574"/><path d="M538.67958,263.57486l0.04507,0.01929c-0.19978,-0.3391 -0.28465,-0.50222 -0.25461,-0.48935c0.12146,0.12444 0.2279,0.24246 0.31931,0.35404c0.27554,0.40775 0.78809,1.15242 1.53765,2.23402c1.66759,2.41643 3.23762,5.64239 4.7101,9.67786c-0.04314,0.09021 -0.07908,0.16538 -0.10784,0.22552c-0.41056,1.23702 -0.85876,1.60663 -1.3446,1.10886c-0.07575,-0.06865 -0.56264,-1.4725 -1.46067,-4.21155c-0.83537,-2.56732 -1.68588,-4.72454 -2.55153,-6.47165l-0.85975,-1.83515l-0.07049,-0.19319c-0.03004,-0.01286 -0.11363,-0.10298 -0.25075,-0.27035l0.22533,0.09646c-0.03133,-0.08586 -0.06985,-0.15669 -0.11556,-0.21248c-0.46351,-0.92292 -0.40407,-0.9337 0.17833,-0.03233z" fill="#415476"/><path d="M538.72465,263.59415l-0.04507,-0.01929c-0.5824,-0.90136 -0.64184,-0.89058 -0.17833,0.03233c0.04571,0.05579 0.08423,0.12662 0.11556,0.21248l-0.22533,-0.09646c0.13712,0.16738 0.22071,0.25749 0.25075,0.27035l0.07049,0.19319l0.85975,1.83515c-0.07704,-0.14165 -0.14624,-0.26184 -0.20762,-0.36056c-0.43347,-0.91006 -0.72724,-1.50674 -0.88131,-1.79004c-0.03004,-0.01286 -0.0529,-0.04076 -0.06856,-0.08369c-0.92188,-1.55384 -0.90353,-1.78144 0.05506,-0.68281c-0.03004,-0.01286 0.05483,0.15026 0.25461,0.48935z" fill="#415370"/><path d="M528.89427,260.30967c0.29915,0.05561 0.56235,0.1864 0.78961,0.39235c5.90606,5.20892 9.40677,11.39863 10.50213,18.56912c-0.04314,0.09021 -0.08692,0.14392 -0.13134,0.16113c-3.25207,1.57828 -6.67032,1.76322 -10.25473,0.55481c0.02876,-0.06014 0.04249,-0.12671 0.04121,-0.19971c-0.23975,-6.84045 -0.55538,-13.33302 -0.94687,-19.47771z" fill="#465c81"/><path d="M530.26728,255.73539c0.06009,0.02572 0.12801,0.07291 0.20376,0.14156c0.81632,0.63925 1.80314,1.2247 2.96046,1.75636c-1.45261,-0.36826 -2.91563,-0.90399 -4.38905,-1.60719c-0.09013,-0.03858 -0.16524,-0.07074 -0.22533,-0.09646c-0.09013,-0.03858 -0.15741,-0.04927 -0.20183,-0.03206c-1.33782,0.22425 -1.94973,-0.23694 -1.83575,-1.38356c-0.04828,-0.20179 -0.03519,-0.30486 0.03928,-0.30921c1.21893,-0.20269 2.36841,0.30749 3.44846,1.53056M521.99104,251.81212c-0.1985,-0.2661 -0.27554,-0.40775 -0.23111,-0.42496c1.39533,-0.34453 2.23912,0.16158 2.53137,1.51833c-0.91978,0.25831 -1.68653,-0.10615 -2.30026,-1.09338z" fill="#435878"/><path d="M467.17658,330.33798c-0.04314,0.09021 -0.04968,0.14174 -0.01964,0.1546c0.30558,0.42061 0.61899,0.86269 0.94023,1.32623c-0.04314,0.09021 -0.07908,0.16538 -0.10784,0.22552c-0.04314,0.09021 -0.04968,0.14174 -0.01964,0.1546c0.68819,0.98288 1.45226,1.61787 2.29219,1.90498c0.06009,0.02572 0.11298,0.06648 0.15869,0.12227c2.43434,2.78089 5.81658,5.20684 10.1467,7.27784c-1.10846,2.24235 -2.30436,4.17558 -3.5877,5.79969c-0.04314,0.09021 -0.07908,0.16538 -0.10784,0.22552c-6.58339,-3.03559 -10.99728,-6.89935 -13.24165,-11.59128c-0.04571,-0.05579 -0.09861,-0.09655 -0.15869,-0.12227c0.02876,-0.06014 0.0647,-0.13531 0.10784,-0.22552c1.26896,-1.59404 2.46808,-3.34477 3.59734,-5.25219M459.13409,324.44995l0.09013,0.03858c0.82217,-1.56796 1.70045,-2.91266 2.63484,-4.03411c0.06009,0.02572 0.11298,0.06648 0.15869,0.12227c0.62402,1.57122 1.34471,3.1295 2.16208,4.67482c-0.04314,0.09021 -0.07908,0.16538 -0.10784,0.22552c-1.27411,1.30204 -2.40723,2.99046 -3.39937,5.06526l-0.09013,-0.03858c-0.78604,-1.45946 -1.60212,-2.93178 -2.44825,-4.41696c-0.03004,-0.01286 -0.0235,-0.0644 0.01964,-0.1546c0.02876,-0.06014 0.07254,-0.11385 0.13134,-0.16113c0.36847,-0.24074 0.65143,-0.68109 0.84888,-1.32106M483.50191,254.1906c0.55025,-0.92364 1.20233,-1.56823 1.95622,-1.93377c0.13327,-0.05163 0.28156,-0.09682 0.44487,-0.13558c3.2675,-0.70228 6.70012,-0.91729 10.29787,-0.64502c-3.60616,1.78895 -7.18036,3.70025 -10.72258,5.73392c-0.16202,0.11176 -0.39326,0.10334 -0.69369,-0.02527c-1.29187,-0.55303 -1.72534,-1.46308 -1.3004,-2.73017l-0.09013,-0.03858c0.02876,-0.06014 0.0647,-0.13531 0.10784,-0.22552M508.38956,251.53195c-0.04314,0.09021 -0.07908,0.16538 -0.10784,0.22552c-1.83207,1.78768 -3.11945,1.49015 -3.86212,-0.89258c-0.01566,-0.04293 -0.00193,-0.1095 0.04121,-0.19971c-0.1605,-0.64831 0.05518,-1.09935 0.64705,-1.35313c2.02777,-0.83451 3.22951,-0.32007 3.60522,1.54333c-0.14507,0.22769 -0.25292,0.45322 -0.32352,0.67656M472.90804,262.15311c0.06009,0.02572 0.11234,0.02998 0.15676,0.01277c2.11837,-2.46207 4.11071,-2.76838 5.97703,-0.91892c-0.04314,0.09021 -0.07908,0.16538 -0.10784,0.22552c-0.04314,0.09021 -0.07908,0.16538 -0.10784,0.22552l0.09013,0.03858c-0.26011,0.46825 -0.28372,0.82039 -0.07084,1.05642c-0.32405,0.22353 -0.65991,0.62313 -1.00757,1.19879l-0.09013,-0.03858c-1.65029,1.10478 -3.1831,2.53154 -4.59842,4.28028c-0.03004,-0.01286 -0.07511,-0.03215 -0.1352,-0.05788c-1.10846,2.24235 -2.47603,3.73984 -4.10271,4.49248c-0.14765,0.08169 -0.03788,-0.03433 0.32931,-0.34806c0.1764,-0.14183 0.3365,-0.3631 0.48029,-0.66379c0.02876,-0.06014 0.0647,-0.13531 0.10784,-0.22552c1.00418,-3.08393 2.03058,-6.17647 3.07919,-9.27761z" fill="#8fbbbe"/><path d="M467.98933,332.04434c0.06009,0.02572 0.12801,0.07291 0.20376,0.14156c0.78499,0.55339 1.47459,1.19273 2.06879,1.91802c-0.83993,-0.28711 -1.604,-0.92211 -2.29219,-1.90498c-0.03004,-0.01286 -0.0235,-0.0644 0.01964,-0.1546z" fill="#94c3c7"/><path d="M459.24193,324.22443c-0.04314,0.09021 -0.07908,0.16538 -0.10784,0.22552c-0.19745,0.63997 -0.48041,1.08033 -0.84888,1.32106c-0.0588,0.04728 -0.10258,0.10099 -0.13134,0.16113c-0.18412,-0.29617 -0.28658,-0.61172 -0.30739,-0.94665c-0.00129,-0.073 0.01964,-0.1546 0.06278,-0.24481c0.06009,0.02572 0.12736,0.03641 0.20183,0.03206c0.46117,-0.05615 0.83812,-0.23892 1.13084,-0.54831M464.07199,325.47704c0.06009,0.02572 0.11298,0.06648 0.15869,0.12227c0.78861,1.60546 1.80653,3.10984 3.05374,4.51315c-0.04314,0.09021 -0.07908,0.16538 -0.10784,0.22552c-1.12927,1.90742 -2.32838,3.65815 -3.59734,5.25219c-0.04314,0.09021 -0.07908,0.16538 -0.10784,0.22552c-0.91007,-1.7299 -1.87959,-3.44903 -2.90855,-5.15738c-0.03004,-0.01286 -0.0235,-0.0644 0.01964,-0.1546l0.09013,0.03858c0.99214,-2.07479 2.12527,-3.76321 3.39937,-5.06526M498.818,247.70622c0.06009,0.02572 0.09796,0.06005 0.11363,0.10298c-0.49473,3.22957 -0.33096,6.17956 0.49132,8.84995c-5.50581,2.27984 -10.73748,5.31096 -15.69502,9.09336c-0.0588,0.04728 -0.10258,0.10099 -0.13134,0.16113c-0.92527,-3.43898 -1.0137,-7.18988 -0.26529,-11.2527c-0.00129,-0.073 0.01964,-0.1546 0.06278,-0.24481l0.09013,0.03858c-0.42494,1.26708 0.00853,2.17714 1.3004,2.73017c0.30044,0.12861 0.53167,0.13703 0.69369,0.02527c3.54222,-2.03367 7.11641,-3.94498 10.72258,-5.73392c-3.59774,-0.27226 -7.03037,-0.05726 -10.29787,0.64502c-0.16331,0.03876 -0.3116,0.08396 -0.44487,0.13558c-0.7539,0.36554 -1.40597,1.01013 -1.95622,1.93377l-0.1352,-0.05788c0.25368,-0.83325 0.39694,-1.58698 0.42979,-2.26119c0.02876,-0.06014 0.07254,-0.11385 0.13134,-0.16113c4.61093,-2.30067 9.57431,-3.6354 14.89015,-4.00419z" fill="#475d81"/><path d="M490.41632,292.52408c0.24292,0.24889 0.47865,0.51281 0.70719,0.79177c-0.2144,0.52404 -0.51109,1.03097 -0.89009,1.52077l-0.09013,-0.03858c0.02876,-0.06014 0.0647,-0.13531 0.10784,-0.22552c0.1425,-0.37369 0.32224,-0.74956 0.53921,-1.12761c-0.22854,-0.27896 -0.43487,-0.56652 -0.61899,-0.86269c-0.01566,-0.04293 -0.00193,-0.1095 0.04121,-0.19971c0.06009,0.02572 0.12801,0.07291 0.20376,0.14156z" fill="#364461"/><path d="M481.48797,273.16156c0.06009,0.02572 0.09796,0.06005 0.11363,0.10298c1.196,6.96001 4.10227,13.25749 8.7188,18.89246c-0.04314,0.09021 -0.07908,0.16538 -0.10784,0.22552c-0.04314,0.09021 -0.05687,0.15678 -0.04121,0.19971c0.18412,0.29617 0.39045,0.58373 0.61899,0.86269c-0.21697,0.37804 -0.3967,0.75391 -0.53921,1.12761c-0.04314,0.09021 -0.07908,0.16538 -0.10784,0.22552c-1.93834,3.37231 -3.60103,6.73583 -4.98806,10.09057l-0.09013,-0.03858c0.02876,-0.06014 0.0647,-0.13531 0.10784,-0.22552c-6.09533,-5.79709 -10.64306,-12.18144 -13.6432,-19.15304c-0.07832,-0.21465 -0.04559,-0.47233 0.0982,-0.77302c0.07189,-0.15035 0.14379,-0.30069 0.21568,-0.45104c0.02876,-0.06014 0.0647,-0.13531 0.10784,-0.22552c2.84269,-4.50662 6.02152,-8.12672 9.53651,-10.86032M503.20717,283.60026c2.0349,-2.96873 4.24018,-5.57471 6.61585,-7.81797c0.06009,0.02572 0.12801,0.07291 0.20376,0.14156c4.53996,3.82717 10.14758,6.48127 16.82286,7.9623c-0.04314,0.09021 -0.06406,0.17181 -0.06278,0.24481c-0.79739,6.36024 -2.48323,13.06465 -5.05752,20.11323c-0.53611,1.72664 -1.48541,2.42512 -2.84789,2.09544c-1.19788,-0.29544 -2.38268,-0.69396 -3.55437,-1.19554c-8.10918,-3.3265 -14.2435,-7.52828 -18.40295,-12.60533c2.11065,-2.90007 4.205,-5.87958 6.28303,-8.93851M500.4996,260.65196c0.06009,0.02572 0.09796,0.06005 0.11363,0.10298c1.11324,3.95414 2.92941,7.61149 5.44851,10.97203c-0.04314,0.09021 -0.09411,0.15895 -0.15291,0.20623c-4.07751,5.49945 -8.0649,11.03748 -11.96215,16.6141c-0.09013,-0.03858 -0.15805,-0.08577 -0.20376,-0.14156c-5.17964,-5.44133 -8.13097,-11.7581 -8.854,-18.95033c0.02876,-0.06014 0.07254,-0.11385 0.13134,-0.16113c4.74467,-4.01844 9.90445,-6.89921 15.47934,-8.64232z" fill="#475d82"/><path d="M502.95279,247.57445c0.06009,0.02572 0.12736,0.03641 0.20183,0.03206c1.02686,-0.10379 2.07657,-0.17969 3.14914,-0.22769c0.06009,0.02572 0.1352,0.05788 0.22533,0.09646c4.84625,1.74857 8.9445,3.77465 12.29476,6.07824c-0.04314,0.09021 -0.07973,0.12888 -0.10977,0.11602c-5.21776,0.01231 -10.24035,0.52474 -15.06778,1.53731c0.02876,-0.06014 0.04249,-0.12671 0.04121,-0.19971c-0.26712,-2.46896 -0.51202,-4.94653 -0.73471,-7.4327M508.28171,251.75747c0.02876,-0.06014 0.0647,-0.13531 0.10784,-0.22552c0.07061,-0.22335 0.17845,-0.44887 0.32352,-0.67656c-0.37572,-1.8634 -1.57746,-2.37785 -3.60522,-1.54333c-0.59187,0.25378 -0.80755,0.70482 -0.64705,1.35313c-0.04314,0.09021 -0.05687,0.15678 -0.04121,0.19971c0.74267,2.38274 2.03004,2.68027 3.86212,0.89258z" fill="#455a7e"/><path d="M466.87068,268.53426c0.02876,-0.06014 0.0647,-0.13531 0.10784,-0.22552c3.28352,-6.56384 7.34116,-11.07562 12.17292,-13.53533c0.06009,0.02572 0.09796,0.06005 0.11363,0.10298c-0.23124,4.64646 0.25547,9.00256 1.46013,13.06829c-4.06009,3.94924 -8.00989,8.2355 -11.8494,12.85876c-0.04314,0.09021 -0.07908,0.16538 -0.10784,0.22552c-0.29225,-1.35675 -0.67335,-2.67909 -1.14329,-3.967c-0.04571,-0.05579 -0.09861,-0.09655 -0.15869,-0.12227c-0.09013,-0.03858 -0.12801,-0.07291 -0.11363,-0.10298c-0.46433,-2.66206 -0.62489,-5.42954 -0.48168,-8.30245M473.06481,262.16588c-0.04442,0.01721 -0.09668,0.01295 -0.15676,-0.01277c-1.04861,3.10114 -2.075,6.19368 -3.07919,9.27761c-0.04314,0.09021 -0.07908,0.16538 -0.10784,0.22552c-0.14379,0.30069 -0.30388,0.52196 -0.48029,0.66379c-0.36719,0.31374 -0.47696,0.42976 -0.32931,0.34806c1.62668,-0.75264 2.99425,-2.25013 4.10271,-4.49248c0.06009,0.02572 0.10515,0.04501 0.1352,0.05788c1.41532,-1.74874 2.94813,-3.1755 4.59842,-4.28028l0.09013,0.03858c0.34766,-0.57567 0.68352,-0.97526 1.00757,-1.19879c-0.21288,-0.23603 -0.18926,-0.58817 0.07084,-1.05642l-0.09013,-0.03858c0.02876,-0.06014 0.0647,-0.13531 0.10784,-0.22552c0.02876,-0.06014 0.0647,-0.13531 0.10784,-0.22552c-1.86632,-1.84946 -3.85867,-1.54315 -5.97703,0.91892z" fill="#475c80"/><path d="M858.15,548.35c-1.1,-2.6 -2.65,-7.26667 -4.65,-14c-2,-6.73333 -3.3,-12.18333 -3.9,-16.35l6.15,14.8c4.7,10.46667 8.3,17.36667 10.8,20.7c2.7,3.63333 4.45,5.91667 5.25,6.85c2.1,2.46667 4.31667,3.81667 6.65,4.05c-3.03333,1.56667 -5.35,1.83333 -6.95,0.8c-2,-1.26667 -5.46667,-5.55 -10.4,-12.85c-1.36667,-2.1 -2.35,-3.43333 -2.95,-4M750.45,464.45c2.93333,4.9 5.11667,8.73333 6.55,11.5c2.43333,4.66667 4.98333,8.83333 7.65,12.5c3.53333,4.86667 6.58333,7.73333 9.15,8.6c3,1 5.9,1.13333 8.7,0.4c2.76667,-0.73333 6.01667,-2.46667 9.75,-5.2c3.7,-2.73333 7.91667,-6.36667 12.65,-10.9c6.5,-5.6 12.05,-11.83333 16.65,-18.7c-2.06667,5.36667 -5.06667,11.01667 -9,16.95c-7.83333,11.9 -16.35,19.33333 -25.55,22.3c-2.13333,0.9 -3.51667,1.76667 -4.15,2.6c-0.73333,0.96667 -1.53333,3.08333 -2.4,6.35c-1.96667,7.53333 -1.7,12.25 0.8,14.15c1.2,0.9 4,2.11667 8.4,3.65c3.73333,1.26667 6.18333,2.01667 7.35,2.25c-0.6,1 -1.56667,2.31667 -2.9,3.95l0.2,5.35c0.6,4.4 2.01667,8.58333 4.25,12.55l1.6,3.4c1.2,2.46667 2.2,4.18333 3,5.15c0.63333,0.76667 2.05,2.5 4.25,5.2c2.1,2.6 3.55,4.6 4.35,6c0.8,1.36667 1.86667,2.41667 3.2,3.15c1.3,0.73333 2.43333,1.16667 3.4,1.3c0.96667,0.1 3,0.28333 6.1,0.55c2.46667,0.16667 3.85,0.28333 4.15,0.35l-11.6,-47.1c1.83333,3.66667 3.61667,7.56667 5.35,11.7c3.3,7.93333 5.6,12.63333 6.9,14.1c1.1,0.26667 2.16667,0.4 3.2,0.4c1,0 2.51667,-0.43333 4.55,-1.3c-0.5,0.63333 -1.16667,1.45 -2,2.45c-0.83333,0.96667 -2.21667,2.46667 -4.15,4.5c0,1.26667 0.05,3.08333 0.15,5.45c0.06667,2.36667 0.71667,4.98333 1.95,7.85c1.2,2.83333 3.48333,5.46667 6.85,7.9c1.7,1.23333 3.25,2.16667 4.65,2.8c-3.7,0.63333 -7.03333,-0.33333 -10,-2.9c-2.96667,-2.56667 -4.91667,-4.5 -5.85,-5.8l-3.85,2.45c-3.03333,1.66667 -5.61667,2.6 -7.75,2.8c-2.53333,0.23333 -4.88333,-0.35 -7.05,-1.75c-2.2,-1.43333 -4.55,-3.88333 -7.05,-7.35c-2.5,-3.5 -4.21667,-6.25 -5.15,-8.25c-0.93333,-2 -1.81667,-4.5 -2.65,-7.5c-0.73333,-2.06667 -1.66667,-4.35 -2.8,-6.85c-2.3,-5 -4.45,-8.55 -6.45,-10.65c-1.7,-1.8 -4.11667,-3.73333 -7.25,-5.8c-2.7,-1.76667 -4.26667,-3 -4.7,-3.7c-0.7,-1.1 -1.38333,-2.66667 -2.05,-4.7c-0.63333,-1.9 -1.05,-3.55 -1.25,-4.95c-1.03333,-7.86667 -1.53333,-13.93333 -1.5,-18.2l-3.9,-0.45c-4.16667,-7.23333 -8.53333,-15.21667 -13.1,-23.95c-9.13333,-17.43333 -14.66667,-29.8 -16.6,-37.1l4.55,6.25c3.16667,4.4 5.03333,7.13333 5.6,8.2c0.23333,0.46667 1.83333,3.15 4.8,8.05M860.9,461.95c1.06667,-1.16667 2.4,-2.91667 4,-5.25c2,-2.93333 3.18333,-5.1 3.55,-6.5c0.6,-0.06667 2.73333,0.01667 6.4,0.25c4.13333,0.16667 8.18333,0.06667 12.15,-0.3c1.83333,-1.06667 4.15,-2.45 6.95,-4.15c2.76667,-1.73333 5.23333,-3.98333 7.4,-6.75c-1,4.56667 -3.03333,8.63333 -6.1,12.2c-3.63333,4.2 -7.81667,6.71667 -12.55,7.55c-1.53333,0.26667 -3.1,0.35 -4.7,0.25c-1.4,-0.16667 -2.21667,-0.25 -2.45,-0.25c-1.36667,1.2 -2.6,3.21667 -3.7,6.05c-0.53333,1.43333 -0.93333,2.75 -1.2,3.95c-0.86667,-0.83333 -1.93333,-1.76667 -3.2,-2.8c-2.5,-2.03333 -4.68333,-3.45 -6.55,-4.25M836,496.95c-1.06667,1.86667 -2.48333,4.01667 -4.25,6.45c-3.53333,4.86667 -7.1,8.68333 -10.7,11.45c1.13333,-2.83333 2.13333,-5.46667 3,-7.9c1.66667,-4.8 2.31667,-8.73333 1.95,-11.8z" fill="#2c2d41"/><path d="M867.65,419.3c0.73333,1.03333 1.81667,1.9 3.25,2.6c1.4,0.7 3.1,0.66667 5.1,-0.1c0.96667,-0.36667 1.76667,-0.81667 2.4,-1.35c1.96667,-1.36667 4.28333,-3.61667 6.95,-6.75c2.63333,-3.16667 4.76667,-4.68333 6.4,-4.55c1.6,0.13333 2.96667,0.8 4.1,2c1.1,1.2 2.5,3.86667 4.2,8c1.7,4.13333 2.33333,9.4 1.9,15.8c-0.13333,1.46667 -0.33333,2.9 -0.6,4.3c-2.16667,2.76667 -4.63333,5.01667 -7.4,6.75c-2.8,1.7 -5.11667,3.08333 -6.95,4.15c-3.96667,0.36667 -8.01667,0.46667 -12.15,0.3c-3.66667,-0.23333 -5.8,-0.31667 -6.4,-0.25c-0.36667,1.4 -1.55,3.56667 -3.55,6.5c-1.6,2.33333 -2.93333,4.08333 -4,5.25c1.86667,0.8 4.05,2.21667 6.55,4.25c1.26667,1.03333 2.33333,1.96667 3.2,2.8l2.9,11.2c2.13333,8.1 3.73333,13.76667 4.8,17c1.43333,4.33333 3.66667,9.88333 6.7,16.65c3.33333,7.36667 5.95,12.41667 7.85,15.15c2.73333,3.9 4.38333,8.43333 4.95,13.6c0.53333,5.16667 -1.45,9.5 -5.95,13c-5.13333,3.9 -9.6,6.83333 -13.4,8.8h-0.05c-2.33333,-0.23333 -4.55,-1.58333 -6.65,-4.05c-0.8,-0.93333 -2.55,-3.21667 -5.25,-6.85c-2.5,-3.33333 -6.1,-10.23333 -10.8,-20.7l-6.15,-14.8c0.6,4.16667 1.9,9.61667 3.9,16.35c2,6.73333 3.55,11.4 4.65,14c0.5,1.16667 1.05,5.65 1.65,13.45c0.63333,7.76667 0.65,13.15 0.05,16.15c-0.83333,1.13333 -2.68333,2.7 -5.55,4.7c-2.86667,1.96667 -6.15,3.28333 -9.85,3.95c-1.4,-0.63333 -2.95,-1.56667 -4.65,-2.8c-3.36667,-2.43333 -5.65,-5.06667 -6.85,-7.9c-1.23333,-2.86667 -1.88333,-5.48333 -1.95,-7.85c-0.1,-2.36667 -0.15,-4.18333 -0.15,-5.45c1.93333,-2.03333 3.31667,-3.53333 4.15,-4.5c0.83333,-1 1.5,-1.81667 2,-2.45c-2.03333,0.86667 -3.55,1.3 -4.55,1.3c-1.03333,0 -2.1,-0.13333 -3.2,-0.4c-1.3,-1.46667 -3.6,-6.16667 -6.9,-14.1c-1.73333,-4.13333 -3.51667,-8.03333 -5.35,-11.7l11.6,47.1c-0.3,-0.06667 -1.68333,-0.18333 -4.15,-0.35c-3.1,-0.26667 -5.13333,-0.45 -6.1,-0.55c-0.96667,-0.13333 -2.1,-0.56667 -3.4,-1.3c-1.33333,-0.73333 -2.4,-1.78333 -3.2,-3.15c-0.8,-1.4 -2.25,-3.4 -4.35,-6c-2.2,-2.7 -3.61667,-4.43333 -4.25,-5.2c-0.8,-0.96667 -1.8,-2.68333 -3,-5.15l-1.6,-3.4c-2.23333,-3.96667 -3.65,-8.15 -4.25,-12.55l-0.2,-5.35c1.33333,-1.63333 2.3,-2.95 2.9,-3.95c-1.16667,-0.23333 -3.61667,-0.98333 -7.35,-2.25c-4.4,-1.53333 -7.2,-2.75 -8.4,-3.65c-2.5,-1.9 -2.76667,-6.61667 -0.8,-14.15c0.86667,-3.26667 1.66667,-5.38333 2.4,-6.35c0.63333,-0.83333 2.01667,-1.7 4.15,-2.6c9.2,-2.96667 17.71667,-10.4 25.55,-22.3c3.93333,-5.93333 6.93333,-11.58333 9,-16.95c-4.6,6.86667 -10.15,13.1 -16.65,18.7c-4.73333,4.53333 -8.95,8.16667 -12.65,10.9c-3.73333,2.73333 -6.98333,4.46667 -9.75,5.2c-2.8,0.73333 -5.7,0.6 -8.7,-0.4c-2.56667,-0.86667 -5.61667,-3.73333 -9.15,-8.6c-2.66667,-3.66667 -5.21667,-7.83333 -7.65,-12.5c-1.43333,-2.76667 -3.61667,-6.6 -6.55,-11.5c-2.96667,-4.9 -4.56667,-7.58333 -4.8,-8.05c-0.56667,-1.06667 -2.43333,-3.8 -5.6,-8.2l-4.55,-6.25c-0.6,-2.5 -0.51667,-5.55 0.25,-9.15c0.76667,-3.6 3.81667,-9.96667 9.15,-19.1l-16.05,-33.55l-14.35,6.35c-1.06667,0.5 -1.86667,0.75 -2.4,0.75c-1,-0.03333 -2.21667,-0.58333 -3.65,-1.65c-2.36667,-1.86667 -4.7,-4.48333 -7,-7.85c-2.3,-3.4 -3.86667,-6.11667 -4.7,-8.15c-0.86667,-2.03333 -1.36667,-3.4 -1.5,-4.1c-0.16667,-0.7 -0.33333,-2.06667 -0.5,-4.1c-0.2,-1.96667 -0.06667,-7.13333 0.4,-15.5l-0.05,0.05c0.6,-8.03333 1.58333,-13.18333 2.95,-15.45c1.36667,-2.3 8.26667,-4.71667 20.7,-7.25c12.43333,-2.53333 20.5,-3.38333 24.2,-2.55c1.96667,0.33333 5.95,2.28333 11.95,5.85c5.96667,3.53333 9.2,5.98333 9.7,7.35c0.33333,0.86667 0.46667,1.98333 0.4,3.35c0.2,4.93333 -0.98333,10.58333 -3.55,16.95c-1.26667,3.2 -2.56667,5.9 -3.9,8.1l5.2,8.8c3.66667,6.46667 6.25,10.61667 7.75,12.45c4.8,-3.3 10.16667,-5.43333 16.1,-6.4c2.96667,-0.5 5.43333,-0.65 7.4,-0.45c2.03333,1.23333 10.55,8.48333 25.55,21.75c7.53333,6.66667 15.36667,13.51667 23.5,20.55c0.83333,1.36667 0.81667,5.23333 -0.05,11.6c1.1,-0.96667 4.51667,-3.63333 10.25,-8c4.93333,-3.76667 8.38333,-5.5 10.35,-5.2c1.93333,0.26667 3.28333,0.9 4.05,1.9M767.95,384.75c-0.96667,-1.16667 -2.35,-3.26667 -4.15,-6.3c-0.8,2.56667 -1.43333,5.4 -1.9,8.5c2,-0.33333 4.01667,-1.06667 6.05,-2.2M760.2,372.3l-3.7,-6.25c-0.66667,3.13333 -1.06667,6.73333 -1.2,10.8l6.15,-1.1l0.6,-0.2c-0.6,-1.03333 -1.21667,-2.11667 -1.85,-3.25M821.05,514.85c3.6,-2.76667 7.16667,-6.58333 10.7,-11.45c1.76667,-2.43333 3.18333,-4.58333 4.25,-6.45l-10,-1.8c0.36667,3.06667 -0.28333,7 -1.95,11.8c-0.86667,2.43333 -1.86667,5.06667 -3,7.9z" fill="#000000"/><path d="M762.05,375.55l-0.6,0.2l-6.15,1.1c0.13333,-4.06667 0.53333,-7.66667 1.2,-10.8l3.7,6.25c0.63333,1.13333 1.25,2.21667 1.85,3.25M763.8,378.45c1.8,3.03333 3.18333,5.13333 4.15,6.3c-2.03333,1.13333 -4.05,1.86667 -6.05,2.2c0.46667,-3.1 1.1,-5.93333 1.9,-8.5z" fill="#ffffff"/></g></g></svg>