<svg version="1.1" xmlns="http://www.w3.org/2000/svg" xmlns:xlink="http://www.w3.org/1999/xlink" width="124.15057" height="80.6363" viewBox="0,0,124.15057,80.6363"><g transform="translate(-577.92471,-319.68185)"><g data-paper-data="{&quot;isPaintingLayer&quot;:true}" fill-rule="nonzero" stroke="none" stroke-width="1" stroke-linecap="butt" stroke-linejoin="miter" stroke-miterlimit="10" stroke-dasharray="" stroke-dashoffset="0" style="mix-blend-mode: normal"><path d="M659.5888,324.21757c5.11628,2.8918 9.56628,6.3418 13.35,10.35c2.48581,2.5987 4.68581,5.43203 6.6,8.5c0.63333,1.36667 1.86667,2.38333 3.7,3.05c1.03333,0.4 2.63333,0.88333 4.8,1.45c2.92305,0.88672 5.27305,1.88672 7.05,3c0.04023,0.01667 0.07357,0.03333 0.1,0.05c2.46667,1.56667 4.15,3.48333 5.05,5.75c0.36536,0.93034 0.66536,1.83034 0.9,2.7c1.2651,4.20977 1.24844,7.70977 -0.05,10.5c-0.83333,1.7 -2.26667,3.28333 -4.3,4.75c-2.46667,1.56667 -4.3,2.71667 -5.5,3.45c-1.36667,0.76667 -4.08333,2.6 -8.15,5.5c-3.33333,2.36667 -6.16667,4.01667 -8.5,4.95c-4.9,2.06667 -8.56667,3.6 -11,4.6c-4.23333,1.7 -7.96667,3.08333 -11.2,4.15c-7,2.16667 -13.7,3.28333 -20.1,3.35c-7.33333,0.03333 -13.91667,-1.36667 -19.75,-4.2c-1.9,-0.8 -4.28333,-2.26667 -7.15,-4.4c-3.2,-2.4 -5.53333,-3.98333 -7,-4.75c-3,-0.83333 -5.46667,-1.68333 -7.4,-2.55c-2.6,-1.13333 -4.78333,-2.5 -6.55,-4.1c-2.6,-2.13333 -4.46667,-4.71667 -5.6,-7.75c-1.23333,-3.3 -1.28333,-6.43333 -0.15,-9.4c0.47161,-1.44102 1.10495,-2.80768 1.9,-4.1c2.27135,-3.63997 5.85469,-6.68997 10.75,-9.15c1.16667,-0.5 2.26667,-1.41667 3.3,-2.75c0.6,-0.73333 1.43333,-1.9 2.5,-3.5c4.93333,-6.6 9.75,-11.5 14.45,-14.7c6.4,-4.4 13.78333,-7.26667 22.15,-8.6c4.5,-0.8 8.91667,-0.9 13.25,-0.3c4.6,0.63333 8.78333,2.01667 12.55,4.15M650.1388,341.86757c-3.46667,0.16667 -6.26667,1.3 -8.4,3.4c-1.73333,1.73333 -2.85,3.98333 -3.35,6.75c-0.36888,2.15156 -0.35221,4.50156 0.05,7.05c0.05846,0.21523 0.10846,0.4319 0.15,0.65c1.13333,2.9 2.28333,5.25 3.45,7.05c1.56667,2.4 3.4,4.25 5.5,5.55c1,-0.36667 3.13333,-0.66667 6.4,-0.9c2.7,-0.16667 4.75,-0.76667 6.15,-1.8c2.13333,-1.03333 3.81667,-2.61667 5.05,-4.75c1.05417,-1.7276 1.70417,-3.66094 1.95,-5.8c0.04635,-0.29609 0.07969,-0.59609 0.1,-0.9c-0.1,-3.2 -0.75,-6.03333 -1.95,-8.5c-1.4,-2.9 -3.4,-4.93333 -6,-6.1c-3.06667,-1.26667 -6.1,-1.83333 -9.1,-1.7M654.4888,337.91757c4.16667,0.56667 7.71667,2.11667 10.65,4.65c2.7,2.43333 4.51667,5.65 5.45,9.65c0.5026,2.17799 0.71927,4.46133 0.65,6.85c-0.05221,1.41315 -0.20221,2.86315 -0.45,4.35c1.3,-1.4 2.36667,-2.8 3.2,-4.2c0.03255,-0.04336 0.06589,-0.09336 0.1,-0.15c0.20924,-0.29128 0.50924,-0.75794 0.9,-1.4c0.43333,-0.53333 0.95,-0.65 1.55,-0.35c0.81315,0.17122 1.24648,0.75456 1.3,1.75c0.05755,0.55521 -0.00911,1.23854 -0.2,2.05c-0.93333,5.33333 -1.63333,9.05 -2.1,11.15c-0.9,4.1 -1.95,7.7 -3.15,10.8c3.73333,-1.86667 6.8,-3.85 9.2,-5.95c1.1,-1.06667 2.75,-2.13333 4.95,-3.2c2.76667,-1.4 4.51667,-2.33333 5.25,-2.8c1.8,-1.16667 2.95,-1.96667 3.45,-2.4c1.2,-1.1 1.81667,-2.31667 1.85,-3.65c-0.12018,-2.38958 -0.53685,-4.38958 -1.25,-6c-0.87604,-1.96133 -2.19271,-3.34466 -3.95,-4.15c-1.5,-0.73333 -4.01667,-1.63333 -7.55,-2.7c-1.85807,-0.57031 -3.45807,-1.12031 -4.8,-1.65c-1.08646,-0.43008 -2.00312,-0.84674 -2.75,-1.25c-1.26667,0.2 -2.23333,0.28333 -2.9,0.25c-0.8056,-0.04883 -1.4056,-0.33216 -1.8,-0.85c-0.14414,-0.18346 -0.26081,-0.40013 -0.35,-0.65c-0.38008,-0.60182 -0.26341,-1.20182 0.35,-1.8c0.0319,-0.03516 0.06523,-0.06849 0.1,-0.1l1.7,-1.55c-0.5944,-0.82214 -1.1944,-1.62214 -1.8,-2.4c-7.10247,-9.03164 -14.96914,-14.51497 -23.6,-16.45c-5.7,-1 -11.53333,-0.81667 -17.5,0.55c-5.8,1.33333 -11.2,3.63333 -16.2,6.9c-2.86667,1.86667 -5.85,4.48333 -8.95,7.85c-3.46667,4.06667 -6.08333,7.08333 -7.85,9.05l3.1,1.15c-0.26667,1.03333 -1.05,1.68333 -2.35,1.95c-1.5,0.13333 -2.58333,0.33333 -3.25,0.6c-3.62643,1.20065 -6.60977,2.95065 -8.95,5.25c-0.85339,0.82865 -1.62005,1.72865 -2.3,2.7c-1.5,2.26667 -2.03333,4.83333 -1.6,7.7c0.4,2.8 1.65,5.1 3.75,6.9c2.3,2.23333 5.85,4.31667 10.65,6.25c5.8,2.36667 9.55,4.1 11.25,5.2c-4.86667,-7.8 -8.33333,-16.66667 -10.4,-26.6c-0.28451,-0.75885 -0.38451,-1.47552 -0.3,-2.15c0.06081,-0.27357 0.14414,-0.54023 0.25,-0.8c0.4,-1.03333 1.16667,-1.28333 2.3,-0.75c0.24987,0.42161 0.54987,0.93828 0.9,1.55c0.3862,0.69427 0.8362,1.51094 1.35,2.45c0.9,1.6 1.75,2.88333 2.55,3.85c-0.58984,-2.21849 -0.93984,-4.31849 -1.05,-6.3c-0.19219,-3.16966 0.22448,-6.03633 1.25,-8.6c1.13333,-2.9 2.56667,-5.26667 4.3,-7.1c2.13333,-2.26667 4.55,-3.5 7.25,-3.7c3.53333,-0.26667 6.96667,0.63333 10.3,2.7c2.96667,1.86667 5.48333,4.43333 7.55,7.7c1.56667,-5.4 4.35,-8.96667 8.35,-10.7c3.63333,-1.53333 7.5,-2.01667 11.6,-1.45M664.8388,384.16757c-0.9,0.6 -1.35,1.48333 -1.35,2.65c1.3,-0.6 2.15,-1.03333 2.55,-1.3c0.9,-0.63333 1.5,-1.38333 1.8,-2.25c-1.26667,0.06667 -2.26667,0.36667 -3,0.9M662.5888,374.21757c-1.33333,0.83333 -3.06667,1.76667 -5.2,2.8c-3.3,1.56667 -5.06667,2.41667 -5.3,2.55l-0.95,2.1h10.75c0.13333,-2.26667 0.36667,-4.75 0.7,-7.45M669.2888,380.06757c0.76667,-1.8 1.48333,-4.03333 2.15,-6.7c0.73333,-3.03333 1.28333,-5.31667 1.65,-6.85c-3.63333,2.83333 -5.95,4.61667 -6.95,5.35c-0.23333,2.16667 -0.65,5.4 -1.25,9.7c0.96667,-0.33333 2.43333,-0.83333 4.4,-1.5M642.8388,372.21757c-2.23333,-1.86667 -4.06667,-4.2 -5.5,-7c-1.56667,3.3 -3.2,5.88333 -4.9,7.75c-2.3,2.53333 -4.91667,3.98333 -7.85,4.35c4.43333,1.03333 8.83333,1.46667 13.2,1.3c4.63333,-0.2 8.98333,-1.06667 13.05,-2.6c-2.9,-0.5 -5.56667,-1.76667 -8,-3.8M641.6888,389.91757c-2.46667,0.46667 -4.58333,0.58333 -6.35,0.35l-0.05,4.3c4.43333,-0.6 8.45,-1.28333 12.05,-2.05l0.65,-3.95c-2.8,0.63333 -4.9,1.08333 -6.3,1.35M646.4388,385.66757c0.53333,-1.2 1.4,-2.96667 2.6,-5.3c-4.53333,1.06667 -9.25,1.55 -14.15,1.45l0.35,4.75c1.53333,0.73333 3.4,0.9 5.6,0.5c1.26667,-0.23333 3.13333,-0.7 5.6,-1.4M661.7888,384.21757h-10.65l-1.25,7.6c3.8,-1.3 7.81667,-2.83333 12.05,-4.6l-0.15,-3M607.7388,351.81757c-0.80026,2.37396 -1.15026,4.79063 -1.05,7.25c0.04674,0.61406 0.11341,1.23073 0.2,1.85c0.4,2.06667 0.78333,3.7 1.15,4.9c0.6,1.76667 1.38333,3.23333 2.35,4.4c0.96667,1 2.3,2 4,3c0.26667,0.13333 0.56667,0.3 0.9,0.5h0.1c0.03333,0.03333 0.08333,0.08333 0.15,0.15c0.2,0.06667 0.36667,0.13333 0.5,0.2l0.05,0.05c0.4,0.06667 0.78333,0.15 1.15,0.25c0.5,0.1 1.4,0.16667 2.7,0.2l0.15,-0.1c1.63333,-0.1 2.85,-0.23333 3.65,-0.4c0.4,-0.06667 0.68333,-0.15 0.85,-0.25l0.3,-0.2c2.26667,-0.66667 4.28333,-2.08333 6.05,-4.25c2.55417,-3.09023 3.72083,-6.52357 3.5,-10.3c-0.01172,-0.21549 -0.02839,-0.43216 -0.05,-0.65c-1.7,-5.5 -4.05,-9.51667 -7.05,-12.05c-2.1,-1.86667 -4.45,-3.05 -7.05,-3.55c-2.93333,-0.6 -5.45,-0.13333 -7.55,1.4c-2.26667,2 -3.93333,4.53333 -5,7.6M602.4888,366.96757c1.76667,5.96667 3.76667,11.45 6,16.45c0.53333,0.06667 3.36667,0.5 8.5,1.3c-0.63333,-2.33333 -1.13333,-4.08333 -1.5,-5.25c-0.63333,-2.06667 -1.71667,-3.4 -3.25,-4c-1.6,-0.9 -3.31667,-2.21667 -5.15,-3.95c-2.03333,-2.03333 -3.56667,-3.55 -4.6,-4.55M615.5388,391.26757c0.93333,0.36667 2.35,0.91667 4.25,1.65c-0.8,-2.1 -1.71667,-4.13333 -2.75,-6.1c-2.43333,-0.46667 -5.06667,-1.05 -7.9,-1.75c1.4,2.6 2.16667,4 2.3,4.2c1.03333,0.7 2.4,1.36667 4.1,2M620.7888,389.51757c0.4,1.5 0.8,2.86667 1.2,4.1c3.36667,0.7 7.33333,1.01667 11.9,0.95l-1.05,-5.1c-1.63333,-0.13333 -3.63333,-0.16667 -6,-0.1c-2.7,0.1 -4.71667,0.15 -6.05,0.15M632.3388,386.31757l-0.5,-4.5c-5.53333,-0.76667 -10.16667,-1.9 -13.9,-3.4c0.1,0.4 0.85,3.23333 2.25,8.5c2.7,-0.26667 6.75,-0.46667 12.15,-0.6M616.6888,373.71757c0,0.03333 0.01667,0.06667 0.05,0.1l-0.1,-0.05l0.05,-0.05M621.7388,374.01757c-0.16667,0.03333 -0.33333,0.05 -0.5,0.05c-0.06354,-0.03177 -0.13021,-0.04844 -0.2,-0.05c0.23646,0 0.46979,0 0.7,0M611.6388,358.11757c1.73333,-5.73333 4.46667,-9.05 8.2,-9.95c1.36667,-0.4 2.76667,-0.21667 4.2,0.55c1.16667,0.63333 2.25,1.56667 3.25,2.8c1.2,1.46667 1.88333,3.35 2.05,5.65c0.04844,0.5694 0.0651,1.20273 0.05,1.9c-0.04531,1.2207 -0.19531,2.63737 -0.45,4.25c-0.7,1.26667 -1.26667,2.2 -1.7,2.8c-0.7,1.06667 -1.46667,1.85 -2.3,2.35c-1.9,1.03333 -4.51667,1.01667 -7.85,-0.05c-4.00794,-3.00599 -5.87461,-6.12266 -5.6,-9.35c0.03164,-0.31549 0.08164,-0.63216 0.15,-0.95M648.0388,347.46757c1.36667,-1.43333 3.11667,-2.21667 5.25,-2.35c2.13333,-0.1 3.91667,0.51667 5.35,1.85c1.8,1.56667 3.08333,3.58333 3.85,6.05c0.58867,1.93424 0.82201,3.95091 0.7,6.05c-0.01901,0.39714 -0.05234,0.79714 -0.1,1.2c-0.63333,2.2 -1.63333,4.03333 -3,5.5c-1.56667,1.7 -3.38333,2.6 -5.45,2.7c-2.16667,0.1 -4.15,-0.66667 -5.95,-2.3c-1.56667,-1.43333 -2.75,-3.26667 -3.55,-5.5c-0.03607,-0.5582 -0.0694,-1.09154 -0.1,-1.6c-0.09727,-2.31549 -0.06393,-4.11549 0.1,-5.4c0.36667,-2.63333 1.33333,-4.7 2.9,-6.2z" fill="#000000"/><path d="M617.9388,378.41757c3.73333,1.5 8.36667,2.63333 13.9,3.4l0.5,4.5c-5.4,0.13333 -9.45,0.33333 -12.15,0.6c-1.4,-5.26667 -2.15,-8.1 -2.25,-8.5z" fill="#f7ff70"/><path d="M632.8388,389.46757l1.05,5.1c-4.56667,0.06667 -8.53333,-0.25 -11.9,-0.95c-0.4,-1.23333 -0.8,-2.6 -1.2,-4.1c1.33333,0 3.35,-0.05 6.05,-0.15c2.36667,-0.06667 4.36667,-0.03333 6,0.1z" fill="#ffff75"/><path d="M609.1388,385.06757c2.83333,0.7 5.46667,1.28333 7.9,1.75c1.03333,1.96667 1.95,4 2.75,6.1c-1.9,-0.73333 -3.31667,-1.28333 -4.25,-1.65c-1.7,-0.63333 -3.06667,-1.3 -4.1,-2c-0.13333,-0.2 -0.9,-1.6 -2.3,-4.2z" fill="#fbff71"/><path d="M607.0888,371.51757c1.83333,1.73333 3.55,3.05 5.15,3.95c1.53333,0.6 2.61667,1.93333 3.25,4c0.36667,1.16667 0.86667,2.91667 1.5,5.25c-5.13333,-0.8 -7.96667,-1.23333 -8.5,-1.3c-2.23333,-5 -4.23333,-10.48333 -6,-16.45c1.03333,1 2.56667,2.51667 4.6,4.55M612.7388,344.21757c2.1,-1.53333 4.61667,-2 7.55,-1.4c2.6,0.5 4.95,1.68333 7.05,3.55c3,2.53333 5.35,6.55 7.05,12.05c-0.36406,0.21471 -0.71406,0.43138 -1.05,0.65c-2.04466,1.34271 -3.51133,2.75938 -4.4,4.25c0.25469,-1.61263 0.40469,-3.0293 0.45,-4.25c0.0151,-0.69727 -0.00156,-1.3306 -0.05,-1.9c-0.16667,-2.3 -0.85,-4.18333 -2.05,-5.65c-1,-1.23333 -2.08333,-2.16667 -3.25,-2.8c-1.43333,-0.76667 -2.83333,-0.95 -4.2,-0.55c-3.73333,0.9 -6.46667,4.21667 -8.2,9.95c-0.06836,0.31784 -0.11836,0.63451 -0.15,0.95c-0.27461,3.22734 1.59206,6.34401 5.6,9.35c-4.36667,-1.43333 -7.76667,-3.93333 -10.2,-7.5c-0.08659,-0.61927 -0.15326,-1.23594 -0.2,-1.85c-0.10026,-2.45937 0.24974,-4.87604 1.05,-7.25c1.06667,-3.06667 2.73333,-5.6 5,-7.6M650.8388,376.01757c-4.06667,1.53333 -8.41667,2.4 -13.05,2.6c-4.36667,0.16667 -8.76667,-0.26667 -13.2,-1.3c2.93333,-0.36667 5.55,-1.81667 7.85,-4.35c1.7,-1.86667 3.33333,-4.45 4.9,-7.75c1.43333,2.8 3.26667,5.13333 5.5,7c2.43333,2.03333 5.1,3.3 8,3.8M667.8388,383.26757c-0.3,0.86667 -0.9,1.61667 -1.8,2.25c-0.4,0.26667 -1.25,0.7 -2.55,1.3c0,-1.16667 0.45,-2.05 1.35,-2.65c0.73333,-0.53333 1.73333,-0.83333 3,-0.9M642.8888,339.36757c-4,1.73333 -6.78333,5.3 -8.35,10.7c-2.06667,-3.26667 -4.58333,-5.83333 -7.55,-7.7c-3.33333,-2.06667 -6.76667,-2.96667 -10.3,-2.7c-2.7,0.2 -5.11667,1.43333 -7.25,3.7c-1.73333,1.83333 -3.16667,4.2 -4.3,7.1c-1.02552,2.56367 -1.44219,5.43034 -1.25,8.6c0.11016,1.98151 0.46016,4.08151 1.05,6.3c-0.8,-0.96667 -1.65,-2.25 -2.55,-3.85c-0.5138,-0.93906 -0.9638,-1.75573 -1.35,-2.45c-0.35013,-0.61172 -0.65013,-1.12839 -0.9,-1.55c-1.13333,-0.53333 -1.9,-0.28333 -2.3,0.75c-0.10586,0.25977 -0.18919,0.52643 -0.25,0.8c-0.08451,0.67448 0.01549,1.39115 0.3,2.15c2.06667,9.93333 5.53333,18.8 10.4,26.6c-1.7,-1.1 -5.45,-2.83333 -11.25,-5.2c-4.8,-1.93333 -8.35,-4.01667 -10.65,-6.25c-2.1,-1.8 -3.35,-4.1 -3.75,-6.9c-0.43333,-2.86667 0.1,-5.43333 1.6,-7.7c0.67995,-0.97135 1.44661,-1.87135 2.3,-2.7c2.34023,-2.29935 5.32357,-4.04935 8.95,-5.25c0.66667,-0.26667 1.75,-0.46667 3.25,-0.6c1.3,-0.26667 2.08333,-0.91667 2.35,-1.95l-3.1,-1.15c1.76667,-1.96667 4.38333,-4.98333 7.85,-9.05c3.1,-3.36667 6.08333,-5.98333 8.95,-7.85c5,-3.26667 10.4,-5.56667 16.2,-6.9c5.96667,-1.36667 11.8,-1.55 17.5,-0.55c8.63086,1.93503 16.49753,7.41836 23.6,16.45c0.6056,0.77786 1.2056,1.57786 1.8,2.4l-1.7,1.55c-0.03477,0.03151 -0.0681,0.06484 -0.1,0.1c-0.61341,0.59818 -0.73008,1.19818 -0.35,1.8c0.08919,0.24987 0.20586,0.46654 0.35,0.65c0.3944,0.51784 0.9944,0.80117 1.8,0.85c0.66667,0.03333 1.63333,-0.05 2.9,-0.25c0.74688,0.40326 1.66354,0.81992 2.75,1.25c1.34193,0.52969 2.94193,1.07969 4.8,1.65c3.53333,1.06667 6.05,1.96667 7.55,2.7c1.75729,0.80534 3.07396,2.18867 3.95,4.15c0.71315,1.61042 1.12982,3.61042 1.25,6c-0.03333,1.33333 -0.65,2.55 -1.85,3.65c-0.5,0.43333 -1.65,1.23333 -3.45,2.4c-0.73333,0.46667 -2.48333,1.4 -5.25,2.8c-2.2,1.06667 -3.85,2.13333 -4.95,3.2c-2.4,2.1 -5.46667,4.08333 -9.2,5.95c1.2,-3.1 2.25,-6.7 3.15,-10.8c0.46667,-2.1 1.16667,-5.81667 2.1,-11.15c0.19089,-0.81146 0.25755,-1.49479 0.2,-2.05c-0.05352,-0.99544 -0.48685,-1.57878 -1.3,-1.75c-0.6,-0.3 -1.11667,-0.18333 -1.55,0.35c-0.39076,0.64206 -0.69076,1.10872 -0.9,1.4c-0.03411,0.05664 -0.06745,0.10664 -0.1,0.15c-0.83333,1.4 -1.9,2.8 -3.2,4.2c0.24779,-1.48685 0.39779,-2.93685 0.45,-4.35c0.06927,-2.38867 -0.1474,-4.67201 -0.65,-6.85c-0.93333,-4 -2.75,-7.21667 -5.45,-9.65c-2.93333,-2.53333 -6.48333,-4.08333 -10.65,-4.65c-4.1,-0.56667 -7.96667,-0.08333 -11.6,1.45M645.1388,360.66757c-1.7,0.1 -3.88333,-0.21667 -6.55,-0.95c-0.04154,-0.2181 -0.09154,-0.43477 -0.15,-0.65c-0.40221,-2.54844 -0.41888,-4.89844 -0.05,-7.05c0.5,-2.76667 1.61667,-5.01667 3.35,-6.75c2.13333,-2.1 4.93333,-3.23333 8.4,-3.4c3,-0.13333 6.03333,0.43333 9.1,1.7c2.6,1.16667 4.6,3.2 6,6.1c1.2,2.46667 1.85,5.3 1.95,8.5l-4.1,2.1c0.04766,-0.40286 0.08099,-0.80286 0.1,-1.2c0.12201,-2.09909 -0.11133,-4.11576 -0.7,-6.05c-0.76667,-2.46667 -2.05,-4.48333 -3.85,-6.05c-1.43333,-1.33333 -3.21667,-1.95 -5.35,-1.85c-2.13333,0.13333 -3.88333,0.91667 -5.25,2.35c-1.56667,1.5 -2.53333,3.56667 -2.9,6.2c-0.16393,1.28451 -0.19727,3.08451 -0.1,5.4c0.0306,0.50846 0.06393,1.0418 0.1,1.6z" fill="#f3ff6e"/><path d="M634.3888,358.41757c0.02161,0.21784 0.03828,0.43451 0.05,0.65c0.22083,3.77643 -0.94583,7.20977 -3.5,10.3c-1.76667,2.16667 -3.78333,3.58333 -6.05,4.25l-0.3,0.2c-0.16667,0.1 -0.45,0.18333 -0.85,0.25c-0.8,0.16667 -2.01667,0.3 -3.65,0.4l-0.15,0.1c-1.3,-0.03333 -2.2,-0.1 -2.7,-0.2c-0.36667,-0.1 -0.75,-0.18333 -1.15,-0.25l-0.05,-0.05c-0.13333,-0.06667 -0.3,-0.13333 -0.5,-0.2c-0.06667,-0.06667 -0.11667,-0.11667 -0.15,-0.15h-0.1c-0.33333,-0.2 -0.63333,-0.36667 -0.9,-0.5c-1.7,-1 -3.03333,-2 -4,-3c-0.96667,-1.16667 -1.75,-2.63333 -2.35,-4.4c-0.36667,-1.2 -0.75,-2.83333 -1.15,-4.9c2.43333,3.56667 5.83333,6.06667 10.2,7.5c3.33333,1.06667 5.95,1.08333 7.85,0.05c0.83333,-0.5 1.6,-1.28333 2.3,-2.35c0.43333,-0.6 1,-1.53333 1.7,-2.8c0.88867,-1.49063 2.35534,-2.90729 4.4,-4.25c0.33594,-0.21862 0.68594,-0.43529 1.05,-0.65M621.0388,374.01757c0.06979,0.00156 0.13646,0.01823 0.2,0.05c0.16667,0 0.33333,-0.01667 0.5,-0.05c-0.23021,0 -0.46354,0 -0.7,0M616.6388,373.76757l0.1,0.05c-0.03333,-0.03333 -0.05,-0.06667 -0.05,-0.1l-0.05,0.05M665.1388,364.86757c-1.23333,2.13333 -2.91667,3.71667 -5.05,4.75c-1.4,1.03333 -3.45,1.63333 -6.15,1.8c-3.26667,0.23333 -5.4,0.53333 -6.4,0.9c-2.1,-1.3 -3.93333,-3.15 -5.5,-5.55c-1.16667,-1.8 -2.31667,-4.15 -3.45,-7.05c2.66667,0.73333 4.85,1.05 6.55,0.95c0.8,2.23333 1.98333,4.06667 3.55,5.5c1.8,1.63333 3.78333,2.4 5.95,2.3c2.06667,-0.1 3.88333,-1 5.45,-2.7c1.36667,-1.46667 2.36667,-3.3 3,-5.5l4.1,-2.1c-0.02031,0.30391 -0.05365,0.60391 -0.1,0.9c-0.24583,2.13906 -0.89583,4.0724 -1.95,5.8z" fill="#ff1300"/><path d="M649.8888,391.81757l1.25,-7.6h10.65l0.15,3c-4.23333,1.76667 -8.25,3.3 -12.05,4.6z" fill="#fcff72"/><path d="M635.2388,386.56757l-0.35,-4.75c4.9,0.1 9.61667,-0.38333 14.15,-1.45c-1.2,2.33333 -2.06667,4.1 -2.6,5.3c-2.46667,0.7 -4.33333,1.16667 -5.6,1.4c-2.2,0.4 -4.06667,0.23333 -5.6,-0.5z" fill="#f8ff70"/><path d="M647.3388,392.51757c-3.6,0.76667 -7.61667,1.45 -12.05,2.05l0.05,-4.3c1.76667,0.23333 3.88333,0.11667 6.35,-0.35c1.4,-0.26667 3.5,-0.71667 6.3,-1.35z" fill="#ffff77"/><path d="M666.1388,371.86757c1,-0.73333 3.31667,-2.51667 6.95,-5.35c-0.36667,1.53333 -0.91667,3.81667 -1.65,6.85c-0.66667,2.66667 -1.38333,4.9 -2.15,6.7c-1.96667,0.66667 -3.43333,1.16667 -4.4,1.5c0.6,-4.3 1.01667,-7.53333 1.25,-9.7z" fill="#f7ff6f"/><path d="M651.1388,381.66757l0.95,-2.1c0.23333,-0.13333 2,-0.98333 5.3,-2.55c2.13333,-1.03333 3.86667,-1.96667 5.2,-2.8c-0.33333,2.7 -0.56667,5.18333 -0.7,7.45z" fill="#ffff78"/></g></g></svg>