<svg version="1.1" xmlns="http://www.w3.org/2000/svg" xmlns:xlink="http://www.w3.org/1999/xlink" width="48.11899" height="65.41852" viewBox="0,0,48.11899,65.41852"><g transform="translate(-608.10186,-337.83784)"><g data-paper-data="{&quot;isPaintingLayer&quot;:true}" fill-rule="nonzero" stroke="none" stroke-width="1" stroke-linecap="butt" stroke-linejoin="miter" stroke-miterlimit="10" stroke-dasharray="" stroke-dashoffset="0" style="mix-blend-mode: normal"><path d="M649.50811,340.88784c0,0.53333 0,1.06667 0,1.6c0,1.16667 -0.01667,2.33333 -0.05,3.5c-0.03333,2.4 0,4.8 0.1,7.2c0,0.2 0,0.38333 0,0.55c-0.63333,2.23333 -2.11667,3.11667 -4.45,2.65c-5.13333,-1 -10.28333,-1.38333 -15.45,-1.15c-0.13333,0.1 -0.28333,0.2 -0.45,0.3c-0.1,0.06667 -0.21667,0.15 -0.35,0.25c2.23333,1.46667 5.01667,2.05 8.35,1.75c1.76667,-0.16667 3.51667,-0.01667 5.25,0.45c3.9,1.06667 7.1,3.13333 9.6,6.2c0.16667,0.1 0.31667,0.18333 0.45,0.25c0.7,1.23333 1.33333,2.48333 1.9,3.75c1.43333,3.2 2.01667,6.6 1.75,10.2c-0.16667,1.86667 -0.25,3.73333 -0.25,5.6c-0.03333,0.1 -0.06667,0.2 -0.1,0.3c0,0.06667 -0.01667,0.15 -0.05,0.25c-0.03333,0.1 -0.06667,0.18333 -0.1,0.25c-0.03333,0.1 -0.06667,0.2 -0.1,0.3c-0.03333,0.06667 -0.06667,0.15 -0.1,0.25c0,0.1 0,0.18333 0,0.25c0,0.1 0,0.2 0,0.3c0,0.06667 0,0.15 0,0.25c-0.03333,0.1 -0.05,0.18333 -0.05,0.25c-0.03333,0.1 -0.06667,0.2 -0.1,0.3c-0.03333,0.06667 -0.06667,0.15 -0.1,0.25c-0.03333,0.1 -0.05,0.2 -0.05,0.3c-0.03333,0.06667 -0.05,0.15 -0.05,0.25c-0.03333,0.1 -0.05,0.18333 -0.05,0.25c-0.03333,0.1 -0.05,0.18333 -0.05,0.25c-0.03333,0.1 -0.06667,0.2 -0.1,0.3c-0.03333,0.1 -0.08333,0.18333 -0.15,0.25c0,0.1 0,0.2 0,0.3c0,0.06667 0,0.15 0,0.25c0,0.1 0,0.18333 0,0.25c-2.76667,7.26667 -8.21667,11.41667 -16.35,12.45c-1.76667,0.23333 -3.51667,0.5 -5.25,0.8c-7.6,1.26667 -14.96667,0.73333 -22.1,-1.6c-0.36667,-0.13333 -0.68333,-0.35 -0.95,-0.65c-0.06667,-0.1 -0.11667,-0.2 -0.15,-0.3c-0.03333,-0.06667 -0.06667,-0.15 -0.1,-0.25c-0.03333,-0.06667 -0.06667,-0.15 -0.1,-0.25c-0.06667,-0.1 -0.11667,-0.18333 -0.15,-0.25c-0.06667,-0.1 -0.13333,-0.2 -0.2,-0.3c-0.06667,-0.06667 -0.13333,-0.15 -0.2,-0.25c-0.03333,-0.1 -0.08333,-0.2 -0.15,-0.3c-0.03333,-0.06667 -0.06667,-0.15 -0.1,-0.25c0,-0.1 0,-0.18333 0,-0.25c-0.03333,-0.1 -0.05,-0.2 -0.05,-0.3c-0.03333,-0.06667 -0.05,-0.15 -0.05,-0.25c0,-0.1 0,-0.18333 0,-0.25c-0.03333,-0.1 -0.06667,-0.2 -0.1,-0.3c0,-0.06667 -0.01667,-0.15 -0.05,-0.25c-0.03333,-0.1 -0.06667,-0.18333 -0.1,-0.25c-0.03333,-0.1 -0.06667,-0.2 -0.1,-0.3c0,-0.06667 0,-0.15 0,-0.25c0,-0.1 0,-0.18333 0,-0.25c0,-0.1 0,-0.2 0,-0.3c0,-0.06667 0,-0.15 0,-0.25c0,-0.1 0,-0.2 0,-0.3c0,-0.06667 0,-0.15 0,-0.25c0,-0.1 0,-0.18333 0,-0.25c0,-0.1 0,-0.2 0,-0.3c0,-0.06667 0,-0.15 0,-0.25c-0.03333,-0.26667 -0.1,-0.55 -0.2,-0.85c-0.1,-0.3 -0.15,-0.63333 -0.15,-1c0,-0.8 -0.01667,-1.61667 -0.05,-2.45c-0.03333,-1.06667 0.06667,-2.13333 0.3,-3.2c0,-0.1 0.03333,-0.18333 0.1,-0.25c0,-0.1 0,-0.2 0,-0.3c0,-0.06667 0,-0.15 0,-0.25c0,-0.1 0,-0.18333 0,-0.25c0,-0.1 0,-0.2 0,-0.3c0,-0.06667 0,-0.15 0,-0.25c0,-0.1 0,-0.18333 0,-0.25c0,-0.1 0,-0.2 0,-0.3c0.03333,-0.06667 0.06667,-0.15 0.1,-0.25c0.03333,-0.1 0.06667,-0.18333 0.1,-0.25c0.03333,-0.1 0.05,-0.2 0.05,-0.3c0.03333,-0.1 0.06667,-0.18333 0.1,-0.25c0.1,-0.1 0.18333,-0.2 0.25,-0.3c0.06667,-0.06667 0.13333,-0.15 0.2,-0.25c0.1,-0.1 0.2,-0.18333 0.3,-0.25c3.76667,-1.63333 7.83333,-2.05 12.2,-1.25c5.56667,1.03333 10.68333,0.2 15.35,-2.5c0.06667,-0.1 0.11667,-0.2 0.15,-0.3c0.03333,-0.06667 0.05,-0.15 0.05,-0.25c0.03333,-0.1 0.06667,-0.18333 0.1,-0.25c0.03333,-0.1 0.05,-0.2 0.05,-0.3c0,-0.06667 -0.01667,-0.15 -0.05,-0.25c-0.03333,-0.1 -0.06667,-0.18333 -0.1,-0.25c0,-0.1 -0.01667,-0.2 -0.05,-0.3c0,-0.06667 -0.01667,-0.15 -0.05,-0.25c0,-0.1 0,-0.18333 0,-0.25c0,-0.1 0,-0.2 0,-0.3c-0.03333,-0.1 -0.06667,-0.18333 -0.1,-0.25c-0.03333,-0.1 -0.06667,-0.18333 -0.1,-0.25c-0.06667,-0.1 -0.15,-0.2 -0.25,-0.3c-0.06667,-0.1 -0.11667,-0.18333 -0.15,-0.25c-0.06667,-0.1 -0.13333,-0.2 -0.2,-0.3c-0.03333,-0.06667 -0.06667,-0.15 -0.1,-0.25c-2.53333,-1.83333 -5.46667,-2.55 -8.8,-2.15c-5.26667,0.66667 -9.95,-0.46667 -14.05,-3.4c-0.1,-0.06667 -0.18333,-0.15 -0.25,-0.25c-0.06667,-0.1 -0.13333,-0.18333 -0.2,-0.25c-0.1,-0.1 -0.18333,-0.2 -0.25,-0.3c-0.13333,-0.06667 -0.25,-0.15 -0.35,-0.25c-0.1,-0.1 -0.2,-0.2 -0.3,-0.3c-0.13333,-0.16667 -0.26667,-0.35 -0.4,-0.55c-0.1,-0.16667 -0.2,-0.33333 -0.3,-0.5c-0.16667,-0.16667 -0.33333,-0.35 -0.5,-0.55c-0.16667,-0.16667 -0.31667,-0.35 -0.45,-0.55c-0.13333,-0.16667 -0.25,-0.33333 -0.35,-0.5c-0.13333,-0.26667 -0.25,-0.53333 -0.35,-0.8c-0.2,-0.53333 -0.4,-1.06667 -0.6,-1.6c0,-0.36667 0,-0.73333 0,-1.1c0,-0.33333 0,-0.68333 0,-1.05c0,-0.9 0,-1.8 0,-2.7c0,-1.23333 0,-2.48333 0,-3.75c0.03333,-0.06667 0.06667,-0.15 0.1,-0.25c0.03333,-0.1 0.06667,-0.18333 0.1,-0.25c0.03333,-0.1 0.06667,-0.2 0.1,-0.3c0.03333,-0.06667 0.06667,-0.15 0.1,-0.25c0.63333,-3.13333 1.9,-6 3.8,-8.6c2.33333,-3.16667 5.45,-4.96667 9.35,-5.4c3.2,-0.36667 6.43333,-0.56667 9.7,-0.6c0.43333,0 0.81667,-0.01667 1.15,-0.05c1.66667,0.03333 3.33333,0.06667 5,0.1c1.93333,0.06667 3.8,0.4 5.6,1c0.1,0 0.18333,-0.01667 0.25,-0.05c0.13333,-0.06667 0.26667,-0.15 0.4,-0.25c0.1,-0.06667 0.21667,-0.11667 0.35,-0.15c0.1,-0.03333 0.18333,-0.06667 0.25,-0.1c0.16667,-0.03333 0.31667,-0.06667 0.45,-0.1c0.2,-0.03333 0.38333,-0.06667 0.55,-0.1c0.4,0.1 0.78333,0.21667 1.15,0.35c0.3,0.13333 0.58333,0.3 0.85,0.5c0.16667,0.16667 0.33333,0.33333 0.5,0.5c0.16667,0.23333 0.28333,0.5 0.35,0.8c0.06667,0.16667 0.13333,0.35 0.2,0.55M648.85811,370.58784c-0.03333,-0.06667 -0.06667,-0.15 -0.1,-0.25c-0.03333,-0.1 -0.08333,-0.2 -0.15,-0.3c-0.03333,-0.06667 -0.06667,-0.15 -0.1,-0.25c-0.06667,-0.06667 -0.11667,-0.15 -0.15,-0.25c-0.13333,-0.26667 -0.26667,-0.53333 -0.4,-0.8c-0.06667,-0.1 -0.15,-0.18333 -0.25,-0.25c-0.1,-0.1 -0.18333,-0.2 -0.25,-0.3c-0.1,-0.1 -0.18333,-0.18333 -0.25,-0.25c-0.1,-0.1 -0.18333,-0.18333 -0.25,-0.25c-0.06667,-0.1 -0.13333,-0.2 -0.2,-0.3c-0.06667,-0.1 -0.11667,-0.18333 -0.15,-0.25c-0.03333,-0.1 -0.08333,-0.2 -0.15,-0.3c-1.6,-1.1 -3.3,-1.95 -5.1,-2.55c-3.53333,-1.23333 -7.21667,-1.88333 -11.05,-1.95c-2.66667,-0.06667 -4.73333,-1.16667 -6.2,-3.3c-0.86667,-1.3 -1.21667,-2.73333 -1.05,-4.3c0.03333,-0.1 0.06667,-0.2 0.1,-0.3c0.03333,-0.06667 0.06667,-0.15 0.1,-0.25c0.03333,-0.1 0.06667,-0.2 0.1,-0.3c0.03333,-0.06667 0.08333,-0.15 0.15,-0.25c0.1,-0.1 0.18333,-0.18333 0.25,-0.25c0.06667,-0.1 0.13333,-0.2 0.2,-0.3c0.03333,-0.06667 0.06667,-0.15 0.1,-0.25c0.06667,-0.1 0.11667,-0.18333 0.15,-0.25c0.1,-0.1 0.2,-0.2 0.3,-0.3c0.06667,-0.06667 0.15,-0.15 0.25,-0.25c0.1,-0.1 0.18333,-0.18333 0.25,-0.25c0.1,-0.1 0.2,-0.2 0.3,-0.3c1.16667,-0.83333 2.45,-1.43333 3.85,-1.8c0.86667,-0.2 1.75,-0.33333 2.65,-0.4c3.86667,-0.2 7.7,-0.08333 11.5,0.35c0.13333,-0.23333 0.18333,-0.48333 0.15,-0.75c-0.03333,-0.16667 -0.05,-0.33333 -0.05,-0.5c0,-0.26667 0,-0.53333 0,-0.8c0,-0.1 0,-0.2 0,-0.3c0,-0.06667 0,-0.15 0,-0.25c0,-0.16667 0,-0.35 0,-0.55c0,-0.5 0,-1.03333 0,-1.6c0,-0.66667 0,-1.35 0,-2.05c-0.06667,-0.03333 -0.11667,-0.05 -0.15,-0.05c-0.2,-0.06667 -0.38333,-0.1 -0.55,-0.1c-0.16667,0 -0.35,0 -0.55,0c-4.86667,0.5 -9.75,0.75 -14.65,0.75c-3.53333,0.03333 -6.61667,1.16667 -9.25,3.4c-0.1,0.1 -0.18333,0.2 -0.25,0.3c-0.06667,0.06667 -0.11667,0.15 -0.15,0.25c-0.03333,0.1 -0.08333,0.2 -0.15,0.3c-0.06667,0.06667 -0.13333,0.15 -0.2,0.25c-0.06667,0.1 -0.15,0.18333 -0.25,0.25c-0.03333,0.2 -0.06667,0.38333 -0.1,0.55c-0.06667,0.16667 -0.15,0.35 -0.25,0.55c-0.03333,0.06667 -0.06667,0.15 -0.1,0.25c-0.1,0.26667 -0.2,0.53333 -0.3,0.8c-0.03333,0.1 -0.05,0.18333 -0.05,0.25c-0.03333,0.1 -0.06667,0.2 -0.1,0.3c-0.06667,0.06667 -0.11667,0.15 -0.15,0.25c-0.13333,0.36667 -0.28333,0.71667 -0.45,1.05c-0.13333,0.26667 -0.23333,0.55 -0.3,0.85c0,0.06667 0,0.15 0,0.25c0,0.1 0,0.18333 0,0.25c0,0.1 0,0.2 0,0.3c-0.03333,0.06667 -0.05,0.15 -0.05,0.25c-0.03333,0.1 -0.06667,0.18333 -0.1,0.25c-0.03333,0.1 -0.06667,0.2 -0.1,0.3c-0.03333,0.06667 -0.06667,0.15 -0.1,0.25c0,0.16667 0,0.35 0,0.55c0,0.16667 0,0.35 0,0.55c0,0.16667 0,0.33333 0,0.5c0,0.26667 0,0.53333 0,0.8c0,0.1 0,0.2 0,0.3c0,0.06667 0,0.15 0,0.25c0,0.46667 0,0.91667 0,1.35c0,0.43333 0,0.88333 0,1.35c0.03333,0.06667 0.06667,0.15 0.1,0.25c0.03333,0.1 0.06667,0.18333 0.1,0.25c0.03333,0.1 0.06667,0.2 0.1,0.3c0.03333,0.06667 0.08333,0.15 0.15,0.25c0.1,0.1 0.2,0.18333 0.3,0.25c0.06667,0.1 0.15,0.2 0.25,0.3c0.1,0.06667 0.18333,0.15 0.25,0.25c0.03333,0.1 0.06667,0.18333 0.1,0.25c0.06667,0.1 0.13333,0.2 0.2,0.3c0.9,1.2 2.1,1.91667 3.6,2.15c3.56667,0.53333 7.15,0.8 10.75,0.8c4.26667,-0.03333 7.86667,1.48333 10.8,4.55c0.1,0.16667 0.18333,0.35 0.25,0.55c0.1,0.16667 0.2,0.33333 0.3,0.5c0.1,0.2 0.18333,0.38333 0.25,0.55c0.1,0.16667 0.2,0.35 0.3,0.55c0.03333,0.06667 0.08333,0.15 0.15,0.25c0.03333,0.1 0.06667,0.18333 0.1,0.25c0.03333,0.1 0.06667,0.2 0.1,0.3c0.16667,0.4 0.3,0.83333 0.4,1.3c0.03333,0.26667 0.1,0.55 0.2,0.85c0,0.16667 0,0.33333 0,0.5c0,0.1 0,0.2 0,0.3c0,0.06667 0,0.15 0,0.25c0,0.1 0,0.18333 0,0.25c0,0.1 0,0.2 0,0.3c0,0.16667 0,0.33333 0,0.5c0,0.1 0,0.2 0,0.3c0,0.06667 0,0.15 0,0.25c0,0.1 0,0.2 0,0.3c0,0.06667 0,0.15 0,0.25c-0.03333,0.1 -0.06667,0.18333 -0.1,0.25c0,0.1 -0.01667,0.2 -0.05,0.3c-0.03333,0.06667 -0.06667,0.15 -0.1,0.25c-0.03333,0.1 -0.06667,0.18333 -0.1,0.25c0,0.1 0,0.2 0,0.3c-0.03333,0.06667 -0.06667,0.15 -0.1,0.25c-0.06667,0.16667 -0.11667,0.35 -0.15,0.55c-0.03333,0.06667 -0.06667,0.15 -0.1,0.25c-0.03333,0.1 -0.06667,0.18333 -0.1,0.25c-0.9,1.03333 -1.91667,1.91667 -3.05,2.65c-2.16667,1.46667 -4.53333,2.36667 -7.1,2.7c-6.13333,0.83333 -12.3,0.98333 -18.5,0.45c-0.03333,0.1 -0.06667,0.2 -0.1,0.3c-0.03333,0.1 -0.06667,0.18333 -0.1,0.25c-0.03333,0.1 -0.05,0.2 -0.05,0.3c-0.03333,0.06667 -0.06667,0.15 -0.1,0.25c0,0.1 0,0.18333 0,0.25c0,0.1 0,0.2 0,0.3c0,0.06667 0,0.15 0,0.25c0,0.1 0,0.18333 0,0.25c0,0.1 0,0.2 0,0.3c0,0.06667 0,0.15 0,0.25c0,0.16667 0,0.35 0,0.55c0,0.06667 0,0.15 0,0.25c0,0.1 0,0.18333 0,0.25c0.03333,0.1 0.06667,0.2 0.1,0.3c0,0.1 0.01667,0.18333 0.05,0.25c0.03333,0.1 0.06667,0.2 0.1,0.3c0.03333,0.06667 0.06667,0.15 0.1,0.25c0,0.1 0,0.18333 0,0.25c0,0.1 0,0.2 0,0.3c0,0.06667 0,0.15 0,0.25c0,0.1 0,0.18333 0,0.25c0,0.1 0,0.2 0,0.3c0,0.06667 0,0.15 0,0.25c0,0.16667 0,0.35 0,0.55c0.03333,0.06667 0.06667,0.15 0.1,0.25c0.03333,0.1 0.06667,0.18333 0.1,0.25c0,0.1 0.01667,0.2 0.05,0.3c0.03333,0.1 0.06667,0.18333 0.1,0.25c0,0.1 0,0.2 0,0.3c0,0.06667 0,0.15 0,0.25c0,0.1 0,0.18333 0,0.25c1.7,1.1 3.8,1.6 6.3,1.5c3.83333,-0.23333 7.65,-0.58333 11.45,-1.05c5.33333,-0.7 10.13333,-2.45 14.4,-5.25c0.03333,-0.1 0.06667,-0.18333 0.1,-0.25c0.03333,-0.1 0.08333,-0.2 0.15,-0.3c0.06667,-0.1 0.13333,-0.18333 0.2,-0.25c0.06667,-0.1 0.15,-0.2 0.25,-0.3c0.1,-0.06667 0.2,-0.15 0.3,-0.25c0.03333,-0.1 0.08333,-0.18333 0.15,-0.25c0.03333,-0.1 0.06667,-0.18333 0.1,-0.25c0.06667,-0.1 0.11667,-0.2 0.15,-0.3c0.03333,-0.1 0.08333,-0.18333 0.15,-0.25c0.03333,-0.1 0.06667,-0.2 0.1,-0.3c0.06667,-0.06667 0.11667,-0.15 0.15,-0.25c0.03333,-0.1 0.08333,-0.18333 0.15,-0.25c0,-0.1 0,-0.2 0,-0.3c0,-0.06667 0,-0.15 0,-0.25c0,-0.1 0,-0.2 0,-0.3c0.03333,-0.06667 0.06667,-0.15 0.1,-0.25c0.03333,-0.1 0.06667,-0.18333 0.1,-0.25c0.03333,-0.1 0.06667,-0.2 0.1,-0.3c0,-0.06667 0.01667,-0.15 0.05,-0.25c0,-0.1 0.01667,-0.18333 0.05,-0.25c0,-0.1 0.01667,-0.2 0.05,-0.3c0.03333,-0.16667 0.08333,-0.33333 0.15,-0.5c0.03333,-0.1 0.06667,-0.2 0.1,-0.3c0,-0.06667 0,-0.15 0,-0.25c0,-0.1 0,-0.18333 0,-0.25c0,-0.1 0,-0.2 0,-0.3c0,-0.06667 0.01667,-0.15 0.05,-0.25c0,-0.1 0.01667,-0.2 0.05,-0.3c0,-0.06667 0.01667,-0.15 0.05,-0.25c0.06667,-0.16667 0.13333,-0.35 0.2,-0.55c0.03333,-0.06667 0.06667,-0.15 0.1,-0.25c0,-0.36667 0,-0.71667 0,-1.05c0,-0.36667 0,-0.73333 0,-1.1c0,-0.06667 0,-0.15 0,-0.25c0,-0.1 0,-0.18333 0,-0.25c0,-0.3 0,-0.58333 0,-0.85c0,-0.8 0,-1.6 0,-2.4c0,-0.7 0,-1.41667 0,-2.15c-0.03333,-0.06667 -0.06667,-0.15 -0.1,-0.25c-0.03333,-0.1 -0.08333,-0.2 -0.15,-0.3c-0.03333,-0.06667 -0.05,-0.15 -0.05,-0.25c-0.03333,-0.06667 -0.05,-0.15 -0.05,-0.25c-0.03333,-0.1 -0.05,-0.18333 -0.05,-0.25c-0.03333,-0.1 -0.05,-0.2 -0.05,-0.3c0,-0.06667 0,-0.15 0,-0.25c-0.03333,-0.16667 -0.1,-0.35 -0.2,-0.55c-0.03333,-0.1 -0.06667,-0.18333 -0.1,-0.25c-0.06667,-0.1 -0.1,-0.2 -0.1,-0.3c-0.03333,-0.06667 -0.06667,-0.15 -0.1,-0.25c-0.06667,-0.16667 -0.13333,-0.35 -0.2,-0.55z" fill="#000000"/><path d="M649.25811,371.68784c0.03333,0.06667 0.06667,0.15 0.1,0.25c0.1,0.2 0.16667,0.38333 0.2,0.55c0,0.1 0,0.18333 0,0.25c0,0.1 0.01667,0.2 0.05,0.3c0,0.06667 0.01667,0.15 0.05,0.25c0,0.1 0.01667,0.18333 0.05,0.25c0,0.1 0.01667,0.18333 0.05,0.25c0.06667,0.1 0.11667,0.2 0.15,0.3c0.03333,0.1 0.06667,0.18333 0.1,0.25c0,0.73333 0,1.45 0,2.15c0,0.8 0,1.6 0,2.4c0,0.26667 0,0.55 0,0.85c0,0.06667 0,0.15 0,0.25c0,0.1 0,0.18333 0,0.25c0,0.36667 0,0.73333 0,1.1c0,0.33333 0,0.68333 0,1.05c-0.03333,0.1 -0.06667,0.18333 -0.1,0.25c-0.06667,0.2 -0.13333,0.38333 -0.2,0.55c-0.03333,0.1 -0.05,0.18333 -0.05,0.25c-0.03333,0.1 -0.05,0.2 -0.05,0.3c-0.03333,0.1 -0.05,0.18333 -0.05,0.25c0,0.1 0,0.2 0,0.3c0,0.06667 0,0.15 0,0.25c0,0.1 0,0.18333 0,0.25c-0.03333,0.1 -0.06667,0.2 -0.1,0.3c-0.06667,0.16667 -0.11667,0.33333 -0.15,0.5c-0.03333,0.1 -0.05,0.2 -0.05,0.3c-0.03333,0.06667 -0.05,0.15 -0.05,0.25c-0.03333,0.1 -0.05,0.18333 -0.05,0.25c-0.03333,0.1 -0.06667,0.2 -0.1,0.3c-0.03333,0.06667 -0.06667,0.15 -0.1,0.25c-0.03333,0.1 -0.06667,0.18333 -0.1,0.25c0,0.1 0,0.2 0,0.3c0,0.1 0,0.18333 0,0.25c0,0.1 0,0.2 0,0.3c-0.06667,0.06667 -0.11667,0.15 -0.15,0.25c-0.03333,0.1 -0.08333,0.18333 -0.15,0.25c-0.03333,0.1 -0.06667,0.2 -0.1,0.3c-0.06667,0.06667 -0.11667,0.15 -0.15,0.25c-0.03333,0.1 -0.08333,0.2 -0.15,0.3c-0.03333,0.06667 -0.06667,0.15 -0.1,0.25c-0.06667,0.06667 -0.11667,0.15 -0.15,0.25c-0.1,0.1 -0.2,0.18333 -0.3,0.25c-0.1,0.1 -0.18333,0.2 -0.25,0.3c-0.06667,0.06667 -0.13333,0.15 -0.2,0.25c-0.06667,0.1 -0.11667,0.2 -0.15,0.3c-0.03333,0.06667 -0.06667,0.15 -0.1,0.25c-4.26667,2.8 -9.06667,4.55 -14.4,5.25c-3.8,0.46667 -7.61667,0.81667 -11.45,1.05c-2.5,0.1 -4.6,-0.4 -6.3,-1.5c0,-0.06667 0,-0.15 0,-0.25c0,-0.1 0,-0.18333 0,-0.25c0,-0.1 0,-0.2 0,-0.3c-0.03333,-0.06667 -0.06667,-0.15 -0.1,-0.25c-0.03333,-0.1 -0.05,-0.2 -0.05,-0.3c-0.03333,-0.06667 -0.06667,-0.15 -0.1,-0.25c-0.03333,-0.1 -0.06667,-0.18333 -0.1,-0.25c0,-0.2 0,-0.38333 0,-0.55c0,-0.1 0,-0.18333 0,-0.25c0,-0.1 0,-0.2 0,-0.3c0,-0.06667 0,-0.15 0,-0.25c0,-0.1 0,-0.18333 0,-0.25c0,-0.1 0,-0.2 0,-0.3c0,-0.06667 0,-0.15 0,-0.25c-0.03333,-0.1 -0.06667,-0.18333 -0.1,-0.25c-0.03333,-0.1 -0.06667,-0.2 -0.1,-0.3c-0.03333,-0.06667 -0.05,-0.15 -0.05,-0.25c-0.03333,-0.1 -0.06667,-0.2 -0.1,-0.3c0,-0.06667 0,-0.15 0,-0.25c0,-0.1 0,-0.18333 0,-0.25c0,-0.2 0,-0.38333 0,-0.55c0,-0.1 0,-0.18333 0,-0.25c0,-0.1 0,-0.2 0,-0.3c0,-0.06667 0,-0.15 0,-0.25c0,-0.1 0,-0.18333 0,-0.25c0,-0.1 0,-0.2 0,-0.3c0,-0.06667 0,-0.15 0,-0.25c0.03333,-0.1 0.06667,-0.18333 0.1,-0.25c0,-0.1 0.01667,-0.2 0.05,-0.3c0.03333,-0.06667 0.06667,-0.15 0.1,-0.25c0.03333,-0.1 0.06667,-0.2 0.1,-0.3c6.2,0.53333 12.36667,0.38333 18.5,-0.45c2.56667,-0.33333 4.93333,-1.23333 7.1,-2.7c1.13333,-0.73333 2.15,-1.61667 3.05,-2.65c0.03333,-0.06667 0.06667,-0.15 0.1,-0.25c0.03333,-0.1 0.06667,-0.18333 0.1,-0.25c0.03333,-0.2 0.08333,-0.38333 0.15,-0.55c0.03333,-0.1 0.06667,-0.18333 0.1,-0.25c0,-0.1 0,-0.2 0,-0.3c0.03333,-0.06667 0.06667,-0.15 0.1,-0.25c0.03333,-0.1 0.06667,-0.18333 0.1,-0.25c0.03333,-0.1 0.05,-0.2 0.05,-0.3c0.03333,-0.06667 0.06667,-0.15 0.1,-0.25c0,-0.1 0,-0.18333 0,-0.25c0,-0.1 0,-0.2 0,-0.3c0,-0.1 0,-0.18333 0,-0.25c0,-0.1 0,-0.2 0,-0.3c0,-0.16667 0,-0.33333 0,-0.5c0,-0.1 0,-0.2 0,-0.3c0,-0.06667 0,-0.15 0,-0.25c0,-0.1 0,-0.18333 0,-0.25c0,-0.1 0,-0.2 0,-0.3c0,-0.16667 0,-0.33333 0,-0.5c-0.1,-0.3 -0.16667,-0.58333 -0.2,-0.85c-0.1,-0.46667 -0.23333,-0.9 -0.4,-1.3c-0.03333,-0.1 -0.06667,-0.2 -0.1,-0.3c-0.03333,-0.06667 -0.06667,-0.15 -0.1,-0.25c-0.06667,-0.1 -0.11667,-0.18333 -0.15,-0.25c-0.1,-0.2 -0.2,-0.38333 -0.3,-0.55c-0.06667,-0.16667 -0.15,-0.35 -0.25,-0.55c-0.1,-0.16667 -0.2,-0.33333 -0.3,-0.5c-0.06667,-0.2 -0.15,-0.38333 -0.25,-0.55c-2.93333,-3.06667 -6.53333,-4.58333 -10.8,-4.55c-3.6,0 -7.18333,-0.26667 -10.75,-0.8c-1.5,-0.23333 -2.7,-0.95 -3.6,-2.15c-0.06667,-0.1 -0.13333,-0.2 -0.2,-0.3c-0.03333,-0.06667 -0.06667,-0.15 -0.1,-0.25c-0.06667,-0.1 -0.15,-0.18333 -0.25,-0.25c-0.1,-0.1 -0.18333,-0.2 -0.25,-0.3c-0.1,-0.06667 -0.2,-0.15 -0.3,-0.25c-0.06667,-0.1 -0.11667,-0.18333 -0.15,-0.25c-0.03333,-0.1 -0.06667,-0.2 -0.1,-0.3c-0.03333,-0.06667 -0.06667,-0.15 -0.1,-0.25c-0.03333,-0.1 -0.06667,-0.18333 -0.1,-0.25c0,-0.46667 0,-0.91667 0,-1.35c0,-0.43333 0,-0.88333 0,-1.35c0,-0.1 0,-0.18333 0,-0.25c0,-0.1 0,-0.2 0,-0.3c0,-0.26667 0,-0.53333 0,-0.8c0,-0.16667 0,-0.33333 0,-0.5c0,-0.2 0,-0.38333 0,-0.55c0,-0.2 0,-0.38333 0,-0.55c0.03333,-0.1 0.06667,-0.18333 0.1,-0.25c0.03333,-0.1 0.06667,-0.2 0.1,-0.3c0.03333,-0.06667 0.06667,-0.15 0.1,-0.25c0,-0.1 0.01667,-0.18333 0.05,-0.25c0,-0.1 0,-0.2 0,-0.3c0,-0.06667 0,-0.15 0,-0.25c0,-0.1 0,-0.18333 0,-0.25c0.06667,-0.3 0.16667,-0.58333 0.3,-0.85c0.16667,-0.33333 0.31667,-0.68333 0.45,-1.05c0.03333,-0.1 0.08333,-0.18333 0.15,-0.25c0.03333,-0.1 0.06667,-0.2 0.1,-0.3c0,-0.06667 0.01667,-0.15 0.05,-0.25c0.1,-0.26667 0.2,-0.53333 0.3,-0.8c0.03333,-0.1 0.06667,-0.18333 0.1,-0.25c0.1,-0.2 0.18333,-0.38333 0.25,-0.55c0.03333,-0.16667 0.06667,-0.35 0.1,-0.55c0.1,-0.06667 0.18333,-0.15 0.25,-0.25c0.06667,-0.1 0.13333,-0.18333 0.2,-0.25c0.06667,-0.1 0.11667,-0.2 0.15,-0.3c0.03333,-0.1 0.08333,-0.18333 0.15,-0.25c0.06667,-0.1 0.15,-0.2 0.25,-0.3c2.63333,-2.23333 5.71667,-3.36667 9.25,-3.4c4.9,0 9.78333,-0.25 14.65,-0.75c0.2,0 0.38333,0 0.55,0c0.16667,0 0.35,0.03333 0.55,0.1c0.03333,0 0.08333,0.01667 0.15,0.05c0,0.7 0,1.38333 0,2.05c0,0.56667 0,1.1 0,1.6c0,0.2 0,0.38333 0,0.55c0,0.1 0,0.18333 0,0.25c0,0.1 0,0.2 0,0.3c0,0.26667 0,0.53333 0,0.8c0,0.16667 0.01667,0.33333 0.05,0.5c0.03333,0.26667 -0.01667,0.51667 -0.15,0.75c-3.8,-0.43333 -7.63333,-0.55 -11.5,-0.35c-0.9,0.06667 -1.78333,0.2 -2.65,0.4c-1.4,0.36667 -2.68333,0.96667 -3.85,1.8c-0.1,0.1 -0.2,0.2 -0.3,0.3c-0.06667,0.06667 -0.15,0.15 -0.25,0.25c-0.1,0.1 -0.18333,0.18333 -0.25,0.25c-0.1,0.1 -0.2,0.2 -0.3,0.3c-0.03333,0.06667 -0.08333,0.15 -0.15,0.25c-0.03333,0.1 -0.06667,0.18333 -0.1,0.25c-0.06667,0.1 -0.13333,0.2 -0.2,0.3c-0.06667,0.06667 -0.15,0.15 -0.25,0.25c-0.06667,0.1 -0.11667,0.18333 -0.15,0.25c-0.03333,0.1 -0.06667,0.2 -0.1,0.3c-0.03333,0.1 -0.06667,0.18333 -0.1,0.25c-0.03333,0.1 -0.06667,0.2 -0.1,0.3c-0.16667,1.56667 0.18333,3 1.05,4.3c1.46667,2.13333 3.53333,3.23333 6.2,3.3c3.83333,0.06667 7.51667,0.71667 11.05,1.95c1.8,0.6 3.5,1.45 5.1,2.55c0.06667,0.1 0.11667,0.2 0.15,0.3c0.03333,0.06667 0.08333,0.15 0.15,0.25c0.06667,0.1 0.13333,0.2 0.2,0.3c0.06667,0.06667 0.15,0.15 0.25,0.25c0.06667,0.06667 0.15,0.15 0.25,0.25c0.06667,0.1 0.15,0.2 0.25,0.3c0.1,0.06667 0.18333,0.15 0.25,0.25c0.13333,0.26667 0.26667,0.53333 0.4,0.8c0.03333,0.1 0.08333,0.18333 0.15,0.25c0.03333,0.1 0.06667,0.18333 0.1,0.25c0.06667,0.1 0.11667,0.2 0.15,0.3c0.03333,0.1 0.06667,0.18333 0.1,0.25c0.06667,0.2 0.13333,0.38333 0.2,0.55c0.03333,0.1 0.06667,0.18333 0.1,0.25c0,0.1 0.03333,0.2 0.1,0.3z" fill="#ffffff"/></g></g></svg>