<svg version="1.1" xmlns="http://www.w3.org/2000/svg" xmlns:xlink="http://www.w3.org/1999/xlink" width="626.35" height="168.2" viewBox="0,0,626.35,168.2"><g transform="translate(-327.34234,-275.64279)"><g data-paper-data="{&quot;isPaintingLayer&quot;:true}" fill-rule="nonzero" stroke="none" stroke-width="1" stroke-linecap="butt" stroke-linejoin="miter" stroke-miterlimit="10" stroke-dasharray="" stroke-dashoffset="0" style="mix-blend-mode: normal"><path d="M352.34234,285.74279c1.9,-0.56667 3.8,-1.05 5.7,-1.45c2.36667,-0.53333 4.75,-1.03333 7.15,-1.5c1.53333,-0.23333 3.08333,-0.48333 4.65,-0.75c0.83333,-0.23333 1.66667,-0.43333 2.5,-0.6c1.53333,-0.3 3.06667,-0.6 4.6,-0.9c0.83333,-0.16667 1.66667,-0.36667 2.5,-0.6c1.56667,-0.26667 3.11667,-0.51667 4.65,-0.75c0.83333,-0.23333 1.66667,-0.46667 2.5,-0.7c2.03333,-0.23333 4.06667,-0.46667 6.1,-0.7c0.83333,-0.23333 1.66667,-0.48333 2.5,-0.75c2.96667,-0.23333 5.93333,-0.48333 8.9,-0.75c0.83333,-0.06667 1.65,-0.21667 2.45,-0.45c0.03333,-0.03333 0.05,-0.1 0.05,-0.2c6.2,0 12.4,0 18.6,0c0.7,0.23333 1.4,0.46667 2.1,0.7c0.36667,0.23333 0.73333,0.46667 1.1,0.7c0.6,0.26667 1.2,0.5 1.8,0.7c0.7,0.26667 1.4,0.51667 2.1,0.75c0.73333,0.23333 1.45,0.46667 2.15,0.7c0.36667,0.23333 0.73333,0.48333 1.1,0.75c0.6,0.23333 1.18333,0.46667 1.75,0.7c0.36667,0.36667 0.73333,0.71667 1.1,1.05c0.36667,0.36667 0.71667,0.73333 1.05,1.1c0.36667,0.33333 0.73333,0.68333 1.1,1.05c0.23333,0.23333 0.46667,0.46667 0.7,0.7c0.6,0.23333 1.2,0.48333 1.8,0.75c0.33333,0.33333 0.68333,0.68333 1.05,1.05c0.36667,0.36667 0.73333,0.71667 1.1,1.05c0.33333,0.36667 0.68333,0.73333 1.05,1.1c0.23333,0.36667 0.46667,0.71667 0.7,1.05c0.23333,0.36667 0.48333,0.73333 0.75,1.1c0,0.33333 0,0.68333 0,1.05c0,0.36667 0,0.73333 0,1.1c0,0.33333 0,0.68333 0,1.05c0,0.36667 0,0.71667 0,1.05c0,0.36667 0,0.73333 0,1.1c0,0.23333 0,0.46667 0,0.7v0.2c0.56667,0.1 1.15,0.15 1.75,0.15c0.6,-0.23333 1.2,-0.46667 1.8,-0.7c0.83333,-0.36667 1.66667,-0.71667 2.5,-1.05c0.36667,-0.26667 0.71667,-0.51667 1.05,-0.75c0.6,-0.1 1.2,-0.21667 1.8,-0.35c0.6,-0.23333 1.2,-0.45 1.8,-0.65c0.83333,-0.26667 1.66667,-0.51667 2.5,-0.75c7.13333,0 14.26667,0 21.4,0c0.73333,0.23333 1.45,0.46667 2.15,0.7c1.66667,0.23333 3.33333,0.46667 5,0.7c0.73333,0.23333 1.45,0.46667 2.15,0.7c0.36667,0.26667 0.71667,0.51667 1.05,0.75c0.6,0.23333 1.2,0.45 1.8,0.65c0.73333,0.26667 1.45,0.51667 2.15,0.75c0.7,0.23333 1.41667,0.48333 2.15,0.75c0.46667,0.33333 0.93333,0.68333 1.4,1.05c0.26667,0.23333 0.51667,0.46667 0.75,0.7c0.1,0.13333 0.23333,0.23333 0.4,0.3c0.56667,0.3 1.15,0.56667 1.75,0.8c0.46667,0.33333 0.93333,0.68333 1.4,1.05c0.23333,0 0.46667,0 0.7,0c0.13333,-0.36667 0.26667,-0.71667 0.4,-1.05c0.33333,-0.36667 0.68333,-0.73333 1.05,-1.1c0.36667,-0.33333 0.71667,-0.68333 1.05,-1.05c0.13333,-0.36667 0.26667,-0.73333 0.4,-1.1c0.1,-0.33333 0.21667,-0.68333 0.35,-1.05c0.33333,-0.36667 0.68333,-0.71667 1.05,-1.05c0.36667,-0.36667 0.73333,-0.73333 1.1,-1.1c0.33333,-0.36667 0.68333,-0.71667 1.05,-1.05c0.36667,-0.36667 0.71667,-0.73333 1.05,-1.1c0.36667,-0.33333 0.73333,-0.68333 1.1,-1.05c0.36667,-0.23333 0.71667,-0.46667 1.05,-0.7c0.6,-0.13333 1.2,-0.26667 1.8,-0.4c1.06667,-0.23333 2.13333,-0.48333 3.2,-0.75c0.83333,-0.2 1.66667,-0.41667 2.5,-0.65c13.83333,0 27.65,0 41.45,0c0.7,0.23333 1.41667,0.46667 2.15,0.7c1.66667,0.23333 3.33333,0.46667 5,0.7c0.7,0.26667 1.4,0.51667 2.1,0.75c0.73333,0.23333 1.45,0.46667 2.15,0.7c0.73333,0.23333 1.45,0.46667 2.15,0.7c0.73333,0.23333 1.45,0.48333 2.15,0.75c0.7,0.23333 1.41667,0.46667 2.15,0.7c0.46667,0.36667 0.95,0.71667 1.45,1.05c0.33333,0.23333 0.68333,0.48333 1.05,0.75c0.46667,-0.13333 0.93333,-0.26667 1.4,-0.4c0.36667,-0.33333 0.73333,-0.68333 1.1,-1.05c0.36667,-0.36667 0.71667,-0.71667 1.05,-1.05c0.36667,-0.36667 0.73333,-0.73333 1.1,-1.1c0.33333,-0.36667 0.68333,-0.71667 1.05,-1.05c0.83333,-0.23333 1.66667,-0.48333 2.5,-0.75c3.33333,0 6.66667,0 10,0c0.73333,0.26667 1.45,0.51667 2.15,0.75c3.1,0.23333 6.2,0.46667 9.3,0.7c0.7,0.23333 1.4,0.46667 2.1,0.7c4.06667,0.23333 8.11667,0.48333 12.15,0.75c0.73333,0.23333 1.45,0.46667 2.15,0.7c1.66667,0.23333 3.33333,0.46667 5,0.7c0.73333,0.23333 1.45,0.46667 2.15,0.7c0.7,0.26667 1.41667,0.51667 2.15,0.75c0.7,0.23333 1.41667,0.46667 2.15,0.7c0.33333,0.23333 0.68333,0.46667 1.05,0.7c0.6,0.23333 1.2,0.48333 1.8,0.75c0.46667,0.33333 0.93333,0.68333 1.4,1.05c0.36667,0.36667 0.73333,0.71667 1.1,1.05c0.23333,0.13333 0.46667,0.26667 0.7,0.4c0.13333,-0.26667 0.25,-0.51667 0.35,-0.75c0,-0.33333 0,-0.68333 0,-1.05c0.23333,-0.36667 0.48333,-0.73333 0.75,-1.1c0.33333,-0.33333 0.68333,-0.68333 1.05,-1.05c0.46667,-0.36667 0.95,-0.71667 1.45,-1.05c0.23333,-0.36667 0.46667,-0.73333 0.7,-1.1c0.1,-0.36667 0.21667,-0.71667 0.35,-1.05c0,-0.36667 0,-0.73333 0,-1.1c0.13333,-0.33333 0.25,-0.68333 0.35,-1.05c0.23333,-0.36667 0.46667,-0.73333 0.7,-1.1c0.13333,-0.33333 0.26667,-0.68333 0.4,-1.05c0.1,-0.36667 0.21667,-0.71667 0.35,-1.05c0.23333,-0.36667 0.46667,-0.73333 0.7,-1.1c0.13333,-0.36667 0.25,-0.71667 0.35,-1.05c0.23333,-0.36667 0.46667,-0.73333 0.7,-1.1c0.36667,-0.33333 0.73333,-0.68333 1.1,-1.05c0.23333,-0.36667 0.46667,-0.71667 0.7,-1.05c0.13333,-0.36667 0.25,-0.73333 0.35,-1.1c0.23333,-0.36667 0.48333,-0.71667 0.75,-1.05c0.33333,-0.36667 0.68333,-0.73333 1.05,-1.1c0.83333,-0.33333 1.66667,-0.68333 2.5,-1.05c0.36667,-0.23333 0.71667,-0.46667 1.05,-0.7c0.6,-0.13333 1.2,-0.26667 1.8,-0.4c0.6,-0.23333 1.2,-0.45 1.8,-0.65c0.83333,-0.26667 1.66667,-0.51667 2.5,-0.75c4.76667,0 9.51667,0 14.25,0c0.73333,0.23333 1.45,0.46667 2.15,0.7c11.2,0.23333 22.4,0.46667 33.6,0.7c0.7,0.26667 1.41667,0.51667 2.15,0.75c1.66667,0.23333 3.33333,0.46667 5,0.7c0.7,0.23333 1.41667,0.41667 2.15,0.55c2.66667,0.53333 5.3,1.23333 7.9,2.1c2.56667,0.83333 5.16667,1.55 7.8,2.15c3.4,0.76667 6.73333,1.78333 10,3.05c0.33333,0.23333 0.68333,0.46667 1.05,0.7c0.6,0.23333 1.2,0.46667 1.8,0.7c0.7,0.26667 1.41667,0.51667 2.15,0.75c0.7,0.23333 1.4,0.46667 2.1,0.7c0.5,0.36667 1,0.71667 1.5,1.05c0.56667,0.36667 1.15,0.73333 1.75,1.1c0.33333,0.36667 0.68333,0.71667 1.05,1.05c0.36667,0.26667 0.73333,0.51667 1.1,0.75c0.56667,0.23333 1.15,0.46667 1.75,0.7c0.36667,0.36667 0.73333,0.71667 1.1,1.05c0.33333,0.36667 0.68333,0.73333 1.05,1.1c0.36667,0.36667 0.73333,0.71667 1.1,1.05c0.33333,0.36667 0.68333,0.73333 1.05,1.1c0.36667,0.33333 0.71667,0.68333 1.05,1.05c0.13333,0.36667 0.26667,0.73333 0.4,1.1c0.1,0.33333 0.21667,0.68333 0.35,1.05c0.23333,0.36667 0.46667,0.71667 0.7,1.05c0.23333,0.36667 0.46667,0.73333 0.7,1.1c0.13333,0.36667 0.25,0.71667 0.35,1.05c0.26667,0.36667 0.51667,0.73333 0.75,1.1c0.1,0.33333 0.21667,0.68333 0.35,1.05c0.23333,0.36667 0.46667,0.73333 0.7,1.1c0.13333,0.33333 0.25,0.68333 0.35,1.05c0.13333,0.36667 0.25,0.71667 0.35,1.05c0,0.36667 0,0.73333 0,1.1c0.17643,0.24271 0.3431,0.47604 0.5,0.7c0.07839,-0.22396 0.16172,-0.45729 0.25,-0.7c0.23333,-0.36667 0.46667,-0.73333 0.7,-1.1c0.36667,-0.33333 0.71667,-0.68333 1.05,-1.05c0.26667,-0.36667 0.51667,-0.71667 0.75,-1.05c0.1,-0.36667 0.21667,-0.73333 0.35,-1.1c0.23333,-0.36667 0.46667,-0.71667 0.7,-1.05c0.13333,-0.36667 0.25,-0.73333 0.35,-1.1c0.13333,-0.33333 0.25,-0.68333 0.35,-1.05c0.26667,-0.36667 0.51667,-0.73333 0.75,-1.1c0.1,-0.33333 0.21667,-0.68333 0.35,-1.05c0.23333,-0.36667 0.46667,-0.71667 0.7,-1.05c0.36667,-0.36667 0.73333,-0.73333 1.1,-1.1c0.23333,-0.36667 0.46667,-0.71667 0.7,-1.05c0.1,-0.36667 0.21667,-0.73333 0.35,-1.1c0.23333,-0.33333 0.46667,-0.68333 0.7,-1.05c0.36667,-0.36667 0.73333,-0.73333 1.1,-1.1c0.33333,-0.33333 0.68333,-0.68333 1.05,-1.05c0.36667,-0.36667 0.73333,-0.71667 1.1,-1.05c0.23333,-0.26667 0.46667,-0.51667 0.7,-0.75c0.23333,-0.1 0.46667,-0.2 0.7,-0.3c0.6,-0.26667 1.2,-0.51667 1.8,-0.75c0.36667,-0.23333 0.71667,-0.46667 1.05,-0.7c0.6,-0.26667 1.2,-0.51667 1.8,-0.75c0.36667,-0.23333 0.71667,-0.46667 1.05,-0.7c0.6,-0.23333 1.2,-0.46667 1.8,-0.7c0.36667,-0.23333 0.73333,-0.48333 1.1,-0.75c0.56667,-0.1 1.15,-0.21667 1.75,-0.35c0.6,-0.23333 1.2,-0.45 1.8,-0.65c0.83333,-0.26667 1.66667,-0.51667 2.5,-0.75c0.96667,0 1.91667,0 2.85,0c0.73333,0.23333 1.45,0.46667 2.15,0.7c5.93333,0.23333 11.88333,0.46667 17.85,0.7c0.7,0.23333 1.41667,0.48333 2.15,0.75c0.7,0.23333 1.41667,0.46667 2.15,0.7c0.7,0.23333 1.41667,0.46667 2.15,0.7c0.33333,0 0.68333,0 1.05,0c0.23333,-0.36667 0.46667,-0.71667 0.7,-1.05c0.13333,-0.36667 0.25,-0.73333 0.35,-1.1c0,-0.33333 0,-0.68333 0,-1.05c0,-0.36667 0,-0.73333 0,-1.1c0.13333,-0.33333 0.26667,-0.68333 0.4,-1.05c0.23333,-0.36667 0.46667,-0.71667 0.7,-1.05c0.36667,-0.36667 0.71667,-0.73333 1.05,-1.1c0.36667,-0.33333 0.73333,-0.68333 1.1,-1.05c0.33333,-0.36667 0.68333,-0.73333 1.05,-1.1c0.36667,-0.23333 0.73333,-0.46667 1.1,-0.7c0.56667,-0.1 1.15,-0.2 1.75,-0.3c2.03333,-0.26667 4.06667,-0.51667 6.1,-0.75c0.83333,-0.23333 1.66667,-0.48333 2.5,-0.75c2,-0.23333 4.01667,-0.46667 6.05,-0.7c0.83333,-0.1 1.65,-0.26667 2.45,-0.5c0.03333,-0.03333 0.05,-0.1 0.05,-0.2c4.3,0 8.58333,0 12.85,0c0.73333,0.23333 1.46667,0.43333 2.2,0.6c1.16667,0.3 2.33333,0.6 3.5,0.9c0.73333,0.2 1.45,0.41667 2.15,0.65c0.36667,0.23333 0.73333,0.46667 1.1,0.7c0.6,0.23333 1.18333,0.46667 1.75,0.7c0.5,0.36667 0.98333,0.73333 1.45,1.1c0.36667,0.33333 0.71667,0.68333 1.05,1.05c0.36667,0.36667 0.73333,0.73333 1.1,1.1c0.36667,0.33333 0.71667,0.68333 1.05,1.05c0.36667,0.36667 0.73333,0.71667 1.1,1.05c0.33333,0.36667 0.68333,0.73333 1.05,1.1c0.36667,0.33333 0.73333,0.68333 1.1,1.05c0.33333,0.36667 0.68333,0.73333 1.05,1.1c0.23333,0.33333 0.46667,0.68333 0.7,1.05c0.23333,0.36667 0.48333,0.71667 0.75,1.05c0.1,0.36667 0.21667,0.73333 0.35,1.1c0.23333,0.36667 0.46667,0.71667 0.7,1.05c0.13333,0.36667 0.25,0.73333 0.35,1.1c0.13333,0.33333 0.25,0.68333 0.35,1.05c0,0.36667 0,0.73333 0,1.1c0.23333,0.33333 0.48333,0.68333 0.75,1.05c0.1,0.36667 0.21667,0.71667 0.35,1.05c0.1,0.36667 0.21667,0.73333 0.35,1.1c0,0.36667 0,0.71667 0,1.05c0,0.36667 0,0.73333 0,1.1c0,0.33333 0,0.68333 0,1.05c0,0.36667 0,0.73333 0,1.1c0,0.33333 0,0.68333 0,1.05c0,0.23333 0,0.46667 0,0.7c0.36667,-0.1 0.71667,-0.21667 1.05,-0.35c0.36667,-0.36667 0.73333,-0.71667 1.1,-1.05c0.23333,-0.36667 0.46667,-0.73333 0.7,-1.1c0.13333,-0.33333 0.25,-0.68333 0.35,-1.05c0.23333,-0.36667 0.46667,-0.73333 0.7,-1.1c0.36667,-0.33333 0.73333,-0.68333 1.1,-1.05c0.23333,-0.36667 0.46667,-0.71667 0.7,-1.05c0.13333,-0.36667 0.25,-0.73333 0.35,-1.1c0.23333,-0.36667 0.48333,-0.71667 0.75,-1.05c0.33333,-0.36667 0.68333,-0.73333 1.05,-1.1c0.36667,-0.33333 0.71667,-0.68333 1.05,-1.05c0.26667,-0.36667 0.51667,-0.73333 0.75,-1.1c0.1,-0.33333 0.21667,-0.68333 0.35,-1.05c0.23333,-0.36667 0.46667,-0.71667 0.7,-1.05c0.36667,-0.36667 0.73333,-0.73333 1.1,-1.1c0.33333,-0.36667 0.68333,-0.71667 1.05,-1.05c0.36667,-0.23333 0.71667,-0.48333 1.05,-0.75c0.6,-0.1 1.2,-0.21667 1.8,-0.35c1.43333,0 2.86667,0 4.3,0c0.7,0.23333 1.41667,0.48333 2.15,0.75c0.33333,0.23333 0.68333,0.46667 1.05,0.7c0.6,0.23333 1.2,0.46667 1.8,0.7c0.36667,0.23333 0.71667,0.46667 1.05,0.7c0.6,0.26667 1.2,0.51667 1.8,0.75c0.46667,0.33333 0.95,0.68333 1.45,1.05c0.33333,0.36667 0.68333,0.73333 1.05,1.1c0.36667,0.33333 0.71667,0.68333 1.05,1.05c0.73333,0.36667 1.45,0.71667 2.15,1.05c0.36667,0.36667 0.73333,0.73333 1.1,1.1c0.23333,0.36667 0.46667,0.71667 0.7,1.05c0.13333,0.36667 0.25,0.73333 0.35,1.1c0.36667,0.33333 0.73333,0.68333 1.1,1.05c0.23333,0.23333 0.46667,0.46667 0.7,0.7c0.6,0.26667 1.2,0.51667 1.8,0.75c0.33333,0.33333 0.68333,0.68333 1.05,1.05c0.23333,0.36667 0.46667,0.73333 0.7,1.1c0.6,0.33333 1.2,0.68333 1.8,1.05c0.23333,0.36667 0.46667,0.71667 0.7,1.05c0.36667,0.36667 0.73333,0.73333 1.1,1.1c0.46667,0.36667 0.93333,0.71667 1.4,1.05c0.13333,0.36667 0.25,0.73333 0.35,1.1c0.26667,0.33333 0.51667,0.68333 0.75,1.05c0,0.36667 0,0.73333 0,1.1c0.1,0.33333 0.21667,0.68333 0.35,1.05c0.36667,0.36667 0.71667,0.71667 1.05,1.05c0.23333,0.36667 0.48333,0.73333 0.75,1.1c0.1,0.36667 0.21667,0.71667 0.35,1.05c0.1,0.36667 0.21667,0.73333 0.35,1.1c0,0.33333 0,0.68333 0,1.05c0.23333,0.36667 0.46667,0.73333 0.7,1.1c0.13333,0.33333 0.25,0.68333 0.35,1.05c0.13333,0.36667 0.25,0.71667 0.35,1.05c0,0.36667 0,0.73333 0,1.1c0,0.36667 0,0.71667 0,1.05c0.13333,0.36667 0.26667,0.73333 0.4,1.1c0.23333,0.33333 0.46667,0.68333 0.7,1.05c0.1,0.36667 0.21667,0.73333 0.35,1.1c0,0.33333 0,0.68333 0,1.05c0,0.36667 0,0.71667 0,1.05c0,0.36667 0,0.73333 0,1.1c0,0.7 0,1.41667 0,2.15c0,0.33333 0,0.68333 0,1.05c0,0.73333 0,1.45 0,2.15c0,0.7 0,1.41667 0,2.15c0,0.7 0,1.41667 0,2.15c0,0.7 0,1.41667 0,2.15c-0.13333,0.33333 -0.25,0.68333 -0.35,1.05c-0.23333,0.36667 -0.46667,0.71667 -0.7,1.05c-0.13333,0.36667 -0.26667,0.73333 -0.4,1.1c0,0.36667 0,0.71667 0,1.05c-0.1,0.36667 -0.21667,0.73333 -0.35,1.1c-0.23333,0.33333 -0.46667,0.68333 -0.7,1.05c-0.13333,0.36667 -0.25,0.73333 -0.35,1.1c-0.23333,0.33333 -0.46667,0.68333 -0.7,1.05c-0.13333,0.36667 -0.26667,0.71667 -0.4,1.05c-0.33333,0.36667 -0.68333,0.73333 -1.05,1.1c-0.23333,0.33333 -0.46667,0.68333 -0.7,1.05c-0.23333,0.36667 -0.48333,0.73333 -0.75,1.1c-0.1,0.33333 -0.21667,0.68333 -0.35,1.05c-0.23333,0.36667 -0.46667,0.71667 -0.7,1.05c-0.13333,0.36667 -0.25,0.73333 -0.35,1.1c-0.23333,0.36667 -0.46667,0.71667 -0.7,1.05c-0.13333,0.36667 -0.26667,0.73333 -0.4,1.1c-0.23333,0.33333 -0.46667,0.68333 -0.7,1.05c-0.23333,0.36667 -0.46667,0.73333 -0.7,1.1c-0.36667,0.33333 -0.73333,0.68333 -1.1,1.05c-0.33333,0.36667 -0.68333,0.71667 -1.05,1.05c-0.36667,0.36667 -0.71667,0.73333 -1.05,1.1c-0.5,0.36667 -0.98333,0.71667 -1.45,1.05c-0.7,0.36667 -1.41667,0.73333 -2.15,1.1c-0.1,0.33333 -0.21667,0.68333 -0.35,1.05c-0.23333,0.36667 -0.46667,0.73333 -0.7,1.1c-0.36667,0.33333 -0.73333,0.68333 -1.1,1.05c-0.7,0.36667 -1.41667,0.71667 -2.15,1.05c-0.33333,0.36667 -0.68333,0.73333 -1.05,1.1c-0.36667,0.36667 -0.71667,0.71667 -1.05,1.05c-0.36667,0.36667 -0.73333,0.73333 -1.1,1.1c-0.36667,0.33333 -0.71667,0.68333 -1.05,1.05c-0.36667,0.23333 -0.73333,0.46667 -1.1,0.7c-0.6,0.26667 -1.18333,0.51667 -1.75,0.75c-0.36667,0.33333 -0.73333,0.68333 -1.1,1.05c-0.36667,0.36667 -0.71667,0.73333 -1.05,1.1c-0.36667,0.33333 -0.73333,0.68333 -1.1,1.05c-0.33333,0.36667 -0.68333,0.71667 -1.05,1.05c-0.36667,0.36667 -0.73333,0.73333 -1.1,1.1c-0.23333,0.23333 -0.46667,0.46667 -0.7,0.7c-0.23333,0.13333 -0.46667,0.25 -0.7,0.35c-0.6,0.23333 -1.2,0.48333 -1.8,0.75c0,0.33333 0,0.68333 0,1.05c0.03333,1.06667 0.03333,2.13333 0,3.2c0,1.8 0,3.58333 0,5.35c0,2.16667 0,4.31667 0,6.45c0,2.5 0,5 0,7.5c0,2.86667 0,5.71667 0,8.55c0,2.16667 0,4.31667 0,6.45c-0.1,0.36667 -0.21667,0.71667 -0.35,1.05c-0.23333,0.36667 -0.46667,0.73333 -0.7,1.1c-0.13333,0.33333 -0.25,0.68333 -0.35,1.05c0,0.36667 0,0.73333 0,1.1c0,0.33333 0,0.68333 0,1.05c0,0.36667 0,0.71667 0,1.05c0,0.36667 0,0.73333 0,1.1c-0.26667,0.36667 -0.51667,0.71667 -0.75,1.05c-0.1,0.36667 -0.21667,0.73333 -0.35,1.1c-0.36667,0.33333 -0.71667,0.68333 -1.05,1.05c-0.5,0.36667 -0.98333,0.73333 -1.45,1.1c-0.7,0.23333 -1.41667,0.46667 -2.15,0.7c-4.5,0.23333 -9.01667,0.46667 -13.55,0.7c-0.73333,0.23333 -1.45,0.46667 -2.15,0.7c-5.7,0 -11.41667,0 -17.15,0c-0.83333,-0.23333 -1.66667,-0.46667 -2.5,-0.7c-2.96667,-0.23333 -5.93333,-0.46667 -8.9,-0.7c-0.83333,-0.23333 -1.66667,-0.46667 -2.5,-0.7c-0.36667,-0.36667 -0.73333,-0.73333 -1.1,-1.1c-0.33333,-0.36667 -0.68333,-0.71667 -1.05,-1.05c-0.23333,-0.13333 -0.46667,-0.25 -0.7,-0.35c-0.6,0.1 -1.2,0.21667 -1.8,0.35c-2.4,0 -4.78333,0 -7.15,0c-0.83333,-0.23333 -1.66667,-0.48333 -2.5,-0.75c-1.3,0 -2.61667,0 -3.95,0c-0.7,0.26667 -1.4,0.51667 -2.1,0.75c-6.66667,0 -13.33333,0 -20,0c-0.83333,-0.23333 -1.66667,-0.48333 -2.5,-0.75c-0.26667,-0.23333 -0.51667,-0.46667 -0.75,-0.7c-0.7,-0.23333 -1.4,-0.46667 -2.1,-0.7c-0.36667,-0.36667 -0.73333,-0.73333 -1.1,-1.1c-0.36667,-0.23333 -0.71667,-0.46667 -1.05,-0.7c-0.23333,0.36667 -0.48333,0.73333 -0.75,1.1c-0.23333,0.23333 -0.46667,0.46667 -0.7,0.7c-0.23333,0.1 -0.46667,0.21667 -0.7,0.35c-0.6,0.13333 -1.2,0.25 -1.8,0.35c-1.2,0.23333 -2.38333,0.5 -3.55,0.8c-0.73333,0.2 -1.46667,0.36667 -2.2,0.5c-2.66667,0.53333 -5.3,1.23333 -7.9,2.1c-2.56667,0.83333 -5.15,1.6 -7.75,2.3c-2.63333,0.26667 -5.26667,0.51667 -7.9,0.75c-0.7,0.23333 -1.4,0.46667 -2.1,0.7c-6.93333,0.23333 -13.85,0.46667 -20.75,0.7c-0.7,0.23333 -1.41667,0.48333 -2.15,0.75c-2.83333,0 -5.68333,0 -8.55,0c-0.83333,-0.26667 -1.66667,-0.51667 -2.5,-0.75c-2.03333,-0.23333 -4.05,-0.46667 -6.05,-0.7c-0.83333,-0.23333 -1.66667,-0.46667 -2.5,-0.7c-0.23333,-0.23333 -0.48333,-0.48333 -0.75,-0.75c-0.7,-0.23333 -1.4,-0.46667 -2.1,-0.7c-0.36667,-0.36667 -0.73333,-0.71667 -1.1,-1.05c-0.36667,-0.36667 -0.71667,-0.73333 -1.05,-1.1c-0.36667,-0.33333 -0.73333,-0.68333 -1.1,-1.05c-0.33333,-0.36667 -0.68333,-0.73333 -1.05,-1.1c-0.13333,-0.33333 -0.25,-0.68333 -0.35,-1.05c-0.13333,-0.36667 -0.25,-0.71667 -0.35,-1.05c-0.26667,-0.36667 -0.51667,-0.73333 -0.75,-1.1c-0.1,-0.36667 -0.21667,-0.71667 -0.35,-1.05c-0.23333,-0.36667 -0.46667,-0.73333 -0.7,-1.1c-0.36667,-0.33333 -0.73333,-0.68333 -1.1,-1.05c-0.23333,-0.36667 -0.46667,-0.73333 -0.7,-1.1c-0.1,0 -0.16667,0.03333 -0.2,0.1c-0.1,0.3 -0.15,0.63333 -0.15,1c0,0.36667 0,0.71667 0,1.05c0,0.36667 0,0.73333 0,1.1c-0.23333,0.33333 -0.46667,0.68333 -0.7,1.05c-0.13333,0.36667 -0.25,0.73333 -0.35,1.1c-0.13333,0.33333 -0.26667,0.68333 -0.4,1.05c0,0.36667 0,0.71667 0,1.05c0,0.36667 0,0.73333 0,1.1c-0.1,0.36667 -0.21667,0.71667 -0.35,1.05c-0.23333,0.36667 -0.46667,0.73333 -0.7,1.1c-0.23333,0.33333 -0.46667,0.68333 -0.7,1.05c-0.36667,0.36667 -0.73333,0.73333 -1.1,1.1c-0.33333,0.23333 -0.68333,0.46667 -1.05,0.7c-0.6,0.23333 -1.2,0.46667 -1.8,0.7c-0.36667,0.23333 -0.71667,0.46667 -1.05,0.7c-0.6,0.13333 -1.2,0.26667 -1.8,0.4c-5.23333,0 -10.46667,-0.03333 -15.7,-0.1c-7.16667,-0.06667 -14.31667,-0.16667 -21.45,-0.3c-0.83333,-0.23333 -1.66667,-0.46667 -2.5,-0.7c-0.23333,-0.36667 -0.46667,-0.71667 -0.7,-1.05c-0.46667,-0.36667 -0.95,-0.73333 -1.45,-1.1c-0.33333,-0.33333 -0.68333,-0.68333 -1.05,-1.05c-0.36667,-0.36667 -0.71667,-0.73333 -1.05,-1.1c-0.26667,-0.33333 -0.51667,-0.68333 -0.75,-1.05c-0.23333,-0.36667 -0.46667,-0.71667 -0.7,-1.05c-0.13333,-0.36667 -0.25,-0.73333 -0.35,-1.1c-0.23333,-0.36667 -0.46667,-0.71667 -0.7,-1.05c-0.13333,-0.36667 -0.26667,-0.73333 -0.4,-1.1c-0.23333,-0.33333 -0.46667,-0.68333 -0.7,-1.05c-0.23333,-0.36667 -0.46667,-0.73333 -0.7,-1.1c0,-0.33333 0,-0.68333 0,-1.05c-0.13333,-0.36667 -0.25,-0.71667 -0.35,-1.05c-0.23333,-0.36667 -0.48333,-0.73333 -0.75,-1.1c-0.1,-0.36667 -0.21667,-0.71667 -0.35,-1.05c-0.23333,-0.36667 -0.46667,-0.73333 -0.7,-1.1c-0.13333,-0.33333 -0.25,-0.68333 -0.35,-1.05c0,-0.36667 0,-0.71667 0,-1.05c-0.04544,-0.125 -0.09544,-0.25833 -0.15,-0.4c-0.06745,0.25833 -0.13411,0.50833 -0.2,0.75c-0.13333,0.33333 -0.25,0.68333 -0.35,1.05c0,0.36667 0,0.71667 0,1.05c0,0.36667 0,0.73333 0,1.1c-0.13333,0.36667 -0.26667,0.71667 -0.4,1.05c-0.23333,0.36667 -0.46667,0.73333 -0.7,1.1c-0.1,0.33333 -0.21667,0.68333 -0.35,1.05c0,0.36667 0,0.73333 0,1.1c-0.13333,0.33333 -0.25,0.68333 -0.35,1.05c-0.23333,0.36667 -0.46667,0.71667 -0.7,1.05c-0.13333,0.36667 -0.26667,0.73333 -0.4,1.1c0,0.36667 0,0.71667 0,1.05c-0.1,0.36667 -0.21667,0.73333 -0.35,1.1c-0.23333,0.33333 -0.46667,0.68333 -0.7,1.05c-0.36667,0.36667 -0.71667,0.73333 -1.05,1.1c-0.73333,0.33333 -1.45,0.7 -2.15,1.1c-0.36667,0.2 -0.73333,0.41667 -1.1,0.65c-0.6,0.13333 -1.2,0.23333 -1.8,0.3c-2.6,0.3 -5.21667,0.56667 -7.85,0.8c-0.7,0.23333 -1.4,0.46667 -2.1,0.7c-10.5,0 -20.98333,0 -31.45,0c-0.83333,-0.23333 -1.66667,-0.48333 -2.5,-0.75c-0.6,-0.2 -1.2,-0.4 -1.8,-0.6c-0.83333,-0.3 -1.66667,-0.56667 -2.5,-0.8c-0.33333,-0.36667 -0.68333,-0.71667 -1.05,-1.05c-0.36667,-0.36667 -0.71667,-0.73333 -1.05,-1.1c-0.36667,-0.33333 -0.73333,-0.68333 -1.1,-1.05c-0.36667,-0.36667 -0.71667,-0.73333 -1.05,-1.1c-0.36667,-0.33333 -0.73333,-0.68333 -1.1,-1.05c-0.33333,-0.23333 -0.68333,-0.46667 -1.05,-0.7c-0.23333,0.33333 -0.46667,0.68333 -0.7,1.05c-0.26667,0.36667 -0.51667,0.73333 -0.75,1.1c-0.1,0.33333 -0.21667,0.68333 -0.35,1.05c-0.23333,0.36667 -0.46667,0.71667 -0.7,1.05c-0.36667,0.36667 -0.73333,0.73333 -1.1,1.1c-0.33333,0.36667 -0.68333,0.71667 -1.05,1.05c-0.46667,0.36667 -0.95,0.73333 -1.45,1.1c-0.7,0.23333 -1.4,0.46667 -2.1,0.7c-3.1,0.23333 -6.2,0.46667 -9.3,0.7c-0.73333,0.23333 -1.45,0.48333 -2.15,0.75c-3.33333,0 -6.66667,0 -10,0c-0.83333,-0.26667 -1.66667,-0.51667 -2.5,-0.75c-3.46667,-0.23333 -6.91667,-0.46667 -10.35,-0.7c-0.83333,-0.23333 -1.66667,-0.46667 -2.5,-0.7c-1.56667,-0.23333 -3.11667,-0.48333 -4.65,-0.75c-8.1,-0.1 -16.2,-0.21667 -24.3,-0.35c-0.06042,-0.01693 -0.12708,-0.03359 -0.2,-0.05c-0.39922,0.13307 -0.79922,0.26641 -1.2,0.4c-2.63333,0.26667 -5.25,0.51667 -7.85,0.75c-0.73333,0.23333 -1.45,0.46667 -2.15,0.7c-6.43333,0.23333 -12.86667,0.46667 -19.3,0.7c-0.7,0.23333 -1.41667,0.48333 -2.15,0.75c-3.56667,0.23333 -7.13333,0.46667 -10.7,0.7c-0.7,0.23333 -1.41667,0.46667 -2.15,0.7c-1.43333,0 -2.85,0 -4.25,0c-0.83333,-0.23333 -1.66667,-0.46667 -2.5,-0.7c-0.26667,-0.23333 -0.51667,-0.46667 -0.75,-0.7c-0.7,-0.26667 -1.41667,-0.51667 -2.15,-0.75c-0.33333,-0.33333 -0.68333,-0.68333 -1.05,-1.05c-0.36667,-0.36667 -0.71667,-0.73333 -1.05,-1.1c-0.26667,-0.33333 -0.51667,-0.68333 -0.75,-1.05c-0.1,-0.36667 -0.21667,-0.71667 -0.35,-1.05c-0.23333,-0.36667 -0.46667,-0.73333 -0.7,-1.1c-0.23333,-0.36667 -0.46667,-0.71667 -0.7,-1.05c-0.13333,-0.36667 -0.26667,-0.73333 -0.4,-1.1c-0.23333,-0.33333 -0.46667,-0.68333 -0.7,-1.05c-0.1,-0.36667 -0.21667,-0.73333 -0.35,-1.1c0,-0.33333 0,-0.68333 0,-1.05c-0.13333,-0.36667 -0.25,-0.71667 -0.35,-1.05c-0.23333,-0.36667 -0.46667,-0.73333 -0.7,-1.1c-0.13333,-0.23333 -0.26667,-0.46667 -0.4,-0.7c0,0.36667 0,0.71667 0,1.05c0,0.36667 0,0.73333 0,1.1c0,0.33333 0,0.68333 0,1.05c0,0.36667 0,0.73333 0,1.1c0,0.33333 0,0.68333 0,1.05c0,0.36667 0,0.71667 0,1.05c-0.23333,0.36667 -0.46667,0.73333 -0.7,1.1c-0.1,0.36667 -0.21667,0.71667 -0.35,1.05c-0.36667,0.36667 -0.71667,0.73333 -1.05,1.1c-0.5,0.33333 -0.98333,0.68333 -1.45,1.05c-0.7,0.23333 -1.41667,0.46667 -2.15,0.7c-3.1,0.26667 -6.2,0.51667 -9.3,0.75c-0.7,0.23333 -1.4,0.46667 -2.1,0.7c-10,0 -20,0 -30,0c-0.83333,-0.23333 -1.66667,-0.46667 -2.5,-0.7c-0.36667,-0.36667 -0.73333,-0.73333 -1.1,-1.1c-0.36667,-0.33333 -0.71667,-0.68333 -1.05,-1.05c-0.36667,-0.36667 -0.73333,-0.73333 -1.1,-1.1c-0.33333,-0.33333 -0.68333,-0.68333 -1.05,-1.05c-0.13333,-0.36667 -0.25,-0.71667 -0.35,-1.05c-0.13333,-0.36667 -0.25,-0.73333 -0.35,-1.1c-0.23333,-0.36667 -0.48333,-0.71667 -0.75,-1.05c-0.1,-0.36667 -0.21667,-0.73333 -0.35,-1.1c0,-0.33333 0,-0.68333 0,-1.05c0,-0.36667 0,-0.73333 0,-1.1c-0.1,-0.33333 -0.21667,-0.68333 -0.35,-1.05c-0.23333,-0.36667 -0.46667,-0.71667 -0.7,-1.05c-0.23333,-0.26667 -0.46667,-0.51667 -0.7,-0.75c-0.26667,0.36667 -0.51667,0.73333 -0.75,1.1c-0.1,0.33333 -0.21667,0.68333 -0.35,1.05c0,0.36667 0,0.73333 0,1.1c0,0.33333 0,0.68333 0,1.05c-0.1,0.36667 -0.21667,0.71667 -0.35,1.05c-0.13333,0.36667 -0.25,0.73333 -0.35,1.1c-0.23333,0.36667 -0.46667,0.71667 -0.7,1.05c-0.36667,0.36667 -0.73333,0.73333 -1.1,1.1c-0.36667,0.33333 -0.71667,0.68333 -1.05,1.05c-0.5,0.36667 -0.98333,0.73333 -1.45,1.1c-0.7,0.33333 -1.4,0.7 -2.1,1.1c-0.36667,0.2 -0.73333,0.41667 -1.1,0.65c-0.6,0.23333 -1.2,0.48333 -1.8,0.75c-0.36667,0.23333 -0.71667,0.46667 -1.05,0.7c-0.6,0.23333 -1.2,0.46667 -1.8,0.7c-0.36667,0.23333 -0.71667,0.46667 -1.05,0.7c-0.6,0.13333 -1.2,0.26667 -1.8,0.4c-1.9,0.46667 -3.8,0.93333 -5.7,1.4c-1.93333,0.46667 -3.85,0.95 -5.75,1.45c-0.46667,0 -0.93333,0.01667 -1.4,0.05c-1.2,0.06667 -2.4,0.16667 -3.6,0.3c-0.7,0.23333 -1.41667,0.46667 -2.15,0.7c-2.13333,0.23333 -4.26667,0.46667 -6.4,0.7c-0.73333,0.26667 -1.45,0.51667 -2.15,0.75c-2.36667,0 -4.75,0 -7.15,0c-0.83333,-0.23333 -1.66667,-0.48333 -2.5,-0.75c-0.1,-0.23333 -0.21667,-0.46667 -0.35,-0.7c-0.83333,-0.23333 -1.66667,-0.46667 -2.5,-0.7c-0.23333,-0.36667 -0.46667,-0.73333 -0.7,-1.1c-0.23333,-0.33333 -0.48333,-0.68333 -0.75,-1.05c-0.1,-0.36667 -0.21667,-0.71667 -0.35,-1.05c-0.23333,-0.36667 -0.46667,-0.73333 -0.7,-1.1c-0.13333,-0.36667 -0.25,-0.71667 -0.35,-1.05c-0.23333,-0.36667 -0.46667,-0.73333 -0.7,-1.1c-0.26667,-0.33333 -0.51667,-0.68333 -0.75,-1.05c0,-0.36667 0,-0.73333 0,-1.1c0,-0.33333 0,-0.68333 0,-1.05c-0.23333,-0.36667 -0.46667,-0.71667 -0.7,-1.05c-0.23333,-0.36667 -0.46667,-0.73333 -0.7,-1.1c0,-0.36667 0,-0.71667 0,-1.05c0,-0.36667 0,-0.73333 0,-1.1c-0.23333,-0.33333 -0.46667,-0.68333 -0.7,-1.05c-0.26667,-0.36667 -0.51667,-0.73333 -0.75,-1.1c0,-0.33333 0,-0.68333 0,-1.05c0,-0.36667 0,-0.71667 0,-1.05c-0.23333,-0.36667 -0.46667,-0.73333 -0.7,-1.1c-0.23333,-0.36667 -0.46667,-0.71667 -0.7,-1.05c0,-0.36667 0,-0.73333 0,-1.1c0,-0.33333 0,-0.68333 0,-1.05c-0.23333,-0.36667 -0.48333,-0.71667 -0.75,-1.05c-0.23333,-0.36667 -0.46667,-0.73333 -0.7,-1.1c0,-0.36667 0,-0.71667 0,-1.05c0,-0.36667 0,-0.73333 0,-1.1c-0.23333,-0.33333 -0.46667,-0.68333 -0.7,-1.05c-0.23333,-0.36667 -0.46667,-0.73333 -0.7,-1.1c0,-0.33333 0,-0.68333 0,-1.05c0,-0.36667 0,-0.71667 0,-1.05c-0.26667,-0.36667 -0.51667,-0.73333 -0.75,-1.1c-0.23333,-0.36667 -0.46667,-0.71667 -0.7,-1.05c0,-0.36667 0,-0.73333 0,-1.1c0,-0.33333 0,-0.68333 0,-1.05c0,-0.36667 0,-0.73333 0,-1.1c0,-0.33333 0,-0.68333 0,-1.05c-0.13333,-0.36667 -0.25,-0.71667 -0.35,-1.05c-0.13333,-0.36667 -0.25,-0.73333 -0.35,-1.1c-0.23333,-0.36667 -0.48333,-0.71667 -0.75,-1.05c0,-0.36667 0,-0.73333 0,-1.1c0,-0.33333 0,-0.68333 0,-1.05c0,-0.36667 0,-0.73333 0,-1.1c0,-0.33333 0,-0.68333 0,-1.05c-0.1,-0.36667 -0.21667,-0.71667 -0.35,-1.05c-0.23333,-0.36667 -0.46667,-0.73333 -0.7,-1.1c-0.13333,-0.36667 -0.25,-0.71667 -0.35,-1.05c0,-0.36667 0,-0.73333 0,-1.1c0,-0.33333 0,-0.68333 0,-1.05c0,-0.36667 0,-0.73333 0,-1.1c0,-0.33333 0,-0.68333 0,-1.05c-0.23333,-0.36667 -0.46667,-0.71667 -0.7,-1.05c-0.26667,-0.36667 -0.51667,-0.73333 -0.75,-1.1c0,-0.36667 0,-0.71667 0,-1.05c0,-0.36667 0,-0.73333 0,-1.1c0.13333,-0.33333 0.25,-0.68333 0.35,-1.05c0,-0.36667 0,-0.73333 0,-1.1c0,-0.33333 0,-0.68333 0,-1.05c-0.23333,-0.36667 -0.46667,-0.71667 -0.7,-1.05c-0.23333,-0.36667 -0.46667,-0.73333 -0.7,-1.1c0,-0.36667 0,-0.71667 0,-1.05c0,-0.36667 0,-0.73333 0,-1.1c0,-0.33333 0,-0.68333 0,-1.05c0,-0.36667 0,-0.73333 0,-1.1c0,-0.33333 0,-0.68333 0,-1.05c-0.13333,-0.36667 -0.25,-0.71667 -0.35,-1.05c-0.23333,-0.36667 -0.48333,-0.73333 -0.75,-1.1c-0.1,-0.36667 -0.21667,-0.71667 -0.35,-1.05c0,-0.36667 0,-0.73333 0,-1.1c0,-0.33333 0,-0.68333 0,-1.05c0,-0.36667 0,-0.73333 0,-1.1c0,-0.7 0,-1.4 0,-2.1c0,-0.36667 0,-0.73333 0,-1.1c0,-0.7 0,-1.41667 0,-2.15c0,-0.33333 0,-0.68333 0,-1.05c-0.1,-0.36667 -0.21667,-0.73333 -0.35,-1.1c-0.23333,-0.33333 -0.46667,-0.68333 -0.7,-1.05c-0.13333,-0.36667 -0.25,-0.71667 -0.35,-1.05c0,-1.8 0,-3.6 0,-5.4c0,-2.13333 0,-4.26667 0,-6.4c0,-2.13333 0,-4.28333 0,-6.45c0,-2.13333 0,-4.26667 0,-6.4c0,-2.13333 0,-4.28333 0,-6.45c0.1,-0.33333 0.21667,-0.68333 0.35,-1.05c0,-1.8 0,-3.58333 0,-5.35c0,-2.16667 0,-4.31667 0,-6.45c0,-2.13333 0,-4.26667 0,-6.4c0,-2.16667 0,-4.31667 0,-6.45c0,-2.13333 0,-4.28333 0,-6.45c0.1,-0.33333 0.21667,-0.68333 0.35,-1.05c0.23333,-0.23333 0.46667,-0.46667 0.7,-0.7c0.23333,-0.13333 0.48333,-0.25 0.75,-0.35c0.46667,0 0.91667,-0.06667 1.35,-0.2c0.03333,0 0.05,-0.06667 0.05,-0.2c0.42982,0.19102 0.86315,0.37435 1.3,0.55c0.04648,-0.0513 0.09648,-0.1013 0.15,-0.15c0.6,-0.36667 1.18333,-0.75 1.75,-1.15c0.5,-0.33333 0.98333,-0.66667 1.45,-1c0.36667,-0.36667 0.71667,-0.73333 1.05,-1.1c0.36667,-0.23333 0.73333,-0.46667 1.1,-0.7c0.6,-0.13333 1.2,-0.23333 1.8,-0.3c2,-0.26667 4.01667,-0.51667 6.05,-0.75c0.83333,-0.26667 1.66667,-0.51667 2.5,-0.75c1.43333,-0.46667 2.86667,-0.9 4.3,-1.3z" fill="#000000"/><path d="M424.64234,309.34279c0.03333,1.13333 0.05,3 0.05,5.6c0.23333,4.86667 -1.21667,8.38333 -4.35,10.55c-2.46667,1.63333 -6.51667,2.7 -12.15,3.2c-7.16667,0.36667 -12.71667,0.76667 -16.65,1.2c-7.06667,0.76667 -13.01667,2.28333 -17.85,4.55c0.23333,0.6 0.85,1.83333 1.85,3.7c0.83333,1.56667 1.58333,2.85 2.25,3.85c0.9,-0.16667 4.01667,-1.03333 9.35,-2.6c5.6,-1.6 9.71667,-2.68333 12.35,-3.25c3.56667,-0.03333 7.1,-0.06667 10.6,-0.1c2.46667,0.3 4.85,3.7 7.15,10.2c1.7,5.3 2.58333,9.6 2.65,12.9c0,-0.23333 0.06667,-0.46667 0.2,-0.7c0.03333,0.53333 -0.16667,2.16667 -0.6,4.9c-1.43333,1.5 -2.3,2.31667 -2.6,2.45c-4.1,1.7 -15.4,3.68333 -33.9,5.95c1.16667,2.4 4.28333,7.46667 9.35,15.2c4.43333,7.3 6.68333,12.65 6.75,16.05c-0.03333,3.2 -2.41667,6.15 -7.15,8.85c-5.23333,2.83333 -11.73333,4.45 -19.5,4.85c-13.86667,0.66667 -22.95,-9.2 -27.25,-29.6c-1.4,-6.6 -2.2,-13.86667 -2.4,-21.8c0,-7.13333 -0.01667,-10.95 -0.05,-11.45c0,-15.36667 -0.13333,-26.31667 -0.4,-32.85c1.46667,-1.93333 1.9,-4.56667 1.3,-7.9c-0.76667,-3.6 -0.7,-6.08333 0.2,-7.45c1.53333,-2.66667 5.85,-4.91667 12.95,-6.75c8.4,-2.2 21.51667,-4.01667 39.35,-5.45c0,-0.26667 0.78333,-0.41667 2.35,-0.45c2.56667,-0.2 8.03333,-0.25 16.4,-0.15c4.83333,4.3 7.81667,8.18333 8.95,11.65c0.43333,1.36667 0.7,2.98333 0.8,4.85M510.34234,331.99279c0.13333,4.53333 -3.83333,10.7 -11.9,18.5c-8.16667,7.96667 -16.46667,13.55 -24.9,16.75c-0.13333,0.3 -0.21667,0.6 -0.25,0.9c6.66667,1.86667 14.9,7.16667 24.7,15.9c10.23333,9 15.36667,16.13333 15.4,21.4c-0.03333,1.8 -0.15,2.96667 -0.35,3.5c-0.43333,1.03333 -1.38333,1.78333 -2.85,2.25c-2.66667,0.9 -10.95,1.96667 -24.85,3.2c-4,0.1 -7.93333,0.18333 -11.8,0.25c-5.06667,-3.46667 -9.46667,-8.05 -13.2,-13.75c-1.96667,-3.2 -3.43333,-5.58333 -4.4,-7.15c-1.86667,-2.73333 -3.63333,-5.08333 -5.3,-7.05c0.03333,1.46667 0.71667,4.86667 2.05,10.2c1.23333,5.23333 1.85,8.7 1.85,10.4c0.03333,2.7 -1.5,4.68333 -4.6,5.95c-3.43333,1.3 -9.43333,2.1 -18,2.4c-8.66667,0.2 -13.83333,-1.06667 -15.5,-3.8c-0.6,-0.9 -0.78333,-1.91667 -0.55,-3.05c0.3,-0.96667 0.46667,-1.48333 0.5,-1.55c-0.1,-12.36667 0.76667,-23.33333 2.6,-32.9c0.4,-2.3 0.9,-4.58333 1.5,-6.85c0.03333,-0.06667 0.88333,-2.98333 2.55,-8.75c-0.03333,-0.1 -0.03333,-0.2 0,-0.3c1.66667,-6.06667 3.78333,-12.1 6.35,-18.1c0.23333,-0.76667 0.93333,-3.06667 2.1,-6.9c0.9,-3.13333 1.91667,-5.6 3.05,-7.4c3.53333,-5.76667 10.58333,-9.88333 21.15,-12.35c19.56667,-4.63333 34.41667,-3.5 44.55,3.4c3.43333,2.33333 6.1,5.18333 8,8.55c1.36667,2.43333 2.06667,4.55 2.1,6.35M464.64234,335.99279c-3.03333,1.16667 -6.05,4.4 -9.05,9.7c-0.03333,0.23333 -0.03333,0.51667 0,0.85c1.76667,-0.86667 5.38333,-2.25 10.85,-4.15c4.96667,-2 8.8,-3.93333 11.5,-5.8c-5.73333,-1.83333 -10.16667,-2.03333 -13.3,-0.6M577.64234,329.14279c-1.06667,5.16667 -1.58333,8.13333 -1.55,8.9c-0.03333,0.33333 0.35,1.86667 1.15,4.6c0.6,2.1 0.71667,3.73333 0.35,4.9c-1.5,3.5 -8.5,3.61667 -21,0.35c-3.46667,-0.06667 -6.88333,-0.08333 -10.25,-0.05c-1.33333,0.33333 -2.38333,0.61667 -3.15,0.85c-1.3,0.36667 -2.11667,0.76667 -2.45,1.2c0.3,0.46667 0.7,1.41667 1.2,2.85c0.36667,1.2 0.76667,2.01667 1.2,2.45c0.8,-0.43333 2.43333,-1.26667 4.9,-2.5c2.56667,-1.16667 5.33333,-1.73333 8.3,-1.7c3.03333,-0.03333 4.88333,1.95 5.55,5.95c0.3,2.06667 0.3,4.35 0,6.85c0,2.5 -0.06667,4.43333 -0.2,5.8c-0.46667,3.13333 -1.38333,5.23333 -2.75,6.3c-5.43333,0.13333 -10.85,0.33333 -16.25,0.6c0.53333,0.63333 1.21667,1.93333 2.05,3.9c0.76667,1.6 1.58333,2.76667 2.45,3.5c10.13333,0.1 20.28333,0.18333 30.45,0.25c3.53333,-0.93333 6.55,1.78333 9.05,8.15c1.8,4.66667 2.71667,8.4 2.75,11.2c-0.03333,1.9 -0.06667,3.06667 -0.1,3.5c-0.46667,1.5 -1.61667,2.71667 -3.45,3.65c-3.5,0.4 -5.86667,0.78333 -7.1,1.15c-12.43333,0 -24.86667,0.06667 -37.3,0.2c-1.36667,-0.46667 -2.78333,-0.75 -4.25,-0.85c-2.7,-0.33333 -7.13333,-0.51667 -13.3,-0.55c-3.83333,-6.8 -6.76667,-14.6 -8.8,-23.4c-1.93333,-8.1 -2.93333,-16.08333 -3,-23.95c-0.03333,-2.26667 0.86667,-8.9 2.7,-19.9c1.53333,-10.33333 2.51667,-15.85 2.95,-16.55c0.96667,-2.06667 2.95,-4.95 5.95,-8.65c2.73333,-3.6 4.96667,-6.1 6.7,-7.5c0.96667,-0.86667 4.05,-1.3 9.25,-1.3c5.2,-0.1 10.68333,0.23333 16.45,1c6.5,0.9 11.75,2.13333 15.75,3.7c4.66667,1.8 7.05,3.9 7.15,6.3c0.03333,0.6 -0.43333,3.53333 -1.4,8.8M646.14234,319.34279c0.73333,0.83333 1.16667,1.83333 1.3,3c0.03333,0.63333 -0.01667,1.58333 -0.15,2.85c0.1,5.63333 -0.06667,10.13333 -0.5,13.5c-0.86667,5.6 -2.53333,9.45 -5,11.55c-8.6,-0.06667 -13.55,-0.28333 -14.85,-0.65c-5.26667,-0.03333 -10.48333,-0.06667 -15.65,-0.1c-0.06667,0.93333 0.16667,2.15 0.7,3.65c0.7,2.06667 1.63333,3.11667 2.8,3.15c0.9,-0.03333 3.65,-0.46667 8.25,-1.3c4.5,-0.96667 7.25,-1.41667 8.25,-1.35c2.36667,-0.1 4.25,2.76667 5.65,8.6c0.7,2.86667 1.16667,5.83333 1.4,8.9c-0.06667,0.1 0,0.68333 0.2,1.75c-0.06667,1.06667 -0.53333,1.96667 -1.4,2.7c-2.63333,2.23333 -8.83333,3.03333 -18.6,2.4c0.3,0.6 0.76667,1.48333 1.4,2.65c0.53333,1.16667 0.93333,2.01667 1.2,2.55c0.16667,0.36667 1.7,0.66667 4.6,0.9c4.46667,0.26667 13.01667,0.35 25.65,0.25c1.36667,1.13333 2.35,3.35 2.95,6.65c0.43333,2.06667 0.66667,4.03333 0.7,5.9c-0.03333,0.9 0.3,2.4 1,4.5c0.3,2 -0.01667,3.63333 -0.95,4.9c-3,3.66667 -12.98333,5.5 -29.95,5.5c-9.6,-0.03333 -15.06667,-0.08333 -16.4,-0.15c-3.96667,-0.33333 -6.85,-1.36667 -8.65,-3.1c-1.86667,-1.76667 -3.43333,-5.03333 -4.7,-9.8c-0.73333,-2.33333 -2.3,-9.16667 -4.7,-20.5c-2.4,-11 -3.63333,-22.81667 -3.7,-35.45c-0.03333,-3.13333 0.3,-7.48333 1,-13.05c0.86667,-6.43333 1.8,-10.1 2.8,-11c0.7,-0.83333 1.6,-2.15 2.7,-3.95c0.53333,-1.06667 1.51667,-1.76667 2.95,-2.1c2.93333,-0.7 14.11667,-0.21667 33.55,1.45c8.66667,1.13333 14.05,2.86667 16.15,5.2M767.79234,351.69279c0,3.56667 -0.7,9.66667 -2.1,18.3c-0.83333,4.6 -1.81667,10.36667 -2.95,17.3c0,0.1 0,0.2 0,0.3c7.16667,-0.7 14.93333,-1.41667 23.3,-2.15c9.03333,-0.93333 14.41667,-1.56667 16.15,-1.9c1.9,0.03333 3.86667,0.05 5.9,0.05c1.23333,1.26667 2.21667,2.5 2.95,3.7c0.4,0.93333 0.61667,1.65 0.65,2.15c-0.06667,0.86667 -0.25,3.88333 -0.55,9.05c-0.46667,5.56667 -0.71667,9.83333 -0.75,12.8c-0.3,0.23333 -0.53333,0.5 -0.7,0.8c-0.5,0.4 -1.31667,0.6 -2.45,0.6c-1.3,-0.06667 -2.08333,-0.16667 -2.35,-0.3c-2.43333,0.16667 -10.91667,0.26667 -25.45,0.3c-12.03333,0 -23.6,0.6 -34.7,1.8c-8.9,1 -13.86667,1.53333 -14.9,1.6c-2.03333,-0.1 -3.26667,-3.78333 -3.7,-11.05c-0.1,-7.53333 -0.15,-11.35 -0.15,-11.45c-0.5,-9.3 -0.58333,-16.78333 -0.25,-22.45c0.36667,-6.53333 1.46667,-11.06667 3.3,-13.6c-0.86667,-0.66667 -1.36667,-1.16667 -1.5,-1.5c1.2,-1.83333 3.95,-3.18333 8.25,-4.05c2.56667,-0.6 7.35,-1.55 14.35,-2.85c8.13333,-2.33333 13.46667,-2.88333 16,-1.65c0.86667,0.43333 1.38333,1.11667 1.55,2.05c-0.03333,0.2 0,0.91667 0.1,2.15M762.89234,328.94279c-0.23333,1.03333 -0.71667,2 -1.45,2.9c-0.36667,2.1 -1.01667,3.86667 -1.95,5.3c-1.53333,2.53333 -4.11667,4.88333 -7.75,7.05c-6.2,3.43333 -19.38333,7.68333 -39.55,12.75c0.53333,2.13333 1.58333,8.51667 3.15,19.15c1.06667,8.5 1.76667,13.93333 2.1,16.3c-0.03333,0.1 -0.01667,0.25 0.05,0.45c0.9,4.8 1.65,9.71667 2.25,14.75c0,1.46667 -0.06667,2.51667 -0.2,3.15c-0.26667,1.03333 -0.9,1.83333 -1.9,2.4c-2.36667,1.33333 -7.9,1.98333 -16.6,1.95c-1.33333,-0.03333 -6.41667,-0.21667 -15.25,-0.55c-4.4,-0.26667 -8.73333,-0.46667 -13,-0.6c-2.03333,-1.43333 -3.41667,-4.75 -4.15,-9.95c-0.43333,-2.5 -0.63333,-5.33333 -0.6,-8.5c-0.1,-7.26667 0.85,-16.76667 2.85,-28.5c2.46667,-13.06667 4.11667,-22.23333 4.95,-27.5c0.06667,-0.23333 0.18333,-0.43333 0.35,-0.6c-3.43333,0.33333 -7.16667,1.33333 -11.2,3c-3.83333,1.56667 -6.86667,2.38333 -9.1,2.45c-1.3,-0.06667 -2.3,-0.13333 -3,-0.2c-0.26667,-0.06667 -0.55,-0.13333 -0.85,-0.2c-0.03333,-0.2 -0.11667,-0.45 -0.25,-0.75c-0.33333,-0.4 -0.46667,-1.13333 -0.4,-2.2c-0.1,-2.36667 0.66667,-6.4 2.3,-12.1c1.93333,-6.76667 2.96667,-10.6 3.1,-11.5c1.03333,-6.23333 1.9,-10.35 2.6,-12.35c1.8,-5.13333 4.51667,-8.03333 8.15,-8.7c-0.03333,0.1 0.18333,0.43333 0.65,1c0.23333,0.33333 0.4,0.78333 0.5,1.35c7.5,-1.86667 21.38333,-3.45 41.65,-4.75c19.96667,-0.96667 34.85,2.76667 44.65,11.2c3.46667,3.1 6.15,6.7 8.05,10.8c1.3,3.13333 1.25,7.46667 -0.15,13M726.74234,327.34279c-0.16667,-0.26667 -0.33333,-0.55 -0.5,-0.85c-13.86667,-1.26667 -21.4,-1.03333 -22.6,0.7c-0.36667,0.5 -0.23333,1.5 0.4,3c0.56667,1.66667 0.75,2.9 0.55,3.7c0.03333,1.53333 0.06667,3.05 0.1,4.55c7.03333,-1.43333 12.25,-2.85 15.65,-4.25c4.5,-1.96667 6.63333,-4.25 6.4,-6.85M840.69234,324.89279c1.66667,5.73333 3.66667,14.56667 6,26.5c0.2,0.9 2.28333,9.05 6.25,24.45c3.8,15.36667 5.73333,24.26667 5.8,26.7c0,1.86667 -0.05,2.91667 -0.15,3.15c-0.36667,0.8 -1.45,1.55 -3.25,2.25c-5.7,-0.26667 -11.71667,-0.28333 -18.05,-0.05c-6.4,0.1 -9.63333,0.15 -9.7,0.15c-3.2,-0.06667 -5.18333,-4.71667 -5.95,-13.95c-0.4,-10.4 -0.91667,-16.81667 -1.55,-19.25c0,-3.13333 -0.01667,-6.23333 -0.05,-9.3c-0.1,0 -0.2,0 -0.3,0c-1.23333,-0.06667 -2.45,-0.45 -3.65,-1.15c-1.7,-0.86667 -2.71667,-1.35 -3.05,-1.45c-1.9,0 -3.8,0 -5.7,0c-0.5,1.03333 -1.13333,2.86667 -1.9,5.5c-0.7,2.3 -1.28333,4.38333 -1.75,6.25c-0.06667,0.03333 -0.08333,0.06667 -0.05,0.1c0.4,0.76667 0.61667,1.36667 0.65,1.8c-0.06667,0.33333 -0.45,0.83333 -1.15,1.5c-0.3,0.2 -1.01667,0.73333 -2.15,1.6c-5.4,0.1 -10.68333,0.33333 -15.85,0.7c-4,0.2 -6.36667,0.33333 -7.1,0.4c-5.5,-0.1 -8.76667,-1.11667 -9.8,-3.05c-0.33333,-0.66667 -0.43333,-1.38333 -0.3,-2.15l0.3,-1.15c0,-5.4 4.43333,-17.66667 13.3,-36.8c5.33333,-11.33333 9.36667,-19.48333 12.1,-24.45c-0.06667,-0.26667 -0.08333,-0.5 -0.05,-0.7c-0.06667,-2.8 2.91667,-5.36667 8.95,-7.7c6.7,-2.6 15.36667,-3.98333 26,-4.15c5.26667,6.2 9.31667,14.28333 12.15,24.25M811.19234,335.34279c-1.23333,1.6 -2.28333,3.13333 -3.15,4.6c0.63333,0.1 1.26667,0.23333 1.9,0.4c2.03333,0.26667 5.15,0.4 9.35,0.4c-0.46667,-1.53333 -1.18333,-3.41667 -2.15,-5.65c-1.16667,-2.66667 -2.03333,-4.2 -2.6,-4.6c-1.56667,2.16667 -2.68333,3.78333 -3.35,4.85M921.29234,350.79279c-9.43333,11.43333 -17.61667,17.66667 -24.55,18.7c1.03333,3.16667 2.21667,7.36667 3.55,12.6c2.76667,11 4.15,19 4.15,24c0,2.7 -0.06667,4.28333 -0.2,4.75c-0.36667,1.46667 -1.46667,2.65 -3.3,3.55c-9.36667,-0.43333 -18.71667,-0.8 -28.05,-1.1c-3.86667,0.33333 -6.36667,-1.61667 -7.5,-5.85c-0.53333,-1.7 -0.76667,-4.78333 -0.7,-9.25c-0.06667,-3.23333 0.66667,-10.3 2.2,-21.2c1.43333,-10.33333 2.16667,-15.55 2.2,-15.65c-3.63333,-5.4 -7.23333,-11.28333 -10.8,-17.65c-6.86667,-11.86667 -10.53333,-21.4 -11,-28.6c-0.2,-1.06667 -0.3,-1.95 -0.3,-2.65c-0.03333,-1.46667 1.33333,-3.48333 4.1,-6.05c2.86667,-2.73333 6.03333,-4.83333 9.5,-6.3c4.06667,-1.83333 7.48333,-2.26667 10.25,-1.3c3.26667,1.06667 5.31667,4.1 6.15,9.1c0.46667,4.13333 1.91667,9.15 4.35,15.05c2.23333,5.7 4.68333,10.53333 7.35,14.5c1.76667,-2.43333 6.13333,-9.05 13.1,-19.85c6.56667,-9.73333 11.08333,-14.58333 13.55,-14.55c2.56667,0 6.73333,3.75 12.5,11.25c5.23333,6.93333 7.9,10.83333 8,11.7c-0.1,1.9 -1.5,5.25 -4.2,10.05c-2.96667,4.93333 -6.41667,9.85 -10.35,14.75z" fill="#ffffff"/></g></g></svg>