<svg version="1.1" xmlns="http://www.w3.org/2000/svg" xmlns:xlink="http://www.w3.org/1999/xlink" width="110.70343" height="97.1439" viewBox="0,0,110.70343,97.1439"><g transform="translate(-584.64828,-311.42805)"><g data-paper-data="{&quot;isPaintingLayer&quot;:true}" fill-rule="nonzero" stroke="none" stroke-width="1" stroke-linecap="butt" stroke-linejoin="miter" stroke-miterlimit="10" stroke-dasharray="" stroke-dashoffset="0" style="mix-blend-mode: normal"><path d="M658.12644,319.57195c3.86667,0.06667 7.46667,0.83333 10.8,2.3c6.9,2.73333 11.25,6.51667 13.05,11.35c1.4,3.93333 1.96667,8.2 1.7,12.8c-0.23333,4.13333 -1.15,8.35 -2.75,12.65c2.3,0 4.45,-1.06667 6.45,-3.2c1.13333,-1.23333 2.66667,-3.21667 4.6,-5.95l2.25,0.45c2.13333,8.76667 1.23333,15.63333 -2.7,20.6c-1.03333,1.26667 -2.53333,2.26667 -4.5,3c-2.36667,0.66667 -4.11667,1.16667 -5.25,1.5c0.03333,0.53333 0.3,2.01667 0.8,4.45c0.36667,1.83333 0.41667,3.33333 0.15,4.5c-0.43333,1.1 -1.21667,2.11667 -2.35,3.05c-0.76667,0.63333 -1.86667,1.35 -3.3,2.15c-5.06667,2.53333 -8.26667,4.08333 -9.6,4.65c-3.73333,1.56667 -7.15,2.51667 -10.25,2.85c-5.73333,0.6 -9.78333,0.95 -12.15,1.05c-4.53333,0.16667 -8.56667,-0.11667 -12.1,-0.85c-1.16667,-0.16667 -3.13333,-0.93333 -5.9,-2.3c-2.46667,-1.2 -4.5,-1.76667 -6.1,-1.7c-2.16667,0.7 -4.5,2.15 -7,4.35c-2.7,2.56667 -4.8,4.4 -6.3,5.5c-0.66667,0.5 -1.75,1.48333 -3.25,2.95c-1.33333,1.33333 -2.45,2.28333 -3.35,2.85c-1.43333,-0.03333 -2.51667,-0.81667 -3.25,-2.35c-0.26667,-0.6 -0.66667,-1.98333 -1.2,-4.15c-0.46667,-1.9 -0.31667,-3.98333 0.45,-6.25c0.4,-1.1 1.31667,-3 2.75,-5.7c-2.43333,-0.2 -4.61667,-0.8 -6.55,-1.8c-2.2,-1.1 -3.85,-2.6 -4.95,-4.5c-2.66667,-4.4 -3.88333,-9 -3.65,-13.8c0.53333,-0.76667 1.28333,-1.7 2.25,-2.8c0.96667,0.6 2.4,1.63333 4.3,3.1c1.7,1.13333 3.33333,1.63333 4.9,1.5c0.93333,0.06667 1.95,-0.06667 3.05,-0.4c0.53333,-0.16667 1.5,-0.55 2.9,-1.15c-2.43333,-2.46667 -4.23333,-4.35 -5.4,-5.65c-1.96667,-2.3 -3.26667,-4.51667 -3.9,-6.65c-0.93333,-4.23333 -0.41667,-8.43333 1.55,-12.6c1.93333,-4.06667 4.78333,-7.23333 8.55,-9.5c3.66667,-2.86667 7.86667,-4.58333 12.6,-5.15c4.76667,-0.6 9.26667,0.03333 13.5,1.9c-0.73333,-2.8 -2.68333,-5.18333 -5.85,-7.15c-3.96667,-1.93333 -6.86667,-3.35 -8.7,-4.25v-2.3c1.7,-1.46667 4.01667,-2.73333 6.95,-3.8c1.66667,-0.63333 4.18333,-1.48333 7.55,-2.55c0.76667,-0.2 2.05,-0.56667 3.85,-1.1c1.56667,-0.2 2.7,0.28333 3.4,1.45c0.93333,1.46667 1.48333,3.35 1.65,5.65c0.06667,1.33333 0.05,3.33333 -0.05,6l-0.1,0.95c2.13333,-0.9 5.3,-2.31667 9.5,-4.25c3.6,-1.2 7.25,-1.76667 10.95,-1.7M663.47644,325.47195c-3.43333,-1.06667 -7.25,-1.13333 -11.45,-0.2c-3.03333,0.66667 -6.68333,1.98333 -10.95,3.95c-1.73333,0.76667 -3.56667,2.21667 -5.5,4.35c-2.76667,3.03333 -4.38333,4.75 -4.85,5.15c-1.33333,0.3 -3.1,-0.11667 -5.3,-1.25c-2.36667,-1.26667 -4.15,-1.85 -5.35,-1.75c-5.9,-0.7 -12,1.66667 -18.3,7.1c-1.63333,1.5 -2.9,3.36667 -3.8,5.6c-0.83333,2.13333 -1.21667,4.35 -1.15,6.65c0.3,2.4 1.6,4.9 3.9,7.5c3.6,4.06667 5.5,6.23333 5.7,6.5c0.3,1.26667 -0.05,2.5 -1.05,3.7c-0.63333,0.73333 -1.7,1.61667 -3.2,2.65c-1.43333,0.96667 -3.28333,1.45 -5.55,1.45c-2.66667,-0.2 -4.63333,-0.35 -5.9,-0.45c0.7,1.8 1.23333,3.03333 1.6,3.7c0.73333,1.33333 1.61667,2.33333 2.65,3c1.16667,0.83333 2.78333,1.31667 4.85,1.45c2.93333,0.23333 4.65,0.41667 5.15,0.55c0.86667,0.7 1.4,1.58333 1.6,2.65c0.23333,1.16667 -0.06667,2.11667 -0.9,2.85c-2.36667,2.36667 -3.5,5.55 -3.4,9.55c3.5,-3.36667 6.41667,-5.93333 8.75,-7.7c3.36667,-2.63333 6.68333,-4.63333 9.95,-6c8.56667,5.9 20.26667,7.71667 35.1,5.45c3.03333,-0.36667 6.33333,-1.31667 9.9,-2.85c1.9,-0.8 4.98333,-2.33333 9.25,-4.6c0.7,-0.3 1.35,-0.78333 1.95,-1.45c0.36667,-0.43333 0.85,-1.11667 1.45,-2.05c-1.53333,-0.1 -2.68333,-0.16667 -3.45,-0.2c-1.36667,-0.1 -2.5,-0.23333 -3.4,-0.4c-0.96667,-0.66667 -1.36667,-2.06667 -1.2,-4.2c0.13333,-2.2 -0.2,-3.68333 -1,-4.45c-0.23333,1.06667 -0.45,2.56667 -0.65,4.5c-0.26667,2.13333 -0.46667,3.61667 -0.6,4.45c-0.2,1.2 -0.86667,2.1 -2,2.7c-1.13333,0.6 -2.2,0.53333 -3.2,-0.2c-1.73333,-1.1 -2.86667,-2.81667 -3.4,-5.15c-0.36667,-1.5 -0.51667,-3.63333 -0.45,-6.4c-1.56667,0.36667 -2.76667,0.5 -3.6,0.4c-1.23333,-0.16667 -2.16667,-0.83333 -2.8,-2c2.73333,-2.33333 6.03333,-3.58333 9.9,-3.75c3.63333,-0.13333 7.1,0.66667 10.4,2.4c0.56667,-0.46667 1.35,-1.25 2.35,-2.35c0.96667,-0.9 1.88333,-1.5 2.75,-1.8c0.9,1.36667 0.78333,2.71667 -0.35,4.05c-0.23333,0.3 -1.4,1.26667 -3.5,2.9c0.06667,2.26667 0.15,3.93333 0.25,5c0.26667,-0.4 0.83333,-1.28333 1.7,-2.65c0.7,-1.13333 1.3,-2.01667 1.8,-2.65c0.9,-0.93333 2.36667,-1.81667 4.4,-2.65c2.3,-0.93333 3.83333,-1.7 4.6,-2.3c0.86667,-0.83333 1.55,-1.98333 2.05,-3.45c0.1,-0.4 0.41667,-1.7 0.95,-3.9c-1.9,1.23333 -3.35,2.11667 -4.35,2.65c-1.73333,0.9 -3.35,1.21667 -4.85,0.95c-1.16667,-0.26667 -2.23333,-1.01667 -3.2,-2.25c-1,-1.53333 -1.76667,-2.65 -2.3,-3.35c-2.93333,3.83333 -4.65,5.98333 -5.15,6.45c-2.3,2.16667 -4.75,2.96667 -7.35,2.4c-0.7,-0.96667 -1.51667,-2.8 -2.45,-5.5c-0.86667,-2.46667 -1.78333,-4.26667 -2.75,-5.4c-1.56667,0.66667 -3.26667,1.93333 -5.1,3.8c-2.56667,2.5 -4.11667,3.96667 -4.65,4.4c-1.2,0.96667 -2.08333,1.7 -2.65,2.2c-1.03333,0.86667 -1.78333,1.7 -2.25,2.5c0.33333,0.16667 1.21667,0.53333 2.65,1.1c1.1,0.43333 1.98333,0.83333 2.65,1.2c0.26667,1 0.08333,1.75 -0.55,2.25c-0.46667,0.33333 -1.25,0.58333 -2.35,0.75c-0.1,1.4 -0.25,3.55 -0.45,6.45c-0.3,2.46667 -1,4.46667 -2.1,6c-1.13333,0.46667 -2.25,0.63333 -3.35,0.5c-1.3,-0.13333 -2.26667,-0.66667 -2.9,-1.6c-1.03333,-1.36667 -1.7,-3.15 -2,-5.35c-0.1,-0.83333 -0.16667,-2.78333 -0.2,-5.85c-3.53333,0.53333 -6.95,1.71667 -10.25,3.55c-1.36667,-0.8 -2.4,-1.38333 -3.1,-1.75c-1.23333,-0.66667 -2.33333,-1.15 -3.3,-1.45c-1.33333,0.4 -2.31667,0.65 -2.95,0.75c-1.13333,0.2 -1.9,-0.21667 -2.3,-1.25c0.8,-1.5 2.1,-3.06667 3.9,-4.7c1.03333,-0.93333 2.55,-2.31667 4.55,-4.15c0.83333,-0.8 3.08333,-3.21667 6.75,-7.25c2.73333,-3 5.18333,-5.21667 7.35,-6.65c1.63333,1.73333 2.68333,4.06667 3.15,7c0.2,1.23333 0.33333,3.85 0.4,7.85c2.3,-1.4 4.76667,-3.3 7.4,-5.7c0.16667,-0.1 2.43333,-2.25 6.8,-6.45c0.83333,-0.9 1.86667,-1.46667 3.1,-1.7c1.26667,-0.26667 2.43333,-0.11667 3.5,0.45c1.26667,0.86667 2.45,2.13333 3.55,3.8c0.33333,0.46667 1.21667,2 2.65,4.6c1.46667,-0.93333 3.25,-2.93333 5.35,-6c1.96667,-2.9 3.81667,-4.8 5.55,-5.7c1.23333,-5 0.93333,-9.68333 -0.9,-14.05c-1.1,-2.1 -2.86667,-3.93333 -5.3,-5.5c-1.73333,-1.16667 -4.05,-2.3 -6.95,-3.4M633.52644,315.52195c-5.06667,1.2 -8.78333,2.31667 -11.15,3.35l0.05,0.8c2.4,1.83333 4.18333,3.25 5.35,4.25c1.9,1.7 3.46667,3.36667 4.7,5c0.73333,-1.96667 1.16667,-4.16667 1.3,-6.6c0.06667,-1.83333 -0.01667,-4.1 -0.25,-6.8M633.77644,356.97195c-2.86667,3.1 -5.03333,5.41667 -6.5,6.95c-2.53333,2.63333 -4.83333,4.83333 -6.9,6.6l3.4,2.2c2.36667,-1.33333 6.08333,-2.78333 11.15,-4.35c-0.46667,-5.06667 -0.85,-8.86667 -1.15,-11.4z" fill="#000000"/><path d="M623.77644,372.72195l-3.4,-2.2c2.06667,-1.76667 4.36667,-3.96667 6.9,-6.6c1.46667,-1.53333 3.63333,-3.85 6.5,-6.95c0.3,2.53333 0.68333,6.33333 1.15,11.4c-5.06667,1.56667 -8.78333,3.01667 -11.15,4.35M633.77644,322.32195c-0.13333,2.43333 -0.56667,4.63333 -1.3,6.6c-1.23333,-1.63333 -2.8,-3.3 -4.7,-5c-1.16667,-1 -2.95,-2.41667 -5.35,-4.25l-0.05,-0.8c2.36667,-1.03333 6.08333,-2.15 11.15,-3.35c0.23333,2.7 0.31667,4.96667 0.25,6.8M675.72644,334.37195c1.83333,4.36667 2.13333,9.05 0.9,14.05c-1.73333,0.9 -3.58333,2.8 -5.55,5.7c-2.1,3.06667 -3.88333,5.06667 -5.35,6c-1.43333,-2.6 -2.31667,-4.13333 -2.65,-4.6c-1.1,-1.66667 -2.28333,-2.93333 -3.55,-3.8c-1.06667,-0.56667 -2.23333,-0.71667 -3.5,-0.45c-1.23333,0.23333 -2.26667,0.8 -3.1,1.7c-4.36667,4.2 -6.63333,6.35 -6.8,6.45c-2.63333,2.4 -5.1,4.3 -7.4,5.7c-0.06667,-4 -0.2,-6.61667 -0.4,-7.85c-0.46667,-2.93333 -1.51667,-5.26667 -3.15,-7c-2.16667,1.43333 -4.61667,3.65 -7.35,6.65c-3.66667,4.03333 -5.91667,6.45 -6.75,7.25c-2,1.83333 -3.51667,3.21667 -4.55,4.15c-1.8,1.63333 -3.1,3.2 -3.9,4.7c0.4,1.03333 1.16667,1.45 2.3,1.25c0.63333,-0.1 1.61667,-0.35 2.95,-0.75c0.96667,0.3 2.06667,0.78333 3.3,1.45c0.7,0.36667 1.73333,0.95 3.1,1.75c3.3,-1.83333 6.71667,-3.01667 10.25,-3.55c0.03333,3.06667 0.1,5.01667 0.2,5.85c0.3,2.2 0.96667,3.98333 2,5.35c0.63333,0.93333 1.6,1.46667 2.9,1.6c1.1,0.13333 2.21667,-0.03333 3.35,-0.5c1.1,-1.53333 1.8,-3.53333 2.1,-6c0.2,-2.9 0.35,-5.05 0.45,-6.45c1.1,-0.16667 1.88333,-0.41667 2.35,-0.75c0.63333,-0.5 0.81667,-1.25 0.55,-2.25c-0.66667,-0.36667 -1.55,-0.76667 -2.65,-1.2c-1.43333,-0.56667 -2.31667,-0.93333 -2.65,-1.1c0.46667,-0.8 1.21667,-1.63333 2.25,-2.5c0.56667,-0.5 1.45,-1.23333 2.65,-2.2c0.53333,-0.43333 2.08333,-1.9 4.65,-4.4c1.83333,-1.86667 3.53333,-3.13333 5.1,-3.8c0.96667,1.13333 1.88333,2.93333 2.75,5.4c0.93333,2.7 1.75,4.53333 2.45,5.5c2.6,0.56667 5.05,-0.23333 7.35,-2.4c0.5,-0.46667 2.21667,-2.61667 5.15,-6.45c0.53333,0.7 1.3,1.81667 2.3,3.35c0.96667,1.23333 2.03333,1.98333 3.2,2.25c1.5,0.26667 3.11667,-0.05 4.85,-0.95c1,-0.53333 2.45,-1.41667 4.35,-2.65c-0.53333,2.2 -0.85,3.5 -0.95,3.9c-0.5,1.46667 -1.18333,2.61667 -2.05,3.45c-0.76667,0.6 -2.3,1.36667 -4.6,2.3c-2.03333,0.83333 -3.5,1.71667 -4.4,2.65c-0.5,0.63333 -1.1,1.51667 -1.8,2.65c-0.86667,1.36667 -1.43333,2.25 -1.7,2.65c-0.1,-1.06667 -0.18333,-2.73333 -0.25,-5c2.1,-1.63333 3.26667,-2.6 3.5,-2.9c1.13333,-1.33333 1.25,-2.68333 0.35,-4.05c-0.86667,0.3 -1.78333,0.9 -2.75,1.8c-1,1.1 -1.78333,1.88333 -2.35,2.35c-3.3,-1.73333 -6.76667,-2.53333 -10.4,-2.4c-3.86667,0.16667 -7.16667,1.41667 -9.9,3.75c0.63333,1.16667 1.56667,1.83333 2.8,2c0.83333,0.1 2.03333,-0.03333 3.6,-0.4c-0.06667,2.76667 0.08333,4.9 0.45,6.4c0.53333,2.33333 1.66667,4.05 3.4,5.15c1,0.73333 2.06667,0.8 3.2,0.2c1.13333,-0.6 1.8,-1.5 2,-2.7c0.13333,-0.83333 0.33333,-2.31667 0.6,-4.45c0.2,-1.93333 0.41667,-3.43333 0.65,-4.5c0.8,0.76667 1.13333,2.25 1,4.45c-0.16667,2.13333 0.23333,3.53333 1.2,4.2c0.9,0.16667 2.03333,0.3 3.4,0.4c0.76667,0.03333 1.91667,0.1 3.45,0.2c-0.6,0.93333 -1.08333,1.61667 -1.45,2.05c-0.6,0.66667 -1.25,1.15 -1.95,1.45c-4.26667,2.26667 -7.35,3.8 -9.25,4.6c-3.56667,1.53333 -6.86667,2.48333 -9.9,2.85c-14.83333,2.26667 -26.53333,0.45 -35.1,-5.45c-3.26667,1.36667 -6.58333,3.36667 -9.95,6c-2.33333,1.76667 -5.25,4.33333 -8.75,7.7c-0.1,-4 1.03333,-7.18333 3.4,-9.55c0.83333,-0.73333 1.13333,-1.68333 0.9,-2.85c-0.2,-1.06667 -0.73333,-1.95 -1.6,-2.65c-0.5,-0.13333 -2.21667,-0.31667 -5.15,-0.55c-2.06667,-0.13333 -3.68333,-0.61667 -4.85,-1.45c-1.03333,-0.66667 -1.91667,-1.66667 -2.65,-3c-0.36667,-0.66667 -0.9,-1.9 -1.6,-3.7c1.26667,0.1 3.23333,0.25 5.9,0.45c2.26667,0 4.11667,-0.48333 5.55,-1.45c1.5,-1.03333 2.56667,-1.91667 3.2,-2.65c1,-1.2 1.35,-2.43333 1.05,-3.7c-0.2,-0.26667 -2.1,-2.43333 -5.7,-6.5c-2.3,-2.6 -3.6,-5.1 -3.9,-7.5c-0.06667,-2.3 0.31667,-4.51667 1.15,-6.65c0.9,-2.23333 2.16667,-4.1 3.8,-5.6c6.3,-5.43333 12.4,-7.8 18.3,-7.1c1.2,-0.1 2.98333,0.48333 5.35,1.75c2.2,1.13333 3.96667,1.55 5.3,1.25c0.46667,-0.4 2.08333,-2.11667 4.85,-5.15c1.93333,-2.13333 3.76667,-3.58333 5.5,-4.35c4.26667,-1.96667 7.91667,-3.28333 10.95,-3.95c4.2,-0.93333 8.01667,-0.86667 11.45,0.2c2.9,1.1 5.21667,2.23333 6.95,3.4c2.43333,1.56667 4.2,3.4 5.3,5.5z" fill="#a5004d"/></g></g></svg>