<svg version="1.1" xmlns="http://www.w3.org/2000/svg" xmlns:xlink="http://www.w3.org/1999/xlink" width="793.85" height="181.05" viewBox="0,0,793.85,181.05"><g transform="translate(-242.6955,-272.6027)"><g data-paper-data="{&quot;isPaintingLayer&quot;:true}" fill-rule="nonzero" stroke="none" stroke-width="1" stroke-linecap="butt" stroke-linejoin="miter" stroke-miterlimit="10" stroke-dasharray="" stroke-dashoffset="0" style="mix-blend-mode: normal"><path d="M904.3955,280.4527c0.7,0.23333 1.41667,0.46667 2.15,0.7c0.7,0.26667 1.41667,0.51667 2.15,0.75c0.33333,0.23333 0.68333,0.46667 1.05,0.7c0.6,0.23333 1.2,0.46667 1.8,0.7c0.7,0.23333 1.41667,0.48333 2.15,0.75c0.7,0.23333 1.41667,0.46667 2.15,0.7c0.46667,0.36667 0.93333,0.71667 1.4,1.05c0.36667,0.36667 0.73333,0.73333 1.1,1.1c0.33333,0.33333 0.68333,0.68333 1.05,1.05c0.36667,0.36667 0.71667,0.73333 1.05,1.1c0.36667,0.33333 0.73333,0.68333 1.1,1.05c0.36667,0.36667 0.71667,0.71667 1.05,1.05c0.13333,0.36667 0.25,0.73333 0.35,1.1c0.26667,0.33333 0.51667,0.68333 0.75,1.05c0,0.36667 0,0.73333 0,1.1c0.1,0.33333 0.21667,0.68333 0.35,1.05c0.1,0.36667 0.21667,0.71667 0.35,1.05c0.15794,0.24818 0.30794,0.49818 0.45,0.75c0.09896,-0.25182 0.18229,-0.50182 0.25,-0.75c0.23333,-0.33333 0.48333,-0.68333 0.75,-1.05c0.1,-0.36667 0.21667,-0.71667 0.35,-1.05c0.23333,-0.36667 0.46667,-0.73333 0.7,-1.1c0.36667,-0.36667 0.71667,-0.71667 1.05,-1.05c0.26667,-0.36667 0.51667,-0.73333 0.75,-1.1c0,-0.33333 0,-0.68333 0,-1.05c0.23333,-0.36667 0.46667,-0.71667 0.7,-1.05c0.36667,-0.36667 0.71667,-0.73333 1.05,-1.1c0.36667,-0.36667 0.73333,-0.71667 1.1,-1.05c0.36667,-0.36667 0.71667,-0.73333 1.05,-1.1c0.36667,-0.33333 0.73333,-0.68333 1.1,-1.05c0.23333,-0.23333 0.46667,-0.46667 0.7,-0.7c0.23333,-0.13333 0.46667,-0.26667 0.7,-0.4c0.5,-0.1 0.98333,-0.21667 1.45,-0.35c1.9,-0.1 3.8,-0.18333 5.7,-0.25c1.9,-0.06667 3.8,-0.1 5.7,-0.1c0.73333,0.23333 1.45,0.46667 2.15,0.7c0.73333,0.26667 1.45,0.51667 2.15,0.75c0.73333,0.23333 1.45,0.46667 2.15,0.7c0.36667,0.36667 0.71667,0.71667 1.05,1.05c0.36667,0.26667 0.73333,0.51667 1.1,0.75c0.93333,0.1 1.88333,0.23333 2.85,0.4c0.6,0.06667 1.2,0.16667 1.8,0.3c0.23333,0 0.46667,0 0.7,0c0.6,-0.13333 1.2,-0.25 1.8,-0.35c0.56667,-0.23333 1.15,-0.48333 1.75,-0.75c0.83333,-0.33333 1.66667,-0.68333 2.5,-1.05c0.36667,-0.23333 0.73333,-0.46667 1.1,-0.7c0.6,-0.13333 1.18333,-0.25 1.75,-0.35c0.6,-0.23333 1.2,-0.48333 1.8,-0.75c0.36667,-0.33333 0.73333,-0.68333 1.1,-1.05c0.33333,-0.23333 0.68333,-0.46667 1.05,-0.7c0.6,-0.13333 1.2,-0.25 1.8,-0.35c0.6,-0.26667 1.18333,-0.51667 1.75,-0.75c0.83333,-0.33333 1.66667,-0.68333 2.5,-1.05c0.36667,-0.23333 0.73333,-0.46667 1.1,-0.7c0.6,-0.26667 1.2,-0.51667 1.8,-0.75c0.33333,-0.23333 0.68333,-0.46667 1.05,-0.7c0.6,-0.23333 1.2,-0.46667 1.8,-0.7c0.33333,-0.23333 0.68333,-0.48333 1.05,-0.75c0.6,-0.23333 1.2,-0.46667 1.8,-0.7c0.36667,-0.23333 0.71667,-0.46667 1.05,-0.7c0.6,-0.13333 1.2,-0.26667 1.8,-0.4c1.06667,-0.2 2.13333,-0.43333 3.2,-0.7c0.83333,-0.23333 1.66667,-0.46667 2.5,-0.7c2.86667,0 5.73333,-0.05 8.6,-0.15v-0.2c1.9,0 3.8,0 5.7,0c0.7,0.23333 1.41667,0.46667 2.15,0.7c0.7,0.23333 1.41667,0.48333 2.15,0.75c0.7,0.23333 1.41667,0.46667 2.15,0.7c0.46667,0.36667 0.93333,0.71667 1.4,1.05c0.23333,0.23333 0.46667,0.48333 0.7,0.75c0.13333,0.1 0.26667,0.18333 0.4,0.25c0.56667,0.3 1.15,0.56667 1.75,0.8c0.5,0.36667 0.98333,0.71667 1.45,1.05c0.36667,0.36667 0.71667,0.73333 1.05,1.1c0.13333,0.36667 0.25,0.71667 0.35,1.05c0.5,0.36667 0.98333,0.73333 1.45,1.1c0.36667,0.33333 0.71667,0.68333 1.05,1.05c0.23333,0.36667 0.48333,0.73333 0.75,1.1c0.1,0.33333 0.21667,0.68333 0.35,1.05c0.23333,0.36667 0.46667,0.71667 0.7,1.05c0.13333,0.36667 0.25,0.73333 0.35,1.1c0.23333,0.36667 0.46667,0.71667 0.7,1.05c0.13333,0.36667 0.26667,0.73333 0.4,1.1c0.23333,0.33333 0.46667,0.68333 0.7,1.05c0.1,0.36667 0.21667,0.73333 0.35,1.1c0.23333,0.33333 0.46667,0.68333 0.7,1.05c0.13333,0.36667 0.25,0.71667 0.35,1.05c0,0.36667 0,0.73333 0,1.1c0.13333,0.33333 0.26667,0.68333 0.4,1.05c0.23333,0.36667 0.46667,0.73333 0.7,1.1c0.1,0.33333 0.21667,0.68333 0.35,1.05c0,0.36667 0,0.71667 0,1.05c0,0.36667 0,0.73333 0,1.1c0,0.36667 0,0.71667 0,1.05c0,0.36667 0,0.73333 0,1.1c0,0.33333 0,0.68333 0,1.05c0,0.73333 0,1.45 0,2.15c0,0.36667 0,0.71667 0,1.05c0,0.36667 0,0.73333 0,1.1c0.13333,0.36667 0.25,0.71667 0.35,1.05c0.23333,0.36667 0.46667,0.73333 0.7,1.1c0.13333,0.33333 0.26667,0.68333 0.4,1.05c0,0.36667 0,0.73333 0,1.1c0,0.33333 0,0.68333 0,1.05c0,0.36667 0,0.71667 0,1.05c0,0.36667 0,0.73333 0,1.1c0,0.36667 0,0.71667 0,1.05c0,0.73333 0,1.45 0,2.15c0,0.36667 0,0.73333 0,1.1c0,0.33333 0,0.68333 0,1.05c-0.26667,0.36667 -0.51667,0.71667 -0.75,1.05c-0.1,0.36667 -0.21667,0.73333 -0.35,1.1c-0.23333,0.36667 -0.46667,0.71667 -0.7,1.05c-0.13333,0.36667 -0.25,0.73333 -0.35,1.1c-0.23333,0.33333 -0.48333,0.68333 -0.75,1.05c-0.1,0.36667 -0.21667,0.73333 -0.35,1.1c-0.23333,0.33333 -0.46667,0.68333 -0.7,1.05c-0.23333,0.36667 -0.46667,0.71667 -0.7,1.05c-0.36667,0.36667 -0.73333,0.73333 -1.1,1.1c-0.33333,0.36667 -0.68333,0.71667 -1.05,1.05c-0.36667,0.36667 -0.73333,0.73333 -1.1,1.1c-0.33333,0.33333 -0.68333,0.68333 -1.05,1.05c-0.36667,0.36667 -0.71667,0.73333 -1.05,1.1c-0.6,0.56667 -1.2,1.15 -1.8,1.75c-0.23333,0.13333 -0.48333,0.25 -0.75,0.35c-0.56667,0.26667 -1.15,0.51667 -1.75,0.75c-0.36667,0.33333 -0.71667,0.68333 -1.05,1.05c-0.21484,0.18802 -0.41484,0.37135 -0.6,0.55c0.18516,0.30469 0.38516,0.60469 0.6,0.9c0.1,0.33333 0.21667,0.68333 0.35,1.05c0.23333,0.36667 0.46667,0.73333 0.7,1.1c0,0.33333 0,0.68333 0,1.05c0,0.36667 0,0.71667 0,1.05c0,0.36667 0,0.73333 0,1.1c0.23333,0.36667 0.46667,0.71667 0.7,1.05c0.13333,0.36667 0.25,0.73333 0.35,1.1c0.13333,0.33333 0.26667,0.68333 0.4,1.05c0,0.36667 0,0.73333 0,1.1c0,0.33333 0,0.68333 0,1.05c0,0.36667 0,0.71667 0,1.05c0,0.36667 0,0.73333 0,1.1c0,0.36667 0,0.71667 0,1.05c0,0.36667 0,0.73333 0,1.1c0,0.33333 0,0.68333 0,1.05c0,0.36667 0,0.73333 0,1.1c0,0.33333 0,0.68333 0,1.05c0,0.36667 0,0.71667 0,1.05c-0.26667,0.36667 -0.51667,0.73333 -0.75,1.1c-0.1,0.33333 -0.21667,0.68333 -0.35,1.05c-0.1,0.36667 -0.21667,0.73333 -0.35,1.1c0,0.33333 0,0.68333 0,1.05c0,0.36667 0,0.71667 0,1.05c0,0.36667 0,0.73333 0,1.1c-0.13333,0.36667 -0.25,0.71667 -0.35,1.05c-0.13333,0.36667 -0.25,0.73333 -0.35,1.1c-0.23333,0.33333 -0.48333,0.68333 -0.75,1.05c0,0.36667 0,0.73333 0,1.1c-0.1,0.33333 -0.21667,0.68333 -0.35,1.05c-0.1,0.36667 -0.21667,0.71667 -0.35,1.05c-0.23333,0.36667 -0.46667,0.73333 -0.7,1.1c-0.36667,0.36667 -0.73333,0.71667 -1.1,1.05c-0.1,0.36667 -0.21667,0.73333 -0.35,1.1c0.36667,0.33333 0.73333,0.68333 1.1,1.05c0.23333,0.23333 0.46667,0.46667 0.7,0.7c0.6,0.26667 1.2,0.51667 1.8,0.75c0.46667,0.33333 0.93333,0.68333 1.4,1.05c0.36667,0.36667 0.73333,0.73333 1.1,1.1c0.33333,0.33333 0.68333,0.68333 1.05,1.05c0.36667,0.36667 0.73333,0.71667 1.1,1.05c0.33333,0.36667 0.68333,0.73333 1.05,1.1c0.36667,0.36667 0.71667,0.71667 1.05,1.05c0.36667,0.36667 0.73333,0.73333 1.1,1.1c0.23333,0.33333 0.46667,0.68333 0.7,1.05c0.13333,0.36667 0.25,0.73333 0.35,1.1c0.13333,0.33333 0.25,0.68333 0.35,1.05c0,0.36667 0,0.71667 0,1.05c0,0.36667 0,0.73333 0,1.1c0.13333,0.36667 0.25,0.71667 0.35,1.05c0.26667,0.36667 0.51667,0.73333 0.75,1.1c0.1,0.33333 0.21667,0.68333 0.35,1.05c0,0.36667 0,0.73333 0,1.1c0,0.33333 0,0.68333 0,1.05c0,0.36667 0,0.71667 0,1.05c0,0.36667 0,0.73333 0,1.1c0,0.36667 0,0.71667 0,1.05c0,0.36667 0,0.73333 0,1.1c0,0.33333 0,0.68333 0,1.05c-0.13333,0.36667 -0.25,0.73333 -0.35,1.1c-0.13333,0.33333 -0.25,0.68333 -0.35,1.05c-0.26667,0.36667 -0.51667,0.71667 -0.75,1.05c-0.1,0.36667 -0.21667,0.73333 -0.35,1.1c-0.23333,0.36667 -0.46667,0.71667 -0.7,1.05c-0.13333,0.36667 -0.25,0.73333 -0.35,1.1c0,0.33333 0,0.68333 0,1.05c-0.13333,0.36667 -0.25,0.73333 -0.35,1.1c-0.26667,0.33333 -0.51667,0.68333 -0.75,1.05c-0.1,0.36667 -0.21667,0.71667 -0.35,1.05c-0.23333,0.36667 -0.46667,0.73333 -0.7,1.1c-0.13333,0.36667 -0.25,0.71667 -0.35,1.05c-0.36667,0.36667 -0.73333,0.73333 -1.1,1.1c-0.23333,0.33333 -0.46667,0.68333 -0.7,1.05c-0.23333,0.36667 -0.46667,0.73333 -0.7,1.1c-0.13333,0.33333 -0.25,0.68333 -0.35,1.05c-0.36667,0.36667 -0.73333,0.71667 -1.1,1.05c-0.7,0.73333 -1.41667,1.45 -2.15,2.15c-0.7,0.73333 -1.4,1.45 -2.1,2.15c-0.73333,0.73333 -1.45,1.45 -2.15,2.15c-0.6,0.6 -1.2,1.2 -1.8,1.8c-0.23333,0.1 -0.48333,0.2 -0.75,0.3c-0.56667,0.26667 -1.15,0.51667 -1.75,0.75c-0.36667,0.36667 -0.71667,0.71667 -1.05,1.05c-0.26667,0.26667 -0.51667,0.51667 -0.75,0.75c-0.23333,0.1 -0.46667,0.2 -0.7,0.3c-0.6,0.26667 -1.2,0.51667 -1.8,0.75c-0.33333,0.23333 -0.68333,0.46667 -1.05,0.7c-0.6,0.13333 -1.2,0.28333 -1.8,0.45c-0.7,0.2 -1.41667,0.41667 -2.15,0.65c-0.7,0.36667 -1.4,0.73333 -2.1,1.1c-0.36667,0.2 -0.73333,0.43333 -1.1,0.7c-0.6,0.23333 -1.2,0.46667 -1.8,0.7c-0.33333,0.23333 -0.68333,0.46667 -1.05,0.7c-0.6,0.23333 -1.2,0.46667 -1.8,0.7c-0.36667,0.26667 -0.71667,0.51667 -1.05,0.75c-0.6,0.1 -1.2,0.23333 -1.8,0.4c-0.7,0.2 -1.41667,0.41667 -2.15,0.65c-0.7,0.23333 -1.41667,0.46667 -2.15,0.7c-2.6,0.26667 -5.21667,0.51667 -7.85,0.75c-0.7,0.23333 -1.41667,0.46667 -2.15,0.7c-3.8,0 -7.6,0 -11.4,0c-0.83333,-0.23333 -1.66667,-0.46667 -2.5,-0.7c-0.23333,-0.23333 -0.48333,-0.48333 -0.75,-0.75c-0.7,-0.23333 -1.4,-0.46667 -2.1,-0.7c-0.26667,-0.23333 -0.51667,-0.46667 -0.75,-0.7c-0.7,-0.23333 -1.4,-0.48333 -2.1,-0.75c-0.6,-0.23333 -1.21667,-0.45 -1.85,-0.65c-0.8,-0.26667 -1.61667,-0.51667 -2.45,-0.75c-0.23333,-0.23333 -0.46667,-0.46667 -0.7,-0.7c-0.36667,-0.13333 -0.73333,-0.25 -1.1,-0.35c-0.83333,-0.26667 -1.66667,-0.51667 -2.5,-0.75c-2.73333,0 -5.46667,0 -8.2,0c-0.83333,0.36667 -1.66667,0.73333 -2.5,1.1c-0.23333,0.23333 -0.46667,0.46667 -0.7,0.7c-0.6,0.23333 -1.2,0.46667 -1.8,0.7c-0.36667,0.36667 -0.73333,0.73333 -1.1,1.1c-0.33333,0.23333 -0.68333,0.48333 -1.05,0.75c-0.13333,0.1 -0.25,0.2 -0.35,0.3c-0.6,0.23333 -1.2,0.46667 -1.8,0.7c-0.36667,0.36667 -0.71667,0.73333 -1.05,1.1c-0.36667,0.23333 -0.71667,0.48333 -1.05,0.75c-0.13333,0.1 -0.26667,0.2 -0.4,0.3c-0.6,0.23333 -1.2,0.48333 -1.8,0.75c-0.33333,0.33333 -0.68333,0.68333 -1.05,1.05c-0.36667,0.23333 -0.71667,0.46667 -1.05,0.7c-0.13333,0.13333 -0.26667,0.23333 -0.4,0.3c-0.7,0.3 -1.4,0.56667 -2.1,0.8c-0.26667,0.23333 -0.51667,0.46667 -0.75,0.7c-0.6,0.13333 -1.18333,0.25 -1.75,0.35c-1.93333,0 -3.85,0 -5.75,0c-0.83333,-0.23333 -1.66667,-0.46667 -2.5,-0.7c-0.1,-0.23333 -0.21667,-0.46667 -0.35,-0.7c-0.83333,-0.26667 -1.66667,-0.51667 -2.5,-0.75c-0.23333,-0.23333 -0.46667,-0.46667 -0.7,-0.7c-0.73333,-0.23333 -1.45,-0.46667 -2.15,-0.7c-0.23333,-0.36667 -0.46667,-0.73333 -0.7,-1.1c-0.5,-0.33333 -0.98333,-0.68333 -1.45,-1.05c-0.36667,-0.36667 -0.71667,-0.73333 -1.05,-1.1c-0.36667,-0.33333 -0.73333,-0.68333 -1.1,-1.05c-0.23333,-0.36667 -0.46667,-0.71667 -0.7,-1.05c-0.46667,-0.36667 -0.95,-0.73333 -1.45,-1.1c-0.23333,-0.36667 -0.46667,-0.71667 -0.7,-1.05c-0.1,-0.36667 -0.21667,-0.73333 -0.35,-1.1c-0.13333,-0.33333 -0.25,-0.68333 -0.35,-1.05c-0.23333,-0.36667 -0.46667,-0.73333 -0.7,-1.1c-0.13333,-0.33333 -0.26667,-0.68333 -0.4,-1.05c-0.23333,-0.36667 -0.45,-0.73333 -0.65,-1.1c-0.13333,-0.23333 -0.26667,-0.46667 -0.4,-0.7c-0.6,0.13333 -1.2,0.25 -1.8,0.35c-0.33333,0.36667 -0.68333,0.73333 -1.05,1.1c-0.46667,0.36667 -0.95,0.71667 -1.45,1.05c-0.33333,0.36667 -0.68333,0.73333 -1.05,1.1c-0.36667,0.33333 -0.71667,0.68333 -1.05,1.05c-0.26667,0.23333 -0.51667,0.46667 -0.75,0.7c-0.6,0.13333 -1.18333,0.28333 -1.75,0.45c-0.73333,0.2 -1.45,0.43333 -2.15,0.7c-0.83333,0.33333 -1.66667,0.66667 -2.5,1c-0.23333,0.23333 -0.48333,0.48333 -0.75,0.75c-0.56667,0.1 -1.15,0.23333 -1.75,0.4c-0.73333,0.2 -1.45,0.41667 -2.15,0.65c-0.36667,0.36667 -0.73333,0.71667 -1.1,1.05c-0.23333,0.26667 -0.46667,0.51667 -0.7,0.75c-0.6,0.1 -1.18333,0.23333 -1.75,0.4c-0.73333,0.2 -1.45,0.41667 -2.15,0.65c-0.73333,0.23333 -1.46667,0.45 -2.2,0.65c-1.16667,0.3 -2.33333,0.58333 -3.5,0.85c-0.73333,0.2 -1.46667,0.41667 -2.2,0.65c-5.23333,0 -10.46667,0 -15.7,0c-0.83333,-0.23333 -1.66667,-0.45 -2.5,-0.65c-1.06667,-0.26667 -2.13333,-0.53333 -3.2,-0.8c-0.83333,-0.23333 -1.66667,-0.46667 -2.5,-0.7c-0.13333,-0.23333 -0.25,-0.46667 -0.35,-0.7c-0.83333,-0.23333 -1.66667,-0.46667 -2.5,-0.7c-0.23333,-0.36667 -0.48333,-0.73333 -0.75,-1.1c-0.33333,-0.23333 -0.68333,-0.46667 -1.05,-0.7c-0.13333,-0.13333 -0.26667,-0.23333 -0.4,-0.3c-0.7,-0.26667 -1.4,-0.53333 -2.1,-0.8c-0.23333,-0.33333 -0.46667,-0.68333 -0.7,-1.05c-0.23333,-0.36667 -0.48333,-0.71667 -0.75,-1.05c-0.33333,-0.36667 -0.68333,-0.73333 -1.05,-1.1c-0.36667,-0.36667 -0.71667,-0.71667 -1.05,-1.05c-0.13333,-0.36667 -0.26667,-0.73333 -0.4,-1.1c-0.1,-0.33333 -0.21667,-0.68333 -0.35,-1.05c-0.83333,-0.36667 -1.66667,-0.73333 -2.5,-1.1c-0.33333,-0.33333 -0.68333,-0.68333 -1.05,-1.05c-0.13333,-0.36667 -0.25,-0.71667 -0.35,-1.05c-0.13333,-0.36667 -0.25,-0.73333 -0.35,-1.1c-0.36667,-0.33333 -0.73333,-0.68333 -1.1,-1.05c-0.36667,-0.36667 -0.71667,-0.73333 -1.05,-1.1c-0.16276,-0.14805 -0.32943,-0.29805 -0.5,-0.45c-0.18034,0.06354 -0.36367,0.13021 -0.55,0.2c-0.6,0.2 -1.2,0.41667 -1.8,0.65c-0.36667,0.36667 -0.73333,0.71667 -1.1,1.05c-0.33333,0.23333 -0.68333,0.48333 -1.05,0.75c-0.6,0.1 -1.2,0.21667 -1.8,0.35c-1.9,0 -3.8,0 -5.7,0c-0.83333,-0.23333 -1.66667,-0.48333 -2.5,-0.75c-0.13333,0.26667 -0.25,0.51667 -0.35,0.75c-0.13333,0.33333 -0.25,0.68333 -0.35,1.05c-0.13333,0.36667 -0.26667,0.73333 -0.4,1.1c-0.23333,0.33333 -0.46667,0.68333 -0.7,1.05c0,0.36667 0,0.71667 0,1.05c-0.1,0.36667 -0.21667,0.73333 -0.35,1.1c-0.13333,0.36667 -0.25,0.71667 -0.35,1.05c-0.23333,0.36667 -0.46667,0.73333 -0.7,1.1c-0.13333,0.33333 -0.26667,0.68333 -0.4,1.05c-0.23333,0.36667 -0.46667,0.73333 -0.7,1.1c-0.23333,0.33333 -0.46667,0.68333 -0.7,1.05c-0.36667,0.36667 -0.73333,0.71667 -1.1,1.05c-0.33333,0.36667 -0.68333,0.73333 -1.05,1.1c-0.36667,0.36667 -0.71667,0.71667 -1.05,1.05c-0.5,0.36667 -0.98333,0.73333 -1.45,1.1c-0.7,0.33333 -1.4,0.7 -2.1,1.1c-0.4,0.2 -0.76667,0.41667 -1.1,0.65c-0.6,0.13333 -1.2,0.26667 -1.8,0.4c-5.7,-0.13333 -11.41667,-0.26667 -17.15,-0.4c-0.83333,-0.23333 -1.66667,-0.45 -2.5,-0.65c-1.06667,-0.26667 -2.13333,-0.53333 -3.2,-0.8c-0.83333,-0.2 -1.66667,-0.41667 -2.5,-0.65c-0.13333,-0.26667 -0.25,-0.51667 -0.35,-0.75c-0.83333,-0.23333 -1.66667,-0.48333 -2.5,-0.75c-0.6,-0.2 -1.2,-0.4 -1.8,-0.6c-0.83333,-0.26667 -1.66667,-0.53333 -2.5,-0.8c-0.23333,-0.33333 -0.46667,-0.68333 -0.7,-1.05c-0.5,-0.36667 -0.98333,-0.71667 -1.45,-1.05c-0.36667,-0.36667 -0.71667,-0.73333 -1.05,-1.1c-0.83333,-0.36667 -1.66667,-0.71667 -2.5,-1.05c-0.23333,-0.36667 -0.46667,-0.73333 -0.7,-1.1c-0.5,-0.33333 -0.98333,-0.68333 -1.45,-1.05c-0.36667,-0.36667 -0.71667,-0.73333 -1.05,-1.1c-0.36667,-0.33333 -0.73333,-0.68333 -1.1,-1.05c-0.36667,-0.36667 -0.71667,-0.71667 -1.05,-1.05c-0.36667,-0.36667 -0.73333,-0.73333 -1.1,-1.1c-0.23333,-0.36667 -0.46667,-0.71667 -0.7,-1.05c-0.46667,-0.36667 -0.95,-0.73333 -1.45,-1.1c-0.23333,-0.33333 -0.46667,-0.68333 -0.7,-1.05c-0.23333,-0.36667 -0.46667,-0.73333 -0.7,-1.1c0,-0.33333 0,-0.68333 0,-1.05c-0.23333,-0.36667 -0.46667,-0.71667 -0.7,-1.05c-0.13333,-0.36667 -0.26667,-0.73333 -0.4,-1.1c-0.1,-0.36667 -0.21667,-0.71667 -0.35,-1.05c-0.33333,-0.36667 -0.68333,-0.73333 -1.05,-1.1c-0.36667,-0.33333 -0.73333,-0.68333 -1.1,-1.05c-0.22227,-0.2444 -0.4556,-0.47773 -0.7,-0.7c-0.22227,0.22227 -0.4556,0.4556 -0.7,0.7c-0.36667,0.36667 -0.73333,0.71667 -1.1,1.05c-0.23333,0.36667 -0.46667,0.73333 -0.7,1.1c-0.1,0.33333 -0.21667,0.68333 -0.35,1.05c-0.36667,0.36667 -0.71667,0.73333 -1.05,1.1c-0.73333,0.33333 -1.45,0.68333 -2.15,1.05c-0.36667,0.36667 -0.73333,0.71667 -1.1,1.05c-0.33333,0.26667 -0.68333,0.51667 -1.05,0.75c-0.13333,0.1 -0.26667,0.18333 -0.4,0.25c-0.7,0.3 -1.4,0.56667 -2.1,0.8c-0.23333,0.23333 -0.46667,0.46667 -0.7,0.7c-0.6,0.13333 -1.2,0.28333 -1.8,0.45c-0.73333,0.2 -1.45,0.41667 -2.15,0.65c-0.7,0.23333 -1.41667,0.46667 -2.15,0.7c-2.36667,0 -4.75,0 -7.15,0c-0.83333,-0.23333 -1.66667,-0.46667 -2.5,-0.7c-0.1,-0.23333 -0.21667,-0.46667 -0.35,-0.7c0,0.23333 0,0.46667 0,0.7c-0.1,0.36667 -0.21667,0.71667 -0.35,1.05c-0.23333,0.36667 -0.46667,0.73333 -0.7,1.1c-0.13333,0.33333 -0.25,0.68333 -0.35,1.05c-0.26667,0.36667 -0.51667,0.73333 -0.75,1.1c-0.1,0.33333 -0.21667,0.68333 -0.35,1.05c-0.36667,0.36667 -0.71667,0.71667 -1.05,1.05c-0.23333,0.36667 -0.48333,0.73333 -0.75,1.1c-0.23333,0.36667 -0.46667,0.71667 -0.7,1.05c-0.1,0.36667 -0.21667,0.73333 -0.35,1.1c-0.36667,0.33333 -0.71667,0.68333 -1.05,1.05c-0.36667,0.36667 -0.73333,0.73333 -1.1,1.1c-0.36667,0.33333 -0.71667,0.68333 -1.05,1.05c-0.13333,0.36667 -0.25,0.71667 -0.35,1.05c-0.26667,0.36667 -0.51667,0.73333 -0.75,1.1c-0.33333,0.36667 -0.68333,0.71667 -1.05,1.05c-0.73333,0.36667 -1.45,0.73333 -2.15,1.1c-0.36667,0.33333 -0.71667,0.68333 -1.05,1.05c-0.26667,0.23333 -0.51667,0.46667 -0.75,0.7c-0.23333,0.13333 -0.46667,0.25 -0.7,0.35c-0.6,0.26667 -1.2,0.51667 -1.8,0.75c-0.33333,0.23333 -0.68333,0.46667 -1.05,0.7c-0.6,0.13333 -1.2,0.25 -1.8,0.35c-3.33333,0 -6.66667,0 -10,0c-2.36667,-0.46667 -4.73333,-0.96667 -7.1,-1.5c-2.76667,-0.66667 -5.5,-1.38333 -8.2,-2.15c-1.46667,-0.4 -2.91667,-0.85 -4.35,-1.35c-0.33333,-0.33333 -0.68333,-0.68333 -1.05,-1.05c-0.36667,-0.36667 -0.71667,-0.73333 -1.05,-1.1c-0.73333,-0.7 -1.45,-1.4 -2.15,-2.1c-1.06667,-1.06667 -2.15,-2.15 -3.25,-3.25c-0.7,-0.7 -1.4,-1.41667 -2.1,-2.15c-0.26667,-0.33333 -0.51667,-0.68333 -0.75,-1.05c-0.1,-0.36667 -0.21667,-0.71667 -0.35,-1.05c-0.23333,-0.36667 -0.46667,-0.73333 -0.7,-1.1c-0.36667,-0.36667 -0.73333,-0.71667 -1.1,-1.05c-0.33333,-0.36667 -0.68333,-0.73333 -1.05,-1.1c-0.23333,-0.33333 -0.46667,-0.68333 -0.7,-1.05c-0.13333,-0.36667 -0.25,-0.73333 -0.35,-1.1c-0.26667,-0.33333 -0.51667,-0.68333 -0.75,-1.05c-0.23333,-0.36667 -0.46667,-0.71667 -0.7,-1.05c-0.13333,-0.36667 -0.25,-0.73333 -0.35,-1.1c-0.23333,-0.36667 -0.46667,-0.71667 -0.7,-1.05c-0.13333,-0.36667 -0.26667,-0.73333 -0.4,-1.1c0,-0.33333 0,-0.68333 0,-1.05c-0.23333,-0.36667 -0.46667,-0.71667 -0.7,-1.05c-0.1,-0.36667 -0.21667,-0.73333 -0.35,-1.1c0,-0.36667 0,-0.71667 0,-1.05c-0.13333,-0.36667 -0.25,-0.73333 -0.35,-1.1c-0.23333,-0.33333 -0.46667,-0.68333 -0.7,-1.05c-0.13333,-0.36667 -0.26667,-0.73333 -0.4,-1.1c0,-0.33333 0,-0.68333 0,-1.05c0,-0.36667 0,-0.71667 0,-1.05c-0.1,-0.36667 -0.21667,-0.73333 -0.35,-1.1c-0.1,-0.36667 -0.21667,-0.71667 -0.35,-1.05c-0.23333,-0.36667 -0.46667,-0.73333 -0.7,-1.1c0,-0.33333 0,-0.68333 0,-1.05c0,-0.36667 0,-0.73333 0,-1.1c0,-0.33333 0,-0.68333 0,-1.05c-0.23333,-0.36667 -0.46667,-0.71667 -0.7,-1.05c-0.26667,-0.36667 -0.51667,-0.73333 -0.75,-1.1c0,-0.36667 0,-0.71667 0,-1.05c0,-0.36667 0,-0.73333 0,-1.1c0,-0.33333 0,-0.68333 0,-1.05c0,-0.36667 0,-0.73333 0,-1.1c-0.1,-0.33333 -0.21667,-0.68333 -0.35,-1.05c-0.1,-0.36667 -0.21667,-0.71667 -0.35,-1.05c-0.23333,-0.36667 -0.46667,-0.73333 -0.7,-1.1c0,-0.36667 0,-0.71667 0,-1.05c0,-0.36667 0,-0.73333 0,-1.1c0,-0.33333 0,-0.68333 0,-1.05c0,-0.36667 0,-0.73333 0,-1.1c-0.13333,-0.33333 -0.25,-0.68333 -0.35,-1.05c-0.26667,-0.36667 -0.51667,-0.71667 -0.75,-1.05c-0.1,-0.36667 -0.21667,-0.73333 -0.35,-1.1c0,-1.76667 0,-3.55 0,-5.35c0,-2.13333 0,-4.28333 0,-6.45c0,-1.76667 0,-3.55 0,-5.35c0,-1.76667 0,-3.55 0,-5.35c0,-1.76667 0,-3.55 0,-5.35c0,-1.76667 0,-3.55 0,-5.35c0.13333,-0.36667 0.25,-0.73333 0.35,-1.1c0.23333,-0.33333 0.48333,-0.68333 0.75,-1.05c0.1,-0.36667 0.21667,-0.71667 0.35,-1.05c0,-0.36667 0,-0.73333 0,-1.1c0,-0.33333 0,-0.68333 0,-1.05c0,-0.36667 0,-0.73333 0,-1.1c0,-0.33333 0,-0.68333 0,-1.05c0,-0.36667 0,-0.71667 0,-1.05c0.23333,-0.36667 0.46667,-0.73333 0.7,-1.1c0.13333,-0.36667 0.25,-0.71667 0.35,-1.05c0.13333,-0.36667 0.25,-0.73333 0.35,-1.1c0,-0.33333 0,-0.68333 0,-1.05c0,-0.36667 0,-0.73333 0,-1.1c0.13333,-0.33333 0.25,-0.68333 0.35,-1.05c0.26667,-0.36667 0.51667,-0.71667 0.75,-1.05c0.1,-0.36667 0.21667,-0.73333 0.35,-1.1c0,-0.36667 0,-0.71667 0,-1.05c0.1,-0.36667 0.21667,-0.73333 0.35,-1.1c0.23333,-0.33333 0.46667,-0.68333 0.7,-1.05c0.13333,-0.36667 0.25,-0.73333 0.35,-1.1c0,-0.33333 0,-0.68333 0,-1.05c0.13333,-0.36667 0.26667,-0.71667 0.4,-1.05c0.23333,-0.36667 0.46667,-0.73333 0.7,-1.1c0.1,-0.36667 0.21667,-0.71667 0.35,-1.05c0,-0.18333 0,-0.36667 0,-0.55c-0.11667,0.18333 -0.23333,0.36667 -0.35,0.55c-0.23333,0.33333 -0.46667,0.68333 -0.7,1.05c-0.26667,0.36667 -0.51667,0.73333 -0.75,1.1c-0.33333,0.33333 -0.68333,0.68333 -1.05,1.05c-0.23333,0.36667 -0.46667,0.71667 -0.7,1.05c-0.36667,0.36667 -0.73333,0.73333 -1.1,1.1c-0.23333,0.36667 -0.46667,0.71667 -0.7,1.05c-0.13333,0.36667 -0.25,0.73333 -0.35,1.1c-0.36667,0.33333 -0.73333,0.68333 -1.1,1.05c-0.33333,0.36667 -0.68333,0.73333 -1.05,1.1c-0.36667,0.33333 -0.73333,0.68333 -1.1,1.05c-0.23333,0.36667 -0.46667,0.71667 -0.7,1.05c-0.23333,0.36667 -0.46667,0.73333 -0.7,1.1c-0.36667,0.36667 -0.73333,0.71667 -1.1,1.05c-0.33333,0.36667 -0.68333,0.73333 -1.05,1.1c-0.36667,0.33333 -0.71667,0.68333 -1.05,1.05c-0.36667,0.36667 -0.73333,0.73333 -1.1,1.1c-0.36667,0.23333 -0.71667,0.46667 -1.05,0.7c-0.6,0.23333 -1.2,0.46667 -1.8,0.7c-0.13333,0.36667 -0.25,0.73333 -0.35,1.1c-0.23333,0.33333 -0.46667,0.68333 -0.7,1.05c-0.36667,0.36667 -0.73333,0.71667 -1.1,1.05c-0.7,0.36667 -1.41667,0.73333 -2.15,1.1c-0.33333,0.33333 -0.68333,0.68333 -1.05,1.05c-0.36667,0.36667 -0.73333,0.73333 -1.1,1.1c-0.46667,0.33333 -0.93333,0.68333 -1.4,1.05c-0.7,0.36667 -1.41667,0.71667 -2.15,1.05c-0.36667,0.36667 -0.71667,0.73333 -1.05,1.1c-0.36667,0.36667 -0.73333,0.71667 -1.1,1.05c-0.33333,0.36667 -0.68333,0.73333 -1.05,1.1c-0.36667,0.33333 -0.73333,0.68333 -1.1,1.05c-0.33333,0.36667 -0.68333,0.73333 -1.05,1.1c-0.23333,0.23333 -0.46667,0.46667 -0.7,0.7c-0.23333,0.1 -0.48333,0.21667 -0.75,0.35c-0.56667,0.23333 -1.15,0.46667 -1.75,0.7c-0.36667,0.36667 -0.73333,0.73333 -1.1,1.1c-0.33333,0.33333 -0.68333,0.68333 -1.05,1.05c0,0.36667 0,0.73333 0,1.1c0.1,0.33333 0.21667,0.68333 0.35,1.05c0.23333,0.36667 0.46667,0.71667 0.7,1.05c0.13333,0.36667 0.25,0.73333 0.35,1.1c0.26667,0.36667 0.51667,0.71667 0.75,1.05c0,0.36667 0,0.73333 0,1.1c0.1,0.33333 0.21667,0.68333 0.35,1.05c0.1,0.36667 0.21667,0.73333 0.35,1.1c0.23333,0.33333 0.46667,0.68333 0.7,1.05c0,0.36667 0,0.71667 0,1.05c0.13333,0.36667 0.25,0.73333 0.35,1.1c0.13333,0.36667 0.26667,0.71667 0.4,1.05c0.23333,0.36667 0.46667,0.73333 0.7,1.1c0,0.33333 0,0.68333 0,1.05c0.1,0.36667 0.21667,0.73333 0.35,1.1c0.13333,0.33333 0.25,0.68333 0.35,1.05c0.23333,0.36667 0.46667,0.71667 0.7,1.05c0.13333,0.36667 0.26667,0.73333 0.4,1.1c0.23333,0.36667 0.46667,0.71667 0.7,1.05c0.1,0.36667 0.21667,0.73333 0.35,1.1c0.23333,0.33333 0.46667,0.68333 0.7,1.05c0.13333,0.36667 0.25,0.73333 0.35,1.1c0.26667,0.33333 0.51667,0.68333 0.75,1.05c0.1,0.36667 0.21667,0.71667 0.35,1.05c0.23333,0.36667 0.46667,0.73333 0.7,1.1c0.13333,0.36667 0.25,0.71667 0.35,1.05c0.23333,0.36667 0.48333,0.73333 0.75,1.1c0.1,0.33333 0.21667,0.68333 0.35,1.05c0,0.36667 0,0.73333 0,1.1c0,0.33333 0,0.68333 0,1.05c0.1,0.36667 0.21667,0.71667 0.35,1.05c0.1,0.36667 0.21667,0.73333 0.35,1.1c0.23333,0.36667 0.46667,0.71667 0.7,1.05c0,0.36667 0,0.73333 0,1.1c0,0.33333 0,0.68333 0,1.05c0,0.36667 0,0.73333 0,1.1c0,0.33333 0,0.68333 0,1.05c0,1.06667 0,2.13333 0,3.2c0,0.36667 0,0.73333 0,1.1c0,0.7 0,1.41667 0,2.15c0,0.7 0,1.4 0,2.1c0,0.36667 0,0.73333 0,1.1c-0.1,0.36667 -0.21667,0.71667 -0.35,1.05c-0.23333,0.36667 -0.46667,0.73333 -0.7,1.1c-0.13333,0.33333 -0.25,0.68333 -0.35,1.05c-0.23333,0.36667 -0.48333,0.73333 -0.75,1.1c-0.1,0.33333 -0.21667,0.68333 -0.35,1.05c-0.23333,0.36667 -0.46667,0.71667 -0.7,1.05c-0.13333,0.36667 -0.25,0.73333 -0.35,1.1c-0.23333,0.33333 -0.46667,0.68333 -0.7,1.05c-0.13333,0.36667 -0.26667,0.73333 -0.4,1.1c-0.23333,0.33333 -0.46667,0.68333 -0.7,1.05c-0.1,0.36667 -0.21667,0.71667 -0.35,1.05c-0.23333,0.36667 -0.46667,0.73333 -0.7,1.1c-0.13333,0.36667 -0.25,0.71667 -0.35,1.05c-0.36667,0.36667 -0.73333,0.73333 -1.1,1.1c-0.36667,0.33333 -0.71667,0.68333 -1.05,1.05c-0.36667,0.36667 -0.73333,0.73333 -1.1,1.1c-0.33333,0.33333 -0.68333,0.68333 -1.05,1.05c-0.36667,0.36667 -0.73333,0.71667 -1.1,1.05c-0.7,0.73333 -1.4,1.45 -2.1,2.15c-0.6,0.36667 -1.2,0.73333 -1.8,1.1c-0.23333,0.23333 -0.46667,0.46667 -0.7,0.7c-0.73333,0.23333 -1.45,0.46667 -2.15,0.7c-0.36667,0.36667 -0.73333,0.73333 -1.1,1.1c-0.23333,0.23333 -0.46667,0.46667 -0.7,0.7c-0.13333,0.13333 -0.26667,0.21667 -0.4,0.25c-0.7,0.3 -1.4,0.56667 -2.1,0.8c-0.23333,0.26667 -0.46667,0.51667 -0.7,0.75c-0.73333,0.23333 -1.45,0.46667 -2.15,0.7c-0.36667,0.36667 -0.73333,0.71667 -1.1,1.05c-0.23333,0.26667 -0.46667,0.51667 -0.7,0.75c-0.1,0.1 -0.23333,0.18333 -0.4,0.25c-0.66667,0.3 -1.36667,0.56667 -2.1,0.8c-0.23333,0.23333 -0.46667,0.46667 -0.7,0.7c-0.6,0.13333 -1.2,0.26667 -1.8,0.4c-1.2,0.23333 -2.38333,0.5 -3.55,0.8c-0.73333,0.16667 -1.45,0.36667 -2.15,0.6c-5.73333,0 -11.45,0 -17.15,0c-0.83333,-0.23333 -1.66667,-0.48333 -2.5,-0.75c-0.6,-0.2 -1.2,-0.4 -1.8,-0.6c-0.83333,-0.3 -1.65,-0.58333 -2.45,-0.85c-0.63333,-0.2 -1.25,-0.4 -1.85,-0.6c-0.8,-0.26667 -1.61667,-0.51667 -2.45,-0.75c-0.36667,-0.36667 -0.73333,-0.73333 -1.1,-1.1c-0.23333,-0.23333 -0.46667,-0.46667 -0.7,-0.7c-0.13333,-0.13333 -0.26667,-0.21667 -0.4,-0.25c-0.7,-0.3 -1.4,-0.56667 -2.1,-0.8c-0.36667,-0.36667 -0.71667,-0.73333 -1.05,-1.1c-0.36667,-0.36667 -0.73333,-0.71667 -1.1,-1.05c-0.36667,-0.36667 -0.71667,-0.73333 -1.05,-1.1c-0.36667,-0.33333 -0.73333,-0.68333 -1.1,-1.05c-0.23333,-0.36667 -0.46667,-0.73333 -0.7,-1.1c-0.23333,-0.33333 -0.46667,-0.68333 -0.7,-1.05c-0.36667,-0.36667 -0.73333,-0.71667 -1.1,-1.05c0,-0.36667 0,-0.73333 0,-1.1c-0.23333,-0.36667 -0.46667,-0.71667 -0.7,-1.05c-0.11641,-0.18307 -0.23307,-0.36641 -0.35,-0.55c-0.58815,0.17201 -1.18815,0.35534 -1.8,0.55c-0.7,0.23333 -1.41667,0.46667 -2.15,0.7c-3.33333,0 -6.66667,0 -10,0c-0.83333,-0.23333 -1.66667,-0.46667 -2.5,-0.7c-1.53333,-0.23333 -3.06667,-0.53333 -4.6,-0.9c-1.43333,-0.36667 -2.86667,-0.76667 -4.3,-1.2c-0.83333,-0.26667 -1.66667,-0.51667 -2.5,-0.75c-0.5,-0.36667 -0.98333,-0.71667 -1.45,-1.05c-0.6,-0.4 -1.2,-0.76667 -1.8,-1.1c-0.83333,-0.36667 -1.66667,-0.71667 -2.5,-1.05c-0.56667,-0.26667 -1.16667,-0.5 -1.8,-0.7c-0.8,-0.26667 -1.61667,-0.51667 -2.45,-0.75c-0.13333,-0.23333 -0.25,-0.48333 -0.35,-0.75c-0.83333,-0.23333 -1.66667,-0.46667 -2.5,-0.7c-0.26667,-0.36667 -0.51667,-0.71667 -0.75,-1.05c-0.46667,-0.36667 -0.93333,-0.73333 -1.4,-1.1c-0.36667,-0.33333 -0.73333,-0.68333 -1.1,-1.05c-0.33333,-0.36667 -0.68333,-0.71667 -1.05,-1.05c-0.36667,-0.36667 -0.73333,-0.73333 -1.1,-1.1c-0.33333,-0.36667 -0.68333,-0.71667 -1.05,-1.05c-0.46667,-0.23333 -0.95,-0.48333 -1.45,-0.75c-0.1,0.36667 -0.21667,0.73333 -0.35,1.1c-0.23333,0.36667 -0.46667,0.71667 -0.7,1.05c-0.13333,0.36667 -0.25,0.73333 -0.35,1.1c0,0.33333 0,0.68333 0,1.05c-0.13333,0.36667 -0.25,0.71667 -0.35,1.05c-0.23333,0.36667 -0.48333,0.73333 -0.75,1.1c-0.1,0.36667 -0.21667,0.71667 -0.35,1.05c-0.23333,0.36667 -0.46667,0.73333 -0.7,1.1c-0.23333,0.33333 -0.46667,0.68333 -0.7,1.05c-0.13333,0.36667 -0.25,0.73333 -0.35,1.1c-0.13333,0.33333 -0.26667,0.68333 -0.4,1.05c-0.33333,0.36667 -0.68333,0.71667 -1.05,1.05c-0.36667,0.36667 -0.71667,0.73333 -1.05,1.1c-0.13333,0.36667 -0.26667,0.71667 -0.4,1.05c-0.1,0.36667 -0.21667,0.73333 -0.35,1.1c-0.33333,0.33333 -0.68333,0.68333 -1.05,1.05c-0.36667,0.36667 -0.71667,0.73333 -1.05,1.1c-0.26667,0.33333 -0.51667,0.68333 -0.75,1.05c-0.33333,0.36667 -0.68333,0.71667 -1.05,1.05c-0.46667,0.36667 -0.95,0.73333 -1.45,1.1c-0.33333,0.36667 -0.68333,0.71667 -1.05,1.05c-0.23333,0.23333 -0.46667,0.48333 -0.7,0.75c-0.73333,0.23333 -1.45,0.46667 -2.15,0.7c-0.36667,0.36667 -0.73333,0.71667 -1.1,1.05c-0.23333,0.23333 -0.46667,0.48333 -0.7,0.75c-0.13333,0.1 -0.26667,0.18333 -0.4,0.25c-0.56667,0.16667 -1.15,0.31667 -1.75,0.45c-4.26667,0 -8.55,0 -12.85,0c-0.83333,-0.23333 -1.66667,-0.46667 -2.5,-0.7c-0.23333,-0.36667 -0.46667,-0.73333 -0.7,-1.1c-0.5,-0.36667 -0.98333,-0.7 -1.45,-1c-0.6,-0.4 -1.2,-0.78333 -1.8,-1.15c-1.43333,-1.43333 -2.85,-2.85 -4.25,-4.25c-1.8,-1.8 -3.58333,-3.6 -5.35,-5.4c-1.8,-1.76667 -3.6,-3.55 -5.4,-5.35c-0.7,-0.7 -1.4,-1.41667 -2.1,-2.15c0,-0.33333 0,-0.68333 0,-1.05c-0.26667,-0.36667 -0.51667,-0.71667 -0.75,-1.05c-0.23333,-0.36667 -0.46667,-0.73333 -0.7,-1.1c0,-0.22565 0,-0.45898 0,-0.7c-0.83333,0.36667 -1.66667,0.71667 -2.5,1.05c-0.23333,0.26667 -0.46667,0.51667 -0.7,0.75c-0.6138,0.19531 -1.2138,0.37865 -1.8,0.55c-0.24297,0.18776 -0.4763,0.37109 -0.7,0.55c-0.11667,0.0875 -0.21667,0.17083 -0.3,0.25l-0.1,0.05c-0.11237,0.12331 -0.22904,0.23997 -0.35,0.35c-0.23333,0.23333 -0.46667,0.48333 -0.7,0.75c-0.1,0.1 -0.23333,0.18333 -0.4,0.25c-0.4112,0.12096 -0.82786,0.22096 -1.25,0.3c-0.05339,0.05339 -0.10339,0.10339 -0.15,0.15c-0.33333,0.23333 -0.68333,0.46667 -1.05,0.7c-0.13333,0.13333 -0.26667,0.23333 -0.4,0.3c-0.7,0.26667 -1.4,0.53333 -2.1,0.8c-0.23333,0.23333 -0.46667,0.46667 -0.7,0.7c-0.73333,0.23333 -1.45,0.46667 -2.15,0.7c-0.23333,0.23333 -0.46667,0.46667 -0.7,0.7c-0.6,0.13333 -1.2,0.26667 -1.8,0.4c-2.86667,0 -5.71667,0 -8.55,0c-0.83333,-0.26667 -1.66667,-0.53333 -2.5,-0.8c-0.6,-0.2 -1.21667,-0.4 -1.85,-0.6c-0.8,-0.26667 -1.61667,-0.51667 -2.45,-0.75c-0.23333,-0.23333 -0.46667,-0.48333 -0.7,-0.75c-0.73333,-0.23333 -1.45,-0.46667 -2.15,-0.7c-0.36667,-0.36667 -0.73333,-0.71667 -1.1,-1.05c-0.33333,-0.36667 -0.68333,-0.73333 -1.05,-1.1c-0.46667,-0.23333 -0.95,-0.46667 -1.45,-0.7c-0.1,0.36667 -0.21667,0.71667 -0.35,1.05c-0.23333,0.36667 -0.46667,0.73333 -0.7,1.1c-0.13333,0.36667 -0.25,0.71667 -0.35,1.05c-0.23333,0.36667 -0.48333,0.73333 -0.75,1.1c-0.23333,0.33333 -0.46667,0.68333 -0.7,1.05c-0.1,0.36667 -0.21667,0.73333 -0.35,1.1c-0.13333,0.33333 -0.25,0.68333 -0.35,1.05c-0.36667,0.36667 -0.73333,0.71667 -1.1,1.05c-0.33333,0.36667 -0.68333,0.73333 -1.05,1.1c-0.13333,0.36667 -0.25,0.71667 -0.35,1.05c-0.13333,0.36667 -0.25,0.73333 -0.35,1.1c-0.36667,0.33333 -0.73333,0.68333 -1.1,1.05c-0.33333,0.36667 -0.68333,0.73333 -1.05,1.1c-0.23333,0.33333 -0.46667,0.68333 -0.7,1.05c-0.36667,0.36667 -0.73333,0.71667 -1.1,1.05c-0.36667,0.36667 -0.71667,0.73333 -1.05,1.1c-0.36667,0.36667 -0.73333,0.71667 -1.1,1.05c-0.33333,0.36667 -0.68333,0.73333 -1.05,1.1c-0.36667,0.33333 -0.73333,0.68333 -1.1,1.05c-0.46667,0.36667 -0.93333,0.73333 -1.4,1.1c-0.36667,0.33333 -0.73333,0.68333 -1.1,1.05c-0.23333,0.23333 -0.46667,0.46667 -0.7,0.7c-0.6,0.13333 -1.2,0.25 -1.8,0.35c-5.23333,-0.1 -10.46667,-0.21667 -15.7,-0.35c-0.7,-0.23333 -1.41667,-0.46667 -2.15,-0.7c-0.23333,-0.23333 -0.46667,-0.46667 -0.7,-0.7c-0.7,-0.23333 -1.41667,-0.48333 -2.15,-0.75c-0.23333,-0.23333 -0.46667,-0.46667 -0.7,-0.7c-0.73333,-0.23333 -1.45,-0.46667 -2.15,-0.7c-0.23333,-0.23333 -0.46667,-0.46667 -0.7,-0.7c-0.73333,-0.26667 -1.45,-0.51667 -2.15,-0.75c-0.36667,-0.33333 -0.71667,-0.68333 -1.05,-1.05c-0.26667,-0.23333 -0.51667,-0.46667 -0.75,-0.7c-0.1,-0.13333 -0.23333,-0.23333 -0.4,-0.3c-0.66667,-0.3 -1.36667,-0.56667 -2.1,-0.8c-0.17956,-0.19753 -0.36289,-0.39753 -0.55,-0.6c-0.05117,0.08984 -0.10117,0.17318 -0.15,0.25c-0.23333,0.36667 -0.46667,0.71667 -0.7,1.05c-0.36667,0.36667 -0.73333,0.73333 -1.1,1.1c-0.33333,0.36667 -0.68333,0.71667 -1.05,1.05c-0.36667,0.36667 -0.73333,0.73333 -1.1,1.1c-0.33333,0.23333 -0.68333,0.48333 -1.05,0.75c-0.13333,0.1 -0.25,0.2 -0.35,0.3c-0.6,0.23333 -1.2,0.46667 -1.8,0.7c-0.23333,0.36667 -0.46667,0.73333 -0.7,1.1c-0.13333,0.36667 -0.25,0.71667 -0.35,1.05c-0.36667,0.36667 -0.73333,0.73333 -1.1,1.1c-0.83333,0.33333 -1.66667,0.68333 -2.5,1.05c-0.23333,0.23333 -0.46667,0.46667 -0.7,0.7c-0.7,0.26667 -1.41667,0.51667 -2.15,0.75c-0.23333,0.23333 -0.46667,0.46667 -0.7,0.7c-0.73333,0.23333 -1.45,0.46667 -2.15,0.7c-0.23333,0.23333 -0.46667,0.48333 -0.7,0.75c-0.73333,0.23333 -1.45,0.46667 -2.15,0.7c-0.23333,0.23333 -0.46667,0.46667 -0.7,0.7c-0.6,0.13333 -1.2,0.25 -1.8,0.35c-1.2,0.23333 -2.38333,0.5 -3.55,0.8c-0.73333,0.2 -1.45,0.41667 -2.15,0.65c-3.1,0.23333 -6.2,0.46667 -9.3,0.7c-0.73333,0.23333 -1.45,0.46667 -2.15,0.7c-5.7,0 -11.41667,0 -17.15,0c-0.83333,-0.23333 -1.65,-0.48333 -2.45,-0.75c-0.63333,-0.2 -1.25,-0.4 -1.85,-0.6c-0.83333,-0.26667 -1.65,-0.51667 -2.45,-0.75c-0.26667,-0.26667 -0.51667,-0.51667 -0.75,-0.75c-0.7,-0.23333 -1.41667,-0.46667 -2.15,-0.7c-0.23333,-0.23333 -0.46667,-0.46667 -0.7,-0.7c-0.7,-0.23333 -1.41667,-0.48333 -2.15,-0.75c-0.1,-0.23333 -0.21667,-0.46667 -0.35,-0.7c-0.83333,-0.23333 -1.66667,-0.46667 -2.5,-0.7c-0.23333,-0.36667 -0.46667,-0.73333 -0.7,-1.1c-0.36667,-0.23333 -0.73333,-0.46667 -1.1,-0.7c-0.1,-0.1 -0.21667,-0.18333 -0.35,-0.25c-0.7,-0.3 -1.41667,-0.56667 -2.15,-0.8c-0.23333,-0.36667 -0.46667,-0.73333 -0.7,-1.1c-0.46667,-0.33333 -0.93333,-0.68333 -1.4,-1.05c-0.36667,-0.36667 -0.73333,-0.73333 -1.1,-1.1c-0.36667,-0.33333 -0.71667,-0.68333 -1.05,-1.05c-0.23333,-0.36667 -0.48333,-0.71667 -0.75,-1.05c-0.23333,-0.36667 -0.46667,-0.73333 -0.7,-1.1c-0.1,-0.36667 -0.21667,-0.71667 -0.35,-1.05c-0.36667,-0.36667 -0.71667,-0.73333 -1.05,-1.1c-0.36667,-0.33333 -0.73333,-0.68333 -1.1,-1.05c-0.36667,-0.36667 -0.71667,-0.73333 -1.05,-1.1c-0.36667,-0.33333 -0.73333,-0.68333 -1.1,-1.05c-0.23333,-0.36667 -0.46667,-0.71667 -0.7,-1.05c-0.13333,-0.36667 -0.25,-0.73333 -0.35,-1.1c-0.23333,-0.36667 -0.46667,-0.71667 -0.7,-1.05c-0.36667,-0.36667 -0.73333,-0.73333 -1.1,-1.1c-0.23333,-0.33333 -0.46667,-0.68333 -0.7,-1.05c-0.13333,-0.36667 -0.25,-0.73333 -0.35,-1.1c-0.23333,-0.33333 -0.48333,-0.68333 -0.75,-1.05c-0.23333,-0.36667 -0.46667,-0.71667 -0.7,-1.05c-0.1,-0.36667 -0.21667,-0.73333 -0.35,-1.1c-0.13333,-0.36667 -0.25,-0.71667 -0.35,-1.05c-0.23333,-0.36667 -0.46667,-0.73333 -0.7,-1.1c-0.13333,-0.33333 -0.26667,-0.68333 -0.4,-1.05c-0.23333,-0.36667 -0.46667,-0.71667 -0.7,-1.05c-0.1,-0.36667 -0.21667,-0.73333 -0.35,-1.1c-0.23333,-0.36667 -0.46667,-0.71667 -0.7,-1.05c-0.23333,-0.36667 -0.48333,-0.73333 -0.75,-1.1c0,-0.33333 0,-0.68333 0,-1.05c0,-0.36667 0,-0.73333 0,-1.1c-0.23333,-0.33333 -0.46667,-0.68333 -0.7,-1.05c-0.23333,-0.36667 -0.46667,-0.71667 -0.7,-1.05c0,-0.36667 0,-0.73333 0,-1.1c0,-0.36667 0,-0.71667 0,-1.05c-0.23333,-0.36667 -0.46667,-0.73333 -0.7,-1.1c-0.26667,-0.33333 -0.51667,-0.68333 -0.75,-1.05c0,-0.36667 0,-0.73333 0,-1.1c0,-0.33333 0,-0.68333 0,-1.05c0,-0.36667 0,-0.71667 0,-1.05c0,-0.36667 0,-0.73333 0,-1.1c-0.1,-0.36667 -0.21667,-0.71667 -0.35,-1.05c-0.1,-0.36667 -0.21667,-0.73333 -0.35,-1.1c-0.23333,-0.33333 -0.46667,-0.68333 -0.7,-1.05c0,-0.36667 0,-0.73333 0,-1.1c0,-0.33333 0,-0.68333 0,-1.05c0,-0.36667 0,-0.71667 0,-1.05c0,-0.36667 0,-0.73333 0,-1.1c0,-0.36667 0,-0.71667 0,-1.05c0,-0.73333 0,-1.45 0,-2.15c0,-0.73333 0,-1.45 0,-2.15c0,-0.7 0,-1.41667 0,-2.15c0,-1.06667 0,-2.13333 0,-3.2c0,-0.73333 0,-1.45 0,-2.15c0,-0.7 0,-1.41667 0,-2.15c0.23333,-0.36667 0.46667,-0.71667 0.7,-1.05c0.13333,-0.36667 0.25,-0.73333 0.35,-1.1c0.13333,-0.33333 0.25,-0.68333 0.35,-1.05c0,-0.36667 0,-0.73333 0,-1.1c0,-0.33333 0,-0.68333 0,-1.05c0,-0.36667 0,-0.71667 0,-1.05c0,-0.36667 0,-0.73333 0,-1.1c0.23333,-0.36667 0.48333,-0.71667 0.75,-1.05c0.23333,-0.36667 0.46667,-0.73333 0.7,-1.1c0,-0.33333 0,-0.68333 0,-1.05c0,-0.36667 0,-0.73333 0,-1.1c0,-0.33333 0,-0.68333 0,-1.05c0.23333,-0.36667 0.46667,-0.71667 0.7,-1.05c0.13333,-0.36667 0.25,-0.73333 0.35,-1.1c0.13333,-0.36667 0.25,-0.71667 0.35,-1.05c0.26667,-0.36667 0.51667,-0.73333 0.75,-1.1c0.23333,-0.33333 0.46667,-0.68333 0.7,-1.05c0.13333,-0.36667 0.25,-0.73333 0.35,-1.1c0.23333,-0.33333 0.46667,-0.68333 0.7,-1.05c0.36667,-0.36667 0.73333,-0.71667 1.1,-1.05c0.36667,-0.36667 0.71667,-0.73333 1.05,-1.1c0.36667,-0.36667 0.73333,-0.71667 1.1,-1.05c0.33333,-0.36667 0.68333,-0.73333 1.05,-1.1c0.36667,-0.33333 0.73333,-0.68333 1.1,-1.05c0.33333,-0.36667 0.68333,-0.73333 1.05,-1.1c0.36667,-0.33333 0.71667,-0.68333 1.05,-1.05c0.36667,-0.36667 0.73333,-0.71667 1.1,-1.05c0.23333,-0.36667 0.46667,-0.73333 0.7,-1.1c-0.1,-0.33333 -0.21667,-0.68333 -0.35,-1.05c-0.23333,-0.36667 -0.46667,-0.73333 -0.7,-1.1c-0.23333,-0.33333 -0.48333,-0.68333 -0.75,-1.05c-0.1,-0.36667 -0.21667,-0.71667 -0.35,-1.05c-0.1,-0.36667 -0.21667,-0.73333 -0.35,-1.1c-0.23333,-0.36667 -0.46667,-0.71667 -0.7,-1.05c-0.13333,-0.36667 -0.25,-0.73333 -0.35,-1.1c-0.23333,-0.33333 -0.48333,-0.68333 -0.75,-1.05c-0.1,-0.36667 -0.21667,-0.73333 -0.35,-1.1c0,-0.33333 0,-0.68333 0,-1.05c-0.1,-0.36667 -0.21667,-0.71667 -0.35,-1.05c-0.23333,-0.36667 -0.46667,-0.73333 -0.7,-1.1c-0.13333,-0.36667 -0.25,-0.71667 -0.35,-1.05c-0.23333,-0.36667 -0.48333,-0.73333 -0.75,-1.1c-0.23333,-0.33333 -0.46667,-0.68333 -0.7,-1.05c0,-0.36667 0,-0.73333 0,-1.1c0,-0.33333 0,-0.68333 0,-1.05c0,-0.36667 0,-0.71667 0,-1.05c0,-0.36667 0,-0.73333 0,-1.1c0,-0.36667 0,-0.71667 0,-1.05c0,-0.73333 0,-1.45 0,-2.15c0,-0.73333 0,-1.45 0,-2.15c0,-0.7 0,-1.41667 0,-2.15c0,-1.06667 0,-2.13333 0,-3.2c0,-0.73333 0,-1.45 0,-2.15c0,-0.7 0,-1.41667 0,-2.15c0.13333,-0.36667 0.25,-0.71667 0.35,-1.05c0.23333,-0.36667 0.48333,-0.73333 0.75,-1.1c0.1,-0.33333 0.21667,-0.68333 0.35,-1.05c0,-0.36667 0,-0.73333 0,-1.1c0,-0.33333 0,-0.68333 0,-1.05c0,-0.36667 0,-0.71667 0,-1.05c0.23333,-0.36667 0.46667,-0.73333 0.7,-1.1c0.23333,-0.36667 0.46667,-0.71667 0.7,-1.05c0,-0.36667 0,-0.73333 0,-1.1c0,-0.33333 0,-0.68333 0,-1.05c0.23333,-0.36667 0.48333,-0.73333 0.75,-1.1c0.23333,-0.33333 0.46667,-0.68333 0.7,-1.05c0.1,-0.36667 0.21667,-0.71667 0.35,-1.05c0.23333,-0.36667 0.46667,-0.73333 0.7,-1.1c0.36667,-0.36667 0.73333,-0.71667 1.1,-1.05c0.33333,-0.36667 0.68333,-0.73333 1.05,-1.1c0.36667,-0.33333 0.73333,-0.68333 1.1,-1.05c0.33333,-0.36667 0.68333,-0.73333 1.05,-1.1c0.36667,-0.33333 0.71667,-0.68333 1.05,-1.05c0.36667,-0.36667 0.73333,-0.71667 1.1,-1.05c0.23333,-0.36667 0.46667,-0.73333 0.7,-1.1c0.13333,-0.36667 0.25,-0.71667 0.35,-1.05c0.23333,-0.36667 0.48333,-0.73333 0.75,-1.1c0.33333,-0.23333 0.68333,-0.48333 1.05,-0.75c0.13333,-0.1 0.25,-0.2 0.35,-0.3c0.6,-0.23333 1.2,-0.46667 1.8,-0.7c0.36667,-0.36667 0.71667,-0.73333 1.05,-1.1c0.36667,-0.23333 0.71667,-0.48333 1.05,-0.75c0.13333,-0.1 0.26667,-0.2 0.4,-0.3c0.6,-0.23333 1.2,-0.48333 1.8,-0.75c0.33333,-0.33333 0.68333,-0.68333 1.05,-1.05c0.36667,-0.23333 0.71667,-0.48333 1.05,-0.75c0.13333,-0.1 0.26667,-0.2 0.4,-0.3c0.56667,-0.23333 1.15,-0.48333 1.75,-0.75c0.36667,-0.23333 0.73333,-0.46667 1.1,-0.7c0.6,-0.23333 1.18333,-0.46667 1.75,-0.7c0.36667,-0.23333 0.73333,-0.46667 1.1,-0.7c0.6,-0.13333 1.18333,-0.26667 1.75,-0.4c0.6,-0.23333 1.2,-0.46667 1.8,-0.7c0.83333,-0.1 1.65,-0.26667 2.45,-0.5c0.03333,-0.03333 0.05,-0.1 0.05,-0.2c5.73333,0 11.45,0 17.15,0c0.7,0.23333 1.41667,0.43333 2.15,0.6c1.2,0.3 2.38333,0.6 3.55,0.9c0.73333,0.2 1.46667,0.38333 2.2,0.55c1.16667,0.3 2.33333,0.6 3.5,0.9c0.73333,0.16667 1.45,0.36667 2.15,0.6c0.26667,0.23333 0.51667,0.48333 0.75,0.75c0.7,0.23333 1.41667,0.46667 2.15,0.7c0.46667,0.33333 0.95,0.66667 1.45,1c0.56667,0.4 1.15,0.78333 1.75,1.15c0.36667,0.33333 0.71667,0.68333 1.05,1.05c0.23333,0.23333 0.48333,0.46667 0.75,0.7c0.56667,0.23333 1.15,0.48333 1.75,0.75c0.36667,0.23333 0.73333,0.46667 1.1,0.7c0.6,0.23333 1.18333,0.46667 1.75,0.7c0.5,0.36667 0.98333,0.73333 1.45,1.1c0.36667,0.33333 0.71667,0.68333 1.05,1.05c0.36667,0.36667 0.73333,0.71667 1.1,1.05c0.23333,0.36667 0.46667,0.73333 0.7,1.1c0.23333,0.36667 0.46667,0.71667 0.7,1.05c0.36667,0.36667 0.73333,0.73333 1.1,1.1c0.23333,0.33333 0.46667,0.68333 0.7,1.05c0.13333,0.36667 0.25,0.73333 0.35,1.1c0.23333,0.33333 0.48333,0.68333 0.75,1.05c0.33333,0.36667 0.68333,0.71667 1.05,1.05c0.23333,0.36667 0.46667,0.73333 0.7,1.1c0.13333,0.36667 0.25,0.71667 0.35,1.05c0.13333,0.36667 0.26667,0.73333 0.4,1.1c0,-0.36667 0,-0.73333 0,-1.1c0.33333,-0.33333 0.68333,-0.68333 1.05,-1.05c0.36667,-0.36667 0.71667,-0.73333 1.05,-1.1c0.36667,-0.33333 0.73333,-0.68333 1.1,-1.05c0.36667,-0.36667 0.71667,-0.71667 1.05,-1.05c0.5,-0.36667 0.98333,-0.73333 1.45,-1.1c0.23333,-0.36667 0.46667,-0.71667 0.7,-1.05c0.46667,-0.36667 0.95,-0.73333 1.45,-1.1c0.7,-0.33333 1.41667,-0.66667 2.15,-1c0.8,-0.4 1.61667,-0.78333 2.45,-1.15c0.36667,-0.33333 0.73333,-0.68333 1.1,-1.05c0.36667,-0.36667 0.71667,-0.71667 1.05,-1.05c0.23333,-0.36667 0.48333,-0.73333 0.75,-1.1c0.23333,-0.36667 0.46667,-0.71667 0.7,-1.05c0.36667,-0.23333 0.71667,-0.48333 1.05,-0.75c0.13333,-0.1 0.25,-0.21667 0.35,-0.35c0.6,-0.23333 1.2,-0.46667 1.8,-0.7c0.36667,-0.23333 0.73333,-0.46667 1.1,-0.7c0.56667,-0.23333 1.15,-0.48333 1.75,-0.75c0.36667,-0.23333 0.73333,-0.46667 1.1,-0.7c0.6,-0.23333 1.18333,-0.46667 1.75,-0.7c0.36667,-0.23333 0.73333,-0.46667 1.1,-0.7c0.6,-0.13333 1.2,-0.25 1.8,-0.35c0.56667,-0.26667 1.16667,-0.5 1.8,-0.7c0.8,-0.26667 1.61667,-0.51667 2.45,-0.75c1.56667,-0.23333 3.11667,-0.46667 4.65,-0.7c0.83333,-0.23333 1.66667,-0.48333 2.5,-0.75c4.3,0 8.58333,0 12.85,0c0.73333,0.26667 1.45,0.51667 2.15,0.75c0.23333,0.23333 0.46667,0.46667 0.7,0.7c0.73333,0.23333 1.46667,0.45 2.2,0.65c1.16667,0.26667 2.33333,0.55 3.5,0.85c0.73333,0.2 1.46667,0.41667 2.2,0.65c0.7,0.1 1.4,0.21667 2.1,0.35c0.73333,0.23333 1.45,0.46667 2.15,0.7c0.36667,0.23333 0.73333,0.46667 1.1,0.7c0.6,0.26667 1.18333,0.51667 1.75,0.75c0.5,0.33333 0.98333,0.68333 1.45,1.05c0.36667,0.36667 0.71667,0.73333 1.05,1.1c0.36667,0.33333 0.73333,0.68333 1.1,1.05c0.36667,0.36667 0.71667,0.71667 1.05,1.05c0.36667,0.36667 0.73333,0.73333 1.1,1.1c0.33333,0.36667 0.68333,0.71667 1.05,1.05c0.36667,0.36667 0.71667,0.73333 1.05,1.1c0.36667,0.33333 0.73333,0.68333 1.1,1.05c0.36667,0.36667 0.71667,0.73333 1.05,1.1c0.36667,0.23333 0.73333,0.46667 1.1,0.7c0.46667,-0.13333 0.93333,-0.25 1.4,-0.35c0.36667,-0.36667 0.73333,-0.73333 1.1,-1.1c0.33333,-0.33333 0.68333,-0.68333 1.05,-1.05c0.36667,-0.36667 0.73333,-0.73333 1.1,-1.1c0.33333,-0.33333 0.68333,-0.68333 1.05,-1.05c0.36667,-0.36667 0.71667,-0.71667 1.05,-1.05c0.36667,-0.36667 0.73333,-0.73333 1.1,-1.1c0.36667,-0.36667 0.71667,-0.71667 1.05,-1.05c0.36667,-0.36667 0.73333,-0.73333 1.1,-1.1c0.83333,-0.33333 1.66667,-0.68333 2.5,-1.05c0.33333,-0.36667 0.68333,-0.73333 1.05,-1.1c0.23333,-0.23333 0.46667,-0.46667 0.7,-0.7c0.26667,-0.1 0.51667,-0.2 0.75,-0.3c0.6,-0.26667 1.18333,-0.51667 1.75,-0.75c0.36667,-0.23333 0.73333,-0.46667 1.1,-0.7c0.6,-0.26667 1.2,-0.51667 1.8,-0.75c0.33333,-0.23333 0.68333,-0.46667 1.05,-0.7c0.6,-0.13333 1.2,-0.25 1.8,-0.35c0.6,-0.23333 1.2,-0.45 1.8,-0.65c0.8,-0.3 1.63333,-0.55 2.5,-0.75c1.06667,-0.26667 2.13333,-0.5 3.2,-0.7c0.83333,-0.16667 1.65,-0.35 2.45,-0.55c0.03333,-0.03333 0.05,-0.1 0.05,-0.2c10.93333,0 21.88333,0 32.85,0c0.7,0.23333 1.41667,0.46667 2.15,0.7c3.56667,0.23333 7.13333,0.46667 10.7,0.7c0.7,0.23333 1.41667,0.48333 2.15,0.75c2.13333,0.23333 4.26667,0.46667 6.4,0.7c0.73333,0.23333 1.45,0.46667 2.15,0.7c2.13333,0.23333 4.28333,0.46667 6.45,0.7c0.7,0.26667 1.41667,0.51667 2.15,0.75c0.7,0.23333 1.4,0.46667 2.1,0.7c0.73333,0.23333 1.45,0.46667 2.15,0.7c0.5,0.36667 0.98333,0.73333 1.45,1.1c0.23333,0.23333 0.46667,0.46667 0.7,0.7c0.13333,0.1 0.26667,0.2 0.4,0.3c0.56667,0.26667 1.15,0.51667 1.75,0.75c0.36667,0.23333 0.71667,0.48333 1.05,0.75c0.6,0.23333 1.2,0.46667 1.8,0.7c0.46667,0.36667 0.95,0.71667 1.45,1.05c0.33333,0.36667 0.68333,0.73333 1.05,1.1c0.36667,0.33333 0.73333,0.68333 1.1,1.05c0.33333,0.36667 0.68333,0.73333 1.05,1.1c0.36667,0.33333 0.71667,0.68333 1.05,1.05c0.36667,0.36667 0.73333,0.71667 1.1,1.05c0.1,0.36667 0.21667,0.73333 0.35,1.1c0.23333,0.36667 0.46667,0.71667 0.7,1.05c0.23333,0.36667 0.48333,0.73333 0.75,1.1c0.33333,0.33333 0.68333,0.68333 1.05,1.05c0.36667,0.36667 0.71667,0.73333 1.05,1.1c0.36667,0.33333 0.73333,0.68333 1.1,1.05c0.36667,0.36667 0.71667,0.71667 1.05,1.05c0.36667,0.36667 0.73333,0.73333 1.1,1.1c0.1,0.36667 0.21667,0.71667 0.35,1.05c0.23333,0.36667 0.46667,0.73333 0.7,1.1c0.23333,0.33333 0.46667,0.68333 0.7,1.05c0.36667,0.36667 0.73333,0.73333 1.1,1.1c0.02669,0.08893 0.04336,0.17227 0.05,0.25c0.34453,-0.07643 0.67786,-0.15977 1,-0.25c4.3,0 8.58333,0 12.85,0c0.73333,0.23333 1.45,0.46667 2.15,0.7c0.36667,0.23333 0.73333,0.46667 1.1,0.7c0.56667,0.23333 1.15,0.46667 1.75,0.7c0.36667,0.36667 0.73333,0.73333 1.1,1.1c0.23333,0.36667 0.46667,0.71667 0.7,1.05c0.23333,0.36667 0.46667,0.73333 0.7,1.1c0.23333,0.33333 0.48333,0.68333 0.75,1.05c0.1,0.13333 0.18333,0.18333 0.25,0.15c0.3,-0.1 0.56667,-0.26667 0.8,-0.5c0.23333,-0.36667 0.46667,-0.71667 0.7,-1.05c0.13333,-0.36667 0.25,-0.73333 0.35,-1.1c0.26667,-0.36667 0.51667,-0.71667 0.75,-1.05c0.1,-0.36667 0.21667,-0.73333 0.35,-1.1c0.1,-0.33333 0.21667,-0.68333 0.35,-1.05c0.36667,-0.36667 0.71667,-0.73333 1.05,-1.1c0.36667,-0.33333 0.73333,-0.68333 1.1,-1.05c0.1,-0.36667 0.21667,-0.71667 0.35,-1.05c0.13333,-0.36667 0.25,-0.73333 0.35,-1.1c0.23333,-0.36667 0.46667,-0.71667 0.7,-1.05c0.13333,-0.36667 0.26667,-0.73333 0.4,-1.1c0.23333,-0.33333 0.46667,-0.68333 0.7,-1.05c0.36667,-0.36667 0.71667,-0.73333 1.05,-1.1c0.23333,-0.33333 0.48333,-0.68333 0.75,-1.05c0.1,-0.36667 0.21667,-0.71667 0.35,-1.05c0.23333,-0.36667 0.46667,-0.73333 0.7,-1.1c0.36667,-0.36667 0.71667,-0.71667 1.05,-1.05c0.5,-0.36667 0.98333,-0.73333 1.45,-1.1c0.23333,-0.33333 0.46667,-0.68333 0.7,-1.05c0.36667,-0.36667 0.73333,-0.73333 1.1,-1.1c0.33333,-0.33333 0.68333,-0.68333 1.05,-1.05c0.36667,-0.36667 0.73333,-0.71667 1.1,-1.05c0.46667,-0.36667 0.93333,-0.73333 1.4,-1.1c0.23333,-0.36667 0.46667,-0.71667 0.7,-1.05c0.36667,-0.36667 0.73333,-0.73333 1.1,-1.1c0.36667,-0.33333 0.71667,-0.68333 1.05,-1.05c0.36667,-0.23333 0.73333,-0.46667 1.1,-0.7c0.6,-0.26667 1.18333,-0.51667 1.75,-0.75c0.36667,-0.33333 0.73333,-0.68333 1.1,-1.05c0.36667,-0.36667 0.71667,-0.71667 1.05,-1.05c0.36667,-0.36667 0.73333,-0.73333 1.1,-1.1c0.33333,-0.36667 0.68333,-0.71667 1.05,-1.05c0.36667,-0.36667 0.73333,-0.73333 1.1,-1.1c0.23333,-0.23333 0.46667,-0.46667 0.7,-0.7c0.23333,-0.13333 0.46667,-0.25 0.7,-0.35c0.6,-0.23333 1.2,-0.46667 1.8,-0.7c0.36667,-0.26667 0.71667,-0.51667 1.05,-0.75c0.6,-0.23333 1.2,-0.46667 1.8,-0.7c0.36667,-0.23333 0.71667,-0.46667 1.05,-0.7c0.6,0 1.18333,-0.06667 1.75,-0.2c0.03333,0 0.05,-0.05 0.05,-0.15c6.66667,0 13.33333,0 20,0c0.7,0.23333 1.41667,0.46667 2.15,0.7c0.7,0.23333 1.41667,0.46667 2.15,0.7c0.7,0.23333 1.41667,0.46667 2.15,0.7c0.46667,0.36667 0.93333,0.73333 1.4,1.1c0.23333,0.23333 0.46667,0.46667 0.7,0.7c0.13333,0.13333 0.26667,0.23333 0.4,0.3c0.56667,0.26667 1.15,0.53333 1.75,0.8c0.5,0.33333 0.98333,0.68333 1.45,1.05c0.36667,0.36667 0.71667,0.71667 1.05,1.05c0.36667,0.36667 0.73333,0.73333 1.1,1.1c0.23333,0.33333 0.46667,0.68333 0.7,1.05c0.13333,0.36667 0.25,0.73333 0.35,1.1c0.23333,0.33333 0.46667,0.68333 0.7,1.05c0.13333,0.36667 0.26667,0.71667 0.4,1.05c0.23333,0.36667 0.46667,0.73333 0.7,1.1c0,0.36667 0,0.71667 0,1.05c0.1,0.36667 0.21667,0.73333 0.35,1.1c0.13333,0.33333 0.25,0.68333 0.35,1.05c0.23333,0.36667 0.46667,0.73333 0.7,1.1c0,0.33333 0,0.68333 0,1.05c0,0.36667 0,0.71667 0,1.05c0,0.36667 0,0.73333 0,1.1c0.26667,0.36667 0.51667,0.71667 0.75,1.05c0.1,0.36667 0.21667,0.73333 0.35,1.1c0.1,0.33333 0.21667,0.68333 0.35,1.05c0,0.36667 0,0.73333 0,1.1c0,0.33333 0,0.68333 0,1.05c0.13333,0.36667 0.25,0.71667 0.35,1.05c0.23333,0.36667 0.46667,0.73333 0.7,1.1c0.13333,0.36667 0.26667,0.71667 0.4,1.05c0,0.36667 0,0.73333 0,1.1c0,0.33333 0,0.68333 0,1.05c0,0.36667 0,0.73333 0,1.1c0,0.33333 0,0.68333 0,1.05c0,0.36667 0,0.71667 0,1.05c0,0.73333 0,1.45 0,2.15c0,0.36667 0,0.73333 0,1.1c0,0.33333 0,0.68333 0,1.05c-0.26667,0.36667 -0.51667,0.73333 -0.75,1.1c-0.1,0.33333 -0.21667,0.68333 -0.35,1.05c-0.1,0.36667 -0.21667,0.71667 -0.35,1.05c0,0.36667 0,0.73333 0,1.1c0,0.36667 0,0.71667 0,1.05c-0.13333,0.36667 -0.25,0.73333 -0.35,1.1c-0.23333,0.33333 -0.46667,0.68333 -0.7,1.05c-0.13333,0.36667 -0.26667,0.73333 -0.4,1.1c0,0.22721 0,0.46055 0,0.7c0.25,-0.23945 0.5,-0.47279 0.75,-0.7c0.23333,-0.36667 0.46667,-0.73333 0.7,-1.1c0.13333,-0.36667 0.25,-0.71667 0.35,-1.05c0,-0.36667 0,-0.73333 0,-1.1c0,-0.33333 0,-0.68333 0,-1.05c0.13333,-0.36667 0.25,-0.73333 0.35,-1.1c0.23333,-0.33333 0.48333,-0.68333 0.75,-1.05c0.33333,-0.36667 0.68333,-0.71667 1.05,-1.05c0.13333,-0.36667 0.25,-0.73333 0.35,-1.1c0.23333,-0.36667 0.46667,-0.71667 0.7,-1.05c0,-0.36667 0,-0.73333 0,-1.1c0,-0.33333 0,-0.68333 0,-1.05c0.26667,-0.36667 0.51667,-0.73333 0.75,-1.1c0.33333,-0.33333 0.68333,-0.68333 1.05,-1.05c0.13333,-0.36667 0.25,-0.71667 0.35,-1.05c0.23333,-0.36667 0.48333,-0.73333 0.75,-1.1c0.23333,-0.36667 0.46667,-0.71667 0.7,-1.05c0.36667,-0.36667 0.71667,-0.73333 1.05,-1.1c0.13333,-0.33333 0.25,-0.68333 0.35,-1.05c0.26667,-0.36667 0.51667,-0.73333 0.75,-1.1c0,-0.33333 0,-0.68333 0,-1.05c0.1,-0.36667 0.21667,-0.71667 0.35,-1.05c0.1,-0.36667 0.21667,-0.73333 0.35,-1.1c0.23333,-0.36667 0.46667,-0.71667 0.7,-1.05c0.23333,-0.36667 0.48333,-0.73333 0.75,-1.1c0.33333,-0.33333 0.68333,-0.68333 1.05,-1.05c0.36667,-0.36667 0.71667,-0.73333 1.05,-1.1c0.36667,-0.33333 0.73333,-0.68333 1.1,-1.05c0.1,-0.36667 0.21667,-0.71667 0.35,-1.05c0.13333,-0.36667 0.25,-0.73333 0.35,-1.1c0.36667,-0.36667 0.73333,-0.71667 1.1,-1.05c0.33333,-0.36667 0.68333,-0.73333 1.05,-1.1c0.46667,-0.33333 0.95,-0.68333 1.45,-1.05c0.33333,-0.36667 0.68333,-0.73333 1.05,-1.1c0.23333,-0.33333 0.46667,-0.68333 0.7,-1.05c0.13333,-0.36667 0.25,-0.71667 0.35,-1.05c0.26667,-0.36667 0.51667,-0.73333 0.75,-1.1c0.33333,-0.23333 0.7,-0.45 1.1,-0.65c0.43333,-0.26667 0.9,-0.51667 1.4,-0.75c0.23333,-0.36667 0.46667,-0.73333 0.7,-1.1c0.36667,-0.33333 0.71667,-0.68333 1.05,-1.05c0.36667,-0.36667 0.73333,-0.73333 1.1,-1.1c0.36667,-0.23333 0.71667,-0.46667 1.05,-0.7c0.13333,-0.1 0.26667,-0.16667 0.4,-0.2c0.46667,-0.1 0.91667,-0.2 1.35,-0.3c0.03333,-0.03333 0.05,-0.1 0.05,-0.2c0.46667,0 0.95,0 1.45,0c0.56667,0.23333 1.15,0.46667 1.75,0.7c0.15208,0.15208 0.30208,0.30208 0.45,0.45c0.21875,-0.03177 0.43542,-0.0651 0.65,-0.1c0.33333,-0.23333 0.68333,-0.46667 1.05,-0.7c0.6,-0.13333 1.2,-0.23333 1.8,-0.3c2,-0.3 4.01667,-0.56667 6.05,-0.8c0.83333,-0.1 1.65,-0.26667 2.45,-0.5c0.03333,-0.03333 0.05,-0.1 0.05,-0.2c3.33333,0 6.66667,0 10,0c0.73333,0.23333 1.45,0.46667 2.15,0.7c0.7,0.23333 1.41667,0.46667 2.15,0.7c0.7,0.26667 1.41667,0.51667 2.15,0.75c0.7,0.23333 1.41667,0.46667 2.15,0.7c0.7,0.23333 1.4,0.46667 2.1,0.7c0.26667,0.23333 0.51667,0.48333 0.75,0.75c0.7,0.23333 1.41667,0.46667 2.15,0.7c0.23333,0.23333 0.46667,0.46667 0.7,0.7c0.7,0.23333 1.41667,0.46667 2.15,0.7c0.46667,0.36667 0.95,0.71667 1.45,1.05c0.33333,0.26667 0.68333,0.51667 1.05,0.75c0.6,0.23333 1.18333,0.46667 1.75,0.7c0.5,0.36667 0.98333,0.73333 1.45,1.1c0.36667,0.36667 0.71667,0.71667 1.05,1.05c0.36667,0.36667 0.73333,0.73333 1.1,1.1c0.23333,0.33333 0.46667,0.68333 0.7,1.05c0.13333,0.36667 0.25,0.73333 0.35,1.1c0.23333,0.33333 0.48333,0.68333 0.75,1.05c0.1,0.36667 0.21667,0.71667 0.35,1.05c0.23333,0.36667 0.46667,0.73333 0.7,1.1c0.13333,0 0.23333,-0.03333 0.3,-0.1c0.4,-0.3 0.78333,-0.63333 1.15,-1c0.33333,-0.23333 0.68333,-0.46667 1.05,-0.7c0.6,-0.23333 1.2,-0.46667 1.8,-0.7c0.33333,-0.23333 0.68333,-0.46667 1.05,-0.7c0.6,-0.26667 1.2,-0.51667 1.8,-0.75c0.36667,-0.23333 0.71667,-0.46667 1.05,-0.7c0.6,-0.23333 1.2,-0.46667 1.8,-0.7c0.36667,-0.23333 0.71667,-0.48333 1.05,-0.75c0.6,-0.1 1.2,-0.21667 1.8,-0.35c0.6,-0.23333 1.2,-0.45 1.8,-0.65c0.83333,-0.26667 1.66667,-0.48333 2.5,-0.65c1.53333,-0.3 3.06667,-0.61667 4.6,-0.95c0.86667,-0.16667 1.7,-0.38333 2.5,-0.65c0.6,-0.2 1.21667,-0.4 1.85,-0.6c0.8,-0.26667 1.61667,-0.51667 2.45,-0.75c0.5,0 0.98333,0 1.45,0c0.7,0.23333 1.41667,0.46667 2.15,0.7c2.6,0.23333 5.21667,0.46667 7.85,0.7c0.7,0.23333 1.41667,0.46667 2.15,0.7c0.7,0.26667 1.41667,0.51667 2.15,0.75c0.7,0.23333 1.4,0.46667 2.1,0.7c0.36667,0.23333 0.73333,0.46667 1.1,0.7c0.6,0.23333 1.2,0.48333 1.8,0.75c0.46667,0.33333 0.93333,0.68333 1.4,1.05c0.36667,0.36667 0.73333,0.71667 1.1,1.05c0.33333,0.36667 0.68333,0.73333 1.05,1.1c0.36667,0.33333 0.71667,0.68333 1.05,1.05c0.26667,0.36667 0.51667,0.73333 0.75,1.1c0.23333,0.33333 0.46667,0.68333 0.7,1.05c0.13333,0.36667 0.25,0.71667 0.35,1.05c0.23333,0.36667 0.46667,0.73333 0.7,1.1c0.13333,0.36667 0.26667,0.71667 0.4,1.05c0.1,0.36667 0.21667,0.73333 0.35,1.1c0,0.33333 0,0.68333 0,1.05c0,0.36667 0,0.73333 0,1.1c-0.14336,0.20482 -0.29336,0.40482 -0.45,0.6c0.15052,-0.07148 0.30052,-0.15482 0.45,-0.25c0.6,-0.23333 1.18333,-0.48333 1.75,-0.75c0.36667,-0.33333 0.73333,-0.68333 1.1,-1.05c0.23333,-0.23333 0.46667,-0.46667 0.7,-0.7c0.23333,-0.13333 0.48333,-0.25 0.75,-0.35c0.56667,-0.26667 1.15,-0.51667 1.75,-0.75c0.6,-0.33333 1.2,-0.68333 1.8,-1.05c0.36667,-0.36667 0.71667,-0.73333 1.05,-1.1c0.83333,-0.33333 1.66667,-0.68333 2.5,-1.05c0.36667,-0.23333 0.73333,-0.46667 1.1,-0.7c0.6,-0.13333 1.18333,-0.25 1.75,-0.35c0.6,-0.26667 1.2,-0.5 1.8,-0.7c0.83333,-0.26667 1.66667,-0.51667 2.5,-0.75c2.4,0 4.78333,0 7.15,0c0.7,0.23333 1.41667,0.46667 2.15,0.7c0.36667,0.23333 0.71667,0.48333 1.05,0.75c0.6,0.23333 1.2,0.46667 1.8,0.7c0.36667,0.23333 0.71667,0.46667 1.05,0.7c0.6,0.23333 1.2,0.46667 1.8,0.7c0.36667,0.26667 0.73333,0.51667 1.1,0.75c0.56667,0.23333 1.15,0.46667 1.75,0.7c0.46667,0.36667 0.95,0.71667 1.45,1.05c0.23333,0.26667 0.46667,0.51667 0.7,0.75c0.13333,0.1 0.26667,0.18333 0.4,0.25c0.56667,0.3 1.15,0.58333 1.75,0.85c0.23333,0.1 0.46667,0.2 0.7,0.3c0.13333,-0.23333 0.25,-0.46667 0.35,-0.7c0,-0.36667 0,-0.71667 0,-1.05c0,-0.36667 0,-0.73333 0,-1.1c0.23333,-0.36667 0.48333,-0.71667 0.75,-1.05c0.23333,-0.36667 0.46667,-0.73333 0.7,-1.1c0.1,-0.33333 0.21667,-0.68333 0.35,-1.05c0.23333,-0.36667 0.46667,-0.73333 0.7,-1.1c0.13333,-0.33333 0.25,-0.68333 0.35,-1.05c0.26667,-0.36667 0.51667,-0.71667 0.75,-1.05c0.23333,-0.36667 0.46667,-0.73333 0.7,-1.1c0.36667,-0.33333 0.71667,-0.68333 1.05,-1.05c0.36667,-0.36667 0.73333,-0.73333 1.1,-1.1c0.23333,-0.33333 0.46667,-0.68333 0.7,-1.05c0.13333,-0.36667 0.25,-0.71667 0.35,-1.05c0.23333,-0.36667 0.48333,-0.73333 0.75,-1.1c0.33333,-0.36667 0.68333,-0.71667 1.05,-1.05c0.36667,-0.23333 0.71667,-0.48333 1.05,-0.75c0.13333,-0.1 0.26667,-0.21667 0.4,-0.35c0.56667,-0.23333 1.15,-0.46667 1.75,-0.7c0.36667,-0.36667 0.73333,-0.71667 1.1,-1.05c0.33333,-0.26667 0.68333,-0.51667 1.05,-0.75c0.13333,-0.1 0.25,-0.21667 0.35,-0.35c0.6,-0.23333 1.2,-0.46667 1.8,-0.7c0.36667,-0.23333 0.71667,-0.46667 1.05,-0.7c0.6,-0.13333 1.2,-0.26667 1.8,-0.4c1.06667,-0.23333 2.13333,-0.48333 3.2,-0.75c0.83333,-0.2 1.68333,-0.4 2.55,-0.6c1.06667,-0.26667 2.13333,-0.5 3.2,-0.7c0.83333,-0.16667 1.65,-0.36667 2.45,-0.6c0.03333,0 0.05,-0.06667 0.05,-0.2c7.13333,0 14.26667,0 21.4,0c0.73333,0.23333 1.45,0.48333 2.15,0.75c1.2,0.1 2.4,0.2 3.6,0.3c0.46667,0.03333 0.93333,0.05 1.4,0.05c0.73333,0.23333 1.45,0.46667 2.15,0.7c1.66667,0.23333 3.33333,0.46667 5,0.7c0.7,0.23333 1.41667,0.45 2.15,0.65c1.16667,0.3 2.35,0.58333 3.55,0.85c0.73333,0.2 1.45,0.41667 2.15,0.65M683.6955,287.7027c1.92487,-0.03372 3.8582,-0.06706 5.8,-0.1c-0.39232,-0.10859 -0.77565,-0.22526 -1.15,-0.35c-0.09714,-0.1526 -0.19714,-0.3026 -0.3,-0.45c-0.72917,0.0293 -1.4625,0.06263 -2.2,0.1c-0.23333,0.1 -0.46667,0.21667 -0.7,0.35c-0.46667,0.1 -0.95,0.2 -1.45,0.3c-0.41536,0.06641 -0.83203,0.13307 -1.25,0.2c0.41797,-0.01875 0.83464,-0.03542 1.25,-0.05z" fill="#000000"/><path d="M333.9955,318.9527c1.33333,3.9 2,7.95 2,12.15c-0.03333,8.23333 -4.2,12.53333 -12.5,12.9c-3.26667,0.13333 -6.28333,-0.58333 -9.05,-2.15c-6.73333,-3.76667 -11.86667,-9.16667 -15.4,-16.2l-7.7,0.25c-1.83333,1.23333 -3.15,2.81667 -3.95,4.75c-2.8,6.8 -0.48333,11.61667 6.95,14.45c10.16667,3.93333 20.41667,7.73333 30.75,11.4c3.9,1.33333 7.23333,3.55 10,6.65c9.86667,11.26667 12.51667,24.31667 7.95,39.15c-1.66667,5.4 -4.58333,10 -8.75,13.8c-8.56667,7.96667 -18.86667,11.86667 -30.9,11.7c-13.93333,-0.2 -25.81667,-5.16667 -35.65,-14.9c-10.3,-10.26667 -14.7,-22.53333 -13.2,-36.8c0.4,-3.86667 2.3,-6.75 5.7,-8.65c5.53333,-3 10.56667,-2.25 15.1,2.25c6.06667,5.93333 12.46667,11.5 19.2,16.7c6.43333,4.96667 13.28333,5.93333 20.55,2.9c2.26667,-0.96667 3.56667,-2.68333 3.9,-5.15c1.13333,-8.63333 -2.66667,-14.26667 -11.4,-16.9c-9.36667,-2.7 -18.76667,-5.4 -28.2,-8.1c-11.53333,-3.2 -16.85,-10.81667 -15.95,-22.85c0.6,-8.33333 3.2,-15.88333 7.8,-22.65c9.43333,-13.9 22.43333,-19.01667 39,-15.35c12,2.6 19.91667,9.48333 23.75,20.65M443.9955,381.6027c1.33333,5.4 1.45,10.76667 0.35,16.1c-0.36667,1.73333 -1.26667,3.18333 -2.7,4.35c-9.33333,7.63333 -20.05,9.45 -32.15,5.45c-11.73333,-3.8 -17.33333,-12 -16.8,-24.6c0.53333,-13.2 7.18333,-21.7 19.95,-25.5c3.3,-1.03333 6.6,-1.15 9.9,-0.35c12.63333,2.96667 19.78333,11.15 21.45,24.55M417.1455,379.4027c-1.63333,0 -3.03333,0.56667 -4.2,1.7c-1.13333,1.16667 -1.7,2.56667 -1.7,4.2c0,1.63333 0.56667,3.01667 1.7,4.15c1.16667,1.16667 2.56667,1.75 4.2,1.75c1.63333,0 3.01667,-0.58333 4.15,-1.75c1.16667,-1.13333 1.75,-2.51667 1.75,-4.15c0,-1.63333 -0.58333,-3.03333 -1.75,-4.2c-1.13333,-1.13333 -2.51667,-1.7 -4.15,-1.7M418.0955,332.8027c-0.36667,4.7 -2.33333,8.36667 -5.9,11c-6.3,4.56667 -13.38333,6.18333 -21.25,4.85c-3.9,-0.7 -6.91667,-0.45 -9.05,0.75c-0.8,7.03333 -0.53333,14 0.8,20.9c2.3,11.93333 3.33333,23.91667 3.1,35.95c-0.03333,2.66667 -0.7,5.11667 -2,7.35c-5.6,9.8 -13.98333,12.78333 -25.15,8.95c-1.73333,-0.6 -3.15,-1.68333 -4.25,-3.25c-5.26667,-7.43333 -7.55,-15.95 -6.85,-25.55c1.2,-16.76667 5.03333,-33.03333 11.5,-48.8c-6.93333,1.76667 -13.36667,1.25 -19.3,-1.55c-1.53333,-8.43333 -0.75,-16.8 2.35,-25.1c1.13333,-3.06667 3.23333,-5.21667 6.3,-6.45c10.8,-4.26667 22.16667,-6.45 34.1,-6.55c8.5,-0.73333 16.71667,0.35 24.65,3.25c9.03333,3.3 12.75,9.8 11.15,19.5c-0.03333,1.66667 -0.1,3.25 -0.2,4.75M525.8455,325.4527c-0.2,1.36667 -0.53333,2.7 -1,4c-5.16667,13.93333 -14.7,24.05 -28.6,30.35c14.33333,5.86667 27.41667,13.85 39.25,23.95c5.46667,4.66667 9.53333,10.28333 12.2,16.85c2.36667,5.83333 0.58333,9.78333 -5.35,11.85c-4.23333,1.43333 -8.45,1.55 -12.65,0.35c-19.7,-5.9 -36.76667,-16.38333 -51.2,-31.45c1.76667,6.7 3.51667,13.7 5.25,21c2.36667,10.13333 -0.6,18.11667 -8.9,23.95c-4.16667,1.56667 -8.16667,1.53333 -12,-0.1c-3.33333,-1.36667 -5.48333,-3.76667 -6.45,-7.2c-6.86667,-23.93333 -10.35,-48.51667 -10.45,-73.75c-3.3,1.83333 -6.83333,2.6 -10.6,2.3c-1.6,-0.3 -2.9,-1.13333 -3.9,-2.5c-6.16667,-8.16667 -8.3,-17.61667 -6.4,-28.35c0.66667,-0.83333 1.41667,-1.51667 2.25,-2.05c7.83333,-5.03333 16.38333,-8.45 25.65,-10.25c18.1,-3.56667 36.06667,-3.4 53.9,0.5c11.56667,2.43333 17.9,9.28333 19,20.55M470.2455,335.7527l3.2,9.2l10.75,-8.2l-13.95,-1M623.6955,322.6527c-12.66667,18.76667 -26.3,36.86667 -40.9,54.3c3.56667,9.23333 7.21667,18.38333 10.95,27.45c1.86667,4.63333 0.88333,8.58333 -2.95,11.85c-8.63333,7.26667 -18.23333,9.1 -28.8,5.5c-2.06667,-0.66667 -3.38333,-1.96667 -3.95,-3.9c-3.63333,-12.56667 -4.93333,-25.33333 -3.9,-38.3l-35.5,-22.05c-0.13333,-2.63333 0.4,-5.15 1.6,-7.55c2.1,-4.26667 4.43333,-8.33333 7,-12.2c3.7,-5.6 8.61667,-9.08333 14.75,-10.45c1.6,-0.33333 2.95,0.13333 4.05,1.4c6.8,7.53333 12.85,15.66667 18.15,24.4c5.43333,-9.1 10.93333,-18.13333 16.5,-27.1c1.83333,-2.96667 3.45,-5.95 4.85,-8.95c4.16667,-9.06667 9.85,-16.88333 17.05,-23.45c2.7,-2.43333 5.85,-3.46667 9.45,-3.1c9.86667,0.63333 15.81667,5.81667 17.85,15.55c-0.7,5.96667 -2.76667,11.5 -6.2,16.6M763.5455,314.4527c-0.46667,7.66667 -1.33333,15.25 -2.6,22.75c-0.66667,3.83333 -0.8,7.65 -0.4,11.45c2.4,22.06667 13.31667,38.48333 32.75,49.25c2.7,1.46667 4.86667,3.45 6.5,5.95c2.03333,3.16667 1.4,5.8 -1.9,7.9c-7.1,4.6 -15.01667,6.28333 -23.75,5.05c-3.03333,-0.3 -5.75,-1.33333 -8.15,-3.1c-12.96667,-9.53333 -21.93333,-22.28333 -26.9,-38.25c0.06667,3.3 0.28333,7.63333 0.65,13c0.46667,6.8 -1.36667,12.43333 -5.5,16.9c-1.13333,0.3 -2.2,0.23333 -3.2,-0.2c-10.96667,-4.3 -19.35,-11.8 -25.15,-22.5c-3.43333,-6.33333 -6.66667,-12.05 -9.7,-17.15c-0.23333,0.53333 -0.45,1.06667 -0.65,1.6c-0.23333,0.6 -0.35,1.21667 -0.35,1.85c0.16667,7.5 2.85,14.23333 8.05,20.2c3.86667,4.5 6.01667,9.68333 6.45,15.55c0.3,3.9 -1.26667,6.75 -4.7,8.55c-8.33333,4.43333 -16.91667,4.93333 -25.75,1.5c-2.9,-1.16667 -5.21667,-3.1 -6.95,-5.8c-7.46667,-11.66667 -11.28333,-24.6 -11.45,-38.8c0,-1.56667 0.06667,-3.11667 0.2,-4.65c1.7,-17.43333 7.35,-33.61667 16.95,-48.55c4.4,-6.83333 10.38333,-11.33333 17.95,-13.5c6.73333,-1.8 12.26667,-0.31667 16.6,4.45c1.1,1.26667 1.56667,2.68333 1.4,4.25c-1.5,13.36667 -1.36667,26.7 0.4,40c2.56667,-17.43333 9.46667,-32.98333 20.7,-46.65c4.96667,-0.23333 9.93333,-0.35 14.9,-0.35c1.1,0 2.18333,-0.15 3.25,-0.45c7.1,-0.23333 10.55,3.01667 10.35,9.75M846.6455,360.1527c-4.2,16.6 -14.78333,25.75 -31.75,27.45c-12.46667,1.1 -24.13333,-1.3 -35,-7.2c-1.66667,-0.93333 -3.06667,-2.15 -4.2,-3.65c-8.86667,-11.63333 -9.9,-24.23333 -3.1,-37.8c1.16667,-2.3 2.78333,-4.13333 4.85,-5.5c6.73333,-4.53333 14.26667,-7.33333 22.6,-8.4c5.96667,-0.6 11.83333,-0.28333 17.6,0.95c16.1,3.23333 25.98333,12.83333 29.65,28.8c0,1.86667 -0.21667,3.65 -0.65,5.35M812.4455,362.7527c0.8,-0.76667 1.6,-1.51667 2.4,-2.25c3.46667,-3.33333 3.45,-6.78333 -0.05,-10.35c-4.56667,-4.6 -9.71667,-6.43333 -15.45,-5.5c-0.53333,2.06667 -0.88333,4.21667 -1.05,6.45c-0.36667,5.46667 1.9,9.53333 6.8,12.2l7.35,-0.55M930.7455,370.0027c-7.5,21.06667 -21.96667,35.36667 -43.4,42.9c-18.73333,6.63333 -37.86667,8.01667 -57.4,4.15l-7.25,-20.45c0.33333,-0.5 0.73333,-0.85 1.2,-1.05c7.3,-4 15,-7.23333 23.1,-9.7c1.86667,-0.63333 3.28333,-1.68333 4.25,-3.15c9.03333,-13.33333 12.08333,-28.08333 9.15,-44.25c-0.5,-2.86667 -1.9,-5.15 -4.2,-6.85c-7.3,-5.36667 -15.45,-8.43333 -24.45,-9.2c-0.83333,-4.96667 -0.56667,-9.85 0.8,-14.65c1.03333,-3.7 3.35,-5.98333 6.95,-6.85c11.9,-2.96667 23.88333,-2.73333 35.95,0.7c6.6,1.8 13.28333,3.45 20.05,4.95c13.9,3.06667 24.36667,10.7 31.4,22.9c3.46667,5.73333 5.58333,11.93333 6.35,18.6c0.83333,7.56667 0,14.88333 -2.5,21.95M906.7455,346.9527c-5.16667,-7.5 -12.48333,-11.16667 -21.95,-11c0.16667,1.33333 0.31667,2.66667 0.45,4c1.46667,15.06667 -0.36667,29.68333 -5.5,43.85c3.16667,-1.26667 6.23333,-2.65 9.2,-4.15c12.03333,-5.96667 18.46667,-15.38333 19.3,-28.25c-0.06667,-1.6 -0.56667,-3.08333 -1.5,-4.45M1011.8955,320.8527c-1.03333,2.8 -2.76667,5 -5.2,6.6c-12.56667,8.33333 -26.53333,13.06667 -41.9,14.2l0.55,5.3c5.13333,-0.5 10.26667,-0.65 15.4,-0.45c8.23333,0.73333 12.56667,4.93333 13,12.6c0.1,2.03333 -0.58333,3.66667 -2.05,4.9c-8.43333,7 -18.4,9.75 -29.9,8.25l-1.05,13.3c9.86667,-4.26667 20.25,-5.3 31.15,-3.1c10.43333,1.96667 16.11667,8.18333 17.05,18.65c0.96667,10.53333 -3.33333,17.7 -12.9,21.5c-1.6,0.7 -3.28333,0.88333 -5.05,0.55c-17.03333,-2.23333 -34.26667,-4.15 -51.7,-5.75c-1.36667,0.03333 -2.63333,0.31667 -3.8,0.85c-7.6,3.23333 -14.43333,2.75 -20.5,-1.45c-0.2,-0.8 -0.13333,-1.53333 0.2,-2.2c5.16667,-10.43333 10.65,-20.81667 16.45,-31.15c6.26667,-11.16667 8.7,-23.05 7.3,-35.65c-0.53333,-4.73333 -1.88333,-9.3 -4.05,-13.7c-3.03333,-6.16667 -4.71667,-12.45 -5.05,-18.85c0.76667,-1.03333 1.75,-1.61667 2.95,-1.75c8.7,-1.06667 17.46667,-1.21667 26.3,-0.45c2.83333,-0.06667 5.5,-0.75 8,-2.05c6.96667,-3.5 13.9,-7.16667 20.8,-11c8.46667,-4.73333 16.2,-4.56667 23.2,0.5c3.23333,6.33333 3.5,13.11667 0.8,20.35z" fill="#ffffff"/></g></g></svg>