<svg version="1.1" xmlns="http://www.w3.org/2000/svg" xmlns:xlink="http://www.w3.org/1999/xlink" width="54.97979" height="68.5054" viewBox="0,0,54.97979,68.5054"><g transform="translate(-612.51678,-336.25824)"><g data-paper-data="{&quot;isPaintingLayer&quot;:true}" fill-rule="nonzero" stroke="none" stroke-width="1" stroke-linecap="round" stroke-linejoin="miter" stroke-miterlimit="4" stroke-dasharray="" stroke-dashoffset="0" style="mix-blend-mode: normal"><path d="M660.82,336.26051c1.66667,0.06667 3,0.45 4,1.15c1.43333,1.06667 2.3,2.66667 2.6,4.8c0.23333,1.9 -0.06667,3.93333 -0.9,6.1c-0.6,1.5 -1.56667,3.31667 -2.9,5.45c-2.5,3.9 -5.16667,7.55 -8,10.95c-3.06667,3.8 -5.33333,6.68333 -6.8,8.65l-2.45,2.85c-1.72214,2.22031 -3.2888,4.12031 -4.7,5.7l-0.85,1.35l-15.2,16.85c-1.83333,1.96667 -3.3,3.25 -4.4,3.85c-0.9,0.46667 -1.83333,0.73333 -2.8,0.8c-1.06667,0.03333 -2,-0.2 -2.8,-0.7c-0.96667,-0.66667 -1.71667,-1.68333 -2.25,-3.05c-0.76667,-1.8 -1.01667,-3.68333 -0.75,-5.65c0.2,-1.56667 1.03333,-3.71667 2.5,-6.45c3.26667,-6.13333 5.83333,-10.53333 7.7,-13.2c1.06667,-1.5 3.08333,-4.06667 6.05,-7.7l6.6,-7.9c2.93333,-3.56667 4.71667,-5.76667 5.35,-6.6c2.67786,-3.56068 4.69453,-6.09401 6.05,-7.6c0.17708,-0.2026 0.34375,-0.38594 0.5,-0.55l-0.4,0.4l0.85,-1.05c1.41549,-1.85052 2.56549,-3.23385 3.45,-4.15c1.5,-1.5 3.01667,-2.6 4.55,-3.3c1.63333,-0.7 3.3,-1.03333 5,-1M654.12,346.36051l0.25,-0.45l-2.8,3.7l0.1,-0.15l-0.95,1.25c-1.6,1.7 -3.1,3.58333 -4.5,5.65l-12.35,15.1c-2.53333,2.7 -5.01667,5.93333 -7.45,9.7c-1.7,2.66667 -3.73333,6.23333 -6.1,10.7c-0.7,1.36667 -1.16667,2.43333 -1.4,3.2c-0.36667,1.23333 -0.43333,2.35 -0.2,3.35c0.43333,-0.56667 1.01667,-1.2 1.75,-1.9c0.86667,-0.8 1.5,-1.4 1.9,-1.8c0.66667,-0.66667 1.63333,-1.7 2.9,-3.1l10.7,-11.9l1.05,-1.5c5.02591,-6.06341 9.64258,-11.76341 13.85,-17.1c1.22669,-1.38398 2.52669,-3.05065 3.9,-5l-0.05,0.05l0.35,-0.5v-0.05c0.35,-0.50651 1.58333,-2.33984 3.7,-5.5c1.06667,-1.53333 1.76667,-2.75 2.1,-3.65c0.63333,-1.5 0.71667,-2.86667 0.25,-4.1c-0.96667,-0.26667 -2.08333,-0.06667 -3.35,0.6c-0.9,0.53333 -2.11667,1.66667 -3.65,3.4z" fill="#000000"/><path d="M660.87,346.46051c-0.33333,0.9 -1.03333,2.11667 -2.1,3.65c-2.11667,3.16016 -3.35,4.99349 -3.7,5.5v0.05l-0.35,0.5l0.05,-0.05c-1.37331,1.94935 -2.67331,3.61602 -3.9,5c-4.20742,5.33659 -8.82409,11.03659 -13.85,17.1l-1.05,1.5l-10.7,11.9c-1.26667,1.4 -2.23333,2.43333 -2.9,3.1c-0.4,0.4 -1.03333,1 -1.9,1.8c-0.73333,0.7 -1.31667,1.33333 -1.75,1.9c-0.23333,-1 -0.16667,-2.11667 0.2,-3.35c0.23333,-0.76667 0.7,-1.83333 1.4,-3.2c2.36667,-4.46667 4.4,-8.03333 6.1,-10.7c2.43333,-3.76667 4.91667,-7 7.45,-9.7l12.35,-15.1c1.4,-2.06667 2.9,-3.95 4.5,-5.65l0.95,-1.25l-0.1,0.15l2.8,-3.7l-0.25,0.45c1.53333,-1.73333 2.75,-2.86667 3.65,-3.4c1.26667,-0.66667 2.38333,-0.86667 3.35,-0.6c0.46667,1.23333 0.38333,2.6 -0.25,4.1z" fill="#ffffff"/></g></g></svg>