<svg version="1.1" xmlns="http://www.w3.org/2000/svg" xmlns:xlink="http://www.w3.org/1999/xlink" width="44.4" height="65.01179" viewBox="0,0,44.4,65.01179"><g transform="translate(-613.4455,-338.03813)"><g data-paper-data="{&quot;isPaintingLayer&quot;:true}" fill-rule="nonzero" stroke="none" stroke-width="1" stroke-linecap="round" stroke-linejoin="miter" stroke-miterlimit="4" stroke-dasharray="" stroke-dashoffset="0" style="mix-blend-mode: normal"><path d="M646.2955,342.59051c4.23333,2.6 7.23333,6.06667 9,10.4c0.9,2.16667 1.5,4.73333 1.8,7.7c0.1,1.16667 0.25,3.83333 0.45,8c0.2,4.26667 0.3,7.05 0.3,8.35c-0.03333,3.1 -0.38333,5.81667 -1.05,8.15c-1.66667,5.6 -5.25,10.26667 -10.75,14c-4.13333,2.7 -8.1,3.98333 -11.9,3.85c-3.93333,-0.1 -7.65,-1.51667 -11.15,-4.25c-2.46667,-1.96667 -4.46667,-4.36667 -6,-7.2c-1.53333,-2.8 -2.45,-5.76667 -2.75,-8.9c-0.93333,-5.8 -1.05,-12.75 -0.35,-20.85c0.33333,-3.7 0.83333,-6.76667 1.5,-9.2c0.93333,-3.3 2.4,-6.03333 4.4,-8.2c1.23333,-1.3 3.38333,-2.88333 6.45,-4.75c1.33333,-0.8 2.45,-1.3 3.35,-1.5c1.06667,-0.26667 2.66667,-0.18333 4.8,0.25c4.96667,1.03333 8.93333,2.41667 11.9,4.15M626.5955,345.29051c-2.7,1.96667 -4.68333,4.51667 -5.95,7.65c-1.8,8.76667 -2.25,17.63333 -1.35,26.6c0.53333,4.53333 1.48333,7.9 2.85,10.1c1.46667,2.23333 3.71667,4.11667 6.75,5.65c2,0.96667 3.83333,1.46667 5.5,1.5c2.03333,0.06667 4.3,-0.58333 6.8,-1.95c2.46667,-1.33333 4.51667,-2.96667 6.15,-4.9c1.83333,-2.13333 3.01667,-4.4 3.55,-6.8c0.3,-1.3 0.45,-2.86667 0.45,-4.7c-0.06667,-2.1 -0.13333,-3.7 -0.2,-4.8c0.06667,-3.03333 0.1,-5.3 0.1,-6.8c0,-2.7 -0.18333,-4.96667 -0.55,-6.8c-0.43333,-2.63333 -1.28333,-5.01667 -2.55,-7.15c-1.36667,-2.26667 -3.1,-4.06667 -5.2,-5.4c-1.23333,-0.73333 -2.71667,-1.36667 -4.45,-1.9c-1,-0.33333 -2.58333,-0.75 -4.75,-1.25c-2.2,-0.53333 -3.85,-0.61667 -4.95,-0.25c-0.66667,0.23333 -1.4,0.63333 -2.2,1.2M636.8955,377.29051c2.16667,2.66667 3.5,4.3 4,4.9c0.93333,1.26667 1.36667,2.31667 1.3,3.15c-0.13333,1.16667 -0.95,2.18333 -2.45,3.05c-1.46667,0.83333 -2.86667,1.31667 -4.2,1.45c-1.26667,0.1 -2.41667,-0.05 -3.45,-0.45c-1.33333,-0.63333 -2.4,-1.83333 -3.2,-3.6c-0.73333,-1.63333 -1.21667,-4.31667 -1.45,-8.05c-0.06667,-1.63333 0.1,-2.8 0.5,-3.5c0.16667,-0.23333 0.45,-0.56667 0.85,-1c0.5,-0.46667 0.85,-0.75 1.05,-0.85c0.73333,-0.3 1.61667,-0.06667 2.65,0.7c1.06667,0.7 2.53333,2.1 4.4,4.2M634.6955,384.59051l1.05,-0.15l-2.8,-3.5c0.06667,1.2 0.38333,2.3 0.95,3.3c0.16667,0.2 0.3,0.31667 0.4,0.35h0.4M644.5455,371.89051c-0.26667,0.86667 -0.78333,1.45 -1.55,1.75c-0.9,0.33333 -1.96667,0 -3.2,-1c-2.76667,-2.16667 -5.85,-5.81667 -9.25,-10.95l0.15,0.25l-0.7,-1l0.2,0.35c-1.13333,-1.33333 -1.8,-2.55 -2,-3.65c-0.26667,-1.06667 -0.2,-2.11667 0.2,-3.15c0.46667,-1.1 1.16667,-1.9 2.1,-2.4c0.93333,-0.5 2.16667,-0.65 3.7,-0.45c1.93333,0.3 3.58333,1.08333 4.95,2.35c1.36667,1.3 2.56667,3.5 3.6,6.6c1.06667,3.56667 1.7,6.56667 1.9,9c0.06667,1.06667 0.03333,1.83333 -0.1,2.3M637.8955,363.09051c-0.36667,-1.83333 -0.81667,-3.2 -1.35,-4.1c-0.93333,-1.5 -2.13333,-2.25 -3.6,-2.25l-0.1,0.9c2.16667,1.8 3.85,3.61667 5.05,5.45z" fill="#000000"/><path d="M628.7955,344.09051c1.1,-0.36667 2.75,-0.28333 4.95,0.25c2.16667,0.5 3.75,0.91667 4.75,1.25c1.73333,0.53333 3.21667,1.16667 4.45,1.9c2.1,1.33333 3.83333,3.13333 5.2,5.4c1.26667,2.13333 2.11667,4.51667 2.55,7.15c0.36667,1.83333 0.55,4.1 0.55,6.8c0,1.5 -0.03333,3.76667 -0.1,6.8c0.06667,1.1 0.13333,2.7 0.2,4.8c0,1.83333 -0.15,3.4 -0.45,4.7c-0.53333,2.4 -1.71667,4.66667 -3.55,6.8c-1.63333,1.93333 -3.68333,3.56667 -6.15,4.9c-2.5,1.36667 -4.76667,2.01667 -6.8,1.95c-1.66667,-0.03333 -3.5,-0.53333 -5.5,-1.5c-3.03333,-1.53333 -5.28333,-3.41667 -6.75,-5.65c-1.36667,-2.2 -2.31667,-5.56667 -2.85,-10.1c-0.9,-8.96667 -0.45,-17.83333 1.35,-26.6c1.26667,-3.13333 3.25,-5.68333 5.95,-7.65c0.8,-0.56667 1.53333,-0.96667 2.2,-1.2M644.6455,369.59051c-0.2,-2.43333 -0.83333,-5.43333 -1.9,-9c-1.03333,-3.1 -2.23333,-5.3 -3.6,-6.6c-1.36667,-1.26667 -3.01667,-2.05 -4.95,-2.35c-1.53333,-0.2 -2.76667,-0.05 -3.7,0.45c-0.93333,0.5 -1.63333,1.3 -2.1,2.4c-0.4,1.03333 -0.46667,2.08333 -0.2,3.15c0.2,1.1 0.86667,2.31667 2,3.65l-0.2,-0.35l0.7,1l-0.15,-0.25c3.4,5.13333 6.48333,8.78333 9.25,10.95c1.23333,1 2.3,1.33333 3.2,1c0.76667,-0.3 1.28333,-0.88333 1.55,-1.75c0.13333,-0.46667 0.16667,-1.23333 0.1,-2.3M629.8455,372.39051c-0.2,0.1 -0.55,0.38333 -1.05,0.85c-0.4,0.43333 -0.68333,0.76667 -0.85,1c-0.4,0.7 -0.56667,1.86667 -0.5,3.5c0.23333,3.73333 0.71667,6.41667 1.45,8.05c0.8,1.76667 1.86667,2.96667 3.2,3.6c1.03333,0.4 2.18333,0.55 3.45,0.45c1.33333,-0.13333 2.73333,-0.61667 4.2,-1.45c1.5,-0.86667 2.31667,-1.88333 2.45,-3.05c0.06667,-0.83333 -0.36667,-1.88333 -1.3,-3.15c-0.5,-0.6 -1.83333,-2.23333 -4,-4.9c-1.86667,-2.1 -3.33333,-3.5 -4.4,-4.2c-1.03333,-0.76667 -1.91667,-1 -2.65,-0.7z" fill="#ffffff"/></g></g></svg>