<svg version="1.1" xmlns="http://www.w3.org/2000/svg" xmlns:xlink="http://www.w3.org/1999/xlink" width="55.4" height="62.75" viewBox="0,0,55.4,62.75"><g transform="translate(-608.10811,-337.83784)"><g data-paper-data="{&quot;isPaintingLayer&quot;:true}" fill-rule="nonzero" stroke="none" stroke-width="1" stroke-linecap="butt" stroke-linejoin="miter" stroke-miterlimit="10" stroke-dasharray="" stroke-dashoffset="0" style="mix-blend-mode: normal"><path d="M654.10811,343.08784c0.3,1.33333 0.56667,2.68333 0.8,4.05c0.03333,0.06667 0.06667,0.15 0.1,0.25c0.03333,0.1 0.06667,0.2 0.1,0.3c0.03333,0.06667 0.05,0.15 0.05,0.25c0.03333,0.1 0.06667,0.18333 0.1,0.25c0,0.1 0,0.2 0,0.3c0,0.06667 0,0.15 0,0.25c0.06667,0.16667 0.11667,0.35 0.15,0.55c0.06667,0.46667 0.18333,0.91667 0.35,1.35c0.1,0.23333 0.2,0.5 0.3,0.8c0,0.06667 0,0.15 0,0.25c0,0.1 0,0.18333 0,0.25c0.03333,0.1 0.06667,0.2 0.1,0.3c0.03333,0.06667 0.06667,0.15 0.1,0.25c0.06667,0.16667 0.11667,0.35 0.15,0.55c0.03333,0.06667 0.06667,0.15 0.1,0.25c0,0.1 0,0.18333 0,0.25c0,0.1 0,0.2 0,0.3c0,0.06667 0,0.15 0,0.25c0.06667,0.16667 0.11667,0.35 0.15,0.55c0.03333,0.43333 0.13333,0.88333 0.3,1.35c0.1,0.23333 0.2,0.5 0.3,0.8c0,0.06667 0,0.15 0,0.25c0,0.1 0,0.18333 0,0.25c0,0.2 0,0.38333 0,0.55c0,0.1 0,0.18333 0,0.25c0,0.1 0.01667,0.2 0.05,0.3c0.06667,0.16667 0.11667,0.35 0.15,0.55c0.06667,0.23333 0.1,0.5 0.1,0.8c0.03333,0.06667 0.05,0.15 0.05,0.25c0.03333,0.1 0.05,0.18333 0.05,0.25c0.03333,0.1 0.06667,0.2 0.1,0.3c0.03333,0.06667 0.06667,0.15 0.1,0.25c0.03333,0.1 0.06667,0.18333 0.1,0.25c0,0.1 0,0.2 0,0.3c0,0.06667 0,0.15 0,0.25c0,0.1 0,0.18333 0,0.25c0,0.1 0,0.2 0,0.3c0.03333,0.06667 0.06667,0.15 0.1,0.25c0,0.1 0.01667,0.18333 0.05,0.25c0.03333,0.1 0.06667,0.2 0.1,0.3c0.03333,0.1 0.06667,0.18333 0.1,0.25c0,0.1 0,0.2 0,0.3c0,0.06667 0,0.15 0,0.25c0,0.1 0,0.18333 0,0.25c0,0.1 0,0.2 0,0.3c0.03333,0.06667 0.06667,0.15 0.1,0.25c0.03333,0.1 0.06667,0.18333 0.1,0.25c0,0.1 0.01667,0.2 0.05,0.3c0.03333,0.06667 0.06667,0.15 0.1,0.25c0,0.1 0,0.18333 0,0.25c0,0.1 0,0.2 0,0.3c0,0.06667 0,0.15 0,0.25c0.06667,0.16667 0.13333,0.35 0.2,0.55c0.13333,0.33333 0.23333,0.68333 0.3,1.05c0.06667,0.26667 0.13333,0.53333 0.2,0.8c0,0.1 0,0.2 0,0.3c0,0.06667 0,0.15 0,0.25c0,0.1 0,0.18333 0,0.25c0,0.1 0,0.2 0,0.3c0.06667,0.16667 0.13333,0.33333 0.2,0.5c0.06667,0.26667 0.15,0.55 0.25,0.85c0.1,0.23333 0.2,0.5 0.3,0.8c0,0.06667 0,0.15 0,0.25c0,0.1 0,0.18333 0,0.25c0,0.1 0,0.2 0,0.3c0.03333,0.06667 0.05,0.15 0.05,0.25c0.03333,0.1 0.06667,0.18333 0.1,0.25c0.03333,0.1 0.06667,0.2 0.1,0.3c0.03333,0.06667 0.06667,0.15 0.1,0.25c0,0.1 0,0.18333 0,0.25c0,0.1 0,0.2 0,0.3c0.06667,0.26667 0.13333,0.53333 0.2,0.8c0.1,0.43333 0.15,0.88333 0.15,1.35c0,0.23333 0,0.5 0,0.8c0.03333,0.06667 0.06667,0.15 0.1,0.25c0.03333,0.1 0.06667,0.18333 0.1,0.25c0,0.1 0.01667,0.2 0.05,0.3c0.03333,0.06667 0.06667,0.15 0.1,0.25c0,0.1 0,0.2 0,0.3c0,0.06667 0,0.15 0,0.25c0.03333,0.1 0.06667,0.18333 0.1,0.25c0.03333,0.1 0.06667,0.2 0.1,0.3c0.03333,0.16667 0.08333,0.33333 0.15,0.5c0.03333,0.1 0.06667,0.2 0.1,0.3c0,0.06667 0,0.15 0,0.25c0,0.1 0,0.18333 0,0.25c0.03333,0.1 0.06667,0.2 0.1,0.3c0.03333,0.06667 0.06667,0.15 0.1,0.25c0,0.1 0.01667,0.18333 0.05,0.25c0,0.1 0,0.2 0,0.3c0,0.06667 0,0.15 0,0.25c0,0.1 0,0.2 0,0.3c0.13333,0.33333 0.23333,0.68333 0.3,1.05c0.16667,0.63333 0.36667,1.26667 0.6,1.9c0.06667,0.16667 0.13333,0.33333 0.2,0.5c0,0.1 0,0.2 0,0.3c0,0.06667 0,0.15 0,0.25c0,0.1 0,0.18333 0,0.25c0,0.1 0,0.2 0,0.3c0.03333,0.06667 0.06667,0.15 0.1,0.25c0,0.1 0.01667,0.18333 0.05,0.25c0.03333,0.1 0.06667,0.2 0.1,0.3c0,0.06667 0,0.15 0,0.25c0,0.1 0,0.18333 0,0.25c0,0.2 0,0.38333 0,0.55c0,0.1 0,0.18333 0,0.25c0.03333,0.1 0.06667,0.2 0.1,0.3c0.03333,0.06667 0.06667,0.15 0.1,0.25c0.03333,0.1 0.06667,0.18333 0.1,0.25c0,0.2 -0.01667,0.38333 -0.05,0.55c0,0.36667 -0.06667,0.71667 -0.2,1.05c-0.13333,0.26667 -0.26667,0.55 -0.4,0.85c-1.3,1.3 -2.8,2.35 -4.5,3.15c0.13333,0 0.28333,0.01667 0.45,0.05c-0.16667,0.03333 -0.31667,0.08333 -0.45,0.15c-4.9,1.86667 -8.53333,3.56667 -10.9,5.1c-0.03333,-0.1 -0.06667,-0.2 -0.1,-0.3c-0.83333,-2.16667 -1.33333,-3.48333 -1.5,-3.95c-0.1,-0.26667 -0.2,-0.51667 -0.3,-0.75c0,-0.1 0,-0.18333 0,-0.25c0,-0.1 0,-0.18333 0,-0.25c0,-0.1 -0.01667,-0.18333 -0.05,-0.25c-0.06667,-0.2 -0.13333,-0.4 -0.2,-0.6c-0.1,-0.16667 -0.16667,-0.33333 -0.2,-0.5c0,-0.1 0,-0.2 0,-0.3c0,-0.06667 0,-0.15 0,-0.25c0,-0.1 0,-0.18333 0,-0.25c-0.23333,-0.63333 -0.41667,-1.26667 -0.55,-1.9c-0.23333,-0.9 -0.53333,-1.78333 -0.9,-2.65c0,-0.1 0,-0.2 0,-0.3c0,-0.06667 0,-0.15 0,-0.25c0,-0.1 0,-0.18333 0,-0.25c-0.56667,-1.53333 -1.08333,-3.08333 -1.55,-4.65c-0.43333,-1.4 -0.86667,-2.8 -1.3,-4.2c0,0.06667 0,0.11667 0,0.15c-0.03333,0.1 -0.06667,0.2 -0.1,0.3c-0.06667,0.06667 -0.11667,0.15 -0.15,0.25c0,0.1 0,0.2 0,0.3c0,0.06667 0,0.15 0,0.25c-0.26667,0.7 -0.51667,1.41667 -0.75,2.15c-0.33333,0.9 -0.68333,1.78333 -1.05,2.65c0,0.1 0,0.2 0,0.3c0,0.06667 0,0.15 0,0.25c-0.2,0.63333 -0.4,1.26667 -0.6,1.9c-0.23333,0.83333 -0.56667,1.63333 -1,2.4c-0.86667,0.9 -1.9,1.2 -3.1,0.9c-0.4,-0.1 -0.8,-0.23333 -1.2,-0.4c-0.16667,-0.16667 -0.33333,-0.35 -0.5,-0.55c-0.23333,-0.33333 -0.45,-0.68333 -0.65,-1.05c-0.06667,-0.06667 -0.13333,-0.15 -0.2,-0.25c-0.43333,-1.53333 -0.86667,-3.06667 -1.3,-4.6c-0.36667,-1.43333 -0.81667,-2.85 -1.35,-4.25c0,-0.1 0,-0.18333 0,-0.25c0,-0.1 0,-0.2 0,-0.3c-0.1,-0.16667 -0.16667,-0.35 -0.2,-0.55c-0.03333,-0.3 -0.11667,-0.56667 -0.25,-0.8c-0.1,-0.16667 -0.16667,-0.33333 -0.2,-0.5h-0.05c-0.03333,0.1 -0.05,0.18333 -0.05,0.25c0,0.2 0,0.38333 0,0.55c0,0.1 0,0.18333 0,0.25c0,0.1 -0.01667,0.2 -0.05,0.3c-0.03333,0.06667 -0.06667,0.15 -0.1,0.25c-0.06667,0.16667 -0.13333,0.35 -0.2,0.55c0,0.06667 0,0.15 0,0.25c0,0.1 0,0.2 0,0.3c0,0.06667 0,0.15 0,0.25c0,0.1 0,0.18333 0,0.25c-0.03333,0.1 -0.05,0.2 -0.05,0.3c-0.03333,0.06667 -0.06667,0.15 -0.1,0.25c-0.06667,0.16667 -0.13333,0.35 -0.2,0.55c0,0.06667 0,0.15 0,0.25c0,0.1 0,0.18333 0,0.25c-0.03333,0.1 -0.06667,0.2 -0.1,0.3c-0.03333,0.06667 -0.05,0.15 -0.05,0.25c-0.06667,0.16667 -0.13333,0.35 -0.2,0.55c0,0.06667 0,0.15 0,0.25c-0.03333,0.2 -0.05,0.38333 -0.05,0.55c0,0.3 -0.1,0.56667 -0.3,0.8c0,0.16667 0,0.35 0,0.55c0,0.36667 -0.05,0.71667 -0.15,1.05c-0.06667,0.16667 -0.13333,0.35 -0.2,0.55c0,0.06667 0,0.15 0,0.25c0,0.1 0,0.18333 0,0.25c0,0.1 0,0.2 0,0.3c-0.03333,0.1 -0.06667,0.18333 -0.1,0.25c-0.03333,0.1 -0.06667,0.2 -0.1,0.3c-0.06667,0.16667 -0.11667,0.33333 -0.15,0.5c0,0.1 0,0.2 0,0.3c0,0.06667 0,0.15 0,0.25c0,0.1 0,0.18333 0,0.25c0,0.1 0,0.2 0,0.3c-0.03333,0.06667 -0.06667,0.15 -0.1,0.25c-0.03333,0.1 -0.06667,0.18333 -0.1,0.25c-0.06667,0.2 -0.13333,0.38333 -0.2,0.55c0,0.1 0,0.18333 0,0.25c0,0.1 0,0.2 0,0.3c0,0.1 0,0.18333 0,0.25c0,0.1 0,0.2 0,0.3c-0.03333,0.16667 -0.08333,0.33333 -0.15,0.5c-0.13333,0.36667 -0.2,0.73333 -0.2,1.1c-0.03333,0.3 -0.15,0.56667 -0.35,0.8c-0.23333,4.26667 -2.43333,5.61667 -6.6,4.05c-2.4,-0.9 -4.81667,-1.71667 -7.25,-2.45c-1.46667,-0.46667 -2.45,-1.41667 -2.95,-2.85c0,-0.36667 0.01667,-0.73333 0.05,-1.1c0,-0.6 0.01667,-1.21667 0.05,-1.85c0,-0.2 0,-0.38333 0,-0.55c0.03333,-0.1 0.06667,-0.18333 0.1,-0.25c0.03333,-0.1 0.06667,-0.2 0.1,-0.3c0.06667,-0.16667 0.11667,-0.33333 0.15,-0.5c0,-0.3 0,-0.56667 0,-0.8c0,-0.46667 0.05,-0.91667 0.15,-1.35c0.06667,-0.2 0.15,-0.38333 0.25,-0.55c0,-0.16667 0,-0.35 0,-0.55c0,-0.33333 0.03333,-0.68333 0.1,-1.05c0.06667,-0.16667 0.15,-0.35 0.25,-0.55c0,-0.33333 -0.01667,-0.68333 -0.05,-1.05c0,-0.53333 0.06667,-1.06667 0.2,-1.6c0.03333,-0.2 0.1,-0.38333 0.2,-0.55c0,-0.1 0,-0.18333 0,-0.25c0,-0.2 0,-0.38333 0,-0.55c0,-0.26667 0,-0.53333 0,-0.8c0.03333,-0.1 0.06667,-0.18333 0.1,-0.25c0.03333,-0.1 0.05,-0.2 0.05,-0.3c0.06667,-0.16667 0.13333,-0.35 0.2,-0.55c0,-0.06667 0,-0.15 0,-0.25c0,-0.1 0,-0.18333 0,-0.25c0,-0.1 0,-0.2 0,-0.3c0,-0.06667 0,-0.15 0,-0.25c0.03333,-0.1 0.06667,-0.18333 0.1,-0.25c0.03333,-0.1 0.06667,-0.2 0.1,-0.3c0.03333,-0.16667 0.08333,-0.33333 0.15,-0.5c0,-0.1 0,-0.2 0,-0.3c0,-0.06667 0,-0.15 0,-0.25c0,-0.1 0,-0.18333 0,-0.25c0,-0.1 0,-0.2 0,-0.3c0.03333,-0.1 0.06667,-0.18333 0.1,-0.25c0.06667,-0.2 0.11667,-0.38333 0.15,-0.55c0.06667,-0.16667 0.13333,-0.35 0.2,-0.55c0,-0.06667 0,-0.15 0,-0.25c0,-0.26667 0,-0.53333 0,-0.8c0,-0.26667 0,-0.53333 0,-0.8c0.03333,-0.1 0.06667,-0.18333 0.1,-0.25c0.03333,-0.1 0.06667,-0.2 0.1,-0.3c0.03333,-0.16667 0.08333,-0.35 0.15,-0.55c0,-0.26667 0,-0.53333 0,-0.8c0,-0.43333 0.05,-0.86667 0.15,-1.3c0.06667,-0.2 0.13333,-0.38333 0.2,-0.55c0,-0.16667 0,-0.35 0,-0.55c0,-0.36667 0.05,-0.71667 0.15,-1.05c0.06667,-0.2 0.13333,-0.38333 0.2,-0.55c-0.03333,-0.46667 0.01667,-0.91667 0.15,-1.35c0.16667,-0.6 0.35,-1.21667 0.55,-1.85c0.03333,-0.1 0.08333,-0.2 0.15,-0.3c-0.06667,-0.26667 -0.06667,-0.53333 0,-0.8c0.1,-0.56667 0.3,-1.1 0.6,-1.6c0.06667,-0.06667 0.13333,-0.15 0.2,-0.25c0,-0.1 0,-0.2 0,-0.3c0,-0.06667 0,-0.15 0,-0.25c0,-0.1 0,-0.18333 0,-0.25c0.03333,-0.1 0.05,-0.2 0.05,-0.3c0.03333,-0.06667 0.08333,-0.15 0.15,-0.25c0.03333,-0.1 0.08333,-0.18333 0.15,-0.25c0,-0.2 0,-0.38333 0,-0.55c0.06667,-0.36667 0.15,-0.71667 0.25,-1.05c0.06667,-0.2 0.13333,-0.38333 0.2,-0.55c0,-0.1 0,-0.2 0,-0.3c0,-0.06667 0,-0.15 0,-0.25c0.03333,-0.1 0.05,-0.18333 0.05,-0.25c0.03333,-0.1 0.06667,-0.2 0.1,-0.3c0.06667,-0.16667 0.13333,-0.33333 0.2,-0.5c0,-0.1 0,-0.2 0,-0.3c0,-0.06667 0,-0.15 0,-0.25c0,-0.1 0,-0.18333 0,-0.25c0.03333,-0.1 0.06667,-0.2 0.1,-0.3c0.03333,-0.06667 0.06667,-0.15 0.1,-0.25c0.06667,-0.16667 0.15,-0.35 0.25,-0.55c0,-0.06667 0,-0.15 0,-0.25c0,-0.1 0,-0.18333 0,-0.25c0.03333,-0.1 0.06667,-0.2 0.1,-0.3c0,-0.1 0.01667,-0.18333 0.05,-0.25c0.06667,-0.2 0.13333,-0.38333 0.2,-0.55c0,-0.1 0,-0.18333 0,-0.25c0,-0.1 0,-0.2 0,-0.3c0.06667,-0.16667 0.11667,-0.33333 0.15,-0.5c0.13333,-0.36667 0.26667,-0.73333 0.4,-1.1c0.03333,-0.06667 0.06667,-0.13333 0.1,-0.2c-0.03333,-0.06667 -0.05,-0.11667 -0.05,-0.15c0,-0.1 -0.01667,-0.18333 -0.05,-0.25c0,-0.1 0,-0.2 0,-0.3c0,-0.06667 0,-0.15 0,-0.25c0,-0.1 0,-0.18333 0,-0.25c0,-0.1 0,-0.2 0,-0.3c0.03333,-0.06667 0.05,-0.15 0.05,-0.25c0.03333,-0.1 0.06667,-0.18333 0.1,-0.25c0,-0.2 0,-0.38333 0,-0.55c0,-0.26667 0,-0.53333 0,-0.8c0,-0.3 0,-0.56667 0,-0.8c0.03333,-0.1 0.06667,-0.2 0.1,-0.3c0.03333,-0.06667 0.06667,-0.15 0.1,-0.25c0,-0.16667 0,-0.35 0,-0.55c0.03333,-0.26667 0.03333,-0.53333 0,-0.8c-0.06667,-0.33333 -0.1,-0.68333 -0.1,-1.05c0.03333,-0.1 0.06667,-0.18333 0.1,-0.25c0.06667,-0.2 0.16667,-0.38333 0.3,-0.55c0.16667,-0.3 0.38333,-0.56667 0.65,-0.8c4.33333,-0.93333 8.65,-1.33333 12.95,-1.2c0.4,0.1 0.78333,0.23333 1.15,0.4c0.3,0.1 0.58333,0.25 0.85,0.45c0.03333,0.06667 0.08333,0.15 0.15,0.25c0.03333,0.1 0.06667,0.18333 0.1,0.25c0.1,0.2 0.18333,0.38333 0.25,0.55c0.06667,0.16667 0.13333,0.35 0.2,0.55c0,0.16667 0,0.33333 0,0.5c0.03333,0.3 0.01667,0.58333 -0.05,0.85c-0.03333,0.23333 -0.05,0.5 -0.05,0.8c0.03333,0.06667 0.06667,0.15 0.1,0.25c0.03333,0.1 0.06667,0.18333 0.1,0.25c0.03333,0.1 0.05,0.2 0.05,0.3c0,0.06667 0,0.15 0,0.25c0,0.1 -0.01667,0.18333 -0.05,0.25c0,0.1 0,0.2 0,0.3c0.03333,0.06667 0.05,0.15 0.05,0.25c0.06667,0.16667 0.13333,0.35 0.2,0.55c0,0.06667 0,0.15 0,0.25c0,0.1 0,0.18333 0,0.25c0.03333,0.1 0.06667,0.2 0.1,0.3c0.03333,0.06667 0.06667,0.15 0.1,0.25c0,0.1 0.01667,0.2 0.05,0.3c0.03333,0.06667 0.06667,0.15 0.1,0.25c0,0.1 0,0.18333 0,0.25c-0.03333,0.1 -0.05,0.2 -0.05,0.3c-0.03333,0.06667 -0.05,0.15 -0.05,0.25c0,0.1 0.01667,0.18333 0.05,0.25c0,0.1 0.01667,0.2 0.05,0.3c0.03333,0.06667 0.06667,0.15 0.1,0.25c0.06667,0.16667 0.13333,0.35 0.2,0.55c0,0.06667 0,0.15 0,0.25c0,0.1 0,0.18333 0,0.25c0,0.1 0,0.2 0,0.3c0,0.06667 0,0.15 0,0.25c0,0.1 0.01667,0.2 0.05,0.3c0.03333,0.06667 0.06667,0.15 0.1,0.25c0.03333,0.1 0.06667,0.18333 0.1,0.25c0.03333,0.1 0.06667,0.2 0.1,0.3c0,0.06667 0,0.15 0,0.25c0,0.1 0,0.18333 0,0.25c0.03333,0.1 0.06667,0.18333 0.1,0.25c0.03333,0.1 0.08333,0.2 0.15,0.3c0.03333,0.1 0.05,0.18333 0.05,0.25c0.03333,0.1 0.05,0.2 0.05,0.3c0,0.03333 0,0.06667 0,0.1c0.03333,-0.06667 0.05,-0.13333 0.05,-0.2c0.03333,-0.1 0.05,-0.18333 0.05,-0.25c0,-0.1 0.01667,-0.2 0.05,-0.3c0.06667,-0.16667 0.13333,-0.33333 0.2,-0.5c0,-0.1 0,-0.2 0,-0.3c0,-0.1 0,-0.18333 0,-0.25c0,-0.1 0,-0.2 0,-0.3c0,-0.06667 0,-0.15 0,-0.25c0.03333,-0.1 0.06667,-0.18333 0.1,-0.25c0.03333,-0.1 0.05,-0.2 0.05,-0.3c0.03333,-0.06667 0.06667,-0.15 0.1,-0.25c0,-0.1 0,-0.18333 0,-0.25c0,-0.1 0,-0.2 0,-0.3c0.03333,-0.06667 0.06667,-0.15 0.1,-0.25c0.03333,-0.1 0.06667,-0.18333 0.1,-0.25c0,-0.1 0,-0.2 0,-0.3c0,-0.06667 0,-0.15 0,-0.25c0.03333,-0.1 0.06667,-0.18333 0.1,-0.25c0.03333,-0.1 0.05,-0.2 0.05,-0.3c0,-0.1 0,-0.18333 0,-0.25c0,-0.1 0.01667,-0.18333 0.05,-0.25c0,-0.1 0.01667,-0.2 0.05,-0.3c0.03333,-0.16667 0.06667,-0.35 0.1,-0.55c-0.03333,-0.06667 -0.05,-0.15 -0.05,-0.25c-0.03333,-0.1 -0.05,-0.18333 -0.05,-0.25c0,-0.1 0,-0.2 0,-0.3c0,-0.06667 0,-0.15 0,-0.25c0.03333,-0.1 0.06667,-0.18333 0.1,-0.25c0.03333,-0.1 0.06667,-0.2 0.1,-0.3c0,-0.06667 0,-0.15 0,-0.25c0,-0.1 0,-0.18333 0,-0.25c0,-0.1 0,-0.2 0,-0.3c0,-0.1 0,-0.18333 0,-0.25c0.06667,-0.2 0.11667,-0.38333 0.15,-0.55c0.06667,-0.26667 0.13333,-0.53333 0.2,-0.8c0.1,-0.36667 0.21667,-0.71667 0.35,-1.05c0.1,-0.1 0.18333,-0.2 0.25,-0.3c0.06667,-0.06667 0.13333,-0.15 0.2,-0.25c0.1,-0.1 0.18333,-0.18333 0.25,-0.25c3.36667,-0.63333 6.78333,-1.28333 10.25,-1.95c0.73333,-0.13333 1.43333,-0.16667 2.1,-0.1c0.06667,-0.03333 0.11667,-0.06667 0.15,-0.1c0.26667,-0.03333 0.53333,-0.08333 0.8,-0.15v-0.05c0.26667,0.06667 0.53333,0.13333 0.8,0.2c0.16667,0.06667 0.31667,0.15 0.45,0.25c0.13333,0.1 0.26667,0.18333 0.4,0.25c0.03333,0.1 0.08333,0.2 0.15,0.3c0.03333,0.03333 0.06667,0.08333 0.1,0.15c0.16667,0.1 0.33333,0.21667 0.5,0.35c0.6,0.43333 0.96667,1 1.1,1.7c0,0.2 -0.01667,0.38333 -0.05,0.55c-0.03333,0.23333 -0.06667,0.48333 -0.1,0.75c0.03333,0.23333 0.08333,0.48333 0.15,0.75M648.85811,344.98784c-0.03333,-0.1 -0.06667,-0.18333 -0.1,-0.25c-2.53333,0.56667 -5.15,0.88333 -7.85,0.95c-0.06667,0.1 -0.11667,0.2 -0.15,0.3c-0.06667,0.06667 -0.11667,0.15 -0.15,0.25c-0.03333,0.1 -0.08333,0.18333 -0.15,0.25c-0.06667,0.1 -0.13333,0.2 -0.2,0.3c-0.13333,0.63333 -0.35,1.25 -0.65,1.85c-0.46667,0.96667 -0.9,1.95 -1.3,2.95c0,0.1 0,0.18333 0,0.25c0,0.1 0,0.2 0,0.3c0,0.06667 0,0.15 0,0.25c-0.1,0.3 -0.21667,0.58333 -0.35,0.85c-0.23333,0.43333 -0.45,0.86667 -0.65,1.3c-0.06667,0.16667 -0.15,0.35 -0.25,0.55c0,0.06667 0,0.15 0,0.25c0,0.1 0,0.18333 0,0.25c0,0.1 0,0.2 0,0.3c-0.03333,0.06667 -0.06667,0.15 -0.1,0.25c-0.06667,0.1 -0.11667,0.18333 -0.15,0.25c-0.06667,0.1 -0.13333,0.2 -0.2,0.3c-0.03333,0.16667 -0.06667,0.33333 -0.1,0.5c-0.1,0.3 -0.21667,0.58333 -0.35,0.85c-0.1,0.26667 -0.21667,0.53333 -0.35,0.8c0,0.06667 0,0.15 0,0.25c0,0.1 0,0.18333 0,0.25c-0.03333,0.1 -0.06667,0.2 -0.1,0.3c-0.03333,0.06667 -0.06667,0.15 -0.1,0.25c0,0.1 0,0.18333 0,0.25c0,0.1 0,0.2 0,0.3c0,0.1 -0.01667,0.18333 -0.05,0.25c-0.03333,0.1 -0.06667,0.2 -0.1,0.3c-0.03333,0.06667 -0.06667,0.15 -0.1,0.25c-0.03333,0.1 -0.08333,0.18333 -0.15,0.25c-0.06667,0.1 -0.16667,0.2 -0.3,0.3c-0.1,0.03333 -0.18333,0.08333 -0.25,0.15c-0.16667,0.03333 -0.31667,0.06667 -0.45,0.1c-0.2,-0.06667 -0.4,-0.13333 -0.6,-0.2c-0.16667,-0.06667 -0.31667,-0.15 -0.45,-0.25c-0.13333,-0.1 -0.26667,-0.18333 -0.4,-0.25c-0.03333,-0.1 -0.08333,-0.2 -0.15,-0.3c-0.03333,-0.06667 -0.06667,-0.15 -0.1,-0.25c-0.03333,-0.1 -0.06667,-0.18333 -0.1,-0.25c0,-0.1 0,-0.2 0,-0.3c0,-0.06667 0,-0.15 0,-0.25c-0.03333,-0.16667 -0.05,-0.35 -0.05,-0.55c-0.03333,-0.26667 -0.05,-0.53333 -0.05,-0.8c-0.03333,-0.1 -0.06667,-0.18333 -0.1,-0.25c-0.03333,-0.1 -0.08333,-0.2 -0.15,-0.3c-0.03333,-0.06667 -0.06667,-0.15 -0.1,-0.25c0,-0.16667 0,-0.35 0,-0.55c0,-0.23333 0,-0.5 0,-0.8c0,-0.36667 0,-0.71667 0,-1.05c-0.03333,-0.1 -0.06667,-0.18333 -0.1,-0.25c-0.03333,-0.1 -0.08333,-0.2 -0.15,-0.3c-0.03333,-0.1 -0.06667,-0.18333 -0.1,-0.25c0,-0.1 0,-0.2 0,-0.3c0,-0.06667 0,-0.15 0,-0.25c0,-0.1 0,-0.18333 0,-0.25c0,-0.2 0,-0.38333 0,-0.55c0,-0.1 0,-0.18333 0,-0.25c-0.03333,-0.1 -0.06667,-0.2 -0.1,-0.3c-0.03333,-0.06667 -0.06667,-0.15 -0.1,-0.25c-0.03333,-0.1 -0.06667,-0.2 -0.1,-0.3c-0.03333,-0.06667 -0.05,-0.15 -0.05,-0.25c0,-0.06667 0,-0.15 0,-0.25c0,-0.1 -0.01667,-0.18333 -0.05,-0.25c-0.03333,-0.1 -0.06667,-0.2 -0.1,-0.3c-0.06667,-0.16667 -0.13333,-0.35 -0.2,-0.55c0,-0.06667 0,-0.15 0,-0.25c0,-0.1 0,-0.18333 0,-0.25c0,-0.1 0,-0.2 0,-0.3c0,-0.06667 0,-0.15 0,-0.25c0,-0.1 -0.01667,-0.18333 -0.05,-0.25c-0.03333,-0.1 -0.06667,-0.2 -0.1,-0.3c-0.06667,-0.06667 -0.11667,-0.15 -0.15,-0.25c0,-0.1 -0.01667,-0.18333 -0.05,-0.25c0,-0.1 0,-0.2 0,-0.3c0,-0.06667 0,-0.15 0,-0.25c0,-0.1 0,-0.18333 0,-0.25c0,-0.1 -0.01667,-0.2 -0.05,-0.3c-0.03333,-0.1 -0.08333,-0.18333 -0.15,-0.25c-0.03333,-0.1 -0.06667,-0.2 -0.1,-0.3c-0.03333,-0.16667 -0.08333,-0.33333 -0.15,-0.5c0,-0.1 0,-0.2 0,-0.3c0,-0.06667 0,-0.15 0,-0.25c-0.06667,-0.1 -0.11667,-0.2 -0.15,-0.3c-0.06667,-0.06667 -0.11667,-0.15 -0.15,-0.25c-0.03333,-0.06667 -0.05,-0.15 -0.05,-0.25c-0.03333,-0.1 -0.06667,-0.18333 -0.1,-0.25c0,-0.1 0,-0.2 0,-0.3c0,-0.06667 -0.01667,-0.15 -0.05,-0.25c-0.03333,-0.1 -0.08333,-0.18333 -0.15,-0.25c-2.46667,0.6 -5.2,0.81667 -8.2,0.65v0.05c0.03333,0.06667 0.06667,0.15 0.1,0.25c-0.03333,0.2 -0.06667,0.38333 -0.1,0.55c-0.06667,0.36667 -0.15,0.73333 -0.25,1.1c-0.06667,0.26667 -0.16667,0.51667 -0.3,0.75c0,0.1 0,0.2 0,0.3c0,0.16667 0,0.33333 0,0.5c0,0.26667 0,0.55 0,0.85c-0.03333,0.06667 -0.06667,0.15 -0.1,0.25c-0.06667,0.26667 -0.15,0.53333 -0.25,0.8c-0.1,0.26667 -0.18333,0.53333 -0.25,0.8c0,0.1 0,0.18333 0,0.25c0,0.1 0,0.2 0,0.3c-0.03333,0.06667 -0.06667,0.15 -0.1,0.25c-0.03333,0.1 -0.06667,0.18333 -0.1,0.25c-0.03333,0.1 -0.06667,0.2 -0.1,0.3c0,0.06667 0,0.15 0,0.25c0,0.1 0,0.2 0,0.3c0,0.06667 0,0.15 0,0.25c0,0.1 0,0.18333 0,0.25c-0.03333,0.1 -0.05,0.2 -0.05,0.3c-0.03333,0.06667 -0.06667,0.15 -0.1,0.25c-0.06667,0.16667 -0.13333,0.35 -0.2,0.55c0,0.06667 0,0.15 0,0.25c0,0.1 0,0.18333 0,0.25c0,0.1 0,0.2 0,0.3c-0.03333,0.06667 -0.06667,0.15 -0.1,0.25c0,0.1 -0.01667,0.18333 -0.05,0.25c-0.03333,0.1 -0.06667,0.2 -0.1,0.3c0,0.16667 0,0.33333 0,0.5c-0.03333,0.4 -0.1,0.76667 -0.2,1.1c-0.03333,0.16667 -0.08333,0.35 -0.15,0.55c0,0.06667 0,0.15 0,0.25c0,0.1 0,0.18333 0,0.25c-0.03333,0.1 -0.06667,0.2 -0.1,0.3c-0.03333,0.06667 -0.06667,0.15 -0.1,0.25c-0.03333,0.1 -0.06667,0.18333 -0.1,0.25c0,0.1 0,0.2 0,0.3c0,0.06667 0,0.15 0,0.25c0,0.1 0,0.18333 0,0.25c0,0.1 0,0.2 0,0.3c-0.03333,0.16667 -0.1,0.33333 -0.2,0.5c-0.13333,0.26667 -0.25,0.55 -0.35,0.85c-0.03333,0.16667 -0.08333,0.33333 -0.15,0.5c0,0.1 0,0.2 0,0.3c0,0.06667 0,0.15 0,0.25c-0.03333,0.1 -0.06667,0.18333 -0.1,0.25c-0.03333,0.1 -0.05,0.2 -0.05,0.3c-0.03333,0.06667 -0.06667,0.15 -0.1,0.25c0,0.1 -0.01667,0.18333 -0.05,0.25c0,0.2 -0.01667,0.38333 -0.05,0.55c-0.03333,0.3 -0.11667,0.56667 -0.25,0.8c0,0.2 0,0.38333 0,0.55c0,0.36667 -0.05,0.71667 -0.15,1.05c-0.06667,0.2 -0.15,0.38333 -0.25,0.55c0,0.16667 0,0.35 0,0.55c0,0.36667 -0.03333,0.71667 -0.1,1.05c-0.06667,0.2 -0.15,0.38333 -0.25,0.55c0,0.1 0,0.18333 0,0.25c0,0.3 0,0.56667 0,0.8c0,0.26667 0,0.53333 0,0.8c-0.03333,0.1 -0.05,0.2 -0.05,0.3c-0.03333,0.06667 -0.06667,0.15 -0.1,0.25c-0.06667,0.2 -0.13333,0.38333 -0.2,0.55c0,0.1 0,0.18333 0,0.25c0,0.26667 0,0.53333 0,0.8c0,0.3 0,0.56667 0,0.8c-0.03333,0.1 -0.06667,0.2 -0.1,0.3c0,0.06667 -0.01667,0.15 -0.05,0.25c-0.03333,0.1 -0.06667,0.18333 -0.1,0.25c0,0.1 0,0.2 0,0.3c0,0.23333 0,0.5 0,0.8c0,0.26667 0,0.53333 0,0.8c-0.03333,0.1 -0.06667,0.18333 -0.1,0.25c-0.03333,0.1 -0.06667,0.2 -0.1,0.3c-0.06667,0.16667 -0.11667,0.33333 -0.15,0.5c0,0.1 0,0.2 0,0.3c0,0.06667 0,0.15 0,0.25c0,0.1 0,0.18333 0,0.25c-0.03333,0.1 -0.06667,0.2 -0.1,0.3c-0.03333,0.06667 -0.06667,0.15 -0.1,0.25c-0.06667,0.2 -0.11667,0.38333 -0.15,0.55c0,0.16667 0,0.35 0,0.55c0.03333,0.36667 0.03333,0.71667 0,1.05c-0.03333,0.3 -0.16667,0.56667 -0.4,0.8c0,0.36667 0.01667,0.73333 0.05,1.1c0,0.63333 -0.06667,1.25 -0.2,1.85c-0.03333,0.16667 -0.1,0.35 -0.2,0.55c0,0.16667 0,0.33333 0,0.5c0,0.36667 -0.05,0.73333 -0.15,1.1c-0.03333,0.16667 -0.1,0.35 -0.2,0.55c0,0.06667 0,0.15 0,0.25c0,0.26667 0,0.53333 0,0.8c0,0.26667 0,0.53333 0,0.8c-0.03333,0.1 -0.06667,0.18333 -0.1,0.25c-0.03333,0.1 -0.05,0.2 -0.05,0.3c0,0.06667 0,0.15 0,0.25c1.1,0.46667 2.3,0.81667 3.6,1.05c0.66667,0.13333 1.33333,0.16667 2,0.1c0,-0.06667 0,-0.15 0,-0.25c0.03333,-0.16667 0.06667,-0.35 0.1,-0.55c0.06667,-0.26667 0.15,-0.53333 0.25,-0.8c0,-0.06667 0,-0.15 0,-0.25c0,-0.1 0,-0.2 0,-0.3c0,-0.06667 0,-0.15 0,-0.25c0,-0.1 0,-0.18333 0,-0.25c0.03333,-0.1 0.06667,-0.2 0.1,-0.3c0.03333,-0.06667 0.06667,-0.15 0.1,-0.25c0.06667,-0.16667 0.11667,-0.35 0.15,-0.55c0,-0.06667 0,-0.15 0,-0.25c0,-0.1 0,-0.18333 0,-0.25c0,-0.1 0,-0.2 0,-0.3c0,-0.06667 0,-0.15 0,-0.25c0.06667,-0.16667 0.13333,-0.35 0.2,-0.55c0.1,-0.36667 0.16667,-0.71667 0.2,-1.05c0,-0.3 0.11667,-0.56667 0.35,-0.8c0,-0.2 0,-0.38333 0,-0.55c0,-0.36667 0.05,-0.71667 0.15,-1.05c0.03333,-0.2 0.1,-0.38333 0.2,-0.55c0,-0.1 0,-0.18333 0,-0.25c0,-0.1 0,-0.2 0,-0.3c0,-0.1 0,-0.18333 0,-0.25c0.03333,-0.1 0.06667,-0.2 0.1,-0.3c0,-0.06667 0.01667,-0.15 0.05,-0.25c0.06667,-0.16667 0.13333,-0.35 0.2,-0.55c0,-0.06667 0,-0.15 0,-0.25c0,-0.1 0,-0.18333 0,-0.25c0,-0.1 0,-0.2 0,-0.3c0.03333,-0.06667 0.06667,-0.15 0.1,-0.25c0.03333,-0.1 0.05,-0.18333 0.05,-0.25c0.06667,-0.2 0.13333,-0.38333 0.2,-0.55c0,-0.1 0,-0.18333 0,-0.25c0,-0.1 0,-0.2 0,-0.3c0,-0.1 0,-0.18333 0,-0.25c0,-0.1 0,-0.2 0,-0.3c0.03333,-0.06667 0.06667,-0.15 0.1,-0.25c0.03333,-0.1 0.06667,-0.18333 0.1,-0.25c0.03333,-0.2 0.08333,-0.38333 0.15,-0.55c0,-0.1 0,-0.18333 0,-0.25c0,-0.1 0,-0.2 0,-0.3c0,-0.16667 0,-0.33333 0,-0.5c0,-0.1 0,-0.2 0,-0.3c0.06667,-0.16667 0.13333,-0.33333 0.2,-0.5c0.1,-0.36667 0.16667,-0.73333 0.2,-1.1c0,-0.3 0.1,-0.56667 0.3,-0.8c0,-0.1 0,-0.18333 0,-0.25c0,-0.1 0,-0.2 0,-0.3c0.2,-0.43333 0.36667,-0.86667 0.5,-1.3c0.16667,-0.73333 0.31667,-1.45 0.45,-2.15c0.03333,-0.1 0.08333,-0.2 0.15,-0.3c0,-0.06667 0,-0.15 0,-0.25c0,-0.1 0,-0.18333 0,-0.25c0.1,-0.36667 0.2,-0.73333 0.3,-1.1c0.1,-0.56667 0.28333,-1.1 0.55,-1.6c0.06667,-0.1 0.11667,-0.18333 0.15,-0.25c0.26667,-0.43333 0.61667,-0.78333 1.05,-1.05c0.46667,-0.3 0.96667,-0.46667 1.5,-0.5c1.5,0.23333 2.56667,1.03333 3.2,2.4c0.26667,0.63333 0.51667,1.26667 0.75,1.9c0,0.1 0,0.18333 0,0.25c0,0.1 0,0.2 0,0.3c0.43333,1.5 0.88333,3.01667 1.35,4.55c0.46667,1.53333 0.96667,3.05 1.5,4.55c0,0.1 0,0.18333 0,0.25c0,0.1 0,0.2 0,0.3c0.03333,0.16667 0.08333,0.33333 0.15,0.5c0.03333,0.06667 0.06667,0.13333 0.1,0.2c0.23333,-0.73333 0.46667,-1.5 0.7,-2.3c0.3,-0.96667 0.6,-1.93333 0.9,-2.9c0,-0.06667 0,-0.15 0,-0.25c0,-0.1 0,-0.18333 0,-0.25c0,-0.1 0,-0.2 0,-0.3c0.23333,-0.63333 0.41667,-1.26667 0.55,-1.9c0.23333,-0.9 0.5,-1.78333 0.8,-2.65c0,-0.06667 0,-0.15 0,-0.25c0,-0.1 0,-0.2 0,-0.3c0,-0.06667 0,-0.15 0,-0.25c0.03333,-0.1 0.06667,-0.18333 0.1,-0.25c0.06667,-0.2 0.15,-0.36667 0.25,-0.5c0.13333,-0.26667 0.23333,-0.55 0.3,-0.85c0.83333,-1.23333 1.98333,-1.7 3.45,-1.4c0.7,0.1 1.26667,0.41667 1.7,0.95c0.1,0.16667 0.21667,0.33333 0.35,0.5c0.23333,0.33333 0.41667,0.7 0.55,1.1c0.06667,0.2 0.13333,0.38333 0.2,0.55c0,0.1 0,0.18333 0,0.25c0,0.1 0,0.2 0,0.3c0,0.06667 0,0.15 0,0.25c0.36667,1.06667 0.66667,2.15 0.9,3.25c0.26667,1.13333 0.58333,2.28333 0.95,3.45c0,0.36667 0.05,0.71667 0.15,1.05c0.13333,0.63333 0.3,1.26667 0.5,1.9c0.03333,0.06667 0.06667,0.15 0.1,0.25c0.56667,2.86667 1.33333,5.65 2.3,8.35c0.7,1.86667 1.3,3.78333 1.8,5.75c0.53333,-0.43333 1.1,-0.83333 1.7,-1.2c1.33333,-0.83333 2.7,-1.56667 4.1,-2.2c-0.03333,-0.06667 -0.06667,-0.15 -0.1,-0.25c-0.03333,-0.1 -0.05,-0.18333 -0.05,-0.25c-0.03333,-0.1 -0.05,-0.2 -0.05,-0.3c0,-0.06667 0,-0.15 0,-0.25c-0.13333,-0.36667 -0.23333,-0.73333 -0.3,-1.1c-0.16667,-0.63333 -0.35,-1.25 -0.55,-1.85c-0.1,-0.26667 -0.2,-0.53333 -0.3,-0.8c0,-0.1 0,-0.18333 0,-0.25c0,-0.1 0,-0.2 0,-0.3c0,-0.16667 0,-0.33333 0,-0.5c0,-0.1 0,-0.2 0,-0.3c-0.1,-0.26667 -0.18333,-0.53333 -0.25,-0.8c-0.16667,-0.53333 -0.3,-1.06667 -0.4,-1.6c-0.03333,-0.16667 -0.05,-0.35 -0.05,-0.55c-0.03333,-0.06667 -0.06667,-0.15 -0.1,-0.25c-0.03333,-0.1 -0.06667,-0.18333 -0.1,-0.25c-0.03333,-0.1 -0.06667,-0.2 -0.1,-0.3c-0.03333,-0.06667 -0.05,-0.15 -0.05,-0.25c0,-0.1 0,-0.18333 0,-0.25c0,-0.2 -0.01667,-0.38333 -0.05,-0.55c0,-0.3 0,-0.56667 0,-0.8c0.03333,-0.1 0.05,-0.2 0.05,-0.3c-0.03333,-0.06667 -0.06667,-0.15 -0.1,-0.25c-0.03333,-0.1 -0.06667,-0.18333 -0.1,-0.25c-0.03333,-0.1 -0.06667,-0.2 -0.1,-0.3c-0.03333,-0.06667 -0.06667,-0.15 -0.1,-0.25c0,-0.1 0,-0.18333 0,-0.25c0,-0.1 0,-0.2 0,-0.3c-0.03333,-0.06667 -0.06667,-0.15 -0.1,-0.25c-0.1,-0.26667 -0.16667,-0.53333 -0.2,-0.8c-0.06667,-0.36667 -0.08333,-0.73333 -0.05,-1.1c-0.13333,-0.33333 -0.26667,-0.66667 -0.4,-1c-0.23333,-0.6 -0.33333,-1.25 -0.3,-1.95c0,-0.16667 0,-0.33333 0,-0.5c-0.1,-0.26667 -0.21667,-0.53333 -0.35,-0.8c-0.23333,-0.5 -0.35,-1.03333 -0.35,-1.6c0,-0.2 0,-0.38333 0,-0.55c-0.03333,-0.1 -0.06667,-0.18333 -0.1,-0.25c-0.13333,-0.26667 -0.21667,-0.53333 -0.25,-0.8c-0.06667,-0.36667 -0.06667,-0.73333 0,-1.1c-0.03333,-0.1 -0.06667,-0.18333 -0.1,-0.25c-0.13333,-0.26667 -0.21667,-0.53333 -0.25,-0.8c-0.06667,-0.36667 -0.08333,-0.73333 -0.05,-1.1c-0.03333,-0.1 -0.05,-0.18333 -0.05,-0.25c-0.06667,-0.2 -0.11667,-0.38333 -0.15,-0.55c-0.06667,-0.26667 -0.11667,-0.53333 -0.15,-0.8c0,-0.1 0,-0.18333 0,-0.25c-0.03333,-0.1 -0.06667,-0.2 -0.1,-0.3c0,-0.06667 -0.01667,-0.15 -0.05,-0.25c-0.03333,-0.1 -0.06667,-0.18333 -0.1,-0.25c-0.03333,-0.1 -0.06667,-0.2 -0.1,-0.3c0,-0.06667 0,-0.15 0,-0.25c0,-0.1 0,-0.2 0,-0.3c0,-0.16667 0,-0.33333 0,-0.5c0,-0.1 0,-0.2 0,-0.3c-0.06667,-0.16667 -0.11667,-0.33333 -0.15,-0.5c-0.1,-0.36667 -0.16667,-0.73333 -0.2,-1.1c0,-0.26667 0,-0.53333 0,-0.8c-0.03333,-0.06667 -0.06667,-0.15 -0.1,-0.25c-0.03333,-0.1 -0.06667,-0.2 -0.1,-0.3c0,-0.06667 0,-0.15 0,-0.25c0,-0.1 0,-0.18333 0,-0.25c0,-0.1 -0.01667,-0.2 -0.05,-0.3c-0.03333,-0.06667 -0.06667,-0.15 -0.1,-0.25c-0.06667,-0.16667 -0.13333,-0.35 -0.2,-0.55c-0.03333,-0.06667 -0.06667,-0.15 -0.1,-0.25c0,-0.1 0,-0.18333 0,-0.25c0,-0.1 0,-0.2 0,-0.3c0,-0.06667 -0.01667,-0.13333 -0.05,-0.2c-0.16667,-0.26667 -0.26667,-0.55 -0.3,-0.85c-0.03333,-0.36667 -0.03333,-0.73333 0,-1.1c-0.03333,-0.06667 -0.05,-0.15 -0.05,-0.25c-0.03333,-0.1 -0.06667,-0.18333 -0.1,-0.25c-0.03333,-0.1 -0.06667,-0.2 -0.1,-0.3c0,-0.06667 0,-0.15 0,-0.25c0,-0.1 0,-0.18333 0,-0.25c-0.03333,-0.1 -0.06667,-0.2 -0.1,-0.3c-0.06667,-0.16667 -0.11667,-0.35 -0.15,-0.55c-0.03333,-0.26667 -0.06667,-0.53333 -0.1,-0.8c0,-0.06667 0,-0.15 0,-0.25c-0.03333,-0.1 -0.06667,-0.18333 -0.1,-0.25c-0.03333,-0.1 -0.06667,-0.2 -0.1,-0.3c-0.03333,-0.06667 -0.06667,-0.15 -0.1,-0.25c0,-0.1 0,-0.18333 0,-0.25c0,-0.1 0,-0.2 0,-0.3c0,-0.16667 0,-0.33333 0,-0.5c0,-0.1 0,-0.2 0,-0.3c0,-0.06667 -0.01667,-0.15 -0.05,-0.25z" fill="#000000"/><path d="M648.90811,346.03784c0,0.1 0,0.2 0,0.3c0,0.06667 0,0.15 0,0.25c0.03333,0.1 0.06667,0.18333 0.1,0.25c0.03333,0.1 0.06667,0.2 0.1,0.3c0.03333,0.06667 0.06667,0.15 0.1,0.25c0,0.1 0,0.18333 0,0.25c0.03333,0.26667 0.06667,0.53333 0.1,0.8c0.03333,0.2 0.08333,0.38333 0.15,0.55c0.03333,0.1 0.06667,0.2 0.1,0.3c0,0.06667 0,0.15 0,0.25c0,0.1 0,0.18333 0,0.25c0.03333,0.1 0.06667,0.2 0.1,0.3c0.03333,0.06667 0.06667,0.15 0.1,0.25c0,0.1 0.01667,0.18333 0.05,0.25c-0.03333,0.36667 -0.03333,0.73333 0,1.1c0.03333,0.3 0.13333,0.58333 0.3,0.85c0.03333,0.06667 0.05,0.13333 0.05,0.2c0,0.1 0,0.2 0,0.3c0,0.06667 0,0.15 0,0.25c0.03333,0.1 0.06667,0.18333 0.1,0.25c0.06667,0.2 0.13333,0.38333 0.2,0.55c0.03333,0.1 0.06667,0.18333 0.1,0.25c0.03333,0.1 0.05,0.2 0.05,0.3c0,0.06667 0,0.15 0,0.25c0,0.1 0,0.18333 0,0.25c0.03333,0.1 0.06667,0.2 0.1,0.3c0.03333,0.1 0.06667,0.18333 0.1,0.25c0,0.26667 0,0.53333 0,0.8c0.03333,0.36667 0.1,0.73333 0.2,1.1c0.03333,0.16667 0.08333,0.33333 0.15,0.5c0,0.1 0,0.2 0,0.3c0,0.16667 0,0.33333 0,0.5c0,0.1 0,0.2 0,0.3c0,0.1 0,0.18333 0,0.25c0.03333,0.1 0.06667,0.2 0.1,0.3c0.03333,0.06667 0.06667,0.15 0.1,0.25c0.03333,0.1 0.05,0.18333 0.05,0.25c0.03333,0.1 0.06667,0.2 0.1,0.3c0,0.06667 0,0.15 0,0.25c0.03333,0.26667 0.08333,0.53333 0.15,0.8c0.03333,0.16667 0.08333,0.35 0.15,0.55c0,0.06667 0.01667,0.15 0.05,0.25c-0.03333,0.36667 -0.01667,0.73333 0.05,1.1c0.03333,0.26667 0.11667,0.53333 0.25,0.8c0.03333,0.06667 0.06667,0.15 0.1,0.25c-0.06667,0.36667 -0.06667,0.73333 0,1.1c0.03333,0.26667 0.11667,0.53333 0.25,0.8c0.03333,0.06667 0.06667,0.15 0.1,0.25c0,0.16667 0,0.35 0,0.55c0,0.56667 0.11667,1.1 0.35,1.6c0.13333,0.26667 0.25,0.53333 0.35,0.8c0,0.16667 0,0.33333 0,0.5c-0.03333,0.7 0.06667,1.35 0.3,1.95c0.13333,0.33333 0.26667,0.66667 0.4,1c-0.03333,0.36667 -0.01667,0.73333 0.05,1.1c0.03333,0.26667 0.1,0.53333 0.2,0.8c0.03333,0.1 0.06667,0.18333 0.1,0.25c0,0.1 0,0.2 0,0.3c0,0.06667 0,0.15 0,0.25c0.03333,0.1 0.06667,0.18333 0.1,0.25c0.03333,0.1 0.06667,0.2 0.1,0.3c0.03333,0.06667 0.06667,0.15 0.1,0.25c0.03333,0.1 0.06667,0.18333 0.1,0.25c0,0.1 -0.01667,0.2 -0.05,0.3c0,0.23333 0,0.5 0,0.8c0.03333,0.16667 0.05,0.35 0.05,0.55c0,0.06667 0,0.15 0,0.25c0,0.1 0.01667,0.18333 0.05,0.25c0.03333,0.1 0.06667,0.2 0.1,0.3c0.03333,0.06667 0.06667,0.15 0.1,0.25c0.03333,0.1 0.06667,0.18333 0.1,0.25c0,0.2 0.01667,0.38333 0.05,0.55c0.1,0.53333 0.23333,1.06667 0.4,1.6c0.06667,0.26667 0.15,0.53333 0.25,0.8c0,0.1 0,0.2 0,0.3c0,0.16667 0,0.33333 0,0.5c0,0.1 0,0.2 0,0.3c0,0.06667 0,0.15 0,0.25c0.1,0.26667 0.2,0.53333 0.3,0.8c0.2,0.6 0.38333,1.21667 0.55,1.85c0.06667,0.36667 0.16667,0.73333 0.3,1.1c0,0.1 0,0.18333 0,0.25c0,0.1 0.01667,0.2 0.05,0.3c0,0.06667 0.01667,0.15 0.05,0.25c0.03333,0.1 0.06667,0.18333 0.1,0.25c-1.4,0.63333 -2.76667,1.36667 -4.1,2.2c-0.6,0.36667 -1.16667,0.76667 -1.7,1.2c-0.5,-1.96667 -1.1,-3.88333 -1.8,-5.75c-0.96667,-2.7 -1.73333,-5.48333 -2.3,-8.35c-0.03333,-0.1 -0.06667,-0.18333 -0.1,-0.25c-0.2,-0.63333 -0.36667,-1.26667 -0.5,-1.9c-0.1,-0.33333 -0.15,-0.68333 -0.15,-1.05c-0.36667,-1.16667 -0.68333,-2.31667 -0.95,-3.45c-0.23333,-1.1 -0.53333,-2.18333 -0.9,-3.25c0,-0.1 0,-0.18333 0,-0.25c0,-0.1 0,-0.2 0,-0.3c0,-0.06667 0,-0.15 0,-0.25c-0.06667,-0.16667 -0.13333,-0.35 -0.2,-0.55c-0.13333,-0.4 -0.31667,-0.76667 -0.55,-1.1c-0.13333,-0.16667 -0.25,-0.33333 -0.35,-0.5c-0.43333,-0.53333 -1,-0.85 -1.7,-0.95c-1.46667,-0.3 -2.61667,0.16667 -3.45,1.4c-0.06667,0.3 -0.16667,0.58333 -0.3,0.85c-0.1,0.13333 -0.18333,0.3 -0.25,0.5c-0.03333,0.06667 -0.06667,0.15 -0.1,0.25c0,0.1 0,0.18333 0,0.25c0,0.1 0,0.2 0,0.3c0,0.1 0,0.18333 0,0.25c-0.3,0.86667 -0.56667,1.75 -0.8,2.65c-0.13333,0.63333 -0.31667,1.26667 -0.55,1.9c0,0.1 0,0.2 0,0.3c0,0.06667 0,0.15 0,0.25c0,0.1 0,0.18333 0,0.25c-0.3,0.96667 -0.6,1.93333 -0.9,2.9c-0.23333,0.8 -0.46667,1.56667 -0.7,2.3c-0.03333,-0.06667 -0.06667,-0.13333 -0.1,-0.2c-0.06667,-0.16667 -0.11667,-0.33333 -0.15,-0.5c0,-0.1 0,-0.2 0,-0.3c0,-0.06667 0,-0.15 0,-0.25c-0.53333,-1.5 -1.03333,-3.01667 -1.5,-4.55c-0.46667,-1.53333 -0.91667,-3.05 -1.35,-4.55c0,-0.1 0,-0.2 0,-0.3c0,-0.06667 0,-0.15 0,-0.25c-0.23333,-0.63333 -0.48333,-1.26667 -0.75,-1.9c-0.63333,-1.36667 -1.7,-2.16667 -3.2,-2.4c-0.53333,0.03333 -1.03333,0.2 -1.5,0.5c-0.43333,0.26667 -0.78333,0.61667 -1.05,1.05c-0.03333,0.06667 -0.08333,0.15 -0.15,0.25c-0.26667,0.5 -0.45,1.03333 -0.55,1.6c-0.1,0.36667 -0.2,0.73333 -0.3,1.1c0,0.06667 0,0.15 0,0.25c0,0.1 0,0.18333 0,0.25c-0.06667,0.1 -0.11667,0.2 -0.15,0.3c-0.13333,0.7 -0.28333,1.41667 -0.45,2.15c-0.13333,0.43333 -0.3,0.86667 -0.5,1.3c0,0.1 0,0.2 0,0.3c0,0.06667 0,0.15 0,0.25c-0.2,0.23333 -0.3,0.5 -0.3,0.8c-0.03333,0.36667 -0.1,0.73333 -0.2,1.1c-0.06667,0.16667 -0.13333,0.33333 -0.2,0.5c0,0.1 0,0.2 0,0.3c0,0.16667 0,0.33333 0,0.5c0,0.1 0,0.2 0,0.3c0,0.06667 0,0.15 0,0.25c-0.06667,0.16667 -0.11667,0.35 -0.15,0.55c-0.03333,0.06667 -0.06667,0.15 -0.1,0.25c-0.03333,0.1 -0.06667,0.18333 -0.1,0.25c0,0.1 0,0.2 0,0.3c0,0.06667 0,0.15 0,0.25c0,0.1 0,0.2 0,0.3c0,0.06667 0,0.15 0,0.25c-0.06667,0.16667 -0.13333,0.35 -0.2,0.55c0,0.06667 -0.01667,0.15 -0.05,0.25c-0.03333,0.1 -0.06667,0.18333 -0.1,0.25c0,0.1 0,0.2 0,0.3c0,0.06667 0,0.15 0,0.25c0,0.1 0,0.18333 0,0.25c-0.06667,0.2 -0.13333,0.38333 -0.2,0.55c-0.03333,0.1 -0.05,0.18333 -0.05,0.25c-0.03333,0.1 -0.06667,0.2 -0.1,0.3c0,0.06667 0,0.15 0,0.25c0,0.1 0,0.2 0,0.3c0,0.06667 0,0.15 0,0.25c-0.1,0.16667 -0.16667,0.35 -0.2,0.55c-0.1,0.33333 -0.15,0.68333 -0.15,1.05c0,0.16667 0,0.35 0,0.55c-0.23333,0.23333 -0.35,0.5 -0.35,0.8c-0.03333,0.33333 -0.1,0.68333 -0.2,1.05c-0.06667,0.2 -0.13333,0.38333 -0.2,0.55c0,0.1 0,0.18333 0,0.25c0,0.1 0,0.2 0,0.3c0,0.06667 0,0.15 0,0.25c0,0.1 0,0.18333 0,0.25c-0.03333,0.2 -0.08333,0.38333 -0.15,0.55c-0.03333,0.1 -0.06667,0.18333 -0.1,0.25c-0.03333,0.1 -0.06667,0.2 -0.1,0.3c0,0.06667 0,0.15 0,0.25c0,0.1 0,0.18333 0,0.25c0,0.1 0,0.2 0,0.3c0,0.1 0,0.18333 0,0.25c-0.1,0.26667 -0.18333,0.53333 -0.25,0.8c-0.03333,0.2 -0.06667,0.38333 -0.1,0.55c0,0.1 0,0.18333 0,0.25c-0.66667,0.06667 -1.33333,0.03333 -2,-0.1c-1.3,-0.23333 -2.5,-0.58333 -3.6,-1.05c0,-0.1 0,-0.18333 0,-0.25c0,-0.1 0.01667,-0.2 0.05,-0.3c0.03333,-0.06667 0.06667,-0.15 0.1,-0.25c0,-0.26667 0,-0.53333 0,-0.8c0,-0.26667 0,-0.53333 0,-0.8c0,-0.1 0,-0.18333 0,-0.25c0.1,-0.2 0.16667,-0.38333 0.2,-0.55c0.1,-0.36667 0.15,-0.73333 0.15,-1.1c0,-0.16667 0,-0.33333 0,-0.5c0.1,-0.2 0.16667,-0.38333 0.2,-0.55c0.13333,-0.6 0.2,-1.21667 0.2,-1.85c-0.03333,-0.36667 -0.05,-0.73333 -0.05,-1.1c0.23333,-0.23333 0.36667,-0.5 0.4,-0.8c0.03333,-0.33333 0.03333,-0.68333 0,-1.05c0,-0.2 0,-0.38333 0,-0.55c0.03333,-0.16667 0.08333,-0.35 0.15,-0.55c0.03333,-0.1 0.06667,-0.18333 0.1,-0.25c0.03333,-0.1 0.06667,-0.2 0.1,-0.3c0,-0.06667 0,-0.15 0,-0.25c0,-0.1 0,-0.18333 0,-0.25c0,-0.1 0,-0.2 0,-0.3c0.03333,-0.16667 0.08333,-0.33333 0.15,-0.5c0.03333,-0.1 0.06667,-0.2 0.1,-0.3c0.03333,-0.06667 0.06667,-0.15 0.1,-0.25c0,-0.26667 0,-0.53333 0,-0.8c0,-0.3 0,-0.56667 0,-0.8c0,-0.1 0,-0.2 0,-0.3c0.03333,-0.06667 0.06667,-0.15 0.1,-0.25c0.03333,-0.1 0.05,-0.18333 0.05,-0.25c0.03333,-0.1 0.06667,-0.2 0.1,-0.3c0,-0.23333 0,-0.5 0,-0.8c0,-0.26667 0,-0.53333 0,-0.8c0,-0.06667 0,-0.15 0,-0.25c0.06667,-0.16667 0.13333,-0.35 0.2,-0.55c0.03333,-0.1 0.06667,-0.18333 0.1,-0.25c0,-0.1 0.01667,-0.2 0.05,-0.3c0,-0.26667 0,-0.53333 0,-0.8c0,-0.23333 0,-0.5 0,-0.8c0,-0.06667 0,-0.15 0,-0.25c0.1,-0.16667 0.18333,-0.35 0.25,-0.55c0.06667,-0.33333 0.1,-0.68333 0.1,-1.05c0,-0.2 0,-0.38333 0,-0.55c0.1,-0.16667 0.18333,-0.35 0.25,-0.55c0.1,-0.33333 0.15,-0.68333 0.15,-1.05c0,-0.16667 0,-0.35 0,-0.55c0.13333,-0.23333 0.21667,-0.5 0.25,-0.8c0.03333,-0.16667 0.05,-0.35 0.05,-0.55c0.03333,-0.06667 0.05,-0.15 0.05,-0.25c0.03333,-0.1 0.06667,-0.18333 0.1,-0.25c0,-0.1 0.01667,-0.2 0.05,-0.3c0.03333,-0.06667 0.06667,-0.15 0.1,-0.25c0,-0.1 0,-0.18333 0,-0.25c0,-0.1 0,-0.2 0,-0.3c0.06667,-0.16667 0.11667,-0.33333 0.15,-0.5c0.1,-0.3 0.21667,-0.58333 0.35,-0.85c0.1,-0.16667 0.16667,-0.33333 0.2,-0.5c0,-0.1 0,-0.2 0,-0.3c0,-0.06667 0,-0.15 0,-0.25c0,-0.1 0,-0.18333 0,-0.25c0,-0.1 0,-0.2 0,-0.3c0.03333,-0.06667 0.06667,-0.15 0.1,-0.25c0.03333,-0.1 0.06667,-0.18333 0.1,-0.25c0.03333,-0.1 0.06667,-0.2 0.1,-0.3c0,-0.06667 0,-0.15 0,-0.25c0,-0.1 0,-0.18333 0,-0.25c0.06667,-0.2 0.11667,-0.38333 0.15,-0.55c0.1,-0.33333 0.16667,-0.7 0.2,-1.1c0,-0.16667 0,-0.33333 0,-0.5c0.03333,-0.1 0.06667,-0.2 0.1,-0.3c0.03333,-0.06667 0.05,-0.15 0.05,-0.25c0.03333,-0.1 0.06667,-0.18333 0.1,-0.25c0,-0.1 0,-0.2 0,-0.3c0,-0.06667 0,-0.15 0,-0.25c0,-0.1 0,-0.18333 0,-0.25c0.06667,-0.2 0.13333,-0.38333 0.2,-0.55c0.03333,-0.1 0.06667,-0.18333 0.1,-0.25c0,-0.1 0.01667,-0.2 0.05,-0.3c0,-0.06667 0,-0.15 0,-0.25c0,-0.1 0,-0.18333 0,-0.25c0,-0.1 0,-0.2 0,-0.3c0,-0.1 0,-0.18333 0,-0.25c0.03333,-0.1 0.06667,-0.2 0.1,-0.3c0.03333,-0.06667 0.06667,-0.15 0.1,-0.25c0.03333,-0.1 0.06667,-0.18333 0.1,-0.25c0,-0.1 0,-0.2 0,-0.3c0,-0.06667 0,-0.15 0,-0.25c0.06667,-0.26667 0.15,-0.53333 0.25,-0.8c0.1,-0.26667 0.18333,-0.53333 0.25,-0.8c0.03333,-0.1 0.06667,-0.18333 0.1,-0.25c0,-0.3 0,-0.58333 0,-0.85c0,-0.16667 0,-0.33333 0,-0.5c0,-0.1 0,-0.2 0,-0.3c0.13333,-0.23333 0.23333,-0.48333 0.3,-0.75c0.1,-0.36667 0.18333,-0.73333 0.25,-1.1c0.03333,-0.16667 0.06667,-0.35 0.1,-0.55c-0.03333,-0.1 -0.06667,-0.18333 -0.1,-0.25v-0.05c3,0.16667 5.73333,-0.05 8.2,-0.65c0.06667,0.06667 0.11667,0.15 0.15,0.25c0.03333,0.1 0.05,0.18333 0.05,0.25c0,0.1 0,0.2 0,0.3c0.03333,0.06667 0.06667,0.15 0.1,0.25c0,0.1 0.01667,0.18333 0.05,0.25c0.03333,0.1 0.08333,0.18333 0.15,0.25c0.03333,0.1 0.08333,0.2 0.15,0.3c0,0.1 0,0.18333 0,0.25c0,0.1 0,0.2 0,0.3c0.06667,0.16667 0.11667,0.33333 0.15,0.5c0.03333,0.1 0.06667,0.2 0.1,0.3c0.06667,0.06667 0.11667,0.15 0.15,0.25c0.03333,0.1 0.05,0.2 0.05,0.3c0,0.06667 0,0.15 0,0.25c0,0.1 0,0.18333 0,0.25c0,0.1 0,0.2 0,0.3c0.03333,0.06667 0.05,0.15 0.05,0.25c0.03333,0.1 0.08333,0.18333 0.15,0.25c0.03333,0.1 0.06667,0.2 0.1,0.3c0.03333,0.06667 0.05,0.15 0.05,0.25c0,0.1 0,0.18333 0,0.25c0,0.1 0,0.2 0,0.3c0,0.06667 0,0.15 0,0.25c0,0.1 0,0.18333 0,0.25c0.06667,0.2 0.13333,0.38333 0.2,0.55c0.03333,0.1 0.06667,0.2 0.1,0.3c0.03333,0.06667 0.05,0.15 0.05,0.25c0,0.1 0,0.18333 0,0.25c0,0.1 0.01667,0.18333 0.05,0.25c0.03333,0.1 0.06667,0.2 0.1,0.3c0.03333,0.1 0.06667,0.18333 0.1,0.25c0.03333,0.1 0.06667,0.2 0.1,0.3c0,0.06667 0,0.15 0,0.25c0,0.16667 0,0.35 0,0.55c0,0.06667 0,0.15 0,0.25c0,0.1 0,0.18333 0,0.25c0,0.1 0,0.2 0,0.3c0.03333,0.06667 0.06667,0.15 0.1,0.25c0.06667,0.1 0.11667,0.2 0.15,0.3c0.03333,0.06667 0.06667,0.15 0.1,0.25c0,0.33333 0,0.68333 0,1.05c0,0.3 0,0.56667 0,0.8c0,0.2 0,0.38333 0,0.55c0.03333,0.1 0.06667,0.18333 0.1,0.25c0.06667,0.1 0.11667,0.2 0.15,0.3c0.03333,0.06667 0.06667,0.15 0.1,0.25c0,0.26667 0.01667,0.53333 0.05,0.8c0,0.2 0.01667,0.38333 0.05,0.55c0,0.1 0,0.18333 0,0.25c0,0.1 0,0.2 0,0.3c0.03333,0.06667 0.06667,0.15 0.1,0.25c0.03333,0.1 0.06667,0.18333 0.1,0.25c0.06667,0.1 0.11667,0.2 0.15,0.3c0.13333,0.06667 0.26667,0.15 0.4,0.25c0.13333,0.1 0.28333,0.18333 0.45,0.25c0.2,0.06667 0.4,0.13333 0.6,0.2c0.13333,-0.03333 0.28333,-0.06667 0.45,-0.1c0.06667,-0.06667 0.15,-0.11667 0.25,-0.15c0.13333,-0.1 0.23333,-0.2 0.3,-0.3c0.06667,-0.06667 0.11667,-0.15 0.15,-0.25c0.03333,-0.1 0.06667,-0.18333 0.1,-0.25c0.03333,-0.1 0.06667,-0.2 0.1,-0.3c0.03333,-0.06667 0.05,-0.15 0.05,-0.25c0,-0.1 0,-0.2 0,-0.3c0,-0.06667 0,-0.15 0,-0.25c0.03333,-0.1 0.06667,-0.18333 0.1,-0.25c0.03333,-0.1 0.06667,-0.2 0.1,-0.3c0,-0.06667 0,-0.15 0,-0.25c0,-0.1 0,-0.18333 0,-0.25c0.13333,-0.26667 0.25,-0.53333 0.35,-0.8c0.13333,-0.26667 0.25,-0.55 0.35,-0.85c0.03333,-0.16667 0.06667,-0.33333 0.1,-0.5c0.06667,-0.1 0.13333,-0.2 0.2,-0.3c0.03333,-0.06667 0.08333,-0.15 0.15,-0.25c0.03333,-0.1 0.06667,-0.18333 0.1,-0.25c0,-0.1 0,-0.2 0,-0.3c0,-0.06667 0,-0.15 0,-0.25c0,-0.1 0,-0.18333 0,-0.25c0.1,-0.2 0.18333,-0.38333 0.25,-0.55c0.2,-0.43333 0.41667,-0.86667 0.65,-1.3c0.13333,-0.26667 0.25,-0.55 0.35,-0.85c0,-0.1 0,-0.18333 0,-0.25c0,-0.1 0,-0.2 0,-0.3c0,-0.06667 0,-0.15 0,-0.25c0.4,-1 0.83333,-1.98333 1.3,-2.95c0.3,-0.6 0.51667,-1.21667 0.65,-1.85c0.06667,-0.1 0.13333,-0.2 0.2,-0.3c0.06667,-0.06667 0.11667,-0.15 0.15,-0.25c0.03333,-0.1 0.08333,-0.18333 0.15,-0.25c0.03333,-0.1 0.08333,-0.2 0.15,-0.3c2.7,-0.06667 5.31667,-0.38333 7.85,-0.95c0.03333,0.06667 0.06667,0.15 0.1,0.25c0.03333,0.1 0.05,0.18333 0.05,0.25c0,0.1 0,0.2 0,0.3c0,0.16667 0,0.33333 0,0.5z" fill="#ffffff"/></g></g></svg>