<svg version="1.1" xmlns="http://www.w3.org/2000/svg" xmlns:xlink="http://www.w3.org/1999/xlink" width="107.73617" height="81.36966" viewBox="0,0,107.73617,81.36966"><g transform="translate(-589.13492,-319.31517)"><g data-paper-data="{&quot;isPaintingLayer&quot;:true}" fill-rule="nonzero" stroke="none" stroke-width="1" stroke-linecap="butt" stroke-linejoin="miter" stroke-miterlimit="10" stroke-dasharray="" stroke-dashoffset="0" style="mix-blend-mode: normal"><path d="M666.61892,331.50088c0.3,1.66667 0.48333,3.71667 0.55,6.15c0.03333,1.36667 0.06667,3.41667 0.1,6.15c0.26667,-0.26667 0.98333,-1 2.15,-2.2c0.86667,-0.86667 1.61667,-1.55 2.25,-2.05c3.76667,0.03333 6.15,0.13333 7.15,0.3c2.7,0.46667 4.73333,1.55 6.1,3.25c2.03333,1.96667 3.45,4.41667 4.25,7.35c0.73333,2.66667 0.93333,5.53333 0.6,8.6c3.2,2.3 5.35,5.58333 6.45,9.85c1,4.03333 0.85,7.98333 -0.45,11.85c-1.16667,3.63333 -4.13333,6.11667 -8.9,7.45c-0.13333,0.13333 -1.18333,1.31667 -3.15,3.55c-1.26667,1.46667 -2.48333,2.5 -3.65,3.1c-2.43333,1.46667 -5.11667,2.11667 -8.05,1.95c-2.93333,-0.13333 -5.51667,-1.05 -7.75,-2.75c-2.6,3.16667 -6,5.21667 -10.2,6.15c-4.2,0.93333 -8.13333,0.51667 -11.8,-1.25c-2.66667,-1.26667 -4.75,-3.36667 -6.25,-6.3c-1.4,-2.7 -2.06667,-5.61667 -2,-8.75c-2.96667,-2.16667 -5.38333,-4.93333 -7.25,-8.3c-6.8,1.43333 -13.71667,0.91667 -20.75,-1.55c-4.3,-2.03333 -7.93333,-4.96667 -10.9,-8.8c-3,-3.9 -4.86667,-8.16667 -5.6,-12.8c-0.8,-4.56667 -0.35,-9.13333 1.35,-13.7c1.66667,-4.5 4.28333,-8.28333 7.85,-11.35c4.7,-4.03333 10.13333,-6.56667 16.3,-7.6c6.5,-1.13333 12.38333,-0.28333 17.65,2.55c5.33333,2.7 9.75,7.73333 13.25,15.1c5.8,-3.56667 11.5,-6.43333 17.1,-8.6c0.83333,-0.5 1.63333,-0.4 2.4,0.3c0.73333,0.63333 1.13333,1.41667 1.2,2.35M654.61892,346.55088c-2.13333,1 -3.73333,1.71667 -4.8,2.15c-0.66667,1.46667 -1.21667,3.31667 -1.65,5.55c-0.23333,1.26667 -0.56667,3.16667 -1,5.7l3.75,3.5c1.46667,-1.83333 2.5,-3.06667 3.1,-3.7c1.26667,-1.33333 2.51667,-2.36667 3.75,-3.1c0.26667,0.43333 0.71667,1.05 1.35,1.85c0.53333,0.73333 0.86667,1.41667 1,2.05c-0.5,1.13333 -1.3,2.33333 -2.4,3.6c-1.33333,1.46667 -2.31667,2.55 -2.95,3.25c1.9,2.73333 3.13333,4.75 3.7,6.05c-1.03333,0.5 -2.3,0.38333 -3.8,-0.35c-2.13333,-1.06667 -3.36667,-1.63333 -3.7,-1.7c-0.23333,0.2 -0.91667,0.81667 -2.05,1.85c-0.83333,0.8 -1.56667,1.36667 -2.2,1.7c-0.9,0.13333 -1.63333,-0.11667 -2.2,-0.75c-0.53333,-0.66667 -0.66667,-1.41667 -0.4,-2.25c0.36667,-0.66667 1.4,-1.96667 3.1,-3.9l-2.95,-2.7c-3,4.03333 -7.16667,7.03333 -12.5,9c0.83333,1.46667 2.05,3.06667 3.65,4.8c0.93333,0.96667 2.33333,2.41667 4.2,4.35l-1.25,2.95c1.23333,2.36667 2.08333,3.88333 2.55,4.55c1.13333,1.6 2.43333,2.68333 3.9,3.25c2.7,1.16667 5.55,1.4 8.55,0.7c2.93333,-0.66667 5.43333,-2.08333 7.5,-4.25c0.93333,-1.23333 2.4,-1.18333 4.4,0.15c2.53333,0.63333 4.38333,1 5.55,1.1c2.13333,0.2 3.98333,-0.08333 5.55,-0.85c1.2,-0.43333 2.41667,-1.33333 3.65,-2.7c0.66667,-0.76667 1.66667,-1.91667 3,-3.45c1.03333,-0.43333 2.61667,-1 4.75,-1.7c-5,-1.33333 -10.08333,-1.7 -15.25,-1.1c-5.23333,0.6 -10.08333,2.13333 -14.55,4.6c-1.06667,0.6 -2.45,1.61667 -4.15,3.05c-1.83333,1.56667 -3.2,2.61667 -4.1,3.15l-0.95,-0.55c-0.46667,-1.63333 -0.03333,-3.26667 1.3,-4.9c0.5,-0.6 1.83333,-1.78333 4,-3.55c4.5,-3.1 9.55,-5.18333 15.15,-6.25c5.53333,-1.1 10.98333,-1.08333 16.35,0.05c0.93333,0.06667 1.71667,0.53333 2.35,1.4c0.1,0.16667 0.51667,1.01667 1.25,2.55c2,-3.1 2.61667,-6.53333 1.85,-10.3c-0.8,-3.83333 -2.81667,-6.61667 -6.05,-8.35c-0.06667,-0.4 -0.21667,-2.58333 -0.45,-6.55c-0.16667,-2.66667 -0.71667,-4.76667 -1.65,-6.3c-0.8,-1.73333 -2.06667,-3.11667 -3.8,-4.15c-1.66667,-1 -3.48333,-1.55 -5.45,-1.65c-0.73333,0.26667 -1.73333,0.78333 -3,1.55c-1.3,0.76667 -2.28333,1.28333 -2.95,1.55c-1,-0.06667 -2.33333,-0.45 -4,-1.15c-1.76667,-0.73333 -3.1,-1.15 -4,-1.25c-1.46667,0.13333 -3.15,0.61667 -5.05,1.45M648.16892,345.55088c5.06667,-2.16667 9.36667,-3.36667 12.9,-3.6l0.25,-8.65c-5.26667,3.9 -9.95,6.51667 -14.05,7.85l0.9,4.4M643.66892,348.50088c-0.33333,-2.83333 -1.4,-5.91667 -3.2,-9.25c-2.26667,-3.73333 -3.96667,-6.53333 -5.1,-8.4c-2.23333,-2.3 -5.1,-3.88333 -8.6,-4.75c-3.2,-0.8 -6.5,-0.91667 -9.9,-0.35c-3.4,0.33333 -5.2,0.51667 -5.4,0.55c-2.03333,0.4 -3.65,1.16667 -4.85,2.3c-2.96667,2.63333 -5.21667,4.98333 -6.75,7.05c-2.16667,2.86667 -3.51667,5.76667 -4.05,8.7c-0.66667,3.96667 -0.13333,8.03333 1.6,12.2c1.53333,3.73333 3.85,7.16667 6.95,10.3c0.96667,1.1 2.38333,1.91667 4.25,2.45c1.1,0.3 2.75,0.63333 4.95,1c4.43333,1.03333 9.03333,0.88333 13.8,-0.45c4.46667,-1.2 8.58333,-3.3 12.35,-6.3c2.03333,-1.6 3.35,-3.9 3.95,-6.9c0.46667,-2.4 0.46667,-5.11667 0,-8.15M632.11892,351.80088c0.73333,-1.13333 1.83333,-1.46667 3.3,-1c1.5,0.46667 2.25,1.36667 2.25,2.7c0.03333,1.6 -0.43333,3.16667 -1.4,4.7c-0.86667,1.3 -2.03333,2.45 -3.5,3.45c-2.76667,1.93333 -6.15,3.28333 -10.15,4.05c-3,0.56667 -6.66667,0.83333 -11,0.8c-2.83333,-0.13333 -5.33333,-1.38333 -7.5,-3.75c-1.93333,-2.06667 -3.3,-4.58333 -4.1,-7.55c0.76667,0.46667 2.35,2.16667 4.75,5.1c1.83333,2.2 3.76667,3.31667 5.8,3.35c6.96667,-0.53333 12.68333,-2.2 17.15,-5c1.06667,-0.6 1.98333,-1.61667 2.75,-3.05c0.4,-0.8 0.95,-2.06667 1.65,-3.8M601.46892,339.45088c1.83333,-4.76667 4.93333,-7.86667 9.3,-9.3c1.73333,-0.56667 3.33333,-0.25 4.8,0.95c1.3,1.06667 2.16667,2.51667 2.6,4.35c1.6,-2.13333 2.93333,-3.63333 4,-4.5c1.73333,-1.43333 3.56667,-2.08333 5.5,-1.95c1.6,0.16667 2.91667,1.05 3.95,2.65c0.83333,1.3 1.38333,2.88333 1.65,4.75c0.36667,3.06667 0.21667,5.95 -0.45,8.65c-0.76667,3.1 -2.15,5.6 -4.15,7.5c-4.13333,2.8 -7.48333,3.41667 -10.05,1.85c-1.03333,-0.5 -1.83333,-1.38333 -2.4,-2.65c-0.3,-0.66667 -0.65,-1.85 -1.05,-3.55c-1.2,2.36667 -2.01667,3.85 -2.45,4.45c-1.1,1.56667 -2.35,2.63333 -3.75,3.2c-1.33333,0.56667 -2.71667,0.53333 -4.15,-0.1c-1.43333,-0.7 -2.33333,-1.75 -2.7,-3.15c-2.26667,-4 -2.48333,-8.38333 -0.65,-13.15M615.41892,337.75088c-0.93333,-0.6 -1.96667,-0.45 -3.1,0.45c-1.16667,1.23333 -2.05,2.01667 -2.65,2.35l-3.1,-3.35c0.2,1.16667 0.51667,2.93333 0.95,5.3c-0.3,0.66667 -0.78333,1.65 -1.45,2.95c-0.53333,1.13333 -0.93333,2.15 -1.2,3.05c2.26667,-1.43333 3.66667,-2.35 4.2,-2.75c0.3,0.36667 0.73333,0.91667 1.3,1.65c0.6,0.6 1.23333,0.85 1.9,0.75c0.7,-0.63333 0.86667,-1.46667 0.5,-2.5c-0.56667,-1.16667 -0.9,-2.05 -1,-2.65l2.85,-2.3c1.13333,-0.93333 1.4,-1.91667 0.8,-2.95M622.01892,343.30088c-1.2,1.73333 -2.08333,3.35 -2.65,4.85c1.33333,-0.73333 2.75,-1.58333 4.25,-2.55c1.46667,1.83333 2.5,2.98333 3.1,3.45c1.43333,-0.2 1.91667,-0.98333 1.45,-2.35c-0.86667,-1.63333 -1.43333,-2.73333 -1.7,-3.3c0.43333,-0.4 1.06667,-0.98333 1.9,-1.75c0.73333,-0.7 1.28333,-1.35 1.65,-1.95c-0.4,-1.46667 -1.21667,-1.93333 -2.45,-1.4c-0.5,0.23333 -1.45,0.91667 -2.85,2.05c-0.53333,-0.46667 -0.95,-0.8 -1.25,-1c-0.5,-0.4 -0.98333,-0.61667 -1.45,-0.65c-0.06667,0.6 -0.06667,2.13333 0,4.6M673.16892,354.65088c0.86667,-0.83333 1.53333,-1.35 2,-1.55c0.8,-0.33333 1.56667,-0.18333 2.3,0.45c0.93333,0.6 1.26667,1.56667 1,2.9c-0.13333,0.73333 -0.48333,1.78333 -1.05,3.15c0.43333,0.8 1.08333,2.05 1.95,3.75c0.6,1.46667 0.66667,2.81667 0.2,4.05c-1.1,1 -2.3,1.13333 -3.6,0.4c-1.06667,-0.6 -1.98333,-1.56667 -2.75,-2.9c-1.56667,1.5 -2.76667,2.56667 -3.6,3.2c-1.4,1.03333 -2.8,1.73333 -4.2,2.1c0.93333,-2.83333 2.6,-6.28333 5,-10.35c-1.66667,-2.03333 -2.71667,-3.48333 -3.15,-4.35c-0.33333,-0.93333 -0.1,-1.75 0.7,-2.45c0.8,-0.7 1.65,-0.83333 2.55,-0.4c0.63333,0.4 1.51667,1.06667 2.65,2z" fill="#000000"/><path d="M643.66892,356.65088c-0.6,3 -1.91667,5.3 -3.95,6.9c-3.76667,3 -7.88333,5.1 -12.35,6.3c-4.76667,1.33333 -9.36667,1.48333 -13.8,0.45c-2.2,-0.36667 -3.85,-0.7 -4.95,-1c-1.86667,-0.53333 -3.28333,-1.35 -4.25,-2.45c-3.1,-3.13333 -5.41667,-6.56667 -6.95,-10.3c-1.73333,-4.16667 -2.26667,-8.23333 -1.6,-12.2c0.53333,-2.93333 1.88333,-5.83333 4.05,-8.7c1.53333,-2.06667 3.78333,-4.41667 6.75,-7.05c1.2,-1.13333 2.81667,-1.9 4.85,-2.3c0.2,-0.03333 2,-0.21667 5.4,-0.55c3.4,-0.56667 6.7,-0.45 9.9,0.35c3.5,0.86667 6.36667,2.45 8.6,4.75c1.13333,1.86667 2.83333,4.66667 5.1,8.4c1.8,3.33333 2.86667,6.41667 3.2,9.25c0.46667,3.03333 0.46667,5.75 0,8.15M602.11892,352.60088c0.36667,1.4 1.26667,2.45 2.7,3.15c1.43333,0.63333 2.81667,0.66667 4.15,0.1c1.4,-0.56667 2.65,-1.63333 3.75,-3.2c0.43333,-0.6 1.25,-2.08333 2.45,-4.45c0.4,1.7 0.75,2.88333 1.05,3.55c0.56667,1.26667 1.36667,2.15 2.4,2.65c2.56667,1.56667 5.91667,0.95 10.05,-1.85c2,-1.9 3.38333,-4.4 4.15,-7.5c0.66667,-2.7 0.81667,-5.58333 0.45,-8.65c-0.26667,-1.86667 -0.81667,-3.45 -1.65,-4.75c-1.03333,-1.6 -2.35,-2.48333 -3.95,-2.65c-1.93333,-0.13333 -3.76667,0.51667 -5.5,1.95c-1.06667,0.86667 -2.4,2.36667 -4,4.5c-0.43333,-1.83333 -1.3,-3.28333 -2.6,-4.35c-1.46667,-1.2 -3.06667,-1.51667 -4.8,-0.95c-4.36667,1.43333 -7.46667,4.53333 -9.3,9.3c-1.83333,4.76667 -1.61667,9.15 0.65,13.15M627.71892,358.65088c-4.46667,2.8 -10.18333,4.46667 -17.15,5c-2.03333,-0.03333 -3.96667,-1.15 -5.8,-3.35c-2.4,-2.93333 -3.98333,-4.63333 -4.75,-5.1c0.8,2.96667 2.16667,5.48333 4.1,7.55c2.16667,2.36667 4.66667,3.61667 7.5,3.75c4.33333,0.03333 8,-0.23333 11,-0.8c4,-0.76667 7.38333,-2.11667 10.15,-4.05c1.46667,-1 2.63333,-2.15 3.5,-3.45c0.96667,-1.53333 1.43333,-3.1 1.4,-4.7c0,-1.33333 -0.75,-2.23333 -2.25,-2.7c-1.46667,-0.46667 -2.56667,-0.13333 -3.3,1c-0.7,1.73333 -1.25,3 -1.65,3.8c-0.76667,1.43333 -1.68333,2.45 -2.75,3.05z" fill="#b4b4b4"/><path d="M622.01892,338.70088c0.46667,0.03333 0.95,0.25 1.45,0.65c0.3,0.2 0.71667,0.53333 1.25,1c1.4,-1.13333 2.35,-1.81667 2.85,-2.05c1.23333,-0.53333 2.05,-0.06667 2.45,1.4c-0.36667,0.6 -0.91667,1.25 -1.65,1.95c-0.83333,0.76667 -1.46667,1.35 -1.9,1.75c0.26667,0.56667 0.83333,1.66667 1.7,3.3c0.46667,1.36667 -0.01667,2.15 -1.45,2.35c-0.6,-0.46667 -1.63333,-1.61667 -3.1,-3.45c-1.5,0.96667 -2.91667,1.81667 -4.25,2.55c0.56667,-1.5 1.45,-3.11667 2.65,-4.85c-0.06667,-2.46667 -0.06667,-4 0,-4.6M611.76892,343.00088c0.1,0.6 0.43333,1.48333 1,2.65c0.36667,1.03333 0.2,1.86667 -0.5,2.5c-0.66667,0.1 -1.3,-0.15 -1.9,-0.75c-0.56667,-0.73333 -1,-1.28333 -1.3,-1.65c-0.53333,0.4 -1.93333,1.31667 -4.2,2.75c0.26667,-0.9 0.66667,-1.91667 1.2,-3.05c0.66667,-1.3 1.15,-2.28333 1.45,-2.95c-0.43333,-2.36667 -0.75,-4.13333 -0.95,-5.3l3.1,3.35c0.6,-0.33333 1.48333,-1.11667 2.65,-2.35c1.13333,-0.9 2.16667,-1.05 3.1,-0.45c0.6,1.03333 0.33333,2.01667 -0.8,2.95z" fill="#e1e1e1"/><path d="M647.26892,341.15088c4.1,-1.33333 8.78333,-3.95 14.05,-7.85l-0.25,8.65c-3.53333,0.23333 -7.83333,1.43333 -12.9,3.6l-0.9,-4.4M659.66892,345.10088c0.9,0.1 2.23333,0.51667 4,1.25c1.66667,0.7 3,1.08333 4,1.15c0.66667,-0.26667 1.65,-0.78333 2.95,-1.55c1.26667,-0.76667 2.26667,-1.28333 3,-1.55c1.96667,0.1 3.78333,0.65 5.45,1.65c1.73333,1.03333 3,2.41667 3.8,4.15c0.93333,1.53333 1.48333,3.63333 1.65,6.3c0.23333,3.96667 0.38333,6.15 0.45,6.55c3.23333,1.73333 5.25,4.51667 6.05,8.35c0.76667,3.76667 0.15,7.2 -1.85,10.3c-0.73333,-1.53333 -1.15,-2.38333 -1.25,-2.55c-0.63333,-0.86667 -1.41667,-1.33333 -2.35,-1.4c-5.36667,-1.13333 -10.81667,-1.15 -16.35,-0.05c-5.6,1.06667 -10.65,3.15 -15.15,6.25c-2.16667,1.76667 -3.5,2.95 -4,3.55c-1.33333,1.63333 -1.76667,3.26667 -1.3,4.9l0.95,0.55c0.9,-0.53333 2.26667,-1.58333 4.1,-3.15c1.7,-1.43333 3.08333,-2.45 4.15,-3.05c4.46667,-2.46667 9.31667,-4 14.55,-4.6c5.16667,-0.6 10.25,-0.23333 15.25,1.1c-2.13333,0.7 -3.71667,1.26667 -4.75,1.7c-1.33333,1.53333 -2.33333,2.68333 -3,3.45c-1.23333,1.36667 -2.45,2.26667 -3.65,2.7c-1.56667,0.76667 -3.41667,1.05 -5.55,0.85c-1.16667,-0.1 -3.01667,-0.46667 -5.55,-1.1c-2,-1.33333 -3.46667,-1.38333 -4.4,-0.15c-2.06667,2.16667 -4.56667,3.58333 -7.5,4.25c-3,0.7 -5.85,0.46667 -8.55,-0.7c-1.46667,-0.56667 -2.76667,-1.65 -3.9,-3.25c-0.46667,-0.66667 -1.31667,-2.18333 -2.55,-4.55l1.25,-2.95c-1.86667,-1.93333 -3.26667,-3.38333 -4.2,-4.35c-1.6,-1.73333 -2.81667,-3.33333 -3.65,-4.8c5.33333,-1.96667 9.5,-4.96667 12.5,-9l2.95,2.7c-1.7,1.93333 -2.73333,3.23333 -3.1,3.9c-0.26667,0.83333 -0.13333,1.58333 0.4,2.25c0.56667,0.63333 1.3,0.88333 2.2,0.75c0.63333,-0.33333 1.36667,-0.9 2.2,-1.7c1.13333,-1.03333 1.81667,-1.65 2.05,-1.85c0.33333,0.06667 1.56667,0.63333 3.7,1.7c1.5,0.73333 2.76667,0.85 3.8,0.35c-0.56667,-1.3 -1.8,-3.31667 -3.7,-6.05c0.63333,-0.7 1.61667,-1.78333 2.95,-3.25c1.1,-1.26667 1.9,-2.46667 2.4,-3.6c-0.13333,-0.63333 -0.46667,-1.31667 -1,-2.05c-0.63333,-0.8 -1.08333,-1.41667 -1.35,-1.85c-1.23333,0.73333 -2.48333,1.76667 -3.75,3.1c-0.6,0.63333 -1.63333,1.86667 -3.1,3.7l-3.75,-3.5c0.43333,-2.53333 0.76667,-4.43333 1,-5.7c0.43333,-2.23333 0.98333,-4.08333 1.65,-5.55c1.06667,-0.43333 2.66667,-1.15 4.8,-2.15c1.9,-0.83333 3.58333,-1.31667 5.05,-1.45M667.26892,355.50088c0.43333,0.86667 1.48333,2.31667 3.15,4.35c-2.4,4.06667 -4.06667,7.51667 -5,10.35c1.4,-0.36667 2.8,-1.06667 4.2,-2.1c0.83333,-0.63333 2.03333,-1.7 3.6,-3.2c0.76667,1.33333 1.68333,2.3 2.75,2.9c1.3,0.73333 2.5,0.6 3.6,-0.4c0.46667,-1.23333 0.4,-2.58333 -0.2,-4.05c-0.86667,-1.7 -1.51667,-2.95 -1.95,-3.75c0.56667,-1.36667 0.91667,-2.41667 1.05,-3.15c0.26667,-1.33333 -0.06667,-2.3 -1,-2.9c-0.73333,-0.63333 -1.5,-0.78333 -2.3,-0.45c-0.46667,0.2 -1.13333,0.71667 -2,1.55c-1.13333,-0.93333 -2.01667,-1.6 -2.65,-2c-0.9,-0.43333 -1.75,-0.3 -2.55,0.4c-0.8,0.7 -1.03333,1.51667 -0.7,2.45z" fill="#d57e00"/></g></g></svg>