<svg version="1.1" xmlns="http://www.w3.org/2000/svg" xmlns:xlink="http://www.w3.org/1999/xlink" width="41.1112" height="65.35169" viewBox="0,0,41.1112,65.35169"><g transform="translate(-615.00186,-338.03431)"><g data-paper-data="{&quot;isPaintingLayer&quot;:true}" fill-rule="nonzero" stroke="none" stroke-width="1" stroke-linecap="round" stroke-linejoin="miter" stroke-miterlimit="4" stroke-dasharray="" stroke-dashoffset="0" style="mix-blend-mode: normal"><path d="M649.1155,344.78051c1.6,2.16667 2.7,4.6 3.3,7.3c1.1,5.06667 0.43333,10.31667 -2,15.75c2.06667,2.2 3.6,4.78333 4.6,7.75c1,2.93333 1.31667,5.91667 0.95,8.95c-0.33333,3 -1.3,5.83333 -2.9,8.5c-1.63333,2.66667 -3.7,4.85 -6.2,6.55c-3.93333,2.63333 -8.45,3.9 -13.55,3.8c-3.53333,-0.1 -6.53333,-0.86667 -9,-2.3c-2.2,-1.3 -4,-3.16667 -5.4,-5.6c-1.33333,-2.33333 -2.13333,-4.86667 -2.4,-7.6c-0.46667,-4.8 0.65,-9.9 3.35,-15.3c-2.3,-2.76667 -3.8,-6 -4.5,-9.7c-0.66667,-3.66667 -0.41667,-7.21667 0.75,-10.65c1.16667,-3.4 3.15,-6.35 5.95,-8.85c2.8,-2.5 5.96667,-4.11667 9.5,-4.85c4.13333,-0.93333 7.96667,-0.55 11.5,1.15c2.36667,1.13333 4.38333,2.83333 6.05,5.1M644.0155,347.63051c-1.9,-2.13333 -4.41667,-3.31667 -7.55,-3.55c-2.7,-0.13333 -5.43333,0.51667 -8.2,1.95c-2.9,1.6 -5.05,3.66667 -6.45,6.2c-1.4,2.53333 -1.85,5.35 -1.35,8.45c0.43333,3 1.66667,5.56667 3.7,7.7c0.33333,0.36667 0.83333,0.91667 1.5,1.65c0.5,0.63333 0.78333,1.26667 0.85,1.9c0.06667,0.6 -0.06667,1.26667 -0.4,2c-0.13333,0.3 -0.5,0.91667 -1.1,1.85c-2.23333,3.6 -3.13333,7.55 -2.7,11.85c0.76667,3.66667 2.1,6.21667 4,7.65c1.7,1.33333 4.23333,2 7.6,2c2.8,0.06667 5.13333,-0.28333 7,-1.05c2.03333,-0.8 3.83333,-2.13333 5.4,-4c1.43333,-1.73333 2.55,-3.73333 3.35,-6c1.03333,-2.4 1.1,-5.01667 0.2,-7.85c-0.7,-2.23333 -2.08333,-4.5 -4.15,-6.8c-1.2,-1.26667 -1.85,-2.3 -1.95,-3.1c-0.03333,-0.6 0.13333,-1.25 0.5,-1.95c0.5,-0.83333 0.86667,-1.45 1.1,-1.85c1.5,-2.53333 2.01667,-5.7 1.55,-9.5c-0.36667,-3.23333 -1.33333,-5.75 -2.9,-7.55M633.8155,379.28051l2.25,-1.15c0.7,-0.3 1.58333,-0.15 2.65,0.45c1.7,0.9 2.91667,2.05 3.65,3.45c0.9,1.7 0.96667,3.33333 0.2,4.9c-0.7,1.4 -2,2.36667 -3.9,2.9c-1.1,0.3 -2.76667,0.45 -5,0.45c-1.4,0 -2.43333,-0.1 -3.1,-0.3c-1.16667,-0.3 -1.96667,-0.88333 -2.4,-1.75c-0.63333,-1.13333 -0.55,-2.4 0.25,-3.8c0.36667,-0.66667 1.25,-1.66667 2.65,-3c1.2,-1.13333 2.11667,-1.85 2.75,-2.15M637.5655,384.08051l-1.55,-0.8l-0.8,1.25c1.06667,0.06667 1.91667,0 2.55,-0.2l-0.2,-0.25M637.9155,361.48051c-1.03333,1.2 -2.2,1.91667 -3.5,2.15c-0.7,0.16667 -1.4,0.15 -2.1,-0.05c-0.73333,-0.2 -1.33333,-0.55 -1.8,-1.05c-1,-1 -1.35,-2.3 -1.05,-3.9c0.23333,-1.26667 0.88333,-2.46667 1.95,-3.6c1.03333,-1.13333 2.2,-1.91667 3.5,-2.35c0.56667,-0.2 0.88333,-0.31667 0.95,-0.35c0.06667,-0.03333 0.33333,-0.18333 0.8,-0.45c0.43333,-0.23333 0.91667,-0.33333 1.45,-0.3c0.53333,0.03333 1,0.2 1.4,0.5c0.83333,0.6 1.25,1.51667 1.25,2.75c0,0.8 -0.25,1.8 -0.75,3c-0.6,1.53333 -1.3,2.75 -2.1,3.65z" fill="#000000"/><path d="M646.9155,355.18051c0.46667,3.8 -0.05,6.96667 -1.55,9.5c-0.23333,0.4 -0.6,1.01667 -1.1,1.85c-0.36667,0.7 -0.53333,1.35 -0.5,1.95c0.1,0.8 0.75,1.83333 1.95,3.1c2.06667,2.3 3.45,4.56667 4.15,6.8c0.9,2.83333 0.83333,5.45 -0.2,7.85c-0.8,2.26667 -1.91667,4.26667 -3.35,6c-1.56667,1.86667 -3.36667,3.2 -5.4,4c-1.86667,0.76667 -4.2,1.11667 -7,1.05c-3.36667,0 -5.9,-0.66667 -7.6,-2c-1.9,-1.43333 -3.23333,-3.98333 -4,-7.65c-0.43333,-4.3 0.46667,-8.25 2.7,-11.85c0.6,-0.93333 0.96667,-1.55 1.1,-1.85c0.33333,-0.73333 0.46667,-1.4 0.4,-2c-0.06667,-0.63333 -0.35,-1.26667 -0.85,-1.9c-0.66667,-0.73333 -1.16667,-1.28333 -1.5,-1.65c-2.03333,-2.13333 -3.26667,-4.7 -3.7,-7.7c-0.5,-3.1 -0.05,-5.91667 1.35,-8.45c1.4,-2.53333 3.55,-4.6 6.45,-6.2c2.76667,-1.43333 5.5,-2.08333 8.2,-1.95c3.13333,0.23333 5.65,1.41667 7.55,3.55c1.56667,1.8 2.53333,4.31667 2.9,7.55M640.7655,354.83051c0,-1.23333 -0.41667,-2.15 -1.25,-2.75c-0.4,-0.3 -0.86667,-0.46667 -1.4,-0.5c-0.53333,-0.03333 -1.01667,0.06667 -1.45,0.3c-0.46667,0.26667 -0.73333,0.41667 -0.8,0.45c-0.06667,0.03333 -0.38333,0.15 -0.95,0.35c-1.3,0.43333 -2.46667,1.21667 -3.5,2.35c-1.06667,1.13333 -1.71667,2.33333 -1.95,3.6c-0.3,1.6 0.05,2.9 1.05,3.9c0.46667,0.5 1.06667,0.85 1.8,1.05c0.7,0.2 1.4,0.21667 2.1,0.05c1.3,-0.23333 2.46667,-0.95 3.5,-2.15c0.8,-0.9 1.5,-2.11667 2.1,-3.65c0.5,-1.2 0.75,-2.2 0.75,-3M628.4155,384.43051c-0.8,1.4 -0.88333,2.66667 -0.25,3.8c0.43333,0.86667 1.23333,1.45 2.4,1.75c0.66667,0.2 1.7,0.3 3.1,0.3c2.23333,0 3.9,-0.15 5,-0.45c1.9,-0.53333 3.2,-1.5 3.9,-2.9c0.76667,-1.56667 0.7,-3.2 -0.2,-4.9c-0.73333,-1.4 -1.95,-2.55 -3.65,-3.45c-1.06667,-0.6 -1.95,-0.75 -2.65,-0.45l-2.25,1.15c-0.63333,0.3 -1.55,1.01667 -2.75,2.15c-1.4,1.33333 -2.28333,2.33333 -2.65,3z" fill="#ffffff"/></g></g></svg>