<svg version="1.1" xmlns="http://www.w3.org/2000/svg" xmlns:xlink="http://www.w3.org/1999/xlink" width="589.25" height="156.8" viewBox="0,0,589.25,156.8"><g transform="translate(-345.625,-282.1)"><g data-paper-data="{&quot;isPaintingLayer&quot;:true}" fill-rule="nonzero" stroke="none" stroke-width="1" stroke-linecap="round" stroke-linejoin="miter" stroke-miterlimit="4" stroke-dasharray="" stroke-dashoffset="0" style="mix-blend-mode: normal"><g><g fill="#000000"><path d="M386.675,290.8c2.86667,0.03333 5.73333,0.11667 8.6,0.25c0.7,0.23333 1.41667,0.46667 2.15,0.7c15.93333,0.23333 31.88333,0.48333 47.85,0.75c0.7,0.23333 1.41667,0.46667 2.15,0.7c0.7,0.23333 1.41667,0.46667 2.15,0.7c0.8,0.23333 1.61667,0.46667 2.45,0.7c0.5,0.26667 0.98333,0.51667 1.45,0.75c0.6,0.1 1.2,0.21667 1.8,0.35c0.6,0.23333 1.18333,0.46667 1.75,0.7c0.5,0.36667 0.98333,0.73333 1.45,1.1c0.36667,0.33333 0.71667,0.68333 1.05,1.05c0.36667,0.36667 0.73333,0.71667 1.1,1.05c0.7,0.36667 1.41667,0.73333 2.15,1.1c0.46667,0.36667 0.93333,0.71667 1.4,1.05c0.36667,0.36667 0.73333,0.73333 1.1,1.1c0.23333,0.33333 0.46667,0.68333 0.7,1.05c0.36667,0.36667 0.71667,0.71667 1.05,1.05c0.36667,0.36667 0.73333,0.73333 1.1,1.1c0.36667,0.36667 0.71667,0.71667 1.05,1.05c0.36667,0.36667 0.73333,0.73333 1.1,1.1c0.33333,0.33333 0.68333,0.68333 1.05,1.05c0.36667,0.36667 0.73333,0.73333 1.1,1.1c0.33333,0.33333 0.68333,0.68333 1.05,1.05c0.36667,0.36667 0.71667,0.71667 1.05,1.05c0.13333,0.36667 0.26667,0.73333 0.4,1.1c0.18555,0.29167 0.36888,0.575 0.55,0.85c0.05221,-0.05221 0.10221,-0.10221 0.15,-0.15c0.36667,-0.36667 0.71667,-0.71667 1.05,-1.05c0.36667,-0.36667 0.73333,-0.73333 1.1,-1.1c0.33333,-0.33333 0.68333,-0.68333 1.05,-1.05c0.36667,-0.36667 0.73333,-0.73333 1.1,-1.1c0.33333,-0.33333 0.68333,-0.68333 1.05,-1.05c0.36667,-0.36667 0.71667,-0.71667 1.05,-1.05c0.26667,-0.26667 0.51667,-0.51667 0.75,-0.75c0.23333,-0.1 0.46667,-0.2 0.7,-0.3c0.6,-0.26667 1.2,-0.51667 1.8,-0.75c0.33333,-0.23333 0.68333,-0.46667 1.05,-0.7c0.6,-0.26667 1.2,-0.51667 1.8,-0.75c0.36667,-0.23333 0.71667,-0.46667 1.05,-0.7c0.6,-0.23333 1.2,-0.46667 1.8,-0.7c0.36667,-0.23333 0.71667,-0.46667 1.05,-0.7c0.6,-0.13333 1.2,-0.26667 1.8,-0.4c0.6,-0.23333 1.2,-0.46667 1.8,-0.7c0.83333,-0.36667 1.66667,-0.71667 2.5,-1.05c0.36667,-0.23333 0.71667,-0.48333 1.05,-0.75c0.6,-0.23333 1.2,-0.46667 1.8,-0.7c0.36667,-0.23333 0.71667,-0.46667 1.05,-0.7c0.6,-0.13333 1.2,-0.26667 1.8,-0.4c1.06667,-0.2 2.13333,-0.43333 3.2,-0.7c0.83333,-0.23333 1.66667,-0.46667 2.5,-0.7c3.83333,0 7.65,0 11.45,0c0.7,0.23333 1.41667,0.46667 2.15,0.7c1.66667,0.26667 3.33333,0.51667 5,0.75c0.7,0.23333 1.41667,0.43333 2.15,0.6c1.16667,0.3 2.35,0.6 3.55,0.9c0.7,0.16667 1.41667,0.35 2.15,0.55c1.9,0.53333 3.8,1.05 5.7,1.55c0.73333,0.2 1.45,0.41667 2.15,0.65c0.7,0.26667 1.41667,0.51667 2.15,0.75c0.36667,0.23333 0.71667,0.46667 1.05,0.7c0.6,0.23333 1.2,0.46667 1.8,0.7c0.36667,0.23333 0.71667,0.46667 1.05,0.7c0.5,0.13333 0.98333,0.26667 1.45,0.4c0.6,0.23333 1.2,0.46667 1.8,0.7c0.33333,0.36667 0.68333,0.71667 1.05,1.05c0.46667,0.36667 0.95,0.73333 1.45,1.1c0.33333,0.33333 0.68333,0.68333 1.05,1.05c0.73333,0.36667 1.45,0.73333 2.15,1.1c0.36667,0.33333 0.71667,0.68333 1.05,1.05c0.36667,0.36667 0.73333,0.71667 1.1,1.05c0.36667,0.36667 0.71667,0.73333 1.05,1.1c0.36667,0.1 0.73333,0.21667 1.1,0.35c0.23333,-0.23333 0.46667,-0.46667 0.7,-0.7c0,-0.36667 0,-0.73333 0,-1.1c0,-0.33333 0,-0.68333 0,-1.05c0,-0.36667 0,-0.73333 0,-1.1c0,-0.33333 0,-0.68333 0,-1.05c0,-0.36667 0,-0.71667 0,-1.05c0.23333,-0.36667 0.46667,-0.73333 0.7,-1.1c0.36667,-0.36667 0.73333,-0.71667 1.1,-1.05c0.83333,-0.23333 1.66667,-0.48333 2.5,-0.75c10.56667,-0.23333 21.15,-0.46667 31.75,-0.7c0.83333,-0.23333 1.66667,-0.46667 2.5,-0.7c5.36667,-0.23333 10.73333,-0.46667 16.1,-0.7c0.83333,-0.23333 1.66667,-0.48333 2.5,-0.75c2.96667,-0.23333 5.93333,-0.46667 8.9,-0.7c0.83333,-0.23333 1.66667,-0.46667 2.5,-0.7c2.03333,-0.23333 4.06667,-0.46667 6.1,-0.7c0.83333,-0.26667 1.66667,-0.51667 2.5,-0.75c2,-0.23333 4.01667,-0.46667 6.05,-0.7c0.83333,-0.23333 1.66667,-0.46667 2.5,-0.7c1.9,0 3.8,0 5.7,0c0.73333,0.23333 1.45,0.46667 2.15,0.7c0.36667,0.23333 0.73333,0.46667 1.1,0.7c0.56667,0.23333 1.15,0.48333 1.75,0.75c0.5,0.33333 0.98333,0.68333 1.45,1.05c0.36667,0.36667 0.71667,0.71667 1.05,1.05c0.36667,0.36667 0.73333,0.73333 1.1,1.1c0.23333,0.33333 0.46667,0.68333 0.7,1.05c0.13333,0.36667 0.25,0.73333 0.35,1.1c0.13333,0.33333 0.25,0.68333 0.35,1.05c0.36667,0.36667 0.73333,0.71667 1.1,1.05c0.23333,0.36667 0.46667,0.73333 0.7,1.1c0.13333,0.36667 0.25,0.71667 0.35,1.05c0.13333,0.13333 0.21667,0.18333 0.25,0.15c0.2,-0.1 0.35,-0.26667 0.45,-0.5c0,-0.36667 0,-0.71667 0,-1.05c0,-0.36667 0,-0.73333 0,-1.1c0,-0.33333 0,-0.68333 0,-1.05c0,-0.36667 0,-0.73333 0,-1.1c0.26667,-0.33333 0.51667,-0.68333 0.75,-1.05c0.33333,-0.36667 0.68333,-0.71667 1.05,-1.05c0.83333,-0.36667 1.66667,-0.73333 2.5,-1.1c0.36667,-0.23333 0.73333,-0.46667 1.1,-0.7c0.56667,-0.13333 1.15,-0.25 1.75,-0.35c0.6,-0.23333 1.2,-0.45 1.8,-0.65c0.83333,-0.3 1.66667,-0.56667 2.5,-0.8c3.93333,-0.23333 7.86667,-0.46667 11.8,-0.7c0.83333,-0.23333 1.66667,-0.46667 2.5,-0.7c3.93333,-0.23333 7.85,-0.48333 11.75,-0.75c0.83333,-0.23333 1.66667,-0.46667 2.5,-0.7c5.23333,0 10.48333,0 15.75,0c0.7,0.23333 1.4,0.46667 2.1,0.7c0.5,0.36667 0.98333,0.73333 1.45,1.1c0.23333,0.23333 0.46667,0.46667 0.7,0.7c0.13333,0.13333 0.26667,0.23333 0.4,0.3c0.56667,0.26667 1.15,0.53333 1.75,0.8c0.46667,0.33333 0.95,0.68333 1.45,1.05c0.33333,0.36667 0.68333,0.71667 1.05,1.05c0.36667,0.36667 0.73333,0.73333 1.1,1.1c0.23333,0.33333 0.46667,0.68333 0.7,1.05c0.1,0.36667 0.21667,0.73333 0.35,1.1c0.23333,0.33333 0.46667,0.68333 0.7,1.05c0.36667,0.36667 0.73333,0.71667 1.1,1.05c0.23333,0.36667 0.46667,0.73333 0.7,1.1c0.23333,0.36667 0.46667,0.71667 0.7,1.05c0.23333,0.36667 0.46667,0.73333 0.7,1.1c0.13333,0.23333 0.26667,0.46667 0.4,0.7c0.1,-0.13333 0.18333,-0.26667 0.25,-0.4c0.16667,-0.33333 0.31667,-0.68333 0.45,-1.05c0.23333,-0.33333 0.46667,-0.68333 0.7,-1.05c0.13333,-0.36667 0.25,-0.71667 0.35,-1.05c0,-0.36667 0,-0.73333 0,-1.1c0,-0.36667 0,-0.71667 0,-1.05c0,-0.36667 0,-0.73333 0,-1.1c0,-0.33333 0,-0.68333 0,-1.05c0,-0.36667 0,-0.71667 0,-1.05c0.13333,-0.36667 0.26667,-0.73333 0.4,-1.1c0.33333,-0.36667 0.68333,-0.71667 1.05,-1.05c0.36667,-0.36667 0.71667,-0.73333 1.05,-1.1c0.26667,-0.23333 0.51667,-0.46667 0.75,-0.7c0.23333,-0.13333 0.46667,-0.25 0.7,-0.35c0.6,-0.13333 1.2,-0.25 1.8,-0.35c0.6,-0.23333 1.2,-0.46667 1.8,-0.7c0.8,-0.26667 1.61667,-0.51667 2.45,-0.75c2.5,-0.23333 5,-0.46667 7.5,-0.7c0.83333,-0.23333 1.66667,-0.46667 2.5,-0.7c2.5,-0.26667 5,-0.51667 7.5,-0.75c0.83333,-0.23333 1.66667,-0.46667 2.5,-0.7c6.33333,-0.23333 12.65,-0.46667 18.95,-0.7c0.83333,-0.23333 1.66667,-0.48333 2.5,-0.75c2.96667,-0.23333 5.93333,-0.46667 8.9,-0.7c0.83333,-0.23333 1.66667,-0.46667 2.5,-0.7c1.56667,-0.23333 3.11667,-0.46667 4.65,-0.7c0.83333,-0.26667 1.68333,-0.48333 2.55,-0.65c1.53333,-0.3 3.06667,-0.56667 4.6,-0.8c0.83333,-0.23333 1.66667,-0.46667 2.5,-0.7c4.3,0 8.58333,0 12.85,0c0.6,0.1 1.2,0.21667 1.8,0.35c0.6,0.23333 1.2,0.46667 1.8,0.7c0.23333,0.23333 0.46667,0.46667 0.7,0.7c0.7,0.26667 1.41667,0.51667 2.15,0.75c0.36667,0.23333 0.71667,0.46667 1.05,0.7c0.6,0.23333 1.2,0.46667 1.8,0.7c0.46667,0.36667 0.95,0.73333 1.45,1.1c0.33333,0.33333 0.68333,0.68333 1.05,1.05c0.23333,0.36667 0.46667,0.73333 0.7,1.1c0.23333,0.33333 0.48333,0.68333 0.75,1.05c0.23333,0.36667 0.45,0.73333 0.65,1.1c0.13333,0.23333 0.26667,0.46667 0.4,0.7c0.1,-0.13333 0.18333,-0.26667 0.25,-0.4c0.06667,-0.33333 0.1,-0.68333 0.1,-1.05c0,-0.36667 0,-0.71667 0,-1.05c0,-0.36667 0,-0.73333 0,-1.1c0,-0.33333 0,-0.68333 0,-1.05c0,-0.36667 0,-0.73333 0,-1.1c0,-0.33333 0,-0.68333 0,-1.05c0,-0.36667 0,-0.71667 0,-1.05c0.13333,-0.36667 0.25,-0.73333 0.35,-1.1c0.23333,-0.36667 0.46667,-0.71667 0.7,-1.05c0.36667,-0.36667 0.73333,-0.73333 1.1,-1.1c0.36667,-0.23333 0.71667,-0.46667 1.05,-0.7c0.13333,-0.13333 0.26667,-0.21667 0.4,-0.25c0.56667,-0.2 1.15,-0.35 1.75,-0.45c0.6,-0.23333 1.2,-0.46667 1.8,-0.7c0.83333,-0.26667 1.66667,-0.53333 2.5,-0.8c0.6,-0.2 1.2,-0.4 1.8,-0.6c0.83333,-0.26667 1.66667,-0.51667 2.5,-0.75c2.83333,0 5.68333,-0.06667 8.55,-0.2v-0.2c8.56667,0 17.13333,0 25.7,0c0.73333,0.26667 1.45,0.51667 2.15,0.75c5.96667,0.23333 11.91667,0.46667 17.85,0.7c0.73333,0.23333 1.45,0.46667 2.15,0.7c0.36667,0.23333 0.71667,0.48333 1.05,0.75c0.83333,0.1 1.66667,0.21667 2.5,0.35c0.73333,0.23333 1.45,0.46667 2.15,0.7c0.36667,0.36667 0.73333,0.71667 1.1,1.05c0.33333,0.26667 0.68333,0.51667 1.05,0.75c0.13333,0.1 0.25,0.21667 0.35,0.35c0.6,0.23333 1.2,0.46667 1.8,0.7c0.36667,0.36667 0.71667,0.73333 1.05,1.1c0.36667,0.23333 0.71667,0.46667 1.05,0.7c0.13333,0.1 0.26667,0.21667 0.4,0.35c0.6,0.23333 1.2,0.46667 1.8,0.7c0.33333,0.36667 0.68333,0.73333 1.05,1.1c0.13333,0.33333 0.25,0.68333 0.35,1.05c0.13333,0.36667 0.25,0.73333 0.35,1.1c0.26667,0.33333 0.51667,0.68333 0.75,1.05c0.23333,0.36667 0.46667,0.71667 0.7,1.05c0,0.36667 0,0.73333 0,1.1c0,0.36667 0,0.71667 0,1.05c0,0.36667 0,0.73333 0,1.1c0.23333,0.33333 0.46667,0.68333 0.7,1.05c0.13333,0.36667 0.25,0.73333 0.35,1.1c0.13333,0.33333 0.26667,0.68333 0.4,1.05c0,0.36667 0,0.71667 0,1.05c0,0.36667 0,0.73333 0,1.1c0,0.33333 0,0.68333 0,1.05c-0.03333,2.5 -0.05,5 -0.05,7.5c0.03333,3.23333 0.05,6.45 0.05,9.65c0,3.56667 0,7.13333 0,10.7c0,3.93333 0,7.86667 0,11.8c0,2.86667 0,5.71667 0,8.55c-0.13333,0.36667 -0.26667,0.73333 -0.4,1.1c-0.1,0.36667 -0.21667,0.71667 -0.35,1.05c-0.23333,0.36667 -0.46667,0.73333 -0.7,1.1c0,0.33333 0,0.68333 0,1.05c-0.13333,0.36667 -0.25,0.73333 -0.35,1.1c-0.13333,0.33333 -0.25,0.68333 -0.35,1.05c-0.23333,0.36667 -0.48333,0.71667 -0.75,1.05c-0.1,0.36667 -0.21667,0.73333 -0.35,1.1c-0.23333,0.36667 -0.46667,0.71667 -0.7,1.05c-0.23333,0.23333 -0.46667,0.48333 -0.7,0.75c-0.13333,0.1 -0.26667,0.18333 -0.4,0.25c-0.7,0.3 -1.4,0.56667 -2.1,0.8c-0.23333,0.23333 -0.48333,0.46667 -0.75,0.7c-0.56667,0.13333 -1.15,0.28333 -1.75,0.45c-0.73333,0.2 -1.45,0.41667 -2.15,0.65c-0.73333,0.23333 -1.45,0.46667 -2.15,0.7c-1.43333,0.46667 -2.86667,0.95 -4.3,1.45c-0.7,0.23333 -1.41667,0.46667 -2.15,0.7c-0.7,0.23333 -1.4,0.46667 -2.1,0.7c-2.5,0.23333 -5,0.46667 -7.5,0.7c0,0.36667 0,0.73333 0,1.1c0,0.33333 0,0.68333 0,1.05c0.23333,0.36667 0.46667,0.73333 0.7,1.1c0.13333,0.33333 0.25,0.68333 0.35,1.05c0.13333,0.36667 0.25,0.71667 0.35,1.05c0,0.36667 0,0.73333 0,1.1c0,0.36667 0,0.71667 0,1.05c0.36667,0.13333 0.73333,0.25 1.1,0.35c0.1,-0.1 0.23333,-0.18333 0.4,-0.25c0.56667,-0.16667 1.15,-0.31667 1.75,-0.45c4.73333,0 9.48333,0 14.25,0c0.73333,0.23333 1.45,0.46667 2.15,0.7c0.36667,0.36667 0.71667,0.73333 1.05,1.1c0.36667,0.36667 0.73333,0.71667 1.1,1.05c0.36667,0.36667 0.71667,0.73333 1.05,1.1c0.23333,0.33333 0.48333,0.68333 0.75,1.05c0.23333,0.36667 0.46667,0.73333 0.7,1.1c0,0.33333 0,0.68333 0,1.05c0,0.36667 0,0.71667 0,1.05c0.23333,0.36667 0.46667,0.73333 0.7,1.1c0.23333,0.36667 0.46667,0.71667 0.7,1.05c0,0.36667 0,0.73333 0,1.1c0,0.33333 0,0.68333 0,1.05c0,0.36667 0,0.73333 0,1.1c0,0.33333 0,0.68333 0,1.05c0.13333,0.36667 0.26667,0.71667 0.4,1.05c0.23333,0.36667 0.46667,0.73333 0.7,1.1c0.1,0.36667 0.21667,0.71667 0.35,1.05c0,0.36667 0,0.73333 0,1.1c0,0.33333 0,0.68333 0,1.05c0,0.36667 0,0.73333 0,1.1c0,0.33333 0,0.68333 0,1.05c0,0.36667 0,0.71667 0,1.05c0.13333,0.36667 0.25,0.73333 0.35,1.1c0.23333,0.36667 0.46667,0.71667 0.7,1.05c0.13333,0.36667 0.26667,0.73333 0.4,1.1c0,0.33333 0,0.68333 0,1.05c0,0.36667 0,0.73333 0,1.1c0,0.33333 0,0.68333 0,1.05c0,0.36667 0,0.71667 0,1.05c0,0.36667 0,0.73333 0,1.1c0,0.36667 0,0.71667 0,1.05c0,0.36667 0,0.73333 0,1.1c0,1.06667 0,2.13333 0,3.2c0,0.36667 0,0.71667 0,1.05c0,0.73333 0,1.45 0,2.15c-0.26667,0.36667 -0.51667,0.73333 -0.75,1.1c-0.23333,0.33333 -0.46667,0.68333 -0.7,1.05c-0.23333,0.23333 -0.46667,0.46667 -0.7,0.7c-0.6,0.13333 -1.2,0.28333 -1.8,0.45c-0.7,0.2 -1.41667,0.41667 -2.15,0.65c-0.7,0.23333 -1.41667,0.46667 -2.15,0.7c-1.53333,0.23333 -3.08333,0.46667 -4.65,0.7c-0.83333,0.26667 -1.66667,0.51667 -2.5,0.75c-1.53333,0.23333 -3.06667,0.5 -4.6,0.8c-0.83333,0.16667 -1.66667,0.36667 -2.5,0.6c-3.56667,0.23333 -7.15,0.48333 -10.75,0.75c-0.7,0.23333 -1.4,0.46667 -2.1,0.7c-3.93333,0.23333 -7.86667,0.46667 -11.8,0.7c-0.83333,0.23333 -1.66667,0.46667 -2.5,0.7c-6.3,0.26667 -12.61667,0.51667 -18.95,0.75c-0.83333,0.23333 -1.66667,0.46667 -2.5,0.7c-10,0 -20,0 -30,0c-0.83333,-0.23333 -1.66667,-0.46667 -2.5,-0.7c-0.23333,-0.36667 -0.46667,-0.73333 -0.7,-1.1c-0.46667,-0.33333 -0.93333,-0.68333 -1.4,-1.05c-0.36667,-0.36667 -0.73333,-0.73333 -1.1,-1.1c-0.36667,-0.33333 -0.71667,-0.68333 -1.05,-1.05c-0.36667,-0.36667 -0.73333,-0.71667 -1.1,-1.05c-0.33333,-0.36667 -0.68333,-0.73333 -1.05,-1.1c-0.36667,-0.36667 -0.73333,-0.71667 -1.1,-1.05c-0.23333,-0.36667 -0.46667,-0.73333 -0.7,-1.1c-0.1,-0.33333 -0.21667,-0.68333 -0.35,-1.05c-0.23333,-0.36667 -0.46667,-0.73333 -0.7,-1.1c-0.23333,-0.33333 -0.48333,-0.68333 -0.75,-1.05c-0.1,-0.36667 -0.21667,-0.71667 -0.35,-1.05c-0.1,-0.26667 -0.21667,-0.51667 -0.35,-0.75c0,0.36667 0,0.73333 0,1.1c0,0.33333 0,0.68333 0,1.05c0,0.36667 0,0.73333 0,1.1c0,0.33333 0,0.68333 0,1.05c0,0.36667 0,0.71667 0,1.05c0,0.36667 0,0.73333 0,1.1c0,0.36667 0,0.71667 0,1.05c-0.1,0.36667 -0.21667,0.73333 -0.35,1.1c-0.13333,0.33333 -0.25,0.68333 -0.35,1.05c-0.36667,0.36667 -0.73333,0.73333 -1.1,1.1c-0.56667,0.23333 -1.15,0.46667 -1.75,0.7c-0.6,0.1 -1.2,0.21667 -1.8,0.35c-0.96667,0 -1.91667,0 -2.85,0c-0.83333,-0.23333 -1.66667,-0.46667 -2.5,-0.7c-0.23333,-0.23333 -0.46667,-0.48333 -0.7,-0.75c-3.46667,0.13333 -6.93333,0.26667 -10.4,0.4c-0.7,0.23333 -1.4,0.46667 -2.1,0.7c-6.2,0.1 -12.4,0.21667 -18.6,0.35c-0.83333,-0.23333 -1.66667,-0.46667 -2.5,-0.7c-0.33333,-0.36667 -0.68333,-0.73333 -1.05,-1.1c-0.36667,-0.33333 -0.73333,-0.68333 -1.1,-1.05c-0.33333,-0.36667 -0.68333,-0.73333 -1.05,-1.1c-0.36667,-0.33333 -0.71667,-0.68333 -1.05,-1.05c-0.26667,-0.36667 -0.51667,-0.71667 -0.75,-1.05c-0.23333,-0.36667 -0.46667,-0.73333 -0.7,-1.1c-0.13333,-0.36667 -0.25,-0.71667 -0.35,-1.05c-0.23333,-0.36667 -0.46667,-0.73333 -0.7,-1.1c-0.36667,-0.33333 -0.73333,-0.68333 -1.1,-1.05c-0.36667,-0.36667 -0.71667,-0.73333 -1.05,-1.1c-0.23333,-0.33333 -0.48333,-0.68333 -0.75,-1.05c-0.1,-0.36667 -0.21667,-0.71667 -0.35,-1.05c-0.23333,-0.36667 -0.46667,-0.73333 -0.7,-1.1c-0.36667,-0.36667 -0.71667,-0.71667 -1.05,-1.05c-0.13333,0 -0.2,0.01667 -0.2,0.05c-0.13333,0.3 -0.2,0.63333 -0.2,1c0,0.36667 0,0.73333 0,1.1c0,0.33333 0,0.68333 0,1.05c0,0.36667 0,0.71667 0,1.05c0,0.36667 0,0.73333 0,1.1c0,0.36667 0,0.71667 0,1.05c0,0.36667 0,0.73333 0,1.1c0,0.33333 0,0.68333 0,1.05c-0.1,0.36667 -0.21667,0.73333 -0.35,1.1c-0.1,0.33333 -0.21667,0.68333 -0.35,1.05c-0.23333,0.36667 -0.46667,0.71667 -0.7,1.05c-0.46667,0.36667 -0.95,0.73333 -1.45,1.1c-0.23333,0.23333 -0.46667,0.46667 -0.7,0.7c-0.6,0.13333 -1.2,0.25 -1.8,0.35c-3.56667,0.23333 -7.13333,0.48333 -10.7,0.75c-0.7,0.23333 -1.41667,0.46667 -2.15,0.7c-1.66667,0.23333 -3.33333,0.46667 -5,0.7c-0.7,0.23333 -1.41667,0.46667 -2.15,0.7c-8.1,0 -16.18333,0 -24.25,0c-0.6,-0.1 -1.18333,-0.25 -1.75,-0.45c-0.16667,-0.03333 -0.3,-0.11667 -0.4,-0.25c-0.73333,-0.1 -1.45,-0.23333 -2.15,-0.4c-0.83333,-0.2 -1.66667,-0.41667 -2.5,-0.65c-0.36667,-0.36667 -0.71667,-0.73333 -1.05,-1.1c-0.36667,-0.33333 -0.73333,-0.68333 -1.1,-1.05c-0.23333,-0.36667 -0.46667,-0.73333 -0.7,-1.1c-0.13333,-0.33333 -0.25,-0.68333 -0.35,-1.05c-0.13333,-0.36667 -0.25,-0.71667 -0.35,-1.05c-0.36667,-0.36667 -0.73333,-0.73333 -1.1,-1.1c-0.36667,-0.36667 -0.71667,-0.71667 -1.05,-1.05c-0.23333,-0.23333 -0.48333,-0.48333 -0.75,-0.75c0,0.36667 0,0.73333 0,1.1c0,0.36667 0,0.71667 0,1.05c0,0.36667 0,0.73333 0,1.1c-0.1,0.33333 -0.21667,0.68333 -0.35,1.05c-0.1,0.36667 -0.21667,0.73333 -0.35,1.1c-0.36667,0.33333 -0.71667,0.68333 -1.05,1.05c-0.73333,0.23333 -1.45,0.46667 -2.15,0.7c-8.56667,0 -17.13333,0 -25.7,0c-0.83333,-0.23333 -1.66667,-0.48333 -2.5,-0.75c-0.6,-0.2 -1.2,-0.4 -1.8,-0.6c-0.83333,-0.26667 -1.66667,-0.53333 -2.5,-0.8c-0.36667,-0.33333 -0.73333,-0.68333 -1.1,-1.05c-0.33333,0.23333 -0.68333,0.46667 -1.05,0.7c-0.23333,0.23333 -0.46667,0.48333 -0.7,0.75c-0.6,0.1 -1.2,0.21667 -1.8,0.35c-1.9,0 -3.8,0 -5.7,0c-0.83333,-0.23333 -1.66667,-0.48333 -2.5,-0.75c-9.16667,-0.23333 -18.33333,-0.46667 -27.5,-0.7c-0.83333,-0.23333 -1.66667,-0.46667 -2.5,-0.7c-0.23333,-0.23333 -0.46667,-0.46667 -0.7,-0.7c-0.73333,-0.26667 -1.45,-0.51667 -2.15,-0.75c-0.23333,-0.33333 -0.48333,-0.68333 -0.75,-1.05c-0.23333,-0.36667 -0.46667,-0.73333 -0.7,-1.1c-0.1,-0.33333 -0.21667,-0.68333 -0.35,-1.05c-0.23333,-0.36667 -0.46667,-0.71667 -0.7,-1.05c-0.13333,-0.36667 -0.25,-0.73333 -0.35,-1.1c0,-0.36667 0,-0.71667 0,-1.05c-0.13333,-0.36667 -0.26667,-0.73333 -0.4,-1.1c-0.23333,0 -0.46667,0 -0.7,0c-0.23333,0.36667 -0.46667,0.73333 -0.7,1.1c-0.23333,0.23333 -0.46667,0.46667 -0.7,0.7c-0.13333,0.13333 -0.26667,0.21667 -0.4,0.25c-0.56667,0.2 -1.15,0.35 -1.75,0.45c-10.23333,0.23333 -20.48333,0.48333 -30.75,0.75c-0.7,0.23333 -1.4,0.46667 -2.1,0.7c-3.83333,0 -7.65,0 -11.45,0c-0.83333,-0.23333 -1.66667,-0.46667 -2.5,-0.7c-0.23333,-0.36667 -0.46667,-0.73333 -0.7,-1.1c-0.46667,-0.36667 -0.95,-0.71667 -1.45,-1.05c-0.23333,-0.36667 -0.46667,-0.73333 -0.7,-1.1c0,-0.33333 0,-0.68333 0,-1.05c0,-0.36667 0,-0.73333 0,-1.1c0,-0.33333 0,-0.68333 0,-1.05c0,-0.36667 0,-0.71667 0,-1.05c0,-0.36667 0,-0.73333 0,-1.1c0,-0.36667 0,-0.71667 0,-1.05c0,-0.36667 0,-0.73333 0,-1.1c0,-0.7 0,-1.41667 0,-2.15c0,-0.7 0,-1.4 0,-2.1c-0.23333,0.23333 -0.46667,0.46667 -0.7,0.7c-0.36667,0.36667 -0.73333,0.71667 -1.1,1.05c-0.23333,0.36667 -0.46667,0.73333 -0.7,1.1c-0.13333,0.33333 -0.25,0.68333 -0.35,1.05c-0.23333,0.36667 -0.46667,0.73333 -0.7,1.1c-0.36667,0.33333 -0.73333,0.68333 -1.1,1.05c-0.36667,0.36667 -0.71667,0.71667 -1.05,1.05c-0.36667,0.36667 -0.73333,0.73333 -1.1,1.1c-0.33333,0.36667 -0.68333,0.71667 -1.05,1.05c-0.36667,0.36667 -0.73333,0.73333 -1.1,1.1c-0.33333,0.33333 -0.68333,0.68333 -1.05,1.05c-0.36667,0.23333 -0.71667,0.48333 -1.05,0.75c-0.13333,0.1 -0.26667,0.21667 -0.4,0.35c-0.56667,0.23333 -1.15,0.46667 -1.75,0.7c-0.36667,0.36667 -0.73333,0.71667 -1.1,1.05c-0.33333,0.23333 -0.68333,0.48333 -1.05,0.75c-0.13333,0.1 -0.26667,0.18333 -0.4,0.25c-0.7,0.3 -1.4,0.56667 -2.1,0.8c-0.23333,0.23333 -0.46667,0.46667 -0.7,0.7c-0.6,0.23333 -1.2,0.48333 -1.8,0.75c-0.36667,0.33333 -0.73333,0.68333 -1.1,1.05c-0.33333,0.23333 -0.68333,0.46667 -1.05,0.7c-0.13333,0.13333 -0.26667,0.23333 -0.4,0.3c-0.7,0.3 -1.4,0.56667 -2.1,0.8c-0.23333,0.23333 -0.46667,0.46667 -0.7,0.7c-0.6,0.13333 -1.2,0.23333 -1.8,0.3c-1.66667,0.26667 -3.33333,0.51667 -5,0.75c-0.7,0.26667 -1.41667,0.51667 -2.15,0.75c-4.76667,0 -9.53333,0 -14.3,0c-0.83333,-0.23333 -1.66667,-0.48333 -2.5,-0.75c-2,-0.23333 -4.01667,-0.46667 -6.05,-0.7c-0.83333,-0.23333 -1.66667,-0.46667 -2.5,-0.7c-0.36667,-0.36667 -0.71667,-0.73333 -1.05,-1.1c-0.6,-0.33333 -1.2,-0.68333 -1.8,-1.05c-0.83333,-0.36667 -1.66667,-0.71667 -2.5,-1.05c-0.36667,-0.36667 -0.71667,-0.73333 -1.05,-1.1c-0.36667,-0.36667 -0.73333,-0.71667 -1.1,-1.05c-0.36667,-0.36667 -0.71667,-0.73333 -1.05,-1.1c-1.06667,-1.06667 -2.15,-2.13333 -3.25,-3.2c-1.43333,-1.43333 -2.85,-2.86667 -4.25,-4.3c-1.8,-1.76667 -3.58333,-3.55 -5.35,-5.35c-1.8,-1.76667 -3.6,-3.55 -5.4,-5.35c0,-0.36667 0,-0.71667 0,-1.05c-0.23333,-0.36667 -0.46667,-0.73333 -0.7,-1.1c-0.34284,-0.34284 -0.67617,-0.67617 -1,-1c-0.12826,0.21589 -0.26159,0.43255 -0.4,0.65c-0.13333,0.36667 -0.26667,0.71667 -0.4,1.05c-0.23333,0.36667 -0.46667,0.73333 -0.7,1.1c-0.23333,0.36667 -0.46667,0.71667 -0.7,1.05c-0.36667,0.36667 -0.73333,0.73333 -1.1,1.1c-0.33333,0.33333 -0.68333,0.68333 -1.05,1.05c-0.36667,0.36667 -0.71667,0.73333 -1.05,1.1c-0.36667,0.33333 -0.73333,0.68333 -1.1,1.05c-0.36667,0.36667 -0.71667,0.71667 -1.05,1.05c-0.13333,0.36667 -0.25,0.73333 -0.35,1.1c-0.26667,0.36667 -0.51667,0.71667 -0.75,1.05c-0.33333,0.36667 -0.68333,0.73333 -1.05,1.1c-0.73333,0.33333 -1.45,0.68333 -2.15,1.05c-0.13333,0.36667 -0.25,0.73333 -0.35,1.1c-0.23333,0.33333 -0.46667,0.68333 -0.7,1.05c-0.36667,0.36667 -0.73333,0.71667 -1.1,1.05c-0.7,0.36667 -1.41667,0.73333 -2.15,1.1c-0.33333,0.36667 -0.68333,0.71667 -1.05,1.05c-0.23333,0.23333 -0.46667,0.48333 -0.7,0.75c-0.26667,0.1 -0.51667,0.2 -0.75,0.3c-0.6,0.26667 -1.18333,0.51667 -1.75,0.75c-0.36667,0.23333 -0.73333,0.46667 -1.1,0.7c-0.6,0.23333 -1.2,0.48333 -1.8,0.75c-0.33333,0.23333 -0.68333,0.46667 -1.05,0.7c-0.6,0.23333 -1.2,0.46667 -1.8,0.7c-0.33333,0.36667 -0.68333,0.73333 -1.05,1.1c-0.23333,0.23333 -0.46667,0.46667 -0.7,0.7c-0.26667,0.1 -0.51667,0.21667 -0.75,0.35c-0.93333,0.23333 -1.88333,0.46667 -2.85,0.7c-0.46667,0.36667 -0.93333,0.73333 -1.4,1.1c-0.36667,0.33333 -0.73333,0.68333 -1.1,1.05c-0.36667,0.36667 -0.71667,0.73333 -1.05,1.1c-0.36667,0.33333 -0.73333,0.68333 -1.1,1.05c-0.33333,0.23333 -0.68333,0.46667 -1.05,0.7c-0.6,0.23333 -1.2,0.48333 -1.8,0.75c-0.33333,0.23333 -0.68333,0.46667 -1.05,0.7c-0.6,0.23333 -1.2,0.46667 -1.8,0.7c-0.36667,0.23333 -0.71667,0.46667 -1.05,0.7c-2.06667,0.43333 -4.13333,0.91667 -6.2,1.45c-3.76667,1.03333 -7.53333,2.11667 -11.3,3.25c-1.43333,0.46667 -2.86667,0.93333 -4.3,1.4c-1.66667,0.1 -3.33333,0.21667 -5,0.35c-0.13333,0.13333 -0.26667,0.21667 -0.4,0.25c-0.56667,0.2 -1.15,0.35 -1.75,0.45c-3.33333,0.13333 -6.66667,0.26667 -10,0.4c-2.13333,0.1 -4.26667,0.21667 -6.4,0.35c-0.73333,0.23333 -1.45,0.46667 -2.15,0.7c-0.96667,0 -1.91667,0 -2.85,0c-0.83333,-0.23333 -1.66667,-0.46667 -2.5,-0.7c-0.26667,-0.36667 -0.51667,-0.73333 -0.75,-1.1c-0.46667,-0.36667 -0.93333,-0.71667 -1.4,-1.05c-0.23333,-0.36667 -0.48333,-0.73333 -0.75,-1.1c0,-0.33333 0,-0.68333 0,-1.05c0,-0.36667 0,-0.73333 0,-1.1c0,-0.33333 0,-0.68333 0,-1.05c0,-0.36667 0,-0.71667 0,-1.05c0,-0.36667 0,-0.73333 0,-1.1c0,-0.36667 0,-0.71667 0,-1.05c0,-0.36667 0,-0.73333 0,-1.1c-0.1,-0.33333 -0.21667,-0.68333 -0.35,-1.05c-0.23333,-0.36667 -0.46667,-0.73333 -0.7,-1.1c-0.13333,-0.33333 -0.25,-0.68333 -0.35,-1.05c0,-0.36667 0,-0.71667 0,-1.05c-0.13333,-0.36667 -0.25,-0.73333 -0.35,-1.1c-0.23333,-0.36667 -0.48333,-0.71667 -0.75,-1.05c-0.1,-0.36667 -0.21667,-0.73333 -0.35,-1.1c0,-0.33333 0,-0.68333 0,-1.05c0,-0.36667 0,-0.73333 0,-1.1c0,-0.33333 0,-0.68333 0,-1.05c-0.1,-0.36667 -0.21667,-0.71667 -0.35,-1.05c-0.23333,-0.36667 -0.46667,-0.73333 -0.7,-1.1c0,-0.36667 0,-0.71667 0,-1.05c0,-0.36667 0,-0.73333 0,-1.1c0,-0.33333 0,-0.68333 0,-1.05c-0.13333,-0.36667 -0.25,-0.73333 -0.35,-1.1c-0.36667,-0.33333 -0.73333,-0.68333 -1.1,-1.05c0,-0.36667 0,-0.71667 0,-1.05c0,-0.36667 0,-0.73333 0,-1.1c0,-0.36667 0,-0.71667 0,-1.05c0,-0.36667 0,-0.73333 0,-1.1c-0.1,-0.33333 -0.21667,-0.68333 -0.35,-1.05c-0.23333,-0.36667 -0.46667,-0.73333 -0.7,-1.1c-0.13333,-0.33333 -0.25,-0.68333 -0.35,-1.05c0,-0.36667 0,-0.71667 0,-1.05c0,-0.36667 0,-0.73333 0,-1.1c-0.13333,-0.36667 -0.25,-0.71667 -0.35,-1.05c-0.23333,-0.36667 -0.48333,-0.73333 -0.75,-1.1c-0.23333,-0.33333 -0.46667,-0.68333 -0.7,-1.05c-0.1,-0.36667 -0.21667,-0.73333 -0.35,-1.1c-0.13333,-0.33333 -0.25,-0.68333 -0.35,-1.05c-0.23333,-0.36667 -0.46667,-0.71667 -0.7,-1.05c0,-0.36667 0,-0.73333 0,-1.1c-0.13333,-0.36667 -0.26667,-0.71667 -0.4,-1.05c-0.1,-0.36667 -0.21667,-0.73333 -0.35,-1.1c-0.23333,-0.33333 -0.46667,-0.68333 -0.7,-1.05c-0.13333,-0.36667 -0.25,-0.73333 -0.35,-1.1c-0.23333,-0.33333 -0.46667,-0.68333 -0.7,-1.05c-0.13333,-0.36667 -0.26667,-0.71667 -0.4,-1.05c0,-0.36667 0,-0.73333 0,-1.1c-0.23333,-0.36667 -0.46667,-0.71667 -0.7,-1.05c-0.1,-0.36667 -0.21667,-0.73333 -0.35,-1.1c-0.13333,-0.33333 -0.25,-0.68333 -0.35,-1.05c-0.23333,-0.36667 -0.46667,-0.73333 -0.7,-1.1c-0.26667,-0.33333 -0.51667,-0.68333 -0.75,-1.05c-0.1,-0.36667 -0.21667,-0.71667 -0.35,-1.05c-0.1,-0.36667 -0.21667,-0.73333 -0.35,-1.1c-0.23333,-0.36667 -0.46667,-0.71667 -0.7,-1.05c0,-0.36667 0,-0.73333 0,-1.1c0,-0.33333 0,-0.68333 0,-1.05c0,-0.36667 0,-0.73333 0,-1.1c0.1,-0.33333 0.21667,-0.68333 0.35,-1.05c0.23333,-0.36667 0.46667,-0.71667 0.7,-1.05c0.36667,-0.36667 0.73333,-0.73333 1.1,-1.1c0.46667,-0.33333 0.93333,-0.68333 1.4,-1.05c0.23333,-0.36667 0.46667,-0.73333 0.7,-1.1c0.36667,-0.33333 0.73333,-0.68333 1.1,-1.05c0.1,-0.36667 0.21667,-0.71667 0.35,-1.05c-0.36667,-0.36667 -0.71667,-0.73333 -1.05,-1.1c-0.36667,-0.36667 -0.73333,-0.71667 -1.1,-1.05c-0.23333,-0.36667 -0.46667,-0.73333 -0.7,-1.1c0,-0.33333 0,-0.68333 0,-1.05c0,-0.36667 0,-0.73333 0,-1.1c0,-0.33333 0,-0.68333 0,-1.05c-0.13333,-0.36667 -0.25,-0.71667 -0.35,-1.05c-0.23333,-0.36667 -0.48333,-0.73333 -0.75,-1.1c-0.1,-0.36667 -0.21667,-0.71667 -0.35,-1.05c0,-0.36667 0,-0.73333 0,-1.1c0,-0.33333 0,-0.68333 0,-1.05c-0.1,-0.36667 -0.21667,-0.73333 -0.35,-1.1c-0.1,-0.33333 -0.21667,-0.68333 -0.35,-1.05c-0.23333,-0.36667 -0.46667,-0.71667 -0.7,-1.05c0,-0.36667 0,-0.73333 0,-1.1c0,-0.36667 0,-0.71667 0,-1.05c0,-0.36667 0,-0.73333 0,-1.1c-0.23333,-0.33333 -0.48333,-0.68333 -0.75,-1.05c-0.23333,-0.36667 -0.46667,-0.73333 -0.7,-1.1c0,-0.33333 0,-0.68333 0,-1.05c0,-0.36667 0,-0.71667 0,-1.05c0,-0.36667 0,-0.73333 0,-1.1c-0.23333,-0.36667 -0.46667,-0.71667 -0.7,-1.05c-0.13333,-0.36667 -0.25,-0.73333 -0.35,-1.1c-0.13333,-0.33333 -0.25,-0.68333 -0.35,-1.05c0,-0.36667 0,-0.73333 0,-1.1c-0.26667,-0.33333 -0.51667,-0.68333 -0.75,-1.05c-0.1,-0.36667 -0.21667,-0.71667 -0.35,-1.05c-0.1,-0.36667 -0.21667,-0.73333 -0.35,-1.1c0,-0.36667 0,-0.71667 0,-1.05c0,-0.36667 0,-0.73333 0,-1.1c-0.13333,-0.33333 -0.25,-0.68333 -0.35,-1.05c-0.23333,-0.36667 -0.46667,-0.73333 -0.7,-1.1c-0.13333,-0.33333 -0.26667,-0.68333 -0.4,-1.05c0,-0.36667 0,-0.71667 0,-1.05c-0.1,-0.36667 -0.21667,-0.73333 -0.35,-1.1c-0.1,-0.36667 -0.21667,-0.71667 -0.35,-1.05c-0.23333,-0.36667 -0.46667,-0.73333 -0.7,-1.1c0,-0.33333 0,-0.68333 0,-1.05c-0.13333,-0.36667 -0.25,-0.73333 -0.35,-1.1c-0.13333,-0.33333 -0.25,-0.68333 -0.35,-1.05c-0.26667,-0.36667 -0.51667,-0.71667 -0.75,-1.05c0,-0.36667 0,-0.73333 0,-1.1c-0.1,-0.36667 -0.21667,-0.71667 -0.35,-1.05c-0.1,-0.36667 -0.21667,-0.73333 -0.35,-1.1c-0.23333,-0.33333 -0.46667,-0.68333 -0.7,-1.05c0,-0.36667 0,-0.73333 0,-1.1c0,-0.33333 0,-0.68333 0,-1.05c0,-0.36667 0,-0.71667 0,-1.05c0,-0.36667 0,-0.73333 0,-1.1c-0.13333,-0.36667 -0.25,-0.71667 -0.35,-1.05c-0.26667,-0.36667 -0.51667,-0.73333 -0.75,-1.1c-0.1,-0.33333 -0.21667,-0.68333 -0.35,-1.05c0,-0.36667 0,-0.73333 0,-1.1c0,-0.33333 0,-0.68333 0,-1.05c0,-0.36667 0,-0.71667 0,-1.05c0,-0.36667 0,-0.73333 0,-1.1c0,-0.36667 0,-0.71667 0,-1.05c0,-0.36667 0,-0.73333 0,-1.1c0.23333,-0.33333 0.46667,-0.68333 0.7,-1.05c0.5,-0.36667 0.98333,-0.71667 1.45,-1.05c0.23333,-0.36667 0.46667,-0.73333 0.7,-1.1c0.36667,-0.36667 0.73333,-0.71667 1.1,-1.05c0.6,-0.36667 1.18333,-0.75 1.75,-1.15c0.5,-0.3 0.98333,-0.63333 1.45,-1c0.83333,-0.36667 1.66667,-0.73333 2.5,-1.1c0.36667,-0.23333 0.71667,-0.46667 1.05,-0.7c0.6,-0.1 1.2,-0.21667 1.8,-0.35c1.06667,-0.23333 2.13333,-0.48333 3.2,-0.75c0.83333,-0.2 1.66667,-0.43333 2.5,-0.7c1.56667,-0.23333 3.11667,-0.46667 4.65,-0.7c0.83333,-0.1 1.65,-0.26667 2.45,-0.5c0.03333,-0.03333 0.05,-0.1 0.05,-0.2c5.23333,0 10.46667,0.03333 15.7,0.1z"/></g><g fill="#ffffff"><path d="M473.475,341c2.03333,6.66667 3.05,13.43333 3.05,20.3c-0.03333,3.76667 -0.81667,8.13333 -2.35,13.1c-2.03333,6.03333 -4.76667,11.55 -8.2,16.55c-9.6,13.43333 -22.81667,19.76667 -39.65,19c-12.5,0.5 -24.95,0.95 -37.35,1.35c-0.76667,0.23333 -1.51667,0.43333 -2.25,0.6c-1.8,-0.1 -3.4,-0.41667 -4.8,-0.95c-1.06667,-0.46667 -1.78333,-0.95 -2.15,-1.45c0.03333,-0.13333 0.13333,-0.25 0.3,-0.35c-1.03333,-1.3 -2.25,-5.48333 -3.65,-12.55c-1.56667,-7.66667 -2.31667,-12.1 -2.25,-13.3c-0.23333,-0.8 -0.31667,-1.4 -0.25,-1.8c0.03333,-0.8 0.73333,-1.41667 2.1,-1.85c3.73333,-1.16667 13.13333,-1.3 28.2,-0.4c-1.73333,-6.93333 -3,-12.1 -3.8,-15.5c-1.43333,-5.9 -2.46667,-11 -3.1,-15.3c-4.26667,0.16667 -7.68333,0.56667 -10.25,1.2c-3.76667,0.93333 -6.3,1.5 -7.6,1.7c-2.63333,0 -5.25,0 -7.85,0c-1.26667,-1.06667 -2.9,-6.35 -4.9,-15.85c-1.7,-8.3 -2.66667,-14.43333 -2.9,-18.4c0,-0.26667 0,-0.53333 0,-0.8c0,-0.03333 0,-0.06667 0,-0.1c0,-0.16667 0,-0.35 0,-0.55c-0.06667,-1.26667 0.05,-2.11667 0.35,-2.55c0.03333,-0.13333 0.3,-0.4 0.8,-0.8c0.76667,0.26667 1.46667,0.51667 2.1,0.75c1.46667,-0.96667 3.73333,-1.93333 6.8,-2.9c5.6,-1.86667 12.3,-3.28333 20.1,-4.25c8.46667,-1.13333 16.16667,-1.43333 23.1,-0.9c2.6,0.16667 4.96667,0.43333 7.1,0.8c2.66667,0.13333 5.41667,0.28333 8.25,0.45c8.46667,1.83333 15.01667,4.15 19.65,6.95c2.06667,1.3 5.5,4.21667 10.3,8.75c4.76667,4.56667 8.46667,10.91667 11.1,19.05M421.575,343.6c0,2.7 1.03333,6.75 3.1,12.15c2.93333,7.73333 4.5,11.76667 4.7,12.1c1.16667,-0.1 2.38333,-0.21667 3.65,-0.35c2.1,-1.13333 3.98333,-2.98333 5.65,-5.55c1.56667,-2.63333 2.36667,-5.03333 2.4,-7.2c0,-2.73333 -1.18333,-5.25 -3.55,-7.55c-3.56667,-3.53333 -8.88333,-4.73333 -15.95,-3.6M562.775,346.75c1.46667,7.1 2.21667,11.65 2.25,13.65c0,9.76667 -1.78333,17.76667 -5.35,24c-7.06667,12.73333 -20.76667,19.56667 -41.1,20.5c-15.43333,0.66667 -26.15,-4.08333 -32.15,-14.25c-3.96667,-6.73333 -5.91667,-16.08333 -5.85,-28.05c0,-11.43333 0,-17.18333 0,-17.25c0.16667,-6.36667 0.98333,-11.48333 2.45,-15.35c3.73333,-10.1 12.88333,-15.55 27.45,-16.35c28.16667,-1.26667 44.71667,5.86667 49.65,21.4c0.13333,0.66667 1.01667,4.56667 2.65,11.7M528.675,360.6c-0.03333,-1.2 -0.9,-2.78333 -2.6,-4.75c-1.53333,-1.83333 -3.35,-3.41667 -5.45,-4.75c-2.23333,-1.46667 -3.98333,-2.18333 -5.25,-2.15c-1.53333,0.06667 -2.13333,1.13333 -1.8,3.2c0.26667,1.56667 0.25,4.31667 -0.05,8.25c-0.06667,3.53333 0.95,6.36667 3.05,8.5c3.8,0.6 6.95,-0.58333 9.45,-3.55c1.76667,-2.06667 2.65,-3.65 2.65,-4.75M653.125,314.6c0.4,0.2 0.8,0.56667 1.2,1.1c0.16667,0 0.26667,0.03333 0.3,0.1c0.33333,0.23333 0.55,0.81667 0.65,1.75c0.4,1.43333 0.58333,3.3 0.55,5.6c-0.13333,2.46667 -0.43333,6.16667 -0.9,11.1c0,0.2 0.4,4.5 1.2,12.9c0.63333,8.73333 1,15.28333 1.1,19.65c-0.06667,1.56667 0.11667,4.15 0.55,7.75c0.36667,3.56667 0.56667,6.3 0.6,8.2c-0.03333,2.6 0.7,5.51667 2.2,8.75c1.46667,3.2 2.21667,5.6 2.25,7.2c-0.03333,1.23333 -0.56667,2.18333 -1.6,2.85c-1.33333,0.73333 -3.51667,1.1 -6.55,1.1c-2.5,-0.06667 -4.46667,-0.28333 -5.9,-0.65c-1.56667,-0.5 -2.81667,-0.86667 -3.75,-1.1c-3.8,-0.96667 -11.11667,-1.01667 -21.95,-0.15c-6.7,-6.26667 -12.83333,-14.1 -18.4,-23.5c-2,-3.26667 -4.25,-7.41667 -6.75,-12.45c0.33333,3.36667 0.78333,6.76667 1.35,10.2c0.26667,1.5 1.53333,5.13333 3.8,10.9c1.96667,5.16667 2.95,8.65 2.95,10.45c-0.2,0.6 -1.21667,1.55 -3.05,2.85c-4.46667,0.4 -7.55,0.68333 -9.25,0.85c-2.83333,0.2 -4.8,0.36667 -5.9,0.5c-9.06667,0.23333 -14.71667,-1.1 -16.95,-4c-1.06667,-1.36667 -1.71667,-3.25 -1.95,-5.65c-0.16667,-1.36667 -0.23333,-4.11667 -0.2,-8.25c-0.06667,-0.36667 0.11667,-4.71667 0.55,-13.05c0.36667,-8.7 0.6,-15.11667 0.7,-19.25c-0.23333,-7.16667 -0.28333,-12.66667 -0.15,-16.5c0.1,-4.4 0.53333,-8.05 1.3,-10.95c-0.03333,-0.5 -0.03333,-0.83333 0,-1c-0.03333,-0.63333 0.25,-1.1 0.85,-1.4c0.2,-0.7 0.46667,-1.31667 0.8,-1.85c0.33333,0.33333 0.68333,0.75 1.05,1.25c0.93333,-0.2 2.38333,-0.4 4.35,-0.6c8.73333,-0.93333 16.9,-2.3 24.5,-4.1c3.83333,-0.96667 6.06667,-0.45 6.7,1.55c0.26667,1.06667 0.25,2.65 -0.05,4.75c-0.1,2.66667 0.75,6.18333 2.55,10.55c2.56667,6.2 3.96667,9.71667 4.2,10.55c0.06667,0.03333 0.18333,0.08333 0.35,0.15c0.26667,-3.1 0.4,-8.38333 0.4,-15.85c0,-3.26667 0.1,-5.78333 0.3,-7.55c2.2,-1.76667 7.58333,-2.75 16.15,-2.95c2.3,-0.16667 5.81667,-0.25 10.55,-0.25c3.5,-0.13333 6.31667,-0.36667 8.45,-0.7c0.3,-0.4 0.58333,-0.68333 0.85,-0.85M722.825,312.05c0.86667,1.9 6.51667,15.93333 16.95,42.1c10.1,26.4 15.15,42.31667 15.15,47.75c0.03333,0.7 -3.45,1.61667 -10.45,2.75c-8.23333,1.3 -16.71667,1.76667 -25.45,1.4c-3.13333,-0.16667 -6.06667,-4.56667 -8.8,-13.2c-2.5,-7.73333 -3.73333,-14.73333 -3.7,-21c-2.4,0 -4.78333,0.03333 -7.15,0.1c-0.06667,3.03333 0.13333,7.66667 0.6,13.9c0.36667,6.2 0.55,9.48333 0.55,9.85c-0.03333,1.46667 -0.1,2.36667 -0.2,2.7c-0.43333,1.33333 -1.41667,2.06667 -2.95,2.2c-4.8,-0.13333 -9.63333,-0.25 -14.5,-0.35c-7.33333,1.3 -12.03333,-0.56667 -14.1,-5.6c-0.73333,-1.66667 -1.1,-3.51667 -1.1,-5.55c0,-1.9 0.03333,-2.88333 0.1,-2.95c-0.03333,-5.7 0.45,-12.11667 1.45,-19.25c1.16667,-8.73333 1.9,-15.63333 2.2,-20.7c0.43333,-1.43333 1.26667,-4.71667 2.5,-9.85c1,-4.3 1.98333,-7.51667 2.95,-9.65c0.23333,-0.5 0.31667,-1.18333 0.25,-2.05c-0.13333,-1.13333 -0.2,-1.98333 -0.2,-2.55c-0.03333,-2.2 0.81667,-3.86667 2.55,-5c0.63333,-0.53333 7.1,-1.38333 19.4,-2.55c6.43333,-0.7 14.41667,-1.53333 23.95,-2.5M701.475,351.05c2.46667,-0.26667 3.96667,-0.5 4.5,-0.7c-0.3,-1.06667 -1.36667,-2.46667 -3.2,-4.2c-1.9,-1.73333 -2.93333,-2.68333 -3.1,-2.85c0,0.1 0,0.2 0,0.3c-0.06667,0.83333 -0.21667,2 -0.45,3.5c-0.03333,0 -0.35,1.18333 -0.95,3.55c-0.13333,0.2 -0.23333,0.38333 -0.3,0.55c1.13333,-0.06667 2.3,-0.11667 3.5,-0.15M838.725,311.6c0.1,1.2 0.18333,3.11667 0.25,5.75c0,2.66667 0.33333,7.01667 1,13.05c0.7,5.93333 1.06667,9.15 1.1,9.65c-0.03333,0.23333 0.01667,0.8 0.15,1.7c-0.1,0.76667 -0.46667,1.5 -1.1,2.2c-1.93333,1.9 -6.48333,2.96667 -13.65,3.2c-0.7,0 -2.88333,0.35 -6.55,1.05c-4.56667,0.8 -8.2,1.35 -10.9,1.65c-0.96667,0.1 -3.03333,0.5 -6.2,1.2c-0.1,0 -0.16667,0.01667 -0.2,0.05c0.5,1.7 0.95,3.8 1.35,6.3c0.66667,4.13333 1.25,10.21667 1.75,18.25c0.26667,2.3 1.56667,7.85 3.9,16.65c1.23333,4.36667 2.38333,8.6 3.45,12.7c-0.03333,0.63333 -0.98333,1.63333 -2.85,3c-2.63333,-0.13333 -5.45,-0.35 -8.45,-0.65c-3.2,-0.33333 -5.06667,-0.5 -5.6,-0.5c-1,-0.06667 -4.3,0.21667 -9.9,0.85c-5.66667,0.63333 -8.95,0.93333 -9.85,0.9c-2.6,-0.13333 -4.31667,-3.61667 -5.15,-10.45c-0.46667,-6.83333 -0.66667,-10.31667 -0.6,-10.45c-0.03333,-5.26667 0.51667,-12.7 1.65,-22.3c0.73333,-6.96667 1.28333,-12.75 1.65,-17.35c-3.86667,1.13333 -8.75,1.7 -14.65,1.7c-7.8,0 -12.4,-1.03333 -13.8,-3.1c-0.46667,-0.7 -0.6,-1.56667 -0.4,-2.6c0.23333,-0.96667 0.36667,-1.58333 0.4,-1.85c-0.4,-6.13333 -0.5,-10.75 -0.3,-13.85c0.16667,-5.56667 1.53333,-9.38333 4.1,-11.45c0.23333,0.33333 0.45,0.68333 0.65,1.05c1.03333,-1.43333 3.06667,-2.45 6.1,-3.05c14.5,-0.6 28.93333,-1.21667 43.3,-1.85c8.63333,-2.66667 14.83333,-4.33333 18.6,-5c7.66667,-1.76667 14.1,-2.3 19.3,-1.6c0.73333,1.33333 1.21667,3.05 1.45,5.15M916.475,314.85c-0.06667,0.83333 -0.26667,5.71667 -0.6,14.65c-0.4,8.86667 -0.56667,13.78333 -0.5,14.75c-0.03333,1.66667 -0.13333,2.78333 -0.3,3.35c-0.53333,1.36667 -1.7,2.08333 -3.5,2.15c-1.16667,-0.03333 -2.68333,-0.36667 -4.55,-1c-2.03333,-0.8 -3.58333,-1.38333 -4.65,-1.75c-10.13333,-0.03333 -20.21667,0 -30.25,0.1c0,2.06667 0,4.16667 0,6.3c3.23333,-0.03333 7.06667,-0.63333 11.5,-1.8c4.26667,-1.26667 6.73333,-1.88333 7.4,-1.85c2.23333,-0.03333 3.61667,0.53333 4.15,1.7c0.06667,0.1 0.11667,0.75 0.15,1.95c-0.03333,0.8 -0.38333,2.78333 -1.05,5.95c-0.76667,3.13333 -1.11667,5.46667 -1.05,7c-0.1,5.03333 -0.45,8.4 -1.05,10.1c-0.66667,1.8 -1.85,2.78333 -3.55,2.95c-0.8,0.06667 -3.21667,-0.16667 -7.25,-0.7c-4.56667,-0.63333 -8.78333,-0.88333 -12.65,-0.75c-0.03333,2.6 0.35,4.71667 1.15,6.35c7.1,0.13333 14.21667,0.21667 21.35,0.25c1.23333,-0.36667 3.85,-0.88333 7.85,-1.55c4.4,-0.8 7.21667,-1.15 8.45,-1.05c1.63333,-0.03333 2.68333,0.5 3.15,1.6c0.16667,0.4 0.26667,1.06667 0.3,2c-0.03333,7.73333 -0.21667,13.21667 -0.55,16.45c-0.76667,6.76667 -2.46667,10.85 -5.1,12.25c-17.76667,-0.13333 -35.5,-0.51667 -53.2,-1.15c-7.03333,-0.36667 -10.9,-1.71667 -11.6,-4.05c-0.26667,-0.8 -0.23333,-1.86667 0.1,-3.2c0.43333,-1.56667 0.66667,-2.53333 0.7,-2.9c0,-3.53333 0,-7.06667 0,-10.6c0,-10.96667 1.55,-23.75 4.65,-38.35c1.7,-7.63333 2.8,-13.11667 3.3,-16.45c0.96667,-6.26667 1.46667,-12.31667 1.5,-18.15c0,-0.26667 -0.98333,-1.31667 -2.95,-3.15c-0.03333,-1.7 1.46667,-3.06667 4.5,-4.1c2.56667,-0.9 6.91667,-1.75 13.05,-2.55c3.73333,-0.53333 10.46667,-1.35 20.2,-2.45c9.7,-1.16667 18.53333,-2.36667 26.5,-3.6c1.73333,1.13333 3,3.3 3.8,6.5c0.33333,1.66667 0.53333,3.26667 0.6,4.8z"/></g></g></g></g></svg>