<svg version="1.1" xmlns="http://www.w3.org/2000/svg" xmlns:xlink="http://www.w3.org/1999/xlink" width="156.55383" height="153.59774" viewBox="0,0,156.55383,153.59774"><g transform="translate(-561.72309,-283.20113)"><g data-paper-data="{&quot;isPaintingLayer&quot;:true}" fill-rule="nonzero" stroke="none" stroke-width="1" stroke-linecap="butt" stroke-linejoin="miter" stroke-miterlimit="10" stroke-dasharray="" stroke-dashoffset="0" style="mix-blend-mode: normal"><g><path d="M668.97691,380.57603c0.76667,1.36667 1.61667,2.78333 2.55,4.25c0.2,0.3 0.4,0.6 0.6,0.9c-0.6,-0.8 -1.21667,-1.68333 -1.85,-2.65c-0.46667,-0.73333 -0.9,-1.46667 -1.3,-2.2c0,-0.1 0,-0.2 0,-0.3M661.77691,360.72603c0.26667,-0.36667 0.91667,-0.55 1.95,-0.55c0.66667,0 1.43333,0.33333 2.3,1c-0.5,-0.26667 -0.96667,-0.4 -1.4,-0.4c-1.06667,0 -1.75,0.18333 -2.05,0.55h-0.05c-0.13333,0.33333 -0.26667,0.63333 -0.4,0.9c-0.1,0.8 -0.13333,1.38333 -0.1,1.75c-0.16667,19.33333 -0.26667,30.75 -0.3,34.25c-0.06667,3.56667 -0.13333,6.2 -0.2,7.9c-0.03333,1.66667 -0.08333,3.53333 -0.15,5.6c-0.03333,1.03333 -0.08333,2.55 -0.15,4.55c-0.03333,2.43333 -1.11667,4.43333 -3.25,6c-2.03333,1.46667 -5.88333,3 -11.55,4.6c-7.93333,0.46667 -15.86667,0 -23.8,-1.4c-0.4,-4.1 -0.8,-7.15 -1.2,-9.15c0.2,-3.9 0.45,-9.58333 0.75,-17.05c0.73333,-20.26667 1.11667,-30.88333 1.15,-31.85c0.06667,-1.23333 -0.01667,-2.33333 -0.25,-3.3c-0.53333,-2.13333 -1.76667,-3.16667 -3.7,-3.1c-0.36667,0 -0.75,0.06667 -1.15,0.2c0.93333,-0.53333 1.73333,-0.8 2.4,-0.8c1.86667,-0.06667 3.05,0.91667 3.55,2.95c0.23333,0.93333 0.31667,1.98333 0.25,3.15c-0.03333,0.9 -0.4,11 -1.1,30.3c-0.3,7.1 -0.55,12.51667 -0.75,16.25c0.4,1.9 0.78333,4.8 1.15,8.7c7.56667,1.33333 15.11667,1.78333 22.65,1.35c5.4,-1.53333 9.06667,-3 11,-4.4c2.03333,-1.5 3.06667,-3.4 3.1,-5.7c0.06667,-1.9 0.11667,-3.35 0.15,-4.35c0.06667,-1.96667 0.11667,-3.73333 0.15,-5.3c0.06667,-1.63333 0.13333,-4.15 0.2,-7.55c0.03333,-3.33333 0.11667,-14.2 0.25,-32.6c-0.03333,-0.33333 0,-0.88333 0.1,-1.65c0.13333,-0.26667 0.26667,-0.55 0.4,-0.85h0.05M626.87691,299.47603c-3.4,2 -6.73333,4.66667 -10,8c-5.23333,6.46667 -10.4,12.71667 -15.5,18.75c0.7,-1 1.66667,-2.28333 2.9,-3.85c-2.5,2.86667 -4.55,5.31667 -6.15,7.35c-0.93333,0.96667 -1.66667,1.85 -2.2,2.65c-0.96667,0.93333 -1.61667,1.73333 -1.95,2.4c-13.53333,17.4 -20.21667,26.65 -20.05,27.75c0.03333,1.26667 3,5.2 8.9,11.8c5.06667,5.73333 8.86667,9.81667 11.4,12.25c-0.93333,1.06667 -1.65,1.85 -2.15,2.35c-2.66667,-2.46667 -6.81667,-6.9 -12.45,-13.3c-6.2,-6.93333 -9.31667,-11.06667 -9.35,-12.4c-0.16667,-1.16667 6.86667,-10.88333 21.1,-29.15c0.33333,-0.7 1.01667,-1.53333 2.05,-2.5c0.53333,-0.86667 1.3,-1.8 2.3,-2.8c1.66667,-2.13333 3.81667,-4.7 6.45,-7.7c-1.3,1.63333 -2.31667,2.96667 -3.05,4c5.36667,-6.33333 10.8,-12.9 16.3,-19.7c3.43333,-3.5 6.93333,-6.3 10.5,-8.4c4.56667,-3.06667 12,-4.61667 22.3,-4.65c10.06667,0.86667 20.51667,9.43333 31.35,25.7c10.93333,15.2 18.71667,26.58333 23.35,34.15c4.5,7.76667 6.85,12.3 7.05,13.6c0.06667,1.1 -3.78333,4.58333 -11.55,10.45c-7.93333,6.23333 -12.71667,9.91667 -14.35,11.05c-0.4,-0.76667 -0.8,-1.53333 -1.2,-2.3c1.96667,-1.43333 6.3,-4.8 13,-10.1c7.4,-5.56667 11.06667,-8.88333 11,-9.95c-0.16667,-1.23333 -2.4,-5.53333 -6.7,-12.9c-4.4,-7.23333 -11.8,-18.08333 -22.2,-32.55c-10.33333,-15.46667 -20.28333,-23.61667 -29.85,-24.45c-9.8,0.03333 -16.88333,1.51667 -21.25,4.45z" fill="#ffffff"/><path d="M679.82691,305.17603c3.86667,2.06667 11.23333,11.91667 22.1,29.55c10.86667,17.03333 16.31667,27.21667 16.35,30.55c-0.1,3.03333 -1,5.66667 -2.7,7.9c-1.73333,2 -6.3,5.36667 -13.7,10.1c-7.56667,5.03333 -13.16667,8.65 -16.8,10.85c-3.56667,1.9 -7.88333,-0.9 -12.95,-8.4c-0.2,-0.3 -0.4,-0.6 -0.6,-0.9c-0.93333,-1.46667 -1.78333,-2.88333 -2.55,-4.25c0,0.1 0,0.2 0,0.3c-0.23333,2.56667 -0.46667,5.43333 -0.7,8.6c-0.1,3.03333 0.01667,7.8 0.35,14.3c0.26667,6.56667 0.4,10.1 0.4,10.6c-0.06667,0.7 -0.01667,2.31667 0.15,4.85c-0.16667,2.4 -0.68333,4.58333 -1.55,6.55c-2.96667,5.93333 -9.81667,9.53333 -20.55,10.8c-9.1,0.63333 -18.26667,-0.08333 -27.5,-2.15c-3.4,-4.03333 -5.35,-8.85 -5.85,-14.45c0.06667,-6.53333 0.05,-11.31667 -0.05,-14.35c-0.26667,-5.7 -0.4,-10.21667 -0.4,-13.55c-0.06667,-5.26667 0.18333,-9.98333 0.75,-14.15c-0.06667,-0.13333 -0.13333,-0.26667 -0.2,-0.4c-0.03333,-0.16667 -0.06667,-0.33333 -0.1,-0.5c-0.7,0.73333 -1.96667,2.5 -3.8,5.3c-2.26667,3.6 -3.91667,6.06667 -4.95,7.4c-0.53333,0.66667 -1.06667,1.31667 -1.6,1.95c-4.16667,4.66667 -8.13333,6.8 -11.9,6.4c-3.5,-0.6 -9.53333,-6.61667 -18.1,-18.05c-2.76667,-3.63333 -5.53333,-7.43333 -8.3,-11.4c-2.3,-3.43333 -3.41667,-5.18333 -3.35,-5.25c-0.13333,-2.33333 3.21667,-8.03333 10.05,-17.1c3.36667,-4.56667 6.91667,-9.05 10.65,-13.45c2.8,-3.16667 7.06667,-8.51667 12.8,-16.05c2.56667,-3.1 5.18333,-5.8 7.85,-8.1c4.96667,-6.7 10.83333,-12.43333 17.6,-17.2c8.96667,-6.76667 18.05,-9.38333 27.25,-7.85c10.8,2.36667 21.43333,9.55 31.9,21.55M648.22691,292.32603c-10.3,0.03333 -17.73333,1.58333 -22.3,4.65c-3.56667,2.1 -7.06667,4.9 -10.5,8.4c-5.5,6.8 -10.93333,13.36667 -16.3,19.7c0.73333,-1.03333 1.75,-2.36667 3.05,-4c-2.63333,3 -4.78333,5.56667 -6.45,7.7c-1,1 -1.76667,1.93333 -2.3,2.8c-1.03333,0.96667 -1.71667,1.8 -2.05,2.5c-14.23333,18.26667 -21.26667,27.98333 -21.1,29.15c0.03333,1.33333 3.15,5.46667 9.35,12.4c5.63333,6.4 9.78333,10.83333 12.45,13.3c0.5,-0.5 1.21667,-1.28333 2.15,-2.35c2.33333,-2.7 6.05,-7.18333 11.15,-13.45c5.8,-7 10.08333,-10.96667 12.85,-11.9c0.4,-0.13333 0.78333,-0.2 1.15,-0.2c1.93333,-0.06667 3.16667,0.96667 3.7,3.1c0.23333,0.96667 0.31667,2.06667 0.25,3.3c-0.03333,0.96667 -0.41667,11.58333 -1.15,31.85c-0.3,7.46667 -0.55,13.15 -0.75,17.05c0.4,2 0.8,5.05 1.2,9.15c7.93333,1.4 15.86667,1.86667 23.8,1.4c5.66667,-1.6 9.51667,-3.13333 11.55,-4.6c2.13333,-1.56667 3.21667,-3.56667 3.25,-6c0.06667,-2 0.11667,-3.51667 0.15,-4.55c0.06667,-2.06667 0.11667,-3.93333 0.15,-5.6c0.06667,-1.7 0.13333,-4.33333 0.2,-7.9c0.03333,-3.5 0.13333,-14.91667 0.3,-34.25c-0.03333,-0.36667 0,-0.95 0.1,-1.75c0.13333,-0.26667 0.26667,-0.56667 0.4,-0.9h0.05c0.3,-0.36667 0.98333,-0.55 2.05,-0.55c0.43333,0 0.9,0.13333 1.4,0.4c2.13333,1.1 5.05,4.51667 8.75,10.25c2.7,4.1 5.4,8.61667 8.1,13.55c0.4,0.76667 0.8,1.53333 1.2,2.3c1.63333,-1.13333 6.41667,-4.81667 14.35,-11.05c7.76667,-5.86667 11.61667,-9.35 11.55,-10.45c-0.2,-1.3 -2.55,-5.83333 -7.05,-13.6c-4.63333,-7.56667 -12.41667,-18.95 -23.35,-34.15c-10.83333,-16.26667 -21.28333,-24.83333 -31.35,-25.7M659.57691,364.92603l-0.05,-0.05l0.05,-0.35c0,0.13333 0,0.26667 0,0.4z" fill="#000000"/><path d="M677.97691,319.47603c10.4,14.46667 17.8,25.31667 22.2,32.55c4.3,7.36667 6.53333,11.66667 6.7,12.9c0.06667,1.06667 -3.6,4.38333 -11,9.95c-6.7,5.3 -11.03333,8.66667 -13,10.1c-2.7,-4.93333 -5.4,-9.45 -8.1,-13.55c-3.7,-5.73333 -6.61667,-9.15 -8.75,-10.25c-0.86667,-0.66667 -1.63333,-1 -2.3,-1c-1.03333,0 -1.68333,0.18333 -1.95,0.55h-0.05c-0.13333,0.3 -0.26667,0.58333 -0.4,0.85c-0.1,0.76667 -0.13333,1.31667 -0.1,1.65c-0.13333,18.4 -0.21667,29.26667 -0.25,32.6c-0.06667,3.4 -0.13333,5.91667 -0.2,7.55c-0.03333,1.56667 -0.08333,3.33333 -0.15,5.3c-0.03333,1 -0.08333,2.45 -0.15,4.35c-0.03333,2.3 -1.06667,4.2 -3.1,5.7c-1.93333,1.4 -5.6,2.86667 -11,4.4c-7.53333,0.43333 -15.08333,-0.01667 -22.65,-1.35c-0.36667,-3.9 -0.75,-6.8 -1.15,-8.7c0.2,-3.73333 0.45,-9.15 0.75,-16.25c0.7,-19.3 1.06667,-29.4 1.1,-30.3c0.06667,-1.16667 -0.01667,-2.21667 -0.25,-3.15c-0.5,-2.03333 -1.68333,-3.01667 -3.55,-2.95c-0.66667,0 -1.46667,0.26667 -2.4,0.8c-2.76667,0.93333 -7.05,4.9 -12.85,11.9c-5.1,6.26667 -8.81667,10.75 -11.15,13.45c-2.53333,-2.43333 -6.33333,-6.51667 -11.4,-12.25c-5.9,-6.6 -8.86667,-10.53333 -8.9,-11.8c-0.16667,-1.1 6.51667,-10.35 20.05,-27.75c0.33333,-0.66667 0.98333,-1.46667 1.95,-2.4c0.53333,-0.8 1.26667,-1.68333 2.2,-2.65c1.6,-2.03333 3.65,-4.48333 6.15,-7.35c-1.23333,1.56667 -2.2,2.85 -2.9,3.85c5.1,-6.03333 10.26667,-12.28333 15.5,-18.75c3.26667,-3.33333 6.6,-6 10,-8c4.36667,-2.93333 11.45,-4.41667 21.25,-4.45c9.56667,0.83333 19.51667,8.98333 29.85,24.45M659.57691,364.92603c0,-0.13333 0,-0.26667 0,-0.4l-0.05,0.35z" fill="#87a3ad"/></g></g></g></svg>