<svg version="1.1" xmlns="http://www.w3.org/2000/svg" xmlns:xlink="http://www.w3.org/1999/xlink" width="43.85" height="63.85208" viewBox="0,0,43.85,63.85208"><g transform="translate(-608.15811,-337.83784)"><g data-paper-data="{&quot;isPaintingLayer&quot;:true}" fill-rule="nonzero" stroke="none" stroke-width="1" stroke-linecap="butt" stroke-linejoin="miter" stroke-miterlimit="10" stroke-dasharray="" stroke-dashoffset="0" style="mix-blend-mode: normal"><path d="M651.95811,343.38784c0,0.06667 0,0.15 0,0.25c0.03333,1.43333 0.05,2.86667 0.05,4.3c0,1.33333 -0.1,2.66667 -0.3,4c-0.06667,0.43333 -0.08333,0.88333 -0.05,1.35c0.03333,0.83333 0,1.63333 -0.1,2.4c-0.06667,0.36667 -0.13333,0.73333 -0.2,1.1c-0.06667,0.26667 -0.15,0.51667 -0.25,0.75c-0.46667,1.43333 -1.51667,2.13333 -3.15,2.1c-3.26667,-0.03333 -6.56667,-0.25 -9.9,-0.65c-0.03333,8.4 -0.01667,16.8 0.05,25.2c0,0.16667 0.03333,0.35 0.1,0.55c0.06667,0.16667 0.1,0.35 0.1,0.55c0.06667,0.66667 0.1,1.36667 0.1,2.1c0,2.76667 0.08333,5.53333 0.25,8.3c0.06667,1.43333 -0.31667,2.68333 -1.15,3.75c-2.73333,1.13333 -5.55,1.86667 -8.45,2.2c-2,0.16667 -3.93333,-0.06667 -5.8,-0.7c-0.96667,-0.26667 -1.68333,-0.8 -2.15,-1.6c-0.3,-0.56667 -0.45,-1.13333 -0.45,-1.7c0,-4.73333 0.06667,-9.48333 0.2,-14.25c0.03333,-1.3 0.13333,-2.58333 0.3,-3.85c0.16667,-1.4 0.23333,-2.7 0.2,-3.9c-0.06667,-2.5 -0.08333,-5 -0.05,-7.5c0,-0.9 0.05,-1.8 0.15,-2.7c0.26667,-2.6 0.31667,-5.18333 0.15,-7.75c-0.86667,-0.06667 -1.73333,-0.11667 -2.6,-0.15c-1.13333,0.23333 -2.25,0.46667 -3.35,0.7c-1.43333,0.3 -2.81667,0.23333 -4.15,-0.2c-0.63333,-0.26667 -1.25,-0.53333 -1.85,-0.8c-0.8,-0.26667 -1.26667,-0.78333 -1.4,-1.55c-0.06667,-0.46667 -0.1,-0.91667 -0.1,-1.35c0.03333,-0.8 0.08333,-1.6 0.15,-2.4c0.23333,-3.36667 0.35,-6.75 0.35,-10.15c0.16667,-0.23333 0.36667,-0.45 0.6,-0.65c0.4,-0.36667 0.85,-0.63333 1.35,-0.8c3.76667,-0.8 7.46667,-1.31667 11.1,-1.55c3.4,-0.33333 6.8,-0.65 10.2,-0.95c3.6,0.1 7.2,0.21667 10.8,0.35c1.4,0.2 2.8,0.46667 4.2,0.8c1.3,0.4 2.55,0.93333 3.75,1.6c1.03333,0.6 1.46667,1.53333 1.3,2.8M636.65811,352.18784c2.9,1.03333 5.9,1.31667 9,0.85l0.4,-8.05c-6.03333,-1.03333 -12.11667,-1.2 -18.25,-0.5c-4.9,0.56667 -9.85,1 -14.85,1.3l0.35,6.35c3.2,-0.5 6.4,-0.63333 9.6,-0.4c1.16667,0.13333 2.33333,0.35 3.5,0.65c0.2,0 0.4,0.08333 0.6,0.25c1.2,3.7 1.55,7.43333 1.05,11.2c-0.2,1.7 -0.31667,3.41667 -0.35,5.15c-0.03333,3.5 -0.15,6.98333 -0.35,10.45c-0.33333,5.3 -0.55,10.63333 -0.65,16l5.8,-0.9c0,-0.36667 0,-0.71667 0,-1.05c0.03333,-2.1 -0.01667,-4.15 -0.15,-6.15c-0.16667,-2.1 -0.25,-4.16667 -0.25,-6.2c0.06667,-8.63333 0.06667,-17.28333 0,-25.95c0,-0.6 0.13333,-1.13333 0.4,-1.6c0.96667,-1.6 2.35,-2.06667 4.15,-1.4z" fill="#000000"/><path d="M632.10811,381.13784c0,2.03333 0.08333,4.1 0.25,6.2c0.13333,2 0.18333,4.05 0.15,6.15c0,0.33333 0,0.68333 0,1.05l-5.8,0.9c0.1,-5.36667 0.31667,-10.7 0.65,-16c0.2,-3.46667 0.31667,-6.95 0.35,-10.45c0.03333,-1.73333 0.15,-3.45 0.35,-5.15c0.5,-3.76667 0.15,-7.5 -1.05,-11.2c-0.2,-0.16667 -0.4,-0.25 -0.6,-0.25c-1.16667,-0.3 -2.33333,-0.51667 -3.5,-0.65c-3.2,-0.23333 -6.4,-0.1 -9.6,0.4l-0.35,-6.35c5,-0.3 9.95,-0.73333 14.85,-1.3c6.13333,-0.7 12.21667,-0.53333 18.25,0.5l-0.4,8.05c-3.1,0.46667 -6.1,0.18333 -9,-0.85c-1.8,-0.66667 -3.18333,-0.2 -4.15,1.4c-0.26667,0.46667 -0.4,1 -0.4,1.6c0.06667,8.66667 0.06667,17.31667 0,25.95z" fill="#ffffff"/></g></g></svg>