<svg version="1.1" xmlns="http://www.w3.org/2000/svg" xmlns:xlink="http://www.w3.org/1999/xlink" width="481.5" height="524.29138" viewBox="0,0,481.5,524.29138"><g transform="translate(-460.5,-98.55862)"><g data-paper-data="{&quot;isPaintingLayer&quot;:true}" fill-rule="nonzero" stroke="none" stroke-width="1" stroke-linecap="butt" stroke-linejoin="miter" stroke-miterlimit="10" stroke-dasharray="" stroke-dashoffset="0" style="mix-blend-mode: normal"><path d="M636.25,288.05c0.33333,0.91302 0.5,1.92969 0.5,3.05c0,2.5 -0.83333,5.33333 -2.5,8.5c-2.26667,4.33333 -5.26667,6.5 -9,6.5c-1.33333,0 -2.33333,-0.33333 -3,-1c0.36667,-2.3 2.58333,-5.13333 6.65,-8.5c3.39453,-2.81432 5.3112,-5.26432 5.75,-7.35c0.53763,-0.38164 1.07096,-0.78164 1.6,-1.2M777.5,515.6c-0.04492,1.67474 -0.24492,3.45807 -0.6,5.35c0.00833,0.05365 0.00833,0.10365 0,0.15c-1.06667,6 -1.61667,9.75 -1.65,11.25c-1.9,-0.46667 -3.7,-1.16667 -5.4,-2.1c-2.4,-1.33333 -3.83333,-2.1 -4.3,-2.3c-0.12292,-0.05195 -0.25625,-0.10195 -0.4,-0.15c-1.27318,-0.50677 -2.83984,-0.9401 -4.7,-1.3c0.71406,-0.26576 1.41406,-0.56576 2.1,-0.9c1.81602,-0.79453 3.58268,-1.7112 5.3,-2.75c2.86419,-1.70299 5.63086,-3.71966 8.3,-6.05c0.47109,-0.37826 0.92109,-0.77826 1.35,-1.2M642.9,310.35c-2.21133,-0.22721 -4.49466,-0.31055 -6.85,-0.25c0.88034,-1.04232 1.76367,-2.40898 2.65,-4.1c2.1,-3.93333 2.95,-6.9 2.55,-8.9c0.23333,0.5 0.7,2.1 1.4,4.8c0.73333,2.9 1.1,4.8 1.1,5.7c0,0.73841 -0.28333,1.65508 -0.85,2.75M606.2,205.8c-0.83099,1.53333 -2.14766,2.3 -3.95,2.3c-0.51185,0 -1.02852,-0.2 -1.55,-0.6c-1.75768,-1.28841 -3.57435,-4.77174 -5.45,-10.45c-1.23333,-3.66667 -2.23333,-7.4 -3,-11.2c0,-3.6 0.78333,-5.56667 2.35,-5.9c1.4,-0.3 3.11667,0.68333 5.15,2.95c2.03333,2.23333 3.75,5.03333 5.15,8.4c1.56667,3.66667 2.35,7.1 2.35,10.3c0,1.36667 -0.25,2.6 -0.75,3.7c-0.08242,0.18451 -0.18242,0.35117 -0.3,0.5M645.95,196.9c0.86667,2.3444 1.3,3.87773 1.3,4.6c0,1.73333 -0.51667,3.1 -1.55,4.1c-1,1 -2.31667,1.5 -3.95,1.5c-2.30547,0 -4.50547,-2.76667 -6.6,-8.3c-0.12292,-0.38594 -0.25625,-0.78594 -0.4,-1.2c-1.06667,-3.13333 -1.9,-6 -2.5,-8.6c0,-1.36667 0.45,-2.51667 1.35,-3.45c0.83333,-0.86667 1.86667,-1.35 3.1,-1.45c3.06667,-0.16667 5.25,1.75 6.55,5.75c0.06667,0.26667 0.83333,2.25 2.3,5.95c0.15104,0.39544 0.28438,0.76211 0.4,1.1M587.5,332.45c-1.83333,4.13333 -3.08333,7.85 -3.75,11.15c-3.23333,-0.86667 -7.08333,-3.96667 -11.55,-9.3c-0.30273,-0.36133 -0.60273,-0.72799 -0.9,-1.1c-3.41276,-4.21745 -6.49609,-8.88411 -9.25,-14c4.7556,2.125 7.62227,3.325 8.6,3.6c0.66667,0.2 3.11667,0.3 7.35,0.3c2.06667,0 3.85,0.16667 5.35,0.5c0.7,0.16667 2.33333,0.66667 4.9,1.5h2.75c-1.19987,2.47773 -2.09987,4.32773 -2.7,5.55c-0.43646,0.96471 -0.70312,1.56471 -0.8,1.8M901.3,570c2.8,4.03333 4.2,7.98333 4.2,11.85c0,2.03333 -0.33333,3.8 -1,5.3c-1.4,3.13333 -4.03333,4.7 -7.9,4.7c-5.96667,0 -12.53333,-4.33333 -19.7,-13c-1.37096,-1.92669 -2.62096,-3.64336 -3.75,-5.15c-1.57383,-2.13542 -2.89049,-3.83542 -3.95,-5.1c0.94154,-0.75638 1.84154,-1.55638 2.7,-2.4c1.53555,0.26667 3.15221,0.4 4.85,0.4c2.52865,0 4.84531,-0.36667 6.95,-1.1c3.79544,-1.27878 6.91211,-3.72878 9.35,-7.35c0.17539,0.27435 0.34206,0.54102 0.5,0.8c0.31979,0.5043 0.65313,1.0043 1,1.5c0.76094,1.18164 1.5776,2.38164 2.45,3.6c1.06667,1.46667 2.5,3.45 4.3,5.95M675.1,523.45c3.98216,0.27773 7.99883,1.0944 12.05,2.45c2.66562,0.88281 5.34896,1.99948 8.05,3.35c1.02461,0.50482 2.12461,1.07148 3.3,1.7c5.95339,3.31029 13.85339,8.46029 23.7,15.45c-0.3,0.54427 -0.45,1.0276 -0.45,1.45c0,1.03333 0.06667,1.63333 0.2,1.8c0.13333,0.1 0.4,0.25 0.8,0.45l0.05,0.25c0.26667,0.16667 0.91667,0.25 1.95,0.25c0.93333,0 2.03333,-0.53333 3.3,-1.6c1.6,-1.5 2.95,-2.66667 4.05,-3.5c4.4,-3.43333 9.9,-5.15 16.5,-5.15c3.86667,0 7.16667,0.66667 9.9,2c2.5,1.16667 3.75,2.41667 3.75,3.75c0,4.76667 -6.85,11.21667 -20.55,19.35c-9.5,5.63333 -17.4,9.68333 -23.7,12.15c-6.4,2.36667 -11.8,4.8 -16.2,7.3c-4.7,2.63333 -8.63333,5.53333 -11.8,8.7c-0.53333,0.53333 -3.23333,3.78333 -8.1,9.75c-5.43333,5.66667 -10.2,8.5 -14.3,8.5c-3.73333,0 -6.53333,-0.58333 -8.4,-1.75c-1.46667,-0.93333 -2.2,-2.1 -2.2,-3.5c0,-4.16667 3.33333,-9.25 10,-15.25c3.33333,-2.86667 5.63333,-4.88333 6.9,-6.05c2.06667,-2 3.1,-3.48333 3.1,-4.45c0,-0.43333 -0.26667,-0.96667 -0.8,-1.6c-0.36667,-0.43333 -1.01667,-1.06667 -1.95,-1.9c-0.7,0.13333 -1.61667,0.53333 -2.75,1.2c-1.56667,0.86667 -2.76667,1.48333 -3.6,1.85c-3.9,1.63333 -9.33333,2.45 -16.3,2.45c-3.43789,0 -6.52122,-0.33333 -9.25,-1c-3.42956,-0.80885 -6.29622,-2.14219 -8.6,-4c-3.16667,-2.56667 -4.75,-5.45 -4.75,-8.65c0,-3.66667 6.36667,-6.33333 19.1,-8c2.46667,-0.31393 6,-0.7306 10.6,-1.25c2.22865,-0.21641 4.71198,-0.46641 7.45,-0.75c5.2582,-0.59701 9.82487,-1.23034 13.7,-1.9c2.19622,0.63984 4.49622,1.23984 6.9,1.8c-0.84635,-0.79076 -1.86302,-1.64076 -3.05,-2.55c0.35951,-0.05951 0.70951,-0.12617 1.05,-0.2l-0.25,-0.75c-1.23333,-0.23333 -2.38333,-0.8 -3.45,-1.7c-0.51497,-0.45052 -1.36497,-0.76719 -2.55,-0.95c-0.24232,-0.13763 -0.49232,-0.28763 -0.75,-0.45c-4.6,-2.76667 -7.96667,-4.85 -10.1,-6.25c-0.95781,-0.62487 -1.85781,-1.2582 -2.7,-1.9c-5.96667,-4.37135 -8.95,-8.58802 -8.95,-12.65c-0.23333,-1.5 0.26667,-2.93333 1.5,-4.3c2.43333,-2.7 7.3,-4.05 14.6,-4.05c1.00898,0 2.00898,0.03333 3,0.1M657.25,422.95c8.06667,4.86667 12.1,10.7 12.1,17.5c0,2.76667 -0.28333,5.46667 -0.85,8.1c-0.73333,3.3 -1.81667,5.81667 -3.25,7.55c-0.86667,1.03333 -1.93333,2.38333 -3.2,4.05c-1.13333,1.36667 -2.4,2.63333 -3.8,3.8c-1.96667,1.63333 -6.13333,2.93333 -12.5,3.9c-5.53333,0.83333 -11.21667,1.25 -17.05,1.25c-15.53333,0 -27.23333,-3.95 -35.1,-11.85c-2.8,-2.86667 -4.93333,-6.05 -6.4,-9.55c-1.13333,-2.73333 -1.7,-5.15 -1.7,-7.25c0,-2.53333 0.73333,-5.35 2.2,-8.45c1.7,-3.5 3.88333,-6.21667 6.55,-8.15c2.53333,-1.86667 4.51667,-3.15 5.95,-3.85c2.03333,-1 4.71667,-1.88333 8.05,-2.65c5.8,-1.2 12.9,-1.6 21.3,-1.2c4.23333,0.2 7.98333,0.51667 11.25,0.95c1.63333,0 3.93333,0.48333 6.9,1.45c3.4,1.13333 6.58333,2.6 9.55,4.4M733.15,429.65c0,0.06667 -0.1,3.1 -0.3,9.1c-0.73333,6.03333 -2.41667,9.15 -5.05,9.35c-1.8,0.13333 -3.68333,-3.15 -5.65,-9.85c-1.66667,-5.53333 -2.58333,-9.85 -2.75,-12.95c-0.06667,-1.33333 0.08333,-2.98333 0.45,-4.95c0.36667,-2.06667 0.86667,-3.85 1.5,-5.35c2.23333,0.13333 4.81667,2.28333 7.75,6.45c2.6,3.8 3.95,6.53333 4.05,8.2M774.55,393.35c2.2,0.8 4.13333,2.83333 5.8,6.1c1.83333,3.56667 2.88333,7.78333 3.15,12.65c0.2,3.9 0.25,6.11667 0.15,6.65c-0.16667,0.96667 -1.11667,3.81667 -2.85,8.55l-4.7,0.6c-4.43333,-6.33333 -6.91667,-10.06667 -7.45,-11.2c-0.7,-1.5 -1.16667,-4.66667 -1.4,-9.5c-0.3,-5.4 0.31667,-9.35 1.85,-11.85c1.4,-2.16667 3.21667,-2.83333 5.45,-2M930.3,530.85c4.3,3.23333 6.45,7.1 6.45,11.6c0,0.76667 -0.13333,2.05 -0.4,3.85c-0.43333,2.86667 -1.06667,5.48333 -1.9,7.85c-2.6,7.46667 -6.66667,11.2 -12.2,11.2c-5.35794,0 -9.69128,-0.66667 -13,-2c4.96354,-1.82435 9.54688,-6.15768 13.75,-13c2.06667,-3.36667 3.8,-6.95 5.2,-10.75c1.2,-3.3 1.8,-5.71667 1.8,-7.25c0,-0.59258 -0.05,-1.17591 -0.15,-1.75c0.14753,0.08008 0.29753,0.16341 0.45,0.25M907.65,521.35c0.83151,-0.15404 1.63151,-0.35404 2.4,-0.6c1.39271,1.16263 3.37604,2.44596 5.95,3.85c5.5,3 8.25,5.5 8.25,7.5c0,1.9 -0.81667,4.56667 -2.45,8c-1.7,3.5 -3.78333,6.83333 -6.25,10c-5.5306,7.07344 -10.51393,10.4401 -14.95,10.1c-0.38971,-0.32773 -0.80638,-0.66107 -1.25,-1c-0.92435,-0.69805 -1.79102,-1.28138 -2.6,-1.75c-0.42982,-0.23906 -0.84648,-0.45573 -1.25,-0.65c-0.45964,-0.1931 -0.89297,-0.3431 -1.3,-0.45c0.58047,-1.00482 1.1138,-2.08815 1.6,-3.25c2.13333,-5.13333 3.2,-10.63333 3.2,-16.5c0,-4.43333 -0.06667,-7.05 -0.2,-7.85c-0.38125,-2.55156 -1.41458,-5.10156 -3.1,-7.65c0.13815,0.04479 0.27148,0.07813 0.4,0.1c2.6,0.43333 4.65,0.65 6.15,0.65c1.0362,0 2.05286,-0.05 3.05,-0.15c0.80391,-0.08385 1.58724,-0.20052 2.35,-0.35M879.25,509.85c-0.8651,-1.10521 -1.8151,-2.15521 -2.85,-3.15c5.19766,-1.39661 12.38099,-5.12995 21.55,-11.2c0.75365,-0.49974 1.58698,-1.04974 2.5,-1.65c0.29258,-0.19687 0.59258,-0.39688 0.9,-0.6c2.65729,-1.77513 5.92396,-3.95846 9.8,-6.55c4.56667,-2.9 8.01667,-4.68333 10.35,-5.35c2.56667,1.76667 4.13333,3.45 4.7,5.05c0.2,0.6 0.3,2.08333 0.3,4.45c0,2.16667 -0.76667,4.88333 -2.3,8.15c-1.43333,3.06667 -3.16667,5.85 -5.2,8.35c-2.23151,2.7207 -6.18151,4.83737 -11.85,6.35c-0.4944,0.13958 -1.01107,0.27292 -1.55,0.4c-0.31289,0.07187 -0.62956,0.13854 -0.95,0.2c-4.69701,1.13112 -8.39701,2.31445 -11.1,3.55c-0.58867,-0.9457 -1.08867,-1.71237 -1.5,-2.3c-1.23333,-1.8 -2.33333,-3.03333 -3.3,-3.7c-2.76667,-1.8 -5.73333,-2.5 -8.9,-2.1c-0.20742,0.0293 -0.40742,0.06263 -0.6,0.1M795,302.75c-0.85729,2.65378 -2.17396,5.28711 -3.95,7.9c-5.23333,7.63333 -13.11667,11.45 -23.65,11.45c-9.83333,0 -17.91667,-2.58333 -24.25,-7.75c-2.79453,-2.25651 -4.9612,-4.77318 -6.5,-7.55c-1.9,-3.39232 -2.85,-7.17565 -2.85,-11.35c0,-5.36667 2.16667,-10.51667 6.5,-15.45c5.96667,-6.73333 14.51667,-9.98333 25.65,-9.75c10.33333,0.23333 18.31667,3.55 23.95,9.95c4.23333,4.83333 6.35,9.85 6.35,15.05c0,2.51966 -0.41667,5.01966 -1.25,7.5M659.35,330.65c1.7,1.6 3.01667,2.91667 3.95,3.95c1.07422,1.27135 1.99089,2.63802 2.75,4.1c1.8,3.54753 2.7,7.68086 2.7,12.4c0,11.93333 -4.56667,21.95 -13.7,30.05c-8.06667,7.16667 -16.66667,10.75 -25.8,10.75c-5.14909,0 -9.69909,-0.76667 -13.65,-2.3c-5.66589,-2.1582 -10.06589,-5.9082 -13.2,-11.25c-3,-5.1 -4.5,-10.55 -4.5,-16.35c0,-2.83333 0.5,-6.2 1.5,-10.1c1.26667,-5.03333 3.1,-9.58333 5.5,-13.65c6.35794,-10.90391 15.47461,-16.62057 27.35,-17.15v0c0,-0.7 1.31667,-0.93333 3.95,-0.7c3.23333,0.3 7.1,1.36667 11.6,3.2c3.86667,1.56667 6.26667,2.65 7.2,3.25c1.06667,0.76667 2.51667,2.03333 4.35,3.8M682.55,294.1c-4.12357,-1.87539 -7.39023,-3.35872 -9.8,-4.45c-1.80742,-0.81628 -3.52409,-1.56628 -5.15,-2.25c6.73255,0.99089 13.84922,1.87422 21.35,2.65c0.85013,0.11302 1.70013,0.21302 2.55,0.3c2.16849,0.20651 9.93516,1.37318 23.3,3.5c0.01354,0.1138 0.03021,0.23047 0.05,0.35c0.76667,4.86667 1.4,8.5 1.9,10.9c-5.46667,0.53333 -14.75,-2.15 -27.85,-8.05c-2.30013,-1.06003 -4.4168,-2.04336 -6.35,-2.95M666.95,169.6c2.11901,5.87188 3.71901,11.10521 4.8,15.7c0.74961,3.10286 1.24961,5.90286 1.5,8.4c0.16667,1.45547 0.25,2.80547 0.25,4.05c0,0.76862 -0.01667,1.53529 -0.05,2.3c-0.79076,2.76328 -2.84076,7.51328 -6.15,14.25c-3.30365,6.76706 -6.57031,12.20039 -9.8,16.3c-3.19974,4.13372 -9.01641,8.85039 -17.45,14.15c-11.53607,7.2319 -23.75273,10.84857 -36.65,10.85c-6.43177,0.02708 -13.09844,-0.92292 -20,-2.85c-5.50156,-1.51706 -11.15156,-3.65039 -16.95,-6.4c-1.66445,-3.3332 -2.89779,-5.91654 -3.7,-7.75c-0.01693,-0.05117 -0.03359,-0.10117 -0.05,-0.15c5.86771,4.50716 12.08437,8.20716 18.65,11.1c6.2,2.7 11.16667,4.05 14.9,4.05c8.76667,0 15.15,-2.61667 19.15,-7.85c3.23542,-4.25039 5.60208,-11.45039 7.1,-21.6c3.78372,3.42552 6.25039,5.55885 7.4,6.4c4.53333,3.36667 8.48333,5.05 11.85,5.05c6.03333,0 10.86667,-3.66667 14.5,-11c3,-6.03333 4.5,-12.53333 4.5,-19.5c0,-8.86667 -1.58333,-16.36667 -4.75,-22.5c-0.50612,-0.98451 -1.05612,-1.91784 -1.65,-2.8c-0.31589,-1.56445 -0.66589,-3.18112 -1.05,-4.85c-2.96667,-13 -5.81667,-21.2 -8.55,-24.6c-4.73333,-7.53333 -9.7,-12.73333 -14.9,-15.6c-4.76667,-2.63333 -9.26667,-3.06667 -13.5,-1.3c-4.1,1.73333 -7.36667,5.25 -9.8,10.55c-2.08724,4.50404 -3.32057,9.75404 -3.7,15.75c-2.71081,-4.47344 -6.39414,-8.65677 -11.05,-12.55c-7.53333,-6.3 -15.51667,-10.15 -23.95,-11.55c-9.09896,-1.50052 -17.56563,1.01615 -25.4,7.55c-7.83672,6.56823 -10.98672,14.71823 -9.45,24.45c1.53659,9.73177 3.20326,17.2151 5,22.45c0.38255,1.11315 0.81589,2.29648 1.3,3.55c-0.36667,1.78424 -0.55,3.18424 -0.55,4.2c0,11.42773 4.75,22.0944 14.25,32c1.37943,3.98542 2.84609,7.93542 4.4,11.85c-2.90716,-1.57826 -5.65716,-3.12826 -8.25,-4.65c-0.57852,-1.43164 -1.17852,-2.84831 -1.8,-4.25c-1.01706,-2.44323 -2.05039,-4.84323 -3.1,-7.2c-1.63333,-4.9 -3.85,-9.51667 -6.65,-13.85c-3.4,-5.2 -5.1,-4.91667 -5.1,0.85c2.36016,6.0599 4.82682,12.2599 7.4,18.6c-4.14336,-2.82708 -7.61003,-5.52708 -10.4,-8.1c-8.22643,-6.71094 -15.87643,-11.04427 -22.95,-13c-7.04427,-1.95885 -11.3776,-0.35885 -13,4.8c-1.20039,3.81589 -1.65039,6.51589 -1.35,8.1c-0.03333,0.35677 -0.05,0.75677 -0.05,1.2c0.5,3.23333 1.16667,6.45 2,9.65c1.4625,5.67109 2.9125,8.80443 4.35,9.4c0.83464,1.57878 1.8013,3.21211 2.9,4.9c1.74401,2.67253 3.69401,5.28919 5.85,7.85c-6.47292,-1.5832 -13.18958,-4.79987 -20.15,-9.65c-5.7,-3.96667 -10.55,-8.45 -14.55,-13.45c-2.93763,-3.64753 -5.03763,-7.09753 -6.3,-10.35c-0.16667,-2.60221 -0.25,-5.25221 -0.25,-7.95c0,-14.95 2.08333,-28.41667 6.25,-40.4c2.77943,-8.01328 6.49609,-15.36328 11.15,-22.05c18.02956,-25.98385 49.54622,-41.63385 94.55,-46.95c-0.07083,0.0444 -0.15417,0.0944 -0.25,0.15c1.11432,0.01211 2.58099,0.02878 4.4,0.05c1.5638,0.04857 3.1138,0.16523 4.65,0.35c4.41706,0.56784 8.83372,1.78451 13.25,3.65c5.30378,2.28125 9.98711,4.46458 14.05,6.55c0.51081,0.27357 1.01081,0.54023 1.5,0.8c5.2,2.76667 8.35,4.46667 9.45,5.1c6.16667,3.63333 11.35,7.11667 15.55,10.45c3.86667,3.03333 8.18333,6.96667 12.95,11.8c4.46667,4.46667 8.95,12.96667 13.45,25.5z" fill="#ffffff"/><path d="M613.75,306.6c-3.16667,4.8 -6.25,7.98333 -9.25,9.55c-2.03164,1.07044 -4.74831,1.78711 -8.15,2.15c-3.18997,-1.33255 -6.83997,-2.86589 -10.95,-4.6c-1.57044,-0.62422 -3.00378,-1.17422 -4.3,-1.65c-0.35208,-0.12695 -0.70208,-0.26029 -1.05,-0.4c0.83945,-0.13294 1.67279,-0.28294 2.5,-0.45c0.35469,0.3819 0.97135,0.74857 1.85,1.1c1.26667,0.53333 2.38333,0.8 3.35,0.8c4.9,0 10.01667,-1.16667 15.35,-3.5c5.33333,-2.33333 8.38333,-3.5 9.15,-3.5c0.46667,0 0.81667,0.08333 1.05,0.25c0.2,0.16667 0.35,0.25 0.45,0.25M646.75,270.85c-3.28893,3.7793 -6.78893,7.26263 -10.5,10.45c-1.19049,1.06068 -2.40716,2.07734 -3.65,3.05c-19.94479,15.66667 -45.42813,23.5 -76.45,23.5c-10.03333,0 -20.2,-1.96667 -30.5,-5.9c-0.13125,-0.05 -0.26458,-0.1 -0.4,-0.15c-0.61719,-0.24206 -1.23385,-0.49206 -1.85,-0.75c-2.53776,-1.03242 -5.02109,-2.16576 -7.45,-3.4c-5.24857,-2.7 -10.21523,-5.86667 -14.9,-9.5c-1.53945,-1.21315 -3.05612,-2.47982 -4.55,-3.8c-18.41315,-16.23971 -28.49648,-36.83971 -30.25,-61.8c1.26237,3.25247 3.36237,6.70247 6.3,10.35c4,5 8.85,9.48333 14.55,13.45c6.96042,4.85013 13.67708,8.0668 20.15,9.65c2.41211,2.85938 5.07878,5.64271 8,8.35c1.43424,1.35495 2.93424,2.68828 4.5,4c5.90573,4.92552 12.10573,9.10885 18.6,12.55c-1.74193,1.93919 -3.55859,4.10586 -5.45,6.5c-0.62617,0.80117 -1.17617,1.50117 -1.65,2.1c-1.16667,1.56445 -1.75,2.43112 -1.75,2.6c0,0.96667 0.08333,1.56667 0.25,1.8c0.16667,0.2 0.25,0.35 0.25,0.45l3.25,0.75c1.66667,-0.9 4.98333,-3.75 9.95,-8.55c0.80612,-0.78607 1.53945,-1.53607 2.2,-2.25c0.27852,0.12487 0.54518,0.24154 0.8,0.35c4.32891,1.84154 8.62891,3.29154 12.9,4.35c-5.06667,6.02799 -7.6,9.94466 -7.6,11.75c0,0.43333 0.91667,1.46667 2.75,3.1c2.6,-1.66667 6.58333,-5.53333 11.95,-11.6c0.47812,-0.54049 0.92812,-1.07383 1.35,-1.6c3.25495,0.46667 6.48828,0.7 9.7,0.7c1.37174,0 2.72174,-0.03333 4.05,-0.1c3.49544,0.4 7.64544,0.6 12.45,0.6c13.87279,0 26.77279,-3.65 38.7,-10.95c6.15052,-3.74102 12.03385,-8.45768 17.65,-14.15c-1.07018,1.39232 -2.18685,2.75898 -3.35,4.1M660.75,205.1c0,6.96667 -1.5,13.46667 -4.5,19.5c-3.63333,7.33333 -8.46667,11 -14.5,11c-3.36667,0 -7.31667,-1.68333 -11.85,-5.05c-1.14961,-0.84115 -3.61628,-2.97448 -7.4,-6.4c-1.49792,10.14961 -3.86458,17.34961 -7.1,21.6c-4,5.23333 -10.38333,7.85 -19.15,7.85c-3.73333,0 -8.7,-1.35 -14.9,-4.05c-6.56563,-2.89284 -12.78229,-6.59284 -18.65,-11.1c-1.62513,-4.8707 -3.52513,-8.83737 -5.7,-11.9c-0.13346,-0.18841 -0.2668,-0.37174 -0.4,-0.55c-2.73333,-3.7 -4.1,-2.91667 -4.1,2.35c0.09063,0.26849 0.17396,0.53516 0.25,0.8c0.09687,0.23568 0.18021,0.46901 0.25,0.7c-9.5,-9.9056 -14.25,-20.57227 -14.25,-32c0,-1.01576 0.18333,-2.41576 0.55,-4.2c1.86107,4.62526 4.51107,10.19193 7.95,16.7c3.15547,5.15846 7.00547,10.1918 11.55,15.1c0.98997,1.08411 2.00664,2.15078 3.05,3.2c10.54609,10.57604 20.84609,16.40938 30.9,17.5c1.175,0.13333 2.34167,0.2 3.5,0.2c8.7599,0 15.0099,-5.3 18.75,-15.9c0.1013,-0.26888 0.2013,-0.55221 0.3,-0.85c1.96667,-6 2.95,-12.25 2.95,-18.75c0,-0.19401 0,-0.39401 0,-0.6c0.86458,0.91771 1.78125,1.85104 2.75,2.8c2.96615,2.90703 5.81615,5.29036 8.55,7.15c4.95924,3.43333 9.52591,5.15 13.7,5.15c4.46667,0 8.13333,-3.26667 11,-9.8c2.16667,-4.93333 3.25,-9.28333 3.25,-13.05c0,-0.61732 -0.01667,-1.26732 -0.05,-1.95c-0.06289,-1.56745 -0.21289,-3.30078 -0.45,-5.2c-0.46732,-4.33359 -1.35065,-9.51693 -2.65,-15.55c0.59388,0.88216 1.14388,1.81549 1.65,2.8c3.16667,6.13333 4.75,13.63333 4.75,22.5z" fill="#86bcff"/><path d="M743.35,593.2c-12.07448,1.01159 -19.10781,2.89492 -21.1,5.65c-0.73333,1 -1.53333,2.48333 -2.4,4.45c-1.1,2.5 -1.8,4.01667 -2.1,4.55c-0.73333,1.36667 -1.58333,2.98333 -2.55,4.85c-0.50234,0.7069 -1.16901,1.32357 -2,1.85c-0.25326,-0.27865 -0.51992,-0.57865 -0.8,-0.9c-1.35937,-1.66836 -2.67604,-3.25169 -3.95,-4.75c1.85169,-1.04792 3.25169,-2.29792 4.2,-3.75c0.6,-0.93333 1.25,-2.45 1.95,-4.55c1.33333,-4.06667 3.83333,-6.96667 7.5,-8.7c3.34727,-1.5806 8.26393,-2.86393 14.75,-3.85c1.86263,1.54688 4.0293,3.26354 6.5,5.15M705.95,527.15c-1.77201,-1.1263 -3.90534,-2.25964 -6.4,-3.4c-0.10104,-0.04583 -0.20104,-0.09583 -0.3,-0.15c2.53464,-0.4043 4.8513,-1.3543 6.95,-2.85c2.93333,-2.1 4.95,-3.15 6.05,-3.15c1.66667,0 4.06667,1.05 7.2,3.15c4.93333,2.06667 12.81667,3.1 23.65,3.1c2.82995,0 5.57995,-0.25 8.25,-0.75c1.41953,0.19883 3.01953,0.41549 4.8,0.65c1.12031,0.20859 2.13698,0.44193 3.05,0.7c1.32643,0.34609 2.4431,0.72943 3.35,1.15c-0.68594,0.33424 -1.38594,0.63424 -2.1,0.9c1.86016,0.3599 3.42682,0.79323 4.7,1.3c0.14375,0.04805 0.27708,0.09805 0.4,0.15c0.46667,0.2 1.9,0.96667 4.3,2.3c1.7,0.93333 3.5,1.63333 5.4,2.1c0.03333,-1.5 0.58333,-5.25 1.65,-11.25c0.00833,-0.04635 0.00833,-0.09635 0,-0.15c0.35508,-1.89193 0.55508,-3.67526 0.6,-5.35c-0.42891,0.42174 -0.87891,0.82174 -1.35,1.2c0.45703,-2.56419 0.99036,-5.73086 1.6,-9.5c2.38555,-2.70273 4.56888,-5.68607 6.55,-8.95c1.38464,-2.22943 2.8513,-4.64609 4.4,-7.25c0.51706,0.30169 1.05039,0.61836 1.6,0.95c1.26667,0.76003 2.41667,1.47669 3.45,2.15c-0.16302,0.33294 -0.32969,0.66628 -0.5,1c-2.76667,5.46667 -6.33333,10.6 -10.7,15.4c-0.64297,0.70521 -1.29297,1.38854 -1.95,2.05c0.33203,0.91576 0.56536,2.01576 0.7,3.3c0.12487,1.17773 0.17487,2.4944 0.15,3.95c-0.00938,1.29753 -0.07604,2.69753 -0.2,4.2c0,0.83333 -0.28333,2.9 -0.85,6.2c-0.6,3.26667 -0.9,5.31667 -0.9,6.15c0,1.66667 -0.08333,2.3 -0.25,1.9c-0.06667,0 -0.11667,0.16667 -0.15,0.5c-0.2,0.33333 -0.81667,0.5 -1.85,0.5l-13.5,-5.5c-2.36667,-1.76667 -6.65,-2.86667 -12.85,-3.3c-2.31875,-0.15807 -4.30208,-0.40807 -5.95,-0.75c-0.72878,0.03333 -1.46211,0.05 -2.2,0.05c-8.37578,0 -15.07578,-0.55 -20.1,-1.65c-2.0444,-0.44232 -3.81107,-0.97565 -5.3,-1.6c-1.53333,-0.63333 -2.75,-1.38333 -3.65,-2.25l-1.1,-1c-1.13333,0 -2.05,0.26667 -2.75,0.8c-0.43333,0.3 -1.03333,0.86667 -1.8,1.7c-0.56328,0.51211 -1.26328,0.94544 -2.1,1.3M674.75,421.1c2.86667,2.76667 5.08333,5.93333 6.65,9.5c1.56667,3.53333 2.35,7.2 2.35,11c0,4.96667 -1.08333,10.25 -3.25,15.85c-1.53385,4.00234 -3.38385,7.55234 -5.55,10.65c-1.44505,-2.18763 -2.84505,-4.18763 -4.2,-6c-0.22305,-0.27682 -0.43971,-0.54349 -0.65,-0.8c4.15208,-6.03802 6.53542,-11.52135 7.15,-16.45c0.67734,-3.69544 0.37734,-7.46211 -0.9,-11.3c-1.23672,-3.83294 -3.52005,-7.41628 -6.85,-10.75c-1.14792,-1.14961 -2.41458,-2.26628 -3.8,-3.35c0.08307,-1.21341 0.18307,-2.58008 0.3,-4.1c0.04414,-0.57383 0.07747,-1.12383 0.1,-1.65c0.1763,0.12201 0.34297,0.23867 0.5,0.35c0.01172,-0.57526 0.02839,-1.15859 0.05,-1.75c0.51602,0.31602 0.88268,0.58268 1.1,0.8c0.6,0.56667 1.7,1.81667 3.3,3.75c1.63333,2 2.86667,3.41667 3.7,4.25M744.25,327.8c16.30677,-5.67057 31.40677,-5.72057 45.3,-0.15c0.0388,-0.03424 0.07214,-0.06758 0.1,-0.1c1.29154,0.48385 2.87487,1.08385 4.75,1.8c0.99141,0.36914 1.92474,0.70247 2.8,1c-0.2957,0.27708 -0.61237,0.52708 -0.95,0.75c3.18815,1.6487 7.28815,3.66536 12.3,6.05c6.93333,3.7 11,7.18333 12.2,10.45c0.83333,2.23333 2.41667,10.38333 4.75,24.45c1.03776,6.37513 1.83776,11.65846 2.4,15.85c-1.74857,2.20755 -3.26523,4.07422 -4.55,5.6c-0.01849,-0.40573 -0.05182,-0.78906 -0.1,-1.15c-0.46667,-3.23333 -1.03333,-7 -1.7,-11.3c-1.03333,-6.43333 -1.63333,-10.16667 -1.8,-11.2c-0.3,-6.8 -2.68333,-13.36667 -7.15,-19.7c-8.83333,-12.53333 -23.83333,-18.8 -45,-18.8c-7.45898,0 -15.34232,1.51667 -23.65,4.55c-0.7151,-0.27943 -2.33177,-0.92943 -4.85,-1.95c-1.42526,-0.5681 -3.15859,-1.2681 -5.2,-2.1c2.31875,-0.95312 5.38542,-2.31979 9.2,-4.1c0.27292,0.06146 0.53958,0.11146 0.8,0.15c0.12695,-0.02956 0.24362,-0.06289 0.35,-0.1M642.9,282.7c-2.10234,1.85286 -4.30234,3.6362 -6.6,5.35c-0.01641,0.01224 -0.03307,0.01224 -0.05,0c-0.52904,0.41836 -1.06237,0.81836 -1.6,1.2c-11.2401,8.07773 -24.0401,14.26107 -38.4,18.55c-4.55599,1.36797 -9.12266,2.5013 -13.7,3.4c-0.82721,0.16706 -1.66055,0.31706 -2.5,0.45c0.34792,0.13971 0.69792,0.27305 1.05,0.4c1.29622,0.47578 2.72956,1.02578 4.3,1.65c4.11003,1.73411 7.76003,3.26745 10.95,4.6c3.11888,1.29466 5.80221,2.39466 8.05,3.3c8.40013,-6.89023 18.23346,-10.69023 29.5,-11.4c0.72305,-0.04648 1.43971,-0.07982 2.15,-0.1c2.35534,-0.06055 4.63867,0.02279 6.85,0.25c2.0224,0.2362 3.9724,0.5862 5.85,1.05c6.64805,1.66094 12.54805,4.86094 17.7,9.6c3.17435,2.91693 5.84102,6.25026 8,10c-1.00495,0.66471 -2.33828,1.56471 -4,2.7c-2.03112,-3.31901 -4.69779,-6.26901 -8,-8.85c-7.27018,-5.6444 -15.95352,-8.4444 -26.05,-8.4c-0.87109,0.01888 -1.75443,0.05221 -2.65,0.1c-10.21055,0.53893 -18.97721,3.73893 -26.3,9.6c-0.18086,0.16471 -0.38086,0.33138 -0.6,0.5c-0.60573,0.51576 -1.20573,1.04909 -1.8,1.6c-8.48151,7.83151 -12.83151,18.11484 -13.05,30.85c0,0.33516 0,0.66849 0,1c0,3.80456 0.55,7.60456 1.65,11.4c0.22786,0.11901 0.4112,0.21901 0.55,0.3c-3.07409,2.33763 -4.89076,3.6043 -5.45,3.8c-0.03672,-0.13789 -0.10339,-0.32122 -0.2,-0.55c-1.14492,-4.01615 -1.81159,-8.16615 -2,-12.45c-2.35052,-1.20872 -6.06719,-3.90872 -11.15,-8.1c-3.61055,-5.60911 -6.79388,-11.02578 -9.55,-16.25c2.5806,2.16562 4.79727,4.03229 6.65,5.6c3.79505,3.18451 7.26172,6.18451 10.4,9c1.11549,0.99141 2.18216,1.95807 3.2,2.9c0.18268,0.16198 0.34935,0.31198 0.5,0.45c0.01914,-0.02161 0.01914,-0.05495 0,-0.1c0.72721,-10.51523 4.27721,-19.6319 10.65,-27.35c1.05951,-1.26979 2.19284,-2.50312 3.4,-3.7c0.07682,-0.07826 0.14349,-0.16159 0.2,-0.25c-0.61471,-0.14505 -1.29805,-0.34505 -2.05,-0.6c-2.87786,-0.91263 -6.5612,-2.41263 -11.05,-4.5c-5.95078,-2.79466 -10.21745,-5.19466 -12.8,-7.2c-0.85964,0.12318 -1.7263,0.23984 -2.6,0.35c-0.7599,0.08763 -1.52656,0.17096 -2.3,0.25c-4.75026,0.5 -9.51693,0.75 -14.3,0.75c-6.83242,0 -13.79909,-1 -20.9,-3c-4.51901,-4.19427 -7.71901,-7.21094 -9.6,-9.05c0.13542,0.05 0.26875,0.1 0.4,0.15c10.3,3.93333 20.46667,5.9 30.5,5.9c31.02188,0 56.50521,-7.83333 76.45,-23.5c1.24284,-0.97266 2.45951,-1.98932 3.65,-3.05c1.00977,0.16563 2.07643,0.36563 3.2,0.6c1.70182,0.34284 3.16849,0.69284 4.4,1.05c-0.31732,-0.0651 -0.63398,-0.14844 -0.95,-0.25M858.15,579.45c4.34023,1.30885 8.24023,2.87552 11.7,4.7c1.90313,1.00247 3.56979,2.01914 5,3.05c2.56966,2.38451 4.53633,5.01784 5.9,7.9c-0.46914,0 -2.26914,0.23333 -5.4,0.7c-1.72604,-2.99753 -7.05937,-6.14753 -16,-9.45c-5.2543,-1.93294 -9.88763,-3.36628 -13.9,-4.3c-1.85391,-0.41133 -3.58724,-0.72799 -5.2,-0.95c4.94154,-1.79518 8.2082,-3.02852 9.8,-3.7c2.85247,0.59349 5.55247,1.27682 8.1,2.05M705.75,529.35c7.23971,4.31706 13.38971,9.20039 18.45,14.65c1.45508,-1.33516 3.52174,-2.88516 6.2,-4.65c6.03333,-3.96667 10.65,-5.46667 13.85,-4.5c5.13333,-1.26667 10.31667,-0.71667 15.55,1.65c5.46667,2.46667 8.2,5.83333 8.2,10.1c0,6.33333 -6.03333,13.51667 -18.1,21.55c-9.16667,6.1 -18.71667,11 -28.65,14.7c-14.8,5.5 -26.45,13.25 -34.95,23.25c-3.86667,4.56667 -6.5,7.38333 -7.9,8.45c-0.09167,0.06875 -0.19167,0.13542 -0.3,0.2c0.95299,-0.05859 1.86966,-0.12526 2.75,-0.2c-4.53099,2.7 -8.89766,4.05 -13.1,4.05c-2.33333,0 -5.56667,-1.08333 -9.7,-3.25c-2.46484,-1.30612 -4.34818,-2.48945 -5.65,-3.55c-0.51654,-1.00833 -0.81654,-2.125 -0.9,-3.35c0,-1.26667 0,-1.96667 0,-2.1c0,-3.06667 0.75,-5.93333 2.25,-8.6c0.96667,-1.66667 3.13333,-4.55 6.5,-8.65c-9.16458,-0.36016 -16.59792,-1.46016 -22.3,-3.3c1.2026,-1.11992 2.66927,-2.43659 4.4,-3.95c2.72878,0.66667 5.81211,1 9.25,1c6.96667,0 12.4,-0.81667 16.3,-2.45c0.83333,-0.36667 2.03333,-0.98333 3.6,-1.85c1.13333,-0.66667 2.05,-1.06667 2.75,-1.2c0.93333,0.83333 1.58333,1.46667 1.95,1.9c0.53333,0.63333 0.8,1.16667 0.8,1.6c0,0.96667 -1.03333,2.45 -3.1,4.45c-1.26667,1.16667 -3.56667,3.18333 -6.9,6.05c-6.66667,6 -10,11.08333 -10,15.25c0,1.4 0.73333,2.56667 2.2,3.5c1.86667,1.16667 4.66667,1.75 8.4,1.75c4.1,0 8.86667,-2.83333 14.3,-8.5c4.86667,-5.96667 7.56667,-9.21667 8.1,-9.75c3.16667,-3.16667 7.1,-6.06667 11.8,-8.7c4.4,-2.5 9.8,-4.93333 16.2,-7.3c6.3,-2.46667 14.2,-6.51667 23.7,-12.15c13.7,-8.13333 20.55,-14.58333 20.55,-19.35c0,-1.33333 -1.25,-2.58333 -3.75,-3.75c-2.73333,-1.33333 -6.03333,-2 -9.9,-2c-6.6,0 -12.1,1.71667 -16.5,5.15c-1.1,0.83333 -2.45,2 -4.05,3.5c-1.26667,1.06667 -2.36667,1.6 -3.3,1.6c-1.03333,0 -1.68333,-0.08333 -1.95,-0.25l-0.05,-0.25c-0.4,-0.2 -0.66667,-0.35 -0.8,-0.45c-0.13333,-0.16667 -0.2,-0.76667 -0.2,-1.8c0,-0.4224 0.15,-0.90573 0.45,-1.45c-9.84661,-6.98971 -17.74661,-12.13971 -23.7,-15.45c0.63086,-0.16758 1.26419,-0.35091 1.9,-0.55c1.72435,-0.54232 3.24102,-1.05898 4.55,-1.55c0.26875,0.17435 0.53542,0.34102 0.8,0.5M664.95,544.35c0.84219,0.6418 1.74219,1.27513 2.7,1.9c2.13333,1.4 5.5,3.48333 10.1,6.25c0.25768,0.16237 0.50768,0.31237 0.75,0.45c1.18503,0.18281 2.03503,0.49948 2.55,0.95c1.06667,0.9 2.21667,1.46667 3.45,1.7l0.25,0.75c-0.34049,0.07383 -0.69049,0.14049 -1.05,0.2c1.18698,0.90924 2.20365,1.75924 3.05,2.55c-2.40378,-0.56016 -4.70378,-1.16016 -6.9,-1.8c-3.87513,0.66966 -8.4418,1.30299 -13.7,1.9c-2.73802,0.28359 -5.22135,0.53359 -7.45,0.75c0.77083,-1.85482 1.6875,-4.12148 2.75,-6.8c2.17188,-0.09792 4.42188,-0.18125 6.75,-0.25c-1.96367,-0.91432 -3.78034,-1.89766 -5.45,-2.95c0.68333,-1.71966 1.41667,-3.58633 2.2,-5.6M808.45,551.5c0.88906,2.59258 2.15573,5.12591 3.8,7.6c0.53424,0.81081 1.10091,1.57747 1.7,2.3c0.11367,0.15716 0.23034,0.30716 0.35,0.45l1.05,1.2c1.34401,1.39167 2.81068,2.60833 4.4,3.65c4.29583,2.89479 9.54583,4.56146 15.75,5v0.05c-0.07526,0.32161 -0.15859,0.63828 -0.25,0.95c-0.06445,0.34844 -0.14779,0.68177 -0.25,1c-0.08841,0.47708 -0.18841,0.92708 -0.3,1.35l-0.8,3.45c0.0099,0.0569 0.0099,0.1069 0,0.15c-0.26667,-0.25299 -0.4,-0.43633 -0.4,-0.55c0,-0.175 0,-0.34167 0,-0.5c-12.07865,-1.13789 -20.91198,-6.38789 -26.5,-15.75c-2.42956,-4.08607 -4.06289,-8.3194 -4.9,-12.7c1.28958,-0.27513 3.10625,-0.62513 5.45,-1.05l0.6,2.45c0.10664,0.29492 0.20664,0.57826 0.3,0.85c0.00807,0.04062 0.00807,0.07396 0,0.1M832.15,505.55c-0.38281,0.18242 -0.76615,0.36576 -1.15,0.55c-1.82917,0.94414 -3.57917,1.99414 -5.25,3.15c-2.30846,1.64349 -4.45846,3.49349 -6.45,5.55c-0.96706,1.05378 -1.90039,2.15378 -2.8,3.3c-0.39531,0.49518 -0.77865,0.99518 -1.15,1.5c-0.0375,0.05938 -0.07083,0.10938 -0.1,0.15c-0.47852,0.66328 -0.94518,1.34661 -1.4,2.05c-1.59935,2.47487 -2.91602,4.92487 -3.95,7.35c-0.16393,-0.00664 -0.3306,-0.02331 -0.5,-0.05c-4.26172,-0.65143 -7.07839,-1.33477 -8.45,-2.05c1.01849,0.30846 1.95182,0.62513 2.8,0.95c2.15313,-6.26758 5.80312,-11.86758 10.95,-16.8c0.20859,-0.19987 0.40859,-0.39987 0.6,-0.6c2.94688,-2.70859 6.11354,-5.00859 9.5,-6.9c1.62943,0.37917 3.54609,0.8625 5.75,1.45c0.52904,0.12435 1.06237,0.25768 1.6,0.4M625,121.85c-1.1,-0.63333 -4.25,-2.33333 -9.45,-5.1c-0.48919,-0.25977 -0.98919,-0.52643 -1.5,-0.8c-4.06289,-2.08542 -8.74622,-4.26875 -14.05,-6.55c-4.41628,-1.86549 -8.83294,-3.08216 -13.25,-3.65c0.63906,-1.71615 1.33906,-3.64948 2.1,-5.8c1.35013,0.30508 2.73346,0.65508 4.15,1.05c3.7,1.1 6.45,1.88333 8.25,2.35c4.76667,1.63333 8.66667,3.2 11.7,4.7c2.33333,1.16667 5.51667,3.01667 9.55,5.55c1.21133,0.76211 2.34466,1.47878 3.4,2.15c8.71471,5.47409 13.13138,8.24076 13.25,8.3c7.33333,4.96667 12.78333,9.48333 16.35,13.55c6.7,7.7 12.31667,17.43333 16.85,29.2c1.925,4.99349 3.425,9.74349 4.5,14.25c-2.00404,1.65755 -3.70404,3.07422 -5.1,4.25c-1.08099,-4.59479 -2.68099,-9.82812 -4.8,-15.7c-4.5,-12.53333 -8.98333,-21.03333 -13.45,-25.5c-4.76667,-4.83333 -9.08333,-8.76667 -12.95,-11.8c-4.2,-3.33333 -9.38333,-6.81667 -15.55,-10.45z" fill="#210c2a"/><path d="M751.35,523.1c7.55378,-1.40703 14.47044,-4.80703 20.75,-10.2c1.99141,-1.70964 3.87474,-3.5763 5.65,-5.6c-0.60964,3.76914 -1.14297,6.93581 -1.6,9.5c-2.66914,2.33034 -5.43581,4.34701 -8.3,6.05c-1.71732,1.0388 -3.48398,1.95547 -5.3,2.75c-0.9069,-0.42057 -2.02357,-0.80391 -3.35,-1.15c-0.91302,-0.25807 -1.92969,-0.49141 -3.05,-0.7c-1.78047,-0.23451 -3.38047,-0.45117 -4.8,-0.65M654.35,179.8c1.29935,6.03307 2.18268,11.21641 2.65,15.55c0.23711,1.89922 0.38711,3.63255 0.45,5.2c0.03333,0.68268 0.05,1.33268 0.05,1.95c0,3.76667 -1.08333,8.11667 -3.25,13.05c-2.86667,6.53333 -6.53333,9.8 -11,9.8c-4.17409,0 -8.74076,-1.71667 -13.7,-5.15c-2.73385,-1.85964 -5.58385,-4.24297 -8.55,-7.15c-0.96875,-0.94896 -1.88542,-1.88229 -2.75,-2.8c0,0.20599 0,0.40599 0,0.6c0,6.5 -0.98333,12.75 -2.95,18.75c-0.0987,0.29779 -0.1987,0.58112 -0.3,0.85c-3.7401,10.6 -9.9901,15.9 -18.75,15.9c-1.15833,0 -2.325,-0.06667 -3.5,-0.2c-10.05391,-1.09062 -20.35391,-6.92396 -30.9,-17.5c-1.04336,-1.04922 -2.06003,-2.11589 -3.05,-3.2c-4.54453,-4.9082 -8.39453,-9.94154 -11.55,-15.1c-3.43893,-6.50807 -6.08893,-12.07474 -7.95,-16.7c-0.48411,-1.25352 -0.91745,-2.43685 -1.3,-3.55c-1.79674,-5.2349 -3.46341,-12.71823 -5,-22.45c-1.53672,-9.73177 1.61328,-17.88177 9.45,-24.45c7.83437,-6.53385 16.30104,-9.05052 25.4,-7.55c8.43333,1.4 16.41667,5.25 23.95,11.55c4.65586,3.89323 8.33919,8.07656 11.05,12.55c0.37943,-5.99596 1.61276,-11.24596 3.7,-15.75c2.43333,-5.3 5.7,-8.81667 9.8,-10.55c4.23333,-1.76667 8.73333,-1.33333 13.5,1.3c5.2,2.86667 10.16667,8.06667 14.9,15.6c2.73333,3.4 5.58333,11.6 8.55,24.6c0.38411,1.66888 0.73411,3.28555 1.05,4.85M645.55,195.8c-1.46667,-3.7 -2.23333,-5.68333 -2.3,-5.95c-1.3,-4 -3.48333,-5.91667 -6.55,-5.75c-1.23333,0.1 -2.26667,0.58333 -3.1,1.45c-0.9,0.93333 -1.35,2.08333 -1.35,3.45c0.6,2.6 1.43333,5.46667 2.5,8.6c0.14375,0.41406 0.27708,0.81406 0.4,1.2c2.09453,5.53333 4.29453,8.3 6.6,8.3c1.63333,0 2.95,-0.5 3.95,-1.5c1.03333,-1 1.55,-2.36667 1.55,-4.1c0,-0.72227 -0.43333,-2.2556 -1.3,-4.6c-0.11563,-0.33789 -0.24896,-0.70456 -0.4,-1.1M606.5,205.3c0.5,-1.1 0.75,-2.33333 0.75,-3.7c0,-3.2 -0.78333,-6.63333 -2.35,-10.3c-1.4,-3.36667 -3.11667,-6.16667 -5.15,-8.4c-2.03333,-2.26667 -3.75,-3.25 -5.15,-2.95c-1.56667,0.33333 -2.35,2.3 -2.35,5.9c0.76667,3.8 1.76667,7.53333 3,11.2c1.87565,5.67826 3.69232,9.16159 5.45,10.45c0.52148,0.4 1.03815,0.6 1.55,0.6c1.80234,0 3.11901,-0.76667 3.95,-2.3c0.11758,-0.14883 0.21758,-0.31549 0.3,-0.5M676.85,181.05c1.06419,4.38372 1.73086,8.53372 2,12.45c0.1,1.40182 0.15,2.76849 0.15,4.1c0,2.78073 -0.08333,5.51406 -0.25,8.2l0.05,0.05c0.3,0.76667 0.45,1.76667 0.45,3c0,2.11719 -0.51667,4.81719 -1.55,8.1c-3.28984,24.37096 -13.10651,44.6543 -29.45,60.85c12.68281,2.96849 27.34948,5.15182 44,6.55c1.22513,0.24193 2.5418,0.47526 3.95,0.7c4.75911,0.81536 10.59245,1.5987 17.5,2.35c2.31602,0.27904 4.74935,0.5457 7.3,0.8c0.64714,-1.06732 1.43047,-2.25065 2.35,-3.55c3.53333,-4.96667 7.75,-9.43333 12.65,-13.4c13.8,-11.26667 27.88333,-14.56667 42.25,-9.9c10.93333,4.66667 18.73333,10.68333 23.4,18.05c3.73333,5.86667 5.6,12.93333 5.6,21.2c0,1.38529 -0.06667,2.80195 -0.2,4.25c-0.41576,4.28893 -1.43242,8.87227 -3.05,13.75c-1.82526,5.53398 -4.09193,9.45065 -6.8,11.75c-0.87526,-0.29753 -1.80859,-0.63086 -2.8,-1c-1.87513,-0.71615 -3.45846,-1.31615 -4.75,-1.8c-0.02786,0.03242 -0.0612,0.06576 -0.1,0.1c-13.89323,-5.57057 -28.99323,-5.52057 -45.3,0.15c-0.10638,0.03711 -0.22305,0.07044 -0.35,0.1c-0.26042,-0.03854 -0.52708,-0.08854 -0.8,-0.15c-3.81458,1.78021 -6.88125,3.14688 -9.2,4.1c2.04141,0.8319 3.77474,1.5319 5.2,2.1c2.51823,1.02057 4.1349,1.67057 4.85,1.95c-2.15026,0.80195 -4.33359,1.70195 -6.55,2.7c-0.59362,0.31888 -1.17695,0.61888 -1.75,0.9c-5.99141,3.22331 -9.92474,5.20664 -11.8,5.95c-0.56185,0.26667 -0.92852,0.4 -1.1,0.4c-3.16667,-1.9 -6.71667,-3.81667 -10.65,-5.75c-5.96328,-2.89362 -11.79661,-4.69362 -17.5,-5.4c-0.34414,0.1 -0.79414,0.15 -1.35,0.15c-0.45352,0 -1.00352,-0.15 -1.65,-0.45c-0.83958,-0.03333 -1.67292,-0.05 -2.5,-0.05c-3.67214,0 -7.62214,0.85 -11.85,2.55c2.66667,6.72773 4,14.5444 4,23.45c0,2.9 -0.8,6.58333 -2.4,11.05c-2.03333,5.53333 -4.81667,10.6 -8.35,15.2c-6.43385,8.34023 -14.43385,13.97357 -24,16.9c7.34232,2.21654 13.87565,5.61654 19.6,10.2c-0.02253,0.52617 -0.05586,1.07617 -0.1,1.65c-0.11693,1.51992 -0.21693,2.88659 -0.3,4.1c1.38542,1.08372 2.65208,2.20039 3.8,3.35c3.32995,3.33372 5.61328,6.91706 6.85,10.75c1.27734,3.83789 1.57734,7.60456 0.9,11.3c-0.61458,4.92865 -2.99792,10.41198 -7.15,16.45c0.21029,0.25651 0.42695,0.52318 0.65,0.8c1.35495,1.81237 2.75495,3.81237 4.2,6c2.16615,-3.09766 4.01615,-6.64766 5.55,-10.65c2.16667,-5.6 3.25,-10.88333 3.25,-15.85c0,-3.8 -0.78333,-7.46667 -2.35,-11c-1.56667,-3.56667 -3.78333,-6.73333 -6.65,-9.5c-0.83333,-0.83333 -2.06667,-2.25 -3.7,-4.25c-1.6,-1.93333 -2.7,-3.18333 -3.3,-3.75c-0.21732,-0.21732 -0.58398,-0.48398 -1.1,-0.8c0.57826,-9.02917 4.11159,-16.7125 10.6,-23.05c7.03333,-6.9 15.66667,-10.6 25.9,-11.1c10.6,-0.46667 19.58333,2.7 26.95,9.5c3.63333,3.33333 6.56667,7.3 8.8,11.9c0.13333,-1 0.26667,-2.05 0.4,-3.15c1,-7.13333 2.45,-13.63333 4.35,-19.5c5.5,-16.93333 13.26667,-24.38333 23.3,-22.35c13.03333,1.83333 22.46667,9.66667 28.3,23.5c3.4,8.1 5.41667,17.91667 6.05,29.45c0.02135,0.40534 0.10469,1.83867 0.25,4.3c0.1013,1.39388 0.21797,3.11055 0.35,5.15c0.16667,6.4 -0.21667,12.21667 -1.15,17.45c-0.23294,1.25807 -0.49961,2.47474 -0.8,3.65c-0.72865,2.99857 -1.64531,5.69857 -2.75,8.1c0.23333,0.13333 0.53333,0.28333 0.9,0.45c0.71589,0.35794 1.29922,0.67461 1.75,0.95c0.34492,0.20729 0.61159,0.39063 0.8,0.55l9.75,-1c0,-0.1 0.13333,-0.25 0.4,-0.45c0.2,-0.26667 0.28333,-0.88333 0.25,-1.85c-0.06667,-0.9 -1.36667,-3.28333 -3.9,-7.15c-0.52656,-0.8 -1.0099,-1.53333 -1.45,-2.2c-0.39362,-0.64961 -0.74362,-1.23294 -1.05,-1.75c-0.91354,-1.53737 -1.38021,-2.50404 -1.4,-2.9c-0.03333,-1.03333 -0.01667,-1.66667 0.05,-1.9l0.1,-0.05c0.59714,0.20716 1.18047,0.44049 1.75,0.7c1.89076,0.90273 3.64076,2.13607 5.25,3.7c0.58815,0.58047 1.15482,1.19714 1.7,1.85c2.63333,3.1 4.03333,6.28333 4.2,9.55c0.1,1.9 0.1,3.16667 0,3.8c-0.36667,1.96667 -1.4,3.3 -3.1,4l-3.55,0.4l-8.95,1c1.93333,3.56667 0.01667,7.63333 -5.75,12.2c-4.56667,3.63333 -10.35,6.85 -17.35,9.65c-1.56667,0.6 -3.08333,1.21667 -4.55,1.85c-1.06667,0.93333 -2.01667,1.8 -2.85,2.6c-5.76667,5.43333 -9.81667,10.1 -12.15,14c-2.56667,4.23333 -5.63333,8.56667 -9.2,13c-6.26667,7.8 -11.18333,11.83333 -14.75,12.1c-8.96667,0.66667 -18.43333,-2.28333 -28.4,-8.85c-5.93333,-3.9 -10.45,-7.83333 -13.55,-11.8c-6.73333,0.3 -11.93333,-1.75 -15.6,-6.15c-1.2,-1.4 -2.21667,-3.06667 -3.05,-5c-0.56667,-1.6 -0.9,-2.46667 -1,-2.6c-2.26667,2.03333 -4.35,3.7 -6.25,5c-3.56667,2.53333 -7.1,3.93333 -10.6,4.2c-2.56667,0.2 -4.16667,-0.58333 -4.8,-2.35c-0.13333,-1.9 -0.2,-2.91667 -0.2,-3.05c-0.06667,-1.23333 0.45,-3.65 1.55,-7.25c-1.88242,0.52813 -3.86576,0.97813 -5.95,1.35c0.11159,-0.28333 0.19492,-0.51667 0.25,-0.7c-6.68776,-0.13333 -14.77109,-0.2 -24.25,-0.2c-6.1125,0 -11.72917,-0.56667 -16.85,-1.7c-1.24518,-0.26823 -2.47852,-0.5849 -3.7,-0.95c1.20951,1.59414 4.12617,4.54414 8.75,8.85c0.71237,0.64466 1.4957,1.24466 2.35,1.8c4.87891,3.22917 12.37891,5.19583 22.5,5.9c2.54518,2.29336 4.39518,4.21003 5.55,5.75c0.29935,0.43216 1.89935,2.33216 4.8,5.7c2.92943,3.40846 6.54609,6.2918 10.85,8.65c4.33672,2.38385 6.65339,3.06719 6.95,2.05c4.67643,-0.82122 10.2931,-0.48789 16.85,1c4.90638,1.09245 9.78971,2.70911 14.65,4.85c0.56419,0.06667 0.99753,0.1 1.3,0.1c1.03151,0 2.03151,-0.08333 3,-0.25c0.09896,0.05417 0.19896,0.10417 0.3,0.15c2.49466,1.14036 4.62799,2.2737 6.4,3.4c0.83672,-0.35456 1.53672,-0.78789 2.1,-1.3c0.76667,-0.83333 1.36667,-1.4 1.8,-1.7c0.7,-0.53333 1.61667,-0.8 2.75,-0.8l1.1,1c0.9,0.86667 2.11667,1.61667 3.65,2.25c1.48893,0.62435 3.2556,1.15768 5.3,1.6c5.02422,1.1 11.72422,1.65 20.1,1.65c0.73789,0 1.47122,-0.01667 2.2,-0.05c1.64792,0.34193 3.63125,0.59193 5.95,0.75c6.2,0.43333 10.48333,1.53333 12.85,3.3l13.5,5.5c1.03333,0 1.65,-0.16667 1.85,-0.5c0.03333,-0.33333 0.08333,-0.5 0.15,-0.5c0.16667,0.4 0.25,-0.23333 0.25,-1.9c0,-0.83333 0.3,-2.88333 0.9,-6.15c0.56667,-3.3 0.85,-5.36667 0.85,-6.2c0.12396,-1.50247 0.19062,-2.90247 0.2,-4.2c0.02487,-1.4556 -0.02513,-2.77227 -0.15,-3.95c-0.13464,-1.28424 -0.36797,-2.38424 -0.7,-3.3c0.65703,-0.66146 1.30703,-1.34479 1.95,-2.05c4.36667,-4.8 7.93333,-9.93333 10.7,-15.4c0.17031,-0.33372 0.33698,-0.66706 0.5,-1c-1.03333,-0.67331 -2.18333,-1.38997 -3.45,-2.15c-0.54961,-0.33164 -1.08294,-0.64831 -1.6,-0.95c1.84102,-3.02969 3.80768,-6.31302 5.9,-9.85c0.75313,0.92435 1.55313,1.82435 2.4,2.7c4.93633,-1.37357 9.35299,-3.14023 13.25,-5.3c5.47539,-3.00221 9.94206,-6.76888 13.4,-11.3c5.9,-7.73333 8.85,-17.9 8.85,-30.5c0,-3.63854 -0.91667,-8.07187 -2.75,-13.3c-0.32188,-0.9806 -0.68854,-1.99727 -1.1,-3.05c-0.80495,-2.03294 -1.48828,-3.79961 -2.05,-5.3l-0.35,0.15c-2,-1.03333 -3.05,-2.93333 -3.15,-5.7c0.26667,-3.03333 0.4,-5.05 0.4,-6.05c0.03333,-2.53333 0.05,-4.43333 0.05,-5.7c0,-1.6707 -0.06667,-3.13737 -0.2,-4.4c1.28477,-1.52578 2.80143,-3.39245 4.55,-5.6c0.73333,5.26406 1.1,8.83073 1.1,10.7c0,2 -0.08333,4.4 -0.25,7.2c-0.02878,0.47643 -0.06211,0.9431 -0.1,1.4c0.08529,0.0931 0.16862,0.1931 0.25,0.3c1.96667,2.63333 4,6.33333 6.1,11.1c0.1418,0.64987 0.27513,1.2832 0.4,1.9c0.67513,2.93763 1.3418,5.6543 2,8.15c0.4,1.86667 0.6,4.51667 0.6,7.95c0,13.66849 -3.21667,25.06849 -9.65,34.2c-1.57422,2.25026 -3.34089,4.35026 -5.3,6.3c-0.2474,0.25703 -0.4974,0.50703 -0.75,0.75c-6.39674,6.14635 -13.79674,10.19635 -22.2,12.15c-0.95846,0.21523 -1.9418,0.39857 -2.95,0.55c0.71576,0.03034 1.48242,0.08034 2.3,0.15c3.3082,0.33763 7.6582,1.2043 13.05,2.6c5.69167,1.45859 13.125,3.50859 22.3,6.15c2.8543,-0.83411 5.83763,-1.45078 8.95,-1.85c1.60508,-0.21003 3.17174,-0.36003 4.7,-0.45c5.51706,-0.23659 10.58372,0.41341 15.2,1.95c2.72253,0.91237 5.28919,2.12904 7.7,3.65c5.24727,-2.7625 11.54727,-6.4625 18.9,-11.1c2.87266,-1.80781 5.47266,-3.44115 7.8,-4.9c0.03177,0.00729 0.04844,0.00729 0.05,0c6.3944,-3.92604 10.8444,-6.50937 13.35,-7.75c6.76667,-3.4 11.73333,-4.4 14.9,-3c3.76667,1.6 5.65,6.63333 5.65,15.1c0,2.06667 -0.53333,4.66667 -1.6,7.8c-1.26667,3.7 -2.96667,7.11667 -5.1,10.25c-2.53268,3.63451 -5.39935,6.48451 -8.6,8.55c2.53125,1.08646 4.81458,2.40313 6.85,3.95c1.10417,0.8388 2.05417,1.6888 2.85,2.55c5.45664,0.98164 9.52331,3.79831 12.2,8.45c2.26667,4 3.4,8.98333 3.4,14.95c0,4 -1.33333,8.5 -4,13.5c-3.46667,6.5 -7.88333,9.75 -13.25,9.75c-7.64049,0 -13.60716,-1.11667 -17.9,-3.35c1.59674,3.00013 2.89674,5.40013 3.9,7.2c0.16667,0.5 0.25,2.71667 0.25,6.65c0,3.83333 -0.66667,7.08333 -2,9.75c-2.23333,4.5 -6.15,6.75 -11.75,6.75c-6.53997,0 -12.48997,-2.15 -17.85,-6.45c1.73333,2.22721 2.6,4.54388 2.6,6.95c0,4.43333 -4.13333,8.5 -12.4,12.2c-9.36667,4.16667 -21.81667,6.6 -37.35,7.3h-28c-6.4,-0.66667 -11.53333,-1.96667 -15.4,-3.9c-0.83789,-0.41901 -1.57122,-0.85234 -2.2,-1.3c-0.35729,0.13333 -0.82396,0.2 -1.4,0.2c-1.46667,0 -2.36667,-0.71667 -2.7,-2.15c-0.03333,-1.53333 -0.05,-2.36667 -0.05,-2.5c0,-1.10729 0.5,-2.60729 1.5,-4.5c0.15573,-1.07565 0.3724,-1.87565 0.65,-2.4c0.04271,-0.06393 0.95937,-1.2806 2.75,-3.65c0.5,-0.99987 0.86667,-1.84987 1.1,-2.55c-0.33333,-1 -0.75,-1.66667 -1.25,-2c-2.1,-0.13333 -5.31667,-0.28333 -9.65,-0.45c-4.46667,-0.2 -7.3,-0.3 -8.5,-0.3c-10.23437,0 -18.81771,0.28333 -25.75,0.85c-2.4707,-1.88646 -4.63737,-3.60313 -6.5,-5.15c-6.48607,0.98607 -11.40273,2.2694 -14.75,3.85c-3.66667,1.73333 -6.16667,4.63333 -7.5,8.7c-0.7,2.1 -1.35,3.61667 -1.95,4.55c-0.94831,1.45208 -2.34831,2.70208 -4.2,3.75c1.27396,1.49831 2.59063,3.08164 3.95,4.75c0.28008,0.32135 0.54674,0.62135 0.8,0.9c-0.62708,0.42396 -1.36042,0.79063 -2.2,1.1c-3.3,1.2 -14.21667,2.93333 -32.75,5.2l-28.5,0.5c-0.86667,0.3 -2.23333,0.61667 -4.1,0.95c-2.1,0.36667 -3.73333,0.55 -4.9,0.55c-1.66667,0 -3.08333,-0.16667 -4.25,-0.5l-26.25,-0.5c-8.23333,-0.63333 -14.45,-2.58333 -18.65,-5.85c-3.23333,-2.53333 -4.85,-5.38333 -4.85,-8.55c0,-7.13333 5,-12.53333 15,-16.2c3.56667,-1.33333 8.96667,-2.85 16.2,-4.55c5.91523,-1.42331 10.5819,-2.55664 14,-3.4c-1.17734,-0.64466 -2.22734,-1.34466 -3.15,-2.1c-3.53333,-2.86667 -5.3,-6.86667 -5.3,-12c0,-2.3 0.26667,-4.05 0.8,-5.25c0.93333,-2.1 2.83333,-3.86667 5.7,-5.3c5.0401,-2.53099 13.3901,-4.24766 25.05,-5.15c-0.03333,-0.43008 -0.05,-0.98008 -0.05,-1.65c0,-1.06667 0.7,-2.7 2.1,-4.9c0.16667,-0.26823 0.33333,-0.51823 0.5,-0.75c-4.73333,-4.15404 -7.1,-8.7707 -7.1,-13.85c0,-4.60456 1.45,-8.15456 4.35,-10.65c-4.85169,-1.75872 -9.71836,-5.50872 -14.6,-11.25c-0.76354,-0.89661 -1.53021,-1.84661 -2.3,-2.85c-1.43516,-1.86901 -2.78516,-3.78568 -4.05,-5.75c-3.23594,-0.05742 -6.36927,-0.45742 -9.4,-1.2c-7.82187,-1.8474 -14.83854,-5.9474 -21.05,-12.3c-3.1,-3.2 -5.65,-6.61667 -7.65,-10.25c-0.25221,-0.45013 -0.48555,-0.88346 -0.7,-1.3c-7.27891,-3.24635 -13.14557,-8.06302 -17.6,-14.45c-4.45299,-6.37331 -7.05299,-13.00664 -7.8,-19.9c-0.13333,-1.35221 -0.2,-2.71888 -0.2,-4.1c0,-17.36289 9.2,-28.71289 27.6,-34.05c-1.48841,-0.48737 -3.10508,-1.03737 -4.85,-1.65c-9.16667,-3.23333 -13.75,-5.08333 -13.75,-5.55c0,-3.03333 2.13333,-7.68333 6.4,-13.95c0.41901,-0.56758 0.81901,-1.11758 1.2,-1.65c-2.93177,-3.74922 -7.39844,-9.79922 -13.4,-18.15c-6.92695,-9.6694 -13.79362,-19.4194 -20.6,-29.25c-0.24661,-0.37526 -0.51328,-0.75859 -0.8,-1.15c-13.41484,-12.40612 -22.93151,-21.18945 -28.55,-26.35c-5.68568,-2.43958 -11.45234,-5.48958 -17.3,-9.15c-2.20143,-1.38385 -4.35143,-2.81719 -6.45,-4.3c-4.50312,-3.18971 -8.71979,-6.58971 -12.65,-10.2c-5.23333,-4.86667 -9.1,-9.31667 -11.6,-13.35c-5.56667,-9.06667 -9.43333,-18.33333 -11.6,-27.8c-1.76667,-7.6 -2.65,-16.7 -2.65,-27.3c0,-12.2 0.7,-22.31667 2.1,-30.35c0.08151,-0.46576 0.16484,-0.93242 0.25,-1.4c2.04792,-10.82995 5.59792,-20.12995 10.65,-27.9c7.9,-12.1 16.96667,-22.01667 27.2,-29.75c14.06667,-10.63333 31.58333,-18.46667 52.55,-23.5c11.63333,-2.8 21.66667,-3.66667 30.1,-2.6c1.75443,0.2168 3.58776,0.53346 5.5,0.95c-0.76094,2.15052 -1.46094,4.08385 -2.1,5.8c-1.5362,-0.18477 -3.0862,-0.30143 -4.65,-0.35c-1.81901,-0.02122 -3.28568,-0.03789 -4.4,-0.05c0.09583,-0.0556 0.17917,-0.1056 0.25,-0.15c-45.00378,5.31615 -76.52044,20.96615 -94.55,46.95c-4.65391,6.68672 -8.37057,14.03672 -11.15,22.05c-4.16667,11.98333 -6.25,25.45 -6.25,40.4c0,2.69779 0.08333,5.34779 0.25,7.95c1.75352,24.96029 11.83685,45.56029 30.25,61.8c1.49388,1.32018 3.01055,2.58685 4.55,3.8c4.68477,3.63333 9.65143,6.8 14.9,9.5c2.42891,1.23424 4.91224,2.36758 7.45,3.4c0.61615,0.25794 1.23281,0.50794 1.85,0.75c1.88099,1.83906 5.08099,4.85573 9.6,9.05c7.10091,2 14.06758,3 20.9,3c4.78307,0 9.54974,-0.25 14.3,-0.75c0.77344,-0.07904 1.5401,-0.16237 2.3,-0.25c0.8737,-0.11016 1.74036,-0.22682 2.6,-0.35c2.58255,2.00534 6.84922,4.40534 12.8,7.2c4.4888,2.08737 8.17214,3.58737 11.05,4.5c0.75195,0.25495 1.43529,0.45495 2.05,0.6c-0.05651,0.08841 -0.12318,0.17174 -0.2,0.25c-1.20716,1.19688 -2.34049,2.43021 -3.4,3.7c-6.37279,7.7181 -9.92279,16.83477 -10.65,27.35c0.01914,0.04505 0.01914,0.07839 0,0.1c-0.15065,-0.13802 -0.31732,-0.28802 -0.5,-0.45c-1.01784,-0.94193 -2.08451,-1.90859 -3.2,-2.9c-3.13828,-2.81549 -6.60495,-5.81549 -10.4,-9c-1.85273,-1.56771 -4.0694,-3.43438 -6.65,-5.6c2.75612,5.22422 5.93945,10.64089 9.55,16.25c5.08281,4.19128 8.79948,6.89128 11.15,8.1c0.18841,4.28385 0.85508,8.43385 2,12.45c0.09661,0.22878 0.16328,0.41211 0.2,0.55c0.55924,-0.1957 2.37591,-1.46237 5.45,-3.8c-0.1388,-0.08099 -0.32214,-0.18099 -0.55,-0.3c-1.1,-3.79544 -1.65,-7.59544 -1.65,-11.4c0,-0.33151 0,-0.66484 0,-1c0.21849,-12.73516 4.56849,-23.01849 13.05,-30.85c0.59427,-0.55091 1.19427,-1.08424 1.8,-1.6c0.21914,-0.16862 0.41914,-0.33529 0.6,-0.5c7.32279,-5.86107 16.08945,-9.06107 26.3,-9.6c0.89557,-0.04779 1.77891,-0.08112 2.65,-0.1c10.09648,-0.0444 18.77982,2.7556 26.05,8.4c3.30221,2.58099 5.96888,5.53099 8,8.85c1.66172,-1.13529 2.99505,-2.03529 4,-2.7c-2.15898,-3.74974 -4.82565,-7.08307 -8,-10c-5.15195,-4.73906 -11.05195,-7.93906 -17.7,-9.6c-1.8776,-0.4638 -3.8276,-0.8138 -5.85,-1.05c0.56667,-1.09492 0.85,-2.01159 0.85,-2.75c0,-0.9 -0.36667,-2.8 -1.1,-5.7c-0.7,-2.7 -1.16667,-4.3 -1.4,-4.8c0.4,2 -0.45,4.96667 -2.55,8.9c-0.88633,1.69102 -1.76966,3.05768 -2.65,4.1c-0.71029,0.02018 -1.42695,0.05352 -2.15,0.1c-11.26654,0.70977 -21.09987,4.50977 -29.5,11.4c-2.24779,-0.90534 -4.93112,-2.00534 -8.05,-3.3c3.40169,-0.36289 6.11836,-1.07956 8.15,-2.15c3,-1.56667 6.08333,-4.75 9.25,-9.55c-0.1,0 -0.25,-0.08333 -0.45,-0.25c-0.23333,-0.16667 -0.58333,-0.25 -1.05,-0.25c-0.76667,0 -3.81667,1.16667 -9.15,3.5c-5.33333,2.33333 -10.45,3.5 -15.35,3.5c-0.96667,0 -2.08333,-0.26667 -3.35,-0.8c-0.87865,-0.35143 -1.49531,-0.7181 -1.85,-1.1c4.57734,-0.8987 9.14401,-2.03203 13.7,-3.4c14.3599,-4.28893 27.1599,-10.47227 38.4,-18.55c-0.4388,2.08568 -2.35547,4.53568 -5.75,7.35c-4.06667,3.36667 -6.28333,6.2 -6.65,8.5c0.66667,0.66667 1.66667,1 3,1c3.73333,0 6.73333,-2.16667 9,-6.5c1.66667,-3.16667 2.5,-6 2.5,-8.5c0,-1.12031 -0.16667,-2.13698 -0.5,-3.05c0.01693,0.01224 0.03359,0.01224 0.05,0c2.29766,-1.7138 4.49766,-3.49714 6.6,-5.35c0.31602,0.10156 0.63268,0.1849 0.95,0.25c-1.23151,-0.35716 -2.69818,-0.70716 -4.4,-1.05c-1.12357,-0.23437 -2.19023,-0.43437 -3.2,-0.6c3.71107,-3.18737 7.21107,-6.6707 10.5,-10.45c1.16315,-1.34102 2.27982,-2.70768 3.35,-4.1c-5.61615,5.69232 -11.49948,10.40898 -17.65,14.15c-11.92721,7.3 -24.82721,10.95 -38.7,10.95c-4.80456,0 -8.95456,-0.2 -12.45,-0.6c-1.32826,0.06667 -2.67826,0.1 -4.05,0.1c-3.21172,0 -6.44505,-0.23333 -9.7,-0.7c-0.42187,0.52617 -0.87187,1.05951 -1.35,1.6c-5.36667,6.06667 -9.35,9.93333 -11.95,11.6c-1.83333,-1.63333 -2.75,-2.66667 -2.75,-3.1c0,-1.80534 2.53333,-5.72201 7.6,-11.75c-4.27109,-1.05846 -8.57109,-2.50846 -12.9,-4.35c-0.25482,-0.10846 -0.52148,-0.22513 -0.8,-0.35c-0.66055,0.71393 -1.39388,1.46393 -2.2,2.25c-4.96667,4.8 -8.28333,7.65 -9.95,8.55l-3.25,-0.75c0,-0.1 -0.08333,-0.25 -0.25,-0.45c-0.16667,-0.23333 -0.25,-0.83333 -0.25,-1.8c0,-0.16888 0.58333,-1.03555 1.75,-2.6c0.47383,-0.59883 1.02383,-1.29883 1.65,-2.1c1.89141,-2.39414 3.70807,-4.56081 5.45,-6.5c-6.49427,-3.44115 -12.69427,-7.62448 -18.6,-12.55c-1.56576,-1.31172 -3.06576,-2.64505 -4.5,-4c-2.92122,-2.70729 -5.58789,-5.49063 -8,-8.35c-2.15599,-2.56081 -4.10599,-5.17747 -5.85,-7.85c-1.0987,-1.68789 -2.06536,-3.32122 -2.9,-4.9c-1.4375,-0.59557 -2.8875,-3.72891 -4.35,-9.4c-0.83333,-3.2 -1.5,-6.41667 -2,-9.65c0,-0.44323 0.01667,-0.84323 0.05,-1.2c-0.30039,-1.58411 0.14961,-4.28411 1.35,-8.1c1.6224,-5.15885 5.95573,-6.75885 13,-4.8c7.07357,1.95573 14.72357,6.28906 22.95,13c2.78997,2.57292 6.25664,5.27292 10.4,8.1c-2.57318,-6.3401 -5.03984,-12.5401 -7.4,-18.6c0,-5.76667 1.7,-6.05 5.1,-0.85c2.8,4.33333 5.01667,8.95 6.65,13.85c1.04961,2.35677 2.08294,4.75677 3.1,7.2c0.62148,1.40169 1.22148,2.81836 1.8,4.25c2.59284,1.52174 5.34284,3.07174 8.25,4.65c-1.55391,-3.91458 -3.02057,-7.86458 -4.4,-11.85c-0.06979,-0.23099 -0.15313,-0.46432 -0.25,-0.7c-0.07604,-0.26484 -0.15937,-0.53151 -0.25,-0.8c0,-5.26667 1.36667,-6.05 4.1,-2.35c0.1332,0.17826 0.26654,0.36159 0.4,0.55c2.17487,3.06263 4.07487,7.0293 5.7,11.9c0.01641,0.04883 0.03307,0.09883 0.05,0.15c0.80221,1.83346 2.03555,4.4168 3.7,7.75c5.79844,2.74961 11.44844,4.88294 16.95,6.4c6.90156,1.92708 13.56823,2.87708 20,2.85c12.89727,-0.00143 25.11393,-3.6181 36.65,-10.85c8.43359,-5.29961 14.25026,-10.01628 17.45,-14.15c3.22969,-4.09961 6.49635,-9.53294 9.8,-16.3c3.30924,-6.73672 5.35924,-11.48672 6.15,-14.25c0.03333,-0.76471 0.05,-1.53138 0.05,-2.3c0,-1.24453 -0.08333,-2.59453 -0.25,-4.05c-0.25039,-2.49714 -0.75039,-5.29714 -1.5,-8.4c1.39596,-1.17578 3.09596,-2.59245 5.1,-4.25M688.9,297.05c13.1,5.9 22.38333,8.58333 27.85,8.05c-0.5,-2.4 -1.13333,-6.03333 -1.9,-10.9c-0.01979,-0.11953 -0.03646,-0.2362 -0.05,-0.35c-13.36484,-2.12682 -21.13151,-3.29349 -23.3,-3.5c-0.84987,-0.08698 -1.69987,-0.18698 -2.55,-0.3c-7.50078,-0.77578 -14.61745,-1.65911 -21.35,-2.65c1.62591,0.68372 3.34258,1.43372 5.15,2.25c2.40977,1.09128 5.67643,2.57461 9.8,4.45c1.9332,0.90664 4.04987,1.88997 6.35,2.95M678.6,315.45c4.58138,3.50195 8.24805,6.45195 11,8.85c2.00807,1.74557 3.54141,3.19557 4.6,4.35c5.45078,0.66927 11.20078,2.28594 17.25,4.85c4.03333,1.7 7.58333,3.4 10.65,5.1c0.26667,0 2.45,-1.23333 6.55,-3.7c1.69128,-0.94805 3.37461,-1.84805 5.05,-2.7c-0.07812,-0.0319 -0.16146,-0.0819 -0.25,-0.15c-0.27747,-0.13203 -0.56081,-0.28203 -0.85,-0.45c-2.29167,-1.41081 -4.475,-3.49414 -6.55,-6.25c-1.46667,-1.93333 -2.71667,-4 -3.75,-6.2c-0.38763,-0.80508 -0.68763,-1.48841 -0.9,-2.05c-4.72852,-0.37161 -9.26185,-0.75495 -13.6,-1.15c-8.11576,-0.69492 -15.54909,-1.41159 -22.3,-2.15c-3.96966,-0.42396 -7.55299,-0.84062 -10.75,-1.25c1.32721,0.98633 2.61055,1.95299 3.85,2.9M655,326.85c-0.93333,-0.6 -3.33333,-1.68333 -7.2,-3.25c-4.5,-1.83333 -8.36667,-2.9 -11.6,-3.2c-2.63333,-0.23333 -3.95,0 -3.95,0.7v0c-11.87539,0.52943 -20.99206,6.24609 -27.35,17.15c-2.4,4.06667 -4.23333,8.61667 -5.5,13.65c-1,3.9 -1.5,7.26667 -1.5,10.1c0,5.8 1.5,11.25 4.5,16.35c3.13411,5.3418 7.53411,9.0918 13.2,11.25c3.95091,1.53333 8.50091,2.3 13.65,2.3c9.13333,0 17.73333,-3.58333 25.8,-10.75c9.13333,-8.1 13.7,-18.11667 13.7,-30.05c0,-4.71914 -0.9,-8.85247 -2.7,-12.4c-0.75911,-1.46198 -1.67578,-2.82865 -2.75,-4.1c-0.93333,-1.03333 -2.25,-2.35 -3.95,-3.95c-1.83333,-1.76667 -3.28333,-3.03333 -4.35,-3.8M796.25,295.25c0,-5.2 -2.11667,-10.21667 -6.35,-15.05c-5.63333,-6.4 -13.61667,-9.71667 -23.95,-9.95c-11.13333,-0.23333 -19.68333,3.01667 -25.65,9.75c-4.33333,4.93333 -6.5,10.08333 -6.5,15.45c0,4.17435 0.95,7.95768 2.85,11.35c1.5388,2.77682 3.70547,5.29349 6.5,7.55c6.33333,5.16667 14.41667,7.75 24.25,7.75c10.53333,0 18.41667,-3.81667 23.65,-11.45c1.77604,-2.61289 3.09271,-5.24622 3.95,-7.9c0.83333,-2.48034 1.25,-4.98034 1.25,-7.5M860.95,506.1c-0.44896,-0.13854 -0.88229,-0.27188 -1.3,-0.4c0.80312,0.50091 1.58646,1.03424 2.35,1.6c0.28464,0.21068 0.56797,0.42734 0.85,0.65c2.06667,1.63333 3.58333,3.21667 4.55,4.75c2.2,3.5 3.8,6.93333 4.8,10.3c0.50781,1.66341 0.87448,3.36341 1.1,5.1c0.93971,0.53333 1.85638,1.11667 2.75,1.75c1.65208,1.16094 3.11875,2.4276 4.4,3.8c0.03333,-0.51445 0.05,-0.99779 0.05,-1.45c0,-3.43333 -0.91667,-7.06667 -2.75,-10.9c-2,-4.23333 -4.76667,-7.88333 -8.3,-10.95c-1.32305,-1.14102 -2.70638,-2.15768 -4.15,-3.05c-0.60781,-0.11237 -1.65781,-0.3957 -3.15,-0.85c-0.37708,-0.10273 -0.77708,-0.2194 -1.2,-0.35M844.75,507.6c3.33333,1.43333 5.88333,3.43333 7.65,6c2.63333,3.76667 4.21667,6.36667 4.75,7.8c0.22708,0.6625 0.39375,1.64583 0.5,2.95c0.97865,-0.02344 1.94531,-0.00677 2.9,0.05c3.44232,0.17148 6.72565,0.92148 9.85,2.25c-0.80573,-4.53893 -2.55573,-8.58893 -5.25,-12.15c-1.08372,-1.43672 -2.30039,-2.73672 -3.65,-3.9c-2.70286,-2.37253 -5.9362,-4.20586 -9.7,-5.5c-2.40742,0.40951 -4.75742,1.24284 -7.05,2.5M845.4,503.55c-1.51237,-0.25195 -3.0957,-0.43529 -4.75,-0.55c-0.58789,0.09557 -1.18789,0.19557 -1.8,0.3l-1.25,1.1c-0.8,0.63333 -1.41667,0.95 -1.85,0.95c-0.63698,0 -1.50365,-0.1 -2.6,-0.3c-0.32513,0.16953 -0.65846,0.3362 -1,0.5c-0.53763,-0.14232 -1.07096,-0.27565 -1.6,-0.4c-2.20391,-0.5875 -4.12057,-1.07083 -5.75,-1.45c-3.38646,1.89141 -6.55312,4.19141 -9.5,6.9c-0.19141,0.20013 -0.39141,0.40013 -0.6,0.6c-5.14688,4.93242 -8.79687,10.53242 -10.95,16.8c-0.84818,-0.32487 -1.78151,-0.64154 -2.8,-0.95c1.37161,0.71523 4.18828,1.39857 8.45,2.05c0.1694,0.02669 0.33607,0.04336 0.5,0.05c-0.25911,0.63594 -0.50911,1.2526 -0.75,1.85c0.2207,0.20313 0.4207,0.40313 0.6,0.6c-0.83333,1.33333 -1.31667,2.08333 -1.45,2.25c-0.02891,0.03333 -0.06224,0.06667 -0.1,0.1c-0.51094,1.87747 -0.86094,3.74414 -1.05,5.6c0.42331,-0.90638 1.37331,-1.80638 2.85,-2.7c0.03971,-4.12474 0.80638,-7.90807 2.3,-11.35c0.80078,-1.84687 1.78411,-3.48021 2.95,-4.9c0.40807,-0.4763 0.84141,-0.94297 1.3,-1.4c-0.03333,-0.28945 -0.05,-0.57279 -0.05,-0.85c0,-0.09049 0,-0.17383 0,-0.25c0.89961,-1.14622 1.83294,-2.24622 2.8,-3.3c0.09102,0.04141 0.17435,0.07474 0.25,0.1c0.23333,0.16667 0.35,0.51667 0.35,1.05c0,0.29857 -0.08333,0.5819 -0.25,0.85c0.80039,-0.44701 1.63372,-0.84701 2.5,-1.2c4.05781,-1.66276 7.60781,-1.99609 10.65,-1c0.65404,-0.9582 1.18737,-1.67487 1.6,-2.15c1.05937,-1.14883 2.32604,-2.34883 3.8,-3.6c-0.81159,-0.1 -1.66159,-0.15 -2.55,-0.15c-2.63333,0 -4.63333,0.23333 -6,0.7c-1.03333,0.5 -1.83333,0.81667 -2.4,0.95c-0.66667,-0.46667 -1.08333,-0.75 -1.25,-0.85c-0.10391,-0.07422 -0.18724,-0.15755 -0.25,-0.25c1.67083,-1.15586 3.42083,-2.20586 5.25,-3.15c0.3388,-0.04922 0.6888,-0.09922 1.05,-0.15c3.28437,-0.47604 6.38438,-0.34271 9.3,0.4c1.05352,-0.77044 2.18685,-1.57044 3.4,-2.4c0.20612,-0.1431 0.42279,-0.27643 0.65,-0.4M838.3,518.55c1.98542,2.41901 3.28542,5.03568 3.9,7.85c3.12604,-0.55625 6.64271,-1.03958 10.55,-1.45c0.48919,-0.09036 0.97253,-0.1737 1.45,-0.25c-0.51615,-2.12318 -1.33281,-4.23984 -2.45,-6.35c-2.40872,-4.51328 -5.77539,-7.44661 -10.1,-8.8c-2.21823,1.63906 -4.3849,3.68906 -6.5,6.15c1.13398,0.7293 2.18398,1.6793 3.15,2.85M833.15,518.15c-3.81875,4.9569 -6.43542,9.67357 -7.85,14.15c1.88841,-1.42812 4.37174,-2.64479 7.45,-3.65c1.85911,-0.61107 4.00911,-1.17773 6.45,-1.7c-0.1207,-0.32839 -0.25404,-0.67839 -0.4,-1.05c-0.9,-2.23333 -2.01667,-4.11667 -3.35,-5.65c-0.73451,-0.84401 -1.50117,-1.54401 -2.3,-2.1M828.45,521.5c1.02422,-1.70312 1.94089,-3.18646 2.75,-4.45c-2.75573,-1.05638 -5.7724,-0.50638 -9.05,1.65c-0.96536,0.61432 -1.86536,1.24766 -2.7,1.9c0.4362,1.25807 1.1362,2.84141 2.1,4.75c0.11211,0.22422 0.94544,1.75755 2.5,4.6c0.6487,-1.77799 2.11536,-4.59466 4.4,-8.45M823.65,532.3c-2.12982,-0.31849 -3.92982,-2.46849 -5.4,-6.45c-0.40768,-1.10651 -0.74102,-2.13984 -1,-3.1c-0.65794,0.74544 -1.24128,1.51211 -1.75,2.3c-0.62552,0.95664 -1.14219,1.95664 -1.55,3c-0.80859,2.03555 -1.27526,4.55221 -1.4,7.55c0.06237,-0.03633 0.12904,-0.06966 0.2,-0.1c1.81771,-0.77253 3.60104,-1.33919 5.35,-1.7c1.74935,-0.32253 3.46602,-0.45586 5.15,-0.4v-0.15h0.55c-0.05742,-0.2724 -0.10742,-0.58906 -0.15,-0.95M842.65,530.4c0,4.4 -1.16667,8.63333 -3.5,12.7c-0.62305,1.08464 -1.30638,2.06797 -2.05,2.95c2.58112,1.84466 5.24779,3.31133 8,4.4c1.40573,0.57331 2.8224,1.03997 4.25,1.4c0.25365,-0.40794 0.48698,-0.84128 0.7,-1.3c0.39648,-0.69609 0.76315,-1.42943 1.1,-2.2c2.5,-5.73333 3.75,-11.73333 3.75,-18c0,-0.83581 -0.05,-1.66914 -0.15,-2.5c-2.5138,0.28281 -6.54714,0.98281 -12.1,2.1c0,0.15625 0,0.30625 0,0.45M819.4,536.25c-0.56667,0.16667 -2.2,0.61667 -4.9,1.35c-0.12995,0.02604 -0.76328,0.47604 -1.9,1.35c0.19805,1.82174 0.74805,3.62174 1.65,5.4c0.40716,0.80638 0.85716,1.50638 1.35,2.1c0.22487,-0.80573 0.49154,-1.53906 0.8,-2.2c1.36667,-3 2.38333,-4.98333 3.05,-5.95c0.25508,-0.36172 0.50508,-0.71172 0.75,-1.05c0.77227,-0.86758 1.57227,-1.56758 2.4,-2.1c-0.87057,0.34753 -1.90391,0.69753 -3.1,1.05c-0.03021,0.02227 -0.06354,0.03893 -0.1,0.05M821.25,541.95c-1.72682,2.87812 -2.86016,5.02813 -3.4,6.45c1.24648,0.73333 2.67982,1.1 4.3,1.1c1.59492,0 3.07826,-0.16667 4.45,-0.5c-0.86471,-2.22878 -1.66471,-4.66211 -2.4,-7.3c-0.2763,-1.05326 -0.54297,-2.13659 -0.8,-3.25c-0.3,0.46172 -0.61667,0.96172 -0.95,1.5c-0.37865,0.61706 -0.77865,1.28372 -1.2,2M807,542.6c0,1.85768 0.18333,3.69102 0.55,5.5c-2.34375,0.42487 -4.16042,0.77487 -5.45,1.05c0.83711,4.3806 2.47044,8.61393 4.9,12.7c5.58802,9.36211 14.42135,14.61211 26.5,15.75c0,0.15833 0,0.325 0,0.5c0,0.11367 0.13333,0.29701 0.4,0.55c0.0099,-0.0431 0.0099,-0.0931 0,-0.15l0.8,-3.45c0.11159,-0.42292 0.21159,-0.87292 0.3,-1.35c0.10221,-0.31823 0.18555,-0.65156 0.25,-1c0.09141,-0.31172 0.17474,-0.62839 0.25,-0.95v-0.05c1.16862,0.1 2.36862,0.15 3.6,0.15c2.28151,0 4.46484,-0.13333 6.55,-0.4c1.34987,-0.41914 2.64987,-0.96914 3.9,-1.65c-4.10729,-0.76055 -7.75729,-2.22721 -10.95,-4.4c-2.76667,1.06667 -5.8,1.6 -9.1,1.6c-3.93021,0 -7.36354,-0.66667 -10.3,-2c0.17253,0.62539 0.35586,1.19206 0.55,1.7c-1.58932,-1.04167 -3.05599,-2.25833 -4.4,-3.65c0.00768,-0.13177 0.00768,-0.2651 0,-0.4c-0.48893,-0.38138 -0.9556,-0.79805 -1.4,-1.25c-0.59909,-0.72253 -1.16576,-1.48919 -1.7,-2.3c-1.64427,-2.47409 -2.91094,-5.00742 -3.8,-7.6c0.00807,-0.02604 0.00807,-0.05937 0,-0.1c-0.20117,-0.85964 -0.26784,-1.49297 -0.2,-1.9l0.5,-0.4c0.03333,0.03333 0.35,0.85 0.95,2.45c0.8,1.9 1.8,3.63333 3,5.2c0.7668,1.01784 1.5668,1.93451 2.4,2.75c-0.13333,-2.28789 -0.2,-3.45456 -0.2,-3.5c0,-2.73529 0.05,-4.70195 0.15,-5.9c-1.46458,-1.19049 -2.63125,-2.85716 -3.5,-5c-0.55794,-1.3112 -0.97461,-2.7612 -1.25,-4.35c-1.02435,0.83333 -1.62435,1.25 -1.8,1.25c-0.53333,0 -0.86667,-0.03333 -1,-0.1l-0.1,-0.15c-0.16667,-0.1 -0.28333,-0.18333 -0.35,-0.25l-0.05,-0.05c0,0.39128 0,0.77461 0,1.15M817.5,551.6c0.08268,3.13203 0.34935,6.1487 0.8,9.05c0.07344,0.47747 0.1401,0.92747 0.2,1.35c2.6069,1.5 5.52357,2.25 8.75,2.25c3.04766,0 5.84766,-0.38333 8.4,-1.15c-0.87253,-0.80456 -1.70586,-1.67122 -2.5,-2.6c-1.9862,-2.35573 -3.76953,-5.23906 -5.35,-8.65c-1.70195,0.43333 -3.55195,0.65 -5.55,0.65c-1.76224,0 -3.34557,-0.3 -4.75,-0.9M837.2,540.55c1.76602,-3.40117 2.66602,-6.73451 2.7,-10c-7.86667,1.6487 -12.53333,2.81536 -14,3.5l0.25,0.7c-0.01354,0.01211 -0.03021,0.01211 -0.05,0c1.75911,3.12695 4.62578,6.29362 8.6,9.5c0.94023,-1.06849 1.77357,-2.30182 2.5,-3.7M825.8,534c-0.12096,-0.12422 -0.23763,-0.29089 -0.35,-0.5c0.07695,0.17969 0.16029,0.34635 0.25,0.5c0.02995,0.00456 0.06328,0.00456 0.1,0M824.45,536.85c0.12643,0.76953 0.27643,1.56953 0.45,2.4c0.29115,1.33073 0.62448,2.61406 1,3.85c0.58203,1.95026 1.26536,3.80026 2.05,5.55c1.36706,-0.41745 2.61706,-1.01745 3.75,-1.8c0.38789,-0.23008 0.75456,-0.49674 1.1,-0.8c-4.09622,-3.33698 -6.82956,-6.47031 -8.2,-9.4c-0.05182,0.06393 -0.10182,0.1306 -0.15,0.2M834.9,548.25c-1.62982,1.41758 -3.49648,2.46758 -5.6,3.15c2.44154,4.51406 5.47487,8.06406 9.1,10.65c3.69479,-1.61693 6.81146,-4.16693 9.35,-7.65c-3.94219,-1.19961 -7.75885,-3.08294 -11.45,-5.65c-0.34518,-0.23893 -0.69518,-0.48893 -1.05,-0.75c-0.10638,0.08971 -0.22305,0.17305 -0.35,0.25M879.85,509.75c3.16667,-0.4 6.13333,0.3 8.9,2.1c0.96667,0.66667 2.06667,1.9 3.3,3.7c0.41133,0.58763 0.91133,1.3543 1.5,2.3c2.70299,-1.23555 6.40299,-2.41888 11.1,-3.55c0.32044,-0.06146 0.63711,-0.12812 0.95,-0.2c0.53893,-0.12708 1.0556,-0.26042 1.55,-0.4c5.66849,-1.51263 9.61849,-3.6293 11.85,-6.35c2.03333,-2.5 3.76667,-5.28333 5.2,-8.35c1.53333,-3.26667 2.3,-5.98333 2.3,-8.15c0,-2.36667 -0.1,-3.85 -0.3,-4.45c-0.56667,-1.6 -2.13333,-3.28333 -4.7,-5.05c-2.33333,0.66667 -5.78333,2.45 -10.35,5.35c-3.87604,2.59154 -7.14271,4.77487 -9.8,6.55c-0.30742,0.20313 -0.60742,0.40313 -0.9,0.6c-0.91302,0.60026 -1.74635,1.15026 -2.5,1.65c-9.16901,6.07005 -16.35234,9.80339 -21.55,11.2c1.0349,0.99479 1.9849,2.04479 2.85,3.15c0.19258,-0.03737 0.39258,-0.0707 0.6,-0.1M870.8,530.45c-2.93516,-1.39297 -6.35182,-2.25964 -10.25,-2.6c-0.89922,-0.07943 -1.83255,-0.12943 -2.8,-0.15c0,0.10221 0,0.20221 0,0.3c0,8.64596 -1.45,16.09596 -4.35,22.35c-0.33542,0.74154 -0.70208,1.4582 -1.1,2.15c2.00378,0.33333 4.03711,0.5 6.1,0.5c2.24258,0 4.49258,-0.2 6.75,-0.6c0.08047,-0.10964 0.14714,-0.2263 0.2,-0.35c0.90924,-1.81901 1.72591,-3.71901 2.45,-5.7c0.43216,-1.13594 0.83216,-2.3026 1.2,-3.5c1.26667,-4.23333 1.9,-7.61667 1.9,-10.15c0,-0.75651 -0.03333,-1.50651 -0.1,-2.25M873.65,532.95c0,1.8 -0.5,4.63333 -1.5,8.5c-0.23477,0.92083 -0.48477,1.82083 -0.75,2.7c-0.77266,2.63646 -1.67266,5.15312 -2.7,7.55c1.41263,-0.34388 2.8293,-0.76055 4.25,-1.25c1.23268,-0.42734 2.34935,-0.86068 3.35,-1.3c1.27786,-2.80521 2.29453,-5.80521 3.05,-9c0.15508,-0.65417 0.28841,-1.2875 0.4,-1.9c-0.30404,-0.48242 -0.63737,-0.94909 -1,-1.4c-0.25339,-0.34674 -0.52005,-0.68008 -0.8,-1c-1.2651,-1.4625 -2.69844,-2.72917 -4.3,-3.8c0,0.30091 0,0.60091 0,0.9M850.7,555.25c-2.55807,3.90365 -5.59141,6.83698 -9.1,8.8c3.48555,1.8332 7.43555,2.9332 11.85,3.3c3.4168,-2.58034 6.5168,-6.09701 9.3,-10.55c0.19609,-0.3168 0.37943,-0.63346 0.55,-0.95c-1.51094,0.1 -3.11094,0.15 -4.8,0.15c-2.63659,0 -5.21992,-0.28333 -7.75,-0.85c-0.01875,0.0444 -0.03542,0.07773 -0.05,0.1M866.95,555.45c-0.01875,0.03828 -0.03542,0.07161 -0.05,0.1c-2.49531,4.90065 -5.34531,8.85065 -8.55,11.85c0.70508,-0.08073 1.38841,-0.23073 2.05,-0.45c0.32044,-0.15833 0.63711,-0.325 0.95,-0.5l5.95,-4.5l6.2,-7.55c0.11562,-0.18841 0.23229,-0.38841 0.35,-0.6c-1.88008,0.69792 -3.99674,1.23125 -6.35,1.6c-0.18034,0.02357 -0.36367,0.04023 -0.55,0.05M905.3,521.7c-0.99714,0.1 -2.0138,0.15 -3.05,0.15c-1.5,0 -3.55,-0.21667 -6.15,-0.65c-0.12852,-0.02188 -0.26185,-0.05521 -0.4,-0.1c1.68542,2.54844 2.71875,5.09844 3.1,7.65c0.13333,0.8 0.2,3.41667 0.2,7.85c0,5.86667 -1.06667,11.36667 -3.2,16.5c-0.4862,1.16185 -1.01953,2.24518 -1.6,3.25c0.40703,0.1069 0.84036,0.2569 1.3,0.45c0.40352,0.19427 0.82018,0.41094 1.25,0.65c0.80898,0.46862 1.67565,1.05195 2.6,1.75c0.44362,0.33893 0.86029,0.67227 1.25,1c4.43607,0.3401 9.4194,-3.02656 14.95,-10.1c2.46667,-3.16667 4.55,-6.5 6.25,-10c1.63333,-3.43333 2.45,-6.1 2.45,-8c0,-2 -2.75,-4.5 -8.25,-7.5c-2.57396,-1.40404 -4.55729,-2.68737 -5.95,-3.85c-0.76849,0.24596 -1.56849,0.44596 -2.4,0.6c-0.76276,0.14948 -1.54609,0.26615 -2.35,0.35M890.7,523.75c-1.84792,-3.88255 -4.48125,-6.56589 -7.9,-8.05c1.36484,2.9776 2.28151,6.26094 2.75,9.85c0.3,2.04076 0.45,4.17409 0.45,6.4c0,0.58464 -0.01667,1.16797 -0.05,1.75c-0.27669,8.16263 -2.59336,15.96263 -6.95,23.4c-0.92435,1.58503 -1.92435,3.06836 -3,4.45c6.23424,-0.27305 11.00091,-4.17305 14.3,-11.7c2.13333,-4.93333 3.2,-9.18333 3.2,-12.75c0,-0.45833 -0.01667,-0.90833 -0.05,-1.35c-0.08789,-3.10091 -0.55456,-5.96758 -1.4,-8.6c-0.36862,-1.17552 -0.81862,-2.30885 -1.35,-3.4M929.85,530.6c0.1,0.57409 0.15,1.15742 0.15,1.75c0,1.53333 -0.6,3.95 -1.8,7.25c-1.4,3.8 -3.13333,7.38333 -5.2,10.75c-4.20312,6.84232 -8.78646,11.17565 -13.75,13c3.30872,1.33333 7.64206,2 13,2c5.53333,0 9.6,-3.73333 12.2,-11.2c0.83333,-2.36667 1.46667,-4.98333 1.9,-7.85c0.26667,-1.8 0.4,-3.08333 0.4,-3.85c0,-4.5 -2.15,-8.36667 -6.45,-11.6c-0.15247,-0.08659 -0.30247,-0.16992 -0.45,-0.25M769.1,395.35c-1.53333,2.5 -2.15,6.45 -1.85,11.85c0.23333,4.83333 0.7,8 1.4,9.5c0.53333,1.13333 3.01667,4.86667 7.45,11.2l4.7,-0.6c1.73333,-4.73333 2.68333,-7.58333 2.85,-8.55c0.1,-0.53333 0.05,-2.75 -0.15,-6.65c-0.26667,-4.86667 -1.31667,-9.08333 -3.15,-12.65c-1.66667,-3.26667 -3.6,-5.3 -5.8,-6.1c-2.23333,-0.83333 -4.05,-0.16667 -5.45,2M729.1,421.45c-2.93333,-4.16667 -5.51667,-6.31667 -7.75,-6.45c-0.63333,1.5 -1.13333,3.28333 -1.5,5.35c-0.36667,1.96667 -0.51667,3.61667 -0.45,4.95c0.16667,3.1 1.08333,7.41667 2.75,12.95c1.96667,6.7 3.85,9.98333 5.65,9.85c2.63333,-0.2 4.31667,-3.31667 5.05,-9.35c0.2,-6 0.3,-9.03333 0.3,-9.1c-0.1,-1.66667 -1.45,-4.4 -4.05,-8.2M749.6,446.8c-2.6,-3.16667 -4.85,-6.7 -6.75,-10.6c-0.86667,5.9 -2.11667,11.4 -3.75,16.5c-0.76393,2.40807 -1.59727,4.67474 -2.5,6.8c-6.31016,14.94115 -15.94349,22.90781 -28.9,23.9c-11.3,0.83333 -20.56667,-2.13333 -27.8,-8.9c-1.06667,-1.01966 -2.05,-2.08633 -2.95,-3.2c-0.64232,-0.80547 -1.24232,-1.6388 -1.8,-2.5c-0.02513,-0.02839 -0.05846,-0.06172 -0.1,-0.1c-0.06706,-0.13398 -0.15039,-0.26732 -0.25,-0.4c-0.18086,-0.31133 -0.36419,-0.62799 -0.55,-0.95c-0.34622,0.46354 -0.71289,0.91354 -1.1,1.35c-0.36289,0.45651 -0.74622,0.90651 -1.15,1.35c-3.80221,4.09245 -8.71888,7.30911 -14.75,9.65c-0.06667,0.13333 -0.11667,0.26667 -0.15,0.4c-1.23333,3.06667 -1.9,5.81667 -2,8.25l0.05,0.5c2.36667,-0.53333 5.73333,-2.63333 10.1,-6.3c4.26667,-3.63333 6.63333,-5.46667 7.1,-5.5c1.5,-0.1 2.76667,0.73333 3.8,2.5c0.6,1.03333 1.5,2.96667 2.7,5.8c2.23333,4.56667 5.66667,7.11667 10.3,7.65l0.05,-0.05c0.3,-0.3 0.95,-0.48333 1.95,-0.55c0.03333,0 0.31667,0.23333 0.85,0.7c0.16667,0 0.33333,-0.01667 0.5,-0.05c12.46667,-0.93333 27.55,-3.95 45.25,-9.05c10.2,-2.9 20.76667,-6.38333 31.7,-10.45c2.4,-0.9 7.25,-3.6 14.55,-8.1c7.96667,-4.9 11.91667,-7.96667 11.85,-9.2c-0.0181,-0.59531 -0.10143,-1.16198 -0.25,-1.7c-0.11927,-0.43568 -0.28594,-0.85234 -0.5,-1.25c-0.16667,-0.36667 -0.58333,-0.95 -1.25,-1.75c-4.06667,5.2 -9.66667,8.06667 -16.8,8.6c-7.4862,0.57214 -14.30286,-1.54453 -20.45,-6.35c-2.43607,-1.90456 -4.7694,-4.23789 -7,-7M647.7,418.55c-2.96667,-0.96667 -5.26667,-1.45 -6.9,-1.45c-3.26667,-0.43333 -7.01667,-0.75 -11.25,-0.95c-8.4,-0.4 -15.5,0 -21.3,1.2c-3.33333,0.76667 -6.01667,1.65 -8.05,2.65c-1.43333,0.7 -3.41667,1.98333 -5.95,3.85c-2.66667,1.93333 -4.85,4.65 -6.55,8.15c-1.46667,3.1 -2.2,5.91667 -2.2,8.45c0,2.1 0.56667,4.51667 1.7,7.25c1.46667,3.5 3.6,6.68333 6.4,9.55c7.86667,7.9 19.56667,11.85 35.1,11.85c5.83333,0 11.51667,-0.41667 17.05,-1.25c6.36667,-0.96667 10.53333,-2.26667 12.5,-3.9c1.4,-1.16667 2.66667,-2.43333 3.8,-3.8c1.26667,-1.66667 2.33333,-3.01667 3.2,-4.05c1.43333,-1.73333 2.51667,-4.25 3.25,-7.55c0.56667,-2.63333 0.85,-5.33333 0.85,-8.1c0,-6.8 -4.03333,-12.63333 -12.1,-17.5c-2.96667,-1.8 -6.15,-3.26667 -9.55,-4.4M672.1,523.35c-7.3,0 -12.16667,1.35 -14.6,4.05c-1.23333,1.36667 -1.73333,2.8 -1.5,4.3c0,4.06198 2.98333,8.27865 8.95,12.65c-0.78333,2.01367 -1.51667,3.88034 -2.2,5.6c1.66966,1.05234 3.48633,2.03568 5.45,2.95c-2.32812,0.06875 -4.57812,0.15208 -6.75,0.25c-1.0625,2.67852 -1.97917,4.94518 -2.75,6.8c-4.6,0.5194 -8.13333,0.93607 -10.6,1.25c-12.73333,1.66667 -19.1,4.33333 -19.1,8c0,3.2 1.58333,6.08333 4.75,8.65c2.30378,1.85781 5.17044,3.19115 8.6,4c-1.73073,1.51341 -3.1974,2.83008 -4.4,3.95c5.70208,1.83984 13.13542,2.93984 22.3,3.3c-3.36667,4.1 -5.53333,6.98333 -6.5,8.65c-1.5,2.66667 -2.25,5.53333 -2.25,8.6c0,0.13333 0,0.83333 0,2.1c0.08346,1.225 0.38346,2.34167 0.9,3.35c1.30182,1.06055 3.18516,2.24388 5.65,3.55c4.13333,2.16667 7.36667,3.25 9.7,3.25c4.20234,0 8.56901,-1.35 13.1,-4.05c-0.88034,0.07474 -1.79701,0.14141 -2.75,0.2c0.10833,-0.06458 0.20833,-0.13125 0.3,-0.2c1.4,-1.06667 4.03333,-3.88333 7.9,-8.45c8.5,-10 20.15,-17.75 34.95,-23.25c9.93333,-3.7 19.48333,-8.6 28.65,-14.7c12.06667,-8.03333 18.1,-15.21667 18.1,-21.55c0,-4.26667 -2.73333,-7.63333 -8.2,-10.1c-5.23333,-2.36667 -10.41667,-2.91667 -15.55,-1.65c-3.2,-0.96667 -7.81667,0.53333 -13.85,4.5c-2.67826,1.76484 -4.74492,3.31484 -6.2,4.65c-5.06029,-5.44961 -11.21029,-10.33294 -18.45,-14.65c-0.26458,-0.15898 -0.53125,-0.32565 -0.8,-0.5c-1.30898,0.49102 -2.82565,1.00768 -4.55,1.55c-0.63581,0.19909 -1.26914,0.38242 -1.9,0.55c-1.17539,-0.62852 -2.27539,-1.19518 -3.3,-1.7c-2.70104,-1.35052 -5.38438,-2.46719 -8.05,-3.35c-4.05117,-1.3556 -8.06784,-2.17227 -12.05,-2.45c-0.99102,-0.06667 -1.99102,-0.1 -3,-0.1M796,531.3c1.77969,2.61367 3.61302,5.68034 5.5,9.2c0.10911,-2.37227 0.37578,-4.67227 0.8,-6.9c-1.21055,-0.33776 -2.42721,-0.73776 -3.65,-1.2c-0.93984,-0.34818 -1.82318,-0.71484 -2.65,-1.1M897,564.05c-0.8724,-1.21836 -1.68906,-2.41836 -2.45,-3.6c-0.34687,-0.4957 -0.68021,-0.9957 -1,-1.5c-0.15794,-0.25898 -0.32461,-0.52565 -0.5,-0.8c-2.43789,3.62122 -5.55456,6.07122 -9.35,7.35c-2.10469,0.73333 -4.42135,1.1 -6.95,1.1c-1.69779,0 -3.31445,-0.13333 -4.85,-0.4c-0.85846,0.84362 -1.75846,1.64362 -2.7,2.4c1.05951,1.26458 2.37617,2.96458 3.95,5.1c1.12904,1.50664 2.37904,3.22331 3.75,5.15c7.16667,8.66667 13.73333,13 19.7,13c3.86667,0 6.5,-1.56667 7.9,-4.7c0.66667,-1.5 1,-3.26667 1,-5.3c0,-3.86667 -1.4,-7.81667 -4.2,-11.85c-1.8,-2.5 -3.23333,-4.48333 -4.3,-5.95M865.15,571.4c-4.75443,2.86393 -10.25443,4.76393 -16.5,5.7c0.48164,0.10716 0.94831,0.20716 1.4,0.3c-1.5918,0.67148 -4.85846,1.90482 -9.8,3.7c1.61276,0.22201 3.34609,0.53867 5.2,0.95c4.01237,0.93372 8.6457,2.36706 13.9,4.3c8.94063,3.30247 14.27396,6.45247 16,9.45c3.13086,-0.46667 4.93086,-0.7 5.4,-0.7c-1.36367,-2.88216 -3.33034,-5.51549 -5.9,-7.9c0.07943,0.06055 0.14609,0.11055 0.2,0.15c-0.64245,-0.69714 -1.27578,-1.43047 -1.9,-2.2c-2.4125,-2.97643 -4.3625,-5.90977 -5.85,-8.8c-0.87552,-1.65951 -1.59219,-3.30951 -2.15,-4.95M588.3,330.65c0.60013,-1.22227 1.50013,-3.07227 2.7,-5.55h-2.75c-2.56667,-0.83333 -4.2,-1.33333 -4.9,-1.5c-1.5,-0.33333 -3.28333,-0.5 -5.35,-0.5c-4.23333,0 -6.68333,-0.1 -7.35,-0.3c-0.97773,-0.275 -3.8444,-1.475 -8.6,-3.6c2.75391,5.11589 5.83724,9.78255 9.25,14c0.29727,0.37201 0.59727,0.73867 0.9,1.1c4.46667,5.33333 8.31667,8.43333 11.55,9.3c0.66667,-3.3 1.91667,-7.01667 3.75,-11.15c0.09687,-0.23529 0.36354,-0.83529 0.8,-1.8M608.4,401.25c-6.77161,-3.49323 -12.08828,-8.9599 -15.95,-16.4c-0.0793,-0.15391 -0.16263,-0.30391 -0.25,-0.45l-0.2,0.95c-0.06667,0 -0.08333,0.13333 -0.05,0.4c-0.1,0.23333 -0.66667,0.35 -1.7,0.35c-0.06237,0 -0.16237,-0.05 -0.3,-0.15c-1.53542,2.78073 -3.26875,5.83073 -5.2,9.15c0.33333,0.5 0.75,0.91667 1.25,1.25c9.6,1.86667 15.98333,3.2 19.15,4c1.2194,0.31289 2.28607,0.62956 3.2,0.95c0.38841,0.15729 0.73841,0.30729 1.05,0.45c-0.32279,-0.16172 -0.65612,-0.32839 -1,-0.5z" fill="#000000"/><path d="M811.2,455.7c1.66667,3 2.68333,4.96667 3.05,5.9c-2.86667,0.66667 -5.4,1.31667 -7.6,1.95c-4.26667,1.3 -6.4,2.48333 -6.4,3.55c0,3.33333 1.33333,6.16667 4,8.5c1.74232,1.50573 3.74232,2.5224 6,3.05c-3.89701,2.15977 -8.31367,3.92643 -13.25,5.3c-0.84687,-0.87565 -1.64687,-1.77565 -2.4,-2.7c-2.09232,3.53698 -4.05898,6.82031 -5.9,9.85c-1.5487,2.60391 -3.01536,5.02057 -4.4,7.25c-1.98112,3.26393 -4.16445,6.24727 -6.55,8.95c-1.77526,2.0237 -3.65859,3.89036 -5.65,5.6c-6.27956,5.39297 -13.19622,8.79297 -20.75,10.2c-2.67005,0.5 -5.42005,0.75 -8.25,0.75c-10.83333,0 -18.71667,-1.03333 -23.65,-3.1c-3.13333,-2.1 -5.53333,-3.15 -7.2,-3.15c-1.1,0 -3.11667,1.05 -6.05,3.15c-2.0987,1.4957 -4.41536,2.4457 -6.95,2.85c-0.96849,0.16667 -1.96849,0.25 -3,0.25c-0.30247,0 -0.73581,-0.03333 -1.3,-0.1c-4.86029,-2.14089 -9.74362,-3.75755 -14.65,-4.85c-6.5569,-1.48789 -12.17357,-1.82122 -16.85,-1c-0.29661,1.01719 -2.61328,0.33385 -6.95,-2.05c-4.30391,-2.3582 -7.92057,-5.24154 -10.85,-8.65c-2.90065,-3.36784 -4.50065,-5.26784 -4.8,-5.7c-1.15482,-1.53997 -3.00482,-3.45664 -5.55,-5.75c-10.12109,-0.70417 -17.62109,-2.67083 -22.5,-5.9c-0.8543,-0.55534 -1.63763,-1.15534 -2.35,-1.8c-4.62383,-4.30586 -7.54049,-7.25586 -8.75,-8.85c1.22148,0.3651 2.45482,0.68177 3.7,0.95c5.12083,1.13333 10.7375,1.7 16.85,1.7c9.47891,0 17.56224,0.06667 24.25,0.2c-0.05508,0.18333 -0.13841,0.41667 -0.25,0.7c2.08424,-0.37187 4.06758,-0.82187 5.95,-1.35c-1.1,3.6 -1.61667,6.01667 -1.55,7.25c0,0.13333 0.06667,1.15 0.2,3.05c0.63333,1.76667 2.23333,2.55 4.8,2.35c3.5,-0.26667 7.03333,-1.66667 10.6,-4.2c1.9,-1.3 3.98333,-2.96667 6.25,-5c0.1,0.13333 0.43333,1 1,2.6c0.83333,1.93333 1.85,3.6 3.05,5c3.66667,4.4 8.86667,6.45 15.6,6.15c3.1,3.96667 7.61667,7.9 13.55,11.8c9.96667,6.56667 19.43333,9.51667 28.4,8.85c3.56667,-0.26667 8.48333,-4.3 14.75,-12.1c3.56667,-4.43333 6.63333,-8.76667 9.2,-13c2.33333,-3.9 6.38333,-8.56667 12.15,-14c0.83333,-0.8 1.78333,-1.66667 2.85,-2.6c1.46667,-0.63333 2.98333,-1.25 4.55,-1.85c7,-2.8 12.78333,-6.01667 17.35,-9.65c5.76667,-4.56667 7.68333,-8.63333 5.75,-12.2l8.95,-1c0.43971,0.83893 0.95638,1.78893 1.55,2.85M735.65,339.5c-1.93333,3.85052 -2.9,7.30052 -2.9,10.35c0,0.63333 0.1,1.56667 0.3,2.8c0.16523,0.87344 0.3319,1.62344 0.5,2.25c-3.54076,-3.57161 -6.37409,-6.35495 -8.5,-8.35c-0.39779,-0.36797 -0.79779,-0.73464 -1.2,-1.1c1.87526,-0.74336 5.80859,-2.72669 11.8,-5.95M777.05,460.15c7.13333,-0.53333 12.73333,-3.4 16.8,-8.6c0.66667,0.8 1.08333,1.38333 1.25,1.75c0.21406,0.39766 0.38073,0.81432 0.5,1.25c-5.68776,8.03333 -12.22109,12.05 -19.6,12.05c-5.96667,0 -11.71667,-1.16667 -17.25,-3.5c-6.9,-2.9 -11.06667,-6.9 -12.5,-12h-0.5c-1.13333,8.56667 -5.68333,17.13333 -13.65,25.7c-8.9,9.53333 -18.35,14.3 -28.35,14.3c-5.86667,0 -11.88333,-2.21667 -18.05,-6.65c-5.18424,-3.73372 -9.75091,-8.53372 -13.7,-14.4c0.40378,-0.44349 0.78711,-0.89349 1.15,-1.35c0.38711,-0.43646 0.75378,-0.88646 1.1,-1.35c0.18581,0.32201 0.36914,0.63867 0.55,0.95c0.09961,0.13268 0.18294,0.26602 0.25,0.4c0.04154,0.03828 0.07487,0.07161 0.1,0.1c0.55768,0.8612 1.15768,1.69453 1.8,2.5c0.9,1.11367 1.88333,2.18034 2.95,3.2c7.23333,6.76667 16.5,9.73333 27.8,8.9c12.95651,-0.99219 22.58984,-8.95885 28.9,-23.9c0.90273,-2.12526 1.73607,-4.39193 2.5,-6.8c1.63333,-5.1 2.88333,-10.6 3.75,-16.5c1.9,3.9 4.15,7.43333 6.75,10.6c2.2306,2.76211 4.56393,5.09544 7,7c6.14714,4.80547 12.9638,6.92214 20.45,6.35z" fill="#c7463f"/><path d="M691.6,334.4c0.64648,0.3 1.19648,0.45 1.65,0.45c0.55586,0 1.00586,-0.05 1.35,-0.15c5.70339,0.70638 11.53672,2.50638 17.5,5.4c3.93333,1.93333 7.48333,3.85 10.65,5.75c0.17148,0 0.53815,-0.13333 1.1,-0.4c0.40221,0.36536 0.80221,0.73203 1.2,1.1c2.12591,1.99505 4.95924,4.77839 8.5,8.35c-0.1681,-0.62656 -0.33477,-1.37656 -0.5,-2.25c-0.2,-1.23333 -0.3,-2.16667 -0.3,-2.8c0,-3.04948 0.96667,-6.49948 2.9,-10.35c0.57305,-0.28112 1.15638,-0.58112 1.75,-0.9c2.21641,-0.99805 4.39974,-1.89805 6.55,-2.7c8.30768,-3.03333 16.19102,-4.55 23.65,-4.55c21.16667,0 36.16667,6.26667 45,18.8c4.46667,6.33333 6.85,12.9 7.15,19.7c0.16667,1.03333 0.76667,4.76667 1.8,11.2c0.66667,4.3 1.23333,8.06667 1.7,11.3c0.04818,0.36094 0.08151,0.74427 0.1,1.15c0.13333,1.26263 0.2,2.7293 0.2,4.4c0,1.26667 -0.01667,3.16667 -0.05,5.7c0,1 -0.13333,3.01667 -0.4,6.05c0.1,2.76667 1.15,4.66667 3.15,5.7l0.35,-0.15c0.56172,1.50039 1.24505,3.26706 2.05,5.3c0.41146,1.05273 0.77812,2.0694 1.1,3.05c1.83333,5.22812 2.75,9.66146 2.75,13.3c0,12.6 -2.95,22.76667 -8.85,30.5c-3.45794,4.53112 -7.92461,8.29779 -13.4,11.3c-2.25768,-0.5276 -4.25768,-1.54427 -6,-3.05c-2.66667,-2.33333 -4,-5.16667 -4,-8.5c0,-1.06667 2.13333,-2.25 6.4,-3.55c2.2,-0.63333 4.73333,-1.28333 7.6,-1.95c-0.36667,-0.93333 -1.38333,-2.9 -3.05,-5.9c-0.59362,-1.06107 -1.11029,-2.01107 -1.55,-2.85l3.55,-0.4c1.7,-0.7 2.73333,-2.03333 3.1,-4c0.1,-0.63333 0.1,-1.9 0,-3.8c-0.16667,-3.26667 -1.56667,-6.45 -4.2,-9.55c-0.54518,-0.65286 -1.11185,-1.26953 -1.7,-1.85c-1.60924,-1.56393 -3.35924,-2.79727 -5.25,-3.7c-0.56953,-0.25951 -1.15286,-0.49284 -1.75,-0.7l-0.1,0.05c-0.06667,0.23333 -0.08333,0.86667 -0.05,1.9c0.01979,0.39596 0.48646,1.36263 1.4,2.9c0.30638,0.51706 0.65638,1.10039 1.05,1.75c0.4401,0.66667 0.92344,1.4 1.45,2.2c2.53333,3.86667 3.83333,6.25 3.9,7.15c0.03333,0.96667 -0.05,1.58333 -0.25,1.85c-0.26667,0.2 -0.4,0.35 -0.4,0.45l-9.75,1c-0.18841,-0.15937 -0.45508,-0.34271 -0.8,-0.55c-0.45078,-0.27539 -1.03411,-0.59206 -1.75,-0.95c-0.36667,-0.16667 -0.66667,-0.31667 -0.9,-0.45c1.10469,-2.40143 2.02135,-5.10143 2.75,-8.1c0.30039,-1.17526 0.56706,-2.39193 0.8,-3.65c0.93333,-5.23333 1.31667,-11.05 1.15,-17.45c-0.13203,-2.03945 -0.2487,-3.75612 -0.35,-5.15c-0.14531,-2.46133 -0.22865,-3.89466 -0.25,-4.3c-0.63333,-11.53333 -2.65,-21.35 -6.05,-29.45c-5.83333,-13.83333 -15.26667,-21.66667 -28.3,-23.5c-10.03333,-2.03333 -17.8,5.41667 -23.3,22.35c-1.9,5.86667 -3.35,12.36667 -4.35,19.5c-0.13333,1.1 -0.26667,2.15 -0.4,3.15c-2.23333,-4.6 -5.16667,-8.56667 -8.8,-11.9c-7.36667,-6.8 -16.35,-9.96667 -26.95,-9.5c-10.23333,0.5 -18.86667,4.2 -25.9,11.1c-6.48841,6.3375 -10.02174,14.02083 -10.6,23.05c-0.02161,0.59141 -0.03828,1.17474 -0.05,1.75c-0.15703,-0.11133 -0.3237,-0.22799 -0.5,-0.35c-5.72435,-4.58346 -12.25768,-7.98346 -19.6,-10.2c9.56615,-2.92643 17.56615,-8.55977 24,-16.9c3.53333,-4.6 6.31667,-9.66667 8.35,-15.2c1.6,-4.46667 2.4,-8.15 2.4,-11.05c0,-8.9056 -1.33333,-16.72227 -4,-23.45c4.22786,-1.7 8.17786,-2.55 11.85,-2.55c0.82708,0 1.66042,0.01667 2.5,0.05M758.75,463.1c5.53333,2.33333 11.28333,3.5 17.25,3.5c7.37891,0 13.91224,-4.01667 19.6,-12.05c0.14857,0.53802 0.2319,1.10469 0.25,1.7c0.06667,1.23333 -3.88333,4.3 -11.85,9.2c-7.3,4.5 -12.15,7.2 -14.55,8.1c-10.93333,4.06667 -21.5,7.55 -31.7,10.45c-17.7,5.1 -32.78333,8.11667 -45.25,9.05c-0.16667,0.03333 -0.33333,0.05 -0.5,0.05c-0.53333,-0.46667 -0.81667,-0.7 -0.85,-0.7c-1,0.06667 -1.65,0.25 -1.95,0.55l-0.05,0.05c-4.63333,-0.53333 -8.06667,-3.08333 -10.3,-7.65c-1.2,-2.83333 -2.1,-4.76667 -2.7,-5.8c-1.03333,-1.76667 -2.3,-2.6 -3.8,-2.5c-0.46667,0.03333 -2.83333,1.86667 -7.1,5.5c-4.36667,3.66667 -7.73333,5.76667 -10.1,6.3l-0.05,-0.5c0.1,-2.43333 0.76667,-5.18333 2,-8.25c0.03333,-0.13333 0.08333,-0.26667 0.15,-0.4c6.03112,-2.34089 10.94779,-5.55755 14.75,-9.65c3.94909,5.86628 8.51576,10.66628 13.7,14.4c6.16667,4.43333 12.18333,6.65 18.05,6.65c10,0 19.45,-4.76667 28.35,-14.3c7.96667,-8.56667 12.51667,-17.13333 13.65,-25.7h0.5c1.43333,5.1 5.6,9.1 12.5,12z" fill="#ffa420"/><path d="M605.15,400.35c-3.16667,-0.8 -9.55,-2.13333 -19.15,-4c-0.5,-0.33333 -0.91667,-0.75 -1.25,-1.25c1.93125,-3.31927 3.66458,-6.36927 5.2,-9.15c0.13763,0.1 0.23763,0.15 0.3,0.15c1.03333,0 1.6,-0.11667 1.7,-0.35c-0.03333,-0.26667 -0.01667,-0.4 0.05,-0.4l0.2,-0.95c0.08737,0.14609 0.1707,0.29609 0.25,0.45c3.86172,7.4401 9.17839,12.90677 15.95,16.4c0.34388,0.17161 0.67721,0.33828 1,0.5c-0.31159,-0.14271 -0.66159,-0.29271 -1.05,-0.45c-0.91393,-0.32044 -1.9806,-0.63711 -3.2,-0.95z" fill="#246f44"/><path d="M893.5,537.1c0,3.56667 -1.06667,7.81667 -3.2,12.75c-3.29909,7.52695 -8.06576,11.42695 -14.3,11.7c1.07565,-1.38164 2.07565,-2.86497 3,-4.45c4.35664,-7.43737 6.67331,-15.23737 6.95,-23.4c1.94206,0.54336 4.44206,1.22669 7.5,2.05c0.03333,0.44167 0.05,0.89167 0.05,1.35M885.55,525.55c-0.46849,-3.58906 -1.38516,-6.8724 -2.75,-9.85c3.41875,1.48411 6.05208,4.16745 7.9,8.05c0.53138,1.09115 0.98138,2.22448 1.35,3.4c-0.77917,-0.16901 -1.64583,-0.36901 -2.6,-0.6c-1.47682,-0.36198 -2.77682,-0.69531 -3.9,-1M867.5,555.4c2.35326,-0.36875 4.46992,-0.90208 6.35,-1.6c-0.11771,0.21159 -0.23437,0.41159 -0.35,0.6l-6.2,7.55l-5.95,4.5c-0.31289,0.175 -0.62956,0.34167 -0.95,0.5c-0.66159,0.21927 -1.34492,0.36927 -2.05,0.45c3.20469,-2.99935 6.05469,-6.94935 8.55,-11.85c0.01458,-0.02839 0.03125,-0.06172 0.05,-0.1c0.18633,-0.00977 0.36966,-0.02643 0.55,-0.05M850.75,555.15c2.53008,0.56667 5.11341,0.85 7.75,0.85c1.68906,0 3.28906,-0.05 4.8,-0.15c-0.17057,0.31654 -0.35391,0.6332 -0.55,0.95c-2.7832,4.45299 -5.8832,7.96966 -9.3,10.55c-4.41445,-0.3668 -8.36445,-1.4668 -11.85,-3.3c3.50859,-1.96302 6.54193,-4.89635 9.1,-8.8c0.01458,-0.02227 0.03125,-0.0556 0.05,-0.1M879.75,538.25c-0.11159,0.6125 -0.24492,1.24583 -0.4,1.9c-0.75547,3.19479 -1.77214,6.19479 -3.05,9c-1.00065,0.43932 -2.11732,0.87266 -3.35,1.3c-1.4207,0.48945 -2.83737,0.90612 -4.25,1.25c1.02734,-2.39688 1.92734,-4.91354 2.7,-7.55c1.36562,-0.95065 2.64896,-2.01732 3.85,-3.2c1.33411,-1.30586 2.50078,-2.67253 3.5,-4.1c0.36263,0.45091 0.69596,0.91758 1,1.4M853.4,550.35c3.70078,-0.31576 7.10078,-1.03242 10.2,-2.15c1.47188,-0.52266 2.87188,-1.13932 4.2,-1.85c-0.72409,1.98099 -1.54076,3.88099 -2.45,5.7c-0.05286,0.1237 -0.11953,0.24036 -0.2,0.35c-2.25742,0.4 -4.50742,0.6 -6.75,0.6c-2.06289,0 -4.09622,-0.16667 -6.1,-0.5c0.39792,-0.6918 0.76458,-1.40846 1.1,-2.15M836.3,548.75c3.69115,2.56706 7.50781,4.45039 11.45,5.65c-2.53854,3.48307 -5.65521,6.03307 -9.35,7.65c-3.62513,-2.58594 -6.65846,-6.13594 -9.1,-10.65c2.10352,-0.68242 3.97018,-1.73242 5.6,-3.15c0.47604,0.18932 0.94271,0.35599 1.4,0.5M827.95,548.65c-0.78464,-1.74974 -1.46797,-3.59974 -2.05,-5.55c1.83372,1.48372 3.76706,2.73372 5.8,3.75c-1.13294,0.78255 -2.38294,1.38255 -3.75,1.8M822.25,552.5c1.99805,0 3.84805,-0.21667 5.55,-0.65c1.58047,3.41094 3.3638,6.29427 5.35,8.65c0.79414,0.92878 1.62747,1.79544 2.5,2.6c-2.55234,0.76667 -5.35234,1.15 -8.4,1.15c-3.22643,0 -6.1431,-0.75 -8.75,-2.25c-0.0599,-0.42253 -0.12656,-0.87253 -0.2,-1.35c-0.45065,-2.9013 -0.71732,-5.91797 -0.8,-9.05c1.40443,0.6 2.98776,0.9 4.75,0.9M815.35,562.65c0.00768,0.1349 0.00768,0.26823 0,0.4l-1.05,-1.2c-0.11966,-0.14284 -0.23633,-0.29284 -0.35,-0.45c0.4444,0.45195 0.91107,0.86862 1.4,1.25M845.65,571.45c-2.08516,0.26667 -4.26849,0.4 -6.55,0.4c-1.23138,0 -2.43138,-0.05 -3.6,-0.15c-6.20417,-0.43854 -11.45417,-2.10521 -15.75,-5c-0.19414,-0.50794 -0.37747,-1.07461 -0.55,-1.7c2.93646,1.33333 6.36979,2 10.3,2c3.3,0 6.33333,-0.53333 9.1,-1.6c3.19271,2.17279 6.84271,3.63945 10.95,4.4c-1.25013,0.68086 -2.55013,1.23086 -3.9,1.65M807,541.45l0.05,0.05c0.06667,0.06667 0.18333,0.15 0.35,0.25l0.1,0.15c0.13333,0.06667 0.46667,0.1 1,0.1c0.17565,0 0.77565,-0.41667 1.8,-1.25c0.27539,1.5888 0.69206,3.0388 1.25,4.35c0.86875,2.14284 2.03542,3.80951 3.5,5c-0.1,1.19805 -0.15,3.16471 -0.15,5.9c0,0.04544 0.06667,1.21211 0.2,3.5c-0.8332,-0.81549 -1.6332,-1.73216 -2.4,-2.75c-1.2,-1.56667 -2.2,-3.3 -3,-5.2c-0.6,-1.6 -0.91667,-2.41667 -0.95,-2.45l-0.5,0.4c-0.06784,0.40703 -0.00117,1.04036 0.2,1.9c-0.09336,-0.27174 -0.19336,-0.55508 -0.3,-0.85l-0.6,-2.45c-0.36667,-1.80898 -0.55,-3.64232 -0.55,-5.5c0,-0.37539 0,-0.75872 0,-1.15M822.45,539.95c0.55977,0.60078 1.1431,1.18411 1.75,1.75c0.73529,2.63789 1.53529,5.07122 2.4,7.3c-1.37174,0.33333 -2.85508,0.5 -4.45,0.5c-1.62018,0 -3.05352,-0.36667 -4.3,-1.1c0.53984,-1.42187 1.67318,-3.57188 3.4,-6.45c0.42135,-0.71628 0.82135,-1.38294 1.2,-2M819.5,536.2c0.2349,0.37396 0.46823,0.72396 0.7,1.05c-0.24492,0.33828 -0.49492,0.68828 -0.75,1.05c-0.66667,0.96667 -1.68333,2.95 -3.05,5.95c-0.30846,0.66094 -0.57513,1.39427 -0.8,2.2c-0.49284,-0.59362 -0.94284,-1.29362 -1.35,-2.1c-0.90195,-1.77826 -1.45195,-3.57826 -1.65,-5.4c1.13672,-0.87396 1.77005,-1.32396 1.9,-1.35c2.7,-0.73333 4.33333,-1.18333 4.9,-1.35c0.03646,-0.01107 0.06979,-0.02773 0.1,-0.05M848.5,550.6c0.53398,0 1.05065,-0.01667 1.55,-0.05c-0.21302,0.45872 -0.44635,0.89206 -0.7,1.3c-1.4276,-0.36003 -2.84427,-0.82669 -4.25,-1.4c1.11589,0.1 2.24922,0.15 3.4,0.15M815.5,525.05c0.39023,3.15742 1.2569,6.07409 2.6,8.75c-1.74896,0.36081 -3.53229,0.92747 -5.35,1.7c-0.07096,0.03034 -0.13763,0.06367 -0.2,0.1c0.12474,-2.99779 0.59141,-5.51445 1.4,-7.55c0.40781,-1.04336 0.92448,-2.04336 1.55,-3M812.3,525.5c-1.49362,3.44193 -2.26029,7.22526 -2.3,11.35c-1.47669,0.89362 -2.42669,1.79362 -2.85,2.7c0.18906,-1.85586 0.53906,-3.72253 1.05,-5.6c0.03776,-0.03333 0.07109,-0.06667 0.1,-0.1c0.13333,-0.16667 0.61667,-0.91667 1.45,-2.25c-0.1793,-0.19687 -0.3793,-0.39688 -0.6,-0.6c0.24089,-0.5974 0.49089,-1.21406 0.75,-1.85c1.03398,-2.42513 2.35065,-4.87513 3.95,-7.35c0.45482,-0.70339 0.92148,-1.38672 1.4,-2.05c0,0.27201 0,0.55534 0,0.85c-1.16589,1.41979 -2.14922,3.05313 -2.95,4.9z" fill="#343545"/><path d="M889.45,526.55c0.95417,0.23099 1.82083,0.43099 2.6,0.6c0.84544,2.63242 1.31211,5.49909 1.4,8.6c-3.05794,-0.82331 -5.55794,-1.50664 -7.5,-2.05c0.03333,-0.58203 0.05,-1.16536 0.05,-1.75c0,-2.22591 -0.15,-4.35924 -0.45,-6.4c1.12318,0.30469 2.42318,0.63802 3.9,1M873.65,532.05c1.60156,1.07083 3.0349,2.3375 4.3,3.8c0.27995,0.31992 0.54661,0.65326 0.8,1c-0.99922,1.42747 -2.16589,2.79414 -3.5,4.1c-1.20104,1.18268 -2.48437,2.24935 -3.85,3.2c0.26523,-0.87917 0.51523,-1.77917 0.75,-2.7c1,-3.86667 1.5,-6.7 1.5,-8.5c0,-0.29909 0,-0.59909 0,-0.9M870.9,532.7c0,2.53333 -0.63333,5.91667 -1.9,10.15c-0.36784,1.1974 -0.76784,2.36406 -1.2,3.5c-1.32812,0.71068 -2.72812,1.32734 -4.2,1.85c-3.09922,1.11758 -6.49922,1.83424 -10.2,2.15c2.9,-6.25404 4.35,-13.70404 4.35,-22.35c0,-0.09779 0,-0.19779 0,-0.3c0.96745,0.02057 1.90078,0.07057 2.8,0.15c3.89818,0.34036 7.31484,1.20703 10.25,2.6c0.06667,0.74349 0.1,1.49349 0.1,2.25M834.9,548.25c0.12695,-0.07695 0.24362,-0.16029 0.35,-0.25c0.35482,0.26107 0.70482,0.51107 1.05,0.75c-0.45729,-0.14401 -0.92396,-0.31068 -1.4,-0.5M824.6,536.65c1.37044,2.92969 4.10378,6.06302 8.2,9.4c-0.34544,0.30326 -0.71211,0.56992 -1.1,0.8c-2.03294,-1.01628 -3.96628,-2.26628 -5.8,-3.75c-0.37552,-1.23594 -0.70885,-2.51927 -1,-3.85c-0.17357,-0.83047 -0.32357,-1.63047 -0.45,-2.4c0.04818,-0.0694 0.09818,-0.13607 0.15,-0.2M825.7,534c-0.08971,-0.15365 -0.17305,-0.32031 -0.25,-0.5c0.11237,0.20911 0.22904,0.37578 0.35,0.5c-0.03672,0.00456 -0.07005,0.00456 -0.1,0M834.7,544.25c-3.97422,-3.20638 -6.84089,-6.37305 -8.6,-9.5c0.01979,0.01211 0.03646,0.01211 0.05,0l-0.25,-0.7c1.46667,-0.68464 6.13333,-1.8513 14,-3.5c-0.03398,3.26549 -0.93398,6.59883 -2.7,10c-0.72643,1.39818 -1.55977,2.63151 -2.5,3.7M824.2,541.7c-0.6069,-0.56589 -1.19023,-1.14922 -1.75,-1.75c0.33333,-0.53828 0.65,-1.03828 0.95,-1.5c0.25703,1.11341 0.5237,2.19674 0.8,3.25M819.5,536.2c1.19609,-0.35247 2.22943,-0.70247 3.1,-1.05c-0.82773,0.53242 -1.62773,1.23242 -2.4,2.1c-0.23177,-0.32604 -0.4651,-0.67604 -0.7,-1.05M842.65,529.95c5.55286,-1.11719 9.5862,-1.81719 12.1,-2.1c0.1,0.83086 0.15,1.66419 0.15,2.5c0,6.26667 -1.25,12.26667 -3.75,18c-0.33685,0.77057 -0.70352,1.50391 -1.1,2.2c-0.49935,0.03333 -1.01602,0.05 -1.55,0.05c-1.15078,0 -2.28411,-0.05 -3.4,-0.15c-2.75221,-1.08867 -5.41888,-2.55534 -8,-4.4c0.74362,-0.88203 1.42695,-1.86536 2.05,-2.95c2.33333,-4.06667 3.5,-8.3 3.5,-12.7c0,-0.14375 0,-0.29375 0,-0.45M823.8,533.25h-0.55v0.15c-1.68398,-0.05586 -3.40065,0.07747 -5.15,0.4c-1.3431,-2.67591 -2.20977,-5.59258 -2.6,-8.75c0.50872,-0.78789 1.09206,-1.55456 1.75,-2.3c0.25898,0.96016 0.59232,1.99349 1,3.1c1.47018,3.98151 3.27018,6.13151 5.4,6.45c0.04258,0.36094 0.09258,0.6776 0.15,0.95M824.05,529.95c-1.55456,-2.84245 -2.38789,-4.37578 -2.5,-4.6c-0.9638,-1.90859 -1.6638,-3.49193 -2.1,-4.75c0.83464,-0.65234 1.73464,-1.28568 2.7,-1.9c3.2776,-2.15638 6.29427,-2.70638 9.05,-1.65c-0.80911,1.26354 -1.72578,2.74688 -2.75,4.45c-2.28464,3.85534 -3.7513,6.67201 -4.4,8.45M835.45,520.25c1.33333,1.53333 2.45,3.41667 3.35,5.65c0.14596,0.37161 0.2793,0.72161 0.4,1.05c-2.44089,0.52227 -4.59089,1.08893 -6.45,1.7c-3.07826,1.00521 -5.56159,2.22187 -7.45,3.65c1.41458,-4.47643 4.03125,-9.1931 7.85,-14.15c0.79883,0.55599 1.56549,1.25599 2.3,2.1M835.15,515.7c2.1151,-2.46094 4.28177,-4.51094 6.5,-6.15c4.32461,1.35339 7.69128,4.28672 10.1,8.8c1.11719,2.11016 1.93385,4.22682 2.45,6.35c-0.47747,0.0763 -0.96081,0.15964 -1.45,0.25c-3.90729,0.41042 -7.42396,0.89375 -10.55,1.45c-0.61458,-2.81432 -1.91458,-5.43099 -3.9,-7.85c-0.96602,-1.1707 -2.01602,-2.1207 -3.15,-2.85M816.5,518.35c0,0.27721 0.01667,0.56055 0.05,0.85c-0.45859,0.45703 -0.89193,0.9237 -1.3,1.4c0,-0.29466 0,-0.57799 0,-0.85c0.02917,-0.04062 0.0625,-0.09062 0.1,-0.15c0.37135,-0.50482 0.75469,-1.00482 1.15,-1.5c0,0.07617 0,0.15951 0,0.25M832.8,514.6c-3.04219,-0.99609 -6.59219,-0.66276 -10.65,1c-0.86628,0.35299 -1.69961,0.75299 -2.5,1.2c0.16667,-0.2681 0.25,-0.55143 0.25,-0.85c0,-0.53333 -0.11667,-0.88333 -0.35,-1.05c-0.07565,-0.02526 -0.15898,-0.05859 -0.25,-0.1c1.99154,-2.05651 4.14154,-3.90651 6.45,-5.55c0.06276,0.09245 0.14609,0.17578 0.25,0.25c0.16667,0.1 0.58333,0.38333 1.25,0.85c0.56667,-0.13333 1.36667,-0.45 2.4,-0.95c1.36667,-0.46667 3.36667,-0.7 6,-0.7c0.88841,0 1.73841,0.05 2.55,0.15c-1.47396,1.25117 -2.74063,2.45117 -3.8,3.6c-0.41263,0.47513 -0.94596,1.1918 -1.6,2.15M844.75,503.95c-1.21315,0.82956 -2.34648,1.62956 -3.4,2.4c-2.91562,-0.74271 -6.01562,-0.87604 -9.3,-0.4c-0.3612,0.05078 -0.7112,0.10078 -1.05,0.15c0.38385,-0.18424 0.76719,-0.36758 1.15,-0.55c0.34154,-0.1638 0.67487,-0.33047 1,-0.5c1.09635,0.2 1.96302,0.3 2.6,0.3c0.43333,0 1.05,-0.31667 1.85,-0.95l1.25,-1.1c0.61211,-0.10443 1.21211,-0.20443 1.8,-0.3c1.6543,0.11471 3.23763,0.29805 4.75,0.55c-0.22721,0.12357 -0.44388,0.2569 -0.65,0.4M851.8,505.1c3.7638,1.29414 6.99714,3.12747 9.7,5.5c1.34961,1.16328 2.56628,2.46328 3.65,3.9c2.69427,3.56107 4.44427,7.61107 5.25,12.15c-3.12435,-1.32852 -6.40768,-2.07852 -9.85,-2.25c-0.95469,-0.05677 -1.92135,-0.07344 -2.9,-0.05c-0.10625,-1.30417 -0.27292,-2.2875 -0.5,-2.95c-0.53333,-1.43333 -2.11667,-4.03333 -4.75,-7.8c-1.76667,-2.56667 -4.31667,-4.56667 -7.65,-6c2.29258,-1.25716 4.64258,-2.09049 7.05,-2.5M863.5,517.7l0.25,-1.5c0.03333,-0.33333 -0.5,-1.16667 -1.6,-2.5c-0.29518,-0.3543 -0.59518,-0.7043 -0.9,-1.05c-0.87878,-0.96146 -1.77878,-1.82813 -2.7,-2.6c-3.53333,-2.96667 -5.3,-2.76667 -5.3,0.6c0,0.43333 1.16667,1.75 3.5,3.95c1.6349,1.52591 2.9849,2.54258 4.05,3.05c0.56302,0.3 1.04635,0.45 1.45,0.45c0.5,0 0.83333,-0.06667 1,-0.2l0.25,-0.2M859.5,520.25c0,0.83333 0.05,1.28333 0.15,1.35l0.35,0.15c0.16328,0.03633 0.36328,0.05299 0.6,0.05c0.19023,0.03333 0.4069,0.05 0.65,0.05c0.5,0 0.9,-0.06667 1.2,-0.2l0.45,-0.2c0.06667,0.2 0.1,-0.11667 0.1,-0.95c0,-1.13333 -0.58333,-1.7 -1.75,-1.7c-0.18867,0 -0.37201,0.01667 -0.55,0.05c-0.8,0.12292 -1.2,0.58958 -1.2,1.4M865.3,507.3c1.44362,0.89232 2.82695,1.90898 4.15,3.05c3.53333,3.06667 6.3,6.71667 8.3,10.95c1.83333,3.83333 2.75,7.46667 2.75,10.9c0,0.45221 -0.01667,0.93555 -0.05,1.45c-1.28125,-1.3724 -2.74792,-2.63906 -4.4,-3.8c-0.89362,-0.63333 -1.81029,-1.21667 -2.75,-1.75c-0.22552,-1.73659 -0.59219,-3.43659 -1.1,-5.1c-1,-3.36667 -2.6,-6.8 -4.8,-10.3c-0.96667,-1.53333 -2.48333,-3.11667 -4.55,-4.75c-0.28203,-0.22266 -0.56536,-0.43932 -0.85,-0.65c-0.76354,-0.56576 -1.54687,-1.09909 -2.35,-1.6c0.41771,0.12812 0.85104,0.26146 1.3,0.4c0.42292,0.1306 0.82292,0.24727 1.2,0.35c1.49219,0.4543 2.54219,0.73763 3.15,0.85z" fill="#485e84"/><path d="M860.7,518.85c0.17799,-0.03333 0.36133,-0.05 0.55,-0.05c1.16667,0 1.75,0.56667 1.75,1.7c0,0.83333 -0.03333,1.15 -0.1,0.95l-0.45,0.2c-0.3,0.13333 -0.7,0.2 -1.2,0.2c-0.2431,0 -0.45977,-0.01667 -0.65,-0.05c-0.23672,0.00299 -0.43672,-0.01367 -0.6,-0.05l-0.35,-0.15c-0.1,-0.06667 -0.15,-0.51667 -0.15,-1.35c0,-0.81042 0.4,-1.27708 1.2,-1.4M862.25,518.1c-0.40365,0 -0.88698,-0.15 -1.45,-0.45c-1.0651,-0.50742 -2.4151,-1.52409 -4.05,-3.05c-2.33333,-2.2 -3.5,-3.51667 -3.5,-3.95c0,-3.36667 1.76667,-3.56667 5.3,-0.6c0.92122,0.77188 1.82122,1.63854 2.7,2.6c0.30482,0.3457 0.60482,0.6957 0.9,1.05c1.1,1.33333 1.63333,2.16667 1.6,2.5l-0.25,1.5l-0.25,0.2c-0.16667,0.13333 -0.5,0.2 -1,0.2z" fill="#8fbbbe"/></g></g></svg>