<svg version="1.1" xmlns="http://www.w3.org/2000/svg" xmlns:xlink="http://www.w3.org/1999/xlink" width="36.64503" height="74.67001" viewBox="0,0,36.64503,74.67001"><g transform="translate(-612.5728,-331.60709)"><g data-paper-data="{&quot;isPaintingLayer&quot;:true}" fill-rule="nonzero" stroke="none" stroke-width="1" stroke-linecap="round" stroke-linejoin="miter" stroke-miterlimit="4" stroke-dasharray="" stroke-dashoffset="0" style="mix-blend-mode: normal"><path d="M636.13099,332.80901c1.26667,-0.8 2.51667,-1.2 3.75,-1.2c1.1,-0.03333 2.51667,0.36667 4.25,1.2c2.46667,1.2 4.03333,2.61667 4.7,4.25c0.7,1.8 0.45,3.75 -0.75,5.85c-0.7,1.16667 -2.03333,2.7 -4,4.6c-3.26667,3.33333 -6.31667,7 -9.15,11c-1.93333,2.7 -3.3,5.18333 -4.1,7.45c-1.03333,3.03333 -1.15,5.81667 -0.35,8.35c0.56667,1.93333 1.96667,4.13333 4.2,6.6c2.53333,2.9 5.36667,5.76667 8.5,8.6c1.06667,0.93333 1.81667,1.63333 2.25,2.1c0.76667,0.83333 1.31667,1.65 1.65,2.45c0.73333,1.9 0.63333,3.9 -0.3,6c-0.8,1.73333 -2.11667,3.26667 -3.95,4.6c-1.6,1.3 -3.05,1.81667 -4.35,1.55c-0.6,-0.1 -1.2,-0.38333 -1.8,-0.85c-0.26667,-0.16667 -0.78333,-0.6 -1.55,-1.3c-2.2,-1.6 -3.83333,-2.83333 -4.9,-3.7c-1.8,-1.4 -3.8,-3.3 -6,-5.7c-2.03333,-2.2 -3.6,-4.11667 -4.7,-5.75c-1.7,-2.53333 -3.13333,-5.43333 -4.3,-8.7c-1.5,-4.06667 -2.36667,-7.85 -2.6,-11.35c-0.26667,-4.23333 0.38333,-8.03333 1.95,-11.4c0.66667,-1.9 2.31667,-4.36667 4.95,-7.4c5.8,-6.66667 10.28333,-11.55 13.45,-14.65c1.2,-1.16667 2.25,-2.03333 3.15,-2.6M643.08099,338.50901c-0.4,-0.06667 -0.61667,-0.11667 -0.65,-0.15c-0.23333,-0.06667 -0.53333,-0.25 -0.9,-0.55c-0.36667,-0.3 -0.66667,-0.48333 -0.9,-0.55c-0.53333,-0.1 -1.23333,0.2 -2.1,0.9c-2.26667,2.03333 -4.7,4.46667 -7.3,7.3c-1.43333,1.56667 -3.71667,4.15 -6.85,7.75c-1.9,2.13333 -3.21667,3.9 -3.95,5.3c-2.13333,3.96667 -2.61667,8.61667 -1.45,13.95c0.43333,2.1 1.16667,4.38333 2.2,6.85c0.63333,1.46667 1.6,3.56667 2.9,6.3c3.03333,3.43333 5.35,5.93333 6.95,7.5c2.83333,2.8 5.61667,5.01667 8.35,6.65c0.76667,-0.46667 1.33333,-0.95 1.7,-1.45c0.56667,-0.73333 0.7,-1.45 0.4,-2.15c-0.16667,-0.36667 -0.53333,-0.78333 -1.1,-1.25c-2.93333,-2.43333 -5.75,-5.13333 -8.45,-8.1c-4.26667,-4.63333 -6.76667,-8.9 -7.5,-12.8c-0.73333,-3.86667 -0.11667,-7.98333 1.85,-12.35c1.26667,-2.9 3.55,-6.43333 6.85,-10.6c3.53333,-4.66667 6.78333,-8.13333 9.75,-10.4c1.03333,-0.8 1.28333,-1.43333 0.75,-1.9c-0.13333,-0.13333 -0.31667,-0.21667 -0.55,-0.25z" fill="#000000"/><path d="M633.14099,351.06901c-3.3,4.16667 -5.58333,7.7 -6.85,10.6c-1.96667,4.36667 -2.58333,8.48333 -1.85,12.35c0.73333,3.9 3.23333,8.16667 7.5,12.8c2.7,2.96667 5.51667,5.66667 8.45,8.1c0.56667,0.46667 0.93333,0.88333 1.1,1.25c0.3,0.7 0.16667,1.41667 -0.4,2.15c-0.36667,0.5 -0.93333,0.98333 -1.7,1.45c-2.73333,-1.63333 -5.51667,-3.85 -8.35,-6.65c-1.6,-1.56667 -3.91667,-4.06667 -6.95,-7.5c-1.3,-2.73333 -2.26667,-4.83333 -2.9,-6.3c-1.03333,-2.46667 -1.76667,-4.75 -2.2,-6.85c-1.16667,-5.33333 -0.68333,-9.98333 1.45,-13.95c0.73333,-1.4 2.05,-3.16667 3.95,-5.3c3.13333,-3.6 5.41667,-6.18333 6.85,-7.75c2.6,-2.83333 5.03333,-5.26667 7.3,-7.3c0.86667,-0.7 1.56667,-1 2.1,-0.9c0.23333,0.06667 0.53333,0.25 0.9,0.55c0.36667,0.3 0.66667,0.48333 0.9,0.55c0.03333,0.03333 0.25,0.08333 0.65,0.15c0.23333,0.03333 0.41667,0.11667 0.55,0.25c0.53333,0.46667 0.28333,1.1 -0.75,1.9c-2.96667,2.26667 -6.21667,5.73333 -9.75,10.4z" fill="#ffffff"/></g></g></svg>