<svg version="1.1" xmlns="http://www.w3.org/2000/svg" xmlns:xlink="http://www.w3.org/1999/xlink" width="50.09547" height="66.51765" viewBox="0,0,50.09547,66.51765"><g transform="translate(-610.23712,-337.30287)"><g data-paper-data="{&quot;isPaintingLayer&quot;:true}" fill-rule="nonzero" stroke="none" stroke-width="1" stroke-linecap="round" stroke-linejoin="miter" stroke-miterlimit="4" stroke-dasharray="" stroke-dashoffset="0" style="mix-blend-mode: normal"><path d="M651.9655,345.02051c-0.3,1.06667 -1.01667,2.11667 -2.15,3.15c-1.36667,1.13333 -2.38333,2 -3.05,2.6c-0.56667,0.5 -1.5,1.5 -2.8,3c-2.9,3.6 -5.18333,6.65 -6.85,9.15c4.7,-0.13333 8.46667,0.23333 11.3,1.1c4.13333,1.2 7.21667,3.28333 9.25,6.25c2.63333,3.8 3.31667,8.78333 2.05,14.95c-1.06667,5.33333 -3.16667,9.23333 -6.3,11.7c-0.83333,0.63333 -1.88333,1.26667 -3.15,1.9c-0.3,0.13333 -1.45,0.63333 -3.45,1.5l-4.05,1.8c-1.56667,0.63333 -2.96667,1.08333 -4.2,1.35c-2.33333,0.46667 -5.26667,0.46667 -8.8,0c-4.2,-0.53333 -7.48333,-1.55 -9.85,-3.05c-3.16667,-2.03333 -5.53333,-5.1 -7.1,-9.2c-1.13333,-2.9 -1.91667,-6.75 -2.35,-11.55c-0.43333,-4.93333 -0.25,-8.95 0.55,-12.05c0.8,-3.06667 2.53333,-6.6 5.2,-10.6c3.43333,-5.16667 6.88333,-9.25 10.35,-12.25c4.46667,-3.8 9.2,-6.18333 14.2,-7.15c3.16667,-0.6 5.78333,-0.35 7.85,0.75c1.23333,0.66667 2.18333,1.6 2.85,2.8c0.7,1.3 0.86667,2.58333 0.5,3.85M637.7655,344.72051c-3.66667,1.6 -6.98333,3.9 -9.95,6.9c-1.66667,1.7 -3.8,4.48333 -6.4,8.35c-2.33333,3.36667 -3.83333,6.11667 -4.5,8.25c-0.63333,2.03333 -0.93333,4.4 -0.9,7.1c0,1.48828 0.15,3.67161 0.45,6.55c0.64102,3.3862 1.24102,5.7862 1.8,7.2c1,2.63333 2.46667,4.63333 4.4,6c1.76667,1.23333 4.48333,2.06667 8.15,2.5c1.86667,0.23333 3.43333,0.33333 4.7,0.3c1.7,-0.1 3.18333,-0.45 4.45,-1.05l-0.6,0.15c1.43333,-0.63333 3.58333,-1.5 6.45,-2.6c2.5,-1.13333 4.36667,-2.46667 5.6,-4c1.46667,-1.83333 2.43333,-4.43333 2.9,-7.8c0.3,-2.56667 0.2,-4.71667 -0.3,-6.45c-0.66667,-2.36667 -1.95,-4.03333 -3.85,-5c-2.8,-1.3 -5.78333,-2.05 -8.95,-2.25c-3.13333,-0.23333 -6.18333,0.1 -9.15,1c-1.46667,0.43333 -2.5,0.56667 -3.1,0.4c-0.43333,-0.13333 -0.83333,-0.38333 -1.2,-0.75c-0.33333,-0.4 -0.53333,-0.83333 -0.6,-1.3c-0.2,-1.03333 0.31667,-2.38333 1.55,-4.05l10.2,-13.6c1.26667,-1.7 2.26667,-2.85 3,-3.45c1.33333,-1.16667 2.68333,-1.76667 4.05,-1.8l0.55,-1.4c-2.26667,-1 -5.18333,-0.73333 -8.75,0.8M632.1655,380.57051c0.6,-0.46667 1.01667,-0.83333 1.25,-1.1l0.8,-0.95c0.8,-0.9 2.25,-1.55 4.35,-1.95c2.1,-0.36667 3.73333,-0.33333 4.9,0.1c0.83333,0.33333 1.53333,0.9 2.1,1.7c0.56667,0.8 0.86667,1.66667 0.9,2.6c0.03333,1.33333 -0.43333,2.63333 -1.4,3.9c-0.8,1 -1.9,1.88333 -3.3,2.65c-2.93333,1.66667 -6.21667,2.55 -9.85,2.65c-1.33333,0 -2.35,-0.15 -3.05,-0.45c-1.16667,-0.5 -1.8,-1.26667 -1.9,-2.3c-0.1,-0.9 0.33333,-1.93333 1.3,-3.1c1.16667,-1.4 2.46667,-2.65 3.9,-3.75M635.8655,383.47051l-0.45,0.55c0.73698,-0.22422 1.48698,-0.54089 2.25,-0.95c-0.46458,0.22917 -0.93125,0.3125 -1.4,0.25l-0.25,0.05z" fill="#000000"/><path d="M646.5155,343.92051l-0.55,1.4c-1.36667,0.03333 -2.71667,0.63333 -4.05,1.8c-0.73333,0.6 -1.73333,1.75 -3,3.45l-10.2,13.6c-1.23333,1.66667 -1.75,3.01667 -1.55,4.05c0.06667,0.46667 0.26667,0.9 0.6,1.3c0.36667,0.36667 0.76667,0.61667 1.2,0.75c0.6,0.16667 1.63333,0.03333 3.1,-0.4c2.96667,-0.9 6.01667,-1.23333 9.15,-1c3.16667,0.2 6.15,0.95 8.95,2.25c1.9,0.96667 3.18333,2.63333 3.85,5c0.5,1.73333 0.6,3.88333 0.3,6.45c-0.46667,3.36667 -1.43333,5.96667 -2.9,7.8c-1.23333,1.53333 -3.1,2.86667 -5.6,4c-2.86667,1.1 -5.01667,1.96667 -6.45,2.6l0.6,-0.15c-1.26667,0.6 -2.75,0.95 -4.45,1.05c-1.26667,0.03333 -2.83333,-0.06667 -4.7,-0.3c-3.66667,-0.43333 -6.38333,-1.26667 -8.15,-2.5c-1.93333,-1.36667 -3.4,-3.36667 -4.4,-6c-0.55898,-1.4138 -1.15898,-3.8138 -1.8,-7.2c-0.3,-2.87839 -0.45,-5.06172 -0.45,-6.55c-0.03333,-2.7 0.26667,-5.06667 0.9,-7.1c0.66667,-2.13333 2.16667,-4.88333 4.5,-8.25c2.6,-3.86667 4.73333,-6.65 6.4,-8.35c2.96667,-3 6.28333,-5.3 9.95,-6.9c3.56667,-1.53333 6.48333,-1.8 8.75,-0.8M626.9655,387.42051c0.1,1.03333 0.73333,1.8 1.9,2.3c0.7,0.3 1.71667,0.45 3.05,0.45c3.63333,-0.1 6.91667,-0.98333 9.85,-2.65c1.4,-0.76667 2.5,-1.65 3.3,-2.65c0.96667,-1.26667 1.43333,-2.56667 1.4,-3.9c-0.03333,-0.93333 -0.33333,-1.8 -0.9,-2.6c-0.56667,-0.8 -1.26667,-1.36667 -2.1,-1.7c-1.16667,-0.43333 -2.8,-0.46667 -4.9,-0.1c-2.1,0.4 -3.55,1.05 -4.35,1.95l-0.8,0.95c-0.23333,0.26667 -0.65,0.63333 -1.25,1.1c-1.43333,1.1 -2.73333,2.35 -3.9,3.75c-0.96667,1.16667 -1.4,2.2 -1.3,3.1z" fill="#ffffff"/></g></g></svg>