<svg version="1.1" xmlns="http://www.w3.org/2000/svg" xmlns:xlink="http://www.w3.org/1999/xlink" width="52.4625" height="66.20567" viewBox="0,0,52.4625,66.20567"><g transform="translate(-606.60661,-337.82939)"><g data-paper-data="{&quot;isPaintingLayer&quot;:true}" fill-rule="nonzero" stroke="none" stroke-width="1" stroke-linecap="butt" stroke-linejoin="miter" stroke-miterlimit="10" stroke-dasharray="" stroke-dashoffset="0" style="mix-blend-mode: normal"><path d="M655.45661,349.98784c0.63333,1.06667 1.08333,2.23333 1.35,3.5c0.3,1.26667 0.61667,2.51667 0.95,3.75c0,0.1 0,0.2 0,0.3c0,0.06667 0,0.15 0,0.25c0,0.1 0,0.18333 0,0.25c0,0.1 0,0.2 0,0.3c0.03333,0.1 0.06667,0.18333 0.1,0.25c0.06667,0.26667 0.13333,0.53333 0.2,0.8c0.06667,0.2 0.11667,0.38333 0.15,0.55c0.06667,0.16667 0.11667,0.35 0.15,0.55c0.03333,0.06667 0.06667,0.15 0.1,0.25c0,0.1 0,0.18333 0,0.25c0,0.1 0,0.2 0,0.3c0,0.06667 0,0.15 0,0.25c0,0.1 0,0.18333 0,0.25c0.06667,0.36667 0.13333,0.73333 0.2,1.1c0.2,1.13333 0.3,2.3 0.3,3.5c-0.03333,1.4 0,2.81667 0.1,4.25c0.06667,1.7 -0.13333,3.31667 -0.6,4.85c0,0.06667 0,0.15 0,0.25c0,0.1 0,0.18333 0,0.25c0,0.2 0,0.38333 0,0.55c0,0.1 0,0.18333 0,0.25c0,0.1 0,0.2 0,0.3c-0.03333,0.06667 -0.06667,0.15 -0.1,0.25c-0.03333,0.1 -0.05,0.2 -0.05,0.3c-0.03333,0.06667 -0.06667,0.15 -0.1,0.25c-0.03333,0.1 -0.06667,0.18333 -0.1,0.25c0,0.1 0,0.2 0,0.3c0,0.06667 0,0.15 0,0.25c0,0.1 0,0.18333 0,0.25c0,0.1 0,0.2 0,0.3c-0.03333,0.06667 -0.06667,0.15 -0.1,0.25c-0.03333,0.1 -0.06667,0.18333 -0.1,0.25c-0.03333,0.1 -0.05,0.2 -0.05,0.3c-0.03333,0.06667 -0.06667,0.15 -0.1,0.25c0,0.1 0,0.18333 0,0.25c0,0.1 0,0.2 0,0.3c0,0.06667 0,0.15 0,0.25c0,0.1 0,0.2 0,0.3c-0.06667,0.16667 -0.13333,0.33333 -0.2,0.5c-0.43333,1.13333 -0.81667,2.28333 -1.15,3.45c-0.36667,1.3 -0.9,2.55 -1.6,3.75c-0.73333,1.33333 -1.6,2.6 -2.6,3.8c-0.1,0.1 -0.21667,0.18333 -0.35,0.25c-0.13333,0.1 -0.25,0.18333 -0.35,0.25c-0.16667,0.1 -0.31667,0.2 -0.45,0.3c-4.56667,4.66667 -10.11667,7.53333 -16.65,8.6c-2.93333,0.46667 -5.86667,0.93333 -8.8,1.4c-5.23333,0.83333 -10.08333,0.16667 -14.55,-2c-0.36667,-0.16667 -0.66667,-0.45 -0.9,-0.85c-0.03333,-0.1 -0.05,-0.2 -0.05,-0.3c-0.03333,-0.33333 -0.1,-0.68333 -0.2,-1.05c-0.06667,-0.16667 -0.13333,-0.35 -0.2,-0.55c-0.1,-0.26667 -0.18333,-0.53333 -0.25,-0.8c-0.06667,-0.16667 -0.13333,-0.35 -0.2,-0.55c0,-0.06667 0,-0.15 0,-0.25c0,-0.1 0,-0.18333 0,-0.25c0,-0.1 -0.01667,-0.18333 -0.05,-0.25c-0.03333,-0.2 -0.08333,-0.4 -0.15,-0.6c-0.06667,-0.16667 -0.11667,-0.33333 -0.15,-0.5c0,-0.1 0,-0.18333 0,-0.25c0,-0.1 0,-0.2 0,-0.3c-0.03333,-0.06667 -0.06667,-0.15 -0.1,-0.25c-0.03333,-0.1 -0.05,-0.18333 -0.05,-0.25c-0.03333,-0.1 -0.06667,-0.2 -0.1,-0.3c-0.03333,-0.06667 -0.06667,-0.15 -0.1,-0.25c0,-0.1 0,-0.2 0,-0.3c0,-0.06667 0,-0.15 0,-0.25c0,-0.16667 0,-0.35 0,-0.55c0,-0.06667 0,-0.15 0,-0.25c0,-0.1 -0.01667,-0.18333 -0.05,-0.25c-0.26667,-0.56667 -0.38333,-1.2 -0.35,-1.9c0.03333,-0.53333 0.05,-1.06667 0.05,-1.6c0,-0.53333 -0.03333,-1.06667 -0.1,-1.6c-0.03333,-0.33333 -0.03333,-0.68333 0,-1.05c0.03333,-0.1 0.06667,-0.2 0.1,-0.3c0.03333,-0.1 0.06667,-0.18333 0.1,-0.25c0.03333,-0.1 0.05,-0.2 0.05,-0.3c0.03333,-0.06667 0.06667,-0.15 0.1,-0.25c0.06667,-0.1 0.13333,-0.18333 0.2,-0.25c0.16667,-0.2 0.33333,-0.38333 0.5,-0.55c0.2,-0.16667 0.38333,-0.35 0.55,-0.55c0.2,-0.06667 0.38333,-0.11667 0.55,-0.15c1.53333,-0.3 3.05,-0.58333 4.55,-0.85c0.83333,-0.16667 1.63333,-0.36667 2.4,-0.6c0.03333,-0.1 0.05,-0.18333 0.05,-0.25c0.03333,-0.36667 0.05,-0.73333 0.05,-1.1c0,-0.26667 0,-0.53333 0,-0.8c0,-0.26667 0,-0.53333 0,-0.8c0,-0.16667 0,-0.33333 0,-0.5c-0.03333,-0.1 -0.06667,-0.2 -0.1,-0.3c-0.26667,-1.03333 -0.36667,-2.1 -0.3,-3.2c0.03333,-0.96667 0.05,-1.95 0.05,-2.95c0,-1.53333 0,-3.05 0,-4.55c0,-0.16667 0,-0.35 0,-0.55c-0.03333,-0.06667 -0.06667,-0.15 -0.1,-0.25c-0.03333,-0.1 -0.06667,-0.2 -0.1,-0.3c-0.03333,-0.06667 -0.06667,-0.15 -0.1,-0.25c0,-0.1 -0.01667,-0.18333 -0.05,-0.25c0,-0.1 0,-0.2 0,-0.3c0,-0.43333 0,-0.86667 0,-1.3c0,-0.3 0,-0.56667 0,-0.8c0,-0.36667 0,-0.73333 0,-1.1c0,-0.16667 0,-0.35 0,-0.55c-0.03333,-0.06667 -0.08333,-0.15 -0.15,-0.25c-0.16667,-0.3 -0.25,-0.65 -0.25,-1.05c0,-0.3 0,-0.56667 0,-0.8c0,-0.3 0,-0.56667 0,-0.8c0,-0.16667 -0.01667,-0.31667 -0.05,-0.45c-0.13333,0 -0.25,0 -0.35,0c-1.5,0.13333 -2.98333,0.41667 -4.45,0.85c-1.3,0.36667 -2.53333,0.25 -3.7,-0.35c-0.1,-0.06667 -0.18333,-0.15 -0.25,-0.25c-0.1,-0.1 -0.18333,-0.2 -0.25,-0.3c-0.13333,-0.16667 -0.26667,-0.33333 -0.4,-0.5c-0.03333,-0.1 -0.05,-0.2 -0.05,-0.3c-0.03333,-0.06667 -0.05,-0.15 -0.05,-0.25c0,-0.16667 -0.01667,-0.35 -0.05,-0.55c0,-0.06667 0,-0.15 0,-0.25c0,-0.1 0,-0.18333 0,-0.25c0.03333,-0.1 0.05,-0.2 0.05,-0.3c0.03333,-0.06667 0.06667,-0.15 0.1,-0.25c0.03333,-0.16667 0.06667,-0.35 0.1,-0.55c0.03333,-0.06667 0.06667,-0.15 0.1,-0.25c0,-0.1 0,-0.18333 0,-0.25c0,-0.9 0.01667,-1.8 0.05,-2.7c0.03333,-0.83333 0.1,-1.63333 0.2,-2.4c0.06667,-1 0.18333,-1.98333 0.35,-2.95c0.06667,-0.33333 0.1,-0.7 0.1,-1.1c-0.03333,-0.06667 -0.06667,-0.15 -0.1,-0.25c-0.1,-0.16667 -0.2,-0.35 -0.3,-0.55c-0.1,-0.16667 -0.16667,-0.33333 -0.2,-0.5c-0.03333,-0.1 -0.06667,-0.2 -0.1,-0.3c0,-0.06667 0,-0.15 0,-0.25c0,-0.1 0,-0.18333 0,-0.25c0.03333,-0.2 0.05,-0.38333 0.05,-0.55c0.03333,-0.1 0.05,-0.18333 0.05,-0.25c0.03333,-0.1 0.05,-0.2 0.05,-0.3c1.43333,-1.7 3.3,-2.73333 5.6,-3.1c5.56667,-0.9 11.11667,-1.46667 16.65,-1.7c5.13333,-0.5 10.1,0.18333 14.9,2.05c3.36667,1.3 6.25,3.28333 8.65,5.95c0.1,0.2 0.2,0.38333 0.3,0.55c0.8,1.1 1.55,2.25 2.25,3.45M649.70661,352.53784c-0.26667,-0.23333 -0.5,-0.5 -0.7,-0.8c-0.06667,-0.1 -0.13333,-0.2 -0.2,-0.3c-0.16667,-0.23333 -0.28333,-0.5 -0.35,-0.8c-1.86667,-2.03333 -4.06667,-3.53333 -6.6,-4.5c-4.5,-1.73333 -9.2,-2.36667 -14.1,-1.9c-2.7,0.26667 -5.38333,0.51667 -8.05,0.75c-2.9,0.26667 -5.71667,0.88333 -8.45,1.85c-0.03333,0.06667 -0.05,0.15 -0.05,0.25c0,0.1 0.01667,0.18333 0.05,0.25c0,0.1 0.01667,0.2 0.05,0.3c0,0.23333 0,0.5 0,0.8c0,0.16667 0.01667,0.33333 0.05,0.5c0.06667,0.36667 0.1,0.73333 0.1,1.1c0,0.26667 0.01667,0.53333 0.05,0.8c0.06667,0.53333 0.1,1.06667 0.1,1.6c0,0.23333 0.01667,0.46667 0.05,0.7c2.46667,-0.7 4.96667,-0.86667 7.5,-0.5c1.46667,0.23333 2.4,1.08333 2.8,2.55c0.06667,0.2 0.11667,0.38333 0.15,0.55c0,0.1 0,0.18333 0,0.25c0,0.1 0,0.2 0,0.3c0,0.06667 0,0.15 0,0.25c0.16667,0.26667 0.26667,0.53333 0.3,0.8c0.03333,0.1 0.05,0.2 0.05,0.3c0,0.23333 0,0.5 0,0.8c0.03333,0.16667 0.05,0.33333 0.05,0.5c0,0.2 0,0.38333 0,0.55c0,0.1 0,0.18333 0,0.25c0,0.1 0,0.2 0,0.3c0,0.06667 0.01667,0.15 0.05,0.25c0.03333,0.1 0.06667,0.18333 0.1,0.25c0.03333,0.1 0.06667,0.2 0.1,0.3c0.03333,0.1 0.06667,0.18333 0.1,0.25c0,0.26667 0,0.53333 0,0.8c0,0.1 0,0.2 0,0.3c0,0.23333 0,0.5 0,0.8c0,0.23333 0,0.5 0,0.8c0,0.06667 0,0.15 0,0.25c0,0.1 0,0.18333 0,0.25c0,0.26667 0,0.55 0,0.85c0.3,0.56667 0.43333,1.18333 0.4,1.85c-0.03333,0.7 -0.05,1.41667 -0.05,2.15c0,1.33333 0,2.66667 0,4c0,1.06667 0,2.15 0,3.25c0.06667,0.23333 0.13333,0.5 0.2,0.8c0.06667,0.23333 0.1,0.5 0.1,0.8c0.03333,0.43333 0.05,0.86667 0.05,1.3c0,0.36667 0,0.73333 0,1.1c0,0.63333 0,1.25 0,1.85c0,0.2 0,0.38333 0,0.55c0.36667,0.96667 0.38333,1.93333 0.05,2.9c-0.63333,1.86667 -2.05,2.83333 -4.25,2.9c-2,0.03333 -3.75,0.41667 -5.25,1.15c0.03333,0.2 0.06667,0.38333 0.1,0.55c0,0.1 0.01667,0.18333 0.05,0.25c0.03333,0.1 0.06667,0.2 0.1,0.3c0.03333,0.06667 0.06667,0.15 0.1,0.25c0,0.16667 0,0.35 0,0.55c0,0.1 0,0.18333 0,0.25c0,0.1 0,0.2 0,0.3c0,0.16667 0,0.33333 0,0.5c0,0.1 0,0.2 0,0.3c0.03333,0.06667 0.06667,0.15 0.1,0.25c0.03333,0.1 0.05,0.18333 0.05,0.25c0.03333,0.1 0.06667,0.2 0.1,0.3c0.03333,0.06667 0.06667,0.15 0.1,0.25c0,0.1 0,0.18333 0,0.25c0,0.1 0,0.2 0,0.3c0.03333,0.26667 0.1,0.53333 0.2,0.8c0.03333,0.1 0.06667,0.18333 0.1,0.25c0.03333,0.26667 0.08333,0.53333 0.15,0.8c0.03333,0.1 0.06667,0.2 0.1,0.3c0.03333,0.06667 0.05,0.15 0.05,0.25c7.2,0.93333 14.43333,0.35 21.7,-1.75c2.76667,-0.8 5.18333,-2.18333 7.25,-4.15c0.46667,-0.16667 0.85,-0.43333 1.15,-0.8c0.1,-0.1 0.2,-0.18333 0.3,-0.25c0.26667,-0.33333 0.58333,-0.6 0.95,-0.8c0.16667,-0.1 0.31667,-0.2 0.45,-0.3c0.16667,-0.16667 0.3,-0.35 0.4,-0.55c0.06667,-0.06667 0.11667,-0.15 0.15,-0.25c0.06667,-0.06667 0.11667,-0.15 0.15,-0.25c0.2,-0.2 0.38333,-0.38333 0.55,-0.55c0.1,-0.1 0.18333,-0.18333 0.25,-0.25c0.1,-0.1 0.2,-0.2 0.3,-0.3c0.06667,-0.16667 0.15,-0.33333 0.25,-0.5c0.06667,-0.1 0.13333,-0.18333 0.2,-0.25c0.06667,-0.1 0.15,-0.2 0.25,-0.3c0.06667,-0.16667 0.13333,-0.35 0.2,-0.55c0.03333,-0.06667 0.05,-0.15 0.05,-0.25c0.03333,-0.1 0.06667,-0.18333 0.1,-0.25c0.1,-0.2 0.2,-0.38333 0.3,-0.55c0.03333,-0.1 0.08333,-0.18333 0.15,-0.25c0.03333,-0.1 0.06667,-0.2 0.1,-0.3c0,-0.1 0,-0.18333 0,-0.25c0,-0.1 0,-0.2 0,-0.3c0.06667,-0.26667 0.15,-0.53333 0.25,-0.8c0.03333,-0.06667 0.06667,-0.15 0.1,-0.25c0.1,-0.26667 0.18333,-0.53333 0.25,-0.8c0.06667,-0.16667 0.13333,-0.35 0.2,-0.55c0.06667,-0.16667 0.13333,-0.33333 0.2,-0.5c0,-0.1 0.01667,-0.2 0.05,-0.3c0,-0.1 0,-0.18333 0,-0.25c0,-0.1 0,-0.2 0,-0.3c0,-0.06667 0,-0.15 0,-0.25c0,-0.1 0,-0.18333 0,-0.25c0.03333,-0.1 0.06667,-0.2 0.1,-0.3c0.03333,-0.06667 0.06667,-0.15 0.1,-0.25c0.03333,-0.1 0.06667,-0.18333 0.1,-0.25c0.03333,-0.1 0.06667,-0.2 0.1,-0.3c0,-0.06667 0,-0.15 0,-0.25c0,-0.1 0,-0.18333 0,-0.25c0,-0.1 0,-0.2 0,-0.3c0,-0.06667 0,-0.15 0,-0.25c0,-0.1 0.01667,-0.18333 0.05,-0.25c0.03333,-0.1 0.06667,-0.2 0.1,-0.3c0.03333,-0.1 0.06667,-0.18333 0.1,-0.25c0.03333,-0.1 0.06667,-0.2 0.1,-0.3c0,-0.26667 0,-0.53333 0,-0.8c0,-0.06667 -0.01667,-0.15 -0.05,-0.25c0,-0.26667 0.03333,-0.53333 0.1,-0.8c0,-0.1 0.01667,-0.18333 0.05,-0.25c0.1,-0.26667 0.21667,-0.53333 0.35,-0.8c0,-0.46667 0,-0.91667 0,-1.35c0,-0.53333 0,-1.06667 0,-1.6c0,-0.53333 0,-1.08333 0,-1.65c0,-0.6 0,-1.21667 0,-1.85c0,-0.36667 0,-0.71667 0,-1.05c-0.06667,-0.2 -0.13333,-0.38333 -0.2,-0.55c-0.03333,-0.1 -0.06667,-0.2 -0.1,-0.3c-0.03333,-0.06667 -0.06667,-0.15 -0.1,-0.25c0,-0.1 -0.01667,-0.18333 -0.05,-0.25c0,-0.2 0,-0.38333 0,-0.55c0,-0.1 0,-0.18333 0,-0.25c0,-0.1 0,-0.2 0,-0.3c0,-0.06667 0,-0.15 0,-0.25c-0.1,-0.26667 -0.18333,-0.53333 -0.25,-0.8c-0.03333,-0.1 -0.05,-0.18333 -0.05,-0.25c-0.03333,-0.3 -0.08333,-0.56667 -0.15,-0.8c-0.03333,-0.1 -0.06667,-0.2 -0.1,-0.3c-0.06667,-0.16667 -0.13333,-0.35 -0.2,-0.55c0,-0.06667 0,-0.15 0,-0.25c0,-0.1 0,-0.18333 0,-0.25c0,-0.1 0,-0.2 0,-0.3c0,-0.06667 0,-0.15 0,-0.25c-0.06667,-0.26667 -0.15,-0.53333 -0.25,-0.8c-0.03333,-0.1 -0.05,-0.18333 -0.05,-0.25c-0.03333,-0.3 -0.1,-0.58333 -0.2,-0.85c-0.06667,-0.16667 -0.13333,-0.33333 -0.2,-0.5c-0.06667,-0.2 -0.11667,-0.38333 -0.15,-0.55c-0.03333,-0.1 -0.06667,-0.18333 -0.1,-0.25c-0.03333,-0.1 -0.06667,-0.2 -0.1,-0.3c0,-0.06667 0,-0.15 0,-0.25c0,-0.1 0,-0.18333 0,-0.25c-0.1,-0.3 -0.23333,-0.58333 -0.4,-0.85c-0.06667,-0.06667 -0.11667,-0.15 -0.15,-0.25c-0.1,-0.26667 -0.18333,-0.53333 -0.25,-0.8c-0.03333,-0.1 -0.06667,-0.18333 -0.1,-0.25M632.20661,354.73784c2.36667,0.06667 4.63333,0.6 6.8,1.6c1.53333,0.73333 2.71667,1.78333 3.55,3.15c0.53333,0.53333 1.08333,1.05 1.65,1.55c0.66667,0.63333 1.18333,1.36667 1.55,2.2c0.36667,0.93333 0.66667,1.91667 0.9,2.95c0,0.26667 0,0.53333 0,0.8c0,0.36667 0,0.71667 0,1.05c0,0.36667 0,0.73333 0,1.1c0,0.43333 0,0.88333 0,1.35c0,0.06667 0,0.15 0,0.25c0,0.1 -0.01667,0.18333 -0.05,0.25c-0.03333,0.1 -0.06667,0.2 -0.1,0.3c-0.03333,0.06667 -0.06667,0.15 -0.1,0.25c-0.03333,0.1 -0.06667,0.18333 -0.1,0.25c0.06667,0.5 0.01667,0.96667 -0.15,1.4c-0.2,0.53333 -0.4,1.06667 -0.6,1.6c-0.3,0.9 -0.71667,1.78333 -1.25,2.65c-0.2,0.33333 -0.36667,0.68333 -0.5,1.05c-0.06667,0.1 -0.13333,0.2 -0.2,0.3c-0.06667,0.06667 -0.15,0.15 -0.25,0.25c-0.06667,0.1 -0.15,0.18333 -0.25,0.25c-0.1,0.1 -0.18333,0.2 -0.25,0.3c-0.76667,1.33333 -1.86667,2.33333 -3.3,3c-2.7,1.33333 -5.45,1.61667 -8.25,0.85c-0.06667,-0.1 -0.15,-0.2 -0.25,-0.3c-0.06667,-0.06667 -0.13333,-0.15 -0.2,-0.25c-0.03333,-0.1 -0.08333,-0.18333 -0.15,-0.25c-0.06667,-0.1 -0.13333,-0.2 -0.2,-0.3c0,-0.1 0,-0.18333 0,-0.25c-0.03333,-0.1 -0.05,-0.2 -0.05,-0.3c-0.03333,-0.06667 -0.05,-0.15 -0.05,-0.25c0,-0.1 0,-0.18333 0,-0.25c0,-0.1 0,-0.2 0,-0.3c0,-0.06667 0,-0.15 0,-0.25c0,-0.1 0,-0.18333 0,-0.25c0,-0.1 -0.01667,-0.2 -0.05,-0.3c-0.03333,-0.06667 -0.06667,-0.15 -0.1,-0.25c-0.03333,-0.1 -0.06667,-0.18333 -0.1,-0.25c0,-0.1 0,-0.2 0,-0.3c0,-0.06667 0,-0.15 0,-0.25c0,-0.1 0,-0.18333 0,-0.25c0,-0.1 0,-0.2 0,-0.3c0,-0.1 0,-0.18333 0,-0.25c0,-0.1 0,-0.2 0,-0.3c-0.03333,-0.06667 -0.06667,-0.15 -0.1,-0.25c-0.03333,-0.1 -0.05,-0.18333 -0.05,-0.25c-0.03333,-0.1 -0.06667,-0.2 -0.1,-0.3c0,-0.06667 0,-0.15 0,-0.25c0,-0.16667 0,-0.35 0,-0.55c0,-0.16667 0,-0.33333 0,-0.5c0,-0.1 0,-0.2 0,-0.3c0.03333,-0.16667 0.06667,-0.33333 0.1,-0.5c0,-0.1 -0.01667,-0.2 -0.05,-0.3c-0.03333,-0.1 -0.08333,-0.18333 -0.15,-0.25c-0.03333,-0.1 -0.06667,-0.2 -0.1,-0.3c-0.03333,-0.06667 -0.06667,-0.15 -0.1,-0.25c0,-0.1 0,-0.18333 0,-0.25c0,-0.2 0.01667,-0.38333 0.05,-0.55c0,-0.16667 0.01667,-0.35 0.05,-0.55c0,-0.06667 0,-0.15 0,-0.25c0,-0.16667 0,-0.35 0,-0.55c0,-0.06667 -0.01667,-0.15 -0.05,-0.25c-0.03333,-0.1 -0.06667,-0.2 -0.1,-0.3c-0.03333,-0.06667 -0.06667,-0.15 -0.1,-0.25c-0.03333,-0.1 -0.06667,-0.18333 -0.1,-0.25c0,-0.2 0,-0.38333 0,-0.55c0,-0.26667 0,-0.53333 0,-0.8c0.03333,-0.26667 0.05,-0.53333 0.05,-0.8c0.03333,-0.26667 0.05,-0.53333 0.05,-0.8c0,-0.26667 0,-0.53333 0,-0.8c-0.03333,-0.1 -0.06667,-0.2 -0.1,-0.3c-0.03333,-0.06667 -0.06667,-0.15 -0.1,-0.25c-0.03333,-0.1 -0.06667,-0.18333 -0.1,-0.25c0,-0.1 0,-0.2 0,-0.3c0,-0.26667 0,-0.53333 0,-0.8c0,-0.16667 0.03333,-0.33333 0.1,-0.5c0.03333,-0.26667 0.05,-0.53333 0.05,-0.8c-0.03333,-0.3 -0.05,-0.58333 -0.05,-0.85c0,-0.06667 -0.01667,-0.15 -0.05,-0.25c-0.03333,-0.1 -0.06667,-0.18333 -0.1,-0.25c-0.03333,-0.1 -0.06667,-0.2 -0.1,-0.3c0,-0.06667 0,-0.15 0,-0.25c0,-0.1 0,-0.18333 0,-0.25c0,-0.1 0,-0.2 0,-0.3c0,-0.06667 0,-0.15 0,-0.25c0,-0.1 0,-0.18333 0,-0.25c0,-0.1 0,-0.2 0,-0.3c0.03333,-0.06667 0.06667,-0.15 0.1,-0.25c0.03333,-0.1 0.05,-0.2 0.05,-0.3c0,-0.06667 0,-0.15 0,-0.25c0,-0.06667 0,-0.15 0,-0.25c0,-0.1 -0.01667,-0.2 -0.05,-0.3c-0.03333,-0.06667 -0.06667,-0.15 -0.1,-0.25c-0.03333,-0.1 -0.06667,-0.18333 -0.1,-0.25c0,-0.1 0,-0.2 0,-0.3c0,-0.06667 0,-0.15 0,-0.25c0,-0.1 0,-0.18333 0,-0.25c0,-0.1 0,-0.2 0,-0.3c0.03333,-0.06667 0.06667,-0.15 0.1,-0.25c0.03333,-0.1 0.06667,-0.18333 0.1,-0.25c0.03333,-0.1 0.06667,-0.2 0.1,-0.3c0.03333,-0.06667 0.06667,-0.15 0.1,-0.25c0.03333,-0.1 0.06667,-0.2 0.1,-0.3c0.06667,-0.06667 0.11667,-0.15 0.15,-0.25c0.06667,-0.06667 0.15,-0.15 0.25,-0.25c0.1,-0.1 0.18333,-0.2 0.25,-0.3c0.1,-0.06667 0.2,-0.15 0.3,-0.25c0.1,-0.06667 0.21667,-0.11667 0.35,-0.15c0.16667,-0.06667 0.35,-0.11667 0.55,-0.15c0.3,-0.06667 0.61667,-0.13333 0.95,-0.2v-0.05M633.00661,363.88784c0.03333,0.53333 0.06667,1.06667 0.1,1.6c0.03333,0.06667 0.06667,0.15 0.1,0.25c0.06667,0.16667 0.11667,0.35 0.15,0.55c0.03333,0.06667 0.06667,0.15 0.1,0.25c0.06667,0.7 0.1,1.41667 0.1,2.15c0,0.73333 0.15,1.45 0.45,2.15c0,0.53333 0.01667,1.06667 0.05,1.6c0,0.56667 0.13333,1.1 0.4,1.6c0,0.26667 0,0.53333 0,0.8c0.03333,0.26667 0.05,0.53333 0.05,0.8c0.03333,0.1 0.05,0.2 0.05,0.3c0.03333,0.16667 0.08333,0.33333 0.15,0.5c0.06667,0.2 0.13333,0.38333 0.2,0.55c0.03333,0.1 0.05,0.18333 0.05,0.25c0,0.1 0,0.2 0,0.3c0,0.06667 0,0.15 0,0.25c0,0.1 0,0.18333 0,0.25c2.63333,-0.33333 4.38333,-1.93333 5.25,-4.8c0.23333,-0.73333 0.48333,-1.45 0.75,-2.15c0,-0.36667 0.01667,-0.71667 0.05,-1.05c0.03333,-0.36667 0.13333,-0.73333 0.3,-1.1c0,-0.16667 0,-0.33333 0,-0.5c0,-0.2 0,-0.38333 0,-0.55c0,-0.1 0,-0.18333 0,-0.25c-0.1,-0.36667 -0.18333,-0.73333 -0.25,-1.1c-0.1,-0.36667 -0.21667,-0.71667 -0.35,-1.05c-0.1,-0.1 -0.2,-0.2 -0.3,-0.3c-0.16667,-0.16667 -0.33333,-0.33333 -0.5,-0.5c-0.13333,-0.43333 -0.36667,-0.8 -0.7,-1.1c-0.3,-0.26667 -0.58333,-0.53333 -0.85,-0.8c-1.7,-1.16667 -3.51667,-1.88333 -5.45,-2.15c-0.1,0.1 -0.21667,0.2 -0.35,0.3c0.03333,0.16667 0.08333,0.33333 0.15,0.5c0.06667,0.2 0.13333,0.38333 0.2,0.55c0.03333,0.1 0.06667,0.18333 0.1,0.25c0,0.56667 0,1.11667 0,1.65z" fill="#000000"/><path d="M649.80661,352.78784c0.06667,0.26667 0.15,0.53333 0.25,0.8c0.03333,0.1 0.08333,0.18333 0.15,0.25c0.16667,0.26667 0.3,0.55 0.4,0.85c0,0.06667 0,0.15 0,0.25c0,0.1 0,0.18333 0,0.25c0.03333,0.1 0.06667,0.2 0.1,0.3c0.03333,0.06667 0.06667,0.15 0.1,0.25c0.03333,0.16667 0.08333,0.35 0.15,0.55c0.06667,0.16667 0.13333,0.33333 0.2,0.5c0.1,0.26667 0.16667,0.55 0.2,0.85c0,0.06667 0.01667,0.15 0.05,0.25c0.1,0.26667 0.18333,0.53333 0.25,0.8c0,0.1 0,0.18333 0,0.25c0,0.1 0,0.2 0,0.3c0,0.06667 0,0.15 0,0.25c0,0.1 0,0.18333 0,0.25c0.06667,0.2 0.13333,0.38333 0.2,0.55c0.03333,0.1 0.06667,0.2 0.1,0.3c0.06667,0.23333 0.11667,0.5 0.15,0.8c0,0.06667 0.01667,0.15 0.05,0.25c0.06667,0.26667 0.15,0.53333 0.25,0.8c0,0.1 0,0.18333 0,0.25c0,0.1 0,0.2 0,0.3c0,0.06667 0,0.15 0,0.25c0,0.16667 0,0.35 0,0.55c0.03333,0.06667 0.05,0.15 0.05,0.25c0.03333,0.1 0.06667,0.18333 0.1,0.25c0.03333,0.1 0.06667,0.2 0.1,0.3c0.06667,0.16667 0.13333,0.35 0.2,0.55c0,0.33333 0,0.68333 0,1.05c0,0.63333 0,1.25 0,1.85c0,0.56667 0,1.11667 0,1.65c0,0.53333 0,1.06667 0,1.6c0,0.43333 0,0.88333 0,1.35c-0.13333,0.26667 -0.25,0.53333 -0.35,0.8c-0.03333,0.06667 -0.05,0.15 -0.05,0.25c-0.06667,0.26667 -0.1,0.53333 -0.1,0.8c0.03333,0.1 0.05,0.18333 0.05,0.25c0,0.26667 0,0.53333 0,0.8c-0.03333,0.1 -0.06667,0.2 -0.1,0.3c-0.03333,0.06667 -0.06667,0.15 -0.1,0.25c-0.03333,0.1 -0.06667,0.2 -0.1,0.3c-0.03333,0.06667 -0.05,0.15 -0.05,0.25c0,0.1 0,0.18333 0,0.25c0,0.1 0,0.2 0,0.3c0,0.06667 0,0.15 0,0.25c0,0.1 0,0.18333 0,0.25c-0.03333,0.1 -0.06667,0.2 -0.1,0.3c-0.03333,0.06667 -0.06667,0.15 -0.1,0.25c-0.03333,0.1 -0.06667,0.18333 -0.1,0.25c-0.03333,0.1 -0.06667,0.2 -0.1,0.3c0,0.06667 0,0.15 0,0.25c0,0.1 0,0.18333 0,0.25c0,0.1 0,0.2 0,0.3c0,0.06667 0,0.15 0,0.25c-0.03333,0.1 -0.05,0.2 -0.05,0.3c-0.06667,0.16667 -0.13333,0.33333 -0.2,0.5c-0.06667,0.2 -0.13333,0.38333 -0.2,0.55c-0.06667,0.26667 -0.15,0.53333 -0.25,0.8c-0.03333,0.1 -0.06667,0.18333 -0.1,0.25c-0.1,0.26667 -0.18333,0.53333 -0.25,0.8c0,0.1 0,0.2 0,0.3c0,0.06667 0,0.15 0,0.25c-0.03333,0.1 -0.06667,0.2 -0.1,0.3c-0.06667,0.06667 -0.11667,0.15 -0.15,0.25c-0.1,0.16667 -0.2,0.35 -0.3,0.55c-0.03333,0.06667 -0.06667,0.15 -0.1,0.25c0,0.1 -0.01667,0.18333 -0.05,0.25c-0.06667,0.2 -0.13333,0.38333 -0.2,0.55c-0.1,0.1 -0.18333,0.2 -0.25,0.3c-0.06667,0.06667 -0.13333,0.15 -0.2,0.25c-0.1,0.16667 -0.18333,0.33333 -0.25,0.5c-0.1,0.1 -0.2,0.2 -0.3,0.3c-0.06667,0.06667 -0.15,0.15 -0.25,0.25c-0.16667,0.16667 -0.35,0.35 -0.55,0.55c-0.03333,0.1 -0.08333,0.18333 -0.15,0.25c-0.03333,0.1 -0.08333,0.18333 -0.15,0.25c-0.1,0.2 -0.23333,0.38333 -0.4,0.55c-0.13333,0.1 -0.28333,0.2 -0.45,0.3c-0.36667,0.2 -0.68333,0.46667 -0.95,0.8c-0.1,0.06667 -0.2,0.15 -0.3,0.25c-0.3,0.36667 -0.68333,0.63333 -1.15,0.8c-2.06667,1.96667 -4.48333,3.35 -7.25,4.15c-7.26667,2.1 -14.5,2.68333 -21.7,1.75c0,-0.1 -0.01667,-0.18333 -0.05,-0.25c-0.03333,-0.1 -0.06667,-0.2 -0.1,-0.3c-0.06667,-0.26667 -0.11667,-0.53333 -0.15,-0.8c-0.03333,-0.06667 -0.06667,-0.15 -0.1,-0.25c-0.1,-0.26667 -0.16667,-0.53333 -0.2,-0.8c0,-0.1 0,-0.2 0,-0.3c0,-0.06667 0,-0.15 0,-0.25c-0.03333,-0.1 -0.06667,-0.18333 -0.1,-0.25c-0.03333,-0.1 -0.06667,-0.2 -0.1,-0.3c0,-0.06667 -0.01667,-0.15 -0.05,-0.25c-0.03333,-0.1 -0.06667,-0.18333 -0.1,-0.25c0,-0.1 0,-0.2 0,-0.3c0,-0.16667 0,-0.33333 0,-0.5c0,-0.1 0,-0.2 0,-0.3c0,-0.06667 0,-0.15 0,-0.25c0,-0.2 0,-0.38333 0,-0.55c-0.03333,-0.1 -0.06667,-0.18333 -0.1,-0.25c-0.03333,-0.1 -0.06667,-0.2 -0.1,-0.3c-0.03333,-0.06667 -0.05,-0.15 -0.05,-0.25c-0.03333,-0.16667 -0.06667,-0.35 -0.1,-0.55c1.5,-0.73333 3.25,-1.11667 5.25,-1.15c2.2,-0.06667 3.61667,-1.03333 4.25,-2.9c0.33333,-0.96667 0.31667,-1.93333 -0.05,-2.9c0,-0.16667 0,-0.35 0,-0.55c0,-0.6 0,-1.21667 0,-1.85c0,-0.36667 0,-0.73333 0,-1.1c0,-0.43333 -0.01667,-0.86667 -0.05,-1.3c0,-0.3 -0.03333,-0.56667 -0.1,-0.8c-0.06667,-0.3 -0.13333,-0.56667 -0.2,-0.8c0,-1.1 0,-2.18333 0,-3.25c0,-1.33333 0,-2.66667 0,-4c0,-0.73333 0.01667,-1.45 0.05,-2.15c0.03333,-0.66667 -0.1,-1.28333 -0.4,-1.85c0,-0.3 0,-0.58333 0,-0.85c0,-0.06667 0,-0.15 0,-0.25c0,-0.1 0,-0.18333 0,-0.25c0,-0.3 0,-0.56667 0,-0.8c0,-0.3 0,-0.56667 0,-0.8c0,-0.1 0,-0.2 0,-0.3c0,-0.26667 0,-0.53333 0,-0.8c-0.03333,-0.06667 -0.06667,-0.15 -0.1,-0.25c-0.03333,-0.1 -0.06667,-0.2 -0.1,-0.3c-0.03333,-0.06667 -0.06667,-0.15 -0.1,-0.25c-0.03333,-0.1 -0.05,-0.18333 -0.05,-0.25c0,-0.1 0,-0.2 0,-0.3c0,-0.06667 0,-0.15 0,-0.25c0,-0.16667 0,-0.35 0,-0.55c0,-0.16667 -0.01667,-0.33333 -0.05,-0.5c0,-0.3 0,-0.56667 0,-0.8c0,-0.1 -0.01667,-0.2 -0.05,-0.3c-0.03333,-0.26667 -0.13333,-0.53333 -0.3,-0.8c0,-0.1 0,-0.18333 0,-0.25c0,-0.1 0,-0.2 0,-0.3c0,-0.06667 0,-0.15 0,-0.25c-0.03333,-0.16667 -0.08333,-0.35 -0.15,-0.55c-0.4,-1.46667 -1.33333,-2.31667 -2.8,-2.55c-2.53333,-0.36667 -5.03333,-0.2 -7.5,0.5c-0.03333,-0.23333 -0.05,-0.46667 -0.05,-0.7c0,-0.53333 -0.03333,-1.06667 -0.1,-1.6c-0.03333,-0.26667 -0.05,-0.53333 -0.05,-0.8c0,-0.36667 -0.03333,-0.73333 -0.1,-1.1c-0.03333,-0.16667 -0.05,-0.33333 -0.05,-0.5c0,-0.3 0,-0.56667 0,-0.8c-0.03333,-0.1 -0.05,-0.2 -0.05,-0.3c-0.03333,-0.06667 -0.05,-0.15 -0.05,-0.25c0,-0.1 0.01667,-0.18333 0.05,-0.25c2.73333,-0.96667 5.55,-1.58333 8.45,-1.85c2.66667,-0.23333 5.35,-0.48333 8.05,-0.75c4.9,-0.46667 9.6,0.16667 14.1,1.9c2.53333,0.96667 4.73333,2.46667 6.6,4.5c0.06667,0.3 0.18333,0.56667 0.35,0.8c0.06667,0.1 0.13333,0.2 0.2,0.3c0.2,0.3 0.43333,0.56667 0.7,0.8c0.03333,0.06667 0.06667,0.15 0.1,0.25M631.25661,354.98784c-0.2,0.03333 -0.38333,0.08333 -0.55,0.15c-0.13333,0.03333 -0.25,0.08333 -0.35,0.15c-0.1,0.1 -0.2,0.18333 -0.3,0.25c-0.06667,0.1 -0.15,0.2 -0.25,0.3c-0.1,0.1 -0.18333,0.18333 -0.25,0.25c-0.03333,0.1 -0.08333,0.18333 -0.15,0.25c-0.03333,0.1 -0.06667,0.2 -0.1,0.3c-0.03333,0.1 -0.06667,0.18333 -0.1,0.25c-0.03333,0.1 -0.06667,0.2 -0.1,0.3c-0.03333,0.06667 -0.06667,0.15 -0.1,0.25c-0.03333,0.1 -0.06667,0.18333 -0.1,0.25c0,0.1 0,0.2 0,0.3c0,0.06667 0,0.15 0,0.25c0,0.1 0,0.18333 0,0.25c0,0.1 0,0.2 0,0.3c0.03333,0.06667 0.06667,0.15 0.1,0.25c0.03333,0.1 0.06667,0.18333 0.1,0.25c0.03333,0.1 0.05,0.2 0.05,0.3c0,0.1 0,0.18333 0,0.25c0,0.1 0,0.18333 0,0.25c0,0.1 -0.01667,0.2 -0.05,0.3c-0.03333,0.1 -0.06667,0.18333 -0.1,0.25c0,0.1 0,0.2 0,0.3c0,0.06667 0,0.15 0,0.25c0,0.1 0,0.18333 0,0.25c0,0.1 0,0.2 0,0.3c0,0.06667 0,0.15 0,0.25c0,0.1 0,0.18333 0,0.25c0.03333,0.1 0.06667,0.2 0.1,0.3c0.03333,0.06667 0.06667,0.15 0.1,0.25c0.03333,0.1 0.05,0.18333 0.05,0.25c0,0.26667 0.01667,0.55 0.05,0.85c0,0.26667 -0.01667,0.53333 -0.05,0.8c-0.06667,0.16667 -0.1,0.33333 -0.1,0.5c0,0.26667 0,0.53333 0,0.8c0,0.1 0,0.2 0,0.3c0.03333,0.06667 0.06667,0.15 0.1,0.25c0.03333,0.1 0.06667,0.18333 0.1,0.25c0.03333,0.1 0.06667,0.2 0.1,0.3c0,0.26667 0,0.53333 0,0.8c0,0.26667 -0.01667,0.53333 -0.05,0.8c0,0.26667 -0.01667,0.53333 -0.05,0.8c0,0.26667 0,0.53333 0,0.8c0,0.16667 0,0.35 0,0.55c0.03333,0.06667 0.06667,0.15 0.1,0.25c0.03333,0.1 0.06667,0.18333 0.1,0.25c0.03333,0.1 0.06667,0.2 0.1,0.3c0.03333,0.1 0.05,0.18333 0.05,0.25c0,0.2 0,0.38333 0,0.55c0,0.1 0,0.18333 0,0.25c-0.03333,0.2 -0.05,0.38333 -0.05,0.55c-0.03333,0.16667 -0.05,0.35 -0.05,0.55c0,0.06667 0,0.15 0,0.25c0.03333,0.1 0.06667,0.18333 0.1,0.25c0.03333,0.1 0.06667,0.2 0.1,0.3c0.06667,0.06667 0.11667,0.15 0.15,0.25c0.03333,0.1 0.05,0.2 0.05,0.3c-0.03333,0.16667 -0.06667,0.33333 -0.1,0.5c0,0.1 0,0.2 0,0.3c0,0.16667 0,0.33333 0,0.5c0,0.2 0,0.38333 0,0.55c0,0.1 0,0.18333 0,0.25c0.03333,0.1 0.06667,0.2 0.1,0.3c0,0.06667 0.01667,0.15 0.05,0.25c0.03333,0.1 0.06667,0.18333 0.1,0.25c0,0.1 0,0.2 0,0.3c0,0.06667 0,0.15 0,0.25c0,0.1 0,0.2 0,0.3c0,0.06667 0,0.15 0,0.25c0,0.1 0,0.18333 0,0.25c0,0.1 0,0.2 0,0.3c0.03333,0.06667 0.06667,0.15 0.1,0.25c0.03333,0.1 0.06667,0.18333 0.1,0.25c0.03333,0.1 0.05,0.2 0.05,0.3c0,0.06667 0,0.15 0,0.25c0,0.1 0,0.18333 0,0.25c0,0.1 0,0.2 0,0.3c0,0.06667 0,0.15 0,0.25c0,0.1 0.01667,0.18333 0.05,0.25c0,0.1 0.01667,0.2 0.05,0.3c0,0.06667 0,0.15 0,0.25c0.06667,0.1 0.13333,0.2 0.2,0.3c0.06667,0.06667 0.11667,0.15 0.15,0.25c0.06667,0.1 0.13333,0.18333 0.2,0.25c0.1,0.1 0.18333,0.2 0.25,0.3c2.8,0.76667 5.55,0.48333 8.25,-0.85c1.43333,-0.66667 2.53333,-1.66667 3.3,-3c0.06667,-0.1 0.15,-0.2 0.25,-0.3c0.1,-0.06667 0.18333,-0.15 0.25,-0.25c0.1,-0.1 0.18333,-0.18333 0.25,-0.25c0.06667,-0.1 0.13333,-0.2 0.2,-0.3c0.13333,-0.36667 0.3,-0.71667 0.5,-1.05c0.53333,-0.86667 0.95,-1.75 1.25,-2.65c0.2,-0.53333 0.4,-1.06667 0.6,-1.6c0.16667,-0.43333 0.21667,-0.9 0.15,-1.4c0.03333,-0.06667 0.06667,-0.15 0.1,-0.25c0.03333,-0.1 0.06667,-0.18333 0.1,-0.25c0.03333,-0.1 0.06667,-0.2 0.1,-0.3c0.03333,-0.06667 0.05,-0.15 0.05,-0.25c0,-0.1 0,-0.18333 0,-0.25c0,-0.46667 0,-0.91667 0,-1.35c0,-0.36667 0,-0.73333 0,-1.1c0,-0.33333 0,-0.68333 0,-1.05c0,-0.26667 0,-0.53333 0,-0.8c-0.23333,-1.03333 -0.53333,-2.01667 -0.9,-2.95c-0.36667,-0.83333 -0.88333,-1.56667 -1.55,-2.2c-0.56667,-0.5 -1.11667,-1.01667 -1.65,-1.55c-0.83333,-1.36667 -2.01667,-2.41667 -3.55,-3.15c-2.16667,-1 -4.43333,-1.53333 -6.8,-1.6v0.05c-0.33333,0.06667 -0.65,0.13333 -0.95,0.2z" fill="#ffffff"/></g></g></svg>