<svg version="1.1" xmlns="http://www.w3.org/2000/svg" xmlns:xlink="http://www.w3.org/1999/xlink" width="441.5" height="523.57371" viewBox="0,0,441.5,523.57371"><g transform="translate(-581.6,-104.52629)"><g data-paper-data="{&quot;isPaintingLayer&quot;:true}" fill-rule="nonzero" stroke="none" stroke-width="1" stroke-linecap="butt" stroke-linejoin="miter" stroke-miterlimit="10" stroke-dasharray="" stroke-dashoffset="0" style="mix-blend-mode: normal"><path d="M884.65,464.85c-1.61172,-1.87422 -3.52839,-3.07422 -5.75,-3.6c0.97513,-1.92969 1.8918,-4.01302 2.75,-6.25c1.83711,-4.85937 3.30378,-10.17604 4.4,-15.95c1.56667,3.73841 2.35,6.82174 2.35,9.25c0,5.89023 -1.25,11.4069 -3.75,16.55M854.85,361c-1.43307,1.05625 -2.96641,2.32292 -4.6,3.8c-4.68438,4.21589 -7.90104,8.59922 -9.65,13.15c-0.59036,1.5931 -1.00703,3.20977 -1.25,4.85c-1.14779,-3.34141 -4.06445,-9.30807 -8.75,-17.9c0.29427,0.18672 0.5776,0.32005 0.85,0.4c0.04336,0.07669 0.09336,0.14336 0.15,0.2l0.3,-0.05c0.14974,0.03333 0.29974,0.05 0.45,0.05c0.61784,0 1.08451,-0.08333 1.4,-0.25c0.04141,0 0.07474,0 0.1,0c0.4069,0 0.97357,-0.1 1.7,-0.3c0.84766,-0.1819 1.89766,-0.4819 3.15,-0.9c0.75443,-0.26094 1.58776,-0.56094 2.5,-0.9c3.76667,-1.43333 7.81667,-2.15 12.15,-2.15c0.50612,0 1.00612,0 1.5,0M877.4,475.3c-1.40768,1.52188 -2.85768,2.88854 -4.35,4.1c-2.35156,0.58828 -4.3349,0.97161 -5.95,1.15c-0.36706,-1.70104 -0.86706,-3.08437 -1.5,-4.15c4.79401,-2.6957 8.91068,-7.1457 12.35,-13.35c0.5263,1.16797 1.40964,2.66797 2.65,4.5c0.49388,0.73698 0.92721,1.42031 1.3,2.05c-1.29831,1.95911 -2.79831,3.85911 -4.5,5.7M867.65,484.05c0.26602,0.05703 0.54935,0.10703 0.85,0.15c1.63333,0.2 3.08333,0.3 4.35,0.3c2.60313,0 5.35313,-0.58333 8.25,-1.75c-1.77591,4.33529 -5.45924,8.38529 -11.05,12.15c-3.86667,2.63333 -10.43333,6.6 -19.7,11.9c1.23333,0.9 4.43333,2.08333 9.6,3.55c4.28138,1.2056 7.93138,1.9556 10.95,2.25c-4.34688,1.26667 -9.53021,1.9 -15.55,1.9c-3.06667,0 -5.38333,-0.53333 -6.95,-1.6c-0.23073,-0.16549 -0.4474,-0.31549 -0.65,-0.45c0.06667,-0.4694 0.1,-0.9194 0.1,-1.35c0,-1.13333 -0.2,-1.9 -0.6,-2.3c-0.23333,-0.23333 -0.86667,-0.5 -1.9,-0.8c-0.3,0.26667 -1.53333,2.1 -3.7,5.5c-2.73333,4 -5.61667,7.51667 -8.65,10.55c-1.04297,1.04648 -2.10964,2.02982 -3.2,2.95c-7.98034,6.97487 -16.88034,10.9082 -26.7,11.8c-1.44727,0.13333 -2.91393,0.2 -4.4,0.2c-6.03346,0 -12.08346,-1.3 -18.15,-3.9c0.59818,0.19505 1.19818,0.32839 1.8,0.4c6.23333,-0.8 11.1,-2.66667 14.6,-5.6c3.53333,-3.8 6.5,-6.76667 8.9,-8.9c2,-1.7 5.28333,-5.18333 9.85,-10.45c2.03594,-2.34206 3.6026,-4.19206 4.7,-5.55h15.95c7.5,-0.6 14.66667,-2.73333 21.5,-6.4c6.66667,-3.6 10,-6.93333 10,-10c0,-1.62435 -0.06667,-3.14102 -0.2,-4.55M756.1,431.85c0,1.83333 0.36667,5 1.1,9.5c1.13333,6.8 2.75,13.01667 4.85,18.65c6.56667,17.66667 16.5,26.5 29.8,26.5c11.56667,0 21.13333,-7.91667 28.7,-23.75c2.56667,-5.33333 4.68333,-11.15 6.35,-17.45c0.05104,-0.19349 0.10104,-0.39349 0.15,-0.6c0.26549,1.46953 0.64883,3.1362 1.15,5c1.26667,4.66667 2.9,9.01667 4.9,13.05c5.53333,11.16667 12.28333,16.75 20.25,16.75c2.90911,0 5.64245,-0.43333 8.2,-1.3c0.70794,2.85964 0.72461,5.39297 0.05,7.6c-3.10273,1 -6.35273,1.5 -9.75,1.5c-6.36667,0 -12.05,-2.11667 -17.05,-6.35c-5.03333,-4.26667 -7.51667,-9.15 -7.45,-14.65h-0.5c-1.23333,7 -5.3,13.53333 -12.2,19.6c-7.13333,6.26667 -14.48333,9.4 -22.05,9.4c-2.43242,0 -4.76576,-0.18333 -7,-0.55c-2.74583,-0.73333 -5.34583,-1.56667 -7.8,-2.5c-1.87161,-0.71602 -3.65495,-1.48268 -5.35,-2.3c-4.19492,-2.60156 -7.89492,-6.15156 -11.1,-10.65c-6.19596,-8.67435 -9.64596,-19.47435 -10.35,-32.4c0.06667,-0.75521 0.1,-1.27188 0.1,-1.55c0,-0.9 -0.05,-1.48333 -0.15,-1.75c-0.02604,-0.06862 -0.05938,-0.13529 -0.1,-0.2c0,-0.53021 0,-1.06354 0,-1.6c0,-3.66667 1.13333,-9.58333 3.4,-17.75c0.78138,-2.84023 1.48138,-5.24023 2.1,-7.2c-0.16667,4.25573 -0.25,9.25573 -0.25,15M711.85,443.35c1,0.96667 2.16667,1.45 3.5,1.45c1.11641,0 2.49974,-0.23333 4.15,-0.7c-1.6,2.82096 -2.4,5.7043 -2.4,8.65c0,0.13333 -0.08333,0.6 -0.25,1.4c-0.1,0.9 -0.01667,1.7 0.25,2.4c0.9,2.13333 3.65,3.2 8.25,3.2c2.76667,0 6.45,-1.26667 11.05,-3.8c2.4,-1.3 4.96667,-2.78333 7.7,-4.45c0.5,3.5 0.13333,8.8 -1.1,15.9c-0.16224,6.09857 2.38776,11.1819 7.65,15.25c0.23359,2.76302 1.13359,6.57969 2.7,11.45c1.93333,5.96667 4.35,11.85 7.25,17.65c0.81901,1.63789 1.63568,3.18789 2.45,4.65c4.66432,8.43685 9.23099,14.08685 13.7,16.95c-3.78151,-1.93333 -7.58151,-4.36667 -11.4,-7.3c-0.17279,-0.14779 -0.35612,-0.29779 -0.55,-0.45c-3.44805,-4.80951 -7.01471,-8.25951 -10.7,-10.35c0.12227,0.32057 0.23893,0.63724 0.35,0.95c-1.50195,-1.55781 -2.98529,-3.19115 -4.45,-4.9c-1.20339,-1.50781 -2.18672,-2.72448 -2.95,-3.65c-0.00417,-0.61914 -0.07083,-1.01914 -0.2,-1.2c-0.16667,-0.2 -0.25,-0.35 -0.25,-0.45c-0.10469,-0.20937 -0.50469,-0.35937 -1.2,-0.45c-0.02161,-0.01966 -0.03828,-0.03633 -0.05,-0.05c0,0.02187 -0.01667,0.03854 -0.05,0.05c-0.3832,-0.03333 -0.86654,-0.05 -1.45,-0.05c-0.9,0 -3.71667,0.83333 -8.45,2.5c-4.7,1.66667 -10.21667,2.5 -16.55,2.5c-7.07357,0 -13.02357,-2.65 -17.85,-7.95c-2.45807,-2.72122 -4.62474,-6.13789 -6.5,-10.25c-1.76667,-3.8 -3.15,-7.98333 -4.15,-12.55c-0.66667,-3.8 -1,-5.71667 -1,-5.75c0.13333,-2.9 -2.11667,-5.93333 -6.75,-9.1c-6.2,-4.26667 -10.11667,-7.48333 -11.75,-9.65c-1.5,-1.96667 -3.08333,-5.38333 -4.75,-10.25c-0.54076,-1.53724 -1.02409,-2.90391 -1.45,-4.1c10.12331,-0.57839 20.20664,-3.44505 30.25,-8.6c3.73333,-1.93333 7.55,-4.21667 11.45,-6.85c3.63333,-2.6 5.96667,-4.25 7,-4.95c7.26667,-4.8 13.93333,-9.51667 20,-14.15c9.41823,-7.14674 14.91823,-12.28008 16.5,-15.4c3.38711,-0.03958 6.62044,-0.28958 9.7,-0.75c0.26068,-0.02396 0.51068,-0.05729 0.75,-0.1c0.31927,-0.0487 0.61927,-0.0987 0.9,-0.15c-2.07083,4.55 -3.50417,10.73333 -4.3,18.55c-0.02552,0.26133 -0.05885,0.52799 -0.1,0.8c-0.63503,-0.00638 -2.30169,-0.25638 -5,-0.75l-3.95,-0.75c-1.96667,0 -8.8,5.31667 -20.5,15.95c-11.33333,10.26667 -17,15.61667 -17,16.05c0,1.36667 0.5,2.55 1.5,3.55z" fill="#c7463f"/><path d="M762.3,383.6c11.87044,-2.59206 20.97044,-8.87539 27.3,-18.85c1.43516,-2.29622 2.68516,-4.72956 3.75,-7.3c2.36602,0.75247 4.38268,1.26914 6.05,1.55c-0.03307,0.12279 -0.08307,0.23945 -0.15,0.35c0.32331,-0.03125 0.65664,-0.04792 1,-0.05c-0.47904,1.35534 -1.07904,3.08867 -1.8,5.2c-0.05365,0.15573 -0.10365,0.30573 -0.15,0.45c-0.45638,0.16458 -0.77305,0.26458 -0.95,0.3c-0.23242,-0.09297 -0.44909,-0.19297 -0.65,-0.3c-0.74531,1.39232 -1.54531,2.74232 -2.4,4.05c-0.1599,0.2444 -0.32656,0.47773 -0.5,0.7c-6.4582,9.54661 -15.42487,15.87995 -26.9,19v0c-2.55326,0.08581 -4.71992,0.46914 -6.5,1.15c0.66953,-1.72305 1.30286,-3.80638 1.9,-6.25M709.05,243.45c0.42214,1.06055 0.8888,2.07721 1.4,3.05c-0.25846,-0.24557 -0.55846,-0.51224 -0.9,-0.8c3.77956,9.80742 8.81289,18.82409 15.1,27.05c7.02852,9.18867 15.22852,16.87201 24.6,23.05c2.44844,2.04388 5.64844,4.69388 9.6,7.95c1.16667,1.03333 4.45,3.45 9.85,7.25c0.58464,0.45026 1.13464,0.88359 1.65,1.3c-0.23021,-0.07812 -0.46354,-0.16146 -0.7,-0.25c-1.58021,0.16211 -3.41354,0.34544 -5.5,0.55c-9,0.9 -15.68333,2.11667 -20.05,3.65c-4.13333,1.43333 -7.76667,3.18333 -10.9,5.25c-2.1,1.36667 -4.3,3.11667 -6.6,5.25c-1.06927,0.97201 -2.06927,2.00534 -3,3.1c-0.11315,-0.03594 -0.22982,-0.06927 -0.35,-0.1c-2.25846,-0.57487 -4.17513,-1.1082 -5.75,-1.6c0.09232,-0.00352 0.17565,-0.00352 0.25,0c0.90195,-1.45234 1.85195,-2.83568 2.85,-4.15c1.5,-1.96667 4.51667,-4.25 9.05,-6.85c4.86667,-2.76667 10.05,-5.05 15.55,-6.85c4.84466,-1.5849 9.26133,-2.60156 13.25,-3.05c-11.21211,-5.47057 -21.16211,-12.47057 -29.85,-21c-4.82656,-4.74688 -9.12656,-9.81354 -12.9,-15.2c0.32005,-0.42734 0.62005,-0.77734 0.9,-1.05c-0.40599,0.17917 -0.80599,0.3625 -1.2,0.55c-3.95547,-5.72839 -7.30547,-11.82839 -10.05,-18.3c-2.09414,-4.91797 -3.76081,-9.8513 -5,-14.8c0.69987,0.01328 1.44987,-0.00339 2.25,-0.05c1.12969,-0.08216 2.47969,-0.19883 4.05,-0.35c0.25443,0.85794 0.52109,1.72461 0.8,2.6c0.37057,1.15599 0.75391,2.28932 1.15,3.4c0.05091,-0.10221 0.10091,-0.21888 0.15,-0.35c0.10508,0.26276 0.20508,0.51276 0.3,0.75M909.1,391.6c0.14766,0.79141 0.28099,1.59141 0.4,2.4c0.20833,1.39714 0.375,2.99714 0.5,4.8c0.23333,3.12474 0.35,6.85807 0.35,11.2c0,7.78164 -1.21667,16.19831 -3.65,25.25c-3.16029,2.82331 -5.96029,4.92331 -8.4,6.3c0.57344,-2.01094 1.25677,-4.44427 2.05,-7.3c2.66667,-9.6 4,-17.93333 4,-25c0.17422,-3.48437 0.24089,-6.33438 0.2,-8.55c0.01185,-1.5776 -0.03815,-2.8276 -0.15,-3.75c-0.33333,-2.8 -2.01667,-8.2 -5.05,-16.2c-0.16784,-0.44453 -0.40117,-0.9112 -0.7,-1.4c-3.20612,-2.7207 -6.37279,-5.08737 -9.5,-7.1c-6.47878,-4.20091 -13.07878,-7.21758 -19.8,-9.05c-0.35221,-0.10716 -0.71888,-0.20716 -1.1,-0.3c-4.39909,-1.13789 -8.86576,-1.77122 -13.4,-1.9c-0.49388,0 -0.99388,0 -1.5,0c-4.33333,0 -8.38333,0.71667 -12.15,2.15c-0.91224,0.33906 -1.74557,0.63906 -2.5,0.9c-1.25234,0.4181 -2.30234,0.7181 -3.15,0.9c-0.4651,-1.61745 -1.0151,-3.33411 -1.65,-5.15c-0.87305,-2.44141 -1.68971,-4.45807 -2.45,-6.05c1.81562,-5.93815 5.71563,-11.22148 11.7,-15.85c3.30013,-2.54271 6.80013,-4.59271 10.5,-6.15c1.89466,-0.76146 3.82799,-1.41146 5.8,-1.95c0.86628,1.21302 2.09961,2.91302 3.7,5.1c-7.13372,1.06302 -13.16706,4.04635 -18.1,8.95c-1.56094,1.53763 -3.01094,3.27096 -4.35,5.2c-1.78867,2.5875 -3.32201,5.2875 -4.6,8.1c0.39818,-0.1099 0.79818,-0.22656 1.2,-0.35c0.98789,-0.3112 1.97122,-0.59453 2.95,-0.85c5.59401,-1.4987 10.96068,-2.1487 16.1,-1.95c2.62331,0.26758 5.13997,0.60091 7.55,1c16.40677,2.6832 28.40677,8.3332 36,16.95c0.68333,0.78464 1.33333,1.58464 1.95,2.4c1.99375,2.0625 3.24375,3.99583 3.75,5.8c0.02344,-0.09193 0.0401,-0.19193 0.05,-0.3c0.85039,2.65156 1.81706,5.91823 2.9,9.8c0.18359,0.65286 0.36693,1.30286 0.55,1.95M913.7,178.9c-5.2,-13.96667 -12.23333,-26.18333 -21.1,-36.65c-9.9293,-11.70352 -21.51263,-20.28685 -34.75,-25.75c0.03242,-1.74089 0.06576,-3.49089 0.1,-5.25c2.25221,0.87513 4.46888,1.82513 6.65,2.85c13.86667,6.53333 25.83333,16.2 35.9,29c8.06667,10.2 14.41667,21.63333 19.05,34.3c3.7,10.2 5.55,18.6 5.55,25.2c0,1.66667 -0.01667,3.33333 -0.05,5c0.13333,0.16667 0.3,0.36667 0.5,0.6c0.36667,0.66667 0.55,1.51667 0.55,2.55c0,0.27734 -0.01667,0.57734 -0.05,0.9c-1.44935,-4.4888 -2.99935,-8.85547 -4.65,-13.1c-2.49349,-6.40482 -4.81016,-11.33815 -6.95,-14.8c0.38268,0.11966 0.74935,0.25299 1.1,0.4c-0.56667,-1.66667 -1.18333,-3.41667 -1.85,-5.25M890.9,504c-0.01849,0.11836 -0.05182,0.23503 -0.1,0.35c0.26198,1.25755 0.56198,2.49089 0.9,3.7c-0.29714,-0.47513 -0.58047,-0.8918 -0.85,-1.25c-0.13529,-0.1849 -0.26862,-0.35156 -0.4,-0.5l-0.35,-0.4c-0.03607,-0.03724 -0.0694,-0.07057 -0.1,-0.1l-0.25,0.35c0.70638,3.83789 1.92305,6.93789 3.65,9.3c0.73555,1.00143 1.55221,1.8681 2.45,2.6c0.05247,0.0431 0.10247,0.07643 0.15,0.1c-0.44714,0.38281 -0.88047,0.74948 -1.3,1.1c-1.47982,1.24753 -2.77982,2.39753 -3.9,3.45c0.09258,-0.38216 0.19258,-0.79883 0.3,-1.25c-0.82135,-1.38307 -1.57135,-2.86641 -2.25,-4.45c-0.74479,-1.72096 -1.39479,-3.52096 -1.95,-5.4c-0.11732,-0.4112 -0.23398,-0.84453 -0.35,-1.3c0.91576,-1.36068 1.81576,-2.67734 2.7,-3.95c0.02734,-0.03932 0.04401,-0.08932 0.05,-0.15l0.5,-0.65c0.16042,-0.2276 0.31042,-0.46094 0.45,-0.7c0.22799,-0.27799 0.44466,-0.56133 0.65,-0.85M828.2,535.8c-6.89544,4.61029 -14.14544,7.47695 -21.75,8.6c-1.7013,2.17826 -5.38464,5.46159 -11.05,9.85c-8.03333,6.16667 -12.88333,9.25 -14.55,9.25c-0.8,0 -4.76667,-6.28333 -11.9,-18.85c-2.56432,-4.5306 -4.83099,-8.66393 -6.8,-12.4c-2.10391,-1.69857 -4.13724,-3.56523 -6.1,-5.6c-3.7,-3.86667 -6.91667,-8.1 -9.65,-12.7c-0.54323,-1.03307 -1.0099,-1.93307 -1.4,-2.7c-1.16328,0.84362 -2.79661,1.69362 -4.9,2.55c-5.7,2.3 -12.78333,3.45 -21.25,3.45c-9.38216,0 -17.08216,-3.46667 -23.1,-10.4c1.54115,-1.39323 3.29115,-2.82656 5.25,-4.3c4.82643,5.3 10.77643,7.95 17.85,7.95c6.33333,0 11.85,-0.83333 16.55,-2.5c4.73333,-1.66667 7.55,-2.5 8.45,-2.5c0.58346,0 1.0668,0.01667 1.45,0.05c0.03333,-0.01146 0.05,-0.02813 0.05,-0.05c0.01172,0.01367 0.02839,0.03034 0.05,0.05c0.69531,0.09063 1.09531,0.24063 1.2,0.45c0,0.1 0.08333,0.25 0.25,0.45c0.12917,0.18086 0.19583,0.58086 0.2,1.2c0.76328,0.92552 1.74661,2.14219 2.95,3.65c1.46471,1.70885 2.94805,3.34219 4.45,4.9c-0.11107,-0.31276 -0.22773,-0.62943 -0.35,-0.95c3.68529,2.09049 7.25195,5.54049 10.7,10.35c0.19388,0.15221 0.37721,0.30221 0.55,0.45c1.17669,2.19193 2.62669,4.77526 4.35,7.75c1.14466,1.97461 2.17799,3.74128 3.1,5.3c-0.09388,-0.02982 -0.19388,-0.07982 -0.3,-0.15c0.97669,2.00417 2.22669,4.5875 3.75,7.75c2.23333,4.7 4.1,8.21667 5.6,10.55c3.46667,-1.56667 7.7,-4.55 12.7,-8.95c1.39023,-1.22266 2.6569,-2.32266 3.8,-3.3c-0.55312,-0.00404 -1.10312,-0.0207 -1.65,-0.05c1.6457,-1.52526 3.76237,-3.55859 6.35,-6.1c0.01615,-0.01589 0.03281,-0.03255 0.05,-0.05c9.81966,-0.8918 18.71966,-4.82513 26.7,-11.8c-0.1112,2.23984 -0.64453,5.17318 -1.6,8.8M688.35,511.15c2.16966,2.17956 4.66966,3.79622 7.5,4.85c11.03333,4.1 19.08333,8.08333 24.15,11.95c6.06667,4.6 9.1,9.78333 9.1,15.55c0,3.63333 -0.75,6.9 -2.25,9.8c-2.7,5.13333 -7.36667,7.7 -14,7.7c-2.81263,0 -5.49596,-0.55 -8.05,-1.65c-1.25521,2.1513 -3.48854,4.4513 -6.7,6.9c-5.93333,4.5 -12.18333,6.75 -18.75,6.75c-2.40586,0 -4.73919,-0.2 -7,-0.6c0.76953,-1.14427 1.51953,-2.26094 2.25,-3.35c0.51992,-0.77018 1.01992,-1.48685 1.5,-2.15c1.01055,0.06667 2.04388,0.1 3.1,0.1c7.09154,0 12.7582,-2.11667 17,-6.35c0.19375,0.00625 0.39375,-0.12708 0.6,-0.4c1.02474,-1.19844 3.39141,-4.2151 7.1,-9.05c0.2599,-0.33997 0.5099,-0.67331 0.75,-1c2.54844,2.75104 4.28177,4.35104 5.2,4.8h6.75c1.33333,-1.03333 2.85,-3 4.55,-5.9c1.63333,-2.73333 2.45,-4.51667 2.45,-5.35c0,-7.7 -9,-14.78333 -27,-21.25c-4.57786,-1.68047 -8.5612,-4.43047 -11.95,-8.25c0.0138,-0.01745 0.03047,-0.03411 0.05,-0.05c1.6474,-1.34596 2.86406,-2.36263 3.65,-3.05z" fill="#210c2a"/><path d="M881.85,336.25c8.56888,2.66836 15.00221,8.33503 19.3,17c2.24766,4.53867 3.76432,9.38867 4.55,14.55c-1.43294,2.19974 -3.36628,3.58307 -5.8,4.15c-7.59323,-8.6168 -19.59323,-14.2668 -36,-16.95c-0.66667,-2.24193 -1,-4.15859 -1,-5.75c0,-8.66667 5.58333,-13 16.75,-13c0.79193,0 1.52526,0 2.2,0M715.4,270.55c0.39401,-0.1875 0.79401,-0.37083 1.2,-0.55c-0.27995,0.27266 -0.57995,0.62266 -0.9,1.05c-1.04987,1.49128 -2.24987,3.92461 -3.6,7.3c-1.66667,4.2 -2.5,7.03333 -2.5,8.5c0,4.5 1.01667,8.43333 3.05,11.8c3.00677,5.0306 7.97344,8.0306 14.9,9c-2.37773,1.09544 -4.77773,2.72878 -7.2,4.9c-4.83333,4.36667 -7.25,7.96667 -7.25,10.8c0,0.08411 0,0.21745 0,0.4c-3.75052,-0.11406 -6.90052,-3.0474 -9.45,-8.8c-0.83333,-1.86667 -1.55,-3.91667 -2.15,-6.15c-0.43333,-1.63333 -0.65,-2.61667 -0.65,-2.95c0,-7.33333 1.05,-14.03333 3.15,-20.1c2.5375,-7.42669 6.3375,-12.49336 11.4,-15.2M923.85,538c1.31302,0 2.59635,-0.03333 3.85,-0.1c0.25208,0.99766 0.88542,2.44766 1.9,4.35c1.56667,3 3.48333,5.83333 5.75,8.5c4.35091,5.11745 8.95091,8.50078 13.8,10.15c-2.30091,2.13333 -6.11758,3.2 -11.45,3.2c-10.43333,0 -17.8,-3.35 -22.1,-10.05c-0.39883,-0.62227 -0.76549,-1.2556 -1.1,-1.9c0.06667,-0.24141 0.1,-0.45807 0.1,-0.65c0,-1.03333 -0.21667,-1.61667 -0.65,-1.75c-0.18607,0 -0.3694,-0.01667 -0.55,-0.05c-1.03333,-2.73242 -1.55,-5.68242 -1.55,-8.85c0,-1.67786 0.1,-3.04453 0.3,-4.1c3.56667,0.83333 7.46667,1.25 11.7,1.25M896.6,535.25c-0.67044,-1.85664 -0.97044,-4.40664 -0.9,-7.65c3.20234,3.37552 7.06901,5.92552 11.6,7.65c-0.05977,0.16719 -0.10977,0.33385 -0.15,0.5c-0.2,0.76667 -0.3,2.8 -0.3,6.1c0,3.01224 0.31667,5.82891 0.95,8.45c-2.34805,0.04922 -4.29805,-0.58411 -5.85,-1.9c0.04557,-0.04258 0.09557,-0.09258 0.15,-0.15l-0.5,-1.5c-0.14349,-0.02214 -0.57682,-0.07214 -1.3,-0.15c-0.19036,-0.28164 -0.3737,-0.58164 -0.55,-0.9c-0.8,-1.4 -1.46667,-3.3 -2,-5.7c-0.73333,-3.03333 -1.11667,-4.61667 -1.15,-4.75M855.6,437.25c0,2.16667 -0.71667,5.06667 -2.15,8.7c-1.7,4.3 -3.56667,6.73333 -5.6,7.3c-0.76667,-1.2 -1.28333,-2.56667 -1.55,-4.1c-0.13333,-0.9 -0.2,-2.2 -0.2,-3.9c0,-7.36667 1.58333,-11.86667 4.75,-13.5c1.23333,-0.66667 2.31667,-0.51667 3.25,0.45c1,1.03333 1.5,2.71667 1.5,5.05M758.6,488.65c3.13333,2.2 6.43333,4.08333 9.9,5.65c9.3,4.23333 23.25,7.8 41.85,10.7h2.15c-0.60794,0.32448 -1.20794,0.64115 -1.8,0.95c-4.6,2.36667 -9.1,3.55 -13.5,3.55c-10.36667,0 -20.4,-3.48333 -30.1,-10.45c-3.03333,-2.2 -5.85,-4.61667 -8.45,-7.25c-0.76732,-0.83125 -1.40065,-1.51458 -1.9,-2.05c-0.31953,-1.05156 -0.65286,-2.1349 -1,-3.25c0.88659,0.66563 1.83659,1.38229 2.85,2.15M821.85,415.75c1.33333,1.4 2,2.26667 2,2.6c0,4.76667 -0.93333,10.85 -2.8,18.25c-2.3,9.26667 -5.03333,14.15 -8.2,14.65l-0.75,-0.75c-0.4,-1.03333 -0.71667,-1.85 -0.95,-2.45c-0.36667,-1.1 -0.55,-2.16667 -0.55,-3.2c0,-13.96667 2.25,-24.83333 6.75,-32.6c1.43333,0.63333 2.93333,1.8 4.5,3.5M772.8,539.1c7.29844,3.63555 15.2651,5.58555 23.9,5.85c0.54688,0.0293 1.09687,0.04596 1.65,0.05c-1.1431,0.97734 -2.40977,2.07734 -3.8,3.3c-5,4.4 -9.23333,7.38333 -12.7,8.95c-1.5,-2.33333 -3.36667,-5.85 -5.6,-10.55c-1.52331,-3.1625 -2.77331,-5.74583 -3.75,-7.75c0.10612,0.07018 0.20612,0.12018 0.3,0.15M695.8,552.6c1.27773,1.42773 2.5944,2.66107 3.95,3.7c-1.15846,1.67135 -2.20846,3.00469 -3.15,4c-0.12279,0.1276 -0.25612,0.24427 -0.4,0.35c-4.2418,4.23333 -9.90846,6.35 -17,6.35c-1.05612,0 -2.08945,-0.03333 -3.1,-0.1c-8.51875,-0.61732 -15.51875,-3.80065 -21,-9.55c-2.28385,-2.73503 -3.98385,-4.75169 -5.1,-6.05c3.2944,0.17943 6.4944,0.91276 9.6,2.2c1,0.43333 3.15,1.66667 6.45,3.7c3.76667,1.86667 8.03333,2.8 12.8,2.8c5.63333,0 10.38333,-1.56667 14.25,-4.7c1.08841,-0.89245 1.98841,-1.79245 2.7,-2.7M639.35,483.85c-1.5,-4.06367 -2.25,-8.01367 -2.25,-11.85c0.23333,-3.23333 0.81667,-6.48333 1.75,-9.75c1.93333,-6.5 4.71667,-9.75 8.35,-9.75c5.53333,0 11.26667,6.33333 17.2,19c3.23333,6.86667 7.13333,16.36667 11.7,28.5c2.5,5.46667 4.85,9.61667 7.05,12.45c0.48385,0.62344 0.98385,1.22344 1.5,1.8c3.3888,3.81953 7.37214,6.56953 11.95,8.25c18,6.46667 27,13.55 27,21.25c0,0.83333 -0.81667,2.61667 -2.45,5.35c-1.7,2.9 -3.21667,4.86667 -4.55,5.9h-6.75c-0.91823,-0.44896 -2.65156,-2.04896 -5.2,-4.8c-1.60417,-1.73672 -3.5375,-3.93672 -5.8,-6.6c-5.3,-6.23333 -8.96667,-9.35 -11,-9.35c-1.16667,0 -1.98333,0.23333 -2.45,0.7c-0.4,0.33333 -0.66667,0.93333 -0.8,1.8c0.9,0.6 2.21667,2.31667 3.95,5.15c1.3431,2.21992 2.47643,4.05326 3.4,5.5c-0.47943,0.95885 -0.72943,1.45885 -0.75,1.5c-2.16667,3.4 -6.16667,5.1 -12,5.1c-3.56667,0 -7.3,-0.9 -11.2,-2.7c-3.5,-1.9 -5.55,-3 -6.15,-3.3c-3.23333,-1.73333 -8.68333,-2.56667 -16.35,-2.5c-7.9,0.03333 -12.61667,-0.3 -14.15,-1c-3.8,-1.66667 -6.23333,-4.65 -7.3,-8.95c-0.28646,-1.43229 -0.55313,-2.64896 -0.8,-3.65c0.58203,0.0207 1.18203,0.03737 1.8,0.05c4.8,0.3 9.65,1.06667 14.55,2.3c2.16667,-0.16667 3.58333,-0.5 4.25,-1c-8.1,-4 -12.26667,-6 -12.5,-6c-2.73333,-0.33333 -5.43333,-0.51667 -8.1,-0.55c-0.75326,-0.00703 -1.43659,-0.0237 -2.05,-0.05c-0.25391,-0.40495 -0.53724,-0.78828 -0.85,-1.15c0,0.16667 -0.5,0.25 -1.5,0.25c-0.03919,0.31302 -0.07253,0.61302 -0.1,0.9h-0.9c-3.33333,-0.2 -7.5,-1.58333 -12.5,-4.15c-3.73333,-1.9 -6.48333,-4.61667 -8.25,-8.15c-1.33333,-2.63333 -2,-5.41667 -2,-8.35c0,-5.76667 1.46667,-9.7 4.4,-11.8c2.16667,-1.53333 5.88333,-2.33333 11.15,-2.4c8.5,-0.1 13.45,-0.23333 14.85,-0.4c4.00221,-0.50026 7.60221,-1.51693 10.8,-3.05c2.10612,3.40469 5.12279,7.12135 9.05,11.15l0.5,-0.5c-2.60924,-5.77539 -4.49258,-10.07539 -5.65,-12.9c0.31328,-0.18724 0.61328,-0.38724 0.9,-0.6l-0.5,-1.5c-0.31745,-0.07513 -0.73411,-0.12513 -1.25,-0.15M694.95,345.6c5.69388,-1.25924 11.17721,-2.05924 16.45,-2.4c-1.2,4.29141 -1.8,8.25807 -1.8,11.9c0,8 1.23333,14.38333 3.7,19.15c3.53789,6.77266 9.22122,11.48932 17.05,14.15c-1.57031,1.6806 -3.35365,3.6806 -5.35,6c-1.2,0.9 -3.56667,2.53333 -7.1,4.9c-3.23333,2.2 -6.08333,4.23333 -8.55,6.1c-5.86667,4.4 -11.75,8.25 -17.65,11.55c-11.33333,6.36667 -20.73333,9.55 -28.2,9.55c-7.26667,0 -12.71667,-4.01667 -16.35,-12.05c-1.18164,-2.59453 -2.16497,-5.82786 -2.95,-9.7c1.57135,-1.22096 3.28802,-2.68763 5.15,-4.4c6.66667,-6.1 13.43333,-13.55 20.3,-22.35c7.6,-9.76667 13.68333,-19.13333 18.25,-28.1c0.49414,-0.9694 0.96081,-1.93607 1.4,-2.9c1.60872,-0.44779 3.49206,-0.91445 5.65,-1.4M685.35,309.25c-2.53333,0.66667 -5.03333,1 -7.5,1c-3.83333,0 -7.66667,-1.66667 -11.5,-5c-3.33333,-2.86667 -5,-5.08333 -5,-6.65c0,-1.03333 0.05,-1.78333 0.15,-2.25l0.1,-0.35c2.6,0.63333 8.36667,1.61667 17.3,2.95c7.63333,1.63333 11.45,3.9 11.45,6.8c0,1.46667 -1.66667,2.63333 -5,3.5M696,317.4c0.23333,0.33333 0.35,0.98333 0.35,1.95c0,1.5 -6,8.71667 -18,21.65c-1.36667,0 -2.26667,-1.21667 -2.7,-3.65c-0.2,-2.53333 -0.3,-3.86667 -0.3,-4c0,-1.8 2.55,-4.95 7.65,-9.45c5.33333,-4.76667 9.53333,-7.15 12.6,-7.15c0,0.1 0.13333,0.31667 0.4,0.65M732.6,336c4.86667,-6.2 10.36667,-10.41667 16.5,-12.65c1.86667,-0.56667 3.68333,-1.01667 5.45,-1.35c9.83333,-1.86667 18.25,-0.16667 25.25,5.1c0.03333,0.03333 0.06667,0.06667 0.1,0.1c0.64453,0.49375 1.2612,1.01042 1.85,1.55c2.28398,2.05924 4.16732,4.42591 5.65,7.1c1.63333,3 2.45,5.68333 2.45,8.05c0,0.86667 -0.1,1.86667 -0.3,3c-0.26667,1.16667 -0.63333,2.48333 -1.1,3.95c-1.3,4 -3.16667,7.63333 -5.6,10.9c-1.23333,1.63333 -2.56667,3.13333 -4,4.5c-1.8,1.7 -3.75,3.18333 -5.85,4.45c-6.03333,3.6 -13.36667,5.4 -22,5.4c-8.83919,0 -15.65586,-2.7 -20.45,-8.1c-0.33281,-0.39974 -0.66615,-0.81641 -1,-1.25c-3.23333,-4.23333 -4.85,-8.48333 -4.85,-12.75c0,-4.93333 2.33333,-10.55 7,-16.85c0.3,-0.4 0.6,-0.78333 0.9,-1.15M860.5,270.65c-0.43333,-0.6 -0.65,-1.06667 -0.65,-1.4c0,-0.83333 1.21667,-2.01667 3.65,-3.55c2.43333,-1.53333 5.13333,-2.81667 8.1,-3.85c7.83333,-2.66667 11.75,-1.83333 11.75,2.5c0,1.36667 -0.96667,2.71667 -2.9,4.05c-2.23333,1.6 -5.35,2.8 -9.35,3.6h-8.5c-0.83333,-0.1 -1.53333,-0.55 -2.1,-1.35M816.95,260.65c8.56667,-1.86667 14.45,-0.41667 17.65,4.35c-0.7,1.06667 -3.01667,2.58333 -6.95,4.55c-4.5,2.3 -8.26667,3.45 -11.3,3.45c-2.56667,0 -5.65,-0.7 -9.25,-2.1c-2.7,-1.03333 -4.53333,-1.91667 -5.5,-2.65c1.06667,-1.36667 3.03333,-2.76667 5.9,-4.2c3,-1.53333 6.15,-2.66667 9.45,-3.4M821.9,286.95c9.3,-2.4 15.95,-5.46667 19.95,-9.2c1.13333,3.83333 3.6,7.26667 7.4,10.3c4.20833,3.39271 8.89167,5.12604 14.05,5.2c-8.75638,3.66667 -19.90638,5.5 -33.45,5.5c-12.78464,0 -23.93464,-2.83333 -33.45,-8.5c8.45924,-0.00664 16.95924,-1.10664 25.5,-3.3M763.4,220.45c-0.02565,-0.15742 -0.05898,-0.32409 -0.1,-0.5c0.12786,0.02891 0.2612,0.04557 0.4,0.05c-0.09336,0.15755 -0.19336,0.30755 -0.3,0.45M751.3,226.15c1.72409,0.50703 3.12409,0.85703 4.2,1.05c0.35638,2.92617 1.03971,6.44284 2.05,10.55c0.29674,1.22109 0.56341,2.37109 0.8,3.45c0.6418,3.33424 1.3918,6.55091 2.25,9.65c0.06341,0.22461 0.13008,0.47461 0.2,0.75c0.09102,0.42357 0.15768,0.7569 0.2,1c0.12852,0.70664 0.32852,1.48997 0.6,2.35c0.2069,0.84805 0.42357,1.78138 0.65,2.8c0.76667,3 1.46667,5.33333 2.1,7c0.49922,1.26875 0.94922,2.40208 1.35,3.4c-1.73216,-2.39167 -3.39883,-4.94167 -5,-7.65c-7.4,-12.46667 -11.1,-23.68333 -11.1,-33.65c0,-0.33333 0.01667,-0.61667 0.05,-0.85c0.46667,0.03333 1.01667,0.08333 1.65,0.15M973,481.8c5.53893,0.58151 9.9056,1.74818 13.1,3.5c3.5,1.86667 5.25,4.21667 5.25,7.05c0,0.9 -0.58333,3.13333 -1.75,6.7c-1.16667,3.56667 -1.75,6.08333 -1.75,7.55c0,2.33333 0.91667,4.18333 2.75,5.55c1.2,0.9 3.78333,2.68333 7.75,5.35l0.25,-0.5c-0.06667,-0.2 -0.96667,-1.6 -2.7,-4.2c-1.7,-2.5 -2.55,-3.98333 -2.55,-4.45c0,-0.56667 0.66667,-2.88333 2,-6.95c0.24219,-0.73867 0.45885,-1.43867 0.65,-2.1c1.10521,-0.7 2.05521,-1.05 2.85,-1.05c8.06667,0 13.56667,3.33333 16.5,10c1.5,3.4 2.25,7.65 2.25,12.75c0,1.16667 -0.2,3.01667 -0.6,5.55c-0.66667,4 -1.63333,7.65 -2.9,10.95c-3.93333,10.33333 -10.06667,15.5 -18.4,15.5c-5.56667,0 -9.35,-0.7 -11.35,-2.1c-0.45234,-0.43268 -0.83568,-0.78268 -1.15,-1.05c2.15612,-1.75039 4.12279,-3.53372 5.9,-5.35l-0.5,-1.5c0.13333,-0.06667 0.15,-0.15 0.05,-0.25c-0.16667,-0.16667 -0.76667,-0.25 -1.8,-0.25c-1.9,0 -4.06667,0.7 -6.5,2.1c-0.7,0.43333 -2.98333,1.98333 -6.85,4.65c-6.5,4.5 -12.43333,6.75 -17.8,6.75c-6.46667,0 -12.25,-3.11667 -17.35,-9.35c-1.23333,-1.5 -2.88333,-3.85 -4.95,-7.05c-0.50495,-0.7832 -0.97161,-1.46654 -1.4,-2.05c15.75339,-1.87448 27.12005,-9.39115 34.1,-22.55c4.66667,-8.8 7,-19.05 7,-30.75c0,-0.81784 -0.03333,-1.63451 -0.1,-2.45M908.35,183.75c-12.2,2.43333 -21.98333,6.91667 -29.35,13.45c-1.93333,1.73333 -4.55,4.46667 -7.85,8.2c-3.03333,3.4 -5.46667,5.85 -7.3,7.35c0,-2.53333 -0.33333,-5.68333 -1,-9.45c0,-0.3 0,-0.56667 0,-0.8c0,-1 -0.3,-2.21667 -0.9,-3.65c-0.2,-0.83333 -0.4,-1.7 -0.6,-2.6c-0.06667,0.33333 -0.11667,0.66667 -0.15,1c-0.16667,-0.33333 -0.35,-0.66667 -0.55,-1c-1.8,-3.1 -4.16667,-5.91667 -7.1,-8.45c-8.16667,-7 -18.56667,-9.85 -31.2,-8.55v0.5c-18.68633,2.80885 -32.51966,10.15885 -41.5,22.05c-1.11693,1.53529 -2.16693,3.13529 -3.15,4.8c-0.80208,1.35924 -1.55208,2.75924 -2.25,4.2c-2.07995,0.21016 -3.96328,0.47682 -5.65,0.8c-1.67656,0.34219 -3.14323,0.74219 -4.4,1.2c-1.10482,0.38333 -2.10482,0.83333 -3,1.35c-0.9599,-4.69336 -2.92656,-8.11003 -5.9,-10.25c-3.93333,-2.83333 -8.76667,-2.96667 -14.5,-0.4c-5.7,2.53333 -10.55,6.91667 -14.55,13.15c-0.30169,0.47539 -0.60169,0.94206 -0.9,1.4c-1.28854,-0.89401 -2.62188,-1.76068 -4,-2.6c-1.25599,-1.54336 -2.47266,-3.27669 -3.65,-5.2c-5.03333,-8.2 -7.55,-16.28333 -7.55,-24.25c0,-0.4 0.08333,-1.33333 0.25,-2.8c0.02044,-0.17604 0.03711,-0.34271 0.05,-0.5c3.45638,-8.13828 7.65638,-15.97161 12.6,-23.5c16.86667,-25.76667 36.9,-40.5 60.1,-44.2c25,-6.86667 47.28333,-7.16667 66.85,-0.9c2.26966,0.72669 4.48633,1.52669 6.65,2.4c13.23737,5.46315 24.8207,14.04648 34.75,25.75c8.86667,10.46667 15.9,22.68333 21.1,36.65c0.66667,1.83333 1.28333,3.58333 1.85,5.25c-0.35065,-0.14701 -0.71732,-0.28034 -1.1,-0.4c-1.79714,-0.55469 -3.83047,-0.72135 -6.1,-0.5z" fill="#ffffff"/><path d="M710.45,246.5c0.34128,0.26849 0.64128,0.51849 0.9,0.75l10.45,0.7c0.68255,3.36081 1.69922,7.21081 3.05,11.55c2.73333,8.9 5.4,14.73333 8,17.5c0.06667,0.06667 2.23333,2.6 6.5,7.6c3.83333,4.53333 7.35,8.38333 10.55,11.55c0.1,0.1 0.2,0.2 0.3,0.3c-0.32005,-0.20651 -0.63672,-0.42318 -0.95,-0.65c-9.37148,-6.17799 -17.57148,-13.86133 -24.6,-23.05c-6.28711,-8.22591 -11.32044,-17.24258 -15.1,-27.05c0.34154,0.28776 0.64154,0.55443 0.9,0.8M711.65,182.7c-0.01289,0.15729 -0.02956,0.32396 -0.05,0.5c-0.16667,1.46667 -0.25,2.4 -0.25,2.8c0,7.96667 2.51667,16.05 7.55,24.25c1.17734,1.92331 2.39401,3.65664 3.65,5.2c-0.91823,-0.52747 -1.85156,-1.04414 -2.8,-1.55c-8.26667,-4.4 -12.4,-4.53333 -12.4,-0.4c0,1 2.83333,3.51667 8.5,7.55c2.8651,2.01862 5.28177,3.53529 7.25,4.55c-1.5,4.4099 -2.25,9.04323 -2.25,13.9c0,0.57734 0.01667,1.17734 0.05,1.8c-4.35482,-0.32799 -7.37148,-0.37799 -9.05,-0.15c-1.51471,0.17305 -2.54805,0.68971 -3.1,1.55c-0.04909,0.13112 -0.09909,0.24779 -0.15,0.35c-0.39609,-1.11068 -0.77943,-2.24401 -1.15,-3.4c-0.27891,-0.87539 -0.54557,-1.74206 -0.8,-2.6c-2.36667,-8.00156 -3.55,-14.9849 -3.55,-20.95c0,-6.73333 1.8,-15.16667 5.4,-25.3c0.97214,-2.73529 2.02214,-5.43529 3.15,-8.1M767.35,240h2c0,0.24935 0,0.49935 0,0.75c0,8.23333 1.66667,15.48333 5,21.75c6.66667,12.5 18.83333,18.75 36.5,18.75c13.73333,0 24.6,-3.08333 32.6,-9.25c1.53333,-1.16667 2.93333,-2.43333 4.2,-3.8l0.05,1.65c0.23333,1.86667 0.78333,3.58333 1.65,5.15c2.8,5 8.3,7.5 16.5,7.5c15.16667,0 28.68333,-8.5 40.55,-25.5c-2.2,4.7 -4.63333,9.2 -7.3,13.5c-2.2737,3.66562 -4.65703,7.09896 -7.15,10.3c-8.91276,11.49596 -19.22943,20.09596 -30.95,25.8c0.53333,-0.43333 1.08333,-0.88333 1.65,-1.35c8.45378,-6.88633 13.63711,-12.11966 15.55,-15.7c0.6,-1.0362 0.9,-1.9362 0.9,-2.7c0,-1.06667 -0.13333,-1.7 -0.4,-1.9c-0.46667,-0.13333 -0.91667,-0.28333 -1.35,-0.45c-0.26667,0.1 -1.55,1.03333 -3.85,2.8c-2.46667,1.9 -5.05,3.51667 -7.75,4.85c-0.79115,0.38255 -1.60781,0.74922 -2.45,1.1c-5.15833,-0.07396 -9.84167,-1.80729 -14.05,-5.2c-3.8,-3.03333 -6.26667,-6.46667 -7.4,-10.3c-4,3.73333 -10.65,6.8 -19.95,9.2c-8.54076,2.19336 -17.04076,3.29336 -25.5,3.3c-3.84648,-2.30586 -7.42982,-5.08919 -10.75,-8.35c-4.65039,-6.1888 -8.20039,-11.3888 -10.65,-15.6c-4.2,-7.16667 -6.75,-13.73333 -7.65,-19.7c-0.39284,-2.4207 -0.74284,-4.68737 -1.05,-6.8c0.32799,0.08607 0.67799,0.15273 1.05,0.2M763.85,220c1.03333,0 2.25,-0.21667 3.65,-0.65c1.96211,-0.62708 3.69544,-1.16042 5.2,-1.6c-1.68216,5.18333 -2.73216,10.8 -3.15,16.85c-1.73034,0.07721 -3.04701,0.16055 -3.95,0.25c-0.41888,-3.23255 -0.70221,-5.93255 -0.85,-8.1c-0.1,-1.3 -0.41667,-2.93333 -0.95,-4.9c-0.13555,-0.49505 -0.26888,-0.96172 -0.4,-1.4c0.10664,-0.14245 0.20664,-0.29245 0.3,-0.45c0.0487,0 0.0987,0 0.15,0z" fill="#86bcff"/><path d="M904.55,400.7c0.04089,2.21562 -0.02578,5.06562 -0.2,8.55c0,7.06667 -1.33333,15.4 -4,25c-0.79323,2.85573 -1.47656,5.28906 -2.05,7.3c-1.3,4.80273 -1.95,7.28607 -1.95,7.45c1.95391,5.47083 3.55391,9.3375 4.8,11.6c-0.84336,0.6513 -1.67669,1.33464 -2.5,2.05c-4.27227,3.69948 -7.5556,7.96615 -9.85,12.8c-0.19323,-3.12839 -1.12656,-6.02839 -2.8,-8.7c-0.42539,-0.68711 -0.87539,-1.32044 -1.35,-1.9c2.5,-5.1431 3.75,-10.65977 3.75,-16.55c0,-2.42826 -0.78333,-5.51159 -2.35,-9.25c0.14076,-0.72982 0.27409,-1.46315 0.4,-2.2c0.76667,-4.7 1.15,-8.4 1.15,-11.1c0,-7.3 -1,-12.83333 -3,-16.6c-1.03112,-1.97044 -2.43112,-3.85378 -4.2,-5.65c-3.35052,-3.41016 -8.03385,-6.49349 -14.05,-9.25c-4.28216,-0.57096 -8.29883,-0.6043 -12.05,-0.1c-7.12734,0.99219 -13.24401,3.97552 -18.35,8.95c-2.53086,2.4668 -4.61419,5.23346 -6.25,8.3c-0.11745,-3.01979 -0.21745,-5.55313 -0.3,-7.6c-0.3,-7.46667 -0.9,-13.56667 -1.8,-18.3c-0.83333,-4.56667 -1.53333,-7.61667 -2.1,-9.15c-1.26667,-3.26667 -3.4,-6.21667 -6.4,-8.85c-2.36667,-3 -6.11667,-5.36667 -11.25,-7.1c-2.25859,-0.74492 -4.24193,-1.06159 -5.95,-0.95c-0.59102,-0.09193 -1.14102,-0.14193 -1.65,-0.15c-0.34336,0.00208 -0.67669,0.01875 -1,0.05c0.06693,-0.11055 0.11693,-0.22721 0.15,-0.35c0.90716,-2.30859 1.67383,-4.70859 2.3,-7.2c0.47708,-1.93724 0.84375,-3.78724 1.1,-5.55c0.18607,0 0.3694,0 0.55,0c7.6,0 13.56667,2.35 17.9,7.05c1.03333,1.06667 2.53333,3.01667 4.5,5.85c1.03971,1.48529 1.97305,2.66862 2.8,3.55c0.05273,0.14961 0.1194,0.24961 0.2,0.3h0.05c0.61263,0.85977 1.21263,1.4931 1.8,1.9c4.68555,8.59193 7.60221,14.55859 8.75,17.9c0.24297,-1.64023 0.65964,-3.2569 1.25,-4.85c1.74896,-4.55078 4.96563,-8.93411 9.65,-13.15c1.63359,-1.47708 3.16693,-2.74375 4.6,-3.8c4.53424,0.12878 9.00091,0.76211 13.4,1.9c0.38112,0.09284 0.74779,0.19284 1.1,0.3c6.72122,1.83242 13.32122,4.84909 19.8,9.05c3.12721,2.01263 6.29388,4.3793 9.5,7.1c0.29883,0.4888 0.53216,0.95547 0.7,1.4c3.03333,8 4.71667,13.4 5.05,16.2c0.11185,0.9224 0.16185,2.1724 0.15,3.75M881.9,469.6c1.3,2.14779 1.95,3.69779 1.95,4.65c0,1.56667 -2.83333,3.1 -8.5,4.6c-0.80104,0.21133 -1.56771,0.39466 -2.3,0.55c1.49232,-1.21146 2.94232,-2.57812 4.35,-4.1c1.70169,-1.84089 3.20169,-3.74089 4.5,-5.7M883.35,481.75c1.66758,-0.81862 2.95091,-1.61862 3.85,-2.4c-1.56667,4.60143 -2.35,9.65143 -2.35,15.15c0,3.3 0.08333,5.85 0.25,7.65c0.0293,0.2806 0.06263,0.56393 0.1,0.85c-2.15885,2.44701 -3.45885,3.84701 -3.9,4.2c-2.66836,2.40482 -6.13503,4.20482 -10.4,5.4c-3.01862,-0.2944 -6.66862,-1.0444 -10.95,-2.25c-5.16667,-1.46667 -8.36667,-2.65 -9.6,-3.55c9.26667,-5.3 15.83333,-9.26667 19.7,-11.9c5.59076,-3.76471 9.27409,-7.81471 11.05,-12.15c0.74167,-0.29427 1.49167,-0.6276 2.25,-1M827.35,466.3c-0.06667,5.5 2.41667,10.38333 7.45,14.65c5,4.23333 10.68333,6.35 17.05,6.35c3.39727,0 6.64727,-0.5 9.75,-1.5c-0.32526,1.15703 -0.84193,2.2237 -1.55,3.2c-4.9,6.66667 -17.18333,10 -36.85,10c-14.61029,0 -27.14362,-1.41667 -37.6,-4.25c2.23424,0.36667 4.56758,0.55 7,0.55c7.56667,0 14.91667,-3.13333 22.05,-9.4c6.9,-6.06667 10.96667,-12.6 12.2,-19.6h0.5M750.1,454.55c0.44414,-3.53099 0.74414,-6.08099 0.9,-7.65c0.70404,12.92565 4.15404,23.72565 10.35,32.4c3.20508,4.49844 6.90508,8.04844 11.1,10.65c-1.74766,-0.86094 -3.39766,-1.7776 -4.95,-2.75c-2.56667,-1.8 -4.11667,-2.86667 -4.65,-3.2c-4.16172,-2.61758 -7.34505,-4.83424 -9.55,-6.65c-0.18841,-0.88776 -0.33841,-1.67109 -0.45,-2.35c-0.4888,0.15273 -0.90547,0.43607 -1.25,0.85c-0.74557,-0.73815 -1.27891,-1.38815 -1.6,-1.95c-0.6,-1.06667 -0.93333,-2.45 -1,-4.15c0.06667,-2.3 0.1,-4.3 0.1,-6c0,-0.83333 0.33333,-3.9 1,-9.2M722,440.55c-0.97552,1.17461 -1.80885,2.35794 -2.5,3.55c-1.65026,0.46667 -3.03359,0.7 -4.15,0.7c-1.33333,0 -2.5,-0.48333 -3.5,-1.45c-1,-1 -1.5,-2.18333 -1.5,-3.55c0,-0.43333 5.66667,-5.78333 17,-16.05c11.7,-10.63333 18.53333,-15.95 20.5,-15.95l3.95,0.75c2.69831,0.49362 4.36497,0.74362 5,0.75c-0.17839,2.1819 -0.32839,4.69857 -0.45,7.55c-0.61862,1.95977 -1.31862,4.35977 -2.1,7.2c-2.26667,8.16667 -3.4,14.08333 -3.4,17.75c0,0.53646 0,1.06979 0,1.6c-0.39701,-0.86406 -1.23034,-1.4974 -2.5,-1.9c-1.7,0.66667 -5.13333,2.6 -10.3,5.8c-5.16667,3.2 -9.4,5.43333 -12.7,6.7l-3.75,-0.5v-0.5c-0.86667,-2.7 0.65,-6.1 4.55,-10.2c4.83333,-4.43333 7.98333,-7.7 9.45,-9.8l-0.75,-0.75c-5.13333,1.33333 -9.41667,4.1 -12.85,8.3z" fill="#ffa420"/><path d="M914.45,183.75c2.13984,3.46185 4.45651,8.39518 6.95,14.8c1.65065,4.24453 3.20065,8.6112 4.65,13.1c-0.15612,2.01003 -0.82279,4.91003 -2,8.7c-1.36667,11.4 -4.1,22.21667 -8.2,32.45c-5.66667,14.16667 -13.66667,26.56667 -24,37.2c-9.08919,9.37122 -19.37253,16.72122 -30.85,22.05c0.39193,0.72448 0.62526,1.37448 0.7,1.95c0.02695,0.11107 0.04362,0.21107 0.05,0.3c0.03333,0.5 -0.01667,0.93333 -0.15,1.3c0,0.91146 1.21667,3.02812 3.65,6.35c0.44336,0.59297 0.91003,1.20964 1.4,1.85c1.36667,1.77214 2.5,3.25547 3.4,4.45h0.05c0.30938,0.00911 0.60938,0.00911 0.9,0h0.35c0.50768,-0.00742 1.00768,-0.00742 1.5,0h0.5c0.19206,0.00456 0.37539,0.00456 0.55,0c10.29062,0.39063 18.84062,3.99063 25.65,10.8c3.90404,3.90404 6.90404,8.63737 9,14.2c2.53333,6.58503 3.8,14.33503 3.8,23.25c0,4.3 -0.11667,6.93333 -0.35,7.9c-0.49206,2.10859 -1.57539,3.97526 -3.25,5.6c0.13151,0.53958 0.24818,1.07292 0.35,1.6c-0.18307,-0.64714 -0.36641,-1.29714 -0.55,-1.95c-1.08294,-3.88177 -2.04961,-7.14844 -2.9,-9.8c-0.0099,0.10807 -0.02656,0.20807 -0.05,0.3c-0.50625,-1.80417 -1.75625,-3.7375 -3.75,-5.8c-0.61667,-0.81536 -1.26667,-1.61536 -1.95,-2.4c2.43372,-0.56693 4.36706,-1.95026 5.8,-4.15c-0.78568,-5.16133 -2.30234,-10.01133 -4.55,-14.55c-4.29779,-8.66497 -10.73112,-14.33164 -19.3,-17c-0.67474,0 -1.40807,0 -2.2,0c-11.16667,0 -16.75,4.33333 -16.75,13c0,1.59141 0.33333,3.50807 1,5.75c-2.41003,-0.39909 -4.92669,-0.73242 -7.55,-1c-5.13932,-0.1987 -10.50599,0.4513 -16.1,1.95c-0.97878,0.25547 -1.96211,0.5388 -2.95,0.85c-0.40182,0.12344 -0.80182,0.2401 -1.2,0.35c1.27799,-2.8125 2.81133,-5.5125 4.6,-8.1c1.33906,-1.92904 2.78906,-3.66237 4.35,-5.2c4.93294,-4.90365 10.96628,-7.88698 18.1,-8.95c-1.60039,-2.18698 -2.83372,-3.88698 -3.7,-5.1c-1.97201,0.53854 -3.90534,1.18854 -5.8,1.95c-3.69987,1.55729 -7.19987,3.60729 -10.5,6.15c-5.98437,4.62852 -9.88438,9.91185 -11.7,15.85c0.76029,1.59193 1.57695,3.60859 2.45,6.05c0.6349,1.81589 1.1849,3.53255 1.65,5.15c-0.72643,0.2 -1.2931,0.3 -1.7,0.3c-0.02526,0 -0.05859,0 -0.1,0c-0.31549,0.16667 -0.78216,0.25 -1.4,0.25c-0.15026,0 -0.30026,-0.01667 -0.45,-0.05l-0.3,0.05c-0.05664,-0.05664 -0.10664,-0.12331 -0.15,-0.2c-0.2724,-0.07995 -0.55573,-0.21328 -0.85,-0.4c-0.58737,-0.4069 -1.18737,-1.04023 -1.8,-1.9h-0.05c-0.0806,-0.05039 -0.14727,-0.15039 -0.2,-0.3c-0.82695,-0.88138 -1.76029,-2.06471 -2.8,-3.55c-1.96667,-2.83333 -3.46667,-4.78333 -4.5,-5.85c-4.33333,-4.7 -10.3,-7.05 -17.9,-7.05c-0.1806,0 -0.36393,0 -0.55,0c-0.25625,1.76276 -0.62292,3.61276 -1.1,5.55c-0.62617,2.49141 -1.39284,4.89141 -2.3,7.2c-1.66732,-0.28086 -3.68398,-0.79753 -6.05,-1.55c-1.06484,2.57044 -2.31484,5.00378 -3.75,7.3c-6.32956,9.97461 -15.42956,16.25794 -27.3,18.85c-0.59714,2.44362 -1.23047,4.52695 -1.9,6.25c1.78008,-0.68086 3.94674,-1.06419 6.5,-1.15v0c11.47513,-3.12005 20.4418,-9.45339 26.9,-19c0.17344,-0.22227 0.3401,-0.4556 0.5,-0.7c0.85469,-1.30768 1.65469,-2.65768 2.4,-4.05c0.20091,0.10703 0.41758,0.20703 0.65,0.3c0.17695,-0.03542 0.49362,-0.13542 0.95,-0.3c0.04635,-0.14427 0.09635,-0.29427 0.15,-0.45c0.72096,-2.11133 1.32096,-3.84466 1.8,-5.2c0.50898,0.00807 1.05898,0.05807 1.65,0.15c1.70807,-0.11159 3.69141,0.20508 5.95,0.95c5.13333,1.73333 8.88333,4.1 11.25,7.1c3,2.63333 5.13333,5.58333 6.4,8.85c0.56667,1.53333 1.26667,4.58333 2.1,9.15c0.9,4.73333 1.5,10.83333 1.8,18.3c0.08255,2.04688 0.18255,4.58021 0.3,7.6c1.63581,-3.06654 3.71914,-5.8332 6.25,-8.3c5.10599,-4.97448 11.22266,-7.95781 18.35,-8.95c3.75117,-0.5043 7.76784,-0.47096 12.05,0.1c6.01615,2.75651 10.69948,5.83984 14.05,9.25c1.76888,1.79622 3.16888,3.67956 4.2,5.65c2,3.76667 3,9.3 3,16.6c0,2.7 -0.38333,6.4 -1.15,11.1c-0.12591,0.73685 -0.25924,1.47018 -0.4,2.2c-1.09622,5.77396 -2.56289,11.09063 -4.4,15.95c-0.8582,2.23698 -1.77487,4.32031 -2.75,6.25c2.22161,0.52578 4.13828,1.72578 5.75,3.6c0.47461,0.57956 0.92461,1.21289 1.35,1.9c1.67344,2.67161 2.60677,5.57161 2.8,8.7c2.2944,-4.83385 5.57773,-9.10052 9.85,-12.8c0.82331,-0.71536 1.65664,-1.3987 2.5,-2.05c-1.24609,-2.2625 -2.84609,-6.12917 -4.8,-11.6c0,-0.16393 0.65,-2.64727 1.95,-7.45c2.43971,-1.37669 5.23971,-3.47669 8.4,-6.3c-0.10755,0.44896 -0.22422,0.89896 -0.35,1.35c-1.33333,4.8 -2.66667,9.3 -4,13.5c0,0.76667 0.63333,2.15 1.9,4.15c0.79896,1.29557 1.33229,2.37891 1.6,3.25c6.68893,-3.81823 14.4056,-5.96823 23.15,-6.45c11.76667,-0.66667 21.86667,1.85 30.3,7.55c6.97344,4.72474 11.30677,10.77474 13,18.15c3.04102,-0.18698 6.35768,0.19635 9.95,1.15c9.65898,2.49466 14.67565,7.09466 15.05,13.8c3.86133,-1.17578 7.87799,-0.57578 12.05,1.8c0.63333,0.26667 2.23333,1.53333 4.8,3.8c2.56667,2.3 4.13333,3.86667 4.7,4.7c2.26667,3.13333 3.63333,6.38333 4.1,9.75c0.1,0.76667 0.15,3.76667 0.15,9c0,6.86667 -1.51667,13.86667 -4.55,21c-4.86667,11.5 -12.43333,17.25 -22.7,17.25c-7.1,0 -12.15,-1.26667 -15.15,-3.8c-0.76042,-0.63372 -1.37708,-1.33372 -1.85,-2.1c-0.15768,0.14336 -0.32435,0.27669 -0.5,0.4c-8.2,5.73333 -15.53333,8.6 -22,8.6c-0.12318,0 -0.25651,0 -0.4,0c-0.3875,1.69245 -1.8375,3.29245 -4.35,4.8c-3.6,2.13333 -8.35,3.2 -14.25,3.2c-12.96667,0 -21.9,-4.28333 -26.8,-12.85c-0.09023,-0.15977 -0.19023,-0.32643 -0.3,-0.5c-4.90872,1.33646 -9.09206,-0.41354 -12.55,-5.25c-1.26497,0.5 -2.71497,0.75 -4.35,0.75c-9.8,0 -20.78333,-0.88333 -32.95,-2.65c-12.66367,-1.84115 -21.46367,-4.27448 -26.4,-7.3c-0.33398,6.83477 -1.90065,13.28477 -4.7,19.35c-0.94271,2.02943 -2.00937,3.94609 -3.2,5.75c1.19297,0.03294 2.49297,0.11628 3.9,0.25c8.2,0.76667 17.86667,3.28333 29,7.55c11.63333,4.46667 21.28333,9.53333 28.95,15.2c8.76667,6.5 13.15,12.65 13.15,18.45c0,1.73333 -0.2,2.96667 -0.6,3.7c-0.7,1.4 -2.31667,2.56667 -4.85,3.5c-6.53333,2.46667 -20.3,3.81667 -41.3,4.05h-58c-3.4,-1.56667 -5.43333,-3.08333 -6.1,-4.55c-0.26667,-0.56667 -0.4,-2.33333 -0.4,-5.3c0,-2.91849 0.11667,-4.76849 0.35,-5.55c-1.25,-0.27799 -2.66667,-0.72799 -4.25,-1.35c-3.46667,-1.53333 -6.31667,-2.68333 -8.55,-3.45c-7.15755,-2.51992 -15.25755,-3.63659 -24.3,-3.35c-0.6487,0.28919 -1.31536,0.58919 -2,0.9c-5.23333,2.36667 -9.31667,4.38333 -12.25,6.05c-0.23333,0.13333 -3.15,2.4 -8.75,6.8c-4.66667,3.63333 -7.75,5.45 -9.25,5.45c-0.65937,0 -1.30937,-0.01667 -1.95,-0.05c-7.1013,3.1362 -16.6013,5.4362 -28.5,6.9c-2.8,0.33333 -10.2,1.03333 -22.2,2.1c-7.51745,0.66693 -13.11745,1.38359 -16.8,2.15c-0.3707,0.08815 -0.7207,0.17148 -1.05,0.25l-44.5,0.5c-3.33333,0.33333 -5.83333,0.5 -7.5,0.5c-1.66667,0 -6,-0.33333 -13,-1c-2.5,-1.86667 -3.75,-3.53333 -3.75,-5c0,-4.13333 3.63333,-8.11667 10.9,-11.95c2.31211,-1.01094 4.41211,-1.96094 6.3,-2.85c5.34909,-2.39922 9.11576,-4.24922 11.3,-5.55c2.23333,-1.33333 9.98333,-4.11667 23.25,-8.35c4.34779,-1.39987 7.99779,-2.56654 10.95,-3.5c2.26927,-2.45378 5.91927,-5.75378 10.95,-9.9c4.95547,-4.06927 8.92214,-7.03594 11.9,-8.9c-5.14935,-1.70768 -9.83268,-4.57435 -14.05,-8.6c-2.6,-2.46667 -4.73333,-5.13333 -6.4,-8c-0.70638,-1.19414 -1.23971,-2.22747 -1.6,-3.1c-0.47604,0.0599 -0.95938,0.12656 -1.45,0.2c-5.33333,0.8 -10.6,0.01667 -15.8,-2.35c-2.76667,-1.2 -5.13333,-4.05 -7.1,-8.55c-1.53477,-3.51719 -2.33477,-6.48385 -2.4,-8.9c-1.50391,-0.03633 -2.70391,-0.06966 -3.6,-0.1c-3.36667,-0.1 -6.11667,-0.56667 -8.25,-1.4c-2.76667,-1.06667 -5.56667,-3 -8.4,-5.8c-4.66667,-4.66667 -7.35,-7.9 -8.05,-9.7c-0.3,-0.76667 -0.45,-3.53333 -0.45,-8.3c0,-11.46667 4.33333,-18.21667 13,-20.25c2.9,-0.66667 6.68333,-0.88333 11.35,-0.65c2.53333,0.16667 5.95,0.38333 10.25,0.65c0.43333,0 3.06667,-0.46667 7.9,-1.4c0.75768,-0.14922 1.45768,-0.28255 2.1,-0.4c-1.73333,-3.97018 -2.6,-8.45352 -2.6,-13.45c0,-2 0.45,-4.75 1.35,-8.25c1.13333,-4.43333 2.61667,-8.13333 4.45,-11.1c5.3,-8.66667 12.11667,-9.21667 20.45,-1.65c7.66667,11.86667 13.75,22.86667 18.25,33c0.7,1.56667 1.6,4.33333 2.7,8.3c1.16667,4.23333 2.18333,7.43333 3.05,9.6c0.84219,2.12396 1.80885,4.04062 2.9,5.75c0.31068,-0.42487 0.74401,-0.9082 1.3,-1.45c1.33333,-1.33333 2.83333,-2.45 4.5,-3.35c0.39128,-0.21159 0.77461,-0.41159 1.15,-0.6c-0.39596,-0.62096 -0.7793,-1.27096 -1.15,-1.95c-2.1,-3.83333 -3.75,-8.03333 -4.95,-12.6c-0.83333,-3.1 -1.25,-5.16667 -1.25,-6.2c-0.36667,-3.43333 -2.65,-7.18333 -6.85,-11.25c-4.76667,-4.06667 -7.81667,-6.9 -9.15,-8.5c-1.73333,-2.06667 -3.51667,-5.25 -5.35,-9.55c-1.8957,-4.4125 -2.86237,-7.8125 -2.9,-10.2c-9.73424,-0.23203 -17.23424,-4.8987 -22.5,-14c-4,-6.9 -6,-14.15 -6,-21.75c0,-14.43333 0.35,-24.55 1.05,-30.35c0.29857,-2.53034 0.6819,-5.01367 1.15,-7.45c-3.15443,1.7 -6.97109,2.55 -11.45,2.55c-11.43333,0 -20,-6.41667 -25.7,-19.25c-1.86667,-4.13333 -3.3,-8.66667 -4.3,-13.6c-0.66667,-3.33333 -1,-5.68333 -1,-7.05c0,-14.96667 3.88333,-30.03333 11.65,-45.2c7.23333,-14.2 16.78333,-26.5 28.65,-36.9c11.93333,-10.43333 24.06667,-17.1 36.4,-20c11.59023,-2.75964 21.89023,-1.79297 30.9,2.9c-0.9,-5.10677 -1.35,-10.2401 -1.35,-15.4c0,-7.53333 2.03333,-17.01667 6.1,-28.45c4.8,-13.43333 11.26667,-25.78333 19.4,-37.05c9.9,-13.7 21.35,-24.36667 34.35,-32c15.36667,-9 32.33333,-13.33333 50.9,-13c18.15391,-1.5056 34.68724,0.57773 49.6,6.25c-0.03424,1.75911 -0.06758,3.50911 -0.1,5.25c-2.16367,-0.87331 -4.38034,-1.67331 -6.65,-2.4c-19.56667,-6.26667 -41.85,-5.96667 -66.85,0.9c-23.2,3.7 -43.23333,18.43333 -60.1,44.2c-4.94362,7.52839 -9.14362,15.36172 -12.6,23.5c-1.12786,2.66471 -2.17786,5.36471 -3.15,8.1c-3.6,10.13333 -5.4,18.56667 -5.4,25.3c0,5.9651 1.18333,12.94844 3.55,20.95c-1.57031,0.15117 -2.92031,0.26784 -4.05,0.35c-0.80013,0.04661 -1.55013,0.06328 -2.25,0.05c1.23919,4.9487 2.90586,9.88203 5,14.8c2.74453,6.47161 6.09453,12.57161 10.05,18.3c-5.0625,2.70664 -8.8625,7.77331 -11.4,15.2c-2.1,6.06667 -3.15,12.76667 -3.15,20.1c0,0.33333 0.21667,1.31667 0.65,2.95c0.6,2.23333 1.31667,4.28333 2.15,6.15c2.54948,5.7526 5.69948,8.68594 9.45,8.8c0,-0.18255 0,-0.31589 0,-0.4c0,-2.83333 2.41667,-6.43333 7.25,-10.8c2.42227,-2.17122 4.82227,-3.80456 7.2,-4.9c-6.92656,-0.9694 -11.89323,-3.9694 -14.9,-9c-2.03333,-3.36667 -3.05,-7.3 -3.05,-11.8c0,-1.46667 0.83333,-4.3 2.5,-8.5c1.35013,-3.37539 2.55013,-5.80872 3.6,-7.3c3.77344,5.38646 8.07344,10.45312 12.9,15.2c8.68789,8.52943 18.63789,15.52943 29.85,21c-3.98867,0.44844 -8.40534,1.4651 -13.25,3.05c-5.5,1.8 -10.68333,4.08333 -15.55,6.85c-4.53333,2.6 -7.55,4.88333 -9.05,6.85c-0.99805,1.31432 -1.94805,2.69766 -2.85,4.15c-0.07435,-0.00352 -0.15768,-0.00352 -0.25,0c1.57487,0.4918 3.49154,1.02513 5.75,1.6c0.12018,0.03073 0.23685,0.06406 0.35,0.1c0.93073,-1.09466 1.93073,-2.12799 3,-3.1c2.3,-2.13333 4.5,-3.88333 6.6,-5.25c3.13333,-2.06667 6.76667,-3.81667 10.9,-5.25c4.36667,-1.53333 11.05,-2.75 20.05,-3.65c2.08646,-0.20456 3.91979,-0.38789 5.5,-0.55c0.23646,0.08854 0.46979,0.17188 0.7,0.25c-0.51536,-0.41641 -1.06536,-0.84974 -1.65,-1.3c-5.4,-3.8 -8.68333,-6.21667 -9.85,-7.25c-3.95156,-3.25612 -7.15156,-5.90612 -9.6,-7.95c0.31328,0.22682 0.62995,0.44349 0.95,0.65c-0.1,-0.1 -0.2,-0.2 -0.3,-0.3c-3.2,-3.16667 -6.71667,-7.01667 -10.55,-11.55c-4.26667,-5 -6.43333,-7.53333 -6.5,-7.6c-2.6,-2.76667 -5.26667,-8.6 -8,-17.5c-1.35078,-4.33919 -2.36745,-8.18919 -3.05,-11.55l-10.45,-0.7c-0.25872,-0.23151 -0.55872,-0.48151 -0.9,-0.75c-0.5112,-0.97279 -0.97786,-1.98945 -1.4,-3.05c-0.09492,-0.23724 -0.19492,-0.48724 -0.3,-0.75c0.55195,-0.86029 1.58529,-1.37695 3.1,-1.55c1.67852,-0.22799 4.69518,-0.17799 9.05,0.15c-0.03333,-0.62266 -0.05,-1.22266 -0.05,-1.8c0,-4.85677 0.75,-9.4901 2.25,-13.9c-1.96823,-1.01471 -4.3849,-2.53138 -7.25,-4.55c-5.66667,-4.03333 -8.5,-6.55 -8.5,-7.55c0,-4.13333 4.13333,-4 12.4,0.4c0.94844,0.50586 1.88177,1.02253 2.8,1.55c1.37812,0.83932 2.71146,1.70599 4,2.6c0.29831,-0.45794 0.59831,-0.92461 0.9,-1.4c4,-6.23333 8.85,-10.61667 14.55,-13.15c5.73333,-2.56667 10.56667,-2.43333 14.5,0.4c2.97344,2.13997 4.9401,5.55664 5.9,10.25c0.89518,-0.51667 1.89518,-0.96667 3,-1.35c1.25677,-0.45781 2.72344,-0.85781 4.4,-1.2c1.68672,-0.32318 3.57005,-0.58984 5.65,-0.8c0.69792,-1.44076 1.44792,-2.84076 2.25,-4.2c0.98307,-1.66471 2.03307,-3.26471 3.15,-4.8c8.98034,-11.89115 22.81367,-19.24115 41.5,-22.05v-0.5c12.63333,-1.3 23.03333,1.55 31.2,8.55c2.93333,2.53333 5.3,5.35 7.1,8.45c0.2,0.33333 0.38333,0.66667 0.55,1c0.03333,-0.33333 0.08333,-0.66667 0.15,-1c0.2,0.9 0.4,1.76667 0.6,2.6c0.6,1.43333 0.9,2.65 0.9,3.65c0,0.23333 0,0.5 0,0.8c0.66667,3.76667 1,6.91667 1,9.45c1.83333,-1.5 4.26667,-3.95 7.3,-7.35c3.3,-3.73333 5.91667,-6.46667 7.85,-8.2c7.36667,-6.53333 17.15,-11.01667 29.35,-13.45v-0.5c2.26953,-0.22135 4.30286,-0.05469 6.1,0.5M928.9,459.6c-3.08424,0.62865 -6.08424,2.14531 -9,4.55c1.2457,1.12669 2.5457,2.74336 3.9,4.85c2.13333,3.4 3.2,5.83333 3.2,7.3c0,1.00716 -0.03333,1.99049 -0.1,2.95c4.47526,-0.14701 7.90859,-0.06367 10.3,0.25c0.53333,0.06667 4.13333,1.03333 10.8,2.9c0.56003,0.17122 1.29336,0.48789 2.2,0.95c0.03333,-0.40664 0.05,-0.82331 0.05,-1.25c0,-1.63333 -0.38333,-3.86667 -1.15,-6.7c-0.76667,-2.73333 -1.51667,-4.68333 -2.25,-5.85c-0.63333,-0.93333 -1.36667,-1.91667 -2.2,-2.95c-1.2,-1.43333 -2.21667,-2.36667 -3.05,-2.8c-0.16667,-0.1 -0.6,-0.48333 -1.3,-1.15c-0.38164,-0.36341 -0.71497,-0.66341 -1,-0.9c-1.74232,-0.26875 -3.59232,-0.46875 -5.55,-0.6h-0.1c-0.1,-0.03333 -0.15,-0.3 -0.15,-0.8c0,-0.11797 0.01667,-0.23464 0.05,-0.35c-1.36068,-0.18255 -2.91068,-0.31589 -4.65,-0.4M941.15,458.5c-2.68333,-1.09219 -4.2,-2.00885 -4.55,-2.75c-1.30937,0 -2.59271,0.03333 -3.85,0.1c1.46888,0.24154 2.91888,0.7082 4.35,1.4c0.82461,0.19948 1.65794,0.41615 2.5,0.65c0.12552,0.10625 0.32552,0.27292 0.6,0.5c0.32318,0.02643 0.63984,0.05977 0.95,0.1M918.85,460c-0.5,-0.33294 -0.75,-0.53294 -0.75,-0.6c0,-0.53763 0.21667,-1.02096 0.65,-1.45c-2.89062,0.8207 -5.59063,1.85404 -8.1,3.1c1.84922,0.10247 3.73255,0.46914 5.65,1.1c0.87357,-0.78034 1.72357,-1.49701 2.55,-2.15M913.45,464.95c-1.26185,-0.2 -2.66185,-0.3 -4.2,-0.3c-1.96185,0 -3.72852,0.21667 -5.3,0.65c-0.77305,0.62279 -1.52305,1.27279 -2.25,1.95c-0.07812,0.25716 -0.21146,0.49049 -0.4,0.7c-0.3,0.33333 -0.45,0.7 -0.45,1.1c0,0.43333 0.13333,1.61667 0.4,3.55c0.23333,1.96667 0.35,3.15 0.35,3.55c0,0.63333 0.4,2 1.2,4.1c0.08229,0.22161 0.14896,0.43828 0.2,0.65c0.50911,-1.12956 1.12578,-2.37956 1.85,-3.75c2.4,-4.56667 5.26667,-8.61667 8.6,-12.15v-0.05M905.55,484.6c0.03333,0.15638 0.05,0.38971 0.05,0.7c0,0.29987 -0.26667,0.71654 -0.8,1.25l-0.3,1.55c2.16979,4.54297 4.45313,8.54297 6.85,12c4.45469,-1.39414 7.78802,-4.36081 10,-8.9c1.31953,-2.74453 2.11953,-5.59453 2.4,-8.55c-8.41953,0.04531 -14.1862,0.52865 -17.3,1.45c-0.30677,0.17682 -0.60677,0.34349 -0.9,0.5M905.5,481.7c2.0401,-0.77656 5.5401,-1.37656 10.5,-1.8c2.85417,-0.22682 5.47083,-0.41016 7.85,-0.55c-0.13776,-5.29909 -1.42109,-9.11576 -3.85,-11.45c-0.6819,-0.65182 -1.4819,-1.20182 -2.4,-1.65c-1.79831,1.73333 -3.88164,3.95 -6.25,6.65c-1.56667,1.56667 -3.23333,4 -5,7.3c-0.28333,0.52917 -0.56667,1.02917 -0.85,1.5M954.35,464.5c2.13333,1.2 3.68333,2.46667 4.65,3.8c1.9,2.53333 3.36667,5.51667 4.4,8.95c0.64505,2.09076 1.07839,4.12409 1.3,6.1v0.05c0.1,0.97578 0.15,1.94245 0.15,2.9c0,1.83828 -0.06667,3.62161 -0.2,5.35c-0.00977,0.45859 -0.0431,0.90859 -0.1,1.35v0c-0.0306,0.66237 -0.0806,1.31237 -0.15,1.95c0.27201,0.29284 0.55534,0.62617 0.85,1c0.36706,0.46615 0.70039,0.91615 1,1.35c0.9,-4.04245 1.35,-8.22578 1.35,-12.55c0,-1.08151 -0.25,-2.56484 -0.75,-4.45c-0.39648,-1.48789 -0.94648,-3.22122 -1.65,-5.2c-1.63333,-4.6 -3,-7.38333 -4.1,-8.35c-1.83333,-1.63333 -6.36667,-3.63333 -13.6,-6c-0.24219,-0.07708 -0.49219,-0.16042 -0.75,-0.25c0.2987,0.18047 0.58203,0.3638 0.85,0.55c1.73333,0.9 3.98333,2.05 6.75,3.45M948,465.15c2.06667,2.5 3.53333,5.28333 4.4,8.35c0.73333,2.5 1.1,5.35 1.1,8.55c0,1.05273 -0.03333,2.08607 -0.1,3.1c0.25234,0.14909 0.50234,0.29909 0.75,0.45c3.03333,1.83333 4.98333,3.26667 5.85,4.3c0.2457,0.29141 0.47904,0.57474 0.7,0.85c0.26797,0.32148 0.51797,0.62148 0.75,0.9c0.13581,-1.01432 0.23581,-1.98099 0.3,-2.9c0.06667,-0.88685 0.1,-1.72018 0.1,-2.5c0,-6.33333 -1.6,-11.48333 -4.8,-15.45c-2.54466,-3.15312 -6.06133,-5.55312 -10.55,-7.2c0.68203,0.63594 1.18203,1.1526 1.5,1.55M952.85,491.1l-2.45,9.45c-0.14701,0.44844 -0.31367,0.88177 -0.5,1.3v0c-1.86328,4.5974 -4.46328,8.7474 -7.8,12.45c-1.45911,1.61836 -2.99245,3.06836 -4.6,4.35c1.48451,0.23333 2.98451,0.35 4.5,0.35c4.96667,0 8.5,-0.53333 10.6,-1.6c0.14427,-0.07865 0.31094,-0.19531 0.5,-0.35c2.24141,-2.44687 3.65807,-4.78021 4.25,-7c1.43333,-5.36667 2.43333,-9.4 3,-12.1c0.04193,-0.19674 0.07526,-0.39674 0.1,-0.6c-0.6418,-1.09154 -1.2918,-2.09154 -1.95,-3c-0.80026,-1.06836 -1.60026,-1.98503 -2.4,-2.75c-0.90599,-0.8862 -1.90599,-1.70286 -3,-2.45c-0.00964,0.08281 -0.0263,0.16615 -0.05,0.25c-0.01445,0.25625 -0.04779,0.50625 -0.1,0.75c-0.01641,0.26029 -0.04974,0.51029 -0.1,0.75c0.00586,0.07214 0.00586,0.1388 0,0.2M973.1,484.25c0,11.7 -2.33333,21.95 -7,30.75c-6.97995,13.15885 -18.34661,20.67552 -34.1,22.55c0.42839,0.58346 0.89505,1.2668 1.4,2.05c2.06667,3.2 3.71667,5.55 4.95,7.05c5.1,6.23333 10.88333,9.35 17.35,9.35c5.36667,0 11.3,-2.25 17.8,-6.75c3.86667,-2.66667 6.15,-4.21667 6.85,-4.65c2.43333,-1.4 4.6,-2.1 6.5,-2.1c1.03333,0 1.63333,0.08333 1.8,0.25c0.1,0.1 0.08333,0.18333 -0.05,0.25l0.5,1.5c-1.77721,1.81628 -3.74388,3.59961 -5.9,5.35c0.31432,0.26732 0.69766,0.61732 1.15,1.05c2,1.4 5.78333,2.1 11.35,2.1c8.33333,0 14.46667,-5.16667 18.4,-15.5c1.26667,-3.3 2.23333,-6.95 2.9,-10.95c0.4,-2.53333 0.6,-4.38333 0.6,-5.55c0,-5.1 -0.75,-9.35 -2.25,-12.75c-2.93333,-6.66667 -8.43333,-10 -16.5,-10c-0.79479,0 -1.74479,0.35 -2.85,1.05c-0.19115,0.66133 -0.40781,1.36133 -0.65,2.1c-1.33333,4.06667 -2,6.38333 -2,6.95c0,0.46667 0.85,1.95 2.55,4.45c1.73333,2.6 2.63333,4 2.7,4.2l-0.25,0.5c-3.96667,-2.66667 -6.55,-4.45 -7.75,-5.35c-1.83333,-1.36667 -2.75,-3.21667 -2.75,-5.55c0,-1.46667 0.58333,-3.98333 1.75,-7.55c1.16667,-3.56667 1.75,-5.8 1.75,-6.7c0,-2.83333 -1.75,-5.18333 -5.25,-7.05c-3.1944,-1.75182 -7.56107,-2.91849 -13.1,-3.5c0.06667,0.81549 0.1,1.63216 0.1,2.45M926.6,482.65c-0.73229,5.60573 -2.49896,10.23906 -5.3,13.9c-2.1819,2.86602 -4.84857,4.93268 -8,6.2l4.45,5.1c0.22826,0.21745 0.44492,0.43411 0.65,0.65v0c4.74323,4.63815 9.79323,7.73815 15.15,9.3c3.68802,-2.45638 6.85469,-5.78971 9.5,-10c0.6319,-1.00065 1.21523,-2.01732 1.75,-3.05c2.86016,-5.36172 4.59349,-11.17839 5.2,-17.45c-5.80352,-2.94062 -13.60352,-4.49062 -23.4,-4.65M749.65,226c-0.03333,0.23333 -0.05,0.51667 -0.05,0.85c0,9.96667 3.7,21.18333 11.1,33.65c1.60117,2.70833 3.26784,5.25833 5,7.65c-0.40078,-0.99792 -0.85078,-2.13125 -1.35,-3.4c-0.63333,-1.66667 -1.33333,-4 -2.1,-7c-0.22643,-1.01862 -0.4431,-1.95195 -0.65,-2.8c-0.27148,-0.86003 -0.47148,-1.64336 -0.6,-2.35c-0.04232,-0.2431 -0.10898,-0.57643 -0.2,-1c-0.06992,-0.27539 -0.13659,-0.52539 -0.2,-0.75c-0.8582,-3.09909 -1.6082,-6.31576 -2.25,-9.65c-0.23659,-1.07891 -0.50326,-2.22891 -0.8,-3.45c-1.01029,-4.10716 -1.69362,-7.62383 -2.05,-10.55c-1.07591,-0.19297 -2.47591,-0.54297 -4.2,-1.05c-0.63333,-0.06667 -1.18333,-0.11667 -1.65,-0.15M763.8,221.85c0.53333,1.96667 0.85,3.6 0.95,4.9c0.14779,2.16745 0.43112,4.86745 0.85,8.1c0.90299,-0.08945 2.21966,-0.17279 3.95,-0.25c0.41784,-6.05 1.46784,-11.66667 3.15,-16.85c-1.50456,0.43958 -3.23789,0.97292 -5.2,1.6c-1.4,0.43333 -2.61667,0.65 -3.65,0.65c-0.0513,0 -0.1013,0 -0.15,0c-0.1388,-0.00443 -0.27214,-0.02109 -0.4,-0.05c0.04102,0.17591 0.07435,0.34258 0.1,0.5c0.13112,0.43828 0.26445,0.90495 0.4,1.4M766.3,239.8c0.30716,2.11263 0.65716,4.3793 1.05,6.8c0.9,5.96667 3.45,12.53333 7.65,19.7c2.44961,4.2112 5.99961,9.4112 10.65,15.6c3.32018,3.26081 6.90352,6.04414 10.75,8.35c9.51536,5.66667 20.66536,8.5 33.45,8.5c13.54362,0 24.69362,-1.83333 33.45,-5.5c0.84219,-0.35078 1.65885,-0.71745 2.45,-1.1c2.7,-1.33333 5.28333,-2.95 7.75,-4.85c2.3,-1.76667 3.58333,-2.7 3.85,-2.8c0.43333,0.16667 0.88333,0.31667 1.35,0.45c0.26667,0.2 0.4,0.83333 0.4,1.9c0,0.7638 -0.3,1.6638 -0.9,2.7c-1.91289,3.58034 -7.09622,8.81367 -15.55,15.7c-0.56667,0.46667 -1.11667,0.91667 -1.65,1.35c11.72057,-5.70404 22.03724,-14.30404 30.95,-25.8c2.49297,-3.20104 4.8763,-6.63438 7.15,-10.3c2.66667,-4.3 5.1,-8.8 7.3,-13.5c-11.86667,17 -25.38333,25.5 -40.55,25.5c-8.2,0 -13.7,-2.5 -16.5,-7.5c-0.86667,-1.56667 -1.41667,-3.28333 -1.65,-5.15l-0.05,-1.65c-1.26667,1.36667 -2.66667,2.63333 -4.2,3.8c-8,6.16667 -18.86667,9.25 -32.6,9.25c-17.66667,0 -29.83333,-6.25 -36.5,-18.75c-3.33333,-6.26667 -5,-13.51667 -5,-21.75c0,-0.25065 0,-0.50065 0,-0.75h-2c-0.37201,-0.04727 -0.72201,-0.11393 -1.05,-0.2M807.5,264.05c-2.86667,1.43333 -4.83333,2.83333 -5.9,4.2c0.96667,0.73333 2.8,1.61667 5.5,2.65c3.6,1.4 6.68333,2.1 9.25,2.1c3.03333,0 6.8,-1.15 11.3,-3.45c3.93333,-1.96667 6.25,-3.48333 6.95,-4.55c-3.2,-4.76667 -9.08333,-6.21667 -17.65,-4.35c-3.3,0.73333 -6.45,1.86667 -9.45,3.4M862.6,272h8.5c4,-0.8 7.11667,-2 9.35,-3.6c1.93333,-1.33333 2.9,-2.68333 2.9,-4.05c0,-4.33333 -3.91667,-5.16667 -11.75,-2.5c-2.96667,1.03333 -5.66667,2.31667 -8.1,3.85c-2.43333,1.53333 -3.65,2.71667 -3.65,3.55c0,0.33333 0.21667,0.8 0.65,1.4c0.56667,0.8 1.26667,1.25 2.1,1.35M731.7,337.15c-4.66667,6.3 -7,11.91667 -7,16.85c0,4.26667 1.61667,8.51667 4.85,12.75c0.33385,0.43359 0.66719,0.85026 1,1.25c4.79414,5.4 11.61081,8.1 20.45,8.1c8.63333,0 15.96667,-1.8 22,-5.4c2.1,-1.26667 4.05,-2.75 5.85,-4.45c1.43333,-1.36667 2.76667,-2.86667 4,-4.5c2.43333,-3.26667 4.3,-6.9 5.6,-10.9c0.46667,-1.46667 0.83333,-2.78333 1.1,-3.95c0.2,-1.13333 0.3,-2.13333 0.3,-3c0,-2.36667 -0.81667,-5.05 -2.45,-8.05c-1.48268,-2.67409 -3.36602,-5.04076 -5.65,-7.1c-0.5888,-0.53958 -1.20547,-1.05625 -1.85,-1.55c-0.03333,-0.03333 -0.06667,-0.06667 -0.1,-0.1c-7,-5.26667 -15.41667,-6.96667 -25.25,-5.1c-1.76667,0.33333 -3.58333,0.78333 -5.45,1.35c-6.13333,2.23333 -11.63333,6.45 -16.5,12.65c-0.3,0.36667 -0.6,0.75 -0.9,1.15M695.6,316.75c-3.06667,0 -7.26667,2.38333 -12.6,7.15c-5.1,4.5 -7.65,7.65 -7.65,9.45c0,0.13333 0.1,1.46667 0.3,4c0.43333,2.43333 1.33333,3.65 2.7,3.65c12,-12.93333 18,-20.15 18,-21.65c0,-0.96667 -0.11667,-1.61667 -0.35,-1.95c-0.26667,-0.33333 -0.4,-0.55 -0.4,-0.65M690.35,305.75c0,-2.9 -3.81667,-5.16667 -11.45,-6.8c-8.93333,-1.33333 -14.7,-2.31667 -17.3,-2.95l-0.1,0.35c-0.1,0.46667 -0.15,1.21667 -0.15,2.25c0,1.56667 1.66667,3.78333 5,6.65c3.83333,3.33333 7.66667,5 11.5,5c2.46667,0 4.96667,-0.33333 7.5,-1c3.33333,-0.86667 5,-2.03333 5,-3.5M689.3,347c-0.43919,0.96393 -0.90586,1.9306 -1.4,2.9c-4.56667,8.96667 -10.65,18.33333 -18.25,28.1c-6.86667,8.8 -13.63333,16.25 -20.3,22.35c-1.86198,1.71237 -3.57865,3.17904 -5.15,4.4c0.78503,3.87214 1.76836,7.10547 2.95,9.7c3.63333,8.03333 9.08333,12.05 16.35,12.05c7.46667,0 16.86667,-3.18333 28.2,-9.55c5.9,-3.3 11.78333,-7.15 17.65,-11.55c2.46667,-1.86667 5.31667,-3.9 8.55,-6.1c3.53333,-2.36667 5.9,-4 7.1,-4.9c1.99635,-2.3194 3.77969,-4.3194 5.35,-6c-7.82878,-2.66068 -13.51211,-7.37734 -17.05,-14.15c-2.46667,-4.76667 -3.7,-11.15 -3.7,-19.15c0,-3.64193 0.6,-7.60859 1.8,-11.9c-5.27279,0.34076 -10.75612,1.14076 -16.45,2.4c-2.15794,0.48555 -4.04128,0.95221 -5.65,1.4M640.6,484l0.5,1.5c-0.28672,0.21276 -0.58672,0.41276 -0.9,0.6c1.15742,2.82461 3.04076,7.12461 5.65,12.9l-0.5,0.5c-3.92721,-4.02865 -6.94388,-7.74531 -9.05,-11.15c-3.19779,1.53307 -6.79779,2.54974 -10.8,3.05c-1.4,0.16667 -6.35,0.3 -14.85,0.4c-5.26667,0.06667 -8.98333,0.86667 -11.15,2.4c-2.93333,2.1 -4.4,6.03333 -4.4,11.8c0,2.93333 0.66667,5.71667 2,8.35c1.76667,3.53333 4.51667,6.25 8.25,8.15c5,2.56667 9.16667,3.95 12.5,4.15h0.9c0.02747,-0.28698 0.06081,-0.58698 0.1,-0.9c1,0 1.5,-0.08333 1.5,-0.25c0.31276,0.36172 0.59609,0.74505 0.85,1.15c0.61341,0.0263 1.29674,0.04297 2.05,0.05c2.66667,0.03333 5.36667,0.21667 8.1,0.55c0.23333,0 4.4,2 12.5,6c-0.66667,0.5 -2.08333,0.83333 -4.25,1c-4.9,-1.23333 -9.75,-2 -14.55,-2.3c-0.61797,-0.01263 -1.21797,-0.0293 -1.8,-0.05c0.24688,1.00104 0.51354,2.21771 0.8,3.65c1.06667,4.3 3.5,7.28333 7.3,8.95c1.53333,0.7 6.25,1.03333 14.15,1c7.66667,-0.06667 13.11667,0.76667 16.35,2.5c0.6,0.3 2.65,1.4 6.15,3.3c3.9,1.8 7.63333,2.7 11.2,2.7c5.83333,0 9.83333,-1.7 12,-5.1c0.02057,-0.04115 0.27057,-0.54115 0.75,-1.5c-0.92357,-1.44674 -2.0569,-3.28008 -3.4,-5.5c-1.73333,-2.83333 -3.05,-4.55 -3.95,-5.15c0.13333,-0.86667 0.4,-1.46667 0.8,-1.8c0.46667,-0.46667 1.28333,-0.7 2.45,-0.7c2.03333,0 5.7,3.11667 11,9.35c2.2625,2.66328 4.19583,4.86328 5.8,6.6c-0.2401,0.32669 -0.4901,0.66003 -0.75,1c-3.70859,4.8349 -6.07526,7.85156 -7.1,9.05c-0.20625,0.27292 -0.40625,0.40625 -0.6,0.4c0.14388,-0.10573 0.27721,-0.2224 0.4,-0.35c0.94154,-0.99531 1.99154,-2.32865 3.15,-4c-1.3556,-1.03893 -2.67227,-2.27227 -3.95,-3.7c-0.71159,0.90755 -1.61159,1.80755 -2.7,2.7c-3.86667,3.13333 -8.61667,4.7 -14.25,4.7c-4.76667,0 -9.03333,-0.93333 -12.8,-2.8c-3.3,-2.03333 -5.45,-3.26667 -6.45,-3.7c-3.1056,-1.28724 -6.3056,-2.02057 -9.6,-2.2c1.11615,1.29831 2.81615,3.31497 5.1,6.05c5.48125,5.74935 12.48125,8.93268 21,9.55c-0.48008,0.66315 -0.98008,1.37982 -1.5,2.15c-0.73047,1.08906 -1.48047,2.20573 -2.25,3.35c2.26081,0.4 4.59414,0.6 7,0.6c6.56667,0 12.81667,-2.25 18.75,-6.75c3.21146,-2.4487 5.44479,-4.7487 6.7,-6.9c2.55404,1.1 5.23737,1.65 8.05,1.65c6.63333,0 11.3,-2.56667 14,-7.7c1.5,-2.9 2.25,-6.16667 2.25,-9.8c0,-5.76667 -3.03333,-10.95 -9.1,-15.55c-5.06667,-3.86667 -13.11667,-7.85 -24.15,-11.95c-2.83034,-1.05378 -5.33034,-2.67044 -7.5,-4.85c-0.78594,0.68737 -2.0026,1.70404 -3.65,3.05c-0.01953,0.01589 -0.0362,0.03255 -0.05,0.05c-0.51615,-0.57656 -1.01615,-1.17656 -1.5,-1.8c-2.2,-2.83333 -4.55,-6.98333 -7.05,-12.45c-4.56667,-12.13333 -8.46667,-21.63333 -11.7,-28.5c-5.93333,-12.66667 -11.66667,-19 -17.2,-19c-3.63333,0 -6.41667,3.25 -8.35,9.75c-0.93333,3.26667 -1.51667,6.51667 -1.75,9.75c0,3.83633 0.75,7.78633 2.25,11.85c0.51589,0.02487 0.93255,0.07487 1.25,0.15M735.6,433c-1.46667,2.1 -4.61667,5.36667 -9.45,9.8c-3.9,4.1 -5.41667,7.5 -4.55,10.2v0.5l3.75,0.5c3.3,-1.26667 7.53333,-3.5 12.7,-6.7c5.16667,-3.2 8.6,-5.13333 10.3,-5.8c1.26966,0.4026 2.10299,1.03594 2.5,1.9c0.04063,0.06471 0.07396,0.13138 0.1,0.2c0.1,0.26667 0.15,0.85 0.15,1.75c0,0.27812 -0.03333,0.79479 -0.1,1.55c-0.15586,1.56901 -0.45586,4.11901 -0.9,7.65c-0.66667,5.3 -1,8.36667 -1,9.2c0,1.7 -0.03333,3.7 -0.1,6c0.06667,1.7 0.4,3.08333 1,4.15c0.32109,0.56185 0.85443,1.21185 1.6,1.95c0.34453,-0.41393 0.7612,-0.69727 1.25,-0.85c0.11159,0.67891 0.26159,1.46224 0.45,2.35c2.20495,1.81576 5.38828,4.03242 9.55,6.65c0.53333,0.33333 2.08333,1.4 4.65,3.2c1.55234,0.9724 3.20234,1.88906 4.95,2.75c1.69505,0.81732 3.47839,1.58398 5.35,2.3c2.45417,0.93333 5.05417,1.76667 7.8,2.5c10.45638,2.83333 22.98971,4.25 37.6,4.25c19.66667,0 31.95,-3.33333 36.85,-10c0.70807,-0.9763 1.22474,-2.04297 1.55,-3.2c0.67461,-2.20703 0.65794,-4.74036 -0.05,-7.6c-2.55755,0.86667 -5.29089,1.3 -8.2,1.3c-7.96667,0 -14.71667,-5.58333 -20.25,-16.75c-2,-4.03333 -3.63333,-8.38333 -4.9,-13.05c-0.50117,-1.8638 -0.88451,-3.53047 -1.15,-5c-0.04896,0.20651 -0.09896,0.40651 -0.15,0.6c-1.66667,6.3 -3.78333,12.11667 -6.35,17.45c-7.56667,15.83333 -17.13333,23.75 -28.7,23.75c-13.3,0 -23.23333,-8.83333 -29.8,-26.5c-2.1,-5.63333 -3.71667,-11.85 -4.85,-18.65c-0.73333,-4.5 -1.1,-7.66667 -1.1,-9.5c0,-5.74427 0.08333,-10.74427 0.25,-15c0.12161,-2.85143 0.27161,-5.3681 0.45,-7.55c0.04115,-0.27201 0.07448,-0.53867 0.1,-0.8c0.79583,-7.81667 2.22917,-14 4.3,-18.55c-0.28073,0.0513 -0.58073,0.1013 -0.9,0.15c-0.23932,0.04271 -0.48932,0.07604 -0.75,0.1c-3.07956,0.46042 -6.31289,0.71042 -9.7,0.75c-1.58177,3.11992 -7.08177,8.25326 -16.5,15.4c-6.06667,4.63333 -12.73333,9.35 -20,14.15c-1.03333,0.7 -3.36667,2.35 -7,4.95c-3.9,2.63333 -7.71667,4.91667 -11.45,6.85c-10.04336,5.15495 -20.12669,8.02161 -30.25,8.6c0.42591,1.19609 0.90924,2.56276 1.45,4.1c1.66667,4.86667 3.25,8.28333 4.75,10.25c1.63333,2.16667 5.55,5.38333 11.75,9.65c4.63333,3.16667 6.88333,6.2 6.75,9.1c0,0.03333 0.33333,1.95 1,5.75c1,4.56667 2.38333,8.75 4.15,12.55c1.87526,4.11211 4.04193,7.52878 6.5,10.25c-1.95885,1.47344 -3.70885,2.90677 -5.25,4.3c6.01784,6.93333 13.71784,10.4 23.1,10.4c8.46667,0 15.55,-1.15 21.25,-3.45c2.10339,-0.85638 3.73672,-1.70638 4.9,-2.55c0.3901,0.76693 0.85677,1.66693 1.4,2.7c2.73333,4.6 5.95,8.83333 9.65,12.7c1.96276,2.03477 3.99609,3.90143 6.1,5.6c1.96901,3.73607 4.23568,7.8694 6.8,12.4c7.13333,12.56667 11.1,18.85 11.9,18.85c1.66667,0 6.51667,-3.08333 14.55,-9.25c5.66536,-4.38841 9.3487,-7.67174 11.05,-9.85c7.60456,-1.12305 14.85456,-3.98971 21.75,-8.6c0.95547,-3.62682 1.4888,-6.56016 1.6,-8.8c1.09036,-0.92018 2.15703,-1.90352 3.2,-2.95c3.03333,-3.03333 5.91667,-6.55 8.65,-10.55c2.16667,-3.4 3.4,-5.23333 3.7,-5.5c1.03333,0.3 1.66667,0.56667 1.9,0.8c0.4,0.4 0.6,1.16667 0.6,2.3c0,0.4306 -0.03333,0.8806 -0.1,1.35c0.2026,0.13451 0.41927,0.28451 0.65,0.45c1.56667,1.06667 3.88333,1.6 6.95,1.6c6.01979,0 11.20313,-0.63333 15.55,-1.9c4.26497,-1.19518 7.73164,-2.99518 10.4,-5.4c0.44115,-0.35299 1.74115,-1.75299 3.9,-4.2c-0.03737,-0.28607 -0.0707,-0.5694 -0.1,-0.85c-0.16667,-1.8 -0.25,-4.35 -0.25,-7.65c0,-5.49857 0.78333,-10.54857 2.35,-15.15c-0.89909,0.78138 -2.18242,1.58138 -3.85,2.4c-0.75833,0.3724 -1.50833,0.70573 -2.25,1c-2.89687,1.16667 -5.64687,1.75 -8.25,1.75c-1.26667,0 -2.71667,-0.1 -4.35,-0.3c-0.30065,-0.04297 -0.58398,-0.09297 -0.85,-0.15c0.13333,1.40898 0.2,2.92565 0.2,4.55c0,3.06667 -3.33333,6.4 -10,10c-6.83333,3.66667 -14,5.8 -21.5,6.4h-15.95c-1.0974,1.35794 -2.66406,3.20794 -4.7,5.55c-4.56667,5.26667 -7.85,8.75 -9.85,10.45c-2.4,2.13333 -5.36667,5.1 -8.9,8.9c-3.5,2.93333 -8.36667,4.8 -14.6,5.6c-0.60182,-0.07161 -1.20182,-0.20495 -1.8,-0.4c6.06654,2.6 12.11654,3.9 18.15,3.9c1.48607,0 2.95273,-0.06667 4.4,-0.2c-0.01719,0.01745 -0.03385,0.03411 -0.05,0.05c-2.58763,2.54141 -4.7043,4.57474 -6.35,6.1c-8.6349,-0.26445 -16.60156,-2.21445 -23.9,-5.85c-0.92201,-1.55872 -1.95534,-3.32539 -3.1,-5.3c-1.72331,-2.97474 -3.17331,-5.55807 -4.35,-7.75c3.81849,2.93333 7.61849,5.36667 11.4,7.3c-4.46901,-2.86315 -9.03568,-8.51315 -13.7,-16.95c-0.81432,-1.46211 -1.63099,-3.01211 -2.45,-4.65c-2.9,-5.8 -5.31667,-11.68333 -7.25,-17.65c-1.56641,-4.87031 -2.46641,-8.68698 -2.7,-11.45c-5.26224,-4.0681 -7.81224,-9.15143 -7.65,-15.25c1.23333,-7.1 1.6,-12.4 1.1,-15.9c-2.73333,1.66667 -5.3,3.15 -7.7,4.45c-4.6,2.53333 -8.28333,3.8 -11.05,3.8c-4.6,0 -7.35,-1.06667 -8.25,-3.2c-0.26667,-0.7 -0.35,-1.5 -0.25,-2.4c0.16667,-0.8 0.25,-1.26667 0.25,-1.4c0,-2.9457 0.8,-5.82904 2.4,-8.65c0.69115,-1.19206 1.52448,-2.37539 2.5,-3.55c3.43333,-4.2 7.71667,-6.96667 12.85,-8.3l0.75,0.75M827.95,320.8c-1.85807,0.13333 -3.72474,0.2 -5.6,0.2c-8.32891,0 -16.36224,-0.56667 -24.1,-1.7c0.99766,1.58125 1.86432,3.39792 2.6,5.45c1.62578,4.55208 2.45911,9.41875 2.5,14.6c1.03242,-0.13424 2.26576,-0.11758 3.7,0.05c1.08607,0.12448 2.13607,0.32448 3.15,0.6c0.1388,0 0.27214,0 0.4,0c2.54635,0 4.99635,0.58333 7.35,1.75c0.59701,-1.56042 1.48034,-3.56042 2.65,-6c0.46667,-1 1.96667,-4 4.5,-9c1.03047,-2.27708 1.98047,-4.26042 2.85,-5.95M817.35,412.25c-4.5,7.76667 -6.75,18.63333 -6.75,32.6c0,1.03333 0.18333,2.1 0.55,3.2c0.23333,0.6 0.55,1.41667 0.95,2.45l0.75,0.75c3.16667,-0.5 5.9,-5.38333 8.2,-14.65c1.86667,-7.4 2.8,-13.48333 2.8,-18.25c0,-0.33333 -0.66667,-1.2 -2,-2.6c-1.56667,-1.7 -3.06667,-2.86667 -4.5,-3.5M755.75,486.5c0.34714,1.1151 0.68047,2.19844 1,3.25c0.49935,0.53542 1.13268,1.21875 1.9,2.05c2.6,2.63333 5.41667,5.05 8.45,7.25c9.7,6.96667 19.73333,10.45 30.1,10.45c4.4,0 8.9,-1.18333 13.5,-3.55c0.59206,-0.30885 1.19206,-0.62552 1.8,-0.95h-2.15c-18.6,-2.9 -32.55,-6.46667 -41.85,-10.7c-3.46667,-1.56667 -6.76667,-3.45 -9.9,-5.65c-1.01341,-0.76771 -1.96341,-1.48437 -2.85,-2.15M854.1,432.2c-0.93333,-0.96667 -2.01667,-1.11667 -3.25,-0.45c-3.16667,1.63333 -4.75,6.13333 -4.75,13.5c0,1.7 0.06667,3 0.2,3.9c0.26667,1.53333 0.78333,2.9 1.55,4.1c2.03333,-0.56667 3.9,-3 5.6,-7.3c1.43333,-3.63333 2.15,-6.53333 2.15,-8.7c0,-2.33333 -0.5,-4.01667 -1.5,-5.05M880.6,467.55c-1.24036,-1.83203 -2.1237,-3.33203 -2.65,-4.5c-3.43932,6.2043 -7.55599,10.6543 -12.35,13.35c0.63294,1.06563 1.13294,2.44896 1.5,4.15c1.6151,-0.17839 3.59844,-0.56172 5.95,-1.15c0.73229,-0.15534 1.49896,-0.33867 2.3,-0.55c5.66667,-1.5 8.5,-3.03333 8.5,-4.6c0,-0.95221 -0.65,-2.50221 -1.95,-4.65c-0.37279,-0.62969 -0.80612,-1.31302 -1.3,-2.05M898.1,471.1c-1.55156,1.92279 -2.8849,3.90612 -4,5.95c0.49674,0.22083 0.86341,0.5875 1.1,1.1c0.7,1.43333 1.16667,2.26667 1.4,2.5c0.66667,0.5 1.8,1.25 3.4,2.25c0.45937,0.27773 0.89271,0.5444 1.3,0.8l0.05,-0.8c-0.33542,-0.51367 -0.65208,-1.08034 -0.95,-1.7c-0.66667,-1.43333 -1.1,-2.81667 -1.3,-4.15c-0.4513,-2.56367 -0.78464,-4.54701 -1,-5.95M890.9,485.1c-0.35156,1.49479 -0.61823,3.01146 -0.8,4.55c0.31615,1.51419 0.83281,2.94753 1.55,4.3c0.51055,-0.90195 1.12721,-1.85195 1.85,-2.85c0.16888,-0.19128 0.33555,-0.39128 0.5,-0.6c1.39701,-1.75716 2.89701,-3.15716 4.5,-4.2c-1.34388,-0.69922 -2.56055,-1.86589 -3.65,-3.5c-0.91315,-1.39154 -1.52982,-2.57487 -1.85,-3.55c-0.86836,1.91224 -1.56836,3.86224 -2.1,5.85M901.65,489.05c-3.36667,2.33333 -5.25,3.7 -5.65,4.1h-0.05c-0.24232,0.28346 -0.50898,0.68346 -0.8,1.2c-0.38776,0.6875 -0.80443,1.5875 -1.25,2.7c1.84128,1.9 4.20794,3.11667 7.1,3.65c0.00026,-0.02487 0.00026,-0.0582 0,-0.1c0.0207,-2.27227 0.18737,-4.7056 0.5,-7.3c0.21641,-1.88971 0.48307,-3.45638 0.8,-4.7c-0.20716,0.14258 -0.42383,0.29258 -0.65,0.45M903.5,493.05c0,3.06471 0.06667,5.71471 0.2,7.95c0.35273,0.03333 0.70273,0.05 1.05,0.05c1.36263,0 2.64596,-0.1 3.85,-0.3c-1.79271,-2.88242 -3.39271,-5.93242 -4.8,-9.15l-0.3,1.45M891.1,502.35c0,0.54987 -0.06667,1.09987 -0.2,1.65c-0.20534,0.28867 -0.42201,0.57201 -0.65,0.85c-0.13958,0.23906 -0.28958,0.4724 -0.45,0.7l-0.5,0.65c-0.00599,0.06068 -0.02266,0.11068 -0.05,0.15c-0.88424,1.27266 -1.78424,2.58932 -2.7,3.95c0.11602,0.45547 0.23268,0.8888 0.35,1.3c0.55521,1.87904 1.20521,3.67904 1.95,5.4c0.67865,1.58359 1.42865,3.06693 2.25,4.45c-0.10742,0.45117 -0.20742,0.86784 -0.3,1.25c1.12018,-1.05247 2.42018,-2.20247 3.9,-3.45c0.41953,-0.35052 0.85286,-0.71719 1.3,-1.1c-0.04753,-0.02357 -0.09753,-0.0569 -0.15,-0.1c-0.89779,-0.7319 -1.71445,-1.59857 -2.45,-2.6c-1.72695,-2.36211 -2.94362,-5.46211 -3.65,-9.3l0.25,-0.35c0.0306,0.02943 0.06393,0.06276 0.1,0.1l0.35,0.4c0.13138,0.14844 0.26471,0.3151 0.4,0.5c0.26953,0.3582 0.55286,0.77487 0.85,1.25c0.54844,0.85755 1.14844,1.90755 1.8,3.15c1.26667,2.46667 2.6,4.15 4,5.05c3.2,2.03333 5.5,3.38333 6.9,4.05c0.5849,0.28203 1.16823,0.53203 1.75,0.75c-0.36667,-0.72734 -0.71667,-1.49401 -1.05,-2.3c-1.5,-3.56667 -2.63333,-7.5 -3.4,-11.8c-0.18646,-1.09219 -0.33646,-2.05885 -0.45,-2.9c-3.59753,-0.55378 -6.51419,-1.98711 -8.75,-4.3c-0.35807,0.52721 -0.74141,0.87721 -1.15,1.05c-0.13542,-0.05651 -0.26875,-0.12318 -0.4,-0.2c0.1,0.50859 0.15,1.09193 0.15,1.75M903.55,524.15c0.03333,-0.1 0.3,-0.15 0.8,-0.15c0.16563,0 1.81563,0.8 4.95,2.4c-0.30208,-0.39766 -0.60208,-0.81432 -0.9,-1.25c-1.4388,-0.53438 -2.97214,-1.21771 -4.6,-2.05c-3.04388,-1.56901 -5.57721,-3.15234 -7.6,-4.75c3.56953,5.68294 8.41953,9.58294 14.55,11.7c-2.90208,-1.42969 -5.31875,-3.02969 -7.25,-4.8v-1l0.05,-0.1M897.75,540c0.53333,2.4 1.2,4.3 2,5.7c0.1763,0.31836 0.35964,0.61836 0.55,0.9c0.72318,0.07786 1.15651,0.12786 1.3,0.15l0.5,1.5c-0.05443,0.05742 -0.10443,0.10742 -0.15,0.15c1.55195,1.31589 3.50195,1.94922 5.85,1.9c-0.63333,-2.62109 -0.95,-5.43776 -0.95,-8.45c0,-3.3 0.1,-5.33333 0.3,-6.1c0.04023,-0.16615 0.09023,-0.33281 0.15,-0.5c-4.53099,-1.72448 -8.39766,-4.27448 -11.6,-7.65c-0.07044,3.24336 0.22956,5.79336 0.9,7.65c0.03333,0.13333 0.41667,1.71667 1.15,4.75M964.3,500.3c-0.19831,0.14245 -0.44831,0.22578 -0.75,0.25c-0.87982,4.37617 -2.19648,8.37617 -3.95,12c-0.63464,1.25846 -1.38464,2.50846 -2.25,3.75c0.06576,0.1388 0.09909,0.32214 0.1,0.55c1.54284,-2.00195 2.92617,-4.20195 4.15,-6.6c1.40339,-2.7599 2.55339,-5.59323 3.45,-8.5c-0.225,-0.43516 -0.475,-0.91849 -0.75,-1.45M952.35,522.35c0.93125,-0.79857 1.81458,-1.66523 2.65,-2.6c-0.1638,0.11576 -0.34714,0.21576 -0.55,0.3c-0.65807,0.7849 -1.35807,1.55156 -2.1,2.3M947.65,522.1c-1.69622,0.26667 -3.54622,0.4 -5.55,0.4c-2.91172,0 -5.72839,-0.36667 -8.45,-1.1c-5.48932,3.4 -11.67266,5.1 -18.55,5.1c-0.42526,0 -0.87526,-0.03333 -1.35,-0.1c0.04557,0.04557 0.07891,0.07891 0.1,0.1c1.46667,1.46667 2.25,2.25 2.35,2.35c0.35404,0.28854 0.7207,0.53854 1.1,0.75c3.36732,0.96667 6.60065,1.45 9.7,1.45c2.72279,0 5.53945,-0.55 8.45,-1.65c1.53763,-0.57474 3.08763,-1.30807 4.65,-2.2c1.99714,-1.0737 4.03047,-2.39036 6.1,-3.95c0.4974,-0.375 0.98073,-0.75833 1.45,-1.15M906.75,504.2c-0.60742,0.06667 -1.24076,0.1 -1.9,0.1c-0.27799,0 -0.56133,0 -0.85,0c0.49258,4.2888 1.44258,7.9388 2.85,10.95c1.03333,2.36667 1.98333,4.28333 2.85,5.75c0.30104,0.5207 0.60104,1.0207 0.9,1.5c1.51198,0.33333 2.97865,0.5 4.4,0.5c5.43177,0 10.28177,-0.98333 14.55,-2.95c-6.01081,-2.47513 -11.52747,-6.8418 -16.55,-13.1c-0.66589,-0.83932 -1.33255,-1.72266 -2,-2.65c-0.15208,-0.21224 -0.30208,-0.42891 -0.45,-0.65c-1.19648,0.29258 -2.46315,0.47591 -3.8,0.55M911.85,540.85c0,3.16758 0.51667,6.11758 1.55,8.85c0.1806,0.03333 0.36393,0.05 0.55,0.05c0.43333,0.13333 0.65,0.71667 0.65,1.75c0,0.19193 -0.03333,0.40859 -0.1,0.65c0.33451,0.6444 0.70117,1.27773 1.1,1.9c4.3,6.7 11.66667,10.05 22.1,10.05c5.33242,0 9.14909,-1.06667 11.45,-3.2c-4.84909,-1.64922 -9.44909,-5.03255 -13.8,-10.15c-2.26667,-2.66667 -4.18333,-5.5 -5.75,-8.5c-1.01458,-1.90234 -1.64792,-3.35234 -1.9,-4.35c-1.25365,0.06667 -2.53698,0.1 -3.85,0.1c-4.23333,0 -8.13333,-0.41667 -11.7,-1.25c-0.2,1.05547 -0.3,2.42214 -0.3,4.1z" fill="#000000"/><path d="M906.75,504.2c2.08828,1.10482 4.17161,2.02148 6.25,2.75c5.02253,6.2582 10.53919,10.62487 16.55,13.1c-4.26823,1.96667 -9.11823,2.95 -14.55,2.95c-1.42135,0 -2.88802,-0.16667 -4.4,-0.5c-0.29896,-0.4793 -0.59896,-0.9793 -0.9,-1.5c-0.86667,-1.46667 -1.81667,-3.38333 -2.85,-5.75c-1.40742,-3.0112 -2.35742,-6.6612 -2.85,-10.95c0.28867,0 0.57201,0 0.85,0c0.65924,0 1.29258,-0.03333 1.9,-0.1M946.2,523.25c-2.06953,1.55964 -4.10286,2.8763 -6.1,3.95c-0.14492,0.03333 -0.29492,0.05 -0.45,0.05c-0.18372,0 -0.36706,-0.01667 -0.55,-0.05c-1.96276,0.97253 -3.17943,1.70586 -3.65,2.2c-2.91055,1.1 -5.72721,1.65 -8.45,1.65c-3.09935,0 -6.33268,-0.48333 -9.7,-1.45c-0.3793,-0.21146 -0.74596,-0.46146 -1.1,-0.75c-0.1,-0.1 -0.88333,-0.88333 -2.35,-2.35c-0.02109,-0.02109 -0.05443,-0.05443 -0.1,-0.1c0.47474,0.06667 0.92474,0.1 1.35,0.1c6.87734,0 13.06068,-1.7 18.55,-5.1c2.72161,0.73333 5.53828,1.1 8.45,1.1c2.00378,0 3.85378,-0.13333 5.55,-0.4c-0.46927,0.39167 -0.9526,0.775 -1.45,1.15M965.05,501.75c-0.89661,2.90677 -2.04661,5.7401 -3.45,8.5c-1.22383,2.39805 -2.60716,4.59805 -4.15,6.6c-0.00091,-0.22786 -0.03424,-0.4112 -0.1,-0.55c0.86536,-1.24154 1.61536,-2.49154 2.25,-3.75c1.75352,-3.62383 3.07018,-7.62383 3.95,-12c0.30169,-0.02422 0.55169,-0.10755 0.75,-0.25c0.275,0.53151 0.525,1.01484 0.75,1.45M903.5,524.25v1c1.93125,1.77031 4.34792,3.37031 7.25,4.8c-6.13047,-2.11706 -10.98047,-6.01706 -14.55,-11.7c2.02279,1.59766 4.55612,3.18099 7.6,4.75c1.62786,0.83229 3.1612,1.51562 4.6,2.05c0.29792,0.43568 0.59792,0.85234 0.9,1.25c-3.13437,-1.6 -4.78437,-2.4 -4.95,-2.4c-0.5,0 -0.76667,0.05 -0.8,0.15l-0.05,0.1M890.95,500.6c0.13125,0.07682 0.26458,0.14349 0.4,0.2c0.40859,-0.17279 0.79193,-0.52279 1.15,-1.05c2.23581,2.31289 5.15247,3.74622 8.75,4.3c0.11354,0.84115 0.26354,1.80781 0.45,2.9c0.76667,4.3 1.9,8.23333 3.4,11.8c0.33333,0.80599 0.68333,1.57266 1.05,2.3c-0.58177,-0.21797 -1.1651,-0.46797 -1.75,-0.75c-1.4,-0.66667 -3.7,-2.01667 -6.9,-4.05c-1.4,-0.9 -2.73333,-2.58333 -4,-5.05c-0.65156,-1.24245 -1.25156,-2.29245 -1.8,-3.15c-0.33802,-1.20911 -0.63802,-2.44245 -0.9,-3.7c0.04818,-0.11497 0.08151,-0.23164 0.1,-0.35c0.13333,-0.55013 0.2,-1.10013 0.2,-1.65c0,-0.65807 -0.05,-1.24141 -0.15,-1.75M901,500.6c0.00026,0.0418 0.00026,0.07513 0,0.1c-2.89206,-0.53333 -5.25872,-1.75 -7.1,-3.65c0.44557,-1.1125 0.86224,-2.0125 1.25,-2.7c1.0151,1.69323 2.04844,3.04323 3.1,4.05c0.03333,0.03333 0.76667,0.63333 2.2,1.8c0.18229,0.13594 0.36562,0.26927 0.55,0.4M892.65,487.7c0.23776,0.86185 0.52109,1.99518 0.85,3.4c-0.72279,0.99805 -1.33945,1.94805 -1.85,2.85c-0.71719,-1.35247 -1.23385,-2.78581 -1.55,-4.3c0.18177,-1.53854 0.44844,-3.05521 0.8,-4.55c0.78437,0.28581 1.36771,1.15247 1.75,2.6M943.05,507.8c-2.64531,4.21029 -5.81198,7.54362 -9.5,10c-5.35677,-1.56185 -10.40677,-4.66185 -15.15,-9.3v0c2.81419,0.6 5.64753,0.9 8.5,0.9c5.82852,0 11.79518,-1.55 17.9,-4.65c-0.53477,1.03268 -1.1181,2.04935 -1.75,3.05M960.45,497.35c-0.02474,0.20326 -0.05807,0.40326 -0.1,0.6c-0.56667,2.7 -1.56667,6.73333 -3,12.1c-0.59193,2.21979 -2.00859,4.55313 -4.25,7c-0.18906,0.15469 -0.35573,0.27135 -0.5,0.35c-2.1,1.06667 -5.63333,1.6 -10.6,1.6c-1.51549,0 -3.01549,-0.11667 -4.5,-0.35c1.60755,-1.28164 3.14089,-2.73164 4.6,-4.35c3.33672,-3.7026 5.93672,-7.8526 7.8,-12.45v0c3.76406,-2.40234 6.63073,-4.90234 8.6,-7.5c0.6582,0.90846 1.3082,1.90846 1.95,3M951.95,505.85c-1.50117,0.89727 -3.15117,1.71393 -4.95,2.45c0.05065,0.00391 0.10065,0.00391 0.15,0c0.5418,-0.02578 2.0918,-0.75911 4.65,-2.2c0.05156,-0.07839 0.10156,-0.16172 0.15,-0.25M961.75,488.75c-0.06419,0.91901 -0.16419,1.88568 -0.3,2.9c-0.23203,-0.27852 -0.48203,-0.57852 -0.75,-0.9c0.3694,-0.7069 0.7194,-1.37357 1.05,-2M964.7,483.35c0.55365,-0.96055 0.97031,-1.62721 1.25,-2c0.31836,-0.42448 0.61836,-0.77448 0.9,-1.05c0.5,1.88516 0.75,3.36849 0.75,4.45c0,4.32422 -0.45,8.50755 -1.35,12.55c-0.29961,-0.43385 -0.63294,-0.88385 -1,-1.35c-0.29466,-0.37383 -0.57799,-0.70716 -0.85,-1c0.0694,-0.63763 0.1194,-1.28763 0.15,-1.95v0c0.43841,-1.25299 0.78841,-2.28633 1.05,-3.1c-0.30143,0.60299 -0.6181,1.18633 -0.95,1.75c0.13333,-1.72839 0.2,-3.51172 0.2,-5.35c0,-0.95755 -0.05,-1.92422 -0.15,-2.9z" fill="#343545"/><path d="M910.55,503.65c0.14792,0.22109 0.29792,0.43776 0.45,0.65c0.66745,0.92734 1.33411,1.81068 2,2.65c-2.07839,-0.72852 -4.16172,-1.64518 -6.25,-2.75c1.33685,-0.07409 2.60352,-0.25742 3.8,-0.55M935.45,529.4c0.47057,-0.49414 1.68724,-1.22747 3.65,-2.2c0.18294,0.03333 0.36628,0.05 0.55,0.05c0.15508,0 0.30508,-0.01667 0.45,-0.05c-1.56237,0.89193 -3.11237,1.62526 -4.65,2.2M903.8,491.6c1.40729,3.21758 3.00729,6.26758 4.8,9.15c-1.20404,0.2 -2.48737,0.3 -3.85,0.3c-0.34727,0 -0.69727,-0.01667 -1.05,-0.05c-0.13333,-2.23529 -0.2,-4.88529 -0.2,-7.95l0.3,-1.45M902.3,488.6c-0.31693,1.24362 -0.58359,2.81029 -0.8,4.7c-0.31263,2.5944 -0.4793,5.02773 -0.5,7.3c-0.18438,-0.13073 -0.36771,-0.26406 -0.55,-0.4c-1.43333,-1.16667 -2.16667,-1.76667 -2.2,-1.8c-1.05156,-1.00677 -2.0849,-2.35677 -3.1,-4.05c0.29102,-0.51654 0.55768,-0.91654 0.8,-1.2h0.05c0.4,-0.4 2.28333,-1.76667 5.65,-4.1c0.22617,-0.15742 0.44284,-0.30742 0.65,-0.45M893,479.25c0.32018,0.97513 0.93685,2.15846 1.85,3.55c1.08945,1.63411 2.30612,2.80078 3.65,3.5c-1.60299,1.04284 -3.10299,2.44284 -4.5,4.2c-0.16445,0.20872 -0.33112,0.40872 -0.5,0.6c-0.32891,-1.40482 -0.61224,-2.53815 -0.85,-3.4c-0.38229,-1.44753 -0.96563,-2.31419 -1.75,-2.6c0.53164,-1.98776 1.23164,-3.93776 2.1,-5.85M899.1,477.05c0.2,1.33333 0.63333,2.71667 1.3,4.15c0.29792,0.61966 0.61458,1.18633 0.95,1.7l-0.05,0.8c-0.40729,-0.2556 -0.84063,-0.52227 -1.3,-0.8c-1.6,-1 -2.73333,-1.75 -3.4,-2.25c-0.23333,-0.23333 -0.7,-1.06667 -1.4,-2.5c-0.23659,-0.5125 -0.60326,-0.87917 -1.1,-1.1c1.1151,-2.04388 2.44844,-4.02721 4,-5.95c0.21536,1.40299 0.5487,3.38633 1,5.95M950,487.3c-0.60651,6.27161 -2.33984,12.08828 -5.2,17.45c-6.10482,3.1 -12.07148,4.65 -17.9,4.65c-2.85247,0 -5.68581,-0.3 -8.5,-0.9c-0.20508,-0.21589 -0.42174,-0.43255 -0.65,-0.65l-4.45,-5.1c3.15143,-1.26732 5.8181,-3.33398 8,-6.2c2.80104,-3.66094 4.56771,-8.29427 5.3,-13.9c9.79648,0.15938 17.59648,1.70938 23.4,4.65M951.8,506.1c-2.5582,1.44089 -4.1082,2.17422 -4.65,2.2c-0.04935,0.00391 -0.09935,0.00391 -0.15,0c1.79883,-0.73607 3.44883,-1.55273 4.95,-2.45c-0.04844,0.08828 -0.09844,0.17161 -0.15,0.25M952.85,490.9c0.05026,-0.23971 0.08359,-0.48971 0.1,-0.75c0.05221,-0.24375 0.08555,-0.49375 0.1,-0.75c0.0237,-0.08385 0.04036,-0.16719 0.05,-0.25c1.09401,0.74714 2.09401,1.5638 3,2.45c0.79974,0.76497 1.59974,1.68164 2.4,2.75c-1.96927,2.59766 -4.83594,5.09766 -8.6,7.5c0.18633,-0.41823 0.35299,-0.85156 0.5,-1.3l2.45,-9.45c0.00586,-0.0612 0.00586,-0.12786 0,-0.2M946.5,463.6c4.48867,1.64688 8.00534,4.04688 10.55,7.2c3.2,3.96667 4.8,9.11667 4.8,15.45c0,0.77982 -0.03333,1.61315 -0.1,2.5c-0.3306,0.62643 -0.6806,1.2931 -1.05,2c-0.22096,-0.27526 -0.4543,-0.55859 -0.7,-0.85c-0.86667,-1.03333 -2.81667,-2.46667 -5.85,-4.3c-0.24766,-0.15091 -0.49766,-0.30091 -0.75,-0.45c0.06667,-1.01393 0.1,-2.04727 0.1,-3.1c0,-3.2 -0.36667,-6.05 -1.1,-8.55c-0.86667,-3.06667 -2.33333,-5.85 -4.4,-8.35c-0.31797,-0.3974 -0.81797,-0.91406 -1.5,-1.55M964.65,491.65c0.3319,-0.56367 0.64857,-1.14701 0.95,-1.75c-0.26159,0.81367 -0.61159,1.84701 -1.05,3.1c0.0569,-0.44141 0.09023,-0.89141 0.1,-1.35M947.6,461.05c-0.26797,-0.1862 -0.5513,-0.36953 -0.85,-0.55c0.25781,0.08958 0.50781,0.17292 0.75,0.25c7.23333,2.36667 11.76667,4.36667 13.6,6c1.1,0.96667 2.46667,3.75 4.1,8.35c0.70352,1.97878 1.25352,3.71211 1.65,5.2c-0.28164,0.27552 -0.58164,0.62552 -0.9,1.05c-0.27969,0.37279 -0.69635,1.03945 -1.25,2c-0.22161,-1.97591 -0.65495,-4.00924 -1.3,-6.1c-1.03333,-3.43333 -2.5,-6.41667 -4.4,-8.95c-0.96667,-1.33333 -2.51667,-2.6 -4.65,-3.8c-2.76667,-1.4 -5.01667,-2.55 -6.75,-3.45M906.35,480.2c1.76667,-3.3 3.43333,-5.73333 5,-7.3c2.36836,-2.7 4.45169,-4.91667 6.25,-6.65c0.9181,0.44818 1.7181,0.99818 2.4,1.65c2.42891,2.33424 3.71224,6.15091 3.85,11.45c-2.37917,0.13984 -4.99583,0.32318 -7.85,0.55c-4.9599,0.42344 -8.4599,1.02344 -10.5,1.8c0.28333,-0.47083 0.56667,-0.97083 0.85,-1.5M906.45,484.1c3.1138,-0.92135 8.88047,-1.40469 17.3,-1.45c-0.28047,2.95547 -1.08047,5.80547 -2.4,8.55c-2.21198,4.53919 -5.54531,7.50586 -10,8.9c-2.39687,-3.45703 -4.68021,-7.45703 -6.85,-12l0.3,-1.55c0.53333,-0.53346 0.8,-0.95013 0.8,-1.25c0,-0.31029 -0.01667,-0.54362 -0.05,-0.7c0.29323,-0.15651 0.59323,-0.32318 0.9,-0.5M913.45,465c-3.33333,3.53333 -6.2,7.58333 -8.6,12.15c-0.72422,1.37044 -1.34089,2.62044 -1.85,3.75c-0.05104,-0.21172 -0.11771,-0.42839 -0.2,-0.65c-0.8,-2.1 -1.2,-3.46667 -1.2,-4.1c0,-0.4 -0.11667,-1.58333 -0.35,-3.55c-0.26667,-1.93333 -0.4,-3.11667 -0.4,-3.55c0,-0.4 0.15,-0.76667 0.45,-1.1c0.18854,-0.20951 0.32188,-0.44284 0.4,-0.7c0.72695,-0.67721 1.47695,-1.32721 2.25,-1.95c1.57148,-0.43333 3.33815,-0.65 5.3,-0.65c1.53815,0 2.93815,0.1 4.2,0.3v0.05M916.3,462.15c-1.91745,-0.63086 -3.80078,-0.99753 -5.65,-1.1c2.50937,-1.24596 5.20937,-2.2793 8.1,-3.1c-0.43333,0.42904 -0.65,0.91237 -0.65,1.45c0,0.06706 0.25,0.26706 0.75,0.6c-0.82643,0.65299 -1.67643,1.36966 -2.55,2.15M940.2,458.4c-0.27448,-0.22708 -0.47448,-0.39375 -0.6,-0.5c-0.84206,-0.23385 -1.67539,-0.45052 -2.5,-0.65c-1.43112,-0.6918 -2.88112,-1.15846 -4.35,-1.4c1.25729,-0.06667 2.54063,-0.1 3.85,-0.1c0.35,0.74115 1.86667,1.65781 4.55,2.75c-0.31016,-0.04023 -0.62682,-0.07357 -0.95,-0.1M933.55,460c-0.03333,0.11536 -0.05,0.23203 -0.05,0.35c0,0.5 0.05,0.76667 0.15,0.8h0.1c1.95768,0.13125 3.80768,0.33125 5.55,0.6c0.28503,0.23659 0.61836,0.53659 1,0.9c0.7,0.66667 1.13333,1.05 1.3,1.15c0.83333,0.43333 1.85,1.36667 3.05,2.8c0.83333,1.03333 1.56667,2.01667 2.2,2.95c0.73333,1.16667 1.48333,3.11667 2.25,5.85c0.76667,2.83333 1.15,5.06667 1.15,6.7c0,0.42669 -0.01667,0.84336 -0.05,1.25c-0.90664,-0.46211 -1.63997,-0.77878 -2.2,-0.95c-6.66667,-1.86667 -10.26667,-2.83333 -10.8,-2.9c-2.39141,-0.31367 -5.82474,-0.39701 -10.3,-0.25c0.06667,-0.95951 0.1,-1.94284 0.1,-2.95c0,-1.46667 -1.06667,-3.9 -3.2,-7.3c-1.3543,-2.10664 -2.6543,-3.72331 -3.9,-4.85c2.91576,-2.40469 5.91576,-3.92135 9,-4.55c1.73932,0.08411 3.28932,0.21745 4.65,0.4M926.6,466.3v1.05c0.06667,0.83333 0.3,1.61667 0.7,2.35c1.16667,2.23333 3.6,3.35 7.3,3.35c2.76667,0 4.53333,-0.61667 5.3,-1.85c0.23333,-0.43333 0.35,-1.31667 0.35,-2.65c0,-1.83333 -0.71667,-3.45 -2.15,-4.85c-1.3,-1.3 -2.85,-2.15 -4.65,-2.55c-1.86667,-0.4 -3.43333,-0.2 -4.7,0.6c-1.43333,0.93333 -2.15,2.45 -2.15,4.55M942.65,475.35v1.35c0.23333,0.9 0.9,1.35 2,1.35c0.86667,0 1.53333,-0.33333 2,-1c0.33333,-0.46667 0.5,-0.96667 0.5,-1.5c0,-1.46667 -0.75,-2.43333 -2.25,-2.9c-1.13047,-0.35169 -1.84714,0.06497 -2.15,1.25v0.05c-0.06667,0.38672 -0.1,0.85339 -0.1,1.4M932.25,469.3c0.37565,-0.04336 0.74232,-0.11003 1.1,-0.2c0.00586,0.07305 0.00586,0.13971 0,0.2z" fill="#485e84"/><path d="M820.6,335.75c-1.16966,2.43958 -2.05299,4.43958 -2.65,6c-2.35365,-1.16667 -4.80365,-1.75 -7.35,-1.75c-0.12786,0 -0.2612,0 -0.4,0c-1.01393,-0.27552 -2.06393,-0.47552 -3.15,-0.6c-1.43424,-0.16758 -2.66758,-0.18424 -3.7,-0.05c-0.04089,-5.18125 -0.87422,-10.04792 -2.5,-14.6c-0.73568,-2.05208 -1.60234,-3.86875 -2.6,-5.45c7.73776,1.13333 15.77109,1.7 24.1,1.7c1.87526,0 3.74193,-0.06667 5.6,-0.2c-0.86953,1.68958 -1.81953,3.67292 -2.85,5.95c-2.53333,5 -4.03333,8 -4.5,9z" fill="#91c53c"/><path d="M942.75,473.95v-0.05c0.30286,-1.18503 1.01953,-1.60169 2.15,-1.25c1.5,0.46667 2.25,1.43333 2.25,2.9c0,0.53333 -0.16667,1.03333 -0.5,1.5c-0.46667,0.66667 -1.13333,1 -2,1c-1.1,0 -1.76667,-0.45 -2,-1.35v-1.35c0,-0.54661 0.03333,-1.01328 0.1,-1.4M928.75,461.75c1.26667,-0.8 2.83333,-1 4.7,-0.6c1.8,0.4 3.35,1.25 4.65,2.55c1.43333,1.4 2.15,3.01667 2.15,4.85c0,1.33333 -0.11667,2.21667 -0.35,2.65c-0.76667,1.23333 -2.53333,1.85 -5.3,1.85c-3.7,0 -6.13333,-1.11667 -7.3,-3.35c-0.4,-0.73333 -0.63333,-1.51667 -0.7,-2.35v-1.05c0,-2.1 0.71667,-3.61667 2.15,-4.55M932.25,469.3h1.1c0.00586,-0.06029 0.00586,-0.12695 0,-0.2c-0.35768,0.08997 -0.72435,0.15664 -1.1,0.2z" fill="#8fbbbe"/></g></g></svg>