<svg version="1.1" xmlns="http://www.w3.org/2000/svg" xmlns:xlink="http://www.w3.org/1999/xlink" width="606.75" height="158.55" viewBox="0,0,606.75,158.55"><g transform="translate(-340.50586,-283.45631)"><g data-paper-data="{&quot;isPaintingLayer&quot;:true}" fill-rule="nonzero" stroke="none" stroke-width="1" stroke-linecap="butt" stroke-linejoin="miter" stroke-miterlimit="10" stroke-dasharray="" stroke-dashoffset="0" style="mix-blend-mode: normal"><path d="M377.30586,297.75631c0.33333,-0.26667 0.68333,-0.51667 1.05,-0.75c0.6,-0.1 1.2,-0.21667 1.8,-0.35c0.6,-0.23333 1.2,-0.46667 1.8,-0.7c0.83333,-0.36667 1.66667,-0.73333 2.5,-1.1c0.33333,-0.23333 0.68333,-0.46667 1.05,-0.7c0.6,-0.1 1.2,-0.21667 1.8,-0.35c1.06667,-0.23333 2.13333,-0.48333 3.2,-0.75c0.83333,-0.2 1.66667,-0.45 2.5,-0.75c0.6,-0.2 1.2,-0.41667 1.8,-0.65c0.83333,-0.1 1.65,-0.26667 2.45,-0.5c0.03333,-0.03333 0.05,-0.1 0.05,-0.2c5.23333,0 10.46667,0.03333 15.7,0.1c3.33333,0.03333 6.66667,0.11667 10,0.25c0.6,0.23333 1.2,0.46667 1.8,0.7c1.3,0.23333 2.6,0.48333 3.9,0.75c0.6,0.23333 1.2,0.46667 1.8,0.7c0.46667,0.36667 0.95,0.71667 1.45,1.05c0.7,0.36667 1.4,0.73333 2.1,1.1c0.36667,0.33333 0.73333,0.68333 1.1,1.05c0.33333,0.36667 0.68333,0.73333 1.05,1.1c0.6,0.33333 1.2,0.68333 1.8,1.05c0.36667,0.36667 0.71667,0.71667 1.05,1.05c0.01875,0.02943 0.03542,0.06276 0.05,0.1c0.34362,-0.2625 0.69362,-0.5125 1.05,-0.75c0.6,-0.4 1.18333,-0.78333 1.75,-1.15c0.36667,-0.2 0.73333,-0.43333 1.1,-0.7c0.6,-0.23333 1.2,-0.46667 1.8,-0.7c0.33333,-0.23333 0.68333,-0.46667 1.05,-0.7c0.6,-0.23333 1.2,-0.46667 1.8,-0.7c0.33333,-0.36667 0.68333,-0.73333 1.05,-1.1c0.23333,-0.23333 0.46667,-0.46667 0.7,-0.7c0.26667,-0.13333 0.51667,-0.25 0.75,-0.35c0.46667,-0.13333 0.93333,-0.26667 1.4,-0.4c0.73333,-0.23333 1.45,-0.46667 2.15,-0.7c0.6,-0.23333 1.2,-0.46667 1.8,-0.7c0.6,-0.13333 1.2,-0.25 1.8,-0.35c0.56667,-0.23333 1.15,-0.46667 1.75,-0.7c0.83333,-0.13333 1.65,-0.31667 2.45,-0.55c0.03333,0 0.05,-0.06667 0.05,-0.2c3.33333,0 6.66667,0 10,0c0.73333,0.23333 1.45,0.48333 2.15,0.75c1.66667,0.23333 3.33333,0.46667 5,0.7c0.73333,0.23333 1.45,0.46667 2.15,0.7c1.66667,0.23333 3.33333,0.46667 5,0.7c0.7,0.26667 1.41667,0.48333 2.15,0.65c1.2,0.3 2.38333,0.6 3.55,0.9c0.73333,0.16667 1.45,0.36667 2.15,0.6c0.23333,0.23333 0.46667,0.48333 0.7,0.75c0.73333,0.23333 1.45,0.46667 2.15,0.7c0.36667,0.23333 0.73333,0.46667 1.1,0.7c0.6,0.23333 1.18333,0.46667 1.75,0.7c0.36667,0.26667 0.73333,0.51667 1.1,0.75c0.6,0.23333 1.18333,0.46667 1.75,0.7c0.36667,0.23333 0.73333,0.46667 1.1,0.7c0.6,0.23333 1.2,0.48333 1.8,0.75c0.23333,0.23333 0.46667,0.46667 0.7,0.7c0.7,0.23333 1.41667,0.46667 2.15,0.7c0.7,0.23333 1.41667,0.46667 2.15,0.7c0.7,0.26667 1.4,0.51667 2.1,0.75c0.36667,0.33333 0.73333,0.68333 1.1,1.05c0.46667,0.36667 0.93333,0.73333 1.4,1.1c0.25,0.22721 0.5,0.46055 0.75,0.7c0,-0.11693 0,-0.23359 0,-0.35c0.1,-0.36667 0.21667,-0.73333 0.35,-1.1c0.23333,-0.33333 0.46667,-0.68333 0.7,-1.05c0,-0.36667 0,-0.73333 0,-1.1c0.23333,-0.33333 0.46667,-0.68333 0.7,-1.05c0.36667,-0.36667 0.73333,-0.71667 1.1,-1.05c0.36667,-0.36667 0.71667,-0.73333 1.05,-1.1c0.36667,-0.36667 0.73333,-0.71667 1.1,-1.05c0.33333,-0.36667 0.68333,-0.73333 1.05,-1.1c0.46667,-0.33333 0.95,-0.68333 1.45,-1.05c0.93333,-0.36667 1.88333,-0.73333 2.85,-1.1c0.36667,-0.23333 0.71667,-0.46667 1.05,-0.7c0.6,-0.1 1.2,-0.21667 1.8,-0.35c5.23333,0 10.46667,0 15.7,0c0.73333,0.23333 1.45,0.46667 2.15,0.7c4.06667,0.23333 8.11667,0.48333 12.15,0.75c0.7,0.23333 1.41667,0.46667 2.15,0.7c2.13333,0.23333 4.26667,0.46667 6.4,0.7c0.73333,0.23333 1.45,0.46667 2.15,0.7c12.73333,0 25.46667,0 38.2,0c0.83333,-0.23333 1.66667,-0.46667 2.5,-0.7c1.93333,0 3.85,0 5.75,0c0.7,0.23333 1.41667,0.46667 2.15,0.7c0.46667,0.36667 0.93333,0.73333 1.4,1.1c0.23333,0.36667 0.46667,0.71667 0.7,1.05c0.26667,0.36667 0.51667,0.73333 0.75,1.1c0.1,0.33333 0.21667,0.68333 0.35,1.05c0,0.36667 0,0.73333 0,1.1c0,0.33333 0,0.68333 0,1.05c0,0.36667 0,0.71667 0,1.05c0,0.36667 0,0.73333 0,1.1c0,0.36667 0,0.71667 0,1.05c0.1,0.36667 0.21667,0.73333 0.35,1.1c0.23333,0.33333 0.46667,0.68333 0.7,1.05c0.13333,0.36667 0.25,0.73333 0.35,1.1c0,0.23333 0,0.46667 0,0.7c0.6,-0.13333 1.2,-0.25 1.8,-0.35c0.36667,-0.23333 0.73333,-0.48333 1.1,-0.75c0.56667,-0.23333 1.15,-0.46667 1.75,-0.7c0.36667,-0.23333 0.73333,-0.46667 1.1,-0.7c0.6,-0.23333 1.18333,-0.46667 1.75,-0.7c0.36667,-0.26667 0.73333,-0.51667 1.1,-0.75c0.6,-0.1 1.18333,-0.21667 1.75,-0.35c1.1,-0.23333 2.18333,-0.48333 3.25,-0.75c0.83333,-0.2 1.66667,-0.41667 2.5,-0.65c0.46667,0 0.93333,0 1.4,0c0.73333,0.23333 1.45,0.46667 2.15,0.7c0.36667,0.23333 0.73333,0.46667 1.1,0.7c0.56667,0.23333 1.15,0.46667 1.75,0.7c0.36667,0.26667 0.73333,0.51667 1.1,0.75c0.6,0.23333 1.18333,0.46667 1.75,0.7c0.36667,0.36667 0.73333,0.71667 1.1,1.05c0.36667,0.36667 0.71667,0.73333 1.05,1.1c0.36667,0.36667 0.73333,0.71667 1.1,1.05c0.83333,0.36667 1.66667,0.73333 2.5,1.1c0.33333,0.33333 0.68333,0.68333 1.05,1.05c0.36667,0.36667 0.73333,0.73333 1.1,1.1c0.33333,0 0.68333,0 1.05,0c0.23333,-0.36667 0.46667,-0.73333 0.7,-1.1c0.13333,-0.36667 0.25,-0.71667 0.35,-1.05c0.26667,-0.36667 0.51667,-0.73333 0.75,-1.1c0.33333,-0.33333 0.68333,-0.68333 1.05,-1.05c0.46667,-0.36667 0.95,-0.73333 1.45,-1.1c0.23333,-0.33333 0.46667,-0.68333 0.7,-1.05c0.83333,-0.36667 1.66667,-0.71667 2.5,-1.05c0.36667,-0.36667 0.71667,-0.73333 1.05,-1.1c0.36667,-0.23333 0.71667,-0.48333 1.05,-0.75c0.13333,-0.1 0.26667,-0.2 0.4,-0.3c0.6,-0.23333 1.2,-0.48333 1.8,-0.75c0.33333,-0.23333 0.68333,-0.46667 1.05,-0.7c0.6,-0.23333 1.2,-0.46667 1.8,-0.7c0.36667,-0.36667 0.71667,-0.73333 1.05,-1.1c0.36667,-0.23333 0.71667,-0.46667 1.05,-0.7c0.13333,-0.1 0.26667,-0.21667 0.4,-0.35c0.6,-0.23333 1.2,-0.46667 1.8,-0.7c0.33333,-0.23333 0.68333,-0.48333 1.05,-0.75c0.6,-0.1 1.2,-0.21667 1.8,-0.35c0.6,-0.23333 1.2,-0.45 1.8,-0.65c0.8,-0.26667 1.63333,-0.5 2.5,-0.7c1.06667,-0.26667 2.11667,-0.53333 3.15,-0.8c0.86667,-0.23333 1.71667,-0.46667 2.55,-0.7c3.43333,-0.23333 6.88333,-0.46667 10.35,-0.7c0.83333,-0.23333 1.66667,-0.46667 2.5,-0.7c2.36667,0 4.75,0 7.15,0c0.7,0.23333 1.4,0.46667 2.1,0.7c0.73333,0.23333 1.45,0.46667 2.15,0.7c0.73333,0.23333 1.45,0.46667 2.15,0.7c1.43333,0.5 2.86667,0.98333 4.3,1.45c0.23333,0.23333 0.46667,0.46667 0.7,0.7c0.73333,0.23333 1.45,0.48333 2.15,0.75c0.36667,0.23333 0.71667,0.46667 1.05,0.7c0.6,0.23333 1.2,0.46667 1.8,0.7c0.36667,0.23333 0.73333,0.46667 1.1,0.7c0.56667,0.26667 1.15,0.51667 1.75,0.75c0.36667,0.33333 0.73333,0.68333 1.1,1.05c0.46667,0.36667 0.93333,0.73333 1.4,1.1c0.5,0.33333 0.98333,0.68333 1.45,1.05c0.36667,0.36667 0.71667,0.71667 1.05,1.05c0.36667,0.36667 0.73333,0.73333 1.1,1.1c0.33333,0.36667 0.68333,0.71667 1.05,1.05c0.36667,0.36667 0.73333,0.73333 1.1,1.1c0.33333,0.33333 0.68333,0.68333 1.05,1.05c0.36667,0.36667 0.71667,0.73333 1.05,1.1c0.26667,0 0.51667,0 0.75,0c0,-0.36667 0,-0.73333 0,-1.1c0,-0.36667 0,-0.71667 0,-1.05c0,-0.36667 0,-0.73333 0,-1.1c0,-0.33333 0,-0.68333 0,-1.05c0.1,-0.36667 0.21667,-0.73333 0.35,-1.1c0.23333,-0.33333 0.46667,-0.68333 0.7,-1.05c0.36667,-0.36667 0.73333,-0.71667 1.1,-1.05c0.33333,-0.36667 0.68333,-0.73333 1.05,-1.1c0.36667,-0.36667 0.71667,-0.71667 1.05,-1.05c0.83333,-0.36667 1.66667,-0.73333 2.5,-1.1c0.36667,-0.23333 0.73333,-0.46667 1.1,-0.7c0.6,-0.13333 1.2,-0.23333 1.8,-0.3c2,-0.26667 4.01667,-0.51667 6.05,-0.75c0.83333,-0.26667 1.66667,-0.5 2.5,-0.7c1.06667,-0.26667 2.13333,-0.53333 3.2,-0.8c1.9,-0.43333 3.8,-0.9 5.7,-1.4c0.86667,-0.23333 1.71667,-0.46667 2.55,-0.7c2,-0.23333 4.01667,-0.46667 6.05,-0.7c0.83333,-0.23333 1.66667,-0.46667 2.5,-0.7c2.03333,-0.26667 4.05,-0.51667 6.05,-0.75c0.83333,-0.23333 1.66667,-0.46667 2.5,-0.7c2.03333,-0.23333 4.06667,-0.46667 6.1,-0.7c0.83333,-0.23333 1.66667,-0.48333 2.5,-0.75c2,-0.23333 4.01667,-0.46667 6.05,-0.7c0.83333,-0.23333 1.66667,-0.46667 2.5,-0.7c4.9,-0.23333 9.78333,-0.46667 14.65,-0.7c0.83333,-0.26667 1.66667,-0.51667 2.5,-0.75c1.43333,-0.1 2.86667,-0.21667 4.3,-0.35c0.6,-0.23333 1.2,-0.45 1.8,-0.65c0.8,-0.26667 1.61667,-0.51667 2.45,-0.75c2.03333,-0.26667 4.06667,-0.51667 6.1,-0.75c0.83333,-0.23333 1.66667,-0.43333 2.5,-0.6c1.53333,-0.3 3.08333,-0.56667 4.65,-0.8c0.83333,-0.13333 1.65,-0.31667 2.45,-0.55c0.03333,0 0.05,-0.06667 0.05,-0.2c1.9,0 3.8,0 5.7,0c0.7,0.26667 1.41667,0.51667 2.15,0.75c0.33333,0.33333 0.68333,0.68333 1.05,1.05c0.23333,0.36667 0.46667,0.73333 0.7,1.1c0.13333,0.33333 0.26667,0.68333 0.4,1.05c0,0.36667 0,0.71667 0,1.05c0,0.36667 0,0.73333 0,1.1c0.1,0.36667 0.21667,0.71667 0.35,1.05c0.1,0.36667 0.21667,0.73333 0.35,1.1c0.23333,0.33333 0.46667,0.68333 0.7,1.05c0,0.36667 0,0.73333 0,1.1c0,0.33333 0,0.68333 0,1.05c0,0.36667 0,0.71667 0,1.05c0,0.36667 0,0.73333 0,1.1c0,0.36667 0,0.71667 0,1.05c0,0.36667 0,0.73333 0,1.1c0,0.33333 0,0.68333 0,1.05c0.04857,0.0763 0.09857,0.14297 0.15,0.2c0.18685,-0.16875 0.37018,-0.35208 0.55,-0.55c0.36667,-0.36667 0.73333,-0.71667 1.1,-1.05c0.36667,-0.36667 0.71667,-0.73333 1.05,-1.1c0.36667,-0.36667 0.73333,-0.71667 1.1,-1.05c0.33333,-0.36667 0.68333,-0.73333 1.05,-1.1c0.36667,-0.33333 0.73333,-0.68333 1.1,-1.05c0.83333,-0.36667 1.66667,-0.73333 2.5,-1.1c0.33333,-0.33333 0.68333,-0.68333 1.05,-1.05c0.36667,-0.23333 0.71667,-0.48333 1.05,-0.75c0.13333,-0.1 0.26667,-0.2 0.4,-0.3c0.56667,-0.26667 1.15,-0.51667 1.75,-0.75c0.36667,-0.33333 0.73333,-0.68333 1.1,-1.05c0.33333,-0.23333 0.68333,-0.48333 1.05,-0.75c0.13333,-0.1 0.25,-0.21667 0.35,-0.35c0.6,-0.23333 1.2,-0.46667 1.8,-0.7c0.36667,-0.23333 0.71667,-0.46667 1.05,-0.7c0.6,-0.13333 1.2,-0.25 1.8,-0.35c0.6,-0.23333 1.2,-0.46667 1.8,-0.7c0.83333,-0.26667 1.66667,-0.5 2.5,-0.7c1.06667,-0.26667 2.13333,-0.53333 3.2,-0.8c0.83333,-0.2 1.66667,-0.41667 2.5,-0.65c0.96667,-0.26667 1.91667,-0.51667 2.85,-0.75c0.36667,-0.23333 0.73333,-0.46667 1.1,-0.7c0.6,0 1.18333,-0.05 1.75,-0.15c0,-0.03333 0,-0.1 0,-0.2c5.73333,0 11.45,0 17.15,0c0.73333,0.23333 1.45,0.43333 2.15,0.6c1.2,0.3 2.38333,0.6 3.55,0.9c0.73333,0.2 1.46667,0.38333 2.2,0.55c1.16667,0.3 2.33333,0.6 3.5,0.9c0.73333,0.16667 1.46667,0.36667 2.2,0.6c0.33333,0.23333 0.68333,0.48333 1.05,0.75c0.6,0.23333 1.2,0.46667 1.8,0.7c0.46667,0.36667 0.93333,0.71667 1.4,1.05c0.23333,0.23333 0.48333,0.48333 0.75,0.75c0.1,0.1 0.21667,0.18333 0.35,0.25c0.6,0.3 1.18333,0.56667 1.75,0.8c0.36667,0.23333 0.73333,0.46667 1.1,0.7c0.6,0.23333 1.2,0.48333 1.8,0.75c0.33333,0.33333 0.68333,0.68333 1.05,1.05c0.23333,0.36667 0.46667,0.71667 0.7,1.05c0.13333,0.36667 0.25,0.73333 0.35,1.1c0.26667,0.36667 0.51667,0.71667 0.75,1.05c0.1,0.36667 0.21667,0.73333 0.35,1.1c0.23333,0.33333 0.46667,0.68333 0.7,1.05c0.13333,0.36667 0.25,0.73333 0.35,1.1c0.23333,0.33333 0.48333,0.68333 0.75,1.05c0,0.36667 0,0.71667 0,1.05c0,0.36667 0,0.73333 0,1.1c-0.13333,0.36667 -0.26667,0.71667 -0.4,1.05c0,0.36667 0,0.73333 0,1.1c0,0.33333 0,0.68333 0,1.05c0,0.36667 0,0.73333 0,1.1c0,0.33333 0,0.68333 0,1.05c0,0.36667 0.01667,0.71667 0.05,1.05c0,1.1 0,2.18333 0,3.25c-0.03333,1.43333 -0.03333,2.85 0,4.25c0,1.1 0,2.18333 0,3.25c-0.03333,1.4 -0.03333,2.81667 0,4.25c0,1.06667 -0.01667,2.15 -0.05,3.25c-0.1,0.33333 -0.21667,0.68333 -0.35,1.05c-0.23333,0.36667 -0.46667,0.71667 -0.7,1.05c-0.13333,0.36667 -0.25,0.73333 -0.35,1.1c0,0.36667 0,0.71667 0,1.05c0,0.36667 0,0.73333 0,1.1c0.1,0.33333 0.21667,0.68333 0.35,1.05c0,0.36667 0,0.73333 0,1.1c0,0.33333 0,0.68333 0,1.05c0,0.36667 0,0.71667 0,1.05c0,0.36667 0,0.73333 0,1.1c0,0.36667 0,0.71667 0,1.05c0,0.36667 0,0.73333 0,1.1c-0.13333,0.33333 -0.25,0.68333 -0.35,1.05c-0.23333,0.36667 -0.46667,0.73333 -0.7,1.1c-0.26667,0.33333 -0.51667,0.68333 -0.75,1.05c0,0.36667 0,0.71667 0,1.05c0,0.36667 0,0.73333 0,1.1c0,0.36667 0,0.71667 0,1.05c0,0.36667 0,0.73333 0,1.1c-0.1,0.33333 -0.21667,0.68333 -0.35,1.05c0.13333,0.36667 0.25,0.73333 0.35,1.1c0.13333,0.33333 0.25,0.68333 0.35,1.05c0.26667,0.36667 0.51667,0.71667 0.75,1.05c0.1,0.36667 0.21667,0.73333 0.35,1.1c0.23333,0.36667 0.46667,0.71667 0.7,1.05c0.13333,0.36667 0.25,0.73333 0.35,1.1c0.23333,0.33333 0.48333,0.68333 0.75,1.05c0.1,0.36667 0.21667,0.73333 0.35,1.1c0.23333,0.33333 0.46667,0.68333 0.7,1.05c0.13333,0.36667 0.25,0.71667 0.35,1.05c0.23333,0.36667 0.46667,0.73333 0.7,1.1c0.13333,0.36667 0.26667,0.71667 0.4,1.05c0.1,0.36667 0.21667,0.73333 0.35,1.1c0.1,0.33333 0.21667,0.68333 0.35,1.05c0.23333,0.36667 0.46667,0.73333 0.7,1.1c0.13333,0.33333 0.25,0.68333 0.35,1.05c0.23333,0.36667 0.48333,0.71667 0.75,1.05c0.1,0.36667 0.21667,0.73333 0.35,1.1c0.1,0.36667 0.21667,0.71667 0.35,1.05c0.1,0.36667 0.21667,0.73333 0.35,1.1c0.23333,0.33333 0.46667,0.68333 0.7,1.05c0.13333,0.36667 0.25,0.73333 0.35,1.1c0.26667,0.33333 0.51667,0.68333 0.75,1.05c0.1,0.36667 0.21667,0.71667 0.35,1.05c0.1,0.36667 0.21667,0.73333 0.35,1.1c0,0.36667 0,0.71667 0,1.05c0.13333,0.36667 0.25,0.73333 0.35,1.1c0.13333,0.33333 0.25,0.68333 0.35,1.05c0.13333,0.36667 0.25,0.73333 0.35,1.1c0,0.33333 0,0.68333 0,1.05c0,0.36667 0,0.71667 0,1.05c0,0.36667 0,0.73333 0,1.1c0,0.33333 0,0.68333 0,1.05c0.13333,0.36667 0.26667,0.73333 0.4,1.1c0,0.33333 0,0.68333 0,1.05c0,0.36667 0,0.71667 0,1.05c0,0.36667 0,0.73333 0,1.1c0,0.36667 0,0.71667 0,1.05c0,0.36667 0,0.73333 0,1.1c0,0.33333 0,0.68333 0,1.05c0,0.36667 0,0.73333 0,1.1c0,0.33333 0,0.68333 0,1.05c0,0.7 0,1.41667 0,2.15c0,0.36667 0,0.71667 0,1.05c-0.13333,0.36667 -0.26667,0.73333 -0.4,1.1c0,0.33333 0,0.68333 0,1.05c-0.23333,0.36667 -0.46667,0.73333 -0.7,1.1c-0.23333,0.33333 -0.46667,0.68333 -0.7,1.05c-0.13333,0.36667 -0.25,0.71667 -0.35,1.05c-0.13333,0.36667 -0.25,0.73333 -0.35,1.1c-0.26667,0.36667 -0.51667,0.71667 -0.75,1.05c0,0.36667 0,0.73333 0,1.1c-0.1,0.33333 -0.21667,0.68333 -0.35,1.05c-0.1,0.36667 -0.21667,0.73333 -0.35,1.1c-0.23333,0.33333 -0.46667,0.68333 -0.7,1.05c-0.13333,0.36667 -0.25,0.71667 -0.35,1.05c-0.26667,0.36667 -0.51667,0.73333 -0.75,1.1c-0.1,0.36667 -0.21667,0.71667 -0.35,1.05c-0.23333,0.36667 -0.46667,0.73333 -0.7,1.1c-0.23333,0.33333 -0.46667,0.68333 -0.7,1.05c-0.36667,0.36667 -0.73333,0.73333 -1.1,1.1c-0.36667,0.33333 -0.71667,0.68333 -1.05,1.05c-0.36667,0.36667 -0.73333,0.71667 -1.1,1.05c-0.33333,0.36667 -0.68333,0.73333 -1.05,1.1c-0.23333,0.36667 -0.46667,0.71667 -0.7,1.05c-0.36667,0.36667 -0.73333,0.73333 -1.1,1.1c-0.36667,0.33333 -0.71667,0.68333 -1.05,1.05c-0.36667,0.36667 -0.73333,0.73333 -1.1,1.1c-0.33333,0.33333 -0.68333,0.68333 -1.05,1.05c-0.46667,0.36667 -0.95,0.71667 -1.45,1.05c-0.33333,0.36667 -0.68333,0.73333 -1.05,1.1c-0.36667,0.36667 -0.73333,0.71667 -1.1,1.05c-0.33333,0.36667 -0.68333,0.73333 -1.05,1.1c-0.23333,0.23333 -0.46667,0.46667 -0.7,0.7c-0.13333,0.13333 -0.26667,0.21667 -0.4,0.25c-0.7,0.3 -1.4,0.56667 -2.1,0.8c-0.23333,0.26667 -0.48333,0.51667 -0.75,0.75c-0.7,0.23333 -1.4,0.46667 -2.1,0.7c-0.26667,0.23333 -0.51667,0.46667 -0.75,0.7c-0.7,0.23333 -1.41667,0.48333 -2.15,0.75c-0.23333,0.23333 -0.46667,0.46667 -0.7,0.7c-0.7,0.23333 -1.41667,0.46667 -2.15,0.7c-0.23333,0.23333 -0.46667,0.46667 -0.7,0.7c-0.7,0.26667 -1.41667,0.51667 -2.15,0.75c-0.23333,0.23333 -0.46667,0.46667 -0.7,0.7c-0.6,0.13333 -1.2,0.25 -1.8,0.35c-1.16667,0.23333 -2.35,0.5 -3.55,0.8c-0.73333,0.2 -1.45,0.38333 -2.15,0.55c-1.2,0.3 -2.38333,0.6 -3.55,0.9c-0.73333,0.16667 -1.45,0.36667 -2.15,0.6c-4.76667,0 -9.53333,0 -14.3,0c-0.83333,-0.23333 -1.66667,-0.46667 -2.5,-0.7c-3.93333,-0.23333 -7.86667,-0.46667 -11.8,-0.7c-0.83333,-0.23333 -1.66667,-0.48333 -2.5,-0.75c-0.23333,-0.23333 -0.46667,-0.46667 -0.7,-0.7c-0.7,-0.23333 -1.41667,-0.46667 -2.15,-0.7c-0.23333,-0.23333 -0.46667,-0.46667 -0.7,-0.7c-0.73333,-0.26667 -1.45,-0.51667 -2.15,-0.75c-0.6,-0.23333 -1.2,-0.45 -1.8,-0.65c-0.83333,-0.26667 -1.66667,-0.51667 -2.5,-0.75c-0.1,-0.23333 -0.21667,-0.48333 -0.35,-0.75c-0.83333,-0.23333 -1.65,-0.48333 -2.45,-0.75c-0.63333,-0.2 -1.25,-0.4 -1.85,-0.6c-0.83333,-0.26667 -1.66667,-0.51667 -2.5,-0.75c-0.23333,-0.26667 -0.46667,-0.51667 -0.7,-0.75c-0.83333,-0.1 -1.66667,-0.21667 -2.5,-0.35c-0.7,-0.23333 -1.41667,-0.46667 -2.15,-0.7c-0.23333,-0.23333 -0.46667,-0.46667 -0.7,-0.7c-0.7,-0.26667 -1.41667,-0.51667 -2.15,-0.75c-0.23333,-0.23333 -0.46667,-0.46667 -0.7,-0.7c-0.7,-0.23333 -1.41667,-0.46667 -2.15,-0.7c-0.19076,-0.19076 -0.37409,-0.39076 -0.55,-0.6c-0.05286,0.09258 -0.10286,0.17591 -0.15,0.25c-0.13333,0.33333 -0.25,0.68333 -0.35,1.05c0,0.36667 0,0.71667 0,1.05c0,0.36667 0,0.73333 0,1.1c-0.13333,0.36667 -0.25,0.71667 -0.35,1.05c-0.13333,0.36667 -0.26667,0.73333 -0.4,1.1c-0.23333,0.33333 -0.46667,0.68333 -0.7,1.05c-0.1,0.36667 -0.21667,0.73333 -0.35,1.1c-0.23333,0.33333 -0.46667,0.68333 -0.7,1.05c-0.23333,0.23333 -0.48333,0.46667 -0.75,0.7c-0.1,0.13333 -0.23333,0.23333 -0.4,0.3c-0.66667,0.3 -1.36667,0.56667 -2.1,0.8c-0.23333,0.23333 -0.46667,0.46667 -0.7,0.7c-0.6,0.13333 -1.2,0.25 -1.8,0.35c-1.16667,0.23333 -2.35,0.46667 -3.55,0.7c-0.83333,0.36667 -1.66667,0.73333 -2.5,1.1c-0.23333,0.23333 -0.46667,0.46667 -0.7,0.7c-0.96667,0.23333 -1.91667,0.46667 -2.85,0.7c-0.26667,0.26667 -0.51667,0.51667 -0.75,0.75c-0.23333,0.1 -0.46667,0.21667 -0.7,0.35c-0.6,0.1 -1.2,0.21667 -1.8,0.35c-3.33333,0 -6.66667,0 -10,0c-0.83333,-0.23333 -1.65,-0.48333 -2.45,-0.75c-0.63333,-0.2 -1.25,-0.41667 -1.85,-0.65c-0.8,-0.26667 -1.61667,-0.51667 -2.45,-0.75c-0.26667,-0.23333 -0.51667,-0.46667 -0.75,-0.7c-0.7,-0.23333 -1.41667,-0.46667 -2.15,-0.7c-3.43333,-0.26667 -6.88333,-0.51667 -10.35,-0.75c-0.83333,-0.23333 -1.66667,-0.46667 -2.5,-0.7c-0.23333,-0.23333 -0.46667,-0.46667 -0.7,-0.7c-11.16667,-0.06667 -22.23333,0.05 -33.2,0.35c-0.73333,0.23333 -1.45,0.43333 -2.15,0.6c-1.2,0.3 -2.38333,0.6 -3.55,0.9c-0.73333,0.2 -1.45,0.41667 -2.15,0.65c-1.43333,0 -2.86667,0 -4.3,0c-0.83333,-0.23333 -1.66667,-0.48333 -2.5,-0.75c-0.46667,-0.33333 -0.95,-0.68333 -1.45,-1.05c-0.33333,-0.36667 -0.68333,-0.71667 -1.05,-1.05c-0.23333,-0.36667 -0.46667,-0.73333 -0.7,-1.1c-0.13333,-0.36667 -0.25,-0.71667 -0.35,-1.05c-0.26667,-0.36667 -0.51667,-0.73333 -0.75,-1.1c-0.1,-0.33333 -0.21667,-0.68333 -0.35,-1.05c0,-0.36667 0,-0.73333 0,-1.1c0,-0.33333 0,-0.68333 0,-1.05c-0.1,-0.36667 -0.21667,-0.71667 -0.35,-1.05c-0.23333,-0.36667 -0.46667,-0.73333 -0.7,-1.1c-0.13333,-0.36667 -0.25,-0.71667 -0.35,-1.05c-0.26667,-0.36667 -0.51667,-0.73333 -0.75,-1.1c-0.1,-0.33333 -0.21667,-0.68333 -0.35,-1.05c0,-0.36667 0,-0.73333 0,-1.1c0,-0.33333 0,-0.68333 0,-1.05c0,-0.36667 0,-0.71667 0,-1.05c0,-0.36667 0,-0.73333 0,-1.1c0,-0.36667 0,-0.71667 0,-1.05c0,-0.36667 0,-0.73333 0,-1.1c-0.1,-0.33333 -0.21667,-0.68333 -0.35,-1.05c-0.36667,0.23333 -0.71667,0.46667 -1.05,0.7c-0.26667,0.36667 -0.51667,0.73333 -0.75,1.1c-0.23333,0.33333 -0.46667,0.68333 -0.7,1.05c-0.23333,0.36667 -0.46667,0.71667 -0.7,1.05c-0.36667,0.36667 -0.73333,0.73333 -1.1,1.1c-0.23333,0.36667 -0.46667,0.71667 -0.7,1.05c-0.36667,0.36667 -0.71667,0.73333 -1.05,1.1c-0.13333,0.33333 -0.26667,0.68333 -0.4,1.05c-0.23333,0.36667 -0.46667,0.73333 -0.7,1.1c-0.36667,0.33333 -0.71667,0.68333 -1.05,1.05c-0.36667,0.36667 -0.73333,0.71667 -1.1,1.05c-0.33333,0.36667 -0.68333,0.73333 -1.05,1.1c-0.23333,0.36667 -0.46667,0.71667 -0.7,1.05c-0.36667,0.23333 -0.73333,0.48333 -1.1,0.75c-0.1,0.1 -0.23333,0.18333 -0.4,0.25c-0.66667,0.3 -1.36667,0.56667 -2.1,0.8c-0.23333,0.23333 -0.46667,0.46667 -0.7,0.7c-0.73333,0.23333 -1.45,0.48333 -2.15,0.75c-0.23333,0.23333 -0.46667,0.46667 -0.7,0.7c-0.6,0.1 -1.2,0.23333 -1.8,0.4c-0.7,0.2 -1.41667,0.41667 -2.15,0.65c-0.7,0.23333 -1.41667,0.48333 -2.15,0.75c-5.7,0 -11.4,0 -17.1,0c-1.93333,-0.5 -3.83333,-1.01667 -5.7,-1.55c-1.46667,-0.4 -2.91667,-0.83333 -4.35,-1.3c-0.8,-0.26667 -1.61667,-0.51667 -2.45,-0.75c-0.26667,-0.23333 -0.51667,-0.46667 -0.75,-0.7c-0.7,-0.23333 -1.41667,-0.46667 -2.15,-0.7c-0.33333,-0.36667 -0.68333,-0.73333 -1.05,-1.1c-0.6,-0.36667 -1.2,-0.71667 -1.8,-1.05c-0.83333,-0.36667 -1.66667,-0.73333 -2.5,-1.1c-0.33333,-0.33333 -0.68333,-0.68333 -1.05,-1.05c-0.31094,-0.31094 -0.6276,-0.6276 -0.95,-0.95c-0.04349,0.08906 -0.09349,0.1724 -0.15,0.25c-0.33333,0.33333 -0.68333,0.68333 -1.05,1.05c-0.36667,0.36667 -0.71667,0.71667 -1.05,1.05c-0.83333,0.36667 -1.66667,0.73333 -2.5,1.1c-0.26667,0.23333 -0.51667,0.46667 -0.75,0.7c-0.6,0.13333 -1.18333,0.25 -1.75,0.35c-1.2,0.23333 -2.38333,0.5 -3.55,0.8c-0.73333,0.2 -1.46667,0.41667 -2.2,0.65c-2.6,0.23333 -5.21667,0.46667 -7.85,0.7c-0.7,0.23333 -1.41667,0.46667 -2.15,0.7c-5.23333,0 -10.46667,0 -15.7,0c-0.83333,-0.23333 -1.66667,-0.46667 -2.5,-0.7c-1.53333,-0.23333 -3.06667,-0.5 -4.6,-0.8c-0.86667,-0.16667 -1.71667,-0.38333 -2.55,-0.65c-1.43333,-0.46667 -2.85,-0.93333 -4.25,-1.4c-0.13333,-0.23333 -0.26667,-0.46667 -0.4,-0.7c-0.83333,-0.23333 -1.66667,-0.48333 -2.5,-0.75c-0.23333,-0.33333 -0.46667,-0.68333 -0.7,-1.05c-0.36667,-0.23333 -0.71667,-0.46667 -1.05,-0.7c0,-0.13333 -0.03333,-0.2 -0.1,-0.2c-0.76667,-0.36667 -1.56667,-0.66667 -2.4,-0.9c-0.36667,-0.33333 -0.73333,-0.68333 -1.1,-1.05c-0.83333,0.23333 -1.66667,0.46667 -2.5,0.7c-0.23333,0.23333 -0.46667,0.46667 -0.7,0.7c-0.6,0.13333 -1.2,0.23333 -1.8,0.3c-2.6,0.3 -5.21667,0.56667 -7.85,0.8c-0.7,0.23333 -1.41667,0.46667 -2.15,0.7c-0.7,0.23333 -1.41667,0.46667 -2.15,0.7c-0.7,0.26667 -1.4,0.51667 -2.1,0.75c-13.83333,0 -27.65,0 -41.45,0c-0.83333,-0.23333 -1.66667,-0.48333 -2.5,-0.75c-0.23333,-0.33333 -0.46667,-0.68333 -0.7,-1.05c-0.23333,-0.36667 -0.46667,-0.71667 -0.7,-1.05c0,-0.36667 0,-0.73333 0,-1.1c0,-0.36667 0,-0.71667 0,-1.05c0.1,-0.36667 0.21667,-0.73333 0.35,-1.1c0,-0.33333 0,-0.68333 0,-1.05c0,-0.36667 0,-0.73333 0,-1.1c0,-0.33333 0,-0.68333 0,-1.05c0,-0.36667 0,-0.71667 0,-1.05c0,-0.36667 0,-0.73333 0,-1.1c0,-0.36667 0,-0.71667 0,-1.05c0,-0.36667 0,-0.73333 0,-1.1c0,-0.33333 0,-0.68333 0,-1.05c-0.13333,-0.36667 -0.25,-0.73333 -0.35,-1.1c-0.36667,-0.33333 -0.73333,-0.68333 -1.1,-1.05c0,-0.36667 0,-0.71667 0,-1.05c0,-0.36667 0,-0.73333 0,-1.1c0,-0.36667 0,-0.71667 0,-1.05c0,-0.36667 0,-0.73333 0,-1.1c0,-0.33333 0,-0.68333 0,-1.05c-0.23333,-0.36667 -0.46667,-0.73333 -0.7,-1.1c-0.23333,-0.33333 -0.46667,-0.68333 -0.7,-1.05c0,-0.36667 0,-0.71667 0,-1.05c0,-0.36667 0,-0.73333 0,-1.1c0,-0.36667 0,-0.71667 0,-1.05c0,-0.36667 0,-0.73333 0,-1.1c0,-0.33333 0,-0.68333 0,-1.05c0,-0.36667 0,-0.73333 0,-1.1c-0.26667,-0.33333 -0.51667,-0.68333 -0.75,-1.05c-0.23333,-0.36667 -0.46667,-0.71667 -0.7,-1.05c0,-0.36667 0,-0.73333 0,-1.1c0,-0.275 0,-0.54167 0,-0.8c-0.35,0.25833 -0.7,0.525 -1.05,0.8c-0.26667,0.23333 -0.51667,0.46667 -0.75,0.7c-0.7,0.26667 -1.41667,0.51667 -2.15,0.75c-0.23333,0.23333 -0.46667,0.46667 -0.7,0.7c-0.7,0.23333 -1.41667,0.46667 -2.15,0.7c-0.23333,0.23333 -0.46667,0.48333 -0.7,0.75c-0.6,0.1 -1.2,0.21667 -1.8,0.35c-1.06667,0.23333 -2.13333,0.46667 -3.2,0.7c0,0.36667 0,0.71667 0,1.05c0.23333,0.36667 0.46667,0.73333 0.7,1.1c0.23333,0.36667 0.48333,0.71667 0.75,1.05c0,0.36667 0,0.73333 0,1.1c0,0.33333 0,0.68333 0,1.05c0,0.36667 0,0.73333 0,1.1c0,0.33333 0,0.68333 0,1.05c0,0.36667 0,0.71667 0,1.05c0,0.36667 0,0.73333 0,1.1c0.23333,0.36667 0.46667,0.71667 0.7,1.05c0.23333,0.36667 0.46667,0.73333 0.7,1.1c0,0.33333 0,0.68333 0,1.05c0,0.73333 0,1.45 0,2.15c0,1.06667 0,2.13333 0,3.2c0,0.73333 0,1.45 0,2.15c0,0.73333 0,1.45 0,2.15c0,0.36667 0,0.71667 0,1.05c0,0.36667 0,0.73333 0,1.1c0,0.7 0,1.41667 0,2.15c-0.1,0.33333 -0.21667,0.68333 -0.35,1.05c-0.13333,0.36667 -0.25,0.73333 -0.35,1.1c-0.36667,0.33333 -0.73333,0.68333 -1.1,1.05c-0.83333,0.36667 -1.66667,0.71667 -2.5,1.05c-0.23333,0.26667 -0.46667,0.51667 -0.7,0.75c-2.06667,0.4 -4.1,0.95 -6.1,1.65c-3.26667,1.16667 -6.58333,2.16667 -9.95,3c-1.9,0.46667 -3.8,0.93333 -5.7,1.4c-3.6,0.23333 -7.18333,0.46667 -10.75,0.7c-0.7,0.26667 -1.41667,0.51667 -2.15,0.75c-4.26667,0 -8.55,0 -12.85,0c-0.83333,-0.23333 -1.66667,-0.48333 -2.5,-0.75c-0.33333,-0.33333 -0.68333,-0.68333 -1.05,-1.05c-0.36667,-0.36667 -0.73333,-0.71667 -1.1,-1.05c-0.33333,-0.36667 -0.68333,-0.73333 -1.05,-1.1c-0.23333,-0.36667 -0.46667,-0.71667 -0.7,-1.05c-0.13333,-0.36667 -0.25,-0.73333 -0.35,-1.1c0,-0.33333 0,-0.68333 0,-1.05c0,-0.36667 0,-0.73333 0,-1.1c-0.26667,-0.33333 -0.51667,-0.68333 -0.75,-1.05c-0.1,-0.36667 -0.21667,-0.71667 -0.35,-1.05c-0.1,-0.36667 -0.21667,-0.73333 -0.35,-1.1c-0.36667,-0.36667 -0.71667,-0.71667 -1.05,-1.05c0,-0.36667 0,-0.73333 0,-1.1c-0.26667,-0.33333 -0.51667,-0.68333 -0.75,-1.05c-0.23333,-0.36667 -0.46667,-0.73333 -0.7,-1.1c0,-0.33333 0,-0.68333 0,-1.05c0,-0.36667 0,-0.71667 0,-1.05c-0.23333,-0.36667 -0.46667,-0.73333 -0.7,-1.1c-0.23333,-0.36667 -0.48333,-0.71667 -0.75,-1.05c0,-0.36667 0,-0.73333 0,-1.1c0,-0.22565 0,-0.45898 0,-0.7c-0.33333,0.36667 -0.68333,0.71667 -1.05,1.05c-0.13333,0.36667 -0.25,0.73333 -0.35,1.1c-0.23333,0.36667 -0.46667,0.71667 -0.7,1.05c-0.26667,0.36667 -0.51667,0.73333 -0.75,1.1c-0.33333,0.33333 -0.68333,0.68333 -1.05,1.05c-0.36667,0.36667 -0.73333,0.73333 -1.1,1.1c-0.33333,0.33333 -0.68333,0.68333 -1.05,1.05c-0.36667,0.36667 -0.71667,0.71667 -1.05,1.05c-0.5,0.36667 -0.98333,0.73333 -1.45,1.1c-0.36667,0.36667 -0.71667,0.71667 -1.05,1.05c-0.36667,0.36667 -0.73333,0.73333 -1.1,1.1c-0.23333,0.23333 -0.46667,0.46667 -0.7,0.7c-0.13333,0.13333 -0.26667,0.21667 -0.4,0.25c-0.7,0.3 -1.4,0.56667 -2.1,0.8c-0.36667,0.36667 -0.73333,0.73333 -1.1,1.1c-0.23333,0.23333 -0.46667,0.46667 -0.7,0.7c-0.1,0.13333 -0.23333,0.23333 -0.4,0.3c-0.56667,0.26667 -1.15,0.53333 -1.75,0.8c-0.33333,0.33333 -0.68333,0.68333 -1.05,1.05c-0.36667,0.23333 -0.73333,0.46667 -1.1,0.7c-0.1,0.13333 -0.21667,0.23333 -0.35,0.3c-0.7,0.3 -1.41667,0.56667 -2.15,0.8c-0.23333,0.23333 -0.46667,0.46667 -0.7,0.7c-0.7,0.23333 -1.41667,0.46667 -2.15,0.7c-0.23333,0.23333 -0.46667,0.48333 -0.7,0.75c-0.6,0.1 -1.18333,0.23333 -1.75,0.4c-0.73333,0.2 -1.45,0.41667 -2.15,0.65c-0.73333,0.23333 -1.45,0.46667 -2.15,0.7c-1.66667,0.23333 -3.33333,0.48333 -5,0.75c-0.73333,0.23333 -1.45,0.46667 -2.15,0.7c-9.06667,0 -18.11667,0 -27.15,0c-0.83333,-0.23333 -1.66667,-0.46667 -2.5,-0.7c-1.53333,-0.26667 -3.08333,-0.51667 -4.65,-0.75c-0.83333,-0.23333 -1.66667,-0.45 -2.5,-0.65c-1.06667,-0.26667 -2.13333,-0.53333 -3.2,-0.8c-0.83333,-0.2 -1.66667,-0.41667 -2.5,-0.65c-1.06667,-0.26667 -2.13333,-0.53333 -3.2,-0.8c-0.83333,-0.2 -1.66667,-0.41667 -2.5,-0.65c-0.13333,-0.23333 -0.26667,-0.46667 -0.4,-0.7c-0.83333,-0.26667 -1.66667,-0.51667 -2.5,-0.75c-0.23333,-0.23333 -0.46667,-0.46667 -0.7,-0.7c-0.7,-0.23333 -1.41667,-0.46667 -2.15,-0.7c-0.23333,-0.36667 -0.46667,-0.73333 -0.7,-1.1c-0.46667,-0.33333 -0.93333,-0.68333 -1.4,-1.05c-0.36667,-0.36667 -0.73333,-0.73333 -1.1,-1.1c-0.36667,-0.33333 -0.71667,-0.68333 -1.05,-1.05c-0.36667,-0.36667 -0.73333,-0.71667 -1.1,-1.05c-0.33333,-0.36667 -0.68333,-0.73333 -1.05,-1.1c-0.36667,-0.36667 -0.73333,-0.71667 -1.1,-1.05c-0.33333,-0.36667 -0.68333,-0.73333 -1.05,-1.1c-0.36667,-0.33333 -0.71667,-0.68333 -1.05,-1.05c-0.73333,-0.73333 -1.45,-1.45 -2.15,-2.15c-0.36667,-0.36667 -0.73333,-0.71667 -1.1,-1.05c-0.23333,-0.36667 -0.46667,-0.73333 -0.7,-1.1c-0.46667,-0.36667 -0.95,-0.71667 -1.45,-1.05c-0.23333,-0.36667 -0.46667,-0.73333 -0.7,-1.1c-0.1,-0.33333 -0.21667,-0.68333 -0.35,-1.05c-0.13333,-0.36667 -0.25,-0.73333 -0.35,-1.1c-0.23333,-0.33333 -0.46667,-0.68333 -0.7,-1.05c0,-0.36667 0,-0.71667 0,-1.05c-0.13333,-0.36667 -0.26667,-0.73333 -0.4,-1.1c-0.1,-0.36667 -0.21667,-0.71667 -0.35,-1.05c-0.23333,-0.36667 -0.46667,-0.73333 -0.7,-1.1c-0.13333,-0.33333 -0.25,-0.68333 -0.35,-1.05c-0.23333,-0.36667 -0.46667,-0.73333 -0.7,-1.1c-0.13333,-0.33333 -0.26667,-0.68333 -0.4,-1.05c0,-0.36667 0,-0.71667 0,-1.05c-0.1,-0.36667 -0.21667,-0.73333 -0.35,-1.1c-0.23333,-0.36667 -0.46667,-0.71667 -0.7,-1.05c-0.13333,-0.36667 -0.25,-0.73333 -0.35,-1.1c0,-0.33333 0,-0.68333 0,-1.05c0,-0.36667 0,-0.73333 0,-1.1c-0.13333,-0.33333 -0.25,-0.68333 -0.35,-1.05c-0.13333,-0.36667 -0.25,-0.71667 -0.35,-1.05c-0.26667,-0.36667 -0.51667,-0.73333 -0.75,-1.1c0,-0.36667 0,-0.71667 0,-1.05c0,-0.36667 0,-0.73333 0,-1.1c0,-0.33333 0,-0.68333 0,-1.05c-0.23333,-0.36667 -0.46667,-0.73333 -0.7,-1.1c-0.23333,-0.33333 -0.46667,-0.68333 -0.7,-1.05c0,-0.36667 0,-0.71667 0,-1.05c0,-0.36667 0,-0.73333 0,-1.1c0,-0.36667 0,-0.71667 0,-1.05c0,-0.36667 0,-0.73333 0,-1.1c0,-0.33333 0,-0.68333 0,-1.05c0,-0.36667 0,-0.73333 0,-1.1c-0.23333,-0.33333 -0.48333,-0.68333 -0.75,-1.05c-0.23333,-0.36667 -0.46667,-0.71667 -0.7,-1.05c0,-0.36667 0,-0.73333 0,-1.1c0,-0.33333 0,-0.68333 0,-1.05c0,-0.73333 0,-1.45 0,-2.15c0,-1.06667 0,-2.13333 0,-3.2c0,-1.06667 0,-2.15 0,-3.25c0,-1.43333 0,-2.85 0,-4.25c0,-1.43333 0,-2.86667 0,-4.3c0,-1.06667 0,-2.13333 0,-3.2c0,-0.73333 0,-1.45 0,-2.15c0,-0.36667 0,-0.73333 0,-1.1c0.23333,-0.33333 0.46667,-0.68333 0.7,-1.05c0.26667,-0.36667 0.51667,-0.71667 0.75,-1.05c0,-0.36667 0,-0.73333 0,-1.1c0,-0.36667 0,-0.71667 0,-1.05c0,-0.36667 0,-0.73333 0,-1.1c0,-0.33333 0,-0.68333 0,-1.05c0.1,-0.36667 0.21667,-0.73333 0.35,-1.1c0.23333,-0.33333 0.46667,-0.68333 0.7,-1.05c0.13333,-0.36667 0.25,-0.71667 0.35,-1.05c0,-0.36667 0,-0.73333 0,-1.1c0.13333,-0.36667 0.25,-0.71667 0.35,-1.05c0.26667,-0.36667 0.51667,-0.73333 0.75,-1.1c0.1,-0.33333 0.21667,-0.68333 0.35,-1.05c0,-0.36667 0,-0.73333 0,-1.1c0.1,-0.33333 0.21667,-0.68333 0.35,-1.05c0.23333,-0.36667 0.46667,-0.71667 0.7,-1.05c0.13333,-0.36667 0.25,-0.73333 0.35,-1.1c0.26667,-0.36667 0.51667,-0.71667 0.75,-1.05c0.1,-0.36667 0.21667,-0.73333 0.35,-1.1c0.1,-0.33333 0.21667,-0.68333 0.35,-1.05c0.23333,-0.36667 0.46667,-0.73333 0.7,-1.1c0.23333,-0.33333 0.48333,-0.68333 0.75,-1.05c0.1,-0.36667 0.21667,-0.71667 0.35,-1.05c0.23333,-0.36667 0.46667,-0.73333 0.7,-1.1c0.13333,-0.36667 0.25,-0.71667 0.35,-1.05c0.23333,-0.36667 0.46667,-0.73333 0.7,-1.1c0.13333,-0.33333 0.26667,-0.68333 0.4,-1.05c0.1,-0.36667 0.21667,-0.73333 0.35,-1.1c0.23333,-0.33333 0.46667,-0.68333 0.7,-1.05c0.23333,-0.36667 0.46667,-0.71667 0.7,-1.05c0.13333,-0.36667 0.25,-0.73333 0.35,-1.1c0.26667,-0.36667 0.51667,-0.71667 0.75,-1.05c0.1,-0.36667 0.21667,-0.73333 0.35,-1.1c0.23333,-0.33333 0.46667,-0.68333 0.7,-1.05c0.13333,-0.36667 0.25,-0.73333 0.35,-1.1c0.13333,-0.33333 0.25,-0.68333 0.35,-1.05c0.26667,-0.36667 0.51667,-0.71667 0.75,-1.05c0.46667,-0.36667 0.93333,-0.73333 1.4,-1.1c0.23333,-0.36667 0.48333,-0.71667 0.75,-1.05c0.33333,-0.36667 0.68333,-0.73333 1.05,-1.1c0.36667,-0.33333 0.71667,-0.68333 1.05,-1.05c0.36667,-0.36667 0.73333,-0.71667 1.1,-1.05c0.23333,-0.36667 0.46667,-0.73333 0.7,-1.1c0.13333,-0.36667 0.25,-0.71667 0.35,-1.05c0.23333,-0.36667 0.48333,-0.73333 0.75,-1.1c0.46667,-0.33333 0.93333,-0.68333 1.4,-1.05c0.23333,-0.36667 0.46667,-0.73333 0.7,-1.1c0.36667,-0.33333 0.73333,-0.68333 1.1,-1.05c0.33333,-0.36667 0.68333,-0.71667 1.05,-1.05c0.36667,-0.36667 0.73333,-0.73333 1.1,-1.1c0.33333,-0.36667 0.68333,-0.71667 1.05,-1.05c0.36667,-0.36667 0.71667,-0.73333 1.05,-1.1c0.36667,-0.33333 0.73333,-0.68333 1.1,-1.05c0.46667,-0.36667 0.93333,-0.73333 1.4,-1.1c0.26667,-0.33333 0.51667,-0.68333 0.75,-1.05c0.83333,-0.36667 1.66667,-0.71667 2.5,-1.05z" fill="#000000"/><path d="M451.85586,384.75631c-4.2,8.16667 -9.76667,15.2 -16.7,21.1c-10.6,8.93333 -22.66667,12.75 -36.2,11.45c-20.36667,-2.23333 -33.66667,-13.16667 -39.9,-32.8c-2.96667,-9.43333 -4.13333,-19.08333 -3.5,-28.95c0.86667,-14.1 5.91667,-26.45 15.15,-37.05c6.9,-7.96667 15.66667,-11.81667 26.3,-11.55c20.03333,0.5 36.11667,8.75 48.25,24.75c12.56667,16.53333 14.76667,34.21667 6.6,53.05M397.95586,343.85631c-1.66667,-0.16667 -3,0.26667 -4,1.3c-7.3,7.66667 -8.45,16.56667 -3.45,26.7c3.16667,6.4 8.18333,8.9 15.05,7.5c3.63333,-0.7 5.93333,-2.85 6.9,-6.45c3.3,-12.53333 -0.68333,-22.01667 -11.95,-28.45c-0.86667,-0.2 -1.71667,-0.4 -2.55,-0.6M536.45586,352.80631c-0.86667,2.5 -2.35,4.5 -4.45,6c-11.43333,7.93333 -24.16667,12.91667 -38.2,14.95l15.9,36.45l-2.95,3.15l-37.35,0.05c-0.5,-1.6 -1.01667,-3.21667 -1.55,-4.85c-2.76667,-8.2 -4.75,-16.65 -5.95,-25.35c-2.26667,-16.3 -3.46667,-32.71667 -3.6,-49.25l-16.5,-19.2l0.05,-3c6.1,-0.43333 12.38333,-0.6 18.85,-0.5c19.36667,0.3 37.93333,4.06667 55.7,11.3c11.46667,4.66667 18.4,12.83333 20.8,24.5c0.1,2 -0.15,3.91667 -0.75,5.75M491.40586,347.45631l14.1,-2.7c-0.36667,-0.4 -0.73333,-0.76667 -1.1,-1.1c-3.66667,-3.5 -8.13333,-5.06667 -13.4,-4.7l0.4,8.5M615.15586,377.20631c2.16667,-6.13333 5.61667,-7.6 10.35,-4.4c5.2,-1.63333 10.15,-1.16667 14.85,1.4c1.56667,0.83333 2.66667,2.05 3.3,3.65c3.43333,8.73333 4.53333,17.93333 3.3,27.6c-0.46667,3.5 -2.28333,5.35 -5.45,5.55c-4.6,0.5 -9.13333,0.71667 -13.6,0.65c-7.4,-0.13333 -13.45,-2.55 -18.15,-7.25c0.43333,-9.26667 2.23333,-18.33333 5.4,-27.2M612.65586,330.70631l2.5,25.75l-2.5,2.15l-28.85,0.8c-0.06667,0.56667 -0.05,1.11667 0.05,1.65c3.23333,14.5 6.13333,29.06667 8.7,43.7c0.26667,1.46667 -0.03333,2.78333 -0.9,3.95c-11.6,2.26667 -23.4,2.28333 -35.4,0.05c-1.13333,-1.13333 -1.76667,-2.45 -1.9,-3.95c-1.43333,-16.76667 -0.3,-33.48333 3.4,-50.15l-14.3,-1.2c-1.13333,-1.06667 -1.9,-2.26667 -2.3,-3.6c-0.76667,-2.46667 -1.18333,-5.03333 -1.25,-7.7c-0.26667,-8.7 -1.28333,-17.08333 -3.05,-25.15c2.2,-1.9 4.93333,-2.81667 8.2,-2.75c18.86667,0.4 37.75,1.43333 56.65,3.1c8.43333,0.63333 12.08333,5.08333 10.95,13.35M645.55586,351.00631c-0.46667,1.8 -1.4,3.21667 -2.8,4.25c-6.4,4.7 -13.23333,5.2 -20.5,1.5c-0.93333,-0.43333 -1.6,-1.08333 -2,-1.95c-4.26667,-8.8 -2.35,-16.28333 5.75,-22.45c0.63333,-0.5 1.33333,-0.66667 2.1,-0.5c7.4,0.36667 13.23333,3.9 17.5,10.6c0.66667,2.93333 0.65,5.78333 -0.05,8.55M729.55586,343.20631c6.9,15.33333 5.86667,30.36667 -3.1,45.1c-8.86667,15.13333 -22.08333,22.48333 -39.65,22.05c-14.96667,-0.63333 -25.36667,-7.88333 -31.2,-21.75c-5.7,-13.63333 -6.15,-27.4 -1.35,-41.3c3.33333,-9.56667 9.58333,-16.55 18.75,-20.95c15.4,-7.53333 30.25,-6.61667 44.55,2.75c5.4,3.6 9.4,8.3 12,14.1M681.25586,350.70631c-7.23333,9.33333 -6.93333,18.11667 0.9,26.35c1.16667,1.2 2.56667,1.95 4.2,2.25c8.73333,1.8 13.71667,-1.5 14.95,-9.9c0.23333,-1.7 0.03333,-3.26667 -0.6,-4.7c-3.23333,-7.4 -8.61667,-12.91667 -16.15,-16.55c-1.3,0.53333 -2.4,1.38333 -3.3,2.55M825.30586,316.45631c1.3,23.73333 2.28333,47.56667 2.95,71.5c0.06667,2.53333 0.45,5.05 1.15,7.55c2.26667,8.4 0.63333,15.6 -4.9,21.6l-27.65,-1.8l-24.3,-33.05l3.45,24.2l-3.15,2.7l-32.55,-0.25c-1.43333,-8.13333 -2,-16.66667 -1.7,-25.6c0.63333,-19.13333 1.71667,-37.86667 3.25,-56.2l31.6,-5.65l18.1,32.4c-0.03333,-10.26667 -0.71667,-21.05 -2.05,-32.35c-0.33333,-2.93333 0.56667,-5.36667 2.7,-7.3c1.5,-1.4 3.33333,-1.95 5.5,-1.65c9.16667,0.9 18.25,2 27.25,3.3c0.23333,0.2 0.35,0.4 0.35,0.6M908.35586,351.40631c-10.7,-4.83333 -21.8,-6.85 -33.3,-6.05c-3.16667,0.1 -5.03333,1.21667 -5.6,3.35c0.23333,0.33333 0.46667,0.68333 0.7,1.05c12.3,0 24.28333,2 35.95,6c13.46667,4.53333 19.95,13.83333 19.45,27.9c-0.16667,16.73333 -8.48333,27.1 -24.95,31.1c-2.53333,0.6 -4.98333,0.88333 -7.35,0.85c-12.7,-0.16667 -25.33333,-1 -37.9,-2.5c-5.43333,-0.6 -10.58333,-2.01667 -15.45,-4.25c-2.2,-0.93333 -3.41667,-2.51667 -3.65,-4.75c-0.53333,-4.93333 -0.8,-9.85 -0.8,-14.75c0,-7.76667 2.56667,-14.08333 7.7,-18.95c0.96667,-0.03333 1.93333,-0.06667 2.9,-0.1c2.53333,0.26667 4.91667,0.98333 7.15,2.15c11.03333,5.6 22.65,6.75 34.85,3.45c-3.96667,-2.76667 -8.88333,-4.56667 -14.75,-5.4c-9.23333,-1.23333 -17.56667,-4.35 -25,-9.35c-4.3,-2.9 -6.46667,-6.93333 -6.5,-12.1c-0.03333,-15.6 7.35,-26.5 22.15,-32.7c7.66667,-3.16667 15.66667,-5.15 24,-5.95c10.06667,-1.1 19.16667,0.7 27.3,5.4l-4.85,35.6c-0.63333,0.33333 -1.31667,0.33333 -2.05,0z" fill="#ffffff"/></g></g></svg>