<svg version="1.1" xmlns="http://www.w3.org/2000/svg" xmlns:xlink="http://www.w3.org/1999/xlink" width="46.16429" height="65.64808" viewBox="0,0,46.16429,65.64808"><g transform="translate(-608.23311,-337.93784)"><g data-paper-data="{&quot;isPaintingLayer&quot;:true}" fill-rule="nonzero" stroke="none" stroke-width="1" stroke-linecap="butt" stroke-linejoin="miter" stroke-miterlimit="10" stroke-dasharray="" stroke-dashoffset="0" style="mix-blend-mode: normal"><path d="M650.35811,360.98784c-0.16667,1.66667 -0.61667,3.28333 -1.35,4.85c-0.73333,1.56667 -1.81667,2.86667 -3.25,3.9c-1.33333,1 -2.78333,1.91667 -4.35,2.75c0.23333,0.2 0.45,0.43333 0.65,0.7c0.86667,1.1 1.78333,2.21667 2.75,3.35c0.13333,0.16667 0.28333,0.35 0.45,0.55c2.53333,3.03333 5.05,6.1 7.55,9.2c0.53333,0.66667 0.96667,1.41667 1.3,2.25c0.3,0.73333 0.36667,1.46667 0.2,2.2c-0.33333,1.26667 -0.9,2.45 -1.7,3.55c-1.73333,2.26667 -3.55,4.6 -5.45,7c-0.5,0.2 -1,0.33333 -1.5,0.4c-0.9,0.23333 -1.8,0.4 -2.7,0.5c-0.86667,-0.26667 -1.68333,-0.6 -2.45,-1c-0.86667,-0.5 -1.61667,-1.13333 -2.25,-1.9c-1.56667,-1.8 -3.1,-3.63333 -4.6,-5.5c-0.66667,-0.86667 -1.35,-1.71667 -2.05,-2.55c-0.46667,-0.6 -0.96667,-1.16667 -1.5,-1.7c-1.03333,-1.06667 -2.01667,-2.15 -2.95,-3.25c-0.06667,0.46667 -0.01667,0.9 0.15,1.3c0.06667,0.16667 0.1,0.35 0.1,0.55c0.06667,4.1 0.03333,8.2 -0.1,12.3c-0.03333,0.8 -0.4,1.45 -1.1,1.95c-0.36667,0.3 -0.78333,0.41667 -1.25,0.35c-1.9,0.33333 -3.83333,0.6 -5.8,0.8c-2.6,0.16667 -5.05,-0.1 -7.35,-0.8c-0.4,-0.13333 -0.75,-0.35 -1.05,-0.65c-0.66667,-0.63333 -1.05,-1.41667 -1.15,-2.35c-0.23333,-1.86667 -0.33333,-3.65 -0.3,-5.35c0,-0.23333 -0.01667,-0.5 -0.05,-0.8c-0.1,-0.73333 -0.2,-1.45 -0.3,-2.15c-0.4,-2.33333 -0.51667,-4.73333 -0.35,-7.2c0,-0.26667 -0.01667,-0.55 -0.05,-0.85c-0.1,-1.26667 -0.16667,-2.51667 -0.2,-3.75c-0.16667,-7.9 -0.16667,-15.83333 0,-23.8c0,-0.2 0.03333,-0.38333 0.1,-0.55c0.1,-0.2 0.15,-0.38333 0.15,-0.55c0.3,-3.7 0.55,-7.38333 0.75,-11.05l-0.35,-2.15c3.4,-2.2 7.08333,-3.33333 11.05,-3.4c4.13333,-0.1 8.28333,-0.15 12.45,-0.15c1.16667,0 2.35,-0.01667 3.55,-0.05c1.1,0.1 2.2,0.28333 3.3,0.55c0.83333,0.23333 1.61667,0.61667 2.35,1.15c0.66667,0.43333 1.28333,0.95 1.85,1.55c3.2,3.43333 5.33333,7.45 6.4,12.05c0.13333,0.56667 0.21667,1.13333 0.25,1.7c0.1,2 0.15,4.01667 0.15,6.05M639.40811,346.03784c-0.36667,-0.63333 -0.83333,-1.05 -1.4,-1.25c-8.33333,-0.8 -16.68333,-0.76667 -25.05,0.1c0.36667,3.63333 0.48333,7.3 0.35,11c-0.23333,5.86667 -0.18333,11.68333 0.15,17.45c0.16667,2.66667 0.31667,5.33333 0.45,8c0.13333,2.4 0.31667,4.8 0.55,7.2c0.26667,3 0.41667,6.01667 0.45,9.05l6.85,-0.35c-0.06667,-6.16667 -0.3,-12.33333 -0.7,-18.5c-0.06667,-0.96667 0.31667,-1.85 1.15,-2.65c1.33333,-0.33333 2.58333,-0.26667 3.75,0.2c1.26667,0.53333 2.21667,1.41667 2.85,2.65c0.4,0.76667 0.88333,1.43333 1.45,2c3.5,3.3 6.68333,6.9 9.55,10.8c1.06667,1.46667 2.38333,2.68333 3.95,3.65l4.25,-5.1c-0.2,-0.3 -0.36667,-0.58333 -0.5,-0.85c-0.16667,-0.26667 -0.33333,-0.51667 -0.5,-0.75c-2.56667,-2.96667 -5.1,-5.95 -7.6,-8.95c-0.16667,-0.23333 -0.36667,-0.46667 -0.6,-0.7c-1.2,-1.26667 -2.3,-2.58333 -3.3,-3.95c-0.6,-0.8 -0.73333,-1.66667 -0.4,-2.6c-0.36667,-0.5 -0.58333,-1.08333 -0.65,-1.75c-0.03333,-0.56667 0.11667,-1.06667 0.45,-1.5c1.1,-1.33333 2.45,-2.28333 4.05,-2.85c1.36667,-0.43333 2.46667,-1.23333 3.3,-2.4c1.36667,-1.83333 2,-3.86667 1.9,-6.1c-0.03333,-0.53333 -0.11667,-1.05 -0.25,-1.55c-0.13333,-0.5 -0.2,-0.96667 -0.2,-1.4c0,-0.4 -0.08333,-0.81667 -0.25,-1.25c-1,-2.46667 -2.18333,-4.81667 -3.55,-7.05c-0.2,-0.2 -0.36667,-0.4 -0.5,-0.6M635.05811,360.78784c-1.4,3.36667 -4,5.26667 -7.8,5.7c-1.06667,0.16667 -2.16667,0.08333 -3.3,-0.25c-0.73333,-0.26667 -1.38333,-0.61667 -1.95,-1.05c-1.16667,-0.9 -1.68333,-2.15 -1.55,-3.75c0.1,-1.26667 0.16667,-2.51667 0.2,-3.75c0,-0.26667 -0.06667,-0.51667 -0.2,-0.75c-0.26667,-0.43333 -0.46667,-0.81667 -0.6,-1.15c-0.26667,-0.6 -0.33333,-1.2 -0.2,-1.8c0.3,-1.23333 1.08333,-1.93333 2.35,-2.1c0.63333,-0.1 1.26667,-0.18333 1.9,-0.25c2.96667,-0.76667 5.71667,-0.35 8.25,1.25c2.06667,1.33333 3.13333,3.2 3.2,5.6c0,0.26667 0,0.53333 0,0.8c0,0.53333 -0.1,1.03333 -0.3,1.5M629.15811,357.03784c-1.36667,-0.06667 -2.71667,-0.11667 -4.05,-0.15c-0.3,0.16667 -0.6,0.35 -0.9,0.55l0.25,3.45c0.6,0.16667 1.2,0.33333 1.8,0.5c1.63333,0.06667 2.95,-0.48333 3.95,-1.65l0.15,-0.8l-0.65,-1.55c-0.2,-0.13333 -0.38333,-0.25 -0.55,-0.35z" fill="#000000"/><path d="M639.90811,346.63784c1.36667,2.23333 2.55,4.58333 3.55,7.05c0.16667,0.43333 0.25,0.85 0.25,1.25c0,0.43333 0.06667,0.9 0.2,1.4c0.13333,0.5 0.21667,1.01667 0.25,1.55c0.1,2.23333 -0.53333,4.26667 -1.9,6.1c-0.83333,1.16667 -1.93333,1.96667 -3.3,2.4c-1.6,0.56667 -2.95,1.51667 -4.05,2.85c-0.33333,0.43333 -0.48333,0.93333 -0.45,1.5c0.06667,0.66667 0.28333,1.25 0.65,1.75c-0.33333,0.93333 -0.2,1.8 0.4,2.6c1,1.36667 2.1,2.68333 3.3,3.95c0.23333,0.23333 0.43333,0.46667 0.6,0.7c2.5,3 5.03333,5.98333 7.6,8.95c0.16667,0.23333 0.33333,0.48333 0.5,0.75c0.13333,0.26667 0.3,0.55 0.5,0.85l-4.25,5.1c-1.56667,-0.96667 -2.88333,-2.18333 -3.95,-3.65c-2.86667,-3.9 -6.05,-7.5 -9.55,-10.8c-0.56667,-0.56667 -1.05,-1.23333 -1.45,-2c-0.63333,-1.23333 -1.58333,-2.11667 -2.85,-2.65c-1.16667,-0.46667 -2.41667,-0.53333 -3.75,-0.2c-0.83333,0.8 -1.21667,1.68333 -1.15,2.65c0.4,6.16667 0.63333,12.33333 0.7,18.5l-6.85,0.35c-0.03333,-3.03333 -0.18333,-6.05 -0.45,-9.05c-0.23333,-2.4 -0.41667,-4.8 -0.55,-7.2c-0.13333,-2.66667 -0.28333,-5.33333 -0.45,-8c-0.33333,-5.76667 -0.38333,-11.58333 -0.15,-17.45c0.13333,-3.7 0.01667,-7.36667 -0.35,-11c8.36667,-0.86667 16.71667,-0.9 25.05,-0.1c0.56667,0.2 1.03333,0.61667 1.4,1.25c0.13333,0.2 0.3,0.4 0.5,0.6M635.35811,358.48784c-0.06667,-2.4 -1.13333,-4.26667 -3.2,-5.6c-2.53333,-1.6 -5.28333,-2.01667 -8.25,-1.25c-0.63333,0.06667 -1.26667,0.15 -1.9,0.25c-1.26667,0.16667 -2.05,0.86667 -2.35,2.1c-0.13333,0.6 -0.06667,1.2 0.2,1.8c0.13333,0.33333 0.33333,0.71667 0.6,1.15c0.13333,0.23333 0.2,0.48333 0.2,0.75c-0.03333,1.23333 -0.1,2.48333 -0.2,3.75c-0.13333,1.6 0.38333,2.85 1.55,3.75c0.56667,0.43333 1.21667,0.78333 1.95,1.05c1.13333,0.33333 2.23333,0.41667 3.3,0.25c3.8,-0.43333 6.4,-2.33333 7.8,-5.7c0.2,-0.46667 0.3,-0.96667 0.3,-1.5c0,-0.26667 0,-0.53333 0,-0.8z" fill="#ffffff"/></g></g></svg>