<svg version="1.1" xmlns="http://www.w3.org/2000/svg" xmlns:xlink="http://www.w3.org/1999/xlink" width="51.05" height="66.50137" viewBox="0,0,51.05,66.50137"><g transform="translate(-608.10811,-337.85335)"><g data-paper-data="{&quot;isPaintingLayer&quot;:true}" fill-rule="nonzero" stroke="none" stroke-width="1" stroke-linecap="butt" stroke-linejoin="miter" stroke-miterlimit="10" stroke-dasharray="" stroke-dashoffset="0" style="mix-blend-mode: normal"><path d="M654.80811,349.78784c0.3,0.96667 0.55,1.95 0.75,2.95c0.13333,0.63333 0.31667,1.26667 0.55,1.9c0,0.06667 0,0.15 0,0.25c0,0.1 0,0.18333 0,0.25c0,0.1 0,0.2 0,0.3c0,0.16667 0,0.35 0,0.55c0,0.06667 0,0.15 0,0.25c0,0.1 0,0.18333 0,0.25c0.03333,0.1 0.06667,0.2 0.1,0.3c0,0.06667 0.01667,0.15 0.05,0.25c0.03333,0.1 0.06667,0.18333 0.1,0.25c0.03333,0.1 0.06667,0.2 0.1,0.3c0,0.06667 0,0.15 0,0.25c0,0.1 0,0.18333 0,0.25c0,0.1 0,0.2 0,0.3c0,0.06667 0,0.15 0,0.25c0,0.1 0,0.18333 0,0.25c0,0.1 0,0.2 0,0.3c0.03333,0.1 0.06667,0.18333 0.1,0.25c0.03333,0.1 0.05,0.2 0.05,0.3c0.03333,0.16667 0.06667,0.33333 0.1,0.5c0.03333,0.2 0.06667,0.38333 0.1,0.55c0,0.36667 0,0.71667 0,1.05c0,0.26667 0,0.53333 0,0.8c0.03333,0.1 0.06667,0.2 0.1,0.3c0.03333,0.1 0.06667,0.18333 0.1,0.25c0.03333,0.1 0.05,0.2 0.05,0.3c0.03333,0.06667 0.06667,0.15 0.1,0.25c0.03333,0.1 0.06667,0.18333 0.1,0.25c0,0.1 0,0.2 0,0.3c0,0.06667 0,0.15 0,0.25c-0.06667,0.43333 -0.1,0.88333 -0.1,1.35c0,0.96667 0.01667,1.95 0.05,2.95c0.03333,0.73333 -0.05,1.43333 -0.25,2.1c-0.06667,0.2 -0.15,0.38333 -0.25,0.55c0,0.1 0,0.2 0,0.3c0,0.06667 0,0.15 0,0.25c0,0.1 0,0.18333 0,0.25c0,0.1 0,0.2 0,0.3c0,0.06667 0,0.15 0,0.25c-0.03333,0.1 -0.05,0.18333 -0.05,0.25c-0.03333,0.1 -0.06667,0.2 -0.1,0.3c-0.03333,0.06667 -0.06667,0.15 -0.1,0.25c-0.03333,0.1 -0.06667,0.18333 -0.1,0.25c0,0.1 0,0.2 0,0.3c0,0.06667 0,0.15 0,0.25c-0.03333,0.1 -0.05,0.2 -0.05,0.3c-0.03333,0.06667 -0.05,0.15 -0.05,0.25c-0.03333,0.1 -0.06667,0.18333 -0.1,0.25c-0.03333,0.1 -0.08333,0.2 -0.15,0.3c0,0.06667 0,0.15 0,0.25c0,0.1 0,0.18333 0,0.25c-0.06667,0.2 -0.13333,0.38333 -0.2,0.55c-0.36667,0.96667 -0.66667,1.95 -0.9,2.95c-0.33333,1.2 -0.78333,2.35 -1.35,3.45c-0.53333,1.1 -1.08333,2.18333 -1.65,3.25c0.1,0.1 0.18333,0.18333 0.25,0.25c0.1,0.1 0.2,0.18333 0.3,0.25c0.46667,0.46667 0.9,0.95 1.3,1.45c0.7,0.9 1.4,1.78333 2.1,2.65c0.23333,0.26667 0.5,0.51667 0.8,0.75c0,0.1 0.03333,0.18333 0.1,0.25c0.03333,0.1 0.08333,0.2 0.15,0.3c0.16667,0.23333 0.35,0.5 0.55,0.8c0.26667,0.4 0.51667,0.83333 0.75,1.3c0.33333,0.6 0.61667,1.23333 0.85,1.9c0.03333,0.1 0.06667,0.18333 0.1,0.25c0,0.1 0,0.2 0,0.3c0,0.06667 0,0.15 0,0.25c0,0.1 0,0.18333 0,0.25c0,0.1 0,0.2 0,0.3c0,0.1 0,0.18333 0,0.25c-0.03333,0.1 -0.06667,0.2 -0.1,0.3c-0.03333,0.06667 -0.06667,0.15 -0.1,0.25c-0.03333,0.1 -0.06667,0.18333 -0.1,0.25c-0.1,0.2 -0.18333,0.38333 -0.25,0.55c-0.03333,0.1 -0.06667,0.18333 -0.1,0.25c-0.16667,0.3 -0.35,0.56667 -0.55,0.8c-0.96667,0.86667 -2.05,1.55 -3.25,2.05c-4.93333,2.16667 -9.36667,1.3 -13.3,-2.6c-0.1,-0.13333 -0.23333,-0.23333 -0.4,-0.3c-0.16667,0 -0.35,0 -0.55,0c-4.66667,5.03333 -10.41667,6.31667 -17.25,3.85c-6.76667,-2.43333 -11.25,-7.03333 -13.45,-13.8c-0.03333,-0.06667 -0.05,-0.15 -0.05,-0.25c-0.03333,-0.1 -0.05,-0.18333 -0.05,-0.25c-0.03333,-0.1 -0.05,-0.2 -0.05,-0.3c-0.03333,-0.16667 -0.08333,-0.33333 -0.15,-0.5c0,-0.1 -0.01667,-0.2 -0.05,-0.3c-0.06667,-0.16667 -0.13333,-0.35 -0.2,-0.55c0,-0.06667 0,-0.15 0,-0.25c0,-0.1 0,-0.18333 0,-0.25c0,-0.1 0,-0.18333 0,-0.25c-0.03333,-0.1 -0.08333,-0.2 -0.15,-0.3c-0.03333,-0.1 -0.06667,-0.18333 -0.1,-0.25c-0.03333,-0.2 -0.05,-0.38333 -0.05,-0.55c-0.03333,-0.16667 -0.05,-0.35 -0.05,-0.55c0,-0.33333 0,-0.68333 0,-1.05c0,-0.1 0,-0.18333 0,-0.25c0,-0.1 -0.01667,-0.2 -0.05,-0.3c-0.03333,-0.1 -0.06667,-0.18333 -0.1,-0.25c-0.03333,-0.1 -0.06667,-0.2 -0.1,-0.3c-0.03333,-0.16667 -0.05,-0.33333 -0.05,-0.5c-0.03333,-0.2 -0.05,-0.38333 -0.05,-0.55c0,-0.36667 0,-0.71667 0,-1.05c-0.03333,-0.1 -0.06667,-0.2 -0.1,-0.3c-0.03333,-0.06667 -0.05,-0.15 -0.05,-0.25c-0.03333,-0.1 -0.06667,-0.18333 -0.1,-0.25c-0.03333,-0.1 -0.06667,-0.2 -0.1,-0.3c0,-0.1 0,-0.18333 0,-0.25c0,-0.1 0,-0.2 0,-0.3c0,-0.26667 0,-0.53333 0,-0.8c0,-0.43333 -0.01667,-0.86667 -0.05,-1.3c0,-0.63333 0.08333,-1.26667 0.25,-1.9c0.03333,-0.1 0.08333,-0.18333 0.15,-0.25c0,-0.1 0,-0.2 0,-0.3c0,-0.06667 0,-0.15 0,-0.25c0,-0.36667 0,-0.71667 0,-1.05c0,-0.9 0,-1.8 0,-2.7c0,-0.7 0,-1.41667 0,-2.15c0,-0.16667 0,-0.35 0,-0.55c0.03333,-0.06667 0.06667,-0.15 0.1,-0.25c0.03333,-0.1 0.06667,-0.18333 0.1,-0.25c0.03333,-0.1 0.05,-0.2 0.05,-0.3c0.03333,-0.06667 0.06667,-0.15 0.1,-0.25c0,-0.1 0,-0.18333 0,-0.25c0,-0.1 0,-0.2 0,-0.3c0,-0.06667 0,-0.15 0,-0.25c0,-0.16667 0.01667,-0.35 0.05,-0.55c0,-0.16667 0,-0.33333 0,-0.5c0,-0.3 0.1,-0.58333 0.3,-0.85c0,-0.06667 0,-0.15 0,-0.25c0,-0.1 0,-0.18333 0,-0.25c0,-0.1 0,-0.2 0,-0.3c0.03333,-0.06667 0.06667,-0.15 0.1,-0.25c0.03333,-0.1 0.06667,-0.18333 0.1,-0.25c0.03333,-0.1 0.05,-0.2 0.05,-0.3c0.06667,-0.16667 0.11667,-0.33333 0.15,-0.5c0,-0.1 0,-0.2 0,-0.3c0,-0.3 0.11667,-0.56667 0.35,-0.8c0,-0.06667 0,-0.15 0,-0.25c0,-0.1 0,-0.2 0,-0.3c0,-0.06667 0,-0.15 0,-0.25c0.03333,-0.1 0.05,-0.18333 0.05,-0.25c0.03333,-0.1 0.08333,-0.18333 0.15,-0.25c0.1,-0.26667 0.15,-0.55 0.15,-0.85c0.03333,-0.36667 0.11667,-0.73333 0.25,-1.1c0.23333,-0.6 0.45,-1.21667 0.65,-1.85c0.03333,-0.06667 0.08333,-0.15 0.15,-0.25c0.1,-0.16667 0.18333,-0.35 0.25,-0.55c0.33333,-0.86667 0.7,-1.73333 1.1,-2.6c0.46667,-1 0.93333,-2 1.4,-3c0.2,-0.4 0.48333,-0.76667 0.85,-1.1c0.03333,-0.06667 0.08333,-0.15 0.15,-0.25c0.03333,-0.1 0.08333,-0.18333 0.15,-0.25c0.06667,-0.1 0.13333,-0.2 0.2,-0.3c0.06667,-0.06667 0.13333,-0.15 0.2,-0.25c0.1,-0.1 0.18333,-0.18333 0.25,-0.25c0.06667,-0.1 0.11667,-0.2 0.15,-0.3c0.03333,-0.06667 0.05,-0.15 0.05,-0.25c0.03333,-0.1 0.06667,-0.18333 0.1,-0.25c0.03333,-0.1 0.08333,-0.2 0.15,-0.3c0.06667,-0.06667 0.13333,-0.15 0.2,-0.25c0.26667,-0.26667 0.53333,-0.53333 0.8,-0.8c0.53333,-0.53333 1.06667,-1.06667 1.6,-1.6c0.43333,-0.46667 0.88333,-0.91667 1.35,-1.35c0.16667,-0.1 0.35,-0.18333 0.55,-0.25c0.46667,-0.2 0.91667,-0.41667 1.35,-0.65c2.03333,-1.1 4.16667,-2.01667 6.4,-2.75c0.16667,-0.03333 0.35,-0.06667 0.55,-0.1c3.36667,-0.23333 6.68333,0.01667 9.95,0.75c2.43333,0.53333 4.61667,1.56667 6.55,3.1c0.16667,0.03333 0.35,0.05 0.55,0.05c0.16667,0 0.33333,-0.01667 0.5,-0.05c0.2,0.03333 0.38333,0.06667 0.55,0.1c0.2,0.03333 0.4,0.1 0.6,0.2c0.66667,0.4 1.35,0.78333 2.05,1.15c1,0.5 1.75,1.26667 2.25,2.3c0.1,0.06667 0.2,0.15 0.3,0.25c0.26667,0.26667 0.5,0.55 0.7,0.85c0.73333,0.96667 1.28333,2.01667 1.65,3.15M649.65811,355.43784c0,-0.1 0,-0.2 0,-0.3c0,-0.06667 0,-0.15 0,-0.25c-0.03333,-0.1 -0.06667,-0.18333 -0.1,-0.25c-0.1,-0.36667 -0.18333,-0.73333 -0.25,-1.1c-0.06667,-0.53333 -0.21667,-1.06667 -0.45,-1.6c-0.3,-0.66667 -0.66667,-1.28333 -1.1,-1.85c-0.16667,-0.26667 -0.3,-0.53333 -0.4,-0.8c-0.1,-0.1 -0.18333,-0.2 -0.25,-0.3c-0.36667,-0.36667 -0.76667,-0.7 -1.2,-1c-0.6,-0.43333 -1.16667,-0.9 -1.7,-1.4c-0.4,-0.36667 -0.7,-0.81667 -0.9,-1.35c-0.1,-0.06667 -0.21667,-0.13333 -0.35,-0.2c-0.43333,-0.23333 -0.88333,-0.41667 -1.35,-0.55c-0.53333,-0.13333 -1.06667,-0.26667 -1.6,-0.4c-0.53333,-0.13333 -1.06667,-0.28333 -1.6,-0.45c-0.23333,0 -0.46667,0 -0.7,0c-0.13333,0 -0.25,0 -0.35,0c-0.4,-0.03333 -0.8,-0.1 -1.2,-0.2c-0.2,-0.03333 -0.4,-0.05 -0.6,-0.05c-2.9,-0.3 -5.66667,0.08333 -8.3,1.15c-1.8,0.7 -3.4,1.68333 -4.8,2.95c-0.06667,0.1 -0.13333,0.18333 -0.2,0.25c-0.06667,0.1 -0.11667,0.2 -0.15,0.3c-0.06667,0.06667 -0.13333,0.15 -0.2,0.25c-0.13333,0.1 -0.25,0.18333 -0.35,0.25c-0.06667,0.1 -0.11667,0.2 -0.15,0.3c-0.16667,0.3 -0.35,0.56667 -0.55,0.8c-0.23333,0.26667 -0.45,0.53333 -0.65,0.8c-0.16667,0.26667 -0.35,0.51667 -0.55,0.75c-0.16667,0.2 -0.33333,0.4 -0.5,0.6c-0.03333,0.06667 -0.06667,0.15 -0.1,0.25c-0.03333,0.1 -0.06667,0.18333 -0.1,0.25c-0.06667,0.2 -0.13333,0.38333 -0.2,0.55c-0.06667,0.16667 -0.16667,0.33333 -0.3,0.5c-0.1,0.2 -0.23333,0.38333 -0.4,0.55c-0.03333,0.1 -0.05,0.2 -0.05,0.3c-0.13333,0.46667 -0.31667,0.91667 -0.55,1.35c-0.3,0.5 -0.55,1.01667 -0.75,1.55c-0.26667,0.8 -0.51667,1.61667 -0.75,2.45c-0.03333,0.1 -0.06667,0.18333 -0.1,0.25c0,0.1 0,0.2 0,0.3c0,0.06667 0,0.15 0,0.25c-0.03333,0.1 -0.06667,0.18333 -0.1,0.25c-0.03333,0.1 -0.06667,0.2 -0.1,0.3c-0.13333,0.26667 -0.2,0.53333 -0.2,0.8c0,0.16667 -0.03333,0.33333 -0.1,0.5c-0.06667,0.2 -0.15,0.38333 -0.25,0.55c0,0.1 0,0.2 0,0.3c0,0.06667 0,0.15 0,0.25c0,0.1 0,0.18333 0,0.25c-0.03333,0.1 -0.06667,0.2 -0.1,0.3c0,0.06667 -0.03333,0.15 -0.1,0.25c-0.1,0.23333 -0.16667,0.5 -0.2,0.8c0,0.16667 -0.01667,0.35 -0.05,0.55c-0.06667,0.16667 -0.15,0.35 -0.25,0.55c0,0.06667 0,0.15 0,0.25c0,0.1 0,0.18333 0,0.25c0,0.2 0,0.38333 0,0.55c0,0.1 0,0.18333 0,0.25c0,0.2 0,0.38333 0,0.55c-0.03333,0.1 -0.06667,0.18333 -0.1,0.25c-0.03333,0.1 -0.06667,0.2 -0.1,0.3c-0.03333,0.16667 -0.08333,0.33333 -0.15,0.5c0,0.1 0,0.2 0,0.3c0,0.53333 0,1.06667 0,1.6c0,0.7 0,1.41667 0,2.15c0.03333,1.16667 -0.03333,2.31667 -0.2,3.45c-0.03333,0.2 -0.08333,0.38333 -0.15,0.55c0,0.1 0,0.2 0,0.3c0,0.06667 0,0.15 0,0.25c0,0.1 0,0.18333 0,0.25c0,0.1 0,0.18333 0,0.25c0.03333,0.1 0.06667,0.2 0.1,0.3c0.1,0.26667 0.16667,0.53333 0.2,0.8c0.03333,0.26667 0.05,0.53333 0.05,0.8c0,0.26667 0,0.53333 0,0.8c0.03333,0.1 0.06667,0.2 0.1,0.3c0.03333,0.06667 0.05,0.15 0.05,0.25c0.06667,0.16667 0.13333,0.35 0.2,0.55c0,0.06667 0,0.15 0,0.25c0,0.1 0,0.18333 0,0.25c0,0.2 0,0.38333 0,0.55c0,0.1 0,0.18333 0,0.25c0,0.2 0,0.38333 0,0.55c0.03333,0.1 0.06667,0.18333 0.1,0.25c0.03333,0.1 0.06667,0.2 0.1,0.3c0.03333,0.16667 0.08333,0.35 0.15,0.55c0,0.06667 0,0.15 0,0.25c0,0.1 0,0.18333 0,0.25c0,0.2 0,0.38333 0,0.55c0,0.1 0,0.18333 0,0.25c0.03333,0.1 0.06667,0.2 0.1,0.3c0.13333,0.43333 0.3,0.86667 0.5,1.3c0.23333,0.5 0.41667,1.05 0.55,1.65c0.23333,0.9 0.63333,1.71667 1.2,2.45c0.13333,0.13333 0.25,0.28333 0.35,0.45c0.03333,0.1 0.1,0.18333 0.2,0.25c0.1,0.13333 0.2,0.23333 0.3,0.3c0.06667,0.1 0.13333,0.2 0.2,0.3c0.06667,0.06667 0.13333,0.15 0.2,0.25c0.03333,0.1 0.08333,0.18333 0.15,0.25c0.16667,0.1 0.31667,0.2 0.45,0.3c0.13333,0.06667 0.25,0.15 0.35,0.25c0.06667,0.1 0.13333,0.18333 0.2,0.25c0.06667,0.1 0.11667,0.2 0.15,0.3c0.13333,0.06667 0.25,0.15 0.35,0.25c0.13333,0.1 0.26667,0.18333 0.4,0.25c0.4,0.23333 0.76667,0.51667 1.1,0.85c0.1,0.06667 0.16667,0.15 0.2,0.25c0.2,0.1 0.38333,0.18333 0.55,0.25c0.3,0.1 0.6,0.2 0.9,0.3c0.3,0.13333 0.56667,0.3 0.8,0.5c1.03333,0.33333 2.06667,0.63333 3.1,0.9c2.73333,0.7 5.21667,0.28333 7.45,-1.25c0.43333,-0.26667 0.81667,-0.6 1.15,-1c0.06667,-0.06667 0.11667,-0.15 0.15,-0.25c0.13333,-0.3 0.3,-0.58333 0.5,-0.85c0.23333,-0.33333 0.46667,-0.68333 0.7,-1.05c0.23333,-0.36667 0.5,-0.71667 0.8,-1.05c0.06667,-0.06667 0.15,-0.15 0.25,-0.25c0.16667,-0.1 0.31667,-0.18333 0.45,-0.25c0.13333,-0.06667 0.25,-0.11667 0.35,-0.15c0.33333,-0.1 0.66667,-0.18333 1,-0.25c1,0.1 1.88333,0.48333 2.65,1.15c1.5,1.26667 3.1,2.38333 4.8,3.35c0.83333,0.5 1.68333,0.93333 2.55,1.3c0.13333,0 0.28333,0 0.45,0c0.2,-0.03333 0.4,-0.1 0.6,-0.2c0.56667,-0.16667 1.1,-0.41667 1.6,-0.75c0,-0.1 0,-0.2 0,-0.3c-0.03333,-0.06667 -0.05,-0.15 -0.05,-0.25c-0.03333,-0.1 -0.06667,-0.18333 -0.1,-0.25c-0.06667,-0.1 -0.13333,-0.18333 -0.2,-0.25c-0.06667,-0.1 -0.15,-0.2 -0.25,-0.3c-0.16667,-0.16667 -0.35,-0.35 -0.55,-0.55c-0.06667,-0.06667 -0.11667,-0.15 -0.15,-0.25c-0.03333,-0.1 -0.06667,-0.18333 -0.1,-0.25c-0.03333,-0.1 -0.06667,-0.2 -0.1,-0.3c-0.13333,-0.06667 -0.25,-0.15 -0.35,-0.25c-0.1,-0.1 -0.18333,-0.2 -0.25,-0.3c-0.16667,-0.16667 -0.31667,-0.33333 -0.45,-0.5c-0.06667,-0.1 -0.13333,-0.2 -0.2,-0.3c-0.03333,-0.06667 -0.06667,-0.15 -0.1,-0.25c-0.06667,-0.1 -0.13333,-0.18333 -0.2,-0.25c-0.46667,-0.4 -0.93333,-0.85 -1.4,-1.35c-0.5,-0.56667 -1.03333,-1.1 -1.6,-1.6c-0.53333,-0.5 -1.01667,-1.03333 -1.45,-1.6c0,-0.1 -0.01667,-0.2 -0.05,-0.3c0,-0.06667 -0.01667,-0.15 -0.05,-0.25c-0.06667,-0.26667 -0.1,-0.53333 -0.1,-0.8c0.03333,-0.2 0.05,-0.38333 0.05,-0.55c0.03333,-0.16667 0.06667,-0.35 0.1,-0.55c0.03333,-0.06667 0.05,-0.15 0.05,-0.25c0.06667,-0.1 0.13333,-0.18333 0.2,-0.25c0.06667,-0.1 0.13333,-0.18333 0.2,-0.25c0.23333,-0.3 0.48333,-0.58333 0.75,-0.85c0.3,-0.26667 0.58333,-0.53333 0.85,-0.8c0.03333,-0.06667 0.08333,-0.15 0.15,-0.25c0.03333,-0.1 0.06667,-0.18333 0.1,-0.25c0.13333,-0.3 0.28333,-0.58333 0.45,-0.85c0.13333,-0.26667 0.28333,-0.53333 0.45,-0.8c0.1,-0.16667 0.21667,-0.33333 0.35,-0.5c0,-0.1 0,-0.2 0,-0.3c0.03333,-0.06667 0.08333,-0.13333 0.15,-0.2c0.16667,-0.26667 0.26667,-0.55 0.3,-0.85c0.03333,-0.26667 0.06667,-0.53333 0.1,-0.8c0.03333,-0.3 0.15,-0.56667 0.35,-0.8c0,-0.1 0,-0.2 0,-0.3c0,-0.06667 0,-0.15 0,-0.25c0.03333,-0.1 0.06667,-0.18333 0.1,-0.25c0.03333,-0.2 0.08333,-0.38333 0.15,-0.55c0.1,-0.26667 0.2,-0.53333 0.3,-0.8c0.1,-0.26667 0.16667,-0.53333 0.2,-0.8c0.06667,-0.3 0.13333,-0.56667 0.2,-0.8c0.03333,-0.1 0.06667,-0.2 0.1,-0.3c0,-0.06667 0,-0.15 0,-0.25c0,-0.1 0,-0.18333 0,-0.25c0,-0.1 0,-0.2 0,-0.3c0.03333,-0.06667 0.06667,-0.15 0.1,-0.25c0.03333,-0.1 0.06667,-0.18333 0.1,-0.25c0.06667,-0.2 0.11667,-0.38333 0.15,-0.55c0,-0.1 0,-0.18333 0,-0.25c0,-0.1 0,-0.2 0,-0.3c0,-0.16667 0,-0.35 0,-0.55c0,-0.06667 0,-0.15 0,-0.25c0.03333,-0.1 0.06667,-0.18333 0.1,-0.25c0.03333,-0.1 0.06667,-0.2 0.1,-0.3c0.06667,-0.16667 0.13333,-0.33333 0.2,-0.5c0,-0.1 0.01667,-0.2 0.05,-0.3c0,-0.06667 0,-0.15 0,-0.25c0,-0.1 0,-0.18333 0,-0.25c0,-0.3 0,-0.56667 0,-0.8c0,-0.3 0,-0.58333 0,-0.85c0,-0.16667 0,-0.33333 0,-0.5c0,-0.1 0,-0.2 0,-0.3c0,-0.06667 0,-0.15 0,-0.25c-0.03333,-0.1 -0.08333,-0.2 -0.15,-0.3c-0.06667,-0.16667 -0.13333,-0.33333 -0.2,-0.5c-0.03333,-0.1 -0.06667,-0.18333 -0.1,-0.25c0,-0.1 -0.01667,-0.2 -0.05,-0.3c0,-0.06667 0,-0.15 0,-0.25c0,-0.1 0,-0.18333 0,-0.25c0,-0.2 0,-0.38333 0,-0.55c0,-0.1 0,-0.2 0,-0.3c0,-0.16667 0,-0.33333 0,-0.5c0,-0.1 0,-0.2 0,-0.3c-0.03333,-0.06667 -0.06667,-0.15 -0.1,-0.25c-0.03333,-0.1 -0.06667,-0.18333 -0.1,-0.25c-0.06667,-0.2 -0.11667,-0.38333 -0.15,-0.55c0,-0.1 0,-0.18333 0,-0.25c0,-0.1 0,-0.2 0,-0.3c0,-0.16667 0,-0.33333 0,-0.5c0,-0.1 0,-0.2 0,-0.3c0,-0.06667 0,-0.15 0,-0.25c-0.03333,-0.1 -0.06667,-0.2 -0.1,-0.3c-0.03333,-0.06667 -0.06667,-0.15 -0.1,-0.25c-0.06667,-0.26667 -0.11667,-0.53333 -0.15,-0.8c-0.03333,-0.16667 -0.05,-0.35 -0.05,-0.55c0,-0.16667 0,-0.33333 0,-0.5c0,-0.1 0,-0.2 0,-0.3c-0.03333,-0.06667 -0.05,-0.15 -0.05,-0.25c-0.03333,-0.1 -0.06667,-0.18333 -0.1,-0.25c-0.06667,-0.2 -0.13333,-0.38333 -0.2,-0.55M640.85811,349.38784c0.46667,0.33333 0.96667,0.65 1.5,0.95c0.4,0.53333 0.83333,1.05 1.3,1.55c0.86667,0.96667 1.56667,2.05 2.1,3.25c0.46667,1.13333 0.85,2.3 1.15,3.5c0,0.1 0,0.18333 0,0.25c0,0.1 0,0.2 0,0.3c0,0.1 0,0.18333 0,0.25c0,0.1 0,0.2 0,0.3c0,0.06667 0,0.15 0,0.25c0,0.1 0.01667,0.18333 0.05,0.25c0.03333,0.1 0.06667,0.2 0.1,0.3c0.03333,0.06667 0.06667,0.15 0.1,0.25c0.03333,0.1 0.06667,0.18333 0.1,0.25c0,0.36667 -0.01667,0.73333 -0.05,1.1c-0.03333,0.6 -0.03333,1.21667 0,1.85c0,1 -0.03333,1.98333 -0.1,2.95c-0.03333,0.5 -0.16667,0.95 -0.4,1.35c0,0.1 0.01667,0.18333 0.05,0.25c0,0.3 -0.01667,0.58333 -0.05,0.85c-0.03333,0.16667 -0.06667,0.33333 -0.1,0.5c0,0.26667 -0.03333,0.53333 -0.1,0.8c-0.06667,0.2 -0.15,0.38333 -0.25,0.55c0,0.1 0,0.18333 0,0.25c0,0.1 0,0.2 0,0.3c0,0.06667 0,0.15 0,0.25c0,0.1 -0.01667,0.18333 -0.05,0.25c-0.03333,0.1 -0.06667,0.2 -0.1,0.3c0,0.06667 -0.01667,0.15 -0.05,0.25c-0.03333,0.1 -0.06667,0.2 -0.1,0.3c-0.06667,0.06667 -0.11667,0.15 -0.15,0.25c0,0.06667 0,0.15 0,0.25c0,0.1 0,0.18333 0,0.25c0,0.1 0,0.2 0,0.3c0,0.06667 -0.01667,0.15 -0.05,0.25c-0.13333,0.36667 -0.25,0.73333 -0.35,1.1c-0.1,0.36667 -0.2,0.73333 -0.3,1.1c-0.13333,0.46667 -0.33333,0.9 -0.6,1.3c-0.06667,0.06667 -0.13333,0.15 -0.2,0.25c0,0.1 0,0.18333 0,0.25c-0.03333,0.1 -0.06667,0.2 -0.1,0.3c-0.03333,0.1 -0.05,0.18333 -0.05,0.25c-0.03333,0.1 -0.06667,0.2 -0.1,0.3c-0.03333,0.06667 -0.06667,0.15 -0.1,0.25c-0.06667,0.1 -0.13333,0.18333 -0.2,0.25c-0.06667,0.1 -0.15,0.18333 -0.25,0.25c-0.13333,0.1 -0.25,0.2 -0.35,0.3c-0.13333,0.1 -0.25,0.18333 -0.35,0.25c-0.2,0.06667 -0.41667,0.13333 -0.65,0.2c-0.13333,0.03333 -0.28333,0.06667 -0.45,0.1c-0.13333,0.03333 -0.28333,0.06667 -0.45,0.1c-0.13333,-0.03333 -0.26667,-0.06667 -0.4,-0.1c-0.56667,-0.16667 -1.05,-0.43333 -1.45,-0.8c-0.33333,-0.3 -0.58333,-0.65 -0.75,-1.05c-0.13333,-0.3 -0.26667,-0.58333 -0.4,-0.85c-0.36667,-0.3 -0.65,-0.66667 -0.85,-1.1c-0.33333,-0.6 -0.68333,-1.2 -1.05,-1.8c-0.56667,-0.96667 -1.11667,-1.95 -1.65,-2.95c-0.03333,-0.06667 -0.08333,-0.13333 -0.15,-0.2c-0.06667,0.06667 -0.15,0.15 -0.25,0.25c-0.36667,0.36667 -0.73333,0.75 -1.1,1.15c-0.36667,0.43333 -0.81667,0.78333 -1.35,1.05c-0.13333,0.06667 -0.23333,0.13333 -0.3,0.2c-0.2,0.93333 -0.01667,1.9 0.55,2.9c1.1,1.8 2.26667,3.58333 3.5,5.35c0.7,1 1.05,2.1 1.05,3.3c-1.23333,1.93333 -3.05,3.36667 -5.45,4.3c-3.96667,1.56667 -7.3,0.78333 -10,-2.35c-0.06667,-0.1 -0.13333,-0.2 -0.2,-0.3c-0.1,-0.23333 -0.21667,-0.48333 -0.35,-0.75c-0.16667,-0.33333 -0.36667,-0.61667 -0.6,-0.85c-0.33333,-0.3 -0.61667,-0.65 -0.85,-1.05c-0.03333,-0.1 -0.08333,-0.18333 -0.15,-0.25c-0.03333,-0.1 -0.05,-0.2 -0.05,-0.3c0,-0.3 -0.06667,-0.58333 -0.2,-0.85c-0.13333,-0.23333 -0.21667,-0.48333 -0.25,-0.75c-0.03333,-0.26667 -0.1,-0.53333 -0.2,-0.8c-0.06667,-0.16667 -0.13333,-0.35 -0.2,-0.55c0,-0.06667 0,-0.15 0,-0.25c0,-0.1 0,-0.18333 0,-0.25c0,-0.1 0,-0.2 0,-0.3c0,-0.06667 0,-0.15 0,-0.25c-0.03333,-0.1 -0.06667,-0.18333 -0.1,-0.25c-0.03333,-0.1 -0.06667,-0.2 -0.1,-0.3c-0.03333,-0.06667 -0.05,-0.15 -0.05,-0.25c-0.03333,-0.1 -0.06667,-0.18333 -0.1,-0.25c0,-0.46667 0,-0.91667 0,-1.35c0,-0.9 0,-1.8 0,-2.7c0,-1.33333 0,-2.66667 0,-4c0,-0.3 0,-0.56667 0,-0.8c0.03333,-0.1 0.06667,-0.2 0.1,-0.3c0,-0.06667 0.01667,-0.15 0.05,-0.25c0.03333,-0.1 0.06667,-0.18333 0.1,-0.25c0.03333,-0.1 0.06667,-0.2 0.1,-0.3c0,-0.06667 0,-0.15 0,-0.25c0,-0.1 0,-0.18333 0,-0.25c0,-0.1 0,-0.2 0,-0.3c0,-0.06667 0,-0.15 0,-0.25c0,-0.1 0,-0.18333 0,-0.25c0.03333,-0.1 0.06667,-0.2 0.1,-0.3c0.03333,-0.06667 0.06667,-0.15 0.1,-0.25c0,-0.1 0.01667,-0.2 0.05,-0.3c0.03333,-0.06667 0.06667,-0.15 0.1,-0.25c0,-0.1 0,-0.18333 0,-0.25c0,-0.2 0,-0.38333 0,-0.55c0,-0.1 0,-0.18333 0,-0.25c0,-0.1 0,-0.2 0,-0.3c0,-0.16667 0,-0.33333 0,-0.5c0.03333,-0.1 0.06667,-0.2 0.1,-0.3c0.03333,-0.06667 0.06667,-0.15 0.1,-0.25c0.03333,-0.1 0.05,-0.18333 0.05,-0.25c0.03333,-0.1 0.06667,-0.2 0.1,-0.3c0,-0.06667 0,-0.15 0,-0.25c0.03333,-0.26667 0.08333,-0.53333 0.15,-0.8c0.1,-0.26667 0.16667,-0.55 0.2,-0.85c0.03333,-0.26667 0.13333,-0.53333 0.3,-0.8c0.1,-0.23333 0.18333,-0.48333 0.25,-0.75c0.23333,-0.36667 0.43333,-0.73333 0.6,-1.1c0.3,-0.73333 0.63333,-1.46667 1,-2.2c0.56667,-1.06667 1.18333,-2.13333 1.85,-3.2c0.1,-0.13333 0.16667,-0.3 0.2,-0.5c0.23333,-0.26667 0.48333,-0.53333 0.75,-0.8c0.53333,-0.53333 1.06667,-1.06667 1.6,-1.6c0.8,-0.8 1.6,-1.6 2.4,-2.4c0.3,-0.16667 0.58333,-0.35 0.85,-0.55c0.6,-0.43333 1.26667,-0.75 2,-0.95c0.73333,-0.2 1.41667,-0.35 2.05,-0.45c1,0 2,0.06667 3,0.2c0.83333,0.1 1.65,0.26667 2.45,0.5c0.13333,0.1 0.25,0.18333 0.35,0.25c0.66667,0.4 1.33333,0.8 2,1.2M632.95811,353.13784c-0.3,0.1 -0.58333,0.21667 -0.85,0.35c-0.26667,0.3 -0.58333,0.55 -0.95,0.75c-0.36667,0.26667 -0.71667,0.55 -1.05,0.85c-0.06667,0.06667 -0.15,0.15 -0.25,0.25c-0.03333,0.1 -0.06667,0.18333 -0.1,0.25c-0.06667,0.1 -0.11667,0.2 -0.15,0.3c-0.2,0.16667 -0.38333,0.35 -0.55,0.55c-0.16667,0.16667 -0.31667,0.33333 -0.45,0.5c-0.16667,0.2 -0.35,0.38333 -0.55,0.55c-0.56667,1.06667 -1.16667,2.13333 -1.8,3.2c-0.8,1.33333 -1.35,2.76667 -1.65,4.3c-0.03333,0.16667 -0.1,0.35 -0.2,0.55c0,0.06667 0,0.15 0,0.25c0,0.1 0,0.18333 0,0.25c-0.03333,0.1 -0.06667,0.2 -0.1,0.3c-0.03333,0.06667 -0.06667,0.15 -0.1,0.25c-0.03333,0.1 -0.05,0.18333 -0.05,0.25c-0.03333,0.1 -0.06667,0.2 -0.1,0.3c0,0.23333 0,0.5 0,0.8c0,0.26667 -0.01667,0.53333 -0.05,0.8c-0.03333,0.26667 -0.1,0.53333 -0.2,0.8c-0.03333,0.1 -0.06667,0.18333 -0.1,0.25c0,0.2 0,0.38333 0,0.55c0,0.1 0,0.18333 0,0.25c0,0.2 0,0.38333 0,0.55c0,0.1 0,0.18333 0,0.25c-0.03333,0.1 -0.06667,0.2 -0.1,0.3c-0.03333,0.06667 -0.06667,0.15 -0.1,0.25c-0.03333,0.1 -0.06667,0.2 -0.1,0.3c-0.03333,0.06667 -0.05,0.15 -0.05,0.25c0,0.63333 -0.01667,1.25 -0.05,1.85c0,0.73333 0.01667,1.45 0.05,2.15c0,0.56667 0,1.1 0,1.6c0.03333,0.2 0.08333,0.38333 0.15,0.55c0.03333,0.16667 0.06667,0.35 0.1,0.55c0.1,0.26667 0.13333,0.53333 0.1,0.8c0,0.1 0,0.18333 0,0.25c0.1,0.36667 0.18333,0.73333 0.25,1.1c0.06667,0.43333 0.2,0.86667 0.4,1.3c0.16667,0.36667 0.33333,0.73333 0.5,1.1c0.16667,0.16667 0.33333,0.35 0.5,0.55c0.13333,0.16667 0.26667,0.33333 0.4,0.5c0.1,0.2 0.21667,0.38333 0.35,0.55c0.2,0.13333 0.41667,0.23333 0.65,0.3c0.33333,0.06667 0.68333,0.08333 1.05,0.05c0.53333,-0.26667 1.05,-0.55 1.55,-0.85c0.26667,-0.13333 0.51667,-0.3 0.75,-0.5c-0.76667,-1.2 -1.45,-2.43333 -2.05,-3.7c-0.8,-1.7 -1.71667,-3.31667 -2.75,-4.85c-0.03333,-0.1 -0.06667,-0.18333 -0.1,-0.25c0,-0.2 0,-0.38333 0,-0.55c0,-0.16667 0,-0.35 0,-0.55c-0.03333,-0.26667 -0.01667,-0.53333 0.05,-0.8c0.03333,-0.1 0.05,-0.18333 0.05,-0.25c0.06667,-0.1 0.11667,-0.2 0.15,-0.3c0.06667,-0.06667 0.13333,-0.15 0.2,-0.25c0.06667,-0.1 0.13333,-0.18333 0.2,-0.25c0.3,-0.3 0.63333,-0.6 1,-0.9c0.3,-0.2 0.58333,-0.43333 0.85,-0.7c0.1,-0.1 0.18333,-0.2 0.25,-0.3c0.96667,-0.56667 1.83333,-1.25 2.6,-2.05c0.63333,-0.7 1.16667,-1.45 1.6,-2.25c0.26667,-0.26667 0.53333,-0.53333 0.8,-0.8c0.26667,-0.26667 0.56667,-0.53333 0.9,-0.8c0.13333,-0.03333 0.26667,-0.08333 0.4,-0.15c0.13333,-0.03333 0.26667,-0.06667 0.4,-0.1c0.2,-0.03333 0.38333,-0.06667 0.55,-0.1c0.16667,0.03333 0.35,0.06667 0.55,0.1c0.2,0.06667 0.4,0.13333 0.6,0.2c1.23333,0.96667 2.16667,2.18333 2.8,3.65c0.76667,1.66667 1.56667,3.3 2.4,4.9c0.06667,0 0.1,-0.01667 0.1,-0.05c0.03333,-0.06667 0.05,-0.13333 0.05,-0.2c0,-0.1 0,-0.2 0,-0.3c0,-0.06667 0,-0.15 0,-0.25c0.03333,-0.1 0.06667,-0.18333 0.1,-0.25c0.03333,-0.1 0.06667,-0.2 0.1,-0.3c0.03333,-0.1 0.06667,-0.18333 0.1,-0.25c0,-0.1 0,-0.2 0,-0.3c0,-0.06667 0,-0.15 0,-0.25c0,-0.1 0,-0.18333 0,-0.25c0,-0.1 0,-0.2 0,-0.3c0,-0.06667 0,-0.15 0,-0.25c0.03333,-0.1 0.05,-0.18333 0.05,-0.25c0.03333,-0.1 0.06667,-0.2 0.1,-0.3c0.03333,-0.06667 0.06667,-0.15 0.1,-0.25c0,-0.26667 0,-0.53333 0,-0.8c0,-0.26667 0,-0.53333 0,-0.8c0,-0.3 0,-0.56667 0,-0.8c0.03333,-0.1 0.06667,-0.2 0.1,-0.3c0.03333,-0.06667 0.06667,-0.15 0.1,-0.25c0.03333,-0.1 0.05,-0.18333 0.05,-0.25c0,-0.53333 0.01667,-1.06667 0.05,-1.6c0.03333,-0.63333 0,-1.26667 -0.1,-1.9c-0.06667,-0.43333 -0.2,-0.88333 -0.4,-1.35c0,-0.06667 0,-0.15 0,-0.25c0,-0.1 0,-0.18333 0,-0.25c0,-0.1 0,-0.2 0,-0.3c0,-0.06667 0,-0.15 0,-0.25c0,-0.1 -0.01667,-0.2 -0.05,-0.3c-0.03333,-0.06667 -0.06667,-0.15 -0.1,-0.25c-0.03333,-0.1 -0.06667,-0.18333 -0.1,-0.25c-0.03333,-0.1 -0.06667,-0.2 -0.1,-0.3c0,-0.06667 0,-0.15 0,-0.25c0,-0.1 0,-0.18333 0,-0.25c-0.03333,-0.1 -0.08333,-0.2 -0.15,-0.3c-0.03333,-0.06667 -0.06667,-0.15 -0.1,-0.25c-0.03333,-0.1 -0.05,-0.18333 -0.05,-0.25c-0.03333,-0.1 -0.05,-0.2 -0.05,-0.3c-0.23333,-0.36667 -0.48333,-0.73333 -0.75,-1.1c-0.23333,-0.36667 -0.46667,-0.71667 -0.7,-1.05c-0.13333,-0.16667 -0.25,-0.33333 -0.35,-0.5c-1,-0.93333 -2.18333,-1.63333 -3.55,-2.1c-0.7,-0.23333 -1.41667,-0.28333 -2.15,-0.15c-0.3,0.1 -0.6,0.2 -0.9,0.3z" fill="#000000"/><path d="M649.85811,355.98784c0.03333,0.06667 0.06667,0.15 0.1,0.25c0,0.1 0.01667,0.18333 0.05,0.25c0,0.1 0,0.2 0,0.3c0,0.16667 0,0.33333 0,0.5c0,0.2 0.01667,0.38333 0.05,0.55c0.03333,0.26667 0.08333,0.53333 0.15,0.8c0.03333,0.1 0.06667,0.18333 0.1,0.25c0.03333,0.1 0.06667,0.2 0.1,0.3c0,0.1 0,0.18333 0,0.25c0,0.1 0,0.2 0,0.3c0,0.16667 0,0.33333 0,0.5c0,0.1 0,0.2 0,0.3c0,0.06667 0,0.15 0,0.25c0.03333,0.16667 0.08333,0.35 0.15,0.55c0.03333,0.06667 0.06667,0.15 0.1,0.25c0.03333,0.1 0.06667,0.18333 0.1,0.25c0,0.1 0,0.2 0,0.3c0,0.16667 0,0.33333 0,0.5c0,0.1 0,0.2 0,0.3c0,0.16667 0,0.35 0,0.55c0,0.06667 0,0.15 0,0.25c0,0.1 0,0.18333 0,0.25c0.03333,0.1 0.05,0.2 0.05,0.3c0.03333,0.06667 0.06667,0.15 0.1,0.25c0.06667,0.16667 0.13333,0.33333 0.2,0.5c0.06667,0.1 0.11667,0.2 0.15,0.3c0,0.1 0,0.18333 0,0.25c0,0.1 0,0.2 0,0.3c0,0.16667 0,0.33333 0,0.5c0,0.26667 0,0.55 0,0.85c0,0.23333 0,0.5 0,0.8c0,0.06667 0,0.15 0,0.25c0,0.1 0,0.18333 0,0.25c-0.03333,0.1 -0.05,0.2 -0.05,0.3c-0.06667,0.16667 -0.13333,0.33333 -0.2,0.5c-0.03333,0.1 -0.06667,0.2 -0.1,0.3c-0.03333,0.06667 -0.06667,0.15 -0.1,0.25c0,0.1 0,0.18333 0,0.25c0,0.2 0,0.38333 0,0.55c0,0.1 0,0.2 0,0.3c0,0.06667 0,0.15 0,0.25c-0.03333,0.16667 -0.08333,0.35 -0.15,0.55c-0.03333,0.06667 -0.06667,0.15 -0.1,0.25c-0.03333,0.1 -0.06667,0.18333 -0.1,0.25c0,0.1 0,0.2 0,0.3c0,0.06667 0,0.15 0,0.25c0,0.1 0,0.18333 0,0.25c-0.03333,0.1 -0.06667,0.2 -0.1,0.3c-0.06667,0.23333 -0.13333,0.5 -0.2,0.8c-0.03333,0.26667 -0.1,0.53333 -0.2,0.8c-0.1,0.26667 -0.2,0.53333 -0.3,0.8c-0.06667,0.16667 -0.11667,0.35 -0.15,0.55c-0.03333,0.06667 -0.06667,0.15 -0.1,0.25c0,0.1 0,0.18333 0,0.25c0,0.1 0,0.2 0,0.3c-0.2,0.23333 -0.31667,0.5 -0.35,0.8c-0.03333,0.26667 -0.06667,0.53333 -0.1,0.8c-0.03333,0.3 -0.13333,0.58333 -0.3,0.85c-0.06667,0.06667 -0.11667,0.13333 -0.15,0.2c0,0.1 0,0.2 0,0.3c-0.13333,0.16667 -0.25,0.33333 -0.35,0.5c-0.16667,0.26667 -0.31667,0.53333 -0.45,0.8c-0.16667,0.26667 -0.31667,0.55 -0.45,0.85c-0.03333,0.06667 -0.06667,0.15 -0.1,0.25c-0.06667,0.1 -0.11667,0.18333 -0.15,0.25c-0.26667,0.26667 -0.55,0.53333 -0.85,0.8c-0.26667,0.26667 -0.51667,0.55 -0.75,0.85c-0.06667,0.06667 -0.13333,0.15 -0.2,0.25c-0.06667,0.06667 -0.13333,0.15 -0.2,0.25c0,0.1 -0.01667,0.18333 -0.05,0.25c-0.03333,0.2 -0.06667,0.38333 -0.1,0.55c0,0.16667 -0.01667,0.35 -0.05,0.55c0,0.26667 0.03333,0.53333 0.1,0.8c0.03333,0.1 0.05,0.18333 0.05,0.25c0.03333,0.1 0.05,0.2 0.05,0.3c0.43333,0.56667 0.91667,1.1 1.45,1.6c0.56667,0.5 1.1,1.03333 1.6,1.6c0.46667,0.5 0.93333,0.95 1.4,1.35c0.06667,0.06667 0.13333,0.15 0.2,0.25c0.03333,0.1 0.06667,0.18333 0.1,0.25c0.06667,0.1 0.13333,0.2 0.2,0.3c0.13333,0.16667 0.28333,0.33333 0.45,0.5c0.06667,0.1 0.15,0.2 0.25,0.3c0.1,0.1 0.21667,0.18333 0.35,0.25c0.03333,0.1 0.06667,0.2 0.1,0.3c0.03333,0.06667 0.06667,0.15 0.1,0.25c0.03333,0.1 0.08333,0.18333 0.15,0.25c0.2,0.2 0.38333,0.38333 0.55,0.55c0.1,0.1 0.18333,0.2 0.25,0.3c0.06667,0.06667 0.13333,0.15 0.2,0.25c0.03333,0.06667 0.06667,0.15 0.1,0.25c0,0.1 0.01667,0.18333 0.05,0.25c0,0.1 0,0.2 0,0.3c-0.5,0.33333 -1.03333,0.58333 -1.6,0.75c-0.2,0.1 -0.4,0.16667 -0.6,0.2c-0.16667,0 -0.31667,0 -0.45,0c-0.86667,-0.36667 -1.71667,-0.8 -2.55,-1.3c-1.7,-0.96667 -3.3,-2.08333 -4.8,-3.35c-0.76667,-0.66667 -1.65,-1.05 -2.65,-1.15c-0.33333,0.06667 -0.66667,0.15 -1,0.25c-0.1,0.03333 -0.21667,0.08333 -0.35,0.15c-0.13333,0.06667 -0.28333,0.15 -0.45,0.25c-0.1,0.1 -0.18333,0.18333 -0.25,0.25c-0.3,0.33333 -0.56667,0.68333 -0.8,1.05c-0.23333,0.36667 -0.46667,0.71667 -0.7,1.05c-0.2,0.26667 -0.36667,0.55 -0.5,0.85c-0.03333,0.1 -0.08333,0.18333 -0.15,0.25c-0.33333,0.4 -0.71667,0.73333 -1.15,1c-2.23333,1.53333 -4.71667,1.95 -7.45,1.25c-1.03333,-0.26667 -2.06667,-0.56667 -3.1,-0.9c-0.23333,-0.2 -0.5,-0.36667 -0.8,-0.5c-0.3,-0.1 -0.6,-0.2 -0.9,-0.3c-0.16667,-0.06667 -0.35,-0.15 -0.55,-0.25c-0.03333,-0.1 -0.1,-0.18333 -0.2,-0.25c-0.33333,-0.33333 -0.7,-0.61667 -1.1,-0.85c-0.13333,-0.06667 -0.26667,-0.15 -0.4,-0.25c-0.1,-0.1 -0.21667,-0.18333 -0.35,-0.25c-0.03333,-0.1 -0.08333,-0.2 -0.15,-0.3c-0.06667,-0.06667 -0.13333,-0.15 -0.2,-0.25c-0.1,-0.1 -0.21667,-0.18333 -0.35,-0.25c-0.13333,-0.1 -0.28333,-0.2 -0.45,-0.3c-0.06667,-0.06667 -0.11667,-0.15 -0.15,-0.25c-0.06667,-0.1 -0.13333,-0.18333 -0.2,-0.25c-0.06667,-0.1 -0.13333,-0.2 -0.2,-0.3c-0.1,-0.06667 -0.2,-0.16667 -0.3,-0.3c-0.1,-0.06667 -0.16667,-0.15 -0.2,-0.25c-0.1,-0.16667 -0.21667,-0.31667 -0.35,-0.45c-0.56667,-0.73333 -0.96667,-1.55 -1.2,-2.45c-0.13333,-0.6 -0.31667,-1.15 -0.55,-1.65c-0.2,-0.43333 -0.36667,-0.86667 -0.5,-1.3c-0.03333,-0.1 -0.06667,-0.2 -0.1,-0.3c0,-0.06667 0,-0.15 0,-0.25c0,-0.16667 0,-0.35 0,-0.55c0,-0.06667 0,-0.15 0,-0.25c0,-0.1 0,-0.18333 0,-0.25c-0.06667,-0.2 -0.11667,-0.38333 -0.15,-0.55c-0.03333,-0.1 -0.06667,-0.2 -0.1,-0.3c-0.03333,-0.06667 -0.06667,-0.15 -0.1,-0.25c0,-0.16667 0,-0.35 0,-0.55c0,-0.06667 0,-0.15 0,-0.25c0,-0.16667 0,-0.35 0,-0.55c0,-0.06667 0,-0.15 0,-0.25c0,-0.1 0,-0.18333 0,-0.25c-0.06667,-0.2 -0.13333,-0.38333 -0.2,-0.55c0,-0.1 -0.01667,-0.18333 -0.05,-0.25c-0.03333,-0.1 -0.06667,-0.2 -0.1,-0.3c0,-0.26667 0,-0.53333 0,-0.8c0,-0.26667 -0.01667,-0.53333 -0.05,-0.8c-0.03333,-0.26667 -0.1,-0.53333 -0.2,-0.8c-0.03333,-0.1 -0.06667,-0.2 -0.1,-0.3c0,-0.06667 0,-0.15 0,-0.25c0,-0.06667 0,-0.15 0,-0.25c0,-0.1 0,-0.18333 0,-0.25c0,-0.1 0,-0.2 0,-0.3c0.06667,-0.16667 0.11667,-0.35 0.15,-0.55c0.16667,-1.13333 0.23333,-2.28333 0.2,-3.45c0,-0.73333 0,-1.45 0,-2.15c0,-0.53333 0,-1.06667 0,-1.6c0,-0.1 0,-0.2 0,-0.3c0.06667,-0.16667 0.11667,-0.33333 0.15,-0.5c0.03333,-0.1 0.06667,-0.2 0.1,-0.3c0.03333,-0.06667 0.06667,-0.15 0.1,-0.25c0,-0.16667 0,-0.35 0,-0.55c0,-0.06667 0,-0.15 0,-0.25c0,-0.16667 0,-0.35 0,-0.55c0,-0.06667 0,-0.15 0,-0.25c0,-0.1 0,-0.18333 0,-0.25c0.1,-0.2 0.18333,-0.38333 0.25,-0.55c0.03333,-0.2 0.05,-0.38333 0.05,-0.55c0.03333,-0.3 0.1,-0.56667 0.2,-0.8c0.06667,-0.1 0.1,-0.18333 0.1,-0.25c0.03333,-0.1 0.06667,-0.2 0.1,-0.3c0,-0.06667 0,-0.15 0,-0.25c0,-0.1 0,-0.18333 0,-0.25c0,-0.1 0,-0.2 0,-0.3c0.1,-0.16667 0.18333,-0.35 0.25,-0.55c0.06667,-0.16667 0.1,-0.33333 0.1,-0.5c0,-0.26667 0.06667,-0.53333 0.2,-0.8c0.03333,-0.1 0.06667,-0.2 0.1,-0.3c0.03333,-0.06667 0.06667,-0.15 0.1,-0.25c0,-0.1 0,-0.18333 0,-0.25c0,-0.1 0,-0.2 0,-0.3c0.03333,-0.06667 0.06667,-0.15 0.1,-0.25c0.23333,-0.83333 0.48333,-1.65 0.75,-2.45c0.2,-0.53333 0.45,-1.05 0.75,-1.55c0.23333,-0.43333 0.41667,-0.88333 0.55,-1.35c0,-0.1 0.01667,-0.2 0.05,-0.3c0.16667,-0.16667 0.3,-0.35 0.4,-0.55c0.13333,-0.16667 0.23333,-0.33333 0.3,-0.5c0.06667,-0.16667 0.13333,-0.35 0.2,-0.55c0.03333,-0.06667 0.06667,-0.15 0.1,-0.25c0.03333,-0.1 0.06667,-0.18333 0.1,-0.25c0.16667,-0.2 0.33333,-0.4 0.5,-0.6c0.2,-0.23333 0.38333,-0.48333 0.55,-0.75c0.2,-0.26667 0.41667,-0.53333 0.65,-0.8c0.2,-0.23333 0.38333,-0.5 0.55,-0.8c0.03333,-0.1 0.08333,-0.2 0.15,-0.3c0.1,-0.06667 0.21667,-0.15 0.35,-0.25c0.06667,-0.1 0.13333,-0.18333 0.2,-0.25c0.03333,-0.1 0.08333,-0.2 0.15,-0.3c0.06667,-0.06667 0.13333,-0.15 0.2,-0.25c1.4,-1.26667 3,-2.25 4.8,-2.95c2.63333,-1.06667 5.4,-1.45 8.3,-1.15c0.2,0 0.4,0.01667 0.6,0.05c0.4,0.1 0.8,0.16667 1.2,0.2c0.1,0 0.21667,0 0.35,0c0.23333,0 0.46667,0 0.7,0c0.53333,0.16667 1.06667,0.31667 1.6,0.45c0.53333,0.13333 1.06667,0.26667 1.6,0.4c0.46667,0.13333 0.91667,0.31667 1.35,0.55c0.13333,0.06667 0.25,0.13333 0.35,0.2c0.2,0.53333 0.5,0.98333 0.9,1.35c0.53333,0.5 1.1,0.96667 1.7,1.4c0.43333,0.3 0.83333,0.63333 1.2,1c0.06667,0.1 0.15,0.2 0.25,0.3c0.1,0.26667 0.23333,0.53333 0.4,0.8c0.43333,0.56667 0.8,1.18333 1.1,1.85c0.23333,0.53333 0.38333,1.06667 0.45,1.6c0.06667,0.36667 0.15,0.73333 0.25,1.1c0.03333,0.06667 0.06667,0.15 0.1,0.25c0,0.1 0,0.18333 0,0.25c0,0.1 0,0.2 0,0.3c0.06667,0.16667 0.13333,0.35 0.2,0.55M638.50811,347.93784c-0.8,-0.23333 -1.61667,-0.4 -2.45,-0.5c-1,-0.13333 -2,-0.2 -3,-0.2c-0.63333,0.1 -1.31667,0.25 -2.05,0.45c-0.73333,0.2 -1.4,0.51667 -2,0.95c-0.26667,0.2 -0.55,0.38333 -0.85,0.55c-0.8,0.8 -1.6,1.6 -2.4,2.4c-0.53333,0.53333 -1.06667,1.06667 -1.6,1.6c-0.26667,0.26667 -0.51667,0.53333 -0.75,0.8c-0.03333,0.2 -0.1,0.36667 -0.2,0.5c-0.66667,1.06667 -1.28333,2.13333 -1.85,3.2c-0.36667,0.73333 -0.7,1.46667 -1,2.2c-0.16667,0.36667 -0.36667,0.73333 -0.6,1.1c-0.06667,0.26667 -0.15,0.51667 -0.25,0.75c-0.16667,0.26667 -0.26667,0.53333 -0.3,0.8c-0.03333,0.3 -0.1,0.58333 -0.2,0.85c-0.06667,0.26667 -0.11667,0.53333 -0.15,0.8c0,0.1 0,0.18333 0,0.25c-0.03333,0.1 -0.06667,0.2 -0.1,0.3c0,0.06667 -0.01667,0.15 -0.05,0.25c-0.03333,0.1 -0.06667,0.18333 -0.1,0.25c-0.03333,0.1 -0.06667,0.2 -0.1,0.3c0,0.16667 0,0.33333 0,0.5c0,0.1 0,0.2 0,0.3c0,0.06667 0,0.15 0,0.25c0,0.16667 0,0.35 0,0.55c0,0.06667 0,0.15 0,0.25c-0.03333,0.1 -0.06667,0.18333 -0.1,0.25c-0.03333,0.1 -0.05,0.2 -0.05,0.3c-0.03333,0.1 -0.06667,0.18333 -0.1,0.25c-0.03333,0.1 -0.06667,0.2 -0.1,0.3c0,0.06667 0,0.15 0,0.25c0,0.1 0,0.18333 0,0.25c0,0.1 0,0.2 0,0.3c0,0.06667 0,0.15 0,0.25c0,0.1 0,0.18333 0,0.25c-0.03333,0.1 -0.06667,0.2 -0.1,0.3c-0.03333,0.06667 -0.06667,0.15 -0.1,0.25c-0.03333,0.1 -0.05,0.18333 -0.05,0.25c-0.03333,0.1 -0.06667,0.2 -0.1,0.3c0,0.23333 0,0.5 0,0.8c0,1.33333 0,2.66667 0,4c0,0.9 0,1.8 0,2.7c0,0.43333 0,0.88333 0,1.35c0.03333,0.06667 0.06667,0.15 0.1,0.25c0,0.1 0.01667,0.18333 0.05,0.25c0.03333,0.1 0.06667,0.2 0.1,0.3c0.03333,0.06667 0.06667,0.15 0.1,0.25c0,0.1 0,0.18333 0,0.25c0,0.1 0,0.2 0,0.3c0,0.06667 0,0.15 0,0.25c0,0.1 0,0.18333 0,0.25c0.06667,0.2 0.13333,0.38333 0.2,0.55c0.1,0.26667 0.16667,0.53333 0.2,0.8c0.03333,0.26667 0.11667,0.51667 0.25,0.75c0.13333,0.26667 0.2,0.55 0.2,0.85c0,0.1 0.01667,0.2 0.05,0.3c0.06667,0.06667 0.11667,0.15 0.15,0.25c0.23333,0.4 0.51667,0.75 0.85,1.05c0.23333,0.23333 0.43333,0.51667 0.6,0.85c0.13333,0.26667 0.25,0.51667 0.35,0.75c0.06667,0.1 0.13333,0.2 0.2,0.3c2.7,3.13333 6.03333,3.91667 10,2.35c2.4,-0.93333 4.21667,-2.36667 5.45,-4.3c0,-1.2 -0.35,-2.3 -1.05,-3.3c-1.23333,-1.76667 -2.4,-3.55 -3.5,-5.35c-0.56667,-1 -0.75,-1.96667 -0.55,-2.9c0.06667,-0.06667 0.16667,-0.13333 0.3,-0.2c0.53333,-0.26667 0.98333,-0.61667 1.35,-1.05c0.36667,-0.4 0.73333,-0.78333 1.1,-1.15c0.1,-0.1 0.18333,-0.18333 0.25,-0.25c0.06667,0.06667 0.11667,0.13333 0.15,0.2c0.53333,1 1.08333,1.98333 1.65,2.95c0.36667,0.6 0.71667,1.2 1.05,1.8c0.2,0.43333 0.48333,0.8 0.85,1.1c0.13333,0.26667 0.26667,0.55 0.4,0.85c0.16667,0.4 0.41667,0.75 0.75,1.05c0.4,0.36667 0.88333,0.63333 1.45,0.8c0.13333,0.03333 0.26667,0.06667 0.4,0.1c0.16667,-0.03333 0.31667,-0.06667 0.45,-0.1c0.16667,-0.03333 0.31667,-0.06667 0.45,-0.1c0.23333,-0.06667 0.45,-0.13333 0.65,-0.2c0.1,-0.06667 0.21667,-0.15 0.35,-0.25c0.1,-0.1 0.21667,-0.2 0.35,-0.3c0.1,-0.06667 0.18333,-0.15 0.25,-0.25c0.06667,-0.06667 0.13333,-0.15 0.2,-0.25c0.03333,-0.1 0.06667,-0.18333 0.1,-0.25c0.03333,-0.1 0.06667,-0.2 0.1,-0.3c0,-0.06667 0.01667,-0.15 0.05,-0.25c0.03333,-0.1 0.06667,-0.2 0.1,-0.3c0,-0.06667 0,-0.15 0,-0.25c0.06667,-0.1 0.13333,-0.18333 0.2,-0.25c0.26667,-0.4 0.46667,-0.83333 0.6,-1.3c0.1,-0.36667 0.2,-0.73333 0.3,-1.1c0.1,-0.36667 0.21667,-0.73333 0.35,-1.1c0.03333,-0.1 0.05,-0.18333 0.05,-0.25c0,-0.1 0,-0.2 0,-0.3c0,-0.06667 0,-0.15 0,-0.25c0,-0.1 0,-0.18333 0,-0.25c0.03333,-0.1 0.08333,-0.18333 0.15,-0.25c0.03333,-0.1 0.06667,-0.2 0.1,-0.3c0.03333,-0.1 0.05,-0.18333 0.05,-0.25c0.03333,-0.1 0.06667,-0.2 0.1,-0.3c0.03333,-0.06667 0.05,-0.15 0.05,-0.25c0,-0.1 0,-0.18333 0,-0.25c0,-0.1 0,-0.2 0,-0.3c0,-0.06667 0,-0.15 0,-0.25c0.1,-0.16667 0.18333,-0.35 0.25,-0.55c0.06667,-0.26667 0.1,-0.53333 0.1,-0.8c0.03333,-0.16667 0.06667,-0.33333 0.1,-0.5c0.03333,-0.26667 0.05,-0.55 0.05,-0.85c-0.03333,-0.06667 -0.05,-0.15 -0.05,-0.25c0.23333,-0.4 0.36667,-0.85 0.4,-1.35c0.06667,-0.96667 0.1,-1.95 0.1,-2.95c-0.03333,-0.63333 -0.03333,-1.25 0,-1.85c0.03333,-0.36667 0.05,-0.73333 0.05,-1.1c-0.03333,-0.06667 -0.06667,-0.15 -0.1,-0.25c-0.03333,-0.1 -0.06667,-0.18333 -0.1,-0.25c-0.03333,-0.1 -0.06667,-0.2 -0.1,-0.3c-0.03333,-0.06667 -0.05,-0.15 -0.05,-0.25c0,-0.1 0,-0.18333 0,-0.25c0,-0.1 0,-0.2 0,-0.3c0,-0.06667 0,-0.15 0,-0.25c0,-0.1 0,-0.2 0,-0.3c0,-0.06667 0,-0.15 0,-0.25c-0.3,-1.2 -0.68333,-2.36667 -1.15,-3.5c-0.53333,-1.2 -1.23333,-2.28333 -2.1,-3.25c-0.46667,-0.5 -0.9,-1.01667 -1.3,-1.55c-0.53333,-0.3 -1.03333,-0.61667 -1.5,-0.95c-0.66667,-0.4 -1.33333,-0.8 -2,-1.2c-0.1,-0.06667 -0.21667,-0.15 -0.35,-0.25z" fill="#ffffff"/></g></g></svg>