<svg version="1.1" xmlns="http://www.w3.org/2000/svg" xmlns:xlink="http://www.w3.org/1999/xlink" width="757.1" height="364.45453" viewBox="0,0,757.1,364.45453"><g transform="translate(-261.45,-177.77274)"><g data-paper-data="{&quot;isPaintingLayer&quot;:true}" fill-rule="nonzero" stroke="none" stroke-width="1" stroke-linecap="round" stroke-linejoin="miter" stroke-miterlimit="4" stroke-dasharray="" stroke-dashoffset="0" style="mix-blend-mode: normal"><path d="M852.1,449.27726c1.63333,-1.26666 2.91666,-1.95 3.85,-2.05c6.96666,0 12.6,0.41667 16.9,1.25c2.46666,0.46667 5.41666,1.21667 8.85,2.25c8.26666,2.13333 16.1,6.71667 23.5,13.75c3.43333,3.16667 6.36667,7.71667 8.8,13.65c2.3,5.56666 3.45,10.51666 3.45,14.85c0,3.2 -1.03334,7.21667 -3.1,12.05c-2.56667,6 -6.1,11.48334 -10.6,16.45c-12.6,13.83334 -29.86667,20.75 -51.8,20.75c-27.26667,0 -46.33334,-6 -57.2,-18c-6.03333,-6.66666 -9.05,-14.3 -9.05,-22.9c0,-5.46667 1.01667,-10 3.05,-13.6c2.4,-4.2 7.21666,-9.28333 14.45,-15.25c5.13333,-4.26666 13.88333,-8.63333 26.25,-13.1c3.06666,-1.13333 7.21666,-2.58334 12.45,-4.35c3.83334,-1.36667 6.18333,-2.38333 7.05,-3.05c0.46666,-0.36667 1.51667,-1.26666 3.15,-2.7M902.45,492.72726c0,-3 -0.86667,-6.26666 -2.6,-9.8c-2.03334,-4.2 -4.91667,-7.78333 -8.65,-10.75c-9.93334,-7.96666 -23.51667,-10.03334 -40.75,-6.2c-11.86667,2.5 -23.21666,7.53334 -34.05,15.1c-10.8,7.56667 -16.2,14.23334 -16.2,20c0,6.93333 3.16666,12.58333 9.5,16.95c8.7,5.96666 22.78333,8.95 42.25,8.95c16.96666,0 30.31667,-4.91666 40.05,-14.75c3.43334,-3.46666 6.13333,-7.28333 8.1,-11.45c1.56666,-3.33334 2.35,-6.01666 2.35,-8.05M1018.55,288.72726c0,20.26666 -7.1,37.86667 -21.3,52.8c-20,21.03334 -52.51667,34.43334 -97.55,40.2c0.73333,2.76666 3.03334,10.18333 6.9,22.25c3.23333,10.1 4.85,15.68333 4.85,16.75c0,2.73334 -0.75,4.76667 -2.25,6.1c-1.3,1.2 -3.65,2.2 -7.05,3c-10.86667,1.8 -21.01667,4.1 -30.45,6.9c-6.6,1.96667 -17.38333,5.03334 -32.35,9.2c-14,3.86667 -21.13334,5.8 -21.4,5.8c-5.93334,0 -9.16666,-3.33333 -9.7,-10c-0.13333,-2.1 -0.01666,-4.83333 0.35,-8.2c0.4,-3.8 0.6,-5.98334 0.6,-6.55c-0.06393,-3.03945 -0.39727,-7.68945 -1,-13.95c-2.10482,0.88711 -4.02148,1.70377 -5.75,2.45c-6.13333,2.63333 -12.9,5.73334 -20.3,9.3c-8.8,4.3 -15.78334,7.7 -20.95,10.2c-4.46667,2 -7.96667,3.63334 -10.5,4.9c-4.73334,2.3 -7.15,3.91666 -7.25,4.85c-0.06667,0.4 -0.15,1.9 -0.25,4.5c-0.1,1.83334 -0.35,3.33334 -0.75,4.5v64.5c0.23333,1.76667 -0.51667,3.38334 -2.25,4.85c-1.73334,1.43333 -3.65,2.15 -5.75,2.15c-0.93334,0 -8.5,-3.21666 -22.7,-9.65c-15.3,-6.96666 -25.81666,-12.25 -31.55,-15.85c-3.8,-2.36666 -8.71666,-4.63333 -14.75,-6.8c-6.86667,-2.26667 -11.81667,-3.93334 -14.85,-5c-5.33333,-1.83333 -9.18333,-3.6 -11.55,-5.3c-3.06667,-2.16667 -4.6,-4.71667 -4.6,-7.65c0,-3.46666 3.18333,-9.16666 9.55,-17.1c1.63333,-2 5.86667,-6.8 12.7,-14.4c1.96666,-2.16666 8.08334,-8.1 18.35,-17.8c8.6,-8.16666 12.9,-12.61667 12.9,-13.35c-1.04532,-3.22291 -2.09531,-6.50625 -3.15,-9.85c-6.13933,1.16666 -11.75599,1.75 -16.85,1.75c-20.52071,0 -36.3707,-1.73334 -47.55,-5.2c4.03334,10.43489 6.05,16.25156 6.05,17.45c0,2.96667 -1.63333,5.43334 -4.9,7.4c-2.23334,1.33333 -8.68334,4.11666 -19.35,8.35c-4.1,1.63333 -10.93334,4.15 -20.5,7.55c-10.33333,3.63333 -15.91667,5.45 -16.75,5.45c-4.86667,0 -9.7,-8.03333 -14.5,-24.1c-2.23334,-8.06667 -3.78333,-13.6 -4.65,-16.6c-1.46667,-5.03333 -2.58334,-7.55 -3.35,-7.55c-2.16666,0 -4.48334,0.4 -6.95,1.2c-2.93333,1.13333 -5.28333,1.98334 -7.05,2.55c0.36667,2.86667 0.91666,6.21666 1.65,10.05c0.46667,2.26666 1.16667,5.66666 2.1,10.2c0.56667,2.56667 1.8,6.43334 3.7,11.6c1.7,4.66667 2.55,7.16667 2.55,7.5c0,4.5 -2.85,7.46667 -8.55,8.9c-8.33334,1.2 -15.15,2.45 -20.45,3.75c-10.66667,2.06667 -18.75,3.56667 -24.25,4.5c-3,0.5 -6.05,1.56667 -9.15,3.2c-2.63333,1.36667 -5,2.05 -7.1,2.05c-3.66667,0 -6,-1.31666 -7,-3.95c-0.33333,-0.9 -0.5,-2.66667 -0.5,-5.3c0,-3.63333 0.91667,-10.61667 2.75,-20.95c0.25234,-1.42487 0.50234,-2.77487 0.75,-4.05c-6.72096,2.63373 -16.13763,6.35039 -28.25,11.15c-15.73334,6.23334 -23.65,9.35 -23.75,9.35c-6.66666,0 -10.71667,-2.06666 -12.15,-6.2c-0.46667,-1.3 -0.68334,-2.95 -0.65,-4.95c0.03334,-2.3 0.05,-3.5 0.05,-3.6c-0.52526,-3.01146 -0.9586,-5.59479 -1.3,-7.75c-0.54726,0.45638 -1.0306,0.87305 -1.45,1.25c-5.33334,5.3 -10.11667,9.86667 -14.35,13.7c-8.13333,7.36667 -13.51666,11.05 -16.15,11.05c-3.43333,0 -9.11667,-4.18333 -17.05,-12.55c-7.8,-8.96666 -12.28334,-14.03333 -13.45,-15.2c-0.06667,0.16667 -0.13333,0.18334 -0.2,0.05c-0.03333,0.03333 -0.05,0.55 -0.05,1.55c0,0.96667 0.83334,3.21667 2.5,6.75c1.66666,3.56667 2.5,5.95 2.5,7.15c0,2.36667 -1.23334,4.15 -3.7,5.35c-3.86667,1.86667 -11.05,2.75 -21.55,2.65c-2.5,0 -6.78334,0.63334 -12.85,1.9c-6.06666,1.23334 -9.11667,1.85 -9.15,1.85c-9.33334,0 -15,-4.68333 -17,-14.05c-0.36667,-1.7 -0.86667,-5.75 -1.5,-12.15c-0.46667,-4.93334 -1.21667,-8.53334 -2.25,-10.8c-2.33334,-5.13333 -3.96667,-11.48333 -4.9,-19.05c-0.7,-8.6 -1.31667,-15 -1.85,-19.2c-2.43333,-18.66667 -3.55,-32.68333 -3.35,-42.05c0.73334,-11.1 1.1,-22.58334 1.1,-34.45c0,-0.7 -0.45,-1.83333 -1.35,-3.4c-0.93333,-1.53333 -1.4,-2.53333 -1.4,-3c0,-6.5 10.43334,-13.05 31.3,-19.65c16.76666,-5.26666 31.5,-8.5 44.2,-9.7h26c7.57162,-0.02617 14.42161,1.00716 20.55,3.1c0.22058,-1.38959 0.47058,-2.97292 0.75,-4.75c1,-6.53333 1.81667,-11.65 2.45,-15.35c0.46667,-2.56667 2.25,-4.71666 5.35,-6.45c3.66666,-2.06667 7.63333,-2.25 11.9,-0.55c6.26666,1.13333 15.1,2.15 26.5,3.05c11.06667,0.83334 17.31667,1.4 18.75,1.7l41.75,0.25c5.73334,0.9 9.31666,2.71667 10.75,5.45c0.5,0.93333 0.75,3.06666 0.75,6.4c0,0.66666 -0.28333,4.13333 -0.85,10.4c-0.05768,0.61602 -0.12435,1.21602 -0.2,1.8c1.0711,-1.2 2.4211,-1.8 4.05,-1.8c1.5,0 4.21667,-0.03333 8.15,-0.1c3.8207,-0.09713 9.53737,-0.14713 17.15,-0.15c0.29778,0.26511 0.44779,0.74844 0.45,1.45c0.03021,-1.03373 2.84687,-1.58373 8.45,-1.65c3.23333,-0.03334 8.66666,0.03333 16.3,0.2c1.76666,0 3.25,0.45 4.45,1.35c0.33334,0.23334 1.1,1.03333 2.3,2.4c0.73334,0.76666 1.66667,2.35 2.8,4.75c0.6,1.26666 1.33333,2.93334 2.2,5c3.46667,7.73334 6.63333,14.23334 9.5,19.5c2.43333,4.53334 5.55,11.01666 9.35,19.45c1.45416,3.24167 2.7375,6.09166 3.85,8.55c2.59688,0.13399 6.19688,0.71732 10.8,1.75c2.8,0.63333 6.21667,1.46667 10.25,2.5c1.5,-5.63333 3.2,-14.21666 5.1,-25.75c2.16666,-13.23334 3.71666,-21.98334 4.65,-26.25c-3.7,0.2 -12.06667,1.46667 -25.1,3.8c-12.3,2.3 -18.51666,3.45 -18.65,3.45c-3.86667,0 -6.43334,-1.13333 -7.7,-3.4c-0.43334,-0.73334 -0.68334,-1.55 -0.75,-2.45c-0.03334,-0.8 -0.05,-1.23333 -0.05,-1.3c0,-3.06667 1.48334,-9.36667 4.45,-18.9c3.13333,-9.43334 4.81666,-14.75 5.05,-15.95c0.26666,-1.26666 1.03334,-3.98334 2.3,-8.15c1.2,-3.96667 2.01667,-7 2.45,-9.1c0.52292,-2.7638 1.28958,-4.98047 2.3,-6.65c-0.38386,-0.43554 -0.71719,-0.95222 -1,-1.55c-0.53333,-1.16666 -0.8,-2.56667 -0.8,-4.2c0,-2.86666 2.61667,-5.55 7.85,-8.05c5.26666,-2.56667 12.15,-4.43333 20.65,-5.6c20.76666,-2.9 41.68333,-0.96667 62.75,5.8c15.5,4.16666 28.96667,9.66666 40.4,16.5c4.92343,2.92227 9.5401,6.13893 13.85,9.65c1.37096,0.52174 2.30429,1.32175 2.8,2.4c2.78972,2.43542 5.43971,5.00209 7.95,7.7c13.5,14.46667 22.58334,27.08334 27.25,37.85c4.16666,9.63333 6.25,21.63333 6.25,36c0,5.36055 -0.51667,10.51054 -1.55,15.45c1.17448,-0.95039 2.39114,-1.93372 3.65,-2.95c14.7,-11.9 24.25,-18.85 28.65,-20.85c2.83334,-1.3 8,-4.73334 15.5,-10.3c8.66666,-6.43334 14.8,-10.71667 18.4,-12.85c6.7,-4.06667 11.7,-5.75 15,-5.05c4.06666,0.83333 5.88333,5.23334 5.45,13.2c0.39571,4.32683 1.64571,15.21015 3.75,32.65c1.92761,-1.13437 4.32761,-2.33437 7.2,-3.6c2.4,-1.06667 6.13333,-2.63333 11.2,-4.7c4.36667,-1.83334 7.61667,-3.36667 9.75,-4.6c4.53333,-2.66666 9.11667,-6 13.75,-10c6,-5.13333 9,-9.05 9,-11.75c0,-3.33333 -1.2,-6.8 -3.6,-10.4c-2.56667,-3.93333 -6.2,-7.46667 -10.9,-10.6c-11.43334,-7.66666 -26.35,-11.5 -44.75,-11.5c-13.56667,0 -26.43333,3.55 -38.6,10.65c-2.7,1.56667 -6.36667,4 -11,7.3c-3.1,2.2 -5.06667,3.3 -5.9,3.3c-3.36667,0 -5.61667,-1.23334 -6.75,-3.7c-0.5,-1.1 -0.75,-2.61667 -0.75,-4.55c0.23333,-28 0.56666,-49 1,-63c0.05508,-1.89883 0.40508,-3.48216 1.05,-4.75c-1.52552,-0.5724 -2.69219,-1.65573 -3.5,-3.25c-0.7,-1.36667 -1.05,-2.75 -1.05,-4.15c0,-3.06667 2.86667,-6.15 8.6,-9.25c5.66666,-3.06667 13.18334,-5.6 22.55,-7.6c22.3,-4.76667 44.91666,-4.93333 67.85,-0.5c8.06666,0.06667 22.56666,3.76666 43.5,11.1c21.2,7.43334 34.61667,13.65 40.25,18.65c17.7,15.5 29.96666,28.8 36.8,39.9c7.03334,11.43334 10.55,24.13333 10.55,38.1M850.45,193.47726c-17.9,0 -30.86667,2.13333 -38.9,6.4c-3.36667,2.1 -5.78333,3.55 -7.25,4.35c-1.1599,0.62695 -2.39323,1.11029 -3.7,1.45c0.66419,1.175 1.11419,2.775 1.35,4.8c0.06666,1.66666 0.36667,4.3 0.9,7.9c0.5,3.4 0.78333,6.01666 0.85,7.85c0.06666,3.3 0.23333,8.58334 0.5,15.85c0.23333,7 0.4,12.46666 0.5,16.4v0.75c3.36667,-2.23334 9,-4.76666 16.9,-7.6c11.73333,-4.26667 22.51666,-6.4 32.35,-6.4c28.1,0 48.76666,7 62,21c4.53333,4.76666 7.91666,10.1 10.15,16c1.56666,4.13333 2.35,7.66667 2.35,10.6c0,12.03333 -10.01667,23.66666 -30.05,34.9c-6.63333,3.73334 -13.73334,7.05 -21.3,9.95c-6.16666,2.36667 -9.88334,3.55 -11.15,3.55c-0.70612,0 -1.37279,-0.03333 -2,-0.1c0.0651,0.54284 0.13177,1.09284 0.2,1.65c2.93333,23.8 4.4,36.73334 4.4,38.8c0,4.16667 -7.63333,9.6 -22.9,16.3c-8.93516,3.54089 -16.78516,6.67422 -23.55,9.4c0.15664,0.80482 0.28997,1.63815 0.4,2.5c0.76667,5.8 1.33334,13.7 1.7,23.7c5.46666,-1.36667 17.05,-4.2 34.75,-8.5c16.53333,-4.06666 28.03333,-7.06666 34.5,-9c-1.6,-4.26666 -4,-12.13333 -7.2,-23.6c-3.2,-11.3 -4.8,-17.56666 -4.8,-18.8c0,-3.03333 1.13333,-5.06667 3.4,-6.1c1.66666,-0.76666 5.16666,-1.31666 10.5,-1.65c8,-0.5 14.08334,-1.03333 18.25,-1.6c8.8,-1.2 17.66666,-3.2 26.6,-6c8.7,-2.7 17.23333,-6.56666 25.6,-11.6c7.13333,-4.26666 12.26667,-8.15 15.4,-11.65c7.86667,-8.7 13.51666,-16.51666 16.95,-23.45c3.6,-7.3 5.4,-14.86666 5.4,-22.7c0,-8.13333 -2.7,-17.21667 -8.1,-27.25c-5.2,-9.7 -12.2,-18.98334 -21,-27.85c-14.43334,-14.5 -36.51667,-25.38333 -66.25,-32.65c-20.76667,-5.06667 -40.01667,-7.6 -57.75,-7.6M706.65,237.47726c-3.31823,-1.85976 -6.86823,-3.67643 -10.65,-5.45c-22.06666,-10.36666 -45.41666,-15.55 -70.05,-15.55c-10,0 -18.06667,1.25 -24.2,3.75c-2.7,1.26666 -4.6,2.13333 -5.7,2.6c-0.12018,0.05026 -0.23685,0.10026 -0.35,0.15c-0.13763,3.30977 -1.82097,11.72643 -5.05,25.25c-3.46666,14.6 -5.2,21.93334 -5.2,22v0.5c5.3,-1 13.33334,-2.3 24.1,-3.9c11.73334,-1.73334 18.86667,-2.6 21.4,-2.6c3.1,0 5.26666,1.25 6.5,3.75c0.66666,1.3 1,2.66667 1,4.1c0,2.8 -1.05,9.8 -3.15,21c-2,10.63333 -3.36667,17.01666 -4.1,19.15c-1.03333,3.06667 -1.8,7.13333 -2.3,12.2c-0.26666,2.8 -0.63333,6.8 -1.1,12c-0.56667,4.16666 -1.51667,7.21666 -2.85,9.15c-1.66667,2.43333 -4.16667,3.65 -7.5,3.65c-1.66666,0 -5.5,-0.76666 -11.5,-2.3c-3.25351,-0.82214 -5.83685,-1.4388 -7.75,-1.85c3.78463,8.25365 8.63464,19.75365 14.55,34.5c1.13581,0.13893 2.18581,0.4056 3.15,0.8c0.9,0.36667 2.21666,1.03333 3.95,2c3.83334,1.96666 9.03334,3 15.6,3.1c1.26666,0 5.38333,0.58333 12.35,1.75c7,1.16666 13.71667,1.75 20.15,1.75c4.38867,0 8.65534,-0.21667 12.8,-0.65c-0.02122,-0.22864 3.37878,-0.96198 10.2,-2.2c0.11328,0.18789 0.21328,0.37122 0.3,0.55c2.86211,-0.56953 5.64545,-1.26953 8.35,-2.1c0.17683,-0.00651 0.34349,-0.02317 0.5,-0.05c9.90612,-1.69765 13.15612,-2.89765 9.75,-3.6c8.51471,-3.65247 16.38138,-8.5358 23.6,-14.65c7.93333,-6.73334 14.08334,-14.31666 18.45,-22.75c4.36667,-8.4 6.55,-16.83333 6.55,-25.3c0,-11.03333 -1.48333,-20.05 -4.45,-27.05c-2.7,-6.46667 -9.13333,-16.7 -19.3,-30.7c-0.703,-0.97057 -1.453,-1.93724 -2.25,-2.9v45.4c0.46666,3.13333 0.93333,7.21667 1.4,12.25c0.08932,1.04245 0.17265,1.99245 0.25,2.85c0.525,0.54987 0.975,1.19987 1.35,1.95c0.63333,1.26666 0.96666,2.61667 1,4.05c0,1.60039 -0.58334,3.31705 -1.75,5.15c0.0707,1.77591 0.00403,3.27591 -0.2,4.5c-0.76666,4.33334 -3.28334,6.5 -7.55,6.5c-1.32149,0 -2.50482,-0.28333 -3.55,-0.85c-0.04388,0.03386 -0.09388,0.06719 -0.15,0.1c-9.96666,5.83334 -21.56666,8.75 -34.8,8.75c-14.83334,0 -24.83334,-1.33333 -30,-4c-3,-1.56666 -4.5,-3.95 -4.5,-7.15c0,-6.63333 0.83334,-16.6 2.5,-29.9c0.95677,-7.59974 1.82344,-13.18308 2.6,-16.75c-1.69128,-4.34193 -4.64128,-10.9586 -8.85,-19.85c-4.5,-9.53333 -6.75,-14.53333 -6.75,-15c0,-3.73334 5.45,-7.01666 16.35,-9.85c8.5,-2.2 18.13333,-3.7 28.9,-4.5c3.34649,-0.22474 9.32982,-1.47474 17.95,-3.75M693.15,255.17726c-11.76667,1.86666 -21.16666,3.21666 -28.2,4.05c0.63333,1.9 2.15,7.11667 4.55,15.65c1.83334,6.5 3.56667,11.78334 5.2,15.85c1.4,3.43334 3.51667,9.06667 6.35,16.9c3.1,8.63333 4.65,13.36667 4.65,14.2c0,1.83334 -0.48333,3.46667 -1.45,4.9c-0.50924,0.75703 -1.10924,1.35703 -1.8,1.8v0.05c0,0.14778 -0.01666,0.29778 -0.05,0.45c0.19505,0.27591 0.37838,0.55924 0.55,0.85c0.70808,1.18451 1.27474,2.18451 1.7,3c1.2164,0.06667 2.14974,0.1 2.8,0.1c11.16666,0 20.76667,-2.78333 28.8,-8.35c0.03073,-0.03073 0.56406,-0.46406 1.6,-1.3c-0.04024,-1.975 -0.04024,-4.49167 0,-7.55c0.03333,-4 -0.1,-6.6 -0.4,-7.8v-56.75c-9.8,1.63333 -17.9,2.95 -24.3,3.95M759.5,361.22726c-6.8914,9.13737 -16.32474,17.22071 -28.3,24.25c-10.29479,6.02708 -21.66146,10.74375 -34.1,14.15c2.21758,5.41341 4.25091,10.86341 6.1,16.35c0,0.93334 -6.81667,8.56667 -20.45,22.9c-15.5,16.33333 -25.43333,27.45 -29.8,33.35c13.13333,4.96666 26.4,10.53333 39.8,16.7c7.76667,3.56667 19.08334,8.91667 33.95,16.05l0.75,-0.25v-55.5c0.43333,-1.36667 0.55,-3.25 0.35,-5.65c-0.3,-3.83333 -0.45,-5.83333 -0.45,-6c-0.03334,-4.66666 2.33333,-7.7 7.1,-9.1c5.03333,-1.5 11.78333,-4.03333 20.25,-7.6c4.9,-2.06667 12.48333,-5.36667 22.75,-9.9c11.67474,-5.38659 21.9914,-10.15325 30.95,-14.3c0.99713,-1.96667 2.5138,-2.95 4.55,-2.95c0.50872,0 0.99205,0.05 1.45,0.15c25.43333,-11.74779 38.15,-17.68112 38.15,-17.8c0,-1.96666 -1.23333,-12.55 -3.7,-31.75c-1.9,-14.8 -3.7,-28.33334 -5.4,-40.6l-0.25,-1.5c-4.93334,3.4 -21.3,15.2 -49.1,35.4c-21.63333,15.73334 -33.01667,23.6 -34.15,23.6c-0.15625,0 -0.30625,0 -0.45,0M500.65,278.87726c-0.09245,1.29284 -0.15911,2.40951 -0.2,3.35c-0.16667,3.33334 -0.05,8.18334 0.35,14.55c0.2,3.23334 0.41666,6.63334 0.65,10.2c0,1.76666 -0.13333,3.03334 -0.4,3.8c-0.46666,1.3 -1.46666,2.36667 -3,3.2c-0.1444,0.07799 -0.2944,0.14466 -0.45,0.2c-0.08021,0.52239 -0.16354,1.05573 -0.25,1.6c-1.06667,6.86667 -2.28333,13.35 -3.65,19.45c-0.98151,4.4211 -1.96484,8.30443 -2.95,11.65l0.1,1.85c0.07448,1.41589 0.09114,2.71589 0.05,3.9c3.30508,-1.0539 6.27174,-1.77057 8.9,-2.15c7.26666,-1.03333 10.73334,0.88333 10.4,5.75c1.33334,5.7 3.4,14.86667 6.2,27.5c0.28073,1.26849 0.5474,2.46849 0.8,3.6c2.053,-0.85247 4.803,-1.46914 8.25,-1.85c3.76666,-0.36667 8.31667,-1.53334 13.65,-3.5c4.96667,-1.83334 7.91667,-2.75 8.85,-2.75c5.03334,0 9.53333,6.56666 13.5,19.7c1,3.33334 2.38333,8.63333 4.15,15.9c1.5,6.16667 2.61667,10.21667 3.35,12.15c3.06666,-0.76666 8.5,-2.5 16.3,-5.2c8.56667,-2.96667 15.96667,-5.73334 22.2,-8.3c-4.7,-15 -8.41666,-26.38333 -11.15,-34.15c-4.76666,-13.53333 -9.8,-25.15 -15.1,-34.85c-1.76666,-3.23334 -4.4,-9.01666 -7.9,-17.35c-3.36667,-7.93333 -6.06667,-13.65 -8.1,-17.15c-1.3,-2.26666 -4.38333,-8.01666 -9.25,-17.25c-1.63333,-3.13333 -2.71666,-6.01666 -3.25,-8.65c-0.26666,-1.43333 -0.66666,-2.13333 -1.2,-2.1c-4.86667,1.5 -13.71666,2.25 -26.55,2.25c-11.6,0 -19.25,-1.33333 -22.95,-4c-0.53789,-0.37968 -0.98789,-0.82969 -1.35,-1.35M486.45,260.47726l-38.5,-0.25c-3.5,-0.66666 -10,-1.43333 -19.5,-2.3c-11.7,-1 -20.61667,-1.81667 -26.75,-2.45c-0.86667,1.93333 -1.43334,7.28334 -1.7,16.05c-0.24896,1.7138 -0.61562,3.23047 -1.1,4.55c2.94648,2.52851 5.61315,5.44518 8,8.75c3.63333,5.03333 6.4,10.68334 8.3,16.95c1.5,5 2.25,9.51667 2.25,13.55c0,10.83334 -2.93333,20.66666 -8.8,29.5c-3.18333,4.78841 -7.1,8.98841 -11.75,12.6c0.6737,1.39883 1.35703,3.08216 2.05,5.05c0,0.73334 0.5,4.1 1.5,10.1c1,6 1.5,9.5 1.5,10.5c0,0.68594 -0.05,1.31927 -0.15,1.9l0.05,0.05c13.73334,7.2 20.6,12.71667 20.6,16.55c0,3.8 -3.18333,8.38333 -9.55,13.75c-1.42422,1.06498 -2.75755,2.06498 -4,3c0.06276,0.2362 0.12943,0.46953 0.2,0.7c2.63333,8.5 4.08334,12.98334 4.35,13.45c11.63333,-5.73334 27.26666,-12.15 46.9,-19.25c19.3,-7.03333 33.08334,-12.61666 41.35,-16.75c-0.96667,-7.56667 -2.88333,-17.23334 -5.75,-29c-1.03333,0.33334 -9.4,4.56667 -25.1,12.7c-15.53334,8.03334 -23.33333,12.05 -23.4,12.05c-3.33333,0 -5.66667,-1.25 -7,-3.75l-1,-3.75c0,-2.36667 3.75,-6.2 11.25,-11.5c3.94739,-2.7832 8.18073,-5.46654 12.7,-8.05c-0.56576,-1.47005 -1.08242,-3.13672 -1.55,-5c-0.7,-2.83334 -1.36667,-6.61667 -2,-11.35c-0.7,-5.16666 -1.16666,-8.28333 -1.4,-9.35c-3.06667,0.83334 -8.33333,3.71667 -15.8,8.65c-6.96667,4.56667 -11.03333,6.85 -12.2,6.85c-5.3,0 -8.16666,-2.48334 -8.6,-7.45c-0.16666,-1.56667 -0.06667,-3.43333 0.3,-5.6c0.36667,-1.93334 0.55,-3.08334 0.55,-3.45c0,-1.96666 -0.16666,-5.06666 -0.5,-9.3c-0.33334,-4.2 -0.5,-6.6 -0.5,-7.2c0,-4.4 0.31667,-7.26666 0.95,-8.6c0.93333,-2 3.21667,-3.55 6.85,-4.65c3.36667,-1 9.68334,-2.11667 18.95,-3.35c5.96666,-0.8 18.3,-2.35 37,-4.65c0,-7 0.05,-12.25 0.15,-15.75c0.13333,-5.83333 0.41667,-11.08334 0.85,-15.75v-8.75M391.25,290.97726c-11.46666,-11.46666 -29.15,-15.3 -53.05,-11.5c-18.36667,3.93334 -30.05,6.55 -35.05,7.85c-19.63333,5.06667 -29.45,9.36667 -29.45,12.9c0,10.1 0.48334,21.23334 1.45,33.4c0.56667,7.2 1.58333,18.81667 3.05,34.85c0.73334,9.03334 2.63333,20.28334 5.7,33.75c4.96667,21.8 7.56667,33.3 7.8,34.5c0.1,0 -0.08333,0.08334 -0.55,0.25c-0.26666,0.16667 0.11667,0.25 1.15,0.25c1.53333,0 6.2,-0.58333 14,-1.75c8.5,-1.3 14.05,-2.05 16.65,-2.25c-2.86667,-6.86667 -5.63333,-13.55 -8.3,-20.05c-5.3,-12.9 -7.95,-20.71666 -7.95,-23.45c0,-5.5 2.41666,-8.25 7.25,-8.25c1.93333,0 9.71666,7.23333 23.35,21.7c17.46666,18.6 27.43333,29.03333 29.9,31.3c4.93333,-5 10.45,-10.28333 16.55,-15.85c6.46667,-5.86667 12.36667,-10.91666 17.7,-15.15c-4.73334,-3.06667 -10.95,-6.36667 -18.65,-9.9c-8.7,-3.83333 -15,-6.65 -18.9,-8.45c-6.66667,-3.06667 -11.53334,-5.73334 -14.6,-8c-3.9,-2.86667 -5.85,-5.71666 -5.85,-8.55c0,-2.83334 5.53333,-6.65 16.6,-11.45c3.1,-1.33333 8.08333,-3.45 14.95,-6.35c5.93334,-2.6 10.66667,-4.95 14.2,-7.05c2.86667,-1.73334 5.83334,-6.03333 8.9,-12.9c2.9,-6.46667 4.35,-11.46667 4.35,-15c0,-3.13333 -0.73334,-6.68333 -2.2,-10.65c-2,-5.43334 -5,-10.16667 -9,-14.2M436.7,328.72726c0.33333,1.96667 0.5,3.46667 0.5,4.5v0.5c0.66667,-0.23334 4.38334,-2.53333 11.15,-6.9c7,-4.23334 11.7,-6.35 14.1,-6.35c4.33333,0 7,1.58334 8,4.75c0.16667,0.53334 0.25,2.4 0.25,5.6c0,2.23334 1.21666,9.18334 3.65,20.85c0.49192,2.39127 0.97526,4.75794 1.45,7.1c0.23021,-0.10078 0.44687,-0.20078 0.65,-0.3c-0.5,-2.53607 -0.75,-3.8694 -0.75,-4c0,-2.01237 0.63333,-5.51237 1.9,-10.5c0.20755,-0.92968 0.42422,-1.89635 0.65,-2.9c1.5,-6.13333 2.56667,-10.66666 3.2,-13.6c1.02565,-4.62304 2.12565,-8.15638 3.3,-10.6c-3.26524,0.29857 -7.0319,0.49857 -11.3,0.6c-6.63333,0.06667 -13.91667,0.66667 -21.85,1.8c-10.26666,1.46666 -15.4,3.23334 -15.4,5.3c0,0.8 0.16667,2.18333 0.5,4.15M388.1,363.07726c-5.15768,2.73281 -10.95768,4.94948 -17.4,6.65l-1.75,0.5c7.16341,2.79453 13.91341,5.6612 20.25,8.6c0,-0.91875 0,-1.95208 0,-3.1c-0.06667,-1.56667 -0.3,-4.31667 -0.7,-8.25c-0.18021,-1.81862 -0.31354,-3.28528 -0.4,-4.4M668.25,320.77726c-0.12734,4.63737 -0.31067,8.28737 -0.55,10.95c0.42995,0.13086 1.61328,0.26419 3.55,0.4c-2.03333,-5.47109 -3.05,-8.27109 -3.05,-8.4c0,-0.96979 0.03334,-1.83646 0.1,-2.6c-0.01133,-0.11133 -0.028,-0.22799 -0.05,-0.35M487.1,420.12726c-3.88268,1.3306 -7.28268,2.51393 -10.2,3.55c-0.16015,1.87409 -0.39349,4.37409 -0.7,7.5c-0.66667,6.76666 -1,10.56667 -1,11.4c0,1.03334 0.01666,1.55 0.05,1.55c0.06667,0 0.21666,-0.05 0.45,-0.15c7.46666,-1.03333 15.35,-2.43333 23.65,-4.2c9.8,-2.06667 16.5,-3.91667 20.1,-5.55c-2.27695,-10.65287 -4.01028,-19.20286 -5.2,-25.65c-6.1431,2.00742 -11.07643,4.05742 -14.8,6.15c-3.33333,1.86667 -7.45,3.66667 -12.35,5.4M325.95,304.47726c12.5,0.03334 20.81667,2.68334 24.95,7.95c2.03334,2.53333 3.05,6.33333 3.05,11.4c0,4.23334 -0.56667,7.38333 -1.7,9.45c-1.9,3.4 -5.66666,5.8 -11.3,7.2c-3.06667,0.73334 -8.98334,2.4 -17.75,5c-7.9,2.33334 -11.98334,3.5 -12.25,3.5c-4.76666,0 -7.76666,-2.5 -9,-7.5c-0.4,-1.6 -0.6,-3.38333 -0.6,-5.35c0.06667,-1.76666 0.1,-2.73333 0.1,-2.9c0,-1.5 -0.95,-3.75 -2.85,-6.75c-1.93333,-3 -2.9,-5.25 -2.9,-6.75c0,-3.73334 2.88333,-6.56666 8.65,-8.5c0.63333,-0.2 3.83334,-1.11667 9.6,-2.75c4.6,-1.3 8.6,-2.63333 12,-4M336.45,319.22726h-9.25c-6.13333,1.93334 -9.43333,2.98334 -9.9,3.15c-4.23334,1.53334 -6.35,2.81667 -6.35,3.85c0,0.86667 0.21666,2.05 0.65,3.55c0.5,1.66667 0.78334,2.98334 0.85,3.95l0.05,0.4c0.1,0.3 0.25,0.5 0.45,0.6c4.26666,-0.8 8.93334,-1.98334 14,-3.55c8.66666,-2.66667 13,-5.15 13,-7.45c0,-0.5 -0.2,-1.11667 -0.6,-1.85c-0.66666,-1.13333 -1.63333,-2.01666 -2.9,-2.65M511.05,353.12726c0.1,-0.7 0.15,-1.08333 0.15,-1.15c0,-2.36667 1.1,-5.86667 3.3,-10.5c2.56667,-5.03333 4.21667,-8.53333 4.95,-10.5c1,-2.76666 1.95,-6.1 2.85,-10c0.13333,-0.53333 0.85,-3.95 2.15,-10.25c0.7,-3.26666 2.7,-3.71667 6,-1.35c2.8,2.03334 6.21666,5.83334 10.25,11.4c3.6,4.93333 6.83334,10.03334 9.7,15.3c2.86667,5.26666 4.3,8.73334 4.3,10.4c0,5.83334 -2.25,8.75 -6.75,8.75c-3.26666,0.03334 -8.06667,0.58334 -14.4,1.65c-6.23334,1.06667 -10.93333,1.6 -14.1,1.6c-4.33333,0 -7,-1.03333 -8,-3.1c-0.33334,-0.66666 -0.46666,-1.41666 -0.4,-2.25M528.95,328.97726c-2.5,7.66667 -3.75,12.78334 -3.75,15.35c0,1.66666 0.08333,1.88333 0.25,0.65c0.63333,-0.1 2.28333,-0.38333 4.95,-0.85c2.1,-0.4 4.11667,-0.7 6.05,-0.9l0.15,-0.2c0.16667,-0.16667 0.45,-0.35 0.85,-0.55c-1.2,-2.36667 -2.56667,-4.8 -4.1,-7.3c-1.86667,-3.13333 -3.33333,-5.2 -4.4,-6.2z" fill="#000000"/><path d="M900.1,500.77726c-1.96667,4.16666 -4.66666,7.98334 -8.1,11.45c-9.73333,9.83333 -23.08334,14.75 -40.05,14.75c-19.46667,0 -33.55,-2.98333 -42.25,-8.95c-6.33334,-4.36667 -9.5,-10.01667 -9.5,-16.95c0,-5.76666 5.4,-12.43333 16.2,-20c10.83334,-7.56666 22.18333,-12.6 34.05,-15.1c17.23333,-3.83333 30.81666,-1.76666 40.75,6.2c3.73333,2.96667 6.61667,6.55 8.65,10.75c1.73333,3.53334 2.6,6.8 2.6,9.8c0,2.03334 -0.78334,4.71666 -2.35,8.05M486.45,269.22726c-0.43333,4.66666 -0.71667,9.91667 -0.85,15.75c-0.1,3.5 -0.15,8.75 -0.15,15.75c-18.7,2.3 -31.03334,3.85 -37,4.65c-9.26666,1.23334 -15.58333,2.35 -18.95,3.35c-3.63333,1.1 -5.91667,2.65 -6.85,4.65c-0.63333,1.33334 -0.95,4.2 -0.95,8.6c0,0.6 0.16666,3 0.5,7.2c0.33334,4.23334 0.5,7.33333 0.5,9.3c0,0.36667 -0.18333,1.51666 -0.55,3.45c-0.36667,2.16666 -0.46666,4.03333 -0.3,5.6c0.43334,4.96666 3.3,7.45 8.6,7.45c1.16667,0 5.23333,-2.28333 12.2,-6.85c7.46667,-4.93333 12.73334,-7.81666 15.8,-8.65c0.23334,1.06667 0.7,4.18334 1.4,9.35c0.63333,4.73334 1.3,8.51666 2,11.35c0.46758,1.86328 0.98424,3.52995 1.55,5c-4.51927,2.58346 -8.75261,5.2668 -12.7,8.05c-7.5,5.3 -11.25,9.13334 -11.25,11.5l1,3.75c1.33333,2.5 3.66667,3.75 7,3.75c0.06667,0 7.86666,-4.01667 23.4,-12.05c15.7,-8.13333 24.06667,-12.36666 25.1,-12.7c2.86667,11.76667 4.78333,21.43334 5.75,29c-8.26666,4.13333 -22.05,9.71666 -41.35,16.75c-19.63333,7.1 -35.26666,13.51666 -46.9,19.25c-0.26666,-0.46666 -1.71667,-4.95 -4.35,-13.45c-0.07057,-0.23047 -0.13724,-0.4638 -0.2,-0.7c1.24245,-0.93502 2.57578,-1.93502 4,-3c6.36667,-5.36667 9.55,-9.95 9.55,-13.75c0,-3.83333 -6.86667,-9.35 -20.6,-16.55l-0.05,-0.05c0.1,-0.58073 0.15,-1.21407 0.15,-1.9c0,-1 -0.5,-4.5 -1.5,-10.5c-1,-6 -1.5,-9.36667 -1.5,-10.1c-0.69297,-1.96784 -1.3763,-3.65117 -2.05,-5.05c4.65,-3.61159 8.56667,-7.81159 11.75,-12.6c5.86667,-8.83334 8.8,-18.66666 8.8,-29.5c0,-4.03333 -0.75,-8.55 -2.25,-13.55c-1.9,-6.26666 -4.66667,-11.91667 -8.3,-16.95c-2.38685,-3.30482 -5.05352,-6.22149 -8,-8.75c0.48438,-1.31953 0.85104,-2.8362 1.1,-4.55c0.26666,-8.76667 0.83334,-14.11667 1.7,-16.05c6.13333,0.63333 15.05,1.45 26.75,2.45c9.5,0.86666 16,1.63333 19.5,2.3l38.5,0.25v8.75M688.7,241.22726c-10.76666,0.8 -20.4,2.3 -28.9,4.5c-10.9,2.83334 -16.35,6.11667 -16.35,9.85c0,0.46667 2.25,5.46667 6.75,15c4.20872,8.8914 7.15873,15.50807 8.85,19.85c-0.77656,3.56692 -1.64323,9.15026 -2.6,16.75c-1.66666,13.3 -2.5,23.26666 -2.5,29.9c0,3.2 1.5,5.58334 4.5,7.15c5.16666,2.66667 15.16666,4 30,4c13.23334,0 24.83334,-2.91666 34.8,-8.75c0.05612,-0.03281 0.10612,-0.06615 0.15,-0.1c1.04518,0.56667 2.22851,0.85 3.55,0.85c4.26666,0 6.78334,-2.16666 7.55,-6.5c0.20403,-1.22409 0.2707,-2.72409 0.2,-4.5c1.16666,-1.83294 1.75,-3.54961 1.75,-5.15c-0.03334,-1.43333 -0.36667,-2.78334 -1,-4.05c-0.375,-0.75013 -0.825,-1.40013 -1.35,-1.95c-0.07735,-0.85755 -0.16068,-1.80755 -0.25,-2.85c-0.46667,-5.03333 -0.93334,-9.11667 -1.4,-12.25v-45.4c0.797,0.96276 1.547,1.92942 2.25,2.9c10.16666,14 16.6,24.23334 19.3,30.7c2.96667,7 4.45,16.01666 4.45,27.05c0,8.46667 -2.18333,16.9 -6.55,25.3c-4.36667,8.43334 -10.51667,16.01666 -18.45,22.75c-7.21862,6.11419 -15.08529,10.99752 -23.6,14.65c3.40612,0.70235 0.15612,1.90235 -9.75,3.6c-0.15651,0.02683 -0.32317,0.04349 -0.5,0.05c-2.70456,0.83047 -5.48789,1.53047 -8.35,2.1c-0.08672,-0.17877 -0.18672,-0.36211 -0.3,-0.55c-6.82122,1.23802 -10.22123,1.97136 -10.2,2.2c-4.14466,0.43333 -8.41133,0.65 -12.8,0.65c-6.43333,0 -13.15,-0.58334 -20.15,-1.75c-6.96667,-1.16667 -11.08334,-1.75 -12.35,-1.75c-6.56666,-0.1 -11.76666,-1.13334 -15.6,-3.1c-1.73334,-0.96667 -3.05,-1.63333 -3.95,-2c-0.9642,-0.3944 -2.01419,-0.66107 -3.15,-0.8c-5.91536,-14.74635 -10.76536,-26.24635 -14.55,-34.5c1.91315,0.4112 4.49649,1.02787 7.75,1.85c6,1.53333 9.83334,2.3 11.5,2.3c3.33333,0 5.83333,-1.21666 7.5,-3.65c1.33333,-1.93333 2.28333,-4.98334 2.85,-9.15c0.46666,-5.2 0.83334,-9.2 1.1,-12c0.5,-5.06667 1.26667,-9.13333 2.3,-12.2c0.73334,-2.13333 2.1,-8.51666 4.1,-19.15c2.1,-11.2 3.15,-18.2 3.15,-21c0,-1.43333 -0.33334,-2.8 -1,-4.1c-1.23334,-2.5 -3.4,-3.75 -6.5,-3.75c-2.53333,0 -9.66666,0.86667 -21.4,2.6c-10.76666,1.6 -18.8,2.9 -24.1,3.9v-0.5c0,-0.06666 1.73334,-7.4 5.2,-22c3.22904,-13.52357 4.91237,-21.94023 5.05,-25.25c0.11315,-0.04974 0.22982,-0.09974 0.35,-0.15c1.1,-0.46667 3,-1.33334 5.7,-2.6c6.13333,-2.5 14.2,-3.75 24.2,-3.75c24.63333,0 47.98334,5.18334 70.05,15.55c3.78177,1.77357 7.33177,3.59024 10.65,5.45c-8.62018,2.27526 -14.60352,3.52526 -17.95,3.75M974.45,233.72726c8.8,8.86667 15.8,18.15 21,27.85c5.4,10.03333 8.1,19.11667 8.1,27.25c0,7.83334 -1.8,15.4 -5.4,22.7c-3.43334,6.93334 -9.08334,14.75 -16.95,23.45c-3.13333,3.5 -8.26667,7.38333 -15.4,11.65c-8.36667,5.03334 -16.9,8.9 -25.6,11.6c-8.93334,2.8 -17.8,4.8 -26.6,6c-4.16666,0.56667 -10.25,1.1 -18.25,1.6c-5.33334,0.33334 -8.83334,0.88333 -10.5,1.65c-2.26667,1.03334 -3.4,3.06667 -3.4,6.1c0,1.23334 1.6,7.5 4.8,18.8c3.2,11.46666 5.6,19.33333 7.2,23.6c-6.46667,1.93334 -17.96667,4.93334 -34.5,9c-17.7,4.3 -29.28334,7.13333 -34.75,8.5c-0.36667,-10 -0.93333,-17.9 -1.7,-23.7c-0.11002,-0.86185 -0.24336,-1.69518 -0.4,-2.5c6.76484,-2.72578 14.61484,-5.85911 23.55,-9.4c15.26666,-6.7 22.9,-12.13333 22.9,-16.3c0,-2.06667 -1.46666,-15 -4.4,-38.8c-0.06823,-0.55716 -0.1349,-1.10716 -0.2,-1.65c0.62721,0.06667 1.29388,0.1 2,0.1c1.26666,0 4.98334,-1.18333 11.15,-3.55c7.56666,-2.9 14.66666,-6.21667 21.3,-9.95c20.03333,-11.23334 30.05,-22.86667 30.05,-34.9c0,-2.93333 -0.78334,-6.46667 -2.35,-10.6c-2.23334,-5.9 -5.61667,-11.23334 -10.15,-16c-13.23334,-14 -33.9,-21 -62,-21c-9.83334,0 -20.61667,2.13333 -32.35,6.4c-7.9,2.83333 -13.53334,5.36666 -16.9,7.6v-0.75c-0.1,-3.93333 -0.26667,-9.4 -0.5,-16.4c-0.26667,-7.26666 -0.43334,-12.55 -0.5,-15.85c-0.06667,-1.83333 -0.35,-4.45 -0.85,-7.85c-0.53334,-3.6 -0.83334,-6.23333 -0.9,-7.9c-0.23581,-2.025 -0.68581,-3.625 -1.35,-4.8c1.30677,-0.33971 2.5401,-0.82305 3.7,-1.45c1.46667,-0.8 3.88333,-2.25 7.25,-4.35c8.03334,-4.26667 21,-6.4 38.9,-6.4c17.73333,0 36.98333,2.53333 57.75,7.6c29.73333,7.26666 51.81666,18.15 66.25,32.65z" fill="#ff9900"/><path d="M499.45,414.71726c3.72357,-2.09258 8.6569,-4.14258 14.8,-6.15c1.18972,6.44714 2.92305,14.99713 5.2,25.65c-3.6,1.63333 -10.3,3.48334 -20.1,5.55c-8.3,1.76666 -16.18333,3.16666 -23.65,4.2c-0.23334,0.1 -0.38333,0.15 -0.45,0.15c-0.03334,0 -0.05,-0.51666 -0.05,-1.55c0,-0.83333 0.33333,-4.63333 1,-11.4c0.30651,-3.12591 0.53985,-5.62591 0.7,-7.5c2.91732,-1.03607 6.31732,-2.2194 10.2,-3.55c4.9,-1.73334 9.01667,-3.53334 12.35,-5.4M400.25,305.16726c1.46667,3.96666 2.2,7.51666 2.2,10.65c0,3.53333 -1.45,8.53333 -4.35,15c-3.06666,6.86667 -6.03333,11.16666 -8.9,12.9c-3.53333,2.1 -8.26666,4.45 -14.2,7.05c-6.86667,2.9 -11.85,5.01666 -14.95,6.35c-11.06667,4.8 -16.6,8.61667 -16.6,11.45c0,2.83334 1.95,5.68334 5.85,8.55c3.06666,2.26666 7.93333,4.93333 14.6,8c3.9,1.8 10.2,4.61667 18.9,8.45c7.7,3.53334 13.91666,6.83334 18.65,9.9c-5.33334,4.23334 -11.23334,9.28334 -17.7,15.15c-6.1,5.56666 -11.61666,10.85 -16.55,15.85c-2.46667,-2.26666 -12.43333,-12.7 -29.9,-31.3c-13.63334,-14.46666 -21.41667,-21.7 -23.35,-21.7c-4.83334,0 -7.25,2.75 -7.25,8.25c0,2.73333 2.65,10.55 7.95,23.45c2.66667,6.5 5.43334,13.18333 8.3,20.05c-2.6,0.2 -8.15,0.95 -16.65,2.25c-7.8,1.16667 -12.46667,1.75 -14,1.75c-1.03334,0 -1.41667,-0.08333 -1.15,-0.25c0.46667,-0.16666 0.65,-0.25 0.55,-0.25c-0.23334,-1.2 -2.83333,-12.7 -7.8,-34.5c-3.06667,-13.46666 -4.96666,-24.71666 -5.7,-33.75c-1.46667,-16.03333 -2.48334,-27.65 -3.05,-34.85c-0.96666,-12.16666 -1.45,-23.3 -1.45,-33.4c0,-3.53333 9.81667,-7.83333 29.45,-12.9c5,-1.3 16.68334,-3.91666 35.05,-7.85c23.9,-3.8 41.58333,0.03333 53.05,11.5c4,4.03333 7,8.76666 9,14.2M313.95,308.46726c-5.76666,1.63333 -8.96667,2.55 -9.6,2.75c-5.76666,1.93333 -8.65,4.76666 -8.65,8.5c0,1.5 0.96666,3.75 2.9,6.75c1.9,3 2.85,5.25 2.85,6.75c0,0.16666 -0.03334,1.13333 -0.1,2.9c0,1.96667 0.2,3.75 0.6,5.35c1.23334,5 4.23334,7.5 9,7.5c0.26666,0 4.35,-1.16666 12.25,-3.5c8.76666,-2.6 14.68334,-4.26666 17.75,-5c5.63333,-1.4 9.4,-3.8 11.3,-7.2c1.13333,-2.06667 1.7,-5.21666 1.7,-9.45c0,-5.06667 -1.01666,-8.86667 -3.05,-11.4c-4.13333,-5.26666 -12.45,-7.91667 -24.95,-7.95c-3.4,1.36667 -7.4,2.7 -12,4M502,280.21726c3.7,2.66667 11.35,4 22.95,4c12.83334,0 21.68333,-0.75 26.55,-2.25c0.53334,-0.03333 0.93334,0.66667 1.2,2.1c0.53334,2.63333 1.61667,5.51666 3.25,8.65c4.86667,9.23334 7.95,14.98334 9.25,17.25c2.03333,3.5 4.73334,9.21667 8.1,17.15c3.5,8.33334 6.13333,14.11667 7.9,17.35c5.3,9.7 10.33334,21.31667 15.1,34.85c2.73334,7.76666 6.45,19.15 11.15,34.15c-6.23334,2.56667 -13.63333,5.33334 -22.2,8.3c-7.8,2.7 -13.23334,4.43333 -16.3,5.2c-0.73334,-1.93333 -1.85,-5.98333 -3.35,-12.15c-1.76666,-7.26666 -3.15,-12.56666 -4.15,-15.9c-3.96667,-13.13333 -8.46666,-19.7 -13.5,-19.7c-0.93333,0 -3.88333,0.91667 -8.85,2.75c-5.33333,1.96666 -9.88333,3.13333 -13.65,3.5c-3.447,0.38086 -6.197,0.99753 -8.25,1.85c-0.25261,-1.13151 -0.51927,-2.33151 -0.8,-3.6c-2.8,-12.63333 -4.86666,-21.8 -6.2,-27.5c0.33334,-4.86667 -3.13333,-6.78333 -10.4,-5.75c-2.62826,0.37942 -5.59492,1.09609 -8.9,2.15c0.04114,-1.18411 0.02448,-2.48411 -0.05,-3.9l-0.1,-1.85c0.98516,-3.34557 1.96849,-7.2289 2.95,-11.65c1.36667,-6.1 2.58333,-12.58333 3.65,-19.45c0.08646,-0.54427 0.16979,-1.07761 0.25,-1.6c0.1556,-0.05534 0.3056,-0.12201 0.45,-0.2c1.53334,-0.83334 2.53334,-1.9 3,-3.2c0.26666,-0.76666 0.4,-2.03334 0.4,-3.8c-0.23334,-3.56667 -0.45,-6.96666 -0.65,-10.2c-0.4,-6.36667 -0.51667,-11.21666 -0.35,-14.55c0.04089,-0.94049 0.10755,-2.05716 0.2,-3.35c0.36211,0.52031 0.81211,0.97032 1.35,1.35M511.45,355.36726c1,2.06667 3.66667,3.1 8,3.1c3.16667,0 7.86667,-0.53333 14.1,-1.6c6.33333,-1.06666 11.13333,-1.61667 14.4,-1.65c4.5,0 6.75,-2.91666 6.75,-8.75c0,-1.66666 -1.43333,-5.13333 -4.3,-10.4c-2.86667,-5.26666 -6.1,-10.36667 -9.7,-15.3c-4.03334,-5.56666 -7.45,-9.36667 -10.25,-11.4c-3.3,-2.36667 -5.3,-1.91666 -6,1.35c-1.3,6.3 -2.01666,9.71667 -2.15,10.25c-0.9,3.9 -1.85,7.23334 -2.85,10c-0.73334,1.96667 -2.38333,5.46667 -4.95,10.5c-2.2,4.63333 -3.3,8.13333 -3.3,10.5c0,0.06667 -0.05,0.45 -0.15,1.15c-0.06666,0.83334 0.06666,1.58334 0.4,2.25M759.95,361.21726c1.13333,0 12.51667,-7.86667 34.15,-23.6c27.8,-20.2 44.16666,-32 49.1,-35.4l0.25,1.5c1.7,12.26666 3.5,25.8 5.4,40.6c2.46666,19.2 3.7,29.78334 3.7,31.75c0,0.11888 -12.71666,6.05221 -38.15,17.8c-0.45795,-0.1 -0.94128,-0.15 -1.45,-0.15c-2.0362,0 -3.55287,0.98334 -4.55,2.95c-8.9586,4.14675 -19.27526,8.91341 -30.95,14.3c-10.26667,4.53334 -17.85,7.83334 -22.75,9.9c-8.46667,3.56666 -15.21667,6.1 -20.25,7.6c-4.76667,1.4 -7.13333,4.43334 -7.1,9.1c0,0.16667 0.15,2.16667 0.45,6c0.2,2.4 0.08334,4.28333 -0.35,5.65v55.5l-0.75,0.25c-14.86667,-7.13333 -26.18333,-12.48334 -33.95,-16.05c-13.4,-6.16666 -26.66666,-11.73334 -39.8,-16.7c4.36667,-5.9 14.3,-17.01667 29.8,-33.35c13.63333,-14.33334 20.45,-21.96667 20.45,-22.9c-1.84909,-5.48659 -3.88242,-10.93659 -6.1,-16.35c12.43854,-3.40625 23.80521,-8.12292 34.1,-14.15c11.97526,-7.02929 21.4086,-15.11263 28.3,-24.25c0.14375,0 0.29375,0 0.45,0M717.45,307.96726c0.3,1.2 0.43333,3.8 0.4,7.8c-0.04024,3.05833 -0.04024,5.575 0,7.55c-1.03594,0.83594 -1.56927,1.26927 -1.6,1.3c-8.03333,5.56667 -17.63333,8.35 -28.8,8.35c-0.65026,0 -1.5836,-0.03333 -2.8,-0.1c-0.42526,-0.81549 -0.99193,-1.81549 -1.7,-3c-0.17161,-0.29075 -0.35495,-0.57409 -0.55,-0.85c0.03334,-0.15222 0.05,-0.30221 0.05,-0.45v-0.05c0.69076,-0.44297 1.29075,-1.04297 1.8,-1.8c0.96667,-1.43333 1.45,-3.06666 1.45,-4.9c0,-0.83334 -1.55,-5.56667 -4.65,-14.2c-2.83333,-7.83333 -4.95,-13.46666 -6.35,-16.9c-1.63333,-4.06667 -3.36667,-9.35 -5.2,-15.85c-2.4,-8.53333 -3.91666,-13.75 -4.55,-15.65c7.03334,-0.83333 16.43333,-2.18333 28.2,-4.05c6.4,-1 14.5,-2.31667 24.3,-3.95z" fill="#ff0000"/></g></g></svg>