<svg version="1.1" xmlns="http://www.w3.org/2000/svg" xmlns:xlink="http://www.w3.org/1999/xlink" width="45.6506" height="62.73628" viewBox="0,0,45.6506,62.73628"><g transform="translate(-612.69941,-339.21645)"><g data-paper-data="{&quot;isPaintingLayer&quot;:true}" fill-rule="nonzero" stroke="none" stroke-width="1" stroke-linecap="round" stroke-linejoin="miter" stroke-miterlimit="4" stroke-dasharray="" stroke-dashoffset="0" style="mix-blend-mode: normal"><path d="M650.3255,347.68051c2.8,4.93333 4.58333,9.03333 5.35,12.3c1.13333,4.96667 0.7,9.33333 -1.3,13.1c-0.5,0.86667 -1.3,2.13333 -2.4,3.8c-0.36667,0.63333 -0.88333,1.61667 -1.55,2.95c-0.63333,1.16667 -1.3,2.05 -2,2.65c1.86667,0.73333 3.28333,1.38333 4.25,1.95c1.5,0.8 2.7,1.73333 3.6,2.8c1.53333,1.83333 2.21667,3.9 2.05,6.2c-0.2,2.43333 -1.3,4.3 -3.3,5.6c-1.3,0.8 -3.3,1.33333 -6,1.6c-4.36667,0.46667 -8.73333,0.81667 -13.1,1.05c-3.43333,0.23333 -6.21667,0.31667 -8.35,0.25c-3.06667,-0.1 -5.81667,-0.45 -8.25,-1.05c-2.43333,-0.56667 -4.11667,-1.5 -5.05,-2.8c-0.8,-1.06667 -1.23333,-2.75 -1.3,-5.05c-0.06667,-2.73333 0.2,-5.36667 0.8,-7.9c0.5,-2.23333 1.28333,-3.85 2.35,-4.85c0.46667,-0.43333 1.08333,-0.85 1.85,-1.25c0.93333,-0.4 1.61667,-0.71667 2.05,-0.95c2.16667,-1.06667 4.68333,-3 7.55,-5.8c1,-1 1.71667,-1.78333 2.15,-2.35c0.5,-0.66667 1.1,-1.56667 1.8,-2.7c1.53333,-2.6 2.46667,-4.61667 2.8,-6.05c-0.93333,0.33333 -1.83333,1.03333 -2.7,2.1c-0.5,0.63333 -1.2,1.63333 -2.1,3c-1.33333,1.76667 -2.95,3.11667 -4.85,4.05c-1.96667,0.96667 -3.7,1.28333 -5.2,0.95c-1.66667,-0.33333 -3.11667,-1.35 -4.35,-3.05c-1.2,-1.6 -1.95,-3.5 -2.25,-5.7c-0.3,-2.03333 -0.21667,-4.11667 0.25,-6.25c0.56667,-2.63333 1.58333,-5.1 3.05,-7.4c1.5,-2.33333 3.33333,-4.26667 5.5,-5.8c2.2,-1.56667 4.63333,-2.66667 7.3,-3.3c2.7,-0.63333 5.36667,-0.73333 8,-0.3c2.66667,0.4 5.16667,1.31667 7.5,2.75c2.33333,1.43333 4.28333,3.25 5.85,5.45M620.6255,352.78051c-1.03333,1.76667 -1.7,3.63333 -2,5.6c-0.23333,1.4 -0.2,2.7 0.1,3.9c0.33333,1.36667 0.98333,2.41667 1.95,3.15c1.03333,-0.13333 2.03333,-0.66667 3,-1.6c0.53333,-0.5 1.3,-1.43333 2.3,-2.8c1.6,-2.2 3.18333,-3.78333 4.75,-4.75c2.23333,-1.36667 4.4,-1.68333 6.5,-0.95c1.26667,0.46667 2.15,1.18333 2.65,2.15c0.9,1.56667 0.8,3.71667 -0.3,6.45c-1.63333,4.16667 -3.98333,7.95 -7.05,11.35c-3.1,3.4 -6.66667,6.11667 -10.7,8.15c-0.96667,0.5 -1.6,0.95 -1.9,1.35c-0.26667,0.4 -0.46667,0.98333 -0.6,1.75c-0.43333,2.2 -0.6,4.48333 -0.5,6.85c0,0.36667 0.06667,0.68333 0.2,0.95c0.2,0.23333 0.55,0.41667 1.05,0.55c2.2,0.6 4.68333,0.95 7.45,1.05c1.9,0.06667 4.43333,0.01667 7.6,-0.15c5.13333,-0.3 10.21667,-0.75 15.25,-1.35c0.96667,-0.13333 1.58333,-0.38333 1.85,-0.75c0.36667,-0.5 0.4,-1.08333 0.1,-1.75c-0.2,-0.36667 -0.6,-0.81667 -1.2,-1.35c-2.06667,-1.6 -4.26667,-2.61667 -6.6,-3.05c-0.8,-0.13333 -1.4,-0.25 -1.8,-0.35c-0.7,-0.13333 -1.28333,-0.3 -1.75,-0.5c-1.4,-0.63333 -2.11667,-1.53333 -2.15,-2.7c-0.03333,-0.83333 0.5,-1.86667 1.6,-3.1l5.85,-6.45c0.04896,-0.10495 0.09896,-0.22161 0.15,-0.35l-0.15,0.1c0.06263,-0.05221 0.11263,-0.10221 0.15,-0.15c0.9487,-2.16706 1.6487,-4.90039 2.1,-8.2c0.36667,-2.43333 0.55,-4.45 0.55,-6.05c0,-0.47604 0.01667,-0.90938 0.05,-1.3c-0.32109,-0.90599 -0.70443,-1.83932 -1.15,-2.8c-1.7,-3.73333 -3.66667,-6.4 -5.9,-8c-1.86667,-1.3 -3.96667,-2.08333 -6.3,-2.35c-1.96667,-0.23333 -3.93333,-0.1 -5.9,0.4c-1.96667,0.53333 -3.73333,1.41667 -5.3,2.65c-1.6,1.2 -2.91667,2.66667 -3.95,4.4z" fill="#000000"/><path d="M635.7655,345.33051c2.33333,0.26667 4.43333,1.05 6.3,2.35c2.23333,1.6 4.2,4.26667 5.9,8c0.44557,0.96068 0.82891,1.89401 1.15,2.8c-0.03333,0.39063 -0.05,0.82396 -0.05,1.3c0,1.6 -0.18333,3.61667 -0.55,6.05c-0.4513,3.29961 -1.1513,6.03294 -2.1,8.2c-0.03737,0.04779 -0.08737,0.09779 -0.15,0.15l0.15,-0.1c-0.05104,0.12839 -0.10104,0.24505 -0.15,0.35l-5.85,6.45c-1.1,1.23333 -1.63333,2.26667 -1.6,3.1c0.03333,1.16667 0.75,2.06667 2.15,2.7c0.46667,0.2 1.05,0.36667 1.75,0.5c0.4,0.1 1,0.21667 1.8,0.35c2.33333,0.43333 4.53333,1.45 6.6,3.05c0.6,0.53333 1,0.98333 1.2,1.35c0.3,0.66667 0.26667,1.25 -0.1,1.75c-0.26667,0.36667 -0.88333,0.61667 -1.85,0.75c-5.03333,0.6 -10.11667,1.05 -15.25,1.35c-3.16667,0.16667 -5.7,0.21667 -7.6,0.15c-2.76667,-0.1 -5.25,-0.45 -7.45,-1.05c-0.5,-0.13333 -0.85,-0.31667 -1.05,-0.55c-0.13333,-0.26667 -0.2,-0.58333 -0.2,-0.95c-0.1,-2.36667 0.06667,-4.65 0.5,-6.85c0.13333,-0.76667 0.33333,-1.35 0.6,-1.75c0.3,-0.4 0.93333,-0.85 1.9,-1.35c4.03333,-2.03333 7.6,-4.75 10.7,-8.15c3.06667,-3.4 5.41667,-7.18333 7.05,-11.35c1.1,-2.73333 1.2,-4.88333 0.3,-6.45c-0.5,-0.96667 -1.38333,-1.68333 -2.65,-2.15c-2.1,-0.73333 -4.26667,-0.41667 -6.5,0.95c-1.56667,0.96667 -3.15,2.55 -4.75,4.75c-1,1.36667 -1.76667,2.3 -2.3,2.8c-0.96667,0.93333 -1.96667,1.46667 -3,1.6c-0.96667,-0.73333 -1.61667,-1.78333 -1.95,-3.15c-0.3,-1.2 -0.33333,-2.5 -0.1,-3.9c0.3,-1.96667 0.96667,-3.83333 2,-5.6c1.03333,-1.73333 2.35,-3.2 3.95,-4.4c1.56667,-1.23333 3.33333,-2.11667 5.3,-2.65c1.96667,-0.5 3.93333,-0.63333 5.9,-0.4z" fill="#ffffff"/></g></g></svg>