<svg version="1.1" xmlns="http://www.w3.org/2000/svg" xmlns:xlink="http://www.w3.org/1999/xlink" width="75.10055" height="76.5459" viewBox="0,0,75.10055,76.5459"><g transform="translate(-592.96715,-331.14722)"><g data-paper-data="{&quot;isPaintingLayer&quot;:true}" fill-rule="nonzero" stroke="none" stroke-linecap="butt" stroke-linejoin="miter" stroke-miterlimit="10" stroke-dasharray="" stroke-dashoffset="0" style="mix-blend-mode: normal"><path d="M603.7084,349.95223c1.01015,-1.89075 5.82559,-5.49347 14.44632,-10.80817c8.32737,-5.31464 13.30596,-7.98026 14.93576,-7.99684c1.48313,0.04863 2.77075,0.48846 3.86287,1.31947c0.97804,0.84732 2.62454,3.07987 4.9395,6.69762c2.46167,3.69923 4.23048,6.43699 5.30647,8.21328c0.9293,1.74373 -0.43937,3.85456 -4.10599,6.33253c-0.14666,0.09781 -0.29333,0.19563 -0.44,0.29344c-0.71703,0.45648 -1.40964,0.87219 -2.07778,1.24717c0.04889,-0.00001 0.09778,-0.00001 0.14669,-0.00002c1.25497,0.11387 2.65663,0.2277 4.20496,0.34151c1.48313,0.04863 3.81375,-0.00883 6.99184,-0.17237c3.2107,-0.13094 4.93827,-0.19646 5.18274,-0.19649c0.34227,0.03253 1.13272,0.00795 2.37136,-0.07376c1.17347,0.08129 2.24104,0.33372 3.2027,0.75729c2.90131,1.45002 4.66209,4.79895 5.28235,10.04682c0.31045,4.44932 -0.03917,8.93134 -1.04884,13.44609c-1.97177,1.66276 -4.32667,2.61661 -7.06471,2.86156c-3.19443,-0.03203 -5.53319,-0.02347 -7.01631,0.02569c-2.78695,0.13087 -4.99533,0.19647 -6.62514,0.19675c-2.57509,0.03305 -4.88128,-0.08878 -6.91859,-0.36549c-0.06519,0.03261 -0.13037,0.06521 -0.19556,0.09782c-0.08149,0.01631 -0.16297,0.03262 -0.24446,0.04894c0.35862,0.34219 1.22253,0.96136 2.59172,1.85751c1.76038,1.10796 2.96658,1.91449 3.61859,2.41963c0.32601,0.26071 0.64387,0.52142 0.95357,0.78215c2.28209,2.03686 3.32551,3.97613 3.13027,5.81785c-0.29306,1.71136 -3.23434,4.66182 -8.82384,8.85141c-1.77626,1.35305 -3.63398,2.70612 -5.57322,4.0592c-1.6785,1.12486 -2.53406,1.671 -2.56665,1.63841c-1.14086,0.06539 -3.9281,-1.57206 -8.36178,-4.91239c-2.23312,-1.64571 -4.42551,-3.38107 -6.57719,-5.20607c-1.54856,-1.36876 -4.16477,-3.45445 -7.84862,-6.25708c-1.51594,-1.25468 -2.83631,-2.53384 -3.96111,-3.83748c-3.27635,-2.42783 -6.08011,-5.29579 -8.41132,-8.60389c-3.30928,-4.3836 -4.58947,-8.8246 -3.84056,-13.32299c1.15624,-5.28078 4.66754,-10.48047 10.53394,-15.59911M597.42824,365.40391c0.01719,5.03609 0.77569,8.67043 2.27551,10.903c1.02709,1.74371 2.39642,3.45477 4.10802,5.13317c3.32527,2.68859 6.53647,5.3446 9.63357,7.96804c-0.5053,-0.35847 -1.15731,-0.85545 -1.95603,-1.49092c1.46706,1.28729 2.72218,2.33829 3.76541,3.15302c0.48903,0.48885 0.94544,0.86363 1.36923,1.12432c0.47273,0.50516 0.88024,0.8392 1.22253,1.00212c8.93257,6.95769 13.68406,10.39574 14.25448,10.31415c0.65192,-0.01641 2.67261,-1.54064 6.06208,-4.57268c3.12873,-2.75493 5.29603,-4.78442 6.50185,-6.08848c-0.24452,-0.24442 -0.62758,-0.59476 -1.1492,-1.05102c-1.32034,-1.14063 -3.51276,-2.95748 -6.57724,-5.45054c-3.4231,-2.83526 -5.36293,-4.92922 -5.81952,-6.28187c-0.06522,-0.19556 -0.09786,-0.38299 -0.09789,-0.56227c-0.03276,-0.94528 0.47237,-1.5484 1.51541,-1.80935c0.47262,-0.11417 1.01045,-0.15501 1.61348,-0.12252c0.47264,0.01622 5.66361,0.20272 15.5729,0.55953c3.6508,0.14603 6.42963,0.26779 8.33652,0.36524c0.97784,-0.19576 2.46909,-0.39158 4.47372,-0.58752c0.68383,-3.87906 0.91132,-7.75804 0.68246,-11.63694c-0.7828,-2.77053 -1.53284,-4.65283 -2.25013,-5.64687c-0.76619,-1.04294 -1.74416,-1.57245 -2.93393,-1.58854c-0.97789,-0.03242 -1.71945,-0.05674 -2.2247,-0.07295c-1.01048,-0.03243 -1.92318,-0.0567 -2.73809,-0.07286c-0.83121,-0.03245 -2.11875,-0.06482 -3.86266,-0.0971c-1.7113,-0.01599 -7.29339,-0.06389 -16.74628,-0.14372c-0.17928,0.01633 -0.4645,0.00008 -0.85566,-0.04875c-0.13039,-0.06517 -0.27709,-0.13034 -0.44008,-0.1955l0,-0.02445c-0.1793,-0.14665 -0.26901,-0.48075 -0.26911,-1.00228c-0.00004,-0.21187 0.06511,-0.44006 0.19546,-0.68455c0.53765,-1.04317 2.20795,-2.46954 5.0109,-4.27913c2.00444,-1.3205 4.21257,-2.64103 6.62446,-3.9616c0.37482,-0.19564 0.74965,-0.39129 1.12447,-0.58693c-0.55428,-0.7985 -2.35563,-3.13696 -5.40405,-7.01536c-2.86913,-3.79694 -4.57261,-5.67907 -5.11044,-5.64638c-0.63561,0.09791 -2.85194,1.24731 -6.649,3.44822c-3.69927,2.26609 -9.26437,6.07267 -16.69534,11.41974c-7.95252,5.29828 -12.14021,10.40846 -12.5631,15.33055M632.92442,359.84814l-0.02445,0.02446l-0.17113,-0.02442c0.06519,-0.00001 0.13038,-0.00003 0.19557,-0.00004z" fill="#000000" stroke-width="1"/><path d="M597.36546,365.3965c0.42289,-4.92209 4.62742,-10.0683 12.57994,-15.36658c7.43097,-5.34708 13.03459,-9.17301 16.73386,-11.4391c3.79706,-2.20091 6.02641,-3.3505 6.66202,-3.44841c0.53783,-0.03269 2.25312,1.85162 5.12225,5.64857c3.04842,3.8784 4.86617,6.2242 5.42044,7.02271c-0.37482,0.19564 -0.81579,0.49902 -1.19061,0.69466c-2.41188,1.32058 -4.60818,2.6466 -6.61262,3.9671c-2.80295,1.80959 -4.45663,3.23927 -4.99427,4.28244c-0.13035,0.24449 -0.18852,0.34645 -0.18848,0.55832c0.0001,0.52153 0.09163,0.85574 0.27093,1.00239l0.00002,0.02445c0.16299,0.06516 0.31235,0.13059 0.44274,0.19577c0.39116,0.04883 0.68129,0.06587 0.86058,0.04954c9.45289,0.07983 15.07775,0.15902 16.78905,0.17501c1.7439,0.03228 3.03368,0.06908 3.86489,0.10153c0.81491,0.01616 1.7287,0.04297 2.73918,0.07539c0.50525,0.01621 1.24751,0.04233 2.2254,0.07475c1.18977,0.01608 2.16928,0.55033 2.93547,1.59327c0.71729,0.99405 1.46945,2.88777 2.25225,5.6583c0.22886,3.8789 -0.00053,7.77999 -0.68435,11.65905c-2.00463,0.19593 -3.49695,0.39533 -4.47479,0.59108c-1.90689,-0.09745 -4.68821,-0.21291 -8.33901,-0.35894c-9.90929,-0.35681 -15.13123,-0.51218 -15.60387,-0.52839c-0.60303,-0.03249 -1.15125,0.0121 -1.62387,0.12627c-1.04304,0.26095 -1.55994,0.86602 -1.52718,1.8113c0.00003,0.17929 0.0236,0.2406 0.08882,0.43617c0.45659,1.35265 2.37825,3.45071 5.80135,6.28597c3.06448,2.49307 5.2478,4.31431 6.56814,5.45494c0.52162,0.45626 0.96954,0.91512 1.21405,1.15955c-1.20582,1.30406 -3.38982,3.34067 -6.51855,6.09559c-3.38947,3.03204 -5.42303,4.5583 -6.07495,4.5747c-0.57042,0.08159 -5.35444,-3.36353 -14.287,-10.32123c-0.34229,-0.16293 -0.75301,-0.49875 -1.22574,-1.00391c-0.42379,-0.26069 -0.88372,-0.63773 -1.37275,-1.12659c-1.04323,-0.81473 -2.30733,-1.87326 -3.77439,-3.16054c0.79872,0.63548 1.45506,1.13643 1.96036,1.4949c-3.0971,-2.62344 -6.32515,-5.30155 -9.65043,-7.99014c-1.7116,-1.6784 -3.08509,-3.40167 -4.11218,-5.14538c-1.49981,-2.23256 -2.25948,-5.88844 -2.27667,-10.92454" data-paper-data="{&quot;noHover&quot;:false,&quot;origItem&quot;:[&quot;Path&quot;,{&quot;applyMatrix&quot;:true,&quot;segments&quot;:[[[637.72562,386.24567],[0,0],[3.98079,-0.14259]],[[646.28658,384.16751],[-1.72651,1.24285],[1.35216,-0.85662]],[[650.23932,380.78847],[-1.283,1.39608],[2.04026,-2.69763]],[[656.29161,372.96865],[-1.9946,2.51558],[-0.27044,0.40864]],[[655.16308,374.55316],[0.48191,-0.6477],[0.98007,-1.19274]],[[657.55921,371.49569],[-0.61735,0.84558],[0.37393,-0.39912]],[[658.41296,370.38446],[-0.19523,0.3417],[0.38724,-0.38665]],[[659.17386,369.39233],[-0.12003,0.27477],[5.27152,-7.23977]],[[666.96247,357.8594],[0.07911,0.44885],[-0.02967,-0.51495]],[[663.19231,353.18422],[2.48377,2.60184],[-2.25802,-2.40282]],[[658.21258,348.20021],[1.0618,0.91985],[-0.18696,0.19956]],[[657.41114,349.13562],[0.34733,-0.42405],[-0.86789,1.073]],[[653.27075,354.4748],[1.89237,-2.48645],[-2.1537,2.77872]],[[648.45375,359.23627],[1.05763,-0.3956],[-0.15293,0.05657]],[[648.01176,359.32806],[0.14173,-0.00462],[-0.74644,0.05011]],[[646.54258,358.17642],[0.23301,0.81788],[-0.10236,-0.3707]],[[646.40439,356.90404],[-0.01024,0.47755],[0.00071,-0.37406]],[[646.44782,344.57872],[-0.02824,7.84282],[0.02193,-2.88984]],[[646.52301,337.97901],[-0.02819,1.50997],[-0.1798,-0.76801]],[[645.94396,334.45741],[0.20624,1.57972],[-3.08407,-0.44123]],[[636.72702,334.21598],[3.06056,-0.28028],[-2.17016,0.6898]],[[632.32058,336.13944],[0.76746,-0.59251],[-0.80486,0.63242]],[[631.13993,338.49952],[-0.01776,-0.94097],[-0.00058,0.77389]],[[631.13925,340.2601],[-0.00013,-0.39983],[0.00025,0.79966]],[[631.15179,342.42653],[-0.0081,-0.64463],[-0.00436,0.65793]],[[631.17397,345.4826],[-0.01915,-1.37945],[0.03119,1.35326]],[[631.48931,358.72488],[-0.17903,-7.47493],[0.0175,0.14131]],[[631.47269,359.40256],[0.02858,-0.31048],[-0.04818,0.10475]],[[631.32941,359.75547],[0.04734,-0.13052],[0,0]],[[631.31008,359.7561],[0,0],[-0.11134,0.1455]],[[630.52463,359.99451],[0.41229,-0.01344],[-0.16749,0.00546]],[[629.97846,359.85753],[0.19662,0.09678],[-0.83844,-0.39831]],[[626.46728,356.00583],[1.50235,2.16949],[-1.09525,-1.55076]],[[623.16579,350.87041],[1.10575,1.87286],[-0.16426,-0.2913]],[[622.673,349.99651],[0.16426,0.2913],[-0.61705,0.45863]],[[617.26551,354.44832],[2.98794,-2.50924],[-2.92814,2.36542]],[[612.93273,358.63296],[-0.03962,-0.42434],[0.09368,0.49997]],[[615.829,363.80093],[-1.83717,-2.94535],[1.88619,2.86637]],[[625.28441,376.70674],[-4.41742,-5.73751],[4.3922,6.15106]],[[637.72562,386.24567],[-3.90194,-0.20823],[0,0]]],&quot;fillColor&quot;:[0,0,0,1]}]}" fill="#ffffff" stroke-width="0.5"/></g></g></svg>