<svg version="1.1" xmlns="http://www.w3.org/2000/svg" xmlns:xlink="http://www.w3.org/1999/xlink" width="424.55231" height="559.84556" viewBox="0,0,424.55231,559.84556"><g transform="translate(-435.66093,-160.04794)"><g data-paper-data="{&quot;isPaintingLayer&quot;:true}" fill-rule="nonzero" stroke="none" stroke-width="1" stroke-linecap="butt" stroke-linejoin="miter" stroke-miterlimit="10" stroke-dasharray="" stroke-dashoffset="0" style="mix-blend-mode: normal"><path d="M540.37048,451.49727c0.64556,-6.50941 2.37521,-11.9658 5.18896,-16.36919c1.87318,-2.8801 3.64887,-5.81493 5.32708,-8.80448c5.53421,-9.64547 11.54309,-18.75097 18.02664,-27.31652c0.00319,-0.06659 -0.01027,-0.13397 -0.04037,-0.20215c-2.72219,-5.16915 -4.50242,-11.19413 -5.34067,-18.07495c1.49399,-1.93057 3.16233,-3.66925 5.00499,-5.21605c8.06842,-6.82116 17.4206,-12.22937 28.05653,-16.22462c2.6967,0.1292 4.9605,0.58803 6.79139,1.3765c10.6905,4.61658 20.05767,10.38772 28.10149,17.31344c-0.49501,1.27768 -0.93221,2.74165 -1.3116,4.39193c-2.82716,12.34458 -5.80253,24.64869 -8.92614,36.91233c-1.8311,-0.08773 -3.65272,-0.02484 -5.46488,0.18866c-4.19667,0.53306 -8.6533,0.92018 -13.3699,1.16138c-5.02743,6.03252 -9.69272,12.51619 -13.99589,19.451c-5.74972,9.26808 -10.96217,19.16255 -15.63735,29.6834c-0.09988,-0.00479 -0.16726,0.00867 -0.20215,0.04037c-4.69687,3.31209 -11.51829,4.30336 -20.46423,2.97379c0.00319,-0.06659 -0.01106,-0.11732 -0.04276,-0.15221c-5.25783,-3.08827 -9.29698,-7.23602 -12.11746,-12.44325c-0.04364,-2.57151 0.09513,-5.46797 0.41631,-8.68938z" fill-opacity="0.99608" fill="#000000"/><path d="M577.04342,472.02489c-3.15111,14.8567 -8.40148,26.28105 -15.75111,34.27303c-5.50152,5.96671 -11.85265,10.59357 -19.05341,13.88057c-7.04976,3.26704 -15.70635,3.82738 -25.96978,1.68102c-5.94305,-1.24677 -10.94064,-3.56074 -14.99276,-6.9419c-8.05465,-6.68021 -13.47012,-16.03342 -16.24639,-28.05963c-1.3656,-5.95327 -2.22973,-12.49382 -2.59239,-19.62166c-0.33336,-7.12432 0.11534,-15.06884 1.34611,-23.83356c1.38849,-7.10802 3.28406,-13.98377 5.68671,-20.62724c2.23136,-6.20699 4.97767,-11.62848 8.23895,-16.26448c6.58565,-9.30252 15.39788,-14.87173 26.4367,-16.70764c4.18294,-0.6785 8.81886,-0.4266 13.90775,0.75571c8.75569,2.0796 15.94273,5.83716 21.56114,11.27267c7.45515,7.21763 12.91794,16.42417 16.38839,27.61963c1.77804,5.73618 2.81797,12.05027 3.11978,18.94227c0.34912,7.73561 -0.34411,15.61268 -2.0797,23.63122z" fill-opacity="0.99608" fill="#000000"/><path d="M546.76304,410.66817c1.40002,0.80007 2.55415,1.71944 3.4624,2.75812c2.9003,3.25445 5.62673,6.60907 8.17929,10.06385c6.30375,8.51881 10.27072,18.5452 11.90092,30.07917c-0.21602,1.04437 -0.43541,2.10506 -0.65817,3.18206c-0.02025,0.09791 -0.03713,0.1795 -0.05063,0.24477c-3.92063,3.81752 -8.12262,7.18547 -12.60599,10.10384c-0.07202,0.01914 -0.14067,0.02195 -0.20594,0.00845c0.41116,7.06176 -0.37282,14.4719 -2.35194,22.23041c-0.77184,3.07347 -2.22741,5.25679 -4.36669,6.54998c-4.6263,2.78671 -10.49457,3.59787 -17.60481,2.4335c-2.50738,-0.38249 -4.56125,-1.14764 -6.16161,-2.29544c-2.63887,2.72133 -5.63396,4.94356 -8.98526,6.66671c-0.03939,0.02589 -0.06583,0.07147 -0.07933,0.13674c-1.36137,6.25271 -3.12846,12.08117 -5.30127,17.48539c-0.81128,2.11239 -2.0992,3.64974 -3.86375,4.61204c-5.79893,3.19079 -12.73065,4.70088 -20.79516,4.53027c-3.1567,-0.04034 -6.37475,-0.19546 -9.65413,-0.46537c-7.29027,-0.62306 -14.18221,-2.18471 -20.67582,-4.68495c-5.10485,-1.97477 -9.44503,-4.43799 -13.02054,-7.38967c-3.19174,-2.66811 -5.08426,-6.10549 -5.67757,-10.31214c-0.11822,-0.9093 -0.134,-1.49113 -0.04736,-1.74547c0.06527,0.0135 0.13392,0.01068 0.20594,-0.00845c2.1168,-0.85541 4.25949,-1.67143 6.42806,-2.44807c-0.02025,0.09791 -0.05345,0.17613 -0.09958,0.23465c-0.59187,1.54519 -0.79773,3.03408 -0.61759,4.46668c3.65222,6.20066 10.17349,10.45932 19.56383,12.77596c11.16509,2.78583 21.12029,3.68783 29.86559,2.70601c0.86992,-0.09233 1.64137,-0.11994 2.31435,-0.08284c3.4887,0.24514 6.10911,-0.65925 7.86122,-2.71318c1.86352,-2.09895 3.4361,-4.68348 4.71774,-7.7536c1.34803,-3.22655 2.02645,-6.50652 2.03527,-9.83991c-1.94352,0.34673 -3.76773,0.93934 -5.47264,1.77785c-2.68847,1.31572 -5.65834,1.68839 -8.9096,1.118c3.91739,-1.3338 7.73123,-2.82514 11.44153,-4.47404c2.17644,-0.97921 4.24596,-2.09964 6.20856,-3.36131c1.80505,-1.15812 3.60673,-2.29992 5.40503,-3.42541c4.85699,-3.07932 7.1339,-8.41096 6.83075,-15.9949c-0.09791,-0.02025 -0.1795,-0.03713 -0.24477,-0.05063c-3.02733,-0.83036 -5.66921,-1.63205 -7.92565,-2.40507c0.06527,0.0135 0.14686,0.03038 0.24477,0.05063c5.21727,-0.21411 9.99448,-1.09781 14.33162,-2.65108c0.0135,-0.06527 0.04332,-0.12717 0.08946,-0.18569c3.7585,-5.00817 6.66277,-11.31611 8.7128,-18.92382c0.0135,-0.06527 0.03038,-0.14686 0.05063,-0.24477c0.16201,-0.78328 0.58963,-1.20532 1.28287,-1.26613c-0.02025,0.09791 -0.03713,0.1795 -0.05063,0.24477c0.88358,2.80328 1.10715,6.08264 0.67071,9.83807c-0.24408,2.33181 -0.71212,4.43011 -1.40413,6.29491c-0.97781,2.58844 -1.55163,4.86906 -1.72146,6.84187c-0.02025,0.09791 -0.05345,0.17613 -0.09958,0.23465c-1.19617,1.99875 -3.01698,3.06853 -5.46244,3.20934c-0.02025,0.09791 -0.05007,0.15981 -0.08946,0.18569c-0.63019,0.41418 -1.22493,0.90375 -1.78421,1.46873c-0.02025,0.09791 -0.03713,0.1795 -0.05063,0.24477c-0.28905,3.20736 -0.815,6.16152 -1.57786,8.86249c-0.02025,0.09791 -0.01743,0.16656 0.00845,0.20594c0.90038,1.24125 2.11585,2.27541 3.64642,3.10248c1.79161,-0.10589 3.59671,-0.27704 5.41532,-0.51348c5.27239,-0.64514 8.60614,-4.17565 10.00126,-10.59155c0.43767,-1.95144 0.52478,-3.77119 0.26135,-5.45925c-0.68899,-4.56677 -0.12825,-9.33449 1.68222,-14.30316c0.87438,-0.77206 1.82979,-1.44228 2.86624,-2.01066c2.87302,-1.54981 5.70721,-3.15871 8.50257,-4.82668c0.0135,-0.06527 0.03038,-0.14686 0.05063,-0.24477c0.11587,-0.72475 0.26776,-1.45908 0.45566,-2.20296c-2.3718,-11.07477 -6.77541,-20.8001 -13.21082,-29.17597c-2.3072,-2.99564 -4.53563,-6.04306 -6.68529,-9.14225c0.85184,-1.32125 1.76165,-2.51139 2.72942,-3.57043c0.03939,-0.02589 0.06921,-0.08778 0.08946,-0.18569z" fill-opacity="0.99608" fill="#2b2c3f"/><path d="M454.2285,363.19618c0.0135,-0.06527 0.0467,-0.14349 0.09958,-0.23465c0.53563,-0.94423 0.90189,-1.97454 1.09877,-3.09093c1.8151,-2.68752 3.49063,-5.52302 5.02662,-8.5065c2.68825,-5.26357 6.08161,-9.41136 10.18009,-12.44338c8.53119,-6.19909 18.89072,-9.63772 31.0786,-10.31588c2.16863,0.21033 4.40534,0.5028 6.71015,0.87743c7.31281,1.17224 13.36186,3.18916 18.14716,6.05074c10.05902,5.99436 17.20002,13.92061 21.42301,23.77874c4.22974,9.82549 5.62024,21.5311 4.1715,35.11682c-1.42552,6.06928 -3.27479,11.47235 -5.5478,16.20922l0.14686,0.03038c-0.02025,0.09791 -0.05007,0.15981 -0.08946,0.18569c-0.96777,1.05904 -1.87758,2.24918 -2.72942,3.57043c2.14966,3.09919 4.37809,6.1466 6.68529,9.14225c6.43541,8.37588 10.83902,18.1012 13.21082,29.17597c-0.1879,0.74389 -0.33978,1.47821 -0.45566,2.20296c-0.02025,0.09791 -0.03713,0.1795 -0.05063,0.24477c-2.79536,1.66797 -5.62955,3.27687 -8.50257,4.82668c-1.03645,0.56838 -1.99186,1.2386 -2.86624,2.01066c-1.81047,4.96867 -2.37121,9.73639 -1.68222,14.30316c0.26343,1.68806 0.17632,3.50781 -0.26135,5.45925c-1.39512,6.41589 -4.72887,9.94641 -10.00126,10.59155c-1.81861,0.23643 -3.62371,0.40759 -5.41532,0.51348c-1.53057,-0.82707 -2.74604,-1.86123 -3.64642,-3.10248c-0.02589,-0.03939 -0.0287,-0.10804 -0.00845,-0.20594c0.76286,-2.70096 1.28881,-5.65513 1.57786,-8.86249c0.0135,-0.06527 0.03038,-0.14686 0.05063,-0.24477c0.55928,-0.56497 1.15402,-1.05455 1.78421,-1.46873c0.03939,-0.02589 0.06921,-0.08778 0.08946,-0.18569c2.44545,-0.14081 4.26626,-1.21059 5.46244,-3.20934c0.04614,-0.05852 0.07933,-0.13674 0.09958,-0.23465c0.16982,-1.97281 0.74364,-4.25343 1.72146,-6.84187c0.69201,-1.8648 1.16005,-3.9631 1.40413,-6.29491c0.43644,-3.75543 0.21287,-7.03479 -0.67071,-9.83807c0.0135,-0.06527 0.03038,-0.14686 0.05063,-0.24477c-0.69323,0.06081 -1.12086,0.48285 -1.28287,1.26613c-0.02025,0.09791 -0.03713,0.1795 -0.05063,0.24477c-2.05003,7.60771 -4.95429,13.91565 -8.7128,18.92382c-0.04614,0.05852 -0.07596,0.12042 -0.08946,0.18569c-4.33714,1.55327 -9.11435,2.43696 -14.33162,2.65108c-0.09791,-0.02025 -0.1795,-0.03713 -0.24477,-0.05063c2.25644,0.77301 4.89832,1.5747 7.92565,2.40507c0.06527,0.0135 0.14686,0.03038 0.24477,0.05063c0.30315,7.58395 -1.97377,12.91558 -6.83075,15.9949c-1.7983,1.12548 -3.59998,2.26729 -5.40503,3.42541c-1.9626,1.26166 -4.03212,2.3821 -6.20856,3.36131c-3.7103,1.64889 -7.52414,3.14024 -11.44153,4.47404c3.25127,0.57039 6.22113,0.19772 8.9096,-1.118c1.70491,-0.83851 3.52912,-1.43112 5.47264,-1.77785c-0.00882,3.33339 -0.68724,6.61336 -2.03527,9.83991c-1.28164,3.07012 -2.85422,5.65465 -4.71774,7.7536c-1.75211,2.05392 -4.37252,2.95832 -7.86122,2.71318c-0.67298,-0.0371 -1.44443,-0.00949 -2.31435,0.08284c-8.74531,0.98182 -18.7005,0.07982 -29.86559,-2.70601c-9.39033,-2.31664 -15.91161,-6.5753 -19.56383,-12.77596c-0.18014,-1.4326 0.02572,-2.9215 0.61759,-4.46668c0.04614,-0.05852 0.07933,-0.13674 0.09958,-0.23465c-2.16857,0.77664 -4.31126,1.59266 -6.42806,2.44807c-0.07202,0.01914 -0.14067,0.02195 -0.20594,0.00845c0.0135,-0.06527 0.03038,-0.14686 0.05063,-0.24477c0.6254,-5.65622 1.88833,-11.35073 3.78878,-17.08354c-2.48735,-4.42825 -4.51836,-9.1705 -6.09306,-14.22677c-0.02589,-0.03939 -0.07147,-0.06583 -0.13674,-0.07933c2.22671,-7.63923 4.98408,-14.47103 8.27212,-20.49539c0.04614,-0.05852 0.07933,-0.13674 0.09958,-0.23465c-2.33241,-11.10066 -4.89777,-22.06232 -7.69608,-32.88498c-0.76431,-3.05087 -0.99689,-6.45121 -0.69774,-10.20101c0.03487,-0.33312 0.08605,-0.66286 0.15356,-0.98922c5.78749,-6.42627 12.63969,-11.25398 20.55659,-14.48315c0.03264,0.00675 0.05908,-0.03883 0.07933,-0.13674c-2.18145,-8.21068 -3.11884,-17.25309 -2.81216,-27.12723c0.0135,-0.06527 0.03038,-0.14686 0.05063,-0.24477c-0.41194,-0.97006 -0.30734,-1.96941 0.31382,-2.99804c0.04614,-0.05852 0.07933,-0.13674 0.09958,-0.23465M460.69388,364.02297c-0.02025,0.09791 -0.03713,0.1795 -0.05063,0.24477c0.56285,2.87307 1.39804,5.58126 2.50556,8.12457c-0.00675,0.03264 0.03883,0.05908 0.13674,0.07933c0.03158,1.16365 0.22407,2.20743 0.5775,3.13135c0.57178,1.51361 1.13899,1.73303 1.70162,0.65826c0.0135,-0.06527 0.03038,-0.14686 0.05063,-0.24477c2.63648,-5.34235 5.46373,-10.37297 8.48174,-15.09187c-2.17783,-3.78567 -3.72209,-8.00184 -4.63279,-12.6485c-0.02589,-0.03939 -0.07147,-0.06583 -0.13674,-0.07933c-4.1401,3.39777 -7.01798,8.67316 -8.63363,15.82619M491.13173,336.31995c-0.07202,0.01914 -0.14067,0.02195 -0.20594,0.00845c0.82729,2.41728 1.67428,4.82162 2.54096,7.21301c0.01914,0.07202 0.02195,0.14067 0.00845,0.20594c4.49017,-1.96405 9.29435,-3.47176 14.41254,-4.52316c0.03264,0.00675 0.05908,-0.03883 0.07933,-0.13674c-3.85228,-1.61359 -8.37076,-2.80343 -13.55545,-3.56953c-0.09791,-0.02025 -0.1795,-0.03713 -0.24477,-0.05063c-1.04097,0.26115 -2.05267,0.54536 -3.03511,0.85265M487.03651,337.36172c-0.02589,-0.03939 -0.07147,-0.06583 -0.13674,-0.07933c-5.12717,1.4239 -9.67191,3.734 -13.63421,6.93031c-0.04614,0.05852 -0.07596,0.12042 -0.08946,0.18569c0.13283,0.6741 0.17677,1.44892 0.1318,2.32447l0.14686,0.03038c-0.02025,0.09791 -0.03713,0.1795 -0.05063,0.24477c-0.02025,0.09791 -0.02081,0.18288 -0.00167,0.2549c0.2602,4.17178 1.26537,7.86805 3.01552,11.0888c0.0135,-0.06527 0.04332,-0.12717 0.08946,-0.18569c3.93971,-4.73246 8.33242,-8.77565 13.17814,-12.12956c-1.46089,-2.48027 -2.34391,-5.36851 -2.64907,-8.66475M510.31841,336.35771c-0.03939,0.02589 0.07091,0.1508 0.33088,0.37473c0.84409,0.85524 1.68588,1.06339 2.5254,0.62445c-0.61903,-1.28515 -1.57113,-1.61821 -2.85628,-0.99918M504.35487,344.21097c-0.02025,0.09791 -0.0467,0.14349 -0.07933,0.13674c-3.00697,1.04565 -5.88113,2.27192 -8.62249,3.6788c-0.02025,0.09791 -0.01743,0.16656 0.00845,0.20594c1.6995,2.97204 3.85194,5.6464 6.45734,8.02307c0.06527,0.0135 1.07355,-1.24136 3.02482,-3.76458c1.95803,-2.55586 3.57284,-4.60415 4.84444,-6.14487l1.07692,-1.25768c-0.94646,-0.19576 -1.93568,-0.34932 -2.96766,-0.46068l-0.02025,0.09791c-0.09791,-0.02025 -0.1795,-0.03713 -0.24477,-0.05063c-1.16928,-0.10572 -2.32843,-0.2604 -3.47746,-0.46403M491.85667,349.84478c-0.02589,-0.03939 -0.07147,-0.06583 -0.13674,-0.07933c-5.04494,2.83625 -9.4039,6.71625 -13.07688,11.64001c-0.04614,0.05852 -0.07596,0.12042 -0.08946,0.18569c2.47061,6.97724 6.91394,12.64387 13.33,16.99987c0.05852,0.04614 0.13674,0.07933 0.23465,0.09958c2.45974,-6.29779 5.01739,-12.57532 7.67295,-18.8326c0.04614,-0.05852 0.07933,-0.13674 0.09958,-0.23465c-3.29528,-2.82566 -5.97331,-6.08518 -8.0341,-9.77858M504.57536,362.88952c-1.78246,2.69427 -3.30887,5.71376 -4.57925,9.05847c-1.29062,3.44262 -2.6167,6.80984 -3.97823,10.10167c5.32555,4.19851 12.37512,7.13706 21.14871,8.81564c1.27282,0.26327 2.53326,0.42188 3.78132,0.47583c1.41799,0.05506 2.1787,-0.82559 2.28213,-2.64197c0.80086,-7.49173 0.81397,-14.46573 0.03935,-20.92202c-0.01914,-0.07202 -0.01858,-0.15699 0.00167,-0.2549c-6.91437,-0.13691 -13.06805,-1.64796 -18.46105,-4.53315c-0.09116,-0.05289 -0.16938,-0.08608 -0.23465,-0.09958M506.21932,358.89038c-0.05289,0.09116 -0.08608,0.16938 -0.09958,0.23465c2.06966,1.34697 4.49773,2.35968 7.28422,3.03813c3.08022,0.73921 5.88581,0.9962 8.41679,0.77098c0.07202,-0.01914 0.12491,-0.11029 0.15866,-0.27348c-1.7593,-5.80913 -4.10603,-11.2463 -7.04019,-16.31149c-0.02589,-0.03939 -0.0287,-0.10804 -0.00845,-0.20594c-3.10471,3.98628 -6.00853,8.23533 -8.71145,12.74715M476.25974,366.01741c-0.02589,-0.03939 -0.07147,-0.06583 -0.13674,-0.07933c-2.78063,3.40669 -5.01429,7.62419 -6.70096,12.6525c-0.02025,0.09791 -0.03713,0.1795 -0.05063,0.24477l-0.14686,-0.03038c-0.44893,1.67685 -0.9654,3.18658 -1.5494,4.52919c4.41758,8.09464 10.16757,15.3418 17.24997,21.74146c1.0264,0.96102 1.82937,1.11009 2.40891,0.44721c-0.13746,-2.95525 -0.16689,-5.93921 -0.08828,-8.95186l0.14686,0.03038l0.09791,0.02025c0.53998,-3.59788 1.34837,-7.25937 2.42515,-10.98445l0.09791,0.02025c0.25205,-0.56046 0.41914,-1.12147 0.50126,-1.68304c-0.29261,-0.23069 -0.5886,-0.44506 -0.88796,-0.64311c-0.09116,-0.05289 -0.16938,-0.08608 -0.23465,-0.09958c0.0135,-0.06527 0.03038,-0.14686 0.05063,-0.24477c-5.91078,-4.65989 -10.30515,-10.31639 -13.18313,-16.9695M462.22276,385.01412c0.21267,-0.53457 0.47711,-0.99036 0.79332,-1.36739c-0.99042,-1.46407 -1.80022,-3.06094 -2.42941,-4.79063c-0.02589,-0.03939 -0.07147,-0.06583 -0.13674,-0.07933c0.17685,2.92937 0.72447,5.13565 1.64287,6.61886l0.12996,-0.38151M466.55295,389.9937c-0.6977,0.74054 -0.98629,1.88901 -0.86579,3.44541c0.05635,1.37297 0.01871,2.62439 -0.11289,3.75429c3.67157,10.22053 10.83509,18.20249 21.49054,23.94585c0.71014,0.35108 1.37974,0.4045 2.00882,0.16026c0.07877,-0.05177 0.13504,-0.15925 0.16879,-0.32243c-0.87231,-2.52869 -1.39352,-5.27404 -1.56362,-8.23604c-0.01914,-0.07202 -0.01858,-0.15699 0.00167,-0.2549c-4.1416,-3.34103 -8.08626,-6.8115 -11.83399,-10.4114c-3.74773,-3.5999 -6.84557,-7.62691 -9.29353,-12.08104M495.31426,387.67268c-0.06527,-0.0135 -0.1373,0.00563 -0.21607,0.05741c-0.87209,1.41916 -1.39417,3.28507 -1.56622,5.59775c-0.17657,2.00544 -0.26762,3.92648 -0.27315,5.76311c-0.02025,0.09791 -0.03713,0.1795 -0.05063,0.24477c-0.53435,3.73518 -0.65514,7.19856 -0.36236,10.39013c2.06854,1.5169 4.28336,2.65567 6.64446,3.4163c5.13972,1.64165 10.34692,2.46345 15.62159,2.46541c0.0135,-0.06527 0.0467,-0.14349 0.09958,-0.23465c2.44635,-4.25859 4.47233,-9.1997 6.07794,-14.82334c-0.14299,-1.11862 -0.0215,-2.19956 0.36444,-3.24281c0.04614,-0.05852 0.07933,-0.13674 0.09958,-0.23465c0.0135,-0.06527 0.03038,-0.14686 0.05063,-0.24477c0.19917,-0.4693 0.38202,-0.94197 0.54855,-1.41801c-6.11642,0.77686 -12.14854,-0.33469 -18.09636,-3.33463c-2.89232,-1.4831 -5.87298,-2.95043 -8.94198,-4.40201M492.22364,422.35944c0.01239,0.10466 0.01183,0.18963 -0.00167,0.2549c5.75306,1.80255 11.14819,2.37394 16.18537,1.71418c0.03264,0.00675 0.05908,-0.03883 0.07933,-0.13674c1.32114,-1.12208 2.44138,-2.50693 3.36073,-4.15454c0.04614,-0.05852 0.07933,-0.13674 0.09958,-0.23465c-7.29926,-0.25055 -13.74555,-1.99229 -19.33889,-5.22521c-0.09116,-0.05289 -0.16938,-0.08608 -0.23465,-0.09958c-0.34534,2.82136 -0.39527,5.44857 -0.1498,7.88164M460.31635,405.09051c-0.05852,-0.04614 -0.12042,-0.07596 -0.18569,-0.08946c0.32335,6.49908 2.08769,12.03699 5.29304,16.61375c0.02589,0.03939 0.08778,0.06921 0.18569,0.08946c-0.02025,0.09791 -0.02081,0.18288 -0.00167,0.2549c0.10243,0.32748 0.28026,0.61951 0.53348,0.87608c-0.02025,0.09791 -0.01406,0.15024 0.01858,0.15699c1.19411,1.302 2.35557,2.59726 3.48441,3.88576c-0.02025,0.09791 -0.01406,0.15024 0.01858,0.15699c1.4282,1.48655 2.80069,2.99562 4.11747,4.52719c0.06527,0.0135 0.12717,0.04332 0.18569,0.08946c3.35163,4.19862 8.62984,7.14515 15.83465,8.83957c1.87267,0.48944 3.53149,0.69642 4.97648,0.62094c1.61492,-0.07437 3.16739,-0.09358 4.6574,-0.05765c8.80952,0.18857 15.90662,-2.12111 21.29132,-6.92905c-1.22786,-1.13882 -2.66554,-1.18094 -4.31304,-0.12637c-0.34773,0.20034 -0.72473,0.37761 -1.13098,0.53181c-1.14674,0.44347 -2.32556,0.79521 -3.53646,1.05524c-4.66585,-0.14829 -9.38292,-0.46032 -14.15119,-0.93609c-1.90078,-0.18896 -3.78132,-0.47583 -5.6416,-0.8606c-4.75706,-1.18814 -8.67068,-2.91651 -11.74086,-5.18512c-0.05852,-0.04614 -0.12042,-0.07596 -0.18569,-0.08946c-0.76079,-0.59979 -1.59417,-1.09547 -2.50012,-1.48706c-0.09116,-0.05289 -0.16938,-0.08608 -0.23465,-0.09958c0.0135,-0.06527 0.03038,-0.14686 0.05063,-0.24477c-0.42879,-0.39499 -0.84464,-0.77028 -1.24755,-1.12588c-0.03264,-0.00675 -0.03883,-0.05908 -0.01858,-0.15699c0.0135,-0.06527 0.03038,-0.14686 0.05063,-0.24477c-1.56772,-1.14105 -2.93514,-2.42785 -4.10224,-3.8604c-0.05852,-0.04614 -0.12042,-0.07596 -0.18569,-0.08946c0.0135,-0.06527 0.03038,-0.14686 0.05063,-0.24477c-1.1806,-1.36728 -2.26949,-2.76663 -3.26666,-4.19806c-0.05852,-0.04614 -0.12042,-0.07596 -0.18569,-0.08946c0.0135,-0.06527 0.03038,-0.14686 0.05063,-0.24477c-2.84518,-3.68547 -5.56882,-7.46493 -8.17092,-11.33835M519.9676,339.06822c-0.09116,-0.05289 -0.16938,-0.08608 -0.23465,-0.09958c-1.35952,-0.99589 -2.61265,-1.2721 -3.75939,-0.82864c-0.07202,0.01914 -0.05964,0.1238 0.03716,0.31398c0.16887,1.15801 0.88238,1.49277 2.14054,1.00429c0.03939,-0.02589 0.10804,-0.0287 0.20594,-0.00845c0.06527,0.0135 0.14686,0.03038 0.24477,0.05063c1.61832,0.4028 3.18544,0.64185 4.70133,0.71717c-1.26607,-0.29591 -2.37797,-0.67904 -3.3357,-1.14939M520.37639,344.00244c-0.27348,-0.15866 -0.56383,-0.23574 -0.87106,-0.23122c1.88873,6.00607 3.78817,12.3717 5.69832,19.09689c0.01914,0.07202 0.02195,0.14067 0.00845,0.20594c3.81395,0.48258 7.12366,-0.38134 9.92912,-2.59175c0.03939,-0.02589 0.06921,-0.08778 0.08946,-0.18569c-2.83072,-6.88157 -7.78215,-12.31296 -14.85429,-16.29417M529.70139,345.31862c0.02589,0.03939 0.05515,0.06246 0.08778,0.06921c0.22059,0.24982 0.65502,0.78211 1.30328,1.59685c0.08441,0.08552 0.18176,0.19074 0.29205,0.31565c1.2774,1.55746 2.64035,3.52399 4.08885,5.8996c1.55205,2.53315 2.37365,3.82617 2.46481,3.87906c0.59873,0.3961 0.94813,-0.05914 1.04822,-1.36571c0.0135,-0.06527 0.03038,-0.14686 0.05063,-0.24477c-2.43329,-3.70238 -4.76412,-6.58379 -6.99249,-8.64425c-1.00052,-0.92163 -1.68591,-1.55688 -2.05618,-1.90572c-0.11705,-0.09227 -0.25041,-0.18793 -0.40009,-0.28695c-1.20984,-0.89686 -1.17212,-0.66785 0.11314,0.68704M541.21663,360.9732c-0.02589,-0.03939 -0.11085,-0.03994 -0.2549,-0.00167c-0.68983,0.53797 -1.03698,1.14682 -1.04144,1.82656l0.14686,0.03038c-0.02025,0.09791 -0.01743,0.16656 0.00845,0.20594c0.09004,0.22282 0.19978,0.4327 0.32921,0.62963c-0.02025,0.09791 -0.03713,0.1795 -0.05063,0.24477c-0.02025,0.09791 -0.01743,0.16656 0.00845,0.20594c2.01476,5.72584 3.65534,11.6976 4.92174,17.91528c0.0135,-0.06527 0.0467,-0.14349 0.09958,-0.23465c0.6009,-0.93073 1.01779,-2.20581 1.25065,-3.82525c-0.99633,-6.53618 -2.80232,-12.20182 -5.41798,-16.99694M536.86158,364.25844c-0.02589,-0.03939 -0.07147,-0.06583 -0.13674,-0.07933c-3.12736,1.46317 -6.6205,2.39125 -10.47942,2.78422c-0.03939,0.02589 -0.06583,0.07147 -0.07933,0.13674c1.44085,6.52602 1.56958,14.2951 0.38618,23.30725l0.14686,0.03038c2.19674,-0.09015 4.17346,-0.5151 5.93014,-1.27483c0.03939,-0.02589 0.10804,-0.0287 0.20594,-0.00845c0.06527,0.0135 0.13392,0.01068 0.20594,-0.00845c3.3446,-0.70355 6.33974,-1.93883 8.98542,-3.70583c-0.61356,-4.10874 -1.24344,-8.22086 -1.88964,-12.33636c-0.02589,-0.03939 -0.07147,-0.06583 -0.13674,-0.07933c0.0135,-0.06527 0.03038,-0.14686 0.05063,-0.24477c0.0135,-0.06527 0.03038,-0.14686 0.05063,-0.24477c-1.02088,-2.79765 -2.10084,-5.55647 -3.23988,-8.27646M538.33604,408.4657c0.03939,-0.02589 0.10804,-0.0287 0.20594,-0.00845c0.9733,-2.89567 1.85937,-5.94551 2.65821,-9.14952c0.0135,-0.06527 0.03038,-0.14686 0.05063,-0.24477c0.35432,-3.19386 0.57078,-6.29712 0.64939,-9.30978c0.0135,-0.06527 0.03038,-0.14686 0.05063,-0.24477c-4.49575,2.81371 -9.62909,4.67876 -15.40001,5.59514c-0.03939,0.02589 -0.06583,0.07147 -0.07933,0.13674c-1.13626,6.80976 -3.0575,13.21893 -5.76371,19.22751c-0.02025,0.09791 -0.03713,0.1795 -0.05063,0.24477c6.96385,-0.43141 12.85681,-2.5137 17.67887,-6.24687M537.04588,430.25208c0.03264,0.00675 0.05908,-0.03883 0.07933,-0.13674c-1.03198,-0.11136 -1.33023,-0.47934 -0.89474,-1.10395c0.2048,-0.332 0.25936,-0.67806 0.16369,-1.03818c-0.37144,-1.16588 -0.96626,-2.15674 -1.78446,-2.9726c-1.89175,0.4255 -3.63493,1.11996 -5.22954,2.08338c-0.03939,0.02589 -0.06583,0.07147 -0.07933,0.13674c1.86374,1.8489 4.44543,2.85935 7.74506,3.03135M518.57437,419.84612c-0.10466,0.01239 -0.18963,0.01183 -0.2549,-0.00167c-0.85748,1.18395 -1.68232,2.37465 -2.47452,3.57211c-0.05289,0.09116 -0.08608,0.16938 -0.09958,0.23465c6.16931,-0.86801 11.52996,-3.00936 16.08194,-6.42402c0.03939,-0.02589 0.06921,-0.08778 0.08946,-0.18569c-4.14696,1.45648 -8.59443,2.39136 -13.3424,2.80464M514.00613,475.00426c0.03264,0.00675 0.05908,-0.03883 0.07933,-0.13674c-1.28973,-0.67516 -2.25926,-0.84166 -2.90858,-0.49951c-0.03939,0.02589 -0.06583,0.07147 -0.07933,0.13674c1.21319,0.38706 2.18271,0.55357 2.90858,0.49951M473.02596,467.29372l0.03038,-0.14686c-7.44469,-4.97716 -13.96379,-10.56264 -19.5573,-16.75644c-0.05852,-0.04614 -0.12042,-0.07596 -0.18569,-0.08946c0.01696,1.39885 0.34901,2.59061 0.99616,3.57529c0.01914,0.07202 0.02195,0.14067 0.00845,0.20594c-1.96941,0.30734 -3.28212,1.14188 -3.93814,2.50364c-0.03264,-0.00675 -0.08159,-0.01688 -0.14686,-0.03038c2.00555,2.1505 4.60191,3.9127 7.78908,5.28662c3.46739,1.49994 6.66973,2.55369 9.60702,3.16123c0.06868,0.49066 0.43275,0.78718 1.09223,0.88956l-0.02025,0.09791c1.55305,0.3893 2.99469,0.82361 4.32492,1.30295z" fill="#000000"/><path d="M473.05634,467.14686l-0.03038,0.14686c-1.33023,-0.47934 -2.77187,-0.91366 -4.32492,-1.30295l0.02025,-0.09791c-0.65948,-0.10237 -1.02356,-0.39889 -1.09223,-0.88956c-2.93729,-0.60754 -6.13963,-1.66129 -9.60702,-3.16123c-3.18716,-1.37392 -5.78352,-3.13612 -7.78908,-5.28662c0.06527,0.0135 0.11423,0.02363 0.14686,0.03038c0.65602,-1.36175 1.96874,-2.1963 3.93814,-2.50364c0.0135,-0.06527 0.01068,-0.13392 -0.00845,-0.20594c-0.64715,-0.98468 -0.97921,-2.17644 -0.99616,-3.57529c0.06527,0.0135 0.12717,0.04332 0.18569,0.08946c5.5935,6.1938 12.1126,11.77928 19.5573,16.75644z" fill="#2c2d40"/><path d="M514.08546,474.86752c-0.02025,0.09791 -0.0467,0.14349 -0.07933,0.13674c-0.72587,0.05406 -1.6954,-0.11244 -2.90858,-0.49951c0.0135,-0.06527 0.03994,-0.11085 0.07933,-0.13674c0.64933,-0.34215 1.61886,-0.17565 2.90858,0.49951z" fill="#353849"/><path d="M518.31947,419.84445c0.06527,0.0135 0.15024,0.01406 0.2549,0.00167c4.74797,-0.41328 9.19544,-1.34816 13.3424,-2.80464c-0.02025,0.09791 -0.05007,0.15981 -0.08946,0.18569c-4.55199,3.41467 -9.91264,5.55601 -16.08194,6.42402c0.0135,-0.06527 0.0467,-0.14349 0.09958,-0.23465c0.7922,-1.19745 1.61704,-2.38816 2.47452,-3.57211M538.54199,408.45725c-0.09791,-0.02025 -0.16656,-0.01743 -0.20594,0.00845c-4.82206,3.73317 -10.71502,5.81546 -17.67887,6.24687c0.0135,-0.06527 0.03038,-0.14686 0.05063,-0.24477c2.70621,-6.00858 4.62745,-12.41775 5.76371,-19.22751c0.0135,-0.06527 0.03994,-0.11085 0.07933,-0.13674c5.77092,-0.91638 10.90425,-2.78143 15.40001,-5.59514c-0.02025,0.09791 -0.03713,0.1795 -0.05063,0.24477c-0.07861,3.01266 -0.29507,6.11592 -0.64939,9.30978c-0.02025,0.09791 -0.03713,0.1795 -0.05063,0.24477c-0.79884,3.20401 -1.68491,6.25385 -2.65821,9.14952M540.0002,373.02445c0.06527,0.0135 0.11085,0.03994 0.13674,0.07933c0.6462,4.11549 1.27608,8.22761 1.88964,12.33636c-2.64568,1.767 -5.64082,3.00228 -8.98542,3.70583c-0.07202,0.01914 -0.14067,0.02195 -0.20594,0.00845c0.0135,-0.06527 0.0467,-0.14349 0.09958,-0.23465c2.84022,-4.51745 5.19535,-9.81589 7.0654,-15.89532M540.96173,360.97153c0.14405,-0.03827 0.22901,-0.03771 0.2549,0.00167c2.61566,4.79512 4.42165,10.46076 5.41798,16.99694c-0.23286,1.61944 -0.64975,2.89452 -1.25065,3.82525c-0.05289,0.09116 -0.08608,0.16938 -0.09958,0.23465c-1.2664,-6.21768 -2.90698,-12.18944 -4.92174,-17.91528c-0.02589,-0.03939 -0.0287,-0.10804 -0.00845,-0.20594c0.06527,0.0135 0.14686,0.03038 0.24477,0.05063c0.33312,0.03487 0.54693,-0.17615 0.64143,-0.63306c-0.18126,-1.26267 -0.53914,-1.50686 -1.07366,-0.73257c-0.05289,0.09116 -0.08608,0.16938 -0.09958,0.23465l-0.14686,-0.03038c0.00446,-0.67973 0.35161,-1.28858 1.04144,-1.82656M492.22197,422.61434c0.0135,-0.06527 0.01406,-0.15024 0.00167,-0.2549c-0.24547,-2.43307 -0.19554,-5.06028 0.1498,-7.88164c0.06527,0.0135 0.14349,0.0467 0.23465,0.09958c5.59334,3.23292 12.03964,4.97465 19.33889,5.22521c-0.02025,0.09791 -0.05345,0.17613 -0.09958,0.23465c-0.91935,1.64761 -2.03959,3.03246 -3.36073,4.15454c-0.02025,0.09791 -0.0467,0.14349 -0.07933,0.13674c-5.03718,0.65976 -10.43231,0.08836 -16.18537,-1.71418M493.25882,399.09094c0.06527,0.0135 0.14686,0.03038 0.24477,0.05063c11.3868,2.86572 20.80341,2.1759 28.24984,-2.06947c-0.02025,0.09791 -0.05345,0.17613 -0.09958,0.23465c-0.38595,1.04325 -0.50743,2.12419 -0.36444,3.24281c-1.60561,5.62363 -3.63159,10.56475 -6.07794,14.82334c-0.05289,0.09116 -0.08608,0.16938 -0.09958,0.23465c-5.27468,-0.00196 -10.48187,-0.82376 -15.62159,-2.46541c-2.3611,-0.76063 -4.57592,-1.89939 -6.64446,-3.4163c-0.29278,-3.19157 -0.17199,-6.65495 0.36236,-10.39013c0.0135,-0.06527 0.03038,-0.14686 0.05063,-0.24477M465.68716,393.43911c-0.1205,-1.5564 0.16809,-2.70487 0.86579,-3.44541c2.44796,4.45413 5.5458,8.48115 9.29353,12.08104c3.74773,3.5999 7.69239,7.07036 11.83399,10.4114c-0.02025,0.09791 -0.02081,0.18288 -0.00167,0.2549c0.1701,2.962 0.6913,5.70735 1.56362,8.23604c-0.03375,0.16318 -0.09002,0.27066 -0.16879,0.32243c-0.62908,0.24424 -1.29868,0.19082 -2.00882,-0.16026c-10.65546,-5.74337 -17.81897,-13.72532 -21.49054,-23.94585c0.13161,-1.12989 0.16924,-2.38132 0.11289,-3.75429M463.01608,383.64673c-0.31621,0.37702 -0.58065,0.83282 -0.79332,1.36739l-0.12996,0.38151c-0.9184,-1.48321 -1.46602,-3.68949 -1.64287,-6.61886c0.06527,0.0135 0.11085,0.03994 0.13674,0.07933c0.62919,1.72968 1.43899,3.32656 2.42941,4.79063M469.37142,378.83536c-0.03375,0.16318 -0.0675,0.32637 -0.10126,0.48955c-0.0675,0.32637 -0.03654,0.58802 0.09289,0.78495c4.65156,6.30527 10.6783,11.72084 18.0802,16.24673c-0.02025,0.09791 -0.03713,0.1795 -0.05063,0.24477l-0.14686,-0.03038c-0.07861,3.01266 -0.04918,5.99661 0.08828,8.95186c-0.57954,0.66288 -1.38251,0.51381 -2.40891,-0.44721c-7.0824,-6.39967 -12.83239,-13.64682 -17.24997,-21.74146c0.584,-1.34262 1.10047,-2.85235 1.5494,-4.52919l0.14686,0.03038M463.47124,372.56111c0.77658,1.18161 1.47439,2.41499 2.09342,3.70015c-0.56263,1.07477 -1.12984,0.85535 -1.70162,-0.65826c-0.35342,-0.92392 -0.54592,-1.9677 -0.5775,-3.13135c0.06527,0.0135 0.12717,0.04332 0.18569,0.08946z" fill="#343444"/><path d="M537.12521,430.11534c-0.02025,0.09791 -0.0467,0.14349 -0.07933,0.13674c-3.29964,-0.172 -5.88132,-1.18245 -7.74506,-3.03135c0.0135,-0.06527 0.03994,-0.11085 0.07933,-0.13674c1.59462,-0.96342 3.3378,-1.65788 5.22954,-2.08338c0.8182,0.81586 1.41302,1.80673 1.78446,2.9726c0.09568,0.36012 0.04112,0.70618 -0.16369,1.03818c-0.43549,0.62461 -0.13724,0.9926 0.89474,1.10395z" fill="#2c2c3f"/><path d="M536.72484,364.17911c0.06527,0.0135 0.11085,0.03994 0.13674,0.07933c1.13904,2.71999 2.219,5.47881 3.23988,8.27646c-0.02025,0.09791 -0.03713,0.1795 -0.05063,0.24477c-0.02025,0.09791 -0.03713,0.1795 -0.05063,0.24477c-1.87005,6.07943 -4.22518,11.37787 -7.0654,15.89532c-0.05289,0.09116 -0.08608,0.16938 -0.09958,0.23465c-0.09791,-0.02025 -0.16656,-0.01743 -0.20594,0.00845c-1.75668,0.75973 -3.7334,1.18467 -5.93014,1.27483l-0.14686,-0.03038c1.1834,-9.01214 1.05468,-16.78122 -0.38618,-23.30725c0.0135,-0.06527 0.03994,-0.11085 0.07933,-0.13674c3.85892,-0.39297 7.35206,-1.32105 10.47942,-2.78422M499.43445,441.05449c-1.49001,-0.03593 -3.04248,-0.01671 -4.6574,0.05765c-1.44499,0.07548 -3.10382,-0.1315 -4.97648,-0.62094c0.0135,-0.06527 0.03038,-0.14686 0.05063,-0.24477c0.86194,-1.86368 1.56237,-4.01602 2.1013,-6.45701c1.86028,0.38478 3.74081,0.67165 5.6416,0.8606c4.76828,0.47577 9.48534,0.7878 14.15119,0.93609c1.2109,-0.26003 2.38972,-0.61178 3.53646,-1.05524c0.40626,-0.1542 0.78325,-0.33147 1.13098,-0.53181c1.6475,-1.05458 3.08518,-1.01245 4.31304,0.12637c-5.3847,4.80794 -12.4818,7.11762 -21.29132,6.92905M460.13066,405.00105c0.06527,0.0135 0.12717,0.04332 0.18569,0.08946c2.6021,3.87343 5.32574,7.65288 8.17092,11.33835c-0.02025,0.09791 -0.03713,0.1795 -0.05063,0.24477c-0.64252,1.29648 -1.17531,2.80283 -1.59836,4.51907l-0.09791,-0.02025c0.0135,-0.06527 0.03038,-0.14686 0.05063,-0.24477c-0.21155,0.36464 -0.53677,0.62068 -0.97567,0.76813c-0.07202,0.01914 -0.14067,0.02195 -0.20594,0.00845c-0.09791,-0.02025 -0.15981,-0.05007 -0.18569,-0.08946c-3.20535,-4.57676 -4.9697,-10.11468 -5.29304,-16.61375M495.09819,387.73009c0.07877,-0.05177 0.1508,-0.07091 0.21607,-0.05741c3.069,1.45157 6.04966,2.91891 8.94198,4.40201c5.94782,2.99994 11.97994,4.11149 18.09636,3.33463c-0.16653,0.47605 -0.34938,0.94872 -0.54855,1.41801c-0.02025,0.09791 -0.03713,0.1795 -0.05063,0.24477c-7.44643,4.24536 -16.86304,4.93519 -28.24984,2.06947c-0.09791,-0.02025 -0.1795,-0.03713 -0.24477,-0.05063c0.00552,-1.83663 0.09657,-3.75766 0.27315,-5.76311c0.17206,-2.31267 0.69413,-4.17859 1.56622,-5.59775M506.11974,359.12502c0.0135,-0.06527 0.0467,-0.14349 0.09958,-0.23465c2.70292,-4.51182 5.60674,-8.76086 8.71145,-12.74715c-0.02025,0.09791 -0.01743,0.16656 0.00845,0.20594c2.93416,5.06519 5.28089,10.50235 7.04019,16.31149c-0.03375,0.16318 -0.08664,0.25434 -0.15866,0.27348c-2.53098,0.22522 -5.33657,-0.03178 -8.41679,-0.77098c-2.78649,-0.67845 -5.21456,-1.69116 -7.28422,-3.03813M504.27554,344.34771c0.03264,0.00675 0.05908,-0.03883 0.07933,-0.13674c1.14903,0.20363 2.30818,0.35831 3.47746,0.46403c0.06527,0.0135 0.14686,0.03038 0.24477,0.05063l0.02025,-0.09791c1.03198,0.11136 2.0212,0.26492 2.96766,0.46068l-1.07692,1.25768c-1.2716,1.54072 -2.88641,3.58901 -4.84444,6.14487c-1.95128,2.52322 -2.95955,3.77808 -3.02482,3.76458c-2.6054,-2.37667 -4.75784,-5.05102 -6.45734,-8.02307c-0.02589,-0.03939 -0.0287,-0.10804 -0.00845,-0.20594c2.74136,-1.40688 5.61552,-2.63315 8.62249,-3.6788z" fill="#475c81"/><path d="M540.35419,363.90882c0.0135,-0.06527 0.03038,-0.14686 0.05063,-0.24477c-0.12943,-0.19694 -0.23917,-0.40681 -0.32921,-0.62963c-0.02589,-0.03939 -0.0287,-0.10804 -0.00845,-0.20594c0.0135,-0.06527 0.0467,-0.14349 0.09958,-0.23465c0.53451,-0.77429 0.8924,-0.53011 1.07366,0.73257c-0.09451,0.45691 -0.30832,0.66793 -0.64143,0.63306c-0.09791,-0.02025 -0.1795,-0.03713 -0.24477,-0.05063z" fill="#425574"/><path d="M529.90901,345.05527l0.04895,0.01013c-0.27911,-0.29596 -0.40235,-0.44057 -0.36971,-0.43382c0.14968,0.09903 0.28304,0.19468 0.40009,0.28695c0.37027,0.34885 1.05567,0.98409 2.05618,1.90572c2.22838,2.06045 4.55921,4.94187 6.99249,8.64425c-0.02025,0.09791 -0.03713,0.1795 -0.05063,0.24477c-0.10009,1.30658 -0.44949,1.76181 -1.04822,1.36571c-0.09116,-0.05289 -0.91276,-1.34591 -2.46481,-3.87906c-1.4485,-2.37561 -2.81145,-4.34214 -4.08885,-5.8996l-1.29316,-1.6458l-0.11649,-0.17724c-0.03264,-0.00675 -0.13674,-0.07933 -0.31231,-0.21774l0.24477,0.05063c-0.05177,-0.07877 -0.10692,-0.14123 -0.16544,-0.18737c-0.6809,-0.82149 -0.6252,-0.844 0.16712,-0.06753z" fill="#415476"/><path d="M529.95797,345.0654l-0.04895,-0.01013c-0.79231,-0.77647 -0.84802,-0.75396 -0.16712,0.06753c0.05852,0.04614 0.11367,0.10859 0.16544,0.18737l-0.24477,-0.05063c0.17557,0.13841 0.27967,0.21099 0.31231,0.21774l0.11649,0.17724l1.29316,1.6458c-0.11029,-0.12491 -0.20765,-0.23013 -0.29205,-0.31565c-0.64827,-0.81474 -1.08269,-1.34702 -1.30328,-1.59685c-0.03264,-0.00675 -0.0619,-0.02982 -0.08778,-0.06921c-1.28526,-1.35489 -1.32298,-1.5839 -0.11314,-0.68704c-0.03264,-0.00675 0.0906,0.13785 0.36971,0.43382z" fill="#415370"/><path d="M519.50533,343.77123c0.30723,-0.00452 0.59758,0.07255 0.87106,0.23122c7.07214,3.98122 12.02357,9.41261 14.85429,16.29417c-0.02025,0.09791 -0.05007,0.15981 -0.08946,0.18569c-2.80546,2.21041 -6.11517,3.07433 -9.92912,2.59175c0.0135,-0.06527 0.01068,-0.13392 -0.00845,-0.20594c-1.91015,-6.72519 -3.80959,-13.09082 -5.69832,-19.09689z" fill="#465c81"/><path d="M519.73295,338.96864c0.06527,0.0135 0.14349,0.0467 0.23465,0.09958c0.95773,0.47036 2.06963,0.85349 3.3357,1.14939c-1.5159,-0.07532 -3.08301,-0.31437 -4.70133,-0.71717c-0.09791,-0.02025 -0.1795,-0.03713 -0.24477,-0.05063c-0.09791,-0.02025 -0.16656,-0.01743 -0.20594,0.00845c-1.25815,0.48849 -1.97166,0.15372 -2.14054,-1.00429c-0.09679,-0.19018 -0.10918,-0.29484 -0.03716,-0.31398c1.14674,-0.44347 2.39987,-0.16725 3.75939,0.82864M510.64929,336.73244c-0.25998,-0.22394 -0.37027,-0.34885 -0.33088,-0.37473c1.28515,-0.61903 2.23725,-0.28597 2.85628,0.99918c-0.83951,0.43895 -1.68131,0.2308 -2.5254,-0.62445z" fill="#435878"/><path d="M476.07567,425.40057c-0.02025,0.09791 -0.01406,0.15024 0.01858,0.15699c0.40291,0.3556 0.81876,0.73089 1.24755,1.12588c-0.02025,0.09791 -0.03713,0.1795 -0.05063,0.24477c-0.02025,0.09791 -0.01406,0.15024 0.01858,0.15699c0.91611,0.83611 1.82151,1.31266 2.71619,1.42965c0.06527,0.0135 0.12717,0.04332 0.18569,0.08946c3.07017,2.2686 6.98379,3.99698 11.74086,5.18512c-0.53892,2.44099 -1.23935,4.59332 -2.1013,6.45701c-0.02025,0.09791 -0.03713,0.1795 -0.05063,0.24477c-7.2048,-1.69443 -12.48302,-4.64095 -15.83465,-8.83957c-0.05852,-0.04614 -0.12042,-0.07596 -0.18569,-0.08946c0.0135,-0.06527 0.03038,-0.14686 0.05063,-0.24477c0.85519,-1.83105 1.60346,-3.80332 2.24481,-5.91683M466.74037,421.17246l0.09791,0.02025c0.42305,-1.71623 0.95583,-3.22259 1.59836,-4.51907c0.06527,0.0135 0.12717,0.04332 0.18569,0.08946c0.99717,1.43143 2.08606,2.83079 3.26666,4.19806c-0.02025,0.09791 -0.03713,0.1795 -0.05063,0.24477c-0.93173,1.54295 -1.63049,3.44039 -2.09627,5.69231l-0.09791,-0.02025c-1.12883,-1.2885 -2.2903,-2.58375 -3.48441,-3.88576c-0.03264,-0.00675 -0.03883,-0.05908 -0.01858,-0.15699c0.0135,-0.06527 0.04332,-0.12717 0.08946,-0.18569c0.30271,-0.31175 0.47262,-0.80411 0.50972,-1.4771M473.45478,346.75324c0.31393,-1.02412 0.79611,-1.79222 1.44655,-2.3043c0.11816,-0.07766 0.25264,-0.15194 0.40344,-0.22285c3.03509,-1.34613 6.35154,-2.24268 9.94937,-2.68966c-3.10142,2.48952 -6.1415,5.09383 -9.12024,7.81292c-0.13166,0.14293 -0.36068,0.18064 -0.68704,0.11314c-1.40337,-0.29027 -2.05164,-1.10501 -1.9448,-2.44423l-0.09791,-0.02025c0.0135,-0.06527 0.03038,-0.14686 0.05063,-0.24477M497.23091,339.16402c-0.02025,0.09791 -0.03713,0.1795 -0.05063,0.24477c-1.36047,2.13493 -2.69687,2.09674 -4.00919,-0.11457c-0.02589,-0.03939 -0.0287,-0.10804 -0.00845,-0.20594c-0.31627,-0.60994 -0.21501,-1.09949 0.30377,-1.46864c1.78592,-1.23014 3.09138,-0.96012 3.91638,0.81006c-0.08664,0.25434 -0.13727,0.49912 -0.15189,0.73432M465.00651,356.74713c0.06527,0.0135 0.1176,0.00731 0.15699,-0.01858c1.47634,-2.85968 3.35682,-3.55978 5.64143,-2.10028c-0.02025,0.09791 -0.03713,0.1795 -0.05063,0.24477c-0.02025,0.09791 -0.03713,0.1795 -0.05063,0.24477l0.09791,0.02025c-0.14064,0.51543 -0.0776,0.8688 0.18912,1.0601c-0.26332,0.28586 -0.49513,0.74841 -0.69541,1.38764l-0.09791,-0.02025c-1.34926,1.42256 -2.50437,3.14052 -3.46533,5.15389c-0.03264,-0.00675 -0.08159,-0.01688 -0.14686,-0.03038c-0.53892,2.44099 -1.51453,4.19608 -2.92683,5.26527c-0.12491,0.11029 -0.04558,-0.02644 0.238,-0.41022c0.13841,-0.17557 0.24137,-0.42653 0.30888,-0.7529c0.0135,-0.06527 0.03038,-0.14686 0.05063,-0.24477c0.23052,-3.2535 0.48074,-6.51994 0.75065,-9.79932z" fill="#8fbbbe"/><path d="M477.29117,426.92821c0.06527,0.0135 0.14349,0.0467 0.23465,0.09958c0.90596,0.39158 1.73933,0.88727 2.50012,1.48706c-0.89469,-0.11699 -1.80008,-0.59354 -2.71619,-1.42965c-0.03264,-0.00675 -0.03883,-0.05908 -0.01858,-0.15699z" fill="#94c3c7"/><path d="M466.791,420.92768c-0.02025,0.09791 -0.03713,0.1795 -0.05063,0.24477c-0.0371,0.67298 -0.20701,1.16535 -0.50972,1.4771c-0.04614,0.05852 -0.07596,0.12042 -0.08946,0.18569c-0.25323,-0.25657 -0.43105,-0.5486 -0.53348,-0.87608c-0.01914,-0.07202 -0.01858,-0.15699 0.00167,-0.2549c0.06527,0.0135 0.13392,0.01068 0.20594,-0.00845c0.43889,-0.14745 0.76411,-0.40349 0.97567,-0.76813M471.83837,421.20593c0.06527,0.0135 0.12717,0.04332 0.18569,0.08946c1.1671,1.43255 2.53452,2.71935 4.10224,3.8604c-0.02025,0.09791 -0.03713,0.1795 -0.05063,0.24477c-0.64135,2.11351 -1.38962,4.08578 -2.24481,5.91683c-0.02025,0.09791 -0.03713,0.1795 -0.05063,0.24477c-1.31678,-1.53157 -2.68927,-3.04064 -4.11747,-4.52719c-0.03264,-0.00675 -0.03883,-0.05908 -0.01858,-0.15699l0.09791,0.02025c0.46578,-2.25192 1.16454,-4.14936 2.09627,-5.69231M486.89978,337.28239c0.06527,0.0135 0.11085,0.03994 0.13674,0.07933c0.30516,3.29623 1.18819,6.18448 2.64907,8.66475c-4.84572,3.35391 -9.23843,7.3971 -13.17814,12.12956c-0.04614,0.05852 -0.07596,0.12042 -0.08946,0.18569c-1.75015,-3.22075 -2.75533,-6.91702 -3.01552,-11.0888c-0.01914,-0.07202 -0.01858,-0.15699 0.00167,-0.2549l0.09791,0.02025c-0.10684,1.33921 0.54143,2.15396 1.9448,2.44423c0.32637,0.0675 0.55538,0.02979 0.68704,-0.11314c2.97874,-2.71909 6.01882,-5.3234 9.12024,-7.81292c-3.59783,0.44698 -6.91429,1.34353 -9.94937,2.68966c-0.1508,0.07091 -0.28528,0.14519 -0.40344,0.22285c-0.65044,0.51209 -1.13263,1.28019 -1.44655,2.3043l-0.14686,-0.03038c0.04497,-0.87555 0.00103,-1.65038 -0.1318,-2.32447c0.0135,-0.06527 0.04332,-0.12717 0.08946,-0.18569c3.9623,-3.19631 8.50703,-5.50642 13.63421,-6.93031z" fill="#475d81"/><path d="M489.62689,383.33127c0.29936,0.19805 0.59535,0.41242 0.88796,0.64311c-0.08212,0.56157 -0.24921,1.12258 -0.50126,1.68304l-0.09791,-0.02025c0.0135,-0.06527 0.03038,-0.14686 0.05063,-0.24477c0.04837,-0.39839 0.13275,-0.80635 0.25314,-1.22387c-0.29261,-0.23069 -0.56553,-0.47432 -0.81876,-0.73089c-0.02589,-0.03939 -0.0287,-0.10804 -0.00845,-0.20594c0.06527,0.0135 0.14349,0.0467 0.23465,0.09958z" fill="#364461"/><path d="M476.123,365.93808c0.06527,0.0135 0.11085,0.03994 0.13674,0.07933c2.87798,6.65311 7.27235,12.30961 13.18313,16.9695c-0.02025,0.09791 -0.03713,0.1795 -0.05063,0.24477c-0.02025,0.09791 -0.01743,0.16656 0.00845,0.20594c0.25323,0.25657 0.52614,0.5002 0.81876,0.73089c-0.12039,0.41752 -0.20477,0.82548 -0.25314,1.22387c-0.02025,0.09791 -0.03713,0.1795 -0.05063,0.24477c-1.07679,3.72508 -1.88517,7.38656 -2.42515,10.98445l-0.09791,-0.02025c0.0135,-0.06527 0.03038,-0.14686 0.05063,-0.24477c-7.4019,-4.52588 -13.42864,-9.94146 -18.0802,-16.24673c-0.12943,-0.19694 -0.16039,-0.45859 -0.09289,-0.78495c0.03375,-0.16318 0.0675,-0.32637 0.10126,-0.48955c0.0135,-0.06527 0.03038,-0.14686 0.05063,-0.24477c1.68667,-5.02831 3.92032,-9.24581 6.70096,-12.6525M499.99611,371.94799c1.27037,-3.34471 2.79679,-6.3642 4.57925,-9.05847c0.06527,0.0135 0.14349,0.0467 0.23465,0.09958c5.393,2.88518 11.54669,4.39623 18.46105,4.53315c-0.02025,0.09791 -0.02081,0.18288 -0.00167,0.2549c0.77462,6.45629 0.76151,13.43029 -0.03935,20.92202c-0.10343,1.81638 -0.86414,2.69703 -2.28213,2.64197c-1.24805,-0.05395 -2.50849,-0.21256 -3.78132,-0.47583c-8.77359,-1.67858 -15.82316,-4.61713 -21.14871,-8.81564c1.36153,-3.29182 2.68761,-6.65905 3.97823,-10.10167M491.71993,349.76544c0.06527,0.0135 0.11085,0.03994 0.13674,0.07933c2.06078,3.6934 4.73882,6.95292 8.0341,9.77858c-0.02025,0.09791 -0.05345,0.17613 -0.09958,0.23465c-2.65556,6.25728 -5.21321,12.53482 -7.67295,18.8326c-0.09791,-0.02025 -0.17613,-0.05345 -0.23465,-0.09958c-6.41606,-4.356 -10.85939,-10.02263 -13.33,-16.99987c0.0135,-0.06527 0.04332,-0.12717 0.08946,-0.18569c3.67298,-4.92376 8.03194,-8.80376 13.07688,-11.64001z" fill="#475d82"/><path d="M490.92578,336.3284c0.06527,0.0135 0.13392,0.01068 0.20594,-0.00845c0.98244,-0.30728 1.99415,-0.5915 3.03511,-0.85265c0.06527,0.0135 0.14686,0.03038 0.24477,0.05063c5.18469,0.7661 9.70317,1.95594 13.55545,3.56953c-0.02025,0.09791 -0.0467,0.14349 -0.07933,0.13674c-5.11819,1.05139 -9.92237,2.55911 -14.41254,4.52316c0.0135,-0.06527 0.01068,-0.13392 -0.00845,-0.20594c-0.86668,-2.39139 -1.71366,-4.79573 -2.54096,-7.21301M497.18028,339.40879c0.0135,-0.06527 0.03038,-0.14686 0.05063,-0.24477c0.01462,-0.23521 0.06525,-0.47998 0.15189,-0.73432c-0.82501,-1.77018 -2.13047,-2.0402 -3.91638,-0.81006c-0.51878,0.36915 -0.62004,0.8587 -0.30377,1.46864c-0.02025,0.09791 -0.01743,0.16656 0.00845,0.20594c1.31232,2.21131 2.64872,2.2495 4.00919,0.11457z" fill="#455a7e"/><path d="M460.64325,364.26775c0.0135,-0.06527 0.03038,-0.14686 0.05063,-0.24477c1.61565,-7.15303 4.49353,-12.42843 8.63363,-15.82619c0.06527,0.0135 0.11085,0.03994 0.13674,0.07933c0.91069,4.64666 2.45496,8.86283 4.63279,12.6485c-3.01802,4.7189 -5.84527,9.74953 -8.48174,15.09187c-0.02025,0.09791 -0.03713,0.1795 -0.05063,0.24477c-0.61903,-1.28515 -1.31684,-2.51854 -2.09342,-3.70015c-0.05852,-0.04614 -0.12042,-0.07596 -0.18569,-0.08946c-0.09791,-0.02025 -0.14349,-0.0467 -0.13674,-0.07933c-1.10752,-2.54331 -1.94271,-5.2515 -2.50556,-8.12457M465.1635,356.72855c-0.03939,0.02589 -0.09172,0.03208 -0.15699,0.01858c-0.26991,3.27938 -0.52013,6.54583 -0.75065,9.79932c-0.02025,0.09791 -0.03713,0.1795 -0.05063,0.24477c-0.0675,0.32637 -0.17046,0.57733 -0.30888,0.7529c-0.28358,0.38377 -0.36291,0.52051 -0.238,0.41022c1.4123,-1.06919 2.38791,-2.82428 2.92683,-5.26527c0.06527,0.0135 0.11423,0.02363 0.14686,0.03038c0.96097,-2.01337 2.11608,-3.73133 3.46533,-5.15389l0.09791,0.02025c0.20028,-0.63923 0.43209,-1.10178 0.69541,-1.38764c-0.26673,-0.1913 -0.32977,-0.54467 -0.18912,-1.0601l-0.09791,-0.02025c0.0135,-0.06527 0.03038,-0.14686 0.05063,-0.24477c0.0135,-0.06527 0.03038,-0.14686 0.05063,-0.24477c-2.28461,-1.4595 -4.16509,-0.7594 -5.64143,2.10028z" fill="#475c80"/><path d="M678.86414,616.19563c0.50122,3.10192 1.15281,6.22034 1.95476,9.35526c1.03586,4.0919 0.86878,7.9198 -0.50122,11.48371c-2.10513,5.54386 -3.07415,11.8137 -2.90708,18.80952c0,0.099 0.01671,0.165 0.05012,0.19799c0.63488,0.52799 1.37,0.95698 2.20537,1.28697c5.14587,6.86383 10.8932,13.15017 17.24199,18.85902c3.94294,3.53091 8.11978,6.83083 12.53052,9.89975c3.27464,2.27694 6.53258,4.55388 9.7738,6.83083c8.75465,6.20384 18.22773,11.61571 28.41921,16.23559c1.37,0.62698 2.79013,1.05597 4.26038,1.28697c5.11245,0.92398 10.35856,1.03947 15.73833,0.34649c13.46613,-1.68296 26.5814,-3.33292 39.34583,-4.94987c0,0.099 0,0.1815 0,0.24749c-10.39198,4.52089 -21.26847,8.49729 -32.62947,11.9292c-5.84757,1.74896 -12.74771,2.27694 -20.70042,1.58396c-1.93805,-0.19799 -3.79257,-0.57749 -5.56355,-1.13847c-11.32759,-3.56391 -21.38542,-8.38179 -30.17349,-14.45363c-8.82148,-6.07185 -17.12504,-12.65518 -24.91067,-19.75c-5.6805,-5.11487 -11.3443,-10.22974 -16.99138,-15.34461c-1.90464,-1.71596 -3.94294,-3.26692 -6.11489,-4.65288c-0.83537,-4.71888 -0.70171,-9.65226 0.40098,-14.80013c2.80684,-12.86967 2.97391,-26.00334 0.50122,-39.401c-1.16951,-6.36884 -2.20537,-12.86967 -3.10757,-19.50251c-1.63732,-12.47368 -3.32476,-24.94737 -5.06233,-37.42105c1.80439,-1.22097 3.6422,-2.35944 5.51343,-3.41541c0.06683,-0.033 0.15037,-0.0495 0.25061,-0.0495c1.47025,9.33876 2.94049,18.74353 4.41074,28.21429c1.93805,12.73768 3.95964,25.50836 6.06477,38.31203z" fill-opacity="0.99608" fill="#2b2c40"/><path d="M727.03145,469.72883c0.13366,0.59398 0.25061,1.18797 0.35085,1.78195c1.70415,8.34879 3.34147,16.74708 4.91196,25.19486c0.06683,0 0.13366,0.0165 0.20049,0.0495c0.50122,0.49499 1.01915,0.97348 1.55378,1.43546c0.06683,0 0.15037,0 0.25061,0c6.08148,0.82498 11.84552,1.97995 17.29211,3.46491c0.36756,2.07895 0.51793,4.0589 0.4511,5.93985c-0.30073,6.30284 0.51793,11.9292 2.45598,16.87907c4.14342,10.69173 11.77869,17.93505 22.90579,21.72995c0.56805,2.73893 1.23634,5.37886 2.00488,7.9198c3.47513,11.31871 6.91685,22.75292 10.32515,34.30263c3.34147,11.31871 6.74977,22.65393 10.2249,34.00564c0,0.099 0.01671,0.1485 0.05012,0.1485c1.70415,1.22097 3.27464,2.57393 4.71147,4.0589c0,0.099 0,0.1815 0,0.24749c-2.84025,-1.15497 -5.61367,-2.37594 -8.32026,-3.66291c-0.06683,-0.033 -0.13366,-0.0495 -0.20049,-0.0495c-3.87611,-5.41186 -6.63282,-11.9952 -8.27014,-19.75c-1.30317,-6.00585 -2.7233,-11.9622 -4.26038,-17.86905c-3.07415,-11.7147 -6.41562,-23.18191 -10.02441,-34.40163c-9.59002,-5.31287 -17.12504,-12.60568 -22.60505,-21.87845c-3.4083,-5.77485 -5.06233,-13.24917 -4.96208,-22.42293c-5.84757,-2.07895 -12.0293,-3.7949 -18.54517,-5.14787c-0.10024,-0.033 -0.18378,-0.0495 -0.25061,-0.0495c-1.77098,-8.97577 -3.15769,-18.29804 -4.16013,-27.96679h0.15037c0.60146,1.97995 1.53708,3.61341 2.80684,4.90038c0.03341,0.033 0.10024,0.0495 0.20049,0.0495c0.86878,-2.54094 1.06927,-5.51086 0.60146,-8.90977z" fill-opacity="0.99216" fill="#2b2c3f"/><path d="M491.05674,640.05402c-2.00488,1.28697 -3.99306,2.57393 -5.96453,3.8609c-2.33903,1.55096 -3.92623,3.9269 -4.7616,7.12782c-0.9022,3.56391 -1.55378,7.39181 -1.95476,11.48371c-0.53464,5.34586 0.53464,9.56976 3.20781,12.67168c1.73757,2.01295 3.57537,3.9269 5.51343,5.74185c7.68538,7.19382 16.77419,12.91917 27.26641,17.17607c3.4083,1.38596 6.53258,3.00292 9.37283,4.85088c0.93561,0.62698 1.78769,1.33647 2.55623,2.12845c-0.16707,0 -0.33415,-0.0165 -0.50122,-0.0495c-13.09857,-1.78195 -24.12542,-5.64286 -33.08057,-11.58271c-1.1361,-0.75898 -2.28891,-1.46846 -3.45842,-2.12845c-8.35368,-4.71888 -14.96979,-11.10422 -19.84834,-19.15602c0,-0.066 0,-0.1485 0,-0.24749c0.50122,-13.00167 3.09086,-23.97389 7.76892,-32.91667c1.10269,-0.39599 2.08842,-0.90748 2.9572,-1.53446c8.38709,-6.46784 17.10833,-12.60568 26.16372,-18.41353c2.87367,-1.81495 4.84513,-4.43839 5.9144,-7.8703c3.57537,-11.35171 6.85002,-22.95092 9.82393,-34.79762c1.47025,-5.93985 2.80684,-11.9787 4.00977,-18.11654c0.60146,-3.23392 1.31988,-6.33584 2.15525,-9.30576c0.9022,-3.16792 1.26976,-6.15434 1.10269,-8.95927c0.76854,-1.84795 2.10513,-3.06892 4.00977,-3.66291c5.81416,-1.84795 10.29173,-4.99937 13.43271,-9.45426c6.18172,-8.71178 9.38953,-20.34399 9.62344,-34.89662v-0.099c8.48734,-0.62698 16.84102,-1.33647 25.06104,-2.12845h0.10024c1.87122,-12.11069 3.50854,-24.40288 4.91196,-36.87657c0.06683,0 0.10024,0.0165 0.10024,0.0495c0.66829,3.7949 2.30562,6.58333 4.91196,8.36529c-2.07171,10.49373 -3.87611,21.30096 -5.41318,32.42168h-0.10024c-3.57537,1.18797 -7.58514,1.86445 -12.0293,2.02945c-4.91196,0.19799 -9.0888,0.75898 -12.53052,1.68296c-1.06927,6.36884 -2.23879,12.63868 -3.50854,18.80952c-1.90464,9.20677 -6.18172,16.07059 -12.83125,20.59148c-2.97391,2.04595 -6.29867,3.7619 -9.97429,5.14787c-3.27464,11.54971 -6.16501,23.51191 -8.67112,35.88659c-1.23634,6.10485 -2.57293,12.14369 -4.00977,18.11654c-1.80439,7.35881 -3.50854,14.76713 -5.11245,22.22494c-0.26732,1.22097 -0.26732,2.37594 0,3.46491c-8.38709,6.50084 -17.12504,12.62218 -26.21384,18.36404z" fill-opacity="0.99608" fill="#2b2c3f"/><path d="M485.09221,643.91493c1.97147,-1.28697 3.95964,-2.57393 5.96453,-3.8609c9.0888,-5.74185 17.82675,-11.8632 26.21384,-18.36404c-0.26732,-1.08897 -0.26732,-2.24394 0,-3.46491c1.60391,-7.45781 3.30806,-14.86612 5.11245,-22.22494c1.43683,-5.97285 2.77342,-12.0117 4.00977,-18.11654c2.5061,-12.37469 5.39648,-24.33688 8.67112,-35.88659c3.67562,-1.38596 7.00038,-3.10192 9.97429,-5.14787c6.64953,-4.52089 10.92661,-11.38471 12.83125,-20.59148c1.26976,-6.17084 2.43927,-12.44069 3.50854,-18.80952c3.44172,-0.92398 7.61855,-1.48496 12.53052,-1.68296c4.44416,-0.165 8.45392,-0.84148 12.0293,-2.02945h0.10024c1.53708,-11.12072 3.34147,-21.92795 5.41318,-32.42168c-2.60635,-1.78195 -4.24367,-4.57038 -4.91196,-8.36529c0,-0.033 -0.03341,-0.0495 -0.10024,-0.0495c1.70415,-9.10777 3.20781,-18.49603 4.51099,-28.16479c1.67074,-12.50668 3.47513,-25.29386 5.41318,-38.36153c1.93805,-12.77068 4.52769,-24.91437 7.76892,-36.43108c1.63732,-5.87385 3.27464,-11.66521 4.91196,-17.37406c1.67074,-5.87385 4.44416,-10.60923 8.32026,-14.20614c3.87611,-3.59691 8.47063,-6.55033 13.78357,-8.86028c5.11245,-2.24394 11.01015,-3.7619 17.69309,-4.55388c3.57537,-0.42899 7.15075,-0.32999 10.72612,0.29699c9.38953,1.58396 18.24443,3.8279 26.5647,6.73183c10.99344,3.8609 19.61444,10.08125 25.86299,18.66103c0,0.099 0.01671,0.165 0.05012,0.19799c0.60146,0.72598 1.00244,0.49499 1.20293,-0.69298c0.03341,-0.59398 0.16707,-0.65998 0.40098,-0.19799c1.87122,3.29992 2.99062,7.40831 3.35818,12.32519c0.33415,5.01587 0.51793,10.29574 0.55134,15.8396c0.03341,14.25564 0.63488,28.03279 1.80439,41.33146c0.9022,10.16374 1.83781,20.22849 2.80684,30.19424c1.26976,13.26566 2.89037,25.88785 4.86184,37.86654c0,0.65998 0,1.31997 0,1.97995c0,0.099 0,0.1815 0,0.24749h-0.15037c0.46781,3.39891 0.26732,6.36884 -0.60146,8.90977c-0.10024,0 -0.16707,-0.0165 -0.20049,-0.0495c-1.26976,-1.28697 -2.20537,-2.92043 -2.80684,-4.90038h-0.15037c1.00244,9.66876 2.38915,18.99102 4.16013,27.96679c0.06683,0 0.15037,0.0165 0.25061,0.0495c6.51587,1.35297 12.69759,3.06892 18.54517,5.14787c-0.10024,9.17377 1.55378,16.64808 4.96208,22.42293c5.48001,9.27277 13.01503,16.56558 22.60505,21.87845c3.60879,11.21972 6.95026,22.68693 10.02441,34.40163c1.53708,5.90685 2.9572,11.8632 4.26038,17.86905c1.63732,7.7548 4.39403,14.33814 8.27014,19.75c0.06683,0 0.13366,0.0165 0.20049,0.0495c2.70659,1.28697 5.48001,2.50794 8.32026,3.66291c2.40586,2.47494 4.86184,4.91688 7.36794,7.32581c2.5061,2.37594 5.06233,4.70238 7.66868,6.97932c7.98612,6.89683 13.83369,15.9056 17.54272,27.02632c-1.40342,9.99875 -4.22696,18.59503 -8.47063,25.78885c-0.03341,0.066 -0.05012,0.132 -0.05012,0.19799c-6.91685,4.22389 -14.11772,8.16729 -21.60261,11.8302c-0.06683,0.033 -0.13366,0.0495 -0.20049,0.0495c0,-0.066 0,-0.1485 0,-0.24749c-12.76442,1.61696 -25.8797,3.26692 -39.34583,4.94987c-5.37977,0.69298 -10.62588,0.57749 -15.73833,-0.34649c-1.47025,-0.23099 -2.89037,-0.65998 -4.26038,-1.28697c-10.19149,-4.61988 -19.66456,-10.03175 -28.41921,-16.23559c-3.24123,-2.27694 -6.49916,-4.55388 -9.7738,-6.83083c-4.41074,-3.06892 -8.58758,-6.36884 -12.53052,-9.89975c-6.3488,-5.70886 -12.09613,-11.9952 -17.24199,-18.85902c-0.83537,-0.32999 -1.57049,-0.75898 -2.20537,-1.28697c-0.03341,-0.033 -0.05012,-0.099 -0.05012,-0.19799c-0.16707,-6.99582 0.80195,-13.26566 2.90708,-18.80952c1.37,-3.56391 1.53708,-7.39181 0.50122,-11.48371c-0.80195,-3.13492 -1.45354,-6.25334 -1.95476,-9.35526c-2.10513,-12.80368 -4.12672,-25.57435 -6.06477,-38.31203c-1.47025,-9.47076 -2.94049,-18.87552 -4.41074,-28.21429c0,-0.066 0.01671,-0.1155 0.05012,-0.1485c2.60635,-1.31997 4.42745,-3.41541 5.46331,-6.28634c0,-0.066 0,-0.1485 0,-0.24749c0.06683,-2.34294 0.15037,-4.65288 0.25061,-6.92982c-1.00244,-1.81495 -2.15525,-3.48141 -3.45842,-4.99937c-0.03341,-0.033 -0.05012,-0.099 -0.05012,-0.19799c-6.18172,-2.96992 -13.6165,-4.66938 -22.30432,-5.09837c-4.61123,-0.23099 -9.62344,-0.34649 -15.03662,-0.34649c-1.67074,0 -3.25793,0.165 -4.7616,0.49499c-3.24123,3.16792 -5.07904,7.70531 -5.51343,13.61216c0,0.099 0,0.1815 0,0.24749c3.04074,3.69591 6.88343,6.56683 11.52808,8.61278c0.06683,0.033 0.15037,0.0495 0.25061,0.0495c-1.00244,9.47076 -2.055,19.28801 -3.15769,29.45176c-1.40342,13.23267 -2.68988,26.51483 -3.8594,39.84649c-0.2339,2.37594 -0.30073,4.76838 -0.20049,7.17732c0.06683,2.04595 0.35085,3.9599 0.85208,5.74185c2.2722,8.0188 4.5444,16.0046 6.8166,23.95739c0.70171,2.50794 0.80195,5.31287 0.30073,8.41479c-5.01221,6.13784 -11.47795,10.88972 -19.39724,14.25564c-5.14587,2.17794 -10.42539,4.35589 -15.83857,6.53383c-10.62588,4.19089 -21.5859,8.11779 -32.88008,11.7807c-10.99344,3.53091 -22.20408,6.86383 -33.63191,9.99875c-2.17196,-0.26399 -4.59452,-0.42899 -7.2677,-0.49499c-0.10024,0 -0.18378,0 -0.25061,0c-0.76854,-0.79198 -1.62061,-1.50146 -2.55623,-2.12845c-2.84025,-1.84795 -5.96453,-3.46491 -9.37283,-4.85088c-10.49222,-4.25689 -19.58102,-9.98225 -27.26641,-17.17607c-1.93805,-1.81495 -3.77586,-3.72891 -5.51343,-5.74185c-2.67318,-3.10192 -3.74245,-7.32581 -3.20781,-12.67168c0.40098,-4.0919 1.05256,-7.9198 1.95476,-11.48371c0.83537,-3.20092 2.42257,-5.57686 4.7616,-7.12782M633.80439,314.55025c-7.78563,3.13492 -13.31576,8.44779 -16.59041,15.9386c-1.73757,3.8939 -3.24123,8.0353 -4.51099,12.42419c-3.34147,11.35171 -6.26526,23.11592 -8.77136,35.29261c-2.5061,12.37469 -4.66135,25.06287 -6.46575,38.06454c-1.80439,13.23267 -3.39159,26.26734 -4.7616,39.10401c0.70171,0.69298 1.45354,1.35297 2.25549,1.97995c8.22002,6.66583 18.37809,11.50021 30.47422,14.50313c11.76198,2.93693 25.24482,4.37239 40.44851,4.30639c3.87611,-0.033 7.55173,-0.21449 11.02686,-0.54449c13.53296,-1.35297 25.79616,-4.0094 36.7896,-7.9693c1.37,-0.49499 2.75671,-0.90748 4.16013,-1.23747c2.07171,-0.46199 3.12428,-1.83145 3.15769,-4.1084c-1.80439,-12.96867 -3.55867,-25.93734 -5.26282,-38.90602c-0.9022,-6.66583 -1.47025,-13.66165 -1.70415,-20.98747c-0.53464,-14.12364 -1.1361,-28.23079 -1.80439,-42.32143c-0.26732,-6.17084 -0.51793,-12.35819 -0.75183,-18.56203c-2.87367,-6.99582 -7.23429,-12.50668 -13.08186,-16.53258c-0.06683,-0.033 -0.13366,-0.0495 -0.20049,-0.0495c-3.90952,11.38471 -5.2294,24.41938 -3.95964,39.10401c0.60146,6.79783 1.33659,13.56266 2.20537,20.29449c0.30073,2.50794 0.46781,4.73538 0.50122,6.68233c-3.30806,4.19089 -7.98612,6.99582 -14.03418,8.41479c-9.82393,2.34294 -20.83407,2.95343 -33.03044,1.83145c-3.37489,-0.32999 -6.63282,-0.94048 -9.7738,-1.83145c-2.87367,-0.82498 -5.64709,-1.81495 -8.32026,-2.96992c-0.63488,-0.132 -1.20293,-0.32999 -1.70415,-0.59398c-0.03341,0 -0.05012,-0.0495 -0.05012,-0.1485c-0.10024,0 -0.18378,-0.0165 -0.25061,-0.0495c-3.90952,-1.94695 -7.83575,-3.9104 -11.77869,-5.89035c-0.86878,-4.48789 -1.18622,-9.27277 -0.95232,-14.35464c0.20049,-3.62991 0.55134,-7.07832 1.05256,-10.34524c0.93561,-6.26984 1.92135,-12.55618 2.9572,-18.85902c1.03586,-6.50084 2.74001,-12.29219 5.11245,-17.37406c2.47269,-5.24687 5.01221,-10.01525 7.61855,-14.30514M738.86025,535.85916c0.03341,-0.29699 0.10024,-0.64348 0.20049,-1.03947c-8.01953,2.90393 -15.80516,6.02235 -23.35688,9.35526c-0.06683,0.033 -0.13366,0.0495 -0.20049,0.0495c4.81172,1.28697 10.15807,2.02945 16.03906,2.22744c0.06683,0 0.15037,0 0.25061,0c4.21025,-1.58396 6.56599,-5.11487 7.06721,-10.59273M785.62415,635.30214c0.03341,-0.066 0.05012,-0.1485 0.05012,-0.24749c-9.85734,5.04887 -19.61444,10.19674 -29.27129,15.44361c-2.74001,1.48496 -5.51343,2.93693 -8.32026,4.35589c8.95514,-1.71596 18.14419,-3.59691 27.56714,-5.64286c0.06683,-0.033 0.15037,-0.0495 0.25061,-0.0495c3.60879,-4.25689 6.85002,-8.87678 9.72368,-13.85965M562.12983,533.08723c2.43927,5.77485 5.74733,10.67523 9.92417,14.70113c0.20049,0.19799 0.40098,0.41249 0.60146,0.64348c0.9022,0 1.8211,0 2.75671,0c0.06683,0 0.15037,0 0.25061,0c3.47513,-1.58396 6.79989,-3.34942 9.97429,-5.29637c0.03341,0 0.05012,-0.0495 0.05012,-0.1485c-8.78807,-2.27694 -16.5737,-5.56036 -23.35688,-9.85025c-0.06683,-0.033 -0.13366,-0.0495 -0.20049,-0.0495M539.52478,642.67746c2.2722,0.36299 4.37733,0.54449 6.31538,0.54449c-8.38709,-4.38889 -17.00809,-8.57978 -25.86299,-12.57268c-0.06683,-0.033 -0.13366,-0.0495 -0.20049,-0.0495c0.80195,2.44194 1.70415,4.76838 2.70659,6.97932c0.03341,0.066 0.05012,0.132 0.05012,0.19799c4.97879,2.24394 10.64259,3.8774 16.99138,4.90038z" fill-opacity="0.99608" fill="#000000"/><path d="M545.84016,643.22194c-1.93805,0 -4.04318,-0.1815 -6.31538,-0.54449c-6.3488,-1.02297 -12.01259,-2.65643 -16.99138,-4.90038c0,-0.066 -0.01671,-0.132 -0.05012,-0.19799c-1.00244,-2.21094 -1.90464,-4.53739 -2.70659,-6.97932c0.06683,0 0.13366,0.0165 0.20049,0.0495c8.8549,3.9929 17.4759,8.18379 25.86299,12.57268z" fill="#2a2b3e"/><path d="M572.054,547.78836c-4.17684,-4.0259 -7.4849,-8.92627 -9.92417,-14.70113c0.06683,0 0.13366,0.0165 0.20049,0.0495c6.78319,4.28989 14.56882,7.57331 23.35688,9.85025c0,0.099 -0.01671,0.1485 -0.05012,0.1485c-3.1744,1.94695 -6.49916,3.71241 -9.97429,5.29637c-0.10024,0 -0.18378,0 -0.25061,0c-0.93561,0 -1.85452,0 -2.75671,0c-0.20049,-0.23099 -0.40098,-0.44549 -0.60146,-0.64348M785.67427,635.05465c0,0.099 -0.01671,0.1815 -0.05012,0.24749c-2.87367,4.98287 -6.11489,9.60276 -9.72368,13.85965c-0.10024,0 -0.18378,0.0165 -0.25061,0.0495c-9.42295,2.04595 -18.612,3.9269 -27.56714,5.64286c2.80684,-1.41896 5.58026,-2.87093 8.32026,-4.35589c9.65685,-5.24687 19.41395,-10.39474 29.27129,-15.44361M739.06074,534.81968c-0.10024,0.39599 -0.16707,0.74248 -0.20049,1.03947c-0.50122,5.47786 -2.85696,9.00877 -7.06721,10.59273c-0.10024,0 -0.18378,0 -0.25061,0c-5.88099,-0.19799 -11.22734,-0.94048 -16.03906,-2.22744c0.06683,0 0.13366,-0.0165 0.20049,-0.0495c7.55173,-3.33292 15.33735,-6.45134 23.35688,-9.35526z" fill="#2b2c3f"/><path d="M617.21399,330.48885c3.27464,-7.49081 8.80478,-12.80368 16.59041,-15.9386c-2.60635,4.28989 -5.14587,9.05827 -7.61855,14.30514c-2.37244,5.08187 -4.0766,10.87323 -5.11245,17.37406c-1.03586,6.30284 -2.02159,12.58918 -2.9572,18.85902c-0.50122,3.26692 -0.85208,6.71533 -1.05256,10.34524c-0.2339,5.08187 0.08354,9.86675 0.95232,14.35464c3.94294,1.97995 7.86917,3.9434 11.77869,5.89035c0.06683,0.033 0.15037,0.0495 0.25061,0.0495c0,0.099 0.01671,0.1485 0.05012,0.1485c0.50122,0.26399 1.06927,0.46199 1.70415,0.59398c2.67318,1.15497 5.4466,2.14495 8.32026,2.96992c3.14098,0.89098 6.39892,1.50146 9.7738,1.83145c12.19637,1.12197 23.20652,0.51149 33.03044,-1.83145c6.04806,-1.41896 10.72612,-4.22389 14.03418,-8.41479c-0.03341,-1.94695 -0.20049,-4.17439 -0.50122,-6.68233c-0.86878,-6.73183 -1.60391,-13.49666 -2.20537,-20.29449c-1.26976,-14.68463 0.05012,-27.7193 3.95964,-39.10401c0.06683,0 0.13366,0.0165 0.20049,0.0495c5.84757,4.0259 10.20819,9.53676 13.08186,16.53258c0.2339,6.20384 0.48451,12.39119 0.75183,18.56203c0.66829,14.09064 1.26976,28.19779 1.80439,42.32143c0.2339,7.32581 0.80195,14.32164 1.70415,20.98747c1.70415,12.96867 3.45842,25.93734 5.26282,38.90602c-0.03341,2.27694 -1.08598,3.64641 -3.15769,4.1084c-1.40342,0.32999 -2.79013,0.74248 -4.16013,1.23747c-10.99344,3.9599 -23.25664,6.61633 -36.7896,7.9693c-3.47513,0.32999 -7.15075,0.51149 -11.02686,0.54449c-15.20369,0.066 -28.68653,-1.36947 -40.44851,-4.30639c-12.09613,-3.00292 -22.2542,-7.8373 -30.47422,-14.50313c-0.80195,-0.62698 -1.55378,-1.28697 -2.25549,-1.97995c1.37,-12.83668 2.9572,-25.87135 4.7616,-39.10401c1.80439,-13.00167 3.95964,-25.68985 6.46575,-38.06454c2.5061,-12.17669 5.42989,-23.94089 8.77136,-35.29261c1.26976,-4.38889 2.77342,-8.53028 4.51099,-12.42419z" fill="#fefefe"/><path d="M741.29354,440.72498c-0.01875,0.09822 -0.01488,0.16682 0.01161,0.20581c0.81316,1.78397 1.54522,3.63728 2.19617,5.55995c-0.09822,-0.01875 -0.18007,-0.03437 -0.24554,-0.04687c-5.48145,-1.14813 -10.8172,-2.08183 -16.00726,-2.80108c-1.27413,0.80868 -2.21863,1.93478 -2.8335,3.37829c-2.05056,4.69841 -3.73175,9.77271 -5.04358,15.22291c-4.05753,1.70252 -7.99273,3.56412 -11.80561,5.5848c-2.27058,1.22925 -3.60926,3.62043 -4.01604,7.17353c-0.70704,5.8371 -0.45498,11.09381 0.75617,15.77012c1.16293,4.39565 0.80245,9.12825 -1.08142,14.19779c-2.38803,6.46633 -3.96383,13.12163 -4.7274,19.96591c0.5173,0.84525 1.00572,1.75286 1.46528,2.72282c0.40658,0.89198 0.93325,1.68813 1.58001,2.38843c7.1751,7.91855 15.7959,14.8406 25.86242,20.76617c-0.01875,0.09822 -0.018,0.18319 0.00224,0.25492c1.22393,3.89831 2.59757,7.7234 4.12091,11.47527c2.15902,0.95504 4.75554,1.48462 7.78956,1.58872c9.88633,0.29236 18.53939,-1.39821 25.95919,-5.0717c0.06548,0.0125 0.11146,0.03824 0.13795,0.07723c1.17301,2.56523 2.32652,5.14371 3.46054,7.73544c0.06548,0.0125 0.11146,0.03824 0.13795,0.07723c0.38009,0.85299 0.98889,0.95224 1.8264,0.29774c0.06548,0.0125 0.11146,0.03824 0.13795,0.07723c0.90513,1.83545 1.48198,3.8797 1.73054,6.13274c-0.01875,0.09822 -0.03437,0.18007 -0.04687,0.24554c-1.34884,0.48903 -3.0483,0.50395 -5.09837,0.04475c-0.09822,-0.01875 -0.18007,-0.03437 -0.24554,-0.04687c-1.88581,-1.85299 -3.47609,-3.92103 -4.77082,-6.20411c-0.02649,-0.03899 -0.07247,-0.06473 -0.13795,-0.07723c-8.24396,2.12495 -17.06371,3.44437 -26.45923,3.95828c-0.00625,0.03274 -0.01562,0.08185 -0.02812,0.14733c-1.73518,-0.33122 -3.45399,-0.65932 -5.15643,-0.98429c-0.09822,-0.01875 -0.18007,-0.03437 -0.24554,-0.04687c-3.89633,-3.76372 -6.7306,-8.29178 -8.50279,-13.58417c-0.22115,-0.61906 -0.5304,-1.22101 -0.92775,-1.80584c-2.71921,-3.70869 -6.55348,-6.73102 -11.50279,-9.067c-0.93218,-0.4494 -1.76064,-0.99776 -2.48538,-1.64509c-5.06067,-4.59676 -9.38681,-9.66409 -12.97841,-15.20198c-1.77631,-2.78219 -1.91121,-6.60835 -0.40472,-11.47848c2.02314,-6.33239 3.53122,-13.25511 4.52425,-20.76816c0.96,-6.80678 0.4112,-12.73091 -1.64642,-17.7724c-1.48286,-3.60841 -1.23115,-7.32684 0.75514,-11.15528c1.061,-2.00306 2.55834,-3.44778 4.49201,-4.33416c0.70954,-0.33961 1.41208,-0.73145 2.10763,-1.17553c3.03487,-2.03346 6.28166,-3.75502 9.74037,-5.16466c2.52104,-7.69643 5.73082,-14.37915 9.62934,-20.04816c0.04524,-0.05923 0.07723,-0.13795 0.09598,-0.23617c6.2255,0.2722 12.10294,1.47895 17.63233,3.62027c0.06548,0.0125 0.14733,0.02812 0.24554,0.04687z" fill-opacity="0.99608" fill="#2b2c3f"/><path d="M741.30515,440.93079c-0.02649,-0.03899 -0.03036,-0.10759 -0.01161,-0.20581c8.45524,-4.12055 17.04992,-7.99392 25.78404,-11.62012c9.98475,-4.13398 20.42994,-7.56928 31.33558,-10.30591c0.06548,0.0125 0.1442,0.04449 0.23617,0.09598c6.96665,2.78893 13.18953,5.74127 18.66863,8.85702c0.06548,0.0125 0.13408,0.00863 0.20581,-0.01161c2.92891,-2.18942 5.89756,-4.32035 8.90595,-6.3928c0.06548,0.0125 0.14733,0.02812 0.24554,0.04687c0.88396,0.16874 1.78429,0.3406 2.70099,0.51558c5.93839,4.79824 10.86306,10.28521 14.77403,16.46091c1.77631,2.78219 3.3218,5.70695 4.6365,8.77428c4.25094,9.90528 8.05976,20.08245 11.42646,30.53152c-0.71486,1.96734 -1.84656,3.36309 -3.39511,4.18726c-3.43549,1.82126 -6.70191,3.91232 -9.79928,6.27318c1.75728,3.59293 2.74103,7.68292 2.95125,12.26996c0.07237,2.28727 -0.41093,4.19702 -1.44992,5.72923c-0.89077,1.28905 -1.74494,2.65295 -2.56249,4.0917c-5.64966,10.22098 -12.1961,19.18494 -19.63932,26.89189c-7.55394,7.75368 -15.60181,14.71746 -24.14361,20.89135c-8.57454,6.16764 -17.88767,11.22723 -27.93939,15.17876c-0.55358,0.23365 -1.0783,0.40495 -1.57415,0.51389c0.0125,-0.06548 0.02812,-0.14733 0.04687,-0.24554c-0.24857,-2.25304 -0.82542,-4.29729 -1.73054,-6.13274c-0.02649,-0.03899 -0.07247,-0.06473 -0.13795,-0.07723c-0.83751,0.6545 -1.44631,0.55526 -1.8264,-0.29774c-0.02649,-0.03899 -0.07247,-0.06473 -0.13795,-0.07723c-1.13402,-2.59172 -2.28753,-5.1702 -3.46054,-7.73544c-0.02649,-0.03899 -0.07247,-0.06473 -0.13795,-0.07723c-7.4198,3.67349 -16.07286,5.36406 -25.95919,5.0717c-3.03403,-0.1041 -5.63055,-0.63368 -7.78956,-1.58872c-1.52334,-3.75187 -2.89698,-7.57696 -4.12091,-11.47527c-0.02024,-0.07173 -0.02099,-0.1567 -0.00224,-0.25492c-10.06652,-5.92556 -18.68732,-12.84762 -25.86242,-20.76617c-0.64676,-0.70031 -1.17343,-1.49645 -1.58001,-2.38843c-0.45956,-0.96996 -0.94799,-1.87757 -1.46528,-2.72282c0.76357,-6.84428 2.33937,-13.49958 4.7274,-19.96591c1.88388,-5.06954 2.24435,-9.80214 1.08142,-14.19779c-1.21115,-4.67631 -1.46321,-9.93302 -0.75617,-15.77012c0.40678,-3.5531 1.74546,-5.94427 4.01604,-7.17353c3.81287,-2.02068 7.74808,-3.88228 11.80561,-5.5848c1.31183,-5.4502 2.99302,-10.5245 5.04358,-15.22291c0.61487,-1.44351 1.55937,-2.56961 2.8335,-3.37829c5.19006,0.71926 10.52581,1.65295 16.00726,2.80108c0.06548,0.0125 0.14733,0.02812 0.24554,0.04687c-0.65095,-1.92267 -1.38301,-3.77598 -2.19617,-5.55995M724.30307,493.46986c0.04524,-0.05923 0.07723,-0.13795 0.09598,-0.23617c-4.15192,-0.1139 -8.15502,-0.02974 -12.0093,0.2525c-0.09822,-0.01875 -0.18007,-0.03437 -0.24554,-0.04687c-0.18422,0.60955 -0.35608,1.50988 -0.51558,2.70099c-0.01875,0.09822 -0.03437,0.18007 -0.04687,0.24554c0.47923,2.46673 0.64968,5.12902 0.51135,7.98685c-0.01875,0.09822 -0.03437,0.18007 -0.04687,0.24554c4.46972,-3.15079 8.55533,-6.86692 12.25684,-11.14838z" fill-opacity="0.99608" fill="#000000"/><path d="M724.39905,493.23369c-0.01875,0.09822 -0.05074,0.17694 -0.09598,0.23617c-3.70151,4.28146 -7.78713,7.99759 -12.25684,11.14838c0.0125,-0.06548 0.02812,-0.14733 0.04687,-0.24554c0.13834,-2.85783 -0.03211,-5.52011 -0.51135,-7.98685c0.0125,-0.06548 0.02812,-0.14733 0.04687,-0.24554c0.1595,-1.19111 0.33136,-2.09144 0.51558,-2.70099c0.06548,0.0125 0.14733,0.02812 0.24554,0.04687c3.85428,-0.28223 7.85738,-0.3664 12.0093,-0.2525z" fill="#2a2b3e"/><path d="M718.34622,370.00695c3.59777,-4.1303 8.48662,-7.65545 14.66655,-10.57546c2.4513,0.33762 4.88598,0.62809 7.30405,0.87141c11.17334,1.22171 21.26691,4.64386 30.28069,10.26646c0.03323,0.0943 0.04521,0.17843 0.03593,0.25237c0.98037,6.79281 1.02547,13.13778 0.13531,19.03491c3.02915,2.07757 5.98241,4.34091 8.85979,6.79002c7.24239,6.21153 14.44961,12.52379 21.62166,18.9368c4.10994,3.64028 7.87383,8.00327 11.29167,13.08896c0.03323,0.0943 0.06093,0.17289 0.08308,0.23576c1.39941,4.17146 2.54389,7.92036 3.43344,11.2467c-0.0943,0.03323 -0.13591,0.06557 -0.12484,0.097c-1.34672,5.70465 -4.0113,10.77825 -7.99376,15.22082c-0.0943,0.03323 -0.17289,0.06093 -0.23576,0.08308c-8.50245,3.95053 -15.52354,4.83465 -21.06326,2.65237c-5.33807,-6.42324 -10.94721,-12.36224 -16.82742,-17.81698c-8.0756,-7.47277 -16.44172,-14.36609 -25.09837,-20.67996c-1.78995,0.73682 -3.4106,1.20195 -4.86197,1.39539c-4.34303,0.61176 -8.91641,1.62274 -13.72015,3.03295c-0.67603,-1.31663 -1.36688,-2.57504 -2.07255,-3.77522c-6.4489,-10.97911 -12.89779,-21.95822 -19.34669,-32.93733c4.14587,-5.98435 8.69007,-11.79104 13.63259,-17.42006M767.78574,393.8763c-2.9764,-0.22324 -6.0962,-0.20159 -9.35939,0.06496c1.16689,7.22181 2.71639,14.62682 4.6485,22.21504c0.03323,0.0943 0.06093,0.17289 0.08308,0.23576c3.37785,-0.34229 6.70854,-0.66797 9.99209,-0.97702l-0.04985,-0.14145c-0.65967,-4.67952 -1.30916,-9.3803 -1.94848,-14.10234c-0.01108,-0.03143 0.03053,-0.06377 0.12484,-0.097c3.81944,0.20885 7.26542,0.46096 10.33792,0.75635l-0.04985,-0.14145c-4.13058,-2.99692 -8.46936,-5.53175 -13.01635,-7.60449c-0.21256,-0.10178 -0.46673,-0.17123 -0.76252,-0.20834M781.6213,405.00862c-1.91152,-0.2098 -3.91375,-0.17561 -6.00667,0.10257c0.78192,8.13492 1.43631,16.20876 1.96316,24.22154c0.0018,0.10538 0.01378,0.1895 0.03593,0.25237c4.25024,0.1277 8.36263,0.51601 12.33717,1.16494c0.07395,0.00928 0.15807,-0.0027 0.25237,-0.03593c-0.54113,-5.14536 -1.524,-10.54143 -2.94861,-16.18821l0.14145,-0.04985c3.18508,0.71511 6.0865,1.17681 8.70425,1.38509l-0.14955,-0.42436c-3.84171,-3.98218 -8.02485,-7.27863 -12.54939,-9.88934c-0.5323,-0.30714 -1.12567,-0.48675 -1.78011,-0.53882z" fill-opacity="0.99608" fill="#000000"/><path d="M775.61462,405.11119c2.09293,-0.27819 4.09515,-0.31238 6.00667,-0.10257c0.65444,0.05207 1.24781,0.23168 1.78011,0.53882c4.52455,2.61072 8.70768,5.90716 12.54939,9.88934l0.14955,0.42436c-2.61775,-0.20828 -5.51916,-0.66998 -8.70425,-1.38509l-0.14145,0.04985c1.42461,5.64678 2.40747,11.04285 2.94861,16.18821c-0.0943,0.03323 -0.17843,0.04521 -0.25237,0.03593c-3.97453,-0.64892 -8.08692,-1.03724 -12.33717,-1.16494c-0.02216,-0.06287 -0.03413,-0.14699 -0.03593,-0.25237c-0.52685,-8.01278 -1.18124,-16.08663 -1.96316,-24.22154M758.42636,393.94126c3.26319,-0.26655 6.38298,-0.2882 9.35939,-0.06496c0.29578,0.03711 0.54996,0.10656 0.76252,0.20834c4.54698,2.07274 8.88577,4.60757 13.01635,7.60449l0.04985,0.14145c-3.0725,-0.29539 -6.51848,-0.54751 -10.33792,-0.75635c-0.0943,0.03323 -0.13591,0.06557 -0.12484,0.097c0.63931,4.72204 1.28881,9.42282 1.94848,14.10234l0.04985,0.14145c-3.28354,0.30906 -6.61424,0.63473 -9.99209,0.97702c-0.02216,-0.06287 -0.04985,-0.14145 -0.08308,-0.23576c-1.93211,-7.58822 -3.48161,-14.99323 -4.6485,-22.21504z" fill-opacity="0.99608" fill="#ffffff"/><path d="M525.69567,250.31116c-0.00302,-1.90729 -0.03685,-3.41023 -0.1015,-4.50883c-0.6773,-8.70758 2.03733,-14.47191 8.1439,-17.29299c0.0664,-0.00593 0.15089,0.00326 0.25346,0.02756c0.98062,0.11321 1.72617,0.02989 2.23663,-0.24996c1.76437,-1.22849 3.08111,-2.78513 3.95022,-4.66991c0.95685,-2.02648 1.42071,-4.32686 1.39159,-6.90114c-0.09927,-9.72972 1.54485,-17.92512 4.93237,-24.58619c4.93426,-9.57689 13.47924,-16.19661 25.63492,-19.85915c12.18888,-3.6655 25.25139,-6.35486 39.18754,-8.06806c14.4312,-1.79088 29.03375,-3.16201 43.80765,-4.11339c1.96183,-0.14175 3.5715,0.08261 4.82901,0.67308c4.57285,-0.50881 9.17684,-0.66902 13.81197,-0.48061c13.37416,0.61267 26.24498,1.77229 38.61246,3.47885c12.26788,1.71546 23.40043,4.77055 33.39766,9.16528c3.7998,1.70205 7.23233,3.78829 10.29757,6.25873c7.11292,5.82365 11.90064,14.46531 14.36317,25.92498c1.48594,6.89513 2.69499,13.313 3.62716,19.25362c0.0664,-0.00593 0.13429,0.00474 0.20365,0.03201c5.45159,2.96009 10.91682,5.8855 16.39569,8.77623c0.35462,2.8464 0.60844,5.501 0.76147,7.96381c1.01778,14.76797 1.19335,28.72432 0.52672,41.86903c-0.65477,13.27752 -1.84137,26.03362 -3.55979,38.2683c-0.45465,3.15294 -0.77798,6.27741 -0.96999,9.37343c-0.34607,5.33474 -2.05167,9.46951 -5.11679,12.40433c-0.546,0.52592 -1.13828,1.01387 -1.77682,1.46386c-0.0996,0.0089 -0.18112,0.03291 -0.24456,0.07204c-1.60313,0.41091 -3.24243,0.79158 -4.91789,1.14202c0.0089,0.0996 -0.00029,0.18409 -0.02756,0.25346c-0.18996,0.94826 -0.35594,1.90013 -0.49794,2.85561c-0.1397,0.9358 -0.25736,1.86662 -0.35298,2.79247c-0.3098,2.9613 -0.40962,5.96541 -0.29946,9.01235c-6.96503,3.70093 -14.90211,6.6353 -23.81123,8.80311c-6.32182,1.53513 -12.37239,3.29703 -18.15171,5.2857c-2.87036,0.97326 -5.78256,1.90268 -8.73658,2.78825c-9.17229,2.82481 -18.73979,5.30241 -28.70251,7.4328c-6.53585,1.38692 -13.38208,2.48363 -20.53869,3.29014c-10.46486,1.23584 -21.32932,2.30658 -32.59338,3.21221c-7.34337,0.58893 -14.21661,0.63388 -20.6197,0.13485c-12.94493,-1.0526 -24.95877,-3.10867 -36.04152,-6.16821c-7.10669,-1.9849 -13.24009,-5.0849 -18.40022,-9.29998c-0.98265,-0.77111 -1.92594,-1.59044 -2.82987,-2.458c-0.00593,-0.0664 -0.02994,-0.14792 -0.07204,-0.24456c-0.40123,-1.16842 -0.79168,-2.35505 -1.17133,-3.5599c-0.40759,-1.23373 -0.80396,-2.48677 -1.18912,-3.75911c-0.0996,0.0089 -0.18409,-0.00029 -0.25346,-0.02756c-7.39383,-1.84958 -11.66122,-7.47558 -12.80218,-16.878c-2.59328,-1.30782 -4.89933,-2.95922 -6.91813,-4.9542c-2.04904,-1.95881 -3.55857,-4.43433 -4.5286,-7.42656c-1.29733,-4.03391 -2.39219,-8.23649 -3.28459,-12.60776c-2.53905,-12.69108 -4.55135,-26.41645 -6.03691,-41.17611c-1.15286,-11.40931 -1.75879,-22.31529 -1.81776,-32.71793M536.88651,238.46871c-0.09664,0.0421 -0.17816,0.06611 -0.24456,0.07204c-2.66012,4.68855 -3.96873,10.64523 -3.92585,17.87004c0.06189,8.56175 0.53199,17.5723 1.4103,27.03164c0.0089,0.0996 -0.00029,0.18409 -0.02756,0.25346c-0.04326,0.63972 0.09341,1.04583 0.41001,1.21835c0.01483,0.16601 0.02965,0.33201 0.04448,0.49802c0.0089,0.0996 0.01631,0.18261 0.02224,0.24901c1.85665,12.91936 3.95371,25.53278 6.29117,37.84027c0.6404,3.42326 1.91427,6.07043 3.82161,7.9415c7.30424,-0.65236 14.607,-1.32133 21.90827,-2.00689c14.73535,-1.38299 29.41349,-2.84454 44.03442,-4.38464l0.0996,-0.0089c0.00053,-2.24226 -0.06682,-4.4952 -0.20206,-6.7588c0.0664,-0.00593 0.1494,-0.01334 0.24901,-0.02224c13.36346,-0.25649 26.72545,-0.52957 40.08595,-0.81926c0.0664,-0.00593 0.11769,0.00622 0.15385,0.03646c0.55139,0.55314 0.98184,1.25095 1.29135,2.09342c0.24189,-0.28933 0.43961,-0.32372 0.59317,-0.10318c1.21012,1.93334 2.20858,4.11985 2.9954,6.55952c0.40138,-0.00238 0.81936,-0.00625 1.25394,-0.0116c13.95812,-0.34306 27.82998,-0.52782 41.61558,-0.55428c14.01801,-0.04722 27.87801,-0.36478 41.57999,-0.9527c0.28505,-4.67722 0.51733,-9.3832 0.69684,-14.11793c0.54924,-13.33503 1.12693,-26.53873 1.73309,-39.61112c0.64587,-13.37713 1.31873,-26.63953 2.01856,-39.78721c-11.21259,-3.01448 -23.35804,-4.858 -36.43636,-5.53056c-6.75645,-0.33361 -13.38602,-0.74548 -19.88872,-1.23561c-12.96923,-0.95003 -26.54911,-1.24314 -40.73964,-0.87932c-8.61629,0.20063 -17.29009,0.50679 -26.02139,0.91848c-15.29268,0.76345 -29.62249,2.37795 -42.98946,4.8435c-7.60422,1.41541 -14.99588,2.96243 -22.175,4.64106c-0.71856,0.19804 -1.45373,0.39756 -2.20549,0.59857l0.0089,0.0996c-6.95682,0.42054 -12.77736,1.76031 -17.46163,4.0193M624.83363,332.31685c0.0089,0.0996 0.01631,0.18261 0.02224,0.24901c-0.44639,1.74663 -1.22124,3.18794 -2.32456,4.32392c-0.03024,0.03617 -0.04239,0.08745 -0.03646,0.15385c-12.80079,1.31061 -25.44091,3.10885 -37.92033,5.39474c-0.0996,0.0089 -0.18261,0.01631 -0.24901,0.02224c2.05702,12.16521 5.38395,22.81143 9.98078,31.93866c0.00297,0.0332 0.05425,0.04535 0.15385,0.03646c12.54593,1.45636 25.74638,2.18495 39.60135,2.18576c13.6528,-0.0146 28.0434,-0.94848 43.17182,-2.80163c4.96534,-0.6108 9.67603,-1.44985 14.13207,-2.51715c4.64932,-1.1515 9.03332,-2.46336 13.152,-3.93559c4.63905,-8.01109 8.22632,-16.93223 10.76179,-26.7634c-0.00297,-0.0332 0.04535,-0.05425 0.14496,-0.06315c-0.07117,-0.79683 -0.1453,-1.62685 -0.2224,-2.49008c-0.00593,-0.0664 -0.01334,-0.1494 -0.02224,-0.24901c-13.48324,-0.3352 -27.21163,-0.23019 -41.18515,0.31505c-6.00288,0.23494 -11.68236,0.15654 -17.03843,-0.23521c-1.75018,-0.11141 -3.29316,-0.52579 -4.62893,-1.24314c-1.3228,-3.19498 -2.46418,-6.60697 -3.42415,-10.23595c-0.00593,-0.0664 -0.01334,-0.1494 -0.02224,-0.24901c-8.08862,0.48816 -16.16213,0.95823 -24.22051,1.41022c-0.0996,0.0089 -0.18261,0.01631 -0.24901,0.02224c0.13937,1.56045 0.28022,3.1375 0.42255,4.73116z" fill-opacity="0.99608" fill="#000000"/><path d="M624.85587,332.56586c-0.00593,-0.0664 -0.01334,-0.1494 -0.02224,-0.24901c-0.14233,-1.59365 -0.28319,-3.1707 -0.42255,-4.73116c0.0664,-0.00593 0.1494,-0.01334 0.24901,-0.02224c8.05839,-0.45199 16.13189,-0.92207 24.22051,-1.41022c0.0089,0.0996 0.01631,0.18261 0.02224,0.24901c0.95997,3.62898 2.10135,7.04096 3.42415,10.23595c1.33577,0.71735 2.87875,1.13173 4.62893,1.24314c5.35607,0.39175 11.03555,0.47015 17.03843,0.23521c13.97353,-0.54523 27.70191,-0.65025 41.18515,-0.31505c0.0089,0.0996 0.01631,0.18261 0.02224,0.24901c0.0771,0.86323 0.15123,1.69326 0.2224,2.49008c-0.0996,0.0089 -0.14792,0.02994 -0.14496,0.06315c-2.53547,9.83117 -6.12274,18.75231 -10.76179,26.7634c-4.11868,1.47223 -8.50269,2.78409 -13.152,3.93559c-4.45604,1.0673 -9.16673,1.90635 -14.13207,2.51715c-15.12842,1.85315 -29.51903,2.78703 -43.17182,2.80163c-13.85497,-0.00081 -27.05542,-0.7294 -39.60135,-2.18576c-0.0996,0.0089 -0.15089,-0.00326 -0.15385,-0.03646c-4.59683,-9.12723 -7.92376,-19.77345 -9.98078,-31.93866c0.0664,-0.00593 0.1494,-0.01334 0.24901,-0.02224c12.47943,-2.28588 25.11954,-4.08413 37.92033,-5.39474c-0.00593,-0.0664 0.00622,-0.11769 0.03646,-0.15385c1.10332,-1.13598 1.87817,-2.57729 2.32456,-4.32392M536.64195,238.54076c0.0664,-0.00593 0.14792,-0.02994 0.24456,-0.07204c4.68427,-2.25899 10.50481,-3.59876 17.46163,-4.0193l-0.0089,-0.0996c0.75176,-0.20101 1.48693,-0.40053 2.20549,-0.59857c7.17911,-1.67863 14.57078,-3.22565 22.175,-4.64106c13.36696,-2.46555 27.69678,-4.08005 42.98946,-4.8435c8.7313,-0.41169 17.4051,-0.71785 26.02139,-0.91848c14.19053,-0.36382 27.77041,-0.07071 40.73964,0.87932c6.5027,0.49013 13.13227,0.902 19.88872,1.23561c13.07832,0.67256 25.22377,2.51608 36.43636,5.53056c-0.69983,13.14768 -1.37269,26.41009 -2.01856,39.78721c-0.60616,13.07238 -1.18386,26.27609 -1.73309,39.61112c-0.17951,4.73473 -0.41179,9.4407 -0.69684,14.11793c-13.70199,0.58791 -27.56199,0.90548 -41.57999,0.9527c-13.7856,0.02646 -27.65746,0.21122 -41.61558,0.55428c-0.43458,0.00535 -0.85256,0.00921 -1.25394,0.0116c-0.78682,-2.43967 -1.78528,-4.62618 -2.9954,-6.55952c-0.15356,-0.22055 -0.35129,-0.18615 -0.59317,0.10318c-0.30951,-0.84247 -0.73995,-1.54028 -1.29135,-2.09342c-0.03617,-0.03024 -0.08745,-0.04239 -0.15385,-0.03646c-13.3605,0.28969 -26.72248,0.56277 -40.08595,0.81926c-0.0996,0.0089 -0.18261,0.01631 -0.24901,0.02224c0.13524,2.2636 0.20259,4.51654 0.20206,6.7588l-0.0996,0.0089c-14.62092,1.5401 -29.29906,3.00165 -44.03442,4.38464c-7.30127,0.68557 -14.60403,1.35453 -21.90827,2.00689c-1.90734,-1.87107 -3.18121,-4.51824 -3.82161,-7.9415c-2.33746,-12.30749 -4.43451,-24.92092 -6.29117,-37.84027c-0.00593,-0.0664 -0.01334,-0.1494 -0.02224,-0.24901c-0.01483,-0.16601 -0.02965,-0.33201 -0.04448,-0.49802c-0.3166,-0.17252 -0.45327,-0.57864 -0.41001,-1.21835c0.02727,-0.06937 0.03646,-0.15385 0.02756,-0.25346c-0.87831,-9.45935 -1.34841,-18.46989 -1.4103,-27.03164c-0.04288,-7.22481 1.26573,-13.18149 3.92585,-17.87004z" fill="#fefefe"/><path d="M641.48073,374.76696c-13.89701,1.77664 -24.65366,-0.44191 -32.26994,-6.65566c3.82411,1.59948 8.47822,2.18779 13.96233,1.76492c4.1199,-0.3345 7.76373,-0.19141 10.9315,0.42924c1.5326,0.29818 3.10165,0.4425 4.70717,0.43297c4.6867,0.01647 8.98479,0.55291 12.89425,1.60931c0.0332,-0.00297 0.05721,0.07855 0.07204,0.24456c-2.99519,0.93683 -6.42764,1.66172 -10.29734,2.17466z" fill="#020202"/><path d="M682.41919,361.57283c-0.2905,0.49447 -0.95304,0.57037 -1.98762,0.22772c-0.06937,-0.02727 -0.15385,-0.03646 -0.25346,-0.02756c-3.91413,1.88902 -8.83054,3.04763 -14.74923,3.47585c-7.64515,0.58241 -14.96837,0.83488 -21.96967,0.75741c-6.97106,-0.11364 -13.79836,-0.49112 -20.48189,-1.13243c-2.6905,-0.89754 -5.59118,-1.52532 -8.70202,-1.88334c-1.1828,-0.12862 -2.21145,-0.40488 -3.08595,-0.82876c-2.16882,-2.5505 -3.49103,-6.11366 -3.96664,-10.68948c-0.00593,-0.0664 -0.01334,-0.1494 -0.02224,-0.24901c1.58884,-2.81918 3.7006,-5.21654 6.3353,-7.19208c0.0332,-0.00297 0.04535,-0.05425 0.03646,-0.15385c14.48102,-0.85829 28.28026,-0.91943 41.39771,-0.18343c4.9126,0.29749 9.38974,1.1526 13.43143,2.56532c1.72826,0.61536 3.23123,1.51857 4.50891,2.70963c3.61012,3.32536 6.74566,7.14489 9.40662,11.4586c0.34922,0.53773 0.38332,0.91954 0.1023,1.14544M618.61037,349.70218c0.0089,0.0996 0.01631,0.18261 0.02224,0.24901c0.17257,1.55749 0.54019,2.86329 1.10286,3.91741c0.0996,-0.0089 0.18409,0.00029 0.25346,0.02756c4.08553,0.40482 8.14231,0.86242 12.17034,1.37278l0.01334,0.1494c-3.66753,0.52835 -7.30186,1.05374 -10.90298,1.57617c0.0089,0.0996 0.03291,0.18112 0.07204,0.24456c0.65338,0.94562 1.30675,1.89125 1.96013,2.83687c1.78635,0.14165 3.63613,0.24417 5.54935,0.30755c13.71268,0.28124 28.02474,-0.59542 42.93616,-2.62999c-2.36749,-4.77498 -6.46465,-7.37078 -12.29146,-7.78742c-13.40381,-0.94468 -27.0323,-1.03265 -40.88547,-0.26391z" fill="#010101"/><path d="M628.85114,360.38349c-1.91322,-0.06339 -3.763,-0.1659 -5.54935,-0.30755c-0.65338,-0.94562 -1.30675,-1.89125 -1.96013,-2.83687c-0.03913,-0.06344 -0.06315,-0.14496 -0.07204,-0.24456c3.60113,-0.52242 7.23546,-1.04781 10.90298,-1.57617l-0.01334,-0.1494c-4.02803,-0.51036 -8.08481,-0.96795 -12.17034,-1.37278c-0.06937,-0.02727 -0.15385,-0.03646 -0.25346,-0.02756c-0.56267,-1.05412 -0.93029,-2.35993 -1.10286,-3.91741c-0.00593,-0.0664 -0.01334,-0.1494 -0.02224,-0.24901c13.85317,-0.76875 27.48166,-0.68078 40.88547,0.26391c5.82682,0.41664 9.92397,3.01244 12.29146,7.78742c-14.91142,2.03457 -29.22347,2.91123 -42.93616,2.62999z" fill="#fdfdfd"/></g></g></svg>