<svg version="1.1" xmlns="http://www.w3.org/2000/svg" xmlns:xlink="http://www.w3.org/1999/xlink" width="154.9478" height="159.40704" viewBox="0,0,154.9478,159.40704"><g transform="translate(-565.04508,-276.16727)"><g data-paper-data="{&quot;isPaintingLayer&quot;:true}" fill-rule="nonzero" stroke="none" stroke-linecap="butt" stroke-linejoin="miter" stroke-miterlimit="10" stroke-dasharray="" stroke-dashoffset="0" style="mix-blend-mode: normal"><path d="M644.92379,340.39809l-0.05,0.05l-0.35,-0.05c0.13333,0 0.26667,0 0.4,0z" fill="#000000" stroke-width="1"/><path d="M717.80112,359.54873c0.34818,0.0607 0.72477,0.21459 1.1228,0.50368c2.02276,1.46917 0.55359,3.49192 0.55359,3.49192l-1.99065,2.52935c-6.97172,5.02971 -13.54356,10.45301 -20.78195,15.22365c-6.26372,4.51904 -13.32423,6.49606 -20.58106,2.63012c-2.53853,-1.35236 -3.01395,-2.09171 -4.98168,-3.96679c-0.61142,-0.58263 -1.2878,-1.1017 -1.84586,-1.73562c-0.10444,-0.11863 -0.20238,-0.49298 -0.23382,-0.6243c0.62577,2.87145 0.0219,6.3247 0.06835,9.35502c0.09557,6.23443 0.45236,12.52547 0.03414,18.74804c-0.14994,1.92099 -0.69728,3.79403 -0.8971,5.71048c-0.54371,5.21453 -0.10067,10.71052 -3.79299,15.06568c-0.72902,0.85989 -4.05138,3.18755 -5.0109,3.88065c-8.76645,6.33224 -17.62485,6.11319 -27.6546,3.46637c-3.94329,-1.04063 -6.26798,-1.90393 -9.41068,-4.59566c-1.62844,-1.58639 -3.61406,-3.28461 -4.56929,-5.41c-1.74807,-3.88947 -0.67108,-9.06912 -1.77526,-13.21711c-0.51069,-1.91847 -1.71774,-3.62725 -2.08872,-5.57756c-0.04716,-0.24789 -0.12509,-6.05362 -0.12811,-6.25061c-0.08346,-5.4444 -0.16692,-10.8888 -0.25039,-16.33319c-0.03873,-2.52662 -0.0831,-5.05326 -0.1189,-7.57995c-0.37976,0.72199 -0.77441,1.43392 -1.21049,2.12045c-2.24647,3.53678 -5.73985,6.06846 -9.00564,8.59138c-2.42703,1.87494 -5.75131,4.68645 -9.09546,4.54087c-3.93145,-0.17114 -6.17277,-3.21228 -8.32651,-5.98807c-3.91575,-5.0467 -7.89463,-9.40808 -11.0366,-15.0301c-1.32361,-4.58286 -4.43973,-7.04398 -7.01686,-10.9257c-1.43035,-2.15442 -3.24787,-4.85161 -2.59423,-7.6983c0.29032,-1.26441 1.72601,-1.93893 2.63953,-2.8601c1.83202,-1.84735 3.65148,-3.50193 5.10467,-5.70578c5.51377,-8.36195 10.78032,-16.50642 17.33784,-24.11668c6.02082,-7.77001 10.21327,-17.48658 17.0578,-24.53525c2.85098,-2.93602 6.4772,-5.23722 9.69394,-7.72783c6.7088,-5.19439 12.56408,-9.18967 21.33809,-9.35153c9.17188,-0.1406 18.40121,1.32119 25.85448,7.25675c3.89859,3.10473 6.83902,7.54354 10.52591,10.91588c5.48846,5.02021 12.01722,9.9231 16.38424,15.92713c8.95839,11.16064 16.09635,23.20889 22.04514,36.22569c1.92588,4.21409 2.98187,8.73049 4.6372,13.047z" fill="#00ff2d" stroke-width="0.5"/></g></g></svg>