<svg version="1.1" xmlns="http://www.w3.org/2000/svg" xmlns:xlink="http://www.w3.org/1999/xlink" width="54.11667" height="65.13828" viewBox="0,0,54.11667,65.13828"><g transform="translate(-606.58994,-337.83784)"><g data-paper-data="{&quot;isPaintingLayer&quot;:true}" fill-rule="nonzero" stroke="none" stroke-width="1" stroke-linecap="butt" stroke-linejoin="miter" stroke-miterlimit="10" stroke-dasharray="" stroke-dashoffset="0" style="mix-blend-mode: normal"><path d="M658.0066,349.13784c0.4,0.53333 0.8,1.18333 1.2,1.95c0.4,0.86667 0.71667,1.8 0.95,2.8c0.26667,0.86667 0.45,1.85 0.55,2.95c-0.23333,0.63333 -0.46667,1.26667 -0.7,1.9c-0.83333,1.36667 -1.81667,2.58333 -2.95,3.65c-1.5,1.5 -3.4,2.51667 -5.7,3.05c-0.23333,-0.03333 -0.4,-0.06667 -0.5,-0.1c-0.36667,-0.06667 -0.61667,-0.13333 -0.75,-0.2c-0.26667,-0.1 -0.48333,-0.2 -0.65,-0.3c-0.13333,-0.13333 -0.2,-0.21667 -0.2,-0.25c-0.1,-0.1 -0.21667,-0.2 -0.35,-0.3c-0.53333,-0.43333 -1,-0.86667 -1.4,-1.3c-0.56667,-0.6 -1.15,-1.15 -1.75,-1.65c-0.26667,-0.26667 -0.53333,-0.53333 -0.8,-0.8c-0.16667,-0.16667 -0.35,-0.26667 -0.55,-0.3c-0.03333,-0.1 -0.15,-0.2 -0.35,-0.3c-0.73333,-0.53333 -1.46667,-0.95 -2.2,-1.25c-0.83333,-0.36667 -1.6,-0.8 -2.3,-1.3c-0.86667,-0.36667 -1.75,-0.48333 -2.65,-0.35c-2.1,0.2 -3.95,0.78333 -5.55,1.75c-1.06667,0.46667 -2.01667,1.11667 -2.85,1.95c-0.16667,0.1 -0.26667,0.2 -0.3,0.3c-0.06667,0.03333 -0.13333,0.11667 -0.2,0.25c-0.16667,0.16667 -0.35,0.33333 -0.55,0.5c-0.13333,0.1 -0.21667,0.2 -0.25,0.3c-0.03333,0.03333 -0.13333,0.11667 -0.3,0.25c-0.1,0.1 -0.15,0.2 -0.15,0.3c-0.13333,0.06667 -0.2,0.13333 -0.2,0.2c-0.53333,0.46667 -0.88333,1 -1.05,1.6c-0.36667,0.56667 -0.6,1.13333 -0.7,1.7c-0.33333,0.53333 -0.46667,1.06667 -0.4,1.6c-0.06667,0.33333 -0.2,0.6 -0.4,0.8c0,0.1 0,0.2 0,0.3c0,0.03333 0,0.11667 0,0.25c0,0.26667 0,0.53333 0,0.8c0,0.26667 0,0.53333 0,0.8c0,0.13333 0,0.31667 0,0.55c0,0.26667 0,0.53333 0,0.8c0.03333,0.03333 0.06667,0.11667 0.1,0.25c0.03333,0.1 0.06667,0.2 0.1,0.3c0.03333,0.03333 0.06667,0.11667 0.1,0.25c0.03333,0.03333 0.06667,0.11667 0.1,0.25c0,0.1 0,0.2 0,0.3c0,0.03333 0,0.11667 0,0.25c0.03333,0.03333 0.05,0.11667 0.05,0.25c0,0.1 0,0.2 0,0.3c0,0.03333 0,0.11667 0,0.25c0.06667,0.1 0.11667,0.2 0.15,0.3c0.13333,0.16667 0.2,0.33333 0.2,0.5c-0.03333,0.1 0,0.2 0.1,0.3c-0.03333,0.1 0.05,0.25 0.25,0.45c-0.03333,0.1 0,0.2 0.1,0.3c0,0.03333 0,0.11667 0,0.25c0,0.03333 0,0.11667 0,0.25c0.7,2.16667 2.25,3.71667 4.65,4.65c2.66667,1.06667 5.45,0.78333 8.35,-0.85c2.7,-1.6 5.26667,-3.28333 7.7,-5.05c0.1,-0.1 0.18333,-0.2 0.25,-0.3c0,-0.13333 0.05,-0.21667 0.15,-0.25c0,-0.13333 0.06667,-0.21667 0.2,-0.25c0.1,-0.1 0.2,-0.2 0.3,-0.3c0.03333,-0.13333 0.11667,-0.21667 0.25,-0.25c1.06667,-2.46667 2.98333,-3.4 5.75,-2.8c2.56667,0.46667 4.33333,1.85 5.3,4.15c0.93333,2 1.66667,4.13333 2.2,6.4c-0.36667,4.93333 -2.46667,9.18333 -6.3,12.75c-7.5,6.86667 -16.15,9.46667 -25.95,7.8c-1.43333,-0.3 -2.75,-0.75 -3.95,-1.35c-2.83333,-1.36667 -5.26667,-3.2 -7.3,-5.5c-0.1,-0.13333 -0.15,-0.21667 -0.15,-0.25c-0.03333,-0.13333 -0.06667,-0.21667 -0.1,-0.25c-0.06667,-0.13333 -0.15,-0.21667 -0.25,-0.25c-0.1,-0.1 -0.2,-0.2 -0.3,-0.3c-0.46667,-0.43333 -0.88333,-0.86667 -1.25,-1.3c-0.5,-0.6 -0.95,-1.15 -1.35,-1.65c-0.43333,-0.43333 -0.73333,-0.86667 -0.9,-1.3c-0.1,-0.13333 -0.2,-0.21667 -0.3,-0.25c-0.16667,-0.1 -0.28333,-0.2 -0.35,-0.3c-0.3,-0.23333 -0.48333,-0.46667 -0.55,-0.7c-0.2,-0.26667 -0.35,-0.53333 -0.45,-0.8c-0.23333,-0.33333 -0.4,-0.6 -0.5,-0.8c-0.16667,-0.1 -0.21667,-0.2 -0.15,-0.3c-0.06667,-0.13333 -0.13333,-0.21667 -0.2,-0.25c0,-0.13333 0,-0.21667 0,-0.25c-0.2,-0.3 -0.35,-0.55 -0.45,-0.75c-0.23333,-0.33333 -0.4,-0.61667 -0.5,-0.85c-0.2,-0.26667 -0.28333,-0.53333 -0.25,-0.8c-0.13333,-0.23333 -0.2,-0.41667 -0.2,-0.55c-0.06667,-0.13333 -0.08333,-0.21667 -0.05,-0.25v-0.2c-0.1,-0.1 -0.21667,-0.2 -0.35,-0.3c0,-0.13333 -0.01667,-0.21667 -0.05,-0.25c-0.16667,-0.16667 -0.21667,-0.33333 -0.15,-0.5c-0.16667,-0.2 -0.26667,-0.4 -0.3,-0.6c-0.06667,-0.16667 -0.13333,-0.33333 -0.2,-0.5c-0.1,-0.13333 -0.13333,-0.21667 -0.1,-0.25c0,-0.1 -0.01667,-0.2 -0.05,-0.3c0,-0.13333 0,-0.21667 0,-0.25c0,-0.1 0,-0.2 0,-0.3c-0.06667,-0.06667 -0.08333,-0.13333 -0.05,-0.2c0,-0.13333 -0.01667,-0.21667 -0.05,-0.25c-0.16667,-0.1 -0.21667,-0.2 -0.15,-0.3c-0.03333,-0.13333 -0.08333,-0.21667 -0.15,-0.25c0.03333,-0.13333 0,-0.21667 -0.1,-0.25c-0.03333,-0.53333 -0.06667,-1.06667 -0.1,-1.6c-0.1,-1.06667 -0.15,-2.13333 -0.15,-3.2c-0.06667,-1.6 -0.08333,-3.2 -0.05,-4.8c0.03333,-0.9 0.06667,-1.8 0.1,-2.7c0.03333,-0.13333 0.05,-0.21667 0.05,-0.25c0.06667,-0.13333 0.11667,-0.21667 0.15,-0.25c-0.03333,-0.1 0,-0.2 0.1,-0.3c0.1,-0.13333 0.13333,-0.21667 0.1,-0.25c0,-0.1 0,-0.2 0,-0.3c0,-0.1 0,-0.2 0,-0.3c0.03333,-0.13333 0.05,-0.21667 0.05,-0.25c0,-0.1 0,-0.2 0,-0.3c-0.03333,-0.13333 0,-0.21667 0.1,-0.25c0.1,-0.13333 0.13333,-0.21667 0.1,-0.25c0.06667,-0.23333 0.13333,-0.41667 0.2,-0.55c0.06667,-0.23333 0.11667,-0.41667 0.15,-0.55c0.03333,-0.16667 0.11667,-0.33333 0.25,-0.5c-0.06667,-0.1 0,-0.2 0.2,-0.3c0,-0.13333 0,-0.21667 0,-0.25c-0.03333,-0.1 -0.01667,-0.2 0.05,-0.3c0.06667,-0.16667 0.11667,-0.33333 0.15,-0.5c0.33333,-0.66667 0.71667,-1.28333 1.15,-1.85c0.33333,-0.73333 0.65,-1.48333 0.95,-2.25c0.36667,-1.03333 0.93333,-1.93333 1.7,-2.7c0,-0.13333 0.05,-0.21667 0.15,-0.25c-0.06667,-0.1 -0.01667,-0.21667 0.15,-0.35c0.06667,-0.26667 0.25,-0.53333 0.55,-0.8c0.16667,-0.26667 0.38333,-0.53333 0.65,-0.8c0.2,-0.33333 0.45,-0.6 0.75,-0.8c0.1,-0.13333 0.2,-0.21667 0.3,-0.25c0.06667,-0.1 0.13333,-0.2 0.2,-0.3c0.06667,-0.13333 0.11667,-0.21667 0.15,-0.25c0.1,-0.33333 0.26667,-0.61667 0.5,-0.85c0.2,-0.33333 0.45,-0.61667 0.75,-0.85c0.3,-0.3 0.6,-0.55 0.9,-0.75c0.1,-0.1 0.2,-0.2 0.3,-0.3c1.13333,-1.53333 2.46667,-2.86667 4,-4c4.03333,-3.3 8.65,-5.15 13.85,-5.55c2.5,-0.26667 5,0 7.5,0.8c1.63333,0.46667 3.31667,0.98333 5.05,1.55c0.13333,0.03333 0.25,0.11667 0.35,0.25c0.36667,0.2 0.71667,0.4 1.05,0.6c0.8,0.36667 1.46667,0.86667 2,1.5c0.63333,0.53333 1.2,1.18333 1.7,1.95c0.06667,0.1 0.11667,0.18333 0.15,0.25c0.16667,0.03333 0.31667,0.13333 0.45,0.3c0.16667,0.06667 0.31667,0.13333 0.45,0.2c0.13333,0.13333 0.2,0.25 0.2,0.35c0.1,0.03333 0.18333,0.11667 0.25,0.25c0,0.03333 0.06667,0.13333 0.2,0.3c0.1,0.1 0.2,0.18333 0.3,0.25c0.1,0.1 0.25,0.18333 0.45,0.25c0.33333,0.1 0.66667,0.38333 1,0.85c0.26667,0.26667 0.6,0.53333 1,0.8c0.13333,0.2 0.31667,0.45 0.55,0.75M650.7066,348.58784c-1.93333,-1.8 -4.13333,-3.01667 -6.6,-3.65c-2.66667,-0.7 -5.35,-1.01667 -8.05,-0.95c-3.63333,0.23333 -6.88333,1.4 -9.75,3.5c-2.16667,1.33333 -4.08333,3.05 -5.75,5.15c-0.1,0.16667 -0.21667,0.33333 -0.35,0.5c-0.23333,0.3 -0.41667,0.6 -0.55,0.9c-0.33333,0.36667 -0.66667,0.71667 -1,1.05c-0.13333,0.1 -0.21667,0.2 -0.25,0.3c-0.16667,0.13333 -0.26667,0.31667 -0.3,0.55c-0.2,0.2 -0.35,0.45 -0.45,0.75c-0.23333,0.3 -0.41667,0.58333 -0.55,0.85c-0.16667,0.1 -0.26667,0.2 -0.3,0.3c-0.43333,0.8 -0.86667,1.6 -1.3,2.4c-0.36667,0.73333 -0.68333,1.46667 -0.95,2.2c-0.4,0.93333 -0.75,1.93333 -1.05,3c0,0.03333 -0.06667,0.11667 -0.2,0.25c0,0.13333 0,0.31667 0,0.55c0,0.13333 -0.01667,0.31667 -0.05,0.55c0,0.16667 -0.01667,0.33333 -0.05,0.5c-0.13333,0.13333 -0.21667,0.31667 -0.25,0.55c-0.06667,0.9 -0.08333,1.8 -0.05,2.7c0,0.83333 0,1.71667 0,2.65c0.06667,1.23333 0.11667,2.46667 0.15,3.7c0,0.1 0,0.2 0,0.3c-0.06667,0.16667 0,0.33333 0.2,0.5c-0.06667,0.26667 0,0.53333 0.2,0.8c0.03333,0.26667 0.05,0.53333 0.05,0.8c0.03333,0.13333 0.05,0.31667 0.05,0.55c-0.03333,0.06667 -0.01667,0.13333 0.05,0.2c0.23333,0.5 0.45,1.05 0.65,1.65c0.16667,0.53333 0.38333,1.06667 0.65,1.6c0.2,0.56667 0.51667,1.18333 0.95,1.85c0.13333,0.2 0.25,0.45 0.35,0.75c0.13333,0.13333 0.31667,0.31667 0.55,0.55c0.23333,0.13333 0.45,0.38333 0.65,0.75c0.16667,0.26667 0.31667,0.53333 0.45,0.8c0.1,0.03333 0.18333,0.11667 0.25,0.25c0.03333,0.1 0.11667,0.2 0.25,0.3c0.1,0.03333 0.2,0.11667 0.3,0.25c0.03333,0.1 0.11667,0.2 0.25,0.3c0.03333,0.16667 0.11667,0.33333 0.25,0.5c6,7.3 13.25,9.26667 21.75,5.9c1.96667,-0.83333 3.85,-1.8 5.65,-2.9c1.36667,-0.96667 2.66667,-1.93333 3.9,-2.9c0.2,-0.26667 0.4,-0.53333 0.6,-0.8c0.36667,-0.43333 0.66667,-0.86667 0.9,-1.3c0.06667,-0.4 0.26667,-0.68333 0.6,-0.85c0.03333,-0.23333 0.11667,-0.4 0.25,-0.5c0.03333,-0.26667 0.13333,-0.53333 0.3,-0.8c0.1,-0.33333 0.26667,-0.66667 0.5,-1c0.1,-0.33333 0.2,-0.61667 0.3,-0.85c-0.03333,-0.53333 -0.15,-1.06667 -0.35,-1.6c-0.16667,-0.56667 -0.35,-1.08333 -0.55,-1.55c-0.36667,-0.5 -0.61667,-1.01667 -0.75,-1.55c-0.1,-0.2 -0.2,-0.35 -0.3,-0.45c-5.8,6.13333 -12.88333,9.31667 -21.25,9.55c-1.16667,-0.03333 -2.33333,-0.28333 -3.5,-0.75c-2.1,-1.03333 -3.93333,-2.35 -5.5,-3.95c-0.13333,-0.1 -0.21667,-0.2 -0.25,-0.3c-0.03333,-0.13333 -0.08333,-0.21667 -0.15,-0.25c-0.1,-0.13333 -0.15,-0.21667 -0.15,-0.25c-0.26667,-0.23333 -0.46667,-0.41667 -0.6,-0.55c-0.26667,-0.26667 -0.46667,-0.53333 -0.6,-0.8c-0.26667,-0.36667 -0.41667,-0.73333 -0.45,-1.1c-0.1,-0.06667 -0.15,-0.13333 -0.15,-0.2c0,-0.13333 0,-0.21667 0,-0.25c-0.06667,-0.1 -0.06667,-0.2 0,-0.3c-0.06667,-0.13333 -0.08333,-0.21667 -0.05,-0.25c-0.03333,-0.13333 -0.08333,-0.21667 -0.15,-0.25c-0.03333,-0.1 -0.06667,-0.2 -0.1,-0.3c0,-0.13333 0,-0.21667 0,-0.25c-0.06667,-0.13333 -0.08333,-0.21667 -0.05,-0.25c-0.1,-0.23333 -0.2,-0.41667 -0.3,-0.55c-0.03333,-0.23333 -0.06667,-0.41667 -0.1,-0.55c-0.1,-0.16667 -0.15,-0.33333 -0.15,-0.5c-0.1,-0.33333 -0.2,-0.6 -0.3,-0.8c0,-0.13333 0,-0.21667 0,-0.25c0,-0.13333 0,-0.21667 0,-0.25c-0.36667,-0.8 -0.53333,-1.61667 -0.5,-2.45c0,-0.8 0,-1.6 0,-2.4c-0.1,-1.2 -0.01667,-2.35 0.25,-3.45c0.03333,-0.23333 0.11667,-0.41667 0.25,-0.55c0,-0.13333 0,-0.21667 0,-0.25c0,-0.1 0,-0.2 0,-0.3c2.76667,-8.03333 8.4,-12.8 16.9,-14.3c4.7,-0.86667 8.98333,0.2 12.85,3.2c1.3,0.93333 2.6,2.05 3.9,3.35c0.16667,-0.13333 0.31667,-0.26667 0.45,-0.4c0.3,-0.26667 0.6,-0.53333 0.9,-0.8c0.3,-0.36667 0.58333,-0.73333 0.85,-1.1c-0.03333,-0.13333 -0.01667,-0.21667 0.05,-0.25c0,-0.1 -0.06667,-0.2 -0.2,-0.3c0,-0.13333 0,-0.21667 0,-0.25c-0.1,-0.23333 -0.2,-0.41667 -0.3,-0.55c0,-0.13333 -0.01667,-0.21667 -0.05,-0.25c-0.06667,-0.2 -0.08333,-0.28333 -0.05,-0.25c0,-0.1 0,-0.21667 0,-0.35c-0.03333,-0.16667 -0.13333,-0.33333 -0.3,-0.5c0,-0.23333 -0.06667,-0.41667 -0.2,-0.55c-0.13333,-0.3 -0.2,-0.48333 -0.2,-0.55c-0.03333,-0.23333 -0.13333,-0.41667 -0.3,-0.55c-0.03333,-0.2 -0.15,-0.4 -0.35,-0.6c-0.2,-0.2 -0.4,-0.46667 -0.6,-0.8c-0.26667,-0.4 -0.48333,-0.75 -0.65,-1.05c-0.16667,-0.13333 -0.21667,-0.21667 -0.15,-0.25z" fill="#000000"/><path d="M652.1066,350.68784c0.2,0.2 0.31667,0.4 0.35,0.6c0.16667,0.13333 0.26667,0.31667 0.3,0.55c0,0.06667 0.06667,0.25 0.2,0.55c0.13333,0.13333 0.2,0.31667 0.2,0.55c0.16667,0.16667 0.26667,0.33333 0.3,0.5c0,0.13333 0,0.25 0,0.35c-0.03333,-0.03333 -0.01667,0.05 0.05,0.25c0.03333,0.03333 0.05,0.11667 0.05,0.25c0.1,0.13333 0.2,0.31667 0.3,0.55c0,0.03333 0,0.11667 0,0.25c0.13333,0.1 0.2,0.2 0.2,0.3c-0.06667,0.03333 -0.08333,0.11667 -0.05,0.25c-0.26667,0.36667 -0.55,0.73333 -0.85,1.1c-0.3,0.26667 -0.6,0.53333 -0.9,0.8c-0.13333,0.13333 -0.28333,0.26667 -0.45,0.4c-1.3,-1.3 -2.6,-2.41667 -3.9,-3.35c-3.86667,-3 -8.15,-4.06667 -12.85,-3.2c-8.5,1.5 -14.13333,6.26667 -16.9,14.3c0,0.1 0,0.2 0,0.3c0,0.03333 0,0.11667 0,0.25c-0.13333,0.13333 -0.21667,0.31667 -0.25,0.55c-0.26667,1.1 -0.35,2.25 -0.25,3.45c0,0.8 0,1.6 0,2.4c-0.03333,0.83333 0.13333,1.65 0.5,2.45c0,0.03333 0,0.11667 0,0.25c0,0.03333 0,0.11667 0,0.25c0.1,0.2 0.2,0.46667 0.3,0.8c0,0.16667 0.05,0.33333 0.15,0.5c0.03333,0.13333 0.06667,0.31667 0.1,0.55c0.1,0.13333 0.2,0.31667 0.3,0.55c-0.03333,0.03333 -0.01667,0.11667 0.05,0.25c0,0.03333 0,0.11667 0,0.25c0.03333,0.1 0.06667,0.2 0.1,0.3c0.06667,0.03333 0.11667,0.11667 0.15,0.25c-0.03333,0.03333 -0.01667,0.11667 0.05,0.25c-0.06667,0.1 -0.06667,0.2 0,0.3c0,0.03333 0,0.11667 0,0.25c0,0.06667 0.05,0.13333 0.15,0.2c0.03333,0.36667 0.18333,0.73333 0.45,1.1c0.13333,0.26667 0.33333,0.53333 0.6,0.8c0.13333,0.13333 0.33333,0.31667 0.6,0.55c0,0.03333 0.05,0.11667 0.15,0.25c0.06667,0.03333 0.11667,0.11667 0.15,0.25c0.03333,0.1 0.11667,0.2 0.25,0.3c1.56667,1.6 3.4,2.91667 5.5,3.95c1.16667,0.46667 2.33333,0.71667 3.5,0.75c8.36667,-0.23333 15.45,-3.41667 21.25,-9.55c0.1,0.1 0.2,0.25 0.3,0.45c0.13333,0.53333 0.38333,1.05 0.75,1.55c0.2,0.46667 0.38333,0.98333 0.55,1.55c0.2,0.53333 0.31667,1.06667 0.35,1.6c-0.1,0.23333 -0.2,0.51667 -0.3,0.85c-0.23333,0.33333 -0.4,0.66667 -0.5,1c-0.16667,0.26667 -0.26667,0.53333 -0.3,0.8c-0.13333,0.1 -0.21667,0.26667 -0.25,0.5c-0.33333,0.16667 -0.53333,0.45 -0.6,0.85c-0.23333,0.43333 -0.53333,0.86667 -0.9,1.3c-0.2,0.26667 -0.4,0.53333 -0.6,0.8c-1.23333,0.96667 -2.53333,1.93333 -3.9,2.9c-1.8,1.1 -3.68333,2.06667 -5.65,2.9c-8.5,3.36667 -15.75,1.4 -21.75,-5.9c-0.13333,-0.16667 -0.21667,-0.33333 -0.25,-0.5c-0.13333,-0.1 -0.21667,-0.2 -0.25,-0.3c-0.1,-0.13333 -0.2,-0.21667 -0.3,-0.25c-0.13333,-0.1 -0.21667,-0.2 -0.25,-0.3c-0.06667,-0.13333 -0.15,-0.21667 -0.25,-0.25c-0.13333,-0.26667 -0.28333,-0.53333 -0.45,-0.8c-0.2,-0.36667 -0.41667,-0.61667 -0.65,-0.75c-0.23333,-0.23333 -0.41667,-0.41667 -0.55,-0.55c-0.1,-0.3 -0.21667,-0.55 -0.35,-0.75c-0.43333,-0.66667 -0.75,-1.28333 -0.95,-1.85c-0.26667,-0.53333 -0.48333,-1.06667 -0.65,-1.6c-0.2,-0.6 -0.41667,-1.15 -0.65,-1.65c-0.06667,-0.06667 -0.08333,-0.13333 -0.05,-0.2c0,-0.23333 -0.01667,-0.41667 -0.05,-0.55c0,-0.26667 -0.01667,-0.53333 -0.05,-0.8c-0.2,-0.26667 -0.26667,-0.53333 -0.2,-0.8c-0.2,-0.16667 -0.26667,-0.33333 -0.2,-0.5c0,-0.1 0,-0.2 0,-0.3c-0.03333,-1.23333 -0.08333,-2.46667 -0.15,-3.7c0,-0.93333 0,-1.81667 0,-2.65c-0.03333,-0.9 -0.01667,-1.8 0.05,-2.7c0.03333,-0.23333 0.11667,-0.41667 0.25,-0.55c0.03333,-0.16667 0.05,-0.33333 0.05,-0.5c0.03333,-0.23333 0.05,-0.41667 0.05,-0.55c0,-0.23333 0,-0.41667 0,-0.55c0.13333,-0.13333 0.2,-0.21667 0.2,-0.25c0.3,-1.06667 0.65,-2.06667 1.05,-3c0.26667,-0.73333 0.58333,-1.46667 0.95,-2.2c0.43333,-0.8 0.86667,-1.6 1.3,-2.4c0.03333,-0.1 0.13333,-0.2 0.3,-0.3c0.13333,-0.26667 0.31667,-0.55 0.55,-0.85c0.1,-0.3 0.25,-0.55 0.45,-0.75c0.03333,-0.23333 0.13333,-0.41667 0.3,-0.55c0.03333,-0.1 0.11667,-0.2 0.25,-0.3c0.33333,-0.33333 0.66667,-0.68333 1,-1.05c0.13333,-0.3 0.31667,-0.6 0.55,-0.9c0.13333,-0.16667 0.25,-0.33333 0.35,-0.5c1.66667,-2.1 3.58333,-3.81667 5.75,-5.15c2.86667,-2.1 6.11667,-3.26667 9.75,-3.5c2.7,-0.06667 5.38333,0.25 8.05,0.95c2.46667,0.63333 4.66667,1.85 6.6,3.65c-0.06667,0.03333 -0.01667,0.11667 0.15,0.25c0.16667,0.3 0.38333,0.65 0.65,1.05c0.2,0.33333 0.4,0.6 0.6,0.8z" fill="#ffffff"/></g></g></svg>