<svg version="1.1" xmlns="http://www.w3.org/2000/svg" xmlns:xlink="http://www.w3.org/1999/xlink" width="169" height="201.15" viewBox="0,0,169,201.15"><g transform="translate(-551.19009,-259.43408)"><g data-paper-data="{&quot;isPaintingLayer&quot;:true}" fill-rule="nonzero" stroke="none" stroke-width="1" stroke-linecap="round" stroke-linejoin="miter" stroke-miterlimit="4" stroke-dasharray="" stroke-dashoffset="0" style="mix-blend-mode: normal"><path d="M627.89009,413.78408c-0.3,0.7 -0.86667,1.71667 -1.7,3.05c0.8,0.43333 1.81667,0.91667 3.05,1.45c0.8,0.43333 1.2,0.95 1.2,1.55c0,0.56667 -1.48333,4.26667 -4.45,11.1c-2.63333,6.06667 -4.56667,10.36667 -5.8,12.9l-1,0.25c0.4,-1.26667 0.9,-3.25 1.5,-5.95l1.5,-6.8l-0.25,-0.75c-1.03333,1.66667 -1.91667,2.93333 -2.65,3.8c-1.36667,1.63333 -3.23333,2.45 -5.6,2.45c-2.6,0 -4.21667,-1.1 -4.85,-3.3c-0.16667,-2.33333 -0.3,-3.65 -0.4,-3.95c-3.8,2.53333 -7.95,5.55 -12.45,9.05c-5.06667,3.9 -8.83333,7.05 -11.3,9.45c-0.66667,-0.03333 -1.06667,-0.05 -1.2,-0.05c-0.2,-0.03333 -0.3,-0.56667 -0.3,-1.6c0,-0.3 2.36667,-3.68333 7.1,-10.15c5.63333,-7.66667 10.85,-14.21667 15.65,-19.65c15.16667,-17.13333 22.75,-19.23333 22.75,-6.3c0,1.1 -0.26667,2.25 -0.8,3.45M614.34009,414.43408c-1,1.53333 -2.06667,2.86667 -3.2,4c-2.43333,2.46667 -5.15,5.38333 -8.15,8.75c-3.43333,3.83333 -5.15,5.98333 -5.15,6.45c0,0.36667 0.06667,0.58333 0.2,0.65c0.06667,0.03333 0.23333,0.05 0.5,0.05c3.06667,-2.6 7.96667,-7.06667 14.7,-13.4c2.56667,-2.4 4.68333,-4.41667 6.35,-6.05c-0.7,0.9 -1.35,2.11667 -1.95,3.65c-0.36667,0.93333 -1.15,2.56667 -2.35,4.9c-1,2.16667 -1.5,3.88333 -1.5,5.15c0,0.56667 0.06667,0.7 0.2,0.4c1.9,-1.7 4.2,-4.4 6.9,-8.1c2.4,-3.33333 3.6,-5.18333 3.6,-5.55c0,-1.9 -0.76667,-2.68333 -2.3,-2.35c-0.43333,0.1 -0.85,0.28333 -1.25,0.55c2.26667,-2.26667 3.4,-3.55 3.4,-3.85c0,-2.26667 -1.05,-3.05 -3.15,-2.35c-1.86667,0.63333 -3.35,1.71667 -4.45,3.25c-1.06667,1.7 -1.86667,2.98333 -2.4,3.85M622.64009,426.23408c0.23333,0.4 0.53333,0.75 0.9,1.05c0.43333,-0.2 0.96667,-0.96667 1.6,-2.3c0.6,-1.3 0.9,-2.23333 0.9,-2.8c0,-1.86667 -0.61667,-2.08333 -1.85,-0.65c-1.23333,1.43333 -1.85,2.75 -1.85,3.95c0,0.13333 0.1,0.38333 0.3,0.75M677.44009,401.63408c2.76667,1.7 4.93333,5.01667 6.5,9.95c1.56667,2.1 4.28333,7.11667 8.15,15.05c3.73333,7.66667 5.6,11.9 5.6,12.7c0,0.96667 -0.06667,1.43333 -0.2,1.4c-0.4,-0.16667 -0.66667,-0.21667 -0.8,-0.15c-3.66667,-3.06667 -9.41667,-9.73333 -17.25,-20c0,2.36667 -0.58333,3.88333 -1.75,4.55c-1.16667,0.63333 -1.75,1.11667 -1.75,1.45c0,0.43333 1.13333,5.01667 3.4,13.75c2.23333,8.76667 3.35,13.93333 3.35,15.5c0,0.93333 -0.03333,1.68333 -0.1,2.25c-0.1,0.6 -0.15,1.1 -0.15,1.5c-0.03333,0 -0.23333,0.13333 -0.6,0.4c-0.36667,0.3 -0.75,0.5 -1.15,0.6c-3.53333,-4.26667 -7.66667,-11.75 -12.4,-22.45c-5.06667,-11.5 -7.6,-19.93333 -7.6,-25.3c0,-2.1 0.9,-4.31667 2.7,-6.65c1.83333,-2.4 3.96667,-4.08333 6.4,-5.05c2.76667,-1.06667 5.31667,-0.9 7.65,0.5M676.59009,408.28408c-3.13333,-6.63333 -5.23333,-5.53333 -6.3,3.3c-0.13333,-0.36667 -0.26667,-0.68333 -0.4,-0.95c-0.26667,-0.5 -0.71667,-0.75 -1.35,-0.75c-1.63333,0 -2.66667,1 -3.1,3c-0.13333,0.56667 -0.2,1.75 -0.2,3.55c0,0.86667 1.2,4.88333 3.6,12.05c2.73333,8.16667 5.1,13.93333 7.1,17.3c-1,-6.06667 -1.75,-10.61667 -2.25,-13.65c-0.86667,-5.36667 -1.53333,-9.81667 -2,-13.35h0.15c1.1,0.43333 1.78333,0.31667 2.05,-0.35c0.13333,-0.33333 0.16667,-0.88333 0.1,-1.65c0.63333,0.16667 1.16667,0.03333 1.6,-0.4c0.36667,-0.36667 0.55,-0.83333 0.55,-1.4c0,-0.23333 -0.18333,-1.1 -0.55,-2.6c-0.36667,-1.53333 -0.55,-2.4 -0.55,-2.6c0.56667,0.53333 2.01667,2.73333 4.35,6.6c1.9,3.16667 3.38333,4.75 4.45,4.75c0.56667,0 0.73333,-0.08333 0.5,-0.25c-2.16667,-2.8 -3.75,-5 -4.75,-6.6c-1.16667,-1.8 -2.16667,-3.8 -3,-6M589.14009,381.38408c4,-3.43333 7.03333,-5.83333 9.1,-7.2c7.63333,-5.06667 11.45,-3.15 11.45,5.75c0,2.93333 -3.16667,5.81667 -9.5,8.65c-6.33333,2.83333 -12.75,4.25 -19.25,4.25c-15.33333,6 -25,10.08333 -29,12.25l-0.75,-0.75c1.2,-3.43333 5.53333,-6.86667 13,-10.3c4.16667,-1.86667 10.25,-4.35 18.25,-7.45c0.96667,-0.43333 3.2,-2.16667 6.7,-5.2M586.09009,388.33408c0.56667,-0.16667 2.23333,-0.93333 5,-2.3c2.56667,-1.26667 4.06667,-1.9 4.5,-1.9c2.63333,0 4.95,-0.28333 6.95,-0.85c3.26667,-0.9 4.9,-2.41667 4.9,-4.55c0,-2.76667 -1.58333,-3.56667 -4.75,-2.4c-2.83333,1.03333 -4.68333,2.25 -5.55,3.65c-1.3,2.06667 -3.56667,3.98333 -6.8,5.75c-2.93333,1.36667 -4.4,2.08333 -4.4,2.15c0,0.56667 0.05,0.71667 0.15,0.45M596.69009,367.68408c-1.86667,0 -4.6,-1.01667 -8.2,-3.05c-3.86667,-2.33333 -6.46667,-3.81667 -7.8,-4.45v-0.75c1.76667,0.13333 4.13333,-0.18333 7.1,-0.95c1.63333,-0.4 3.98333,-1 7.05,-1.8c5.06667,-1.03333 7.6,0.71667 7.6,5.25c0,0.86667 -0.33333,1.88333 -1,3.05c-1.06667,1.8 -2.65,2.7 -4.75,2.7M593.84009,361.38408h-1.85v0.75c2.56667,1.96667 4.51667,2.95 5.85,2.95c0.93333,0 1.66667,-0.38333 2.2,-1.15c0.4,-0.53333 0.6,-1.06667 0.6,-1.6c0,-2.66667 -0.93333,-3.65 -2.8,-2.95c-2.13333,1.33333 -3.46667,2 -4,2M612.19009,259.68408c6.33333,12.66667 12.75,30.16667 19.25,52.5v0.25c0.36667,-1 0.7,-2.05 1,-3.15c0,-0.33333 0,-0.56667 0,-0.7c0,-2 0.11667,-6.48333 0.35,-13.45c0.26667,-8.46667 0.56667,-15.2 0.9,-20.2h0.5c0,-0.7 0,-1.36667 0,-2l0.75,-0.25c0.06667,0.73333 0.13333,1.48333 0.2,2.25h0.05c0.73333,5.93333 2.33333,17.66667 4.8,35.2c2.13333,15.9 3.2,26.66667 3.2,32.3c0,1.33333 -0.4,2.58333 -1.2,3.75c-1.03333,1.5 -2.46667,2.25 -4.3,2.25c-0.36667,0 -0.71667,-0.03333 -1.05,-0.1c-1,0.9 -2.31667,1.35 -3.95,1.35c-4.7,0 -9.85,-14.71667 -15.45,-44.15c-1.76667,-9.26667 -3.46667,-19.41667 -5.1,-30.45c-1.3,-9.26667 -1.95,-13.93333 -1.95,-14c0,-1.03333 0.08333,-1.58333 0.25,-1.65c0.1,0 0.18333,0.08333 0.25,0.25h1.5M616.99009,287.38408c4.46667,22.5 6.86667,34.5 7.2,36c3.23333,13.5 6.28333,20.25 9.15,20.25c2.13333,0 3.2,-1.35 3.2,-4.05c0.23333,-1.23333 0.41667,-2.15 0.55,-2.75c0.5,0.86667 1.33333,1.3 2.5,1.3c0.9,0 1.6,-0.4 2.1,-1.2c0.4,-0.56667 0.6,-1.13333 0.6,-1.7c0,-0.83333 -0.86667,-5.16667 -2.6,-13c-1.8,-8.16667 -3.26667,-14.21667 -4.4,-18.15c0,0.06667 -0.18333,0.1 -0.55,0.1l-0.25,3.15c0,1.36667 0.38333,5.38333 1.15,12.05c0.06667,0.76667 0.36667,3.18333 0.9,7.25c0.1,0.76667 0.15,2.45 0.15,5.05c0,0.03333 -0.01667,0.43333 -0.05,1.2c-0.3,-1.03333 -0.7,-2.3 -1.2,-3.8c-0.7,-1.96667 -1.4,-3.86667 -2.1,-5.7c-0.46667,-1.26667 -1.25,-2.1 -2.35,-2.5c-1.2,-0.43333 -2.03333,-1.11667 -2.5,-2.05c-1.46667,-3 -2.35,-5.15 -2.65,-6.45c-1.73333,-4.73333 -4.48333,-13.11667 -8.25,-25.15l-0.6,0.15M584.69009,287.18408c3.63333,6.13333 10.78333,16.78333 21.45,31.95c8.86667,13.96667 13.3,25.23333 13.3,33.8c0,1.36667 -0.31667,2.63333 -0.95,3.8c-1,1.8 -2.6,2.7 -4.8,2.7c-3.3,0 -7,-4.56667 -11.1,-13.7c-1.63333,-3.66667 -4.18333,-10.51667 -7.65,-20.55c-1.3,-3.86667 -3.83333,-10.7 -7.6,-20.5c-3.1,-8.03333 -4.65,-12.31667 -4.65,-12.85c0,-2.56667 0.66667,-4.11667 2,-4.65M612.99009,339.73408c-1.73333,-4.3 -3.46667,-6.91667 -5.2,-7.85c-0.46667,0.16667 -0.7,0.4 -0.7,0.7c0,0.16667 0.06667,0.35 0.2,0.55h-0.2c-2.43333,-3.73333 -4.96667,-8.33333 -7.6,-13.8c-4.33333,-8.8 -6.68333,-13.55 -7.05,-14.25c-0.53333,0.33333 -0.8,0.93333 -0.8,1.8c0,0.16667 1.18333,3.16667 3.55,9c2.7,6.63333 4.48333,11.18333 5.35,13.65c2.5,7.13333 4.18333,11.68333 5.05,13.65c2.66667,6.1 4.95,9.15 6.85,9.15c1.06667,0 1.86667,-0.41667 2.4,-1.25c0.36667,-0.56667 0.55,-1.21667 0.55,-1.95c0,-2.3 -0.8,-5.43333 -2.4,-9.4M706.44009,286.18408c0,1.96667 -5.73333,11.73333 -17.2,29.3c-1.83333,2.8 -3.55,5.38333 -5.15,7.75c1.5,-0.86667 3.11667,-1.8 4.85,-2.8c2,-1.23333 5,-4.06667 9,-8.5c2.9,-3.2 5.9,-4.95 9,-5.25c-5.06667,4.66667 -10.28333,10.26667 -15.65,16.8c-5.23333,6.4 -7.85,10.3 -7.85,11.7c0,1.66667 0.08333,2.66667 0.25,3v0.5c2.33333,-0.5 8,-3.73333 17,-9.7c8.53333,-5.7 13.86667,-8.55 16,-8.55c1.43333,0 2.45,0.53333 3.05,1.6c0.3,0.6 0.45,1.23333 0.45,1.9c0,1.66667 -2.75,5.85 -8.25,12.55c-5.5,6.4 -8.25,9.71667 -8.25,9.95c0,0.83333 0.33333,1.71667 1,2.65c0.66667,0.9 1,1.76667 1,2.6c0,1.16667 -0.18333,2.2 -0.55,3.1c-0.26667,0.66667 -0.83333,1.63333 -1.7,2.9c0.9,0.4 2.91667,0.88333 6.05,1.45c3.03333,0.9 5.26667,2.41667 6.7,4.55v1.5c-3.5,0.4 -8.16667,0.86667 -14,1.4c-6.13333,0.56667 -9.8,0.85 -11,0.85c-2.46667,0 -4.2,-0.85 -5.2,-2.55c-0.53333,-0.9 -0.8,-1.83333 -0.8,-2.8c0,-1.93333 2.93333,-6.75 8.8,-14.45c4.2,-5.53333 7.26667,-9.35 9.2,-11.45c-5.1,4.06667 -9.25,7.25 -12.45,9.55c-5.93333,4.3 -10.45,6.45 -13.55,6.45c-1.26667,0 -3.43333,-2.46667 -6.5,-7.4c-0.6,-1 -1.13333,-1.88333 -1.6,-2.65c-0.16667,0.03333 -0.3,0.05 -0.4,0.05c-4.16667,0 -6.25,-2.25 -6.25,-6.75c0,-3.63333 6.46667,-12.71667 19.4,-27.25c10.13333,-11.4 17.75,-19.4 22.85,-24c0.43333,0.16667 0.88333,0.25 1.35,0.25c0.26667,0.13333 0.4,0.71667 0.4,1.75M692.24009,302.33408c-0.2,0 -0.38333,-0.03333 -0.55,-0.1c-2.83333,4 -4.45,6.25 -4.85,6.75c-2.26667,3.06667 -4.36667,5.66667 -6.3,7.8c-2.53333,2.6 -4.63333,4.9 -6.3,6.9c-3.23333,3.86667 -4.85,6.7 -4.85,8.5c0,0.06667 0.11667,0.6 0.35,1.6c0.2,0.36667 0.45,0.68333 0.75,0.95c-0.06667,0.16667 -0.1,0.35 -0.1,0.55c0,1.93333 0.91667,2.9 2.75,2.9c0.8,0 2.45,-1.35 4.95,-4.05c2.36667,-2.63333 3.55,-4.2 3.55,-4.7c0,-1.46667 -1.51667,-1.41667 -4.55,0.15c1.63333,-2.53333 3.68333,-5.88333 6.15,-10.05c6.13333,-10.33333 9.2,-15.86667 9.2,-16.6c0,-0.36667 -0.06667,-0.56667 -0.2,-0.6M699.64009,333.43408c-0.2,-0.06667 -0.3,-0.11667 -0.3,-0.15c-1,0.26667 -2.58333,1.08333 -4.75,2.45c-2.73333,1.73333 -4.95,3 -6.65,3.8c-0.53333,0.26667 -2.85,1.15 -6.95,2.65c-1.23333,0.46667 -1.85,1.2 -1.85,2.2c0,0.56667 0.15,1.11667 0.45,1.65c0.53333,0.9 1.41667,1.35 2.65,1.35c11.66667,-8.1 17.5,-12.56667 17.5,-13.4c0,-0.36667 -0.03333,-0.55 -0.1,-0.55M703.69009,340.88408c0,-0.36667 -0.05,-0.55 -0.15,-0.55l-0.2,0.05c-1.76667,2.2 -4.33333,5.88333 -7.7,11.05c-3.6,5.53333 -5.4,8.68333 -5.4,9.45c0,0.66667 0.06667,1.16667 0.2,1.5c0.36667,0.9 1.15,1.35 2.35,1.35l8.35,0.25c0.53333,0 1.36667,-0.11667 2.5,-0.35c1.36667,-0.26667 2.3,-0.58333 2.8,-0.95c-0.43333,-0.36667 -1.7,-0.81667 -3.8,-1.35c-2.5,-0.6 -4.26667,-1.05 -5.3,-1.35l0.35,-0.25c0.63333,-0.8 1.8,-1.98333 3.5,-3.55c0.86667,-0.76667 1.3,-1.68333 1.3,-2.75c0,-0.43333 -0.26667,-0.93333 -0.8,-1.5c-0.4,-0.43333 -1.25,-1.16667 -2.55,-2.2c3.03333,-5.36667 4.55,-8.31667 4.55,-8.85z" fill="#00ff00"/><path d="M622.34009,425.48408c0,-1.2 0.61667,-2.51667 1.85,-3.95c1.23333,-1.43333 1.85,-1.21667 1.85,0.65c0,0.56667 -0.3,1.5 -0.9,2.8c-0.63333,1.33333 -1.16667,2.1 -1.6,2.3c-0.36667,-0.3 -0.66667,-0.65 -0.9,-1.05c-0.2,-0.36667 -0.3,-0.61667 -0.3,-0.75M616.74009,410.58408c1.1,-1.53333 2.58333,-2.61667 4.45,-3.25c2.1,-0.7 3.15,0.08333 3.15,2.35c0,0.3 -1.13333,1.58333 -3.4,3.85c0.4,-0.26667 0.81667,-0.45 1.25,-0.55c1.53333,-0.33333 2.3,0.45 2.3,2.35c0,0.36667 -1.2,2.21667 -3.6,5.55c-2.7,3.7 -5,6.4 -6.9,8.1c-0.13333,0.3 -0.2,0.16667 -0.2,-0.4c0,-1.26667 0.5,-2.98333 1.5,-5.15c1.2,-2.33333 1.98333,-3.96667 2.35,-4.9c0.6,-1.53333 1.25,-2.75 1.95,-3.65c-1.66667,1.63333 -3.78333,3.65 -6.35,6.05c-6.73333,6.33333 -11.63333,10.8 -14.7,13.4c-0.26667,0 -0.43333,-0.01667 -0.5,-0.05c-0.13333,-0.06667 -0.2,-0.28333 -0.2,-0.65c0,-0.46667 1.71667,-2.61667 5.15,-6.45c3,-3.36667 5.71667,-6.28333 8.15,-8.75c1.13333,-1.13333 2.2,-2.46667 3.2,-4c0.53333,-0.86667 1.33333,-2.15 2.4,-3.85M679.59009,414.28408c1,1.6 2.58333,3.8 4.75,6.6c0.23333,0.16667 0.06667,0.25 -0.5,0.25c-1.06667,0 -2.55,-1.58333 -4.45,-4.75c-2.33333,-3.86667 -3.78333,-6.06667 -4.35,-6.6c0,0.2 0.18333,1.06667 0.55,2.6c0.36667,1.5 0.55,2.36667 0.55,2.6c0,0.56667 -0.18333,1.03333 -0.55,1.4c-0.43333,0.43333 -0.96667,0.56667 -1.6,0.4c0.06667,0.76667 0.03333,1.31667 -0.1,1.65c-0.26667,0.66667 -0.95,0.78333 -2.05,0.35h-0.15c0.46667,3.53333 1.13333,7.98333 2,13.35c0.5,3.03333 1.25,7.58333 2.25,13.65c-2,-3.36667 -4.36667,-9.13333 -7.1,-17.3c-2.4,-7.16667 -3.6,-11.18333 -3.6,-12.05c0,-1.8 0.06667,-2.98333 0.2,-3.55c0.43333,-2 1.46667,-3 3.1,-3c0.63333,0 1.08333,0.25 1.35,0.75c0.13333,0.26667 0.26667,0.58333 0.4,0.95c1.06667,-8.83333 3.16667,-9.93333 6.3,-3.3c0.83333,2.2 1.83333,4.2 3,6M585.94009,387.88408c0,-0.06667 1.46667,-0.78333 4.4,-2.15c3.23333,-1.76667 5.5,-3.68333 6.8,-5.75c0.86667,-1.4 2.71667,-2.61667 5.55,-3.65c3.16667,-1.16667 4.75,-0.36667 4.75,2.4c0,2.13333 -1.63333,3.65 -4.9,4.55c-2,0.56667 -4.31667,0.85 -6.95,0.85c-0.43333,0 -1.93333,0.63333 -4.5,1.9c-2.76667,1.36667 -4.43333,2.13333 -5,2.3c-0.1,0.26667 -0.15,0.11667 -0.15,-0.45M597.84009,359.38408c1.86667,-0.7 2.8,0.28333 2.8,2.95c0,0.53333 -0.2,1.06667 -0.6,1.6c-0.53333,0.76667 -1.26667,1.15 -2.2,1.15c-1.33333,0 -3.28333,-0.98333 -5.85,-2.95v-0.75h1.85c0.53333,0 1.86667,-0.66667 4,-2M617.59009,287.23408c3.76667,12.03333 6.51667,20.41667 8.25,25.15c0.3,1.3 1.18333,3.45 2.65,6.45c0.46667,0.93333 1.3,1.61667 2.5,2.05c1.1,0.4 1.88333,1.23333 2.35,2.5c0.7,1.83333 1.4,3.73333 2.1,5.7c0.5,1.5 0.9,2.76667 1.2,3.8c0.03333,-0.76667 0.05,-1.16667 0.05,-1.2c0,-2.6 -0.05,-4.28333 -0.15,-5.05c-0.53333,-4.06667 -0.83333,-6.48333 -0.9,-7.25c-0.76667,-6.66667 -1.15,-10.68333 -1.15,-12.05l0.25,-3.15c0.36667,0 0.55,-0.03333 0.55,-0.1c1.13333,3.93333 2.6,9.98333 4.4,18.15c1.73333,7.83333 2.6,12.16667 2.6,13c0,0.56667 -0.2,1.13333 -0.6,1.7c-0.5,0.8 -1.2,1.2 -2.1,1.2c-1.16667,0 -2,-0.43333 -2.5,-1.3c-0.13333,0.6 -0.31667,1.51667 -0.55,2.75c0,2.7 -1.06667,4.05 -3.2,4.05c-2.86667,0 -5.91667,-6.75 -9.15,-20.25c-0.33333,-1.5 -2.73333,-13.5 -7.2,-36l0.6,-0.15M615.39009,349.13408c0,0.73333 -0.18333,1.38333 -0.55,1.95c-0.53333,0.83333 -1.33333,1.25 -2.4,1.25c-1.9,0 -4.18333,-3.05 -6.85,-9.15c-0.86667,-1.96667 -2.55,-6.51667 -5.05,-13.65c-0.86667,-2.46667 -2.65,-7.01667 -5.35,-13.65c-2.36667,-5.83333 -3.55,-8.83333 -3.55,-9c0,-0.86667 0.26667,-1.46667 0.8,-1.8c0.36667,0.7 2.71667,5.45 7.05,14.25c2.63333,5.46667 5.16667,10.06667 7.6,13.8h0.2c-0.13333,-0.2 -0.2,-0.38333 -0.2,-0.55c0,-0.3 0.23333,-0.53333 0.7,-0.7c1.73333,0.93333 3.46667,3.55 5.2,7.85c1.6,3.96667 2.4,7.1 2.4,9.4M701.69009,351.93408c0.53333,0.56667 0.8,1.06667 0.8,1.5c0,1.06667 -0.43333,1.98333 -1.3,2.75c-1.7,1.56667 -2.86667,2.75 -3.5,3.55l-0.35,0.25c1.03333,0.3 2.8,0.75 5.3,1.35c2.1,0.53333 3.36667,0.98333 3.8,1.35c-0.5,0.36667 -1.43333,0.68333 -2.8,0.95c-1.13333,0.23333 -1.96667,0.35 -2.5,0.35l-8.35,-0.25c-1.2,0 -1.98333,-0.45 -2.35,-1.35c-0.13333,-0.33333 -0.2,-0.83333 -0.2,-1.5c0,-0.76667 1.8,-3.91667 5.4,-9.45c3.36667,-5.16667 5.93333,-8.85 7.7,-11.05l0.2,-0.05c0.1,0 0.15,0.18333 0.15,0.55c0,0.53333 -1.51667,3.48333 -4.55,8.85c1.3,1.03333 2.15,1.76667 2.55,2.2M699.74009,333.98408c0,0.83333 -5.83333,5.3 -17.5,13.4c-1.23333,0 -2.11667,-0.45 -2.65,-1.35c-0.3,-0.53333 -0.45,-1.08333 -0.45,-1.65c0,-1 0.61667,-1.73333 1.85,-2.2c4.1,-1.5 6.41667,-2.38333 6.95,-2.65c1.7,-0.8 3.91667,-2.06667 6.65,-3.8c2.16667,-1.36667 3.75,-2.18333 4.75,-2.45c0,0.03333 0.1,0.08333 0.3,0.15c0.06667,0 0.1,0.18333 0.1,0.55M683.24009,319.53408c-2.46667,4.16667 -4.51667,7.51667 -6.15,10.05c3.03333,-1.56667 4.55,-1.61667 4.55,-0.15c0,0.5 -1.18333,2.06667 -3.55,4.7c-2.5,2.7 -4.15,4.05 -4.95,4.05c-1.83333,0 -2.75,-0.96667 -2.75,-2.9c0,-0.2 0.03333,-0.38333 0.1,-0.55c-0.3,-0.26667 -0.55,-0.58333 -0.75,-0.95c-0.23333,-1 -0.35,-1.53333 -0.35,-1.6c0,-1.8 1.61667,-4.63333 4.85,-8.5c1.66667,-2 3.76667,-4.3 6.3,-6.9c1.93333,-2.13333 4.03333,-4.73333 6.3,-7.8c0.4,-0.5 2.01667,-2.75 4.85,-6.75c0.16667,0.06667 0.35,0.1 0.55,0.1c0.13333,0.03333 0.2,0.23333 0.2,0.6c0,0.73333 -3.06667,6.26667 -9.2,16.6z" fill="#ffffff"/></g></g></svg>