<svg version="1.1" xmlns="http://www.w3.org/2000/svg" xmlns:xlink="http://www.w3.org/1999/xlink" width="443.7" height="117.5" viewBox="0,0,443.7,117.5"><g transform="translate(-418.15,-301.25)"><g data-paper-data="{&quot;isPaintingLayer&quot;:true}" fill-rule="nonzero" stroke="none" stroke-width="1" stroke-linecap="round" stroke-linejoin="miter" stroke-miterlimit="4" stroke-dasharray="" stroke-dashoffset="0" style="mix-blend-mode: normal"><path d="M439.55,305.9c0.43333,-0.1 0.85,-0.21667 1.25,-0.35c1.73333,-0.13333 3.46667,-0.25 5.2,-0.35c0.4,-0.13333 0.81667,-0.25 1.25,-0.35c1.9,0 3.8,0 5.7,0c0.36667,0.1 0.71667,0.21667 1.05,0.35c4.16667,0.1 8.33333,0.21667 12.5,0.35c0.43333,0.13333 0.85,0.25 1.25,0.35c0.26667,0.13333 0.51667,0.25 0.75,0.35c0.76667,0.06667 1.53333,0.13333 2.3,0.2c0.36667,0.1 0.73333,0.21667 1.1,0.35c0.83333,0.1 1.66667,0.21667 2.5,0.35c0.26667,0.13333 0.55,0.25 0.85,0.35c0.66667,0.13333 1.33333,0.25 2,0.35c0.33333,0.13333 0.68333,0.25 1.05,0.35c0.83333,0.13333 1.66667,0.26667 2.5,0.4c0.3,0.1 0.6,0.2 0.9,0.3c0.4,0.13333 0.81667,0.26667 1.25,0.4c0.3,0.1 0.6,0.21667 0.9,0.35c0.29115,0.0431 0.57448,0.07643 0.85,0.1c0.13945,-0.03034 0.27279,-0.06367 0.4,-0.1c0.23333,0 0.46667,-0.03333 0.7,-0.1v-0.1c0.3,0.13333 0.6,0.26667 0.9,0.4c0.16667,0.1 0.35,0.21667 0.55,0.35c0.3,0.1 0.6,0.21667 0.9,0.35c0.03997,0.02396 0.07331,0.04062 0.1,0.05c0.14167,0.05833 0.275,0.10833 0.4,0.15c0.36667,0.1 0.73333,0.21667 1.1,0.35c0.33333,0.1 0.68333,0.21667 1.05,0.35c0.36667,0.1 0.73333,0.21667 1.1,0.35c0.7,0.23333 1.41667,0.45 2.15,0.65c0.11549,0.03398 0.23216,0.06732 0.35,0.1c0.96237,0.11211 1.91237,0.21211 2.85,0.3c0.93333,0.23333 1.88333,0.48333 2.85,0.75c0.93333,0.23333 1.88333,0.48333 2.85,0.75c0.36667,0.06667 0.71667,0.16667 1.05,0.3c0.36667,0.13333 0.73333,0.25 1.1,0.35c0.33333,0.13333 0.68333,0.25 1.05,0.35c0.36667,0.2 0.73333,0.38333 1.1,0.55c0.23333,0.13333 0.46667,0.25 0.7,0.35c0.46667,0 0.93333,0 1.4,0c0.36667,0.13333 0.73333,0.25 1.1,0.35c0.23333,0.2 0.46667,0.38333 0.7,0.55c0.2,0.13333 0.38333,0.25 0.55,0.35c0.4,0.06667 0.81667,0.13333 1.25,0.2c0.36667,0.1 0.71667,0.21667 1.05,0.35c0.36667,0.1 0.73333,0.21667 1.1,0.35c0.33333,0.13333 0.68333,0.25 1.05,0.35c0.36667,0.13333 0.73333,0.25 1.1,0.35c0.33333,0.13333 0.68333,0.25 1.05,0.35c0.16667,0.13333 0.35,0.26667 0.55,0.4c0.33333,0.1 0.68333,0.2 1.05,0.3c0.50872,0.12721 1.00872,0.26055 1.5,0.4c0.10872,-0.05508 0.20872,-0.12174 0.3,-0.2c0.1,-0.16667 0.21667,-0.33333 0.35,-0.5c0.16667,-0.2 0.35,-0.38333 0.55,-0.55c0.16667,-0.16667 0.33333,-0.35 0.5,-0.55c0.2,-0.16667 0.38333,-0.35 0.55,-0.55c0.2,-0.16667 0.38333,-0.33333 0.55,-0.5c0.16667,-0.2 0.35,-0.38333 0.55,-0.55c0.1,-0.16667 0.21667,-0.35 0.35,-0.55c0.06667,-0.16667 0.11667,-0.33333 0.15,-0.5c0.13333,-0.2 0.25,-0.38333 0.35,-0.55c0.2,-0.13333 0.38333,-0.26667 0.55,-0.4c0.06667,-0.03333 0.13333,-0.08333 0.2,-0.15c0.3,-0.1 0.6,-0.21667 0.9,-0.35c0.16667,-0.16667 0.33333,-0.35 0.5,-0.55c0.2,-0.16667 0.38333,-0.33333 0.55,-0.5c0.16667,-0.2 0.35,-0.38333 0.55,-0.55c0.16667,-0.16667 0.33333,-0.35 0.5,-0.55c0.2,-0.16667 0.38333,-0.35 0.55,-0.55c0.2,-0.16667 0.38333,-0.33333 0.55,-0.5c0.16667,-0.2 0.35,-0.38333 0.55,-0.55c0.4,-0.16667 0.81667,-0.35 1.25,-0.55c0.16667,-0.16667 0.33333,-0.33333 0.5,-0.5c0.2,-0.2 0.38333,-0.38333 0.55,-0.55c0.16667,-0.16667 0.35,-0.35 0.55,-0.55c0.4,-0.16667 0.81667,-0.35 1.25,-0.55c0.16667,-0.16667 0.33333,-0.33333 0.5,-0.5c0.2,-0.13333 0.38333,-0.26667 0.55,-0.4c0.06667,-0.03333 0.13333,-0.08333 0.2,-0.15c0.3,-0.13333 0.6,-0.25 0.9,-0.35c0.26667,-0.16667 0.56667,-0.33333 0.9,-0.5c0.23333,-0.13333 0.46667,-0.26667 0.7,-0.4c0.1,-0.06667 0.21667,-0.11667 0.35,-0.15c0.3,-0.13333 0.6,-0.26667 0.9,-0.4c0.16667,-0.1 0.33333,-0.21667 0.5,-0.35c0.3,-0.06667 0.6,-0.11667 0.9,-0.15c0.3,-0.13333 0.6,-0.25 0.9,-0.35c0.53333,-0.2 1.06667,-0.4 1.6,-0.6c0.3,-0.1 0.6,-0.2 0.9,-0.3c0.3,-0.06667 0.6,-0.13333 0.9,-0.2c0.53333,-0.1 1.06667,-0.21667 1.6,-0.35c0.43333,-0.13333 0.85,-0.26667 1.25,-0.4c0.3,-0.1 0.6,-0.2 0.9,-0.3c0.4,-0.13333 0.81667,-0.23333 1.25,-0.3c1.2,-0.23333 2.38333,-0.46667 3.55,-0.7v-0.1c6.66667,0 13.33333,0 20,0c0.43333,0.13333 0.85,0.25 1.25,0.35c0.8,0.13333 1.58333,0.28333 2.35,0.45c0.4,0.06667 0.81667,0.15 1.25,0.25c0.76667,0.13333 1.53333,0.26667 2.3,0.4c0.36667,0.1 0.73333,0.21667 1.1,0.35c0.16667,0.13333 0.33333,0.25 0.5,0.35c0.36667,0.13333 0.73333,0.25 1.1,0.35c0.3,0.2 0.6,0.38333 0.9,0.55c0.3,0.16667 0.58333,0.35 0.85,0.55c0.2,0.16667 0.38333,0.33333 0.55,0.5c0.36667,0.2 0.73333,0.38333 1.1,0.55c0.23333,0.16667 0.46667,0.35 0.7,0.55c0.16667,0.16667 0.35,0.33333 0.55,0.5c0.16667,0.2 0.33333,0.38333 0.5,0.55c0.2,0.2 0.38333,0.38333 0.55,0.55c0.16667,0.16667 0.35,0.35 0.55,0.55c0.1,0.16667 0.21667,0.33333 0.35,0.5c0.1,0.2 0.21667,0.38333 0.35,0.55c0.13333,0.16667 0.25,0.35 0.35,0.55c0.06667,0.16667 0.13333,0.33333 0.2,0.5c0.06667,0.2 0.11667,0.38333 0.15,0.55c0.06667,0.2 0.13333,0.38333 0.2,0.55c0.1,0.16667 0.21667,0.35 0.35,0.55c0.13333,0.16667 0.25,0.33333 0.35,0.5c0.06667,0.2 0.13333,0.38333 0.2,0.55c0.16667,0 0.33333,0 0.5,0c0.26667,-0.16667 0.51667,-0.35 0.75,-0.55c0.1,-0.16667 0.21667,-0.33333 0.35,-0.5c0.4,-0.13333 0.81667,-0.26667 1.25,-0.4c6.23333,-0.1 12.48333,-0.21667 18.75,-0.35c0.4,-0.1 0.81667,-0.21667 1.25,-0.35c3.4,-0.1 6.78333,-0.21667 10.15,-0.35c0.43333,-0.13333 0.85,-0.25 1.25,-0.35c4.3,0 8.58333,0 12.85,0c0.36667,0.1 0.73333,0.21667 1.1,0.35c3.73333,0 7.48333,0 11.25,0c0.4,-0.13333 0.81667,-0.25 1.25,-0.35c1.23333,-0.13333 2.48333,-0.25 3.75,-0.35c0.4,-0.13333 0.81667,-0.25 1.25,-0.35c2.86667,0 5.71667,0 8.55,0c0.36667,0.1 0.73333,0.21667 1.1,0.35c0.16667,0.16667 0.33333,0.33333 0.5,0.5c0.2,0.2 0.38333,0.38333 0.55,0.55c0.2,0.2 0.38333,0.38333 0.55,0.55c0.23333,0.16667 0.46667,0.35 0.7,0.55c0.16667,0.16667 0.35,0.33333 0.55,0.5c0.1,0.2 0.21667,0.38333 0.35,0.55c0.13333,0.16667 0.25,0.35 0.35,0.55c0.13333,0 0.25,0 0.35,0c0.2,-0.2 0.38333,-0.38333 0.55,-0.55c0.23333,-0.16667 0.46667,-0.35 0.7,-0.55c0.13333,-0.16667 0.25,-0.33333 0.35,-0.5c0.43333,-0.13333 0.86667,-0.23333 1.3,-0.3c0.76667,-0.16667 1.53333,-0.33333 2.3,-0.5c0.4,-0.06667 0.81667,-0.16667 1.25,-0.3c1.23333,-0.1 2.48333,-0.21667 3.75,-0.35c0.4,-0.13333 0.81667,-0.25 1.25,-0.35c2.2,-0.13333 4.4,-0.25 6.6,-0.35c0.4,-0.13333 0.81667,-0.25 1.25,-0.35c1.73333,-0.13333 3.46667,-0.26667 5.2,-0.4c0.4,-0.1 0.81667,-0.21667 1.25,-0.35c1,-0.1 2,-0.21667 3,-0.35c0.43333,-0.1 0.85,-0.21667 1.25,-0.35c1.26667,-0.13333 2.51667,-0.25 3.75,-0.35c0.43333,-0.13333 0.85,-0.25 1.25,-0.35c3.1,0 6.2,0 9.3,0c0.36667,0.1 0.71667,0.21667 1.05,0.35c0.13333,0.1 0.25,0.21667 0.35,0.35c0.36667,0.13333 0.73333,0.25 1.1,0.35c0.16667,0.13333 0.35,0.25 0.55,0.35c0.3,0.13333 0.58333,0.25 0.85,0.35c0.2,0.2 0.38333,0.38333 0.55,0.55c0.23333,0.2 0.46667,0.38333 0.7,0.55c0.2,0.16667 0.38333,0.35 0.55,0.55c0.2,0.16667 0.38333,0.33333 0.55,0.5c0.1,0.2 0.21667,0.38333 0.35,0.55c0.23333,0.16667 0.46667,0.35 0.7,0.55c0.13333,0.16667 0.25,0.33333 0.35,0.5c0.13333,0.2 0.26667,0.38333 0.4,0.55c0.1,0.2 0.21667,0.38333 0.35,0.55c0.1,0.16667 0.21667,0.35 0.35,0.55c0.1,0.16667 0.21667,0.33333 0.35,0.5c0.13333,0.13333 0.25,0.25 0.35,0.35c0.06667,0.06667 0.13333,0.1 0.2,0.1c0.3,0 0.6,-0.03333 0.9,-0.1c0.03333,-0.16667 0.08333,-0.33333 0.15,-0.5c0.06667,-0.2 0.13333,-0.38333 0.2,-0.55c0,-0.16667 0,-0.35 0,-0.55c0.1,-0.16667 0.21667,-0.33333 0.35,-0.5c0.06667,-0.2 0.11667,-0.38333 0.15,-0.55c0.06667,-0.16667 0.13333,-0.35 0.2,-0.55c0,-0.16667 0,-0.35 0,-0.55c0,-0.16667 0,-0.33333 0,-0.5c0.06667,-0.2 0.13333,-0.38333 0.2,-0.55c0.1,-0.16667 0.21667,-0.35 0.35,-0.55c0.16667,-0.1 0.33333,-0.21667 0.5,-0.35c0.3,-0.1 0.6,-0.21667 0.9,-0.35c0.2,-0.13333 0.38333,-0.25 0.55,-0.35c0.3,-0.06667 0.6,-0.11667 0.9,-0.15c1.5,-0.13333 2.98333,-0.26667 4.45,-0.4c0.43333,-0.1 0.85,-0.21667 1.25,-0.35c1.96667,-0.13333 3.93333,-0.25 5.9,-0.35c0.4,-0.13333 0.81667,-0.25 1.25,-0.35c1.23333,-0.13333 2.48333,-0.25 3.75,-0.35c0.4,-0.13333 0.81667,-0.26667 1.25,-0.4c1,-0.1 2.01667,-0.21667 3.05,-0.35c0.4,-0.1 0.81667,-0.21667 1.25,-0.35c1,-0.1 2,-0.21667 3,-0.35c0.43333,-0.1 0.85,-0.21667 1.25,-0.35c1.5,-0.13333 3,-0.25 4.5,-0.35c0.4,-0.13333 0.81667,-0.25 1.25,-0.35c1,-0.13333 2,-0.25 3,-0.35c0.43333,-0.13333 0.85,-0.26667 1.25,-0.4c0.8,-0.1 1.58333,-0.21667 2.35,-0.35c0.4,-0.1 0.81667,-0.21667 1.25,-0.35c0.76667,-0.1 1.53333,-0.23333 2.3,-0.4c0.43333,-0.1 0.85,-0.2 1.25,-0.3c1.03333,-0.13333 2.05,-0.25 3.05,-0.35c0.4,-0.13333 0.81667,-0.25 1.25,-0.35c2.13333,0 4.26667,0 6.4,0c0.36667,0.1 0.73333,0.21667 1.1,0.35c0.1,0.1 0.21667,0.21667 0.35,0.35c0.36667,0.1 0.71667,0.21667 1.05,0.35c0.2,0.16667 0.38333,0.35 0.55,0.55c0.2,0.16667 0.38333,0.33333 0.55,0.5c0.16667,0.2 0.35,0.38333 0.55,0.55c0.23333,0.16667 0.46667,0.35 0.7,0.55c0.16667,0.16667 0.35,0.35 0.55,0.55c0.1,0.16667 0.21667,0.33333 0.35,0.5c0.1,0.2 0.21667,0.38333 0.35,0.55c0.06667,0.16667 0.11667,0.35 0.15,0.55c0,0.16667 0,0.33333 0,0.5c0.13333,0.2 0.26667,0.38333 0.4,0.55c0.1,0.16667 0.21667,0.35 0.35,0.55c0.1,0.16667 0.21667,0.33333 0.35,0.5c0.1,0.2 0.21667,0.38333 0.35,0.55c0,0.2 0,0.38333 0,0.55c0,0.16667 0,0.35 0,0.55c0.13333,0 0.25,0 0.35,0c0.13333,-0.2 0.25,-0.38333 0.35,-0.55c0.06667,-0.16667 0.13333,-0.35 0.2,-0.55c0.06667,-0.16667 0.11667,-0.35 0.15,-0.55c0,-0.16667 0,-0.33333 0,-0.5c0,-0.2 0,-0.38333 0,-0.55c0,-0.16667 0,-0.35 0,-0.55c0,-0.16667 0,-0.33333 0,-0.5c0,-0.2 0,-0.38333 0,-0.55c0,-0.16667 0,-0.35 0,-0.55c0.13333,-0.16667 0.26667,-0.33333 0.4,-0.5c0.1,-0.2 0.21667,-0.38333 0.35,-0.55c0.4,-0.13333 0.81667,-0.25 1.25,-0.35c3.13333,-0.13333 6.28333,-0.25 9.45,-0.35c0.43333,-0.13333 0.85,-0.26667 1.25,-0.4c2.66667,-0.1 5.35,-0.21667 8.05,-0.35c0.4,-0.1 0.81667,-0.21667 1.25,-0.35c7.83333,0 15.68333,0 23.55,0c0.43333,0.13333 0.85,0.25 1.25,0.35c1.96667,0.13333 3.93333,0.25 5.9,0.35c0.36667,0.13333 0.71667,0.26667 1.05,0.4c0.36667,0.1 0.73333,0.21667 1.1,0.35c0.33333,0.1 0.68333,0.21667 1.05,0.35c0.36667,0.1 0.73333,0.21667 1.1,0.35c0.33333,0.13333 0.68333,0.25 1.05,0.35c0.16667,0.16667 0.35,0.35 0.55,0.55c0.16667,0.16667 0.33333,0.33333 0.5,0.5c0.13333,0.2 0.26667,0.38333 0.4,0.55c0.03333,0.2 0.08333,0.38333 0.15,0.55c0.13333,0.16667 0.25,0.35 0.35,0.55c0.06667,0.16667 0.13333,0.33333 0.2,0.5c0.06667,0.2 0.11667,0.38333 0.15,0.55c0.13333,0.16667 0.26667,0.35 0.4,0.55c0.1,0.16667 0.21667,0.33333 0.35,0.5c0,0.2 0,0.38333 0,0.55c0,0.2 0,0.38333 0,0.55c0.1,0.16667 0.21667,0.35 0.35,0.55c0.1,0.16667 0.21667,0.33333 0.35,0.5c0.06667,0.2 0.13333,0.38333 0.2,0.55c0.1,0.16667 0.21667,0.35 0.35,0.55c0.06667,0.16667 0.11667,0.33333 0.15,0.5c0,0.2 0,0.38333 0,0.55c0,0.2 0,0.38333 0,0.55c0,0.16667 0,0.35 0,0.55c0.13333,0.16667 0.25,0.33333 0.35,0.5c0.13333,0.2 0.26667,0.38333 0.4,0.55c0,0.16667 0,0.35 0,0.55c0,0.16667 0,0.33333 0,0.5c0,0.2 0,0.38333 0,0.55c0,0.2 0,0.38333 0,0.55c0.1,0.16667 0.21667,0.35 0.35,0.55c0.06667,0.16667 0.11667,0.33333 0.15,0.5c0.06667,0.2 0.13333,0.38333 0.2,0.55c0,0.16667 0,0.35 0,0.55c0,0.16667 0,0.33333 0,0.5c0,0.2 0,0.38333 0,0.55c0,0.2 0,0.38333 0,0.55c0,0.16667 0,0.35 0,0.55c0.06667,0.16667 0.11667,0.33333 0.15,0.5c0.13333,0.2 0.26667,0.38333 0.4,0.55c0.03333,0.16667 0.08333,0.35 0.15,0.55c0,0.16667 0,0.33333 0,0.5c0,0.56667 0,1.11667 0,1.65c0,0.86667 0,1.75 0,2.65c0,1.43333 0,2.86667 0,4.3c0,1.96667 0,3.93333 0,5.9c0,0.33333 0,0.68333 0,1.05c0,0.16667 0,0.35 0,0.55c0,0.16667 0,0.35 0,0.55c0,0.16667 0,0.33333 0,0.5c0,0.2 0,0.38333 0,0.55c0,0.16667 0,0.35 0,0.55c0,0.16667 0,0.33333 0,0.5c0,0.2 0,0.38333 0,0.55c0,0.53333 0,1.06667 0,1.6c0,0.2 0,0.38333 0,0.55c0,1.6 0,3.2 0,4.8c0,1.1 0,2.18333 0,3.25c0,0.16667 0,0.33333 0,0.5c-0.1,0.2 -0.21667,0.38333 -0.35,0.55c-0.13333,0.16667 -0.25,0.35 -0.35,0.55c-0.13333,0.1 -0.25,0.21667 -0.35,0.35c-0.36667,0.13333 -0.73333,0.25 -1.1,0.35c-0.1,0.13333 -0.21667,0.25 -0.35,0.35c-0.36667,0.13333 -0.71667,0.25 -1.05,0.35c-0.13333,0.13333 -0.25,0.26667 -0.35,0.4c-0.3,0.03333 -0.6,0.1 -0.9,0.2c-0.36667,0.1 -0.73333,0.2 -1.1,0.3c-0.33333,0.13333 -0.68333,0.25 -1.05,0.35c-0.53333,0.13333 -1.06667,0.26667 -1.6,0.4c0,0.16667 0,0.33333 0,0.5c0,0.2 0,0.38333 0,0.55c0,0.16667 0,0.35 0,0.55c0,0.16667 0,0.33333 0,0.5c0,0.2 0,0.38333 0,0.55c0,0.16667 0,0.35 0,0.55c0,0.16667 0,0.35 0,0.55c-0.06667,0.16667 -0.13333,0.33333 -0.2,0.5c0,0.2 0,0.38333 0,0.55c0,0.16667 0,0.35 0,0.55c0,0.16667 0,0.33333 0,0.5c0,0.2 0,0.38333 0,0.55c0,0.16667 0,0.35 0,0.55c-0.06667,0.16667 -0.11667,0.35 -0.15,0.55c-0.06667,0.16667 -0.13333,0.33333 -0.2,0.5c-0.13333,0.2 -0.25,0.38333 -0.35,0.55c0,0.16667 0,0.35 0,0.55c0.16667,0.16667 0.35,0.33333 0.55,0.5c0.16667,0.2 0.33333,0.38333 0.5,0.55c0.13333,0.13333 0.25,0.25 0.35,0.35c0.06667,0.06667 0.13333,0.1 0.2,0.1c0.53333,0.13333 1.06667,0.21667 1.6,0.25c0.3,0.13333 0.6,0.26667 0.9,0.4c0.66667,0.1 1.31667,0.21667 1.95,0.35c0.3,0.1 0.6,0.2 0.9,0.3c0.43333,0.13333 0.85,0.26667 1.25,0.4c0.3,0.13333 0.6,0.25 0.9,0.35c0.23333,0.16667 0.46667,0.35 0.7,0.55c0.2,0.16667 0.38333,0.35 0.55,0.55c0.16667,0.16667 0.35,0.33333 0.55,0.5c0.16667,0.2 0.33333,0.38333 0.5,0.55c0.13333,0.16667 0.26667,0.35 0.4,0.55c0.1,0.16667 0.21667,0.33333 0.35,0.5c0,0.2 0,0.38333 0,0.55c0,0.53333 0,1.06667 0,1.6c0,0.53333 0,1.06667 0,1.6c0,0.73333 0,1.45 0,2.15c0,0.9 0,1.8 0,2.7c0,1.43333 0,2.85 0,4.25c0,1.1 0,2.18333 0,3.25c0,0.16667 0,0.33333 0,0.5c0,0.2 0,0.38333 0,0.55c0,0.2 0,0.38333 0,0.55c0,0.16667 0,0.35 0,0.55c0,0.16667 0,0.33333 0,0.5c0,0.2 0,0.38333 0,0.55c0,0.16667 0,0.35 0,0.55c0,0.33333 0,0.68333 0,1.05c0,0.2 0,0.38333 0,0.55c-0.13333,0.16667 -0.25,0.35 -0.35,0.55c-0.13333,0.16667 -0.26667,0.33333 -0.4,0.5c0,0.2 0,0.38333 0,0.55c0,0.16667 0,0.35 0,0.55c0,0.16667 0,0.33333 0,0.5c0,0.2 0,0.38333 0,0.55c0,0.2 0,0.38333 0,0.55c0,0.16667 0,0.35 0,0.55c-0.1,0.16667 -0.21667,0.33333 -0.35,0.5c-0.1,0.2 -0.21667,0.38333 -0.35,0.55c0,0.16667 0,0.35 0,0.55c0,0.16667 0,0.33333 0,0.5c0,0.2 0,0.38333 0,0.55c0,0.2 0,0.38333 0,0.55c0,0.16667 0,0.35 0,0.55c0,0.16667 0,0.33333 0,0.5c0,0.2 0,0.38333 0,0.55c0,0.16667 0,0.35 0,0.55c0,0.16667 0,0.33333 0,0.5c0,0.2 0,0.38333 0,0.55c-0.1,0.2 -0.21667,0.38333 -0.35,0.55c-0.13333,0.16667 -0.25,0.35 -0.35,0.55c-0.13333,0.16667 -0.25,0.33333 -0.35,0.5c-0.2,0.2 -0.38333,0.38333 -0.55,0.55c-0.16667,0.16667 -0.35,0.35 -0.55,0.55c-0.33333,0.1 -0.68333,0.2 -1.05,0.3c-0.6,0.13333 -1.2,0.28333 -1.8,0.45c-0.36667,0.1 -0.71667,0.18333 -1.05,0.25c-0.6,0.16667 -1.2,0.31667 -1.8,0.45c-0.36667,0.1 -0.71667,0.2 -1.05,0.3c-2.93333,0.13333 -5.85,0.26667 -8.75,0.4c-0.43333,0.1 -0.85,0.21667 -1.25,0.35c-2.03333,0.1 -4.06667,0.21667 -6.1,0.35c-0.33333,0.1 -0.68333,0.21667 -1.05,0.35c-1.56667,0.13333 -3.11667,0.25 -4.65,0.35c-0.36667,0.13333 -0.71667,0.25 -1.05,0.35c-3,0.13333 -5.98333,0.25 -8.95,0.35c-0.36667,0.13333 -0.71667,0.26667 -1.05,0.4c-6.66667,0 -13.33333,0 -20,0c-0.43333,-0.13333 -0.85,-0.26667 -1.25,-0.4c-1.73333,-0.1 -3.46667,-0.21667 -5.2,-0.35c-0.4,-0.1 -0.81667,-0.21667 -1.25,-0.35c-0.13333,-0.1 -0.25,-0.21667 -0.35,-0.35c-0.36667,-0.13333 -0.73333,-0.25 -1.1,-0.35c-0.1,-0.13333 -0.21667,-0.25 -0.35,-0.35c-0.33333,-0.13333 -0.68333,-0.25 -1.05,-0.35c-0.13333,-0.2 -0.25,-0.38333 -0.35,-0.55c-0.23333,-0.2 -0.48333,-0.38333 -0.75,-0.55c-0.16667,-0.16667 -0.33333,-0.35 -0.5,-0.55c-0.13333,-0.16667 -0.25,-0.33333 -0.35,-0.5c-0.06667,-0.2 -0.13333,-0.38333 -0.2,-0.55c-0.13333,-0.16667 -0.25,-0.35 -0.35,-0.55c-0.16667,-0.16667 -0.35,-0.33333 -0.55,-0.5c-0.1,-0.2 -0.21667,-0.38333 -0.35,-0.55c-0.06667,-0.16667 -0.13333,-0.35 -0.2,-0.55c-0.1,-0.16667 -0.21667,-0.35 -0.35,-0.55c-0.1,0.13333 -0.21667,0.26667 -0.35,0.4c-0.1,0.16667 -0.21667,0.33333 -0.35,0.5c0,0.2 0,0.38333 0,0.55c0,0.16667 0,0.35 0,0.55c0,0.16667 0,0.33333 0,0.5c-0.06667,0.2 -0.13333,0.38333 -0.2,0.55c-0.1,0.16667 -0.21667,0.35 -0.35,0.55c-0.16667,0.16667 -0.33333,0.35 -0.5,0.55c-0.13333,0.16667 -0.26667,0.33333 -0.4,0.5c-0.16667,0.2 -0.33333,0.38333 -0.5,0.55c-0.2,0.16667 -0.38333,0.35 -0.55,0.55c-0.16667,0.1 -0.35,0.21667 -0.55,0.35c-0.03333,0.06667 -0.1,0.1 -0.2,0.1c-0.26667,0.1 -0.55,0.18333 -0.85,0.25c-0.6,0.13333 -1.2,0.26667 -1.8,0.4c-0.36667,0.1 -0.71667,0.2 -1.05,0.3c-2.73333,0.13333 -5.46667,0.25 -8.2,0.35c-0.36667,0.13333 -0.73333,0.26667 -1.1,0.4c-2.86667,0 -5.71667,0 -8.55,0c-0.43333,-0.13333 -0.85,-0.26667 -1.25,-0.4c-1.13333,0 -2.26667,0 -3.4,0c-0.36667,0.13333 -0.73333,0.25 -1.1,0.35c-0.56667,0.13333 -1.15,0.28333 -1.75,0.45c-0.36667,0.06667 -0.73333,0.16667 -1.1,0.3c-0.46667,0 -0.93333,0 -1.4,0c-0.43333,-0.13333 -0.85,-0.25 -1.25,-0.35c-0.2,-0.2 -0.38333,-0.38333 -0.55,-0.55c-0.16667,-0.16667 -0.35,-0.35 -0.55,-0.55c-0.16667,-0.16667 -0.33333,-0.33333 -0.5,-0.5c-0.2,-0.2 -0.38333,-0.38333 -0.55,-0.55c-0.13333,-0.2 -0.25,-0.38333 -0.35,-0.55c-0.23333,-0.16667 -0.48333,-0.35 -0.75,-0.55c-0.16667,0 -0.33333,0 -0.5,0c-0.13333,0.13333 -0.25,0.26667 -0.35,0.4c-0.06667,0.03333 -0.13333,0.06667 -0.2,0.1c-0.36667,0.16667 -0.71667,0.3 -1.05,0.4c-0.13333,0.13333 -0.26667,0.25 -0.4,0.35c-0.33333,0.13333 -0.68333,0.26667 -1.05,0.4c-0.13333,0.1 -0.25,0.21667 -0.35,0.35c-0.3,0.03333 -0.6,0.1 -0.9,0.2c-0.36667,0.1 -0.71667,0.2 -1.05,0.3c-0.36667,0.13333 -0.73333,0.26667 -1.1,0.4c-8.43333,0.1 -16.88333,0.21667 -25.35,0.35c-0.36667,0.1 -0.71667,0.21667 -1.05,0.35c-11.43333,0 -22.86667,0 -34.3,0c-0.43333,-0.13333 -0.85,-0.25 -1.25,-0.35c-1.5,-0.13333 -2.98333,-0.25 -4.45,-0.35c-0.43333,-0.13333 -0.85,-0.26667 -1.25,-0.4c-0.06667,-0.1 -0.13333,-0.21667 -0.2,-0.35c-0.4,-0.1 -0.81667,-0.21667 -1.25,-0.35c-0.1,-0.16667 -0.21667,-0.35 -0.35,-0.55c-0.23333,-0.16667 -0.46667,-0.33333 -0.7,-0.5c-0.2,-0.2 -0.38333,-0.38333 -0.55,-0.55c-0.16667,-0.16667 -0.35,-0.35 -0.55,-0.55c-0.1,-0.16667 -0.21667,-0.33333 -0.35,-0.5c-0.1,-0.2 -0.21667,-0.38333 -0.35,-0.55c-0.06667,-0.2 -0.13333,-0.38333 -0.2,-0.55c-0.16667,-0.1 -0.33333,-0.21667 -0.5,-0.35c-0.2,0.16667 -0.38333,0.35 -0.55,0.55c-0.4,0.16667 -0.81667,0.33333 -1.25,0.5c-0.13333,0.13333 -0.25,0.26667 -0.35,0.4c-0.36667,0.1 -0.73333,0.21667 -1.1,0.35c-0.1,0.1 -0.21667,0.21667 -0.35,0.35c-0.3,0.06667 -0.58333,0.13333 -0.85,0.2c-0.36667,0.1 -0.73333,0.21667 -1.1,0.35c-0.36667,0.1 -0.71667,0.21667 -1.05,0.35c-7.16667,0 -14.31667,0 -21.45,0c-0.4,-0.13333 -0.81667,-0.25 -1.25,-0.35c-0.1,-0.13333 -0.21667,-0.26667 -0.35,-0.4c-0.36667,-0.1 -0.71667,-0.21667 -1.05,-0.35c-0.13333,-0.16667 -0.26667,-0.33333 -0.4,-0.5c-0.16667,-0.13333 -0.33333,-0.26667 -0.5,-0.4c-0.06667,-0.03333 -0.13333,-0.06667 -0.2,-0.1c-0.36667,-0.16667 -0.71667,-0.3 -1.05,-0.4c-0.2,0.1 -0.38333,0.21667 -0.55,0.35c-0.06667,0.16667 -0.13333,0.35 -0.2,0.55c-0.16667,0.16667 -0.33333,0.33333 -0.5,0.5c-0.43333,0.2 -0.85,0.38333 -1.25,0.55c-0.13333,0.13333 -0.25,0.25 -0.35,0.35c-0.3,0.06667 -0.6,0.13333 -0.9,0.2c-2.5,0.1 -5,0.21667 -7.5,0.35c-0.36667,0.1 -0.73333,0.21667 -1.1,0.35c-1.06667,0.13333 -2.13333,0.25 -3.2,0.35c-0.36667,0.13333 -0.71667,0.25 -1.05,0.35c-0.83333,0.13333 -1.66667,0.25 -2.5,0.35c-0.36667,0.13333 -0.73333,0.26667 -1.1,0.4c-3.56667,0 -7.13333,0 -10.7,0c-0.43333,-0.13333 -0.85,-0.26667 -1.25,-0.4c-0.3,-0.1 -0.6,-0.2 -0.9,-0.3c-0.4,-0.13333 -0.81667,-0.26667 -1.25,-0.4c-0.06667,-0.1 -0.13333,-0.21667 -0.2,-0.35c-0.4,-0.13333 -0.81667,-0.25 -1.25,-0.35c-0.1,-0.2 -0.21667,-0.38333 -0.35,-0.55c-0.23333,-0.16667 -0.46667,-0.35 -0.7,-0.55c-0.16667,-0.16667 -0.35,-0.33333 -0.55,-0.5c-0.1,-0.2 -0.21667,-0.38333 -0.35,-0.55c-0.06667,-0.16667 -0.11667,-0.35 -0.15,-0.55c-0.13333,-0.16667 -0.26667,-0.33333 -0.4,-0.5c-0.1,-0.2 -0.21667,-0.38333 -0.35,-0.55c0,-0.16667 0,-0.35 0,-0.55c0,-0.16667 0,-0.35 0,-0.55c-0.1,-0.16667 -0.21667,-0.33333 -0.35,-0.5c-0.1,-0.2 -0.21667,-0.38333 -0.35,-0.55c0,-0.16667 0,-0.35 0,-0.55c-0.06667,-0.1 -0.13333,-0.21667 -0.2,-0.35c-0.16667,0.2 -0.33333,0.38333 -0.5,0.55c-0.13333,0.16667 -0.25,0.35 -0.35,0.55c-0.26667,0.16667 -0.51667,0.33333 -0.75,0.5c-0.16667,0.2 -0.33333,0.38333 -0.5,0.55c-0.13333,0.13333 -0.26667,0.25 -0.4,0.35c-0.03333,0.06667 -0.08333,0.11667 -0.15,0.15c-0.36667,0.13333 -0.73333,0.26667 -1.1,0.4c-0.1,0.1 -0.21667,0.21667 -0.35,0.35c-0.33333,0.13333 -0.68333,0.25 -1.05,0.35c-0.13333,0.13333 -0.25,0.25 -0.35,0.35c-0.36667,0.13333 -0.73333,0.25 -1.1,0.35c-0.1,0.13333 -0.21667,0.26667 -0.35,0.4c-0.36667,0.1 -0.71667,0.21667 -1.05,0.35c-0.13333,0.1 -0.25,0.21667 -0.35,0.35c-0.36667,0.1 -0.73333,0.21667 -1.1,0.35c-0.1,0.13333 -0.21667,0.25 -0.35,0.35c-0.3,0.06667 -0.6,0.13333 -0.9,0.2c-0.53333,0.1 -1.06667,0.21667 -1.6,0.35c-0.46667,0.16667 -0.95,0.35 -1.45,0.55c-0.1,0.1 -0.21667,0.21667 -0.35,0.35c-0.3,0.03333 -0.6,0.08333 -0.9,0.15c-0.56667,0.13333 -1.15,0.26667 -1.75,0.4c-0.36667,0.1 -0.73333,0.2 -1.1,0.3c-0.6,0.13333 -1.18333,0.28333 -1.75,0.45c-0.36667,0.06667 -0.73333,0.16667 -1.1,0.3c-4.5,0 -9.01667,0 -13.55,0c-0.43333,-0.13333 -0.85,-0.25 -1.25,-0.35c-0.53333,-0.13333 -1.06667,-0.26667 -1.6,-0.4c-0.43333,-0.1 -0.85,-0.21667 -1.25,-0.35c-0.3,-0.1 -0.6,-0.2 -0.9,-0.3c-0.96667,-0.26667 -1.91667,-0.53333 -2.85,-0.8c-1.13333,-0.33333 -2.26667,-0.65 -3.4,-0.95c-0.96667,-0.3 -1.91667,-0.56667 -2.85,-0.8c-0.13333,-0.1 -0.25,-0.21667 -0.35,-0.35c-0.36667,-0.1 -0.73333,-0.2 -1.1,-0.3c-0.53333,-0.16667 -1.06667,-0.31667 -1.6,-0.45c-0.43333,-0.1 -0.85,-0.2 -1.25,-0.3c-0.13333,-0.13333 -0.25,-0.25 -0.35,-0.35c-0.36667,-0.13333 -0.73333,-0.26667 -1.1,-0.4c-0.03333,-0.1 -0.08333,-0.21667 -0.15,-0.35c-0.43333,-0.1 -0.85,-0.21667 -1.25,-0.35c-0.2,-0.16667 -0.38333,-0.35 -0.55,-0.55c-0.16667,-0.16667 -0.35,-0.33333 -0.55,-0.5c-0.16667,-0.2 -0.33333,-0.38333 -0.5,-0.55c-0.2,-0.16667 -0.38333,-0.35 -0.55,-0.55c-0.13333,-0.16667 -0.25,-0.33333 -0.35,-0.5c-0.13333,-0.2 -0.25,-0.38333 -0.35,-0.55c-0.06667,-0.16667 -0.13333,-0.35 -0.2,-0.55c-0.16667,-0.16667 -0.35,-0.35 -0.55,-0.55c-0.1,-0.16667 -0.21667,-0.33333 -0.35,-0.5c-0.23333,-0.2 -0.46667,-0.38333 -0.7,-0.55c-0.13333,-0.16667 -0.25,-0.35 -0.35,-0.55c0,-0.16667 0,-0.33333 0,-0.5c0,-0.2 0,-0.38333 0,-0.55c-0.13333,0 -0.25,0 -0.35,0c-0.13333,0.16667 -0.25,0.35 -0.35,0.55c-0.13333,0.16667 -0.26667,0.33333 -0.4,0.5c-0.1,0.13333 -0.21667,0.25 -0.35,0.35c-0.3,0.13333 -0.6,0.26667 -0.9,0.4c-0.16667,0.16667 -0.33333,0.33333 -0.5,0.5c-0.2,0.2 -0.38333,0.38333 -0.55,0.55c-0.16667,0.16667 -0.35,0.35 -0.55,0.55c-0.16667,0.16667 -0.33333,0.33333 -0.5,0.5c-0.2,0.2 -0.38333,0.38333 -0.55,0.55c-0.16667,0.2 -0.35,0.38333 -0.55,0.55c-0.16667,0.16667 -0.35,0.35 -0.55,0.55c-0.23333,0.16667 -0.46667,0.33333 -0.7,0.5c-0.23333,0.2 -0.46667,0.38333 -0.7,0.55c-0.3,0.16667 -0.6,0.35 -0.9,0.55c-0.16667,0.16667 -0.35,0.33333 -0.55,0.5c-0.23333,0.2 -0.46667,0.38333 -0.7,0.55c-0.23333,0.16667 -0.48333,0.33333 -0.75,0.5c-0.26667,0.2 -0.55,0.4 -0.85,0.6c-0.23333,0.16667 -0.48333,0.33333 -0.75,0.5c-0.26667,0.2 -0.55,0.38333 -0.85,0.55c-0.23333,0.13333 -0.48333,0.25 -0.75,0.35c-0.46667,0.13333 -0.93333,0.25 -1.4,0.35c-0.23333,0.2 -0.48333,0.38333 -0.75,0.55c-0.26667,0.16667 -0.55,0.35 -0.85,0.55c-0.3,0.16667 -0.6,0.35 -0.9,0.55c-0.23333,0.16667 -0.46667,0.33333 -0.7,0.5c-0.13333,0.13333 -0.26667,0.25 -0.4,0.35c-0.26667,0.06667 -0.55,0.13333 -0.85,0.2c-0.53333,0.1 -1.08333,0.21667 -1.65,0.35c-0.23333,0.16667 -0.46667,0.35 -0.7,0.55c-0.1,0.1 -0.21667,0.21667 -0.35,0.35c-0.3,0.06667 -0.6,0.11667 -0.9,0.15c-0.76667,0.13333 -1.53333,0.28333 -2.3,0.45c-0.43333,0.06667 -0.85,0.15 -1.25,0.25c-0.76667,0.13333 -1.53333,0.28333 -2.3,0.45c-0.43333,0.06667 -0.86667,0.16667 -1.3,0.3c-11.9,0 -23.8,0 -35.7,0c-0.4,-0.13333 -0.81667,-0.25 -1.25,-0.35c-1.46667,-0.13333 -2.95,-0.25 -4.45,-0.35c-0.43333,-0.13333 -0.85,-0.26667 -1.25,-0.4c-0.3,-0.1 -0.6,-0.2 -0.9,-0.3c-0.4,-0.13333 -0.81667,-0.26667 -1.25,-0.4c-0.76667,-0.1 -1.53333,-0.21667 -2.3,-0.35c-0.43333,-0.1 -0.85,-0.23333 -1.25,-0.4c-0.3,-0.1 -0.6,-0.2 -0.9,-0.3c-0.43333,-0.13333 -0.85,-0.26667 -1.25,-0.4c-0.3,-0.1 -0.6,-0.2 -0.9,-0.3c-0.43333,-0.13333 -0.85,-0.26667 -1.25,-0.4c-0.73333,-0.23333 -1.45,-0.46667 -2.15,-0.7c-0.13333,-0.1 -0.25,-0.21667 -0.35,-0.35c-0.36667,-0.13333 -0.73333,-0.25 -1.1,-0.35c-0.03333,-0.13333 -0.08333,-0.25 -0.15,-0.35c-0.43333,-0.13333 -0.85,-0.25 -1.25,-0.35c-0.13333,-0.2 -0.25,-0.38333 -0.35,-0.55c-0.23333,-0.2 -0.48333,-0.38333 -0.75,-0.55c-0.1,-0.16667 -0.21667,-0.35 -0.35,-0.55c-0.03333,-0.16667 -0.08333,-0.33333 -0.15,-0.5c-0.06667,-0.2 -0.13333,-0.38333 -0.2,-0.55c-0.1,-0.16667 -0.21667,-0.35 -0.35,-0.55c0,-0.16667 0,-0.33333 0,-0.5c-0.06667,-0.2 -0.13333,-0.38333 -0.2,-0.55c-0.03333,-0.16667 -0.08333,-0.35 -0.15,-0.55c-0.13333,-0.16667 -0.25,-0.35 -0.35,-0.55c-0.06667,-0.16667 -0.13333,-0.33333 -0.2,-0.5c-0.1,-0.2 -0.21667,-0.38333 -0.35,-0.55c-0.06667,-0.16667 -0.13333,-0.35 -0.2,-0.55c0,-0.16667 0,-0.33333 0,-0.5c-0.03333,-0.2 -0.08333,-0.38333 -0.15,-0.55c-0.13333,-0.16667 -0.25,-0.35 -0.35,-0.55c-0.06667,-0.16667 -0.13333,-0.35 -0.2,-0.55c0,-0.16667 0,-0.33333 0,-0.5c-0.06667,-0.2 -0.11667,-0.38333 -0.15,-0.55c-0.13333,-0.16667 -0.26667,-0.35 -0.4,-0.55c-0.03333,-0.16667 -0.08333,-0.33333 -0.15,-0.5c-0.13333,-0.2 -0.25,-0.38333 -0.35,-0.55c-0.13333,-0.16667 -0.25,-0.35 -0.35,-0.55c0,-0.16667 0,-0.35 0,-0.55c0,-0.16667 0,-0.33333 0,-0.5c-0.13333,-0.2 -0.26667,-0.38333 -0.4,-0.55c-0.1,-0.16667 -0.21667,-0.35 -0.35,-0.55c0,-0.16667 0,-0.33333 0,-0.5c-0.03333,-0.2 -0.08333,-0.38333 -0.15,-0.55c-0.06667,-0.16667 -0.13333,-0.35 -0.2,-0.55c-0.1,-0.16667 -0.21667,-0.35 -0.35,-0.55c0,-0.16667 0,-0.33333 0,-0.5c0,-0.2 0,-0.38333 0,-0.55c-0.13333,-0.16667 -0.25,-0.35 -0.35,-0.55c-0.13333,-0.16667 -0.25,-0.33333 -0.35,-0.5c-0.06667,-0.2 -0.13333,-0.38333 -0.2,-0.55c-0.1,-0.16667 -0.21667,-0.35 -0.35,-0.55c-0.06667,-0.16667 -0.13333,-0.35 -0.2,-0.55c0,-0.16667 0,-0.33333 0,-0.5c0,-0.2 0,-0.38333 0,-0.55c-0.03333,-0.16667 -0.08333,-0.35 -0.15,-0.55c-0.06667,-0.16667 -0.13333,-0.33333 -0.2,-0.5c-0.1,-0.2 -0.21667,-0.38333 -0.35,-0.55c0,-0.16667 0,-0.35 0,-0.55c0,-0.16667 0,-0.35 0,-0.55c-0.1,-0.16667 -0.21667,-0.33333 -0.35,-0.5c-0.13333,-0.2 -0.25,-0.38333 -0.35,-0.55c-0.06667,-0.16667 -0.13333,-0.35 -0.2,-0.55c-0.1,-0.16667 -0.21667,-0.33333 -0.35,-0.5c-0.06667,-0.2 -0.11667,-0.38333 -0.15,-0.55c0,-0.16667 0,-0.35 0,-0.55c0,-0.16667 0,-0.35 0,-0.55c-0.06667,-0.16667 -0.13333,-0.33333 -0.2,-0.5c-0.06667,-0.2 -0.13333,-0.38333 -0.2,-0.55c-0.16667,-0.16667 -0.33333,-0.35 -0.5,-0.55c-0.13333,-0.16667 -0.25,-0.33333 -0.35,-0.5c-0.06667,-0.2 -0.13333,-0.38333 -0.2,-0.55c0,-0.16667 0,-0.35 0,-0.55c0,-0.16667 0,-0.35 0,-0.55c-0.06667,-0.16667 -0.13333,-0.33333 -0.2,-0.5c-0.1,-0.2 -0.21667,-0.38333 -0.35,-0.55c-0.16667,-0.16667 -0.33333,-0.35 -0.5,-0.55c-0.13333,-0.16667 -0.26667,-0.33333 -0.4,-0.5c-0.03333,-0.2 -0.08333,-0.38333 -0.15,-0.55c-0.13333,-0.16667 -0.25,-0.35 -0.35,-0.55c-0.06667,-0.16667 -0.13333,-0.35 -0.2,-0.55c-0.06667,-0.16667 -0.11667,-0.33333 -0.15,-0.5c-0.2,-0.2 -0.38333,-0.38333 -0.55,-0.55c-0.13333,-0.16667 -0.25,-0.35 -0.35,-0.55c-0.13333,-0.16667 -0.25,-0.33333 -0.35,-0.5c-0.06667,-0.2 -0.13333,-0.38333 -0.2,-0.55c-0.1,-0.16667 -0.21667,-0.35 -0.35,-0.55c-0.06667,-0.16667 -0.13333,-0.33333 -0.2,-0.5c-0.1,-0.2 -0.21667,-0.38333 -0.35,-0.55c-0.1,-0.2 -0.21667,-0.38333 -0.35,-0.55c0,-0.16667 0,-0.35 0,-0.55c0,-0.16667 0,-0.33333 0,-0.5c0,-0.2 0,-0.38333 0,-0.55c0,-0.16667 0,-0.35 0,-0.55c0,-0.16667 0,-0.33333 0,-0.5c0.13333,-0.2 0.25,-0.38333 0.35,-0.55c0.13333,-0.2 0.25,-0.38333 0.35,-0.55c0.43333,-0.16667 0.85,-0.35 1.25,-0.55c0.2,-0.1 0.38333,-0.21667 0.55,-0.35c0.3,-0.1 0.6,-0.21667 0.9,-0.35c0.16667,-0.1 0.35,-0.21667 0.55,-0.35c0.3,-0.13333 0.58333,-0.25 0.85,-0.35c0.3,-0.2 0.61667,-0.38333 0.95,-0.55c0.2,-0.1 0.43333,-0.21667 0.7,-0.35c0.1,-0.06667 0.21667,-0.13333 0.35,-0.2c0.4,-0.1 0.81667,-0.21667 1.25,-0.35c0.3,-0.1 0.6,-0.2 0.9,-0.3c0.4,-0.13333 0.8,-0.28333 1.2,-0.45c0.33333,-0.1 0.63333,-0.2 0.9,-0.3c0.3,-0.06667 0.6,-0.13333 0.9,-0.2c0.3,-0.1 0.6,-0.21667 0.9,-0.35c0.36667,-0.16667 0.73333,-0.35 1.1,-0.55c0.23333,-0.1 0.46667,-0.21667 0.7,-0.35c0.3,-0.06667 0.6,-0.11667 0.9,-0.15c0.53333,-0.13333 1.06667,-0.26667 1.6,-0.4c0.4,-0.1 0.81667,-0.21667 1.25,-0.35c0.16667,-0.1 0.35,-0.21667 0.55,-0.35c-0.13333,-0.16667 -0.26667,-0.33333 -0.4,-0.5c0,-0.2 0,-0.38333 0,-0.55c0,-0.2 0,-0.38333 0,-0.55c-0.1,-0.16667 -0.21667,-0.35 -0.35,-0.55c-0.1,-0.16667 -0.21667,-0.33333 -0.35,-0.5c-0.06667,-0.2 -0.11667,-0.38333 -0.15,-0.55c-0.06667,-0.16667 -0.13333,-0.35 -0.2,-0.55c-0.13333,-0.16667 -0.25,-0.33333 -0.35,-0.5c0,-0.2 0,-0.38333 0,-0.55c-0.06667,-0.2 -0.13333,-0.38333 -0.2,-0.55c-0.03333,-0.16667 -0.08333,-0.35 -0.15,-0.55c-0.13333,-0.16667 -0.25,-0.33333 -0.35,-0.5c0,-0.2 0,-0.38333 0,-0.55c0,-0.16667 0,-0.35 0,-0.55c-1.1,0 -2.18333,0 -3.25,0c-0.4,0.13333 -0.81667,0.25 -1.25,0.35c-1.3,0.13333 -2.6,0.26667 -3.9,0.4c-0.36667,0.1 -0.73333,0.21667 -1.1,0.35c-1.66667,0 -3.33333,0 -5,0c-0.4,-0.13333 -0.81667,-0.25 -1.25,-0.35c-0.1,-0.2 -0.21667,-0.38333 -0.35,-0.55c-0.23333,-0.2 -0.46667,-0.38333 -0.7,-0.55c-0.13333,-0.16667 -0.25,-0.35 -0.35,-0.55c-0.06667,-0.16667 -0.13333,-0.33333 -0.2,-0.5c-0.06667,-0.2 -0.11667,-0.38333 -0.15,-0.55c-0.13333,-0.16667 -0.25,-0.35 -0.35,-0.55c0,-0.16667 0,-0.33333 0,-0.5c-0.06667,-0.2 -0.13333,-0.38333 -0.2,-0.55c-0.06667,-0.2 -0.13333,-0.38333 -0.2,-0.55c-0.1,-0.16667 -0.21667,-0.35 -0.35,-0.55c0,-0.16667 0,-0.33333 0,-0.5c-0.06667,-0.2 -0.11667,-0.38333 -0.15,-0.55c-0.13333,-0.16667 -0.25,-0.35 -0.35,-0.55c-0.06667,-0.16667 -0.13333,-0.33333 -0.2,-0.5c-0.06667,-0.2 -0.13333,-0.38333 -0.2,-0.55c-0.1,-0.2 -0.21667,-0.38333 -0.35,-0.55c-0.06667,-0.16667 -0.11667,-0.35 -0.15,-0.55c0,-0.16667 0,-0.33333 0,-0.5c0,-0.2 0,-0.38333 0,-0.55c0,-0.16667 0,-0.35 0,-0.55c0,-0.16667 0,-0.33333 0,-0.5c0,-0.2 0,-0.38333 0,-0.55c0,-0.2 0,-0.38333 0,-0.55c-0.06667,-0.16667 -0.13333,-0.35 -0.2,-0.55c-0.1,-0.16667 -0.21667,-0.33333 -0.35,-0.5c-0.06667,-0.2 -0.13333,-0.38333 -0.2,-0.55c0,-0.16667 0,-0.35 0,-0.55c0,-0.16667 0,-0.33333 0,-0.5c0,-0.2 0,-0.38333 0,-0.55c0,-0.16667 0,-0.35 0,-0.55c-0.03333,-0.16667 -0.08333,-0.35 -0.15,-0.55c-0.06667,-0.16667 -0.13333,-0.33333 -0.2,-0.5c-0.06667,-0.2 -0.11667,-0.38333 -0.15,-0.55c-0.06667,-0.16667 -0.13333,-0.35 -0.2,-0.55c0,-0.16667 0,-0.33333 0,-0.5c0,-0.2 0,-0.38333 0,-0.55c0,-0.16667 0,-0.35 0,-0.55c0,-0.16667 0,-0.35 0,-0.55c0,-0.16667 0,-0.33333 0,-0.5c0,-0.2 0,-0.38333 0,-0.55c-0.06667,-0.16667 -0.11667,-0.35 -0.15,-0.55c-0.06667,-0.16667 -0.13333,-0.33333 -0.2,-0.5c-0.06667,-0.2 -0.13333,-0.38333 -0.2,-0.55c-0.03333,-0.16667 -0.08333,-0.35 -0.15,-0.55c0,-0.16667 0,-0.35 0,-0.55c0,-0.16667 0,-0.33333 0,-0.5c0,-0.2 0,-0.38333 0,-0.55c0,-0.16667 0,-0.35 0,-0.55c-0.06667,-0.16667 -0.13333,-0.33333 -0.2,-0.5c-0.06667,-0.2 -0.11667,-0.38333 -0.15,-0.55c-0.06667,-0.16667 -0.13333,-0.35 -0.2,-0.55c-0.06667,-0.16667 -0.11667,-0.35 -0.15,-0.55c0,-0.16667 0,-0.33333 0,-0.5c-0.06667,-0.2 -0.13333,-0.38333 -0.2,-0.55c-0.06667,-0.16667 -0.13333,-0.35 -0.2,-0.55c-0.03333,-0.16667 -0.08333,-0.33333 -0.15,-0.5c0,-0.2 0,-0.38333 0,-0.55c-0.06667,-0.16667 -0.13333,-0.35 -0.2,-0.55c-0.06667,-0.16667 -0.11667,-0.35 -0.15,-0.55c-0.06667,-0.16667 -0.13333,-0.33333 -0.2,-0.5c-0.06667,-0.2 -0.11667,-0.38333 -0.15,-0.55c-0.06667,-0.16667 -0.13333,-0.35 -0.2,-0.55c0,-0.16667 0,-0.33333 0,-0.5c0,-0.2 0,-0.38333 0,-0.55c0,-0.16667 0,-0.35 0,-0.55c0,-0.16667 0,-0.35 0,-0.55c0,-0.16667 0,-0.33333 0,-0.5c0,-0.2 0,-0.38333 0,-0.55c0,-0.16667 0,-0.35 0,-0.55c0,-0.16667 0,-0.33333 0,-0.5c-0.13333,-0.2 -0.25,-0.38333 -0.35,-0.55c-0.06667,-0.16667 -0.13333,-0.35 -0.2,-0.55c-0.06667,-0.16667 -0.11667,-0.35 -0.15,-0.55c0,-0.16667 0,-0.33333 0,-0.5c0,-0.2 0,-0.38333 0,-0.55c0,-0.16667 0,-0.35 0,-0.55c0,-0.16667 0,-0.33333 0,-0.5c0,-0.2 0,-0.38333 0,-0.55c0,-0.16667 0,-0.35 0,-0.55c0,-0.16667 0,-0.35 0,-0.55c0.1,-0.16667 0.21667,-0.33333 0.35,-0.5c0.1,-0.2 0.21667,-0.38333 0.35,-0.55c0.4,-0.13333 0.81667,-0.26667 1.25,-0.4c0.3,-0.1 0.6,-0.2 0.9,-0.3c0.4,-0.2 0.81667,-0.38333 1.25,-0.55c0.16667,-0.13333 0.35,-0.25 0.55,-0.35c0.26667,-0.06667 0.55,-0.13333 0.85,-0.2c0.53333,-0.1 1.06667,-0.21667 1.6,-0.35c0.43333,-0.1 0.86667,-0.21667 1.3,-0.35c0.53333,-0.13333 1.06667,-0.25 1.6,-0.35c0.4,-0.13333 0.81667,-0.23333 1.25,-0.3c0.76667,-0.16667 1.53333,-0.3 2.3,-0.4c0.43333,-0.13333 0.85,-0.26667 1.25,-0.4c0.76667,-0.1 1.53333,-0.23333 2.3,-0.4c0.43333,-0.06667 0.85,-0.16667 1.25,-0.3c1.03333,-0.1 2.05,-0.21667 3.05,-0.35z" fill="#ffffff"/><path d="M520.25,356.3c0.96667,4.36667 1.45,9.63333 1.45,15.8c0,5.1 -0.13333,8.23333 -0.4,9.4c-0.8,3.53333 -3.01667,6.85 -6.65,9.95c-3.63333,3.23333 -7.4,5.7 -11.3,7.4c-9.1,3.96667 -20.9,5.95 -35.4,5.95c-5.33333,0 -10.05,-0.63333 -14.15,-1.9c-0.6,-0.2 -1.13333,-0.36667 -1.6,-0.5l-0.7,1.15l0.05,0.25c-0.13333,0.13333 -0.56667,0.2 -1.3,0.2c-2.36667,0 -4.45,-4.11667 -6.25,-12.35l-2.1,-11.8c0,-1.33333 0.08333,-2.15 0.25,-2.45c0.46667,-0.8 1.63333,-0.91667 3.5,-0.35h15.6c-4.16667,-19.4 -6.25,-29.18333 -6.25,-29.35c-0.1,-0.63333 -0.16667,-1.26667 -0.2,-1.9c-2.36667,0.23333 -6.25,0.35 -11.65,0.35l-9.9,-0.6c-0.86667,-0.7 -1.38333,-1.13333 -1.55,-1.3c-0.23333,-0.26667 -0.35,-0.5 -0.35,-0.7c0,-0.53333 0.46667,-1.13333 1.4,-1.8c-0.4,-0.76667 -0.75,-1.75 -1.05,-2.95c-0.53333,-3.7 -0.88333,-6.01667 -1.05,-6.95c-0.6,-2.7 -1.01667,-4.68333 -1.25,-5.95c-0.5,-2.2 -0.75,-4 -0.75,-5.4c0,-1.23333 1.38333,-2.16667 4.15,-2.8c2.86667,-0.7 7.98333,-1.23333 15.35,-1.6c12.93333,0.2 24.55,1.36667 34.85,3.5c8.26667,1.76667 13.73333,3.58333 16.4,5.45c3.93333,1.8 7.1,4.16667 9.5,7.1c1.33333,1.6 3.01667,4.31667 5.05,8.15c3.03333,5.5 5.13333,10.83333 6.3,16M479.05,350.25l-0.05,-0.1c-0.03333,0.06667 -0.05,0.41667 -0.05,1.05c0,0.8 0.73333,4.33333 2.2,10.6c1.5,6.3 2.25,9.88333 2.25,10.75c4.43333,-1.1 7.65,-2.21667 9.65,-3.35c2.6,-1.4 3.9,-3.1 3.9,-5.1c0,-3.06667 -1.13333,-6.06667 -3.4,-9c-3.33333,-4.26667 -8.16667,-5.88333 -14.5,-4.85M594.65,378.15c0,5.1 -1.53333,9.45 -4.6,13.05c-5.43333,6.46667 -15.11667,9.7 -29.05,9.7c-6.76667,0 -11.56667,-0.15 -14.4,-0.45c-3.86667,-0.46667 -6.86667,-1.43333 -9,-2.9c-2.23333,-1.56667 -4.11667,-4.03333 -5.65,-7.4c-1.36667,-3.1 -2.75,-7.8 -4.15,-14.1c-0.46667,-2.13333 -1.08333,-6.95 -1.85,-14.45c-0.7,-6.93333 -1.05,-10.93333 -1.05,-12c0,-5.46667 0.33333,-9.3 1,-11.5c1.26667,-4.36667 4.11667,-8.06667 8.55,-11.1c1.3,-1.03333 2.36667,-1.85 3.2,-2.45c1.5,-1 3.21667,-1.73333 5.15,-2.2c5.46667,-1.46667 14.35,-1.28333 26.65,0.55c5.66667,0.86667 9.6,2.3 11.8,4.3c0.96667,0.86667 2.06667,2.78333 3.3,5.75c4.23333,9.6 7.01667,17.48333 8.35,23.65c1.16667,5.43333 1.75,12.61667 1.75,21.55M552.4,354.7c0,0.7 -0.21667,1.68333 -0.65,2.95c-0.46667,1.26667 -0.7,2.15 -0.7,2.65c0,3.66667 0.23333,6.16667 0.7,7.5c1.26667,3.46667 4.11667,5.2 8.55,5.2c1.5,0 2.83333,-2.26667 4,-6.8c0.9,-4.6 1.35,-6.95 1.35,-7.05c0,-0.36667 -0.23333,-1.06667 -0.7,-2.1c-0.63333,-1.4 -1.43333,-2.56667 -2.4,-3.5c-2.96667,-2.93333 -6.8,-3.01667 -11.5,-0.25c0.23333,0.16667 0.55,0.26667 0.95,0.3c0.26667,0.1 0.4,0.46667 0.4,1.1M660.45,326.3c-0.16667,0 -0.33333,0 -0.5,0c0.13333,0.53333 0.25,1.11667 0.35,1.75c0.3,1.96667 0.3,4.53333 0,7.7c0,1.86667 0.56667,7 1.7,15.4c1.2,8.5 1.8,13.05 1.8,13.65c0.6,15.66667 0.9,25.15 0.9,28.45c0,0.56667 -0.43333,1.31667 -1.3,2.25c-0.46667,0.46667 -1,1 -1.6,1.6h-21.85c-2.63333,-1.8 -4.98333,-4.5 -7.05,-8.1c-2,-3.93333 -3.5,-6.65 -4.5,-8.15c-0.7,-1.03333 -2.8,-3.53333 -6.3,-7.5c0.36667,2.53333 0.88333,5.65 1.55,9.35c0.7,3.7 1.4,7.31667 2.1,10.85c0,1.2 -0.05,1.95 -0.15,2.25c-0.23333,0.8 -0.88333,1.43333 -1.95,1.9c-5.2,0.06667 -8.86667,0.15 -11,0.25c-0.6,0.03333 -1.4,0.11667 -2.4,0.25h-7.15c-2.13333,-1.5 -3.31667,-3.61667 -3.55,-6.35c0.13333,-3.2 0.08333,-5.51667 -0.15,-6.95c-0.53333,-2.96667 -0.91667,-5.2 -1.15,-6.7c-0.4,-2.7 -0.6,-4.95 -0.6,-6.75c0.03333,-3.5 -0.03333,-8.86667 -0.2,-16.1c-0.2,-6.7 -0.3,-10.31667 -0.3,-10.85c-0.46667,-3.53333 -0.65,-6.31667 -0.55,-8.35c0.06667,-2.16667 0.58333,-3.68333 1.55,-4.55c-0.43333,-0.46667 -0.76667,-0.81667 -1,-1.05c-0.36667,-0.4 -0.55,-0.71667 -0.55,-0.95c0,-0.8 0.93333,-1.23333 2.8,-1.3c5.63333,-0.2 10.2,-0.5 13.7,-0.9c0.93333,-0.06667 2.18333,-0.33333 3.75,-0.8c1.33333,-0.4 2.3,-0.6 2.9,-0.6c1.5,0 3.55,3.2 6.15,9.6c3.1,7.8 5.43333,12.61667 7,14.45c0.1,0.53333 0.15,0.26667 0.15,-0.8c0,-0.06667 -0.48333,-3.06667 -1.45,-9c-0.96667,-5.93333 -1.45,-9.58333 -1.45,-10.95c-0.13333,-1.23333 -0.13333,-2.06667 0,-2.5c0.2,-0.66667 1.03333,-1.2 2.5,-1.6c2.63333,-0.63333 11.9,-1.41667 27.8,-2.35l1.25,1.05c0.46667,0.33333 0.7,0.55 0.7,0.65c0,0.13333 -0.65,0.71667 -1.95,1.75M722.05,339.55c0.7,2.3 1.55,5.51667 2.55,9.65c0.56667,2.23333 1.35,5.41667 2.35,9.55c0.96667,3.73333 2.31667,9.43333 4.05,17.1c2.56667,11.33333 3.85,18.38333 3.85,21.15c0,1.13333 -1.08333,2.13333 -3.25,3c-2.6,1.03333 -6.01667,1.55 -10.25,1.55c-5,0 -8.53333,-0.36667 -10.6,-1.1c-1.93333,-0.66667 -3.15,-1.88333 -3.65,-3.65c-0.2,-0.76667 -0.38333,-2.98333 -0.55,-6.65c-0.16667,-3.73333 -0.65,-7.13333 -1.45,-10.2c-0.96667,-0.1 -1.86667,-0.25 -2.7,-0.45h-5.9v11.45c1,2.46667 1.5,4.31667 1.5,5.55c0,1.16667 -0.56667,1.98333 -1.7,2.45c-1.8,0.7 -5.71667,1.15 -11.75,1.35h-10.7c-1.33333,-0.7 -2.18333,-1.9 -2.55,-3.6c-0.13333,-0.66667 -0.2,-2.13333 -0.2,-4.4c1.2,-18.43333 1.95,-30.63333 2.25,-36.6c0.16667,-3.8 0.71667,-9.9 1.65,-18.3c0.13333,-1.13333 0.25,-2.66667 0.35,-4.6c0.1,-2.56667 0.16667,-4.08333 0.2,-4.55c0.03333,-0.93333 2.06667,-1.8 6.1,-2.6c2.63333,-0.5 8.31667,-1.41667 17.05,-2.75c7.43333,-2.9 13.33333,-1.9 17.7,3c3.1,3.46667 4.98333,8.01667 5.65,13.65M696.4,353.1c-0.63333,2.73333 -0.95,5.1 -0.95,7.1v0.45c0.36667,-0.03333 1.33333,-0.16667 2.9,-0.4c1.5,-0.23333 3.15,-0.4 4.95,-0.5c0.2,-0.36667 0.33333,-0.61667 0.4,-0.75c0.06667,-0.3 0.1,-0.8 0.1,-1.5c0,-1.4 -0.41667,-3.13333 -1.25,-5.2c-1.23333,-3.06667 -2.86667,-4.75 -4.9,-5.05c-0.06667,0.46667 -0.48333,2.41667 -1.25,5.85M788.2,322.7c1.3,2.96667 1.66667,6.85 1.1,11.65c0,1.9 0.48333,5.16667 1.45,9.8c0.46667,2.3 0.93333,4.55 1.4,6.75c0,0.9 -0.18333,1.51667 -0.55,1.85c-0.4,0.36667 -1.23333,0.66667 -2.5,0.9c-4.73333,0.5 -9.86667,1.18333 -15.4,2.05c0.36667,2.1 1.56667,8.81667 3.6,20.15c1.86667,10.53333 2.8,16.4 2.8,17.6c0,1.2 -0.18333,2.01667 -0.55,2.45c-0.56667,0.8 -1.8,1.4 -3.7,1.8h-24.8c-1.63333,-0.46667 -2.46667,-1.01667 -2.5,-1.65c-0.03333,-1.26667 -0.15,-2.06667 -0.35,-2.4v-36.7l0.6,-0.9c-0.3,-0.06667 -1.05,-0.05 -2.25,0.05c-1.2,0.13333 -2.06667,0.28333 -2.6,0.45h-11.25c-1.76667,-1.96667 -2.83333,-4.33333 -3.2,-7.1c-0.1,-0.86667 -0.11667,-3.28333 -0.05,-7.25c0.03333,-1.76667 -0.13333,-4.13333 -0.5,-7.1c-0.36667,-3.06667 -0.55,-5.36667 -0.55,-6.9c0,-1.6 4.2,-2.96667 12.6,-4.1c5.53333,-0.76667 17.6,-2.21667 36.2,-4.35c5.43333,-2.3 9.1,-1.31667 11,2.95M836.6,350.5c-8.33333,-0.2 -14.91667,-0.03333 -19.75,0.5c0.36667,1.3 0.55,3.2 0.55,5.7c1.9,-0.6 7.73333,-1.9 17.5,-3.9c2.46667,0 3.73333,1.18333 3.8,3.55c0.06667,1.23333 -0.13333,2.73333 -0.6,4.5c0,0.86667 0.25,2.2 0.75,4c0.5,1.86667 0.75,3.01667 0.75,3.45c0,0.6 -0.05,1 -0.15,1.2c-0.3,0.7 -0.96667,1.15 -2,1.35c-3.3,-0.46667 -7.13333,-0.56667 -11.5,-0.3c-4.06667,0.23333 -6.55,0.58333 -7.45,1.05l1.4,6c2.03333,-0.8 4.95,-1.31667 8.75,-1.55c1.5,-0.1 4.76667,-0.15 9.8,-0.15c7.73333,0 12.33333,1.76667 13.8,5.3c0.6,1.43333 0.9,3.5 0.9,6.2c0,1.6 -0.06667,4.36667 -0.2,8.3c0,0.36667 -0.35,0.65 -1.05,0.85c-1.96667,0.53333 -4.2,1.15 -6.7,1.85h-35.95c-0.46667,0.23333 -0.98333,0.38333 -1.55,0.45h-5.65c-1.96667,-3.03333 -3.05,-7.15 -3.25,-12.35c0.1,-5.9 0.06667,-10.23333 -0.1,-13c-0.2,-3.5 -0.36667,-8.51667 -0.5,-15.05c-0.13333,-5.2 -0.2,-8.6 -0.2,-10.2c0.16667,-5.93333 0.21667,-10.36667 0.15,-13.3c-0.53333,-2.33333 -0.78333,-4.31667 -0.75,-5.95c0.06667,-3.06667 1.46667,-4.6 4.2,-4.6c0.5,0 3.16667,-0.5 8,-1.5c5.73333,-1.06667 11,-1.68333 15.8,-1.85c7.33333,-0.66667 12.31667,-0.63333 14.95,0.1c3.2,0.86667 4.81667,2.95 4.85,6.25v9.4c0,0.56667 -0.01667,2 -0.05,4.3c-0.03333,2.23333 -0.01667,3.91667 0.05,5.05c0.13333,2.76667 -2.73333,4.21667 -8.6,4.35z" fill="#000000"/></g></g></svg>