<svg version="1.1" xmlns="http://www.w3.org/2000/svg" xmlns:xlink="http://www.w3.org/1999/xlink" width="53.0625" height="69.55174" viewBox="0,0,53.0625,69.55174"><g transform="translate(-602.10399,-334.84383)"><g data-paper-data="{&quot;isPaintingLayer&quot;:true}" fill-rule="nonzero" stroke="none" stroke-width="1" stroke-linecap="round" stroke-linejoin="miter" stroke-miterlimit="4" stroke-dasharray="" stroke-dashoffset="0" style="mix-blend-mode: normal"><path d="M645.75399,339.05699c0.9,0.66667 1.68334,1.45 2.35,2.35c0.4,0.53334 0.78333,1.08334 1.15,1.65c0.13333,0.1 0.26667,0.18333 0.4,0.25c0.16666,0.1 0.31666,0.2 0.45,0.3c0.13333,0.06667 0.26666,0.15 0.4,0.25c0.03333,0.1 0.08334,0.18333 0.15,0.25c0.06666,0.1 0.11667,0.2 0.15,0.3c0.1,0.16667 0.2,0.33333 0.3,0.5c0.13333,0.1 0.25,0.2 0.35,0.3c0.06666,0.06667 0.13334,0.15 0.2,0.25c0.13333,0.26666 0.26666,0.53334 0.4,0.8c0.06666,0.1 0.1,0.2 0.1,0.3c0,0.06667 0.01666,0.15 0.05,0.25c0.06666,0.26666 0.08333,0.53334 0.05,0.8c0,0.1 0,0.18333 0,0.25c-0.03333,0.1 -0.06666,0.2 -0.1,0.3c-0.06666,0.23334 -0.16667,0.48334 -0.3,0.75c-0.03333,0.1 -0.06667,0.2 -0.1,0.3c-0.06666,0.1 -0.13333,0.18333 -0.2,0.25c-0.06666,0.1 -0.13334,0.2 -0.2,0.3c-0.1,0.06667 -0.2,0.16667 -0.3,0.3c-0.36667,0.33333 -0.75,0.66667 -1.15,1c-0.33334,0.33333 -0.66666,0.68333 -1,1.05c-0.36667,0.36667 -0.73334,0.73333 -1.1,1.1c-0.26666,0.26666 -0.53334,0.53334 -0.8,0.8c-1.3,3 -3.4,3.85 -6.3,2.55c-3.43334,-1.53334 -6.98334,-2.66667 -10.65,-3.4c-2.03333,-0.43333 -3.88334,-0.03333 -5.55,1.2c-0.93334,0.66667 -1.8,1.41667 -2.6,2.25c-0.06666,0.1 -0.11667,0.2 -0.15,0.3c-0.03333,0.06667 -0.06666,0.15 -0.1,0.25c-0.1,0.1 -0.2,0.18333 -0.3,0.25c-0.06666,0.1 -0.15,0.2 -0.25,0.3c-0.1,0.06667 -0.18334,0.15 -0.25,0.25c-0.03333,0.1 -0.08334,0.18333 -0.15,0.25c-0.23334,0.33333 -0.41666,0.7 -0.55,1.1c-0.03333,0.16667 -0.1,0.33333 -0.2,0.5c-0.2,0.36667 -0.36667,0.73333 -0.5,1.1c-0.1,0.46666 -0.23334,0.91667 -0.4,1.35c-0.03333,0.06667 -0.06667,0.15 -0.1,0.25c0,0.1 0,0.18333 0,0.25c0,0.1 0,0.2 0,0.3c0,0.1 0,0.18333 0,0.25c-0.03333,0.1 -0.06667,0.2 -0.1,0.3c0,0.06667 -0.01666,0.15 -0.05,0.25c-0.06666,0.16667 -0.13334,0.35 -0.2,0.55c0,0.06667 0,0.15 0,0.25c0,0.1 0,0.18333 0,0.25c0,0.1 0,0.2 0,0.3c0,0.06667 0,0.15 0,0.25c-0.03333,0.1 -0.06667,0.18333 -0.1,0.25c-0.03333,0.1 -0.05,0.2 -0.05,0.3c-0.06666,0.16667 -0.13334,0.33333 -0.2,0.5c0,0.1 0,0.2 0,0.3c0,0.06667 0,0.15 0,0.25c0,0.1 0,0.2 0,0.3c-0.03333,0.06667 -0.06666,0.15 -0.1,0.25c-0.03333,0.1 -0.06667,0.18333 -0.1,0.25c-0.03333,0.2 -0.08334,0.38333 -0.15,0.55c0,0.1 0,0.18333 0,0.25c0,0.1 0,0.2 0,0.3c0,0.16667 0,0.33333 0,0.5c0,0.1 0,0.2 0,0.3c0,0.06667 0,0.15 0,0.25c0,0.1 0.01666,0.18333 0.05,0.25c0.16666,0.33333 0.26666,0.7 0.3,1.1c0,0.1 0,0.18333 0,0.25c0,0.26666 0,0.53333 0,0.8c0,0.2 0,0.38333 0,0.55c0,0.26666 0,0.53334 0,0.8c0.13333,0.36667 0.23334,0.73334 0.3,1.1c0.16666,0.7 0.38333,1.41666 0.65,2.15c0.4,1.06667 0.83333,2.1 1.3,3.1c0.66666,1.33333 1.43334,2.61666 2.3,3.85c0.1,0.06667 0.2,0.13333 0.3,0.2c0.4,0.23334 0.78333,0.51667 1.15,0.85c0.06666,0.1 0.15,0.18333 0.25,0.25c0.1,0.1 0.18334,0.2 0.25,0.3c0.73334,0.36667 1.48334,0.61667 2.25,0.75c2.2,0.36667 4.28333,0.06666 6.25,-0.9c0.93334,-0.46666 1.76666,-1.1 2.5,-1.9c0.06666,-0.1 0.11667,-0.2 0.15,-0.3c0.1,-0.16667 0.18334,-0.35 0.25,-0.55c0.06666,-0.16667 0.11667,-0.33333 0.15,-0.5c0.03333,-0.1 0.05,-0.18333 0.05,-0.25c0.06666,-0.1 0.13334,-0.2 0.2,-0.3c0.1,-0.06667 0.18334,-0.15 0.25,-0.25c0.03333,-0.1 0.06667,-0.2 0.1,-0.3c0.1,-0.26666 0.18334,-0.53334 0.25,-0.8c0.03333,-0.06667 0.06666,-0.15 0.1,-0.25c0.03333,-0.1 0.06667,-0.18333 0.1,-0.25c0.13333,-0.26666 0.2,-0.53334 0.2,-0.8v-0.1c-2.9,0.63333 -5.66667,0.48333 -8.3,-0.45c-0.1,-0.1 -0.2,-0.18333 -0.3,-0.25c-0.06666,-0.1 -0.15,-0.2 -0.25,-0.3c-0.1,-0.06667 -0.18334,-0.15 -0.25,-0.25c-0.06666,-0.1 -0.13334,-0.2 -0.2,-0.3c-0.3,-0.56667 -0.43333,-1.18333 -0.4,-1.85c0.03333,-0.7 0.05,-1.41666 0.05,-2.15c0,-0.86667 0,-1.75 0,-2.65c0,-0.5 0.11666,-0.95 0.35,-1.35c0,-0.1 0,-0.2 0,-0.3c0,-0.26666 0,-0.53334 0,-0.8c0,-0.06667 0,-0.15 0,-0.25c0,-0.1 0,-0.18333 0,-0.25c0,-0.3 0,-0.56667 0,-0.8c0,-0.1 0,-0.2 0,-0.3c0,-0.06667 0,-0.15 0,-0.25c0.03333,-0.1 0.06667,-0.18333 0.1,-0.25c0.03333,-0.1 0.06667,-0.2 0.1,-0.3c0.03333,-0.16667 0.08334,-0.35 0.15,-0.55c0,-0.06667 0,-0.15 0,-0.25c0,-0.1 0,-0.18333 0,-0.25c0,-0.1 0,-0.2 0,-0.3c0,-0.06667 0,-0.15 0,-0.25c1.33334,-3.03334 3.83334,-4.26666 7.5,-3.7c2.06666,0.33333 4.13334,0.61667 6.2,0.85c3.03333,0.36667 6.05,0.71666 9.05,1.05c1.7,0.2 2.71667,1.1 3.05,2.7c0,0.1 0,0.18333 0,0.25c0,0.1 0,0.2 0,0.3c0.03333,0.06667 0.06666,0.15 0.1,0.25c0.03333,0.1 0.06667,0.18333 0.1,0.25c0.03333,0.2 0.08334,0.38333 0.15,0.55c0.03333,0.1 0.06667,0.18333 0.1,0.25c0,0.1 0,0.2 0,0.3c0,0.23334 0,0.5 0,0.8c0,0.06667 0,0.15 0,0.25c0,0.1 0,0.2 0,0.3c0,0.23334 0,0.5 0,0.8c0.03333,0.06667 0.06667,0.15 0.1,0.25c0.03333,0.1 0.06667,0.18333 0.1,0.25c0,0.1 0.01666,0.2 0.05,0.3c0,0.06667 0,0.15 0,0.25c0,0.36667 0,0.71667 0,1.05c0,0.36667 0,0.73334 0,1.1c0,0.36667 0,0.71666 0,1.05c0,0.56667 0.01667,1.1 0.05,1.6c0.03333,0.36667 0,0.73334 -0.1,1.1c0,0.1 0.01666,0.18333 0.05,0.25c0,0.36667 0,0.73333 0,1.1c0,0.33333 0,0.68333 0,1.05c-0.03333,0.43333 -0.03333,0.88334 0,1.35c0,0.63333 -0.03334,1.25 -0.1,1.85c-0.03333,0.3 -0.11667,0.56667 -0.25,0.8c0,0.1 0,0.2 0,0.3c0,0.26666 0,0.53334 0,0.8c-0.03333,0.1 -0.05,0.18333 -0.05,0.25c-0.03333,0.1 -0.05,0.18333 -0.05,0.25c-0.1,0.3 -0.21667,0.58333 -0.35,0.85c0,0.06667 0,0.15 0,0.25c0,0.1 0,0.18333 0,0.25c-0.1,0.36667 -0.21667,0.73334 -0.35,1.1c-0.23334,0.73334 -0.5,1.43333 -0.8,2.1c-0.46667,1.1 -1,2.15 -1.6,3.15c-0.73334,1.26666 -1.6,2.46666 -2.6,3.6c-0.03333,0.06667 -0.06667,0.15 -0.1,0.25c-0.03333,0.1 -0.08334,0.18333 -0.15,0.25c-0.06666,0.1 -0.13334,0.18333 -0.2,0.25c-0.1,0.1 -0.21666,0.2 -0.35,0.3c-0.1,0.1 -0.21667,0.18333 -0.35,0.25c-0.06666,0.1 -0.13334,0.2 -0.2,0.3c-0.03333,0.06667 -0.08334,0.15 -0.15,0.25c-6.93333,6.5 -15.08334,8.4 -24.45,5.7c-5.46667,-1.56667 -10.15,-4.45 -14.05,-8.65c-0.06666,-0.1 -0.11667,-0.18333 -0.15,-0.25c-0.03333,-0.1 -0.06667,-0.18333 -0.1,-0.25c-0.06666,-0.1 -0.13334,-0.2 -0.2,-0.3c-0.06666,-0.1 -0.15,-0.18333 -0.25,-0.25c-0.26666,-0.23334 -0.46666,-0.51667 -0.6,-0.85c-0.03333,-0.06667 -0.08334,-0.15 -0.15,-0.25c-0.03333,-0.06667 -0.08334,-0.15 -0.15,-0.25c-0.1,-0.16667 -0.18334,-0.35 -0.25,-0.55c-0.1,-0.06667 -0.2,-0.15 -0.3,-0.25c-0.33334,-0.3 -0.58334,-0.65 -0.75,-1.05c-0.03333,-0.1 -0.06667,-0.2 -0.1,-0.3c-0.1,-0.33333 -0.28333,-0.61667 -0.55,-0.85c-0.06666,-0.06667 -0.13334,-0.13333 -0.2,-0.2c-0.03333,-0.1 -0.06667,-0.2 -0.1,-0.3c-0.06666,-0.26666 -0.15,-0.53333 -0.25,-0.8c-0.03333,-0.06667 -0.06667,-0.15 -0.1,-0.25c-0.03333,-0.1 -0.06666,-0.18333 -0.1,-0.25c-0.13333,-0.26666 -0.28334,-0.53334 -0.45,-0.8c-0.03333,-0.1 -0.08334,-0.2 -0.15,-0.3c-0.03333,-0.1 -0.05,-0.18333 -0.05,-0.25c-0.06666,-0.4 -0.15,-0.78333 -0.25,-1.15c-0.13333,-0.33333 -0.25,-0.68333 -0.35,-1.05c-0.13333,-0.33333 -0.25,-0.68333 -0.35,-1.05c-0.16666,-0.5 -0.31667,-1.03334 -0.45,-1.6c-0.03333,-0.16667 -0.08334,-0.33333 -0.15,-0.5c0,-0.1 0,-0.2 0,-0.3c0,-0.06667 0,-0.15 0,-0.25c0,-0.1 0,-0.18333 0,-0.25c-0.03333,-0.1 -0.06667,-0.2 -0.1,-0.3c-0.03333,-0.1 -0.06667,-0.18333 -0.1,-0.25c-0.03333,-0.2 -0.08334,-0.38333 -0.15,-0.55c0,-0.16667 0,-0.35 0,-0.55c0,-0.7 0,-1.4 0,-2.1c0,-0.9 0,-1.8 0,-2.7c0,-1.26666 0,-2.51666 0,-3.75c0,-0.36667 0,-0.71666 0,-1.05c0.03333,-0.1 0.06667,-0.2 0.1,-0.3c0,-0.1 0.01666,-0.18333 0.05,-0.25c0.06666,-0.2 0.13334,-0.38333 0.2,-0.55c0,-0.1 0,-0.18333 0,-0.25c0,-0.26666 0,-0.53334 0,-0.8c0,-0.1 0,-0.2 0,-0.3c0,-0.06667 0,-0.15 0,-0.25c0,-0.16667 0,-0.35 0,-0.55c0.03333,-0.06667 0.06667,-0.15 0.1,-0.25c0.03333,-0.1 0.05,-0.18333 0.05,-0.25c0.06666,-0.2 0.13334,-0.38333 0.2,-0.55c0,-0.1 0,-0.2 0,-0.3c0,-0.06667 0,-0.15 0,-0.25c0,-0.1 0,-0.18333 0,-0.25c0,-0.1 0,-0.2 0,-0.3c0.03333,-0.06667 0.06667,-0.15 0.1,-0.25c0.03333,-0.1 0.06666,-0.18333 0.1,-0.25c0.03333,-0.2 0.08334,-0.38333 0.15,-0.55c0,-0.1 0,-0.18333 0,-0.25c0,-0.1 0,-0.2 0,-0.3c0,-0.06667 0,-0.15 0,-0.25c0,-0.1 0,-0.18333 0,-0.25c0.03333,-0.1 0.06666,-0.2 0.1,-0.3c0.1,-0.26666 0.18334,-0.53334 0.25,-0.8c0,-0.1 0.01667,-0.18333 0.05,-0.25c0,-0.1 0,-0.2 0,-0.3c0,-0.26666 0.1,-0.53334 0.3,-0.8c0,-0.06667 0,-0.15 0,-0.25c0,-0.1 0,-0.18333 0,-0.25c0.03333,-0.1 0.06667,-0.2 0.1,-0.3c0.06666,-0.3 0.18334,-0.56667 0.35,-0.8c0.03333,-0.06667 0.08334,-0.15 0.15,-0.25c0.03333,-0.1 0.06667,-0.2 0.1,-0.3c0.1,-0.26666 0.16666,-0.53334 0.2,-0.8c0.06666,-0.06667 0.13334,-0.15 0.2,-0.25c0.2,-0.33333 0.35,-0.68333 0.45,-1.05c0.06666,-0.2 0.13333,-0.38333 0.2,-0.55c0.16666,-0.36667 0.35,-0.71667 0.55,-1.05c0.16666,-0.36667 0.28333,-0.73334 0.35,-1.1c0,-0.1 0.01667,-0.18333 0.05,-0.25c0.06666,-0.1 0.13333,-0.18333 0.2,-0.25c0.26666,-0.36667 0.51666,-0.73333 0.75,-1.1c0.13333,-0.23334 0.23334,-0.5 0.3,-0.8c0.1,-0.4 0.26666,-0.75 0.5,-1.05c0.3,-0.43333 0.55,-0.88334 0.75,-1.35c0.03333,-0.1 0.06667,-0.2 0.1,-0.3c0.06666,-0.06667 0.13333,-0.15 0.2,-0.25c0.33334,-0.3 0.61667,-0.65 0.85,-1.05c0.06666,-0.1 0.13334,-0.2 0.2,-0.3c0.2,-0.3 0.43333,-0.56667 0.7,-0.8c0.03333,-0.1 0.08334,-0.18333 0.15,-0.25c0.23334,-0.36667 0.45,-0.73333 0.65,-1.1c0.23334,-0.4 0.53333,-0.76667 0.9,-1.1c0.36667,-0.33333 0.71666,-0.68333 1.05,-1.05c0.26666,-0.26666 0.55,-0.53334 0.85,-0.8c0.16666,-0.06667 0.33334,-0.16666 0.5,-0.3c0.2,-0.13333 0.41666,-0.3 0.65,-0.5c0.06666,-0.06667 0.15,-0.15 0.25,-0.25c0.7,-0.36667 1.41666,-0.73334 2.15,-1.1c1.23334,-0.6 2.51666,-1.11667 3.85,-1.55c1.7,-0.5 3.36667,-0.86666 5,-1.1c2.43334,-0.33333 4.83334,-0.35 7.2,-0.05c2.53333,0.33333 5.03333,0.85 7.5,1.55c0.26666,0.2 0.55,0.36667 0.85,0.5c1.06666,0.56667 2.1,1.21666 3.1,1.95M645.55399,346.00699c0,-0.1 0,-0.2 0,-0.3c0,-0.06667 0,-0.15 0,-0.25c0,-0.16667 0,-0.35 0,-0.55c-2.83334,-2.3 -6.16666,-3.53333 -10,-3.7c-2.53333,-0.13333 -5.08334,-0.23334 -7.65,-0.3c-2.33334,0.36667 -4.6,1.01667 -6.8,1.95c-1.66666,0.73334 -3.06666,1.81667 -4.2,3.25c-0.06666,0.06667 -0.11667,0.15 -0.15,0.25c-0.03333,0.1 -0.08334,0.18333 -0.15,0.25c-0.03333,0.1 -0.08334,0.2 -0.15,0.3c-0.16666,0.16667 -0.33334,0.33333 -0.5,0.5c-0.1,0.1 -0.2,0.2 -0.3,0.3c-0.1,0.06667 -0.18334,0.15 -0.25,0.25c-1,1.43333 -1.9,2.93333 -2.7,4.5c-1.3,2.43333 -2.33334,4.95 -3.1,7.55c-0.23334,0.83333 -0.48334,1.63333 -0.75,2.4c0,0.26666 0,0.53334 0,0.8c0,0.2 -0.01666,0.38333 -0.05,0.55c-0.03333,0.16667 -0.08334,0.35 -0.15,0.55c-0.03333,0.1 -0.08334,0.18333 -0.15,0.25c0,0.3 0,0.56667 0,0.8c-0.03333,0.2 -0.05,0.38333 -0.05,0.55c-0.03333,0.16667 -0.08334,0.33333 -0.15,0.5c-0.03333,0.1 -0.08334,0.2 -0.15,0.3c0,0.26666 0,0.53334 0,0.8c0,0.26666 0.01666,0.53334 0.05,0.8c0,0.3 -0.01666,0.56667 -0.05,0.8c-0.03333,0.3 -0.15,0.56666 -0.35,0.8c0,0.73334 0,1.45 0,2.15c0,0.63333 0,1.26666 0,1.9c0,0.9 0,1.78334 0,2.65c0,0.2 0,0.38333 0,0.55c0.06666,0.16667 0.13333,0.35 0.2,0.55c0.03333,0.06667 0.05,0.15 0.05,0.25c0,0.1 0.01666,0.18333 0.05,0.25c0,0.2 0.01667,0.38333 0.05,0.55c0,0.1 0,0.18333 0,0.25c0.06666,0.2 0.13333,0.38333 0.2,0.55c0.03333,0.1 0.06667,0.2 0.1,0.3c0,0.06667 0.01666,0.15 0.05,0.25c0,0.1 0,0.18333 0,0.25c0,0.1 0,0.2 0,0.3c0.26666,0.76666 0.51666,1.56667 0.75,2.4c0.23334,0.83333 0.53334,1.65 0.9,2.45c0.53333,1.16667 1.21666,2.21666 2.05,3.15c0.03333,0.1 0.08334,0.2 0.15,0.3c0.03333,0.06667 0.06667,0.15 0.1,0.25c0.06666,0.1 0.11667,0.18333 0.15,0.25c0.2,0.2 0.38334,0.38333 0.55,0.55c0.06666,0.1 0.13333,0.18333 0.2,0.25c0.06666,0.1 0.11667,0.2 0.15,0.3c0.03333,0.06667 0.06667,0.15 0.1,0.25c0.36667,0.36667 0.73334,0.73333 1.1,1.1c0.33334,0.33333 0.68333,0.68333 1.05,1.05c0.16666,0.16667 0.35,0.35 0.55,0.55c0.66666,0.23334 1.26666,0.58334 1.8,1.05c0.4,0.33333 0.83334,0.66667 1.3,1c6.2,3.33333 12.45,3.63333 18.75,0.9c1.46667,-0.66667 2.83333,-1.48334 4.1,-2.45c0.56666,-0.63333 1.16667,-1.25 1.8,-1.85c0.53333,-0.46666 0.98334,-1 1.35,-1.6c0.33334,-0.56667 0.71666,-1.1 1.15,-1.6c0.06666,-0.2 0.11667,-0.38333 0.15,-0.55c0.03333,-0.1 0.05,-0.18333 0.05,-0.25c0,-0.1 0.01667,-0.2 0.05,-0.3c0.2,-0.26666 0.36667,-0.53334 0.5,-0.8c0.1,-0.16667 0.18334,-0.33333 0.25,-0.5c0.06666,-0.2 0.15,-0.38333 0.25,-0.55c0.1,-0.2 0.18334,-0.38333 0.25,-0.55c0,-0.1 0,-0.18333 0,-0.25c0,-0.1 0,-0.2 0,-0.3c0.1,-0.26666 0.18334,-0.53333 0.25,-0.8c0.06666,-0.26666 0.15,-0.53334 0.25,-0.8c0.03333,-0.16667 0.08334,-0.35 0.15,-0.55c0.06666,-0.16667 0.11667,-0.33333 0.15,-0.5c0,-0.1 0,-0.2 0,-0.3c0,-0.06667 0,-0.15 0,-0.25c0,-0.1 0,-0.18333 0,-0.25c0.03333,-0.1 0.06667,-0.2 0.1,-0.3c0.03333,-0.06667 0.06667,-0.15 0.1,-0.25c0.03333,-0.1 0.06667,-0.18333 0.1,-0.25c-0.06666,-0.8 -0.1,-1.61667 -0.1,-2.45c0,-0.8 0,-1.6 0,-2.4c0,-1.23334 0,-2.48334 0,-3.75c0,-0.1 0,-0.18333 0,-0.25c-0.03333,-0.1 -0.06667,-0.2 -0.1,-0.3c-0.03333,-0.06667 -0.06667,-0.15 -0.1,-0.25c-0.03333,-0.1 -0.05,-0.18333 -0.05,-0.25c-0.03333,-0.3 -0.03333,-0.56667 0,-0.8c0,-0.2 0,-0.38333 0,-0.55c0,-0.16667 0,-0.35 0,-0.55c0,-0.13333 0,-0.28334 0,-0.45c-4.53333,-1.33333 -9.2,-1.73334 -14,-1.2c-0.1,0 -0.16667,0.05 -0.2,0.15c-0.1,0.26666 -0.15,0.53333 -0.15,0.8c0.03333,0.26666 0.05,0.53334 0.05,0.8c0,0.16667 0,0.35 0,0.55c0,0.23334 0,0.5 0,0.8c-0.06666,0.16667 -0.13333,0.35 -0.2,0.55c-0.03333,0.06667 -0.05,0.15 -0.05,0.25c-0.03333,0.1 -0.06666,0.18333 -0.1,0.25c0,0.1 0,0.2 0,0.3c0,0.06667 0,0.15 0,0.25c0,0.1 0,0.18333 0,0.25c0,0.06667 0,0.13334 0,0.2c1.33334,0.06667 2.71666,-0.05 4.15,-0.35c0.53333,-0.13333 1.08334,-0.23334 1.65,-0.3c1.03333,0.1 1.91666,0.53334 2.65,1.3c0.4,0.4 0.7,0.86666 0.9,1.4c0.1,0.26666 0.2,0.53334 0.3,0.8c0,0.1 0,0.18333 0,0.25c0,0.1 0,0.2 0,0.3c0,0.06667 0,0.15 0,0.25c0.53333,5.93334 -1.71667,10.73333 -6.75,14.4c-1.6,1.16667 -3.4,1.9 -5.4,2.2c-5.13333,0.8 -9.51667,-0.56667 -13.15,-4.1c-0.16666,-0.16667 -0.33334,-0.35 -0.5,-0.55c-0.1,-0.06667 -0.2,-0.15 -0.3,-0.25c-0.63333,-1.16667 -1.26666,-2.33333 -1.9,-3.5c-0.83334,-1.56667 -1.53334,-3.16667 -2.1,-4.8c-0.33334,-0.96666 -0.66666,-1.95 -1,-2.95c0,-0.1 0,-0.18333 0,-0.25c0,-0.1 0,-0.2 0,-0.3c-0.2,-0.2 -0.31667,-0.46666 -0.35,-0.8c-0.03333,-0.23334 -0.03333,-0.5 0,-0.8c0,-0.26666 0,-0.53334 0,-0.8c0,-0.26666 0,-0.53334 0,-0.8c0,-0.1 0,-0.18333 0,-0.25c-0.06666,-0.2 -0.11667,-0.38333 -0.15,-0.55c-0.03333,-0.1 -0.06667,-0.18333 -0.1,-0.25c-0.03333,-0.1 -0.06667,-0.2 -0.1,-0.3c0,-0.43333 0,-0.88334 0,-1.35c0,-0.36667 0,-0.71667 0,-1.05c0,-0.36667 0,-0.71667 0,-1.05c0,-0.36667 0,-0.73333 0,-1.1c0.06666,-0.16667 0.13334,-0.35 0.2,-0.55c0,-0.06667 0.01666,-0.15 0.05,-0.25c0.03333,-0.1 0.06667,-0.18333 0.1,-0.25c0,-0.1 0,-0.2 0,-0.3c0,-0.06667 0,-0.15 0,-0.25c0,-0.1 0,-0.18333 0,-0.25c0,-0.1 0,-0.2 0,-0.3c0.06666,-0.16667 0.13334,-0.33333 0.2,-0.5c0.03333,-0.1 0.05,-0.2 0.05,-0.3c0.03333,-0.06667 0.06667,-0.15 0.1,-0.25c0,-0.1 0,-0.18333 0,-0.25c0,-0.1 0,-0.2 0,-0.3c0,-0.06667 0,-0.15 0,-0.25c0,-0.1 0,-0.2 0,-0.3c0.06666,-0.16667 0.13334,-0.33333 0.2,-0.5c0.03333,-0.1 0.06666,-0.2 0.1,-0.3c0,-0.06667 0.01667,-0.15 0.05,-0.25c0,-0.16667 0.01666,-0.35 0.05,-0.55c0,-0.06667 0.01667,-0.15 0.05,-0.25c0,-0.1 0.01666,-0.18333 0.05,-0.25c0.06666,-0.2 0.15,-0.38333 0.25,-0.55c0,-0.1 0,-0.18333 0,-0.25c0,-0.1 0,-0.2 0,-0.3c0.06666,-0.36667 0.18334,-0.73334 0.35,-1.1c0.2,-0.33333 0.38333,-0.68333 0.55,-1.05c0.13333,-0.26666 0.23334,-0.53333 0.3,-0.8c0.06666,-0.16667 0.13333,-0.33333 0.2,-0.5c3.73334,-6.96666 9.51666,-9.86667 17.35,-8.7c2.9,0.43333 5.66666,1.31667 8.3,2.65c0.36667,0.16667 0.75,0.33333 1.15,0.5c0.16666,0 0.33334,0 0.5,0c0.2,-0.26666 0.38333,-0.55 0.55,-0.85c0.16666,-0.26666 0.38333,-0.51666 0.65,-0.75c0.26666,-0.2 0.53334,-0.38333 0.8,-0.55c0.16666,-0.3 0.36666,-0.56666 0.6,-0.8c0.16666,-0.16667 0.31667,-0.35 0.45,-0.55c0.13333,-0.16667 0.25,-0.33333 0.35,-0.5c0,-0.2 0,-0.38333 0,-0.55z" fill="#000000"/><path d="M644.76399,347.61699c-0.23334,0.23334 -0.43334,0.5 -0.6,0.8c-0.26666,0.16667 -0.53334,0.35 -0.8,0.55c-0.26666,0.23334 -0.48334,0.48334 -0.65,0.75c-0.16666,0.3 -0.35,0.58334 -0.55,0.85c-0.16666,0 -0.33334,0 -0.5,0c-0.4,-0.16667 -0.78333,-0.33333 -1.15,-0.5c-2.63333,-1.33333 -5.4,-2.21666 -8.3,-2.65c-7.83334,-1.16667 -13.61667,1.73334 -17.35,8.7c-0.06666,0.16667 -0.13333,0.33333 -0.2,0.5c-0.06666,0.26666 -0.16667,0.53334 -0.3,0.8c-0.16666,0.36667 -0.35,0.71666 -0.55,1.05c-0.16666,0.36667 -0.28334,0.73334 -0.35,1.1c0,0.1 0,0.2 0,0.3c0,0.06667 0,0.15 0,0.25c-0.1,0.16667 -0.18334,0.35 -0.25,0.55c-0.03333,0.06667 -0.05,0.15 -0.05,0.25c-0.03333,0.1 -0.05,0.18333 -0.05,0.25c-0.03333,0.2 -0.05,0.38333 -0.05,0.55c-0.03333,0.1 -0.05,0.18333 -0.05,0.25c-0.03333,0.1 -0.06667,0.2 -0.1,0.3c-0.06666,0.16667 -0.13334,0.33333 -0.2,0.5c0,0.1 0,0.2 0,0.3c0,0.1 0,0.18333 0,0.25c0,0.1 0,0.2 0,0.3c0,0.06667 0,0.15 0,0.25c-0.03333,0.1 -0.06667,0.18333 -0.1,0.25c0,0.1 -0.01666,0.2 -0.05,0.3c-0.06666,0.16667 -0.13334,0.33333 -0.2,0.5c0,0.1 0,0.2 0,0.3c0,0.06667 0,0.15 0,0.25c0,0.1 0,0.18333 0,0.25c0,0.1 0,0.2 0,0.3c-0.03333,0.06667 -0.06666,0.15 -0.1,0.25c-0.03333,0.1 -0.05,0.18333 -0.05,0.25c-0.06666,0.2 -0.13333,0.38333 -0.2,0.55c0,0.36667 0,0.73334 0,1.1c0,0.33333 0,0.68333 0,1.05c0,0.33333 0,0.68333 0,1.05c0,0.46666 0,0.91667 0,1.35c0.03333,0.1 0.06666,0.2 0.1,0.3c0.03333,0.06667 0.06667,0.15 0.1,0.25c0.03333,0.16667 0.08334,0.35 0.15,0.55c0,0.06667 0,0.15 0,0.25c0,0.26666 0,0.53334 0,0.8c0,0.26666 0,0.53334 0,0.8c-0.03333,0.3 -0.03333,0.56667 0,0.8c0.03333,0.33333 0.15,0.6 0.35,0.8c0,0.1 0,0.2 0,0.3c0,0.06667 0,0.15 0,0.25c0.33334,1 0.66666,1.98334 1,2.95c0.56666,1.63333 1.26666,3.23333 2.1,4.8c0.63333,1.16667 1.26666,2.33333 1.9,3.5c0.1,0.1 0.2,0.18333 0.3,0.25c0.16666,0.2 0.33334,0.38333 0.5,0.55c3.63333,3.53334 8.01666,4.9 13.15,4.1c2,-0.3 3.8,-1.03333 5.4,-2.2c5.03333,-3.66667 7.28333,-8.46667 6.75,-14.4c0,-0.1 0,-0.18333 0,-0.25c0,-0.1 0,-0.2 0,-0.3c0,-0.06667 0,-0.15 0,-0.25c-0.1,-0.26666 -0.2,-0.53333 -0.3,-0.8c-0.2,-0.53334 -0.5,-1 -0.9,-1.4c-0.73334,-0.76666 -1.61667,-1.2 -2.65,-1.3c-0.56666,0.06667 -1.11667,0.16667 -1.65,0.3c-1.43334,0.3 -2.81666,0.41667 -4.15,0.35c0,-0.06667 0,-0.13333 0,-0.2c0,-0.06667 0,-0.15 0,-0.25c0,-0.1 0,-0.18333 0,-0.25c0,-0.1 0,-0.2 0,-0.3c0.03333,-0.06667 0.06667,-0.15 0.1,-0.25c0,-0.1 0.01666,-0.18333 0.05,-0.25c0.06666,-0.2 0.13334,-0.38333 0.2,-0.55c0,-0.3 0,-0.56667 0,-0.8c0,-0.2 0,-0.38333 0,-0.55c0,-0.26666 -0.01667,-0.53333 -0.05,-0.8c0,-0.26666 0.05,-0.53334 0.15,-0.8c0.03333,-0.1 0.1,-0.15 0.2,-0.15c4.8,-0.53334 9.46667,-0.13333 14,1.2c0,0.16667 0,0.31667 0,0.45c0,0.2 0,0.38333 0,0.55c0,0.16667 0,0.35 0,0.55c-0.03333,0.23334 -0.03333,0.5 0,0.8c0,0.06667 0.01666,0.15 0.05,0.25c0.03333,0.1 0.06667,0.18333 0.1,0.25c0.03333,0.1 0.06667,0.2 0.1,0.3c0,0.06667 0,0.15 0,0.25c0,1.26666 0,2.51666 0,3.75c0,0.8 0,1.6 0,2.4c0,0.83333 0.03334,1.65 0.1,2.45c-0.03333,0.06667 -0.06667,0.15 -0.1,0.25c-0.03333,0.1 -0.06667,0.18333 -0.1,0.25c-0.03333,0.1 -0.06667,0.2 -0.1,0.3c0,0.06667 0,0.15 0,0.25c0,0.1 0,0.18333 0,0.25c0,0.1 0,0.2 0,0.3c-0.03333,0.16667 -0.08334,0.33333 -0.15,0.5c-0.06666,0.2 -0.11667,0.38333 -0.15,0.55c-0.1,0.26666 -0.18334,0.53334 -0.25,0.8c-0.06666,0.26666 -0.15,0.53334 -0.25,0.8c0,0.1 0,0.2 0,0.3c0,0.06667 0,0.15 0,0.25c-0.06666,0.16667 -0.15,0.35 -0.25,0.55c-0.1,0.16667 -0.18334,0.35 -0.25,0.55c-0.06666,0.16667 -0.15,0.33333 -0.25,0.5c-0.13333,0.26666 -0.3,0.53334 -0.5,0.8c-0.03333,0.1 -0.05,0.2 -0.05,0.3c0,0.06667 -0.01667,0.15 -0.05,0.25c-0.03333,0.16667 -0.08334,0.35 -0.15,0.55c-0.43334,0.5 -0.81666,1.03334 -1.15,1.6c-0.36667,0.6 -0.81667,1.13334 -1.35,1.6c-0.63333,0.6 -1.23334,1.21666 -1.8,1.85c-1.26666,0.96666 -2.63333,1.78333 -4.1,2.45c-6.3,2.73334 -12.55,2.43333 -18.75,-0.9c-0.46667,-0.33333 -0.9,-0.66667 -1.3,-1c-0.53333,-0.46666 -1.13333,-0.81667 -1.8,-1.05c-0.2,-0.2 -0.38333,-0.38333 -0.55,-0.55c-0.36667,-0.36667 -0.71667,-0.71666 -1.05,-1.05c-0.36667,-0.36667 -0.73334,-0.73334 -1.1,-1.1c-0.03333,-0.1 -0.06666,-0.18333 -0.1,-0.25c-0.03333,-0.1 -0.08334,-0.2 -0.15,-0.3c-0.06666,-0.06667 -0.13333,-0.15 -0.2,-0.25c-0.16666,-0.16667 -0.35,-0.35 -0.55,-0.55c-0.03333,-0.06667 -0.08334,-0.15 -0.15,-0.25c-0.03333,-0.1 -0.06667,-0.18333 -0.1,-0.25c-0.06666,-0.1 -0.11667,-0.2 -0.15,-0.3c-0.83334,-0.93333 -1.51666,-1.98334 -2.05,-3.15c-0.36667,-0.8 -0.66666,-1.61667 -0.9,-2.45c-0.23334,-0.83333 -0.48334,-1.63333 -0.75,-2.4c0,-0.1 0,-0.2 0,-0.3c0,-0.06667 0,-0.15 0,-0.25c-0.03333,-0.1 -0.05,-0.18333 -0.05,-0.25c-0.03333,-0.1 -0.06667,-0.2 -0.1,-0.3c-0.06666,-0.16667 -0.13333,-0.35 -0.2,-0.55c0,-0.06667 0,-0.15 0,-0.25c-0.03333,-0.16667 -0.05,-0.35 -0.05,-0.55c-0.03333,-0.06667 -0.05,-0.15 -0.05,-0.25c0,-0.1 -0.01666,-0.18333 -0.05,-0.25c-0.06666,-0.2 -0.13334,-0.38333 -0.2,-0.55c0,-0.16667 0,-0.35 0,-0.55c0,-0.86667 0,-1.75 0,-2.65c0,-0.63333 0,-1.26666 0,-1.9c0,-0.7 0,-1.41666 0,-2.15c0.2,-0.23334 0.31667,-0.5 0.35,-0.8c0.03333,-0.23334 0.05,-0.5 0.05,-0.8c-0.03333,-0.26666 -0.05,-0.53334 -0.05,-0.8c0,-0.26666 0,-0.53334 0,-0.8c0.06666,-0.1 0.11667,-0.2 0.15,-0.3c0.06666,-0.16667 0.11667,-0.33333 0.15,-0.5c0,-0.16667 0.01667,-0.35 0.05,-0.55c0,-0.23334 0,-0.5 0,-0.8c0.06666,-0.06667 0.11667,-0.15 0.15,-0.25c0.06666,-0.2 0.11667,-0.38333 0.15,-0.55c0.03333,-0.16667 0.05,-0.35 0.05,-0.55c0,-0.26666 0,-0.53333 0,-0.8c0.26666,-0.76666 0.51666,-1.56667 0.75,-2.4c0.76666,-2.6 1.8,-5.11667 3.1,-7.55c0.8,-1.56667 1.7,-3.06667 2.7,-4.5c0.06666,-0.1 0.15,-0.18333 0.25,-0.25c0.1,-0.1 0.2,-0.2 0.3,-0.3c0.16666,-0.16667 0.33334,-0.33333 0.5,-0.5c0.06666,-0.1 0.11667,-0.2 0.15,-0.3c0.06666,-0.06667 0.11667,-0.15 0.15,-0.25c0.03333,-0.1 0.08334,-0.18333 0.15,-0.25c1.13333,-1.43333 2.53333,-2.51666 4.2,-3.25c2.2,-0.93333 4.46667,-1.58333 6.8,-1.95c2.56666,0.06667 5.11667,0.16666 7.65,0.3c3.83334,0.16667 7.16666,1.4 10,3.7c0,0.2 0,0.38333 0,0.55c0,0.1 0,0.18333 0,0.25c0,0.1 0,0.2 0,0.3c0,0.16667 0,0.35 0,0.55c-0.1,0.16667 -0.21667,0.33333 -0.35,0.5c-0.13333,0.2 -0.28333,0.38333 -0.45,0.55z" fill="#ffffff"/></g></g></svg>