<svg version="1.1" xmlns="http://www.w3.org/2000/svg" xmlns:xlink="http://www.w3.org/1999/xlink" width="443.7" height="117.5" viewBox="0,0,443.7,117.5"><g transform="translate(-418.15,-301.25)"><g data-paper-data="{&quot;isPaintingLayer&quot;:true}" fill-rule="nonzero" stroke="none" stroke-width="1" stroke-linecap="round" stroke-linejoin="miter" stroke-miterlimit="4" stroke-dasharray="" stroke-dashoffset="0" style="mix-blend-mode: normal"><path d="M439.55,305.9c0.43333,-0.1 0.85,-0.21667 1.25,-0.35c1.73333,-0.13333 3.46667,-0.25 5.2,-0.35c0.4,-0.13333 0.81667,-0.25 1.25,-0.35c1.9,0 3.8,0 5.7,0c0.36667,0.1 0.71667,0.21667 1.05,0.35c4.16667,0.1 8.33333,0.21667 12.5,0.35c0.43333,0.13333 0.85,0.25 1.25,0.35c0.26667,0.13333 0.51667,0.25 0.75,0.35c0.76667,0.06667 1.53333,0.13333 2.3,0.2c0.36667,0.1 0.73333,0.21667 1.1,0.35c0.83333,0.1 1.66667,0.21667 2.5,0.35c0.26667,0.13333 0.55,0.25 0.85,0.35c0.66667,0.13333 1.33333,0.25 2,0.35c0.33333,0.13333 0.68333,0.25 1.05,0.35c0.83333,0.13333 1.66667,0.26667 2.5,0.4c0.3,0.1 0.6,0.2 0.9,0.3c0.4,0.13333 0.81667,0.26667 1.25,0.4c0.3,0.1 0.6,0.21667 0.9,0.35c0.29115,0.0431 0.57448,0.07643 0.85,0.1c0.13945,-0.03034 0.27279,-0.06367 0.4,-0.1c0.23333,0 0.46667,-0.03333 0.7,-0.1v-0.1c0.3,0.13333 0.6,0.26667 0.9,0.4c0.16667,0.1 0.35,0.21667 0.55,0.35c0.3,0.1 0.6,0.21667 0.9,0.35c0.03997,0.02396 0.07331,0.04062 0.1,0.05c0.14167,0.05833 0.275,0.10833 0.4,0.15c0.36667,0.1 0.73333,0.21667 1.1,0.35c0.33333,0.1 0.68333,0.21667 1.05,0.35c0.36667,0.1 0.73333,0.21667 1.1,0.35c0.7,0.23333 1.41667,0.45 2.15,0.65c0.11549,0.03398 0.23216,0.06732 0.35,0.1c0.96237,0.11211 1.91237,0.21211 2.85,0.3c0.93333,0.23333 1.88333,0.48333 2.85,0.75c0.93333,0.23333 1.88333,0.48333 2.85,0.75c0.36667,0.06667 0.71667,0.16667 1.05,0.3c0.36667,0.13333 0.73333,0.25 1.1,0.35c0.33333,0.13333 0.68333,0.25 1.05,0.35c0.36667,0.2 0.73333,0.38333 1.1,0.55c0.23333,0.13333 0.46667,0.25 0.7,0.35c0.46667,0 0.93333,0 1.4,0c0.36667,0.13333 0.73333,0.25 1.1,0.35c0.23333,0.2 0.46667,0.38333 0.7,0.55c0.2,0.13333 0.38333,0.25 0.55,0.35c0.4,0.06667 0.81667,0.13333 1.25,0.2c0.36667,0.1 0.71667,0.21667 1.05,0.35c0.36667,0.1 0.73333,0.21667 1.1,0.35c0.33333,0.13333 0.68333,0.25 1.05,0.35c0.36667,0.13333 0.73333,0.25 1.1,0.35c0.33333,0.13333 0.68333,0.25 1.05,0.35c0.16667,0.13333 0.35,0.26667 0.55,0.4c0.33333,0.1 0.68333,0.2 1.05,0.3c0.50872,0.12721 1.00872,0.26055 1.5,0.4c0.10872,-0.05508 0.20872,-0.12174 0.3,-0.2c0.1,-0.16667 0.21667,-0.33333 0.35,-0.5c0.16667,-0.2 0.35,-0.38333 0.55,-0.55c0.16667,-0.16667 0.33333,-0.35 0.5,-0.55c0.2,-0.16667 0.38333,-0.35 0.55,-0.55c0.2,-0.16667 0.38333,-0.33333 0.55,-0.5c0.16667,-0.2 0.35,-0.38333 0.55,-0.55c0.1,-0.16667 0.21667,-0.35 0.35,-0.55c0.06667,-0.16667 0.11667,-0.33333 0.15,-0.5c0.13333,-0.2 0.25,-0.38333 0.35,-0.55c0.2,-0.13333 0.38333,-0.26667 0.55,-0.4c0.06667,-0.03333 0.13333,-0.08333 0.2,-0.15c0.3,-0.1 0.6,-0.21667 0.9,-0.35c0.16667,-0.16667 0.33333,-0.35 0.5,-0.55c0.2,-0.16667 0.38333,-0.33333 0.55,-0.5c0.16667,-0.2 0.35,-0.38333 0.55,-0.55c0.16667,-0.16667 0.33333,-0.35 0.5,-0.55c0.2,-0.16667 0.38333,-0.35 0.55,-0.55c0.2,-0.16667 0.38333,-0.33333 0.55,-0.5c0.16667,-0.2 0.35,-0.38333 0.55,-0.55c0.4,-0.16667 0.81667,-0.35 1.25,-0.55c0.16667,-0.16667 0.33333,-0.33333 0.5,-0.5c0.2,-0.2 0.38333,-0.38333 0.55,-0.55c0.16667,-0.16667 0.35,-0.35 0.55,-0.55c0.4,-0.16667 0.81667,-0.35 1.25,-0.55c0.16667,-0.16667 0.33333,-0.33333 0.5,-0.5c0.2,-0.13333 0.38333,-0.26667 0.55,-0.4c0.06667,-0.03333 0.13333,-0.08333 0.2,-0.15c0.3,-0.13333 0.6,-0.25 0.9,-0.35c0.26667,-0.16667 0.56667,-0.33333 0.9,-0.5c0.23333,-0.13333 0.46667,-0.26667 0.7,-0.4c0.1,-0.06667 0.21667,-0.11667 0.35,-0.15c0.3,-0.13333 0.6,-0.26667 0.9,-0.4c0.16667,-0.1 0.33333,-0.21667 0.5,-0.35c0.3,-0.06667 0.6,-0.11667 0.9,-0.15c0.3,-0.13333 0.6,-0.25 0.9,-0.35c0.53333,-0.2 1.06667,-0.4 1.6,-0.6c0.3,-0.1 0.6,-0.2 0.9,-0.3c0.3,-0.06667 0.6,-0.13333 0.9,-0.2c0.53333,-0.1 1.06667,-0.21667 1.6,-0.35c0.43333,-0.13333 0.85,-0.26667 1.25,-0.4c0.3,-0.1 0.6,-0.2 0.9,-0.3c0.4,-0.13333 0.81667,-0.23333 1.25,-0.3c1.2,-0.23333 2.38333,-0.46667 3.55,-0.7v-0.1c6.66667,0 13.33333,0 20,0c0.43333,0.13333 0.85,0.25 1.25,0.35c0.8,0.13333 1.58333,0.28333 2.35,0.45c0.4,0.06667 0.81667,0.15 1.25,0.25c0.76667,0.13333 1.53333,0.26667 2.3,0.4c0.36667,0.1 0.73333,0.21667 1.1,0.35c0.16667,0.13333 0.33333,0.25 0.5,0.35c0.36667,0.13333 0.73333,0.25 1.1,0.35c0.3,0.2 0.6,0.38333 0.9,0.55c0.3,0.16667 0.58333,0.35 0.85,0.55c0.2,0.16667 0.38333,0.33333 0.55,0.5c0.36667,0.2 0.73333,0.38333 1.1,0.55c0.23333,0.16667 0.46667,0.35 0.7,0.55c0.16667,0.16667 0.35,0.33333 0.55,0.5c0.16667,0.2 0.33333,0.38333 0.5,0.55c0.2,0.2 0.38333,0.38333 0.55,0.55c0.16667,0.16667 0.35,0.35 0.55,0.55c0.1,0.16667 0.21667,0.33333 0.35,0.5c0.1,0.2 0.21667,0.38333 0.35,0.55c0.13333,0.16667 0.25,0.35 0.35,0.55c0.06667,0.16667 0.13333,0.33333 0.2,0.5c0.06667,0.2 0.11667,0.38333 0.15,0.55c0.06667,0.2 0.13333,0.38333 0.2,0.55c0.1,0.16667 0.21667,0.35 0.35,0.55c0.13333,0.16667 0.25,0.33333 0.35,0.5c0.06667,0.2 0.13333,0.38333 0.2,0.55c0.16667,0 0.33333,0 0.5,0c0.26667,-0.16667 0.51667,-0.35 0.75,-0.55c0.1,-0.16667 0.21667,-0.33333 0.35,-0.5c0.4,-0.13333 0.81667,-0.26667 1.25,-0.4c6.23333,-0.1 12.48333,-0.21667 18.75,-0.35c0.4,-0.1 0.81667,-0.21667 1.25,-0.35c3.4,-0.1 6.78333,-0.21667 10.15,-0.35c0.43333,-0.13333 0.85,-0.25 1.25,-0.35c4.3,0 8.58333,0 12.85,0c0.36667,0.1 0.73333,0.21667 1.1,0.35c3.73333,0 7.48333,0 11.25,0c0.4,-0.13333 0.81667,-0.25 1.25,-0.35c1.23333,-0.13333 2.48333,-0.25 3.75,-0.35c0.4,-0.13333 0.81667,-0.25 1.25,-0.35c2.86667,0 5.71667,0 8.55,0c0.36667,0.1 0.73333,0.21667 1.1,0.35c0.16667,0.16667 0.33333,0.33333 0.5,0.5c0.2,0.2 0.38333,0.38333 0.55,0.55c0.2,0.2 0.38333,0.38333 0.55,0.55c0.23333,0.16667 0.46667,0.35 0.7,0.55c0.16667,0.16667 0.35,0.33333 0.55,0.5c0.1,0.2 0.21667,0.38333 0.35,0.55c0.13333,0.16667 0.25,0.35 0.35,0.55c0.13333,0 0.25,0 0.35,0c0.2,-0.2 0.38333,-0.38333 0.55,-0.55c0.23333,-0.16667 0.46667,-0.35 0.7,-0.55c0.13333,-0.16667 0.25,-0.33333 0.35,-0.5c0.43333,-0.13333 0.86667,-0.23333 1.3,-0.3c0.76667,-0.16667 1.53333,-0.33333 2.3,-0.5c0.4,-0.06667 0.81667,-0.16667 1.25,-0.3c1.23333,-0.1 2.48333,-0.21667 3.75,-0.35c0.4,-0.13333 0.81667,-0.25 1.25,-0.35c2.2,-0.13333 4.4,-0.25 6.6,-0.35c0.4,-0.13333 0.81667,-0.25 1.25,-0.35c1.73333,-0.13333 3.46667,-0.26667 5.2,-0.4c0.4,-0.1 0.81667,-0.21667 1.25,-0.35c1,-0.1 2,-0.21667 3,-0.35c0.43333,-0.1 0.85,-0.21667 1.25,-0.35c1.26667,-0.13333 2.51667,-0.25 3.75,-0.35c0.43333,-0.13333 0.85,-0.25 1.25,-0.35c3.1,0 6.2,0 9.3,0c0.36667,0.1 0.71667,0.21667 1.05,0.35c0.13333,0.1 0.25,0.21667 0.35,0.35c0.36667,0.13333 0.73333,0.25 1.1,0.35c0.16667,0.13333 0.35,0.25 0.55,0.35c0.3,0.13333 0.58333,0.25 0.85,0.35c0.2,0.2 0.38333,0.38333 0.55,0.55c0.23333,0.2 0.46667,0.38333 0.7,0.55c0.2,0.16667 0.38333,0.35 0.55,0.55c0.2,0.16667 0.38333,0.33333 0.55,0.5c0.1,0.2 0.21667,0.38333 0.35,0.55c0.23333,0.16667 0.46667,0.35 0.7,0.55c0.13333,0.16667 0.25,0.33333 0.35,0.5c0.13333,0.2 0.26667,0.38333 0.4,0.55c0.1,0.2 0.21667,0.38333 0.35,0.55c0.1,0.16667 0.21667,0.35 0.35,0.55c0.1,0.16667 0.21667,0.33333 0.35,0.5c0.13333,0.13333 0.25,0.25 0.35,0.35c0.06667,0.06667 0.13333,0.1 0.2,0.1c0.3,0 0.6,-0.03333 0.9,-0.1c0.03333,-0.16667 0.08333,-0.33333 0.15,-0.5c0.06667,-0.2 0.13333,-0.38333 0.2,-0.55c0,-0.16667 0,-0.35 0,-0.55c0.1,-0.16667 0.21667,-0.33333 0.35,-0.5c0.06667,-0.2 0.11667,-0.38333 0.15,-0.55c0.06667,-0.16667 0.13333,-0.35 0.2,-0.55c0,-0.16667 0,-0.35 0,-0.55c0,-0.16667 0,-0.33333 0,-0.5c0.06667,-0.2 0.13333,-0.38333 0.2,-0.55c0.1,-0.16667 0.21667,-0.35 0.35,-0.55c0.16667,-0.1 0.33333,-0.21667 0.5,-0.35c0.3,-0.1 0.6,-0.21667 0.9,-0.35c0.2,-0.13333 0.38333,-0.25 0.55,-0.35c0.3,-0.06667 0.6,-0.11667 0.9,-0.15c1.5,-0.13333 2.98333,-0.26667 4.45,-0.4c0.43333,-0.1 0.85,-0.21667 1.25,-0.35c1.96667,-0.13333 3.93333,-0.25 5.9,-0.35c0.4,-0.13333 0.81667,-0.25 1.25,-0.35c1.23333,-0.13333 2.48333,-0.25 3.75,-0.35c0.4,-0.13333 0.81667,-0.26667 1.25,-0.4c1,-0.1 2.01667,-0.21667 3.05,-0.35c0.4,-0.1 0.81667,-0.21667 1.25,-0.35c1,-0.1 2,-0.21667 3,-0.35c0.43333,-0.1 0.85,-0.21667 1.25,-0.35c1.5,-0.13333 3,-0.25 4.5,-0.35c0.4,-0.13333 0.81667,-0.25 1.25,-0.35c1,-0.13333 2,-0.25 3,-0.35c0.43333,-0.13333 0.85,-0.26667 1.25,-0.4c0.8,-0.1 1.58333,-0.21667 2.35,-0.35c0.4,-0.1 0.81667,-0.21667 1.25,-0.35c0.76667,-0.1 1.53333,-0.23333 2.3,-0.4c0.43333,-0.1 0.85,-0.2 1.25,-0.3c1.03333,-0.13333 2.05,-0.25 3.05,-0.35c0.4,-0.13333 0.81667,-0.25 1.25,-0.35c2.13333,0 4.26667,0 6.4,0c0.36667,0.1 0.73333,0.21667 1.1,0.35c0.1,0.1 0.21667,0.21667 0.35,0.35c0.36667,0.1 0.71667,0.21667 1.05,0.35c0.2,0.16667 0.38333,0.35 0.55,0.55c0.2,0.16667 0.38333,0.33333 0.55,0.5c0.16667,0.2 0.35,0.38333 0.55,0.55c0.23333,0.16667 0.46667,0.35 0.7,0.55c0.16667,0.16667 0.35,0.35 0.55,0.55c0.1,0.16667 0.21667,0.33333 0.35,0.5c0.1,0.2 0.21667,0.38333 0.35,0.55c0.06667,0.16667 0.11667,0.35 0.15,0.55c0,0.16667 0,0.33333 0,0.5c0.13333,0.2 0.26667,0.38333 0.4,0.55c0.1,0.16667 0.21667,0.35 0.35,0.55c0.1,0.16667 0.21667,0.33333 0.35,0.5c0.1,0.2 0.21667,0.38333 0.35,0.55c0,0.2 0,0.38333 0,0.55c0,0.16667 0,0.35 0,0.55c0.13333,0 0.25,0 0.35,0c0.13333,-0.2 0.25,-0.38333 0.35,-0.55c0.06667,-0.16667 0.13333,-0.35 0.2,-0.55c0.06667,-0.16667 0.11667,-0.35 0.15,-0.55c0,-0.16667 0,-0.33333 0,-0.5c0,-0.2 0,-0.38333 0,-0.55c0,-0.16667 0,-0.35 0,-0.55c0,-0.16667 0,-0.33333 0,-0.5c0,-0.2 0,-0.38333 0,-0.55c0,-0.16667 0,-0.35 0,-0.55c0.13333,-0.16667 0.26667,-0.33333 0.4,-0.5c0.1,-0.2 0.21667,-0.38333 0.35,-0.55c0.4,-0.13333 0.81667,-0.25 1.25,-0.35c3.13333,-0.13333 6.28333,-0.25 9.45,-0.35c0.43333,-0.13333 0.85,-0.26667 1.25,-0.4c2.66667,-0.1 5.35,-0.21667 8.05,-0.35c0.4,-0.1 0.81667,-0.21667 1.25,-0.35c7.83333,0 15.68333,0 23.55,0c0.43333,0.13333 0.85,0.25 1.25,0.35c1.96667,0.13333 3.93333,0.25 5.9,0.35c0.36667,0.13333 0.71667,0.26667 1.05,0.4c0.36667,0.1 0.73333,0.21667 1.1,0.35c0.33333,0.1 0.68333,0.21667 1.05,0.35c0.36667,0.1 0.73333,0.21667 1.1,0.35c0.33333,0.13333 0.68333,0.25 1.05,0.35c0.16667,0.16667 0.35,0.35 0.55,0.55c0.16667,0.16667 0.33333,0.33333 0.5,0.5c0.13333,0.2 0.26667,0.38333 0.4,0.55c0.03333,0.2 0.08333,0.38333 0.15,0.55c0.13333,0.16667 0.25,0.35 0.35,0.55c0.06667,0.16667 0.13333,0.33333 0.2,0.5c0.06667,0.2 0.11667,0.38333 0.15,0.55c0.13333,0.16667 0.26667,0.35 0.4,0.55c0.1,0.16667 0.21667,0.33333 0.35,0.5c0,0.2 0,0.38333 0,0.55c0,0.2 0,0.38333 0,0.55c0.1,0.16667 0.21667,0.35 0.35,0.55c0.1,0.16667 0.21667,0.33333 0.35,0.5c0.06667,0.2 0.13333,0.38333 0.2,0.55c0.1,0.16667 0.21667,0.35 0.35,0.55c0.06667,0.16667 0.11667,0.33333 0.15,0.5c0,0.2 0,0.38333 0,0.55c0,0.2 0,0.38333 0,0.55c0,0.16667 0,0.35 0,0.55c0.13333,0.16667 0.25,0.33333 0.35,0.5c0.13333,0.2 0.26667,0.38333 0.4,0.55c0,0.16667 0,0.35 0,0.55c0,0.16667 0,0.33333 0,0.5c0,0.2 0,0.38333 0,0.55c0,0.2 0,0.38333 0,0.55c0.1,0.16667 0.21667,0.35 0.35,0.55c0.06667,0.16667 0.11667,0.33333 0.15,0.5c0.06667,0.2 0.13333,0.38333 0.2,0.55c0,0.16667 0,0.35 0,0.55c0,0.16667 0,0.33333 0,0.5c0,0.2 0,0.38333 0,0.55c0,0.2 0,0.38333 0,0.55c0,0.16667 0,0.35 0,0.55c0.06667,0.16667 0.11667,0.33333 0.15,0.5c0.13333,0.2 0.26667,0.38333 0.4,0.55c0.03333,0.16667 0.08333,0.35 0.15,0.55c0,0.16667 0,0.33333 0,0.5c0,0.56667 0,1.11667 0,1.65c0,0.86667 0,1.75 0,2.65c0,1.43333 0,2.86667 0,4.3c0,1.96667 0,3.93333 0,5.9c0,0.33333 0,0.68333 0,1.05c0,0.16667 0,0.35 0,0.55c0,0.16667 0,0.35 0,0.55c0,0.16667 0,0.33333 0,0.5c0,0.2 0,0.38333 0,0.55c0,0.16667 0,0.35 0,0.55c0,0.16667 0,0.33333 0,0.5c0,0.2 0,0.38333 0,0.55c0,0.53333 0,1.06667 0,1.6c0,0.2 0,0.38333 0,0.55c0,1.6 0,3.2 0,4.8c0,1.1 0,2.18333 0,3.25c0,0.16667 0,0.33333 0,0.5c-0.1,0.2 -0.21667,0.38333 -0.35,0.55c-0.13333,0.16667 -0.25,0.35 -0.35,0.55c-0.13333,0.1 -0.25,0.21667 -0.35,0.35c-0.36667,0.13333 -0.73333,0.25 -1.1,0.35c-0.1,0.13333 -0.21667,0.25 -0.35,0.35c-0.36667,0.13333 -0.71667,0.25 -1.05,0.35c-0.13333,0.13333 -0.25,0.26667 -0.35,0.4c-0.3,0.03333 -0.6,0.1 -0.9,0.2c-0.36667,0.1 -0.73333,0.2 -1.1,0.3c-0.33333,0.13333 -0.68333,0.25 -1.05,0.35c-0.53333,0.13333 -1.06667,0.26667 -1.6,0.4c0,0.16667 0,0.33333 0,0.5c0,0.2 0,0.38333 0,0.55c0,0.16667 0,0.35 0,0.55c0,0.16667 0,0.33333 0,0.5c0,0.2 0,0.38333 0,0.55c0,0.16667 0,0.35 0,0.55c0,0.16667 0,0.35 0,0.55c-0.06667,0.16667 -0.13333,0.33333 -0.2,0.5c0,0.2 0,0.38333 0,0.55c0,0.16667 0,0.35 0,0.55c0,0.16667 0,0.33333 0,0.5c0,0.2 0,0.38333 0,0.55c0,0.16667 0,0.35 0,0.55c-0.06667,0.16667 -0.11667,0.35 -0.15,0.55c-0.06667,0.16667 -0.13333,0.33333 -0.2,0.5c-0.13333,0.2 -0.25,0.38333 -0.35,0.55c0,0.16667 0,0.35 0,0.55c0.16667,0.16667 0.35,0.33333 0.55,0.5c0.16667,0.2 0.33333,0.38333 0.5,0.55c0.13333,0.13333 0.25,0.25 0.35,0.35c0.06667,0.06667 0.13333,0.1 0.2,0.1c0.53333,0.13333 1.06667,0.21667 1.6,0.25c0.3,0.13333 0.6,0.26667 0.9,0.4c0.66667,0.1 1.31667,0.21667 1.95,0.35c0.3,0.1 0.6,0.2 0.9,0.3c0.43333,0.13333 0.85,0.26667 1.25,0.4c0.3,0.13333 0.6,0.25 0.9,0.35c0.23333,0.16667 0.46667,0.35 0.7,0.55c0.2,0.16667 0.38333,0.35 0.55,0.55c0.16667,0.16667 0.35,0.33333 0.55,0.5c0.16667,0.2 0.33333,0.38333 0.5,0.55c0.13333,0.16667 0.26667,0.35 0.4,0.55c0.1,0.16667 0.21667,0.33333 0.35,0.5c0,0.2 0,0.38333 0,0.55c0,0.53333 0,1.06667 0,1.6c0,0.53333 0,1.06667 0,1.6c0,0.73333 0,1.45 0,2.15c0,0.9 0,1.8 0,2.7c0,1.43333 0,2.85 0,4.25c0,1.1 0,2.18333 0,3.25c0,0.16667 0,0.33333 0,0.5c0,0.2 0,0.38333 0,0.55c0,0.2 0,0.38333 0,0.55c0,0.16667 0,0.35 0,0.55c0,0.16667 0,0.33333 0,0.5c0,0.2 0,0.38333 0,0.55c0,0.16667 0,0.35 0,0.55c0,0.33333 0,0.68333 0,1.05c0,0.2 0,0.38333 0,0.55c-0.13333,0.16667 -0.25,0.35 -0.35,0.55c-0.13333,0.16667 -0.26667,0.33333 -0.4,0.5c0,0.2 0,0.38333 0,0.55c0,0.16667 0,0.35 0,0.55c0,0.16667 0,0.33333 0,0.5c0,0.2 0,0.38333 0,0.55c0,0.2 0,0.38333 0,0.55c0,0.16667 0,0.35 0,0.55c-0.1,0.16667 -0.21667,0.33333 -0.35,0.5c-0.1,0.2 -0.21667,0.38333 -0.35,0.55c0,0.16667 0,0.35 0,0.55c0,0.16667 0,0.33333 0,0.5c0,0.2 0,0.38333 0,0.55c0,0.2 0,0.38333 0,0.55c0,0.16667 0,0.35 0,0.55c0,0.16667 0,0.33333 0,0.5c0,0.2 0,0.38333 0,0.55c0,0.16667 0,0.35 0,0.55c0,0.16667 0,0.33333 0,0.5c0,0.2 0,0.38333 0,0.55c-0.1,0.2 -0.21667,0.38333 -0.35,0.55c-0.13333,0.16667 -0.25,0.35 -0.35,0.55c-0.13333,0.16667 -0.25,0.33333 -0.35,0.5c-0.2,0.2 -0.38333,0.38333 -0.55,0.55c-0.16667,0.16667 -0.35,0.35 -0.55,0.55c-0.33333,0.1 -0.68333,0.2 -1.05,0.3c-0.6,0.13333 -1.2,0.28333 -1.8,0.45c-0.36667,0.1 -0.71667,0.18333 -1.05,0.25c-0.6,0.16667 -1.2,0.31667 -1.8,0.45c-0.36667,0.1 -0.71667,0.2 -1.05,0.3c-2.93333,0.13333 -5.85,0.26667 -8.75,0.4c-0.43333,0.1 -0.85,0.21667 -1.25,0.35c-2.03333,0.1 -4.06667,0.21667 -6.1,0.35c-0.33333,0.1 -0.68333,0.21667 -1.05,0.35c-1.56667,0.13333 -3.11667,0.25 -4.65,0.35c-0.36667,0.13333 -0.71667,0.25 -1.05,0.35c-3,0.13333 -5.98333,0.25 -8.95,0.35c-0.36667,0.13333 -0.71667,0.26667 -1.05,0.4c-6.66667,0 -13.33333,0 -20,0c-0.43333,-0.13333 -0.85,-0.26667 -1.25,-0.4c-1.73333,-0.1 -3.46667,-0.21667 -5.2,-0.35c-0.4,-0.1 -0.81667,-0.21667 -1.25,-0.35c-0.13333,-0.1 -0.25,-0.21667 -0.35,-0.35c-0.36667,-0.13333 -0.73333,-0.25 -1.1,-0.35c-0.1,-0.13333 -0.21667,-0.25 -0.35,-0.35c-0.33333,-0.13333 -0.68333,-0.25 -1.05,-0.35c-0.13333,-0.2 -0.25,-0.38333 -0.35,-0.55c-0.23333,-0.2 -0.48333,-0.38333 -0.75,-0.55c-0.16667,-0.16667 -0.33333,-0.35 -0.5,-0.55c-0.13333,-0.16667 -0.25,-0.33333 -0.35,-0.5c-0.06667,-0.2 -0.13333,-0.38333 -0.2,-0.55c-0.13333,-0.16667 -0.25,-0.35 -0.35,-0.55c-0.16667,-0.16667 -0.35,-0.33333 -0.55,-0.5c-0.1,-0.2 -0.21667,-0.38333 -0.35,-0.55c-0.06667,-0.16667 -0.13333,-0.35 -0.2,-0.55c-0.1,-0.16667 -0.21667,-0.35 -0.35,-0.55c-0.1,0.13333 -0.21667,0.26667 -0.35,0.4c-0.1,0.16667 -0.21667,0.33333 -0.35,0.5c0,0.2 0,0.38333 0,0.55c0,0.16667 0,0.35 0,0.55c0,0.16667 0,0.33333 0,0.5c-0.06667,0.2 -0.13333,0.38333 -0.2,0.55c-0.1,0.16667 -0.21667,0.35 -0.35,0.55c-0.16667,0.16667 -0.33333,0.35 -0.5,0.55c-0.13333,0.16667 -0.26667,0.33333 -0.4,0.5c-0.16667,0.2 -0.33333,0.38333 -0.5,0.55c-0.2,0.16667 -0.38333,0.35 -0.55,0.55c-0.16667,0.1 -0.35,0.21667 -0.55,0.35c-0.03333,0.06667 -0.1,0.1 -0.2,0.1c-0.26667,0.1 -0.55,0.18333 -0.85,0.25c-0.6,0.13333 -1.2,0.26667 -1.8,0.4c-0.36667,0.1 -0.71667,0.2 -1.05,0.3c-2.73333,0.13333 -5.46667,0.25 -8.2,0.35c-0.36667,0.13333 -0.73333,0.26667 -1.1,0.4c-2.86667,0 -5.71667,0 -8.55,0c-0.43333,-0.13333 -0.85,-0.26667 -1.25,-0.4c-1.13333,0 -2.26667,0 -3.4,0c-0.36667,0.13333 -0.73333,0.25 -1.1,0.35c-0.56667,0.13333 -1.15,0.28333 -1.75,0.45c-0.36667,0.06667 -0.73333,0.16667 -1.1,0.3c-0.46667,0 -0.93333,0 -1.4,0c-0.43333,-0.13333 -0.85,-0.25 -1.25,-0.35c-0.2,-0.2 -0.38333,-0.38333 -0.55,-0.55c-0.16667,-0.16667 -0.35,-0.35 -0.55,-0.55c-0.16667,-0.16667 -0.33333,-0.33333 -0.5,-0.5c-0.2,-0.2 -0.38333,-0.38333 -0.55,-0.55c-0.13333,-0.2 -0.25,-0.38333 -0.35,-0.55c-0.23333,-0.16667 -0.48333,-0.35 -0.75,-0.55c-0.16667,0 -0.33333,0 -0.5,0c-0.13333,0.13333 -0.25,0.26667 -0.35,0.4c-0.06667,0.03333 -0.13333,0.06667 -0.2,0.1c-0.36667,0.16667 -0.71667,0.3 -1.05,0.4c-0.13333,0.13333 -0.26667,0.25 -0.4,0.35c-0.33333,0.13333 -0.68333,0.26667 -1.05,0.4c-0.13333,0.1 -0.25,0.21667 -0.35,0.35c-0.3,0.03333 -0.6,0.1 -0.9,0.2c-0.36667,0.1 -0.71667,0.2 -1.05,0.3c-0.36667,0.13333 -0.73333,0.26667 -1.1,0.4c-8.43333,0.1 -16.88333,0.21667 -25.35,0.35c-0.36667,0.1 -0.71667,0.21667 -1.05,0.35c-11.43333,0 -22.86667,0 -34.3,0c-0.43333,-0.13333 -0.85,-0.25 -1.25,-0.35c-1.5,-0.13333 -2.98333,-0.25 -4.45,-0.35c-0.43333,-0.13333 -0.85,-0.26667 -1.25,-0.4c-0.06667,-0.1 -0.13333,-0.21667 -0.2,-0.35c-0.4,-0.1 -0.81667,-0.21667 -1.25,-0.35c-0.1,-0.16667 -0.21667,-0.35 -0.35,-0.55c-0.23333,-0.16667 -0.46667,-0.33333 -0.7,-0.5c-0.2,-0.2 -0.38333,-0.38333 -0.55,-0.55c-0.16667,-0.16667 -0.35,-0.35 -0.55,-0.55c-0.1,-0.16667 -0.21667,-0.33333 -0.35,-0.5c-0.1,-0.2 -0.21667,-0.38333 -0.35,-0.55c-0.06667,-0.2 -0.13333,-0.38333 -0.2,-0.55c-0.16667,-0.1 -0.33333,-0.21667 -0.5,-0.35c-0.2,0.16667 -0.38333,0.35 -0.55,0.55c-0.4,0.16667 -0.81667,0.33333 -1.25,0.5c-0.13333,0.13333 -0.25,0.26667 -0.35,0.4c-0.36667,0.1 -0.73333,0.21667 -1.1,0.35c-0.1,0.1 -0.21667,0.21667 -0.35,0.35c-0.3,0.06667 -0.58333,0.13333 -0.85,0.2c-0.36667,0.1 -0.73333,0.21667 -1.1,0.35c-0.36667,0.1 -0.71667,0.21667 -1.05,0.35c-7.16667,0 -14.31667,0 -21.45,0c-0.4,-0.13333 -0.81667,-0.25 -1.25,-0.35c-0.1,-0.13333 -0.21667,-0.26667 -0.35,-0.4c-0.36667,-0.1 -0.71667,-0.21667 -1.05,-0.35c-0.13333,-0.16667 -0.26667,-0.33333 -0.4,-0.5c-0.16667,-0.13333 -0.33333,-0.26667 -0.5,-0.4c-0.06667,-0.03333 -0.13333,-0.06667 -0.2,-0.1c-0.36667,-0.16667 -0.71667,-0.3 -1.05,-0.4c-0.2,0.1 -0.38333,0.21667 -0.55,0.35c-0.06667,0.16667 -0.13333,0.35 -0.2,0.55c-0.16667,0.16667 -0.33333,0.33333 -0.5,0.5c-0.43333,0.2 -0.85,0.38333 -1.25,0.55c-0.13333,0.13333 -0.25,0.25 -0.35,0.35c-0.3,0.06667 -0.6,0.13333 -0.9,0.2c-2.5,0.1 -5,0.21667 -7.5,0.35c-0.36667,0.1 -0.73333,0.21667 -1.1,0.35c-1.06667,0.13333 -2.13333,0.25 -3.2,0.35c-0.36667,0.13333 -0.71667,0.25 -1.05,0.35c-0.83333,0.13333 -1.66667,0.25 -2.5,0.35c-0.36667,0.13333 -0.73333,0.26667 -1.1,0.4c-3.56667,0 -7.13333,0 -10.7,0c-0.43333,-0.13333 -0.85,-0.26667 -1.25,-0.4c-0.3,-0.1 -0.6,-0.2 -0.9,-0.3c-0.4,-0.13333 -0.81667,-0.26667 -1.25,-0.4c-0.06667,-0.1 -0.13333,-0.21667 -0.2,-0.35c-0.4,-0.13333 -0.81667,-0.25 -1.25,-0.35c-0.1,-0.2 -0.21667,-0.38333 -0.35,-0.55c-0.23333,-0.16667 -0.46667,-0.35 -0.7,-0.55c-0.16667,-0.16667 -0.35,-0.33333 -0.55,-0.5c-0.1,-0.2 -0.21667,-0.38333 -0.35,-0.55c-0.06667,-0.16667 -0.11667,-0.35 -0.15,-0.55c-0.13333,-0.16667 -0.26667,-0.33333 -0.4,-0.5c-0.1,-0.2 -0.21667,-0.38333 -0.35,-0.55c0,-0.16667 0,-0.35 0,-0.55c0,-0.16667 0,-0.35 0,-0.55c-0.1,-0.16667 -0.21667,-0.33333 -0.35,-0.5c-0.1,-0.2 -0.21667,-0.38333 -0.35,-0.55c0,-0.16667 0,-0.35 0,-0.55c-0.06667,-0.1 -0.13333,-0.21667 -0.2,-0.35c-0.16667,0.2 -0.33333,0.38333 -0.5,0.55c-0.13333,0.16667 -0.25,0.35 -0.35,0.55c-0.26667,0.16667 -0.51667,0.33333 -0.75,0.5c-0.16667,0.2 -0.33333,0.38333 -0.5,0.55c-0.13333,0.13333 -0.26667,0.25 -0.4,0.35c-0.03333,0.06667 -0.08333,0.11667 -0.15,0.15c-0.36667,0.13333 -0.73333,0.26667 -1.1,0.4c-0.1,0.1 -0.21667,0.21667 -0.35,0.35c-0.33333,0.13333 -0.68333,0.25 -1.05,0.35c-0.13333,0.13333 -0.25,0.25 -0.35,0.35c-0.36667,0.13333 -0.73333,0.25 -1.1,0.35c-0.1,0.13333 -0.21667,0.26667 -0.35,0.4c-0.36667,0.1 -0.71667,0.21667 -1.05,0.35c-0.13333,0.1 -0.25,0.21667 -0.35,0.35c-0.36667,0.1 -0.73333,0.21667 -1.1,0.35c-0.1,0.13333 -0.21667,0.25 -0.35,0.35c-0.3,0.06667 -0.6,0.13333 -0.9,0.2c-0.53333,0.1 -1.06667,0.21667 -1.6,0.35c-0.46667,0.16667 -0.95,0.35 -1.45,0.55c-0.1,0.1 -0.21667,0.21667 -0.35,0.35c-0.3,0.03333 -0.6,0.08333 -0.9,0.15c-0.56667,0.13333 -1.15,0.26667 -1.75,0.4c-0.36667,0.1 -0.73333,0.2 -1.1,0.3c-0.6,0.13333 -1.18333,0.28333 -1.75,0.45c-0.36667,0.06667 -0.73333,0.16667 -1.1,0.3c-4.5,0 -9.01667,0 -13.55,0c-0.43333,-0.13333 -0.85,-0.25 -1.25,-0.35c-0.53333,-0.13333 -1.06667,-0.26667 -1.6,-0.4c-0.43333,-0.1 -0.85,-0.21667 -1.25,-0.35c-0.3,-0.1 -0.6,-0.2 -0.9,-0.3c-0.96667,-0.26667 -1.91667,-0.53333 -2.85,-0.8c-1.13333,-0.33333 -2.26667,-0.65 -3.4,-0.95c-0.96667,-0.3 -1.91667,-0.56667 -2.85,-0.8c-0.13333,-0.1 -0.25,-0.21667 -0.35,-0.35c-0.36667,-0.1 -0.73333,-0.2 -1.1,-0.3c-0.53333,-0.16667 -1.06667,-0.31667 -1.6,-0.45c-0.43333,-0.1 -0.85,-0.2 -1.25,-0.3c-0.13333,-0.13333 -0.25,-0.25 -0.35,-0.35c-0.36667,-0.13333 -0.73333,-0.26667 -1.1,-0.4c-0.03333,-0.1 -0.08333,-0.21667 -0.15,-0.35c-0.43333,-0.1 -0.85,-0.21667 -1.25,-0.35c-0.2,-0.16667 -0.38333,-0.35 -0.55,-0.55c-0.16667,-0.16667 -0.35,-0.33333 -0.55,-0.5c-0.16667,-0.2 -0.33333,-0.38333 -0.5,-0.55c-0.2,-0.16667 -0.38333,-0.35 -0.55,-0.55c-0.13333,-0.16667 -0.25,-0.33333 -0.35,-0.5c-0.13333,-0.2 -0.25,-0.38333 -0.35,-0.55c-0.06667,-0.16667 -0.13333,-0.35 -0.2,-0.55c-0.16667,-0.16667 -0.35,-0.35 -0.55,-0.55c-0.1,-0.16667 -0.21667,-0.33333 -0.35,-0.5c-0.23333,-0.2 -0.46667,-0.38333 -0.7,-0.55c-0.13333,-0.16667 -0.25,-0.35 -0.35,-0.55c0,-0.16667 0,-0.33333 0,-0.5c0,-0.2 0,-0.38333 0,-0.55c-0.13333,0 -0.25,0 -0.35,0c-0.13333,0.16667 -0.25,0.35 -0.35,0.55c-0.13333,0.16667 -0.26667,0.33333 -0.4,0.5c-0.1,0.13333 -0.21667,0.25 -0.35,0.35c-0.3,0.13333 -0.6,0.26667 -0.9,0.4c-0.16667,0.16667 -0.33333,0.33333 -0.5,0.5c-0.2,0.2 -0.38333,0.38333 -0.55,0.55c-0.16667,0.16667 -0.35,0.35 -0.55,0.55c-0.16667,0.16667 -0.33333,0.33333 -0.5,0.5c-0.2,0.2 -0.38333,0.38333 -0.55,0.55c-0.16667,0.2 -0.35,0.38333 -0.55,0.55c-0.16667,0.16667 -0.35,0.35 -0.55,0.55c-0.23333,0.16667 -0.46667,0.33333 -0.7,0.5c-0.23333,0.2 -0.46667,0.38333 -0.7,0.55c-0.3,0.16667 -0.6,0.35 -0.9,0.55c-0.16667,0.16667 -0.35,0.33333 -0.55,0.5c-0.23333,0.2 -0.46667,0.38333 -0.7,0.55c-0.23333,0.16667 -0.48333,0.33333 -0.75,0.5c-0.26667,0.2 -0.55,0.4 -0.85,0.6c-0.23333,0.16667 -0.48333,0.33333 -0.75,0.5c-0.26667,0.2 -0.55,0.38333 -0.85,0.55c-0.23333,0.13333 -0.48333,0.25 -0.75,0.35c-0.46667,0.13333 -0.93333,0.25 -1.4,0.35c-0.23333,0.2 -0.48333,0.38333 -0.75,0.55c-0.26667,0.16667 -0.55,0.35 -0.85,0.55c-0.3,0.16667 -0.6,0.35 -0.9,0.55c-0.23333,0.16667 -0.46667,0.33333 -0.7,0.5c-0.13333,0.13333 -0.26667,0.25 -0.4,0.35c-0.26667,0.06667 -0.55,0.13333 -0.85,0.2c-0.53333,0.1 -1.08333,0.21667 -1.65,0.35c-0.23333,0.16667 -0.46667,0.35 -0.7,0.55c-0.1,0.1 -0.21667,0.21667 -0.35,0.35c-0.3,0.06667 -0.6,0.11667 -0.9,0.15c-0.76667,0.13333 -1.53333,0.28333 -2.3,0.45c-0.43333,0.06667 -0.85,0.15 -1.25,0.25c-0.76667,0.13333 -1.53333,0.28333 -2.3,0.45c-0.43333,0.06667 -0.86667,0.16667 -1.3,0.3c-11.9,0 -23.8,0 -35.7,0c-0.4,-0.13333 -0.81667,-0.25 -1.25,-0.35c-1.46667,-0.13333 -2.95,-0.25 -4.45,-0.35c-0.43333,-0.13333 -0.85,-0.26667 -1.25,-0.4c-0.3,-0.1 -0.6,-0.2 -0.9,-0.3c-0.4,-0.13333 -0.81667,-0.26667 -1.25,-0.4c-0.76667,-0.1 -1.53333,-0.21667 -2.3,-0.35c-0.43333,-0.1 -0.85,-0.23333 -1.25,-0.4c-0.3,-0.1 -0.6,-0.2 -0.9,-0.3c-0.43333,-0.13333 -0.85,-0.26667 -1.25,-0.4c-0.3,-0.1 -0.6,-0.2 -0.9,-0.3c-0.43333,-0.13333 -0.85,-0.26667 -1.25,-0.4c-0.73333,-0.23333 -1.45,-0.46667 -2.15,-0.7c-0.13333,-0.1 -0.25,-0.21667 -0.35,-0.35c-0.36667,-0.13333 -0.73333,-0.25 -1.1,-0.35c-0.03333,-0.13333 -0.08333,-0.25 -0.15,-0.35c-0.43333,-0.13333 -0.85,-0.25 -1.25,-0.35c-0.13333,-0.2 -0.25,-0.38333 -0.35,-0.55c-0.23333,-0.2 -0.48333,-0.38333 -0.75,-0.55c-0.1,-0.16667 -0.21667,-0.35 -0.35,-0.55c-0.03333,-0.16667 -0.08333,-0.33333 -0.15,-0.5c-0.06667,-0.2 -0.13333,-0.38333 -0.2,-0.55c-0.1,-0.16667 -0.21667,-0.35 -0.35,-0.55c0,-0.16667 0,-0.33333 0,-0.5c-0.06667,-0.2 -0.13333,-0.38333 -0.2,-0.55c-0.03333,-0.16667 -0.08333,-0.35 -0.15,-0.55c-0.13333,-0.16667 -0.25,-0.35 -0.35,-0.55c-0.06667,-0.16667 -0.13333,-0.33333 -0.2,-0.5c-0.1,-0.2 -0.21667,-0.38333 -0.35,-0.55c-0.06667,-0.16667 -0.13333,-0.35 -0.2,-0.55c0,-0.16667 0,-0.33333 0,-0.5c-0.03333,-0.2 -0.08333,-0.38333 -0.15,-0.55c-0.13333,-0.16667 -0.25,-0.35 -0.35,-0.55c-0.06667,-0.16667 -0.13333,-0.35 -0.2,-0.55c0,-0.16667 0,-0.33333 0,-0.5c-0.06667,-0.2 -0.11667,-0.38333 -0.15,-0.55c-0.13333,-0.16667 -0.26667,-0.35 -0.4,-0.55c-0.03333,-0.16667 -0.08333,-0.33333 -0.15,-0.5c-0.13333,-0.2 -0.25,-0.38333 -0.35,-0.55c-0.13333,-0.16667 -0.25,-0.35 -0.35,-0.55c0,-0.16667 0,-0.35 0,-0.55c0,-0.16667 0,-0.33333 0,-0.5c-0.13333,-0.2 -0.26667,-0.38333 -0.4,-0.55c-0.1,-0.16667 -0.21667,-0.35 -0.35,-0.55c0,-0.16667 0,-0.33333 0,-0.5c-0.03333,-0.2 -0.08333,-0.38333 -0.15,-0.55c-0.06667,-0.16667 -0.13333,-0.35 -0.2,-0.55c-0.1,-0.16667 -0.21667,-0.35 -0.35,-0.55c0,-0.16667 0,-0.33333 0,-0.5c0,-0.2 0,-0.38333 0,-0.55c-0.13333,-0.16667 -0.25,-0.35 -0.35,-0.55c-0.13333,-0.16667 -0.25,-0.33333 -0.35,-0.5c-0.06667,-0.2 -0.13333,-0.38333 -0.2,-0.55c-0.1,-0.16667 -0.21667,-0.35 -0.35,-0.55c-0.06667,-0.16667 -0.13333,-0.35 -0.2,-0.55c0,-0.16667 0,-0.33333 0,-0.5c0,-0.2 0,-0.38333 0,-0.55c-0.03333,-0.16667 -0.08333,-0.35 -0.15,-0.55c-0.06667,-0.16667 -0.13333,-0.33333 -0.2,-0.5c-0.1,-0.2 -0.21667,-0.38333 -0.35,-0.55c0,-0.16667 0,-0.35 0,-0.55c0,-0.16667 0,-0.35 0,-0.55c-0.1,-0.16667 -0.21667,-0.33333 -0.35,-0.5c-0.13333,-0.2 -0.25,-0.38333 -0.35,-0.55c-0.06667,-0.16667 -0.13333,-0.35 -0.2,-0.55c-0.1,-0.16667 -0.21667,-0.33333 -0.35,-0.5c-0.06667,-0.2 -0.11667,-0.38333 -0.15,-0.55c0,-0.16667 0,-0.35 0,-0.55c0,-0.16667 0,-0.35 0,-0.55c-0.06667,-0.16667 -0.13333,-0.33333 -0.2,-0.5c-0.06667,-0.2 -0.13333,-0.38333 -0.2,-0.55c-0.16667,-0.16667 -0.33333,-0.35 -0.5,-0.55c-0.13333,-0.16667 -0.25,-0.33333 -0.35,-0.5c-0.06667,-0.2 -0.13333,-0.38333 -0.2,-0.55c0,-0.16667 0,-0.35 0,-0.55c0,-0.16667 0,-0.35 0,-0.55c-0.06667,-0.16667 -0.13333,-0.33333 -0.2,-0.5c-0.1,-0.2 -0.21667,-0.38333 -0.35,-0.55c-0.16667,-0.16667 -0.33333,-0.35 -0.5,-0.55c-0.13333,-0.16667 -0.26667,-0.33333 -0.4,-0.5c-0.03333,-0.2 -0.08333,-0.38333 -0.15,-0.55c-0.13333,-0.16667 -0.25,-0.35 -0.35,-0.55c-0.06667,-0.16667 -0.13333,-0.35 -0.2,-0.55c-0.06667,-0.16667 -0.11667,-0.33333 -0.15,-0.5c-0.2,-0.2 -0.38333,-0.38333 -0.55,-0.55c-0.13333,-0.16667 -0.25,-0.35 -0.35,-0.55c-0.13333,-0.16667 -0.25,-0.33333 -0.35,-0.5c-0.06667,-0.2 -0.13333,-0.38333 -0.2,-0.55c-0.1,-0.16667 -0.21667,-0.35 -0.35,-0.55c-0.06667,-0.16667 -0.13333,-0.33333 -0.2,-0.5c-0.1,-0.2 -0.21667,-0.38333 -0.35,-0.55c-0.1,-0.2 -0.21667,-0.38333 -0.35,-0.55c0,-0.16667 0,-0.35 0,-0.55c0,-0.16667 0,-0.33333 0,-0.5c0,-0.2 0,-0.38333 0,-0.55c0,-0.16667 0,-0.35 0,-0.55c0,-0.16667 0,-0.33333 0,-0.5c0.13333,-0.2 0.25,-0.38333 0.35,-0.55c0.13333,-0.2 0.25,-0.38333 0.35,-0.55c0.43333,-0.16667 0.85,-0.35 1.25,-0.55c0.2,-0.1 0.38333,-0.21667 0.55,-0.35c0.3,-0.1 0.6,-0.21667 0.9,-0.35c0.16667,-0.1 0.35,-0.21667 0.55,-0.35c0.3,-0.13333 0.58333,-0.25 0.85,-0.35c0.3,-0.2 0.61667,-0.38333 0.95,-0.55c0.2,-0.1 0.43333,-0.21667 0.7,-0.35c0.1,-0.06667 0.21667,-0.13333 0.35,-0.2c0.4,-0.1 0.81667,-0.21667 1.25,-0.35c0.3,-0.1 0.6,-0.2 0.9,-0.3c0.4,-0.13333 0.8,-0.28333 1.2,-0.45c0.33333,-0.1 0.63333,-0.2 0.9,-0.3c0.3,-0.06667 0.6,-0.13333 0.9,-0.2c0.3,-0.1 0.6,-0.21667 0.9,-0.35c0.36667,-0.16667 0.73333,-0.35 1.1,-0.55c0.23333,-0.1 0.46667,-0.21667 0.7,-0.35c0.3,-0.06667 0.6,-0.11667 0.9,-0.15c0.53333,-0.13333 1.06667,-0.26667 1.6,-0.4c0.4,-0.1 0.81667,-0.21667 1.25,-0.35c0.16667,-0.1 0.35,-0.21667 0.55,-0.35c-0.13333,-0.16667 -0.26667,-0.33333 -0.4,-0.5c0,-0.2 0,-0.38333 0,-0.55c0,-0.2 0,-0.38333 0,-0.55c-0.1,-0.16667 -0.21667,-0.35 -0.35,-0.55c-0.1,-0.16667 -0.21667,-0.33333 -0.35,-0.5c-0.06667,-0.2 -0.11667,-0.38333 -0.15,-0.55c-0.06667,-0.16667 -0.13333,-0.35 -0.2,-0.55c-0.13333,-0.16667 -0.25,-0.33333 -0.35,-0.5c0,-0.2 0,-0.38333 0,-0.55c-0.06667,-0.2 -0.13333,-0.38333 -0.2,-0.55c-0.03333,-0.16667 -0.08333,-0.35 -0.15,-0.55c-0.13333,-0.16667 -0.25,-0.33333 -0.35,-0.5c0,-0.2 0,-0.38333 0,-0.55c0,-0.16667 0,-0.35 0,-0.55c-1.1,0 -2.18333,0 -3.25,0c-0.4,0.13333 -0.81667,0.25 -1.25,0.35c-1.3,0.13333 -2.6,0.26667 -3.9,0.4c-0.36667,0.1 -0.73333,0.21667 -1.1,0.35c-1.66667,0 -3.33333,0 -5,0c-0.4,-0.13333 -0.81667,-0.25 -1.25,-0.35c-0.1,-0.2 -0.21667,-0.38333 -0.35,-0.55c-0.23333,-0.2 -0.46667,-0.38333 -0.7,-0.55c-0.13333,-0.16667 -0.25,-0.35 -0.35,-0.55c-0.06667,-0.16667 -0.13333,-0.33333 -0.2,-0.5c-0.06667,-0.2 -0.11667,-0.38333 -0.15,-0.55c-0.13333,-0.16667 -0.25,-0.35 -0.35,-0.55c0,-0.16667 0,-0.33333 0,-0.5c-0.06667,-0.2 -0.13333,-0.38333 -0.2,-0.55c-0.06667,-0.2 -0.13333,-0.38333 -0.2,-0.55c-0.1,-0.16667 -0.21667,-0.35 -0.35,-0.55c0,-0.16667 0,-0.33333 0,-0.5c-0.06667,-0.2 -0.11667,-0.38333 -0.15,-0.55c-0.13333,-0.16667 -0.25,-0.35 -0.35,-0.55c-0.06667,-0.16667 -0.13333,-0.33333 -0.2,-0.5c-0.06667,-0.2 -0.13333,-0.38333 -0.2,-0.55c-0.1,-0.2 -0.21667,-0.38333 -0.35,-0.55c-0.06667,-0.16667 -0.11667,-0.35 -0.15,-0.55c0,-0.16667 0,-0.33333 0,-0.5c0,-0.2 0,-0.38333 0,-0.55c0,-0.16667 0,-0.35 0,-0.55c0,-0.16667 0,-0.33333 0,-0.5c0,-0.2 0,-0.38333 0,-0.55c0,-0.2 0,-0.38333 0,-0.55c-0.06667,-0.16667 -0.13333,-0.35 -0.2,-0.55c-0.1,-0.16667 -0.21667,-0.33333 -0.35,-0.5c-0.06667,-0.2 -0.13333,-0.38333 -0.2,-0.55c0,-0.16667 0,-0.35 0,-0.55c0,-0.16667 0,-0.33333 0,-0.5c0,-0.2 0,-0.38333 0,-0.55c0,-0.16667 0,-0.35 0,-0.55c-0.03333,-0.16667 -0.08333,-0.35 -0.15,-0.55c-0.06667,-0.16667 -0.13333,-0.33333 -0.2,-0.5c-0.06667,-0.2 -0.11667,-0.38333 -0.15,-0.55c-0.06667,-0.16667 -0.13333,-0.35 -0.2,-0.55c0,-0.16667 0,-0.33333 0,-0.5c0,-0.2 0,-0.38333 0,-0.55c0,-0.16667 0,-0.35 0,-0.55c0,-0.16667 0,-0.35 0,-0.55c0,-0.16667 0,-0.33333 0,-0.5c0,-0.2 0,-0.38333 0,-0.55c-0.06667,-0.16667 -0.11667,-0.35 -0.15,-0.55c-0.06667,-0.16667 -0.13333,-0.33333 -0.2,-0.5c-0.06667,-0.2 -0.13333,-0.38333 -0.2,-0.55c-0.03333,-0.16667 -0.08333,-0.35 -0.15,-0.55c0,-0.16667 0,-0.35 0,-0.55c0,-0.16667 0,-0.33333 0,-0.5c0,-0.2 0,-0.38333 0,-0.55c0,-0.16667 0,-0.35 0,-0.55c-0.06667,-0.16667 -0.13333,-0.33333 -0.2,-0.5c-0.06667,-0.2 -0.11667,-0.38333 -0.15,-0.55c-0.06667,-0.16667 -0.13333,-0.35 -0.2,-0.55c-0.06667,-0.16667 -0.11667,-0.35 -0.15,-0.55c0,-0.16667 0,-0.33333 0,-0.5c-0.06667,-0.2 -0.13333,-0.38333 -0.2,-0.55c-0.06667,-0.16667 -0.13333,-0.35 -0.2,-0.55c-0.03333,-0.16667 -0.08333,-0.33333 -0.15,-0.5c0,-0.2 0,-0.38333 0,-0.55c-0.06667,-0.16667 -0.13333,-0.35 -0.2,-0.55c-0.06667,-0.16667 -0.11667,-0.35 -0.15,-0.55c-0.06667,-0.16667 -0.13333,-0.33333 -0.2,-0.5c-0.06667,-0.2 -0.11667,-0.38333 -0.15,-0.55c-0.06667,-0.16667 -0.13333,-0.35 -0.2,-0.55c0,-0.16667 0,-0.33333 0,-0.5c0,-0.2 0,-0.38333 0,-0.55c0,-0.16667 0,-0.35 0,-0.55c0,-0.16667 0,-0.35 0,-0.55c0,-0.16667 0,-0.33333 0,-0.5c0,-0.2 0,-0.38333 0,-0.55c0,-0.16667 0,-0.35 0,-0.55c0,-0.16667 0,-0.33333 0,-0.5c-0.13333,-0.2 -0.25,-0.38333 -0.35,-0.55c-0.06667,-0.16667 -0.13333,-0.35 -0.2,-0.55c-0.06667,-0.16667 -0.11667,-0.35 -0.15,-0.55c0,-0.16667 0,-0.33333 0,-0.5c0,-0.2 0,-0.38333 0,-0.55c0,-0.16667 0,-0.35 0,-0.55c0,-0.16667 0,-0.33333 0,-0.5c0,-0.2 0,-0.38333 0,-0.55c0,-0.16667 0,-0.35 0,-0.55c0,-0.16667 0,-0.35 0,-0.55c0.1,-0.16667 0.21667,-0.33333 0.35,-0.5c0.1,-0.2 0.21667,-0.38333 0.35,-0.55c0.4,-0.13333 0.81667,-0.26667 1.25,-0.4c0.3,-0.1 0.6,-0.2 0.9,-0.3c0.4,-0.2 0.81667,-0.38333 1.25,-0.55c0.16667,-0.13333 0.35,-0.25 0.55,-0.35c0.26667,-0.06667 0.55,-0.13333 0.85,-0.2c0.53333,-0.1 1.06667,-0.21667 1.6,-0.35c0.43333,-0.1 0.86667,-0.21667 1.3,-0.35c0.53333,-0.13333 1.06667,-0.25 1.6,-0.35c0.4,-0.13333 0.81667,-0.23333 1.25,-0.3c0.76667,-0.16667 1.53333,-0.3 2.3,-0.4c0.43333,-0.13333 0.85,-0.26667 1.25,-0.4c0.76667,-0.1 1.53333,-0.23333 2.3,-0.4c0.43333,-0.06667 0.85,-0.16667 1.25,-0.3c1.03333,-0.1 2.05,-0.21667 3.05,-0.35z" fill="#ffffff"/><path d="M512,393.85c-6,4.4 -12.65,7.3 -19.95,8.7c-3.7,0.83333 -7.43333,1.41667 -11.2,1.75c-9.8,1.33333 -19.35,0.7 -28.65,-1.9l-0.8,1.5c-0.63333,0.16667 -1.23333,0.06667 -1.8,-0.3c-2.16667,-1.53333 -3.61667,-3.68333 -4.35,-6.45c-1.56667,-5.73333 -2.7,-11.5 -3.4,-17.3c-0.13333,-1.13333 0.13333,-2.1 0.8,-2.9l18.6,0.1l-6.45,-31.25l-22.1,-0.7l-1.35,-1.55l1.4,-1.8l-4,-21.65c0.43333,-0.93333 1.2,-1.55 2.3,-1.85c8.8,-1.96667 17.66667,-2.56667 26.6,-1.8c5.9,0.4 11.7,0.98333 17.4,1.75c9.16667,0.93333 17.78333,3.46667 25.85,7.6c3.06667,1.6 5.65,3.78333 7.75,6.55c5.46667,7.2 9.33333,15.18333 11.6,23.95c1.26667,6.86667 1.8,13.8 1.6,20.8c-0.06667,2.43333 -0.61667,4.75 -1.65,6.95c-1.86667,3.93333 -4.6,7.2 -8.2,9.8M478.95,351.2l4.45,21.35c3.66667,-0.73333 7.2,-2.01667 10.6,-3.85c0.83333,-0.46667 1.41667,-1.1 1.75,-1.9c1.76667,-4.1 1.01667,-7.98333 -2.25,-11.65c-3.83333,-4.36667 -8.63333,-5.91667 -14.4,-4.65c-0.06667,-0.06667 -0.11667,0.16667 -0.15,0.7M594.65,378.15c0.06667,4.96667 -1.53333,9.26667 -4.8,12.9c-5.03333,5.56667 -11.41667,8.65 -19.15,9.25c-8.93333,1.03333 -17.85,0.83333 -26.75,-0.6c-4.76667,-0.56667 -8.26667,-2.98333 -10.5,-7.25c-3.23333,-6.23333 -5.36667,-12.86667 -6.4,-19.9c-1.26667,-8.86667 -1.93333,-17.76667 -2,-26.7c0,-2.56667 0.38333,-5.11667 1.15,-7.65c1.56667,-5.06667 4.58333,-9.1 9.05,-12.1c1.6,-1.03333 3.25,-1.86667 4.95,-2.5c4.3,-1.76667 8.76667,-2.61667 13.4,-2.55c8.96667,0.1 17.51667,1.75 25.65,4.95c1.03333,0.4 1.86667,1.15 2.5,2.25c4.13333,7.36667 7.38333,15.2 9.75,23.5c2.46667,8.6 3.51667,17.4 3.15,26.4M552.4,354.7c-1.23333,3.63333 -1.56667,7.35 -1,11.15c0.1,0.63333 0.28333,1.25 0.55,1.85c1.86667,4.3 5.03333,5.93333 9.5,4.9c1.2,-1.36667 2.05,-2.95 2.55,-4.75c0.4,-1.56667 0.81667,-3.08333 1.25,-4.55c1.13333,-3.76667 0.18333,-6.96667 -2.85,-9.6c-3.5,-2.93333 -7.28333,-3.06667 -11.35,-0.4l1.35,1.4M660.45,326.3c-0.06667,0.56667 -0.1,1.15 -0.1,1.75c-0.13333,5 0.18333,10.01667 0.95,15.05c2.1,14.13333 3.2,28.25 3.3,42.35c0,0.96667 0.1,1.93333 0.3,2.9c0.7,3.63333 -0.33333,6.55 -3.1,8.75h-21.85c-1.23333,-1.13333 -2.43333,-2.28333 -3.6,-3.45c-0.63333,-0.66667 -1.15,-1.41667 -1.55,-2.25c-3.4,-6.6 -7.63333,-12.61667 -12.7,-18.05c1.06667,6.73333 2.26667,13.46667 3.6,20.2c0.13333,0.73333 0.11667,1.4 -0.05,2c-0.2,0.8 -0.63333,1.28333 -1.3,1.45c-7.03333,0.83333 -14.11667,1.23333 -21.25,1.2c-0.96667,-0.73333 -1.75,-1.65 -2.35,-2.75c-0.3,-0.53333 -0.48333,-1.1 -0.55,-1.7c-0.3,-3.6 -0.68333,-7.23333 -1.15,-10.9c-1.43333,-11.23333 -2.03333,-22.45 -1.8,-33.65c0.03333,-1.23333 -0.08333,-2.45 -0.35,-3.65c-1.06667,-4.96667 -0.65,-9.61667 1.25,-13.95l-1.5,-2.25l23.1,-3.35c1.63333,0.66667 2.8,1.91667 3.5,3.75c2.8,7.1 6.06667,13.96667 9.8,20.6l-2.6,-24c0.4,-0.26667 0.83333,-0.43333 1.3,-0.5c9.5,-1.7 19.06667,-2.7 28.7,-3l1.95,1.7l-1.95,1.75M711.85,322.75c6.26667,3.7 9.66667,9.3 10.2,16.8c2.4,8.7 4.66667,17.45 6.8,26.25c2,8.4 3.8,16.8 5.4,25.2c0.33333,1.76667 0.43333,3.56667 0.3,5.4c-0.16667,2.2 -1.45,3.6 -3.85,4.2c-3.06667,0.73333 -6.18333,1.05 -9.35,0.95c-4.16667,0.36667 -8.1,-0.25 -11.8,-1.85c-1.1,-0.53333 -1.71667,-1.28333 -1.85,-2.25c-0.86667,-5.83333 -1.73333,-11.66667 -2.6,-17.5l-8.6,-0.45c0.13333,4.13333 0.55,8.21667 1.25,12.25c0.33333,1.9 0.33333,3.75 0,5.55c-0.16667,0.93333 -0.65,1.48333 -1.45,1.65c-7.33333,1.6 -14.81667,2.05 -22.45,1.35c-1.63333,-0.93333 -2.46667,-2.35 -2.5,-4.25c-0.1,-5.46667 0.06667,-10.91667 0.5,-16.35c0.63333,-8.46667 1.26667,-16.95 1.9,-25.45c0.66667,-8.83333 1.31667,-17.6 1.95,-26.3c1.73333,-1.26667 3.71667,-2.03333 5.95,-2.3c4.6,-0.8 9.23333,-1.63333 13.9,-2.5c3.63333,-0.8 7.28333,-1.4 10.95,-1.8c1.93333,-0.06667 3.71667,0.4 5.35,1.4M696.4,353.1l-0.95,7.55l8.1,-1.35c0.43333,-2.8 0.01667,-5.51667 -1.25,-8.15c-1.2,-2.43333 -2.75,-3.63333 -4.65,-3.6l-1.25,5.55M790.75,344.15l1.15,8.35l-18.2,3.2c0.6,3.13333 1.18333,6.26667 1.75,9.4c1.43333,7.96667 2.86667,16 4.3,24.1c0.33333,1.96667 0.31667,3.88333 -0.05,5.75c-0.26667,1.26667 -1.1,2.08333 -2.5,2.45c-8.73333,0.1 -17.45,0.11667 -26.15,0.05c-1.13333,0 -1.96667,-0.46667 -2.5,-1.4l-0.35,-39.1l0.35,-0.9l-15.85,0.5c-0.7,-1.06667 -1.3,-2.16667 -1.8,-3.3c-1.23333,-2.7 -1.83333,-5.48333 -1.8,-8.35c0.06667,-5.8 -0.1,-11.55 -0.5,-17.25c4.6,-2.46667 9.53333,-3.73333 14.8,-3.8c3.6,-0.46667 7.2,-0.93333 10.8,-1.4c9.06667,-0.76667 18,-2.01667 26.8,-3.75c1.5,-0.26667 2.9,0.05 4.2,0.95c2.73333,1.93333 4.05,4.66667 3.95,8.2c-0.16667,5.53333 0.36667,10.96667 1.6,16.3M838.4,358.4c-0.33333,1.36667 -0.26667,2.7 0.2,4c0.93333,2.6 1.13333,5.15 0.6,7.65l-20.7,1.55l1.4,6c1.23333,-0.33333 2.48333,-0.65 3.75,-0.95c4.3,-0.6 8.65,-0.83333 13.05,-0.7c4.8,-0.5 9.2,0.41667 13.2,2.75c0.6,0.33333 1.03333,0.83333 1.3,1.5c2.1,5.13333 2.6,10.46667 1.5,16c-1.13333,0.6 -2.43333,1.01667 -3.9,1.25c-15.46667,0.8 -31.05,1.26667 -46.75,1.4c-2.16667,-3.86667 -3.18333,-7.98333 -3.05,-12.35c0.06667,-3.1 0.03333,-6.15 -0.1,-9.15c-0.63333,-12.26667 -0.88333,-24.55 -0.75,-36.85c0.03333,-1.46667 -0.06667,-2.9 -0.3,-4.3c-0.46667,-3.03333 -0.43333,-6.1 0.1,-9.2c0.1,-0.5 0.35,-0.85 0.75,-1.05c2.8,-1.4 5.85,-2.38333 9.15,-2.95c5.8,-1 11.65,-1.65 17.55,-1.95c4.66667,-0.6 9.28333,-0.51667 13.85,0.25c3.76667,0.4 5.68333,2.43333 5.75,6.1c0.13333,6.23333 0.1,12.48333 -0.1,18.75c-0.06667,2.33333 -1.26667,3.63333 -3.6,3.9c-8.13333,0.36667 -16.28333,0.68333 -24.45,0.95l0.55,5.7c5.83333,-1.4 11.68333,-2.58333 17.55,-3.55c2.4,-0.23333 3.65,0.83333 3.75,3.2c-0.03333,0.7 -0.13333,1.38333 -0.3,2.05z" fill="#000000"/></g></g></svg>