<svg version="1.1" xmlns="http://www.w3.org/2000/svg" xmlns:xlink="http://www.w3.org/1999/xlink" width="124.07487" height="86.88676" viewBox="0,0,124.07487,86.88676"><g transform="translate(-578.25423,-319.55662)"><g data-paper-data="{&quot;isPaintingLayer&quot;:true}" fill-rule="nonzero" stroke="none" stroke-width="1" stroke-linecap="butt" stroke-linejoin="miter" stroke-miterlimit="10" stroke-dasharray="" stroke-dashoffset="0" style="mix-blend-mode: normal"><path d="M659.55301,324.09234c5.11628,2.8918 9.56628,6.3418 13.35,10.35c2.48581,2.5987 4.68581,5.43203 6.6,8.5c0.63333,1.36667 1.86667,2.38333 3.7,3.05c1.03333,0.4 2.63333,0.88333 4.8,1.45c2.92305,0.88672 5.27305,1.88672 7.05,3c0.04023,0.01667 0.07357,0.03333 0.1,0.05c1.06849,0.67865 1.98516,1.42865 2.75,2.25c0.44987,0.45065 0.84987,0.91732 1.2,1.4c0.11211,0.17995 0.21211,0.34661 0.3,0.5c0.3388,0.53438 0.62214,1.08437 0.85,1.65c0.76667,2.13333 1.31667,3.86667 1.65,5.2c0.1,0.43333 0.18333,0.81667 0.25,1.15c0.3,1.93333 0.21667,3.66667 -0.25,5.2c-0.13333,0.43333 -0.3,0.85 -0.5,1.25c-0.86667,1.96667 -2.43333,3.76667 -4.7,5.4c-1.3,0.93333 -3.36667,2.2 -6.2,3.8c-1.36667,0.76667 -3.66667,2.33333 -6.9,4.7c-2.86667,2.1 -5.21667,3.58333 -7.05,4.45c-1.5,0.7 -3.51667,1.56667 -6.05,2.6c-3.1,1.3 -5.11667,2.15 -6.05,2.55c-0.03333,0.4 0,2.3 0.1,5.7c0.06667,2.33333 -0.1,4.21667 -0.5,5.65c-0.36667,1.4 -1.31667,2.21667 -2.85,2.45c-1.5,0.23333 -2.55,-0.33333 -3.15,-1.7c-0.46667,-1.2 -0.61667,-2.76667 -0.45,-4.7c0.26667,-2.13333 0.4,-3.73333 0.4,-4.8c-7.96667,2.93333 -15.43333,4.61667 -22.4,5.05c-8.36667,0.5 -15.85,-0.78333 -22.45,-3.85c-2,-0.83333 -4.46667,-2.31667 -7.4,-4.45c-3.46667,-2.56667 -5.83333,-4.2 -7.1,-4.9c-9.33333,-2.36667 -15.58333,-6.48333 -18.75,-12.35c-1.73333,-3.33333 -2.1,-6.95 -1.1,-10.85c0.45378,-1.78385 1.12044,-3.41719 2,-4.9h-0.2c2.27135,-3.63997 5.85469,-6.68997 10.75,-9.15c1.16667,-0.5 2.26667,-1.41667 3.3,-2.75c0.6,-0.73333 1.43333,-1.9 2.5,-3.5c4.93333,-6.6 9.75,-11.5 14.45,-14.7c6.4,-4.4 13.78333,-7.26667 22.15,-8.6c4.5,-0.8 8.91667,-0.9 13.25,-0.3c4.6,0.63333 8.78333,2.01667 12.55,4.15M648.45301,325.64234c-5.7,-1 -11.53333,-0.81667 -17.5,0.55c-0.3849,0.08854 -0.76823,0.17188 -1.15,0.25c-5.3651,1.38346 -10.38177,3.60013 -15.05,6.65c-2.86667,1.86667 -5.85,4.48333 -8.95,7.85c-1.22539,1.4375 -2.34206,2.7375 -3.35,3.9c-1.85781,2.16185 -3.35781,3.87852 -4.5,5.15l3.1,1.15c-0.26667,1.03333 -1.05,1.68333 -2.35,1.95c-0.29023,0.02578 -0.57357,0.04245 -0.85,0.05c-0.04232,0.02682 -0.09232,0.04349 -0.15,0.05h-0.05c-0.96693,0.13346 -1.70026,0.30013 -2.2,0.5c-0.24427,0.08086 -0.49427,0.16419 -0.75,0.25h0.5c-0.76445,0.25534 -1.53112,0.55534 -2.3,0.9c-2.83333,1.3 -5.3,3.08333 -7.4,5.35c-1.73333,1.9 -2.7,4.16667 -2.9,6.8c-0.23333,2.66667 0.4,5.03333 1.9,7.1c1.4,2 3.4,3.78333 6,5.35c1.33333,0.8 3.75,2 7.25,3.6c-0.5,-5.6 -0.86667,-9.8 -1.1,-12.6c-0.43333,-5 -0.6,-9.23333 -0.5,-12.7c0.56667,-0.7 1.25,-1.15 2.05,-1.35c0.9,-0.2 1.63333,0.05 2.2,0.75c0.43333,0.9 1.06667,2.26667 1.9,4.1c0.76667,1.53333 1.55,2.78333 2.35,3.75c-0.46667,-3.2 -0.68333,-5.7 -0.65,-7.5c0,-2.8 0.46667,-5.26667 1.4,-7.4c1.2,-3 2.75,-5.41667 4.65,-7.25c2.33333,-2.23333 4.91667,-3.25 7.75,-3.05c3.3,-0.16667 6.5,0.8 9.6,2.9c2.63333,1.73333 5.03333,4.15 7.2,7.25c0.8,-2.76667 2.1,-5.16667 3.9,-7.2c2,-2.2 4.3,-3.61667 6.9,-4.25c3.96667,-0.86667 7.78333,-0.9 11.45,-0.1c4.1,0.93333 7.33333,2.81667 9.7,5.65c1.25677,1.42565 2.25677,3.02565 3,4.8c0.60846,1.37799 1.05846,2.86133 1.35,4.45c0.6,3.3 0.53333,6.73333 -0.2,10.3c0.8,-0.73333 1.58333,-1.66667 2.35,-2.8c0.33333,-0.5 1,-1.55 2,-3.15c0.63333,-0.7 1.33333,-0.73333 2.1,-0.1c0.73333,0.6 0.96667,1.3 0.7,2.1c-0.9,5.7 -1.58333,9.68333 -2.05,11.95c-0.93333,4.43333 -2.08333,8.3 -3.45,11.6c3.9,-2 7.11667,-4.11667 9.65,-6.35c1.03333,-0.9 3.66667,-2.41667 7.9,-4.55c3.4,-1.7 5.73333,-3.58333 7,-5.65c0.43333,-2.43333 0.15,-4.81667 -0.85,-7.15c-0.08138,-0.1875 -0.16471,-0.37083 -0.25,-0.55c-1.10104,-2.22591 -2.70104,-3.70924 -4.8,-4.45c-3.38385,-1.40156 -6.56719,-2.41823 -9.55,-3.05h0.8c-1.0082,-0.34102 -1.92487,-0.67435 -2.75,-1c-1.08646,-0.43008 -2.00312,-0.84674 -2.75,-1.25c-1.14518,0.18086 -2.04518,0.26419 -2.7,0.25c-0.0694,0.00326 -0.13607,0.00326 -0.2,0c-0.8056,-0.04883 -1.4056,-0.33216 -1.8,-0.85c-0.14414,-0.18346 -0.26081,-0.40013 -0.35,-0.65c-0.38008,-0.60182 -0.26341,-1.20182 0.35,-1.8c0.0319,-0.03516 0.06523,-0.06849 0.1,-0.1l1.7,-1.55c-0.5944,-0.82214 -1.1944,-1.62214 -1.8,-2.4c-6.70156,-8.52188 -14.0849,-13.88854 -22.15,-16.1c-0.47956,-0.12409 -0.96289,-0.24076 -1.45,-0.35M642.75301,344.49234c-1.76667,1.43333 -3,3.21667 -3.7,5.35c-1.06667,2.76667 -1.01667,6.53333 0.15,11.3l0.3,0.15c0.3,0.73333 0.75,1.83333 1.35,3.3c0.56667,1.26667 1.21667,2.26667 1.95,3c7.83333,0.9 14.38333,0.71667 19.65,-0.55c1.6,-0.36667 2.76667,-1.48333 3.5,-3.35c0.1,-0.26667 0.53333,-1.95 1.3,-5.05c-0.2,-2.46667 -0.46667,-4.4 -0.8,-5.8c-0.5,-2.1 -1.3,-3.85 -2.4,-5.25c-1.53333,-2.26667 -3.8,-3.85 -6.8,-4.75c-2.56667,-0.8 -5.38333,-1.05 -8.45,-0.75c-2.2,0.13333 -4.21667,0.93333 -6.05,2.4M662.35301,377.99234c0.16667,-2.3 0.28333,-3.6 0.35,-3.9c-2.03333,1.36667 -5.28333,3.05 -9.75,5.05c-0.5,0.13333 -0.86667,0.5 -1.1,1.1c-0.13333,0.33333 -0.33333,0.85 -0.6,1.55c1.13333,0 2.81667,0.01667 5.05,0.05c2,0 3.7,-0.03333 5.1,-0.1c0.5,-0.9 0.81667,-2.15 0.95,-3.75M669.40301,380.34234c1.3,-3.8 2.53333,-8.36667 3.7,-13.7l-6.9,5.3c-0.6,4.86667 -1.03333,8 -1.3,9.4l4.5,-1M664.90301,384.19234c-1,0.56667 -1.36667,1.43333 -1.1,2.6c1.06667,-0.46667 1.88333,-0.93333 2.45,-1.4c0.8,-0.63333 1.31667,-1.4 1.55,-2.3c-1.8,0.63333 -2.76667,1 -2.9,1.1M651.05301,384.24234l-0.95,7.55c3.73333,-1.26667 7.63333,-2.75 11.7,-4.45v-3.15h-3.6l-2.25,4.15l-3.75,-1.9l3.65,-2.25l-4.8,0.05M640.65301,369.94234c-0.8,-0.93333 -1.93333,-2.45 -3.4,-4.55c-0.23333,0.7 -1.48333,2.78333 -3.75,6.25c-1.63333,2.46667 -2.2,4.75 -1.7,6.85c7.06667,0.4 13.31667,-0.33333 18.75,-2.2c-2.56667,-1.03333 -4.46667,-1.88333 -5.7,-2.55c-1.43333,-0.9 -2.83333,-2.16667 -4.2,-3.8M647.75301,388.64234c-2.73333,0.66667 -4.78333,1.11667 -6.15,1.35c-2.33333,0.4 -4.4,0.45 -6.2,0.15l-0.1,4.4c5.23333,-0.63333 9.33333,-1.33333 12.3,-2.1l0.15,-3.8M646.45301,385.74234c0.43333,-1 1.33333,-2.78333 2.7,-5.35c-5.23333,1.06667 -10,1.61667 -14.3,1.65c0.16667,0.6 0.26667,1.6 0.3,3c0.16667,1.16667 0.7,1.9 1.6,2.2c1.33333,0.2 2.96667,0.08333 4.9,-0.35c1.06667,-0.23333 2.66667,-0.61667 4.8,-1.15M611.80301,345.19234c-1.46667,1.46667 -2.66667,3.38333 -3.6,5.75c-1,2.1 -1.46667,4.51667 -1.4,7.25c0.03333,2.03333 0.4,4.5 1.1,7.4c0.66667,2.33333 2.06667,4.36667 4.2,6.1c1.53333,1.23333 3.71667,2.48333 6.55,3.75c0.9,-0.66667 2.46667,-1.26667 4.7,-1.8c2.2,-0.53333 3.76667,-1.16667 4.7,-1.9c1.76667,-0.9 3.23333,-2.38333 4.4,-4.45c0.83333,-1.5 1.58333,-3.48333 2.25,-5.95c-0.05911,-0.84518 -0.15911,-1.67852 -0.3,-2.5c-0.01445,-0.17695 -0.03112,-0.36029 -0.05,-0.55h-0.05c-0.725,-3.52904 -2.275,-6.72904 -4.65,-9.6c-3.3,-3.93333 -7.23333,-5.96667 -11.8,-6.1c-2.23333,-0.03333 -4.25,0.83333 -6.05,2.6M601.25301,381.89234l-1.4,1.95c2.5,0.73333 5.25,2.01667 8.25,3.85c-1.16667,-1.93333 -2.38333,-4.28333 -3.65,-7.05c-1.4,-3.23333 -2.46667,-5.66667 -3.2,-7.3c-0.06667,1.43333 -0.06667,4.28333 0,8.55M614.55301,376.99234c-4.2,-2.53333 -8.26667,-5.93333 -12.2,-10.2c2.6,7.56667 4.63333,13.08333 6.1,16.55c5.13333,0.83333 7.96667,1.28333 8.5,1.35c-0.5,-1.73333 -0.86667,-3.03333 -1.1,-3.9c-0.46667,-1.53333 -0.9,-2.8 -1.3,-3.8M612.95301,385.94234c-1.9,-0.46667 -3.16667,-0.78333 -3.8,-0.95c0.3,0.53333 0.71667,1.35 1.25,2.45c0.5,0.96667 0.98333,1.73333 1.45,2.3c1.03333,0.66667 2.33333,1.31667 3.9,1.95c0.93333,0.36667 2.31667,0.88333 4.15,1.55c-0.53333,-1.5 -0.93333,-2.61667 -1.2,-3.35c-0.53333,-1.36667 -1.18333,-2.35 -1.95,-2.95c-0.93333,-0.3 -2.2,-0.63333 -3.8,-1M632.95301,389.34234l-12,0.15l1,4.2c3.96667,0.66667 7.96667,0.96667 12,0.9l-1,-5.25M627.25301,357.29234c1,1.16667 1.35,2.63333 1.05,4.4c-0.2,1.13333 -0.75,2.6 -1.65,4.4l-3.3,1.2c-1.66667,-0.63333 -2.91667,-1.26667 -3.75,-1.9c-1.23333,-1 -1.88333,-2.2 -1.95,-3.6c-0.4,-2.5 0.7,-4.36667 3.3,-5.6c2.6,-1.26667 4.7,-0.9 6.3,1.1M623.50301,364.24234c1.9,-0.26667 2.63333,-1.51667 2.2,-3.75c-0.4,-2.23333 -1.55,-3.03333 -3.45,-2.4c-1.8,0.36667 -2.5,1.6 -2.1,3.7c0.4,2.1 1.51667,2.91667 3.35,2.45M622.15301,360.24234c0.73333,-0.53333 1.36667,-0.4 1.9,0.4c0.56667,0.83333 0.48333,1.5 -0.25,2c-0.73333,0.56667 -1.38333,0.43333 -1.95,-0.4c-0.56667,-0.83333 -0.46667,-1.5 0.3,-2M647.35301,351.24234l3.9,1.95c1.36667,-1.26667 2.33333,-2.05 2.9,-2.35c1.26667,-0.66667 2.36667,-0.5 3.3,0.5c1,0.8 1.25,1.88333 0.75,3.25c-0.03333,0.06667 -0.63333,1.15 -1.8,3.25c1.23333,1.96667 2.18333,3.83333 2.85,5.6c-0.8,0.06667 -1.6,0.2 -2.4,0.4h-1.65l-2.1,-2.35c-1.33333,0.83333 -2.35,1.4 -3.05,1.7c-1.23333,0.5 -2.33333,0.41667 -3.3,-0.25c-0.23333,-1.1 -0.06667,-2.3 0.5,-3.6c0.8,-1.46667 1.38333,-2.56667 1.75,-3.3z" fill="#000000"/><path d="M621.95301,393.69234l-1,-4.2l12,-0.15l1,5.25c-4.03333,0.06667 -8.03333,-0.23333 -12,-0.9z" fill="#f5ff6f"/><path d="M618.70301,389.89234c0.26667,0.73333 0.66667,1.85 1.2,3.35c-1.83333,-0.66667 -3.21667,-1.18333 -4.15,-1.55c-1.56667,-0.63333 -2.86667,-1.28333 -3.9,-1.95c-0.46667,-0.56667 -0.95,-1.33333 -1.45,-2.3c-0.53333,-1.1 -0.95,-1.91667 -1.25,-2.45c0.63333,0.16667 1.9,0.48333 3.8,0.95c1.6,0.36667 2.86667,0.7 3.8,1c0.76667,0.6 1.41667,1.58333 1.95,2.95z" fill="#f6ff70"/><path d="M615.85301,380.79234c0.23333,0.86667 0.6,2.16667 1.1,3.9c-0.53333,-0.06667 -3.36667,-0.51667 -8.5,-1.35c-1.46667,-3.46667 -3.5,-8.98333 -6.1,-16.55c3.93333,4.26667 8,7.66667 12.2,10.2c0.4,1 0.83333,2.26667 1.3,3.8M620.15301,361.79234c-0.4,-2.1 0.3,-3.33333 2.1,-3.7c1.9,-0.63333 3.05,0.16667 3.45,2.4c0.43333,2.23333 -0.3,3.48333 -2.2,3.75c-1.83333,0.46667 -2.95,-0.35 -3.35,-2.45M621.85301,362.24234c0.56667,0.83333 1.21667,0.96667 1.95,0.4c0.73333,-0.5 0.81667,-1.16667 0.25,-2c-0.53333,-0.8 -1.16667,-0.93333 -1.9,-0.4c-0.76667,0.5 -0.86667,1.16667 -0.3,2M617.85301,342.59234c4.56667,0.13333 8.5,2.16667 11.8,6.1c2.375,2.87096 3.925,6.07096 4.65,9.6c-0.3474,0.22552 -0.68073,0.44219 -1,0.65h1.1c-0.00156,-0.02786 -0.00156,-0.0612 0,-0.1c0.14089,0.82148 0.24089,1.65482 0.3,2.5c-0.9,0.53333 -2.21667,1.38333 -3.95,2.55c-1.56667,1.03333 -2.93333,1.76667 -4.1,2.2c0.9,-1.8 1.45,-3.26667 1.65,-4.4c0.3,-1.76667 -0.05,-3.23333 -1.05,-4.4c-1.6,-2 -3.7,-2.36667 -6.3,-1.1c-2.6,1.23333 -3.7,3.1 -3.3,5.6c0.06667,1.4 0.71667,2.6 1.95,3.6c0.83333,0.63333 2.08333,1.26667 3.75,1.9c-2.03333,1 -4.6,1.1 -7.7,0.3c-4.96667,-1.3 -7.55,-1.96667 -7.75,-2c-0.7,-2.9 -1.06667,-5.36667 -1.1,-7.4c-0.06667,-2.73333 0.4,-5.15 1.4,-7.25c0.93333,-2.36667 2.13333,-4.28333 3.6,-5.75c1.8,-1.76667 3.81667,-2.63333 6.05,-2.6M644.85301,373.74234c1.23333,0.66667 3.13333,1.51667 5.7,2.55c-5.43333,1.86667 -11.68333,2.6 -18.75,2.2c-0.5,-2.1 0.06667,-4.38333 1.7,-6.85c2.26667,-3.46667 3.51667,-5.55 3.75,-6.25c1.46667,2.1 2.6,3.61667 3.4,4.55c1.36667,1.63333 2.76667,2.9 4.2,3.8M667.80301,383.09234c-0.23333,0.9 -0.75,1.66667 -1.55,2.3c-0.56667,0.46667 -1.38333,0.93333 -2.45,1.4c-0.26667,-1.16667 0.1,-2.03333 1.1,-2.6c0.13333,-0.1 1.1,-0.46667 2.9,-1.1M648.80301,342.09234c3.06667,-0.3 5.88333,-0.05 8.45,0.75c3,0.9 5.26667,2.48333 6.8,4.75c1.1,1.4 1.9,3.15 2.4,5.25c0.33333,1.4 0.6,3.33333 0.8,5.8c-0.04948,0.00273 -0.09948,0.00273 -0.15,0c0.01966,-0.19479 0.03633,-0.39479 0.05,-0.6l-1.75,0.9h0.25c-1.66641,0.5763 -3.04974,1.9263 -4.15,4.05l-2.25,0.45c-0.66667,-1.76667 -1.61667,-3.63333 -2.85,-5.6c1.16667,-2.1 1.76667,-3.18333 1.8,-3.25c0.5,-1.36667 0.25,-2.45 -0.75,-3.25c-0.93333,-1 -2.03333,-1.16667 -3.3,-0.5c-0.56667,0.3 -1.53333,1.08333 -2.9,2.35l-3.9,-1.95l1.65,4.8c-0.36667,0.73333 -0.95,1.83333 -1.75,3.3c-0.56667,1.3 -0.73333,2.5 -0.5,3.6c0.96667,0.66667 2.06667,0.75 3.3,0.25c0.7,-0.3 1.71667,-0.86667 3.05,-1.7l2.1,2.35c-0.7,0 -2.33333,0.06667 -4.9,0.2c-2.03333,0.1 -3.68333,0.08333 -4.95,-0.05c-0.83333,-0.26667 -1.81667,-0.68333 -2.95,-1.25l-2.9,-1.45l-0.3,-0.15c-1.16667,-4.76667 -1.21667,-8.53333 -0.15,-11.3c0.7,-2.13333 1.93333,-3.91667 3.7,-5.35c1.83333,-1.46667 3.85,-2.26667 6.05,-2.4M672.05301,342.09234c0.6056,0.77786 1.2056,1.57786 1.8,2.4l-1.7,1.55c-0.03477,0.03151 -0.0681,0.06484 -0.1,0.1c-0.61341,0.59818 -0.73008,1.19818 -0.35,1.8c0.08919,0.24987 0.20586,0.46654 0.35,0.65c0.3944,0.51784 0.9944,0.80117 1.8,0.85c0.06393,0.00326 0.1306,0.00326 0.2,0c0.65482,0.01419 1.55482,-0.06914 2.7,-0.25c0.74688,0.40326 1.66354,0.81992 2.75,1.25c0.82513,0.32565 1.7418,0.65898 2.75,1h-0.8c2.98281,0.63177 6.16615,1.64844 9.55,3.05c2.09896,0.74076 3.69896,2.22409 4.8,4.45c0.08529,0.17917 0.16862,0.3625 0.25,0.55c1,2.33333 1.28333,4.71667 0.85,7.15c-1.26667,2.06667 -3.6,3.95 -7,5.65c-4.23333,2.13333 -6.86667,3.65 -7.9,4.55c-2.53333,2.23333 -5.75,4.35 -9.65,6.35c1.36667,-3.3 2.51667,-7.16667 3.45,-11.6c0.46667,-2.26667 1.15,-6.25 2.05,-11.95c0.26667,-0.8 0.03333,-1.5 -0.7,-2.1c-0.76667,-0.63333 -1.46667,-0.6 -2.1,0.1c-1,1.6 -1.66667,2.65 -2,3.15c-0.76667,1.13333 -1.55,2.06667 -2.35,2.8c0.73333,-3.56667 0.8,-7 0.2,-10.3c-0.29154,-1.58867 -0.74154,-3.07201 -1.35,-4.45c-0.74323,-1.77435 -1.74323,-3.37435 -3,-4.8c-2.36667,-2.83333 -5.6,-4.71667 -9.7,-5.65c-3.66667,-0.8 -7.48333,-0.76667 -11.45,0.1c-2.6,0.63333 -4.9,2.05 -6.9,4.25c-1.8,2.03333 -3.1,4.43333 -3.9,7.2c-2.16667,-3.1 -4.56667,-5.51667 -7.2,-7.25c-3.1,-2.1 -6.3,-3.06667 -9.6,-2.9c-2.83333,-0.2 -5.41667,0.81667 -7.75,3.05c-1.9,1.83333 -3.45,4.25 -4.65,7.25c-0.93333,2.13333 -1.4,4.6 -1.4,7.4c-0.03333,1.8 0.18333,4.3 0.65,7.5c-0.8,-0.96667 -1.58333,-2.21667 -2.35,-3.75c-0.83333,-1.83333 -1.46667,-3.2 -1.9,-4.1c-0.56667,-0.7 -1.3,-0.95 -2.2,-0.75c-0.8,0.2 -1.48333,0.65 -2.05,1.35c-0.1,3.46667 0.06667,7.7 0.5,12.7c0.23333,2.8 0.6,7 1.1,12.6c-3.5,-1.6 -5.91667,-2.8 -7.25,-3.6c-2.6,-1.56667 -4.6,-3.35 -6,-5.35c-1.5,-2.06667 -2.13333,-4.43333 -1.9,-7.1c0.2,-2.63333 1.16667,-4.9 2.9,-6.8c2.1,-2.26667 4.56667,-4.05 7.4,-5.35c0.76888,-0.34466 1.53555,-0.64466 2.3,-0.9h-0.5c0.25573,-0.08581 0.50573,-0.16914 0.75,-0.25c0.49974,-0.19987 1.23307,-0.36654 2.2,-0.5h0.05c0.05768,-0.00651 0.10768,-0.02318 0.15,-0.05c0.27643,-0.00755 0.55977,-0.02422 0.85,-0.05c1.3,-0.26667 2.08333,-0.91667 2.35,-1.95l-3.1,-1.15c1.14219,-1.27148 2.64219,-2.98815 4.5,-5.15c1.00794,-1.1625 2.12461,-2.4625 3.35,-3.9c3.1,-3.36667 6.08333,-5.98333 8.95,-7.85c4.66823,-3.04987 9.6849,-5.26654 15.05,-6.65c0.38177,-0.07812 0.7651,-0.16146 1.15,-0.25c5.96667,-1.36667 11.8,-1.55 17.5,-0.55c0.48711,0.10924 0.97044,0.22591 1.45,0.35c8.0651,2.21146 15.44844,7.57813 22.15,16.1z" fill="#f3ff6e"/><path d="M601.25301,373.34234c0.73333,1.63333 1.8,4.06667 3.2,7.3c1.26667,2.76667 2.48333,5.11667 3.65,7.05c-3,-1.83333 -5.75,-3.11667 -8.25,-3.85l1.4,-1.95c-0.06667,-4.26667 -0.06667,-7.11667 0,-8.55M652.20301,386.44234l3.75,1.9l2.25,-4.15h3.6v3.15c-4.06667,1.7 -7.96667,3.18333 -11.7,4.45l0.95,-7.55l4.8,-0.05z" fill="#ffff78"/><path d="M632.45301,367.29234c-1.16667,2.06667 -2.63333,3.55 -4.4,4.45c-0.93333,0.73333 -2.5,1.36667 -4.7,1.9c-2.23333,0.53333 -3.8,1.13333 -4.7,1.8c-2.83333,-1.26667 -5.01667,-2.51667 -6.55,-3.75c-2.13333,-1.73333 -3.53333,-3.76667 -4.2,-6.1c0.2,0.03333 2.78333,0.7 7.75,2c3.1,0.8 5.66667,0.7 7.7,-0.3l3.3,-1.2c1.16667,-0.43333 2.53333,-1.16667 4.1,-2.2c1.73333,-1.16667 3.05,-2.01667 3.95,-2.55c-0.66667,2.46667 -1.41667,4.45 -2.25,5.95M634.35301,358.29234c0.01888,0.18971 0.03555,0.37305 0.05,0.55c-0.00156,0.0388 -0.00156,0.07214 0,0.1h-1.1c0.31927,-0.20781 0.6526,-0.42448 1,-0.65h0.05M667.15301,358.04234c-0.01367,0.20521 -0.03034,0.40521 -0.05,0.6c0.05052,0.00273 0.10052,0.00273 0.15,0c-0.76667,3.1 -1.2,4.78333 -1.3,5.05c-0.73333,1.86667 -1.9,2.98333 -3.5,3.35c-5.26667,1.26667 -11.81667,1.45 -19.65,0.55c-0.73333,-0.73333 -1.38333,-1.73333 -1.95,-3c-0.6,-1.46667 -1.05,-2.56667 -1.35,-3.3l2.9,1.45c1.13333,0.56667 2.11667,0.98333 2.95,1.25c1.26667,0.13333 2.91667,0.15 4.95,0.05c2.56667,-0.13333 4.2,-0.2 4.9,-0.2h1.65c0.8,-0.2 1.6,-0.33333 2.4,-0.4l2.25,-0.45c1.10026,-2.1237 2.48359,-3.4737 4.15,-4.05h-0.25z" fill="#ff1300"/><path d="M636.75301,387.24234c-0.9,-0.3 -1.43333,-1.03333 -1.6,-2.2c-0.03333,-1.4 -0.13333,-2.4 -0.3,-3c4.3,-0.03333 9.06667,-0.58333 14.3,-1.65c-1.36667,2.56667 -2.26667,4.35 -2.7,5.35c-2.13333,0.53333 -3.73333,0.91667 -4.8,1.15c-1.93333,0.43333 -3.56667,0.55 -4.9,0.35z" fill="#f8ff70"/><path d="M635.30301,394.54234l0.1,-4.4c1.8,0.3 3.86667,0.25 6.2,-0.15c1.36667,-0.23333 3.41667,-0.68333 6.15,-1.35l-0.15,3.8c-2.96667,0.76667 -7.06667,1.46667 -12.3,2.1z" fill="#ffff77"/><path d="M666.20301,371.94234l6.9,-5.3c-1.16667,5.33333 -2.4,9.9 -3.7,13.7l-4.5,1c0.26667,-1.4 0.7,-4.53333 1.3,-9.4z" fill="#faff71"/><path d="M656.30301,381.84234c-2.23333,-0.03333 -3.91667,-0.05 -5.05,-0.05c0.26667,-0.7 0.46667,-1.21667 0.6,-1.55c0.23333,-0.6 0.6,-0.96667 1.1,-1.1c4.46667,-2 7.71667,-3.68333 9.75,-5.05c-0.06667,0.3 -0.18333,1.6 -0.35,3.9c-0.13333,1.6 -0.45,2.85 -0.95,3.75c-1.4,0.06667 -3.1,0.1 -5.1,0.1z" fill="#ffff74"/></g></g></svg>