<svg version="1.1" xmlns="http://www.w3.org/2000/svg" xmlns:xlink="http://www.w3.org/1999/xlink" width="36.64503" height="74.67001" viewBox="0,0,36.64503,74.67001"><g transform="translate(-615.76715,-331.60709)"><g data-paper-data="{&quot;isPaintingLayer&quot;:true}" fill-rule="nonzero" stroke="none" stroke-width="1" stroke-linecap="round" stroke-linejoin="miter" stroke-miterlimit="4" stroke-dasharray="" stroke-dashoffset="0" style="mix-blend-mode: normal"><path d="M632.00399,335.40901c3.16667,3.1 7.65,7.98333 13.45,14.65c2.63333,3.03333 4.28333,5.5 4.95,7.4c1.56667,3.36667 2.21667,7.16667 1.95,11.4c-0.23333,3.5 -1.1,7.28333 -2.6,11.35c-1.16667,3.26667 -2.6,6.16667 -4.3,8.7c-1.1,1.63333 -2.66667,3.55 -4.7,5.75c-2.2,2.4 -4.2,4.3 -6,5.7c-1.06667,0.86667 -2.7,2.1 -4.9,3.7c-0.76667,0.7 -1.28333,1.13333 -1.55,1.3c-0.6,0.46667 -1.2,0.75 -1.8,0.85c-1.3,0.26667 -2.75,-0.25 -4.35,-1.55c-1.83333,-1.33333 -3.15,-2.86667 -3.95,-4.6c-0.93333,-2.1 -1.03333,-4.1 -0.3,-6c0.33333,-0.8 0.88333,-1.61667 1.65,-2.45c0.43333,-0.46667 1.18333,-1.16667 2.25,-2.1c3.13333,-2.83333 5.96667,-5.7 8.5,-8.6c2.23333,-2.46667 3.63333,-4.66667 4.2,-6.6c0.8,-2.53333 0.68333,-5.31667 -0.35,-8.35c-0.8,-2.26667 -2.16667,-4.75 -4.1,-7.45c-2.83333,-4 -5.88333,-7.66667 -9.15,-11c-1.96667,-1.9 -3.3,-3.43333 -4,-4.6c-1.2,-2.1 -1.45,-4.05 -0.75,-5.85c0.63333,-1.56667 2.1,-2.93333 4.4,-4.1c0.1,-0.06667 0.2,-0.11667 0.3,-0.15c1.73333,-0.83333 3.15,-1.23333 4.25,-1.2c1.23333,0 2.48333,0.4 3.75,1.2c0.06667,0.03333 0.15,0.08333 0.25,0.15c0.83333,0.56667 1.8,1.38333 2.9,2.45M626.45399,338.15901c-0.86667,-0.7 -1.56667,-1 -2.1,-0.9c-0.23333,0.06667 -0.53333,0.25 -0.9,0.55c-0.36667,0.3 -0.66667,0.48333 -0.9,0.55c-0.03333,0.03333 -0.25,0.08333 -0.65,0.15c-0.23333,0.03333 -0.41667,0.11667 -0.55,0.25c-0.53333,0.46667 -0.28333,1.1 0.75,1.9c2.96667,2.26667 6.21667,5.73333 9.75,10.4c3.3,4.16667 5.58333,7.7 6.85,10.6c1.96667,4.36667 2.58333,8.48333 1.85,12.35c-0.73333,3.9 -3.23333,8.16667 -7.5,12.8c-2.7,2.96667 -5.51667,5.66667 -8.45,8.1c-0.56667,0.46667 -0.93333,0.88333 -1.1,1.25c-0.3,0.7 -0.16667,1.41667 0.4,2.15c0.36667,0.5 0.93333,0.98333 1.7,1.45c2.73333,-1.63333 5.51667,-3.85 8.35,-6.65c1.6,-1.56667 3.91667,-4.06667 6.95,-7.5c1.3,-2.73333 2.26667,-4.83333 2.9,-6.3c1.03333,-2.46667 1.76667,-4.75 2.2,-6.85c1.16667,-5.33333 0.68333,-9.98333 -1.45,-13.95c-0.73333,-1.4 -2.05,-3.16667 -3.95,-5.3c-3.13333,-3.6 -5.41667,-6.18333 -6.85,-7.75c-2.6,-2.83333 -5.03333,-5.26667 -7.3,-7.3z" fill="#000000"/><path d="M644.54399,358.51901c2.13333,3.96667 2.61667,8.61667 1.45,13.95c-0.43333,2.1 -1.16667,4.38333 -2.2,6.85c-0.63333,1.46667 -1.6,3.56667 -2.9,6.3c-3.03333,3.43333 -5.35,5.93333 -6.95,7.5c-2.83333,2.8 -5.61667,5.01667 -8.35,6.65c-0.76667,-0.46667 -1.33333,-0.95 -1.7,-1.45c-0.56667,-0.73333 -0.7,-1.45 -0.4,-2.15c0.16667,-0.36667 0.53333,-0.78333 1.1,-1.25c2.93333,-2.43333 5.75,-5.13333 8.45,-8.1c4.26667,-4.63333 6.76667,-8.9 7.5,-12.8c0.73333,-3.86667 0.11667,-7.98333 -1.85,-12.35c-1.26667,-2.9 -3.55,-6.43333 -6.85,-10.6c-3.53333,-4.66667 -6.78333,-8.13333 -9.75,-10.4c-1.03333,-0.8 -1.28333,-1.43333 -0.75,-1.9c0.13333,-0.13333 0.31667,-0.21667 0.55,-0.25c0.4,-0.06667 0.61667,-0.11667 0.65,-0.15c0.23333,-0.06667 0.53333,-0.25 0.9,-0.55c0.36667,-0.3 0.66667,-0.48333 0.9,-0.55c0.53333,-0.1 1.23333,0.2 2.1,0.9c2.26667,2.03333 4.7,4.46667 7.3,7.3c1.43333,1.56667 3.71667,4.15 6.85,7.75c1.9,2.13333 3.21667,3.9 3.95,5.3z" fill="#ffffff"/></g></g></svg>