<svg version="1.1" xmlns="http://www.w3.org/2000/svg" xmlns:xlink="http://www.w3.org/1999/xlink" width="49.88804" height="68.37278" viewBox="0,0,49.88804,68.37278"><g transform="translate(-606.46857,-337.97151)"><g data-paper-data="{&quot;isPaintingLayer&quot;:true}" fill-rule="nonzero" stroke="none" stroke-width="1" stroke-linecap="butt" stroke-linejoin="miter" stroke-miterlimit="10" stroke-dasharray="" stroke-dashoffset="0" style="mix-blend-mode: normal"><path d="M655.30661,361.13784c0.03333,0.16667 0.06667,0.33333 0.1,0.5c0.4,1.6 0.6,3.21667 0.6,4.85c0,0.53333 0.05,1.06667 0.15,1.6c0.13333,0.56667 0.2,1.1 0.2,1.6c-0.06667,2.86667 -0.3,5.73333 -0.7,8.6c-0.13333,0.8 -0.21667,1.6 -0.25,2.4c-0.03333,0.83333 -0.21667,1.7 -0.55,2.6c-0.1,0.3 -0.16667,0.6 -0.2,0.9c-0.5,3.03333 -1.46667,5.86667 -2.9,8.5c-2.23333,4.13333 -5.41667,7.43333 -9.55,9.9c-3.86667,2.33333 -8.01667,3.58333 -12.45,3.75c-2.43333,0.06667 -4.8,-0.38333 -7.1,-1.35c-1.16667,-0.5 -2.3,-1.03333 -3.4,-1.6c-4.06667,-2.23333 -7.1,-5.43333 -9.1,-9.6c-0.9,-1.9 -1.63333,-3.86667 -2.2,-5.9c-1.23333,-4.36667 -1.7,-8.81667 -1.4,-13.35c0.06667,-1 0.18333,-1.96667 0.35,-2.9c0.13333,-0.66667 0.18333,-1.31667 0.15,-1.95c-0.1,-1.13333 -0.08333,-2.2 0.05,-3.2c0.16667,-1.06667 0.35,-2.13333 0.55,-3.2c0.2,-1.03333 0.43333,-2.01667 0.7,-2.95c1.23333,-4.5 3.08333,-8.7 5.55,-12.6c0.4,-0.63333 0.78333,-1.28333 1.15,-1.95c0.26667,-0.5 0.63333,-0.93333 1.1,-1.3c0.76667,-0.53333 1.5,-1.13333 2.2,-1.8c3.16667,-2.93333 6.9,-4.5 11.2,-4.7c4.16667,-0.13333 8.16667,0.55 12,2.05c1.16667,0.43333 2.28333,0.96667 3.35,1.6c0.73333,0.4 1.4,0.91667 2,1.55c3.33333,3.46667 5.58333,7.4 6.75,11.8c0.63333,1.96667 1.18333,4.01667 1.65,6.15M650.35661,369.88784c-0.1,-1.6 -0.28333,-3.21667 -0.55,-4.85c-0.33333,-2.3 -0.83333,-4.61667 -1.5,-6.95c-0.96667,-4.13333 -2.83333,-7.81667 -5.6,-11.05c-1.06667,-1.26667 -2.4,-2.05 -4,-2.35c-2.46667,-0.43333 -4.91667,-0.85 -7.35,-1.25c-1.16667,0.23333 -2.33333,0.48333 -3.5,0.75c-2.13333,0.63333 -4.05,1.65 -5.75,3.05c-0.76667,0.63333 -1.43333,1.33333 -2,2.1c-2.63333,3.66667 -4.61667,7.63333 -5.95,11.9c-0.36667,1.16667 -0.65,2.3 -0.85,3.4c-0.73333,4.5 -1.01667,9.06667 -0.85,13.7c0.13333,4.13333 1.01667,8.13333 2.65,12c1.86667,4.43333 5.05,7.5 9.55,9.2c4.26667,1.5 8.45,1.3 12.55,-0.6c4.03333,-1.9 7.11667,-4.81667 9.25,-8.75c0.1,-0.16667 0.2,-0.31667 0.3,-0.45c0.63333,-1.06667 1.06667,-2.15 1.3,-3.25c0.46667,-2.13333 0.96667,-4.28333 1.5,-6.45c0.06667,-0.26667 0.11667,-0.53333 0.15,-0.8c0.23333,-2.13333 0.46667,-4.26667 0.7,-6.4c0.06667,-0.63333 0.06667,-1.26667 0,-1.9c-0.03333,-0.46667 -0.05,-0.81667 -0.05,-1.05M634.20661,354.13784c0.8,0.13333 1.53333,0.43333 2.2,0.9c1.23333,0.83333 2.31667,1.85 3.25,3.05c1.5,2 2.65,4.25 3.45,6.75c0.7,2.1 1.06667,4.21667 1.1,6.35c0,1.1 -0.13333,2.18333 -0.4,3.25c-0.13333,0.5 -0.23333,1.03333 -0.3,1.6c-0.33333,2.8 -1.25,5.35 -2.75,7.65c-1.1,1.7 -2.46667,3.01667 -4.1,3.95c-0.23333,0.1 -0.43333,0.25 -0.6,0.45c-1.8,1.6 -3.95,2.26667 -6.45,2c-2.6,-0.26667 -4.65,-1.43333 -6.15,-3.5c-0.3,-0.4 -0.61667,-0.78333 -0.95,-1.15c-0.46667,-0.46667 -0.83333,-1.01667 -1.1,-1.65c-1.76667,-4.16667 -2.4,-8.48333 -1.9,-12.95c0.03333,-0.46667 0.08333,-0.9 0.15,-1.3c0.5,-2.76667 1.36667,-5.38333 2.6,-7.85c2.03333,-4.03333 5.15,-6.68333 9.35,-7.95c0.86667,0.03333 1.73333,0.16667 2.6,0.4M628.55661,361.18784c-0.76667,0.96667 -1.35,1.98333 -1.75,3.05c-0.4,1 -0.78333,1.98333 -1.15,2.95c-0.16667,1.23333 -0.41667,2.4 -0.75,3.5c-0.36667,1.3 -0.41667,2.63333 -0.15,4c0.2,0.9 0.33333,1.8 0.4,2.7c0.2,2.3 1.08333,4.2 2.65,5.7c0.4,0.4 0.83333,0.7 1.3,0.9c1.46667,0.86667 2.68333,0.65 3.65,-0.65c2.33333,-1.1 3.86667,-2.98333 4.6,-5.65c0.03333,-0.16667 0.08333,-0.31667 0.15,-0.45c1.43333,-3.76667 1.5,-7.55 0.2,-11.35c-1.1,-3.3 -3.1,-5.71667 -6,-7.25l-1.85,1.05c-0.43333,0.5 -0.86667,1 -1.3,1.5z" fill="#000000"/><path d="M650.40661,370.93784c0.06667,0.63333 0.06667,1.26667 0,1.9c-0.23333,2.13333 -0.46667,4.26667 -0.7,6.4c-0.03333,0.26667 -0.08333,0.53333 -0.15,0.8c-0.53333,2.16667 -1.03333,4.31667 -1.5,6.45c-0.23333,1.1 -0.66667,2.18333 -1.3,3.25c-0.1,0.13333 -0.2,0.28333 -0.3,0.45c-2.13333,3.93333 -5.21667,6.85 -9.25,8.75c-4.1,1.9 -8.28333,2.1 -12.55,0.6c-4.5,-1.7 -7.68333,-4.76667 -9.55,-9.2c-1.63333,-3.86667 -2.51667,-7.86667 -2.65,-12c-0.16667,-4.63333 0.11667,-9.2 0.85,-13.7c0.2,-1.1 0.48333,-2.23333 0.85,-3.4c1.33333,-4.26667 3.31667,-8.23333 5.95,-11.9c0.56667,-0.76667 1.23333,-1.46667 2,-2.1c1.7,-1.4 3.61667,-2.41667 5.75,-3.05c1.16667,-0.26667 2.33333,-0.51667 3.5,-0.75c2.43333,0.4 4.88333,0.81667 7.35,1.25c1.6,0.3 2.93333,1.08333 4,2.35c2.76667,3.23333 4.63333,6.91667 5.6,11.05c0.66667,2.33333 1.16667,4.65 1.5,6.95c0.26667,1.63333 0.45,3.25 0.55,4.85c0,0.23333 0.01667,0.58333 0.05,1.05M622.25661,361.68784c-1.23333,2.46667 -2.1,5.08333 -2.6,7.85c-0.06667,0.4 -0.11667,0.83333 -0.15,1.3c-0.5,4.46667 0.13333,8.78333 1.9,12.95c0.26667,0.63333 0.63333,1.18333 1.1,1.65c0.33333,0.36667 0.65,0.75 0.95,1.15c1.5,2.06667 3.55,3.23333 6.15,3.5c2.5,0.26667 4.65,-0.4 6.45,-2c0.16667,-0.2 0.36667,-0.35 0.6,-0.45c1.63333,-0.93333 3,-2.25 4.1,-3.95c1.5,-2.3 2.41667,-4.85 2.75,-7.65c0.06667,-0.56667 0.16667,-1.1 0.3,-1.6c0.26667,-1.06667 0.4,-2.15 0.4,-3.25c-0.03333,-2.13333 -0.4,-4.25 -1.1,-6.35c-0.8,-2.5 -1.95,-4.75 -3.45,-6.75c-0.93333,-1.2 -2.01667,-2.21667 -3.25,-3.05c-0.66667,-0.46667 -1.4,-0.76667 -2.2,-0.9c-0.86667,-0.23333 -1.73333,-0.36667 -2.6,-0.4c-4.2,1.26667 -7.31667,3.91667 -9.35,7.95z" fill="#ffffff"/></g></g></svg>